<svg xmlns="http://www.w3.org/2000/svg" viewBox="0 0 16 16"><defs><style>.cls-1{fill:#010101;fill-rule:evenodd;}</style></defs><title>calendar</title><g id="Layer_1" data-name="Layer 1"><path class="cls-1" d="M15.171,2.527V0H10.106V2.527H5.927V0H.829V2.527H0V16H16V2.527Zm-.859,4.819H11.428V4.235h2.883Zm-2.883.388h2.883v3.1H11.428ZM11.8,1.68h1.682V3.388H11.8ZM11.04,4.235V7.346H8.151V4.235Zm-6.555,6.6H1.693v-3.1H4.486Zm.388-3.1H7.763v3.1H4.874Zm2.889,3.493v3.126H4.874V11.227Zm.388-3.493H11.04v3.1H8.151Zm2.889,3.493v3.126H8.151V11.227ZM7.763,4.235V7.346H4.874V4.235ZM2.551,1.68H4.205V3.388H2.551ZM4.486,4.235V7.346H1.693V4.235ZM1.693,11.227H4.486v3.126H1.693Zm9.735,3.126V11.227h2.883v3.126Z"/></g></svg>