<svg xmlns="http://www.w3.org/2000/svg" viewBox="0 0 16 16"><defs><style>.cls-1{fill:#010101;}</style></defs><title>edit-person</title><g id="Layer_1" data-name="Layer 1"><circle class="cls-1" cx="7.109" cy="3.394" r="3.379"/><rect class="cls-1" x="9.483" y="11.579" width="4.188" height="2.172" transform="translate(-5.148 8.829) rotate(-34.651)"/><path class="cls-1" d="M9.063,15.723l-1.673.258A.38.38,0,0,1,7,15.42l.828-1.484.851-.588,1.235,1.786Z"/><path class="cls-1" d="M14.494,11.969l-1.235-1.786,1.29-.892a.5.5,0,0,1,.7.127l.666.964a.5.5,0,0,1-.127.7Z"/><path class="cls-1" d="M11.873,9.527a.238.238,0,0,0,.072-.314C11.315,8.187,10.14,8,8.794,8H5.423A3.423,3.423,0,0,0,2,11.423v.348A.229.229,0,0,0,2.229,12h5.93a.229.229,0,0,0,.129-.04Z"/></g></svg>