<svg xmlns="http://www.w3.org/2000/svg" viewBox="0 0 16 16"><title>firefox</title><path class="cls-1" d="M14.393 3.607l-.193-.774.113-.035c.858 1.059.929 2.4 1.178 3.729l.126-.552h.066a.827.827 0 0 1 .066.22 11.158 11.158 0 0 1-1.655 6.484 6.863 6.863 0 0 1-4.772 3 7.254 7.254 0 0 1-4.822-.685A7.938 7.938 0 0 1 .513 9.475l-.049-.141-.138.215V7.431l-.144.051a4.874 4.874 0 0 1 .137-.726c.239-.682.511-1.356.753-2.032a1.717 1.717 0 0 0 .09-.57 3.7 3.7 0 0 1 .481-1.984 4.259 4.259 0 0 1 .348-.433l.389 1.015A7.334 7.334 0 0 1 8.614.276a8.418 8.418 0 0 1 5.779 3.331zm-2.807-1.932a6.877 6.877 0 0 0-8.927 1.452 4.947 4.947 0 0 0 .533.069c.4.007.808.009 1.212-.01a.7.7 0 0 0 .411-.131 3.142 3.142 0 0 1 1.634-.707 1.157 1.157 0 0 1 .3.036 7.431 7.431 0 0 0-.74.83c-.481.738-.151 1.369.712 1.4.215.009.432 0 .647 0 .45.01.58.221.368.635a1.054 1.054 0 0 1-.321.336c-.273.2-.555.388-.841.57a.525.525 0 0 0-.231.6c.042.248.048.5.076.822-.186-.062-.3-.091-.407-.137a.53.53 0 0 0-.712.16.676.676 0 0 0 0 .8 1.784 1.784 0 0 0 1.881.768c.31-.092.6-.242.915-.324a1.378 1.378 0 0 1 1.467.455c.218.247.122.575-.172.574a2.089 2.089 0 0 0-1.036.453 6.576 6.576 0 0 1-1.142.508 5.463 5.463 0 0 1-.958.13 4.17 4.17 0 0 0 3.141.951 4.212 4.212 0 0 0 2.488-2.07l.1.06-.161.959a4.819 4.819 0 0 0 .618-3.2l.088-.037.489.436a6.886 6.886 0 0 0 .022-2.9.887.887 0 0 1 .2.07c.111.089.216.186.359.311a4.313 4.313 0 0 0-3.269-2.879l.048-.108 1.259-.235.01-.1-1.9-.578a3.54 3.54 0 0 1 1.839.031z" data-name="Layer 1"/></svg>