<svg xmlns="http://www.w3.org/2000/svg" viewBox="0 0 16 16"><defs><style>.cls-1{fill:#010101}</style></defs><title>keys</title><g id="Layer_1" data-name="Layer 1"><g id="Your_Icon" data-name="Your Icon"><path class="cls-1" d="M3.343 15.614a.47.47 0 0 1-.17-.032 1.278 1.278 0 0 1-.713-.726 1.217 1.217 0 0 1 .171-1.049l.328-.533a.47.47 0 0 1 .255-.2L3.448 13l-.236-.994a.466.466 0 0 1 .354-.564l1.034-.228v-.746a.467.467 0 0 1 .061-.23l.717-1.263A2.877 2.877 0 0 1 7.1 4.867a.92.92 0 0 1 .56-.058.467.467 0 0 1-.228.906 2.132 2.132 0 0 0-1.171.892 1.956 1.956 0 0 0 .04 2.1.466.466 0 0 1 .018.49l-.79 1.392v1a.466.466 0 0 1-.367.455l-.932.206.227.953a.467.467 0 0 1-.312.553l-.481.153-.237.385a.379.379 0 0 0-.081.262.218.218 0 0 0 .071.092l.891-.212 2.876-4.67a.467.467 0 0 1 .462-.218 1.928 1.928 0 0 0 1.585-.5.8.8 0 0 0 .141-.275.467.467 0 1 1 .9.237 1.661 1.661 0 0 1-.4.712 2.928 2.928 0 0 1-2.042.778L5 15.093a.465.465 0 0 1-.29.209l-1.262.3a.451.451 0 0 1-.105.012z"/><path class="cls-1" d="M5.486 8.135a.462.462 0 0 1-.128-.017 5.729 5.729 0 0 1-.734-.274 4.109 4.109 0 0 1-1.993-5.459 4.113 4.113 0 1 1 7.461 3.463.467.467 0 1 1-.847-.394A3.18 3.18 0 1 0 5.023 7a4.618 4.618 0 0 0 .591.22.467.467 0 0 1-.128.916z"/><path class="cls-1" d="M12.95 15.971a1.231 1.231 0 0 1-1.157-.912l-.236-.648a.466.466 0 0 1 0-.327l.113-.3-1.067-.5a.465.465 0 0 1-.243-.268.469.469 0 0 1 .022-.36l.533-1.084-.677-.539a.455.455 0 0 1-.143-.192l-.603-1.517a3.133 3.133 0 1 1 2.92-1.039l2.035 5.645a.463.463 0 0 1-.017.357l-.61 1.3a.465.465 0 0 1-.19.207 1.466 1.466 0 0 1-.68.177zm-.45-1.716l.177.486c.106.3.227.3.279.3a.431.431 0 0 0 .1-.014l.45-.959-2.069-5.737a.467.467 0 0 1 .117-.5 2.2 2.2 0 1 0-1.691.6.467.467 0 0 1 .4.292l.662 1.658.874.7a.467.467 0 0 1 .128.572l-.489.993 1.029.484a.467.467 0 0 1 .238.59z"/><path class="cls-1" d="M9.765 6.37a.834.834 0 0 1-.287-1.617.853.853 0 0 1 1.069.5.834.834 0 0 1-.5 1.063.833.833 0 0 1-.282.054zm0-.934a.118.118 0 0 0-.032 0 .11.11 0 0 0-.062.054.108.108 0 0 0 0 .08.1.1 0 0 0 .093.063c.089-.026.115-.082.1-.136a.1.1 0 0 0-.099-.062z"/></g></g></svg>