<svg xmlns="http://www.w3.org/2000/svg" viewBox="0 0 16 16"><defs><style>.cls-1{fill:#010101;}.cls-2{fill:#020202;}</style></defs><title>mailchimp</title><g id="Layer_1" data-name="Layer 1"><path class="cls-1" d="M14.956,8.974h.005a.508.508,0,0,0,.532-.524.619.619,0,0,0-.124-.393.436.436,0,0,0-.348-.165h0c-.191,0-.369.145-.543.443l-.014.024-.009-.026c-.044-.128-.083-.234-.106-.3-.016-.044-.024-.064-.025-.071a.07.07,0,0,0-.072-.052.129.129,0,0,0-.068.022.08.08,0,0,0-.039.054v0c-.174.543-.318.807-.439.807a.054.054,0,0,1-.042-.017c-.032-.035-.024-.119-.013-.235a2.152,2.152,0,0,0,.013-.284.287.287,0,0,0-.288-.316c-.22,0-.362.234-.428.374l-.02.042,0-.046c-.016-.173-.074-.379-.257-.38-.214,0-.376.251-.475.461l-.027.056,0-.062c.012-.28.021-.446.029-.492a.119.119,0,0,0-.012-.095.1.1,0,0,0-.081-.02c-.068,0-.1.046-.156.185-.086.229-.306.762-.482.762a.105.105,0,0,1-.083-.035c-.074-.084-.044-.313,0-.628l0-.024c.019-.15-.014-.181-.095-.2l-.025,0c-.065,0-.1.062-.156.235-.108.307-.246.63-.409.63h-.018c-.086-.015-.084-.142-.082-.3a1.735,1.735,0,0,0-.011-.276c-.024-.16-.119-.26-.247-.261-.255,0-.427.327-.507.522l-.018.044-.006-.047c-.011-.085-.025-.218-.031-.377V8l0,0a2.5,2.5,0,0,0,.695-1.407c0-.238-.108-.38-.293-.382-.135,0-.458.113-.57,1.159-.021.194-.032.393-.034.591v0l0,0c-.219.316-.685.86-1.142.86-.413,0-.742-.334-.742-.923a1.187,1.187,0,0,1,.98-1.275h0a.352.352,0,0,1,.227.074.25.25,0,0,1,.089.2.366.366,0,0,1-.071.219c-.009.014-.018.028-.026.042a.056.056,0,0,0,0,.055.085.085,0,0,0,.074.031.346.346,0,0,0,.253-.363.489.489,0,0,0-.534-.464,1.423,1.423,0,0,0-1.22,1.5A1,1,0,0,0,8.428,9.03a1.527,1.527,0,0,0,1.131-.755l.021-.029,0,.036c.007.173.02.309.029.408.006.064.01.11.01.136a.186.186,0,0,0,.028.118.116.116,0,0,0,.1.035c.078,0,.093-.053.124-.184l.009-.037c.038-.158.179-.675.392-.675a.106.106,0,0,1,.08.031c.047.05.042.152.036.27a1.512,1.512,0,0,0,0,.224c.02.2.107.3.265.3s.332-.175.421-.337l.017-.031.007.034c.016.087.09.372.321.372.209,0,.389-.22.586-.674l.026-.059,0,.065c0,.172-.013.382-.014.544,0,.126.013.173.071.173h.013c.056,0,.093-.033.112-.1.148-.516.276-.756.4-.756s.136.228.146.629V8.8c0,.14.008.2.1.2.066,0,.083-.052.117-.18.007-.024.014-.051.022-.08.12-.415.219-.584.342-.584.106,0,.112.11.113.145a1.58,1.58,0,0,1-.011.234,1.608,1.608,0,0,0-.012.216.234.234,0,0,0,.25.253c.2,0,.382-.235.541-.7l.011-.032.013.032c.029.073.066.171.1.289v0l0,0a2.813,2.813,0,0,0-.264.925c0,.268.119.442.309.443h0c.1,0,.343-.041.348-.425a2.644,2.644,0,0,0-.11-.66l-.009-.032.028.018A.574.574,0,0,0,14.956,8.974Zm-5.18-1.3c0-.1.012-.19.024-.278.074-.57.23-.967.378-.967h0c.071,0,.106.054.105.159A2.281,2.281,0,0,1,9.8,7.683l-.025.037ZM14.5,9.723a.116.116,0,0,1-.1.047.126.126,0,0,1-.107-.049c-.068-.09-.049-.3.062-.688.013-.046.027-.092.043-.138l.013-.038.011.039C14.549,9.341,14.574,9.619,14.5,9.723Zm.04-1.139,0,0,0-.015,0,0c.146-.3.314-.475.46-.475h0c.165,0,.279.15.277.361a.333.333,0,0,1-.115.265.342.342,0,0,1-.216.078A.53.53,0,0,1,14.536,8.584Z"/><path class="cls-1" d="M5.2,8.925c.226-.018.405-.326.472-.457l.017-.034.007.037c.032.185.132.5.447.5h0a.677.677,0,0,0,.446-.24L6.6,8.717l.008.014a.451.451,0,0,0,.4.261.375.375,0,0,0,.366-.276.092.092,0,0,0-.02-.071.046.046,0,0,0-.07,0l-.01.01a.448.448,0,0,1-.251.147c-.128.006-.222-.07-.283-.228l0-.007,0-.006a2.842,2.842,0,0,0,.573-1.63C7.3,6.708,7.236,6.449,7,6.449H6.98a.351.351,0,0,0-.246.129A2.407,2.407,0,0,0,6.44,8.125a1.556,1.556,0,0,0,.074.4l0,.007,0,.005a.557.557,0,0,1-.362.236c-.248,0-.24-.416-.22-.761,0-.074.011-.122-.011-.149a.1.1,0,0,0-.08-.029h0c-.088,0-.107.018-.152.149-.094.272-.28.729-.466.729A.143.143,0,0,1,5.1,8.66c-.091-.116-.022-.4.033-.636.01-.042.019-.082.028-.119a.142.142,0,0,0-.011-.119.125.125,0,0,0-.11-.03c-.08.006-.131.04-.156.192l0,.032-.019-.022a.261.261,0,0,0-.229-.113H4.595a.623.623,0,0,0-.4.245.821.821,0,0,0-.176.583l0,.033v.006l0,0a.333.333,0,0,1-.238.129c-.122,0-.192-.092-.192-.243,0-.255.173-1.023.173-1.3,0-.3-.132-.457-.361-.459h0c-.334,0-.6.38-.845,1.16-.023.071-.048.154-.069.226l-.035.117.01-.122c.023-.272.039-.537.047-.787A1.054,1.054,0,0,0,2.35,6.7a.339.339,0,0,0-.256-.1h0c-.409,0-.605.69-.748,1.177-.043.147-.128.479-.185.705l.034-.055c.025-.285.1-1,.093-1.388-.005-.416-.144-.6-.449-.605h0a.473.473,0,0,0-.343.149.6.6,0,0,0-.169.407c0,.084.054.158.093.158s.039-.034.046-.054c.095-.313.217-.465.374-.465a.2.2,0,0,1,.15.059c.123.132.1.487.06,1.132-.013.208-.028.444-.04.712,0,.046-.005.09-.008.133-.012.186-.021.333.049.344a.149.149,0,0,0,.182-.114c.045-.135.147-.5.344-1.177.189-.647.332-.882.514-.882.211,0,.227.362.188,1.127-.008.162-.019.346-.028.545l0,.081c-.008.165-.015.3.033.346a.08.08,0,0,0,.061.023c.091,0,.119-.08.165-.213.008-.023.017-.048.026-.075.313-.865.545-1.615.856-1.615.093,0,.166.076.166.224,0,.341-.167,1-.167,1.334a.461.461,0,0,0,.1.3.349.349,0,0,0,.27.12h0a.492.492,0,0,0,.322-.15l.01-.009.008.011a.354.354,0,0,0,.315.14.533.533,0,0,0,.416-.349l.012-.032.012.032A.334.334,0,0,0,5.2,8.925ZM6.978,6.666h0a.071.071,0,0,1,.058.033,1.4,1.4,0,0,1-.054.913,3.076,3.076,0,0,1-.293.673l-.019.031,0-.036c-.014-.1-.02-.213-.025-.305C6.609,7.323,6.806,6.674,6.978,6.666ZM4.833,8.188c-.068.272-.2.6-.431.62H4.383c-.1,0-.151-.064-.162-.189a.65.65,0,0,1,.172-.468.339.339,0,0,1,.237-.126h0a.233.233,0,0,1,.2.154l0,0Z"/><path class="cls-1" d="M5.918,7.19a.153.153,0,1,0,0,.306v.013h0V7.5a.153.153,0,1,0,0-.306Z"/><path class="cls-1" d="M11.347,7.19a.153.153,0,1,0,0,.306v.013h0V7.5a.153.153,0,1,0,0-.306Z"/><path class="cls-2" d="M15.574,8.8a.106.106,0,1,0,.106.106A.106.106,0,0,0,15.574,8.8Zm0,.2a.091.091,0,1,1,.091-.091A.09.09,0,0,1,15.574,9Z"/><path class="cls-2" d="M15.621,8.88c0-.022-.011-.034-.038-.034h-.047v.122h.015V8.915h.022l.036.053h.017l-.036-.053A.033.033,0,0,0,15.621,8.88Zm-.05.021h-.02V8.86h.027c.013,0,.027,0,.027.02S15.588,8.9,15.571,8.9Z"/></g></svg>