<svg xmlns="http://www.w3.org/2000/svg" viewBox="0 0 16 16"><defs><style>.cls-1{fill:#231f20;}</style></defs><title>pco-logo-stack2</title><g id="Layer_1" data-name="Layer 1"><path class="cls-1" d="M1.8,12.289H1.773a.05.05,0,0,1-.05-.049V10.952a.072.072,0,0,0-.07-.07H1.486a.072.072,0,0,0-.07.07V12.4a.2.2,0,0,0,.2.2H1.8a.048.048,0,0,0,.048-.048v-.212A.048.048,0,0,0,1.8,12.289Z"/><path class="cls-1" d="M2.5,11.368a1.22,1.22,0,0,0-.409.068.066.066,0,0,0-.047.084l.024.109c.012.045.043.066.082.057a1.2,1.2,0,0,1,.324-.052.165.165,0,0,1,.123.037.262.262,0,0,1,.044.188.857.857,0,0,0-.217-.03c-.289,0-.483.158-.483.392a.378.378,0,0,0,.392.406.511.511,0,0,0,.354-.139l.022.06c.012.031.027.05.063.05h.082a.072.072,0,0,0,.07-.07V11.9C2.922,11.621,2.889,11.368,2.5,11.368Zm.138.71v.175a.331.331,0,0,1-.249.136.162.162,0,0,1-.165-.173c0-.109.088-.179.223-.179A.451.451,0,0,1,2.636,12.079Z"/><path class="cls-1" d="M3.731,11.368a.616.616,0,0,0-.4.153L3.3,11.443a.062.062,0,0,0-.06-.045H3.154a.071.071,0,0,0-.07.07v1.06a.072.072,0,0,0,.07.07h.152c.056,0,.081-.022.081-.07v-.712a.381.381,0,0,1,.311-.164c.148,0,.229.1.229.276v.6A.07.07,0,0,0,4,12.6h.167a.072.072,0,0,0,.07-.07v-.589C4.234,11.576,4.05,11.368,3.731,11.368Z"/><path class="cls-1" d="M5.074,11.368a.619.619,0,0,0-.4.153l-.028-.078a.061.061,0,0,0-.06-.045H4.5a.071.071,0,0,0-.07.07v1.06a.072.072,0,0,0,.07.07H4.65c.056,0,.081-.022.081-.07v-.712a.381.381,0,0,1,.311-.164c.148,0,.229.1.229.276v.6a.07.07,0,0,0,.07.07h.167a.072.072,0,0,0,.07-.07v-.589C5.577,11.576,5.394,11.368,5.074,11.368Z"/><circle class="cls-1" cx="5.937" cy="11.039" r="0.185"/><rect class="cls-1" x="5.787" y="11.398" width="0.306" height="1.2" rx="0.07" ry="0.07"/><path class="cls-1" d="M6.957,11.368a.619.619,0,0,0-.4.153l-.028-.078a.061.061,0,0,0-.06-.045H6.381a.071.071,0,0,0-.07.07v1.06a.072.072,0,0,0,.07.07h.152c.056,0,.081-.022.081-.07v-.712a.381.381,0,0,1,.311-.164c.148,0,.229.1.229.276v.6a.07.07,0,0,0,.07.07h.167a.072.072,0,0,0,.07-.07v-.589C7.461,11.576,7.277,11.368,6.957,11.368Z"/><path class="cls-1" d="M10.3,12.209h0a.067.067,0,0,0-.1.007l-.018.018a.31.31,0,0,1-.244.113.348.348,0,0,1,0-.7.312.312,0,0,1,.225.108l.005,0c.021.019.051.045.093.007l.1-.087a.075.075,0,0,0,.029-.048.07.07,0,0,0-.015-.054.531.531,0,0,0-.436-.213A.639.639,0,0,0,9.311,12a.627.627,0,0,0,.626.626.531.531,0,0,0,.465-.252.071.071,0,0,0-.023-.1Z"/><path class="cls-1" d="M11.051,11.368a.63.63,0,0,0,0,1.258.694.694,0,0,0,.442-.15.069.069,0,0,0,.029-.046.068.068,0,0,0-.021-.049l-.082-.112c-.032-.039-.062-.021-.1,0a.485.485,0,0,1-.253.083.325.325,0,0,1-.321-.285h.781a.068.068,0,0,0,.067-.062.743.743,0,0,0,.006-.081A.542.542,0,0,0,11.051,11.368Zm0,.254a.263.263,0,0,1,.254.232h-.536A.281.281,0,0,1,11.048,11.622Z"/><path class="cls-1" d="M12.414,11.368a.616.616,0,0,0-.4.153l-.028-.078a.062.062,0,0,0-.06-.045h-.085a.072.072,0,0,0-.07.07v1.06a.072.072,0,0,0,.07.07h.152c.056,0,.081-.022.081-.07v-.712a.381.381,0,0,1,.311-.164c.148,0,.229.1.229.276v.6a.07.07,0,0,0,.07.07h.167a.072.072,0,0,0,.07-.07v-.589C12.917,11.576,12.733,11.368,12.414,11.368Z"/><path class="cls-1" d="M13.785,12.32h0a.068.068,0,0,0-.035-.039.066.066,0,0,0-.051.006.456.456,0,0,1-.172.051c-.044,0-.08-.008-.08-.1v-.566h.285a.07.07,0,0,0,.07-.07v-.132a.068.068,0,0,0-.07-.07h-.285V11.04a.069.069,0,0,0-.067-.07l-.167,0a.072.072,0,0,0-.07.07V11.4h-.109a.068.068,0,0,0-.07.07V11.6a.07.07,0,0,0,.07.07h.109v.595c0,.156.032.363.313.363a.908.908,0,0,0,.349-.089.062.062,0,0,0,.033-.088Z"/><path class="cls-1" d="M14.461,11.368a.63.63,0,0,0,0,1.258.693.693,0,0,0,.442-.15.069.069,0,0,0,.029-.046.068.068,0,0,0-.021-.049l-.082-.112c-.031-.039-.063-.02-.1,0a.486.486,0,0,1-.253.083.325.325,0,0,1-.321-.285h.781a.068.068,0,0,0,.067-.062.767.767,0,0,0,.006-.081A.542.542,0,0,0,14.461,11.368Zm.251.486h-.536a.282.282,0,0,1,.282-.232A.263.263,0,0,1,14.712,11.854Z"/><path class="cls-1" d="M15.935,11.434c-.033-.048-.136-.065-.222-.065a.435.435,0,0,0-.337.154l-.024-.073a.07.07,0,0,0-.063-.052H15.2a.072.072,0,0,0-.07.07v1.06a.072.072,0,0,0,.07.07h.141c.035,0,.093,0,.093-.07v-.74a.3.3,0,0,1,.249-.133.252.252,0,0,1,.094.019.063.063,0,0,0,.089-.033l.071-.144A.064.064,0,0,0,15.935,11.434Z"/><path class="cls-1" d="M8.76,11.4H8.644a.056.056,0,0,0-.054.038v0l-.013.083a.545.545,0,0,0-.392-.157A.68.68,0,0,0,8.2,12.719a.672.672,0,0,0,.309-.081l0,.019a.271.271,0,0,1-.078.216.411.411,0,0,1-.319.117.593.593,0,0,1-.281-.088.055.055,0,0,0-.075.02l-.064.126a.054.054,0,0,0,.017.072.873.873,0,0,0,.465.154h.016a.589.589,0,0,0,.631-.571v-1.24A.063.063,0,0,0,8.76,11.4Zm-.31.991a.486.486,0,0,1-.214.051.356.356,0,0,1-.345-.4c0-.238.133-.4.332-.4A.334.334,0,0,1,8.5,11.8a.123.123,0,0,1,.02.069v.414A.124.124,0,0,1,8.45,12.391Z"/><path class="cls-1" d="M.7,11.3a.543.543,0,0,0-.392.158L.3,11.378v0a.056.056,0,0,0-.054-.038H.125a.063.063,0,0,0-.061.061v1.743a.072.072,0,0,0,.07.07H.3a.068.068,0,0,0,.076-.07v-.569a.644.644,0,0,0,.308.083A.68.68,0,0,0,.7,11.3Zm-.334.5a.123.123,0,0,1,.02-.069.336.336,0,0,1,.275-.148c.2,0,.332.16.332.4a.356.356,0,0,1-.345.4.486.486,0,0,1-.214-.051.123.123,0,0,1-.068-.112Z"/><path class="cls-1" d="M8.983,5.864,8.25,6.1a.821.821,0,0,1-.485,0l-.739-.222a.062.062,0,0,0-.08.059v.9a.062.062,0,0,0,.044.06l.9.271a.372.372,0,0,0,.22,0l.91-.29a.062.062,0,0,0,.043-.059V5.923A.062.062,0,0,0,8.983,5.864Z"/><path class="cls-1" d="M10.487,3.937,8.53,3.355a1.842,1.842,0,0,0-1.051,0l-1.957.582a1.056,1.056,0,0,0-.739,1.007V8.121a1.056,1.056,0,0,0,.739,1.007l1.957.582a1.842,1.842,0,0,0,1.051,0l1.957-.582a1.056,1.056,0,0,0,.739-1.007V4.944A1.056,1.056,0,0,0,10.487,3.937Zm-.77,3.081a.463.463,0,0,1-.33.443L8.243,7.8a.82.82,0,0,1-.471,0L7,7.572a.044.044,0,0,0-.056.042v.521a.164.164,0,0,1-.211.158L6.41,8.2a.164.164,0,0,1-.118-.158V5.617a.463.463,0,0,1,.593-.444l1.007.3a.373.373,0,0,0,.216,0l1.007-.315a.463.463,0,0,1,.6.442Z"/></g></svg>