<svg xmlns="http://www.w3.org/2000/svg" viewBox="0 0 16 16"><defs><style>.cls-1{fill:#010101}</style></defs><title>twilio</title><path class="cls-1" d="M11.12 6.58h-.82a.042.042 0 0 0-.041.042V7.1a.042.042 0 0 0 .041.042h.819a.042.042 0 0 0 .041-.042v-.478a.042.042 0 0 0-.04-.042zm-.015.712H9.534a.056.056 0 0 0-.052.04l-.2.778-.01.04-.245-.827a.059.059 0 0 0-.053-.04h-.613a.059.059 0 0 0-.053.04l-.23.779-.012.04-.01-.04-.1-.385-.1-.385a.056.056 0 0 0-.051-.04H6.576v-.67a.043.043 0 0 0-.054-.037l-.775.244c-.023.008-.041.019-.041.042v.422H5.5a.042.042 0 0 0-.041.042v.594a.042.042 0 0 0 .041.042h.2V8.7c0 .514.276.754.79.754a1.247 1.247 0 0 0 .556-.12v-.627a.031.031 0 0 0-.044-.033.514.514 0 0 1-.221.045c-.138 0-.211-.058-.211-.217v-.533h.442a.042.042 0 0 0 .041-.042v-.5l.587 1.952a.059.059 0 0 0 .053.04h.642a.06.06 0 0 0 .054-.04l.275-.865.14.452.128.413a.06.06 0 0 0 .053.04h.646a.059.059 0 0 0 .053-.04l.59-1.959v1.958a.042.042 0 0 0 .041.042h.785a.042.042 0 0 0 .041-.042V7.334a.042.042 0 0 0-.041-.042zm1.037-.712h-.788a.042.042 0 0 0-.041.042v2.756a.042.042 0 0 0 .041.042h.788a.042.042 0 0 0 .041-.042V6.622a.042.042 0 0 0-.041-.042zm1.052 0h-.819a.042.042 0 0 0-.041.042V7.1a.042.042 0 0 0 .041.042h.819a.042.042 0 0 0 .041-.042v-.478a.042.042 0 0 0-.041-.042zm-.015.712h-.789a.042.042 0 0 0-.041.042v2.044a.042.042 0 0 0 .041.042h.788a.042.042 0 0 0 .041-.042V7.334a.042.042 0 0 0-.041-.042zm1.3-.05A1.132 1.132 0 0 0 13.3 8.348v.008a1.18 1.18 0 0 0 2.355-.008V8.34a1.121 1.121 0 0 0-1.172-1.098zm.338 1.114a.349.349 0 0 1-.338.367.359.359 0 0 1-.345-.375V8.34a.349.349 0 0 1 .338-.367.359.359 0 0 1 .345.375zM2.595 5.667A2.333 2.333 0 1 0 4.908 8a2.323 2.323 0 0 0-2.313-2.333zm0 4.051A1.718 1.718 0 1 1 4.3 8a1.711 1.711 0 0 1-1.705 1.718zm.576-2.784a.485.485 0 1 0 .481.485.483.483 0 0 0-.481-.485zm0 1.162a.485.485 0 1 0 .481.485.483.483 0 0 0-.481-.481zm-1.152 0a.485.485 0 1 0 .481.485.483.483 0 0 0-.482-.481zm0-1.162a.485.485 0 1 0 .481.485.483.483 0 0 0-.482-.485z" id="Layer_1" data-name="Layer 1"/></svg>