<svg xmlns="http://www.w3.org/2000/svg" viewBox="0 0 16 16"><defs><style>.cls-1{fill:#010101;}</style></defs><title>twilio</title><g id="Layer_1" data-name="Layer 1"><path class="cls-1" d="M11.12,6.58H10.3a.042.042,0,0,0-.041.042V7.1a.042.042,0,0,0,.041.042h.819a.042.042,0,0,0,.041-.042V6.622A.042.042,0,0,0,11.12,6.58Zm-.015.712H9.534a.056.056,0,0,0-.052.04l-.2.778-.01.04-.245-.827a.059.059,0,0,0-.053-.04H8.361a.059.059,0,0,0-.053.04l-.23.779h0l-.012.04-.01-.04-.1-.385-.1-.385a.056.056,0,0,0-.051-.04H6.576v-.67a.043.043,0,0,0-.054-.037l-.775.244c-.023.008-.041.019-.041.042v.422H5.5a.042.042,0,0,0-.041.042v.594a.042.042,0,0,0,.041.042h.2V8.7c0,.514.276.754.79.754a1.247,1.247,0,0,0,.556-.12V8.707a.031.031,0,0,0-.044-.033.514.514,0,0,1-.221.045c-.138,0-.211-.058-.211-.217V7.969h.442a.042.042,0,0,0,.041-.042v-.5L7.64,9.379a.059.059,0,0,0,.053.04h.642a.06.06,0,0,0,.054-.04l.275-.865.14.452.128.413a.06.06,0,0,0,.053.04h.646a.059.059,0,0,0,.053-.04l.59-1.959V9.378a.042.042,0,0,0,.041.042H11.1a.042.042,0,0,0,.041-.042V7.334A.042.042,0,0,0,11.1,7.292Zm1.037-.712h-.788a.042.042,0,0,0-.041.042V9.378a.042.042,0,0,0,.041.042h.788a.042.042,0,0,0,.041-.042V6.622A.042.042,0,0,0,12.142,6.58Zm1.052,0h-.819a.042.042,0,0,0-.041.042V7.1a.042.042,0,0,0,.041.042h.819a.042.042,0,0,0,.041-.042V6.622A.042.042,0,0,0,13.194,6.58Zm-.015.712H12.39a.042.042,0,0,0-.041.042V9.378a.042.042,0,0,0,.041.042h.788a.042.042,0,0,0,.041-.042V7.334A.042.042,0,0,0,13.178,7.292Zm1.3-.05A1.132,1.132,0,0,0,13.3,8.348v.008a1.18,1.18,0,0,0,2.355-.008V8.34A1.121,1.121,0,0,0,14.483,7.242Zm.338,1.114a.349.349,0,0,1-.338.367.359.359,0,0,1-.345-.375V8.34a.349.349,0,0,1,.338-.367.359.359,0,0,1,.345.375ZM2.595,5.667A2.333,2.333,0,1,0,4.908,8,2.323,2.323,0,0,0,2.595,5.667Zm0,4.051A1.718,1.718,0,1,1,4.3,8,1.711,1.711,0,0,1,2.595,9.718Zm.576-2.784a.485.485,0,1,0,.481.485A.483.483,0,0,0,3.171,6.934Zm0,1.162a.485.485,0,1,0,.481.485A.483.483,0,0,0,3.171,8.1Zm-1.152,0a.485.485,0,1,0,.481.485A.483.483,0,0,0,2.018,8.1Zm0-1.162a.485.485,0,1,0,.481.485A.483.483,0,0,0,2.018,6.934Z"/></g></svg>