<svg width="17" height="16" viewBox="0 0 17 16" fill="none" xmlns="http://www.w3.org/2000/svg">
<path d="M15.929 1.82298C15.8027 1.7075 15.6371 1.64456 15.466 1.64698H0.821007C0.644097 1.64218 0.472035 1.70514 0.340007 1.82298C0.27889 1.87408 0.229811 1.93804 0.196275 2.0103C0.162739 2.08255 0.145574 2.16133 0.146007 2.24098V13.041C0.14432 13.1232 0.16084 13.2047 0.194381 13.2797C0.227922 13.3548 0.277653 13.4214 0.340007 13.475C0.472198 13.5927 0.644062 13.6559 0.821007 13.652H15.466C15.6372 13.654 15.8028 13.5907 15.929 13.475C15.9915 13.4215 16.0414 13.3548 16.0751 13.2798C16.1088 13.2048 16.1255 13.1232 16.124 13.041V2.24098C16.1242 2.16126 16.1069 2.08246 16.0732 2.01021C16.0395 1.93795 15.9903 1.87403 15.929 1.82298ZM14.924 10.087C14.8134 10.0647 14.7009 10.053 14.588 10.052C13.9451 10.0527 13.3277 10.3036 12.8665 10.7516C12.4053 11.1995 12.1365 11.8094 12.117 12.452H4.18001C4.16052 11.8094 3.89174 11.1995 3.43054 10.7516C2.96934 10.3036 2.35193 10.0527 1.70901 10.052C1.58703 10.0522 1.46539 10.0649 1.34601 10.09V5.21098C1.46539 5.23604 1.58703 5.24877 1.70901 5.24899C2.35201 5.24849 2.96956 4.99768 3.43081 4.54968C3.89206 4.10168 4.16077 3.4917 4.18001 2.84898H12.117C12.1362 3.4917 12.4049 4.10168 12.8662 4.54968C13.3275 4.99768 13.945 5.24849 14.588 5.24899C14.7009 5.24794 14.8134 5.23622 14.924 5.21399V10.087ZM10.475 4.87899C10.183 4.53376 9.82459 4.25081 9.42101 4.04698C9.01795 3.84433 8.57211 3.74145 8.12101 3.74698C7.67003 3.74264 7.22447 3.84546 6.82101 4.04698C6.41588 4.25019 6.05601 4.53319 5.76301 4.87899C5.45537 5.24685 5.21808 5.6682 5.06301 6.12199C4.72035 7.11184 4.72035 8.18813 5.06301 9.17799C5.21958 9.63244 5.45858 10.0542 5.76801 10.422C6.06154 10.7672 6.42129 11.0501 6.82601 11.254C7.22876 11.4546 7.67256 11.559 8.12251 11.559C8.57245 11.559 9.01626 11.4546 9.41901 11.254C9.82358 11.0504 10.1831 10.7674 10.476 10.422C10.7866 10.0524 11.0303 9.63143 11.196 9.17799C11.5547 8.19089 11.5547 7.10908 11.196 6.12199C11.03 5.66878 10.786 5.24811 10.475 4.87899ZM9.46501 9.57099H6.82701V8.99999H7.27401C7.31634 9.00249 7.3587 8.99555 7.39801 8.97966C7.43733 8.96378 7.47262 8.93935 7.50134 8.90815C7.53005 8.87695 7.55147 8.83975 7.56404 8.79925C7.57661 8.75875 7.58001 8.71596 7.57401 8.67399V6.57999H6.84001V6.00999H7.01001C7.19246 6.02812 7.37572 5.98459 7.53053 5.88634C7.68533 5.7881 7.80275 5.6408 7.86401 5.46798H8.74601V8.67499C8.74 8.71696 8.74341 8.75975 8.75597 8.80025C8.76854 8.84075 8.78996 8.87795 8.81867 8.90915C8.84739 8.94035 8.88268 8.96478 8.922 8.98066C8.96132 8.99655 9.00368 9.00349 9.04601 9.00099H9.46701L9.46501 9.57099Z" fill="black"/>
</svg>
