<svg id="Layer_1" data-name="Layer 1" xmlns="http://www.w3.org/2000/svg" viewBox="0 0 16 16"><title>bill</title><path d="M15.93,1.82a.71.71,0,0,0-.46-.17H.82a.72.72,0,0,0-.48.17.55.55,0,0,0-.19.42V13a.56.56,0,0,0,.19.44.67.67,0,0,0,.48.17H15.47a.66.66,0,0,0,.46-.17.56.56,0,0,0,.19-.44V2.24A.55.55,0,0,0,15.93,1.82Zm-1,8.27a1.57,1.57,0,0,0-.33,0,2.47,2.47,0,0,0-2.47,2.4H4.18a2.47,2.47,0,0,0-2.47-2.4,1.79,1.79,0,0,0-.36,0V5.21a1.79,1.79,0,0,0,.36,0,2.47,2.47,0,0,0,2.47-2.4h7.94a2.47,2.47,0,0,0,2.47,2.4,1.57,1.57,0,0,0,.33,0Z"/><path d="M10.48,4.88a3.51,3.51,0,0,0-1.06-.83,2.86,2.86,0,0,0-2.59,0,3.28,3.28,0,0,0-1.06.83,4,4,0,0,0-.71,1.24,4.55,4.55,0,0,0-.25,1.53,4.55,4.55,0,0,0,.25,1.53,3.87,3.87,0,0,0,.71,1.24,3.28,3.28,0,0,0,1.06.83,2.74,2.74,0,0,0,1.3.31,2.79,2.79,0,0,0,1.29-.31,3.51,3.51,0,0,0,1.06-.83,4.08,4.08,0,0,0,.72-1.24,4.63,4.63,0,0,0,0-3.06A4.21,4.21,0,0,0,10.48,4.88Zm-1,4.69H6.83V9h.44a.28.28,0,0,0,.3-.32V6.58H6.84V6H7a.82.82,0,0,0,.85-.54h.89V8.68c0,.19.09.32.29.32h.42Z"/></svg>