<svg width="16" height="16" viewBox="0 0 16 16" fill="none" xmlns="http://www.w3.org/2000/svg">
<path d="M11.05 3.424V0.378998L14.1 3.424H11.05ZM13.337 4.949H9.52499V1.142C9.52499 0.939638 9.4446 0.745566 9.30151 0.602475C9.15842 0.459385 8.96435 0.378998 8.76199 0.378998H2.66199C2.45963 0.378998 2.26555 0.459385 2.12246 0.602475C1.97937 0.745566 1.89899 0.939638 1.89899 1.142V14.863C1.89899 15.0654 1.97937 15.2594 2.12246 15.4025C2.26555 15.5456 2.45963 15.626 2.66199 15.626H13.337C13.5393 15.626 13.7334 15.5456 13.8765 15.4025C14.0196 15.2594 14.1 15.0654 14.1 14.863V5.712C14.1 5.50964 14.0196 5.31557 13.8765 5.17248C13.7334 5.02939 13.5393 4.949 13.337 4.949Z" fill="black"/>
</svg>
