<svg width="16" height="16" viewBox="0 0 16 16" fill="none" xmlns="http://www.w3.org/2000/svg">
<path d="M5.333 12.417H4.444C3.2768 12.3995 2.16332 11.9235 1.3441 11.0919C0.52488 10.2603 0.0656738 9.13985 0.0656738 7.97251C0.0656738 6.80517 0.52488 5.68468 1.3441 4.85308C2.16332 4.02148 3.2768 3.54552 4.444 3.52801H5.333V5.30601H4.444C3.74575 5.31953 3.08065 5.60641 2.59162 6.105C2.10259 6.60359 1.82865 7.27412 1.82865 7.97251C1.82865 8.6709 2.10259 9.34142 2.59162 9.84001C3.08065 10.3386 3.74575 10.6255 4.444 10.639H5.333V12.417ZM16 7.97201C15.9984 6.79387 15.5297 5.66445 14.6966 4.83138C13.8636 3.99831 12.7341 3.5296 11.556 3.52801H10.667V5.30601H11.556C12.2543 5.31953 12.9194 5.60641 13.4084 6.105C13.8974 6.60359 14.1714 7.27412 14.1714 7.97251C14.1714 8.6709 13.8974 9.34142 13.4084 9.84001C12.9194 10.3386 12.2543 10.6255 11.556 10.639H10.667V12.417H11.556C12.7343 12.4154 13.8639 11.9466 14.697 11.1133C15.5301 10.28 15.9987 9.15032 16 7.97201ZM6.222 7.08401H3.556V8.86101H6.222V7.08401ZM12.444 7.08401H9.778V8.86101H12.444V7.08401ZM8.889 2.63901H7.111V13.306H8.889V2.63901Z" fill="black"/>
</svg>
