<svg width="16" height="16" viewBox="0 0 16 16" fill="none" xmlns="http://www.w3.org/2000/svg">
<path d="M13.444 14.222H2.556V5.667H13.444V14.222ZM13.444 1.778H12.667V0.222H11.111V1.778H4.889V0.222H3.333V1.778H2.556C2.35212 1.778 2.15025 1.81827 1.96199 1.8965C1.77372 1.97473 1.60275 2.08938 1.45892 2.23387C1.31508 2.37836 1.2012 2.54984 1.12382 2.73846C1.04644 2.92708 1.00708 3.12913 1.008 3.333L1 14.222C0.999869 14.4264 1.04003 14.6288 1.11818 14.8176C1.19633 15.0065 1.31093 15.178 1.45545 15.3226C1.59996 15.4671 1.77155 15.5817 1.96039 15.6598C2.14923 15.738 2.35163 15.7781 2.556 15.778H13.444C13.8564 15.7769 14.2515 15.6127 14.5431 15.3211C14.8347 15.0295 14.9989 14.6344 15 14.222V3.333C14.9987 2.92082 14.8343 2.52592 14.5427 2.23455C14.2512 1.94319 13.8562 1.77905 13.444 1.778Z" fill="black"/>
</svg>
