<svg id="Layer_1" data-name="Layer 1" xmlns="http://www.w3.org/2000/svg" viewBox="0 0 16 16"><title>calendar-repeat</title><path d="M14.758,4.314V6.6h-12v6.286a.106.106,0,0,0,.107.107H5.984v1.5H2.865a1.608,1.608,0,0,1-1.607-1.607V4.314A1.609,1.609,0,0,1,2.865,2.706h.393V.6h1.5V2.706h6.5V.6h1.5V2.706h.393A1.609,1.609,0,0,1,14.758,4.314ZM12.848,8.12a3.866,3.866,0,1,0,1.385,5.718l-1.214-.881A2.366,2.366,0,1,1,11.1,9.2a2.272,2.272,0,0,1,1.519.562l-1.1,1.1h3.216V7.651L13.678,8.709A3.89,3.89,0,0,0,12.848,8.12Z"/></svg>