<svg id="Layer_1" data-name="Layer 1" xmlns="http://www.w3.org/2000/svg" viewBox="0 0 16 16"><title>calendar-repeat</title><path d="M13.15,2.71h-.39V.6h-1.5V2.71H4.76V.6H3.26V2.71H2.87a1.61,1.61,0,0,0-1.61,1.6v8.58a1.61,1.61,0,0,0,1.61,1.6H6V13H2.87a.11.11,0,0,1-.11-.1V6.6h12V4.31A1.61,1.61,0,0,0,13.15,2.71Z"/><path d="M12.85,8.12A3.92,3.92,0,0,0,11.1,7.7a3.87,3.87,0,1,0,3.13,6.14L13,13A2.37,2.37,0,1,1,11.1,9.2a2.32,2.32,0,0,1,1.07.26,2.26,2.26,0,0,1,.45.31l-1.1,1.1h3.22V7.65L13.68,8.71A4,4,0,0,0,12.85,8.12Z"/></svg>