<svg width="16" height="16" viewBox="0 0 16 16" fill="none" xmlns="http://www.w3.org/2000/svg">
<path d="M2.1 8.24999L0 6.15299L1.148 5.00499L2.096 5.95299L4.059 3.98999L5.208 5.13799L2.1 8.24999ZM9.509 8.11899C7.341 8.11899 3.009 9.20699 3.009 11.367V12.99H16V11.367C16 9.20699 11.673 8.11899 9.505 8.11899H9.509ZM9.509 6.49499C10.1513 6.4942 10.7789 6.30301 11.3125 5.94559C11.8461 5.58817 12.2618 5.08057 12.507 4.48695C12.7522 3.89333 12.8159 3.24034 12.69 2.61052C12.5642 1.98071 12.2544 1.40235 11.7999 0.948545C11.3454 0.494744 10.7666 0.185878 10.1366 0.0609902C9.50656 -0.0638978 8.85367 0.000799268 8.26043 0.246903C7.66719 0.493007 7.16022 0.909469 6.80362 1.44364C6.44703 1.97782 6.2568 2.60573 6.257 3.24799C6.25621 3.67494 6.33965 4.09784 6.50255 4.49249C6.66545 4.88713 6.9046 5.24577 7.20631 5.54785C7.50802 5.84993 7.86636 6.08952 8.26081 6.25291C8.65525 6.41629 9.07806 6.50026 9.505 6.49999L9.509 6.49499Z" fill="black"/>
</svg>
