<svg id="Layer_1" data-name="Layer 1" xmlns="http://www.w3.org/2000/svg" viewBox="0 0 16 16"><title>check-calendar</title><path d="M13.444,14.222H2.556V5.667H13.444Zm0-12.444h-.777V.222H11.111V1.778H4.889V.222H3.333V1.778H2.556A1.548,1.548,0,0,0,1.008,3.333L1,14.222a1.555,1.555,0,0,0,1.556,1.556H13.444A1.56,1.56,0,0,0,15,14.222V3.333A1.56,1.56,0,0,0,13.444,1.778Z"/><path d="M10.871,8.205,7.622,11.561a.092.092,0,0,1-.132,0L5.213,9.22a.091.091,0,0,1,0-.128l.9-.924a.092.092,0,0,1,.132,0L7.484,9.447a.06.06,0,0,0,.086,0L9.812,7.124a.092.092,0,0,1,.132,0l.926.953A.092.092,0,0,1,10.871,8.205Z" fill-rule="evenodd"/></svg>