<svg width="16" height="16" viewBox="0 0 16 16" fill="none" xmlns="http://www.w3.org/2000/svg">
<path d="M2.88161 9.57294L1 7.69401L2.02861 6.6654L2.87803 7.51481L4.63688 5.75596L5.66639 6.78457L2.88161 9.57294ZM9.52011 9.45556C7.57757 9.45556 3.69608 10.4304 3.69608 12.3658V13.82H15.3361V12.3658C15.3361 10.4304 11.4591 9.45556 9.51653 9.45556H9.52011ZM9.52011 8.00045C10.0956 7.99974 10.6579 7.82843 11.1361 7.50818C11.6142 7.18793 11.9866 6.73312 12.2063 6.20123C12.426 5.66934 12.4831 5.08426 12.3703 4.51994C12.2576 3.95563 11.98 3.43741 11.5728 3.0308C11.1655 2.6242 10.6469 2.34745 10.0824 2.23555C9.51793 2.12365 8.93294 2.18162 8.40139 2.40213C7.86984 2.62264 7.41559 2.99579 7.09608 3.47441C6.77657 3.95304 6.60613 4.51565 6.6063 5.09112C6.6056 5.47366 6.68036 5.85259 6.82632 6.20619C6.97228 6.5598 7.18656 6.88114 7.45689 7.1518C7.72723 7.42247 8.0483 7.63715 8.40173 7.78354C8.75515 7.92993 9.13398 8.00516 9.51653 8.00493L9.52011 8.00045Z" fill="black"/>
</svg>
