<svg width="16" height="16" viewBox="0 0 16 16" fill="none" xmlns="http://www.w3.org/2000/svg">
<path d="M13.444 14.222H2.556V5.667H13.444V14.222ZM13.444 1.778H12.667V0.222H11.111V1.778H4.889V0.222H3.333V1.778H2.556C2.35212 1.778 2.15025 1.81827 1.96199 1.8965C1.77372 1.97473 1.60275 2.08938 1.45892 2.23387C1.31508 2.37836 1.2012 2.54984 1.12382 2.73846C1.04644 2.92708 1.00708 3.12913 1.008 3.333L1 14.222C0.999869 14.4264 1.04003 14.6288 1.11818 14.8176C1.19633 15.0065 1.31093 15.178 1.45545 15.3226C1.59996 15.4671 1.77155 15.5817 1.96039 15.6598C2.14923 15.738 2.35163 15.7781 2.556 15.778H13.444C13.8564 15.7769 14.2515 15.6127 14.5431 15.3211C14.8347 15.0295 14.9989 14.6344 15 14.222V3.333C14.9987 2.92082 14.8343 2.52592 14.5427 2.23455C14.2512 1.94319 13.8562 1.77905 13.444 1.778ZM10.87 8.078L9.944 7.125C9.93542 7.11617 9.92517 7.10915 9.91383 7.10436C9.90249 7.09956 9.89031 7.09709 9.878 7.09709C9.86569 7.09709 9.85351 7.09956 9.84217 7.10436C9.83084 7.10915 9.82058 7.11617 9.812 7.125L7.57 9.447C7.56441 9.45274 7.55772 9.45731 7.55034 9.46043C7.54295 9.46355 7.53502 9.46515 7.527 9.46515C7.51898 9.46515 7.51105 9.46355 7.50366 9.46043C7.49628 9.45731 7.48959 9.45274 7.484 9.447L6.242 8.168C6.23343 8.15917 6.22317 8.15215 6.21183 8.14736C6.20049 8.14256 6.18831 8.14009 6.176 8.14009C6.16369 8.14009 6.15151 8.14256 6.14017 8.14736C6.12884 8.15215 6.11858 8.15917 6.11 8.168L5.21 9.092C5.19315 9.10904 5.18369 9.13204 5.18369 9.156C5.18369 9.17996 5.19315 9.20296 5.21 9.22L7.49 11.561C7.49858 11.5698 7.50883 11.5768 7.52017 11.5816C7.53151 11.5864 7.54369 11.5889 7.556 11.5889C7.56831 11.5889 7.58049 11.5864 7.59183 11.5816C7.60317 11.5768 7.61343 11.5698 7.622 11.561L10.871 8.205C10.8875 8.18771 10.8966 8.16469 10.8964 8.1408C10.8962 8.11691 10.8868 8.09403 10.87 8.077V8.078Z" fill="black"/>
</svg>
