<svg width="16" height="16" viewBox="0 0 16 16" fill="none" xmlns="http://www.w3.org/2000/svg">
<path d="M8.01699 6.26464e-08C6.43782 -0.000197717 4.89405 0.467913 3.58094 1.34513C2.26782 2.22235 1.24434 3.46927 0.639923 4.92819C0.0355092 6.38712 -0.122685 7.99252 0.185348 9.54136C0.49338 11.0902 1.2538 12.5129 2.37045 13.6295C3.48709 14.7462 4.90979 15.5066 6.45863 15.8146C8.00747 16.1227 9.61287 15.9645 11.0718 15.3601C12.5307 14.7556 13.7776 13.7322 14.6549 12.419C15.5321 11.1059 16.0002 9.56217 16 7.983C15.9997 5.86586 15.1586 3.83551 13.6615 2.33846C12.1645 0.841414 10.1341 0.000265219 8.01699 6.26464e-08ZM11.167 11.076L7.16099 9.74V4.561H8.87199V8.506L11.709 9.452L11.167 11.076Z" fill="black"/>
</svg>
