<svg width="16" height="16" viewBox="0 0 16 16" fill="none" xmlns="http://www.w3.org/2000/svg">
<path d="M8.017 6.26464e-08C6.43783 -0.000197717 4.89407 0.467913 3.58095 1.34513C2.26784 2.22235 1.24435 3.46927 0.639937 4.92819C0.0355225 6.38712 -0.122672 7.99252 0.185361 9.54136C0.493393 11.0902 1.25382 12.5129 2.37046 13.6295C3.4871 14.7462 4.90981 15.5066 6.45864 15.8146C8.00748 16.1227 9.61288 15.9645 11.0718 15.3601C12.5307 14.7556 13.7777 13.7322 14.6549 12.419C15.5321 11.1059 16.0002 9.56217 16 7.983C15.9997 5.86586 15.1586 3.83551 13.6615 2.33846C12.1645 0.841414 10.1341 0.000265219 8.017 6.26464e-08ZM11.167 11.076L7.161 9.74V4.561H8.872V8.506L11.709 9.452L11.167 11.076Z" fill="black"/>
</svg>
