<svg width="16" height="16" viewBox="0 0 16 16" fill="none" xmlns="http://www.w3.org/2000/svg">
<path d="M15.065 6.829L11.986 9.829L12.713 14.068C12.7284 14.1577 12.7241 14.2498 12.7003 14.3376C12.6764 14.4255 12.6337 14.5071 12.575 14.5767C12.5163 14.6464 12.4431 14.7023 12.3606 14.7407C12.278 14.7791 12.1881 14.799 12.097 14.799C11.9955 14.7989 11.8955 14.7738 11.806 14.726L8 12.727L4.194 14.727C4.09088 14.7816 3.9745 14.8063 3.85808 14.7981C3.74166 14.7899 3.62987 14.7492 3.5354 14.6807C3.44093 14.6122 3.36758 14.5185 3.32367 14.4104C3.27976 14.3023 3.26706 14.184 3.287 14.069L4.014 9.83L0.935002 6.83C0.851051 6.7489 0.79157 6.64585 0.763339 6.5326C0.735108 6.41934 0.739262 6.30043 0.775328 6.18942C0.811393 6.07841 0.87792 5.97976 0.967325 5.90472C1.05673 5.82968 1.16542 5.78127 1.281 5.765L5.537 5.146L7.437 1.29C7.4945 1.19233 7.5765 1.11136 7.6749 1.05511C7.77329 0.998858 7.88466 0.969269 7.998 0.969269C8.11134 0.969269 8.22271 0.998858 8.32111 1.05511C8.4195 1.11136 8.5015 1.19233 8.559 1.29L10.459 5.146L14.715 5.765C14.8306 5.78127 14.9393 5.82968 15.0287 5.90472C15.1181 5.97976 15.1846 6.07841 15.2207 6.18942C15.2567 6.30043 15.2609 6.41934 15.2327 6.5326C15.2044 6.64585 15.145 6.7489 15.061 6.83L15.065 6.829Z" fill="black"/>
</svg>
