<svg width="16" height="16" viewBox="0 0 16 16" fill="none" xmlns="http://www.w3.org/2000/svg">
<path d="M15.065 6.829L11.986 9.829L12.713 14.068C12.7284 14.1577 12.7241 14.2498 12.7002 14.3376C12.6764 14.4255 12.6336 14.5071 12.575 14.5767C12.5163 14.6464 12.4431 14.7023 12.3605 14.7407C12.278 14.7791 12.188 14.799 12.097 14.799C11.9955 14.7989 11.8955 14.7738 11.806 14.726L7.99997 12.727L4.19397 14.727C4.09085 14.7816 3.97447 14.8063 3.85805 14.7981C3.74163 14.7899 3.62984 14.7492 3.53537 14.6807C3.4409 14.6122 3.36755 14.5185 3.32364 14.4104C3.27973 14.3023 3.26703 14.184 3.28697 14.069L4.01397 9.83L0.934971 6.83C0.85102 6.7489 0.79154 6.64585 0.763309 6.5326C0.735078 6.41934 0.739232 6.30043 0.775297 6.18942C0.811363 6.07841 0.877889 5.97976 0.967295 5.90472C1.0567 5.82968 1.16539 5.78127 1.28097 5.765L5.53697 5.146L7.43697 1.29C7.49447 1.19233 7.57647 1.11136 7.67487 1.05511C7.77326 0.998858 7.88463 0.969269 7.99797 0.969269C8.11131 0.969269 8.22268 0.998858 8.32108 1.05511C8.41947 1.11136 8.50147 1.19233 8.55897 1.29L10.459 5.146L14.715 5.765C14.8306 5.78127 14.9392 5.82968 15.0286 5.90472C15.1181 5.97976 15.1846 6.07841 15.2206 6.18942C15.2567 6.30043 15.2609 6.41934 15.2326 6.5326C15.2044 6.64585 15.1449 6.7489 15.061 6.83L15.065 6.829Z" fill="black"/>
</svg>
