<svg width="17" height="16" viewBox="0 0 17 16" fill="none" xmlns="http://www.w3.org/2000/svg">
<path d="M17 12.518V13.99H5.21899V12.518C5.21899 10.559 9.14299 9.57201 11.109 9.57201C13.075 9.57201 17 10.559 17 12.518ZM11.109 8.10001C11.6917 8.10021 12.2614 7.9276 12.746 7.604C13.2306 7.28041 13.6083 6.82038 13.8315 6.28209C14.0546 5.74379 14.1131 5.15142 13.9995 4.57989C13.8859 4.00835 13.6054 3.48333 13.1935 3.07123C12.7815 2.65912 12.2566 2.37844 11.6851 2.26469C11.1136 2.15094 10.5212 2.20922 9.98283 2.43216C9.44446 2.65511 8.9843 3.03271 8.66055 3.5172C8.33679 4.00168 8.16399 4.5713 8.16399 5.15401C8.16386 5.54084 8.23994 5.9239 8.38788 6.28132C8.53582 6.63874 8.75272 6.96351 9.02621 7.23708C9.29969 7.51066 9.62439 7.72768 9.98176 7.87574C10.3391 8.0238 10.7222 8.10001 11.109 8.10001ZM5.37099 6.98601C5.37119 6.75709 5.30347 6.53326 5.17642 6.34284C5.04936 6.15242 4.86867 6.00397 4.65722 5.91627C4.44576 5.82858 4.21304 5.80558 3.98851 5.85019C3.76399 5.8948 3.55774 6.00502 3.39587 6.16689C3.234 6.32876 3.12378 6.53501 3.07917 6.75954C3.03456 6.98406 3.05756 7.21678 3.14525 7.42824C3.23295 7.63969 3.3814 7.82038 3.57182 7.94744C3.76224 8.07449 3.98607 8.14221 4.21499 8.14201C4.52142 8.14148 4.81514 8.01952 5.03182 7.80284C5.2485 7.58616 5.37046 7.29244 5.37099 6.98601ZM6.67099 7.30901L7.37099 7.85501C7.40141 7.87988 7.42202 7.91473 7.42916 7.95336C7.4363 7.992 7.42951 8.03191 7.40999 8.06601L6.74499 9.20901C6.72641 9.24359 6.69577 9.27014 6.65889 9.2836C6.62202 9.29706 6.58148 9.2965 6.54499 9.28201L5.72199 8.95201C5.55034 9.08276 5.36286 9.19129 5.16399 9.27501L5.03799 10.151C5.03262 10.19 5.01318 10.2256 4.98334 10.2512C4.95349 10.2768 4.91531 10.2906 4.87599 10.29H3.55399C3.51467 10.2906 3.47649 10.2768 3.44664 10.2512C3.4168 10.2256 3.39736 10.19 3.39199 10.151L3.26599 9.27501C3.06635 9.19284 2.87867 9.0842 2.70799 8.95201L1.88499 9.28201C1.84838 9.29521 1.8083 9.29514 1.77174 9.2818C1.73519 9.26845 1.70448 9.24269 1.68499 9.20901L1.02299 8.06601C1.00338 8.03185 0.996627 7.99181 1.00396 7.95311C1.0113 7.91441 1.03224 7.87962 1.06299 7.85501L1.76299 7.30901C1.74822 7.20197 1.74054 7.09406 1.73999 6.98601C1.73958 6.87769 1.74626 6.76946 1.75999 6.66201L1.05999 6.11701C1.02863 6.09262 1.00726 6.05761 0.999897 6.01857C0.992531 5.97954 0.999676 5.93915 1.01999 5.90501L1.68399 4.76201C1.70273 4.72758 1.73338 4.70117 1.7702 4.68773C1.80702 4.67429 1.84748 4.67475 1.88399 4.68901L2.70699 5.02001C2.87913 4.89027 3.06695 4.78275 3.26599 4.70001L3.39199 3.82401C3.39758 3.78524 3.41712 3.74983 3.44694 3.72443C3.47676 3.69902 3.51482 3.68536 3.55399 3.68601H4.87499C4.91416 3.68536 4.95222 3.69902 4.98204 3.72443C5.01186 3.74983 5.0314 3.78524 5.03699 3.82401L5.16299 4.70001C5.36247 4.78292 5.5501 4.89186 5.72099 5.02401L6.54399 4.69301C6.58058 4.6796 6.62073 4.67957 6.65734 4.69294C6.69394 4.7063 6.72464 4.73218 6.74399 4.76601L7.40499 5.90901C7.42438 5.94331 7.4311 5.98334 7.42397 6.02209C7.41684 6.06084 7.39632 6.09586 7.36599 6.12101L6.66599 6.66601C6.69799 6.88049 6.69799 7.09853 6.66599 7.31301L6.67099 7.30901Z" fill="black"/>
</svg>
