<svg id="Layer_1" data-name="Layer 1" xmlns="http://www.w3.org/2000/svg" viewBox="0 0 16 16"><title>cog-person</title><path d="M16,12.52V14H4.22V12.52c0-2,3.92-2.95,5.89-2.95S16,10.56,16,12.52ZM10.11,8.1A2.95,2.95,0,1,0,7.16,5.15,2.94,2.94,0,0,0,10.11,8.1ZM4.37,7A1.16,1.16,0,1,0,3.21,8.14,1.16,1.16,0,0,0,4.37,7Zm1.3.32.7.54a.18.18,0,0,1,0,.22L5.75,9.21a.17.17,0,0,1-.21.07L4.72,9a2.84,2.84,0,0,1-.56.33L4,10.15a.16.16,0,0,1-.16.14H2.55a.16.16,0,0,1-.16-.14l-.12-.87A2.58,2.58,0,0,1,1.71,9l-.82.33a.17.17,0,0,1-.21-.07L0,8.07a.18.18,0,0,1,0-.22l.7-.54c0-.11,0-.22,0-.32s0-.22,0-.33l-.7-.54a.17.17,0,0,1,0-.21L.68,4.76a.17.17,0,0,1,.21-.07L1.71,5a2.2,2.2,0,0,1,.56-.32l.12-.88a.16.16,0,0,1,.16-.14H3.88A.16.16,0,0,1,4,3.82l.12.88A2.39,2.39,0,0,1,4.72,5l.82-.33a.17.17,0,0,1,.21.07l.66,1.15a.17.17,0,0,1,0,.21l-.7.54c0,.11,0,.21,0,.33s0,.21,0,.32Z"/></svg>