<svg id="53ff8c19-0072-4e58-8e02-e1d849b429fd" data-name="Layer 1" xmlns="http://www.w3.org/2000/svg" viewBox="0 0 24 24"><title>cog-person</title><g opacity="0.008"><rect x="-6" y="-6" width="24" height="24"/></g><path d="M15,14c-2.67,0-8,1.34-8,4v2H23V18C23,15.34,17.67,14,15,14Z"/><circle cx="15" cy="8" r="4"/><path d="M5.636,12.058a1.571,1.571,0,1,1,1.571-1.571A1.572,1.572,0,0,1,5.636,12.058ZM8.97,10.927a3.041,3.041,0,0,0,0-.88l.947-.74a.226.226,0,0,0,.054-.287l-.9-1.553a.225.225,0,0,0-.273-.1l-1.118.448a3.272,3.272,0,0,0-.758-.439l-.17-1.19A.22.22,0,0,0,6.534,6H4.739a.219.219,0,0,0-.22.188l-.17,1.19a3.451,3.451,0,0,0-.759.439L2.473,7.369a.219.219,0,0,0-.274.1L1.3,9.02a.219.219,0,0,0,.054.287l.946.74a3.138,3.138,0,0,0,0,.88l-.946.74a.225.225,0,0,0-.054.287l.9,1.553a.226.226,0,0,0,.274.1l1.117-.449a3.339,3.339,0,0,0,.759.44l.17,1.189a.219.219,0,0,0,.22.188h1.8a.22.22,0,0,0,.22-.188l.17-1.189a3.465,3.465,0,0,0,.758-.44l1.118.449a.218.218,0,0,0,.273-.1l.9-1.553a.227.227,0,0,0-.054-.287l-.947-.74Z"/></svg>