<svg id="Layer_1" data-name="Layer 1" xmlns="http://www.w3.org/2000/svg" viewBox="0 0 16 16"><title>cog</title><path d="M15.975,7.169l-.01,0L14.44,6.91a.767.767,0,0,1-.651-.435h0a5.906,5.906,0,0,0-.614-1.486h0a.774.774,0,0,1,.149-.772l.9-1.26.006-.008c.01-.015.01-.026,0-.035L14.2,2.89l-.045-.046-1-1-.06-.06-.01-.009c-.009-.01-.02-.01-.035,0l-1.268.9a.771.771,0,0,1-.77.15h0a5.938,5.938,0,0,0-1.488-.615h0A.767.767,0,0,1,9.09,1.56L8.833.035l0-.01C8.828.008,8.821,0,8.807,0H7.193c-.014,0-.021.008-.024.025L6.91,1.56a.765.765,0,0,1-.435.651h0a5.906,5.906,0,0,0-1.486.614h0a.774.774,0,0,1-.772-.149l-1.26-.9-.008-.006c-.015-.01-.026-.01-.035,0L2.89,1.8l-.046.045-1,1-.06.06-.009.01c-.01.009-.01.02,0,.035l.9,1.268a.771.771,0,0,1,.15.77h0A5.9,5.9,0,0,0,2.211,6.47h0a.774.774,0,0,1-.651.44L.035,7.167l-.01,0c-.017,0-.025.01-.025.024V8.807c0,.014.008.021.025.024L1.56,9.09a.774.774,0,0,1,.651.44h0a5.873,5.873,0,0,0,.614,1.481h0a.774.774,0,0,1-.149.772l-.9,1.268c-.01.015-.01.026,0,.035l.009.01.06.06,1,1,.046.045.024.024c.009.01.02.01.035,0l.008-.006,1.26-.9a.771.771,0,0,1,.77-.15h0a5.9,5.9,0,0,0,1.483.615h0a.774.774,0,0,1,.44.65l.259,1.536c0,.017.01.025.024.025H8.807c.014,0,.021-.008.024-.025l0-.01.257-1.526a.774.774,0,0,1,.44-.65h0a5.873,5.873,0,0,0,1.481-.614h0a.774.774,0,0,1,.772.149l1.268.9c.015.01.026.01.035,0l.01-.009.06-.06,1-1,.045-.046.024-.024c.01-.009.01-.02,0-.035l-.006-.008-.9-1.26a.771.771,0,0,1-.15-.77h0a5.9,5.9,0,0,0,.615-1.483h0a.774.774,0,0,1,.651-.44l1.535-.259c.017,0,.025-.01.025-.024V7.193C16,7.179,15.992,7.172,15.975,7.169Zm-5.356,3.45a3.7,3.7,0,1,1,0-5.238A3.7,3.7,0,0,1,10.619,10.619Z"/></svg>