<svg id="Layer_1" data-name="Layer 1" xmlns="http://www.w3.org/2000/svg" viewBox="0 0 16 16"><title>faders</title><path d="M9.05,8.756V1.311h-2V8.756a2.74,2.74,0,0,0,0,5.11v1.445h2V13.866a2.74,2.74,0,0,0,0-5.11Zm-1,3.805a1.25,1.25,0,1,1,1.25-1.25A1.25,1.25,0,0,1,8.05,12.561Zm6-8.8V1.311h-2V3.756a2.74,2.74,0,0,0,0,5.11v6.445h2V8.866a2.74,2.74,0,0,0,0-5.11Zm-1,3.805a1.25,1.25,0,1,1,1.25-1.25A1.25,1.25,0,0,1,13.05,7.561Zm-10-7a2.746,2.746,0,0,0-1,5.305v9.445h2V5.866a2.746,2.746,0,0,0-1-5.3Zm0,4A1.25,1.25,0,1,1,4.3,3.311,1.25,1.25,0,0,1,3.05,4.561Z"/></svg>