<svg id="Layer_1" data-name="Layer 1" xmlns="http://www.w3.org/2000/svg" viewBox="0 0 16 16"><title>faders</title><path d="M9.05,8.76V1.31h-2V8.76a2.74,2.74,0,0,0,0,5.11v1.44h2V13.87a2.74,2.74,0,0,0,0-5.11Zm-1,3.8A1.25,1.25,0,1,1,9.3,11.31,1.25,1.25,0,0,1,8.05,12.56Z"/><path d="M14.05,3.76V1.31h-2V3.76a2.74,2.74,0,0,0,0,5.11v6.44h2V8.87a2.74,2.74,0,0,0,0-5.11Zm-1,3.8A1.25,1.25,0,1,1,14.3,6.31,1.25,1.25,0,0,1,13.05,7.56Z"/><path d="M3.05.56a2.75,2.75,0,0,0-1,5.31v9.44h2V5.87a2.75,2.75,0,0,0-1-5.31Zm0,4A1.25,1.25,0,1,1,4.3,3.31,1.25,1.25,0,0,1,3.05,4.56Z"/></svg>