<svg width="16" height="16" viewBox="0 0 16 16" fill="none" xmlns="http://www.w3.org/2000/svg">
<path d="M7.772 3.10598C7.9182 3.25126 8.1159 3.33285 8.322 3.33298H14.222C14.6344 3.33404 15.0295 3.49832 15.3211 3.78989C15.6127 4.08147 15.7769 4.47663 15.778 4.88898V12.667C15.7767 13.0792 15.6123 13.4741 15.3207 13.7654C15.0292 14.0568 14.6342 14.2209 14.222 14.222H1.778C1.36582 14.2209 0.97081 14.0568 0.67926 13.7654C0.387711 13.4741 0.22332 13.0792 0.222 12.667L0.23 3.33298C0.229468 2.92162 0.392167 2.52685 0.682388 2.23532C0.972608 1.94379 1.36664 1.77931 1.778 1.77798H6.122C6.22417 1.77791 6.32535 1.79801 6.41974 1.83714C6.51412 1.87626 6.59985 1.93364 6.672 2.00598L7.772 3.10598Z" fill="black"/>
</svg>
