<svg width="16" height="16" viewBox="0 0 16 16" fill="none" xmlns="http://www.w3.org/2000/svg">
<path d="M11.333 8.66701L8 12L4.667 8.66701H6.667V6.00001H9.333V8.66701H11.333ZM12.9 6.69301C12.6992 5.67742 12.1877 4.74932 11.4364 4.03707C10.6851 3.32482 9.73101 2.86362 8.70615 2.71724C7.68128 2.57086 6.63626 2.74654 5.71559 3.21999C4.79493 3.69343 4.04412 4.44125 3.567 5.36001C2.55571 5.47786 1.62742 5.97691 0.971317 6.75544C0.315213 7.53398 -0.0193224 8.53341 0.0358892 9.55004C0.0911007 10.5667 0.531904 11.524 1.26846 12.2269C2.00502 12.9298 2.98189 13.3254 4 13.333H12.667C13.5288 13.3337 14.3572 12.9996 14.9775 12.4012C15.5977 11.8028 15.9613 10.9869 15.9915 10.1256C16.0217 9.26428 15.7162 8.4249 15.1395 7.78451C14.5627 7.14411 13.7598 6.75277 12.9 6.69301Z" fill="black"/>
</svg>
