<svg width="16" height="16" viewBox="0 0 16 16" fill="none" xmlns="http://www.w3.org/2000/svg">
<path d="M11.111 3.333V0.226998L14.217 3.333H11.111ZM14.222 5.666V15C14.222 15.1021 14.2019 15.2032 14.1628 15.2976C14.1237 15.3919 14.0663 15.4776 13.9941 15.5498C13.9218 15.6219 13.8361 15.6792 13.7417 15.7181C13.6473 15.7571 13.5461 15.7771 13.444 15.777H2.55602C2.45389 15.7771 2.35275 15.7571 2.25836 15.7181C2.16398 15.6792 2.0782 15.6219 2.00595 15.5498C1.93369 15.4776 1.87637 15.3919 1.83726 15.2976C1.79815 15.2032 1.77802 15.1021 1.77802 15V0.999998C1.77907 0.794445 1.86154 0.597687 2.00736 0.452807C2.15317 0.307927 2.35046 0.226731 2.55602 0.226998H8.77802C8.98349 0.226994 9.18062 0.308275 9.32638 0.453098C9.47215 0.597922 9.55469 0.794527 9.55602 0.999998V4.888H13.444C13.6504 4.888 13.8482 4.96997 13.9941 5.11587C14.14 5.26177 14.222 5.45966 14.222 5.666ZM11.111 10.334H4.88902V11.889H11.111V10.334ZM11.111 7.223H4.88902V8.778H11.111V7.223Z" fill="black"/>
</svg>
