<svg width="16" height="16" viewBox="0 0 16 16" fill="none" xmlns="http://www.w3.org/2000/svg">
<path d="M11.111 3.33299V0.22699L14.217 3.33299H11.111ZM14.222 5.66599V15C14.222 15.1021 14.2019 15.2032 14.1628 15.2976C14.1236 15.3919 14.0663 15.4776 13.9941 15.5498C13.9218 15.6219 13.836 15.6791 13.7417 15.7181C13.6473 15.7571 13.5461 15.7771 13.444 15.777H2.556C2.45388 15.7771 2.35273 15.7571 2.25835 15.7181C2.16396 15.6791 2.07819 15.6219 2.00593 15.5498C1.93367 15.4776 1.87635 15.3919 1.83724 15.2976C1.79813 15.2032 1.778 15.1021 1.778 15V0.99999C1.77906 0.794438 1.86152 0.59768 2.00734 0.452799C2.15316 0.307919 2.35044 0.226723 2.556 0.22699H8.778C8.98347 0.226986 9.18061 0.308267 9.32637 0.453091C9.47213 0.597914 9.55468 0.79452 9.556 0.99999V4.88799H13.444C13.6503 4.88799 13.8482 4.96996 13.9941 5.11586C14.14 5.26176 14.222 5.45965 14.222 5.66599ZM11.111 10.334H4.889V11.889H11.111V10.334ZM11.111 7.22299H4.889V8.77799H11.111V7.22299Z" fill="black"/>
</svg>
