<svg id="Layer_1" data-name="Layer 1" xmlns="http://www.w3.org/2000/svg" viewBox="0 0 16 16"><title>hang-tag</title><path d="M7.519,15.93a1.293,1.293,0,0,1-.917-.38L.378,9.327a1.3,1.3,0,0,1,0-1.833L7.422.449a1.315,1.315,0,0,1,1.1-.367l5.39.849A1.294,1.294,0,0,1,15,2.036L15.846,7.4A1.3,1.3,0,0,1,15.484,8.5L8.436,15.55A1.293,1.293,0,0,1,7.519,15.93Zm.144-1.44h0ZM1.582,8.41l5.937,5.936L14.347,7.52l-.809-5.129L8.41,1.583Zm12.1-6h0Zm-.165-.16v0Z"/><path d="M10.619,7.049A1.871,1.871,0,0,1,9.294,3.854a1.918,1.918,0,0,1,2.649,0,1.875,1.875,0,0,1,0,2.647h0A1.867,1.867,0,0,1,10.619,7.049Zm.854-1.017h0Zm-.854-1.4a.538.538,0,0,0-.385.16.544.544,0,0,0,.769.77h0a.546.546,0,0,0,0-.77A.538.538,0,0,0,10.619,4.633Z"/></svg>