<svg width="16" height="16" viewBox="0 0 16 16" fill="none" xmlns="http://www.w3.org/2000/svg">
<path d="M7.99999 15.418L6.84999 14.371C2.76399 10.666 0.0669886 8.222 0.0669886 5.223C0.0612407 4.64845 0.170168 4.07852 0.387394 3.54658C0.604619 3.01464 0.925779 2.53138 1.33207 2.12509C1.73836 1.71879 2.22162 1.39763 2.75356 1.18041C3.2855 0.963182 3.85543 0.854255 4.42999 0.860003C5.10898 0.865142 5.77898 1.01579 6.39481 1.3018C7.01065 1.58781 7.55801 2.00253 7.99999 2.518C8.44197 2.00253 8.98933 1.58781 9.60516 1.3018C10.221 1.01579 10.891 0.865142 11.57 0.860003C12.1445 0.854255 12.7145 0.963182 13.2464 1.18041C13.7784 1.39763 14.2616 1.71879 14.6679 2.12509C15.0742 2.53138 15.3954 3.01464 15.6126 3.54658C15.8298 4.07852 15.9387 4.64845 15.933 5.223C15.933 8.223 13.233 10.666 9.14999 14.379L7.99999 15.418Z" fill="black"/>
</svg>
