<svg id="Layer_1" data-name="Layer 1" xmlns="http://www.w3.org/2000/svg" viewBox="0 0 18 18"><title>heart-outline</title><g opacity="0.008"><rect x="-0.067" y="-0.067" width="18.067" height="18.067" fill="none"/></g><path d="M12.354,4.191a2.093,2.093,0,0,1,2.14,2.141c0,1.905-2.178,3.931-5.524,6.973C5.629,10.274,3.438,8.243,3.438,6.332A2.094,2.094,0,0,1,5.579,4.191a2.521,2.521,0,0,1,1.865.87L8.966,6.849l1.523-1.788a2.521,2.521,0,0,1,1.865-.87m0-2A4.509,4.509,0,0,0,8.966,3.765,4.5,4.5,0,0,0,5.579,2.191,4.1,4.1,0,0,0,1.438,6.332c0,2.845,2.56,5.164,6.437,8.679l1.091.994,1.092-.986c3.877-3.523,6.436-5.842,6.436-8.687a4.1,4.1,0,0,0-4.14-4.141Z" fill="#231f20"/><g opacity="0.008"><rect x="-0.067" y="-0.067" width="18.067" height="18.067" fill="none"/></g></svg>