<svg width="17" height="16" viewBox="0 0 17 16" fill="none" xmlns="http://www.w3.org/2000/svg">
<path d="M6.98301 5.42301L10.571 9.00001C10.7014 8.67812 10.7693 8.33432 10.771 7.98701C10.7714 7.53548 10.6611 7.09075 10.4496 6.6918C10.2381 6.29285 9.93202 5.95188 9.55809 5.69878C9.18417 5.44569 8.75387 5.28819 8.3049 5.24011C7.85595 5.19203 7.40205 5.25483 6.98301 5.42301ZM15.905 7.64701C15.781 7.44701 12.805 2.74701 8.00501 2.74701C6.95826 2.75471 5.92461 2.98051 4.97001 3.41001L5.93201 4.36901C6.59424 4.12404 7.29394 3.9958 8.00001 3.99001C11.424 3.99001 13.886 6.96801 14.62 7.97401C13.9076 8.94202 13.0526 9.79639 12.084 10.508L12.984 11.408C14.1245 10.5454 15.1122 9.49748 15.906 8.30801C15.9686 8.20908 16.0017 8.09441 16.0015 7.97736C16.0013 7.86032 15.9678 7.74575 15.905 7.64701ZM4.70001 4.92501L4.71101 4.91901L3.80001 4.00901L3.78901 4.01501L2.96001 3.18901C2.84287 3.07559 2.68589 3.0127 2.52285 3.01387C2.35981 3.01505 2.20375 3.08019 2.08826 3.19529C1.97277 3.31038 1.90709 3.46622 1.90536 3.62926C1.90363 3.79229 1.96599 3.94949 2.07901 4.06701L2.75301 4.73901C1.7206 5.56421 0.82316 6.54533 0.0930072 7.64701C0.0321697 7.74523 -6.10352e-05 7.85847 -6.10352e-05 7.97401C-6.10352e-05 8.08954 0.0321697 8.20279 0.0930072 8.30101C0.218007 8.50001 3.20001 13.2 8.00001 13.2C8.93055 13.1953 9.85214 13.0179 10.718 12.677L11.271 13.228C11.3874 13.345 11.5456 13.4109 11.7106 13.4113C11.8756 13.4116 12.034 13.3464 12.151 13.23C12.268 13.1136 12.3339 12.9555 12.3343 12.7904C12.3346 12.6254 12.2694 12.467 12.153 12.35L11.916 12.114L11.926 12.107L11 11.185L10.989 11.191L4.70001 4.92501ZM5.32801 7.30001C5.26505 7.52235 5.23143 7.75196 5.22801 7.98301C5.22801 8.3467 5.29976 8.70683 5.43915 9.04275C5.57854 9.37867 5.78283 9.68379 6.04033 9.94064C6.29783 10.1975 6.60346 10.401 6.93974 10.5395C7.27601 10.6781 7.63631 10.7489 8.00001 10.748C8.23172 10.7447 8.462 10.711 8.68501 10.648L9.73701 11.7C9.17358 11.8699 8.58849 11.9571 8.00001 11.959C4.57401 11.959 2.11301 8.98101 1.37901 7.97401C2.02487 7.09283 2.78829 6.30418 3.64801 5.63001L5.32801 7.30001Z" fill="black"/>
</svg>
