<svg width="16" height="16" viewBox="0 0 16 16" fill="none" xmlns="http://www.w3.org/2000/svg">
<path d="M11.556 6.222H9.778V3.556H6.222V6.222H4.444L8 9.778L11.556 6.222ZM14.222 10.667H10.667C10.667 11.3743 10.386 12.0527 9.88585 12.5529C9.3857 13.053 8.70733 13.334 8 13.334C7.29267 13.334 6.61431 13.053 6.11415 12.5529C5.61399 12.0527 5.333 11.3743 5.333 10.667H1.769V1.778H14.222V10.667ZM14.222 0H1.769C1.53643 0.000254398 1.30621 0.0465494 1.09161 0.136215C0.877018 0.225881 0.682299 0.357143 0.518683 0.522432C0.355068 0.68772 0.225794 0.883765 0.138316 1.09926C0.0508389 1.31476 0.00688887 1.54544 0.00900092 1.778L9.15854e-07 14.222C-0.00105236 14.455 0.0439195 14.686 0.132336 14.9016C0.220753 15.1172 0.350874 15.3132 0.515232 15.4784C0.679591 15.6436 0.874952 15.7747 1.09011 15.8642C1.30526 15.9537 1.53597 15.9999 1.769 16H14.222C14.6932 15.9987 15.1446 15.8109 15.4778 15.4778C15.8109 15.1446 15.9987 14.6931 16 14.222V1.778C15.9987 1.30685 15.8109 0.855376 15.4778 0.522222C15.1446 0.189068 14.6932 0.00131938 14.222 0Z" fill="black"/>
</svg>
