<svg width="16" height="16" viewBox="0 0 16 16" fill="none" xmlns="http://www.w3.org/2000/svg">
<path d="M11.556 6.222H9.77802V3.556H6.22202V6.222H4.44402L8.00002 9.778L11.556 6.222ZM14.222 10.667H10.667C10.667 11.3743 10.386 12.0527 9.88587 12.5529C9.38571 13.053 8.70735 13.334 8.00002 13.334C7.29269 13.334 6.61432 13.053 6.11416 12.5529C5.61401 12.0527 5.33302 11.3743 5.33302 10.667H1.76902V1.778H14.222V10.667ZM14.222 0H1.76902C1.53644 0.000254398 1.30622 0.0465494 1.09163 0.136215C0.877035 0.225881 0.682316 0.357143 0.518701 0.522432C0.355085 0.68772 0.225811 0.883765 0.138334 1.09926C0.0508561 1.31476 0.00690604 1.54544 0.00901808 1.778L1.8082e-05 14.222C-0.0010352 14.455 0.0439367 14.686 0.132353 14.9016C0.22077 15.1172 0.350891 15.3132 0.515249 15.4784C0.679608 15.6436 0.874969 15.7747 1.09012 15.8642C1.30528 15.9537 1.53599 15.9999 1.76902 16H14.222C14.6932 15.9987 15.1446 15.8109 15.4778 15.4778C15.811 15.1446 15.9987 14.6931 16 14.222V1.778C15.9987 1.30685 15.811 0.855376 15.4778 0.522222C15.1446 0.189068 14.6932 0.00131938 14.222 0Z" fill="black"/>
</svg>
