<svg width="16" height="16" viewBox="0 0 16 16" fill="none" xmlns="http://www.w3.org/2000/svg">
<path d="M7.70405 15.88H1.60405C1.20405 15.88 0.804052 15.58 0.604052 15.18C0.404052 14.78 0.504052 14.28 0.804052 13.98L4.90405 9.87999H1.60405C1.00405 9.87999 0.504052 9.37999 0.504052 8.77999C0.504052 8.17999 1.00405 7.67999 1.60405 7.67999H7.70405C8.10405 7.67999 8.50405 7.97999 8.70405 8.37999C8.90405 8.77999 8.80405 9.27999 8.50405 9.57999L4.40405 13.68H7.80405C8.40405 13.68 8.90405 14.18 8.90405 14.78C8.80405 15.38 8.30405 15.88 7.70405 15.88Z" fill="black"/>
<path d="M14.7041 6.07999H10.4041C10.1041 6.07999 9.80405 5.87999 9.60405 5.57999C9.60405 5.27999 9.60405 4.87999 9.90405 4.67999L12.8041 1.87999H10.4041C9.90405 1.87999 9.60405 1.47999 9.60405 1.07999C9.60405 0.679993 10.0041 0.179993 10.4041 0.179993H14.7041C15.0041 0.179993 15.3041 0.379993 15.5041 0.679993C15.6041 0.979993 15.6041 1.37999 15.3041 1.57999L12.5041 4.37999H14.8041C15.3041 4.37999 15.6041 4.77999 15.6041 5.17999C15.6041 5.67999 15.2041 6.07999 14.7041 6.07999Z" fill="black"/>
</svg>
