<svg width="16" height="16" viewBox="0 0 16 16" fill="none" xmlns="http://www.w3.org/2000/svg">
<path d="M6.2 12.431H4.431C3.25583 12.431 2.12878 11.9642 1.29781 11.1332C0.466836 10.3022 0 9.17517 0 8C0 6.82483 0.466836 5.69778 1.29781 4.86681C2.12878 4.03584 3.25583 3.569 4.431 3.569H6.2V5.342H4.431C4.08195 5.342 3.73631 5.41075 3.41383 5.54433C3.09134 5.67791 2.79833 5.87369 2.55151 6.12051C2.30469 6.36733 2.10891 6.66034 1.97533 6.98283C1.84175 7.30531 1.773 7.65095 1.773 8C1.773 8.34905 1.84175 8.69469 1.97533 9.01717C2.10891 9.33966 2.30469 9.63267 2.55151 9.87949C2.79833 10.1263 3.09134 10.3221 3.41383 10.4557C3.73631 10.5892 4.08195 10.658 4.431 10.658H6.2V12.431ZM15.95 8C15.9489 6.82532 15.4819 5.69905 14.6514 4.86833C13.8208 4.03762 12.6947 3.57032 11.52 3.569H9.748V5.342H11.52C11.8691 5.342 12.2147 5.41075 12.5372 5.54433C12.8597 5.67791 13.1527 5.87369 13.3995 6.12051C13.6463 6.36733 13.8421 6.66034 13.9757 6.98283C14.1092 7.30531 14.178 7.65095 14.178 8C14.178 8.34905 14.1092 8.69469 13.9757 9.01717C13.8421 9.33966 13.6463 9.63267 13.3995 9.87949C13.1527 10.1263 12.8597 10.3221 12.5372 10.4557C12.2147 10.5892 11.8691 10.658 11.52 10.658H9.748V12.431H11.52C12.6947 12.4297 13.8208 11.9624 14.6514 11.1317C15.4819 10.301 15.9489 9.17468 15.95 8ZM11.52 7.114H4.431V8.886H11.52V7.114Z" fill="black"/>
</svg>
