<svg width="16" height="17" viewBox="0 0 16 17" fill="none" xmlns="http://www.w3.org/2000/svg">
<path d="M12.521 1.90001C11.3554 0.73378 9.78554 0.0610657 8.13716 0.0214467C6.48877 -0.0181724 4.88841 0.578346 3.66812 1.68723C2.44783 2.79612 1.70129 4.33224 1.58341 5.97689C1.46552 7.62153 1.98534 9.24842 3.035 10.52L7.984 16.52L12.933 10.52C13.9487 9.28933 14.4693 7.72426 14.3931 6.13038C14.317 4.53649 13.6495 3.02821 12.521 1.90001ZM7.984 8.51401C7.62226 8.51401 7.26864 8.40674 6.96786 8.20577C6.66709 8.0048 6.43266 7.71915 6.29423 7.38494C6.15579 7.05073 6.11957 6.68298 6.19015 6.32819C6.26072 5.9734 6.43491 5.6475 6.6907 5.39171C6.94649 5.13592 7.27239 4.96173 7.62718 4.89116C7.98197 4.82058 8.34972 4.8568 8.68393 4.99524C9.01814 5.13367 9.30379 5.3681 9.50476 5.66887C9.70573 5.96965 9.813 6.32327 9.813 6.68501C9.813 7.17009 9.6203 7.63531 9.2773 7.97831C8.9343 8.32131 8.46908 8.51401 7.984 8.51401Z" fill="black"/>
</svg>
