<svg width="16" height="16" viewBox="0 0 16 16" fill="none" xmlns="http://www.w3.org/2000/svg">
<path d="M7.69999 7.96201C7.65658 7.91556 7.60409 7.87853 7.54577 7.85321C7.48746 7.8279 7.42456 7.81483 7.36099 7.81483C7.29741 7.81483 7.23451 7.8279 7.1762 7.85321C7.11788 7.87853 7.06539 7.91556 7.02199 7.96201L1.39999 13.841C1.30978 13.9372 1.25958 14.0641 1.25958 14.196C1.25958 14.3279 1.30978 14.4548 1.39999 14.551L2.38399 15.58C2.42739 15.6265 2.47988 15.6635 2.5382 15.6888C2.59651 15.7141 2.65941 15.7272 2.72299 15.7272C2.78656 15.7272 2.84946 15.7141 2.90777 15.6888C2.96609 15.6635 3.01858 15.6265 3.06199 15.58L8.67999 9.70001C8.77019 9.60381 8.82039 9.47688 8.82039 9.34501C8.82039 9.21314 8.77019 9.08621 8.67999 8.99001L7.69999 7.96201ZM10.11 5.44001C10.0664 5.39367 10.0138 5.35674 9.95542 5.33149C9.89703 5.30625 9.8341 5.29322 9.77048 5.29322C9.70687 5.29322 9.64394 5.30625 9.58555 5.33149C9.52716 5.35674 9.47456 5.39367 9.43098 5.44001L8.46099 6.45601C8.37078 6.55221 8.32058 6.67914 8.32058 6.81101C8.32058 6.94288 8.37078 7.06981 8.46099 7.16601L9.43998 8.20001C9.48356 8.24636 9.53616 8.28329 9.59455 8.30853C9.65294 8.33378 9.71587 8.3468 9.77948 8.3468C9.8431 8.3468 9.90603 8.33378 9.96442 8.30853C10.0228 8.28329 10.0754 8.24636 10.119 8.20001L11.089 7.18401C11.1792 7.08781 11.2294 6.96089 11.2294 6.82901C11.2294 6.69714 11.1792 6.57021 11.089 6.47401L10.11 5.44001ZM4.58999 2.90001C5.03191 2.96785 5.43908 3.17968 5.74828 3.50262C6.05748 3.82557 6.25142 4.24156 6.29999 4.68601C6.31659 4.75043 6.35415 4.8075 6.40673 4.84825C6.45932 4.889 6.52396 4.91111 6.59049 4.91111C6.65701 4.91111 6.72165 4.889 6.77424 4.84825C6.82683 4.8075 6.86438 4.75043 6.88099 4.68601C6.92886 4.24195 7.12205 3.82614 7.43055 3.50317C7.73905 3.1802 8.14558 2.96817 8.58699 2.90001C8.65314 2.88124 8.71137 2.8414 8.75283 2.78654C8.7943 2.73167 8.81673 2.66478 8.81673 2.59601C8.81673 2.52724 8.7943 2.46035 8.75283 2.40549C8.71137 2.35062 8.65314 2.31078 8.58699 2.29201C8.14425 2.22413 7.73648 2.01145 7.42745 1.68722C7.11842 1.36299 6.92555 0.945497 6.87899 0.500012C6.86171 0.436459 6.82401 0.380355 6.77169 0.340356C6.71937 0.300358 6.65534 0.278687 6.58949 0.278687C6.52363 0.278687 6.4596 0.300358 6.40728 0.340356C6.35496 0.380355 6.31726 0.436459 6.29999 0.500012C6.25241 0.945245 6.0589 1.36224 5.7496 1.68601C5.4403 2.00978 5.03258 2.22215 4.58999 2.29001C4.52299 2.30817 4.46384 2.34787 4.42166 2.403C4.37949 2.45812 4.35664 2.5256 4.35664 2.59501C4.35664 2.66442 4.37949 2.7319 4.42166 2.78703C4.46384 2.84215 4.52299 2.88186 4.58999 2.90001ZM14.305 2.77501C14.1174 2.7135 13.9479 2.60667 13.8115 2.46398C13.6751 2.3213 13.576 2.14716 13.523 1.95701C13.5058 1.89885 13.4703 1.84781 13.4217 1.8115C13.3731 1.7752 13.3141 1.75558 13.2535 1.75558C13.1928 1.75558 13.1338 1.7752 13.0853 1.8115C13.0367 1.84781 13.0012 1.89885 12.984 1.95701C12.9311 2.14705 12.8321 2.32111 12.6959 2.46379C12.5597 2.60647 12.3904 2.71336 12.203 2.77501C12.1451 2.79603 12.095 2.83437 12.0597 2.88483C12.0243 2.93528 12.0053 2.9954 12.0053 3.05701C12.0053 3.11862 12.0243 3.17874 12.0597 3.2292C12.095 3.27965 12.1451 3.31799 12.203 3.33901C12.3902 3.40122 12.5594 3.50842 12.6955 3.65121C12.8317 3.79401 12.9307 3.96803 12.984 4.15801C13.0012 4.21617 13.0367 4.26722 13.0853 4.30352C13.1338 4.33983 13.1928 4.35945 13.2535 4.35945C13.3141 4.35945 13.3731 4.33983 13.4217 4.30352C13.4703 4.26722 13.5058 4.21617 13.523 4.15801C13.5764 3.96795 13.6756 3.7939 13.812 3.65111C13.9483 3.50833 14.1176 3.40116 14.305 3.33901C14.3636 3.3184 14.4143 3.2801 14.4502 3.22941C14.4861 3.17872 14.5054 3.11813 14.5054 3.05601C14.5054 2.99389 14.4861 2.93331 14.4502 2.88261C14.4143 2.83192 14.3636 2.79363 14.305 2.77301V2.77501ZM13.914 9.53401C13.7266 9.47236 13.5573 9.36547 13.4211 9.22279C13.2849 9.08011 13.1859 8.90605 13.133 8.71601C13.1158 8.65785 13.0803 8.60681 13.0317 8.5705C12.9831 8.53419 12.9241 8.51458 12.8635 8.51458C12.8028 8.51458 12.7438 8.53419 12.6953 8.5705C12.6467 8.60681 12.6112 8.65785 12.594 8.71601C12.541 8.90616 12.4419 9.08029 12.3055 9.22298C12.1691 9.36567 11.9996 9.4725 11.812 9.53401C11.7541 9.55503 11.704 9.59338 11.6687 9.64383C11.6333 9.69428 11.6143 9.7544 11.6143 9.81601C11.6143 9.87762 11.6333 9.93774 11.6687 9.98819C11.704 10.0386 11.7541 10.077 11.812 10.098C11.9994 10.1602 12.1687 10.2673 12.305 10.4101C12.4413 10.5529 12.5406 10.727 12.594 10.917C12.6112 10.9752 12.6467 11.0262 12.6953 11.0625C12.7438 11.0988 12.8028 11.1184 12.8635 11.1184C12.9241 11.1184 12.9831 11.0988 13.0317 11.0625C13.0803 11.0262 13.1158 10.9752 13.133 10.917C13.1862 10.727 13.2853 10.553 13.4215 10.4102C13.5576 10.2674 13.7267 10.1602 13.914 10.098C13.9726 10.0774 14.0233 10.0391 14.0592 9.98841C14.0951 9.93772 14.1144 9.87713 14.1144 9.81501C14.1144 9.75289 14.0951 9.6923 14.0592 9.64161C14.0233 9.59092 13.9726 9.55262 13.914 9.53201V9.53401Z" fill="black"/>
</svg>
