<svg width="16" height="16" viewBox="0 0 16 16" fill="none" xmlns="http://www.w3.org/2000/svg">
<path fill-rule="evenodd" clip-rule="evenodd" d="M15.2277 0.533598C15.3925 0.601885 15.5 0.762753 15.5 0.941189V15.0588C15.5 15.2373 15.3925 15.3981 15.2277 15.4664C15.0628 15.5347 14.873 15.497 14.7469 15.3708C12.4826 13.1065 9.50103 11.5598 6.17227 11.1025L6.17162 14.3025C6.17157 14.9637 5.63576 15.5 4.9743 15.5C4.31267 15.5 3.77717 14.9636 3.77717 14.3025C3.77717 14.3025 3.77717 12.097 3.77717 11.5294C3.77717 10.9618 3.46184 10.9618 3.46184 10.9618C1.8262 10.9618 0.5 9.63588 0.5 8.00001C0.5 6.36409 1.82626 5.03742 3.46184 5.03742H4.10033C7.95379 5.03742 11.8066 3.56934 14.7469 0.629221C14.8731 0.503051 15.0628 0.465311 15.2277 0.533598Z" fill="black"/>
</svg>
