<svg width="16" height="16" viewBox="0 0 16 16" fill="none" xmlns="http://www.w3.org/2000/svg">
<path d="M11.571 13H4.429V3H11.571V13ZM11.571 0.149998L4.429 0.142998C4.0505 0.144052 3.68779 0.294808 3.42006 0.562354C3.15233 0.829899 3.00132 1.1925 3 1.571V14.429C3.00132 14.8075 3.15233 15.1701 3.42006 15.4376C3.68779 15.7052 4.0505 15.8559 4.429 15.857H11.571C11.9495 15.8559 12.3122 15.7052 12.5799 15.4376C12.8477 15.1701 12.9987 14.8075 13 14.429V1.571C12.9984 1.19323 12.8471 0.831502 12.5792 0.565127C12.3113 0.298751 11.9488 0.149465 11.571 0.149998Z" fill="black"/>
</svg>
