<svg width="16" height="16" viewBox="0 0 16 16" fill="none" xmlns="http://www.w3.org/2000/svg">
<path d="M12.139 14.916C12.0376 14.916 11.9377 14.8913 11.848 14.844L8.042 12.844L4.235 14.844C4.13176 14.8983 4.01537 14.9227 3.89902 14.9143C3.78266 14.9059 3.67097 14.8651 3.57659 14.7965C3.48221 14.7279 3.40891 14.6343 3.36497 14.5263C3.32104 14.4182 3.30823 14.3 3.328 14.185L4.056 9.94599L0.976 6.94599C0.89243 6.86474 0.83329 6.76169 0.805283 6.64855C0.777276 6.5354 0.781521 6.41667 0.817537 6.30581C0.853553 6.19495 0.919901 6.09639 1.00906 6.02131C1.09822 5.94623 1.20663 5.89762 1.322 5.88099L5.578 5.26299L7.481 1.39999C7.53849 1.30277 7.62033 1.2222 7.71844 1.16624C7.81655 1.11027 7.92755 1.08084 8.0405 1.08084C8.15345 1.08084 8.26445 1.11027 8.36256 1.16624C8.46067 1.2222 8.54251 1.30277 8.6 1.39999L10.5 5.25699L14.756 5.87499C14.8714 5.89162 14.9798 5.94023 15.0689 6.01531C15.1581 6.09039 15.2244 6.18895 15.2605 6.29981C15.2965 6.41067 15.3007 6.5294 15.2727 6.64255C15.2447 6.75569 15.1856 6.85874 15.102 6.93999L12.022 9.93999L12.75 14.179C12.7654 14.2687 12.7611 14.3608 12.7373 14.4486C12.7134 14.5365 12.6707 14.6181 12.612 14.6877C12.5533 14.7574 12.4801 14.8133 12.3976 14.8517C12.315 14.8901 12.2251 14.91 12.134 14.91L12.139 14.916ZM8.039 11.516C8.1404 11.5161 8.24026 11.5408 8.33 11.588L11.306 13.152L10.74 9.83399C10.7228 9.73413 10.7301 9.63157 10.7615 9.5352C10.7929 9.43884 10.8473 9.35158 10.92 9.28099L13.328 6.93299L10 6.44999C9.89961 6.43556 9.80425 6.39687 9.72218 6.33728C9.64011 6.27768 9.5738 6.19899 9.529 6.10799L8.042 3.09299L6.554 6.10799C6.5092 6.19899 6.44289 6.27768 6.36082 6.33728C6.27875 6.39687 6.18339 6.43556 6.083 6.44999L2.755 6.93299L5.163 9.28099C5.23572 9.35158 5.29012 9.43884 5.32149 9.5352C5.35285 9.63157 5.36024 9.73413 5.343 9.83399L4.774 13.148L7.751 11.584C7.84066 11.5366 7.94058 11.5119 8.042 11.512L8.039 11.516Z" fill="black"/>
</svg>
