<svg width="16" height="16" viewBox="0 0 16 16" fill="none" xmlns="http://www.w3.org/2000/svg">
<path d="M0.0099959 3.637C0.0094639 3.25242 0.161521 2.88334 0.432801 2.61075C0.704081 2.33816 1.07242 2.18432 1.457 2.183H5.519C5.61449 2.1828 5.70908 2.20152 5.79731 2.23808C5.88553 2.27464 5.96563 2.32831 6.033 2.396L7.061 3.424C7.19731 3.56035 7.3822 3.63696 7.575 3.637H13.091C13.4764 3.63805 13.8457 3.79155 14.1183 4.06397C14.3909 4.33639 14.5447 4.70561 14.546 5.091V5.819H2.929C2.21307 5.81837 1.52211 6.08204 0.988597 6.55945C0.455088 7.03685 0.116585 7.6944 0.0379959 8.406L0.0099959 3.637ZM14.546 7.273H2.929C2.57104 7.27282 2.22562 7.40478 1.95896 7.64358C1.6923 7.88237 1.52317 8.2112 1.484 8.567L1.08 12.2C1.05735 12.4033 1.07784 12.609 1.14013 12.8038C1.20242 12.9986 1.3051 13.1781 1.44147 13.3305C1.57785 13.4829 1.74484 13.6049 1.93155 13.6884C2.11826 13.7718 2.32047 13.815 2.525 13.815H14.142C14.4999 13.815 14.8452 13.6829 15.1118 13.4442C15.3784 13.2054 15.5476 12.8767 15.587 12.521L15.987 8.886C16.0093 8.68323 15.9887 8.47803 15.9265 8.28374C15.8643 8.08946 15.7619 7.91043 15.626 7.7583C15.4901 7.60617 15.3237 7.48434 15.1377 7.40073C14.9516 7.31712 14.75 7.2736 14.546 7.273Z" fill="black"/>
</svg>
