<svg id="Layer_1" data-name="Layer 1" xmlns="http://www.w3.org/2000/svg" viewBox="0 0 16 16"><title>open-star</title><path d="M12.14,14.92a.6.6,0,0,1-.29-.08L8,12.84l-3.8,2a.61.61,0,0,1-.66,0,.61.61,0,0,1-.25-.61L4.06,10,1,6.94A.61.61,0,0,1,.82,6.3a.62.62,0,0,1,.5-.42l4.26-.62L7.48,1.4a.66.66,0,0,1,1.12,0l1.9,3.86,4.26.62a.62.62,0,0,1,.35,1.06L12,10l.72,4.24a.62.62,0,0,1-.61.73ZM8,11.51a.73.73,0,0,1,.29.07l3,1.57-.57-3.32a.62.62,0,0,1,.18-.55l2.41-2.35L10,6.45a.64.64,0,0,1-.47-.34L8,3.09l-1.49,3a.62.62,0,0,1-.47.34l-3.32.48,2.4,2.35a.6.6,0,0,1,.18.55l-.57,3.32,3-1.57A.73.73,0,0,1,8,11.51Z"/></svg>