<svg width="16" height="16" viewBox="0 0 16 16" fill="none" xmlns="http://www.w3.org/2000/svg">
<path d="M12.139 14.916C12.0376 14.916 11.9377 14.8913 11.848 14.844L8.04198 12.844L4.23498 14.844C4.13174 14.8983 4.01536 14.9227 3.899 14.9143C3.78264 14.9059 3.67095 14.8651 3.57657 14.7965C3.48219 14.7279 3.40889 14.6343 3.36496 14.5263C3.32103 14.4182 3.30822 14.3 3.32798 14.185L4.05598 9.94599L0.975985 6.94599C0.892414 6.86474 0.833275 6.76169 0.805268 6.64855C0.77726 6.5354 0.781505 6.41667 0.817522 6.30581C0.853538 6.19495 0.919885 6.09639 1.00905 6.02131C1.09821 5.94623 1.20661 5.89762 1.32198 5.88099L5.57798 5.26299L7.48098 1.39999C7.53848 1.30277 7.62031 1.2222 7.71842 1.16624C7.81653 1.11027 7.92753 1.08084 8.04048 1.08084C8.15344 1.08084 8.26444 1.11027 8.36255 1.16624C8.46066 1.2222 8.54249 1.30277 8.59999 1.39999L10.5 5.25699L14.756 5.87499C14.8714 5.89162 14.9798 5.94023 15.0689 6.01531C15.1581 6.09039 15.2244 6.18895 15.2604 6.29981C15.2965 6.41067 15.3007 6.5294 15.2727 6.64255C15.2447 6.75569 15.1856 6.85874 15.102 6.93999L12.022 9.93999L12.75 14.179C12.7654 14.2687 12.7611 14.3608 12.7372 14.4486C12.7134 14.5365 12.6706 14.6181 12.612 14.6877C12.5533 14.7574 12.4801 14.8133 12.3976 14.8517C12.315 14.8901 12.225 14.91 12.134 14.91L12.139 14.916ZM8.03898 11.516C8.14038 11.5161 8.24025 11.5408 8.32998 11.588L11.306 13.152L10.74 9.83399C10.7227 9.73413 10.7301 9.63157 10.7615 9.5352C10.7929 9.43884 10.8473 9.35158 10.92 9.28099L13.328 6.93299L9.99998 6.44999C9.89959 6.43556 9.80424 6.39687 9.72217 6.33728C9.64009 6.27768 9.57379 6.19899 9.52899 6.10799L8.04198 3.09299L6.55398 6.10799C6.50918 6.19899 6.44287 6.27768 6.3608 6.33728C6.27873 6.39687 6.18338 6.43556 6.08298 6.44999L2.75498 6.93299L5.16298 9.28099C5.2357 9.35158 5.2901 9.43884 5.32147 9.5352C5.35284 9.63157 5.36022 9.73413 5.34298 9.83399L4.77398 13.148L7.75098 11.584C7.84065 11.5366 7.94056 11.5119 8.04198 11.512L8.03898 11.516Z" fill="black"/>
</svg>
