<svg id="Layer_1" data-name="Layer 1" xmlns="http://www.w3.org/2000/svg" viewBox="0 0 16 16"><title>outlined-image-file</title><path d="M9.89,0H2.39a.8.8,0,0,0-.8.8V15.2a.8.8,0,0,0,.8.8h11.3a.8.8,0,0,0,.81-.8v-11Zm2.56,4.15H10A.12.12,0,0,1,9.88,4V1.85Zm.7,10.5H2.94V1.35H8.53V4A1.47,1.47,0,0,0,10,5.51h3.15Z"/><path d="M4.25,12.64h7.68V6.69H4.25Zm6.93-5.2v3l-.78-.91L9.23,10.83,6.93,8.15,5,10.41v-3ZM5,11.56,6.93,9.3l2.22,2.59H5Zm4.32.33,1.08-1.26.78.91v.35Z"/><path d="M9.24,9.14a.44.44,0,0,0,.44-.43.44.44,0,0,0-.44-.44.44.44,0,0,0-.43.44A.43.43,0,0,0,9.24,9.14Z"/></svg>