<svg id="Layer_1" data-name="Layer 1" xmlns="http://www.w3.org/2000/svg" viewBox="0 0 16 16"><title>outlined-notes</title><path d="M15.109,12.369l-.093-9.844a1.59,1.59,0,0,0-1.574-1.6H2.368a1.59,1.59,0,0,0-1.574,1.6V13.4a1.591,1.591,0,0,0,1.574,1.6h9.877ZM2.368,13.633a.229.229,0,0,1-.225-.229V2.525A.23.23,0,0,1,2.368,2.3H13.442a.23.23,0,0,1,.225.229l.093,8.8-2.509,2.313Z"/><polygon points="9.727 15.008 9.727 9.711 14.991 9.711 14.991 11.374 11.306 11.374 11.306 15.008 9.727 15.008"/><rect x="5.726" y="4.333" width="4.841" height="1.614"/><rect x="5.726" y="6.754" width="4.841" height="1.614"/></svg>