<svg width="16" height="17" viewBox="0 0 16 17" fill="none" xmlns="http://www.w3.org/2000/svg">
<path d="M7.217 7.134V7.672C7.21796 7.71258 7.21067 7.75293 7.19558 7.79061C7.18049 7.82829 7.15791 7.86251 7.12921 7.89122C7.10051 7.91992 7.06629 7.94249 7.02861 7.95758C6.99093 7.97267 6.95057 7.97996 6.91 7.979C6.83441 7.97966 6.76119 7.95269 6.7041 7.90315C6.64701 7.85361 6.60999 7.78492 6.6 7.71H6.238V9.265C6.31241 9.27493 6.38068 9.31152 6.43015 9.36798C6.47963 9.42444 6.50693 9.49693 6.507 9.572C6.50796 9.61258 6.50067 9.65293 6.48558 9.69061C6.47049 9.72829 6.44791 9.76252 6.41921 9.79122C6.39051 9.81992 6.35629 9.84249 6.31861 9.85758C6.28093 9.87267 6.24057 9.87996 6.2 9.879H5.662C5.62142 9.87996 5.58107 9.87267 5.54339 9.85758C5.50571 9.84249 5.47148 9.81992 5.44278 9.79122C5.41408 9.76252 5.3915 9.72829 5.37641 9.69061C5.36132 9.65293 5.35404 9.61258 5.355 9.572C5.35506 9.49693 5.38237 9.42444 5.43184 9.36798C5.48131 9.31152 5.54959 9.27493 5.624 9.265V7.71H5.163C5.15748 7.78279 5.12481 7.85084 5.07146 7.90067C5.01812 7.9505 4.94799 7.97846 4.875 7.979C4.83442 7.97996 4.79407 7.97267 4.75639 7.95758C4.71871 7.94249 4.68448 7.91992 4.65578 7.89122C4.62708 7.86251 4.6045 7.82829 4.58941 7.79061C4.57432 7.75293 4.56704 7.71258 4.568 7.672V7.134C4.56704 7.09342 4.57432 7.05307 4.58941 7.01539C4.6045 6.97771 4.62708 6.94349 4.65578 6.91478C4.68448 6.88608 4.71871 6.86351 4.75639 6.84842C4.79407 6.83333 4.83442 6.82604 4.875 6.827C4.95006 6.82707 5.02256 6.85437 5.07902 6.90384C5.13548 6.95331 5.17207 7.02159 5.182 7.096H6.622C6.63193 7.02159 6.66852 6.95331 6.72498 6.90384C6.78144 6.85437 6.85393 6.82707 6.929 6.827C7.0065 6.83343 7.07885 6.86838 7.13206 6.92509C7.18526 6.98181 7.21553 7.05625 7.217 7.134ZM11.489 7.876C11.4887 7.75868 11.4419 7.64626 11.3589 7.5634C11.2758 7.48054 11.1633 7.434 11.046 7.434H8.366C8.25228 7.43941 8.14501 7.48839 8.06644 7.57078C7.98787 7.65317 7.94404 7.76265 7.94404 7.8765C7.94404 7.99035 7.98787 8.09983 8.06644 8.18222C8.14501 8.26461 8.25228 8.31359 8.366 8.319H11.046C11.1042 8.319 11.1618 8.30754 11.2155 8.28528C11.2693 8.26302 11.3181 8.23038 11.3592 8.18925C11.4004 8.14811 11.433 8.09928 11.4553 8.04553C11.4775 7.99178 11.489 7.93418 11.489 7.876ZM11.489 9.418C11.489 9.30051 11.4423 9.18783 11.3592 9.10475C11.2762 9.02167 11.1635 8.975 11.046 8.975H8.366C8.25228 8.98041 8.14501 9.02939 8.06644 9.11178C7.98787 9.19417 7.94404 9.30365 7.94404 9.4175C7.94404 9.53135 7.98787 9.64083 8.06644 9.72322C8.14501 9.80561 8.25228 9.85459 8.366 9.86H11.046C11.1633 9.86 11.2758 9.81347 11.3589 9.7306C11.4419 9.64774 11.4887 9.53532 11.489 9.418ZM11.489 10.96C11.4887 10.8426 11.442 10.7301 11.359 10.647C11.2759 10.564 11.1634 10.5173 11.046 10.517H4.954C4.83651 10.517 4.72383 10.5637 4.64075 10.6468C4.55767 10.7298 4.511 10.8425 4.511 10.96C4.511 11.0775 4.55767 11.1902 4.64075 11.2732C4.72383 11.3563 4.83651 11.403 4.954 11.403H11.046C11.1634 11.4027 11.2759 11.356 11.359 11.273C11.442 11.1899 11.4887 11.0774 11.489 10.96ZM11.489 12.501C11.4887 12.3836 11.442 12.2711 11.359 12.188C11.2759 12.105 11.1634 12.0583 11.046 12.058H4.954C4.83651 12.058 4.72383 12.1047 4.64075 12.1878C4.55767 12.2708 4.511 12.3835 4.511 12.501C4.511 12.6185 4.55767 12.7312 4.64075 12.8142C4.72383 12.8973 4.83651 12.944 4.954 12.944H11.046C11.1636 12.9437 11.2763 12.8968 11.3593 12.8136C11.4424 12.7304 11.489 12.6176 11.489 12.5V12.501ZM14.578 4.229V14.929C14.578 15.2171 14.4636 15.4934 14.26 15.6973C14.0563 15.9011 13.7801 16.0157 13.492 16.016H2.508C2.22005 16.0157 1.94398 15.9012 1.74037 15.6976C1.53676 15.494 1.42226 15.2179 1.422 14.93V1.083C1.42305 0.795576 1.53791 0.520271 1.74143 0.317312C1.94495 0.114353 2.22057 0.000262475 2.508 0L10.061 0L14.578 4.229ZM9.8 4C9.8 4.04509 9.81791 4.08833 9.84979 4.12021C9.88167 4.15209 9.92491 4.17 9.97 4.17H12.32L9.8 1.8V4ZM13.083 14.522V5.665H9.965C9.52398 5.66316 9.10155 5.48715 8.7897 5.1753C8.47785 4.86345 8.30184 4.44102 8.3 4V1.5H2.922V14.52L13.083 14.522Z" fill="black"/>
</svg>
