<svg width="17" height="17" viewBox="0 0 17 17" fill="none" xmlns="http://www.w3.org/2000/svg">
<path d="M8.894 0.970993C7.31293 0.970993 5.76738 1.43983 4.45277 2.31823C3.13816 3.19662 2.11355 4.44511 1.5085 5.90582C0.903458 7.36653 0.74515 8.97386 1.0536 10.5245C1.36205 12.0752 2.1234 13.4996 3.24139 14.6176C4.35937 15.7356 5.78376 16.4969 7.33445 16.8054C8.88513 17.1138 10.4925 16.9555 11.9532 16.3505C13.4139 15.7454 14.6624 14.7208 15.5408 13.4062C16.4192 12.0916 16.888 10.5461 16.888 8.96499C16.888 7.91521 16.6812 6.8757 16.2795 5.90582C15.8778 4.93594 15.2889 4.05469 14.5466 3.31238C13.8043 2.57007 12.923 1.98124 11.9532 1.5795C10.9833 1.17776 9.94378 0.970993 8.894 0.970993ZM8.894 15.288C7.64343 15.288 6.42094 14.9172 5.38113 14.2224C4.34131 13.5276 3.53088 12.5401 3.05231 11.3847C2.57373 10.2293 2.44852 8.95798 2.69249 7.73144C2.93647 6.50489 3.53867 5.37824 4.42296 4.49396C5.30725 3.60967 6.4339 3.00746 7.66044 2.76349C8.88698 2.51951 10.1583 2.64473 11.3137 3.1233C12.4691 3.60188 13.4566 4.41231 14.1514 5.45212C14.8462 6.49193 15.217 7.71442 15.217 8.96499C15.2167 10.6419 14.5505 12.25 13.3647 13.4357C12.179 14.6215 10.5709 15.2877 8.894 15.288ZM12.694 8.94799C12.694 9.16176 12.6091 9.36677 12.4579 9.51792C12.3068 9.66908 12.1018 9.75399 11.888 9.75399H5.861C5.65202 9.74663 5.45405 9.65844 5.30881 9.508C5.16357 9.35755 5.0824 9.1566 5.0824 8.94749C5.0824 8.73838 5.16357 8.53743 5.30881 8.38699C5.45405 8.23655 5.65202 8.14835 5.861 8.14099H11.883C11.9889 8.14099 12.0938 8.16187 12.1917 8.20244C12.2895 8.24301 12.3784 8.30247 12.4533 8.37742C12.5281 8.45237 12.5875 8.54134 12.6279 8.63924C12.6684 8.73715 12.6891 8.84206 12.689 8.94799H12.694Z" fill="black"/>
</svg>
