<svg id="Layer_1" data-name="Layer 1" xmlns="http://www.w3.org/2000/svg" viewBox="0 0 16 16"><title>outlined-video-file</title><path d="M9.965,0H2.47A.805.805,0,0,0,1.665.8V15.2A.805.805,0,0,0,2.47,16h11.3a.8.8,0,0,0,.8-.805V4.149ZM12.53,4.154l-2.453.007h0a.118.118,0,0,1-.118-.118l0-2.2Zm.7,10.5H3.015V1.349h5.6l0,2.691a1.468,1.468,0,0,0,1.473,1.471L13.225,5.5Z"/><path d="M7.9,13.146a3.483,3.483,0,1,1,3.483-3.483A3.491,3.491,0,0,1,7.9,13.146Zm0-6.179a2.7,2.7,0,1,0,2.7,2.7A2.688,2.688,0,0,0,7.9,6.967Z"/><path d="M9.387,9.43,7.175,7.905a.284.284,0,0,0-.445.234v3.047a.284.284,0,0,0,.445.234L9.387,9.9A.283.283,0,0,0,9.387,9.43ZM7.38,10.49V8.837l1.2.826Z"/></svg>