<svg id="Layer_1" data-name="Layer 1" xmlns="http://www.w3.org/2000/svg" viewBox="0 0 16 16"><title>outlined-music-file</title><path d="M9.915,0H2.42a.8.8,0,0,0-.8.805V15.2A.8.8,0,0,0,2.42,16h11.3a.8.8,0,0,0,.8-.805V4.149Zm2.564,4.155-2.452.007h0a.118.118,0,0,1-.118-.118l0-2.2Zm.7,10.5H2.965V1.349h5.6L8.558,4.04A1.468,1.468,0,0,0,10.03,5.511L13.175,5.5Z"/><path d="M10.641,7.212A.646.646,0,0,0,10,6.566l-2.954.723a.645.645,0,0,0-.489.626v2.653a1.277,1.277,0,0,0-.451-.091,1.3,1.3,0,1,0,1.3,1.3,1.081,1.081,0,0,0-.033-.162c.011.009.023.024.033.032V8.3L9.792,7.7v2.06a1.3,1.3,0,1,0,.841,1.211l.008,0ZM6.1,12.329a.551.551,0,1,1,.551-.551A.552.552,0,0,1,6.1,12.329Zm3.23-.813a.551.551,0,1,1,.551-.551A.551.551,0,0,1,9.333,11.516Z"/></svg>