<svg width="17" height="16" viewBox="0 0 17 16" fill="none" xmlns="http://www.w3.org/2000/svg">
<path d="M15.991 5.2C15.528 4.866 15.257 4.7 15.257 4.7L8.01599 0.352001L0.773991 4.7C-0.00700879 5.168 0.0559912 5.134 0.0559912 5.134C0.0346571 5.23832 0.0239358 5.34453 0.0239912 5.451L0.0159912 14.051C0.0159912 14.4753 0.184562 14.8823 0.48462 15.1824C0.784679 15.4824 1.19164 15.651 1.61599 15.651H14.416C14.6261 15.651 14.8342 15.6096 15.0283 15.5292C15.2224 15.4488 15.3988 15.3309 15.5474 15.1824C15.6959 15.0338 15.8138 14.8574 15.8942 14.6633C15.9746 14.4692 16.016 14.2611 16.016 14.051V5.451C16.014 5.36682 16.0057 5.28292 15.991 5.2ZM4.37599 10.66L1.61599 12.316V8.072L4.37599 10.66ZM8.01599 10.341L14.193 14.048H1.83599L8.01599 10.341ZM11.616 10.641L14.416 8.017V12.317L11.616 10.641ZM14.35 6.029L10.287 9.838L8.01599 8.476L5.70699 9.861L1.64399 6.052L8.01599 2.217L14.35 6.029Z" fill="black"/>
</svg>
