<svg width="16" height="16" viewBox="0 0 16 16" fill="none" xmlns="http://www.w3.org/2000/svg">
<path d="M11.5784 2.96945C11.8766 2.96307 12.173 3.01721 12.4497 3.12861C12.7264 3.24001 12.9777 3.40636 13.1883 3.6176C13.3989 3.82883 13.5645 4.08058 13.675 4.35761C13.7856 4.63465 13.8388 4.93122 13.8315 5.22941C13.8315 7.23858 11.5348 9.37463 8.00699 12.5812C4.48513 9.38256 2.17456 7.24155 2.17456 5.22941C2.16724 4.93088 2.22059 4.63397 2.33139 4.35666C2.44218 4.07936 2.60812 3.82743 2.81914 3.61613C3.03016 3.40484 3.28188 3.23858 3.55905 3.12742C3.83621 3.01626 4.13306 2.96252 4.43161 2.96945C4.80535 2.97516 5.17367 3.0598 5.51241 3.21781C5.85116 3.37581 6.15269 3.60363 6.39722 3.88632L8.00303 5.76961L9.60882 3.88632C9.85381 3.60314 10.156 3.37503 10.4954 3.217C10.8349 3.05897 11.204 2.97461 11.5784 2.96945ZM11.5784 0.860166C10.8997 0.866205 10.2301 1.0174 9.61459 1.30359C8.99911 1.58978 8.45199 2.00434 8.00996 2.51945C7.56685 2.00309 7.01813 1.58778 6.40083 1.30154C5.78354 1.0153 5.11202 0.864793 4.43161 0.860166C3.85746 0.855142 3.28805 0.964521 2.75663 1.18192C2.22521 1.39932 1.74241 1.72038 1.33641 2.12637C0.930408 2.53236 0.609337 3.01514 0.391934 3.54655C0.17453 4.07796 0.0651489 4.64734 0.0701729 5.22148C0.0701729 8.22186 2.76831 10.6662 6.85617 14.3723L8.00699 15.42L9.15781 14.3802C13.2417 10.6701 15.9398 8.22582 15.9398 5.22941C15.9449 4.65527 15.8355 4.08589 15.6181 3.55448C15.4007 3.02307 15.0796 2.54029 14.6736 2.1343C14.2676 1.72831 13.7848 1.40724 13.2534 1.18985C12.722 0.97245 12.1526 0.863072 11.5784 0.868096V0.860166Z" fill="black"/>
</svg>
