<svg id="Layer_1" data-name="Layer 1" xmlns="http://www.w3.org/2000/svg" viewBox="0 0 16 16"><title>outlined-video-file</title><path d="M8,6.266A3.714,3.714,0,1,0,11.714,9.98,3.723,3.723,0,0,0,8,6.266Zm0,6.495A2.781,2.781,0,1,1,10.781,9.98,2.772,2.772,0,0,1,8,12.761ZM7.23,8.122a.3.3,0,0,0-.47.247V11.59a.3.3,0,0,0,.47.247l2.338-1.61a.3.3,0,0,0,0-.494Zm.236,2.711V9.127l1.239.853Z"/><path d="M10.061,0H2.508A1.087,1.087,0,0,0,1.422,1.083V14.93a1.087,1.087,0,0,0,1.086,1.087H13.492a1.087,1.087,0,0,0,1.086-1.087V4.229ZM9.8,1.8l2.52,2.362H9.965A.17.17,0,0,1,9.8,4ZM2.922,14.517V1.5H8.3V4a1.672,1.672,0,0,0,1.67,1.67h3.113v8.852Z"/></svg>