<svg width="16" height="16" viewBox="0 0 16 16" fill="none" xmlns="http://www.w3.org/2000/svg">
<path d="M16 3.2V4.8H0.0100011V3.2C0.00787965 2.99013 0.0474841 2.78194 0.126513 2.58752C0.205542 2.39309 0.322421 2.21631 0.470357 2.06744C0.618294 1.91858 0.794339 1.80059 0.988265 1.72035C1.18219 1.6401 1.39013 1.59919 1.6 1.6H14.4C14.6104 1.59894 14.8189 1.6396 15.0135 1.71963C15.2081 1.79966 15.3849 1.91748 15.5337 2.06626C15.6825 2.21505 15.8003 2.39185 15.8804 2.58645C15.9604 2.78105 16.0011 2.98958 16 3.2ZM0.0100011 6.4H16V12.8C16.0011 13.0104 15.9604 13.2189 15.8804 13.4135C15.8003 13.6081 15.6825 13.7849 15.5337 13.9337C15.3849 14.0825 15.2081 14.2003 15.0135 14.2804C14.8189 14.3604 14.6104 14.4011 14.4 14.4H1.6C1.38959 14.4011 1.18106 14.3604 0.986456 14.2804C0.791856 14.2003 0.615052 14.0825 0.466267 13.9337C0.317482 13.7849 0.199667 13.6081 0.119635 13.4135C0.0396027 13.2189 -0.0010589 13.0104 1.13056e-06 12.8L0.0100011 6.4ZM9.6 10.4C9.6 10.6122 9.68429 10.8157 9.83432 10.9657C9.98434 11.1157 10.1878 11.2 10.4 11.2H12C12.2122 11.2 12.4157 11.1157 12.5657 10.9657C12.7157 10.8157 12.8 10.6122 12.8 10.4C12.8 10.1878 12.7157 9.98434 12.5657 9.83431C12.4157 9.68428 12.2122 9.6 12 9.6H10.4C10.1878 9.6 9.98434 9.68428 9.83432 9.83431C9.68429 9.98434 9.6 10.1878 9.6 10.4Z" fill="black"/>
</svg>
