<svg width="16" height="16" viewBox="0 0 16 16" fill="none" xmlns="http://www.w3.org/2000/svg">
<path d="M8 2.044C9.17933 2.03767 10.334 2.38159 11.3177 3.03218C12.3013 3.68277 13.0697 4.61074 13.5254 5.69848C13.9811 6.78622 14.1036 7.98477 13.8774 9.14222C13.6512 10.2997 13.0865 11.3639 12.2549 12.2001C11.4232 13.0363 10.362 13.6067 9.20578 13.8391C8.04957 14.0715 6.85038 13.9555 5.76019 13.5056C4.67001 13.0558 3.73791 12.2924 3.08204 11.3123C2.42616 10.3321 2.07602 9.17935 2.076 8C2.07361 6.42518 2.69595 4.9137 3.80652 3.79714C4.91709 2.68057 6.42519 2.05009 8 2.044ZM8 0.459004C6.50681 0.450886 5.04483 0.886248 3.79934 1.70991C2.55384 2.53358 1.58092 3.70846 1.00386 5.08567C0.426811 6.46287 0.271612 7.98039 0.557937 9.44589C0.844261 10.9114 1.55922 12.2589 2.6122 13.3176C3.66517 14.3764 5.00876 15.0987 6.47268 15.393C7.9366 15.6873 9.45494 15.5404 10.8353 14.9708C12.2156 14.4013 13.3958 13.4348 14.2262 12.1938C15.0567 10.9528 15.5 9.49321 15.5 8C15.5053 6.00548 14.7182 4.09053 13.3117 2.67634C11.9052 1.26216 9.99452 0.464566 8 0.459004ZM4.788 7C5.00137 7.0002 5.20988 7.06365 5.38719 7.18233C5.5645 7.30102 5.70264 7.4696 5.78416 7.66678C5.86567 7.86396 5.88689 8.08088 5.84515 8.29012C5.8034 8.49936 5.70056 8.69153 5.54962 8.84233C5.39868 8.99313 5.20642 9.09579 4.99714 9.13734C4.78786 9.1789 4.57096 9.15747 4.37386 9.07578C4.17675 8.99408 4.0083 8.85578 3.88978 8.67836C3.77126 8.50094 3.708 8.29237 3.708 8.079C3.708 7.93722 3.73594 7.79683 3.79023 7.66586C3.84452 7.53488 3.92409 7.41589 4.02439 7.31568C4.12469 7.21548 4.24375 7.13602 4.37478 7.08185C4.50581 7.02769 4.64622 6.99987 4.788 7ZM8 7C8.21341 7 8.42202 7.06329 8.59946 7.18185C8.7769 7.30041 8.9152 7.46893 8.99687 7.66609C9.07854 7.86325 9.0999 8.0802 9.05827 8.28951C9.01664 8.49881 8.91387 8.69107 8.76297 8.84197C8.61207 8.99287 8.41981 9.09564 8.21051 9.13727C8.0012 9.17891 7.78425 9.15754 7.58709 9.07587C7.38993 8.9942 7.22141 8.85591 7.10285 8.67846C6.98428 8.50102 6.921 8.29241 6.921 8.079C6.921 7.93731 6.94891 7.797 7.00314 7.66609C7.05736 7.53518 7.13684 7.41623 7.23703 7.31604C7.33723 7.21584 7.45618 7.13636 7.58709 7.08214C7.718 7.02791 7.85831 7 8 7ZM11.212 7C11.4254 7 11.634 7.06329 11.8115 7.18185C11.9889 7.30041 12.1272 7.46893 12.2089 7.66609C12.2905 7.86325 12.3119 8.0802 12.2703 8.28951C12.2286 8.49881 12.1259 8.69107 11.975 8.84197C11.8241 8.99287 11.6318 9.09564 11.4225 9.13727C11.2132 9.17891 10.9962 9.15754 10.7991 9.07587C10.6019 8.9942 10.4334 8.85591 10.3148 8.67846C10.1963 8.50102 10.133 8.29241 10.133 8.079C10.1333 7.79292 10.247 7.51862 10.4493 7.31633C10.6516 7.11403 10.9259 7.00027 11.212 7Z" fill="black"/>
</svg>
