<svg width="16" height="17" viewBox="0 0 16 17" fill="none" xmlns="http://www.w3.org/2000/svg">
<path d="M8 6.266C7.26544 6.266 6.54737 6.48382 5.93661 6.89192C5.32585 7.30002 4.84981 7.88007 4.56871 8.55871C4.2876 9.23736 4.21406 9.98412 4.35736 10.7046C4.50067 11.425 4.85439 12.0868 5.3738 12.6062C5.89321 13.1256 6.55499 13.4793 7.27543 13.6226C7.99588 13.7659 8.74264 13.6924 9.42128 13.4113C10.0999 13.1302 10.68 12.6542 11.0881 12.0434C11.4962 11.4326 11.714 10.7146 11.714 9.98C11.7116 8.99572 11.3196 8.05243 10.6236 7.35643C9.92757 6.66043 8.98428 6.26838 8 6.266ZM8 12.761C7.44997 12.761 6.91229 12.5979 6.45496 12.2923C5.99762 11.9867 5.64118 11.5524 5.43069 11.0442C5.2202 10.5361 5.16513 9.97692 5.27243 9.43745C5.37974 8.89799 5.6446 8.40247 6.03353 8.01354C6.42246 7.62461 6.91799 7.35974 7.45745 7.25244C7.99691 7.14513 8.55608 7.2002 9.06424 7.41069C9.5724 7.62118 10.0067 7.97763 10.3123 8.43496C10.6179 8.89229 10.781 9.42997 10.781 9.98C10.7822 10.3455 10.7111 10.7077 10.5717 11.0456C10.4324 11.3836 10.2276 11.6906 9.96911 11.9491C9.71063 12.2076 9.40359 12.4124 9.06564 12.5517C8.7277 12.6911 8.36554 12.7622 8 12.761ZM7.23 8.122C7.18497 8.09103 7.13233 8.07295 7.07778 8.06971C7.02322 8.06647 6.96881 8.0782 6.92044 8.10362C6.87206 8.12905 6.83154 8.1672 6.80327 8.21397C6.77499 8.26074 6.76003 8.31435 6.76 8.369V11.59C6.76003 11.6447 6.77499 11.6983 6.80327 11.745C6.83154 11.7918 6.87206 11.83 6.92044 11.8554C6.96881 11.8808 7.02322 11.8925 7.07778 11.8893C7.13233 11.8861 7.18497 11.868 7.23 11.837L9.568 10.227C9.60801 10.1994 9.64072 10.1625 9.66332 10.1195C9.68592 10.0765 9.69773 10.0286 9.69773 9.98C9.69773 9.9314 9.68592 9.88353 9.66332 9.8405C9.64072 9.79748 9.60801 9.76058 9.568 9.733L7.23 8.122ZM7.466 10.833V9.127L8.705 9.98L7.466 10.833Z" fill="black"/>
<path d="M10.061 0H2.508C2.22057 0.000262475 1.94495 0.114353 1.74143 0.317312C1.53791 0.520271 1.42305 0.795576 1.422 1.083V14.93C1.422 15.2181 1.53638 15.4944 1.74002 15.6983C1.94365 15.9021 2.21988 16.0167 2.508 16.017H13.492C13.7801 16.0167 14.0563 15.9021 14.26 15.6983C14.4636 15.4944 14.578 15.2181 14.578 14.93V4.229L10.061 0ZM9.8 1.8L12.32 4.162H9.965C9.92213 4.16079 9.88131 4.14342 9.85071 4.11337C9.82011 4.08333 9.802 4.04284 9.8 4V1.8ZM2.922 14.517V1.5H8.3V4C8.30053 4.44275 8.47664 4.86721 8.78971 5.18028C9.10279 5.49335 9.52725 5.66947 9.97 5.67H13.083V14.522L2.922 14.517Z" fill="black"/>
</svg>
