<svg width="16" height="17" viewBox="0 0 16 17" fill="none" xmlns="http://www.w3.org/2000/svg">
<path d="M7.984 2.13901C8.79872 2.138 9.5969 2.36884 10.2853 2.80456C10.9737 3.24029 11.5239 3.86291 11.8717 4.59969C12.2194 5.33647 12.3503 6.15699 12.2491 6.9654C12.1478 7.7738 11.8187 8.53671 11.3 9.16501L7.984 13.181L4.672 9.16501C4.15356 8.53698 3.82444 7.77443 3.72307 6.96639C3.62169 6.15835 3.75225 5.33814 4.09949 4.6015C4.44674 3.86487 4.99634 3.2422 5.68416 2.80617C6.37198 2.37015 7.16963 2.13875 7.984 2.13901ZM7.984 6.40716e-06C7.13919 -0.00105625 6.30249 0.164839 5.522 0.488158C4.7415 0.811477 4.03259 1.28585 3.436 1.88401C2.30485 3.01515 1.63572 4.52716 1.55918 6.12501C1.48263 7.72286 2.00416 9.29191 3.022 10.526L7.984 16.541L12.947 10.526C13.9648 9.29191 14.4864 7.72286 14.4098 6.12501C14.3333 4.52716 13.6642 3.01515 12.533 1.88401C11.9363 1.28573 11.2272 0.811289 10.4465 0.487966C9.66587 0.164643 8.82898 -0.00118807 7.984 6.40716e-06Z" fill="black"/>
<path d="M7.984 8.53601C7.58844 8.53601 7.20176 8.41871 6.87286 8.19895C6.54396 7.97918 6.28762 7.66683 6.13624 7.30137C5.98487 6.93592 5.94526 6.53379 6.02243 6.14583C6.0996 5.75786 6.29008 5.4015 6.56979 5.12179C6.84949 4.84209 7.20586 4.65161 7.59382 4.57444C7.98178 4.49727 8.38392 4.53687 8.74937 4.68825C9.11482 4.83962 9.42718 5.09597 9.64694 5.42487C9.8667 5.75376 9.984 6.14044 9.984 6.53601C9.984 7.06644 9.77329 7.57515 9.39822 7.95022C9.02314 8.32529 8.51444 8.53601 7.984 8.53601Z" fill="black"/>
</svg>
