<svg width="16" height="17" viewBox="0 0 16 17" fill="none" xmlns="http://www.w3.org/2000/svg">
<path d="M7.994 0.970993C6.41294 0.970993 4.86738 1.43983 3.55278 2.31823C2.23817 3.19662 1.21356 4.44511 0.608511 5.90582C0.00346369 7.36653 -0.154844 8.97386 0.153606 10.5245C0.462056 12.0752 1.22341 13.4996 2.34139 14.6176C3.45937 15.7356 4.88377 16.4969 6.43445 16.8054C7.98514 17.1138 9.59246 16.9555 11.0532 16.3505C12.5139 15.7454 13.7624 14.7208 14.6408 13.4062C15.5192 12.0916 15.988 10.5461 15.988 8.96499C15.988 7.91521 15.7812 6.8757 15.3795 5.90582C14.9778 4.93594 14.3889 4.05469 13.6466 3.31238C12.9043 2.57007 12.0231 1.98124 11.0532 1.5795C10.0833 1.17776 9.04379 0.970993 7.994 0.970993ZM7.994 15.288C6.74343 15.288 5.52095 14.9172 4.48113 14.2224C3.44132 13.5276 2.63089 12.5401 2.15231 11.3847C1.67374 10.2293 1.54852 8.95798 1.7925 7.73144C2.03647 6.50489 2.63868 5.37824 3.52297 4.49396C4.40725 3.60967 5.53391 3.00746 6.76045 2.76349C7.98699 2.51951 9.25833 2.64473 10.4137 3.1233C11.5691 3.60188 12.5566 4.41231 13.2514 5.45212C13.9462 6.49193 14.317 7.71442 14.317 8.96499C14.3167 10.6419 13.6505 12.25 12.4647 13.4357C11.279 14.6215 9.67089 15.2877 7.994 15.288ZM11.794 8.94799C11.794 9.16176 11.7091 9.36677 11.5579 9.51792C11.4068 9.66908 11.2018 9.75399 10.988 9.75399H4.961C4.75202 9.74663 4.55406 9.65844 4.40882 9.508C4.26358 9.35755 4.18241 9.1566 4.18241 8.94749C4.18241 8.73838 4.26358 8.53743 4.40882 8.38699C4.55406 8.23655 4.75202 8.14835 4.961 8.14099H10.983C11.0889 8.14099 11.1938 8.16187 11.2917 8.20244C11.3895 8.24301 11.4784 8.30247 11.5533 8.37742C11.6281 8.45237 11.6875 8.54134 11.7279 8.63924C11.7684 8.73715 11.7891 8.84206 11.789 8.94799H11.794Z" fill="black"/>
</svg>
