<svg width="16" height="17" viewBox="0 0 16 17" fill="none" xmlns="http://www.w3.org/2000/svg">
<path d="M10.061 0H2.50801C2.22031 0.000262478 1.94444 0.114458 1.74073 0.317605C1.53702 0.520752 1.42206 0.796311 1.42101 1.084V14.932C1.42153 15.2201 1.53623 15.4963 1.73996 15.7C1.9437 15.9038 2.21988 16.0185 2.50801 16.019H13.492C13.78 16.0185 14.0561 15.9037 14.2597 15.7C14.4633 15.4962 14.5777 15.22 14.578 14.932V4.23L10.061 0ZM9.794 1.8L12.315 4.162H9.964C9.92027 4.16205 9.8782 4.14524 9.84654 4.11507C9.81488 4.0849 9.79606 4.04369 9.794 4V1.8ZM2.92101 14.519V1.5H8.294V4C8.29453 4.44275 8.47065 4.86721 8.78372 5.18028C9.09679 5.49335 9.52126 5.66947 9.964 5.67H13.078V14.523L2.92101 14.519Z" fill="black"/>
</svg>
