<svg id="Layer_1" data-name="Layer 1" xmlns="http://www.w3.org/2000/svg" viewBox="0 0 16 16"><title>outlined-heart</title><g opacity="0.008"><rect x="-1.645" y="-1.645" width="19.29" height="19.29"/><rect x="-6.467" y="-6.467" width="19.29" height="19.29"/></g><g opacity="0.008"><rect x="-1.645" y="-1.645" width="19.29" height="19.29"/><rect x="-6.467" y="-6.467" width="19.29" height="19.29"/></g><path d="M8.08,13.264,8,13.345l-.08-.081C4.094,9.8,1.57,7.51,1.57,5.187A2.747,2.747,0,0,1,4.383,2.374a3.143,3.143,0,0,1,2.87,1.9h1.5a3.121,3.121,0,0,1,2.861-1.9A2.747,2.747,0,0,1,14.43,5.187C14.43,7.51,11.906,9.8,8.08,13.264ZM11.617.766A4.812,4.812,0,0,0,8,2.446,4.812,4.812,0,0,0,4.383.766,4.378,4.378,0,0,0-.037,5.187c0,3.038,2.732,5.514,6.872,9.275L8,15.515l1.165-1.061c4.14-3.753,6.872-6.229,6.872-9.267A4.378,4.378,0,0,0,11.617.766Z"/></svg>