<svg width="16" height="16" viewBox="0 0 16 16" fill="none" xmlns="http://www.w3.org/2000/svg">
<path d="M11.907 16H2.34902C1.92468 16 1.51771 15.8314 1.21765 15.5314C0.917594 15.2313 0.749023 14.8243 0.749023 14.4V3.385H2.24902V14.407C2.24902 14.4335 2.25956 14.459 2.27831 14.4777C2.29707 14.4965 2.3225 14.507 2.34902 14.507H11.907V16ZM15.242 4.23V11.763C15.2418 12.0509 15.1273 12.327 14.9236 12.5306C14.72 12.7342 14.444 12.8487 14.156 12.849H5.00002C4.71208 12.8487 4.43601 12.7342 4.2324 12.5306C4.02879 12.327 3.91429 12.0509 3.91402 11.763L3.90602 1.084C3.90708 0.796311 4.02204 0.520752 4.22575 0.317605C4.42946 0.114458 4.70533 0.000262478 4.99302 0L10.724 0L15.242 4.23ZM10.458 4C10.458 4.04509 10.4759 4.08833 10.5078 4.12021C10.5397 4.15209 10.5829 4.17 10.628 4.17H12.979L10.458 1.8V4ZM13.747 11.353V5.67H10.628C10.1853 5.66947 9.76081 5.49335 9.44774 5.18028C9.13467 4.86721 8.95855 4.44275 8.95802 4V1.5H5.40602L5.41202 11.351L13.747 11.353Z" fill="black"/>
</svg>
