<svg id="Layer_1" data-name="Layer 1" xmlns="http://www.w3.org/2000/svg" viewBox="0 0 16 16">
  <path d="M7.217,7.134v.538a.3.3,0,0,1-.307.307A.31.31,0,0,1,6.6,7.71H6.238V9.265a.31.31,0,0,1,.269.307.3.3,0,0,1-.307.307H5.662a.3.3,0,0,1-.307-.307.31.31,0,0,1,.269-.307V7.71H5.163a.291.291,0,0,1-.288.269.3.3,0,0,1-.307-.307V7.134a.3.3,0,0,1,.307-.307.31.31,0,0,1,.307.269h1.44a.31.31,0,0,1,.307-.269A.314.314,0,0,1,7.217,7.134Zm4.272.742a.443.443,0,0,0-.443-.442H8.366a.443.443,0,0,0,0,.885h2.68A.443.443,0,0,0,11.489,7.876Zm0,1.542a.443.443,0,0,0-.443-.443H8.366a.443.443,0,0,0,0,.885h2.68A.443.443,0,0,0,11.489,9.418Zm0,1.542a.444.444,0,0,0-.443-.443H4.954a.443.443,0,0,0,0,.886h6.092A.444.444,0,0,0,11.489,10.96Zm0,1.541a.444.444,0,0,0-.443-.443H4.954a.443.443,0,0,0,0,.886h6.092A.444.444,0,0,0,11.489,12.5Zm3.089-8.272v10.7a1.087,1.087,0,0,1-1.086,1.087H2.508A1.087,1.087,0,0,1,1.422,14.93V1.083A1.087,1.087,0,0,1,2.508,0h7.553ZM9.8,4a.17.17,0,0,0,.17.17h2.35L9.8,1.8Zm3.283,10.522V5.665H9.965A1.672,1.672,0,0,1,8.3,4V1.5H2.922v13.02Z"/>
</svg>
