<svg width="17" height="16" viewBox="0 0 17 16" fill="none" xmlns="http://www.w3.org/2000/svg">
<path d="M13.657 2.343C12.5382 1.22422 11.1127 0.46234 9.56086 0.153691C8.00902 -0.154957 6.40051 0.00349361 4.93873 0.609007C3.47694 1.21452 2.22754 2.2399 1.3485 3.55548C0.469471 4.87107 0.000289917 6.41777 0.000289917 8C0.000289917 9.58224 0.469471 11.1289 1.3485 12.4445C2.22754 13.7601 3.47694 14.7855 4.93873 15.391C6.40051 15.9965 8.00902 16.155 9.56086 15.8463C11.1127 15.5377 12.5382 14.7758 13.657 13.657C14.4028 12.9157 14.9946 12.0343 15.3985 11.0635C15.8024 10.0926 16.0103 9.05151 16.0103 8C16.0103 6.9485 15.8024 5.90737 15.3985 4.93653C14.9946 3.96568 14.4028 3.08427 13.657 2.343ZM12.041 12.043C11.1061 12.9786 9.87566 13.5611 8.55941 13.6912C7.24317 13.8213 5.92252 13.491 4.8225 12.7566C3.72249 12.0222 2.91116 10.929 2.52676 9.66344C2.14236 8.39787 2.20868 7.03816 2.71441 5.816C3.22014 4.59384 4.134 3.58485 5.30027 2.96094C6.46653 2.33703 7.81305 2.13682 9.11039 2.39441C10.4077 2.652 11.5756 3.35146 12.4151 4.3736C13.2545 5.39575 13.7135 6.67734 13.714 8C13.716 8.75071 13.5692 9.49437 13.282 10.188C12.9949 10.8816 12.5731 11.5114 12.041 12.041V12.043ZM11.232 6.386L9.616 8L11.232 9.616L9.616 11.232L8 9.616L6.384 11.232L4.768 9.616L6.384 8L4.768 6.384L6.384 4.768L8 6.384L9.616 4.768L11.232 6.386Z" fill="black"/>
</svg>
