<svg id="Layer_1" data-name="Layer 1" xmlns="http://www.w3.org/2000/svg" viewBox="0 0 24 24">
  <title>outlined-credit-card</title>
  <rect x="3" y="5" width="17" height="13"/>
  <g opacity="0.008">
    <rect width="24" height="24"/>
    <rect x="-6" y="-6" width="24" height="24"/>
  </g>
  <path d="M20,8H4V6H20Zm0,10H4V12H20ZM20,4H4A1.985,1.985,0,0,0,2.01,6L2,18a1.993,1.993,0,0,0,2,2H20a1.993,1.993,0,0,0,2-2V6A1.993,1.993,0,0,0,20,4Z"/>
  <rect x="14" y="14" width="4" height="2" rx="1" ry="1" fill="#fff"/>
  <rect x="2" y="8" width="20" height="2" fill="#fff"/>
</svg>
