<svg id="Layer_1" data-name="Layer 1" xmlns="http://www.w3.org/2000/svg" viewBox="0 0 15.86 15.86"><title>outlined-video-file</title><path d="M9.94.2H2.45A.81.81,0,0,0,1.64,1V15.4a.8.8,0,0,0,.81.8h11.3a.8.8,0,0,0,.8-.8v-11Zm2.57,4.16H10.05a.11.11,0,0,1-.11-.11V2.05Zm.69,10.49H3V1.55h5.6V4.24a1.47,1.47,0,0,0,1.47,1.47H13.2Z"/><path d="M10.89,10.39a1.06,1.06,0,0,0-1-.46,4,4,0,0,0-.7.06,8.43,8.43,0,0,1-1-1.54c.31-1.31.12-1.73-.05-1.94a.76.76,0,0,0-.58-.27.93.93,0,0,0-.27,0,.79.79,0,0,0-.52.49A2.39,2.39,0,0,0,7,8.57a18.08,18.08,0,0,1-.84,2.36c-1,.48-1.5,1-1.57,1.48a1,1,0,0,0,.41.87.71.71,0,0,0,.44.15,1.26,1.26,0,0,0,1-.66,7.32,7.32,0,0,0,.57-1,11.75,11.75,0,0,1,1.82-.6,1.75,1.75,0,0,0,1.14.53,1,1,0,0,0,.82-.44A.79.79,0,0,0,10.89,10.39Zm-.73.45A.22.22,0,0,1,10,11a.9.9,0,0,1-.5-.24,3.82,3.82,0,0,1,.43,0,.81.81,0,0,1,.33.05A.21.21,0,0,1,10.16,10.84ZM5.34,12.51c0-.14.23-.38.75-.68-.39.73-.6.83-.64.84S5.34,12.52,5.34,12.51ZM7.5,7.82a1.24,1.24,0,0,1-.08-.75s0-.06.06-.06h0A1.8,1.8,0,0,1,7.5,7.82Zm.13,1.27a9.13,9.13,0,0,0,.94,1.37A11.44,11.44,0,0,0,7,11,16.13,16.13,0,0,0,7.63,9.09Z"/></svg>