<svg id="Layer_1" data-name="Layer 1" xmlns="http://www.w3.org/2000/svg" viewBox="0 0 16 16"><title>outlined-text-file</title><path d="M7.186,7.212v.515a.291.291,0,0,1-.295.295A.3.3,0,0,1,6.6,7.764h-.35V9.255a.3.3,0,0,1,.258.295.29.29,0,0,1-.295.294H5.7A.29.29,0,0,1,5.4,9.55a.3.3,0,0,1,.258-.295V7.764H5.216a.28.28,0,0,1-.276.258.291.291,0,0,1-.3-.295V7.212a.291.291,0,0,1,.3-.295.3.3,0,0,1,.294.258H6.615a.286.286,0,0,1,.571.037Z"/><path d="M10.859,8.348H8.289a.425.425,0,1,1,0-.849h2.57a.425.425,0,1,1,0,.849Z"/><path d="M10.859,9.827H8.289a.425.425,0,0,1,0-.85h2.57a.425.425,0,1,1,0,.85Z"/><path d="M10.859,11.306H5.016a.425.425,0,1,1,0-.849h5.843a.425.425,0,1,1,0,.849Z"/><path d="M10.859,12.785H5.016a.425.425,0,0,1,0-.85h5.843a.425.425,0,1,1,0,.85Z"/><path d="M9.885,0H2.39A.8.8,0,0,0,1.585.8V15.2A.8.8,0,0,0,2.39,16h11.3a.805.805,0,0,0,.8-.805V4.149Zm2.564,4.155L10,4.161h0a.118.118,0,0,1-.118-.118l0-2.2Zm.7,10.5H2.935V1.349h5.6l0,2.691A1.468,1.468,0,0,0,10,5.511L13.145,5.5Z"/></svg>