<svg width="16" height="16" viewBox="0 0 16 16" fill="none" xmlns="http://www.w3.org/2000/svg">
<path d="M12.061 6.23099L7.08001 11.239L7.03001 11.291L3.97101 8.21299L5.14501 7.03299L7.03101 8.93299L10.887 5.05399L12.061 6.23099ZM15.85 7.99999C15.8415 9.54755 15.3749 11.0579 14.5089 12.3405C13.6429 13.6232 12.4165 14.6206 10.9843 15.2069C9.55208 15.7933 7.97829 15.9423 6.46149 15.6352C4.94468 15.3281 3.55282 14.5786 2.46152 13.4813C1.37021 12.384 0.628353 10.988 0.329545 9.46958C0.0307375 7.95112 0.188367 6.37817 0.782547 4.9492C1.37673 3.52022 2.38083 2.29925 3.66818 1.44033C4.95553 0.581401 6.46843 0.123009 8.01601 0.122986C9.04771 0.125477 10.0688 0.331235 11.0209 0.728502C11.9731 1.12577 12.8376 1.70676 13.5651 2.43827C14.2927 3.16979 14.8689 4.03748 15.261 4.99179C15.653 5.94609 15.8532 6.96829 15.85 7.99999ZM14.2 7.99999C14.1935 6.7775 13.825 5.58433 13.1411 4.57105C12.4571 3.55777 11.4884 2.76978 10.3571 2.30651C9.22573 1.84324 7.98253 1.72545 6.78433 1.96801C5.58613 2.21057 4.48662 2.80261 3.62455 3.66942C2.76248 4.53622 2.17648 5.63896 1.94049 6.83847C1.7045 8.03798 1.8291 9.28051 2.29856 10.4093C2.76802 11.5381 3.56131 12.5025 4.57833 13.1809C5.59534 13.8592 6.79051 14.2212 8.01301 14.221C9.65793 14.2149 11.2332 13.5564 12.3932 12.3901C13.5531 11.2238 14.2029 9.64491 14.2 7.99999Z" fill="black"/>
</svg>
