<svg width="16" height="16" viewBox="0 0 16 16" fill="none" xmlns="http://www.w3.org/2000/svg">
<path d="M14.4 1.6H1.6C1.17704 1.60212 0.772127 1.77162 0.473797 2.07145C0.175467 2.37128 0.00799471 2.77704 0.008 3.2L0 12.8C0 13.2243 0.168571 13.6313 0.468629 13.9314C0.768687 14.2314 1.17565 14.4 1.6 14.4H14.4C14.8243 14.4 15.2313 14.2314 15.5314 13.9314C15.8314 13.6313 16 13.2243 16 12.8V3.2C16 2.77565 15.8314 2.36869 15.5314 2.06863C15.2313 1.76857 14.8243 1.6 14.4 1.6ZM14.4 3.2V3.994L8 7.834L1.6 3.994V3.2H14.4ZM1.6 12.8V5.859L8 9.7L14.4 5.859V12.8H1.6Z" fill="black"/>
</svg>
