<svg width="16" height="16" viewBox="0 0 16 16" fill="none" xmlns="http://www.w3.org/2000/svg">
<path d="M8 2.286C9.13013 2.286 10.2349 2.62112 11.1745 3.24898C12.1142 3.87685 12.8466 4.76925 13.2791 5.81335C13.7115 6.85744 13.8247 8.00634 13.6042 9.11475C13.3837 10.2232 12.8395 11.2413 12.0404 12.0404C11.2413 12.8395 10.2232 13.3837 9.11475 13.6042C8.00634 13.8247 6.85745 13.7115 5.81335 13.279C4.76925 12.8466 3.87685 12.1142 3.24899 11.1745C2.62112 10.2349 2.286 9.13012 2.286 8C2.28759 6.48504 2.89011 5.03259 3.96135 3.96135C5.03259 2.89011 6.48504 2.28759 8 2.286ZM8 0C6.41775 0 4.87103 0.469192 3.55544 1.34824C2.23985 2.22729 1.21447 3.47672 0.608967 4.93853C0.00346625 6.40034 -0.15496 8.00887 0.153721 9.56072C0.462403 11.1126 1.22433 12.538 2.34315 13.6569C3.46197 14.7757 4.88743 15.5376 6.43928 15.8463C7.99113 16.155 9.59966 15.9965 11.0615 15.391C12.5233 14.7855 13.7727 13.7602 14.6518 12.4446C15.5308 11.129 16 9.58225 16 8C16 5.87827 15.1571 3.84344 13.6569 2.34315C12.1566 0.842855 10.1217 0 8 0V0ZM11.79 9.2L9.143 8.319V4.571H6.857V9.971L11.067 11.371L11.79 9.2Z" fill="black"/>
</svg>
