<svg width="16" height="17" viewBox="0 0 16 17" fill="none" xmlns="http://www.w3.org/2000/svg">
<path d="M7.043 7.289C6.90333 7.32382 6.77931 7.40435 6.6907 7.51779C6.60209 7.63123 6.55397 7.77105 6.554 7.915V10.568C6.41042 10.5106 6.25761 10.4798 6.103 10.477C5.84589 10.477 5.59454 10.5532 5.38076 10.6961C5.16698 10.8389 5.00035 11.042 4.90196 11.2795C4.80356 11.5171 4.77782 11.7784 4.82798 12.0306C4.87814 12.2828 5.00195 12.5144 5.18376 12.6962C5.36557 12.878 5.59721 13.0019 5.84938 13.052C6.10156 13.1022 6.36295 13.0764 6.60049 12.978C6.83803 12.8796 7.04107 12.713 7.18391 12.4992C7.32676 12.2855 7.403 12.0341 7.403 11.777C7.39615 11.7222 7.38512 11.6681 7.37 11.615C7.381 11.624 7.393 11.639 7.403 11.647V8.3L9.792 7.7V9.76C9.53251 9.66208 9.24851 9.64971 8.98149 9.72471C8.71447 9.7997 8.47843 9.95813 8.30788 10.1768C8.13732 10.3956 8.04118 10.6631 8.03351 10.9403C8.02584 11.2176 8.10704 11.49 8.26524 11.7178C8.42345 11.9456 8.65036 12.1169 8.91283 12.2065C9.17529 12.2961 9.45955 12.2995 9.72405 12.2161C9.98856 12.1326 10.2195 11.9668 10.383 11.7428C10.5465 11.5188 10.6341 11.2483 10.633 10.971H10.641V7.212C10.641 7.04153 10.5736 6.87797 10.4536 6.75697C10.3335 6.63596 10.1705 6.56732 10 6.566L7.043 7.289ZM6.103 12.329C5.99402 12.329 5.88749 12.2967 5.79688 12.2361C5.70627 12.1756 5.63565 12.0895 5.59394 11.9889C5.55224 11.8882 5.54133 11.7774 5.56259 11.6705C5.58385 11.5636 5.63633 11.4654 5.71339 11.3884C5.79044 11.3113 5.88862 11.2588 5.99551 11.2376C6.10239 11.2163 6.21318 11.2272 6.31386 11.2689C6.41454 11.3106 6.5006 11.3813 6.56114 11.4719C6.62169 11.5625 6.654 11.669 6.654 11.778C6.65387 11.8506 6.63943 11.9224 6.61151 11.9894C6.58358 12.0564 6.54272 12.1172 6.49126 12.1684C6.43981 12.2196 6.37876 12.2601 6.31163 12.2877C6.24449 12.3152 6.17258 12.3293 6.1 12.329H6.103ZM9.333 11.516C9.22402 11.516 9.11749 11.4837 9.02688 11.4231C8.93627 11.3626 8.86565 11.2765 8.82394 11.1759C8.78224 11.0752 8.77133 10.9644 8.79259 10.8575C8.81385 10.7506 8.86633 10.6524 8.94339 10.5754C9.02044 10.4983 9.11862 10.4458 9.22551 10.4246C9.33239 10.4033 9.44318 10.4142 9.54386 10.4559C9.64454 10.4976 9.7306 10.5683 9.79114 10.6589C9.85169 10.7495 9.884 10.856 9.884 10.965C9.884 11.1111 9.82595 11.2513 9.72262 11.3546C9.61929 11.4579 9.47914 11.516 9.333 11.516ZM10.191 0H2.638C2.35058 0.000262475 2.07495 0.114353 1.87143 0.317312C1.66791 0.520271 1.55306 0.795576 1.552 1.083V14.93C1.552 15.2181 1.66639 15.4944 1.87002 15.6983C2.07366 15.9021 2.34988 16.0167 2.638 16.017H13.623C13.9109 16.0165 14.1869 15.9017 14.3903 15.6979C14.5938 15.4941 14.708 15.2179 14.708 14.93V4.229L10.191 0ZM9.925 1.8L12.446 4.162H10.1C10.0554 4.16336 10.0121 4.14714 9.97933 4.11683C9.94659 4.08653 9.92708 4.04456 9.925 4V1.8ZM13.208 14.514H3.052V1.5H8.425V4C8.42553 4.44275 8.60165 4.86721 8.91472 5.18028C9.22779 5.49335 9.65225 5.66947 10.095 5.67H13.208V14.514Z" fill="black"/>
</svg>
