<svg id="Layer_1" data-name="Layer 1" xmlns="http://www.w3.org/2000/svg" viewBox="0 0 16 16"><title>outlined-dots</title><path d="M8,2.044A5.956,5.956,0,1,1,2.076,8,5.947,5.947,0,0,1,8,2.044M8,.459A7.541,7.541,0,1,0,15.5,8,7.521,7.521,0,0,0,8,.459Z"/><path d="M4.788,7a1.079,1.079,0,1,1-1.08,1.079A1.079,1.079,0,0,1,4.788,7Z" fill-rule="evenodd"/><path d="M8,7A1.079,1.079,0,1,1,6.921,8.079,1.079,1.079,0,0,1,8,7Z" fill-rule="evenodd"/><path d="M11.212,7a1.079,1.079,0,1,1-1.079,1.079A1.08,1.08,0,0,1,11.212,7Z" fill-rule="evenodd"/></svg>