<svg width="16" height="16" viewBox="0 0 16 16" fill="none" xmlns="http://www.w3.org/2000/svg">
<path d="M5.452 5.60799C5.50952 5.55043 5.54184 5.47237 5.54184 5.39099C5.54184 5.30961 5.50952 5.23156 5.452 5.17399L4.732 4.45399C4.67443 4.39647 4.59638 4.36416 4.515 4.36416C4.43362 4.36416 4.35557 4.39647 4.298 4.45399L3.734 5.01699L4.889 6.17199L5.452 5.60799ZM0 8.75099V9.90599H1.154L4.3 6.76499L3.141 5.60999L0 8.75099ZM16 12.364V13.818H4.364V12.364C4.364 10.429 8.24 9.45499 10.182 9.45499C12.124 9.45499 16 10.429 16 12.364ZM7.273 5.09099C7.273 4.51565 7.44361 3.95322 7.76326 3.47484C8.0829 2.99646 8.53722 2.6236 9.06877 2.40343C9.60032 2.18325 10.1852 2.12564 10.7495 2.23789C11.3138 2.35013 11.8321 2.62719 12.239 3.03402C12.6458 3.44085 12.9229 3.95918 13.0351 4.52348C13.1473 5.08777 13.0897 5.67267 12.8696 6.20422C12.6494 6.73577 12.2765 7.19009 11.7982 7.50974C11.3198 7.82938 10.7573 7.99999 10.182 7.99999C9.79995 8.00012 9.42161 7.92497 9.06862 7.77883C8.71562 7.63268 8.39489 7.41841 8.12473 7.14826C7.85458 6.87811 7.64031 6.55737 7.49417 6.20437C7.34802 5.85138 7.27287 5.47305 7.273 5.09099Z" fill="black"/>
</svg>
