<svg width="16" height="16" viewBox="0 0 16 16" fill="none" xmlns="http://www.w3.org/2000/svg">
<path d="M1.19349 4.70143C1.00484 4.33908 0.945899 3.92307 1.02648 3.52257C1.10705 3.12208 1.32229 2.76123 1.63639 2.50003L3.54521 0.91607L3.85595 0.658803C3.98805 0.548914 4.14059 0.46625 4.30477 0.415572C4.46896 0.364894 4.64155 0.347204 4.8126 0.363522C4.98366 0.379839 5.14979 0.429842 5.30143 0.510648C5.45308 0.591454 5.58723 0.701468 5.69617 0.83435L7.1631 2.61403C7.38413 2.88285 7.48983 3.22819 7.45713 3.57467C7.42443 3.92115 7.25598 4.24061 6.98856 4.46333L5.14532 5.99584C6.38048 7.96758 7.86506 9.7716 9.56224 11.3631L11.4004 9.83063C11.5327 9.72084 11.6853 9.63826 11.8496 9.58765C12.0138 9.53703 12.1864 9.51937 12.3575 9.53569C12.5286 9.552 12.6948 9.60196 12.8466 9.6827C12.9983 9.76345 13.1326 9.87338 13.2417 10.0062L14.7066 11.7869C14.9272 12.0558 15.0325 12.4009 14.9996 12.7472C14.9667 13.0934 14.7983 13.4126 14.531 13.6352L14.2213 13.8924L12.3125 15.4774C11.9991 15.7377 11.6055 15.8821 11.1981 15.8861C10.7906 15.8902 10.3943 15.7537 10.0758 15.4996L8.98818 14.6289C6.02097 12.2666 3.58414 9.30626 1.83615 5.94035L1.19349 4.70143Z" fill="black"/>
</svg>
