<svg width="18" height="16" viewBox="0 0 18 16" fill="none" xmlns="http://www.w3.org/2000/svg">
<path d="M11.2 9.38599C9.22801 9.38599 5.29101 10.376 5.29101 12.341V13.818H17.109V12.341C17.109 10.376 13.172 9.38599 11.2 9.38599ZM4.55201 6.43199V4.21599H3.07501V6.43199H0.859009V7.90899H3.07501V10.125H4.55201V7.90899H6.76801V6.43199H4.55201ZM11.2 7.90899C11.7845 7.90899 12.3559 7.73566 12.8418 7.41092C13.3278 7.08617 13.7065 6.62461 13.9302 6.08459C14.1538 5.54458 14.2123 4.95038 14.0982 4.37713C13.9841 3.80389 13.7025 3.27736 13.2892 2.86414C12.8758 2.45092 12.3492 2.16956 11.7759 2.05565C11.2026 1.94175 10.6084 2.00041 10.0685 2.22422C9.52855 2.44803 9.06711 2.82693 8.74253 3.31301C8.41795 3.79909 8.24481 4.37051 8.24501 4.95499C8.24488 5.34304 8.32123 5.72731 8.4697 6.08583C8.61817 6.44435 8.83584 6.77009 9.11028 7.04443C9.38471 7.31878 9.71053 7.53634 10.0691 7.68469C10.4277 7.83304 10.812 7.90926 11.2 7.90899Z" fill="black"/>
</svg>
