<svg width="16" height="16" viewBox="0 0 16 16" fill="none" xmlns="http://www.w3.org/2000/svg">
<path d="M10.1819 9.27236C8.24025 9.27236 4.36382 10.2471 4.36382 12.1819V13.6362H16V12.1819C16 10.2471 12.1236 9.27236 10.1819 9.27236ZM3.63618 6.3638V4.18189H2.18191V6.3638H0V7.81808H2.18191V9.99999H3.63618V7.81808H5.81809V6.3638H3.63618ZM10.1819 7.81808C10.7574 7.81808 11.32 7.64741 11.7985 7.32766C12.277 7.00792 12.6499 6.55345 12.8701 6.02175C13.0903 5.49004 13.1478 4.90498 13.0355 4.34056C12.9231 3.77613 12.6459 3.2577 12.2389 2.85084C11.8319 2.44397 11.3134 2.16694 10.7489 2.05479C10.1845 1.94263 9.59942 2.00039 9.06779 2.22076C8.53616 2.44113 8.08182 2.8142 7.76224 3.2928C7.44265 3.7714 7.27217 4.33403 7.27237 4.90953C7.27224 5.2916 7.34742 5.66996 7.4936 6.02296C7.63978 6.37597 7.85411 6.6967 8.12432 6.96682C8.39454 7.23694 8.71534 7.45116 9.0684 7.59723C9.42145 7.74329 9.79983 7.81834 10.1819 7.81808Z" fill="black"/>
</svg>
