<svg width="16" height="16" viewBox="0 0 16 16" fill="none" xmlns="http://www.w3.org/2000/svg">
<path d="M12.667 1H3.33299V3.333H12.667V1ZM13.444 8C13.2901 8 13.1397 7.95437 13.0118 7.86888C12.8838 7.7834 12.7841 7.66189 12.7252 7.51973C12.6663 7.37757 12.6509 7.22114 12.6809 7.07022C12.711 6.9193 12.7851 6.78068 12.8939 6.67187C13.0027 6.56307 13.1413 6.48897 13.2922 6.45895C13.4431 6.42893 13.5996 6.44434 13.7417 6.50322C13.8839 6.56211 14.0054 6.66182 14.0909 6.78977C14.1764 6.91771 14.222 7.06813 14.222 7.222C14.2215 7.42818 14.1393 7.62576 13.9935 7.77155C13.8477 7.91734 13.6502 7.99947 13.444 8ZM11.111 13.444H4.88899V9.556H11.111V13.444ZM13.444 4.889H2.55599C2.24942 4.88847 1.94576 4.94845 1.66241 5.0655C1.37907 5.18254 1.1216 5.35435 0.904779 5.57108C0.687955 5.78782 0.516034 6.04521 0.398867 6.3285C0.2817 6.6118 0.221592 6.91543 0.221987 7.222V11.889H3.33299V15H12.667V11.889H15.778V7.222C15.7784 6.91543 15.7183 6.6118 15.6011 6.3285C15.4839 6.04521 15.312 5.78782 15.0952 5.57108C14.8784 5.35435 14.6209 5.18254 14.3376 5.0655C14.0542 4.94845 13.7506 4.88847 13.444 4.889Z" fill="black"/>
</svg>
