<svg width="17" height="16" viewBox="0 0 17 16" fill="none" xmlns="http://www.w3.org/2000/svg">
<path d="M13.526 1H4.19201V3.333H13.526V1ZM14.303 8C14.1491 8 13.9987 7.95437 13.8708 7.86888C13.7428 7.7834 13.6431 7.66189 13.5842 7.51973C13.5253 7.37757 13.5099 7.22114 13.54 7.07022C13.57 6.9193 13.6441 6.78068 13.7529 6.67187C13.8617 6.56307 14.0003 6.48897 14.1512 6.45895C14.3021 6.42893 14.4586 6.44434 14.6007 6.50322C14.7429 6.56211 14.8644 6.66182 14.9499 6.78977C15.0354 6.91771 15.081 7.06813 15.081 7.222C15.0805 7.42818 14.9983 7.62576 14.8526 7.77155C14.7068 7.91734 14.5092 7.99947 14.303 8ZM11.97 13.444H5.74801V9.556H11.97V13.444ZM14.303 4.889H3.41501C3.10844 4.88847 2.80478 4.94845 2.52144 5.0655C2.23809 5.18254 1.98063 5.35435 1.7638 5.57108C1.54698 5.78782 1.37506 6.04521 1.25789 6.3285C1.14072 6.6118 1.08062 6.91543 1.08101 7.222V11.889H4.19201V15H13.526V11.889H16.637V7.222C16.6374 6.91543 16.5773 6.6118 16.4601 6.3285C16.343 6.04521 16.171 5.78782 15.9542 5.57108C15.7374 5.35435 15.4799 5.18254 15.1966 5.0655C14.9132 4.94845 14.6096 4.88847 14.303 4.889Z" fill="black"/>
</svg>
