<svg id="Layer_1" data-name="Layer 1" xmlns="http://www.w3.org/2000/svg" viewBox="0 0 18 18"><title>question-mark-outline</title><path d="M9,4.546a5,5,0,1,1-5,5,5.006,5.006,0,0,1,5-5m0-2a7,7,0,1,0,7,7,7,7,0,0,0-7-7Z" fill="#231f20"/><path d="M9.754,11.367h-1.5A3.076,3.076,0,0,1,9.137,9.2l.5-.508a1,1,0,0,0,.311-.886.966.966,0,0,0-1.905.226h-1.5A2.466,2.466,0,0,1,11.4,7.456a2.493,2.493,0,0,1-.7,2.289l-.5.507A1.588,1.588,0,0,0,9.754,11.367Z" fill="#231f20"/><rect x="8.25" y="12.183" width="1.5" height="1.219" fill="#231f20"/></svg>