<svg width="17" height="17" viewBox="0 0 17 17" fill="none" xmlns="http://www.w3.org/2000/svg">
<path d="M6.94701 2C8.09144 2.00044 9.20032 2.39765 10.0847 3.12396C10.9691 3.85027 11.5744 4.86075 11.7973 5.98326C12.0203 7.10576 11.8472 8.27084 11.3074 9.28001C10.7677 10.2892 9.89482 11.08 8.83742 11.5178C7.78003 11.9555 6.60356 12.0131 5.50845 11.6808C4.41335 11.3484 3.46734 10.6467 2.83161 9.69507C2.19588 8.74345 1.90975 7.60086 2.02196 6.46195C2.13417 5.32303 2.63778 4.25825 3.44701 3.449C3.90551 2.98792 4.45097 2.62242 5.05177 2.37369C5.65257 2.12496 6.29676 1.99794 6.94701 2ZM6.94701 8.23327e-07C5.33955 1.1042e-05 3.78183 0.557384 2.53925 1.57715C1.29668 2.59692 0.446135 4.01598 0.132546 5.59255C-0.181044 7.16912 0.0617218 8.80565 0.819479 10.2233C1.57724 11.6409 2.8031 12.752 4.2882 13.3671C5.7733 13.9823 7.42575 14.0634 8.96398 13.5968C10.5022 13.1302 11.8311 12.1446 12.7241 10.8081C13.6172 9.47152 14.0192 7.86666 13.8616 6.26695C13.704 4.66723 12.9967 3.17164 11.86 2.035C11.2157 1.38867 10.4499 0.876131 9.60672 0.526884C8.76355 0.177637 7.85964 -0.00142536 6.94701 8.23327e-07ZM16.707 15.293L11.707 10.293L10.293 11.707L15.293 16.707L16.707 15.293ZM6.94701 2C8.09144 2.00044 9.20032 2.39765 10.0847 3.12396C10.9691 3.85027 11.5744 4.86075 11.7973 5.98326C12.0203 7.10576 11.8472 8.27084 11.3074 9.28001C10.7677 10.2892 9.89482 11.08 8.83742 11.5178C7.78003 11.9555 6.60356 12.0131 5.50845 11.6808C4.41335 11.3484 3.46734 10.6467 2.83161 9.69507C2.19588 8.74345 1.90975 7.60086 2.02196 6.46195C2.13417 5.32303 2.63778 4.25825 3.44701 3.449C3.90551 2.98792 4.45097 2.62242 5.05177 2.37369C5.65257 2.12496 6.29676 1.99794 6.94701 2ZM6.94701 8.23327e-07C5.33955 1.1042e-05 3.78183 0.557384 2.53925 1.57715C1.29668 2.59692 0.446135 4.01598 0.132546 5.59255C-0.181044 7.16912 0.0617218 8.80565 0.819479 10.2233C1.57724 11.6409 2.8031 12.752 4.2882 13.3671C5.7733 13.9823 7.42575 14.0634 8.96398 13.5968C10.5022 13.1302 11.8311 12.1446 12.7241 10.8081C13.6172 9.47152 14.0192 7.86666 13.8616 6.26695C13.704 4.66723 12.9967 3.17164 11.86 2.035C11.2157 1.38867 10.4499 0.876131 9.60672 0.526884C8.76355 0.177637 7.85964 -0.00142536 6.94701 8.23327e-07ZM16.707 15.293L11.707 10.293L10.293 11.707L15.293 16.707L16.707 15.293Z" fill="black"/>
</svg>
