<svg id="Layer_1" data-name="Layer 1" xmlns="http://www.w3.org/2000/svg" viewBox="0 0 16 16"><title>search</title><g opacity="0.008"><rect x="-10" y="-10" width="24" height="24"/></g><path d="M6.947,2a4.947,4.947,0,1,1-3.5,1.449A4.914,4.914,0,0,1,6.947,2m0-2A6.948,6.948,0,1,0,11.86,2.035,6.922,6.922,0,0,0,6.947,0Z"/><rect x="12.5" y="9.964" width="2" height="7.071" transform="translate(-5.592 13.5) rotate(-45)"/><path d="M6.947,2a4.947,4.947,0,1,1-3.5,1.449A4.914,4.914,0,0,1,6.947,2m0-2A6.948,6.948,0,1,0,11.86,2.035,6.922,6.922,0,0,0,6.947,0Z"/><rect x="12.5" y="9.964" width="2" height="7.071" transform="translate(-5.592 13.5) rotate(-45)"/></svg>