<svg id="Layer_1" data-name="Layer 1" xmlns="http://www.w3.org/2000/svg" viewBox="0 0 16 16"><title>share</title><path id="path0_fill" data-name="path0 fill" d="M7.34.34A.75.75,0,0,1,8.4.34l2.5,2.5a.74.74,0,0,1,0,1.06.75.75,0,0,1-1.06,0L8.62,2.68v7.69a.75.75,0,0,1-1.5,0V2.68L5.9,3.9A.75.75,0,1,1,4.84,2.84Z"/><path id="path1_fill" data-name="path1 fill" d="M4.37,6.62a.5.5,0,0,0-.5.5v7a.5.5,0,0,0,.5.5h7a.5.5,0,0,0,.5-.5v-7a.5.5,0,0,0-.5-.5h-.5a.75.75,0,0,1,0-1.5h.5a2,2,0,0,1,2,2v7a2,2,0,0,1-2,2h-7a2,2,0,0,1-2-2v-7a2,2,0,0,1,2-2h.5a.75.75,0,0,1,0,1.5Z"/></svg>