<svg width="16" height="17" viewBox="0 0 16 17" fill="none" xmlns="http://www.w3.org/2000/svg">
<path d="M7.34199 0.340001C7.48241 0.199917 7.67265 0.121246 7.87099 0.121246C8.06934 0.121246 8.25958 0.199917 8.39999 0.340001L10.9 2.84C11.0279 2.98276 11.0962 3.16906 11.091 3.36064C11.0859 3.55223 11.0075 3.73456 10.8721 3.8702C10.7368 4.00585 10.5546 4.08452 10.363 4.09006C10.1714 4.0956 9.985 4.02759 9.84199 3.9L8.62199 2.68V10.37C8.62199 10.5689 8.54298 10.7597 8.40232 10.9003C8.26167 11.041 8.07091 11.12 7.87199 11.12C7.67308 11.12 7.48232 11.041 7.34166 10.9003C7.20101 10.7597 7.12199 10.5689 7.12199 10.37V2.681L5.89999 3.9C5.75699 4.02759 5.57056 4.0956 5.37899 4.09006C5.18742 4.08452 5.00524 4.00585 4.86985 3.8702C4.73446 3.73456 4.65613 3.55223 4.65095 3.36064C4.64577 3.16906 4.71413 2.98276 4.84199 2.84L7.34199 0.340001ZM4.87199 6.62C5.07091 6.62 5.26167 6.54098 5.40232 6.40033C5.54298 6.25968 5.62199 6.06891 5.62199 5.87C5.62199 5.67109 5.54298 5.48032 5.40232 5.33967C5.26167 5.19902 5.07091 5.12 4.87199 5.12H4.37199C3.84156 5.12 3.33285 5.33071 2.95778 5.70579C2.58271 6.08086 2.37199 6.58957 2.37199 7.12V14.12C2.37199 14.6504 2.58271 15.1591 2.95778 15.5342C3.33285 15.9093 3.84156 16.12 4.37199 16.12H11.372C11.9024 16.12 12.4111 15.9093 12.7862 15.5342C13.1613 15.1591 13.372 14.6504 13.372 14.12V7.12C13.372 6.58957 13.1613 6.08086 12.7862 5.70579C12.4111 5.33071 11.9024 5.12 11.372 5.12H10.872C10.6731 5.12 10.4823 5.19902 10.3417 5.33967C10.201 5.48032 10.122 5.67109 10.122 5.87C10.122 6.06891 10.201 6.25968 10.3417 6.40033C10.4823 6.54098 10.6731 6.62 10.872 6.62H11.372C11.5046 6.62 11.6318 6.67268 11.7255 6.76645C11.8193 6.86022 11.872 6.98739 11.872 7.12V14.12C11.872 14.2526 11.8193 14.3798 11.7255 14.4736C11.6318 14.5673 11.5046 14.62 11.372 14.62H4.37199C4.23939 14.62 4.11221 14.5673 4.01844 14.4736C3.92467 14.3798 3.87199 14.2526 3.87199 14.12V7.12C3.87199 6.98739 3.92467 6.86022 4.01844 6.76645C4.11221 6.67268 4.23939 6.62 4.37199 6.62H4.87199Z" fill="black"/>
</svg>
