<svg width="16" height="16" viewBox="0 0 16 16" fill="none" xmlns="http://www.w3.org/2000/svg">
<path d="M5.229 8.11C5.2288 7.56191 5.39115 7.02607 5.69551 6.57025C5.99988 6.11443 6.43258 5.7591 6.93889 5.54922C7.44521 5.33934 8.0024 5.28432 8.53998 5.39113C9.07757 5.49793 9.57141 5.76177 9.95904 6.14926C10.3467 6.53675 10.6107 7.03049 10.7177 7.56804C10.8247 8.10559 10.7699 8.6628 10.5602 9.16919C10.3505 9.67558 9.9953 10.1084 9.53959 10.4129C9.08388 10.7175 8.5481 10.88 8 10.88C7.63616 10.8801 7.27585 10.8086 6.93966 10.6694C6.60347 10.5303 6.29799 10.3263 6.04067 10.069C5.78335 9.81181 5.57922 9.5064 5.43995 9.17027C5.30068 8.83413 5.229 8.47385 5.229 8.11ZM16 8.11C16 8.22521 15.9678 8.33813 15.907 8.436C15.782 8.636 12.801 13.336 8.001 13.336C3.201 13.336 0.220002 8.636 0.101002 8.436C0.0395791 8.33818 0.00699615 8.22501 0.00699615 8.1095C0.00699615 7.99399 0.0395791 7.88083 0.101002 7.783C0.225002 7.583 3.206 2.883 8.001 2.883C12.796 2.883 15.782 7.583 15.907 7.783C15.9679 7.88119 16.0001 7.99446 16 8.11ZM14.621 8.11C13.886 7.1 11.424 4.125 8 4.125C4.576 4.125 2.113 7.1 1.379 8.11C2.113 9.116 4.579 12.094 7.999 12.094C11.419 12.094 13.886 9.116 14.619 8.11H14.621Z" fill="black"/>
</svg>
