<svg width="16" height="16" viewBox="0 0 16 16" fill="none" xmlns="http://www.w3.org/2000/svg">
<path d="M7.99 -1.37882e-06C6.40818 0.0019759 4.86245 0.472848 3.54817 1.3531C2.23389 2.23335 1.21007 3.48347 0.606101 4.94545C0.00213301 6.40744 -0.154868 8.01565 0.154943 9.56684C0.464753 11.118 1.22747 12.5426 2.34668 13.6604C3.4659 14.7782 4.89138 15.5391 6.44296 15.847C7.99453 16.1549 9.60255 15.9959 11.0638 15.3901C12.525 14.7843 13.7738 13.7589 14.6525 12.4435C15.5311 11.1281 16 9.58182 16 8C16 6.94858 15.7927 5.90748 15.3901 4.93622C14.9874 3.96496 14.3973 3.08261 13.6533 2.33961C12.9094 1.59661 12.0263 1.00754 11.0545 0.60609C10.0828 0.204641 9.04142 -0.00131565 7.99 -1.37882e-06ZM11.52 13L8 11.15L4.48 13L5.15 9.08L2.3 6.31L6.24 5.73L8 2.17L9.76 5.73L13.7 6.31L10.85 9.08L11.52 13Z" fill="black"/>
</svg>
