<svg width="16" height="16" viewBox="0 0 16 16" fill="none" xmlns="http://www.w3.org/2000/svg">
<path fill-rule="evenodd" clip-rule="evenodd" d="M3.54817 1.35311C4.86245 0.472855 6.40818 0.00198353 7.99 6.25057e-06C9.04142 -0.00130802 10.0828 0.204648 11.0545 0.606097C12.0263 1.00755 12.9094 1.59661 13.6533 2.33961C14.3973 3.08261 14.9874 3.96497 15.3901 4.93623C15.7927 5.90748 16 6.94859 16 8.00001C16 9.58183 15.5311 11.1282 14.6525 12.4435C13.7738 13.7589 12.525 14.7843 11.0638 15.3901C9.60255 15.9959 7.99453 16.1549 6.44296 15.847C4.89138 15.5391 3.4659 14.7782 2.34668 13.6604C1.22747 12.5426 0.464753 11.118 0.154943 9.56685C-0.154868 8.01566 0.00213302 6.40744 0.606101 4.94546C1.21007 3.48348 2.23389 2.23336 3.54817 1.35311ZM10.9664 12L8.00001 10.2724L5.03361 12L5.82081 8.744L3.20001 6.55326L6.65121 6.27073L8.00001 3.2L9.34881 6.27073L12.8 6.55326L10.1792 8.744L10.9664 12Z" fill="black"/>
</svg>
