<svg width="16" height="16" viewBox="0 0 16 16" fill="none" xmlns="http://www.w3.org/2000/svg">
<path d="M7.99 6.25057e-06C6.40818 0.00198353 4.86245 0.472855 3.54817 1.35311C2.23389 2.23336 1.21007 3.48348 0.606101 4.94546C0.00213301 6.40744 -0.154868 8.01566 0.154943 9.56685C0.464753 11.118 1.22747 12.5426 2.34668 13.6604C3.4659 14.7782 4.89138 15.5391 6.44296 15.847C7.99453 16.1549 9.60255 15.9959 11.0638 15.3901C12.525 14.7843 13.7738 13.7589 14.6525 12.4435C15.5311 11.1282 16 9.58183 16 8.00001C16 6.94859 15.7927 5.90748 15.3901 4.93623C14.9874 3.96497 14.3973 3.08261 13.6533 2.33961C12.9094 1.59661 12.0263 1.00755 11.0545 0.606097C10.0828 0.204648 9.04142 -0.00130802 7.99 6.25057e-06ZM11.52 13L8 11.15L4.48 13L5.15 9.08001L2.3 6.31001L6.24 5.73001L8 2.17001L9.76 5.73001L13.7 6.31001L10.85 9.08001L11.52 13Z" fill="black"/>
</svg>
