<svg width="16" height="16" viewBox="0 0 16 16" fill="none" xmlns="http://www.w3.org/2000/svg">
<path d="M0.900007 7.844C0.834296 7.77738 0.797455 7.68757 0.797455 7.594C0.797455 7.50043 0.834296 7.41062 0.900007 7.344L2.65201 5.583C2.71899 5.518 2.80867 5.48165 2.90201 5.48165C2.99535 5.48165 3.08502 5.518 3.15201 5.583L6.64801 9L12.875 2.809C12.9082 2.77583 12.9475 2.74952 12.9908 2.73157C13.0342 2.71362 13.0806 2.70438 13.1275 2.70438C13.1744 2.70438 13.2208 2.71362 13.2642 2.73157C13.3075 2.74952 13.3469 2.77583 13.38 2.809L15.135 4.564C15.1683 4.59717 15.1948 4.6366 15.2128 4.68002C15.2308 4.72343 15.2401 4.76999 15.2401 4.817C15.2401 4.86402 15.2308 4.91057 15.2128 4.95399C15.1948 4.99741 15.1683 5.03683 15.135 5.07L6.97001 13.142C6.87305 13.2378 6.74227 13.2915 6.60601 13.2915C6.46974 13.2915 6.33896 13.2378 6.24201 13.142L0.900007 7.844Z" fill="black"/>
</svg>
