<svg width="16" height="16" viewBox="0 0 16 16" fill="none" xmlns="http://www.w3.org/2000/svg">
<path d="M9.333 8.667V11.333H6.667V8.667H4.667L8 5.333L11.333 8.667H9.333ZM12.9 6.693C12.6992 5.6774 12.1877 4.74931 11.4364 4.03706C10.6851 3.32481 9.73102 2.86361 8.70615 2.71723C7.68129 2.57085 6.63626 2.74653 5.7156 3.21998C4.79494 3.69342 4.04413 4.44124 3.567 5.36C2.55572 5.47785 1.62743 5.9769 0.971324 6.75543C0.315221 7.53397 -0.0193147 8.53339 0.0358968 9.55003C0.0911084 10.5667 0.531911 11.524 1.26847 12.2269C2.00503 12.9298 2.9819 13.3254 4 13.333H12.667C13.5288 13.3337 14.3572 12.9996 14.9775 12.4012C15.5977 11.8028 15.9613 10.9869 15.9915 10.1256C16.0217 9.26427 15.7162 8.42489 15.1395 7.7845C14.5627 7.1441 13.7598 6.75275 12.9 6.693Z" fill="black"/>
</svg>
