<svg width="16" height="16" viewBox="0 0 16 16" fill="none" xmlns="http://www.w3.org/2000/svg">
<path d="M12.357 1.02901H11.05L10.179 0.157013H5.82102L4.95002 1.02901H3.64302C3.41418 1.02888 3.18755 1.07384 2.97608 1.16133C2.76462 1.24881 2.57246 1.37711 2.4106 1.53888C2.24873 1.70065 2.12033 1.89273 2.03272 2.10415C1.94512 2.31556 1.90002 2.54217 1.90002 2.77101V3.64301H14.1V2.77101C14.1 2.54217 14.0549 2.31556 13.9673 2.10415C13.8797 1.89273 13.7513 1.70065 13.5895 1.53888C13.4276 1.37711 13.2354 1.24881 13.024 1.16133C12.8125 1.07384 12.5859 1.02888 12.357 1.02901ZM2.77102 14.1C2.77234 14.5619 2.9564 15.0045 3.28299 15.331C3.60959 15.6576 4.05216 15.8417 4.51402 15.843H11.486C11.9479 15.8417 12.3905 15.6576 12.7171 15.331C13.0436 15.0045 13.2277 14.5619 13.229 14.1V6.25701H2.77102V14.1Z" fill="black"/>
</svg>
