<svg width="16" height="16" viewBox="0 0 16 16" fill="none" xmlns="http://www.w3.org/2000/svg">
<path d="M12.357 1.029H11.05L10.179 0.156998H5.821L4.95 1.029H3.643C3.41415 1.02887 3.18752 1.07383 2.97606 1.16131C2.7646 1.2488 2.57244 1.37709 2.41058 1.53886C2.24871 1.70064 2.12031 1.89272 2.0327 2.10413C1.94509 2.31555 1.9 2.54215 1.9 2.771V3.643H14.1V2.771C14.1 2.54215 14.0549 2.31555 13.9673 2.10413C13.8797 1.89272 13.7513 1.70064 13.5894 1.53886C13.4276 1.37709 13.2354 1.2488 13.0239 1.16131C12.8125 1.07383 12.5858 1.02887 12.357 1.029ZM2.771 14.1C2.77232 14.5619 2.95638 15.0044 3.28297 15.331C3.60956 15.6576 4.05213 15.8417 4.514 15.843H11.486C11.9479 15.8417 12.3904 15.6576 12.717 15.331C13.0436 15.0044 13.2277 14.5619 13.229 14.1V6.257H2.771V14.1Z" fill="black"/>
</svg>
