<svg width="16" height="16" viewBox="0 0 16 16" fill="none" xmlns="http://www.w3.org/2000/svg">
<path d="M4.444 6.861H6.222V9.528H9.778V6.861H11.556L8 3.306L4.444 6.861ZM14.222 10.667H10.667C10.667 11.3743 10.386 12.0527 9.88585 12.5529C9.3857 13.053 8.70733 13.334 8 13.334C7.29267 13.334 6.61431 13.053 6.11415 12.5529C5.61399 12.0527 5.333 11.3743 5.333 10.667H1.769V1.778H14.222V10.667ZM14.222 -2.75364e-06H1.769C1.5362 -0.000551332 1.30561 0.0451963 1.09066 0.134579C0.875698 0.223962 0.680658 0.355195 0.516882 0.520646C0.353107 0.686097 0.223865 0.882462 0.136674 1.09832C0.0494827 1.31417 0.00608363 1.54521 0.00900092 1.778L9.15854e-07 14.222C-0.00105236 14.455 0.0439195 14.686 0.132336 14.9016C0.220753 15.1172 0.350874 15.3132 0.515232 15.4784C0.679591 15.6436 0.874952 15.7747 1.09011 15.8642C1.30526 15.9537 1.53597 15.9999 1.769 16H14.222C14.6932 15.9987 15.1446 15.8109 15.4778 15.4778C15.8109 15.1446 15.9987 14.6931 16 14.222V1.778C16.0001 1.54447 15.9542 1.31321 15.8649 1.09743C15.7756 0.881654 15.6447 0.685597 15.4795 0.520468C15.3144 0.355339 15.1183 0.224378 14.9026 0.135072C14.6868 0.0457654 14.4555 -0.000134207 14.222 -2.75364e-06Z" fill="black"/>
</svg>
