<svg width="16" height="16" viewBox="0 0 16 16" fill="none" xmlns="http://www.w3.org/2000/svg">
<path d="M4.44402 6.861H6.22202V9.528H9.77802V6.861H11.556L8.00002 3.306L4.44402 6.861ZM14.222 10.667H10.667C10.667 11.3743 10.386 12.0527 9.88587 12.5529C9.38571 13.053 8.70735 13.334 8.00002 13.334C7.29269 13.334 6.61432 13.053 6.11416 12.5529C5.61401 12.0527 5.33302 11.3743 5.33302 10.667H1.76902V1.778H14.222V10.667ZM14.222 1.06106e-06H1.76902C1.53622 -0.000547517 1.30563 0.0452001 1.09067 0.134583C0.875715 0.223966 0.680675 0.355199 0.5169 0.52065C0.353124 0.6861 0.223882 0.882465 0.136691 1.09832C0.0494998 1.31418 0.00610079 1.54522 0.00901808 1.778L1.8082e-05 14.222C-0.0010352 14.455 0.0439367 14.686 0.132353 14.9016C0.22077 15.1172 0.350891 15.3132 0.515249 15.4784C0.679608 15.6436 0.874969 15.7747 1.09012 15.8642C1.30528 15.9537 1.53599 15.9999 1.76902 16H14.222C14.6932 15.9987 15.1446 15.8109 15.4778 15.4778C15.811 15.1446 15.9987 14.6932 16 14.222V1.778C16.0001 1.54447 15.9542 1.31321 15.8649 1.09743C15.7756 0.881658 15.6447 0.685601 15.4795 0.520472C15.3144 0.355343 15.1184 0.224382 14.9026 0.135076C14.6868 0.0457692 14.4555 -0.000130393 14.222 1.06106e-06Z" fill="black"/>
</svg>
