<svg width="16" height="16" viewBox="0 0 16 16" fill="none" xmlns="http://www.w3.org/2000/svg">
<path d="M12.4 2.811V0.167L15.044 2.811H12.4ZM10.2 0.167H5.119C4.88508 0.167 4.66074 0.259925 4.49534 0.425332C4.32993 0.590739 4.237 0.815079 4.237 1.049V11.642C4.23687 11.7579 4.25959 11.8727 4.30385 11.9798C4.34812 12.087 4.41307 12.1843 4.49498 12.2663C4.5769 12.3483 4.67417 12.4134 4.78125 12.4578C4.88832 12.5022 5.00309 12.525 5.119 12.525H14.167C14.4012 12.525 14.6258 12.432 14.7914 12.2664C14.957 12.1008 15.05 11.8762 15.05 11.642V5.017C15.05 4.90109 15.0272 4.78632 14.9828 4.67924C14.9384 4.57217 14.8733 4.47489 14.7913 4.39298C14.7093 4.31106 14.612 4.24612 14.5048 4.20185C14.3977 4.15759 14.2829 4.13487 14.167 4.135H11.078V1.049C11.078 0.81577 10.9856 0.592034 10.8211 0.426742C10.6565 0.261449 10.4332 0.168058 10.2 0.167ZM11.965 14.067H2.837C2.81801 14.0671 2.79918 14.0635 2.78159 14.0563C2.764 14.0491 2.74801 14.0386 2.73453 14.0252C2.72106 14.0118 2.71036 13.9959 2.70306 13.9783C2.69576 13.9608 2.692 13.942 2.692 13.923V3.256H1.147V13.925C1.1478 14.3729 1.32614 14.8022 1.64293 15.1188C1.95972 15.4354 2.38912 15.6135 2.837 15.614H11.96L11.965 14.067Z" fill="black"/>
</svg>
