<svg width="16" height="16" viewBox="0 0 16 16" fill="none" xmlns="http://www.w3.org/2000/svg">
<path d="M12.4 2.811V0.167L15.044 2.811H12.4ZM10.2 0.167H5.11897C4.88505 0.167 4.66071 0.259925 4.4953 0.425332C4.3299 0.590739 4.23697 0.815079 4.23697 1.049V11.642C4.23684 11.7579 4.25956 11.8727 4.30382 11.9798C4.34809 12.087 4.41304 12.1843 4.49495 12.2663C4.57687 12.3483 4.67414 12.4134 4.78121 12.4578C4.88829 12.5022 5.00306 12.525 5.11897 12.525H14.167C14.4012 12.525 14.6258 12.432 14.7913 12.2664C14.9569 12.1008 15.05 11.8762 15.05 11.642V5.017C15.05 4.90109 15.0271 4.78632 14.9827 4.67924C14.9384 4.57217 14.8733 4.47489 14.7913 4.39298C14.7093 4.31106 14.6119 4.24612 14.5048 4.20185C14.3977 4.15759 14.2829 4.13487 14.167 4.135H11.078V1.049C11.078 0.81577 10.9856 0.592034 10.8211 0.426742C10.6565 0.261449 10.4332 0.168058 10.2 0.167ZM11.965 14.067H2.83697C2.81798 14.0671 2.79915 14.0635 2.78156 14.0563C2.76397 14.0491 2.74798 14.0386 2.7345 14.0252C2.72102 14.0118 2.71033 13.9959 2.70303 13.9783C2.69573 13.9608 2.69197 13.942 2.69197 13.923V3.256H1.14697V13.925C1.14777 14.3729 1.32611 14.8022 1.6429 15.1188C1.95969 15.4354 2.38909 15.6135 2.83697 15.614H11.96L11.965 14.067Z" fill="black"/>
</svg>
