<svg width="16" height="16" viewBox="0 0 16 16" fill="none" xmlns="http://www.w3.org/2000/svg">
<path d="M10.882 8.783C10.672 8.783 10.433 8.797 10.182 8.819C10.6069 9.08657 10.9594 9.45458 11.2084 9.89056C11.4574 10.3266 11.5953 10.8171 11.61 11.319V13.132H15.962V11.321C15.959 9.631 12.572 8.783 10.882 8.783ZM5.082 8.783C3.391 8.783 0 9.631 0 11.321V13.134H10.157V11.321C10.157 9.631 6.77 8.783 5.081 8.783H5.082ZM5.082 7.332C5.51237 7.3318 5.93302 7.20399 6.29075 6.96472C6.64848 6.72546 6.92723 6.38548 7.09174 5.9878C7.25626 5.59011 7.29915 5.15257 7.21499 4.7305C7.13084 4.30844 6.92342 3.92081 6.61896 3.61663C6.3145 3.31245 5.92668 3.10538 5.50454 3.02162C5.08239 2.93785 4.64489 2.98114 4.24736 3.14602C3.84982 3.3109 3.5101 3.58996 3.27117 3.94791C3.03223 4.30586 2.9048 4.72663 2.905 5.157C2.90367 5.44308 2.95906 5.72659 3.06796 5.99113C3.17686 6.25568 3.3371 6.49602 3.53944 6.69827C3.74178 6.90051 3.98219 7.06065 4.24679 7.16943C4.51139 7.2782 4.79492 7.33346 5.081 7.332H5.082ZM10.882 7.332C11.3125 7.3322 11.7333 7.20472 12.0913 6.96569C12.4493 6.72667 12.7283 6.38683 12.8932 5.98918C13.058 5.59153 13.1012 5.15393 13.0172 4.73173C12.9333 4.30953 12.726 3.92172 12.4217 3.61734C12.1173 3.31296 11.7295 3.10569 11.3073 3.02176C10.8851 2.93783 10.4475 2.98101 10.0498 3.14583C9.65217 3.31065 9.31233 3.58971 9.07331 3.9477C8.83428 4.3057 8.7068 4.72654 8.707 5.157C8.70581 5.44296 8.76126 5.72632 8.87014 5.99074C8.97902 6.25516 9.13918 6.49541 9.34139 6.69761C9.54359 6.89982 9.78384 7.05998 10.0483 7.16886C10.3127 7.27775 10.596 7.33319 10.882 7.332Z" fill="black"/>
</svg>
