<svg width="16" height="16" viewBox="0 0 16 16" fill="none" xmlns="http://www.w3.org/2000/svg">
<path d="M10.153 11.23L7.99999 9.07699L5.84699 11.23L4.76999 10.153L6.92299 7.99999L4.76999 5.84699L5.84699 4.76999L7.99999 6.92299L10.153 4.76999L11.23 5.84699L9.07699 7.99999L11.23 10.153L10.153 11.23ZM13.384 2.61599C12.3191 1.55118 10.9625 0.82604 9.48549 0.532272C8.00853 0.238505 6.47762 0.389302 5.08636 0.965595C3.6951 1.54189 2.50597 2.51779 1.66934 3.7699C0.832716 5.02201 0.386169 6.49409 0.386169 7.99999C0.386169 9.50589 0.832716 10.978 1.66934 12.2301C2.50597 13.4822 3.6951 14.4581 5.08636 15.0344C6.47762 15.6107 8.00853 15.7615 9.48549 15.4677C10.9625 15.1739 12.3191 14.4488 13.384 13.384C14.8107 11.9554 15.6121 10.019 15.6121 7.99999C15.6121 5.98099 14.8107 4.04455 13.384 2.61599Z" fill="black"/>
</svg>
