<svg id="Layer_1" data-name="Layer 1" xmlns="http://www.w3.org/2000/svg" viewBox="0 0 16 16"><title>approval-group</title><path d="M12,8a4,4,0,1,0,4,4A4,4,0,0,0,12,8Zm2.57,3.29L12,13.84a.51.51,0,0,1-.38.16.54.54,0,0,1-.39-.16L9.8,12.39a.55.55,0,0,1,.38-.94.59.59,0,0,1,.39.16l1.07,1.07,2.16-2.16a.55.55,0,0,1,.38-.16.59.59,0,0,1,.39.16A.55.55,0,0,1,14.57,11.29ZM7,14.5H2A.48.48,0,0,1,1.5,14V11.38a.5.5,0,0,1,.31-.46l4-1.65c.06,0,.65-.26,1-.34a4.51,4.51,0,1,0-2.92-.47L1.23,9.55A2,2,0,0,0,0,11.38V14a2,2,0,0,0,2,2H7a.75.75,0,0,0,0-1.5ZM3,4.5a3,3,0,1,1,3,3A3,3,0,0,1,3,4.5Z"/></svg>