<svg id="Layer_1" data-name="Layer 1" xmlns="http://www.w3.org/2000/svg" viewBox="0 0 16 16"><title>calendar-logo</title><rect x="1.13" y="7.859" width="0.977" height="0.616"/><path d="M1.619,6.522c-1.19,0-1.488.3-1.488,1.488S.429,9.5,1.619,9.5,3.106,9.2,3.106,8.01,2.809,6.522,1.619,6.522Zm.71,2.1a.087.087,0,0,1-.087.087H1a.088.088,0,0,1-.088-.087V7.561A.088.088,0,0,1,1,7.474H1.13v-.1a.083.083,0,0,1,.083-.083h.039a.082.082,0,0,1,.082.083v.1H1.9v-.1a.083.083,0,0,1,.082-.083h.04a.083.083,0,0,1,.082.083v.1h.135a.087.087,0,0,1,.087.087Z"/><path d="M5.058,8.26a.084.084,0,0,0-.119.007L4.9,8.3a.39.39,0,0,1-.3.145.457.457,0,1,1,.3-.769c.025.026.064.065.116.017l.115-.106a.088.088,0,0,0,.014-.126A.663.663,0,0,0,4.6,7.2a.784.784,0,0,0-.775.791A.772.772,0,0,0,4.6,8.78a.692.692,0,0,0,.59-.314c.018-.029.029-.073-.029-.125Z"/><path d="M5.994,7.2a1.573,1.573,0,0,0-.515.085.081.081,0,0,0-.057.1l.029.122a.083.083,0,0,0,.1.072,1.469,1.469,0,0,1,.41-.071.214.214,0,0,1,.16.053.349.349,0,0,1,.063.254,1.146,1.146,0,0,0-.284-.04c-.37,0-.608.193-.608.493a.474.474,0,0,0,.492.508.651.651,0,0,0,.45-.175l.028.08c.015.036.034.06.074.06h.106a.088.088,0,0,0,.085-.085V7.87C6.528,7.5,6.488,7.2,5.994,7.2ZM5.853,8.488a.2.2,0,0,1-.217-.22c0-.137.117-.229.29-.229a.726.726,0,0,1,.256.045v.235A.45.45,0,0,1,5.853,8.488Z"/><rect x="6.819" y="6.549" width="0.35" height="2.196" rx="0.085"/><path d="M8.133,7.2a.79.79,0,0,0,0,1.579.852.852,0,0,0,.558-.186A.073.073,0,0,0,8.7,8.476l-.087-.135a.067.067,0,0,0-.042-.032.09.09,0,0,0-.065.022.56.56,0,0,1-.354.122.423.423,0,0,1-.428-.376H8.736A.084.084,0,0,0,8.818,8c0-.027.006-.078.006-.1A.678.678,0,0,0,8.133,7.2Zm-.007.3a.335.335,0,0,1,.351.308H7.745A.361.361,0,0,1,8.126,7.5Z"/><path d="M9.789,7.2a.693.693,0,0,0-.492.193l-.037-.1a.069.069,0,0,0-.075-.056H9.109a.086.086,0,0,0-.085.084V8.66a.086.086,0,0,0,.085.085h.163c.068,0,.1-.028.1-.085V7.739a.441.441,0,0,1,.377-.2c.179,0,.278.13.278.368V8.66a.086.086,0,0,0,.085.085h.18a.089.089,0,0,0,.085-.085V7.915C10.378,7.435,10.185,7.2,9.789,7.2Z"/><path d="M11.931,6.549h-.183a.091.091,0,0,0-.085.085v.638h0a1.019,1.019,0,0,0-.355-.071.744.744,0,0,0-.73.788.738.738,0,0,0,.691.791.724.724,0,0,0,.481-.2l.025.086a.086.086,0,0,0,.081.075h.078a.085.085,0,0,0,.084-.085V6.634A.087.087,0,0,0,11.931,6.549Zm-.62,1.9a.422.422,0,0,1-.387-.458.437.437,0,0,1,.416-.454.729.729,0,0,1,.326.081V8.24A.412.412,0,0,1,11.311,8.447Z"/><path d="M12.91,7.2a1.573,1.573,0,0,0-.515.085.081.081,0,0,0-.057.1l.029.122a.084.084,0,0,0,.1.072,1.453,1.453,0,0,1,.409-.071.217.217,0,0,1,.161.053.349.349,0,0,1,.063.254,1.148,1.148,0,0,0-.285-.04c-.369,0-.607.193-.607.493a.473.473,0,0,0,.492.508.651.651,0,0,0,.449-.175l.029.08c.015.036.033.06.074.06h.106a.089.089,0,0,0,.085-.085V7.87C13.445,7.5,13.405,7.2,12.91,7.2Zm-.141,1.287a.2.2,0,0,1-.216-.22c0-.137.116-.229.29-.229a.713.713,0,0,1,.255.045v.235A.446.446,0,0,1,12.769,8.488Z"/><path d="M14.729,7.285c-.039-.062-.176-.084-.281-.084A.591.591,0,0,0,14,7.4L13.971,7.3a.083.083,0,0,0-.079-.062h-.077a.087.087,0,0,0-.085.084V8.66a.086.086,0,0,0,.085.085h.148c.047,0,.117,0,.117-.085V7.723a.41.41,0,0,1,.335-.188.357.357,0,0,1,.129.027.077.077,0,0,0,.061,0,.085.085,0,0,0,.048-.047l.077-.16A.077.077,0,0,0,14.729,7.285Z"/></svg>