<svg id="Layer_1" data-name="Layer 1" xmlns="http://www.w3.org/2000/svg" viewBox="0 0 16 16"><title>calendar-logo</title><path d="M1.13,7.86h1v.62h-1Zm2,.15c0,1.19-.3,1.49-1.49,1.49S.13,9.2.13,8s.3-1.49,1.49-1.49S3.11,6.82,3.11,8Zm-.78-.45a.09.09,0,0,0-.09-.09H2.11v-.1A.08.08,0,0,0,2,7.29H2a.08.08,0,0,0-.09.08v.1H1.33v-.1a.07.07,0,0,0-.08-.08h0a.08.08,0,0,0-.08.08v.1H1a.09.09,0,0,0-.09.09V8.62A.08.08,0,0,0,1,8.7H2.24a.08.08,0,0,0,.09-.08Zm2.73.7a.08.08,0,0,0-.12,0l0,0a.36.36,0,0,1-.3.15.46.46,0,0,1,0-.92.43.43,0,0,1,.29.15s.07.06.12,0l.12-.1a.09.09,0,0,0,0-.13A.66.66,0,0,0,4.6,7.2.79.79,0,0,0,3.82,8a.78.78,0,0,0,.78.79.7.7,0,0,0,.59-.31.12.12,0,0,0,0-.13Zm1.47-.39v.79a.09.09,0,0,1-.09.08h-.1s-.06,0-.08-.06l0-.08a.6.6,0,0,1-.44.18.48.48,0,0,1-.5-.51c0-.3.24-.49.61-.49a1.32,1.32,0,0,1,.29,0c0-.13,0-.21-.07-.25A.18.18,0,0,0,6,7.51a1.54,1.54,0,0,0-.41.07.08.08,0,0,1-.1-.07l0-.12a.08.08,0,0,1,.06-.1A1.36,1.36,0,0,1,6,7.2C6.49,7.2,6.53,7.5,6.53,7.87Zm-.35.45V8.08a.83.83,0,0,0-.25,0c-.18,0-.29.09-.29.23a.2.2,0,0,0,.21.22A.44.44,0,0,0,6.18,8.32Zm.9-1.77H6.9a.09.09,0,0,0-.08.08v2a.08.08,0,0,0,.08.08h.18a.09.09,0,0,0,.09-.08v-2A.09.09,0,0,0,7.08,6.55ZM8.82,7.9V8a.09.09,0,0,1-.08.08h-1a.42.42,0,0,0,.43.37.58.58,0,0,0,.35-.12s0,0,.06,0,0,0,0,0l.08.14s.05.07,0,.11a.78.78,0,0,1-.55.19.79.79,0,0,1,0-1.58A.68.68,0,0,1,8.82,7.9ZM7.74,7.81h.74a.35.35,0,0,0-.35-.31A.37.37,0,0,0,7.74,7.81Zm2-.61a.68.68,0,0,0-.49.19l0-.1a.07.07,0,0,0-.07-.06H9.11A.09.09,0,0,0,9,7.32V8.66a.08.08,0,0,0,.09.08h.16c.07,0,.1,0,.1-.08V7.74a.44.44,0,0,1,.38-.21c.18,0,.28.14.28.37v.76a.08.08,0,0,0,.08.08h.18a.09.09,0,0,0,.09-.08V7.92C10.38,7.43,10.18,7.2,9.79,7.2ZM12,6.63v2a.08.08,0,0,1-.09.08h-.08a.08.08,0,0,1-.08-.07l0-.09a.69.69,0,0,1-.48.2.74.74,0,0,1-.7-.79.75.75,0,0,1,.73-.79,1.06,1.06,0,0,1,.36.07h0V6.63a.09.09,0,0,1,.09-.08h.18A.1.1,0,0,1,12,6.63Zm-.35,1.61V7.62a.73.73,0,0,0-.33-.09.45.45,0,0,0-.42.46.4.4,0,0,0,.75.25Zm1.77-.37v.79a.09.09,0,0,1-.08.08h-.11a.07.07,0,0,1-.07-.06l0-.08a.64.64,0,0,1-.45.18.47.47,0,0,1-.49-.51c0-.3.24-.49.61-.49a1.21,1.21,0,0,1,.28,0A.36.36,0,0,0,13,7.57a.21.21,0,0,0-.16-.06,1.54,1.54,0,0,0-.41.07.08.08,0,0,1-.1-.07l0-.12a.08.08,0,0,1,.06-.1,1.25,1.25,0,0,1,.51-.09C13.4,7.2,13.44,7.5,13.44,7.87Zm-.34.45V8.08a.92.92,0,0,0-.26,0c-.17,0-.29.09-.29.23a.21.21,0,0,0,.22.22A.46.46,0,0,0,13.1,8.32Zm1.63-1c0-.06-.18-.08-.28-.08a.61.61,0,0,0-.45.2l0-.1a.08.08,0,0,0-.08-.07h-.07a.09.09,0,0,0-.09.09V8.66a.08.08,0,0,0,.09.08H14s.12,0,.12-.08V7.72a.41.41,0,0,1,.34-.19l.12,0h.06a.08.08,0,0,0,.05-.05l.08-.16A.08.08,0,0,0,14.73,7.28Z"/></svg>