<svg id="Layer_1" data-name="Layer 1" xmlns="http://www.w3.org/2000/svg" viewBox="0 0 16 16"><title>chrome</title><path d="M14.8,4.9,10.4,5a3.82,3.82,0,0,1,.68,5.23l-3.51,5.2.43,0A7.48,7.48,0,0,0,15.48,8,7.29,7.29,0,0,0,14.8,4.9ZM5.35,8A2.68,2.68,0,1,0,8,5.32,2.68,2.68,0,0,0,5.35,8ZM8,11.82A3.84,3.84,0,0,1,4.75,10h0c0-.09-.1-.17-.14-.26L2,5.21l-.53-.88a7.48,7.48,0,0,0,5.14,11l2.5-3.69A4.1,4.1,0,0,1,8,11.82ZM7.66,4.19h.52l6.18-.12A7.48,7.48,0,0,0,2,3.54L4.25,7.28A3.81,3.81,0,0,1,7.66,4.19Z"/></svg>