<svg width="16" height="16" viewBox="0 0 16 16" fill="none" xmlns="http://www.w3.org/2000/svg">
<path d="M13.497 10.0271H8.656V11.6407H13.497V10.0271Z" fill="black"/>
<path d="M13.497 12.4475H8.656V14.0612H13.497V12.4475Z" fill="black"/>
<path d="M13.143 3.16155H12.75V1.055H11.25V3.16155H4.75V1.055H3.25V3.16155H2.857C2.43096 3.16207 2.02252 3.33152 1.72126 3.63271C1.42001 3.9339 1.25053 4.34225 1.25 4.7682V13.3383C1.25053 13.7643 1.42001 14.1726 1.72126 14.4738C2.02252 14.775 2.43096 14.9445 2.857 14.945H5.976V13.4453H2.857C2.82862 13.4453 2.80141 13.4341 2.78134 13.414C2.76127 13.3939 2.75 13.3667 2.75 13.3383V7.05371H14.75V4.7682C14.7495 4.34225 14.58 3.9339 14.2787 3.63271C13.9775 3.33152 13.569 3.16207 13.143 3.16155Z" fill="black"/>
</svg>
