<svg width="16" height="16" viewBox="0 0 16 16" fill="none" xmlns="http://www.w3.org/2000/svg">
<path d="M13.497 10.0271H8.656V11.6407H13.497V10.0271Z" fill="black"/>
<path d="M13.497 12.4475H8.656V14.0612H13.497V12.4475Z" fill="black"/>
<path d="M13.143 3.16154H12.75V1.05499H11.25V3.16154H4.75V1.05499H3.25V3.16154H2.857C2.43096 3.16207 2.02252 3.33151 1.72126 3.6327C1.42001 3.93389 1.25053 4.34224 1.25 4.76819V13.3383C1.25053 13.7643 1.42001 14.1726 1.72126 14.4738C2.02252 14.775 2.43096 14.9445 2.857 14.945H5.976V13.4453H2.857C2.82862 13.4453 2.80141 13.434 2.78134 13.414C2.76127 13.3939 2.75 13.3667 2.75 13.3383V7.0537H14.75V4.76819C14.7495 4.34224 14.58 3.93389 14.2787 3.6327C13.9775 3.33151 13.569 3.16207 13.143 3.16154Z" fill="black"/>
</svg>
