<svg id="Layer_1" data-name="Layer 1" xmlns="http://www.w3.org/2000/svg" viewBox="0 0 16 16"><title>file-pdf</title><path id="path0_fill" data-name="path0 fill" d="M9.86,0H2.31A.8.8,0,0,0,1.5.8V15.2a.8.8,0,0,0,.81.8H13.69a.8.8,0,0,0,.81-.8v-11Zm2.58,4.15H10A.12.12,0,0,1,9.85,4V1.85Zm.7,10.5H2.86V1.35H8.5V4A1.47,1.47,0,0,0,10,5.51h3.17Z"/><path id="path1_fill" data-name="path1 fill" d="M10.82,10.18a1.1,1.1,0,0,0-1-.46,4,4,0,0,0-.7.06,7.44,7.44,0,0,1-1-1.53c.3-1.31.11-1.73-.06-1.94A.77.77,0,0,0,7.41,6a.91.91,0,0,0-.26,0,.77.77,0,0,0-.52.49,2.38,2.38,0,0,0,.27,1.8,16,16,0,0,1-.85,2.36c-1,.47-1.51.94-1.57,1.47a.94.94,0,0,0,.41.87.75.75,0,0,0,.45.16,1.29,1.29,0,0,0,1-.66,7.52,7.52,0,0,0,.57-1A13.44,13.44,0,0,1,8.71,11a1.84,1.84,0,0,0,1.16.53,1,1,0,0,0,.82-.44A.81.81,0,0,0,10.82,10.18Zm-.75.45a.2.2,0,0,1-.2.12,1,1,0,0,1-.51-.25l.43,0a.71.71,0,0,1,.34,0S10.11,10.6,10.07,10.63ZM5.22,12.3c0-.13.23-.37.76-.67-.4.73-.61.82-.64.84S5.22,12.32,5.22,12.3ZM7.39,7.62a1.22,1.22,0,0,1-.07-.75s0-.06.06-.06h0A1.51,1.51,0,0,1,7.39,7.62Zm.14,1.27a9.13,9.13,0,0,0,.94,1.37,11.44,11.44,0,0,0-1.6.51A18.22,18.22,0,0,0,7.53,8.89Z"/></svg>