<svg id="Layer_1" data-name="Layer 1" xmlns="http://www.w3.org/2000/svg" viewBox="0 0 16 16"><title>firefox</title><path d="M14.359,3.319a.087.087,0,0,0-.1-.034h0a.086.086,0,0,0-.057.116,4.954,4.954,0,0,1,.178.495,6.268,6.268,0,0,1,.134.713l-.036.01a5.747,5.747,0,0,0-1.262-1.662v0a6.106,6.106,0,0,0-1.936-1.183.114.114,0,0,0-.12.19C12.41,3.1,12.911,3.844,12.925,4.518h0a4.008,4.008,0,0,0-1.212-.92.1.1,0,0,0-.106.022h0a.1.1,0,0,0-.005.142,5.663,5.663,0,0,1,1.364,4.383v.01c-.107,2.335-2.7,3.987-4.627,3.987s-2.449-.811-2.449-.811l.005-.018,0-.02.007-.026,0-.019a4.211,4.211,0,0,0,2.866-.955,1.089,1.089,0,0,1,.6-.131c.295-.01.39-.135.222-.4a.958.958,0,0,0-.276-.284A1.555,1.555,0,0,0,7.878,9.27c-.25.086-.5.178-.752.253a1.851,1.851,0,0,1-2.254-1.18.871.871,0,0,1-.045-.3h0v0a.379.379,0,0,1,.088-.234.591.591,0,0,1,.6-.257h.007a.527.527,0,0,1,.365.153h0a1.571,1.571,0,0,0,.069-.617.588.588,0,0,1-.019-.211V6.866h0A.492.492,0,0,1,6.2,6.508c.284-.18.6-.317.864-.519a1.969,1.969,0,0,0,.567-.609c.192-.367.075-.514-.351-.54-.367-.023-.734-.034-1.1-.053a.627.627,0,0,1-.591-.908c.231-.444.539-.846.813-1.268a2.7,2.7,0,0,0-2.5.873C3.5,3.5,3.113,3.5,2.723,3.5a3.021,3.021,0,0,1-1.1-1.426,3.18,3.18,0,0,0-.777,1.85,4.854,4.854,0,0,1-.1,1.059q-.048.15-.093.3a7.743,7.743,0,1,0,13.7-1.959Z"/></svg>