<svg id="Layer_1" data-name="Layer 1" xmlns="http://www.w3.org/2000/svg" viewBox="0 0 16 16"><title>folder-back</title><path d="M14.72,3.27a.6.6,0,0,0-.6-.59H8.26V2.4a.86.86,0,0,0-.85-.86H2.06a.86.86,0,0,0-.85.86v.28H.67a.59.59,0,0,0-.59.59V5.39H14.72Z"/><path d="M6,13.56a1.19,1.19,0,0,1-.56-1,1.16,1.16,0,0,1,.56-1l5.69-3.46H12a1.12,1.12,0,0,1,1.12,1.11v.89h2.23l.6-3.4H.08v7.17a.81.81,0,0,0,.81.81h7Z"/><path d="M16,13.88a.15.15,0,0,1-.14.15H12.08v1.86a.1.1,0,0,1-.16.09L6.47,12.7a.14.14,0,0,1,0-.25l5.45-3.32a.11.11,0,0,1,.16.1v1.89h3.73a.15.15,0,0,1,.14.15Z"/></svg>