<svg id="Layer_1" data-name="Layer 1" xmlns="http://www.w3.org/2000/svg" viewBox="0 0 16 16"><title>kiosk</title><g id="Kiosk_Alt2" data-name="Kiosk Alt2"><path id="Line_4_Stroke_" data-name="Line 4 (Stroke)" d="M5,7.25a.75.75,0,0,1,.75-.75h2.5a.75.75,0,0,1,0,1.5H5.75A.75.75,0,0,1,5,7.25Z"/><path id="Line_3_Stroke_" data-name="Line 3 (Stroke)" d="M5,4.25a.75.75,0,0,1,.75-.75h4.5a.75.75,0,0,1,0,1.5H5.75A.75.75,0,0,1,5,4.25Z"/><path id="Union" d="M2.5,1.5A1.5,1.5,0,0,1,4,0h8a1.5,1.5,0,0,1,1.5,1.5V11A1.5,1.5,0,0,1,12,12.5H8.75v2h3a.75.75,0,0,1,0,1.5H4.25a.75.75,0,0,1,0-1.5h3v-2H4A1.5,1.5,0,0,1,2.5,11Zm2,.5a.5.5,0,0,0-.5.5V10a.5.5,0,0,0,.5.5h7A.5.5,0,0,0,12,10V2.5a.5.5,0,0,0-.5-.5Z"/></g></svg>