<svg id="Layer_1" data-name="Layer 1" xmlns="http://www.w3.org/2000/svg" viewBox="0 0 16 16"><title>light</title><path d="M8.048,2.53a.5.5,0,0,0,.5-.5V.535a.5.5,0,0,0-1,0v1.5A.5.5,0,0,0,8.048,2.53Z"/><path d="M4.623,3.083a.5.5,0,0,0,.432.25.507.507,0,0,0,.25-.067.5.5,0,0,0,.182-.682l-.749-1.3a.5.5,0,1,0-.864.5Z"/><path d="M2.56,8.018a.5.5,0,0,0-.5-.5H.565a.5.5,0,1,0,0,1h1.5A.5.5,0,0,0,2.56,8.018Z"/><path d="M13.232,5.524a.5.5,0,0,0,.249-.067l1.3-.749a.5.5,0,1,0-.5-.863l-1.3.748a.5.5,0,0,0,.25.931Z"/><path d="M10.791,3.266a.5.5,0,0,0,.683-.183l.748-1.3a.5.5,0,0,0-.866-.5l-.748,1.3A.5.5,0,0,0,10.791,3.266Z"/><path d="M2.614,10.579l-1.3.748a.5.5,0,0,0,.5.865l1.3-.749a.5.5,0,0,0-.5-.864Z"/><path d="M15.53,7.519h-1.5a.5.5,0,0,0,0,1h1.5a.5.5,0,0,0,0-1Z"/><path d="M8.048,3.447a4.572,4.572,0,1,0,4.571,4.571A4.576,4.576,0,0,0,8.048,3.447Z"/><path d="M3.113,4.593l-1.3-.748a.5.5,0,0,0-.5.863l1.3.749a.5.5,0,0,0,.5-.864Z"/><path d="M14.777,11.327l-1.3-.748a.5.5,0,0,0-.5.864l1.3.749a.5.5,0,0,0,.249.066.5.5,0,0,0,.25-.931Z"/><path d="M11.474,12.952a.5.5,0,0,0-.866.5l.748,1.3a.5.5,0,0,0,.433.249.491.491,0,0,0,.25-.067.5.5,0,0,0,.183-.681Z"/><path d="M8.048,13.506a.5.5,0,0,0-.5.5V15.5a.5.5,0,1,0,1,0V14.005A.5.5,0,0,0,8.048,13.506Z"/><path d="M5.305,12.77a.5.5,0,0,0-.682.182l-.749,1.3a.5.5,0,0,0,.183.682A.492.492,0,0,0,4.305,15a.5.5,0,0,0,.433-.251l.749-1.295A.5.5,0,0,0,5.305,12.77Z"/></svg>