<svg id="Layer_1" data-name="Layer 1" xmlns="http://www.w3.org/2000/svg" viewBox="0 0 16 16"><title>people</title><g id="Canvas"><g id="People"><g id="Union"><path id="path0_fill" data-name="path0 fill" d="M11,4.5a3,3,0,1,1-3-3A3,3,0,0,1,11,4.5Zm-.79,3.92a4.5,4.5,0,1,0-4.42,0L3.23,9.49A2,2,0,0,0,2,11.33V14a2,2,0,0,0,2,2h8a2,2,0,0,0,2-2V11.33a2,2,0,0,0-1.23-1.84Zm2.29,2.91V14a.5.5,0,0,1-.5.5H4a.5.5,0,0,1-.5-.5V11.33a.5.5,0,0,1,.31-.46l4-1.66a.42.42,0,0,1,.38,0l4,1.66A.5.5,0,0,1,12.5,11.33Z"/></g></g></g></svg>