<svg width="16" height="16" viewBox="0 0 16 16" fill="none" xmlns="http://www.w3.org/2000/svg">
<path d="M11 4.49924C11 5.09262 10.8241 5.67268 10.4944 6.16606C10.1648 6.65944 9.69623 7.04398 9.14805 7.27106C8.59987 7.49814 7.99667 7.55755 7.41473 7.44179C6.83279 7.32602 6.29824 7.04028 5.87868 6.6207C5.45912 6.20111 5.1734 5.66653 5.05764 5.08455C4.94189 4.50256 5.0013 3.89932 5.22836 3.35111C5.45542 2.80289 5.83994 2.33433 6.33329 2.00466C6.82664 1.67499 7.40666 1.49904 8 1.49904C8.79565 1.49904 9.55871 1.81513 10.1213 2.37777C10.6839 2.94042 11 3.70353 11 4.49924ZM10.21 8.4205C11.0763 7.93203 11.7565 7.1703 12.1441 6.25435C12.5318 5.3384 12.6051 4.31982 12.3526 3.35779C12.1001 2.39577 11.536 1.54449 10.7486 0.936993C9.96108 0.329494 8.99455 0 8 0C7.00545 0 6.03892 0.329494 5.25145 0.936993C4.46397 1.54449 3.89992 2.39577 3.64743 3.35779C3.39494 4.31982 3.46824 5.3384 3.85588 6.25435C4.24352 7.1703 4.92365 7.93203 5.79 8.4205L3.231 9.48657C2.8665 9.6384 2.5551 9.89473 2.33604 10.2233C2.11697 10.5518 2.00005 10.9378 2 11.3327V13.9999C2 14.5303 2.21071 15.0391 2.58579 15.4142C2.96086 15.7893 3.46957 16 4 16H12C12.5304 16 13.0391 15.7893 13.4142 15.4142C13.7893 15.0391 14 14.5303 14 13.9999V11.3327C14 10.9378 13.883 10.5518 13.664 10.2233C13.4449 9.89473 13.1335 9.6384 12.769 9.48657L10.21 8.4205ZM12.5 11.3327V13.9999C12.5 14.1325 12.4473 14.2597 12.3536 14.3534C12.2598 14.4472 12.1326 14.4999 12 14.4999H4C3.86739 14.4999 3.74021 14.4472 3.64645 14.3534C3.55268 14.2597 3.5 14.1325 3.5 13.9999V11.3327C3.50013 11.234 3.52945 11.1376 3.58425 11.0556C3.63906 10.9735 3.71691 10.9095 3.808 10.8717L7.808 9.20455C7.86885 9.17924 7.9341 9.16621 8 9.16621C8.0659 9.16621 8.13115 9.17924 8.192 9.20455L12.192 10.8717C12.2831 10.9095 12.3609 10.9735 12.4157 11.0556C12.4706 11.1376 12.4999 11.234 12.5 11.3327Z" fill="black"/>
</svg>
