<svg id="Layer_1" data-name="Layer 1" xmlns="http://www.w3.org/2000/svg" viewBox="0 0 16 16"><title>questions</title><path d="M7.984.092A7.819,7.819,0,1,0,15.8,7.911,7.819,7.819,0,0,0,7.984.092Zm0,13.706a5.888,5.888,0,1,1,5.888-5.887A5.887,5.887,0,0,1,7.986,13.8Z"/><path d="M8.622,10.834H6.962a.317.317,0,0,0-.3.3v1.579a.3.3,0,0,0,.092.217.276.276,0,0,0,.211.1h1.66a.264.264,0,0,0,.208-.1.311.311,0,0,0,.087-.217V11.138a.31.31,0,0,0-.082-.211A.269.269,0,0,0,8.622,10.834Z"/><path d="M10.232,3.826a3.54,3.54,0,0,0-1.049-.537A3.79,3.79,0,0,0,8.025,3.1a3.665,3.665,0,0,0-1.148.168,5.245,5.245,0,0,0-.865.359,2.676,2.676,0,0,0-.536.359c-.122.111-.19.173-.2.188a.3.3,0,0,0-.03.394L6.2,5.733a.28.28,0,0,0,.2.12.465.465,0,0,0,.233-.06l.1-.08a1.815,1.815,0,0,1,.277-.178,2.392,2.392,0,0,1,.4-.167,1.49,1.49,0,0,1,.471-.07,1.1,1.1,0,0,1,.7.227.714.714,0,0,1,.289.582.944.944,0,0,1-.248.652A7.492,7.492,0,0,1,8,7.372c-.154.122-.311.259-.47.409A3.2,3.2,0,0,0,7.1,8.3a2.791,2.791,0,0,0-.32.642,1.655,1.655,0,0,0-.121.66v.359a.287.287,0,0,0,.092.211.282.282,0,0,0,.211.09h1.66a.27.27,0,0,0,.208-.09.293.293,0,0,0,.087-.211V9.594c0-.265.085-.2.258-.384s.382-.39.632-.613a5.078,5.078,0,0,0,.5-.465,4.875,4.875,0,0,0,.465-.578,2.774,2.774,0,0,0,.349-.7,2.86,2.86,0,0,0,.132-.916,2.624,2.624,0,0,0-.279-1.226A2.568,2.568,0,0,0,10.232,3.826Z"/></svg>