<svg width="16" height="16" viewBox="0 0 16 16" fill="none" xmlns="http://www.w3.org/2000/svg">
<path d="M14 0H2C1.46957 0 0.960859 0.210714 0.585786 0.585786C0.210714 0.960859 0 1.46957 0 2L0 14C0 14.5304 0.210714 15.0391 0.585786 15.4142C0.960859 15.7893 1.46957 16 2 16H14C14.5304 16 15.0391 15.7893 15.4142 15.4142C15.7893 15.0391 16 14.5304 16 14V2C16 1.46957 15.7893 0.960859 15.4142 0.585786C15.0391 0.210714 14.5304 0 14 0V0ZM5 12.5C4.60444 12.5 4.21776 12.3827 3.88886 12.1629C3.55996 11.9432 3.30362 11.6308 3.15224 11.2654C3.00087 10.8999 2.96126 10.4978 3.03843 10.1098C3.1156 9.72186 3.30608 9.36549 3.58579 9.08579C3.86549 8.80608 4.22186 8.6156 4.60982 8.53843C4.99778 8.46126 5.39991 8.50087 5.76537 8.65224C6.13082 8.80362 6.44318 9.05996 6.66294 9.38886C6.8827 9.71776 7 10.1044 7 10.5C7 11.0304 6.78929 11.5391 6.41421 11.9142C6.03914 12.2893 5.53043 12.5 5 12.5ZM6 5C6 4.60444 6.1173 4.21776 6.33706 3.88886C6.55682 3.55996 6.86918 3.30362 7.23463 3.15224C7.60009 3.00087 8.00222 2.96126 8.39018 3.03843C8.77814 3.1156 9.13451 3.30608 9.41421 3.58579C9.69392 3.86549 9.8844 4.22186 9.96157 4.60982C10.0387 4.99778 9.99913 5.39991 9.84776 5.76537C9.69638 6.13082 9.44004 6.44318 9.11114 6.66294C8.78224 6.8827 8.39556 7 8 7C7.46957 7 6.96086 6.78929 6.58579 6.41421C6.21071 6.03914 6 5.53043 6 5ZM11 12.5C10.6044 12.5 10.2178 12.3827 9.88886 12.1629C9.55996 11.9432 9.30362 11.6308 9.15224 11.2654C9.00087 10.8999 8.96126 10.4978 9.03843 10.1098C9.1156 9.72186 9.30608 9.36549 9.58579 9.08579C9.86549 8.80608 10.2219 8.6156 10.6098 8.53843C10.9978 8.46126 11.3999 8.50087 11.7654 8.65224C12.1308 8.80362 12.4432 9.05996 12.6629 9.38886C12.8827 9.71776 13 10.1044 13 10.5C13 11.0304 12.7893 11.5391 12.4142 11.9142C12.0391 12.2893 11.5304 12.5 11 12.5Z" fill="black"/>
</svg>
