<svg width="16" height="16" viewBox="0 0 16 16" fill="none" xmlns="http://www.w3.org/2000/svg">
<path d="M8 7C9.10457 7 10 6.10457 10 5C10 3.89543 9.10457 3 8 3C6.89543 3 6 3.89543 6 5C6 6.10457 6.89543 7 8 7Z" fill="black"/>
<path d="M5 12.5C6.10457 12.5 7 11.6046 7 10.5C7 9.39543 6.10457 8.5 5 8.5C3.89543 8.5 3 9.39543 3 10.5C3 11.6046 3.89543 12.5 5 12.5Z" fill="black"/>
<path d="M11 12.5C12.1046 12.5 13 11.6046 13 10.5C13 9.39543 12.1046 8.5 11 8.5C9.89543 8.5 9 9.39543 9 10.5C9 11.6046 9.89543 12.5 11 12.5Z" fill="black"/>
<path d="M14 0H2C1.46957 0 0.960859 0.210714 0.585786 0.585786C0.210714 0.960859 0 1.46957 0 2V14C0 14.5304 0.210714 15.0391 0.585786 15.4142C0.960859 15.7893 1.46957 16 2 16H14C14.5304 16 15.0391 15.7893 15.4142 15.4142C15.7893 15.0391 16 14.5304 16 14V2C16 1.46957 15.7893 0.960859 15.4142 0.585786C15.0391 0.210714 14.5304 0 14 0ZM14.5 14C14.5 14.1326 14.4473 14.2598 14.3536 14.3536C14.2598 14.4473 14.1326 14.5 14 14.5H2C1.86739 14.5 1.74021 14.4473 1.64645 14.3536C1.55268 14.2598 1.5 14.1326 1.5 14V2C1.5 1.86739 1.55268 1.74021 1.64645 1.64645C1.74021 1.55268 1.86739 1.5 2 1.5H14C14.1326 1.5 14.2598 1.55268 14.3536 1.64645C14.4473 1.74021 14.5 1.86739 14.5 2V14Z" fill="black"/>
</svg>
