<svg xmlns="http://www.w3.org/2000/svg" viewBox="0 0 16 16"><defs><style>.cls-1{fill:#231f20;}</style></defs><title>ach</title><g id="Layer_1" data-name="Layer 1"><path class="cls-1" d="M15.359,2H.593a.606.606,0,0,0-.535.332.522.522,0,0,0-.076.262v10.8h0a.578.578,0,0,0,.045.221l0,.016,0,0A.611.611,0,0,0,.593,14H15.359a.612.612,0,0,0,.612-.612V2.608A.612.612,0,0,0,15.359,2ZM14.62,12.654H1.331V3.346H14.62Z"/><path class="cls-1" d="M4.854,5.554,6.125,10.4H5.183l-.222-.965H3.612l-.228.965H2.443l1.241-4.85Zm-.57.865H4.26L3.78,8.613h.99Z"/><path class="cls-1" d="M6.372,7.186c0-1.109.54-1.737,1.565-1.737a1.492,1.492,0,0,1,.965.323A1.8,1.8,0,0,1,9.359,7.1H8.393c-.006-.237-.018-.767-.5-.767a.535.535,0,0,0-.366.152.739.739,0,0,0-.162.528V8.857c0,.264,0,.772.534.772.4,0,.516-.356.516-.878h.972a3.375,3.375,0,0,1-.042.595,1.391,1.391,0,0,1-.462.865,1.531,1.531,0,0,1-.959.323,1.432,1.432,0,0,1-1.139-.429c-.18-.192-.414-.47-.414-1.461Z"/><path class="cls-1" d="M10.032,5.554h.978V7.391h1.235V5.554h.99V10.4h-.972V8.309H11.016V10.4h-.984Z"/></g></svg>