<svg xmlns="http://www.w3.org/2000/svg" viewBox="0 0 16 16"><defs><style>.cls-1{fill:#010101;}</style></defs><title>deposit</title><g id="Layer_1" data-name="Layer 1"><rect class="cls-1" x="1.633" y="11.454" width="12.542" height="1.266"/><rect class="cls-1" x="2.091" y="5.954" width="1.266" height="4.933"/><path class="cls-1" d="M9.884,8.42A1.979,1.979,0,1,0,7.905,10.4,1.981,1.981,0,0,0,9.884,8.42Zm-1.309,0a.67.67,0,1,1-.67-.67A.671.671,0,0,1,8.575,8.42Z"/><rect class="cls-1" x="3.924" y="5.954" width="1.267" height="4.933"/><rect class="cls-1" x="12.442" y="5.946" width="1.267" height="4.933"/><rect class="cls-1" x="0.397" y="13.287" width="15.015" height="1.266"/><rect class="cls-1" x="10.609" y="5.946" width="1.267" height="4.933"/><path class="cls-1" d="M15.688,5.063,7.979.35a.173.173,0,0,0-.183,0L.121,5.063a.175.175,0,0,0,.092.324H15.6a.175.175,0,0,0,.091-.324ZM3.855,4.121,7.889,1.844l4.033,2.277Z"/></g></svg>