<svg xmlns="http://www.w3.org/2000/svg" viewBox="0 0 16 16"><defs><style>.cls-1{fill:#010101;fill-rule:evenodd;}</style></defs><title>payment-methods</title><g id="Layer_1" data-name="Layer 1"><path class="cls-1" d="M14.9,0H2.42L4.669,1.492h8.515a.56.56,0,0,1,.577.54V2.04a.56.56,0,0,1-.577.54H6.335L7.871,3.6h5.312a.56.56,0,0,1,.577.54v.008a.56.56,0,0,1-.577.54H9.616l.053.035a1.99,1.99,0,0,1,.892,1.662v4.661H14.9a.722.722,0,0,0,.722-.721V.722A.722.722,0,0,0,14.9,0Z"/><path class="cls-1" d="M9.265,5.587.937.06a.358.358,0,0,0-.556.3V8.447a1.172,1.172,0,0,0,.451.924l8.283,6.462a.358.358,0,0,0,.578-.282V6.384A.957.957,0,0,0,9.265,5.587Z"/></g></svg>