<svg xmlns="http://www.w3.org/2000/svg" viewBox="0 0 16 16"><title>transfers</title><g data-name="Layer 1"><path class="cls-1" d="M2.825 9.8l.467-.577c.028-.034.062-.041.09-.014a1.6 1.6 0 0 0 .825.364V8.4a1.35 1.35 0 0 1-1.293-1.358A1.415 1.415 0 0 1 4.206 5.6v-.407a.065.065 0 0 1 .069-.069h.316a.065.065 0 0 1 .069.069V5.6a2.343 2.343 0 0 1 1.092.371.069.069 0 0 1 .014.1l-.4.577a.069.069 0 0 1-.1.021 1.719 1.719 0 0 0-.606-.239v1.107A1.328 1.328 0 0 1 5.959 8.9a1.423 1.423 0 0 1-1.3 1.478v.422a.065.065 0 0 1-.069.069h-.315a.065.065 0 0 1-.069-.069v-.4a2.4 2.4 0 0 1-1.368-.5.07.07 0 0 1-.013-.1zm1.381-3.336a.521.521 0 0 0-.344.5.461.461 0 0 0 .344.481zm.8 2.488a.46.46 0 0 0-.351-.461v1.032a.563.563 0 0 0 .356-.57zm3.336-1.413V6.425a1.8 1.8 0 0 1 .605.244.067.067 0 0 0 .1-.02l.4-.576a.071.071 0 0 0-.02-.107A2.339 2.339 0 0 0 8.342 5.6v-.4a.067.067 0 0 0-.068-.068h-.323a.067.067 0 0 0-.068.068v.4a1.412 1.412 0 0 0-1.289 1.441A1.356 1.356 0 0 0 7.883 8.4v1.17a1.514 1.514 0 0 1-.82-.361.066.066 0 0 0-.1.01l-.459.576a.069.069 0 0 0 .01.107 2.362 2.362 0 0 0 1.367.5v.4a.067.067 0 0 0 .068.068h.322a.067.067 0 0 0 .068-.068v-.42a1.6 1.6 0 0 0 .449-.127v-.01l.83-1.552a1.335 1.335 0 0 0-1.276-1.154zm-.459-.088a.463.463 0 0 1-.342-.488.508.508 0 0 1 .342-.5zm.459 2.07V8.5a.448.448 0 0 1 .342.459.551.551 0 0 1-.342.562zm4.794-3.574a2.379 2.379 0 0 0-1.094-.371v-.4a.062.062 0 0 0-.068-.068h-.312a.062.062 0 0 0-.068.068v.4a1.421 1.421 0 0 0-1.3 1.445 1.28 1.28 0 0 0 .3.859 3.835 3.835 0 0 1 1.445-.527v-.947a1.844 1.844 0 0 1 .615.244.078.078 0 0 0 .1-.02l.4-.576a.078.078 0 0 0-.018-.107zm-1.543 1.484a.463.463 0 0 1-.342-.488.508.508 0 0 1 .342-.5z"/><path class="cls-1" d="M15.186 2.149H.764a.576.576 0 0 0-.518.322.459.459 0 0 0-.078.254V13.27a.5.5 0 0 0 .049.215v.02a.6.6 0 0 0 .547.361h8.759a3.9 3.9 0 0 1-.7-1.318H1.487V3.467h12.977v4.247a3.949 3.949 0 0 1 1.318 1.016V2.744a.592.592 0 0 0-.596-.595z"/><path class="cls-1" d="M12.685 8.215a3.127 3.127 0 1 0 3.127 3.127 3.127 3.127 0 0 0-3.127-3.127zm0 5.35a2.223 2.223 0 1 1 2.223-2.223 2.223 2.223 0 0 1-2.223 2.223z"/><path class="cls-1" d="M12.95 10.337l-.278.281.373.369a1.5 1.5 0 0 0-.766.079 1.46 1.46 0 0 0-.725.605l.287.3a1.014 1.014 0 0 1 .584-.544 1.148 1.148 0 0 1 .641-.041l-.389.392.28.278.859-.866z"/></g></svg>