<svg xmlns="http://www.w3.org/2000/svg" viewBox="0 0 16 16"><defs><style>.cls-1{fill:#010101}</style></defs><title>trash-circle-outline</title><g id="Layer_1" data-name="Layer 1"><path class="cls-1" d="M8.048.139a7.824 7.824 0 1 0 7.824 7.824A7.833 7.833 0 0 0 8.048.139zm0 15.058a7.235 7.235 0 1 1 7.235-7.235A7.243 7.243 0 0 1 8.048 15.2z"/><path class="cls-1" d="M11.112 5.8h-1.6V4.678a.337.337 0 0 0-.336-.336H6.94a.337.337 0 0 0-.336.336V5.8H5a.336.336 0 1 0 0 .672h.518v4.818a.336.336 0 0 0 .336.336h4.4a.336.336 0 0 0 .336-.336V6.473h.518a.336.336 0 0 0 0-.672zm-3.836-.786h1.565V5.8H7.276zm2.646 5.941H6.195V6.473h3.727z"/><path class="cls-1" d="M8.788 10.526a.332.332 0 0 0 .331-.331V7.213a.331.331 0 1 0-.663 0v2.982a.331.331 0 0 0 .332.331zm-1.46 0a.331.331 0 0 0 .331-.331V7.213a.331.331 0 0 0-.663 0v2.982a.332.332 0 0 0 .332.331z"/></g></svg>