<svg xmlns="http://www.w3.org/2000/svg" viewBox="0 0 16 16"><defs><style>.cls-1{fill:#231f20;fill-rule:evenodd;}</style></defs><title>plans</title><g id="Layer_1" data-name="Layer 1"><path class="cls-1" d="M13.681.9H12.574V-.022L3.366-.044V.9h-1a1.77,1.77,0,0,0-1.77,1.77V14.507c0,.977.793,1.488,1.77,1.488H13.681c.978,0,1.77-.511,1.77-1.488V2.671A1.77,1.77,0,0,0,13.681.9Zm-1.509.291L10.678,2.806H5.2L3.762,1.191Zm1.4,12.921H2.457V3.718H13.573ZM12.107,11.29h-8.3v.954h8.3Zm0-5.715h-8.3v.953h8.3Zm0,2.88h-8.3v.951h8.3Z"/></g></svg>