<svg width="146" height="32" viewBox="0 0 146 32" fill="none" xmlns="http://www.w3.org/2000/svg">
<path d="M13.82 3C3.44 3 0.839996 5.61 0.839996 16C0.839996 26.39 3.44 29 13.84 29C24.24 29 26.84 26.41 26.84 16C26.84 5.59 24.2 3 13.82 3Z" fill="url(#paint0_linear)"/>
<path d="M19.25 11.32H18.08V10.41C18.08 10.219 18.0041 10.0359 17.8691 9.90089C17.7341 9.76586 17.551 9.69 17.36 9.69H17C16.809 9.69 16.6259 9.76586 16.4909 9.90089C16.3559 10.0359 16.28 10.219 16.28 10.41V11.32H11.28V10.41C11.28 10.219 11.2041 10.0359 11.0691 9.90089C10.9341 9.76586 10.751 9.69 10.56 9.69H10.28C10.089 9.69 9.90591 9.76586 9.77088 9.90089C9.63585 10.0359 9.56 10.219 9.56 10.41V11.32H8.38C8.17843 11.32 7.98512 11.4001 7.84259 11.5426C7.70007 11.6851 7.62 11.8784 7.62 12.08V21.3C7.62 21.5016 7.70007 21.6949 7.84259 21.8374C7.98512 21.9799 8.17843 22.06 8.38 22.06H19.25C19.4498 22.0574 19.6406 21.9761 19.7809 21.8339C19.9213 21.6917 20 21.4998 20 21.3V12.08C20 11.8802 19.9213 11.6883 19.7809 11.5461C19.6406 11.4039 19.4498 11.3226 19.25 11.32ZM18.08 20.06H9.56V14.69H18.08V20.06Z" fill="white"/>
<path d="M43.82 18.18C43.6781 18.0582 43.4945 17.9964 43.3079 18.0076C43.1212 18.0188 42.9463 18.1021 42.82 18.24L42.51 18.55C42.1874 18.9437 41.7815 19.261 41.3216 19.4789C40.8616 19.6967 40.359 19.8098 39.85 19.81C39.3422 19.7959 38.8422 19.6807 38.3795 19.4711C37.9167 19.2615 37.5004 18.9617 37.1549 18.5892C36.8094 18.2167 36.5417 17.779 36.3675 17.3018C36.1932 16.8246 36.1159 16.3175 36.14 15.81C36.1185 15.2958 36.2007 14.7825 36.3815 14.3006C36.5623 13.8188 36.8382 13.3782 37.1927 13.005C37.5471 12.6319 37.973 12.3338 38.445 12.1285C38.9169 11.9232 39.4253 11.8149 39.94 11.81C40.9287 11.8769 41.8516 12.3294 42.51 13.07C42.73 13.29 43.07 13.63 43.51 13.21L44.51 12.29C44.5915 12.2267 44.6595 12.1476 44.7098 12.0575C44.7602 11.9674 44.7919 11.868 44.8031 11.7654C44.8143 11.6628 44.8047 11.559 44.775 11.4601C44.7452 11.3613 44.6959 11.2694 44.63 11.19C44.0723 10.4513 43.345 9.85757 42.5096 9.459C41.6741 9.06043 40.7551 8.8687 39.83 8.9C38.0202 8.92373 36.2934 9.66275 35.0267 10.9556C33.7601 12.2485 33.0566 13.9901 33.07 15.8C33.0514 16.6968 33.2119 17.5883 33.5423 18.4223C33.8727 19.2563 34.3662 20.0159 34.9939 20.6567C35.6216 21.2974 36.371 21.8065 37.198 22.1539C38.025 22.5013 38.913 22.6802 39.81 22.68C40.8217 22.7021 41.8226 22.468 42.7195 21.9995C43.6164 21.5309 44.3803 20.8431 44.94 20C45.1 19.76 45.19 19.37 44.69 18.91L43.82 18.18Z" fill="#333132"/>
<path d="M52 8.94C50.4728 8.93834 48.9558 9.18835 47.51 9.68C47.4167 9.70407 47.3294 9.74686 47.2532 9.80576C47.177 9.86467 47.1136 9.93847 47.0668 10.0227C47.02 10.1068 46.9909 10.1997 46.9811 10.2955C46.9713 10.3913 46.9812 10.4881 47.01 10.58L47.26 11.65C47.2727 11.7515 47.3067 11.8491 47.3595 11.9366C47.4124 12.0242 47.4831 12.0996 47.567 12.158C47.6509 12.2165 47.7462 12.2567 47.8466 12.2759C47.947 12.2952 48.0504 12.2932 48.15 12.27C49.3064 11.9041 50.5077 11.6988 51.72 11.66C51.9724 11.6373 52.2267 11.6663 52.4675 11.7454C52.7082 11.8245 52.9303 11.952 53.12 12.12C53.5893 12.7583 53.787 13.5564 53.67 14.34C52.8584 14.1184 52.0213 14.0041 51.18 14C47.96 14 45.88 15.69 45.88 18.3C45.8373 18.8812 45.9178 19.4649 46.1163 20.0129C46.3147 20.5608 46.6266 21.0607 47.0316 21.4798C47.4366 21.8989 47.9254 22.2278 48.4663 22.445C49.0071 22.6621 49.5876 22.7627 50.17 22.74C51.6245 22.7517 53.028 22.2039 54.09 21.21L54.34 21.9C54.47 22.22 54.63 22.43 54.99 22.43H55.91C56.1039 22.4226 56.2878 22.3422 56.425 22.205C56.5622 22.0678 56.6426 21.8839 56.65 21.69V14.78C56.65 11.59 56.3 8.94 52 8.94ZM50.76 20.17C50.5041 20.1901 50.2469 20.154 50.0064 20.0642C49.7659 19.9743 49.548 19.833 49.3679 19.6501C49.1879 19.4671 49.05 19.247 48.964 19.0052C48.8779 18.7633 48.8459 18.5056 48.87 18.25C48.87 17.05 49.87 16.25 51.4 16.25C52.162 16.2405 52.9188 16.3763 53.63 16.65V18.65C53.2894 19.0952 52.8566 19.4615 52.3612 19.7238C51.8658 19.9862 51.3196 20.1384 50.76 20.17Z" fill="#333132"/>
<path d="M61.5 3.25H59.93C59.5213 3.25 59.19 3.58131 59.19 3.99V21.67C59.19 22.0787 59.5213 22.41 59.93 22.41H61.5C61.9087 22.41 62.24 22.0787 62.24 21.67V3.99C62.24 3.58131 61.9087 3.25 61.5 3.25Z" fill="#333132"/>
<path d="M70.65 8.94C69.7618 8.94178 68.8831 9.12338 68.0669 9.47386C67.2507 9.82433 66.5139 10.3364 65.901 10.9793C65.288 11.6222 64.8116 12.3825 64.5003 13.2144C64.1891 14.0463 64.0495 14.9327 64.09 15.82C64.09 19.82 66.86 22.72 70.68 22.72C72.446 22.7763 74.1737 22.1981 75.55 21.09C75.6302 21.0363 75.6971 20.9652 75.7459 20.8819C75.7947 20.7987 75.824 20.7055 75.8317 20.6093C75.8394 20.5132 75.8253 20.4165 75.7903 20.3266C75.7554 20.2366 75.7006 20.1558 75.63 20.09L74.87 18.91C74.8324 18.8422 74.7809 18.783 74.7189 18.7365C74.6568 18.69 74.5857 18.6571 74.51 18.64C74.3024 18.6258 74.0976 18.6941 73.94 18.83C73.0624 19.5278 71.9712 19.9022 70.85 19.89C69.9325 19.9082 69.0413 19.5829 68.3513 18.9779C67.6612 18.373 67.2221 17.532 67.12 16.62H75.92C76.1002 16.6157 76.2724 16.5448 76.4035 16.4211C76.5346 16.2974 76.6152 16.1296 76.63 15.95C76.63 15.72 76.69 15.27 76.69 15.03C76.7132 14.2282 76.5732 13.43 76.2785 12.684C75.9839 11.9379 75.5406 11.2595 74.9758 10.69C74.4109 10.1204 73.7362 9.67161 72.9926 9.37079C72.249 9.06997 71.452 8.92341 70.65 8.94ZM70.6 11.57C71.3594 11.5338 72.1031 11.7941 72.6741 12.2961C73.2451 12.798 73.5986 13.5022 73.66 14.26H67.27C67.3841 13.4746 67.7905 12.7612 68.4079 12.2624C69.0252 11.7637 69.8081 11.5164 70.6 11.57Z" fill="#333132"/>
<path d="M85.1 8.94001C83.5054 8.91769 81.9654 9.52075 80.81 10.62L80.49 9.71001C80.459 9.56366 80.3761 9.43345 80.2567 9.3434C80.1372 9.25334 79.9892 9.20952 79.84 9.22001H79.17C78.9753 9.22506 78.79 9.30465 78.6523 9.44235C78.5146 9.58004 78.4351 9.76534 78.43 9.96001V21.67C78.4326 21.8655 78.5114 22.0522 78.6496 22.1904C78.7878 22.3286 78.9745 22.4074 79.17 22.41H80.6C81.19 22.41 81.48 22.17 81.48 21.67V13.67C81.8297 13.1161 82.3161 12.6615 82.8922 12.3497C83.4684 12.038 84.115 11.8797 84.77 11.89C86.33 11.89 87.19 13.03 87.19 15.1V21.71C87.1926 21.9055 87.2714 22.0922 87.4096 22.2304C87.5478 22.3686 87.7345 22.4474 87.93 22.45H89.5C89.6939 22.4426 89.8778 22.3622 90.015 22.225C90.1522 22.0878 90.2326 21.9039 90.24 21.71V15.21C90.24 11 88.56 8.94001 85.1 8.94001Z" fill="#333132"/>
<path d="M103.79 3.25H102.19C101.998 3.26391 101.818 3.34634 101.682 3.48222C101.546 3.61809 101.464 3.79834 101.45 3.99V9.56C100.463 9.16618 99.4125 8.95606 98.35 8.94C94.72 8.94 91.98 11.94 91.98 15.82C91.98 19.7 94.63 22.72 97.98 22.72C99.5437 22.6911 101.041 22.0816 102.18 21.01L102.4 21.76C102.421 21.9352 102.505 22.097 102.635 22.2162C102.765 22.3354 102.934 22.4041 103.11 22.41H103.78C103.975 22.4074 104.162 22.3286 104.3 22.1904C104.439 22.0522 104.517 21.8655 104.52 21.67V4C104.515 3.806 104.437 3.62097 104.302 3.48191C104.167 3.34285 103.984 3.26002 103.79 3.25ZM98.39 19.81C96.49 19.81 95.01 18.06 95.01 15.81C94.9611 14.7982 95.316 13.8085 95.9967 13.0583C96.6775 12.3082 97.6283 11.8592 98.64 11.81C99.6292 11.8208 100.602 12.064 101.48 12.52V18C101.17 18.5471 100.721 19.0026 100.178 19.3205C99.6358 19.6383 99.0188 19.8072 98.39 19.81Z" fill="#333132"/>
<path d="M112.34 8.94C110.813 8.93834 109.296 9.18835 107.85 9.68C107.757 9.70407 107.669 9.74686 107.593 9.80576C107.517 9.86467 107.454 9.93847 107.407 10.0227C107.36 10.1068 107.331 10.1997 107.321 10.2955C107.311 10.3913 107.321 10.4881 107.35 10.58L107.6 11.65C107.611 11.7511 107.644 11.8485 107.696 11.936C107.748 12.0235 107.818 12.0991 107.901 12.1576C107.984 12.2162 108.078 12.2565 108.178 12.2759C108.278 12.2952 108.381 12.2932 108.48 12.27C109.64 11.9053 110.845 11.7001 112.06 11.66C112.312 11.6373 112.567 11.6663 112.807 11.7454C113.048 11.8245 113.27 11.952 113.46 12.12C113.929 12.7583 114.127 13.5564 114.01 14.34C113.203 14.1125 112.369 13.9915 111.53 13.98C108.31 13.98 106.22 15.67 106.22 18.28C106.177 18.8621 106.258 19.4467 106.457 19.9953C106.656 20.544 106.969 21.0444 107.375 21.4637C107.781 21.883 108.271 22.2116 108.813 22.4282C109.355 22.6447 109.937 22.7441 110.52 22.72C111.975 22.7317 113.378 22.1839 114.44 21.19L114.69 21.88C114.82 22.2 114.98 22.41 115.34 22.41H116.26C116.454 22.4026 116.638 22.3222 116.775 22.185C116.912 22.0478 116.993 21.8639 117 21.67V14.78C117 11.59 116.65 8.94 112.34 8.94ZM111.11 20.17C110.854 20.1901 110.597 20.154 110.356 20.0642C110.116 19.9743 109.898 19.833 109.718 19.6501C109.538 19.4671 109.4 19.247 109.314 19.0052C109.228 18.7633 109.196 18.5056 109.22 18.25C109.22 17.05 110.22 16.25 111.75 16.25C112.512 16.2405 113.269 16.3763 113.98 16.65V18.65C113.639 19.0952 113.207 19.4615 112.711 19.7238C112.216 19.9862 111.67 20.1384 111.11 20.17Z" fill="#333132"/>
<path d="M128.21 9.67C127.87 9.13 126.67 8.94 125.75 8.94C125.017 8.94227 124.293 9.10037 123.626 9.4038C122.959 9.70723 122.363 10.1491 121.88 10.7L121.59 9.77C121.553 9.6164 121.466 9.47932 121.343 9.37992C121.22 9.28053 121.068 9.22433 120.91 9.22H120.24C120.045 9.22506 119.86 9.30465 119.722 9.44235C119.585 9.58004 119.505 9.76534 119.5 9.96V21.67C119.503 21.8655 119.581 22.0522 119.72 22.1904C119.858 22.3286 120.045 22.4074 120.24 22.41H121.52C121.93 22.41 122.52 22.41 122.52 21.67V13.5C122.834 13.0062 123.264 12.5974 123.774 12.3096C124.283 12.0218 124.855 11.864 125.44 11.85C125.825 11.8626 126.204 11.9439 126.56 12.09C126.645 12.1269 126.737 12.1459 126.83 12.1459C126.923 12.1459 127.015 12.1269 127.1 12.09C127.193 12.055 127.279 12.0016 127.351 11.9329C127.423 11.8641 127.481 11.7815 127.52 11.69L128.19 10.29C128.242 10.1957 128.271 10.0902 128.275 9.98242C128.278 9.87461 128.256 9.76753 128.21 9.67Z" fill="#333132"/>
<defs>
<linearGradient id="paint0_linear" x1="3.44" y1="5.61" x2="24.2" y2="26.38" gradientUnits="userSpaceOnUse">
<stop stop-color="#F25437"/>
<stop offset="1" stop-color="#CD4E39"/>
</linearGradient>
</defs>
</svg>
