<svg width="114" height="32" viewBox="0 0 114 32" fill="none" xmlns="http://www.w3.org/2000/svg">
<path d="M26 16C26 26.4 23.4 29 13 29C2.6 29 0 26.4 0 16C0 5.6 2.6 3 13 3C23.4 3 26 5.6 26 16Z" fill="url(#paint0_linear)"/>
<path d="M44.61 8.88999H43.86C43.42 8.88999 43.31 9.21999 43.24 9.42999L42.99 10.05C41.8689 9.11205 40.4517 8.60185 38.99 8.60999C35.48 8.60999 32.73 11.61 32.73 15.51C32.73 19.41 35.54 22.44 39.13 22.44C40.2298 22.418 41.309 22.137 42.28 21.62V22.06C42.28 24.81 40.61 25.38 39.21 25.38C38.128 25.3376 37.0935 24.9245 36.28 24.21C36.1977 24.1398 36.1003 24.0897 35.9954 24.0635C35.8905 24.0373 35.7809 24.0358 35.6753 24.0591C35.5697 24.0823 35.471 24.1297 35.3868 24.1975C35.3026 24.2654 35.2352 24.3518 35.19 24.45L34.52 25.68C34.4395 25.8273 34.4114 25.9977 34.4405 26.163C34.4696 26.3284 34.554 26.479 34.68 26.59C35.9648 27.6712 37.5908 28.2628 39.27 28.26C43.05 28.26 45.41 25.88 45.41 22.06V9.65999C45.4048 9.45221 45.3178 9.25487 45.1681 9.11074C45.0183 8.96661 44.8178 8.88729 44.61 8.88999ZM42.28 13.28V18.52C41.451 19.1301 40.4585 19.4784 39.43 19.52C38.4229 19.4581 37.4798 19.0052 36.8017 18.258C36.1236 17.5108 35.7642 16.5284 35.8 15.52C35.6988 14.722 35.8756 13.9136 36.3005 13.2306C36.7255 12.5477 37.3727 12.032 38.1333 11.7702C38.8939 11.5085 39.7214 11.5167 40.4766 11.7935C41.2318 12.0703 41.8687 12.5987 42.28 13.29V13.28Z" fill="#333132"/>
<path d="M56.67 9.35C56.33 8.81 55.17 8.61 54.2 8.61C53.4694 8.60602 52.7465 8.75935 52.0805 9.05959C51.4144 9.35983 50.8208 9.79994 50.34 10.35L50.06 9.46C50.021 9.30187 49.9316 9.16073 49.8054 9.05789C49.6791 8.95506 49.5227 8.89613 49.36 8.89H48.68C48.4783 8.89516 48.2865 8.97824 48.1448 9.12182C48.0031 9.26539 47.9225 9.45829 47.92 9.66V21.36C47.92 21.5625 47.9997 21.7568 48.142 21.901C48.2842 22.0451 48.4775 22.1274 48.68 22.13H50C50.42 22.13 51.05 22.13 51.05 21.36V13.19C51.364 12.7034 51.7926 12.3012 52.2982 12.0187C52.8038 11.7363 53.371 11.5822 53.95 11.57C54.3319 11.5786 54.7087 11.6601 55.06 11.81C55.1471 11.8466 55.2406 11.8654 55.335 11.8654C55.4294 11.8654 55.5229 11.8466 55.61 11.81C55.7071 11.774 55.7955 11.718 55.8696 11.6456C55.9436 11.5733 56.0017 11.4862 56.04 11.39L56.72 9.99C56.7668 9.88788 56.7868 9.77551 56.7781 9.66351C56.7693 9.55151 56.7321 9.44361 56.67 9.35Z" fill="#333132"/>
<path d="M63.17 8.61C61.7918 8.57217 60.4336 8.94692 59.2698 9.68617C58.106 10.4254 57.1896 11.4955 56.638 12.7591C56.0864 14.0227 55.9249 15.4223 56.1742 16.7783C56.4234 18.1344 57.072 19.385 58.0369 20.3699C59.0017 21.3549 60.2388 22.0291 61.5894 22.3062C62.94 22.5833 64.3426 22.4506 65.6173 21.9252C66.892 21.3998 67.9807 20.5055 68.7438 19.3572C69.5068 18.2088 69.9094 16.8587 69.9 15.48C69.8902 13.685 69.1823 11.9643 67.9262 10.6821C66.6701 9.39986 64.9644 8.65673 63.17 8.61ZM66.86 15.48C66.8974 15.9888 66.8295 16.4998 66.6605 16.9811C66.4916 17.4625 66.2251 17.9038 65.8779 18.2775C65.5307 18.6512 65.1101 18.9493 64.6424 19.1532C64.1748 19.357 63.6701 19.4622 63.16 19.4622C62.6499 19.4622 62.1452 19.357 61.6776 19.1532C61.2099 18.9493 60.7893 18.6512 60.4421 18.2775C60.0949 17.9038 59.8284 17.4625 59.6594 16.9811C59.4905 16.4998 59.4226 15.9888 59.46 15.48C59.4226 14.9712 59.4905 14.4602 59.6594 13.9789C59.8284 13.4975 60.0949 13.0562 60.4421 12.6825C60.7893 12.3088 61.2099 12.0107 61.6776 11.8068C62.1452 11.603 62.6499 11.4978 63.16 11.4978C63.6701 11.4978 64.1748 11.603 64.6424 11.8068C65.1101 12.0107 65.5307 12.3088 65.8779 12.6825C66.2251 13.0562 66.4916 13.4975 66.6605 13.9789C66.8295 14.4602 66.8974 14.9712 66.86 15.48Z" fill="#333132"/>
<path d="M82.16 8.89001H80.73C80.29 8.89001 79.85 8.95001 79.85 9.66001V17.47C79.6315 18.0575 79.2385 18.5641 78.7236 18.9216C78.2088 19.2792 77.5968 19.4705 76.97 19.47C75.35 19.47 74.6 18.54 74.6 16.54V9.66001C74.5949 9.45739 74.5122 9.26447 74.3689 9.12115C74.2255 8.97783 74.0326 8.89508 73.83 8.89001H72.28C72.0782 8.89745 71.8866 8.98096 71.7438 9.12379C71.601 9.26661 71.5174 9.45817 71.51 9.66001V16.35C71.51 19.18 72.07 22.44 76.51 22.44C77.2545 22.4625 77.9953 22.3281 78.6845 22.0455C79.3736 21.763 79.9956 21.3386 80.51 20.8L80.76 21.5C80.87 21.81 81.05 22.13 81.49 22.13H82.16C82.3654 22.1276 82.5619 22.0463 82.709 21.903C82.856 21.7596 82.9423 21.5652 82.95 21.36V9.66001C82.9377 9.4564 82.8499 9.26469 82.7038 9.12231C82.5578 8.97993 82.3639 8.89711 82.16 8.89001Z" fill="#333132"/>
<path d="M91.91 8.60999C90.4506 8.60503 89.0355 9.11093 87.91 10.04L87.66 9.40999C87.6228 9.25502 87.5323 9.11806 87.4043 9.02302C87.2764 8.92797 87.1191 8.88089 86.96 8.88999H86.26C86.0574 8.89506 85.8644 8.97781 85.7211 9.12113C85.5778 9.26445 85.4951 9.45737 85.49 9.65999V27.31C85.4926 27.5125 85.5749 27.7058 85.719 27.848C85.8631 27.9903 86.0575 28.07 86.26 28.07H87.83C87.9351 28.0799 88.041 28.0674 88.1409 28.0336C88.2409 27.9997 88.3325 27.9451 88.4099 27.8733C88.4873 27.8016 88.5487 27.7144 88.5901 27.6173C88.6314 27.5202 88.6519 27.4155 88.65 27.31V21.65C89.627 22.1475 90.7039 22.4175 91.8 22.44C95.37 22.44 98.17 19.39 98.17 15.51C98.17 11.63 95.42 8.60999 91.91 8.60999ZM95.07 15.51C95.0996 16.0122 95.0287 16.5153 94.8614 16.9897C94.6941 17.4642 94.4338 17.9004 94.0957 18.273C93.7577 18.6455 93.3486 18.9468 92.8926 19.1592C92.4366 19.3717 91.9427 19.4909 91.44 19.51C90.4259 19.4922 89.4376 19.1871 88.59 18.63V13.26C88.8975 12.7395 89.3367 12.3093 89.8633 12.0126C90.39 11.7159 90.9855 11.5633 91.59 11.57C93.59 11.57 95.07 13.23 95.07 15.51Z" fill="#333132"/>
<path d="M104.27 14.08C102.89 13.49 102.14 13.03 102.14 12.32C102.14 11.82 102.61 11.32 103.65 11.32C104.588 11.3326 105.513 11.5475 106.36 11.95C106.535 12.0381 106.738 12.054 106.925 11.9942C107.112 11.9343 107.268 11.8036 107.36 11.63L107.81 10.73C107.9 10.5319 107.917 10.308 107.856 10.0988C107.796 9.88962 107.662 9.7091 107.48 9.59C106.308 8.91213 104.974 8.56641 103.62 8.59C100.55 8.59 99.18 10.44 99.18 12.27C99.18 14.56 100.91 15.65 102.77 16.49C104.63 17.33 105.45 17.84 105.45 18.6C105.45 19.36 104.86 19.71 103.9 19.71C102.801 19.7069 101.726 19.3913 100.8 18.8C100.705 18.7388 100.598 18.6983 100.486 18.6811C100.374 18.6638 100.259 18.6703 100.15 18.7C100.064 18.7235 99.9834 18.765 99.9145 18.8219C99.8455 18.8788 99.7894 18.9498 99.75 19.03L99.16 20.23C99.0931 20.3827 99.0847 20.5547 99.1363 20.7133C99.1879 20.8719 99.296 21.0059 99.44 21.09C100.717 21.9676 102.23 22.4382 103.78 22.44C106.91 22.44 108.55 20.44 108.55 18.51C108.53 16.07 106.84 15.17 104.27 14.08Z" fill="#333132"/>
<path d="M14.72 13H11.28C11.0301 13.5845 10.5645 14.0501 9.98001 14.3V17.74C10.5645 17.9899 11.0301 18.4555 11.28 19.04H14.72C14.9564 18.4487 15.4163 17.9745 16 17.72V14.28C15.4256 14.0324 14.9676 13.5744 14.72 13ZM19.4 20C19.4076 20.5642 19.2195 21.1136 18.8676 21.5547C18.5158 21.9958 18.0219 22.3013 17.4701 22.4192C16.9183 22.5371 16.3427 22.4601 15.8413 22.2014C15.3399 21.9426 14.9436 21.5181 14.72 21H11.28C11.1238 21.3675 10.8798 21.6911 10.5693 21.9424C10.2589 22.1936 9.89148 22.3648 9.49944 22.4409C9.10739 22.517 8.70266 22.4957 8.32076 22.3789C7.93885 22.2621 7.59146 22.0533 7.30907 21.7709C7.02667 21.4885 6.81791 21.1412 6.7011 20.7593C6.5843 20.3773 6.56302 19.9726 6.63913 19.5806C6.71524 19.1885 6.88643 18.8212 7.13765 18.5107C7.38887 18.2003 7.71246 17.9562 8.08001 17.8V14.28C7.71246 14.1238 7.38887 13.8797 7.13765 13.5693C6.88643 13.2588 6.71524 12.8915 6.63913 12.4994C6.56302 12.1074 6.5843 11.7027 6.7011 11.3207C6.81791 10.9388 7.02667 10.5915 7.30907 10.3091C7.59146 10.0267 7.93885 9.8179 8.32076 9.7011C8.70266 9.58429 9.10739 9.56301 9.49944 9.63912C9.89148 9.71524 10.2589 9.88642 10.5693 10.1376C10.8798 10.3889 11.1238 10.7125 11.28 11.08H14.72C14.8757 10.7114 15.1196 10.3867 15.4304 10.1345C15.7411 9.8824 16.1091 9.71056 16.5019 9.63416C16.8947 9.55775 17.3002 9.57912 17.6828 9.69639C18.0654 9.81366 18.4133 10.0232 18.6958 10.3066C18.9783 10.59 19.1868 10.9386 19.3029 11.3215C19.419 11.7045 19.4391 12.1101 19.3614 12.5027C19.2838 12.8952 19.1108 13.2626 18.8577 13.5726C18.6046 13.8825 18.2791 14.1255 17.91 14.28V17.72C18.3569 17.9088 18.7373 18.2266 19.0027 18.6328C19.2681 19.0389 19.4065 19.5149 19.4 20Z" fill="white"/>
<defs>
<linearGradient id="paint0_linear" x1="2.46" y1="5.46" x2="23.63" y2="26.63" gradientUnits="userSpaceOnUse">
<stop stop-color="#FF962D"/>
<stop offset="1" stop-color="#FC7638"/>
</linearGradient>
</defs>
</svg>
