<svg width="110" height="32" viewBox="0 0 110 32" fill="none" xmlns="http://www.w3.org/2000/svg">
<path d="M26 15.93C26 26.31 23.4 28.93 13 28.93C2.6 28.93 0 26.34 0 15.93C0 5.52 2.6 3 13 3C23.4 3 26 5.54 26 15.93Z" fill="url(#paint0_linear)"/>
<path d="M10.59 10.36C11.1142 10.3501 11.6294 10.4964 12.0701 10.7804C12.5108 11.0644 12.8569 11.4732 13.0644 11.9546C13.2719 12.436 13.3314 12.9683 13.2352 13.4837C13.1391 13.9991 12.8917 14.4741 12.5245 14.8484C12.1574 15.2226 11.6871 15.479 11.1737 15.585C10.6603 15.691 10.1269 15.6417 9.64161 15.4435C9.15629 15.2452 8.74099 14.9069 8.44863 14.4718C8.15627 14.0366 8.0001 13.5243 8 13C7.99729 12.3076 8.26771 11.6421 8.7526 11.1479C9.23748 10.6536 9.8977 10.3705 10.59 10.36ZM14.59 21.49H6.59V19.09C6.58867 18.7736 6.65017 18.4601 6.77093 18.1677C6.8917 17.8752 7.06932 17.6097 7.29351 17.3864C7.5177 17.1632 7.78399 16.9866 8.07692 16.8671C8.36986 16.7475 8.68362 16.6874 9 16.69H12.2C12.8365 16.69 13.447 16.9429 13.8971 17.3929C14.3471 17.843 14.6 18.4535 14.6 19.09L14.59 21.49ZM16.65 11.94C17.0456 11.94 17.4322 12.0573 17.7611 12.2771C18.09 12.4968 18.3464 12.8092 18.4978 13.1746C18.6491 13.5401 18.6887 13.9422 18.6116 14.3302C18.5344 14.7181 18.3439 15.0745 18.0642 15.3542C17.7845 15.6339 17.4281 15.8244 17.0402 15.9016C16.6522 15.9787 16.2501 15.9391 15.8846 15.7878C15.5192 15.6364 15.2068 15.38 14.9871 15.0511C14.7673 14.7222 14.65 14.3356 14.65 13.94C14.65 13.4113 14.8593 12.9041 15.2322 12.5293C15.6052 12.1545 16.1113 11.9426 16.64 11.94H16.65ZM19.39 19.88H15.39V19.08C15.3933 18.6517 15.3011 18.2281 15.12 17.84C15.1081 17.7714 15.0807 17.7065 15.04 17.65C15.0211 17.5993 14.9941 17.552 14.96 17.51C14.926 17.4367 14.8859 17.3665 14.84 17.3C14.973 17.1148 15.1468 16.9626 15.3479 16.8551C15.549 16.7476 15.7721 16.6877 16 16.68H17.92C18.3011 16.6826 18.6659 16.8352 18.9353 17.1047C19.2048 17.3741 19.3574 17.7389 19.36 18.12L19.39 19.88Z" fill="white"/>
<path d="M39.21 9.58998C37.748 9.5801 36.3302 10.0905 35.21 11.03L35 10.39C34.9646 10.234 34.8745 10.0959 34.7462 10.0005C34.6178 9.90515 34.4595 9.85885 34.3 9.86998H33.6C33.3983 9.87514 33.2065 9.95823 33.0648 10.1018C32.9231 10.2454 32.8425 10.4383 32.84 10.64V28.29C32.8426 28.4907 32.9235 28.6826 33.0655 28.8245C33.2074 28.9665 33.3992 29.0474 33.6 29.05H35.17C35.2751 29.0598 35.381 29.0474 35.4809 29.0135C35.5809 28.9797 35.6725 28.9251 35.7499 28.8533C35.8273 28.7816 35.8887 28.6944 35.9301 28.5973C35.9715 28.5002 35.9919 28.3955 35.99 28.29V22.63C36.9706 23.1273 38.0507 23.3973 39.15 23.42C42.72 23.42 45.51 20.37 45.51 16.49C45.51 12.61 42.72 9.58998 39.21 9.58998ZM42.36 16.49C42.391 16.9925 42.3211 17.4961 42.1543 17.9712C41.9875 18.4462 41.7273 18.883 41.3889 19.2559C41.0506 19.6287 40.641 19.93 40.1843 20.1419C39.7277 20.3539 39.2332 20.4722 38.73 20.49C37.7189 20.4725 36.7338 20.1673 35.89 19.61V14.25C36.1931 13.7249 36.631 13.2904 37.1585 12.9915C37.686 12.6926 38.2838 12.5401 38.89 12.55C40.88 12.55 42.36 14.21 42.36 16.49Z" fill="#333132"/>
<path d="M53.13 9.59C52.2383 9.59043 51.3559 9.77155 50.5361 10.1224C49.7163 10.4733 48.9762 10.9867 48.3603 11.6315C47.7444 12.2764 47.2656 13.0394 46.9527 13.8744C46.6399 14.7094 46.4995 15.5992 46.54 16.49C46.54 20.49 49.32 23.42 53.16 23.42C54.9178 23.4716 56.6356 22.8896 58 21.78C58.0884 21.726 58.1627 21.6519 58.2172 21.5638C58.2716 21.4757 58.3045 21.376 58.3133 21.2728C58.3221 21.1696 58.3064 21.0658 58.2676 20.9697C58.2288 20.8737 58.168 20.7882 58.09 20.72L57.33 19.54C57.2893 19.4697 57.2346 19.4085 57.1692 19.3603C57.1038 19.3122 57.0292 19.278 56.95 19.26C56.7359 19.2426 56.5237 19.3109 56.36 19.45C55.4901 20.1479 54.4051 20.5225 53.29 20.51C52.3802 20.531 51.4955 20.2114 50.8092 19.6138C50.1228 19.0163 49.6845 18.184 49.58 17.28H58.35C58.5372 17.2781 58.7169 17.2063 58.8539 17.0786C58.9908 16.9509 59.075 16.7766 59.09 16.59C59.09 16.36 59.15 15.91 59.15 15.68C59.162 14.8828 59.0149 14.0913 58.7175 13.3516C58.4201 12.6119 57.9782 11.9389 57.4178 11.3719C56.8573 10.8049 56.1894 10.3553 55.4532 10.0494C54.717 9.74342 53.9272 9.58725 53.13 9.59ZM53.07 12.27C53.8126 12.2439 54.537 12.5028 55.0948 12.9936C55.6526 13.4845 56.0015 14.1701 56.07 14.91H49.77C49.8929 14.1382 50.2991 13.44 50.9094 12.9518C51.5197 12.4635 52.29 12.2205 53.07 12.27Z" fill="#333132"/>
<path d="M66.85 9.59001C65.4718 9.55218 64.1137 9.92693 62.9498 10.6662C61.786 11.4054 60.8696 12.4755 60.318 13.7391C59.7664 15.0027 59.6049 16.4023 59.8542 17.7583C60.1034 19.1144 60.752 20.365 61.7169 21.35C62.6817 22.3349 63.9188 23.0091 65.2694 23.2862C66.62 23.5633 68.0226 23.4306 69.2973 22.9052C70.572 22.3798 71.6607 21.4855 72.4238 20.3372C73.1868 19.1888 73.5894 17.8387 73.58 16.46C73.5702 14.6651 72.8624 12.9444 71.6062 11.6621C70.3501 10.3799 68.6444 9.63674 66.85 9.59001ZM70.53 16.46C70.5763 16.9732 70.5152 17.4905 70.3505 17.9787C70.1859 18.467 69.9213 18.9157 69.5737 19.296C69.226 19.6764 68.803 19.9802 68.3315 20.1881C67.86 20.3959 67.3503 20.5033 66.835 20.5033C66.3197 20.5033 65.8101 20.3959 65.3385 20.1881C64.867 19.9802 64.444 19.6764 64.0963 19.296C63.7487 18.9157 63.4841 18.467 63.3195 17.9787C63.1548 17.4905 63.0937 16.9732 63.14 16.46C63.1139 15.9586 63.1901 15.4571 63.364 14.9861C63.538 14.5151 63.8059 14.0844 64.1516 13.7203C64.4973 13.3562 64.9134 13.0662 65.3748 12.8681C65.8361 12.6699 66.3329 12.5677 66.835 12.5677C67.3371 12.5677 67.8339 12.6699 68.2952 12.8681C68.7566 13.0662 69.1727 13.3562 69.5184 13.7203C69.8641 14.0844 70.132 14.5151 70.306 14.9861C70.4799 15.4571 70.5561 15.9586 70.53 16.46Z" fill="#333132"/>
<path d="M81.77 9.58998C80.308 9.5801 78.8902 10.0905 77.77 11.03L77.52 10.39C77.4828 10.235 77.3923 10.0981 77.2643 10.003C77.1364 9.90797 76.9791 9.86088 76.82 9.86998H76.12C75.9174 9.87505 75.7245 9.9578 75.5811 10.1011C75.4378 10.2444 75.3551 10.4374 75.35 10.64V28.29C75.3526 28.4925 75.4349 28.6858 75.579 28.828C75.7232 28.9703 75.9175 29.05 76.12 29.05H77.69C77.7951 29.0598 77.901 29.0474 78.001 29.0135C78.1009 28.9797 78.1926 28.9251 78.27 28.8533C78.3473 28.7816 78.4087 28.6944 78.4501 28.5973C78.4915 28.5002 78.5119 28.3955 78.51 28.29V22.62C79.4827 23.1301 80.5618 23.4041 81.66 23.42C85.23 23.42 88.03 20.37 88.03 16.49C88.03 12.61 85.28 9.58998 81.77 9.58998ZM78.45 14.25C78.7531 13.7249 79.191 13.2904 79.7185 12.9915C80.246 12.6926 80.8438 12.5401 81.45 12.55C83.45 12.55 84.97 14.21 84.97 16.49C85.001 16.9925 84.9311 17.4961 84.7643 17.9712C84.5975 18.4462 84.3373 18.883 83.999 19.2559C83.6606 19.6287 83.251 19.93 82.7943 20.1419C82.3377 20.3539 81.8432 20.4722 81.34 20.49C80.3259 20.4722 79.3376 20.1671 78.49 19.61L78.45 14.25Z" fill="#333132"/>
<path d="M92.18 3.92999H90.62C90.1948 3.92999 89.85 4.27473 89.85 4.69999V22.34C89.85 22.7653 90.1948 23.11 90.62 23.11H92.18C92.6053 23.11 92.95 22.7653 92.95 22.34V4.69999C92.95 4.27473 92.6053 3.92999 92.18 3.92999Z" fill="#333132"/>
<path d="M101.34 9.59C100.449 9.59184 99.567 9.77391 98.7478 10.1253C97.9287 10.4767 97.1891 10.9901 96.5735 11.6346C95.9579 12.2792 95.479 13.0416 95.1656 13.876C94.8523 14.7104 94.7109 15.5995 94.75 16.49C94.6993 17.3872 94.8334 18.2852 95.1441 19.1284C95.4547 19.9715 95.9353 20.7419 96.556 21.3917C97.1767 22.0415 97.9243 22.5568 98.7524 22.9057C99.5805 23.2546 100.471 23.4296 101.37 23.42C103.144 23.4783 104.88 22.8962 106.26 21.78C106.348 21.7251 106.421 21.6504 106.475 21.5618C106.528 21.4733 106.56 21.3734 106.568 21.2702C106.576 21.1671 106.559 21.0635 106.52 20.9679C106.48 20.8724 106.418 20.7874 106.34 20.72L105.59 19.54C105.549 19.4682 105.493 19.406 105.425 19.3577C105.358 19.3095 105.281 19.2761 105.2 19.26C104.989 19.2442 104.781 19.3125 104.62 19.45C103.745 20.1464 102.658 20.5207 101.54 20.51C100.631 20.5264 99.7491 20.2052 99.0638 19.6086C98.3784 19.0119 97.9388 18.1822 97.83 17.28H106.61C106.796 17.2779 106.975 17.2057 107.11 17.0778C107.245 16.9499 107.327 16.7758 107.34 16.59C107.34 16.36 107.4 15.91 107.4 15.68C107.42 14.8772 107.278 14.0786 106.981 13.3325C106.684 12.5863 106.239 11.9082 105.672 11.3389C105.106 10.7697 104.43 10.3212 103.685 10.0206C102.941 9.72 102.143 9.57351 101.34 9.59ZM101.34 12.27C102.083 12.2414 102.809 12.4994 103.367 12.9908C103.926 13.4821 104.274 14.1692 104.34 14.91H98C98.1227 14.14 98.5276 13.4432 99.1357 12.9553C99.7438 12.4673 100.512 12.223 101.29 12.27H101.34Z" fill="#333132"/>
<defs>
<linearGradient id="paint0_linear" x1="2.6" y1="5.54" x2="23.36" y2="26.31" gradientUnits="userSpaceOnUse">
<stop stop-color="#32A0F0"/>
<stop offset="1" stop-color="#3F75E5"/>
</linearGradient>
</defs>
</svg>
