<svg width="142" height="32" viewBox="0 0 142 32" fill="none" xmlns="http://www.w3.org/2000/svg">
<path d="M99.8481 19.25C98.7376 19.2652 97.6664 18.8391 96.8697 18.0652C96.0729 17.2914 95.6159 16.233 95.5988 15.1225C95.6263 14.0088 96.0876 12.9499 96.8843 12.1714C97.6811 11.3928 98.7504 10.9561 99.8644 10.9544C100.432 10.9407 100.995 11.0608 101.507 11.305C102.019 11.5492 102.467 11.9106 102.814 12.36C102.849 12.4024 102.876 12.4518 102.891 12.5049C102.906 12.5581 102.911 12.6139 102.903 12.6687C102.895 12.7252 102.876 12.7795 102.847 12.8284C102.818 12.8772 102.779 12.9197 102.733 12.9531L102.066 13.5381C102.002 13.6056 101.915 13.6463 101.823 13.6519C101.703 13.6384 101.593 13.5804 101.514 13.4894C101.204 13.1386 100.792 12.8933 100.335 12.7877C99.879 12.6821 99.4012 12.7215 98.9684 12.9004C98.5356 13.0792 98.1693 13.3886 97.9207 13.7855C97.672 14.1823 97.5534 14.6469 97.5813 15.1144C97.566 15.4256 97.6134 15.7367 97.7208 16.0292C97.8281 16.3216 97.9932 16.5896 98.2062 16.817C98.4192 17.0444 98.6758 17.2266 98.9607 17.3529C99.2455 17.4791 99.5528 17.5468 99.8644 17.5519C100.194 17.5546 100.52 17.4829 100.818 17.3423C101.117 17.2016 101.379 16.9955 101.587 16.7394L101.717 16.6256C101.757 16.5808 101.806 16.5448 101.86 16.5196C101.915 16.4945 101.974 16.4808 102.034 16.4794C102.135 16.4828 102.232 16.52 102.31 16.585L102.854 17.0156C102.906 17.0422 102.951 17.0795 102.987 17.1249C103.022 17.1703 103.048 17.2229 103.062 17.279C103.076 17.3352 103.077 17.3936 103.067 17.4505C103.056 17.5074 103.034 17.5613 103.001 17.6087C102.661 18.1306 102.192 18.5559 101.64 18.8435C101.088 19.131 100.47 19.271 99.8481 19.25V19.25Z" fill="#252628"/>
<path d="M107.534 19.25C106.994 19.2501 106.459 19.1424 105.961 18.9332C105.462 18.724 105.011 18.4174 104.633 18.0315C104.254 17.6457 103.957 17.1882 103.757 16.6859C103.558 16.1836 103.461 15.6465 103.472 15.1062C103.453 14.5635 103.545 14.0226 103.741 13.5163C103.937 13.01 104.235 12.5488 104.614 12.1607C104.994 11.7725 105.449 11.4655 105.951 11.2581C106.453 11.0508 106.991 10.9475 107.534 10.9544C108.023 10.9367 108.511 11.0186 108.968 11.1949C109.424 11.3713 109.84 11.6385 110.19 11.9803C110.54 12.3222 110.818 12.7316 111.005 13.1837C111.192 13.6358 111.286 14.1213 111.28 14.6106C111.278 14.7901 111.265 14.9692 111.239 15.1469C111.231 15.246 111.185 15.3382 111.111 15.4047C111.037 15.4711 110.941 15.5068 110.841 15.5044H105.454C105.496 16.064 105.749 16.5867 106.163 16.9657C106.577 17.3447 107.12 17.5515 107.681 17.5437C108.312 17.5194 108.924 17.3227 109.452 16.975C109.561 16.9013 109.687 16.854 109.817 16.8369C109.863 16.8394 109.907 16.8524 109.947 16.875C109.986 16.8975 110.02 16.929 110.045 16.9669L110.614 17.7144C110.653 17.7508 110.685 17.7947 110.707 17.8436C110.73 17.8924 110.742 17.9451 110.744 17.9987C110.734 18.0533 110.713 18.1052 110.682 18.1513C110.651 18.1974 110.611 18.2367 110.565 18.2669C109.696 18.9299 108.627 19.2767 107.534 19.25V19.25ZM107.534 12.5306C107.06 12.5154 106.597 12.6712 106.228 12.9695C105.86 13.2679 105.611 13.6889 105.527 14.1556L109.289 14.2125C109.27 13.7527 109.071 13.3188 108.736 13.0042C108.4 12.6897 107.954 12.5196 107.494 12.5306H107.534Z" fill="#252628"/>
<path d="M118.731 19.055C118.676 19.0561 118.622 19.0464 118.571 19.0266C118.521 19.0067 118.474 18.9771 118.435 18.9394C118.396 18.9017 118.365 18.8566 118.343 18.8067C118.321 18.7568 118.309 18.7032 118.308 18.6487V14.635C118.308 13.4 117.731 12.7256 116.683 12.7256C116.252 12.7247 115.827 12.8276 115.443 13.0256C115.06 13.2236 114.73 13.5108 114.481 13.8631V18.6487C114.481 18.9331 114.327 19.055 113.977 19.055H112.937C112.83 19.053 112.727 19.0098 112.65 18.9343C112.572 18.8587 112.527 18.7566 112.523 18.6487V11.5556C112.522 11.5001 112.532 11.445 112.552 11.3933C112.572 11.3416 112.603 11.2945 112.641 11.2545C112.68 11.2145 112.726 11.1825 112.776 11.1602C112.827 11.138 112.882 11.126 112.937 11.125H113.522C113.603 11.122 113.681 11.146 113.746 11.1931C113.811 11.2403 113.858 11.3078 113.88 11.385L114.075 11.9212C114.899 11.3124 115.887 10.9669 116.911 10.93C119.072 10.93 120.315 12.295 120.315 14.6837V18.6244C120.311 18.7336 120.264 18.8369 120.186 18.9127C120.107 18.9884 120.002 19.0307 119.892 19.0306L118.731 19.055Z" fill="#252628"/>
<path d="M124.069 19.25C122.192 19.25 121.972 17.9012 121.972 16.8856V12.8962L121.16 12.8394C121.106 12.8404 121.051 12.8308 121.001 12.8109C120.95 12.7911 120.904 12.7615 120.865 12.7238C120.825 12.686 120.794 12.6409 120.772 12.5911C120.75 12.5412 120.739 12.4875 120.737 12.4331V11.5556C120.736 11.5005 120.746 11.4458 120.767 11.3949C120.789 11.3439 120.82 11.2979 120.86 11.2597C120.899 11.2216 120.946 11.192 120.998 11.173C121.05 11.154 121.105 11.146 121.16 11.1494H121.916L121.964 8.71185C121.969 8.60264 122.015 8.4993 122.094 8.42355C122.172 8.3478 122.278 8.30552 122.387 8.3056H123.532C123.585 8.30559 123.638 8.31615 123.687 8.33667C123.736 8.35718 123.78 8.38723 123.817 8.42507C123.854 8.4629 123.883 8.50776 123.903 8.557C123.922 8.60625 123.932 8.65889 123.931 8.71185V11.1494L125.937 11.125C125.992 11.1227 126.046 11.1317 126.097 11.1512C126.148 11.1707 126.194 11.2004 126.233 11.2385C126.271 11.2765 126.302 11.3222 126.323 11.3725C126.343 11.4229 126.353 11.4769 126.352 11.5312V12.4087C126.352 12.4628 126.341 12.5163 126.32 12.5661C126.299 12.6159 126.269 12.6611 126.23 12.6989C126.191 12.7367 126.146 12.7665 126.095 12.7864C126.045 12.8063 125.992 12.8161 125.937 12.815H123.971L123.914 16.6662C123.914 17.3569 124.215 17.4219 124.524 17.4219C124.95 17.384 125.364 17.2625 125.742 17.0644C125.806 17.0339 125.875 17.0172 125.946 17.0156H126.043C126.141 17.0605 126.217 17.1423 126.254 17.2431L126.612 18.1044C126.639 18.1496 126.655 18.2004 126.66 18.2529C126.664 18.3054 126.657 18.3582 126.638 18.4074C126.619 18.4567 126.59 18.501 126.551 18.5372C126.513 18.5733 126.467 18.6004 126.417 18.6162C125.685 18.9829 124.886 19.1984 124.069 19.25V19.25Z" fill="#252628"/>
<path d="M131.007 19.25C130.467 19.2501 129.932 19.1424 129.434 18.9332C128.936 18.724 128.484 18.4174 128.106 18.0316C127.727 17.6457 127.43 17.1882 127.231 16.6859C127.031 16.1836 126.934 15.6466 126.945 15.1063C126.926 14.5635 127.018 14.0226 127.214 13.5163C127.411 13.01 127.708 12.5489 128.087 12.1607C128.467 11.7726 128.922 11.4655 129.424 11.2582C129.926 11.0508 130.464 10.9475 131.007 10.9544C131.496 10.9379 131.983 11.0206 132.439 11.1973C132.895 11.3741 133.311 11.6413 133.661 11.983C134.011 12.3246 134.288 12.7335 134.476 13.1851C134.663 13.6367 134.758 14.1216 134.753 14.6106C134.753 14.7569 134.753 15.0169 134.712 15.1469C134.701 15.2446 134.654 15.3347 134.581 15.4004C134.507 15.4662 134.413 15.5031 134.314 15.5044H128.919C128.961 16.064 129.214 16.5867 129.628 16.9657C130.042 17.3447 130.585 17.5515 131.146 17.5438C131.777 17.5194 132.389 17.3227 132.917 16.975C133.015 16.8971 133.128 16.8416 133.25 16.8125C133.295 16.815 133.34 16.828 133.379 16.8506C133.419 16.8732 133.452 16.9046 133.477 16.9425L134.046 17.69C134.086 17.7265 134.117 17.7704 134.14 17.8192C134.162 17.868 134.174 17.9208 134.176 17.9744C134.166 18.0289 134.145 18.0808 134.115 18.1269C134.084 18.173 134.044 18.2124 133.997 18.2425C133.143 18.9055 132.089 19.2606 131.007 19.25V19.25ZM130.967 12.5306C130.493 12.5154 130.029 12.6712 129.661 12.9696C129.292 13.2679 129.044 13.6889 128.96 14.1556L132.73 14.2125C132.707 13.7598 132.512 13.3331 132.184 13.0202C131.856 12.7074 131.42 12.5321 130.967 12.5306V12.5306Z" fill="#252628"/>
<path d="M136.094 19.055C135.986 19.053 135.883 19.0098 135.806 18.9343C135.729 18.8588 135.684 18.7566 135.679 18.6488V11.5557C135.684 11.4478 135.729 11.3457 135.806 11.2701C135.883 11.1946 135.986 11.1514 136.094 11.1494H136.679C136.766 11.1541 136.849 11.1855 136.917 11.2393C136.986 11.2931 137.036 11.3667 137.061 11.45L137.231 11.9538C137.867 11.3329 138.715 10.9758 139.604 10.9544C140.156 10.9544 140.871 11.06 141.083 11.3607C141.115 11.4162 141.131 11.4793 141.131 11.5435C141.131 11.6077 141.115 11.6707 141.083 11.7263L140.595 12.685C140.568 12.7536 140.521 12.8126 140.46 12.8545C140.399 12.8964 140.328 12.9195 140.254 12.9207C140.19 12.9181 140.126 12.9043 140.067 12.88C139.856 12.7918 139.63 12.7449 139.401 12.7419C139.051 12.7359 138.706 12.8175 138.397 12.9793C138.088 13.1411 137.824 13.378 137.629 13.6682V18.6488C137.629 19.0225 137.353 19.055 137.044 19.055H136.094Z" fill="#252628"/>
<path d="M42.575 19.055C42.4053 19.0582 42.2367 19.028 42.0787 18.966C41.9208 18.9041 41.7765 18.8116 41.6543 18.6939C41.5321 18.5762 41.4342 18.4356 41.3663 18.28C41.2985 18.1245 41.2619 17.9571 41.2587 17.7875V8.10248C41.2649 7.99394 41.3118 7.89173 41.3902 7.81638C41.4686 7.74103 41.5725 7.69811 41.6812 7.69623H42.8269C42.9356 7.69811 43.0395 7.74103 43.1179 7.81638C43.1963 7.89173 43.2432 7.99394 43.2494 8.10248V16.7231C43.2504 16.7754 43.2618 16.827 43.2828 16.8749C43.3038 16.9228 43.334 16.966 43.3717 17.0023C43.4094 17.0385 43.4539 17.0669 43.5026 17.0859C43.5514 17.1049 43.6033 17.1142 43.6556 17.1131H43.8181C43.8878 17.1131 43.9548 17.1402 44.0049 17.1887C44.055 17.2373 44.0841 17.3034 44.0862 17.3731V18.795C44.0863 18.8298 44.0793 18.8643 44.0657 18.8964C44.0521 18.9285 44.0323 18.9575 44.0072 18.9818C43.9822 19.006 43.9526 19.025 43.9201 19.0376C43.8876 19.0501 43.8529 19.0561 43.8181 19.055H42.575Z" fill="#252628"/>
<path d="M47.4988 19.25C47.1456 19.2689 46.7924 19.213 46.4624 19.086C46.1323 18.9589 45.8329 18.7636 45.5836 18.5128C45.3343 18.2619 45.1408 17.9613 45.0157 17.6304C44.8907 17.2996 44.837 16.9461 44.8581 16.5931C44.8581 15.0575 46.1663 14.0256 48.1081 14.0256C48.6135 14.0306 49.1161 14.1016 49.6031 14.2368C49.6681 13.4812 49.6031 13.0993 49.3431 12.8718C49.2205 12.7709 49.0791 12.6952 48.9271 12.6492C48.7751 12.6032 48.6155 12.5877 48.4575 12.6037C47.6946 12.6208 46.9375 12.7411 46.2069 12.9612H46.1013C45.9225 12.9612 45.7844 12.8393 45.7194 12.6118L45.5569 11.8887C45.541 11.8375 45.5358 11.7836 45.5417 11.7303C45.5476 11.677 45.5644 11.6254 45.5911 11.5789C45.6177 11.5324 45.6537 11.4919 45.6968 11.4599C45.7398 11.428 45.789 11.4052 45.8413 11.3931C46.7426 11.094 47.6866 10.9431 48.6363 10.9462C51.2769 10.9462 51.4963 12.5712 51.4963 14.4643V18.6406C51.4921 18.7498 51.4457 18.8531 51.3669 18.9289C51.2881 19.0046 51.183 19.0469 51.0738 19.0468H50.5131C50.2938 19.0468 50.2125 18.9493 50.1313 18.7543L49.9769 18.34C49.2794 18.918 48.4046 19.2393 47.4988 19.25V19.25ZM48.3113 15.3093C47.3444 15.3093 46.6863 15.805 46.6863 16.5687C46.6759 16.7297 46.6995 16.8912 46.7554 17.0425C46.8113 17.1939 46.8984 17.3318 47.0109 17.4474C47.1235 17.5631 47.2591 17.6538 47.4089 17.7138C47.5587 17.7737 47.7194 17.8016 47.8806 17.7956C48.2269 17.778 48.5651 17.6844 48.8712 17.5215C49.1773 17.3587 49.4438 17.1305 49.6519 16.8531V15.6425C49.2309 15.4139 48.7576 15.2991 48.2788 15.3093H48.3113Z" fill="#252628"/>
<path d="M58.9631 19.055C58.9091 19.0561 58.8554 19.0464 58.8052 19.0265C58.7549 19.0065 58.7092 18.9768 58.6706 18.939C58.632 18.9011 58.6014 18.856 58.5804 18.8061C58.5595 18.7563 58.5487 18.7028 58.5487 18.6488V14.635C58.5487 13.4 57.9637 12.7257 56.9237 12.7257C56.4933 12.7234 56.0687 12.8257 55.6866 13.0238C55.3044 13.222 54.9762 13.51 54.73 13.8632V18.6488C54.73 18.9332 54.5838 19.055 54.2344 19.055H53.1619C53.0526 19.0551 52.9475 19.0128 52.8687 18.9371C52.7899 18.8613 52.7436 18.758 52.7394 18.6488V11.5557C52.7436 11.4464 52.7899 11.3431 52.8687 11.2674C52.9475 11.1916 53.0526 11.1493 53.1619 11.1494H53.7469C53.8263 11.1453 53.9046 11.169 53.9684 11.2164C54.0322 11.2639 54.0774 11.3322 54.0963 11.4094L54.2994 11.9457C55.1145 11.3266 56.1037 10.9798 57.1269 10.9544C59.2881 10.9544 60.5312 12.3194 60.5312 14.7082V18.6488C60.527 18.758 60.4807 18.8613 60.4019 18.9371C60.3231 19.0128 60.218 19.0551 60.1087 19.055H58.9631Z" fill="#252628"/>
<path d="M68.25 19.055C68.196 19.0561 68.1423 19.0464 68.092 19.0265C68.0418 19.0065 67.996 18.9768 67.9575 18.939C67.9189 18.9011 67.8882 18.856 67.8673 18.8061C67.8464 18.7563 67.8356 18.7028 67.8356 18.6488V14.635C67.8356 13.4 67.2506 12.7257 66.2106 12.7257C65.7804 12.7247 65.3563 12.8277 64.9744 13.0257C64.5925 13.2237 64.264 13.511 64.0169 13.8632V18.6488C64.0169 18.9332 63.8706 19.055 63.5212 19.055H62.4081C62.3002 19.053 62.1972 19.0098 62.1202 18.9343C62.0431 18.8588 61.9979 18.7566 61.9937 18.6488V11.5557C61.9979 11.4478 62.0431 11.3457 62.1202 11.2701C62.1972 11.1946 62.3002 11.1514 62.4081 11.1494H62.9931C63.0732 11.1464 63.152 11.1704 63.2169 11.2175C63.2817 11.2647 63.3288 11.3323 63.3506 11.4094L63.5456 11.9457C64.3675 11.3336 65.357 10.9877 66.3812 10.9544C68.5425 10.9544 69.7775 12.3194 69.7775 14.7082V18.6488C69.7734 18.7566 69.7281 18.8588 69.6511 18.9343C69.574 19.0098 69.471 19.053 69.3631 19.055H68.25Z" fill="#252628"/>
<path d="M72.3125 9.85753C72 9.85753 71.7004 9.73341 71.4794 9.51247C71.2585 9.29153 71.1344 8.99186 71.1344 8.67941C71.1344 8.36695 71.2585 8.06729 71.4794 7.84635C71.7004 7.62541 72 7.50128 72.3125 7.50128C72.625 7.50128 72.9246 7.62541 73.1456 7.84635C73.3665 8.06729 73.4906 8.36695 73.4906 8.67941C73.4906 8.99186 73.3665 9.29153 73.1456 9.51247C72.9246 9.73341 72.625 9.85753 72.3125 9.85753Z" fill="#252628"/>
<path d="M71.76 19.055C71.6521 19.053 71.5491 19.0098 71.472 18.9342C71.395 18.8587 71.3497 18.7566 71.3456 18.6487V11.5556C71.3497 11.4478 71.395 11.3456 71.472 11.2701C71.5491 11.1945 71.6521 11.1513 71.76 11.1494H72.9137C73.0216 11.1513 73.1247 11.1945 73.2017 11.2701C73.2788 11.3456 73.324 11.4478 73.3281 11.5556V18.6487C73.324 18.7566 73.2788 18.8587 73.2017 18.9342C73.1247 19.0098 73.0216 19.053 72.9137 19.055H71.76Z" fill="#252628"/>
<path d="M81.1769 19.055C81.1225 19.0561 81.0684 19.0465 81.0177 19.0266C80.967 19.0068 80.9207 18.9772 80.8815 18.9394C80.8422 18.9017 80.8108 18.8566 80.789 18.8068C80.7672 18.7569 80.7554 18.7032 80.7544 18.6488V14.635C80.7544 13.4 80.1775 12.7257 79.1294 12.7257C78.698 12.7248 78.2728 12.8277 77.8896 13.0257C77.5064 13.2236 77.1764 13.5109 76.9275 13.8632V18.6488C76.9275 18.9332 76.7731 19.055 76.4237 19.055H75.3675C75.2596 19.053 75.1566 19.0098 75.0795 18.9343C75.0025 18.8588 74.9573 18.7566 74.9531 18.6488V11.5557C74.9573 11.4478 75.0025 11.3457 75.0795 11.2701C75.1566 11.1946 75.2596 11.1514 75.3675 11.1494H75.9525C76.0326 11.1464 76.1114 11.1704 76.1763 11.2175C76.2411 11.2647 76.2882 11.3323 76.31 11.4094L76.505 11.9457C77.3269 11.3336 78.3164 10.9877 79.3406 10.9544C80.6081 10.9544 82.745 11.4419 82.745 14.7082V18.6488C82.7408 18.758 82.6944 18.8613 82.6156 18.9371C82.5369 19.0128 82.4318 19.0551 82.3225 19.055H81.1769Z" fill="#252628"/>
<path d="M87.75 23.5806C86.6197 23.5443 85.5221 23.1925 84.5812 22.565C84.5488 22.5451 84.5207 22.5189 84.4986 22.488C84.4764 22.457 84.4607 22.422 84.4524 22.3848C84.4441 22.3477 84.4433 22.3093 84.45 22.2718C84.4568 22.2344 84.471 22.1987 84.4919 22.1669L84.9306 21.3544C84.9594 21.3094 84.999 21.2724 85.0459 21.2468C85.0928 21.2212 85.1454 21.2079 85.1987 21.2081C85.2533 21.204 85.3077 21.2183 85.3531 21.2487C85.951 21.6024 86.6257 21.806 87.3194 21.8419C87.7292 21.8706 88.1404 21.8131 88.5267 21.6731C88.9129 21.5332 89.2656 21.3139 89.5619 21.0294C89.7599 20.8374 89.9123 20.6034 90.0079 20.3446C90.1036 20.0859 90.1399 19.809 90.1144 19.5344V19.3719C89.4277 19.6888 88.6846 19.8656 87.9287 19.8919C87.3632 19.8819 86.8055 19.7577 86.2893 19.5265C85.773 19.2954 85.3088 18.9622 84.9247 18.547C84.5406 18.1318 84.2445 17.6431 84.0543 17.1104C83.864 16.5778 83.7834 16.0121 83.8175 15.4475C83.8175 12.8962 85.5481 10.9706 87.88 10.9706C88.8645 10.9514 89.8167 11.3223 90.5287 12.0025L90.7237 11.4175C90.805 11.2469 90.8944 11.1819 91.0406 11.1819H91.8531C91.9465 11.1818 92.0363 11.2184 92.1031 11.2837C92.1699 11.349 92.2085 11.4378 92.2106 11.5312V19.8187C92.2106 21.9637 90.4556 23.5156 87.9287 23.5806H87.75ZM88.0506 12.75C86.6531 12.75 85.7106 13.8469 85.7106 15.4719C85.6715 15.8144 85.7056 16.1613 85.8104 16.4897C85.9153 16.8181 86.0887 17.1205 86.319 17.377C86.5494 17.6334 86.8315 17.8381 87.1468 17.9775C87.4621 18.1169 87.8034 18.1878 88.1481 18.1856C88.6688 18.1818 89.1822 18.0625 89.6512 17.8362C89.8029 17.7616 89.9306 17.6459 90.0196 17.5022C90.1087 17.3586 90.1556 17.1928 90.155 17.0237V14.2206C90.1566 14.0445 90.1057 13.872 90.0087 13.725C89.7841 13.4178 89.489 13.1689 89.1483 12.9993C88.8076 12.8296 88.4312 12.7441 88.0506 12.75V12.75Z" fill="#252628"/>
<path d="M32.37 23.1663C32.2613 23.1644 32.1573 23.1215 32.079 23.0461C32.0006 22.9708 31.9536 22.8686 31.9475 22.76V11.125C31.9517 11.0309 31.992 10.942 32.0602 10.8769C32.1283 10.8118 32.2189 10.7756 32.3131 10.7757H33.1256C33.1959 10.7742 33.2648 10.7956 33.322 10.8366C33.3791 10.8776 33.4214 10.9361 33.4425 11.0032L33.5481 11.6613L33.6212 11.5963C34.3425 10.9204 35.2978 10.5505 36.2862 10.5644C38.5775 10.5644 40.3487 12.49 40.3487 15.0494C40.3828 15.6129 40.3025 16.1776 40.1126 16.7092C39.9227 17.2409 39.6272 17.7287 39.2439 18.1431C38.8605 18.5576 38.3973 18.8902 37.882 19.1209C37.3667 19.3517 36.8101 19.4757 36.2456 19.4857C35.5002 19.469 34.7709 19.265 34.125 18.8925L34.0437 22.76C34.0442 22.8177 34.0323 22.8749 34.0089 22.9276C33.9855 22.9804 33.9511 23.0276 33.9081 23.066C33.865 23.1044 33.8143 23.1333 33.7592 23.1506C33.7042 23.1678 33.646 23.1732 33.5887 23.1663H32.37ZM36.01 12.2788C35.6274 12.2795 35.2505 12.3722 34.9112 12.5489C34.5719 12.7257 34.2799 12.9813 34.06 13.2944C33.9631 13.4414 33.9121 13.614 33.9137 13.79V16.5607C33.9112 16.7301 33.9573 16.8967 34.0466 17.0407C34.1359 17.1847 34.2646 17.3001 34.4175 17.3732C34.8852 17.6031 35.3994 17.7227 35.9206 17.7225C36.2646 17.7246 36.6051 17.6539 36.9198 17.515C37.2344 17.3761 37.5162 17.1721 37.7464 16.9166C37.9766 16.661 38.1502 16.3596 38.2556 16.0322C38.361 15.7048 38.396 15.3588 38.3581 15.0169C38.35 13.3757 37.375 12.2788 36.01 12.2788V12.2788Z" fill="#252628"/>
<path d="M16.7781 13.335L13.8125 14.2694C13.1833 14.4687 12.5079 14.4687 11.8787 14.2694L8.93749 13.4C8.90015 13.39 8.86101 13.3888 8.82311 13.3964C8.78521 13.404 8.74956 13.4202 8.71892 13.4437C8.68828 13.4673 8.66348 13.4976 8.64643 13.5323C8.62939 13.567 8.62055 13.6051 8.62062 13.6438V17.2188C8.61903 17.2726 8.6359 17.3253 8.66842 17.3681C8.70094 17.411 8.74715 17.4414 8.79937 17.4544L12.3987 18.5431C12.685 18.6285 12.99 18.6285 13.2762 18.5431L16.9162 17.3813C16.9662 17.3656 17.0098 17.3341 17.0406 17.2917C17.0713 17.2493 17.0875 17.198 17.0869 17.1456V13.5625C17.0843 13.5261 17.0739 13.4908 17.0563 13.4588C17.0387 13.4269 17.0144 13.3991 16.985 13.3775C16.9557 13.3558 16.922 13.3408 16.8862 13.3335C16.8505 13.3262 16.8136 13.3267 16.7781 13.335V13.335Z" fill="url(#paint0_linear)"/>
<path d="M22.7906 5.63341L14.9662 3.30967C13.5983 2.90329 12.1417 2.90329 10.7737 3.30967L2.94935 5.63341C2.09392 5.903 1.34673 6.43832 0.81634 7.16158C0.285945 7.88485 -2.58717e-05 8.75839 -2.58717e-05 9.65529V22.3465C-0.00743099 23.2501 0.275017 24.1322 0.805854 24.8633C1.33669 25.5945 2.08795 26.1363 2.94935 26.409L10.7737 28.7328C12.1417 29.1392 13.5983 29.1392 14.9662 28.7328L22.7906 26.409C23.652 26.1363 24.4033 25.5945 24.9341 24.8633C25.4649 24.1322 25.7474 23.2501 25.74 22.3465V9.65529C25.74 8.75839 25.454 7.88485 24.9236 7.16158C24.3932 6.43832 23.646 5.903 22.7906 5.63341V5.63341ZM19.7112 17.9428C19.7121 18.3405 19.5844 18.7278 19.3472 19.047C19.11 19.3662 18.776 19.6002 18.395 19.714L13.8125 21.079C13.2005 21.2636 12.5476 21.2636 11.9356 21.079L8.85622 20.1609C8.83039 20.1536 8.80323 20.1521 8.77676 20.1567C8.75029 20.1613 8.72519 20.1717 8.70333 20.1874C8.68147 20.203 8.66341 20.2233 8.6505 20.2469C8.63758 20.2704 8.63014 20.2966 8.62872 20.3234V22.4115C8.62816 22.5104 8.60503 22.6079 8.56112 22.6965C8.5172 22.7851 8.45365 22.8625 8.3753 22.9228C8.29694 22.9832 8.20586 23.0248 8.10898 23.0446C8.0121 23.0644 7.91197 23.0619 7.81622 23.0372L6.49997 22.6553C6.36411 22.6137 6.24511 22.5298 6.16033 22.4158C6.07554 22.3018 6.02943 22.1636 6.02872 22.0215V12.3447C6.02808 12.057 6.09476 11.7731 6.22342 11.5158C6.35209 11.2584 6.53917 11.0348 6.76971 10.8626C7.00026 10.6905 7.26787 10.5747 7.55116 10.5245C7.83445 10.4743 8.12556 10.491 8.40122 10.5734L12.4231 11.7597C12.7066 11.8448 13.0089 11.8448 13.2925 11.7597L17.3143 10.5003C17.5932 10.4056 17.8908 10.379 18.182 10.4228C18.4733 10.4667 18.7498 10.5796 18.9885 10.7523C19.2272 10.9249 19.421 11.1522 19.5538 11.4151C19.6866 11.678 19.7545 11.9689 19.7518 12.2634L19.7112 17.9428Z" fill="url(#paint1_linear)"/>
<defs>
<linearGradient id="paint0_linear" x1="12.87" y1="2.35815" x2="12.87" y2="31.2425" gradientUnits="userSpaceOnUse">
<stop stop-color="#1A6BFE"/>
<stop offset="0.65" stop-color="#1D5AE1"/>
<stop offset="1" stop-color="#1A56E3"/>
</linearGradient>
<linearGradient id="paint1_linear" x1="12.87" y1="2.35904" x2="12.87" y2="31.2434" gradientUnits="userSpaceOnUse">
<stop stop-color="#1A6BFE"/>
<stop offset="0.65" stop-color="#1D5AE1"/>
<stop offset="1" stop-color="#1A56E3"/>
</linearGradient>
</defs>
</svg>
