<svg width="176" height="32" viewBox="0 0 176 32" fill="none" xmlns="http://www.w3.org/2000/svg">
<path d="M26 16C26 26.4 23.4 29 13 29C2.6 29 0 26.4 0 16C0 5.6 2.6 3 13 3C23.4 3 26 5.6 26 16Z" fill="url(#paint0_linear)"/>
<path d="M41.57 9.31997C41.22 8.77997 40.06 8.57997 39.09 8.57997C38.3594 8.57599 37.6365 8.72933 36.9705 9.02957C36.3044 9.32981 35.7108 9.76991 35.23 10.32L35 9.42997C34.961 9.27184 34.8716 9.1307 34.7454 9.02786C34.6191 8.92503 34.4627 8.8661 34.3 8.85997H33.62C33.4191 8.86754 33.2287 8.9514 33.0875 9.09446C32.9463 9.23752 32.8649 9.42902 32.86 9.62997V21.33C32.86 21.5325 32.9397 21.7268 33.082 21.8709C33.2242 22.0151 33.4175 22.0973 33.62 22.1H34.91C35.33 22.1 35.91 22.1 35.91 21.33V13.16C36.2246 12.6739 36.6534 12.2722 37.1588 11.9898C37.6643 11.7075 38.2312 11.553 38.81 11.54C39.1919 11.5486 39.5687 11.63 39.92 11.78C40.0071 11.8165 40.1006 11.8354 40.195 11.8354C40.2894 11.8354 40.3829 11.8165 40.47 11.78C40.5677 11.743 40.657 11.6868 40.7326 11.6146C40.8082 11.5425 40.8685 11.4559 40.91 11.36L41.58 9.95997C41.6302 9.86042 41.6554 9.7502 41.6537 9.63874C41.652 9.52728 41.6232 9.41791 41.57 9.31997Z" fill="#333132"/>
<path d="M48 8.57999C47.1083 8.58042 46.2259 8.76154 45.4061 9.11242C44.5864 9.46331 43.8462 9.97667 43.2303 10.6215C42.6144 11.2664 42.1356 12.0294 41.8227 12.8644C41.5099 13.6994 41.3695 14.5892 41.41 15.48C41.41 19.48 44.19 22.4 48.02 22.4C49.7922 22.4567 51.5263 21.8786 52.91 20.77C52.9984 20.716 53.0728 20.6419 53.1272 20.5538C53.1816 20.4657 53.2145 20.366 53.2233 20.2628C53.2321 20.1596 53.2164 20.0558 53.1776 19.9597C53.1388 19.8637 53.078 19.7781 53 19.71L52.25 18.53C52.2088 18.4582 52.1526 18.396 52.0853 18.3477C52.0181 18.2994 51.9412 18.2661 51.86 18.25C51.7554 18.2399 51.6499 18.2515 51.5501 18.2842C51.4503 18.3169 51.3583 18.37 51.28 18.44C50.4062 19.1378 49.3182 19.5123 48.2 19.5C47.2915 19.5164 46.4091 19.1952 45.7238 18.5985C45.0384 18.0019 44.5988 17.1721 44.49 16.27H53.27C53.4572 16.2681 53.637 16.1962 53.7739 16.0686C53.9108 15.9409 53.995 15.7666 54.01 15.58C54.01 15.35 54.06 14.9 54.06 14.67C54.0805 13.8672 53.9379 13.0686 53.641 12.3225C53.3441 11.5763 52.8989 10.8981 52.3325 10.3289C51.7661 9.75966 51.0901 9.31119 50.3454 9.01059C49.6008 8.70999 48.8029 8.5635 48 8.57999ZM47.94 11.26C48.6838 11.2289 49.4109 11.4861 49.9698 11.9779C50.5287 12.4697 50.8763 13.1582 50.94 13.9H44.61C44.7329 13.1282 45.1391 12.43 45.7494 11.9417C46.3597 11.4535 47.1301 11.2104 47.91 11.26H47.94Z" fill="#333132"/>
<path d="M66.85 8.86H66.1C65.66 8.86 65.55 9.19 65.48 9.4L65.23 10.02C64.1076 9.08434 62.6912 8.57444 61.23 8.58C57.72 8.58 54.97 11.58 54.97 15.48C54.97 19.38 57.78 22.4 61.37 22.4C62.4686 22.3781 63.5471 22.1008 64.52 21.59V22C64.52 24.75 62.85 25.32 61.45 25.32C60.368 25.2776 59.3336 24.8645 58.52 24.15C58.4377 24.0799 58.3403 24.0297 58.2354 24.0035C58.1305 23.9773 58.0209 23.9758 57.9153 23.9991C57.8097 24.0223 57.711 24.0697 57.6268 24.1375C57.5426 24.2054 57.4752 24.2918 57.43 24.39L56.76 25.62C56.6776 25.7669 56.6486 25.9377 56.6777 26.1035C56.7069 26.2694 56.7925 26.42 56.92 26.53C58.2039 27.6127 59.8305 28.2046 61.51 28.2C65.3 28.2 67.65 25.82 67.65 22V9.63C67.6448 9.42222 67.5578 9.22488 67.4081 9.08075C67.2583 8.93662 67.0578 8.8573 66.85 8.86ZM64.52 13.25V18.48C63.694 19.0957 62.6996 19.4446 61.67 19.48C60.662 19.4206 59.7174 18.9685 59.0388 18.2207C58.3602 17.473 58.0016 16.489 58.04 15.48C57.9388 14.682 58.1156 13.8736 58.5405 13.1906C58.9655 12.5077 59.6127 11.992 60.3733 11.7302C61.1339 11.4685 61.9614 11.4767 62.7166 11.7535C63.4718 12.0303 64.1087 12.5588 64.52 13.25Z" fill="#333132"/>
<path d="M72.51 8.85999H70.95C70.5247 8.85999 70.18 9.20473 70.18 9.62999V21.33C70.18 21.7552 70.5247 22.1 70.95 22.1H72.51C72.9353 22.1 73.28 21.7552 73.28 21.33V9.62999C73.28 9.20473 72.9353 8.85999 72.51 8.85999Z" fill="#333132"/>
<path d="M71.73 2.99997C71.4631 2.99989 71.1989 3.05323 70.9529 3.15685C70.7069 3.26047 70.4842 3.41228 70.2978 3.60332C70.1114 3.79437 69.9652 4.02079 69.8676 4.26924C69.7701 4.51769 69.7233 4.78315 69.73 5.04997C69.73 5.5804 69.9407 6.08911 70.3158 6.46418C70.6909 6.83926 71.1996 7.04997 71.73 7.04997C72.271 7.04997 72.7899 6.83504 73.1725 6.45247C73.5551 6.06989 73.77 5.55101 73.77 5.00997C73.77 4.46893 73.5551 3.95005 73.1725 3.56747C72.7899 3.1849 72.271 2.96997 71.73 2.96997V2.99997Z" fill="#333132"/>
<path d="M80.19 14.05C78.82 13.45 78.07 13 78.07 12.29C78.07 11.79 78.53 11.29 79.57 11.29C80.5084 11.3003 81.4332 11.5153 82.28 11.92C82.4558 12.0055 82.6579 12.02 82.8441 11.9604C83.0304 11.9008 83.1865 11.7717 83.28 11.6L83.73 10.7C83.8175 10.5005 83.8313 10.2764 83.769 10.0676C83.7068 9.85889 83.5725 9.679 83.39 9.55999C82.2187 8.88071 80.8838 8.53488 79.53 8.55999C76.47 8.55999 75.1 10.41 75.1 12.24C75.1 14.53 76.82 15.62 78.69 16.46C80.56 17.3 81.37 17.81 81.37 18.57C81.37 19.33 80.77 19.68 79.81 19.68C78.7112 19.6769 77.6361 19.3613 76.71 18.77C76.6129 18.7085 76.5041 18.6679 76.3905 18.6507C76.2769 18.6335 76.1609 18.6401 76.05 18.67C75.9658 18.6953 75.8877 18.7376 75.8206 18.7944C75.7535 18.8512 75.6989 18.9212 75.66 19L75.07 20.2C75.0022 20.3516 74.9923 20.5227 75.042 20.6812C75.0918 20.8396 75.1977 20.9743 75.34 21.06C76.6196 21.9318 78.1317 22.3986 79.68 22.4C82.82 22.4 84.45 20.4 84.45 18.48C84.45 16 82.77 15.14 80.19 14.05Z" fill="#333132"/>
<path d="M93.9 19.1999C93.8754 19.0974 93.8255 19.0027 93.7548 18.9245C93.6842 18.8462 93.595 18.787 93.4955 18.7522C93.396 18.7173 93.2893 18.708 93.1853 18.7251C93.0812 18.7422 92.9831 18.7851 92.9 18.8499C92.295 19.2163 91.6068 19.4228 90.9 19.4499C90.43 19.4499 90.01 19.3599 90.01 18.2799V11.5399H93.28C93.48 11.5349 93.6703 11.4532 93.8118 11.3117C93.9532 11.1703 94.0349 10.9799 94.04 10.7799V9.62994C94.0413 9.5293 94.0226 9.4294 93.985 9.33603C93.9474 9.24267 93.8917 9.1577 93.821 9.08607C93.7503 9.01443 93.666 8.95755 93.5732 8.91874C93.4803 8.87992 93.3807 8.85993 93.28 8.85994H90.05V5.39994C90.0527 5.30062 90.0356 5.20175 89.9997 5.1091C89.9638 5.01644 89.9099 4.93183 89.841 4.86019C89.7722 4.78855 89.6898 4.7313 89.5986 4.69178C89.5075 4.65225 89.4094 4.63123 89.31 4.62994H87.72C87.5246 4.64266 87.3413 4.72937 87.2076 4.87241C87.0738 5.01546 86.9996 5.2041 87 5.39994V8.85994H85.62C85.5178 8.85571 85.4157 8.87273 85.3204 8.90992C85.2251 8.94712 85.1385 9.00369 85.0661 9.07605C84.9937 9.14841 84.9372 9.235 84.9 9.33034C84.8628 9.42568 84.8458 9.52769 84.85 9.62994V10.7799C84.8526 10.9824 84.9349 11.1757 85.079 11.318C85.2232 11.4602 85.4175 11.54 85.62 11.5399H87V18.3899C87 20.2599 87.39 22.3899 90.43 22.3899C91.6766 22.3649 92.8997 22.0463 94 21.4599C94.171 21.3812 94.3049 21.2394 94.3739 21.0643C94.4428 20.8891 94.4414 20.6941 94.37 20.5199L93.9 19.1999Z" fill="#333132"/>
<path d="M104.32 9.31996C103.98 8.77996 102.82 8.57996 101.85 8.57996C101.122 8.58317 100.403 8.73979 99.7395 9.0396C99.0762 9.33941 98.4834 9.77568 98 10.32L97.72 9.42996C97.681 9.27183 97.5916 9.13068 97.4654 9.02785C97.3391 8.92501 97.1827 8.86608 97.02 8.85996H96.35C96.1474 8.86502 95.9545 8.94778 95.8111 9.09109C95.6678 9.23441 95.5851 9.42734 95.58 9.62996V21.33C95.58 21.5342 95.6611 21.73 95.8055 21.8744C95.9499 22.0188 96.1458 22.1 96.35 22.1H97.63C98.05 22.1 98.63 22.1 98.63 21.33V13.16C98.9446 12.6739 99.3734 12.2722 99.8788 11.9898C100.384 11.7075 100.951 11.553 101.53 11.54C101.912 11.5486 102.289 11.63 102.64 11.78C102.727 11.8165 102.821 11.8354 102.915 11.8354C103.009 11.8354 103.103 11.8165 103.19 11.78C103.288 11.743 103.377 11.6868 103.453 11.6146C103.528 11.5425 103.589 11.4559 103.63 11.36L104.3 9.95996C104.357 9.86374 104.389 9.75451 104.393 9.64254C104.396 9.53058 104.371 9.41956 104.32 9.31996Z" fill="#333132"/>
<path d="M110.49 8.57997C108.956 8.57793 107.433 8.82793 105.98 9.31997C105.884 9.34511 105.794 9.38957 105.716 9.45065C105.638 9.51172 105.573 9.58812 105.525 9.67517C105.477 9.76222 105.448 9.85809 105.438 9.95692C105.429 10.0558 105.44 10.1555 105.47 10.25L105.72 11.31C105.733 11.4153 105.768 11.5168 105.822 11.6079C105.876 11.699 105.949 11.7777 106.036 11.8389C106.123 11.9002 106.221 11.9426 106.325 11.9634C106.429 11.9843 106.536 11.9831 106.64 11.96C107.795 11.5891 108.997 11.3837 110.21 11.35C110.459 11.3263 110.709 11.354 110.947 11.4314C111.184 11.5089 111.403 11.6343 111.59 11.8C112.043 12.4267 112.236 13.2041 112.13 13.97C111.328 13.75 110.501 13.6324 109.67 13.62C106.44 13.62 104.34 15.32 104.34 17.94C104.297 18.5256 104.379 19.1136 104.579 19.6654C104.78 20.2173 105.095 20.7204 105.504 21.1417C105.913 21.5629 106.407 21.8929 106.952 22.1097C107.498 22.3266 108.083 22.4255 108.67 22.4C110.116 22.4142 111.514 21.878 112.58 20.9L112.81 21.56C112.95 21.88 113.11 22.1 113.48 22.1H114.41C114.611 22.0924 114.801 22.0085 114.943 21.8655C115.084 21.7224 115.165 21.5309 115.17 21.33V14.44C115.17 11.24 114.82 8.57997 110.49 8.57997ZM109.25 19.81C108.998 19.8286 108.744 19.7918 108.507 19.7024C108.27 19.6129 108.056 19.4728 107.879 19.2919C107.702 19.111 107.566 18.8936 107.482 18.6549C107.397 18.4162 107.366 18.162 107.39 17.91C107.39 16.73 108.39 15.91 109.9 15.91C110.651 15.9059 111.396 16.038 112.1 16.3V18.3C111.76 18.7404 111.33 19.1029 110.838 19.3634C110.347 19.6238 109.805 19.7761 109.25 19.81Z" fill="#333132"/>
<path d="M125.19 19.1999C125.157 19.1026 125.104 19.0136 125.033 18.9393C124.962 18.865 124.876 18.8072 124.78 18.7699C124.686 18.7416 124.588 18.7341 124.491 18.7479C124.394 18.7618 124.302 18.7966 124.22 18.8499C123.614 19.2147 122.926 19.4211 122.22 19.4499C121.76 19.4499 121.34 19.3599 121.34 18.2799V11.5399H124.6C124.801 11.535 124.992 11.4536 125.136 11.3124C125.279 11.1712 125.362 10.9808 125.37 10.7799V9.62994C125.371 9.52845 125.352 9.42772 125.314 9.33369C125.276 9.23967 125.219 9.15425 125.147 9.08248C125.076 9.0107 124.99 8.95404 124.896 8.91582C124.802 8.8776 124.701 8.8586 124.6 8.85994H121.34V5.39994C121.343 5.30062 121.326 5.20175 121.29 5.1091C121.254 5.01644 121.2 4.93183 121.131 4.86019C121.062 4.78855 120.98 4.7313 120.889 4.69178C120.797 4.65225 120.699 4.63123 120.6 4.62994H119C118.798 4.63257 118.604 4.71486 118.462 4.85898C118.32 5.0031 118.24 5.19745 118.24 5.39994V8.85994H116.9C116.799 8.85712 116.698 8.87518 116.603 8.913C116.509 8.95083 116.424 9.00761 116.353 9.07983C116.281 9.15204 116.226 9.23814 116.189 9.33278C116.153 9.42741 116.136 9.52856 116.14 9.62994V10.7799C116.14 10.9815 116.22 11.1748 116.363 11.3173C116.505 11.4599 116.698 11.5399 116.9 11.5399H118.24V18.3899C118.24 20.2599 118.63 22.3899 121.66 22.3899C122.941 22.3773 124.2 22.0548 125.33 21.4499C125.501 21.3713 125.634 21.229 125.702 21.0533C125.769 20.8776 125.765 20.6826 125.69 20.5099L125.19 19.1999Z" fill="#333132"/>
<path d="M129.18 8.85999H127.62C127.195 8.85999 126.85 9.20473 126.85 9.62999V21.33C126.85 21.7552 127.195 22.1 127.62 22.1H129.18C129.605 22.1 129.95 21.7552 129.95 21.33V9.62999C129.95 9.20473 129.605 8.85999 129.18 8.85999Z" fill="#333132"/>
<path d="M128.4 2.99997C128.133 2.99989 127.869 3.05323 127.623 3.15685C127.377 3.26047 127.154 3.41228 126.968 3.60332C126.781 3.79437 126.635 4.02079 126.538 4.26924C126.44 4.51769 126.393 4.78315 126.4 5.04997C126.4 5.5804 126.611 6.08911 126.986 6.46418C127.361 6.83926 127.87 7.04997 128.4 7.04997C128.941 7.04997 129.46 6.83504 129.843 6.45247C130.225 6.06989 130.44 5.55101 130.44 5.00997C130.44 4.46893 130.225 3.95005 129.843 3.56747C129.46 3.1849 128.941 2.96997 128.4 2.96997V2.99997Z" fill="#333132"/>
<path d="M138.39 8.57998C137.015 8.54416 135.66 8.91979 134.499 9.65875C133.338 10.3977 132.425 11.4663 131.875 12.7278C131.326 13.9892 131.165 15.386 131.414 16.7391C131.664 18.0923 132.311 19.3403 133.274 20.3232C134.237 21.3061 135.471 21.9791 136.819 22.2562C138.167 22.5332 139.567 22.4015 140.839 21.878C142.111 21.3546 143.199 20.4631 143.961 19.3179C144.724 18.1727 145.128 16.8259 145.12 15.45C145.11 13.655 144.402 11.9343 143.146 10.6521C141.89 9.36985 140.184 8.62671 138.39 8.57998ZM142.07 15.45C142.107 15.9587 142.04 16.4698 141.871 16.9511C141.702 17.4324 141.435 17.8738 141.088 18.2475C140.741 18.6212 140.32 18.9193 139.852 19.1231C139.385 19.327 138.88 19.4322 138.37 19.4322C137.86 19.4322 137.355 19.327 136.888 19.1231C136.42 18.9193 135.999 18.6212 135.652 18.2475C135.305 17.8738 135.038 17.4324 134.869 16.9511C134.7 16.4698 134.633 15.9587 134.67 15.45C134.633 14.9412 134.7 14.4302 134.869 13.9489C135.038 13.4675 135.305 13.0262 135.652 12.6525C135.999 12.2788 136.42 11.9807 136.888 11.7768C137.355 11.573 137.86 11.4678 138.37 11.4678C138.88 11.4678 139.385 11.573 139.852 11.7768C140.32 11.9807 140.741 12.2788 141.088 12.6525C141.435 13.0262 141.702 13.4675 141.871 13.9489C142.04 14.4302 142.107 14.9412 142.07 15.45Z" fill="#333132"/>
<path d="M153.59 8.57999C152.002 8.5549 150.466 9.15045 149.31 10.24L149.01 9.36999C148.977 9.2175 148.89 9.08207 148.765 8.98843C148.64 8.89479 148.486 8.8492 148.33 8.85998H147.65C147.449 8.86756 147.259 8.95141 147.118 9.09447C146.976 9.23753 146.895 9.42904 146.89 9.62999V21.33C146.89 21.5325 146.97 21.7268 147.112 21.871C147.254 22.0151 147.448 22.0974 147.65 22.1H149.08C149.69 22.1 149.99 21.85 149.99 21.33V13.33C150.339 12.7842 150.822 12.3362 151.392 12.0283C151.963 11.7204 152.602 11.5627 153.25 11.57C154.8 11.57 155.65 12.7 155.65 14.75V21.36C155.653 21.5634 155.735 21.7577 155.878 21.9016C156.022 22.0454 156.217 22.1274 156.42 22.13H158C158.202 22.1248 158.394 22.0417 158.535 21.8982C158.677 21.7546 158.757 21.5617 158.76 21.36V14.86C158.75 10.63 157.06 8.57999 153.59 8.57999Z" fill="#333132"/>
<path d="M165.54 14.05C164.17 13.45 163.42 13 163.42 12.29C163.42 11.79 163.88 11.29 164.92 11.29C165.858 11.3013 166.783 11.5162 167.63 11.92C167.806 12.0055 168.008 12.02 168.194 11.9604C168.38 11.9008 168.537 11.7717 168.63 11.6L169.08 10.7C169.167 10.5005 169.181 10.2764 169.119 10.0676C169.057 9.85886 168.922 9.67897 168.74 9.55996C167.569 8.87925 166.234 8.53332 164.88 8.55996C161.82 8.55996 160.45 10.41 160.45 12.24C160.45 14.53 162.17 15.62 164.04 16.46C165.91 17.3 166.72 17.81 166.72 18.57C166.72 19.33 166.12 19.68 165.16 19.68C164.062 19.672 162.988 19.3568 162.06 18.77C161.964 18.7061 161.855 18.6641 161.741 18.6468C161.627 18.6296 161.511 18.6374 161.4 18.67C161.314 18.694 161.234 18.7358 161.165 18.7926C161.096 18.8495 161.04 18.9201 161 19L160.41 20.2C160.342 20.3516 160.332 20.5227 160.382 20.6811C160.432 20.8396 160.538 20.9743 160.68 21.06C161.954 21.9279 163.459 22.3946 165 22.4C168.14 22.4 169.77 20.4 169.77 18.48C169.8 16 168.12 15.14 165.54 14.05Z" fill="#333132"/>
<path d="M5.93 17.42C5.8683 17.4797 5.81925 17.5511 5.78574 17.6302C5.75224 17.7092 5.73497 17.7942 5.73497 17.88C5.73497 17.9658 5.75224 18.0508 5.78574 18.1298C5.81925 18.2088 5.8683 18.2803 5.93 18.34L6.83 19.25C6.88037 19.2881 6.94182 19.3087 7.005 19.3087C7.06817 19.3087 7.12962 19.2881 7.18 19.25C7.54839 19.0302 7.97949 18.9394 8.40523 18.992C8.83097 19.0445 9.22707 19.2374 9.53096 19.5401C9.83486 19.8429 10.0292 20.2383 10.0834 20.6638C10.1375 21.0893 10.0484 21.5208 9.83 21.89C9.79187 21.9404 9.77125 22.0018 9.77125 22.065C9.77125 22.1282 9.79187 22.1896 9.83 22.24L10.74 23.15C10.8005 23.212 10.8729 23.2612 10.9527 23.2949C11.0326 23.3285 11.1184 23.3458 11.205 23.3458C11.2916 23.3458 11.3774 23.3285 11.4573 23.2949C11.5371 23.2612 11.6095 23.212 11.67 23.15L14.26 20.56C14.2973 20.5209 14.3181 20.469 14.3181 20.415C14.3181 20.361 14.2973 20.3091 14.26 20.27L8.81 14.83C8.76927 14.792 8.71567 14.7709 8.66 14.7709C8.60433 14.7709 8.55072 14.792 8.51 14.83L5.93 17.42ZM20.31 13.66L19.39 12.74C19.3403 12.7002 19.2786 12.6786 19.215 12.6786C19.1514 12.6786 19.0897 12.7002 19.04 12.74C18.6718 12.9507 18.2445 13.0341 17.8241 12.9776C17.4037 12.921 17.0136 12.7274 16.7142 12.4269C16.4149 12.1264 16.2228 11.7356 16.1678 11.315C16.1128 10.8944 16.1979 10.4674 16.41 10.1C16.4466 10.049 16.4663 9.98778 16.4663 9.92499C16.4663 9.8622 16.4466 9.80099 16.41 9.74999L15.5 8.83999C15.4395 8.778 15.3671 8.72875 15.2873 8.69512C15.2074 8.66149 15.1216 8.64417 15.035 8.64417C14.9483 8.64417 14.8626 8.66149 14.7827 8.69512C14.7029 8.72875 14.6305 8.778 14.57 8.83999L9.86 13.48C9.82204 13.5207 9.80093 13.5743 9.80093 13.63C9.80093 13.6857 9.82204 13.7393 9.86 13.78L15.34 19.26C15.3807 19.2979 15.4343 19.3191 15.49 19.3191C15.5457 19.3191 15.5993 19.2979 15.64 19.26L20.31 14.58C20.4297 14.4568 20.4967 14.2918 20.4967 14.12C20.4967 13.9482 20.4297 13.7832 20.31 13.66Z" fill="white"/>
<defs>
<linearGradient id="paint0_linear" x1="2.6" y1="5.6" x2="23.4" y2="26.4" gradientUnits="userSpaceOnUse">
<stop stop-color="#43B39C"/>
<stop offset="1" stop-color="#46948D"/>
</linearGradient>
</defs>
</svg>
