<svg xmlns="http://www.w3.org/2000/svg" viewBox="0 0 16 16" class="symbol symbol-Artboard 55" aria-labelledby="title" role="img"><title id="title">Artboard 55 icon</title><g data-name="Layer 1"><path d="M14.5 7.847L9.026 1.623a1.367 1.367 0 0 0-2.052 0L1.5 7.847a1.309 1.309 0 0 0-.22 1.44 1.329 1.329 0 0 0 1.246.778h.5v3.4a1.376 1.376 0 0 0 1.334 1.407h7.3a1.4 1.4 0 0 0 1.369-1.407v-3.4h.453a1.329 1.329 0 0 0 1.246-.778 1.309 1.309 0 0 0-.228-1.44zM8.016 2.512L13.5 8.719c0 .006-.006 0-.022 0h-1.8v4.75c0 .011-.011.06-.022.06h-7.3c-.011 0 .013-.049.013-.06v-4.7H2.527c-.005 0-.02-.018-.013-.033l5.475-6.224" role="presentation"/><path d="M9.539 8.277h-.9v-.922a.658.658 0 0 0-.655-.673h-.012a.681.681 0 0 0-.683.673v.922h-.828a.65.65 0 0 0-.673.645v.014a.686.686 0 0 0 .673.688h.829v.81a.689.689 0 0 0 .692.673h-.01a.666.666 0 0 0 .664-.673v-.81h.9a.7.7 0 0 0 .673-.7v.014a.662.662 0 0 0-.67-.661z" role="presentation"/></g></svg>