<svg xmlns="http://www.w3.org/2000/svg" viewBox="0 0 16 16" aria-labelledby="title-checkins-logo" role="img" class="symbol symbol-checkins-logo"><title id="title-checkins-logo">checkins-logo icon</title><g data-name="Layer 1"><path d="M1.878 8.6a.2.2 0 0 1-.291 0l-.438-.437a.206.206 0 0 1 .292-.291l.291.291.729-.728a.206.206 0 0 1 .291.291z" fill-rule="evenodd" role="presentation"/><path d="M3.362 6.109H.4a.4.4 0 0 0-.4.407v2.968a.407.407 0 0 0 .407.407h2.968a.407.407 0 0 0 .407-.407V6.516a.41.41 0 0 0-.42-.407zm0 3.154a.18.18 0 0 1-.18.18H.6a.18.18 0 0 1-.18-.18V6.705a.181.181 0 0 1 .18-.18h.472v.191a.127.127 0 0 0 .127.127h1.363a.127.127 0 0 0 .127-.127v-.191h.5a.181.181 0 0 1 .18.18z" fill-rule="evenodd" role="presentation"/><path d="M5.376 9.523a.881.881 0 0 1-.9-.9.887.887 0 0 1 .91-.9.9.9 0 0 1 .687.269l-.244.282a.642.642 0 0 0-.446-.2.516.516 0 0 0-.5.543v.005a.517.517 0 0 0 .5.548.631.631 0 0 0 .459-.2l.244.247a.9.9 0 0 1-.71.306zm1.724-.03v-.745c0-.179-.084-.271-.229-.271s-.237.092-.237.271v.745h-.383V7.675h.378v.672a.475.475 0 0 1 .392-.214.438.438 0 0 1 .453.5v.864zm1.869-.536H8.04a.31.31 0 0 0 .326.262.436.436 0 0 0 .324-.137l.217.192a.705.705 0 0 1-1.243-.441v-.005a.664.664 0 0 1 .66-.7.65.65 0 0 1 .65.725.936.936 0 0 1-.005.104zm-.645-.52a.3.3 0 0 0-.289.284h.571a.286.286 0 0 0-.282-.284zM9.8 9.523a.682.682 0 0 1-.7-.69v-.005a.686.686 0 0 1 .7-.7.656.656 0 0 1 .533.224l-.232.249a.39.39 0 0 0-.3-.147.341.341 0 0 0-.324.364.342.342 0 0 0 .338.369.423.423 0 0 0 .307-.142l.222.224a.673.673 0 0 1-.544.254zm1.559-.03l-.349-.545-.132.139v.406H10.5V7.675h.378v.969l.444-.486h.453l-.508.525.526.81z" role="presentation"/><path d="M11.76 8.9v-.361h.767V8.9zm1.084.593V7.749h.383v1.744zm1.544 0v-.745c0-.179-.085-.271-.23-.271s-.236.092-.236.271v.745h-.379V8.158h.379v.189a.472.472 0 0 1 .391-.214.438.438 0 0 1 .453.5v.864zm1.101.025a.935.935 0 0 1-.573-.2l.162-.249a.754.754 0 0 0 .421.159c.11 0 .16-.039.16-.1v-.006c0-.082-.13-.11-.277-.155-.187-.054-.4-.142-.4-.4v-.006a.436.436 0 0 1 .488-.423.924.924 0 0 1 .5.154l-.144.262a.794.794 0 0 0-.362-.125c-.092 0-.139.04-.139.093 0 .074.127.109.271.159.187.062.4.152.4.4.004.302-.218.437-.507.437zM4.551 7.313a.011.011 0 0 1-.012-.013v-.741a.011.011 0 0 1 .012-.011h.106a.011.011 0 0 1 .012.011V6.6a.168.168 0 0 1 .148-.066.188.188 0 0 1 .193.134.662.662 0 0 1 0 .315.188.188 0 0 1-.193.134.168.168 0 0 1-.148-.066V7.3a.011.011 0 0 1-.012.011zm.336-.382a.461.461 0 0 0 0-.209.111.111 0 0 0-.207 0 .5.5 0 0 0 0 .209.111.111 0 0 0 .207 0zm.421.181c-.109 0-.153-.052-.153-.159V6.33a.011.011 0 0 1 .012-.011h.106a.011.011 0 0 1 .012.011v.616c0 .038.015.051.049.051h.025a.011.011 0 0 1 .012.011V7.1a.011.011 0 0 1-.012.011zm.507-.007a.011.011 0 0 1-.015-.011v-.041a.183.183 0 0 1-.157.065.167.167 0 0 1-.188-.17c0-.121.086-.177.223-.177h.114a.006.006 0 0 0 .008-.007v-.027c0-.063-.03-.092-.124-.092a.193.193 0 0 0-.127.038.01.01 0 0 1-.016 0L5.491 6.6a.011.011 0 0 1 0-.015.329.329 0 0 1 .2-.054c.17 0 .232.058.232.194v.365a.01.01 0 0 1-.011.011zM5.8 6.918v-.043a.006.006 0 0 0-.007-.007H5.7c-.083 0-.12.023-.12.075s.034.07.1.07c.077 0 .12-.031.12-.095zm.629.187a.011.011 0 0 1-.012-.011v-.322c0-.072-.036-.121-.1-.121a.106.106 0 0 0-.106.121v.322a.011.011 0 0 1-.012.011h-.111a.011.011 0 0 1-.012-.011v-.535a.011.011 0 0 1 .012-.011h.106a.011.011 0 0 1 .012.011V6.6a.171.171 0 0 1 .147-.065.19.19 0 0 1 .193.207v.352a.011.011 0 0 1-.012.011zm.622 0a.011.011 0 0 1-.012-.011v-.322c0-.072-.035-.121-.1-.121a.106.106 0 0 0-.106.121v.322a.011.011 0 0 1-.012.011H6.71a.011.011 0 0 1-.01-.011v-.535a.011.011 0 0 1 .012-.011h.106a.011.011 0 0 1 .012.011V6.6a.171.171 0 0 1 .147-.065.19.19 0 0 1 .193.207v.352a.011.011 0 0 1-.012.011zm.281-.662a.011.011 0 0 1-.011-.012v-.1a.01.01 0 0 1 .011-.011h.106a.011.011 0 0 1 .012.011v.1a.012.012 0 0 1-.012.012zm0 .662a.01.01 0 0 1-.011-.011v-.535a.01.01 0 0 1 .011-.011h.106a.011.011 0 0 1 .012.011v.535a.011.011 0 0 1-.012.011zm.628 0a.01.01 0 0 1-.011-.011v-.322c0-.072-.036-.121-.106-.121a.106.106 0 0 0-.106.121v.322a.011.011 0 0 1-.012.011h-.106a.011.011 0 0 1-.012-.011v-.535a.011.011 0 0 1 .012-.011h.106a.011.011 0 0 1 .012.011V6.6a.171.171 0 0 1 .147-.065.19.19 0 0 1 .193.207v.352a.011.011 0 0 1-.012.011zm.258.138c-.005-.006-.005-.01 0-.016l.068-.068a.011.011 0 0 1 .018 0 .171.171 0 0 0 .121.052c.086 0 .125-.047.125-.133v-.053a.161.161 0 0 1-.15.065.186.186 0 0 1-.189-.135.421.421 0 0 1-.011-.142.407.407 0 0 1 .019-.141.185.185 0 0 1 .181-.137.159.159 0 0 1 .15.065v-.041a.011.011 0 0 1 .012-.011h.106a.011.011 0 0 1 .012.011v.512a.234.234 0 0 1-.261.255.275.275 0 0 1-.201-.083zm.32-.339a.24.24 0 0 0 .013-.091.256.256 0 0 0-.013-.092.1.1 0 0 0-.2 0 .256.256 0 0 0-.013.092.24.24 0 0 0 .013.091.1.1 0 0 0 .2 0zm.426.06a.424.424 0 0 1-.017-.137.431.431 0 0 1 .017-.138.224.224 0 0 1 .23-.154.244.244 0 0 1 .193.087.01.01 0 0 1 0 .016l-.074.062a.011.011 0 0 1-.016 0 .127.127 0 0 0-.1-.048.1.1 0 0 0-.1.073.334.334 0 0 0-.011.1.349.349 0 0 0 .011.1.1.1 0 0 0 .1.071.127.127 0 0 0 .1-.048.01.01 0 0 1 .016 0l.073.063a.01.01 0 0 1 0 .016.246.246 0 0 1-.193.086.224.224 0 0 1-.229-.149zm.536-.001a.42.42 0 0 1-.02-.136.432.432 0 0 1 .02-.138.247.247 0 0 1 .457 0 .493.493 0 0 1 .018.168c0 .007 0 .011-.012.011h-.341s-.007 0-.007.007a.143.143 0 0 0 .008.043.123.123 0 0 0 .125.082.168.168 0 0 0 .131-.053c.006-.006.011-.007.017 0l.068.06a.011.011 0 0 1 0 .016.293.293 0 0 1-.229.1.226.226 0 0 1-.235-.16zm.337-.246a.119.119 0 0 0-.219 0 .129.129 0 0 0-.007.047s0 .007.007.007h.219a.006.006 0 0 0 .007-.007.155.155 0 0 0-.003-.047zm.621.388a.01.01 0 0 1-.011-.011v-.322c0-.072-.036-.121-.106-.121a.106.106 0 0 0-.106.121v.322a.011.011 0 0 1-.012.011h-.106a.011.011 0 0 1-.012-.011v-.535a.011.011 0 0 1 .012-.011h.106a.011.011 0 0 1 .012.011V6.6a.171.171 0 0 1 .147-.065.19.19 0 0 1 .193.207v.352a.01.01 0 0 1-.011.011zm.433.007c-.112 0-.155-.054-.155-.163v-.294a.006.006 0 0 0-.007-.007h-.037a.011.011 0 0 1-.012-.011v-.078a.011.011 0 0 1 .012-.011h.037a.006.006 0 0 0 .007-.007v-.153a.01.01 0 0 1 .011-.011h.107a.01.01 0 0 1 .011.011v.153a.007.007 0 0 0 .007.007h.074a.011.011 0 0 1 .012.011v.078a.011.011 0 0 1-.012.011h-.074a.007.007 0 0 0-.007.007v.29c0 .039.017.052.052.052h.029a.011.011 0 0 1 .012.011V7.1a.011.011 0 0 1-.012.011zm.186-.149a.42.42 0 0 1-.02-.136.432.432 0 0 1 .019-.138.247.247 0 0 1 .457 0 .521.521 0 0 1 .018.168c0 .007 0 .011-.013.011H11.2c-.005 0-.007 0-.007.007a.118.118 0 0 0 .008.043.123.123 0 0 0 .12.082.17.17 0 0 0 .131-.053c.006-.006.011-.007.017 0l.068.06a.01.01 0 0 1 0 .016.292.292 0 0 1-.229.1.225.225 0 0 1-.231-.16zm.337-.246a.119.119 0 0 0-.219 0 .129.129 0 0 0-.007.047s0 .007.007.007h.219a.006.006 0 0 0 .007-.007.155.155 0 0 0-.007-.047zm.276.388a.011.011 0 0 1-.012-.011v-.535a.011.011 0 0 1 .012-.011h.11a.011.011 0 0 1 .012.011v.048a.16.16 0 0 1 .145-.072.164.164 0 0 1 .116.046c.006.006.007.011 0 .017l-.061.077a.011.011 0 0 1-.017 0 .15.15 0 0 0-.082-.026c-.073 0-.105.052-.105.141v.3a.011.011 0 0 1-.012.011z" role="presentation"/></g></svg>