<svg xmlns="http://www.w3.org/2000/svg" viewBox="0 0 16 16" aria-labelledby="title-label-add-multiple" role="img" class="symbol symbol-label-add-multiple"><title id="title-label-add-multiple">label-add-multiple icon</title><g data-name="Layer 1"><path d="M1.993 9.6H.006l2.741 2.742v-1.989a.755.755 0 0 0-.754-.753zM13.76 2.785a2.2 2.2 0 1 0 2.2 2.2 2.2 2.2 0 0 0-2.2-2.2zm1.324 2.527h-.994v.994h-.66v-.994h-.995v-.66h.995v-.994h.66v.994h.994z" fill-rule="evenodd" role="presentation"/><path d="M11.092 4.982a2.636 2.636 0 0 1 .365-1.323H1.371A1.371 1.371 0 0 0 0 5.03v4.112h1.993A1.211 1.211 0 0 1 3.2 10.353v1.988h10.513a1.371 1.371 0 0 0 1.371-1.371V7.284a2.63 2.63 0 0 1-1.324.366 2.671 2.671 0 0 1-2.668-2.668z" fill-rule="evenodd" role="presentation"/><path d="M2.217 2.785a1.363 1.363 0 0 0-1.006.449h10.608a2.717 2.717 0 0 1 .546-.449zm13.292 4.136v4.2a1.363 1.363 0 0 0 .448-1.005V6.378a2.722 2.722 0 0 1-.448.543z" role="presentation"/></g></svg>