<svg xmlns="http://www.w3.org/2000/svg" viewBox="0 0 16 16" aria-labelledby="title-linux" role="img" class="symbol symbol-linux"><title id="title-linux">linux icon</title><path d="M13.948 13.5c.008-.126-.077-.323-.34-.615a1.233 1.233 0 0 1-.219-.569.879.879 0 0 0-.209-.469.59.59 0 0 0-.454-.132h-.111a1.172 1.172 0 0 1-.961.407.767.767 0 0 1-.47-.737l-.025.013a.754.754 0 0 0-.342.527 5.4 5.4 0 0 0-.1.967 6.1 6.1 0 0 1-.249 1.016 1.376 1.376 0 0 0-.029.9.817.817 0 0 0 .843.482 1.666 1.666 0 0 0 1.089-.638 4.2 4.2 0 0 1 1.315-.841c.164-.097.255-.19.262-.311zm-8.028.916a1.437 1.437 0 0 0-.39-.845 6.179 6.179 0 0 1-.637-.874L4.4 11.8a.872.872 0 0 0-.546-.4.512.512 0 0 0-.085-.007h-.001a.464.464 0 0 0-.353.18c-.119.127-.221.306-.357.45a1.2 1.2 0 0 1-.49.248.579.579 0 0 0-.369.281.847.847 0 0 0-.023.5 1.3 1.3 0 0 1 .015.6.877.877 0 0 0-.065.66.509.509 0 0 0 .386.218 5.064 5.064 0 0 1 1.528.329 1.957 1.957 0 0 0 1.281.245.713.713 0 0 0 .6-.7zm3.117-10.03a.441.441 0 0 0-.24-.193 3.652 3.652 0 0 1-.529-.218 1.123 1.123 0 0 0-.608-.209.717.717 0 0 0-.234.04 1.137 1.137 0 0 0-.42.294c-.017.016-.038.03-.089.068l-.242.179a.242.242 0 0 0-.1.285.691.691 0 0 0 .344.359 2.576 2.576 0 0 1 .307.25.651.651 0 0 0 .162.1.686.686 0 0 0 .224.05.868.868 0 0 0 .506-.131 2.291 2.291 0 0 1 .39-.218.816.816 0 0 0 .533-.423.279.279 0 0 0-.004-.233zm1.919 6.189c.064-.424.4-.439.419-.722a6.925 6.925 0 0 0-.737-2.019 16.175 16.175 0 0 1-1.161-2.992 1.33 1.33 0 0 1-.7.469 3.466 3.466 0 0 0-.495.282 1.3 1.3 0 0 1-.667.191H7.54a.981.981 0 0 1-.584-.227 3.5 3.5 0 0 0-.4-.323c-.049-.028-.16-.1-.192-.127a11.5 11.5 0 0 1-1.23 3.521 5.39 5.39 0 0 0-.431 1.921.787.787 0 0 0 .281.657 4.251 4.251 0 0 1 1.2 1.017.881.881 0 0 1 .231.78.389.389 0 0 1-.212.219.746.746 0 0 1-.308.058c.061.077.124.156.184.235.095.124.186.249.266.376a3.084 3.084 0 0 0 3.578-.219 4.838 4.838 0 0 0 .213-.9 6.877 6.877 0 0 1 .136-1.248 1.158 1.158 0 0 1 .532-.793.931.931 0 0 1 .138-.062l.014-.094zm-3.644-7.16a1.264 1.264 0 0 0 0-.195 1.2 1.2 0 0 0-.1-.437.771.771 0 0 0-.228-.311.417.417 0 0 0-.268-.1h-.025a.407.407 0 0 0-.279.135.762.762 0 0 0-.192.334 1.24 1.24 0 0 0-.051.446 1.244 1.244 0 0 0 .1.437.819.819 0 0 0 .187.276l.088-.065c.039-.028.071-.054.118-.09l-.023-.018a.429.429 0 0 1-.111-.162.732.732 0 0 1-.054-.22v-.01a.728.728 0 0 1 .015-.235.412.412 0 0 1 .08-.179.178.178 0 0 1 .131-.076h.013A.181.181 0 0 1 6.831 3a.417.417 0 0 1 .11.162.733.733 0 0 1 .059.216v.009a.756.756 0 0 1 0 .172 1.139 1.139 0 0 1 .262-.127zm2.165-.188a.03.03 0 0 1 0-.013 1.185 1.185 0 0 0-.111-.5.892.892 0 0 0-.294-.371.638.638 0 0 0-.392-.133h-.009a.63.63 0 0 0-.4.141.909.909 0 0 0-.287.376 1.192 1.192 0 0 0-.1.512v.015a1.232 1.232 0 0 0 .012.152 2.052 2.052 0 0 1 .406.138.825.825 0 0 1-.012-.16v-.009a.751.751 0 0 1 .062-.275.487.487 0 0 1 .139-.2.263.263 0 0 1 .174-.069h.009a.255.255 0 0 1 .178.081.493.493 0 0 1 .124.21.775.775 0 0 1 .04.27V3.4a.746.746 0 0 1-.058.278.63.63 0 0 1-.121.145l.145.052a3.482 3.482 0 0 1 .25.103.965.965 0 0 0 .143-.24 1.2 1.2 0 0 0 .102-.511zm4.652 9.4a1.383 1.383 0 0 1 .479.923.754.754 0 0 1-.436.571 5.414 5.414 0 0 0-1.589 1l-.082-.067.081.068a2.283 2.283 0 0 1-1.508.878 1.257 1.257 0 0 1-1.259-.718.931.931 0 0 1-.078-.21c-.671.038-1.255-.166-1.722-.128-.688.038-1.118.2-1.51.206a1.132 1.132 0 0 1-.81.631 2.627 2.627 0 0 1-1.747-.324l.052-.1-.05.094a6.592 6.592 0 0 0-1.854-.392.839.839 0 0 1-.628-.384 1.255 1.255 0 0 1 .07-.991 1.624 1.624 0 0 0-.025-.649 2.4 2.4 0 0 1-.037-.37.8.8 0 0 1 .087-.388.961.961 0 0 1 .578-.453 1.377 1.377 0 0 0 .532-.258c.143-.151.271-.375.444-.561.023-.024.048-.048.073-.071a3.612 3.612 0 0 1 .193-1.666 10 10 0 0 1 1.811-3.023 3.61 3.61 0 0 0 .7-2.021C5.939 3.225 5.19.24 8.014.013 8.126 0 8.233 0 8.336 0c2.528 0 2.386 2.667 2.37 4.1a3.5 3.5 0 0 0 1.042 2.249 8.274 8.274 0 0 1 1.452 2.33 3.611 3.611 0 0 1 .116 2.471.948.948 0 0 1 .129.062.93.93 0 0 1 .125.092 1.224 1.224 0 0 1 .329.7 1.526 1.526 0 0 0 .225.617z" data-name="Layer 1" role="presentation"/></svg>