<svg xmlns="http://www.w3.org/2000/svg" viewBox="0 0 16 16" class="symbol symbol-room" aria-labelledby="title" role="img"><title id="title">room icon</title><path class="cls-1" d="M6.424 1.353H2.315a.949.949 0 0 0-.948.949v4.112a.949.949 0 0 0 .948.949h4.109a.949.949 0 0 0 .948-.949V2.3a.949.949 0 0 0-.948-.947zm0 7.236H2.315a.949.949 0 0 0-.948.949v4.151a.949.949 0 0 0 .948.949h4.109a.949.949 0 0 0 .948-.949V9.538a.949.949 0 0 0-.948-.949zm7.231 0H9.546a.949.949 0 0 0-.948.949v4.151a.949.949 0 0 0 .948.949h4.109a.949.949 0 0 0 .948-.949V9.538a.949.949 0 0 0-.948-.949zm0-7.236H9.546A.949.949 0 0 0 8.6 2.3v4.114a.949.949 0 0 0 .948.949h4.109a.949.949 0 0 0 .948-.949V2.3a.949.949 0 0 0-.95-.947z" data-name="Layer 1" role="presentation"/></svg>