<svg xmlns="http://www.w3.org/2000/svg" viewBox="0 0 16 16" aria-labelledby="title-station" role="img" class="symbol symbol-station"><title id="title-station">station icon</title><path d="M12.984.042H3.018A2.891 2.891 0 0 0 .054 2.918v10.054a2.963 2.963 0 0 0 2.964 2.964h9.966a2.963 2.963 0 0 0 2.964-2.964V2.918A2.891 2.891 0 0 0 12.984.042zM14.06 13.06a.988.988 0 0 1-.988.988H2.93a.987.987 0 0 1-.987-.988V2.918a.987.987 0 0 1 .987-.987h10.142a.987.987 0 0 1 .988.987zm-3.382-7.91L7.186 8.642l-1.4-1.4a.988.988 0 0 0-1.4 1.4l2.1 2.1a.987.987 0 0 0 1.4 0l4.191-4.19a.988.988 0 1 0-1.4-1.4z" fill-rule="evenodd" data-name="Layer 1" role="presentation"/></svg>