<svg xmlns="http://www.w3.org/2000/svg" viewBox="0 0 16 16" class="symbol symbol-tick-box-full" aria-labelledby="title" role="img"><title id="title">tick-box-full icon</title><g data-name="Layer 1"><path class="cls-1" d="M13.005.018H2.995A2.9 2.9 0 0 0 .018 2.907v10.1a2.977 2.977 0 0 0 2.977 2.977h10.01a2.977 2.977 0 0 0 2.977-2.977v-10.1A2.9 2.9 0 0 0 13.005.018zm1.08 13.076a.992.992 0 0 1-.992.992H2.907a.992.992 0 0 1-.992-.992V2.907a.992.992 0 0 1 .992-.992h10.186a.992.992 0 0 1 .992.992z" role="presentation"/><path class="cls-1" d="M7.109 8.582L5.174 6.647 3.705 8.116l3.444 3.444.001-.001.002.001 5.61-5.61-1.51-1.51-4.143 4.142z" role="presentation"/></g></svg>