<svg xmlns="http://www.w3.org/2000/svg" viewBox="0 0 32 32">
  <title>accounts-app</title>
  <g id="New">
    <g>
      <circle cx="15.959" cy="16" r="2.725"/>
      <path d="M15.959,1.725C4.539,1.725,1.684,4.58,1.684,16S4.539,30.275,15.959,30.275,30.234,27.42,30.234,16,27.379,1.725,15.959,1.725ZM21.243,16a5.506,5.506,0,0,1-.049.69l1.486,1.162a.355.355,0,0,1,.084.451L21.356,20.74a.345.345,0,0,1-.43.155l-1.754-.7a5.418,5.418,0,0,1-1.19.69l-.268,1.866a.343.343,0,0,1-.345.3H14.552a.343.343,0,0,1-.345-.3l-.268-1.866a5.154,5.154,0,0,1-1.19-.69L11,20.9a.355.355,0,0,1-.43-.155L9.157,18.3a.355.355,0,0,1,.084-.451l1.486-1.162a4.883,4.883,0,0,1,0-1.38L9.241,14.148a.347.347,0,0,1-.084-.451l1.408-2.437a.345.345,0,0,1,.43-.155l1.754.7a5.418,5.418,0,0,1,1.19-.69l.268-1.866a.343.343,0,0,1,.345-.3h2.817a.343.343,0,0,1,.345.3l.268,1.866a5.154,5.154,0,0,1,1.19.69l1.754-.7a.355.355,0,0,1,.43.155L22.764,13.7a.355.355,0,0,1-.084.451L21.194,15.31A5.519,5.519,0,0,1,21.243,16Z"/>
    </g>
    <g>
      <circle cx="15.959" cy="16" r="2.725"/>
      <path d="M15.959,1.725C4.539,1.725,1.684,4.58,1.684,16S4.539,30.275,15.959,30.275,30.234,27.42,30.234,16,27.379,1.725,15.959,1.725ZM21.243,16a5.506,5.506,0,0,1-.049.69l1.486,1.162a.355.355,0,0,1,.084.451L21.356,20.74a.345.345,0,0,1-.43.155l-1.754-.7a5.418,5.418,0,0,1-1.19.69l-.268,1.866a.343.343,0,0,1-.345.3H14.552a.343.343,0,0,1-.345-.3l-.268-1.866a5.154,5.154,0,0,1-1.19-.69L11,20.9a.355.355,0,0,1-.43-.155L9.157,18.3a.355.355,0,0,1,.084-.451l1.486-1.162a4.883,4.883,0,0,1,0-1.38L9.241,14.148a.347.347,0,0,1-.084-.451l1.408-2.437a.345.345,0,0,1,.43-.155l1.754.7a5.418,5.418,0,0,1,1.19-.69l.268-1.866a.343.343,0,0,1,.345-.3h2.817a.343.343,0,0,1,.345.3l.268,1.866a5.154,5.154,0,0,1,1.19.69l1.754-.7a.355.355,0,0,1,.43.155L22.764,13.7a.355.355,0,0,1-.084.451L21.194,15.31A5.519,5.519,0,0,1,21.243,16Z"/>
    </g>
  </g>
</svg>
