<svg xmlns="http://www.w3.org/2000/svg" viewBox="0 0 32 32"><title>accounts-app</title><g id="New"><circle cx="15.96" cy="16" r="2.73"/><path d="M16,1.72C4.54,1.72,1.68,4.58,1.68,16S4.54,30.28,16,30.28,30.23,27.42,30.23,16,27.38,1.72,16,1.72ZM21.24,16a5.21,5.21,0,0,1,0,.69l1.49,1.16a.35.35,0,0,1,.08.45l-1.4,2.44a.35.35,0,0,1-.43.16l-1.76-.71a5.21,5.21,0,0,1-1.19.69l-.27,1.87a.33.33,0,0,1-.34.29H14.55a.34.34,0,0,1-.34-.29l-.27-1.87a5.43,5.43,0,0,1-1.19-.69L11,20.9a.35.35,0,0,1-.43-.16L9.16,18.3a.35.35,0,0,1,.08-.45l1.49-1.16a4.79,4.79,0,0,1,0-1.38L9.24,14.15a.35.35,0,0,1-.08-.45l1.41-2.44A.34.34,0,0,1,11,11.1l1.75.71a5.43,5.43,0,0,1,1.19-.69l.27-1.87A.34.34,0,0,1,14.55,9h2.82a.33.33,0,0,1,.34.29L18,11.12a5.21,5.21,0,0,1,1.19.69l1.76-.71a.36.36,0,0,1,.43.16l1.4,2.44a.35.35,0,0,1-.08.45l-1.49,1.16A5.21,5.21,0,0,1,21.24,16Z"/><circle cx="15.96" cy="16" r="2.73"/><path d="M16,1.72C4.54,1.72,1.68,4.58,1.68,16S4.54,30.28,16,30.28,30.23,27.42,30.23,16,27.38,1.72,16,1.72ZM21.24,16a5.21,5.21,0,0,1,0,.69l1.49,1.16a.35.35,0,0,1,.08.45l-1.4,2.44a.35.35,0,0,1-.43.16l-1.76-.71a5.21,5.21,0,0,1-1.19.69l-.27,1.87a.33.33,0,0,1-.34.29H14.55a.34.34,0,0,1-.34-.29l-.27-1.87a5.43,5.43,0,0,1-1.19-.69L11,20.9a.35.35,0,0,1-.43-.16L9.16,18.3a.35.35,0,0,1,.08-.45l1.49-1.16a4.79,4.79,0,0,1,0-1.38L9.24,14.15a.35.35,0,0,1-.08-.45l1.41-2.44A.34.34,0,0,1,11,11.1l1.75.71a5.43,5.43,0,0,1,1.19-.69l.27-1.87A.34.34,0,0,1,14.55,9h2.82a.33.33,0,0,1,.34.29L18,11.12a5.21,5.21,0,0,1,1.19.69l1.76-.71a.36.36,0,0,1,.43.16l1.4,2.44a.35.35,0,0,1-.08.45l-1.49,1.16A5.21,5.21,0,0,1,21.24,16Z"/></g></svg>