<svg xmlns="http://www.w3.org/2000/svg" viewBox="0 0 32 32"><title>api-app</title><g id="New"><path d="M14.09,15.1a2.78,2.78,0,1,0,1.58,3.6A2.76,2.76,0,0,0,14.09,15.1Z"/><path d="M21.17,10.5A1.49,1.49,0,1,0,22.66,12,1.49,1.49,0,0,0,21.17,10.5Z"/><path d="M16,1.71C4.54,1.71,1.68,4.57,1.68,16S4.54,30.27,16,30.27,30.23,27.41,30.23,16,27.38,1.71,16,1.71ZM18.2,22.18l-1.85,1.49L15,22a4.68,4.68,0,0,1-2.49.37l-.77,2-2.21-.86.77-2a4.86,4.86,0,0,1-1.47-1.72l-2.26.35-.37-2.41,2.14-.33A4.67,4.67,0,0,1,8.68,16a4.58,4.58,0,0,1,.61-1.11L8,13.21l1.84-1.48,1.32,1.64A4.71,4.71,0,0,1,13.65,13l.77-2,2.2.86-.77,2a4.62,4.62,0,0,1,1.58,2l2.1-.32.36,2.33-2.1.33a4.89,4.89,0,0,1-.29,1.23,4.55,4.55,0,0,1-.63,1.12Zm5.91-7.35-1-.58a3,3,0,0,1-1.94.72,3,3,0,0,1-1.92-.72l-1,.58-1-1.71,1-.59a3.19,3.19,0,0,1-.05-.54,3,3,0,0,1,2-2.8V8h2V9.19a3,3,0,0,1,2,2.8,3.19,3.19,0,0,1,0,.54l1,.59Z"/><path d="M14.09,15.1a2.78,2.78,0,1,0,1.58,3.6A2.76,2.76,0,0,0,14.09,15.1Z"/><path d="M21.17,10.5A1.49,1.49,0,1,0,22.66,12,1.49,1.49,0,0,0,21.17,10.5Z"/><path d="M16,1.71C4.54,1.71,1.68,4.57,1.68,16S4.54,30.27,16,30.27,30.23,27.41,30.23,16,27.38,1.71,16,1.71ZM18.2,22.18l-1.85,1.49L15,22a4.68,4.68,0,0,1-2.49.37l-.77,2-2.21-.86.77-2a4.86,4.86,0,0,1-1.47-1.72l-2.26.35-.37-2.41,2.14-.33A4.67,4.67,0,0,1,8.68,16a4.58,4.58,0,0,1,.61-1.11L8,13.21l1.84-1.48,1.32,1.64A4.71,4.71,0,0,1,13.65,13l.77-2,2.2.86-.77,2a4.62,4.62,0,0,1,1.58,2l2.1-.32.36,2.33-2.1.33a4.89,4.89,0,0,1-.29,1.23,4.55,4.55,0,0,1-.63,1.12Zm5.91-7.35-1-.58a3,3,0,0,1-1.94.72,3,3,0,0,1-1.92-.72l-1,.58-1-1.71,1-.59a3.19,3.19,0,0,1-.05-.54,3,3,0,0,1,2-2.8V8h2V9.19a3,3,0,0,1,2,2.8,3.19,3.19,0,0,1,0,.54l1,.59Z"/></g></svg>