<svg xmlns="http://www.w3.org/2000/svg" viewBox="0 0 32 32">
  <title>api-app</title>
  <g id="New">
    <g>
      <path d="M14.09,15.1a2.776,2.776,0,1,0,1.584,3.6A2.77,2.77,0,0,0,14.09,15.1Z"/>
      <path d="M21.174,10.5a1.487,1.487,0,1,0,1.487,1.487A1.491,1.491,0,0,0,21.174,10.5Z"/>
      <path d="M15.959,1.715C4.539,1.715,1.684,4.57,1.684,15.99S4.539,30.266,15.959,30.266,30.234,27.411,30.234,15.99,27.379,1.715,15.959,1.715ZM18.2,22.182l-1.848,1.487-1.329-1.664a4.692,4.692,0,0,1-2.491.379l-.774,1.989L9.549,23.51l.775-1.98a4.734,4.734,0,0,1-1.47-1.716l-2.262.344-.369-2.412,2.138-.325a4.74,4.74,0,0,1,.317-1.452,4.808,4.808,0,0,1,.607-1.109l-1.32-1.655,1.848-1.478,1.32,1.646a4.724,4.724,0,0,1,2.517-.388l.766-1.962,2.2.854-.766,1.971a4.594,4.594,0,0,1,1.575,1.98l2.1-.317.361,2.332-2.1.326A4.415,4.415,0,0,1,17.5,19.4a4.486,4.486,0,0,1-.625,1.117Zm5.913-7.349-1-.58a2.976,2.976,0,0,1-3.863,0l-1,.58-1-1.715,1.012-.59a2.724,2.724,0,0,1-.053-.537,2.967,2.967,0,0,1,1.98-2.8V8.022h1.98V9.193a2.966,2.966,0,0,1,1.98,2.8,2.724,2.724,0,0,1-.052.537l1.012.59Z"/>
    </g>
    <g>
      <path d="M14.09,15.1a2.776,2.776,0,1,0,1.584,3.6A2.77,2.77,0,0,0,14.09,15.1Z"/>
      <path d="M21.174,10.5a1.487,1.487,0,1,0,1.487,1.487A1.491,1.491,0,0,0,21.174,10.5Z"/>
      <path d="M15.959,1.715C4.539,1.715,1.684,4.57,1.684,15.99S4.539,30.266,15.959,30.266,30.234,27.411,30.234,15.99,27.379,1.715,15.959,1.715ZM18.2,22.182l-1.848,1.487-1.329-1.664a4.692,4.692,0,0,1-2.491.379l-.774,1.989L9.549,23.51l.775-1.98a4.734,4.734,0,0,1-1.47-1.716l-2.262.344-.369-2.412,2.138-.325a4.74,4.74,0,0,1,.317-1.452,4.808,4.808,0,0,1,.607-1.109l-1.32-1.655,1.848-1.478,1.32,1.646a4.724,4.724,0,0,1,2.517-.388l.766-1.962,2.2.854-.766,1.971a4.594,4.594,0,0,1,1.575,1.98l2.1-.317.361,2.332-2.1.326A4.415,4.415,0,0,1,17.5,19.4a4.486,4.486,0,0,1-.625,1.117Zm5.913-7.349-1-.58a2.976,2.976,0,0,1-3.863,0l-1,.58-1-1.715,1.012-.59a2.724,2.724,0,0,1-.053-.537,2.967,2.967,0,0,1,1.98-2.8V8.022h1.98V9.193a2.966,2.966,0,0,1,1.98,2.8,2.724,2.724,0,0,1-.052.537l1.012.59Z"/>
    </g>
  </g>
</svg>
