<svg xmlns="http://www.w3.org/2000/svg" viewBox="0 0 32 32"><title>calendar-app</title><g id="New"><rect x="11.299" y="14.555" width="9.398" height="5.924"/><path d="M16,1.69C4.549,1.69,1.687,4.552,1.687,16S4.549,30.31,16,30.31,30.308,27.448,30.308,16,27.446,1.69,16,1.69Zm6.833,20.158a.838.838,0,0,1-.838.837H10a.837.837,0,0,1-.837-.837V11.685A.838.838,0,0,1,10,10.847h1.3v-1a.793.793,0,0,1,.793-.793h.378a.793.793,0,0,1,.793.793v1h5.47v-1a.793.793,0,0,1,.793-.793H19.9a.793.793,0,0,1,.793.793v1h1.3a.838.838,0,0,1,.838.838Z"/></g></svg>