<svg id="1913010c-75e8-4cb4-8623-a5e4136f7a6b" data-name="Layer 1" xmlns="http://www.w3.org/2000/svg" viewBox="0 0 32 32"><title>check-ins-app</title><path d="M19.846,11.606,14.352,17.1l-2.2-2.2a1.554,1.554,0,1,0-2.2,2.2l3.3,3.295a1.553,1.553,0,0,0,2.2,0L22.043,13.8a1.554,1.554,0,0,0-2.2-2.2Z" fill-rule="evenodd"/><path d="M26.973,2H5.027A3.027,3.027,0,0,0,2,5.027V26.973A3.027,3.027,0,0,0,5.027,30H26.973A3.027,3.027,0,0,0,30,26.973V5.027A3.027,3.027,0,0,0,26.973,2Zm0,24.216a.757.757,0,0,1-.757.757H5.784a.757.757,0,0,1-.757-.757V5.784a.757.757,0,0,1,.757-.757h4.54V6.544a.753.753,0,0,0,.753.753h9.846a.753.753,0,0,0,.753-.753V5.027h4.54a.757.757,0,0,1,.757.757Z" fill-rule="evenodd"/></svg>