<svg xmlns="http://www.w3.org/2000/svg" viewBox="0 0 32 32">
  <title>chuech-center-app</title>
  <g id="New">
    <path d="M15.948,1.774C4.534,1.774,1.68,4.628,1.68,16.042S4.534,30.31,15.948,30.31s14.268-2.853,14.268-14.268S27.363,1.774,15.948,1.774Zm5.59,21.1a.478.478,0,0,1-.474.484l-2.806-.023a.479.479,0,0,1-.485-.473s.008-.334.008-2.576a5.267,5.267,0,0,0-1.833-3.78,5.27,5.27,0,0,0-1.832,3.78c0,2.242.007,2.576.007,2.576a.478.478,0,0,1-.484.473l-2.807.023a.478.478,0,0,1-.473-.484s-.347-9.249-.028-9.526h0l5.132-4.428a.745.745,0,0,1,.98,0l5.127,4.428-.006,0C21.884,13.647,21.538,22.869,21.538,22.869Z"/>
  </g>
</svg>
