<svg xmlns="http://www.w3.org/2000/svg" viewBox="0 0 32 32">
  <title>giving-app</title>
  <g id="New">
    <path d="M15.959,1.725C4.539,1.725,1.684,4.58,1.684,16S4.539,30.275,15.959,30.275,30.234,27.42,30.234,16,27.379,1.725,15.959,1.725Zm.425,19.686a.73.73,0,0,1-.85,0c-1.806-1.275-8.581-6.447-4.687-9.8a3.421,3.421,0,0,1,4.611.293l.5.5.5-.5a3.421,3.421,0,0,1,4.611-.293C24.965,14.964,18.19,20.136,16.384,21.411Z"/>
    <path d="M15.959,1.725C4.539,1.725,1.684,4.58,1.684,16S4.539,30.275,15.959,30.275,30.234,27.42,30.234,16,27.379,1.725,15.959,1.725Zm.425,19.686a.73.73,0,0,1-.85,0c-1.806-1.275-8.581-6.447-4.687-9.8a3.421,3.421,0,0,1,4.611.293l.5.5.5-.5a3.421,3.421,0,0,1,4.611-.293C24.965,14.964,18.19,20.136,16.384,21.411Z"/>
  </g>
</svg>
