<svg xmlns="http://www.w3.org/2000/svg" viewBox="0 0 32 32"><title>groups-app</title><g id="New"><path d="M17.88,12.68H14.09a2.7,2.7,0,0,1-1.43,1.43v3.78a2.7,2.7,0,0,1,1.43,1.43h3.78a2.69,2.69,0,0,1,1.42-1.43V14.11A2.74,2.74,0,0,1,17.88,12.68ZM16,1.7C4.54,1.7,1.68,4.56,1.68,16S4.54,30.3,16,30.3s14.3-2.86,14.3-14.3S27.42,1.7,16,1.7Zm7,18.66a2.68,2.68,0,0,1-5.15,1.05H14.09a2.69,2.69,0,1,1-3.52-3.52V14.11a2.68,2.68,0,1,1,3.52-3.52h3.79a2.68,2.68,0,1,1,3.51,3.52v3.78A2.68,2.68,0,0,1,23,20.36Z"/><path d="M17.88,12.68H14.09a2.7,2.7,0,0,1-1.43,1.43v3.78a2.7,2.7,0,0,1,1.43,1.43h3.78a2.69,2.69,0,0,1,1.42-1.43V14.11A2.74,2.74,0,0,1,17.88,12.68ZM16,1.7C4.54,1.7,1.68,4.56,1.68,16S4.54,30.3,16,30.3s14.3-2.86,14.3-14.3S27.42,1.7,16,1.7Zm7,18.66a2.68,2.68,0,0,1-5.15,1.05H14.09a2.69,2.69,0,1,1-3.52-3.52V14.11a2.68,2.68,0,1,1,3.52-3.52h3.79a2.68,2.68,0,1,1,3.51,3.52v3.78A2.68,2.68,0,0,1,23,20.36Z"/></g></svg>