<svg xmlns="http://www.w3.org/2000/svg" viewBox="0 0 32 32"><title>groups-app</title><g id="New"><path d="M17.876,12.683H14.087a2.694,2.694,0,0,1-1.425,1.426v3.782a2.694,2.694,0,0,1,1.425,1.426h3.782A2.7,2.7,0,0,1,19.3,17.891V14.106A2.688,2.688,0,0,1,17.876,12.683ZM15.981,1.7c-11.44,0-14.3,2.86-14.3,14.3s2.86,14.3,14.3,14.3,14.3-2.86,14.3-14.3S27.421,1.7,15.981,1.7Zm7.041,18.662a2.683,2.683,0,0,1-5.153,1.045H14.087a2.683,2.683,0,1,1-3.516-3.516V14.109a2.683,2.683,0,1,1,3.516-3.516h3.789a2.682,2.682,0,1,1,3.51,3.518v3.78A2.682,2.682,0,0,1,23.022,20.362Z"/><path d="M17.876,12.683H14.087a2.694,2.694,0,0,1-1.425,1.426v3.782a2.694,2.694,0,0,1,1.425,1.426h3.782A2.7,2.7,0,0,1,19.3,17.891V14.106A2.688,2.688,0,0,1,17.876,12.683ZM15.981,1.7c-11.44,0-14.3,2.86-14.3,14.3s2.86,14.3,14.3,14.3,14.3-2.86,14.3-14.3S27.421,1.7,15.981,1.7Zm7.041,18.662a2.683,2.683,0,0,1-5.153,1.045H14.087a2.683,2.683,0,1,1-3.516-3.516V14.109a2.683,2.683,0,1,1,3.516-3.516h3.789a2.682,2.682,0,1,1,3.51,3.518v3.78A2.682,2.682,0,0,1,23.022,20.362Z"/></g></svg>