<svg id="b4b6a342-1cd9-4579-9bb5-b4a45fbda064" data-name="Layer 1" xmlns="http://www.w3.org/2000/svg" viewBox="0 0 32 32"><title>interfaces-app</title><path d="M26.973,2H5.027A3.027,3.027,0,0,0,2,5.027V26.973A3.027,3.027,0,0,0,5.027,30H26.973A3.027,3.027,0,0,0,30,26.973V5.027A3.027,3.027,0,0,0,26.973,2Zm0,24.216a.757.757,0,0,1-.757.757H5.784a.757.757,0,0,1-.757-.757V5.784a.757.757,0,0,1,.757-.757h4.54V6.544a.753.753,0,0,0,.753.753h9.846a.753.753,0,0,0,.753-.753V5.027h4.54a.757.757,0,0,1,.757.757Z" fill-rule="evenodd"/><polygon points="15.27 17.088 15.987 23.479 22 10 9.198 17.108 15.27 17.088"/></svg>