<svg xmlns="http://www.w3.org/2000/svg" viewBox="0 0 32 32"><title>music-stand-app</title><g id="New"><path d="M15.959,2.1C4.539,2.1,1.684,4.955,1.684,16.375S4.539,30.65,15.959,30.65,30.234,27.8,30.234,16.375,27.379,2.1,15.959,2.1Zm6.348,17.262-.024-.007c.051,1.059-1.141,2.048-2.734,2.235-1.64.193-3.073-.537-3.2-1.631s1.1-2.136,2.738-2.328a4.146,4.146,0,0,1,1.478.091V12.454l-7.226,2.352v6.548h-.032c-.135.958-1.262,1.808-2.726,1.98-1.64.192-3.073-.538-3.2-1.632s1.1-2.135,2.737-2.328a4.169,4.169,0,0,1,1.478.091V13.381c0-.332.086-.775.4-.878,1.5-.485,8.825-2.891,9.77-3.16a.486.486,0,0,1,.539.4Z"/><path d="M15.959,2.1C4.539,2.1,1.684,4.955,1.684,16.375S4.539,30.65,15.959,30.65,30.234,27.8,30.234,16.375,27.379,2.1,15.959,2.1Zm6.348,17.262-.024-.007c.051,1.059-1.141,2.048-2.734,2.235-1.64.193-3.073-.537-3.2-1.631s1.1-2.136,2.738-2.328a4.146,4.146,0,0,1,1.478.091V12.454l-7.226,2.352v6.548h-.032c-.135.958-1.262,1.808-2.726,1.98-1.64.192-3.073-.538-3.2-1.632s1.1-2.135,2.737-2.328a4.169,4.169,0,0,1,1.478.091V13.381c0-.332.086-.775.4-.878,1.5-.485,8.825-2.891,9.77-3.16a.486.486,0,0,1,.539.4Z"/></g></svg>