<svg xmlns="http://www.w3.org/2000/svg" viewBox="0 0 32 32"><title>people-app</title><g id="New"><path d="M16,1.65C4.54,1.65,1.68,4.5,1.68,15.93S4.54,30.2,16,30.2s14.27-2.85,14.27-14.27S27.38,1.65,16,1.65ZM13.33,9.81a2.9,2.9,0,1,1-2.89,2.89A2.89,2.89,0,0,1,13.33,9.81ZM17.72,22H8.92V19.4a2.64,2.64,0,0,1,2.64-2.64h3.52a2.64,2.64,0,0,1,2.64,2.64ZM20,11.54a2.17,2.17,0,1,1-2.17,2.17A2.17,2.17,0,0,1,20,11.54Zm3,8.74H18.6V19.4A3.33,3.33,0,0,0,18.31,18a1,1,0,0,0-.09-.21,1.19,1.19,0,0,0-.09-.15,1.71,1.71,0,0,0-.13-.23,1.61,1.61,0,0,1,1.3-.68h2.12A1.58,1.58,0,0,1,23,18.34Z"/><path d="M16,1.65C4.54,1.65,1.68,4.5,1.68,15.93S4.54,30.2,16,30.2s14.27-2.85,14.27-14.27S27.38,1.65,16,1.65ZM13.33,9.81a2.9,2.9,0,1,1-2.89,2.89A2.89,2.89,0,0,1,13.33,9.81ZM17.72,22H8.92V19.4a2.64,2.64,0,0,1,2.64-2.64h3.52a2.64,2.64,0,0,1,2.64,2.64ZM20,11.54a2.17,2.17,0,1,1-2.17,2.17A2.17,2.17,0,0,1,20,11.54Zm3,8.74H18.6V19.4A3.33,3.33,0,0,0,18.31,18a1,1,0,0,0-.09-.21,1.19,1.19,0,0,0-.09-.15,1.71,1.71,0,0,0-.13-.23,1.61,1.61,0,0,1,1.3-.68h2.12A1.58,1.58,0,0,1,23,18.34Z"/></g></svg>