<svg id="Old" xmlns="http://www.w3.org/2000/svg" viewBox="0 0 32 32"><title>projector-app</title><path d="M27,2H5A3,3,0,0,0,2,5V27a3,3,0,0,0,3,3H27a3,3,0,0,0,3-3V5A3,3,0,0,0,27,2Zm0,24.22a.76.76,0,0,1-.75.75H5.78A.76.76,0,0,1,5,26.22V5.78A.76.76,0,0,1,5.78,5h4.54V6.54a.76.76,0,0,0,.76.76h9.84a.76.76,0,0,0,.76-.76V5h4.54a.76.76,0,0,1,.75.75Z" fill-rule="evenodd"/><path d="M18.48,16.61c-.21.15-3,2.52-3.2,2.68s-.41,0-.41-.28V13.64c0-.25.21-.43.42-.29s2.9,2.48,3.19,2.68A.37.37,0,0,1,18.48,16.61ZM16,10a6.53,6.53,0,1,0,6.61,6.53A6.57,6.57,0,0,0,16,10Z"/></svg>