<svg xmlns="http://www.w3.org/2000/svg" viewBox="0 0 32 32"><title>registrations-app</title><g id="New"><path d="M15.981,1.7c-11.44,0-14.3,2.86-14.3,14.3s2.86,14.3,14.3,14.3,14.3-2.86,14.3-14.3S27.421,1.7,15.981,1.7Zm1.158,8.324a1.417,1.417,0,0,1,2-.093l1.133,1.026a1.418,1.418,0,0,1,.1,2L19.147,14.3,15.94,11.332ZM11.85,21.856l-2.891.637a.2.2,0,0,1-.235-.216l.4-2.94A2.255,2.255,0,0,1,9.606,18.3l5.551-6.123,3.209,2.969-5.524,6.136A2.216,2.216,0,0,1,11.85,21.856Zm11.391-.083a.7.7,0,0,1-.7.7H14.513l2.817-3.148h5.207a.705.705,0,0,1,.7.7Z"/><path d="M15.981,1.7c-11.44,0-14.3,2.86-14.3,14.3s2.86,14.3,14.3,14.3,14.3-2.86,14.3-14.3S27.421,1.7,15.981,1.7Zm1.158,8.324a1.417,1.417,0,0,1,2-.093l1.133,1.026a1.418,1.418,0,0,1,.1,2L19.147,14.3,15.94,11.332ZM11.85,21.856l-2.891.637a.2.2,0,0,1-.235-.216l.4-2.94A2.255,2.255,0,0,1,9.606,18.3l5.551-6.123,3.209,2.969-5.524,6.136A2.216,2.216,0,0,1,11.85,21.856Zm11.391-.083a.7.7,0,0,1-.7.7H14.513l2.817-3.148h5.207a.705.705,0,0,1,.7.7Z"/></g></svg>