<svg xmlns="http://www.w3.org/2000/svg" viewBox="0 0 32 32"><title>registrations-app</title><g id="New"><path d="M15.84,1.72C4.41,1.72,1.55,4.58,1.55,16S4.41,30.3,15.84,30.3,30.13,27.44,30.13,16,27.27,1.72,15.84,1.72Zm1.29,19.35-2.84,2.84a.71.71,0,0,1-1,0l-1-1a.3.3,0,0,1,0-.38,2.12,2.12,0,0,0-2.91-2.91.3.3,0,0,1-.38,0l-1-1a.72.72,0,0,1,0-1l2.84-2.85a.24.24,0,0,1,.33,0l6,6A.22.22,0,0,1,17.13,21.07Zm6.61-6.62-5.18,5.19a.24.24,0,0,1-.33,0l-6-6a.22.22,0,0,1,0-.32L17.4,8.11a.72.72,0,0,1,1,0l1,1a.32.32,0,0,1,0,.38,2.12,2.12,0,0,0,2.9,2.9.32.32,0,0,1,.38,0l1,1A.7.7,0,0,1,23.74,14.45Z"/></g></svg>