<svg xmlns="http://www.w3.org/2000/svg" viewBox="0 0 32 32">
  <title>resources-app</title>
  <g id="New">
    <path d="M15.959,1.725C4.539,1.725,1.684,4.58,1.684,16S4.539,30.275,15.959,30.275,30.234,27.42,30.234,16,27.379,1.725,15.959,1.725Zm-1.1,20.015a.86.86,0,0,1-.86.86h-3.78a.86.86,0,0,1-.86-.86V17.96a.86.86,0,0,1,.86-.86H14a.86.86,0,0,1,.86.86Zm0-7.7a.86.86,0,0,1-.86.86h-3.78a.86.86,0,0,1-.86-.86V10.26a.86.86,0,0,1,.86-.86H14a.86.86,0,0,1,.86.86Zm7.7,7.7a.86.86,0,0,1-.86.86h-3.78a.86.86,0,0,1-.86-.86V17.96a.86.86,0,0,1,.86-.86H21.7a.86.86,0,0,1,.86.86Zm0-7.7a.86.86,0,0,1-.86.86h-3.78a.86.86,0,0,1-.86-.86V10.26a.86.86,0,0,1,.86-.86H21.7a.86.86,0,0,1,.86.86Z"/>
    <path d="M15.959,1.725C4.539,1.725,1.684,4.58,1.684,16S4.539,30.275,15.959,30.275,30.234,27.42,30.234,16,27.379,1.725,15.959,1.725Zm-1.1,20.015a.86.86,0,0,1-.86.86h-3.78a.86.86,0,0,1-.86-.86V17.96a.86.86,0,0,1,.86-.86H14a.86.86,0,0,1,.86.86Zm0-7.7a.86.86,0,0,1-.86.86h-3.78a.86.86,0,0,1-.86-.86V10.26a.86.86,0,0,1,.86-.86H14a.86.86,0,0,1,.86.86Zm7.7,7.7a.86.86,0,0,1-.86.86h-3.78a.86.86,0,0,1-.86-.86V17.96a.86.86,0,0,1,.86-.86H21.7a.86.86,0,0,1,.86.86Zm0-7.7a.86.86,0,0,1-.86.86h-3.78a.86.86,0,0,1-.86-.86V10.26a.86.86,0,0,1,.86-.86H21.7a.86.86,0,0,1,.86.86Z"/>
  </g>
</svg>
