<svg id="bf3b131f-580f-40fe-a267-11ab6cd7c654" data-name="Layer 1" xmlns="http://www.w3.org/2000/svg" viewBox="0 0 32 32"><title>resources-app</title><path d="M26.973,2H5.027A3.027,3.027,0,0,0,2,5.027V26.973A3.027,3.027,0,0,0,5.027,30H26.973A3.027,3.027,0,0,0,30,26.973V5.027A3.027,3.027,0,0,0,26.973,2Zm0,24.216a.757.757,0,0,1-.757.757H5.784a.757.757,0,0,1-.757-.757V5.784a.757.757,0,0,1,.757-.757h4.54V6.544a.753.753,0,0,0,.753.753h9.846a.753.753,0,0,0,.753-.753V5.027h4.54a.757.757,0,0,1,.757.757Z" fill-rule="evenodd"/><rect x="9" y="11" width="6" height="5" rx="0.431" ry="0.431"/><rect x="17" y="11" width="6" height="5" rx="0.431" ry="0.431"/><rect x="9" y="18" width="6" height="5" rx="0.431" ry="0.431"/><rect x="17" y="18" width="6" height="5" rx="0.431" ry="0.431"/></svg>