<svg xmlns="http://www.w3.org/2000/svg" viewBox="0 0 32 32"><title>resources-app</title><g id="New"><path d="M30.25,16c0,11.45-2.86,14.32-14.31,14.32S1.63,27.44,1.63,16,4.49,1.68,15.94,1.68,30.25,4.55,30.25,16ZM14.84,18A.86.86,0,0,0,14,17.1H10.19a.86.86,0,0,0-.87.86v3.79a.87.87,0,0,0,.87.86H14a.87.87,0,0,0,.87-.86Zm0-7.72A.86.86,0,0,0,14,9.38H10.19a.86.86,0,0,0-.87.86V14a.86.86,0,0,0,.87.86H14a.86.86,0,0,0,.87-.86ZM22.56,18a.86.86,0,0,0-.87-.86H17.91A.86.86,0,0,0,17,18v3.79a.87.87,0,0,0,.87.86h3.78a.87.87,0,0,0,.87-.86Zm0-7.72a.86.86,0,0,0-.87-.86H17.91a.86.86,0,0,0-.87.86V14a.86.86,0,0,0,.87.86h3.78a.86.86,0,0,0,.87-.86Z"/></g></svg>