<svg data-name="Layer 1" xmlns="http://www.w3.org/2000/svg" viewBox="0 0 32 32" class="symbol"><title>check-ins-app</title><path d="M19.846 11.606L14.352 17.1l-2.2-2.2a1.554 1.554 0 1 0-2.2 2.2l3.3 3.3a1.554 1.554 0 0 0 2.2 0l6.591-6.6a1.554 1.554 0 0 0-2.2-2.2z"/><path d="M26.973 2H5.027A3.027 3.027 0 0 0 2 5.027v21.946A3.027 3.027 0 0 0 5.027 30h21.946A3.027 3.027 0 0 0 30 26.973V5.027A3.027 3.027 0 0 0 26.973 2zm0 24.216a.757.757 0 0 1-.757.757H5.784a.757.757 0 0 1-.757-.757V5.784a.757.757 0 0 1 .757-.757h4.541v1.517a.753.753 0 0 0 .753.753h9.845a.753.753 0 0 0 .753-.753V5.027h4.541a.757.757 0 0 1 .757.757z"/></svg>