<svg id="Layer_1" data-name="Layer 1" xmlns="http://www.w3.org/2000/svg" viewBox="0 0 16 16"><title>chrome</title><path d="M14.8,4.895l-4.4.131a3.82,3.82,0,0,1,.683,5.232L7.566,15.464c.144.009.288.013.434.013A7.481,7.481,0,0,0,14.8,4.895ZM5.346,8.007A2.682,2.682,0,1,0,8.028,5.325,2.682,2.682,0,0,0,5.346,8.007ZM8,11.823a3.819,3.819,0,0,1-3.246-1.8h0v0c-.053-.084-.1-.17-.148-.258L2.013,5.206l-.528-.877a7.48,7.48,0,0,0,5.14,11.022l2.5-3.7A3.813,3.813,0,0,1,8,11.823ZM7.664,4.192h0c.11-.01.222-.015.334-.015.061,0,.122,0,.183.005l6.176-.117A7.479,7.479,0,0,0,2,3.543L4.245,7.281A3.826,3.826,0,0,1,7.664,4.192Z"/></svg>