<svg id="Layer_1" data-name="Layer 1" xmlns="http://www.w3.org/2000/svg" viewBox="0 0 16 16"><defs><style>.cls-1{fill:#231f20;}</style></defs><title>close</title><path class="cls-1" d="M10.288,7.93l3.99-3.99a.358.358,0,0,0,0-.506L12.524,1.679a.358.358,0,0,0-.506,0l-3.99,3.99-3.99-3.99a.358.358,0,0,0-.506,0L1.776,3.434a.358.358,0,0,0,0,.506l3.99,3.99-3.99,3.99a.358.358,0,0,0,0,.506l1.755,1.755a.358.358,0,0,0,.506,0l3.99-3.99,3.99,3.99a.358.358,0,0,0,.506,0l1.755-1.755a.358.358,0,0,0,0-.506Z"/></svg>