<svg id="Layer_1" data-name="Layer 1" xmlns="http://www.w3.org/2000/svg" viewBox="0 0 16 16">
  <title>dark</title>
  <g>
    <path d="M4.105,4.808V3.743H5.17a.533.533,0,1,0,0-1.066H4.105V1.612a.533.533,0,0,0-1.066,0V2.677H1.975a.533.533,0,1,0,0,1.066H3.039V4.808a.533.533,0,0,0,1.066,0Z" fill="#231f20"/>
    <path d="M10.654,5.327a5.327,5.327,0,0,1-4.261,8.522,5.326,5.326,0,1,0,4.261-8.522Z" fill="#231f20"/>
    <path d="M6.236,8.538H5.7V8A.533.533,0,0,0,4.637,8v.534H4.105a.532.532,0,1,0,0,1.064h.532v.535a.533.533,0,0,0,1.066,0V9.6h.533a.532.532,0,1,0,0-1.064Z" fill="#231f20"/>
  </g>
</svg>
