<svg id="Layer_1" data-name="Layer 1" xmlns="http://www.w3.org/2000/svg" viewBox="0 0 16 16"><title>date</title><path d="M15.52,2.33H14.08V1.26c0-.7-.9-1.27-1.6-1.27s-1.64.57-1.64,1.27V2.33h-6V1.26C4.82.56,3.91,0,3.21,0S1.57.56,1.57,1.26V2.33h-1a.5.5,0,0,0-.5.5V15.52a.5.5,0,0,0,.5.5h15a.51.51,0,0,0,.5-.5V2.83A.5.5,0,0,0,15.52,2.33Zm-3.58-.75a.52.52,0,0,1,1,0v.69a.52.52,0,0,1-1,0Zm-9.28,0a.52.52,0,0,1,1,0v.69a.52.52,0,0,1-1,0ZM5.46,14.5H1.6V11.36H5.46Zm0-3.88H1.6V7.68H5.46Zm0-3.68H1.6V3.88H5.46ZM9.94,14.5H6.19V11.36H9.94Zm0-3.88H6.19V7.68H9.94Zm0-3.68H6.19V3.88H9.94Zm4.49,7.56H10.67V11.36h3.76Zm0-3.88H10.67V7.68h3.76Zm0-3.68H10.67V3.88h3.76Z" fill-rule="evenodd"/></svg>