<svg xmlns="http://www.w3.org/2000/svg" viewBox="0 0 16 16"><title>file-pdf</title><path d="M9.858,0H2.31A.807.807,0,0,0,1.5.8V15.2a.807.807,0,0,0,.81.8H13.69a.807.807,0,0,0,.81-.8V4.149ZM12.44,4.155l-2.47.007a.119.119,0,0,1-.119-.119l0-2.194Zm.7,10.5H2.859V1.35H8.5L8.491,4.041A1.454,1.454,0,0,0,8.924,5.08a1.475,1.475,0,0,0,1.05.431L13.141,5.5Z"/><path d="M10.815,10.183a1.079,1.079,0,0,0-1.024-.458,4.133,4.133,0,0,0-.7.058A7.893,7.893,0,0,1,8.056,8.248C8.362,6.941,8.172,6.516,8,6.307a.765.765,0,0,0-.584-.275.976.976,0,0,0-.265.047.8.8,0,0,0-.522.486,2.382,2.382,0,0,0,.276,1.8,16.309,16.309,0,0,1-.848,2.364c-1.01.474-1.511.943-1.574,1.472a.93.93,0,0,0,.412.872.719.719,0,0,0,.444.156,1.279,1.279,0,0,0,.974-.663,6.776,6.776,0,0,0,.569-.993,12.838,12.838,0,0,1,1.836-.594,1.8,1.8,0,0,0,1.152.526.991.991,0,0,0,.819-.436A.793.793,0,0,0,10.815,10.183Zm-.741.451a.215.215,0,0,1-.207.112.958.958,0,0,1-.51-.243c.17-.019.321-.038.434-.038a.7.7,0,0,1,.34.056C10.112,10.559,10.112,10.6,10.074,10.634ZM5.223,12.3c.019-.131.227-.375.755-.675-.4.731-.6.825-.641.844C5.223,12.377,5.223,12.321,5.223,12.3ZM7.394,7.616a1.228,1.228,0,0,1-.075-.749c.018-.038.037-.057.056-.057h.019A1.57,1.57,0,0,1,7.394,7.616Zm.132,1.275a9.713,9.713,0,0,0,.944,1.368,12.236,12.236,0,0,0-1.605.506A16.964,16.964,0,0,0,7.526,8.891Z"/></svg>