<svg id="Layer_1" data-name="Layer 1" xmlns="http://www.w3.org/2000/svg" viewBox="0 0 16 16">
  <title>folder-back</title>
  <g>
    <path d="M14.715,3.273a.591.591,0,0,0-.591-.592H8.261V2.4a.855.855,0,0,0-.856-.855H2.061a.855.855,0,0,0-.855.855v.283H.671a.592.592,0,0,0-.591.592V5.388H14.715Z" fill="#231f20"/>
    <path d="M5.95,13.557a1.147,1.147,0,0,1,0-1.965l5.688-3.459.337-.017a1.113,1.113,0,0,1,1.112,1.112v.892h2.23l.605-3.4H.08v7.175a.808.808,0,0,0,.808.808H7.85Z" fill="#231f20"/>
  </g>
  <path d="M15.953,13.884a.146.146,0,0,1-.146.146H12.085v1.859a.111.111,0,0,1-.169.1L6.466,12.7a.148.148,0,0,1,0-.253l5.451-3.315a.111.111,0,0,1,.169.1V11.12h3.722a.146.146,0,0,1,.146.146Z" fill="#231f20"/>
</svg>
