<svg id="Layer_1" data-name="Layer 1" xmlns="http://www.w3.org/2000/svg" viewBox="0 0 16 16">
  <title>internet_explorer</title>
  <path d="M10.082,1.891A7.467,7.467,0,0,1,13.566.569c1.871,0,1.726,1.6,1.514,2.464a.059.059,0,0,0,.048.074h0a.06.06,0,0,0,.067-.042C16.145-.085,13.63.15,13.63.15,11.824.15,9.566,1.8,9.566,1.8a7.478,7.478,0,0,0-5.386.9A6.262,6.262,0,0,0,1.367,7.4a.144.144,0,0,0,.258.1A14.858,14.858,0,0,1,6.9,3.154a.108.108,0,0,1,.153.1v0A.107.107,0,0,1,7,3.343,16,16,0,0,0,.7,12.567c-.29,1-.1,3.244,1.968,3.244a8.015,8.015,0,0,0,4.161-1.663,9.343,9.343,0,0,0,1.677.1A6.494,6.494,0,0,0,14.888,9.7h-4.58a1.966,1.966,0,0,1-1.967,1.484A2.14,2.14,0,0,1,6.212,8.826h8.741C15.372,2.762,10.082,1.891,10.082,1.891ZM6.569,14.081S3.418,15.993,2,14.668c-.757-1.325.474-3.2.474-3.2A6.147,6.147,0,0,0,6.569,14.081Zm3.789-7.318H6.2A1.976,1.976,0,0,1,8.332,4.737,1.918,1.918,0,0,1,10.358,6.763Z" fill="#231f20"/>
</svg>
