<svg id="Layer_1" data-name="Layer 1" xmlns="http://www.w3.org/2000/svg" viewBox="0 0 16 16"><defs><style>.cls-1{fill:#231f20;}</style></defs><title>light</title><path class="cls-1" d="M8.048,2.53a.5.5,0,0,0,.5-.5V.535a.5.5,0,0,0-1,0v1.5A.5.5,0,0,0,8.048,2.53Z"/><path class="cls-1" d="M4.623,3.083a.5.5,0,0,0,.432.249.508.508,0,0,0,.25-.066.5.5,0,0,0,.183-.682l-.749-1.3a.5.5,0,0,0-.864.5Z"/><path class="cls-1" d="M2.56,8.018a.5.5,0,0,0-.5-.5H.565a.5.5,0,0,0,0,1h1.5A.5.5,0,0,0,2.56,8.018Z"/><path class="cls-1" d="M13.232,5.524a.49.49,0,0,0,.249-.067l1.3-.748a.5.5,0,1,0-.5-.864l-1.3.748a.5.5,0,0,0,.25.931Z"/><path class="cls-1" d="M10.791,3.266a.5.5,0,0,0,.683-.183l.748-1.3a.5.5,0,0,0-.865-.5l-.748,1.3A.5.5,0,0,0,10.791,3.266Z"/><path class="cls-1" d="M2.614,10.579l-1.3.748a.5.5,0,0,0,.5.865l1.3-.749a.5.5,0,0,0-.5-.864Z"/><path class="cls-1" d="M15.53,7.519h-1.5a.5.5,0,0,0,0,1h1.5a.5.5,0,0,0,0-1Z"/><circle class="cls-1" cx="8.048" cy="8.018" r="4.572"/><path class="cls-1" d="M3.113,4.593l-1.3-.748a.5.5,0,0,0-.5.864l1.3.748a.49.49,0,0,0,.249.067.5.5,0,0,0,.25-.931Z"/><path class="cls-1" d="M14.777,11.327l-1.3-.748a.5.5,0,1,0-.5.864l1.3.749a.506.506,0,0,0,.249.065.5.5,0,0,0,.25-.931Z"/><path class="cls-1" d="M11.474,12.952a.5.5,0,0,0-.865.5l.748,1.3a.5.5,0,0,0,.433.249.493.493,0,0,0,.25-.067.5.5,0,0,0,.183-.681Z"/><path class="cls-1" d="M8.048,13.506a.5.5,0,0,0-.5.5v1.5a.5.5,0,1,0,1,0V14A.5.5,0,0,0,8.048,13.506Z"/><path class="cls-1" d="M5.3,12.771a.5.5,0,0,0-.682.182l-.749,1.3a.5.5,0,1,0,.864.5l.749-1.295A.5.5,0,0,0,5.3,12.771Z"/></svg>