<svg id="Layer_1" data-name="Layer 1" xmlns="http://www.w3.org/2000/svg" viewBox="0 0 16 16"><defs><style>.cls-1{fill:#231f20;}</style></defs><title>menu</title><path class="cls-1" d="M15.781,1.726a.636.636,0,0,0-.462-.194H.722a.656.656,0,0,0-.479.194.626.626,0,0,0-.194.462V4.317a.626.626,0,0,0,.194.462.65.65,0,0,0,.479.2h14.6a.666.666,0,0,0,.656-.657V2.188A.626.626,0,0,0,15.781,1.726Z"/><path class="cls-1" d="M15.319,6.4H.722a.656.656,0,0,0-.479.194.626.626,0,0,0-.194.462V9.18a.626.626,0,0,0,.194.462.65.65,0,0,0,.479.2h14.6a.665.665,0,0,0,.656-.657V7.051a.626.626,0,0,0-.194-.462A.636.636,0,0,0,15.319,6.4Z"/><path class="cls-1" d="M15.319,11.259H.722a.656.656,0,0,0-.479.194.626.626,0,0,0-.194.462v2.129a.626.626,0,0,0,.194.462.65.65,0,0,0,.479.2h14.6a.665.665,0,0,0,.656-.657V11.915a.626.626,0,0,0-.194-.462A.636.636,0,0,0,15.319,11.259Z"/></svg>