<svg id="Layer_1" data-name="Layer 1" xmlns="http://www.w3.org/2000/svg" viewBox="0 0 16 16"><title>menu</title><path d="M15.78,1.73a.63.63,0,0,0-.46-.2H.72a.66.66,0,0,0-.48.2.6.6,0,0,0-.19.46V4.32a.63.63,0,0,0,.19.46A.65.65,0,0,0,.72,5h14.6a.62.62,0,0,0,.46-.19.65.65,0,0,0,.2-.46V2.19A.61.61,0,0,0,15.78,1.73Z"/><path d="M15.32,6.4H.72a.65.65,0,0,0-.48.19.62.62,0,0,0-.19.46V9.18a.62.62,0,0,0,.19.46.66.66,0,0,0,.48.2h14.6A.68.68,0,0,0,16,9.18V7.05a.63.63,0,0,0-.2-.46A.62.62,0,0,0,15.32,6.4Z"/><path d="M15.32,11.26H.72a.65.65,0,0,0-.48.19.63.63,0,0,0-.19.46V14a.64.64,0,0,0,.19.47.65.65,0,0,0,.48.19h14.6a.62.62,0,0,0,.46-.19A.65.65,0,0,0,16,14V11.91a.65.65,0,0,0-.2-.46A.62.62,0,0,0,15.32,11.26Z"/></svg>