<svg id="Layer_1" data-name="Layer 1" xmlns="http://www.w3.org/2000/svg" viewBox="0 0 16 16"><defs><style>.cls-1{fill:#231f20;}</style></defs><title>primary-room</title><path class="cls-1" d="M8.657,3.33H6.874a.094.094,0,0,0-.1.1V8.652a.094.094,0,0,0,.1.1H7.98a.094.094,0,0,0,.1-.1V7.425a.052.052,0,0,1,.059-.06h.518c1.2,0,1.991-.482,1.991-2.015S9.891,3.33,8.657,3.33Zm-.04,2.89H8.138a.053.053,0,0,1-.059-.06V4.535a.052.052,0,0,1,.059-.06h.478c.508,0,.726.108.726.875S9.124,6.22,8.617,6.22Z"/><path class="cls-1" d="M14.089,3.716A6.028,6.028,0,0,0,10.869.474,5.9,5.9,0,0,0,8.509,0a5.971,5.971,0,0,0-2.36.474A6.046,6.046,0,0,0,2.906,3.716a5.988,5.988,0,0,0-.474,2.371,5.372,5.372,0,0,0,.266,1.7,7.447,7.447,0,0,0,.7,1.54s3.831,5.438,4.146,5.838c.276.35.671.838.952.838.328,0,.635-.48.9-.849L13.6,9.345A7.365,7.365,0,0,0,14.3,7.8a5.529,5.529,0,0,0,.263-1.715A5.993,5.993,0,0,0,14.089,3.716ZM8.521,10.172A4.051,4.051,0,0,1,4.412,6.063,4.109,4.109,0,0,1,8.521,1.954c2.269,0,4.38,1.856,4.109,4.109A4.655,4.655,0,0,1,8.521,10.172Z"/></svg>