<svg id="Layer_1" data-name="Layer 1" xmlns="http://www.w3.org/2000/svg" viewBox="0 0 16 16"><title>primary-room</title><path d="M8.66,3.33H6.87a.09.09,0,0,0-.1.1V8.65a.09.09,0,0,0,.1.1H8a.09.09,0,0,0,.1-.1V7.43a.05.05,0,0,1,.06-.06h.52c1.2,0,2-.49,2-2S9.89,3.33,8.66,3.33Zm0,2.89H8.14a.05.05,0,0,1-.06-.06V4.54a.05.05,0,0,1,.06-.06h.48c.5,0,.72.1.72.87S9.12,6.22,8.62,6.22Z"/><path d="M14.09,3.72a6.06,6.06,0,0,0-1.3-1.95A6,6,0,0,0,8.51,0,6.06,6.06,0,0,0,6.15.47a6.18,6.18,0,0,0-1.94,1.3,6.06,6.06,0,0,0-1.3,2,5.91,5.91,0,0,0-.48,2.37A5.25,5.25,0,0,0,2.7,7.78a7.14,7.14,0,0,0,.7,1.54s3.83,5.44,4.15,5.84.67.84,1,.84.63-.48.9-.85l4.2-5.81a7.66,7.66,0,0,0,.7-1.54,5.37,5.37,0,0,0,.26-1.71A6.07,6.07,0,0,0,14.09,3.72ZM8.52,10.17A4,4,0,0,1,4.41,6.06,4.11,4.11,0,0,1,8.52,2c2.27,0,4.38,1.86,4.11,4.11A4.65,4.65,0,0,1,8.52,10.17Z"/></svg>