<svg id="Layer_1" data-name="Layer 1" xmlns="http://www.w3.org/2000/svg" viewBox="0 0 16 16">
  <title>primary-room</title>
  <g>
    <path d="M8.656,3.33H6.874a.094.094,0,0,0-.1.1V8.652a.093.093,0,0,0,.1.1H7.979a.093.093,0,0,0,.1-.1V7.425a.053.053,0,0,1,.059-.06h.518c1.205,0,1.992-.482,1.992-2.015S9.891,3.33,8.656,3.33ZM8.617,6.22H8.138a.053.053,0,0,1-.059-.06V4.535a.053.053,0,0,1,.059-.06h.479c.507,0,.726.109.726.875S9.124,6.22,8.617,6.22Z" fill="#231f20"/>
    <path d="M14.089,3.716A6.02,6.02,0,0,0,10.869.474,5.9,5.9,0,0,0,8.509,0,5.973,5.973,0,0,0,6.148.474,6.041,6.041,0,0,0,2.906,3.716a5.986,5.986,0,0,0-.474,2.371,5.361,5.361,0,0,0,.266,1.7,7.408,7.408,0,0,0,.7,1.54s3.831,5.438,4.146,5.837c.276.35.671.838.952.838.328,0,.635-.48.9-.849l4.2-5.806A7.386,7.386,0,0,0,14.3,7.8a5.515,5.515,0,0,0,.264-1.715A5.986,5.986,0,0,0,14.089,3.716ZM8.521,10.172A4.052,4.052,0,0,1,4.412,6.063,4.109,4.109,0,0,1,8.521,1.954c2.27,0,4.38,1.856,4.109,4.109A4.655,4.655,0,0,1,8.521,10.172Z" fill="#231f20"/>
  </g>
</svg>
