<svg id="Layer_1" data-name="Layer 1" xmlns="http://www.w3.org/2000/svg" viewBox="0 0 16 16">
  <title>reservation-block</title>
  <g id="Reservation_Block" data-name="Reservation Block">
    <g id="Union">
      <path id="path0_fill" data-name="path0 fill" d="M12.25,0a.75.75,0,0,0-.75.75V1.5h-7V.75A.75.75,0,0,0,3,.75V1.5H2a2,2,0,0,0-2,2V14a2,2,0,0,0,2,2H14a2,2,0,0,0,2-2V3.5a2,2,0,0,0-2-2H13V.75A.75.75,0,0,0,12.25,0ZM2,14.5a.5.5,0,0,1-.5-.5V6A.5.5,0,0,1,2,5.5H14a.5.5,0,0,1,.5.5v8a.5.5,0,0,1-.5.5Z" fill="#010101"/>
    </g>
    <g id="Rectangle_5" data-name="Rectangle 5">
      <path id="path1_fill" data-name="path1 fill" d="M9,7H3.5a.5.5,0,0,0-.5.5V8.75a.5.5,0,0,0,.5.5H9a.5.5,0,0,0,.5-.5V7.5A.5.5,0,0,0,9,7Z" fill="#010101"/>
    </g>
    <g id="Rectangle_5-2" data-name="Rectangle 5">
      <path id="path1_fill-2" data-name="path1 fill" d="M12.5,10.75H7a.5.5,0,0,0-.5.5V12.5A.5.5,0,0,0,7,13h5.5a.5.5,0,0,0,.5-.5V11.25a.5.5,0,0,0-.5-.5Z" fill="#010101"/>
    </g>
  </g>
</svg>
