<svg id="Layer_1" data-name="Layer 1" xmlns="http://www.w3.org/2000/svg" viewBox="0 0 16 16"><title>reservation-block</title><path d="M12.25,0a.76.76,0,0,0-.75.75V1.5h-7V.75A.75.75,0,0,0,3,.75V1.5H2a2,2,0,0,0-2,2V14a2,2,0,0,0,2,2H14a2,2,0,0,0,2-2V3.5a2,2,0,0,0-2-2H13V.75A.76.76,0,0,0,12.25,0ZM2,14.5a.5.5,0,0,1-.5-.5V6A.5.5,0,0,1,2,5.5H14a.5.5,0,0,1,.5.5v8a.5.5,0,0,1-.5.5ZM9,7a.5.5,0,0,1,.5.5V8.75a.5.5,0,0,1-.5.5H3.5a.5.5,0,0,1-.5-.5V7.5A.5.5,0,0,1,3.5,7Zm3.5,3.75a.5.5,0,0,1,.5.5V12.5a.5.5,0,0,1-.5.5H7a.5.5,0,0,1-.5-.5V11.25a.5.5,0,0,1,.5-.5Z"/></svg>