<svg id="Layer_1" data-name="Layer 1" xmlns="http://www.w3.org/2000/svg" viewBox="0 0 16 16"><title>resources-logo</title><path d="M4.847,7.243c-.039-.063-.172-.085-.284-.085a.584.584,0,0,0-.442.2l-.032-.1a.086.086,0,0,0-.081-.065H3.931a.09.09,0,0,0-.088.088V8.62a.089.089,0,0,0,.088.088h.148c.047,0,.12,0,.12-.088V7.683A.406.406,0,0,1,4.531,7.5a.349.349,0,0,1,.127.027.08.08,0,0,0,.064,0,.083.083,0,0,0,.049-.048l.078-.16A.077.077,0,0,0,4.847,7.243Z"/><path d="M5.581,7.158a.793.793,0,0,0,0,1.585.85.85,0,0,0,.56-.187.076.076,0,0,0,.01-.122L6.067,8.3a.066.066,0,0,0-.044-.033.094.094,0,0,0-.067.022A.554.554,0,0,1,5.6,8.41a.42.42,0,0,1-.425-.37H6.184a.086.086,0,0,0,.085-.079c0-.027.007-.079.007-.105A.681.681,0,0,0,5.581,7.158Zm-.006.307a.332.332,0,0,1,.347.3H5.2A.36.36,0,0,1,5.575,7.465Z"/><path d="M6.963,7.785c-.157-.068-.243-.121-.243-.2,0-.057.053-.114.172-.114a.748.748,0,0,1,.311.072A.086.086,0,0,0,7.322,7.5l.051-.1a.105.105,0,0,0-.038-.131.852.852,0,0,0-.443-.112c-.351,0-.508.212-.508.422,0,.262.2.388.411.484s.308.155.308.241-.068.128-.179.128a.671.671,0,0,1-.355-.1l0,0a.089.089,0,0,0-.075-.011.074.074,0,0,0-.046.037l-.067.138a.078.078,0,0,0,.031.1h0a.878.878,0,0,0,.5.154.487.487,0,0,0,.547-.451C7.452,8.013,7.258,7.91,6.963,7.785Z"/><path d="M8.314,7.158a.793.793,0,1,0,.772.788A.792.792,0,0,0,8.314,7.158Zm.423.788A.425.425,0,1,1,8.314,7.5.427.427,0,0,1,8.737,7.946Z"/><path d="M10.491,7.19h-.164c-.051,0-.1.007-.1.088v.9a.352.352,0,0,1-.33.23c-.185,0-.272-.107-.272-.336v-.79a.09.09,0,0,0-.087-.088h-.18a.093.093,0,0,0-.088.088v.767c0,.325.065.7.569.7a.61.61,0,0,0,.462-.187l.029.079c.013.036.033.073.084.073h.077a.092.092,0,0,0,.091-.088V7.278A.093.093,0,0,0,10.491,7.19Z"/><path d="M11.877,7.243c-.039-.063-.172-.085-.284-.085a.6.6,0,0,0-.443.2l-.031-.1a.086.086,0,0,0-.081-.065h-.077a.09.09,0,0,0-.088.088V8.62a.089.089,0,0,0,.088.088h.148c.047,0,.119,0,.119-.088V7.683a.411.411,0,0,1,.333-.186.349.349,0,0,1,.127.027.08.08,0,0,0,.064,0,.085.085,0,0,0,.049-.048l.077-.16A.075.075,0,0,0,11.877,7.243Z"/><path d="M13.086,8.218a.085.085,0,0,0-.122.007l-.036.035a.392.392,0,0,1-.3.144.455.455,0,1,1,.3-.764c.025.025.066.066.12.017l.115-.106a.09.09,0,0,0,.015-.13.667.667,0,0,0-.553-.263.787.787,0,0,0-.778.794.775.775,0,0,0,.775.791.691.691,0,0,0,.592-.316c.02-.029.031-.075-.029-.129Z"/><path d="M14.045,7.158a.793.793,0,0,0,0,1.585.85.85,0,0,0,.56-.187.076.076,0,0,0,.01-.122L14.531,8.3a.066.066,0,0,0-.044-.033.094.094,0,0,0-.067.022.554.554,0,0,1-.353.122.42.42,0,0,1-.425-.37h1.006a.086.086,0,0,0,.085-.079c0-.027.006-.079.006-.105A.68.68,0,0,0,14.045,7.158Zm-.006.307a.332.332,0,0,1,.347.3H13.66A.359.359,0,0,1,14.039,7.465Z"/><path d="M15.427,7.785c-.158-.068-.243-.121-.243-.2,0-.057.053-.114.172-.114a.748.748,0,0,1,.311.072.087.087,0,0,0,.119-.037l.051-.1A.105.105,0,0,0,15.8,7.27a.852.852,0,0,0-.443-.112c-.351,0-.508.212-.508.422,0,.262.2.388.411.484s.308.155.308.241-.069.128-.179.128a.674.674,0,0,1-.355-.1l0,0a.089.089,0,0,0-.075-.011.074.074,0,0,0-.046.037l-.067.138a.078.078,0,0,0,.031.1h0a.878.878,0,0,0,.5.154.487.487,0,0,0,.547-.451C15.916,8.013,15.722,7.91,15.427,7.785Z"/><path d="M1.572,6.512C.382,6.512.084,6.81.084,8s.3,1.488,1.488,1.488S3.06,9.19,3.06,8,2.762,6.512,1.572,6.512ZM1.457,8.6a.089.089,0,0,1-.089.09H.974a.09.09,0,0,1-.09-.09V8.2a.089.089,0,0,1,.09-.089h.394a.089.089,0,0,1,.089.089Zm0-.8a.089.089,0,0,1-.089.089H.974A.089.089,0,0,1,.884,7.8V7.4a.09.09,0,0,1,.09-.09h.394a.089.089,0,0,1,.089.09Zm.8.8a.09.09,0,0,1-.09.09H1.776a.089.089,0,0,1-.089-.09V8.2a.089.089,0,0,1,.089-.089H2.17a.089.089,0,0,1,.09.089Zm0-.8a.089.089,0,0,1-.09.089H1.776A.089.089,0,0,1,1.687,7.8V7.4a.089.089,0,0,1,.089-.09H2.17a.09.09,0,0,1,.09.09Z"/></svg>