<svg id="Layer_1" data-name="Layer 1" xmlns="http://www.w3.org/2000/svg" viewBox="0 0 16 16"><defs><style>.cls-1{fill:#010101;}</style></defs><title>resources-logo</title><path class="cls-1" d="M4.847,7.2426c-.0392-.0623-.1722-.0846-.2837-.0846a.58436.58436,0,0,0-.4426.1993L4.089,7.2549a.08582.08582,0,0,0-.081-.0647H3.9309a.09013.09013,0,0,0-.0879.0877V8.6198a.08905.08905,0,0,0,.0879.0878h.1477c.0477,0,.1199,0,.1199-.0878V7.6834a.40775.40775,0,0,1,.3328-.186.35192.35192,0,0,1,.1272.0271.08112.08112,0,0,0,.0631.0048.0869.0869,0,0,0,.0498-.0481l.0771-.1604A.07712.07712,0,0,0,4.847,7.2426Z"/><path class="cls-1" d="M5.5809,7.158a.79327.79327,0,0,0,.0033,1.5849.85071.85071,0,0,0,.5601-.1871.07622.07622,0,0,0,.0097-.1219l-.0868-.135a.06979.06979,0,0,0-.044-.0329.09338.09338,0,0,0-.067.022.55624.55624,0,0,1-.3528.122.42.42,0,0,1-.4251-.3701H6.1844a.086.086,0,0,0,.0844-.0792c.0034-.0266.0068-.0785.0068-.1049A.681.681,0,0,0,5.5809,7.158Zm-.0063.3073a.33217.33217,0,0,1,.3476.3027h-.726A.35936.35936,0,0,1,5.5746,7.4653Z"/><path class="cls-1" d="M6.9634,7.7854c-.1578-.0686-.2432-.1212-.2432-.2025,0-.0569.0532-.1144.1721-.1144a.75142.75142,0,0,1,.3108.0724.08659.08659,0,0,0,.1187-.0369l.0514-.1028A.10522.10522,0,0,0,7.3351,7.27a.85019.85019,0,0,0-.4428-.112c-.3512,0-.5084.2118-.5084.4218,0,.2626.1978.388.4115.4843.2084.0944.3076.1546.3076.2411,0,.0785-.0684.1273-.1786.1273a.6689.6689,0,0,1-.3553-.1039l-.0052-.0029a.09371.09371,0,0,0-.0753-.0112.07324.07324,0,0,0-.0451.0378l-.0673.1378a.07762.07762,0,0,0,.031.0988l.0003.0002a.88163.88163,0,0,0,.4976.1538.48664.48664,0,0,0,.547-.4505C7.4521,8.0133,7.2585,7.9104,6.9634,7.7854Z"/><path class="cls-1" d="M8.3141,7.158a.79273.79273,0,1,0,.7717.7877A.79186.79186,0,0,0,8.3141,7.158Zm.4226.7877a.42485.42485,0,1,1-.4226-.4483A.42643.42643,0,0,1,8.7367,7.9457Z"/><path class="cls-1" d="M10.4909,7.1902h-.1637c-.0509,0-.1006.0068-.1006.0877l.0003.8957a.35094.35094,0,0,1-.3298.23c-.1853,0-.2717-.1067-.2717-.3359V7.2779a.09013.09013,0,0,0-.0879-.0877H9.3577a.09254.09254,0,0,0-.0879.0877v.7673c0,.3249.0647.6977.5695.6977a.60842.60842,0,0,0,.4621-.1874l.029.0798c.0129.0358.0331.0723.0835.0723h.077a.09184.09184,0,0,0,.0911-.0878V7.2779A.093.093,0,0,0,10.4909,7.1902Z"/><path class="cls-1" d="M11.8769,7.2426c-.0392-.0623-.1722-.0846-.2836-.0846a.59557.59557,0,0,0-.4428.1988l-.0316-.1018a.08531.08531,0,0,0-.0809-.0648h-.0771a.09013.09013,0,0,0-.0879.0877V8.6198a.088.088,0,0,0,.0879.0878h.1476c.0478,0,.12,0,.12-.0878V7.6834a.4077.4077,0,0,1,.3327-.186.35142.35142,0,0,1,.1272.0271.08109.08109,0,0,0,.0631.0048.0869.0869,0,0,0,.0498-.0481l.0771-.1604A.07712.07712,0,0,0,11.8769,7.2426Z"/><path class="cls-1" d="M13.0856,8.218a.085.085,0,0,0-.122.0071l-.0359.0348a.39079.39079,0,0,1-.3023.1437.45445.45445,0,1,1,.3025-.7634c.0247.0246.0663.0659.1201.0164l.1154-.1058a.09021.09021,0,0,0,.0145-.1295.6645.6645,0,0,0-.5525-.2633.78712.78712,0,0,0-.7782.794.7747.7747,0,0,0,.7749.7909.69173.69173,0,0,0,.5922-.3158c.0194-.0291.0303-.075-.0293-.1288Z"/><path class="cls-1" d="M14.0449,7.158a.79327.79327,0,0,0,.0032,1.5849.85108.85108,0,0,0,.5602-.1871.0762.0762,0,0,0,.0096-.1219l-.0868-.135a.06979.06979,0,0,0-.044-.0329.09313.09313,0,0,0-.0669.022.55669.55669,0,0,1-.3528.122.41989.41989,0,0,1-.4251-.3701h1.0061a.086.086,0,0,0,.0844-.0792c.0033-.0266.0067-.0785.0067-.1049A.68093.68093,0,0,0,14.0449,7.158Zm-.0064.3073a.332.332,0,0,1,.3476.3027h-.7259A.35925.35925,0,0,1,14.0385,7.4653Z"/><path class="cls-1" d="M15.4272,7.7854c-.1578-.0686-.2432-.1212-.2432-.2025,0-.0569.0532-.1144.1722-.1144a.75107.75107,0,0,1,.3108.0724.08664.08664,0,0,0,.1187-.037l.0513-.1027a.1052.1052,0,0,0-.038-.1312.85077.85077,0,0,0-.4428-.112c-.3512,0-.5084.2118-.5084.4218,0,.2626.1977.388.4114.4843.2085.0945.3077.1546.3077.2411,0,.0785-.0684.1273-.1786.1273a.66967.66967,0,0,1-.3551-.1038l-.0055-.003a.09408.09408,0,0,0-.075-.0112.07322.07322,0,0,0-.0454.0378l-.0672.1379a.07746.07746,0,0,0,.0311.0987l.0002.0002a.88231.88231,0,0,0,.4977.1538.48656.48656,0,0,0,.5468-.4505C15.9159,8.0133,15.7223,7.9104,15.4272,7.7854Z"/><path class="cls-1" d="M1.572,6.5121C.3817,6.5121.0841,6.8097.0841,8S.3817,9.4879,1.572,9.4879,3.0599,9.1903,3.0599,8,2.7623,6.5121,1.572,6.5121ZM1.4573,8.5982a.0896.0896,0,0,1-.0896.0897H.9738a.08962.08962,0,0,1-.0897-.0897V8.2043a.08969.08969,0,0,1,.0897-.0897h.3939a.08967.08967,0,0,1,.0896.0897Zm0-.8025a.08958.08958,0,0,1-.0896.0896H.9738a.0896.0896,0,0,1-.0897-.0896V7.4018a.08962.08962,0,0,1,.0897-.0897h.3939a.0896.0896,0,0,1,.0896.0897Zm.8026.8025a.08962.08962,0,0,1-.0897.0897H1.7763a.08969.08969,0,0,1-.0897-.0897V8.2043a.08975.08975,0,0,1,.0897-.0897h.3939a.08969.08969,0,0,1,.0897.0897Zm0-.8025a.0896.0896,0,0,1-.0897.0896H1.7763a.08967.08967,0,0,1-.0897-.0896V7.4018a.08969.08969,0,0,1,.0897-.0897h.3939a.08962.08962,0,0,1,.0897.0897Z"/></svg>