<svg id="Layer_1" data-name="Layer 1" xmlns="http://www.w3.org/2000/svg" viewBox="0 0 16 16"><title>resources-logo</title><path d="M4.85,7.24c0-.06-.18-.08-.29-.08a.58.58,0,0,0-.44.2l0-.11A.09.09,0,0,0,4,7.19H3.93a.09.09,0,0,0-.09.09V8.62a.09.09,0,0,0,.09.09h.15s.12,0,.12-.09V7.68a.4.4,0,0,1,.33-.18l.13,0a.07.07,0,0,0,.06,0l0,0,.08-.16A.08.08,0,0,0,4.85,7.24Z"/><path d="M5.58,7.16A.75.75,0,0,0,4.83,8a.74.74,0,0,0,.75.79.86.86,0,0,0,.56-.18c.06-.05,0-.09,0-.13L6.07,8.3s0,0-.05,0,0,0-.06,0a.59.59,0,0,1-.36.12A.42.42,0,0,1,5.18,8h1A.09.09,0,0,0,6.27,8s0-.08,0-.1A.68.68,0,0,0,5.58,7.16Zm0,.31a.32.32,0,0,1,.35.3H5.2A.34.34,0,0,1,5.57,7.47Z"/><path d="M7,7.79c-.15-.07-.24-.13-.24-.21s0-.11.17-.11a.73.73,0,0,1,.31.07.09.09,0,0,0,.12,0l0-.1a.1.1,0,0,0,0-.13,1,1,0,0,0-.45-.11c-.35,0-.51.21-.51.42s.2.39.42.48.3.16.3.25-.07.12-.18.12a.73.73,0,0,1-.35-.1h0a.1.1,0,0,0-.07,0,.1.1,0,0,0,0,0l-.06.14a.08.08,0,0,0,0,.1h0a.87.87,0,0,0,.5.15.48.48,0,0,0,.54-.45C7.45,8,7.26,7.91,7,7.79Z"/><path d="M8.31,7.16a.79.79,0,0,0,0,1.58.79.79,0,0,0,0-1.58ZM8.74,8a.43.43,0,1,1-.43-.45A.43.43,0,0,1,8.74,8Z"/><path d="M10.49,7.19h-.16c-.05,0-.1,0-.1.09v.89a.36.36,0,0,1-.33.23c-.19,0-.27-.1-.27-.33V7.28a.1.1,0,0,0-.09-.09H9.36a.09.09,0,0,0-.09.09v.77c0,.32.06.69.57.69a.62.62,0,0,0,.46-.18l0,.08a.09.09,0,0,0,.08.07h.08a.09.09,0,0,0,.09-.09V7.28A.09.09,0,0,0,10.49,7.19Z"/><path d="M11.88,7.24c0-.06-.18-.08-.29-.08a.57.57,0,0,0-.44.2l0-.11A.09.09,0,0,0,11,7.19H11a.09.09,0,0,0-.09.09V8.62a.09.09,0,0,0,.09.09h.15c.05,0,.12,0,.12-.09V7.68a.4.4,0,0,1,.33-.18l.13,0a.07.07,0,0,0,.06,0l.05,0,.08-.16A.08.08,0,0,0,11.88,7.24Z"/><path d="M13.09,8.22a.09.09,0,0,0-.13,0l0,0a.39.39,0,0,1-.3.14.45.45,0,0,1,0-.9.44.44,0,0,1,.29.14s.06.07.12,0l.11-.11a.1.1,0,0,0,0-.13.66.66,0,0,0-.55-.26.78.78,0,0,0-.78.79.77.77,0,0,0,.77.79.68.68,0,0,0,.59-.31.09.09,0,0,0,0-.13Z"/><path d="M14,7.16a.79.79,0,0,0,0,1.58.89.89,0,0,0,.56-.18c.05-.05,0-.09,0-.13l-.09-.13a.05.05,0,0,0,0,0s-.05,0-.07,0a.56.56,0,0,1-.35.12A.43.43,0,0,1,13.64,8h1A.08.08,0,0,0,14.73,8a.38.38,0,0,0,0-.1A.68.68,0,0,0,14,7.16Zm0,.31a.33.33,0,0,1,.35.3h-.73A.35.35,0,0,1,14,7.47Z"/><path d="M15.43,7.79c-.16-.07-.25-.13-.25-.21s.06-.11.18-.11a.76.76,0,0,1,.31.07.09.09,0,0,0,.12,0l.05-.1a.11.11,0,0,0,0-.13.87.87,0,0,0-.44-.11c-.36,0-.51.21-.51.42s.2.39.41.48.31.16.31.25-.07.12-.18.12a.77.77,0,0,1-.36-.1h0a.12.12,0,0,0-.08,0l0,0-.07.14a.08.08,0,0,0,0,.1h0a.87.87,0,0,0,.5.15c.36,0,.55-.22.55-.45S15.72,7.91,15.43,7.79Z"/><path d="M1.57,6.51C.38,6.51.08,6.81.08,8s.3,1.49,1.49,1.49S3.06,9.19,3.06,8,2.76,6.51,1.57,6.51ZM1.46,8.6a.09.09,0,0,1-.09.09H1A.09.09,0,0,1,.88,8.6V8.2A.09.09,0,0,1,1,8.11h.4a.09.09,0,0,1,.09.09Zm0-.8a.09.09,0,0,1-.09.09H1A.09.09,0,0,1,.88,7.8V7.4A.09.09,0,0,1,1,7.31h.4a.09.09,0,0,1,.09.09Zm.8.8a.09.09,0,0,1-.09.09H1.78a.09.09,0,0,1-.09-.09V8.2a.09.09,0,0,1,.09-.09h.39a.09.09,0,0,1,.09.09Zm0-.8a.09.09,0,0,1-.09.09H1.78a.09.09,0,0,1-.09-.09V7.4a.09.09,0,0,1,.09-.09h.39a.09.09,0,0,1,.09.09Z"/></svg>