<svg id="Layer_1" data-name="Layer 1" xmlns="http://www.w3.org/2000/svg" viewBox="0 0 16 16"><title>room-setup-add</title><path d="M5.37,7.22a1.28,1.28,0,0,1-1,1.5h0c-.67.15-.88,1.44-1,.76l-1.65-8a1.29,1.29,0,0,1,1-1.5h0A1.22,1.22,0,0,1,4.17,1Z"/><path d="M14.5,7.77c0,.79-.61,1.84-1.36,1.84H4.45c-.76,0-1.37-1-1.37-1.84h0A1.37,1.37,0,0,1,4.45,6.36h8.69A1.37,1.37,0,0,1,14.5,7.77Z"/><path d="M4.31,15.21c0,.36-1,.8-1.31.75H3a.64.64,0,0,1-.52-.74l1.22-7a.63.63,0,0,1,.71-.55h0c.33,0,1,.47,1,.83Z"/><path d="M13.42,15.32c0,.36-.08.66-.42.66h0a.65.65,0,0,1-.62-.66V8.81A.64.64,0,0,1,13,8.16h0c.34,0,.42.29.42.65Z"/><path d="M13.51,12.07a.72.72,0,0,1-.75.72H4.57a.71.71,0,0,1-.74-.72h0c0-.44.33-.39.74-.39h8.19c.41,0,.75,0,.75.39Z"/><path d="M10.73,0h1.06V5.32H10.73Z" fill-rule="evenodd"/><path d="M13.92,2.13V3.19H8.6V2.13Z" fill-rule="evenodd"/></svg>