<svg id="Layer_1" data-name="Layer 1" xmlns="http://www.w3.org/2000/svg" viewBox="0 0 16 16"><title>rooms</title><path d="M5,0H2A2,2,0,0,0,0,2V5A2,2,0,0,0,2,7H5A2,2,0,0,0,7,5V2A2,2,0,0,0,5,0Zm.5,5a.5.5,0,0,1-.5.5H2A.5.5,0,0,1,1.5,5V2A.5.5,0,0,1,2,1.5H5a.5.5,0,0,1,.5.5Z"/><path d="M14,0H11A2,2,0,0,0,9,2V5a2,2,0,0,0,2,2h3a2,2,0,0,0,2-2V2A2,2,0,0,0,14,0Zm.5,5a.5.5,0,0,1-.5.5H11a.5.5,0,0,1-.5-.5V2a.5.5,0,0,1,.5-.5h3a.5.5,0,0,1,.5.5Z"/><path d="M5,9H2a2,2,0,0,0-2,2v3a2,2,0,0,0,2,2H5a2,2,0,0,0,2-2V11A2,2,0,0,0,5,9Zm.5,5a.5.5,0,0,1-.5.5H2a.5.5,0,0,1-.5-.5V11a.5.5,0,0,1,.5-.5H5a.5.5,0,0,1,.5.5Z"/><path d="M14,9H11a2,2,0,0,0-2,2v3a2,2,0,0,0,2,2h3a2,2,0,0,0,2-2V11A2,2,0,0,0,14,9Zm.5,5a.5.5,0,0,1-.5.5H11a.5.5,0,0,1-.5-.5V11a.5.5,0,0,1,.5-.5h3a.5.5,0,0,1,.5.5Z"/></svg>