<svg id="Layer_1" data-name="Layer 1" xmlns="http://www.w3.org/2000/svg" viewBox="0 0 16 16">
  <title>room-setup-link</title>
  <g>
    <path d="M5.373,7.225A1.281,1.281,0,0,1,4.4,8.72h0c-.671.146-.875,1.444-1.008.764L1.74,1.519A1.281,1.281,0,0,1,2.715.024h0A1.217,1.217,0,0,1,4.171.989Z" fill="#231f20"/>
    <path d="M14.5,7.766c0,.8-.611,1.839-1.365,1.839H4.447c-.753,0-1.365-1.044-1.365-1.839h0A1.376,1.376,0,0,1,4.447,6.359h8.688A1.375,1.375,0,0,1,14.5,7.766Z" fill="#231f20"/>
    <path d="M4.314,15.212c-.05.358-.975.8-1.314.749H3a.649.649,0,0,1-.524-.742L3.7,8.242a.626.626,0,0,1,.7-.553h0c.339.053,1.023.475.973.833Z" fill="#231f20"/>
    <path d="M13.423,15.323c0,.362-.078.655-.421.655h0a.638.638,0,0,1-.621-.655V8.813A.638.638,0,0,1,13,8.159h0c.343,0,.421.293.421.654Z" fill="#231f20"/>
    <path d="M13.507,12.068a.709.709,0,0,1-.744.719H4.572a.709.709,0,0,1-.745-.719h0c0-.433.333-.386.745-.386h8.191c.411,0,.744-.047.744.386Z" fill="#231f20"/>
  </g>
  <path d="M11.246,0V1.064H10.183V0H6.992V3.191h3.191V2.128h1.063V3.191h3.191V0ZM8.056,2.128V1.064H9.119V2.128Zm5.318,0H12.31V1.064h1.064Z" fill="#231f20" fill-rule="evenodd"/>
</svg>
