<svg id="Layer_1" data-name="Layer 1" xmlns="http://www.w3.org/2000/svg" viewBox="0 0 16 16"><title>share</title><path id="path0_fill" data-name="path0 fill" d="M7.47.22a.75.75,0,0,1,1.06,0L11,2.72A.75.75,0,0,1,10,3.78L8.75,2.56v7.69a.75.75,0,0,1-1.5,0V2.56L6,3.78A.75.75,0,0,1,5,2.72Z"/><path id="path1_fill" data-name="path1 fill" d="M4.5,6.5A.5.5,0,0,0,4,7v7a.5.5,0,0,0,.5.5h7A.5.5,0,0,0,12,14V7a.5.5,0,0,0-.5-.5H11A.75.75,0,0,1,11,5h.5a2,2,0,0,1,2,2v7a2,2,0,0,1-2,2h-7a2,2,0,0,1-2-2V7a2,2,0,0,1,2-2H5A.75.75,0,0,1,5,6.5Z"/></svg>