<svg width="24" height="24" viewBox="0 0 24 24" fill="none" xmlns="http://www.w3.org/2000/svg">
<path fill-rule="evenodd" clip-rule="evenodd" d="M12 10.9091C13.9079 10.9091 15.4545 9.36244 15.4545 7.45455C15.4545 5.54665 13.9079 4 12 4C10.0921 4 8.54545 5.54665 8.54545 7.45455C8.54545 9.36244 10.0921 10.9091 12 10.9091ZM12 12.9091C15.0125 12.9091 17.4545 10.467 17.4545 7.45455C17.4545 4.44208 15.0125 2 12 2C8.98753 2 6.54545 4.44208 6.54545 7.45455C6.54545 10.467 8.98753 12.9091 12 12.9091Z" fill="black"/>
<path fill-rule="evenodd" clip-rule="evenodd" d="M19.0909 16.0242L12 14.0742L4.90909 16.0242V20H19.0909V16.0242ZM12 12L21.0909 14.5V22H2.90909V14.5L12 12Z" fill="black"/>
</svg>
