<svg xmlns="http://www.w3.org/2000/svg" viewBox="0 0 16 16"><defs><style>.cls-1{fill:#010101;}</style></defs><title>event-status</title><g id="Layer_1" data-name="Layer 1"><path class="cls-1" d="M8.687,12.987H8.654a.7.7,0,0,1-.638-.5L5.938,5.564,4.445,9.226a.7.7,0,0,1-.649.436H.7a.7.7,0,1,1,0-1.4H3.325L5.389,3.2a.7.7,0,0,1,1.32.063l2.075,6.915,1.957-4.839a.7.7,0,0,1,.649-.438H11.4a.7.7,0,0,1,.648.447l1.13,2.915H15.3a.7.7,0,1,1,0,1.4H12.694a.7.7,0,0,1-.653-.447L11.377,7.5,9.336,12.549A.7.7,0,0,1,8.687,12.987Z"/></g></svg>