<svg xmlns="http://www.w3.org/2000/svg" viewBox="0 0 16 16"><defs><style>.cls-1{fill-rule:evenodd;}</style></defs><title>registrations-logo</title><g id="Layer_1" data-name="Layer 1"><path d="M3.574,7.417a.009.009,0,0,1-.01-.01V6.788a.009.009,0,0,1,.01-.01h.089a.009.009,0,0,1,.01.01v.035h0A.14.14,0,0,1,3.8,6.768a.156.156,0,0,1,.161.112.533.533,0,0,1,0,.262.156.156,0,0,1-.161.112A.14.14,0,0,1,3.673,7.2h0v.208a.009.009,0,0,1-.01.01ZM3.855,7.1a.4.4,0,0,0,0-.174.092.092,0,0,0-.173,0,.4.4,0,0,0,0,.174.092.092,0,0,0,.173,0Z"/><path d="M4.2,7.249c-.091,0-.127-.043-.127-.133V6.6a.009.009,0,0,1,.01-.01h.089a.009.009,0,0,1,.01.01V7.11c0,.032.013.042.041.042h.021a.009.009,0,0,1,.01.01v.077a.009.009,0,0,1-.01.01Z"/><path d="M4.608,7.243a.009.009,0,0,1-.01-.01V7.2h0a.152.152,0,0,1-.131.054.139.139,0,0,1-.156-.142c0-.1.071-.147.186-.147h.094L4.6,6.959V6.937c0-.053-.025-.077-.1-.077a.163.163,0,0,0-.106.032.009.009,0,0,1-.013,0l-.036-.064a.009.009,0,0,1,0-.012A.271.271,0,0,1,4.5,6.768c.142,0,.194.048.194.162v.3a.009.009,0,0,1-.01.01ZM4.6,7.087V7.051a.005.005,0,0,0-.006-.006H4.514c-.069,0-.1.019-.1.063s.028.058.08.058S4.6,7.14,4.6,7.087Z"/><path d="M5.11,7.243a.009.009,0,0,1-.01-.01V6.965c0-.06-.03-.1-.088-.1a.089.089,0,0,0-.089.1v.268a.009.009,0,0,1-.01.01H4.826a.009.009,0,0,1-.01-.01V6.788a.009.009,0,0,1,.01-.01h.089a.009.009,0,0,1,.01.01v.034h0a.143.143,0,0,1,.122-.054.159.159,0,0,1,.161.173v.293a.009.009,0,0,1-.01.01Z"/><path d="M5.619,7.243a.009.009,0,0,1-.01-.01V6.965c0-.06-.03-.1-.088-.1a.089.089,0,0,0-.089.1v.268a.009.009,0,0,1-.01.01H5.334a.009.009,0,0,1-.01-.01V6.788a.009.009,0,0,1,.01-.01h.089a.009.009,0,0,1,.01.01v.034h0a.143.143,0,0,1,.122-.054.159.159,0,0,1,.161.173v.293a.009.009,0,0,1-.01.01Z"/><path d="M5.843,6.691a.009.009,0,0,1-.01-.01V6.6a.009.009,0,0,1,.01-.01h.089a.009.009,0,0,1,.01.01v.084a.009.009,0,0,1-.01.01Zm0,.552a.009.009,0,0,1-.01-.01V6.788a.009.009,0,0,1,.01-.01h.089a.009.009,0,0,1,.01.01v.445a.009.009,0,0,1-.01.01Z"/><path d="M6.357,7.243a.009.009,0,0,1-.01-.01V6.965c0-.06-.03-.1-.088-.1a.089.089,0,0,0-.089.1v.268a.009.009,0,0,1-.01.01H6.072a.009.009,0,0,1-.01-.01V6.788a.009.009,0,0,1,.01-.01h.089a.009.009,0,0,1,.01.01v.034h0a.143.143,0,0,1,.122-.054.159.159,0,0,1,.161.173v.293a.009.009,0,0,1-.01.01Z"/><path d="M6.562,7.358a.009.009,0,0,1,0-.013l.057-.057a.009.009,0,0,1,.014,0,.143.143,0,0,0,.1.043c.071,0,.1-.039.1-.111V7.177h0a.134.134,0,0,1-.121.054.155.155,0,0,1-.158-.113A.353.353,0,0,1,6.545,7a.348.348,0,0,1,.015-.118.155.155,0,0,1,.158-.114.132.132,0,0,1,.121.055h0V6.788a.009.009,0,0,1,.01-.01h.089a.009.009,0,0,1,.01.01v.426a.2.2,0,0,1-.217.213A.23.23,0,0,1,6.562,7.358Zm.267-.282A.217.217,0,0,0,6.84,7a.224.224,0,0,0-.011-.076.087.087,0,0,0-.165,0A.224.224,0,0,0,6.654,7a.217.217,0,0,0,.011.076.087.087,0,0,0,.165,0Z"/><path d="M7.266,7.126a.462.462,0,0,1,0-.229.187.187,0,0,1,.192-.128.2.2,0,0,1,.161.072.009.009,0,0,1,0,.014l-.061.053a.009.009,0,0,1-.013,0,.105.105,0,0,0-.086-.04.085.085,0,0,0-.087.061.272.272,0,0,0-.01.086.279.279,0,0,0,.01.087.085.085,0,0,0,.087.06.105.105,0,0,0,.086-.04.009.009,0,0,1,.013,0l.061.053s0,.009,0,.013a.2.2,0,0,1-.161.071A.187.187,0,0,1,7.266,7.126Z"/><path d="M7.707,7.125a.361.361,0,0,1-.016-.114A.37.37,0,0,1,7.706,6.9a.206.206,0,0,1,.381,0,.417.417,0,0,1,.015.14.009.009,0,0,1-.011.01H7.8a.005.005,0,0,0-.006.006.108.108,0,0,0,.111.106.14.14,0,0,0,.109-.044.01.01,0,0,1,.014,0l.057.05a.009.009,0,0,1,0,.014.245.245,0,0,1-.191.079A.188.188,0,0,1,7.707,7.125Zm.281-.205a.1.1,0,0,0-.182,0,.118.118,0,0,0-.006.04l.006.006h.182l.006-.006A.118.118,0,0,0,7.987,6.919Z"/><path d="M8.492,7.243a.009.009,0,0,1-.01-.01V6.965c0-.06-.03-.1-.088-.1a.089.089,0,0,0-.089.1v.268a.009.009,0,0,1-.01.01H8.208a.009.009,0,0,1-.01-.01V6.788a.009.009,0,0,1,.01-.01H8.3a.009.009,0,0,1,.01.01v.034h0a.143.143,0,0,1,.122-.054.159.159,0,0,1,.161.173v.293a.009.009,0,0,1-.01.01Z"/><path d="M8.843,7.249c-.093,0-.129-.045-.129-.136V6.868l-.006-.006H8.677a.009.009,0,0,1-.01-.01V6.788a.009.009,0,0,1,.01-.01h.031l.006-.006V6.645a.009.009,0,0,1,.01-.01h.089a.009.009,0,0,1,.01.01v.127l.006.006h.062a.009.009,0,0,1,.01.01v.065a.009.009,0,0,1-.01.01H8.827l-.006.006v.241c0,.033.013.043.043.043h.024a.009.009,0,0,1,.01.01v.077a.009.009,0,0,1-.01.01Z"/><path d="M8.988,7.125a.36.36,0,0,1-.016-.114A.371.371,0,0,1,8.987,6.9a.206.206,0,0,1,.381,0,.418.418,0,0,1,.015.14.009.009,0,0,1-.011.01H9.087a.005.005,0,0,0-.006.006.108.108,0,0,0,.111.106A.14.14,0,0,0,9.3,7.113a.01.01,0,0,1,.014,0l.057.05a.009.009,0,0,1,0,.014.245.245,0,0,1-.191.079A.188.188,0,0,1,8.988,7.125Zm.281-.205a.1.1,0,0,0-.182,0,.118.118,0,0,0-.006.04l.006.006h.182l.006-.006A.118.118,0,0,0,9.269,6.919Z"/><path d="M9.489,7.243a.009.009,0,0,1-.01-.01V6.788a.009.009,0,0,1,.01-.01h.089a.009.009,0,0,1,.01.01v.04h0a.133.133,0,0,1,.12-.06.14.14,0,0,1,.1.039s.006.009,0,.014l-.051.065a.009.009,0,0,1-.013,0,.125.125,0,0,0-.068-.022c-.061,0-.088.043-.088.118v.252a.009.009,0,0,1-.01.01Z"/><path d="M4.44,9.326l-.316-.471H3.869v.471H3.545V7.853h.673c.347,0,.556.183.556.486v0a.457.457,0,0,1-.316.457l.36.526Zm.006-.97c0-.139-.1-.21-.255-.21H3.869v.423H4.2c.158,0,.248-.084.248-.208Z"/><path d="M5.913,8.874H5.128a.262.262,0,0,0,.276.221.369.369,0,0,0,.274-.116l.183.162a.6.6,0,0,1-1.05-.373v0a.562.562,0,0,1,.558-.587.549.549,0,0,1,.549.612v0C5.917,8.826,5.915,8.844,5.913,8.874Zm-.545-.44a.251.251,0,0,0-.244.24h.482A.242.242,0,0,0,5.368,8.434Z"/><path d="M6.542,9.667a1.071,1.071,0,0,1-.5-.118l.109-.24a.736.736,0,0,0,.381.1c.219,0,.322-.105.322-.307V9.051a.441.441,0,0,1-.368.183.5.5,0,0,1-.5-.526v0a.5.5,0,0,1,.5-.526.457.457,0,0,1,.364.168V8.2h.32v.873C7.171,9.5,6.961,9.667,6.542,9.667ZM6.855,8.7a.275.275,0,0,0-.549,0v0a.258.258,0,0,0,.274.261.261.261,0,0,0,.276-.261Z"/><path d="M7.354,8.074V7.79h.337v.284Zm.008,1.252V8.2h.32V9.326Z"/><path d="M8.265,9.347a.79.79,0,0,1-.484-.171l.137-.21a.638.638,0,0,0,.356.135c.093,0,.135-.034.135-.084v0c0-.069-.109-.093-.234-.13-.158-.046-.337-.12-.337-.339v0a.369.369,0,0,1,.412-.358.78.78,0,0,1,.421.13l-.122.221a.668.668,0,0,0-.305-.105c-.078,0-.118.034-.118.078v0c0,.063.107.093.229.135.158.053.341.128.341.335v0C8.7,9.234,8.509,9.347,8.265,9.347Z"/><path d="M9.193,9.345c-.2,0-.328-.078-.328-.339V8.472H8.73V8.2h.135V7.91h.32V8.2H9.45v.274H9.185v.482c0,.074.032.11.1.11a.326.326,0,0,0,.158-.04V9.28A.472.472,0,0,1,9.193,9.345Z"/><path d="M10.256,8.512c-.213,0-.343.128-.343.4v.417h-.32V8.2h.32v.227a.349.349,0,0,1,.36-.248v.335Z"/><path d="M10.988,9.326V9.2a.434.434,0,0,1-.341.143A.349.349,0,0,1,10.26,9V9c0-.246.187-.36.455-.36a.8.8,0,0,1,.276.046V8.666c0-.133-.082-.206-.242-.206a.832.832,0,0,0-.311.061l-.08-.244a1,1,0,0,1,.438-.091.439.439,0,0,1,.5.486v.654Zm.006-.455a.5.5,0,0,0-.2-.042c-.137,0-.221.055-.221.156v0c0,.086.072.137.175.137.149,0,.25-.082.25-.2Z"/><path d="M11.838,9.345c-.2,0-.328-.078-.328-.339V8.472h-.135V8.2h.135V7.91h.32V8.2H12.1v.274H11.83v.482c0,.074.032.11.1.11a.326.326,0,0,0,.158-.04V9.28A.472.472,0,0,1,11.838,9.345Z"/><path d="M12.234,8.074V7.79h.337v.284Zm.008,1.252V8.2h.32V9.326Z"/><path d="M13.252,9.352a.586.586,0,0,1-.608-.583v0a.611.611,0,0,1,1.221,0v0A.592.592,0,0,1,13.252,9.352Zm.3-.587a.3.3,0,0,0-.3-.311.289.289,0,0,0-.293.307v0a.3.3,0,0,0,.3.311.289.289,0,0,0,.293-.307Z"/><path d="M14.66,9.326V8.7c0-.151-.072-.229-.194-.229s-.2.078-.2.229v.629h-.32V8.2h.32v.16a.4.4,0,0,1,.33-.181.37.37,0,0,1,.383.419v.73Z"/><path d="M15.55,9.347a.79.79,0,0,1-.484-.171l.137-.21a.638.638,0,0,0,.356.135c.093,0,.135-.034.135-.084v0c0-.069-.109-.093-.234-.13-.158-.046-.337-.12-.337-.339v0a.369.369,0,0,1,.412-.358.78.78,0,0,1,.421.13l-.122.221a.668.668,0,0,0-.305-.105c-.078,0-.118.034-.118.078v0c0,.063.107.093.229.135.158.053.341.128.341.335v0C15.982,9.234,15.794,9.347,15.55,9.347Z"/><path class="cls-1" d="M2.426,6.545H.55A.55.55,0,0,0,0,7.1V8.883a.55.55,0,0,0,.55.55H2.426a.55.55,0,0,0,.55-.55V7.1A.55.55,0,0,0,2.426,6.545ZM2.7,8.883a.275.275,0,0,1-.275.275H.55a.275.275,0,0,1-.275-.275V7.1A.275.275,0,0,1,.55,6.82H.918v.136a.061.061,0,0,0,.061.061H1.995a.061.061,0,0,0,.061-.061V6.82h.369A.275.275,0,0,1,2.7,7.1Z"/><path class="cls-1" d="M1.461,7.587l-.643.7a.253.253,0,0,0-.05.107l-.045.332.326-.072a.248.248,0,0,0,.1-.059l.641-.705Zm.623-.016-.332-.3-.221.242.33.306ZM1.335,8.73h.917V8.56H1.471Z"/></g></svg>