<svg width="24" height="24" viewBox="0 0 24 24" fill="none" xmlns="http://www.w3.org/2000/svg">
<path fill-rule="evenodd" clip-rule="evenodd" d="M5 6V20H19V6H5ZM4 4C3.44772 4 3 4.44772 3 5V21C3 21.5523 3.44772 22 4 22H20C20.5523 22 21 21.5523 21 21V5C21 4.44772 20.5523 4 20 4H4Z" fill="black"/>
<path fill-rule="evenodd" clip-rule="evenodd" d="M7 2C7.55228 2 8 2.44772 8 3V4C8 4.55228 7.55228 5 7 5C6.44772 5 6 4.55228 6 4V3C6 2.44772 6.44772 2 7 2Z" fill="black"/>
<path fill-rule="evenodd" clip-rule="evenodd" d="M17 2C17.5523 2 18 2.44772 18 3V4C18 4.55228 17.5523 5 17 5C16.4477 5 16 4.55228 16 4V3C16 2.44772 16.4477 2 17 2Z" fill="black"/>
<path fill-rule="evenodd" clip-rule="evenodd" d="M14.7071 10.2929C15.0976 10.6834 15.0976 11.3166 14.7071 11.7071L13.4142 13L14.7071 14.2929C15.0976 14.6834 15.0976 15.3166 14.7071 15.7071C14.3166 16.0976 13.6834 16.0976 13.2929 15.7071L12 14.4142L10.7071 15.7071C10.3166 16.0976 9.68342 16.0976 9.2929 15.7071C8.90238 15.3166 8.90237 14.6834 9.2929 14.2929L10.5858 13L9.29289 11.7071C8.90237 11.3166 8.90237 10.6834 9.29289 10.2929C9.68342 9.90237 10.3166 9.90237 10.7071 10.2929L12 11.5858L13.2929 10.2929C13.6834 9.90237 14.3166 9.90237 14.7071 10.2929Z" fill="black"/>
</svg>
