<svg xmlns="http://www.w3.org/2000/svg" viewBox="0 0 16 16" aria-labelledby="title-cc" role="img" class="symbol symbol-cc"><title id="title-cc">cc icon</title><g data-name="Layer 1"><path d="M5.177 10.18h2.049v1.165H5.177zm-2.678 0h2.049v1.165H2.499zm9.509-1.892A1.517 1.517 0 0 0 11 8.674a1.529 1.529 0 1 0 0 2.285 1.512 1.512 0 0 0 1.006.386 1.529 1.529 0 0 0 0-3.057z" role="presentation"/><path d="M15.388 1.741H.623a.607.607 0 0 0-.536.332.519.519 0 0 0-.076.262v10.8a.574.574 0 0 0 .045.221v.016a.61.61 0 0 0 .561.37h14.771a.612.612 0 0 0 .612-.605V2.353a.612.612 0 0 0-.612-.612zm-.738 3.632H1.361V3.091H14.65zM1.361 12.4V6.867H14.65V12.4z" role="presentation"/></g></svg>