<svg xmlns="http://www.w3.org/2000/svg" viewBox="0 0 16 16" class="symbol symbol-contact-outline" aria-labelledby="title" role="img"><title id="title">contact-outline icon</title><g data-name="Layer 1"><path d="M13.213 6.183H8.482V5.065h4.731zM3.193 5.065h4.213v4.213H3.193z" role="presentation"/><path d="M13.388 2H2.434A2.437 2.437 0 0 0 0 4.436v7.3a2.437 2.437 0 0 0 2.434 2.434h1.217a.608.608 0 0 0 .609-.609v-.609h.609v.609a.608.608 0 0 0 .609.609h4.868a.608.608 0 0 0 .609-.609v-.609h.609v.609a.608.608 0 0 0 .609.609h1.217a2.437 2.437 0 0 0 2.434-2.434v-7.3A2.437 2.437 0 0 0 13.388 2zm1.217 9.737a1.218 1.218 0 0 1-1.217 1.217h-.608v-.609a.608.608 0 0 0-.609-.609h-1.825a.608.608 0 0 0-.609.609v.609H6.086v-.609a.608.608 0 0 0-.609-.609H3.651a.608.608 0 0 0-.609.609v.609h-.608a1.218 1.218 0 0 1-1.217-1.217v-7.3a1.218 1.218 0 0 1 1.217-1.218h10.954a1.218 1.218 0 0 1 1.217 1.217z" role="presentation"/><path d="M8.482 7.326h3.248v1.118H8.482z" role="presentation"/></g></svg>