<svg xmlns="http://www.w3.org/2000/svg" viewBox="0 0 16 16" class="symbol symbol-file-video" aria-labelledby="title" role="img"><title id="title">file-video icon</title><g data-name="Layer 1"><path class="cls-1" d="M9.845 0H2.35a.8.8 0 0 0-.8.8v14.4a.8.8 0 0 0 .8.8h11.3a.8.8 0 0 0 .8-.8V4.15zm2.564 4.155l-2.453.007a.118.118 0 0 1-.118-.118V1.85zm.7 10.5H2.9V1.35h5.6v2.691a1.468 1.468 0 0 0 1.46 1.471L13.1 5.5z" role="presentation"/><path class="cls-1" d="M7.778 13.147a3.483 3.483 0 1 1 3.482-3.483 3.492 3.492 0 0 1-3.482 3.483zm0-6.179a2.7 2.7 0 1 0 2.7 2.7 2.688 2.688 0 0 0-2.7-2.701z" role="presentation"/><path class="cls-1" d="M9.267 9.431L7.055 7.906a.284.284 0 0 0-.445.234v3.047a.284.284 0 0 0 .445.234L9.267 9.9a.284.284 0 0 0 0-.469zm-2.007 1.06V8.837l1.2.827z" role="presentation"/></g></svg>