<svg xmlns="http://www.w3.org/2000/svg" viewBox="0 0 16 16" aria-labelledby="title" role="img" class="symbol symbol-file-song"><title id="title">file-song icon</title><g data-name="Layer 1"><path class="cls-1" d="M9.891 0H2.4a.8.8 0 0 0-.8.8v14.4a.8.8 0 0 0 .8.8h11.3a.8.8 0 0 0 .8-.8V4.149zm2.564 4.155L10 4.162a.118.118 0 0 1-.118-.118V1.85zm.7 10.5H2.942V1.35h5.6v2.691a1.468 1.468 0 0 0 1.472 1.471L13.15 5.5z" role="presentation"/><path class="cls-1" d="M10.617 7.212a.646.646 0 0 0-.644-.645l-2.954.723a.644.644 0 0 0-.488.625v2.653a1.283 1.283 0 0 0-.451-.091 1.3 1.3 0 1 0 1.3 1.3 1.223 1.223 0 0 0-.033-.162c.01.01.023.024.033.032V8.3l2.388-.6v2.057a1.285 1.285 0 0 0-.459-.093 1.3 1.3 0 1 0 1.3 1.3h.008zm-4.538 5.116a.551.551 0 1 1 .551-.551.551.551 0 0 1-.551.551zm3.229-.812a.551.551 0 1 1 .551-.551.551.551 0 0 1-.55.551z" role="presentation"/></g></svg>