<svg xmlns="http://www.w3.org/2000/svg" viewBox="0 0 16 16" aria-labelledby="title" role="img" class="symbol symbol-file-video"><title id="title">file-video icon</title><g id="Layer_1" data-name="Layer 1"><path d="M9.84,0H2.35a.8.8,0,0,0-.8.8V15.2a.8.8,0,0,0,.8.8h11.3a.8.8,0,0,0,.8-.8v-11Zm2.56,4.16H10A.12.12,0,0,1,9.84,4V1.85Zm.7,10.5H2.9V1.35h5.6V4A1.47,1.47,0,0,0,10,5.51H13.1Z" style="fill:#020202" role="presentation"/><path d="M7.78,13.15a3.48,3.48,0,1,1,3.48-3.48A3.49,3.49,0,0,1,7.78,13.15ZM7.78,7a2.7,2.7,0,1,0,2.7,2.7A2.69,2.69,0,0,0,7.78,7Z" style="fill:#020202" role="presentation"/><path d="M9.27,9.43,7.05,7.91a.28.28,0,0,0-.44.23v3a.28.28,0,0,0,.44.23L9.27,9.9A.28.28,0,0,0,9.27,9.43Zm-2,1.06V8.84l1.2.83Z" style="fill:#020202" role="presentation"/></g></svg>