<svg xmlns="http://www.w3.org/2000/svg" viewBox="0 0 16 16" aria-labelledby="title-form-download copy" role="img" class="symbol symbol-form-download copy"><title id="title-form-download copy">form-download copy icon</title><g data-name="Layer 1"><path d="M8.558 10.329a.28.28 0 0 0 .276-.275l.119-3.681a.284.284 0 0 0-.277-.273h-1.31a.264.264 0 0 0-.2.082.281.281 0 0 0-.074.193l.095 3.681a.271.271 0 0 0 .082.193.266.266 0 0 0 .194.082zm.342 1.034a.312.312 0 0 0-.07-.21.248.248 0 0 0-.2-.082H7.414a.268.268 0 0 0-.193.079.276.276 0 0 0-.084.213v1.16a.251.251 0 0 0 .084.2.277.277 0 0 0 .193.075h1.215a.235.235 0 0 0 .267-.276z" role="presentation"/><path d="M15.9 13.464a2 2 0 0 0-.191-.4L9.4 2.16a2.392 2.392 0 0 0-.456-.56 1.413 1.413 0 0 0-1.863 0 2.47 2.47 0 0 0-.453.56L.366 13.019a1.811 1.811 0 0 0-.231.471 1.769 1.769 0 0 0-.079.526A1.3 1.3 0 0 0 .72 15.2a2.029 2.029 0 0 0 1 .264h12.6a2.027 2.027 0 0 0 1-.265 1.3 1.3 0 0 0 .663-1.182 1.631 1.631 0 0 0-.083-.553zM8.305 2.8l6.316 10.92a.852.852 0 0 1 .081.169.394.394 0 0 1 0 .212.756.756 0 0 1-.382.1H1.723a.505.505 0 0 1-.4-.182.5.5 0 0 1 .021-.147.667.667 0 0 1 .09-.173L7.721 2.8a1.124 1.124 0 0 1 .213-.263.1.1 0 0 1 .079-.027l.075.024a1.2 1.2 0 0 1 .217.266z" role="presentation"/></g></svg>