<svg xmlns="http://www.w3.org/2000/svg" viewBox="0 0 16 16" class="symbol symbol-info-outline" aria-labelledby="title" role="img"><title id="title">info-outline icon</title><g data-name="Layer 1"><path d="M6.074 6.272h2.272a.654.654 0 0 1 .649.735l-.757 3.95a.527.527 0 0 0 .692.565l.6-.242a.223.223 0 0 1 .139.389 2.735 2.735 0 0 1-2.176.854c-1.855-.078-1.393-1.835-1.325-2.257s.451-2.512.471-2.689.206-.51-.314-.648-.687-.245-.687-.363.103-.294.436-.294z" role="presentation"/><circle cx="8.209" cy="4.543" r="1.261"/><path d="M8 1.249A6.751 6.751 0 1 1 1.249 8 6.759 6.759 0 0 1 8 1.249m0-1.13A7.881 7.881 0 1 0 15.881 8 7.881 7.881 0 0 0 8 .119z" role="presentation"/></g></svg>