<svg xmlns="http://www.w3.org/2000/svg" viewBox="0 0 16 16" aria-labelledby="title-text-give-o" role="img" class="symbol symbol-text-give-o"><title id="title-text-give-o">text-give-o icon</title><g data-name="Layer 1"><path d="M15.023 11.916a.146.146 0 0 1-.146.146H6.24l-.252.168-2.834 1.887-.01-1.063-.009-.992-1.995.022a.146.146 0 0 1-.148-.146L.969 1.364a.147.147 0 0 1 .147-.147h13.738a.146.146 0 0 1 .146.146zm0-11.7H.969a.978.978 0 0 0-.977.977v10.893a.977.977 0 0 0 .977.976h1.175l.021 2.34a.31.31 0 0 0 .481.255l3.9-2.6h8.481a.976.976 0 0 0 .973-.971V1.194a.977.977 0 0 0-.977-.977z" role="presentation"/><path d="M5.413 5.519c-.354-.295-.812-.081-1.135.249l-.187.218-.191-.218c-.324-.33-.779-.544-1.133-.249A.9.9 0 0 0 2.7 6.84l.155.16 1.138 1.16a.137.137 0 0 0 .2 0L5.48 6.84a.9.9 0 0 0-.067-1.321zm7.768 0c-.354-.295-.812-.081-1.136.249l-.186.218-.19-.218c-.323-.33-.778-.544-1.132-.249a.9.9 0 0 0-.067 1.321l.152.16 1.139 1.16a.137.137 0 0 0 .2 0l1.287-1.32a.9.9 0 0 0-.067-1.321zm-3.881 0c-.354-.295-.812-.081-1.136.249l-.186.218-.189-.218c-.324-.33-.779-.544-1.133-.249a.9.9 0 0 0-.07 1.321l.152.16 1.139 1.16a.137.137 0 0 0 .2 0l1.287-1.32A.9.9 0 0 0 9.3 5.519z" role="presentation"/></g></svg>