<svg xmlns="http://www.w3.org/2000/svg" viewBox="0 0 16 16"><title>calendar-outline</title><g id="Layer_1" data-name="Layer 1"><path d="M14.758,6.038V2.612a.872.872,0,0,0-.852-.891H12.683v-.8a.853.853,0,1,0-1.7,0v.8H4.809v-.8A.872.872,0,0,0,3.957.031a.872.872,0,0,0-.852.891v.8H1.981a.872.872,0,0,0-.852.891V15.086a.872.872,0,0,0,.852.891H13.906a.872.872,0,0,0,.852-.891V6.313a.874.874,0,0,0,.026-.137A.874.874,0,0,0,14.758,6.038Zm-1.7,8.157H2.833V7.067H13.054Zm0-8.91H2.833V3.5H13.054Zm-8.246,4.9A.886.886,0,1,0,3.962,9.3.867.867,0,0,0,4.809,10.186Zm3.162,0A.886.886,0,1,0,7.124,9.3.867.867,0,0,0,7.97,10.186Zm3.162,0a.886.886,0,1,0-.846-.885A.867.867,0,0,0,11.132,10.186ZM4.809,12.859a.886.886,0,1,0-.847-.885A.867.867,0,0,0,4.809,12.859Zm3.162,0a.886.886,0,1,0-.846-.885A.867.867,0,0,0,7.97,12.859Zm3.162,0a.886.886,0,1,0-.846-.885A.867.867,0,0,0,11.132,12.859Z"/></g></svg>