<svg xmlns="http://www.w3.org/2000/svg" viewBox="0 0 16 16"><title>cc</title><g id="Layer_1" data-name="Layer 1"><rect x="5.177" y="10.18" width="2.049" height="1.165"/><rect x="2.499" y="10.18" width="2.049" height="1.165"/><path d="M12.008,8.288A1.516,1.516,0,0,0,11,8.674a1.529,1.529,0,1,0,0,2.285,1.526,1.526,0,1,0,1.006-2.671Z"/><path d="M15.388,1.741H.623a.606.606,0,0,0-.535.332.522.522,0,0,0-.076.262v10.8h0a.578.578,0,0,0,.045.221l0,.016,0,0a.611.611,0,0,0,.561.37H15.388A.612.612,0,0,0,16,13.137V2.353A.612.612,0,0,0,15.388,1.741ZM14.65,5.373H1.361V3.091H14.65ZM1.361,12.4V6.867H14.65V12.4Z"/></g></svg>