<svg id="Layer_1" data-name="Layer 1" xmlns="http://www.w3.org/2000/svg" viewBox="0 0 32 32"><defs><style>.cls-1{fill:#333132;fill-rule:evenodd;}</style></defs><title>check-ins-app</title><path class="cls-1" d="M19.846,11.606,14.352,17.1l-2.2-2.2a1.554,1.554,0,1,0-2.2,2.2l3.3,3.3a1.554,1.554,0,0,0,2.2,0L22.043,13.8a1.554,1.554,0,0,0-2.2-2.2Z"/><path class="cls-1" d="M26.973,2H5.027A3.027,3.027,0,0,0,2,5.027V26.973A3.027,3.027,0,0,0,5.027,30H26.973A3.027,3.027,0,0,0,30,26.973V5.027A3.027,3.027,0,0,0,26.973,2Zm0,24.216a.757.757,0,0,1-.757.757H5.784a.757.757,0,0,1-.757-.757V5.784a.757.757,0,0,1,.757-.757h4.541V6.544a.753.753,0,0,0,.753.753h9.845a.753.753,0,0,0,.753-.753V5.027h4.541a.757.757,0,0,1,.757.757Z"/></svg>