<svg xmlns="http://www.w3.org/2000/svg" viewBox="0 0 16 16"><title>contact-outline</title><g id="42feb370-a166-4a19-a779-fa98cfde8b73" data-name="Layer 1"><path d="M13.213,6.183H8.482V5.065h4.731Z"/><rect x="3.193" y="5.065" width="4.213" height="4.213"/><path d="M13.388,2H2.434A2.436,2.436,0,0,0,0,4.436v7.3a2.437,2.437,0,0,0,2.434,2.434H3.651a.609.609,0,0,0,.609-.609v-.608h.608v.608a.609.609,0,0,0,.609.609h4.869a.608.608,0,0,0,.608-.609v-.608h.609v.608a.608.608,0,0,0,.608.609h1.217a2.437,2.437,0,0,0,2.435-2.434v-7.3A2.436,2.436,0,0,0,13.388,2Zm1.217,9.737a1.218,1.218,0,0,1-1.217,1.217H12.78v-.609a.608.608,0,0,0-.609-.608H10.346a.608.608,0,0,0-.609.608v.609H6.086v-.609a.609.609,0,0,0-.609-.608H3.651a.608.608,0,0,0-.608.608v.609H2.434a1.218,1.218,0,0,1-1.217-1.217v-7.3A1.218,1.218,0,0,1,2.434,3.219H13.388a1.218,1.218,0,0,1,1.217,1.217Z"/><rect x="8.482" y="7.326" width="3.248" height="1.118"/></g></svg>