<svg xmlns="http://www.w3.org/2000/svg" viewBox="0 0 16 16"><defs><style>.cls-1{fill:#231f20;}</style></defs><title>envelope-open-o</title><g id="Layer_1" data-name="Layer 1"><path class="cls-1" d="M15.955,7.516v0l0-.017a.494.494,0,0,0-.029-.173,1,1,0,0,0-.166-.4h0l-.014-.014a1,1,0,0,0-.178-.179L9.072.45a1.531,1.531,0,0,0-2.114,0L.463,6.681a1.345,1.345,0,0,0-.45.83v7.465a1,1,0,0,0,1,1H14.959a1,1,0,0,0,1-1V7.529S15.955,7.521,15.955,7.516ZM4.215,11.337l-3.2,2.951V8.509ZM5.3,11.69c.011-.011.026-.015.036-.027l.008-.015,2.2-2.03a.611.611,0,0,1,.387-.139A.645.645,0,0,1,8.32,9.6l5.972,5.372H1.732Zm6.505-.287,3.152-2.8v5.633ZM1.63,6.923,7.663,1.154a.5.5,0,0,1,.7,0l5.626,5.361h-.015l.854.869-3.772,3.348L8.956,8.838a1.639,1.639,0,0,0-2.05.021l-1.954,1.8L1.187,7.337l.42-.414Z"/></g></svg>