<svg xmlns="http://www.w3.org/2000/svg" viewBox="0 0 16 16"><defs><style>.cls-1{fill:#020202;}</style></defs><title>file-song</title><g id="Layer_1" data-name="Layer 1"><path class="cls-1" d="M9.891,0H2.4a.8.8,0,0,0-.8.8V15.2a.8.8,0,0,0,.8.8H13.7a.8.8,0,0,0,.8-.8V4.149Zm2.564,4.155L10,4.162h0a.118.118,0,0,1-.118-.118l0-2.194Zm.7,10.5H2.942V1.35h5.6l0,2.691a1.468,1.468,0,0,0,1.472,1.471L13.15,5.5Z"/><path class="cls-1" d="M10.617,7.212a.646.646,0,0,0-.644-.645l-2.954.723a.644.644,0,0,0-.488.625v2.653a1.283,1.283,0,0,0-.451-.091,1.3,1.3,0,1,0,1.3,1.3,1.223,1.223,0,0,0-.033-.162c.01.01.023.024.033.032V8.3L9.768,7.7V9.757a1.285,1.285,0,0,0-.459-.093,1.3,1.3,0,1,0,1.3,1.3l.008,0ZM6.079,12.328a.551.551,0,1,1,.551-.551A.551.551,0,0,1,6.079,12.328Zm3.229-.812a.551.551,0,1,1,.551-.551A.551.551,0,0,1,9.309,11.516Z"/></g></svg>