<svg xmlns="http://www.w3.org/2000/svg" viewBox="0 0 16 16"><defs><style>.cls-1{fill-rule:evenodd;}</style></defs><title>groups</title><g id="Layer_1" data-name="Layer 1"><path class="cls-1" d="M13.179,9.137V6.824a3.332,3.332,0,1,0-3.942-3.91H6.763A3.331,3.331,0,1,0,2.945,6.838V9.154A3.326,3.326,0,1,0,6.769,13H9.232a3.329,3.329,0,1,0,3.947-3.863Zm-.712-7.568A1.962,1.962,0,1,1,10.5,3.531,1.961,1.961,0,0,1,12.466,1.569ZM1.5,3.531A1.962,1.962,0,1,1,3.466,5.493,1.962,1.962,0,0,1,1.5,3.531ZM3.466,14.365A1.964,1.964,0,1,1,5.431,12.4,1.964,1.964,0,0,1,3.466,14.365Zm5.768-2.6H6.754a3.331,3.331,0,0,0-2.576-2.6V6.822a3.335,3.335,0,0,0,2.6-2.675H9.225a3.33,3.33,0,0,0,2.721,2.689V9.125A3.33,3.33,0,0,0,9.235,11.767Zm3.232,2.6A1.964,1.964,0,1,1,14.431,12.4,1.964,1.964,0,0,1,12.466,14.365Z"/></g></svg>