<svg xmlns="http://www.w3.org/2000/svg" viewBox="0 0 16 16"><title>group-contact</title><g id="8b24aa9b-d748-4e4a-9358-6f1a8e83959a" data-name="Layer 1"><path d="M3.5,9.073a.718.718,0,0,0-.67-.76H.676a.769.769,0,0,0,0,1.527H2.829A.723.723,0,0,0,3.5,9.073ZM14.529,0H3.338A1.455,1.455,0,0,0,1.866,1.435V2.558h.963A1.665,1.665,0,0,1,4.438,4.271,1.666,1.666,0,0,1,2.829,5.985H1.866V7.36h.963A1.665,1.665,0,0,1,4.438,9.073a1.81,1.81,0,0,1-.269.959,1.6,1.6,0,0,1-1.34.754H1.866v1.22a1.45,1.45,0,0,0,1.472,1.429h11.19A1.454,1.454,0,0,0,16,12.006V10.612h0V1.435A1.458,1.458,0,0,0,14.529,0ZM9.557,7.824a.836.836,0,0,1-.077-.072h0a.73.73,0,0,0,.078.072ZM14.9,9.58a2.43,2.43,0,0,0-.909-.428c-1.9-.526-2.823-.736-2.985-1.383a4.572,4.572,0,0,0,1.478-3.154A2.621,2.621,0,0,0,10.042,1.9,2.589,2.589,0,0,0,7.536,4.531,4.809,4.809,0,0,0,8.918,7.752.409.409,0,0,0,9,7.824H8.9c-.21.6-1.13.821-2.973,1.328-.012,0-.017.006-.023.006V2.715A1.455,1.455,0,0,1,7.315,1.224H14.05c.783,0,.849.67.849,1.491ZM.675,5.032H2.829a.718.718,0,0,0,.67-.76.723.723,0,0,0-.67-.767H.675A.728.728,0,0,0,0,4.272.722.722,0,0,0,.675,5.032Z"/></g></svg>