<svg xmlns="http://www.w3.org/2000/svg" viewBox="0 0 16 16"><defs><style>.cls-1{fill:#010101;}</style></defs><title>location-o</title><g id="Layer_1" data-name="Layer 1"><path class="cls-1" d="M8,4.75A3.25,3.25,0,1,0,11.25,8,3.253,3.253,0,0,0,8,4.75ZM8,6.438A1.562,1.562,0,1,1,6.438,8,1.564,1.564,0,0,1,8,6.438Z"/><path class="cls-1" d="M14.9,7.25h-.7A6.254,6.254,0,0,0,8.752,1.8V1.1a.75.75,0,0,0-1.5,0v.7A6.254,6.254,0,0,0,1.8,7.25H1.1a.75.75,0,0,0,0,1.5h.7A6.254,6.254,0,0,0,7.252,14.2v.6a.75.75,0,0,0,1.5,0v-.6A6.254,6.254,0,0,0,14.2,8.75h.7a.75.75,0,0,0,0-1.5ZM8,12.656A4.656,4.656,0,1,1,12.656,8,4.662,4.662,0,0,1,8,12.656Z"/></g></svg>