<svg xmlns="http://www.w3.org/2000/svg" viewBox="0 0 16 16"><title>logout-o</title><g id="7c949823-57de-4795-8b43-72232ccf66af" data-name="Layer 1"><polygon points="12.629 4.463 11.947 5.157 14.09 7.262 6.408 7.262 6.408 8.233 14.194 8.233 11.977 10.471 12.668 11.156 16.008 7.783 12.629 4.463"/><path d="M9.922,12.409l-.078.07-.046.035c-.05.036-.11.078-.177.123a6.081,6.081,0,0,1-.676.382,5.154,5.154,0,0,1-2.257.555A5.63,5.63,0,0,1,1,7.877,5.453,5.453,0,0,1,2.948,3.513a6.062,6.062,0,0,1,3.74-1.36A5.063,5.063,0,0,1,8.9,2.724a6.9,6.9,0,0,1,.7.4c.073.047.136.09.19.129a.648.648,0,0,1,.057.042l.08.061.595-.768-.08-.062c-.059-.045-.165-.121-.311-.217h0a7.881,7.881,0,0,0-.806-.456A6.029,6.029,0,0,0,6.688,1.18,7.056,7.056,0,0,0,2.33,2.764a6.392,6.392,0,0,0-2.3,5.113,6.59,6.59,0,0,0,6.654,6.668,6.116,6.116,0,0,0,2.682-.652,7.111,7.111,0,0,0,.786-.445c.121-.081.232-.16.3-.216l.078-.063-.546-.679Z"/></g></svg>