<svg xmlns="http://www.w3.org/2000/svg" viewBox="0 0 16 16"><defs><style>.cls-1{fill:#231f20;}</style></defs><title>pencil</title><g id="Layer_1" data-name="Layer 1"><path class="cls-1" d="M15.362,3.453,12.575.677a1.544,1.544,0,0,0-2.125,0L.981,10.108A1.717,1.717,0,0,0,.464,11.3L.2,14.588a1.074,1.074,0,0,0,1.073,1.159l.078,0,3.3-.238A1.789,1.789,0,0,0,5.9,14.989l9.458-9.421a1.49,1.49,0,0,0,0-2.116ZM2.584,10.486l5.79-5.768L11.3,7.635,5.512,13.4Zm-.749,1.23,2.427,2.418-2.634.19ZM14.37,4.581,12.295,6.647,9.366,3.731l2.075-2.067a.1.1,0,0,1,.071-.025.1.1,0,0,1,.07.025L14.37,4.44Z"/></g></svg>