<svg xmlns="http://www.w3.org/2000/svg" viewBox="0 0 16 16"><title>pencil</title><g id="15af8115-50d3-40be-bd32-5a9da519b3cd" data-name="Layer 1"><path d="M15.362,3.453,12.575.677a1.543,1.543,0,0,0-2.125,0L.981,10.108A1.715,1.715,0,0,0,.464,11.3L.2,14.588a1.073,1.073,0,0,0,1.072,1.159q.041,0,.078,0l3.3-.238A1.787,1.787,0,0,0,5.9,14.989l9.458-9.42a1.488,1.488,0,0,0,0-2.116ZM2.584,10.486l5.79-5.767L11.3,7.635,5.512,13.4Zm-.749,1.23,2.427,2.418-2.634.19ZM14.37,4.581,12.3,6.647,9.366,3.731l2.075-2.067a.1.1,0,0,1,.071-.025.1.1,0,0,1,.07.025L14.37,4.44Z"/></g></svg>