<svg xmlns="http://www.w3.org/2000/svg" viewBox="0 0 16 16"><defs><style>.cls-1{fill:#010101;}</style></defs><title>person-check-o</title><g id="Layer_1" data-name="Layer 1"><path class="cls-1" d="M11.749,14.605l-.519-.446L9.859,12.788a.657.657,0,0,1,.93-.93l.924.924,2.447-2.447a.657.657,0,0,1,.93.93Z"/><path class="cls-1" d="M6.714,7.936a3.914,3.914,0,1,1,3.914-3.914A3.918,3.918,0,0,1,6.714,7.936Zm0-6.512a2.6,2.6,0,1,0,2.6,2.6A2.6,2.6,0,0,0,6.714,1.424Z"/><path class="cls-1" d="M8.634,15.891H2.88A2.065,2.065,0,0,1,.818,13.829V10.657A2.485,2.485,0,0,1,2.412,8.346l4.3-1.633L11.152,8.4a.657.657,0,1,1-.466,1.229L6.714,8.119,2.879,9.575a1.165,1.165,0,0,0-.747,1.082v3.172a.749.749,0,0,0,.748.747H8.634a.657.657,0,1,1,0,1.315Z"/></g></svg>