<svg xmlns="http://www.w3.org/2000/svg" viewBox="0 0 16 16"><title>person-outline</title><g id="Layer_1" data-name="Layer 1"><path d="M11.65,15.837h-7a2.674,2.674,0,0,1-2.625-2.715v-.905a.908.908,0,0,1,.489-.812l2.744-1.4-.5-.987a.93.93,0,0,1-.1-.423V4.978a3.566,3.566,0,0,1,3.5-3.62,3.566,3.566,0,0,1,3.5,3.62V8.6a.93.93,0,0,1-.1.423l-.505.987,2.744,1.4a.908.908,0,0,1,.488.812v.905A2.674,2.674,0,0,1,11.65,15.837ZM3.773,12.78v.342a.892.892,0,0,0,.875.905h7a.892.892,0,0,0,.875-.905V12.78L9.461,11.218a.9.9,0,0,1-.446-.533.931.931,0,0,1,.059-.7L9.9,8.371V4.978a1.751,1.751,0,1,0-3.5,0V8.371l.825,1.612a.932.932,0,0,1,.059.7.9.9,0,0,1-.446.533Z"/></g></svg>