<svg xmlns="http://www.w3.org/2000/svg" viewBox="0 0 16 16"><title>scholarship</title><g id="Layer_1" data-name="Layer 1"><path d="M11.94,9.465a5.55,5.55,0,1,0-7.994.007L1.979,14.048l2.609.019,1.827,1.883,1.528-3.592,1.528,3.592L11.3,14.067l2.609-.019Zm-4-7.868A4.017,4.017,0,1,1,3.936,5.6,4.029,4.029,0,0,1,7.944,1.6ZM5.893,13.21l-.652-.671-.932-.019L5.2,10.451a5.5,5.5,0,0,0,1.611.612Zm4.753-.671-.652.671-.92-2.148a5.492,5.492,0,0,0,1.614-.617l.891,2.075Z"/><path d="M7.944,8.02a2.406,2.406,0,1,0-2.4-2.411A2.4,2.4,0,0,0,7.944,8.02Z"/></g></svg>