<svg xmlns="http://www.w3.org/2000/svg" viewBox="0 0 16 16"><defs><style>.cls-1{fill:#231f20;}</style></defs><title>ticket</title><g id="Layer_1" data-name="Layer 1"><path class="cls-1" d="M13.983,4.7l-.222.045a2.131,2.131,0,0,1-2.519-2.519L11.287,2l-2-2-9.3,9.3,2,2,.222-.045a2.132,2.132,0,0,1,2.52,2.52L4.686,14l2,2,9.3-9.3Zm-3.54,6.353L6.69,14.807,5.6,13.714a2.974,2.974,0,0,0-3.323-3.322L1.179,9.3,4.933,5.543l.67.67.6-.6-.67-.67L9.284,1.193l1.094,1.094A2.973,2.973,0,0,0,13.7,5.609L14.794,6.7,11.04,10.457l-.67-.67-.6.6ZM7.2,7.814l.968.968.6-.6L7.8,7.218Z"/></g></svg>