<svg xmlns="http://www.w3.org/2000/svg" viewBox="0 0 16 16"><title>birthday</title><g id="Layer_1" data-name="Layer 1"><path d="M9,2.314a1.129,1.129,0,1,1-2.258,0A2.747,2.747,0,0,1,7.989.068a2.957,2.957,0,0,0,.273.957C8.475,1.4,9,1.617,9,2.314Z"/><path d="M5,2.314a1.129,1.129,0,1,1-2.258,0A2.747,2.747,0,0,1,3.989.068a2.957,2.957,0,0,0,.273.957C4.475,1.4,5,1.617,5,2.314Z"/><path d="M13,2.314a1.129,1.129,0,1,1-2.258,0A2.747,2.747,0,0,1,11.989.068a2.957,2.957,0,0,0,.273.957C12.475,1.4,13,1.617,13,2.314Z"/><path d="M15.285,8.758H12.428V4.1a.782.782,0,0,0-1.11,0V8.758H8.428V4.1a.659.659,0,0,0-.555-.231.659.659,0,0,0-.555.231V8.758H4.428V4.1a.659.659,0,0,0-.555-.231.659.659,0,0,0-.555.231V8.758H.715a.5.5,0,0,0-.5.5v1.865a2.888,2.888,0,0,0,2.063.722c1.386,0,2.352-.691,2.352-1.312h1c0,.621.966,1.313,2.351,1.313s2.351-.691,2.351-1.312h1c0,.621.966,1.313,2.352,1.313a2.832,2.832,0,0,0,2.1-.766V9.258A.5.5,0,0,0,15.285,8.758Z"/><path d="M10.83,11.751A3.811,3.811,0,0,1,7.98,12.845a3.811,3.811,0,0,1-2.851-1.094,3.813,3.813,0,0,1-2.851,1.094,4.375,4.375,0,0,1-2.063-.49v3.077a.5.5,0,0,0,.5.5H15.285a.5.5,0,0,0,.5-.5v-3.1a4.349,4.349,0,0,1-2.1.513A3.813,3.813,0,0,1,10.83,11.751Z"/></g></svg>