<svg xmlns="http://www.w3.org/2000/svg" viewBox="0 0 16 16"><defs><style>.cls-1,.cls-2{fill:#231f20;}.cls-1{fill-rule:evenodd;}</style></defs><title>checkin</title><g id="Layer_1" data-name="Layer 1"><path class="cls-1" d="M7.22,14.422h5.166a.216.216,0,0,0,.216-.215V1.793a.216.216,0,0,0-.216-.215H7.312L6.312,0h6.694a1.173,1.173,0,0,1,1.174,1.173V14.827A1.173,1.173,0,0,1,13.006,16H6.312Z"/><path class="cls-2" d="M9.979,5.929a.681.681,0,0,0-.963.963l.427.427H7.081a.681.681,0,0,0,0,1.362H9.442l-.427.427a.681.681,0,1,0,.963.963l1.54-1.54a.751.751,0,0,0,0-1.063Z"/><path class="cls-2" d="M4.75,7.539l0,0a2.577,2.577,0,1,0-3.267-.009A3.11,3.11,0,0,0,0,10.177v1.635a1.235,1.235,0,0,0,1.275,1.226H4.944a1.235,1.235,0,0,0,1.275-1.226V10.177A3.108,3.108,0,0,0,4.75,7.539ZM3.124,4.1A1.443,1.443,0,1,1,1.681,5.54,1.444,1.444,0,0,1,3.124,4.1ZM3.11,11.953H1.275a.14.14,0,0,1-.14-.14V10.177a1.975,1.975,0,0,1,3.949,0v1.635a.14.14,0,0,1-.14.14H3.11Z"/></g></svg>