<svg xmlns="http://www.w3.org/2000/svg" viewBox="0 0 16 16"><defs><style>.cls-1,.cls-2{fill:#231f20;}.cls-1{fill-rule:evenodd;}</style></defs><title>checkins-logo</title><g id="Layer_1" data-name="Layer 1"><path class="cls-1" d="M1.878,8.6a.206.206,0,0,1-.291,0l-.437-.437a.206.206,0,0,1,.291-.291l.291.291.728-.728a.206.206,0,0,1,.291.291Z"/><path class="cls-1" d="M3.362,6.109H.395A.4.4,0,0,0,0,6.516V9.484a.407.407,0,0,0,.407.407H3.375a.407.407,0,0,0,.407-.407V6.516A.41.41,0,0,0,3.362,6.109Zm0,3.154a.18.18,0,0,1-.18.18H.6a.18.18,0,0,1-.18-.18V6.705a.18.18,0,0,1,.18-.18h.472v.191a.127.127,0,0,0,.127.127H2.562a.127.127,0,0,0,.127-.127V6.525h.5a.18.18,0,0,1,.18.18Z"/><path class="cls-2" d="M5.376,9.523a.88.88,0,0,1-.894-.9v0a.886.886,0,0,1,.909-.9.9.9,0,0,1,.688.269l-.244.281a.644.644,0,0,0-.446-.2.517.517,0,0,0-.506.543v0a.518.518,0,0,0,.506.548.63.63,0,0,0,.458-.2l.244.247A.891.891,0,0,1,5.376,9.523Z"/><path class="cls-2" d="M7.1,9.493V8.748c0-.179-.085-.272-.229-.272s-.237.092-.237.272v.745H6.251V7.675h.379v.673a.473.473,0,0,1,.391-.214.438.438,0,0,1,.453.5v.864Z"/><path class="cls-2" d="M8.969,8.957H8.04a.31.31,0,0,0,.326.262.437.437,0,0,0,.324-.137l.217.192a.705.705,0,0,1-1.243-.441v0a.665.665,0,0,1,.66-.7.65.65,0,0,1,.65.725v0C8.974,8.9,8.972,8.923,8.969,8.957Zm-.645-.521a.3.3,0,0,0-.289.284h.57A.286.286,0,0,0,8.324,8.437Z"/><path class="cls-2" d="M9.8,9.523a.682.682,0,0,1-.7-.69v0a.686.686,0,0,1,.7-.7.656.656,0,0,1,.533.224l-.232.249a.39.39,0,0,0-.3-.147.341.341,0,0,0-.324.364v0a.342.342,0,0,0,.339.369.423.423,0,0,0,.306-.142l.222.224A.672.672,0,0,1,9.8,9.523Z"/><path class="cls-2" d="M11.359,9.493l-.349-.546-.132.14v.406H10.5V7.675h.379v.969l.443-.486h.453l-.508.526.526.81Z"/><path class="cls-2" d="M11.76,8.9V8.539h.767V8.9Z"/><path class="cls-2" d="M12.844,9.493V7.749h.384V9.493Z"/><path class="cls-2" d="M14.388,9.493V8.748c0-.179-.085-.272-.229-.272s-.237.092-.237.272v.745h-.379V8.158h.379v.189a.472.472,0,0,1,.391-.214.438.438,0,0,1,.453.5v.864Z"/><path class="cls-2" d="M15.489,9.518a.935.935,0,0,1-.573-.2l.162-.249a.755.755,0,0,0,.421.159c.11,0,.159-.04.159-.1v0c0-.082-.13-.11-.277-.154-.187-.055-.4-.142-.4-.4v0a.436.436,0,0,1,.488-.423.924.924,0,0,1,.5.154l-.144.262a.791.791,0,0,0-.361-.125c-.092,0-.14.04-.14.092v.005c0,.075.127.11.272.159.187.062.4.152.4.4v.005C16,9.383,15.778,9.518,15.489,9.518Z"/><path class="cls-2" d="M4.551,7.313A.011.011,0,0,1,4.539,7.3V6.559a.011.011,0,0,1,.012-.012h.106a.011.011,0,0,1,.012.012V6.6h0a.168.168,0,0,1,.148-.066.187.187,0,0,1,.193.134.64.64,0,0,1,0,.315.187.187,0,0,1-.193.134.168.168,0,0,1-.148-.066h0V7.3a.011.011,0,0,1-.012.012Zm.337-.383a.475.475,0,0,0,0-.208.111.111,0,0,0-.207,0,.475.475,0,0,0,0,.208.111.111,0,0,0,.207,0Z"/><path class="cls-2" d="M5.308,7.112c-.109,0-.153-.052-.153-.16V6.33a.011.011,0,0,1,.012-.012h.106a.011.011,0,0,1,.012.012v.615c0,.038.015.051.049.051h.025a.011.011,0,0,1,.012.012V7.1a.011.011,0,0,1-.012.012Z"/><path class="cls-2" d="M5.815,7.105A.011.011,0,0,1,5.8,7.094v-.04h0a.182.182,0,0,1-.157.065.167.167,0,0,1-.187-.17c0-.121.086-.177.223-.177h.113A.006.006,0,0,0,5.8,6.764V6.737c0-.064-.03-.093-.124-.093a.2.2,0,0,0-.127.038.01.01,0,0,1-.016,0L5.491,6.6a.011.011,0,0,1,0-.015.325.325,0,0,1,.2-.054c.17,0,.232.058.232.194v.364a.011.011,0,0,1-.012.012ZM5.8,6.918V6.875a.006.006,0,0,0-.007-.007H5.7c-.083,0-.12.023-.12.075s.034.069.1.069C5.757,7.013,5.8,6.982,5.8,6.918Z"/><path class="cls-2" d="M6.429,7.105a.011.011,0,0,1-.012-.012V6.772c0-.072-.036-.121-.105-.121a.107.107,0,0,0-.106.121v.322a.011.011,0,0,1-.012.012H6.088a.011.011,0,0,1-.012-.012V6.559a.011.011,0,0,1,.012-.012h.106a.011.011,0,0,1,.012.012V6.6h0a.172.172,0,0,1,.147-.065.19.19,0,0,1,.193.207v.352a.011.011,0,0,1-.012.012Z"/><path class="cls-2" d="M7.051,7.105a.011.011,0,0,1-.012-.012V6.772c0-.072-.036-.121-.105-.121a.107.107,0,0,0-.106.121v.322a.011.011,0,0,1-.012.012H6.71A.011.011,0,0,1,6.7,7.094V6.559a.011.011,0,0,1,.012-.012h.106a.011.011,0,0,1,.012.012V6.6h0a.172.172,0,0,1,.147-.065.19.19,0,0,1,.193.207v.352a.011.011,0,0,1-.012.012Z"/><path class="cls-2" d="M7.332,6.443a.011.011,0,0,1-.012-.012v-.1a.011.011,0,0,1,.012-.012h.106a.011.011,0,0,1,.012.012v.1a.011.011,0,0,1-.012.012Zm0,.663a.011.011,0,0,1-.012-.012V6.559a.011.011,0,0,1,.012-.012h.106a.011.011,0,0,1,.012.012v.534a.011.011,0,0,1-.012.012Z"/><path class="cls-2" d="M7.96,7.105a.011.011,0,0,1-.012-.012V6.772c0-.072-.036-.121-.105-.121a.107.107,0,0,0-.106.121v.322a.011.011,0,0,1-.012.012H7.619a.011.011,0,0,1-.012-.012V6.559a.011.011,0,0,1,.012-.012h.106a.011.011,0,0,1,.012.012V6.6h0a.172.172,0,0,1,.147-.065.19.19,0,0,1,.193.207v.352a.011.011,0,0,1-.012.012Z"/><path class="cls-2" d="M8.218,7.243a.01.01,0,0,1,0-.016l.068-.068a.011.011,0,0,1,.017,0,.171.171,0,0,0,.121.052c.086,0,.125-.046.125-.133V7.025h0a.161.161,0,0,1-.145.065.186.186,0,0,1-.19-.135A.424.424,0,0,1,8.2,6.813a.417.417,0,0,1,.019-.141.186.186,0,0,1,.19-.136A.159.159,0,0,1,8.55,6.6h0V6.559a.011.011,0,0,1,.012-.012h.106a.011.011,0,0,1,.012.012v.511a.233.233,0,0,1-.26.256A.276.276,0,0,1,8.218,7.243Zm.32-.339a.261.261,0,0,0,.013-.091.27.27,0,0,0-.013-.091.1.1,0,0,0-.2,0,.267.267,0,0,0-.013.091.259.259,0,0,0,.013.091.1.1,0,0,0,.2,0Z"/><path class="cls-2" d="M8.964,6.964a.554.554,0,0,1,0-.275.225.225,0,0,1,.23-.154.243.243,0,0,1,.193.087.011.011,0,0,1,0,.016L9.313,6.7a.01.01,0,0,1-.016,0,.126.126,0,0,0-.1-.049.1.1,0,0,0-.1.073.327.327,0,0,0-.012.1.334.334,0,0,0,.012.1.1.1,0,0,0,.1.072.126.126,0,0,0,.1-.049.01.01,0,0,1,.016,0l.073.064c.006,0,0,.01,0,.016a.246.246,0,0,1-.193.086A.225.225,0,0,1,8.964,6.964Z"/><path class="cls-2" d="M9.5,6.963a.433.433,0,0,1-.02-.136A.444.444,0,0,1,9.5,6.689a.246.246,0,0,1,.457,0,.5.5,0,0,1,.019.168.011.011,0,0,1-.013.012H9.622a.006.006,0,0,0-.007.007.124.124,0,0,0,.008.043A.122.122,0,0,0,9.748,7a.168.168,0,0,0,.131-.053c.006-.006.012-.007.017,0l.068.06a.01.01,0,0,1,0,.016.294.294,0,0,1-.229.095A.226.226,0,0,1,9.5,6.963Zm.337-.246a.119.119,0,0,0-.219,0,.142.142,0,0,0-.007.047.006.006,0,0,0,.007.007h.219a.006.006,0,0,0,.007-.007A.142.142,0,0,0,9.841,6.717Z"/><path class="cls-2" d="M10.458,7.105a.011.011,0,0,1-.012-.012V6.772c0-.072-.036-.121-.105-.121a.107.107,0,0,0-.106.121v.322a.011.011,0,0,1-.012.012h-.106a.011.011,0,0,1-.012-.012V6.559a.011.011,0,0,1,.012-.012h.106a.011.011,0,0,1,.012.012V6.6h0a.172.172,0,0,1,.147-.065.19.19,0,0,1,.193.207v.352a.011.011,0,0,1-.012.012Z"/><path class="cls-2" d="M10.891,7.112c-.112,0-.155-.054-.155-.163V6.655a.006.006,0,0,0-.007-.007h-.037a.011.011,0,0,1-.012-.012V6.559a.011.011,0,0,1,.012-.012h.037a.006.006,0,0,0,.007-.007V6.388a.011.011,0,0,1,.012-.012h.106a.011.011,0,0,1,.012.012v.153a.006.006,0,0,0,.007.007h.074a.011.011,0,0,1,.012.012v.077a.011.011,0,0,1-.012.012h-.074a.006.006,0,0,0-.007.007v.289c0,.039.016.052.052.052h.029a.011.011,0,0,1,.012.012V7.1a.011.011,0,0,1-.012.012Z"/><path class="cls-2" d="M11.077,6.963a.433.433,0,0,1-.02-.136.444.444,0,0,1,.019-.138.246.246,0,0,1,.457,0,.5.5,0,0,1,.019.168.011.011,0,0,1-.013.012h-.344a.006.006,0,0,0-.007.007.124.124,0,0,0,.008.043A.122.122,0,0,0,11.321,7a.168.168,0,0,0,.131-.053c.006-.006.012-.007.017,0l.068.06a.01.01,0,0,1,0,.016.294.294,0,0,1-.229.095A.226.226,0,0,1,11.077,6.963Zm.337-.246a.119.119,0,0,0-.219,0,.142.142,0,0,0-.007.047.006.006,0,0,0,.007.007h.219a.006.006,0,0,0,.007-.007A.142.142,0,0,0,11.414,6.717Z"/><path class="cls-2" d="M11.69,7.105a.011.011,0,0,1-.012-.012V6.559a.011.011,0,0,1,.012-.012H11.8a.011.011,0,0,1,.012.012v.047h0a.16.16,0,0,1,.145-.072.168.168,0,0,1,.117.046c.006.006.007.01,0,.016l-.061.077a.011.011,0,0,1-.016,0,.15.15,0,0,0-.082-.027c-.073,0-.105.052-.105.141v.3a.011.011,0,0,1-.012.012Z"/></g></svg>