<svg xmlns="http://www.w3.org/2000/svg" viewBox="0 0 16 16"><defs><style>.cls-1{fill:#231f20;}</style></defs><title>email</title><g id="Layer_1" data-name="Layer 1"><g id="Your_Icon" data-name="Your Icon"><path class="cls-1" d="M7.979,8.17l7.646-5.615a.963.963,0,0,0-.639-.245H.973a.964.964,0,0,0-.639.245Z"/><polygon class="cls-1" points="4.717 7.477 0 4.013 0 10.941 4.717 7.477"/><polygon class="cls-1" points="11.24 7.477 15.958 10.941 15.958 4.013 11.24 7.477"/><path class="cls-1" d="M10.081,8.328l-2.1,1.544-2.1-1.544L0,12.644v.413a.973.973,0,0,0,.973.973H14.985a.973.973,0,0,0,.973-.973v-.413Z"/></g></g></svg>