<svg xmlns="http://www.w3.org/2000/svg" viewBox="0 0 16 16"><defs><style>.cls-1{fill:#231f20;fill-rule:evenodd;}</style></defs><title>event</title><g id="Layer_1" data-name="Layer 1"><path class="cls-1" d="M15.223,2.527H13.86V.5a.5.5,0,0,0-.5-.5H9.594a.5.5,0,0,0-.5.5V2.527H6.83V.5a.5.5,0,0,0-.5-.5H2.588a.5.5,0,0,0-.5.5V2.527H.82a.5.5,0,0,0-.5.5V15.5a.5.5,0,0,0,.5.5h14.4a.5.5,0,0,0,.5-.5V3.029A.5.5,0,0,0,15.223,2.527ZM10.633,1.4h1.682V3.112H10.633Zm-7.011,0H5.276V3.112H3.622ZM14.035,14.353H2.012V4.235H14.035Z"/><path class="cls-1" d="M11.966,8.144,9.3,7.931a.155.155,0,0,1-.131-.095L8.143,5.366a.155.155,0,0,0-.286,0L6.83,7.836a.155.155,0,0,1-.131.095l-2.666.214a.155.155,0,0,0-.088.272l2.031,1.74a.155.155,0,0,1,.05.153l-.621,2.6a.155.155,0,0,0,.231.168l2.282-1.394a.155.155,0,0,1,.161,0l2.282,1.394a.155.155,0,0,0,.231-.168l-.621-2.6a.155.155,0,0,1,.05-.153l2.031-1.74A.155.155,0,0,0,11.966,8.144Z"/></g></svg>