<svg xmlns="http://www.w3.org/2000/svg" viewBox="0 0 16 16"><defs><style>.cls-1{fill:#231f20;}</style></defs><title>l-arr</title><g id="Layer_1" data-name="Layer 1"><path class="cls-1" d="M8.676.292A.9.9,0,0,0,8.015.017a1,1,0,0,0-.691.275L.574,7.282a.963.963,0,0,0,0,1.349L7.324,15.68a.91.91,0,0,0,.669.278.951.951,0,0,0,.683-.278l1.02-1.02A.9.9,0,0,0,9.971,14a1,1,0,0,0-.275-.688L6.307,9.921h8.431a.957.957,0,0,0,.68-.267.878.878,0,0,0,.284-.669V7.015a.925.925,0,0,0-.284-.683.934.934,0,0,0-.68-.281H6.307L9.7,2.661a.91.91,0,0,0,.275-.669.953.953,0,0,0-.275-.68L8.676.292Z"/></g></svg>