<svg xmlns="http://www.w3.org/2000/svg" viewBox="0 0 16 16"><defs><style>.cls-1{fill:#231f20;}</style></defs><title>label-security</title><g id="Layer_1" data-name="Layer 1"><rect class="cls-1" x="4.122" y="9.145" width="0.458" height="2.29"/><rect class="cls-1" x="5.267" y="9.145" width="0.458" height="2.29"/><rect class="cls-1" x="7.328" y="9.145" width="0.458" height="2.29"/><rect class="cls-1" x="4.809" y="9.145" width="0.229" height="2.29"/><rect class="cls-1" x="5.954" y="9.145" width="0.229" height="2.29"/><rect class="cls-1" x="6.412" y="9.145" width="0.229" height="2.29"/><rect class="cls-1" x="6.87" y="9.145" width="0.229" height="2.29"/><rect class="cls-1" x="8.015" y="9.145" width="0.229" height="2.29"/><rect class="cls-1" x="8.473" y="9.145" width="0.229" height="2.29"/><rect class="cls-1" x="8.931" y="9.145" width="0.458" height="2.29"/><rect class="cls-1" x="10.992" y="9.145" width="0.458" height="2.29"/><rect class="cls-1" x="12.595" y="9.145" width="0.458" height="2.29"/><rect class="cls-1" x="13.282" y="9.145" width="0.458" height="2.29"/><rect class="cls-1" x="9.618" y="9.145" width="0.229" height="2.29"/><rect class="cls-1" x="10.076" y="9.145" width="0.229" height="2.29"/><rect class="cls-1" x="10.534" y="9.145" width="0.229" height="2.29"/><rect class="cls-1" x="11.679" y="9.145" width="0.229" height="2.29"/><rect class="cls-1" x="12.137" y="9.145" width="0.229" height="2.29"/><path class="cls-1" d="M13.318,6.119l-.56.56-.012.014-.011-.013-.219-.219a.161.161,0,1,0-.223.233l.338.337a.16.16,0,0,0,.23,0l.17-.169.515-.515a.154.154,0,0,0,.038-.168A.161.161,0,0,0,13.318,6.119Z"/><path class="cls-1" d="M13.74,3.649H1.374A1.374,1.374,0,0,0,0,5.023V9.6l0,0a.454.454,0,0,0,.13.319l2.29,2.29a.458.458,0,0,0,.324.134H13.74a1.374,1.374,0,0,0,1.374-1.374V5.023A1.374,1.374,0,0,0,13.74,3.649ZM1.374,4.107H13.74a.913.913,0,0,1,.789.458H.585A.913.913,0,0,1,1.374,4.107ZM14.2,5.916a2.561,2.561,0,0,1-.248,1.1,2.609,2.609,0,0,1-1.09,1.155.065.065,0,0,1-.07,0,2.86,2.86,0,0,1-.541-.4A2.5,2.5,0,0,1,11.6,6.761a2.643,2.643,0,0,1-.116-.456,2.458,2.458,0,0,1-.029-.434,2.7,2.7,0,0,1,.025-.317.042.042,0,0,1,.042-.043c.129-.023.259-.044.388-.071a2.715,2.715,0,0,0,.606-.2,2.036,2.036,0,0,0,.243-.144.125.125,0,0,1,.075-.028.1.1,0,0,1,.053.016,2.056,2.056,0,0,0,.621.286,5.072,5.072,0,0,0,.547.129l.088.013a.036.036,0,0,1,.035.037,2.44,2.44,0,0,1,.026.326C14.2,5.888,14.2,5.9,14.2,5.916ZM2.748,11.893.458,9.6H1.985a.763.763,0,0,1,.763.763Zm11.908-.916a.917.917,0,0,1-.916.916H3.206V10.366A1.223,1.223,0,0,0,1.985,9.145H.458V8.687h14.2Z"/></g></svg>