<svg xmlns="http://www.w3.org/2000/svg" viewBox="0 0 16 16"><defs><style>.cls-1{fill:#231f20;}</style></defs><title>location</title><g id="Layer_1" data-name="Layer 1"><path class="cls-1" d="M8,0A5.547,5.547,0,0,0,2.453,5.547c0,.066,0,.132,0,.2a5.535,5.535,0,0,0,.318,1.666c.93,3.057,3.625,6.845,4.737,8.328a.609.609,0,0,0,.976,0c1.111-1.482,3.806-5.27,4.736-8.327a5.523,5.523,0,0,0,.318-1.666q0-.1.005-.2A5.547,5.547,0,0,0,8,0ZM8,8.264a2.717,2.717,0,1,1,2.717-2.717A2.717,2.717,0,0,1,8,8.264Z"/></g></svg>