<svg xmlns="http://www.w3.org/2000/svg" viewBox="0 0 16 16"><defs><style>.cls-1{fill:#231f20}</style></defs><title>phone</title><path class="cls-1" d="M12.679 14.3a1.7 1.7 0 0 1-1.7 1.7h-5.9a1.7 1.7 0 0 1-1.7-1.7V1.7A1.7 1.7 0 0 1 5.074 0h5.9a1.7 1.7 0 0 1 1.7 1.7v12.6zm-.771-10.951H4.122v9.175h7.787zM9.581 1.7a.189.189 0 0 0-.188-.188H6.658a.188.188 0 0 0-.189.188.189.189 0 0 0 .189.189h2.734a.189.189 0 0 0 .189-.189zM5.943 13.883a.4.4 0 1 0 .4.4.4.4 0 0 0-.4-.4zm2.082 0a.4.4 0 1 0 .4.4.4.4 0 0 0-.4-.4zm2.081 0a.4.4 0 1 0 .4.4.4.4 0 0 0-.4-.4z" id="Layer_1" data-name="Layer 1"/></svg>