<svg xmlns="http://www.w3.org/2000/svg" viewBox="0 0 16 16"><defs><style>.cls-1{fill:#231f20}</style></defs><title>plus-circle</title><g id="Layer_1" data-name="Layer 1"><path class="cls-1" d="M7.994.013a7.994 7.994 0 1 0 7.994 7.994A7.994 7.994 0 0 0 7.994.013zm0 14.317a6.323 6.323 0 1 1 6.323-6.323 6.323 6.323 0 0 1-6.323 6.323z"/><path class="cls-1" d="M11 7.183H8.8v-2.2a.807.807 0 0 0-1.613 0v2.2h-2.2a.807.807 0 0 0 0 1.613h2.2V11A.807.807 0 0 0 8.8 11V8.8H11a.807.807 0 0 0 0-1.613z"/></g></svg>