<svg xmlns="http://www.w3.org/2000/svg" viewBox="0 0 16 16"><defs><style>.cls-1{fill:#231f20;}</style></defs><title>report-formats</title><g id="Layer_1" data-name="Layer 1"><path class="cls-1" d="M1.995,13.014V2.049H7.028V3.923a.138.138,0,0,0,.041.1.14.14,0,0,0,.1.039H10v.987h1.994V3.789a.605.605,0,0,0-.182-.432L7.61.225A.636.636,0,0,0,7.17.046H.622a.636.636,0,0,0-.44.179A.609.609,0,0,0,0,.657v13.75a.61.61,0,0,0,.182.432.633.633,0,0,0,.44.179H4.958l-1.1-2ZM14.958,11.45c0-.026,0-.051,0-.076.007-.074.011-.15.014-.225v-.022c0-.04,0-.079,0-.12s0-.068,0-.1v-.045c0-.077-.007-.154-.014-.229,0-.021,0-.041,0-.061l1-.729a.091.091,0,0,0,.024-.12L14.573,7.331a.094.094,0,0,0-.118-.037l-1.142.494c-.031-.021-.063-.04-.094-.06s-.037-.025-.056-.037c-.036-.024-.071-.048-.108-.07l-.074-.043-.023-.013-.031-.016c-.057-.031-.115-.063-.175-.093l-.012-.007h0l-.024-.011-.059-.028-.1-.046-.138-1.217a.093.093,0,0,0-.094-.082H9.514a.092.092,0,0,0-.093.082L9.283,7.365l-.027.012c-.073.033-.146.067-.218.1L9,7.5c-.039.021-.079.04-.118.062L8.8,7.618l-.058.035c-.067.042-.132.086-.2.132l-.008.006L7.389,7.3a.1.1,0,0,0-.119.039L5.857,9.724a.091.091,0,0,0,.026.12l1,.729v.018l0,.05c0,.045-.008.089-.01.134s-.006.063-.006.094,0,.051,0,.076,0,.04,0,.061,0,.047,0,.071,0,.047,0,.071,0,.046,0,.068c0,.045.006.089.01.133l0,.024,0,.053v.019l-1,.729a.09.09,0,0,0-.026.12l1.414,2.39a.1.1,0,0,0,.119.038l1.143-.494.006,0c.071.05.144.1.219.146a.259.259,0,0,1,.026.016c.033.02.064.041.1.06a4.093,4.093,0,0,0,.378.187c.008,0,.016.009.024.012l.138,1.218a.092.092,0,0,0,.093.081h2.815a.093.093,0,0,0,.094-.081l.138-1.218c.026-.011.051-.025.077-.037l.1-.049v0c.023-.011.045-.026.069-.037l.032-.016a.168.168,0,0,0,.029-.016l.036-.019h0l.051-.027.02-.013c.062-.035.121-.073.18-.11l.061-.039c.031-.021.063-.039.094-.061l1.142.494a.1.1,0,0,0,.118-.037l1.414-2.39a.091.091,0,0,0-.024-.12Zm-1.846-.333c0,.03,0,.058-.006.088s-.009.085-.015.126c0,.024-.009.048-.012.071-.009.046-.019.092-.03.137-.006.021-.012.041-.018.062-.013.045-.028.091-.044.136-.008.023-.017.044-.026.066-.017.041-.034.082-.054.122l-.007.016L12.867,12c-.016.031-.033.063-.052.094l-.035.057-.028.043-.042.061c-.021.028-.041.056-.063.082l-.029.037c-.009.011-.019.023-.03.034-.029.034-.058.066-.089.1l-.026.026-.022.022c-.036.034-.072.067-.11.1l-.027.022-.019.016c-.039.031-.081.061-.122.089l-.039.025-.009.006c-.042.027-.085.053-.128.077-.018.01-.036.019-.053.028-.045.023-.09.045-.135.064L11.747,13c-.046.018-.092.034-.139.05l-.061.019c-.05.015-.1.027-.152.038l-.052.011c-.058.011-.117.019-.175.026a.146.146,0,0,1-.032,0c-.068.007-.136.01-.206.011H10.91c-.07,0-.138,0-.206-.011h-.016c-.068-.008-.135-.018-.2-.031l-.016,0c-.067-.013-.132-.031-.2-.05l-.008,0a2.181,2.181,0,0,1-1.438-1.41l0-.011c-.019-.062-.036-.126-.049-.19l0-.019a1.86,1.86,0,0,1-.03-.194l0-.019a1.84,1.84,0,0,1-.011-.2V10.99c0-.064,0-.126.01-.188,0-.015,0-.03.006-.045.006-.053.015-.107.025-.159,0-.021.009-.042.014-.063.011-.046.022-.091.036-.135.007-.025.015-.05.023-.074.015-.041.03-.082.046-.123.009-.025.02-.048.031-.072.018-.04.037-.08.058-.118l.035-.065c.024-.04.047-.079.073-.116h0l.039-.057c.026-.037.054-.072.082-.108l.014-.017.033-.04c.029-.032.058-.065.089-.1l.025-.025c.012-.012.024-.023.036-.035.027-.026.056-.051.085-.076s.029-.025.044-.035l.042-.034.067-.05.076-.05.047-.03.04-.025c.037-.02.073-.04.11-.058.021-.01.042-.023.063-.032.045-.02.092-.039.138-.057l.058-.023c.049-.016.1-.032.147-.045l.056-.016c.048-.012.1-.022.147-.031.022,0,.042-.009.064-.011.046-.007.092-.012.138-.017l.08-.006.121,0,.1,0c.034,0,.067,0,.1.008s.08.008.118.014.057.009.084.014c.043.008.086.016.128.027l.077.02c.043.012.086.026.128.04.026.009.052.019.077.03.041.016.081.032.12.049s.055.027.081.042.075.038.11.059l.085.054c.031.021.063.041.094.063s.058.045.086.069.055.041.082.065.052.05.078.076.051.049.075.076.047.055.07.083.045.052.067.081.046.065.068.1.035.049.051.076.043.077.064.117c.012.024.025.047.036.069.021.043.038.086.056.128l.026.065c.016.045.031.09.044.137.006.02.013.041.018.063.011.045.021.091.03.136,0,.025.009.047.012.071.006.042.011.084.015.127s.005.059.006.087,0,.073,0,.108S13.114,11.081,13.111,11.117Z"/></g></svg>