<svg xmlns="http://www.w3.org/2000/svg" viewBox="0 0 16 16"><defs><style>.cls-1{fill:#231f20;fill-rule:evenodd;}</style></defs><title>tick-box-open</title><g id="Layer_1" data-name="Layer 1"><path class="cls-1" d="M13.005.018H2.995A2.9,2.9,0,0,0,.018,2.907v10.1a2.977,2.977,0,0,0,2.977,2.977H13.005a2.977,2.977,0,0,0,2.977-2.977V2.907A2.9,2.9,0,0,0,13.005.018Zm1.08,13.076a.992.992,0,0,1-.992.992H2.907a.992.992,0,0,1-.992-.992V2.907a.992.992,0,0,1,.992-.992H13.093a.992.992,0,0,1,.992.992Z"/></g></svg>