<svg xmlns="http://www.w3.org/2000/svg" viewBox="0 0 16 16" class="symbol symbol-checkr-logo" aria-labelledby="title" role="img"><title id="title">checkr-logo icon</title><path class="cls-1" d="M13.353 9.453h-.673l-.757-1.262-.072.072-.216.228v.961h-.565v-.359a1.836 1.836 0 0 1-.637.361.093.093 0 0 0-.036.012 2.022 2.022 0 0 1-.373.048h-.083a1.268 1.268 0 0 1-.925-.4 1.548 1.548 0 0 1-.336-1.009A1.486 1.486 0 0 1 9.015 7.1a1.141 1.141 0 0 1 .913-.4 1.056 1.056 0 0 1 .745.252.725.725 0 0 1 .1.1l-.324.409a.613.613 0 0 0-.493-.216.621.621 0 0 0-.5.24 1.028 1.028 0 0 0-.18.637 1.028 1.028 0 0 0 .18.637.713.713 0 0 0 .461.241h.2a1.34 1.34 0 0 0 .961-.721V5.62h.565v2.091l.9-.949h.769l-.973 1.009zM8.4 8.107a1.576 1.576 0 0 0-.3-.985 1.03 1.03 0 0 0-.877-.409 1.1 1.1 0 0 0-.889.409 1.475 1.475 0 0 0-.336 1 1.531 1.531 0 0 0 .324 1 1.166 1.166 0 0 0 .925.4A1.244 1.244 0 0 0 8.294 9l-.373-.373a.683.683 0 0 1-.276.252.974.974 0 0 1-.409.1.583.583 0 0 1-.469-.192.873.873 0 0 1-.18-.457h1.8v-.223zm-1.764-.348a.739.739 0 0 1 .192-.359.534.534 0 0 1 .4-.156.465.465 0 0 1 .372.156.867.867 0 0 1 .192.361zm9.121-.577l-.445.445a.667.667 0 0 0-.228-.324.486.486 0 0 0-.284-.073.429.429 0 0 0-.4.24 1.167 1.167 0 0 0-.168.637v1.334h-.565V6.749h.565v.2a1.055 1.055 0 0 1 .721-.252.861.861 0 0 1 .529.156 1.044 1.044 0 0 1 .275.329zm-10.082.444v1.827h-.553V7.687c0-.3-.132-.445-.421-.445a.546.546 0 0 0-.433.216.667.667 0 0 0-.072.1.788.788 0 0 0-.1.252.265.265 0 0 0-.012.1c0 .048-.012.1-.012.144v1.387h-.56v-.733c-.012.024-.036.036-.048.06a2.184 2.184 0 0 1-1.19.7.044.044 0 0 0-.036.012c-.1.012-.18.024-.228.024h-.12a1.514 1.514 0 0 1-1.2-.529 2.561 2.561 0 0 1 0-2.884 1.5 1.5 0 0 1 1.175-.531 1.6 1.6 0 0 1 1.01.34.954.954 0 0 1 .168.2l-.373.469a.813.813 0 0 0-.805-.445.971.971 0 0 0-.745.385 1.783 1.783 0 0 0-.276 1.009 1.839 1.839 0 0 0 .276 1 .994.994 0 0 0 .805.373 2.788 2.788 0 0 0 .288-.024A2.047 2.047 0 0 0 3.464 7.7a.427.427 0 0 0 .048-.108V5.62h.565v1.346a1.89 1.89 0 0 1 .223-.145 1.182 1.182 0 0 1 .481-.12.885.885 0 0 1 .661.228.938.938 0 0 1 .233.697z" data-name="Layer 1" role="presentation"/></svg>