<svg xmlns="http://www.w3.org/2000/svg" viewBox="0 0 16 16"><title>app-list</title><g data-name="Layer 1"><rect class="cls-1" x=".42" y="1.696" width="2.811" height="2.811" rx=".43" ry=".43"/><path class="cls-1" d="M14.688 3.906H5.41a.843.843 0 0 1 0-1.687h9.278a.843.843 0 1 1 0 1.687z"/><rect class="cls-1" x=".42" y="6.754" width="2.811" height="2.811" rx=".43" ry=".43"/><path class="cls-1" d="M14.688 9H5.41a.843.843 0 0 1 0-1.687h9.278a.843.843 0 1 1 0 1.687z"/><rect class="cls-1" x=".42" y="11.811" width="2.811" height="2.811" rx=".43" ry=".43"/><path class="cls-1" d="M14.688 14.06H5.41a.843.843 0 1 1 0-1.687h9.278a.843.843 0 1 1 0 1.687z"/></g></svg>