<svg xmlns="http://www.w3.org/2000/svg" viewBox="0 0 16 16"><defs><style>.cls-1{fill:#231f20;}</style></defs><title>instagram</title><g id="Layer_1" data-name="Layer 1"><circle class="cls-1" cx="7.987" cy="8.195" r="2.107"/><path class="cls-1" d="M12.16,8.078c0,.013,0,.026,0,.039a4.254,4.254,0,0,1-8.508,0c0-.013,0-.026,0-.039H.182v5.386A2.537,2.537,0,0,0,2.718,16H13.255a2.537,2.537,0,0,0,2.537-2.537V8.078Z"/><path class="cls-1" d="M13.255.39H2.718A2.537,2.537,0,0,0,.182,2.926v3.59H3.969a4.252,4.252,0,0,1,7.88,0h3.943V2.926A2.537,2.537,0,0,0,13.255.39Zm.891,3.092a.723.723,0,0,1-.723.723h-.506a.723.723,0,0,1-.723-.723V2.976a.723.723,0,0,1,.723-.723h.506a.723.723,0,0,1,.723.723Z"/></g></svg>