<svg xmlns="http://www.w3.org/2000/svg" viewBox="0 0 16 16"><defs><style>.cls-1{fill:#231f20;}</style></defs><title>key</title><g id="Layer_1" data-name="Layer 1"><path class="cls-1" d="M15.494,11.129,13.407,9.941h0L8.383,7.08A4.328,4.328,0,0,0,6.433,2.148,4.3,4.3,0,0,0,.584,3.893,4.384,4.384,0,0,0,2.131,9.848,4.249,4.249,0,0,0,7.4,8.907l.994.566-.708,1.268a1.03,1.03,0,0,0,.364,1.4,1.01,1.01,0,0,0,1.376-.411l.708-1.268,1.392.793-1.012,1.812a1.031,1.031,0,0,0,.364,1.4,1.011,1.011,0,0,0,1.376-.411l1.012-1.812,1.218.693a1.01,1.01,0,0,0,1.377-.411A1.03,1.03,0,0,0,15.494,11.129ZM3.143,8.036a2.321,2.321,0,0,1-.818-3.153,2.275,2.275,0,0,1,3.1-.924A2.321,2.321,0,0,1,6.24,7.113,2.275,2.275,0,0,1,3.143,8.036Z"/></g></svg>