<svg xmlns="http://www.w3.org/2000/svg" viewBox="0 0 16 16"><defs><style>.cls-1{fill:#231f20;}</style></defs><title>photo-outline</title><g id="Layer_1" data-name="Layer 1"><path class="cls-1" d="M14.61.063H1.478A1.4,1.4,0,0,0,.115,1.487V14.5A1.4,1.4,0,0,0,1.478,15.92H14.61A1.4,1.4,0,0,0,15.972,14.5V1.487A1.4,1.4,0,0,0,14.61.063ZM14.981,14.5a.406.406,0,0,1-.372.433H1.478a.406.406,0,0,1-.372-.433V1.487a.407.407,0,0,1,.372-.434H14.61a.407.407,0,0,1,.372.434ZM6.061,4.027A1.982,1.982,0,1,0,8.044,6.009,1.984,1.984,0,0,0,6.061,4.027ZM6.061,7a.991.991,0,1,1,.991-.991A.992.992,0,0,1,6.061,7Zm7.433-4.955H2.593a.5.5,0,0,0-.5.5v9.911a.5.5,0,0,0,.5.5h10.9a.5.5,0,0,0,.5-.5V2.54A.5.5,0,0,0,13.495,2.045ZM3.584,11.956a.484.484,0,0,1-.228-.063l1.93-1.93a.5.5,0,0,1,.7,0L7.98,11.956ZM13,11.46a.5.5,0,0,1-.5.5H9.381l-1.7-1.7,2.62-2.619a.5.5,0,0,1,.7,0L13,9.633Zm0-3.228L11.707,6.94a1.489,1.489,0,0,0-2.1,0L6.985,9.559l-.3-.3a1.489,1.489,0,0,0-2.1,0l-1.5,1.5V3.531a.5.5,0,0,1,.5-.5H12.5a.5.5,0,0,1,.5.5Z"/></g></svg>