<svg xmlns="http://www.w3.org/2000/svg" viewBox="0 0 16 16"><defs><style>.cls-1,.cls-2{fill:#231f20;}.cls-2{fill-rule:evenodd;}</style></defs><title>simple-people</title><g id="Layer_1" data-name="Layer 1"><circle class="cls-1" cx="12.282" cy="5.783" r="2.295"/><circle class="cls-1" cx="4.949" cy="4.666" r="3.06"/><path class="cls-2" d="M13.6,9.01H10.96a2.345,2.345,0,0,0-.712.11.338.338,0,0,0-.148.542,3.623,3.623,0,0,1,.844,2.327v.433a.48.48,0,0,0,.48.48h4.187a.359.359,0,0,0,.359-.359V11.377A2.367,2.367,0,0,0,13.6,9.01Z"/><path class="cls-2" d="M9.39,14.161H.509a.479.479,0,0,1-.479-.479V12.128A3.157,3.157,0,0,1,3.186,8.971H6.713a3.157,3.157,0,0,1,3.157,3.157v1.553A.479.479,0,0,1,9.39,14.161Z"/></g></svg>