<svg width="32" height="32" viewBox="0 0 32 32" fill="none" xmlns="http://www.w3.org/2000/svg">
<path d="M16.1 1.92C4.76 1.92 1.92 4.76 1.92 16.1C1.92 27.44 4.76 30.28 16.1 30.28C27.44 30.28 30.28 27.44 30.28 16.1C30.28 4.76 27.44 1.92 16.1 1.92Z" fill="url(#paint0_linear)"/>
<path d="M22 11H20.75V9.99999C20.7503 9.79722 20.6725 9.60211 20.5329 9.45506C20.3933 9.308 20.2025 9.22026 20 9.20999H19.62C19.4122 9.21262 19.2138 9.29701 19.0678 9.44488C18.9218 9.59275 18.84 9.79219 18.84 9.99999V11H13.39V9.99999C13.39 9.79047 13.3068 9.58953 13.1586 9.44138C13.0105 9.29322 12.8095 9.20999 12.6 9.20999H12.23C12.0213 9.21258 11.8218 9.29665 11.6743 9.44424C11.5267 9.59184 11.4426 9.79128 11.44 9.99999V11H10.16C9.93987 11 9.72876 11.0874 9.5731 11.2431C9.41745 11.3987 9.33 11.6099 9.33 11.83V21.89C9.33 22.1101 9.41745 22.3212 9.5731 22.4769C9.72876 22.6325 9.93987 22.72 10.16 22.72H22C22.2201 22.72 22.4312 22.6325 22.5869 22.4769C22.7426 22.3212 22.83 22.1101 22.83 21.89V11.82C22.8274 11.6016 22.7388 11.393 22.5834 11.2395C22.428 11.086 22.2184 11 22 11ZM20.71 20.55H11.44V14.67H20.75L20.71 20.55Z" fill="white"/>
<defs>
<linearGradient id="paint0_linear" x1="4.76" y1="4.76" x2="27.44" y2="27.44" gradientUnits="userSpaceOnUse">
<stop stop-color="#F25437"/>
<stop offset="1" stop-color="#CD4E39"/>
</linearGradient>
</defs>
</svg>
