<svg width="32" height="32" viewBox="0 0 32 32" fill="none" xmlns="http://www.w3.org/2000/svg">
<path d="M30.28 16C30.28 27.42 27.42 30.28 16 30.28C4.58 30.28 1.72 27.42 1.72 16C1.72 4.58 4.58 1.72 16 1.72C27.42 1.72 30.28 4.58 30.28 16Z" fill="url(#paint0_linear)"/>
<path d="M22.62 13.5L15.26 20.85C15.1058 21.0045 14.9227 21.1271 14.721 21.2107C14.5194 21.2944 14.3033 21.3374 14.085 21.3374C13.8667 21.3374 13.6506 21.2944 13.449 21.2107C13.2473 21.1271 13.0642 21.0045 12.91 20.85L9.38 17.33C9.11098 17.0111 8.9719 16.6026 8.99044 16.1859C9.00898 15.7691 9.18377 15.3745 9.48003 15.0808C9.77629 14.7871 10.1723 14.6157 10.5892 14.6007C11.0061 14.5857 11.4134 14.7283 11.73 15L14.08 17.35L20.27 11.17C20.4243 11.0157 20.6075 10.8933 20.8091 10.8098C21.0107 10.7263 21.2268 10.6833 21.445 10.6833C21.6632 10.6833 21.8793 10.7263 22.0809 10.8098C22.2825 10.8933 22.4657 11.0157 22.62 11.17C22.7743 11.3243 22.8967 11.5075 22.9802 11.7091C23.0637 11.9107 23.1067 12.1268 23.1067 12.345C23.1067 12.5632 23.0637 12.7793 22.9802 12.9809C22.8967 13.1825 22.7743 13.3657 22.62 13.52V13.5Z" fill="white"/>
<defs>
<linearGradient id="paint0_linear" x1="4.09" y1="4.09" x2="28.6" y2="28.6" gradientUnits="userSpaceOnUse">
<stop stop-color="#A76EBE"/>
<stop offset="1" stop-color="#875E96"/>
</linearGradient>
</defs>
</svg>
