<svg width="32" height="32" viewBox="0 0 32 32" fill="none" xmlns="http://www.w3.org/2000/svg">
<path d="M30.3 16C30.3 27.44 27.44 30.3 16 30.3C4.56 30.3 1.7 27.44 1.7 16C1.7 4.56 4.56 1.7 16 1.7C27.44 1.7 30.3 4.56 30.3 16Z" fill="url(#paint0_linear)"/>
<path d="M21.593 22.863C21.5938 22.9261 21.5821 22.9888 21.5587 23.0474C21.5352 23.106 21.5004 23.1594 21.4563 23.2045C21.4122 23.2497 21.3596 23.2857 21.3015 23.3105C21.2435 23.3352 21.1811 23.3483 21.118 23.349L18.3 23.326C18.2369 23.3268 18.1742 23.3151 18.1156 23.2917C18.057 23.2682 18.0036 23.2334 17.9585 23.1893C17.9133 23.1452 17.8773 23.0926 17.8525 23.0345C17.8277 22.9765 17.8146 22.9141 17.814 22.851C17.814 22.851 17.821 22.516 17.821 20.267C17.7912 19.5426 17.6126 18.8322 17.2964 18.1798C16.9802 17.5274 16.5331 16.9471 15.983 16.475C15.4326 16.947 14.9852 17.5272 14.6688 18.1796C14.3525 18.832 14.1738 19.5425 14.144 20.267C14.144 22.516 14.152 22.851 14.152 22.851C14.1512 22.9142 14.138 22.9766 14.1131 23.0346C14.0882 23.0927 14.0521 23.1453 14.0069 23.1894C13.9617 23.2335 13.9082 23.2682 13.8495 23.2917C13.7909 23.3151 13.7282 23.3268 13.665 23.326L10.85 23.349C10.7869 23.3483 10.7245 23.3352 10.6665 23.3105C10.6084 23.2857 10.5558 23.2497 10.5117 23.2045C10.4676 23.1594 10.4328 23.106 10.4093 23.0474C10.3859 22.9888 10.3742 22.9261 10.375 22.863C10.375 22.863 10.026 13.584 10.347 13.307L15.5 8.86399C15.6363 8.74499 15.8111 8.67941 15.992 8.67941C16.1729 8.67941 16.3477 8.74499 16.484 8.86399L21.628 13.307H21.622C21.941 13.611 21.593 22.863 21.593 22.863Z" fill="white"/>
<defs>
<linearGradient id="paint0_linear" x1="4.56" y1="4.56" x2="27.44" y2="27.44" gradientUnits="userSpaceOnUse">
<stop stop-color="#42A5F5"/>
<stop offset="1" stop-color="#66BB6A"/>
</linearGradient>
</defs>
</svg>
