<svg width="32" height="32" viewBox="0 0 32 32" fill="none" xmlns="http://www.w3.org/2000/svg">
<path d="M30.3 16C30.3 27.44 27.44 30.3 16 30.3C4.56 30.3 1.7 27.44 1.7 16C1.7 4.56001 4.56 1.70001 16 1.70001C27.44 1.70001 30.3 4.56001 30.3 16Z" fill="url(#paint0_linear)"/>
<path d="M17.89 12.68H14.11C13.8331 13.3216 13.3216 13.8331 12.68 14.11V17.89C13.3216 18.1669 13.8331 18.6784 14.11 19.32H17.89C18.1602 18.6774 18.6692 18.1647 19.31 17.89V14.11C18.6728 13.8302 18.1653 13.3192 17.89 12.68ZM23 20.36C23.0023 20.9796 22.7899 21.5808 22.3989 22.0614C22.0079 22.542 21.4625 22.8723 20.8554 22.9961C20.2483 23.1199 19.6171 23.0295 19.0692 22.7403C18.5212 22.4511 18.0904 21.981 17.85 21.41H14.11C13.9395 21.8173 13.6714 22.1764 13.3293 22.4555C12.9873 22.7347 12.5817 22.9254 12.1485 23.0107C11.7153 23.0961 11.2677 23.0734 10.8453 22.9449C10.4229 22.8163 10.0387 22.5858 9.72646 22.2736C9.41425 21.9613 9.18369 21.5771 9.05513 21.1547C8.92657 20.7323 8.90396 20.2847 8.9893 19.8515C9.07464 19.4183 9.2653 19.0128 9.54447 18.6707C9.82363 18.3286 10.1827 18.0605 10.59 17.89V14.11C10.1877 13.9373 9.83387 13.6686 9.55942 13.3275C9.28496 12.9864 9.09825 12.5833 9.01561 12.1533C8.93297 11.7234 8.95692 11.2798 9.08535 10.8612C9.21379 10.4427 9.44281 10.062 9.75239 9.7524C10.062 9.44283 10.4427 9.21381 10.8612 9.08537C11.2797 8.95693 11.7234 8.93299 12.1533 9.01563C12.5833 9.09827 12.9864 9.28498 13.3275 9.55943C13.6686 9.83389 13.9373 10.1877 14.11 10.59H17.89C18.0599 10.1816 18.328 9.82149 18.6703 9.54143C19.0127 9.26138 19.4188 9.07007 19.8528 8.98444C20.2867 8.89882 20.7351 8.92153 21.1582 9.05055C21.5813 9.17958 21.966 9.41094 22.2783 9.72415C22.5907 10.0374 22.8209 10.4228 22.9487 10.8462C23.0766 11.2697 23.098 11.7181 23.0111 12.1518C22.9243 12.5855 22.7318 12.9911 22.4508 13.3327C22.1698 13.6742 21.8088 13.9412 21.4 14.11V17.89C21.8786 18.1007 22.2851 18.4469 22.5694 18.8857C22.8537 19.3246 23.0034 19.8371 23 20.36Z" fill="white"/>
<defs>
<linearGradient id="paint0_linear" x1="4.41" y1="4.41001" x2="27.69" y2="27.69" gradientUnits="userSpaceOnUse">
<stop stop-color="#FF962D"/>
<stop offset="1" stop-color="#FC7638"/>
</linearGradient>
</defs>
</svg>
