<svg width="16" height="16" viewBox="0 0 16 16" fill="none" xmlns="http://www.w3.org/2000/svg">
<path fill-rule="evenodd" clip-rule="evenodd" d="M14.7272 12.427C15.2033 12.4709 15.3241 12.6137 15.2023 13.0718C15.0745 13.5519 14.8959 14.02 14.7472 14.4941C14.7262 14.563 14.7442 14.6428 14.7442 14.7167C14.823 14.6947 14.9308 14.6987 14.9757 14.6478C15.1724 14.4213 15.378 14.1947 15.5307 13.9402C15.8171 13.4611 15.9659 12.9311 15.9968 12.3711C16.0168 12.0198 15.9499 11.933 15.6016 11.8561C15.4738 11.8272 15.342 11.8022 15.2113 11.7922C14.4767 11.7353 13.772 11.8262 13.1422 12.2444C13.0783 12.2863 13.0454 12.3761 12.9985 12.445C13.0773 12.466 13.1572 12.5109 13.233 12.5049C13.5624 12.4769 13.8908 12.434 14.1832 12.4011C14.3898 12.4101 14.5595 12.4111 14.7272 12.427ZM12.4265 14.5121C13.0993 14.2276 13.7231 13.8274 14.3639 13.4711C14.5046 13.3932 14.6593 13.2754 14.5436 13.0838C14.4377 12.9061 14.2671 12.963 14.1104 13.0279C14.0704 13.0439 14.0295 13.0618 13.9886 13.0778C12.9486 13.49 11.8796 13.8004 10.7757 13.9941C8.83133 14.3364 6.89499 14.2895 4.96563 13.9012C3.3926 13.5838 1.89742 13.0469 0.495066 12.2623C0.399246 12.2084 0.303427 12.1485 0.199623 12.1156C0.141732 12.0976 0.0668738 12.1286 0 12.1376C0.0119774 12.2104 0.016968 12.2863 0.0379284 12.3572C0.0469115 12.3861 0.0898305 12.4061 0.117778 12.431C2.35256 14.4003 4.96663 15.3695 7.31719 15.3984C9.49308 15.4014 10.9982 15.1169 12.4265 14.5121ZM9.09883 6.33951C8.62871 6.39241 8.18256 6.40838 7.75337 6.49921C6.64446 6.73477 6.0935 7.57518 6.28314 8.68509C6.40491 9.39475 6.92593 9.789 7.61862 9.67122C8.03184 9.60136 8.35124 9.3668 8.59977 9.02644C9.18666 8.22695 9.1128 7.30868 9.09883 6.33951ZM9.48011 10.2871C9.07986 10.5835 8.69259 10.9628 8.23146 11.1934C7.15949 11.7293 6.02563 11.8022 4.91971 11.3051C3.78985 10.7981 3.39859 9.66124 3.43751 8.5184C3.46246 7.78978 3.65909 7.11205 4.11723 6.52317C4.62527 5.8704 5.31197 5.47115 6.08751 5.2885C7.06766 5.05593 8.07077 4.92518 9.10082 4.74452C9.10681 4.34029 9.15273 3.86418 8.99502 3.40405C8.80338 2.8481 8.19154 2.60756 7.64657 2.66844C6.9399 2.74729 6.44184 3.11061 6.24022 3.82626C6.1484 4.15264 6.03461 4.21652 5.69525 4.1756C5.17324 4.11371 4.65022 4.04684 4.12921 3.97897C3.82977 3.93904 3.71898 3.77435 3.78486 3.47791C4.09527 2.06258 5.00555 1.21918 6.36099 0.836898C7.47689 0.520495 8.60476 0.511512 9.71566 0.878819C11.123 1.34294 11.7888 2.23825 11.8117 3.72545C11.8327 5.06791 11.8317 6.41138 11.8147 7.75284C11.8057 8.41959 12.0013 8.9945 12.4196 9.50554C12.731 9.88582 12.709 10.0176 12.3307 10.342C11.9375 10.6803 11.5452 11.0217 11.152 11.359C10.8845 11.5886 10.6818 11.6026 10.4423 11.355C10.0999 11.0017 9.78254 10.6254 9.48011 10.2871Z" fill="black"/>
</svg>
