<svg width="16" height="16" viewBox="0 0 16 16" fill="none" xmlns="http://www.w3.org/2000/svg">
<path fill-rule="evenodd" clip-rule="evenodd" d="M15.5911 1.98222L14.3556 0.488889C14.1156 0.186667 13.7511 0 13.3333 0H2.66667C2.24889 0 1.88444 0.186667 1.63556 0.488889L0.408889 1.98222C0.151111 2.28444 0 2.68444 0 3.11111V14.2222C0 15.2 0.8 16 1.77778 16H14.2222C15.2 16 16 15.2 16 14.2222V3.11111C16 2.68444 15.8489 2.28444 15.5911 1.98222ZM8 12.8889L3.11111 8H6.22222V6.22222H9.77778V8H12.8889L8 12.8889ZM1.88444 1.77778L2.60444 0.888889H13.2711L14.1067 1.77778H1.88444Z" fill="black"/>
</svg>
