<svg xmlns="http://www.w3.org/2000/svg" viewBox="0 0 16 16">
  <title>check-ins</title>
  <g id="Layer_1" data-name="Layer 1">
    <path d="M8,0C1.6,0,0,1.6,0,8s1.6,8,8,8,8-1.6,8-8S14.4,0,8,0Zm3.709,6.6L7.585,10.72a.931.931,0,0,1-1.317,0L4.291,8.744A.932.932,0,1,1,5.609,7.427L6.926,8.744,10.391,5.28A.932.932,0,1,1,11.709,6.6Z"/>
    <path d="M8,0C1.6,0,0,1.6,0,8s1.6,8,8,8,8-1.6,8-8S14.4,0,8,0Zm3.709,6.6L7.585,10.72a.931.931,0,0,1-1.317,0L4.291,8.744A.932.932,0,1,1,5.609,7.427L6.926,8.744,10.391,5.28A.932.932,0,1,1,11.709,6.6Z"/>
  </g>
</svg>
