<svg xmlns="http://www.w3.org/2000/svg" viewBox="0 0 16 16"><title>check-ins</title><g id="Layer_1" data-name="Layer 1"><path d="M8,0C1.60006,0,0,1.60006,0,8s1.60006,8,8,8,8-1.6,8-8S14.39994,0,8,0Zm3.70874,6.59726-4.12358,4.1228a.93151.93151,0,0,1-1.31743,0L4.29113,8.74431A.93148.93148,0,0,1,5.6086,7.42715L6.92644,8.74431l3.46493-3.46425a.93145.93145,0,1,1,1.31735,1.3172Z"/><path d="M8,0C1.60006,0,0,1.60006,0,8s1.60006,8,8,8,8-1.6,8-8S14.39994,0,8,0Zm3.70874,6.59726-4.12358,4.1228a.93151.93151,0,0,1-1.31743,0L4.29113,8.74431A.93148.93148,0,0,1,5.6086,7.42715L6.92644,8.74431l3.46493-3.46425a.93145.93145,0,1,1,1.31735,1.3172Z"/></g></svg>