<svg width="16" height="16" viewBox="0 0 16 16" fill="none" xmlns="http://www.w3.org/2000/svg">
<path fill-rule="evenodd" clip-rule="evenodd" d="M4.44443 0C3.46666 0 2.66666 0.8 2.66666 1.77778C2.66666 2.75556 3.46666 3.55556 4.44443 3.55556C5.42221 3.55556 6.22221 2.75556 6.22221 1.77778C6.22221 0.8 5.42221 0 4.44443 0ZM2.66666 8C2.66666 7.02222 3.46666 6.22222 4.44443 6.22222C5.42221 6.22222 6.22221 7.02222 6.22221 8C6.22221 8.97778 5.42221 9.77778 4.44443 9.77778C3.46666 9.77778 2.66666 8.97778 2.66666 8ZM4.44443 16C5.42221 16 6.22221 15.2 6.22221 14.2222C6.22221 13.2444 5.42221 12.4444 4.44443 12.4444C3.46666 12.4444 2.66666 13.2444 2.66666 14.2222C2.66666 15.2 3.46666 16 4.44443 16ZM13.3333 1.77778C13.3333 2.75556 12.5333 3.55556 11.5555 3.55556C10.5778 3.55556 9.77777 2.75556 9.77777 1.77778C9.77777 0.8 10.5778 0 11.5555 0C12.5333 0 13.3333 0.8 13.3333 1.77778ZM11.5555 6.22222C10.5778 6.22222 9.77777 7.02222 9.77777 8C9.77777 8.97778 10.5778 9.77778 11.5555 9.77778C12.5333 9.77778 13.3333 8.97778 13.3333 8C13.3333 7.02222 12.5333 6.22222 11.5555 6.22222ZM9.77777 14.2222C9.77777 13.2444 10.5778 12.4444 11.5555 12.4444C12.5333 12.4444 13.3333 13.2444 13.3333 14.2222C13.3333 15.2 12.5333 16 11.5555 16C10.5778 16 9.77777 15.2 9.77777 14.2222Z" fill="black"/>
</svg>
