<svg xmlns="http://www.w3.org/2000/svg" viewBox="0 0 16 16">
  <title>drop-caret</title>
  <g id="Layer_1" data-name="Layer 1">
    <g id="New_Symbol_37" data-name="New Symbol 37">
      <path d="M14.25,1.292H1.75A1.75,1.75,0,0,0,0,3.042v9.916a1.75,1.75,0,0,0,1.75,1.75h12.5A1.75,1.75,0,0,0,16,12.958V3.042A1.75,1.75,0,0,0,14.25,1.292Zm-1.9,5.421L8.409,10.664A.6.6,0,0,1,8,10.827a.616.616,0,0,1-.405-.163L3.646,6.713a.522.522,0,0,1-.124-.619.529.529,0,0,1,.53-.346h7.912a.563.563,0,0,1,.39.965Z" fill="#010101"/>
    </g>
  </g>
</svg>
