<svg width="16" height="16" viewBox="0 0 16 16" fill="none" xmlns="http://www.w3.org/2000/svg">
<path fill-rule="evenodd" clip-rule="evenodd" d="M15.2924 6.19488L8.86528 9.46497C8.52245 9.634 8.11391 9.71739 7.74151 9.71739C7.37459 9.71739 6.95728 9.63513 6.62322 9.47173L0.703176 6.52617C0.377875 6.36391 0 6.60956 0 6.98367V12.2314C0 12.8376 0.479737 13.3334 1.06572 13.3334H14.8138C15.4666 13.3334 16 12.7813 16 12.1074V6.65013C16 6.27376 15.6188 6.02924 15.2924 6.19488ZM0.220153 4.50688L7.27601 8.02938C7.52136 8.14995 7.92114 8.14995 8.17196 8.026L15.782 4.15868C15.9157 4.09107 16 3.95022 16 3.79697C16 3.17495 15.5082 2.66675 14.9058 2.66675H1.10734C0.498357 2.66675 0 3.18171 0 3.81162V4.14516C0 4.29954 0.0854326 4.44039 0.220153 4.50688Z" fill="#231F20"/>
</svg>
