<svg width="16" height="16" viewBox="0 0 16 16" fill="none" xmlns="http://www.w3.org/2000/svg">
<path fill-rule="evenodd" clip-rule="evenodd" d="M0 7.99996C1.25818 4.80723 4.36364 2.54541 8 2.54541C11.6364 2.54541 14.7418 4.80723 16 7.99996C14.7418 11.1927 11.6364 13.4545 8 13.4545C4.36364 13.4545 1.25818 11.1927 0 7.99996ZM8 3.99996C10.7564 3.99996 13.2145 5.54905 14.4145 7.99996C13.2145 10.4509 10.7636 12 8 12C5.23636 12 2.78545 10.4509 1.58545 7.99996C2.78545 5.54905 5.24364 3.99996 8 3.99996ZM4.72727 7.99996C4.72727 6.19632 6.19636 4.72723 8 4.72723C9.80364 4.72723 11.2727 6.19632 11.2727 7.99996C11.2727 9.80359 9.80364 11.2727 8 11.2727C6.19636 11.2727 4.72727 9.80359 4.72727 7.99996ZM9.81818 7.99996C9.81818 6.99632 9.00364 6.18177 8 6.18177C6.99636 6.18177 6.18182 6.99632 6.18182 7.99996C6.18182 9.00359 6.99636 9.81814 8 9.81814C9.00364 9.81814 9.81818 9.00359 9.81818 7.99996Z" fill="black"/>
</svg>
