<svg width="16" height="16" viewBox="0 0 16 16" fill="none" xmlns="http://www.w3.org/2000/svg">
<path fill-rule="evenodd" clip-rule="evenodd" d="M10.9091 0H2.9091C2.1091 0 1.46183 0.654545 1.46183 1.45455L1.45456 14.5455C1.45456 15.3455 2.10183 16 2.90183 16H13.0909C13.8909 16 14.5455 15.3455 14.5455 14.5455V3.63636L10.9091 0ZM10.7043 8.50478C10.2925 8.50314 9.88389 8.52364 9.47529 8.56956C9.0532 8.13169 8.64063 7.62411 8.3201 7.09686C8.43752 6.66965 8.52955 6.23342 8.58985 5.798C8.72949 4.78942 8.57478 4.04569 8.16618 3.75624C7.95672 3.60782 7.69886 3.59634 7.4783 3.72672C7.07922 3.95959 6.86897 4.60246 6.91657 5.44705C6.9491 6.0317 7.15459 6.62947 7.46005 7.20264C7.226 7.95785 6.9134 8.67944 6.57382 9.30755C5.85103 9.60274 5.17029 9.97584 4.55858 10.417C3.89133 10.9 3.58349 11.3583 3.64379 11.7814C3.67949 12.0324 3.84769 12.2316 4.09603 12.3161C4.18965 12.3481 4.29121 12.3636 4.39831 12.3636C4.8815 12.3636 5.48607 12.0529 5.99702 11.5223C6.36516 11.1394 6.7563 10.6031 7.12285 9.96764C7.78614 9.71754 8.48512 9.53714 9.19681 9.43136C9.67761 9.8922 10.1457 10.2563 10.5035 10.4695C11.0026 10.7671 11.5849 10.7343 11.9896 10.385C12.3165 10.1021 12.4434 9.67818 12.3133 9.30427C12.2101 9.00825 11.865 8.51216 10.7043 8.50478ZM5.43442 10.944C5.0639 11.3294 4.72829 11.4827 4.52518 11.5286C4.60611 11.427 4.75209 11.2785 5.01391 11.09C5.23289 10.9309 5.46139 10.7825 5.69862 10.6439C5.60976 10.7538 5.5209 10.8546 5.43442 10.944ZM7.80415 5.68116C7.8819 5.12274 7.83985 4.77917 7.78828 4.59549C7.73592 4.74309 7.68593 4.99975 7.70815 5.40072C7.71687 5.54996 7.74068 5.70329 7.77797 5.85745C7.78749 5.79923 7.79621 5.74019 7.80415 5.68116ZM7.6538 8.93166C7.77995 8.65451 7.89817 8.36751 8.00686 8.07232C8.16951 8.29699 8.34247 8.51347 8.52019 8.71929C8.22822 8.77833 7.93863 8.84885 7.6538 8.93166ZM10.9002 9.75969C11.1517 9.90893 11.3652 9.85645 11.481 9.75559C11.5461 9.69983 11.5818 9.62603 11.5667 9.58093C11.5421 9.51123 11.339 9.32837 10.6995 9.32509C10.6551 9.32564 10.6106 9.32591 10.5662 9.32619C10.4773 9.32673 10.3885 9.32728 10.2996 9.33001C10.5178 9.50713 10.7225 9.65309 10.9002 9.75969ZM2.9091 1.45455V14.5455H13.0909V4.36364H10.1818V1.45455H2.9091Z" fill="black"/>
</svg>
