<svg width="16" height="16" viewBox="0 0 16 16" fill="none" xmlns="http://www.w3.org/2000/svg">
<path fill-rule="evenodd" clip-rule="evenodd" d="M12.7266 12.7725H1.59082V9.59084H5.70311H7.29393H7.32654H12.7266H14.3174L12.7266 12.7725ZM1.59082 3.22754H5.70311L7.29393 4.81837H12.7266V8.00002H7.95412H6.3633H5.70311H1.59082V3.22754ZM14.3174 4.81837C14.3174 3.94341 13.6015 3.22754 12.7266 3.22754H7.95412L6.3633 1.63672H1.59082C0.715871 1.63672 0.00795412 2.35259 0.00795412 3.22754L0 8.00002C0 8.0024 0 12.7725 0 12.7725C0 13.6474 0.715871 14.3633 1.59082 14.3633H12.7266C13.522 14.3633 13.8579 13.6004 14.3174 12.7725C14.7769 11.9446 15.3384 10.763 15.9107 9.59084C16.2719 8.85111 15.4967 8.00002 14.3174 8.00002V4.81837Z" fill="black"/>
</svg>
