<svg width="16" height="16" viewBox="0 0 16 16" fill="none" xmlns="http://www.w3.org/2000/svg">
<path fill-rule="evenodd" clip-rule="evenodd" d="M16 12.8081L0 12.8001V14.4001H16V12.8081ZM6.85695 11.4881L6.18338 9.14409H2.78858L2.10828 11.4881H0L3.19946 1.6001H5.75229L8.96523 11.4881H6.85695ZM5.69841 7.39281L5.06525 5.23738C5.03831 5.15655 4.9979 5.02408 4.94401 4.83997C4.89012 4.65586 4.83287 4.45267 4.77225 4.23039C4.71163 4.00811 4.65437 3.78471 4.60049 3.56019C4.5466 3.33566 4.50843 3.14482 4.48598 2.98765C4.46802 3.08644 4.44444 3.2032 4.41526 3.33791C4.38607 3.47263 4.35239 3.6152 4.31422 3.76563C4.27605 3.91606 4.23676 4.06761 4.19635 4.22029C4.15593 4.37296 4.11776 4.51666 4.08184 4.65137C4.04591 4.78609 4.01336 4.90508 3.98417 5.00837C3.95498 5.11165 3.93365 5.18798 3.92018 5.23738L3.29376 7.39281H5.69841ZM14.5653 11.4881L14.1679 10.4643H14.1073C13.9591 10.6664 13.8109 10.8404 13.6627 10.9863C13.5145 11.1322 13.3529 11.2524 13.1777 11.3467C13.0026 11.441 12.8062 11.5106 12.5884 11.5555C12.3706 11.6004 12.118 11.6228 11.8306 11.6228C11.5252 11.6228 11.2423 11.5746 10.9819 11.478C10.7214 11.3815 10.4958 11.2355 10.305 11.0402C10.1141 10.8449 9.96481 10.5979 9.85703 10.2993C9.74926 10.0006 9.69538 9.64703 9.69538 9.23839C9.69538 8.43908 9.95133 7.84971 10.4632 7.47027C10.9752 7.09082 11.7408 6.88089 12.7601 6.84048L13.9591 6.80006V6.23426C13.9591 5.92442 13.8693 5.69541 13.6897 5.54722C13.51 5.39904 13.2586 5.32494 12.9353 5.32494C12.6119 5.32494 12.2965 5.37209 11.9889 5.46639C11.6813 5.56069 11.3726 5.68643 11.0627 5.84359L10.3959 4.48298C10.7731 4.27193 11.1907 4.10578 11.6487 3.98454C12.1068 3.86329 12.5872 3.80267 13.0902 3.80267C14.0287 3.80267 14.7483 4.02271 15.249 4.46277C15.7497 4.90284 16 5.57192 16 6.47001V11.4881H14.5653ZM13.9591 7.99902L13.2788 8.02596C13.0049 8.03494 12.7736 8.07087 12.585 8.13373C12.3964 8.1966 12.2448 8.2808 12.1303 8.38632C12.0158 8.49185 11.9328 8.61758 11.8811 8.76352C11.8295 8.90946 11.8037 9.07224 11.8037 9.25186C11.8037 9.5662 11.88 9.78959 12.0327 9.92206C12.1853 10.0545 12.3852 10.1208 12.6321 10.1208C12.8207 10.1208 12.9959 10.0882 13.1575 10.0231C13.3192 9.95799 13.4595 9.86144 13.5785 9.73347C13.6975 9.60549 13.7907 9.44832 13.858 9.26197C13.9254 9.07561 13.9591 8.86119 13.9591 8.61871V7.99902Z" fill="black"/>
</svg>
