<svg xmlns="http://www.w3.org/2000/svg" viewBox="0 0 16 16">
  <title>help</title>
  <g id="Layer_1" data-name="Layer 1">
    <path d="M8,.012a7.766,7.766,0,0,1,3.108.624,8.15,8.15,0,0,1,2.542,1.712A7.918,7.918,0,0,1,15.977,8a7.87,7.87,0,0,1-.62,3.112,7.957,7.957,0,0,1-1.709,2.542,8.159,8.159,0,0,1-2.542,1.709A7.766,7.766,0,0,1,8,15.988a7.809,7.809,0,0,1-3.114-.624A7.979,7.979,0,0,1,.635,11.113,7.77,7.77,0,0,1,.009,8,7.793,7.793,0,0,1,.635,4.885,8.011,8.011,0,0,1,4.884.636,7.809,7.809,0,0,1,8,.012ZM9.838,8.66h0a5.2,5.2,0,0,0,.5-.459,4.919,4.919,0,0,0,.459-.571,2.728,2.728,0,0,0,.345-.694,2.8,2.8,0,0,0,.13-.905,2.6,2.6,0,0,0-.275-1.212,2.553,2.553,0,0,0-.734-.873,3.512,3.512,0,0,0-1.036-.53,3.763,3.763,0,0,0-1.144-.185A3.63,3.63,0,0,0,6.944,3.4a5.123,5.123,0,0,0-.855.355,2.6,2.6,0,0,0-.53.355c-.121.11-.188.171-.2.185a.3.3,0,0,0-.031.39l.951,1.15a.274.274,0,0,0,.2.118.464.464,0,0,0,.23-.059l.1-.079a1.81,1.81,0,0,1,.273-.176,2.43,2.43,0,0,1,.392-.165A1.481,1.481,0,0,1,7.939,5.4a1.089,1.089,0,0,1,.693.224.705.705,0,0,1,.286.575.937.937,0,0,1-.245.645,7.619,7.619,0,0,1-.616.605c-.153.121-.308.255-.465.4a3.114,3.114,0,0,0-.428.516,2.71,2.71,0,0,0-.316.635,2.415,2.415,0,0,0-.121.8v.64a.28.28,0,0,0,.092.208.276.276,0,0,0,.208.09h1.64a.265.265,0,0,0,.206-.09.29.29,0,0,0,.086-.208V9.93a.93.93,0,0,1,.255-.664Q9.467,8.99,9.838,8.66ZM8.959,11.6a.3.3,0,0,0-.082-.208.261.261,0,0,0-.21-.092H7.027a.315.315,0,0,0-.3.3v1.56a.3.3,0,0,0,.092.214.272.272,0,0,0,.208.1h1.64a.261.261,0,0,0,.206-.1.307.307,0,0,0,.086-.214Z" fill="#231f20"/>
  </g>
</svg>
