<svg xmlns="http://www.w3.org/2000/svg" viewBox="0 0 16 16"><title>help</title><g id="Layer_1" data-name="Layer 1"><path d="M8,0a7.75,7.75,0,0,1,3.11.63,8,8,0,0,1,2.54,1.71,8.19,8.19,0,0,1,1.71,2.53A8,8,0,0,1,16,8a7.88,7.88,0,0,1-.62,3.11,8.12,8.12,0,0,1-1.71,2.54,8,8,0,0,1-2.54,1.71A7.75,7.75,0,0,1,8,16a7.77,7.77,0,0,1-3.12-.63A7.93,7.93,0,0,1,.64,11.11,7.72,7.72,0,0,1,0,8,7.8,7.8,0,0,1,.64,4.88a8,8,0,0,1,1.7-2.53A7.9,7.9,0,0,1,4.88.64,7.77,7.77,0,0,1,8,0ZM9.84,8.66h0a5.16,5.16,0,0,0,.49-.46,3.7,3.7,0,0,0,.46-.57,3.19,3.19,0,0,0,.35-.69A3.07,3.07,0,0,0,11.27,6,2.51,2.51,0,0,0,11,4.82,2.48,2.48,0,0,0,10.26,4a3.41,3.41,0,0,0-1-.53,3.5,3.5,0,0,0-1.14-.19,3.69,3.69,0,0,0-1.14.17,5,5,0,0,0-.85.35,2.65,2.65,0,0,0-.53.36l-.2.18a.29.29,0,0,0,0,.39l1,1.15a.31.31,0,0,0,.2.12.46.46,0,0,0,.23-.06l.1-.08a1.85,1.85,0,0,1,.27-.17,2.3,2.3,0,0,1,.39-.17,1.45,1.45,0,0,1,.47-.07,1.14,1.14,0,0,1,.69.22.73.73,0,0,1,.29.58.89.89,0,0,1-.25.64,7,7,0,0,1-.61.61c-.16.12-.31.26-.47.4a4.4,4.4,0,0,0-.43.52A2.84,2.84,0,0,0,6.85,9a2.45,2.45,0,0,0-.12.8v.64a.31.31,0,0,0,.3.3H8.67a.25.25,0,0,0,.2-.09A.29.29,0,0,0,9,10.44V9.93a.92.92,0,0,1,.25-.66A7.49,7.49,0,0,1,9.84,8.66ZM9,11.6a.32.32,0,0,0-.08-.21.29.29,0,0,0-.21-.09H7a.31.31,0,0,0-.3.3v1.56a.29.29,0,0,0,.09.21.26.26,0,0,0,.21.1H8.67a.23.23,0,0,0,.2-.1A.29.29,0,0,0,9,13.16Z"/></g></svg>