<svg xmlns="http://www.w3.org/2000/svg" viewBox="0 0 16 16"><title>home</title><g id="Layer_1" data-name="Layer 1"><g id="New_Symbol_37" data-name="New Symbol 37"><path d="M15.7,8.39,9.11,1.61a1.53,1.53,0,0,0-2.21,0L.31,8.39a.88.88,0,0,0,0,1.21.82.82,0,0,0,1.17,0l.27-.27v3.54a1.89,1.89,0,0,0,1.86,1.92h8.8a1.9,1.9,0,0,0,1.86-1.92V9.33l.26.27a.81.81,0,0,0,1.17,0A.86.86,0,0,0,15.7,8.39Zm-3.09,4.48a.2.2,0,0,1-.2.21H3.61a.2.2,0,0,1-.2-.21V7.62L8,2.88l4.6,4.74Zm-3.7-2.11H7.1A.72.72,0,0,1,6.39,10V8.16a.72.72,0,0,1,.71-.73H8.91a.72.72,0,0,1,.71.73V10A.72.72,0,0,1,8.91,10.76Z"/></g></g></svg>