<svg xmlns="http://www.w3.org/2000/svg" viewBox="0 0 16 16">
  <title>home</title>
  <g id="Layer_1" data-name="Layer 1">
    <g id="New_Symbol_37" data-name="New Symbol 37">
      <path d="M15.7,8.392,9.111,1.608a1.533,1.533,0,0,0-2.21,0L.31,8.392A.871.871,0,0,0,.31,9.6a.811.811,0,0,0,1.172,0l.264-.271v3.546a1.891,1.891,0,0,0,1.861,1.914h8.8a1.891,1.891,0,0,0,1.861-1.914V9.328l.264.271a.812.812,0,0,0,1.172,0A.871.871,0,0,0,15.7,8.392Zm-3.1,4.482a.2.2,0,0,1-.2.207h-8.8a.2.2,0,0,1-.2-.207V7.62l4.6-4.735,4.6,4.735Z" fill="#231f20"/>
      <path d="M8.911,10.762H7.1a.725.725,0,0,1-.714-.735V8.165A.725.725,0,0,1,7.1,7.43h1.81a.725.725,0,0,1,.714.735v1.862A.725.725,0,0,1,8.911,10.762Z" fill="#231f20"/>
    </g>
  </g>
</svg>
