<svg width="16" height="16" viewBox="0 0 16 16" fill="none" xmlns="http://www.w3.org/2000/svg">
<path fill-rule="evenodd" clip-rule="evenodd" d="M10.404 6.07993H14.704C15.204 6.07993 15.604 5.67993 15.604 5.17993C15.604 4.77993 15.304 4.37993 14.804 4.37993H12.504L15.304 1.57993C15.604 1.37993 15.604 0.979932 15.504 0.679932C15.304 0.379932 15.004 0.179932 14.704 0.179932H10.404C10.004 0.179932 9.60405 0.679932 9.60405 1.07993C9.60405 1.47993 9.90405 1.87993 10.404 1.87993H12.804L9.90405 4.67993C9.60405 4.87993 9.60405 5.27993 9.60405 5.57993C9.80405 5.87993 10.104 6.07993 10.404 6.07993ZM1.60405 15.8799H7.70405C8.30405 15.8799 8.80405 15.3799 8.90405 14.7799C8.90405 14.1799 8.40405 13.6799 7.80405 13.6799H4.40405L8.50405 9.57993C8.80405 9.27993 8.90405 8.77993 8.70405 8.37993C8.50405 7.97993 8.10405 7.67993 7.70405 7.67993H1.60405C1.00405 7.67993 0.504052 8.17993 0.504052 8.77993C0.504052 9.37993 1.00405 9.87993 1.60405 9.87993H4.90405L0.804052 13.9799C0.504052 14.2799 0.404052 14.7799 0.604052 15.1799C0.804052 15.5799 1.20405 15.8799 1.60405 15.8799Z" fill="black"/>
</svg>
