<svg width="16" height="16" viewBox="0 0 16 16" fill="none" xmlns="http://www.w3.org/2000/svg">
<path fill-rule="evenodd" clip-rule="evenodd" d="M10.9384 3.704C10.8968 3.6768 10.8472 3.6616 10.7888 3.6616C10.7504 3.6616 10.616 3.6816 10.4888 3.7048C9.9312 3.8088 6.6448 4.4784 6.5888 4.4992C6.5016 4.532 6.416 4.6104 6.3752 4.6936L6.34 4.7632L6.3328 7.2488C6.3256 9.6 6.324 9.7368 6.2984 9.7928C6.26 9.8784 6.1752 9.9584 6.0968 9.9848C6.06 9.9968 5.9136 10.0304 5.7704 10.0592C5.1112 10.1936 4.8664 10.2904 4.6584 10.4984C4.5416 10.6168 4.4544 10.7784 4.4168 10.948C4.3808 11.1096 4.392 11.352 4.444 11.4984C4.496 11.6488 4.58 11.7768 4.6888 11.8784C4.7928 11.964 4.9176 12.028 5.0584 12.0648C5.36 12.1448 5.9248 12.056 6.2144 11.8856C6.3352 11.8144 6.4904 11.6632 6.5712 11.5408C6.6032 11.4912 6.652 11.3928 6.6784 11.3216C6.7728 11.072 6.7704 11.1248 6.7704 8.7712C6.7712 7.2392 6.776 6.6168 6.788 6.56C6.808 6.4648 6.8712 6.3952 6.9592 6.372C7.0384 6.3504 10.2032 5.7104 10.292 5.6968C10.372 5.6864 10.4464 5.7136 10.4864 5.7656C10.5096 5.7792 10.5296 5.7944 10.544 5.816C10.5688 5.8544 10.5704 5.932 10.5744 7.3432C10.5792 8.9664 10.5808 8.928 10.4944 9.0304C10.432 9.1056 10.3544 9.1344 10.032 9.2016C9.5424 9.3032 9.3752 9.3528 9.188 9.4456C8.9536 9.5624 8.8232 9.6904 8.7232 9.904C8.6528 10.0544 8.6256 10.1672 8.6256 10.3176C8.6256 10.5856 8.7168 10.7944 8.9208 11C8.9392 11.0192 8.9576 11.0368 8.9768 11.0536C9.0792 11.1344 9.184 11.1832 9.3152 11.2144C9.5136 11.2608 9.9184 11.2296 10.1944 11.1472C10.5864 11.0296 10.8616 10.7448 10.9752 10.3424L11.0088 10.2232L11.0136 7.0512C11.0168 4.6752 11.0136 3.8632 11 3.8192C10.9872 3.7728 10.9656 3.7344 10.9384 3.704ZM8 0C3.5888 0 0 3.5888 0 8C0 12.412 3.5888 16 8 16C12.4112 16 16 12.412 16 8C16 3.5888 12.4112 0 8 0ZM8 1.3336C11.6824 1.3336 14.6664 4.3192 14.6664 8C14.6664 11.6824 11.6824 14.6672 8 14.6672C4.3184 14.6672 1.3336 11.6824 1.3336 8C1.3336 4.3192 4.3184 1.3336 8 1.3336Z" fill="#231F20"/>
</svg>
