<svg width="16" height="16" viewBox="0 0 16 16" fill="none" xmlns="http://www.w3.org/2000/svg">
<path fill-rule="evenodd" clip-rule="evenodd" d="M10.3501 6.64762V8.76556C10.3501 8.82174 10.3104 8.87792 10.2536 8.89478L8.15966 9.51836C8.05185 9.55207 7.93268 9.55207 7.82486 9.52398L5.74793 8.90601C5.69118 8.88916 5.65146 8.8386 5.65146 8.7768V6.64762C5.65146 6.57459 5.72523 6.52403 5.79333 6.5465L7.49005 7.04649C7.83053 7.14761 8.18804 7.14761 8.51717 7.03526L10.2025 6.54088C10.2763 6.51841 10.3501 6.56897 10.3501 6.64762ZM11.7971 9.43971C11.7971 9.71499 11.6099 9.96218 11.3375 10.0408L8.38665 10.9341C8.14264 11.0127 7.87593 11.0127 7.62057 10.9341L5.69118 10.3667C5.66848 10.361 5.65146 10.3723 5.65146 10.3948V11.8048C5.65146 11.9565 5.50392 12.0633 5.35638 12.0183L4.36898 11.7323C4.27251 11.7037 4.20442 11.6143 4.20442 11.5127V5.68696C4.20442 5.15888 4.72649 4.77125 5.24856 4.91731L7.86458 5.68696C7.9497 5.70943 8.03482 5.70382 8.11994 5.68134L10.7133 4.91169C11.2524 4.74316 11.7971 5.14203 11.7971 5.70382V9.43971ZM14.165 1.6191L9.3044 0.188072C8.4532 -0.0626905 7.5468 -0.0626905 6.6956 0.188072L1.83498 1.6191C0.742866 1.95924 0 2.96127 0 4.09506V11.9049C0 13.0387 0.742866 14.0408 1.83498 14.3809L6.6956 15.8119C7.5468 16.0627 8.4532 16.0627 9.3044 15.8119L14.165 14.3809C15.2571 14.0408 16 13.0387 16 11.9049V4.09506C16 2.96127 15.2571 1.95924 14.165 1.6191Z" fill="black"/>
</svg>
