<svg xmlns="http://www.w3.org/2000/svg" viewBox="0 0 16 16"><title>logout</title><g id="Layer_1" data-name="Layer 1"><path d="M13.58,7.25a1.1,1.1,0,0,1,.57.42,1.16,1.16,0,0,1,.22.7v6.37a1.16,1.16,0,0,1-.35.83,1.13,1.13,0,0,1-.83.36H2.82A1.11,1.11,0,0,1,2,15.57a1.13,1.13,0,0,1-.36-.83V8.37a1.15,1.15,0,0,1,.8-1.12V5.58a5.46,5.46,0,0,1,.43-2.17,5.54,5.54,0,0,1,1.2-1.77A5.44,5.44,0,0,1,5.83.44,5.51,5.51,0,0,1,8,0a5.45,5.45,0,0,1,2.16.44A5.59,5.59,0,0,1,12,1.64a5.52,5.52,0,0,1,1.63,3.94V7.25ZM11.19,5.58a3.13,3.13,0,0,0-.94-2.26,3.23,3.23,0,0,0-1-.67A3,3,0,0,0,8,2.4a3,3,0,0,0-1.24.25,3.47,3.47,0,0,0-1,.67,3.28,3.28,0,0,0-.69,1,3.19,3.19,0,0,0-.25,1.24V7.17h6.38ZM8.64,11.37a1.27,1.27,0,0,0,.46-.46,1.23,1.23,0,0,0,.17-.62,1.26,1.26,0,0,0-.37-.91,1.24,1.24,0,0,0-1.79,0,1.26,1.26,0,0,0-.37.91,1.25,1.25,0,0,0,.62,1.07l-.62,2.53H9.27Z"/></g></svg>