<svg xmlns="http://www.w3.org/2000/svg" viewBox="0 0 16 16">
  <title>logout</title>
  <g id="Layer_1" data-name="Layer 1">
    <path d="M13.585,7.246a1.118,1.118,0,0,1,.568.427,1.178,1.178,0,0,1,.215.7v6.363a1.148,1.148,0,0,1-.352.834,1.126,1.126,0,0,1-.827.356H2.822a1.146,1.146,0,0,1-.834-.356,1.137,1.137,0,0,1-.356-.834V8.374a1.18,1.18,0,0,1,.217-.7,1.157,1.157,0,0,1,.577-.427V5.579a5.443,5.443,0,0,1,.435-2.164A5.719,5.719,0,0,1,4.055,1.636,5.619,5.619,0,0,1,5.834.437a5.6,5.6,0,0,1,4.336,0,5.6,5.6,0,0,1,2.979,2.984,5.43,5.43,0,0,1,.436,2.158V7.246Zm-2.4-1.667a3.117,3.117,0,0,0-.935-2.255A3.277,3.277,0,0,0,9.23,2.648,3.092,3.092,0,0,0,8.005,2.4a3.059,3.059,0,0,0-1.24.249,3.418,3.418,0,0,0-1.012.676,3.059,3.059,0,0,0-.69,1.011,3.137,3.137,0,0,0-.249,1.244V7.166h6.372ZM8.644,11.373a1.351,1.351,0,0,0,.451-.46,1.189,1.189,0,0,0,.177-.624,1.257,1.257,0,0,0-.371-.9,1.243,1.243,0,0,0-1.791,0,1.248,1.248,0,0,0-.371.9,1.21,1.21,0,0,0,.17.624,1.185,1.185,0,0,0,.449.443l-.619,2.538H9.272Z" fill="#231f20"/>
  </g>
</svg>
