<svg xmlns="http://www.w3.org/2000/svg" viewBox="0 0 16 16"><title>music stand</title><g id="Layer_1" data-name="Layer 1"><path d="M8,.029C1.623.029.029,1.623.029,8S1.623,15.971,8,15.971,15.971,14.377,15.971,8,14.377.029,8,.029Zm3.544,9.638-.013,0c.028.592-.637,1.144-1.526,1.249-.916.107-1.717-.3-1.788-.911S8.83,8.808,9.745,8.7a2.31,2.31,0,0,1,.826.051V5.81L6.536,7.124V10.78H6.518A1.616,1.616,0,0,1,5,11.886c-.916.107-1.716-.3-1.788-.911s.613-1.193,1.529-1.3a2.3,2.3,0,0,1,.825.051v-3.4c0-.185.048-.432.226-.49.838-.271,4.928-1.614,5.456-1.765a.271.271,0,0,1,.3.222Z"/></g></svg>