<svg width="16" height="16" viewBox="0 0 16 16" fill="none" xmlns="http://www.w3.org/2000/svg">
<path fill-rule="evenodd" clip-rule="evenodd" d="M10.9091 7.27282C12.1164 7.27282 13.0836 6.29827 13.0836 5.091C13.0836 3.88373 12.1164 2.90918 10.9091 2.90918C9.70182 2.90918 8.72727 3.88373 8.72727 5.091C8.72727 6.29827 9.70182 7.27282 10.9091 7.27282ZM5.09091 7.27282C6.29818 7.27282 7.26545 6.29827 7.26545 5.091C7.26545 3.88373 6.29818 2.90918 5.09091 2.90918C3.88364 2.90918 2.90909 3.88373 2.90909 5.091C2.90909 6.29827 3.88364 7.27282 5.09091 7.27282ZM5.09091 8.72736C3.39636 8.72736 0 9.57827 0 11.2728V13.091H10.1818V11.2728C10.1818 9.57827 6.78545 8.72736 5.09091 8.72736ZM10.9091 8.72736C10.6982 8.72736 10.4582 8.74191 10.2036 8.76373C11.0473 9.37463 11.6364 10.1965 11.6364 11.2728V13.091H16V11.2728C16 9.57827 12.6036 8.72736 10.9091 8.72736Z" fill="black"/>
</svg>
