<svg xmlns="http://www.w3.org/2000/svg" viewBox="0 0 16 16"><title>people</title><g id="Layer_1" data-name="Layer 1"><path d="M5.22,8,5.08,8l-.71-.31V7.1a1.17,1.17,0,0,1,.11-.36l.12-.33A2.35,2.35,0,0,0,4.73,6a2.23,2.23,0,0,0,0-.56,3.14,3.14,0,0,0-.07-.7,1.15,1.15,0,0,0-.28-.56A.87.87,0,0,0,4,3.86a1.53,1.53,0,0,0-.45-.08,1.35,1.35,0,0,0-.43.08.87.87,0,0,0-.4.3,1.18,1.18,0,0,0-.3.56,3.13,3.13,0,0,0-.08.7A2.83,2.83,0,0,0,2.4,6a3.52,3.52,0,0,0,.13.43,2.52,2.52,0,0,0,.13.33,2.22,2.22,0,0,1,.11.36v.5l-.7.29a2.87,2.87,0,0,1-.4.18l-.43.18-.57.24a.84.84,0,0,0-.49.45.85.85,0,0,0-.12.38v1.56H1.15c0-.08.05-.16.08-.25s.07-.17.11-.25a3.94,3.94,0,0,1,.46-.69,2,2,0,0,1,.43-.38A2.27,2.27,0,0,1,2.77,9l.35-.14.28-.12.29-.12.68-.27.1,0,.26-.11L5,8.11ZM11,8.13l.47.2.2.08.29.14.3.11,0,0,.55.22.36.14a2.48,2.48,0,0,1,.95.65,4.9,4.9,0,0,1,.45.67,2.68,2.68,0,0,1,.18.52h1.11V9.32a1.21,1.21,0,0,0-.12-.38.91.91,0,0,0-.5-.45l-.57-.24a3.79,3.79,0,0,0-.42-.18,3,3,0,0,1-.41-.18l-.33-.15-.3-.14V7.1a1.53,1.53,0,0,1,.11-.36c0-.1.09-.21.13-.33A3.45,3.45,0,0,0,13.64,6a2.23,2.23,0,0,0,0-.56,3.14,3.14,0,0,0-.07-.7,1.38,1.38,0,0,0-.3-.56.89.89,0,0,0-.41-.3,1.35,1.35,0,0,0-.42-.08,1.54,1.54,0,0,0-.46.08.89.89,0,0,0-.41.3,1.16,1.16,0,0,0-.29.56,3.86,3.86,0,0,0-.07.7,2.83,2.83,0,0,0,.05.56c0,.14.08.29.13.43a2.52,2.52,0,0,0,.13.33,1.53,1.53,0,0,1,.11.36v.54l-.36.13L10.91,8,10.77,8Z"/><g id="New_Symbol_37-2" data-name="New Symbol 37"><path d="M13.68,10.67c-.36-.55-1.55-.9-2.73-1.39a13.91,13.91,0,0,1-1.46-.66V7.49a2.14,2.14,0,0,0,.58-1.41c.27.08.56-.41.58-.67s0-.94-.37-.87a8.33,8.33,0,0,0,.09-1.24A2.26,2.26,0,0,0,8,1.43,2.26,2.26,0,0,0,5.64,3.3a8.33,8.33,0,0,0,.09,1.24c-.33-.07-.39.62-.37.87s.31.75.58.67a2.14,2.14,0,0,0,.58,1.41V8.62a13.91,13.91,0,0,1-1.46.66c-1.18.49-2.37.84-2.73,1.39a10.13,10.13,0,0,0-.22,2.88H13.9A10.13,10.13,0,0,0,13.68,10.67Z"/></g></g></svg>