<svg width="16" height="16" viewBox="0 0 16 16" fill="none" xmlns="http://www.w3.org/2000/svg">
<path fill-rule="evenodd" clip-rule="evenodd" d="M1.40418 5.75224C3.27624 9.22435 5.8846 12.2754 9.0576 14.708L10.2247 15.602C10.9286 16.1415 11.9261 16.1311 12.6171 15.5791L14.6597 13.946L14.9923 13.6809C15.5882 13.2048 15.6713 12.3524 15.179 11.7754L13.6114 9.94164C13.1202 9.36573 12.2382 9.28464 11.6422 9.76076L9.6665 11.3398C7.85058 9.70047 6.26246 7.84174 4.93993 5.80941L6.91563 4.23033C7.51158 3.75421 7.59471 2.90074 7.10241 2.32483L5.5348 0.491053C5.0425 -0.0848604 4.16045 -0.165946 3.5645 0.31017L3.23305 0.575257L1.19042 2.20736C0.498382 2.7604 0.300812 3.70535 0.715385 4.47463L1.40418 5.75224Z" fill="black"/>
</svg>
