<svg width="16" height="16" viewBox="0 0 16 16" fill="none" xmlns="http://www.w3.org/2000/svg">
<path fill-rule="evenodd" clip-rule="evenodd" d="M9.71413 2.52691V1.71411H10.1739C10.3328 1.71411 10.4917 1.75251 10.6517 1.83038C10.8096 1.90611 10.9536 2.01918 11.0848 2.16851C11.2139 2.31784 11.3195 2.50238 11.4037 2.72424C11.488 2.94611 11.5296 3.20104 11.5296 3.48904V5.95411C11.5296 6.18984 11.5584 6.40638 11.6171 6.60478C11.6757 6.80424 11.7536 6.97278 11.8496 7.11251C11.9445 7.25331 12.0565 7.36104 12.1813 7.43784C12.3072 7.51464 12.4363 7.55304 12.5717 7.55304V8.47464C12.4363 8.47464 12.3072 8.50984 12.1813 8.58344C12.0565 8.65491 11.9445 8.75944 11.8496 8.89491C11.7536 9.03038 11.6757 9.19678 11.6171 9.39518C11.5584 9.59464 11.5296 9.81544 11.5296 10.0597V12.5109C11.5296 12.801 11.488 13.056 11.4037 13.2768C11.3195 13.4976 11.2139 13.6832 11.0848 13.8325C10.9536 13.9808 10.8096 14.0949 10.6517 14.1706C10.4917 14.2474 10.3328 14.2858 10.1739 14.2858H9.71413V13.473H9.9232C10.048 13.473 10.1493 13.4389 10.224 13.3717C10.2997 13.3045 10.3595 13.2138 10.4064 13.1008C10.4523 12.9888 10.4843 12.8608 10.5003 12.7221C10.5163 12.5813 10.5248 12.4437 10.5248 12.3082V9.84211C10.5248 9.49971 10.5696 9.21491 10.6571 8.98984C10.7456 8.76371 10.8469 8.58024 10.9643 8.44051C11.0816 8.30078 11.2021 8.19838 11.3227 8.13651C11.4443 8.07251 11.5413 8.03624 11.6171 8.02771V7.98611C11.5413 7.96904 11.4443 7.92424 11.3227 7.85171C11.2021 7.77918 11.0816 7.67038 10.9643 7.52638C10.8469 7.38238 10.7456 7.19891 10.6571 6.97811C10.5696 6.75624 10.5248 6.48851 10.5248 6.17171V3.69278C10.5248 3.54771 10.5163 3.40584 10.5003 3.26611C10.4843 3.12638 10.4523 3.00158 10.4064 2.89384C10.3595 2.78398 10.2997 2.69651 10.224 2.62931C10.1493 2.56104 10.048 2.52691 9.9232 2.52691H9.71413ZM13.1424 2.52691V1.71411H13.6021C13.7611 1.71411 13.92 1.75251 14.08 1.83038C14.2379 1.90611 14.3819 2.01918 14.5131 2.16851C14.6421 2.31784 14.7488 2.50238 14.8331 2.72424C14.9163 2.94611 14.9589 3.20104 14.9589 3.48904V5.95411C14.9589 6.18984 14.9867 6.40638 15.0453 6.60478C15.104 6.80424 15.1819 6.97278 15.2779 7.11251C15.3739 7.25331 15.4859 7.36104 15.6107 7.43784C15.7365 7.51464 15.8656 7.55304 16 7.55304V8.47464C15.8656 8.47464 15.7365 8.50984 15.6107 8.58344C15.4859 8.65491 15.3739 8.75944 15.2779 8.89491C15.1819 9.03038 15.104 9.19678 15.0453 9.39518C14.9867 9.59464 14.9589 9.81544 14.9589 10.0597V12.5109C14.9589 12.801 14.9163 13.056 14.8331 13.2768C14.7488 13.4976 14.6421 13.6832 14.5131 13.8325C14.3819 13.9808 14.2379 14.0949 14.08 14.1706C13.92 14.2474 13.7611 14.2858 13.6021 14.2858H13.1424V13.473H13.3515C13.4763 13.473 13.5776 13.4389 13.6523 13.3717C13.7291 13.3045 13.7888 13.2138 13.8347 13.1008C13.8816 12.9888 13.9125 12.8608 13.9285 12.7221C13.9456 12.5813 13.9531 12.4437 13.9531 12.3082V9.84211C13.9531 9.49971 13.9989 9.21491 14.0853 8.98984C14.1739 8.76371 14.2763 8.58024 14.3936 8.44051C14.5109 8.30078 14.6304 8.19838 14.7509 8.13651C14.8725 8.07251 14.9707 8.03624 15.0453 8.02771V7.98611C14.9707 7.96904 14.8725 7.92424 14.7509 7.85171C14.6304 7.77918 14.5109 7.67038 14.3936 7.52638C14.2763 7.38238 14.1739 7.19891 14.0853 6.97811C13.9989 6.75624 13.9531 6.48851 13.9531 6.17171V3.69278C13.9531 3.54771 13.9456 3.40584 13.9285 3.26611C13.9125 3.12638 13.8816 3.00158 13.8347 2.89384C13.7888 2.78398 13.7291 2.69651 13.6523 2.62931C13.5776 2.56104 13.4763 2.52691 13.3515 2.52691H13.1424ZM6.0768 2.52691C5.952 2.52691 5.85067 2.56104 5.776 2.62931C5.70027 2.69651 5.64053 2.78398 5.5936 2.89384C5.54773 3.00158 5.51573 3.12638 5.49973 3.26611C5.48373 3.40584 5.4752 3.54771 5.4752 3.69278V6.17171C5.4752 6.48851 5.4304 6.75624 5.34293 6.97811C5.2544 7.19891 5.15307 7.38238 5.03573 7.52638C4.9184 7.67038 4.79893 7.77918 4.67733 7.85171C4.5568 7.92424 4.45867 7.96904 4.38293 7.98611V8.02771C4.45867 8.03624 4.5568 8.07251 4.67733 8.13651C4.79893 8.19838 4.9184 8.30078 5.03573 8.44051C5.15307 8.58024 5.2544 8.76371 5.34293 8.98984C5.4304 9.21491 5.4752 9.49971 5.4752 9.84211V12.3082C5.4752 12.4437 5.48373 12.5813 5.49973 12.7221C5.51573 12.8608 5.54773 12.9888 5.5936 13.1008C5.64053 13.2138 5.70027 13.3045 5.776 13.3717C5.85067 13.4389 5.952 13.473 6.0768 13.473H6.28587V14.2858H5.82613C5.6672 14.2858 5.50827 14.2474 5.34827 14.1706C5.1904 14.0949 5.0464 13.9808 4.9152 13.8325C4.78613 13.6832 4.68053 13.4976 4.59627 13.2768C4.51307 13.056 4.4704 12.801 4.4704 12.5109V10.0597C4.4704 9.81544 4.4416 9.59464 4.38293 9.39518C4.32427 9.19678 4.24747 9.03038 4.1504 8.89491C4.05547 8.75944 3.94347 8.65491 3.81867 8.58344C3.6928 8.50984 3.56373 8.47464 3.42827 8.47464V7.55304C3.56373 7.55304 3.6928 7.51464 3.81867 7.43784C3.94347 7.36104 4.05547 7.25331 4.1504 7.11251C4.24747 6.97278 4.32427 6.80424 4.38293 6.60478C4.4416 6.40638 4.4704 6.18984 4.4704 5.95411V3.48904C4.4704 3.20104 4.51307 2.94611 4.59627 2.72424C4.68053 2.50238 4.78613 2.31784 4.9152 2.16851C5.0464 2.01918 5.1904 1.90611 5.34827 1.83038C5.50827 1.75251 5.6672 1.71411 5.82613 1.71411H6.28587V2.52691H6.0768ZM2.64853 2.52691C2.52373 2.52691 2.4224 2.56104 2.34773 2.62931C2.27093 2.69651 2.2112 2.78398 2.16533 2.89384C2.1184 3.00158 2.08747 3.12638 2.07147 3.26611C2.0544 3.40584 2.04693 3.54771 2.04693 3.69278V6.17171C2.04693 6.48851 2.00213 6.75624 1.91467 6.97811C1.82613 7.19891 1.72373 7.38238 1.6064 7.52638C1.49013 7.67038 1.3696 7.77918 1.24907 7.85171C1.12747 7.92424 1.02933 7.96904 0.954667 7.98611V8.02771C1.02933 8.03624 1.12747 8.07251 1.24907 8.13651C1.3696 8.19838 1.49013 8.30078 1.6064 8.44051C1.72373 8.58024 1.82613 8.76371 1.91467 8.98984C2.00213 9.21491 2.04693 9.49971 2.04693 9.84211V12.3082C2.04693 12.4437 2.0544 12.5813 2.07147 12.7221C2.08747 12.8608 2.1184 12.9888 2.16533 13.1008C2.2112 13.2138 2.27093 13.3045 2.34773 13.3717C2.4224 13.4389 2.52373 13.473 2.64853 13.473H2.8576V14.2858H2.39787C2.23893 14.2858 2.08 14.2474 1.92 14.1706C1.76213 14.0949 1.61813 13.9808 1.48693 13.8325C1.35787 13.6832 1.2512 13.4976 1.16693 13.2768C1.08373 13.056 1.04213 12.801 1.04213 12.5109V10.0597C1.04213 9.81544 1.01333 9.59464 0.954667 9.39518C0.896 9.19678 0.818133 9.03038 0.722133 8.89491C0.626133 8.75944 0.514133 8.65491 0.389333 8.58344C0.264533 8.50984 0.135467 8.47464 0 8.47464V7.55304C0.135467 7.55304 0.264533 7.51464 0.389333 7.43784C0.514133 7.36104 0.626133 7.25331 0.722133 7.11251C0.818133 6.97278 0.896 6.80424 0.954667 6.60478C1.01333 6.40638 1.04213 6.18984 1.04213 5.95411V3.48904C1.04213 3.20104 1.08373 2.94611 1.16693 2.72424C1.2512 2.50238 1.35787 2.31784 1.48693 2.16851C1.61813 2.01918 1.76213 1.90611 1.92 1.83038C2.08 1.75251 2.23893 1.71411 2.39787 1.71411H2.8576V2.52691H2.64853Z" fill="#231F20"/>
</svg>
