<svg width="16" height="16" viewBox="0 0 16 16" fill="none" xmlns="http://www.w3.org/2000/svg">
<path fill-rule="evenodd" clip-rule="evenodd" d="M10.0619 0.977783C10.8243 0.977783 11.4206 1.62123 11.4206 2.38966L11.4205 5.02576L14.0597 3.38264C14.8966 2.86148 15.918 3.45798 15.9953 4.40528L16 4.52059V11.5332C16 12.5463 14.93 13.2131 14.0595 12.671L11.4205 11.0264L11.4206 13.6105C11.4206 14.379 10.8243 15.0224 10.0619 15.0224H1.35875C0.595632 15.0224 0 14.3792 0 13.6105V2.38966C0 1.62103 0.595632 0.977783 1.35875 0.977783H10.0619ZM10.0619 2.34967H1.35875C1.3715 2.34967 1.37309 2.35254 1.37273 2.36439L1.37188 13.6105C1.37188 13.6182 1.3722 13.6244 1.37245 13.6295C1.37331 13.6467 1.3735 13.6505 1.35875 13.6505H10.0619C10.0469 13.6505 10.0472 13.6465 10.0481 13.6298C10.0484 13.6247 10.0487 13.6183 10.0487 13.6105L10.0482 9.81421C10.0478 9.80415 10.0477 9.79407 10.0478 9.78399L10.0487 2.38966C10.0487 2.38187 10.0484 2.37553 10.0481 2.37039V2.37038C10.0472 2.35371 10.0469 2.34967 10.0619 2.34967ZM11.4205 6.64184L14.6281 4.64485V11.4089L11.4205 9.4103V6.64184Z" fill="black"/>
</svg>
