<svg width="16" height="16" viewBox="0 0 16 16" fill="none" xmlns="http://www.w3.org/2000/svg">
<path fill-rule="evenodd" clip-rule="evenodd" d="M15.5498 1.09381L15.5545 1.2037V11.3151L15.5523 11.3588C15.625 12.6386 14.6017 13.9473 13.104 14.5154C11.3687 15.1736 9.53211 14.6291 9.05914 13.1595C8.59614 11.7223 9.68879 10.1013 11.4044 9.44936C12.4191 9.06446 13.4688 9.09115 14.2601 9.47358L14.2593 1.34508L7.01906 3.48578L7.02012 12.3455C7.23344 13.6931 6.1799 15.1229 4.59562 15.7239C2.86029 16.3821 1.02368 15.8376 0.550712 14.368C0.0877119 12.9308 1.18035 11.3098 2.89596 10.6579C3.89929 10.2773 4.93675 10.2991 5.72481 10.6693L5.72383 3.42573C5.72383 2.9293 6.01789 2.47941 6.46319 2.3039L6.56857 2.26838L14.0882 0.0450381C14.8066 -0.161751 15.4866 0.370299 15.5498 1.09381ZM3.35567 11.8687C2.2224 12.2994 1.56112 13.2804 1.7836 13.9711C1.99592 14.6307 3.02276 14.9352 4.13626 14.5128C5.12848 14.1365 5.75916 13.3365 5.75081 12.6796L5.7306 12.591L5.72383 12.498L5.72563 12.4735C5.72055 12.4524 5.71468 12.4315 5.70803 12.4108C5.49564 11.7515 4.46833 11.4467 3.35567 11.8687ZM10.292 12.7626C10.0696 12.072 10.7308 11.0909 11.8641 10.6603C12.9768 10.2382 14.0041 10.543 14.2165 11.2023C14.439 11.893 13.7774 12.8747 12.6447 13.3043C11.5312 13.7267 10.5044 13.4223 10.292 12.7626Z" fill="black"/>
</svg>
