<svg width="16" height="16" viewBox="0 0 16 16" fill="none" xmlns="http://www.w3.org/2000/svg">
<path fill-rule="evenodd" clip-rule="evenodd" d="M2.95184 1.28033V0.655881C2.95184 0.293648 3.24549 0 3.60772 0C3.96995 0 4.2636 0.293648 4.2636 0.655881V1.28033H5.97677V0.655881C5.97677 0.293648 6.27042 0 6.63265 0C6.99489 0 7.28854 0.293648 7.28854 0.655881V1.28033H9.00171V0.655881C9.00171 0.293648 9.29535 0 9.65759 0C10.0198 0 10.3135 0.293648 10.3135 0.655881V1.28033H12.0266V0.655881C12.0266 0.293648 12.3203 0 12.6825 0C13.0448 0 13.3384 0.293648 13.3384 0.655881V1.28033H14.4977C14.8599 1.28033 15.1535 1.57398 15.1535 1.93621V15.3441C15.1535 15.7064 14.8599 16 14.4977 16H1.50235C1.14011 16 0.846466 15.7064 0.846466 15.3441V1.93621C0.846466 1.57398 1.14011 1.28033 1.50235 1.28033H2.95184ZM10.3135 2.59209H12.0266V3.20269C12.0266 3.56492 12.3203 3.85857 12.6825 3.85857C13.0448 3.85857 13.3384 3.56492 13.3384 3.20269V2.59209H13.8418V14.6882H2.15823V2.59209H2.95184V3.20269C2.95184 3.56492 3.24549 3.85857 3.60772 3.85857C3.96995 3.85857 4.2636 3.56492 4.2636 3.20269V2.59209H5.97677V3.20269C5.97677 3.56492 6.27042 3.85857 6.63265 3.85857C6.99489 3.85857 7.28854 3.56492 7.28854 3.20269V2.59209H9.00171V3.20269C9.00171 3.56492 9.29535 3.85857 9.65759 3.85857C10.0198 3.85857 10.3135 3.56492 10.3135 3.20269V2.59209ZM11.2304 7.15419H5.05971C4.69747 7.15419 4.40383 6.86055 4.40383 6.49831C4.40383 6.13608 4.69747 5.84243 5.05971 5.84243H11.2304C11.5926 5.84243 11.8862 6.13608 11.8862 6.49831C11.8862 6.86055 11.5926 7.15419 11.2304 7.15419ZM5.05971 9.62605H11.2304C11.5926 9.62605 11.8862 9.3324 11.8862 8.97017C11.8862 8.60794 11.5926 8.31429 11.2304 8.31429H5.05971C4.69747 8.31429 4.40383 8.60794 4.40383 8.97017C4.40383 9.3324 4.69747 9.62605 5.05971 9.62605ZM11.2304 12.2476H5.05971C4.69747 12.2476 4.40383 11.954 4.40383 11.5918C4.40383 11.2295 4.69747 10.9359 5.05971 10.9359H11.2304C11.5926 10.9359 11.8862 11.2295 11.8862 11.5918C11.8862 11.954 11.5926 12.2476 11.2304 12.2476Z" fill="black"/>
</svg>
