<svg width="16" height="16" viewBox="0 0 16 16" fill="none" xmlns="http://www.w3.org/2000/svg">
<path d="M11.9281 9.70839L8.13056 13.717C6.80416 15.117 4.66822 15.117 3.34182 13.717C1.99752 12.298 1.99752 9.98523 3.34182 8.56625L9.58892 1.97208C10.5225 0.986668 12.0206 0.986668 12.9533 1.97192C13.9041 2.97553 13.9041 4.61619 12.9533 5.62054L6.75135 12.167C6.21406 12.7342 5.35783 12.7342 4.82053 12.167C4.26538 11.5811 4.26538 10.6184 4.8203 10.0333L8.58523 6.05919C8.8194 5.81202 8.80885 5.42182 8.56168 5.18766C8.31451 4.95349 7.92431 4.96404 7.69015 5.21121L3.92545 9.18506C2.91969 10.2455 2.91969 11.9534 3.92545 13.015C4.94906 14.0955 6.62282 14.0955 7.64644 13.015L13.8485 6.46835C15.2497 4.98831 15.2497 2.60306 13.8485 1.12411C12.4297 -0.374703 10.1138 -0.374703 8.69384 1.12411L2.44674 7.71827C0.65191 9.61281 0.65191 12.6704 2.44674 14.5649C4.25946 16.4784 7.21292 16.4784 9.02565 14.5649L12.8232 10.5564C13.0574 10.3092 13.0468 9.919 12.7997 9.68484C12.5525 9.45068 12.1623 9.46122 11.9281 9.70839Z" fill="black"/>
</svg>
