<svg width="16" height="16" viewBox="0 0 16 16" fill="none" xmlns="http://www.w3.org/2000/svg">
<path fill-rule="evenodd" clip-rule="evenodd" d="M4.30927 11.606V1.52702H11.4399V1.7051C11.4399 2.03427 11.7068 2.30112 12.0359 2.30112C12.3651 2.30112 12.632 2.03427 12.632 1.7051V0.93099C12.632 0.601812 12.3651 0.334961 12.0359 0.334961H3.71324C3.38407 0.334961 3.11721 0.601812 3.11721 0.93099V2.66043C3.05507 2.63846 2.98819 2.6265 2.91852 2.6265H0.596029C0.266851 2.6265 0 2.89336 0 3.22253V15.0689C0 15.398 0.266851 15.6649 0.596029 15.6649H9.68106C10.0102 15.6649 10.2771 15.398 10.2771 15.0689V12.9968C10.2771 12.9271 10.2651 12.8602 10.2432 12.798H12.0359C12.3549 12.798 12.6174 12.5469 12.6314 12.2282L12.632 12.2143L12.6355 12.1185L12.637 12.0675L12.6385 12.0079C12.6398 11.9449 12.6401 11.8908 12.6391 11.8456V11.8456V11.8455C12.638 11.8048 12.638 11.8048 12.634 11.7534C12.6459 11.7053 12.6459 11.7053 12.4574 11.3686L12.4574 11.3686L12.4574 11.3685L12.4574 11.3685L12.4574 11.3685C12.2246 11.1357 11.8472 11.1357 11.6145 11.3685C11.5455 11.4375 11.497 11.5191 11.4689 11.606H4.30927ZM9.11896 12.798C9.09699 12.8602 9.08503 12.9271 9.08503 12.9968V14.4728H1.19206V3.81856H2.91852C2.98819 3.81856 3.05507 3.80661 3.11721 3.78464V12.202C3.11721 12.5312 3.38407 12.798 3.71324 12.798H9.11896ZM11.5017 12.0546C11.5297 12.1112 11.5673 12.1643 11.6145 12.2114C11.5664 12.1633 11.5326 12.1377 11.5088 12.1197C11.4901 12.1055 11.4775 12.096 11.469 12.0839L11.5017 12.0546ZM14.2189 8.99077C14.809 8.32333 15.1672 7.44601 15.1672 6.48504C15.1672 4.39486 13.4729 2.70047 11.3828 2.70047C9.29274 2.70047 7.59827 4.39488 7.59827 6.48504C7.59827 8.57505 9.29277 10.2694 11.3828 10.2694C12.0801 10.2694 12.7333 10.0809 13.2942 9.75194L14.9825 11.4403C15.2153 11.6731 15.5926 11.6731 15.8254 11.4404C16.0582 11.2076 16.0582 10.8302 15.8254 10.5975L14.2189 8.99077ZM13.0248 8.49117C13.6049 8.01576 13.9752 7.29363 13.9752 6.48504C13.9752 5.0532 12.8145 3.89253 11.3828 3.89253C9.95108 3.89253 8.79033 5.05324 8.79033 6.48504C8.79033 7.91668 9.95111 9.07737 11.3828 9.07737C11.9792 9.07737 12.5285 8.876 12.9665 8.53755C12.9852 8.5207 13.0046 8.50524 13.0248 8.49117Z" fill="black"/>
</svg>
