<svg width="16" height="16" viewBox="0 0 16 16" fill="none" xmlns="http://www.w3.org/2000/svg">
<path fill-rule="evenodd" clip-rule="evenodd" d="M13.6 8.40005C13.1576 8.40005 12.8 8.04245 12.8 7.60005C12.8 7.15765 13.1576 6.80005 13.6 6.80005C14.0424 6.80005 14.4 7.15765 14.4 7.60005C14.4 8.04245 14.0424 8.40005 13.6 8.40005ZM11.2 4.80005V5.20005H4.8V4.80005V2.40005H11.2V4.80005ZM11.2 11.2V13.6H4.8V11.2V8.80005H11.2V11.2ZM14.4912 5.20005H12.8V4.80005V0.800049H3.2V4.80005V5.20005H1.5088C0.6752 5.20005 0 5.87525 0 6.70885V11.6H3.2V15.2H12.8V13.6V11.6H16V6.70885C16 5.87525 15.3248 5.20005 14.4912 5.20005Z" fill="black"/>
</svg>
