<svg xmlns="http://www.w3.org/2000/svg" viewBox="0 0 16 16"><title>projector</title><g id="Layer_1" data-name="Layer 1"><path d="M7.945,4.7A3.757,3.757,0,1,0,11.75,8.454,3.781,3.781,0,0,0,7.945,4.7ZM9.356,8.531c-.121.087-1.7,1.451-1.84,1.544-.1.07-.24-.008-.24-.165V6.824c0-.144.122-.251.245-.167.1.068,1.667,1.424,1.835,1.54A.214.214,0,0,1,9.356,8.531Z" fill-rule="evenodd"/><path d="M14,0H2A2,2,0,0,0,0,2V14a2,2,0,0,0,2,2H14a2,2,0,0,0,2-2V2A2,2,0,0,0,14,0Zm0,14H2V2H5A1,1,0,0,0,6,3h4a1,1,0,0,0,1-1h3Z"/></g></svg>