<svg xmlns="http://www.w3.org/2000/svg" viewBox="0 0 16 16"><title>resources</title><g id="Layer_1" data-name="Layer 1"><path d="M8,.02884C1.62314.02884.02884,1.62314.02884,8S1.62314,15.97116,8,15.97116,15.97116,14.37694,15.97116,8,14.37686.02884,8,.02884ZM7.38576,11.20492a.48038.48038,0,0,1-.48038.48038H4.79508a.48041.48041,0,0,1-.48042-.48038V9.09462a.48044.48044,0,0,1,.48042-.48042h2.1103a.48041.48041,0,0,1,.48038.48042Zm0-4.29954a.48038.48038,0,0,1-.48038.48038H4.79508a.48041.48041,0,0,1-.48042-.48038V4.79508a.48044.48044,0,0,1,.48042-.48042h2.1103a.48041.48041,0,0,1,.48038.48042Zm4.29954,4.29954a.48038.48038,0,0,1-.48038.48038H9.09462a.48041.48041,0,0,1-.48042-.48038V9.09462a.48044.48044,0,0,1,.48042-.48042h2.1103a.48041.48041,0,0,1,.48038.48042Zm0-4.29954a.48038.48038,0,0,1-.48038.48038H9.09462a.48041.48041,0,0,1-.48042-.48038V4.79508a.48044.48044,0,0,1,.48042-.48042h2.1103a.48041.48041,0,0,1,.48038.48042Z"/></g></svg>