<svg xmlns="http://www.w3.org/2000/svg" viewBox="0 0 16 16">
  <title>resources</title>
  <g id="Layer_1" data-name="Layer 1">
    <path d="M8,.029C1.623.029.029,1.623.029,8S1.623,15.971,8,15.971,15.971,14.377,15.971,8,14.377.029,8,.029ZM7.386,11.205a.48.48,0,0,1-.481.48H4.8a.48.48,0,0,1-.48-.48V9.1a.48.48,0,0,1,.48-.481h2.11a.481.481,0,0,1,.481.481Zm0-4.3a.481.481,0,0,1-.481.481H4.8a.48.48,0,0,1-.48-.481V4.8a.48.48,0,0,1,.48-.48h2.11a.48.48,0,0,1,.481.48Zm4.3,4.3a.48.48,0,0,1-.48.48H9.1a.48.48,0,0,1-.481-.48V9.1A.481.481,0,0,1,9.1,8.614h2.11a.48.48,0,0,1,.48.481Zm0-4.3a.48.48,0,0,1-.48.481H9.1a.481.481,0,0,1-.481-.481V4.8a.48.48,0,0,1,.481-.48h2.11a.48.48,0,0,1,.48.48Z"/>
  </g>
</svg>
