<svg xmlns="http://www.w3.org/2000/svg" viewBox="0 0 16 16"><defs><style>.cls-1{fill:#231f20;}</style></defs><title>resources</title><g id="Layer_1" data-name="Layer 1"><path class="cls-1" d="M14,0H2A2,2,0,0,0,0,2V14a2,2,0,0,0,2,2H14a2,2,0,0,0,2-2V2A2,2,0,0,0,14,0Zm0,14H2V2H5A1,1,0,0,0,6,3h4a1,1,0,0,0,1-1h3Z"/><path class="cls-1" d="M4.575,5h2.21a.59.59,0,0,1,.59.59V7.41a.59.59,0,0,1-.59.59H4.573a.589.589,0,0,1-.589-.589V5.593A.591.591,0,0,1,4.575,5Z"/><path class="cls-1" d="M9.216,5h2.21a.59.59,0,0,1,.59.59V7.41a.59.59,0,0,1-.59.59H9.214a.589.589,0,0,1-.589-.589V5.593A.591.591,0,0,1,9.216,5Z"/><path class="cls-1" d="M4.575,9h2.21a.59.59,0,0,1,.59.59V11.41a.59.59,0,0,1-.59.59H4.573a.589.589,0,0,1-.589-.589V9.593A.591.591,0,0,1,4.575,9Z"/><path class="cls-1" d="M9.216,9h2.21a.59.59,0,0,1,.59.59V11.41a.59.59,0,0,1-.59.59H9.214a.589.589,0,0,1-.589-.589V9.593A.591.591,0,0,1,9.216,9Z"/></g></svg>