<svg width="16" height="16" viewBox="0 0 16 16" fill="none" xmlns="http://www.w3.org/2000/svg">
<path fill-rule="evenodd" clip-rule="evenodd" d="M10.9092 0.426025L9.88064 1.45454L10.6079 2.18182H1.45462V5.94229C0.607055 6.2418 0 7.05011 0 8C0 9.20526 0.976556 10.1818 2.18182 10.1818C3.38661 10.1818 4.36364 9.20524 4.36364 8C4.36364 7.05024 3.75645 6.24201 2.90916 5.94241V3.63636H10.6079L9.88064 4.36364L10.9092 5.39215L13.3922 2.90909L10.9092 0.426025ZM8 10.1818C9.2048 10.1818 10.1818 9.20524 10.1818 8C10.1818 6.79522 9.20478 5.81818 8 5.81818C6.79475 5.81818 5.81818 6.7952 5.81818 8C5.81818 9.20526 6.79474 10.1818 8 10.1818ZM16 8C16 8.95015 15.3928 9.75819 14.5455 10.0577V13.8182H5.39215L6.11943 14.5455L5.09091 15.574L2.60784 13.0909L5.09091 10.6078L6.11943 11.6364L5.39216 12.3636H9.81818H13.0909V10.0577C12.2434 9.75831 11.6364 8.95024 11.6364 8C11.6364 6.7952 12.6129 5.81818 13.8182 5.81818C15.023 5.81818 16 6.79522 16 8ZM13.8182 7.27273C14.2196 7.27273 14.5455 7.59854 14.5455 8C14.5455 8.40194 14.2196 8.72727 13.8182 8.72727C13.4162 8.72727 13.0909 8.40194 13.0909 8C13.0909 7.59854 13.4162 7.27273 13.8182 7.27273ZM8.72727 8C8.72727 7.59854 8.40145 7.27273 8 7.27273C7.59806 7.27273 7.27273 7.59854 7.27273 8C7.27273 8.40194 7.59806 8.72727 8 8.72727C8.40145 8.72727 8.72727 8.40194 8.72727 8ZM2.90909 8C2.90909 7.59854 2.58327 7.27273 2.18182 7.27273C1.77988 7.27273 1.45455 7.59854 1.45455 8C1.45455 8.40194 1.77988 8.72727 2.18182 8.72727C2.58327 8.72727 2.90909 8.40194 2.90909 8Z" fill="black"/>
</svg>
