<svg xmlns="http://www.w3.org/2000/svg" viewBox="0 0 16 16">
  <title>services-logo</title>
  <g id="Layer_1" data-name="Layer 1">
    <g id="New_Symbol_37" data-name="New Symbol 37">
      <g>
        <g>
          <path d="M5.049,7.762c-.181-.079-.28-.14-.28-.233,0-.066.061-.132.2-.132a.874.874,0,0,1,.358.083.1.1,0,0,0,.136-.042L5.52,7.32a.12.12,0,0,0-.043-.151.984.984,0,0,0-.51-.129c-.4,0-.584.244-.584.485,0,.3.227.446.473.557s.354.178.354.278-.079.146-.206.146A.772.772,0,0,1,4.6,8.387l-.006,0A.114.114,0,0,0,4.5,8.37a.084.084,0,0,0-.052.044l-.077.158a.09.09,0,0,0,.035.114h0a1.011,1.011,0,0,0,.572.177.56.56,0,0,0,.629-.518C5.611,8.024,5.389,7.906,5.049,7.762Z" fill="#231f20"/>
          <path d="M6.584,7.04a.871.871,0,0,0-.869.91.864.864,0,0,0,.873.913.978.978,0,0,0,.644-.215.087.087,0,0,0,.011-.14l-.1-.156a.081.081,0,0,0-.051-.037.1.1,0,0,0-.077.025.642.642,0,0,1-.406.14.482.482,0,0,1-.489-.426H7.279a.1.1,0,0,0,.1-.091c0-.03.007-.09.007-.12A.783.783,0,0,0,6.584,7.04Zm-.007.353a.383.383,0,0,1,.4.349H6.142A.413.413,0,0,1,6.577,7.393Z" fill="#231f20"/>
          <path d="M8.435,7.04a.673.673,0,0,0-.509.229l-.037-.118A.1.1,0,0,0,7.8,7.077H7.707a.1.1,0,0,0-.1.1V8.721a.1.1,0,0,0,.1.1h.17c.055,0,.138,0,.138-.1V7.644A.469.469,0,0,1,8.4,7.43a.4.4,0,0,1,.146.032.1.1,0,0,0,.073,0,.1.1,0,0,0,.057-.055l.089-.185a.09.09,0,0,0,0-.09C8.716,7.066,8.563,7.04,8.435,7.04Z" fill="#231f20"/>
          <path d="M10.416,7.077H10.25c-.049,0-.105,0-.132.06L9.656,8.149l-.44-1.013a.094.094,0,0,0-.092-.059H8.9a.094.094,0,0,0-.085.041.085.085,0,0,0,0,.084l.739,1.606a.1.1,0,0,0,.091.055h.023a.1.1,0,0,0,.088-.056L10.5,7.2a.084.084,0,0,0,0-.085A.094.094,0,0,0,10.416,7.077Z" fill="#231f20"/>
          <rect x="10.649" y="7.077" width="0.409" height="1.745" rx="0.101" ry="0.101" fill="#231f20"/>
          <path d="M10.853,6.308a.269.269,0,0,0,0,.538.269.269,0,1,0,0-.538Z" fill="#231f20"/>
          <path d="M12.7,8.259a.1.1,0,0,0-.14.008c-.014.013-.028.027-.041.041a.452.452,0,0,1-.348.165.523.523,0,1,1,.348-.878c.028.028.076.075.138.018l.133-.121a.1.1,0,0,0,.016-.149.762.762,0,0,0-.635-.3.905.905,0,0,0-.895.913.891.891,0,0,0,.891.91.8.8,0,0,0,.681-.363c.023-.034.035-.086-.034-.148Z" fill="#231f20"/>
          <path d="M13.807,7.04a.871.871,0,0,0-.87.91.865.865,0,0,0,.873.913.984.984,0,0,0,.645-.215.088.088,0,0,0,.011-.14l-.1-.156a.076.076,0,0,0-.051-.037.1.1,0,0,0-.077.025.637.637,0,0,1-.406.14.484.484,0,0,1-.489-.426H14.5a.1.1,0,0,0,.1-.091c0-.03.008-.09.008-.12A.784.784,0,0,0,13.807,7.04Zm-.008.353a.383.383,0,0,1,.4.349h-.835A.414.414,0,0,1,13.8,7.393Z" fill="#231f20"/>
          <path d="M15.4,7.762c-.182-.079-.28-.14-.28-.233,0-.066.061-.132.2-.132a.874.874,0,0,1,.358.083.1.1,0,0,0,.136-.042l.059-.118a.12.12,0,0,0-.044-.151.977.977,0,0,0-.509-.129c-.4,0-.585.244-.585.485,0,.3.228.446.474.557s.353.178.353.278-.078.146-.205.146a.763.763,0,0,1-.409-.12l-.006,0a.111.111,0,0,0-.086-.013.085.085,0,0,0-.052.044l-.078.158a.091.091,0,0,0,.036.114h0a1.018,1.018,0,0,0,.573.177.56.56,0,0,0,.629-.518C15.959,8.024,15.736,7.906,15.4,7.762Z" fill="#231f20"/>
        </g>
        <path d="M1.757,6.284C.384,6.284.041,6.627.041,8S.384,9.716,1.757,9.716,3.472,9.373,3.472,8,3.129,6.284,1.757,6.284ZM.976,8.777A.182.182,0,1,1,1.158,8.6.183.183,0,0,1,.976,8.777Zm0-.592A.182.182,0,1,1,1.158,8,.183.183,0,0,1,.976,8.185Zm0-.592a.182.182,0,1,1,.182-.182A.182.182,0,0,1,.976,7.593ZM2.619,8.676a.084.084,0,0,1-.084.083h-1.1a.083.083,0,0,1-.083-.083V8.514a.084.084,0,0,1,.083-.084h1.1a.085.085,0,0,1,.084.084Zm0-.592a.084.084,0,0,1-.084.083h-1.1a.083.083,0,0,1-.083-.083V7.922a.083.083,0,0,1,.083-.083h1.1a.084.084,0,0,1,.084.083Zm0-.592a.085.085,0,0,1-.084.084h-1.1a.084.084,0,0,1-.083-.084V7.33a.083.083,0,0,1,.083-.083h1.1a.084.084,0,0,1,.084.083Z" fill="#231f20"/>
      </g>
    </g>
  </g>
</svg>
