<svg xmlns="http://www.w3.org/2000/svg" viewBox="0 0 16 16"><title>services</title><g id="Layer_1" data-name="Layer 1"><path d="M8,0C1.61,0,0,1.61,0,8s1.6,8,8,8,8-1.6,8-8S14.39,0,8,0ZM4.37,11.62a.85.85,0,1,1,.84-.85A.85.85,0,0,1,4.37,11.62Zm0-2.76A.85.85,0,1,1,5.21,8,.85.85,0,0,1,4.37,8.86Zm0-2.75a.85.85,0,1,1,.84-.85A.85.85,0,0,1,4.37,6.11Zm7.64,5a.39.39,0,0,1-.38.39H6.52a.4.4,0,0,1-.39-.39v-.76A.4.4,0,0,1,6.52,10h5.11a.39.39,0,0,1,.38.39Zm0-2.76a.38.38,0,0,1-.38.39H6.52a.39.39,0,0,1-.39-.39V7.64a.39.39,0,0,1,.39-.39h5.11a.38.38,0,0,1,.38.39Zm0-2.75a.38.38,0,0,1-.38.38H6.52a.39.39,0,0,1-.39-.38V4.88a.4.4,0,0,1,.39-.39h5.11a.39.39,0,0,1,.38.39Z"/></g></svg>