<svg xmlns="http://www.w3.org/2000/svg" viewBox="0 0 16 16">
  <title>services</title>
  <g id="Layer_1" data-name="Layer 1">
    <path d="M8,.009C1.608.009.009,1.608.009,8S1.608,15.991,8,15.991s7.991-1.6,7.991-7.991S14.392.009,8,.009ZM4.366,11.617a.848.848,0,1,1,.847-.847A.848.848,0,0,1,4.366,11.617Zm0-2.756a.847.847,0,1,1,.847-.847A.848.848,0,0,1,4.366,8.861Zm0-2.755a.848.848,0,1,1,.847-.848A.848.848,0,0,1,4.366,6.106Zm7.649,5.041a.388.388,0,0,1-.388.388H6.521a.388.388,0,0,1-.388-.388v-.755A.388.388,0,0,1,6.521,10h5.106a.388.388,0,0,1,.388.388Zm0-2.755a.388.388,0,0,1-.388.388H6.521a.388.388,0,0,1-.388-.388V7.636a.388.388,0,0,1,.388-.388h5.106a.388.388,0,0,1,.388.388Zm0-2.756a.388.388,0,0,1-.388.388H6.521a.388.388,0,0,1-.388-.388V4.881a.388.388,0,0,1,.388-.388h5.106a.388.388,0,0,1,.388.388Z"/>
  </g>
</svg>
