<svg xmlns="http://www.w3.org/2000/svg" viewBox="0 0 16 16"><title>services</title><g id="Layer_1" data-name="Layer 1"><path d="M8,.0094C1.6076.0094.0094,1.6076.0094,8S1.6076,15.9906,8,15.9906,15.9906,14.39248,15.9906,8,14.3924.0094,8,.0094ZM4.36555,11.61679a.84727.84727,0,1,1,.84729-.84725A.84726.84726,0,0,1,4.36555,11.61679Zm0-2.75552A.84727.84727,0,1,1,5.21284,8.014.84727.84727,0,0,1,4.36555,8.86127Zm0-2.75552a.84727.84727,0,1,1,.84729-.84729A.8473.8473,0,0,1,4.36555,6.10575Zm7.64926,5.04134a.38823.38823,0,0,1-.3882.38824H6.52128a.38826.38826,0,0,1-.38823-.38824V10.392a.38823.38823,0,0,1,.38823-.38824h5.10533a.3882.3882,0,0,1,.3882.38824Zm0-2.75552a.38823.38823,0,0,1-.3882.38824H6.52128a.38826.38826,0,0,1-.38823-.38824v-.7551a.38826.38826,0,0,1,.38823-.38827h5.10533a.38823.38823,0,0,1,.3882.38827Zm0-2.75552a.3882.3882,0,0,1-.3882.3882H6.52128a.38822.38822,0,0,1-.38823-.3882V4.881a.38824.38824,0,0,1,.38823-.38827h5.10533a.38821.38821,0,0,1,.3882.38827Z"/></g></svg>