<svg xmlns="http://www.w3.org/2000/svg" viewBox="0 0 16 16">
  <title>settings</title>
  <g id="Layer_1" data-name="Layer 1">
    <path d="M13.269,5.076a4.748,4.748,0,0,1,.512,1.236,7.033,7.033,0,0,0,1.04.131,3.587,3.587,0,0,1,1.02.2c.108.027.161.086.161.181V9.2c0,.08-.1.151-.3.215a4.336,4.336,0,0,1-.689.156c-.261.041-.515.069-.763.09s-.412.037-.492.051a4.871,4.871,0,0,1-.472,1.175,15.012,15.012,0,0,0,1.215,1.577l.06.152q0,.081-.276.386t-.628.659c-.234.234-.458.443-.668.628s-.347.274-.406.274a1.684,1.684,0,0,1-.267-.184c-.165-.123-.345-.263-.543-.412s-.385-.295-.563-.433-.29-.219-.336-.246a5.045,5.045,0,0,1-.588.277,6.023,6.023,0,0,1-.6.2c-.014.082-.032.246-.056.5s-.055.506-.1.764-.087.49-.14.7-.124.311-.212.311H6.809c-.094,0-.158-.057-.191-.169a5.634,5.634,0,0,1-.19-1.036c-.034-.36-.071-.7-.111-1.034a5.526,5.526,0,0,1-1.175-.5c-.276.209-.546.41-.815.607s-.532.408-.793.629l-.121.039a1.248,1.248,0,0,1-.372-.274q-.31-.277-.647-.628T1.781,13q-.277-.3-.277-.386a1.871,1.871,0,0,1,.161-.266c.108-.164.233-.344.377-.537s.285-.381.422-.558.226-.295.267-.348a4.687,4.687,0,0,1-.513-1.236,7.513,7.513,0,0,0-1.05-.129,3.546,3.546,0,0,1-1.009-.2C.051,9.309,0,9.249,0,9.155V6.784C0,6.7.1,6.632.3,6.568a4.683,4.683,0,0,1,.688-.155c.255-.039.5-.072.744-.091s.4-.037.482-.051A5.769,5.769,0,0,1,2.71,5.1,16.094,16.094,0,0,0,1.5,3.519l-.07-.15c0-.053.094-.184.281-.387s.4-.424.628-.658.454-.443.668-.627.349-.279.4-.279a2.011,2.011,0,0,1,.267.187q.246.188.547.412t.567.432q.267.205.327.246a4.085,4.085,0,0,1,.588-.266q.3-.1.608-.2c0-.08.009-.244.03-.494s.05-.5.09-.753A5.217,5.217,0,0,1,6.593.283c.063-.2.136-.31.216-.31H9.19a.19.19,0,0,1,.191.15,7.051,7.051,0,0,1,.171,1.035q.05.543.141,1.066a5.266,5.266,0,0,1,.6.19,3.65,3.65,0,0,1,.568.281c.053-.039.167-.129.342-.266s.36-.281.558-.433.375-.283.531-.4a.861.861,0,0,1,.3-.176,1.318,1.318,0,0,1,.371.279q.312.276.653.627c.228.234.434.455.618.658s.276.334.276.387a1.153,1.153,0,0,1-.175.287c-.118.164-.248.342-.393.537s-.285.379-.422.558-.219.286-.246.325ZM8.005,10.411a2.283,2.283,0,0,0,.935-.2A2.331,2.331,0,0,0,9.7,9.688a2.7,2.7,0,0,0,.512-.773,2.294,2.294,0,0,0,.2-.934,2.228,2.228,0,0,0-.2-.925A2.722,2.722,0,0,0,9.7,6.292a2.207,2.207,0,0,0-.758-.517,2.411,2.411,0,0,0-.935-.186,2.44,2.44,0,0,0-.94.186,2.288,2.288,0,0,0-.773.517,2.456,2.456,0,0,0-.513.764,2.319,2.319,0,0,0-.185.925,2.387,2.387,0,0,0,.185.934,2.419,2.419,0,0,0,1.286,1.3A2.31,2.31,0,0,0,8.005,10.411Z" fill="#231f20"/>
  </g>
</svg>
