<svg xmlns="http://www.w3.org/2000/svg" viewBox="0 0 16 16"><title>songs</title><g id="Layer_1" data-name="Layer 1"><path d="M15.32,3l-.06,0v7.17a8.56,8.56,0,0,1-.07,1.27,1.92,1.92,0,0,1-.43.92,4.4,4.4,0,0,1-1.58,1.14,3.49,3.49,0,0,1-1.63.43,2.77,2.77,0,0,1-1-.19,1.87,1.87,0,0,1-.82-.61,1.76,1.76,0,0,1-.25-.44,1.74,1.74,0,0,1-.11-.61,2.19,2.19,0,0,1,2.29-2.39,4.83,4.83,0,0,1,1.61.23V3.47l-7,2.11v6.64a10.33,10.33,0,0,1-.07,1.27,2,2,0,0,1-.43.92A4.11,4.11,0,0,1,4.3,15.55,4.49,4.49,0,0,1,2.42,16a2.5,2.5,0,0,1-.94-.18,1.81,1.81,0,0,1-.82-.61,1.76,1.76,0,0,1-.25-.44,1.74,1.74,0,0,1-.11-.61,1.81,1.81,0,0,1,.26-1,2.61,2.61,0,0,1,.67-.77,3.49,3.49,0,0,1,1-.52,3.28,3.28,0,0,1,1-.19,2.11,2.11,0,0,1,1,.27V3.26L15.36,0Z" fill-rule="evenodd"/></g></svg>