<svg xmlns="http://www.w3.org/2000/svg" viewBox="0 0 16 16"><title>songs</title><g id="Layer_1" data-name="Layer 1"><path d="M15.32,2.967l-.063.018.011,1.659v5.52a9.244,9.244,0,0,1-.068,1.262,1.933,1.933,0,0,1-.429.921,4.451,4.451,0,0,1-1.58,1.148,3.581,3.581,0,0,1-1.631.42,2.888,2.888,0,0,1-1.027-.182,1.859,1.859,0,0,1-.823-.613,1.739,1.739,0,0,1-.361-1.046,2.2,2.2,0,0,1,2.294-2.4,4.81,4.81,0,0,1,1.608.238V3.468L6.27,5.58,6.277,6.7v5.519a9.223,9.223,0,0,1-.068,1.262,1.929,1.929,0,0,1-.429.921A4.072,4.072,0,0,1,4.3,15.554a4.618,4.618,0,0,1-1.881.421,2.413,2.413,0,0,1-.936-.182,1.862,1.862,0,0,1-.823-.614,1.583,1.583,0,0,1-.248-.443,1.6,1.6,0,0,1-.113-.6,1.9,1.9,0,0,1,.259-.955,2.571,2.571,0,0,1,.677-.773,3.562,3.562,0,0,1,.948-.511A3.043,3.043,0,0,1,3.231,11.7a2.092,2.092,0,0,1,1.029.273L4.253,3.262,15.362.025Z" fill-rule="evenodd"/></g></svg>