<svg xmlns="http://www.w3.org/2000/svg" viewBox="0 0 16 16"><title>upload-docs-outline</title><g id="Layer_1" data-name="Layer 1"><g id="New_Symbol_37" data-name="New Symbol 37"><path d="M13.977,10.153l1.938-3.344-.628-2.355L12.432,2.8a.572.572,0,0,0-.781.208l-.725,1.251V1.843L9.2.12H5.9a.572.572,0,0,0-.572.572V3.8L3.457,2.957.37,4.122a.572.572,0,0,0-.333.736l1.986,5.263a2.924,2.924,0,0,0,.912,5.7l10.281,0a1.123,1.123,0,0,0,.253-.041,2.918,2.918,0,0,0,.508-5.628Zm.762-4.842.226.845-.536-.31ZM12.211,3.539,14.353,4.78l-.744,1.285,1.4.811-1.8,3.114c-.063-.005-.123-.021-.187-.021a3.556,3.556,0,0,0-2.092-4.187V5.755Zm-3.053-2.4.62.62h-.62ZM8.558.87V2.355h1.618v3.2l-.009.016a3.5,3.5,0,0,0-.61-.062A3.572,3.572,0,0,0,6.384,7.44c-.1-.035-.2-.056-.3-.082V.87ZM4.571,4.283,3.992,4.5l-.219-.579Zm-1.452-.4.523,1.389L5.156,4.7l.176.465v2.1A2.921,2.921,0,0,0,2.559,9.417L.8,4.761ZM13.346,15.041c-.025,0-.05.01-.075.016-.041.012-.07.015-.058.015l-10.278,0a2.177,2.177,0,0,1-.355-4.325.749.749,0,0,0,.627-.694,2.167,2.167,0,0,1,2.919-1.91.742.742,0,0,0,.257.046.75.75,0,0,0,.666-.405,2.825,2.825,0,0,1,5.334,1.3,2.882,2.882,0,0,1-.091.7.75.75,0,0,0,.718.935,2.176,2.176,0,0,1,.336,4.322Zm-2.675-3.5a.122.122,0,0,1-.091.2h-1.2a.121.121,0,0,0-.12.121v1.756a.272.272,0,0,1-.272.271H7.251a.271.271,0,0,1-.271-.271V11.861a.121.121,0,0,0-.121-.121H5.679a.121.121,0,0,1-.091-.2l2.45-2.691a.124.124,0,0,1,.182,0Z"/></g></g></svg>