<svg xmlns="http://www.w3.org/2000/svg" viewBox="0 0 16 16">
  <title>upload-outline</title>
  <g id="Layer_1" data-name="Layer 1">
    <g id="New_Symbol_37" data-name="New Symbol 37">
      <path d="M9.557,3.53a2.829,2.829,0,0,1,2.826,2.826,2.874,2.874,0,0,1-.091.7.75.75,0,0,0,.718.935,2.176,2.176,0,0,1,.336,4.322c-.025.005-.05.01-.075.017-.041.011-.07.015-.058.015H2.935A2.176,2.176,0,0,1,2.58,8.021a.75.75,0,0,0,.627-.7,2.169,2.169,0,0,1,2.919-1.91.742.742,0,0,0,.257.046.75.75,0,0,0,.666-.4A2.818,2.818,0,0,1,9.557,3.53m0-.75A3.572,3.572,0,0,0,6.384,4.712,2.919,2.919,0,0,0,2.458,7.281,2.926,2.926,0,0,0,2.935,13.1H13.216a1.124,1.124,0,0,0,.253-.042,2.926,2.926,0,0,0-.451-5.812,3.535,3.535,0,0,0,.115-.884A3.576,3.576,0,0,0,9.557,2.78Z"/>
      <path d="M6.98,10.888V9.132a.121.121,0,0,0-.121-.121H5.679a.121.121,0,0,1-.091-.2l2.45-2.69a.122.122,0,0,1,.182,0l2.451,2.691a.121.121,0,0,1-.091.2h-1.2a.121.121,0,0,0-.12.121v1.756a.271.271,0,0,1-.272.271H7.251A.271.271,0,0,1,6.98,10.888Z"/>
    </g>
  </g>
</svg>
