<svg xmlns="http://www.w3.org/2000/svg" viewBox="0 0 16 16"><title>upload-outline</title><g id="Layer_1" data-name="Layer 1"><g id="New_Symbol_37" data-name="New Symbol 37"><path d="M9.557,3.53a2.813,2.813,0,0,1,2.734,3.525.75.75,0,0,0,.719.935,2.176,2.176,0,0,1,.336,4.322.753.753,0,0,0-.075.016c-.041.011-.07.015-.059.015l-10.278,0A2.177,2.177,0,0,1,2.58,8.021a.75.75,0,0,0,.627-.695,2.168,2.168,0,0,1,2.919-1.91.75.75,0,0,0,.924-.359A2.818,2.818,0,0,1,9.557,3.53m0-.75A3.573,3.573,0,0,0,6.384,4.712,2.918,2.918,0,0,0,2.458,7.281,2.927,2.927,0,0,0,2.935,13.1l10.281,0a1.141,1.141,0,0,0,.253-.041,2.926,2.926,0,0,0-.451-5.812A3.563,3.563,0,0,0,9.557,2.78Z"/><path d="M6.98,10.888V9.132a.121.121,0,0,0-.121-.121H5.679a.121.121,0,0,1-.091-.2l2.45-2.69a.123.123,0,0,1,.181,0l2.451,2.691a.121.121,0,0,1-.091.2h-1.2a.121.121,0,0,0-.121.121v1.756a.271.271,0,0,1-.271.271H7.251A.271.271,0,0,1,6.98,10.888Z"/></g></g></svg>