<svg width="16" height="16" viewBox="0 0 16 16" fill="none" xmlns="http://www.w3.org/2000/svg">
<path fill-rule="evenodd" clip-rule="evenodd" d="M15.9923 4.28228C15.9212 5.83965 14.8332 7.97125 12.7292 10.6789C10.554 13.5056 8.71307 14.919 7.20815 14.919C6.2748 14.919 5.48634 14.0585 4.84099 12.3367C4.41076 10.758 3.97964 9.18016 3.54941 7.60146C3.07118 5.88054 2.55739 5.01919 2.00804 5.01919C1.88804 5.01919 1.46936 5.27075 0.752016 5.77298L0 4.80318C0.78935 4.10983 1.56803 3.4156 2.33427 2.72047C3.38763 1.81112 4.17876 1.33289 4.70588 1.284C5.95035 1.16399 6.71659 2.01557 7.00459 3.83694C7.31571 5.8032 7.53083 7.02545 7.65172 7.50368C8.01084 9.13483 8.4064 9.94907 8.83663 9.94907C9.17175 9.94907 9.67576 9.42017 10.3451 8.36237C11.0153 7.30368 11.3745 6.49922 11.4225 5.94632C11.5185 5.0343 11.1593 4.57651 10.3451 4.57651C9.96288 4.57651 9.56732 4.66451 9.16108 4.83874C9.94777 2.26357 11.4509 1.01199 13.6678 1.08399C15.3114 1.13199 16.0866 2.19779 15.9923 4.28228Z" fill="#231F20"/>
</svg>
