<svg xmlns="http://www.w3.org/2000/svg" viewBox="0 0 16 16">
  <title>check-ins</title>
  <g id="Layer_1" data-name="Layer 1">
    <g>
      <path d="M8.005,15.5A7.5,7.5,0,0,1,1.071,5.13,7.5,7.5,0,0,1,8,.5a7.153,7.153,0,0,1,2.874.563,7.51,7.51,0,0,1,3.362,11.1A7.507,7.507,0,0,1,8.005,15.5ZM8,1.5a6.47,6.47,0,1,0,6.013,4.007,6.48,6.48,0,0,0-3.52-3.52A6.859,6.859,0,0,0,8,1.5Z"/>
      <path d="M6.979,11.222a.5.5,0,0,1-.389-.186L4.548,8.508a.5.5,0,0,1,.779-.628L6.978,9.925l3.987-4.961a.5.5,0,1,1,.779.627L7.369,11.035a.5.5,0,0,1-.39.187Z"/>
    </g>
  </g>
</svg>
