<svg xmlns="http://www.w3.org/2000/svg" viewBox="0 0 16 16">
  <title>give</title>
  <g id="Layer_1" data-name="Layer 1">
    <g>
      <path d="M14.98584,13.32031h-.001L1.00732,13.29688a.49992.49992,0,0,1-.499-.50049L.52246,3.18262a.50011.50011,0,0,1,.5-.49951h.001L15.001,2.70654a.5.5,0,0,1,.499.501l-.01416,9.61377a.50011.50011,0,0,1-.5.499Zm-13.477-1.02246,12.978.02149.0122-8.61377L1.52148,3.68408Z"/>
      <path d="M3.60645,13.293H3.605a.5.5,0,0,1-.49853-.50147,2.08439,2.08439,0,0,0-.605-1.47949,2.08766,2.08766,0,0,0-1.47265-.62549.5.5,0,0,1,.00537-1h.00537a3.08094,3.08094,0,0,1,2.17334.92286,3.0757,3.0757,0,0,1,.89356,2.18505A.50035.50035,0,0,1,3.60645,13.293Z"/>
      <path d="M12.23584,13.25928h-.01367a.50054.50054,0,0,1-.48682-.51319,3.19221,3.19221,0,0,1,.98291-2.229,3.12148,3.12148,0,0,1,2.26563-.897.5.5,0,0,1-.00635,1c-.01074-.001-.02246,0-.03418,0a2.20918,2.20918,0,0,0-2.208,2.15234A.5001.5001,0,0,1,12.23584,13.25928Z"/>
      <path d="M14.80811,6.21875h-.001A2.87811,2.87811,0,0,1,11.93994,3.146a.51147.51147,0,0,1,.53272-.46534.50074.50074,0,0,1,.46533.53272,1.8778,1.8778,0,0,0,1.87109,2.00537.5.5,0,0,1-.001,1Z"/>
      <path d="M1.02637,6.25244H.99512A.5.5,0,0,1,.5,5.74756a.51277.51277,0,0,1,.50488-.49512,2.153,2.153,0,0,0,.80127-.15137,2.07811,2.07811,0,0,0,1.3003-1.92285.50033.50033,0,0,1,.5-.49853h.00146a.5.5,0,0,1,.49854.50146,3.0808,3.0808,0,0,1-.916,2.1836,3.0791,3.0791,0,0,1-2.16406.88769Z"/>
      <path d="M7.92139,11.39746H7.91846a.5.5,0,0,1-.375-.17236L4.90283,8.17822a2.03236,2.03236,0,0,1-.36035-.81689,2.00926,2.00926,0,0,1,.01416-.84082,1.92483,1.92483,0,0,1,.68994-1.09375,2.0305,2.0305,0,0,1,1.229-.41162,2.05691,2.05691,0,0,1,1.47949.6167,2.03737,2.03737,0,0,1,.28564-.24268,2.0908,2.0908,0,0,1,1.208-.374,1.96613,1.96613,0,0,1,1.49854,3.22314L8.29541,11.229A.49823.49823,0,0,1,7.92139,11.39746ZM6.45215,6.01465a.94315.94315,0,0,0-.58838.19824.92836.92836,0,0,0-.33154.52734,1.018,1.018,0,0,0-.0083.43067,1.03019,1.03019,0,0,0,.166.39258l2.23535,2.57568L10.18848,7.5874a.97031.97031,0,0,0,.123-1.01367.96621.96621,0,0,0-.8706-.55859c-.01172-.00049-.01367,0-.02,0a1.04106,1.04106,0,0,0-.60352.19091,1.05566,1.05566,0,0,0-.38867.51954.5.5,0,0,1-.47314.33984H7.95508a.4998.4998,0,0,1-.47315-.33887,1.044,1.044,0,0,0-.38867-.52,1.10644,1.10644,0,0,0-.6206-.1914Z"/>
    </g>
  </g>
</svg>
