<svg id="Layer_1" data-name="Layer 1" xmlns="http://www.w3.org/2000/svg" viewBox="0 0 16 16"><title>giving</title><path d="M15,2.707l-2.449,0a.541.541,0,0,0-.079-.021.5.5,0,0,0-.14.021L3.646,2.688a.257.257,0,0,0-.038-.008h0c-.013,0-.024.006-.038.007l-2.545,0h0a.5.5,0,0,0-.353.146.5.5,0,0,0-.147.354l0,2.479A.412.412,0,0,0,.5,5.748a.441.441,0,0,0,.019.1L.508,12.8a.5.5,0,0,0,.5.5l13.978.023h0a.5.5,0,0,0,.5-.5L15.5,3.208A.5.5,0,0,0,15,2.707Zm-3.212,9.608L4.06,12.3A3.053,3.053,0,0,0,1.513,9.738l.005-3.533a3.022,3.022,0,0,0,.663-.177A3.079,3.079,0,0,0,3.867,4.364a3.073,3.073,0,0,0,.188-.676l7.9.013a2.879,2.879,0,0,0,.141.6,2.873,2.873,0,0,0,1.563,1.674,2.8,2.8,0,0,0,.832.207l0,3.472a3.14,3.14,0,0,0-1.773.859A3.176,3.176,0,0,0,11.789,12.315ZM14.5,5.186a1.8,1.8,0,0,1-1.059-.564,1.868,1.868,0,0,1-.4-.652,1.889,1.889,0,0,1-.065-.267l1.522,0ZM3.034,3.687a2.166,2.166,0,0,1-.089.291,2.089,2.089,0,0,1-.457.675,2.067,2.067,0,0,1-.682.448,1.959,1.959,0,0,1-.287.084l0-1.5ZM1.511,10.753A2.069,2.069,0,0,1,3.044,12.3l-1.535,0ZM12.8,12.317a2.2,2.2,0,0,1,1.692-1.647l0,1.649Zm-2.3-6.99a1.965,1.965,0,0,0-1.049-.312,2.1,2.1,0,0,0-1.208.374,2.028,2.028,0,0,0-.286.243A2,2,0,0,0,7.67,5.39a2.063,2.063,0,0,0-2.423.037,1.922,1.922,0,0,0-.69,1.094,2.016,2.016,0,0,0-.015.84,2.039,2.039,0,0,0,.361.817l2.64,3.047a.5.5,0,0,0,.375.172h0a.5.5,0,0,0,.374-.168l2.652-2.991A1.965,1.965,0,0,0,10.5,5.327Zm-.31,2.26L7.925,10.139,5.69,7.563a1.012,1.012,0,0,1-.166-.392,1.028,1.028,0,0,1,.008-.431.927.927,0,0,1,.332-.527.94.94,0,0,1,.588-.2h.021a1.1,1.1,0,0,1,.62.192,1.042,1.042,0,0,1,.389.52.5.5,0,0,0,.473.338h0a.5.5,0,0,0,.473-.339,1.045,1.045,0,0,1,.992-.711h.02a.97.97,0,0,1,.516.153.982.982,0,0,1,.355.406.963.963,0,0,1,.081.532A.947.947,0,0,1,10.188,7.587Z"/></svg>