<svg xmlns="http://www.w3.org/2000/svg" viewBox="0 0 16 16"><title>giving</title><g id="Layer_1" data-name="Layer 1"><path d="M15,13.32h0l-14,0a.5.5,0,0,1-.5-.5V3.18a.51.51,0,0,1,.5-.5H1l14,0a.5.5,0,0,1,.5.5v9.61a.51.51,0,0,1-.15.35A.47.47,0,0,1,15,13.32Zm-13.48-1,13,0V3.71l-13,0Z"/><path d="M3.61,13.29h0a.49.49,0,0,1-.49-.5,2.11,2.11,0,0,0-.61-1.48A2,2,0,0,0,1,10.69a.5.5,0,1,1,0-1H1a3.07,3.07,0,0,1,2.17.92,3.07,3.07,0,0,1,.9,2.18A.5.5,0,0,1,3.61,13.29Z"/><path d="M12.24,13.26h0a.5.5,0,0,1-.48-.51,3.19,3.19,0,0,1,1-2.23A3.12,3.12,0,0,1,15,9.62a.5.5,0,1,1,0,1h0a2.21,2.21,0,0,0-1.53.62,2.16,2.16,0,0,0-.67,1.53A.51.51,0,0,1,12.24,13.26Z"/><path d="M14.81,6.22h0A2.86,2.86,0,0,1,13.66,6a2.91,2.91,0,0,1-.95-.68,2.78,2.78,0,0,1-.61-1,2.82,2.82,0,0,1-.16-1.15.52.52,0,0,1,.53-.47.5.5,0,0,1,.47.53A1.94,1.94,0,0,0,13,4a1.91,1.91,0,0,0,.4.65,1.71,1.71,0,0,0,.62.44,1.78,1.78,0,0,0,.75.16.5.5,0,0,1,0,1Z"/><path d="M1,6.25H1a.5.5,0,0,1-.5-.5.51.51,0,0,1,.5-.5,2.2,2.2,0,0,0,.81-.15A2.07,2.07,0,0,0,2.94,4a2,2,0,0,0,.17-.8.5.5,0,0,1,.5-.5h0a.5.5,0,0,1,.5.5,3.15,3.15,0,0,1-.24,1.18,3,3,0,0,1-.68,1,3,3,0,0,1-1,.67A3.05,3.05,0,0,1,1,6.25Z"/><path d="M7.92,11.4h0a.54.54,0,0,1-.38-.17L4.9,8.18a2.26,2.26,0,0,1-.36-.82,2,2,0,0,1,0-.84,1.87,1.87,0,0,1,.69-1.09A2,2,0,0,1,6.48,5a2.07,2.07,0,0,1,1.19.37A2.17,2.17,0,0,1,8,5.63a1.61,1.61,0,0,1,.28-.24A2.1,2.1,0,0,1,9.45,5a2,2,0,0,1,1.77,1.13A2,2,0,0,1,11,8.24l-2.65,3A.52.52,0,0,1,7.92,11.4ZM6.45,6a1,1,0,0,0-.59.2,1,1,0,0,0-.33.53,1.25,1.25,0,0,0,0,.43,1.05,1.05,0,0,0,.17.39l2.24,2.58,2.26-2.55a.9.9,0,0,0,.2-.48.91.91,0,0,0-.08-.54,1,1,0,0,0-.35-.4A1,1,0,0,0,9.44,6h0a1,1,0,0,0-.6.19,1,1,0,0,0-.39.52A.51.51,0,0,1,8,7.07H8a.51.51,0,0,1-.48-.34.93.93,0,0,0-.39-.52A1.06,1.06,0,0,0,6.47,6Z"/></g></svg>