<svg xmlns="http://www.w3.org/2000/svg" viewBox="0 0 16 16">
  <title>groups</title>
  <g id="Layer_1" data-name="Layer 1">
    <g>
      <path d="M4.69,5.8265c-.6521-.2411-1.4046-.579-1.4548-.8207V4.8125a1.2433,1.2433,0,0,0,.3007-.6279.3765.3765,0,0,0,.0977-.1138.363.363,0,0,0,.044-.1415.359.359,0,0,0-.0168-.1469.3682.3682,0,0,0-.0747-.1289V3.1706a.7143.7143,0,0,0-.0368-.3291.7358.7358,0,0,0-.1824-.28.7713.7713,0,0,0-.2914-.1756A.795.795,0,0,0,2.7334,2.35a.8171.8171,0,0,0-.3371.044A.7935.7935,0,0,0,2.11,2.57a.7582.7582,0,0,0-.1831.276.7336.7336,0,0,0-.0456.3245v.4829c-.1.1933-.1.4345.05.5311a1.0865,1.0865,0,0,0,.3007.58v.2416c-.05.2417-.752.58-1.4041.8207-.05,0-.1.0967-.1.145v.5312a.122.122,0,0,0,.0054.0587.1272.1272,0,0,0,.0321.05.134.134,0,0,0,.0521.031.1369.1369,0,0,0,.061.0052H4.64a.1369.1369,0,0,0,.061-.0052.134.134,0,0,0,.0521-.031.1272.1272,0,0,0,.0321-.05A.122.122,0,0,0,4.79,6.5027V5.9715C4.74,5.9232,4.74,5.8749,4.69,5.8265Z" fill="#231f20" stroke="#231f20" stroke-linecap="round" stroke-linejoin="round"/>
      <path d="M10.1566,13.5525a4.7365,4.7365,0,0,1-1.4543-.8207V12.49a1.0872,1.0872,0,0,0,.3007-.58.3739.3739,0,0,0,.0977-.1138.3593.3593,0,0,0,.0273-.2883.368.368,0,0,0-.0748-.129v-.4829a.7664.7664,0,0,0-.8524-.869.7664.7664,0,0,0-.8524.869V11.38a.426.426,0,0,0-.0682.2737.4318.4318,0,0,0,.1184.2574,1.0872,1.0872,0,0,0,.3007.58v.2416c-.05.1934-.8028.5312-1.4543.8207-.05,0-.1.0967-.1.145v.5312a.1233.1233,0,0,0,.0054.0587.1267.1267,0,0,0,.0322.05.1337.1337,0,0,0,.052.031.137.137,0,0,0,.061.0052h3.7615a.1369.1369,0,0,0,.061-.0052.134.134,0,0,0,.0521-.031.1265.1265,0,0,0,.0321-.05.1233.1233,0,0,0,.0055-.0587v-.5312C10.2571,13.6492,10.257,13.5525,10.1566,13.5525Z" fill="#231f20" stroke="#231f20" stroke-linecap="round" stroke-linejoin="round"/>
      <path d="M15.1723,5.8265c-.6522-.2411-1.3545-.579-1.4047-.8207V4.8125a1.0866,1.0866,0,0,0,.3007-.58.3754.3754,0,0,0,.0977-.1139.363.363,0,0,0,.044-.1415.3585.3585,0,0,0-.0168-.1468.3678.3678,0,0,0-.0747-.129V3.2189a.7664.7664,0,0,0-.8524-.869.7664.7664,0,0,0-.8524.869v.4829a.4259.4259,0,0,0-.0682.2738.4324.4324,0,0,0,.1184.2574,1.0866,1.0866,0,0,0,.3007.58v.2417c-.05.1933-.8028.5312-1.4543.8206-.05,0-.1.0967-.1.1451V6.551a.1232.1232,0,0,0,.0054.0587.1275.1275,0,0,0,.0321.05.1345.1345,0,0,0,.0521.0309.1369.1369,0,0,0,.061.0052H15.122a.1369.1369,0,0,0,.061-.0052.1338.1338,0,0,0,.0521-.0309.1289.1289,0,0,0,.0322-.05.1244.1244,0,0,0,.0054-.0587v-.58C15.2727,5.9232,15.2225,5.8748,15.1723,5.8265Z" fill="#231f20" stroke="#231f20" stroke-linecap="round" stroke-linejoin="round"/>
      <path d="M10.8088,2.35A5.3307,5.3307,0,0,0,8.05,1.6254,5.151,5.151,0,0,0,5.3418,2.35" fill="none" stroke="#231f20" stroke-linecap="round" stroke-linejoin="round"/>
      <path d="M11.0592,11.67a5.3206,5.3206,0,0,0,1.6385-1.6258,5.0948,5.0948,0,0,0,.7692-2.1408,5.0948,5.0948,0,0,1-.7692,2.1408A5.3206,5.3206,0,0,1,11.0592,11.67" fill="none" stroke="#231f20" stroke-linecap="round" stroke-linejoin="round"/>
      <path d="M5.0908,11.67a5.3192,5.3192,0,0,1-1.6384-1.6258,5.0948,5.0948,0,0,1-.7692-2.1408" fill="none" stroke="#231f20" stroke-linecap="round" stroke-linejoin="round"/>
    </g>
  </g>
</svg>
