<svg xmlns="http://www.w3.org/2000/svg" viewBox="0 0 16 16">
  <title>groups</title>
  <g id="Layer_1" data-name="Layer 1">
    <g>
      <g>
        <path d="M4.68974,5.82652c-.65212-.24116-1.40466-.579-1.45486-.82068V4.81249a1.24371,1.24371,0,0,0,.30068-.62785.37528.37528,0,0,0,.09773-.11387.35935.35935,0,0,0,.02725-.28834.368.368,0,0,0-.07478-.129V3.17061A.7126.7126,0,0,0,3.549,2.84152.73505.73505,0,0,0,3.36656,2.561a.7716.7716,0,0,0-.29139-.17562.79474.79474,0,0,0-.3418-.03542.81809.81809,0,0,0-.337.04392.79433.79433,0,0,0-.28663.17628.75769.75769,0,0,0-.18309.276.73456.73456,0,0,0-.04563.3245v.48285c-.10041.19335-.10041.4345.0502.53118a1.08686,1.08686,0,0,0,.30069.57951v.24169c-.05021.24169-.752.57952-1.40411.82068-.0502,0-.10041.09667-.10041.145v.53115a.12349.12349,0,0,0,.00542.0587.12718.12718,0,0,0,.03216.05014.13374.13374,0,0,0,.05207.031.13771.13771,0,0,0,.061.0052H4.63953a.13771.13771,0,0,0,.061-.0052.13374.13374,0,0,0,.05207-.031.12729.12729,0,0,0,.03216-.05014.12349.12349,0,0,0,.00542-.0587V5.97153C4.73994,5.92319,4.73994,5.87485,4.68974,5.82652Z" fill="#231f20"/>
        <path d="M4.65967,7.14893a.63161.63161,0,0,1-.09082-.00635L.87793,7.14746a.97688.97688,0,0,1-.21582-.0293A.64227.64227,0,0,1,.41748,6.9707a.78362.78362,0,0,1-.15771-.24756.61111.61111,0,0,1-.02686-.293l-.00537-.4585A.66447.66447,0,0,1,.689,5.34473a5.28843,5.28843,0,0,0,.99317-.46631A1.56824,1.56824,0,0,1,1.47705,4.438a.91092.91092,0,0,1-.09619-.88965V3.17041A1.17623,1.17623,0,0,1,1.45947,2.668a1.251,1.251,0,0,1,.30323-.45752A1.289,1.289,0,0,1,2.23,1.92236a1.4019,1.4019,0,0,1,.544-.0708,1.07164,1.07164,0,0,1,.45947.05957,1.2782,1.2782,0,0,1,.48047.29A1.23738,1.23738,0,0,1,4.02,2.67334a1.21811,1.21811,0,0,1,.062.55811l.00244.27246a.82933.82933,0,0,1,.05078.12158.859.859,0,0,1-.06494.688.914.914,0,0,1-.07568.11474,1.75,1.75,0,0,1-.19141.45264,6.33912,6.33912,0,0,0,1.06006.47705.49576.49576,0,0,1,.17481.10986,1.20558,1.20558,0,0,1,.1455.20118A.34213.34213,0,0,1,5.29,5.97168v.53076a.93376.93376,0,0,1-.03125.21729.63177.63177,0,0,1-.165.25732.81763.81763,0,0,1-.23828.14111A.65.65,0,0,1,4.65967,7.14893Zm-.36524-.67432a.36171.36171,0,0,0,.001.1001ZM.82861,6.32666h0Zm.02881-.17773a.34367.34367,0,0,0-.05029.00341h.1001A.34187.34187,0,0,0,.85742,6.14893Zm1.46973-2.27a.50278.50278,0,0,1,.09668.2207.587.587,0,0,0,.16308.3125.50062.50062,0,0,1,.145.35205v.2417a.51282.51282,0,0,1-.01025.10205c-.03711.17773-.11084.53174-1.35156,1.04395L4.13525,6.148c-1.17529-.47754-1.33691-.78613-1.39013-1.04a.51283.51283,0,0,1-.01026-.10205V4.8125A.50043.50043,0,0,1,2.86133,4.48.74037.74037,0,0,0,3.042,4.10449a.50148.50148,0,0,1,.1167-.24853.22827.22827,0,0,1-.07275-.20264V3.17041l-.0083-.16113a.22834.22834,0,0,0-.05811-.08838A.27292.27292,0,0,0,2.917,2.85938a.30673.30673,0,0,0-.127-.0127.62753.62753,0,0,0-.22656.01855.29488.29488,0,0,0-.10645.065.25248.25248,0,0,0-.063.09375.24006.24006,0,0,0-.01513.10449l.002.5249A.50158.50158,0,0,1,2.32715,3.87891ZM3.228,3.79053Z" fill="#231f20"/>
      </g>
      <g>
        <path d="M10.15659,13.55251a4.73637,4.73637,0,0,1-1.4543-.82067v-.24169a1.08673,1.08673,0,0,0,.30068-.57952.37438.37438,0,0,0,.09776-.11383.36212.36212,0,0,0,.044-.14151.35831.35831,0,0,0-.01671-.14681.36845.36845,0,0,0-.07482-.129v-.48284a.7664.7664,0,0,0-.85239-.869.76641.76641,0,0,0-.85239.869v.48284a.42671.42671,0,0,0-.06819.27377.43208.43208,0,0,0,.11839.25741,1.08736,1.08736,0,0,0,.30069.57952v.24169c-.05021.19335-.80274.53118-1.45431.82067-.05021,0-.10042.09668-.10042.145v.53118A.12411.12411,0,0,0,6.15,14.2874a.12707.12707,0,0,0,.03216.05014.13381.13381,0,0,0,.052.031.13775.13775,0,0,0,.061.00521h3.76156a.13766.13766,0,0,0,.061-.00521.13364.13364,0,0,0,.05208-.031.1272.1272,0,0,0,.03217-.05014.1241.1241,0,0,0,.00546-.05869v-.53118C10.25706,13.64919,10.257,13.55251,10.15659,13.55251Z" fill="#231f20"/>
        <path d="M10.07617,14.875a.7077.7077,0,0,1-.09033-.00635l-3.69043.00489a.97747.97747,0,0,1-.21582-.0293.63707.63707,0,0,1-.24512-.14746.79874.79874,0,0,1-.15381-.23633.64594.64594,0,0,1-.03076-.3042l-.00537-.4585a.6681.6681,0,0,1,.43848-.62011c.291-.1294.78271-.34961,1.04687-.50342a1.5674,1.5674,0,0,1-.1958-.44678.92536.92536,0,0,1-.08594-.8667v-.36426A1.26233,1.26233,0,0,1,8.20068,9.52783a1.26232,1.26232,0,0,1,1.35254,1.36865v.33545a.82243.82243,0,0,1,.04932.11963.859.859,0,0,1,.03955.353.87647.87647,0,0,1-.18311.45361,1.59162,1.59162,0,0,1-.17187.3916,4.24289,4.24289,0,0,0,1.03516.53125l-.00049.00245a.6471.6471,0,0,1,.37549.32275.586.586,0,0,1,.01025.40869v.41358a.93367.93367,0,0,1-.03125.21728.64736.64736,0,0,1-.15869.251.80487.80487,0,0,1-.24512.14746A.63447.63447,0,0,1,10.07617,14.875Zm-.36426-.67139a.34007.34007,0,0,0,.001.09717Zm-3.46582-.15088h0ZM6.2749,13.875a.34367.34367,0,0,0-.05029.00342h.1001A.34179.34179,0,0,0,6.2749,13.875Zm1.92578-3.34717c-.26464,0-.35254.05322-.35254.36865v.48291a.50329.50329,0,0,1-.08105.27344c.06787.07178.10742.0752.124.17285a.587.587,0,0,0,.16309.3125.50068.50068,0,0,1,.145.35205v.2417a.49812.49812,0,0,1-.01611.126c-.09327.3584-.48.58545-1.44043,1.02L9.61035,13.874a5.20768,5.20768,0,0,1-1.22705-.75683.50059.50059,0,0,1-.18115-.38526v-.2417a.50064.50064,0,0,1,.145-.35205.587.587,0,0,0,.16308-.3125.495.495,0,0,1,.11573-.24316.22448.22448,0,0,1-.07276-.20313v-.48291C8.55322,10.58105,8.46533,10.52783,8.20068,10.52783Zm.49463.98877Z" fill="#231f20"/>
      </g>
      <g>
        <path d="M15.17225,5.82651c-.65212-.24116-1.35445-.579-1.40465-.82067V4.81249a1.0869,1.0869,0,0,0,.30068-.57952A.37507.37507,0,0,0,14.166,4.1191a.35945.35945,0,0,0,.02725-.28834.36873.36873,0,0,0-.07476-.129V3.21894a.7664.7664,0,0,0-.85239-.869.76641.76641,0,0,0-.85239.869v.48285a.42639.42639,0,0,0-.06825.27376.43189.43189,0,0,0,.11845.25742,1.08685,1.08685,0,0,0,.30069.57952v.24168c-.05021.19335-.80274.53118-1.45431.82068-.05021,0-.10041.09667-.10041.145V6.551a.12335.12335,0,0,0,.0054.0587.12716.12716,0,0,0,.03217.05014.13364.13364,0,0,0,.05208.031.13775.13775,0,0,0,.061.0052h3.76157a.13783.13783,0,0,0,.061-.0052.134.134,0,0,0,.05208-.031.12783.12783,0,0,0,.03217-.05014.124.124,0,0,0,.0054-.0587v-.5795C15.27266,5.92319,15.22246,5.87485,15.17225,5.82651Z" fill="#231f20"/>
        <path d="M15.1416,7.19727a.70953.70953,0,0,1-.09033-.00635l-3.69092.00488a.97468.97468,0,0,1-.2124-.02832.64416.64416,0,0,1-.248-.14844.7838.7838,0,0,1-.15771-.24756.63366.63366,0,0,1-.02686-.293L10.71,6.02a.6686.6686,0,0,1,.4375-.62012c.2915-.12939.78369-.34961,1.04785-.50342A1.56311,1.56311,0,0,1,12,4.4502a.92343.92343,0,0,1-.08643-.86719V3.21875A1.26232,1.26232,0,0,1,13.26611,1.8501a1.26232,1.26232,0,0,1,1.35254,1.36865v.33594a.81581.81581,0,0,1,.04932.11914.859.859,0,0,1-.06494.688.84678.84678,0,0,1-.07862.11865,1.59025,1.59025,0,0,1-.18505.4126,5.62932,5.62932,0,0,0,1.00634.46484.49472.49472,0,0,1,.17334.1084.69791.69791,0,0,1,.25342.50537v.5791a.89833.89833,0,0,1-.03467.228.62437.62437,0,0,1-.16162.24658.8175.8175,0,0,1-.23828.14111A.63448.63448,0,0,1,15.1416,7.19727Zm-.36474-.67676a.37982.37982,0,0,0,.001.10254ZM11.31055,6.375h0Zm.02881-.17773a.34168.34168,0,0,0-.04981.00341h.09961A.34164.34164,0,0,0,11.33936,6.19727ZM13.26611,2.8501c-.26465,0-.35254.05322-.35254.36865v.48291a.50332.50332,0,0,1-.081.27344c.06885.07178.10693.0747.124.17285a.587.587,0,0,0,.16309.3125.50066.50066,0,0,1,.145.35205v.2417a.49812.49812,0,0,1-.01611.126c-.09327.35888-.48.58593-1.44092,1.02l2.93213-.00391c-1.34668-.53662-1.42383-.90576-1.46192-1.08838a.51356.51356,0,0,1-.01025-.10205V4.8125a.50062.50062,0,0,1,.145-.35205.587.587,0,0,0,.16308-.3125.50092.50092,0,0,1,.11573-.24365.23186.23186,0,0,1-.07276-.20264V3.21875C13.61865,2.90332,13.53076,2.8501,13.26611,2.8501Zm1.50635,3.12158v0ZM13.76074,3.83887Z" fill="#231f20"/>
      </g>
      <path d="M10.80811,2.8501a.49664.49664,0,0,1-.252-.06836,4.68531,4.68531,0,0,0-2.49951-.65625,4.48436,4.48436,0,0,0-2.458.65381A.50018.50018,0,0,1,5.085,1.9209a5.60734,5.60734,0,0,1,2.97217-.79541,5.839,5.839,0,0,1,3.00391.793.5.5,0,0,1-.25293.93164Z" fill="#231f20"/>
      <path d="M11.05957,12.16943a.5.5,0,0,1-.26807-.92236,4.85043,4.85043,0,0,0,1.48487-1.47266,4.616,4.616,0,0,0,.69384-1.93066.5.5,0,0,1,.99659.05908.48529.48529,0,0,1-.00342.05908,5.62658,5.62658,0,0,1-.84424,2.35108,5.86134,5.86134,0,0,1-1.79248,1.77881A.49679.49679,0,0,1,11.05957,12.16943Z" fill="#231f20"/>
      <path d="M5.09033,12.16943a.49679.49679,0,0,1-.26709-.07763,5.85053,5.85053,0,0,1-1.792-1.7793,5.63184,5.63184,0,0,1-.84473-2.3501.50032.50032,0,0,1,.437-.55615.49427.49427,0,0,1,.55615.437A4.61872,4.61872,0,0,0,3.874,9.77393,4.84508,4.84508,0,0,0,5.3584,11.24707a.5.5,0,0,1-.26807.92236Z" fill="#231f20"/>
    </g>
  </g>
</svg>
