<svg xmlns="http://www.w3.org/2000/svg" viewBox="0 0 16 16"><title>groups</title><g id="Layer_1" data-name="Layer 1"><path d="M4.69,5.827c-.652-.242-1.405-.579-1.455-.821V4.812a1.242,1.242,0,0,0,.3-.627.378.378,0,0,0,.1-.114.341.341,0,0,0,.044-.142.368.368,0,0,0-.016-.147.39.39,0,0,0-.075-.129V3.171a.708.708,0,0,0-.037-.329.734.734,0,0,0-.182-.281.786.786,0,0,0-.292-.176.807.807,0,0,0-.342-.035.821.821,0,0,0-.337.044.8.8,0,0,0-.286.176.75.75,0,0,0-.183.276.737.737,0,0,0-.046.325v.482c-.1.194-.1.435.05.532a1.094,1.094,0,0,0,.3.579v.242c-.05.242-.752.579-1.4.821-.05,0-.1.1-.1.145V6.5a.115.115,0,0,0,.006.058.126.126,0,0,0,.032.051.129.129,0,0,0,.052.03.128.128,0,0,0,.061.006H4.64a.122.122,0,0,0,.06-.006.133.133,0,0,0,.053-.03.152.152,0,0,0,.032-.051.126.126,0,0,0,0-.058V5.972C4.74,5.923,4.74,5.875,4.69,5.827Z"/><path d="M4.66,7.149a.684.684,0,0,1-.091-.006l-3.691,0a.985.985,0,0,1-.216-.029.648.648,0,0,1-.245-.147A.8.8,0,0,1,.26,6.723.61.61,0,0,1,.233,6.43L.228,5.972a.663.663,0,0,1,.461-.627,5.264,5.264,0,0,0,.993-.467,1.55,1.55,0,0,1-.2-.44.909.909,0,0,1-.1-.89V3.17a1.183,1.183,0,0,1,.078-.5,1.25,1.25,0,0,1,.3-.458,1.3,1.3,0,0,1,.467-.288,1.4,1.4,0,0,1,.544-.07,1.061,1.061,0,0,1,.459.059,1.28,1.28,0,0,1,.481.29,1.221,1.221,0,0,1,.368,1.03l0,.273a.756.756,0,0,1,.051.121.853.853,0,0,1-.065.688A.909.909,0,0,1,4,4.428a1.754,1.754,0,0,1-.192.453,6.385,6.385,0,0,0,1.06.477.485.485,0,0,1,.175.11,1.16,1.16,0,0,1,.146.2.342.342,0,0,1,.106.3V6.5a.948.948,0,0,1-.031.218.633.633,0,0,1-.165.257.8.8,0,0,1-.239.141A.63.63,0,0,1,4.66,7.149Zm-.366-.674a.418.418,0,0,0,0,.1ZM.829,6.327h0Zm.028-.178a.419.419,0,0,0-.05,0h.1A.407.407,0,0,0,.857,6.149Zm1.47-2.27a.507.507,0,0,1,.1.221.577.577,0,0,0,.163.312.5.5,0,0,1,.145.352v.242a.5.5,0,0,1-.01.1c-.037.178-.111.532-1.352,1.044l2.765,0C2.96,5.67,2.8,5.362,2.745,5.108a.5.5,0,0,1-.01-.1V4.813a.5.5,0,0,1,.126-.333A.728.728,0,0,0,3.042,4.1a.5.5,0,0,1,.117-.248.229.229,0,0,1-.073-.2V3.17l-.008-.161a.25.25,0,0,0-.058-.088.279.279,0,0,0-.23-.074.639.639,0,0,0-.227.018.3.3,0,0,0-.106.065.251.251,0,0,0-.063.094.233.233,0,0,0-.015.1l0,.525A.5.5,0,0,1,2.327,3.879Zm.9-.088Z"/><path d="M10.157,13.553A4.741,4.741,0,0,1,8.7,12.732V12.49a1.087,1.087,0,0,0,.3-.579.4.4,0,0,0,.1-.114.373.373,0,0,0,.044-.142.369.369,0,0,0-.017-.147.373.373,0,0,0-.075-.129V10.9a.766.766,0,0,0-.852-.869.766.766,0,0,0-.853.869v.482a.427.427,0,0,0,.051.532,1.086,1.086,0,0,0,.3.579v.242c-.05.193-.8.531-1.454.821-.05,0-.1.1-.1.145v.531a.126.126,0,0,0,.005.058.152.152,0,0,0,.032.051.153.153,0,0,0,.052.031.141.141,0,0,0,.061.005h3.762a.141.141,0,0,0,.061-.005.153.153,0,0,0,.052-.031.152.152,0,0,0,.032-.051.126.126,0,0,0,.005-.058V13.7C10.257,13.649,10.257,13.553,10.157,13.553Z"/><path d="M10.076,14.875a.68.68,0,0,1-.09-.006L6.3,14.874a.977.977,0,0,1-.215-.03.637.637,0,0,1-.246-.147.81.81,0,0,1-.153-.237.648.648,0,0,1-.031-.3L5.645,13.7a.668.668,0,0,1,.438-.62c.291-.13.783-.35,1.047-.5a1.568,1.568,0,0,1-.2-.447.923.923,0,0,1-.086-.866V10.9A1.262,1.262,0,0,1,8.2,9.528,1.262,1.262,0,0,1,9.553,10.9v.336a.894.894,0,0,1,.05.12.863.863,0,0,1,.039.353.843.843,0,0,1-.1.335.867.867,0,0,1-.079.118,1.6,1.6,0,0,1-.172.392,4.255,4.255,0,0,0,1.035.531v0a.652.652,0,0,1,.375.323.588.588,0,0,1,.011.409v.414a.941.941,0,0,1-.032.217.658.658,0,0,1-.158.251.789.789,0,0,1-.246.147A.618.618,0,0,1,10.076,14.875ZM9.712,14.2a.349.349,0,0,0,0,.1Zm-3.466-.151h0Zm.029-.178a.407.407,0,0,0-.05,0h.1A.419.419,0,0,0,6.275,13.875ZM8.2,10.528c-.265,0-.353.053-.353.368v.483a.5.5,0,0,1-.081.274c.068.072.108.075.124.173a.591.591,0,0,0,.163.312.5.5,0,0,1,.145.352v.242a.489.489,0,0,1-.016.126c-.093.358-.48.585-1.44,1.02l2.867,0a5.217,5.217,0,0,1-1.227-.757.5.5,0,0,1-.181-.385V12.49a.5.5,0,0,1,.145-.352.577.577,0,0,0,.163-.312.5.5,0,0,1,.116-.243.225.225,0,0,1-.073-.2V10.9C8.553,10.581,8.465,10.528,8.2,10.528Zm.494.989Z"/><path d="M15.172,5.827c-.652-.242-1.354-.579-1.4-.821V4.812a1.078,1.078,0,0,0,.3-.579.369.369,0,0,0,.1-.114.374.374,0,0,0,.044-.141.364.364,0,0,0-.092-.276V3.219a.766.766,0,0,0-.852-.869.766.766,0,0,0-.852.869V3.7a.423.423,0,0,0-.069.274.435.435,0,0,0,.119.257,1.08,1.08,0,0,0,.3.579v.242c-.051.194-.8.531-1.455.821-.05,0-.1.1-.1.145v.531a.131.131,0,0,0,0,.059.138.138,0,0,0,.032.05.137.137,0,0,0,.113.036h3.762a.14.14,0,0,0,.061,0,.131.131,0,0,0,.052-.031.116.116,0,0,0,.032-.05.119.119,0,0,0,.006-.059V5.972C15.273,5.923,15.222,5.875,15.172,5.827Z"/><path d="M15.142,7.2a.707.707,0,0,1-.091-.006l-3.691,0a.95.95,0,0,1-.212-.029.632.632,0,0,1-.248-.148.777.777,0,0,1-.158-.248.634.634,0,0,1-.027-.292l0-.459a.668.668,0,0,1,.437-.62c.292-.129.784-.35,1.048-.5A1.559,1.559,0,0,1,12,4.45a.924.924,0,0,1-.086-.867V3.219A1.263,1.263,0,0,1,13.266,1.85a1.263,1.263,0,0,1,1.353,1.369v.336a.826.826,0,0,1,.049.119.854.854,0,0,1-.065.688.783.783,0,0,1-.079.118,1.565,1.565,0,0,1-.185.413,5.7,5.7,0,0,0,1.007.465.49.49,0,0,1,.173.108.7.7,0,0,1,.253.506v.579a.925.925,0,0,1-.034.228.625.625,0,0,1-.162.246.835.835,0,0,1-.238.142A.652.652,0,0,1,15.142,7.2Zm-.365-.676a.349.349,0,0,0,0,.1Zm-3.466-.146h0Zm.028-.178a.27.27,0,0,0-.049,0h.1A.274.274,0,0,0,11.339,6.2ZM13.266,2.85c-.265,0-.352.053-.352.369V3.7a.507.507,0,0,1-.081.273c.068.072.106.075.124.173a.577.577,0,0,0,.163.312.506.506,0,0,1,.145.353v.241a.531.531,0,0,1-.016.126c-.094.359-.48.586-1.441,1.02l2.932,0c-1.347-.536-1.424-.9-1.462-1.088a.5.5,0,0,1-.01-.1V4.813a.5.5,0,0,1,.145-.353.591.591,0,0,0,.163-.312.5.5,0,0,1,.115-.244.231.231,0,0,1-.072-.2V3.219C13.619,2.9,13.531,2.85,13.266,2.85Zm1.506,3.122v0ZM13.761,3.839Z"/><path d="M10.808,2.85a.5.5,0,0,1-.252-.068,4.692,4.692,0,0,0-2.5-.657A4.5,4.5,0,0,0,5.6,2.779a.5.5,0,0,1-.514-.858,5.61,5.61,0,0,1,2.972-.8,5.848,5.848,0,0,1,3,.793.5.5,0,0,1-.253.932Z"/><path d="M11.06,12.169a.5.5,0,0,1-.423-.232.493.493,0,0,1-.078-.267.5.5,0,0,1,.233-.423,4.851,4.851,0,0,0,1.484-1.473,4.607,4.607,0,0,0,.694-1.93.5.5,0,0,1,.556-.438.5.5,0,0,1,.441.5.4.4,0,0,1,0,.059,5.608,5.608,0,0,1-.844,2.351,5.85,5.85,0,0,1-1.792,1.779A.494.494,0,0,1,11.06,12.169Z"/><path d="M5.09,12.169a.494.494,0,0,1-.267-.077,5.872,5.872,0,0,1-1.792-1.779,5.635,5.635,0,0,1-.844-2.351.5.5,0,0,1,.437-.556.5.5,0,0,1,.556.437,4.62,4.62,0,0,0,.694,1.931,4.851,4.851,0,0,0,1.484,1.473.5.5,0,0,1-.268.922Z"/></g></svg>