<svg xmlns="http://www.w3.org/2000/svg" viewBox="0 0 16 16"><title>home</title><g id="Layer_1" data-name="Layer 1"><path d="M13.806,15.5l-3.241-.041a1.066,1.066,0,0,1-1.052-.977l0-1.637a5.212,5.212,0,0,0-.825-3.161,1.206,1.206,0,0,0-.881-.352.817.817,0,0,0-.6.244c-.719.69-.877,2.531-.877,3.183l-.043,1.61a1.065,1.065,0,0,1-.977,1.045l-3.194.046H2.1a1.038,1.038,0,0,1-.4-.092,1.028,1.028,0,0,1-.331-.24,1.048,1.048,0,0,1-.213-.348,1.06,1.06,0,0,1-.061-.4c-.222-8.223.1-8.509.3-8.68L7.052.816A1.43,1.43,0,0,1,8.811.8l5.842,5.062c.212.186.529.464.129,8.6a1.048,1.048,0,0,1-.282.7A1.064,1.064,0,0,1,13.806,15.5ZM2.146,6.369A78.4,78.4,0,0,0,2.1,14.384l.018.574-.007-.5,3.148-.044.068-1.671c0-.269.033-2.787,1.185-3.891a1.785,1.785,0,0,1,1.365-.52h0A2.068,2.068,0,0,1,9.4,8.988c1.178,1.216,1.11,3.763,1.106,3.871v1.58l3.26.061a75.087,75.087,0,0,0,.134-7.961L8.173,1.572a.442.442,0,0,0-.485.015Z"/></g></svg>