<svg xmlns="http://www.w3.org/2000/svg" viewBox="0 0 16 16">
  <title>page-saved</title>
  <g id="Layer_1" data-name="Layer 1">
    <g>
      <path d="M8.879,15.641H2.744A2.747,2.747,0,0,1,0,12.9V3.1A2.747,2.747,0,0,1,2.744.359H8.879A2.747,2.747,0,0,1,11.623,3.1v.832H9.794V3.1a.916.916,0,0,0-.915-.915H2.744a.916.916,0,0,0-.915.915V12.9a.916.916,0,0,0,.915.915H8.879a.916.916,0,0,0,.915-.915v-.192h1.829V12.9A2.747,2.747,0,0,1,8.879,15.641Z" fill="#231f20"/>
      <path d="M9.357,11.613,5.024,7.2,6.372,5.832l2.985,2.94,5.3-5.39L16,4.754Z" fill="#231f20"/>
    </g>
  </g>
</svg>
