<svg width="16" height="16" viewBox="0 0 16 16" fill="none" xmlns="http://www.w3.org/2000/svg">
<path d="M8.879 15.64H2.744C2.01701 15.6392 1.31998 15.3503 0.805634 14.8366C0.291292 14.3229 0.00158746 13.6262 0 12.8993L0 3.10063C0.00158746 2.37373 0.291292 1.67711 0.805634 1.16339C1.31998 0.649682 2.01701 0.360777 2.744 0.359985H8.879C9.60599 0.360777 10.303 0.649682 10.8174 1.16339C11.3317 1.67711 11.6214 2.37373 11.623 3.10063V3.93252H9.794V3.10063C9.79373 2.85807 9.69725 2.62552 9.52571 2.454C9.35417 2.28249 9.12159 2.18601 8.879 2.18575H2.744C2.50141 2.18601 2.26883 2.28249 2.09729 2.454C1.92575 2.62552 1.82926 2.85807 1.829 3.10063V12.8993C1.82926 13.1419 1.92575 13.3745 2.09729 13.546C2.26883 13.7175 2.50141 13.814 2.744 13.8142H8.879C9.12159 13.814 9.35417 13.7175 9.52571 13.546C9.69725 13.3745 9.79373 13.1419 9.794 12.8993V12.7074H11.623V12.8993C11.6214 13.6262 11.3317 14.3229 10.8174 14.8366C10.303 15.3503 9.60599 15.6392 8.879 15.64V15.64ZM16 4.75441L14.652 3.38259L9.357 8.77188L6.372 5.83227L5.024 7.20009L9.357 11.6085L16 4.75441Z" fill="black"/>
</svg>
