<svg xmlns="http://www.w3.org/2000/svg" viewBox="0 0 16 16">
  <title>profile</title>
  <g id="Layer_1" data-name="Layer 1">
    <path d="M8,.75125A7.25609,7.25609,0,1,0,13.12349,2.8765,7.24875,7.24875,0,0,0,8,.75125ZM4.19763,13.08236a9.33446,9.33446,0,0,1,.601-.768,3.508,3.508,0,0,1,1.76723-.43492A1.034,1.034,0,0,0,7.5926,10.8536v-.55054c0-.47438-.43034-.72212-.8102-.94142a3.07775,3.07775,0,0,1-.47162-.45878l-.10094-.1101a1.20648,1.20648,0,0,1-.30371-.57165,10.76152,10.76152,0,0,1-.234-2.20214,1.67273,1.67273,0,0,1,.49823-1.23228,2.70222,2.70222,0,0,1,1.80392-.734,2.70133,2.70133,0,0,1,1.803.734,1.677,1.677,0,0,1,.5019,1.23412A10.8004,10.8004,0,0,1,10.04433,8.223a1.20736,1.20736,0,0,1-.30372.57072l-.11928.13121a2.92268,2.92268,0,0,1-.44594.43585c-.40005.23031-.80929.5276-.80929.98638v.55053a1.00927,1.00927,0,0,0,1.01942.9818,3.487,3.487,0,0,1,1.7608.43492,9.66428,9.66428,0,0,1,.61936.79369,6.30917,6.30917,0,0,1-7.568-.02569Zm8.24888-.55053a10.08759,10.08759,0,0,0-.6423-.81572c-.60742-.66982-2.32418-.72487-2.39759-.72671-.04863,0-.14039,0-.15231-.09176l-.0101-.48906a1.11656,1.11656,0,0,1,.37529-.27526,3.1029,3.1029,0,0,0,.66248-.61018l.11286-.12388a2.10984,2.10984,0,0,0,.52025-.98638,11.64241,11.64241,0,0,0,.25509-2.38565,2.569,2.569,0,0,0-.75975-1.86907A3.58858,3.58858,0,0,0,7.9743,3.16444a3.58855,3.58855,0,0,0-2.43611.99463,2.56917,2.56917,0,0,0-.76066,1.86908A11.67638,11.67638,0,0,0,5.0326,8.4138a2.13442,2.13442,0,0,0,.51934.98546l.09727.10644a3.29071,3.29071,0,0,0,.68542.62853,3.09864,3.09864,0,0,1,.367.234v.47713a.14126.14126,0,0,1-.15414.1459c-.0725,0-1.79659.05689-2.404.72671-.2092.23122-.44227.54044-.62119.78727a6.35686,6.35686,0,1,1,8.92971.02844Z" fill="#231f20"/>
  </g>
</svg>
