<svg xmlns="http://www.w3.org/2000/svg" viewBox="0 0 16 16">
  <title>profile</title>
  <g id="Layer_1" data-name="Layer 1">
    <path d="M8,.7512a7.2561,7.2561,0,1,0,5.1235,2.1253A7.2489,7.2489,0,0,0,8,.7512ZM4.1976,13.0824a9.3171,9.3171,0,0,1,.601-.768,3.5088,3.5088,0,0,1,1.7673-.435,1.0341,1.0341,0,0,0,1.0267-1.0258v-.55c0-.4744-.43-.7222-.81-.9415a3.0767,3.0767,0,0,1-.4716-.4587l-.101-.11a1.2067,1.2067,0,0,1-.3037-.5717A10.7579,10.7579,0,0,1,5.6722,6.019,1.6721,1.6721,0,0,1,6.17,4.7867a2.7024,2.7024,0,0,1,1.8039-.7341,2.7011,2.7011,0,0,1,1.803.7341,1.6767,1.6767,0,0,1,.5019,1.2341,10.7932,10.7932,0,0,1-.2349,2.2021,1.2069,1.2069,0,0,1-.3037.5708l-.1193.1312a2.9216,2.9216,0,0,1-.4459.4358c-.4.23-.8093.5276-.8093.9864v.5505a1.0092,1.0092,0,0,0,1.0194.9818,3.4874,3.4874,0,0,1,1.7608.435,9.647,9.647,0,0,1,.6194.7937,6.31,6.31,0,0,1-7.5681-.0257Zm8.2489-.5506a10.097,10.097,0,0,0-.6423-.8157c-.6074-.67-2.3242-.7249-2.3976-.7267-.0486,0-.14,0-.1523-.0918l-.01-.489a1.1177,1.1177,0,0,1,.3753-.2753,3.1,3.1,0,0,0,.6625-.61l.1128-.1238a2.11,2.11,0,0,0,.52-.9864A11.6506,11.6506,0,0,0,11.17,6.0272a2.5685,2.5685,0,0,0-.76-1.869,3.5886,3.5886,0,0,0-2.4361-.9938,3.5886,3.5886,0,0,0-2.4361.9947,2.5695,2.5695,0,0,0-.7607,1.8691,11.6784,11.6784,0,0,0,.2551,2.3856,2.1343,2.1343,0,0,0,.5193.9855l.0973.1064a3.293,3.293,0,0,0,.6854.6285,3.098,3.098,0,0,1,.3671.234v.4771a.1412.1412,0,0,1-.1542.1459c-.0725,0-1.7966.0569-2.404.7267-.2092.2313-.4423.54-.6212.7873a6.3568,6.3568,0,1,1,8.93.0285Z" fill="#231f20"/>
  </g>
</svg>
