<svg id="Layer_1" data-name="Layer 1" xmlns="http://www.w3.org/2000/svg" viewBox="0 0 16 16"><title>registrations</title><path d="M15,4.3H11.206L9.2,2.212a1.227,1.227,0,0,0,.076-.338v-.03A1.264,1.264,0,0,0,8.888.969a1.3,1.3,0,0,0-1.775,0,1.278,1.278,0,0,0-.385.907,1.266,1.266,0,0,0,.1.449L4.848,4.3H1a.5.5,0,0,0-.5.5V14.893a.5.5,0,0,0,.5.5H15a.5.5,0,0,0,.5-.5V4.8A.5.5,0,0,0,15,4.3ZM7.544,3.022A1.275,1.275,0,0,0,8,3.11a1.257,1.257,0,0,0,.544-.135L9.82,4.3H6.262ZM14.5,5.3v.93H1.5V5.3Zm-13,9.089V7.234h13v7.159ZM3.962,8.666a.5.5,0,0,1-.5.5h-.53a.5.5,0,0,1,0-1h.53A.5.5,0,0,1,3.962,8.666Zm0,1.447a.5.5,0,0,1-.5.5h-.53a.5.5,0,0,1,0-1h.53A.5.5,0,0,1,3.962,10.113Zm0,1.449a.5.5,0,0,1-.5.5h-.53a.5.5,0,0,1,0-1h.53A.5.5,0,0,1,3.962,11.562Zm0,1.448a.5.5,0,0,1-.5.5h-.53a.5.5,0,0,1,0-1h.53A.5.5,0,0,1,3.962,13.01ZM5.893,8.666a.5.5,0,0,1-.5.5H4.862a.5.5,0,0,1,0-1h.531A.5.5,0,0,1,5.893,8.666Zm0,1.447a.5.5,0,0,1-.5.5H4.862a.5.5,0,0,1,0-1h.531A.5.5,0,0,1,5.893,10.113Zm0,1.449a.5.5,0,0,1-.5.5H4.862a.5.5,0,0,1,0-1h.531A.5.5,0,0,1,5.893,11.562Zm0,1.448a.5.5,0,0,1-.5.5H4.862a.5.5,0,0,1,0-1h.531A.5.5,0,0,1,5.893,13.01ZM7.824,8.666a.5.5,0,0,1-.5.5H6.793a.5.5,0,1,1,0-1h.531A.5.5,0,0,1,7.824,8.666Zm0,1.447a.5.5,0,0,1-.5.5H6.793a.5.5,0,1,1,0-1h.531A.5.5,0,0,1,7.824,10.113Zm0,1.449a.5.5,0,0,1-.5.5H6.793a.5.5,0,0,1,0-1h.531A.5.5,0,0,1,7.824,11.562Zm0,1.448a.5.5,0,0,1-.5.5H6.793a.5.5,0,0,1,0-1h.531A.5.5,0,0,1,7.824,13.01ZM9.755,8.666a.5.5,0,0,1-.5.5h-.53a.5.5,0,1,1,0-1h.53A.5.5,0,0,1,9.755,8.666Zm0,1.447a.5.5,0,0,1-.5.5h-.53a.5.5,0,0,1,0-1h.53A.5.5,0,0,1,9.755,10.113Zm0,1.449a.5.5,0,0,1-.5.5h-.53a.5.5,0,0,1,0-1h.53A.5.5,0,0,1,9.755,11.562Zm1.931-2.9a.5.5,0,0,1-.5.5h-.531a.5.5,0,1,1,0-1h.531A.5.5,0,0,1,11.686,8.666Zm0,1.447a.5.5,0,0,1-.5.5h-.531a.5.5,0,0,1,0-1h.531A.5.5,0,0,1,11.686,10.113Zm0,1.449a.5.5,0,0,1-.5.5h-.531a.5.5,0,0,1,0-1h.531A.5.5,0,0,1,11.686,11.562Zm1.931-2.9a.5.5,0,0,1-.5.5h-.531a.5.5,0,0,1,0-1h.531A.5.5,0,0,1,13.617,8.666Zm0,1.447a.5.5,0,0,1-.5.5h-.531a.5.5,0,1,1,0-1h.531A.5.5,0,0,1,13.617,10.113Zm0,1.449a.5.5,0,0,1-.5.5h-.531a.5.5,0,0,1,0-1h.531A.5.5,0,0,1,13.617,11.562ZM9.755,13.01a.5.5,0,0,1-.5.5h-.53a.5.5,0,0,1,0-1h.53A.5.5,0,0,1,9.755,13.01Z"/></svg>