<svg xmlns="http://www.w3.org/2000/svg" viewBox="0 0 16 16"><title>registrations</title><g id="Layer_1" data-name="Layer 1"><path d="M15,15.393H1a.5.5,0,0,1-.5-.5V4.8A.5.5,0,0,1,1,4.3H15a.5.5,0,0,1,.5.5V14.893A.5.5,0,0,1,15,15.393Zm-13.5-1h13V5.3H1.5Z"/><path d="M5.055,5.3A.5.5,0,0,1,4.7,4.45L7.115,2.036a.5.5,0,1,1,.707.707L5.408,5.157A.5.5,0,0,1,5.055,5.3Z"/><path d="M10.993,5.3a.5.5,0,0,1-.36-.154L8.268,2.688A.5.5,0,1,1,8.988,2l2.366,2.463a.5.5,0,0,1-.361.846Z"/><path d="M8.772,1.859a.773.773,0,0,1-1.545,0,.773.773,0,0,1,1.545,0Z"/><path d="M8,3.11A1.271,1.271,0,0,1,6.728,1.874,1.278,1.278,0,0,1,7.113.967a1.3,1.3,0,0,1,1.775,0,1.264,1.264,0,0,1,.384.875v.03A1.274,1.274,0,0,1,8,3.11Zm0-1.5a.273.273,0,0,0-.272.267.261.261,0,0,0,.081.158.277.277,0,0,0,.379,0,.268.268,0,0,0,.083-.175A.273.273,0,0,0,8,1.607Z"/><path d="M3.462,9.166h-.53a.5.5,0,0,1,0-1h.53a.5.5,0,0,1,0,1Z"/><path d="M3.462,10.613h-.53a.5.5,0,0,1,0-1h.53a.5.5,0,0,1,0,1Z"/><path d="M3.462,12.062h-.53a.5.5,0,0,1,0-1h.53a.5.5,0,0,1,0,1Z"/><path d="M3.462,13.51h-.53a.5.5,0,0,1,0-1h.53a.5.5,0,1,1,0,1Z"/><path d="M5.393,9.166H4.862a.5.5,0,0,1,0-1h.531a.5.5,0,1,1,0,1Z"/><path d="M5.393,10.613H4.862a.5.5,0,0,1,0-1h.531a.5.5,0,1,1,0,1Z"/><path d="M5.393,12.062H4.862a.5.5,0,0,1,0-1h.531a.5.5,0,0,1,0,1Z"/><path d="M5.393,13.51H4.862a.5.5,0,0,1,0-1h.531a.5.5,0,0,1,0,1Z"/><path d="M7.324,9.166H6.793a.5.5,0,1,1,0-1h.531a.5.5,0,0,1,0,1Z"/><path d="M7.324,10.613H6.793a.5.5,0,1,1,0-1h.531a.5.5,0,0,1,0,1Z"/><path d="M7.324,12.062H6.793a.5.5,0,0,1,0-1h.531a.5.5,0,0,1,0,1Z"/><path d="M7.324,13.51H6.793a.5.5,0,0,1,0-1h.531a.5.5,0,0,1,0,1Z"/><path d="M9.255,9.166h-.53a.5.5,0,1,1,0-1h.53a.5.5,0,0,1,0,1Z"/><path d="M9.255,10.613h-.53a.5.5,0,0,1,0-1h.53a.5.5,0,1,1,0,1Z"/><path d="M9.255,12.062h-.53a.5.5,0,0,1,0-1h.53a.5.5,0,0,1,0,1Z"/><path d="M11.186,9.166h-.531a.5.5,0,1,1,0-1h.531a.5.5,0,0,1,0,1Z"/><path d="M11.186,10.613h-.531a.5.5,0,0,1,0-1h.531a.5.5,0,0,1,0,1Z"/><path d="M11.186,12.062h-.531a.5.5,0,0,1,0-1h.531a.5.5,0,0,1,0,1Z"/><path d="M13.117,9.166h-.531a.5.5,0,0,1,0-1h.531a.5.5,0,0,1,0,1Z"/><path d="M13.117,10.613h-.531a.5.5,0,1,1,0-1h.531a.5.5,0,0,1,0,1Z"/><path d="M13.117,12.062h-.531a.5.5,0,0,1,0-1h.531a.5.5,0,0,1,0,1Z"/><path d="M9.255,13.51h-.53a.5.5,0,0,1,0-1h.53a.5.5,0,0,1,0,1Z"/><path d="M15,7.234H1a.5.5,0,0,1,0-1H15a.5.5,0,0,1,0,1Z"/></g></svg>