<svg data-name="Layer 1" xmlns="http://www.w3.org/2000/svg" viewBox="0 0 16 16" aria-labelledby="title" role="img" class="symbol symbol-resources-logo"><title id="title">resources-logo icon</title><rect class="cls-1" x="1.235" y="7.439" width=".661" height=".614" rx=".047" ry=".047"/><rect class="cls-1" x="2.131" y="7.439" width=".661" height=".614" rx=".047" ry=".047"/><rect class="cls-1" x="1.235" y="8.289" width=".661" height=".614" rx=".047" ry=".047"/><rect class="cls-1" x="2.131" y="8.289" width=".661" height=".614" rx=".047" ry=".047"/><path class="cls-2" d="M3.41 6.264H.594a.384.384 0 0 0-.375.387v2.815a.387.387 0 0 0 .387.387h2.816a.387.387 0 0 0 .387-.387V6.651a.389.389 0 0 0-.399-.387zm0 2.993a.171.171 0 0 1-.171.171H.785a.171.171 0 0 1-.171-.171V6.83a.171.171 0 0 1 .171-.171h.448v.181a.121.121 0 0 0 .121.121h1.3a.121.121 0 0 0 .121-.121v-.181h.472a.171.171 0 0 1 .171.171z" role="presentation"/><path class="cls-1" d="M5.514 9.486l-.354-.529h-.286v.529H4.51V7.833h.755c.39 0 .623.205.623.545a.513.513 0 0 1-.354.512l.4.59zM5.521 8.4c0-.156-.109-.236-.286-.236h-.361v.475h.368c.177 0 .279-.095.279-.234zm1.739.578h-.881a.293.293 0 0 0 .309.248A.415.415 0 0 0 7 9.1l.205.182a.668.668 0 0 1-1.183-.422.63.63 0 0 1 .626-.66.616.616 0 0 1 .616.687c0 .037-.002.058-.004.091zm-.611-.493a.282.282 0 0 0-.274.269h.541a.271.271 0 0 0-.268-.269zm1.237 1.024a.886.886 0 0 1-.543-.191l.157-.236a.716.716 0 0 0 .4.151c.1 0 .151-.038.151-.094 0-.078-.123-.1-.262-.147-.177-.052-.378-.134-.378-.38a.414.414 0 0 1 .463-.4.876.876 0 0 1 .472.146L8.2 8.6a.749.749 0 0 0-.342-.118c-.087 0-.132.038-.132.087 0 .071.12.1.257.151.177.059.382.144.382.376.005.286-.205.413-.479.413zm1.271.005a.658.658 0 0 1-.682-.654.685.685 0 0 1 1.37 0 .664.664 0 0 1-.688.654zm.333-.659a.336.336 0 0 0-.333-.349.324.324 0 0 0-.328.345.336.336 0 0 0 .333.35.324.324 0 0 0 .328-.345zm1.326.631v-.18a.448.448 0 0 1-.371.2.415.415 0 0 1-.43-.47V8.22h.359v.706c0 .17.08.257.217.257s.224-.087.224-.257V8.22h.359v1.266zm1.357-.914c-.238 0-.385.144-.385.446v.467h-.359V8.22h.359v.255a.391.391 0 0 1 .4-.279v.375zm.749.942a.646.646 0 0 1-.659-.654.65.65 0 0 1 .663-.659.623.623 0 0 1 .505.212l-.22.236a.37.37 0 0 0-.288-.139.323.323 0 0 0-.307.345.324.324 0 0 0 .321.35.4.4 0 0 0 .29-.135l.21.213a.638.638 0 0 1-.515.231zm1.812-.536h-.881a.294.294 0 0 0 .309.248.415.415 0 0 0 .307-.13l.206.182A.668.668 0 0 1 13.5 8.86a.63.63 0 0 1 .626-.659.616.616 0 0 1 .616.687 1.575 1.575 0 0 0-.008.09zm-.611-.493a.282.282 0 0 0-.274.269h.541a.272.272 0 0 0-.268-.269zm1.237 1.024a.887.887 0 0 1-.543-.191l.153-.236a.716.716 0 0 0 .4.151c.1 0 .151-.038.151-.094 0-.078-.123-.1-.262-.147-.177-.052-.378-.134-.378-.38a.414.414 0 0 1 .463-.4.875.875 0 0 1 .472.146l-.137.248a.75.75 0 0 0-.342-.118c-.087 0-.132.038-.132.087 0 .071.12.1.257.151.177.059.382.144.382.376 0 .28-.21.407-.484.407zM4.528 7.394a.01.01 0 0 1-.011-.011v-.7a.01.01 0 0 1 .011-.011h.1a.01.01 0 0 1 .011.011v.04a.159.159 0 0 1 .14-.062.177.177 0 0 1 .183.127.607.607 0 0 1 0 .3.177.177 0 0 1-.183.127.159.159 0 0 1-.14-.062v.237a.01.01 0 0 1-.011.011zm.319-.363a.448.448 0 0 0 0-.2.1.1 0 0 0-.2 0 .448.448 0 0 0 0 .2.1.1 0 0 0 .2 0zm.399.169c-.1 0-.145-.049-.145-.151v-.59a.01.01 0 0 1 .011-.011h.1a.01.01 0 0 1 .011.011v.583c0 .036.014.048.046.048h.024a.01.01 0 0 1 .007.01v.088a.01.01 0 0 1-.011.011zm.48 0a.01.01 0 0 1-.011-.011v-.042a.173.173 0 0 1-.149.061.158.158 0 0 1-.178-.161c0-.115.081-.168.212-.168h.108a.006.006 0 0 0 .006-.006v-.025c0-.06-.029-.088-.117-.088a.185.185 0 0 0-.121.036.01.01 0 0 1-.015 0l-.041-.072a.01.01 0 0 1 0-.014.309.309 0 0 1 .188-.051c.161 0 .22.055.22.184v.345a.01.01 0 0 1-.011.011zm-.013-.178v-.04a.006.006 0 0 0-.006-.007h-.089c-.079 0-.114.022-.114.071s.032.066.091.066c.076-.003.118-.033.118-.093zm.595.178a.01.01 0 0 1-.008-.014v-.3c0-.068-.034-.115-.1-.115a.1.1 0 0 0-.1.115v.3a.01.01 0 0 1-.011.011h-.1a.01.01 0 0 1-.011-.011v-.507a.01.01 0 0 1 .011-.011h.1a.01.01 0 0 1 .011.011v.038a.163.163 0 0 1 .139-.061.18.18 0 0 1 .183.2v.333a.01.01 0 0 1-.011.011zm.592 0a.01.01 0 0 1-.011-.011v-.3c0-.068-.034-.115-.1-.115a.1.1 0 0 0-.1.115v.3a.01.01 0 0 1-.011.011h-.1a.01.01 0 0 1-.011-.011v-.51a.01.01 0 0 1 .011-.011h.1a.01.01 0 0 1 .011.011v.038a.163.163 0 0 1 .139-.061.18.18 0 0 1 .183.2v.333A.01.01 0 0 1 7 7.2zm.264-.631a.01.01 0 0 1-.011-.011v-.1a.01.01 0 0 1 .011-.011h.1a.01.01 0 0 1 .011.011v.1a.01.01 0 0 1-.011.011zm0 .628a.01.01 0 0 1-.011-.011v-.507a.01.01 0 0 1 .011-.011h.1a.01.01 0 0 1 .011.011v.506a.01.01 0 0 1-.011.011zm.595.003a.01.01 0 0 1-.011-.011v-.3c0-.068-.034-.115-.1-.115a.1.1 0 0 0-.1.115v.3a.01.01 0 0 1-.011.011h-.1a.01.01 0 0 1-.011-.011v-.51a.01.01 0 0 1 .011-.011h.1a.01.01 0 0 1 .011.011v.038a.163.163 0 0 1 .139-.061.18.18 0 0 1 .183.2v.333a.01.01 0 0 1-.01.011zM8 7.327a.01.01 0 0 1 0-.015l.065-.065a.01.01 0 0 1 .016 0A.162.162 0 0 0 8.2 7.3c.081 0 .118-.044.118-.126v-.053a.152.152 0 0 1-.137.061A.177.177 0 0 1 8 7.054a.4.4 0 0 1-.018-.135A.394.394 0 0 1 8 6.786a.176.176 0 0 1 .18-.129.151.151 0 0 1 .137.063v-.04a.01.01 0 0 1 .011-.011h.1a.01.01 0 0 1 .011.011v.485a.221.221 0 0 1-.247.242.261.261 0 0 1-.192-.08zm.3-.321a.245.245 0 0 0 .012-.087.254.254 0 0 0-.012-.087.1.1 0 0 0-.187 0 .254.254 0 0 0-.012.087.245.245 0 0 0 .012.087.1.1 0 0 0 .187 0zm.411.057a.527.527 0 0 1 0-.261.213.213 0 0 1 .218-.146.23.23 0 0 1 .183.082.011.011 0 0 1 0 .015l-.069.06a.01.01 0 0 1-.015 0 .12.12 0 0 0-.1-.046.1.1 0 0 0-.1.069.313.313 0 0 0-.011.1.322.322 0 0 0 .011.1.1.1 0 0 0 .1.068.12.12 0 0 0 .1-.046.01.01 0 0 1 .015 0l.069.06c.006 0 0 .01 0 .015a.233.233 0 0 1-.183.081.213.213 0 0 1-.218-.151zm.512-.001a.411.411 0 0 1-.023-.13.423.423 0 0 1 .017-.13.234.234 0 0 1 .433 0 .472.472 0 0 1 .018.159.011.011 0 0 1-.012.011h-.322a.006.006 0 0 0-.007.007.118.118 0 0 0 .008.04.115.115 0 0 0 .118.08.159.159 0 0 0 .124-.05.011.011 0 0 1 .017 0l.065.057a.01.01 0 0 1 0 .015.278.278 0 0 1-.217.09.214.214 0 0 1-.219-.149zm.319-.233a.113.113 0 0 0-.207 0 .13.13 0 0 0-.007.045s0 .006.007.006h.207a.006.006 0 0 0 .007-.006.133.133 0 0 0-.007-.046zm.585.371a.01.01 0 0 1-.011-.011v-.3c0-.068-.034-.115-.1-.115a.1.1 0 0 0-.1.115v.3A.01.01 0 0 1 9.9 7.2h-.1a.01.01 0 0 1-.011-.011v-.51a.01.01 0 0 1 .011-.011h.1a.01.01 0 0 1 .011.011v.038a.164.164 0 0 1 .139-.061.18.18 0 0 1 .183.2v.333a.01.01 0 0 1-.011.011zm.41 0c-.106 0-.147-.052-.147-.155V6.77a.006.006 0 0 0-.007-.007h-.035a.01.01 0 0 1-.011-.011v-.073a.01.01 0 0 1 .011-.011h.035a.006.006 0 0 0 .007-.007v-.144a.01.01 0 0 1 .011-.011h.1a.01.01 0 0 1 .011.011v.145a.006.006 0 0 0 .007.007h.07a.01.01 0 0 1 .011.011v.074a.01.01 0 0 1-.011.011h-.07a.006.006 0 0 0-.007.007v.274c0 .037.015.049.049.049h.028a.01.01 0 0 1 .011.005v.088a.01.01 0 0 1-.011.011zm.176-.138a.411.411 0 0 1-.019-.129.42.42 0 0 1 .018-.13.234.234 0 0 1 .433 0 .472.472 0 0 1 .018.159.011.011 0 0 1-.012.011h-.326a.006.006 0 0 0-.007.007.123.123 0 0 0 .126.12.159.159 0 0 0 .124-.05c.005-.006.011-.007.016 0l.065.057a.01.01 0 0 1 0 .015.278.278 0 0 1-.217.09.214.214 0 0 1-.219-.15zm.319-.233a.113.113 0 0 0-.207 0 .133.133 0 0 0-.007.045.006.006 0 0 0 .007.006h.207a.006.006 0 0 0 .007-.006.133.133 0 0 0-.007-.046zm.262.371a.01.01 0 0 1-.011-.011v-.51a.01.01 0 0 1 .011-.011h.1a.01.01 0 0 1 .011.011v.045a.151.151 0 0 1 .137-.068.159.159 0 0 1 .111.044c.006.005.007.01 0 .015l-.058.073a.01.01 0 0 1-.015 0 .143.143 0 0 0-.078-.025c-.069 0-.1.049-.1.134v.286a.01.01 0 0 1-.002.017z" role="presentation"/></svg>