<svg data-name="Layer 1" xmlns="http://www.w3.org/2000/svg" viewBox="0 0 16 16" aria-labelledby="title" role="img" class="symbol symbol-resources"><title id="title">resources icon</title><circle class="cls-1" cx="8" cy="5" r="2"/><circle class="cls-1" cx="5" cy="10.5" r="2"/><circle class="cls-1" cx="11" cy="10.5" r="2"/><path class="cls-1" d="M14 0H2a2 2 0 0 0-2 2v12a2 2 0 0 0 2 2h12a2 2 0 0 0 2-2V2a2 2 0 0 0-2-2zm.5 14a.5.5 0 0 1-.5.5H2a.5.5 0 0 1-.5-.5V2a.5.5 0 0 1 .5-.5h12a.5.5 0 0 1 .5.5z" role="presentation"/></svg>