<svg id="Layer_1" data-name="Layer 1" xmlns="http://www.w3.org/2000/svg" viewBox="0 0 16 16"><defs><style>.cls-1{fill:#010101;}</style></defs><title>approval-group</title><path class="cls-1" d="M12,8a4,4,0,1,0,4,4A4,4,0,0,0,12,8Zm2.568,3.295L12.022,13.84a.545.545,0,0,1-.771,0L9.8,12.386a.545.545,0,0,1,.771-.771l1.069,1.069,2.16-2.16a.545.545,0,0,1,.771.771Z"/><path class="cls-1" d="M7,14.5H2a.485.485,0,0,1-.5-.48V11.38a.5.5,0,0,1,.308-.457l4-1.65a10.207,10.207,0,0,1,.982-.342,4.5,4.5,0,1,0-2.921-.467L1.231,9.552A1.98,1.98,0,0,0,0,11.38v2.64A1.99,1.99,0,0,0,2,16H7a.75.75,0,0,0,0-1.5ZM3,4.5a3,3,0,1,1,3,3A3,3,0,0,1,3,4.5Z"/></svg>