<svg id="Layer_1" data-name="Layer 1" xmlns="http://www.w3.org/2000/svg" viewBox="0 0 16 16"><defs><style>.cls-1{fill:#231f20;}</style></defs><title>chrome</title><path class="cls-1" d="M14.8,4.9l-4.4.13a3.821,3.821,0,0,1,.684,5.232L7.566,15.465c.144.008.288.013.434.013A7.48,7.48,0,0,0,14.8,4.9ZM5.346,8.007A2.682,2.682,0,1,0,8.028,5.325,2.682,2.682,0,0,0,5.346,8.007ZM8,11.823a3.818,3.818,0,0,1-3.246-1.8h0l0,0q-.078-.126-.147-.258L2.013,5.206l-.528-.878a7.48,7.48,0,0,0,5.14,11.022l2.5-3.7A3.823,3.823,0,0,1,8,11.823ZM7.664,4.192h0c.11-.01.221-.015.334-.015.061,0,.122,0,.183,0l6.176-.117A7.478,7.478,0,0,0,2,3.543l2.25,3.738A3.825,3.825,0,0,1,7.664,4.192Z"/></svg>