<svg id="Layer_1" data-name="Layer 1" xmlns="http://www.w3.org/2000/svg" viewBox="0 0 16 16"><defs><style>.cls-1{fill:#231f20;}</style></defs><title>close-disc</title><path class="cls-1" d="M8.036.234A7.766,7.766,0,1,0,15.8,8,7.766,7.766,0,0,0,8.036.234ZM12.52,10.862a.257.257,0,0,1,0,.363l-1.259,1.259a.257.257,0,0,1-.363,0L8.036,9.622,5.174,12.484a.257.257,0,0,1-.363,0L3.552,11.225a.257.257,0,0,1,0-.363L6.414,8,3.552,5.138a.257.257,0,0,1,0-.363L4.811,3.516a.257.257,0,0,1,.363,0L8.036,6.378,10.9,3.516a.257.257,0,0,1,.363,0L12.52,4.775a.257.257,0,0,1,0,.363L9.658,8Z"/></svg>