<svg id="Layer_1" data-name="Layer 1" xmlns="http://www.w3.org/2000/svg" viewBox="0 0 16 16"><defs><style>.cls-1{fill:#231f20;}</style></defs><title>dark</title><path class="cls-1" d="M4.106,4.808V3.743H5.17a.533.533,0,1,0,0-1.065H4.106V1.612a.533.533,0,0,0-1.066,0V2.677H1.975a.533.533,0,1,0,0,1.066H3.039V4.808a.533.533,0,1,0,1.066,0Z"/><path class="cls-1" d="M10.654,5.327a5.327,5.327,0,0,1-4.262,8.521,5.326,5.326,0,1,0,4.262-8.521Z"/><path class="cls-1" d="M6.236,8.538H5.7V8A.533.533,0,0,0,4.637,8v.533H4.106a.532.532,0,1,0,0,1.065h.531v.534a.533.533,0,0,0,1.066,0V9.6h.533a.532.532,0,0,0,0-1.065Z"/></svg>