<svg id="Layer_1" data-name="Layer 1" xmlns="http://www.w3.org/2000/svg" viewBox="0 0 16 16"><defs><style>.cls-1{fill:#231f20;fill-rule:evenodd;}</style></defs><title>event</title><path class="cls-1" d="M5.932,9.776a.45.45,0,0,1,.133.406L5.482,12.6c-.033.133.037.184.154.111l2.121-1.3a.445.445,0,0,1,.426,0l2.121,1.3c.117.072.185.022.154-.111l-.582-2.419a.444.444,0,0,1,.131-.406L11.9,8.162c.106-.089.078-.171-.059-.182l-2.48-.193a.451.451,0,0,1-.346-.25l-.949-2.3c-.053-.127-.139-.127-.191,0l-.951,2.3a.447.447,0,0,1-.344.25L4.1,7.98c-.137.011-.162.093-.059.182Z"/><path class="cls-1" d="M15.5,2.326H14.067V1.257c0-.7-.9-1.271-1.605-1.271s-1.64.57-1.64,1.271V2.326H4.8V1.257C4.8.557,3.9-.014,3.2-.014s-1.64.57-1.64,1.271V2.326H.5a.5.5,0,0,0-.5.5V15.518a.5.5,0,0,0,.5.5h15a.5.5,0,0,0,.5-.5V2.826A.5.5,0,0,0,15.5,2.326Zm-3.577-.749a.521.521,0,1,1,1.042,0v.7a.521.521,0,0,1-1.042,0Zm-9.28,0a.521.521,0,1,1,1.042,0v.7a.521.521,0,0,1-1.042,0ZM14.416,14.5H1.581V3.883H14.416Z"/></svg>