<svg id="Layer_1" data-name="Layer 1" xmlns="http://www.w3.org/2000/svg" viewBox="0 0 16 16"><defs><style>.cls-1{fill:#030303;}</style></defs><title>file-pdf</title><path id="path0_fill" data-name="path0 fill" class="cls-1" d="M9.858,0H2.31A.807.807,0,0,0,1.5.8V15.2a.807.807,0,0,0,.81.8H13.69a.807.807,0,0,0,.81-.8V4.149ZM12.44,4.155l-2.47.007a.119.119,0,0,1-.119-.118l0-2.194Zm.7,10.5H2.859V1.35H8.5l0,2.691a1.453,1.453,0,0,0,.432,1.04,1.476,1.476,0,0,0,1.05.431L13.141,5.5Z"/><path id="path1_fill" data-name="path1 fill" class="cls-1" d="M10.815,10.183a1.079,1.079,0,0,0-1.024-.458,4.085,4.085,0,0,0-.7.059A7.884,7.884,0,0,1,8.056,8.248C8.362,6.941,8.172,6.516,8,6.307a.766.766,0,0,0-.585-.275.988.988,0,0,0-.264.046.8.8,0,0,0-.523.487,2.382,2.382,0,0,0,.276,1.8,16.162,16.162,0,0,1-.848,2.364c-1.01.474-1.511.943-1.574,1.472a.93.93,0,0,0,.412.872.718.718,0,0,0,.444.156,1.279,1.279,0,0,0,.974-.663,6.79,6.79,0,0,0,.569-.993,12.915,12.915,0,0,1,1.835-.594,1.8,1.8,0,0,0,1.152.526.992.992,0,0,0,.82-.435A.8.8,0,0,0,10.815,10.183Zm-.741.451a.215.215,0,0,1-.208.112.959.959,0,0,1-.51-.244c.17-.019.321-.037.434-.037a.687.687,0,0,1,.34.056C10.112,10.559,10.112,10.6,10.074,10.634ZM5.223,12.3c.019-.131.227-.375.755-.675-.4.731-.6.825-.642.844C5.223,12.377,5.223,12.321,5.223,12.3ZM7.394,7.616a1.232,1.232,0,0,1-.076-.75q.028-.056.057-.056h.019A1.579,1.579,0,0,1,7.394,7.616Zm.132,1.274a9.711,9.711,0,0,0,.944,1.368,12.241,12.241,0,0,0-1.6.506A17.014,17.014,0,0,0,7.526,8.891Z"/></svg>