<svg id="Layer_1" data-name="Layer 1" xmlns="http://www.w3.org/2000/svg" viewBox="0 0 16 16"><defs><style>.cls-1{fill:#231f20;}</style></defs><title>internet_explorer</title><path class="cls-1" d="M10.082,1.892A7.461,7.461,0,0,1,13.566.569c1.871,0,1.727,1.6,1.514,2.464a.06.06,0,0,0,.049.074h0a.061.061,0,0,0,.067-.042C16.145-.085,13.63.15,13.63.15c-1.806,0-4.064,1.645-4.064,1.645a7.48,7.48,0,0,0-5.386.9A6.263,6.263,0,0,0,1.367,7.4a.144.144,0,0,0,.258.1A14.858,14.858,0,0,1,6.9,3.154a.108.108,0,0,1,.154.1v0A.108.108,0,0,1,7,3.343,15.994,15.994,0,0,0,.7,12.567c-.29,1-.1,3.243,1.967,3.243a8.013,8.013,0,0,0,4.161-1.663,9.372,9.372,0,0,0,1.677.1A6.493,6.493,0,0,0,14.888,9.7h-4.58a1.965,1.965,0,0,1-1.967,1.484A2.139,2.139,0,0,1,6.212,8.826h8.741C15.372,2.762,10.082,1.892,10.082,1.892ZM6.569,14.081S3.419,15.993,2,14.668c-.758-1.325.474-3.2.474-3.2A6.145,6.145,0,0,0,6.569,14.081Zm3.789-7.318H6.2A1.977,1.977,0,0,1,8.332,4.737,1.918,1.918,0,0,1,10.358,6.763Z"/></svg>