<svg id="Layer_1" data-name="Layer 1" xmlns="http://www.w3.org/2000/svg" viewBox="0 0 16 16"><defs><style>.cls-1{fill:#231f20;}</style></defs><title>resources</title><path class="cls-1" d="M13.976,4.2l-.255-.089L8.308,1H7.415L2.163,4.112l-.271.111L0,7.586l1.861,1.16v3.979L7.749,16h.385l5.847-3.275V8.772l1.953-1.186ZM3.719,4.406,7.252,2.518V4.355l-1.21.03-.8.5V5.889L3.125,4.766ZM7.277,14.569l-4.063-2.4V9.351L6.47,11.212l.806-1.283ZM6.07,9.773,1.392,7.267l1.06-1.991L7.291,7.931Zm2.536-7.23,3.582,1.876.593.3L10.631,5.889l-.022-1.053L9.576,4.4l-.97-.022Zm4.02,9.627-4.063,2.4V9.851l.9,1.274,3.165-1.836Zm-2.813-2.4L8.593,7.931,13.34,5.265l1.151,2Z"/></svg>