<svg id="Layer_1" data-name="Layer 1" xmlns="http://www.w3.org/2000/svg" viewBox="0 0 16 16"><defs><style>.cls-1{fill:#010101;}</style></defs><title>room-setup</title><path class="cls-1" d="M15.25,13H14.5V3h.75a.75.75,0,0,0,0-1.5H14.5V.75a.75.75,0,0,0-1.5,0V1.5H3V.75a.75.75,0,0,0-1.5,0V1.5H.75A.75.75,0,0,0,.75,3H1.5V13H.75a.75.75,0,0,0,0,1.5H1.5v.75a.75.75,0,0,0,1.5,0V14.5H13v.75a.75.75,0,0,0,1.5,0V14.5h.75a.75.75,0,0,0,0-1.5ZM13,13H3V3H13Z"/><path class="cls-1" d="M4.5,7.5H7A.5.5,0,0,0,7.5,7V4.5A.5.5,0,0,0,7,4H4.5a.5.5,0,0,0-.5.5V7A.5.5,0,0,0,4.5,7.5ZM5,5H6.5V6.5H5Z"/><path class="cls-1" d="M9,7.5h2.5A.5.5,0,0,0,12,7V4.5a.5.5,0,0,0-.5-.5H9a.5.5,0,0,0-.5.5V7A.5.5,0,0,0,9,7.5ZM9.5,5H11V6.5H9.5Z"/><path class="cls-1" d="M4.5,12H7a.5.5,0,0,0,.5-.5V9A.5.5,0,0,0,7,8.5H4.5A.5.5,0,0,0,4,9v2.5A.5.5,0,0,0,4.5,12ZM5,9.5H6.5V11H5Z"/><path class="cls-1" d="M9,12h2.5a.5.5,0,0,0,.5-.5V9a.5.5,0,0,0-.5-.5H9a.5.5,0,0,0-.5.5v2.5A.5.5,0,0,0,9,12Zm.5-2.5H11V11H9.5Z"/></svg>