<svg id="Layer_1" data-name="Layer 1" xmlns="http://www.w3.org/2000/svg" viewBox="0 0 16 16"><defs><style>.cls-1{fill:#231f20;}</style></defs><title>room-setup</title><path id="path0_fill" data-name="path0 fill" class="cls-1" d="M5,0H2A2,2,0,0,0,0,2V5A2,2,0,0,0,2,7H5A2,2,0,0,0,7,5V2A2,2,0,0,0,5,0ZM2,5.5A.5.5,0,0,1,1.5,5V2A.5.5,0,0,1,2,1.5H5a.5.5,0,0,1,.5.5V5a.5.5,0,0,1-.5.5Z"/><path id="path1_fill" data-name="path1 fill" class="cls-1" d="M11,1.5h3a.5.5,0,0,1,.5.5V4.75a.75.75,0,0,0,1.5,0V2a2,2,0,0,0-2-2H11A2,2,0,0,0,9,2V4.75a.75.75,0,0,0,1.5,0V2A.5.5,0,0,1,11,1.5Z"/><path id="path2_fill" data-name="path2 fill" class="cls-1" d="M2,9a2,2,0,0,0-2,2v3a2,2,0,0,0,2,2H4.75a.75.75,0,0,0,0-1.5H2a.5.5,0,0,1-.5-.5V11a.5.5,0,0,1,.5-.5H4.75a.75.75,0,0,0,0-1.5Z"/><path id="path3_fill" data-name="path3 fill" class="cls-1" d="M8.394,15.112,7.388,14.106l.534-1.124a3.727,3.727,0,0,1-.25-.6L6.5,11.961V10.539l1.173-.417a3.727,3.727,0,0,1,.25-.6L7.388,8.394,8.394,7.388l1.124.534a3.727,3.727,0,0,1,.6-.25L10.539,6.5h1.422l.417,1.173a3.727,3.727,0,0,1,.6.25l1.124-.534,1.006,1.006-.534,1.124a3.725,3.725,0,0,1,.25.6L16,10.539v1.422l-1.173.417a3.725,3.725,0,0,1-.25.6l.534,1.124-1.006,1.006-1.124-.535a3.725,3.725,0,0,1-.6.25L11.961,16H10.539l-.417-1.173a3.725,3.725,0,0,1-.6-.25ZM11.25,13.5A2.25,2.25,0,1,0,9,11.25,2.25,2.25,0,0,0,11.25,13.5Z"/></svg>