<svg id="Layer_1" data-name="Layer 1" xmlns="http://www.w3.org/2000/svg" viewBox="0 0 16 16"><defs><style>.cls-1{fill:#231f20;fill-rule:evenodd;}</style></defs><title>rooms_1</title><path class="cls-1" d="M6.439,1.358H2.33a.949.949,0,0,0-.948.949V6.418a.949.949,0,0,0,.948.949H6.439a.949.949,0,0,0,.948-.949V2.307A.949.949,0,0,0,6.439,1.358Zm0,7.236H2.33a.949.949,0,0,0-.948.949v4.151a.949.949,0,0,0,.948.949H6.439a.949.949,0,0,0,.948-.949V9.542A.949.949,0,0,0,6.439,8.594Zm7.231,0H9.561a.949.949,0,0,0-.948.949v4.151a.949.949,0,0,0,.948.949H13.67a.949.949,0,0,0,.948-.949V9.542A.949.949,0,0,0,13.67,8.594Zm0-7.236H9.561a.949.949,0,0,0-.948.949V6.418a.949.949,0,0,0,.948.949H13.67a.949.949,0,0,0,.948-.949V2.307A.949.949,0,0,0,13.67,1.358Z"/></svg>