<svg width="135" height="32" viewBox="0 0 135 32" fill="none" xmlns="http://www.w3.org/2000/svg">
<path d="M26 16C26 26.38 23.4 29 13 29C2.6 29 0 26.38 0 16C0 5.62 2.6 3 13 3C23.4 3 26 5.62 26 16Z" fill="url(#paint0_linear)"/>
<path fill-rule="evenodd" clip-rule="evenodd" d="M13 18.48C12.5087 18.484 12.0272 18.3419 11.6168 18.0718C11.2063 17.8017 10.8854 17.4158 10.6946 16.963C10.5038 16.5102 10.4518 16.0109 10.5452 15.5285C10.6387 15.0462 10.8733 14.6024 11.2193 14.2536C11.5653 13.9047 12.0072 13.6665 12.4888 13.5692C12.9704 13.4719 13.4701 13.5198 13.9244 13.7069C14.3787 13.894 14.7672 14.2119 15.0406 14.6201C15.314 15.0284 15.46 15.5087 15.46 16C15.46 16.6543 15.2015 17.2821 14.7407 17.7466C14.2799 18.2111 13.6543 18.4747 13 18.48ZM17.76 16.63C17.76 16.42 17.76 16.22 17.76 16C17.76 15.78 17.76 15.58 17.76 15.37L19.11 14.37C19.1686 14.3212 19.2079 14.2531 19.2207 14.1779C19.2335 14.1028 19.2191 14.0255 19.18 13.96L17.9 11.74C17.8622 11.6742 17.8022 11.624 17.7307 11.5983C17.6593 11.5727 17.5811 11.5733 17.51 11.6L15.92 12.24C15.5912 11.9807 15.2276 11.7686 14.84 11.61L14.59 9.92C14.5824 9.84398 14.5461 9.77373 14.4885 9.72355C14.4309 9.67338 14.3563 9.64707 14.28 9.65H11.7C11.6226 9.64686 11.5468 9.67284 11.4875 9.72281C11.4283 9.77279 11.3899 9.84314 11.38 9.92L11.14 11.61C10.7543 11.7725 10.3913 11.9843 10.06 12.24L8.47001 11.6C8.39773 11.5705 8.31718 11.5685 8.24351 11.5943C8.16984 11.6201 8.10814 11.6719 8.07001 11.74L6.79001 13.91C6.75202 13.9766 6.7392 14.0546 6.75388 14.1299C6.76856 14.2051 6.80977 14.2726 6.87001 14.32L8.22001 15.32C8.22001 15.53 8.22001 15.74 8.22001 15.95C8.22001 16.16 8.22001 16.37 8.22001 16.58L6.87001 17.68C6.81295 17.7297 6.77411 17.797 6.75962 17.8713C6.74513 17.9455 6.75582 18.0225 6.79001 18.09L8.07001 20.31C8.10964 20.3766 8.17143 20.4271 8.24457 20.4527C8.3177 20.4783 8.39751 20.4773 8.47001 20.45L10.06 19.81C10.3889 20.0693 10.7524 20.2814 11.14 20.44L11.38 22.13C11.3899 22.2069 11.4283 22.2772 11.4875 22.3272C11.5468 22.3772 11.6226 22.4031 11.7 22.4H14.26C14.3363 22.4029 14.4109 22.3766 14.4685 22.3264C14.5261 22.2763 14.5624 22.206 14.57 22.13L14.82 20.44C15.2057 20.2775 15.5687 20.0657 15.9 19.81L17.49 20.45C17.5608 20.4789 17.6398 20.4806 17.7118 20.4547C17.7838 20.4289 17.8437 20.3773 17.88 20.31L19.16 18.09C19.1991 18.0245 19.2135 17.9472 19.2007 17.8721C19.1879 17.7969 19.1486 17.7288 19.09 17.68L17.76 16.63Z" fill="white"/>
<path d="M38.63 8.64C37.0963 8.63796 35.5727 8.88796 34.12 9.38C34.024 9.40514 33.9341 9.4496 33.8558 9.51068C33.7775 9.57175 33.7125 9.64815 33.6648 9.7352C33.617 9.82225 33.5876 9.91812 33.5782 10.017C33.5687 10.1158 33.5796 10.2155 33.61 10.31L33.86 11.38C33.8726 11.4851 33.9073 11.5864 33.9618 11.6771C34.0164 11.7678 34.0895 11.846 34.1764 11.9065C34.2633 11.9669 34.362 12.0083 34.466 12.0279C34.5701 12.0474 34.6771 12.0447 34.78 12.02C35.9362 11.6531 37.1376 11.4478 38.35 11.41C38.5984 11.3887 38.8486 11.4175 39.0857 11.4948C39.3228 11.5721 39.5419 11.6963 39.73 11.86C40.1754 12.4788 40.3685 13.244 40.27 14C39.468 13.7801 38.6415 13.6625 37.81 13.65C34.58 13.65 32.48 15.35 32.48 17.98C32.4387 18.5652 32.5214 19.1526 32.7226 19.7037C32.9238 20.2548 33.2391 20.7572 33.6477 21.1782C34.0564 21.5991 34.5493 21.9291 35.0942 22.1465C35.6391 22.364 36.2238 22.464 36.81 22.44C38.2482 22.4696 39.6446 21.9554 40.72 21L40.95 21.66C41.09 21.98 41.25 22.2 41.62 22.2H42.55C42.7509 22.1924 42.9413 22.1086 43.0825 21.9655C43.2237 21.8224 43.3051 21.6309 43.31 21.43V14.51C43.31 11.3 43 8.64 38.63 8.64ZM37.39 19.87C37.1403 19.888 36.8896 19.8519 36.6551 19.7642C36.4205 19.6764 36.2077 19.5391 36.0311 19.3616C35.8546 19.184 35.7184 18.9705 35.6319 18.7355C35.5454 18.5005 35.5106 18.2496 35.53 18C35.53 16.81 36.53 16 38.04 16C38.7909 15.9959 39.5363 16.1281 40.24 16.39V18.39C39.8972 18.8249 39.4658 19.1818 38.9744 19.437C38.483 19.6921 37.9429 19.8398 37.39 19.87Z" fill="#333132"/>
<path d="M55.77 17.89C55.6971 17.823 55.6115 17.7713 55.5183 17.738C55.4251 17.7046 55.3262 17.6903 55.2273 17.6959C55.1285 17.7015 55.0318 17.7269 54.9429 17.7705C54.854 17.8142 54.7748 17.8752 54.71 17.95L54.39 18.26C54.0711 18.6496 53.6699 18.9637 53.2151 19.1798C52.7604 19.396 52.2635 19.5087 51.76 19.51C51.2526 19.4974 50.7529 19.383 50.2905 19.1736C49.8282 18.9642 49.4126 18.6641 49.0684 18.291C48.7242 17.9179 48.4585 17.4795 48.287 17.0018C48.1155 16.5241 48.0417 16.0168 48.07 15.51C47.9951 14.7475 48.1655 13.981 48.5563 13.322C48.9471 12.663 49.5379 12.1459 50.2429 11.8459C50.9479 11.5458 51.7301 11.4785 52.476 11.6537C53.2219 11.8289 53.8924 12.2375 54.39 12.82C54.61 13.03 54.97 13.39 55.39 12.96L56.39 12.04C56.4748 11.9757 56.5456 11.8946 56.5979 11.8019C56.6502 11.7092 56.683 11.6068 56.6942 11.5009C56.7055 11.3951 56.6949 11.288 56.6632 11.1864C56.6316 11.0848 56.5794 10.9907 56.51 10.91C55.9524 10.168 55.2239 9.57153 54.3866 9.17112C53.5492 8.77072 52.6276 8.57824 51.7 8.61C49.8919 8.65459 48.1743 9.4104 46.92 10.7134C45.6657 12.0164 44.9758 13.7615 45 15.57C44.9814 16.4694 45.1425 17.3636 45.4738 18.2C45.8052 19.0363 46.3002 19.7982 46.9298 20.4408C47.5594 21.0834 48.3109 21.5939 49.1403 21.9424C49.9697 22.2908 50.8604 22.4702 51.76 22.47C52.7842 22.4887 53.796 22.2448 54.6993 21.7617C55.6025 21.2786 56.367 20.5723 56.92 19.71C57.09 19.46 57.19 19.06 56.67 18.59L55.77 17.89Z" fill="#333132"/>
<path d="M68.32 17.89C68.2463 17.8227 68.1599 17.7708 68.0658 17.7373C67.9718 17.7039 67.8721 17.6895 67.7724 17.6951C67.6727 17.7007 67.5752 17.7261 67.4855 17.7699C67.3958 17.8137 67.3157 17.8749 67.25 17.95L66.94 18.26C66.6196 18.6504 66.2166 18.9649 65.7602 19.181C65.3037 19.3971 64.8051 19.5095 64.3 19.51C63.7935 19.4961 63.2948 19.3807 62.8336 19.1707C62.3724 18.9607 61.958 18.6604 61.6149 18.2875C61.2718 17.9145 61.007 17.4766 60.8361 16.9995C60.6652 16.5225 60.5917 16.016 60.62 15.51C60.5452 14.7475 60.7155 13.981 61.1063 13.322C61.4971 12.663 62.0879 12.1459 62.7929 11.8459C63.4979 11.5458 64.2802 11.4785 65.026 11.6537C65.7719 11.8289 66.4424 12.2375 66.94 12.82C67.16 13.03 67.52 13.4 67.94 12.96L68.94 12.04C69.0248 11.9757 69.0956 11.8946 69.1479 11.8019C69.2002 11.7092 69.233 11.6068 69.2442 11.5009C69.2555 11.3951 69.2449 11.288 69.2133 11.1864C69.1816 11.0848 69.1294 10.9907 69.06 10.91C68.5002 10.1679 67.77 9.57141 66.931 9.17107C66.0921 8.77074 65.169 8.57829 64.24 8.61C62.4223 8.6311 60.6874 9.37278 59.4161 10.6721C58.1449 11.9715 57.4413 13.7223 57.46 15.54C57.4414 16.4394 57.6025 17.3336 57.9338 18.17C58.2652 19.0063 58.7602 19.7682 59.3898 20.4108C60.0194 21.0534 60.7709 21.5639 61.6003 21.9124C62.4297 22.2608 63.3204 22.4402 64.22 22.44C65.2442 22.4587 66.2561 22.2148 67.1593 21.7317C68.0625 21.2486 68.827 20.5423 69.38 19.68C69.55 19.43 69.64 19.03 69.13 18.56L68.32 17.89Z" fill="#333132"/>
<path d="M76.8 8.64C75.4218 8.60218 74.0637 8.97692 72.8998 9.71617C71.736 10.4554 70.8196 11.5255 70.268 12.7891C69.7164 14.0527 69.5549 15.4523 69.8042 16.8083C70.0534 18.1644 70.702 19.415 71.6669 20.3999C72.6317 21.3849 73.8688 22.0591 75.2194 22.3362C76.57 22.6133 77.9726 22.4806 79.2473 21.9552C80.522 21.4298 81.6107 20.5355 82.3738 19.3872C83.1368 18.2388 83.5394 16.8887 83.53 15.51C83.5202 13.7151 82.8123 11.9943 81.5562 10.7121C80.3001 9.42987 78.5944 8.68673 76.8 8.64ZM80.48 15.51C80.5174 16.0188 80.4495 16.5298 80.2806 17.0111C80.1116 17.4925 79.8451 17.9338 79.4979 18.3075C79.1507 18.6812 78.7301 18.9793 78.2624 19.1832C77.7948 19.387 77.2901 19.4922 76.78 19.4922C76.2699 19.4922 75.7652 19.387 75.2976 19.1832C74.8299 18.9793 74.4093 18.6812 74.0621 18.3075C73.7149 17.9338 73.4484 17.4925 73.2794 17.0111C73.1105 16.5298 73.0426 16.0188 73.08 15.51C73.0426 15.0012 73.1105 14.4902 73.2794 14.0089C73.4484 13.5275 73.7149 13.0862 74.0621 12.7125C74.4093 12.3388 74.8299 12.0407 75.2976 11.8368C75.7652 11.633 76.2699 11.5278 76.78 11.5278C77.2901 11.5278 77.7948 11.633 78.2624 11.8368C78.7301 12.0407 79.1507 12.3388 79.4979 12.7125C79.8451 13.0862 80.1116 13.5275 80.2806 14.0089C80.4495 14.4902 80.5174 15.0012 80.48 15.51Z" fill="#333132"/>
<path d="M95.78 8.92H94.36C93.91 8.92 93.48 8.98 93.48 9.69V17.5C93.2628 18.0883 92.87 18.5957 92.3549 18.9534C91.8398 19.3111 91.2272 19.5019 90.6 19.5C88.99 19.5 88.24 18.57 88.24 16.57V9.69C88.2349 9.48738 88.1522 9.29446 88.0089 9.15114C87.8655 9.00782 87.6726 8.92507 87.47 8.92H85.9C85.6997 8.93188 85.5107 9.01682 85.3687 9.15873C85.2268 9.30064 85.1419 9.48966 85.13 9.69V16.38C85.13 19.22 85.7 22.47 90.13 22.47C90.8746 22.4937 91.6159 22.3599 92.3052 22.0773C92.9945 21.7946 93.6163 21.3696 94.13 20.83L94.38 21.53C94.5 21.84 94.67 22.16 95.11 22.16H95.78C95.9871 22.1601 96.1861 22.08 96.3353 21.9364C96.4845 21.7928 96.5722 21.5969 96.58 21.39V9.69C96.5675 9.48471 96.4783 9.29161 96.3302 9.14899C96.182 9.00637 95.9856 8.92463 95.78 8.92Z" fill="#333132"/>
<path d="M105.82 8.64C104.232 8.61491 102.696 9.21046 101.54 10.3L101.23 9.43C101.197 9.27931 101.111 9.14527 100.989 9.05184C100.866 8.95841 100.714 8.91168 100.56 8.92H99.88C99.6791 8.92757 99.4887 9.01143 99.3475 9.15449C99.2063 9.29755 99.1249 9.48905 99.12 9.69V21.39C99.1187 21.4906 99.1374 21.5905 99.175 21.6839C99.2126 21.7773 99.2683 21.8622 99.339 21.9339C99.4097 22.0055 99.494 22.0624 99.5868 22.1012C99.6797 22.14 99.7793 22.16 99.88 22.16H101.31C101.92 22.16 102.22 21.91 102.22 21.39V13.39C102.569 12.8442 103.052 12.3962 103.622 12.0883C104.193 11.7805 104.832 11.6227 105.48 11.63C107.03 11.63 107.88 12.76 107.88 14.82V21.42C107.883 21.6234 107.965 21.8178 108.108 21.9616C108.252 22.1054 108.447 22.1874 108.65 22.19H110.21C110.413 22.1849 110.606 22.1022 110.749 21.9589C110.892 21.8155 110.975 21.6226 110.98 21.42V14.9C111 10.69 109.29 8.64 105.82 8.64Z" fill="#333132"/>
<path d="M120.93 19.27C120.897 19.1714 120.844 19.0811 120.773 19.0051C120.702 18.9292 120.616 18.8694 120.52 18.83C120.426 18.8017 120.328 18.7942 120.231 18.808C120.134 18.8218 120.042 18.8566 119.96 18.91C119.354 19.2748 118.666 19.4811 117.96 19.51C117.5 19.51 117.08 19.42 117.08 18.34V11.6H120.34C120.542 11.5975 120.735 11.5169 120.878 11.3752C121.022 11.2335 121.105 11.0417 121.11 10.84V9.69C121.111 9.58851 121.092 9.48778 121.054 9.39375C121.016 9.29972 120.959 9.2143 120.887 9.14253C120.816 9.07076 120.73 9.01409 120.636 8.97587C120.542 8.93765 120.441 8.91865 120.34 8.92H117.08V5.46C117.083 5.36115 117.066 5.26277 117.03 5.17067C116.994 5.07856 116.939 4.99461 116.87 4.92376C116.801 4.85291 116.719 4.79661 116.628 4.75818C116.537 4.71974 116.439 4.69996 116.34 4.7H114.74C114.539 4.70259 114.347 4.78349 114.205 4.92546C114.063 5.06743 113.983 5.25924 113.98 5.46V8.92H112.64C112.539 8.91717 112.438 8.93523 112.344 8.97306C112.249 9.01088 112.164 9.06767 112.093 9.13988C112.021 9.2121 111.966 9.2982 111.929 9.39283C111.893 9.48747 111.876 9.58862 111.88 9.69V10.84C111.88 11.0416 111.96 11.2349 112.103 11.3774C112.245 11.5199 112.438 11.6 112.64 11.6H114V18.45C114 20.32 114.39 22.45 117.42 22.45C118.702 22.4351 119.962 22.1091 121.09 21.5C121.176 21.4621 121.253 21.4077 121.317 21.3399C121.382 21.272 121.432 21.1922 121.465 21.1048C121.499 21.0175 121.515 20.9244 121.512 20.8309C121.509 20.7374 121.488 20.6453 121.45 20.56L120.93 19.27Z" fill="#333132"/>
<path d="M127.39 14.12C126.02 13.52 125.27 13.06 125.27 12.35C125.27 11.85 125.74 11.35 126.77 11.35C127.711 11.3661 128.638 11.5808 129.49 11.98C129.665 12.0681 129.868 12.084 130.055 12.0242C130.242 11.9643 130.398 11.8336 130.49 11.66L130.94 10.77C131.029 10.5701 131.045 10.3452 130.984 10.1349C130.924 9.92455 130.792 9.74223 130.61 9.62C129.435 8.94084 128.097 8.5951 126.74 8.62C123.68 8.62 122.31 10.47 122.31 12.3C122.31 14.59 124.03 15.69 125.9 16.53C127.77 17.37 128.58 17.88 128.58 18.63C128.58 19.38 127.99 19.74 127.02 19.74C125.924 19.7373 124.852 19.4215 123.93 18.83C123.833 18.7686 123.724 18.7279 123.61 18.7107C123.497 18.6935 123.381 18.7001 123.27 18.73C123.186 18.7553 123.108 18.7976 123.041 18.8544C122.974 18.9112 122.919 18.9812 122.88 19.06L122.29 20.26C122.22 20.4113 122.209 20.5832 122.259 20.7422C122.309 20.9012 122.416 21.0359 122.56 21.12C123.839 21.9935 125.351 22.4605 126.9 22.46C130.03 22.46 131.67 20.46 131.67 18.53C131.66 16.1 130 15.21 127.39 14.12Z" fill="#333132"/>
<defs>
<linearGradient id="paint0_linear" x1="2.23" y1="5.25" x2="23.47" y2="26.49" gradientUnits="userSpaceOnUse">
<stop stop-color="#32A0F0"/>
<stop offset="1" stop-color="#3F75E5"/>
</linearGradient>
</defs>
</svg>
