<svg width="145" height="32" viewBox="0 0 145 32" fill="none" xmlns="http://www.w3.org/2000/svg">
<g clip-path="url(#clip0)">
<path d="M12.82 3C2.44 3 -0.160004 5.61 -0.160004 16C-0.160004 26.39 2.44 29 12.84 29C23.24 29 25.84 26.41 25.84 16C25.84 5.59 23.2 3 12.82 3Z" fill="url(#paint0_linear)"/>
<path d="M18.25 11.32H17.08V10.41C17.08 10.219 17.0041 10.0359 16.8691 9.90089C16.7341 9.76586 16.551 9.69 16.36 9.69H16C15.809 9.69 15.6259 9.76586 15.4909 9.90089C15.3559 10.0359 15.28 10.219 15.28 10.41V11.32H10.28V10.41C10.28 10.219 10.2041 10.0359 10.0691 9.90089C9.93409 9.76586 9.75095 9.69 9.56 9.69H9.27999C9.08904 9.69 8.90591 9.76586 8.77088 9.90089C8.63585 10.0359 8.56 10.219 8.56 10.41V11.32H7.38C7.17843 11.32 6.98512 11.4001 6.84259 11.5426C6.70007 11.6851 6.62 11.8784 6.62 12.08V21.3C6.62 21.5016 6.70007 21.6949 6.84259 21.8374C6.98512 21.9799 7.17843 22.06 7.38 22.06H18.25C18.4498 22.0574 18.6406 21.9761 18.7809 21.8339C18.9213 21.6917 19 21.4998 19 21.3V12.08C19 11.8802 18.9213 11.6883 18.7809 11.5461C18.6406 11.4039 18.4498 11.3226 18.25 11.32ZM17.08 20.06H8.56V14.69H17.08V20.06Z" fill="white"/>
<path d="M42.82 18.18C42.6781 18.0582 42.4945 17.9964 42.3079 18.0076C42.1212 18.0188 41.9463 18.1021 41.82 18.24L41.51 18.55C41.1874 18.9437 40.7815 19.261 40.3216 19.4789C39.8616 19.6967 39.359 19.8098 38.85 19.81C38.3422 19.7959 37.8422 19.6807 37.3795 19.4711C36.9167 19.2615 36.5004 18.9617 36.1549 18.5892C35.8094 18.2167 35.5417 17.779 35.3675 17.3018C35.1932 16.8246 35.1159 16.3175 35.14 15.81C35.1185 15.2958 35.2007 14.7825 35.3815 14.3006C35.5623 13.8188 35.8382 13.3782 36.1927 13.005C36.5471 12.6319 36.973 12.3338 37.445 12.1285C37.9169 11.9232 38.4253 11.8149 38.94 11.81C39.9287 11.8769 40.8516 12.3294 41.51 13.07C41.73 13.29 42.07 13.63 42.51 13.21L43.51 12.29C43.5915 12.2267 43.6595 12.1476 43.7098 12.0575C43.7602 11.9674 43.7919 11.868 43.8031 11.7654C43.8143 11.6628 43.8047 11.559 43.775 11.4601C43.7452 11.3613 43.6959 11.2694 43.63 11.19C43.0723 10.4513 42.345 9.85757 41.5096 9.459C40.6741 9.06043 39.7551 8.8687 38.83 8.9C37.0202 8.92373 35.2934 9.66275 34.0267 10.9556C32.7601 12.2485 32.0566 13.9901 32.07 15.8C32.0514 16.6968 32.2119 17.5883 32.5423 18.4223C32.8727 19.2563 33.3662 20.0159 33.9939 20.6567C34.6216 21.2974 35.371 21.8065 36.198 22.1539C37.025 22.5013 37.913 22.6802 38.81 22.68C39.8217 22.7021 40.8226 22.468 41.7195 21.9995C42.6164 21.5309 43.3803 20.8431 43.94 20C44.1 19.76 44.19 19.37 43.69 18.91L42.82 18.18Z" fill="#333132"/>
<path d="M51 8.94C49.4728 8.93834 47.9558 9.18835 46.51 9.68C46.4167 9.70407 46.3294 9.74686 46.2532 9.80576C46.177 9.86467 46.1136 9.93847 46.0668 10.0227C46.02 10.1068 45.9909 10.1997 45.9811 10.2955C45.9713 10.3913 45.9812 10.4881 46.01 10.58L46.26 11.65C46.2727 11.7515 46.3067 11.8491 46.3595 11.9366C46.4124 12.0242 46.4831 12.0996 46.567 12.158C46.6509 12.2165 46.7462 12.2567 46.8466 12.2759C46.947 12.2952 47.0504 12.2932 47.15 12.27C48.3064 11.9041 49.5077 11.6988 50.72 11.66C50.9724 11.6373 51.2267 11.6663 51.4675 11.7454C51.7082 11.8245 51.9303 11.952 52.12 12.12C52.5893 12.7583 52.787 13.5564 52.67 14.34C51.8584 14.1184 51.0213 14.0041 50.18 14C46.96 14 44.88 15.69 44.88 18.3C44.8373 18.8812 44.9178 19.4649 45.1163 20.0129C45.3147 20.5608 45.6266 21.0607 46.0316 21.4798C46.4366 21.8989 46.9254 22.2278 47.4663 22.445C48.0071 22.6621 48.5876 22.7627 49.17 22.74C50.6245 22.7517 52.028 22.2039 53.09 21.21L53.34 21.9C53.47 22.22 53.63 22.43 53.99 22.43H54.91C55.1039 22.4226 55.2878 22.3422 55.425 22.205C55.5622 22.0678 55.6426 21.8839 55.65 21.69V14.78C55.65 11.59 55.3 8.94 51 8.94ZM49.76 20.17C49.5041 20.1901 49.2469 20.154 49.0064 20.0642C48.7659 19.9743 48.548 19.833 48.3679 19.6501C48.1879 19.4671 48.05 19.247 47.964 19.0052C47.8779 18.7633 47.8459 18.5056 47.87 18.25C47.87 17.05 48.87 16.25 50.4 16.25C51.162 16.2405 51.9188 16.3763 52.63 16.65V18.65C52.2894 19.0952 51.8566 19.4615 51.3612 19.7238C50.8658 19.9862 50.3196 20.1384 49.76 20.17Z" fill="#333132"/>
<path d="M60.5 3.25H58.93C58.5213 3.25 58.19 3.58131 58.19 3.99V21.67C58.19 22.0787 58.5213 22.41 58.93 22.41H60.5C60.9087 22.41 61.24 22.0787 61.24 21.67V3.99C61.24 3.58131 60.9087 3.25 60.5 3.25Z" fill="#333132"/>
<path d="M69.65 8.94C68.7618 8.94178 67.8831 9.12338 67.0669 9.47386C66.2507 9.82433 65.5139 10.3364 64.901 10.9793C64.288 11.6222 63.8116 12.3825 63.5003 13.2144C63.1891 14.0463 63.0495 14.9327 63.09 15.82C63.09 19.82 65.86 22.72 69.68 22.72C71.446 22.7763 73.1737 22.1981 74.55 21.09C74.6302 21.0363 74.6971 20.9652 74.7459 20.8819C74.7947 20.7987 74.824 20.7055 74.8317 20.6093C74.8394 20.5132 74.8253 20.4165 74.7903 20.3266C74.7554 20.2366 74.7006 20.1558 74.63 20.09L73.87 18.91C73.8324 18.8422 73.7809 18.783 73.7189 18.7365C73.6568 18.69 73.5857 18.6571 73.51 18.64C73.3024 18.6258 73.0976 18.6941 72.94 18.83C72.0624 19.5278 70.9712 19.9022 69.85 19.89C68.9325 19.9082 68.0413 19.5829 67.3513 18.9779C66.6612 18.373 66.2221 17.532 66.12 16.62H74.92C75.1002 16.6157 75.2724 16.5448 75.4035 16.4211C75.5346 16.2974 75.6152 16.1296 75.63 15.95C75.63 15.72 75.69 15.27 75.69 15.03C75.7132 14.2282 75.5732 13.43 75.2785 12.684C74.9839 11.9379 74.5406 11.2595 73.9758 10.69C73.4109 10.1204 72.7362 9.67161 71.9926 9.37079C71.249 9.06997 70.452 8.92341 69.65 8.94ZM69.6 11.57C70.3594 11.5338 71.1031 11.7941 71.6741 12.2961C72.2451 12.798 72.5986 13.5022 72.66 14.26H66.27C66.3841 13.4746 66.7905 12.7612 67.4079 12.2624C68.0252 11.7637 68.8081 11.5164 69.6 11.57Z" fill="#333132"/>
<path d="M84.1 8.94001C82.5054 8.91769 80.9654 9.52075 79.81 10.62L79.49 9.71001C79.459 9.56366 79.3761 9.43345 79.2567 9.3434C79.1372 9.25334 78.9892 9.20952 78.84 9.22001H78.17C77.9753 9.22506 77.79 9.30465 77.6523 9.44235C77.5146 9.58004 77.4351 9.76534 77.43 9.96001V21.67C77.4326 21.8655 77.5114 22.0522 77.6496 22.1904C77.7878 22.3286 77.9745 22.4074 78.17 22.41H79.6C80.19 22.41 80.48 22.17 80.48 21.67V13.67C80.8297 13.1161 81.3161 12.6615 81.8922 12.3497C82.4684 12.038 83.115 11.8797 83.77 11.89C85.33 11.89 86.19 13.03 86.19 15.1V21.71C86.1926 21.9055 86.2714 22.0922 86.4096 22.2304C86.5478 22.3686 86.7345 22.4474 86.93 22.45H88.5C88.6939 22.4426 88.8778 22.3622 89.015 22.225C89.1522 22.0878 89.2326 21.9039 89.24 21.71V15.21C89.24 11 87.56 8.94001 84.1 8.94001Z" fill="#333132"/>
<path d="M102.79 3.25H101.19C100.998 3.26391 100.818 3.34634 100.682 3.48222C100.546 3.61809 100.464 3.79834 100.45 3.99V9.56C99.4631 9.16618 98.4125 8.95606 97.35 8.94C93.72 8.94 90.98 11.94 90.98 15.82C90.98 19.7 93.63 22.72 96.98 22.72C98.5437 22.6911 100.041 22.0816 101.18 21.01L101.4 21.76C101.421 21.9352 101.505 22.097 101.635 22.2162C101.765 22.3354 101.934 22.4041 102.11 22.41H102.78C102.975 22.4074 103.162 22.3286 103.3 22.1904C103.439 22.0522 103.517 21.8655 103.52 21.67V4C103.515 3.806 103.437 3.62097 103.302 3.48191C103.167 3.34285 102.984 3.26002 102.79 3.25ZM97.39 19.81C95.49 19.81 94.01 18.06 94.01 15.81C93.9611 14.7982 94.316 13.8085 94.9967 13.0583C95.6775 12.3082 96.6283 11.8592 97.64 11.81C98.6292 11.8208 99.6021 12.064 100.48 12.52V18C100.17 18.5471 99.721 19.0026 99.1784 19.3205C98.6358 19.6383 98.0188 19.8072 97.39 19.81Z" fill="#333132"/>
<path d="M111.34 8.94C109.813 8.93834 108.296 9.18835 106.85 9.68C106.757 9.70407 106.669 9.74686 106.593 9.80576C106.517 9.86467 106.454 9.93847 106.407 10.0227C106.36 10.1068 106.331 10.1997 106.321 10.2955C106.311 10.3913 106.321 10.4881 106.35 10.58L106.6 11.65C106.611 11.7511 106.644 11.8485 106.696 11.936C106.748 12.0235 106.818 12.0991 106.901 12.1576C106.984 12.2162 107.078 12.2565 107.178 12.2759C107.278 12.2952 107.381 12.2932 107.48 12.27C108.64 11.9053 109.845 11.7001 111.06 11.66C111.312 11.6373 111.567 11.6663 111.807 11.7454C112.048 11.8245 112.27 11.952 112.46 12.12C112.929 12.7583 113.127 13.5564 113.01 14.34C112.203 14.1125 111.369 13.9915 110.53 13.98C107.31 13.98 105.22 15.67 105.22 18.28C105.177 18.8621 105.258 19.4467 105.457 19.9953C105.656 20.544 105.969 21.0444 106.375 21.4637C106.781 21.883 107.271 22.2116 107.813 22.4282C108.355 22.6447 108.937 22.7441 109.52 22.72C110.975 22.7317 112.378 22.1839 113.44 21.19L113.69 21.88C113.82 22.2 113.98 22.41 114.34 22.41H115.26C115.454 22.4026 115.638 22.3222 115.775 22.185C115.912 22.0478 115.993 21.8639 116 21.67V14.78C116 11.59 115.65 8.94 111.34 8.94ZM110.11 20.17C109.854 20.1901 109.597 20.154 109.356 20.0642C109.116 19.9743 108.898 19.833 108.718 19.6501C108.538 19.4671 108.4 19.247 108.314 19.0052C108.228 18.7633 108.196 18.5056 108.22 18.25C108.22 17.05 109.22 16.25 110.75 16.25C111.512 16.2405 112.269 16.3763 112.98 16.65V18.65C112.639 19.0952 112.207 19.4615 111.711 19.7238C111.216 19.9862 110.67 20.1384 110.11 20.17Z" fill="#333132"/>
<path d="M127.21 9.67C126.87 9.13 125.67 8.94 124.75 8.94C124.017 8.94227 123.293 9.10037 122.626 9.4038C121.959 9.70723 121.363 10.1491 120.88 10.7L120.59 9.77C120.553 9.6164 120.466 9.47932 120.343 9.37992C120.22 9.28053 120.068 9.22433 119.91 9.22H119.24C119.045 9.22506 118.86 9.30465 118.722 9.44235C118.585 9.58004 118.505 9.76534 118.5 9.96V21.67C118.503 21.8655 118.581 22.0522 118.72 22.1904C118.858 22.3286 119.045 22.4074 119.24 22.41H120.52C120.93 22.41 121.52 22.41 121.52 21.67V13.5C121.834 13.0062 122.264 12.5974 122.774 12.3096C123.283 12.0218 123.855 11.864 124.44 11.85C124.825 11.8626 125.204 11.9439 125.56 12.09C125.645 12.1269 125.737 12.1459 125.83 12.1459C125.923 12.1459 126.015 12.1269 126.1 12.09C126.193 12.055 126.279 12.0016 126.351 11.9329C126.423 11.8641 126.481 11.7815 126.52 11.69L127.19 10.29C127.242 10.1957 127.271 10.0902 127.275 9.98242C127.278 9.87461 127.256 9.76753 127.21 9.67Z" fill="#333132"/>
</g>
<defs>
<linearGradient id="paint0_linear" x1="2.44" y1="5.61" x2="23.2" y2="26.38" gradientUnits="userSpaceOnUse">
<stop stop-color="#F25437"/>
<stop offset="1" stop-color="#CD4E39"/>
</linearGradient>
<clipPath id="clip0">
<rect width="145" height="32" fill="white"/>
</clipPath>
</defs>
</svg>
