<svg width="162" height="32" viewBox="0 0 162 32" fill="none" xmlns="http://www.w3.org/2000/svg">
<path d="M26 16.37C26 26.76 23.4 29.37 13 29.37C2.6 29.37 0 26.78 0 16.37C0 5.96 2.6 3.37 13 3.37C23.4 3.37 26 6 26 16.37Z" fill="url(#paint0_linear)"/>
<path d="M18.75 19.09C18.75 20.09 17.75 20.96 16.26 21.09C14.77 21.22 13.47 20.6 13.35 19.6C13.23 18.6 14.35 17.66 15.84 17.49C16.2878 17.4345 16.742 17.4616 17.18 17.57V12.81L10.59 15V20.9C10.414 21.4199 10.0808 21.8724 9.63655 22.1948C9.1923 22.5172 8.65889 22.6938 8.10999 22.7C6.61999 22.88 5.30999 22.21 5.19999 21.22C5.08999 20.23 6.19999 19.28 7.67999 19.1C8.12138 19.0532 8.56748 19.0803 8.99999 19.18V13.65C8.99999 13.35 9.07999 12.95 9.36999 12.85C10.73 12.41 17.37 10.23 18.25 9.97999C18.3619 9.96784 18.4743 9.99807 18.565 10.0647C18.6557 10.1314 18.7181 10.2296 18.74 10.34L18.75 19.09Z" fill="white"/>
<path d="M26 16.37C26 26.76 23.4 29.37 13 29.37C2.6 29.37 0 26.78 0 16.37C0 5.96 2.6 3.37 13 3.37C23.4 3.37 26 6 26 16.37Z" fill="url(#paint1_linear)"/>
<path d="M18.75 19.09C18.75 20.09 17.75 20.96 16.26 21.09C14.77 21.22 13.47 20.6 13.35 19.6C13.23 18.6 14.35 17.66 15.84 17.49C16.2878 17.4345 16.742 17.4616 17.18 17.57V12.81L10.59 15V20.9C10.414 21.4199 10.0808 21.8724 9.63655 22.1948C9.1923 22.5172 8.65889 22.6938 8.10999 22.7C6.61999 22.88 5.30999 22.21 5.19999 21.22C5.08999 20.23 6.19999 19.28 7.67999 19.1C8.12138 19.0532 8.56748 19.0803 8.99999 19.18V13.65C8.99999 13.35 9.07999 12.95 9.36999 12.85C10.73 12.41 17.37 10.23 18.25 9.97999C18.3619 9.96784 18.4743 9.99807 18.565 10.0647C18.6557 10.1314 18.7181 10.2296 18.74 10.34L18.75 19.09Z" fill="white"/>
<path d="M47.55 9.00001C46.7273 9.02162 45.9176 9.21002 45.1698 9.55381C44.4221 9.89759 43.752 10.3896 43.2 11C42.7633 10.349 42.1651 9.82255 41.464 9.47199C40.7629 9.12143 39.9828 8.9588 39.2 9.00001C38.4489 8.99674 37.7046 9.14169 37.0096 9.42654C36.3147 9.71139 35.6827 10.1305 35.15 10.66L34.86 9.78001C34.8188 9.62875 34.7267 9.49637 34.5991 9.40525C34.4716 9.31414 34.3164 9.26989 34.16 9.28001H33.51C33.3083 9.28516 33.1165 9.36825 32.9748 9.51183C32.8331 9.6554 32.7525 9.84829 32.75 10.05V21.75C32.75 21.9525 32.8297 22.1469 32.972 22.291C33.1142 22.4351 33.3075 22.5174 33.51 22.52H35.08C35.2826 22.5149 35.4755 22.4322 35.6189 22.2889C35.7622 22.1456 35.8449 21.9526 35.85 21.75V13.75C36.1203 13.2069 36.5413 12.753 37.0627 12.4427C37.584 12.1324 38.1837 11.9787 38.79 12C40.4 12 41.19 13 41.19 15.18V21.79C41.1887 21.8907 41.2074 21.9906 41.245 22.0839C41.2826 22.1773 41.3383 22.2623 41.409 22.3339C41.4797 22.4055 41.564 22.4624 41.6568 22.5012C41.7497 22.54 41.8493 22.56 41.95 22.56H43.55C43.7498 22.5548 43.9395 22.471 44.078 22.3269C44.2165 22.1828 44.2927 21.9899 44.29 21.79V15.09C44.289 14.5252 44.2556 13.961 44.19 13.4L44.26 13.33C44.6122 12.9121 45.0516 12.5764 45.5475 12.3467C46.0433 12.1169 46.5835 11.9985 47.13 12C48.72 12 49.53 13.07 49.53 15.18V21.79C49.5258 21.8923 49.5428 21.9943 49.58 22.0896C49.6172 22.185 49.6737 22.2715 49.7461 22.3439C49.8185 22.4163 49.9051 22.4728 50.0004 22.51C50.0957 22.5472 50.1978 22.5642 50.3 22.56H51.86C51.9615 22.5614 52.0622 22.5424 52.1562 22.5041C52.2503 22.4659 52.3357 22.4092 52.4075 22.3375C52.4792 22.2657 52.5359 22.1803 52.5741 22.0863C52.6123 21.9922 52.6313 21.8915 52.63 21.79V15.29C52.63 12.6 52.1 9.00001 47.55 9.00001Z" fill="#333132"/>
<path d="M65.56 9.31H64.14C63.69 9.31 63.26 9.37 63.26 10.08V17.89C63.0428 18.4783 62.65 18.9857 62.1349 19.3434C61.6197 19.7011 61.0072 19.8919 60.38 19.89C58.77 19.9 58 19 58 17V10.08C57.9949 9.87738 57.9122 9.68445 57.7689 9.54114C57.6255 9.39782 57.4326 9.31507 57.23 9.31H55.68C55.4789 9.3197 55.2887 9.40395 55.1463 9.5463C55.004 9.68865 54.9197 9.87891 54.91 10.08V16.77C54.91 19.6 55.48 22.85 59.91 22.85C60.6539 22.875 61.3947 22.7427 62.0839 22.4619C62.7732 22.181 63.3955 21.7578 63.91 21.22L64.16 21.92C64.28 22.23 64.45 22.55 64.89 22.55H65.56C65.7671 22.5501 65.9661 22.47 66.1153 22.3264C66.2645 22.1828 66.3522 21.9869 66.36 21.78V10.08C66.3475 9.87471 66.2583 9.68161 66.1102 9.53899C65.962 9.39637 65.7656 9.31463 65.56 9.31Z" fill="#333132"/>
<path d="M73.32 14.5C71.95 13.9 71.2 13.45 71.2 12.74C71.2 12.24 71.66 11.74 72.7 11.74C73.6384 11.7503 74.5633 11.9653 75.41 12.37C75.5859 12.4556 75.7879 12.47 75.9741 12.4104C76.1604 12.3508 76.3165 12.2217 76.41 12.05L76.86 11.15C76.9541 10.9538 76.9755 10.7306 76.9206 10.5201C76.8657 10.3095 76.7379 10.1252 76.56 9.99999C75.3887 9.32071 74.0538 8.97489 72.7 8.99999C69.64 8.99999 68.27 10.85 68.27 12.68C68.27 14.97 69.99 16.06 71.86 16.9C73.73 17.74 74.54 18.25 74.54 19.01C74.54 19.77 73.94 20.12 72.98 20.12C71.8813 20.1169 70.8061 19.8013 69.88 19.21C69.7829 19.1485 69.6741 19.1079 69.5605 19.0907C69.4469 19.0735 69.3309 19.0801 69.22 19.11C69.1358 19.1353 69.0578 19.1776 68.9907 19.2344C68.9236 19.2912 68.8689 19.3612 68.83 19.44L68.24 20.64C68.1722 20.7916 68.1623 20.9627 68.212 21.1212C68.2618 21.2796 68.3678 21.4143 68.51 21.5C69.7896 22.3718 71.3017 22.8386 72.85 22.84C75.99 22.84 77.62 20.84 77.62 18.92C77.58 16.49 75.9 15.59 73.32 14.5Z" fill="#333132"/>
<path d="M80.66 3.47998C80.3931 3.4799 80.1289 3.53324 79.8829 3.63686C79.6369 3.74048 79.4142 3.89229 79.2278 4.08333C79.0414 4.27438 78.8952 4.5008 78.7976 4.74925C78.7001 4.9977 78.6533 5.26316 78.66 5.52998C78.66 6.06041 78.8707 6.56912 79.2458 6.9442C79.6209 7.31927 80.1296 7.52998 80.66 7.52998C80.9279 7.52998 81.1932 7.47722 81.4407 7.3747C81.6882 7.27218 81.9131 7.12191 82.1025 6.93248C82.2919 6.74305 82.4422 6.51816 82.5447 6.27066C82.6472 6.02315 82.7 5.75788 82.7 5.48998C82.7 5.22208 82.6472 4.95681 82.5447 4.70931C82.4422 4.4618 82.2919 4.23692 82.1025 4.04748C81.9131 3.85805 81.6882 3.70779 81.4407 3.60527C81.1932 3.50275 80.9279 3.44998 80.66 3.44998V3.47998Z" fill="#333132"/>
<path d="M81.44 9.31H79.88C79.4547 9.31 79.11 9.65474 79.11 10.08V21.78C79.11 22.2053 79.4547 22.55 79.88 22.55H81.44C81.8653 22.55 82.21 22.2053 82.21 21.78V10.08C82.21 9.65474 81.8653 9.31 81.44 9.31Z" fill="#333132"/>
<path d="M94.69 18.28C94.6169 18.2114 94.5307 18.1584 94.4365 18.1241C94.3424 18.0899 94.2422 18.0751 94.1421 18.0807C94.0421 18.0863 93.9442 18.1122 93.8545 18.1568C93.7647 18.2013 93.6849 18.2637 93.62 18.34L93.31 18.64C92.9919 19.0338 92.5897 19.3514 92.1329 19.5694C91.6761 19.7874 91.1762 19.9004 90.67 19.9C90.1639 19.8847 89.6659 19.7684 89.2053 19.558C88.7448 19.3476 88.3309 19.0472 87.9881 18.6745C87.6453 18.3019 87.3804 17.8645 87.209 17.388C87.0376 16.9116 86.9631 16.4056 86.99 15.9C86.9781 15.3955 87.0665 14.8936 87.2501 14.4236C87.4337 13.9535 87.7088 13.5246 88.0596 13.1618C88.4103 12.7989 88.8297 12.5094 89.2932 12.3099C89.7568 12.1105 90.2554 12.0052 90.76 12C91.7413 12.0652 92.6574 12.5143 93.31 13.25C93.53 13.46 93.89 13.82 94.31 13.39L95.31 12.47C95.3948 12.4057 95.4656 12.3246 95.5179 12.2319C95.5702 12.1392 95.603 12.0368 95.6142 11.9309C95.6255 11.8251 95.6149 11.718 95.5832 11.6164C95.5516 11.5148 95.4994 11.4207 95.43 11.34C94.8804 10.5989 94.1617 9.99991 93.3337 9.59288C92.5057 9.18585 91.5925 8.98257 90.67 8.99999C89.764 9.01037 88.869 9.20013 88.0367 9.55831C87.2045 9.91649 86.4514 10.436 85.821 11.0868C85.1906 11.7377 84.6954 12.507 84.364 13.3502C84.0325 14.1935 83.8715 15.0941 83.89 16C83.8727 16.8986 84.0348 17.7917 84.3668 18.6269C84.6988 19.4621 85.194 20.2227 85.8234 20.8643C86.4529 21.5059 87.2039 22.0155 88.0327 22.3633C88.8614 22.7111 89.7512 22.8902 90.65 22.89C91.6732 22.9097 92.6845 22.6674 93.5877 22.1861C94.4908 21.7047 95.2558 21.0004 95.81 20.14C95.98 19.89 96.07 19.49 95.56 19.02L94.69 18.28Z" fill="#333132"/>
<path d="M107.19 14.5C105.81 13.9 105.07 13.45 105.07 12.74C105.07 12.24 105.53 11.74 106.57 11.74C107.508 11.7513 108.433 11.9663 109.28 12.37C109.456 12.4556 109.658 12.47 109.844 12.4104C110.03 12.3508 110.186 12.2218 110.28 12.05L110.72 11.15C110.813 10.9523 110.83 10.7276 110.77 10.5179C110.709 10.3082 110.574 10.1277 110.39 10.01C109.219 9.33072 107.884 8.9849 106.53 9.01C103.47 9.01 102.1 10.86 102.1 12.69C102.1 14.98 103.82 16.07 105.68 16.91C107.54 17.75 108.37 18.26 108.37 19.02C108.37 19.78 107.77 20.13 106.81 20.13C105.712 20.1221 104.638 19.8068 103.71 19.22C103.614 19.1562 103.505 19.1141 103.391 19.0969C103.277 19.0796 103.161 19.0875 103.05 19.12C102.966 19.1453 102.888 19.1876 102.821 19.2444C102.754 19.3012 102.699 19.3712 102.66 19.45L102.07 20.65C102.002 20.8016 101.992 20.9727 102.042 21.1312C102.092 21.2896 102.198 21.4243 102.34 21.51C103.619 22.3835 105.131 22.8505 106.68 22.85C109.81 22.85 111.45 20.85 111.45 18.93C111.45 16.49 109.76 15.59 107.19 14.5Z" fill="#333132"/>
<path d="M120.9 19.65C120.867 19.5526 120.814 19.4636 120.743 19.3893C120.672 19.315 120.586 19.2572 120.49 19.22C120.396 19.1917 120.298 19.1842 120.201 19.198C120.104 19.2118 120.012 19.2466 119.93 19.3C119.325 19.6664 118.637 19.8728 117.93 19.9C117.47 19.9 117.05 19.81 117.05 18.73V12H120.31C120.511 11.995 120.702 11.9137 120.846 11.7725C120.989 11.6313 121.072 11.4409 121.08 11.24V10.08C121.081 9.9785 121.062 9.87777 121.024 9.78374C120.986 9.68971 120.929 9.60429 120.857 9.53252C120.786 9.46075 120.7 9.40408 120.606 9.36586C120.512 9.32764 120.411 9.30864 120.31 9.30999H117.05V5.84999C117.053 5.75066 117.036 5.6518 117 5.55914C116.964 5.46648 116.91 5.38187 116.841 5.31023C116.772 5.23859 116.69 5.18135 116.599 5.14182C116.507 5.10229 116.409 5.08128 116.31 5.07999H114.72C114.517 5.08258 114.322 5.16454 114.178 5.30838C114.035 5.45223 113.953 5.64658 113.95 5.84999V9.30999H112.61C112.509 9.30716 112.408 9.32522 112.314 9.36305C112.219 9.40087 112.134 9.45766 112.063 9.52987C111.991 9.60208 111.936 9.68818 111.899 9.78282C111.863 9.87746 111.846 9.97861 111.85 10.08V11.23C111.85 11.3298 111.87 11.4286 111.908 11.5208C111.946 11.613 112.002 11.6968 112.073 11.7674C112.143 11.838 112.227 11.8939 112.319 11.9321C112.411 11.9703 112.51 11.99 112.61 11.99H114V18.84C114 20.71 114.39 22.84 117.43 22.84C118.708 22.8262 119.964 22.5037 121.09 21.9C121.261 21.8212 121.395 21.6795 121.464 21.5043C121.533 21.3292 121.531 21.1341 121.46 20.96L120.9 19.65Z" fill="#333132"/>
<path d="M128 8.99998C126.466 8.99794 124.943 9.24794 123.49 9.73998C123.394 9.76512 123.304 9.80959 123.226 9.87066C123.147 9.93174 123.082 10.0081 123.035 10.0952C122.987 10.1822 122.958 10.2781 122.948 10.3769C122.939 10.4758 122.95 10.5755 122.98 10.67L123.23 11.73C123.243 11.8353 123.278 11.9368 123.332 12.0279C123.386 12.119 123.459 12.1977 123.546 12.2589C123.633 12.3202 123.731 12.3626 123.835 12.3834C123.939 12.4043 124.046 12.4031 124.15 12.38C125.305 12.0048 126.507 11.796 127.72 11.76C127.969 11.7376 128.221 11.767 128.458 11.8461C128.695 11.9253 128.914 12.0525 129.1 12.22C129.553 12.8467 129.746 13.6241 129.64 14.39C128.841 14.1707 128.018 14.0531 127.19 14.04C123.95 14.04 121.85 15.74 121.85 18.36C121.807 18.9456 121.889 19.5336 122.089 20.0855C122.29 20.6373 122.605 21.1404 123.014 21.5617C123.423 21.983 123.917 22.3129 124.462 22.5298C125.008 22.7466 125.593 22.8455 126.18 22.82C127.626 22.8342 129.024 22.298 130.09 21.32L130.32 21.98C130.46 22.3 130.62 22.52 130.99 22.52H131.92C132.121 22.5124 132.311 22.4286 132.452 22.2855C132.594 22.1424 132.675 21.9509 132.68 21.75V14.89C132.67 11.69 132.32 8.99998 128 8.99998ZM126.76 20.23C126.508 20.2486 126.254 20.2119 126.017 20.1224C125.78 20.0329 125.566 19.8928 125.389 19.7119C125.212 19.531 125.076 19.3136 124.992 19.0749C124.907 18.8362 124.876 18.582 124.9 18.33C124.9 17.15 125.9 16.33 127.41 16.33C128.16 16.3292 128.904 16.4578 129.61 16.71V18.71C129.273 19.1595 128.843 19.5307 128.35 19.7983C127.856 20.0659 127.31 20.2234 126.75 20.26L126.76 20.23Z" fill="#333132"/>
<path d="M141.82 9C140.232 8.97491 138.696 9.57047 137.54 10.66L137.23 9.79C137.199 9.6365 137.112 9.4998 136.987 9.40581C136.862 9.31182 136.706 9.26705 136.55 9.28H135.88C135.678 9.28516 135.487 9.36824 135.345 9.51182C135.203 9.65539 135.123 9.84828 135.12 10.05V21.75C135.12 21.9525 135.2 22.1468 135.342 22.291C135.484 22.4351 135.678 22.5174 135.88 22.52H137.31C137.92 22.52 138.22 22.27 138.22 21.75V13.75C138.569 13.2047 139.052 12.7577 139.623 12.4514C140.193 12.1452 140.833 11.9898 141.48 12C143.03 12 143.88 13.13 143.88 15.18V21.79C143.88 21.9942 143.961 22.1901 144.106 22.3345C144.25 22.4789 144.446 22.56 144.65 22.56H146.21C146.413 22.5549 146.606 22.4722 146.749 22.3289C146.892 22.1855 146.975 21.9926 146.98 21.79V15.29C147 11.08 145.29 9 141.82 9Z" fill="#333132"/>
<path d="M160.51 2.64999H158.91C158.711 2.65949 158.522 2.74232 158.38 2.88259C158.237 3.02286 158.152 3.21068 158.14 3.40999V9.63999C157.156 9.24635 156.11 9.02968 155.05 8.99999C151.4 8.99999 148.65 12 148.65 15.9C148.65 19.8 151.31 22.82 154.71 22.82C156.262 22.7897 157.749 22.192 158.89 21.14L159.1 21.84C159.21 22.27 159.47 22.52 159.83 22.52H160.51C160.712 22.5174 160.906 22.4351 161.048 22.291C161.19 22.1468 161.27 21.9525 161.27 21.75V3.40999C161.265 3.21003 161.183 3.01965 161.042 2.8782C160.9 2.73676 160.71 2.65506 160.51 2.64999ZM155.1 19.9C153.22 19.9 151.75 18.15 151.75 15.9C151.709 14.9012 152.065 13.9268 152.739 13.1889C153.413 12.451 154.352 12.0093 155.35 11.96C156.332 11.9693 157.298 12.2091 158.17 12.66V18.08C157.863 18.626 157.418 19.0817 156.879 19.4012C156.34 19.7206 155.726 19.8927 155.1 19.9Z" fill="#333132"/>
<defs>
<linearGradient id="paint0_linear" x1="2.6" y1="5.99" x2="23.36" y2="26.76" gradientUnits="userSpaceOnUse">
<stop stop-color="#3291D2"/>
<stop offset="1" stop-color="#3C7EC6"/>
</linearGradient>
<linearGradient id="paint1_linear" x1="2.6" y1="5.99" x2="23.36" y2="26.76" gradientUnits="userSpaceOnUse">
<stop stop-color="#3291D2"/>
<stop offset="1" stop-color="#3C7EC6"/>
</linearGradient>
</defs>
</svg>
