<svg width="145" height="32" viewBox="0 0 145 32" fill="none" xmlns="http://www.w3.org/2000/svg">
<path d="M26 16C26 26.39 23.4 29 13 29C2.6 29 0 26.39 0 16C0 5.61 2.62 3 13 3C23.38 3 26 5.62 26 16Z" fill="url(#paint0_linear)"/>
<path d="M43.73 9.39999C43.38 8.84999 42.22 8.65999 41.25 8.65999C40.5194 8.656 39.7965 8.80934 39.1305 9.10958C38.4644 9.40982 37.8708 9.84993 37.39 10.4L37.11 9.49999C37.0692 9.34372 36.979 9.2048 36.8529 9.1039C36.7267 9.003 36.5714 8.94551 36.41 8.93999H35.74C35.5374 8.94506 35.3445 9.02781 35.2011 9.17113C35.0578 9.31445 34.9751 9.50737 34.97 9.70999V21.41C34.9726 21.6134 35.0545 21.8077 35.1984 21.9516C35.3422 22.0954 35.5366 22.1774 35.74 22.18H37C37.42 22.18 38 22.18 38 21.41V13.24C38.3239 12.7399 38.7685 12.3294 39.2928 12.0463C39.8171 11.7632 40.4042 11.6166 41 11.62C41.3819 11.6286 41.7587 11.71 42.11 11.86C42.2869 11.9287 42.4831 11.9287 42.66 11.86C42.7577 11.823 42.847 11.7668 42.9226 11.6946C42.9982 11.6225 43.0585 11.5359 43.1 11.44L43.77 10.04C43.8156 9.93804 43.8358 9.82654 43.8289 9.71506C43.8219 9.60358 43.788 9.49546 43.73 9.39999Z" fill="#333132"/>
<path d="M50.13 8.66001C49.2383 8.66044 48.3559 8.84156 47.5361 9.19245C46.7163 9.54333 45.9762 10.0567 45.3603 10.7016C44.7444 11.3464 44.2656 12.1094 43.9527 12.9444C43.6399 13.7794 43.4995 14.6692 43.54 15.56C43.4892 16.4567 43.6233 17.3543 43.9341 18.1969C44.2449 19.0396 44.7256 19.8093 45.3465 20.4583C45.9674 21.1073 46.7151 21.6217 47.5431 21.9695C48.3712 22.3173 49.2619 22.491 50.16 22.48C51.9152 22.5256 53.6299 21.9482 55 20.85C55.0877 20.7951 55.1613 20.7204 55.2147 20.6318C55.2682 20.5433 55.3002 20.4434 55.308 20.3402C55.3157 20.2371 55.2992 20.1335 55.2596 20.0379C55.22 19.9424 55.1585 19.8574 55.08 19.79L54.33 18.61C54.2432 18.4658 54.1031 18.3616 53.94 18.32C53.7279 18.308 53.5196 18.3799 53.36 18.52C52.485 19.2157 51.3978 19.5899 50.28 19.58C49.372 19.5985 48.4897 19.2777 47.8055 18.6804C47.1213 18.0831 46.6843 17.2522 46.58 16.35H55.35C55.5372 16.3481 55.7169 16.2763 55.8539 16.1486C55.9908 16.0209 56.075 15.8466 56.09 15.66C56.09 15.43 56.15 14.98 56.15 14.75C56.162 13.9529 56.0149 13.1613 55.7175 12.4216C55.4201 11.6819 54.9782 11.0089 54.4178 10.4419C53.8573 9.87494 53.1894 9.42533 52.4532 9.11938C51.717 8.81343 50.9272 8.65726 50.13 8.66001ZM50.07 11.34C50.8138 11.3089 51.5409 11.5661 52.0998 12.0579C52.6587 12.5497 53.0062 13.2383 53.07 13.98H46.77C46.8929 13.2082 47.2991 12.51 47.9094 12.0218C48.5197 11.5336 49.2901 11.2905 50.07 11.34Z" fill="#333132"/>
<path d="M62.18 14.13C60.81 13.53 60.06 13.07 60.06 12.37C60.06 11.87 60.53 11.37 61.56 11.37C62.5015 11.3811 63.4295 11.596 64.28 12C64.4558 12.0855 64.6579 12.1 64.8441 12.0404C65.0304 11.9808 65.1865 11.8517 65.28 11.68L65.73 10.78C65.8184 10.5816 65.8338 10.3583 65.7734 10.1497C65.713 9.94102 65.5807 9.76047 65.4 9.63999C64.2268 8.95652 62.8875 8.61046 61.53 8.63999C58.47 8.63999 57.1 10.49 57.1 12.32C57.1 14.61 58.83 15.7 60.69 16.54C62.55 17.38 63.37 17.89 63.37 18.65C63.37 19.41 62.78 19.76 61.81 19.76C60.7151 19.7523 59.6443 19.437 58.72 18.85C58.6224 18.7896 58.5132 18.7505 58.3996 18.735C58.2859 18.7194 58.1702 18.728 58.06 18.76C57.9758 18.7853 57.8977 18.8276 57.8306 18.8844C57.7635 18.9412 57.7089 19.0111 57.67 19.09L57.08 20.29C57.0122 20.4416 57.0023 20.6127 57.052 20.7712C57.1018 20.9296 57.2078 21.0643 57.35 21.15C58.6287 22.0235 60.1414 22.4905 61.69 22.49C64.82 22.49 66.46 20.49 66.46 18.56C66.45 16.12 64.76 15.22 62.18 14.13Z" fill="#333132"/>
<path d="M74 8.66C72.6245 8.62418 71.2697 8.9998 70.109 9.73876C68.9484 10.4777 68.0347 11.5464 67.4852 12.8078C66.9356 14.0692 66.7752 15.466 67.0244 16.8192C67.2736 18.1723 67.9211 19.4203 68.884 20.4032C69.8468 21.3861 71.0812 22.0592 72.429 22.3362C73.7767 22.6132 75.1765 22.4815 76.449 21.958C77.7214 21.4346 78.8087 20.5431 79.5714 19.3979C80.3341 18.2527 80.7375 16.9059 80.73 15.53C80.7202 13.735 80.0124 12.0143 78.7562 10.7321C77.5001 9.44986 75.7944 8.70673 74 8.66ZM77.68 15.53C77.7174 16.0388 77.6495 16.5498 77.4805 17.0311C77.3116 17.5125 77.0451 17.9538 76.6979 18.3275C76.3507 18.7012 75.9301 18.9993 75.4624 19.2032C74.9948 19.407 74.4901 19.5122 73.98 19.5122C73.4699 19.5122 72.9652 19.407 72.4976 19.2032C72.0299 18.9993 71.6093 18.7012 71.2621 18.3275C70.9148 17.9538 70.6484 17.5125 70.4794 17.0311C70.3105 16.5498 70.2426 16.0388 70.28 15.53C70.2426 15.0212 70.3105 14.5102 70.4794 14.0289C70.6484 13.5475 70.9148 13.1062 71.2621 12.7325C71.6093 12.3588 72.0299 12.0607 72.4976 11.8568C72.9652 11.653 73.4699 11.5478 73.98 11.5478C74.4901 11.5478 74.9948 11.653 75.4624 11.8568C75.9301 12.0607 76.3507 12.3588 76.6979 12.7325C77.0451 13.1062 77.3116 13.5475 77.4805 14.0289C77.6495 14.5102 77.7174 15.0212 77.68 15.53Z" fill="#333132"/>
<path d="M93 8.94H91.52C91.08 8.94 90.65 9 90.65 9.71V17.52C90.4315 18.1075 90.0385 18.6141 89.5236 18.9716C89.0088 19.3291 88.3968 19.5205 87.77 19.52C86.16 19.52 85.4 18.59 85.4 16.59V9.71C85.3951 9.50906 85.3137 9.31755 85.1725 9.17449C85.0313 9.03143 84.8409 8.94757 84.64 8.94H83.07C82.8682 8.94744 82.6766 9.03095 82.5338 9.17377C82.391 9.3166 82.3074 9.50816 82.3 9.71V16.4C82.3 19.23 82.87 22.48 87.3 22.48C88.0437 22.5037 88.7841 22.3709 89.4732 22.0901C90.1623 21.8093 90.7847 21.3868 91.3 20.85L91.55 21.54C91.67 21.86 91.84 22.18 92.28 22.18H93C93.2063 22.1777 93.404 22.0967 93.5527 21.9536C93.7014 21.8105 93.7898 21.6161 93.8 21.41V9.71C93.7898 9.5039 93.7014 9.30946 93.5527 9.16636C93.404 9.02326 93.2063 8.9423 93 8.94Z" fill="#333132"/>
<path d="M105 9.39998C104.66 8.84998 103.5 8.65998 102.53 8.65998C101.801 8.65926 101.08 8.81307 100.415 9.11127C99.7492 9.40946 99.1547 9.84527 98.67 10.39L98.39 9.50998C98.3506 9.35024 98.2597 9.20791 98.1314 9.10491C98.0031 9.00191 97.8445 8.94395 97.68 8.93998H97.01C96.8083 8.94513 96.6165 9.02822 96.4748 9.17179C96.3331 9.31537 96.2525 9.50826 96.25 9.70998V21.41C96.25 21.6125 96.3297 21.8068 96.472 21.9509C96.6142 22.0951 96.8075 22.1773 97.01 22.18H98.3C98.72 22.18 99.3 22.18 99.3 21.41V13.24C99.614 12.7533 100.043 12.3511 100.548 12.0687C101.054 11.7863 101.621 11.6322 102.2 11.62C102.582 11.6286 102.959 11.71 103.31 11.86C103.487 11.9296 103.683 11.9296 103.86 11.86C103.957 11.8239 104.045 11.7679 104.12 11.6956C104.194 11.6233 104.252 11.5362 104.29 11.44L104.96 10.04C105.021 9.94549 105.056 9.83714 105.063 9.72516C105.07 9.61318 105.048 9.50126 105 9.39998Z" fill="#333132"/>
<path d="M115.25 17.9C115.176 17.8336 115.09 17.7826 114.997 17.7501C114.903 17.7176 114.804 17.7042 114.705 17.7107C114.606 17.7173 114.51 17.7436 114.421 17.7881C114.333 17.8327 114.254 17.8945 114.19 17.97L113.88 18.27C113.56 18.6604 113.157 18.9749 112.7 19.191C112.244 19.4072 111.745 19.5195 111.24 19.52C110.733 19.5074 110.233 19.393 109.771 19.1836C109.308 18.9742 108.893 18.6741 108.548 18.301C108.204 17.9279 107.939 17.4895 107.767 17.0118C107.596 16.5341 107.522 16.0268 107.55 15.52C107.534 15.0125 107.619 14.507 107.801 14.0329C107.983 13.5587 108.257 13.1256 108.608 12.7588C108.959 12.3919 109.38 12.0987 109.845 11.8963C110.311 11.6939 110.812 11.5864 111.32 11.58C112.304 11.6448 113.224 12.0937 113.88 12.83C114.09 13.04 114.46 13.4 114.93 12.97L115.93 12.05C116.014 11.9855 116.085 11.9047 116.137 11.8124C116.19 11.7201 116.223 11.6181 116.235 11.5126C116.247 11.4072 116.238 11.3003 116.208 11.1985C116.178 11.0967 116.128 11.002 116.06 10.92C115.5 10.1779 114.77 9.58142 113.931 9.18108C113.092 8.78075 112.169 8.5883 111.24 8.62001C109.421 8.64112 107.685 9.38247 106.413 10.6815C105.14 11.9806 104.434 13.7314 104.45 15.55C104.433 16.4486 104.595 17.3417 104.927 18.1769C105.259 19.0121 105.754 19.7728 106.383 20.4143C107.013 21.0559 107.764 21.5655 108.593 21.9133C109.421 22.2611 110.311 22.4402 111.21 22.44C112.235 22.4615 113.248 22.22 114.153 21.7386C115.058 21.2571 115.825 20.5519 116.38 19.69C116.55 19.43 116.64 19.03 116.12 18.57L115.25 17.9Z" fill="#333132"/>
<path d="M123.62 8.65997C122.728 8.6604 121.846 8.84153 121.026 9.19241C120.206 9.54329 119.466 10.0567 118.85 10.7015C118.234 11.3464 117.756 12.1093 117.443 12.9444C117.13 13.7794 116.989 14.6692 117.03 15.56C116.979 16.4567 117.113 17.3542 117.424 18.1969C117.735 19.0396 118.216 19.8093 118.836 20.4583C119.457 21.1073 120.205 21.6217 121.033 21.9694C121.861 22.3172 122.752 22.491 123.65 22.48C125.419 22.5378 127.151 21.9595 128.53 20.85C128.618 20.7959 128.693 20.7219 128.747 20.6338C128.802 20.5456 128.835 20.446 128.843 20.3428C128.852 20.2396 128.836 20.1357 128.798 20.0397C128.759 19.9437 128.698 19.8581 128.62 19.79L127.86 18.61C127.775 18.4686 127.639 18.3649 127.48 18.32C127.265 18.3075 127.053 18.3792 126.89 18.52C126.018 19.2135 124.934 19.5875 123.82 19.58C122.911 19.5987 122.027 19.2783 121.341 18.6812C120.656 18.0841 120.217 17.253 120.11 16.35H128.88C129.067 16.3481 129.247 16.2762 129.384 16.1486C129.521 16.0209 129.605 15.8466 129.62 15.66C129.62 15.43 129.68 14.98 129.68 14.75C129.692 13.9494 129.544 13.1546 129.244 12.4122C128.944 11.6699 128.499 10.995 127.934 10.4275C127.369 9.85998 126.696 9.41122 125.956 9.10766C125.215 8.80409 124.421 8.65188 123.62 8.65997ZM123.57 11.34C124.313 11.3114 125.039 11.5694 125.597 12.0608C126.156 12.5521 126.504 13.2392 126.57 13.98H120.24C120.359 13.2006 120.768 12.4952 121.386 12.0054C122.004 11.5156 122.784 11.2779 123.57 11.34Z" fill="#333132"/>
<path d="M135.68 14.13C134.3 13.53 133.56 13.07 133.56 12.37C133.56 11.87 134.02 11.37 135.06 11.37C135.998 11.3813 136.923 11.5963 137.77 12C137.946 12.0856 138.148 12.1001 138.334 12.0405C138.52 11.9809 138.677 11.8518 138.77 11.68L139.22 10.78C139.311 10.5819 139.327 10.358 139.266 10.1488C139.206 9.93964 139.072 9.75911 138.89 9.64001C137.721 8.95591 136.384 8.60973 135.03 8.64001C131.96 8.64001 130.59 10.49 130.59 12.32C130.59 14.61 132.32 15.7 134.18 16.54C136.04 17.38 136.87 17.89 136.87 18.65C136.87 19.41 136.27 19.76 135.31 19.76C134.212 19.7521 133.138 19.4369 132.21 18.85H132.16C132.064 18.7899 131.957 18.7508 131.845 18.7353C131.733 18.7198 131.619 18.7282 131.51 18.76C131.423 18.7816 131.342 18.8225 131.273 18.8796C131.203 18.9367 131.148 19.0086 131.11 19.09L130.53 20.29C130.46 20.4413 130.449 20.6132 130.499 20.7722C130.549 20.9312 130.656 21.0659 130.8 21.15C132.079 22.0235 133.591 22.4905 135.14 22.49C138.27 22.49 139.91 20.49 139.91 18.56C139.94 16.12 138.25 15.22 135.68 14.13Z" fill="#333132"/>
<path d="M12 21.22C12 21.3224 11.9798 21.4239 11.9406 21.5185C11.9014 21.6131 11.844 21.6991 11.7715 21.7715C11.6991 21.844 11.6131 21.9014 11.5185 21.9406C11.4239 21.9798 11.3224 22 11.22 22H7.78C7.67757 22 7.57614 21.9798 7.48151 21.9406C7.38688 21.9014 7.30089 21.844 7.22846 21.7715C7.15603 21.6991 7.09858 21.6131 7.05938 21.5185C7.02018 21.4239 7 21.3224 7 21.22V17.79C6.99868 17.6867 7.01788 17.5842 7.05648 17.4884C7.09509 17.3926 7.15233 17.3055 7.22489 17.232C7.29746 17.1585 7.38389 17.1001 7.47918 17.0603C7.57447 17.0205 7.67673 17 7.78 17H11.22C11.3233 17 11.4255 17.0205 11.5208 17.0603C11.6161 17.1001 11.7026 17.1585 11.7751 17.232C11.8477 17.3055 11.9049 17.3926 11.9435 17.4884C11.9821 17.5842 12.0013 17.6867 12 17.79V21.22ZM12 14.22C12 14.4269 11.9178 14.6253 11.7715 14.7715C11.6253 14.9178 11.4269 15 11.22 15H7.78C7.57313 15 7.37474 14.9178 7.22846 14.7715C7.08218 14.6253 7 14.4269 7 14.22V10.79C6.99868 10.6867 7.01788 10.5842 7.05648 10.4884C7.09509 10.3926 7.15233 10.3055 7.22489 10.232C7.29746 10.1585 7.38389 10.1001 7.47918 10.0603C7.57447 10.0205 7.67673 9.99999 7.78 10H11.22C11.3233 9.99999 11.4255 10.0205 11.5208 10.0603C11.6161 10.1001 11.7026 10.1585 11.7751 10.232C11.8477 10.3055 11.9049 10.3926 11.9435 10.4884C11.9821 10.5842 12.0013 10.6867 12 10.79V14.22ZM19 21.22C19 21.3224 18.9798 21.4239 18.9406 21.5185C18.9014 21.6131 18.844 21.6991 18.7715 21.7715C18.6991 21.844 18.6131 21.9014 18.5185 21.9406C18.4239 21.9798 18.3224 22 18.22 22H14.78C14.5731 22 14.3747 21.9178 14.2285 21.7715C14.0822 21.6253 14 21.4269 14 21.22V17.79C13.9987 17.6867 14.0179 17.5842 14.0565 17.4884C14.0951 17.3926 14.1523 17.3055 14.2249 17.232C14.2975 17.1585 14.3839 17.1001 14.4792 17.0603C14.5745 17.0205 14.6767 17 14.78 17H18.22C18.3233 17 18.4255 17.0205 18.5208 17.0603C18.6161 17.1001 18.7025 17.1585 18.7751 17.232C18.8477 17.3055 18.9049 17.3926 18.9435 17.4884C18.9821 17.5842 19.0013 17.6867 19 17.79V21.22ZM19 14.22C19 14.3224 18.9798 14.4239 18.9406 14.5185C18.9014 14.6131 18.844 14.6991 18.7715 14.7715C18.6991 14.844 18.6131 14.9014 18.5185 14.9406C18.4239 14.9798 18.3224 15 18.22 15H14.78C14.5731 15 14.3747 14.9178 14.2285 14.7715C14.0822 14.6253 14 14.4269 14 14.22V10.79C13.9987 10.6867 14.0179 10.5842 14.0565 10.4884C14.0951 10.3926 14.1523 10.3055 14.2249 10.232C14.2975 10.1585 14.3839 10.1001 14.4792 10.0603C14.5745 10.0205 14.6767 9.99999 14.78 10H18.22C18.3233 9.99999 18.4255 10.0205 18.5208 10.0603C18.6161 10.1001 18.7025 10.1585 18.7751 10.232C18.8477 10.3055 18.9049 10.3926 18.9435 10.4884C18.9821 10.5842 19.0013 10.6867 19 10.79V14.22Z" fill="white"/>
<defs>
<linearGradient id="paint0_linear" x1="2.62" y1="5.62" x2="23.38" y2="26.39" gradientUnits="userSpaceOnUse">
<stop stop-color="#F25437"/>
<stop offset="1" stop-color="#CD4E39"/>
</linearGradient>
</defs>
</svg>
