<svg width="125" height="32" viewBox="0 0 125 32" fill="none" xmlns="http://www.w3.org/2000/svg">
<path d="M13 3C2.6 3 0 5.59 0 16C0 26.41 2.6 29 13 29C23.4 29 26 26.4 26 16C26 5.6 23.42 3 13 3Z" fill="url(#paint0_linear)"/>
<path d="M38 14.16C36.63 13.56 35.88 13.1 35.88 12.39C35.88 11.9 36.35 11.39 37.38 11.39C38.3215 11.4011 39.2495 11.6161 40.1 12.02C40.2766 12.1074 40.4805 12.1218 40.6677 12.06C40.8548 11.9983 41.0101 11.8654 41.1 11.69L41.55 10.8C41.6371 10.5998 41.6518 10.3756 41.5916 10.1657C41.5314 9.95589 41.4 9.77355 41.22 9.65001C40.0448 8.97133 38.7069 8.62562 37.35 8.65001C34.29 8.65001 32.92 10.5 32.92 12.33C32.92 14.62 34.64 15.71 36.51 16.55C38.38 17.39 39.19 17.9 39.19 18.65C39.19 19.4 38.6 19.76 37.63 19.76C36.536 19.7554 35.4654 19.4435 34.54 18.86C34.442 18.8007 34.3332 18.7614 34.22 18.7442C34.1067 18.727 33.9912 18.7324 33.88 18.76C33.7115 18.8142 33.5713 18.9328 33.49 19.09L32.9 20.3C32.8322 20.4516 32.8223 20.6228 32.872 20.7812C32.9218 20.9396 33.0277 21.0743 33.17 21.16C34.4487 22.0335 35.9614 22.5005 37.51 22.5C40.64 22.5 42.28 20.5 42.28 18.57C42.24 16.15 40.55 15.25 38 14.16Z" fill="#333132"/>
<path d="M49.62 8.68997C48.7274 8.68905 47.844 8.86918 47.023 9.21946C46.2021 9.56974 45.4607 10.0829 44.8437 10.7279C44.2268 11.3729 43.7471 12.1363 43.4336 12.972C43.1201 13.8077 42.9794 14.6983 43.02 15.59C42.9707 16.4863 43.1059 17.3833 43.4172 18.2253C43.7285 19.0673 44.2093 19.8364 44.8299 20.4851C45.4504 21.1338 46.1975 21.6482 47.0249 21.9965C47.8523 22.3448 48.7424 22.5195 49.64 22.51C51.4119 22.5649 53.1455 21.9871 54.53 20.88C54.6177 20.8251 54.6913 20.7503 54.7448 20.6618C54.7983 20.5732 54.8302 20.4734 54.838 20.3702C54.8458 20.267 54.8292 20.1635 54.7896 20.0679C54.75 19.9723 54.6885 19.8874 54.61 19.82L53.86 18.64C53.7732 18.4958 53.6331 18.3916 53.47 18.35C53.2592 18.3342 53.0506 18.4025 52.89 18.54C52.0176 19.2414 50.9294 19.6194 49.81 19.61C48.9015 19.6264 48.0191 19.3052 47.3338 18.7085C46.6484 18.1119 46.2088 17.2821 46.1 16.38H54.88C55.0665 16.3759 55.2451 16.3033 55.3815 16.176C55.518 16.0488 55.6029 15.8758 55.62 15.69C55.62 15.46 55.67 15 55.67 14.77C55.6905 13.9685 55.5482 13.1712 55.2518 12.4263C54.9553 11.6814 54.5109 11.0043 53.9454 10.436C53.3799 9.86765 52.7051 9.41991 51.9616 9.11981C51.2182 8.81972 50.4216 8.67349 49.62 8.68997ZM49.56 11.37C50.3038 11.3389 51.031 11.5961 51.5898 12.0879C52.1487 12.5797 52.4963 13.2682 52.56 14.01H46.26C46.3829 13.2382 46.7892 12.5399 47.3994 12.0517C48.0097 11.5635 48.7801 11.3204 49.56 11.37Z" fill="#333132"/>
<path d="M63.65 8.69002C62.9183 8.68787 62.1945 8.84198 61.5271 9.14205C60.8597 9.44212 60.264 9.88123 59.78 10.43L59.51 9.53002C59.4633 9.37773 59.3693 9.24427 59.2416 9.14898C59.114 9.05369 58.9593 9.00152 58.8 9.00003H58.13C57.9291 9.00497 57.7375 9.08633 57.5945 9.22753C57.4514 9.36873 57.3676 9.55916 57.36 9.76003V21.44C57.3626 21.6425 57.4449 21.8358 57.589 21.978C57.7332 22.1203 57.9275 22.2 58.13 22.2H59.42C59.83 22.2 60.42 22.2 60.42 21.44V13.27C60.7375 12.7844 61.1682 12.3832 61.6751 12.101C62.1821 11.8188 62.75 11.664 63.33 11.65C63.7106 11.6611 64.0863 11.7389 64.44 11.88C64.5269 11.9172 64.6205 11.9363 64.715 11.9363C64.8095 11.9363 64.9031 11.9172 64.99 11.88C65.1825 11.8012 65.3367 11.6506 65.42 11.46L66.09 10.06C66.1517 9.95735 66.1843 9.83982 66.1843 9.72003C66.1843 9.60023 66.1517 9.4827 66.09 9.38003C65.78 8.88003 64.62 8.69002 63.65 8.69002Z" fill="#333132"/>
<path d="M78.67 8.99999H77.41C77.04 8.99999 76.62 8.99999 76.41 9.44999L72.91 17.13L69.57 9.40999C69.5139 9.27274 69.4162 9.1565 69.2907 9.07759C69.1651 8.99868 69.018 8.96105 68.87 8.96999H67.16C67.0355 8.96083 66.9108 8.98467 66.7984 9.03909C66.686 9.09352 66.59 9.17661 66.52 9.27999C66.4647 9.37576 66.4356 9.4844 66.4356 9.59499C66.4356 9.70558 66.4647 9.81422 66.52 9.90999L72.12 22.09C72.1829 22.2185 72.2814 22.3264 72.4036 22.4008C72.5259 22.4752 72.6669 22.5131 72.81 22.51H73C73.1402 22.5117 73.278 22.4731 73.3968 22.3986C73.5156 22.3241 73.6105 22.217 73.67 22.09L79.28 9.91999C79.3382 9.8234 79.369 9.71277 79.369 9.59999C79.369 9.48722 79.3382 9.37658 79.28 9.27999C79.2106 9.18526 79.1181 9.10982 79.0113 9.06082C78.9046 9.01182 78.7871 8.99089 78.67 8.99999Z" fill="#333132"/>
<path d="M82.76 8.96997H81.2C80.7747 8.96997 80.43 9.31471 80.43 9.73997V21.44C80.43 21.8652 80.7747 22.21 81.2 22.21H82.76C83.1853 22.21 83.53 21.8652 83.53 21.44V9.73997C83.53 9.31471 83.1853 8.96997 82.76 8.96997Z" fill="#333132"/>
<path d="M82 3.13999C81.7331 3.1399 81.4689 3.19324 81.2229 3.29686C80.9769 3.40049 80.7542 3.55229 80.5678 3.74334C80.3814 3.93438 80.2352 4.1608 80.1376 4.40925C80.0401 4.65771 79.9933 4.92316 80 5.18999C80 5.72042 80.2107 6.22913 80.5858 6.6042C80.9609 6.97927 81.4696 7.18999 82 7.18999C82.2679 7.18999 82.5332 7.13722 82.7807 7.0347C83.0282 6.93218 83.2531 6.78191 83.4425 6.59248C83.6319 6.40305 83.7822 6.17816 83.8847 5.93066C83.9872 5.68316 84.04 5.41788 84.04 5.14999C84.04 4.88209 83.9872 4.61682 83.8847 4.36931C83.7822 4.12181 83.6319 3.89692 83.4425 3.70749C83.2531 3.51806 83.0282 3.36779 82.7807 3.26527C82.5332 3.16275 82.2679 3.10999 82 3.10999V3.13999Z" fill="#333132"/>
<path d="M96 17.93C95.8549 17.8141 95.6716 17.7569 95.4864 17.7699C95.3011 17.7828 95.1275 17.865 95 18C94.89 18.09 94.79 18.19 94.68 18.3C94.3572 18.6978 93.9482 19.0171 93.484 19.2336C93.0197 19.4502 92.5122 19.5584 92 19.55C91.4926 19.5374 90.9929 19.423 90.5305 19.2136C90.0682 19.0042 89.6526 18.7041 89.3084 18.331C88.9643 17.9579 88.6985 17.5195 88.527 17.0418C88.3555 16.5641 88.2817 16.0568 88.31 15.55C88.2435 14.7895 88.419 14.0274 88.8116 13.3727C89.2042 12.718 89.7938 12.2042 90.496 11.9047C91.1982 11.6051 91.9771 11.5353 92.7213 11.7051C93.4656 11.8749 94.1372 12.2756 94.64 12.85C94.85 13.07 95.21 13.43 95.64 13L96.64 12.07C96.801 11.9484 96.9093 11.7697 96.9428 11.5708C96.9762 11.3718 96.9323 11.1676 96.82 11C96.2602 10.2573 95.5302 9.6598 94.6914 9.25782C93.8527 8.85585 92.9297 8.66111 92 8.69C90.1823 8.70848 88.4463 9.44762 87.1732 10.7451C85.9001 12.0426 85.194 13.7923 85.21 15.61C85.1913 16.512 85.3534 17.4086 85.6866 18.2469C86.0198 19.0853 86.5175 19.8485 87.1503 20.4916C87.783 21.1346 88.5381 21.6445 89.3711 21.9911C90.204 22.3378 91.0978 22.5142 92 22.51C93.0232 22.5297 94.0345 22.2874 94.9377 21.8061C95.8408 21.3247 96.6059 20.6204 97.16 19.76C97.33 19.5 97.43 19.1 96.91 18.63L96 17.93Z" fill="#333132"/>
<path d="M104.38 8.69003C103.488 8.69046 102.606 8.87158 101.786 9.22247C100.966 9.57335 100.226 10.0867 99.6103 10.7316C98.9944 11.3764 98.5156 12.1394 98.2027 12.9744C97.8899 13.8095 97.7495 14.6992 97.79 15.59C97.7392 16.4867 97.8734 17.3843 98.1841 18.227C98.4949 19.0696 98.9756 19.8394 99.5965 20.4883C100.217 21.1373 100.965 21.6517 101.793 21.9995C102.621 22.3473 103.512 22.5211 104.41 22.51C106.179 22.5679 107.911 21.9896 109.29 20.88C109.378 20.826 109.453 20.7519 109.507 20.6638C109.562 20.5757 109.595 20.476 109.603 20.3728C109.612 20.2696 109.596 20.1658 109.558 20.0698C109.519 19.9737 109.458 19.8882 109.38 19.82L108.62 18.64C108.535 18.4986 108.399 18.3949 108.24 18.35C108.026 18.3326 107.814 18.401 107.65 18.54C106.781 19.2415 105.696 19.6197 104.58 19.61C103.67 19.631 102.785 19.3114 102.099 18.7139C101.413 18.1163 100.974 17.284 100.87 16.38H109.64C109.827 16.3781 110.007 16.3063 110.144 16.1786C110.281 16.0509 110.365 15.8767 110.38 15.69C110.38 15.46 110.44 15 110.44 14.77C110.459 13.9681 110.316 13.1706 110.018 12.4256C109.72 11.6806 109.275 11.0037 108.709 10.4355C108.143 9.86733 107.467 9.41976 106.723 9.11977C105.979 8.81978 105.182 8.6736 104.38 8.69003ZM104.32 11.37C105.063 11.3414 105.789 11.5995 106.347 12.0908C106.906 12.5822 107.254 13.2692 107.32 14.01H101C101.123 13.2346 101.532 12.5334 102.147 12.0447C102.761 11.556 103.537 11.3153 104.32 11.37Z" fill="#333132"/>
<path d="M116.44 14.16C115.06 13.56 114.32 13.1 114.32 12.39C114.32 11.9 114.78 11.39 115.82 11.39C116.758 11.4026 117.683 11.6175 118.53 12.02C118.706 12.1056 118.908 12.1201 119.094 12.0605C119.28 12.0009 119.436 11.8718 119.53 11.7L119.98 10.8C120.069 10.6001 120.085 10.3752 120.024 10.1649C119.964 9.95456 119.832 9.77224 119.65 9.65001C118.478 8.97261 117.144 8.62693 115.79 8.65001C112.72 8.65001 111.35 10.5 111.35 12.33C111.35 14.62 113.08 15.71 114.94 16.55C116.8 17.39 117.62 17.9 117.62 18.65C117.62 19.4 117.03 19.76 116.07 19.76C114.973 19.7567 113.898 19.4448 112.97 18.86C112.874 18.7999 112.767 18.7608 112.655 18.7453C112.543 18.7298 112.429 18.7382 112.32 18.77C112.234 18.7918 112.154 18.8316 112.085 18.8868C112.016 18.942 111.96 19.0113 111.92 19.09L111.34 20.3C111.27 20.4513 111.259 20.6232 111.309 20.7822C111.359 20.9412 111.466 21.0759 111.61 21.16C112.889 22.0335 114.401 22.5005 115.95 22.5C119.08 22.5 120.72 20.5 120.72 18.57C120.7 16.15 119 15.25 116.44 14.16Z" fill="#333132"/>
<path d="M7.09001 12.92C7.85216 12.92 8.47001 12.3021 8.47001 11.54C8.47001 10.7778 7.85216 10.16 7.09001 10.16C6.32785 10.16 5.71001 10.7778 5.71001 11.54C5.71001 12.3021 6.32785 12.92 7.09001 12.92Z" fill="white"/>
<path d="M7.09001 17.4C7.85216 17.4 8.47001 16.7822 8.47001 16.02C8.47001 15.2579 7.85216 14.64 7.09001 14.64C6.32785 14.64 5.71001 15.2579 5.71001 16.02C5.71001 16.7822 6.32785 17.4 7.09001 17.4Z" fill="white"/>
<path d="M7.09001 21.89C7.85216 21.89 8.47001 21.2722 8.47001 20.51C8.47001 19.7479 7.85216 19.13 7.09001 19.13C6.32785 19.13 5.71001 19.7479 5.71001 20.51C5.71001 21.2722 6.32785 21.89 7.09001 21.89Z" fill="white"/>
<path d="M19.55 12.15C19.5474 12.318 19.4788 12.4782 19.359 12.5961C19.2393 12.7139 19.078 12.78 18.91 12.78H10.6C10.4329 12.78 10.2727 12.7136 10.1545 12.5955C10.0364 12.4773 9.97 12.3171 9.97 12.15V10.92C9.97 10.7529 10.0364 10.5926 10.1545 10.4745C10.2727 10.3564 10.4329 10.29 10.6 10.29H18.91C19.078 10.29 19.2393 10.356 19.359 10.4739C19.4788 10.5917 19.5474 10.752 19.55 10.92V12.15Z" fill="white"/>
<path d="M18.92 14.78H10.6C10.2521 14.78 9.97 15.0621 9.97 15.41V16.64C9.97 16.988 10.2521 17.27 10.6 17.27H18.92C19.2679 17.27 19.55 16.988 19.55 16.64V15.41C19.55 15.0621 19.2679 14.78 18.92 14.78Z" fill="white"/>
<path d="M18.92 19.26H10.6C10.2521 19.26 9.97 19.5421 9.97 19.89V21.12C9.97 21.4679 10.2521 21.75 10.6 21.75H18.92C19.2679 21.75 19.55 21.4679 19.55 21.12V19.89C19.55 19.5421 19.2679 19.26 18.92 19.26Z" fill="white"/>
<defs>
<linearGradient id="paint0_linear" x1="2.6" y1="5.59" x2="23.42" y2="26.41" gradientUnits="userSpaceOnUse">
<stop stop-color="#6BB23D"/>
<stop offset="1" stop-color="#659630"/>
</linearGradient>
</defs>
</svg>
