<svg id="Layer_1" data-name="Layer 1" xmlns="http://www.w3.org/2000/svg" viewBox="0 0 16 16"><title>bill</title><path d="M15.794,2.172A.669.669,0,0,0,15.331,2H.687a.693.693,0,0,0-.481.176.542.542,0,0,0-.195.418v10.8a.556.556,0,0,0,.195.434A.689.689,0,0,0,.687,14H15.331a.665.665,0,0,0,.463-.177.556.556,0,0,0,.2-.434V2.59A.542.542,0,0,0,15.794,2.172Zm-1.005,8.264a1.793,1.793,0,0,0-.335-.034,2.475,2.475,0,0,0-2.472,2.4H4.046a2.475,2.475,0,0,0-2.472-2.4,1.8,1.8,0,0,0-.363.037V5.561a1.8,1.8,0,0,0,.363.037A2.475,2.475,0,0,0,4.046,3.2h7.936a2.475,2.475,0,0,0,2.472,2.4,1.793,1.793,0,0,0,.335-.034Z"/><path d="M10.341,5.228A3.407,3.407,0,0,0,9.287,4.4a2.833,2.833,0,0,0-1.3-.3,2.864,2.864,0,0,0-1.3.3,3.362,3.362,0,0,0-1.057.832,3.92,3.92,0,0,0-.706,1.243,4.691,4.691,0,0,0,0,3.057,3.92,3.92,0,0,0,.706,1.243A3.379,3.379,0,0,0,6.69,11.6a2.908,2.908,0,0,0,2.593,0,3.4,3.4,0,0,0,1.058-.833,4.194,4.194,0,0,0,.72-1.243,4.493,4.493,0,0,0,0-3.057A4.194,4.194,0,0,0,10.341,5.228ZM9.33,9.92H6.692V9.35H7.14a.286.286,0,0,0,.3-.325v-2.1H6.705v-.57h.17a.821.821,0,0,0,.855-.542h.881V9.025a.286.286,0,0,0,.3.325h.42Z"/></svg>