<svg id="Layer_1" data-name="Layer 1" xmlns="http://www.w3.org/2000/svg" viewBox="0 0 16 16"><title>eye-crossed-out</title><path d="M15.825,7.889a9.676,9.676,0,0,0-1.44-2.35l-1.24,1.24a7.865,7.865,0,0,1,.91,1.44c-.51,1.02-2.33,4.05-5.95,4.05a3.024,3.024,0,0,1-.43-.02l-1.53,1.53a8.093,8.093,0,0,0,1.96.24c5.47,0,7.63-5.26,7.72-5.48A.91.91,0,0,0,15.825,7.889Z"/><path d="M11.065,8.859l-2.42,2.42A3.158,3.158,0,0,0,11.065,8.859Z"/><path d="M14.742,2.53A.875.875,0,1,0,13.5,1.292L11.575,3.221a7.572,7.572,0,0,0-3.47-.812C2.655,2.409.3,7.639.2,7.859a.878.878,0,0,0,0,.71A10.756,10.756,0,0,0,2.8,12L1.24,13.556a.876.876,0,0,0,1.239,1.238Zm-8.1,5.625a1.369,1.369,0,0,1,1.31-1.31Zm-4.666.064c.57-1.06,2.51-4.06,6.13-4.06a5.96,5.96,0,0,1,2.143.389l-.87.87a3.065,3.065,0,0,0-1.373-.329,3.12,3.12,0,0,0-2.8,4.5L4.045,10.751A9,9,0,0,1,1.975,8.219Z"/></svg>