<svg id="Layer_1" data-name="Layer 1" xmlns="http://www.w3.org/2000/svg" viewBox="0 0 16 16"><title>eye-closed</title><path d="M14.866,7.6A11.711,11.711,0,0,0,13,5.345a.574.574,0,0,0-.83.048.625.625,0,0,0,.046.859,10.213,10.213,0,0,1,1.445,1.69,8.874,8.874,0,0,1-2.774,2.686.62.62,0,0,0-.223.829.584.584,0,0,0,.512.309.565.565,0,0,0,.289-.079,10.3,10.3,0,0,0,3.4-3.408A.629.629,0,0,0,14.866,7.6Zm-3-4.29a.622.622,0,0,0-.16-.844.575.575,0,0,0-.815.164l-.634.975a4.486,4.486,0,0,0-.825-.227c-3.056-.7-6.155.88-8.3,4.223a.627.627,0,0,0,0,.674,10.136,10.136,0,0,0,3.75,3.6l-.58.891a.623.623,0,0,0,.159.845.573.573,0,0,0,.328.1.582.582,0,0,0,.488-.268l2.343-3.6A1.816,1.816,0,0,0,8,9.886,1.911,1.911,0,0,0,9.877,7.942a1.99,1.99,0,0,0-.315-1.078Zm-3.24,2.8A1.791,1.791,0,0,0,8,6,1.912,1.912,0,0,0,6.123,7.942a1.967,1.967,0,0,0,.482,1.29L5.548,10.857A8.608,8.608,0,0,1,2.337,7.941C4.219,5.21,6.712,3.988,9.228,4.581a.577.577,0,0,0,.117.015,1.759,1.759,0,0,1,.25.037Z"/></svg>