<svg id="Layer_1" data-name="Layer 1" xmlns="http://www.w3.org/2000/svg" viewBox="0 0 16 16"><title>eyeball-hide</title><path d="M6.984,5.314,10.572,8.89a2.729,2.729,0,0,0,.2-1.013A2.76,2.76,0,0,0,6.984,5.314Zm8.922,2.224c-.125-.2-3.105-4.9-7.906-4.9A7.511,7.511,0,0,0,4.966,3.3l.961.958A6.139,6.139,0,0,1,8,3.88c3.425,0,5.887,2.978,6.621,3.985A11.889,11.889,0,0,1,12.085,10.4l.9.9a12.84,12.84,0,0,0,2.923-3.1A.621.621,0,0,0,15.906,7.538ZM4.7,4.815l.011-.005L3.8,3.9l-.011.006-.829-.827a.622.622,0,0,0-.881.879l.674.672A12.716,12.716,0,0,0,.094,7.538a.621.621,0,0,0,0,.654c.125.2,3.105,4.9,7.906,4.9a7.508,7.508,0,0,0,2.719-.523l.553.552a.623.623,0,1,0,.882-.879L11.917,12l.01-.006L11,11.075l-.01.006ZM5.329,7.2a2.65,2.65,0,0,0-.1.682A2.766,2.766,0,0,0,8,10.639a2.667,2.667,0,0,0,.685-.1l1.053,1.049A6.086,6.086,0,0,1,8,11.849c-3.425,0-5.886-2.978-6.621-3.984a11.989,11.989,0,0,1,2.27-2.344Z"/></svg>