<svg id="Layer_1" data-name="Layer 1" xmlns="http://www.w3.org/2000/svg" viewBox="0 0 16 16"><title>image-file</title><path d="M9.845,0H2.35A.8.8,0,0,0,1.545.8V15.2A.8.8,0,0,0,2.35,16h11.3a.8.8,0,0,0,.8-.805V4.149Zm2.564,4.155-2.452.007h0a.118.118,0,0,1-.118-.118l0-2.2Zm.7,10.5H2.9V1.349h5.6L8.488,4.04A1.468,1.468,0,0,0,9.96,5.511L13.105,5.5Z"/><path d="M4.2,12.638h7.682V6.688H4.2Zm6.932-5.2v2.948l-.78-.91L9.192,10.834,6.89,8.148,4.954,10.407V7.438ZM4.954,11.559,6.89,9.3l2.217,2.587H4.954Zm4.322.329,1.08-1.26.78.91v.35Z"/><path d="M9.2,9.14a.434.434,0,1,0-.433-.434A.434.434,0,0,0,9.2,9.14Z"/></svg>