<svg id="Layer_1" data-name="Layer 1" xmlns="http://www.w3.org/2000/svg" viewBox="0 0 16 16"><title>magic wand</title><path d="M7.807,7.983a.464.464,0,0,0-.678,0L1.514,13.862a.519.519,0,0,0,0,.71L2.5,15.6a.464.464,0,0,0,.678,0L8.791,9.723a.519.519,0,0,0,0-.71Zm2.41-2.522a.464.464,0,0,0-.678,0L8.568,6.477a.519.519,0,0,0,0,.71l.984,1.029a.463.463,0,0,0,.678,0L11.2,7.2a.517.517,0,0,0,0-.71ZM4.7,2.919A2.028,2.028,0,0,1,6.409,4.708a.3.3,0,0,0,.581,0A2.028,2.028,0,0,1,8.7,2.919a.316.316,0,0,0,0-.608A2.026,2.026,0,0,1,6.99.523a.3.3,0,0,0-.581,0A2.026,2.026,0,0,1,4.7,2.311.316.316,0,0,0,4.7,2.919ZM14.416,2.8a1.206,1.206,0,0,1-.781-.819.281.281,0,0,0-.539,0,1.207,1.207,0,0,1-.782.819.3.3,0,0,0,0,.564,1.2,1.2,0,0,1,.782.818.281.281,0,0,0,.539,0,1.2,1.2,0,0,1,.781-.818A.3.3,0,0,0,14.416,2.8Zm-.39,6.759a1.205,1.205,0,0,1-.782-.819.281.281,0,0,0-.539,0,1.205,1.205,0,0,1-.782.819.3.3,0,0,0,0,.564,1.2,1.2,0,0,1,.782.818.281.281,0,0,0,.539,0,1.2,1.2,0,0,1,.782-.818A.3.3,0,0,0,14.026,9.554Z"/></svg>