<svg id="Layer_1" data-name="Layer 1" xmlns="http://www.w3.org/2000/svg" viewBox="0 0 16 16"><title>notes</title><path d="M15.157,12.355,15.065,2.56a1.591,1.591,0,0,0-1.574-1.6H2.416A1.59,1.59,0,0,0,.843,2.56V13.44a1.59,1.59,0,0,0,1.573,1.6h9.877ZM2.416,13.669a.229.229,0,0,1-.224-.229V2.56a.229.229,0,0,1,.224-.229H13.491a.23.23,0,0,1,.225.229l.092,8.8L11.3,13.669Z"/><polygon points="9.776 15.043 9.776 9.746 15.039 9.746 15.039 11.36 11.354 11.36 11.354 15.043 9.776 15.043"/><rect x="5.774" y="4.369" width="4.841" height="1.614"/><rect x="5.774" y="6.789" width="4.841" height="1.614"/></svg>