<svg id="Layer_1" data-name="Layer 1" xmlns="http://www.w3.org/2000/svg" viewBox="0 0 16 16"><title>share</title><path id="path0_fill" data-name="path0 fill" d="M7.47.256a.749.749,0,0,1,1.06,0l2.5,2.5A.75.75,0,1,1,9.97,3.817L8.75,2.6v7.69a.75.75,0,0,1-1.5,0V2.6L6.03,3.817A.75.75,0,0,1,4.97,2.756Z"/><path id="path1_fill" data-name="path1 fill" d="M4.5,6.537a.5.5,0,0,0-.5.5v7a.5.5,0,0,0,.5.5h7a.5.5,0,0,0,.5-.5v-7a.5.5,0,0,0-.5-.5H11a.75.75,0,0,1,0-1.5h.5a2,2,0,0,1,2,2v7a2,2,0,0,1-2,2h-7a2,2,0,0,1-2-2v-7a2,2,0,0,1,2-2H5a.75.75,0,0,1,0,1.5Z"/></svg>