<svg id="Layer_1" data-name="Layer 1" xmlns="http://www.w3.org/2000/svg" viewBox="0 0 16 16"><title>video-file</title><path d="M9.845,0H2.35A.8.8,0,0,0,1.545.8V15.2A.8.8,0,0,0,2.35,16h11.3a.8.8,0,0,0,.8-.805V4.149Zm2.564,4.155-2.452.007h0a.118.118,0,0,1-.118-.118l0-2.2Zm.7,10.5H2.9V1.349h5.6L8.488,4.04A1.468,1.468,0,0,0,9.96,5.511L13.105,5.5Z"/><path d="M7.778,13.146A3.483,3.483,0,1,1,11.26,9.663,3.491,3.491,0,0,1,7.778,13.146Zm0-6.179a2.7,2.7,0,1,0,2.7,2.7A2.688,2.688,0,0,0,7.778,6.967Z"/><path d="M9.267,9.43,7.055,7.905a.284.284,0,0,0-.445.234v3.047a.284.284,0,0,0,.445.234L9.267,9.9A.283.283,0,0,0,9.267,9.43ZM7.26,10.49V8.837l1.2.826Z"/></svg>