<svg xmlns="http://www.w3.org/2000/svg" viewBox="0 0 16 16"><title>alert-exclamation-o</title><g id="Layer_1" data-name="Layer 1"><path d="M8.666,5.042H7.333a.257.257,0,0,0-.2.087.294.294,0,0,0-.076.2l.1,3.883a.291.291,0,0,0,.083.2.266.266,0,0,0,.2.087H8.546a.269.269,0,0,0,.2-.087.287.287,0,0,0,.083-.2l.122-3.883a.282.282,0,0,0-.086-.2A.262.262,0,0,0,8.666,5.042Zm-.048,5.246H7.382a.268.268,0,0,0-.2.084A.3.3,0,0,0,7.1,10.6V11.82a.279.279,0,0,0,.281.29H8.618c.187,0,.279-.1.272-.29V10.6a.334.334,0,0,0-.072-.221A.243.243,0,0,0,8.618,10.288Zm7.272,2.567a1.976,1.976,0,0,0-.183-.4L9.293.953a2.386,2.386,0,0,0-.44-.56A1.271,1.271,0,0,0,7.126.4,2.373,2.373,0,0,0,6.69.956L.316,12.416a1.763,1.763,0,0,0-.218.462,1.8,1.8,0,0,0-.075.516A1.252,1.252,0,0,0,.635,14.53a1.885,1.885,0,0,0,.959.262H14.406a1.883,1.883,0,0,0,.961-.263,1.256,1.256,0,0,0,.61-1.135A1.646,1.646,0,0,0,15.89,12.855Zm-1.1.625a.743.743,0,0,1-.388.106H1.594a.5.5,0,0,1-.409-.192.546.546,0,0,1,.021-.154.747.747,0,0,1,.092-.183l6.4-11.5a1.194,1.194,0,0,1,.217-.278.1.1,0,0,1,.08-.028l.077.026a1.221,1.221,0,0,1,.22.277l6.425,11.52a.864.864,0,0,1,.082.179A.434.434,0,0,1,14.794,13.48Z"/></g></svg>