<svg xmlns="http://www.w3.org/2000/svg" viewBox="0 0 16 16"><title>alert-exclamation-o</title><g id="Layer_1" data-name="Layer 1"><path d="M8.666,5.042H7.333a.26.26,0,0,0-.2.087.3.3,0,0,0-.075.2l.1,3.883a.29.29,0,0,0,.084.2.264.264,0,0,0,.2.087H8.546a.27.27,0,0,0,.2-.087.29.29,0,0,0,.083-.2l.121-3.883a.286.286,0,0,0-.085-.2A.264.264,0,0,0,8.666,5.042Zm-.047,5.246H7.382a.267.267,0,0,0-.2.083A.3.3,0,0,0,7.1,10.6V11.82a.279.279,0,0,0,.282.29H8.619c.187,0,.278-.1.272-.29V10.6a.333.333,0,0,0-.072-.221A.245.245,0,0,0,8.619,10.288Zm7.272,2.566a1.987,1.987,0,0,0-.183-.4L9.293.953a2.4,2.4,0,0,0-.44-.56A1.271,1.271,0,0,0,7.126.4a2.386,2.386,0,0,0-.437.56L.316,12.416a1.773,1.773,0,0,0-.218.462,1.805,1.805,0,0,0-.075.516A1.251,1.251,0,0,0,.635,14.53a1.881,1.881,0,0,0,.959.262H14.406a1.88,1.88,0,0,0,.96-.263,1.254,1.254,0,0,0,.611-1.135A1.644,1.644,0,0,0,15.89,12.855Zm-1.1.625a.751.751,0,0,1-.388.106H1.594a.507.507,0,0,1-.409-.192.528.528,0,0,1,.022-.154.737.737,0,0,1,.092-.183l6.4-11.5a1.174,1.174,0,0,1,.217-.278.1.1,0,0,1,.08-.028l.076.025a1.236,1.236,0,0,1,.221.278l6.425,11.52a.906.906,0,0,1,.083.179A.439.439,0,0,1,14.794,13.48Z"/></g></svg>