<svg xmlns="http://www.w3.org/2000/svg" viewBox="0 0 16 16"><defs><style>.cls-1{fill:#231f20;}</style></defs><title>arrows-merging</title><g id="Layer_1" data-name="Layer 1"><path class="cls-1" d="M11.709,9H7.391A6.488,6.488,0,0,1,.911,2.52V1.162a1,1,0,1,1,2,0V2.52A4.485,4.485,0,0,0,7.391,7h4.318a1,1,0,0,1,0,2Z"/><path class="cls-1" d="M1.911,15.838a1,1,0,0,1-1-1V13.48A6.488,6.488,0,0,1,7.391,7h5.041a1,1,0,0,1,0,2H7.391a4.485,4.485,0,0,0-4.48,4.48v1.357A1,1,0,0,1,1.911,15.838Z"/><path class="cls-1" d="M10.229,13.063a1,1,0,0,1-.707-1.707L12.877,8,9.522,4.645A1,1,0,1,1,10.936,3.23L15,7.293a1,1,0,0,1,0,1.414L10.936,12.77A1,1,0,0,1,10.229,13.063Z"/></g></svg>