<svg xmlns="http://www.w3.org/2000/svg" viewBox="0 0 16 16"><title>external-link</title><g id="Layer_1" data-name="Layer 1"><path d="M12.43,7.74v6.11H2.22V3.38H8.09c.18,0,0-.23,0-.23L6.35,1.37H1.9A1.69,1.69,0,0,0,.22,3.06V14.17A1.68,1.68,0,0,0,1.9,15.85H12.75a1.69,1.69,0,0,0,1.69-1.68V9.46L12.61,7.63S12.43,7.58,12.43,7.74Z"/><path d="M15.14.15H9.26A.51.51,0,0,0,8.9,1l2,2L6,8A1.25,1.25,0,0,0,6,9.72a1.23,1.23,0,0,0,1.74,0l4.93-4.94L14.92,7a.51.51,0,0,0,.86-.36V.8A.65.65,0,0,0,15.14.15Z"/></g></svg>