<svg xmlns="http://www.w3.org/2000/svg" viewBox="0 0 16 16"><title>external-link</title><g id="Layer_1" data-name="Layer 1"><path d="M12.433,7.738v6.108H2.222V3.378h5.87c.173,0,.041-.226.041-.226L6.355,1.373H1.9A1.684,1.684,0,0,0,.218,3.057V14.166A1.684,1.684,0,0,0,1.9,15.85H12.754a1.684,1.684,0,0,0,1.684-1.684V9.456L12.611,7.63S12.433,7.581,12.433,7.738Z"/><path d="M15.136.15H9.26a.5.5,0,0,0-.356.858l2.037,2.037L6,7.984A1.226,1.226,0,0,0,7.736,9.717l4.938-4.94,2.25,2.25a.5.5,0,0,0,.858-.355V.8A.646.646,0,0,0,15.136.15Z"/></g></svg>