<svg xmlns="http://www.w3.org/2000/svg" viewBox="0 0 16 16"><title>eye</title><g id="Layer_1" data-name="Layer 1"><path d="M15.79,7.86c-.09-.22-2.26-5.48-7.72-5.48S.26,7.61.16,7.83a.88.88,0,0,0,0,.71C.26,8.76,2.62,14,8.07,14s7.63-5.26,7.72-5.48A.91.91,0,0,0,15.79,7.86ZM8.07,12.24c-3.62,0-5.56-3-6.13-4.05.57-1.06,2.51-4.06,6.13-4.06s5.44,3,5.94,4.06C13.51,9.21,11.69,12.24,8.07,12.24Z"/><path d="M8,5.06a3.13,3.13,0,1,0,3.12,3.13A3.13,3.13,0,0,0,8,5.06Zm0,4.5A1.38,1.38,0,1,1,9.34,8.19,1.37,1.37,0,0,1,8,9.56Z"/></g></svg>