<svg xmlns="http://www.w3.org/2000/svg" viewBox="0 0 16 16">
  <title>eye</title>
  <g id="Layer_1" data-name="Layer 1">
    <g>
      <path d="M15.789,7.86c-.09-.223-2.256-5.479-7.724-5.479C2.619,2.381.256,7.61.158,7.833a.882.882,0,0,0,0,.705c.1.223,2.461,5.451,7.907,5.451,5.468,0,7.634-5.255,7.724-5.478A.882.882,0,0,0,15.789,7.86ZM8.065,12.239c-3.615,0-5.557-3-6.127-4.053.57-1.054,2.512-4.055,6.127-4.055s5.442,3.033,5.95,4.055C13.506,9.209,11.691,12.239,8.065,12.239Z" fill="#231f20"/>
      <path d="M7.968,5.062A3.123,3.123,0,1,0,11.09,8.186,3.127,3.127,0,0,0,7.968,5.062Zm0,4.5A1.373,1.373,0,1,1,9.34,8.186,1.374,1.374,0,0,1,7.968,9.558Z" fill="#231f20"/>
    </g>
  </g>
</svg>
