<svg xmlns="http://www.w3.org/2000/svg" viewBox="0 0 16 16">
  <title>file-song</title>
  <g id="Layer_1" data-name="Layer 1">
    <g id="Layer_5" data-name="Layer 5">
      <g>
        <path d="M9.845.041H2.35a.8.8,0,0,0-.805.8V15.238a.8.8,0,0,0,.805.8h11.3a.8.8,0,0,0,.8-.8V4.191ZM12.409,4.2,9.957,4.2h0a.118.118,0,0,1-.118-.119l0-2.194Zm.7,10.5H2.9V1.391h5.6L8.488,4.082A1.468,1.468,0,0,0,9.96,5.553l3.145-.009Z" fill="#020202"/>
        <path d="M10.571,7.254a.646.646,0,0,0-.644-.646l-2.954.723a.645.645,0,0,0-.489.625V10.61a1.277,1.277,0,0,0-.451-.091,1.3,1.3,0,1,0,1.3,1.3,1.135,1.135,0,0,0-.033-.162l.033.033V8.345l2.388-.607V9.8a1.278,1.278,0,0,0-.459-.093,1.3,1.3,0,1,0,1.3,1.3l.008,0ZM6.033,12.37a.551.551,0,1,1,.551-.551A.551.551,0,0,1,6.033,12.37Zm3.23-.812a.551.551,0,1,1,.551-.551A.551.551,0,0,1,9.263,11.558Z" fill="#020202"/>
      </g>
    </g>
  </g>
</svg>
