<svg xmlns="http://www.w3.org/2000/svg" viewBox="0 0 16 16"><title>file-song</title><g id="Layer_1" data-name="Layer 1"><g id="Layer_5" data-name="Layer 5"><path d="M9.84,0H2.35a.8.8,0,0,0-.8.81V15.24a.8.8,0,0,0,.8.8h11.3a.8.8,0,0,0,.8-.8v-11ZM12.41,4.2H10a.12.12,0,0,1-.12-.12V1.89Zm.69,10.49H2.9V1.39H8.49V4.08a1.46,1.46,0,0,0,.43,1,1.43,1.43,0,0,0,1,.43H13.1Z"/><path d="M10.57,7.25a.64.64,0,0,0-.64-.64L7,7.33A.65.65,0,0,0,6.48,8v2.65A1.34,1.34,0,0,0,6,10.52a1.3,1.3,0,1,0,1.3,1.3.76.76,0,0,0,0-.16l0,0V8.35l2.39-.61V9.8a1.14,1.14,0,0,0-.46-.09,1.3,1.3,0,1,0,1.3,1.3h0ZM6,12.37a.55.55,0,0,1,0-1.1.55.55,0,0,1,0,1.1Zm3.23-.81A.55.55,0,0,1,8.71,11a.55.55,0,0,1,.55-.55.54.54,0,0,1,.55.55A.55.55,0,0,1,9.26,11.56Z"/></g></g></svg>