<svg xmlns="http://www.w3.org/2000/svg" viewBox="0 0 16 16"><title>file-image</title><g id="Layer_1" data-name="Layer 1"><g id="Layer_5" data-name="Layer 5"><path d="M9.845.041H2.35a.8.8,0,0,0-.805.8V15.238a.8.8,0,0,0,.805.8h11.3a.8.8,0,0,0,.8-.8V4.191ZM12.409,4.2,9.957,4.2h0a.118.118,0,0,1-.118-.119l0-2.194Zm.7,10.5H2.9V1.391h5.6L8.488,4.082A1.468,1.468,0,0,0,9.96,5.553l3.145-.009Z"/><path d="M4.2,12.679h7.682V6.73H4.2Zm6.932-5.2v2.948l-.78-.911L9.192,10.876,6.89,8.19,4.954,10.448V7.48ZM4.954,11.6,6.89,9.342l2.217,2.587H4.954Zm4.322.328,1.08-1.259.78.91v.349Z"/><path d="M9.2,9.181a.433.433,0,1,0-.433-.433A.433.433,0,0,0,9.2,9.181Z"/></g></g></svg>