<svg xmlns="http://www.w3.org/2000/svg" viewBox="0 0 16 16"><title>file-text</title><g id="Layer_1" data-name="Layer 1"><g id="Layer_5" data-name="Layer 5"><path d="M7.15,7.21v.52a.3.3,0,0,1-.59,0H6.21v1.5a.28.28,0,0,1,.25.29.28.28,0,0,1-.29.29H5.65a.29.29,0,0,1,0-.58V7.76H5.18a.29.29,0,0,1-.57,0V7.21a.29.29,0,0,1,.58,0H6.58a.28.28,0,0,1,.29-.25A.3.3,0,0,1,7.15,7.21Z"/><path d="M10.82,8.35H8.25a.43.43,0,1,1,0-.85h2.57a.43.43,0,0,1,0,.85Z"/><path d="M10.82,9.83H8.25a.43.43,0,1,1,0-.85h2.57a.43.43,0,0,1,0,.85Z"/><path d="M10.82,11.31H5a.43.43,0,1,1,0-.85h5.84a.43.43,0,0,1,0,.85Z"/><path d="M10.82,12.78H5a.42.42,0,1,1,0-.84h5.84a.42.42,0,0,1,0,.84Z"/><path d="M9.84,0H2.35a.8.8,0,0,0-.8.8V15.2a.8.8,0,0,0,.8.8h11.3a.8.8,0,0,0,.8-.8v-11Zm2.57,4.15H10A.12.12,0,0,1,9.84,4V1.85Zm.69,10.5H2.9V1.35H8.49V4a1.46,1.46,0,0,0,.43,1,1.43,1.43,0,0,0,1,.43H13.1Z"/></g></g></svg>