<svg xmlns="http://www.w3.org/2000/svg" viewBox="0 0 16 16"><defs><style>.cls-1{fill:#020202;}</style></defs><title>file-image</title><g id="Layer_1" data-name="Layer 1"><g id="Layer_5" data-name="Layer 5"><path class="cls-1" d="M9.845.041H2.35a.8.8,0,0,0-.8.8V15.238a.8.8,0,0,0,.8.8h11.3a.8.8,0,0,0,.8-.8V4.191ZM12.409,4.2,9.957,4.2h0a.118.118,0,0,1-.118-.118l0-2.194Zm.7,10.5H2.9V1.391h5.6l0,2.691A1.468,1.468,0,0,0,9.96,5.553L13.1,5.544Z"/><path class="cls-1" d="M4.2,12.679h7.682V6.73H4.2Zm6.932-5.2v2.948l-.78-.91L9.192,10.876,6.89,8.19,4.954,10.448V7.48ZM4.954,11.6,6.89,9.342l2.217,2.587H4.954Zm4.322.328,1.08-1.26.78.911v.349Z"/><circle class="cls-1" cx="9.2" cy="8.748" r="0.433"/></g></g></svg>