<svg xmlns="http://www.w3.org/2000/svg" viewBox="0 0 16 16"><title>file-image</title><g id="Layer_1" data-name="Layer 1"><g id="Layer_5" data-name="Layer 5"><path d="M9.84,0H2.35a.8.8,0,0,0-.8.81V15.24a.8.8,0,0,0,.8.8h11.3a.8.8,0,0,0,.8-.8v-11ZM12.41,4.2H10a.12.12,0,0,1-.12-.12V1.89Zm.69,10.49H2.9V1.39H8.49V4.08a1.46,1.46,0,0,0,.43,1,1.43,1.43,0,0,0,1,.43H13.1Z"/><path d="M4.2,12.68h7.69V6.73H4.2Zm6.94-5.2v2.95l-.78-.91L9.19,10.88,6.89,8.19,5,10.45v-3ZM5,11.6,6.89,9.34l2.22,2.59H5Zm4.33.33,1.08-1.26.78.91v.35Z"/><path d="M9.2,9.18a.43.43,0,0,0,.43-.43.43.43,0,1,0-.86,0A.43.43,0,0,0,9.2,9.18Z"/></g></g></svg>