<svg xmlns="http://www.w3.org/2000/svg" viewBox="0 0 16 16"><title>groups-logo</title><g id="Layer_1" data-name="Layer 1"><path d="M2.22,7.59a.39.39,0,0,0,.19.19v.5a.354.354,0,0,0-.19.19h-.5a.39.39,0,0,0-.19-.19v-.5a.436.436,0,0,0,.19-.19Zm1.65.44c0,1.52-.38,1.9-1.9,1.9S.07,9.55.07,8.03s.38-1.9,1.9-1.9S3.87,6.51,3.87,8.03Zm-1.18.25v-.5a.369.369,0,0,0,.21-.33.353.353,0,0,0-.68-.14h-.5a.359.359,0,1,0-.47.47v.5a.351.351,0,0,0-.22.33.359.359,0,0,0,.69.14h.5a.351.351,0,0,0,.33.22.362.362,0,0,0,.14-.69ZM6.7,7.1V8.915a.837.837,0,0,1-.9.906,1.044,1.044,0,0,1-.67-.243.109.109,0,0,1-.024-.133l.1-.18a.107.107,0,0,1,.069-.058.112.112,0,0,1,.09.022A.689.689,0,0,0,5.8,9.4c.205,0,.449-.084.449-.486V8.851a1.026,1.026,0,0,1-.461.119.966.966,0,0,1-.935-1.012.955.955,0,0,1,.914-1.009.907.907,0,0,1,.59.21l.037-.09c.01-.03.026-.079.09-.079h.11A.115.115,0,0,1,6.7,7.1Zm-.885.28a.536.536,0,0,0-.515.576.564.564,0,0,0,.531.579.752.752,0,0,0,.416-.14V7.632A.537.537,0,0,0,5.816,7.382Zm2.536-.325c-.05-.079-.219-.108-.362-.108a.745.745,0,0,0-.564.254l-.04-.13a.111.111,0,0,0-.1-.083h-.1a.116.116,0,0,0-.112.112V8.813a.114.114,0,0,0,.112.112h.189c.06,0,.152,0,.152-.112V7.619a.523.523,0,0,1,.425-.237.45.45,0,0,1,.162.035.1.1,0,0,0,.08.006.111.111,0,0,0,.064-.062l.1-.2A.1.1,0,0,0,8.352,7.057Zm1.934.9a.986.986,0,1,1-.984-1A1.013,1.013,0,0,1,10.286,7.954ZM9.3,7.382a.546.546,0,0,0-.543.572.543.543,0,1,0,1.082,0A.544.544,0,0,0,9.3,7.382Zm2.776-.392h-.209c-.065,0-.128.009-.128.112V8.244a.446.446,0,0,1-.42.293c-.237,0-.347-.136-.347-.428V7.1a.115.115,0,0,0-.112-.112h-.229a.118.118,0,0,0-.112.112V8.08c0,.415.082.89.726.89a.775.775,0,0,0,.589-.239l.037.1c.016.045.042.092.107.092h.1a.117.117,0,0,0,.116-.112V7.1A.12.12,0,0,0,12.078,6.99Zm2.34.968a.964.964,0,0,1-.931,1.012,1.08,1.08,0,0,1-.461-.115v.827a.11.11,0,0,1-.12.112h-.229a.113.113,0,0,1-.112-.112V7.1a.115.115,0,0,1,.112-.112h.1a.1.1,0,0,1,.1.076l.037.093a.9.9,0,0,1,.585-.21A.955.955,0,0,1,14.418,7.958Zm-.968-.576a.5.5,0,0,0-.432.248v.779a.785.785,0,0,0,.416.128.55.55,0,0,0,.531-.579A.53.53,0,0,0,13.45,7.382Zm1.859.367c-.2-.087-.31-.154-.31-.258,0-.073.068-.146.22-.146a.969.969,0,0,1,.4.092.109.109,0,0,0,.151-.047l.066-.131a.134.134,0,0,0-.049-.167,1.084,1.084,0,0,0-.564-.143c-.448,0-.649.27-.649.538,0,.335.252.5.525.618s.392.2.392.307-.087.162-.227.162a.852.852,0,0,1-.453-.132l-.007,0a.123.123,0,0,0-.1-.014.092.092,0,0,0-.058.048l-.086.176a.1.1,0,0,0,.04.126h0a1.128,1.128,0,0,0,.635.2.62.62,0,0,0,.7-.574C15.932,8.04,15.685,7.909,15.309,7.749Z"/></g></svg>