<svg xmlns="http://www.w3.org/2000/svg" viewBox="0 0 16 16"><title>groups-icon</title><g id="Layer_1" data-name="Layer 1"><path d="M9.86,6.86V8.98a1.492,1.492,0,0,0-.8.8H6.94a1.492,1.492,0,0,0-.8-.8V6.86a1.492,1.492,0,0,0,.8-.8H9.06A1.492,1.492,0,0,0,9.86,6.86Zm6.15,1.06c0,6.41-1.6,8.01-8.01,8.01S-.01,14.33-.01,7.92,1.59-.09,8-.09,16.01,1.51,16.01,7.92ZM11.03,8.98V6.86A1.5,1.5,0,1,0,9.06,4.89H6.94A1.5,1.5,0,1,0,4.97,6.86V8.98a1.5,1.5,0,1,0,1.97,1.97H9.06a1.5,1.5,0,1,0,1.97-1.97Z" fill="#231f20"/></g></svg>