<svg xmlns="http://www.w3.org/2000/svg" viewBox="0 0 16 16"><title>hang-tag</title><g id="Layer_1" data-name="Layer 1"><g id="Layer_5" data-name="Layer 5"><path d="M7.54,15.93a1.29,1.29,0,0,1-.91-.38L.4,9.33a1.32,1.32,0,0,1,0-1.84l7.05-7A1.29,1.29,0,0,1,8.54.08l5.39.85A1.28,1.28,0,0,1,15,2l.85,5.36a1.3,1.3,0,0,1-.36,1.1l-7,7.05A1.29,1.29,0,0,1,7.54,15.93Zm.15-1.44h0ZM1.61,8.41l5.93,5.94,6.83-6.83-.81-5.13L8.43,1.58Zm12.1-6h0Zm-.17-.16h0Z"/><path d="M10.64,7.05A1.83,1.83,0,0,1,9.32,6.5a1.88,1.88,0,0,1,0-2.65,1.93,1.93,0,0,1,2.65,0A1.88,1.88,0,0,1,12,6.5h0A1.87,1.87,0,0,1,10.64,7.05Zm.86-1h0Zm-.86-1.4a.55.55,0,0,0-.38.93.53.53,0,0,0,.77,0h0a.55.55,0,0,0,0-.77A.57.57,0,0,0,10.64,4.63Z"/></g></g></svg>