<svg xmlns="http://www.w3.org/2000/svg" viewBox="0 0 16 16"><title>hang-tag</title><g id="Layer_1" data-name="Layer 1"><g id="Layer_5" data-name="Layer 5"><path d="M7.543,15.93a1.293,1.293,0,0,1-.917-.379L.4,9.327a1.3,1.3,0,0,1,0-1.833L7.446.45a1.312,1.312,0,0,1,1.1-.367l5.39.849a1.3,1.3,0,0,1,1.092,1.1L15.87,7.4A1.3,1.3,0,0,1,15.508,8.5L8.46,15.551A1.293,1.293,0,0,1,7.543,15.93Zm.144-1.44h0Zm-6.08-6.08,5.937,5.936L14.371,7.52l-.81-5.128L8.434,1.583Zm12.1-6h0Zm-.165-.159v0Z"/><path d="M10.643,7.05a1.872,1.872,0,0,1-1.324-3.2,1.918,1.918,0,0,1,2.648,0,1.875,1.875,0,0,1,0,2.647h0A1.866,1.866,0,0,1,10.643,7.05ZM11.5,6.033h0Zm-.854-1.4a.541.541,0,0,0-.385.159.544.544,0,0,0,.77.771h0a.546.546,0,0,0,0-.77A.539.539,0,0,0,10.643,4.634Z"/></g></g></svg>