<svg xmlns="http://www.w3.org/2000/svg" viewBox="0 0 16 16">
  <title>info</title>
  <g id="Layer_1" data-name="Layer 1">
    <path d="M10.054,11.5l-.772.332a.572.572,0,0,1-.751-.613l.822-4.288a.71.71,0,0,0-.7-.8H6.182c-.362,0-.468.192-.468.32s.181.245.745.394.363.511.341.7-.436,2.461-.511,2.919-.575,2.364,1.438,2.45a3.264,3.264,0,0,0,2.478-1A.241.241,0,0,0,10.054,11.5ZM8.5,5.623A1.369,1.369,0,1,0,7.131,4.254,1.369,1.369,0,0,0,8.5,5.623ZM8,.137A7.863,7.863,0,1,0,15.863,8,7.863,7.863,0,0,0,8,.137ZM8,14.665A6.665,6.665,0,1,1,14.665,8,6.673,6.673,0,0,1,8,14.665Z" fill="#010101"/>
  </g>
</svg>
