<svg width="16" height="16" viewBox="0 0 16 16" fill="none" xmlns="http://www.w3.org/2000/svg">
<path d="M12.9653 6.46956H12.9393V5.40928C12.9393 4.09796 12.4186 2.84036 11.4917 1.91312C10.5649 0.985883 9.30778 0.464966 7.99701 0.464966C6.68624 0.464966 5.42915 0.985883 4.5023 1.91312C3.57544 2.84036 3.05474 4.09796 3.05474 5.40928V6.46956H3.02975C2.55213 6.47141 2.09468 6.66238 1.75742 7.00072C1.42016 7.33905 1.23054 7.79722 1.23001 8.27504V13.7295C1.23054 14.2073 1.42016 14.6655 1.75742 15.0038C2.09468 15.3421 2.55213 15.5331 3.02975 15.535H12.9653C13.4429 15.5344 13.9009 15.3447 14.2391 15.0073C14.5773 14.6699 14.7682 14.2123 14.77 13.7345V8.27504C14.7695 7.79636 14.5792 7.33744 14.2408 6.99896C13.9025 6.66048 13.4438 6.47009 12.9653 6.46956ZM4.80448 5.40928C4.80448 4.56222 5.14084 3.74985 5.73955 3.15089C6.33827 2.55192 7.1503 2.21543 7.99701 2.21543C8.84372 2.21543 9.65576 2.55192 10.2545 3.15089C10.8532 3.74985 11.1895 4.56222 11.1895 5.40928V6.46956H4.80448V5.40928ZM13.0203 13.7295C13.0203 13.7441 13.0145 13.7581 13.0042 13.7684C12.9938 13.7787 12.9799 13.7845 12.9653 13.7845L2.97475 13.7295L3.02975 8.22002L13.0203 8.27504V13.7295Z" fill="black"/>
</svg>
