<svg width="16" height="16" viewBox="0 0 16 16" fill="none" xmlns="http://www.w3.org/2000/svg">
<path d="M12.9653 6.46962H12.9393V5.40934C12.9393 4.09803 12.4186 2.84042 11.4917 1.91318C10.5649 0.985944 9.30778 0.465027 7.99701 0.465027C6.68624 0.465027 5.42915 0.985944 4.5023 1.91318C3.57544 2.84042 3.05474 4.09803 3.05474 5.40934V6.46962H3.02975C2.55213 6.47147 2.09468 6.66244 1.75742 7.00078C1.42016 7.33912 1.23054 7.79728 1.23001 8.2751V13.7295C1.23054 14.2074 1.42016 14.6655 1.75742 15.0039C2.09468 15.3422 2.55213 15.5332 3.02975 15.535H12.9653C13.4429 15.5345 13.9009 15.3448 14.2391 15.0074C14.5773 14.67 14.7682 14.2124 14.77 13.7345V8.2751C14.7695 7.79642 14.5792 7.3375 14.2408 6.99902C13.9025 6.66054 13.4438 6.47015 12.9653 6.46962ZM4.80448 5.40934C4.80448 4.56228 5.14084 3.74991 5.73955 3.15095C6.33827 2.55199 7.1503 2.21549 7.99701 2.21549C8.84372 2.21549 9.65576 2.55199 10.2545 3.15095C10.8532 3.74991 11.1895 4.56228 11.1895 5.40934V6.46962H4.80448V5.40934ZM13.0203 13.7295C13.0203 13.7441 13.0145 13.7581 13.0042 13.7684C12.9938 13.7788 12.9799 13.7846 12.9653 13.7846L2.97475 13.7295L3.02975 8.22008L13.0203 8.2751V13.7295Z" fill="black"/>
</svg>
