<svg xmlns="http://www.w3.org/2000/svg" viewBox="0 0 16 16"><defs><style>.cls-1{fill:#231f20;}</style></defs><title>lock-o</title><g id="Layer_1" data-name="Layer 1"><path class="cls-1" d="M12.937,6.983h-.025V5.923a4.943,4.943,0,0,0-9.886,0V6.983H3A1.807,1.807,0,0,0,1.2,8.788v5.453A1.807,1.807,0,0,0,3,16.046h9.936a1.807,1.807,0,0,0,1.805-1.8V8.788A1.807,1.807,0,0,0,12.937,6.983ZM4.775,5.923a3.193,3.193,0,0,1,6.386,0V6.983H4.775Zm8.216,8.318a.055.055,0,0,1-.055.055l-9.991-.055L3,8.733l9.991.055Z"/></g></svg>