<svg width="16" height="16" viewBox="0 0 16 16" fill="none" xmlns="http://www.w3.org/2000/svg">
<path d="M9.703 7.69168H4.159V8.74742H9.703V7.69168Z" fill="black"/>
<path d="M11.832 5.50024H4.159V6.55597H11.832V5.50024Z" fill="black"/>
<path d="M11.832 3.40577H4.159V4.4615H11.832V3.40577Z" fill="black"/>
<path d="M14.852 11.0358C14.9185 11.1908 14.9358 11.3624 14.9015 11.5275C14.8671 11.6925 14.7828 11.8431 14.66 11.9586L10.884 15.5907C10.7176 15.7517 10.4946 15.8411 10.263 15.8396C10.0338 15.8445 9.81207 15.7582 9.64636 15.5999C9.48066 15.4415 9.38451 15.224 9.379 14.9948V11.5957C9.38712 11.3033 9.5108 11.026 9.72297 10.8246C9.93513 10.6232 10.2185 10.514 10.511 10.521H14.045C14.2151 10.5187 14.3821 10.5663 14.5255 10.6578C14.6689 10.7493 14.7824 10.8807 14.852 11.0358Z" fill="black"/>
<path d="M13.806 0.155586H2.19C1.90428 0.147773 1.6271 0.253408 1.41908 0.449381C1.21107 0.645355 1.08915 0.915715 1.08 1.20132V14.7979C1.08889 15.0837 1.21069 15.3543 1.41874 15.5505C1.62678 15.7467 1.90412 15.8524 2.19 15.8446H10.19V14.505H2.5V1.49025H13.5V11.4007H14.92V1.19732C14.9101 0.911617 14.7872 0.641504 14.5784 0.446218C14.3696 0.250932 14.0918 0.146414 13.806 0.155586Z" fill="black"/>
</svg>
