<svg xmlns="http://www.w3.org/2000/svg" viewBox="0 0 16 16"><defs><style>.cls-1{fill:#010101;}</style></defs><title>note-o</title><g id="Layer_1" data-name="Layer 1"><g id="Layer_6" data-name="Layer 6"><rect class="cls-1" x="4.253" y="7.738" width="5.544" height="1.056"/><rect class="cls-1" x="4.253" y="5.546" width="7.673" height="1.056"/><rect class="cls-1" x="4.253" y="3.451" width="7.673" height="1.056"/><path class="cls-1" d="M14.946,11.083a.822.822,0,0,1-.191.923l-3.776,3.633a.889.889,0,0,1-.621.248.866.866,0,0,1-.884-.845v-3.4a1.106,1.106,0,0,1,1.132-1.075h3.534A.871.871,0,0,1,14.946,11.083ZM10.889,13.8l1.941-1.868"/><path class="cls-1" d="M13.9.2H2.284A1.081,1.081,0,0,0,1.174,1.242v13.6a1.081,1.081,0,0,0,1.109,1.047h8v-1.34H2.594V1.535h11v9.913h1.42V1.242A1.081,1.081,0,0,0,13.9.2Z"/></g></g></svg>