<svg xmlns="http://www.w3.org/2000/svg" viewBox="0 0 16 16">
  <title>note-o</title>
  <g id="Layer_1" data-name="Layer 1">
    <g id="Layer_6" data-name="Layer 6">
      <g>
        <rect x="4.253" y="7.738" width="5.544" height="1.056" fill="#010101"/>
        <rect x="4.253" y="5.546" width="7.673" height="1.056" fill="#010101"/>
        <rect x="4.253" y="3.451" width="7.673" height="1.056" fill="#010101"/>
        <path d="M14.946,11.083a.822.822,0,0,1-.192.923l-3.776,3.633a.885.885,0,0,1-.621.249.866.866,0,0,1-.884-.845v-3.4a1.106,1.106,0,0,1,1.132-1.075h3.534A.872.872,0,0,1,14.946,11.083ZM10.889,13.8l1.942-1.867" fill="#010101"/>
        <path d="M13.9.2H2.284a1.081,1.081,0,0,0-1.11,1.046v13.6a1.081,1.081,0,0,0,1.11,1.047h8v-1.34H2.594V1.535h11v9.913h1.42V1.242A1.08,1.08,0,0,0,13.9.2Z" fill="#010101"/>
      </g>
    </g>
  </g>
</svg>
