<svg xmlns="http://www.w3.org/2000/svg" viewBox="0 0 16 16"><title>note-o</title><g id="Layer_1" data-name="Layer 1"><g id="Layer_6" data-name="Layer 6"><rect x="4.25" y="7.74" width="5.54" height="1.06"/><rect x="4.25" y="5.55" width="7.67" height="1.06"/><rect x="4.25" y="3.45" width="7.67" height="1.06"/><path d="M15,11.08a.84.84,0,0,1-.2.93L11,15.64a.9.9,0,0,1-.62.25A.87.87,0,0,1,9.47,15v-3.4a1.12,1.12,0,0,1,1.14-1.08h3.53A.9.9,0,0,1,15,11.08ZM10.89,13.8l1.94-1.87"/><path d="M13.9.2H2.28a1.08,1.08,0,0,0-1.11,1v13.6a1.08,1.08,0,0,0,1.11,1.05h8V14.55H2.59v-13h11v9.91H15V1.24A1.08,1.08,0,0,0,13.9.2Z"/></g></g></svg>