<svg xmlns="http://www.w3.org/2000/svg" viewBox="0 0 16 16"><title>notification-o</title><g id="Layer_1" data-name="Layer 1"><g id="Layer_9" data-name="Layer 9"><path d="M15.323,11.506,13.418,9.234V5.817A5.374,5.374,0,0,0,8.089.41,5.374,5.374,0,0,0,2.761,5.817V9.234L.856,11.505a1.529,1.529,0,0,0-.219,1.634A1.479,1.479,0,0,0,2,14.024H5.78a2.486,2.486,0,0,0,4.619,0h3.782a1.483,1.483,0,0,0,1.361-.885A1.526,1.526,0,0,0,15.323,11.506Zm-1.142,1.062H2l-.061-.113L4,9.99a.786.786,0,0,0,.18-.5V5.817a3.905,3.905,0,1,1,7.81,0V9.488a.788.788,0,0,0,.181.5l2.068,2.465Z"/></g><g id="Layer_6" data-name="Layer 6"><path d="M15.323,11.506,13.418,9.234V5.817A5.374,5.374,0,0,0,8.089.41,5.374,5.374,0,0,0,2.761,5.817V9.234L.856,11.505a1.529,1.529,0,0,0-.219,1.634A1.479,1.479,0,0,0,2,14.024H5.78a2.486,2.486,0,0,0,4.619,0h3.782a1.483,1.483,0,0,0,1.361-.885A1.526,1.526,0,0,0,15.323,11.506Zm-1.142,1.062H2l-.061-.113L4,9.99a.786.786,0,0,0,.18-.5V5.817a3.905,3.905,0,1,1,7.81,0V9.488a.788.788,0,0,0,.181.5l2.068,2.465Z"/></g><g id="Layer_5" data-name="Layer 5"><path d="M15.323,11.506,13.418,9.234V5.817A5.374,5.374,0,0,0,8.089.41,5.374,5.374,0,0,0,2.761,5.817V9.234L.856,11.505a1.529,1.529,0,0,0-.219,1.634A1.479,1.479,0,0,0,2,14.024H5.78a2.486,2.486,0,0,0,4.619,0h3.782a1.483,1.483,0,0,0,1.361-.885A1.526,1.526,0,0,0,15.323,11.506Zm-1.142,1.062H2l-.061-.113L4,9.99a.786.786,0,0,0,.18-.5V5.817a3.905,3.905,0,1,1,7.81,0V9.488a.788.788,0,0,0,.181.5l2.068,2.465Z"/></g></g></svg>