<svg width="16" height="16" viewBox="0 0 16 16" fill="none" xmlns="http://www.w3.org/2000/svg">
<path d="M15.2327 11.506L13.3279 9.23404V5.81704C13.3366 4.39382 12.7806 3.02523 11.7816 2.01156C10.7827 0.997892 9.42244 0.421925 7.99938 0.410034C6.5765 0.422188 5.21654 0.998271 4.2178 2.01191C3.21907 3.02556 2.66312 4.39399 2.67191 5.81704V9.23404L0.767103 11.505C0.578314 11.728 0.457357 12.0004 0.418549 12.29C0.379741 12.5796 0.424707 12.8742 0.548124 13.139C0.664092 13.4035 0.854941 13.6282 1.09713 13.7855C1.33931 13.9428 1.62223 14.0257 1.91099 14.024H5.69061C5.87469 14.4862 6.19316 14.8824 6.60484 15.1616C7.01652 15.4408 7.50248 15.59 7.99988 15.59C8.49728 15.59 8.98324 15.4408 9.39493 15.1616C9.80661 14.8824 10.1251 14.4862 10.3092 14.024H14.0908C14.3791 14.0248 14.6614 13.9415 14.903 13.7843C15.1447 13.6271 15.3354 13.4029 15.4516 13.139C15.5752 12.8744 15.6203 12.5799 15.5815 12.2904C15.5426 12.001 15.4216 11.7287 15.2327 11.506ZM14.0908 12.568H1.91099L1.84999 12.455L3.91079 9.99004C4.02701 9.84932 4.09064 9.67255 4.09077 9.49004V5.81704C4.09077 5.30422 4.19177 4.79643 4.38799 4.32266C4.58422 3.84888 4.87183 3.4184 5.23441 3.05578C5.59698 2.69317 6.02742 2.40553 6.50115 2.20929C6.97488 2.01304 7.48262 1.91203 7.99538 1.91203C8.50814 1.91203 9.01588 2.01304 9.48961 2.20929C9.96334 2.40553 10.3938 2.69317 10.7564 3.05578C11.1189 3.4184 11.4066 3.84888 11.6028 4.32266C11.799 4.79643 11.9 5.30422 11.9 5.81704V9.48804C11.9006 9.67064 11.9645 9.84738 12.081 9.98804L14.1488 12.453L14.0908 12.568Z" fill="black"/>
<path d="M15.2327 11.506L13.3279 9.23404V5.81704C13.3366 4.39382 12.7806 3.02523 11.7816 2.01156C10.7827 0.997892 9.42244 0.421925 7.99938 0.410034C6.5765 0.422188 5.21654 0.998271 4.2178 2.01191C3.21907 3.02556 2.66312 4.39399 2.67191 5.81704V9.23404L0.767103 11.505C0.578314 11.728 0.457357 12.0004 0.418549 12.29C0.379741 12.5796 0.424707 12.8742 0.548124 13.139C0.664092 13.4035 0.854941 13.6282 1.09713 13.7855C1.33931 13.9428 1.62223 14.0257 1.91099 14.024H5.69061C5.87469 14.4862 6.19316 14.8824 6.60484 15.1616C7.01652 15.4408 7.50248 15.59 7.99988 15.59C8.49728 15.59 8.98324 15.4408 9.39493 15.1616C9.80661 14.8824 10.1251 14.4862 10.3092 14.024H14.0908C14.3791 14.0248 14.6614 13.9415 14.903 13.7843C15.1447 13.6271 15.3354 13.4029 15.4516 13.139C15.5752 12.8744 15.6203 12.5799 15.5815 12.2904C15.5426 12.001 15.4216 11.7287 15.2327 11.506ZM14.0908 12.568H1.91099L1.84999 12.455L3.91079 9.99004C4.02701 9.84932 4.09064 9.67255 4.09077 9.49004V5.81704C4.09077 5.30422 4.19177 4.79643 4.38799 4.32266C4.58422 3.84888 4.87183 3.4184 5.23441 3.05578C5.59698 2.69317 6.02742 2.40553 6.50115 2.20929C6.97488 2.01304 7.48262 1.91203 7.99538 1.91203C8.50814 1.91203 9.01588 2.01304 9.48961 2.20929C9.96334 2.40553 10.3938 2.69317 10.7564 3.05578C11.1189 3.4184 11.4066 3.84888 11.6028 4.32266C11.799 4.79643 11.9 5.30422 11.9 5.81704V9.48804C11.9006 9.67064 11.9645 9.84738 12.081 9.98804L14.1488 12.453L14.0908 12.568Z" fill="black"/>
<path d="M15.2327 11.506L13.3279 9.23404V5.81704C13.3366 4.39382 12.7806 3.02523 11.7816 2.01156C10.7827 0.997892 9.42244 0.421925 7.99938 0.410034C6.5765 0.422188 5.21654 0.998271 4.2178 2.01191C3.21907 3.02556 2.66312 4.39399 2.67191 5.81704V9.23404L0.767103 11.505C0.578314 11.728 0.457357 12.0004 0.418549 12.29C0.379741 12.5796 0.424707 12.8742 0.548124 13.139C0.664092 13.4035 0.854941 13.6282 1.09713 13.7855C1.33931 13.9428 1.62223 14.0257 1.91099 14.024H5.69061C5.87469 14.4862 6.19316 14.8824 6.60484 15.1616C7.01652 15.4408 7.50248 15.59 7.99988 15.59C8.49728 15.59 8.98324 15.4408 9.39493 15.1616C9.80661 14.8824 10.1251 14.4862 10.3092 14.024H14.0908C14.3791 14.0248 14.6614 13.9415 14.903 13.7843C15.1447 13.6271 15.3354 13.4029 15.4516 13.139C15.5752 12.8744 15.6203 12.5799 15.5815 12.2904C15.5426 12.001 15.4216 11.7287 15.2327 11.506ZM14.0908 12.568H1.91099L1.84999 12.455L3.91079 9.99004C4.02701 9.84932 4.09064 9.67255 4.09077 9.49004V5.81704C4.09077 5.30422 4.19177 4.79643 4.38799 4.32266C4.58422 3.84888 4.87183 3.4184 5.23441 3.05578C5.59698 2.69317 6.02742 2.40553 6.50115 2.20929C6.97488 2.01304 7.48262 1.91203 7.99538 1.91203C8.50814 1.91203 9.01588 2.01304 9.48961 2.20929C9.96334 2.40553 10.3938 2.69317 10.7564 3.05578C11.1189 3.4184 11.4066 3.84888 11.6028 4.32266C11.799 4.79643 11.9 5.30422 11.9 5.81704V9.48804C11.9006 9.67064 11.9645 9.84738 12.081 9.98804L14.1488 12.453L14.0908 12.568Z" fill="black"/>
</svg>
