<svg width="16" height="16" viewBox="0 0 16 16" fill="none" xmlns="http://www.w3.org/2000/svg">
<path d="M15.2327 11.506L13.3279 9.23398V5.81697C13.3366 4.39376 12.7806 3.02517 11.7816 2.0115C10.7827 0.997831 9.42244 0.421864 7.99938 0.409973C6.5765 0.422127 5.21654 0.99821 4.2178 2.01185C3.21907 3.02549 2.66312 4.39393 2.67191 5.81697V9.23398L0.767103 11.505C0.578314 11.7279 0.457357 12.0003 0.418549 12.2899C0.379741 12.5795 0.424707 12.8742 0.548124 13.139C0.664092 13.4035 0.854941 13.6282 1.09713 13.7855C1.33931 13.9427 1.62223 14.0256 1.91099 14.024H5.69061C5.87469 14.4861 6.19316 14.8824 6.60484 15.1616C7.01652 15.4407 7.50248 15.59 7.99988 15.59C8.49728 15.59 8.98324 15.4407 9.39493 15.1616C9.80661 14.8824 10.1251 14.4861 10.3092 14.024H14.0908C14.3791 14.0247 14.6614 13.9414 14.903 13.7842C15.1447 13.6271 15.3354 13.4028 15.4516 13.139C15.5752 12.8744 15.6203 12.5798 15.5815 12.2904C15.5426 12.0009 15.4216 11.7287 15.2327 11.506Z" fill="black"/>
</svg>
