<svg xmlns="http://www.w3.org/2000/svg" viewBox="0 0 16 16"><title>person-o</title><g id="Layer_1" data-name="Layer 1"><g id="Layer_30" data-name="Layer 30"><path d="M12.593,9.448,10.05,8.267A4.3,4.3,0,0,0,12.176,4.54,4.237,4.237,0,0,0,8,.256,4.238,4.238,0,0,0,3.818,4.54,4.3,4.3,0,0,0,5.945,8.267L3.4,9.448A2.146,2.146,0,0,0,2.177,11.4v3.52a.816.816,0,0,0,.805.827h10.03a.817.817,0,0,0,.806-.827V11.4A2.148,2.148,0,0,0,12.593,9.448ZM8,1.909A2.6,2.6,0,0,1,10.564,4.54a2.568,2.568,0,1,1-5.134,0A2.6,2.6,0,0,1,8,1.909Zm4.258,12.279H3.74V11.566a.486.486,0,0,1,.279-.443L8,9.3l3.979,1.826a.488.488,0,0,1,.279.443Z"/></g></g></svg>