<svg width="16" height="16" viewBox="0 0 16 16" fill="none" xmlns="http://www.w3.org/2000/svg">
<path d="M3.39084 15.68C2.86584 15.6787 2.36283 15.469 1.99234 15.097C1.62186 14.7251 1.4142 14.2213 1.415 13.6963V10.5887C1.41719 10.1065 1.56461 9.63616 1.83804 9.23898C2.11147 8.84179 2.49822 8.53619 2.94788 8.362L5.3307 7.45312L5.01872 7.24115C4.34659 6.78828 3.83764 6.13157 3.56683 5.36772C3.29601 4.60386 3.27764 3.77324 3.51442 2.99817C3.75119 2.22309 4.23061 1.54452 4.88206 1.06238C5.53352 0.580238 6.32258 0.320007 7.13306 0.320007C7.94354 0.320007 8.7326 0.580238 9.38406 1.06238C10.0355 1.54452 10.5149 2.22309 10.7517 2.99817C10.9885 3.77324 10.9701 4.60386 10.6993 5.36772C10.4285 6.13157 9.91953 6.78828 9.2474 7.24115L8.93442 7.45312L11.4512 8.41199C11.5846 8.4622 11.6961 8.55767 11.7662 8.68171C11.8364 8.80575 11.8607 8.95049 11.835 9.09065C11.8092 9.2308 11.7351 9.35747 11.6255 9.44853C11.5159 9.53959 11.3778 9.58924 11.2352 9.58883C11.1625 9.58886 11.0903 9.57564 11.0223 9.54984L7.13356 8.06704L3.37585 9.49884C3.15539 9.58375 2.96569 9.7332 2.83154 9.92764C2.69738 10.1221 2.62502 10.3525 2.6239 10.5887V13.6933C2.6239 13.8969 2.70464 14.0921 2.84841 14.2363C2.99219 14.3804 3.18726 14.4616 3.39084 14.4622H9.00742C9.16426 14.4685 9.31256 14.5353 9.42128 14.6485C9.53001 14.7617 9.59072 14.9126 9.59072 15.0696C9.59072 15.2266 9.53001 15.3774 9.42128 15.4906C9.31256 15.6039 9.16426 15.6706 9.00742 15.677L3.39084 15.68ZM7.13356 1.51393C6.62279 1.51234 6.12303 1.66235 5.69757 1.94495C5.27211 2.22755 4.94007 2.63004 4.74351 3.10145C4.54695 3.57286 4.4947 4.09199 4.59338 4.59311C4.69205 5.09424 4.93722 5.55481 5.29783 5.91652C5.65844 6.27823 6.11828 6.52481 6.61912 6.62504C7.11997 6.72526 7.63929 6.67463 8.11134 6.47954C8.58338 6.28446 8.98692 5.95369 9.27086 5.52914C9.5548 5.10458 9.70636 4.60532 9.70636 4.09458C9.70663 3.41145 9.43591 2.75611 8.95359 2.27231C8.47126 1.78852 7.81673 1.51578 7.13356 1.51393Z" fill="black"/>
<path d="M10.0973 12.6294C9.95148 12.6294 9.81159 12.5715 9.70846 12.4684C9.60532 12.3652 9.54738 12.2253 9.54738 12.0795C9.54738 11.9336 9.60532 11.7938 9.70846 11.6906C9.81159 11.5875 9.95148 11.5296 10.0973 11.5296H14.035C14.1809 11.5296 14.3208 11.5875 14.4239 11.6906C14.5271 11.7938 14.585 11.9336 14.585 12.0795C14.585 12.2253 14.5271 12.3652 14.4239 12.4684C14.3208 12.5715 14.1809 12.6294 14.035 12.6294H10.0973Z" fill="black"/>
</svg>
