<svg xmlns="http://www.w3.org/2000/svg" viewBox="0 0 16 16">
  <g id="Layer_1" data-name="Layer 1">
    <g>
      <path d="M3.393,15.692a1.981,1.981,0,0,1-1.976-1.984V10.6A2.4,2.4,0,0,1,2.95,8.373l2.383-.909-.312-.212a3.784,3.784,0,1,1,4.229,0l-.313.212,2.517.959A.608.608,0,0,1,11.238,9.6h0a.6.6,0,0,1-.213-.039L7.136,8.078,3.378,9.51A1.174,1.174,0,0,0,2.626,10.6v3.105a.769.769,0,0,0,.767.769H9.01a.608.608,0,0,1,0,1.215ZM7.136,1.524A2.581,2.581,0,1,0,9.709,4.105,2.58,2.58,0,0,0,7.136,1.524Z"/>
      <path d="M10.1,12.641a.55.55,0,0,1,0-1.1h3.938a.55.55,0,0,1,0,1.1Z"/>
    </g>
  </g>
</svg>
