<svg width="16" height="16" viewBox="0 0 16 16" fill="none" xmlns="http://www.w3.org/2000/svg">
<path fill-rule="evenodd" clip-rule="evenodd" d="M12.3853 9.97352L10.3067 6.12583C10.7967 5.67197 11.1426 5.08428 11.3015 4.43568C11.4603 3.78708 11.4252 3.10612 11.2004 2.4773C10.9756 1.84849 10.571 1.2995 10.0369 0.898455C9.50278 0.497412 8.86261 0.261969 8.19583 0.221344C7.52905 0.180719 6.86501 0.336699 6.28612 0.669929C5.70722 1.00316 5.23895 1.49897 4.93941 2.09584C4.63987 2.69271 4.52226 3.36436 4.60115 4.02745C4.68004 4.69053 4.95198 5.31587 5.38321 5.82586L3.15553 10.0165C2.46368 10.1289 1.83593 10.4879 1.38836 11.0272C0.940798 11.5664 0.703688 12.2494 0.720874 12.9498C0.738061 13.6503 1.00838 14.3208 1.48185 14.8375C1.95533 15.3541 2.59993 15.6819 3.29646 15.7603C3.993 15.8387 4.69437 15.6623 5.27087 15.2637C5.84738 14.8652 6.26004 14.2715 6.43254 13.5924C6.60504 12.9133 6.52573 12.1947 6.20926 11.5695C5.89279 10.9443 5.36057 10.4548 4.71101 10.1915L6.55256 6.72579C7.30445 7.0921 8.1695 7.15128 8.9643 6.89077L10.8579 10.3995C10.2591 10.7651 9.81284 11.3348 9.60139 12.0035C9.38993 12.6723 9.42758 13.3949 9.70737 14.038C9.98717 14.6812 10.4902 15.2015 11.1237 15.5029C11.7572 15.8044 12.4784 15.8666 13.1542 15.6781C13.83 15.4897 14.4149 15.0632 14.8008 14.4775C15.1867 13.8918 15.3476 13.1863 15.254 12.4913C15.1603 11.7962 14.8183 11.1585 14.291 10.6957C13.7638 10.233 13.0869 9.97647 12.3853 9.97352ZM5.3562 12.8903C5.3562 13.2368 5.25339 13.5756 5.06078 13.8637C4.86816 14.1518 4.59439 14.3763 4.2741 14.5089C3.95381 14.6415 3.60138 14.6761 3.2614 14.6084C2.92141 14.5407 2.60914 14.3738 2.36409 14.1287C2.11903 13.8836 1.9522 13.5713 1.88469 13.2314C1.81718 12.8915 1.85203 12.5393 1.98483 12.2192C2.11763 11.8991 2.34241 11.6256 2.63074 11.4332C2.91908 11.2408 3.25801 11.1382 3.60467 11.1384C3.83477 11.1384 4.06261 11.1837 4.27518 11.2718C4.48775 11.3599 4.68089 11.4889 4.84354 11.6516C5.0062 11.8143 5.1352 12.0074 5.22316 12.22C5.31112 12.4325 5.35633 12.6603 5.3562 12.8903ZM12.3633 14.6531C12.0143 14.6531 11.6731 14.5497 11.3829 14.3558C11.0927 14.1619 10.8665 13.8864 10.733 13.5641C10.5995 13.2417 10.5646 12.887 10.6328 12.5448C10.7009 12.2026 10.8691 11.8883 11.116 11.6417C11.3628 11.3951 11.6773 11.2271 12.0197 11.1592C12.362 11.0913 12.7169 11.1263 13.0393 11.26C13.3617 11.3936 13.6372 11.6199 13.831 11.9101C14.0247 12.2003 14.1281 12.5414 14.1279 12.8903C14.1279 13.1219 14.0822 13.3512 13.9935 13.5651C13.9048 13.7791 13.7748 13.9735 13.611 14.1372C13.4471 14.3009 13.2526 14.4307 13.0385 14.5192C12.8244 14.6078 12.595 14.6533 12.3633 14.6531Z" fill="black"/>
</svg>
