<svg xmlns="http://www.w3.org/2000/svg" viewBox="0 0 16 16">
  <g id="Layer_1" data-name="Layer 1">
    <g id="Layer_5" data-name="Layer 5">
      <path d="M12.4,9.948,10.322,6.1A3.41,3.41,0,1,0,5.4,5.8L3.173,9.991a2.9,2.9,0,1,0,1.555.175L6.569,6.7a3.216,3.216,0,0,0,2.411.165l1.893,3.509A2.906,2.906,0,1,0,12.4,9.948ZM5.373,12.865a1.752,1.752,0,1,1-1.751-1.752A1.751,1.751,0,0,1,5.373,12.865Zm7.005,1.763a1.764,1.764,0,1,1,1.764-1.763A1.763,1.763,0,0,1,12.378,14.628Z" fill-rule="evenodd"/>
    </g>
  </g>
</svg>
