<svg xmlns="http://www.w3.org/2000/svg" viewBox="0 0 16 16">
  <title>search</title>
  <g id="Layer_1" data-name="Layer 1">
    <g id="Layer_36" data-name="Layer 36">
      <path d="M15.606,13.56l-3.8-3.8a6.191,6.191,0,0,0,.9-3.227A6.549,6.549,0,0,0,6.3.129,6.217,6.217,0,0,0,.087,6.346,6.548,6.548,0,0,0,6.5,12.753a6.183,6.183,0,0,0,3.129-.846l3.818,3.817a.955.955,0,0,0,1.352,0l.947-.946C16.115,14.4,15.979,13.934,15.606,13.56ZM2,6.346a4.3,4.3,0,0,1,4.3-4.3,4.637,4.637,0,0,1,4.5,4.5,4.3,4.3,0,0,1-4.3,4.3A4.637,4.637,0,0,1,2,6.346Z" fill="#231f20"/>
    </g>
    <g id="Layer_33" data-name="Layer 33">
      <path d="M15.606,13.56l-3.8-3.8a6.191,6.191,0,0,0,.9-3.227A6.549,6.549,0,0,0,6.3.129,6.217,6.217,0,0,0,.087,6.346,6.548,6.548,0,0,0,6.5,12.753a6.183,6.183,0,0,0,3.129-.846l3.818,3.817a.955.955,0,0,0,1.352,0l.947-.946C16.115,14.4,15.979,13.934,15.606,13.56ZM2,6.346a4.3,4.3,0,0,1,4.3-4.3,4.637,4.637,0,0,1,4.5,4.5,4.3,4.3,0,0,1-4.3,4.3A4.637,4.637,0,0,1,2,6.346Z" fill="#231f20"/>
    </g>
    <g id="Layer_30" data-name="Layer 30">
      <path d="M15.606,13.56l-3.8-3.8a6.191,6.191,0,0,0,.9-3.227A6.549,6.549,0,0,0,6.3.129,6.217,6.217,0,0,0,.087,6.346,6.548,6.548,0,0,0,6.5,12.753a6.183,6.183,0,0,0,3.129-.846l3.818,3.817a.955.955,0,0,0,1.352,0l.947-.946C16.115,14.4,15.979,13.934,15.606,13.56ZM2,6.346a4.3,4.3,0,0,1,4.3-4.3,4.637,4.637,0,0,1,4.5,4.5,4.3,4.3,0,0,1-4.3,4.3A4.637,4.637,0,0,1,2,6.346Z" fill="#231f20"/>
    </g>
    <g id="Layer_27" data-name="Layer 27">
      <path d="M15.606,13.56l-3.8-3.8a6.191,6.191,0,0,0,.9-3.227A6.549,6.549,0,0,0,6.3.129,6.217,6.217,0,0,0,.087,6.346,6.548,6.548,0,0,0,6.5,12.753a6.183,6.183,0,0,0,3.129-.846l3.818,3.817a.955.955,0,0,0,1.352,0l.947-.946C16.115,14.4,15.979,13.934,15.606,13.56ZM2,6.346a4.3,4.3,0,0,1,4.3-4.3,4.637,4.637,0,0,1,4.5,4.5,4.3,4.3,0,0,1-4.3,4.3A4.637,4.637,0,0,1,2,6.346Z" fill="#231f20"/>
    </g>
    <g id="Layer_24" data-name="Layer 24">
      <path d="M15.606,13.56l-3.8-3.8a6.191,6.191,0,0,0,.9-3.227A6.549,6.549,0,0,0,6.3.129,6.217,6.217,0,0,0,.087,6.346,6.548,6.548,0,0,0,6.5,12.753a6.183,6.183,0,0,0,3.129-.846l3.818,3.817a.955.955,0,0,0,1.352,0l.947-.946C16.115,14.4,15.979,13.934,15.606,13.56ZM2,6.346a4.3,4.3,0,0,1,4.3-4.3,4.637,4.637,0,0,1,4.5,4.5,4.3,4.3,0,0,1-4.3,4.3A4.637,4.637,0,0,1,2,6.346Z" fill="#231f20"/>
    </g>
    <g id="Layer_21" data-name="Layer 21">
      <path d="M15.606,13.56l-3.8-3.8a6.191,6.191,0,0,0,.9-3.227A6.549,6.549,0,0,0,6.3.129,6.217,6.217,0,0,0,.087,6.346,6.548,6.548,0,0,0,6.5,12.753a6.183,6.183,0,0,0,3.129-.846l3.818,3.817a.955.955,0,0,0,1.352,0l.947-.946C16.115,14.4,15.979,13.934,15.606,13.56ZM2,6.346a4.3,4.3,0,0,1,4.3-4.3,4.637,4.637,0,0,1,4.5,4.5,4.3,4.3,0,0,1-4.3,4.3A4.637,4.637,0,0,1,2,6.346Z" fill="#231f20"/>
    </g>
    <g id="Layer_18" data-name="Layer 18">
      <path d="M15.606,13.56l-3.8-3.8a6.191,6.191,0,0,0,.9-3.227A6.549,6.549,0,0,0,6.3.129,6.217,6.217,0,0,0,.087,6.346,6.548,6.548,0,0,0,6.5,12.753a6.183,6.183,0,0,0,3.129-.846l3.818,3.817a.955.955,0,0,0,1.352,0l.947-.946C16.115,14.4,15.979,13.934,15.606,13.56ZM2,6.346a4.3,4.3,0,0,1,4.3-4.3,4.637,4.637,0,0,1,4.5,4.5,4.3,4.3,0,0,1-4.3,4.3A4.637,4.637,0,0,1,2,6.346Z" fill="#231f20"/>
    </g>
    <g id="Layer_15" data-name="Layer 15">
      <path d="M15.606,13.56l-3.8-3.8a6.191,6.191,0,0,0,.9-3.227A6.549,6.549,0,0,0,6.3.129,6.217,6.217,0,0,0,.087,6.346,6.548,6.548,0,0,0,6.5,12.753a6.183,6.183,0,0,0,3.129-.846l3.818,3.817a.955.955,0,0,0,1.352,0l.947-.946C16.115,14.4,15.979,13.934,15.606,13.56ZM2,6.346a4.3,4.3,0,0,1,4.3-4.3,4.637,4.637,0,0,1,4.5,4.5,4.3,4.3,0,0,1-4.3,4.3A4.637,4.637,0,0,1,2,6.346Z" fill="#231f20"/>
    </g>
    <g id="Layer_12" data-name="Layer 12">
      <path d="M15.606,13.56l-3.8-3.8a6.191,6.191,0,0,0,.9-3.227A6.549,6.549,0,0,0,6.3.129,6.217,6.217,0,0,0,.087,6.346,6.548,6.548,0,0,0,6.5,12.753a6.183,6.183,0,0,0,3.129-.846l3.818,3.817a.955.955,0,0,0,1.352,0l.947-.946C16.115,14.4,15.979,13.934,15.606,13.56ZM2,6.346a4.3,4.3,0,0,1,4.3-4.3,4.637,4.637,0,0,1,4.5,4.5,4.3,4.3,0,0,1-4.3,4.3A4.637,4.637,0,0,1,2,6.346Z" fill="#231f20"/>
    </g>
    <g id="Layer_9" data-name="Layer 9">
      <path d="M15.606,13.56l-3.8-3.8a6.191,6.191,0,0,0,.9-3.227A6.549,6.549,0,0,0,6.3.129,6.217,6.217,0,0,0,.087,6.346,6.548,6.548,0,0,0,6.5,12.753a6.183,6.183,0,0,0,3.129-.846l3.818,3.817a.955.955,0,0,0,1.352,0l.947-.946C16.115,14.4,15.979,13.934,15.606,13.56ZM2,6.346a4.3,4.3,0,0,1,4.3-4.3,4.637,4.637,0,0,1,4.5,4.5,4.3,4.3,0,0,1-4.3,4.3A4.637,4.637,0,0,1,2,6.346Z" fill="#231f20"/>
    </g>
    <g id="Layer_6" data-name="Layer 6">
      <path d="M15.606,13.56l-3.8-3.8a6.191,6.191,0,0,0,.9-3.227A6.549,6.549,0,0,0,6.3.129,6.217,6.217,0,0,0,.087,6.346,6.548,6.548,0,0,0,6.5,12.753a6.183,6.183,0,0,0,3.129-.846l3.818,3.817a.955.955,0,0,0,1.352,0l.947-.946C16.115,14.4,15.979,13.934,15.606,13.56ZM2,6.346a4.3,4.3,0,0,1,4.3-4.3,4.637,4.637,0,0,1,4.5,4.5,4.3,4.3,0,0,1-4.3,4.3A4.637,4.637,0,0,1,2,6.346Z" fill="#231f20"/>
    </g>
    <g id="Layer_5" data-name="Layer 5">
      <path d="M15.606,13.56l-3.8-3.8a6.191,6.191,0,0,0,.9-3.227A6.549,6.549,0,0,0,6.3.129,6.217,6.217,0,0,0,.087,6.346,6.548,6.548,0,0,0,6.5,12.753a6.183,6.183,0,0,0,3.129-.846l3.818,3.817a.955.955,0,0,0,1.352,0l.947-.946C16.115,14.4,15.979,13.934,15.606,13.56ZM2,6.346a4.3,4.3,0,0,1,4.3-4.3,4.637,4.637,0,0,1,4.5,4.5,4.3,4.3,0,0,1-4.3,4.3A4.637,4.637,0,0,1,2,6.346Z" fill="#231f20"/>
    </g>
  </g>
</svg>
