<svg xmlns="http://www.w3.org/2000/svg" viewBox="0 0 16 16"><defs><style>.cls-1{fill:#231f20;}</style></defs><title>unlock-o</title><g id="Layer_1" data-name="Layer 1"><path class="cls-1" d="M13.063,7.092h-.025v-2.1A4.943,4.943,0,0,0,3.285,3.848l1.7.4a3.193,3.193,0,0,1,6.3.739v2.1H3.127A1.807,1.807,0,0,0,1.322,8.9V14.35a1.807,1.807,0,0,0,1.805,1.806h9.936a1.807,1.807,0,0,0,1.8-1.806V8.9A1.807,1.807,0,0,0,13.063,7.092Zm.055,7.258a.055.055,0,0,1-.055.056L3.072,14.35l.055-5.508,9.991.056Z"/></g></svg>