<svg xmlns="http://www.w3.org/2000/svg" viewBox="0 0 16 16"><defs><style>.cls-1{fill:#010101;}</style></defs><title>checkr-logo</title><g id="Layer_1" data-name="Layer 1"><path class="cls-1" d="M13.353,9.453h-.673l-.757-1.262-.072.072-.216.228v.961H11.07V9.093a1.836,1.836,0,0,1-.637.361.093.093,0,0,0-.036.012,2.022,2.022,0,0,1-.373.048H9.941a1.268,1.268,0,0,1-.925-.4,1.548,1.548,0,0,1-.336-1.009A1.486,1.486,0,0,1,9.015,7.1a1.141,1.141,0,0,1,.913-.4,1.056,1.056,0,0,1,.745.252.725.725,0,0,1,.1.1l-.324.409a.613.613,0,0,0-.493-.216.621.621,0,0,0-.5.24,1.028,1.028,0,0,0-.18.637,1.028,1.028,0,0,0,.18.637A.713.713,0,0,0,9.917,9h.2a1.34,1.34,0,0,0,.961-.721V5.62h.565V7.711l.9-.949h.769l-.973,1.009Z"/><path class="cls-1" d="M8.4,8.107a1.576,1.576,0,0,0-.3-.985,1.03,1.03,0,0,0-.877-.409,1.1,1.1,0,0,0-.889.409,1.475,1.475,0,0,0-.336,1,1.531,1.531,0,0,0,.324,1,1.166,1.166,0,0,0,.925.4h0A1.244,1.244,0,0,0,8.294,9l-.373-.373a.683.683,0,0,1-.276.252.974.974,0,0,1-.409.1.583.583,0,0,1-.469-.192.873.873,0,0,1-.18-.457h1.8V8.107ZM6.636,7.759A.739.739,0,0,1,6.828,7.4a.534.534,0,0,1,.4-.156A.465.465,0,0,1,7.6,7.4a.867.867,0,0,1,.192.361Z"/><path class="cls-1" d="M15.757,7.182l-.445.445a.667.667,0,0,0-.228-.324A.486.486,0,0,0,14.8,7.23a.429.429,0,0,0-.4.24,1.167,1.167,0,0,0-.168.637V9.441h-.565V6.749h.565v.2a1.055,1.055,0,0,1,.721-.252.861.861,0,0,1,.529.156A1.044,1.044,0,0,1,15.757,7.182Z"/><path class="cls-1" d="M5.675,7.626V9.453H5.122V7.687c0-.3-.132-.445-.421-.445a.546.546,0,0,0-.433.216.667.667,0,0,0-.072.1.788.788,0,0,0-.1.252.265.265,0,0,0-.012.1c0,.048-.012.1-.012.144V9.441H3.512V8.708c-.012.024-.036.036-.048.06a2.184,2.184,0,0,1-1.19.7.044.044,0,0,0-.036.012c-.1.012-.18.024-.228.024h-.12a1.514,1.514,0,0,1-1.2-.529,2.561,2.561,0,0,1,0-2.884A1.5,1.5,0,0,1,1.865,5.56,1.6,1.6,0,0,1,2.875,5.9a.954.954,0,0,1,.168.2l-.373.469a.813.813,0,0,0-.805-.445.971.971,0,0,0-.745.385A1.783,1.783,0,0,0,.844,7.518a1.839,1.839,0,0,0,.276,1,.994.994,0,0,0,.805.373,2.788,2.788,0,0,0,.288-.024A2.047,2.047,0,0,0,3.464,7.7a.427.427,0,0,0,.048-.108V5.62h.565V6.966A1.89,1.89,0,0,1,4.3,6.821a1.182,1.182,0,0,1,.481-.12.885.885,0,0,1,.661.228A.938.938,0,0,1,5.675,7.626Z"/></g></svg>