<?xml version="1.0" encoding="utf-8"?>
<!-- Generator: Adobe Illustrator 22.0.1, SVG Export Plug-In . SVG Version: 6.00 Build 0)  -->
<svg version="1.1" id="Layer_1" xmlns="http://www.w3.org/2000/svg" xmlns:xlink="http://www.w3.org/1999/xlink" x="0px" y="0px"
	 viewBox="0 0 16 16" style="enable-background:new 0 0 16 16;" xml:space="preserve">
<g>
	<g>
		<path d="M14.3,4.5H1.7c-0.4,0-0.8-0.4-0.8-0.8V2.8C0.9,2.4,1.2,2,1.7,2h12.7c0.4,0,0.8,0.4,0.8,0.8v0.9
			C15.1,4.1,14.8,4.5,14.3,4.5z"/>
	</g>
	<g>
		<path d="M14.3,9.2H1.7c-0.4,0-0.8-0.4-0.8-0.8V7.6c0-0.4,0.4-0.8,0.8-0.8h12.7c0.4,0,0.8,0.4,0.8,0.8v0.9
			C15.1,8.9,14.8,9.2,14.3,9.2z"/>
	</g>
	<g>
		<path d="M11.3,14H1.7c-0.4,0-0.8-0.4-0.8-0.8v-0.9c0-0.4,0.4-0.8,0.8-0.8h9.7c0.4,0,0.8,0.4,0.8,0.8v0.9
			C12.1,13.6,11.8,14,11.3,14z"/>
	</g>
</g>
</svg>
