<?xml version="1.0" encoding="utf-8"?>
<!-- Generator: Adobe Illustrator 22.0.1, SVG Export Plug-In . SVG Version: 6.00 Build 0)  -->
<svg version="1.1" id="Layer_1" xmlns="http://www.w3.org/2000/svg" xmlns:xlink="http://www.w3.org/1999/xlink" x="0px" y="0px"
	 viewBox="0 0 16 16" style="enable-background:new 0 0 16 16;" xml:space="preserve">
<g>
	<g>
		<path d="M3.7,9.3H1c-0.4,0-0.8-0.4-0.8-0.8V7.6c0-0.4,0.4-0.8,0.8-0.8h2.7c0.4,0,0.8,0.4,0.8,0.8v0.9C4.5,8.9,4.2,9.3,3.7,9.3z"/>
	</g>
	<g>
		<path d="M9.4,9.3H6.7c-0.4,0-0.8-0.4-0.8-0.8V7.6c0-0.4,0.4-0.8,0.8-0.8h2.7c0.4,0,0.8,0.4,0.8,0.8v0.9C10.2,8.9,9.8,9.3,9.4,9.3z
			"/>
	</g>
	<g>
		<path d="M15,9.3h-2.7c-0.4,0-0.8-0.4-0.8-0.8V7.6c0-0.4,0.4-0.8,0.8-0.8H15c0.4,0,0.8,0.4,0.8,0.8v0.9C15.8,8.9,15.5,9.3,15,9.3z"
			/>
	</g>
</g>
</svg>
