<?xml version="1.0" encoding="utf-8"?>
<!-- Generator: Adobe Illustrator 22.0.1, SVG Export Plug-In . SVG Version: 6.00 Build 0)  -->
<svg version="1.1" id="Layer_1" xmlns="http://www.w3.org/2000/svg" xmlns:xlink="http://www.w3.org/1999/xlink" x="0px" y="0px"
	 viewBox="0 0 16 16" style="enable-background:new 0 0 16 16;" xml:space="preserve">
<style type="text/css">
	.st0{fill:#231F20;}
</style>
<g>
	<path class="st0" d="M1.8,6L1.3,6.2c-0.1,0-0.2,0-0.3,0c-0.3,0-0.6-0.3-0.6-0.6c0-0.3,0.2-0.5,0.5-0.6l1-0.3
		c0.3-0.1,0.5-0.1,0.7-0.1h0c0.4,0,0.7,0.3,0.7,0.7v5.4c0,0.4-0.3,0.7-0.7,0.7c-0.4,0-0.7-0.3-0.7-0.7V6z"/>
	<path class="st0" d="M5,9.9l1.9-1.6c0.8-0.7,1.2-1.1,1.2-1.6c0-0.6-0.4-0.9-0.9-0.9C6.7,5.9,6.4,6,6.1,6.4C6,6.5,5.8,6.7,5.6,6.7
		C5.2,6.7,4.9,6.4,4.9,6c0-0.2,0.1-0.3,0.2-0.5c0.5-0.6,1.2-1,2.2-1c1.4,0,2.3,0.8,2.3,2.1v0c0,1.1-0.6,1.7-1.8,2.6l-1.1,0.8h2.4
		c0.4,0,0.6,0.3,0.6,0.6s-0.3,0.6-0.6,0.6H5.4c-0.5,0-0.8-0.3-0.8-0.7C4.6,10.4,4.7,10.1,5,9.9z"/>
	<path class="st0" d="M10.9,10.7c-0.1-0.1-0.3-0.3-0.3-0.5c0-0.4,0.3-0.7,0.7-0.7c0.2,0,0.4,0.1,0.5,0.2c0.4,0.3,0.8,0.5,1.3,0.5
		c0.6,0,1-0.3,1-0.8v0c0-0.5-0.5-0.9-1.3-0.9h-0.2c-0.3,0-0.6-0.3-0.6-0.6c0-0.2,0.1-0.4,0.3-0.6l1.3-1.3h-2.1
		c-0.3,0-0.6-0.3-0.6-0.6c0-0.3,0.3-0.6,0.6-0.6h3.3c0.4,0,0.8,0.3,0.8,0.7c0,0.4-0.2,0.6-0.4,0.8l-1.3,1.3c0.9,0.2,1.8,0.6,1.8,1.9
		v0c0,1.3-0.9,2.2-2.4,2.2C12.2,11.5,11.5,11.2,10.9,10.7z"/>
</g>
</svg>
