<svg xmlns="http://www.w3.org/2000/svg" viewBox="0 0 16 16"><defs><style>.cls-1{fill:#231f20;}</style></defs><title>phone-outline</title><g id="Layer_1" data-name="Layer 1"><path class="cls-1" d="M12.916.015H3.745a.99.99,0,0,0-.986.993V14.917a.99.99,0,0,0,.986.994h9.171a.99.99,0,0,0,.986-.994V1.008A.99.99,0,0,0,12.916.015Zm-.754,13.909a.228.228,0,0,1-.232.223h-7.2a.228.228,0,0,1-.232-.223V2a.228.228,0,0,1,.232-.223h7.2A.228.228,0,0,1,12.162,2ZM8.432,11.111A1.025,1.025,0,1,0,9.5,12.135,1.045,1.045,0,0,0,8.432,11.111Z"/></g></svg>