<svg xmlns="http://www.w3.org/2000/svg" viewBox="0 0 16 16"><defs><style>.cls-1{fill:#231f20;}</style></defs><title>workflows</title><g id="Layer_1" data-name="Layer 1"><rect class="cls-1" x="7.505" y="3.947" width="8.406" height="2.01" rx="0.658" ry="0.658"/><rect class="cls-1" x="7.505" y="10.534" width="8.406" height="2.01" rx="0.658" ry="0.658"/><path class="cls-1" d="M1.93,6.927.172,5.3a.474.474,0,0,1-.026-.67L.7,4.037a.474.474,0,0,1,.67-.026l.986.912L4.627,2.606A.474.474,0,0,1,5.3,2.6l.578.568a.474.474,0,0,1,.006.671L2.87,6.9A.675.675,0,0,1,1.93,6.927Z"/><path class="cls-1" d="M1.93,13.387.172,11.762a.474.474,0,0,1-.026-.67L.7,10.5a.474.474,0,0,1,.67-.026l.986.912L4.627,9.065A.474.474,0,0,1,5.3,9.059l.578.568a.474.474,0,0,1,.006.671L2.87,13.364A.675.675,0,0,1,1.93,13.387Z"/></g></svg>