<svg width="24" height="24" viewBox="0 0 24 24" fill="none" xmlns="http://www.w3.org/2000/svg">
<path d="M18.7 14.9L16.9 12.8V9.7C16.9 7.1 14.7 5 12 5C9.30002 5 7.10002 7.1 7.10002 9.7V12.8L5.30002 14.9C5.00002 15.3 4.90002 15.8 5.10002 16.2C5.30002 16.6 5.80002 16.9 6.30002 16.9H9.90002C10.2 17.7 11 18.3 12 18.3C13 18.3 13.8 17.7 14.1 16.9H17.7C18.2 16.9 18.7 16.6 18.9 16.2C19.1 15.8 19 15.2 18.7 14.9ZM18 15.8C18 15.8 17.9 16 17.8 16H6.30002C6.10002 16 6.10002 15.9 6.10002 15.8C6.10002 15.8 6.00002 15.6 6.10002 15.5L8.00002 13.3C8.10002 13.2 8.10002 13.1 8.10002 13V9.7C8.10002 7.7 9.90002 6 12 6C14.1 6 15.9 7.7 15.9 9.7V13C15.9 13.1 15.9 13.2 16 13.3L17.9 15.5C18 15.6 18 15.7 18 15.8Z" fill="black"/>
</svg>
