<svg width="24" height="24" viewBox="0 0 24 24" fill="none" xmlns="http://www.w3.org/2000/svg">
<path d="M11.7 15.4L14.9 12C14.9 11.9615 14.9 11.9378 14.8886 11.9289C14.8703 11.9149 14.8229 11.9385 14.7 12L13.8 11H13.7L11.5 13.3H11.4L10.2 12H10.1L9.20001 12.9V13L11.6 15.4H11.7Z" fill="black"/>
<path fill-rule="evenodd" clip-rule="evenodd" d="M16.6 5.6H17.4C18.3 5.6 19 6.3 19.1 7.1V18C19.1 18.9 18.4 19.6 17.5 19.6H6.6C5.7 19.6 5 18.9 5 18V7.1C5 6.3 5.7 5.6 6.6 5.6H7.3V4H8.9V5.6H15V4H16.6V5.6ZM6.6 18H17.5V9.4H6.6V18Z" fill="black"/>
</svg>
