<svg width="24" height="24" viewBox="0 0 24 24" fill="none" xmlns="http://www.w3.org/2000/svg">
<path d="M12.1326 2C8.73901 2 5.98796 4.75104 5.98796 8.14462V10.6748C5.98796 11.8725 5.01701 12.8435 3.81927 12.8435C3.42003 12.8435 3.09637 13.1671 3.09637 13.5664V16.4579C3.09637 16.8572 3.42003 17.1808 3.81927 17.1808H20.4459C20.8451 17.1808 21.1688 16.8572 21.1688 16.4579V13.5664C21.1688 13.1671 20.8451 12.8435 20.4459 12.8435C19.2482 12.8435 18.2772 11.8725 18.2772 10.6748V8.14462C18.2772 4.75104 15.5262 2 12.1326 2Z" fill="black"/>
<path fill-rule="evenodd" clip-rule="evenodd" d="M12.1326 4C9.84358 4 7.98796 5.85561 7.98796 8.14462V10.6748C7.98796 12.5316 6.77396 14.1049 5.09637 14.6442V15.1808H19.1688V14.6442C17.4912 14.1049 16.2772 12.5316 16.2772 10.6748V8.14462C16.2772 5.85561 14.4216 4 12.1326 4ZM5.98796 8.14462C5.98796 4.75104 8.73901 2 12.1326 2C15.5262 2 18.2772 4.75104 18.2772 8.14462V10.6748C18.2772 11.8725 19.2482 12.8435 20.4459 12.8435C20.8451 12.8435 21.1688 13.1671 21.1688 13.5664V16.4579C21.1688 16.8572 20.8451 17.1808 20.4459 17.1808H3.81927C3.42003 17.1808 3.09637 16.8572 3.09637 16.4579V13.5664C3.09637 13.1671 3.42003 12.8435 3.81927 12.8435C5.01701 12.8435 5.98796 11.8725 5.98796 10.6748V8.14462Z" fill="black"/>
<path fill-rule="evenodd" clip-rule="evenodd" d="M15.1217 19.2482C15.5122 19.6388 15.5122 20.2719 15.1217 20.6624C13.6019 22.1822 11.1379 22.1822 9.61815 20.6624C9.22763 20.2719 9.22763 19.6388 9.61815 19.2482C10.0087 18.8577 10.6418 18.8577 11.0324 19.2482C11.7711 19.9869 12.9688 19.9869 13.7075 19.2482C14.098 18.8577 14.7312 18.8577 15.1217 19.2482Z" fill="black"/>
</svg>
