<svg width="24" height="24" viewBox="0 0 24 24" fill="none" xmlns="http://www.w3.org/2000/svg">
<path fill-rule="evenodd" clip-rule="evenodd" d="M12.1326 4.18683C9.90699 4.18683 8.10277 5.99105 8.10277 8.21667V10.6995C8.10277 12.5287 6.91305 14.0801 5.2652 14.622V15.0841H19V14.622C17.3522 14.0801 16.1624 12.5287 16.1624 10.6995V8.21667C16.1624 5.99105 14.3582 4.18683 12.1326 4.18683ZM6.10277 8.21667C6.10277 4.88648 8.80242 2.18683 12.1326 2.18683C15.4628 2.18683 18.1624 4.88648 18.1624 8.21667V10.6995C18.1624 11.8749 19.1153 12.8277 20.2906 12.8277C20.6824 12.8277 21 13.1453 21 13.5371V16.3747C21 16.7665 20.6824 17.0841 20.2906 17.0841H3.97459C3.5828 17.0841 3.2652 16.7665 3.2652 16.3747V13.5371C3.2652 13.1453 3.5828 12.8277 3.97459 12.8277C5.14995 12.8277 6.10277 11.8749 6.10277 10.6995V8.21667Z" fill="black"/>
<path fill-rule="evenodd" clip-rule="evenodd" d="M15.0791 19.0996C15.4696 19.4902 15.4696 20.1233 15.0791 20.5139C13.5804 22.0125 11.1506 22.0125 9.65193 20.5139C9.26141 20.1233 9.26141 19.4902 9.65193 19.0996C10.0425 18.7091 10.6756 18.7091 11.0661 19.0996C11.7838 19.8173 12.9472 19.8173 13.6649 19.0996C14.0554 18.7091 14.6886 18.7091 15.0791 19.0996Z" fill="black"/>
</svg>
