<svg width="24" height="24" viewBox="0 0 24 24" fill="none" xmlns="http://www.w3.org/2000/svg">
<path d="M20.9999 17.2855C21.5262 19.1468 20.344 21.1714 18.3593 21.8076C16.3746 22.4438 14.339 21.4507 13.8126 19.5895C13.2863 17.7283 14.4685 15.7037 16.4532 15.0674C18.4379 14.4312 20.4735 15.4243 20.9999 17.2855Z" fill="black"/>
<path d="M9.31236 17.2855C9.8387 19.1468 8.65647 21.1714 6.67178 21.8076C4.68708 22.4438 2.65148 21.4507 2.12514 19.5895C1.5988 17.7283 2.78103 15.7037 4.76572 15.0674C6.75042 14.4312 8.78602 15.4243 9.31236 17.2855Z" fill="black"/>
<path fill-rule="evenodd" clip-rule="evenodd" d="M18.6642 2.26372C19.9035 2.01188 21.0625 2.95905 21.0625 4.22366V18.4375H19.0625V4.22366L9.375 6.19224V18.4375H7.375V6.19224C7.375 5.2412 8.04473 4.42169 8.97672 4.2323L18.6642 2.26372Z" fill="black"/>
</svg>
