<svg width="24" height="24" viewBox="0 0 24 24" fill="none" xmlns="http://www.w3.org/2000/svg">
<path fill-rule="evenodd" clip-rule="evenodd" d="M4 4V20H20V4H4ZM3 2C2.44772 2 2 2.44772 2 3V21C2 21.5523 2.44772 22 3 22H21C21.5523 22 22 21.5523 22 21V3C22 2.44772 21.5523 2 21 2H3Z" fill="black"/>
<path d="M15.6944 11.567C16.0278 11.7594 16.0278 12.2406 15.6944 12.433L10.5278 15.416C10.1944 15.6084 9.77778 15.3679 9.77778 14.983L9.77778 9.01702C9.77778 8.63212 10.1944 8.39156 10.5278 8.58401L15.6944 11.567Z" fill="black"/>
</svg>
