<svg id="e5906a21-1968-4b5a-9a15-aa024b45833c" data-name="Layer 1" xmlns="http://www.w3.org/2000/svg" viewBox="0 0 32 32"><title>people-app</title><path d="M19.861,16.754a2.145,2.145,0,1,0-2.144-2.145A2.145,2.145,0,0,0,19.861,16.754Z" fill-rule="evenodd"/><circle cx="13.289" cy="13.613" r="2.86"/><path d="M26.973,2H5.027A3.027,3.027,0,0,0,2,5.027V26.973A3.027,3.027,0,0,0,5.027,30H26.973A3.027,3.027,0,0,0,30,26.973V5.027A3.027,3.027,0,0,0,26.973,2Zm0,24.216a.757.757,0,0,1-.757.757H5.784a.757.757,0,0,1-.757-.757V5.784a.757.757,0,0,1,.757-.757h4.54V6.544a.753.753,0,0,0,.753.753h9.846a.753.753,0,0,0,.753-.753V5.027h4.54a.757.757,0,0,1,.757.757Z" fill-rule="evenodd"/><path d="M15.372,17.892H11.331a2.52,2.52,0,0,0-2.52,2.52v2.02h9.081v-2.02A2.52,2.52,0,0,0,15.372,17.892Z" fill-rule="evenodd"/><path d="M21.509,17.892H18.815a1.663,1.663,0,0,0-1.01.346,3.251,3.251,0,0,1,.844,2.174v.507h4.54V19.572A1.68,1.68,0,0,0,21.509,17.892Z" fill-rule="evenodd"/></svg>