<svg id="Layer_1" data-name="Layer 1" xmlns="http://www.w3.org/2000/svg" viewBox="0 0 32 32"><defs><style>.cls-1{fill:#333132;fill-rule:evenodd;}</style></defs><title>registrations-app</title><polygon class="cls-1" points="20.52 13.131 17.843 10.706 16.061 12.651 18.719 15.11 20.52 13.131"/><path class="cls-1" d="M15.507,13.256,10.33,18.907a2.029,2.029,0,0,0-.4.86l-.36,2.666,2.621-.578a2,2,0,0,0,.819-.473l5.159-5.666Z"/><polygon class="cls-1" points="14.498 22.172 22.159 22.172 22.159 20.659 15.875 20.659 14.498 22.172"/><path class="cls-1" d="M26.973,2H5.027A3.027,3.027,0,0,0,2,5.027V26.973A3.027,3.027,0,0,0,5.027,30H26.973A3.027,3.027,0,0,0,30,26.973V5.027A3.027,3.027,0,0,0,26.973,2Zm0,24.216a.757.757,0,0,1-.757.757H5.784a.757.757,0,0,1-.757-.757V5.784a.757.757,0,0,1,.757-.757h4.541V6.544a.753.753,0,0,0,.753.753h9.845a.753.753,0,0,0,.753-.753V5.027h4.541a.757.757,0,0,1,.757.757Z"/></svg>