<svg xmlns="http://www.w3.org/2000/svg" viewBox="0 0 16 16"><title>alert-exclamation-o</title><g id="Layer_1" data-name="Layer 1"><path d="M8.67,5H7.33a.26.26,0,0,0-.2.09.3.3,0,0,0-.08.2l.1,3.88a.29.29,0,0,0,.08.2.26.26,0,0,0,.2.09H8.55a.27.27,0,0,0,.2-.09.29.29,0,0,0,.08-.2l.12-3.88a.29.29,0,0,0-.09-.2A.26.26,0,0,0,8.67,5Zm0,5.25H7.38a.27.27,0,0,0-.2.08.3.3,0,0,0-.09.22v1.22a.28.28,0,0,0,.28.29H8.62c.19,0,.28-.1.27-.29V10.6a.33.33,0,0,0-.07-.22A.24.24,0,0,0,8.62,10.29Zm7.27,2.57a2,2,0,0,0-.18-.4L9.29,1A2.4,2.4,0,0,0,8.85.39,1.27,1.27,0,0,0,7.13.4,2.39,2.39,0,0,0,6.69,1L.32,12.42a1.77,1.77,0,0,0-.22.46,1.81,1.81,0,0,0-.08.52,1.25,1.25,0,0,0,.61,1.14,1.88,1.88,0,0,0,1,.26H14.41a1.88,1.88,0,0,0,1-.26A1.25,1.25,0,0,0,16,13.39,1.64,1.64,0,0,0,15.89,12.85Zm-1.1.63a.75.75,0,0,1-.39.11H1.59a.51.51,0,0,1-.41-.19.53.53,0,0,1,0-.15.74.74,0,0,1,.09-.18l6.4-11.5a1.17,1.17,0,0,1,.22-.28.1.1,0,0,1,.08,0l.08,0a1.24,1.24,0,0,1,.22.28l6.42,11.52a.91.91,0,0,1,.08.18A.44.44,0,0,1,14.79,13.48Z"/></g></svg>