<svg xmlns="http://www.w3.org/2000/svg" viewBox="0 0 16 16"><defs><style>.cls-1{fill:#231f20;}</style></defs><title>arrows-merging</title><g id="Layer_1" data-name="Layer 1"><path class="cls-1" d="M11.71,9H7.39A6.49,6.49,0,0,1,.91,2.52V1.16a1,1,0,1,1,2,0V2.52A4.49,4.49,0,0,0,7.39,7h4.32a1,1,0,0,1,0,2Z"/><path class="cls-1" d="M1.91,15.84a1,1,0,0,1-1-1V13.48A6.49,6.49,0,0,1,7.39,7h5a1,1,0,0,1,0,2h-5a4.49,4.49,0,0,0-4.48,4.48v1.36A1,1,0,0,1,1.91,15.84Z"/><path class="cls-1" d="M10.23,13.06a1,1,0,0,1-.71-1.71L12.88,8,9.52,4.64a1,1,0,1,1,1.41-1.41L15,7.29a1,1,0,0,1,0,1.41l-4.06,4.06A1,1,0,0,1,10.23,13.06Z"/></g></svg>