<svg xmlns="http://www.w3.org/2000/svg" width="16" height="16" viewBox="0 0 16 16" class="symbol symbol-categories" aria-labelledby="title" role="img"><title id="title">categories icon</title><g data-name="Layer 1"><path d="M1.47 1.76a1.37 1.37 0 1 0 1.37 1.37 1.37 1.37 0 0 0-1.37-1.37zm0 4.79a1.37 1.37 0 1 0 1.37 1.37 1.37 1.37 0 0 0-1.37-1.37zm0 4.79a1.37 1.37 0 1 0 1.37 1.37 1.37 1.37 0 0 0-1.37-1.36zM4.9 13.4h11V12h-11zm0-4.79h11V7.24h-11zm0-6.16v1.36h11V2.44z" fill-rule="evenodd" data-name="Layer 33" role="presentation"/></g></svg>