<svg xmlns="http://www.w3.org/2000/svg" viewBox="0 0 16 16"><defs><style>.cls-1{fill-rule:evenodd;}</style></defs><title>dots-outline</title><g id="Layer_1" data-name="Layer 1"><path d="M8,2A6,6,0,1,1,2.11,8,5.95,5.95,0,0,1,8,2M8,.46A7.54,7.54,0,1,0,15.53,8,7.52,7.52,0,0,0,8,.46Z"/><path class="cls-1" d="M4.82,7A1.08,1.08,0,1,1,3.74,8.08,1.08,1.08,0,0,1,4.82,7Z"/><path class="cls-1" d="M8,7A1.08,1.08,0,1,1,7,8.08,1.08,1.08,0,0,1,8,7Z"/><path class="cls-1" d="M11.24,7a1.08,1.08,0,1,1-1.08,1.08A1.08,1.08,0,0,1,11.24,7Z"/></g></svg>