<svg xmlns="http://www.w3.org/2000/svg" viewBox="0 0 16 16"><defs><style>.cls-1{fill:#020202;}</style></defs><title>external-link</title><g id="Layer_1" data-name="Layer 1"><path class="cls-1" d="M12.43,7.74v6.11H2.22V3.38H8.09c.17,0,0-.23,0-.23L6.35,1.37H1.9A1.68,1.68,0,0,0,.22,3.06V14.17A1.68,1.68,0,0,0,1.9,15.85H12.75a1.68,1.68,0,0,0,1.68-1.68V9.46L12.61,7.63S12.43,7.58,12.43,7.74Z"/><path class="cls-1" d="M15.14.15H9.26A.5.5,0,0,0,8.9,1l2,2L6,8A1.23,1.23,0,0,0,7.74,9.72l4.94-4.94L14.92,7a.5.5,0,0,0,.86-.36V.8A.65.65,0,0,0,15.14.15Z"/></g></svg>