<svg xmlns="http://www.w3.org/2000/svg" viewBox="0 0 16 16"><defs><style>.cls-1{fill:#231f20;}</style></defs><title>eye</title><g id="Layer_1" data-name="Layer 1"><path class="cls-1" d="M15.79,7.86c-.09-.22-2.26-5.48-7.72-5.48S.26,7.61.16,7.83a.88.88,0,0,0,0,.71C.26,8.76,2.62,14,8.07,14s7.63-5.25,7.72-5.48A.88.88,0,0,0,15.79,7.86ZM8.07,12.24c-3.62,0-5.56-3-6.13-4.05.57-1.05,2.51-4.05,6.13-4.05s5.44,3,5.95,4.05C13.51,9.21,11.69,12.24,8.07,12.24Z"/><path class="cls-1" d="M8,5.06a3.12,3.12,0,1,0,3.12,3.12A3.13,3.13,0,0,0,8,5.06Zm0,4.5A1.37,1.37,0,1,1,9.34,8.19,1.37,1.37,0,0,1,8,9.56Z"/></g></svg>