<svg xmlns="http://www.w3.org/2000/svg" viewBox="0 0 16 16"><defs><style>.cls-1{fill:#020202;}</style></defs><title>file-song</title><g id="Layer_1" data-name="Layer 1"><g id="Layer_5" data-name="Layer 5"><path class="cls-1" d="M9.84,0H2.35a.8.8,0,0,0-.8.8V15.24a.8.8,0,0,0,.8.8h11.3a.8.8,0,0,0,.8-.8v-11ZM12.41,4.2H10a.12.12,0,0,1-.12-.12V1.89Zm.7,10.5H2.9V1.39h5.6V4.08A1.47,1.47,0,0,0,10,5.55H13.1Z"/><path class="cls-1" d="M10.57,7.25a.65.65,0,0,0-.64-.65L7,7.33A.64.64,0,0,0,6.48,8v2.65A1.28,1.28,0,0,0,6,10.52a1.3,1.3,0,1,0,1.3,1.3,1.22,1.22,0,0,0,0-.16l0,0V8.35l2.39-.61V9.8a1.28,1.28,0,0,0-.46-.09,1.3,1.3,0,1,0,1.3,1.3h0ZM6,12.37a.55.55,0,1,1,.55-.55A.55.55,0,0,1,6,12.37Zm3.23-.81A.55.55,0,1,1,9.81,11,.55.55,0,0,1,9.26,11.56Z"/></g></g></svg>