<svg xmlns="http://www.w3.org/2000/svg" viewBox="0 0 16 16"><defs><style>.cls-1{fill:#020202;}</style></defs><title>file-image</title><g id="Layer_1" data-name="Layer 1"><g id="Layer_5" data-name="Layer 5"><path class="cls-1" d="M9.84,0H2.35a.8.8,0,0,0-.8.8V15.24a.8.8,0,0,0,.8.8h11.3a.8.8,0,0,0,.8-.8v-11ZM12.41,4.2H10a.12.12,0,0,1-.12-.12V1.89Zm.7,10.5H2.9V1.39h5.6V4.08A1.47,1.47,0,0,0,10,5.55H13.1Z"/><path class="cls-1" d="M4.2,12.68h7.68V6.73H4.2Zm6.93-5.2v2.95l-.78-.91L9.19,10.88,6.89,8.19,5,10.45v-3ZM5,11.6,6.89,9.34l2.22,2.59H5Zm4.32.33,1.08-1.26.78.91v.35Z"/><circle class="cls-1" cx="9.2" cy="8.75" r="0.43"/></g></g></svg>