<svg xmlns="http://www.w3.org/2000/svg" viewBox="0 0 16 16"><defs><style>.cls-1{fill-rule:evenodd;}</style></defs><title>groups</title><g id="Layer_1" data-name="Layer 1"><g id="Layer_39" data-name="Layer 39"><path class="cls-1" d="M13.16,9.14V6.82A3.33,3.33,0,1,0,9.21,2.91H6.74A3.33,3.33,0,1,0,2.92,6.84V9.15A3.33,3.33,0,1,0,6.75,13H9.21a3.33,3.33,0,1,0,3.95-3.86Zm-.71-7.57a2,2,0,1,1-2,2A2,2,0,0,1,12.44,1.57Zm-11,2a2,2,0,1,1,2,2A2,2,0,0,1,1.48,3.53Zm2,10.83a2,2,0,1,1,2-2A2,2,0,0,1,3.44,14.37Zm5.77-2.6H6.73a3.33,3.33,0,0,0-2.58-2.6V6.82a3.34,3.34,0,0,0,2.6-2.67H9.2a3.33,3.33,0,0,0,2.72,2.69V9.13A3.33,3.33,0,0,0,9.21,11.77Zm3.23,2.6a2,2,0,1,1,2-2A2,2,0,0,1,12.44,14.37Z"/></g></g></svg>