<svg xmlns="http://www.w3.org/2000/svg" viewBox="0 0 16 16"><title>hang-tag</title><g id="Layer_1" data-name="Layer 1"><g id="Layer_5" data-name="Layer 5"><path d="M7.54,15.93a1.29,1.29,0,0,1-.92-.38L.4,9.33a1.3,1.3,0,0,1,0-1.83l7-7A1.31,1.31,0,0,1,8.54.08l5.39.85A1.29,1.29,0,0,1,15,2l.85,5.36a1.3,1.3,0,0,1-.36,1.11l-7,7A1.29,1.29,0,0,1,7.54,15.93Zm.14-1.44h0ZM1.61,8.41l5.94,5.94,6.83-6.83-.81-5.13L8.43,1.58Zm12.1-6h0Zm-.17-.16h0Z"/><path d="M10.64,7a1.87,1.87,0,0,1-1.32-3.2,1.92,1.92,0,0,1,2.65,0A1.87,1.87,0,0,1,12,6.5h0A1.87,1.87,0,0,1,10.64,7Zm.85-1h0Zm-.85-1.4a.54.54,0,0,0-.38.16.54.54,0,0,0,.77.77h0a.55.55,0,0,0,0-.77A.54.54,0,0,0,10.64,4.63Z"/></g></g></svg>