<svg xmlns="http://www.w3.org/2000/svg" viewBox="0 0 16 16" aria-labelledby="title" role="img" class="symbol symbol-list"><title id="title">list icon</title><g data-name="Layer 1"><path class="cls-1" d="M.245 1.591v2.58h15.482v-2.58zm0 7.741h15.482v-2.58H.245zm0 5.161h15.482v-2.58H.245z" data-name="Layer 24" role="presentation"/><path class="cls-1" d="M.245 1.591v2.58h15.482v-2.58zm0 7.741h15.482v-2.58H.245zm0 5.161h15.482v-2.58H.245z" data-name="Layer 21" role="presentation"/><path class="cls-1" d="M.245 1.591v2.58h15.482v-2.58zm0 7.741h15.482v-2.58H.245zm0 5.161h15.482v-2.58H.245z" data-name="Layer 18" role="presentation"/><path class="cls-1" d="M.245 1.591v2.58h15.482v-2.58zm0 7.741h15.482v-2.58H.245zm0 5.161h15.482v-2.58H.245z" data-name="Layer 15" role="presentation"/><path class="cls-1" d="M.245 1.591v2.58h15.482v-2.58zm0 7.741h15.482v-2.58H.245zm0 5.161h15.482v-2.58H.245z" data-name="Layer 12" role="presentation"/><path class="cls-1" d="M.245 1.591v2.58h15.482v-2.58zm0 7.741h15.482v-2.58H.245zm0 5.161h15.482v-2.58H.245z" data-name="Layer 9" role="presentation"/><path class="cls-1" d="M.245 1.591v2.58h15.482v-2.58zm0 7.741h15.482v-2.58H.245zm0 5.161h15.482v-2.58H.245z" data-name="Layer 6" role="presentation"/><path class="cls-1" d="M.245 1.591v2.58h15.482v-2.58zm0 7.741h15.482v-2.58H.245zm0 5.161h15.482v-2.58H.245z" data-name="Layer 5" role="presentation"/></g></svg>