<svg xmlns="http://www.w3.org/2000/svg" width="16" height="16" viewBox="0 0 16 16" class="symbol symbol-map-o" aria-labelledby="title" role="img"><title id="title">map-o icon</title><g data-name="Layer 1"><path d="M8 4.52a1.86 1.86 0 1 0 1.91 1.87A1.89 1.89 0 0 0 8 4.52zM8 .19a6.51 6.51 0 0 0-6.6 6.42 6.33 6.33 0 0 0 2.15 4.74l3.93 4.09a.74.74 0 0 0 1 0l4.43-4.59a6.3 6.3 0 0 0 1.69-4.24A6.51 6.51 0 0 0 8 .19zm3.71 9.52L8 13.55l-3.2-3.33a4.65 4.65 0 0 1-1.6-3.51A4.83 4.83 0 0 1 8 1.85a4.83 4.83 0 0 1 4.89 4.76 4.65 4.65 0 0 1-1.18 3.1z" data-name="Layer 21" role="presentation"/></g></svg>