<svg xmlns="http://www.w3.org/2000/svg" viewBox="0 0 16 16"><title>map-o</title><g id="Layer_1" data-name="Layer 1"><g id="Layer_21" data-name="Layer 21"><path d="M8,4.52A1.86,1.86,0,1,0,9.91,6.39,1.89,1.89,0,0,0,8,4.52ZM8,.19A6.51,6.51,0,0,0,1.4,6.61a6.33,6.33,0,0,0,2.15,4.74l3.93,4.09a.74.74,0,0,0,1,0l4.43-4.59A6.3,6.3,0,0,0,14.6,6.61,6.51,6.51,0,0,0,8,.19Zm3.71,9.52L8,13.55,4.8,10.22l0,0,0,0a4.65,4.65,0,0,1-1.6-3.51A4.83,4.83,0,0,1,8,1.85a4.83,4.83,0,0,1,4.89,4.76A4.65,4.65,0,0,1,11.71,9.71Z"/></g></g></svg>