<svg xmlns="http://www.w3.org/2000/svg" viewBox="0 0 16 16"><title>person-o</title><g id="Layer_1" data-name="Layer 1"><g id="Layer_30" data-name="Layer 30"><path d="M12.59,9.45,10.05,8.27a4.3,4.3,0,0,0,2.13-3.73A4.24,4.24,0,0,0,8,.26,4.24,4.24,0,0,0,3.82,4.54,4.3,4.3,0,0,0,5.94,8.27L3.4,9.45A2.15,2.15,0,0,0,2.18,11.4v3.52a.82.82,0,0,0,.81.83H13a.82.82,0,0,0,.81-.83V11.4A2.15,2.15,0,0,0,12.59,9.45ZM8,1.91a2.6,2.6,0,0,1,2.57,2.63,2.57,2.57,0,1,1-5.13,0A2.6,2.6,0,0,1,8,1.91Zm4.26,12.28H3.74V11.57A.49.49,0,0,1,4,11.12L8,9.3l4,1.83a.49.49,0,0,1,.28.44Z"/></g></g></svg>