<svg xmlns="http://www.w3.org/2000/svg" viewBox="0 0 16 16" class="symbol symbol-plus-encircled-o" aria-labelledby="title" role="img"><title id="title">plus-encircled-o icon</title><g data-name="Layer 1"><path d="M13.507 2.492a7.768 7.768 0 1 0 0 10.986 7.768 7.768 0 0 0 0-10.986zm-1.1 9.888a6.215 6.215 0 1 1 0-8.789 6.222 6.222 0 0 1 .001 8.788zM8.79 4.414H7.236v2.794H4.443v1.553h2.794v2.794H8.79V8.762h2.794V7.208H8.79z" data-name="Layer 12" role="presentation"/><path d="M13.507 2.492a7.768 7.768 0 1 0 0 10.986 7.768 7.768 0 0 0 0-10.986zm-1.1 9.888a6.215 6.215 0 1 1 0-8.789 6.222 6.222 0 0 1 .001 8.788zM8.79 4.414H7.236v2.794H4.443v1.553h2.794v2.794H8.79V8.762h2.794V7.208H8.79z" data-name="Layer 9" role="presentation"/><path d="M13.507 2.492a7.768 7.768 0 1 0 0 10.986 7.768 7.768 0 0 0 0-10.986zm-1.1 9.888a6.215 6.215 0 1 1 0-8.789 6.222 6.222 0 0 1 .001 8.788zM8.79 4.414H7.236v2.794H4.443v1.553h2.794v2.794H8.79V8.762h2.794V7.208H8.79z" data-name="Layer 6" role="presentation"/><path d="M13.507 2.492a7.768 7.768 0 1 0 0 10.986 7.768 7.768 0 0 0 0-10.986zm-1.1 9.888a6.215 6.215 0 1 1 0-8.789 6.222 6.222 0 0 1 .001 8.788zM8.79 4.414H7.236v2.794H4.443v1.553h2.794v2.794H8.79V8.762h2.794V7.208H8.79z" data-name="Layer 5" role="presentation"/></g></svg>