<svg xmlns="http://www.w3.org/2000/svg" viewBox="0 0 16 16"><title>plus-encircled-o</title><g id="Layer_1" data-name="Layer 1"><g id="Layer_12" data-name="Layer 12"><path d="M13.51,2.49a7.77,7.77,0,1,0,0,11A7.77,7.77,0,0,0,13.51,2.49Zm-1.1,9.89a6.21,6.21,0,1,1,0-8.79A6.22,6.22,0,0,1,12.41,12.38Zm-3.62-8H7.24V7.21H4.44V8.76H7.24v2.79H8.79V8.76h2.79V7.21H8.79Z"/></g><g id="Layer_9" data-name="Layer 9"><path d="M13.51,2.49a7.77,7.77,0,1,0,0,11A7.77,7.77,0,0,0,13.51,2.49Zm-1.1,9.89a6.21,6.21,0,1,1,0-8.79A6.22,6.22,0,0,1,12.41,12.38Zm-3.62-8H7.24V7.21H4.44V8.76H7.24v2.79H8.79V8.76h2.79V7.21H8.79Z"/></g><g id="Layer_6" data-name="Layer 6"><path d="M13.51,2.49a7.77,7.77,0,1,0,0,11A7.77,7.77,0,0,0,13.51,2.49Zm-1.1,9.89a6.21,6.21,0,1,1,0-8.79A6.22,6.22,0,0,1,12.41,12.38Zm-3.62-8H7.24V7.21H4.44V8.76H7.24v2.79H8.79V8.76h2.79V7.21H8.79Z"/></g><g id="Layer_5" data-name="Layer 5"><path d="M13.51,2.49a7.77,7.77,0,1,0,0,11A7.77,7.77,0,0,0,13.51,2.49Zm-1.1,9.89a6.21,6.21,0,1,1,0-8.79A6.22,6.22,0,0,1,12.41,12.38Zm-3.62-8H7.24V7.21H4.44V8.76H7.24v2.79H8.79V8.76h2.79V7.21H8.79Z"/></g></g></svg>