<svg xmlns="http://www.w3.org/2000/svg" viewBox="0 0 16 16"><defs><style>.cls-1{fill:#231f20;}</style></defs><title>search</title><g id="Layer_1" data-name="Layer 1"><g id="Layer_36" data-name="Layer 36"><path class="cls-1" d="M15.61,13.56l-3.8-3.8a6.18,6.18,0,0,0,.9-3.23A6.55,6.55,0,0,0,6.3.13,6.22,6.22,0,0,0,.09,6.35a6.55,6.55,0,0,0,6.41,6.41,6.19,6.19,0,0,0,3.13-.85l3.82,3.82a1,1,0,0,0,1.35,0l.95-.95C16.11,14.4,16,13.93,15.61,13.56ZM2,6.35A4.3,4.3,0,0,1,6.3,2a4.64,4.64,0,0,1,4.5,4.49,4.3,4.3,0,0,1-4.3,4.3A4.64,4.64,0,0,1,2,6.35Z"/></g><g id="Layer_33" data-name="Layer 33"><path class="cls-1" d="M15.61,13.56l-3.8-3.8a6.18,6.18,0,0,0,.9-3.23A6.55,6.55,0,0,0,6.3.13,6.22,6.22,0,0,0,.09,6.35a6.55,6.55,0,0,0,6.41,6.41,6.19,6.19,0,0,0,3.13-.85l3.82,3.82a1,1,0,0,0,1.35,0l.95-.95C16.11,14.4,16,13.93,15.61,13.56ZM2,6.35A4.3,4.3,0,0,1,6.3,2a4.64,4.64,0,0,1,4.5,4.49,4.3,4.3,0,0,1-4.3,4.3A4.64,4.64,0,0,1,2,6.35Z"/></g><g id="Layer_30" data-name="Layer 30"><path class="cls-1" d="M15.61,13.56l-3.8-3.8a6.18,6.18,0,0,0,.9-3.23A6.55,6.55,0,0,0,6.3.13,6.22,6.22,0,0,0,.09,6.35a6.55,6.55,0,0,0,6.41,6.41,6.19,6.19,0,0,0,3.13-.85l3.82,3.82a1,1,0,0,0,1.35,0l.95-.95C16.11,14.4,16,13.93,15.61,13.56ZM2,6.35A4.3,4.3,0,0,1,6.3,2a4.64,4.64,0,0,1,4.5,4.49,4.3,4.3,0,0,1-4.3,4.3A4.64,4.64,0,0,1,2,6.35Z"/></g><g id="Layer_27" data-name="Layer 27"><path class="cls-1" d="M15.61,13.56l-3.8-3.8a6.18,6.18,0,0,0,.9-3.23A6.55,6.55,0,0,0,6.3.13,6.22,6.22,0,0,0,.09,6.35a6.55,6.55,0,0,0,6.41,6.41,6.19,6.19,0,0,0,3.13-.85l3.82,3.82a1,1,0,0,0,1.35,0l.95-.95C16.11,14.4,16,13.93,15.61,13.56ZM2,6.35A4.3,4.3,0,0,1,6.3,2a4.64,4.64,0,0,1,4.5,4.49,4.3,4.3,0,0,1-4.3,4.3A4.64,4.64,0,0,1,2,6.35Z"/></g><g id="Layer_24" data-name="Layer 24"><path class="cls-1" d="M15.61,13.56l-3.8-3.8a6.18,6.18,0,0,0,.9-3.23A6.55,6.55,0,0,0,6.3.13,6.22,6.22,0,0,0,.09,6.35a6.55,6.55,0,0,0,6.41,6.41,6.19,6.19,0,0,0,3.13-.85l3.82,3.82a1,1,0,0,0,1.35,0l.95-.95C16.11,14.4,16,13.93,15.61,13.56ZM2,6.35A4.3,4.3,0,0,1,6.3,2a4.64,4.64,0,0,1,4.5,4.49,4.3,4.3,0,0,1-4.3,4.3A4.64,4.64,0,0,1,2,6.35Z"/></g><g id="Layer_21" data-name="Layer 21"><path class="cls-1" d="M15.61,13.56l-3.8-3.8a6.18,6.18,0,0,0,.9-3.23A6.55,6.55,0,0,0,6.3.13,6.22,6.22,0,0,0,.09,6.35a6.55,6.55,0,0,0,6.41,6.41,6.19,6.19,0,0,0,3.13-.85l3.82,3.82a1,1,0,0,0,1.35,0l.95-.95C16.11,14.4,16,13.93,15.61,13.56ZM2,6.35A4.3,4.3,0,0,1,6.3,2a4.64,4.64,0,0,1,4.5,4.49,4.3,4.3,0,0,1-4.3,4.3A4.64,4.64,0,0,1,2,6.35Z"/></g><g id="Layer_18" data-name="Layer 18"><path class="cls-1" d="M15.61,13.56l-3.8-3.8a6.18,6.18,0,0,0,.9-3.23A6.55,6.55,0,0,0,6.3.13,6.22,6.22,0,0,0,.09,6.35a6.55,6.55,0,0,0,6.41,6.41,6.19,6.19,0,0,0,3.13-.85l3.82,3.82a1,1,0,0,0,1.35,0l.95-.95C16.11,14.4,16,13.93,15.61,13.56ZM2,6.35A4.3,4.3,0,0,1,6.3,2a4.64,4.64,0,0,1,4.5,4.49,4.3,4.3,0,0,1-4.3,4.3A4.64,4.64,0,0,1,2,6.35Z"/></g><g id="Layer_15" data-name="Layer 15"><path class="cls-1" d="M15.61,13.56l-3.8-3.8a6.18,6.18,0,0,0,.9-3.23A6.55,6.55,0,0,0,6.3.13,6.22,6.22,0,0,0,.09,6.35a6.55,6.55,0,0,0,6.41,6.41,6.19,6.19,0,0,0,3.13-.85l3.82,3.82a1,1,0,0,0,1.35,0l.95-.95C16.11,14.4,16,13.93,15.61,13.56ZM2,6.35A4.3,4.3,0,0,1,6.3,2a4.64,4.64,0,0,1,4.5,4.49,4.3,4.3,0,0,1-4.3,4.3A4.64,4.64,0,0,1,2,6.35Z"/></g><g id="Layer_12" data-name="Layer 12"><path class="cls-1" d="M15.61,13.56l-3.8-3.8a6.18,6.18,0,0,0,.9-3.23A6.55,6.55,0,0,0,6.3.13,6.22,6.22,0,0,0,.09,6.35a6.55,6.55,0,0,0,6.41,6.41,6.19,6.19,0,0,0,3.13-.85l3.82,3.82a1,1,0,0,0,1.35,0l.95-.95C16.11,14.4,16,13.93,15.61,13.56ZM2,6.35A4.3,4.3,0,0,1,6.3,2a4.64,4.64,0,0,1,4.5,4.49,4.3,4.3,0,0,1-4.3,4.3A4.64,4.64,0,0,1,2,6.35Z"/></g><g id="Layer_9" data-name="Layer 9"><path class="cls-1" d="M15.61,13.56l-3.8-3.8a6.18,6.18,0,0,0,.9-3.23A6.55,6.55,0,0,0,6.3.13,6.22,6.22,0,0,0,.09,6.35a6.55,6.55,0,0,0,6.41,6.41,6.19,6.19,0,0,0,3.13-.85l3.82,3.82a1,1,0,0,0,1.35,0l.95-.95C16.11,14.4,16,13.93,15.61,13.56ZM2,6.35A4.3,4.3,0,0,1,6.3,2a4.64,4.64,0,0,1,4.5,4.49,4.3,4.3,0,0,1-4.3,4.3A4.64,4.64,0,0,1,2,6.35Z"/></g><g id="Layer_6" data-name="Layer 6"><path class="cls-1" d="M15.61,13.56l-3.8-3.8a6.18,6.18,0,0,0,.9-3.23A6.55,6.55,0,0,0,6.3.13,6.22,6.22,0,0,0,.09,6.35a6.55,6.55,0,0,0,6.41,6.41,6.19,6.19,0,0,0,3.13-.85l3.82,3.82a1,1,0,0,0,1.35,0l.95-.95C16.11,14.4,16,13.93,15.61,13.56ZM2,6.35A4.3,4.3,0,0,1,6.3,2a4.64,4.64,0,0,1,4.5,4.49,4.3,4.3,0,0,1-4.3,4.3A4.64,4.64,0,0,1,2,6.35Z"/></g><g id="Layer_5" data-name="Layer 5"><path class="cls-1" d="M15.61,13.56l-3.8-3.8a6.18,6.18,0,0,0,.9-3.23A6.55,6.55,0,0,0,6.3.13,6.22,6.22,0,0,0,.09,6.35a6.55,6.55,0,0,0,6.41,6.41,6.19,6.19,0,0,0,3.13-.85l3.82,3.82a1,1,0,0,0,1.35,0l.95-.95C16.11,14.4,16,13.93,15.61,13.56ZM2,6.35A4.3,4.3,0,0,1,6.3,2a4.64,4.64,0,0,1,4.5,4.49,4.3,4.3,0,0,1-4.3,4.3A4.64,4.64,0,0,1,2,6.35Z"/></g></g></svg>