<svg xmlns="http://www.w3.org/2000/svg" xmlns:xlink="http://www.w3.org/1999/xlink" viewBox="0 0 32 32">
  <defs>
    <linearGradient id="linear-gradient" x1="4.56" y1="4.56" x2="27.44" y2="27.44" gradientUnits="userSpaceOnUse">
      <stop offset="0" stop-color="#42a5f5"/>
      <stop offset="1" stop-color="#66bb6a"/>
    </linearGradient>
  </defs>
  <title>color-church-center-app</title>
  <g id="New">
    <path d="M30.3,16c0,11.44-2.86,14.3-14.3,14.3S1.7,27.44,1.7,16,4.56,1.7,16,1.7,30.3,4.56,30.3,16Z" fill="url(#linear-gradient)"/>
    <path d="M21.593,22.863a.48.48,0,0,1-.475.486L18.3,23.326a.48.48,0,0,1-.486-.475s.007-.335.007-2.584a5.283,5.283,0,0,0-1.838-3.792,5.281,5.281,0,0,0-1.839,3.792c0,2.249.008,2.584.008,2.584a.481.481,0,0,1-.487.475l-2.815.023a.48.48,0,0,1-.475-.486s-.349-9.279-.028-9.556h0L15.5,8.864a.748.748,0,0,1,.984,0l5.144,4.443-.006,0C21.941,13.611,21.593,22.863,21.593,22.863Z" fill="#fff"/>
  </g>
</svg>
