<svg xmlns="http://www.w3.org/2000/svg" xmlns:xlink="http://www.w3.org/1999/xlink" viewBox="0 0 32 32"><defs><style>.cls-1{fill:url(#linear-gradient);}.cls-2{fill:#fff;}</style><linearGradient id="linear-gradient" x1="4.56" y1="4.56004" x2="27.43996" y2="27.44" gradientTransform="translate(7.34087 -4.90501) rotate(22.50005)" gradientUnits="userSpaceOnUse"><stop offset="0" stop-color="#43b39c"/><stop offset="1" stop-color="#46948d"/></linearGradient></defs><title>color-registrations-app</title><g id="New"><circle class="cls-1" cx="15.99998" cy="15.99997" r="14.30001" transform="translate(-4.905 7.34087) rotate(-22.50005)"/><path class="cls-2" d="M17.15721,9.99317a1.41706,1.41706,0,0,1,1.99623-.09306l1.1331,1.02628a1.41716,1.41716,0,0,1,.09655,2.0045l-1.2173,1.33693L15.95865,11.3013ZM11.86849,21.82508l-2.891.63695a.19479.19479,0,0,1-.23492-.21632l.397-2.9396a2.258,2.258,0,0,1,.48515-1.03783l5.551-6.12265L18.385,15.11417l-5.524,6.1356A2.21974,2.21974,0,0,1,11.86849,21.82508Zm11.39075-.08258a.70406.70406,0,0,1-.70408.704H14.53155l2.817-3.14793h5.20661a.70406.70406,0,0,1,.70408.70408Z"/></g></svg>