<svg xmlns="http://www.w3.org/2000/svg" xmlns:xlink="http://www.w3.org/1999/xlink" viewBox="0 0 32 32"><defs><linearGradient id="linear-gradient" x1="4.58" y1="4.58" x2="27.42" y2="27.42" gradientUnits="userSpaceOnUse"><stop offset="0" stop-color="#32a0f0"/><stop offset="1" stop-color="#3f75e5"/></linearGradient></defs><title>color-people-app</title><g id="New"><path d="M30.28,16c0,11.42-2.86,14.28-14.28,14.28S1.72,27.42,1.72,16,4.58,1.72,16,1.72,30.28,4.58,30.28,16Z" fill="url(#linear-gradient)"/><path d="M13.37,9.88a2.9,2.9,0,1,1-2.89,2.9A2.9,2.9,0,0,1,13.37,9.88Zm4.39,12.24H9V19.48a2.64,2.64,0,0,1,2.64-2.64h3.52a2.64,2.64,0,0,1,2.64,2.64ZM20,11.61a2.18,2.18,0,1,1-2.17,2.17A2.18,2.18,0,0,1,20,11.61Zm3,8.74h-4.4v-.88a3.33,3.33,0,0,0-.29-1.37.72.72,0,0,0-.09-.2.65.65,0,0,0-.09-.16,1,1,0,0,0-.13-.23,1.64,1.64,0,0,1,1.3-.68h2.12A1.59,1.59,0,0,1,23,18.42Z" fill="#fff"/></g></svg>