<svg id="9323403d-e78e-4dfd-a19b-3e24b8533791" data-name="Layer 1" xmlns="http://www.w3.org/2000/svg" viewBox="0 0 32 32"><title>color-resources-app</title><path d="M30,26.973A3.027,3.027,0,0,1,26.973,30H5.027A3.027,3.027,0,0,1,2,26.973V5.027A3.027,3.027,0,0,1,5.027,2H26.973A3.027,3.027,0,0,1,30,5.027Z" fill="#cc4f3e" fill-rule="evenodd"/><path d="M27,26.239a.761.761,0,0,1-.761.761H5.761A.761.761,0,0,1,5,26.239V5.761A.761.761,0,0,1,5.761,5H26.239A.761.761,0,0,1,27,5.761Z" fill="#fff" fill-rule="evenodd"/><rect x="9" y="10" width="6" height="5" rx="0.431" ry="0.431" fill="#4a4a4d"/><rect x="17" y="10" width="6" height="5" rx="0.431" ry="0.431" fill="#4a4a4d"/><rect x="9" y="17" width="6" height="5" rx="0.431" ry="0.431" fill="#4a4a4d"/><rect x="17" y="17" width="6" height="5" rx="0.431" ry="0.431" fill="#4a4a4d"/><path d="M10,2H22a0,0,0,0,1,0,0V5.007A.993.993,0,0,1,21.007,6H10.993A.993.993,0,0,1,10,5.007V2A0,0,0,0,1,10,2Z" fill="#fec123"/></svg>