<svg xmlns="http://www.w3.org/2000/svg" xmlns:xlink="http://www.w3.org/1999/xlink" viewBox="0 0 32 32"><defs><linearGradient id="linear-gradient" x1="1.72" y1="16" x2="30.28" y2="16" gradientUnits="userSpaceOnUse"><stop offset="0" stop-color="#f5c426"/><stop offset="1" stop-color="#f2b327"/></linearGradient></defs><title>color-giving-app</title><g id="New"><path d="M30.28,16c0,11.42-2.86,14.28-14.28,14.28S1.72,27.42,1.72,16,4.58,1.72,16,1.72,30.28,4.58,30.28,16Z" fill="url(#linear-gradient)"/><path d="M16.43,21.21a.74.74,0,0,1-.85,0c-1.81-1.27-8.59-6.45-4.69-9.8a3.42,3.42,0,0,1,4.61.3l.5.5.5-.5a3.42,3.42,0,0,1,4.61-.3C25,14.76,18.23,19.94,16.43,21.21Z" fill="#fff"/></g></svg>