<svg xmlns="http://www.w3.org/2000/svg" xmlns:xlink="http://www.w3.org/1999/xlink" viewBox="0 0 32 32"><defs><linearGradient id="linear-gradient" x1="4.55" y1="4.55" x2="27.45" y2="27.45" gradientUnits="userSpaceOnUse"><stop offset="0" stop-color="#6bb23d"/><stop offset="1" stop-color="#659630"/></linearGradient></defs><title>color-services-app</title><g id="New"><path d="M16,1.69C4.55,1.69,1.69,4.55,1.69,16S4.55,30.31,16,30.31,30.31,27.45,30.31,16,27.45,1.69,16,1.69Z" fill="url(#linear-gradient)"/><circle cx="9.49" cy="11.09" r="1.52" fill="#fff"/><circle cx="9.49" cy="16.03" r="1.52" fill="#fff"/><circle cx="9.49" cy="20.96" r="1.52" fill="#fff"/><path d="M23.19,11.77a.69.69,0,0,1-.7.69H13.35a.69.69,0,0,1-.69-.69V10.41a.69.69,0,0,1,.69-.69h9.14a.69.69,0,0,1,.7.69Z" fill="#fff"/><rect x="12.66" y="14.65" width="10.53" height="2.74" rx="0.7" fill="#fff"/><rect x="12.66" y="19.59" width="10.53" height="2.74" rx="0.7" fill="#fff"/></g></svg>