<svg xmlns="http://www.w3.org/2000/svg" xmlns:xlink="http://www.w3.org/1999/xlink" viewBox="0 0 32 32"><defs><linearGradient id="linear-gradient" x1="4.41" y1="4.41" x2="27.69" y2="27.69" gradientUnits="userSpaceOnUse"><stop offset="0" stop-color="#ff962d"/><stop offset="1" stop-color="#fc7638"/></linearGradient></defs><title>color-groups-app</title><g id="New"><path d="M30.3,16c0,11.44-2.86,14.3-14.3,14.3S1.7,27.44,1.7,16,4.56,1.7,16,1.7,30.3,4.56,30.3,16Z" fill="url(#linear-gradient)"/><path d="M17.89,12.68H14.11a2.74,2.74,0,0,1-1.43,1.43v3.78a2.74,2.74,0,0,1,1.43,1.43h3.78a2.69,2.69,0,0,1,1.42-1.43V14.11A2.75,2.75,0,0,1,17.89,12.68ZM23,20.36a2.68,2.68,0,0,1-5.15,1.05H14.11a2.69,2.69,0,1,1-3.52-3.52V14.11a2.68,2.68,0,1,1,3.52-3.52h3.78a2.69,2.69,0,1,1,3.51,3.52v3.78A2.68,2.68,0,0,1,23,20.36Z" fill="#fff"/></g></svg>