<svg xmlns="http://www.w3.org/2000/svg" xmlns:xlink="http://www.w3.org/1999/xlink" viewBox="0 0 32 32"><defs><linearGradient id="linear-gradient" x1="4.58" y1="4.58" x2="27.42" y2="27.42" gradientUnits="userSpaceOnUse"><stop offset="0" stop-color="#32a0f0"/><stop offset="1" stop-color="#3f75e5"/></linearGradient></defs><title>color-api-app</title><g id="New"><path d="M30.28,16c0,11.42-2.86,14.28-14.28,14.28S1.72,27.42,1.72,16,4.58,1.72,16,1.72,30.28,4.58,30.28,16Z" fill="url(#linear-gradient)"/><path d="M17.83,19.21A4.29,4.29,0,0,0,18.12,18l2.1-.33-.36-2.33-2.1.32a4.66,4.66,0,0,0-1.57-2l.76-2-2.2-.86-.76,2a4.7,4.7,0,0,0-2.52.39l-1.32-1.65L8.3,13l1.32,1.65A5.17,5.17,0,0,0,9,15.77a4.71,4.71,0,0,0-.31,1.46l-2.14.32L6.92,20l2.27-.36a4.75,4.75,0,0,0,1.46,1.72l-.77,2,2.22.87.76-2a4.72,4.72,0,0,0,2.5-.38l1.32,1.66L18.53,22l-1.32-1.67A4.8,4.8,0,0,0,17.83,19.21ZM16,18.5a2.78,2.78,0,0,1-5.18-2,2.78,2.78,0,0,1,5.18,2Zm8.42-6.17a2.36,2.36,0,0,0,.05-.54A3,3,0,0,0,22.5,9V7.82h-2V9a3,3,0,0,0-2,2.79,2.35,2.35,0,0,0,.06.54l-1,.6,1,1.71,1-.58a2.93,2.93,0,0,0,1.92.71,3,3,0,0,0,1.94-.71l1,.58,1-1.71Zm-2.92.95A1.49,1.49,0,1,1,23,11.79,1.48,1.48,0,0,1,21.51,13.28Z" fill="#fff"/></g></svg>