<svg xmlns="http://www.w3.org/2000/svg" viewBox="0 0 32 32"><defs><style>.cls-1{fill:#4682c5;}.cls-2{fill:#fff;}</style></defs><title>color-music-stand-app</title><g id="New"><circle class="cls-1" cx="15.99998" cy="15.99998" r="14.27544" transform="translate(-3.24803 4.10407) rotate(-13.28255)"/><path class="cls-2" d="M23.46922,19.01167l-.0235-.00678c.05036,1.05871-1.14082,2.0486-2.73415,2.23565-1.64.19236-3.07348-.53791-3.20178-1.63127S18.607,17.47353,20.247,17.28111a4.1466,4.1466,0,0,1,1.47812.09117V12.10472l-7.22566,2.35253v6.54764h-.032c-.13508.95813-1.2616,1.80791-2.72556,1.97971-1.64006.19256-3.07354-.53784-3.20191-1.6312s1.09718-2.13575,2.73724-2.32816a4.14727,4.14727,0,0,1,1.47806.09124V13.03177c0-.33147.08621-.77465.40465-.87771,1.50014-.48528,8.82584-2.891,9.77082-3.16015a.48509.48509,0,0,1,.53845.39746Z"/></g></svg>