<svg id="Old" xmlns="http://www.w3.org/2000/svg" viewBox="0 0 32 32"><title>color-projector-app</title><path d="M30,27a3,3,0,0,1-3,3H5a3,3,0,0,1-3-3V5A3,3,0,0,1,5,2H27a3,3,0,0,1,3,3Z" fill="#f19900" fill-rule="evenodd"/><path d="M27,26.24a.76.76,0,0,1-.76.76H5.76A.76.76,0,0,1,5,26.24V5.76A.76.76,0,0,1,5.76,5H26.24a.76.76,0,0,1,.76.76Z" fill="#fff" fill-rule="evenodd"/><path d="M10,2H22a0,0,0,0,1,0,0V5a1,1,0,0,1-1,1H11a1,1,0,0,1-1-1V2A0,0,0,0,1,10,2Z" fill="#fec123"/><path d="M18.45,16.66c-.21.15-2.95,2.52-3.19,2.69s-.42,0-.42-.29V13.7c0-.25.21-.44.42-.29s2.9,2.47,3.19,2.67A.37.37,0,0,1,18.45,16.66ZM16,10a6.53,6.53,0,1,0,6.61,6.53A6.57,6.57,0,0,0,16,10Z" fill="#4a4a4d"/></svg>