<svg xmlns="http://www.w3.org/2000/svg" viewBox="0 0 32 32"><defs><style>.cls-1{fill:#3f75e5;}.cls-2{fill:#fff;}</style></defs><title>color-api-app</title><g id="New"><circle class="cls-1" cx="15.99998" cy="16" r="14.27544" transform="translate(-2.35632 2.76952) rotate(-9.21748)"/><path class="cls-2" d="M17.826,19.20648a4.19455,4.19455,0,0,0,.297-1.232l2.101-.33-.363-2.332-2.101.319a4.59948,4.59948,0,0,0-1.573-1.98l.759-1.969-2.2-.858-.759,1.969a4.67683,4.67683,0,0,0-2.519.385l-1.32-1.65L8.3,13.01347l1.32,1.65a4.69628,4.69628,0,0,0-.60505,1.111,4.53655,4.53655,0,0,0-.319,1.452l-2.134.319.363,2.42,2.266-.352a4.68018,4.68018,0,0,0,1.463,1.716l-.77,1.98,2.211.869.76995-1.991a4.6989,4.6989,0,0,0,2.497-.374l1.32,1.661,1.848-1.485-1.32-1.672A4.36061,4.36061,0,0,0,17.826,19.20648Zm-1.815-.70395a2.77917,2.77917,0,1,1-1.584-3.597A2.79069,2.79069,0,0,1,16.011,18.50253Zm8.415-6.171a2.186,2.186,0,0,0,.05505-.539,2.96544,2.96544,0,0,0-1.98005-2.794V7.8215h-1.98v1.177a2.96547,2.96547,0,0,0-1.98,2.794,2.8917,2.8917,0,0,0,.055.539l-1.012.594.99,1.716,1.01205-.583a2.96358,2.96358,0,0,0,3.861,0l1.001.583.99-1.716Zm-2.915.946a1.485,1.485,0,1,1,1.485-1.485A1.47889,1.47889,0,0,1,21.511,13.27753Z"/></g></svg>