<svg id="Old" xmlns="http://www.w3.org/2000/svg" viewBox="0 0 32 32"><title>color-interfaces-app</title><path d="M30,27a3,3,0,0,1-3,3H5a3,3,0,0,1-3-3V5A3,3,0,0,1,5,2H27a3,3,0,0,1,3,3Z" fill="#4a4a4d" fill-rule="evenodd"/><path d="M27,26.24a.76.76,0,0,1-.76.76H5.76A.76.76,0,0,1,5,26.24V5.76A.76.76,0,0,1,5.76,5H26.24a.76.76,0,0,1,.76.76Z" fill="#fff" fill-rule="evenodd"/><path d="M10,2H22a0,0,0,0,1,0,0V5a1,1,0,0,1-1,1H11a1,1,0,0,1-1-1V2A0,0,0,0,1,10,2Z" fill="#fec123"/><polygon points="15.27 17.09 15.99 23.48 22 10 9.2 17.11 15.27 17.09" fill="#4a4a4d"/></svg>