<svg xmlns="http://www.w3.org/2000/svg" xmlns:xlink="http://www.w3.org/1999/xlink" viewBox="0 0 32 32"><defs><style>.cls-1{fill:url(#linear-gradient);}.cls-2{fill:#fff;}</style><linearGradient id="linear-gradient" x1="4.55182" y1="4.55185" x2="27.44818" y2="27.4482" gradientUnits="userSpaceOnUse"><stop offset="0" stop-color="#6bb23d"/><stop offset="0.99949" stop-color="#659630"/></linearGradient></defs><title>color-services-app</title><g id="New"><path class="cls-1" d="M16,1.68974C4.5519,1.68974,1.68974,4.5519,1.68974,16S4.5519,30.31026,16,30.31026,30.31026,27.44823,30.31026,16,27.4481,1.68974,16,1.68974Z"/><circle class="cls-2" cx="9.49109" cy="11.09022" r="1.51738"/><circle class="cls-2" cx="9.49109" cy="16.02506" r="1.51738"/><circle class="cls-2" cx="9.49109" cy="20.9599" r="1.51738"/><path class="cls-2" d="M23.19008,11.76642a.69525.69525,0,0,1-.69525.69525H13.35174a.69526.69526,0,0,1-.69525-.69525V10.41408a.69526.69526,0,0,1,.69525-.69531h9.14309a.69526.69526,0,0,1,.69525.69531Z"/><path class="cls-2" d="M13.35174,14.65361h9.14309a.69525.69525,0,0,1,.69525.69525v1.35234a.69532.69532,0,0,1-.69532.69532h-9.143a.69525.69525,0,0,1-.69525-.69525v-1.3524A.69525.69525,0,0,1,13.35174,14.65361Z"/><path class="cls-2" d="M13.35174,19.58845h9.14309a.69525.69525,0,0,1,.69525.69525V21.636a.69532.69532,0,0,1-.69532.69532h-9.143a.69525.69525,0,0,1-.69525-.69525v-1.3524A.69525.69525,0,0,1,13.35174,19.58845Z"/></g></svg>