<svg id="84c53f16-d614-43c1-9afa-3b06bba1f285" data-name="Layer 1" xmlns="http://www.w3.org/2000/svg" viewBox="0 0 32 32"><title>color-check-ins-app</title><path d="M30,26.973A3.027,3.027,0,0,1,26.973,30H5.027A3.027,3.027,0,0,1,2,26.973V5.027A3.027,3.027,0,0,1,5.027,2H26.973A3.027,3.027,0,0,1,30,5.027Z" fill="#8c6999" fill-rule="evenodd"/><path d="M27,26.239a.761.761,0,0,1-.761.761H5.761A.761.761,0,0,1,5,26.239V5.761A.761.761,0,0,1,5.761,5H26.239A.761.761,0,0,1,27,5.761Z" fill="#fff" fill-rule="evenodd"/><path d="M15.45,20.4a1.555,1.555,0,0,1-2.2,0l-3.3-3.3a1.556,1.556,0,1,1,2.2-2.2l2.2,2.2,5.5-5.5a1.556,1.556,0,1,1,2.2,2.2Z" fill="#4a4a4d" fill-rule="evenodd"/><path d="M10,2H22a0,0,0,0,1,0,0V5.007A.993.993,0,0,1,21.007,6H10.993A.993.993,0,0,1,10,5.007V2A0,0,0,0,1,10,2Z" fill="#fec123"/></svg>