<svg xmlns="http://www.w3.org/2000/svg" viewBox="0 0 16 16"><defs><style>.cls-1{fill:#231f20;}</style></defs><title>home</title><g id="Layer_1" data-name="Layer 1"><g id="New_Symbol_37" data-name="New Symbol 37"><path class="cls-1" d="M15.7,8.392,9.111,1.608a1.534,1.534,0,0,0-2.211,0L.31,8.392A.871.871,0,0,0,.31,9.6a.813.813,0,0,0,1.173,0l.264-.272v3.546a1.89,1.89,0,0,0,1.86,1.914h8.8a1.89,1.89,0,0,0,1.86-1.914V9.328l.264.272a.812.812,0,0,0,1.173,0A.871.871,0,0,0,15.7,8.392Zm-3.1,4.481a.2.2,0,0,1-.2.207h-8.8a.2.2,0,0,1-.2-.207V7.62l4.6-4.736,4.6,4.736Z"/><path class="cls-1" d="M8.911,10.762H7.1a.725.725,0,0,1-.714-.735V8.165A.725.725,0,0,1,7.1,7.43H8.911a.725.725,0,0,1,.714.735v1.862A.725.725,0,0,1,8.911,10.762Z"/></g></g></svg>