<svg xmlns="http://www.w3.org/2000/svg" viewBox="0 0 16 16"><defs><style>.cls-1,.cls-2{fill:#231f20;}.cls-1{fill-rule:evenodd;}</style></defs><title>music stand</title><g id="Layer_1" data-name="Layer 1"><path class="cls-1" d="M11.844,4.568c0-.333-.183-.421-.432-.354-.989.266-4.332,1.1-5.33,1.418a.458.458,0,0,0-.376.47c0,1.134,0,3.989,0,3.989a1.69,1.69,0,0,0-.674-.111,1.587,1.587,0,0,0-.541.1,1.871,1.871,0,0,0-.49.257,1.281,1.281,0,0,0-.363.365.982.982,0,0,0-.154.48.794.794,0,0,0,.058.3.807.807,0,0,0,.128.224.97.97,0,0,0,.426.311,1.973,1.973,0,0,0,.6.091A2.677,2.677,0,0,0,5.713,11.9a2.688,2.688,0,0,0,.9-.578,1.04,1.04,0,0,0,.245-.464,4.174,4.174,0,0,0,.034-.611l0-3.008,3.754-1.066V9.053a1.293,1.293,0,0,0-.58-.138,1.622,1.622,0,0,0-.541.1,1.848,1.848,0,0,0-.489.257,1.319,1.319,0,0,0-.35.39.951.951,0,0,0-.134.481.866.866,0,0,0,.186.527.966.966,0,0,0,.425.311,1.77,1.77,0,0,0,.568.091,2.533,2.533,0,0,0,1-.212,2.125,2.125,0,0,0,.768-.578,1.172,1.172,0,0,0,.3-.465,4.318,4.318,0,0,0,.05-.637S11.844,5.809,11.844,4.568Z"/><path class="cls-2" d="M14,0H2A2,2,0,0,0,0,2V14a2,2,0,0,0,2,2H14a2,2,0,0,0,2-2V2A2,2,0,0,0,14,0Zm0,14H2V2H5A1,1,0,0,0,6,3h4a1,1,0,0,0,1-1h3Z"/></g></svg>