<svg xmlns="http://www.w3.org/2000/svg" viewBox="0 0 16 16" aria-labelledby="title" role="img" class="symbol symbol-people"><title id="title">people icon</title><g data-name="Layer 1"><path class="cls-1" d="M5.217 8.012l-.138-.059-.711-.316V7.1a1.5 1.5 0 0 1 .109-.366 3.081 3.081 0 0 0 .123-.323 3.661 3.661 0 0 0 .128-.435 2.573 2.573 0 0 0 .049-.553 3.387 3.387 0 0 0-.069-.7 1.182 1.182 0 0 0-.287-.563.9.9 0 0 0-.415-.3 1.443 1.443 0 0 0-.455-.079 1.3 1.3 0 0 0-.425.079.912.912 0 0 0-.405.3 1.252 1.252 0 0 0-.3.563 2.966 2.966 0 0 0-.079.7 2.552 2.552 0 0 0 .049.553 3.543 3.543 0 0 0 .128.435 3.027 3.027 0 0 0 .128.326 1.518 1.518 0 0 1 .109.366V7.6l-.692.3a4.331 4.331 0 0 1-.405.178q-.208.079-.425.178l-.573.237a.838.838 0 0 0-.494.455.958.958 0 0 0-.119.376v1.561h1.098c.026-.079.056-.161.089-.247s.069-.168.109-.247a3.671 3.671 0 0 1 .456-.699 1.9 1.9 0 0 1 .435-.385 2.531 2.531 0 0 1 .534-.267l.353-.14.278-.118q.138-.059.3-.119l.672-.277.1-.04q.158-.059.267-.109T5 8.111zm5.81.119l.474.2.2.079q.158.079.3.138t.3.119l.04.02.553.217.356.138a2.506 2.506 0 0 1 .949.652 4.652 4.652 0 0 1 .455.672 2.651 2.651 0 0 1 .178.514h1.107V9.316a.967.967 0 0 0-.119-.376.92.92 0 0 0-.494-.455l-.573-.237q-.218-.1-.425-.178a4.3 4.3 0 0 1-.405-.178q-.178-.079-.336-.158t-.3-.138V7.1a1.5 1.5 0 0 1 .109-.366 3.1 3.1 0 0 0 .128-.326 3.661 3.661 0 0 0 .128-.435 2.573 2.573 0 0 0 .049-.553 2.983 2.983 0 0 0-.079-.7 1.258 1.258 0 0 0-.3-.563.913.913 0 0 0-.405-.3 1.3 1.3 0 0 0-.425-.079 1.441 1.441 0 0 0-.455.079.9.9 0 0 0-.415.3 1.176 1.176 0 0 0-.287.563 3.365 3.365 0 0 0-.069.7 2.553 2.553 0 0 0 .049.553 3.543 3.543 0 0 0 .128.435 3.027 3.027 0 0 0 .128.326 1.521 1.521 0 0 1 .109.366v.534q-.138.059-.356.138a3.932 3.932 0 0 0-.415.178l-.138.059z" role="presentation"/><path class="cls-2" d="M13.676 10.672c-.355-.553-1.547-.9-2.727-1.389A13.782 13.782 0 0 1 9.49 8.62l-.011-1.132a2.123 2.123 0 0 0 .579-1.4c.276.08.567-.413.582-.672s-.038-.944-.375-.874A7 7 0 0 0 10.36 3.3 2.262 2.262 0 0 0 8 1.429 2.261 2.261 0 0 0 5.641 3.3a6.96 6.96 0 0 0 .094 1.24c-.337-.07-.39.624-.375.874s.306.752.583.672a2.121 2.121 0 0 0 .579 1.4L6.51 8.62a13.782 13.782 0 0 1-1.46.662c-1.18.492-2.372.836-2.727 1.389a9.825 9.825 0 0 0-.223 2.878h11.8a9.825 9.825 0 0 0-.224-2.877z" data-name="New Symbol 37" role="presentation"/></g></svg>