<svg width="16" height="16" viewBox="0 0 16 16" fill="none" xmlns="http://www.w3.org/2000/svg">
<path d="M8 9.47583C8.81507 9.47583 9.47581 8.81509 9.47581 8.00002C9.47581 7.18495 8.81507 6.52421 8 6.52421C7.18494 6.52421 6.5242 7.18495 6.5242 8.00002C6.5242 8.81509 7.18494 9.47583 8 9.47583Z" fill="black"/>
<path d="M8 0.27002C1.8158 0.27002 0.270004 1.81582 0.270004 8.00002C0.270004 14.1842 1.8158 15.73 8 15.73C14.1842 15.73 15.73 14.1842 15.73 8.00002C15.73 1.81582 14.1842 0.27002 8 0.27002ZM10.8616 8.00002C10.8604 8.12511 10.8514 8.25 10.8346 8.37397L11.6345 9.00289C11.6695 9.03176 11.6933 9.07198 11.7017 9.11655C11.7101 9.16112 11.7026 9.20723 11.6805 9.24686L10.9176 10.5667C10.8957 10.6067 10.8599 10.6373 10.817 10.6528C10.7741 10.6682 10.7271 10.6675 10.6847 10.6507L9.73478 10.2697C9.53676 10.4208 9.3204 10.5461 9.09086 10.6427L8.94588 11.6535C8.93955 11.6984 8.91706 11.7394 8.88264 11.7689C8.84821 11.7983 8.80421 11.8142 8.75891 11.8135H7.2381C7.1928 11.8142 7.1488 11.7983 7.11437 11.7689C7.07995 11.7394 7.05746 11.6984 7.05113 11.6535L6.90615 10.6427C6.67552 10.5476 6.45863 10.4222 6.26123 10.2697L5.31235 10.6507C5.26985 10.6664 5.22315 10.6666 5.18051 10.6513C5.13788 10.6359 5.10205 10.6059 5.07938 10.5667L4.31648 9.24686C4.29298 9.20709 4.2847 9.16016 4.29315 9.11475C4.30161 9.06934 4.32624 9.02853 4.36247 8.99989L5.16237 8.37097C5.12632 8.12297 5.12632 7.87107 5.16237 7.62307L4.36247 7.00015C4.32647 6.97202 4.30194 6.93174 4.29347 6.88684C4.28501 6.84194 4.29319 6.79549 4.31648 6.75618L5.07938 5.43635C5.10129 5.39635 5.13706 5.36573 5.17997 5.35026C5.22288 5.33479 5.26996 5.33554 5.31235 5.35236L6.26123 5.73331C6.4596 5.58227 6.67629 5.45696 6.90615 5.36036L7.05113 4.34949C7.05746 4.30463 7.07995 4.26361 7.11437 4.23416C7.1488 4.2047 7.1928 4.18882 7.2381 4.18951H8.76391C8.80921 4.18882 8.85321 4.2047 8.88764 4.23416C8.92206 4.26361 8.94455 4.30463 8.95088 4.34949L9.09986 5.35736C9.33017 5.45241 9.54673 5.57784 9.74378 5.73031L10.6937 5.34936C10.7362 5.33361 10.7829 5.3334 10.8255 5.34877C10.8681 5.36414 10.904 5.3941 10.9266 5.43335L11.6895 6.75318C11.712 6.79356 11.7193 6.84061 11.7101 6.88589C11.7009 6.93116 11.6759 6.97168 11.6395 7.00015L10.8396 7.62907C10.8546 7.75215 10.8619 7.87603 10.8616 8.00002Z" fill="black"/>
</svg>
