<svg width="16" height="16" viewBox="0 0 16 16" fill="none" xmlns="http://www.w3.org/2000/svg">
<path d="M8.00002 9.47583C8.81509 9.47583 9.47583 8.81509 9.47583 8.00002C9.47583 7.18495 8.81509 6.52421 8.00002 6.52421C7.18495 6.52421 6.52421 7.18495 6.52421 8.00002C6.52421 8.81509 7.18495 9.47583 8.00002 9.47583Z" fill="black"/>
<path d="M8.00002 0.27002C1.81582 0.27002 0.27002 1.81582 0.27002 8.00002C0.27002 14.1842 1.81582 15.73 8.00002 15.73C14.1842 15.73 15.73 14.1842 15.73 8.00002C15.73 1.81582 14.1842 0.27002 8.00002 0.27002ZM10.8616 8.00002C10.8604 8.12511 10.8514 8.25 10.8347 8.37397L11.6345 9.00289C11.6695 9.03176 11.6933 9.07198 11.7017 9.11655C11.7101 9.16112 11.7026 9.20723 11.6805 9.24686L10.9176 10.5667C10.8957 10.6067 10.86 10.6373 10.8171 10.6528C10.7741 10.6683 10.7271 10.6675 10.6847 10.6507L9.73479 10.2697C9.53678 10.4208 9.32041 10.5461 9.09088 10.6427L8.9459 11.6535C8.93957 11.6984 8.91708 11.7394 8.88265 11.7689C8.84822 11.7983 8.80423 11.8142 8.75892 11.8135H7.23812C7.19281 11.8142 7.14882 11.7983 7.11439 11.7689C7.07996 11.7394 7.05747 11.6984 7.05114 11.6535L6.90616 10.6427C6.67553 10.5476 6.45864 10.4222 6.26124 10.2697L5.31237 10.6507C5.26987 10.6664 5.22317 10.6666 5.18053 10.6513C5.13789 10.6359 5.10207 10.6059 5.0794 10.5667L4.3165 9.24686C4.293 9.20709 4.28471 9.16016 4.29317 9.11475C4.30163 9.06934 4.32625 9.02853 4.36249 8.99989L5.16239 8.37097C5.12634 8.12297 5.12634 7.87107 5.16239 7.62307L4.36249 7.00015C4.32648 6.97202 4.30195 6.93174 4.29349 6.88684C4.28502 6.84194 4.2932 6.79549 4.3165 6.75618L5.0794 5.43635C5.1013 5.39635 5.13708 5.36573 5.17998 5.35026C5.22289 5.33479 5.26997 5.33554 5.31237 5.35236L6.26124 5.73331C6.45961 5.58227 6.67631 5.45696 6.90616 5.36036L7.05114 4.34949C7.05747 4.30463 7.07996 4.26361 7.11439 4.23416C7.14882 4.2047 7.19281 4.18882 7.23812 4.18951H8.76392C8.80923 4.18882 8.85322 4.2047 8.88765 4.23416C8.92208 4.26361 8.94457 4.30463 8.9509 4.34949L9.09988 5.35736C9.33019 5.45241 9.54675 5.57784 9.74379 5.73031L10.6937 5.34936C10.7362 5.33361 10.7829 5.3334 10.8255 5.34877C10.8681 5.36414 10.904 5.3941 10.9266 5.43335L11.6895 6.75318C11.712 6.79356 11.7193 6.84061 11.7101 6.88589C11.7009 6.93116 11.6759 6.97168 11.6395 7.00015L10.8397 7.62907C10.8546 7.75215 10.8619 7.87603 10.8616 8.00002Z" fill="black"/>
</svg>
