<svg width="16" height="16" viewBox="0 0 16 16" fill="none" xmlns="http://www.w3.org/2000/svg">
<path d="M6.98815 7.51608C6.71174 7.40995 6.4101 7.38801 6.12124 7.45303C5.83238 7.51804 5.56923 7.6671 5.36494 7.88142C5.16065 8.09573 5.02437 8.36572 4.97326 8.65736C4.92216 8.94901 4.95852 9.24925 5.07777 9.52026C5.19701 9.79127 5.3938 10.0209 5.64335 10.1803C5.89289 10.3396 6.18402 10.4216 6.48005 10.4157C6.77607 10.4099 7.06376 10.3166 7.30684 10.1476C7.54993 9.97853 7.73754 9.74132 7.84604 9.46583C7.91861 9.28156 7.95397 9.08475 7.95008 8.88675C7.94619 8.68874 7.90312 8.49347 7.82336 8.3122C7.7436 8.13093 7.62873 7.96725 7.48538 7.83061C7.34203 7.69397 7.17303 7.58707 6.98815 7.51608Z" fill="black"/>
<path d="M10.8237 5.0294C10.664 5.02941 10.508 5.07683 10.3753 5.16565C10.2427 5.25447 10.1394 5.38069 10.0785 5.5283C10.0177 5.67591 10.0021 5.83825 10.0337 5.99474C10.0653 6.15123 10.1426 6.29482 10.256 6.40728C10.3693 6.51974 10.5134 6.59602 10.6701 6.62643C10.8269 6.65685 10.9891 6.64003 11.1362 6.57811C11.2834 6.5162 11.4088 6.41197 11.4967 6.27865C11.5845 6.14534 11.6307 5.98894 11.6295 5.8293C11.6277 5.61669 11.542 5.41339 11.3911 5.26361C11.2402 5.11383 11.0363 5.02966 10.8237 5.0294Z" fill="black"/>
<path d="M8.00002 0.27002C1.81582 0.27002 0.27002 1.81582 0.27002 8.00002C0.27002 14.1842 1.81582 15.73 8.00002 15.73C14.1842 15.73 15.73 14.1842 15.73 8.00002C15.73 1.81582 14.1842 0.27002 8.00002 0.27002ZM9.21286 11.3526L8.21299 12.1525L7.49308 11.2526C7.07033 11.4418 6.60413 11.5126 6.14426 11.4576L5.72531 12.5394L4.52547 12.0725L4.94841 10.9996C4.61086 10.7589 4.33644 10.4403 4.14852 10.0708L2.92368 10.2567L2.7237 8.9509L3.88155 8.77492C3.91145 8.27421 4.08502 7.79272 4.38149 7.3881L3.66658 6.48821L4.66645 5.68832L5.38036 6.5792C5.8093 6.38575 6.28332 6.31447 6.75018 6.37323L7.16413 5.31037L8.35597 5.77231L7.94103 6.84017C8.32006 7.11056 8.61557 7.48194 8.79392 7.91203L9.93277 7.74005L10.1277 8.99989L8.98889 9.17987C8.96913 9.4086 8.91625 9.63325 8.83191 9.84678C8.74881 10.0636 8.635 10.2673 8.49396 10.4517L9.21286 11.3526ZM12.4124 7.3731L11.8695 7.05914C11.578 7.30828 11.2071 7.44517 10.8237 7.44517C10.4402 7.44517 10.0693 7.30828 9.77779 7.05914L9.23386 7.3731L8.69993 6.44422L9.24786 6.12526C9.22857 6.02948 9.21885 5.93201 9.21886 5.8343C9.21871 5.50205 9.32163 5.17793 9.51342 4.90662C9.70522 4.63531 9.97645 4.43018 10.2897 4.3195V3.68558H11.3626V4.3195C11.676 4.43001 11.9475 4.63507 12.1395 4.90639C12.3315 5.17772 12.4345 5.50192 12.4344 5.8343C12.4348 5.93198 12.4254 6.02944 12.4064 6.12526L12.9544 6.44422L12.4124 7.3731Z" fill="black"/>
</svg>
