<svg width="16" height="16" viewBox="0 0 16 16" fill="none" xmlns="http://www.w3.org/2000/svg">
<path d="M6.98812 7.51608C6.71171 7.40995 6.41007 7.38801 6.12121 7.45303C5.83235 7.51804 5.5692 7.6671 5.36491 7.88142C5.16062 8.09573 5.02434 8.36572 4.97323 8.65737C4.92213 8.94901 4.95849 9.24925 5.07774 9.52026C5.19698 9.79127 5.39377 10.0209 5.64332 10.1803C5.89286 10.3396 6.18399 10.4216 6.48002 10.4157C6.77604 10.4099 7.06372 10.3166 7.30681 10.1476C7.5499 9.97853 7.73751 9.74132 7.84601 9.46583C7.91858 9.28156 7.95394 9.08475 7.95005 8.88675C7.94615 8.68874 7.90309 8.49347 7.82333 8.3122C7.74357 8.13093 7.6287 7.96725 7.48535 7.83061C7.342 7.69397 7.173 7.58707 6.98812 7.51608Z" fill="black"/>
<path d="M10.8236 5.0294C10.664 5.02941 10.5079 5.07683 10.3753 5.16565C10.2426 5.25447 10.1393 5.38069 10.0785 5.5283C10.0177 5.67591 10.0021 5.83825 10.0337 5.99474C10.0653 6.15123 10.1426 6.29482 10.2559 6.40728C10.3692 6.51974 10.5134 6.59602 10.6701 6.62643C10.8268 6.65685 10.9891 6.64003 11.1362 6.57811C11.2834 6.5162 11.4088 6.41197 11.4966 6.27865C11.5845 6.14534 11.6307 5.98894 11.6295 5.8293C11.6277 5.61669 11.542 5.41339 11.3911 5.26361C11.2402 5.11383 11.0362 5.02966 10.8236 5.0294Z" fill="black"/>
<path d="M7.99999 0.27002C1.81579 0.27002 0.269989 1.81582 0.269989 8.00002C0.269989 14.1842 1.81579 15.73 7.99999 15.73C14.1842 15.73 15.73 14.1842 15.73 8.00002C15.73 1.81582 14.1842 0.27002 7.99999 0.27002ZM9.21283 11.3526L8.21296 12.1525L7.49305 11.2526C7.0703 11.4418 6.6041 11.5126 6.14423 11.4576L5.72528 12.5394L4.52544 12.0725L4.94838 10.9996C4.61083 10.7589 4.33641 10.4403 4.14849 10.0708L2.92365 10.2567L2.72367 8.9509L3.88152 8.77492C3.91142 8.27421 4.08499 7.79272 4.38146 7.3881L3.66655 6.48822L4.66642 5.68832L5.38033 6.5792C5.80927 6.38575 6.28329 6.31447 6.75015 6.37323L7.1641 5.31037L8.35594 5.77231L7.941 6.84017C8.32003 7.11056 8.61554 7.48194 8.79389 7.91203L9.93274 7.74005L10.1277 8.99989L8.98886 9.17987C8.9691 9.4086 8.91622 9.63325 8.83188 9.84678C8.74878 10.0636 8.63497 10.2673 8.49393 10.4517L9.21283 11.3526ZM12.4124 7.3731L11.8695 7.05914C11.578 7.30828 11.2071 7.44517 10.8236 7.44517C10.4402 7.44517 10.0693 7.30828 9.77776 7.05914L9.23383 7.3731L8.6999 6.44422L9.24783 6.12526C9.22853 6.02948 9.21882 5.93201 9.21883 5.8343C9.21868 5.50205 9.3216 5.17793 9.51339 4.90662C9.70519 4.63531 9.97642 4.43018 10.2897 4.3195V3.68558H11.3626V4.3195C11.676 4.43001 11.9475 4.63507 12.1394 4.90639C12.3314 5.17772 12.4345 5.50192 12.4344 5.8343C12.4348 5.93198 12.4254 6.02944 12.4064 6.12526L12.9543 6.44422L12.4124 7.3731Z" fill="black"/>
</svg>
