<svg width="16" height="16" viewBox="0 0 16 16" fill="none" xmlns="http://www.w3.org/2000/svg">
<path d="M5.45512 7.218H10.5451V10.426H5.45512V7.218ZM15.7501 8C15.7501 14.2 14.2001 15.75 8.00012 15.75C1.80012 15.75 0.250122 14.2 0.250122 8C0.250122 1.8 1.80012 0.25 8.00012 0.25C14.2001 0.25 15.7501 1.8 15.7501 8ZM11.7001 5.663C11.7001 5.54276 11.6524 5.42744 11.5675 5.34233C11.4826 5.25721 11.3674 5.20926 11.2471 5.209H10.5471V4.666C10.5471 4.55196 10.5018 4.44258 10.4212 4.36194C10.3405 4.2813 10.2312 4.236 10.1171 4.236H9.91712C9.80308 4.236 9.69371 4.2813 9.61307 4.36194C9.53242 4.44258 9.48712 4.55196 9.48712 4.666V5.209H6.51912V4.666C6.51912 4.55196 6.47382 4.44258 6.39318 4.36194C6.31254 4.2813 6.20317 4.236 6.08912 4.236H5.88912C5.77516 4.23626 5.66594 4.28165 5.58536 4.36224C5.50477 4.44282 5.45939 4.55204 5.45912 4.666V5.209H4.75912C4.63889 5.20926 4.52367 5.25721 4.43874 5.34233C4.35382 5.42744 4.30612 5.54276 4.30612 5.663V11.163C4.30612 11.2832 4.35382 11.3986 4.43874 11.4837C4.52367 11.5688 4.63889 11.6167 4.75912 11.617H11.2531C11.3734 11.6167 11.4886 11.5688 11.5735 11.4837C11.6584 11.3986 11.7061 11.2832 11.7061 11.163L11.7001 5.663Z" fill="black"/>
</svg>
