<svg width="16" height="16" viewBox="0 0 16 16" fill="none" xmlns="http://www.w3.org/2000/svg">
<path d="M8.00014 0.27002C1.81594 0.27002 0.270142 1.81582 0.270142 8.00002C0.270142 14.1842 1.81594 15.73 8.00014 15.73C14.1843 15.73 15.7301 14.1842 15.7301 8.00002C15.7301 1.81582 14.1843 0.27002 8.00014 0.27002ZM11.5837 6.6442L7.60019 10.6287C7.51663 10.7123 7.41741 10.7786 7.30821 10.8238C7.19902 10.8691 7.08197 10.8924 6.96378 10.8924C6.84558 10.8924 6.72854 10.8691 6.61934 10.8238C6.51014 10.7786 6.41092 10.7123 6.32736 10.6287L4.4176 8.71893C4.25474 8.54906 4.1649 8.32216 4.16732 8.08685C4.16975 7.85154 4.26426 7.62654 4.4306 7.46007C4.59693 7.29361 4.82186 7.19892 5.05717 7.19631C5.29248 7.19369 5.51945 7.28336 5.68944 7.44609L6.96328 8.71893L10.3108 5.37136C10.3944 5.28778 10.4936 5.22149 10.6028 5.17626C10.712 5.13103 10.8291 5.10775 10.9473 5.10775C11.0655 5.10775 11.1825 5.13103 11.2917 5.17626C11.4009 5.22149 11.5001 5.28778 11.5837 5.37136C11.6673 5.45494 11.7335 5.55415 11.7788 5.66335C11.824 5.77255 11.8473 5.88958 11.8473 6.00778C11.8473 6.12597 11.824 6.24301 11.7788 6.3522C11.7335 6.4614 11.6673 6.56062 11.5837 6.6442Z" fill="black"/>
</svg>
