<svg width="16" height="16" viewBox="0 0 16 16" fill="none" xmlns="http://www.w3.org/2000/svg">
<path d="M7.99999 0.27002C1.81579 0.27002 0.269989 1.81582 0.269989 8.00002C0.269989 14.1842 1.81579 15.73 7.99999 15.73C14.1842 15.73 15.73 14.1842 15.73 8.00002C15.73 1.81582 14.1842 0.27002 7.99999 0.27002ZM11.5835 6.6442L7.60004 10.6287C7.51647 10.7123 7.41726 10.7786 7.30806 10.8238C7.19886 10.8691 7.08182 10.8924 6.96362 10.8924C6.84542 10.8924 6.72838 10.8691 6.61918 10.8238C6.50999 10.7786 6.41077 10.7123 6.32721 10.6287L4.41745 8.71893C4.25459 8.54906 4.16474 8.32216 4.16717 8.08685C4.1696 7.85154 4.26411 7.62654 4.43044 7.46007C4.59678 7.29361 4.8217 7.19892 5.05701 7.19631C5.29233 7.19369 5.5193 7.28336 5.68929 7.44609L6.96312 8.71893L10.3107 5.37136C10.3943 5.28778 10.4935 5.22149 10.6027 5.17626C10.7119 5.13103 10.8289 5.10775 10.9471 5.10775C11.0653 5.10775 11.1823 5.13103 11.2915 5.17626C11.4007 5.22149 11.4999 5.28778 11.5835 5.37136C11.6671 5.45494 11.7334 5.55415 11.7786 5.66335C11.8239 5.77255 11.8471 5.88958 11.8471 6.00778C11.8471 6.12597 11.8239 6.24301 11.7786 6.3522C11.7334 6.4614 11.6671 6.56062 11.5835 6.6442Z" fill="black"/>
</svg>
