<svg width="16" height="16" viewBox="0 0 16 16" fill="none" xmlns="http://www.w3.org/2000/svg">
<path d="M8.00014 0.27002C1.81894 0.27002 0.270142 1.81582 0.270142 8.00002C0.270142 14.1842 1.81894 15.73 8.00014 15.73C14.1813 15.73 15.7301 14.1812 15.7301 8.00002C15.7301 1.81882 14.1843 0.27002 8.00014 0.27002ZM11.0288 11.6995C11.0293 11.7683 11.0025 11.8345 10.9544 11.8836C10.9062 11.9327 10.8406 11.9607 10.7718 11.9615L9.25198 11.9495C9.1832 11.9503 9.11691 11.9238 9.06762 11.8758C9.01833 11.8279 8.99007 11.7623 8.98901 11.6935C8.98901 11.6935 8.98901 11.5146 8.98901 10.2937C8.973 9.90335 8.87696 9.52042 8.70686 9.16869C8.53675 8.81696 8.29621 8.50392 8.00014 8.24899C7.70262 8.50424 7.4609 8.81809 7.29007 9.17092C7.11925 9.52376 7.02298 9.90802 7.00727 10.2997C7.00727 11.5146 7.00727 11.6995 7.00727 11.6995C7.00688 11.7335 6.99979 11.7671 6.98641 11.7984C6.97304 11.8297 6.95363 11.858 6.9293 11.8818C6.90498 11.9056 6.87621 11.9243 6.84464 11.9369C6.81307 11.9496 6.77931 11.9559 6.7453 11.9555L5.2245 11.9675C5.19045 11.9672 5.15679 11.9602 5.12546 11.9469C5.09413 11.9336 5.06575 11.9142 5.04196 11.8898C5.01816 11.8655 4.99942 11.8367 4.98682 11.805C4.97422 11.7734 4.968 11.7396 4.96853 11.7055C4.87644 9.98679 4.87111 8.26449 4.95254 6.54521L7.73318 4.14552C7.80636 4.08058 7.9008 4.04471 7.99864 4.04471C8.09648 4.04471 8.19093 4.08058 8.26411 4.14552L11.0417 6.54521C11.1245 8.26244 11.1201 9.98275 11.0288 11.6995Z" fill="black"/>
</svg>
