<svg width="16" height="16" viewBox="0 0 16 16" fill="none" xmlns="http://www.w3.org/2000/svg">
<path d="M7.99999 0.27002C1.81879 0.27002 0.269989 1.81582 0.269989 8.00002C0.269989 14.1842 1.81879 15.73 7.99999 15.73C14.1812 15.73 15.73 14.1812 15.73 8.00002C15.73 1.81882 14.1842 0.27002 7.99999 0.27002ZM11.0286 11.6995C11.0291 11.7683 11.0024 11.8345 10.9542 11.8836C10.9061 11.9327 10.8404 11.9607 10.7716 11.9615L9.25183 11.9495C9.18305 11.9503 9.11676 11.9238 9.06747 11.8758C9.01818 11.8279 8.98991 11.7623 8.98886 11.6935V11.6935C8.98886 11.6935 8.98886 11.5146 8.98886 10.2937C8.97285 9.90335 8.87681 9.52042 8.7067 9.16869C8.5366 8.81696 8.29606 8.50392 7.99999 8.24899C7.70247 8.50424 7.46075 8.81809 7.28992 9.17092C7.11909 9.52376 7.02282 9.90802 7.00712 10.2997C7.00712 11.5146 7.00712 11.6995 7.00712 11.6995C7.00673 11.7335 6.99964 11.7671 6.98626 11.7984C6.97288 11.8297 6.95348 11.858 6.92915 11.8818C6.90483 11.9056 6.87606 11.9243 6.84448 11.9369C6.81291 11.9496 6.77916 11.9559 6.74515 11.9555V11.9555L5.22435 11.9675C5.1903 11.9672 5.15664 11.9602 5.12531 11.9469C5.09398 11.9336 5.0656 11.9142 5.04181 11.8898C5.01801 11.8655 4.99927 11.8367 4.98667 11.805C4.97407 11.7734 4.96785 11.7396 4.96838 11.7055V11.7055C4.87629 9.98679 4.87095 8.26449 4.95238 6.54521V6.54521L7.73302 4.14552C7.8062 4.08058 7.90065 4.04471 7.99849 4.04471C8.09633 4.04471 8.19078 4.08058 8.26395 4.14552L11.0416 6.54521C11.1243 8.26244 11.12 9.98275 11.0286 11.6995V11.6995Z" fill="black"/>
</svg>
