<svg width="16" height="16" viewBox="0 0 16 16" fill="none" xmlns="http://www.w3.org/2000/svg">
<path d="M8 0.27002C1.8158 0.27002 0.270004 1.81582 0.270004 8.00002C0.270004 14.1842 1.8158 15.73 8 15.73C14.1842 15.73 15.73 14.1842 15.73 8.00002C15.73 1.81582 14.1842 0.27002 8 0.27002ZM8.22997 10.9296C8.16303 10.978 8.08257 11.004 8 11.004C7.91744 11.004 7.83698 10.978 7.77003 10.9296C6.79216 10.2397 3.12363 7.43909 5.23136 5.63033C5.59229 5.33928 6.04918 5.19406 6.51192 5.22331C6.97465 5.25255 7.40962 5.45414 7.73104 5.78831L8 6.05527L8.27097 5.78331C8.59239 5.44914 9.02736 5.24755 9.49009 5.21831C9.95282 5.18906 10.4097 5.33428 10.7706 5.62533C12.8764 7.43909 9.20785 10.2397 8.22997 10.9296Z" fill="black"/>
</svg>
