<svg width="16" height="16" viewBox="0 0 16 16" fill="none" xmlns="http://www.w3.org/2000/svg">
<path d="M8.00002 0.27002C1.81582 0.27002 0.27002 1.81582 0.27002 8.00002C0.27002 14.1842 1.81582 15.73 8.00002 15.73C14.1842 15.73 15.73 14.1842 15.73 8.00002C15.73 1.81582 14.1842 0.27002 8.00002 0.27002ZM8.22999 10.9296C8.16304 10.978 8.08258 11.004 8.00002 11.004C7.91746 11.004 7.83699 10.978 7.77005 10.9296C6.79218 10.2397 3.12365 7.43909 5.23138 5.63033C5.59231 5.33928 6.0492 5.19406 6.51193 5.22331C6.97466 5.25255 7.40964 5.45414 7.73105 5.78831L8.00002 6.05527L8.27098 5.78331C8.5924 5.44914 9.02738 5.24755 9.49011 5.21831C9.95284 5.18906 10.4097 5.33428 10.7707 5.62533C12.8764 7.43909 9.20786 10.2397 8.22999 10.9296Z" fill="black"/>
</svg>
