<svg width="16" height="16" viewBox="0 0 16 16" fill="none" xmlns="http://www.w3.org/2000/svg">
<path d="M8.00014 0.27002C1.81594 0.27002 0.270142 1.81582 0.270142 8.00002C0.270142 14.1842 1.81594 15.73 8.00014 15.73C14.1843 15.73 15.7301 14.1842 15.7301 8.00002C15.7301 1.81582 14.1843 0.27002 8.00014 0.27002ZM11.4377 9.61681H11.4247C11.4517 10.1907 10.8068 10.7267 9.94389 10.8277C9.05601 10.9276 8.28011 10.5367 8.21011 9.94477C8.14012 9.35284 8.80504 8.78392 9.69292 8.67993C9.96033 8.64795 10.2313 8.66455 10.4928 8.72893V5.87629L6.58033 7.15013V10.6997H6.56333C6.45992 11.0101 6.26205 11.2803 5.99743 11.4727C5.73281 11.6651 5.41467 11.7699 5.08752 11.7725C4.19863 11.8725 3.42273 11.4806 3.35374 10.8886C3.28475 10.2967 3.94767 9.7328 4.83555 9.62781C5.10303 9.59664 5.37393 9.61357 5.63545 9.6778V6.37823C5.63545 6.19925 5.68244 5.95928 5.85542 5.90329C6.66731 5.64032 10.6338 4.33749 11.1457 4.19251C11.2127 4.18378 11.2805 4.20127 11.3349 4.24133C11.3893 4.28139 11.4261 4.34092 11.4377 4.40748V9.61681Z" fill="black"/>
</svg>
