<svg width="16" height="16" viewBox="0 0 16 16" fill="none" xmlns="http://www.w3.org/2000/svg">
<path d="M8.00002 0.27002C1.81582 0.27002 0.27002 1.81582 0.27002 8.00002C0.27002 14.1842 1.81582 15.73 8.00002 15.73C14.1842 15.73 15.73 14.1842 15.73 8.00002C15.73 1.81582 14.1842 0.27002 8.00002 0.27002ZM6.5772 4.68745C6.88737 4.68725 7.19062 4.77906 7.4486 4.95125C7.70658 5.12345 7.90768 5.3683 8.02647 5.65481C8.14525 5.94133 8.17639 6.25665 8.11592 6.56086C8.05546 6.86508 7.90612 7.14452 7.6868 7.36385C7.46748 7.58317 7.18804 7.7325 6.88382 7.79297C6.5796 7.85343 6.26429 7.8223 5.97777 7.70351C5.69125 7.58472 5.44641 7.38362 5.27421 7.12564C5.10202 6.86767 5.01021 6.56441 5.01041 6.25425C5.01067 5.83879 5.17583 5.44042 5.4696 5.14665C5.76338 4.85287 6.16174 4.68771 6.5772 4.68745V4.68745ZM8.9529 11.3126H4.18751V9.88378C4.18751 9.50457 4.33815 9.14089 4.6063 8.87274C4.87444 8.6046 5.23812 8.45396 5.61733 8.45396H7.52308C7.90229 8.45396 8.26597 8.6046 8.53411 8.87274C8.80226 9.14089 8.9529 9.50457 8.9529 9.88378V11.3126ZM10.1797 5.62533C10.4122 5.62612 10.6392 5.69578 10.832 5.8255C11.0249 5.95523 11.175 6.13921 11.2633 6.35419C11.3517 6.56918 11.3743 6.80553 11.3284 7.03338C11.2825 7.26124 11.1701 7.47038 11.0054 7.63438C10.8407 7.79839 10.6311 7.9099 10.4031 7.95483C10.175 7.99977 9.93876 7.97611 9.72415 7.88684C9.50954 7.79757 9.3262 7.64671 9.1973 7.4533C9.06839 7.25988 8.99969 7.03261 8.99989 6.80017C8.99989 6.64547 9.03044 6.49229 9.0898 6.34942C9.14915 6.20656 9.23614 6.07682 9.34576 5.96766C9.45539 5.8585 9.58549 5.77206 9.72861 5.71332C9.87172 5.65457 10.025 5.62467 10.1797 5.62533V5.62533ZM11.8125 10.3577H9.42983V9.88178C9.43148 9.62531 9.37759 9.37153 9.27186 9.13787C9.26121 9.09926 9.2454 9.06227 9.22486 9.02789C9.21078 8.99852 9.19474 8.97012 9.17687 8.9429C9.15581 8.90013 9.1321 8.85872 9.10588 8.81891C9.18618 8.70656 9.29188 8.61477 9.41437 8.551C9.53687 8.48723 9.67269 8.4533 9.81079 8.45196H10.9546C11.182 8.45249 11.3999 8.54304 11.5607 8.70381C11.7214 8.86459 11.812 9.08249 11.8125 9.30985V10.3577Z" fill="black"/>
</svg>
