<svg width="16" height="16" viewBox="0 0 16 16" fill="none" xmlns="http://www.w3.org/2000/svg">
<path d="M8.00002 0.27002C1.81582 0.27002 0.27002 1.81582 0.27002 8.00002C0.27002 14.1842 1.81582 15.73 8.00002 15.73C14.1842 15.73 15.73 14.1842 15.73 8.00002C15.73 1.81582 14.1842 0.27002 8.00002 0.27002ZM5.90829 10.7837C5.90829 10.882 5.86921 10.9764 5.79964 11.046C5.73007 11.1155 5.63572 11.1546 5.53734 11.1546H4.80043C4.70222 11.1543 4.60813 11.1151 4.53878 11.0456C4.46943 10.9761 4.43048 10.8819 4.43048 10.7837V5.21638C4.43048 5.11817 4.46943 5.02397 4.53878 4.95443C4.60813 4.88489 4.70222 4.84569 4.80043 4.84543H5.54134C5.63972 4.84543 5.73407 4.88451 5.80364 4.95408C5.87321 5.02364 5.91229 5.118 5.91229 5.21638L5.90829 10.7837ZM11.5736 10.7837C11.5736 10.8819 11.5346 10.9761 11.4653 11.0456C11.3959 11.1151 11.3018 11.1543 11.2036 11.1546H7.44709C7.39842 11.1546 7.35024 11.145 7.30529 11.1264C7.26034 11.1077 7.21951 11.0804 7.18514 11.0459C7.15077 11.0114 7.12355 10.9705 7.10501 10.9255C7.08648 10.8805 7.07701 10.8323 7.07714 10.7837V10.0268C7.07714 9.92864 7.11612 9.83454 7.1855 9.76516C7.25487 9.69578 7.34897 9.6568 7.44709 9.6568H11.1996C11.2977 9.6568 11.3918 9.69578 11.4612 9.76516C11.5306 9.83454 11.5696 9.92864 11.5696 10.0268L11.5736 10.7837ZM11.5736 8.08401C11.5736 8.18222 11.5346 8.27642 11.4653 8.34596C11.3959 8.4155 11.3018 8.4547 11.2036 8.45496H7.44709C7.39842 8.45496 7.35024 8.44536 7.30529 8.4267C7.26034 8.40805 7.21951 8.38071 7.18514 8.34625C7.15077 8.31179 7.12355 8.27089 7.10501 8.22589C7.08648 8.18089 7.07701 8.13268 7.07714 8.08401V5.21638C7.07701 5.16771 7.08648 5.1195 7.10501 5.0745C7.12355 5.0295 7.15077 4.9886 7.18514 4.95414C7.21951 4.91968 7.26034 4.89234 7.30529 4.87368C7.35024 4.85503 7.39842 4.84543 7.44709 4.84543H11.1996C11.2978 4.84569 11.3919 4.88489 11.4613 4.95443C11.5306 5.02397 11.5696 5.11817 11.5696 5.21638L11.5736 8.08401Z" fill="black"/>
</svg>
