<svg width="16" height="16" viewBox="0 0 16 16" fill="none" xmlns="http://www.w3.org/2000/svg">
<path d="M15.7303 8.00002C15.7303 14.1842 14.1845 15.73 8.00026 15.73C1.81606 15.73 0.270264 14.1842 0.270264 8.00002C0.270264 1.81582 1.81606 0.27002 8.00026 0.27002C14.1845 0.27002 15.7303 1.81582 15.7303 8.00002ZM7.40034 9.06188C7.39956 8.93961 7.35063 8.82257 7.26417 8.73611C7.17771 8.64965 7.06067 8.60073 6.9384 8.59994H4.89267C4.83144 8.59981 4.77079 8.61177 4.7142 8.63514C4.65761 8.65851 4.6062 8.69283 4.5629 8.73612C4.51961 8.77941 4.48529 8.83083 4.46193 8.88742C4.43856 8.94401 4.42659 9.00466 4.42673 9.06588V11.1116C4.42659 11.1728 4.43856 11.2335 4.46193 11.2901C4.48529 11.3467 4.51961 11.3981 4.5629 11.4414C4.6062 11.4847 4.65761 11.519 4.7142 11.5424C4.77079 11.5657 4.83144 11.5777 4.89267 11.5776H6.9384C6.99963 11.5777 7.06027 11.5657 7.11686 11.5424C7.17345 11.519 7.22487 11.4847 7.26816 11.4414C7.31146 11.3981 7.34577 11.3467 7.36914 11.2901C7.39251 11.2335 7.40447 11.1728 7.40434 11.1116L7.40034 9.06188ZM7.40034 4.89242C7.40047 4.8312 7.38851 4.77055 7.36514 4.71396C7.34177 4.65737 7.30746 4.60595 7.26416 4.56266C7.22087 4.51937 7.16945 4.48505 7.11286 4.46168C7.05627 4.43831 6.99563 4.42635 6.9344 4.42648H4.89267C4.83144 4.42635 4.77079 4.43831 4.7142 4.46168C4.65761 4.48505 4.6062 4.51937 4.5629 4.56266C4.51961 4.60595 4.48529 4.65737 4.46193 4.71396C4.43856 4.77055 4.42659 4.8312 4.42673 4.89242V6.93816C4.42659 6.99938 4.43856 7.06003 4.46193 7.11662C4.48529 7.17321 4.51961 7.22463 4.5629 7.26792C4.6062 7.31121 4.65761 7.34553 4.7142 7.3689C4.77079 7.39227 4.83144 7.40423 4.89267 7.4041H6.9384C7.06136 7.4033 7.17901 7.35383 7.26558 7.26651C7.35215 7.17918 7.40061 7.06112 7.40034 6.93816V4.89242ZM11.5698 9.06188C11.5699 9.00066 11.558 8.94001 11.5346 8.88342C11.5112 8.82683 11.4769 8.77541 11.4336 8.73212C11.3903 8.68883 11.3389 8.65451 11.2823 8.63114C11.2257 8.60777 11.1651 8.59581 11.1039 8.59594H9.06213C9.0009 8.59581 8.94025 8.60777 8.88366 8.63114C8.82707 8.65451 8.77566 8.68883 8.73236 8.73212C8.68907 8.77541 8.65475 8.82683 8.63139 8.88342C8.60802 8.94001 8.59605 9.00066 8.59619 9.06188V11.1076C8.59605 11.1688 8.60802 11.2295 8.63139 11.2861C8.65475 11.3427 8.68907 11.3941 8.73236 11.4374C8.77566 11.4807 8.82707 11.515 8.88366 11.5384C8.94025 11.5617 9.0009 11.5737 9.06213 11.5736H11.1079C11.1691 11.5737 11.2297 11.5617 11.2863 11.5384C11.3429 11.515 11.3943 11.4807 11.4376 11.4374C11.4809 11.3941 11.5152 11.3427 11.5386 11.2861C11.562 11.2295 11.5739 11.1688 11.5738 11.1076L11.5698 9.06188ZM11.5698 4.89242C11.5699 4.8312 11.558 4.77055 11.5346 4.71396C11.5112 4.65737 11.4769 4.60595 11.4336 4.56266C11.3903 4.51937 11.3389 4.48505 11.2823 4.46168C11.2257 4.43831 11.1651 4.42635 11.1039 4.42648H9.06213C9.0009 4.42635 8.94025 4.43831 8.88366 4.46168C8.82707 4.48505 8.77566 4.51937 8.73236 4.56266C8.68907 4.60595 8.65475 4.65737 8.63139 4.71396C8.60802 4.77055 8.59605 4.8312 8.59619 4.89242V6.93816C8.59605 6.99938 8.60802 7.06003 8.63139 7.11662C8.65475 7.17321 8.68907 7.22463 8.73236 7.26792C8.77566 7.31121 8.82707 7.34553 8.88366 7.3689C8.94025 7.39227 9.0009 7.40423 9.06213 7.4041H11.1079C11.1691 7.40423 11.2297 7.39227 11.2863 7.3689C11.3429 7.34553 11.3943 7.31121 11.4376 7.26792C11.4809 7.22463 11.5152 7.17321 11.5386 7.11662C11.562 7.06003 11.5739 6.99938 11.5738 6.93816L11.5698 4.89242Z" fill="black"/>
</svg>
