<svg width="16" height="16" viewBox="0 0 16 16" fill="none" xmlns="http://www.w3.org/2000/svg">
<path d="M15.7301 8.00002C15.7301 14.1842 14.1843 15.73 8.00014 15.73C1.81594 15.73 0.270142 14.1842 0.270142 8.00002C0.270142 1.81582 1.81594 0.27002 8.00014 0.27002C14.1843 0.27002 15.7301 1.81582 15.7301 8.00002ZM7.40022 9.06188C7.39943 8.93961 7.35051 8.82257 7.26405 8.73611C7.17759 8.64965 7.06055 8.60073 6.93828 8.59994H4.89254C4.83132 8.59981 4.77067 8.61177 4.71408 8.63514C4.65749 8.65851 4.60607 8.69283 4.56278 8.73612C4.51949 8.77941 4.48517 8.83083 4.4618 8.88742C4.43843 8.94401 4.42647 9.00466 4.4266 9.06588V11.1116C4.42647 11.1728 4.43843 11.2335 4.4618 11.2901C4.48517 11.3467 4.51949 11.3981 4.56278 11.4414C4.60607 11.4847 4.65749 11.519 4.71408 11.5424C4.77067 11.5657 4.83132 11.5777 4.89254 11.5776H6.93828C6.9995 11.5777 7.06015 11.5657 7.11674 11.5424C7.17333 11.519 7.22475 11.4847 7.26804 11.4414C7.31133 11.3981 7.34565 11.3467 7.36902 11.2901C7.39239 11.2335 7.40435 11.1728 7.40422 11.1116L7.40022 9.06188ZM7.40022 4.89242C7.40035 4.8312 7.38839 4.77055 7.36502 4.71396C7.34165 4.65737 7.30734 4.60595 7.26404 4.56266C7.22075 4.51937 7.16933 4.48505 7.11274 4.46168C7.05615 4.43831 6.9955 4.42635 6.93428 4.42648H4.89254C4.83132 4.42635 4.77067 4.43831 4.71408 4.46168C4.65749 4.48505 4.60607 4.51937 4.56278 4.56266C4.51949 4.60595 4.48517 4.65737 4.4618 4.71396C4.43843 4.77055 4.42647 4.8312 4.4266 4.89242V6.93816C4.42647 6.99938 4.43843 7.06003 4.4618 7.11662C4.48517 7.17321 4.51949 7.22463 4.56278 7.26792C4.60607 7.31121 4.65749 7.34553 4.71408 7.3689C4.77067 7.39227 4.83132 7.40423 4.89254 7.4041H6.93828C7.06124 7.4033 7.17888 7.35383 7.26546 7.26651C7.35203 7.17918 7.40049 7.06112 7.40022 6.93816V4.89242ZM11.5697 9.06188C11.5698 9.00066 11.5578 8.94001 11.5345 8.88342C11.5111 8.82683 11.4768 8.77541 11.4335 8.73212C11.3902 8.68883 11.3388 8.65451 11.2822 8.63114C11.2256 8.60777 11.165 8.59581 11.1037 8.59594H9.062C9.00078 8.59581 8.94013 8.60777 8.88354 8.63114C8.82695 8.65451 8.77553 8.68883 8.73224 8.73212C8.68895 8.77541 8.65463 8.82683 8.63126 8.88342C8.60789 8.94001 8.59593 9.00066 8.59606 9.06188V11.1076C8.59593 11.1688 8.60789 11.2295 8.63126 11.2861C8.65463 11.3427 8.68895 11.3941 8.73224 11.4374C8.77553 11.4807 8.82695 11.515 8.88354 11.5384C8.94013 11.5617 9.00078 11.5737 9.062 11.5736H11.1077C11.169 11.5737 11.2296 11.5617 11.2862 11.5384C11.3428 11.515 11.3942 11.4807 11.4375 11.4374C11.4808 11.3941 11.5151 11.3427 11.5385 11.2861C11.5618 11.2295 11.5738 11.1688 11.5737 11.1076L11.5697 9.06188ZM11.5697 4.89242C11.5698 4.8312 11.5578 4.77055 11.5345 4.71396C11.5111 4.65737 11.4768 4.60595 11.4335 4.56266C11.3902 4.51937 11.3388 4.48505 11.2822 4.46168C11.2256 4.43831 11.165 4.42635 11.1037 4.42648H9.062C9.00078 4.42635 8.94013 4.43831 8.88354 4.46168C8.82695 4.48505 8.77553 4.51937 8.73224 4.56266C8.68895 4.60595 8.65463 4.65737 8.63126 4.71396C8.60789 4.77055 8.59593 4.8312 8.59606 4.89242V6.93816C8.59593 6.99938 8.60789 7.06003 8.63126 7.11662C8.65463 7.17321 8.68895 7.22463 8.73224 7.26792C8.77553 7.31121 8.82695 7.34553 8.88354 7.3689C8.94013 7.39227 9.00078 7.40423 9.062 7.4041H11.1077C11.169 7.40423 11.2296 7.39227 11.2862 7.3689C11.3428 7.34553 11.3942 7.31121 11.4375 7.26792C11.4808 7.22463 11.5151 7.17321 11.5385 7.11662C11.5618 7.06003 11.5738 6.99938 11.5737 6.93816L11.5697 4.89242Z" fill="black"/>
</svg>
