<svg width="16" height="16" viewBox="0 0 16 16" fill="none" xmlns="http://www.w3.org/2000/svg">
<path d="M15.73 8.00002C15.73 14.1842 14.1842 15.73 8 15.73C1.8158 15.73 0.270004 14.1842 0.270004 8.00002C0.270004 1.81582 1.8158 0.27002 8 0.27002C14.1842 0.27002 15.73 1.81582 15.73 8.00002ZM7.40008 9.06188C7.3993 8.93961 7.35037 8.82257 7.26391 8.73611C7.17745 8.64965 7.06041 8.60073 6.93814 8.59994H4.89241C4.83118 8.59981 4.77053 8.61177 4.71394 8.63514C4.65735 8.65851 4.60594 8.69283 4.56264 8.73612C4.51935 8.77941 4.48503 8.83083 4.46167 8.88742C4.4383 8.94401 4.42633 9.00466 4.42647 9.06588V11.1116C4.42633 11.1728 4.4383 11.2335 4.46167 11.2901C4.48503 11.3467 4.51935 11.3981 4.56264 11.4414C4.60594 11.4847 4.65735 11.519 4.71394 11.5424C4.77053 11.5657 4.83118 11.5777 4.89241 11.5776H6.93814C6.99937 11.5777 7.06002 11.5657 7.11661 11.5424C7.1732 11.519 7.22461 11.4847 7.2679 11.4414C7.3112 11.3981 7.34551 11.3467 7.36888 11.2901C7.39225 11.2335 7.40421 11.1728 7.40408 11.1116L7.40008 9.06188ZM7.40008 4.89242C7.40021 4.8312 7.38825 4.77055 7.36488 4.71396C7.34151 4.65737 7.3072 4.60595 7.26391 4.56266C7.22061 4.51937 7.1692 4.48505 7.11261 4.46168C7.05602 4.43831 6.99537 4.42635 6.93414 4.42648H4.89241C4.83118 4.42635 4.77053 4.43831 4.71394 4.46168C4.65735 4.48505 4.60594 4.51937 4.56264 4.56266C4.51935 4.60595 4.48503 4.65737 4.46167 4.71396C4.4383 4.77055 4.42633 4.8312 4.42647 4.89242V6.93816C4.42633 6.99938 4.4383 7.06003 4.46167 7.11662C4.48503 7.17321 4.51935 7.22463 4.56264 7.26792C4.60594 7.31121 4.65735 7.34553 4.71394 7.3689C4.77053 7.39227 4.83118 7.40423 4.89241 7.4041H6.93814C7.0611 7.4033 7.17875 7.35383 7.26532 7.26651C7.35189 7.17919 7.40035 7.06112 7.40008 6.93816V4.89242ZM11.5695 9.06188C11.5697 9.00066 11.5577 8.94001 11.5343 8.88342C11.511 8.82683 11.4767 8.77541 11.4334 8.73212C11.3901 8.68883 11.3387 8.65451 11.2821 8.63114C11.2255 8.60777 11.1648 8.59581 11.1036 8.59594H9.06187C9.00064 8.59581 8.93999 8.60777 8.8834 8.63114C8.82681 8.65451 8.7754 8.68883 8.7321 8.73212C8.68881 8.77541 8.6545 8.82683 8.63113 8.88342C8.60776 8.94001 8.5958 9.00066 8.59593 9.06188V11.1076C8.5958 11.1688 8.60776 11.2295 8.63113 11.2861C8.6545 11.3427 8.68881 11.3941 8.7321 11.4374C8.7754 11.4807 8.82681 11.515 8.8834 11.5384C8.93999 11.5617 9.00064 11.5737 9.06187 11.5736H11.1076C11.1688 11.5737 11.2295 11.5617 11.2861 11.5384C11.3427 11.515 11.3941 11.4807 11.4374 11.4374C11.4807 11.3941 11.515 11.3427 11.5383 11.2861C11.5617 11.2295 11.5737 11.1688 11.5735 11.1076L11.5695 9.06188ZM11.5695 4.89242C11.5697 4.8312 11.5577 4.77055 11.5343 4.71396C11.511 4.65737 11.4767 4.60595 11.4334 4.56266C11.3901 4.51937 11.3387 4.48505 11.2821 4.46168C11.2255 4.43831 11.1648 4.42635 11.1036 4.42648H9.06187C9.00064 4.42635 8.93999 4.43831 8.8834 4.46168C8.82681 4.48505 8.7754 4.51937 8.7321 4.56266C8.68881 4.60595 8.6545 4.65737 8.63113 4.71396C8.60776 4.77055 8.5958 4.8312 8.59593 4.89242V6.93816C8.5958 6.99938 8.60776 7.06003 8.63113 7.11662C8.6545 7.17321 8.68881 7.22463 8.7321 7.26792C8.7754 7.31121 8.82681 7.34553 8.8834 7.3689C8.93999 7.39227 9.00064 7.40423 9.06187 7.4041H11.1076C11.1688 7.40423 11.2295 7.39227 11.2861 7.3689C11.3427 7.34553 11.3941 7.31121 11.4374 7.26792C11.4807 7.22463 11.515 7.17321 11.5383 7.11662C11.5617 7.06003 11.5737 6.99938 11.5735 6.93816L11.5695 4.89242Z" fill="black"/>
</svg>
