<svg width="16" height="16" viewBox="0 0 16 16" fill="none" xmlns="http://www.w3.org/2000/svg">
<path d="M8.00024 0.25C1.80024 0.25 0.250244 1.8 0.250244 8C0.250244 14.2 1.80024 15.75 8.00024 15.75C14.2002 15.75 15.7502 14.2 15.7502 8C15.7502 1.8 14.2002 0.25 8.00024 0.25ZM4.47524 11.508C4.31267 11.508 4.15374 11.4598 4.01857 11.3695C3.88339 11.2791 3.77803 11.1508 3.71582 11.0006C3.6536 10.8504 3.63732 10.6851 3.66904 10.5256C3.70076 10.3662 3.77904 10.2197 3.894 10.1048C4.00896 9.9898 4.15543 9.91151 4.31488 9.87979C4.47433 9.84808 4.63961 9.86436 4.78981 9.92657C4.94001 9.98879 5.06839 10.0941 5.15871 10.2293C5.24903 10.3645 5.29724 10.5234 5.29724 10.686C5.29724 10.904 5.21064 11.1131 5.05649 11.2672C4.90233 11.4214 4.69325 11.508 4.47524 11.508ZM4.47524 8.835C4.31275 8.83441 4.15409 8.78567 4.01928 8.69494C3.88448 8.60421 3.77959 8.47557 3.71786 8.32526C3.65614 8.17495 3.64034 8.00972 3.67248 7.85044C3.70462 7.69116 3.78324 7.54497 3.89842 7.43035C4.01359 7.31573 4.16016 7.23782 4.31959 7.20646C4.47903 7.1751 4.64418 7.19169 4.79419 7.25415C4.9442 7.31661 5.07233 7.42212 5.1624 7.55736C5.25247 7.69261 5.30044 7.85151 5.30024 8.014C5.30011 8.12212 5.27866 8.22914 5.2371 8.32895C5.19554 8.42876 5.13471 8.51939 5.05807 8.59566C4.98144 8.67192 4.89051 8.73232 4.7905 8.77339C4.69049 8.81446 4.58336 8.83539 4.47524 8.835ZM4.47524 6.163C4.3128 6.16241 4.15417 6.11369 4.01939 6.02301C3.8846 5.93233 3.77971 5.80374 3.71796 5.65349C3.6562 5.50324 3.64035 5.33806 3.67241 5.1788C3.70446 5.01955 3.78298 4.87336 3.89806 4.75871C4.01314 4.64405 4.15961 4.56606 4.31898 4.53458C4.47835 4.50311 4.64347 4.51956 4.7935 4.58186C4.94353 4.64417 5.07173 4.74952 5.16192 4.88463C5.25211 5.01975 5.30024 5.17855 5.30024 5.341C5.30025 5.4492 5.27888 5.55633 5.23739 5.65626C5.19589 5.75619 5.13507 5.84694 5.05843 5.92331C4.98178 5.99967 4.89081 6.06016 4.79073 6.10129C4.69066 6.14242 4.58344 6.16339 4.47524 6.163ZM11.8942 11.052C11.8942 11.1015 11.8845 11.1505 11.8655 11.1963C11.8466 11.242 11.8188 11.2836 11.7838 11.3186C11.7488 11.3536 11.7073 11.3814 11.6615 11.4003C11.6158 11.4192 11.5668 11.429 11.5172 11.429H6.56624C6.46626 11.429 6.37037 11.3893 6.29966 11.3186C6.22896 11.2479 6.18924 11.152 6.18924 11.052V10.32C6.18924 10.22 6.22896 10.1241 6.29966 10.0534C6.37037 9.98272 6.46626 9.943 6.56624 9.943H11.5172C11.6172 9.943 11.7131 9.98272 11.7838 10.0534C11.8545 10.1241 11.8942 10.22 11.8942 10.32V11.052ZM11.8942 8.38C11.8942 8.42946 11.8845 8.47844 11.8655 8.52412C11.8466 8.5698 11.8188 8.6113 11.7838 8.64623C11.7487 8.68115 11.7072 8.70883 11.6614 8.72767C11.6157 8.7465 11.5667 8.75613 11.5172 8.756H6.56624C6.51678 8.75613 6.46778 8.7465 6.42205 8.72767C6.37631 8.70883 6.33475 8.68115 6.29973 8.64623C6.2647 8.6113 6.23692 8.5698 6.21796 8.52412C6.199 8.47844 6.18924 8.42946 6.18924 8.38V7.647C6.18924 7.59754 6.199 7.54856 6.21796 7.50288C6.23692 7.4572 6.2647 7.4157 6.29973 7.38077C6.33475 7.34585 6.37631 7.31817 6.42205 7.29933C6.46778 7.2805 6.51678 7.27087 6.56624 7.271H11.5172C11.5667 7.27087 11.6157 7.2805 11.6614 7.29933C11.7072 7.31817 11.7487 7.34585 11.7838 7.38077C11.8188 7.4157 11.8466 7.4572 11.8655 7.50288C11.8845 7.54856 11.8942 7.59754 11.8942 7.647V8.38ZM11.8942 5.707C11.8942 5.75651 11.8845 5.80553 11.8655 5.85127C11.8466 5.89701 11.8188 5.93857 11.7838 5.97358C11.7488 6.00859 11.7073 6.03636 11.6615 6.0553C11.6158 6.07425 11.5668 6.084 11.5172 6.084H6.56624C6.46626 6.084 6.37037 6.04428 6.29966 5.97358C6.22896 5.90288 6.18924 5.80699 6.18924 5.707V4.975C6.18977 4.87536 6.22973 4.77998 6.30037 4.70971C6.37101 4.63944 6.4666 4.6 6.56624 4.6H11.5172C11.6172 4.6 11.7131 4.63972 11.7838 4.71042C11.8545 4.78112 11.8942 4.87701 11.8942 4.977V5.707Z" fill="black"/>
</svg>
