<svg width="16" height="16" viewBox="0 0 16 16" fill="none" xmlns="http://www.w3.org/2000/svg">
<path d="M8 0.25C1.8 0.25 0.25 1.8 0.25 8C0.25 14.2 1.8 15.75 8 15.75C14.2 15.75 15.75 14.2 15.75 8C15.75 1.8 14.2 0.25 8 0.25ZM4.475 11.508C4.31242 11.508 4.1535 11.4598 4.01832 11.3695C3.88314 11.2791 3.77779 11.1508 3.71557 11.0006C3.65336 10.8504 3.63708 10.6851 3.66879 10.5256C3.70051 10.3662 3.7788 10.2197 3.89376 10.1048C4.00872 9.9898 4.15518 9.91151 4.31464 9.87979C4.47409 9.84808 4.63936 9.86436 4.78957 9.92657C4.93977 9.98879 5.06815 10.0941 5.15847 10.2293C5.24879 10.3645 5.297 10.5234 5.297 10.686C5.297 10.904 5.2104 11.1131 5.05624 11.2672C4.90209 11.4214 4.69301 11.508 4.475 11.508ZM4.475 8.835C4.31251 8.83441 4.15384 8.78567 4.01904 8.69494C3.88423 8.60421 3.77934 8.47557 3.71762 8.32526C3.65589 8.17495 3.6401 8.00972 3.67224 7.85044C3.70437 7.69116 3.783 7.54497 3.89817 7.43035C4.01335 7.31573 4.15991 7.23782 4.31935 7.20646C4.47879 7.1751 4.64394 7.19169 4.79395 7.25415C4.94396 7.31661 5.07209 7.42212 5.16216 7.55736C5.25223 7.69261 5.3002 7.85151 5.3 8.014C5.29987 8.12212 5.27841 8.22914 5.23686 8.32895C5.1953 8.42876 5.13446 8.51939 5.05783 8.59566C4.98119 8.67192 4.89027 8.73232 4.79026 8.77339C4.69025 8.81446 4.58311 8.83539 4.475 8.835ZM4.475 6.163C4.31255 6.16241 4.15392 6.11369 4.01914 6.02301C3.88436 5.93233 3.77947 5.80374 3.71771 5.65349C3.65596 5.50324 3.64011 5.33806 3.67216 5.1788C3.70422 5.01955 3.78274 4.87336 3.89782 4.75871C4.0129 4.64405 4.15937 4.56606 4.31874 4.53458C4.47811 4.50311 4.64323 4.51956 4.79325 4.58186C4.94328 4.64417 5.07148 4.74952 5.16167 4.88463C5.25186 5.01975 5.3 5.17855 5.3 5.341C5.3 5.4492 5.27864 5.55633 5.23714 5.65626C5.19565 5.75619 5.13483 5.84694 5.05818 5.92331C4.98153 5.99967 4.89056 6.06016 4.79049 6.10129C4.69041 6.14242 4.5832 6.16339 4.475 6.163ZM11.894 11.052C11.894 11.1015 11.8842 11.1505 11.8653 11.1963C11.8464 11.242 11.8186 11.2836 11.7836 11.3186C11.7486 11.3536 11.707 11.3814 11.6613 11.4003C11.6155 11.4192 11.5665 11.429 11.517 11.429H6.566C6.46601 11.429 6.37012 11.3893 6.29942 11.3186C6.22872 11.2479 6.189 11.152 6.189 11.052V10.32C6.189 10.22 6.22872 10.1241 6.29942 10.0534C6.37012 9.98272 6.46601 9.943 6.566 9.943H11.517C11.617 9.943 11.7129 9.98272 11.7836 10.0534C11.8543 10.1241 11.894 10.22 11.894 10.32V11.052ZM11.894 8.38C11.894 8.42946 11.8842 8.47844 11.8653 8.52412C11.8463 8.5698 11.8185 8.6113 11.7835 8.64623C11.7485 8.68115 11.7069 8.70883 11.6612 8.72767C11.6155 8.7465 11.5665 8.75613 11.517 8.756H6.566C6.51654 8.75613 6.46754 8.7465 6.4218 8.72767C6.37607 8.70883 6.3345 8.68115 6.29948 8.64623C6.26446 8.6113 6.23667 8.5698 6.21772 8.52412C6.19876 8.47844 6.189 8.42946 6.189 8.38V7.647C6.189 7.59754 6.19876 7.54856 6.21772 7.50288C6.23667 7.4572 6.26446 7.4157 6.29948 7.38077C6.3345 7.34585 6.37607 7.31817 6.4218 7.29933C6.46754 7.2805 6.51654 7.27087 6.566 7.271H11.517C11.5665 7.27087 11.6155 7.2805 11.6612 7.29933C11.7069 7.31817 11.7485 7.34585 11.7835 7.38077C11.8185 7.4157 11.8463 7.4572 11.8653 7.50288C11.8842 7.54856 11.894 7.59754 11.894 7.647V8.38ZM11.894 5.707C11.894 5.75651 11.8842 5.80553 11.8653 5.85127C11.8464 5.89701 11.8186 5.93857 11.7836 5.97358C11.7486 6.00859 11.707 6.03636 11.6613 6.0553C11.6155 6.07425 11.5665 6.084 11.517 6.084H6.566C6.46601 6.084 6.37012 6.04428 6.29942 5.97358C6.22872 5.90288 6.189 5.80699 6.189 5.707V4.975C6.18953 4.87536 6.22948 4.77998 6.30013 4.70971C6.37077 4.63944 6.46636 4.6 6.566 4.6H11.517C11.617 4.6 11.7129 4.63972 11.7836 4.71042C11.8543 4.78112 11.894 4.87701 11.894 4.977V5.707Z" fill="black"/>
</svg>
