<svg width="16" height="16" viewBox="0 0 16 16" fill="none" xmlns="http://www.w3.org/2000/svg">
<path d="M8.00012 0.25C1.80012 0.25 0.250122 1.8 0.250122 8C0.250122 14.2 1.80012 15.75 8.00012 15.75C14.2001 15.75 15.7501 14.2 15.7501 8C15.7501 1.8 14.2001 0.25 8.00012 0.25ZM4.47512 11.508C4.31255 11.508 4.15362 11.4598 4.01844 11.3695C3.88327 11.2791 3.77791 11.1508 3.71569 11.0006C3.65348 10.8504 3.6372 10.6851 3.66892 10.5256C3.70063 10.3662 3.77892 10.2197 3.89388 10.1048C4.00884 9.9898 4.15531 9.91151 4.31476 9.87979C4.47421 9.84808 4.63949 9.86436 4.78969 9.92657C4.93989 9.98879 5.06827 10.0941 5.15859 10.2293C5.24891 10.3645 5.29712 10.5234 5.29712 10.686C5.29712 10.904 5.21052 11.1131 5.05636 11.2672C4.90221 11.4214 4.69313 11.508 4.47512 11.508ZM4.47512 8.835C4.31263 8.83441 4.15396 8.78567 4.01916 8.69494C3.88436 8.60421 3.77947 8.47557 3.71774 8.32526C3.65601 8.17495 3.64022 8.00972 3.67236 7.85044C3.70449 7.69116 3.78312 7.54497 3.8983 7.43035C4.01347 7.31573 4.16004 7.23782 4.31947 7.20646C4.47891 7.1751 4.64406 7.19169 4.79407 7.25415C4.94408 7.31661 5.07221 7.42212 5.16228 7.55736C5.25235 7.69261 5.30032 7.85151 5.30012 8.014C5.29999 8.12212 5.27853 8.22914 5.23698 8.32895C5.19542 8.42876 5.13458 8.51939 5.05795 8.59566C4.98132 8.67192 4.89039 8.73232 4.79038 8.77339C4.69037 8.81446 4.58324 8.83539 4.47512 8.835ZM4.47512 6.163C4.31267 6.16241 4.15405 6.11369 4.01926 6.02301C3.88448 5.93233 3.77959 5.80374 3.71784 5.65349C3.65608 5.50324 3.64023 5.33806 3.67228 5.1788C3.70434 5.01955 3.78286 4.87336 3.89794 4.75871C4.01302 4.64405 4.15949 4.56606 4.31886 4.53458C4.47823 4.50311 4.64335 4.51956 4.79338 4.58186C4.9434 4.64417 5.07161 4.74952 5.1618 4.88463C5.25199 5.01975 5.30012 5.17855 5.30012 5.341C5.30012 5.4492 5.27876 5.55633 5.23727 5.65626C5.19577 5.75619 5.13495 5.84694 5.0583 5.92331C4.98166 5.99967 4.89069 6.06016 4.79061 6.10129C4.69053 6.14242 4.58332 6.16339 4.47512 6.163ZM11.8941 11.052C11.8941 11.1015 11.8844 11.1505 11.8654 11.1963C11.8465 11.242 11.8187 11.2836 11.7837 11.3186C11.7487 11.3536 11.7071 11.3814 11.6614 11.4003C11.6157 11.4192 11.5666 11.429 11.5171 11.429H6.56612C6.46614 11.429 6.37024 11.3893 6.29954 11.3186C6.22884 11.2479 6.18912 11.152 6.18912 11.052V10.32C6.18912 10.22 6.22884 10.1241 6.29954 10.0534C6.37024 9.98272 6.46614 9.943 6.56612 9.943H11.5171C11.6171 9.943 11.713 9.98272 11.7837 10.0534C11.8544 10.1241 11.8941 10.22 11.8941 10.32V11.052ZM11.8941 8.38C11.8941 8.42946 11.8844 8.47844 11.8654 8.52412C11.8464 8.5698 11.8187 8.6113 11.7836 8.64623C11.7486 8.68115 11.7071 8.70883 11.6613 8.72767C11.6156 8.7465 11.5666 8.75613 11.5171 8.756H6.56612C6.51666 8.75613 6.46766 8.7465 6.42193 8.72767C6.37619 8.70883 6.33462 8.68115 6.2996 8.64623C6.26458 8.6113 6.2368 8.5698 6.21784 8.52412C6.19888 8.47844 6.18912 8.42946 6.18912 8.38V7.647C6.18912 7.59754 6.19888 7.54856 6.21784 7.50288C6.2368 7.4572 6.26458 7.4157 6.2996 7.38077C6.33462 7.34585 6.37619 7.31817 6.42193 7.29933C6.46766 7.2805 6.51666 7.27087 6.56612 7.271H11.5171C11.5666 7.27087 11.6156 7.2805 11.6613 7.29933C11.7071 7.31817 11.7486 7.34585 11.7836 7.38077C11.8187 7.4157 11.8464 7.4572 11.8654 7.50288C11.8844 7.54856 11.8941 7.59754 11.8941 7.647V8.38ZM11.8941 5.707C11.8941 5.75651 11.8844 5.80553 11.8654 5.85127C11.8465 5.89701 11.8187 5.93857 11.7837 5.97358C11.7487 6.00859 11.7071 6.03636 11.6614 6.0553C11.6157 6.07425 11.5666 6.084 11.5171 6.084H6.56612C6.46614 6.084 6.37024 6.04428 6.29954 5.97358C6.22884 5.90288 6.18912 5.80699 6.18912 5.707V4.975C6.18965 4.87536 6.2296 4.77998 6.30025 4.70971C6.37089 4.63944 6.46648 4.6 6.56612 4.6H11.5171C11.6171 4.6 11.713 4.63972 11.7837 4.71042C11.8544 4.78112 11.8941 4.87701 11.8941 4.977V5.707Z" fill="black"/>
</svg>
