<svg id="Layer_1" data-name="Layer 1" xmlns="http://www.w3.org/2000/svg" viewBox="0 0 32 32"><defs><style>.cls-1{fill:#f19900;}.cls-1,.cls-2{fill-rule:evenodd;}.cls-2{fill:#fff;}.cls-3{fill:#fec123;}.cls-4{fill:#4a4a4d;}</style></defs><title>color-projector-app</title><path class="cls-1" d="M30,26.973A3.027,3.027,0,0,1,26.973,30H5.027A3.027,3.027,0,0,1,2,26.973V5.027A3.027,3.027,0,0,1,5.027,2H26.973A3.027,3.027,0,0,1,30,5.027Z"/><path class="cls-2" d="M27,26.239a.761.761,0,0,1-.761.761H5.761A.761.761,0,0,1,5,26.239V5.761A.761.761,0,0,1,5.761,5H26.239A.761.761,0,0,1,27,5.761Z"/><path class="cls-3" d="M10,2H22a0,0,0,0,1,0,0V5.007A.993.993,0,0,1,21.007,6H10.993A.993.993,0,0,1,10,5.007V2A0,0,0,0,1,10,2Z"/><path class="cls-4" d="M18.452,16.663c-.209.151-2.954,2.522-3.2,2.683-.18.12-.416-.014-.416-.287V13.7c0-.251.212-.436.424-.29.17.117,2.9,2.474,3.189,2.676A.371.371,0,0,1,18.452,16.663ZM16,10a6.528,6.528,0,1,0,6.611,6.53A6.57,6.57,0,0,0,16,10Z"/></svg>