<svg id="Layer_1" data-name="Layer 1" xmlns="http://www.w3.org/2000/svg" viewBox="0 0 32 32"><defs><style>.cls-1,.cls-4{fill:#4a4a4d;}.cls-1,.cls-2{fill-rule:evenodd;}.cls-2{fill:#fff;}.cls-3{fill:#fec123;}</style></defs><title>color-interfaces-app</title><path class="cls-1" d="M30,26.973A3.027,3.027,0,0,1,26.973,30H5.027A3.027,3.027,0,0,1,2,26.973V5.027A3.027,3.027,0,0,1,5.027,2H26.973A3.027,3.027,0,0,1,30,5.027Z"/><path class="cls-2" d="M27,26.239a.761.761,0,0,1-.761.761H5.761A.761.761,0,0,1,5,26.239V5.761A.761.761,0,0,1,5.761,5H26.239A.761.761,0,0,1,27,5.761Z"/><path class="cls-3" d="M10,2H22a0,0,0,0,1,0,0V5.007A.993.993,0,0,1,21.007,6H10.993A.993.993,0,0,1,10,5.007V2A0,0,0,0,1,10,2Z"/><polygon class="cls-4" points="15.27 17.088 15.987 23.479 22 10 9.198 17.108 15.27 17.088"/></svg>