<svg id="6c53b94d-06a2-4bc2-8659-042cb5bab929" data-name="Layer 1" xmlns="http://www.w3.org/2000/svg" viewBox="0 0 18 18"><title>calendar</title><path d="M14.5,5.505v9H3.5v-9h11m.5-1.5H3a1,1,0,0,0-1,1v10a1,1,0,0,0,1,1H15a1,1,0,0,0,1-1v-10a1,1,0,0,0-1-1Z"/><polygon points="15 5.005 3 5.005 3 8.005 15 8.005 15 5.005 15 5.005"/><polygon points="5.75 2.005 4.25 2.005 4.25 5.005 5.75 5.005 5.75 2.005 5.75 2.005"/><polygon points="13.75 2.005 12.25 2.005 12.25 5.005 13.75 5.005 13.75 2.005 13.75 2.005"/><rect x="5.25" y="9.255" width="1.5" height="1.5"/><rect x="8.25" y="9.255" width="1.5" height="1.5"/><rect x="11.25" y="9.255" width="1.5" height="1.5"/></svg>