<svg id="Layer_1" data-name="Layer 1" xmlns="http://www.w3.org/2000/svg" viewBox="0 0 18 18"><title>cog</title><polygon points="8.25 12.333 9.75 12.333 9.562 15 8.437 15 8.25 12.333" style="fill:#008ae8"/><polygon points="8.437 3 9.562 3 9.75 5.667 8.25 5.667 8.437 3" style="fill:#008ae8"/><path d="M9,4.333A4.667,4.667,0,1,0,13.667,9,4.668,4.668,0,0,0,9,4.333ZM9,12a3,3,0,1,1,3-3A3,3,0,0,1,9,12Z" style="fill:#008ae8"/><polygon points="10.827 11.887 11.887 10.827 13.64 12.845 12.845 13.64 10.827 11.887" style="fill:#008ae8"/><polygon points="4.36 5.155 5.155 4.36 7.173 6.113 6.113 7.173 4.36 5.155" style="fill:#008ae8"/><polygon points="12.333 9.75 12.333 8.25 15 8.438 15 9.563 12.333 9.75" style="fill:#008ae8"/><polygon points="3 9.563 3 8.438 5.667 8.25 5.667 9.75 3 9.563" style="fill:#008ae8"/><polygon points="11.887 7.173 10.827 6.113 12.845 4.36 13.64 5.155 11.887 7.173" style="fill:#008ae8"/><polygon points="5.155 13.64 4.36 12.845 6.113 10.827 7.173 11.887 5.155 13.64" style="fill:#008ae8"/></svg>