<svg id="Layer_1" data-name="Layer 1" xmlns="http://www.w3.org/2000/svg" viewBox="0 0 18 18"><title>outbox</title><path d="M14.5,3.505v11H3.5v-11h11m.5-1.5H3a1,1,0,0,0-1,1v12a1,1,0,0,0,1,1H15a1,1,0,0,0,1-1v-12a1,1,0,0,0-1-1Z" style="fill:#008ae8"/><line x1="8.856" y1="10.005" x2="8.856" y2="5.837" style="fill:none;stroke:#008ae8;stroke-miterlimit:10;stroke-width:1.5px"/><polyline points="6.713 7.98 8.856 5.837 11 7.98" style="fill:none;stroke:#008ae8;stroke-miterlimit:10;stroke-width:1.5px"/><path d="M11,11.005a2,2,0,1,1-4,0H3v4H15v-4Z" style="fill:#008ae8"/></svg>