<svg id="04d3d60e-a8c5-43c4-9bf8-72c3e4feae29" data-name="Layer 1" xmlns="http://www.w3.org/2000/svg" viewBox="0 0 18 18"><title>outlined-question-circle</title><path d="M9,4.046a5.5,5.5,0,1,1-5.5,5.5A5.506,5.506,0,0,1,9,4.046m0-1.5a7,7,0,1,0,7,7,7,7,0,0,0-7-7Z"/><path d="M9.754,11.367h-1.5A3.074,3.074,0,0,1,9.137,9.2l.5-.508a1.008,1.008,0,0,0,.311-.887.966.966,0,0,0-1.905.227h-1.5a2.466,2.466,0,0,1,4.863-.58,2.5,2.5,0,0,1-.7,2.289l-.5.508A1.588,1.588,0,0,0,9.754,11.367Z"/><rect x="8.25" y="12.183" width="1.5" height="1.219"/></svg>