<svg id="f798a18a-9ee2-4870-8798-5d5a92db9dcd" data-name="Layer 1" xmlns="http://www.w3.org/2000/svg" viewBox="0 0 18 18"><title>outlined-to-cloud-arrow</title><path d="M13.686,7.722h-.213a.029.029,0,0,1-.029-.029A3.543,3.543,0,0,0,7.237,5.374,3.081,3.081,0,0,0,2.793,8.009a.027.027,0,0,1-.015.023,3.1,3.1,0,0,0-1.756,3.179,3.224,3.224,0,0,0,3.253,2.733h9.614A3.112,3.112,0,0,0,17,10.692,3.247,3.247,0,0,0,13.686,7.722Z" fill="none" stroke="#000" stroke-linejoin="round" stroke-width="1.5"/><line x1="9" y1="14.005" x2="9" y2="11.005" fill="none" stroke="#000" stroke-linejoin="round" stroke-width="2"/><polygon points="12 11.005 9 7.212 6 11.005 12 11.005"/></svg>