<svg id="5d60904e-48e5-4684-a515-9afbcb3227b3" data-name="Layer 1" xmlns="http://www.w3.org/2000/svg" viewBox="0 0 18 18"><title>person-cog</title><path d="M7.7,10.463c-1.764,0-5.3.886-5.3,2.649v1.893H13V13.112C13,11.349,9.465,10.463,7.7,10.463Z"/><path d="M7.7,9.454A2.776,2.776,0,1,0,4.926,6.678,2.764,2.764,0,0,0,7.7,9.454Z"/><circle cx="15.002" cy="8.101" r="1.5" fill="none" stroke="#000" stroke-miterlimit="10" stroke-width="1.5"/><line x1="15.734" y1="6.792" x2="16.465" y2="5.483" fill="none" stroke="#000" stroke-miterlimit="10" stroke-width="1.5"/><line x1="13.539" y1="10.719" x2="14.27" y2="9.41" fill="none" stroke="#000" stroke-miterlimit="10" stroke-width="1.5"/><line x1="14.29" y1="6.781" x2="13.578" y2="5.461" fill="none" stroke="#000" stroke-miterlimit="10" stroke-width="1.5"/><line x1="16.425" y1="10.741" x2="15.714" y2="9.421" fill="none" stroke="#000" stroke-miterlimit="10" stroke-width="1.5"/><line x1="13.503" y1="8.147" x2="12.004" y2="8.193" fill="none" stroke="#000" stroke-miterlimit="10" stroke-width="1.5"/><line x1="18" y1="8.008" x2="16.501" y2="8.055" fill="none" stroke="#000" stroke-miterlimit="10" stroke-width="1.5"/></svg>