<svg id="ff7efbd4-1a09-470e-94e2-a404e5afba71" data-name="Layer 1" xmlns="http://www.w3.org/2000/svg" viewBox="0 0 24 24"><title>two-blank-files</title><polygon points="20.994 5.423 17.571 2 17.571 5.423 20.994 5.423"/><path d="M14.714,2H8.143A1.143,1.143,0,0,0,7,3.143V16.857A1.143,1.143,0,0,0,8.143,18H19.857A1.143,1.143,0,0,0,21,16.857V8.28a1.143,1.143,0,0,0-1.143-1.143h-4V3.143A1.143,1.143,0,0,0,14.714,2Z"/><path d="M17,22H5.187A2.19,2.19,0,0,1,3,19.812V6H5V19.812A.188.188,0,0,0,5.187,20H17Z"/></svg>