<svg xmlns="http://www.w3.org/2000/svg" viewBox="0 0 16 16"><title>arrows-merging</title><g data-name="Layer 1"><path class="cls-1" d="M11.709 9H7.391a6.488 6.488 0 0 1-6.48-6.48V1.162a1 1 0 1 1 2 0V2.52A4.485 4.485 0 0 0 7.391 7h4.318a1 1 0 0 1 0 2z"/><path class="cls-1" d="M1.911 15.838a1 1 0 0 1-1-1V13.48A6.488 6.488 0 0 1 7.391 7h5.041a1 1 0 0 1 0 2H7.391a4.485 4.485 0 0 0-4.48 4.48v1.357a1 1 0 0 1-1 1.001z"/><path class="cls-1" d="M10.229 13.063a1 1 0 0 1-.707-1.707L12.877 8 9.522 4.645a1 1 0 1 1 1.414-1.415L15 7.293a1 1 0 0 1 0 1.414l-4.064 4.063a1 1 0 0 1-.707.293z"/></g></svg>