<svg xmlns="http://www.w3.org/2000/svg" viewBox="0 0 16 16"><title>cards</title><g data-name="Layer 1"><path class="cls-1" d="M.284 6.709h6.453V.256H.284zm0 9.034h6.453V9.291H.284zM9.318.256v6.453h6.453V.256zm0 15.487h6.453V9.291H9.318z" data-name="Layer 27"/><path class="cls-1" d="M.284 6.709h6.453V.256H.284zm0 9.034h6.453V9.291H.284zM9.318.256v6.453h6.453V.256zm0 15.487h6.453V9.291H9.318z" data-name="Layer 24"/><path class="cls-1" d="M.284 6.709h6.453V.256H.284zm0 9.034h6.453V9.291H.284zM9.318.256v6.453h6.453V.256zm0 15.487h6.453V9.291H9.318z" data-name="Layer 21"/><path class="cls-1" d="M.284 6.709h6.453V.256H.284zm0 9.034h6.453V9.291H.284zM9.318.256v6.453h6.453V.256zm0 15.487h6.453V9.291H9.318z" data-name="Layer 18"/><path class="cls-1" d="M.284 6.709h6.453V.256H.284zm0 9.034h6.453V9.291H.284zM9.318.256v6.453h6.453V.256zm0 15.487h6.453V9.291H9.318z" data-name="Layer 15"/><path class="cls-1" d="M.284 6.709h6.453V.256H.284zm0 9.034h6.453V9.291H.284zM9.318.256v6.453h6.453V.256zm0 15.487h6.453V9.291H9.318z" data-name="Layer 12"/><path class="cls-1" d="M.284 6.709h6.453V.256H.284zm0 9.034h6.453V9.291H.284zM9.318.256v6.453h6.453V.256zm0 15.487h6.453V9.291H9.318z" data-name="Layer 9"/><path class="cls-1" d="M.284 6.709h6.453V.256H.284zm0 9.034h6.453V9.291H.284zM9.318.256v6.453h6.453V.256zm0 15.487h6.453V9.291H9.318z" data-name="Layer 6"/><path class="cls-1" d="M.284 6.709h6.453V.256H.284zm0 9.034h6.453V9.291H.284zM9.318.256v6.453h6.453V.256zm0 15.487h6.453V9.291H9.318z" data-name="Layer 5"/></g></svg>