<svg xmlns="http://www.w3.org/2000/svg" viewBox="0 0 16 16"><defs><style>.cls-1{fill-rule:evenodd;}</style></defs><title>cards</title><g id="Layer_1" data-name="Layer 1"><g id="Layer_27" data-name="Layer 27"><path class="cls-1" d="M.284,6.709H6.737V.256H.284Zm0,9.034H6.737V9.291H.284ZM9.318.256V6.709h6.453V.256Zm0,15.487h6.453V9.291H9.318Z"/></g><g id="Layer_24" data-name="Layer 24"><path class="cls-1" d="M.284,6.709H6.737V.256H.284Zm0,9.034H6.737V9.291H.284ZM9.318.256V6.709h6.453V.256Zm0,15.487h6.453V9.291H9.318Z"/></g><g id="Layer_21" data-name="Layer 21"><path class="cls-1" d="M.284,6.709H6.737V.256H.284Zm0,9.034H6.737V9.291H.284ZM9.318.256V6.709h6.453V.256Zm0,15.487h6.453V9.291H9.318Z"/></g><g id="Layer_18" data-name="Layer 18"><path class="cls-1" d="M.284,6.709H6.737V.256H.284Zm0,9.034H6.737V9.291H.284ZM9.318.256V6.709h6.453V.256Zm0,15.487h6.453V9.291H9.318Z"/></g><g id="Layer_15" data-name="Layer 15"><path class="cls-1" d="M.284,6.709H6.737V.256H.284Zm0,9.034H6.737V9.291H.284ZM9.318.256V6.709h6.453V.256Zm0,15.487h6.453V9.291H9.318Z"/></g><g id="Layer_12" data-name="Layer 12"><path class="cls-1" d="M.284,6.709H6.737V.256H.284Zm0,9.034H6.737V9.291H.284ZM9.318.256V6.709h6.453V.256Zm0,15.487h6.453V9.291H9.318Z"/></g><g id="Layer_9" data-name="Layer 9"><path class="cls-1" d="M.284,6.709H6.737V.256H.284Zm0,9.034H6.737V9.291H.284ZM9.318.256V6.709h6.453V.256Zm0,15.487h6.453V9.291H9.318Z"/></g><g id="Layer_6" data-name="Layer 6"><path class="cls-1" d="M.284,6.709H6.737V.256H.284Zm0,9.034H6.737V9.291H.284ZM9.318.256V6.709h6.453V.256Zm0,15.487h6.453V9.291H9.318Z"/></g><g id="Layer_5" data-name="Layer 5"><path class="cls-1" d="M.284,6.709H6.737V.256H.284Zm0,9.034H6.737V9.291H.284ZM9.318.256V6.709h6.453V.256Zm0,15.487h6.453V9.291H9.318Z"/></g></g></svg>