<svg xmlns="http://www.w3.org/2000/svg" viewBox="0 0 16 16"><defs><style>.cls-1{fill-rule:evenodd}</style></defs><title>categories</title><g id="Layer_1" data-name="Layer 1"><path class="cls-1" d="M1.475 1.757a1.37 1.37 0 1 0 1.37 1.37 1.37 1.37 0 0 0-1.37-1.37zm0 4.794a1.37 1.37 0 1 0 1.37 1.37 1.37 1.37 0 0 0-1.37-1.369zm0 4.794a1.37 1.37 0 1 0 1.37 1.37 1.37 1.37 0 0 0-1.37-1.369zM4.9 13.4h10.958v-1.37H4.9zm0-4.794h10.958V7.237H4.9zm0-6.164v1.37h10.958v-1.37z" id="Layer_33" data-name="Layer 33"/><path class="cls-1" d="M1.475 1.757a1.37 1.37 0 1 0 1.37 1.37 1.37 1.37 0 0 0-1.37-1.37zm0 4.794a1.37 1.37 0 1 0 1.37 1.37 1.37 1.37 0 0 0-1.37-1.369zm0 4.794a1.37 1.37 0 1 0 1.37 1.37 1.37 1.37 0 0 0-1.37-1.369zM4.9 13.4h10.958v-1.37H4.9zm0-4.794h10.958V7.237H4.9zm0-6.164v1.37h10.958v-1.37z" id="Layer_30" data-name="Layer 30"/><path class="cls-1" d="M1.475 1.757a1.37 1.37 0 1 0 1.37 1.37 1.37 1.37 0 0 0-1.37-1.37zm0 4.794a1.37 1.37 0 1 0 1.37 1.37 1.37 1.37 0 0 0-1.37-1.369zm0 4.794a1.37 1.37 0 1 0 1.37 1.37 1.37 1.37 0 0 0-1.37-1.369zM4.9 13.4h10.958v-1.37H4.9zm0-4.794h10.958V7.237H4.9zm0-6.164v1.37h10.958v-1.37z" id="Layer_27" data-name="Layer 27"/><path class="cls-1" d="M1.475 1.757a1.37 1.37 0 1 0 1.37 1.37 1.37 1.37 0 0 0-1.37-1.37zm0 4.794a1.37 1.37 0 1 0 1.37 1.37 1.37 1.37 0 0 0-1.37-1.369zm0 4.794a1.37 1.37 0 1 0 1.37 1.37 1.37 1.37 0 0 0-1.37-1.369zM4.9 13.4h10.958v-1.37H4.9zm0-4.794h10.958V7.237H4.9zm0-6.164v1.37h10.958v-1.37z" id="Layer_24" data-name="Layer 24"/><path class="cls-1" d="M1.475 1.757a1.37 1.37 0 1 0 1.37 1.37 1.37 1.37 0 0 0-1.37-1.37zm0 4.794a1.37 1.37 0 1 0 1.37 1.37 1.37 1.37 0 0 0-1.37-1.369zm0 4.794a1.37 1.37 0 1 0 1.37 1.37 1.37 1.37 0 0 0-1.37-1.369zM4.9 13.4h10.958v-1.37H4.9zm0-4.794h10.958V7.237H4.9zm0-6.164v1.37h10.958v-1.37z" id="Layer_21" data-name="Layer 21"/><path class="cls-1" d="M1.475 1.757a1.37 1.37 0 1 0 1.37 1.37 1.37 1.37 0 0 0-1.37-1.37zm0 4.794a1.37 1.37 0 1 0 1.37 1.37 1.37 1.37 0 0 0-1.37-1.369zm0 4.794a1.37 1.37 0 1 0 1.37 1.37 1.37 1.37 0 0 0-1.37-1.369zM4.9 13.4h10.958v-1.37H4.9zm0-4.794h10.958V7.237H4.9zm0-6.164v1.37h10.958v-1.37z" id="Layer_18" data-name="Layer 18"/><path class="cls-1" d="M1.475 1.757a1.37 1.37 0 1 0 1.37 1.37 1.37 1.37 0 0 0-1.37-1.37zm0 4.794a1.37 1.37 0 1 0 1.37 1.37 1.37 1.37 0 0 0-1.37-1.369zm0 4.794a1.37 1.37 0 1 0 1.37 1.37 1.37 1.37 0 0 0-1.37-1.369zM4.9 13.4h10.958v-1.37H4.9zm0-4.794h10.958V7.237H4.9zm0-6.164v1.37h10.958v-1.37z" id="Layer_15" data-name="Layer 15"/><path class="cls-1" d="M1.475 1.757a1.37 1.37 0 1 0 1.37 1.37 1.37 1.37 0 0 0-1.37-1.37zm0 4.794a1.37 1.37 0 1 0 1.37 1.37 1.37 1.37 0 0 0-1.37-1.369zm0 4.794a1.37 1.37 0 1 0 1.37 1.37 1.37 1.37 0 0 0-1.37-1.369zM4.9 13.4h10.958v-1.37H4.9zm0-4.794h10.958V7.237H4.9zm0-6.164v1.37h10.958v-1.37z" id="Layer_12" data-name="Layer 12"/><path class="cls-1" d="M1.475 1.757a1.37 1.37 0 1 0 1.37 1.37 1.37 1.37 0 0 0-1.37-1.37zm0 4.794a1.37 1.37 0 1 0 1.37 1.37 1.37 1.37 0 0 0-1.37-1.369zm0 4.794a1.37 1.37 0 1 0 1.37 1.37 1.37 1.37 0 0 0-1.37-1.369zM4.9 13.4h10.958v-1.37H4.9zm0-4.794h10.958V7.237H4.9zm0-6.164v1.37h10.958v-1.37z" id="Layer_9" data-name="Layer 9"/><path class="cls-1" d="M1.475 1.757a1.37 1.37 0 1 0 1.37 1.37 1.37 1.37 0 0 0-1.37-1.37zm0 4.794a1.37 1.37 0 1 0 1.37 1.37 1.37 1.37 0 0 0-1.37-1.369zm0 4.794a1.37 1.37 0 1 0 1.37 1.37 1.37 1.37 0 0 0-1.37-1.369zM4.9 13.4h10.958v-1.37H4.9zm0-4.794h10.958V7.237H4.9zm0-6.164v1.37h10.958v-1.37z" id="Layer_6" data-name="Layer 6"/><path class="cls-1" d="M1.475 1.757a1.37 1.37 0 1 0 1.37 1.37 1.37 1.37 0 0 0-1.37-1.37zm0 4.794a1.37 1.37 0 1 0 1.37 1.37 1.37 1.37 0 0 0-1.37-1.369zm0 4.794a1.37 1.37 0 1 0 1.37 1.37 1.37 1.37 0 0 0-1.37-1.369zM4.9 13.4h10.958v-1.37H4.9zm0-4.794h10.958V7.237H4.9zm0-6.164v1.37h10.958v-1.37z" id="Layer_5" data-name="Layer 5"/></g></svg>