<svg xmlns="http://www.w3.org/2000/svg" viewBox="0 0 16 16"><title>list</title><g data-name="Layer 1"><path class="cls-1" d="M.245 1.591v2.58h15.482v-2.58zm0 7.741h15.482v-2.58H.245zm0 5.161h15.482v-2.58H.245z" data-name="Layer 24"/><path class="cls-1" d="M.245 1.591v2.58h15.482v-2.58zm0 7.741h15.482v-2.58H.245zm0 5.161h15.482v-2.58H.245z" data-name="Layer 21"/><path class="cls-1" d="M.245 1.591v2.58h15.482v-2.58zm0 7.741h15.482v-2.58H.245zm0 5.161h15.482v-2.58H.245z" data-name="Layer 18"/><path class="cls-1" d="M.245 1.591v2.58h15.482v-2.58zm0 7.741h15.482v-2.58H.245zm0 5.161h15.482v-2.58H.245z" data-name="Layer 15"/><path class="cls-1" d="M.245 1.591v2.58h15.482v-2.58zm0 7.741h15.482v-2.58H.245zm0 5.161h15.482v-2.58H.245z" data-name="Layer 12"/><path class="cls-1" d="M.245 1.591v2.58h15.482v-2.58zm0 7.741h15.482v-2.58H.245zm0 5.161h15.482v-2.58H.245z" data-name="Layer 9"/><path class="cls-1" d="M.245 1.591v2.58h15.482v-2.58zm0 7.741h15.482v-2.58H.245zm0 5.161h15.482v-2.58H.245z" data-name="Layer 6"/><path class="cls-1" d="M.245 1.591v2.58h15.482v-2.58zm0 7.741h15.482v-2.58H.245zm0 5.161h15.482v-2.58H.245z" data-name="Layer 5"/></g></svg>