<svg xmlns="http://www.w3.org/2000/svg" viewBox="0 0 16 16"><defs><style>.cls-1{fill-rule:evenodd;}</style></defs><title>list</title><g id="Layer_1" data-name="Layer 1"><g id="Layer_24" data-name="Layer 24"><path class="cls-1" d="M.245,1.591v2.58H15.727V1.591Zm0,7.741H15.727V6.752H.245Zm0,5.161H15.727v-2.58H.245Z"/></g><g id="Layer_21" data-name="Layer 21"><path class="cls-1" d="M.245,1.591v2.58H15.727V1.591Zm0,7.741H15.727V6.752H.245Zm0,5.161H15.727v-2.58H.245Z"/></g><g id="Layer_18" data-name="Layer 18"><path class="cls-1" d="M.245,1.591v2.58H15.727V1.591Zm0,7.741H15.727V6.752H.245Zm0,5.161H15.727v-2.58H.245Z"/></g><g id="Layer_15" data-name="Layer 15"><path class="cls-1" d="M.245,1.591v2.58H15.727V1.591Zm0,7.741H15.727V6.752H.245Zm0,5.161H15.727v-2.58H.245Z"/></g><g id="Layer_12" data-name="Layer 12"><path class="cls-1" d="M.245,1.591v2.58H15.727V1.591Zm0,7.741H15.727V6.752H.245Zm0,5.161H15.727v-2.58H.245Z"/></g><g id="Layer_9" data-name="Layer 9"><path class="cls-1" d="M.245,1.591v2.58H15.727V1.591Zm0,7.741H15.727V6.752H.245Zm0,5.161H15.727v-2.58H.245Z"/></g><g id="Layer_6" data-name="Layer 6"><path class="cls-1" d="M.245,1.591v2.58H15.727V1.591Zm0,7.741H15.727V6.752H.245Zm0,5.161H15.727v-2.58H.245Z"/></g><g id="Layer_5" data-name="Layer 5"><path class="cls-1" d="M.245,1.591v2.58H15.727V1.591Zm0,7.741H15.727V6.752H.245Zm0,5.161H15.727v-2.58H.245Z"/></g></g></svg>