<svg xmlns="http://www.w3.org/2000/svg" viewBox="0 0 16 16"><defs><style>.cls-1{fill:#231f20;}</style></defs><title>phone</title><g id="Layer_1" data-name="Layer 1"><path class="cls-1" d="M1.89,5.8A26.787,26.787,0,0,0,8.98,14.42l1.081.86a1.756,1.756,0,0,0,2.216-.023h0l1.892-1.57.308-.255A1.305,1.305,0,0,0,14.65,11.6L13.2,9.835a1.292,1.292,0,0,0-1.825-.174L9.543,11.18a26.79,26.79,0,0,1-4.378-5.32L7,4.34a1.305,1.305,0,0,0,.173-1.832L5.717.744A1.292,1.292,0,0,0,3.892.569L3.585.825,1.693,2.395h0a1.774,1.774,0,0,0-.44,2.182Z"/></g></svg>