<svg xmlns="http://www.w3.org/2000/svg" viewBox="0 0 16 16"><title>add-ons-outline</title><g id="Layer_1" data-name="Layer 1"><path d="M15.36,3.51H14.27V2.08a.55.55,0,0,0-.55-.55H10a.55.55,0,0,0-.55.55V3.51H6.78V2.08a.56.56,0,0,0-.56-.55H2.5A.55.55,0,0,0,2,2.08V3.51H.67a.6.6,0,0,0-.6.6V14.49a.6.6,0,0,0,.6.6H15.36a.6.6,0,0,0,.6-.6V4.11A.6.6,0,0,0,15.36,3.51Zm-.8,10.18H1.47V4.92H3.35v-2h2v2h5.46v-2h2v2h1.69Z" fill-rule="evenodd"/><path d="M10.26,8.57H8.89V7.2a.11.11,0,0,0-.1-.11H7.27a.11.11,0,0,0-.11.11V8.57H5.8a.1.1,0,0,0-.11.1v1.52a.1.1,0,0,0,.11.1H7.16v1.37a.1.1,0,0,0,.11.1H8.79a.1.1,0,0,0,.1-.1V10.29h1.37a.09.09,0,0,0,.1-.1V8.67A.09.09,0,0,0,10.26,8.57Z" fill-rule="evenodd"/></g></svg>