<svg xmlns="http://www.w3.org/2000/svg" viewBox="0 0 16 16"><title>add-ons-outline</title><g id="6d6e31e0-7779-4dd4-a449-f55de528da11" data-name="Layer 1"><path d="M15.363,3.515H14.269V2.083a.552.552,0,0,0-.552-.551H9.993a.552.552,0,0,0-.552.551V3.515H6.776V2.083a.551.551,0,0,0-.551-.551H2.5a.552.552,0,0,0-.552.551V3.515H.671a.6.6,0,0,0-.6.6V14.489a.6.6,0,0,0,.6.6H15.362a.6.6,0,0,0,.6-.6V4.115A.6.6,0,0,0,15.363,3.515Zm-.8,10.173H1.472V4.915H3.35V2.932H5.376V4.915h5.466V2.932h2.026V4.915h1.694Z" fill-rule="evenodd"/><path d="M10.259,8.565H8.89V7.2a.1.1,0,0,0-.1-.1H7.266a.1.1,0,0,0-.1.1V8.565H5.8a.1.1,0,0,0-.1.1v1.522a.1.1,0,0,0,.1.1H7.164V11.66a.1.1,0,0,0,.1.1H8.788a.1.1,0,0,0,.1-.1V10.291h1.369a.1.1,0,0,0,.1-.1V8.667A.1.1,0,0,0,10.259,8.565Z" fill-rule="evenodd"/></g></svg>