<svg xmlns="http://www.w3.org/2000/svg" viewBox="0 0 16 16"><title>add-ons</title><g id="Layer_1" data-name="Layer 1"><path d="M15.32,4.27H13.14v-2a.4.4,0,0,0-.41-.4H9.89a.4.4,0,0,0-.41.4v2H6.66v-2a.4.4,0,0,0-.41-.4H3.41a.4.4,0,0,0-.41.4v2H.68a.6.6,0,0,0-.6.59v9.53a.6.6,0,0,0,.6.59H15.32a.6.6,0,0,0,.6-.59V4.86A.6.6,0,0,0,15.32,4.27Zm-5,5.92a.09.09,0,0,1-.1.1H8.86v1.37a.09.09,0,0,1-.1.1H7.24a.09.09,0,0,1-.1-.1V10.29H5.77a.09.09,0,0,1-.1-.1V8.67a.09.09,0,0,1,.1-.1H7.14V7.2a.1.1,0,0,1,.1-.11H8.76a.1.1,0,0,1,.1.11V8.57h1.37a.09.09,0,0,1,.1.1Z" fill-rule="evenodd"/></g></svg>