<svg xmlns="http://www.w3.org/2000/svg" viewBox="0 0 16 16">
  <title>attendee-type-outline</title>
  <g id="Layer_1" data-name="Layer 1">
    <g>
      <path d="M11.939,7.6a4.046,4.046,0,0,0-1.814.442A2.859,2.859,0,0,0,10.569,6.9c.393-.192.65-.494.718-1.411a1.359,1.359,0,0,0-.238-.81c.048-.28.119-.736.155-1.118a2.873,2.873,0,0,0-.75-2.089A3.556,3.556,0,0,0,7.692.417,3.554,3.554,0,0,0,4.929,1.473,2.861,2.861,0,0,0,4.18,3.561c.036.383.108.84.155,1.121a1.426,1.426,0,0,0-.236.845c.064.852.306,1.161.717,1.373a2.613,2.613,0,0,0,.663,1.42c.131.149.145.164.145.311,0,.873-.3,1.346-2.14,2.017C.061,11.9.061,12.679.061,12.974v1.26a.838.838,0,0,0,.837.837H9.623A4.1,4.1,0,1,0,11.939,7.6ZM1.06,14.071l-.009-1.037c.067-.145.7-.688,2.776-1.446,1.814-.661,2.8-1.328,2.8-2.957a1.3,1.3,0,0,0-.395-.972,1.673,1.673,0,0,1-.436-.971.911.911,0,0,0-.586-.71.979.979,0,0,1-.11-.489c0-.134.029-.2.009-.2h0l.329-.151L5.364,4.76s-.135-.73-.189-1.293a1.877,1.877,0,0,1,.494-1.321,2.613,2.613,0,0,1,2.023-.729,2.612,2.612,0,0,1,2.022.729,1.876,1.876,0,0,1,.494,1.321c-.052.561-.187,1.288-.188,1.294l-.131.344.352.164a.283.283,0,0,1,.047.183c-.033.432-.11.526-.164.553a.871.871,0,0,0-.534.683,1.668,1.668,0,0,1-.435.971,1.3,1.3,0,0,0-.395.972c0,.068,0,.134.007.2A4.235,4.235,0,0,0,8.4,14.071Zm10.879.722a3.1,3.1,0,1,1,3.1-3.1A3.1,3.1,0,0,1,11.939,14.793Z"/>
      <path d="M11.932,13.26a.567.567,0,0,0-.558.526.086.086,0,0,0,0,.029.114.114,0,0,0,0,.027.583.583,0,0,0,.559.54.577.577,0,0,0,.561-.567A.57.57,0,0,0,11.932,13.26Z"/>
      <path d="M12.161,9.348a1.983,1.983,0,0,0-1.716.683.092.092,0,0,0,0,.129l.455.5a.091.091,0,0,0,.129,0,1.076,1.076,0,0,1,1.108-.413c.445.1.321.529.069.739-.379.317-.8.524-.839,1.069a.069.069,0,0,0,0,.025.089.089,0,0,0,0,.023.953.953,0,0,0,.26.619.091.091,0,0,0,.089.023l.6-.2a.092.092,0,0,0,.04-.152c-.436-.419.451-.837.7-1.062a1.138,1.138,0,0,0,.294-1.262A1.351,1.351,0,0,0,12.161,9.348Z"/>
    </g>
  </g>
</svg>
