<svg width="16" height="16" viewBox="0 0 16 16" fill="none" xmlns="http://www.w3.org/2000/svg">
<path d="M8 0C6.41775 0 4.87103 0.469192 3.55544 1.34824C2.23985 2.22729 1.21447 3.47672 0.608967 4.93853C0.00346625 6.40034 -0.15496 8.00887 0.153721 9.56072C0.462403 11.1126 1.22433 12.538 2.34315 13.6569C3.46197 14.7757 4.88743 15.5376 6.43928 15.8463C7.99113 16.155 9.59966 15.9965 11.0615 15.391C12.5233 14.7855 13.7727 13.7602 14.6518 12.4446C15.5308 11.129 16 9.58225 16 8C16 5.87827 15.1571 3.84344 13.6569 2.34315C12.1566 0.842855 10.1217 0 8 0ZM12.065 6.847L7.8 11.108C7.70351 11.2046 7.58893 11.2812 7.46282 11.3335C7.3367 11.3857 7.20152 11.4126 7.065 11.4126C6.92849 11.4126 6.7933 11.3857 6.66719 11.3335C6.54107 11.2812 6.4265 11.2046 6.33 11.108L3.93 8.708C3.73507 8.51307 3.62556 8.24868 3.62556 7.973C3.62556 7.69732 3.73507 7.43293 3.93 7.238C4.12494 7.04307 4.38933 6.93355 4.665 6.93355C4.94068 6.93355 5.20507 7.04307 5.4 7.238L7.068 8.903L10.6 5.377C10.7949 5.18207 11.0593 5.07255 11.335 5.07255C11.6107 5.07255 11.8751 5.18207 12.07 5.377C12.2649 5.57193 12.3745 5.83632 12.3745 6.112C12.3745 6.38768 12.2649 6.65207 12.07 6.847H12.065Z" fill="black"/>
</svg>
