<svg xmlns="http://www.w3.org/2000/svg" viewBox="0 0 16 16">
  <title>email-thick-o</title>
  <g id="Layer_1" data-name="Layer 1">
    <path d="M15.905,2.88a.873.873,0,0,0-.042-.208.935.935,0,0,0-.1-.175.846.846,0,0,0-.071-.124c-.008-.01-.02-.013-.028-.022a.965.965,0,0,0-.167-.129.97.97,0,0,0-.139-.094,1,1,0,0,0-.167-.045,1.02,1.02,0,0,0-.2-.041c-.012,0-.022-.006-.034-.006H.975l-.015,0a.978.978,0,0,0-.219.044,1.065,1.065,0,0,0-.153.034A1.022,1.022,0,0,0,.5,2.176a.953.953,0,0,0-.223.157l-.012.008a.9.9,0,0,0-.078.125.908.908,0,0,0-.115.185.942.942,0,0,0-.047.229A.949.949,0,0,0,0,3.011V13.025A.976.976,0,0,0,.975,14H14.957a.976.976,0,0,0,.975-.975V3.011A.951.951,0,0,0,15.905,2.88ZM12.341,3.986,7.688,8.013,3.426,3.986ZM1.949,12.05V5.273L6.99,10.036a.974.974,0,0,0,1.308.029l5.684-4.921V12.05Z"/>
  </g>
</svg>
