<svg xmlns="http://www.w3.org/2000/svg" viewBox="0 0 16 16"><title>file-image</title><g id="Layer_1" data-name="Layer 1"><path d="M9.84,0H2.35a.8.8,0,0,0-.8.8V15.2a.8.8,0,0,0,.8.8h11.3a.8.8,0,0,0,.8-.8v-11Zm2.57,4.16H10A.12.12,0,0,1,9.84,4V1.85Zm.69,10.49H2.9V1.35H8.49V4a1.46,1.46,0,0,0,.43,1,1.43,1.43,0,0,0,1,.43H13.1Z"/><path d="M4.2,12.64h7.69V6.69H4.2Zm6.94-5.2v3l-.78-.91L9.19,10.83,6.89,8.15,5,10.41v-3ZM5,11.56,6.89,9.3l2.22,2.59H5Zm4.33.33,1.08-1.26.78.91v.35Z"/><path d="M9.2,9.14a.43.43,0,0,0,.43-.43.43.43,0,1,0-.86,0A.43.43,0,0,0,9.2,9.14Z"/></g></svg>