<svg xmlns="http://www.w3.org/2000/svg" viewBox="0 0 16 16">
  <title>file-image</title>
  <g id="Layer_1" data-name="Layer 1">
    <g>
      <path d="M9.845,0H2.35a.8.8,0,0,0-.805.805V15.2a.805.805,0,0,0,.805.8h11.3a.805.805,0,0,0,.8-.8V4.15Zm2.564,4.155-2.452.007h0a.118.118,0,0,1-.118-.119l0-2.194Zm.7,10.5H2.9V1.35h5.6L8.488,4.041A1.468,1.468,0,0,0,9.96,5.512L13.105,5.5Z"/>
      <g>
        <path d="M4.2,12.638h7.682V6.689H4.2Zm6.932-5.2v2.948l-.78-.911L9.192,10.835,6.89,8.149,4.954,10.408V7.439ZM4.954,11.56,6.89,9.3l2.217,2.586H4.954Zm4.322.328,1.08-1.259.78.91v.349Z"/>
        <path d="M9.2,9.141a.434.434,0,1,0-.433-.434A.434.434,0,0,0,9.2,9.141Z"/>
      </g>
    </g>
  </g>
</svg>
