<svg xmlns="http://www.w3.org/2000/svg" viewBox="0 0 16 16"><title>file-pdf</title><g id="Layer_1" data-name="Layer 1"><path d="M9.84,0H2.35a.8.8,0,0,0-.8.8V15.2a.8.8,0,0,0,.8.8h11.3a.8.8,0,0,0,.8-.8v-11Zm2.57,4.16H10A.12.12,0,0,1,9.84,4V1.85Zm.69,10.49H2.9V1.35H8.49V4a1.46,1.46,0,0,0,.43,1,1.43,1.43,0,0,0,1,.43H13.1Z"/><path d="M10.8,10.18a1.07,1.07,0,0,0-1-.45,4,4,0,0,0-.7,0,7.84,7.84,0,0,1-1-1.53c.3-1.31.11-1.73-.06-1.94A.75.75,0,0,0,7.42,6a1,1,0,0,0-.27,0,.76.76,0,0,0-.51.49,2.37,2.37,0,0,0,.27,1.8,16,16,0,0,1-.84,2.36c-1,.47-1.5.94-1.57,1.47a1,1,0,0,0,.41.88.73.73,0,0,0,.44.15,1.27,1.27,0,0,0,1-.66,7.32,7.32,0,0,0,.57-1A11.75,11.75,0,0,1,8.71,11a1.77,1.77,0,0,0,1.14.53,1,1,0,0,0,.82-.44A.81.81,0,0,0,10.8,10.18Zm-.74.45a.21.21,0,0,1-.21.12,1,1,0,0,1-.5-.25l.43,0a.74.74,0,0,1,.34,0S10.1,10.6,10.06,10.63ZM5.24,12.3c0-.13.23-.37.75-.67-.39.73-.6.82-.63.84S5.24,12.32,5.24,12.3ZM7.4,7.62a1.24,1.24,0,0,1-.08-.75s0-.06.06-.06h0A1.64,1.64,0,0,1,7.4,7.62Zm.13,1.27a9.13,9.13,0,0,0,.94,1.37,11.44,11.44,0,0,0-1.6.51A16.13,16.13,0,0,0,7.53,8.89Z"/></g></svg>