<svg xmlns="http://www.w3.org/2000/svg" viewBox="0 0 16 16">
  <title>file-song</title>
  <g id="Layer_1" data-name="Layer 1">
    <g>
      <path d="M9.891,0H2.4a.8.8,0,0,0-.8.8V15.2a.8.8,0,0,0,.8.8H13.7a.8.8,0,0,0,.8-.8V4.149Zm2.564,4.155L10,4.162h0a.119.119,0,0,1-.118-.119l0-2.194Zm.7,10.5H2.942V1.35h5.6l0,2.691a1.468,1.468,0,0,0,1.472,1.47L13.15,5.5Z"/>
      <path d="M10.617,7.212a.645.645,0,0,0-.644-.645l-2.954.722a.644.644,0,0,0-.488.626v2.653a1.282,1.282,0,0,0-.452-.091,1.3,1.3,0,1,0,1.3,1.3,1.135,1.135,0,0,0-.033-.162l.033.033V8.3L9.768,7.7v2.06a1.283,1.283,0,0,0-.459-.093,1.3,1.3,0,1,0,1.3,1.3l.008,0ZM6.079,12.328a.551.551,0,1,1,.551-.551A.551.551,0,0,1,6.079,12.328Zm3.23-.812a.551.551,0,1,1,.55-.551A.551.551,0,0,1,9.309,11.516Z"/>
    </g>
  </g>
</svg>
