<svg xmlns="http://www.w3.org/2000/svg" viewBox="0 0 16 16"><title>file-text</title><g id="69d954cf-14be-4ce0-9248-dce45834deca" data-name="Layer 1"><path d="M7.146,7.212v.516a.29.29,0,0,1-.294.294.3.3,0,0,1-.295-.257h-.35V9.256a.3.3,0,0,1,.258.295.291.291,0,0,1-.295.294H5.655a.291.291,0,0,1-.295-.294.3.3,0,0,1,.258-.295V7.765H5.176a.279.279,0,0,1-.276.257.29.29,0,0,1-.295-.294V7.212A.291.291,0,0,1,4.9,6.918a.3.3,0,0,1,.295.258h1.38a.286.286,0,0,1,.571.036Z"/><path d="M10.819,8.349H8.249a.425.425,0,0,1,0-.85h2.57a.425.425,0,0,1,0,.85Z"/><path d="M10.819,9.827H8.249a.425.425,0,1,1,0-.849h2.57a.425.425,0,1,1,0,.849Z"/><path d="M10.819,11.307H4.976a.425.425,0,0,1,0-.85h5.843a.425.425,0,0,1,0,.85Z"/><path d="M10.819,12.785H4.976a.425.425,0,1,1,0-.849h5.843a.425.425,0,1,1,0,.849Z"/><path d="M9.845,0H2.35a.8.8,0,0,0-.805.805V15.2a.805.805,0,0,0,.805.8h11.3a.805.805,0,0,0,.8-.8V4.15Zm2.564,4.155-2.452.007h0a.118.118,0,0,1-.118-.119l0-2.194Zm.7,10.5H2.9V1.35h5.6L8.488,4.041A1.468,1.468,0,0,0,9.96,5.512L13.105,5.5Z"/></g></svg>