<svg xmlns="http://www.w3.org/2000/svg" viewBox="0 0 16 16"><title>file-video</title><g id="Layer_1" data-name="Layer 1"><path d="M9.84,0H2.35a.8.8,0,0,0-.8.8V15.2a.8.8,0,0,0,.8.8h11.3a.8.8,0,0,0,.8-.8v-11Zm2.57,4.16H10A.12.12,0,0,1,9.84,4V1.85Zm.69,10.49H2.9V1.35H8.49V4a1.46,1.46,0,0,0,.43,1,1.43,1.43,0,0,0,1,.43H13.1Z"/><path d="M7.78,13.15a3.49,3.49,0,1,1,3.48-3.49A3.49,3.49,0,0,1,7.78,13.15ZM7.78,7a2.7,2.7,0,1,0,2.69,2.69A2.69,2.69,0,0,0,7.78,7Z"/><path d="M9.27,9.43,7.05,7.91a.28.28,0,0,0-.44.23v3a.28.28,0,0,0,.44.23L9.27,9.9A.29.29,0,0,0,9.27,9.43Zm-2,1.06V8.84l1.2.82Z"/></g></svg>