<svg xmlns="http://www.w3.org/2000/svg" viewBox="0 0 16 16"><title>file-pdf</title><g id="e4e53d9e-3c7b-404f-88df-07c9f73f4f98" data-name="Layer 1"><path d="M9.845,0H2.35a.8.8,0,0,0-.805.805V15.2a.805.805,0,0,0,.805.8h11.3a.805.805,0,0,0,.8-.8V4.15Zm2.564,4.155-2.452.007h0a.118.118,0,0,1-.118-.119l0-2.194Zm.7,10.5H2.9V1.35h5.6L8.488,4.041A1.468,1.468,0,0,0,9.96,5.512L13.105,5.5Z"/><path d="M10.8,10.184a1.07,1.07,0,0,0-1.017-.458,4.057,4.057,0,0,0-.7.058A7.871,7.871,0,0,1,8.056,8.249C8.36,6.941,8.17,6.517,8,6.308a.757.757,0,0,0-.58-.275.991.991,0,0,0-.263.046.8.8,0,0,0-.519.487,2.4,2.4,0,0,0,.274,1.8,16.115,16.115,0,0,1-.842,2.365c-1,.474-1.5.943-1.563,1.473a.933.933,0,0,0,.41.872.707.707,0,0,0,.441.155,1.269,1.269,0,0,0,.967-.663,6.8,6.8,0,0,0,.565-.993,12.76,12.76,0,0,1,1.823-.594,1.783,1.783,0,0,0,1.144.526.982.982,0,0,0,.814-.436A.8.8,0,0,0,10.8,10.184Zm-.736.451a.213.213,0,0,1-.206.112.946.946,0,0,1-.506-.243c.168-.019.318-.038.431-.038a.685.685,0,0,1,.337.056C10.1,10.56,10.1,10.6,10.06,10.635ZM5.243,12.3c.018-.131.224-.375.749-.675-.393.732-.6.825-.637.844C5.243,12.378,5.243,12.322,5.243,12.3ZM7.4,7.617a1.239,1.239,0,0,1-.075-.75c.019-.037.038-.056.056-.056H7.4A1.582,1.582,0,0,1,7.4,7.617Zm.131,1.275a9.779,9.779,0,0,0,.938,1.368,12.086,12.086,0,0,0-1.594.506A16.931,16.931,0,0,0,7.529,8.892Z"/></g></svg>