<svg xmlns="http://www.w3.org/2000/svg" viewBox="0 0 16 16"><title>form-download copy</title><g id="Layer_1" data-name="Layer 1"><path d="M8.56,10.33a.27.27,0,0,0,.19-.08.26.26,0,0,0,.08-.2L9,6.37a.27.27,0,0,0-.08-.19.29.29,0,0,0-.19-.08H7.37a.29.29,0,0,0-.21.08.26.26,0,0,0-.07.19l.1,3.68a.26.26,0,0,0,.08.2.27.27,0,0,0,.19.08Zm.34,1a.38.38,0,0,0-.07-.21.28.28,0,0,0-.2-.08H7.41a.29.29,0,0,0-.19.08.25.25,0,0,0-.08.21v1.16a.23.23,0,0,0,.08.2.29.29,0,0,0,.19.08H8.63c.18,0,.27-.09.27-.28Z"/><path d="M15.89,13.46a1.84,1.84,0,0,0-.19-.4L9.4,2.16a2.41,2.41,0,0,0-.46-.56,1.4,1.4,0,0,0-1.86,0,2.41,2.41,0,0,0-.45.56L.37,13a1.74,1.74,0,0,0-.31,1A1.29,1.29,0,0,0,.72,15.2a2.07,2.07,0,0,0,1,.26h12.6a2.07,2.07,0,0,0,1-.26A1.29,1.29,0,0,0,16,14,1.47,1.47,0,0,0,15.89,13.46ZM8.3,2.8l6.32,10.92a.67.67,0,0,1,.08.17s0,.08,0,.21a.83.83,0,0,1-.38.1H1.72a.54.54,0,0,1-.4-.18.61.61,0,0,1,0-.15,1,1,0,0,1,.09-.17L7.72,2.8a1.33,1.33,0,0,1,.21-.26.1.1,0,0,1,.08,0l.08,0A1,1,0,0,1,8.3,2.8Z"/></g></svg>