<svg xmlns="http://www.w3.org/2000/svg" viewBox="0 0 16 16"><title>geo-pin-outline</title><g id="Layer_1" data-name="Layer 1"><path d="M8,0A5.84,5.84,0,0,0,2.31,6a6.09,6.09,0,0,0,1.1,3.54l3.8,6a.93.93,0,0,0,1.58,0l3.77-5.94A6.14,6.14,0,0,0,13.69,6,5.84,5.84,0,0,0,8,0Zm3,8.41L8,13.18,5,8.4A4.12,4.12,0,0,1,4.2,6,3.91,3.91,0,0,1,8,2a3.91,3.91,0,0,1,3.8,4A4.17,4.17,0,0,1,11,8.44ZM7.33,5.3A1.09,1.09,0,0,0,7.05,6a1,1,0,0,0,.28.7.92.92,0,0,0,1.34,0A1,1,0,0,0,9,6a1.07,1.07,0,0,0-.28-.71A1,1,0,0,0,7.33,5.3Z"/></g></svg>