<svg xmlns="http://www.w3.org/2000/svg" viewBox="0 0 16 16">
  <title>geo-pin-outline</title>
  <g id="Layer_1" data-name="Layer 1">
    <path d="M8,.028A5.849,5.849,0,0,0,2.305,6.007,6.062,6.062,0,0,0,3.414,9.549l3.8,5.98a.925.925,0,0,0,1.58,0L12.556,9.6A6.137,6.137,0,0,0,13.7,6.007,5.849,5.849,0,0,0,8,.028Zm3.007,8.416L8,13.18,4.962,8.4A4.081,4.081,0,0,1,4.2,6.007,3.9,3.9,0,0,1,8,2.021a3.9,3.9,0,0,1,3.8,3.986A4.146,4.146,0,0,1,11.007,8.444ZM7.326,5.3a1.048,1.048,0,0,0,0,1.415.928.928,0,0,0,1.348,0,1.048,1.048,0,0,0,0-1.415A.961.961,0,0,0,7.326,5.3Z"/>
  </g>
</svg>
