<svg xmlns="http://www.w3.org/2000/svg" viewBox="0 0 16 16"><title>group-contact</title><g id="Layer_1" data-name="Layer 1"><path d="M3.5,9.07a.72.72,0,0,0-.67-.76H.68a.77.77,0,0,0,0,1.53H2.83A.72.72,0,0,0,3.5,9.07ZM14.53,0H3.34A1.45,1.45,0,0,0,1.87,1.44V2.56h1A1.66,1.66,0,0,1,4.44,4.27,1.66,1.66,0,0,1,2.83,6h-1V7.36h1A1.66,1.66,0,0,1,4.44,9.07a1.82,1.82,0,0,1-.27,1,1.61,1.61,0,0,1-1.34.76h-1V12a1.45,1.45,0,0,0,1.47,1.43H14.53A1.45,1.45,0,0,0,16,12v-1.4h0V1.44A1.46,1.46,0,0,0,14.53,0Zm-5,7.82a.27.27,0,0,1-.08-.07h0a.27.27,0,0,0,.08.07ZM14.9,9.58A2.57,2.57,0,0,0,14,9.15c-1.9-.52-2.82-.73-3-1.38a4.57,4.57,0,0,0,1.47-3.16A2.62,2.62,0,0,0,10,1.9a2.58,2.58,0,0,0-2.5,2.63A4.77,4.77,0,0,0,8.92,7.75.27.27,0,0,0,9,7.82H8.9c-.21.61-1.13.83-3,1.33h0V2.71A1.46,1.46,0,0,1,7.31,1.22h6.74c.78,0,.85.67.85,1.49ZM.68,5H2.83a.72.72,0,0,0,.67-.76.72.72,0,0,0-.67-.76H.68A.72.72,0,0,0,0,4.27.72.72,0,0,0,.68,5Z"/></g></svg>