<svg xmlns="http://www.w3.org/2000/svg" viewBox="0 0 16 16"><title>heart-o</title><g id="Layer_1" data-name="Layer 1"><path d="M8,14.81a.71.71,0,0,1-.51-.21L1.36,8.41A4.27,4.27,0,0,1,.14,5.19,4.23,4.23,0,0,1,1.69,2.11a4,4,0,0,1,2.57-.9A4.62,4.62,0,0,1,7.5,2.57L8,3.09l.52-.52a4.36,4.36,0,0,1,5.81-.46,4.23,4.23,0,0,1,1.55,3.08,4.28,4.28,0,0,1-1.23,3.22h0L8.52,14.6A.71.71,0,0,1,8,14.81ZM4.26,2.21a3,3,0,0,0-1.94.67A3.28,3.28,0,0,0,1.13,5.24a3.32,3.32,0,0,0,.94,2.47l5.94,6,5.94-6a3.28,3.28,0,0,0-.25-4.83,3.35,3.35,0,0,0-4.46.4L8,4.51,6.79,3.28A3.61,3.61,0,0,0,4.26,2.21Z"/></g></svg>