<svg xmlns="http://www.w3.org/2000/svg" viewBox="0 0 16 16"><title>list-outline</title><g id="976c7488-7839-4def-a588-0ffff2802fb9" data-name="Layer 1"><path d="M13.962.872H2.038a.872.872,0,0,0-.852.891V14.237a.872.872,0,0,0,.852.891H13.962a.872.872,0,0,0,.852-.891V1.763A.872.872,0,0,0,13.962.872Zm-.851,12.474H2.889V2.654H13.111Z"/><g id="6121e7fa-7e05-41a5-a281-424c3ab0bf94" data-name="Your Icon"><path d="M11.188,5.71h-3.4a.577.577,0,0,1,0-1.153h3.4a.577.577,0,0,1,0,1.153Z"/><path d="M5.653,5.885H4.811a.564.564,0,0,1-.551-.576V4.931a.564.564,0,0,1,.551-.576h.842a.565.565,0,0,1,.552.576v.378A.565.565,0,0,1,5.653,5.885Z"/><path d="M11.188,8.577h-3.4a.578.578,0,0,1,0-1.154h3.4a.578.578,0,0,1,0,1.154Z"/><path d="M5.653,8.765H4.811a.564.564,0,0,1-.551-.576V7.812a.564.564,0,0,1,.551-.577h.842a.565.565,0,0,1,.552.577v.377A.565.565,0,0,1,5.653,8.765Z"/><path d="M11.188,11.457h-3.4a.578.578,0,0,1,0-1.154h3.4a.578.578,0,0,1,0,1.154Z"/><path d="M5.653,11.645H4.811a.564.564,0,0,1-.551-.577v-.376a.564.564,0,0,1,.551-.577h.842a.565.565,0,0,1,.552.577v.376A.565.565,0,0,1,5.653,11.645Z"/></g></g></svg>