<svg xmlns="http://www.w3.org/2000/svg" viewBox="0 0 16 16"><title>logout-o</title><g id="Layer_1" data-name="Layer 1"><polygon points="12.63 4.46 11.95 5.16 14.09 7.26 6.41 7.26 6.41 8.23 14.19 8.23 11.98 10.47 12.67 11.16 16.01 7.78 12.63 4.46"/><path d="M9.92,12.41l-.08.07,0,0-.18.13A5.51,5.51,0,0,1,9,13a5.14,5.14,0,0,1-2.26.55A5.63,5.63,0,0,1,1,7.88,5.47,5.47,0,0,1,3,3.51,6.07,6.07,0,0,1,6.69,2.15a5.22,5.22,0,0,1,2.22.57c.24.12.47.26.7.4l.19.13.06,0,.07.07.6-.77-.08-.06a2.39,2.39,0,0,0-.31-.22h0a8,8,0,0,0-.81-.46,6.07,6.07,0,0,0-2.64-.67A7.07,7.07,0,0,0,2.33,2.76,6.41,6.41,0,0,0,0,7.88a6.6,6.6,0,0,0,6.66,6.67,6,6,0,0,0,2.68-.66,6.69,6.69,0,0,0,.79-.44l.3-.22.08-.06L10,12.49Z"/></g></svg>