<svg xmlns="http://www.w3.org/2000/svg" viewBox="0 0 16 16"><title>overview</title><g id="Layer_1" data-name="Layer 1"><path d="M8,.63A7.87,7.87,0,0,0,.14,8.49a7.63,7.63,0,0,0,4.07,6.79l.17.09h7.24l.17-.09a7.63,7.63,0,0,0,4.07-6.79A7.87,7.87,0,0,0,8,.63ZM8,2.1a6.39,6.39,0,0,1,6.39,6.39,6.1,6.1,0,0,1-3.18,5.4H4.79a6.1,6.1,0,0,1-3.18-5.4A6.39,6.39,0,0,1,8,2.1ZM8,3.58a4.83,4.83,0,0,0-2.38.63l.49.3a4.35,4.35,0,0,1,5,.86l0,0a4.38,4.38,0,0,1,0,6.2.25.25,0,0,0,.35.35A4.91,4.91,0,0,0,8,3.58Zm-4.42.49s3.15,5,3.64,5.5a1.35,1.35,0,0,0,1.85,0,1.3,1.3,0,0,0,0-1.86c-.49-.49-5.49-3.64-5.49-3.64Zm.15,2a4.85,4.85,0,0,0-.64,2.39A4.92,4.92,0,0,0,4.53,12a.25.25,0,1,0,.35-.35,4.4,4.4,0,0,1-.86-5C3.92,6.4,3.84,6.26,3.73,6.1Z"/></g></svg>