<svg xmlns="http://www.w3.org/2000/svg" viewBox="0 0 16 16"><title>people-outline</title><g id="Layer_1" data-name="Layer 1"><path d="M15.8,9.65a3.61,3.61,0,0,0-2-1.62l.06-.15a2.32,2.32,0,0,0,.46-1.34V6.43a2,2,0,0,0-.08-.6c0-.12,0-.24,0-.35a3,3,0,0,0-.77-2.2,3,3,0,0,0-2.24-.93,2.9,2.9,0,0,0-2.16.86,3.36,3.36,0,0,0-.74-1.3A3.41,3.41,0,0,0,5.73.84a3.41,3.41,0,0,0-2.6,1.07,3.47,3.47,0,0,0-.88,2.53A5.14,5.14,0,0,0,2.31,5a2.27,2.27,0,0,0-.12.75v.11a2.56,2.56,0,0,0,.57,1.57A3.25,3.25,0,0,0,3,7.93l-1,.46A2.66,2.66,0,0,0,0,10.77v2.37a2,2,0,0,0,2,2h8a2,2,0,0,0,1.59-.79H14a2,2,0,0,0,2-2.1c0-.12,0-.41,0-.66A3.31,3.31,0,0,0,15.8,9.65ZM1.63,13.14V10.77c0-.56.65-.79,1-.94C3.82,9.33,4.79,8.92,4.79,8c0-.53-.36-.36-.52-1.34-.07-.41-.39,0-.45-.94,0-.37.18-.46.18-.46s-.09-.55-.13-1A1.78,1.78,0,0,1,5.78,2.43,1.78,1.78,0,0,1,7.69,4.31c0,.42-.13,1-.13,1s.18.09.18.46c-.06.93-.38.53-.45.94-.16,1-.52.81-.52,1.34a1.75,1.75,0,0,0,.1.6h0a.39.39,0,0,0,.06.11A1.42,1.42,0,0,0,7,8.92a1.22,1.22,0,0,0,.15.17.86.86,0,0,0,.13.14l.23.17a.5.5,0,0,0,.12.08h0a5.63,5.63,0,0,0,.7.36c1.19.49,2.2,1,2.2,1.49v1.82a.43.43,0,0,1-.43.43h-8A.43.43,0,0,1,1.63,13.14Zm12.83-.81a.43.43,0,0,1-.43.45H11.61V11.32c0-1-.85-1.58-1.85-2.05.17-.22.79-.55.78-1.13,0-.4-.27-.27-.39-1-.05-.3-.29,0-.33-.7,0-.28.12-.35.12-.35s-.06-.41-.09-.73a1.33,1.33,0,0,1,1.43-1.41,1.33,1.33,0,0,1,1.43,1.41c0,.32-.09.73-.09.73s.13.07.13.35c0,.7-.28.39-.33.7-.12.74-.39.61-.39,1,0,.67.28,1,1.17,1.35s1.07.61,1.27,1A17,17,0,0,1,14.46,12.33Z"/></g></svg>