<svg xmlns="http://www.w3.org/2000/svg" viewBox="0 0 16 16"><title>people-outline</title><g id="dfd745c9-3261-4f1e-8726-73660f7c4caa" data-name="Layer 1"><path d="M15.8,9.649a3.6,3.6,0,0,0-2.025-1.618c.019-.05.037-.1.053-.155a2.289,2.289,0,0,0,.463-1.335l0-.112a2.237,2.237,0,0,0-.08-.6c.014-.115.027-.236.035-.348a2.991,2.991,0,0,0-.768-2.2,2.94,2.94,0,0,0-2.243-.928,2.929,2.929,0,0,0-2.161.853,3.367,3.367,0,0,0-.738-1.3A3.407,3.407,0,0,0,5.734.84a3.406,3.406,0,0,0-2.6,1.068A3.494,3.494,0,0,0,2.247,4.44c.014.178.036.372.059.546a2.419,2.419,0,0,0-.116.759l0,.1A2.5,2.5,0,0,0,2.76,7.417a3.3,3.3,0,0,0,.185.512c-.221.114-.559.266-1.022.459A2.671,2.671,0,0,0,0,10.773v2.368A2.021,2.021,0,0,0,2.019,15.16h8.032a2.01,2.01,0,0,0,1.592-.793h2.339A2.018,2.018,0,0,0,16,12.269c-.005-.123.009-.407.021-.659A3.312,3.312,0,0,0,15.8,9.649ZM1.633,13.141V10.773c0-.561.647-.794,1.008-.945,1.182-.495,2.147-.912,2.147-1.8,0-.536-.361-.361-.519-1.342-.066-.408-.385-.007-.446-.936,0-.371.173-.463.173-.463s-.088-.548-.122-.97A1.774,1.774,0,0,1,5.78,2.427,1.774,1.774,0,0,1,7.687,4.311c-.035.422-.123.97-.123.97s.174.092.174.463c-.061.93-.38.529-.446.937-.158.981-.519.806-.519,1.342a1.861,1.861,0,0,0,.1.6l-.013,0a1.263,1.263,0,0,0,.059.116A1.234,1.234,0,0,0,7,8.919a1.369,1.369,0,0,0,.143.175,1.553,1.553,0,0,0,.133.137,2.357,2.357,0,0,0,.234.17c.04.026.068.055.113.081l0,0,0,0a5.48,5.48,0,0,0,.705.354c1.187.5,2.2.978,2.2,1.491v1.822a.432.432,0,0,1-.432.432H2.065A.432.432,0,0,1,1.633,13.141Zm12.827-.809a.431.431,0,0,1-.431.448H11.615V11.319c0-.974-.858-1.575-1.853-2.052.172-.222.786-.551.778-1.129-.006-.4-.272-.271-.39-1.007-.05-.305-.289,0-.335-.7,0-.278.13-.347.13-.347s-.066-.41-.092-.727a1.331,1.331,0,0,1,1.43-1.413,1.331,1.331,0,0,1,1.43,1.413c-.026.316-.092.727-.092.727s.131.069.131.347c-.046.7-.285.4-.335.7-.119.736-.39.6-.39,1.007,0,.669.284.983,1.171,1.353s1.071.613,1.277.962A17.173,17.173,0,0,1,14.46,12.332Z"/></g></svg>