<svg xmlns="http://www.w3.org/2000/svg" viewBox="0 0 16 16"><title>person-check-o</title><g id="Layer_1" data-name="Layer 1"><path d="M11.75,14.61l-.52-.45L9.86,12.79a.66.66,0,0,1,.93-.93l.92.92,2.45-2.44a.66.66,0,0,1,.93.93Z"/><path d="M6.71,7.94A3.92,3.92,0,1,1,10.63,4,3.92,3.92,0,0,1,6.71,7.94Zm0-6.52A2.6,2.6,0,1,0,9.31,4,2.61,2.61,0,0,0,6.71,1.42Z"/><path d="M8.63,15.89H2.88A2.06,2.06,0,0,1,.82,13.83V10.66A2.48,2.48,0,0,1,2.41,8.35l4.3-1.64L11.15,8.4a.66.66,0,0,1,.38.85.65.65,0,0,1-.84.38l-4-1.51L2.88,9.57a1.17,1.17,0,0,0-.75,1.09v3.17a.76.76,0,0,0,.75.75H8.63a.66.66,0,1,1,0,1.31Z"/></g></svg>