<svg xmlns="http://www.w3.org/2000/svg" viewBox="0 0 16 16">
  <title>person-check-o</title>
  <g id="Layer_1" data-name="Layer 1">
    <g>
      <path d="M11.749,14.605l-.519-.445L9.859,12.788a.657.657,0,1,1,.929-.93l.925.925,2.446-2.447a.657.657,0,1,1,.93.929Z"/>
      <path d="M6.714,7.936a3.914,3.914,0,1,1,3.914-3.913A3.918,3.918,0,0,1,6.714,7.936Zm0-6.512a2.6,2.6,0,1,0,2.6,2.6A2.6,2.6,0,0,0,6.714,1.424Z"/>
      <path d="M8.634,15.891H2.88A2.064,2.064,0,0,1,.818,13.829V10.657A2.484,2.484,0,0,1,2.412,8.346l4.3-1.633L11.152,8.4a.657.657,0,1,1-.466,1.229L6.714,8.119,2.879,9.575a1.166,1.166,0,0,0-.747,1.082v3.172a.749.749,0,0,0,.748.747H8.634a.658.658,0,1,1,0,1.315Z"/>
    </g>
  </g>
</svg>
