<svg xmlns="http://www.w3.org/2000/svg" viewBox="0 0 16 16"><title>question-outline</title><g id="Layer_1" data-name="Layer 1"><path d="M8,1.15A6.85,6.85,0,1,1,1.15,8,6.85,6.85,0,0,1,8,1.15M8,0a8,8,0,1,0,8,8A8,8,0,0,0,8,0Z"/><path d="M8,13.43a1.17,1.17,0,0,1-1.13-1.08v-.06a.07.07,0,0,1,0,0,1.12,1.12,0,0,1,2.24,0A1.15,1.15,0,0,1,8,13.43Zm2.24-6.12C9.73,7.76,8,8.6,8.82,9.44a.19.19,0,0,1-.08.31l-1.2.4a.19.19,0,0,1-.18,0,2,2,0,0,1-.52-1.25V8.77c.07-1.1.93-1.51,1.69-2.15.5-.42.75-1.28-.14-1.49A2.18,2.18,0,0,0,6.16,6,.18.18,0,0,1,5.9,6L5,5a.19.19,0,0,1,0-.26A4,4,0,0,1,8.44,3.32a2.71,2.71,0,0,1,2.37,1.45A2.29,2.29,0,0,1,10.22,7.31Z"/></g></svg>