<svg xmlns="http://www.w3.org/2000/svg" viewBox="0 0 16 16"><title>refund</title><g id="Layer_1" data-name="Layer 1"><path d="M15.67,6A7.95,7.95,0,1,0,.32,10.07a7.76,7.76,0,0,0,2.59,4v0L2.19,15.2a.26.26,0,0,0,.2.4l4.75.32a.26.26,0,0,0,.25-.37L5.28,11.27a.25.25,0,0,0-.44,0l-.62.93a5.62,5.62,0,1,1,5.56,1.19.24.24,0,0,0-.16.28L10,15.42a.24.24,0,0,0,.3.18A8,8,0,0,0,15.67,6ZM10.1,9.14a2.35,2.35,0,0,0-.15-.9,1.52,1.52,0,0,0-.37-.55,5.91,5.91,0,0,0-.83-.56,5.36,5.36,0,0,1-.85-.59A.73.73,0,0,1,7.75,6a.58.58,0,0,1,.07-.33A.24.24,0,0,1,8,5.56a.22.22,0,0,1,.23.13,1.15,1.15,0,0,1,.06.48v.21a.14.14,0,0,0,.13.15l1.29,0a.14.14,0,0,0,.17-.14c0-.15,0-.16,0-.2A1.61,1.61,0,0,0,9.57,5.1a1.71,1.71,0,0,0-1.1-.49V4.3a.2.2,0,0,0-.2-.2H7.93a.19.19,0,0,0-.19.2v.31a2,2,0,0,0-1.21.5,1.51,1.51,0,0,0-.41,1.12,2.11,2.11,0,0,0,.19.89,1.85,1.85,0,0,0,.46.61c.17.14.5.36,1,.67a1.09,1.09,0,0,1,.52.51,2.76,2.76,0,0,1,.07.76.59.59,0,0,1-.08.33.28.28,0,0,1-.24.11A.24.24,0,0,1,7.78,10a4.18,4.18,0,0,1,0-.8V8.89a.15.15,0,0,0-.14-.15l-1.28,0a.15.15,0,0,0-.17.16v.19a2,2,0,0,0,.47,1.5,1.94,1.94,0,0,0,1.12.49v.42a.19.19,0,0,0,.19.2h.34a.2.2,0,0,0,.2-.2v-.4a1.89,1.89,0,0,0,1.22-.6A2,2,0,0,0,10.1,9.14Z"/></g></svg>