<svg xmlns="http://www.w3.org/2000/svg" viewBox="0 0 16 16"><title>ticket</title><g id="Layer_1" data-name="Layer 1"><path d="M14,4.7l-.22,0a2.13,2.13,0,0,1-2.52-2.51l0-.23-2-2L0,9.3l2,2,.22,0a2.11,2.11,0,0,1,1.94.58,2.09,2.09,0,0,1,.58,1.93l0,.23,2,2L16,6.7Zm-3.54,6.35L6.69,14.81,5.6,13.71a3,3,0,0,0-.85-2.47,3,3,0,0,0-2.48-.85L1.18,9.3,4.93,5.54l.67.67.6-.59L5.53,5,9.28,1.19l1.1,1.1a2.92,2.92,0,0,0,.85,2.47,3,3,0,0,0,2.47.85L14.79,6.7,11,10.46l-.67-.67-.6.59ZM7.2,7.81l1,1,.6-.59-1-1Z"/></g></svg>