<svg xmlns="http://www.w3.org/2000/svg" viewBox="0 0 16 16"><title>trash</title><g id="Layer_1" data-name="Layer 1"><g id="Layer_1-2" data-name="Layer 1"><path d="M3.26,14.8A1.15,1.15,0,0,0,4.39,16H12a1.15,1.15,0,0,0,1.13-1.17l.44-10H2.84Zm7.21-7.63a.54.54,0,0,1,.51-.6c.32,0,.5.27.5.6v6.38c0,.34-.18.6-.5.6a.53.53,0,0,1-.51-.6Zm-2.79,0a.53.53,0,0,1,.51-.6c.32,0,.5.27.5.6v6.38c0,.34-.18.6-.5.6s-.51-.26-.51-.6Zm-2.76,0c0-.33.18-.6.5-.6a.54.54,0,0,1,.51.6v6.38a.53.53,0,0,1-.51.6c-.32,0-.5-.26-.5-.6Zm8.85-5.25H10.51V.58C10.51.26,10.36,0,10,0H6.34a.5.5,0,0,0-.51.55V1.92H2.64a.53.53,0,0,0-.53.58v.62c0,.33.21.69.53.69H13.79c.32,0,.48-.38.48-.69V2.5C14.26,2.17,14.09,1.92,13.77,1.92Zm-4.18,0H6.78V1H9.59Z"/></g></g></svg>