<svg data-name="Layer 1" xmlns="http://www.w3.org/2000/svg" viewBox="0 0 18 18" aria-labelledby="title-calendar" role="img" class="symbol symbol-calendar"><title id="title-calendar">calendar icon</title><path d="M14.5 5.505v9h-11v-9h11m.5-1.5H3a1 1 0 0 0-1 1v10a1 1 0 0 0 1 1h12a1 1 0 0 0 1-1v-10a1 1 0 0 0-1-1z" role="presentation"/><path d="M15 5.005H3v3h12v-3z" role="presentation"/><path d="M5.75 2.005h-1.5v3h1.5v-3zm8 0h-1.5v3h1.5v-3zm-8.5 7.25h1.5v1.5h-1.5zm3 0h1.5v1.5h-1.5zm3 0h1.5v1.5h-1.5z" role="presentation"/></svg>