<svg xmlns="http://www.w3.org/2000/svg" viewBox="0 0 16 16">
  <title>accounts-logo</title>
  <g id="Layer_1" data-name="Layer 1">
    <g>
      <g>
        <path d="M4.784,7.13a1.667,1.667,0,0,0-.532.087.087.087,0,0,0-.061.111l.03.125a.087.087,0,0,0,.108.076,1.583,1.583,0,0,1,.422-.072.22.22,0,0,1,.164.054.356.356,0,0,1,.064.256,1.18,1.18,0,0,0-.291-.041c-.383,0-.63.2-.63.511a.492.492,0,0,0,.511.528.669.669,0,0,0,.462-.179l.028.078c.016.039.036.064.079.064h.11a.092.092,0,0,0,.09-.09V7.823C5.338,7.444,5.3,7.13,4.784,7.13ZM4.638,8.458a.206.206,0,0,1-.22-.224c0-.14.119-.234.3-.234a.74.74,0,0,1,.26.046v.239A.458.458,0,0,1,4.638,8.458Z"/>
        <path d="M6.811,8.223a.088.088,0,0,0-.126.008l-.037.036a.4.4,0,0,1-.312.148.469.469,0,1,1,.312-.787c.026.025.069.067.124.016l.119-.109A.092.092,0,0,0,6.906,7.4a.686.686,0,0,0-.57-.272.812.812,0,0,0-.8.819.8.8,0,0,0,.8.816.714.714,0,0,0,.611-.326c.02-.03.031-.077-.031-.133Z"/>
        <path d="M8.294,8.223a.087.087,0,0,0-.125.008.417.417,0,0,0-.037.036.407.407,0,0,1-.312.148.469.469,0,1,1,.312-.788c.025.026.068.069.124.017l.119-.109A.093.093,0,0,0,8.39,7.4a.686.686,0,0,0-.57-.272.812.812,0,0,0-.8.819.8.8,0,0,0,.8.816.713.713,0,0,0,.61-.326c.02-.03.031-.077-.03-.133Z"/>
        <path d="M9.3,7.13a.818.818,0,1,0,.8.813A.817.817,0,0,0,9.3,7.13Zm.436.813A.438.438,0,1,1,9.3,7.48.441.441,0,0,1,9.733,7.943Z"/>
        <path d="M11.541,7.164h-.168c-.053,0-.1.007-.1.09v.924a.363.363,0,0,1-.34.237c-.191,0-.28-.11-.28-.347V7.254a.092.092,0,0,0-.091-.09h-.185a.1.1,0,0,0-.091.09v.791c0,.335.067.72.588.72a.624.624,0,0,0,.476-.194l.03.083c.013.037.034.074.086.074h.079a.094.094,0,0,0,.094-.09V7.254A.1.1,0,0,0,11.541,7.164Z"/>
        <path d="M12.728,7.13a.717.717,0,0,0-.506.2l-.036-.1a.076.076,0,0,0-.08-.06h-.08a.092.092,0,0,0-.09.09V8.638a.09.09,0,0,0,.09.09H12.2c.072,0,.107-.029.107-.09v-.95a.45.45,0,0,1,.386-.208c.183,0,.284.134.284.377v.781a.091.091,0,0,0,.09.09h.186a.092.092,0,0,0,.09-.09V7.87C13.338,7.372,13.139,7.13,12.728,7.13Z"/>
        <path d="M14.514,8.386a.081.081,0,0,0-.048-.051.079.079,0,0,0-.066.009.494.494,0,0,1-.236.071c-.056,0-.105-.011-.105-.138v-.8h.386a.093.093,0,0,0,.091-.09V7.254a.089.089,0,0,0-.091-.09h-.386v-.41a.088.088,0,0,0-.087-.09h-.189a.092.092,0,0,0-.091.09v.41h-.157a.087.087,0,0,0-.091.09V7.39a.091.091,0,0,0,.091.09h.157v.81c0,.221.046.475.4.475a.946.946,0,0,0,.434-.112.086.086,0,0,0,.043-.111Z"/>
        <path d="M15.278,7.777c-.162-.07-.25-.125-.25-.208,0-.059.055-.118.177-.118a.783.783,0,0,1,.321.074.089.089,0,0,0,.122-.038l.053-.106a.107.107,0,0,0-.039-.135.877.877,0,0,0-.457-.116c-.362,0-.524.219-.524.435,0,.271.2.4.424.5s.318.159.318.248-.071.132-.185.132a.7.7,0,0,1-.366-.107l0,0a.1.1,0,0,0-.078-.011.076.076,0,0,0-.047.039l-.069.142a.081.081,0,0,0,.032.1h0a.913.913,0,0,0,.514.159.5.5,0,0,0,.563-.465C15.782,8.012,15.583,7.906,15.278,7.777Z"/>
      </g>
      <g>
        <circle cx="1.752" cy="8" r="0.293"/>
        <path d="M1.752,6.466C.524,6.466.218,6.773.218,8S.524,9.534,1.752,9.534,3.286,9.227,3.286,8,2.979,6.466,1.752,6.466ZM2.32,8a.583.583,0,0,1-.006.074l.16.125a.038.038,0,0,1,.009.049l-.151.261a.036.036,0,0,1-.046.017L2.1,8.45a.565.565,0,0,1-.128.075l-.028.2a.039.039,0,0,1-.038.032H1.6a.037.037,0,0,1-.037-.032l-.029-.2a.531.531,0,0,1-.128-.075l-.189.076a.038.038,0,0,1-.046-.017l-.151-.261A.038.038,0,0,1,1.03,8.2l.16-.125a.459.459,0,0,1,0-.148L1.03,7.8a.037.037,0,0,1-.009-.049l.151-.261a.036.036,0,0,1,.046-.017l.189.076a.565.565,0,0,1,.128-.075l.029-.2A.037.037,0,0,1,1.6,7.243h.3a.039.039,0,0,1,.038.032l.028.2A.531.531,0,0,1,2.1,7.55l.189-.076a.038.038,0,0,1,.046.017l.151.261a.038.038,0,0,1-.009.049l-.16.125A.583.583,0,0,1,2.32,8Z"/>
      </g>
    </g>
  </g>
</svg>
