<svg xmlns="http://www.w3.org/2000/svg" viewBox="0 0 16 16"><title>accounts-logo-stack</title><g id="5f249c72-f737-48e8-9df6-77f75aa7e4d2" data-name="Layer 1"><path d="M.314,12.541a.016.016,0,0,0,.016-.017v-.356h0a.241.241,0,0,0,.211.094.269.269,0,0,0,.276-.192.91.91,0,0,0,0-.448.269.269,0,0,0-.276-.192.241.241,0,0,0-.211.094h0v-.059a.016.016,0,0,0-.016-.017H.162a.016.016,0,0,0-.017.017v1.059a.016.016,0,0,0,.017.017ZM.347,11.7A.142.142,0,0,1,.5,11.6a.142.142,0,0,1,.147.1.476.476,0,0,1,.017.148A.488.488,0,0,1,.642,12a.142.142,0,0,1-.147.1A.142.142,0,0,1,.347,12a.458.458,0,0,1-.017-.149A.447.447,0,0,1,.347,11.7Z"/><path d="M1.663,12.254h.073a.016.016,0,0,0,.016-.017v-.132a.015.015,0,0,0-.016-.016H1.7c-.047,0-.069-.019-.069-.073v-.878a.015.015,0,0,0-.016-.016H1.462a.016.016,0,0,0-.017.016v.888C1.445,12.179,1.508,12.254,1.663,12.254Z"/><path d="M2.849,11.767H2.688c-.2,0-.319.079-.319.252a.238.238,0,0,0,.267.243.259.259,0,0,0,.225-.093h0v.058a.016.016,0,0,0,.017.017h.139a.016.016,0,0,0,.016-.017v-.52c0-.194-.089-.277-.332-.277a.467.467,0,0,0-.282.078.015.015,0,0,0,0,.021l.061.109a.015.015,0,0,0,.023,0,.285.285,0,0,1,.182-.054c.133,0,.176.041.176.132v.038C2.859,11.764,2.856,11.767,2.849,11.767Zm.01.209c0,.091-.063.136-.176.136-.089,0-.137-.033-.137-.1s.053-.108.171-.108h.132a.009.009,0,0,1,.01.01Z"/><path d="M3.637,11.448H3.485a.016.016,0,0,0-.016.017v.762a.016.016,0,0,0,.016.017h.152a.016.016,0,0,0,.016-.017v-.459a.153.153,0,0,1,.152-.173c.1,0,.15.071.15.173v.459a.016.016,0,0,0,.017.017h.152a.016.016,0,0,0,.016-.017v-.5a.271.271,0,0,0-.275-.3.246.246,0,0,0-.21.093h0v-.058A.016.016,0,0,0,3.637,11.448Z"/><path d="M4.74,11.448H4.588a.016.016,0,0,0-.017.017v.762a.016.016,0,0,0,.017.017H4.74a.016.016,0,0,0,.016-.017v-.459a.153.153,0,0,1,.152-.173c.1,0,.15.071.15.173v.459a.016.016,0,0,0,.017.017h.151a.016.016,0,0,0,.017-.017v-.5a.272.272,0,0,0-.276-.3.245.245,0,0,0-.209.093h0v-.058A.016.016,0,0,0,4.74,11.448Z"/><path d="M5.934,11.448h.152a.017.017,0,0,1,.017.017v.762a.017.017,0,0,1-.017.017H5.934a.017.017,0,0,1-.017-.017v-.762A.016.016,0,0,1,5.934,11.448Z"/><path d="M5.934,11.122h.152a.017.017,0,0,1,.017.017v.143a.017.017,0,0,1-.017.017H5.934a.016.016,0,0,1-.016-.016v-.144A.017.017,0,0,1,5.934,11.122Z"/><path d="M6.945,11.448H6.794a.016.016,0,0,0-.017.017v.762a.016.016,0,0,0,.017.017h.151a.016.016,0,0,0,.017-.017v-.459a.153.153,0,0,1,.152-.173c.1,0,.15.071.15.173v.459a.016.016,0,0,0,.016.017h.152a.016.016,0,0,0,.017-.017v-.5a.272.272,0,0,0-.276-.3.246.246,0,0,0-.21.093h0v-.058A.016.016,0,0,0,6.945,11.448Z"/><path d="M8.2,12.394a.249.249,0,0,1-.173-.074.014.014,0,0,0-.024,0l-.1.1a.015.015,0,0,0,0,.023.4.4,0,0,0,.289.119.333.333,0,0,0,.371-.365v-.729a.016.016,0,0,0-.016-.017H8.392a.016.016,0,0,0-.016.017v.059h0a.228.228,0,0,0-.206-.094.266.266,0,0,0-.271.2.591.591,0,0,0-.026.2.6.6,0,0,0,.026.2.265.265,0,0,0,.271.193.229.229,0,0,0,.206-.092h0V12.2C8.376,12.328,8.32,12.394,8.2,12.394Zm.161-.437a.149.149,0,0,1-.283,0,.38.38,0,0,1-.018-.131.385.385,0,0,1,.018-.13.15.15,0,0,1,.283,0,.385.385,0,0,1,.018.13A.38.38,0,0,1,8.358,11.957Z"/><path d="M10.09,11.6a.182.182,0,0,1,.147.069.015.015,0,0,0,.023,0l.1-.091a.016.016,0,0,0,0-.023.344.344,0,0,0-.275-.124.32.32,0,0,0-.328.22.781.781,0,0,0,0,.392.32.32,0,0,0,.328.22.349.349,0,0,0,.275-.122c0-.008.007-.017,0-.023l-.1-.091a.014.014,0,0,0-.023,0,.182.182,0,0,1-.147.069.147.147,0,0,1-.149-.1.492.492,0,0,1-.016-.149.478.478,0,0,1,.016-.147A.147.147,0,0,1,10.09,11.6Z"/><path d="M11.512,12.127a.016.016,0,0,0,0-.024l-.1-.085c-.008-.007-.016-.005-.024,0a.241.241,0,0,1-.187.076.173.173,0,0,1-.178-.121.166.166,0,0,1-.012-.061.009.009,0,0,1,.01-.01h.49c.012,0,.018-.006.018-.016a.716.716,0,0,0-.026-.239.352.352,0,0,0-.652,0,.65.65,0,0,0-.026.2.606.606,0,0,0,.028.2.323.323,0,0,0,.332.221A.418.418,0,0,0,11.512,12.127Zm-.49-.438a.156.156,0,0,1,.157-.1.154.154,0,0,1,.155.1.2.2,0,0,1,.01.068c0,.007,0,.01-.01.01h-.312a.009.009,0,0,1-.01-.01A.222.222,0,0,1,11.022,11.689Z"/><path d="M12.154,11.523h0v-.058a.016.016,0,0,0-.016-.017h-.152a.016.016,0,0,0-.016.017v.762a.016.016,0,0,0,.016.017h.152a.016.016,0,0,0,.016-.017v-.459A.153.153,0,0,1,12.3,11.6c.1,0,.15.071.15.173v.459a.016.016,0,0,0,.017.017h.152a.016.016,0,0,0,.016-.017v-.5a.272.272,0,0,0-.276-.3A.245.245,0,0,0,12.154,11.523Z"/><path d="M13.3,11.592a.009.009,0,0,1,.01.01v.419c0,.155.061.233.221.233h.079a.016.016,0,0,0,.016-.017v-.132a.015.015,0,0,0-.016-.016h-.041c-.051,0-.075-.019-.075-.075V11.6a.009.009,0,0,1,.01-.01h.106a.016.016,0,0,0,.016-.017v-.11a.016.016,0,0,0-.016-.017H13.5a.009.009,0,0,1-.01-.01v-.217a.016.016,0,0,0-.016-.017h-.152a.016.016,0,0,0-.016.017v.217a.009.009,0,0,1-.01.01h-.053a.016.016,0,0,0-.017.017v.11a.016.016,0,0,0,.017.017Z"/><path d="M14.888,12.127a.016.016,0,0,0,0-.024l-.1-.085a.017.017,0,0,0-.025,0,.241.241,0,0,1-.187.076.174.174,0,0,1-.178-.121.189.189,0,0,1-.011-.061.009.009,0,0,1,.01-.01h.49a.016.016,0,0,0,.018-.016.709.709,0,0,0-.027-.239.351.351,0,0,0-.651,0,.616.616,0,0,0-.027.2.635.635,0,0,0,.028.2.323.323,0,0,0,.332.221A.421.421,0,0,0,14.888,12.127Zm-.49-.438a.17.17,0,0,1,.311,0,.2.2,0,0,1,.01.068c0,.007,0,.01-.01.01H14.4c-.007,0-.01,0-.01-.01A.2.2,0,0,1,14.4,11.689Z"/><path d="M15.563,12.244a.016.016,0,0,0,.017-.017V11.8c0-.128.046-.2.15-.2a.214.214,0,0,1,.117.038.015.015,0,0,0,.023,0l.088-.111c.006-.008,0-.014,0-.023a.243.243,0,0,0-.167-.066.226.226,0,0,0-.206.1h0v-.068a.016.016,0,0,0-.017-.017h-.151a.016.016,0,0,0-.017.017v.762a.016.016,0,0,0,.017.017Z"/><path d="M1.187,13.06.107,15.6H.672L.9,15.033H1.969l.23.566h.58L1.7,13.06ZM1.1,14.543l.335-.817.335.817Z"/><path d="M3.84,15.17a.5.5,0,0,1-.49-.533V14.63a.493.493,0,0,1,.468-.526.565.565,0,0,1,.44.213l.335-.361a.953.953,0,0,0-.771-.324A.991.991,0,0,0,2.81,14.637v.007a.986.986,0,0,0,1,1,.972.972,0,0,0,.788-.353l-.32-.324A.612.612,0,0,1,3.84,15.17Z"/><path d="M5.706,15.17a.5.5,0,0,1-.49-.533V14.63a.493.493,0,0,1,.468-.526.563.563,0,0,1,.439.213l.335-.361a.95.95,0,0,0-.77-.324.992.992,0,0,0-1.013,1.005v.007a.986.986,0,0,0,1,1,.972.972,0,0,0,.789-.353l-.32-.324A.614.614,0,0,1,5.706,15.17Z"/><path d="M7.589,13.632a1.014,1.014,0,0,0-1.048,1.005v.007a1.045,1.045,0,0,0,2.089-.007V14.63A1,1,0,0,0,7.589,13.632Zm.5,1.012a.494.494,0,0,1-.5.526.512.512,0,0,1-.507-.533V14.63a.494.494,0,0,1,.5-.526.513.513,0,0,1,.508.533Z"/><path d="M10.111,14.745c0,.259-.134.393-.343.393s-.331-.134-.331-.393V13.668H8.89v1.25a.633.633,0,0,0,.655.717.683.683,0,0,0,.566-.31V15.6h.547V13.668h-.547Z"/><path d="M12.155,13.632a.683.683,0,0,0-.565.31v-.274h-.548V15.6h.548V14.522c0-.259.133-.393.342-.393s.331.134.331.393V15.6h.548v-1.25A.634.634,0,0,0,12.155,13.632Z"/><path d="M13.8,13.175h-.548v.493h-.23v.468h.23v.915c0,.447.227.58.562.58a.809.809,0,0,0,.432-.111v-.44a.558.558,0,0,1-.27.069c-.122,0-.176-.061-.176-.188v-.825h.453v-.468H13.8Z"/><path d="M15.378,14.432c-.208-.072-.392-.123-.392-.231v-.007c0-.075.068-.133.2-.133a1.141,1.141,0,0,1,.522.18l.209-.378a1.333,1.333,0,0,0-.721-.223.631.631,0,0,0-.706.612v.007c0,.375.307.5.577.58.212.065.4.1.4.223v.007c0,.087-.073.145-.231.145a1.1,1.1,0,0,1-.609-.231l-.234.36a1.351,1.351,0,0,0,.829.292c.417,0,.738-.2.738-.623V15C15.962,14.652,15.649,14.522,15.378,14.432Z"/><path d="M12.52,7.878V2.294A1.72,1.72,0,0,0,10.8.574H4.941a1.72,1.72,0,0,0-1.719,1.72V7.878A1.72,1.72,0,0,0,4.941,9.6H10.8A1.72,1.72,0,0,0,12.52,7.878Zm-.929,0a.792.792,0,0,1-.791.791H4.941a.791.791,0,0,1-.79-.791V2.294a.791.791,0,0,1,.79-.791H6.089v.355a.191.191,0,0,0,.192.191H9.455a.191.191,0,0,0,.191-.191V1.5H10.8a.791.791,0,0,1,.791.791Z"/><path d="M10.292,5.054a.1.1,0,0,0-.071-.086l-.016,0h0l-.33-.037a.507.507,0,0,1-.322-.776l.208-.26.005-.007,0,0,.006-.011.005-.012v0a.1.1,0,0,0-.018-.09l0,0,0,0-.333-.333,0,0,0,0A.1.1,0,0,0,9.3,3.4l-.013.009,0,0-.259.208A.507.507,0,0,1,8.244,3.3L8.208,2.97l0-.009v0l0-.012L8.2,2.934l0,0a.1.1,0,0,0-.076-.051H7.625a.1.1,0,0,0-.087.071l0,.016v0L7.5,3.3a.506.506,0,0,1-.776.321l-.26-.207-.008,0,0,0L6.439,3.4l-.012,0h0a.1.1,0,0,0-.09.018l0,0-.007.006-.333.333,0,0,0,0a.1.1,0,0,0-.011.111l.009.014,0,0,.208.26a.506.506,0,0,1-.321.776l-.331.037-.009,0h0l-.012,0-.011,0,0,0a.1.1,0,0,0-.051.077v.493a.1.1,0,0,0,.071.087l.016,0h0l.331.037a.505.505,0,0,1,.321.776l-.208.26,0,.007,0,0-.006.011,0,.011v0a.1.1,0,0,0,.018.092l0,0,0,0,.335.335,0,0,0,0a.1.1,0,0,0,.111.01l.014-.009,0,0,.26-.208A.508.508,0,0,1,7.5,7.3l.037.33,0,.009v0l0,.011,0,.012,0,0a.1.1,0,0,0,.077.05h.492A.1.1,0,0,0,8.2,7.651l0-.016v0l.037-.33a.506.506,0,0,1,.776-.322l.259.208.008,0,0,0L9.3,7.2l.011,0h0a.106.106,0,0,0,.091-.018l0,0,.006,0,.333-.333,0-.005,0,0a.1.1,0,0,0,.01-.112l-.009-.013,0,0-.208-.259a.507.507,0,0,1,.322-.777l.33-.036.009,0h0l.011,0,.012,0,0,0a.1.1,0,0,0,.051-.076V5.054ZM7.871,6.127A.826.826,0,1,1,8.7,5.3.826.826,0,0,1,7.871,6.127Z"/></g></svg>