<svg xmlns="http://www.w3.org/2000/svg" viewBox="0 0 16 16"><title>accounts-logo-stack</title><g id="Layer_1" data-name="Layer 1"><path d="M1,12.09a2.46,2.46,0,0,0-.73.12.12.12,0,0,0-.08.15l0,.17a.13.13,0,0,0,.15.11,2,2,0,0,1,.57-.1.32.32,0,0,1,.23.07.5.5,0,0,1,.08.35,1.37,1.37,0,0,0-.39-.06c-.52,0-.86.28-.86.7a.67.67,0,0,0,.69.72.92.92,0,0,0,.63-.24l0,.1a.12.12,0,0,0,.11.09h.15a.13.13,0,0,0,.12-.12V13C1.76,12.52,1.71,12.09,1,12.09ZM.81,13.9a.28.28,0,0,1-.3-.3c0-.2.16-.32.4-.32a1.07,1.07,0,0,1,.36.06v.33A.64.64,0,0,1,.81,13.9Z"/><path d="M3.77,13.58a.12.12,0,0,0-.17,0s0,0-.05.05a.59.59,0,0,1-.43.2.64.64,0,0,1,0-1.27.64.64,0,0,1,.42.2s.09.09.16,0l.17-.15a.14.14,0,0,0,0-.18,1,1,0,0,0-.78-.37A1.11,1.11,0,0,0,2,13.21a1.09,1.09,0,0,0,1.09,1.11A1,1,0,0,0,4,13.87a.14.14,0,0,0,0-.18Z"/><path d="M5.79,13.58a.12.12,0,0,0-.17,0l-.06.05a.54.54,0,0,1-.42.2.64.64,0,0,1,0-1.27.64.64,0,0,1,.42.2s.09.09.16,0l.17-.15a.14.14,0,0,0,0-.18,1,1,0,0,0-.78-.37,1.11,1.11,0,0,0-1.09,1.12,1.09,1.09,0,0,0,1.09,1.11A1,1,0,0,0,6,13.87a.14.14,0,0,0,0-.18Z"/><path d="M7.15,12.09A1.12,1.12,0,1,0,8.23,13.2,1.12,1.12,0,0,0,7.15,12.09Zm.59,1.11a.6.6,0,0,1-.59.64.64.64,0,0,1,0-1.27A.59.59,0,0,1,7.74,13.2Z"/><path d="M10.21,12.14H10c-.07,0-.14,0-.14.12v1.26a.5.5,0,0,1-.47.32c-.26,0-.38-.15-.38-.47V12.26a.13.13,0,0,0-.12-.12H8.62a.13.13,0,0,0-.13.12v1.08c0,.45.09,1,.8,1a.85.85,0,0,0,.65-.27l0,.12c0,.05,0,.1.12.1h.11a.13.13,0,0,0,.13-.12V12.26A.14.14,0,0,0,10.21,12.14Z"/><path d="M11.82,12.09a1,1,0,0,0-.69.27l-.05-.14a.1.1,0,0,0-.1-.08h-.11a.13.13,0,0,0-.13.12v1.89a.13.13,0,0,0,.13.12h.23c.09,0,.14,0,.14-.12v-1.3a.63.63,0,0,1,.53-.28c.25,0,.38.18.38.51v1.07a.13.13,0,0,0,.13.12h.25a.12.12,0,0,0,.12-.12V13.1C12.65,12.42,12.38,12.09,11.82,12.09Z"/><path d="M14.25,13.8a.11.11,0,0,0-.06-.07.11.11,0,0,0-.09,0,.82.82,0,0,1-.32.09c-.08,0-.15,0-.15-.19V12.57h.53a.12.12,0,0,0,.12-.12v-.19a.12.12,0,0,0-.12-.12h-.53v-.56a.11.11,0,0,0-.11-.12h-.26a.12.12,0,0,0-.12.12v.56h-.22a.12.12,0,0,0-.12.12v.19a.12.12,0,0,0,.12.12h.22v1.1c0,.3.06.65.55.65a1.3,1.3,0,0,0,.59-.15.14.14,0,0,0,.06-.16Z"/><path d="M15.29,13c-.22-.09-.34-.17-.34-.28s.08-.16.25-.16a1,1,0,0,1,.43.1.12.12,0,0,0,.17-.05l.07-.15a.15.15,0,0,0,0-.18,1.16,1.16,0,0,0-.62-.16c-.5,0-.72.3-.72.6s.28.54.58.68.43.21.43.33-.1.18-.25.18a1,1,0,0,1-.5-.14h0a.12.12,0,0,0-.1,0,.06.06,0,0,0-.06,0l-.1.19a.12.12,0,0,0,0,.14h0a1.27,1.27,0,0,0,.7.22.68.68,0,0,0,.77-.63C16,13.29,15.71,13.15,15.29,13Z"/><circle cx="8" cy="5.87" r="0.8"/><path d="M8,1.68c-3.35,0-4.19.84-4.19,4.19S4.65,10.06,8,10.06s4.19-.84,4.19-4.19S11.35,1.68,8,1.68ZM9.55,5.87c0,.07,0,.14,0,.2l.43.35a.11.11,0,0,1,0,.13l-.42.71a.09.09,0,0,1-.12,0L8.94,7.1a1.33,1.33,0,0,1-.35.2l-.07.55a.11.11,0,0,1-.11.09H7.59a.1.1,0,0,1-.1-.09L7.41,7.3a1.51,1.51,0,0,1-.35-.2l-.52.21a.1.1,0,0,1-.12,0L6,6.55a.11.11,0,0,1,0-.13l.43-.35c0-.06,0-.13,0-.2s0-.13,0-.2L6,5.33A.11.11,0,0,1,6,5.2l.42-.72a.1.1,0,0,1,.12-.05l.52.21a1.51,1.51,0,0,1,.35-.2l.08-.55a.1.1,0,0,1,.1-.09h.82a.11.11,0,0,1,.11.09l.07.55a1.33,1.33,0,0,1,.35.2l.52-.21a.1.1,0,0,1,.12.05L10,5.2a.11.11,0,0,1,0,.13l-.43.34C9.54,5.74,9.55,5.8,9.55,5.87Z"/></g></svg>