<svg xmlns="http://www.w3.org/2000/svg" viewBox="0 0 16 16">
  <title>administrators</title>
  <g id="Layer_1" data-name="Layer 1">
    <path d="M8,0,.026.8v2.99A13.371,13.371,0,0,0,7.477,15.821L8,16.082l.523-.261h0a13.372,13.372,0,0,0,7.45-12.035V.8Zm0,14.4a11.952,11.952,0,0,1-4.048-3.4A5.348,5.348,0,0,1,6.54,9.322,2.806,2.806,0,0,0,8.188,9.9a2.687,2.687,0,0,0,1.188-.29,7.238,7.238,0,0,1,2.469,1.667A11.966,11.966,0,0,1,8,14.405ZM8.188,8.4C7.3,8.4,6.454,7.3,6.454,6.131a1.882,1.882,0,0,1,1.734-2,1.882,1.882,0,0,1,1.733,2C9.921,7.3,9.078,8.4,8.188,8.4Zm6.286-4.613a11.921,11.921,0,0,1-1.753,6.249A9.228,9.228,0,0,0,10.627,8.52a4.068,4.068,0,0,0,.794-2.389,3.378,3.378,0,0,0-3.233-3.5,3.378,3.378,0,0,0-3.234,3.5A4.085,4.085,0,0,0,5.472,8.1,6.856,6.856,0,0,0,3.105,9.73,11.921,11.921,0,0,1,1.526,3.786V2.155L8,1.51l6.474.645Z"/>
  </g>
</svg>
