<svg xmlns="http://www.w3.org/2000/svg" viewBox="0 0 16 16"><title>administrators</title><g id="Layer_1" data-name="Layer 1"><path d="M8,0,0,.8v3a13.36,13.36,0,0,0,7.45,12l.52.26.52-.26h0A13.36,13.36,0,0,0,16,3.79V.8ZM8,14.41A12.08,12.08,0,0,1,4,11,5.41,5.41,0,0,1,6.54,9.32a2.78,2.78,0,0,0,1.65.58,2.78,2.78,0,0,0,1.19-.29,7.34,7.34,0,0,1,2.47,1.67A12.17,12.17,0,0,1,8,14.41Zm.19-6c-.89,0-1.74-1.1-1.74-2.27a1.89,1.89,0,0,1,1.74-2,1.89,1.89,0,0,1,1.73,2C9.92,7.3,9.08,8.4,8.19,8.4Zm6.28-4.61A11.91,11.91,0,0,1,12.72,10a9.13,9.13,0,0,0-2.09-1.52,4.1,4.1,0,0,0,.79-2.39,3.38,3.38,0,0,0-3.23-3.5A3.38,3.38,0,0,0,5,6.13a4.1,4.1,0,0,0,.52,2A7,7,0,0,0,3.1,9.73,12,12,0,0,1,1.53,3.79V2.15L8,1.51l6.47.64Z"/></g></svg>