<svg xmlns="http://www.w3.org/2000/svg" viewBox="0 0 16 16">
  <title>android</title>
  <g id="Layer_1" data-name="Layer 1">
    <path d="M12.153,6.44,13.51,4.954a.735.735,0,1,0-1.086-.992L10.909,5.62a6.628,6.628,0,0,0-5.977,0L3.418,3.962a.736.736,0,0,0-1.087.992L3.689,6.44A6.8,6.8,0,0,0,1.3,11.147a.461.461,0,0,0,.463.481H14.078a.461.461,0,0,0,.463-.481A6.8,6.8,0,0,0,12.153,6.44ZM4.874,10.122A1.031,1.031,0,1,1,5.905,9.091,1.031,1.031,0,0,1,4.874,10.122Zm6.093,0A1.031,1.031,0,1,1,12,9.091,1.031,1.031,0,0,1,10.967,10.122Z"/>
  </g>
</svg>
