<svg xmlns="http://www.w3.org/2000/svg" viewBox="0 0 16 16"><title>applications</title><g id="Layer_1" data-name="Layer 1"><path d="M2.48,5.65c.75-.58,1.37-.18,2.19.78.1.11.22,0,.29-.08L6.18,5.26c.05,0,.12-.14,0-.23l-.59-.77c-1.45-1.89,4-3.18,3.13-3.2-.42,0-2.12,0-2.37,0a7.87,7.87,0,0,0-3,1.52,7.71,7.71,0,0,0-1.22,1c-.24.21,0,.69-.48,1.07S1,4.72.7,5l-.61.48a.26.26,0,0,0,0,.38L1.17,7a.35.35,0,0,0,.46,0l.56-.49C2.26,6.54,2.15,5.91,2.48,5.65Zm4.57.42a.21.21,0,0,0-.32,0l-1.15,1a.23.23,0,0,0,0,.32l6.65,7.56a.42.42,0,0,0,.6,0l.78-.65a.44.44,0,0,0,0-.61Zm8.86-3.22c-.06-.4-.26-.31-.37-.15s-.58.88-.77,1.21a1,1,0,0,1-1.55.33c-.92-.65-.6-1.11-.44-1.41s.66-1.17.73-1.28a.22.22,0,0,0-.3-.29c-.28.14-2,.83-2.26,1.81s.21,1.91-.68,2.8L9.19,7l1.08,1.25L11.6,7a1.89,1.89,0,0,1,1.6-.48,2,2,0,0,0,2.45-1A5.71,5.71,0,0,0,15.91,2.85ZM2.16,13.79a.45.45,0,0,0,0,.61l.76.75a.44.44,0,0,0,.6-.07l3.93-3.87L6.25,9.84Z"/></g></svg>