<svg xmlns="http://www.w3.org/2000/svg" viewBox="0 0 16 16"><title>bill</title><g id="Layer_1" data-name="Layer 1"><path d="M13.83,1.4V13.81l-.9-.46L12.24,13l-.65.45-1.37,1-1.56-1L8,13l-.69.41-1.67,1-1.22-.92L3.76,13,3,13.35l-.9.46V1.4h11.7M15.12.1H.83V16L3.62,14.5,5.54,16,8,14.5,10.25,16l2.08-1.45L15.12,16V.1Z"/><path d="M5.91,6.69c-.7-.29-.82-.44-.82-.66s.16-.43.58-.43a1.64,1.64,0,0,1,.87.24L6.79,6l.38-1L7,4.89a1.87,1.87,0,0,0-.73-.26V3.82H5v.89a1.46,1.46,0,0,0-1,1.41c0,.9.73,1.31,1.45,1.59s.73.46.73.7-.28.52-.68.52a1.91,1.91,0,0,1-1-.29l-.26-.18-.36,1L4,9.57a2.28,2.28,0,0,0,1,.36v.83H6.25V9.82a1.58,1.58,0,0,0,1-1.46A1.81,1.81,0,0,0,5.91,6.69Z"/><rect x="8.28" y="4.21" width="3.88" height="1.4"/><rect x="8.28" y="6.78" width="3.88" height="1.4"/><rect x="8.28" y="9.35" width="1.97" height="1.4"/></g></svg>