<svg width="16" height="16" viewBox="0 0 16 16" fill="none" xmlns="http://www.w3.org/2000/svg">
<path d="M13.8472 1.37526V13.7866L12.9543 13.3235L12.2544 12.9625L10.2387 14.3647L8.68691 13.3775L8.012 12.9495L5.64933 14.3587L3.7786 12.9444L3.0517 13.3205L2.15182 13.7876V1.37526H13.8502H13.8472ZM15.15 0.0750122H0.850006V15.925L3.64961 14.4777L5.56335 15.925L7.99101 14.4777L10.2757 15.925L12.3554 14.4777L15.147 15.925V0.0750122H15.15Z" fill="black"/>
<path d="M5.9343 6.66626C5.23439 6.37721 5.11641 6.22818 5.11641 6.00414C5.11641 5.8041 5.26939 5.57905 5.69833 5.57905C6.00202 5.57603 6.30064 5.65703 6.56121 5.8131L6.81517 5.95813L7.19012 4.96994L7.00714 4.86192C6.78178 4.73212 6.53486 4.64403 6.27825 4.60187V3.79272H4.98443V4.68288C4.6812 4.77462 4.41579 4.96203 4.22783 5.21711C4.03986 5.4722 3.93945 5.78127 3.94157 6.09815C3.94157 6.99832 4.67547 7.4064 5.39137 7.68745C5.99829 7.9335 6.12227 8.14554 6.12227 8.38759C6.12227 8.69765 5.84731 8.90569 5.43836 8.90569C5.08706 8.90363 4.74364 8.80126 4.4485 8.61063L4.18254 8.4336L3.82259 9.43379L3.97557 9.54381C4.27958 9.74044 4.6248 9.86434 4.98443 9.90587V10.728H6.27825V9.78785C6.57682 9.6786 6.83498 9.48086 7.01827 9.22102C7.20157 8.96117 7.30128 8.65159 7.3041 8.33358C7.2851 7.94534 7.14162 7.57355 6.89491 7.27326C6.64819 6.97296 6.31137 6.76012 5.9343 6.66626Z" fill="black"/>
<path d="M12.1894 4.18079H8.30696V5.58106H12.1894V4.18079Z" fill="black"/>
<path d="M12.1894 6.75528H8.30696V8.15554H12.1894V6.75528Z" fill="black"/>
<path d="M10.2757 9.32976H8.30696V10.73H10.2757V9.32976Z" fill="black"/>
</svg>
