<svg width="16" height="16" viewBox="0 0 16 16" fill="none" xmlns="http://www.w3.org/2000/svg">
<path d="M13.8472 1.37525V13.7866L12.9543 13.3235L12.2544 12.9624L10.2387 14.3647L8.68691 13.3775L8.012 12.9494L5.64933 14.3587L3.7786 12.9444L3.0517 13.3205L2.15182 13.7876V1.37525H13.8502H13.8472ZM15.15 0.0750008H0.850006V15.925L3.64961 14.4777L5.56335 15.925L7.99101 14.4777L10.2757 15.925L12.3554 14.4777L15.147 15.925V0.0750008H15.15Z" fill="black"/>
<path d="M5.9343 6.66625C5.23439 6.37719 5.11641 6.22817 5.11641 6.00412C5.11641 5.80409 5.26939 5.57904 5.69833 5.57904C6.00202 5.57602 6.30064 5.65702 6.56121 5.81309L6.81517 5.95812L7.19012 4.96993L7.00714 4.86191C6.78178 4.73211 6.53486 4.64402 6.27825 4.60186V3.7927H4.98443V4.68287C4.6812 4.77461 4.41579 4.96202 4.22783 5.2171C4.03986 5.47219 3.93945 5.78126 3.94157 6.09814C3.94157 6.99831 4.67547 7.40639 5.39137 7.68744C5.99829 7.93349 6.12227 8.14553 6.12227 8.38758C6.12227 8.69763 5.84731 8.90567 5.43836 8.90567C5.08706 8.90361 4.74364 8.80125 4.4485 8.61062L4.18254 8.43358L3.82259 9.43377L3.97557 9.54379C4.27958 9.74043 4.6248 9.86432 4.98443 9.90586V10.728H6.27825V9.78784C6.57682 9.67859 6.83498 9.48085 7.01827 9.221C7.20157 8.96116 7.30128 8.65158 7.3041 8.33356C7.2851 7.94533 7.14162 7.57354 6.89491 7.27325C6.64819 6.97295 6.31137 6.76011 5.9343 6.66625Z" fill="black"/>
<path d="M12.1894 4.18078H8.30696V5.58104H12.1894V4.18078Z" fill="black"/>
<path d="M12.1894 6.75527H8.30696V8.15553H12.1894V6.75527Z" fill="black"/>
<path d="M10.2757 9.32975H8.30696V10.73H10.2757V9.32975Z" fill="black"/>
</svg>
