<svg xmlns="http://www.w3.org/2000/svg" viewBox="0 0 16 16"><title>campus</title><g id="3b2c359e-88f6-4c8f-b3ea-b2926057e0a5" data-name="Layer 1"><path d="M7.884,3.374V.1L.119,2.633V15.887H15.881V4.962ZM5.116,14.786H3.154V11.2H5.116Zm1.667,0H6V10.315H2.273v4.471H1.22V3.431L6.783,1.613V14.786Zm1.1,0V4.5l6.9,1.37v5.675h-.964v.881h.964V13.2H12.563v.88H14.78v.708Z"/><path d="M13.74,7.164H9.011v2.858H13.74Zm-.881,1.977H9.892v-1.1h2.967Z"/><path d="M4.135,4.4a1.38,1.38,0,1,0,1.379,1.38A1.381,1.381,0,0,0,4.135,4.4Zm0,1.878a.5.5,0,1,1,.5-.5A.5.5,0,0,1,4.135,6.275Z"/></g></svg>