<svg width="16" height="16" viewBox="0 0 16 16" fill="none" xmlns="http://www.w3.org/2000/svg">
<path d="M7.88401 3.37962V0.105L0.119995 2.63848V15.895H15.88V4.96792L7.88401 3.37962ZM5.11636 14.7938H3.15461V11.2071H5.11636V14.7938ZM6.78315 14.7938H6.00025V10.3219H2.27372V14.7938H1.22086V3.43663L6.78315 1.61829V14.7938ZM7.88301 14.7938V4.50584L14.7821 5.8761V11.5522H13.8183V12.4333H14.7821V13.2075H12.5624V14.0877H14.7791V14.7958L7.88301 14.7938Z" fill="black"/>
<path d="M13.7393 7.17034H9.01087V10.0289H13.7393V7.17034ZM12.8584 9.14772H9.89176V8.04751H12.8584V9.14772Z" fill="black"/>
<path d="M4.13549 4.40582C3.86254 4.40562 3.59567 4.4864 3.36862 4.63795C3.14158 4.78949 2.96457 5.00499 2.85998 5.25718C2.75539 5.50937 2.72792 5.78693 2.78105 6.05474C2.83418 6.32255 2.96552 6.56858 3.15845 6.76172C3.35138 6.95485 3.59724 7.08641 3.86493 7.13975C4.13261 7.19309 4.4101 7.16581 4.66229 7.06137C4.91448 6.95693 5.13004 6.78002 5.2817 6.55302C5.43336 6.32601 5.51431 6.05911 5.51431 5.78608C5.51405 5.42027 5.36872 5.0695 5.11023 4.81073C4.85174 4.55197 4.50118 4.40635 4.13549 4.40582ZM4.13549 6.28417C4.03661 6.28417 3.93995 6.25484 3.85774 6.19989C3.77552 6.14494 3.71144 6.06684 3.6736 5.97546C3.63577 5.88408 3.62587 5.78352 3.64516 5.68651C3.66445 5.58951 3.71206 5.5004 3.78198 5.43046C3.85189 5.36052 3.94097 5.31289 4.03795 5.29359C4.13493 5.2743 4.23545 5.2842 4.3268 5.32205C4.41815 5.3599 4.49623 5.424 4.55117 5.50624C4.6061 5.58848 4.63542 5.68517 4.63542 5.78408C4.63463 5.91619 4.58161 6.04262 4.48794 6.13576C4.39427 6.2289 4.26756 6.28118 4.13549 6.28117V6.28417Z" fill="black"/>
</svg>
