<svg xmlns="http://www.w3.org/2000/svg" viewBox="0 0 16 16"><title>checkr</title><g id="Layer_1" data-name="Layer 1"><path id="Main-UI" d="M7.222,7.7a.594.594,0,0,1,.555.528c-.385.009-.77,0-1.155,0a.593.593,0,0,1,.6-.528Zm.994.071a.974.974,0,0,0-.332-.4,1.188,1.188,0,0,0-1.79.6,1.863,1.863,0,0,0-.108.7,1.656,1.656,0,0,0,.153.653,1.129,1.129,0,0,0,.546.555,1.388,1.388,0,0,0,.635.1,1.208,1.208,0,0,0,.627-.2.948.948,0,0,0,.322-.3l-.358-.358c-.009,0-.009.009-.018.009a.824.824,0,0,1-.832.3.655.655,0,0,1-.493-.663H8.359A1.575,1.575,0,0,0,8.216,7.772Zm4.512,2.149h.662L12.361,8.229l.958-1h-.752c-.143.152-.3.313-.448.466s-.286.322-.448.465l-.017-.009V6.08h-.547v2.4a.533.533,0,0,1-.17.492,1.272,1.272,0,0,1-.8.492.7.7,0,0,1-.824-.519,1.355,1.355,0,0,1,.009-.734.79.79,0,0,1,.259-.394.688.688,0,0,1,.851.045.158.158,0,0,0,.045.036l.313-.394a.885.885,0,0,0-.367-.26,1.275,1.275,0,0,0-.833-.036,1.129,1.129,0,0,0-.8.779,1.82,1.82,0,0,0-.018,1.137,1.089,1.089,0,0,0,.394.6,1.387,1.387,0,0,0,1.038.26,1.593,1.593,0,0,0,.851-.367l.053-.027c.027.116-.009.241.027.349h.537V8.954l.314-.286.743,1.253Zm-8.72,0V8.578a1.8,1.8,0,0,1,.045-.385A.624.624,0,0,1,4.715,7.7a.346.346,0,0,1,.34.286.992.992,0,0,1,.018.161V9.93h.546V8.068A2.353,2.353,0,0,0,5.6,7.817.714.714,0,0,0,5.037,7.2a1.176,1.176,0,0,0-.931.161.772.772,0,0,1-.089.054V6.071H3.471v.108c0,.546-.009,1.092,0,1.647a.81.81,0,0,1-.117.457,2.585,2.585,0,0,1-.7.823,1.279,1.279,0,0,1-1.074.233.868.868,0,0,1-.573-.394,1.809,1.809,0,0,1-.251-.931A1.981,1.981,0,0,1,.874,7.3a1.134,1.134,0,0,1,.385-.546,1,1,0,0,1,.636-.17.76.76,0,0,1,.609.295l.107.134.358-.456a1.093,1.093,0,0,0-.394-.367,1.711,1.711,0,0,0-1.029-.162A1.414,1.414,0,0,0,.462,6.77,2.5,2.5,0,0,0,.167,8.2a2.605,2.605,0,0,0,.251.931,1.323,1.323,0,0,0,.949.788,1.954,1.954,0,0,0,.644.054,1.624,1.624,0,0,0,.5-.108,2.25,2.25,0,0,0,.859-.582l.081-.08.018.009v.707ZM15.826,7.656a.243.243,0,0,0-.072.063c-.125.116-.242.241-.367.367-.027-.045-.045-.09-.063-.126a.492.492,0,0,0-.609-.232.456.456,0,0,0-.268.214,1.014,1.014,0,0,0-.17.6V9.921a2.218,2.218,0,0,1-.546.009v-2.7h.537l.009.179a.208.208,0,0,0,.062-.036A1.033,1.033,0,0,1,15,7.163a.915.915,0,0,1,.564.171,1.027,1.027,0,0,1,.233.25.239.239,0,0,0,.045.054Z"/></g></svg>