<svg xmlns="http://www.w3.org/2000/svg" viewBox="0 0 16 16"><title>chrome</title><g id="Layer_1" data-name="Layer 1"><path d="M8.05,4.62h7a7.93,7.93,0,0,0-7-4.5,7.87,7.87,0,0,0-6.2,3L4.57,7.81A3.34,3.34,0,0,1,8.05,4.62Zm0,6.77A3.47,3.47,0,0,1,4.79,9.14l0,0L1.53,3.52A7.85,7.85,0,0,0,6.9,15.72L9.61,11A3.55,3.55,0,0,1,8,11.39ZM15.28,5H9.86a3.46,3.46,0,0,1,.81,5.17L7.46,15.79H8A7.83,7.83,0,0,0,15.85,8,7.74,7.74,0,0,0,15.28,5ZM5.09,7.89A2.93,2.93,0,1,0,8,5,2.93,2.93,0,0,0,5.09,7.89Z" fill-rule="evenodd"/></g></svg>