<svg xmlns="http://www.w3.org/2000/svg" viewBox="0 0 16 16"><title>church-center-o</title><g id="Layer_1" data-name="Layer 1"><path d="M14.127,5.207l-.087-.174C12.823,3.816,9,.6,8.824.513a1.32,1.32,0,0,0-1.738,0L2.13,4.773l-.087.087c-.26.173-.347.347-.26,5.3,0,2.261.087,4.608.087,4.608a.986.986,0,0,0,.956,1.043H5.608A1.057,1.057,0,0,0,6.651,14.77V12.249a4.528,4.528,0,0,1,1.3-3.043,4.528,4.528,0,0,1,1.3,3.043v2.608a.986.986,0,0,0,1.043.956h2.782a.965.965,0,0,0,.956-.956l.174-4.695A27.2,27.2,0,0,0,14.127,5.207ZM12.562,5.12A17.117,17.117,0,0,0,7.955,7.728,18.346,18.346,0,0,0,5.26,5.9c-.609-.261-1.217-.522-1.913-.783L7.781,1.3a.163.163,0,0,1,.261,0ZM10.3,14.77V12.249A5.5,5.5,0,0,0,8.737,8.511,13.6,13.6,0,0,1,12.91,6.164c.087,0,.174-.087.261-.087.087,1.477,0,5.476-.174,8.78ZM5.608,12.249V14.77H2.913c-.174-3.3-.261-7.3-.174-8.78.7.26,1.3.521,1.912.782A13.245,13.245,0,0,1,7.259,8.424,5.423,5.423,0,0,0,5.608,12.249Z"/><path d="M6.39,4.6A1.543,1.543,0,0,0,7.955,6.077,1.559,1.559,0,0,0,9.52,4.512,1.487,1.487,0,0,0,7.955,3.034,1.558,1.558,0,0,0,6.39,4.6Zm2.26,0a.7.7,0,1,1-.7-.7A.686.686,0,0,1,8.65,4.6Z"/></g></svg>