<svg width="16" height="16" viewBox="0 0 16 16" fill="none" xmlns="http://www.w3.org/2000/svg">
<path d="M7.981 0.130005C6.42528 0.133762 4.90557 0.598521 3.61386 1.46557C2.32214 2.33262 1.31638 3.56305 0.723636 5.00144C0.130887 6.43982 -0.0222559 8.02162 0.283553 9.54699C0.589361 11.0724 1.3404 12.4729 2.44179 13.5716C3.54318 14.6704 4.94551 15.418 6.47162 15.7202C7.99773 16.0223 9.57915 15.8653 11.0161 15.2691C12.453 14.6729 13.6811 13.6642 14.545 12.3704C15.4089 11.0766 15.87 9.55574 15.87 8.00001C15.865 5.91101 15.0316 3.90929 13.5527 2.43392C12.0737 0.958551 10.07 0.129999 7.981 0.130005ZM7.981 14.7747C6.64186 14.7712 5.33381 14.3708 4.22209 13.6243C3.11036 12.8777 2.24483 11.8184 1.73483 10.5801C1.22483 9.34191 1.09323 7.98031 1.35666 6.66733C1.6201 5.35435 2.26674 4.14889 3.21492 3.20323C4.16309 2.25757 5.37026 1.61412 6.68393 1.35417C7.9976 1.09422 9.35885 1.22943 10.5957 1.74272C11.8326 2.25601 12.8896 3.12435 13.6332 4.23805C14.3768 5.35176 14.7737 6.66087 14.7737 8.00001C14.7692 9.79852 14.0515 11.5218 12.7781 12.7919C11.5047 14.0619 9.77951 14.775 7.981 14.7747ZM7.981 2.30356C6.85349 2.30514 5.75176 2.641 4.81511 3.26867C3.87846 3.89633 3.14894 4.78762 2.71878 5.82986C2.28863 6.87209 2.17716 8.01847 2.39846 9.12405C2.61976 10.2296 3.16389 11.2448 3.96207 12.0411C4.76025 12.8375 5.77663 13.3793 6.88272 13.5981C7.9888 13.8169 9.13492 13.7028 10.1762 13.2703C11.2174 12.8377 12.107 12.1062 12.7326 11.1681C13.3581 10.23 13.6914 9.12753 13.6905 8.00001C13.6873 6.48794 13.0843 5.03891 12.0139 3.97093C10.9435 2.90295 9.49307 2.30329 7.981 2.30356ZM7.981 13.0593C6.98093 13.0567 6.00405 12.7578 5.17377 12.2003C4.34348 11.6429 3.69705 10.8518 3.31611 9.92713C2.93518 9.00244 2.83684 7.9856 3.03352 7.00505C3.2302 6.0245 3.71308 5.12424 4.42114 4.41798C5.12921 3.71173 6.03071 3.23117 7.01176 3.03701C7.99281 2.84284 9.0094 2.94379 9.9331 3.3271C10.8568 3.7104 11.6462 4.35887 12.2015 5.19058C12.7569 6.02229 13.0533 6.99994 13.0533 8.00001C13.0501 9.3431 12.5143 10.6301 11.5634 11.5786C10.6124 12.527 9.32409 13.0596 7.981 13.0593ZM10.3926 5.16629L7.03576 6.92174C6.97769 6.95227 6.93026 6.9997 6.89973 7.05777L5.12828 10.4236C5.10246 10.4729 5.08978 10.5279 5.09148 10.5835C5.09317 10.6391 5.10917 10.6933 5.13794 10.7408C5.1667 10.7884 5.20726 10.8278 5.25568 10.8551C5.3041 10.8824 5.35876 10.8967 5.41435 10.8968C5.46741 10.897 5.51969 10.8839 5.56639 10.8587L8.92124 9.07429C8.93924 9.06429 8.94725 9.04428 8.96325 9.03128C8.97926 9.01827 8.98826 9.03128 8.99826 9.01727C9.00826 9.00327 9.00426 8.99327 9.01226 8.98326C9.02027 8.97326 9.04527 8.95926 9.05427 8.94125L10.8277 5.6044C10.8602 5.54346 10.8723 5.47372 10.8622 5.4054C10.8522 5.33708 10.8205 5.27377 10.7718 5.22478C10.7232 5.17578 10.6601 5.14366 10.5919 5.13314C10.5236 5.12261 10.4538 5.13423 10.3926 5.16629ZM7.26782 7.74595L8.23207 8.70919L6.18855 9.80047L7.26782 7.74595ZM8.68918 8.25308L7.72494 7.28983L9.76846 6.22156L8.68918 8.25308Z" fill="black"/>
</svg>
