<svg xmlns="http://www.w3.org/2000/svg" viewBox="0 0 16 16"><title>compass</title><g id="Layer_1" data-name="Layer 1"><path d="M8,.13A7.87,7.87,0,1,0,15.89,8,7.89,7.89,0,0,0,8,.13ZM8,14.77A6.77,6.77,0,1,1,14.79,8,6.79,6.79,0,0,1,8,14.77ZM8,2.3A5.7,5.7,0,1,0,13.71,8,5.71,5.71,0,0,0,8,2.3ZM8,13.06A5.06,5.06,0,1,1,13.07,8,5.07,5.07,0,0,1,8,13.06Zm2.41-7.89L7.06,6.92a.32.32,0,0,0-.14.14L5.15,10.42a.33.33,0,0,0,.28.48.42.42,0,0,0,.16,0L8.94,9.07S9,9,9,9H9S9,9,9,9s0,0,0,0L10.85,5.6a.32.32,0,0,0-.06-.37A.3.3,0,0,0,10.41,5.17ZM7.29,7.75l1,1-2,1.09Zm1.42.5-1-1,2-1.07Z"/></g></svg>