<svg width="16" height="16" viewBox="0 0 16 16" fill="none" xmlns="http://www.w3.org/2000/svg">
<path d="M13.135 5.88631H8.113V6.76718H13.135V5.88631ZM13.135 7.64405H8.113V8.52592H13.135V7.64405ZM10.506 9.38879H8.113V10.2707H10.506V9.38879ZM6.118 8.19997L5.596 7.991C5.73517 7.91101 5.85084 7.79583 5.93141 7.65701C6.01198 7.51819 6.0546 7.36062 6.055 7.20012V6.45923C6.06007 6.26676 6.02654 6.07523 5.95637 5.89593C5.88621 5.71663 5.78084 5.5532 5.64649 5.41528C5.51213 5.27736 5.3515 5.16774 5.17409 5.09289C4.99667 5.01804 4.80606 4.97948 4.6135 4.97948C4.42094 4.97948 4.23033 5.01804 4.05291 5.09289C3.8755 5.16774 3.71487 5.27736 3.58051 5.41528C3.44616 5.5532 3.34079 5.71663 3.27063 5.89593C3.20046 6.07523 3.16693 6.26676 3.172 6.45923V7.20012C3.17217 7.36166 3.21521 7.52026 3.29673 7.65974C3.37825 7.79921 3.49532 7.91456 3.636 7.994L3.113 8.19997C2.92363 8.27422 2.76116 8.40401 2.64694 8.57228C2.53271 8.74056 2.47208 8.93946 2.473 9.14283V10.6206C2.47326 10.758 2.52789 10.8897 2.62495 10.9869C2.72201 11.0841 2.85361 11.139 2.991 11.1395H6.236C6.37347 11.1393 6.50523 11.0845 6.60234 10.9872C6.69946 10.8899 6.754 10.7581 6.754 10.6206V9.14183C6.7549 8.93912 6.6947 8.74085 6.58126 8.57284C6.46781 8.40484 6.30638 8.2749 6.118 8.19997ZM3.956 6.45923C3.95255 6.37074 3.967 6.28247 3.99849 6.1997C4.02997 6.11692 4.07785 6.04136 4.13924 5.97754C4.20064 5.91371 4.27429 5.86293 4.35578 5.82825C4.43727 5.79356 4.52493 5.77568 4.6135 5.77568C4.70207 5.77568 4.78973 5.79356 4.87122 5.82825C4.95271 5.86293 5.02636 5.91371 5.08776 5.97754C5.14915 6.04136 5.19703 6.11692 5.22851 6.1997C5.26 6.28247 5.27445 6.37074 5.271 6.45923V7.20012C5.27106 7.2235 5.26477 7.24645 5.25279 7.26653C5.24081 7.2866 5.2236 7.30305 5.203 7.3141L4.77 7.54907C4.72196 7.57514 4.66816 7.5888 4.6135 7.5888C4.55884 7.5888 4.50504 7.57514 4.457 7.54907L4.024 7.3141C4.0034 7.30305 3.98619 7.2866 3.97421 7.26653C3.96223 7.24645 3.95594 7.2235 3.956 7.20012V6.45923ZM5.97 10.3586H3.257V9.14383C3.2571 9.09748 3.27145 9.05229 3.2981 9.01437C3.32475 8.97646 3.36242 8.94765 3.406 8.93186L4.629 8.44793L5.829 8.92986C5.87138 8.94674 5.90769 8.97599 5.93319 9.0138C5.9587 9.05161 5.97222 9.09622 5.972 9.14183L5.97 10.3586Z" fill="black"/>
<path d="M15.097 2.17487V13.8251H0.9V2.17487H15.1H15.097ZM15.1 1.275H0.9C0.661305 1.275 0.432387 1.36981 0.263604 1.53856C0.0948212 1.70732 0 1.93621 0 2.17487V13.8251C0 13.9433 0.0232792 14.0603 0.0685084 14.1695C0.113738 14.2787 0.180031 14.3779 0.263604 14.4614C0.347177 14.545 0.446392 14.6113 0.555585 14.6565C0.664778 14.7017 0.78181 14.725 0.9 14.725H15.1C15.2182 14.725 15.3352 14.7017 15.4444 14.6565C15.5536 14.6113 15.6528 14.545 15.7364 14.4614C15.82 14.3779 15.8863 14.2787 15.9315 14.1695C15.9767 14.0603 16 13.9433 16 13.8251V2.17487C16 1.93621 15.9052 1.70732 15.7364 1.53856C15.5676 1.36981 15.3387 1.275 15.1 1.275Z" fill="black"/>
</svg>
