<svg width="16" height="16" viewBox="0 0 16 16" fill="none" xmlns="http://www.w3.org/2000/svg">
<path d="M14.378 4.82957C14.5111 4.69639 14.6168 4.53829 14.6888 4.36428C14.7609 4.19028 14.798 4.00378 14.798 3.81543C14.798 3.62709 14.7609 3.44059 14.6888 3.26659C14.6168 3.09258 14.5111 2.93447 14.378 2.8013L12.6428 1.06506C12.5097 0.931884 12.3516 0.826239 12.1776 0.754163C12.0036 0.682086 11.8171 0.644989 11.6288 0.644989C11.4404 0.644989 11.2539 0.682086 11.0799 0.754163C10.906 0.826239 10.7479 0.931884 10.6147 1.06506L3.61418 8.06601L3.59918 11.7795L7.41546 11.7925L14.378 4.82957ZM4.75326 10.6304L4.76226 8.54107L11.4277 1.87517C11.4811 1.82264 11.5529 1.7932 11.6278 1.7932C11.7026 1.7932 11.7745 1.82264 11.8278 1.87517L13.5629 3.61041C13.6154 3.66373 13.6449 3.73558 13.6449 3.81043C13.6449 3.88529 13.6154 3.95713 13.5629 4.01046L6.94042 10.6414L4.75326 10.6304Z" fill="black"/>
<path d="M14.875 13.8548H1.125V15.355H14.875V13.8548Z" fill="black"/>
</svg>
