<svg xmlns="http://www.w3.org/2000/svg" viewBox="0 0 16 16"><title>edit-person</title><g id="Layer_1" data-name="Layer 1"><circle cx="7.11" cy="3.39" r="3.38"/><rect x="9.48" y="11.58" width="4.19" height="2.17" transform="translate(-5.15 8.83) rotate(-34.65)"/><path d="M9.06,15.72,7.39,16A.38.38,0,0,1,7,15.42l.83-1.48.85-.59,1.23,1.78Z"/><path d="M14.49,12l-1.23-1.79,1.29-.89a.49.49,0,0,1,.69.13l.67,1a.5.5,0,0,1-.13.7Z"/><path d="M11.87,9.53a.24.24,0,0,0,.07-.32C11.32,8.19,10.14,8,8.79,8H5.42A3.42,3.42,0,0,0,2,11.42v.35a.23.23,0,0,0,.23.23H8.16a.2.2,0,0,0,.13,0Z"/></g></svg>