<svg xmlns="http://www.w3.org/2000/svg" viewBox="0 0 16 16"><title>firefox</title><g id="Layer_1" data-name="Layer 1"><path d="M14.393,3.607,14.2,2.833l.112-.035c.859,1.059.929,2.4,1.178,3.729.048-.209.087-.381.126-.552l.066,0a.827.827,0,0,1,.066.22,11.159,11.159,0,0,1-1.655,6.483,6.865,6.865,0,0,1-4.772,2.995A7.249,7.249,0,0,1,4.5,14.994,7.937,7.937,0,0,1,.513,9.475C.505,9.439.489,9.4.464,9.334l-.138.215V7.431l-.144.05a4.932,4.932,0,0,1,.137-.726C.558,6.074.83,5.4,1.072,4.724a1.719,1.719,0,0,0,.09-.571,3.691,3.691,0,0,1,.481-1.984,4.146,4.146,0,0,1,.348-.432L2.38,2.752A7.34,7.34,0,0,1,8.614.276,8.421,8.421,0,0,1,14.393,3.607ZM11.586,1.675A6.877,6.877,0,0,0,2.659,3.127a5.012,5.012,0,0,0,.533.069c.4.007.808.009,1.212-.01a.7.7,0,0,0,.411-.13,3.14,3.14,0,0,1,1.633-.708,1.193,1.193,0,0,1,.3.036,7.471,7.471,0,0,0-.74.83c-.481.738-.151,1.368.713,1.4.215.009.431,0,.647,0,.45.01.58.221.368.635a1.052,1.052,0,0,1-.321.337c-.272.2-.555.388-.841.569a.525.525,0,0,0-.23.6c.042.248.048.5.076.823-.187-.062-.3-.091-.407-.137A.53.53,0,0,0,5.3,7.6a.677.677,0,0,0,0,.8,1.783,1.783,0,0,0,1.881.768c.309-.092.6-.242.915-.324a1.378,1.378,0,0,1,1.467.456c.218.247.122.575-.172.574a2.084,2.084,0,0,0-1.037.453,6.531,6.531,0,0,1-1.141.508,5.524,5.524,0,0,1-.959.13,4.174,4.174,0,0,0,3.142.951,4.21,4.21,0,0,0,2.487-2.071l.1.06q-.079.48-.161.96a4.825,4.825,0,0,0,.619-3.2l.087-.037.489.436a6.9,6.9,0,0,0,.023-2.9.911.911,0,0,1,.2.07c.112.089.217.186.36.311A4.313,4.313,0,0,0,10.33,2.665l.048-.108,1.259-.235.01-.1-1.9-.578A3.542,3.542,0,0,1,11.586,1.675Z" fill-rule="evenodd"/></g></svg>