<svg xmlns="http://www.w3.org/2000/svg" viewBox="0 0 16 16"><title>firefox</title><g id="Layer_1" data-name="Layer 1"><path d="M14.39,3.61c-.05-.22-.12-.5-.19-.78l.11,0c.86,1.06.93,2.4,1.18,3.73L15.62,6h.06a1.11,1.11,0,0,1,.07.22,11.19,11.19,0,0,1-1.66,6.49,6.83,6.83,0,0,1-4.77,3A7.25,7.25,0,0,1,4.5,15a8,8,0,0,1-4-5.52l0-.14-.13.22V7.43l-.15.05a4.84,4.84,0,0,1,.14-.72c.24-.69.51-1.36.75-2a1.55,1.55,0,0,0,.09-.57,3.8,3.8,0,0,1,.48-2A4.14,4.14,0,0,1,2,1.74l.39,1A7.31,7.31,0,0,1,8.61.28,8.39,8.39,0,0,1,14.39,3.61Zm-2.8-1.93A6.87,6.87,0,0,0,2.66,3.13c.21,0,.37.06.53.07.41,0,.81,0,1.21,0a.8.8,0,0,0,.41-.13,3.18,3.18,0,0,1,1.64-.71,1.13,1.13,0,0,1,.3,0A7.64,7.64,0,0,0,6,3.21c-.48.74-.15,1.37.71,1.41h.65c.45,0,.58.22.37.64a1.12,1.12,0,0,1-.32.33c-.28.21-.56.39-.85.57a.56.56,0,0,0-.23.61,8.14,8.14,0,0,1,.08.82A3.75,3.75,0,0,1,6,7.45a.52.52,0,0,0-.71.15.66.66,0,0,0,0,.79,1.77,1.77,0,0,0,1.88.77c.31-.09.6-.24.91-.32a1.38,1.38,0,0,1,1.47.45c.22.25.12.58-.17.58a2,2,0,0,0-1,.45,6.84,6.84,0,0,1-1.14.51,5.88,5.88,0,0,1-1,.13,4.15,4.15,0,0,0,3.14.95,4.25,4.25,0,0,0,2.49-2.07l.1.06c-.06.32-.11.64-.17,1a4.77,4.77,0,0,0,.62-3.2l.09,0,.49.43a6.86,6.86,0,0,0,0-2.89c.12,0,.17,0,.2.07l.36.31a4.31,4.31,0,0,0-3.27-2.88l.05-.1,1.26-.24v-.1l-1.9-.58A3.61,3.61,0,0,1,11.59,1.68Z" fill-rule="evenodd"/></g></svg>