<svg xmlns="http://www.w3.org/2000/svg" viewBox="0 0 16 16"><title>household-error</title><g id="Layer_1" data-name="Layer 1"><path d="M15.424,7.5,14.4,6.592v-2.9a1.036,1.036,0,0,0-1.038-1.006h-1.3a.979.979,0,0,0-.973,1.006V3.71L9.166,2.047a1.74,1.74,0,0,0-2.281,0L.624,7.5a1.018,1.018,0,0,0,.665,1.788H2.373v4.054a1.148,1.148,0,0,0,1.144,1.176H12.51a1.209,1.209,0,0,0,1.209-1.176V9.288h1.019a1.024,1.024,0,0,0,.966-.671A1,1,0,0,0,15.424,7.5Zm-2.268.764a.494.494,0,0,0-.494.493v4.585a.152.152,0,0,1-.152.151H3.517a.152.152,0,0,1-.152-.151V8.757a.494.494,0,0,0-.494-.493H1.3L7.55,2.82a.7.7,0,0,1,.927,0l3.2,2.792a.241.241,0,0,0,.4-.182V3.712H13.34V6.675a.84.84,0,0,0,.289.634l1.094.954Z"/><path d="M6.2,8.67l0,0a.274.274,0,0,0-.389,0l-.367.367-.368-.367a.274.274,0,0,0-.389,0l0,0a.274.274,0,0,0,0,.389l.367.368-.367.367a.274.274,0,0,0,0,.389l0,0a.274.274,0,0,0,.389,0l.368-.367.367.367a.274.274,0,0,0,.389,0l0,0a.274.274,0,0,0,0-.389l-.367-.367L6.2,9.059A.274.274,0,0,0,6.2,8.67Z"/><path d="M11.361,8.67l0,0a.274.274,0,0,0-.389,0l-.368.367-.367-.367a.274.274,0,0,0-.389,0l0,0a.274.274,0,0,0,0,.389l.367.368-.367.367a.274.274,0,0,0,0,.389l0,0a.274.274,0,0,0,.389,0L10.6,9.82l.368.367a.274.274,0,0,0,.389,0l0,0a.276.276,0,0,0,0-.389l-.367-.367.367-.368A.276.276,0,0,0,11.361,8.67Z"/><path d="M9.654,11.991a2.524,2.524,0,0,0-3.266,0,.3.3,0,0,0,0,.458l0,0a.3.3,0,0,0,.4.008,1.9,1.9,0,0,1,2.464,0,.3.3,0,0,0,.4-.007l.005,0A.305.305,0,0,0,9.654,11.991Z"/></g></svg>