<svg xmlns="http://www.w3.org/2000/svg" viewBox="0 0 16 16"><title>ie</title><g id="Layer_1" data-name="Layer 1"><path d="M11.85,9.27h3.94a5.61,5.61,0,0,0,.06-.92,7.42,7.42,0,0,0-4.73-6.8l.21,0s5-2.31,3.32,2.82l.2.35S16.3.85,14,.2c-1.92-.54-4.75,1-4.75,1l.1,0a4.61,4.61,0,0,0-.53,0,7,7,0,0,0-7,6A18.28,18.28,0,0,1,5.23,3.81S2.5,6.31,1.71,8.35a16.28,16.28,0,0,0-1.34,3.2c-.21.83-.72,3.81,1.34,4.16a5.74,5.74,0,0,0,3.84-.81l0,0a6.85,6.85,0,0,0,3.27.84,7.1,7.1,0,0,0,6.71-5.05h-4a2.83,2.83,0,0,1-2.69,1.69c-1.53,0-2.65-1.17-2.94-3.08h6ZM5.07,14.61a6.09,6.09,0,0,1-2.19.65c-3.06,0-.76-4.45-.76-4.45h0a7.39,7.39,0,0,0,3,3.81Zm3.71-10a2.63,2.63,0,0,1,2.8,2.63H5.85A2.93,2.93,0,0,1,8.78,4.56Z"/></g></svg>