<svg width="16" height="16" viewBox="0 0 16 16" fill="none" xmlns="http://www.w3.org/2000/svg">
<path d="M15.2339 7.49999H13.1399C13.0217 6.7853 12.6547 6.13539 12.1037 5.6651C11.5527 5.19482 10.8532 4.93444 10.1289 4.92999H9.06386C8.93799 4.93205 8.81786 4.98297 8.72884 5.07198C8.63983 5.16099 8.58892 5.28113 8.58686 5.40699V6.17799H7.48686V5.37399C7.48376 5.24822 7.43201 5.12855 7.34249 5.04015C7.25297 4.95175 7.13266 4.90151 7.00686 4.89999H5.94186C5.21149 4.89989 4.50545 5.16249 3.95265 5.63983C3.39986 6.11717 3.03718 6.77741 2.93086 7.49999H0.837857C0.706359 7.48567 0.574543 7.52403 0.471271 7.60669C0.367999 7.68934 0.301688 7.80955 0.286857 7.94099C0.275718 8.07273 0.315081 8.20378 0.396968 8.30758C0.478856 8.41138 0.597142 8.48016 0.727857 8.49999H2.85786C2.96399 9.22267 3.3266 9.88303 3.87944 10.3604C4.43228 10.8378 5.13843 11.1003 5.86886 11.1H6.93386C7.05972 11.0979 7.17986 11.047 7.26887 10.958C7.35788 10.869 7.4088 10.7489 7.41086 10.623V9.81799H8.54986C8.56186 9.81799 8.57386 9.81799 8.58686 9.81799V10.588C8.58892 10.7139 8.63983 10.834 8.72884 10.923C8.81786 11.012 8.93799 11.0629 9.06386 11.065H10.0969C10.8284 11.0651 11.5356 10.8016 12.0887 10.3228C12.6419 9.84406 13.004 9.18203 13.1089 8.45799H15.1649C15.2953 8.46702 15.4243 8.42669 15.5264 8.345C15.6285 8.26331 15.6961 8.14623 15.7159 8.01699C15.7103 7.88753 15.6586 7.76433 15.5703 7.66955C15.4819 7.57477 15.3626 7.51464 15.2339 7.49999ZM6.53386 10.108H5.94186C5.3872 10.1083 4.85514 9.88824 4.46265 9.49632C4.07017 9.1044 3.84939 8.57265 3.84886 8.01799C3.85484 7.46475 4.07727 6.93586 4.4685 6.54463C4.85972 6.15341 5.38861 5.93098 5.94186 5.92499H6.52986C6.49686 5.92499 6.49686 10.112 6.52986 10.112L6.53386 10.108ZM7.45186 8.82199V7.17399H8.58686V8.82599L7.45186 8.82199ZM10.1329 10.108H9.46786V5.88799H10.0559C10.6206 5.88852 11.1621 6.1131 11.5614 6.51244C11.9607 6.91178 12.1853 7.45324 12.1859 8.01799C12.188 8.56763 11.9732 9.09591 11.588 9.48801C11.2028 9.88012 10.6784 10.1044 10.1289 10.112L10.1329 10.108Z" fill="black"/>
</svg>
