<svg width="16" height="16" viewBox="0 0 16 16" fill="none" xmlns="http://www.w3.org/2000/svg">
<path d="M15.2338 7.5H13.1398C13.0217 6.78531 12.6547 6.13539 12.1037 5.66511C11.5527 5.19482 10.8532 4.93445 10.1288 4.93H9.06383C8.93796 4.93206 8.81783 4.98298 8.72881 5.07199C8.6398 5.161 8.58889 5.28113 8.58683 5.407V6.178H7.48683V5.374C7.48373 5.24823 7.43198 5.12856 7.34246 5.04016C7.25294 4.95176 7.13263 4.90151 7.00683 4.9H5.94183C5.21146 4.8999 4.50542 5.16249 3.95262 5.63983C3.39983 6.11717 3.03715 6.77741 2.93083 7.5H0.837827C0.706329 7.48567 0.574512 7.52404 0.47124 7.60669C0.367968 7.68935 0.301657 7.80956 0.286827 7.941C0.275688 8.07274 0.315051 8.20379 0.396938 8.30759C0.478825 8.41138 0.597112 8.48017 0.727827 8.5H2.85783C2.96396 9.22267 3.32657 9.88303 3.87941 10.3604C4.43225 10.8378 5.1384 11.1003 5.86883 11.1H6.93383C7.05969 11.0979 7.17983 11.047 7.26884 10.958C7.35785 10.869 7.40877 10.7489 7.41083 10.623V9.818H8.54983C8.56183 9.818 8.57383 9.818 8.58683 9.818V10.588C8.58889 10.7139 8.6398 10.834 8.72881 10.923C8.81783 11.012 8.93796 11.0629 9.06383 11.065H10.0968C10.8284 11.0651 11.5355 10.8016 12.0887 10.3228C12.6418 9.84407 13.004 9.18203 13.1088 8.458H15.1648C15.2952 8.46703 15.4243 8.4267 15.5264 8.345C15.6284 8.26331 15.6961 8.14623 15.7158 8.017C15.7102 7.88754 15.6586 7.76433 15.5702 7.66955C15.4819 7.57477 15.3626 7.51465 15.2338 7.5ZM6.53383 10.108H5.94183C5.38717 10.1083 4.8551 9.88825 4.46262 9.49633C4.07013 9.10441 3.84936 8.57266 3.84883 8.018C3.85481 7.46476 4.07724 6.93586 4.46846 6.54464C4.85969 6.15341 5.38858 5.93098 5.94183 5.925H6.52983C6.49683 5.925 6.49683 10.112 6.52983 10.112L6.53383 10.108ZM7.45183 8.822V7.174H8.58683V8.826L7.45183 8.822ZM10.1328 10.108H9.46783V5.888H10.0558C10.6206 5.88853 11.162 6.11311 11.5614 6.51245C11.9607 6.91178 12.1853 7.45325 12.1858 8.018C12.188 8.56764 11.9731 9.09592 11.588 9.48802C11.2028 9.88012 10.6784 10.1044 10.1288 10.112L10.1328 10.108Z" fill="black"/>
</svg>
