<svg xmlns="http://www.w3.org/2000/svg" viewBox="0 0 16 16"><title>integrations_1</title><g id="Layer_1" data-name="Layer 1"><path d="M15.81.33a.65.65,0,0,0-.93,0L13.43,1.78a4.43,4.43,0,0,0-5.95.29l-.85.86a.72.72,0,0,0,0,1l5.46,5.46a.73.73,0,0,0,.51.21.75.75,0,0,0,.52-.21L14,8.56a4.44,4.44,0,0,0,.38-5.84l1.46-1.46A.67.67,0,0,0,15.81.33ZM13,7.63l-.44.44L8,3.44,8.41,3a3.15,3.15,0,0,1,4.45,0l.18.18A3.13,3.13,0,0,1,13,7.63ZM8.87,8.92,7.65,10.14,6,8.49,7.23,7.25a.66.66,0,1,0-.93-.93L5.07,7.55l-1-1a.72.72,0,0,0-1,0l-.86.86a4.44,4.44,0,0,0-.38,5.84L.38,14.74a.65.65,0,0,0,0,.93.62.62,0,0,0,.46.19.66.66,0,0,0,.47-.19l1.45-1.45a4.4,4.4,0,0,0,5.94-.3l.86-.85a.74.74,0,0,0,0-1l-1-1L9.8,9.85a.66.66,0,1,0-.93-.93ZM7.77,13a3.15,3.15,0,0,1-4.45,0l-.18-.18a3.15,3.15,0,0,1,0-4.44l.44-.44,4.63,4.62Z"/></g></svg>