<svg xmlns="http://www.w3.org/2000/svg" viewBox="0 0 16 16"><title>integration-connected</title><g id="Layer_1" data-name="Layer 1"><path d="M15.24,7.5h-2.1a3.07,3.07,0,0,0-3-2.57H9.07a.49.49,0,0,0-.48.48v.77H7.49V5.37A.48.48,0,0,0,7,4.9H6a3,3,0,0,0-3,2.6H.84a.51.51,0,0,0-.55.44.52.52,0,0,0,.44.56H2.86a3,3,0,0,0,3,2.6H6.94a.48.48,0,0,0,.47-.47V9.82H8.59v.77a.49.49,0,0,0,.48.48h1a3.05,3.05,0,0,0,3-2.61h2.05A.51.51,0,0,0,15.71,8,.55.55,0,0,0,15.24,7.5ZM6.53,10.11H6A2.09,2.09,0,0,1,3.85,8,2.12,2.12,0,0,1,6,5.93h.58S6.5,10.11,6.53,10.11Zm.92-1.28V7.17H8.59V8.83Zm2.68,1.28H9.47V5.89h.59A2.13,2.13,0,0,1,12.19,8,2.08,2.08,0,0,1,10.13,10.11Z"/></g></svg>