<svg xmlns="http://www.w3.org/2000/svg" viewBox="0 0 16 16"><title>keys</title><g id="Layer_1" data-name="Layer 1"><g id="Your_Icon" data-name="Your Icon"><path d="M3.34,15.61l-.17,0a1.28,1.28,0,0,1-.71-.72,1.2,1.2,0,0,1,.17-1L3,13.27a.55.55,0,0,1,.25-.2L3.45,13l-.24-1a.45.45,0,0,1,.06-.36.47.47,0,0,1,.3-.21l1-.23v-.74a.46.46,0,0,1,.06-.23L5.37,9a2.89,2.89,0,0,1,.1-2.86A2.83,2.83,0,0,1,7.1,4.87a.87.87,0,0,1,.56-.06.47.47,0,1,1-.23.91,2.12,2.12,0,0,0-1.17.89,2,2,0,0,0,0,2.1.46.46,0,0,1,0,.49l-.79,1.39v1a.47.47,0,0,1-.37.46l-.93.2.23.95a.48.48,0,0,1-.32.56l-.48.15-.23.39a.35.35,0,0,0-.08.26.18.18,0,0,0,.07.09l.89-.21L7.18,9.77a.47.47,0,0,1,.47-.22,1.91,1.91,0,0,0,1.58-.5h0a.69.69,0,0,0,.14-.27.48.48,0,0,1,.57-.34.49.49,0,0,1,.34.58,1.7,1.7,0,0,1-.4.71,2.93,2.93,0,0,1-2.05.77L5,15.09a.45.45,0,0,1-.29.21l-1.26.3Z"/><path d="M5.49,8.14l-.13,0a6.88,6.88,0,0,1-.74-.28A4,4,0,0,1,2.5,5.53a4.11,4.11,0,1,1,7.59.32.47.47,0,0,1-.62.22.47.47,0,0,1-.23-.62A3.13,3.13,0,0,0,9.35,3,3.18,3.18,0,1,0,5,7a5.37,5.37,0,0,0,.59.22.47.47,0,0,1,.33.58A.48.48,0,0,1,5.49,8.14Z"/><path d="M13,16a1.23,1.23,0,0,1-1.16-.91l-.23-.65a.47.47,0,0,1,0-.33l.11-.29-1.06-.5a.47.47,0,0,1-.25-.27.45.45,0,0,1,0-.36l.53-1.09L10.24,11a.45.45,0,0,1-.14-.19L9.49,9.32a3.13,3.13,0,0,1-.51-6A3.19,3.19,0,0,1,10,3.11a3.12,3.12,0,0,1,2.37,5.17l2,5.65a.5.5,0,0,1,0,.36l-.61,1.3a.46.46,0,0,1-.19.2A1.44,1.44,0,0,1,13,16Zm-.45-1.71.17.48c.11.3.23.3.28.3l.1,0,.45-1L11.44,8.33a.47.47,0,0,1,.11-.5A2.19,2.19,0,0,0,10,4a2.11,2.11,0,0,0-.75.13,2.2,2.2,0,0,0,.57,4.26.49.49,0,0,1,.4.29l.66,1.66.87.7a.45.45,0,0,1,.13.57l-.49,1,1,.49a.46.46,0,0,1,.24.59Z"/><path d="M9.77,6.37a.84.84,0,0,1-.29-1.62.84.84,0,0,1,1,1.14.86.86,0,0,1-.47.43A.92.92,0,0,1,9.77,6.37Zm0-.93h0a.1.1,0,0,0-.06,0,.11.11,0,0,0,0,.08.1.1,0,0,0,.09.07c.09,0,.12-.09.1-.14A.1.1,0,0,0,9.77,5.44Z"/></g></g></svg>