<svg width="16" height="16" viewBox="0 0 16 16" fill="none" xmlns="http://www.w3.org/2000/svg">
<path d="M10.217 4.85883C10.217 4.95269 10.1797 5.04271 10.1133 5.10908C10.0469 5.17545 9.95678 5.21273 9.86286 5.21273C9.76894 5.21273 9.67886 5.17545 9.61245 5.10908C9.54604 5.04271 9.50873 4.95269 9.50873 4.85883C9.50873 4.15101 8.44635 3.88509 7.91415 3.88509C7.84004 3.85868 7.77537 3.81102 7.72822 3.74807C7.68107 3.68512 7.65353 3.60968 7.64906 3.53118C7.65536 3.43939 7.6947 3.35299 7.75979 3.28794C7.82489 3.22289 7.91134 3.18358 8.00318 3.17727C8.88851 3.26625 10.217 3.70813 10.217 4.85883ZM11.7175 4.85883C11.7175 2.91234 9.76982 1.75965 7.99918 1.75965C6.22854 1.75965 4.28084 2.82137 4.28084 4.85883C4.30314 5.51318 4.55368 6.13915 4.98909 6.62836C5.07713 6.80531 5.34322 6.98227 5.52029 7.2482C6.26702 8.06253 6.75936 9.07719 6.9368 10.1674H9.1546C9.29334 9.06534 9.79111 8.0395 10.5711 7.2482C10.7546 7.01991 10.9622 6.8121 11.1903 6.62836C11.5382 6.10381 11.723 5.48813 11.7215 4.85883H11.7175ZM13.046 4.85883C13.0328 5.8286 12.6891 6.76489 12.0717 7.51313C11.4524 8.31291 10.4781 9.28266 10.39 10.3444C10.5263 10.4284 10.6386 10.5462 10.7161 10.6863C10.7935 10.8264 10.8335 10.9841 10.8322 11.1442C10.8358 11.2605 10.814 11.3763 10.7682 11.4834C10.7224 11.5904 10.6538 11.6862 10.5671 11.764C10.6537 11.8417 10.7222 11.9373 10.768 12.0442C10.8138 12.1511 10.8357 12.2666 10.8322 12.3828C10.8335 12.5429 10.7935 12.7006 10.7161 12.8407C10.6386 12.9808 10.5263 13.0986 10.39 13.1826C10.4612 13.3184 10.4917 13.4718 10.4781 13.6245C10.4748 13.759 10.4445 13.8914 10.3888 14.0139C10.3332 14.1363 10.2534 14.2463 10.1542 14.3372C10.055 14.4282 9.93845 14.4981 9.81156 14.543C9.68467 14.5878 9.55003 14.6066 9.4157 14.5983C9.2903 14.8724 9.09256 15.1072 8.84371 15.2776C8.59485 15.4479 8.30428 15.5472 8.00318 15.565C7.69632 15.5651 7.39664 15.4722 7.14373 15.2985C6.89082 15.1248 6.69658 14.8786 6.58667 14.5923C6.45075 14.6085 6.31293 14.5951 6.18264 14.5532C6.05235 14.5112 5.93267 14.4416 5.83179 14.3491C5.7309 14.2567 5.6512 14.1435 5.59813 14.0174C5.54505 13.8913 5.51987 13.7552 5.52429 13.6185C5.5449 13.4696 5.57429 13.3221 5.61232 13.1766C5.48343 13.0849 5.37679 12.9654 5.30027 12.827C5.22374 12.6885 5.17928 12.5347 5.17016 12.3768C5.16669 12.2606 5.1886 12.1451 5.23439 12.0382C5.28017 11.9313 5.34872 11.8357 5.43525 11.758C5.34859 11.6802 5.27996 11.5844 5.23417 11.4774C5.18838 11.3703 5.16654 11.2545 5.17016 11.1382C5.16892 10.9781 5.20896 10.8205 5.2864 10.6804C5.36385 10.5403 5.47609 10.4225 5.61232 10.3384C5.37232 9.23964 4.78227 8.24831 3.93071 7.51313C3.59424 7.16155 3.33403 6.74433 3.16637 6.28759C2.99871 5.83086 2.92721 5.34445 2.95636 4.85883C2.95636 2.20153 5.52429 0.434998 8.00318 0.434998C10.4821 0.434998 13.05 2.11555 13.05 4.85883H13.046Z" fill="black"/>
</svg>
