<svg width="16" height="16" viewBox="0 0 16 16" fill="none" xmlns="http://www.w3.org/2000/svg">
<path d="M10.217 4.85883C10.217 4.95269 10.1797 5.04271 10.1132 5.10908C10.0468 5.17545 9.95676 5.21273 9.86284 5.21273C9.76892 5.21273 9.67885 5.17545 9.61244 5.10908C9.54603 5.04271 9.50872 4.95269 9.50872 4.85883C9.50872 4.15101 8.44633 3.88509 7.91414 3.88509C7.84003 3.85868 7.77536 3.81102 7.7282 3.74807C7.68105 3.68512 7.65352 3.60968 7.64904 3.53118C7.65535 3.43939 7.69468 3.35299 7.75978 3.28794C7.82487 3.22289 7.91133 3.18358 8.00317 3.17727C8.88849 3.26625 10.217 3.70813 10.217 4.85883ZM11.7175 4.85883C11.7175 2.91234 9.76981 1.75965 7.99917 1.75965C6.22853 1.75965 4.28082 2.82137 4.28082 4.85883C4.30312 5.51318 4.55367 6.13915 4.98908 6.62836C5.07711 6.80531 5.34321 6.98227 5.52027 7.2482C6.267 8.06253 6.75935 9.07719 6.93678 10.1674H9.15459C9.29332 9.06534 9.79109 8.0395 10.5711 7.2482C10.7546 7.01991 10.9622 6.8121 11.1903 6.62836C11.5382 6.10381 11.723 5.48813 11.7215 4.85883H11.7175ZM13.046 4.85883C13.0328 5.8286 12.6891 6.76489 12.0716 7.51313C11.4524 8.31291 10.4781 9.28266 10.39 10.3444C10.5263 10.4284 10.6386 10.5462 10.7161 10.6863C10.7935 10.8264 10.8335 10.9841 10.8322 11.1442C10.8358 11.2605 10.814 11.3763 10.7682 11.4834C10.7224 11.5904 10.6538 11.6862 10.5671 11.764C10.6536 11.8417 10.7222 11.9373 10.768 12.0442C10.8138 12.1511 10.8357 12.2666 10.8322 12.3828C10.8335 12.5429 10.7935 12.7006 10.7161 12.8407C10.6386 12.9808 10.5263 13.0986 10.39 13.1826C10.4611 13.3184 10.4917 13.4718 10.4781 13.6245C10.4748 13.759 10.4445 13.8914 10.3888 14.0139C10.3332 14.1363 10.2533 14.2463 10.1542 14.3372C10.055 14.4282 9.93843 14.4981 9.81154 14.543C9.68465 14.5878 9.55001 14.6066 9.41568 14.5983C9.29029 14.8724 9.09255 15.1072 8.84369 15.2776C8.59484 15.4479 8.30427 15.5472 8.00317 15.565C7.69631 15.5651 7.39663 15.4722 7.14372 15.2985C6.89081 15.1248 6.69657 14.8786 6.58666 14.5923C6.45073 14.6085 6.31291 14.5951 6.18262 14.5532C6.05233 14.5112 5.93265 14.4416 5.83177 14.3491C5.73089 14.2567 5.65118 14.1435 5.59811 14.0174C5.54504 13.8913 5.51985 13.7552 5.52427 13.6185C5.54488 13.4696 5.57428 13.3221 5.6123 13.1766C5.48342 13.0849 5.37678 12.9654 5.30025 12.827C5.22373 12.6885 5.17926 12.5347 5.17014 12.3768C5.16667 12.2606 5.18859 12.1451 5.23437 12.0382C5.28015 11.9313 5.3487 11.8357 5.43524 11.758C5.34857 11.6802 5.27995 11.5844 5.23416 11.4774C5.18837 11.3703 5.16652 11.2545 5.17014 11.1382C5.16891 10.9781 5.20894 10.8205 5.28639 10.6804C5.36383 10.5403 5.47608 10.4225 5.6123 10.3384C5.37231 9.23964 4.78226 8.24831 3.93069 7.51313C3.59422 7.16155 3.33401 6.74433 3.16635 6.28759C2.99869 5.83086 2.92719 5.34445 2.95634 4.85883C2.95634 2.20153 5.52427 0.434998 8.00317 0.434998C10.4821 0.434998 13.05 2.11555 13.05 4.85883H13.046Z" fill="black"/>
</svg>
