<svg xmlns="http://www.w3.org/2000/svg" viewBox="0 0 16 16"><title>lightbulb</title><g id="Layer_1" data-name="Layer 1"><path d="M10.213,4.858a.354.354,0,0,1-.708,0c0-.708-1.062-.974-1.594-.974a.4.4,0,0,1-.265-.354A.381.381,0,0,1,8,3.176C8.885,3.265,10.213,3.707,10.213,4.858Zm1.5,0c0-1.947-1.947-3.1-3.717-3.1s-3.717,1.062-3.717,3.1a2.807,2.807,0,0,0,.708,1.77c.088.177.354.354.531.62a5.669,5.669,0,0,1,1.416,2.92H9.151a5.061,5.061,0,0,1,1.416-2.92,4.069,4.069,0,0,1,.619-.62A3.19,3.19,0,0,0,11.717,4.858Zm1.328,0a4.264,4.264,0,0,1-.974,2.655c-.619.8-1.593,1.77-1.681,2.832a.931.931,0,0,1,.442.8.8.8,0,0,1-.265.62.8.8,0,0,1,.265.619.931.931,0,0,1-.442.8.8.8,0,0,1,.088.442,1,1,0,0,1-1.062.974A1.66,1.66,0,0,1,8,15.567a1.516,1.516,0,0,1-1.416-.973.95.95,0,0,1-1.062-.974,3.817,3.817,0,0,1,.088-.442,1.057,1.057,0,0,1-.442-.8.8.8,0,0,1,.265-.619.8.8,0,0,1-.265-.62.932.932,0,0,1,.442-.8A5.2,5.2,0,0,0,3.929,7.513a3.535,3.535,0,0,1-.974-2.655C2.955,2.2,5.522.433,8,.433S13.045,2.114,13.045,4.858Z"/></g></svg>