<svg xmlns="http://www.w3.org/2000/svg" viewBox="0 0 16 16"><title>location</title><g id="Layer_1" data-name="Layer 1"><path d="M13.209,3.462a5.609,5.609,0,0,0-3-3.021A5.5,5.5,0,0,0,8.01,0a5.569,5.569,0,0,0-2.2.441,5.636,5.636,0,0,0-3.02,3.021,5.572,5.572,0,0,0-.442,2.209A5,5,0,0,0,2.6,7.253a6.91,6.91,0,0,0,.656,1.435L7.07,15.33A1.108,1.108,0,0,0,8,16.01a1.151,1.151,0,0,0,.95-.68l3.8-6.624a6.935,6.935,0,0,0,.656-1.437,5.168,5.168,0,0,0,.245-1.6A5.572,5.572,0,0,0,13.209,3.462ZM8,8.481A2.831,2.831,0,1,1,10.831,5.65,2.83,2.83,0,0,1,8,8.481Z"/></g></svg>