<svg xmlns="http://www.w3.org/2000/svg" viewBox="0 0 16 16"><title>mailchimp</title><g id="Layer_1" data-name="Layer 1"><path d="M6.29,7.49A.4.4,0,0,0,6,7.75s0,.1,0,.1,0,0,0-.12a.3.3,0,0,0-.32-.23.38.38,0,0,0-.34.27c0,.06,0,.08,0,.08s0,0,0-.11a.5.5,0,0,0,0-.21H4.85V8.75H5.3V8.14c0-.12,0-.27.14-.27s.12.07.12.22v.66H6V8.14c0-.11,0-.27.14-.27s.12.1.12.21v.67H6.7V8C6.7,7.71,6.58,7.49,6.29,7.49Z"/><path d="M13.84,7.48a.36.36,0,0,0-.33.25c0,.06,0,.1-.06.1s0,0,0-.12a.3.3,0,0,0-.32-.23.37.37,0,0,0-.33.27c0,.06,0,.08,0,.08s0,0,0-.11a.61.61,0,0,0,0-.21h-.32V8.73h.44V8.12c0-.12.05-.27.14-.27s.12.08.12.22v.66h.45V8.12c0-.11,0-.27.13-.27s.12.11.12.22v.66h.44V8C14.25,7.69,14.14,7.48,13.84,7.48Z"/><path d="M7.46,7.49a1.34,1.34,0,0,0-.59.13V8a1.19,1.19,0,0,1,.49-.16c.18,0,.2.09.19.17H7.34c-.36,0-.54.17-.54.43a.36.36,0,0,0,.38.36.45.45,0,0,0,.4-.26s0-.09,0-.09,0,0,0,.08a.86.86,0,0,0,0,.24H8V8.14C8,7.77,7.86,7.49,7.46,7.49Zm-.11,1c-.11,0-.16,0-.16-.08s.1-.13.24-.13h.12A.33.33,0,0,1,7.35,8.46Z"/><rect x="8.73" y="7.15" width="0.45" height="1.6" transform="translate(-0.02 0.02) rotate(-0.14)"/><path d="M9.66,8.13c0-.11.1-.21.29-.21a.75.75,0,0,1,.41.12V7.61a.68.68,0,0,0-.45-.12.58.58,0,0,0-.62.62.6.6,0,0,0,.62.66.7.7,0,0,0,.45-.16v-.4a.76.76,0,0,1-.4.13C9.74,8.34,9.66,8.24,9.66,8.13Z"/><path d="M11.26,7.48a.44.44,0,0,0-.38.29s0,.07,0,.07,0-.06,0-.09a1.43,1.43,0,0,0,.07-.43,1.76,1.76,0,0,0,0-.18H10.5v1.6H11V8.13c0-.1,0-.28.15-.28s.12.07.12.21v.68h.45V8.09C11.67,7.77,11.61,7.48,11.26,7.48Z"/><path d="M11.81,7.51V8.74h.45V7.51a.56.56,0,0,1-.23,0A.53.53,0,0,1,11.81,7.51Z"/><ellipse cx="12.03" cy="7.3" rx="0.27" ry="0.18" transform="translate(-0.02 0.03) rotate(-0.14)"/><path d="M8.14,7.52V8.74h.45V7.52a.62.62,0,0,1-.44,0Z"/><ellipse cx="8.36" cy="7.31" rx="0.27" ry="0.18" transform="translate(-0.02 0.02) rotate(-0.14)"/><path d="M15.13,7.47a.42.42,0,0,0-.37.27c0,.07,0,.09,0,.09s0,0,0-.12a.5.5,0,0,0,0-.21h-.33V9.07h.44v-.5a.32.32,0,0,0,.3.18c.32,0,.49-.27.48-.64S15.43,7.47,15.13,7.47Zm-.12,1c-.1,0-.17-.12-.17-.3s.07-.31.17-.31.18.11.18.3S15.14,8.46,15,8.46Z"/><path d="M3.28,7.87h.09a.42.42,0,0,0,0-.16c0-.1-.05-.15-.11-.15s0,.08,0,.18A.32.32,0,0,0,3.28,7.87Z"/><path d="M2.79,8s.07,0,.08,0a0,0,0,0,0,0,0,.22.22,0,0,0-.1-.09.28.28,0,0,0-.28,0s-.06,0,0,.06h0a1,1,0,0,1,.19,0A.26.26,0,0,1,2.79,8Z"/><path d="M2.71,8a.19.19,0,0,0-.1,0,.05.05,0,0,0,0,0h0a.65.65,0,0,1,.18,0h0V8A.16.16,0,0,0,2.71,8Z"/><path d="M3.12,8.17a.07.07,0,0,0,.09,0s0-.06,0-.08a.08.08,0,0,0-.09,0S3.08,8.15,3.12,8.17Z"/><path d="M3.35,8a.07.07,0,0,0,0,.14s0,0,0-.07S3.38,8,3.35,8Z"/><path d="M1.38,8.7H1.32a.05.05,0,0,1-.05,0,.14.14,0,0,1,0-.09h0a.25.25,0,0,0,0-.23.21.21,0,0,0-.15-.11A.24.24,0,0,0,1,8.29a.22.22,0,0,0-.06.21h0s0,0,0,0H1l0-.06s0-.05.07-.05a.13.13,0,0,1,.09,0,.11.11,0,0,1,.05.14.23.23,0,0,0,0,.12.12.12,0,0,0,.11.13.09.09,0,0,0,.08,0A0,0,0,0,0,1.38,8.7Z"/><path d="M4.09,8.53a.43.43,0,0,0,0-.1.78.78,0,0,1,0-.09.31.31,0,0,0,0-.23A.27.27,0,0,0,4,8a.64.64,0,0,0-.3-.15l-.08,0s0-.18,0-.26a.64.64,0,0,0,0-.22A.55.55,0,0,0,3.42,7a1,1,0,0,0,.31-.6c0-.36-.44-.47-1-.24l-.12.05L2.42,6C1.8,5.49-.12,7.64.5,8.16l.13.11a.78.78,0,0,0,0,.31A.61.61,0,0,0,.8,9a.67.67,0,0,0,.41.17A1.57,1.57,0,0,0,2.65,10a1.53,1.53,0,0,0,1.51-.89,1.49,1.49,0,0,0,.08-.39C4.24,8.6,4.15,8.53,4.09,8.53ZM1.27,9H1.2a.52.52,0,0,1-.46-.42.42.42,0,0,1,.33-.48h.09a.4.4,0,0,1,.35.38C1.55,8.69,1.49,8.93,1.27,9ZM1,7.93a.52.52,0,0,0-.33.22A1.06,1.06,0,0,1,.55,8c-.12-.23.13-.67.3-.91C1.28,6.48,2,6,2.27,6.1c0,0,.22.21.22.21a4.34,4.34,0,0,0-.6.41A2.77,2.77,0,0,0,1,7.93Zm2.19.94h0a1.49,1.49,0,0,1-.64-.06c0-.11.12-.07.26-.06a1.89,1.89,0,0,0,.62-.07,1.57,1.57,0,0,0,.47-.23A1.24,1.24,0,0,1,4,8.65a.1.1,0,0,1,.07,0s.05.06,0,.15a.85.85,0,0,1-.24.47.83.83,0,0,1-.28.21l-.19.08a.91.91,0,0,1-1.15-.39l0-.09a.75.75,0,0,1,.17-.73h0a.06.06,0,0,0,0-.09.69.69,0,0,1-.24-.55.42.42,0,0,1,.4-.37h0l.21,0a.37.37,0,0,0,.31-.11.2.2,0,0,1,.12-.06h0a.13.13,0,0,1,.08,0c.09.06.1.2.11.31s0,.21,0,.25,0,.11.08.13l.1,0a.6.6,0,0,1,.24.11.12.12,0,0,1,0,.09c0,.1-.08.23-.33.35a1.72,1.72,0,0,1-.84.13H2.69c-.18,0-.29.22-.17.38A.59.59,0,0,0,3,9.16a1.24,1.24,0,0,0,.92-.35v0h0a1.54,1.54,0,0,1-1.06.27L2.72,9c-.05,0-.14-.06-.15-.15A1,1,0,0,0,3.22,8.87ZM2.59,8.8ZM1.82,7.09a1.93,1.93,0,0,1,.51-.42h0s0,.08,0,.12h0a1,1,0,0,1,.44-.16s0,0,0,0a.23.23,0,0,0-.07.07s0,0,0,0a.9.9,0,0,1,.38.1h0a1.56,1.56,0,0,0-.68,0,1.4,1.4,0,0,0-.55.24S1.82,7.1,1.82,7.09Z"/></g></svg>