<svg xmlns="http://www.w3.org/2000/svg" viewBox="0 0 16 16"><title>mailchimp</title><g id="Layer_1" data-name="Layer 1"><path d="M6.288,7.5a.377.377,0,0,0-.337.254c-.024.056-.031.1-.051.1s-.009-.038-.032-.123A.306.306,0,0,0,5.549,7.5a.377.377,0,0,0-.335.27c-.028.065-.028.083-.05.083s-.006-.051.009-.112a.526.526,0,0,0,.006-.212H4.853l0,1.226H5.3l0-.61c0-.121.05-.273.136-.274s.12.077.12.218l0,.665H6l0-.61c0-.107.043-.273.137-.273s.119.107.119.218l0,.664H6.7l0-.721C6.7,7.707,6.583,7.494,6.288,7.5Z" fill="#010101"/><path d="M13.842,7.476a.377.377,0,0,0-.337.255c-.025.055-.031.1-.051.1s-.01-.048-.032-.122a.3.3,0,0,0-.319-.23.379.379,0,0,0-.335.27c-.028.066-.028.084-.05.084s-.006-.052.009-.113a.526.526,0,0,0,.006-.212h-.326l0,1.226h.445l0-.61c0-.12.05-.273.136-.273s.12.076.12.218l0,.665h.447l0-.611c0-.107.043-.273.137-.273s.119.107.119.218l0,.665h.439l0-.721C14.25,7.689,14.137,7.476,13.842,7.476Z" fill="#010101"/><path d="M7.456,7.492a1.408,1.408,0,0,0-.586.127v.369a1.223,1.223,0,0,1,.489-.157c.175,0,.2.094.189.172a.973.973,0,0,0-.2-.013c-.363,0-.546.167-.545.431a.355.355,0,0,0,.38.355.418.418,0,0,0,.4-.252c.023-.056.028-.094.049-.094s.016.027.015.083a.87.87,0,0,0,.019.233H8v-.6C7.994,7.765,7.86,7.491,7.456,7.492ZM7.35,8.46c-.107.025-.162-.008-.162-.078,0-.1.1-.136.242-.136.063,0,.122,0,.122,0A.316.316,0,0,1,7.35,8.46Z" fill="#010101"/><rect x="8.727" y="7.145" width="0.445" height="1.597" transform="translate(-0.019 0.022) rotate(-0.141)" fill="#010101"/><path d="M9.663,8.128c0-.11.1-.211.289-.211a.813.813,0,0,1,.407.12V7.611a.667.667,0,0,0-.45-.125.577.577,0,0,0-.617.624.594.594,0,0,0,.619.659.7.7,0,0,0,.451-.157v-.4a.77.77,0,0,1-.4.134C9.74,8.342,9.663,8.243,9.663,8.128Z" fill="#010101"/><path d="M11.26,7.483a.427.427,0,0,0-.375.287c-.02.043-.03.067-.046.067s-.008-.052,0-.085a1.413,1.413,0,0,0,.064-.429.545.545,0,0,0-.019-.182H10.5l0,1.6h.445l0-.61c0-.1.039-.273.151-.273.093,0,.123.068.123.207l0,.675h.445l0-.649C11.667,7.773,11.614,7.482,11.26,7.483Z" fill="#010101"/><path d="M11.811,7.511l0,1.225h.445l0-1.225a.465.465,0,0,1-.222.044A.47.47,0,0,1,11.811,7.511Z" fill="#010101"/><ellipse cx="12.032" cy="7.303" rx="0.272" ry="0.178" transform="translate(-0.018 0.03) rotate(-0.141)" fill="#010101"/><path d="M8.137,7.52l0,1.225h.445l0-1.225a.578.578,0,0,1-.445,0Z" fill="#010101"/><ellipse cx="8.358" cy="7.312" rx="0.272" ry="0.178" transform="translate(-0.018 0.021) rotate(-0.141)" fill="#010101"/><path d="M15.134,7.473a.419.419,0,0,0-.379.27c-.03.065-.028.084-.05.084s-.005-.052.009-.113A.505.505,0,0,0,14.72,7.5h-.326l0,1.565h.445v-.5a.347.347,0,0,0,.3.184c.321,0,.483-.274.482-.642C15.624,7.7,15.429,7.472,15.134,7.473Zm-.12.992c-.1,0-.177-.129-.178-.31s.077-.31.173-.31c.124,0,.177.113.178.309S15.139,8.464,15.014,8.465Z" fill="#010101"/><path d="M3.281,7.873a.347.347,0,0,1,.085,0,.287.287,0,0,0,0-.16c-.021-.1-.048-.157-.1-.148s-.059.08-.039.178A.333.333,0,0,0,3.281,7.873Z"/><path d="M2.792,7.951c.041.018.066.03.076.019s0-.019-.006-.034a.238.238,0,0,0-.1-.085.288.288,0,0,0-.28.034c-.027.02-.053.048-.049.065s0,.009.015.011a1.6,1.6,0,0,1,.191-.044A.333.333,0,0,1,2.792,7.951Z"/><path d="M2.71,8a.191.191,0,0,0-.1.043.065.065,0,0,0-.026.04.013.013,0,0,0,0,.01l.009,0a.161.161,0,0,0,.039-.011.35.35,0,0,1,.171-.018c.027,0,.039.005.045,0s0-.008,0-.017A.153.153,0,0,0,2.71,8Z"/><path d="M3.117,8.169a.063.063,0,0,0,.088-.016c.013-.026-.006-.062-.042-.079a.064.064,0,0,0-.088.015C3.062,8.116,3.081,8.151,3.117,8.169Z"/><path d="M3.348,7.966c-.029,0-.053.032-.054.072s.023.073.052.073.054-.032.054-.072S3.378,7.966,3.348,7.966Z"/><path d="M1.381,8.7c-.007-.009-.019-.006-.031,0a.11.11,0,0,1-.027,0,.06.06,0,0,1-.05-.026.09.09,0,0,1,0-.086l.007-.015A.259.259,0,0,0,1.3,8.343a.2.2,0,0,0-.153-.11.194.194,0,0,0-.168.061.239.239,0,0,0-.062.2c.005.013.012.016.017.017s.027-.007.037-.034l0-.009A.264.264,0,0,1,1,8.408a.112.112,0,0,1,.073-.051.117.117,0,0,1,.09.016.115.115,0,0,1,.044.139.315.315,0,0,0-.022.123.122.122,0,0,0,.109.126.1.1,0,0,0,.088-.044A.019.019,0,0,0,1.381,8.7Z"/><path d="M4.089,8.529c0-.006-.013-.049-.029-.1s-.033-.087-.033-.087a.314.314,0,0,0,.056-.231A.3.3,0,0,0,4,7.946.7.7,0,0,0,3.7,7.8l-.076-.021s0-.18-.008-.256A.884.884,0,0,0,3.579,7.3a.6.6,0,0,0-.156-.278.938.938,0,0,0,.307-.6c0-.357-.441-.465-.982-.239l-.115.049-.211-.206C1.8,5.486-.123,7.637.5,8.157l.135.114A.664.664,0,0,0,.6,8.577.6.6,0,0,0,.8,8.964a.633.633,0,0,0,.409.163,1.566,1.566,0,0,0,1.435.909,1.511,1.511,0,0,0,1.51-.889,1.222,1.222,0,0,0,.083-.388C4.24,8.6,4.148,8.529,4.089,8.529Zm-2.823.443a.344.344,0,0,1-.064,0,.5.5,0,0,1-.457-.415.411.411,0,0,1,.322-.481.45.45,0,0,1,.094-.007.4.4,0,0,1,.351.374C1.55,8.687,1.491,8.933,1.266,8.972ZM1.03,7.933A.532.532,0,0,0,.7,8.148a.9.9,0,0,1-.142-.137c-.12-.226.128-.667.3-.916.429-.615,1.1-1.082,1.414-1a1.253,1.253,0,0,1,.22.209,4.4,4.4,0,0,0-.6.416A2.736,2.736,0,0,0,1.03,7.933Zm2.191.942a.011.011,0,0,0,.007-.012.011.011,0,0,0-.012-.011,1.466,1.466,0,0,1-.636-.063c.034-.109.123-.07.258-.059a1.875,1.875,0,0,0,.623-.069,1.429,1.429,0,0,0,.465-.233.921.921,0,0,1,.066.222.106.106,0,0,1,.068.012c.03.018.051.056.037.153a.845.845,0,0,1-.236.465.976.976,0,0,1-.284.213,1.106,1.106,0,0,1-.186.079.914.914,0,0,1-1.152-.39.522.522,0,0,1-.032-.089.781.781,0,0,1,.17-.735h0A.068.068,0,0,0,2.4,8.314a.08.08,0,0,0-.018-.041.677.677,0,0,1-.242-.555.416.416,0,0,1,.4-.366l.045,0c.078,0,.145.015.209.017a.421.421,0,0,0,.317-.106A.245.245,0,0,1,3.234,7.2a.144.144,0,0,1,.046,0,.156.156,0,0,1,.078.025c.091.06.1.207.11.315,0,.061.01.21.013.252.006.1.032.112.083.128.03.01.057.017.1.028a.547.547,0,0,1,.237.112.152.152,0,0,1,.044.085c.014.1-.08.232-.331.349a1.676,1.676,0,0,1-.837.137l-.081-.009c-.184-.025-.289.213-.178.376a.586.586,0,0,0,.46.172,1.207,1.207,0,0,0,.913-.356l.01-.014c.006-.01,0-.015-.007-.01a1.567,1.567,0,0,1-1.058.271.633.633,0,0,1-.115-.03c-.044-.017-.135-.059-.146-.152A.963.963,0,0,0,3.221,8.875ZM2.59,8.8ZM1.823,7.09a1.828,1.828,0,0,1,.51-.418.007.007,0,0,1,.009.009.45.45,0,0,0-.048.116.007.007,0,0,0,.011.007.988.988,0,0,1,.448-.159.007.007,0,0,1,0,.012.393.393,0,0,0-.07.071.007.007,0,0,0,.005.011.892.892,0,0,1,.375.1c.007,0,0,.018-.006.016a1.536,1.536,0,0,0-.678,0,1.578,1.578,0,0,0-.55.245A.007.007,0,0,1,1.823,7.09Z"/></g></svg>