<svg xmlns="http://www.w3.org/2000/svg" viewBox="0 0 16 16"><title>mailchimp</title><g id="4144de7c-965f-4429-a3ca-404727d0f7ee" data-name="Layer 1"><path d="M14.956,8.974h.005a.508.508,0,0,0,.532-.523.618.618,0,0,0-.124-.393.437.437,0,0,0-.348-.165h0c-.191,0-.369.145-.543.443l-.014.024-.009-.026c-.043-.128-.083-.235-.106-.3-.016-.045-.024-.065-.025-.071a.071.071,0,0,0-.072-.053.133.133,0,0,0-.069.022.083.083,0,0,0-.039.055v0c-.174.543-.318.807-.439.807a.052.052,0,0,1-.042-.018c-.032-.035-.024-.118-.013-.234a2.117,2.117,0,0,0,.013-.284.288.288,0,0,0-.288-.317c-.22,0-.362.235-.428.374l-.02.042,0-.046c-.016-.173-.074-.379-.257-.381-.214,0-.377.251-.476.461l-.026.057,0-.063c.012-.28.022-.446.029-.492a.118.118,0,0,0-.012-.094.091.091,0,0,0-.08-.02c-.069,0-.1.045-.156.185-.087.229-.307.762-.482.762a.105.105,0,0,1-.083-.035c-.073-.085-.044-.313,0-.629l0-.024c.019-.149-.014-.181-.1-.2l-.025,0c-.064,0-.095.063-.155.235-.108.307-.247.63-.409.63h-.018c-.085-.015-.084-.142-.081-.3a1.7,1.7,0,0,0-.011-.276c-.024-.16-.119-.261-.247-.262-.255,0-.427.327-.507.522l-.018.044-.006-.047c-.011-.085-.025-.218-.031-.377V8l0,0a2.493,2.493,0,0,0,.694-1.407c0-.238-.107-.38-.293-.382-.135,0-.458.113-.569,1.159a5.787,5.787,0,0,0-.034.591v0l0,0c-.218.316-.685.86-1.141.86-.413,0-.742-.334-.742-.923a1.187,1.187,0,0,1,.98-1.275h0a.357.357,0,0,1,.227.074.25.25,0,0,1,.089.2.361.361,0,0,1-.07.219c-.009.014-.018.028-.026.042a.059.059,0,0,0-.005.055.085.085,0,0,0,.074.031.345.345,0,0,0,.253-.363.489.489,0,0,0-.534-.465,1.423,1.423,0,0,0-1.22,1.5A1,1,0,0,0,8.428,9.03a1.526,1.526,0,0,0,1.13-.755l.022-.028v.035c.007.173.02.309.029.409.006.064.01.11.01.135a.193.193,0,0,0,.028.119.117.117,0,0,0,.1.035c.078,0,.093-.053.124-.184l.009-.037c.038-.158.179-.675.392-.675a.11.11,0,0,1,.08.031c.047.05.042.152.036.27a1.4,1.4,0,0,0,0,.224c.02.2.106.3.264.3s.332-.175.421-.337l.017-.031.007.034c.016.087.09.373.321.373.209,0,.388-.221.585-.674l.026-.06,0,.065c0,.172-.013.382-.013.544,0,.125.012.173.071.173H12.1c.055,0,.093-.033.112-.1.148-.516.276-.756.4-.756s.136.228.146.629V8.8c0,.14.008.2.1.2.067,0,.083-.052.117-.18.007-.024.014-.051.022-.08.12-.415.219-.584.342-.584.106,0,.112.11.114.145a1.549,1.549,0,0,1-.012.235,1.579,1.579,0,0,0-.011.216.233.233,0,0,0,.25.253c.2,0,.382-.235.541-.7l.011-.032.013.032c.028.073.066.171.1.289v0l0,0a2.817,2.817,0,0,0-.264.925c0,.268.119.442.309.443h0c.1,0,.344-.041.348-.424a2.635,2.635,0,0,0-.11-.66l-.008-.032.027.018A.58.58,0,0,0,14.956,8.974Zm-5.181-1.3c0-.1.013-.19.024-.278.075-.57.23-.967.378-.967h0c.07,0,.106.053.1.158A2.28,2.28,0,0,1,9.8,7.683l-.025.036ZM14.5,9.723a.116.116,0,0,1-.1.047.125.125,0,0,1-.107-.049c-.068-.09-.049-.3.062-.687.013-.046.027-.093.042-.138l.013-.038.011.038C14.549,9.341,14.574,9.619,14.5,9.723Zm.04-1.139,0,0-.005-.015,0,0c.147-.3.314-.475.46-.475h0c.165,0,.279.149.277.36a.335.335,0,0,1-.115.266.343.343,0,0,1-.216.077A.527.527,0,0,1,14.536,8.584Z"/><path d="M5.2,8.925c.226-.019.405-.326.472-.457l.017-.034.006.037c.032.185.133.495.447.5h0a.674.674,0,0,0,.446-.241L6.6,8.717l.009.014a.452.452,0,0,0,.4.261.376.376,0,0,0,.367-.277.1.1,0,0,0-.02-.071.046.046,0,0,0-.07,0l-.01.009a.449.449,0,0,1-.252.147c-.127.006-.222-.07-.283-.228l0-.006,0-.006a2.845,2.845,0,0,0,.573-1.63C7.3,6.708,7.236,6.449,7,6.449H6.98a.349.349,0,0,0-.246.129A2.413,2.413,0,0,0,6.44,8.125a1.56,1.56,0,0,0,.075.4l0,.006-.005.006a.555.555,0,0,1-.362.236c-.248,0-.239-.416-.22-.761,0-.075.011-.122-.011-.149a.1.1,0,0,0-.081-.029h0c-.088,0-.107.018-.152.149-.094.272-.28.729-.466.729A.144.144,0,0,1,5.1,8.66c-.09-.116-.021-.4.034-.636.01-.041.019-.081.027-.118a.143.143,0,0,0-.011-.12.124.124,0,0,0-.109-.03c-.08.007-.131.04-.156.192l0,.032-.019-.023a.261.261,0,0,0-.229-.113l-.034,0a.623.623,0,0,0-.4.245.826.826,0,0,0-.177.584l0,.032v.006l0,.005a.333.333,0,0,1-.237.129c-.123,0-.193-.092-.193-.244,0-.254.173-1.023.173-1.3,0-.3-.132-.457-.361-.459h0c-.335,0-.6.38-.845,1.16-.023.072-.048.155-.069.226l-.035.117.01-.122c.024-.272.04-.536.048-.786A1.06,1.06,0,0,0,2.35,6.7a.34.34,0,0,0-.256-.1h0c-.41,0-.606.69-.748,1.177-.043.147-.128.479-.185.706l.034-.055c.025-.285.1-1,.093-1.388,0-.416-.144-.6-.45-.6h0a.472.472,0,0,0-.343.149.6.6,0,0,0-.169.407c0,.083.054.158.093.158s.039-.034.045-.054c.1-.313.217-.465.374-.465a.2.2,0,0,1,.15.059c.123.132.1.487.06,1.132-.013.208-.028.444-.04.712C1,8.575,1,8.62.994,8.662c-.012.186-.021.333.049.344a.149.149,0,0,0,.182-.114c.046-.135.148-.5.344-1.177.189-.647.332-.882.515-.882.211,0,.226.362.188,1.127-.008.162-.02.345-.028.545l0,.081c-.008.166-.014.3.033.346a.079.079,0,0,0,.061.024c.092,0,.119-.08.165-.213.008-.024.016-.049.026-.075.313-.865.545-1.615.856-1.615.093,0,.166.076.166.224,0,.341-.167,1-.167,1.334a.461.461,0,0,0,.1.3.348.348,0,0,0,.27.12h0a.5.5,0,0,0,.323-.15l.01-.01.008.011a.352.352,0,0,0,.315.14.532.532,0,0,0,.416-.349l.012-.032.012.032A.336.336,0,0,0,5.2,8.925ZM6.978,6.666h0a.073.073,0,0,1,.058.032,1.4,1.4,0,0,1-.054.914,3.135,3.135,0,0,1-.293.673l-.019.031,0-.036c-.013-.1-.02-.213-.025-.3C6.609,7.323,6.806,6.674,6.978,6.666ZM4.833,8.188c-.067.272-.2.6-.431.619H4.383q-.146,0-.162-.189a.65.65,0,0,1,.172-.467.338.338,0,0,1,.238-.126h0a.233.233,0,0,1,.2.154v.008Z"/><path d="M5.918,7.19a.153.153,0,1,0,0,.306v.012h0V7.5a.153.153,0,1,0,0-.306Z"/><path d="M11.347,7.19a.153.153,0,1,0,0,.306l0,.012h0V7.5a.153.153,0,1,0,0-.306Z"/><path d="M15.574,8.8a.106.106,0,1,0,.106.106A.107.107,0,0,0,15.574,8.8Zm0,.2a.091.091,0,1,1,.091-.091A.09.09,0,0,1,15.574,9Z"/><path d="M15.621,8.88c0-.022-.011-.034-.038-.034h-.047v.123h.015V8.915h.022l.037.054h.017l-.037-.054A.033.033,0,0,0,15.621,8.88Zm-.05.021h-.02V8.86h.027c.014,0,.028.005.028.02S15.588,8.9,15.571,8.9Z"/></g></svg>