<svg xmlns="http://www.w3.org/2000/svg" viewBox="0 0 16 16"><title>no-results</title><g id="Layer_1" data-name="Layer 1"><path d="M15.5,12.6,11.347,9.97A5.543,5.543,0,0,0,1.655,4.634a5.546,5.546,0,0,0,4.67,8.514,5.589,5.589,0,0,0,1.222-.136,5.509,5.509,0,0,0,2.853-1.64l4.194,2.659ZM4.273,10.856A3.856,3.856,0,1,1,9.7,9.471l-.235.371A3.854,3.854,0,0,1,4.273,10.856Z"/><polygon points="7.576 5.212 6.398 6.389 5.22 5.212 4.024 6.407 5.202 7.585 4.024 8.763 5.22 9.959 6.398 8.781 7.576 9.959 8.771 8.763 7.594 7.585 8.771 6.407 7.576 5.212"/></g></svg>