<svg xmlns="http://www.w3.org/2000/svg" viewBox="0 0 16 16"><title>no-results</title><g id="Layer_1" data-name="Layer 1"><path d="M15.5,12.6,11.35,10A5.54,5.54,0,0,0,1.66,4.63a5.54,5.54,0,0,0,1.71,7.65,5.52,5.52,0,0,0,3,.87A5.71,5.71,0,0,0,7.55,13a5.52,5.52,0,0,0,2.85-1.64L14.59,14ZM4.27,10.86A3.87,3.87,0,0,1,3.08,5.54,3.85,3.85,0,0,1,8.4,4.35,3.86,3.86,0,0,1,9.7,9.47l-.24.37A3.86,3.86,0,0,1,4.27,10.86Z"/><polygon points="7.58 5.21 6.4 6.39 5.22 5.21 4.02 6.41 5.2 7.58 4.02 8.76 5.22 9.96 6.4 8.78 7.58 9.96 8.77 8.76 7.59 7.58 8.77 6.41 7.58 5.21"/></g></svg>