<svg xmlns="http://www.w3.org/2000/svg" viewBox="0 0 16 16"><title>organization_2</title><g id="Layer_1" data-name="Layer 1"><path d="M14.56,11.54V9.85a2.71,2.71,0,0,0-2.71-2.71H9.06V4.75h3.31V.51H4.05V4.75H7.56V7.14H4.77A2.71,2.71,0,0,0,2.05,9.85v1.69H.39v4.24H4.63V11.54H3.55V9.85A1.22,1.22,0,0,1,4.77,8.64H7.56v2.9H6.09v4.24h4.24V11.54H9.06V8.64h2.79a1.21,1.21,0,0,1,1.21,1.21v1.69H11.79v4.24H16V11.54ZM5.3,1.76h5.82V3.5H5.3ZM3.38,14.53H1.64V12.79H3.38Zm5.7,0H7.34V12.79H9.08Zm5.7,0H13V12.79h1.74Z"/></g></svg>