<svg xmlns="http://www.w3.org/2000/svg" viewBox="0 0 16 16"><title>organization-3</title><g id="2ccbba66-f382-4ef3-9600-2d7be1c5dc9b" data-name="Layer 1"><path d="M14.777,12.04V10.083a2.858,2.858,0,0,0-2.941-2.94h-1.7c-1.2,0-1.315-.59-1.321-.895V3.865a2.046,2.046,0,1,0-1.619,0V6.248c0,.221-.064.895-1.321.895h-1.7a2.858,2.858,0,0,0-2.941,2.94V12.04a2.045,2.045,0,1,0,1.62,0V10.083A1.243,1.243,0,0,1,4.167,8.762h1.7a3.858,3.858,0,0,0,1.321-.211V12.04a2.046,2.046,0,1,0,1.619,0V8.551a3.858,3.858,0,0,0,1.321.211h1.7a1.246,1.246,0,0,1,1.321,1.321V12.04a2.045,2.045,0,1,0,1.62,0ZM3.216,13.918a1.18,1.18,0,1,1-1.18-1.18A1.18,1.18,0,0,1,3.216,13.918ZM6.822,1.987A1.18,1.18,0,1,1,8,3.167,1.18,1.18,0,0,1,6.822,1.987ZM9.181,13.918A1.18,1.18,0,1,1,8,12.738,1.18,1.18,0,0,1,9.181,13.918Zm4.786,1.18a1.18,1.18,0,1,1,1.18-1.18A1.18,1.18,0,0,1,13.967,15.1Z"/></g></svg>