<svg xmlns="http://www.w3.org/2000/svg" viewBox="0 0 16 16">
  <title>pco-logo-stack</title>
  <g id="Layer_1" data-name="Layer 1">
    <g>
      <path d="M12.485,7.88V2.319A1.712,1.712,0,0,0,10.773.606H4.939A1.712,1.712,0,0,0,3.227,2.319V7.88A1.712,1.712,0,0,0,4.939,9.593h5.834A1.712,1.712,0,0,0,12.485,7.88Zm-.925,0a.788.788,0,0,1-.787.787H4.939a.789.789,0,0,1-.788-.787V2.319a.789.789,0,0,1,.788-.788H6.082v.354a.19.19,0,0,0,.19.19H9.433a.191.191,0,0,0,.191-.19V1.531h1.149a.788.788,0,0,1,.787.788Z"/>
      <path d="M9.9,4.489l-.276-.482A.24.24,0,0,0,9.3,3.921l-.931.529V3.38a.239.239,0,0,0-.216-.253H7.6a.248.248,0,0,0-.227.253V4.433L6.466,3.88a.232.232,0,0,0-.319.077l-.29.473a.232.232,0,0,0,.076.319l.94.575-.945.541a.23.23,0,0,0-.086.316l.276.482a.24.24,0,0,0,.323.085l.931-.529V7.29a.212.212,0,0,0,.216.223h.556a.221.221,0,0,0,.227-.223V6.237l.906.553A.233.233,0,0,0,9.6,6.713l.29-.473a.231.231,0,0,0-.076-.318l-.94-.576.946-.541A.231.231,0,0,0,9.9,4.489Z" fill-rule="evenodd"/>
    </g>
    <g>
      <g>
        <path d="M2.277,14.076a.031.031,0,0,1-.033-.033V11.871a.031.031,0,0,1,.033-.034h.312a.031.031,0,0,1,.033.034v.122h0a.491.491,0,0,1,.433-.193.548.548,0,0,1,.565.392,1.375,1.375,0,0,1,.057.46,1.375,1.375,0,0,1-.057.46.548.548,0,0,1-.565.393.491.491,0,0,1-.433-.193h0v.731a.031.031,0,0,1-.033.033Zm.985-1.119a.987.987,0,0,0,.034-.305.975.975,0,0,0-.034-.3.291.291,0,0,0-.3-.21.293.293,0,0,0-.3.21.975.975,0,0,0-.034.3.987.987,0,0,0,.034.305.293.293,0,0,0,.3.209A.292.292,0,0,0,3.262,12.957Z"/>
        <path d="M4.358,13.488c-.318,0-.447-.152-.447-.467V11.2a.033.033,0,0,1,.034-.034h.312a.032.032,0,0,1,.033.034V13c0,.111.044.149.142.149h.075a.032.032,0,0,1,.034.033v.271a.033.033,0,0,1-.034.034Z"/>
        <path d="M5.7,13.468a.032.032,0,0,1-.033-.034v-.119h0a.53.53,0,0,1-.46.19.488.488,0,0,1-.548-.5c0-.355.25-.517.653-.517h.332a.018.018,0,0,0,.02-.021v-.077c0-.186-.088-.271-.362-.271a.57.57,0,0,0-.372.112.031.031,0,0,1-.048-.007L4.757,12a.031.031,0,0,1,.007-.044.95.95,0,0,1,.579-.159c.5,0,.68.169.68.568v1.066a.033.033,0,0,1-.034.034Zm-.04-.549v-.125a.018.018,0,0,0-.02-.02H5.373c-.244,0-.352.068-.352.22,0,.135.1.2.281.2C5.535,13.2,5.664,13.105,5.664,12.919Z"/>
        <path d="M7.366,13.468a.032.032,0,0,1-.034-.034v-.941c0-.21-.1-.355-.308-.355a.313.313,0,0,0-.311.355v.941a.033.033,0,0,1-.034.034H6.368a.032.032,0,0,1-.034-.034V11.871a.032.032,0,0,1,.034-.034h.311a.032.032,0,0,1,.034.034v.118h0a.505.505,0,0,1,.43-.189.557.557,0,0,1,.565.6v1.029a.033.033,0,0,1-.034.034Z"/>
        <path d="M9.051,13.468a.032.032,0,0,1-.034-.034v-.941c0-.21-.1-.355-.308-.355a.313.313,0,0,0-.311.355v.941a.033.033,0,0,1-.034.034H8.053a.032.032,0,0,1-.034-.034V11.871a.032.032,0,0,1,.034-.034h.311a.032.032,0,0,1,.034.034v.118h0a.505.505,0,0,1,.43-.189.557.557,0,0,1,.565.6v1.029a.033.033,0,0,1-.034.034Z"/>
        <path d="M9.737,11.529A.031.031,0,0,1,9.7,11.5V11.2a.032.032,0,0,1,.033-.034h.312a.032.032,0,0,1,.033.034V11.5a.031.031,0,0,1-.033.034Zm0,1.939a.032.032,0,0,1-.033-.034V11.871a.031.031,0,0,1,.033-.034h.312a.031.031,0,0,1,.033.034v1.563a.032.032,0,0,1-.033.034Z"/>
        <path d="M11.439,13.468a.033.033,0,0,1-.034-.034v-.941c0-.21-.1-.355-.308-.355a.313.313,0,0,0-.311.355v.941a.032.032,0,0,1-.034.034h-.311a.033.033,0,0,1-.034-.034V11.871a.032.032,0,0,1,.034-.034h.311a.032.032,0,0,1,.034.034v.118h0a.5.5,0,0,1,.429-.189.556.556,0,0,1,.565.6v1.029a.032.032,0,0,1-.034.034Z"/>
        <path d="M12.058,13.87a.03.03,0,0,1,0-.047l.2-.2a.032.032,0,0,1,.051,0,.5.5,0,0,0,.355.152c.251,0,.366-.135.366-.389v-.152h0a.47.47,0,0,1-.423.19.544.544,0,0,1-.554-.4A1.23,1.23,0,0,1,12,12.612a1.208,1.208,0,0,1,.055-.413.542.542,0,0,1,.554-.4.463.463,0,0,1,.423.193h0v-.122a.031.031,0,0,1,.033-.034h.312a.031.031,0,0,1,.033.034v1.495a.683.683,0,0,1-.761.748A.807.807,0,0,1,12.058,13.87ZM13,12.879a.762.762,0,0,0,.038-.267A.787.787,0,0,0,13,12.344a.306.306,0,0,0-.578,0,.789.789,0,0,0-.037.268.764.764,0,0,0,.037.267.3.3,0,0,0,.578,0Z"/>
      </g>
      <g>
        <path d="M3.523,15.518a1.614,1.614,0,0,1,0-.805.657.657,0,0,1,.673-.45.708.708,0,0,1,.565.254.032.032,0,0,1,0,.047l-.213.186a.03.03,0,0,1-.047-.007.372.372,0,0,0-.3-.142.3.3,0,0,0-.3.214.955.955,0,0,0-.034.3.979.979,0,0,0,.034.3.3.3,0,0,0,.3.21.372.372,0,0,0,.3-.142.03.03,0,0,1,.047,0l.213.186c.017.014.014.031,0,.048a.717.717,0,0,1-.565.25A.657.657,0,0,1,3.523,15.518Z"/>
        <path d="M4.968,15.515a1.258,1.258,0,0,1-.058-.4,1.325,1.325,0,0,1,.054-.4.658.658,0,0,1,.667-.45.662.662,0,0,1,.67.45,1.47,1.47,0,0,1,.054.491.033.033,0,0,1-.037.033h-1c-.014,0-.02.007-.02.021a.371.371,0,0,0,.023.125.357.357,0,0,0,.366.247.492.492,0,0,0,.382-.156.035.035,0,0,1,.051-.007l.2.176a.031.031,0,0,1,0,.048.861.861,0,0,1-.67.277A.66.66,0,0,1,4.968,15.515Zm.984-.721a.348.348,0,0,0-.639,0,.408.408,0,0,0-.02.139.018.018,0,0,0,.02.02h.639a.018.018,0,0,0,.021-.02A.407.407,0,0,0,5.952,14.794Z"/>
        <path d="M7.624,15.931A.032.032,0,0,1,7.59,15.9v-.941c0-.209-.1-.355-.308-.355a.314.314,0,0,0-.311.355V15.9a.032.032,0,0,1-.034.034H6.626a.032.032,0,0,1-.034-.034V14.334a.032.032,0,0,1,.034-.034h.311a.033.033,0,0,1,.034.034v.118h0a.505.505,0,0,1,.43-.189.557.557,0,0,1,.565.606V15.9a.032.032,0,0,1-.034.034Z"/>
        <path d="M8.754,15.951c-.328,0-.454-.159-.454-.477v-.859c0-.014-.006-.02-.02-.02H8.172a.032.032,0,0,1-.034-.034v-.227a.032.032,0,0,1,.034-.034H8.28a.018.018,0,0,0,.02-.02v-.447a.032.032,0,0,1,.034-.033h.311a.031.031,0,0,1,.034.033v.447a.018.018,0,0,0,.021.02h.216a.033.033,0,0,1,.034.034v.227a.033.033,0,0,1-.034.034H8.7c-.014,0-.021.006-.021.02v.846c0,.115.048.152.152.152h.085a.032.032,0,0,1,.034.034v.271a.032.032,0,0,1-.034.033Z"/>
        <path d="M9.163,15.515a1.261,1.261,0,0,1-.057-.4,1.294,1.294,0,0,1,.054-.4.721.721,0,0,1,1.336,0,1.47,1.47,0,0,1,.054.491c0,.02-.013.033-.037.033H9.508a.018.018,0,0,0-.02.021.348.348,0,0,0,.024.125.355.355,0,0,0,.365.247.49.49,0,0,0,.382-.156.035.035,0,0,1,.051-.007l.2.176a.032.032,0,0,1,0,.048.861.861,0,0,1-.67.277A.66.66,0,0,1,9.163,15.515Zm.985-.721a.349.349,0,0,0-.64,0,.434.434,0,0,0-.02.139.018.018,0,0,0,.02.02h.64a.018.018,0,0,0,.02-.02A.434.434,0,0,0,10.148,14.794Z"/>
        <path d="M10.821,15.931a.032.032,0,0,1-.034-.034V14.334a.033.033,0,0,1,.034-.034h.311a.033.033,0,0,1,.034.034v.139h0a.469.469,0,0,1,.423-.21.5.5,0,0,1,.342.135c.017.017.02.031.007.048l-.18.226a.03.03,0,0,1-.047.007.442.442,0,0,0-.24-.078c-.213,0-.308.153-.308.413V15.9a.032.032,0,0,1-.034.034Z"/>
      </g>
    </g>
  </g>
</svg>
