<svg xmlns="http://www.w3.org/2000/svg" viewBox="0 0 16 16"><title>pco-logo-stack2</title><g id="Layer_1" data-name="Layer 1"><path d="M1.8,12.29h0a.05.05,0,0,1-.05,0V11a.08.08,0,0,0-.07-.07H1.49a.08.08,0,0,0-.07.07V12.4a.2.2,0,0,0,.2.2H1.8a.05.05,0,0,0,.05,0v-.21A.05.05,0,0,0,1.8,12.29Z"/><path d="M2.5,11.37a1.05,1.05,0,0,0-.41.07.06.06,0,0,0,0,.08l0,.11s0,.07.08.06a1,1,0,0,1,.32-.06.17.17,0,0,1,.12,0s.05.09.05.19a.88.88,0,0,0-.22,0c-.29,0-.48.16-.48.39a.38.38,0,0,0,.39.41.56.56,0,0,0,.36-.14l0,.06s0,0,.06,0h.08a.08.08,0,0,0,.07-.07V11.9C2.92,11.62,2.89,11.37,2.5,11.37Zm.14.71v.17a.35.35,0,0,1-.25.14.16.16,0,0,1-.17-.17c0-.11.09-.18.23-.18A.38.38,0,0,1,2.64,12.08Z"/><path d="M3.73,11.37a.61.61,0,0,0-.4.15l0-.08a.07.07,0,0,0-.06,0H3.15a.08.08,0,0,0-.07.07v1.06a.08.08,0,0,0,.07.07h.16a.07.07,0,0,0,.08-.07v-.71a.35.35,0,0,1,.31-.17c.15,0,.23.1.23.28v.6A.07.07,0,0,0,4,12.6h.16a.08.08,0,0,0,.07-.07v-.59C4.23,11.58,4.05,11.37,3.73,11.37Z"/><path d="M5.07,11.37a.63.63,0,0,0-.4.15l0-.08a.07.07,0,0,0-.06,0H4.5a.07.07,0,0,0-.07.07v1.06a.08.08,0,0,0,.07.07h.15c.06,0,.08,0,.08-.07v-.71A.36.36,0,0,1,5,11.65c.15,0,.23.1.23.28v.6a.07.07,0,0,0,.07.07h.17a.08.08,0,0,0,.07-.07v-.59C5.58,11.58,5.39,11.37,5.07,11.37Z"/><path d="M5.94,10.85a.18.18,0,0,0-.19.19.18.18,0,0,0,.19.18A.18.18,0,0,0,6.12,11,.18.18,0,0,0,5.94,10.85Z"/><rect x="5.79" y="11.4" width="0.31" height="1.2" rx="0.07"/><path d="M7,11.37a.67.67,0,0,0-.41.15l0-.08a.08.08,0,0,0-.06,0H6.38a.07.07,0,0,0-.07.07v1.06a.08.08,0,0,0,.07.07h.15c.06,0,.08,0,.08-.07v-.71a.37.37,0,0,1,.32-.17c.14,0,.22.1.22.28v.6a.08.08,0,0,0,.07.07h.17a.08.08,0,0,0,.07-.07v-.59C7.46,11.58,7.28,11.37,7,11.37Z"/><path d="M10.3,12.21h0a.07.07,0,0,0-.1,0h0a.28.28,0,0,1-.24.12A.34.34,0,0,1,9.62,12a.33.33,0,0,1,.32-.35.31.31,0,0,1,.23.11h0a.06.06,0,0,0,.1,0l.09-.09a.05.05,0,0,0,0,0,.13.13,0,0,0,0-.06.55.55,0,0,0-.44-.21.64.64,0,0,0-.63.63.63.63,0,0,0,.63.63.52.52,0,0,0,.46-.26s0-.07,0-.1Z"/><path d="M11.05,11.37a.63.63,0,0,0,0,1.26.74.74,0,0,0,.45-.15s0,0,0-.05,0,0,0,0l-.08-.11s-.06,0-.1,0a.46.46,0,0,1-.25.08.32.32,0,0,1-.32-.28h.78A.07.07,0,0,0,11.6,12v-.09A.54.54,0,0,0,11.05,11.37Zm0,.25a.25.25,0,0,1,.25.23h-.53A.28.28,0,0,1,11.05,11.62Z"/><path d="M12.41,11.37a.63.63,0,0,0-.4.15l0-.08a.07.07,0,0,0-.06,0h-.08a.07.07,0,0,0-.07.07v1.06a.08.08,0,0,0,.07.07H12a.07.07,0,0,0,.08-.07v-.71a.36.36,0,0,1,.31-.17c.15,0,.23.1.23.28v.6a.07.07,0,0,0,.07.07h.17a.08.08,0,0,0,.07-.07v-.59C12.92,11.58,12.73,11.37,12.41,11.37Z"/><path d="M13.78,12.32h0a.05.05,0,0,0,0,0H13.7a.55.55,0,0,1-.17.05s-.08,0-.08-.11v-.56h.28a.07.07,0,0,0,.07-.07v-.13a.07.07,0,0,0-.07-.07h-.28V11a.07.07,0,0,0-.07-.07h-.17a.08.08,0,0,0-.07.07v.36H13a.07.07,0,0,0-.07.07v.13a.08.08,0,0,0,.07.07h.11v.59c0,.16,0,.37.32.37a1,1,0,0,0,.34-.09.07.07,0,0,0,0-.09Z"/><path d="M14.46,11.37a.63.63,0,0,0,0,1.26.74.74,0,0,0,.45-.15l0-.05a.09.09,0,0,0,0,0l-.08-.11s-.06,0-.1,0a.46.46,0,0,1-.25.08.32.32,0,0,1-.32-.28h.78A.07.07,0,0,0,15,12v-.09A.54.54,0,0,0,14.46,11.37Zm.25.48h-.53a.28.28,0,0,1,.28-.23A.25.25,0,0,1,14.71,11.85Z"/><path d="M15.93,11.43a.32.32,0,0,0-.22-.06.42.42,0,0,0-.33.15l0-.07a.06.06,0,0,0-.06,0H15.2a.08.08,0,0,0-.07.07v1.06a.08.08,0,0,0,.07.07h.14s.1,0,.1-.07v-.74a.29.29,0,0,1,.25-.14l.09,0a.06.06,0,0,0,.09,0l.07-.14A.06.06,0,0,0,15.93,11.43Z"/><path d="M8.76,11.4H8.64a.05.05,0,0,0-.05,0h0v.09a.55.55,0,0,0-.4-.16.68.68,0,0,0,0,1.35.71.71,0,0,0,.31-.08v0a.28.28,0,0,1-.08.21.41.41,0,0,1-.32.12.55.55,0,0,1-.28-.09.06.06,0,0,0-.07,0l-.07.13a.07.07,0,0,0,0,.07.85.85,0,0,0,.46.15h0a.59.59,0,0,0,.63-.57V11.46A.06.06,0,0,0,8.76,11.4Zm-.31,1a.54.54,0,0,1-.21,0,.35.35,0,0,1-.35-.39c0-.24.13-.4.33-.4a.32.32,0,0,1,.28.15.14.14,0,0,1,0,.07v.41A.12.12,0,0,1,8.45,12.39Z"/><path d="M.7,11.3a.55.55,0,0,0-.39.16v-.08h0a0,0,0,0,0,0,0H.13a.07.07,0,0,0-.07.06v1.74a.08.08,0,0,0,.07.07H.3a.07.07,0,0,0,.08-.07v-.57a.59.59,0,0,0,.31.09.69.69,0,0,0,0-1.36Zm-.33.5a.1.1,0,0,1,0-.07.33.33,0,0,1,.27-.15c.2,0,.33.16.33.4a.35.35,0,0,1-.34.4.6.6,0,0,1-.22-.05.13.13,0,0,1-.06-.11Z"/><path d="M9,5.86l-.73.24a.82.82,0,0,1-.49,0L7,5.88A.06.06,0,0,0,7,5.94v.9A.07.07,0,0,0,7,6.9l.9.27a.41.41,0,0,0,.22,0L9,6.87s0,0,0,0v-.9A.06.06,0,0,0,9,5.86Z"/><path d="M10.49,3.94l-2-.59a1.87,1.87,0,0,0-1,0l-2,.59a1.05,1.05,0,0,0-.74,1V8.12a1.06,1.06,0,0,0,.74,1l2,.58a1.88,1.88,0,0,0,1,0l2-.58a1.06,1.06,0,0,0,.74-1V4.94A1.05,1.05,0,0,0,10.49,3.94ZM9.72,7a.47.47,0,0,1-.33.44L8.24,7.8a.75.75,0,0,1-.47,0L7,7.57a0,0,0,0,0-.06,0v.53a.16.16,0,0,1-.21.15L6.41,8.2A.17.17,0,0,1,6.29,8V5.62a.47.47,0,0,1,.6-.45l1,.3a.41.41,0,0,0,.22,0l1-.32a.47.47,0,0,1,.6.44Z"/></g></svg>