<svg xmlns="http://www.w3.org/2000/svg" viewBox="0 0 16 16"><title>pco-logo-stack</title><g id="Layer_1" data-name="Layer 1"><path d="M12.49,7.88V2.32A1.71,1.71,0,0,0,10.77.61H4.94A1.7,1.7,0,0,0,3.23,2.32V7.88A1.7,1.7,0,0,0,4.94,9.59h5.83A1.71,1.71,0,0,0,12.49,7.88Zm-.93,0a.79.79,0,0,1-.79.79H4.94a.79.79,0,0,1-.79-.79V2.32a.79.79,0,0,1,.79-.79H6.08v.35a.19.19,0,0,0,.19.19H9.43a.18.18,0,0,0,.19-.19V1.53h1.15a.79.79,0,0,1,.79.79Z"/><path d="M9.9,4.49,9.63,4a.26.26,0,0,0-.33-.09l-.93.53V3.38a.24.24,0,0,0-.22-.25H7.6a.24.24,0,0,0-.23.25v1l-.9-.55A.23.23,0,0,0,6.15,4l-.29.47a.23.23,0,0,0,.07.32l.94.57-.94.54a.24.24,0,0,0-.09.32l.28.48a.24.24,0,0,0,.32.09l.93-.53V7.29a.21.21,0,0,0,.22.22h.55a.22.22,0,0,0,.23-.22v-1l.91.55a.23.23,0,0,0,.32-.08l.29-.47a.24.24,0,0,0-.08-.32l-.94-.57,1-.55A.22.22,0,0,0,9.9,4.49Z" fill-rule="evenodd"/><path d="M2.28,14.08a0,0,0,0,1,0,0V11.87s0,0,0,0h.31a0,0,0,0,1,0,0V12h0a.48.48,0,0,1,.43-.19.54.54,0,0,1,.56.39,1.38,1.38,0,0,1,.06.46,1.34,1.34,0,0,1-.06.46.54.54,0,0,1-.56.39.48.48,0,0,1-.43-.19h0V14s0,0,0,0Zm1-1.12a.83.83,0,0,0,0-.31.74.74,0,0,0,0-.3.28.28,0,0,0-.3-.21.28.28,0,0,0-.3.21.74.74,0,0,0,0,.3.83.83,0,0,0,0,.31.3.3,0,0,0,.3.21A.3.3,0,0,0,3.26,13Z"/><path d="M4.36,13.49c-.32,0-.45-.15-.45-.47V11.2s0,0,0,0h.31a0,0,0,0,1,0,0V13c0,.11,0,.15.14.15h.08a0,0,0,0,1,0,0v.27s0,0,0,0Z"/><path d="M5.7,13.47s0,0,0,0v-.11h0a.54.54,0,0,1-.46.18A.48.48,0,0,1,4.66,13c0-.36.25-.52.65-.52h.33s0,0,0,0v-.08c0-.18-.08-.27-.36-.27a.58.58,0,0,0-.37.11,0,0,0,0,1,0,0L4.76,12a0,0,0,0,1,0,0,1,1,0,0,1,.58-.16c.5,0,.68.17.68.57v1.06s0,0,0,0Zm0-.55v-.13s0,0,0,0H5.37c-.24,0-.35.07-.35.22s.1.21.28.21S5.66,13.11,5.66,12.92Z"/><path d="M7.37,13.47a0,0,0,0,1,0,0v-.94c0-.21-.1-.35-.31-.35a.31.31,0,0,0-.31.35v.94s0,0,0,0H6.37a0,0,0,0,1,0,0V11.87s0,0,0,0h.31a0,0,0,0,1,0,0V12h0a.5.5,0,0,1,.43-.19.56.56,0,0,1,.56.61v1s0,0,0,0Z"/><path d="M9.05,13.47s0,0,0,0v-.94c0-.21-.11-.35-.31-.35s-.31.14-.31.35v.94a0,0,0,0,1,0,0H8.05s0,0,0,0V11.87a0,0,0,0,1,0,0h.31s0,0,0,0V12h0a.5.5,0,0,1,.43-.19.56.56,0,0,1,.57.61v1a0,0,0,0,1,0,0Z"/><path d="M9.74,11.53s0,0,0,0v-.3s0,0,0,0h.31a0,0,0,0,1,0,0v.3a0,0,0,0,1,0,0Zm0,1.94a0,0,0,0,1,0,0V11.87s0,0,0,0h.31a0,0,0,0,1,0,0v1.56s0,0,0,0Z"/><path d="M11.44,13.47s0,0,0,0v-.94c0-.21-.11-.35-.31-.35s-.31.14-.31.35v.94a0,0,0,0,1,0,0h-.31s0,0,0,0V11.87a0,0,0,0,1,0,0h.31s0,0,0,0V12h0a.5.5,0,0,1,.43-.19.55.55,0,0,1,.56.61v1s0,0,0,0Z"/><path d="M12.06,13.87s0,0,0,0l.2-.2h.05a.5.5,0,0,0,.36.16c.25,0,.36-.14.36-.39v-.16h0a.46.46,0,0,1-.42.19.55.55,0,0,1-.56-.39,1.31,1.31,0,0,1-.05-.42,1.21,1.21,0,0,1,.05-.41.55.55,0,0,1,.56-.4A.46.46,0,0,1,13,12h0v-.12s0,0,0,0h.31a0,0,0,0,1,0,0v1.5a.68.68,0,0,1-.76.74A.78.78,0,0,1,12.06,13.87Zm.94-1a1.23,1.23,0,0,0,0-.54.29.29,0,0,0-.3-.2.26.26,0,0,0-.28.2.93.93,0,0,0,0,.54.27.27,0,0,0,.28.21A.3.3,0,0,0,13,12.88Z"/><path d="M3.52,15.52a1.4,1.4,0,0,1,0-.4,1.42,1.42,0,0,1,0-.41.67.67,0,0,1,.68-.45.7.7,0,0,1,.56.26,0,0,0,0,1,0,0l-.22.19a0,0,0,0,1,0,0,.37.37,0,0,0-.3-.14.3.3,0,0,0-.31.21,1,1,0,0,0,0,.31.89.89,0,0,0,0,.3.3.3,0,0,0,.31.21.37.37,0,0,0,.3-.14,0,0,0,0,1,0,0l.22.19a0,0,0,0,1,0,.05A.72.72,0,0,1,4.2,16,.67.67,0,0,1,3.52,15.52Z"/><path d="M5,15.51a1.07,1.07,0,0,1-.06-.39,1.53,1.53,0,0,1,0-.41.68.68,0,0,1,.67-.45.66.66,0,0,1,.67.45,1.44,1.44,0,0,1,0,.49s0,0,0,0h-1s0,0,0,0a.21.21,0,0,0,0,.12.35.35,0,0,0,.36.25.48.48,0,0,0,.38-.16s0,0,.05,0l.2.17s0,0,0,0a.87.87,0,0,1-.67.28A.65.65,0,0,1,5,15.51Zm1-.72a.31.31,0,0,0-.32-.21.33.33,0,0,0-.32.21.59.59,0,0,0,0,.14s0,0,0,0H6s0,0,0,0A.32.32,0,0,0,6,14.79Z"/><path d="M7.62,15.93a0,0,0,0,1,0,0V15c0-.21-.11-.36-.31-.36A.32.32,0,0,0,7,15v.94a0,0,0,0,1,0,0H6.63s0,0,0,0V14.33s0,0,0,0h.31a0,0,0,0,1,0,0v.12H7a.53.53,0,0,1,.43-.19.56.56,0,0,1,.57.61v1s0,0,0,0Z"/><path d="M8.75,16c-.32,0-.45-.16-.45-.48v-.86l0,0H8.17a0,0,0,0,1,0,0v-.23a0,0,0,0,1,0,0h.11l0,0v-.45a0,0,0,0,1,0,0h.32a0,0,0,0,1,0,0v.45a0,0,0,0,0,0,0h.22a0,0,0,0,1,0,0v.23a0,0,0,0,1,0,0H8.7l0,0v.85c0,.12.05.15.15.15h.09s0,0,0,0v.27a0,0,0,0,1,0,0Z"/><path d="M9.16,15.51a1.37,1.37,0,0,1-.05-.39,1.53,1.53,0,0,1,.05-.41.66.66,0,0,1,.67-.45.68.68,0,0,1,.67.45,1.77,1.77,0,0,1,.05.49,0,0,0,0,1,0,0h-1s0,0,0,0a.37.37,0,0,0,0,.12.36.36,0,0,0,.37.25.48.48,0,0,0,.38-.16s0,0,.05,0l.2.17s0,0,0,0a.87.87,0,0,1-.67.28A.66.66,0,0,1,9.16,15.51Zm1-.72a.33.33,0,0,0-.32-.21.31.31,0,0,0-.32.21.32.32,0,0,0,0,.14s0,0,0,0h.64s0,0,0,0A.59.59,0,0,0,10.15,14.79Z"/><path d="M10.82,15.93a0,0,0,0,1,0,0V14.33a0,0,0,0,1,0,0h.31s0,0,0,0v.14h0a.48.48,0,0,1,.42-.21.46.46,0,0,1,.34.14s0,0,0,0l-.18.22s0,0,0,0a.41.41,0,0,0-.24-.08c-.21,0-.3.15-.3.41v.89s0,0,0,0Z"/></g></svg>