<svg xmlns="http://www.w3.org/2000/svg" viewBox="0 0 16 16"><title>pico</title><g id="Layer_1" data-name="Layer 1"><path d="M13.55,7.48l-.11-.1a2.27,2.27,0,0,0-1.31-1.57l-.05,0,0,0a10,10,0,0,0-2.62-.58h0a2,2,0,0,0-1.1-.49V4.19a1,1,0,1,0-.81,0V4.7a2,2,0,0,0-1.11.51l0,0A10.09,10.09,0,0,0,4,5.77l0,0,0,0h0A2.3,2.3,0,0,0,2.58,7.36l-.11.09a1.78,1.78,0,0,0-.56,1.36,1.44,1.44,0,0,0,.58,1.25l.07,0a1.42,1.42,0,0,0,1.12,1.5h0a21.28,21.28,0,0,0,4.14.44h.24a19.12,19.12,0,0,0,4.14-.44h.05a1.44,1.44,0,0,0,1.13-1.51l.07,0a1.47,1.47,0,0,0,.57-1.25A1.75,1.75,0,0,0,13.55,7.48Zm-.86,2.69c0,.54-.17.62-.43.69a14.87,14.87,0,0,1-4.15.47H7.87a12.12,12.12,0,0,1-4.07-.44.62.62,0,0,1-.5-.64l0-2.33a1.33,1.33,0,0,1,.85-1.27l.12,0a14.6,14.6,0,0,1,3.82-.43,13.73,13.73,0,0,1,3.7.42l.14.05a1.32,1.32,0,0,1,.84,1.27ZM9,9.39H9a1,1,0,0,1-1,.65,1,1,0,0,1-1-.65h0A1.06,1.06,0,0,0,8,10.33,1,1,0,0,0,9,9.4H9ZM8,0a8,8,0,1,0,8,8A8,8,0,0,0,8,0Zm4.87,12.81a6.92,6.92,0,0,1-9.76,0,6.86,6.86,0,0,1,0-9.72A6.9,6.9,0,0,1,14.89,8,6.79,6.79,0,0,1,12.86,12.81ZM5.08,7.42c-.45,0-.83.59-.83,1.32s.37,1.31.83,1.31.83-.59.83-1.31S5.54,7.42,5.08,7.42Zm5.77,0c-.46,0-.83.59-.83,1.31s.37,1.32.83,1.32.83-.59.83-1.32S11.31,7.42,10.85,7.42Z"/></g></svg>