<svg xmlns="http://www.w3.org/2000/svg" viewBox="0 0 16 16"><title>renew</title><g id="Layer_1" data-name="Layer 1"><path d="M8.05,15.9A7.89,7.89,0,1,1,8,.12H8a7.88,7.88,0,0,1,5.61,13.43A7.8,7.8,0,0,1,8.05,15.9ZM8,1.52a6.49,6.49,0,1,0,0,13A6.5,6.5,0,0,0,14.49,8,6.51,6.51,0,0,0,8,1.52Z"/><path d="M8,12.53A4.52,4.52,0,0,1,3.48,8a4.58,4.58,0,0,1,.09-.9.65.65,0,0,1,1.28.27A2.79,2.79,0,0,0,4.78,8,3.23,3.23,0,0,0,8,11.23,3.22,3.22,0,1,0,5.8,5.66a.65.65,0,0,1-.89-1A4.52,4.52,0,1,1,8,12.53Z"/><path d="M5.42,8.88A.65.65,0,0,1,5,8.69l-.83-.84-.84.84a.64.64,0,0,1-.92,0,.66.66,0,0,1,0-.92l1.3-1.29a.66.66,0,0,1,.92,0L5.88,7.77a.64.64,0,0,1,0,.92A.62.62,0,0,1,5.42,8.88Z"/></g></svg>