<svg xmlns="http://www.w3.org/2000/svg" viewBox="0 0 16 16"><title>rocket</title><g id="Layer_1" data-name="Layer 1"><path d="M13.22,10.45a2.9,2.9,0,0,0-1.79-2.08,7.85,7.85,0,0,0-.13-2.79A6,6,0,0,0,9,2.41L8.83.78a.83.83,0,0,0-1.66,0L7,2.41A6,6,0,0,0,4.7,5.58a7.85,7.85,0,0,0-.13,2.79,2.9,2.9,0,0,0-1.79,2.08,5.74,5.74,0,0,0,.53,3.22,9.91,9.91,0,0,0,1,2A.83.83,0,0,0,5,16a.87.87,0,0,0,.41-.11A1.53,1.53,0,0,0,6,15.21a2.17,2.17,0,0,0,.11-.63,3.69,3.69,0,0,1,.16-1,1.49,1.49,0,0,0,.79.36l.1.67a.85.85,0,0,0,.86.72.84.84,0,0,0,.82-.72l.1-.67a1.36,1.36,0,0,0,.79-.36,3.82,3.82,0,0,1,.16,1,2.17,2.17,0,0,0,.11.63,1.53,1.53,0,0,0,.61.65A.87.87,0,0,0,11,16a.83.83,0,0,0,.64-.3,9.91,9.91,0,0,0,1-2A5.74,5.74,0,0,0,13.22,10.45ZM11,15.14a.73.73,0,0,1-.27-.26,6.44,6.44,0,0,0-.34-1.74,4.63,4.63,0,0,0-.87-.87.21.21,0,0,0-.18.18A3.1,3.1,0,0,1,9.2,13a.56.56,0,0,1-.34.17h0c-.13,0-.41,0-.63.07L8,14.52H8l-.19-1.31c-.22,0-.5-.07-.63-.07h0A.56.56,0,0,1,6.8,13a3.1,3.1,0,0,1-.17-.52.21.21,0,0,0-.18-.18,4.63,4.63,0,0,0-.87.87,6.44,6.44,0,0,0-.34,1.74.73.73,0,0,1-.27.26c-.21-.26-1.71-3-1.38-4.51A2.21,2.21,0,0,1,5.54,9a6.76,6.76,0,0,1,0-3.21A5.55,5.55,0,0,1,7.82,2.86L8,.86l.18,2a5.55,5.55,0,0,1,2.31,2.91,6.76,6.76,0,0,1,0,3.21,2.21,2.21,0,0,1,1.95,1.65C12.74,12.16,11.24,14.88,11,15.14Z"/><path d="M8,6.5A1,1,0,1,0,8,4.44H8a1,1,0,0,0-1,1,1,1,0,0,0,1,1Zm0,.34H8a.83.83,0,0,0-.82.83.82.82,0,0,0,1.64,0,.78.78,0,0,0-.24-.58A.79.79,0,0,0,8,6.84Z"/></g></svg>