<svg width="16" height="16" viewBox="0 0 16 16" fill="none" xmlns="http://www.w3.org/2000/svg">
<path d="M0.295013 2.222V13.779C0.296596 14.2893 0.500021 14.7783 0.860874 15.1391C1.22173 15.5 1.71069 15.7034 2.22101 15.705H13.778C14.2885 15.7037 14.7777 15.5004 15.1388 15.1395C15.4999 14.7786 15.7034 14.2895 15.705 13.779V2.222C15.7037 1.71133 15.5002 1.22196 15.1392 0.860861C14.7781 0.499765 14.2887 0.296318 13.778 0.294998H2.22101C1.71052 0.296582 1.2214 0.500145 0.860522 0.861213C0.499641 1.22228 0.296332 1.7115 0.295013 2.222ZM1.57901 2.222C1.58085 2.05276 1.64924 1.89105 1.76938 1.77184C1.88953 1.65263 2.05177 1.58551 2.22101 1.585H13.778C13.9483 1.58526 14.1115 1.65295 14.232 1.77327C14.3525 1.89358 14.4205 2.05672 14.421 2.227V13.779C14.4205 13.9493 14.3525 14.1124 14.232 14.2327C14.1115 14.353 13.9483 14.4207 13.778 14.421H2.22101C2.05091 14.4205 1.88792 14.3527 1.76763 14.2324C1.64735 14.1121 1.57954 13.9491 1.57901 13.779V2.222Z" fill="black"/>
<path d="M6.07401 8C6.07401 8.38093 6.18697 8.7533 6.3986 9.07003C6.61023 9.38675 6.91103 9.63362 7.26297 9.77939C7.6149 9.92517 8.00215 9.96331 8.37576 9.88899C8.74936 9.81468 9.09255 9.63124 9.3619 9.36189C9.63126 9.09253 9.81469 8.74935 9.88901 8.37574C9.96332 8.00213 9.92518 7.61488 9.77941 7.26295C9.63363 6.91102 9.38677 6.61022 9.07004 6.39859C8.75331 6.18696 8.38094 6.074 8.00001 6.074C7.48969 6.07558 7.00073 6.27901 6.63987 6.63986C6.27902 7.00071 6.0756 7.48968 6.07401 8ZM7.35801 8C7.35801 7.87302 7.39567 7.7489 7.46621 7.64332C7.53675 7.53775 7.63702 7.45546 7.75433 7.40687C7.87164 7.35828 8.00073 7.34556 8.12526 7.37033C8.2498 7.39511 8.36419 7.45625 8.45398 7.54604C8.54376 7.63582 8.60491 7.75021 8.62968 7.87475C8.65445 7.99929 8.64174 8.12837 8.59314 8.24568C8.54455 8.36299 8.46227 8.46326 8.35669 8.5338C8.25111 8.60435 8.12699 8.642 8.00001 8.642C7.82991 8.64147 7.66692 8.57366 7.54663 8.45338C7.42635 8.33309 7.35854 8.1701 7.35801 8Z" fill="black"/>
<path d="M2.86301 6.716V9.285C2.697 9.29155 2.53996 9.36211 2.42482 9.48188C2.30968 9.60166 2.24537 9.76135 2.24537 9.9275C2.24537 10.0936 2.30968 10.2533 2.42482 10.3731C2.53996 10.4929 2.697 10.5634 2.86301 10.57V11.854C2.86433 12.194 3.00007 12.5198 3.24061 12.7601C3.48115 13.0005 3.80697 13.1359 4.14701 13.137H11.852C12.1923 13.1362 12.5184 13.0007 12.7591 12.76C12.9997 12.5194 13.1352 12.1933 13.136 11.853V4.153C13.1352 3.8127 12.9997 3.48657 12.7591 3.24595C12.5184 3.00532 12.1923 2.86979 11.852 2.869H4.14701C3.80766 2.87004 3.48243 3.00497 3.24201 3.24446C3.00158 3.48395 2.86538 3.80865 2.86301 4.148V5.432C2.69274 5.432 2.52945 5.49964 2.40905 5.62004C2.28865 5.74043 2.22101 5.90373 2.22101 6.074C2.22101 6.24427 2.28865 6.40756 2.40905 6.52796C2.52945 6.64836 2.69274 6.716 2.86301 6.716ZM4.14701 6.716C4.23132 6.716 4.31481 6.69939 4.3927 6.66713C4.47059 6.63487 4.54136 6.58758 4.60098 6.52796C4.66059 6.46835 4.70788 6.39757 4.74014 6.31968C4.77241 6.24179 4.78901 6.15831 4.78901 6.074C4.78901 5.98969 4.77241 5.90621 4.74014 5.82832C4.70788 5.75042 4.66059 5.67965 4.60098 5.62004C4.54136 5.56042 4.47059 5.51313 4.3927 5.48087C4.31481 5.4486 4.23132 5.432 4.14701 5.432V4.148H11.852V11.853H4.14701V10.569C4.31303 10.5624 4.47007 10.4919 4.58521 10.3721C4.70035 10.2523 4.76466 10.0926 4.76466 9.9265C4.76466 9.76035 4.70035 9.60066 4.58521 9.48088C4.47007 9.36111 4.31303 9.29055 4.14701 9.284V6.716Z" fill="black"/>
</svg>
