<svg width="16" height="16" viewBox="0 0 16 16" fill="none" xmlns="http://www.w3.org/2000/svg">
<path d="M0.295013 2.22201V13.779C0.296596 14.2893 0.500021 14.7783 0.860874 15.1392C1.22173 15.5 1.71069 15.7034 2.22101 15.705H13.778C14.2885 15.7037 14.7777 15.5004 15.1388 15.1395C15.4999 14.7786 15.7034 14.2895 15.705 13.779V2.22201C15.7037 1.71135 15.5002 1.22197 15.1392 0.860877C14.7781 0.49978 14.2887 0.296333 13.778 0.295013H2.22101C1.71052 0.296597 1.2214 0.50016 0.860522 0.861228C0.499641 1.2223 0.296332 1.71152 0.295013 2.22201ZM1.57901 2.22201C1.58085 2.05278 1.64924 1.89106 1.76938 1.77186C1.88953 1.65265 2.05177 1.58553 2.22101 1.58501H13.778C13.9483 1.58528 14.1115 1.65297 14.232 1.77328C14.3525 1.89359 14.4205 2.05673 14.421 2.22701V13.779C14.4205 13.9493 14.3525 14.1124 14.232 14.2327C14.1115 14.3531 13.9483 14.4207 13.778 14.421H2.22101C2.05091 14.4205 1.88792 14.3527 1.76763 14.2324C1.64735 14.1121 1.57954 13.9491 1.57901 13.779V2.22201Z" fill="black"/>
<path d="M6.07401 8.00001C6.07401 8.38094 6.18697 8.75331 6.3986 9.07004C6.61023 9.38677 6.91103 9.63363 7.26297 9.77941C7.6149 9.92518 8.00215 9.96332 8.37576 9.88901C8.74936 9.81469 9.09255 9.63126 9.3619 9.3619C9.63126 9.09254 9.81469 8.74936 9.88901 8.37576C9.96332 8.00215 9.92518 7.6149 9.77941 7.26297C9.63363 6.91103 9.38677 6.61023 9.07004 6.3986C8.75331 6.18697 8.38094 6.07401 8.00001 6.07401C7.48969 6.0756 7.00073 6.27902 6.63987 6.63987C6.27902 7.00073 6.0756 7.48969 6.07401 8.00001ZM7.35801 8.00001C7.35801 7.87304 7.39567 7.74891 7.46621 7.64334C7.53675 7.53776 7.63702 7.45547 7.75433 7.40688C7.87164 7.35829 8.00073 7.34558 8.12526 7.37035C8.2498 7.39512 8.36419 7.45627 8.45398 7.54605C8.54376 7.63584 8.60491 7.75023 8.62968 7.87477C8.65445 7.9993 8.64174 8.12839 8.59314 8.2457C8.54455 8.36301 8.46227 8.46327 8.35669 8.53382C8.25111 8.60436 8.12699 8.64201 8.00001 8.64201C7.82991 8.64149 7.66692 8.57368 7.54663 8.45339C7.42635 8.33311 7.35854 8.17012 7.35801 8.00001Z" fill="black"/>
<path d="M2.86301 6.71601V9.28501C2.697 9.29156 2.53996 9.36212 2.42482 9.4819C2.30968 9.60167 2.24537 9.76137 2.24537 9.92751C2.24537 10.0937 2.30968 10.2534 2.42482 10.3731C2.53996 10.4929 2.697 10.5635 2.86301 10.57V11.854C2.86433 12.1941 3.00007 12.5198 3.24061 12.7601C3.48115 13.0005 3.80697 13.136 4.14701 13.137H11.852C12.1923 13.1362 12.5184 13.0007 12.7591 12.7601C12.9997 12.5194 13.1352 12.1933 13.136 11.853V4.15301C13.1352 3.81272 12.9997 3.48659 12.7591 3.24596C12.5184 3.00534 12.1923 2.86981 11.852 2.86901H4.14701C3.80766 2.87006 3.48243 3.00499 3.24201 3.24448C3.00158 3.48397 2.86538 3.80867 2.86301 4.14801V5.43201C2.69274 5.43201 2.52945 5.49965 2.40905 5.62005C2.28865 5.74045 2.22101 5.90374 2.22101 6.07401C2.22101 6.24428 2.28865 6.40758 2.40905 6.52798C2.52945 6.64837 2.69274 6.71601 2.86301 6.71601ZM4.14701 6.71601C4.23132 6.71601 4.31481 6.69941 4.3927 6.66714C4.47059 6.63488 4.54136 6.58759 4.60098 6.52798C4.66059 6.46836 4.70788 6.39759 4.74014 6.3197C4.77241 6.24181 4.78901 6.15832 4.78901 6.07401C4.78901 5.98971 4.77241 5.90622 4.74014 5.82833C4.70788 5.75044 4.66059 5.67967 4.60098 5.62005C4.54136 5.56044 4.47059 5.51315 4.3927 5.48088C4.31481 5.44862 4.23132 5.43201 4.14701 5.43201V4.14801H11.852V11.853H4.14701V10.569C4.31303 10.5625 4.47007 10.4919 4.58521 10.3721C4.70035 10.2524 4.76466 10.0927 4.76466 9.92651C4.76466 9.76037 4.70035 9.60067 4.58521 9.4809C4.47007 9.36112 4.31303 9.29056 4.14701 9.28401V6.71601Z" fill="black"/>
</svg>
