<svg xmlns="http://www.w3.org/2000/svg" viewBox="0 0 16 16"><title>safe</title><g id="Layer_1" data-name="Layer 1"><path d="M.37,2.24V13.79a1.93,1.93,0,0,0,1.92,1.93H13.85a1.94,1.94,0,0,0,1.93-1.93V2.24A1.94,1.94,0,0,0,13.85.31H2.29A1.93,1.93,0,0,0,.37,2.24Zm1.28,0a.65.65,0,0,1,.64-.65H13.85a.65.65,0,0,1,.64.65V13.79a.65.65,0,0,1-.64.65H2.29a.65.65,0,0,1-.64-.65Z"/><path d="M6.15,8A1.93,1.93,0,1,0,8.07,6.09,1.93,1.93,0,0,0,6.15,8ZM7.43,8A.64.64,0,1,1,8.71,8a.64.64,0,0,1-.64.64A.64.64,0,0,1,7.43,8Z"/><path d="M2.94,6.73V9.3a.64.64,0,1,0,0,1.28v1.29a1.28,1.28,0,0,0,1.28,1.28h7.71a1.29,1.29,0,0,0,1.28-1.28V4.16a1.29,1.29,0,0,0-1.28-1.28H4.22A1.28,1.28,0,0,0,2.94,4.16V5.45a.64.64,0,1,0,0,1.28Zm1.28,0h0a.64.64,0,0,0,0-1.28h0V4.16h7.71v7.71H4.22V10.58h0a.64.64,0,1,0,0-1.28h0Z"/></g></svg>