<svg width="16" height="16" viewBox="0 0 16 16" fill="none" xmlns="http://www.w3.org/2000/svg">
<path d="M15.3481 3.30401H15.4401C15.5555 3.30375 15.6661 3.25768 15.7477 3.17592C15.8292 3.09415 15.875 2.98337 15.875 2.86787V1.49544C15.8754 1.42311 15.8577 1.35183 15.8236 1.28807C15.7895 1.22431 15.74 1.17009 15.6796 1.13034C15.6192 1.09059 15.5498 1.06656 15.4778 1.06044C15.4058 1.05433 15.3334 1.06631 15.2671 1.09531C15.1838 1.12877 15.0932 1.14002 15.0043 1.12796C14.9153 1.1159 14.831 1.08094 14.7595 1.02651C14.6881 0.972071 14.632 0.90002 14.5967 0.817398C14.5615 0.734776 14.5482 0.644411 14.5583 0.555139C14.5583 0.439733 14.5125 0.329054 14.431 0.24745C14.3494 0.165846 14.2388 0.120001 14.1234 0.120001H13.1087C12.9865 0.136005 12.8745 0.196636 12.7942 0.290248C12.7139 0.383859 12.671 0.503848 12.6738 0.627162C12.6736 0.761946 12.62 0.891149 12.5248 0.986549C12.4297 1.08195 12.3006 1.13579 12.1659 1.13632C12.0937 1.13366 12.0228 1.11625 11.9576 1.08515C11.8923 1.05405 11.8341 1.00992 11.7866 0.955487C11.739 0.901049 11.703 0.837451 11.681 0.768602C11.6589 0.699753 11.6511 0.62711 11.6581 0.555139C11.6581 0.439733 11.6123 0.329054 11.5307 0.24745C11.4491 0.165846 11.3385 0.120001 11.2232 0.120001H10.2084C10.0862 0.136005 9.9742 0.196636 9.89393 0.290248C9.81366 0.383859 9.77079 0.503848 9.77356 0.627162C9.77329 0.761946 9.71973 0.891149 9.62458 0.986549C9.52942 1.08195 9.40039 1.13579 9.26569 1.13632C9.19338 1.1338 9.12236 1.11648 9.057 1.08544C8.99163 1.0544 8.93332 1.01029 8.88564 0.95584C8.83796 0.901388 8.80194 0.837744 8.77978 0.768829C8.75763 0.699915 8.74981 0.627191 8.75682 0.555139C8.75682 0.439733 8.711 0.329054 8.62944 0.24745C8.54788 0.165846 8.43727 0.120001 8.32193 0.120001H7.30819C7.18596 0.136005 7.07394 0.196636 6.99367 0.290248C6.9134 0.383859 6.87053 0.503848 6.8733 0.627162C6.87304 0.762119 6.81934 0.891472 6.72396 0.986901C6.62859 1.08233 6.49931 1.13606 6.36443 1.13632C6.29225 1.13367 6.22137 1.11625 6.15618 1.08514C6.09098 1.05403 6.03284 1.00989 5.98535 0.955436C5.93786 0.900982 5.90202 0.83737 5.88004 0.768524C5.85806 0.699678 5.85041 0.627057 5.85756 0.555139C5.8573 0.439641 5.81125 0.328965 5.72954 0.247389C5.64782 0.165813 5.5371 0.120001 5.42167 0.120001H4.40293C4.2807 0.136005 4.16869 0.196636 4.08842 0.290248C4.00815 0.383859 3.96528 0.503848 3.96804 0.627162C3.96804 0.762027 3.91457 0.891383 3.81935 0.98684C3.72414 1.0823 3.59496 1.13606 3.46017 1.13632C3.3883 1.13313 3.31782 1.11533 3.25305 1.084C3.18827 1.05267 3.13055 1.00846 3.0834 0.954083C3.03626 0.899703 3.00068 0.836286 2.97882 0.767698C2.95697 0.69911 2.94931 0.626787 2.9563 0.555139C2.9563 0.439733 2.91049 0.329054 2.82893 0.24745C2.74737 0.165846 2.63675 0.120001 2.52141 0.120001H1.50368C1.38126 0.135778 1.26901 0.196312 1.18853 0.289947C1.10806 0.383581 1.06505 0.503696 1.06779 0.627162C1.06752 0.761946 1.01396 0.891149 0.918805 0.986549C0.823647 1.08195 0.694623 1.13579 0.559917 1.13632C0.444578 1.13632 0.333962 1.18217 0.252405 1.26377C0.170847 1.34538 0.125029 1.45606 0.125029 1.57146V2.92589C0.12487 3.0179 0.153794 3.10759 0.207663 3.18215C0.261533 3.25672 0.337588 3.31232 0.424952 3.34102C0.528191 3.36943 0.619256 3.43096 0.684158 3.51616C0.749061 3.60137 0.784212 3.70554 0.784212 3.81267C0.784212 3.9198 0.749061 4.02397 0.684158 4.10918C0.619256 4.19439 0.528191 4.25592 0.424952 4.28432C0.337585 4.3127 0.261473 4.36809 0.207575 4.44251C0.153677 4.51693 0.124774 4.60655 0.125029 4.69845V5.82781C0.124774 5.91972 0.153677 6.00934 0.207575 6.08376C0.261473 6.15818 0.337585 6.21357 0.424952 6.24194C0.52711 6.27221 0.616931 6.33434 0.681315 6.41927C0.745699 6.50421 0.781278 6.6075 0.78286 6.71409C0.781278 6.82068 0.745699 6.92398 0.681315 7.00891C0.616931 7.09385 0.52711 7.15598 0.424952 7.18624C0.337585 7.21462 0.261473 7.27001 0.207575 7.34443C0.153677 7.41885 0.124774 7.50847 0.125029 7.60037V8.72973C0.124774 8.82164 0.153677 8.91126 0.207575 8.98568C0.261473 9.0601 0.337585 9.11549 0.424952 9.14386C0.528014 9.17261 0.618835 9.23433 0.683539 9.31959C0.748242 9.40485 0.78327 9.50896 0.78327 9.61601C0.78327 9.72307 0.748242 9.82718 0.683539 9.91244C0.618835 9.99769 0.528014 10.0594 0.424952 10.0882C0.337505 10.1167 0.261363 10.1723 0.207472 10.2469C0.153581 10.3215 0.124716 10.4113 0.125029 10.5033V11.6317C0.124716 11.7237 0.153581 11.8135 0.207472 11.8881C0.261363 11.9626 0.337505 12.0182 0.424952 12.0468C0.528014 12.0755 0.618835 12.1373 0.683539 12.2225C0.748242 12.3078 0.78327 12.4119 0.78327 12.5189C0.78327 12.626 0.748242 12.7301 0.683539 12.8154C0.618835 12.9006 0.528014 12.9623 0.424952 12.9911C0.337585 13.0195 0.261473 13.0748 0.207575 13.1493C0.153677 13.2237 0.124774 13.3133 0.125029 13.4052V14.7596C0.124361 14.8175 0.13525 14.875 0.157057 14.9286C0.178864 14.9823 0.211151 15.031 0.252026 15.072C0.292901 15.113 0.341542 15.1454 0.395097 15.1674C0.448653 15.1893 0.506047 15.2003 0.563916 15.1998C0.672035 15.2019 0.776567 15.2389 0.861828 15.3055C0.94709 15.3721 1.00848 15.4645 1.0368 15.5689C1.06365 15.6587 1.1187 15.7374 1.19379 15.7935C1.26888 15.8495 1.36002 15.8799 1.45369 15.88H2.5744C2.66828 15.8801 2.75967 15.8497 2.83483 15.7935C2.91 15.7372 2.9649 15.658 2.99129 15.5679C3.02507 15.4693 3.08881 15.3837 3.17359 15.3231C3.25838 15.2625 3.35997 15.2299 3.46417 15.2299C3.56837 15.2299 3.66997 15.2625 3.75475 15.3231C3.83954 15.3837 3.90327 15.4693 3.93705 15.5679C3.96359 15.658 4.01852 15.737 4.09366 15.7933C4.1688 15.8495 4.2601 15.8799 4.35394 15.88H5.47466C5.56863 15.88 5.66009 15.8496 5.73539 15.7934C5.8107 15.7371 5.86582 15.658 5.89255 15.5679C5.92655 15.4696 5.99031 15.3844 6.07498 15.3241C6.15964 15.2637 6.26099 15.2313 6.36493 15.2313C6.46887 15.2313 6.57022 15.2637 6.65488 15.3241C6.73955 15.3844 6.80331 15.4696 6.83731 15.5679C6.86436 15.6578 6.91959 15.7366 6.99485 15.7926C7.07011 15.8486 7.1614 15.8789 7.2552 15.879H8.37492C8.46872 15.8789 8.56 15.8486 8.63526 15.7926C8.71052 15.7366 8.76576 15.6578 8.79281 15.5679C8.82659 15.4693 8.89032 15.3837 8.97511 15.3231C9.05989 15.2625 9.16149 15.2299 9.26569 15.2299C9.36989 15.2299 9.47148 15.2625 9.55627 15.3231C9.64105 15.3837 9.70479 15.4693 9.73857 15.5679C9.76528 15.6578 9.82029 15.7366 9.89542 15.7927C9.97054 15.8487 10.0617 15.879 10.1555 15.879H11.2762C11.37 15.8788 11.4612 15.8483 11.5363 15.7921C11.6114 15.7358 11.6664 15.6569 11.6931 15.5669C11.7268 15.4683 11.7906 15.3827 11.8754 15.3221C11.9601 15.2615 12.0617 15.2289 12.1659 15.2289C12.2701 15.2289 12.3717 15.2615 12.4565 15.3221C12.5413 15.3827 12.605 15.4683 12.6388 15.5669C12.6652 15.657 12.7201 15.7362 12.7953 15.7925C12.8705 15.8487 12.9618 15.8791 13.0557 15.879H14.1764C14.2703 15.8789 14.3616 15.8485 14.4367 15.7923C14.5118 15.736 14.5668 15.657 14.5933 15.5669C14.6126 15.4988 14.6461 15.4356 14.6916 15.3815C14.737 15.3273 14.7935 15.2834 14.8572 15.2527C14.9208 15.222 14.9903 15.2051 15.061 15.2032C15.1317 15.2014 15.2019 15.2145 15.2671 15.2418C15.3334 15.2705 15.4057 15.2823 15.4777 15.2761C15.5496 15.2698 15.6188 15.2458 15.6791 15.2061C15.7394 15.1664 15.7889 15.1123 15.8231 15.0487C15.8573 14.985 15.8751 14.9139 15.875 14.8417V13.4622C15.875 13.3468 15.8292 13.2361 15.7476 13.1545C15.6661 13.0729 15.5554 13.0271 15.4401 13.0271H15.3481C15.2172 13.0213 15.0936 12.9652 15.003 12.8704C14.9124 12.7756 14.8618 12.6496 14.8618 12.5184C14.8618 12.3873 14.9124 12.2612 15.003 12.1665C15.0936 12.0717 15.2172 12.0156 15.3481 12.0098H15.4401C15.5554 12.0098 15.6661 11.9639 15.7476 11.8823C15.8292 11.8007 15.875 11.69 15.875 11.5746V10.5603C15.875 10.4448 15.8292 10.334 15.7477 10.2523C15.6661 10.1705 15.5555 10.1244 15.4401 10.1242H15.3481C15.2134 10.1242 15.0843 10.0706 14.989 9.97534C14.8938 9.88004 14.8403 9.75079 14.8403 9.61601C14.8403 9.48124 14.8938 9.35199 14.989 9.25669C15.0843 9.16139 15.2134 9.10785 15.3481 9.10785H15.4401C15.5554 9.10785 15.6661 9.06201 15.7476 8.9804C15.8292 8.8988 15.875 8.78812 15.875 8.67271V7.65739C15.875 7.54199 15.8292 7.43131 15.7476 7.3497C15.6661 7.2681 15.5554 7.22225 15.4401 7.22225H15.3481C15.2134 7.22225 15.0843 7.16872 14.989 7.07342C14.8938 6.97812 14.8403 6.84887 14.8403 6.71409C14.8403 6.57932 14.8938 6.45007 14.989 6.35477C15.0843 6.25947 15.2134 6.20593 15.3481 6.20593H15.4401C15.5554 6.20593 15.6661 6.16009 15.7476 6.07848C15.8292 5.99688 15.875 5.8862 15.875 5.77079V4.75547C15.875 4.64007 15.8292 4.52939 15.7476 4.44778C15.6661 4.36618 15.5554 4.32033 15.4401 4.32033H15.3481C15.2134 4.32033 15.0843 4.2668 14.989 4.1715C14.8938 4.0762 14.8403 3.94694 14.8403 3.81217C14.8403 3.6774 14.8938 3.54815 14.989 3.45285C15.0843 3.35755 15.2134 3.30401 15.3481 3.30401ZM15.0052 5.1476V5.37867C14.7088 5.45454 14.4461 5.62698 14.2585 5.86877C14.0709 6.11057 13.969 6.40798 13.969 6.71409C13.969 7.02021 14.0709 7.31761 14.2585 7.55941C14.4461 7.80121 14.7088 7.97364 15.0052 8.04952V8.28059C14.7088 8.35646 14.4461 8.5289 14.2585 8.77069C14.0709 9.01249 13.969 9.3099 13.969 9.61601C13.969 9.92213 14.0709 10.2195 14.2585 10.4613C14.4461 10.7031 14.7088 10.8756 15.0052 10.9514V11.1825C14.709 11.2588 14.4466 11.4314 14.2592 11.6732C14.0718 11.9151 13.9701 12.2124 13.9701 12.5184C13.9701 12.8244 14.0718 13.1218 14.2592 13.3636C14.4466 13.6055 14.709 13.7781 15.0052 13.8544V14.3255C14.7776 14.3358 14.5562 14.4034 14.3617 14.5222C14.1672 14.6409 14.0058 14.8069 13.8925 15.0047H13.3386C13.2202 14.7981 13.0493 14.6265 12.8433 14.5071C12.6373 14.3878 12.4035 14.3249 12.1654 14.3249C11.9274 14.3249 11.6936 14.3878 11.4876 14.5071C11.2816 14.6265 11.1107 14.7981 10.9922 15.0047H10.4384C10.3199 14.7981 10.149 14.6265 9.94305 14.5071C9.73705 14.3878 9.50323 14.3249 9.26519 14.3249C9.02715 14.3249 8.79332 14.3878 8.58733 14.5071C8.38133 14.6265 8.21047 14.7981 8.09199 15.0047H7.53813C7.41965 14.7981 7.24878 14.6265 7.04279 14.5071C6.8368 14.3878 6.60297 14.3249 6.36493 14.3249C6.12689 14.3249 5.89306 14.3878 5.68707 14.5071C5.48108 14.6265 5.31021 14.7981 5.19173 15.0047H4.63787C4.51939 14.7981 4.34853 14.6265 4.14253 14.5071C3.93654 14.3878 3.70271 14.3249 3.46467 14.3249C3.22663 14.3249 2.99281 14.3878 2.78681 14.5071C2.58082 14.6265 2.40995 14.7981 2.29147 15.0047H1.73762C1.57358 14.7214 1.3131 14.5065 1.0038 14.3995V13.6863C1.20512 13.5661 1.37181 13.3956 1.48756 13.1916C1.60331 12.9876 1.66416 12.757 1.66416 12.5224C1.66416 12.2878 1.60331 12.0573 1.48756 11.8533C1.37181 11.6493 1.20512 11.4788 1.0038 11.3586V10.7844C1.20604 10.6644 1.37358 10.4938 1.48995 10.2894C1.60633 10.085 1.66752 9.85377 1.66752 9.61851C1.66752 9.38326 1.60633 9.15206 1.48995 8.94764C1.37358 8.74323 1.20604 8.57263 1.0038 8.45264V7.87746C1.20514 7.75736 1.37186 7.58701 1.48763 7.38308C1.60341 7.17914 1.66428 6.94863 1.66428 6.71409C1.66428 6.47956 1.60341 6.24904 1.48763 6.04511C1.37186 5.84118 1.20514 5.67083 1.0038 5.55072V4.97554C1.20512 4.85531 1.37181 4.68485 1.48756 4.48084C1.60331 4.27684 1.66416 4.04626 1.66416 3.81167C1.66416 3.57708 1.60331 3.34651 1.48756 3.1425C1.37181 2.93849 1.20512 2.76804 1.0038 2.6478V1.93558C1.2154 1.8617 1.40591 1.73754 1.55897 1.57376C1.71204 1.40998 1.82309 1.21147 1.88258 0.995278H2.13451C2.21455 1.28687 2.38794 1.54417 2.6281 1.72774C2.86826 1.91131 3.16195 2.01102 3.46417 2.0116C3.76502 2.01062 4.05717 1.91055 4.2955 1.72686C4.53384 1.54317 4.7051 1.28607 4.78284 0.995278H5.03577C5.11638 1.28595 5.28993 1.5422 5.52988 1.72483C5.76982 1.90747 6.06295 2.00643 6.36443 2.0066C6.66466 2.00608 6.95639 1.9068 7.19468 1.72405C7.43296 1.5413 7.60458 1.28523 7.68309 0.995278H7.93503C8.01603 1.28611 8.18996 1.54241 8.43024 1.72503C8.67052 1.90765 8.96395 2.00654 9.26569 2.0066C9.56575 2.00586 9.85725 1.90648 10.0953 1.72375C10.3334 1.54102 10.5049 1.28506 10.5833 0.995278H10.8363C10.9162 1.28696 11.0895 1.54435 11.3297 1.72794C11.5699 1.91154 11.8637 2.01119 12.1659 2.0116C12.4667 2.01057 12.7587 1.91046 12.9968 1.72676C13.235 1.54306 13.4061 1.28599 13.4836 0.995278H13.7365C13.8146 1.27597 13.9793 1.52479 14.2072 1.70623C14.435 1.88767 14.7143 1.99245 15.0052 2.0056V2.47675C14.7088 2.55262 14.4461 2.72505 14.2585 2.96685C14.0709 3.20865 13.969 3.50606 13.969 3.81217C13.969 4.11829 14.0709 4.41569 14.2585 4.65749C14.4461 4.89929 14.7088 5.07172 15.0052 5.1476Z" fill="black"/>
<path d="M12.5918 3.13996H3.15625C3.06981 3.13996 2.98692 3.17432 2.92579 3.23547C2.86467 3.29663 2.83034 3.37957 2.83034 3.46606V12.9071C2.83034 12.9936 2.86464 13.0767 2.92573 13.138C2.98683 13.1993 3.06972 13.2339 3.15625 13.2342H12.5918C12.6784 13.2339 12.7613 13.1993 12.8224 13.138C12.8834 13.0767 12.9178 12.9936 12.9178 12.9071V3.46606C12.9178 3.42324 12.9093 3.38083 12.8929 3.34127C12.8766 3.3017 12.8526 3.26575 12.8223 3.23547C12.792 3.20519 12.7561 3.18117 12.7166 3.16478C12.677 3.14839 12.6346 3.13996 12.5918 3.13996ZM12.2649 3.79317V5.27564L11.5771 4.33434C11.5465 4.28946 11.5046 4.2535 11.4556 4.23013C11.4066 4.20676 11.3523 4.19681 11.2982 4.2013C11.2443 4.2039 11.192 4.21978 11.1457 4.24753C11.0995 4.27528 11.0609 4.31403 11.0332 4.36035L7.55712 10.1982L5.83757 7.89747C5.80818 7.85849 5.77052 7.82652 5.72731 7.80386C5.68409 7.7812 5.63638 7.76842 5.58763 7.76643C5.53886 7.76598 5.49054 7.77591 5.4459 7.79557C5.40126 7.81523 5.36131 7.84417 5.3287 7.88046L3.48217 10.0311V3.79617L12.2649 3.79317ZM3.48217 12.581V11.0205C3.49217 11.0115 3.50416 11.0085 3.51216 10.9985L5.55864 8.6177L7.32718 10.9804C7.35867 11.024 7.40067 11.0589 7.44928 11.0818C7.49788 11.1047 7.55149 11.1149 7.60511 11.1115C7.65872 11.1085 7.71078 11.0924 7.75677 11.0647C7.80277 11.037 7.84131 10.9984 7.86904 10.9524L11.3422 5.11859L12.1649 6.24394C12.1917 6.28024 12.2258 6.31056 12.2649 6.33297V12.581H3.48217Z" fill="black"/>
<path d="M5.3317 6.85414C5.60852 6.85414 5.87912 6.772 6.10929 6.61812C6.33946 6.46424 6.51886 6.24552 6.62479 5.98962C6.73073 5.73372 6.75845 5.45214 6.70444 5.18048C6.65044 4.90882 6.51713 4.65929 6.32139 4.46343C6.12565 4.26757 5.87626 4.13419 5.60475 4.08016C5.33325 4.02612 5.05183 4.05385 4.79608 4.15985C4.54032 4.26585 4.32173 4.44535 4.16794 4.67565C4.01414 4.90595 3.93205 5.17671 3.93205 5.45369C3.93205 5.82511 4.07952 6.18132 4.342 6.44396C4.60448 6.70659 4.96049 6.85414 5.3317 6.85414ZM5.3317 4.70446C5.4796 4.70446 5.62418 4.74834 5.74716 4.83056C5.87013 4.91277 5.96598 5.02963 6.02258 5.16635C6.07918 5.30308 6.09399 5.45352 6.06513 5.59867C6.03628 5.74381 5.96506 5.87713 5.86048 5.98178C5.75589 6.08642 5.62265 6.15768 5.47759 6.18655C5.33252 6.21542 5.18217 6.20061 5.04552 6.14397C4.90888 6.08734 4.79209 5.99144 4.70992 5.86839C4.62775 5.74534 4.58389 5.60068 4.58389 5.45269C4.58415 5.25433 4.66302 5.06417 4.80321 4.9239C4.94339 4.78364 5.13345 4.70472 5.3317 4.70446Z" fill="black"/>
</svg>
