<svg xmlns="http://www.w3.org/2000/svg" viewBox="0 0 16 16"><title>stripe</title><g id="Layer_1" data-name="Layer 1"><path d="M4.234,5.266l-1.065.221V8.954a1.1,1.1,0,0,0,1.065,1.117h.052a1.657,1.657,0,0,0,.753-.143V9.045c-.143.052-.818.26-.818-.389V7.123h.818V6.2H4.208Z"/><path d="M1.3,7.305c0-.169.143-.234.364-.234a2.6,2.6,0,0,1,1.078.273V6.331a2.758,2.758,0,0,0-1.078-.2C.793,6.124.208,6.591.208,7.357c0,1.195,1.65,1,1.65,1.52,0,.194-.169.259-.416.259A2.725,2.725,0,0,1,.26,8.786V9.825a3.123,3.123,0,0,0,1.182.246c.9,0,1.519-.441,1.519-1.22C2.948,7.552,1.3,7.786,1.3,7.305Z"/><path d="M6.39,6.526,6.325,6.2H5.39V9.993H6.468V7.422A.739.739,0,0,1,7.286,7.2v-1A.736.736,0,0,0,6.39,6.526Z"/><path d="M15.792,8.11c0-1.1-.533-1.986-1.559-1.986A1.752,1.752,0,0,0,12.584,8.1a1.729,1.729,0,0,0,1.792,1.961,2.4,2.4,0,0,0,1.2-.285V8.916a2.143,2.143,0,0,1-1.065.233c-.416,0-.792-.143-.844-.662h2.13A3.608,3.608,0,0,1,15.792,8.11ZM13.649,7.7c0-.494.3-.688.571-.688s.546.207.546.688Z"/><rect x="7.558" y="6.201" width="1.091" height="3.792"/><path d="M10.909,6.124a1.2,1.2,0,0,0-.844.337l-.052-.273H9.065V11.24l1.078-.234V9.786a1.2,1.2,0,0,0,.766.272c.779,0,1.48-.623,1.48-2C12.376,6.812,11.662,6.124,10.909,6.124Zm-.26,2.986h0a.657.657,0,0,1-.506-.194V7.305a.648.648,0,0,1,.519-.208c.39,0,.662.442.662,1.013S11.039,9.11,10.649,9.11Z"/><polygon points="7.558 5.877 8.649 5.643 8.649 4.76 7.558 4.994 7.558 5.877"/></g></svg>