<svg xmlns="http://www.w3.org/2000/svg" viewBox="0 0 16 16"><title>stripe</title><g id="Layer_1" data-name="Layer 1"><path d="M4.23,5.27l-1.06.22V9a1.1,1.1,0,0,0,1.06,1.12h.06A1.73,1.73,0,0,0,5,9.93V9.05c-.14,0-.82.26-.82-.39V7.12H5V6.2H4.21Z"/><path d="M1.3,7.31c0-.17.14-.24.36-.24a2.69,2.69,0,0,1,1.08.27v-1a2.62,2.62,0,0,0-1.08-.19C.79,6.12.21,6.59.21,7.36c0,1.19,1.65,1,1.65,1.52,0,.19-.17.26-.42.26A2.88,2.88,0,0,1,.26,8.79v1a3,3,0,0,0,1.18.25c.9,0,1.52-.44,1.52-1.22C3,7.55,1.3,7.79,1.3,7.31Z"/><path d="M6.39,6.53,6.32,6.2H5.39V10H6.47V7.42a.74.74,0,0,1,.82-.22v-1A.74.74,0,0,0,6.39,6.53Z"/><path d="M15.79,8.11c0-1.1-.53-2-1.56-2a1.76,1.76,0,0,0-1.65,2,1.73,1.73,0,0,0,1.8,2,2.36,2.36,0,0,0,1.19-.29V8.92a2.25,2.25,0,0,1-1.06.23c-.42,0-.8-.14-.85-.66h2.13C15.78,8.44,15.79,8.21,15.79,8.11Zm-2.14-.42c0-.49.3-.68.57-.68s.55.2.55.68Z"/><rect x="7.56" y="6.2" width="1.09" height="3.79"/><path d="M10.91,6.12a1.24,1.24,0,0,0-.85.34L10,6.19H9.06v5.05L10.14,11V9.79a1.23,1.23,0,0,0,.77.27c.78,0,1.48-.63,1.48-2S11.66,6.12,10.91,6.12Zm-.26,3h0a.66.66,0,0,1-.51-.19V7.31a.62.62,0,0,1,.52-.21c.39,0,.66.44.66,1S11,9.11,10.65,9.11Z"/><polygon points="7.56 5.88 8.65 5.64 8.65 4.76 7.56 4.99 7.56 5.88"/></g></svg>