<svg xmlns="http://www.w3.org/2000/svg" viewBox="0 0 16 16"><title>upload</title><g id="Layer_1" data-name="Layer 1"><path d="M14.58,7.6H12.47a1.22,1.22,0,0,0-1.12.72l-1,2.07-4.74,0-1-2A1.23,1.23,0,0,0,3.53,7.6H1.42A1.19,1.19,0,0,0,.23,8.8v5.09a1.89,1.89,0,0,0,1.88,1.9H13.89a1.89,1.89,0,0,0,1.88-1.9V8.8A1.19,1.19,0,0,0,14.58,7.6Zm-.1,6.29a.6.6,0,0,1-.59.61H2.11a.6.6,0,0,1-.59-.61v-5h2l1,2a1.29,1.29,0,0,0,1.18.78h4.74a1.27,1.27,0,0,0,1.16-.76l.93-2h2Z"/><path d="M4.45,5.14A.76.76,0,0,0,5,4.94L7.36,2.7V8A.76.76,0,1,0,8.87,8V2.7l2.38,2.22a.75.75,0,0,0,1.06,0,.76.76,0,0,0,0-1.07L8.63.41,8.51.34A.29.29,0,0,0,8.39.27.58.58,0,0,0,8.13.21h0a.71.71,0,0,0-.28.06.37.37,0,0,0-.12.07A.67.67,0,0,0,7.6.41L3.93,3.83a.76.76,0,0,0,.52,1.31Z"/></g></svg>