<svg id="Layer_1" data-name="Layer 1" xmlns="http://www.w3.org/2000/svg" xmlns:xlink="http://www.w3.org/1999/xlink" viewBox="0 0 32 32"><defs><linearGradient id="linear-gradient" x1="16" y1="-0.8" x2="16" y2="34.75" gradientUnits="userSpaceOnUse"><stop offset="0" stop-color="#1a6bfe"/><stop offset="0.65" stop-color="#1d5ae1"/><stop offset="1" stop-color="#1a56e3"/></linearGradient><linearGradient id="linear-gradient-2" x1="16" y1="-0.8" x2="16" y2="34.75" xlink:href="#linear-gradient"/></defs><title>color-planning-center-mark</title><path d="M20.81,12.71,17.2,13.87a4.11,4.11,0,0,1-2.38,0L11.18,12.8a.3.3,0,0,0-.39.29V17.5a.31.31,0,0,0,.22.29l4.43,1.33a1.81,1.81,0,0,0,1.08,0L21,17.68a.3.3,0,0,0,.21-.29V13A.31.31,0,0,0,20.81,12.71Z" fill="url(#linear-gradient)"/><path d="M28.21,3.24,18.58.38a8.89,8.89,0,0,0-5.16,0L3.79,3.24A5.19,5.19,0,0,0,.16,8.19V23.81a5.19,5.19,0,0,0,3.63,5l9.63,2.86a8.89,8.89,0,0,0,5.16,0l9.63-2.86a5.19,5.19,0,0,0,3.63-5V8.19A5.19,5.19,0,0,0,28.21,3.24ZM24.42,18.39a2.27,2.27,0,0,1-1.62,2.18l-5.63,1.68a4,4,0,0,1-2.31,0l-3.79-1.14a.22.22,0,0,0-.28.21v2.56a.81.81,0,0,1-1,.78l-1.59-.48a.79.79,0,0,1-.58-.77V11.5A2.27,2.27,0,0,1,10.5,9.32l4.95,1.45a1.82,1.82,0,0,0,1.06,0l4.95-1.55a2.28,2.28,0,0,1,3,2.17Z" fill="url(#linear-gradient-2)"/></svg>