<svg id="Layer_1" data-name="Layer 1" xmlns="http://www.w3.org/2000/svg" viewBox="0 0 32 32"><title>light-planning-center-mark</title><path d="M28.21,3.24,18.58.38a8.89,8.89,0,0,0-5.16,0L3.79,3.24A5.19,5.19,0,0,0,.16,8.19V23.81a5.19,5.19,0,0,0,3.63,5l9.63,2.86a8.89,8.89,0,0,0,5.16,0l9.63-2.86a5.19,5.19,0,0,0,3.63-5V8.19A5.19,5.19,0,0,0,28.21,3.24ZM24.47,18.39a2.35,2.35,0,0,1-1.66,2.23L17.19,22.3a4.15,4.15,0,0,1-2.35,0l-3.79-1.14h0c-.12,0-.19.07-.19.16v2.56a.86.86,0,0,1-.86.86.67.67,0,0,1-.24,0l-1.6-.47a.86.86,0,0,1-.61-.82V11.5A2.33,2.33,0,0,1,9.85,9.17a2.45,2.45,0,0,1,.66.1l5,1.45a1.81,1.81,0,0,0,.51.08,1.89,1.89,0,0,0,.53-.08l4.95-1.55a2.09,2.09,0,0,1,.7-.11,2.32,2.32,0,0,1,2.32,2.32Z" fill="#f5f6f8"/><path d="M20.81,12.71,17.2,13.87a4.11,4.11,0,0,1-2.38,0L11.18,12.8a.3.3,0,0,0-.39.29V17.5a.31.31,0,0,0,.22.29l4.43,1.33a1.81,1.81,0,0,0,1.08,0L21,17.68a.3.3,0,0,0,.21-.29V13A.31.31,0,0,0,20.81,12.71Z" fill="#f5f6f8"/></svg>