<svg id="Layer_1" data-name="Layer 1" xmlns="http://www.w3.org/2000/svg" viewBox="0 0 32 32">
  <title>planning-center-mark</title>
  <g>
    <path d="M20.653,12.714l-3.608,1.153a4.044,4.044,0,0,1-2.386.021L11.025,12.8a.306.306,0,0,0-.393.293l0,4.407a.3.3,0,0,0,.217.292l4.435,1.331a1.826,1.826,0,0,0,1.083-.01l4.474-1.427a.307.307,0,0,0,.212-.291V13.005A.306.306,0,0,0,20.653,12.714Z"/>
    <path d="M28.047,3.238,18.423.376a9.063,9.063,0,0,0-5.165,0L3.634,3.238A5.191,5.191,0,0,0,0,8.19V23.81a5.191,5.191,0,0,0,3.634,4.952l9.624,2.862a9.063,9.063,0,0,0,5.165,0l9.624-2.862a5.191,5.191,0,0,0,3.634-4.952V8.19A5.191,5.191,0,0,0,28.047,3.238ZM24.261,18.39a2.276,2.276,0,0,1-1.624,2.18l-5.625,1.681a4.042,4.042,0,0,1-2.314,0l-3.791-1.137a.216.216,0,0,0-.278.207v2.562a.808.808,0,0,1-1.038.775L8,24.184a.809.809,0,0,1-.578-.775l0-11.91A2.275,2.275,0,0,1,10.34,9.317l4.952,1.455a1.833,1.833,0,0,0,1.063-.009l4.951-1.55a2.275,2.275,0,0,1,2.955,2.171Z"/>
  </g>
</svg>
