<svg id="Layer_1" data-name="Layer 1" xmlns="http://www.w3.org/2000/svg" viewBox="0 0 16 16">
  <title>anonymous</title>
  <path d="M12.516,12.136c-2.093-.762-2.761-1.4-2.761-2.783,0-.826.638-.556.919-2.07.116-.629.681-.011.789-1.444,0-.572-.308-.714-.308-.714s.156-.846.217-1.5C11.448,2.818,10.9.723,8,.723s-3.449,2.1-3.372,2.906c.061.65.217,1.5.217,1.5s-.308.142-.308.714c.108,1.433.672.815.789,1.444.281,1.514.919,1.244.919,2.07,0,1.378-.668,2.021-2.761,2.783S.022,13.681.022,14.213V16H15.978V14.213C15.978,13.681,14.615,12.9,12.516,12.136Zm-3.91-2.83A.865.865,0,0,1,7.391,8.077.818.818,0,0,1,8,7.836a.827.827,0,0,1,.61.241.816.816,0,0,1,.247.613A.824.824,0,0,1,8.606,9.306Zm.729-3.877a3.986,3.986,0,0,0-.4.485,2.454,2.454,0,0,0-.286.537.943.943,0,0,0-.055.54H7.443a1.372,1.372,0,0,1,.021-.629,2.35,2.35,0,0,1,.25-.6,3.362,3.362,0,0,1,.376-.509c.14-.156.274-.312.4-.461A3.283,3.283,0,0,0,8.8,4.343a.937.937,0,0,0,.125-.47.861.861,0,0,0-.244-.638A.931.931,0,0,0,8,3a1.359,1.359,0,0,0-.638.152,2.133,2.133,0,0,0-.534.418L6.1,2.919a2.929,2.929,0,0,1,.867-.687A2.33,2.33,0,0,1,8.1,1.96a2.95,2.95,0,0,1,.845.117,1.916,1.916,0,0,1,.672.347A1.542,1.542,0,0,1,10.052,3a1.916,1.916,0,0,1,.153.79,1.466,1.466,0,0,1-.131.631,2.86,2.86,0,0,1-.324.531A5.58,5.58,0,0,1,9.335,5.429Z"/>
</svg>
