<svg width="16" height="16" viewBox="0 0 16 16" fill="none" xmlns="http://www.w3.org/2000/svg">
<path d="M12.5285 11.7752C10.4297 11.0131 9.75984 10.375 9.75984 8.99168C9.75984 8.16552 10.3996 8.43557 10.6814 6.92127C10.7977 6.29215 11.3643 6.91027 11.4726 5.47699C11.4726 4.90488 11.1637 4.76285 11.1637 4.76285C11.1637 4.76285 11.3201 3.91668 11.3813 3.26256C11.4575 2.4554 10.908 0.359985 8 0.359985C5.092 0.359985 4.54149 2.4604 4.6187 3.26656C4.67987 3.91668 4.8363 4.76685 4.8363 4.76685C4.8363 4.76685 4.52745 4.90888 4.52745 5.48099C4.63575 6.91427 5.2013 6.29615 5.31863 6.92527C5.6004 8.43957 6.24016 8.16952 6.24016 8.99568C6.24016 10.374 5.57032 11.0171 3.47155 11.7792C1.37278 12.5414 0 13.3205 0 13.8526V15.64H16V13.8526C16 13.3205 14.6332 12.5394 12.5285 11.7752ZM8.60767 8.94467C8.44195 9.09379 8.22498 9.17346 8.00188 9.16711C7.77878 9.16075 7.56672 9.06886 7.40981 8.91054C7.2529 8.75223 7.16321 8.53967 7.15939 8.31708C7.15557 8.09449 7.23793 7.879 7.38932 7.71543C7.46897 7.63545 7.56433 7.57276 7.66942 7.53128C7.77451 7.4898 7.88705 7.47043 8 7.47438C8.11305 7.47083 8.22563 7.49038 8.33082 7.53184C8.43602 7.57329 8.53159 7.63577 8.61168 7.71543C8.69355 7.79474 8.75788 7.89027 8.80054 7.99586C8.84319 8.10145 8.86323 8.21477 8.85936 8.32855C8.86264 8.44305 8.84195 8.55698 8.79862 8.66307C8.75528 8.76915 8.69025 8.86506 8.60767 8.94467ZM9.33868 5.06691C9.19239 5.21782 9.05827 5.38003 8.93758 5.552C8.82002 5.71848 8.72368 5.8989 8.65079 6.08911C8.57973 6.25986 8.56056 6.44768 8.59564 6.62922H7.44146C7.39952 6.42071 7.40673 6.20534 7.46252 6.00009C7.51781 5.78944 7.60218 5.58747 7.71321 5.39997C7.82256 5.21883 7.9488 5.04837 8.09025 4.89087C8.23063 4.73484 8.365 4.57881 8.49135 4.42978C8.60728 4.28895 8.71126 4.13874 8.80221 3.9807C8.88474 3.83773 8.92798 3.67557 8.92755 3.5106C8.93257 3.39322 8.91345 3.27605 8.87137 3.1663C8.82929 3.05656 8.76515 2.95657 8.68288 2.87248C8.59042 2.79002 8.4824 2.72676 8.36516 2.6864C8.24791 2.64605 8.12377 2.6294 8 2.63743C7.7775 2.63525 7.55785 2.68745 7.36024 2.78946C7.16054 2.89945 6.97977 3.04059 6.82477 3.20754L6.09476 2.55642C6.33817 2.27437 6.63323 2.04117 6.96415 1.86928C7.31365 1.68409 7.70458 1.59047 8.10028 1.59723C8.38691 1.59508 8.67234 1.6345 8.94761 1.71425C9.19311 1.78413 9.42219 1.90212 9.62146 2.06132C9.81051 2.21623 9.96 2.41368 10.0577 2.63743C10.1643 2.88702 10.2166 3.15634 10.2111 3.42759C10.2148 3.64508 10.1699 3.86066 10.0797 4.05871C9.9911 4.247 9.88216 4.42509 9.75483 4.58982C9.62526 4.75656 9.48633 4.91585 9.33868 5.06691Z" fill="black"/>
</svg>
