<svg width="16" height="16" viewBox="0 0 16 16" fill="none" xmlns="http://www.w3.org/2000/svg">
<path d="M14.7006 7.28239L10.7516 3.16167C10.6626 3.06251 10.5554 2.98304 10.4364 2.92798C10.3174 2.87293 10.189 2.84341 10.0588 2.84119C9.92869 2.83897 9.79945 2.86409 9.67878 2.91505C9.55812 2.96601 9.4485 3.04178 9.35643 3.13786C9.26436 3.23394 9.19172 3.34836 9.14283 3.47432C9.09393 3.60029 9.06979 3.73524 9.07182 3.87114C9.07385 4.00705 9.10202 4.14114 9.15466 4.26545C9.20729 4.38976 9.28332 4.50176 9.37821 4.59479L11.6648 6.98365H7.30867C6.15516 6.98199 5.04935 6.50274 4.23369 5.65098C3.41804 4.79922 2.9591 3.64447 2.95751 2.4399V1.06424C2.95751 0.795241 2.85519 0.537263 2.67304 0.347054C2.49089 0.156846 2.24385 0.0499878 1.98626 0.0499878C1.72866 0.0499878 1.48162 0.156846 1.29947 0.347054C1.11733 0.537263 1.015 0.795241 1.015 1.06424V2.44199C1.01622 3.55336 1.28748 4.64624 1.80339 5.6183C2.31929 6.59037 3.06296 7.40984 3.96478 7.99999C3.06291 8.58983 2.31917 9.40908 1.80325 10.381C1.28733 11.3529 1.01611 12.4457 1.015 13.5569V14.9357C1.015 15.2047 1.11733 15.4627 1.29947 15.6529C1.48162 15.8431 1.72866 15.95 1.98626 15.95C2.24385 15.95 2.49089 15.8431 2.67304 15.6529C2.85519 15.4627 2.95751 15.2047 2.95751 14.9357V13.5569C2.95884 12.3524 3.41772 11.1976 4.23346 10.3459C5.0492 9.49427 6.15517 9.01534 7.30867 9.01424H11.6648L9.37821 11.4021C9.19596 11.5922 9.09352 11.8502 9.09343 12.1193C9.09334 12.3883 9.1956 12.6464 9.37772 12.8367C9.55983 13.0271 9.80689 13.134 10.0645 13.1341C10.3222 13.1342 10.5693 13.0274 10.7516 12.8373L14.7006 8.71654C14.8827 8.52634 14.985 8.26841 14.985 7.99947C14.985 7.73052 14.8827 7.47259 14.7006 7.28239Z" fill="black"/>
</svg>
