<svg id="Layer_1" data-name="Layer 1" xmlns="http://www.w3.org/2000/svg" viewBox="0 0 16 16"><title>bank-pending</title><polygon points="12.557 11.179 12.557 9.476 11.572 9.476 11.572 11.783 13.063 12.452 13.507 11.588 12.557 11.179"/><path d="M12.117,7.435a3.915,3.915,0,1,0,3.915,3.915A3.915,3.915,0,0,0,12.117,7.435Zm0,6.7A2.784,2.784,0,1,1,14.9,11.35,2.784,2.784,0,0,1,12.117,14.134Z"/><path d="M7.867,6.441a1.975,1.975,0,0,0-.59,3.861,4.86,4.86,0,0,1,.468-1.236A.663.663,0,0,1,7.2,8.42a.672.672,0,0,1,.671-.67.649.649,0,0,1,.559.325,4.925,4.925,0,0,1,.984-.867A1.959,1.959,0,0,0,7.867,6.441ZM3.886,5.954v4.933H5.152V5.954Zm-1.833,0v4.933H3.318V5.954ZM1.6,12.72H7.377a4.872,4.872,0,0,1-.206-1.266H1.6ZM15.649,5.063,7.941.35a.171.171,0,0,0-.182,0L.083,5.063a.175.175,0,0,0,.092.324H15.558a.175.175,0,0,0,.091-.324ZM3.817,4.121,7.85,1.844l4.034,2.277Zm6.754,2.544a4.921,4.921,0,0,1,1.267-.243V5.946H10.571ZM.359,13.287v1.266H8.367a4.916,4.916,0,0,1-.811-1.266ZM12.4,6.423a4.922,4.922,0,0,1,1.267.245V5.946H12.4Z"/></svg>