<svg id="Layer_1" data-name="Layer 1" xmlns="http://www.w3.org/2000/svg" viewBox="0 0 16 16">
  <title>batches-group</title>
  <path d="M14.257,5.318V5.039a.73.73,0,0,0-.73-.731H2.4a.73.73,0,0,0-.73.731v6.908a.73.73,0,0,0,.73.73h.254V6.645A1.328,1.328,0,0,1,3.981,5.318Zm.851.6H3.981a.731.731,0,0,0-.731.731v6.908a.73.73,0,0,0,.731.73H15.108a.73.73,0,0,0,.73-.73V6.645A.73.73,0,0,0,15.108,5.914ZM8.458,7.561a.743.743,0,0,1,1,.081l.1.1.1-.1a.732.732,0,1,1,1.055,1.014l-.126.129-.945.961a.112.112,0,0,1-.162,0L8.4,8.656A.747.747,0,0,1,8.458,7.561ZM15,13.277a.438.438,0,0,1-.615-.055l-2.053-2.456L9.816,12.953a.435.435,0,0,1-.574,0l-2.5-2.175L4.7,13.222a.437.437,0,0,1-.671-.561L6.084,10.2,4.391,8.73a.437.437,0,0,1,.574-.659L9.53,12.044l4.647-4.035a.437.437,0,1,1,.574.659L13,10.193l2.063,2.468A.437.437,0,0,1,15,13.277ZM12.667,3.728v-.28a.73.73,0,0,0-.73-.73H.81a.73.73,0,0,0-.731.73v6.908a.73.73,0,0,0,.731.73h.254V5.054A1.328,1.328,0,0,1,2.39,3.728Z" fill="#231f20"/>
</svg>
