<svg width="16" height="16" viewBox="0 0 16 16" fill="none" xmlns="http://www.w3.org/2000/svg">
<path d="M8.20197 5.63533L7.997 5.84439L7.79202 5.63533C7.65293 5.48222 7.48455 5.35857 7.29686 5.27169C7.10916 5.18482 6.90596 5.13647 6.69926 5.12953C6.49257 5.12258 6.28658 5.15717 6.09348 5.23125C5.90038 5.30533 5.72409 5.4174 5.57504 5.56083C5.42599 5.70425 5.3072 5.87612 5.2257 6.06628C5.1442 6.25643 5.10164 6.461 5.10055 6.66789C5.09946 6.87478 5.13984 7.07979 5.21933 7.2708C5.29881 7.4618 5.41578 7.63492 5.5633 7.77992L5.82927 8.05199L7.82902 10.0845C7.85129 10.1075 7.87795 10.1258 7.9074 10.1382C7.93686 10.1507 7.96851 10.1571 8.0005 10.1571C8.03248 10.1571 8.06414 10.1507 8.09359 10.1382C8.12305 10.1258 8.1497 10.1075 8.17198 10.0845L10.4347 7.78392C10.7195 7.48772 10.875 7.09047 10.8671 6.67956C10.8591 6.26865 10.6883 5.87774 10.3922 5.59282C10.0961 5.3079 9.69903 5.15231 9.28828 5.16028C8.87754 5.16826 8.48678 5.33914 8.20197 5.63533ZM15.2011 5.94641L13.4433 4.75309L13.4483 3.80383C13.4436 3.39386 13.2763 3.00256 12.9832 2.71594C12.6902 2.42933 12.2953 2.27088 11.8855 2.27541H10.8996L9.29383 1.23413C8.92946 0.948117 8.48014 0.791833 8.01699 0.790009H7.992C7.52748 0.790942 7.07662 0.947275 6.71116 1.23413L5.40332 2.27541H3.84852C3.64552 2.27304 3.44404 2.31068 3.25558 2.38621C3.06712 2.46174 2.89539 2.57366 2.75017 2.71559C2.60495 2.85752 2.48911 3.02667 2.40925 3.21339C2.32938 3.40012 2.28707 3.60075 2.28472 3.80383L2.27372 4.76409L0.674921 6.01543C0.492045 6.12816 0.340959 6.28571 0.235975 6.47319C0.13099 6.66066 0.0755813 6.87184 0.0749969 7.08673V13.9376C0.0789533 14.2787 0.218063 14.6042 0.461776 14.8428C0.705489 15.0814 1.03388 15.2134 1.37483 15.2099H14.6252C14.9662 15.2131 15.2946 15.0809 15.5383 14.8422C15.782 14.6034 15.921 14.2778 15.925 13.9366V7.08673C15.9236 6.84757 15.8547 6.61367 15.7263 6.41195C15.5978 6.21022 15.4151 6.04885 15.1991 5.94641H15.2011ZM14.8171 13.4165C14.8412 13.473 14.8537 13.5337 14.8539 13.5952C14.8541 13.6566 14.842 13.7174 14.8184 13.7741C14.7947 13.8308 14.7599 13.8822 14.7161 13.9252C14.6723 13.9682 14.6203 14.002 14.5632 14.0246C14.4482 14.0733 14.3188 14.0748 14.2028 14.0288C14.0868 13.9827 13.9935 13.8928 13.9432 13.7786L11.6305 10.9108H4.37945L2.06675 13.7786C2.01646 13.8928 1.92323 13.9827 1.80722 14.0288C1.69121 14.0748 1.56175 14.0733 1.44682 14.0246C1.38981 14.0019 1.33792 13.968 1.29419 13.925C1.25047 13.8819 1.2158 13.8305 1.19223 13.7739C1.16865 13.7172 1.15665 13.6564 1.15693 13.595C1.15721 13.5336 1.16977 13.4729 1.19386 13.4165L3.56356 10.1826L1.22585 8.082C1.18798 8.03473 1.1599 7.98038 1.14326 7.92214C1.12661 7.86389 1.12173 7.80291 1.12889 7.74276C1.13606 7.6826 1.15513 7.62448 1.185 7.57178C1.21487 7.51908 1.25493 7.47286 1.30284 7.43582C1.4016 7.35941 1.52619 7.32441 1.65027 7.33822C1.77436 7.35203 1.88821 7.41358 1.96776 7.50984L3.64455 8.93623V4.17293C3.64533 4.10305 3.65987 4.034 3.68732 3.96974C3.71478 3.90548 3.75463 3.84725 3.80458 3.7984C3.85453 3.74954 3.91361 3.711 3.97846 3.68499C4.0433 3.65898 4.11262 3.646 4.18248 3.64679H11.7975C11.8675 3.64586 11.9369 3.65875 12.0018 3.6847C12.0668 3.71065 12.126 3.74917 12.1761 3.79804C12.2261 3.84691 12.2661 3.90518 12.2936 3.96951C12.3211 4.03384 12.3357 4.10296 12.3364 4.17293V9.05826L14.0362 7.50584C14.1166 7.40758 14.2325 7.34507 14.3588 7.33196C14.485 7.31884 14.6113 7.35618 14.7101 7.43582C14.7588 7.47289 14.7995 7.51938 14.8298 7.57251C14.8601 7.62564 14.8795 7.68433 14.8866 7.74508C14.8938 7.80584 14.8887 7.86742 14.8716 7.92616C14.8545 7.9849 14.8258 8.0396 14.7871 8.087L12.4494 10.2766L14.8171 13.4165Z" fill="black"/>
</svg>
