<svg id="Layer_1" data-name="Layer 1" xmlns="http://www.w3.org/2000/svg" viewBox="0 0 16 16"><title>bill</title><path d="M15.78,1.92a.65.65,0,0,0-.46-.18H.68a.71.71,0,0,0-.49.18A.52.52,0,0,0,0,2.34v10.8a.54.54,0,0,0,.19.43.71.71,0,0,0,.49.18H15.32a.65.65,0,0,0,.46-.18.55.55,0,0,0,.2-.43V2.34A.53.53,0,0,0,15.78,1.92Zm-1,8.26a1.65,1.65,0,0,0-.34,0A2.47,2.47,0,0,0,12,12.55H4a2.47,2.47,0,0,0-2.47-2.4,1.94,1.94,0,0,0-.36,0V5.31a1.94,1.94,0,0,0,.36,0A2.47,2.47,0,0,0,4,2.94H12a2.47,2.47,0,0,0,2.47,2.4,1.65,1.65,0,0,0,.34,0Z"/><path d="M10.33,5a3.36,3.36,0,0,0-1.05-.83A2.92,2.92,0,0,0,8,3.84a2.89,2.89,0,0,0-1.3.3A3.28,3.28,0,0,0,5.62,5a4,4,0,0,0-.7,1.25,4.24,4.24,0,0,0-.26,1.53,4.22,4.22,0,0,0,.26,1.52,4,4,0,0,0,.7,1.25,3.43,3.43,0,0,0,1.06.83,2.89,2.89,0,0,0,1.3.3,2.84,2.84,0,0,0,1.29-.3,3.43,3.43,0,0,0,1.06-.83,4.33,4.33,0,0,0,1-2.77,4.33,4.33,0,0,0-1-2.78Zm-1,4.7H6.68V9.1h.45a.29.29,0,0,0,.3-.33V6.67H6.69V6.1h.17a.82.82,0,0,0,.86-.54H8.6V8.77a.29.29,0,0,0,.3.33h.42Z"/></svg>