<svg id="Layer_1" data-name="Layer 1" xmlns="http://www.w3.org/2000/svg" viewBox="0 0 16 16">
  <path d="M14.06,2.65A.76.76,0,0,0,13,2.476,17.531,17.531,0,0,0,7.975,8.413l-1.8-2.128a.758.758,0,0,0-1.158.979l2.554,3.021c.007.008.017.01.023.018a.783.783,0,0,0,.167.127,1.019,1.019,0,0,0,.091.06l.013.008a.748.748,0,0,0,.284.056h.007a.752.752,0,0,0,.231-.04.651.651,0,0,0,.071-.033.782.782,0,0,0,.148-.086c.011-.008.023-.011.034-.019s.017-.026.029-.037a.767.767,0,0,0,.124-.157.682.682,0,0,0,.041-.068c0-.012.014-.02.018-.031a16.573,16.573,0,0,1,5.033-6.375A.758.758,0,0,0,14.06,2.65Z"/>
  <path d="M15.321,5.764a.758.758,0,0,0-1.449.445A6.106,6.106,0,1,1,10.218,2.3.758.758,0,1,0,10.762.881a7.623,7.623,0,1,0,4.559,4.883Z"/>
</svg>
