<svg id="Layer_1" data-name="Layer 1" xmlns="http://www.w3.org/2000/svg" viewBox="0 0 16 16"><title>check</title><rect x="3.358" y="8.971" width="2.56" height="0.995"/><rect x="3.358" y="6.907" width="7.919" height="0.995"/><rect x="3.358" y="4.934" width="3.731" height="0.995"/><rect x="6.696" y="8.971" width="2.56" height="0.995"/><polygon points="10.188 9.965 11.183 8.971 10.087 8.971 10.087 9.965 10.188 9.965"/><path d="M14.62,11.981H13.581l-1.347,1.35h3.125a.612.612,0,0,0,.611-.611V9.586l-1.35,1.353Z"/><path d="M1.331,3.091H14.62V5.6l1.35-1.339V2.353a.612.612,0,0,0-.611-.612H.593a.612.612,0,0,0-.612.612V12.72a.612.612,0,0,0,.612.611h6.27L8.2,11.981H1.331Z"/><rect x="9.493" y="9.048" width="6.877" height="1.771" transform="translate(-3.236 12.055) rotate(-45.007)"/><polygon points="8.879 12.734 8.933 13.967 10.131 13.986 10.628 13.489 9.376 12.236 8.879 12.734"/></svg>