<svg id="Layer_1" data-name="Layer 1" xmlns="http://www.w3.org/2000/svg" viewBox="0 0 16 16"><title>check-circle-stylized</title><path d="M14.06,2.65A.76.76,0,0,0,13,2.48,17.44,17.44,0,0,0,8,8.41L6.18,6.29A.76.76,0,0,0,5.11,6.2.75.75,0,0,0,5,7.26l2.55,3h0a.7.7,0,0,0,.16.13l.09.06h0a.69.69,0,0,0,.28.05h0a.62.62,0,0,0,.23,0l.07,0,.15-.09,0,0,0,0a.61.61,0,0,0,.12-.16.16.16,0,0,0,0-.07l0,0a16.55,16.55,0,0,1,5-6.37A.76.76,0,0,0,14.06,2.65Z"/><path d="M15.32,5.76a.76.76,0,1,0-1.45.45A6,6,0,0,1,14.14,8,6.12,6.12,0,1,1,10.22,2.3.76.76,0,0,0,10.76.88,7.63,7.63,0,1,0,15.66,8,7.76,7.76,0,0,0,15.32,5.76Z"/></svg>