<svg width="16" height="16" viewBox="0 0 16 16" fill="none" xmlns="http://www.w3.org/2000/svg">
<path d="M14.0287 2.64985C13.9111 2.48627 13.7333 2.37605 13.5345 2.34342C13.3357 2.31078 13.1321 2.3584 12.9684 2.47581C10.8694 4.05399 9.1517 6.08345 7.94206 8.41436L6.14159 6.2858C6.0773 6.20975 5.99865 6.1471 5.91014 6.10144C5.82163 6.05578 5.72499 6.028 5.62574 6.01969C5.42531 6.0029 5.22641 6.06642 5.07281 6.19628C4.91921 6.32614 4.82349 6.51169 4.8067 6.71213C4.78991 6.91256 4.85343 7.11146 4.98329 7.26506L7.53796 10.2868C7.54496 10.2949 7.55496 10.2969 7.56097 10.3049C7.6107 10.3545 7.66688 10.3972 7.72801 10.4319C7.75726 10.4535 7.78764 10.4735 7.81903 10.4919L7.83204 10.4999C7.92218 10.5369 8.01868 10.5559 8.11611 10.5559H8.12311C8.20175 10.5547 8.27972 10.5412 8.35417 10.5159C8.37849 10.5063 8.4022 10.4953 8.42519 10.4829C8.47754 10.4597 8.52718 10.4309 8.57323 10.3969C8.58423 10.3889 8.59624 10.3859 8.60724 10.3779C8.61824 10.3699 8.62424 10.3519 8.63625 10.3409C8.68427 10.2942 8.72597 10.2414 8.76028 10.1838C8.77526 10.162 8.78895 10.1393 8.80129 10.1158C8.80129 10.1038 8.81529 10.0958 8.81929 10.0848C9.9425 7.57457 11.6726 5.3832 13.8536 3.70813C13.9346 3.65016 14.0034 3.57679 14.0561 3.49223C14.1087 3.40766 14.1442 3.31354 14.1604 3.21526C14.1767 3.11698 14.1734 3.01646 14.1508 2.91945C14.1282 2.82243 14.0867 2.73082 14.0287 2.64985Z" fill="black"/>
<path d="M15.29 5.76467C15.2285 5.57551 15.095 5.41812 14.9185 5.32641C14.742 5.23471 14.5365 5.21604 14.3464 5.27444C14.1562 5.33283 13.9967 5.46361 13.902 5.63858C13.8074 5.81355 13.7854 6.01869 13.8406 6.20978C14.2463 7.52999 14.1926 8.94873 13.6881 10.2345C13.1837 11.5202 12.2584 12.597 11.0632 13.2891C9.86801 13.9813 8.47352 14.2479 7.10729 14.0455C5.74107 13.843 4.48379 13.1835 3.54064 12.1746C2.59749 11.1656 2.02417 9.86675 1.91423 8.49C1.80429 7.11324 2.16422 5.73987 2.9353 4.59401C3.70638 3.44816 4.84306 2.59748 6.15984 2.1808C7.47663 1.76413 8.89577 1.80606 10.1857 2.29976C10.2788 2.33549 10.3782 2.35251 10.4779 2.34986C10.5777 2.3472 10.676 2.32492 10.7672 2.28428C10.8583 2.24365 10.9406 2.18545 11.0093 2.11302C11.0779 2.04059 11.1317 1.95534 11.1674 1.86215C11.2031 1.76895 11.2202 1.66963 11.2175 1.56985C11.2148 1.47008 11.1926 1.3718 11.1519 1.28063C11.1113 1.18947 11.0531 1.1072 10.9807 1.03853C10.9082 0.969854 10.823 0.916118 10.7298 0.880389C9.11981 0.263092 7.34814 0.209699 5.70391 0.728924C4.05967 1.24815 2.63997 2.30933 1.67648 3.73929C0.712991 5.16925 0.262613 6.88356 0.398845 8.60243C0.535076 10.3213 1.24987 11.9433 2.42658 13.2036C3.60329 14.4639 5.17244 15.2882 6.87793 15.542C8.58343 15.7957 10.3246 15.4639 11.8172 14.6007C13.3099 13.7375 14.4659 12.3939 15.0966 10.7891C15.7273 9.18434 15.7955 7.41318 15.29 5.76467Z" fill="black"/>
</svg>
