<svg id="Layer_1" data-name="Layer 1" xmlns="http://www.w3.org/2000/svg" viewBox="0 0 16 15.319">
  <title>communication</title>
  <path d="M8,9.34a3.36,3.36,0,0,0,3.36-3.361V4.3A3.183,3.183,0,0,0,8,.937H4.637A3.1,3.1,0,0,0,1.277,4.3,3.132,3.132,0,0,0,4.637,7.66H6.319A1.681,1.681,0,0,1,8,9.34Zm4.193-3.272A4.2,4.2,0,0,1,8,10.181H7.16V9.34a.841.841,0,0,0-.841-.84h-1.6a4.267,4.267,0,0,0-.083.809v1.744A3.36,3.36,0,0,0,8,14.382,1.68,1.68,0,0,1,9.681,12.7H11.36A3.133,3.133,0,0,0,14.723,9.34a3.011,3.011,0,0,0-2.53-3.272Z"/>
</svg>
