<svg width="16" height="16" viewBox="0 0 16 16" fill="none" xmlns="http://www.w3.org/2000/svg">
<path d="M3.16841 6.66406C2.76426 6.66406 2.36919 6.54414 2.03315 6.31947C1.69711 6.0948 1.43521 5.77546 1.28055 5.40185C1.12589 5.02823 1.08542 4.61711 1.16426 4.22048C1.24311 3.82385 1.43773 3.45953 1.7235 3.17357C2.00928 2.88762 2.37338 2.69288 2.76976 2.61399C3.16614 2.53509 3.577 2.57558 3.95038 2.73034C4.32377 2.8851 4.6429 3.14717 4.86744 3.48342C5.09197 3.81966 5.21181 4.21498 5.21181 4.61938C5.21128 5.1615 4.99583 5.68127 4.61273 6.0646C4.22963 6.44794 3.71019 6.66353 3.16841 6.66406ZM3.16841 3.07487C2.86312 3.07487 2.56469 3.16545 2.31086 3.33516C2.05702 3.50488 1.85918 3.7461 1.74235 4.02832C1.62552 4.31054 1.59496 4.62109 1.65451 4.9207C1.71407 5.22031 1.86108 5.49551 2.07695 5.71152C2.29282 5.92752 2.56786 6.07462 2.86727 6.13422C3.16669 6.19381 3.47705 6.16323 3.7591 6.04633C4.04114 5.92943 4.28221 5.73146 4.45182 5.47747C4.62143 5.22347 4.71196 4.92486 4.71196 4.61938C4.71143 4.20991 4.54864 3.81737 4.25928 3.52783C3.96992 3.23829 3.57762 3.07539 3.16841 3.07487Z" fill="black"/>
<path d="M8 13.4323C7.59585 13.4323 7.20078 13.3124 6.86475 13.0877C6.52871 12.8631 6.2668 12.5437 6.11214 12.1701C5.95748 11.7965 5.91701 11.3854 5.99586 10.9887C6.0747 10.5921 6.26932 10.2278 6.5551 9.94183C6.84087 9.65588 7.20497 9.46114 7.60135 9.38225C7.99773 9.30335 8.4086 9.34384 8.78198 9.4986C9.15536 9.65336 9.4745 9.91543 9.69903 10.2517C9.92356 10.5879 10.0434 10.9832 10.0434 11.3876C10.0429 11.9298 9.82742 12.4495 9.44432 12.8329C9.06122 13.2162 8.54178 13.4318 8 13.4323ZM8 9.84312C7.69472 9.84312 7.39629 9.93371 7.14245 10.1034C6.88861 10.2731 6.69077 10.5144 6.57395 10.7966C6.45712 11.0788 6.42655 11.3894 6.48611 11.689C6.54567 11.9886 6.69268 12.2638 6.90855 12.4798C7.12442 12.6958 7.39945 12.8429 7.69887 12.9025C7.99829 12.9621 8.30865 12.9315 8.59069 12.8146C8.87274 12.6977 9.11381 12.4997 9.28342 12.2457C9.45302 11.9917 9.54355 11.6931 9.54355 11.3876C9.54302 10.9782 9.38023 10.5856 9.09087 10.2961C8.80151 10.0065 8.40921 9.84365 8 9.84312Z" fill="black"/>
<path d="M12.8316 9.56503C12.4274 9.56503 12.0324 9.44511 11.6963 9.22044C11.3603 8.99577 11.0984 8.67643 10.9437 8.30281C10.7891 7.9292 10.7486 7.51808 10.8275 7.12145C10.9063 6.72482 11.1009 6.36049 11.3867 6.07454C11.6725 5.78859 12.0366 5.59385 12.4329 5.51495C12.8293 5.43606 13.2402 5.47655 13.6136 5.63131C13.987 5.78607 14.3061 6.04814 14.5306 6.38438C14.7552 6.72063 14.875 7.11595 14.875 7.52035C14.8745 8.06247 14.659 8.58224 14.2759 8.96557C13.8928 9.34891 13.3734 9.5645 12.8316 9.56503ZM12.8316 5.97583C12.5263 5.97583 12.2279 6.06642 11.974 6.23613C11.7202 6.40584 11.5224 6.64707 11.4055 6.92929C11.2887 7.21151 11.2581 7.52206 11.3177 7.82167C11.3773 8.12128 11.5243 8.39648 11.7401 8.61249C11.956 8.82849 12.231 8.97559 12.5305 9.03519C12.8299 9.09478 13.1402 9.0642 13.4223 8.9473C13.7043 8.83039 13.9454 8.63243 14.115 8.37844C14.2846 8.12444 14.3751 7.82583 14.3751 7.52035C14.3746 7.11088 14.2118 6.71833 13.9225 6.4288C13.6331 6.13926 13.2408 5.97636 12.8316 5.97583Z" fill="black"/>
<path d="M3.16841 2.82478C3.42767 2.82571 3.68358 2.88342 3.91819 2.99384V1.26026C3.91819 1.06128 3.83919 0.870452 3.69858 0.729753C3.55797 0.589054 3.36726 0.51001 3.16841 0.51001C2.96955 0.51001 2.77884 0.589054 2.63823 0.729753C2.49762 0.870452 2.41862 1.06128 2.41862 1.26026V2.99384C2.65323 2.88342 2.90914 2.82571 3.16841 2.82478Z" fill="black"/>
<path d="M3.16841 6.41198C2.90914 6.41105 2.65323 6.35335 2.41862 6.24292V14.7368C2.41862 14.9357 2.49762 15.1266 2.63823 15.2673C2.77884 15.408 2.96955 15.487 3.16841 15.487C3.36726 15.487 3.55797 15.408 3.69858 15.2673C3.83919 15.1266 3.91819 14.9357 3.91819 14.7368V6.24492C3.68343 6.35466 3.42752 6.41167 3.16841 6.41198Z" fill="black"/>
<path d="M8 9.59304C8.25926 9.59397 8.51518 9.65167 8.74978 9.7621V1.26026C8.74978 1.06128 8.67079 0.870452 8.53018 0.729753C8.38957 0.589054 8.19886 0.51001 8 0.51001C7.80115 0.51001 7.61044 0.589054 7.46983 0.729753C7.32921 0.870452 7.25022 1.06128 7.25022 1.26026V9.7631C7.48475 9.65233 7.74066 9.59428 8 9.59304Z" fill="black"/>
<path d="M8 13.1822C7.7425 13.1809 7.48837 13.1236 7.25522 13.0142V14.7398C7.25522 14.9387 7.33421 15.1296 7.47482 15.2703C7.61544 15.411 7.80615 15.49 8.005 15.49C8.20385 15.49 8.39456 15.411 8.53518 15.2703C8.67579 15.1296 8.75478 14.9387 8.75478 14.7398V13.0142C8.51857 13.125 8.26087 13.1824 8 13.1822Z" fill="black"/>
<path d="M12.8316 5.72575C13.0909 5.72668 13.3468 5.78438 13.5814 5.89481V1.26026C13.5814 1.06128 13.5024 0.870452 13.3618 0.729753C13.2212 0.589054 13.0304 0.51001 12.8316 0.51001C12.6327 0.51001 12.442 0.589054 12.3014 0.729753C12.1608 0.870452 12.0818 1.06128 12.0818 1.26026V5.89481C12.3164 5.78438 12.5723 5.72668 12.8316 5.72575Z" fill="black"/>
<path d="M12.8316 9.31295C12.5723 9.31202 12.3164 9.25431 12.0818 9.14389V14.7368C12.0818 14.9357 12.1608 15.1266 12.3014 15.2673C12.442 15.408 12.6327 15.487 12.8316 15.487C13.0304 15.487 13.2212 15.408 13.3618 15.2673C13.5024 15.1266 13.5814 14.9357 13.5814 14.7368V9.14589C13.3466 9.25562 13.0907 9.31264 12.8316 9.31295Z" fill="black"/>
</svg>
