<svg width="16" height="16" viewBox="0 0 16 16" fill="none" xmlns="http://www.w3.org/2000/svg">
<path d="M8.19985 6.34707L7.994 6.55311L7.78716 6.34707C7.64832 6.18766 7.4786 6.05813 7.28828 5.96632C7.09795 5.8745 6.89098 5.82233 6.67992 5.81294C6.46885 5.80356 6.25808 5.83716 6.06037 5.91172C5.86266 5.98628 5.68214 6.10024 5.52973 6.2467C5.37732 6.39316 5.2562 6.56906 5.17371 6.76376C5.09122 6.95845 5.04908 7.16788 5.04984 7.37936C5.0506 7.59084 5.09425 7.79996 5.17813 7.99405C5.26202 8.18815 5.3844 8.36318 5.53785 8.50853L5.80665 8.78259L7.82014 10.835C7.84274 10.8581 7.86972 10.8764 7.89949 10.889C7.92926 10.9015 7.96122 10.9079 7.99351 10.9079C8.02579 10.9079 8.05776 10.9015 8.08752 10.889C8.11729 10.8764 8.14427 10.8581 8.16687 10.835L10.4492 8.50853C10.6026 8.36318 10.725 8.18815 10.8089 7.99405C10.8928 7.79996 10.9364 7.59084 10.9372 7.37936C10.9379 7.16788 10.8958 6.95845 10.8133 6.76376C10.7308 6.56906 10.6097 6.39316 10.4573 6.2467C10.3049 6.10024 10.1243 5.98628 9.92664 5.91172C9.72893 5.83716 9.51816 5.80356 9.30709 5.81294C9.09603 5.82233 8.88906 5.8745 8.69873 5.96632C8.50841 6.05813 8.33869 6.18766 8.19985 6.34707ZM15.8001 2.3462C15.6723 2.23322 15.5069 2.17221 15.3365 2.17516H0.676512C0.501977 2.17127 0.332182 2.2322 0.199871 2.3462C0.137821 2.3946 0.0875832 2.45649 0.0529591 2.52719C0.0183351 2.59789 0.000232553 2.67555 2.16873e-05 2.75429V13.2326C-0.000706356 13.3133 0.0169048 13.3932 0.0515254 13.4661C0.086146 13.5391 0.136871 13.6032 0.199871 13.6537C0.333469 13.7688 0.505265 13.8298 0.681509 13.8247H15.3365C15.5069 13.8276 15.6723 13.7666 15.8001 13.6537C15.8631 13.6032 15.9139 13.5391 15.9485 13.4661C15.9831 13.3932 16.0007 13.3133 16 13.2326V2.75429C15.9998 2.67555 15.9817 2.59789 15.947 2.52719C15.9124 2.45649 15.8622 2.3946 15.8001 2.3462ZM14.5531 10.0339C14.1966 10.0314 13.8426 10.0945 13.5089 10.2199C13.1994 10.3333 12.9135 10.5028 12.6655 10.72C12.4313 10.9282 12.2387 11.1791 12.0979 11.4592C11.9538 11.7394 11.8791 12.0502 11.8801 12.3654H4.11492C4.11585 12.0507 4.04258 11.7402 3.90109 11.4592C3.7623 11.1776 3.56904 10.9263 3.33251 10.72C3.0828 10.5036 2.79607 10.3342 2.48615 10.2199C2.15499 10.0951 1.80379 10.032 1.44993 10.0339V5.94698C1.80379 5.94882 2.15499 5.88576 2.48615 5.76094C2.79607 5.64664 3.0828 5.47722 3.33251 5.26083C3.56697 5.05514 3.75879 4.80536 3.89709 4.52567C4.03874 4.24435 4.11201 3.93351 4.11093 3.61848H11.8761C11.8749 3.93399 11.9496 4.24515 12.0939 4.52567C12.235 4.80561 12.4275 5.05639 12.6615 5.26483C12.9104 5.48228 13.1974 5.65183 13.5079 5.76494C13.8408 5.88958 14.1936 5.95262 14.5491 5.95098L14.5531 10.0339Z" fill="black"/>
</svg>
