<svg width="16" height="16" viewBox="0 0 16 16" fill="none" xmlns="http://www.w3.org/2000/svg">
<path d="M8.04099 2.04489C9.22016 2.03856 10.3747 2.38243 11.3582 3.03293C12.3417 3.68344 13.11 4.61129 13.5656 5.69888C14.0213 6.78648 14.1438 7.98487 13.9176 9.14217C13.6915 10.2995 13.1268 11.3636 12.2953 12.1996C11.4637 13.0357 10.4027 13.606 9.2466 13.8384C8.09055 14.0708 6.89152 13.9548 5.80148 13.505C4.71145 13.0552 3.77947 12.2919 3.12368 11.3119C2.46789 10.3319 2.1178 9.17929 2.11779 8.0001C2.11539 6.42549 2.73765 4.91421 3.84807 3.79779C4.95849 2.68138 6.46639 2.05098 8.04099 2.04489ZM8.04099 0.460103C6.548 0.451986 5.08621 0.88729 3.84089 1.71085C2.59556 2.5344 1.62277 3.70913 1.04579 5.08615C0.468817 6.46317 0.313639 7.98049 0.599925 9.44579C0.886211 10.9111 1.60107 12.2584 2.65391 13.317C3.70674 14.3756 5.05015 15.0978 6.51387 15.3921C7.9776 15.6864 9.49573 15.5394 10.8759 14.97C12.256 14.4005 13.436 13.4341 14.2664 12.1933C15.0967 10.9525 15.54 9.49311 15.54 8.0001C15.5453 6.00584 14.7582 4.09114 13.3519 2.67715C11.9456 1.26315 10.0352 0.465664 8.04099 0.460103Z" fill="black"/>
<path d="M4.04153 6.25533L7.66704 8.0151C7.74008 8.04549 7.8184 8.06113 7.89751 8.06113C7.97662 8.06113 8.05494 8.04549 8.12798 8.0151L12.0405 6.08136C12.0743 6.06479 12.1027 6.03902 12.1225 6.007C12.1423 5.97499 12.1527 5.93803 12.1524 5.90038C12.1522 5.75124 12.093 5.60826 11.9877 5.50262C11.8824 5.39698 11.7396 5.33725 11.5905 5.33645H4.49947C4.34821 5.33725 4.20341 5.39782 4.09664 5.50496C3.98987 5.6121 3.92981 5.75712 3.92954 5.90838V6.07436C3.92928 6.11201 3.93965 6.14896 3.95946 6.18098C3.97927 6.213 4.00772 6.23877 4.04153 6.25533ZM11.7865 7.09822L8.48693 8.732C8.30579 8.81386 8.10929 8.85619 7.91051 8.85619C7.71173 8.85619 7.51523 8.81386 7.33408 8.732L4.29149 7.2642C4.25298 7.24551 4.21035 7.23695 4.16761 7.23931C4.12487 7.24167 4.08344 7.25488 4.04722 7.27769C4.01101 7.3005 3.9812 7.33216 3.96061 7.36969C3.94002 7.40721 3.92933 7.44937 3.92954 7.49217V10.1138C3.9298 10.2592 3.98755 10.3987 4.0902 10.5017C4.19284 10.6047 4.33205 10.663 4.47747 10.6637H11.5405C11.7023 10.6627 11.8571 10.5978 11.9713 10.4832C12.0855 10.3687 12.1499 10.2136 12.1504 10.0518V7.32619C12.15 7.28366 12.1389 7.24191 12.1181 7.20481C12.0973 7.1677 12.0675 7.13644 12.0314 7.11392C11.9954 7.09139 11.9542 7.07833 11.9117 7.07594C11.8693 7.07354 11.8269 7.08189 11.7885 7.10022L11.7865 7.09822Z" fill="black"/>
</svg>
