<svg width="16" height="16" viewBox="0 0 16 16" fill="none" xmlns="http://www.w3.org/2000/svg">
<path d="M8.04099 2.04491C9.22016 2.03857 10.3747 2.38245 11.3582 3.03295C12.3417 3.68345 13.11 4.6113 13.5656 5.6989C14.0213 6.7865 14.1438 7.98489 13.9176 9.14218C13.6915 10.2995 13.1268 11.3636 12.2953 12.1996C11.4637 13.0357 10.4027 13.6061 9.2466 13.8384C8.09055 14.0708 6.89152 13.9548 5.80148 13.505C4.71145 13.0552 3.77947 12.292 3.12368 11.312C2.46789 10.3319 2.1178 9.1793 2.11779 8.00012C2.11539 6.4255 2.73765 4.91423 3.84807 3.79781C4.95849 2.68139 6.46639 2.051 8.04099 2.04491ZM8.04099 0.460118C6.548 0.452001 5.08621 0.887305 3.84089 1.71086C2.59556 2.53442 1.62277 3.70915 1.04579 5.08617C0.468817 6.46318 0.313639 7.9805 0.599925 9.44581C0.886211 10.9111 1.60107 12.2584 2.65391 13.317C3.70674 14.3756 5.05015 15.0978 6.51387 15.3921C7.9776 15.6864 9.49573 15.5395 10.8759 14.97C12.256 14.4005 13.436 13.4342 14.2664 12.1933C15.0967 10.9525 15.54 9.49313 15.54 8.00012C15.5453 6.00586 14.7582 4.09116 13.3519 2.67716C11.9456 1.26316 10.0352 0.465679 8.04099 0.460118Z" fill="black"/>
<path d="M4.04153 6.25535L7.66704 8.01511C7.74008 8.04551 7.8184 8.06115 7.89751 8.06115C7.97662 8.06115 8.05494 8.04551 8.12798 8.01511L12.0405 6.08137C12.0743 6.06481 12.1027 6.03903 12.1225 6.00702C12.1423 5.975 12.1527 5.93804 12.1524 5.9004C12.1522 5.75126 12.093 5.60828 11.9877 5.50264C11.8824 5.39699 11.7396 5.33726 11.5905 5.33647H4.49947C4.34821 5.33726 4.20341 5.39784 4.09664 5.50498C3.98987 5.61212 3.92981 5.75714 3.92954 5.90839V6.07437C3.92928 6.11202 3.93965 6.14898 3.95946 6.18099C3.97927 6.21301 4.00772 6.23878 4.04153 6.25535ZM11.7865 7.09824L8.48693 8.73202C8.30579 8.81387 8.10929 8.85621 7.91051 8.85621C7.71173 8.85621 7.51523 8.81387 7.33408 8.73202L4.29149 7.26421C4.25298 7.24553 4.21035 7.23696 4.16761 7.23932C4.12487 7.24168 4.08344 7.25489 4.04722 7.2777C4.01101 7.30052 3.9812 7.33218 3.96061 7.3697C3.94002 7.40723 3.92933 7.44938 3.92954 7.49218V10.1138C3.9298 10.2593 3.98755 10.3987 4.0902 10.5017C4.19284 10.6047 4.33205 10.663 4.47747 10.6638H11.5405C11.7023 10.6627 11.8571 10.5978 11.9713 10.4833C12.0855 10.3687 12.1499 10.2136 12.1504 10.0518V7.32621C12.15 7.28367 12.1389 7.24193 12.1181 7.20482C12.0973 7.16772 12.0675 7.13646 12.0314 7.11393C11.9954 7.09141 11.9542 7.07835 11.9117 7.07595C11.8693 7.07356 11.8269 7.08191 11.7885 7.10024L11.7865 7.09824Z" fill="black"/>
</svg>
