<svg width="16" height="16" viewBox="0 0 16 16" fill="none" xmlns="http://www.w3.org/2000/svg">
<path d="M8.04099 2.04492C9.22016 2.03859 10.3747 2.38246 11.3582 3.03297C12.3417 3.68347 13.11 4.61132 13.5656 5.69891C14.0213 6.78651 14.1438 7.9849 13.9176 9.1422C13.6915 10.2995 13.1268 11.3636 12.2953 12.1997C11.4637 13.0357 10.4027 13.6061 9.2466 13.8385C8.09055 14.0709 6.89152 13.9548 5.80148 13.505C4.71145 13.0552 3.77947 12.292 3.12368 11.312C2.46789 10.332 2.1178 9.17932 2.11779 8.00013C2.11539 6.42552 2.73765 4.91424 3.84807 3.79782C4.95849 2.68141 6.46639 2.05101 8.04099 2.04492ZM8.04099 0.460133C6.548 0.452016 5.08621 0.88732 3.84089 1.71088C2.59556 2.53443 1.62277 3.70916 1.04579 5.08618C0.468817 6.4632 0.313639 7.98052 0.599925 9.44582C0.886211 10.9111 1.60107 12.2585 2.65391 13.3171C3.70674 14.3756 5.05015 15.0978 6.51387 15.3921C7.9776 15.6864 9.49573 15.5395 10.8759 14.97C12.256 14.4006 13.436 13.4342 14.2664 12.1934C15.0967 10.9525 15.54 9.49314 15.54 8.00013C15.5453 6.00587 14.7582 4.09117 13.3519 2.67718C11.9456 1.26318 10.0352 0.465695 8.04099 0.460133Z" fill="black"/>
<path d="M4.04153 6.25536L7.66704 8.01513C7.74008 8.04552 7.8184 8.06117 7.89751 8.06117C7.97662 8.06117 8.05494 8.04552 8.12798 8.01513L12.0405 6.08139C12.0743 6.06482 12.1027 6.03905 12.1225 6.00703C12.1423 5.97502 12.1527 5.93806 12.1524 5.90041C12.1522 5.75127 12.093 5.60829 11.9877 5.50265C11.8824 5.39701 11.7396 5.33728 11.5905 5.33649H4.49947C4.34821 5.33728 4.20341 5.39785 4.09664 5.50499C3.98987 5.61214 3.92981 5.75715 3.92954 5.90841V6.07439C3.92928 6.11204 3.93965 6.14899 3.95946 6.18101C3.97927 6.21303 4.00772 6.2388 4.04153 6.25536ZM11.7865 7.09825L8.48693 8.73203C8.30579 8.81389 8.10929 8.85623 7.91051 8.85623C7.71173 8.85623 7.51523 8.81389 7.33408 8.73203L4.29149 7.26423C4.25298 7.24554 4.21035 7.23698 4.16761 7.23934C4.12487 7.2417 4.08344 7.25491 4.04722 7.27772C4.01101 7.30053 3.9812 7.33219 3.96061 7.36972C3.94002 7.40724 3.92933 7.4494 3.92954 7.4922V10.1139C3.9298 10.2593 3.98755 10.3987 4.0902 10.5017C4.19284 10.6047 4.33205 10.663 4.47747 10.6638H11.5405C11.7023 10.6627 11.8571 10.5979 11.9713 10.4833C12.0855 10.3687 12.1499 10.2136 12.1504 10.0519V7.32622C12.15 7.28369 12.1389 7.24194 12.1181 7.20484C12.0973 7.16773 12.0675 7.13648 12.0314 7.11395C11.9954 7.09142 11.9542 7.07836 11.9117 7.07597C11.8693 7.07357 11.8269 7.08192 11.7885 7.10025L11.7865 7.09825Z" fill="black"/>
</svg>
