<svg width="16" height="16" viewBox="0 0 16 16" fill="none" xmlns="http://www.w3.org/2000/svg">
<path d="M12.2165 4.20947L13.3407 3.65432C13.3963 3.62663 13.4431 3.58376 13.4754 3.53067C13.5078 3.47758 13.5245 3.41642 13.5237 3.35424C13.5234 3.10989 13.4265 2.87556 13.2541 2.7024C13.0818 2.52924 12.8479 2.43131 12.6036 2.42999H0.992134C0.744636 2.43131 0.50771 2.53051 0.333075 2.70591C0.15844 2.88132 0.0602789 3.11871 0.0600183 3.36624V3.63832C0.0593165 3.70084 0.0764407 3.76228 0.109386 3.81542C0.142331 3.86857 0.189733 3.91122 0.246041 3.9384L2.14028 4.85765C2.18804 4.79224 2.24087 4.7307 2.2983 4.6736C2.44415 4.52647 2.6177 4.40971 2.80893 4.33004C3.00016 4.25038 3.20528 4.2094 3.41243 4.20947H12.2165Z" fill="black"/>
<path d="M0.0600183 5.96394V10.2561C0.0600183 10.4949 0.154851 10.7238 0.323655 10.8927C0.492459 11.0615 0.721406 11.1563 0.96013 11.1563H1.83824V6.162L0.653092 5.58984C0.589921 5.55955 0.520098 5.54578 0.450158 5.54983C0.380217 5.55387 0.312447 5.5756 0.253191 5.61298C0.193934 5.65036 0.14513 5.70216 0.111345 5.76354C0.0775602 5.82493 0.0599003 5.89388 0.0600183 5.96394Z" fill="black"/>
<path d="M15.3419 7.73742L9.93624 10.4111C9.63992 10.5478 9.31744 10.6185 8.99113 10.6182C8.66675 10.6193 8.34589 10.5511 8.05001 10.4181L3.07039 8.00449C3.00729 7.97414 2.9375 7.96033 2.8676 7.96436C2.79769 7.96839 2.72995 7.99013 2.67075 8.02753C2.61156 8.06494 2.56284 8.11678 2.52917 8.17819C2.49551 8.2396 2.47801 8.30856 2.47832 8.37859V12.6698C2.47832 12.9085 2.57315 13.1375 2.74196 13.3063C2.91076 13.4751 3.13971 13.57 3.37843 13.57H14.9399C15.2051 13.57 15.4595 13.4646 15.6471 13.277C15.8346 13.0894 15.94 12.835 15.94 12.5697V8.10952C15.9405 8.03884 15.9228 7.96923 15.8887 7.90733C15.8546 7.84543 15.8051 7.79332 15.7451 7.75599C15.6851 7.71865 15.6165 7.69734 15.5459 7.69409C15.4753 7.69084 15.4051 7.70576 15.3419 7.73742Z" fill="black"/>
<path d="M2.47832 5.7879V6.06097C2.47777 6.12334 2.49484 6.1846 2.52757 6.23769C2.56031 6.29078 2.60737 6.33354 2.66334 6.36105L8.59908 9.23783C8.8406 9.33731 9.11165 9.33731 9.35317 9.23783L15.754 6.07497C15.8089 6.04774 15.8552 6.00568 15.8876 5.95354C15.9199 5.9014 15.937 5.84125 15.937 5.77989C15.937 5.53563 15.8403 5.3013 15.6681 5.12811C15.4959 4.95493 15.2621 4.85697 15.0179 4.85565H3.41043C3.16355 4.8567 2.92707 4.95526 2.75249 5.12986C2.57791 5.30446 2.47937 5.54097 2.47832 5.7879Z" fill="black"/>
</svg>
