<svg id="Layer_1" data-name="Layer 1" xmlns="http://www.w3.org/2000/svg" viewBox="0 0 16 16"><title>email</title><path d="M14.36,3.05l0,0,0,0Z"/><path d="M14.36,3.05l0,0,0,0Z"/><path d="M.34,4.68l7,3.37a1.12,1.12,0,0,0,.88,0l7.49-3.7A.38.38,0,0,0,15.88,4,1.08,1.08,0,0,0,14.8,2.92H1.21A1.09,1.09,0,0,0,.12,4v.32A.4.4,0,0,0,.34,4.68ZM15.18,6.29,8.85,9.42a2.52,2.52,0,0,1-1.1.25,2.64,2.64,0,0,1-1.11-.24L.82,6.61a.49.49,0,0,0-.7.44v5a1.06,1.06,0,0,0,1,1.06H14.71A1.18,1.18,0,0,0,15.88,12V6.73A.49.49,0,0,0,15.18,6.29Z"/></svg>