<svg id="Layer_1" data-name="Layer 1" xmlns="http://www.w3.org/2000/svg" viewBox="0 0 16 16">
  <g>
    <path d="M8,2.044A5.956,5.956,0,1,1,2.076,8,5.947,5.947,0,0,1,8,2.044M8,.459A7.541,7.541,0,1,0,15.5,8,7.521,7.521,0,0,0,8,.459Z"/>
    <path d="M4,6.255l3.626,1.76a.6.6,0,0,0,.461,0L12,6.081a.2.2,0,0,0,.112-.181.565.565,0,0,0-.562-.564H4.458a.573.573,0,0,0-.57.572v.166A.2.2,0,0,0,4,6.255Zm7.746.843-3.3,1.634a1.4,1.4,0,0,1-1.153,0L4.25,7.264a.252.252,0,0,0-.362.228v2.622a.551.551,0,0,0,.548.55H11.5a.614.614,0,0,0,.61-.612V7.326A.253.253,0,0,0,11.748,7.1Z"/>
  </g>
</svg>
