<svg width="16" height="16" viewBox="0 0 16 16" fill="none" xmlns="http://www.w3.org/2000/svg">
<path d="M14.3616 3.02702L14.3236 3.06502C14.3364 3.05278 14.3484 3.03976 14.3596 3.02602L14.3616 3.02702Z" fill="black"/>
<path d="M14.3616 3.02702L14.3236 3.06502C14.3364 3.05278 14.3484 3.03976 14.3596 3.02602L14.3616 3.02702Z" fill="black"/>
<path d="M0.337054 4.65702L7.28681 8.02802C7.56959 8.14497 7.88724 8.14497 8.17003 8.02802L15.6659 4.32802C15.7309 4.29569 15.7854 4.24571 15.8233 4.1838C15.8612 4.1219 15.8808 4.05058 15.88 3.97802C15.8802 3.69157 15.7669 3.41671 15.5647 3.21369C15.3626 3.01068 15.0882 2.89608 14.8017 2.89502H1.21027C0.920199 2.89766 0.642902 3.01471 0.438719 3.22072C0.234535 3.42672 0.119987 3.70501 0.119999 3.99502V4.31402C0.120521 4.38575 0.141131 4.45591 0.179494 4.51653C0.217857 4.57716 0.272439 4.62582 0.337054 4.65702ZM15.1828 6.27202L8.8532 9.40202C8.50607 9.56227 8.12826 9.64518 7.74592 9.64502C7.36649 9.64506 6.9914 9.56426 6.64564 9.40802L0.813174 6.59002C0.739368 6.55439 0.65771 6.53813 0.575882 6.54274C0.494055 6.54736 0.414747 6.57272 0.345422 6.61642C0.276096 6.66013 0.219032 6.72075 0.179597 6.79258C0.140162 6.8644 0.119653 6.94508 0.119999 7.02702V12.05C0.119995 12.3288 0.23035 12.5962 0.426955 12.7939C0.623559 12.9916 0.890431 13.1034 1.16926 13.105H14.7117C15.0221 13.1034 15.3192 12.979 15.5382 12.759C15.7571 12.5391 15.88 12.2413 15.88 11.931V6.70802C15.8802 6.62573 15.8595 6.54473 15.8197 6.47269C15.7799 6.40065 15.7224 6.33994 15.6526 6.2963C15.5828 6.25266 15.503 6.22752 15.4208 6.22327C15.3386 6.21903 15.2567 6.2358 15.1828 6.27202Z" fill="black"/>
</svg>
