<svg id="Layer_1" data-name="Layer 1" xmlns="http://www.w3.org/2000/svg" viewBox="0 0 16 16"><title>email-circle</title><path d="M8,2A6,6,0,1,1,2.08,8,5.95,5.95,0,0,1,8,2M8,.46A7.54,7.54,0,1,0,15.5,8,7.52,7.52,0,0,0,8,.46Z"/><path d="M4,6.26,7.63,8a.61.61,0,0,0,.46,0L12,6.08a.19.19,0,0,0,.11-.18.56.56,0,0,0-.56-.56H4.46a.56.56,0,0,0-.57.57v.16A.21.21,0,0,0,4,6.26Zm7.75.84L8.45,8.73a1.33,1.33,0,0,1-.58.13,1.29,1.29,0,0,1-.58-.13l-3-1.47a.25.25,0,0,0-.36.23v2.62a.54.54,0,0,0,.55.55H11.5a.61.61,0,0,0,.61-.61V7.33A.25.25,0,0,0,11.75,7.1Z"/></svg>