<svg id="Layer_1" data-name="Layer 1" xmlns="http://www.w3.org/2000/svg" viewBox="0 0 16 16"><title>email-multi</title><path d="M9.7,4.21h2.51l1.13-.56a.33.33,0,0,0,.18-.3.92.92,0,0,0-.92-.92H1a.94.94,0,0,0-.93.94v.27a.33.33,0,0,0,.19.3l1.89.91.16-.18a1.58,1.58,0,0,1,1.11-.46Z"/><path d="M.06,6v4.29a.9.9,0,0,0,.9.9h.88v-5L.65,5.59A.41.41,0,0,0,.06,6Z"/><path d="M15.34,7.73l-5.4,2.68a2.42,2.42,0,0,1-.95.2,2.18,2.18,0,0,1-.94-.2L3.07,8a.41.41,0,0,0-.59.38v4.29a.9.9,0,0,0,.9.9H14.94a1,1,0,0,0,1-1V8.11A.42.42,0,0,0,15.34,7.73Z"/><path d="M2.48,5.78v.28a.31.31,0,0,0,.19.29L8.6,9.23a1,1,0,0,0,.75,0l6.4-3.16a.33.33,0,0,0,.19-.3A.92.92,0,0,0,15,4.85H3.41A.93.93,0,0,0,2.48,5.78Z"/></svg>