<svg xmlns="http://www.w3.org/2000/svg" viewBox="0 0 16 16"><defs><style>.cls-1{fill:#010101;}</style></defs><title>eraser</title><g id="Layer_1" data-name="Layer 1"><rect class="cls-1" x="0.106" y="14.674" width="14.66" height="1.333" rx="0.184" ry="0.184"/><path class="cls-1" d="M15.832,5.861,10.776.774a.213.213,0,0,0-.3,0l-9.347,9.38a.213.213,0,0,0,0,.3l3.449,3.491a.213.213,0,0,0,.151.063H7.942a.213.213,0,0,0,.151-.063l7.739-7.784A.213.213,0,0,0,15.832,5.861Zm-8.169,7.1a.164.164,0,0,1-.117.049H5.121A.164.164,0,0,1,5,12.96L2.5,10.425a.164.164,0,0,1,0-.231L6.7,5.965l3.945,3.968Z"/></g></svg>