<svg width="16" height="16" viewBox="0 0 16 16" fill="none" xmlns="http://www.w3.org/2000/svg">
<path d="M14.5834 14.3166H0.289011C0.187374 14.3166 0.10498 14.399 0.10498 14.5006V15.4659C0.10498 15.5676 0.187374 15.65 0.289011 15.65H14.5834C14.685 15.65 14.7674 15.5676 14.7674 15.4659V14.5006C14.7674 14.399 14.685 14.3166 14.5834 14.3166Z" fill="black"/>
<path d="M15.8336 5.50078L10.7768 0.412182C10.7571 0.392462 10.7337 0.376817 10.7079 0.366143C10.6822 0.35547 10.6546 0.349976 10.6267 0.349976C10.5989 0.349976 10.5713 0.35547 10.5455 0.366143C10.5198 0.376817 10.4964 0.392462 10.4767 0.412182L1.12815 9.79513C1.08857 9.83504 1.06637 9.88897 1.06637 9.94518C1.06637 10.0014 1.08857 10.0553 1.12815 10.0952L4.57773 13.5873C4.5975 13.6073 4.62103 13.6231 4.64695 13.6339C4.67287 13.6447 4.70067 13.6503 4.72875 13.6503H7.94229C7.97037 13.6503 7.99817 13.6447 8.02409 13.6339C8.05001 13.6231 8.07353 13.6073 8.09331 13.5873L15.8336 5.80088C15.8729 5.76084 15.895 5.70696 15.895 5.65083C15.895 5.5947 15.8729 5.54082 15.8336 5.50078ZM7.66224 12.603C7.64722 12.6186 7.6292 12.631 7.60925 12.6394C7.58931 12.6478 7.56787 12.6521 7.54622 12.652H5.12082C5.09927 12.652 5.07794 12.6478 5.05803 12.6396C5.03812 12.6313 5.02004 12.6192 5.0048 12.604L2.49938 10.0662C2.46914 10.0354 2.45221 9.99389 2.45221 9.95068C2.45221 9.90748 2.46914 9.866 2.49938 9.83515L6.70008 5.60482L10.6467 9.57406L7.66224 12.603Z" fill="black"/>
</svg>
