<svg id="Layer_1" data-name="Layer 1" xmlns="http://www.w3.org/2000/svg" viewBox="0 0 16 16">
  <title>eyedropper</title>
  <path d="M15.422,1.853c-.652-.669-.65-.67-1.3-1.337A1.3,1.3,0,0,0,12.74.146a1.43,1.43,0,0,0-.591.36l-1.99,1.976c-.647.6-.68.5-.988.52a2.064,2.064,0,0,0-1.649.79L6.2,5.112l-.331.33.555.568L2.429,9.989a2.153,2.153,0,0,0-.553,1.078c-.028.107-.055.211-.092.314A4.918,4.918,0,0,1,.436,13.3l-.428.428,2.153,2.2.428-.426a5.023,5.023,0,0,1,1.916-1.346c.1-.036.206-.063.314-.09a2.134,2.134,0,0,0,1.074-.544l3.99-3.974.556.57.333-.332,1.322-1.32a2.1,2.1,0,0,0,.8-1.647c.027-.309-.075-.345.527-.991l1.985-1.981a1.607,1.607,0,0,0,.363-.6A1.327,1.327,0,0,0,15.422,1.853ZM5.039,12.664a.936.936,0,0,1-.5.223c-.112.029-.247.066-.415.119a5.42,5.42,0,0,0-1.945,1.209L1.7,13.726a5.545,5.545,0,0,0,1.221-1.95c.054-.17.093-.307.125-.421a.954.954,0,0,1,.228-.5l4-3.978,1.767,1.8Z" fill="#010101"/>
</svg>
