<svg id="Layer_1" data-name="Layer 1" xmlns="http://www.w3.org/2000/svg" viewBox="0 0 16 16">
  <title>giving-logo</title>
  <g>
    <path d="M1.414,6.586C.283,6.586,0,6.869,0,8S.283,9.414,1.414,9.414,2.828,9.131,2.828,8,2.545,6.586,1.414,6.586Zm.042,1.95a.072.072,0,0,1-.084,0C1.193,8.41.522,7.9.908,7.566a.337.337,0,0,1,.456.029l.05.049.05-.049a.337.337,0,0,1,.456-.029C2.306,7.9,1.635,8.41,1.456,8.536Z" fill="#231f20"/>
    <g>
      <path d="M4.859,7.226H4.776c-.047,0-.059.036-.067.058l-.027.067a.682.682,0,0,0-.44-.156.711.711,0,0,0-.681.752.719.719,0,0,0,.7.754A.753.753,0,0,0,4.6,8.612V8.66c0,.3-.182.362-.334.362a.512.512,0,0,1-.32-.128.084.084,0,0,0-.067-.016.082.082,0,0,0-.052.043l-.073.134a.083.083,0,0,0,.018.1.777.777,0,0,0,.5.182.624.624,0,0,0,.669-.676V7.309A.085.085,0,0,0,4.859,7.226ZM4.6,7.7v.57a.555.555,0,0,1-.31.105A.421.421,0,0,1,3.9,7.947.381.381,0,0,1,4.6,7.7Z" fill="#231f20"/>
      <path d="M5.39,6.589a.222.222,0,0,0,0,.444.222.222,0,1,0,0-.444Z" fill="#231f20"/>
      <path d="M5.3,7.226h.171a.084.084,0,0,1,.084.084V8.584a.083.083,0,0,1-.083.083H5.3a.083.083,0,0,1-.083-.083V7.309A.083.083,0,0,1,5.3,7.226Z" fill="#231f20"/>
      <path d="M7,7.226H6.865c-.041,0-.087,0-.11.049l-.381.837L6.01,7.274a.077.077,0,0,0-.076-.048H5.748a.077.077,0,0,0-.07.033.071.071,0,0,0,0,.07l.61,1.327a.083.083,0,0,0,.075.045h.019a.077.077,0,0,0,.072-.046l.61-1.326a.071.071,0,0,0,0-.07A.078.078,0,0,0,7,7.226Z" fill="#231f20"/>
      <path d="M7.363,6.589a.222.222,0,0,0,0,.444.222.222,0,1,0,0-.444Z" fill="#231f20"/>
      <path d="M7.277,7.226h.171a.084.084,0,0,1,.084.084V8.584a.083.083,0,0,1-.083.083H7.277a.084.084,0,0,1-.084-.084V7.309A.083.083,0,0,1,7.277,7.226Z" fill="#231f20"/>
      <path d="M8.537,7.2a.664.664,0,0,0-.466.181l-.034-.1a.069.069,0,0,0-.074-.055H7.89a.085.085,0,0,0-.083.083V8.584a.084.084,0,0,0,.083.084h.156q.1,0,.1-.084V7.709A.415.415,0,0,1,8.5,7.518c.169,0,.262.123.262.346v.72a.085.085,0,0,0,.083.084h.171A.087.087,0,0,0,9.1,8.584V7.876C9.1,7.418,8.916,7.2,8.537,7.2Z" fill="#231f20"/>
      <path d="M10.579,7.226H10.5a.068.068,0,0,0-.067.058l-.028.067A.678.678,0,0,0,9.963,7.2a.712.712,0,0,0-.682.752.719.719,0,0,0,.7.754.754.754,0,0,0,.344-.089V8.66c0,.3-.182.362-.335.362a.511.511,0,0,1-.319-.128A.084.084,0,0,0,9.6,8.878a.079.079,0,0,0-.052.043l-.073.134a.08.08,0,0,0,.018.1.777.777,0,0,0,.5.182.624.624,0,0,0,.669-.676V7.309A.085.085,0,0,0,10.579,7.226Zm-.254.478v.57a.559.559,0,0,1-.31.105.421.421,0,0,1-.4-.432.381.381,0,0,1,.706-.243Z" fill="#231f20"/>
    </g>
  </g>
</svg>
