<svg id="Layer_1" data-name="Layer 1" xmlns="http://www.w3.org/2000/svg" viewBox="0 0 16 16">
  <title>giving-logo</title>
  <g>
    <path d="M2.2,6.1C.523,6.1.1,6.521.1,8.2S.523,10.291,2.2,10.291s2.1-.419,2.1-2.094S3.874,6.1,2.2,6.1ZM2.261,8.99a.107.107,0,0,1-.125,0C1.871,8.8.877,8.045,1.448,7.553a.5.5,0,0,1,.677.043L2.2,7.67,2.272,7.6a.5.5,0,0,1,.676-.043C3.52,8.045,2.526,8.8,2.261,8.99Z"/>
    <g>
      <path d="M7.3,7.05H7.178c-.07,0-.088.053-.1.087l-.041.1A1,1,0,0,0,6.387,7,1.053,1.053,0,0,0,5.378,8.117,1.066,1.066,0,0,0,6.41,9.235,1.133,1.133,0,0,0,6.919,9.1v.072c0,.443-.27.536-.5.536a.756.756,0,0,1-.473-.19.123.123,0,0,0-.1-.024.119.119,0,0,0-.077.064l-.108.2a.121.121,0,0,0,.026.147,1.15,1.15,0,0,0,.74.269.924.924,0,0,0,.992-1v-2A.126.126,0,0,0,7.3,7.05Zm-.377.708V8.6a.827.827,0,0,1-.459.155.623.623,0,0,1-.586-.64.564.564,0,0,1,1.045-.359Z"/>
      <path d="M8.087,6.106a.33.33,0,0,0,0,.659.33.33,0,1,0,0-.659Z"/>
      <path d="M7.96,7.05h.253a.124.124,0,0,1,.124.124V9.062a.124.124,0,0,1-.124.124H7.96a.124.124,0,0,1-.124-.124V7.173A.123.123,0,0,1,7.96,7.05Z"/>
      <path d="M10.474,7.05h-.2c-.06,0-.129,0-.162.072l-.565,1.24L9.005,7.121a.114.114,0,0,0-.112-.071H8.617a.116.116,0,0,0-.1.05.1.1,0,0,0,.006.1l.9,1.965a.124.124,0,0,0,.112.068h.027a.119.119,0,0,0,.108-.068l.9-1.964a.1.1,0,0,0,.006-.1A.117.117,0,0,0,10.474,7.05Z"/>
      <path d="M11.008,6.106a.33.33,0,0,0,0,.659.33.33,0,1,0,0-.659Z"/>
      <path d="M10.882,7.05h.253a.124.124,0,0,1,.124.124V9.062a.124.124,0,0,1-.124.124h-.253a.124.124,0,0,1-.124-.124V7.173A.123.123,0,0,1,10.882,7.05Z"/>
      <path d="M12.748,7a.983.983,0,0,0-.691.268l-.049-.14a.1.1,0,0,0-.11-.082H11.79a.126.126,0,0,0-.124.123V9.062a.124.124,0,0,0,.124.123h.23c.1,0,.146-.04.146-.123v-1.3a.616.616,0,0,1,.527-.284c.25,0,.387.182.387.513V9.062a.125.125,0,0,0,.124.123h.253a.126.126,0,0,0,.124-.123V8.013C13.581,7.334,13.308,7,12.748,7Z"/>
      <path d="M15.772,7.05H15.65c-.07,0-.088.053-.1.087l-.041.1A1,1,0,0,0,14.86,7a1.054,1.054,0,0,0-1.01,1.113,1.066,1.066,0,0,0,1.032,1.118,1.129,1.129,0,0,0,.509-.132v.072c0,.443-.269.536-.495.536a.757.757,0,0,1-.474-.19.123.123,0,0,0-.1-.024.119.119,0,0,0-.077.064l-.108.2a.121.121,0,0,0,.027.147,1.15,1.15,0,0,0,.74.269.924.924,0,0,0,.991-1v-2A.126.126,0,0,0,15.772,7.05Zm-.377.708V8.6a.827.827,0,0,1-.459.155.623.623,0,0,1-.585-.64A.564.564,0,0,1,15.4,7.758Z"/>
    </g>
  </g>
</svg>
