<svg id="Layer_1" data-name="Layer 1" xmlns="http://www.w3.org/2000/svg" viewBox="0 0 16 16"><defs><style>.cls-1{fill:#231f20;}</style></defs><title>giving-logo</title><path class="cls-1" d="M1.41408,6.58592C.28283,6.58592,0,6.86874,0,8S.28283,9.41408,1.41408,9.41408,2.82816,9.13127,2.82816,8,2.54534,6.58592,1.41408,6.58592ZM1.4562,8.536a.0722.0722,0,0,1-.08418,0c-.17893-.12625-.85-.63857-.46437-.97045a.339.339,0,0,1,.4568.029l.04963.04967.04963-.04967a.33895.33895,0,0,1,.45679-.029C2.30614,7.8974,1.63512,8.40971,1.4562,8.536Z"/><path class="cls-1" d="M4.8587,7.22552H4.77634c-.04746,0-.05949.036-.067.05885l-.02767.06688A.67581.67581,0,0,0,4.24238,7.195a.7115.7115,0,0,0-.68155.75161.71963.71963,0,0,0,.69676.7546.76331.76331,0,0,0,.34371-.089V8.6605c0,.29917-.182.36195-.33455.36195a.513.513,0,0,1-.31966-.128.08177.08177,0,0,0-.067-.01633.07855.07855,0,0,0-.05172.043l-.073.134a.08108.08108,0,0,0,.01777.099.777.777,0,0,0,.4998.18174.62376.62376,0,0,0,.6692-.67532V7.3089A.08562.08562,0,0,0,4.8587,7.22552Zm-.25443.4781v.57046a.56065.56065,0,0,1-.31007.1047.42063.42063,0,0,1-.39542-.43218.38108.38108,0,0,1,.70549-.243Z"/><path class="cls-1" d="M5.3901,6.58867a.22233.22233,0,0,0,0,.44457.22229.22229,0,1,0,0-.44457Z"/><path class="cls-1" d="M5.3045,7.22552h.17095a.08353.08353,0,0,1,.08353.08353V8.5842a.08348.08348,0,0,1-.08348.08348H5.30455a.08342.08342,0,0,1-.08342-.08342V7.3089A.08337.08337,0,0,1,5.3045,7.22552Z"/><path class="cls-1" d="M7.00188,7.22552H6.86461c-.04065,0-.08673,0-.1095.04917l-.38137.8369-.364-.83749a.07691.07691,0,0,0-.07566-.04858H5.748a.07694.07694,0,0,0-.06992.03379.069.069,0,0,0,.00352.06927l.61014,1.327a.08463.08463,0,0,0,.07555.04565h.01841a.07928.07928,0,0,0,.07279-.04613L7.068,7.32922a.06908.06908,0,0,0,.00384-.07A.077.077,0,0,0,7.00188,7.22552Z"/><path class="cls-1" d="M7.36271,6.58867a.22233.22233,0,0,0,0,.44457.22229.22229,0,1,0,0-.44457Z"/><path class="cls-1" d="M7.27721,7.22552h.17095a.08353.08353,0,0,1,.08353.08353V8.5842a.08348.08348,0,0,1-.08348.08348H7.27737a.08353.08353,0,0,1-.08353-.08353V7.3089A.08337.08337,0,0,1,7.27721,7.22552Z"/><path class="cls-1" d="M8.537,7.195a.6637.6637,0,0,0-.46639.18084L8.03734,7.281a.07006.07006,0,0,0-.07385-.0555H7.89028a.08564.08564,0,0,0-.08353.08338V8.5842a.08359.08359,0,0,0,.08353.08348h.15557c.0664,0,.09875-.02729.09875-.08348v-.875a.416.416,0,0,1,.35583-.19164c.16844,0,.26123.12317.26123.34673v.72a.08464.08464,0,0,0,.08353.08348H9.016a.0857.0857,0,0,0,.08353-.08348V7.87637C9.09951,7.41786,8.91553,7.195,8.537,7.195Z"/><path class="cls-1" d="M10.57934,7.22552H10.497c-.04745,0-.05948.036-.067.05885l-.02767.06688A.67581.67581,0,0,0,9.963,7.195a.7115.7115,0,0,0-.68155.75161.71963.71963,0,0,0,.69676.7546.76321.76321,0,0,0,.3437-.089V8.6605c0,.29917-.182.36195-.33455.36195a.513.513,0,0,1-.31965-.128.0818.0818,0,0,0-.067-.01633.07854.07854,0,0,0-.05171.043l-.073.134a.0811.0811,0,0,0,.01777.099.777.777,0,0,0,.49981.18174.62376.62376,0,0,0,.6692-.67532V7.3089A.08562.08562,0,0,0,10.57934,7.22552Zm-.25443.4781v.57046a.56065.56065,0,0,1-.31007.1047.42063.42063,0,0,1-.39542-.43218.38108.38108,0,0,1,.70549-.243Z"/></svg>