<svg id="Layer_1" data-name="Layer 1" xmlns="http://www.w3.org/2000/svg" viewBox="0 0 16 16">
  <title>hold</title>
  <path d="M2.085,7.975,8.04,13.93a.1.1,0,0,0,.148,0l5.956-5.955a.106.106,0,0,0,0-.148L8.188,1.872a.1.1,0,0,0-.148,0L2.085,7.827A.1.1,0,0,0,2.085,7.975ZM7.9,15.7.316,8.112a.3.3,0,0,1,0-.421L7.9.1a.3.3,0,0,1,.421,0l7.588,7.588a.3.3,0,0,1,0,.421L8.325,15.7A.3.3,0,0,1,7.9,15.7Z" fill="#010101"/>
  <rect x="5.934" y="5.658" width="1.689" height="4.501" fill="#010101"/>
  <rect x="8.621" y="5.658" width="1.693" height="4.501" fill="#010101"/>
</svg>
