<svg id="Layer_1" data-name="Layer 1" xmlns="http://www.w3.org/2000/svg" viewBox="0 0 16 16"><defs><style>.cls-1{fill:none;}.cls-2{fill:#231f20;}</style></defs><title>info-alt</title><path class="cls-1" d="M8,.137A7.863,7.863,0,1,0,15.863,8,7.863,7.863,0,0,0,8,.137ZM8.5,2.9A1.367,1.367,0,1,1,7.136,4.261,1.367,1.367,0,0,1,8.5,2.9Zm1.7,9.019a3.262,3.262,0,0,1-2.474,1c-2.01-.085-1.51-1.989-1.436-2.446s.489-2.722.511-2.913.223-.553-.341-.7-.744-.266-.744-.394.107-.318.468-.318H8.651a.708.708,0,0,1,.7.8l-.821,4.28a.572.572,0,0,0,.75.612l.771-.331A.241.241,0,0,1,10.205,11.914Z"/><path class="cls-2" d="M10.054,11.5l-.772.332a.572.572,0,0,1-.751-.613l.822-4.288a.71.71,0,0,0-.7-.8H6.182c-.362,0-.468.192-.468.32s.181.245.745.394.363.511.341.7-.437,2.461-.511,2.919-.575,2.364,1.438,2.45a3.264,3.264,0,0,0,2.478-1A.241.241,0,0,0,10.054,11.5ZM8.5,5.623A1.369,1.369,0,1,0,7.131,4.254,1.368,1.368,0,0,0,8.5,5.623ZM8,.137A7.863,7.863,0,1,0,15.863,8,7.863,7.863,0,0,0,8,.137ZM8,14.665A6.665,6.665,0,1,1,14.665,8,6.673,6.673,0,0,1,8,14.665Z"/></svg>