<svg width="16" height="16" viewBox="0 0 16 16" fill="none" xmlns="http://www.w3.org/2000/svg">
<path d="M8.00001 0.13501C6.44446 0.13501 4.92385 0.596284 3.63045 1.4605C2.33706 2.32472 1.32898 3.55306 0.733701 4.9902C0.138418 6.42734 -0.0173357 8.00873 0.286137 9.53439C0.58961 11.0601 1.33868 12.4615 2.43862 13.5614C3.53856 14.6613 4.93997 15.4104 6.46563 15.7139C7.99129 16.0174 9.57268 15.8616 11.0098 15.2663C12.447 14.671 13.6753 13.663 14.5395 12.3696C15.4037 11.0762 15.865 9.55556 15.865 8.00001C15.865 5.91408 15.0364 3.91359 13.5614 2.43861C12.0864 0.963641 10.0859 0.13501 8.00001 0.13501ZM8.50014 2.89871C8.77096 2.89812 9.03585 2.97796 9.26123 3.12811C9.48662 3.27826 9.66233 3.49196 9.76611 3.74211C9.86988 3.99226 9.89703 4.26759 9.84413 4.53319C9.79122 4.79879 9.66063 5.04269 9.46892 5.23398C9.27721 5.42527 9.03302 5.55532 8.7673 5.60764C8.50159 5.65996 8.22632 5.6322 7.9764 5.52788C7.72648 5.42356 7.51317 5.24737 7.36352 5.02166C7.21386 4.79594 7.1346 4.53087 7.13579 4.26006C7.13738 3.89897 7.28172 3.55318 7.53733 3.29813C7.79294 3.04309 8.13905 2.8995 8.50014 2.89871ZM10.2006 11.92C9.88191 12.2517 9.4967 12.5124 9.07022 12.6847C8.64374 12.8571 8.18563 12.9374 7.72594 12.9203C5.71543 12.8352 6.21556 10.9308 6.28958 10.4736C6.3636 10.0165 6.7787 7.75094 6.80071 7.5599C6.82271 7.36885 7.02376 7.00676 6.45962 6.85972C5.89548 6.71268 5.71543 6.59365 5.71543 6.46562C5.71543 6.33759 5.82246 6.14754 6.18355 6.14754H8.65118C8.75178 6.14782 8.85117 6.16954 8.94272 6.21124C9.03427 6.25294 9.11589 6.31366 9.18214 6.38937C9.24839 6.46509 9.29774 6.55404 9.32692 6.65032C9.3561 6.7466 9.36443 6.84799 9.35136 6.94774L8.53015 11.2288C8.51834 11.3248 8.53106 11.4222 8.56711 11.512C8.60316 11.6017 8.66136 11.6808 8.73629 11.742C8.81121 11.8031 8.90041 11.8442 8.99555 11.8616C9.0907 11.8789 9.18867 11.8718 9.28034 11.841L10.0515 11.5099C10.0965 11.514 10.1395 11.5306 10.1755 11.5579C10.2115 11.5852 10.2391 11.6221 10.2552 11.6643C10.2712 11.7065 10.2751 11.7524 10.2663 11.7968C10.2576 11.8411 10.2365 11.8821 10.2056 11.915L10.2006 11.92Z" fill="black"/>
</svg>
