<svg id="Layer_1" data-name="Layer 1" xmlns="http://www.w3.org/2000/svg" viewBox="0 0 16 16"><title>label</title><path d="M10.34,6.69,6.82,10.21a.87.87,0,0,0-.24.59.78.78,0,0,0,.24.58h0a.83.83,0,0,0,.59.25A.79.79,0,0,0,8,11.38l3.52-3.51a.83.83,0,1,0-1.17-1.18ZM6.88,11.32Z"/><path d="M11.7,4.43a1,1,0,0,0,.72.3,1,1,0,0,0,1-1,1,1,0,1,0-1.74.72Z"/><path d="M4.74,9.3h0a.83.83,0,0,0,.59.25.79.79,0,0,0,.58-.25L9.43,5.79A.83.83,0,0,0,8.26,4.61L4.74,8.13A.83.83,0,0,0,4.74,9.3Zm.06-.06Z"/><path d="M16.09,7.11l0-6.3A.85.85,0,0,0,15.23,0L8.94,0A.81.81,0,0,0,8.35.2L.24,8.3a.83.83,0,0,0,0,1.17h0L6.57,15.8a.81.81,0,0,0,.59.24.78.78,0,0,0,.58-.24l8.11-8.1A.82.82,0,0,0,16.09,7.11Zm-1.66-.34L7.16,14,2,8.89,9.28,1.62l5.13,0ZM.3,9.41Z"/></svg>