<svg id="Layer_1" data-name="Layer 1" xmlns="http://www.w3.org/2000/svg" viewBox="0 0 16 16"><title>linked-circles</title><path d="M13.73,6.4A4.6,4.6,0,0,0,13,5.87a5,5,0,0,0-2-.69,5.56,5.56,0,0,1,0,1.47A3.67,3.67,0,0,1,12,7a3.63,3.63,0,1,1-4,6,3.53,3.53,0,0,1-.6-.68,3.72,3.72,0,0,1-.62-1.71,3.67,3.67,0,0,1,.89-2.74,3.32,3.32,0,0,1,.69-.61,3,3,0,0,0,.23-.78,2.87,2.87,0,0,0,0-1,5.08,5.08,0,0,0-2.17,7.92,4.6,4.6,0,0,0,.52.56L7,14A5.07,5.07,0,1,0,13.73,6.4Z"/><path d="M3.2,8.51A3.64,3.64,0,0,1,6,2.18a4.06,4.06,0,0,1,.8.19l.07,0h0A3.52,3.52,0,0,1,8,3.07a3.44,3.44,0,0,1,.82,1.06h0l0,0a3.25,3.25,0,0,1,.18.43A3.63,3.63,0,0,1,7.67,8.79l-.1.29a3,3,0,0,0-.15,1.46,5,5,0,0,0,1.64-1l.35-.36a5.17,5.17,0,0,0,1.18-4.39c0-.1,0-.2-.07-.3h0A5.06,5.06,0,0,0,5.32.72a4.6,4.6,0,0,0-.83.11h0A5.07,5.07,0,0,0,.57,5.25a4.72,4.72,0,0,0,0,.84,5,5,0,0,0,1.69,3.5A5.1,5.1,0,0,0,4.9,10.82c0-.15,0-.29,0-.45a5.8,5.8,0,0,1,0-1A3.63,3.63,0,0,1,3.2,8.51Z"/></svg>