<svg width="16" height="16" viewBox="0 0 16 16" fill="none" xmlns="http://www.w3.org/2000/svg">
<path d="M13.7313 6.4013C13.507 6.2042 13.2658 6.02723 13.0104 5.87243C12.4065 5.50546 11.7318 5.27006 11.0307 5.18159C11.0977 5.66738 11.0997 6.15992 11.0367 6.64624C11.3845 6.7098 11.7212 6.82328 12.0366 6.98316C12.5315 7.23279 12.9628 7.5924 13.2974 8.03443C13.6319 8.47646 13.8608 8.98919 13.9665 9.53333C14.0723 10.0775 14.0521 10.6386 13.9074 11.1737C13.7628 11.7089 13.4976 12.2038 13.1321 12.6206C12.7666 13.0374 12.3106 13.3651 11.7989 13.5784C11.2872 13.7918 10.7335 13.8852 10.1801 13.8516C9.62672 13.8179 9.0884 13.658 8.60636 13.3842C8.12432 13.1104 7.71136 12.7299 7.3991 12.2719C7.12702 11.8778 6.93569 11.4337 6.83614 10.9652C6.7366 10.4968 6.73082 10.0133 6.81913 9.54261C6.90744 9.07193 7.08809 8.6234 7.35067 8.22289C7.61325 7.82238 7.95255 7.47782 8.34899 7.2091C8.59586 6.66261 8.67887 6.05625 8.58796 5.46353C7.80995 5.75713 7.11626 6.23785 6.5682 6.86319C5.78151 7.75872 5.33539 8.90268 5.30815 10.0943C5.28091 11.2859 5.67427 12.4491 6.41922 13.3796C6.57765 13.5795 6.75114 13.767 6.93816 13.9405C6.96915 13.9705 7.00215 13.9985 7.03814 14.0285C8.05009 14.9167 9.37349 15.3667 10.7172 15.2793C11.3826 15.236 12.0329 15.0621 12.631 14.7676C13.2292 14.473 13.7634 14.0636 14.2033 13.5626C14.6432 13.0616 14.98 12.4788 15.1947 11.8477C15.4093 11.2165 15.4975 10.5492 15.4543 9.88395C15.411 9.21868 15.2371 8.56845 14.9425 7.97039C14.6479 7.37232 14.2384 6.83812 13.7373 6.3983L13.7313 6.4013Z" fill="black"/>
<path d="M3.1996 8.50679C2.62287 7.99499 2.22415 7.31284 2.06124 6.55922C1.89833 5.8056 1.97969 5.01969 2.29355 4.31542C2.6074 3.61115 3.13742 3.02513 3.80677 2.64231C4.47613 2.25949 5.25002 2.09978 6.01627 2.18632C6.28816 2.22148 6.55603 2.28275 6.81617 2.36927L6.88016 2.39227C7.30352 2.54173 7.69349 2.77269 8.02803 3.0721C8.36473 3.3697 8.64076 3.72954 8.84093 4.13185L8.86693 4.18383C8.93469 4.32444 8.99477 4.46862 9.04691 4.61573C9.30532 5.36699 9.3102 6.18226 9.06078 6.93655C8.81137 7.69085 8.32143 8.34254 7.66607 8.79172L7.56608 9.07665C7.40174 9.54703 7.3517 10.0498 7.4201 10.5433C8.02625 10.314 8.58238 9.96979 9.05791 9.52954C9.18189 9.41457 9.30088 9.2936 9.41286 9.16763C9.93029 8.57435 10.3053 7.8707 10.5093 7.1104C10.7132 6.3501 10.7407 5.55325 10.5897 4.78069C10.5697 4.68071 10.5477 4.58074 10.5217 4.48076H10.5327C10.1914 3.21049 9.37177 2.12155 8.24543 1.44206C7.11908 0.762574 5.77346 0.54526 4.49045 0.835643C3.57957 1.04259 2.74336 1.49659 2.07371 2.14774C1.40406 2.7989 0.926879 3.62202 0.694593 4.52667C0.462307 5.43131 0.483908 6.38248 0.757022 7.27565C1.03014 8.16882 1.54419 8.96943 2.24271 9.58953C2.9868 10.2542 3.91137 10.6832 4.8994 10.8222C4.8804 10.6753 4.8674 10.5223 4.8604 10.3743C4.84275 10.0336 4.8558 9.69198 4.8994 9.35358C4.26733 9.22818 3.68039 8.93578 3.1996 8.50679Z" fill="black"/>
</svg>
