<svg id="Layer_1" data-name="Layer 1" xmlns="http://www.w3.org/2000/svg" viewBox="0 0 16 16"><title>linked-circles</title><path d="M13.733,6.4a5.09,5.09,0,0,0-.721-.529,5.024,5.024,0,0,0-1.98-.691,5.527,5.527,0,0,1,.006,1.465,3.67,3.67,0,0,1,1,.337A3.633,3.633,0,1,1,7.4,12.272,3.628,3.628,0,0,1,8.35,7.208a3.1,3.1,0,0,0,.239-1.746,5.063,5.063,0,0,0-2.02,1.4,5.073,5.073,0,0,0-.149,6.518,5.007,5.007,0,0,0,.519.561c.031.03.064.058.1.088a5.077,5.077,0,1,0,6.7-7.632Z"/><path d="M3.2,8.506A3.63,3.63,0,0,1,6.017,2.184a4.27,4.27,0,0,1,.8.183l.064.023h0a3.437,3.437,0,0,1,1.148.68,3.489,3.489,0,0,1,.813,1.06h0l.026.052a4.317,4.317,0,0,1,.18.432A3.632,3.632,0,0,1,7.667,8.791l-.1.285a3.141,3.141,0,0,0-.146,1.467A5.031,5.031,0,0,0,9.059,9.529c.124-.115.243-.236.355-.362a5.168,5.168,0,0,0,1.177-4.388c-.02-.1-.042-.2-.068-.3h.011A5.093,5.093,0,0,0,4.491.833l0,0A5.082,5.082,0,0,0,2.243,9.589,5.043,5.043,0,0,0,4.9,10.822c-.019-.147-.032-.3-.039-.448A5.688,5.688,0,0,1,4.9,9.353,3.608,3.608,0,0,1,3.2,8.506Z"/></svg>