<svg width="16" height="16" viewBox="0 0 16 16" fill="none" xmlns="http://www.w3.org/2000/svg">
<path d="M13.7314 6.4013C13.5071 6.2042 13.2658 6.02723 13.0105 5.87243C12.4065 5.50546 11.7319 5.27006 11.0307 5.18159C11.0977 5.66738 11.0997 6.15992 11.0367 6.64624C11.3845 6.7098 11.7213 6.82328 12.0366 6.98316C12.5316 7.23279 12.9629 7.5924 13.2974 8.03443C13.6319 8.47646 13.8608 8.98919 13.9666 9.53333C14.0723 10.0775 14.0521 10.6386 13.9075 11.1737C13.7628 11.7089 13.4976 12.2038 13.1321 12.6206C12.7666 13.0374 12.3106 13.3651 11.7989 13.5784C11.2872 13.7918 10.7335 13.8852 10.1801 13.8516C9.62675 13.8179 9.08843 13.658 8.60639 13.3842C8.12435 13.1104 7.71139 12.7299 7.39913 12.2719C7.12705 11.8778 6.93572 11.4337 6.83617 10.9652C6.73663 10.4968 6.73085 10.0133 6.81916 9.54261C6.90747 9.07193 7.08812 8.6234 7.3507 8.22289C7.61328 7.82238 7.95258 7.47782 8.34902 7.2091C8.59589 6.66261 8.6789 6.05625 8.58799 5.46353C7.80998 5.75713 7.11629 6.23785 6.56823 6.86319C5.78154 7.75872 5.33542 8.90268 5.30818 10.0943C5.28094 11.2859 5.67431 12.4491 6.41925 13.3796C6.57768 13.5795 6.75117 13.767 6.93819 13.9405C6.96918 13.9705 7.00218 13.9985 7.03818 14.0285C8.05012 14.9167 9.37352 15.3667 10.7172 15.2793C11.3826 15.236 12.0329 15.0621 12.631 14.7676C13.2292 14.473 13.7634 14.0636 14.2033 13.5626C14.6432 13.0616 14.9801 12.4788 15.1947 11.8477C15.4094 11.2165 15.4976 10.5492 15.4543 9.88395C15.411 9.21868 15.2371 8.56845 14.9426 7.97039C14.648 7.37232 14.2384 6.83812 13.7374 6.3983L13.7314 6.4013Z" fill="black"/>
<path d="M3.19963 8.50679C2.6229 7.99499 2.22418 7.31284 2.06127 6.55922C1.89836 5.8056 1.97973 5.01969 2.29358 4.31542C2.60743 3.61115 3.13745 3.02513 3.8068 2.64231C4.47616 2.25949 5.25005 2.09978 6.0163 2.18632C6.28819 2.22148 6.55606 2.28275 6.8162 2.36927L6.88019 2.39227C7.30356 2.54173 7.69352 2.77269 8.02806 3.0721C8.36476 3.3697 8.64079 3.72954 8.84096 4.13185L8.86696 4.18383C8.93472 4.32444 8.9948 4.46862 9.04694 4.61573C9.30536 5.36699 9.31023 6.18226 9.06081 6.93655C8.8114 7.69085 8.32146 8.34254 7.6661 8.79172L7.56611 9.07665C7.40177 9.54703 7.35173 10.0498 7.42013 10.5433C8.02628 10.314 8.58241 9.96979 9.05794 9.52954C9.18192 9.41457 9.30091 9.2936 9.41289 9.16763C9.93032 8.57435 10.3053 7.8707 10.5093 7.1104C10.7133 6.3501 10.7408 5.55325 10.5898 4.78069C10.5698 4.68071 10.5478 4.58074 10.5218 4.48076H10.5328C10.1915 3.21049 9.3718 2.12155 8.24546 1.44206C7.11911 0.762574 5.77349 0.54526 4.49048 0.835643C3.5796 1.04259 2.74339 1.49659 2.07374 2.14774C1.40409 2.7989 0.926909 3.62202 0.694624 4.52667C0.462338 5.43131 0.483939 6.38248 0.757052 7.27565C1.03017 8.16882 1.54422 8.96943 2.24274 9.58953C2.98683 10.2542 3.9114 10.6832 4.89943 10.8222C4.88043 10.6753 4.86743 10.5223 4.86043 10.3743C4.84278 10.0336 4.85583 9.69198 4.89943 9.35358C4.26736 9.22818 3.68042 8.93578 3.19963 8.50679Z" fill="black"/>
</svg>
