<svg width="16" height="16" viewBox="0 0 16 16" fill="none" xmlns="http://www.w3.org/2000/svg">
<path d="M7.99999 0.175003C6.45235 0.175003 4.93947 0.633931 3.65265 1.49375C2.36584 2.35357 1.36289 3.57567 0.770634 5.0055C0.178378 6.43534 0.0234172 8.00868 0.325346 9.52658C0.627276 11.0445 1.37253 12.4388 2.46688 13.5331C3.56123 14.6275 4.95551 15.3727 6.47341 15.6746C7.99131 15.9766 9.56465 15.8216 10.9945 15.2294C12.4243 14.6371 13.6464 13.6342 14.5062 12.3473C15.3661 11.0605 15.825 9.54764 15.825 8C15.8226 5.92541 14.9974 3.93648 13.5305 2.46952C12.0635 1.00257 10.0746 0.177385 7.99999 0.175003ZM7.99999 15.2379C6.56882 15.2379 5.16979 14.8135 3.97982 14.0184C2.78986 13.2232 1.86241 12.0931 1.31477 10.7708C0.767132 9.44859 0.623895 7.99363 0.903176 6.58997C1.18246 5.18632 1.87171 3.897 2.88377 2.88508C3.89583 1.87316 5.18525 1.18408 6.58894 0.904993C7.99264 0.625906 9.44757 0.769344 10.7697 1.31717C12.0919 1.86499 13.222 2.79259 14.0169 3.98267C14.8119 5.17274 15.2361 6.57183 15.2359 8.003C15.2338 9.92135 14.4707 11.7605 13.1142 13.1169C11.7576 14.4733 9.91833 15.2361 7.99999 15.2379Z" fill="black"/>
<path d="M9.23715 8.39605C9.17431 8.39599 9.11248 8.38021 9.05728 8.35017C9.00209 8.32013 8.95528 8.27677 8.92111 8.22403L7.25089 5.6367H5.97673C5.87726 5.6367 5.78187 5.59719 5.71153 5.52685C5.6412 5.45652 5.60168 5.36112 5.60168 5.26165C5.60168 5.16218 5.6412 5.06679 5.71153 4.99645C5.78187 4.92612 5.87726 4.8866 5.97673 4.8866H7.45492C7.51761 4.88675 7.57927 4.90256 7.63429 4.9326C7.68931 4.96264 7.73595 5.00597 7.76996 5.05863L9.55119 7.81798C9.5876 7.87453 9.60813 7.93984 9.61063 8.00706C9.61313 8.07428 9.59751 8.14093 9.5654 8.20004C9.53329 8.25914 9.48588 8.30853 9.42813 8.34301C9.37037 8.3775 9.30441 8.39582 9.23715 8.39605Z" fill="black"/>
<path d="M7.45492 11.1534H5.97673C5.87726 11.1534 5.78187 11.1139 5.71153 11.0436C5.6412 10.9732 5.60168 10.8778 5.60168 10.7784C5.60168 10.6789 5.6412 10.5835 5.71153 10.5132C5.78187 10.4428 5.87726 10.4033 5.97673 10.4033H7.25089L8.92111 7.81798C8.94684 7.77462 8.98104 7.7369 9.02168 7.70706C9.06232 7.67723 9.10856 7.65589 9.15763 7.64433C9.2067 7.63277 9.2576 7.63122 9.30729 7.63978C9.35697 7.64833 9.40442 7.66682 9.4468 7.69413C9.48918 7.72144 9.52561 7.75702 9.55393 7.79873C9.58225 7.84044 9.60186 7.88743 9.61161 7.93689C9.62135 7.98636 9.62103 8.03728 9.61064 8.08662C9.60026 8.13595 9.58004 8.18269 9.55119 8.22403L7.76996 10.9814C7.73595 11.034 7.68931 11.0774 7.63429 11.1074C7.57927 11.1375 7.51761 11.1533 7.45492 11.1534Z" fill="black"/>
<path d="M10.7233 8.50106H9.23615C9.10883 8.50106 8.98672 8.45049 8.89669 8.36046C8.80666 8.27043 8.75609 8.14832 8.75609 8.021C8.75609 7.89368 8.80666 7.77158 8.89669 7.68155C8.98672 7.59152 9.10883 7.54094 9.23615 7.54094H10.7233C10.8507 7.54094 10.9728 7.59152 11.0628 7.68155C11.1528 7.77158 11.2034 7.89368 11.2034 8.021C11.2034 8.14832 11.1528 8.27043 11.0628 8.36046C10.9728 8.45049 10.8507 8.50106 10.7233 8.50106Z" fill="black"/>
<path d="M10.5003 9.34917V6.71084C10.5002 6.68021 10.5083 6.65012 10.5238 6.62367C10.5392 6.59722 10.5614 6.57537 10.5882 6.56039C10.6149 6.5454 10.6451 6.53782 10.6757 6.53842C10.7063 6.53902 10.7362 6.54779 10.7623 6.56382L12.7226 7.75597C12.7727 7.78585 12.8143 7.82825 12.8431 7.879C12.8719 7.92976 12.8871 7.98713 12.8871 8.04551C12.8871 8.10388 12.8719 8.16126 12.8431 8.21201C12.8143 8.26277 12.7727 8.30516 12.7226 8.33504L10.7643 9.49819C10.7381 9.51484 10.7078 9.52405 10.6767 9.52484C10.6456 9.52563 10.6148 9.51797 10.5877 9.50268C10.5606 9.48739 10.5382 9.46504 10.5228 9.43801C10.5074 9.41098 10.4996 9.38027 10.5003 9.34917Z" fill="black"/>
<path d="M5.24164 6.37379C5.02231 6.3736 4.80797 6.30838 4.6257 6.18638C4.44344 6.06439 4.30143 5.8911 4.21764 5.68841C4.13384 5.48572 4.11202 5.26274 4.15493 5.04766C4.19784 4.83257 4.30355 4.63503 4.45871 4.48002C4.61387 4.325 4.8115 4.21947 5.02662 4.17675C5.24175 4.13403 5.46471 4.15606 5.66732 4.24004C5.86993 4.32401 6.04309 4.46617 6.16492 4.64855C6.28675 4.83093 6.35178 5.04533 6.35178 5.26465C6.35125 5.55883 6.23409 5.84078 6.02598 6.0487C5.81787 6.25662 5.53581 6.37353 5.24164 6.37379ZM5.24164 4.90561C5.17067 4.9058 5.10135 4.92703 5.04244 4.9666C4.98352 5.00617 4.93766 5.06232 4.91064 5.12794C4.88361 5.19357 4.87665 5.26573 4.89061 5.33531C4.90458 5.40489 4.93885 5.46877 4.98911 5.51889C5.03936 5.569 5.10334 5.6031 5.17296 5.61687C5.24258 5.63064 5.31472 5.62348 5.38027 5.59627C5.44582 5.56907 5.50183 5.52305 5.54124 5.46402C5.58065 5.405 5.60168 5.33562 5.60168 5.26465C5.60168 5.21742 5.59236 5.17065 5.57426 5.12702C5.55615 5.08339 5.52961 5.04377 5.49617 5.01041C5.46272 4.97706 5.42302 4.95063 5.37935 4.93265C5.33567 4.91466 5.28887 4.90547 5.24164 4.90561Z" fill="black"/>
<path d="M5.24164 11.8875C5.02203 11.8875 4.80736 11.8224 4.62477 11.7003C4.44219 11.5783 4.2999 11.4049 4.21591 11.202C4.13191 10.999 4.10998 10.7758 4.1529 10.5604C4.19582 10.345 4.30165 10.1472 4.457 9.99201C4.61236 9.8368 4.81026 9.73115 5.02567 9.68842C5.24109 9.6457 5.46433 9.66783 5.66716 9.75201C5.87 9.83618 6.04331 9.97863 6.16517 10.1613C6.28704 10.344 6.35198 10.5587 6.35178 10.7784C6.35125 11.0725 6.23409 11.3545 6.02598 11.5624C5.81787 11.7703 5.53581 11.8872 5.24164 11.8875ZM5.24164 10.4183C5.17043 10.4183 5.10082 10.4394 5.04161 10.479C4.9824 10.5186 4.93625 10.5748 4.909 10.6406C4.88175 10.7064 4.87462 10.7788 4.88851 10.8486C4.9024 10.9184 4.93669 10.9826 4.98705 11.0329C5.0374 11.0833 5.10155 11.1176 5.1714 11.1315C5.24124 11.1454 5.31363 11.1382 5.37942 11.111C5.44521 11.0837 5.50144 11.0376 5.541 10.9784C5.58057 10.9192 5.60168 10.8496 5.60168 10.7784C5.60168 10.6829 5.56375 10.5913 5.49623 10.5238C5.42871 10.4562 5.33713 10.4183 5.24164 10.4183Z" fill="black"/>
</svg>
