<svg width="16" height="16" viewBox="0 0 16 16" fill="none" xmlns="http://www.w3.org/2000/svg">
<path d="M7.99999 0.174988C6.45235 0.174988 4.93947 0.633916 3.65265 1.49374C2.36584 2.35356 1.36289 3.57566 0.770634 5.00549C0.178378 6.43532 0.0234172 8.00867 0.325346 9.52657C0.627276 11.0445 1.37253 12.4387 2.46688 13.5331C3.56123 14.6274 4.95551 15.3727 6.47341 15.6746C7.99131 15.9766 9.56465 15.8216 10.9945 15.2293C12.4243 14.6371 13.6464 13.6341 14.5062 12.3473C15.3661 11.0605 15.825 9.54762 15.825 7.99999C15.8226 5.9254 14.9974 3.93646 13.5305 2.46951C12.0635 1.00255 10.0746 0.17737 7.99999 0.174988ZM7.99999 15.2379C6.56882 15.2379 5.16979 14.8135 3.97982 14.0184C2.78986 13.2232 1.86241 12.0931 1.31477 10.7708C0.767132 9.44857 0.623895 7.99362 0.903176 6.58996C1.18246 5.1863 1.87171 3.89698 2.88377 2.88506C3.89583 1.87314 5.18525 1.18406 6.58894 0.904978C7.99264 0.625891 9.44757 0.769329 10.7697 1.31715C12.0919 1.86498 13.222 2.79258 14.0169 3.98265C14.8119 5.17272 15.2361 6.57181 15.2359 8.00299C15.2338 9.92133 14.4707 11.7605 13.1142 13.1169C11.7576 14.4732 9.91833 15.2361 7.99999 15.2379Z" fill="black"/>
<path d="M9.23715 8.39604C9.17431 8.39597 9.11248 8.3802 9.05728 8.35016C9.00209 8.32011 8.95528 8.27675 8.92111 8.22401L7.25089 5.63668H5.97673C5.87726 5.63668 5.78187 5.59717 5.71153 5.52684C5.6412 5.4565 5.60168 5.36111 5.60168 5.26164C5.60168 5.16217 5.6412 5.06677 5.71153 4.99644C5.78187 4.9261 5.87726 4.88659 5.97673 4.88659H7.45492C7.51761 4.88673 7.57927 4.90254 7.63429 4.93258C7.68931 4.96263 7.73595 5.00595 7.76996 5.05861L9.55119 7.81796C9.5876 7.87452 9.60813 7.93983 9.61063 8.00705C9.61313 8.07426 9.59751 8.14092 9.5654 8.20002C9.53329 8.25913 9.48588 8.30851 9.42813 8.343C9.37037 8.37748 9.30441 8.3958 9.23715 8.39604Z" fill="black"/>
<path d="M7.45492 11.1534H5.97673C5.87726 11.1534 5.78187 11.1139 5.71153 11.0435C5.6412 10.9732 5.60168 10.8778 5.60168 10.7783C5.60168 10.6789 5.6412 10.5835 5.71153 10.5131C5.78187 10.4428 5.87726 10.4033 5.97673 10.4033H7.25089L8.92111 7.81796C8.94684 7.77461 8.98104 7.73688 9.02168 7.70705C9.06232 7.67721 9.10856 7.65588 9.15763 7.64432C9.2067 7.63276 9.2576 7.63121 9.30729 7.63976C9.35697 7.64832 9.40442 7.66681 9.4468 7.69412C9.48918 7.72143 9.52561 7.757 9.55393 7.79871C9.58225 7.84042 9.60186 7.88741 9.61161 7.93688C9.62135 7.98634 9.62103 8.03727 9.61064 8.0866C9.60026 8.13594 9.58004 8.18267 9.55119 8.22401L7.76996 10.9814C7.73595 11.034 7.68931 11.0773 7.63429 11.1074C7.57927 11.1374 7.51761 11.1532 7.45492 11.1534Z" fill="black"/>
<path d="M10.7233 8.50105H9.23615C9.10883 8.50105 8.98672 8.45047 8.89669 8.36044C8.80666 8.27041 8.75609 8.14831 8.75609 8.02099C8.75609 7.89367 8.80666 7.77156 8.89669 7.68153C8.98672 7.59151 9.10883 7.54093 9.23615 7.54093H10.7233C10.8507 7.54093 10.9728 7.59151 11.0628 7.68153C11.1528 7.77156 11.2034 7.89367 11.2034 8.02099C11.2034 8.14831 11.1528 8.27041 11.0628 8.36044C10.9728 8.45047 10.8507 8.50105 10.7233 8.50105Z" fill="black"/>
<path d="M10.5003 9.34916V6.71082C10.5002 6.68019 10.5083 6.6501 10.5238 6.62365C10.5392 6.59721 10.5614 6.57536 10.5882 6.56037C10.6149 6.54539 10.6451 6.5378 10.6757 6.53841C10.7063 6.53901 10.7362 6.54778 10.7623 6.5638L12.7226 7.75595C12.7727 7.78584 12.8143 7.82823 12.8431 7.87899C12.8719 7.92974 12.8871 7.98712 12.8871 8.04549C12.8871 8.10387 12.8719 8.16124 12.8431 8.212C12.8143 8.26275 12.7727 8.30515 12.7226 8.33503L10.7643 9.49818C10.7381 9.51482 10.7078 9.52403 10.6767 9.52482C10.6456 9.52561 10.6148 9.51796 10.5877 9.50266C10.5606 9.48737 10.5382 9.46502 10.5228 9.43799C10.5074 9.41096 10.4996 9.38026 10.5003 9.34916Z" fill="black"/>
<path d="M5.24164 6.37378C5.02231 6.37358 4.80797 6.30836 4.6257 6.18637C4.44344 6.06437 4.30143 5.89108 4.21764 5.68839C4.13384 5.48571 4.11202 5.26273 4.15493 5.04764C4.19784 4.83256 4.30355 4.63502 4.45871 4.48C4.61387 4.32499 4.8115 4.21945 5.02662 4.17673C5.24175 4.13402 5.46471 4.15604 5.66732 4.24002C5.86993 4.324 6.04309 4.46616 6.16492 4.64854C6.28675 4.83091 6.35178 5.04531 6.35178 5.26464C6.35125 5.55881 6.23409 5.84077 6.02598 6.04869C5.81787 6.25661 5.53581 6.37351 5.24164 6.37378ZM5.24164 4.90559C5.17067 4.90579 5.10135 4.92701 5.04244 4.96659C4.98352 5.00616 4.93766 5.0623 4.91064 5.12793C4.88361 5.19355 4.87665 5.26571 4.89061 5.33529C4.90458 5.40488 4.93885 5.46876 4.98911 5.51887C5.03936 5.56899 5.10334 5.60308 5.17296 5.61686C5.24258 5.63063 5.31472 5.62346 5.38027 5.59626C5.44582 5.56905 5.50183 5.52303 5.54124 5.46401C5.58065 5.40498 5.60168 5.33561 5.60168 5.26464C5.60168 5.2174 5.59236 5.17063 5.57426 5.127C5.55615 5.08338 5.52961 5.04375 5.49617 5.0104C5.46272 4.97705 5.42302 4.95062 5.37935 4.93263C5.33567 4.91465 5.28887 4.90546 5.24164 4.90559Z" fill="black"/>
<path d="M5.24164 11.8875C5.02203 11.8875 4.80736 11.8223 4.62477 11.7003C4.44219 11.5783 4.2999 11.4049 4.21591 11.2019C4.13191 10.999 4.10998 10.7758 4.1529 10.5604C4.19582 10.345 4.30165 10.1472 4.457 9.992C4.61236 9.83678 4.81026 9.73113 5.02567 9.68841C5.24109 9.64569 5.46433 9.66781 5.66716 9.75199C5.87 9.83617 6.04331 9.97861 6.16517 10.1613C6.28704 10.344 6.35198 10.5587 6.35178 10.7783C6.35125 11.0725 6.23409 11.3545 6.02598 11.5624C5.81787 11.7703 5.53581 11.8872 5.24164 11.8875ZM5.24164 10.4183C5.17043 10.4183 5.10082 10.4394 5.04161 10.479C4.9824 10.5185 4.93625 10.5748 4.909 10.6406C4.88175 10.7063 4.87462 10.7787 4.88851 10.8486C4.9024 10.9184 4.93669 10.9826 4.98705 11.0329C5.0374 11.0833 5.10155 11.1176 5.1714 11.1315C5.24124 11.1454 5.31363 11.1382 5.37942 11.111C5.44521 11.0837 5.50144 11.0376 5.541 10.9784C5.58057 10.9192 5.60168 10.8496 5.60168 10.7783C5.60168 10.6828 5.56375 10.5913 5.49623 10.5237C5.42871 10.4562 5.33713 10.4183 5.24164 10.4183Z" fill="black"/>
</svg>
