<svg id="Layer_1" data-name="Layer 1" xmlns="http://www.w3.org/2000/svg" viewBox="0 0 16 16">
  <title>note</title>
  <g>
    <rect x="3.253" y="7.738" width="7.053" height="1.056" fill="#010101"/>
    <rect x="3.253" y="5.546" width="9.458" height="1.056" fill="#010101"/>
    <rect x="3.253" y="3.451" width="9.458" height="1.056" fill="#010101"/>
    <path d="M15.82,11.015a.827.827,0,0,1-.193.93l-3.8,3.66a.892.892,0,0,1-.626.25A.872.872,0,0,1,10.306,15V11.575a1.115,1.115,0,0,1,1.141-1.083h3.56A.876.876,0,0,1,15.82,11.015Zm-4.087,2.733,1.956-1.881" fill="#010101"/>
    <path d="M14.628.145H1.434A1.17,1.17,0,0,0,.174,1.192V14.808a1.17,1.17,0,0,0,1.26,1.047H11.3l-.016-1.341H1.787V1.486H14.276V11.41h1.612V1.192A1.17,1.17,0,0,0,14.628.145Z" fill="#010101"/>
  </g>
</svg>
