<svg id="Layer_1" data-name="Layer 1" xmlns="http://www.w3.org/2000/svg" viewBox="0 0 16 16"><defs><style>.cls-1{fill:#010101;}.cls-2{fill:#231f20;}.cls-3{fill:none;}</style></defs><title>payment-sources</title><path class="cls-1" d="M13.367,2.094a.525.525,0,0,1,.525.525V13.381a.525.525,0,0,1-.525.525H5.094a.525.525,0,0,1-.525-.525V2.619a.525.525,0,0,1,.525-.525h8.273m0-1.094H5.094A1.618,1.618,0,0,0,3.476,2.619V13.381A1.618,1.618,0,0,0,5.094,15h8.273a1.618,1.618,0,0,0,1.618-1.618V2.619A1.618,1.618,0,0,0,13.367,1Z"/><path class="cls-2" d="M6.66,11.086l.773-.955c.046-.056.1-.068.149-.023a2.648,2.648,0,0,0,1.364.6V8.766A2.234,2.234,0,0,1,6.808,6.526,2.342,2.342,0,0,1,8.946,4.137V3.466a.108.108,0,0,1,.114-.114h.524a.108.108,0,0,1,.114.114v.671a3.877,3.877,0,0,1,1.808.614.114.114,0,0,1,.023.171l-.66.955a.114.114,0,0,1-.16.034,2.845,2.845,0,0,0-1.012-.4V7.345a2.2,2.2,0,0,1,2.15,2.264A2.354,2.354,0,0,1,9.7,12.054v.694a.108.108,0,0,1-.114.114H9.06a.107.107,0,0,1-.114-.114v-.66a3.969,3.969,0,0,1-2.263-.83A.115.115,0,0,1,6.66,11.086ZM8.946,5.57a.862.862,0,0,0-.569.83.764.764,0,0,0,.569.8Zm1.331,4.118a.762.762,0,0,0-.58-.762v1.706A.931.931,0,0,0,10.277,9.688Z"/><path class="cls-3" d="M2.108,3.495v9.011a.525.525,0,0,0,.525.525h.279V2.97H2.633A.525.525,0,0,0,2.108,3.495Z"/><path class="cls-1" d="M2.633,13.03a.525.525,0,0,1-.525-.525V3.495a.525.525,0,0,1,.525-.525h.279V1.876H2.633A1.618,1.618,0,0,0,1.015,3.495v9.011a1.618,1.618,0,0,0,1.618,1.618h.279V13.03Z"/></svg>