<svg id="Layer_1" data-name="Layer 1" xmlns="http://www.w3.org/2000/svg" viewBox="0 0 16 16"><title>payment-sources</title><path d="M13.37,2.09a.52.52,0,0,1,.52.53V13.38a.52.52,0,0,1-.52.53H5.09a.52.52,0,0,1-.52-.53V2.62a.52.52,0,0,1,.52-.53h8.28m0-1.09H5.09A1.62,1.62,0,0,0,3.48,2.62V13.38A1.62,1.62,0,0,0,5.09,15h8.28A1.63,1.63,0,0,0,15,13.38V2.62A1.63,1.63,0,0,0,13.37,1Z"/><path d="M6.66,11.09l.77-1c.05-.06.11-.07.15,0a2.7,2.7,0,0,0,1.37.6V8.77A2.24,2.24,0,0,1,6.81,6.53,2.34,2.34,0,0,1,9,4.14V3.47a.11.11,0,0,1,.11-.12h.52a.12.12,0,0,1,.12.12v.67a3.81,3.81,0,0,1,1.81.61.12.12,0,0,1,0,.17l-.66,1s-.1.07-.16,0a3,3,0,0,0-1-.4V7.34a2.21,2.21,0,0,1,2.15,2.27A2.35,2.35,0,0,1,9.7,12.05v.7a.11.11,0,0,1-.12.11H9.06A.1.1,0,0,1,9,12.75v-.66a4.06,4.06,0,0,1-2.27-.83A.12.12,0,0,1,6.66,11.09ZM9,5.57a.85.85,0,0,0-.57.83A.76.76,0,0,0,9,7.2Zm1.33,4.12a.76.76,0,0,0-.58-.76v1.7A.94.94,0,0,0,10.28,9.69Z"/><path d="M2.11,3.49v9a.52.52,0,0,0,.52.52h.28V3H2.63A.52.52,0,0,0,2.11,3.49Z"/><path d="M2.63,13a.52.52,0,0,1-.52-.52v-9A.52.52,0,0,1,2.63,3h.28V1.88H2.63A1.62,1.62,0,0,0,1,3.49v9a1.62,1.62,0,0,0,1.62,1.61h.28V13Z"/></svg>