<svg id="Layer_1" data-name="Layer 1" xmlns="http://www.w3.org/2000/svg" viewBox="0 0 16 16"><title>payment-sources</title><path d="M13.367,2.094a.526.526,0,0,1,.525.525V13.381a.526.526,0,0,1-.525.525H5.094a.526.526,0,0,1-.525-.525V2.619a.526.526,0,0,1,.525-.525h8.273m0-1.093H5.094A1.617,1.617,0,0,0,3.476,2.619V13.381A1.617,1.617,0,0,0,5.094,15h8.273a1.617,1.617,0,0,0,1.618-1.618V2.619A1.617,1.617,0,0,0,13.367,1Z"/><path d="M6.66,11.086l.773-.955c.046-.056.1-.068.149-.023a2.644,2.644,0,0,0,1.364.6V8.766a2.233,2.233,0,0,1-2.138-2.24A2.341,2.341,0,0,1,8.946,4.137V3.466a.108.108,0,0,1,.114-.114h.523a.108.108,0,0,1,.114.114v.671a3.878,3.878,0,0,1,1.808.614.115.115,0,0,1,.023.171l-.66.955a.113.113,0,0,1-.159.034,2.861,2.861,0,0,0-1.012-.4V7.345a2.2,2.2,0,0,1,2.15,2.263A2.356,2.356,0,0,1,9.7,12.054v.693a.108.108,0,0,1-.114.114H9.06a.107.107,0,0,1-.114-.114v-.659a3.969,3.969,0,0,1-2.263-.831A.115.115,0,0,1,6.66,11.086ZM8.946,5.57a.862.862,0,0,0-.569.83.764.764,0,0,0,.569.8Zm1.331,4.118a.762.762,0,0,0-.58-.762v1.706A.931.931,0,0,0,10.277,9.688Z"/><path d="M2.108,3.5v9.01a.526.526,0,0,0,.525.525h.279V2.97H2.633A.526.526,0,0,0,2.108,3.5Z"/><path d="M2.633,13.03a.526.526,0,0,1-.525-.525V3.5a.526.526,0,0,1,.525-.525h.279V1.876H2.633A1.618,1.618,0,0,0,1.015,3.5v9.01a1.618,1.618,0,0,0,1.618,1.619h.279V13.03Z"/></svg>