<svg width="16" height="16" viewBox="0 0 16 16" fill="none" xmlns="http://www.w3.org/2000/svg">
<path fill-rule="evenodd" clip-rule="evenodd" d="M14.899 0H2.41901L4.66801 1.50057H13.183C13.331 1.49596 13.4749 1.55052 13.583 1.6523C13.6911 1.75409 13.7548 1.89481 13.76 2.04368V2.05172C13.7548 2.20059 13.6911 2.34132 13.583 2.4431C13.4749 2.54489 13.331 2.59944 13.183 2.59483H6.33401L7.87001 3.62069H13.183C13.3311 3.61581 13.4751 3.67027 13.5833 3.77211C13.6915 3.87395 13.755 4.01483 13.76 4.16379V4.17083C13.755 4.31979 13.6915 4.46067 13.5833 4.56251C13.4751 4.66435 13.3311 4.71882 13.183 4.71394H9.61501L9.66801 4.75014C9.94268 4.93269 10.168 5.18099 10.3237 5.47274C10.4794 5.7645 10.5606 6.09058 10.56 6.42169V11.1095H14.899C14.9938 11.1095 15.0876 11.0907 15.1751 11.0542C15.2627 11.0177 15.3422 10.9642 15.4092 10.8967C15.4761 10.8293 15.5292 10.7492 15.5654 10.6611C15.6016 10.573 15.6201 10.4786 15.62 10.3833V0.726149C15.6201 0.630837 15.6016 0.536435 15.5654 0.44834C15.5292 0.360245 15.4761 0.280187 15.4092 0.212745C15.3422 0.145303 15.2627 0.0917991 15.1751 0.0552943C15.0876 0.0187896 14.9938 -9.16738e-08 14.899 0Z" fill="black"/>
<path fill-rule="evenodd" clip-rule="evenodd" d="M9.26401 5.61911L0.936009 0.0603448C0.88195 0.0242508 0.819154 0.00361196 0.754335 0.000635103C0.689516 -0.00234175 0.625111 0.0124553 0.568007 0.0434441C0.510902 0.0744329 0.463246 0.120448 0.430132 0.17657C0.397019 0.232692 0.379694 0.29681 0.380009 0.362069V8.49554C0.379932 8.67475 0.420516 8.8516 0.498672 9.01265C0.576827 9.17369 0.690491 9.31467 0.831009 9.42485L9.11401 15.924C9.16687 15.9654 9.23022 15.9911 9.29686 15.9981C9.36351 16.005 9.43076 15.9931 9.49098 15.9635C9.5512 15.934 9.60197 15.888 9.63751 15.8309C9.67304 15.7738 9.69193 15.7078 9.69201 15.6404V6.42069C9.6921 6.26191 9.65306 6.10558 9.57836 5.96569C9.50367 5.82581 9.39567 5.70673 9.26401 5.61911Z" fill="black"/>
</svg>
