<svg id="Layer_1" data-name="Layer 1" xmlns="http://www.w3.org/2000/svg" viewBox="0 0 16 16"><title>person-group</title><path d="M16,14.92a23.36,23.36,0,0,0-.22-3.34c-.28-.47-.92-.79-2.11-1.29s-1.56-.92-1.56-1.81c0-.54.36-.36.52-1.35.06-.41.38,0,.44-.94,0-.37-.17-.46-.17-.46s.09-.55.12-1a1.77,1.77,0,0,0-1.91-1.89A1.77,1.77,0,0,0,9.23,4.76c0,.42.12,1,.12,1s-.17.09-.17.46c.06.94.38.53.44.94.16,1,.53.81.53,1.35a1.44,1.44,0,0,1-.67,1.34c2.6,1.3,2.94,1.56,2.94,2.72v2.38ZM8.2,10.74c-1.58-.66-2.08-1.22-2.08-2.41,0-.72.48-.49.69-1.8.09-.55.52,0,.6-1.25,0-.5-.24-.62-.24-.62s.12-.74.17-1.3A2.37,2.37,0,0,0,4.79.84,2.37,2.37,0,0,0,2.24,3.36c0,.57.16,1.3.16,1.3s-.23.12-.23.62c.08,1.24.51.7.6,1.25.21,1.31.69,1.08.69,1.8,0,1.19-.5,1.75-2.09,2.41C.89,10.94,0,11.25,0,12v2.92H11.14V12.73C11.14,12.05,9.79,11.4,8.2,10.74Z"/></svg>