<svg width="16" height="16" viewBox="0 0 16 16" fill="none" xmlns="http://www.w3.org/2000/svg">
<path d="M12.528 11.7863C10.428 11.0213 9.759 10.3764 9.759 8.99546C9.759 8.16652 10.4 8.4375 10.681 6.9196C10.798 6.28964 11.364 6.9086 11.472 5.47169C11.472 4.89873 11.163 4.75574 11.163 4.75574C11.163 4.75574 11.32 3.90779 11.382 3.25584C11.458 2.43989 10.912 0.340027 8 0.340027C5.088 0.340027 4.542 2.43989 4.618 3.25584C4.68 3.90779 4.837 4.75574 4.837 4.75574C4.837 4.75574 4.528 4.89873 4.528 5.47169C4.636 6.9086 5.202 6.28964 5.318 6.9196C5.6 8.4395 6.24 8.16652 6.24 8.99546C6.24 10.3764 5.57 11.0213 3.472 11.7863C1.374 12.5512 0 13.3392 0 13.8681V15.66H16V13.8681C16 13.3392 14.633 12.5532 12.528 11.7863Z" fill="black"/>
</svg>
