<svg id="Layer_1" data-name="Layer 1" xmlns="http://www.w3.org/2000/svg" viewBox="0 0 16 16"><title>person-plus</title><path d="M14.74,12.74a1,1,0,0,1-.85.5H12.43a1,1,0,0,1-1-1v-.74h-.75a1,1,0,0,1-1-1V9c0-.82.64-.55.92-2.07.12-.63.68,0,.79-1.45,0-.57-.31-.72-.31-.72s.16-.84.22-1.5S10.91.34,8,.34,4.54,2.44,4.62,3.25c.06.66.22,1.5.22,1.5s-.31.15-.31.72c.11,1.44.67.82.79,1.45.28,1.52.92,1.25.92,2.07,0,1.39-.67,2-2.77,2.8S0,13.33,0,13.87v1.79H16V13.87C16,13.56,15.54,13.16,14.74,12.74Z"/><path d="M10.56,9.11v1.47a.16.16,0,0,0,.16.16h1.55v1.54a.16.16,0,0,0,.16.16h1.46a.16.16,0,0,0,.16-.16V10.74H15.6a.16.16,0,0,0,.16-.16V9.11A.16.16,0,0,0,15.6,9H14.05V7.4a.16.16,0,0,0-.16-.16H12.43a.16.16,0,0,0-.16.16V9H10.72A.16.16,0,0,0,10.56,9.11Z"/></svg>