<svg id="Layer_1" data-name="Layer 1" xmlns="http://www.w3.org/2000/svg" viewBox="0 0 16 16"><title>person-cog</title><path d="M9.488,14.519l.254-.431c-.028-.061-.053-.123-.077-.186L9.18,13.78a.524.524,0,0,1-.395-.507V12.212a.522.522,0,0,1,.395-.506l.487-.124q.034-.091.075-.18l-.258-.432a.522.522,0,0,1,.078-.638l.4-.4a2.485,2.485,0,0,1-.2-1.035c0-.829.641-.558.922-2.076.117-.63.683-.01.791-1.448,0-.573-.309-.716-.309-.716s.157-.848.219-1.5C11.458,2.348,10.912.247,8,.247s-3.458,2.1-3.382,2.914c.062.652.219,1.5.219,1.5s-.309.143-.309.716c.108,1.438.674.818.79,1.448C5.6,8.343,6.24,8.072,6.24,8.9c0,1.381-.67,2.026-2.768,2.791S0,13.241,0,13.774v1.792H9.98l-.412-.412A.522.522,0,0,1,9.488,14.519Z"/><path d="M16,13.246V12.227l-.733-.184a2.588,2.588,0,0,0-.256-.615l.384-.651-.722-.722-.649.389a2.822,2.822,0,0,0-.615-.255l-.18-.726H12.212l-.185.733a2.6,2.6,0,0,0-.615.255l-.65-.384-.717.717.39.65a2.834,2.834,0,0,0-.256.615l-.733.184v1.019l.733.184a2.63,2.63,0,0,0,.256.615l-.384.651.722.722.65-.389a2.846,2.846,0,0,0,.614.256l.191.731h1.007l.185-.731a2.63,2.63,0,0,0,.615-.256l.65.384.722-.723-.389-.65a2.834,2.834,0,0,0,.256-.615Zm-3.275.937h0a1.445,1.445,0,1,1,1.445-1.444A1.444,1.444,0,0,1,12.723,14.183Z"/></svg>