<svg id="Layer_1" data-name="Layer 1" xmlns="http://www.w3.org/2000/svg" viewBox="0 0 16 16"><title>person-cog</title><path d="M9.49,14.52l.25-.43a1.07,1.07,0,0,1-.07-.19l-.49-.12a.53.53,0,0,1-.39-.51V12.21a.51.51,0,0,1,.39-.5l.49-.13.07-.18L9.48,11a.53.53,0,0,1,.08-.64l.4-.39a2.57,2.57,0,0,1-.2-1c0-.83.64-.56.92-2.08.12-.63.68,0,.79-1.44,0-.58-.31-.72-.31-.72s.16-.85.22-1.5C11.46,2.35,10.91.25,8,.25S4.54,2.35,4.62,3.16c.06.65.22,1.5.22,1.5s-.31.14-.31.72c.11,1.43.67.81.79,1.44.28,1.52.92,1.25.92,2.08,0,1.38-.67,2-2.77,2.79S0,13.24,0,13.77v1.8H10l-.41-.42A.51.51,0,0,1,9.49,14.52Z"/><path d="M16,13.25v-1L15.27,12a2.73,2.73,0,0,0-.26-.61l.39-.65-.73-.72-.65.38a3.26,3.26,0,0,0-.61-.25l-.18-.73h-1L12,10.2a2.37,2.37,0,0,0-.62.25l-.65-.38-.72.71.39.65a3.35,3.35,0,0,0-.25.62l-.73.18v1l.73.19a2.7,2.7,0,0,0,.25.61l-.38.65.72.72.65-.39a2.81,2.81,0,0,0,.62.26l.19.73h1l.18-.73A2.34,2.34,0,0,0,14,15l.66.39.72-.72L15,14.05a2.78,2.78,0,0,0,.25-.62Zm-3.27.93h0a1.45,1.45,0,1,1,1.45-1.44A1.44,1.44,0,0,1,12.72,14.18Z"/></svg>