<svg id="Layer_1" data-name="Layer 1" xmlns="http://www.w3.org/2000/svg" viewBox="0 0 16 16">
  <title>phone-currency</title>
  <g>
    <path d="M8.412,9.229a.827.827,0,0,1-.494.152,2.155,2.155,0,0,1-1.4-.637L5.894,9.9a1.905,1.905,0,0,0,.372.264,3.223,3.223,0,0,0,.486.222,3.8,3.8,0,0,0,.529.153c.053.011.105.021.156.028v.794H8.8v-.91a3.663,3.663,0,0,0,.445-.2,1.773,1.773,0,0,0,.5-.391,1.382,1.382,0,0,0,.275-.505,2.267,2.267,0,0,0,.084-.652,1.432,1.432,0,0,0-.336-.985,2.538,2.538,0,0,0-1.095-.641l-.453-.152A1.066,1.066,0,0,1,7.839,6.7a.408.408,0,0,1-.146-.292.38.38,0,0,1,.184-.3.8.8,0,0,1,.476-.133,1.6,1.6,0,0,1,.967.377l.566-1.1a3,3,0,0,0-1.085-.4V4.024H7.437v.847a1.47,1.47,0,0,0-.34.139,1.682,1.682,0,0,0-.486.406,1.6,1.6,0,0,0-.292.548,2.116,2.116,0,0,0-.095.636,1.662,1.662,0,0,0,.084.556,1.206,1.206,0,0,0,.26.434,1.7,1.7,0,0,0,.453.336,4.138,4.138,0,0,0,.666.269l.438.137c.332.108.5.275.5.5A.474.474,0,0,1,8.412,9.229Z" fill="#010101"/>
    <path d="M11.379.546H4.621A1.4,1.4,0,0,0,3.257,1.91V14.09a1.4,1.4,0,0,0,1.364,1.364h6.758a1.4,1.4,0,0,0,1.364-1.364V1.91A1.4,1.4,0,0,0,11.379.546Zm-4.561,1a.057.057,0,0,1,.05-.063H9.134a.057.057,0,0,1,.05.063v.057a.06.06,0,0,1-.051.064H6.868a.058.058,0,0,1-.05-.064ZM8,14.556a.582.582,0,1,1,.582-.582A.583.583,0,0,1,8,14.556ZM11.377,12.7H4.621V2.576h6.756Z" fill="#010101"/>
  </g>
</svg>
