<svg width="16" height="16" viewBox="0 0 16 16" fill="none" xmlns="http://www.w3.org/2000/svg">
<path d="M10.912 13.336C10.9113 13.4514 10.8651 13.5618 10.7835 13.6434C10.7019 13.725 10.5915 13.7712 10.4762 13.772H2.87868C2.76317 13.7717 2.65246 13.7257 2.57078 13.644C2.4891 13.5623 2.44309 13.4515 2.44283 13.336V2.66399C2.44309 2.54843 2.4891 2.43769 2.57078 2.35598C2.65246 2.27427 2.76317 2.22825 2.87868 2.22799H10.4762C10.5915 2.22877 10.7019 2.27496 10.7835 2.35656C10.8651 2.43815 10.9113 2.54859 10.912 2.66399V6.31699L11.4349 5.79399V2.66399C11.4343 2.40981 11.3332 2.16619 11.1535 1.98645C10.9738 1.80672 10.7303 1.70552 10.4762 1.70499H2.87868C2.62459 1.70552 2.38105 1.80672 2.20137 1.98645C2.0217 2.16619 1.92053 2.40981 1.92 2.66399V13.336C1.92053 13.5902 2.0217 13.8338 2.20137 14.0135C2.38105 14.1933 2.62459 14.2945 2.87868 14.295H10.4762C10.7303 14.2945 10.9738 14.1933 11.1535 14.0135C11.3332 13.8338 11.4343 13.5902 11.4349 13.336V10.619L10.912 11.141V13.336Z" fill="black"/>
<path d="M9.72743 4.15299C9.72743 4.11863 9.72065 4.08461 9.70747 4.05287C9.6943 4.02114 9.67499 3.99233 9.65066 3.96808C9.62632 3.94383 9.59744 3.92462 9.56567 3.91157C9.5339 3.89851 9.49986 3.89186 9.46552 3.89199H3.72241C3.65587 3.8961 3.59341 3.92545 3.54774 3.97404C3.50208 4.02262 3.47666 4.0868 3.47666 4.15349C3.47666 4.22017 3.50208 4.28435 3.54774 4.33294C3.59341 4.38153 3.65587 4.41087 3.72241 4.41499H9.46252C9.49716 4.41538 9.53154 4.4089 9.56367 4.39591C9.59579 4.38292 9.62502 4.36369 9.64966 4.33932C9.6743 4.31495 9.69386 4.28593 9.70721 4.25395C9.72056 4.22196 9.72743 4.18765 9.72743 4.15299Z" fill="black"/>
<path d="M3.72241 5.96899H7.45518C7.52438 5.96899 7.59074 5.94149 7.63967 5.89254C7.6886 5.84359 7.71609 5.77721 7.71609 5.70799C7.71609 5.63877 7.6886 5.57238 7.63967 5.52343C7.59074 5.47448 7.52438 5.44699 7.45518 5.44699H3.72241C3.65321 5.44699 3.58684 5.47448 3.53791 5.52343C3.48898 5.57238 3.46149 5.63877 3.46149 5.70799C3.46149 5.77721 3.48898 5.84359 3.53791 5.89254C3.58684 5.94149 3.65321 5.96899 3.72241 5.96899Z" fill="black"/>
<path d="M8.76175 7.26199C8.76188 7.22754 8.7552 7.19341 8.74208 7.16157C8.72896 7.12972 8.70968 7.10079 8.68533 7.07643C8.66098 7.05207 8.63206 7.03278 8.60022 7.01966C8.56838 7.00654 8.53427 6.99985 8.49983 6.99999H3.72241C3.65587 7.0041 3.59341 7.03345 3.54774 7.08204C3.50208 7.13062 3.47666 7.1948 3.47666 7.26149C3.47666 7.32817 3.50208 7.39235 3.54774 7.44094C3.59341 7.48953 3.65587 7.51887 3.72241 7.52299H8.49983C8.56912 7.52299 8.63559 7.49552 8.68468 7.4466C8.73377 7.39768 8.76148 7.3313 8.76175 7.26199Z" fill="black"/>
<path d="M6.67144 8.81699C6.67144 8.7475 6.64384 8.68086 6.59472 8.63172C6.5456 8.58259 6.47899 8.55499 6.40952 8.55499H3.72241C3.65587 8.5591 3.59341 8.58845 3.54774 8.63704C3.50208 8.68562 3.47666 8.7498 3.47666 8.81649C3.47666 8.88317 3.50208 8.94735 3.54774 8.99594C3.59341 9.04453 3.65587 9.07387 3.72241 9.07799H6.40952C6.47881 9.07799 6.54528 9.05052 6.59437 9.0016C6.64346 8.95268 6.67117 8.8863 6.67144 8.81699Z" fill="black"/>
<path d="M14.07 6.72799C14.0471 6.54862 13.966 6.38173 13.8391 6.25299L13.3902 5.79999C13.3121 5.72249 13.2194 5.66121 13.1175 5.61968C13.0156 5.57815 12.9065 5.55718 12.7964 5.55799H12.7554C12.7314 5.55799 12.7074 5.56499 12.6835 5.56799C12.6358 5.57475 12.5886 5.58512 12.5425 5.59899C12.5185 5.60599 12.4955 5.61199 12.4725 5.61999C12.3423 5.66823 12.2237 5.74355 12.1246 5.84099L7.7011 10.268C7.6844 10.2858 7.66903 10.3049 7.65511 10.325C7.64032 10.3464 7.62759 10.3692 7.61712 10.393L7.61213 10.403L7.45118 10.792L7.41319 10.885L6.96334 11.97C6.94106 12.0265 6.9279 12.0863 6.92435 12.147C6.92337 12.161 6.92337 12.175 6.92435 12.189C6.92454 12.238 6.93126 12.2868 6.94435 12.334V12.344L6.95134 12.363C6.96595 12.4072 6.98646 12.4493 7.01232 12.488C7.06101 12.5607 7.12693 12.6202 7.20421 12.6612C7.28148 12.7022 7.3677 12.7234 7.45518 12.723H7.48017C7.49662 12.7216 7.51297 12.7192 7.52915 12.716C7.57964 12.7107 7.62911 12.6982 7.6761 12.679L9.24159 12.032L9.25459 12.025H9.26058C9.2817 12.0138 9.30178 12.0008 9.32056 11.986C9.33965 11.9731 9.3577 11.9587 9.37455 11.943L10.912 10.4L13.7971 7.51399C13.8569 7.45171 13.9086 7.38216 13.951 7.30699L13.958 7.29399C14.0297 7.16817 14.0714 7.02754 14.08 6.88299V6.84299C14.0791 6.80448 14.0758 6.76606 14.07 6.72799ZM11.4349 7.18499L11.5898 7.02899L11.9197 6.69999L12.8964 7.67799L12.9414 7.72199L9.2126 11.451L8.19194 10.43L11.4349 7.18499ZM7.49616 12.253H7.43618C7.42536 12.2509 7.41513 12.2464 7.40619 12.24C7.40052 12.2365 7.39545 12.2321 7.3912 12.227C7.3831 12.2141 7.37893 12.1992 7.3792 12.184C7.37909 12.1689 7.38215 12.1539 7.3882 12.14L7.82106 11.1L7.93202 10.832L8.76275 11.662L8.80973 11.71L7.66811 12.182L7.49217 12.254L7.49616 12.253ZM13.2743 7.38799L13.2653 7.39699L13.2193 7.35199L12.2416 6.37499L12.4475 6.16899C12.5319 6.08309 12.6444 6.03054 12.7644 6.02099H12.8054C12.8293 6.02162 12.853 6.02429 12.8764 6.02899C12.9469 6.04326 13.0116 6.07805 13.0623 6.12899L13.1703 6.23799L13.2543 6.32199L13.5112 6.57799C13.5492 6.61744 13.5779 6.66495 13.5952 6.71699C13.608 6.75541 13.615 6.7955 13.6162 6.83599V6.88699C13.6129 6.91608 13.6072 6.94485 13.5992 6.97299C13.5741 7.05459 13.5299 7.129 13.4702 7.18999L13.2743 7.38799Z" fill="black"/>
<path d="M3.96633 11.889C4.09759 11.9598 4.24404 11.9979 4.39318 12C4.498 11.9987 4.60181 11.9795 4.70008 11.943C4.80005 11.91 4.89002 11.867 4.99199 11.822C5.03943 11.7948 5.09173 11.7771 5.14594 11.77C5.2138 11.7779 5.27832 11.8038 5.33288 11.845C5.42165 11.9076 5.51563 11.9625 5.61378 12.009C5.73691 12.0654 5.87026 12.096 6.00565 12.099C6.13225 12.0955 6.25733 12.0705 6.37553 12.025C6.38772 12.0199 6.39916 12.0132 6.40952 12.005C6.44268 11.985 6.46805 11.9543 6.48149 11.9179C6.49493 11.8816 6.49564 11.8418 6.4835 11.805C6.47976 11.7973 6.47542 11.79 6.4705 11.783C6.45193 11.7458 6.42054 11.7167 6.38214 11.7008C6.34373 11.685 6.30091 11.6837 6.26157 11.697C6.17984 11.7292 6.09339 11.7477 6.00565 11.752C5.91548 11.7483 5.82702 11.7262 5.74574 11.687C5.66653 11.6473 5.59035 11.6018 5.51781 11.551C5.4121 11.4771 5.28852 11.4329 5.15993 11.423H5.14594C5.04109 11.4275 4.93859 11.4555 4.84604 11.505C4.74607 11.551 4.6571 11.589 4.58312 11.615C4.52096 11.638 4.45543 11.6505 4.38919 11.652C4.3281 11.6516 4.26768 11.6394 4.21124 11.616C4.27023 11.581 4.33021 11.549 4.38619 11.51C4.52075 11.4133 4.63774 11.2942 4.73207 11.158C4.84314 11.0095 4.90721 10.8312 4.91601 10.646C4.91653 10.5887 4.9081 10.5317 4.89102 10.477C4.85646 10.3561 4.77989 10.2515 4.67509 10.182C4.57914 10.1225 4.46807 10.0919 4.3552 10.094C4.18881 10.0981 4.02616 10.1442 3.88235 10.228C3.73964 10.3035 3.62191 10.4188 3.54346 10.56C3.47712 10.6929 3.44288 10.8395 3.4435 10.988C3.44371 11.092 3.4592 11.1955 3.48948 11.295C3.51564 11.377 3.55156 11.4556 3.59645 11.529C3.41256 11.5991 3.2229 11.6529 3.02963 11.69C3.00683 11.6938 2.98502 11.7021 2.96547 11.7145C2.94592 11.7268 2.92903 11.743 2.91579 11.7619C2.90254 11.7809 2.89321 11.8023 2.88833 11.8249C2.88346 11.8475 2.88314 11.8709 2.88739 11.8936C2.89164 11.9163 2.90038 11.938 2.9131 11.9573C2.92582 11.9766 2.94226 11.9932 2.96146 12.0061C2.98066 12.019 3.00224 12.0279 3.02493 12.0324C3.04762 12.0368 3.07097 12.0367 3.09361 12.032C3.35044 11.9836 3.60119 11.9071 3.84137 11.804C3.8804 11.836 3.92222 11.8644 3.96633 11.889ZM3.82837 11.2C3.80773 11.1329 3.79728 11.0632 3.79738 10.993C3.79608 10.8988 3.81697 10.8056 3.85836 10.721C3.90674 10.6424 3.97595 10.5787 4.0583 10.537C4.14938 10.483 4.25241 10.4524 4.3582 10.448C4.404 10.446 4.44941 10.4571 4.48915 10.48C4.52533 10.5048 4.55099 10.5423 4.56113 10.585C4.56813 10.6063 4.57151 10.6286 4.57113 10.651C4.56081 10.7649 4.51814 10.8735 4.44817 10.964C4.37764 11.0662 4.29046 11.1557 4.19025 11.229C4.10397 11.2884 4.01417 11.3425 3.92134 11.391C3.88035 11.3327 3.84896 11.2682 3.82837 11.2Z" fill="black"/>
</svg>
