<svg width="16" height="16" viewBox="0 0 16 16" fill="none" xmlns="http://www.w3.org/2000/svg">
<path d="M2.84017 12.662C2.79988 12.6221 2.76791 12.5746 2.74611 12.5222C2.7243 12.4699 2.7131 12.4137 2.71314 12.357V1.77101C2.71365 1.65745 2.75865 1.54862 2.8385 1.46786C2.91835 1.3871 3.02668 1.34084 3.14025 1.33901H10.6852C10.7996 1.33953 10.9092 1.38522 10.9902 1.46612C11.0711 1.54702 11.1168 1.6566 11.1173 1.77101V8.48501H11.6424V1.77101C11.6422 1.51904 11.542 1.27745 11.3639 1.09919C11.1858 0.920933 10.9442 0.820537 10.6922 0.820007H3.14025C2.88822 0.820537 2.64667 0.920933 2.46855 1.09919C2.29043 1.27745 2.19027 1.51904 2.19 1.77101V12.357C2.19027 12.609 2.29043 12.8506 2.46855 13.0288C2.64667 13.2071 2.88822 13.3075 3.14025 13.308H7.2013V12.79H3.14025C3.02736 12.7881 2.91968 12.7421 2.84017 12.662Z" fill="black"/>
<path d="M9.942 3.24801C9.94174 3.17922 9.91422 3.11335 9.86548 3.06481C9.81674 3.01626 9.75074 2.98901 9.68194 2.98901H3.98046C3.91441 2.99311 3.8524 3.02223 3.80708 3.07045C3.76175 3.11866 3.73652 3.18234 3.73652 3.24851C3.73652 3.31467 3.76175 3.37835 3.80708 3.42657C3.8524 3.47478 3.91441 3.50391 3.98046 3.50801H9.68194C9.75091 3.50801 9.81706 3.48061 9.86583 3.43185C9.9146 3.3831 9.942 3.31696 9.942 3.24801Z" fill="black"/>
<path d="M3.98647 5.05001H7.68742C7.75348 5.04591 7.81549 5.01678 7.86081 4.96857C7.90614 4.92035 7.93137 4.85667 7.93137 4.79051C7.93137 4.72434 7.90614 4.66066 7.86081 4.61245C7.81549 4.56423 7.75348 4.53511 7.68742 4.53101H3.98647C3.92041 4.53511 3.8584 4.56423 3.81308 4.61245C3.76775 4.66066 3.74252 4.72434 3.74252 4.79051C3.74252 4.85667 3.76775 4.92035 3.81308 4.96857C3.8584 5.01678 3.92041 5.04591 3.98647 5.05001Z" fill="black"/>
<path d="M8.98476 6.33201C8.98476 6.26332 8.95746 6.19744 8.90888 6.14887C8.86029 6.10029 8.7944 6.07301 8.72569 6.07301H3.98647C3.92041 6.07711 3.8584 6.10623 3.81308 6.15445C3.76775 6.20266 3.74252 6.26634 3.74252 6.33251C3.74252 6.39867 3.76775 6.46235 3.81308 6.51057C3.8584 6.55878 3.92041 6.58791 3.98647 6.59201H8.72569C8.7598 6.59201 8.79356 6.58528 8.82506 6.5722C8.85656 6.55912 8.88516 6.53995 8.90923 6.51579C8.9333 6.49164 8.95236 6.46297 8.96532 6.43143C8.97828 6.39989 8.98489 6.3661 8.98476 6.33201Z" fill="black"/>
<path d="M3.98647 7.61501C3.92041 7.61911 3.8584 7.64823 3.81308 7.69645C3.76775 7.74466 3.74252 7.80834 3.74252 7.87451C3.74252 7.94067 3.76775 8.00435 3.81308 8.05257C3.8584 8.10078 3.92041 8.12991 3.98647 8.13401H6.65015C6.6856 8.13621 6.72111 8.13113 6.75452 8.11908C6.78792 8.10704 6.8185 8.08828 6.84438 8.06397C6.87026 8.03965 6.89088 8.0103 6.90497 7.97772C6.91907 7.94513 6.92634 7.91001 6.92634 7.87451C6.92634 7.83901 6.91907 7.80388 6.90497 7.7713C6.89088 7.73871 6.87026 7.70936 6.84438 7.68505C6.8185 7.66073 6.78792 7.64198 6.75452 7.62993C6.72111 7.61789 6.6856 7.61281 6.65015 7.61501H3.98647Z" fill="black"/>
<path d="M12.5707 9.02401V9.71401C12.5648 9.84758 12.5076 9.97374 12.411 10.0662C12.3144 10.1586 12.1858 10.2102 12.052 10.2102C11.9183 10.2102 11.7897 10.1586 11.6931 10.0662C11.5965 9.97374 11.5393 9.84758 11.5334 9.71401V9.00001H9.98501V9.71001C9.98809 9.78001 9.97695 9.84992 9.95228 9.9155C9.9276 9.98109 9.88989 10.041 9.84143 10.0916C9.79297 10.1423 9.73475 10.1825 9.6703 10.2101C9.60584 10.2376 9.53647 10.2518 9.46638 10.2518C9.39629 10.2518 9.32692 10.2376 9.26247 10.2101C9.19801 10.1825 9.13979 10.1423 9.09133 10.0916C9.04287 10.041 9.00516 9.98109 8.98048 9.9155C8.95581 9.84992 8.94467 9.78001 8.94775 9.71001V9.02001C8.60281 9.07529 8.28877 9.25138 8.06174 9.51682C7.83471 9.78226 7.70948 10.1198 7.70843 10.469V13.707C7.70816 14.0971 7.86276 14.4713 8.13826 14.7475C8.41377 15.0236 8.78765 15.1792 9.17781 15.18H12.3516C12.7391 15.1766 13.1096 15.0205 13.3826 14.7457C13.6556 14.4708 13.8092 14.0994 13.81 13.712V10.473C13.8089 10.1238 13.6837 9.78626 13.4567 9.52082C13.2297 9.25538 12.9156 9.07929 12.5707 9.02401ZM9.17781 14.661C8.92594 14.6602 8.68459 14.5599 8.5064 14.3819C8.32821 14.204 8.22761 13.9628 8.22656 13.711V11.056H13.2919V13.711C13.2908 13.9628 13.1902 14.204 13.012 14.3819C12.8338 14.5599 12.5925 14.6602 12.3406 14.661H9.17781Z" fill="black"/>
<path d="M9.46688 8.55201C9.43278 8.55188 9.39898 8.55848 9.36743 8.57143C9.33589 8.58439 9.30721 8.60345 9.28305 8.62751C9.25888 8.65158 9.23971 8.68017 9.22663 8.71166C9.21355 8.74315 9.20681 8.77691 9.20681 8.81101V9.71101C9.20461 9.74644 9.20969 9.78195 9.22174 9.81534C9.23379 9.84874 9.25255 9.87931 9.27687 9.90518C9.30119 9.93105 9.33055 9.95167 9.36314 9.96576C9.39574 9.97985 9.43087 9.98712 9.46638 9.98712C9.50189 9.98712 9.53703 9.97985 9.56962 9.96576C9.60221 9.95167 9.63157 9.93105 9.65589 9.90518C9.68021 9.87931 9.69897 9.84874 9.71102 9.81534C9.72307 9.78195 9.72815 9.74644 9.72595 9.71101V8.81101C9.72595 8.74232 9.69865 8.67644 9.65007 8.62787C9.60148 8.57929 9.53559 8.55201 9.46688 8.55201Z" fill="black"/>
<path d="M12.0515 9.97401C12.0857 9.97414 12.1196 9.9675 12.1512 9.95448C12.1828 9.94147 12.2116 9.92232 12.2357 9.89815C12.2599 9.87398 12.2791 9.84527 12.2921 9.81366C12.3051 9.78206 12.3117 9.74819 12.3116 9.71401V8.81401C12.3075 8.74797 12.2784 8.68598 12.2302 8.64066C12.1819 8.59535 12.1182 8.57012 12.052 8.57012C11.9859 8.57012 11.9222 8.59535 11.8739 8.64066C11.8257 8.68598 11.7966 8.74797 11.7925 8.81401V9.71401C11.7923 9.7481 11.799 9.78189 11.8119 9.81343C11.8249 9.84497 11.8439 9.87364 11.868 9.89779C11.8921 9.92195 11.9207 9.94112 11.9522 9.9542C11.9837 9.96727 12.0174 9.97401 12.0515 9.97401Z" fill="black"/>
<path d="M9.17481 11.873L9.27583 12.271L9.66193 12.177V13.912H10.1421V11.684H9.81097L9.17481 11.873Z" fill="black"/>
<path d="M11.6424 11.666C11.6054 11.666 11.5664 11.661 11.5254 11.661C11.3873 11.6606 11.2508 11.6903 11.1253 11.748C10.9918 11.8062 10.8785 11.9026 10.7996 12.025C10.7208 12.1474 10.6799 12.2904 10.6822 12.436V12.442C10.681 12.5602 10.7078 12.6771 10.7602 12.783C10.8084 12.8744 10.8771 12.9533 10.9609 13.0137C11.0447 13.0741 11.1414 13.1142 11.2433 13.131C11.3186 13.1473 11.3954 13.1557 11.4724 13.156C11.6341 13.159 11.7914 13.1036 11.9155 13C11.8835 13.3 11.7385 13.5 11.4664 13.5C11.2872 13.4995 11.1148 13.4317 10.9833 13.31L10.7272 13.68C10.9283 13.8552 11.1878 13.9487 11.4544 13.942C12.0826 13.942 12.4216 13.453 12.4216 12.735V12.729C12.4372 12.5794 12.4218 12.4282 12.3766 12.2847C12.3313 12.1413 12.2571 12.0087 12.1586 11.895C12.0225 11.755 11.8376 11.673 11.6424 11.666ZM11.9295 12.423C11.9292 12.47 11.9189 12.5164 11.8993 12.5591C11.8798 12.6018 11.8514 12.6399 11.8161 12.6709C11.7807 12.7019 11.7392 12.725 11.6943 12.7388C11.6494 12.7526 11.6021 12.7568 11.5554 12.751C11.3154 12.751 11.1693 12.615 11.1693 12.419V12.413C11.1688 12.3652 11.1785 12.3178 11.1979 12.2741C11.2172 12.2304 11.2457 12.1913 11.2815 12.1596C11.3172 12.1278 11.3594 12.1041 11.4051 12.09C11.4508 12.0759 11.499 12.0718 11.5464 12.078C11.58 12.0782 11.6135 12.0816 11.6464 12.088C11.7264 12.0974 11.8001 12.1362 11.8531 12.1968C11.9062 12.2574 11.9348 12.3355 11.9335 12.416L11.9295 12.423Z" fill="black"/>
</svg>
