<svg id="Layer_1" data-name="Layer 1" xmlns="http://www.w3.org/2000/svg" viewBox="0 0 16 16">
  <g>
    <path d="M3.1,12.662a.429.429,0,0,1-.127-.305V1.771A.434.434,0,0,1,3.4,1.339h7.543a.434.434,0,0,1,.432.432V8.485H11.9V1.771a.952.952,0,0,0-.95-.951H3.4a.952.952,0,0,0-.95.951V12.357a.952.952,0,0,0,.95.951H7.46V12.79H3.4A.433.433,0,0,1,3.1,12.662Z"/>
    <path d="M10.2,3.248a.26.26,0,0,0-.26-.259h-5.7a.26.26,0,0,0,0,.519h5.7A.26.26,0,0,0,10.2,3.248Z"/>
    <path d="M4.246,5.05h3.7a.26.26,0,0,0,0-.519h-3.7a.26.26,0,0,0,0,.519Z"/>
    <path d="M9.243,6.332a.259.259,0,0,0-.259-.259H4.246a.26.26,0,0,0,0,.519H8.984A.259.259,0,0,0,9.243,6.332Z"/>
    <path d="M4.246,7.615a.26.26,0,0,0,0,.519H6.909a.26.26,0,1,0,0-.519Z"/>
    <path d="M12.828,9.024v.69a.519.519,0,0,1-1.037,0V9H10.243v.71a.519.519,0,1,1-1.037,0v-.69a1.472,1.472,0,0,0-1.239,1.449v3.238A1.472,1.472,0,0,0,9.436,15.18h3.173a1.471,1.471,0,0,0,1.458-1.468V10.473A1.472,1.472,0,0,0,12.828,9.024Zm-3.38,5.637H9.436a.954.954,0,0,1-.951-.95V11.056h5.064v2.655a.954.954,0,0,1-.951.95Z"/>
    <path d="M9.725,8.552a.259.259,0,0,0-.26.259v.9a.26.26,0,1,0,.519,0v-.9A.259.259,0,0,0,9.725,8.552Z"/>
    <path d="M12.309,9.974a.259.259,0,0,0,.26-.26v-.9a.26.26,0,0,0-.519,0v.9A.259.259,0,0,0,12.309,9.974Z"/>
    <polygon points="9.433 11.873 9.534 12.271 9.92 12.177 9.92 12.79 9.92 13.308 9.92 13.912 10.4 13.912 10.4 13.308 10.4 12.79 10.4 11.684 10.069 11.684 9.433 11.873"/>
    <path d="M11.9,11.666c-.037,0-.076-.005-.117-.005a.949.949,0,0,0-.4.087.738.738,0,0,0-.443.688v.006a.752.752,0,0,0,.078.341.669.669,0,0,0,.483.348,1.108,1.108,0,0,0,.229.025A.672.672,0,0,0,12.173,13c-.032.3-.177.5-.449.5a.714.714,0,0,1-.483-.19l-.256.37a1.066,1.066,0,0,0,.727.262c.628,0,.967-.489.967-1.207v-.006a1.1,1.1,0,0,0-.263-.834A.757.757,0,0,0,11.9,11.666Zm.287.757a.333.333,0,0,1-.374.328h0c-.24,0-.386-.136-.386-.332v-.006a.334.334,0,0,1,.377-.335.54.54,0,0,1,.1.01.325.325,0,0,1,.287.328Z"/>
  </g>
</svg>
