<svg width="16" height="16" viewBox="0 0 16 16" fill="none" xmlns="http://www.w3.org/2000/svg">
<path d="M2.70509 1.639C2.74219 1.60169 2.78629 1.57206 2.83486 1.55181C2.88343 1.53156 2.93551 1.52109 2.98814 1.521H9.98924C10.0419 1.52109 10.094 1.53156 10.1425 1.55181C10.1911 1.57206 10.2352 1.60169 10.2723 1.639C10.2848 1.65229 10.2965 1.66632 10.3073 1.681H10.8374C10.7845 1.49673 10.6732 1.3346 10.5203 1.21901C10.3673 1.10341 10.181 1.04059 9.98924 1.04001H2.98814C2.75417 1.04027 2.52984 1.13325 2.36431 1.29857C2.19877 1.46389 2.10552 1.68807 2.105 1.922V11.7449C2.10532 11.9368 2.16816 12.1234 2.28402 12.2764C2.39988 12.4294 2.56244 12.5405 2.7471 12.5929V12.0629C2.73241 12.0521 2.71838 12.0404 2.70509 12.0279C2.66777 11.9908 2.63814 11.9467 2.61788 11.8982C2.59763 11.8496 2.58716 11.7975 2.58707 11.7449V1.922C2.58716 1.86939 2.59763 1.81731 2.61788 1.76875C2.63814 1.72018 2.66777 1.6761 2.70509 1.639Z" fill="black"/>
<path d="M3.94629 13.1089C3.84018 13.1089 3.73843 13.0668 3.6634 12.9917C3.58837 12.9167 3.54622 12.815 3.54622 12.7089V2.88499C3.54622 2.77891 3.58837 2.67716 3.6634 2.60215C3.73843 2.52714 3.84018 2.48499 3.94629 2.48499H10.9474C11 2.48508 11.0521 2.49555 11.1007 2.5158C11.1492 2.53605 11.1933 2.56568 11.2304 2.60299C11.2678 2.64009 11.2974 2.68418 11.3176 2.73274C11.3379 2.7813 11.3484 2.83338 11.3485 2.88599V8.99293C11.5101 9.00164 11.6709 9.02236 11.8295 9.05493V2.88499C11.829 2.65114 11.7359 2.42701 11.5706 2.26156C11.4053 2.09611 11.1813 2.00279 10.9474 2.002H3.94629C3.71232 2.00253 3.4881 2.09576 3.32275 2.26127C3.1574 2.42677 3.06441 2.65106 3.06415 2.88499V12.7079C3.06441 12.9417 3.15744 13.1659 3.32281 13.3313C3.48819 13.4966 3.71241 13.5896 3.94629 13.5899H8.21696C8.14449 13.4345 8.0843 13.2737 8.03694 13.1089H3.94629Z" fill="black"/>
<path d="M10.2603 4.25598C10.2603 4.19223 10.235 4.13109 10.19 4.08592C10.1451 4.04075 10.084 4.01524 10.0202 4.01498H4.73341C4.6723 4.01892 4.61498 4.04598 4.57309 4.09064C4.5312 4.13531 4.50789 4.19425 4.50789 4.25548C4.50789 4.31671 4.5312 4.37564 4.57309 4.42031C4.61498 4.46498 4.6723 4.49203 4.73341 4.49598H10.0202C10.0839 4.49598 10.145 4.47069 10.19 4.42568C10.235 4.38067 10.2603 4.31963 10.2603 4.25598Z" fill="black"/>
<path d="M4.73341 5.92696H8.16796C8.22907 5.92302 8.28639 5.89597 8.32828 5.8513C8.37017 5.80663 8.39348 5.74769 8.39348 5.68646C8.39348 5.62523 8.37017 5.5663 8.32828 5.52163C8.28639 5.47696 8.22907 5.44991 8.16796 5.44597H4.73341C4.6723 5.44991 4.61498 5.47696 4.57309 5.52163C4.5312 5.5663 4.50789 5.62523 4.50789 5.68646C4.50789 5.74769 4.5312 5.80663 4.57309 5.8513C4.61498 5.89597 4.6723 5.92302 4.73341 5.92696Z" fill="black"/>
<path d="M9.37115 7.11495C9.37115 7.08335 9.36491 7.05206 9.35278 7.02288C9.34065 6.99369 9.32288 6.96719 9.30049 6.94489C9.27809 6.92259 9.25151 6.90494 9.22227 6.89293C9.19304 6.88093 9.16171 6.87482 9.13011 6.87495H4.72941C4.6683 6.8789 4.61098 6.90595 4.56909 6.95062C4.5272 6.99529 4.50389 7.05422 4.50389 7.11545C4.50389 7.17668 4.5272 7.23562 4.56909 7.28028C4.61098 7.32495 4.6683 7.35201 4.72941 7.35595H9.13011C9.19404 7.35595 9.25534 7.33056 9.30055 7.28536C9.34575 7.24017 9.37115 7.17887 9.37115 7.11495Z" fill="black"/>
<path d="M7.44684 8.54794C7.44684 8.48402 7.42145 8.42272 7.37624 8.37753C7.33104 8.33233 7.26973 8.30694 7.2058 8.30694H4.73341C4.66948 8.30694 4.60818 8.33233 4.56297 8.37753C4.51777 8.42272 4.49237 8.48402 4.49237 8.54794C4.49237 8.61185 4.51777 8.67315 4.56297 8.71835C4.60818 8.76354 4.66948 8.78893 4.73341 8.78893H7.2048C7.23654 8.78907 7.26799 8.78293 7.29735 8.77088C7.32671 8.75882 7.3534 8.74109 7.37589 8.7187C7.39838 8.69631 7.41622 8.6697 7.4284 8.64039C7.44057 8.61109 7.44684 8.57967 7.44684 8.54794Z" fill="black"/>
<path d="M13.1157 10.2739C12.8425 10.0006 12.5146 9.78799 12.1536 9.64993C12.1006 9.62993 12.0466 9.61093 11.9926 9.59393C11.9386 9.57693 11.8865 9.56393 11.8325 9.54993C11.6747 9.51075 11.5137 9.48532 11.3515 9.47393C11.2885 9.47393 11.2254 9.46493 11.1624 9.46493C11.0645 9.46511 10.9667 9.47079 10.8694 9.48193C10.205 9.55131 9.58857 9.85978 9.13482 10.3499C8.68106 10.84 8.42097 11.4783 8.40299 12.1459C8.3879 12.6509 8.51176 13.1504 8.76105 13.5899C8.79206 13.6439 8.82206 13.6979 8.85606 13.7499C8.89007 13.8019 8.93308 13.8579 8.97408 13.9109C9.04658 14.0055 9.12473 14.0957 9.20812 14.1809C9.72902 14.6857 10.4276 14.9656 11.153 14.9599C11.8785 14.9543 12.5726 14.6636 13.0856 14.1508C13.5986 13.6379 13.8893 12.9438 13.8949 12.2185C13.9005 11.4932 13.6207 10.7947 13.1157 10.2739ZM13.4078 12.6229C13.4078 12.6369 13.4078 12.6509 13.4018 12.6649C13.3898 12.7279 13.3738 12.7889 13.3568 12.8499L13.3498 12.8789C13.3318 12.9389 13.3098 12.9979 13.2878 13.0559L13.2758 13.0879C13.2528 13.1439 13.2268 13.1979 13.1998 13.2519L13.1818 13.2909C13.1537 13.3429 13.1227 13.3909 13.0917 13.4429C13.0827 13.4569 13.0757 13.4709 13.0667 13.4849C13.0327 13.5359 12.9947 13.5849 12.9567 13.6339C12.9477 13.6459 12.9397 13.6579 12.9307 13.6689C12.8333 13.7889 12.7237 13.8985 12.6037 13.9959L12.5617 14.0269C12.5156 14.0629 12.4686 14.0989 12.4206 14.1269C12.4046 14.1379 12.3866 14.1469 12.3706 14.1569C12.3236 14.1869 12.2706 14.2159 12.2266 14.2419C12.2116 14.2499 12.1966 14.2559 12.1816 14.2629C12.1296 14.2889 12.0816 14.3149 12.0236 14.3369L11.9896 14.3489C11.932 14.3722 11.8732 14.3925 11.8135 14.4099L11.7865 14.4169C11.7245 14.4349 11.6625 14.4509 11.5995 14.4629L11.5645 14.4679C11.5045 14.4789 11.4435 14.4879 11.3825 14.4939C11.3215 14.4999 11.2364 14.5049 11.1624 14.5049C11.0884 14.5049 11.0144 14.5049 10.9414 14.4939C10.8684 14.4829 10.8204 14.4789 10.7604 14.4679L10.7244 14.4629C10.6624 14.4509 10.6003 14.4349 10.5393 14.4179L10.5103 14.4099C10.4513 14.3929 10.3933 14.3719 10.3363 14.3499L10.3013 14.3369C10.2473 14.3149 10.1953 14.2899 10.1443 14.2639L10.0983 14.2419C10.0493 14.2169 9.99825 14.1879 9.95624 14.1589L9.90323 14.1269C9.85722 14.0959 9.81222 14.0609 9.76721 14.0269L9.7202 13.9919C9.6882 13.9649 9.65719 13.9349 9.62619 13.9069C9.59518 13.8789 9.57318 13.8619 9.54918 13.8369C9.52517 13.8119 9.49417 13.7769 9.46716 13.7459L9.43116 13.7069C9.39715 13.6679 9.36615 13.6269 9.33114 13.5859C9.21942 13.4377 9.12669 13.2761 9.0551 13.1049C8.99057 12.9502 8.94328 12.7889 8.91407 12.6239C8.88665 12.4648 8.87559 12.3033 8.88107 12.1419C8.89803 11.6384 9.08166 11.1548 9.40315 10.7669C9.44816 10.7129 9.49417 10.6609 9.54517 10.6099C9.59953 10.5554 9.65661 10.5037 9.7162 10.4549C9.7312 10.4429 9.74721 10.4329 9.76321 10.4209C9.80822 10.3859 9.85322 10.3509 9.90023 10.3209C9.91623 10.3099 9.93424 10.3009 9.95124 10.2899C9.99825 10.2609 10.0453 10.2319 10.0943 10.2059L10.1473 10.1869C10.1993 10.1609 10.2473 10.1359 10.3043 10.1139L10.3423 10.1009C10.3583 10.0939 10.3753 10.0889 10.3923 10.0829C10.4333 10.0679 10.4733 10.0529 10.5143 10.0409L10.5453 10.0329C10.6063 10.0159 10.6664 9.99992 10.7284 9.98792L10.7674 9.98292C10.8024 9.97592 10.8384 9.97092 10.8734 9.96692C10.9084 9.96292 10.9214 9.95892 10.9454 9.95692C11.0184 9.94992 11.0924 9.94592 11.1664 9.94592C11.2404 9.94592 11.2925 9.94592 11.3555 9.95492H11.3865C11.4475 9.96092 11.5065 9.96992 11.5665 9.98092L11.6035 9.98592C11.6665 9.99792 11.7275 10.0139 11.7885 10.0309L11.8175 10.0389L11.8365 10.0439C11.8895 10.0599 11.9366 10.0799 11.9916 10.0999H11.9966L12.0276 10.1109C12.0716 10.1289 12.1146 10.1499 12.1576 10.1709L12.1856 10.1849C12.2006 10.1919 12.2156 10.1979 12.2306 10.2059C12.2796 10.2319 12.3306 10.2609 12.3736 10.2909L12.4246 10.3209C12.4726 10.3529 12.5246 10.3889 12.5657 10.4209L12.6077 10.4519C12.6667 10.5009 12.7247 10.5519 12.7797 10.6069C12.8343 10.6619 12.886 10.7197 12.9347 10.7799C12.9437 10.7899 12.9507 10.8019 12.9597 10.8119C12.9987 10.8619 13.0357 10.9119 13.0707 10.9629C13.0797 10.9769 13.0867 10.9919 13.0957 11.0059C13.1277 11.0559 13.1577 11.1059 13.1858 11.1569L13.2038 11.1959C13.2308 11.2499 13.2568 11.3039 13.2798 11.3599L13.2918 11.3919C13.3138 11.4499 13.3358 11.5089 13.3538 11.5689L13.3608 11.5979C13.3778 11.6589 13.3938 11.7199 13.4058 11.7829C13.4058 11.7969 13.4058 11.8109 13.4118 11.8249C13.4218 11.8829 13.4318 11.9409 13.4368 11.9999C13.4418 12.0589 13.4478 12.1459 13.4478 12.2209C13.4478 12.2959 13.4478 12.3679 13.4368 12.4409C13.4258 12.5139 13.4178 12.5649 13.4078 12.6229Z" fill="black"/>
<path d="M12.1536 11.4359C12.1161 11.446 12.0817 11.4652 12.0536 11.4919L11.9896 11.5559L11.8295 11.7169L10.9204 12.6259L10.3913 12.0969C10.3449 12.0545 10.2842 12.0309 10.2213 12.0309C10.1584 12.0309 10.0977 12.0545 10.0513 12.0969C10.0391 12.1107 10.029 12.1262 10.0212 12.1429C10.0009 12.1727 9.98823 12.207 9.98424 12.2429V12.2839C9.98824 12.3402 10.012 12.3933 10.0513 12.4339L10.7494 13.1319C10.7717 13.1544 10.7982 13.1723 10.8275 13.1845C10.8568 13.1967 10.8882 13.203 10.9199 13.203C10.9516 13.203 10.983 13.1967 11.0123 13.1845C11.0415 13.1723 11.0681 13.1544 11.0904 13.1319L12.3946 11.8279C12.4351 11.7904 12.4614 11.7401 12.469 11.6854C12.4766 11.6308 12.465 11.5752 12.4363 11.5281C12.4076 11.481 12.3634 11.4453 12.3113 11.427C12.2592 11.4087 12.2025 11.4091 12.1506 11.4279L12.1536 11.4359Z" fill="black"/>
<path d="M4.95445 11.3749C5.07506 11.4423 5.21038 11.479 5.34851 11.4819C5.44475 11.4803 5.54006 11.4627 5.63055 11.4299C5.71957 11.3989 5.80558 11.3599 5.8996 11.3179C5.94338 11.2929 5.99161 11.2766 6.04162 11.2699C6.104 11.2775 6.16331 11.3013 6.21365 11.3389C6.29519 11.3965 6.38152 11.447 6.47169 11.4899C6.58569 11.5413 6.70875 11.5695 6.83374 11.5729C6.95011 11.5695 7.06506 11.5465 7.1738 11.5049C7.20776 11.4874 7.23434 11.4584 7.24875 11.423C7.26316 11.3876 7.26444 11.3483 7.25236 11.3121C7.24028 11.2758 7.21564 11.2451 7.18289 11.2255C7.15014 11.2058 7.11144 11.1985 7.07378 11.2049C6.99871 11.2344 6.9193 11.2512 6.83875 11.2549C6.75558 11.2516 6.67393 11.2315 6.59871 11.1959C6.52565 11.1592 6.45545 11.1171 6.38867 11.0699C6.29112 11.0019 6.17718 10.9612 6.05862 10.9519H6.04662C5.95121 10.9574 5.85808 10.9833 5.77358 11.0279C5.67956 11.0699 5.59955 11.1059 5.53154 11.1279C5.47453 11.1493 5.41438 11.1611 5.35351 11.1629C5.29715 11.1623 5.24146 11.1507 5.18948 11.1289C5.24349 11.0969 5.2985 11.0679 5.35051 11.0289C5.47437 10.9396 5.58196 10.8297 5.66856 10.7039C5.77153 10.5677 5.83081 10.4035 5.83859 10.2329C5.83879 10.1804 5.83104 10.1281 5.81558 10.0779C5.7834 9.96635 5.71247 9.86991 5.61555 9.80593C5.52732 9.75143 5.42519 9.72365 5.32151 9.72593C5.16804 9.72908 5.01793 9.77142 4.88544 9.84892C4.75467 9.91676 4.64631 10.0209 4.57339 10.1489C4.51245 10.2713 4.48126 10.4063 4.48237 10.5429C4.48053 10.7196 4.52948 10.8932 4.62339 11.0429C4.4541 11.1076 4.27938 11.1571 4.10131 11.1909C4.08063 11.1947 4.06089 11.2026 4.04324 11.214C4.02558 11.2254 4.01035 11.2402 3.99842 11.2575C3.98649 11.2749 3.97808 11.2944 3.97368 11.3149C3.96929 11.3355 3.96898 11.3567 3.97279 11.3774C3.9766 11.3981 3.98445 11.4178 3.99588 11.4355C4.00732 11.4531 4.02212 11.4684 4.03944 11.4803C4.05676 11.4922 4.07626 11.5006 4.09683 11.505C4.1174 11.5094 4.13863 11.5097 4.15932 11.5059C4.39598 11.4617 4.62706 11.3916 4.84843 11.2969C4.88169 11.3256 4.91714 11.3517 4.95445 11.3749ZM4.82743 10.7389C4.80863 10.6773 4.79919 10.6133 4.79942 10.5489C4.79874 10.4624 4.8179 10.3769 4.85543 10.2989C4.90011 10.2265 4.96375 10.1677 5.03946 10.1289C5.12405 10.0793 5.21951 10.0511 5.3175 10.0469C5.35958 10.045 5.4013 10.0554 5.43752 10.0769C5.47195 10.1003 5.49597 10.1362 5.50453 10.1769C5.50992 10.1965 5.51261 10.2167 5.51254 10.2369C5.50405 10.3418 5.46512 10.4419 5.40052 10.5249C5.33504 10.619 5.25463 10.7017 5.16248 10.7699C5.08279 10.8244 4.99996 10.8741 4.91444 10.9189C4.8761 10.8639 4.84673 10.8031 4.82743 10.7389Z" fill="black"/>
</svg>
