<svg id="Layer_1" data-name="Layer 1" xmlns="http://www.w3.org/2000/svg" viewBox="0 0 16 16">
  <g>
    <path d="M3.559,1.624a.4.4,0,0,1,.283-.118h7a.4.4,0,0,1,.283.118.458.458,0,0,1,.035.042h.53a.885.885,0,0,0-.848-.641h-7a.884.884,0,0,0-.883.882V11.73a.883.883,0,0,0,.642.848v-.53a.458.458,0,0,1-.042-.035.4.4,0,0,1-.118-.283V1.907A.4.4,0,0,1,3.559,1.624Z"/>
    <path d="M4.8,13.094a.4.4,0,0,1-.4-.4V2.87a.4.4,0,0,1,.4-.4h7a.4.4,0,0,1,.283.118.4.4,0,0,1,.118.283V8.978a3.263,3.263,0,0,1,.481.062V2.87a.885.885,0,0,0-.882-.883h-7a.884.884,0,0,0-.882.883v9.823a.883.883,0,0,0,.882.882h4.27a3.285,3.285,0,0,1-.18-.481Z"/>
    <path d="M11.113,4.241A.241.241,0,0,0,10.873,4H5.587a.241.241,0,0,0,0,.481h5.286A.24.24,0,0,0,11.113,4.241Z"/>
    <path d="M5.587,5.912H9.021a.241.241,0,0,0,0-.481H5.587a.241.241,0,0,0,0,.481Z"/>
    <path d="M10.224,7.1a.24.24,0,0,0-.241-.24h-4.4a.241.241,0,0,0,0,.481h4.4A.241.241,0,0,0,10.224,7.1Z"/>
    <path d="M8.3,8.533a.241.241,0,0,0-.241-.241H5.587a.241.241,0,0,0,0,.482H8.058A.241.241,0,0,0,8.3,8.533Z"/>
    <path d="M13.968,10.259a2.749,2.749,0,0,0-.962-.624c-.053-.02-.107-.039-.161-.056s-.106-.03-.16-.044a2.816,2.816,0,0,0-.481-.076c-.063,0-.126-.009-.189-.009a2.617,2.617,0,0,0-.293.017,2.753,2.753,0,0,0-2.466,2.664,2.76,2.76,0,0,0,.358,1.444c.031.054.061.108.095.16s.077.108.118.161a2.956,2.956,0,0,0,.234.27,2.763,2.763,0,0,0,3.907-3.907Zm.292,2.349c0,.014,0,.028-.006.042-.012.063-.028.124-.045.185l-.007.029c-.018.06-.04.119-.062.177l-.012.032c-.023.056-.049.11-.076.164l-.018.039c-.028.052-.059.1-.09.152-.009.014-.016.028-.025.042-.034.051-.072.1-.11.149-.009.012-.017.024-.026.035a2.23,2.23,0,0,1-.327.327l-.042.031c-.046.036-.093.072-.141.1-.016.011-.034.02-.05.03-.047.03-.1.059-.144.085-.015.008-.03.014-.045.021-.052.026-.1.052-.158.074l-.034.012a1.83,1.83,0,0,1-.176.061l-.027.007c-.062.018-.124.034-.187.046l-.035.005c-.06.011-.121.02-.182.026s-.146.011-.22.011-.148,0-.221-.011-.121-.015-.181-.026l-.036-.005c-.062-.012-.124-.028-.185-.045l-.029-.008c-.059-.017-.117-.038-.174-.06l-.035-.013c-.054-.022-.106-.047-.157-.073l-.046-.022c-.049-.025-.1-.054-.142-.083l-.053-.032c-.046-.031-.091-.066-.136-.1l-.047-.035c-.032-.027-.063-.057-.094-.085s-.053-.045-.077-.07-.055-.06-.082-.091l-.036-.039c-.034-.039-.065-.08-.1-.121a2.225,2.225,0,0,1-.276-.481,2.283,2.283,0,0,1-.141-.481,2.365,2.365,0,0,1-.033-.482,2.275,2.275,0,0,1,.522-1.375c.045-.054.091-.106.142-.157a2.277,2.277,0,0,1,.171-.155c.015-.012.031-.022.047-.034.045-.035.09-.07.137-.1.016-.011.034-.02.051-.031.047-.029.094-.058.143-.084L11,10.172c.052-.026.1-.051.157-.073l.038-.013c.016-.007.033-.012.05-.018.041-.015.081-.03.122-.042l.031-.008c.061-.017.121-.033.183-.045l.039-.005c.035-.007.071-.012.106-.016s.048-.008.072-.01c.073-.007.147-.011.221-.011s.126,0,.189.009l.031,0c.061.006.12.015.18.026l.037.005c.063.012.124.028.185.045l.029.008.019.005c.053.016.1.036.155.056h.005l.031.011c.044.018.087.039.13.06l.028.014c.015.007.03.013.045.021.049.026.1.055.143.085l.051.03c.048.032.1.068.141.1l.042.031c.059.049.117.1.172.155h0a2.283,2.283,0,0,1,.155.173c.009.01.016.022.025.032.039.05.076.1.111.151.009.014.016.029.025.043.032.05.062.1.09.151l.018.039c.027.054.053.108.076.164l.012.032c.022.058.044.117.062.177l.007.029c.017.061.033.122.045.185,0,.014,0,.028.006.042.01.058.02.116.025.175s.011.146.011.221,0,.147-.011.22S14.27,12.55,14.26,12.608Z"/>
    <path d="M13.006,11.421a.233.233,0,0,0-.1.056l-.064.064-.16.161-.481.481-.428.428-.286-.286-.243-.243a.252.252,0,0,0-.34,0,.191.191,0,0,0-.03.046.221.221,0,0,0-.037.1v.041a.24.24,0,0,0,.067.15l.159.159.512.512.027.027a.24.24,0,0,0,.341,0l.739-.739.16-.16.161-.161.244-.244a.239.239,0,0,0-.244-.4Z"/>
    <path d="M5.808,11.36a.844.844,0,0,0,.394.107.871.871,0,0,0,.282-.052c.089-.031.175-.07.269-.112a.389.389,0,0,1,.142-.048h0a.36.36,0,0,1,.172.069,1.747,1.747,0,0,0,.258.151.944.944,0,0,0,.362.083,1.038,1.038,0,0,0,.34-.068.16.16,0,0,0-.1-.3.735.735,0,0,1-.235.05.618.618,0,0,1-.24-.059,1.64,1.64,0,0,1-.21-.126.668.668,0,0,0-.33-.118H6.9a.666.666,0,0,0-.273.076c-.094.042-.174.078-.242.1a.553.553,0,0,1-.178.035.437.437,0,0,1-.164-.034c.054-.032.109-.061.161-.1a1.332,1.332,0,0,0,.318-.325.845.845,0,0,0,.17-.471.52.52,0,0,0-.023-.155.488.488,0,0,0-.2-.272.537.537,0,0,0-.294-.08.9.9,0,0,0-.436.123.764.764,0,0,0-.312.3.868.868,0,0,0-.091.394.923.923,0,0,0,.141.5,3.058,3.058,0,0,1-.522.148.16.16,0,1,0,.058.315,3.291,3.291,0,0,0,.689-.209A.846.846,0,0,0,5.808,11.36Zm-.127-.636a.643.643,0,0,1-.028-.19.566.566,0,0,1,.056-.25.466.466,0,0,1,.184-.17.6.6,0,0,1,.278-.082.216.216,0,0,1,.12.03.161.161,0,0,1,.067.1.223.223,0,0,1,.008.06.54.54,0,0,1-.112.288,1.053,1.053,0,0,1-.238.245,2.467,2.467,0,0,1-.248.149A.634.634,0,0,1,5.681,10.724Z"/>
    <polygon points="6.91 10.934 6.91 10.934 6.911 10.934 6.91 10.934"/>
  </g>
</svg>
