<svg width="16" height="16" viewBox="0 0 16 16" fill="none" xmlns="http://www.w3.org/2000/svg">
<path d="M8.04097 2.04492C9.22014 2.03859 10.3747 2.38246 11.3582 3.03297C12.3417 3.68347 13.11 4.61132 13.5656 5.69891C14.0213 6.78651 14.1438 7.9849 13.9176 9.1422C13.6915 10.2995 13.1268 11.3636 12.2953 12.1997C11.4637 13.0357 10.4026 13.6061 9.24659 13.8385C8.09053 14.0709 6.8915 13.9548 5.80147 13.505C4.71143 13.0552 3.77946 12.292 3.12367 11.312C2.46788 10.332 2.11779 9.17932 2.11777 8.00013C2.11538 6.42552 2.73764 4.91424 3.84806 3.79782C4.95847 2.68141 6.46637 2.05101 8.04097 2.04492ZM8.04097 0.460133C6.54799 0.452016 5.0862 0.88732 3.84087 1.71088C2.59555 2.53443 1.62275 3.70916 1.04578 5.08618C0.468802 6.4632 0.313624 7.98052 0.59991 9.44582C0.886196 10.9111 1.60106 12.2585 2.65389 13.3171C3.70673 14.3756 5.05014 15.0978 6.51386 15.3921C7.97758 15.6864 9.49572 15.5395 10.8759 14.97C12.256 14.4006 13.436 13.4342 14.2663 12.1934C15.0967 10.9525 15.5399 9.49314 15.54 8.00013C15.5453 6.00587 14.7582 4.09117 13.3519 2.67718C11.9456 1.26318 10.0352 0.465695 8.04097 0.460133Z" fill="black"/>
<path d="M12.0934 10.5048L12.0834 7.36522C12.0829 7.15925 12.0007 6.9619 11.8549 6.81645C11.7091 6.671 11.5115 6.58932 11.3055 6.58932H10.6056V5.83442L8.74088 4.30962H5.47532V6.58932H4.76642C4.66413 6.58945 4.56287 6.60973 4.46842 6.64899C4.37397 6.68826 4.28818 6.74574 4.21595 6.81816C4.14371 6.89058 4.08645 6.97652 4.04743 7.07107C4.00841 7.16562 3.98839 7.26693 3.98852 7.36922L3.99852 10.5048H5.47532V11.6906H10.6036V10.5048H12.0934ZM6.01625 4.84055H8.38993V6.13138H10.1017V7.55219H6.01625V4.84055ZM10.1017 11.1397H6.01625V9.7499H10.1017V11.1397Z" fill="black"/>
</svg>
