<svg id="Layer_1" data-name="Layer 1" xmlns="http://www.w3.org/2000/svg" viewBox="0 0 16 16">
  <path d="M7.562,11.6a3.169,3.169,0,0,1,.629-3.52,3.066,3.066,0,0,1,3.474-.638l.034.012-.586.466a.574.574,0,0,0-.095.8.557.557,0,0,0,.79.1l1.484-1.18a.577.577,0,0,0,.2-.565L13.11,5.188a.563.563,0,0,0-.665-.442.57.57,0,0,0-.436.674l.178.868-.013-.008a4.294,4.294,0,0,0-4.865.9,4.439,4.439,0,0,0-.887,4.93.622.622,0,0,0,.571.377.611.611,0,0,0,.253-.055A.636.636,0,0,0,7.562,11.6Zm6.82-3.076a.623.623,0,0,0-.825-.322.637.637,0,0,0-.318.836,3.17,3.17,0,0,1-.629,3.52,3.06,3.06,0,0,1-3.4.668l.585-.464a.575.575,0,0,0,.1-.8.557.557,0,0,0-.789-.1L7.618,13.042a.576.576,0,0,0-.2.565L7.8,15.485a.564.564,0,0,0,.55.454.579.579,0,0,0,.116-.012.571.571,0,0,0,.436-.674l-.178-.863a4.364,4.364,0,0,0,1.709.353A4.29,4.29,0,0,0,13.5,13.451,4.448,4.448,0,0,0,14.382,8.52ZM2.208,3.938h10.08V1.76a.657.657,0,0,0-.651-.659H10.174V.613a.6.6,0,0,0-.594-.6H9.142a.6.6,0,0,0-.594.6V1.1H4.972V.613a.6.6,0,0,0-.594-.6H3.94a.6.6,0,0,0-.594.6V1.1H1.883a.656.656,0,0,0-.65.659v9.886a.657.657,0,0,0,.65.66H4.937V11.189H2.208Z"/>
</svg>
