<svg id="Layer_1" data-name="Layer 1" xmlns="http://www.w3.org/2000/svg" viewBox="0 0 16 16"><title>recurring</title><path d="M7.56,11.6a3.17,3.17,0,0,1,.63-3.52,3.06,3.06,0,0,1,3.47-.64h0l-.59.47a.58.58,0,0,0-.09.8.55.55,0,0,0,.44.21.59.59,0,0,0,.35-.12l1.48-1.18a.57.57,0,0,0,.21-.56l-.39-1.88a.55.55,0,0,0-.66-.44.56.56,0,0,0-.44.67l.18.87h0a4.29,4.29,0,0,0-4.86.9,4.45,4.45,0,0,0-.89,4.93.63.63,0,0,0,.57.38.62.62,0,0,0,.26-.06A.63.63,0,0,0,7.56,11.6Zm6.82-3.08a.62.62,0,0,0-.82-.32.63.63,0,0,0-.32.83,3.17,3.17,0,0,1-.63,3.52,3.05,3.05,0,0,1-3.4.67l.59-.46a.58.58,0,0,0,.09-.8.56.56,0,0,0-.79-.1L7.62,13a.56.56,0,0,0-.2.57l.38,1.88a.57.57,0,0,0,.55.45h.12a.57.57,0,0,0,.43-.68l-.18-.86a4.32,4.32,0,0,0,4.78-.94A4.45,4.45,0,0,0,14.38,8.52ZM2.21,3.94H12.29V1.76a.66.66,0,0,0-.65-.66H10.17V.61A.59.59,0,0,0,9.58,0H9.14a.6.6,0,0,0-.59.6V1.1H5V.61A.6.6,0,0,0,4.38,0H3.94a.59.59,0,0,0-.59.6V1.1H1.88a.66.66,0,0,0-.65.66v9.89a.66.66,0,0,0,.65.66H4.94V11.19H2.21Z"/></svg>