<svg id="Layer_1" data-name="Layer 1" xmlns="http://www.w3.org/2000/svg" viewBox="0 0 16 16">
  <title>speedy</title>
  <g>
    <path d="M15.744,9.221c-.086-.295-.351-.921-.442-1.384a2.112,2.112,0,0,0-.767-1.578,4.354,4.354,0,0,0-1.293-.625A8.5,8.5,0,0,0,11.37,2.921,10.05,10.05,0,0,0,7.485.819a7.488,7.488,0,0,0,1.88,3.443,22.148,22.148,0,0,0,2.1,1.818,1.849,1.849,0,0,0-.487.476.76.76,0,0,1-.437-.208c-.269-.215-2.728-2.123-3.495-2.674s-1.217-1.1-2.312-.93A16.583,16.583,0,0,0,.681,4.6a2.365,2.365,0,0,0-.312.815.709.709,0,0,0,.757.29.2.2,0,0,1,.25.2,3.6,3.6,0,0,0,1,2.783A3.871,3.871,0,0,0,4.782,9.712a.578.578,0,0,1,.551.242c.136.163,3.839,4.435,3.839,4.435l3.974.435a.94.94,0,0,0-.9-1.013,6.793,6.793,0,0,1-1.652-.239c-.116-.108-1.493-3.587-2-4.689S7.679,6.19,6.605,5.912a4.4,4.4,0,0,0-1.557-.205s.043-.357.361-.35,1.731-.137,2.4.754a55.028,55.028,0,0,1,2.6,5.358s.4.209.849-.274,1.133-1.217,1.787-1.2,1.689.238,1.817.177.894-.592.894-.592S15.829,9.517,15.744,9.221Zm-1.432-.6a.476.476,0,1,1,.459-.493A.476.476,0,0,1,14.312,8.62Z"/>
    <path d="M4.782,11.766a1.947,1.947,0,0,0-.935-.041,1.127,1.127,0,0,0,.009.261,1.472,1.472,0,0,0,1.677.911c1.341-.086,1.353-.274,1.353-.274l-.932-.974C5.438,11.836,5.105,11.922,4.782,11.766Z"/>
  </g>
</svg>
