<svg id="Layer_1" data-name="Layer 1" xmlns="http://www.w3.org/2000/svg" viewBox="0 0 16 16"><title>stripe</title><g id="Stripe"><path d="M15.33,8.1c0-1-.5-1.86-1.46-1.86a1.65,1.65,0,0,0-1.56,1.85A1.63,1.63,0,0,0,14,9.94a2.21,2.21,0,0,0,1.13-.27V8.86a2.14,2.14,0,0,1-1,.22c-.39,0-.74-.14-.79-.61h2C15.32,8.41,15.33,8.2,15.33,8.1Zm-2-.38a.57.57,0,0,1,.54-.65c.25,0,.51.19.51.65Z" fill-rule="evenodd"/><path d="M10.74,6.24a1.14,1.14,0,0,0-.79.32l0-.25H9V11l1-.21V9.68a1.12,1.12,0,0,0,.72.26c.72,0,1.39-.59,1.39-1.88S11.46,6.24,10.74,6.24ZM10.5,9A.63.63,0,0,1,10,8.85V7.34a.59.59,0,0,1,.48-.2c.37,0,.63.42.63,1S10.88,9,10.5,9Z" fill-rule="evenodd"/><polygon points="7.61 6 8.62 5.78 8.62 4.96 7.61 5.17 7.61 6" fill-rule="evenodd"/><rect x="7.6" y="6.31" width="1.02" height="3.56"/><path d="M6.51,6.61l-.06-.3H5.57V9.86h1V7.45a.73.73,0,0,1,.77-.21V6.31A.69.69,0,0,0,6.51,6.61Z" fill-rule="evenodd"/><path d="M4.48,5.43l-1,.21V8.89a1,1,0,0,0,1.06,1,1.49,1.49,0,0,0,.71-.14V9c-.13,0-.77.23-.77-.36V7.17h.77V6.31H4.48Z" fill-rule="evenodd"/><path d="M1.73,7.34c0-.16.13-.22.35-.22a2.26,2.26,0,0,1,1,.26v-1a2.62,2.62,0,0,0-1-.19c-.83,0-1.37.43-1.37,1.15,0,1.12,1.54.94,1.54,1.42,0,.19-.17.25-.39.25A2.6,2.6,0,0,1,.75,8.74v1a2.87,2.87,0,0,0,1.11.23c.84,0,1.42-.42,1.42-1.15C3.28,7.58,1.73,7.8,1.73,7.34Z" fill-rule="evenodd"/></g></svg>