<svg id="Layer_1" data-name="Layer 1" xmlns="http://www.w3.org/2000/svg" viewBox="0 0 16 16"><title>stripe-link</title><polygon points="14.65 9.89 13.56 9.89 13.56 13.56 2.39 13.56 2.39 2.39 6.06 2.39 6.06 1.3 6.06 0 0 0 0 15.95 15.95 15.95 15.95 9.89 14.65 9.89"/><polygon points="8.61 0 8.61 0.1 11.45 2.95 10.51 3.9 12.28 5.6 13.2 4.7 15.85 7.34 15.95 7.34 15.95 0 8.61 0"/><path d="M7.45,6.47c0-.32.26-.44.69-.44a4.59,4.59,0,0,1,2,.52V4.64a5.31,5.31,0,0,0-2-.37c-1.65,0-2.75.86-2.75,2.3,0,2.25,3.09,1.89,3.09,2.86,0,.38-.32.5-.78.5a5.2,5.2,0,0,1-2.23-.65v1.94a5.6,5.6,0,0,0,2.23.46c1.69,0,2.86-.83,2.86-2.3C10.56,7,7.45,7.39,7.45,6.47Z" fill-rule="evenodd"/></svg>