<svg width="16" height="16" viewBox="0 0 16 16" fill="none" xmlns="http://www.w3.org/2000/svg">
<path d="M13.6002 9.92024V13.6002H2.3998V2.3998H6.07976V0H0V16H16V9.92024H13.6002Z" fill="black"/>
<path d="M8.64008 0V0.100326L11.4853 2.95661L10.5483 3.91573L12.32 5.61826L13.243 4.71332L15.8997 7.35992H16V0H8.64008Z" fill="black"/>
<path fill-rule="evenodd" clip-rule="evenodd" d="M7.47128 6.4931C7.47128 6.17407 7.73715 6.05066 8.16554 6.05066C8.87427 6.06648 9.56969 6.24643 10.1971 6.57637V4.65312C9.55095 4.3991 8.86184 4.27204 8.16754 4.27891C6.51016 4.27891 5.40557 5.14472 5.40557 6.58641C5.40557 8.84776 8.51568 8.48056 8.51568 9.45573C8.51568 9.83296 8.18761 9.95736 7.73213 9.95736C6.94705 9.91335 6.18245 9.69029 5.49686 9.30524V11.2566C6.20207 11.5613 6.9619 11.7194 7.73012 11.7211C9.42864 11.7211 10.5994 10.8814 10.5994 9.41359C10.5944 6.97567 7.47128 7.41209 7.47128 6.4931Z" fill="black"/>
</svg>
