<svg id="Layer_1" data-name="Layer 1" xmlns="http://www.w3.org/2000/svg" viewBox="0 0 16 16"><title>transfers</title><path d="M2.82,9.8l.47-.58s.06,0,.09,0a1.62,1.62,0,0,0,.83.36V8.4A1.36,1.36,0,0,1,2.91,7,1.41,1.41,0,0,1,4.21,5.6V5.19s0-.07.06-.07h.32a.07.07,0,0,1,.07.07V5.6A2.24,2.24,0,0,1,5.75,6a.07.07,0,0,1,0,.1l-.4.58a.08.08,0,0,1-.1,0,1.59,1.59,0,0,0-.61-.24V7.54A1.32,1.32,0,0,1,6,8.9a1.42,1.42,0,0,1-1.3,1.48v.42a.07.07,0,0,1-.07.07H4.27s-.06,0-.06-.07v-.4a2.32,2.32,0,0,1-1.37-.5A.07.07,0,0,1,2.82,9.8ZM4.21,6.46A.53.53,0,0,0,3.86,7a.46.46,0,0,0,.35.48ZM5,9a.46.46,0,0,0-.35-.46v1A.56.56,0,0,0,5,9Z"/><path d="M8.34,7.54V6.43A1.59,1.59,0,0,1,9,6.67s.07,0,.09,0l.4-.58a.07.07,0,0,0,0-.1A2.24,2.24,0,0,0,8.34,5.6V5.2a.07.07,0,0,0-.07-.07H8a.07.07,0,0,0-.07.07v.4A1.41,1.41,0,0,0,6.59,7,1.36,1.36,0,0,0,7.88,8.4V9.57a1.59,1.59,0,0,1-.82-.36.07.07,0,0,0-.1,0l-.45.57a.07.07,0,0,0,0,.11,2.38,2.38,0,0,0,1.36.5v.4a.07.07,0,0,0,.07.07h.32a.07.07,0,0,0,.07-.07v-.42a1.57,1.57,0,0,0,.45-.13h0l.83-1.55A1.34,1.34,0,0,0,8.34,7.54Zm-.46-.09A.47.47,0,0,1,7.54,7a.52.52,0,0,1,.34-.5Zm.46,2.07v-1A.43.43,0,0,1,8.68,9,.54.54,0,0,1,8.34,9.52Z"/><path d="M13.14,6A2.39,2.39,0,0,0,12,5.58v-.4A.06.06,0,0,0,12,5.11h-.31a.06.06,0,0,0-.07.07v.4A1.41,1.41,0,0,0,10.29,7a1.26,1.26,0,0,0,.31.86A3.89,3.89,0,0,1,12,7.35V6.41a1.63,1.63,0,0,1,.62.24.07.07,0,0,0,.09,0l.41-.58A.1.1,0,0,0,13.14,6ZM11.59,7.43a.47.47,0,0,1-.34-.49.52.52,0,0,1,.34-.5Z"/><path d="M15.19,2.15H.76a.57.57,0,0,0-.51.32.46.46,0,0,0-.08.25V13.27a.51.51,0,0,0,0,.22h0a.6.6,0,0,0,.54.37H9.52a4,4,0,0,1-.7-1.32H1.49V3.47h13V7.71a4,4,0,0,1,1.32,1v-6A.58.58,0,0,0,15.19,2.15Z"/><path d="M12.68,8.22a3.13,3.13,0,1,0,3.13,3.12A3.12,3.12,0,0,0,12.68,8.22Zm0,5.35a2.23,2.23,0,1,1,2.23-2.23A2.23,2.23,0,0,1,12.68,13.57Z"/><path d="M13,10.34l-.28.28L13,11a1.47,1.47,0,0,0-.76.08,1.44,1.44,0,0,0-.73.6l.29.31a1,1,0,0,1,.58-.55,1.22,1.22,0,0,1,.65,0l-.39.39.28.28.86-.86Z"/></svg>