<svg id="Layer_1" data-name="Layer 1" xmlns="http://www.w3.org/2000/svg" viewBox="0 0 16 16"><title>transfers</title><path d="M2.825,9.8l.467-.577c.028-.034.062-.042.09-.014a1.593,1.593,0,0,0,.824.364V8.4A1.35,1.35,0,0,1,2.914,7.042,1.416,1.416,0,0,1,4.206,5.6V5.193a.066.066,0,0,1,.069-.069h.316a.066.066,0,0,1,.069.069V5.6a2.339,2.339,0,0,1,1.092.372.068.068,0,0,1,.014.1l-.4.577a.071.071,0,0,1-.1.021A1.709,1.709,0,0,0,4.66,6.43V7.537A1.328,1.328,0,0,1,5.959,8.9a1.422,1.422,0,0,1-1.3,1.477V10.8a.065.065,0,0,1-.069.069H4.275a.065.065,0,0,1-.069-.069v-.4a2.393,2.393,0,0,1-1.367-.5A.069.069,0,0,1,2.825,9.8ZM4.206,6.464a.523.523,0,0,0-.344.5.462.462,0,0,0,.344.481Zm.8,2.489a.461.461,0,0,0-.351-.461V9.523A.561.561,0,0,0,5.011,8.953Z"/><path d="M8.342,7.539V6.425a1.8,1.8,0,0,1,.6.245.068.068,0,0,0,.1-.02l.4-.576a.07.07,0,0,0-.02-.107A2.341,2.341,0,0,0,8.342,5.6V5.2a.067.067,0,0,0-.069-.068H7.951a.066.066,0,0,0-.068.068v.4A1.413,1.413,0,0,0,6.594,7.041,1.356,1.356,0,0,0,7.883,8.4V9.57a1.525,1.525,0,0,1-.821-.362.066.066,0,0,0-.1.01l-.459.576a.07.07,0,0,0,.01.108,2.366,2.366,0,0,0,1.367.5v.4a.066.066,0,0,0,.068.068h.322a.067.067,0,0,0,.069-.068v-.42a1.605,1.605,0,0,0,.449-.127v-.01l.83-1.552A1.334,1.334,0,0,0,8.342,7.539Zm-.459-.088a.464.464,0,0,1-.342-.489.507.507,0,0,1,.342-.5Zm.459,2.07V8.495a.449.449,0,0,1,.341.459A.552.552,0,0,1,8.342,9.521Z"/><path d="M13.136,5.947a2.371,2.371,0,0,0-1.094-.371v-.4a.062.062,0,0,0-.068-.069h-.313a.062.062,0,0,0-.068.069v.4a1.422,1.422,0,0,0-1.3,1.445,1.28,1.28,0,0,0,.3.859,3.847,3.847,0,0,1,1.445-.527V6.406a1.842,1.842,0,0,1,.615.244.077.077,0,0,0,.1-.02l.4-.576A.077.077,0,0,0,13.136,5.947ZM11.593,7.431a.462.462,0,0,1-.342-.488.508.508,0,0,1,.342-.5Z"/><path d="M15.186,2.149H.764a.576.576,0,0,0-.517.322.456.456,0,0,0-.078.254V13.27a.49.49,0,0,0,.049.215v.02a.6.6,0,0,0,.546.361H9.523a3.907,3.907,0,0,1-.7-1.318H1.487V3.467H14.464V7.714A3.961,3.961,0,0,1,15.782,8.73V2.744A.592.592,0,0,0,15.186,2.149Z"/><path d="M12.685,8.215a3.127,3.127,0,1,0,3.127,3.127A3.127,3.127,0,0,0,12.685,8.215Zm0,5.35a2.223,2.223,0,1,1,2.223-2.223A2.223,2.223,0,0,1,12.685,13.565Z"/><path d="M12.95,10.337l-.278.28.372.37a1.5,1.5,0,0,0-.765.078,1.463,1.463,0,0,0-.725.606l.287.305a1.011,1.011,0,0,1,.584-.544,1.162,1.162,0,0,1,.641-.041l-.389.393.28.278.859-.866Z"/></svg>