<svg id="Layer_1" data-name="Layer 1" xmlns="http://www.w3.org/2000/svg" viewBox="0 0 16 16"><title>trash-circle-outline</title><path d="M8.05.14A7.83,7.83,0,1,0,15.87,8,7.83,7.83,0,0,0,8.05.14Zm0,15.06A7.24,7.24,0,1,1,15.28,8,7.25,7.25,0,0,1,8.05,15.2Z"/><path d="M11.11,5.8H9.51V4.68a.34.34,0,0,0-.33-.34H6.94a.34.34,0,0,0-.34.34V5.8H5a.34.34,0,0,0,0,.67h.52v4.82a.34.34,0,0,0,.34.34h4.4a.34.34,0,0,0,.33-.34V6.47h.52a.34.34,0,1,0,0-.67ZM7.28,5H8.84V5.8H7.28Zm2.64,6H6.19V6.47H9.92Z"/><path d="M8.79,10.53a.34.34,0,0,0,.33-.34v-3a.33.33,0,1,0-.66,0v3A.34.34,0,0,0,8.79,10.53Z"/><path d="M7.33,10.53a.34.34,0,0,0,.33-.34v-3a.33.33,0,1,0-.66,0v3A.34.34,0,0,0,7.33,10.53Z"/></svg>