<svg width="16" height="16" viewBox="0 0 16 16" fill="none" xmlns="http://www.w3.org/2000/svg">
<path d="M7.99999 0.175003C6.45235 0.175003 4.93947 0.633931 3.65265 1.49375C2.36584 2.35357 1.36289 3.57567 0.770634 5.0055C0.178378 6.43534 0.0234172 8.00868 0.325346 9.52658C0.627276 11.0445 1.37253 12.4388 2.46688 13.5331C3.56123 14.6275 4.95551 15.3727 6.47341 15.6746C7.99131 15.9766 9.56466 15.8216 10.9945 15.2294C12.4243 14.6371 13.6464 13.6342 14.5062 12.3473C15.3661 11.0605 15.825 9.54764 15.825 8C15.8226 5.92541 14.9974 3.93648 13.5305 2.46952C12.0635 1.00257 10.0746 0.177385 7.99999 0.175003ZM7.99999 15.2359C6.56882 15.2361 5.16973 14.8119 3.97965 14.0169C2.78958 13.222 1.86198 12.0919 1.31416 10.7698C0.766332 9.44759 0.622894 7.99265 0.901981 6.58896C1.18107 5.18526 1.87014 3.89585 2.88207 2.88378C3.89399 1.87172 5.1833 1.18247 6.58696 0.903188C7.99062 0.623907 9.44558 0.767144 10.7678 1.31478C12.0901 1.86242 13.2202 2.78987 14.0154 3.97983C14.8105 5.1698 15.2349 6.56883 15.2349 8C15.2331 9.91853 14.4703 11.758 13.114 13.1149C11.7577 14.4718 9.91852 15.2353 7.99999 15.2379V15.2359Z" fill="black"/>
<path d="M11.0644 5.83673H9.46418V4.71458C9.46418 4.62546 9.42877 4.53998 9.36575 4.47696C9.30273 4.41394 9.21726 4.37854 9.12813 4.37854H6.89185C6.80263 4.37854 6.71705 4.41391 6.65388 4.4769C6.5907 4.53989 6.55507 4.62537 6.5548 4.71458V5.83673H4.9516C4.86248 5.83673 4.777 5.87213 4.71398 5.93515C4.65096 5.99817 4.61556 6.08364 4.61556 6.17277C4.61556 6.26189 4.65096 6.34737 4.71398 6.41039C4.777 6.47341 4.86248 6.50881 4.9516 6.50881H5.46967V11.3284C5.46993 11.4175 5.50542 11.5028 5.56838 11.5658C5.63135 11.6287 5.71667 11.6642 5.80571 11.6645H10.2063C10.2955 11.6645 10.3811 11.6291 10.4442 11.5661C10.5074 11.5031 10.543 11.4176 10.5433 11.3284V6.50981H11.0614C11.1505 6.50981 11.236 6.47441 11.299 6.41139C11.362 6.34837 11.3974 6.26289 11.3974 6.17377C11.3974 6.08464 11.362 5.99917 11.299 5.93615C11.236 5.87313 11.1505 5.83773 11.0614 5.83773L11.0644 5.83673ZM7.22789 5.05062H8.79309V5.83673H7.22789V5.05062ZM9.87423 10.9924H6.15175V6.50981H9.87423V10.9924Z" fill="black"/>
<path d="M8.74008 10.5633C8.82712 10.5633 8.91068 10.5292 8.97278 10.4682C9.03488 10.4072 9.07055 10.3243 9.07213 10.2373V7.24991C9.0746 7.20483 9.06786 7.15973 9.05232 7.11735C9.03678 7.07498 9.01276 7.03621 8.98173 7.00343C8.9507 6.97065 8.91331 6.94454 8.87185 6.92669C8.83039 6.90885 8.78572 6.89965 8.74058 6.89965C8.69545 6.89965 8.65078 6.90885 8.60932 6.92669C8.56786 6.94454 8.53047 6.97065 8.49944 7.00343C8.46841 7.03621 8.44439 7.07498 8.42885 7.11735C8.4133 7.15973 8.40657 7.20483 8.40904 7.24991V10.2373C8.41035 10.3242 8.44581 10.4071 8.50775 10.4681C8.56969 10.5291 8.65315 10.5633 8.74008 10.5633Z" fill="black"/>
<path d="M7.2799 10.5633C7.3677 10.5633 7.4519 10.5285 7.51398 10.4664C7.57606 10.4043 7.61094 10.3201 7.61094 10.2323V7.24991C7.61094 7.16211 7.57606 7.07791 7.51398 7.01582C7.4519 6.95374 7.3677 6.91886 7.2799 6.91886C7.1921 6.91886 7.1079 6.95374 7.04582 7.01582C6.98373 7.07791 6.94886 7.16211 6.94886 7.24991V10.2373C6.95017 10.3242 6.98562 10.4071 7.04757 10.4681C7.10951 10.5291 7.19296 10.5633 7.2799 10.5633Z" fill="black"/>
</svg>
