<svg id="Layer_1" data-name="Layer 1" xmlns="http://www.w3.org/2000/svg" viewBox="0 0 16 15.319">
  <title>upload</title>
  <g>
    <path d="M12.69,5.012a3.092,3.092,0,0,0-2.638-1.53l-.12,0a4.222,4.222,0,0,0-7.37,1.8,4.223,4.223,0,0,0,1.789,8.05H6.336V11.652H4.351a2.542,2.542,0,0,1-.654-5l.432-.116.019-.448A2.541,2.541,0,0,1,8.906,4.947l.243.431.471-.15a1.3,1.3,0,0,1,.388-.058,1.431,1.431,0,0,1,1.354.975l.119.392.407.038a2.544,2.544,0,0,1-.238,5.077H10.172v1.681h1.477A4.226,4.226,0,0,0,12.69,5.012Z"/>
    <path d="M6.99,10.092l.357-.347v3.611H9.2v-3.6l.322.332A.918.918,0,1,0,10.81,8.784L8.894,6.866a.946.946,0,0,0-1.31,0L5.667,8.783a.927.927,0,0,0,0,1.308A.97.97,0,0,0,6.99,10.092Z"/>
  </g>
</svg>
