<svg xmlns="http://www.w3.org/2000/svg" viewBox="0 0 16 16"><title>add-household</title><g id="Layer_1" data-name="Layer 1"><path d="M14.5,7.85,9,1.62A1.38,1.38,0,0,0,7,1.62L1.5,7.85a1.3,1.3,0,0,0-.22,1.44,1.32,1.32,0,0,0,1.24.77H3v3.41a1.38,1.38,0,0,0,1.33,1.41h7.31A1.41,1.41,0,0,0,13,13.47V10.06h.46a1.32,1.32,0,0,0,1.24-.77A1.3,1.3,0,0,0,14.5,7.85ZM8,2.51,13.5,8.72H11.68v4.75s0,.06,0,.06H4.35s0,0,0-.06V8.77H2.53s0,0,0,0L8,2.51"/><path d="M9.54,8.28h-.9V7.35A.66.66,0,0,0,8,6.68H8a.68.68,0,0,0-.68.67v.93H6.46a.65.65,0,0,0-.67.64v0a.68.68,0,0,0,.67.68h.83v.81a.69.69,0,0,0,.69.68H8a.67.67,0,0,0,.67-.68V9.62h.9a.7.7,0,0,0,.67-.7v0A.66.66,0,0,0,9.54,8.28Z"/></g></svg>