<svg width="16" height="16" viewBox="0 0 16 16" fill="none" xmlns="http://www.w3.org/2000/svg">
<path d="M14.4953 7.83165L9.02241 1.60909C8.89423 1.46327 8.73644 1.34646 8.55956 1.26643C8.38267 1.18641 8.19076 1.14502 7.99661 1.14502C7.80247 1.14502 7.61055 1.18641 7.43367 1.26643C7.25678 1.34646 7.099 1.46327 6.97082 1.60909L1.49794 7.83165C1.32305 8.02301 1.2089 8.26196 1.16992 8.51825C1.13094 8.77453 1.1689 9.03662 1.27898 9.27131C1.38707 9.50914 1.56292 9.70979 1.78451 9.84814C2.00611 9.9865 2.26359 10.0564 2.52473 10.0491H3.02463V13.4483C3.01601 13.8114 3.15145 14.1632 3.40135 14.4268C3.65125 14.6903 3.9953 14.8443 4.35835 14.855H11.6569C12.0239 14.8469 12.3731 14.6949 12.6291 14.4318C12.8851 14.1686 13.0275 13.8155 13.0256 13.4483V10.0491H13.4785C13.7396 10.0564 13.9971 9.9865 14.2187 9.84814C14.4403 9.70979 14.6162 9.50914 14.7242 9.27131C14.8332 9.03569 14.8696 8.77301 14.8288 8.51665C14.788 8.2603 14.6719 8.02186 14.4953 7.83165ZM8.01261 2.49789L13.4955 8.70345C13.4955 8.71044 13.4895 8.70345 13.4735 8.70345H11.6739V13.4523C11.6739 13.4633 11.6639 13.5123 11.6519 13.5123H4.35335C4.34136 13.5123 4.36535 13.4633 4.36535 13.4523V8.75344H2.52473C2.51973 8.75344 2.50473 8.73544 2.51273 8.72044L7.98562 2.49789" fill="black"/>
<path d="M9.5353 8.26155H8.63548V7.33976C8.63761 7.25237 8.6223 7.16543 8.59044 7.08403C8.55859 7.00262 8.51082 6.92838 8.44995 6.86564C8.38907 6.80291 8.3163 6.75293 8.23589 6.71864C8.15548 6.68435 8.06903 6.66642 7.98162 6.66592H7.97162C7.79208 6.66565 7.61969 6.7363 7.49199 6.8625C7.36429 6.9887 7.2916 7.16023 7.28976 7.33976V8.26155H6.45793C6.37101 8.25834 6.28433 8.2726 6.20302 8.3035C6.12172 8.33441 6.04744 8.38132 5.9846 8.44145C5.92176 8.50159 5.87163 8.57373 5.83718 8.65359C5.80274 8.73346 5.78467 8.81942 5.78406 8.9064V8.92039C5.78351 9.10058 5.85389 9.27374 5.97999 9.40245C6.10608 9.53116 6.27777 9.60508 6.45793 9.60824H7.28676V10.417C7.29094 10.5976 7.36574 10.7692 7.4951 10.8952C7.62445 11.0212 7.79805 11.0915 7.97862 11.0909H7.96862C8.05657 11.0906 8.1436 11.073 8.22468 11.0389C8.30576 11.0048 8.37929 10.955 8.44101 10.8923C8.50274 10.8297 8.55144 10.7554 8.5843 10.6739C8.61717 10.5923 8.63354 10.505 8.63248 10.417V9.60824H9.5323C9.71337 9.60151 9.88478 9.52481 10.0105 9.39429C10.1361 9.26377 10.2063 9.08959 10.2062 8.9084V8.92239C10.206 8.8348 10.1885 8.7481 10.1546 8.66733C10.1208 8.58655 10.0712 8.51331 10.0088 8.45184C9.94638 8.39037 9.8724 8.34189 9.79112 8.30923C9.70984 8.27656 9.62289 8.26036 9.5353 8.26155Z" fill="black"/>
</svg>
