<svg xmlns="http://www.w3.org/2000/svg" viewBox="0 0 16 16">
  <title>Artboard 55</title>
  <g id="Layer_1" data-name="Layer 1">
    <g>
      <path d="M14.5,7.847,9.026,1.623a1.366,1.366,0,0,0-2.052,0L1.5,7.847a1.31,1.31,0,0,0-.219,1.44,1.328,1.328,0,0,0,1.246.778h.5v3.4a1.375,1.375,0,0,0,1.334,1.407h7.3a1.4,1.4,0,0,0,1.369-1.407v-3.4h.453a1.328,1.328,0,0,0,1.246-.778A1.309,1.309,0,0,0,14.5,7.847ZM8.016,2.512,13.5,8.719c0,.007-.006,0-.022,0h-1.8v4.75c0,.011-.01.06-.022.06h-7.3c-.012,0,.012-.049.012-.06v-4.7H2.527c-.005,0-.02-.018-.012-.033L7.989,2.512"/>
      <path d="M9.539,8.277h-.9V7.355a.658.658,0,0,0-.654-.674h-.01a.681.681,0,0,0-.682.674v.922H6.461a.65.65,0,0,0-.674.645v.014a.686.686,0,0,0,.674.688H7.29v.809a.69.69,0,0,0,.692.674h-.01a.666.666,0,0,0,.664-.674V9.624h.9a.7.7,0,0,0,.674-.7v.014A.662.662,0,0,0,9.539,8.277Z"/>
    </g>
  </g>
</svg>
