<svg xmlns="http://www.w3.org/2000/svg" viewBox="0 0 16 16"><title>bar-code</title><g id="Layer_1" data-name="Layer 1"><rect x="1.47" y="4.64" width="1.15" height="6.73"/><path d="M15,3.23H1a1,1,0,0,0-1,1v7.56a1,1,0,0,0,1,1H15a1,1,0,0,0,1-1V4.22A1,1,0,0,0,15,3.23Zm.42,8.55a.42.42,0,0,1-.42.41H1a.41.41,0,0,1-.41-.41V4.22A.41.41,0,0,1,1,3.81H15a.42.42,0,0,1,.42.41Z"/><rect x="3.84" y="4.64" width="0.57" height="6.73"/><rect x="3.2" y="4.64" width="0.25" height="6.73"/><rect x="5.11" y="4.64" width="1.35" height="6.73"/><rect x="7.03" y="4.64" width="0.59" height="6.73"/><rect x="10.73" y="4.64" width="1.35" height="6.73"/><rect x="9.58" y="4.64" width="0.59" height="6.73"/><rect x="8.37" y="4.64" width="0.59" height="6.73"/><rect x="13.85" y="4.64" width="0.59" height="6.73"/><rect x="12.63" y="4.64" width="0.59" height="6.73"/></g></svg>