<svg width="16" height="16" viewBox="0 0 16 16" fill="none" xmlns="http://www.w3.org/2000/svg">
<path d="M2.62207 4.63442H1.4698V11.3606H2.62207V4.63442Z" fill="black"/>
<path d="M15.0015 3.22501H0.998502C0.733683 3.22501 0.47971 3.33032 0.292455 3.51778C0.105199 3.70523 0 3.95948 0 4.22459V11.7754C0 12.0405 0.105199 12.2948 0.292455 12.4822C0.47971 12.6697 0.733683 12.775 0.998502 12.775H15.0015C15.1326 12.775 15.2625 12.7492 15.3836 12.6989C15.5048 12.6487 15.6148 12.5751 15.7075 12.4822C15.8003 12.3894 15.8738 12.2792 15.924 12.1579C15.9742 12.0367 16 11.9067 16 11.7754V4.22259C15.9995 3.95783 15.894 3.7041 15.7068 3.51707C15.5196 3.33004 15.266 3.22501 15.0015 3.22501ZM15.4119 11.7734C15.4116 11.8823 15.3683 11.9866 15.2914 12.0636C15.2145 12.1406 15.1103 12.184 15.0015 12.1843H0.998502C0.889743 12.184 0.785513 12.1406 0.708608 12.0636C0.631703 11.9866 0.588381 11.8823 0.588118 11.7734V4.22259C0.588118 4.11363 0.631355 4.00913 0.708317 3.93209C0.785279 3.85504 0.889662 3.81176 0.998502 3.81176H15.0015C15.1103 3.81176 15.2147 3.85504 15.2917 3.93209C15.3686 4.00913 15.4119 4.11363 15.4119 4.22259V11.7734Z" fill="black"/>
<path d="M4.3994 4.63442H3.83325V11.3606H4.3994V4.63442Z" fill="black"/>
<path d="M3.44683 4.63442H3.1972V11.3606H3.44683V4.63442Z" fill="black"/>
<path d="M6.45032 4.63442H5.10334V11.3606H6.45032V4.63442Z" fill="black"/>
<path d="M7.60359 4.63442H7.01747V11.3606H7.60359V4.63442Z" fill="black"/>
<path d="M12.0669 4.63442H10.7189V11.3606H12.0669V4.63442Z" fill="black"/>
<path d="M10.1528 4.63442H9.56665V11.3606H10.1528V4.63442Z" fill="black"/>
<path d="M8.94159 4.63442H8.35547V11.3606H8.94159V4.63442Z" fill="black"/>
<path d="M14.4104 4.63442H13.8243V11.3606H14.4104V4.63442Z" fill="black"/>
<path d="M13.1992 4.63442H12.6141V11.3606H13.1992V4.63442Z" fill="black"/>
</svg>
