<svg xmlns="http://www.w3.org/2000/svg" viewBox="0 0 16 16"><title>barcode-camera</title><g id="1ad45863-f2d0-4478-a0c5-ea800f754d65" data-name="Layer 1"><path d="M14.661,2.968H12.2a.95.95,0,0,0-.947-.947h-6.5a.95.95,0,0,0-.947.947H1.333A1.337,1.337,0,0,0,0,4.3v8.1a1.337,1.337,0,0,0,1.333,1.333H14.661A1.337,1.337,0,0,0,15.994,12.4V4.3A1.337,1.337,0,0,0,14.661,2.968ZM7.994,12.2a4.2,4.2,0,1,1,4.2-4.2A4.2,4.2,0,0,1,7.994,12.2Z"/><path d="M7.994,4.3a3.7,3.7,0,1,0,3.7,3.7A3.7,3.7,0,0,0,7.994,4.3Zm0,6.9a3.2,3.2,0,1,1,3.2-3.2A3.2,3.2,0,0,1,7.994,11.2Z"/><rect x="5.735" y="6.258" width="0.651" height="3.484"/><rect x="6.706" y="6.258" width="0.326" height="3.484"/><rect x="7.351" y="6.258" width="0.651" height="3.484"/><rect x="9.614" y="6.258" width="0.651" height="3.484"/><rect x="8.323" y="6.258" width="0.326" height="3.484"/><rect x="8.968" y="6.258" width="0.326" height="3.484"/></g></svg>