<svg xmlns="http://www.w3.org/2000/svg" viewBox="0 0 16 16">
  <g id="Layer_1" data-name="Layer 1">
    <path d="M15.247,2.488,8.478.271a1.546,1.546,0,0,0-.956,0L.753,2.488A.533.533,0,0,0,.385,3V7.723a5.4,5.4,0,0,0,2.129,4.3l4.555,3.471a1.536,1.536,0,0,0,1.862,0l4.555-3.471a5.4,5.4,0,0,0,2.129-4.3V3A.533.533,0,0,0,15.247,2.488ZM11.431,6.62l-3.94,4.071a.112.112,0,0,1-.16,0L4.569,7.851a.111.111,0,0,1,0-.155l1.089-1.12a.111.111,0,0,1,.159,0L7.324,8.127a.072.072,0,0,0,.1,0l2.72-2.816a.111.111,0,0,1,.16,0l1.123,1.156A.111.111,0,0,1,11.431,6.62Z"/>
  </g>
</svg>
