<svg width="16" height="16" viewBox="0 0 16 16" fill="none" xmlns="http://www.w3.org/2000/svg">
<path d="M15.216 2.47617L8.44849 0.270714C8.12283 0.16969 7.77422 0.16969 7.44856 0.270714L0.78501 2.47617C0.670915 2.50061 0.568773 2.56375 0.495883 2.65489C0.422992 2.74603 0.383833 2.85957 0.385037 2.97627V7.68925C0.383417 8.51998 0.570941 9.34017 0.933386 10.0876C1.29583 10.8351 1.82368 11.4901 2.4769 12.0031L7.05459 15.5039C7.33114 15.6997 7.66165 15.8049 8.00052 15.8049C8.33939 15.8049 8.6699 15.6997 8.94646 15.5039L13.5241 12.0031C14.1764 11.4902 14.7036 10.8357 15.0658 10.0891C15.4281 9.34242 15.6158 8.52317 15.615 7.69325V2.97727C15.5401 2.77126 15.4 2.59532 15.216 2.47617ZM10.6163 9.57164L9.56942 10.6179L8.00052 9.04853L6.43163 10.6179L5.3857 9.57164L6.95459 8.00231L5.3857 6.43299L6.43163 5.38677L8.00052 6.9561L9.56942 5.38677L10.6153 6.43299L9.04645 8.00231L10.6163 9.57164Z" fill="black"/>
</svg>
