<svg xmlns="http://www.w3.org/2000/svg" viewBox="0 0 16 16">
  <title>bgcheck-x</title>
  <g id="Layer_1" data-name="Layer 1">
    <path d="M15.216,2.475,8.448.27a1.688,1.688,0,0,0-1,0L.784,2.475a.506.506,0,0,0-.4.5V7.687A5.47,5.47,0,0,0,2.476,12L7.054,15.5a1.637,1.637,0,0,0,1.892,0L13.524,12a5.474,5.474,0,0,0,2.091-4.309V2.976A1.007,1.007,0,0,0,15.216,2.475Zm-4.6,7.094L9.569,10.615,8,9.046,6.431,10.615,5.385,9.569,6.954,8,5.385,6.431,6.431,5.385,8,6.954,9.569,5.385l1.046,1.046L9.046,8Z"/>
  </g>
</svg>
