<svg xmlns="http://www.w3.org/2000/svg" viewBox="0 0 16 16"><title>birthday</title><g id="Layer_1" data-name="Layer 1"><path d="M9,2.31a1.13,1.13,0,0,1-2.26,0A2.74,2.74,0,0,1,8,.07a2.93,2.93,0,0,0,.27,1C8.47,1.4,9,1.62,9,2.31Z"/><path d="M5,2.31a1.13,1.13,0,0,1-2.26,0A2.74,2.74,0,0,1,4,.07a2.93,2.93,0,0,0,.27,1C4.47,1.4,5,1.62,5,2.31Z"/><path d="M13,2.31a1.13,1.13,0,0,1-2.26,0A2.74,2.74,0,0,1,12,.07a2.93,2.93,0,0,0,.27,1C12.47,1.4,13,1.62,13,2.31Z"/><path d="M15.29,8.76H12.43V4.1a.68.68,0,0,0-.56-.23.65.65,0,0,0-.55.23V8.76H8.43V4.1a.68.68,0,0,0-.56-.23.65.65,0,0,0-.55.23V8.76H4.43V4.1a.68.68,0,0,0-.56-.23.65.65,0,0,0-.55.23V8.76H.71a.5.5,0,0,0-.5.5v1.86a2.93,2.93,0,0,0,2.07.73c1.38,0,2.35-.7,2.35-1.32h1c0,.62,1,1.32,2.35,1.32s2.35-.7,2.35-1.32h1c0,.62,1,1.32,2.35,1.32a2.85,2.85,0,0,0,2.11-.77V9.26A.5.5,0,0,0,15.29,8.76Z"/><path d="M10.83,11.75A3.81,3.81,0,0,1,8,12.85a3.81,3.81,0,0,1-2.85-1.1,3.83,3.83,0,0,1-2.85,1.1,4.46,4.46,0,0,1-2.07-.49v3.07a.5.5,0,0,0,.5.5H15.29a.5.5,0,0,0,.5-.5v-3.1a4.36,4.36,0,0,1-2.11.52A3.81,3.81,0,0,1,10.83,11.75Z"/></g></svg>