<svg width="16" height="16" viewBox="0 0 16 16" fill="none" xmlns="http://www.w3.org/2000/svg">
<path d="M9.00003 2.31544C8.99129 2.60911 8.86845 2.88783 8.65758 3.09246C8.44672 3.2971 8.1644 3.41155 7.87053 3.41155C7.57665 3.41155 7.29434 3.2971 7.08347 3.09246C6.8726 2.88783 6.74977 2.60911 6.74103 2.31544C6.75021 1.86781 6.86872 1.42922 7.08624 1.03785C7.30376 0.646491 7.61368 0.314229 7.98903 0.0700073C8.02519 0.402078 8.11751 0.725597 8.26203 1.02677C8.47503 1.40167 9.00003 1.61862 9.00003 2.31544Z" fill="black"/>
<path d="M5.00003 2.31544C4.99129 2.60911 4.86845 2.88783 4.65758 3.09246C4.44672 3.2971 4.1644 3.41155 3.87053 3.41155C3.57665 3.41155 3.29434 3.2971 3.08347 3.09246C2.8726 2.88783 2.74977 2.60911 2.74103 2.31544C2.75021 1.86781 2.86872 1.42922 3.08624 1.03785C3.30376 0.646491 3.61368 0.314229 3.98903 0.0700073C4.02519 0.402078 4.11751 0.725597 4.26203 1.02677C4.47503 1.40167 5.00003 1.61862 5.00003 2.31544Z" fill="black"/>
<path d="M13 2.31544C12.9913 2.60911 12.8685 2.88783 12.6576 3.09246C12.4467 3.2971 12.1644 3.41155 11.8705 3.41155C11.5767 3.41155 11.2943 3.2971 11.0835 3.09246C10.8726 2.88783 10.7498 2.60911 10.741 2.31544C10.7502 1.86781 10.8687 1.42922 11.0862 1.03785C11.3038 0.646491 11.6137 0.314229 11.989 0.0700073C12.0252 0.402078 12.1175 0.725597 12.262 1.02677C12.475 1.40167 13 1.61862 13 2.31544Z" fill="black"/>
<path d="M15.285 8.75782H12.428V4.10099C12.3554 4.02781 12.269 3.96973 12.1739 3.93009C12.0787 3.89045 11.9766 3.87004 11.8735 3.87004C11.7704 3.87004 11.6683 3.89045 11.5732 3.93009C11.478 3.96973 11.3916 4.02781 11.319 4.10099V8.75782H8.42803V4.10099C8.36047 4.02125 8.2749 3.95872 8.1784 3.91857C8.0819 3.87841 7.97723 3.86178 7.87303 3.87005C7.76898 3.86186 7.66448 3.87853 7.56815 3.91869C7.47182 3.95884 7.38643 4.02133 7.31903 4.10099V8.75782H4.42803V4.10099C4.36047 4.02125 4.2749 3.95872 4.1784 3.91857C4.0819 3.87841 3.97723 3.86178 3.87303 3.87005C3.76898 3.86186 3.66448 3.87853 3.56815 3.91869C3.47182 3.95884 3.38643 4.02133 3.31903 4.10099V8.75782H0.715027C0.582419 8.75782 0.455242 8.81048 0.361473 8.90423C0.267705 8.99797 0.215027 9.12512 0.215027 9.25769V11.1222C0.781274 11.6242 1.52225 11.8835 2.27803 11.844C3.66303 11.844 4.62903 11.1532 4.62903 10.5324H5.62903C5.62903 11.1532 6.59503 11.844 7.98003 11.844C9.36503 11.844 10.33 11.1532 10.33 10.5324H11.33C11.33 11.1532 12.296 11.844 13.682 11.844C14.0657 11.8657 14.4497 11.8091 14.8107 11.6776C15.1717 11.5461 15.5022 11.3425 15.782 11.0792V9.25769C15.782 9.12563 15.7298 8.99894 15.6366 8.90528C15.5435 8.81162 15.4171 8.75861 15.285 8.75782Z" fill="black"/>
<path d="M10.83 11.7501C10.4561 12.119 10.0098 12.4065 9.51939 12.5948C9.02893 12.783 8.50483 12.8678 7.98003 12.8438C7.45506 12.8678 6.93079 12.7831 6.44016 12.5949C5.94953 12.4067 5.50313 12.119 5.12903 11.7501C4.75488 12.119 4.30848 12.4066 3.81786 12.5948C3.32723 12.783 2.80298 12.8678 2.27803 12.8438C1.56056 12.8523 0.852024 12.6841 0.215027 12.3539V15.4301C0.215027 15.5627 0.267705 15.6899 0.361473 15.7836C0.455242 15.8773 0.582419 15.93 0.715027 15.93H15.285C15.4176 15.93 15.5448 15.8773 15.6386 15.7836C15.7323 15.6899 15.785 15.5627 15.785 15.4301V12.3309C15.1394 12.6758 14.417 12.8523 13.685 12.8438C13.1594 12.8681 12.6345 12.7835 12.1432 12.5953C11.6519 12.4071 11.2048 12.1193 10.83 11.7501Z" fill="black"/>
</svg>
