<svg xmlns="http://www.w3.org/2000/svg" viewBox="0 0 16 16">
  <g id="Layer_1" data-name="Layer 1">
    <g>
      <path d="M9,2.314a1.13,1.13,0,0,1-2.259,0A2.747,2.747,0,0,1,7.989.068a2.951,2.951,0,0,0,.273.957C8.475,1.4,9,1.617,9,2.314Z"/>
      <path d="M5,2.314a1.13,1.13,0,0,1-2.259,0A2.747,2.747,0,0,1,3.989.068a2.951,2.951,0,0,0,.273.957C4.475,1.4,5,1.617,5,2.314Z"/>
      <path d="M13,2.314a1.13,1.13,0,0,1-2.259,0A2.747,2.747,0,0,1,11.989.068a2.951,2.951,0,0,0,.273.957C12.475,1.4,13,1.617,13,2.314Z"/>
      <g>
        <path d="M15.285,8.758H12.428V4.1a.781.781,0,0,0-1.109,0V8.758H8.428V4.1a.659.659,0,0,0-.555-.231.658.658,0,0,0-.554.231V8.758H4.428V4.1a.659.659,0,0,0-.555-.231.658.658,0,0,0-.554.231V8.758H.715a.5.5,0,0,0-.5.5v1.865a2.883,2.883,0,0,0,2.063.722c1.385,0,2.351-.691,2.351-1.312h1c0,.621.966,1.312,2.351,1.312s2.35-.691,2.35-1.312h1c0,.621.966,1.312,2.352,1.312a2.831,2.831,0,0,0,2.1-.765V9.258A.5.5,0,0,0,15.285,8.758Z"/>
        <path d="M10.83,11.751a3.81,3.81,0,0,1-2.85,1.094,3.811,3.811,0,0,1-2.851-1.094,3.812,3.812,0,0,1-2.851,1.094,4.369,4.369,0,0,1-2.063-.49v3.077a.5.5,0,0,0,.5.5h14.57a.5.5,0,0,0,.5-.5v-3.1a4.349,4.349,0,0,1-2.1.513A3.816,3.816,0,0,1,10.83,11.751Z"/>
      </g>
    </g>
  </g>
</svg>
