<svg xmlns="http://www.w3.org/2000/svg" viewBox="0 0 16 16">
  <title>capacity</title>
  <g id="Layer_1" data-name="Layer 1">
    <g>
      <path d="M.949,8.6h5.49a.948.948,0,0,1,.948.948v5.5A.949.949,0,0,1,6.438,16H.948A.948.948,0,0,1,0,15.052v-5.5A.949.949,0,0,1,.949,8.6Z"/>
      <path d="M6.439,0H.948A.949.949,0,0,0,0,.949V6.425a.949.949,0,0,0,.948.949H6.439a.948.948,0,0,0,.948-.949V.949A.948.948,0,0,0,6.439,0Zm0,6.141L1.231.949H6.439Z" fill-rule="evenodd"/>
      <path d="M15.052,0H9.561a.948.948,0,0,0-.948.949V6.425a.948.948,0,0,0,.948.949h5.491A.948.948,0,0,0,16,6.425V.949A.948.948,0,0,0,15.052,0Zm.031,6.269a.188.188,0,0,1-.187.188H9.717a.188.188,0,0,1-.187-.188V1.1A.187.187,0,0,1,9.717.917H14.9a.187.187,0,0,1,.187.187Z" fill-rule="evenodd"/>
      <path d="M15.052,8.6H9.561a.948.948,0,0,0-.948.949v5.5A.948.948,0,0,0,9.561,16h5.491A.948.948,0,0,0,16,15.051v-5.5A.948.948,0,0,0,15.052,8.6Zm0,6.147L9.829,9.553l5.223,0Z" fill-rule="evenodd"/>
    </g>
  </g>
</svg>
