<svg xmlns="http://www.w3.org/2000/svg" viewBox="0 0 16 16">
  <g id="Layer_1" data-name="Layer 1">
    <path d="M5.7.018a5.451,5.451,0,1,0,5.452,5.45A5.448,5.448,0,0,0,5.7.018Zm0,9.525a4.075,4.075,0,0,1,0-8.149V5.477L9.014,7.839A4.068,4.068,0,0,1,5.7,9.543Z"/>
    <path d="M12.753,15.474a.506.506,0,0,0,.506.506h1.617a.507.507,0,0,0,.507-.507v-8.7a.506.506,0,0,0-.506-.506H13.26a.507.507,0,0,0-.507.507Z"/>
    <path d="M8.839,11.573v3.9a.506.506,0,0,0,.507.506h1.617a.506.506,0,0,0,.506-.506v-3.9a.51.51,0,0,0-.508-.509H9.349A.511.511,0,0,0,8.839,11.573Z"/>
    <path d="M4.927,12.783v2.692a.506.506,0,0,0,.506.506H7.048a.507.507,0,0,0,.508-.507V12.787a.513.513,0,0,0-.511-.511H5.434A.507.507,0,0,0,4.927,12.783Z"/>
  </g>
</svg>
