<svg xmlns="http://www.w3.org/2000/svg" viewBox="0 0 16 16"><title>chart</title><g id="Layer_1" data-name="Layer 1"><path d="M5.7,0a5.45,5.45,0,1,0,5.45,5.45A5.45,5.45,0,0,0,5.7,0Zm0,9.52a4.08,4.08,0,0,1,0-8.15V5.48L9,7.84A4.06,4.06,0,0,1,5.7,9.54Z"/><path d="M12.75,15.47a.51.51,0,0,0,.51.51h1.62a.5.5,0,0,0,.5-.51V6.77a.5.5,0,0,0-.5-.5H13.26a.5.5,0,0,0-.51.5Z"/><path d="M8.84,11.57v3.9a.51.51,0,0,0,.51.51H11a.51.51,0,0,0,.51-.51v-3.9a.51.51,0,0,0-.51-.51H9.35A.51.51,0,0,0,8.84,11.57Z"/><path d="M4.93,12.78v2.69a.5.5,0,0,0,.5.51H7.05a.51.51,0,0,0,.51-.51V12.79a.51.51,0,0,0-.51-.51H5.43A.5.5,0,0,0,4.93,12.78Z"/></g></svg>