<svg width="16" height="16" viewBox="0 0 16 16" fill="none" xmlns="http://www.w3.org/2000/svg">
<path d="M5.88392 1.47224e-06C4.80603 0.00019973 3.7524 0.32083 2.85627 0.921347C1.96015 1.52186 1.26178 2.37529 0.849468 3.37372C0.437159 4.37214 0.329434 5.47072 0.539914 6.53052C0.750394 7.59032 1.26963 8.56375 2.03195 9.32772C2.79428 10.0917 3.76545 10.6119 4.82267 10.8225C5.87989 11.0331 6.97567 10.9247 7.97144 10.511C8.9672 10.0973 9.81824 9.39683 10.4169 8.49823C11.0156 7.59963 11.335 6.54324 11.3348 5.46263C11.3351 4.74503 11.1943 4.03441 10.9204 3.3714C10.6465 2.70839 10.245 2.106 9.73876 1.59867C9.23252 1.09134 8.6315 0.689019 7.97006 0.414707C7.30861 0.140395 6.59972 -0.000525453 5.88392 1.47224e-06ZM5.88392 9.54708C4.81456 9.53028 3.79467 9.09262 3.04437 8.32856C2.29408 7.5645 1.87355 6.53531 1.87355 5.46313C1.87355 4.39095 2.29408 3.36177 3.04437 2.59771C3.79467 1.83364 4.81456 1.39599 5.88392 1.37919V5.47165L9.19726 7.83913C8.82066 8.36786 8.32348 8.79872 7.74714 9.09581C7.17079 9.3929 6.53198 9.54762 5.88392 9.54708Z" fill="black"/>
<path d="M12.9355 15.4918C12.9355 15.6263 12.9888 15.7553 13.0837 15.8504C13.1786 15.9456 13.3072 15.999 13.4414 15.999H15.0581C15.1925 15.999 15.3215 15.9455 15.4165 15.8502C15.5116 15.7549 15.565 15.6256 15.565 15.4908V6.77066C15.565 6.63615 15.5117 6.50715 15.4168 6.41203C15.3219 6.31692 15.1933 6.26348 15.0591 6.26348H13.4424C13.308 6.26348 13.179 6.31702 13.084 6.41233C12.9889 6.50763 12.9355 6.63688 12.9355 6.77166V15.4918Z" fill="black"/>
<path d="M9.02229 11.5818V15.4908C9.02229 15.5575 9.03541 15.6235 9.0609 15.6851C9.08639 15.7467 9.12374 15.8027 9.17082 15.8498C9.21791 15.8969 9.27379 15.9342 9.33529 15.9597C9.39678 15.9851 9.46268 15.9981 9.52919 15.998H11.1459C11.28 15.998 11.4087 15.9446 11.5036 15.8494C11.5985 15.7543 11.6518 15.6253 11.6518 15.4908V11.5818C11.6515 11.4467 11.5979 11.3173 11.5028 11.2217C11.4076 11.1261 11.2786 11.0721 11.1439 11.0716H9.53219C9.39721 11.0719 9.26782 11.1257 9.17229 11.2213C9.07675 11.3169 9.02282 11.4465 9.02229 11.5818Z" fill="black"/>
<path d="M5.11107 12.7946V15.4928C5.11107 15.6273 5.16437 15.7563 5.25925 15.8515C5.35412 15.9466 5.4828 16 5.61697 16H7.23165C7.2983 16.0001 7.36433 15.9871 7.42594 15.9616C7.48756 15.9361 7.54355 15.8987 7.59073 15.8515C7.63791 15.8043 7.67533 15.7482 7.70087 15.6865C7.72641 15.6248 7.73955 15.5586 7.73955 15.4918V12.7986C7.73902 12.6629 7.68503 12.5329 7.58933 12.437C7.49363 12.3411 7.36399 12.2869 7.22865 12.2864H5.61797C5.48353 12.2864 5.3546 12.34 5.25954 12.4353C5.16448 12.5306 5.11107 12.6598 5.11107 12.7946Z" fill="black"/>
</svg>
