<svg width="16" height="16" viewBox="0 0 16 16" fill="none" xmlns="http://www.w3.org/2000/svg">
<path fill-rule="evenodd" clip-rule="evenodd" d="M8.13051 14.422H13.2969C13.3539 14.422 13.4086 14.3993 13.4489 14.359C13.4892 14.3187 13.5119 14.264 13.5119 14.207V1.793C13.5119 1.73598 13.4892 1.68129 13.4489 1.64097C13.4086 1.60065 13.3539 1.578 13.2969 1.578H8.22252L7.22245 0H13.9169C14.228 0 14.5264 0.123584 14.7464 0.343564C14.9664 0.563544 15.09 0.861901 15.09 1.173V14.827C15.09 15.1381 14.9664 15.4365 14.7464 15.6564C14.5264 15.8764 14.228 16 13.9169 16H7.22245L8.13051 14.422Z" fill="black"/>
<path d="M10.8897 5.929C10.762 5.80117 10.5887 5.7293 10.408 5.7292C10.2273 5.72911 10.054 5.8008 9.92614 5.9285C9.7983 6.0562 9.72642 6.22945 9.72633 6.41015C9.72623 6.59084 9.79793 6.76417 9.92564 6.892L10.3537 7.319H7.9915C7.81088 7.319 7.63765 7.39075 7.50993 7.51846C7.38221 7.64617 7.31046 7.81939 7.31046 8C7.31046 8.18061 7.38221 8.35383 7.50993 8.48154C7.63765 8.60925 7.81088 8.681 7.9915 8.681H10.3527L9.92564 9.108C9.8624 9.1713 9.81225 9.24643 9.77806 9.32911C9.74386 9.41178 9.72628 9.50038 9.72633 9.58985C9.72637 9.67932 9.74404 9.76791 9.77833 9.85055C9.81261 9.93319 9.86284 10.0083 9.92614 10.0715C9.98944 10.1347 10.0646 10.1849 10.1473 10.2191C10.2299 10.2533 10.3186 10.2708 10.408 10.2708C10.4975 10.2708 10.5861 10.2531 10.6687 10.2188C10.7514 10.1845 10.8265 10.1343 10.8897 10.071L12.4288 8.532C12.4987 8.46225 12.5541 8.3794 12.592 8.2882C12.6298 8.197 12.6493 8.09923 12.6493 8.0005C12.6493 7.90177 12.6298 7.804 12.592 7.7128C12.5541 7.6216 12.4987 7.53875 12.4288 7.469L10.8897 5.929Z" fill="black"/>
<path d="M5.66034 7.539C6.07229 7.20329 6.37039 6.74845 6.51379 6.23677C6.6572 5.72509 6.6389 5.18159 6.46141 4.6807C6.28393 4.17982 5.95592 3.74605 5.52233 3.4388C5.08873 3.13155 4.57075 2.96585 4.03931 2.96438C3.50788 2.96292 2.98899 3.12577 2.55371 3.43062C2.11843 3.73548 1.78804 4.16744 1.60779 4.66733C1.42755 5.16723 1.40626 5.71062 1.54684 6.22309C1.68743 6.73555 1.98301 7.19203 2.39311 7.53C1.94062 7.80808 1.56681 8.19728 1.30721 8.66059C1.04762 9.12391 0.910882 9.64593 0.910004 10.177V11.812C0.911118 11.9768 0.945227 12.1398 1.01032 12.2913C1.07541 12.4427 1.17016 12.5796 1.289 12.6939C1.40783 12.8081 1.54834 12.8974 1.70224 12.9565C1.85614 13.0156 2.02032 13.0433 2.18509 13.038H5.85435C6.01913 13.0433 6.1833 13.0156 6.3372 12.9565C6.4911 12.8974 6.63161 12.8081 6.75045 12.6939C6.86928 12.5796 6.96404 12.4427 7.02913 12.2913C7.09422 12.1398 7.12833 11.9768 7.12944 11.812V10.177C7.12917 9.64865 6.99411 9.12909 6.73704 8.66748C6.47997 8.20587 6.10939 7.81747 5.66034 7.539ZM4.03422 4.1C4.31977 4.1 4.5989 4.18471 4.83628 4.3434C5.07366 4.50209 5.25863 4.72763 5.36776 4.99148C5.4769 5.25533 5.5053 5.54562 5.44937 5.82562C5.39345 6.10562 5.25571 6.36273 5.05359 6.56442C4.85146 6.7661 4.59405 6.9033 4.31392 6.95864C4.03378 7.01398 3.74353 6.98497 3.47989 6.8753C3.21625 6.76562 2.99108 6.5802 2.83287 6.3425C2.67466 6.10481 2.59053 5.82553 2.59112 5.54C2.59218 5.15789 2.74466 4.79178 3.01515 4.52188C3.28564 4.25197 3.65209 4.10026 4.03422 4.1ZM2.18509 11.953C2.14787 11.9527 2.11226 11.9378 2.08603 11.9114C2.0598 11.8849 2.04508 11.8492 2.04508 11.812V10.177C2.03916 9.91397 2.08586 9.6524 2.18244 9.40766C2.27901 9.16292 2.42352 8.93995 2.60746 8.75183C2.79141 8.5637 3.0111 8.41423 3.25362 8.31218C3.49614 8.21013 3.7566 8.15756 4.01972 8.15756C4.28284 8.15756 4.54331 8.21013 4.78583 8.31218C5.02835 8.41423 5.24803 8.5637 5.43198 8.75183C5.61593 8.93995 5.76044 9.16292 5.85701 9.40766C5.95358 9.6524 6.00028 9.91397 5.99436 10.177V11.812C5.99436 11.8492 5.97964 11.8849 5.95342 11.9114C5.92719 11.9378 5.89158 11.9527 5.85435 11.953H2.18509Z" fill="black"/>
</svg>
