<svg xmlns="http://www.w3.org/2000/svg" viewBox="0 0 16 16"><title>checkout</title><g id="1e60b9c7-3d2c-4e8f-9744-13e33a8c4f9c" data-name="Layer 1"><path d="M12.9,7.093a2.047,2.047,0,1,0-2.047-2.047A2.047,2.047,0,0,0,12.9,7.093Z"/><path d="M12.879,8.072a2.589,2.589,0,0,0-2.589,2.589V12.33a.68.68,0,0,0,.721.671h3.736a.68.68,0,0,0,.721-.671V10.661A2.589,2.589,0,0,0,12.879,8.072Z"/><path d="M8.769,14.422H3.6a.215.215,0,0,1-.215-.215V1.793A.215.215,0,0,1,3.6,1.578H8.677L9.677,0H2.983A1.173,1.173,0,0,0,1.81,1.173V14.827A1.173,1.173,0,0,0,2.983,16H9.677Z" fill-rule="evenodd"/><path d="M7.828,5.929a.681.681,0,0,0-.963.963l.427.427H4.931a.681.681,0,1,0,0,1.362H7.292l-.427.427a.681.681,0,1,0,.963.963l1.54-1.539a.751.751,0,0,0,0-1.063Z"/></g></svg>