<svg width="16" height="16" viewBox="0 0 16 16" fill="none" xmlns="http://www.w3.org/2000/svg">
<path fill-rule="evenodd" clip-rule="evenodd" d="M11.6417 5.39132C12.3561 5.39103 13.0633 5.53348 13.7221 5.81035L16 3.52519L13.3322 0.850006L6.01284 8.18952L2.59303 4.76028L0 7.36046L6.08365 13.4609L6.65013 12.8928C6.3079 12.0697 6.17368 11.1745 6.25938 10.2868C6.34509 9.39905 6.64807 8.54631 7.14142 7.80424C7.63478 7.06217 8.30323 6.45374 9.08744 6.03298C9.87164 5.61223 10.7473 5.39216 11.6367 5.39232L11.6417 5.39132Z" fill="black"/>
<path fill-rule="evenodd" clip-rule="evenodd" d="M11.6417 6.4734C10.786 6.4732 9.94936 6.7275 9.23773 7.20412C8.52611 7.68074 7.97144 8.35828 7.64386 9.15104C7.31628 9.9438 7.23052 10.8162 7.39742 11.6578C7.56433 12.4995 7.97639 13.2726 8.58151 13.8793C9.18662 14.4861 9.9576 14.8993 10.7969 15.0667C11.6363 15.2341 12.5062 15.1481 13.2968 14.8196C14.0874 14.4911 14.7631 13.9349 15.2384 13.2213C15.7137 12.5077 15.9673 11.6688 15.9671 10.8107C15.9668 9.66046 15.511 8.5574 14.6999 7.74406C13.8888 6.93071 12.7888 6.47366 11.6417 6.4734ZM13.0499 13.1739C12.9941 13.2281 12.9281 13.2707 12.8559 13.2994C12.7836 13.328 12.7064 13.3421 12.6287 13.3408C12.5509 13.3395 12.4743 13.3228 12.403 13.2918C12.3317 13.2607 12.2672 13.2159 12.2132 13.1599L10.803 11.6978V8.87057C10.7997 8.79071 10.8126 8.711 10.8408 8.63625C10.869 8.5615 10.912 8.49324 10.9672 8.43557C11.0224 8.37791 11.0886 8.33202 11.162 8.30068C11.2353 8.26933 11.3142 8.25318 11.3939 8.25318C11.4736 8.25318 11.5525 8.26933 11.6258 8.30068C11.6991 8.33202 11.7654 8.37791 11.8206 8.43557C11.8758 8.49324 11.9188 8.5615 11.947 8.63625C11.9752 8.711 11.9881 8.79071 11.9848 8.87057V11.2187L13.0639 12.3408C13.1179 12.3966 13.1604 12.4626 13.1889 12.5349C13.2175 12.6072 13.2315 12.6845 13.2302 12.7622C13.2289 12.84 13.2123 12.9167 13.1814 12.9881C13.1504 13.0594 13.1058 13.1239 13.0499 13.1779V13.1739Z" fill="black"/>
</svg>
