<svg xmlns="http://www.w3.org/2000/svg" viewBox="0 0 16 16"><title>checkin</title><g id="Layer_1" data-name="Layer 1"><path d="M7.22,14.42h5.17a.21.21,0,0,0,.21-.21V1.79a.21.21,0,0,0-.21-.21H7.31L6.31,0H13a1.18,1.18,0,0,1,1.17,1.17V14.83A1.18,1.18,0,0,1,13,16H6.31Z" fill-rule="evenodd"/><path d="M10,5.93a.68.68,0,0,0-1,1l.42.43H7.08a.68.68,0,0,0,0,1.36H9.44L9,9.11a.68.68,0,0,0,.48,1.16.69.69,0,0,0,.48-.2l1.54-1.54a.75.75,0,0,0,0-1.06Z"/><path d="M4.75,7.54h0a2.58,2.58,0,1,0-4.2-2,2.59,2.59,0,0,0,.93,2A3.1,3.1,0,0,0,0,10.18v1.63A1.23,1.23,0,0,0,1.28,13H4.94a1.23,1.23,0,0,0,1.28-1.23V10.18A3.1,3.1,0,0,0,4.75,7.54ZM3.12,4.1A1.44,1.44,0,1,1,1.68,5.54,1.44,1.44,0,0,1,3.12,4.1Zm0,7.85H1.28a.14.14,0,0,1-.14-.14V10.18a2,2,0,1,1,3.94,0v1.63a.14.14,0,0,1-.14.14H3.11Z"/></g></svg>