<svg xmlns="http://www.w3.org/2000/svg" viewBox="0 0 16 16"><title>checkout</title><g id="Layer_1" data-name="Layer 1"><path d="M12.9,7.09a2,2,0,1,0-2-2A2,2,0,0,0,12.9,7.09Z"/><path d="M12.88,8.07a2.59,2.59,0,0,0-2.59,2.59v1.67A.68.68,0,0,0,11,13h3.74a.68.68,0,0,0,.72-.67V10.66A2.59,2.59,0,0,0,12.88,8.07Z"/><path d="M8.77,14.42H3.6a.21.21,0,0,1-.21-.21V1.79a.21.21,0,0,1,.21-.21H8.68L9.68,0H3A1.18,1.18,0,0,0,1.81,1.17V14.83A1.18,1.18,0,0,0,3,16h6.7Z" fill-rule="evenodd"/><path d="M7.83,5.93a.68.68,0,0,0-1,1l.42.43H4.93a.68.68,0,0,0,0,1.36H7.29l-.42.43a.68.68,0,0,0,.48,1.16.69.69,0,0,0,.48-.2L9.37,8.53a.75.75,0,0,0,0-1.06Z"/></g></svg>