<svg xmlns="http://www.w3.org/2000/svg" viewBox="0 0 16 16"><title>email</title><g id="7dd4650e-eccf-4cca-9ab3-aaf0449cfd5e" data-name="Layer 1"><g id="4007f988-2dd0-4179-a90b-3d1ee35439b4" data-name="Your Icon"><path d="M7.979,8.17l7.645-5.615a.966.966,0,0,0-.639-.245H.973a.971.971,0,0,0-.64.245Z"/><polygon points="4.717 7.477 0 4.013 0 10.941 4.717 7.477"/><polygon points="11.24 7.477 15.958 10.941 15.958 4.013 11.24 7.477"/><path d="M10.081,8.328l-2.1,1.545-2.1-1.545L0,12.644v.413a.973.973,0,0,0,.973.973H14.985a.973.973,0,0,0,.973-.973v-.413Z"/></g></g></svg>