<svg xmlns="http://www.w3.org/2000/svg" viewBox="0 0 16 16"><title>eyeball-hide</title><g id="Layer_1" data-name="Layer 1"><path d="M7,5.34l3.59,3.58a2.6,2.6,0,0,0,.2-1A2.76,2.76,0,0,0,8,5.15,2.89,2.89,0,0,0,7,5.34Zm8.93,2.23c-.13-.2-3.11-4.9-7.91-4.9a7.56,7.56,0,0,0-3,.66l1,1A6.09,6.09,0,0,1,8,3.91c3.42,0,5.89,3,6.62,4a12.22,12.22,0,0,1-2.53,2.53l.89.89a13.08,13.08,0,0,0,2.93-3.1A.63.63,0,0,0,15.91,7.57ZM4.7,4.85h0L3.8,3.93h0L3,3.11a.63.63,0,0,0-.88,0,.63.63,0,0,0,0,.88l.68.67A12.79,12.79,0,0,0,.09,7.57a.63.63,0,0,0,0,.65c.13.2,3.11,4.9,7.91,4.9a7.48,7.48,0,0,0,2.72-.52l.55.55a.63.63,0,0,0,.88,0,.61.61,0,0,0,0-.88L11.92,12h0L11,11.11h0Zm.63,2.38a2.48,2.48,0,0,0-.1.68A2.77,2.77,0,0,0,8,10.67a2.61,2.61,0,0,0,.69-.1l1.05,1A6.2,6.2,0,0,1,8,11.88c-3.42,0-5.89-3-6.62-4A11.94,11.94,0,0,1,3.65,5.55Z"/></g></svg>