<svg xmlns="http://www.w3.org/2000/svg" viewBox="0 0 16 16"><title>headcounts</title><g id="Layer_1" data-name="Layer 1"><polygon points="13.28 10.84 13.28 8.12 11.39 8.12 11.39 10.84 8.67 10.84 8.67 12.73 11.39 12.73 11.39 15.45 13.28 15.45 13.28 12.73 16 12.73 16 10.84 13.28 10.84"/><path d="M9.38,2.61a1.61,1.61,0,0,1,.44-.06,1.83,1.83,0,1,1,0,3.65,2.12,2.12,0,0,1-.44-.06,3.67,3.67,0,0,1-.36.6L8.84,7l.29.08a3,3,0,0,0,.69.1,2.78,2.78,0,0,0,0-5.55,3,3,0,0,0-.69.09l-.29.08L9,2A3.29,3.29,0,0,1,9.38,2.61Z"/><path d="M12.34,2.61a1.61,1.61,0,0,1,.44-.06,1.83,1.83,0,1,1,0,3.65,2.12,2.12,0,0,1-.44-.06,3.67,3.67,0,0,1-.36.6L11.8,7l.29.08a3,3,0,0,0,.69.1,2.78,2.78,0,0,0,0-5.55,3,3,0,0,0-.69.09l-.29.08L12,2A3.29,3.29,0,0,1,12.34,2.61Z"/><path d="M2.77,13.45a.7.7,0,0,1-.7-.7V10.16a.68.68,0,0,1,.44-.65L6,8.06,8.67,9.15l1.7-1c-.07,0-2.31-1-2.31-1A3.44,3.44,0,1,0,4,7.14L1.89,8A2.32,2.32,0,0,0,.45,10.16v2.59a2.32,2.32,0,0,0,2.32,2.33H8V13.45H2.77ZM6,2.55A1.83,1.83,0,1,1,4.2,4.37,1.83,1.83,0,0,1,6,2.55Z"/></g></svg>