<svg xmlns="http://www.w3.org/2000/svg" viewBox="0 0 16 16"><title>household-add-person</title><g id="Layer_1" data-name="Layer 1"><path d="M3.91,13.54V8.83H2.07a0,0,0,0,1,0,0L7.55,2.55h0l4,4.56h1.78L8.59,1.66a1.36,1.36,0,0,0-2.06,0L1,7.9a1.34,1.34,0,0,0,1,2.23h.5v3.41A1.38,1.38,0,0,0,3.9,15H8.2V13.6H3.9S3.91,13.55,3.91,13.54Z"/><path d="M14.58,12.19l-1.48-.61a1.83,1.83,0,1,0-1.68,0l-1.48.61a1.18,1.18,0,0,0-.73,1.1v1.49A1.19,1.19,0,0,0,10.39,16h3.74a1.19,1.19,0,0,0,1.18-1.19V13.29A1.18,1.18,0,0,0,14.58,12.19Z"/><polygon points="7.54 11.17 7.54 11.17 7.53 11.17 7.54 11.17"/><path d="M9.78,9a.68.68,0,0,0-.68-.66H8.2V7.41a.67.67,0,0,0-.66-.68h0a.69.69,0,0,0-.68.68v.92H6A.65.65,0,0,0,5.34,9V9A.69.69,0,0,0,6,9.69h.84v.81a.69.69,0,0,0,.69.67.66.66,0,0,0,.66-.67V9.69h.9A.71.71,0,0,0,9.78,9Z"/><polygon points="9.78 8.98 9.78 8.99 9.78 9 9.78 8.98"/></g></svg>