<svg width="16" height="16" viewBox="0 0 16 16" fill="none" xmlns="http://www.w3.org/2000/svg">
<path fill-rule="evenodd" clip-rule="evenodd" d="M1.998 10.0371H0.00601504L2.75388 12.78V10.7904C2.75335 10.5906 2.67351 10.3992 2.53184 10.258C2.39017 10.1168 2.19821 10.0374 1.998 10.0371Z" fill="black"/>
<path fill-rule="evenodd" clip-rule="evenodd" d="M13.7945 3.22C13.3583 3.22 12.9319 3.34907 12.5692 3.59088C12.2065 3.8327 11.9238 4.1764 11.7569 4.57852C11.5899 4.98065 11.5463 5.42313 11.6314 5.85003C11.7165 6.27692 11.9265 6.66904 12.235 6.97681C12.5434 7.28459 12.9364 7.49418 13.3642 7.5791C13.792 7.66401 14.2355 7.62043 14.6385 7.45387C15.0415 7.2873 15.386 7.00523 15.6283 6.64333C15.8706 6.28143 16 5.85595 16 5.42069C16 4.83703 15.7676 4.27728 15.354 3.86457C14.9404 3.45186 14.3794 3.22 13.7945 3.22ZM15.1218 5.74779H14.1253V6.74211H13.4637V5.74779H12.4662V5.08759H13.4637V4.09328H14.1253V5.08759H15.1218V5.74779Z" fill="black"/>
<path fill-rule="evenodd" clip-rule="evenodd" d="M11.1198 5.41769C11.1225 4.95205 11.2488 4.49544 11.4857 4.09428H1.37444C1.00991 4.09428 0.66032 4.23876 0.402563 4.49596C0.144806 4.75315 0 5.10198 0 5.46571V9.579H1.998C2.31928 9.58006 2.62705 9.70815 2.85386 9.93521C3.08067 10.1623 3.20802 10.4698 3.20802 10.7904V12.779H13.7474C14.1119 12.779 14.4615 12.6345 14.7192 12.3773C14.977 12.1201 15.1218 11.7713 15.1218 11.4076V7.72041C14.7197 7.95762 14.2616 8.08397 13.7945 8.08653C13.0854 8.08573 12.4055 7.8043 11.9041 7.30397C11.4026 6.80363 11.1206 6.12527 11.1198 5.41769Z" fill="black"/>
<path d="M2.22256 3.22C2.03238 3.22072 1.84445 3.26103 1.67079 3.33837C1.49713 3.41571 1.34156 3.52837 1.21404 3.66914H11.8486C12.0107 3.49628 12.1947 3.34529 12.396 3.22H2.22256Z" fill="black"/>
<path d="M15.5479 7.3573V11.5586C15.6886 11.4314 15.8013 11.2763 15.8786 11.1032C15.9559 10.9301 15.9963 10.7428 15.997 10.5533V6.81413C15.8715 7.01382 15.7205 7.1964 15.5479 7.3573Z" fill="black"/>
</svg>
