<svg width="16" height="16" viewBox="0 0 16 16" fill="none" xmlns="http://www.w3.org/2000/svg">
<path fill-rule="evenodd" clip-rule="evenodd" d="M1.998 10.0371H0.00601504L2.75388 12.78V10.7903C2.75335 10.5906 2.67351 10.3991 2.53184 10.258C2.39017 10.1168 2.19821 10.0374 1.998 10.0371Z" fill="black"/>
<path fill-rule="evenodd" clip-rule="evenodd" d="M13.7945 3.21997C13.3583 3.21997 12.9319 3.34904 12.5692 3.59085C12.2065 3.83267 11.9238 4.17637 11.7569 4.57849C11.5899 4.98062 11.5463 5.4231 11.6314 5.84999C11.7165 6.27689 11.9265 6.66901 12.235 6.97678C12.5434 7.28456 12.9364 7.49415 13.3642 7.57907C13.792 7.66398 14.2355 7.6204 14.6385 7.45383C15.0415 7.28727 15.386 7.0052 15.6283 6.6433C15.8706 6.2814 16 5.85592 16 5.42066C16 4.837 15.7676 4.27725 15.354 3.86454C14.9404 3.45183 14.3794 3.21997 13.7945 3.21997Z" fill="black"/>
<path fill-rule="evenodd" clip-rule="evenodd" d="M11.1198 5.41766C11.1225 4.95202 11.2488 4.49541 11.4857 4.09424H1.37444C1.00991 4.09424 0.66032 4.23873 0.402563 4.49593C0.144806 4.75312 0 5.10195 0 5.46568V9.57897H1.998C2.31928 9.58003 2.62705 9.70812 2.85386 9.93518C3.08067 10.1622 3.20802 10.4698 3.20802 10.7903V12.779H13.7474C14.1119 12.779 14.4615 12.6345 14.7192 12.3773C14.977 12.1201 15.1218 11.7713 15.1218 11.4075V7.72038C14.7197 7.95759 14.2616 8.08394 13.7945 8.0865C13.0854 8.0857 12.4055 7.80427 11.9041 7.30394C11.4026 6.8036 11.1206 6.12524 11.1198 5.41766Z" fill="black"/>
</svg>
