<svg width="16" height="16" viewBox="0 0 16 16" fill="none" xmlns="http://www.w3.org/2000/svg">
<path d="M5.0238 9.14784H4.56592V11.4365H5.0238V9.14784Z" fill="black"/>
<path d="M6.16849 9.14784H5.71061V11.4365H6.16849V9.14784Z" fill="black"/>
<path d="M8.22895 9.14784H7.77107V11.4365H8.22895V9.14784Z" fill="black"/>
<path d="M5.48167 9.14784H5.25273V11.4365H5.48167V9.14784Z" fill="black"/>
<path d="M6.62637 9.14784H6.39743V11.4365H6.62637V9.14784Z" fill="black"/>
<path d="M7.08425 9.14784H6.85531V11.4365H7.08425V9.14784Z" fill="black"/>
<path d="M7.54213 9.14784H7.31319V11.4365H7.54213V9.14784Z" fill="black"/>
<path d="M8.68683 9.14784H8.45789V11.4365H8.68683V9.14784Z" fill="black"/>
<path d="M9.1447 9.14784H8.91576V11.4365H9.1447V9.14784Z" fill="black"/>
<path d="M9.83152 9.14784H9.37364V11.4365H9.83152V9.14784Z" fill="black"/>
<path d="M11.892 9.14784H11.4341V11.4365H11.892V9.14784Z" fill="black"/>
<path d="M13.4946 9.14784H13.0367V11.4365H13.4946V9.14784Z" fill="black"/>
<path d="M14.1814 9.14784H13.7235V11.4365H14.1814V9.14784Z" fill="black"/>
<path d="M10.2894 9.14784H10.0605V11.4365H10.2894V9.14784Z" fill="black"/>
<path d="M10.7473 9.14784H10.5183V11.4365H10.7473V9.14784Z" fill="black"/>
<path d="M11.2052 9.14784H10.9762V11.4365H11.2052V9.14784Z" fill="black"/>
<path d="M12.3499 9.14784H12.1209V11.4365H12.3499V9.14784Z" fill="black"/>
<path d="M12.8077 9.14784H12.5788V11.4365H12.8077V9.14784Z" fill="black"/>
<path d="M13.7595 6.12358L13.1996 6.68326L13.1876 6.69725L13.1766 6.68426C13.1037 6.6113 13.0317 6.53734 12.9577 6.46538C12.9424 6.45075 12.9244 6.43927 12.9046 6.4316C12.8849 6.42393 12.8639 6.42022 12.8427 6.42069C12.8215 6.42115 12.8007 6.42578 12.7813 6.4343C12.7619 6.44283 12.7444 6.45509 12.7298 6.47038C12.7151 6.48567 12.7036 6.50369 12.696 6.52342C12.6883 6.54315 12.6846 6.56419 12.685 6.58535C12.6855 6.60651 12.6901 6.62737 12.6987 6.64674C12.7072 6.66611 12.7195 6.68361 12.7348 6.69825L13.0727 7.03505C13.0877 7.05035 13.1055 7.06249 13.1253 7.07079C13.145 7.07908 13.1662 7.08335 13.1876 7.08335C13.209 7.08335 13.2302 7.07908 13.25 7.07079C13.2697 7.06249 13.2876 7.05035 13.3026 7.03505C13.3586 6.97809 13.4156 6.92212 13.4726 6.86515C13.6445 6.69392 13.8161 6.52235 13.9874 6.35045C14.0099 6.32951 14.0255 6.30229 14.0323 6.27235C14.0391 6.2424 14.0367 6.21111 14.0254 6.18254C14.0165 6.15675 14.0011 6.13368 13.9807 6.11552C13.9603 6.09737 13.9356 6.08473 13.9089 6.07882C13.8823 6.07291 13.8545 6.07392 13.8284 6.08175C13.8022 6.08959 13.7785 6.10399 13.7595 6.12358Z" fill="black"/>
<path d="M14.1814 3.655H1.81864C1.45433 3.655 1.10494 3.79968 0.847336 4.0572C0.589729 4.31473 0.445007 4.66401 0.445007 5.02821V9.60258C0.445283 9.72169 0.491891 9.83602 0.574973 9.92139L2.86437 12.2111C2.95048 12.2966 3.06688 12.3447 3.18828 12.345H14.1814C14.3618 12.345 14.5404 12.3095 14.707 12.2405C14.8737 12.1715 15.0251 12.0703 15.1527 11.9428C15.2802 11.8153 15.3814 11.6639 15.4504 11.4973C15.5195 11.3307 15.555 11.1521 15.555 10.9718V5.02821C15.555 4.66401 15.4103 4.31473 15.1527 4.0572C14.8951 3.79968 14.5457 3.655 14.1814 3.655ZM1.81864 4.11274H14.1814C14.3413 4.11346 14.4982 4.15611 14.6364 4.23643C14.7747 4.31676 14.8894 4.43194 14.9692 4.57047H1.02985C1.10971 4.43179 1.2246 4.31652 1.36304 4.23619C1.50147 4.15585 1.65858 4.11328 1.81864 4.11274ZM14.6412 5.9207C14.6412 6.30111 14.5561 6.6767 14.3923 7.02006C14.1588 7.51067 13.7774 7.91577 13.3016 8.1784C13.291 8.18504 13.2787 8.18857 13.2661 8.18857C13.2536 8.18857 13.2413 8.18504 13.2306 8.1784C13.0355 8.06701 12.8542 7.93281 12.6908 7.77863C12.3948 7.49899 12.172 7.151 12.0419 6.76521C11.9894 6.6171 11.9503 6.46457 11.925 6.30947C11.9028 6.16633 11.8931 6.02154 11.896 5.87672C11.8981 5.77068 11.9068 5.66487 11.922 5.5599C11.922 5.53192 11.935 5.52192 11.963 5.51693C12.0929 5.49294 12.2219 5.47295 12.3509 5.44497C12.56 5.40241 12.7633 5.33531 12.9567 5.24508C13.0406 5.20217 13.1217 5.15411 13.1996 5.10117C13.2205 5.08395 13.2465 5.07411 13.2736 5.07318C13.2924 5.07342 13.3108 5.07896 13.3266 5.08917C13.5162 5.21831 13.726 5.31491 13.9474 5.37501C14.1271 5.42845 14.3097 5.4715 14.4943 5.50394C14.5233 5.50993 14.5533 5.51293 14.5823 5.51793C14.587 5.51806 14.5916 5.51912 14.596 5.52104C14.6003 5.52297 14.6042 5.52573 14.6074 5.52917C14.6107 5.5326 14.6132 5.53664 14.6149 5.54106C14.6166 5.54548 14.6174 5.55018 14.6173 5.55491C14.6329 5.6625 14.6416 5.771 14.6432 5.87972L14.6412 5.9207ZM3.19228 11.8943L0.902886 9.60258H2.42948C2.63179 9.60258 2.82581 9.68292 2.96886 9.82593C3.11191 9.96893 3.19228 10.1629 3.19228 10.3651V11.8943ZM15.0971 10.9788C15.0969 11.2215 15.0003 11.4542 14.8286 11.6258C14.6569 11.7975 14.4242 11.894 14.1814 11.8943H3.65016V10.3681C3.64989 10.0446 3.5212 9.73434 3.29234 9.50555C3.06347 9.27675 2.75314 9.1481 2.42948 9.14784H0.902886V8.6901H15.0991L15.0971 10.9788Z" fill="black"/>
</svg>
