<svg xmlns="http://www.w3.org/2000/svg" viewBox="0 0 16 16"><title>label-security-add</title><g id="Layer_1" data-name="Layer 1"><rect x="4.11" y="9.14" width="0.46" height="2.29"/><rect x="5.26" y="9.14" width="0.46" height="2.29"/><rect x="7.31" y="9.14" width="0.46" height="2.29"/><rect x="4.8" y="9.14" width="0.23" height="2.29"/><rect x="5.94" y="9.14" width="0.23" height="2.29"/><rect x="6.4" y="9.14" width="0.23" height="2.29"/><rect x="6.86" y="9.14" width="0.23" height="2.29"/><rect x="8" y="9.14" width="0.23" height="2.29"/><rect x="8.46" y="9.14" width="0.23" height="2.29"/><rect x="8.91" y="9.14" width="0.46" height="2.29"/><rect x="10.97" y="9.14" width="0.46" height="2.29"/><rect x="12.57" y="9.14" width="0.46" height="2.29"/><rect x="13.26" y="9.14" width="0.46" height="2.29"/><rect x="9.6" y="9.14" width="0.23" height="2.29"/><rect x="10.06" y="9.14" width="0.23" height="2.29"/><rect x="10.51" y="9.14" width="0.23" height="2.29"/><rect x="11.66" y="9.14" width="0.23" height="2.29"/><rect x="12.11" y="9.14" width="0.23" height="2.29"/><path d="M13.76,2.78A2.2,2.2,0,1,0,16,5,2.21,2.21,0,0,0,13.76,2.78Zm1.32,2.53h-1v1h-.66v-1h-1V4.65h1v-1h.66v1h1Z"/><path d="M11.09,5a2.85,2.85,0,0,1,0-.41H.58a.92.92,0,0,1,.79-.46h9.88a1.85,1.85,0,0,1,.21-.45H1.37A1.37,1.37,0,0,0,0,5V9.6H0a.51.51,0,0,0,.13.32l2.29,2.29a.44.44,0,0,0,.32.13h11A1.37,1.37,0,0,0,15.08,11V7.28a2.59,2.59,0,0,1-1.32.37A2.68,2.68,0,0,1,11.09,5Zm-8.35,6.9L.46,9.6H2a.76.76,0,0,1,.76.76ZM14.63,11a.92.92,0,0,1-.92.91H3.2V10.36A1.22,1.22,0,0,0,2,9.14H.46V8.68H14.63Z"/></g></svg>