<svg width="16" height="16" viewBox="0 0 16 16" fill="none" xmlns="http://www.w3.org/2000/svg">
<path d="M5.0238 9.14787H4.56592V11.4366H5.0238V9.14787Z" fill="black"/>
<path d="M6.16849 9.14787H5.71061V11.4366H6.16849V9.14787Z" fill="black"/>
<path d="M8.22895 9.14787H7.77107V11.4366H8.22895V9.14787Z" fill="black"/>
<path d="M5.48167 9.14787H5.25273V11.4366H5.48167V9.14787Z" fill="black"/>
<path d="M6.62637 9.14787H6.39743V11.4366H6.62637V9.14787Z" fill="black"/>
<path d="M7.08425 9.14787H6.85531V11.4366H7.08425V9.14787Z" fill="black"/>
<path d="M7.54213 9.14787H7.31319V11.4366H7.54213V9.14787Z" fill="black"/>
<path d="M8.68683 9.14787H8.45789V11.4366H8.68683V9.14787Z" fill="black"/>
<path d="M9.1447 9.14787H8.91576V11.4366H9.1447V9.14787Z" fill="black"/>
<path d="M9.83152 9.14787H9.37364V11.4366H9.83152V9.14787Z" fill="black"/>
<path d="M11.892 9.14787H11.4341V11.4366H11.892V9.14787Z" fill="black"/>
<path d="M13.4946 9.14787H13.0367V11.4366H13.4946V9.14787Z" fill="black"/>
<path d="M14.1814 9.14787H13.7235V11.4366H14.1814V9.14787Z" fill="black"/>
<path d="M10.2894 9.14787H10.0605V11.4366H10.2894V9.14787Z" fill="black"/>
<path d="M10.7473 9.14787H10.5183V11.4366H10.7473V9.14787Z" fill="black"/>
<path d="M11.2052 9.14787H10.9762V11.4366H11.2052V9.14787Z" fill="black"/>
<path d="M12.3499 9.14787H12.1209V11.4366H12.3499V9.14787Z" fill="black"/>
<path d="M12.8077 9.14787H12.5788V11.4366H12.8077V9.14787Z" fill="black"/>
<path d="M13.7595 6.12361L13.1996 6.68329L13.1876 6.69728L13.1766 6.68429C13.1037 6.61133 13.0317 6.53737 12.9577 6.46541C12.9424 6.45078 12.9244 6.4393 12.9046 6.43163C12.8849 6.42396 12.8639 6.42025 12.8427 6.42072C12.8215 6.42118 12.8007 6.42581 12.7813 6.43434C12.7619 6.44286 12.7444 6.45512 12.7298 6.47041C12.7151 6.4857 12.7036 6.50372 12.696 6.52345C12.6883 6.54318 12.6846 6.56422 12.685 6.58538C12.6855 6.60654 12.6901 6.6274 12.6987 6.64677C12.7072 6.66614 12.7195 6.68364 12.7348 6.69828L13.0727 7.03508C13.0877 7.05038 13.1055 7.06252 13.1253 7.07082C13.145 7.07911 13.1662 7.08338 13.1876 7.08338C13.209 7.08338 13.2302 7.07911 13.25 7.07082C13.2697 7.06252 13.2876 7.05038 13.3026 7.03508C13.3586 6.97812 13.4156 6.92215 13.4726 6.86518C13.6445 6.69395 13.8161 6.52238 13.9874 6.35048C14.0099 6.32954 14.0255 6.30233 14.0323 6.27238C14.0391 6.24243 14.0367 6.21114 14.0254 6.18258C14.0165 6.15678 14.0011 6.13371 13.9807 6.11555C13.9603 6.0974 13.9356 6.08476 13.9089 6.07885C13.8823 6.07294 13.8545 6.07395 13.8284 6.08178C13.8022 6.08962 13.7785 6.10402 13.7595 6.12361Z" fill="black"/>
<path d="M14.1814 3.65503H1.81864C1.45433 3.65503 1.10494 3.79971 0.847336 4.05723C0.589729 4.31476 0.445007 4.66404 0.445007 5.02824V9.60261C0.445283 9.72172 0.491891 9.83605 0.574973 9.92142L2.86437 12.2111C2.95048 12.2967 3.06688 12.3448 3.18828 12.345H14.1814C14.3618 12.345 14.5404 12.3095 14.707 12.2405C14.8737 12.1715 15.0251 12.0703 15.1527 11.9428C15.2802 11.8153 15.3814 11.6639 15.4504 11.4973C15.5195 11.3307 15.555 11.1522 15.555 10.9718V5.02824C15.555 4.66404 15.4103 4.31476 15.1527 4.05723C14.8951 3.79971 14.5457 3.65503 14.1814 3.65503ZM1.81864 4.11277H14.1814C14.3413 4.11349 14.4982 4.15614 14.6364 4.23646C14.7747 4.31679 14.8894 4.43197 14.9692 4.5705H1.02985C1.10971 4.43182 1.2246 4.31655 1.36304 4.23622C1.50147 4.15588 1.65858 4.11331 1.81864 4.11277ZM14.6412 5.92073C14.6412 6.30114 14.5561 6.67673 14.3923 7.02009C14.1588 7.5107 13.7774 7.9158 13.3016 8.17843C13.291 8.18507 13.2787 8.1886 13.2661 8.1886C13.2536 8.1886 13.2413 8.18507 13.2306 8.17843C13.0355 8.06704 12.8542 7.93284 12.6908 7.77866C12.3948 7.49902 12.172 7.15103 12.0419 6.76524C11.9894 6.61713 11.9503 6.4646 11.925 6.3095C11.9028 6.16636 11.8931 6.02157 11.896 5.87675C11.8981 5.77071 11.9068 5.6649 11.922 5.55993C11.922 5.53195 11.935 5.52196 11.963 5.51696C12.0929 5.49297 12.2219 5.47298 12.3509 5.445C12.56 5.40244 12.7633 5.33535 12.9567 5.24511C13.0406 5.2022 13.1217 5.15414 13.1996 5.1012C13.2205 5.08398 13.2465 5.07414 13.2736 5.07321C13.2924 5.07345 13.3108 5.079 13.3266 5.0892C13.5162 5.21834 13.726 5.31494 13.9474 5.37504C14.1271 5.42848 14.3097 5.47153 14.4943 5.50397C14.5233 5.50996 14.5533 5.51296 14.5823 5.51796C14.587 5.51809 14.5916 5.51915 14.596 5.52108C14.6003 5.523 14.6042 5.52576 14.6074 5.5292C14.6107 5.53263 14.6132 5.53667 14.6149 5.54109C14.6166 5.54551 14.6174 5.55021 14.6173 5.55494C14.6329 5.66254 14.6416 5.77103 14.6432 5.87975L14.6412 5.92073ZM3.19228 11.8943L0.902886 9.60261H2.42948C2.63179 9.60261 2.82581 9.68295 2.96886 9.82596C3.11191 9.96896 3.19228 10.1629 3.19228 10.3652V11.8943ZM15.0971 10.9788C15.0969 11.2215 15.0003 11.4542 14.8286 11.6259C14.6569 11.7975 14.4242 11.894 14.1814 11.8943H3.65016V10.3682C3.64989 10.0446 3.5212 9.73437 3.29234 9.50558C3.06347 9.27678 2.75314 9.14813 2.42948 9.14787H0.902886V8.69013H15.0991L15.0971 10.9788Z" fill="black"/>
</svg>
