<svg xmlns="http://www.w3.org/2000/svg" viewBox="0 0 16 16">
  <g id="Layer_1" data-name="Layer 1">
    <g>
      <path d="M2,9.6H.006l2.746,2.747V10.358A.756.756,0,0,0,2,9.6Z" fill-rule="evenodd"/>
      <path d="M13.74,3.651H1.374A1.373,1.373,0,0,0,0,5.024V9.145H2A1.213,1.213,0,0,1,3.21,10.358v1.991H13.74a1.373,1.373,0,0,0,1.374-1.373V5.024A1.373,1.373,0,0,0,13.74,3.651ZM12.189,9.145a.558.558,0,1,1-.559.558A.557.557,0,0,1,12.189,9.145Zm.9,2.2a.087.087,0,0,1-.087.088H11.379a.087.087,0,0,1-.088-.088v-.283a.575.575,0,0,1,.576-.575h.643a.574.574,0,0,1,.575.575Zm.44-1.858a.419.419,0,1,1-.418.418A.418.418,0,0,1,13.525,9.488Zm.673,1.651a.065.065,0,0,1-.065.065h-.764a.087.087,0,0,1-.087-.087v-.079a.658.658,0,0,0-.154-.424.061.061,0,0,1,.027-.1.425.425,0,0,1,.129-.02h.482a.431.431,0,0,1,.432.431Z" fill-rule="evenodd"/>
    </g>
  </g>
</svg>
