<svg width="16" height="16" viewBox="0 0 16 16" fill="none" xmlns="http://www.w3.org/2000/svg">
<path d="M4.58246 9.57968H4.12431V11.8635H4.58246V9.57968Z" fill="black"/>
<path d="M5.72832 9.57968H5.27018V11.8635H5.72832V9.57968Z" fill="black"/>
<path d="M7.79048 9.57968H7.33233V11.8635H7.79048V9.57968Z" fill="black"/>
<path d="M5.0416 9.57968H4.81203V11.8635H5.0416V9.57968Z" fill="black"/>
<path d="M6.18647 9.57968H5.95689V11.8635H6.18647V9.57968Z" fill="black"/>
<path d="M6.64461 9.57968H6.41504V11.8635H6.64461V9.57968Z" fill="black"/>
<path d="M7.10376 9.57968H6.87419V11.8635H7.10376V9.57968Z" fill="black"/>
<path d="M8.24862 9.57968H8.01905V11.8635H8.24862V9.57968Z" fill="black"/>
<path d="M8.70677 9.57968H8.47719V11.8635H8.70677V9.57968Z" fill="black"/>
<path d="M9.39348 9.57968H8.93534V11.8635H9.39348V9.57968Z" fill="black"/>
<path d="M11.4556 9.57968H10.9975V11.8635H11.4556V9.57968Z" fill="black"/>
<path d="M13.0596 9.57968H12.6015V11.8635H13.0596V9.57968Z" fill="black"/>
<path d="M13.7474 9.57968H13.2892V11.8635H13.7474V9.57968Z" fill="black"/>
<path d="M9.85263 9.57968H9.62306V11.8635H9.85263V9.57968Z" fill="black"/>
<path d="M10.3108 9.57968H10.0812V11.8635H10.3108V9.57968Z" fill="black"/>
<path d="M10.7689 9.57968H10.5393V11.8635H10.7689V9.57968Z" fill="black"/>
<path d="M11.9148 9.57968H11.6852V11.8635H11.9148V9.57968Z" fill="black"/>
<path d="M12.3729 9.57968H12.1434V11.8635H12.3729V9.57968Z" fill="black"/>
<path d="M13.7945 3.22501C13.3583 3.22501 12.9319 3.35397 12.5692 3.59558C12.2065 3.83719 11.9238 4.1806 11.7569 4.58239C11.5899 4.98418 11.5463 5.42629 11.6314 5.85283C11.7165 6.27936 11.9265 6.67116 12.235 6.97868C12.5434 7.28619 12.9364 7.49561 13.3642 7.58045C13.792 7.6653 14.2355 7.62175 14.6385 7.45533C15.0415 7.2889 15.386 7.00707 15.6283 6.64547C15.8706 6.28387 16 5.85875 16 5.42386C16 4.84068 15.7676 4.2814 15.354 3.86903C14.9404 3.45667 14.3794 3.22501 13.7945 3.22501Z" fill="black"/>
<path d="M11.1198 5.42086C11.1228 5.2834 11.1366 5.1464 11.1609 5.01107H0.585464C0.665265 4.87266 0.780166 4.7576 0.918643 4.67743C1.05712 4.59726 1.21431 4.5548 1.37444 4.55431H11.2772C11.3321 4.39584 11.4019 4.2429 11.4857 4.09755H1.37444C1.00991 4.09755 0.66032 4.24192 0.402563 4.4989C0.144806 4.75587 0 5.10441 0 5.46783V10.0374H0.00501253C0.00438027 10.1565 0.0508438 10.2711 0.134336 10.3563L2.42506 12.6411C2.51141 12.7266 2.62814 12.7748 2.74987 12.775H13.7474C13.9279 12.775 14.1068 12.7395 14.2736 12.6706C14.4404 12.6017 14.592 12.5007 14.7196 12.3733C14.8472 12.246 14.9485 12.0948 15.0175 11.9284C15.0865 11.762 15.1219 11.5838 15.1218 11.4037V7.72165C14.7197 7.95866 14.2616 8.08491 13.7945 8.08746C13.0854 8.08667 12.4055 7.80547 11.9041 7.30555C11.4026 6.80564 11.1206 6.12784 11.1198 5.42086ZM2.74987 12.3172L0.458145 10.0374H1.98596C2.18857 10.0374 2.38287 10.1177 2.52613 10.2605C2.66939 10.4033 2.74987 10.5971 2.74987 10.799V12.3172ZM14.6637 11.4027C14.6634 11.645 14.5668 11.8773 14.3951 12.0487C14.2233 12.2202 13.9904 12.3167 13.7474 12.3172H3.20802V10.798C3.20775 10.475 3.07892 10.1653 2.8498 9.93682C2.62067 9.70839 2.30999 9.57994 1.98596 9.57968H0.458145V9.12292H14.6637V11.4027Z" fill="black"/>
</svg>
