<svg xmlns="http://www.w3.org/2000/svg" viewBox="0 0 16 16"><title>label-name</title><g id="Layer_1" data-name="Layer 1"><path d="M2,9.6H0l2.74,2.75v-2A.76.76,0,0,0,2,9.6Z" fill-rule="evenodd"/><path d="M13.74,3.65H1.37A1.37,1.37,0,0,0,0,5V9.14H2a1.22,1.22,0,0,1,1.21,1.22v2H13.74A1.37,1.37,0,0,0,15.11,11V5A1.37,1.37,0,0,0,13.74,3.65ZM12.19,9.14a.56.56,0,1,1-.56.56A.56.56,0,0,1,12.19,9.14Zm.9,2.21a.09.09,0,0,1-.09.08H11.38a.09.09,0,0,1-.09-.08v-.29a.58.58,0,0,1,.58-.57h.64a.58.58,0,0,1,.58.57Zm.44-1.86a.41.41,0,0,1,.41.42.42.42,0,0,1-.83,0A.42.42,0,0,1,13.53,9.49Zm.67,1.65a.07.07,0,0,1-.07.06h-.76a.09.09,0,0,1-.09-.08V11a.72.72,0,0,0-.15-.43.06.06,0,0,1,0-.1l.13,0h.49a.44.44,0,0,1,.43.44Z" fill-rule="evenodd"/></g></svg>