<svg width="16" height="16" viewBox="0 0 16 16" fill="none" xmlns="http://www.w3.org/2000/svg">
<path fill-rule="evenodd" clip-rule="evenodd" d="M1.998 10.0371H0.00601504L2.75388 12.78V10.7904C2.75335 10.5906 2.67351 10.3992 2.53184 10.258C2.39017 10.1168 2.19821 10.0374 1.998 10.0371Z" fill="black"/>
<path fill-rule="evenodd" clip-rule="evenodd" d="M13.7945 3.22C13.3583 3.22 12.9319 3.34907 12.5692 3.59088C12.2065 3.8327 11.9238 4.1764 11.7569 4.57852C11.5899 4.98065 11.5463 5.42313 11.6314 5.85003C11.7165 6.27692 11.9265 6.66904 12.235 6.97681C12.5434 7.28459 12.9364 7.49418 13.3642 7.5791C13.792 7.66401 14.2355 7.62043 14.6385 7.45387C15.0415 7.2873 15.386 7.00523 15.6283 6.64333C15.8706 6.28143 16 5.85595 16 5.42069C16 4.83703 15.7676 4.27728 15.354 3.86457C14.9404 3.45186 14.3794 3.22 13.7945 3.22ZM15.1218 5.74779H14.1253V6.74211H13.4637V5.74779H12.4662V5.08759H13.4637V4.09328H14.1253V5.08759H15.1218V5.74779Z" fill="black"/>
<path fill-rule="evenodd" clip-rule="evenodd" d="M13.7945 8.08653C14.2616 8.08397 14.7197 7.95762 15.1218 7.72041V11.4076C15.1218 11.7713 14.977 12.1201 14.7192 12.3773C14.4615 12.6345 14.1119 12.779 13.7474 12.779H3.20802V10.7904C3.20802 10.4698 3.08067 10.1623 2.85386 9.93521C2.62705 9.70815 2.31928 9.58006 1.998 9.579H0V5.46571C0 5.10198 0.144806 4.75315 0.402563 4.49596C0.66032 4.23876 1.00991 4.09428 1.37444 4.09428H11.4857C11.2488 4.49544 11.1225 4.95205 11.1198 5.41769C11.1206 6.12527 11.4026 6.80363 11.9041 7.30397C12.4055 7.8043 13.0854 8.08573 13.7945 8.08653ZM13.6662 11.4526H13.6852C13.7093 11.4462 13.7302 11.4311 13.7437 11.4102C13.7572 11.3893 13.7625 11.3641 13.7584 11.3396L13.7373 11.2315C13.8732 11.1924 13.9979 11.1221 14.1014 11.0261C14.205 10.9301 14.2845 10.8112 14.3336 10.6789C14.3826 10.5466 14.3998 10.4047 14.3838 10.2646C14.3678 10.1245 14.3191 9.99005 14.2415 9.87217C14.1639 9.75429 14.0596 9.65626 13.9371 9.58597C13.8145 9.51568 13.6771 9.4751 13.536 9.4675C13.3949 9.4599 13.2539 9.48549 13.1245 9.54221C12.9951 9.59894 12.8808 9.68521 12.791 9.79406C13.0206 9.85714 13.2233 9.99344 13.3681 10.1822C13.5129 10.3709 13.5919 10.6017 13.593 10.8394C13.5932 11.0398 13.5373 11.2362 13.4316 11.4066C13.4397 11.4212 13.4516 11.4334 13.4661 11.4418C13.4805 11.4503 13.497 11.4547 13.5138 11.4546H13.5188C13.5429 11.5619 13.5938 11.6615 13.6667 11.744C13.7396 11.8265 13.8321 11.8894 13.9358 11.9267L13.9779 11.8367C13.8921 11.8062 13.8149 11.7556 13.7528 11.6891C13.6907 11.6226 13.6455 11.5422 13.6211 11.4546L13.6662 11.4526ZM12.6637 11.9527H12.6827C12.7068 11.9464 12.7277 11.9312 12.7412 11.9103C12.7547 11.8894 12.76 11.8643 12.7559 11.8397L12.7348 11.7317C12.9527 11.6712 13.1399 11.5313 13.2593 11.3396C13.3787 11.148 13.4216 10.9186 13.3795 10.6968C13.3375 10.4751 13.2135 10.2772 13.0321 10.1424C12.8507 10.0076 12.6253 9.94561 12.4003 9.96881C12.1753 9.992 11.9673 10.0987 11.8174 10.2676C11.6675 10.4366 11.5867 10.6556 11.5909 10.8812C11.5952 11.1069 11.6842 11.3227 11.8404 11.4859C11.9965 11.6492 12.2084 11.7479 12.4341 11.7627L12.418 11.8397V11.8587C12.418 11.8844 12.4279 11.9091 12.4456 11.9277C12.4633 11.9464 12.4876 11.9575 12.5133 11.9587H12.5484C12.5566 12.0341 12.5391 12.1101 12.4987 12.1744C12.4583 12.2386 12.3974 12.2874 12.3258 12.3129L12.3679 12.4039C12.4571 12.3705 12.5328 12.309 12.5835 12.2286C12.6342 12.1481 12.6571 12.0534 12.6486 11.9587L12.6637 11.9527Z" fill="black"/>
</svg>
