<svg width="16" height="16" viewBox="0 0 16 16" fill="none" xmlns="http://www.w3.org/2000/svg">
<path fill-rule="evenodd" clip-rule="evenodd" d="M2.44448 9.60036H0.451006L3.19628 12.348V10.3585C3.19681 10.1583 3.11797 9.96609 2.97703 9.82396C2.8361 9.68183 2.64458 9.60142 2.44448 9.60036Z" fill="black"/>
<path fill-rule="evenodd" clip-rule="evenodd" d="M14.1814 3.64999H1.81864C1.6383 3.64986 1.4597 3.68529 1.29305 3.75424C1.1264 3.8232 0.974964 3.92434 0.847397 4.05188C0.71983 4.17941 0.618633 4.33085 0.549589 4.49753C0.480545 4.66422 0.445007 4.84288 0.445007 5.02331V9.14526H2.44448C2.76558 9.14605 3.07326 9.27423 3.30003 9.50168C3.52681 9.72913 3.65416 10.0373 3.65416 10.3585V12.35H14.1814C14.3617 12.3501 14.5403 12.3147 14.707 12.2457C14.8736 12.1768 15.0251 12.0757 15.1526 11.9481C15.2802 11.8206 15.3814 11.6691 15.4504 11.5025C15.5195 11.3358 15.555 11.1571 15.555 10.9767V5.02331C15.555 4.84288 15.5195 4.66422 15.4504 4.49753C15.3814 4.33085 15.2802 4.17941 15.1526 4.05188C15.0251 3.92434 14.8736 3.8232 14.707 3.75424C14.5403 3.68529 14.3617 3.64986 14.1814 3.64999ZM14.0324 11.0157C14.0569 11.1031 14.1019 11.1834 14.1639 11.2497C14.2258 11.316 14.3028 11.3665 14.3883 11.3968L14.3463 11.4878C14.243 11.4503 14.1508 11.3874 14.0781 11.3049C14.0054 11.2224 13.9547 11.1229 13.9304 11.0157H13.9254C13.9087 11.0158 13.8923 11.0114 13.8779 11.0029C13.8634 10.9945 13.8515 10.9823 13.8435 10.9677C13.9489 10.7974 14.0047 10.6009 14.0044 10.4005C14.0033 10.1629 13.9246 9.93209 13.7802 9.74338C13.6358 9.55466 13.4337 9.41838 13.2046 9.35531C13.2942 9.24635 13.4082 9.15999 13.5373 9.1032C13.6664 9.04642 13.807 9.02079 13.9479 9.02839C14.0887 9.03599 14.2258 9.0766 14.348 9.14696C14.4703 9.21731 14.5743 9.31543 14.6517 9.4334C14.729 9.55137 14.7776 9.68588 14.7935 9.82609C14.8093 9.9663 14.792 10.1083 14.7429 10.2406C14.6939 10.3728 14.6144 10.4917 14.5109 10.5876C14.4075 10.6835 14.283 10.7538 14.1474 10.7926L14.1684 10.9007C14.1724 10.9252 14.1672 10.9504 14.1537 10.9713C14.1402 10.9922 14.1194 11.0073 14.0954 11.0137H14.0764L14.0324 11.0157ZM13.0617 11.5158C13.0701 11.6104 13.0473 11.7052 12.9967 11.7856C12.9462 11.866 12.8706 11.9276 12.7817 11.9609L12.7398 11.8699C12.8114 11.8448 12.8723 11.796 12.9127 11.7317C12.953 11.6674 12.9703 11.5913 12.9617 11.5158H12.9267C12.9011 11.5145 12.8769 11.5034 12.8592 11.4848C12.8415 11.4662 12.8317 11.4415 12.8317 11.4158V11.3968L12.8477 11.3198C12.6227 11.305 12.4114 11.2062 12.2556 11.043C12.0999 10.8798 12.0111 10.664 12.0069 10.4384C12.0027 10.2128 12.0833 9.99381 12.2327 9.82484C12.3822 9.65587 12.5897 9.54923 12.814 9.52604C13.0384 9.50284 13.2632 9.56479 13.4441 9.69961C13.6249 9.83442 13.7486 10.0323 13.7906 10.254C13.8325 10.4757 13.7897 10.7051 13.6707 10.8967C13.5516 11.0884 13.3649 11.2283 13.1476 11.2888L13.1686 11.3968C13.1727 11.4213 13.1675 11.4465 13.154 11.4674C13.1405 11.4883 13.1197 11.5034 13.0957 11.5098H13.0767L13.0617 11.5158Z" fill="black"/>
</svg>
