<svg xmlns="http://www.w3.org/2000/svg" viewBox="0 0 16 16">
  <title>label</title>
  <g id="Layer_1" data-name="Layer 1">
    <polygon points="4.225 14.07 3.356 14.07 3.356 12.333 1.619 12.333 1.619 11.464 4.225 11.464 4.225 14.07"/>
    <rect x="1.344" y="12.478" width="2.867" height="0.869" transform="translate(-8.317 5.745) rotate(-45)"/>
    <path d="M14.36.75H1.619a.869.869,0,0,0-.869.869v6.66A2.319,2.319,0,0,0,3.067,10.6H5.094v2.317A2.319,2.319,0,0,0,7.41,15.228h6.95a.868.868,0,0,0,.868-.868V1.619A.869.869,0,0,0,14.36.75Zm-.6,13.006H7.41a.846.846,0,0,1-.845-.844V9.124h-3.5a.845.845,0,0,1-.843-.845V2.222H13.756Z"/>
  </g>
</svg>
