<svg width="16" height="16" viewBox="0 0 16 16" fill="none" xmlns="http://www.w3.org/2000/svg">
<path d="M4.58246 9.57965H4.12431V11.8635H4.58246V9.57965Z" fill="black"/>
<path d="M5.72832 9.57965H5.27018V11.8635H5.72832V9.57965Z" fill="black"/>
<path d="M7.79048 9.57965H7.33233V11.8635H7.79048V9.57965Z" fill="black"/>
<path d="M5.0416 9.57965H4.81203V11.8635H5.0416V9.57965Z" fill="black"/>
<path d="M6.18647 9.57965H5.95689V11.8635H6.18647V9.57965Z" fill="black"/>
<path d="M6.64461 9.57965H6.41504V11.8635H6.64461V9.57965Z" fill="black"/>
<path d="M7.10376 9.57965H6.87419V11.8635H7.10376V9.57965Z" fill="black"/>
<path d="M8.24862 9.57965H8.01905V11.8635H8.24862V9.57965Z" fill="black"/>
<path d="M8.70677 9.57965H8.47719V11.8635H8.70677V9.57965Z" fill="black"/>
<path d="M9.39348 9.57965H8.93534V11.8635H9.39348V9.57965Z" fill="black"/>
<path d="M11.4556 9.57965H10.9975V11.8635H11.4556V9.57965Z" fill="black"/>
<path d="M13.0596 9.57965H12.6015V11.8635H13.0596V9.57965Z" fill="black"/>
<path d="M13.7474 9.57965H13.2892V11.8635H13.7474V9.57965Z" fill="black"/>
<path d="M9.85263 9.57965H9.62306V11.8635H9.85263V9.57965Z" fill="black"/>
<path d="M10.3108 9.57965H10.0812V11.8635H10.3108V9.57965Z" fill="black"/>
<path d="M10.7689 9.57965H10.5393V11.8635H10.7689V9.57965Z" fill="black"/>
<path d="M11.9148 9.57965H11.6852V11.8635H11.9148V9.57965Z" fill="black"/>
<path d="M12.3729 9.57965H12.1434V11.8635H12.3729V9.57965Z" fill="black"/>
<path d="M13.7945 3.22498C13.3583 3.22498 12.9319 3.35394 12.5692 3.59555C12.2065 3.83716 11.9238 4.18057 11.7569 4.58236C11.5899 4.98415 11.5463 5.42626 11.6314 5.8528C11.7165 6.27933 11.9265 6.67113 12.235 6.97865C12.5434 7.28616 12.9364 7.49558 13.3642 7.58042C13.792 7.66527 14.2355 7.62172 14.6385 7.4553C15.0415 7.28887 15.386 7.00704 15.6283 6.64544C15.8706 6.28384 16 5.85872 16 5.42382C16 4.84065 15.7676 4.28137 15.354 3.869C14.9404 3.45664 14.3794 3.22498 13.7945 3.22498Z" fill="black"/>
<path d="M11.1198 5.42083C11.1228 5.28337 11.1366 5.14636 11.1609 5.01104H0.585464C0.665265 4.87263 0.780166 4.75757 0.918643 4.6774C1.05712 4.59723 1.21431 4.55477 1.37444 4.55428H11.2772C11.3321 4.39581 11.4019 4.24287 11.4857 4.09752H1.37444C1.00991 4.09752 0.66032 4.24189 0.402563 4.49887C0.144806 4.75584 0 5.10438 0 5.4678V10.0374H0.00501253C0.00438027 10.1565 0.0508438 10.2711 0.134336 10.3562L2.42506 12.641C2.51141 12.7266 2.62814 12.7747 2.74987 12.775H13.7474C13.9279 12.775 14.1068 12.7395 14.2736 12.6706C14.4404 12.6016 14.592 12.5006 14.7196 12.3733C14.8472 12.2459 14.9485 12.0948 15.0175 11.9284C15.0865 11.762 15.1219 11.5837 15.1218 11.4037V7.72162C14.7197 7.95863 14.2616 8.08488 13.7945 8.08743C13.0854 8.08664 12.4055 7.80544 11.9041 7.30552C11.4026 6.80561 11.1206 6.12781 11.1198 5.42083ZM2.74987 12.3172L0.458145 10.0374H1.98596C2.18857 10.0374 2.38287 10.1176 2.52613 10.2605C2.66939 10.4033 2.74987 10.597 2.74987 10.799V12.3172ZM14.6637 11.4027C14.6634 11.645 14.5668 11.8773 14.3951 12.0487C14.2233 12.2201 13.9904 12.3167 13.7474 12.3172H3.20802V10.798C3.20775 10.475 3.07892 10.1652 2.8498 9.93679C2.62067 9.70836 2.30999 9.57991 1.98596 9.57965H0.458145V9.12289H14.6637V11.4027Z" fill="black"/>
</svg>
