<svg width="16" height="16" viewBox="0 0 16 16" fill="none" xmlns="http://www.w3.org/2000/svg">
<path fill-rule="evenodd" clip-rule="evenodd" d="M2.44448 9.60036H0.451006L3.19628 12.348V10.3585C3.19681 10.1583 3.11797 9.96609 2.97703 9.82396C2.8361 9.68183 2.64458 9.60142 2.44448 9.60036Z" fill="black"/>
<path fill-rule="evenodd" clip-rule="evenodd" d="M14.1814 3.64999H1.81864C1.6383 3.64986 1.4597 3.68529 1.29305 3.75424C1.1264 3.8232 0.974964 3.92434 0.847397 4.05188C0.71983 4.17941 0.618633 4.33085 0.549589 4.49753C0.480545 4.66422 0.445007 4.84288 0.445007 5.02331V9.14526H2.44448C2.76558 9.14605 3.07326 9.27423 3.30003 9.50168C3.52681 9.72913 3.65416 10.0373 3.65416 10.3585V12.35H14.1814C14.3617 12.3501 14.5403 12.3147 14.707 12.2457C14.8736 12.1768 15.0251 12.0757 15.1526 11.9481C15.2802 11.8206 15.3814 11.6691 15.4504 11.5025C15.5195 11.3358 15.555 11.1571 15.555 10.9767V5.02331C15.555 4.84288 15.5195 4.66422 15.4504 4.49753C15.3814 4.33085 15.2802 4.17941 15.1526 4.05188C15.0251 3.92434 14.8736 3.8232 14.707 3.75424C14.5403 3.68529 14.3617 3.64986 14.1814 3.64999ZM12.6308 9.14526C12.7411 9.14546 12.8488 9.17836 12.9404 9.23981C13.032 9.30125 13.1034 9.38849 13.1455 9.49049C13.1875 9.59249 13.1984 9.70468 13.1768 9.81288C13.1552 9.92108 13.1019 10.0204 13.0239 10.0984C12.9458 10.1764 12.8464 10.2294 12.7382 10.2509C12.6301 10.2723 12.5179 10.2612 12.4161 10.2189C12.3142 10.1767 12.2271 10.1051 12.1659 10.0134C12.1046 9.9216 12.0719 9.81373 12.0719 9.70339C12.0718 9.62997 12.0862 9.55725 12.1142 9.48941C12.1423 9.42157 12.1834 9.35995 12.2354 9.30808C12.2873 9.25621 12.349 9.21513 12.4168 9.18719C12.4847 9.15924 12.5574 9.14499 12.6308 9.14526ZM13.5305 11.3458C13.5307 11.3573 13.5285 11.3687 13.5242 11.3794C13.5199 11.39 13.5135 11.3998 13.5054 11.4079C13.4973 11.4161 13.4877 11.4226 13.4771 11.4271C13.4665 11.4315 13.4551 11.4338 13.4436 11.4338H11.821C11.8094 11.4339 11.7979 11.4317 11.7872 11.4274C11.7764 11.423 11.7667 11.4165 11.7585 11.4083C11.7503 11.4001 11.7438 11.3903 11.7394 11.3796C11.7351 11.3689 11.7329 11.3574 11.733 11.3458V11.0627C11.733 10.9871 11.7479 10.9122 11.7769 10.8424C11.8058 10.7725 11.8483 10.7091 11.9017 10.6557C11.9552 10.6022 12.0187 10.5599 12.0886 10.5311C12.1584 10.5022 12.2333 10.4874 12.3089 10.4876H12.9517C13.0272 10.4874 13.102 10.5022 13.1718 10.5311C13.2416 10.5599 13.3051 10.6023 13.3585 10.6557C13.4119 10.7092 13.4542 10.7726 13.4831 10.8424C13.5119 10.9123 13.5267 10.9871 13.5265 11.0627L13.5305 11.3458ZM13.9704 9.48734C14.0534 9.48714 14.1345 9.51158 14.2035 9.55755C14.2726 9.60352 14.3264 9.66897 14.3582 9.74559C14.3901 9.82221 14.3984 9.90656 14.3823 9.98795C14.3662 10.0693 14.3263 10.1441 14.2676 10.2028C14.209 10.2614 14.1343 10.3014 14.0529 10.3175C13.9716 10.3337 13.8872 10.3253 13.8107 10.2934C13.7341 10.2616 13.6687 10.2077 13.6227 10.1386C13.5768 10.0696 13.5523 9.98841 13.5525 9.90543C13.5528 9.79541 13.5964 9.68992 13.6739 9.61184C13.7513 9.53377 13.8565 9.48939 13.9664 9.48834L13.9704 9.48734ZM14.6432 11.1387C14.6432 11.156 14.6364 11.1725 14.6242 11.1847C14.612 11.1969 14.5955 11.2037 14.5783 11.2037H13.8145C13.7914 11.2037 13.7693 11.1946 13.753 11.1782C13.7367 11.1619 13.7275 11.1398 13.7275 11.1167V11.0377C13.7277 10.8826 13.6732 10.7324 13.5735 10.6136C13.5665 10.606 13.5614 10.5968 13.5589 10.5867C13.5565 10.5766 13.5566 10.5661 13.5593 10.5561C13.562 10.5461 13.5672 10.5369 13.5744 10.5295C13.5816 10.522 13.5906 10.5166 13.6005 10.5136C13.6422 10.5003 13.6857 10.4936 13.7295 10.4936H14.2114C14.268 10.4934 14.3242 10.5045 14.3766 10.5261C14.429 10.5477 14.4766 10.5794 14.5167 10.6195C14.5568 10.6595 14.5886 10.7071 14.6104 10.7595C14.6321 10.8118 14.6432 10.868 14.6432 10.9247V11.1387Z" fill="black"/>
</svg>
