<svg xmlns="http://www.w3.org/2000/svg" viewBox="0 0 16 16">
  <g id="Layer_1" data-name="Layer 1">
    <g>
      <rect x="4.122" y="9.145" width="0.458" height="2.29"/>
      <rect x="5.267" y="9.145" width="0.458" height="2.29"/>
      <rect x="7.328" y="9.145" width="0.458" height="2.29"/>
      <rect x="4.809" y="9.145" width="0.229" height="2.29"/>
      <rect x="5.954" y="9.145" width="0.229" height="2.29"/>
      <rect x="6.412" y="9.145" width="0.229" height="2.29"/>
      <rect x="6.87" y="9.145" width="0.229" height="2.29"/>
      <rect x="8.015" y="9.145" width="0.229" height="2.29"/>
      <rect x="8.473" y="9.145" width="0.229" height="2.29"/>
      <rect x="8.931" y="9.145" width="0.458" height="2.29"/>
      <rect x="10.992" y="9.145" width="0.458" height="2.29"/>
      <rect x="12.595" y="9.145" width="0.458" height="2.29"/>
      <rect x="13.282" y="9.145" width="0.458" height="2.29"/>
      <rect x="9.618" y="9.145" width="0.229" height="2.29"/>
      <rect x="10.076" y="9.145" width="0.229" height="2.29"/>
      <rect x="10.534" y="9.145" width="0.229" height="2.29"/>
      <rect x="11.679" y="9.145" width="0.229" height="2.29"/>
      <rect x="12.137" y="9.145" width="0.229" height="2.29"/>
      <path d="M13.318,6.119l-.56.56-.012.014-.011-.013c-.073-.073-.145-.147-.219-.219a.161.161,0,1,0-.223.233l.338.337a.161.161,0,0,0,.23,0c.056-.057.113-.113.17-.17q.258-.257.515-.515a.153.153,0,0,0,.038-.168A.16.16,0,0,0,13.318,6.119Z"/>
      <path d="M13.74,3.649H1.374A1.374,1.374,0,0,0,0,5.023V9.6l0,0a.459.459,0,0,0,.13.319l2.29,2.291a.461.461,0,0,0,.324.134H13.74a1.374,1.374,0,0,0,1.374-1.374V5.023A1.374,1.374,0,0,0,13.74,3.649ZM1.374,4.107H13.74a.914.914,0,0,1,.788.458H.585A.914.914,0,0,1,1.374,4.107ZM14.2,5.916a2.557,2.557,0,0,1-.249,1.1A2.6,2.6,0,0,1,12.86,8.175a.067.067,0,0,1-.071,0,2.835,2.835,0,0,1-.54-.4A2.489,2.489,0,0,1,11.6,6.761a2.63,2.63,0,0,1-.117-.456,2.508,2.508,0,0,1-.029-.433,2.573,2.573,0,0,1,.026-.317c0-.028.013-.038.041-.043.13-.024.259-.044.388-.072a2.712,2.712,0,0,0,.606-.2,2.283,2.283,0,0,0,.243-.144.123.123,0,0,1,.074-.028.1.1,0,0,1,.053.016,2.063,2.063,0,0,0,.621.286,4.881,4.881,0,0,0,.547.129c.029.006.059.009.088.014a.036.036,0,0,1,.035.037,2.527,2.527,0,0,1,.026.325ZM2.748,11.893.458,9.6H1.985a.763.763,0,0,1,.763.763Zm11.908-.916a.917.917,0,0,1-.916.916H3.206V10.366A1.222,1.222,0,0,0,1.985,9.145H.458V8.687h14.2Z"/>
    </g>
  </g>
</svg>
