<svg width="16" height="16" viewBox="0 0 16 16" fill="none" xmlns="http://www.w3.org/2000/svg">
<path d="M4.23549 14.0819H3.36637V12.3446H1.62913V11.4755H4.23549V14.0819Z" fill="black"/>
<path d="M3.49429 11.6022L1.46674 13.6297L2.0813 14.2443L4.10885 12.2167L3.49429 11.6022Z" fill="black"/>
<path d="M14.3719 0.76001H1.62913C1.39863 0.76001 1.17756 0.851578 1.01457 1.01457C0.851578 1.17756 0.760011 1.39862 0.760011 1.62913V8.29005C0.759748 8.59463 0.819479 8.89627 0.935793 9.17777C1.05211 9.45926 1.22273 9.71509 1.43791 9.93064C1.65309 10.1462 1.90862 10.3173 2.18992 10.4341C2.47121 10.5509 2.77275 10.6111 3.07733 10.6114H5.10461V12.9287C5.10673 13.5419 5.3516 14.1293 5.78568 14.5625C6.21976 14.9956 6.80771 15.2392 7.42093 15.24H14.3719C14.6021 15.24 14.8229 15.1485 14.9857 14.9857C15.1485 14.8229 15.24 14.6021 15.24 14.3719V1.62913C15.24 1.3988 15.1486 1.17789 14.9858 1.01492C14.823 0.85196 14.6022 0.760275 14.3719 0.76001ZM13.7718 13.7678H7.42093C7.19705 13.7675 6.98239 13.6786 6.82399 13.5203C6.66558 13.3621 6.57634 13.1476 6.57581 12.9237V9.13517H3.07533C2.85154 9.13464 2.63709 9.04536 2.47904 8.88693C2.32098 8.7285 2.23221 8.51384 2.23221 8.29005V2.23221H13.7678L13.7718 13.7678Z" fill="black"/>
</svg>
