<svg xmlns="http://www.w3.org/2000/svg" viewBox="0 0 16 16"><title>linux</title><g id="Layer_1" data-name="Layer 1"><path d="M14,13.49c0-.12-.08-.32-.34-.61h0a1.18,1.18,0,0,1-.22-.57.89.89,0,0,0-.21-.47h0a.56.56,0,0,0-.45-.13h-.12a1.17,1.17,0,0,1-1,.41.78.78,0,0,1-.47-.74l0,0a.72.72,0,0,0-.34.52,5,5,0,0,0-.11,1h0a5.79,5.79,0,0,1-.25,1,1.4,1.4,0,0,0,0,.9h0a.82.82,0,0,0,.84.49,1.71,1.71,0,0,0,1.09-.64,4.21,4.21,0,0,1,1.31-.84C13.85,13.71,13.94,13.62,14,13.49Zm-8,.92a1.46,1.46,0,0,0-.39-.84,6.87,6.87,0,0,1-.64-.88h0L4.4,11.8a.84.84,0,0,0-.54-.4H3.77a.48.48,0,0,0-.35.18c-.12.13-.23.31-.36.45h0a1.14,1.14,0,0,1-.49.25.58.58,0,0,0-.37.28h0a.83.83,0,0,0,0,.5,1.35,1.35,0,0,1,0,.6h0a.86.86,0,0,0-.07.66.52.52,0,0,0,.39.21A5.49,5.49,0,0,1,4,14.86H4a1.91,1.91,0,0,0,1.28.25.72.72,0,0,0,.6-.7ZM9,4.39a.49.49,0,0,0-.24-.2h0A2.93,2.93,0,0,1,8.27,4a1.17,1.17,0,0,0-.61-.21l-.23,0A1.05,1.05,0,0,0,7,4.1H7l-.08.07a2.23,2.23,0,0,0-.25.18.23.23,0,0,0-.09.28A.64.64,0,0,0,6.92,5h0a2,2,0,0,1,.31.25l.16.1a.52.52,0,0,0,.23,0,.87.87,0,0,0,.5-.13A3.15,3.15,0,0,1,8.51,5h0A.79.79,0,0,0,9,4.62.3.3,0,0,0,9,4.39ZM11,10.58c.06-.43.4-.44.42-.73a7.23,7.23,0,0,0-.74-2,16.08,16.08,0,0,1-1.16-3,1.36,1.36,0,0,1-.7.47,3.89,3.89,0,0,0-.5.28,1.29,1.29,0,0,1-.66.19H7.54A1,1,0,0,1,7,5.56a3,3,0,0,0-.4-.33l-.19-.12A11.43,11.43,0,0,1,5.14,8.63a5.36,5.36,0,0,0-.43,1.92A.77.77,0,0,0,5,11.2a4.49,4.49,0,0,1,1.2,1,.89.89,0,0,1,.23.78.4.4,0,0,1-.22.22.67.67,0,0,1-.3.06l.18.23a4.44,4.44,0,0,1,.27.38,3.06,3.06,0,0,0,3.57-.22,5.5,5.5,0,0,0,.22-.9,7.17,7.17,0,0,1,.13-1.25,1.19,1.19,0,0,1,.54-.8l.13-.06S11,10.6,11,10.58ZM7.31,3.41h0a.6.6,0,0,0,0-.19h0a1.29,1.29,0,0,0-.1-.44A.74.74,0,0,0,7,2.47a.39.39,0,0,0-.27-.1h0a.43.43,0,0,0-.28.13.8.8,0,0,0-.19.34,1.27,1.27,0,0,0,0,.44h0a1.18,1.18,0,0,0,.1.43A.73.73,0,0,0,6.46,4l.08-.07.12-.09,0,0a.38.38,0,0,1-.11-.16.79.79,0,0,1-.06-.22h0a.86.86,0,0,1,0-.23A.38.38,0,0,1,6.57,3a.21.21,0,0,1,.12-.08h0A.17.17,0,0,1,6.83,3a.33.33,0,0,1,.11.16A.79.79,0,0,1,7,3.38H7a1,1,0,0,1,0,.17,1.36,1.36,0,0,1,.27-.13Zm2.17-.18h0v0a1.18,1.18,0,0,0-.12-.49.83.83,0,0,0-.29-.37.67.67,0,0,0-.39-.14h0a.62.62,0,0,0-.39.14A.92.92,0,0,0,8,2.73a1.22,1.22,0,0,0-.1.51v0a.76.76,0,0,0,0,.15,1.74,1.74,0,0,1,.4.14s0-.11,0-.16h0a1.06,1.06,0,0,1,.06-.28.51.51,0,0,1,.14-.2.25.25,0,0,1,.17-.07h0a.22.22,0,0,1,.18.08A.44.44,0,0,1,9,3.12a.8.8,0,0,1,0,.27H9A1.27,1.27,0,0,1,9,3.68a.87.87,0,0,1-.12.14L9,3.88,9.17,4l.06,0a1,1,0,0,0,.14-.24A1.09,1.09,0,0,0,9.48,3.23Zm4.65,9.39a1.43,1.43,0,0,1,.48.93.78.78,0,0,1-.44.57,5.61,5.61,0,0,0-1.59,1l-.08-.07.08.07a2.31,2.31,0,0,1-1.51.88,1.25,1.25,0,0,1-1.25-.72h0a.86.86,0,0,1-.07-.21c-.67,0-1.26-.17-1.73-.13-.68,0-1.11.2-1.51.2a1.13,1.13,0,0,1-.81.64A2.67,2.67,0,0,1,4,15.45l0-.09,0,.09a6.45,6.45,0,0,0-1.86-.39.88.88,0,0,1-.63-.38,1.33,1.33,0,0,1,.07-1,1.45,1.45,0,0,0,0-.65,2.21,2.21,0,0,1,0-.37.73.73,0,0,1,.09-.38h0a1,1,0,0,1,.58-.46,1.2,1.2,0,0,0,.53-.26c.14-.15.27-.37.44-.56l.08-.07a3.42,3.42,0,0,1,.19-1.66,9.79,9.79,0,0,1,1.81-3,3.6,3.6,0,0,0,.71-2c0-1-.71-4,2.11-4.21h.33c2.52,0,2.38,2.67,2.37,4.1a3.51,3.51,0,0,0,1,2.25A8.46,8.46,0,0,1,13.2,8.68a3.6,3.6,0,0,1,.12,2.47l.13.06.12.09h0a1.18,1.18,0,0,1,.33.71,1.59,1.59,0,0,0,.23.61Z"/></g></svg>