<svg xmlns="http://www.w3.org/2000/svg" viewBox="0 0 16 16">
  <g id="Layer_1" data-name="Layer 1">
    <path d="M12.654,14.3a1.7,1.7,0,0,1-1.7,1.7h-5.9a1.7,1.7,0,0,1-1.7-1.7V1.7A1.7,1.7,0,0,1,5.049,0h5.9a1.7,1.7,0,0,1,1.7,1.7V14.3ZM11.883,3.349H4.1v9.175h7.786ZM9.556,1.7a.189.189,0,0,0-.189-.188H6.633a.188.188,0,0,0-.189.188h0a.189.189,0,0,0,.189.189H9.367A.189.189,0,0,0,9.556,1.7ZM5.918,13.883a.4.4,0,1,0,.4.4A.4.4,0,0,0,5.918,13.883Zm2.082,0a.4.4,0,1,0,.4.4A.4.4,0,0,0,8,13.883Zm2.081,0a.4.4,0,1,0,.4.4A.4.4,0,0,0,10.081,13.883Z"/>
    <rect x="10.387" y="10.387" width="0.682" height="0.682"/>
    <rect x="9.023" y="9.023" width="0.682" height="0.682"/>
    <rect x="10.387" y="9.023" width="0.682" height="0.682"/>
    <rect x="9.705" y="8.341" width="0.682" height="0.682"/>
    <rect x="9.023" y="10.387" width="0.682" height="0.682"/>
    <rect x="9.705" y="9.705" width="0.682" height="0.682"/>
    <rect x="8.341" y="9.705" width="0.682" height="0.682"/>
    <rect x="8.341" y="8.341" width="0.682" height="0.682"/>
    <path d="M4.931,8.341v2.728H7.659V8.341Zm2.046,2.046H5.613V9.023H6.977Z"/>
    <path d="M4.931,4.931V7.659H7.659V4.931ZM6.977,6.977H5.613V5.613H6.977Z"/>
    <path d="M8.341,4.931V7.659h2.728V4.931Zm2.046,2.046H9.023V5.613h1.364Z"/>
  </g>
</svg>
