<svg xmlns="http://www.w3.org/2000/svg" viewBox="0 0 16 16"><title>mobile-pass</title><g id="Layer_1" data-name="Layer 1"><path d="M12.65,14.3A1.7,1.7,0,0,1,11,16H5.05a1.7,1.7,0,0,1-1.7-1.7V1.7A1.7,1.7,0,0,1,5.05,0H11a1.7,1.7,0,0,1,1.7,1.7V14.3Zm-.77-11H4.1v9.17h7.78ZM9.56,1.7a.2.2,0,0,0-.19-.19H6.63a.2.2,0,0,0-.19.19h0a.19.19,0,0,0,.19.19H9.37a.19.19,0,0,0,.19-.19ZM5.92,13.88a.41.41,0,1,0,.4.4A.4.4,0,0,0,5.92,13.88Zm2.08,0a.41.41,0,1,0,.4.4A.4.4,0,0,0,8,13.88Zm2.08,0a.41.41,0,1,0,.4.4A.4.4,0,0,0,10.08,13.88Z"/><rect x="10.39" y="10.39" width="0.68" height="0.68"/><rect x="9.02" y="9.02" width="0.68" height="0.68"/><rect x="10.39" y="9.02" width="0.68" height="0.68"/><rect x="9.7" y="8.34" width="0.68" height="0.68"/><rect x="9.02" y="10.39" width="0.68" height="0.68"/><rect x="9.7" y="9.7" width="0.68" height="0.68"/><rect x="8.34" y="9.7" width="0.68" height="0.68"/><rect x="8.34" y="8.34" width="0.68" height="0.68"/><path d="M4.93,8.34v2.73H7.66V8.34ZM7,10.39H5.61V9H7Z"/><path d="M4.93,4.93V7.66H7.66V4.93ZM7,7H5.61V5.61H7Z"/><path d="M8.34,4.93V7.66h2.73V4.93ZM10.39,7H9V5.61h1.37Z"/></g></svg>