<svg xmlns="http://www.w3.org/2000/svg" viewBox="0 0 16 16">
  <title>options</title>
  <g id="Layer_1" data-name="Layer 1">
    <path d="M13.984.872H2.059a.872.872,0,0,0-.852.891V14.237a.872.872,0,0,0,.852.891H13.984a.872.872,0,0,0,.852-.891V1.763A.872.872,0,0,0,13.984.872Zm-.852,12.474H2.911V2.654H13.132Z"/>
    <g id="Your_Icon" data-name="Your Icon">
      <path d="M11.21,5.71h-3.4a.577.577,0,0,1,0-1.153h3.4a.577.577,0,0,1,0,1.153Z"/>
      <path d="M5.674,5.885H4.833a.564.564,0,0,1-.552-.576V4.931a.564.564,0,0,1,.552-.576h.841a.564.564,0,0,1,.552.576v.378A.564.564,0,0,1,5.674,5.885Z"/>
      <g>
        <path d="M11.21,8.577h-3.4a.578.578,0,0,1,0-1.154h3.4a.578.578,0,0,1,0,1.154Z"/>
        <path d="M5.674,8.765H4.833a.564.564,0,0,1-.552-.576V7.812a.565.565,0,0,1,.552-.577h.841a.565.565,0,0,1,.552.577v.377A.564.564,0,0,1,5.674,8.765Z"/>
      </g>
      <g>
        <path d="M11.21,11.457h-3.4a.578.578,0,0,1,0-1.154h3.4a.578.578,0,0,1,0,1.154Z"/>
        <path d="M5.674,11.645H4.833a.565.565,0,0,1-.552-.577v-.376a.565.565,0,0,1,.552-.577h.841a.565.565,0,0,1,.552.577v.376A.565.565,0,0,1,5.674,11.645Z"/>
      </g>
    </g>
  </g>
</svg>
