<svg xmlns="http://www.w3.org/2000/svg" viewBox="0 0 16 16"><title>report-formats</title><g id="Layer_1" data-name="Layer 1"><path d="M2,13v-11H7V3.92a.13.13,0,0,0,0,.1.15.15,0,0,0,.1,0H10v1h2V3.79a.58.58,0,0,0-.18-.43L7.61.22A.66.66,0,0,0,7.17.05H.62A.61.61,0,0,0,0,.66V14.41a.64.64,0,0,0,.18.43A.67.67,0,0,0,.62,15H5L3.85,13Zm13-1.56v-.08c0-.07,0-.15,0-.22h0v-.27c0-.08,0-.15,0-.23v-.06l1-.73a.1.1,0,0,0,0-.12L14.57,7.33a.09.09,0,0,0-.12,0l-1.14.5-.09-.06-.06,0-.1-.07-.08,0,0,0h0l-.18-.09h0l-.06,0a.31.31,0,0,1-.1,0l-.14-1.21a.08.08,0,0,0-.09-.08H9.51a.09.09,0,0,0-.09.08L9.28,7.37h0L9,7.48l0,0-.12.06-.08.06-.06,0-.2.13h0L7.39,7.3a.09.09,0,0,0-.12,0L5.86,9.72a.08.08,0,0,0,0,.12l1,.73v.07s0,.09,0,.14v.09s0,.05,0,.08a.13.13,0,0,0,0,.06.2.2,0,0,0,0,.07s0,.05,0,.07v.07s0,.09,0,.13v.1l-1,.73a.07.07,0,0,0,0,.11l1.41,2.39a.1.1,0,0,0,.12,0l1.14-.49h0l.22.15h0l.1.06a2.69,2.69,0,0,0,.38.19h0l.14,1.22a.09.09,0,0,0,.09.08h2.82a.08.08,0,0,0,.09-.08l.14-1.22.08,0,.1,0h0l.07,0h0l0,0,0,0h0l.05,0h0l.18-.11.06,0,.09-.06,1.14.5a.1.1,0,0,0,.12,0L16,12.3a.1.1,0,0,0,0-.12Zm-1.85-.33v.09s0,.08,0,.12,0,.05,0,.07l0,.14s0,0,0,.06,0,.09,0,.14l0,.06s0,.09-.05.13h0l0,.06a.41.41,0,0,0,0,.09l0,.06,0,0,0,.06-.06.09,0,0,0,0-.09.09,0,0,0,0-.11.1,0,0,0,0-.12.09,0,0h0l-.12.08-.06,0-.13.07-.06,0-.14.05-.06,0-.15,0h-.06l-.17,0h-.48l-.2,0h0l-.2,0h0a2.17,2.17,0,0,1-1.43-1.41h0c0-.06,0-.12-.05-.19v0a1.25,1.25,0,0,1,0-.19v0a1.34,1.34,0,0,1,0-.2h0v0a1.21,1.21,0,0,1,0-.19v0l0-.16s0,0,0-.06a.57.57,0,0,1,0-.14.14.14,0,0,1,0-.07.69.69,0,0,1,.05-.13s0,0,0-.07A.67.67,0,0,1,9,10L9,10l.07-.12h0l0-.06.08-.1,0,0,0,0,.09-.1,0,0,0,0,.09-.07,0,0,0,0,.07-.05.08,0,0,0,0,0,.11-.05.07,0L10.12,9l.05,0,.15,0,.06,0,.14,0h.07l.14,0h.6l.13,0,.07,0,.13,0,.08,0,.12.05.08,0,.11.06.08.06.1.06.08.07.08.06.08.08.08.07.07.09.06.08a.36.36,0,0,1,.07.1.18.18,0,0,1,.05.07.75.75,0,0,1,.07.12l0,.07.06.12,0,.07s0,.09,0,.14,0,0,0,.06l0,.14s0,0,0,.07,0,.08,0,.12v.31Z"/></g></svg>