<svg xmlns="http://www.w3.org/2000/svg" viewBox="0 0 16 16"><title>report-preview</title><g id="Layer_1" data-name="Layer 1"><path d="M11.965,3.186,7.986.218A.6.6,0,0,0,7.569.049h-6.2A.6.6,0,0,0,.948.218.576.576,0,0,0,.776.627V13.655a.58.58,0,0,0,.172.409.6.6,0,0,0,.417.169H5.473l-1.045-1.9H2.665V1.946h4.77V3.722a.13.13,0,0,0,.038.091.135.135,0,0,0,.093.037h2.682v.936h1.889V3.6A.57.57,0,0,0,11.965,3.186Z"/><path d="M14.985,14.31l-2.55-2.549a4.149,4.149,0,0,0,.606-2.167,4.4,4.4,0,0,0-4.3-4.3A4.174,4.174,0,0,0,4.565,9.466a4.4,4.4,0,0,0,4.3,4.3,4.157,4.157,0,0,0,2.1-.568l2.564,2.563a.642.642,0,0,0,.908,0l.636-.635C15.327,14.877,15.236,14.561,14.985,14.31ZM8.738,12.071A2.541,2.541,0,1,1,11.28,9.53,2.541,2.541,0,0,1,8.738,12.071Z"/></g></svg>