<svg xmlns="http://www.w3.org/2000/svg" viewBox="0 0 16 16"><title>report-formats</title><g id="74d2427d-106d-42fa-934b-98ddbe890bdf" data-name="Layer 1"><path d="M2,13.014V2.049H7.028V3.923a.138.138,0,0,0,.041.1.142.142,0,0,0,.1.04H10v.987h2V3.789a.607.607,0,0,0-.182-.432L7.61.225A.633.633,0,0,0,7.17.046H.622a.638.638,0,0,0-.44.179A.609.609,0,0,0,0,.657v13.75a.606.606,0,0,0,.182.431.631.631,0,0,0,.44.179H4.958l-1.1-2ZM14.958,11.45c0-.025,0-.051,0-.076.008-.074.012-.15.015-.225v-.022c0-.04,0-.079,0-.12s0-.069,0-.1v-.045c0-.077-.007-.154-.015-.229,0-.02,0-.04,0-.06l1-.729a.092.092,0,0,0,.025-.121L14.573,7.331a.092.092,0,0,0-.118-.037l-1.142.494-.094-.06-.055-.037c-.036-.024-.072-.048-.109-.07s-.05-.028-.074-.043l-.023-.013-.031-.016c-.057-.032-.115-.064-.174-.093l-.012-.007h0l-.025-.011-.059-.029-.1-.045-.137-1.217a.093.093,0,0,0-.094-.082H9.514a.092.092,0,0,0-.093.082L9.283,7.365a.169.169,0,0,1-.027.013c-.073.032-.146.067-.218.1L9,7.5c-.04.021-.079.04-.118.062s-.056.035-.085.053l-.058.035c-.068.042-.133.087-.2.132l-.008.006L7.389,7.3a.093.093,0,0,0-.118.038L5.857,9.724a.09.09,0,0,0,.026.12l1,.729v.018l0,.05c0,.045-.008.089-.01.135s-.006.062-.007.094v.076c0,.02,0,.04,0,.061s0,.047,0,.071v.072c0,.022,0,.046,0,.068,0,.045.007.089.01.133l0,.024,0,.053v.019l-1,.728a.091.091,0,0,0-.025.12l1.413,2.39a.1.1,0,0,0,.119.038l1.143-.494.006,0c.072.05.145.1.22.146.009,0,.017.011.026.016.033.019.064.041.1.06.124.07.25.131.377.187.009,0,.016.009.025.012l.138,1.218a.092.092,0,0,0,.093.082h2.815a.093.093,0,0,0,.094-.082l.137-1.218c.027-.011.051-.025.078-.037l.1-.049v0c.023-.011.045-.025.068-.037l.033-.016a.2.2,0,0,0,.029-.016c.012-.006.025-.012.036-.019h0c.017-.01.034-.017.051-.026l.02-.013c.062-.035.121-.073.18-.111.02-.013.041-.025.061-.039s.063-.039.094-.06l1.142.494a.1.1,0,0,0,.119-.038l1.413-2.39a.091.091,0,0,0-.024-.12Zm-1.847-.333a.867.867,0,0,1-.006.088c0,.043-.009.085-.015.127,0,.024-.009.047-.012.07-.009.046-.019.092-.03.137-.006.022-.013.041-.019.063-.013.045-.028.091-.044.136-.008.022-.017.043-.026.065-.017.041-.034.083-.053.122l-.007.016L12.867,12c-.016.032-.033.063-.052.094s-.024.039-.035.057l-.028.042c-.014.021-.027.041-.042.061s-.041.056-.063.082l-.029.037c-.01.011-.02.023-.031.034-.028.033-.058.066-.089.1l-.026.027-.022.022c-.036.033-.073.067-.111.1l-.027.021-.018.016c-.04.031-.081.061-.122.09l-.039.025-.009.006c-.042.027-.085.053-.129.077l-.052.028c-.046.023-.09.045-.135.063L11.747,13c-.045.018-.092.034-.139.05l-.06.019c-.051.014-.1.027-.153.038l-.052.012c-.058.01-.117.019-.176.025a.112.112,0,0,1-.032,0,2,2,0,0,1-.206.011H10.91c-.07,0-.138,0-.207-.011h-.016c-.068-.008-.135-.018-.2-.031l-.017,0a1.894,1.894,0,0,1-.2-.05l-.008,0a2.18,2.18,0,0,1-1.437-1.41l0-.011c-.02-.062-.036-.126-.05-.19l0-.019c-.012-.064-.023-.129-.029-.194l0-.019a1.9,1.9,0,0,1-.011-.2v-.03c0-.063,0-.125.01-.187,0-.015.005-.03.006-.045.006-.053.015-.107.025-.16,0-.02.009-.042.014-.063.011-.046.022-.091.036-.135.007-.025.015-.05.023-.074.015-.041.03-.082.046-.122s.02-.049.032-.073c.018-.04.037-.08.058-.118l.035-.065c.024-.04.047-.079.073-.117h0l.039-.057c.026-.037.055-.072.082-.108l.014-.016c.011-.014.022-.028.034-.041.029-.032.058-.064.089-.1l.025-.025c.012-.012.025-.023.036-.035.028-.026.057-.051.086-.076a.482.482,0,0,1,.044-.035l.042-.035.068-.05.075-.049c.016-.011.031-.021.047-.03l.041-.025c.036-.02.073-.04.11-.058.021-.01.042-.023.063-.033.045-.02.092-.039.138-.057l.058-.023c.048-.015.1-.031.147-.045l.056-.015c.048-.012.1-.022.147-.031l.063-.011c.046-.007.092-.012.138-.017l.08-.005c.04,0,.08,0,.121,0s.066,0,.1,0,.068,0,.1.007.08.008.118.014l.085.014c.043.008.085.017.127.028.027.006.051.013.077.02.042.012.085.025.128.04.026.009.051.019.077.03.041.015.081.031.12.049s.055.027.081.041.075.038.11.059l.085.054c.032.021.063.041.094.063a.948.948,0,0,1,.085.069,1.016,1.016,0,0,1,.082.065c.027.024.052.05.078.075s.051.049.075.076.048.055.071.083.044.052.066.08.047.066.068.1.035.049.052.076.043.077.063.117a.759.759,0,0,1,.036.069c.021.043.038.086.056.128l.026.065c.016.045.031.09.044.137.006.02.013.041.019.062.011.045.021.091.03.136,0,.025.009.048.012.071.006.042.011.084.015.127a.867.867,0,0,1,.006.087c0,.036,0,.074,0,.109S13.114,11.081,13.111,11.117Z"/></g></svg>