<svg width="16" height="16" viewBox="0 0 16 16" fill="none" xmlns="http://www.w3.org/2000/svg">
<path fill-rule="evenodd" clip-rule="evenodd" d="M13.0122 0.00116262H2.98779C2.60028 -0.00980365 2.2145 0.0569013 1.85317 0.197349C1.49183 0.337796 1.16225 0.549146 0.883822 0.818952C0.605398 1.08876 0.383766 1.41156 0.231978 1.76836C0.0801897 2.12515 0.00131537 2.50872 0 2.89647V13.0185C0.000130922 13.4106 0.0775528 13.7988 0.227836 14.1609C0.378119 14.5231 0.598314 14.852 0.875821 15.1289C1.15333 15.4058 1.4827 15.6253 1.8451 15.7748C2.20749 15.9243 2.59579 16.0008 2.98779 16H13.0172C13.4089 16.0001 13.7967 15.9231 14.1586 15.7733C14.5205 15.6234 14.8493 15.4038 15.1263 15.1268C15.4033 14.8498 15.623 14.521 15.7729 14.1591C15.9228 13.7972 16 13.4093 16 13.0175V2.89647C15.9987 2.50872 15.9198 2.12515 15.768 1.76836C15.6162 1.41156 15.3946 1.08876 15.1162 0.818952C14.8378 0.549146 14.5082 0.337796 14.1468 0.197349C13.7855 0.0569013 13.3997 -0.00980365 13.0122 0.00116262ZM14.0953 13.1057C14.0953 13.2363 14.0696 13.3657 14.0196 13.4864C13.9695 13.6071 13.8962 13.7167 13.8038 13.809C13.7114 13.9014 13.6018 13.9746 13.481 14.0245C13.3603 14.0744 13.231 14.1 13.1004 14.0999H2.89461C2.63091 14.0999 2.378 13.9951 2.19144 13.8087C2.00489 13.6223 1.89995 13.3695 1.89968 13.1057V2.89647C1.89995 2.63261 2.00485 2.37964 2.19138 2.19307C2.37791 2.0065 2.63082 1.90156 2.89461 1.9013H13.1004C13.3643 1.9013 13.6173 2.00615 13.8039 2.19278C13.9905 2.37941 14.0953 2.63253 14.0953 2.89647V13.1057Z" fill="black"/>
<path fill-rule="evenodd" clip-rule="evenodd" d="M7.10477 8.58385L5.16601 6.64463L3.69416 8.11683L7.14484 11.5683L7.14584 11.5673L7.14785 11.5683L12.7687 5.94611L11.2558 4.43281L7.10477 8.58385Z" fill="black"/>
</svg>
