<svg xmlns="http://www.w3.org/2000/svg" viewBox="0 0 16 16" class="symbol symbol-drag" aria-labelledby="title" role="img"><title id="title">drag icon</title><path class="cls-1" d="M14.412 7.382l-1.648-1.415a.593.593 0 0 0-.98.45v.748h-3.14V3.977h.7A.593.593 0 0 0 9.794 3L8.38 1.349a.593.593 0 0 0-.9 0L6.065 3a.593.593 0 0 0 .45.98h.7v3.182h-3.14v-.744a.593.593 0 0 0-.98-.45L1.447 7.382a.593.593 0 0 0 0 .9L3.095 9.7a.593.593 0 0 0 .98-.45v-.662h3.14v3.1h-.7a.593.593 0 0 0-.45.98l1.414 1.648a.593.593 0 0 0 .9 0l1.414-1.648a.593.593 0 0 0-.45-.98h-.7V8.592h3.14v.651a.593.593 0 0 0 .98.45l1.648-1.414a.593.593 0 0 0 .001-.897z" data-name="Layer 1" role="presentation"/></svg>