<svg width="16" height="16" viewBox="0 0 16 16" fill="none" xmlns="http://www.w3.org/2000/svg">
<path d="M10.518 2.34068C10.5121 2.20739 10.455 2.08149 10.3586 1.98924C10.2622 1.89699 10.1339 1.8455 10.0005 1.8455C9.86703 1.8455 9.73874 1.89699 9.64233 1.98924C9.54592 2.08149 9.48884 2.20739 9.48298 2.34068C9.48884 2.47398 9.54592 2.59987 9.64233 2.69213C9.73874 2.78438 9.86703 2.83587 10.0005 2.83587C10.1339 2.83587 10.2622 2.78438 10.3586 2.69213C10.455 2.59987 10.5121 2.47398 10.518 2.34068ZM6.65698 2.34068C6.65698 2.20358 6.60251 2.0721 6.50555 1.97515C6.40859 1.87821 6.27709 1.82375 6.13998 1.82375C6.00286 1.82375 5.87136 1.87821 5.7744 1.97515C5.67745 2.0721 5.62298 2.20358 5.62298 2.34068C5.62298 2.47778 5.67745 2.60927 5.7744 2.70621C5.87136 2.80316 6.00286 2.85762 6.13998 2.85762C6.27709 2.85762 6.40859 2.80316 6.50555 2.70621C6.60251 2.60927 6.65698 2.47778 6.65698 2.34068ZM11.428 1.63177C12.099 2.29311 12.4864 3.1896 12.508 4.13146H3.49198C3.51271 3.20003 3.89205 2.3125 4.55098 1.65377L3.71698 0.210946C3.69989 0.178699 3.69597 0.141081 3.70605 0.106004C3.71612 0.0709278 3.73941 0.0411256 3.77102 0.0228656C3.80262 0.00460551 3.84007 -0.000689442 3.8755 0.00809428C3.91093 0.016878 3.94157 0.0390559 3.96098 0.0699638L4.76098 1.45279C5.52624 0.781239 6.48569 0.371098 7.49998 0.281938H8.49998C9.50423 0.369996 10.4551 0.772747 11.217 1.4328L12.006 0.0699638C12.0152 0.0540102 12.0275 0.040036 12.0422 0.0288393C12.0569 0.0176426 12.0736 0.00944254 12.0914 0.00470734C12.1092 -2.78636e-05 12.1278 -0.00120548 12.1461 0.00124172C12.1644 0.00368893 12.182 0.00971303 12.198 0.0189701C12.2139 0.0282271 12.2279 0.0405358 12.2391 0.0551934C12.2503 0.069851 12.2585 0.0865705 12.2632 0.104397C12.268 0.122224 12.2692 0.140809 12.2667 0.15909C12.2643 0.177372 12.2582 0.194993 12.249 0.210946L11.428 1.63177ZM14.15 5.13134C14.4152 5.13134 14.6695 5.23668 14.8571 5.4242C15.0446 5.61171 15.15 5.86603 15.15 6.13122V10.4187C15.15 10.6839 15.0446 10.9382 14.8571 11.1257C14.6695 11.3132 14.4152 11.4186 14.15 11.4186C13.8848 11.4186 13.6304 11.3132 13.4429 11.1257C13.2553 10.9382 13.15 10.6839 13.15 10.4187V6.13422C13.15 5.86903 13.2553 5.61471 13.4429 5.4272C13.6304 5.23968 13.8848 5.13434 14.15 5.13434V5.13134ZM1.84998 5.13134C2.11519 5.13134 2.36955 5.23668 2.55708 5.4242C2.74462 5.61171 2.84998 5.86603 2.84998 6.13122V10.4187C2.84998 10.6839 2.74462 10.9382 2.55708 11.1257C2.36955 11.3132 2.11519 11.4186 1.84998 11.4186C1.58476 11.4186 1.33041 11.3132 1.14287 11.1257C0.955332 10.9382 0.849976 10.6839 0.849976 10.4187V6.13422C0.849976 6.00283 0.875874 5.87273 0.926192 5.75135C0.976509 5.62997 1.05026 5.5197 1.14322 5.42684C1.23619 5.33398 1.34654 5.26035 1.46799 5.21016C1.58943 5.15997 1.71957 5.13421 1.85098 5.13434L1.84998 5.13134ZM9.24998 12.4304H6.74498V15.0001C6.74498 15.2653 6.63962 15.5196 6.45208 15.7071C6.26455 15.8947 6.01019 16 5.74498 16C5.47976 16 5.22541 15.8947 5.03787 15.7071C4.85033 15.5196 4.74498 15.2653 4.74498 15.0001V12.4284H4.69998C4.53571 12.4274 4.37326 12.3939 4.22198 12.3299C4.07069 12.2659 3.93354 12.1726 3.81841 12.0555C3.70328 11.9383 3.61243 11.7996 3.55109 11.6472C3.48975 11.4948 3.45913 11.3318 3.46098 11.1676V4.6684C3.46098 4.6294 3.46098 4.59141 3.46698 4.55341H12.543C12.543 4.59041 12.543 4.6294 12.543 4.6684V11.1676C12.5447 11.3321 12.5138 11.4954 12.4522 11.648C12.3906 11.8005 12.2994 11.9394 12.1838 12.0566C12.0683 12.1738 11.9307 12.267 11.779 12.3308C11.6274 12.3946 11.4645 12.4278 11.3 12.4284H11.251V14.9981C11.251 15.2633 11.1456 15.5176 10.9581 15.7051C10.7705 15.8927 10.5162 15.998 10.251 15.998C9.98576 15.998 9.73141 15.8927 9.54387 15.7051C9.35633 15.5176 9.25098 15.2633 9.25098 14.9981L9.24998 12.4304Z" fill="black"/>
</svg>
