<svg id="Layer_1" data-name="Layer 1" xmlns="http://www.w3.org/2000/svg" viewBox="0 0 16 16"><title>apple</title><path d="M12.847,5.952a3.241,3.241,0,0,0-1.074,1.1,2.582,2.582,0,0,0-.285,1.2,2.5,2.5,0,0,0,.169.935,3.068,3.068,0,0,0,.477.8,3.255,3.255,0,0,0,1.031.756,6.881,6.881,0,0,1-.867,1.672,5.23,5.23,0,0,1-1.065,1.209,1.541,1.541,0,0,1-.911.357,2.829,2.829,0,0,1-.934-.222L9.205,13.7l-.3-.126a2.431,2.431,0,0,0-.7-.1,2.683,2.683,0,0,0-.886.174l-.231.086-.29.116a1.9,1.9,0,0,1-.693.135,2.236,2.236,0,0,1-1.571-1.026,7.56,7.56,0,0,1-1.267-2.207,6.937,6.937,0,0,1-.429-2.385,3.832,3.832,0,0,1,.882-2.582A2.986,2.986,0,0,1,6.111,4.757a2.634,2.634,0,0,1,1.031.2l.222.087.231.1a1.417,1.417,0,0,0,.492.125,1.456,1.456,0,0,0,.539-.106l.309-.115.221-.087a3.378,3.378,0,0,1,1.2-.2A3.028,3.028,0,0,1,12.847,5.952ZM10.4,2.011c.013.141.02.251.02.328a2.574,2.574,0,0,1-.347,1.233,2.628,2.628,0,0,1-.906.988,2.275,2.275,0,0,1-1.233.352A2.9,2.9,0,0,1,7.9,4.574a2.275,2.275,0,0,1,.3-1.074,2.959,2.959,0,0,1,.824-.959,2.61,2.61,0,0,1,1.176-.5Z"/></svg>