<svg width="16" height="16" viewBox="0 0 16 16" fill="none" xmlns="http://www.w3.org/2000/svg">
<path d="M15.873 4.20499C15.873 4.15999 15.873 4.11499 15.873 4.06899C15.8715 3.9685 15.8628 3.86824 15.847 3.76899C15.8301 3.67123 15.7988 3.57652 15.754 3.48799C15.7091 3.39928 15.6503 3.31827 15.58 3.24799C15.5093 3.17809 15.4284 3.11941 15.34 3.07399C15.2512 3.02913 15.1561 2.99778 15.058 2.98099C14.9588 2.9646 14.8585 2.95591 14.758 2.95499H1.236C1.13548 2.95591 1.03518 2.9646 0.936 2.98099C0.839032 2.99934 0.745337 3.03203 0.658 3.07799C0.569599 3.12341 0.488664 3.18209 0.418 3.25199C0.347658 3.32227 0.288927 3.40328 0.244 3.49199C0.199233 3.58052 0.167889 3.67523 0.151 3.77299C0.13521 3.87224 0.126521 3.9725 0.125 4.07299C0.125 4.11899 0.125 4.16399 0.125 4.20899V11.795C0.125 11.84 0.125 11.885 0.125 11.931C0.126521 12.0315 0.13521 12.1317 0.151 12.231C0.167889 12.3287 0.199233 12.4235 0.244 12.512C0.288927 12.6007 0.347658 12.6817 0.418 12.752C0.488664 12.8219 0.569599 12.8806 0.658 12.926C0.746813 12.9709 0.841874 13.0023 0.94 13.019C1.03912 13.0359 1.13946 13.0446 1.24 13.045H14.76C14.8605 13.0446 14.9609 13.0359 15.06 13.019C15.1581 13.0022 15.2532 12.9708 15.342 12.926C15.4304 12.8806 15.5113 12.8219 15.582 12.752C15.6523 12.6817 15.7111 12.6007 15.756 12.512C15.8008 12.4235 15.8321 12.3287 15.849 12.231C15.8648 12.1317 15.8735 12.0315 15.875 11.931C15.875 11.885 15.875 11.84 15.875 11.795V4.20499H15.873ZM15.537 11.789C15.537 11.832 15.537 11.875 15.537 11.918C15.5357 12.0004 15.5287 12.0826 15.516 12.164C15.5051 12.2295 15.4842 12.2929 15.454 12.352C15.425 12.4089 15.3872 12.4609 15.342 12.506C15.2968 12.5518 15.2445 12.59 15.187 12.619C15.1279 12.6489 15.0645 12.6695 14.999 12.68C14.9183 12.6928 14.8367 12.6999 14.755 12.701H1.245C1.16227 12.7 1.07971 12.693 0.998 12.68C0.932266 12.6694 0.868533 12.6488 0.809 12.619C0.752007 12.5897 0.700026 12.5516 0.655 12.506C0.609506 12.4611 0.571672 12.4091 0.543 12.352C0.512989 12.2924 0.492089 12.2287 0.481 12.163C0.467853 12.082 0.460833 12.0001 0.46 11.918C0.46 11.875 0.46 11.832 0.46 11.789V4.20799C0.46 4.16499 0.46 4.12199 0.46 4.07899C0.46083 3.99624 0.46785 3.91368 0.481 3.83199C0.492244 3.7666 0.513138 3.70324 0.543 3.64399C0.571672 3.58688 0.609506 3.53486 0.655 3.48999C0.7 3.44394 0.75239 3.40574 0.81 3.37699C0.869301 3.34746 0.932659 3.3269 0.998 3.31599C1.07976 3.30379 1.16233 3.29778 1.245 3.29799H14.751C14.8337 3.29778 14.9162 3.30379 14.998 3.31599C15.0636 3.32706 15.1273 3.34761 15.187 3.37699C15.2436 3.40651 15.2955 3.44425 15.341 3.48899C15.386 3.53467 15.4237 3.58694 15.453 3.64399C15.4833 3.70341 15.5042 3.76716 15.515 3.83299C15.5277 3.9144 15.5348 3.9966 15.536 4.07899C15.536 4.12099 15.536 4.16399 15.536 4.20799L15.537 11.789Z" fill="black"/>
<path d="M4.263 6.35999C4.40773 6.18718 4.47946 5.96479 4.463 5.73999C4.24063 5.76197 4.03551 5.86955 3.891 6.03999C3.81946 6.12169 3.76493 6.21683 3.73059 6.31985C3.69625 6.42287 3.68279 6.5317 3.691 6.63999C3.80143 6.64031 3.91046 6.61522 4.00964 6.56667C4.10883 6.51812 4.19551 6.4474 4.263 6.35999Z" fill="black"/>
<path d="M4.751 7.79799C4.75313 7.64978 4.79254 7.50449 4.86559 7.37551C4.93864 7.24654 5.04298 7.13803 5.169 7.05999C5.08831 6.94592 4.98253 6.85189 4.85978 6.78514C4.73703 6.71839 4.6006 6.68071 4.461 6.67499C4.142 6.65599 3.871 6.85599 3.719 6.85599C3.567 6.85599 3.334 6.68499 3.082 6.68899C2.91789 6.69285 2.75767 6.73966 2.6173 6.82476C2.47693 6.90986 2.36132 7.03027 2.282 7.17399C2.15199 7.49192 2.10605 7.83797 2.14861 8.17881C2.19117 8.51965 2.3208 8.84379 2.525 9.11999C2.686 9.35799 2.881 9.61999 3.138 9.61099C3.38 9.60099 3.476 9.45299 3.77 9.45299C4.064 9.45299 4.151 9.61099 4.407 9.60599C4.663 9.60099 4.84 9.36799 5.002 9.12999C5.11625 8.96124 5.20582 8.77705 5.268 8.58299C5.11532 8.5159 4.9853 8.40611 4.89357 8.26684C4.80185 8.12757 4.75233 7.96475 4.751 7.79799Z" fill="black"/>
<path d="M7.638 6.01199H6.298V9.58099H6.852V8.36199H7.618C7.77574 8.37078 7.93358 8.34646 8.08135 8.29058C8.22913 8.23471 8.36357 8.14852 8.47604 8.03757C8.5885 7.92661 8.67649 7.79334 8.73435 7.64633C8.79222 7.49932 8.81867 7.34183 8.812 7.18399C8.8196 7.02789 8.79442 6.87194 8.73808 6.72617C8.68175 6.5804 8.5955 6.44805 8.4849 6.33764C8.3743 6.22723 8.2418 6.14121 8.09594 6.08512C7.95007 6.02903 7.79408 6.00412 7.638 6.01199ZM7.489 7.89799H6.854V6.47899H7.492C7.59019 6.46563 7.69013 6.47436 7.78452 6.50454C7.87892 6.53471 7.96539 6.58557 8.03763 6.6534C8.10987 6.72124 8.16606 6.80434 8.20211 6.89665C8.23816 6.98896 8.25315 7.08815 8.246 7.18699C8.25333 7.28626 8.23838 7.38592 8.20225 7.47868C8.16611 7.57144 8.1097 7.65495 8.03714 7.7231C7.96458 7.79125 7.8777 7.84232 7.78286 7.87258C7.68803 7.90284 7.58762 7.91152 7.489 7.89799Z" fill="black"/>
<path d="M10.117 6.95899C9.87322 6.92778 9.627 6.99444 9.43226 7.14438C9.23752 7.29432 9.11014 7.51532 9.078 7.75899H9.578C9.60696 7.64531 9.67607 7.54594 9.77256 7.47922C9.86905 7.41251 9.98642 7.38294 10.103 7.39599C10.441 7.39599 10.632 7.55399 10.632 7.84299V8.04299L9.942 8.08499C9.299 8.12499 8.95 8.38499 8.95 8.84499C8.9518 8.95436 8.97647 9.06214 9.02242 9.16141C9.06838 9.26068 9.13459 9.34923 9.21681 9.42138C9.29904 9.49352 9.39545 9.54766 9.49985 9.58032C9.60424 9.61297 9.71432 9.62342 9.823 9.61099C9.98742 9.61588 10.1501 9.57617 10.2938 9.49606C10.4374 9.41595 10.5567 9.29843 10.639 9.15599H10.652V9.58399H11.164V7.80499C11.164 7.29099 10.751 6.95899 10.117 6.95899ZM10.632 8.61099C10.6289 8.69298 10.609 8.77346 10.5735 8.84745C10.538 8.92144 10.4878 8.98737 10.4258 9.04117C10.3639 9.09497 10.2916 9.13549 10.2133 9.16022C10.1351 9.18496 10.0526 9.19339 9.971 9.18499C9.677 9.18499 9.489 9.04399 9.489 8.82699C9.489 8.60999 9.67 8.47299 10.016 8.45099L10.632 8.41099V8.61099Z" fill="black"/>
<path d="M12.621 9.09799H12.609L11.956 6.98999H11.377L12.314 9.58999L12.265 9.74899C12.2475 9.85815 12.1898 9.9568 12.1031 10.0255C12.0165 10.0942 11.9073 10.1279 11.797 10.12C11.7425 10.1194 11.6881 10.1161 11.634 10.11V10.538C11.7052 10.5481 11.7771 10.5531 11.849 10.553C12.389 10.553 12.643 10.347 12.866 9.72199L13.838 6.99299H13.274L12.621 9.09799Z" fill="black"/>
</svg>
