<svg width="16" height="16" viewBox="0 0 16 16" fill="none" xmlns="http://www.w3.org/2000/svg">
<path d="M12.847 5.95468C12.4059 6.22981 12.0375 6.60697 11.7729 7.05432C11.5824 7.4253 11.4846 7.8369 11.4879 8.25391C11.484 8.57341 11.5413 8.89071 11.6569 9.1886C11.7743 9.47789 11.9352 9.74758 12.134 9.98834C12.4243 10.3059 12.7747 10.5628 13.165 10.7441C12.954 11.3383 12.6623 11.9007 12.298 12.4155C12.0075 12.871 11.6482 13.2787 11.2329 13.6241C10.9761 13.8389 10.6562 13.9641 10.3218 13.981C10.0001 13.9608 9.68421 13.8857 9.38778 13.7591L9.20476 13.7001L8.90474 13.5741C8.67752 13.5069 8.44167 13.4732 8.2047 13.4742C7.90164 13.4817 7.60204 13.5405 7.31864 13.6481L7.08763 13.7341L6.79761 13.85C6.57706 13.9379 6.34198 13.9837 6.10456 13.985C5.78398 13.938 5.47745 13.822 5.20618 13.6449C4.9349 13.4678 4.70536 13.2339 4.53346 12.9593C3.98942 12.3008 3.56099 11.5548 3.26638 10.7531C2.98453 9.98966 2.83931 9.18262 2.83735 8.36888C2.8046 7.42946 3.11854 6.5108 3.71941 5.78774C4.01453 5.44715 4.38297 5.17777 4.79708 4.99979C5.2112 4.82182 5.66025 4.73987 6.11056 4.76008C6.46419 4.75687 6.81485 4.82486 7.14163 4.96002L7.36364 5.04699L7.59466 5.14695C7.74981 5.21787 7.91649 5.2602 8.08669 5.27191C8.27147 5.2711 8.4544 5.23514 8.62573 5.16595L8.93475 5.05098L9.15576 4.96401C9.54039 4.82532 9.94701 4.75758 10.3558 4.76408C10.8358 4.75092 11.3119 4.85202 11.7451 5.05903C12.1782 5.26604 12.5559 5.57304 12.847 5.95468ZM10.3998 2.015C10.4128 2.15595 10.4198 2.26592 10.4198 2.34289C10.4099 2.77642 10.2906 3.20041 10.0728 3.57548C9.86129 3.97746 9.54912 4.31775 9.16676 4.56315C8.79799 4.7962 8.36996 4.91835 7.93368 4.91503C7.91575 4.80316 7.9044 4.69034 7.89968 4.57714C7.90903 4.19993 8.01214 3.83096 8.1997 3.5035C8.40208 3.12833 8.68318 2.8013 9.02375 2.54482C9.36829 2.28337 9.77243 2.11161 10.1998 2.04499L10.3998 2.015Z" fill="black"/>
</svg>
