<svg width="16" height="16" viewBox="0 0 16 16" fill="none" xmlns="http://www.w3.org/2000/svg">
<path d="M3.18099 9.00125C3.17187 8.99747 3.16168 8.9971 3.15231 9.00023C3.14294 9.00335 3.13501 9.00975 3.12999 9.01825C3.01718 9.18322 2.87037 9.32213 2.69942 9.42564C2.52848 9.52915 2.33736 9.59486 2.13891 9.61836C1.35385 9.62036 0.824804 8.95924 0.824804 7.97507C0.824804 7.10592 1.29084 6.47481 1.93489 6.47481C2.03943 6.47646 2.14071 6.5115 2.22391 6.57482L2.89197 7.07491C2.90013 7.08194 2.91021 7.08637 2.92091 7.08763C2.93161 7.08889 2.94244 7.08692 2.95201 7.08197C2.96158 7.07702 2.96945 7.06933 2.97461 7.05987C2.97977 7.05041 2.98199 7.03963 2.98097 7.0289V6.4558C2.98106 6.44565 2.97817 6.43569 2.97266 6.42716C2.96715 6.41863 2.95926 6.4119 2.94997 6.4078C2.68324 6.29041 2.39428 6.23207 2.10291 6.23676C1.8423 6.22596 1.58231 6.2697 1.33959 6.36519C1.09687 6.46068 0.876764 6.60582 0.69337 6.7913C0.509976 6.97678 0.367336 7.19853 0.274586 7.44233C0.181836 7.68613 0.14102 7.94662 0.154751 8.20711C0.137369 8.43901 0.167734 8.672 0.24397 8.89169C0.320206 9.11138 0.440691 9.3131 0.597977 9.48437C0.755264 9.65564 0.946007 9.79282 1.15841 9.88743C1.37082 9.98204 1.60037 10.0321 1.83288 10.0344C2.13435 10.0342 2.42827 9.9401 2.67381 9.76516C2.91934 9.59022 3.1043 9.34315 3.20299 9.05826C3.20717 9.04773 3.20723 9.03602 3.20315 9.02545C3.19907 9.01488 3.19116 9.00624 3.18099 9.00125Z" fill="black"/>
<path d="M5.8692 9.72938C5.86685 9.72703 5.86502 9.72421 5.86381 9.72111C5.86261 9.71801 5.86206 9.7147 5.8622 9.71138V7.94307C5.86244 7.84702 5.84265 7.75198 5.80411 7.66401C5.76557 7.57604 5.70912 7.49706 5.63836 7.43213C5.5676 7.36719 5.48408 7.31772 5.39313 7.28687C5.30218 7.25602 5.2058 7.24447 5.11014 7.25294C4.79307 7.27714 4.49189 7.40148 4.25008 7.60801L4.19607 7.64701H4.18907V6.02273C4.18896 6.01445 4.18703 6.0063 4.18339 5.99887C4.17976 5.99143 4.17453 5.98489 4.16807 5.97972C4.16154 5.97492 4.15403 5.97163 4.14607 5.97007C4.13812 5.96852 4.12992 5.96874 4.12206 5.97072C4.11606 5.97072 3.55802 6.05973 3.37501 6.10074C3.36489 6.10341 3.35578 6.10901 3.34884 6.11684C3.3419 6.12467 3.33743 6.13438 3.336 6.14475C3.33478 6.15538 3.33679 6.16613 3.34179 6.17559C3.34679 6.18505 3.35453 6.19278 3.364 6.19776C3.37101 6.19776 3.52002 6.29778 3.56402 6.32478C3.5721 6.32897 3.57888 6.33528 3.58364 6.34303C3.5884 6.35078 3.59095 6.35969 3.59102 6.36879V9.71438C3.58951 9.72038 3.58598 9.72567 3.58102 9.72938L3.38101 9.8664C3.37334 9.8737 3.36808 9.88317 3.36594 9.89353C3.3638 9.9039 3.36487 9.91467 3.36901 9.92441C3.37304 9.93432 3.37997 9.94277 3.3889 9.94866C3.39782 9.95455 3.40832 9.95761 3.41901 9.95742H4.35108C4.36119 9.9578 4.3712 9.95539 4.38002 9.95045C4.38884 9.9455 4.39613 9.93823 4.40109 9.92942C4.40507 9.91933 4.40586 9.90826 4.40336 9.89771C4.40085 9.88716 4.39518 9.87763 4.38709 9.8704L4.19407 9.72938C4.189 9.72435 4.18612 9.71752 4.18607 9.71038V7.92006C4.18595 7.91626 4.1867 7.91249 4.18826 7.90902C4.18982 7.90555 4.19215 7.90249 4.19507 7.90006C4.33763 7.76712 4.51535 7.67791 4.70711 7.64301C4.7761 7.63326 4.84638 7.63849 4.91316 7.65833C4.97995 7.67818 5.04168 7.71219 5.09414 7.75803C5.14728 7.80447 5.19 7.86163 5.21947 7.92576C5.24895 7.98988 5.26452 8.05952 5.26516 8.1301V9.71438C5.26512 9.72104 5.26263 9.72745 5.25815 9.73238L5.05814 9.87541C5.05086 9.88287 5.04594 9.89233 5.04401 9.90258C5.04207 9.91283 5.0432 9.92342 5.04726 9.93303C5.05132 9.94264 5.05812 9.95084 5.06681 9.9566C5.07551 9.96236 5.08571 9.96543 5.09614 9.96542H6.02222C6.03282 9.96583 6.04329 9.96298 6.05223 9.95726C6.06117 9.95154 6.06815 9.94322 6.07222 9.93342C6.07632 9.92343 6.07727 9.91242 6.07495 9.90188C6.07263 9.89133 6.06714 9.88175 6.05922 9.87441L5.8692 9.72938Z" fill="black"/>
<path d="M8.56242 9.06026C8.55199 9.05495 8.54001 9.05354 8.52864 9.05629C8.51727 9.05904 8.50725 9.06577 8.50041 9.07526C8.40786 9.21625 8.28526 9.33501 8.1414 9.42303C7.99755 9.51104 7.836 9.56614 7.66835 9.58435C7.0973 9.58435 6.71227 9.14328 6.68727 8.46016C6.68732 8.45301 6.69019 8.44618 6.69527 8.44115C6.7005 8.43565 6.70768 8.43242 6.71527 8.43215H8.52541C8.53338 8.43228 8.54128 8.43064 8.54854 8.42736C8.55581 8.42407 8.56225 8.41922 8.56742 8.41315C8.5728 8.40727 8.57684 8.40028 8.57926 8.39269C8.58168 8.38509 8.58241 8.37705 8.58142 8.36914C8.43141 7.63301 8.05038 7.24394 7.48133 7.24394C7.30038 7.25078 7.12268 7.29416 6.95894 7.37149C6.79519 7.44881 6.64879 7.55848 6.52854 7.69388C6.40829 7.82928 6.31668 7.98761 6.25922 8.15935C6.20177 8.3311 6.17966 8.51269 6.19423 8.6932C6.17853 8.86588 6.19952 9.03992 6.2558 9.20392C6.31208 9.36792 6.40239 9.51817 6.52081 9.64482C6.63923 9.77146 6.78308 9.87164 6.94292 9.93879C7.10277 10.0059 7.275 10.0385 7.44833 10.0344C7.71195 10.0281 7.96607 9.93475 8.17105 9.76883C8.37602 9.60292 8.52032 9.37382 8.58142 9.11727C8.58544 9.10684 8.58553 9.0953 8.58166 9.08481C8.5778 9.07432 8.57025 9.06559 8.56042 9.06026H8.56242ZM6.69627 8.21111C6.74727 7.73503 6.99629 7.45098 7.35432 7.45098C7.68135 7.45098 7.87136 7.67702 7.99137 8.20811C7.99153 8.21216 7.9907 8.21619 7.98896 8.21985C7.98722 8.22351 7.98461 8.22669 7.98137 8.22912C7.97899 8.23248 7.97585 8.23524 7.9722 8.23715C7.96854 8.23906 7.96449 8.24008 7.96037 8.24012H6.72327C6.71515 8.23918 6.70767 8.23526 6.70227 8.22912C6.69981 8.22626 6.69799 8.2229 6.69696 8.21927C6.69592 8.21565 6.69569 8.21184 6.69627 8.20811" fill="black"/>
<path d="M11.0636 9.16828C11.0539 9.16366 11.0429 9.16274 11.0326 9.16569C11.0223 9.16864 11.0134 9.17525 11.0076 9.18428L10.9966 9.19929C10.9328 9.32021 10.8364 9.42084 10.7183 9.48978C10.6002 9.55872 10.4652 9.59321 10.3286 9.58936C10.1885 9.58302 10.0513 9.54814 9.92521 9.48686C9.79915 9.42558 9.68693 9.33919 9.59544 9.23299C9.50395 9.12679 9.43512 9.00301 9.39317 8.86926C9.35122 8.7355 9.33703 8.59459 9.35148 8.45516C9.35148 7.89506 9.6515 7.45498 10.0405 7.45498C10.0645 7.45498 10.0885 7.45498 10.1125 7.45498C10.1618 7.46075 10.2087 7.47937 10.2485 7.50899L10.8316 7.94707C10.84 7.95219 10.8497 7.95489 10.8596 7.95489C10.8695 7.95489 10.8792 7.95219 10.8876 7.94707C10.8966 7.94299 10.9043 7.93637 10.9096 7.92803C10.9149 7.91968 10.9177 7.90996 10.9176 7.90006V7.42898C10.9178 7.41893 10.915 7.40905 10.9097 7.40053C10.9044 7.39201 10.8967 7.38522 10.8876 7.38097C10.6819 7.29036 10.4593 7.24434 10.2345 7.24594C10.0465 7.24268 9.85974 7.27862 9.68629 7.35148C9.51285 7.42434 9.35647 7.53252 9.22712 7.66913C9.09776 7.80574 8.99827 7.96779 8.93497 8.14496C8.87167 8.32213 8.84594 8.51054 8.85944 8.6982C8.84034 8.86568 8.85672 9.0353 8.90753 9.19603C8.95833 9.35675 9.04242 9.50497 9.15432 9.63103C9.26621 9.75709 9.40341 9.85817 9.55696 9.92767C9.71052 9.99718 9.87699 10.0336 10.0455 10.0344C10.2857 10.0426 10.5211 9.96658 10.7112 9.81958C10.9013 9.67257 11.0341 9.46379 11.0866 9.22929C11.0908 9.21836 11.0908 9.20625 11.0865 9.19533C11.0823 9.18442 11.0741 9.17548 11.0636 9.17028" fill="black"/>
<path d="M15.803 7.30295C15.7348 7.26867 15.6593 7.2515 15.583 7.25294C15.2953 7.30448 15.0371 7.46138 14.8589 7.69302H14.8539L14.8379 7.31796C14.8375 7.31007 14.8352 7.30238 14.8314 7.29546C14.8276 7.28854 14.8223 7.28256 14.8159 7.27795C14.8092 7.2735 14.8017 7.27049 14.7937 7.26911C14.7858 7.26774 14.7777 7.26802 14.7699 7.26995L14.0699 7.46998C14.0606 7.47271 14.0521 7.47785 14.0455 7.48488C14.0388 7.4919 14.0341 7.50056 14.0318 7.50999C14.0299 7.51915 14.0303 7.52867 14.0331 7.53761C14.0359 7.54656 14.041 7.55462 14.0478 7.561L14.2799 7.76903C14.2852 7.77438 14.2884 7.7815 14.2889 7.78904V9.71938C14.289 9.72278 14.2883 9.72617 14.2869 9.72928C14.2855 9.73239 14.2835 9.73516 14.2809 9.73738L14.1119 9.87441C14.1044 9.88185 14.0993 9.89131 14.0972 9.90162C14.0951 9.91192 14.096 9.92263 14.0999 9.93242C14.1038 9.9424 14.1107 9.95093 14.1196 9.95684C14.1286 9.96275 14.1391 9.96575 14.1499 9.96542H15.0389C15.0498 9.96568 15.0605 9.96256 15.0696 9.95651C15.0787 9.95045 15.0857 9.94174 15.0896 9.93156C15.0935 9.92139 15.0942 9.91025 15.0916 9.89966C15.089 9.88908 15.0832 9.87956 15.0749 9.87241L14.8949 9.73838C14.8921 9.73586 14.8898 9.73278 14.8883 9.72934C14.8867 9.72589 14.8859 9.72216 14.8859 9.71838V8.04008C14.886 8.01745 14.8915 7.99516 14.9019 7.97507C14.9488 7.89549 15.0127 7.8272 15.0889 7.77504C15.1243 7.74158 15.1668 7.71655 15.2132 7.70183C15.2596 7.68711 15.3088 7.68307 15.357 7.69002C15.4772 7.74467 15.5896 7.81532 15.691 7.90006C15.725 7.92606 15.752 7.94607 15.767 7.95507C15.7751 7.96024 15.7845 7.96315 15.7941 7.96349C15.8037 7.96382 15.8133 7.96158 15.8217 7.95699C15.8302 7.9524 15.8373 7.94563 15.8423 7.93737C15.8472 7.92912 15.8499 7.91969 15.85 7.91006V7.36696C15.85 7.35361 15.8463 7.34052 15.8392 7.3292C15.8321 7.31788 15.822 7.30878 15.81 7.30295" fill="black"/>
<path d="M12.6027 8.28213C12.6027 8.27612 12.6097 8.26412 12.6237 8.25212L13.5538 7.39997C13.5617 7.39226 13.5666 7.38202 13.5677 7.37105C13.5688 7.36008 13.566 7.34908 13.5598 7.33996C13.5552 7.33401 13.5493 7.3292 13.5425 7.32591C13.5358 7.32261 13.5283 7.32092 13.5208 7.32096H12.8488C12.8407 7.32101 12.8327 7.32272 12.8253 7.32599C12.8179 7.32926 12.8112 7.33401 12.8058 7.33996C12.7982 7.3495 12.7941 7.3613 12.7941 7.37347C12.7941 7.38563 12.7982 7.39743 12.8058 7.40697L12.9818 7.63901C12.986 7.64406 12.9883 7.65043 12.9883 7.65701C12.9883 7.6636 12.986 7.66997 12.9818 7.67502L12.0037 8.57518V6.01873C12.0035 6.0105 12.0015 6.00242 11.9976 5.99512C11.9938 5.98783 11.9884 5.98153 11.9817 5.97672C11.9753 5.97155 11.9679 5.96795 11.9599 5.96621C11.9519 5.96448 11.9436 5.96465 11.9357 5.96672C11.9357 5.96672 11.3716 6.05573 11.1886 6.09674C11.1784 6.09939 11.1693 6.10514 11.1625 6.1132C11.1557 6.12126 11.1515 6.13124 11.1506 6.14175C11.1488 6.1523 11.1506 6.16315 11.1557 6.17257C11.1608 6.18199 11.1688 6.18945 11.1786 6.19376C11.1846 6.19376 11.3236 6.29377 11.3786 6.31878C11.3869 6.32304 11.3938 6.32951 11.3985 6.33746C11.4033 6.3454 11.4058 6.35452 11.4056 6.36379V9.70538C11.4058 9.70855 11.4052 9.71171 11.404 9.71464C11.4028 9.71758 11.401 9.72022 11.3986 9.72238L11.1986 9.8654C11.1908 9.87325 11.1856 9.88336 11.1838 9.8943C11.182 9.90525 11.1837 9.91648 11.1886 9.92642C11.1935 9.93568 11.2008 9.9434 11.2098 9.9487C11.2189 9.95401 11.2292 9.95668 11.2396 9.95642H12.1657C12.1763 9.95634 12.1867 9.95318 12.1956 9.94732C12.2045 9.94147 12.2115 9.93316 12.2157 9.92341C12.2197 9.91333 12.2205 9.90226 12.218 9.89171C12.2155 9.88116 12.2098 9.87163 12.2017 9.8644L12.0067 9.72938C12.0016 9.72435 11.9987 9.71752 11.9987 9.71038V8.84422C11.9987 8.83708 12.0016 8.83025 12.0067 8.82522L12.1957 8.64319C12.1982 8.64006 12.2014 8.63753 12.2051 8.63579C12.2087 8.63406 12.2127 8.63316 12.2167 8.63316C12.2207 8.63316 12.2247 8.63406 12.2283 8.63579C12.232 8.63753 12.2352 8.64006 12.2377 8.64319C12.2437 8.65019 12.7737 9.37932 13.0378 9.74338C13.0402 9.74597 13.0415 9.74936 13.0415 9.75288C13.0415 9.75641 13.0402 9.7598 13.0378 9.76239L12.9068 9.8704C12.8988 9.87813 12.8934 9.88818 12.8914 9.89913C12.8894 9.91008 12.891 9.92138 12.8958 9.93142C12.9007 9.94061 12.9081 9.94826 12.9171 9.95356C12.9261 9.95885 12.9363 9.96157 12.9468 9.96142H13.8098C13.8368 9.96142 13.8478 9.94942 13.8518 9.93942C13.8558 9.92942 13.8428 9.88341 13.8278 9.8674L12.6027 8.28213Z" fill="black"/>
</svg>
