<svg width="16" height="16" viewBox="0 0 16 16" fill="none" xmlns="http://www.w3.org/2000/svg">
<path d="M3.18102 9.00122C3.1719 8.99744 3.16171 8.99707 3.15234 9.0002C3.14297 9.00332 3.13505 9.00972 3.13002 9.01822C3.01721 9.18319 2.8704 9.3221 2.69946 9.42561C2.52851 9.52912 2.33739 9.59483 2.13894 9.61833C1.35388 9.62033 0.824835 8.95921 0.824835 7.97504C0.824835 7.10589 1.29087 6.47478 1.93492 6.47478C2.03947 6.47643 2.14074 6.51147 2.22395 6.57479L2.892 7.07488C2.90016 7.08191 2.91024 7.08634 2.92094 7.0876C2.93164 7.08886 2.94247 7.08688 2.95204 7.08194C2.96161 7.07699 2.96948 7.0693 2.97464 7.05984C2.9798 7.05038 2.98202 7.0396 2.98101 7.02887V6.45577C2.98109 6.44562 2.9782 6.43566 2.97269 6.42713C2.96718 6.4186 2.95929 6.41187 2.95 6.40776C2.68327 6.29038 2.39432 6.23204 2.10294 6.23673C1.84233 6.22593 1.58234 6.26967 1.33962 6.36516C1.0969 6.46065 0.876794 6.60579 0.6934 6.79127C0.510006 6.97675 0.367367 7.1985 0.274616 7.4423C0.181866 7.6861 0.14105 7.94659 0.154782 8.20708C0.137399 8.43898 0.167765 8.67197 0.244 8.89166C0.320236 9.11135 0.440722 9.31307 0.598008 9.48434C0.755294 9.65561 0.946037 9.79279 1.15844 9.8874C1.37085 9.98201 1.6004 10.032 1.83291 10.0344C2.13439 10.0342 2.4283 9.94007 2.67384 9.76513C2.91937 9.59019 3.10433 9.34312 3.20302 9.05823C3.2072 9.0477 3.20726 9.03599 3.20318 9.02542C3.1991 9.01485 3.19119 9.00621 3.18102 9.00122Z" fill="black"/>
<path d="M5.86923 9.72935C5.86688 9.727 5.86505 9.72418 5.86384 9.72108C5.86264 9.71798 5.86209 9.71467 5.86223 9.71135V7.94304C5.86247 7.84699 5.84269 7.75195 5.80414 7.66398C5.7656 7.57601 5.70915 7.49703 5.63839 7.4321C5.56763 7.36716 5.48411 7.31769 5.39316 7.28684C5.30221 7.25599 5.20584 7.24443 5.11017 7.25291C4.7931 7.27711 4.49192 7.40145 4.25011 7.60798L4.1961 7.64698H4.1891V6.0227C4.18899 6.01442 4.18706 6.00627 4.18342 5.99884C4.17979 5.9914 4.17456 5.98486 4.1681 5.97969C4.16157 5.97489 4.15406 5.9716 4.1461 5.97004C4.13815 5.96849 4.12995 5.96871 4.1221 5.97069C4.11609 5.97069 3.55805 6.0597 3.37504 6.10071C3.36492 6.10338 3.35581 6.10898 3.34887 6.11681C3.34193 6.12464 3.33747 6.13435 3.33603 6.14472C3.33481 6.15535 3.33682 6.1661 3.34182 6.17556C3.34682 6.18502 3.35456 6.19275 3.36404 6.19773C3.37104 6.19773 3.52005 6.29775 3.56405 6.32475C3.57213 6.32893 3.57891 6.33524 3.58367 6.343C3.58843 6.35075 3.59098 6.35966 3.59105 6.36876V9.71435C3.58954 9.72035 3.58601 9.72564 3.58105 9.72935L3.38104 9.86637C3.37337 9.87367 3.36812 9.88314 3.36597 9.8935C3.36383 9.90387 3.3649 9.91464 3.36904 9.92438C3.37307 9.93429 3.38 9.94274 3.38893 9.94863C3.39785 9.95452 3.40835 9.95757 3.41904 9.95739H4.35111C4.36122 9.95777 4.37123 9.95536 4.38005 9.95041C4.38887 9.94547 4.39616 9.9382 4.40112 9.92938C4.4051 9.9193 4.40589 9.90823 4.40339 9.89768C4.40089 9.88713 4.39521 9.8776 4.38712 9.87037L4.1941 9.72935C4.18903 9.72432 4.18615 9.71749 4.1861 9.71035V7.92003C4.18598 7.91623 4.18673 7.91246 4.18829 7.90899C4.18985 7.90552 4.19218 7.90246 4.1951 7.90003C4.33766 7.76709 4.51538 7.67788 4.70714 7.64298C4.77613 7.63323 4.84641 7.63845 4.91319 7.6583C4.97998 7.67815 5.04171 7.71216 5.09417 7.758C5.14732 7.80444 5.19003 7.8616 5.2195 7.92573C5.24898 7.98985 5.26455 8.05949 5.26519 8.13007V9.71435C5.26515 9.72101 5.26266 9.72742 5.25819 9.73235L5.05817 9.87538C5.05089 9.88284 5.04597 9.8923 5.04404 9.90255C5.0421 9.9128 5.04323 9.92339 5.04729 9.933C5.05135 9.94261 5.05815 9.95081 5.06684 9.95657C5.07554 9.96233 5.08574 9.9654 5.09617 9.96539H6.02225C6.03285 9.9658 6.04332 9.96295 6.05226 9.95723C6.0612 9.95151 6.06818 9.94319 6.07225 9.93339C6.07635 9.9234 6.0773 9.91239 6.07498 9.90185C6.07266 9.8913 6.06717 9.88172 6.05925 9.87438L5.86923 9.72935Z" fill="black"/>
<path d="M8.56245 9.06023C8.55202 9.05492 8.54004 9.05351 8.52867 9.05626C8.5173 9.05901 8.50728 9.06574 8.50044 9.07523C8.40789 9.21622 8.28529 9.33498 8.14143 9.423C7.99758 9.51101 7.83603 9.56611 7.66838 9.58432C7.09733 9.58432 6.7123 9.14325 6.6873 8.46013C6.68735 8.45298 6.69022 8.44615 6.6953 8.44112C6.70053 8.43562 6.70771 8.43239 6.7153 8.43212H8.52544C8.53341 8.43225 8.54131 8.43061 8.54857 8.42733C8.55584 8.42404 8.56228 8.41919 8.56745 8.41312C8.57283 8.40724 8.57687 8.40025 8.57929 8.39265C8.58171 8.38506 8.58244 8.37702 8.58145 8.36911C8.43144 7.63298 8.05041 7.24391 7.48136 7.24391C7.30041 7.25075 7.12271 7.29413 6.95897 7.37146C6.79522 7.44878 6.64882 7.55845 6.52857 7.69385C6.40832 7.82925 6.31671 7.98758 6.25925 8.15932C6.2018 8.33106 6.17969 8.51266 6.19426 8.69317C6.17856 8.86585 6.19955 9.03989 6.25583 9.20389C6.31211 9.36789 6.40242 9.51814 6.52084 9.64479C6.63926 9.77143 6.78311 9.87161 6.94295 9.93876C7.1028 10.0059 7.27503 10.0385 7.44836 10.0344C7.71198 10.0281 7.9661 9.93472 8.17108 9.7688C8.37605 9.60289 8.52035 9.37379 8.58145 9.11724C8.58547 9.10681 8.58556 9.09527 8.58169 9.08478C8.57783 9.07429 8.57028 9.06556 8.56045 9.06023H8.56245ZM6.6963 8.21108C6.7473 7.735 6.99632 7.45095 7.35435 7.45095C7.68138 7.45095 7.87139 7.67699 7.9914 8.20808C7.99156 8.21213 7.99073 8.21616 7.98899 8.21982C7.98725 8.22348 7.98464 8.22666 7.9814 8.22909C7.97902 8.23245 7.97588 8.23521 7.97223 8.23712C7.96858 8.23903 7.96452 8.24005 7.9604 8.24009H6.7233C6.71518 8.23915 6.7077 8.23523 6.7023 8.22909C6.69984 8.22623 6.69802 8.22287 6.69699 8.21924C6.69595 8.21562 6.69572 8.21181 6.6963 8.20808" fill="black"/>
<path d="M11.0636 9.16825C11.054 9.16363 11.0429 9.16271 11.0326 9.16566C11.0223 9.16861 11.0134 9.17522 11.0076 9.18425L10.9966 9.19926C10.9328 9.32018 10.8364 9.42081 10.7183 9.48975C10.6003 9.55869 10.4653 9.59318 10.3286 9.58933C10.1886 9.58299 10.0513 9.54811 9.92525 9.48683C9.79918 9.42555 9.68696 9.33916 9.59547 9.23296C9.50399 9.12676 9.43515 9.00298 9.3932 8.86923C9.35125 8.73547 9.33706 8.59456 9.35151 8.45512C9.35151 7.89503 9.65153 7.45495 10.0406 7.45495C10.0646 7.45495 10.0886 7.45495 10.1126 7.45495C10.1619 7.46072 10.2088 7.47934 10.2486 7.50896L10.8316 7.94704C10.8401 7.95216 10.8498 7.95486 10.8596 7.95486C10.8695 7.95486 10.8792 7.95216 10.8876 7.94704C10.8967 7.94296 10.9043 7.93634 10.9096 7.928C10.915 7.91965 10.9177 7.90993 10.9176 7.90003V7.42894C10.9178 7.4189 10.9151 7.40902 10.9097 7.4005C10.9044 7.39198 10.8967 7.38519 10.8876 7.38094C10.6819 7.29033 10.4594 7.24431 10.2346 7.24591C10.0465 7.24265 9.85977 7.27859 9.68632 7.35145C9.51288 7.42431 9.3565 7.53249 9.22715 7.6691C9.09779 7.80571 8.9983 7.96776 8.935 8.14493C8.8717 8.3221 8.84597 8.51051 8.85947 8.69817C8.84037 8.86565 8.85675 9.03527 8.90756 9.196C8.95836 9.35672 9.04245 9.50494 9.15435 9.631C9.26625 9.75706 9.40344 9.85814 9.55699 9.92764C9.71055 9.99715 9.87702 10.0335 10.0456 10.0344C10.2857 10.0425 10.5212 9.96655 10.7113 9.81955C10.9013 9.67254 11.0341 9.46376 11.0866 9.22926C11.0909 9.21833 11.0908 9.20622 11.0866 9.1953C11.0823 9.18439 11.0741 9.17545 11.0636 9.17025" fill="black"/>
<path d="M15.803 7.30292C15.7348 7.26864 15.6593 7.25147 15.583 7.25291C15.2953 7.30445 15.0372 7.46135 14.8589 7.69299H14.8539L14.8379 7.31792C14.8375 7.31004 14.8353 7.30235 14.8315 7.29543C14.8277 7.28851 14.8224 7.28253 14.8159 7.27792C14.8092 7.27347 14.8017 7.27046 14.7938 7.26908C14.7859 7.26771 14.7777 7.26799 14.7699 7.26992L14.0699 7.46995C14.0606 7.47268 14.0522 7.47782 14.0455 7.48484C14.0388 7.49187 14.0341 7.50053 14.0319 7.50996C14.0299 7.51912 14.0303 7.52864 14.0331 7.53758C14.0359 7.54653 14.041 7.55458 14.0479 7.56097L14.2799 7.769C14.2852 7.77435 14.2884 7.78147 14.2889 7.78901V9.71935C14.289 9.72275 14.2883 9.72614 14.2869 9.72925C14.2855 9.73236 14.2835 9.73513 14.2809 9.73735L14.1119 9.87438C14.1045 9.88182 14.0994 9.89128 14.0972 9.90159C14.0951 9.91189 14.096 9.9226 14.0999 9.93239C14.1038 9.94237 14.1107 9.9509 14.1197 9.95681C14.1286 9.96272 14.1392 9.96572 14.1499 9.96539H15.039C15.0499 9.96565 15.0606 9.96253 15.0696 9.95647C15.0787 9.95042 15.0857 9.9417 15.0896 9.93153C15.0936 9.92136 15.0943 9.91022 15.0916 9.89963C15.089 9.88905 15.0832 9.87953 15.075 9.87238L14.8949 9.73835C14.8921 9.73583 14.8899 9.73275 14.8883 9.7293C14.8868 9.72586 14.886 9.72213 14.8859 9.71835V8.04005C14.886 8.01742 14.8915 7.99513 14.9019 7.97504C14.9489 7.89546 15.0127 7.82717 15.089 7.77501C15.1243 7.74155 15.1668 7.71652 15.2132 7.7018C15.2597 7.68708 15.3088 7.68304 15.357 7.68999C15.4773 7.74464 15.5896 7.81529 15.691 7.90003C15.725 7.92603 15.752 7.94604 15.767 7.95504C15.7751 7.96021 15.7845 7.96312 15.7941 7.96345C15.8038 7.96379 15.8133 7.96155 15.8218 7.95696C15.8302 7.95237 15.8373 7.9456 15.8423 7.93734C15.8473 7.92909 15.8499 7.91966 15.85 7.91003V7.36693C15.85 7.35358 15.8463 7.34049 15.8392 7.32917C15.8322 7.31785 15.822 7.30875 15.81 7.30292" fill="black"/>
<path d="M12.6028 8.28209C12.6028 8.27609 12.6098 8.26409 12.6238 8.25209L13.5538 7.39994C13.5617 7.39223 13.5666 7.38199 13.5677 7.37102C13.5688 7.36005 13.566 7.34905 13.5598 7.33993C13.5552 7.33398 13.5493 7.32917 13.5426 7.32588C13.5358 7.32258 13.5284 7.32089 13.5208 7.32093H12.8488C12.8407 7.32098 12.8327 7.32269 12.8253 7.32596C12.8179 7.32923 12.8113 7.33398 12.8058 7.33993C12.7982 7.34947 12.7941 7.36127 12.7941 7.37343C12.7941 7.3856 12.7982 7.3974 12.8058 7.40694L12.9818 7.63898C12.986 7.64403 12.9883 7.6504 12.9883 7.65698C12.9883 7.66357 12.986 7.66994 12.9818 7.67499L12.0037 8.57515V6.0187C12.0036 6.01047 12.0015 6.00239 11.9977 5.99509C11.9939 5.9878 11.9884 5.9815 11.9817 5.97669C11.9754 5.97152 11.9679 5.96792 11.9599 5.96618C11.9519 5.96445 11.9436 5.96462 11.9357 5.96669C11.9357 5.96669 11.3717 6.0557 11.1887 6.09671C11.1784 6.09936 11.1693 6.10511 11.1625 6.11317C11.1557 6.12123 11.1516 6.13121 11.1507 6.14172C11.1489 6.15227 11.1506 6.16312 11.1557 6.17254C11.1608 6.18196 11.1689 6.18942 11.1787 6.19373C11.1847 6.19373 11.3237 6.29374 11.3787 6.31875C11.3869 6.32301 11.3938 6.32948 11.3985 6.33742C11.4033 6.34537 11.4058 6.35449 11.4057 6.36376V9.70535C11.4058 9.70852 11.4052 9.71168 11.404 9.71461C11.4028 9.71755 11.401 9.72019 11.3987 9.72235L11.1987 9.86537C11.1908 9.87322 11.1856 9.88332 11.1838 9.89427C11.182 9.90521 11.1837 9.91645 11.1887 9.92638C11.1935 9.93565 11.2009 9.94337 11.2099 9.94867C11.2189 9.95398 11.2292 9.95665 11.2397 9.95639H12.1657C12.1764 9.95631 12.1867 9.95315 12.1956 9.94729C12.2045 9.94144 12.2115 9.93313 12.2157 9.92338C12.2197 9.9133 12.2205 9.90223 12.218 9.89168C12.2155 9.88113 12.2098 9.8716 12.2017 9.86437L12.0067 9.72935C12.0016 9.72432 11.9988 9.71749 11.9987 9.71035V8.84419C11.9988 8.83705 12.0016 8.83022 12.0067 8.82519L12.1957 8.64316C12.1983 8.64003 12.2015 8.6375 12.2051 8.63576C12.2087 8.63403 12.2127 8.63313 12.2167 8.63313C12.2208 8.63313 12.2247 8.63403 12.2284 8.63576C12.232 8.6375 12.2352 8.64003 12.2377 8.64316C12.2437 8.65016 12.7738 9.37929 13.0378 9.74335C13.0402 9.74594 13.0415 9.74933 13.0415 9.75285C13.0415 9.75638 13.0402 9.75977 13.0378 9.76236L12.9068 9.87037C12.8988 9.8781 12.8934 9.88815 12.8914 9.8991C12.8895 9.91005 12.891 9.92135 12.8958 9.93139C12.9007 9.94058 12.9081 9.94823 12.9171 9.95353C12.9261 9.95882 12.9364 9.96154 12.9468 9.96139H13.8099C13.8369 9.96139 13.8479 9.94939 13.8519 9.93939C13.8559 9.92938 13.8429 9.88338 13.8279 9.86737L12.6028 8.28209Z" fill="black"/>
</svg>
