<svg width="16" height="16" viewBox="0 0 16 16" fill="none" xmlns="http://www.w3.org/2000/svg">
<path fill-rule="evenodd" clip-rule="evenodd" d="M8.04807 4.658C8.18107 4.658 15.071 4.652 15.071 4.652C14.4338 3.32401 13.439 2.19981 12.1984 1.40551C10.9577 0.611218 9.52016 0.178258 8.04707 0.155207C6.85579 0.147185 5.67834 0.410579 4.60407 0.925398C3.52981 1.44022 2.58697 2.19293 1.84712 3.12641L4.5681 7.85714C4.58611 7.41852 4.69045 6.98775 4.87515 6.58949C5.05986 6.19122 5.3213 5.83328 5.64453 5.53614C5.96775 5.239 6.34641 5.00849 6.75884 4.85781C7.17127 4.70713 7.60937 4.63923 8.04807 4.658V4.658ZM8.01307 11.4302C7.31116 11.4266 6.62685 11.2102 6.05065 10.8094C5.47445 10.4087 5.0335 9.8425 4.7861 9.18579L4.7621 9.19678L1.52513 3.56629C0.7699 4.66693 0.308287 5.94213 0.184031 7.27106C0.0597736 8.59998 0.276988 9.93862 0.81509 11.1601C1.35319 12.3816 2.19436 13.4455 3.25889 14.2511C4.32342 15.0566 5.57605 15.577 6.89808 15.763L9.60906 11.0553C9.11487 11.3065 8.56745 11.4351 8.01307 11.4302V11.4302ZM15.275 5.05489L9.85806 5.0459C10.2793 5.3084 10.6391 5.65849 10.9129 6.07237C11.1868 6.48626 11.3683 6.95424 11.4452 7.44451C11.522 7.93477 11.4924 8.43584 11.3583 8.91363C11.2242 9.39143 10.9888 9.83477 10.6681 10.2135L7.46108 15.826C7.63408 15.838 7.80808 15.845 7.98407 15.845C9.271 15.8484 10.539 15.5353 11.6763 14.9332C12.8136 14.3311 13.7853 13.4585 14.5057 12.3924C15.2261 11.3263 15.6731 10.0993 15.8072 8.81972C15.9414 7.54013 15.7586 6.24719 15.275 5.05489V5.05489ZM5.0921 7.93112C5.08835 8.51038 5.25653 9.07774 5.57538 9.56141C5.89422 10.0451 6.3494 10.4234 6.88332 10.6484C7.41724 10.8734 8.00592 10.935 8.57489 10.8255C9.14386 10.7159 9.66754 10.4401 10.0797 10.033C10.4918 9.62582 10.7739 9.10561 10.8903 8.53814C11.0067 7.97068 10.9521 7.38145 10.7334 6.84502C10.5147 6.30858 10.1419 5.84903 9.66189 5.52451C9.18194 5.19999 8.61648 5.02508 8.03707 5.0219C7.26069 5.01738 6.5143 5.32132 5.96204 5.86688C5.40978 6.41244 5.09686 7.15495 5.0921 7.93112V7.93112Z" fill="black"/>
</svg>
