<svg width="16" height="16" viewBox="0 0 16 16" fill="none" xmlns="http://www.w3.org/2000/svg">
<path fill-rule="evenodd" clip-rule="evenodd" d="M8.0481 4.65797C8.1811 4.65797 15.071 4.65197 15.071 4.65197C14.4338 3.32398 13.4391 2.19978 12.1984 1.40548C10.9577 0.611188 9.52019 0.178227 8.0471 0.155177C6.85582 0.147155 5.67837 0.410549 4.6041 0.925368C3.52984 1.44019 2.58701 2.1929 1.84715 3.12638L4.56813 7.85711C4.58614 7.41849 4.69048 6.98772 4.87518 6.58946C5.05989 6.19119 5.32133 5.83325 5.64456 5.53611C5.96778 5.23897 6.34644 5.00846 6.75887 4.85778C7.1713 4.7071 7.6094 4.6392 8.0481 4.65797ZM8.0131 11.4302C7.31119 11.4266 6.62688 11.2101 6.05068 10.8094C5.47448 10.4086 5.03353 9.84247 4.78613 9.18576L4.76213 9.19675L1.52516 3.56626C0.76993 4.6669 0.308318 5.9421 0.184061 7.27103C0.0598041 8.59995 0.277018 9.93859 0.815121 11.1601C1.35322 12.3816 2.19439 13.4455 3.25892 14.251C4.32345 15.0565 5.57608 15.577 6.89811 15.763L9.60909 11.0553C9.1149 11.3065 8.56748 11.4351 8.0131 11.4302ZM15.275 5.05486L9.85809 5.04587C10.2793 5.30837 10.6391 5.65846 10.913 6.07234C11.1868 6.48623 11.3684 6.95421 11.4452 7.44448C11.5221 7.93474 11.4924 8.43581 11.3583 8.9136C11.2242 9.3914 10.9888 9.83474 10.6681 10.2135L7.46111 15.826C7.63411 15.838 7.80811 15.845 7.9841 15.845C9.27103 15.8484 10.539 15.5353 11.6764 14.9332C12.8137 14.3311 13.7854 13.4585 14.5058 12.3924C15.2261 11.3262 15.6731 10.0993 15.8073 8.81969C15.9414 7.5401 15.7587 6.24716 15.275 5.05486ZM5.09213 7.93109C5.08838 8.51035 5.25656 9.0777 5.57541 9.56138C5.89425 10.0451 6.34943 10.4233 6.88335 10.6483C7.41727 10.8733 8.00595 10.935 8.57492 10.8254C9.14389 10.7159 9.66757 10.4401 10.0797 10.0329C10.4919 9.62579 10.774 9.10558 10.8903 8.53811C11.0067 7.97065 10.9521 7.38142 10.7334 6.84498C10.5148 6.30855 10.1419 5.849 9.66192 5.52448C9.18197 5.19996 8.61652 5.02505 8.0371 5.02187C7.26072 5.01735 6.51433 5.32129 5.96207 5.86685C5.40981 6.41241 5.09689 7.15492 5.09213 7.93109Z" fill="black"/>
</svg>
