<svg width="16" height="16" viewBox="0 0 16 16" fill="none" xmlns="http://www.w3.org/2000/svg">
<path d="M12.0808 4.99298C11.962 4.837 11.809 4.71056 11.6338 4.62341C11.4586 4.53627 11.2658 4.49075 11.0702 4.49038H9.76349V4.00084H10.5319C10.8635 4.003 11.1825 3.87341 11.4194 3.64031C11.6563 3.40721 11.7919 3.0895 11.7967 2.7564L11.8047 1.24859C11.8031 1.08254 11.7689 0.91844 11.704 0.765711C11.6391 0.612982 11.5448 0.474638 11.4266 0.358627C11.3083 0.242616 11.1684 0.151224 11.0149 0.0897019C10.8613 0.0281796 10.6972 -0.00226036 10.5319 0.000130687H9.24719C9.21517 0.000130687 9.16815 0.000130687 9.11011 0.000130687C8.45142 -0.00291514 7.80335 0.166867 7.23003 0.492681C6.73261 0.789847 6.32665 1.21939 6.05701 1.73383C5.78738 2.24827 5.66457 2.82759 5.70215 3.40777V4.49339H4.92871C4.59475 4.49254 4.27384 4.62359 4.03519 4.85828C3.91814 4.9743 3.82516 5.11248 3.76161 5.26483C3.69806 5.41719 3.66522 5.58069 3.66498 5.74587V7.24664C3.66946 7.58097 3.80577 7.89986 4.044 8.13335C4.28222 8.36683 4.60291 8.49585 4.93571 8.49209H5.69815V14.7505C5.70132 15.0847 5.83639 15.404 6.07371 15.6383C6.31102 15.8726 6.63118 16.0026 6.96388 16H8.48975C8.82228 16.0024 9.14218 15.8722 9.37928 15.6379C9.61638 15.4037 9.75131 15.0845 9.75448 14.7505V8.49209H10.711C10.9836 8.49233 11.249 8.40451 11.4681 8.24161C11.6872 8.07871 11.8483 7.84935 11.9277 7.58741L12.2829 6.09971C12.339 5.91235 12.35 5.71428 12.3148 5.52184C12.2797 5.3294 12.1995 5.14812 12.0808 4.99298V4.99298ZM10.711 7.24363H8.48975V14.7505H6.96388V7.24363H4.93571V5.74286H6.96388V3.40878C6.94243 3.11975 6.98322 2.82948 7.08347 2.55771C7.18372 2.28595 7.34109 2.03908 7.54484 1.8339C7.7486 1.62872 7.99397 1.47006 8.26425 1.36871C8.53453 1.26736 8.82337 1.22571 9.11111 1.24658C9.17115 1.24658 9.21117 1.24658 9.21117 1.24658H10.5319V2.75137H9.20817C8.48175 2.75137 8.49876 3.36153 8.49876 3.36153V5.74286H11.0702L10.711 7.24363Z" fill="black"/>
</svg>
