<svg width="16" height="16" viewBox="0 0 16 16" fill="none" xmlns="http://www.w3.org/2000/svg">
<path fill-rule="evenodd" clip-rule="evenodd" d="M14.4186 3.57469L14.2257 2.80093L14.3376 2.76594C15.1965 3.82461 15.2665 5.16519 15.5154 6.49377C15.5634 6.28483 15.6024 6.11289 15.6414 5.94194H15.7074C15.7394 6.01153 15.7616 6.0852 15.7734 6.16087C15.898 8.43989 15.3204 10.7023 14.1187 12.6428C13.5812 13.452 12.8779 14.1379 12.0553 14.6549C11.2328 15.1719 10.3098 15.5083 9.34748 15.6419C7.71138 15.9776 6.00953 15.7386 4.52929 14.9651C3.49591 14.3982 2.6018 13.6083 1.91192 12.6528C1.22203 11.6972 0.753708 10.6 0.540966 9.44084C0.532967 9.40485 0.51697 9.37086 0.491974 9.29888L0.353998 9.51481V7.39648L0.210022 7.44747C0.237375 7.20244 0.283164 6.95983 0.346999 6.7217C0.585958 6.04091 0.857913 5.37112 1.10387 4.69134C1.16586 4.50785 1.19629 4.31518 1.19386 4.12152C1.16437 3.42832 1.33106 2.74087 1.67477 2.13814C1.78127 1.98648 1.8975 1.84189 2.02272 1.70528L2.40365 2.71996C3.17121 1.84088 4.13755 1.15768 5.22233 0.727171C6.30712 0.296659 7.47901 0.131265 8.6406 0.244738C9.77978 0.376964 10.8799 0.740543 11.8735 1.31316C12.8671 1.88578 13.7332 2.65537 14.4186 3.57469ZM11.6121 1.6433C10.2005 0.765299 8.51868 0.42827 6.87776 0.69458C5.23683 0.960891 3.74793 1.81251 2.6866 3.09184C2.86279 3.12513 3.04071 3.14849 3.21951 3.16182C3.61945 3.16882 4.02738 3.17082 4.43131 3.15182C4.57855 3.1528 4.72235 3.10732 4.84224 3.02186C5.30694 2.63362 5.8739 2.38784 6.47496 2.31409C6.57606 2.31345 6.67684 2.32554 6.77491 2.35007C6.50774 2.60763 6.26042 2.885 6.03504 3.17981C5.55312 3.91758 5.88406 4.54738 6.74692 4.57937C6.96188 4.58837 7.17884 4.57937 7.39381 4.57937C7.84373 4.58937 7.97471 4.8003 7.76275 5.21417C7.6816 5.34884 7.57166 5.46389 7.4408 5.55106C7.16885 5.751 6.88589 5.93894 6.60094 6.11989C6.5014 6.18013 6.4247 6.27173 6.38289 6.38031C6.34109 6.48888 6.33654 6.60826 6.36998 6.7197C6.41197 6.96762 6.41797 7.21954 6.44597 7.54244C6.259 7.48046 6.14602 7.45147 6.03904 7.40448C5.92442 7.33401 5.78728 7.30978 5.65545 7.3367C5.52362 7.36362 5.40697 7.43968 5.32916 7.54943C5.24418 7.66545 5.19837 7.80551 5.19837 7.94931C5.19837 8.09311 5.24418 8.23317 5.32916 8.34918C5.52727 8.65328 5.81346 8.88971 6.14951 9.0269C6.48556 9.16409 6.85547 9.1955 7.20984 9.11694C7.51979 9.02497 7.80974 8.87502 8.12469 8.79304C8.38671 8.71475 8.66612 8.7162 8.92732 8.7972C9.18852 8.8782 9.41971 9.03509 9.59144 9.2479C9.8094 9.49582 9.71342 9.82372 9.41947 9.82272C9.0387 9.87516 8.67986 10.0319 8.38264 10.2756C8.01927 10.4805 7.63729 10.6505 7.24183 10.7834C6.92703 10.8548 6.60648 10.898 6.284 10.9124C6.71576 11.2753 7.21674 11.5468 7.75657 11.7104C8.2964 11.874 8.86383 11.9263 9.42447 11.8641C9.95504 11.7001 10.4479 11.4327 10.8747 11.0773C11.3014 10.722 11.6537 10.2858 11.911 9.79373L12.011 9.85371C11.9577 10.1736 11.904 10.4932 11.8501 10.8124C12.4219 9.8504 12.6408 8.71926 12.469 7.61341L12.5559 7.57643L13.0449 8.01229C13.2584 7.05854 13.2663 6.07022 13.0679 5.1132C13.137 5.12867 13.2041 5.15216 13.2678 5.18318C13.3798 5.27215 13.4848 5.36912 13.6278 5.49408C13.3846 4.77019 12.9537 4.12381 12.3789 3.62096C11.8041 3.11812 11.1062 2.77684 10.3563 2.63199L10.4043 2.52502L11.6631 2.29209L11.6731 2.19212L9.77341 1.61531C10.378 1.46212 11.0124 1.47178 11.6121 1.6433Z" fill="black"/>
</svg>
