<svg width="16" height="16" viewBox="0 0 16 16" fill="none" xmlns="http://www.w3.org/2000/svg">
<path d="M11.8469 9.34997H15.7869C15.8316 9.04543 15.8506 8.73769 15.8439 8.42997C15.8226 6.95441 15.3611 5.51884 14.5185 4.30731C13.676 3.09577 12.4908 2.16348 11.1149 1.62997L11.3219 1.67297C11.3219 1.67297 16.3009 -0.644032 14.6419 4.48697L14.8419 4.84097C14.8419 4.84097 16.3009 0.927968 13.9549 0.275968C12.0379 -0.258032 9.2049 1.22497 9.2049 1.22497L9.3049 1.24697C9.1289 1.23297 8.9519 1.22497 8.7719 1.22497C7.08543 1.22518 5.45488 1.82977 4.17595 2.92909C2.89702 4.02841 2.0544 5.54966 1.8009 7.21697C2.79527 5.9666 3.94677 4.84972 5.2269 3.89397C5.2269 3.89397 2.5009 6.38397 1.7069 8.42997C1.14663 9.44605 0.69577 10.5187 0.3619 11.63C0.1619 12.46 -0.3551 15.44 1.7069 15.782C3.04249 15.9731 4.40267 15.6859 5.5469 14.971L5.5009 14.95C6.50408 15.4979 7.62884 15.785 8.7719 15.785C10.2809 15.7666 11.7447 15.2679 12.9511 14.3613C14.1575 13.4547 15.0436 12.1873 15.4809 10.743H11.4429C11.2172 11.2615 10.8407 11.7 10.3624 12.0016C9.88405 12.3032 9.32602 12.4539 8.7609 12.434C7.2299 12.434 6.1069 11.259 5.8149 9.34997H11.8469V9.34997ZM5.0699 14.693C4.38642 15.0428 3.64375 15.2622 2.8799 15.34C-0.1821 15.31 2.1129 10.89 2.1129 10.89V10.884C2.64178 12.4544 3.68732 13.7992 5.0789 14.699L5.0699 14.693ZM8.7759 4.63497C9.13576 4.61297 9.49631 4.66495 9.83531 4.78768C10.1743 4.91042 10.4846 5.10132 10.7469 5.3486C11.0093 5.59588 11.2182 5.8943 11.3608 6.22544C11.5034 6.55659 11.5766 6.91344 11.5759 7.27397H5.8429C5.91732 6.54863 6.25872 5.87685 6.80075 5.38915C7.34279 4.90145 8.04676 4.63265 8.7759 4.63497V4.63497Z" fill="black"/>
</svg>
