<svg id="Layer_1" data-name="Layer 1" xmlns="http://www.w3.org/2000/svg" viewBox="0 0 16 16"><title>ie</title><path d="M11.846,9.344h3.94a5.507,5.507,0,0,0,.057-.92,7.408,7.408,0,0,0-4.729-6.8l.207.043S16.3-.65,14.641,4.481l.2.354S16.3.922,13.954.27c-1.917-.534-4.75.949-4.75.949l.1.022c-.176-.014-.353-.022-.533-.022A7.052,7.052,0,0,0,1.8,7.211,18.578,18.578,0,0,1,5.226,3.888S2.5,6.378,1.706,8.424a16.4,16.4,0,0,0-1.345,3.2c-.2.83-.717,3.81,1.345,4.152a5.718,5.718,0,0,0,3.84-.811L5.5,14.944a6.823,6.823,0,0,0,3.271.835,7.1,7.1,0,0,0,6.709-5.042H11.442A2.817,2.817,0,0,1,8.76,12.428c-1.531,0-2.654-1.175-2.946-3.084h6.032ZM5.069,14.687a6.181,6.181,0,0,1-2.19.647c-3.062-.03-.767-4.45-.767-4.45v-.006a7.328,7.328,0,0,0,2.966,3.815ZM8.775,4.629a2.639,2.639,0,0,1,2.8,2.639H5.842A2.939,2.939,0,0,1,8.775,4.629Z"/></svg>