<svg width="16" height="16" viewBox="0 0 16 16" fill="none" xmlns="http://www.w3.org/2000/svg">
<path d="M6.28919 7.50642C6.21411 7.51032 6.14191 7.53661 6.08187 7.5819C6.02183 7.6272 5.9767 7.68944 5.95227 7.76061C5.92828 7.81665 5.92128 7.86069 5.90128 7.86069C5.88129 7.86069 5.89228 7.82166 5.86929 7.73759C5.85143 7.66801 5.8097 7.60694 5.75139 7.56504C5.69309 7.52315 5.62194 7.50311 5.55036 7.50842C5.47367 7.51388 5.40048 7.5427 5.34062 7.591C5.28075 7.6393 5.23707 7.70477 5.21544 7.77863C5.18745 7.84367 5.18745 7.86169 5.16546 7.86169C5.14346 7.86169 5.15946 7.80965 5.17445 7.7486C5.19085 7.67936 5.1929 7.6075 5.18045 7.53744H4.85453V8.76438H5.29942V8.15391C5.29942 8.03382 5.34941 7.8807 5.43539 7.8807C5.52137 7.8807 5.55536 7.95676 5.55536 8.09887V8.76438H6.00126V8.15391C6.00126 8.04683 6.04425 7.8807 6.13823 7.8797C6.2322 7.8787 6.2572 7.98778 6.2572 8.09787V8.76338H6.70109V8.04183C6.70109 7.71858 6.58412 7.50542 6.28919 7.50642Z" fill="black"/>
<path d="M13.8414 7.4874C13.7663 7.49144 13.6942 7.51778 13.6342 7.56305C13.5742 7.60833 13.529 7.67049 13.5045 7.7416C13.4795 7.79764 13.4735 7.84167 13.4535 7.84167C13.4335 7.84167 13.4435 7.79364 13.4215 7.71858C13.4047 7.64839 13.3633 7.58659 13.3047 7.5445C13.2461 7.50241 13.1744 7.48285 13.1026 7.4894C13.026 7.49515 12.9529 7.52406 12.8931 7.57232C12.8333 7.62058 12.7895 7.68589 12.7676 7.75961C12.7397 7.82466 12.7397 7.84367 12.7177 7.84367C12.6957 7.84367 12.7117 7.79163 12.7267 7.73059C12.743 7.66101 12.7451 7.58882 12.7327 7.51843H12.4067V8.74536H12.8516V8.1349C12.8516 8.01481 12.9016 7.86169 12.9876 7.86169C13.0736 7.86169 13.1076 7.93775 13.1076 8.07986V8.74536H13.5545V8.1349C13.5545 8.02782 13.5975 7.86169 13.6914 7.86169C13.7854 7.86169 13.8104 7.96877 13.8104 8.07986V8.74536H14.2493V8.02381C14.2493 7.70057 14.1363 7.4864 13.8414 7.4874Z" fill="black"/>
<path d="M7.45691 7.50341C7.25477 7.50318 7.05496 7.54653 6.87105 7.63051V7.99879C7.02101 7.91241 7.18771 7.85918 7.35993 7.84267C7.53489 7.84267 7.55989 7.93675 7.54889 8.01481C7.48286 8.00359 7.41586 7.99923 7.34894 8.0018C6.98602 8.0018 6.80307 8.16792 6.80407 8.43312C6.80393 8.48192 6.81387 8.53022 6.83326 8.57499C6.85265 8.61976 6.88107 8.66004 6.91674 8.6933C6.95241 8.72656 6.99456 8.75209 7.04054 8.76828C7.08653 8.78447 7.13536 8.79098 7.18398 8.7874C7.26819 8.7909 7.35148 8.76877 7.42287 8.72393C7.49426 8.67908 7.5504 8.61363 7.58388 8.5362C7.60688 8.48016 7.61187 8.44213 7.63287 8.44213C7.65386 8.44213 7.64887 8.46915 7.64787 8.5252C7.64369 8.60342 7.65008 8.68186 7.66686 8.75837H8.00078V8.15791C7.99478 7.77662 7.86081 7.50241 7.45691 7.50341ZM7.35094 8.47216C7.24396 8.49717 7.18897 8.46415 7.18897 8.3941C7.18897 8.29402 7.28895 8.25799 7.43092 8.25799C7.47163 8.25756 7.51234 8.25922 7.55289 8.26299C7.53826 8.31142 7.5123 8.35565 7.47718 8.39202C7.44206 8.4284 7.39878 8.45587 7.35094 8.47216Z" fill="black"/>
<path d="M9.17075 7.15555L8.72586 7.15665L8.72979 8.75487L9.17468 8.75377L9.17075 7.15555Z" fill="black"/>
<path d="M9.66339 8.1399C9.66339 8.02982 9.76336 7.92874 9.95232 7.92874C10.0963 7.93138 10.2369 7.97287 10.3592 8.04883V7.6215C10.2292 7.527 10.0694 7.48291 9.90933 7.49741C9.82616 7.49133 9.74266 7.50337 9.66459 7.5327C9.58652 7.56203 9.51573 7.60796 9.45709 7.66731C9.39846 7.72667 9.35338 7.79805 9.32496 7.87652C9.29654 7.955 9.28546 8.03871 9.29247 8.12189C9.28297 8.20739 9.29212 8.29394 9.31929 8.37555C9.34646 8.45717 9.391 8.53191 9.44984 8.59462C9.50868 8.65732 9.58041 8.70649 9.66009 8.73874C9.73977 8.77099 9.82549 8.78554 9.91133 8.78139C10.0754 8.78354 10.235 8.72793 10.3622 8.62427V8.21896C10.244 8.30005 10.1055 8.3465 9.96231 8.35306C9.74037 8.35406 9.66339 8.25499 9.66339 8.1399Z" fill="black"/>
<path d="M11.26 7.49441C11.1762 7.49993 11.0959 7.53015 11.0292 7.58126C10.9624 7.63236 10.9123 7.70208 10.8851 7.78163C10.8651 7.82466 10.8551 7.84868 10.8391 7.84868C10.8231 7.84868 10.8311 7.79664 10.8391 7.76361C10.8824 7.62465 10.904 7.47984 10.9031 7.33428C10.9071 7.27293 10.9006 7.21135 10.8841 7.15215H10.5002V8.75337H10.9451V8.1429C10.9451 8.04283 10.9841 7.86969 11.096 7.86869C11.189 7.86869 11.219 7.93775 11.219 8.07685V8.75237H11.6639V8.10287C11.6669 7.78363 11.6139 7.49341 11.26 7.49441Z" fill="black"/>
<path d="M11.8109 7.52243V8.74837H12.2558V7.52243C12.1865 7.55518 12.1103 7.57031 12.0338 7.56646C11.957 7.57026 11.8805 7.55514 11.8109 7.52243Z" fill="black"/>
<path d="M12.0319 7.49277C12.1821 7.4924 12.3036 7.41235 12.3034 7.31397C12.3031 7.21559 12.1812 7.13613 12.031 7.1365C11.8808 7.13687 11.7593 7.21693 11.7595 7.31531C11.7598 7.41369 11.8817 7.49314 12.0319 7.49277Z" fill="black"/>
<path d="M8.13775 7.53043V8.75637H8.58264V7.53043C8.44001 7.58846 8.28038 7.58846 8.13775 7.53043Z" fill="black"/>
<path d="M8.35879 7.50182C8.50898 7.50145 8.63053 7.4214 8.63029 7.32302C8.63005 7.22463 8.5081 7.14518 8.35792 7.14555C8.20773 7.14592 8.08618 7.22597 8.08642 7.32436C8.08667 7.42274 8.20861 7.50219 8.35879 7.50182Z" fill="black"/>
<path d="M15.1331 7.4844C15.0503 7.48664 14.97 7.51355 14.9025 7.56168C14.835 7.6098 14.7834 7.67697 14.7542 7.75461C14.7242 7.81966 14.7262 7.83867 14.7042 7.83867C14.6822 7.83867 14.6992 7.78663 14.7132 7.73059C14.7302 7.66109 14.7322 7.58877 14.7192 7.51843H14.3933V9.08462H14.8382V8.58424C14.8672 8.63892 14.9103 8.68482 14.9631 8.7172C15.0158 8.74957 15.0762 8.76725 15.1381 8.76838C15.459 8.76838 15.621 8.49417 15.62 8.12589C15.623 7.70757 15.428 7.4834 15.1331 7.4844ZM15.0131 8.47616C14.9131 8.47616 14.8362 8.34706 14.8352 8.16692C14.8342 7.98678 14.9121 7.85668 15.0081 7.85668C15.1321 7.85668 15.1851 7.96977 15.1861 8.16592C15.1871 8.36207 15.1381 8.47616 15.0131 8.47616Z" fill="black"/>
<path d="M3.2829 7.8837C3.31115 7.88068 3.33964 7.88068 3.36788 7.8837C3.38302 7.83107 3.38302 7.77522 3.36788 7.72258C3.34689 7.62251 3.3199 7.56646 3.26791 7.57547C3.21592 7.58448 3.20892 7.65553 3.22892 7.75361C3.23729 7.80037 3.25571 7.84476 3.2829 7.8837Z" fill="black"/>
<path d="M2.79402 7.96277C2.83501 7.98078 2.86 7.99179 2.87 7.98178C2.88 7.97177 2.87 7.96276 2.864 7.94675C2.8392 7.90991 2.80456 7.88078 2.76403 7.86269C2.71841 7.84366 2.66864 7.83679 2.61958 7.84276C2.57052 7.84872 2.52384 7.86731 2.48409 7.89672C2.4571 7.91673 2.43111 7.94475 2.43511 7.96176C2.4391 7.97878 2.43511 7.97077 2.4501 7.97177C2.51138 7.95505 2.57344 7.94135 2.63606 7.93074C2.69054 7.9283 2.74478 7.9393 2.79402 7.96277Z" fill="black"/>
<path d="M2.71204 8.0098C2.67537 8.0139 2.64066 8.0285 2.61206 8.05183C2.59851 8.06171 2.58921 8.07638 2.58607 8.09286L2.58507 8.09787L2.58607 8.10287H2.59507C2.60848 8.10086 2.62158 8.09716 2.63406 8.09186C2.68842 8.0707 2.74745 8.06448 2.80502 8.07385C2.83201 8.07385 2.84401 8.07385 2.85001 8.06885C2.85601 8.06384 2.85001 8.06084 2.85001 8.05183C2.83224 8.03401 2.81035 8.02085 2.78628 8.01352C2.76222 8.00619 2.73672 8.00491 2.71204 8.0098Z" fill="black"/>
<path d="M3.11894 8.18093C3.13287 8.19004 3.14975 8.19346 3.16612 8.19048C3.18249 8.1875 3.19709 8.17835 3.20692 8.16492C3.21992 8.1389 3.20092 8.10287 3.16493 8.08486C3.15101 8.07575 3.13412 8.07233 3.11775 8.07531C3.10139 8.07829 3.08678 8.08744 3.07695 8.10087C3.06396 8.13089 3.08295 8.16292 3.11894 8.18093Z" fill="black"/>
<path d="M3.34989 7.97778C3.32089 7.97778 3.2969 8.0088 3.2959 8.04983C3.2949 8.09086 3.3189 8.12289 3.34789 8.12289C3.37688 8.12289 3.40188 8.09086 3.40188 8.05083C3.40188 8.0108 3.37988 7.97778 3.34989 7.97778Z" fill="black"/>
<path d="M1.38336 8.70733C1.37636 8.69833 1.36436 8.70133 1.35236 8.70733C1.34338 8.70797 1.33436 8.70797 1.32537 8.70733C1.31555 8.70743 1.30585 8.7051 1.29713 8.70057C1.28842 8.69603 1.28095 8.68942 1.27538 8.68131C1.26821 8.66811 1.26445 8.65331 1.26445 8.63828C1.26445 8.62325 1.26821 8.60846 1.27538 8.59525L1.28238 8.57924C1.30254 8.54586 1.31482 8.50832 1.31829 8.46947C1.32175 8.43062 1.31631 8.39149 1.30238 8.35507C1.28788 8.32555 1.26634 8.30006 1.23966 8.28086C1.21298 8.26166 1.18198 8.24934 1.14941 8.24498C1.11858 8.24093 1.08722 8.24436 1.05799 8.25499C1.02876 8.26561 1.00251 8.28312 0.981451 8.30603C0.956558 8.33245 0.938032 8.36422 0.927288 8.39891C0.916545 8.43361 0.913869 8.4703 0.919466 8.50618C0.924465 8.51919 0.931463 8.52219 0.936462 8.52319C0.941461 8.52419 0.963456 8.51619 0.973453 8.48917V8.48016C0.980675 8.45874 0.990407 8.43825 1.00245 8.41911C1.01067 8.40633 1.02136 8.39531 1.03389 8.38672C1.04642 8.37813 1.06055 8.37213 1.07543 8.36908C1.09073 8.36556 1.10659 8.36517 1.12205 8.36792C1.1375 8.37067 1.15225 8.37651 1.16541 8.38509C1.18759 8.39944 1.20411 8.42106 1.21213 8.44625C1.22015 8.47144 1.21919 8.49864 1.2094 8.52319C1.19393 8.56269 1.18645 8.60487 1.1874 8.64729C1.18623 8.67811 1.19686 8.70822 1.21711 8.73146C1.23736 8.75471 1.26571 8.76935 1.29638 8.77239C1.31357 8.77476 1.33109 8.77215 1.34685 8.76488C1.36262 8.75761 1.37598 8.74598 1.38536 8.73135C1.38804 8.72781 1.38933 8.7234 1.38896 8.71896C1.38859 8.71453 1.38659 8.71038 1.38336 8.70733Z" fill="black"/>
<path d="M4.09071 8.54121C4.09071 8.5342 4.07772 8.49217 4.06172 8.44113C4.04572 8.39009 4.02873 8.35306 4.02873 8.35306C4.07677 8.28663 4.09687 8.20399 4.08471 8.12289C4.07509 8.06048 4.04605 8.0027 4.00173 7.95776C3.9153 7.88487 3.81231 7.83435 3.7018 7.81065L3.62582 7.78963C3.62582 7.78963 3.62582 7.6095 3.61782 7.53344C3.61573 7.4572 3.60397 7.38154 3.58283 7.30826C3.55662 7.2028 3.50198 7.10656 3.42487 7.03005C3.59773 6.8747 3.70706 6.66081 3.7318 6.42959C3.7318 6.07132 3.2909 5.96424 2.75003 6.19041L2.63506 6.23945L2.42411 6.02929C1.80226 5.49588 -0.120287 7.64853 0.502565 8.16792L0.637533 8.28201C0.602115 8.38029 0.590133 8.4855 0.602542 8.58924C0.618608 8.7385 0.689946 8.87632 0.802494 8.97554C0.914565 9.07781 1.05978 9.1361 1.2114 9.13967C1.33776 9.41338 1.54033 9.64479 1.7948 9.80615C2.04927 9.96751 2.34484 10.052 2.64606 10.0494C2.95885 10.0765 3.27231 10.0054 3.54287 9.84594C3.81342 9.68649 4.02763 9.44662 4.1557 9.15968C4.2043 9.03564 4.23233 8.90448 4.23868 8.77138C4.24168 8.60826 4.1497 8.54121 4.09071 8.54121ZM1.26838 8.98355C1.24713 8.98603 1.22565 8.98603 1.2044 8.98355C1.09279 8.97549 0.987114 8.93019 0.904278 8.85489C0.821442 8.7796 0.76624 8.67865 0.747507 8.56823C0.726894 8.46171 0.749161 8.35136 0.809457 8.2612C0.869753 8.17104 0.963194 8.10837 1.06943 8.08686C1.10043 8.08124 1.13192 8.07889 1.16341 8.07985C1.25644 8.09119 1.34255 8.13488 1.40668 8.20329C1.47082 8.27169 1.50892 8.36048 1.51432 8.45414C1.55232 8.69933 1.49333 8.94452 1.26838 8.98355ZM1.03244 7.94475C0.899016 7.97158 0.780943 8.04859 0.702518 8.15992C0.650319 8.11956 0.602711 8.07358 0.560552 8.02281C0.44058 7.79664 0.688521 7.3553 0.86048 7.10611C1.28938 6.48964 1.96022 6.02328 2.27414 6.10534C2.35565 6.16589 2.42951 6.23612 2.49409 6.3145C2.28296 6.4364 2.08232 6.57566 1.89423 6.73082C1.50044 7.04799 1.20214 7.46818 1.03244 7.94475ZM3.22292 8.88747C3.22549 8.88656 3.22763 8.88472 3.22892 8.88232C3.23022 8.87991 3.23057 8.87711 3.22992 8.87446L3.22871 8.87032L3.226 8.86696L3.22221 8.8649L3.21792 8.86446C3.00392 8.8905 2.78681 8.86898 2.58207 8.80141C2.61606 8.69232 2.70504 8.73135 2.84001 8.74236C3.05 8.75349 3.26039 8.73016 3.46286 8.67331C3.63077 8.6247 3.78834 8.54567 3.92775 8.44013C3.95912 8.51107 3.98129 8.58573 3.99374 8.6623C4.0171 8.6586 4.04103 8.66282 4.06172 8.67431C4.09171 8.69232 4.11271 8.72935 4.09871 8.82743C4.07084 9.0035 3.98829 9.16632 3.86277 9.29278C3.78194 9.38061 3.6857 9.45286 3.57883 9.50595C3.51939 9.53792 3.45714 9.56439 3.39288 9.58501C3.1865 9.67271 2.95512 9.68141 2.74275 9.60945C2.53038 9.53748 2.35186 9.38987 2.24115 9.19471C2.22782 9.16605 2.21711 9.13624 2.20916 9.10564C2.17312 8.97864 2.16981 8.84458 2.19953 8.71595C2.22925 8.58733 2.29104 8.46834 2.37912 8.37008C2.39101 8.36008 2.39913 8.3463 2.40211 8.33105C2.40037 8.31587 2.3941 8.30157 2.38412 8.29002C2.30305 8.22207 2.23897 8.13611 2.19696 8.03898C2.15496 7.94186 2.1362 7.83625 2.14218 7.73059C2.15408 7.63176 2.20096 7.54047 2.27433 7.47328C2.3477 7.40608 2.44269 7.36742 2.54208 7.36431H2.58707C2.66505 7.36431 2.73204 7.37832 2.79602 7.38132C2.85336 7.38628 2.91112 7.37933 2.96565 7.3609C3.02019 7.34248 3.07033 7.31297 3.11294 7.27424C3.14584 7.24031 3.18786 7.21667 3.23392 7.20619C3.24915 7.20372 3.26467 7.20372 3.2799 7.20619C3.30774 7.20696 3.33479 7.21564 3.35789 7.23121C3.44886 7.29125 3.45786 7.43836 3.46786 7.54645C3.46786 7.60749 3.47786 7.75661 3.48086 7.79864C3.48686 7.89872 3.51285 7.90973 3.56384 7.92674C3.59383 7.93675 3.62082 7.94375 3.66381 7.95476C3.7507 7.97235 3.83202 8.01081 3.90076 8.06685C3.92437 8.08959 3.93983 8.11948 3.94475 8.15191C3.95874 8.25199 3.86477 8.38409 3.61383 8.50118C3.35103 8.61717 3.06299 8.66402 2.77702 8.63728L2.69604 8.62827C2.51209 8.60426 2.40711 8.84244 2.51809 9.00556C2.57774 9.06585 2.64975 9.11246 2.72915 9.14218C2.80855 9.1719 2.89344 9.18402 2.97798 9.17769C3.14652 9.18525 3.31479 9.15746 3.47198 9.09611C3.62917 9.03475 3.77181 8.94119 3.89076 8.82142L3.90076 8.80641C3.90676 8.7974 3.90076 8.7924 3.89376 8.7974C3.58508 9.01185 3.20968 9.10811 2.83601 9.06861C2.79618 9.0603 2.75732 9.04789 2.72004 9.03158C2.68397 9.02234 2.6512 9.00321 2.62541 8.97633C2.59963 8.94946 2.58184 8.91591 2.57407 8.87947C2.78285 8.95754 3.01228 8.96038 3.22292 8.88747ZM1.82525 7.10111C1.96819 6.93159 2.14101 6.7898 2.33513 6.68279L2.33906 6.68251L2.34252 6.6844L2.3444 6.68786L2.34413 6.69179C2.32279 6.72805 2.30664 6.76713 2.29614 6.80788L2.29657 6.81199L2.29925 6.81514L2.30323 6.81623L2.30714 6.81489C2.44127 6.72615 2.59502 6.67153 2.75503 6.65577L2.75752 6.65832L2.75842 6.66177L2.75752 6.66522L2.75503 6.66777C2.72878 6.68839 2.70527 6.71227 2.68505 6.73883L2.6838 6.74221L2.68439 6.74577L2.68668 6.74856L2.69005 6.74984C2.82098 6.75431 2.94918 6.78853 3.06496 6.84991C3.07195 6.84991 3.06496 6.86793 3.05896 6.86593C2.83589 6.81488 2.60419 6.81488 2.38112 6.86593C2.18381 6.91157 1.99712 6.99481 1.83125 7.11111L1.82798 7.11013L1.82557 7.10772L1.82458 7.10445L1.82525 7.10111Z" fill="black"/>
</svg>
