<svg width="16" height="16" viewBox="0 0 16 16" fill="none" xmlns="http://www.w3.org/2000/svg">
<path fill-rule="evenodd" clip-rule="evenodd" d="M5.54134 4.05674C5.39178 3.98109 5.19581 3.98109 5.04883 4.05674C4.89283 4.13465 4.8 4.27578 4.8 4.43499V11.5642C4.8 11.72 4.8967 11.8645 5.04883 11.9413C5.12361 11.9797 5.2087 12 5.2938 12C5.38147 12 5.46656 11.9797 5.54134 11.9413L12.5525 8.3767C12.7059 8.29879 12.8 8.15426 12.8 7.99845C12.8 7.84376 12.7085 7.70262 12.5525 7.62133L5.54134 4.05674ZM8 0C3.584 0 0 3.584 0 8C0 12.416 3.584 16 8 16C12.416 16 16 12.416 16 8C16 3.584 12.416 0 8 0ZM8 14.4C4.472 14.4 1.6 11.528 1.6 8C1.6 4.472 4.472 1.6 8 1.6C11.528 1.6 14.4 4.472 14.4 8C14.4 11.528 11.528 14.4 8 14.4Z" fill="black"/>
</svg>
