<svg width="16" height="16" viewBox="0 0 16 16" fill="none" xmlns="http://www.w3.org/2000/svg">
<path d="M8 2.094C9.16809 2.094 10.31 2.44038 11.2812 3.08934C12.2524 3.7383 13.0094 4.66069 13.4564 5.73987C13.9034 6.81905 14.0204 8.00655 13.7925 9.1522C13.5646 10.2979 13.0021 11.3502 12.1762 12.1762C11.3502 13.0021 10.2979 13.5646 9.1522 13.7925C8.00655 14.0204 6.81905 13.9034 5.73987 13.4564C4.66069 13.0094 3.7383 12.2524 3.08934 11.2812C2.44038 10.31 2.094 9.16809 2.094 8C2.09559 6.43411 2.71833 4.93282 3.82558 3.82558C4.93283 2.71833 6.43412 2.09558 8 2.094ZM8 0.119995C6.44148 0.119995 4.91796 0.582149 3.62211 1.44801C2.32625 2.31388 1.31625 3.54457 0.719828 4.98445C0.123409 6.42433 -0.0326409 8.00874 0.271411 9.53731C0.575462 11.0659 1.32596 12.47 2.428 13.572C3.53004 14.674 4.93412 15.4245 6.46269 15.7286C7.99126 16.0326 9.57566 15.8766 11.0155 15.2802C12.4554 14.6837 13.6861 13.6737 14.552 12.3779C15.4178 11.082 15.88 9.55851 15.88 8C15.8801 6.96514 15.6764 5.9404 15.2804 4.98429C14.8845 4.02819 14.304 3.15945 13.5723 2.4277C12.8405 1.69595 11.9718 1.11552 11.0157 0.719557C10.0596 0.323596 9.03485 0.119864 8 0.119995Z" fill="black"/>
<path d="M11.206 11.206L9.417 6.583L4.794 4.794L6.583 9.39999L11.206 11.206ZM7.528 7.528C7.58882 7.46397 7.66202 7.41299 7.74317 7.37815C7.82431 7.34331 7.91169 7.32534 8 7.32534C8.0883 7.32534 8.17569 7.34331 8.25683 7.37815C8.33797 7.41299 8.41118 7.46397 8.472 7.528C8.53428 7.58981 8.58372 7.66334 8.61745 7.74435C8.65119 7.82536 8.66855 7.91224 8.66855 8C8.66855 8.08775 8.65119 8.17463 8.61745 8.25564C8.58372 8.33665 8.53428 8.41018 8.472 8.472C8.34527 8.58936 8.178 8.65307 8.0053 8.64976C7.8326 8.64645 7.6679 8.57637 7.54576 8.45423C7.42362 8.33209 7.35354 8.16739 7.35023 7.99469C7.34692 7.82199 7.41063 7.65473 7.528 7.528Z" fill="black"/>
</svg>
