<svg width="16" height="16" viewBox="0 0 16 16" fill="none" xmlns="http://www.w3.org/2000/svg">
<path d="M11.1723 6.57885H10.3534C10.3424 6.57911 10.332 6.58365 10.3243 6.59151C10.3166 6.59936 10.3124 6.60991 10.3124 6.62088V7.09929C10.3126 7.1101 10.317 7.12039 10.3247 7.12803C10.3323 7.13567 10.3426 7.14007 10.3534 7.14033H11.1723C11.1777 7.14033 11.183 7.13927 11.188 7.1372C11.193 7.13514 11.1975 7.13212 11.2013 7.12831C11.2051 7.1245 11.2081 7.11997 11.2102 7.115C11.2122 7.11002 11.2133 7.10468 11.2133 7.09929V6.62088C11.2134 6.61541 11.2125 6.60997 11.2105 6.60487C11.2085 6.59978 11.2055 6.59513 11.2017 6.59122C11.1978 6.5873 11.1933 6.58419 11.1882 6.58206C11.1832 6.57994 11.1778 6.57884 11.1723 6.57885V6.57885ZM11.1573 7.29146H9.58741C9.57568 7.29196 9.56439 7.29607 9.55508 7.30324C9.54577 7.3104 9.53891 7.32027 9.53541 7.33149L9.33543 8.11016L9.32543 8.15119L9.08044 7.32348C9.07618 7.31137 9.06815 7.30095 9.05753 7.29375C9.04691 7.28654 9.03427 7.28293 9.02145 7.28345H8.41349C8.40162 7.28389 8.39018 7.28797 8.3807 7.29513C8.37122 7.30228 8.36417 7.31218 8.36049 7.32348L8.13051 8.10315L8.11951 8.14319L8.10851 8.10015L8.00851 7.71382L7.90852 7.32849C7.90509 7.31742 7.89837 7.30766 7.88926 7.30051C7.88015 7.29336 7.86908 7.28915 7.85752 7.28845H6.6286V6.61788C6.62795 6.61168 6.62596 6.6057 6.62278 6.60035C6.61959 6.595 6.61528 6.59041 6.61015 6.58689C6.60501 6.58337 6.59917 6.581 6.59304 6.57996C6.5869 6.57892 6.58061 6.57922 6.57461 6.58085L5.79966 6.82506C5.77566 6.83206 5.75766 6.84307 5.75766 6.86609V7.28845H5.55767C5.54671 7.28872 5.53628 7.29326 5.52862 7.30111C5.52096 7.30897 5.51667 7.31951 5.51668 7.33049V7.924C5.51667 7.93498 5.52096 7.94552 5.52862 7.95337C5.53628 7.96123 5.54671 7.96577 5.55767 7.96603H5.75766V8.70066C5.75766 9.2151 6.03464 9.45531 6.54861 9.45531C6.74072 9.45886 6.93103 9.41775 7.10457 9.33521V8.70767C7.10516 8.70215 7.10431 8.69657 7.1021 8.69148C7.09989 8.68639 7.09639 8.68197 7.09196 8.67864C7.08752 8.67531 7.08229 8.67319 7.07679 8.67249C7.07129 8.67179 7.0657 8.67253 7.06058 8.67464C6.99118 8.70594 6.91568 8.72133 6.83959 8.71968C6.7016 8.71968 6.6286 8.66163 6.6286 8.50349V7.96904H7.07057C7.07604 7.96904 7.08146 7.96795 7.0865 7.96582C7.09154 7.9637 7.0961 7.96058 7.09992 7.95667C7.10374 7.95275 7.10674 7.94811 7.10874 7.94301C7.11074 7.93792 7.11171 7.93247 7.11157 7.927V7.42657L7.69253 9.38125C7.69651 9.39255 7.70378 9.4024 7.71341 9.40954C7.72303 9.41667 7.73457 9.42076 7.74653 9.42128H8.38849C8.4003 9.42071 8.41169 9.41672 8.42128 9.40979C8.43087 9.40286 8.43823 9.39329 8.44248 9.38225L8.72147 8.5145L8.86146 8.96789L8.98945 9.38024C8.99313 9.39155 9.00018 9.40144 9.00966 9.4086C9.01914 9.41576 9.03058 9.41984 9.04245 9.42028H9.6884C9.70037 9.41976 9.7119 9.41567 9.72153 9.40854C9.73115 9.4014 9.73842 9.39155 9.7424 9.38024L10.3314 7.41957V9.37924C10.3314 9.39039 10.3358 9.40109 10.3437 9.40897C10.3515 9.41685 10.3622 9.42128 10.3734 9.42128H11.1613C11.1668 9.42128 11.1722 9.42019 11.1772 9.41806C11.1823 9.41594 11.1868 9.41283 11.1907 9.40891C11.1945 9.40499 11.1975 9.40035 11.1995 9.39526C11.2015 9.39016 11.2024 9.38472 11.2023 9.37924V7.33349C11.2025 7.32767 11.2014 7.32187 11.1992 7.31649C11.1969 7.31111 11.1936 7.30627 11.1893 7.3023C11.185 7.29832 11.18 7.29529 11.1745 7.29343C11.169 7.29156 11.1631 7.29089 11.1573 7.29146V7.29146ZM12.1942 6.57885H11.4063C11.4008 6.57884 11.3954 6.57994 11.3904 6.58206C11.3853 6.58419 11.3808 6.5873 11.3769 6.59122C11.3731 6.59513 11.3701 6.59978 11.3681 6.60487C11.3661 6.60997 11.3652 6.61541 11.3653 6.62088V9.37924C11.3652 9.38472 11.3661 9.39016 11.3681 9.39526C11.3701 9.40035 11.3731 9.40499 11.3769 9.40891C11.3808 9.41283 11.3853 9.41594 11.3904 9.41806C11.3954 9.42019 11.4008 9.42128 11.4063 9.42128H12.1942C12.1997 9.42128 12.2051 9.42019 12.2102 9.41806C12.2152 9.41594 12.2198 9.41283 12.2236 9.40891C12.2274 9.40499 12.2304 9.40035 12.2324 9.39526C12.2344 9.39016 12.2354 9.38472 12.2352 9.37924V6.62088C12.2354 6.61541 12.2344 6.60997 12.2324 6.60487C12.2304 6.59978 12.2274 6.59513 12.2236 6.59122C12.2198 6.5873 12.2152 6.58419 12.2102 6.58206C12.2051 6.57994 12.1997 6.57884 12.1942 6.57885V6.57885ZM13.2462 6.57885H12.4272C12.4218 6.57884 12.4163 6.57994 12.4113 6.58206C12.4063 6.58419 12.4017 6.5873 12.3979 6.59122C12.3941 6.59513 12.3911 6.59978 12.3891 6.60487C12.3871 6.60997 12.3861 6.61541 12.3862 6.62088V7.09929C12.3862 7.10468 12.3873 7.11002 12.3893 7.115C12.3914 7.11997 12.3944 7.1245 12.3982 7.12831C12.402 7.13212 12.4066 7.13514 12.4115 7.1372C12.4165 7.13927 12.4218 7.14033 12.4272 7.14033H13.2462C13.2516 7.14033 13.2569 7.13927 13.2619 7.1372C13.2668 7.13514 13.2714 7.13212 13.2752 7.12831C13.279 7.1245 13.282 7.11997 13.2841 7.115C13.2861 7.11002 13.2872 7.10468 13.2872 7.09929V6.62088C13.2873 6.61541 13.2863 6.60997 13.2843 6.60487C13.2823 6.59978 13.2793 6.59513 13.2755 6.59122C13.2717 6.5873 13.2671 6.58419 13.2621 6.58206C13.2571 6.57994 13.2516 6.57884 13.2462 6.57885V6.57885ZM13.2312 7.29146H12.4422C12.4313 7.29172 12.4208 7.29626 12.4132 7.30412C12.4055 7.31197 12.4012 7.32252 12.4012 7.33349V9.37924C12.4012 9.39022 12.4055 9.40076 12.4132 9.40862C12.4208 9.41648 12.4313 9.42102 12.4422 9.42128H13.2312C13.2421 9.42102 13.2526 9.41648 13.2602 9.40862C13.2679 9.40076 13.2722 9.39022 13.2722 9.37924V7.33349C13.2722 7.32252 13.2679 7.31197 13.2602 7.30412C13.2526 7.29626 13.2421 7.29172 13.2312 7.29146V7.29146ZM14.5311 7.24141C14.3805 7.23471 14.2301 7.25821 14.0887 7.31052C13.9473 7.36283 13.8178 7.44291 13.7078 7.54604C13.5978 7.64917 13.5095 7.77327 13.448 7.91106C13.3866 8.04884 13.3533 8.19752 13.3502 8.34836V8.35637C13.3707 8.65561 13.5041 8.93584 13.7235 9.14018C13.9429 9.34451 14.2317 9.45766 14.5313 9.45664C14.831 9.45562 15.119 9.34052 15.337 9.13469C15.555 8.92886 15.6866 8.64773 15.705 8.34836V8.34036C15.7021 8.19075 15.6693 8.04323 15.6086 7.9065C15.5478 7.76976 15.4604 7.64657 15.3514 7.54417C15.2424 7.44177 15.114 7.36224 14.9738 7.31024C14.8336 7.25825 14.6844 7.23484 14.5351 7.24141H14.5311ZM14.8681 8.35637C14.8706 8.40277 14.8639 8.44921 14.8482 8.49296C14.8326 8.53671 14.8083 8.57689 14.7769 8.61112C14.7455 8.64535 14.7076 8.67294 14.6654 8.69227C14.6232 8.71161 14.5775 8.72228 14.5311 8.72368C14.4838 8.72188 14.4373 8.71073 14.3943 8.69086C14.3513 8.67099 14.3126 8.64279 14.2805 8.60791C14.2485 8.57302 14.2236 8.53212 14.2074 8.48758C14.1912 8.44303 14.184 8.39572 14.1861 8.34836V8.34036C14.1836 8.29395 14.1903 8.24751 14.206 8.20376C14.2216 8.16001 14.2458 8.11984 14.2773 8.08561C14.3087 8.05138 14.3466 8.02378 14.3888 8.00445C14.431 7.98512 14.4767 7.97444 14.5231 7.97304C14.5704 7.97484 14.6169 7.986 14.6599 8.00587C14.7029 8.02574 14.7416 8.05393 14.7736 8.08882C14.8057 8.1237 14.8306 8.1646 14.8468 8.20914C14.863 8.25369 14.8702 8.301 14.8681 8.34836V8.35637ZM2.64786 5.66506C2.18564 5.6611 1.73265 5.79466 1.3464 6.04881C0.96014 6.30296 0.658023 6.66624 0.478385 7.09254C0.298747 7.51884 0.249686 7.98895 0.337428 8.44321C0.42517 8.89746 0.64576 9.31539 0.971204 9.64395C1.29665 9.97251 1.71228 10.1969 2.16534 10.2886C2.61841 10.3804 3.08849 10.3353 3.51592 10.1592C3.94336 9.98304 4.30889 9.68379 4.56612 9.29938C4.82336 8.91497 4.96069 8.46273 4.96071 8.00006C4.9631 7.38352 4.72084 6.79124 4.28715 6.3534C3.85346 5.91556 3.26384 5.66798 2.64786 5.66506V5.66506ZM2.64786 9.71954C2.30747 9.72251 1.97387 9.6242 1.6894 9.43708C1.40493 9.24996 1.18241 8.98247 1.05009 8.66855C0.91776 8.35463 0.881593 8.00844 0.946175 7.67391C1.01076 7.33938 1.17317 7.0316 1.41282 6.78962C1.65246 6.54764 1.95852 6.38238 2.29216 6.31481C2.62581 6.24724 2.97198 6.2804 3.28676 6.41009C3.60154 6.53978 3.87072 6.76015 4.06016 7.04323C4.2496 7.32632 4.35074 7.65935 4.35075 8.00006C4.35261 8.45407 4.17428 8.89023 3.85495 9.21266C3.53562 9.5351 3.10145 9.71742 2.64786 9.71954ZM3.22182 6.93315C3.12574 6.93236 3.03159 6.96015 2.95131 7.013C2.87103 7.06586 2.80825 7.14139 2.77093 7.23001C2.73361 7.31864 2.72343 7.41636 2.74169 7.51079C2.75995 7.60521 2.80582 7.69208 2.87348 7.76037C2.94115 7.82865 3.02755 7.87528 3.12173 7.89434C3.21591 7.9134 3.31363 7.90402 3.40248 7.8674C3.49133 7.83078 3.56731 7.76857 3.62078 7.68866C3.67424 7.60875 3.70279 7.51474 3.70279 7.41857C3.70306 7.35508 3.69082 7.29217 3.6668 7.23342C3.64277 7.17467 3.60741 7.12123 3.56275 7.07615C3.51809 7.03108 3.46499 6.99525 3.4065 6.97071C3.348 6.94618 3.28525 6.93341 3.22182 6.93315V6.93315ZM3.22182 8.10015C3.12574 8.09936 3.03159 8.12715 2.95131 8.18C2.87103 8.23286 2.80825 8.30839 2.77093 8.39701C2.73361 8.48564 2.72343 8.58336 2.74169 8.67779C2.75995 8.77221 2.80582 8.85908 2.87348 8.92736C2.94115 8.99565 3.02755 9.04228 3.12173 9.06134C3.21591 9.0804 3.31363 9.07102 3.40248 9.0344C3.49133 8.99778 3.56731 8.93557 3.62078 8.85566C3.67424 8.77575 3.70279 8.68174 3.70279 8.58556C3.70306 8.52208 3.69082 8.45917 3.6668 8.40042C3.64277 8.34167 3.60741 8.28823 3.56275 8.24315C3.51809 8.19808 3.46499 8.16225 3.4065 8.13771C3.348 8.11318 3.28525 8.10041 3.22182 8.10015V8.10015ZM2.0719 8.10015C1.97582 8.09936 1.88166 8.12715 1.80138 8.18C1.72111 8.23286 1.65833 8.30839 1.62101 8.39701C1.58368 8.48564 1.57351 8.58336 1.59177 8.67779C1.61003 8.77221 1.6559 8.85908 1.72356 8.92736C1.79122 8.99565 1.87762 9.04228 1.97181 9.06134C2.06599 9.0804 2.1637 9.07102 2.25255 9.0344C2.3414 8.99778 2.41738 8.93557 2.47085 8.85566C2.52432 8.77575 2.55286 8.68174 2.55287 8.58556C2.55313 8.52208 2.5409 8.45917 2.51687 8.40042C2.49284 8.34167 2.45749 8.28823 2.41283 8.24315C2.36816 8.19808 2.31507 8.16225 2.25657 8.13771C2.19808 8.11318 2.13532 8.10041 2.0719 8.10015V8.10015ZM2.0719 6.93715C1.97582 6.93636 1.88166 6.96415 1.80138 7.01701C1.72111 7.06986 1.65833 7.14539 1.62101 7.23402C1.58368 7.32264 1.57351 7.42037 1.59177 7.51479C1.61003 7.60921 1.6559 7.69608 1.72356 7.76437C1.79122 7.83266 1.87762 7.87929 1.97181 7.89834C2.06599 7.9174 2.1637 7.90802 2.25255 7.8714C2.3414 7.83479 2.41738 7.77257 2.47085 7.69266C2.52432 7.61275 2.55286 7.51874 2.55287 7.42257C2.55366 7.35875 2.54182 7.29541 2.51803 7.23619C2.49424 7.17698 2.45897 7.12307 2.41425 7.07757C2.36954 7.03206 2.31626 6.99588 2.2575 6.97109C2.19874 6.9463 2.13566 6.93341 2.0719 6.93315V6.93715Z" fill="black"/>
</svg>
