<svg width="16" height="16" viewBox="0 0 16 16" fill="none" xmlns="http://www.w3.org/2000/svg">
<path d="M11.1723 6.57888H10.3533C10.3424 6.57914 10.3319 6.58368 10.3243 6.59154C10.3166 6.59939 10.3123 6.60994 10.3123 6.62091V7.09932C10.3126 7.11013 10.317 7.12042 10.3246 7.12806C10.3323 7.1357 10.3425 7.1401 10.3533 7.14036H11.1723C11.1777 7.14036 11.183 7.1393 11.188 7.13723C11.1929 7.13517 11.1975 7.13215 11.2013 7.12834C11.2051 7.12453 11.2081 7.12 11.2102 7.11503C11.2122 7.11005 11.2133 7.10471 11.2133 7.09932V6.62091C11.2134 6.61544 11.2124 6.61 11.2104 6.6049C11.2084 6.59981 11.2054 6.59516 11.2016 6.59125C11.1978 6.58733 11.1932 6.58422 11.1882 6.58209C11.1832 6.57997 11.1777 6.57888 11.1723 6.57888V6.57888ZM11.1573 7.29149H9.58738C9.57565 7.29199 9.56436 7.2961 9.55505 7.30327C9.54574 7.31043 9.53888 7.3203 9.53538 7.33152L9.3354 8.11019L9.3254 8.15122L9.08041 7.32351C9.07615 7.31141 9.06812 7.30098 9.0575 7.29378C9.04688 7.28657 9.03423 7.28296 9.02142 7.28348H8.41346C8.40159 7.28392 8.39015 7.288 8.38067 7.29516C8.37119 7.30232 8.36414 7.31221 8.36046 7.32351L8.13048 8.10318L8.11948 8.14322L8.10848 8.10018L8.00848 7.71385L7.90849 7.32852C7.90506 7.31745 7.89834 7.30769 7.88923 7.30054C7.88012 7.29339 7.86905 7.28918 7.85749 7.28848H6.62857V6.61791C6.62792 6.61172 6.62593 6.60574 6.62275 6.60038C6.61956 6.59503 6.61525 6.59044 6.61012 6.58692C6.60498 6.5834 6.59914 6.58103 6.59301 6.57999C6.58687 6.57895 6.58058 6.57925 6.57458 6.58088L5.79963 6.82509C5.77563 6.83209 5.75763 6.8431 5.75763 6.86612V7.28848H5.55764C5.54668 7.28875 5.53625 7.29329 5.52859 7.30114C5.52093 7.309 5.51664 7.31954 5.51664 7.33052V7.92403C5.51664 7.93501 5.52093 7.94555 5.52859 7.9534C5.53625 7.96126 5.54668 7.9658 5.55764 7.96606H5.75763V8.70069C5.75763 9.21513 6.03461 9.45534 6.54858 9.45534C6.74069 9.45889 6.931 9.41778 7.10454 9.33524V8.7077C7.10513 8.70218 7.10428 8.6966 7.10207 8.69151C7.09986 8.68642 7.09636 8.682 7.09192 8.67867C7.08749 8.67534 7.08226 8.67322 7.07676 8.67252C7.07126 8.67182 7.06567 8.67256 7.06054 8.67467C6.99115 8.70597 6.91565 8.72136 6.83956 8.71971C6.70157 8.71971 6.62857 8.66166 6.62857 8.50353V7.96907H7.07054C7.07601 7.96907 7.08143 7.96798 7.08647 7.96585C7.09151 7.96373 7.09607 7.96061 7.09989 7.9567C7.10371 7.95278 7.10671 7.94814 7.10871 7.94304C7.11071 7.93795 7.11167 7.9325 7.11154 7.92703V7.4266L7.6925 9.38128C7.69648 9.39258 7.70375 9.40244 7.71338 9.40957C7.723 9.4167 7.73454 9.42079 7.7465 9.42131H8.38846C8.40027 9.42074 8.41166 9.41675 8.42125 9.40982C8.43084 9.40289 8.4382 9.39332 8.44245 9.38228L8.72144 8.51453L8.86143 8.96792L8.98942 9.38028C8.9931 9.39158 9.00015 9.40147 9.00963 9.40863C9.01911 9.41579 9.03055 9.41987 9.04242 9.42031H9.68837C9.70034 9.41979 9.71187 9.4157 9.7215 9.40857C9.73112 9.40143 9.73839 9.39158 9.74237 9.38028L10.3313 7.4196V9.37928C10.3313 9.39042 10.3358 9.40112 10.3436 9.409C10.3515 9.41688 10.3622 9.42131 10.3733 9.42131H11.1613C11.1667 9.42131 11.1722 9.42022 11.1772 9.41809C11.1822 9.41597 11.1868 9.41286 11.1906 9.40894C11.1944 9.40502 11.1974 9.40038 11.1994 9.39529C11.2014 9.39019 11.2024 9.38475 11.2023 9.37928V7.33352C11.2024 7.3277 11.2014 7.3219 11.1991 7.31652C11.1969 7.31114 11.1935 7.3063 11.1893 7.30233C11.185 7.29835 11.18 7.29532 11.1744 7.29346C11.1689 7.29159 11.1631 7.29092 11.1573 7.29149V7.29149ZM12.1942 6.57888H11.4063C11.4008 6.57888 11.3954 6.57997 11.3903 6.58209C11.3853 6.58422 11.3807 6.58733 11.3769 6.59125C11.3731 6.59516 11.3701 6.59981 11.3681 6.6049C11.3661 6.61 11.3651 6.61544 11.3653 6.62091V9.37928C11.3651 9.38475 11.3661 9.39019 11.3681 9.39529C11.3701 9.40038 11.3731 9.40502 11.3769 9.40894C11.3807 9.41286 11.3853 9.41597 11.3903 9.41809C11.3954 9.42022 11.4008 9.42131 11.4063 9.42131H12.1942C12.1997 9.42131 12.2051 9.42022 12.2101 9.41809C12.2152 9.41597 12.2197 9.41286 12.2236 9.40894C12.2274 9.40502 12.2304 9.40038 12.2324 9.39529C12.2344 9.39019 12.2353 9.38475 12.2352 9.37928V6.62091C12.2353 6.61544 12.2344 6.61 12.2324 6.6049C12.2304 6.59981 12.2274 6.59516 12.2236 6.59125C12.2197 6.58733 12.2152 6.58422 12.2101 6.58209C12.2051 6.57997 12.1997 6.57888 12.1942 6.57888V6.57888ZM13.2461 6.57888H12.4272C12.4217 6.57888 12.4163 6.57997 12.4113 6.58209C12.4062 6.58422 12.4017 6.58733 12.3978 6.59125C12.394 6.59516 12.391 6.59981 12.389 6.6049C12.387 6.61 12.3861 6.61544 12.3862 6.62091V7.09932C12.3862 7.10471 12.3873 7.11005 12.3893 7.11503C12.3914 7.12 12.3944 7.12453 12.3982 7.12834C12.402 7.13215 12.4065 7.13517 12.4115 7.13723C12.4165 7.1393 12.4218 7.14036 12.4272 7.14036H13.2461C13.2515 7.14036 13.2569 7.1393 13.2618 7.13723C13.2668 7.13517 13.2713 7.13215 13.2751 7.12834C13.2789 7.12453 13.282 7.12 13.284 7.11503C13.2861 7.11005 13.2871 7.10471 13.2871 7.09932V6.62091C13.2873 6.61544 13.2863 6.61 13.2843 6.6049C13.2823 6.59981 13.2793 6.59516 13.2755 6.59125C13.2717 6.58733 13.2671 6.58422 13.2621 6.58209C13.257 6.57997 13.2516 6.57888 13.2461 6.57888V6.57888ZM13.2311 7.29149H12.4422C12.4312 7.29175 12.4208 7.29629 12.4131 7.30415C12.4055 7.312 12.4012 7.32255 12.4012 7.33352V9.37928C12.4012 9.39025 12.4055 9.4008 12.4131 9.40865C12.4208 9.41651 12.4312 9.42105 12.4422 9.42131H13.2311C13.2421 9.42105 13.2525 9.41651 13.2602 9.40865C13.2679 9.4008 13.2721 9.39025 13.2721 9.37928V7.33352C13.2721 7.32255 13.2679 7.312 13.2602 7.30415C13.2525 7.29629 13.2421 7.29175 13.2311 7.29149V7.29149ZM14.5311 7.24144C14.3805 7.23474 14.2301 7.25824 14.0887 7.31055C13.9473 7.36286 13.8178 7.44294 13.7078 7.54607C13.5977 7.6492 13.5094 7.7733 13.448 7.91109C13.3866 8.04887 13.3533 8.19755 13.3501 8.34839V8.3564C13.3706 8.65564 13.5041 8.93587 13.7235 9.14021C13.9428 9.34455 14.2316 9.45769 14.5313 9.45667C14.831 9.45565 15.119 9.34055 15.337 9.13472C15.555 8.92889 15.6865 8.64776 15.705 8.34839V8.34039C15.7021 8.19078 15.6693 8.04326 15.6085 7.90653C15.5478 7.7698 15.4604 7.6466 15.3513 7.5442C15.2423 7.4418 15.1139 7.36227 14.9738 7.31027C14.8336 7.25828 14.6844 7.23487 14.5351 7.24144H14.5311ZM14.868 8.3564C14.8706 8.4028 14.8638 8.44924 14.8482 8.49299C14.8325 8.53675 14.8083 8.57692 14.7769 8.61115C14.7455 8.64538 14.7076 8.67297 14.6653 8.6923C14.6231 8.71164 14.5775 8.72231 14.5311 8.72371C14.4837 8.72191 14.4372 8.71076 14.3942 8.69089C14.3512 8.67102 14.3126 8.64282 14.2805 8.60794C14.2484 8.57305 14.2236 8.53215 14.2074 8.48761C14.1912 8.44306 14.1839 8.39575 14.1861 8.34839V8.34039C14.1835 8.29398 14.1903 8.24754 14.2059 8.20379C14.2216 8.16004 14.2458 8.11987 14.2772 8.08564C14.3086 8.05141 14.3466 8.02381 14.3888 8.00448C14.431 7.98515 14.4767 7.97447 14.5231 7.97307C14.5704 7.97487 14.6169 7.98603 14.6599 8.0059C14.7029 8.02577 14.7415 8.05396 14.7736 8.08885C14.8057 8.12374 14.8305 8.16463 14.8467 8.20918C14.8629 8.25372 14.8702 8.30103 14.868 8.34839V8.3564ZM2.64783 5.66509C2.18561 5.66113 1.73262 5.79469 1.34637 6.04884C0.96011 6.30299 0.657993 6.66627 0.478354 7.09257C0.298716 7.51887 0.249655 7.98898 0.337397 8.44324C0.42514 8.89749 0.64573 9.31542 0.971174 9.64398C1.29662 9.97254 1.71225 10.1969 2.16531 10.2887C2.61838 10.3804 3.08846 10.3353 3.51589 10.1592C3.94333 9.98307 4.30886 9.68382 4.56609 9.29941C4.82333 8.915 4.96066 8.46276 4.96068 8.00009C4.96307 7.38355 4.7208 6.79127 4.28712 6.35343C3.85343 5.91559 3.26381 5.66801 2.64783 5.66509V5.66509ZM2.64783 9.71957C2.30744 9.72254 1.97384 9.62423 1.68937 9.43711C1.4049 9.24999 1.18238 8.9825 1.05006 8.66858C0.91773 8.35466 0.881563 8.00847 0.946144 7.67394C1.01073 7.33941 1.17314 7.03163 1.41279 6.78965C1.65243 6.54767 1.95849 6.38241 2.29213 6.31484C2.62577 6.24727 2.97195 6.28043 3.28673 6.41012C3.60151 6.53981 3.87069 6.76018 4.06013 7.04326C4.24957 7.32635 4.35071 7.65938 4.35072 8.00009C4.35258 8.4541 4.17425 8.89026 3.85492 9.21269C3.53559 9.53513 3.10141 9.71745 2.64783 9.71957ZM3.22179 6.93318C3.12571 6.93239 3.03156 6.96018 2.95128 7.01303C2.871 7.06589 2.80822 7.14142 2.7709 7.23004C2.73358 7.31867 2.7234 7.41639 2.74166 7.51082C2.75992 7.60524 2.80579 7.69211 2.87345 7.7604C2.94111 7.82868 3.02752 7.87531 3.1217 7.89437C3.21588 7.91343 3.3136 7.90405 3.40245 7.86743C3.4913 7.83081 3.56728 7.7686 3.62074 7.68869C3.67421 7.60878 3.70276 7.51477 3.70276 7.4186C3.70303 7.35511 3.69079 7.2922 3.66677 7.23345C3.64274 7.1747 3.60738 7.12126 3.56272 7.07618C3.51806 7.03111 3.46496 6.99528 3.40647 6.97074C3.34797 6.94621 3.28522 6.93344 3.22179 6.93318V6.93318ZM3.22179 8.10018C3.12571 8.09939 3.03156 8.12718 2.95128 8.18003C2.871 8.23289 2.80822 8.30842 2.7709 8.39704C2.73358 8.48567 2.7234 8.58339 2.74166 8.67782C2.75992 8.77224 2.80579 8.85911 2.87345 8.9274C2.94111 8.99568 3.02752 9.04231 3.1217 9.06137C3.21588 9.08043 3.3136 9.07105 3.40245 9.03443C3.4913 8.99781 3.56728 8.9356 3.62074 8.85569C3.67421 8.77578 3.70276 8.68177 3.70276 8.5856C3.70303 8.52211 3.69079 8.4592 3.66677 8.40045C3.64274 8.3417 3.60738 8.28826 3.56272 8.24318C3.51806 8.19811 3.46496 8.16228 3.40647 8.13774C3.34797 8.11321 3.28522 8.10044 3.22179 8.10018V8.10018ZM2.07187 8.10018C1.97578 8.09939 1.88163 8.12718 1.80135 8.18003C1.72108 8.23289 1.65829 8.30842 1.62097 8.39704C1.58365 8.48567 1.57348 8.58339 1.59174 8.67782C1.60999 8.77224 1.65587 8.85911 1.72353 8.9274C1.79119 8.99568 1.87759 9.04231 1.97178 9.06137C2.06596 9.08043 2.16367 9.07105 2.25252 9.03443C2.34137 8.99781 2.41735 8.9356 2.47082 8.85569C2.52429 8.77578 2.55283 8.68177 2.55284 8.5856C2.5531 8.52211 2.54087 8.4592 2.51684 8.40045C2.49281 8.3417 2.45746 8.28826 2.41279 8.24318C2.36813 8.19811 2.31504 8.16228 2.25654 8.13774C2.19804 8.11321 2.13529 8.10044 2.07187 8.10018V8.10018ZM2.07187 6.93718C1.97578 6.93639 1.88163 6.96418 1.80135 7.01704C1.72108 7.06989 1.65829 7.14542 1.62097 7.23405C1.58365 7.32267 1.57348 7.4204 1.59174 7.51482C1.60999 7.60924 1.65587 7.69611 1.72353 7.7644C1.79119 7.83269 1.87759 7.87932 1.97178 7.89837C2.06596 7.91743 2.16367 7.90805 2.25252 7.87144C2.34137 7.83482 2.41735 7.7726 2.47082 7.69269C2.52429 7.61278 2.55283 7.51878 2.55284 7.4226C2.55363 7.35878 2.54179 7.29544 2.518 7.23622C2.49421 7.17701 2.45894 7.1231 2.41422 7.0776C2.36951 7.0321 2.31623 6.99591 2.25747 6.97112C2.19871 6.94633 2.13563 6.93344 2.07187 6.93318V6.93718Z" fill="black"/>
</svg>
