<svg width="16" height="16" viewBox="0 0 16 16" fill="none" xmlns="http://www.w3.org/2000/svg">
<path d="M5.14525 14.2498C6.32722 14.2579 7.49903 14.0311 8.5926 13.5825C9.68617 13.1339 10.6797 12.4725 11.5155 11.6367C12.3513 10.8009 13.0127 9.80735 13.4613 8.71378C13.9099 7.6202 14.1367 6.44839 14.1286 5.26642C14.1286 5.12971 14.1256 4.99368 14.1196 4.85831C14.7374 4.41071 15.2708 3.85697 15.695 3.22288C15.1191 3.47987 14.5077 3.64848 13.8815 3.72301C14.541 3.32869 15.0344 2.70793 15.2699 1.97655C14.6517 2.34425 13.975 2.6034 13.2694 2.74275C12.7929 2.23746 12.1634 1.90308 11.478 1.79126C10.7926 1.67944 10.0894 1.7964 9.47707 2.12407C8.86475 2.45174 8.37734 2.9719 8.09013 3.60421C7.80291 4.23651 7.73187 4.9458 7.88796 5.62251C6.63243 5.55937 5.40421 5.23287 4.28306 4.66419C3.16191 4.09552 2.17291 3.29739 1.38027 2.32164C0.976826 3.01628 0.852901 3.83843 1.03367 4.62113C1.21443 5.40383 1.68633 6.08838 2.35353 6.53575C1.85185 6.51908 1.36158 6.38185 0.924154 6.13565V6.17566C0.923075 6.90554 1.17478 7.61327 1.63649 8.17855C2.0982 8.74384 2.74142 9.13179 3.45681 9.27648C3.18555 9.35021 2.9057 9.38755 2.6246 9.3875C2.42551 9.3874 2.2269 9.36831 2.03144 9.33049C2.23316 9.95796 2.62591 10.5067 3.15479 10.9C3.68367 11.2933 4.32224 11.5115 4.98121 11.5241C3.86206 12.4017 2.4804 12.8776 1.05819 12.8754C0.80648 12.8755 0.554985 12.8608 0.304993 12.8314C1.74889 13.7589 3.42916 14.2512 5.14525 14.2498" fill="black"/>
</svg>
