<svg id="Layer_1" data-name="Layer 1" xmlns="http://www.w3.org/2000/svg" viewBox="0 0 16 16"><title>twitter-outline</title><path d="M15.617,3.164a1.179,1.179,0,0,0-.438-1.09,1.255,1.255,0,0,0-1.365-.107,4.4,4.4,0,0,1-.847.366,4.119,4.119,0,0,0-2.318-.717A3.949,3.949,0,0,0,6.756,4.66,6.735,6.735,0,0,1,3.191,2.52a1.2,1.2,0,0,0-1.02-.42,1.219,1.219,0,0,0-.942.571A3.688,3.688,0,0,0,.68,4.605,3.639,3.639,0,0,0,.874,5.781a1.209,1.209,0,0,0-.216.711,3.711,3.711,0,0,0,.974,2.5,1.189,1.189,0,0,0,.055.49,3.753,3.753,0,0,0,.8,1.353,4.734,4.734,0,0,1-1.024,0,1.219,1.219,0,0,0-1.281.787,1.186,1.186,0,0,0,.5,1.408,9.347,9.347,0,0,0,4.87,1.358,8.809,8.809,0,0,0,9.065-8.41,6.581,6.581,0,0,0,1.129-1.219A1.16,1.16,0,0,0,16,4.036,1.182,1.182,0,0,0,15.617,3.164ZM13.411,5.393c.006.113.008.226.008.339a7.6,7.6,0,0,1-7.858,7.461,8.122,8.122,0,0,1-4.233-1.179,5.732,5.732,0,0,0,.659.037,5.729,5.729,0,0,0,3.43-1.123,2.747,2.747,0,0,1-2.58-1.82,2.967,2.967,0,0,0,.52.047,2.9,2.9,0,0,0,.727-.092A2.661,2.661,0,0,1,1.869,6.492V6.459a2.872,2.872,0,0,0,1.251.328A2.589,2.589,0,0,1,1.891,4.605a2.511,2.511,0,0,1,.374-1.318A7.993,7.993,0,0,0,7.958,6.026a2.458,2.458,0,0,1-.072-.6,2.7,2.7,0,0,1,2.763-2.622,2.823,2.823,0,0,1,2.015.829A5.717,5.717,0,0,0,14.417,3,2.664,2.664,0,0,1,13.2,4.45a5.807,5.807,0,0,0,1.586-.414A5.474,5.474,0,0,1,13.411,5.393Z"/></svg>