<svg width="16" height="16" viewBox="0 0 16 16" fill="none" xmlns="http://www.w3.org/2000/svg">
<path fill-rule="evenodd" clip-rule="evenodd" d="M15.9923 4.2817C15.9212 5.8393 14.8332 7.97123 12.7292 10.6793C10.554 13.5064 8.71307 14.92 7.20815 14.92C6.2748 14.92 5.48634 14.0594 4.84099 12.3373C4.41076 10.7584 3.97964 9.18033 3.54941 7.60139C3.07118 5.8802 2.55739 5.01872 2.00804 5.01872C1.88804 5.01872 1.46936 5.27032 0.752016 5.77263L0 4.80268C0.78935 4.10923 1.56803 3.41488 2.33427 2.71965C3.38763 1.81016 4.17876 1.33186 4.70588 1.28296C5.95035 1.16294 6.71659 2.01464 7.00459 3.83629C7.31571 5.80285 7.53083 7.02529 7.65172 7.50359C8.01084 9.13498 8.4064 9.94935 8.83663 9.94935C9.17175 9.94935 9.67576 9.42037 10.3451 8.36241C11.0153 7.30356 11.3745 6.49897 11.4225 5.94599C11.5185 5.03383 11.1593 4.57597 10.3451 4.57597C9.96288 4.57597 9.56732 4.66399 9.16108 4.83824C9.94777 2.26268 11.4509 1.01091 13.6678 1.08292C15.3114 1.13093 16.0866 2.1969 15.9923 4.2817Z" fill="#231F20"/>
</svg>
