<svg width="16" height="16" viewBox="0 0 16 16" fill="none" xmlns="http://www.w3.org/2000/svg">
<path fill-rule="evenodd" clip-rule="evenodd" d="M16 7.441V8.553C16 9.776 15.857 10.976 15.852 11.027C15.819 11.255 15.644 12.355 15.052 12.967C14.354 13.715 13.534 13.797 13.186 13.832L13.072 13.843C11.063 13.993 8.126 13.999 8.002 14C7.84 13.998 4.222 13.962 3.053 13.847L2.836 13.817C2.403 13.764 1.6 13.666 0.938 12.957C0.357 12.355 0.181 11.255 0.15 11.042C0.143 10.976 0 9.776 0 8.553V7.441C0 6.217 0.143 5.018 0.148 4.968C0.181 4.739 0.357 3.639 0.949 3.028C1.646 2.278 2.466 2.197 2.815 2.162L2.929 2.15C4.938 2.002 7.873 2 7.997 2H8.004C8.128 2 11.062 2.002 13.072 2.15L13.186 2.162C13.534 2.197 14.354 2.278 15.063 3.039C15.644 3.639 15.819 4.739 15.85 4.953C15.857 5.018 16 6.217 16 7.441ZM13.834 4.198C13.55 3.893 13.268 3.866 13.018 3.84L12.907 3.829C10.999 3.688 8.033 3.687 8.004 3.687H7.997C7.968 3.687 5.001 3.688 3.054 3.833C2.733 3.866 2.45 3.893 2.178 4.187C2.033 4.337 1.874 4.841 1.827 5.183C1.827 5.183 1.692 6.324 1.692 7.441V8.553C1.692 9.672 1.827 10.815 1.829 10.826C1.877 11.161 2.033 11.658 2.167 11.796C2.4 12.047 2.678 12.098 3.044 12.143C3.141 12.155 3.226 12.167 3.296 12.18C4.312 12.276 7.972 12.312 8.009 12.312C8.029 12.312 10.998 12.305 12.947 12.161C13.268 12.128 13.55 12.1 13.823 11.807C13.968 11.658 14.127 11.153 14.174 10.811C14.174 10.811 14.309 9.67 14.309 8.553V7.441C14.309 6.322 14.174 5.179 14.172 5.169C14.124 4.834 13.968 4.337 13.834 4.198ZM10.716 7.837L6.297 10.121L6.296 5.538L10.716 7.837Z" fill="#231F20"/>
</svg>
