<svg xmlns="http://www.w3.org/2000/svg" viewBox="0 0 16 16">
  <title>add-ons-outline</title>
  <g id="Layer_1" data-name="Layer 1">
    <g>
      <path d="M14.935,3.515h-.666v-1a.981.981,0,0,0-.98-.979H10.421a.981.981,0,0,0-.98.979v1H6.776v-1A.98.98,0,0,0,5.8,1.532H2.929a.981.981,0,0,0-.98.979v1H1.1A1.029,1.029,0,0,0,.071,4.542v9.519A1.029,1.029,0,0,0,1.1,15.088H14.935a1.029,1.029,0,0,0,1.028-1.027V4.542A1.029,1.029,0,0,0,14.935,3.515Zm-.373,10.173H1.472V4.915H3.35V2.932H5.376V4.915h5.466V2.932h2.026V4.915h1.694Z" fill="#231f20" fill-rule="evenodd"/>
      <path d="M10.259,8.565H8.89V7.2a.1.1,0,0,0-.1-.1H7.266a.1.1,0,0,0-.1.1V8.565H5.8a.1.1,0,0,0-.1.1v1.522a.1.1,0,0,0,.1.1H7.164V11.66a.1.1,0,0,0,.1.1H8.788a.1.1,0,0,0,.1-.1V10.291h1.369a.1.1,0,0,0,.1-.1V8.667A.1.1,0,0,0,10.259,8.565Z" fill="#231f20" fill-rule="evenodd"/>
    </g>
  </g>
</svg>
