<svg xmlns="http://www.w3.org/2000/svg" viewBox="0 0 16 16"><title>add-ons-outline</title><g id="Layer_1" data-name="Layer 1"><path d="M14.93,3.51h-.66v-1a1,1,0,0,0-1-1H10.42a1,1,0,0,0-1,1v1H6.78v-1a1,1,0,0,0-1-1H2.93a1,1,0,0,0-1,1v1H1.1a1,1,0,0,0-1,1v9.52a1,1,0,0,0,1,1H14.93a1,1,0,0,0,1-1V4.54A1,1,0,0,0,14.93,3.51Zm-.37,10.18H1.47V4.92H3.35v-2h2v2h5.46v-2h2v2h1.69Zm-4.2-5v1.52a.09.09,0,0,1-.1.1H8.89v1.37a.1.1,0,0,1-.1.1H7.27a.1.1,0,0,1-.11-.1V10.29H5.8a.1.1,0,0,1-.11-.1V8.67a.1.1,0,0,1,.11-.1H7.16V7.2a.11.11,0,0,1,.11-.11H8.79a.11.11,0,0,1,.1.11V8.57h1.37A.09.09,0,0,1,10.36,8.67Z" fill-rule="evenodd"/></g></svg>