<svg width="16" height="16" viewBox="0 0 16 16" fill="none" xmlns="http://www.w3.org/2000/svg">
<path fill-rule="evenodd" clip-rule="evenodd" d="M15.3232 3.86369H13.1367V1.837C13.1364 1.72898 13.0934 1.62547 13.0169 1.54919C12.9404 1.4729 12.8368 1.43006 12.7288 1.43006H9.88753C9.77961 1.43006 9.67612 1.47293 9.59981 1.54925C9.5235 1.62556 9.48063 1.72907 9.48063 1.837V3.86369H6.65935V1.837C6.65908 1.72898 6.61599 1.62547 6.53952 1.54919C6.46306 1.4729 6.35946 1.43006 6.25145 1.43006H3.41017C3.35656 1.4298 3.30344 1.44013 3.25384 1.46046C3.20424 1.48079 3.15915 1.51072 3.12115 1.54854C3.08316 1.58635 3.05301 1.6313 3.03243 1.68081C3.01186 1.73031 3.00127 1.78339 3.00127 1.837V3.86369H0.676857C0.519889 3.86369 0.369349 3.92605 0.258356 4.03705C0.147362 4.14806 0.0850067 4.29861 0.0850067 4.4556V13.9781C0.0850067 14.0559 0.100315 14.1328 0.130059 14.2047C0.159802 14.2765 0.203397 14.3417 0.258356 14.3967C0.313314 14.4517 0.378559 14.4953 0.450366 14.525C0.522172 14.5547 0.599134 14.5701 0.676857 14.5701H15.3232C15.4009 14.5701 15.4778 14.5547 15.5496 14.525C15.6215 14.4953 15.6867 14.4517 15.7417 14.3967C15.7966 14.3417 15.8402 14.2765 15.87 14.2047C15.8997 14.1328 15.915 14.0559 15.915 13.9781V4.4556C15.915 4.29861 15.8527 4.14806 15.7417 4.03705C15.6307 3.92605 15.4801 3.86369 15.3232 3.86369V3.86369ZM10.3334 9.78179C10.3334 9.8083 10.3229 9.83373 10.3041 9.85248C10.2854 9.87124 10.26 9.88177 10.2334 9.88177H8.86279V11.2526C8.86279 11.2791 8.85226 11.3045 8.83351 11.3233C8.81476 11.342 8.78933 11.3525 8.76281 11.3525H7.2392C7.21268 11.3525 7.18725 11.342 7.16851 11.3233C7.14976 11.3045 7.13922 11.2791 7.13922 11.2526V9.88377H5.76857C5.74206 9.88377 5.71663 9.87324 5.69788 9.85448C5.67913 9.83573 5.6686 9.8103 5.6686 9.78378V8.26002C5.6686 8.2335 5.67913 8.20807 5.69788 8.18932C5.71663 8.17057 5.74206 8.16003 5.76857 8.16003H7.13722V6.79324C7.13722 6.76672 7.14776 6.74129 7.16651 6.72254C7.18526 6.70379 7.21068 6.69326 7.2372 6.69326H8.76081C8.78733 6.69326 8.81276 6.70379 8.83151 6.72254C8.85026 6.74129 8.86079 6.76672 8.86079 6.79324V8.15803H10.2294C10.256 8.15803 10.2814 8.16857 10.3001 8.18732C10.3189 8.20607 10.3294 8.2315 10.3294 8.25802L10.3334 9.78179Z" fill="black"/>
</svg>
