<svg xmlns="http://www.w3.org/2000/svg" viewBox="0 0 16 16"><title>assignments</title><g id="Layer_1" data-name="Layer 1"><path d="M3.47,12.8V12a1,1,0,0,1,.67-.94l1.2-.38v-.34l-.45-.29a.77.77,0,0,1-.35-.65v-1A1.41,1.41,0,0,1,6,7H6A1.39,1.39,0,0,1,7.47,8.4v1a.77.77,0,0,1-.35.65l-.45.29v.34l1.2.38a1,1,0,0,1,.66.94v.79c0,.08,0,.1-.13.1H3.63C3.55,12.9,3.47,12.88,3.47,12.8Zm8,1.59a1.17,1.17,0,0,1-1.17,1.17H1.45A1.17,1.17,0,0,1,.28,14.39V5.55A1.17,1.17,0,0,1,1.45,4.38h8.84a1.18,1.18,0,0,1,1.17,1.17ZM9.86,6h-8v8h8Zm4.27,4H12.8v1.59h1.92a1,1,0,0,0,1-1V8.67H14.13ZM5.88,2H7.21V.42H5.39c-.53,0-1.11.3-1.11.83V3.08h1.6ZM11.47.42H8.54V2h2.93Zm3.25,0H12.8V2h1.33V3.08h1.59V1.25A.89.89,0,0,0,14.72.42Zm-.59,6.91h1.59V4.41H14.13Z"/></g></svg>