<svg xmlns="http://www.w3.org/2000/svg" viewBox="0 0 16 16">
  <title>attendee-type-outline</title>
  <g id="Layer_1" data-name="Layer 1">
    <path d="M11.939,8.1a3.6,3.6,0,1,0,3.6,3.6A3.6,3.6,0,0,0,11.939,8.1Z" fill="none" stroke="#231f20" stroke-miterlimit="10"/>
    <path d="M10.512,4.852s.139-.756.194-1.338c.068-.725-.419-2.6-3.014-2.6S4.61,2.789,4.678,3.514c.055.582.194,1.338.194,1.338s-.275.126-.275.637c.1,1.282.6.729.7,1.291.251,1.353.822,1.112.822,1.851,0,1.231-.6,1.806-2.468,2.487S.561,12.5.561,12.974v1.26a.337.337,0,0,0,.338.337h8.62A3.744,3.744,0,0,1,9.286,9.01a3.009,3.009,0,0,1-.026-.379c0-.739.571-.5.822-1.851.1-.562.608-.009.705-1.291C10.787,4.978,10.512,4.852,10.512,4.852Z" fill="none" stroke="#231f20" stroke-miterlimit="10"/>
    <path d="M11.932,14.382a.583.583,0,0,1-.559-.54.114.114,0,0,1,0-.027.086.086,0,0,1,0-.029.56.56,0,0,1,1.119.029A.577.577,0,0,1,11.932,14.382Z" fill="#231f20"/>
    <path d="M13.049,11.333c-.246.225-1.133.643-.7,1.062a.092.092,0,0,1-.04.152l-.6.2a.091.091,0,0,1-.089-.023.953.953,0,0,1-.26-.619.089.089,0,0,1,0-.023.069.069,0,0,1,0-.025c.034-.545.46-.752.839-1.069.252-.21.376-.638-.069-.739a1.076,1.076,0,0,0-1.108.413.091.091,0,0,1-.129,0l-.455-.5a.09.09,0,0,1,0-.128,1.981,1.981,0,0,1,1.716-.684,1.351,1.351,0,0,1,1.182.723A1.138,1.138,0,0,1,13.049,11.333Z" fill="#231f20"/>
  </g>
</svg>
