<svg xmlns="http://www.w3.org/2000/svg" viewBox="0 0 16 16"><title>attendee-type-outline</title><g id="Layer_1" data-name="Layer 1"><path d="M12.493,13.815a.577.577,0,0,1-.561.567.583.583,0,0,1-.559-.54.114.114,0,0,1,0-.027.086.086,0,0,1,0-.029.56.56,0,0,1,1.119.029Zm3.545-2.121a4.093,4.093,0,0,1-6.415,3.377H.9a.837.837,0,0,1-.836-.837v-1.26c0-.295,0-1.078,3.423-2.326C5.326,9.978,5.623,9.5,5.623,8.631c0-.147-.014-.162-.144-.311a2.634,2.634,0,0,1-.668-1.449c-.384-.157-.646-.455-.713-1.344a1.432,1.432,0,0,1,.237-.846c-.047-.28-.119-.737-.155-1.12a2.862,2.862,0,0,1,.75-2.088A3.549,3.549,0,0,1,7.692.417a3.549,3.549,0,0,1,2.762,1.056,2.862,2.862,0,0,1,.75,2.088c-.036.382-.107.837-.154,1.118a1.356,1.356,0,0,1,.237.81c-.067.917-.325,1.219-.718,1.411a2.859,2.859,0,0,1-.444,1.137A4.055,4.055,0,0,1,11.938,7.6,4.1,4.1,0,0,1,16.038,11.694ZM8.4,14.071A4.233,4.233,0,0,1,8.767,8.83c0-.064-.007-.131-.007-.2a1.308,1.308,0,0,1,.394-.972,1.672,1.672,0,0,0,.437-.971.868.868,0,0,1,.532-.683c.055-.028.133-.121.165-.553a.3.3,0,0,0-.046-.183l-.353-.163.132-.345c0-.006.134-.733.187-1.294a1.875,1.875,0,0,0-.493-1.321,2.614,2.614,0,0,0-2.023-.729,2.613,2.613,0,0,0-2.023.729,1.87,1.87,0,0,0-.493,1.321c.053.561.186,1.288.187,1.294l.072.382-.33.151a1.616,1.616,0,0,0-.008.2.99.99,0,0,0,.109.489.912.912,0,0,1,.587.71,1.667,1.667,0,0,0,.436.971,1.308,1.308,0,0,1,.394.972c0,1.629-.982,2.3-2.8,2.957-2.079.758-2.708,1.3-2.775,1.446l.009,1.037Zm6.639-2.377a3.1,3.1,0,1,0-3.1,3.1A3.1,3.1,0,0,0,15.038,11.694ZM12.161,9.348a1.983,1.983,0,0,0-1.716.683.091.091,0,0,0,0,.129l.455.5a.091.091,0,0,0,.129,0,1.075,1.075,0,0,1,1.107-.413c.446.1.322.529.07.739-.379.317-.8.524-.839,1.069a.069.069,0,0,0,0,.025.089.089,0,0,0,0,.023.953.953,0,0,0,.26.619.091.091,0,0,0,.089.023l.6-.2a.092.092,0,0,0,.04-.152c-.436-.419.451-.837.7-1.062a1.138,1.138,0,0,0,.294-1.262A1.351,1.351,0,0,0,12.161,9.348Z"/></g></svg>