<svg xmlns="http://www.w3.org/2000/svg" viewBox="0 0 16 16"><title>attendee-type</title><g id="Layer_1" data-name="Layer 1"><path d="M12.75,9.28A3.23,3.23,0,1,0,16,12.51,3.23,3.23,0,0,0,12.75,9.28Zm0,5.43a.47.47,0,0,1-.45-.44v0a.46.46,0,0,1,.91,0A.47.47,0,0,1,12.74,14.71Zm.91-2.48c-.2.18-.92.52-.56.86a.08.08,0,0,1,0,.13l-.48.16a.06.06,0,0,1-.07,0,.81.81,0,0,1-.22-.5v0c0-.45.38-.61.69-.87s.3-.52-.06-.6a.85.85,0,0,0-.9.33.08.08,0,0,1-.11,0l-.37-.41a.08.08,0,0,1,0-.1,1.6,1.6,0,0,1,1.4-.56,1.08,1.08,0,0,1,1,.59A.91.91,0,0,1,13.65,12.23Z"/><path d="M11.15,4.85s.16-.84.22-1.5C11.45,2.54,10.9.45,8,.45S4.55,2.54,4.63,3.35c.06.66.22,1.5.22,1.5s-.31.14-.31.71c.11,1.44.67.82.79,1.45.28,1.51.92,1.24.92,2.07,0,1.38-.67,2-2.77,2.78S0,13.41,0,13.94v1.51A.55.55,0,0,0,.57,16H10a4.81,4.81,0,0,1-1.52-3.49,4.25,4.25,0,0,1,1.26-3c0-.13,0-.27,0-.42,0-.83.64-.56.92-2.07.12-.63.68,0,.79-1.45C11.46,5,11.15,4.85,11.15,4.85ZM15.46,16H16v-.52A4.26,4.26,0,0,1,15.46,16Z"/></g></svg>