<svg xmlns="http://www.w3.org/2000/svg" viewBox="0 0 16 16">
  <title>bank</title>
  <g id="Layer_1" data-name="Layer 1">
    <g>
      <path d="M13.778.118H2.222A1.214,1.214,0,0,0,1.009,1.331V12.888A1.215,1.215,0,0,0,2.1,14.1v.418A1.448,1.448,0,0,0,3.548,15.96H4.875a1.448,1.448,0,0,0,1.446-1.447V14.1H9.61v.412a1.448,1.448,0,0,0,1.446,1.447h1.327a1.448,1.448,0,0,0,1.446-1.447V14.1a1.213,1.213,0,0,0,1.162-1.21V1.331A1.214,1.214,0,0,0,13.778.118ZM2.222,1.329l11.559,0,0,11.559h0l-11.559,0ZM5.11,14.513a.235.235,0,0,1-.235.236H3.548a.236.236,0,0,1-.236-.236v-.389h1.8Zm7.509,0a.236.236,0,0,1-.236.236H11.056a.236.236,0,0,1-.236-.236v-.389h1.8Z" fill="#010101"/>
      <path d="M3.053,12.056h9.894V2.163H3.053ZM4.264,3.373h7.472v7.473H4.264Z" fill="#010101"/>
      <path d="M10.252,6.589h-.3a2.005,2.005,0,0,0-.164-.423l.3-.3a.605.605,0,1,0-.856-.856l-.3.3a2.038,2.038,0,0,0-.414-.163V4.86a.606.606,0,1,0-1.211,0v.322a2.114,2.114,0,0,0-.268.114l-.285-.285a.605.605,0,0,0-.856.856l.276.276A1.961,1.961,0,0,0,6,6.589H5.582a.606.606,0,0,0,0,1.211h.47a2.132,2.132,0,0,0,.119.272L5.9,8.341a.605.605,0,0,0,.856.856l.272-.271a2.124,2.124,0,0,0,.281.121v.482a.606.606,0,1,0,1.211,0V9.085a2.1,2.1,0,0,0,.428-.17l.282.282a.605.605,0,0,0,.856-.856L9.8,8.049A2.2,2.2,0,0,0,9.9,7.8h.348a.606.606,0,0,0,0-1.211ZM7.978,7.734a.62.62,0,1,1,.62-.62A.621.621,0,0,1,7.978,7.734Z" fill="#010101"/>
    </g>
  </g>
</svg>
