<svg xmlns="http://www.w3.org/2000/svg" viewBox="0 0 16 16">
  <title>bell</title>
  <g id="Layer_1" data-name="Layer 1">
    <path d="M14.885,11.5,13.063,9.432v-3.1A4.8,4.8,0,0,0,8.18,1.623,4.8,4.8,0,0,0,3.3,6.332v3.1L1.474,11.5a1.193,1.193,0,0,0-.187,1.323,1.275,1.275,0,0,0,1.166.72H6.092a2.256,2.256,0,0,0,4.174,0h3.64a1.275,1.275,0,0,0,1.166-.72A1.193,1.193,0,0,0,14.885,11.5Zm-.732.913a.264.264,0,0,1-.247.153H2.453a.264.264,0,0,1-.247-.153.247.247,0,0,1,.04-.28l1.943-2.2a.479.479,0,0,0,.121-.317V6.332A3.807,3.807,0,0,1,8.18,2.6a3.807,3.807,0,0,1,3.869,3.732V9.611a.479.479,0,0,0,.121.317l1.943,2.2A.247.247,0,0,1,14.153,12.411Z" fill="#010101"/>
  </g>
</svg>
