<svg width="16" height="16" viewBox="0 0 16 16" fill="none" xmlns="http://www.w3.org/2000/svg">
<path d="M14.803 6.04948V2.61951C14.8081 2.38803 14.7212 2.16398 14.5614 1.99655C14.4016 1.82912 14.182 1.73199 13.9507 1.72648H12.7273V0.925549C12.7372 0.807786 12.7225 0.689249 12.6843 0.577438C12.6461 0.465628 12.585 0.362977 12.5051 0.275981C12.4252 0.188985 12.3281 0.119538 12.22 0.0720333C12.1119 0.0245284 11.9951 0 11.877 0C11.7589 0 11.6421 0.0245284 11.534 0.0720333C11.4258 0.119538 11.3288 0.188985 11.2488 0.275981C11.1689 0.362977 11.1079 0.465628 11.0697 0.577438C11.0314 0.689249 11.0168 0.807786 11.0267 0.925549V1.72648H4.85052V0.925549C4.86041 0.807786 4.84578 0.689249 4.80754 0.577438C4.7693 0.465628 4.70829 0.362977 4.62836 0.275981C4.54844 0.188985 4.45135 0.119538 4.34322 0.0720333C4.2351 0.0245284 4.1183 0 4.00022 0C3.88214 0 3.76534 0.0245284 3.65721 0.0720333C3.54909 0.119538 3.452 0.188985 3.37207 0.275981C3.29215 0.362977 3.23114 0.465628 3.1929 0.577438C3.15466 0.689249 3.14003 0.807786 3.14992 0.925549V1.72648H2.02152C1.79042 1.73225 1.57103 1.8295 1.41145 1.9969C1.25187 2.1643 1.16512 2.3882 1.17023 2.61951V15.108C1.16513 15.3392 1.2519 15.563 1.41151 15.7302C1.57112 15.8975 1.79051 15.9945 2.02152 16H13.9507C14.1819 15.9947 14.4015 15.8978 14.5614 15.7306C14.7212 15.5633 14.8081 15.3393 14.803 15.108V6.3248C14.8155 6.27983 14.8245 6.23398 14.83 6.18764C14.8246 6.14096 14.8156 6.09477 14.803 6.04948ZM13.1024 14.2159H2.87382V7.07967H13.0984L13.1024 14.2159ZM13.1024 5.29561H2.87382V3.50854H13.0984L13.1024 5.29561ZM4.85452 10.2013C5.03118 10.2083 5.20589 10.1622 5.3562 10.0691C5.50651 9.97589 5.62554 9.83987 5.698 9.67847C5.77045 9.51706 5.79302 9.33766 5.7628 9.16332C5.73257 8.98898 5.65094 8.82768 5.5284 8.70013C5.40585 8.57259 5.24799 8.48464 5.07511 8.44759C4.90223 8.41054 4.72223 8.42608 4.55824 8.49222C4.39426 8.55836 4.25378 8.67207 4.15488 8.81873C4.05597 8.9654 4.00316 9.13832 4.00322 9.31526C4.00056 9.42921 4.02038 9.54256 4.06154 9.64883C4.1027 9.75511 4.16439 9.85222 4.24309 9.9346C4.32179 10.017 4.41595 10.083 4.52017 10.129C4.6244 10.1749 4.73666 10.1998 4.85052 10.2023L4.85452 10.2013ZM8.01663 10.2013C8.19332 10.2085 8.36813 10.1626 8.51856 10.0696C8.669 9.97653 8.78818 9.84058 8.86079 9.6792C8.9334 9.51782 8.95612 9.3384 8.92601 9.164C8.89591 8.98959 8.81437 8.82819 8.69187 8.70055C8.56937 8.5729 8.41152 8.48485 8.23861 8.44771C8.06571 8.41058 7.88566 8.42605 7.72161 8.49216C7.55757 8.55826 7.41703 8.67196 7.31808 8.81864C7.21912 8.96532 7.16627 9.13828 7.16633 9.31526C7.16123 9.54515 7.24748 9.76766 7.40615 9.93397C7.56481 10.1003 7.78293 10.1968 8.01262 10.2023L8.01663 10.2013ZM11.1797 10.2013C11.3565 10.2093 11.5316 10.1641 11.6826 10.0717C11.8335 9.97917 11.9533 9.84359 12.0265 9.68238C12.0998 9.52116 12.1232 9.34169 12.0936 9.16707C12.0641 8.99245 11.983 8.83068 11.8608 8.70259C11.7386 8.5745 11.5808 8.48596 11.4079 8.44836C11.235 8.41076 11.0548 8.42583 10.8905 8.49163C10.7262 8.55742 10.5853 8.67094 10.486 8.81755C10.3868 8.96416 10.3336 9.13715 10.3334 9.31426C10.3281 9.54364 10.4136 9.76582 10.5715 9.93223C10.7293 10.0986 10.9466 10.1957 11.1757 10.2023L11.1797 10.2013ZM4.85052 12.8784C5.02731 12.8862 5.20239 12.8408 5.3532 12.7482C5.50402 12.6555 5.62367 12.5198 5.69674 12.3585C5.76982 12.1972 5.79298 12.0177 5.76323 11.8431C5.73348 11.6685 5.6522 11.5069 5.52984 11.3789C5.40748 11.251 5.24966 11.1626 5.07668 11.1252C4.90371 11.0878 4.72351 11.1031 4.55929 11.1691C4.39507 11.2351 4.25435 11.3487 4.15524 11.4955C4.05614 11.6422 4.00319 11.8153 4.00322 11.9924C4.0007 12.1062 4.02061 12.2195 4.06183 12.3256C4.10305 12.4318 4.16477 12.5288 4.24345 12.6111C4.32214 12.6933 4.41625 12.7593 4.52041 12.8052C4.62457 12.851 4.73674 12.8759 4.85052 12.8784ZM8.01262 12.8784C8.18945 12.8864 8.36462 12.8412 8.51556 12.7487C8.6665 12.6562 8.7863 12.5205 8.85954 12.3592C8.93277 12.198 8.95607 12.0184 8.92645 11.8438C8.89682 11.6692 8.81562 11.5074 8.69331 11.3793C8.571 11.2513 8.41318 11.1628 8.24019 11.1253C8.06719 11.0878 7.88694 11.1031 7.72266 11.169C7.55838 11.235 7.4176 11.3486 7.31844 11.4954C7.21929 11.6421 7.16631 11.8152 7.16633 11.9924C7.16123 12.2221 7.24751 12.4446 7.40621 12.6107C7.5649 12.7769 7.78302 12.8731 8.01262 12.8784ZM11.1757 12.8784C11.3526 12.8864 11.5277 12.8412 11.6787 12.7487C11.8296 12.6562 11.9494 12.5205 12.0226 12.3592C12.0959 12.198 12.1192 12.0184 12.0896 11.8438C12.0599 11.6692 11.9787 11.5074 11.8564 11.3793C11.7341 11.2513 11.5763 11.1628 11.4033 11.1253C11.2303 11.0878 11.05 11.1031 10.8858 11.169C10.7215 11.235 10.5807 11.3486 10.4816 11.4954C10.3824 11.6421 10.3294 11.8152 10.3294 11.9924C10.3243 12.2221 10.4106 12.4446 10.5693 12.6107C10.728 12.7769 10.9461 12.8731 11.1757 12.8784Z" fill="black"/>
</svg>
