<svg xmlns="http://www.w3.org/2000/svg" viewBox="0 0 16 16"><title>calendar-outline</title><g id="Layer_1" data-name="Layer 1"><path d="M14.76,6V2.61a.87.87,0,0,0-.85-.89H12.68V.92a.85.85,0,1,0-1.7,0v.8H4.81V.92A.87.87,0,0,0,4,0a.87.87,0,0,0-.85.89v.8H2a.87.87,0,0,0-.85.89V15.09A.87.87,0,0,0,2,16H13.91a.87.87,0,0,0,.85-.89V6.31a.47.47,0,0,0,0-.27Zm-1.71,8.15H2.83V7.07H13.05Zm0-8.91H2.83V3.5H13.05ZM4.81,10.19a.87.87,0,0,0,.85-.89A.85.85,0,1,0,4,9.3.87.87,0,0,0,4.81,10.19Zm3.16,0a.87.87,0,0,0,.85-.89.85.85,0,1,0-1.7,0A.87.87,0,0,0,8,10.19Zm3.16,0A.87.87,0,0,0,12,9.3a.85.85,0,1,0-.85.89ZM4.81,12.86A.87.87,0,0,0,5.66,12,.85.85,0,1,0,4,12,.87.87,0,0,0,4.81,12.86Zm3.16,0A.87.87,0,0,0,8.82,12a.85.85,0,1,0-1.7,0A.87.87,0,0,0,8,12.86Zm3.16,0A.87.87,0,0,0,12,12a.85.85,0,1,0-.85.89Z"/></g></svg>