<svg xmlns="http://www.w3.org/2000/svg" viewBox="0 0 16 16"><title>capacity</title><g id="Layer_1" data-name="Layer 1"><path d="M8.73,7.81,6.92,7A3,3,0,1,0,3.65,7l-1.8.81a2.53,2.53,0,0,0-1.48,2.3v2.43A1.83,1.83,0,0,0,2.2,14.37H8.38a1.83,1.83,0,0,0,1.83-1.83V10.11A2.53,2.53,0,0,0,8.73,7.81Zm-3.46-5A1.65,1.65,0,1,1,3.63,4.43,1.65,1.65,0,0,1,5.27,2.78Zm3.54,9.76a.43.43,0,0,1-.43.43H2.2a.42.42,0,0,1-.42-.43V10.11a1.11,1.11,0,0,1,.65-1l2.86-1.3,2.86,1.3a1.12,1.12,0,0,1,.66,1Z"/><path d="M14.38,6.67l-1.11-.51a2.47,2.47,0,1,0-4-1.9,2.49,2.49,0,0,0,.91,1.91l-.25.11a.7.7,0,0,0-.34.93.69.69,0,0,0,.92.34L11.71,7l2.09,1a.68.68,0,0,1,.4.62V10.4a.15.15,0,0,1-.15.15H11.91a.7.7,0,0,0,0,1.4h2.14A1.54,1.54,0,0,0,15.6,10.4V8.56A2.08,2.08,0,0,0,14.38,6.67ZM11.7,3.18a1.08,1.08,0,1,1-1.08,1.08A1.07,1.07,0,0,1,11.7,3.18Z"/></g></svg>