<svg width="16" height="16" viewBox="0 0 16 16" fill="none" xmlns="http://www.w3.org/2000/svg">
<path d="M8.74375 7.94261L6.93116 7.11731C7.48678 6.76082 7.91176 6.23368 8.14224 5.61506C8.37273 4.99644 8.3963 4.31973 8.2094 3.68657C8.0225 3.05341 7.63522 2.49798 7.10574 2.10371C6.57626 1.70944 5.93315 1.4976 5.27301 1.50002C4.61287 1.50244 3.97133 1.71898 3.44475 2.11713C2.91818 2.51527 2.53498 3.07352 2.35273 3.70803C2.17048 4.34255 2.199 5.01906 2.43402 5.63598C2.66904 6.2529 3.09786 6.77691 3.65608 7.12931L1.8635 7.94561C1.42249 8.14711 1.04868 8.4711 0.786561 8.87902C0.524443 9.28693 0.385061 9.76157 0.38501 10.2464V12.6813C0.387125 13.1642 0.580366 13.6267 0.922475 13.9675C1.26458 14.3083 1.72772 14.4997 2.21061 14.5H8.39764C8.88131 14.4992 9.34494 14.3067 9.68695 13.9647C10.029 13.6227 10.2214 13.159 10.2222 12.6753V10.2404C10.2214 9.75614 10.0816 9.28224 9.81956 8.87496C9.55751 8.46768 9.18414 8.1441 8.74375 7.94261ZM5.28662 2.90877C5.61267 2.90877 5.9314 3.00546 6.2025 3.18661C6.4736 3.36776 6.6849 3.62524 6.80967 3.92648C6.93445 4.22772 6.96709 4.5592 6.90348 4.879C6.83987 5.1988 6.68287 5.49255 6.45231 5.72311C6.22176 5.95367 5.92802 6.11068 5.60823 6.1743C5.28845 6.23791 4.95698 6.20526 4.65575 6.08048C4.35452 5.9557 4.09705 5.7444 3.91591 5.47329C3.73476 5.20217 3.63808 4.88343 3.63808 4.55737C3.63834 4.12022 3.81211 3.70104 4.12122 3.39193C4.43032 3.08281 4.84948 2.90904 5.28662 2.90877ZM8.81978 12.6753C8.81978 12.7874 8.77534 12.8949 8.6962 12.9742C8.61706 13.0535 8.50969 13.0982 8.39764 13.0985H2.21061C2.09847 13.0982 1.99099 13.0536 1.9117 12.9743C1.8324 12.895 1.78773 12.7875 1.78747 12.6753V10.2404C1.78779 10.025 1.84987 9.81422 1.96636 9.63301C2.08285 9.4518 2.24885 9.3078 2.44469 9.21807L5.30462 7.9176L8.16356 9.21807C8.3594 9.3078 8.5254 9.4518 8.64189 9.63301C8.75837 9.81422 8.82046 10.025 8.82078 10.2404L8.81978 12.6753Z" fill="black"/>
<path d="M14.3976 6.79419L13.2832 6.287C13.6789 5.96243 13.9644 5.52341 14.1007 5.03014C14.237 4.53688 14.2173 4.01353 14.0444 3.53187C13.8716 3.05022 13.5539 2.63384 13.135 2.33985C12.7162 2.04587 12.2166 1.88866 11.7049 1.8898C11.1932 1.89095 10.6943 2.05038 10.2768 2.34623C9.85925 2.64209 9.54346 3.05988 9.37272 3.5423C9.20199 4.02472 9.18467 4.54815 9.32316 5.04081C9.46164 5.53346 9.74913 5.9712 10.1462 6.29401L9.89713 6.40805C9.81339 6.44621 9.73798 6.5005 9.67521 6.5678C9.61244 6.63511 9.56355 6.71412 9.53132 6.80032C9.49908 6.88653 9.48415 6.97824 9.48735 7.07022C9.49056 7.16219 9.51186 7.25264 9.55002 7.33639C9.62709 7.50552 9.76819 7.63712 9.94228 7.70221C10.0285 7.73445 10.1202 7.74939 10.2122 7.74618C10.3041 7.74297 10.3946 7.72168 10.4783 7.68351L11.7227 7.11731L13.8144 8.06965C13.9335 8.1236 14.0345 8.21066 14.1055 8.32046C14.1764 8.43026 14.2143 8.55815 14.2145 8.68888V10.5306C14.2145 10.5703 14.1987 10.6085 14.1706 10.6367C14.1425 10.6648 14.1043 10.6806 14.0645 10.6806H11.9198C11.7341 10.6806 11.556 10.7544 11.4247 10.8857C11.2933 11.017 11.2196 11.1951 11.2196 11.3809C11.2196 11.5666 11.2933 11.7447 11.4247 11.876C11.556 12.0073 11.7341 12.0811 11.9198 12.0811H14.0645C14.4756 12.0806 14.8696 11.9171 15.1603 11.6264C15.451 11.3357 15.6145 10.9416 15.615 10.5306V8.68888C15.6146 8.2897 15.4996 7.89903 15.2838 7.5632C15.0681 7.22737 14.7605 6.96048 14.3976 6.79419ZM11.7137 3.30992C11.9267 3.31051 12.1347 3.3742 12.3115 3.49295C12.4882 3.61169 12.6258 3.78017 12.7069 3.97709C12.788 4.174 12.8089 4.39054 12.767 4.59933C12.7251 4.80813 12.6223 4.99982 12.4715 5.1502C12.3207 5.30057 12.1287 5.40289 11.9198 5.44422C11.7109 5.48554 11.4944 5.46403 11.2978 5.3824C11.1011 5.30077 10.933 5.16268 10.8147 4.98556C10.6965 4.80845 10.6334 4.60027 10.6334 4.38731C10.6335 4.24561 10.6616 4.10532 10.7159 3.97447C10.7703 3.84362 10.8499 3.72477 10.9503 3.62471C11.0506 3.52465 11.1697 3.44535 11.3007 3.39133C11.4317 3.33732 11.572 3.30965 11.7137 3.30992Z" fill="black"/>
</svg>
