<svg xmlns="http://www.w3.org/2000/svg" viewBox="0 0 16 16"><title>circle-money</title><g id="Layer_1" data-name="Layer 1"><path d="M8.43,9.94a1.18,1.18,0,0,1-.71.18,2.45,2.45,0,0,1-1-.2.6.6,0,0,0-.81.39.61.61,0,0,0,.36.75,3.68,3.68,0,0,0,1.16.23v.25a.65.65,0,0,0,1.29,0v-.4a2.17,2.17,0,0,0,.65-.36,1.7,1.7,0,0,0,.66-1.4,1.65,1.65,0,0,0-.4-1.13A3.08,3.08,0,0,0,8.42,7.5a2.7,2.7,0,0,1-.83-.4.53.53,0,0,1,0-.79.9.9,0,0,1,.57-.17A2.28,2.28,0,0,1,9,6.28a.59.59,0,0,0,.47,0,.58.58,0,0,0,.31-.34.6.6,0,0,0-.35-.76A3,3,0,0,0,8.77,5V4.56a.65.65,0,0,0-1.29,0v.5a2,2,0,0,0-.86.45A1.72,1.72,0,0,0,6,6.85c0,.8.57,1.41,1.7,1.79A2,2,0,0,1,8.46,9a.55.55,0,0,1,.18.45A.53.53,0,0,1,8.43,9.94Z"/><path d="M8,16.07a8,8,0,1,1,8-8A8,8,0,0,1,8,16.07ZM8,1.4a6.65,6.65,0,1,0,6.65,6.65A6.65,6.65,0,0,0,8,1.4Z"/></g></svg>