<svg xmlns="http://www.w3.org/2000/svg" viewBox="0 0 16 16">
  <title>circle-person</title>
  <g id="Layer_1" data-name="Layer 1">
    <g>
      <path d="M10.549,8.345h0L9.65,7.9a2.329,2.329,0,1,0-3.257,0l-.9.448a1.264,1.264,0,0,0-.7,1.138v1.445a1.206,1.206,0,0,0,1.205,1.205h4.055a1.206,1.206,0,0,0,1.205-1.2V9.484A1.265,1.265,0,0,0,10.549,8.345ZM8.021,5.277a.96.96,0,1,1-.959.96A.962.962,0,0,1,8.021,5.277Zm1.864,5.488H6.158V9.544l1.863-.928,1.864.928Z" fill="#010101"/>
      <path d="M8.021,0a8.021,8.021,0,1,0,8.022,8.021A8.03,8.03,0,0,0,8.021,0Zm0,14.673a6.652,6.652,0,1,1,6.652-6.652A6.659,6.659,0,0,1,8.021,14.673Z" fill="#010101"/>
    </g>
  </g>
</svg>
