<svg xmlns="http://www.w3.org/2000/svg" viewBox="0 0 16 16">
  <title>circle-money</title>
  <g id="Layer_1" data-name="Layer 1">
    <path d="M8.427,9.935a1.145,1.145,0,0,1-.707.186,2.434,2.434,0,0,1-.95-.2.6.6,0,0,0-.487.01.61.61,0,0,0,.038,1.122,3.707,3.707,0,0,0,1.163.235v.247a.643.643,0,1,0,1.286,0v-.367c0-.012,0-.023,0-.034a2.179,2.179,0,0,0,.658-.355,1.715,1.715,0,0,0,.66-1.4,1.647,1.647,0,0,0-.406-1.133A3.007,3.007,0,0,0,8.418,7.5,2.462,2.462,0,0,1,7.591,7.1a.494.494,0,0,1-.158-.374.5.5,0,0,1,.188-.411.859.859,0,0,1,.571-.172,2.157,2.157,0,0,1,.764.142.614.614,0,0,0,.476-.018.591.591,0,0,0,.31-.346.6.6,0,0,0-.348-.753A3,3,0,0,0,8.77,5.01V4.558a.643.643,0,0,0-1.286,0v.5a2.077,2.077,0,0,0-.86.444,1.728,1.728,0,0,0-.619,1.346c0,.8.569,1.405,1.692,1.789a2.17,2.17,0,0,1,.766.386.593.593,0,0,1,.182.453A.537.537,0,0,1,8.427,9.935Z" fill="#010101"/>
    <path d="M8.008,16.07a8.022,8.022,0,1,1,8.021-8.021A8.031,8.031,0,0,1,8.008,16.07Zm0-14.673A6.652,6.652,0,1,0,14.66,8.049,6.66,6.66,0,0,0,8.008,1.4Z" fill="#010101"/>
  </g>
</svg>
