<svg xmlns="http://www.w3.org/2000/svg" viewBox="0 0 16 16"><title>dial</title><g id="Layer_1" data-name="Layer 1"><path d="M11.215,9.087,8.058,8.769a1.489,1.489,0,0,0-.626.075,1.451,1.451,0,0,0,.481,2.82,1.469,1.469,0,0,0,.483-.083l2.991-1.054h0a.743.743,0,0,0-.173-1.44Zm-.058.79L8.167,10.93a.761.761,0,1,1-.251-1.478c.025,0,.05,0,.074,0l3.156.319a.058.058,0,0,1,.047.058A.053.053,0,0,1,11.157,9.877ZM8,.345a7.7,7.7,0,1,0,7.7,7.7A7.711,7.711,0,0,0,8,.345ZM8,15.058a7.012,7.012,0,1,1,7.014-7.012A7.021,7.021,0,0,1,8,15.058ZM8,2.5A5.553,5.553,0,0,0,2.452,8.046v.345H3.823V7.7H3.154a4.85,4.85,0,0,1,4.5-4.478V4.331h.69V3.223a4.85,4.85,0,0,1,4.5,4.478h-.672v.69h1.374V8.046A5.553,5.553,0,0,0,8,2.5Z"/></g></svg>