<svg width="16" height="16" viewBox="0 0 16 16" fill="none" xmlns="http://www.w3.org/2000/svg">
<path d="M10.3563 5.22826C10.0637 4.88328 9.70478 4.60035 9.30084 4.39619C8.89708 4.19393 8.45074 4.09106 7.99906 4.09617C7.54752 4.09228 7.10146 4.19509 6.69728 4.39619C6.29181 4.59974 5.9315 4.88272 5.63783 5.22826C5.32976 5.59652 5.09215 6.01824 4.93688 6.47237C4.59375 7.4623 4.59375 8.53869 4.93688 9.52862C5.0939 9.98301 5.33319 10.4047 5.64284 10.7727C5.93706 11.1177 6.29724 11.4006 6.70229 11.6048C7.10559 11.8054 7.55 11.9098 8.00056 11.9098C8.45112 11.9098 8.89554 11.8054 9.29884 11.6048C9.70375 11.4008 10.0636 11.1179 10.3573 10.7727C10.6681 10.403 10.9121 9.982 11.0783 9.52862C11.4375 8.54145 11.4375 7.45954 11.0783 6.47237C10.912 6.01882 10.6677 5.59778 10.3563 5.22826ZM9.99179 10.2747H6.18658V9.2666H7.38823V6.65538C7.3652 6.69639 6.81645 7.20243 6.81645 7.20243L6.00033 6.42736L7.54644 5.12726H8.76811V9.2666H9.99179V10.2747ZM11.1594 1.996H8.98341V3.2021H11.1594V1.996ZM8.98341 14.005H11.1594V12.8049H8.98341V14.005ZM15.8979 2.29502C15.8449 2.20479 15.7695 2.12976 15.679 2.0772C15.5885 2.02463 15.4859 1.99632 15.3812 1.995H13.6468V3.2021H14.6482V4.35519H16V2.59004C15.9966 2.48366 15.961 2.3808 15.8979 2.29502ZM3.78831 11.8658C3.65056 11.577 3.4573 11.3181 3.21953 11.1038C2.97078 10.8834 2.68409 10.7099 2.37337 10.5917C2.04287 10.464 1.69134 10.3992 1.33695 10.4007V5.6003C1.69134 5.60181 2.04287 5.53702 2.37337 5.40928C2.68534 5.29178 2.97314 5.11824 3.22253 4.89724C3.46008 4.68269 3.6533 4.42381 3.79131 4.13517C3.93299 3.84456 4.00596 3.52533 4.0046 3.2021H6.49601V1.996H0.676051C0.4989 1.99119 0.326601 2.05415 0.194393 2.17201C0.133246 2.22315 0.0841364 2.28713 0.0505595 2.35938C0.0169827 2.43163 -0.000236539 2.51039 0.000127157 2.59004V13.3909C-0.00163189 13.4731 0.0148788 13.5547 0.0484705 13.6297C0.0820622 13.7048 0.131899 13.7715 0.194393 13.825C0.326234 13.9436 0.498697 14.0069 0.676051 14.002H6.49601V12.8019H4.0026C4.00379 12.4776 3.93048 12.1574 3.78831 11.8658ZM14.6472 8.92757H15.999V6.8424H14.6472V8.92757ZM14.6472 12.8019H13.6458V14.002H15.3802C15.4916 14.0011 15.6007 13.9697 15.6957 13.9114C15.7906 13.8531 15.8678 13.7699 15.9189 13.671C15.9698 13.5864 15.9971 13.4897 15.998 13.3909V11.4118H14.6461L14.6472 12.8019Z" fill="black"/>
</svg>
