<svg xmlns="http://www.w3.org/2000/svg" viewBox="0 0 16 16">
  <title>drag</title>
  <g id="Layer_1" data-name="Layer 1">
    <path d="M14.412,7.382,12.764,5.967a.594.594,0,0,0-.98.451v.748l-3.14,0V3.977h.7A.593.593,0,0,0,9.794,3L8.38,1.349a.594.594,0,0,0-.9,0L6.065,3a.593.593,0,0,0,.45.98h.7V7.162l-3.14,0V6.418a.594.594,0,0,0-.98-.451L1.447,7.382a.593.593,0,0,0,0,.9L3.1,9.7a.593.593,0,0,0,.98-.45V8.588l3.14,0v3.1h-.7a.593.593,0,0,0-.45.98l1.414,1.648a.594.594,0,0,0,.9,0l1.414-1.648a.593.593,0,0,0-.45-.98h-.7V8.592l3.14,0v.651a.593.593,0,0,0,.98.45l1.648-1.414A.593.593,0,0,0,14.412,7.382Z" fill="#010101"/>
  </g>
</svg>
