<svg width="16" height="16" viewBox="0 0 16 16" fill="none" xmlns="http://www.w3.org/2000/svg">
<path d="M14.4829 7.54954L12.8348 6.13449C12.7485 6.06074 12.6429 6.01324 12.5305 5.99762C12.418 5.98201 12.3035 5.99893 12.2004 6.04638C12.0973 6.09383 12.0099 6.16982 11.9487 6.26537C11.8874 6.36091 11.8548 6.47201 11.8547 6.58551V7.33354H8.71442V4.14442H9.41448C9.52753 4.14407 9.63812 4.11141 9.73322 4.0503C9.82832 3.98919 9.90397 3.90217 9.95127 3.7995C9.99856 3.69683 10.0155 3.58278 10.0002 3.47078C9.98478 3.35879 9.93772 3.25353 9.86452 3.16739L8.4504 1.51633C8.39463 1.45161 8.32556 1.39968 8.2479 1.36408C8.17023 1.32849 8.0858 1.31006 8.00036 1.31006C7.91493 1.31006 7.8305 1.32849 7.75283 1.36408C7.67517 1.39968 7.60609 1.45161 7.55033 1.51633L6.13521 3.16739C6.06107 3.25346 6.01321 3.35901 5.99733 3.47149C5.98145 3.58396 5.9982 3.69864 6.04561 3.80187C6.09301 3.9051 6.16907 3.99254 6.26473 4.0538C6.3604 4.11506 6.47164 4.14756 6.58524 4.14743H7.2853V7.32954H4.14504V6.58551C4.14495 6.47201 4.11234 6.36091 4.05107 6.26537C3.9898 6.16982 3.90245 6.09383 3.79934 6.04638C3.69623 5.99893 3.58168 5.98201 3.46925 5.99762C3.35683 6.01324 3.25123 6.06074 3.16496 6.13449L1.51682 7.54954C1.45194 7.60522 1.39987 7.67425 1.36418 7.75193C1.32848 7.8296 1.31 7.91408 1.31 7.99956C1.31 8.08504 1.32848 8.16952 1.36418 8.24719C1.39987 8.32486 1.45194 8.3939 1.51682 8.44957L3.16996 9.86762C3.25603 9.94176 3.36158 9.98961 3.47407 10.0055C3.58655 10.0214 3.70123 10.0046 3.80447 9.95722C3.9077 9.90982 3.99515 9.83376 4.05641 9.7381C4.11767 9.64244 4.15017 9.5312 4.15004 9.41761V8.75559H7.2903V11.8557H6.59024C6.47665 11.8556 6.3654 11.8881 6.26973 11.9493C6.17407 12.0106 6.09801 12.098 6.05061 12.2012C6.0032 12.3045 5.98645 12.4192 6.00233 12.5316C6.01821 12.6441 6.06607 12.7497 6.14021 12.8357L7.55433 14.4838C7.61009 14.5485 7.67917 14.6004 7.75683 14.636C7.8345 14.6716 7.91893 14.6901 8.00436 14.6901C8.0898 14.6901 8.17423 14.6716 8.2519 14.636C8.32956 14.6004 8.39863 14.5485 8.4544 14.4838L9.86852 12.8357C9.94266 12.7497 9.99051 12.6441 10.0064 12.5316C10.0223 12.4192 10.0055 12.3045 9.95812 12.2012C9.91072 12.098 9.83466 12.0106 9.73899 11.9493C9.64333 11.8881 9.53208 11.8556 9.41848 11.8557H8.71842V8.75959H11.8587V9.41061C11.8586 9.5242 11.8911 9.63544 11.9523 9.7311C12.0136 9.82676 12.101 9.90282 12.2043 9.95022C12.3075 9.99762 12.4222 10.0144 12.5347 9.99849C12.6471 9.98261 12.7527 9.93476 12.8388 9.86062L14.4869 8.44657C14.551 8.39062 14.6023 8.32152 14.6374 8.24397C14.6724 8.16642 14.6904 8.08224 14.69 7.99714C14.6896 7.91205 14.6709 7.82803 14.6352 7.7508C14.5995 7.67356 14.5475 7.60493 14.4829 7.54954Z" fill="black"/>
</svg>
