<svg xmlns="http://www.w3.org/2000/svg" viewBox="0 0 16 16"><defs><style>.cls-1{fill:#231f20;}</style></defs><title>email-envelope</title><g id="Layer_1" data-name="Layer 1"><path class="cls-1" d="M.86,4.635,7.3,7.761a1.072,1.072,0,0,0,.818,0l6.948-3.433a.358.358,0,0,0,.2-.321,1,1,0,0,0-1-1H1.67A1.016,1.016,0,0,0,.659,4.018v.3A.358.358,0,0,0,.86,4.635Zm13.761,1.5-5.867,2.9a2.474,2.474,0,0,1-2.048.006L1.3,6.427a.448.448,0,0,0-.643.406V11.49a.978.978,0,0,0,.973.978H14.184a1.089,1.089,0,0,0,1.083-1.088V6.537A.448.448,0,0,0,14.621,6.133Z"/></g></svg>