<svg xmlns="http://www.w3.org/2000/svg" viewBox="0 0 16 16"><title>eve-closed</title><g id="Layer_1" data-name="Layer 1"><path d="M15.12,8a12.06,12.06,0,0,0-1.86-2.26.58.58,0,0,0-.83,0,.62.62,0,0,0,0,.86,10.53,10.53,0,0,1,1.45,1.69A9,9,0,0,1,11.15,11a.61.61,0,0,0-.23.83.57.57,0,0,0,.8.23,10.34,10.34,0,0,0,3.4-3.41A.64.64,0,0,0,15.12,8Zm-3-4.29A.62.62,0,0,0,12,2.87a.58.58,0,0,0-.82.16l-.63,1a4.76,4.76,0,0,0-.83-.23c-3-.69-6.15.88-8.3,4.22a.64.64,0,0,0,0,.68,10.25,10.25,0,0,0,3.75,3.6l-.58.89a.62.62,0,0,0,.16.84.57.57,0,0,0,.33.11.61.61,0,0,0,.49-.27l2.34-3.6a2.33,2.33,0,0,0,.38,0,1.92,1.92,0,0,0,1.87-1.95,2,2,0,0,0-.31-1.08ZM8.89,6.52a1.68,1.68,0,0,0-.63-.12A1.91,1.91,0,0,0,6.38,8.34a1.94,1.94,0,0,0,.48,1.29L5.8,11.26A8.7,8.7,0,0,1,2.59,8.34C4.47,5.61,7,4.39,9.48,5L9.6,5a1.33,1.33,0,0,1,.25,0Z"/></g></svg>