<svg xmlns="http://www.w3.org/2000/svg" viewBox="0 0 16 16"><title>eve-closed</title><g id="Layer_1" data-name="Layer 1"><path d="M15.122,8a11.651,11.651,0,0,0-1.864-2.259.573.573,0,0,0-.829.047.624.624,0,0,0,.046.86,10.207,10.207,0,0,1,1.444,1.689,8.874,8.874,0,0,1-2.774,2.686.62.62,0,0,0-.222.829.581.581,0,0,0,.512.309.564.564,0,0,0,.288-.079,10.293,10.293,0,0,0,3.4-3.408A.627.627,0,0,0,15.122,8Zm-3-4.29a.622.622,0,0,0-.16-.845.574.574,0,0,0-.815.165l-.634.975a4.445,4.445,0,0,0-.824-.228c-3.057-.7-6.156.881-8.3,4.223a.627.627,0,0,0,0,.674,10.126,10.126,0,0,0,3.749,3.6l-.58.891a.623.623,0,0,0,.16.845.571.571,0,0,0,.327.1.58.58,0,0,0,.488-.269l2.343-3.6a1.816,1.816,0,0,0,.378.039,1.911,1.911,0,0,0,1.877-1.944,1.984,1.984,0,0,0-.315-1.078Zm-3.24,2.8a1.791,1.791,0,0,0-.63-.121A1.912,1.912,0,0,0,6.379,8.341a1.972,1.972,0,0,0,.482,1.29L5.805,11.256A8.6,8.6,0,0,1,2.593,8.341C4.475,5.609,6.968,4.387,9.484,4.98A.577.577,0,0,0,9.6,5a1.782,1.782,0,0,1,.251.037Z"/></g></svg>