<svg xmlns="http://www.w3.org/2000/svg" viewBox="0 0 16 16">
  <title>event-settings</title>
  <g id="Layer_1" data-name="Layer 1">
    <path d="M14.827,10.245l-.18-.694.481-.929L14.112,7.489l-1.027.546L12.418,7.7l-.273-.946-1.44-.008-.376,1.009-.653.282-.937-.491-1.066.738.461.984-.334.761-1.031.305L6.8,11.823l.946.191s.471.909.379.92a5.1,5.1,0,0,0-.545.907l.882,1.072,1.174-.642.645.417.224,1.06,1.474.036.315-1,.628-.234,1.053.431.988-.867-.432-.973.232-.65L15.9,12.1l.066-1.5Zm-3.2,2.993A2,2,0,1,1,13.466,11,2.047,2.047,0,0,1,11.63,13.238Z" fill="#010101"/>
    <g>
      <path d="M13.429,2.789h-.643V1a.442.442,0,0,0-.442-.442H9.215A.442.442,0,0,0,8.773,1V2.789H5.085V1A.442.442,0,0,0,4.643.563H1.535A.441.441,0,0,0,1.094,1V2.789H.477a.441.441,0,0,0-.442.441V14.214a.442.442,0,0,0,.442.442H6.951l-.563-.684.295-.583c.034-.068.063-.12.095-.184H1.527V4.293H12.383v1.46l.516,0,.311,1.08.661-.351V3.23A.441.441,0,0,0,13.429,2.789Zm-9.712.4H2.446V1.629H3.717Zm7.709,0h-1.3V1.629h1.3Z" fill="#010101" fill-rule="evenodd"/>
      <path d="M7.09,5.44a.13.13,0,0,0-.239,0L6,7.5a.132.132,0,0,1-.109.079l-2.221.178a.128.128,0,0,0-.073.226L5.285,9.43a.126.126,0,0,1,.041.128l-.517,2.167a.129.129,0,0,0,.193.14l.785-.48-.032-1.8,1.253-.371-.6-1.278,1.336-.924Z" fill="#010101" fill-rule="evenodd"/>
    </g>
  </g>
</svg>
