<svg xmlns="http://www.w3.org/2000/svg" viewBox="0 0 16 16"><title>event-settings</title><g id="Layer_1" data-name="Layer 1"><path d="M14.83,10.24l-.18-.69.48-.93-1-1.13-1,.54-.67-.33-.27-1H10.71l-.38,1L9.68,8l-.94-.5-1.07.74.46,1L7.8,10l-1,.3,0,1.49.94.19s.47.91.38.92a5.65,5.65,0,0,0-.55.91l.89,1.07,1.17-.64.65.42.22,1.06,1.47,0,.32-1,.63-.23L14,15l1-.87-.43-1,.23-.65,1.14-.39L16,10.6Zm-3.2,3A2,2,0,1,1,13.47,11,2,2,0,0,1,11.63,13.24Z"/><path d="M13.43,2.79h-.64V1a.45.45,0,0,0-.45-.44H9.22A.45.45,0,0,0,8.77,1V2.79H5.08V1A.44.44,0,0,0,4.64.56H1.54A.45.45,0,0,0,1.09,1V2.79H.48A.44.44,0,0,0,0,3.23v11a.44.44,0,0,0,.44.45H7L6.39,14l.29-.58.1-.18H1.53V4.29H12.38V5.75h.52l.31,1.08.66-.35V3.23A.44.44,0,0,0,13.43,2.79Zm-9.71.4H2.45V1.63H3.72Zm7.71,0h-1.3V1.63h1.3Z" fill-rule="evenodd"/><path d="M7.09,5.44a.13.13,0,0,0-.24,0L6,7.5a.15.15,0,0,1-.11.08l-2.22.17A.13.13,0,0,0,3.59,8L5.28,9.43a.13.13,0,0,1,0,.13l-.52,2.16a.13.13,0,0,0,.19.14l.79-.47,0-1.8L7,9.22l-.6-1.28L7.74,7Z" fill-rule="evenodd"/></g></svg>