<svg xmlns="http://www.w3.org/2000/svg" viewBox="0 0 16 16"><title>eye</title><g id="Layer_1" data-name="Layer 1"><path d="M8.169,6.519a1.923,1.923,0,1,0,1.877,1.922A1.9,1.9,0,0,0,8.169,6.519Zm6.865,1.589c-1.815-2.8-4.253-4.335-6.865-4.335S3.119,5.313,1.3,8.108a.613.613,0,0,0,0,.666c1.816,2.8,4.254,4.335,6.866,4.335s5.05-1.539,6.865-4.335A.613.613,0,0,0,15.034,8.108Zm-6.865,3.8c-2.1,0-4.1-1.227-5.663-3.465C4.066,6.2,6.065,4.977,8.169,4.977s4.1,1.226,5.663,3.464C12.271,10.679,10.272,11.906,8.169,11.906Z"/></g></svg>