<svg xmlns="http://www.w3.org/2000/svg" viewBox="0 0 16 16"><title>facebook-outline</title><g id="Layer_1" data-name="Layer 1"><path d="M11.76,4.963a1.278,1.278,0,0,0-1.01-.5H9.443V3.976h.766a1.257,1.257,0,0,0,1.264-1.237l.008-1.5A1.255,1.255,0,0,0,10.216,0H8.927c-.031,0-.078,0-.136,0A3.784,3.784,0,0,0,6.908.487a3.135,3.135,0,0,0-1.526,2.9v1.08H4.614a1.271,1.271,0,0,0-.894.364,1.238,1.238,0,0,0-.369.882l0,1.493A1.254,1.254,0,0,0,4.619,8.444h.762v6.227a1.254,1.254,0,0,0,1.264,1.242H8.17a1.254,1.254,0,0,0,1.264-1.242V8.444h.957a1.271,1.271,0,0,0,1.216-.9l.355-1.479A1.236,1.236,0,0,0,11.76,4.963ZM10.39,7.2H8.17v7.469H6.645V7.2H4.618l0-1.493H6.645V3.387A2.007,2.007,0,0,1,8.791,1.236c.061,0,.1,0,.1,0h1.329l-.008,1.494H8.889c-.727,0-.71.607-.71.607V5.709h2.57Z"/></g></svg>