<svg xmlns="http://www.w3.org/2000/svg" viewBox="0 0 16 16">
  <title>forms</title>
  <g id="Layer_1" data-name="Layer 1">
    <path d="M14.45,3.817h-2.6V3.23a.653.653,0,0,0-.208-.478L9.34.605A.655.655,0,0,0,8.9.431H1.724a.652.652,0,0,0-.652.652v10.46a.653.653,0,0,0,.652.653H3.7v2.623a.75.75,0,0,0,.75.75h10a.75.75,0,0,0,.75-.75V4.567A.75.75,0,0,0,14.45,3.817ZM7.667,1.592h1.2V3.51h1.945v1.2H8.167a.5.5,0,0,1-.5-.5ZM3.129,3.657H6.292V4.9H3.129Zm0,2.454H7.986v1.24H3.129Zm0,2.455H7.986v1.24H3.129Zm10.571,5.5H5.2V12.2h6a.653.653,0,0,0,.652-.653V5.317H13.7Z" fill="#010201"/>
  </g>
</svg>
