<svg xmlns="http://www.w3.org/2000/svg" viewBox="0 0 16 16">
  <title>gear</title>
  <g id="Layer_1" data-name="Layer 1">
    <path d="M15.187,8.907V7.644a.6.6,0,0,0-.6-.6h-.65a.61.61,0,0,1-.574-.437,5.313,5.313,0,0,0-.329-.789.609.609,0,0,1,.1-.716l.461-.461a.6.6,0,0,0,0-.854L12.7,2.89a.6.6,0,0,0-.854,0l-.461.46a.609.609,0,0,1-.716.1,5.357,5.357,0,0,0-.789-.329.61.61,0,0,1-.437-.574V1.9a.6.6,0,0,0-.6-.6H7.571a.6.6,0,0,0-.6.605v.65a.61.61,0,0,1-.437.574,5.313,5.313,0,0,0-.789.329.609.609,0,0,1-.716-.1l-.461-.46a.6.6,0,0,0-.854,0l-.893.893a.6.6,0,0,0,0,.854l.46.461a.609.609,0,0,1,.1.716,5.313,5.313,0,0,0-.329.789.61.61,0,0,1-.574.437h-.65a.6.6,0,0,0-.6.6V8.907a.6.6,0,0,0,.605.6h.65a.61.61,0,0,1,.574.437,5.313,5.313,0,0,0,.329.789.611.611,0,0,1-.1.716l-.46.461a.6.6,0,0,0,0,.854l.893.893a.6.6,0,0,0,.854,0l.461-.46a.609.609,0,0,1,.716-.1,5.313,5.313,0,0,0,.789.329.61.61,0,0,1,.437.574v.65a.6.6,0,0,0,.6.6H8.834a.6.6,0,0,0,.6-.6v-.65a.61.61,0,0,1,.437-.574,5.313,5.313,0,0,0,.789-.329.609.609,0,0,1,.716.1l.461.46a.6.6,0,0,0,.854,0l.893-.893a.6.6,0,0,0,0-.854l-.46-.461a.609.609,0,0,1-.1-.716,5.313,5.313,0,0,0,.329-.789.61.61,0,0,1,.574-.437h.65A.6.6,0,0,0,15.187,8.907ZM8.2,11.436a3.161,3.161,0,1,1,3.161-3.16A3.164,3.164,0,0,1,8.2,11.436Z" fill="#010101"/>
  </g>
</svg>
