<svg xmlns="http://www.w3.org/2000/svg" viewBox="0 0 16 16"><title>gear</title><g id="Layer_1" data-name="Layer 1"><path d="M15.19,8.91V7.64a.6.6,0,0,0-.61-.6h-.65a.6.6,0,0,1-.57-.44A6,6,0,0,0,13,5.81a.6.6,0,0,1,.1-.71l.46-.46a.62.62,0,0,0,0-.86l-.9-.89a.59.59,0,0,0-.85,0l-.46.46a.62.62,0,0,1-.72.1,5,5,0,0,0-.79-.33.61.61,0,0,1-.43-.57V1.89a.6.6,0,0,0-.61-.6H7.57a.6.6,0,0,0-.6.6v.65a.61.61,0,0,1-.44.58,5.48,5.48,0,0,0-.79.33A.62.62,0,0,1,5,3.35l-.46-.46a.59.59,0,0,0-.85,0l-.89.89a.6.6,0,0,0,0,.86l.46.46a.59.59,0,0,1,.09.71,7.68,7.68,0,0,0-.32.79A.62.62,0,0,1,2.47,7H1.82a.6.6,0,0,0-.6.6V8.91a.6.6,0,0,0,.6.6h.65a.62.62,0,0,1,.58.44,7.68,7.68,0,0,0,.32.79.59.59,0,0,1-.09.71l-.46.46a.6.6,0,0,0,0,.86l.89.89a.59.59,0,0,0,.85,0L5,13.2a.62.62,0,0,1,.72-.1,5.48,5.48,0,0,0,.79.33A.61.61,0,0,1,7,14v.65a.6.6,0,0,0,.6.6H8.83a.6.6,0,0,0,.61-.6V14a.61.61,0,0,1,.43-.58,5,5,0,0,0,.79-.33.62.62,0,0,1,.72.1l.46.46a.59.59,0,0,0,.85,0l.9-.89a.62.62,0,0,0,0-.86l-.46-.46a.6.6,0,0,1-.1-.71,6,6,0,0,0,.33-.79.6.6,0,0,1,.57-.44h.65A.6.6,0,0,0,15.19,8.91Zm-7,2.53a3.16,3.16,0,1,1,3.16-3.16A3.17,3.17,0,0,1,8.2,11.44Z"/></g></svg>