<svg xmlns="http://www.w3.org/2000/svg" viewBox="0 0 16 16"><defs><style>.cls-1{fill:#231f20;}</style></defs><title>geo-pin-outline</title><g id="Layer_1" data-name="Layer 1"><path class="cls-1" d="M8,.028A5.849,5.849,0,0,0,2.305,6.007,6.066,6.066,0,0,0,3.414,9.549l3.8,5.979a.924.924,0,0,0,1.579,0l3.766-5.934a6.134,6.134,0,0,0,1.139-3.588A5.849,5.849,0,0,0,8,.028Zm3.007,8.416L8,13.18,4.962,8.4A4.076,4.076,0,0,1,4.2,6.007,3.9,3.9,0,0,1,8,2.021a3.9,3.9,0,0,1,3.8,3.986A4.146,4.146,0,0,1,11.007,8.444ZM7.326,5.3a1.047,1.047,0,0,0,0,1.415.93.93,0,0,0,1.348,0,1.047,1.047,0,0,0,0-1.415A.959.959,0,0,0,7.326,5.3Z"/></g></svg>