<svg xmlns="http://www.w3.org/2000/svg" viewBox="0 0 16 16"><title>list-outline</title><g id="Layer_1" data-name="Layer 1"><path d="M14,.87H2a.87.87,0,0,0-.85.89V14.24a.87.87,0,0,0,.85.89H14a.87.87,0,0,0,.85-.89V1.76A.87.87,0,0,0,14,.87Zm-.85,12.48H2.89V2.65H13.11Z"/><g id="Your_Icon" data-name="Your Icon"><path d="M11.19,5.71H7.79a.57.57,0,0,1-.56-.58.56.56,0,0,1,.56-.57h3.4a.56.56,0,0,1,.55.57A.57.57,0,0,1,11.19,5.71Z"/><path d="M5.65,5.89H4.81a.57.57,0,0,1-.55-.58V4.93a.57.57,0,0,1,.55-.58h.84a.56.56,0,0,1,.55.58v.38A.56.56,0,0,1,5.65,5.89Z"/><path d="M11.19,8.58H7.79a.58.58,0,0,1,0-1.16h3.4a.58.58,0,0,1,0,1.16Z"/><path d="M5.65,8.77H4.81a.57.57,0,0,1-.55-.58V7.81a.57.57,0,0,1,.55-.58h.84a.56.56,0,0,1,.55.58v.38A.56.56,0,0,1,5.65,8.77Z"/><path d="M11.19,11.46H7.79a.58.58,0,0,1,0-1.16h3.4a.58.58,0,0,1,0,1.16Z"/><path d="M5.65,11.65H4.81a.57.57,0,0,1-.55-.58v-.38a.57.57,0,0,1,.55-.58h.84a.56.56,0,0,1,.55.58v.38A.56.56,0,0,1,5.65,11.65Z"/></g></g></svg>