<svg xmlns="http://www.w3.org/2000/svg" viewBox="0 0 16 16"><title>magic-wand</title><g id="Layer_1" data-name="Layer 1"><path d="M7.82,8a.48.48,0,0,0-.68,0L1.52,13.87a.53.53,0,0,0,0,.71l1,1a.45.45,0,0,0,.67,0L8.8,9.73A.51.51,0,0,0,8.8,9Zm2.41-2.52a.46.46,0,0,0-.68,0l-1,1a.51.51,0,0,0,0,.71l1,1a.48.48,0,0,0,.68,0l1-1a.51.51,0,0,0,0-.71ZM4.71,2.93A2,2,0,0,1,6.42,4.72a.3.3,0,0,0,.58,0A2,2,0,0,1,8.71,2.93a.32.32,0,0,0,0-.61A2,2,0,0,1,7,.53a.3.3,0,0,0-.58,0A2,2,0,0,1,4.71,2.32.32.32,0,0,0,4.71,2.93Zm9.72-.13A1.21,1.21,0,0,1,13.64,2a.28.28,0,0,0-.54,0,1.18,1.18,0,0,1-.78.81.31.31,0,0,0,0,.57,1.17,1.17,0,0,1,.78.82.28.28,0,0,0,.54,0,1.2,1.2,0,0,1,.79-.82A.31.31,0,0,0,14.43,2.8ZM14,9.56a1.21,1.21,0,0,1-.78-.82.28.28,0,0,0-.54,0,1.17,1.17,0,0,1-.78.82.31.31,0,0,0,0,.57,1.17,1.17,0,0,1,.78.82.28.28,0,0,0,.54,0,1.21,1.21,0,0,1,.78-.82A.31.31,0,0,0,14,9.56Z"/></g></svg>