<svg xmlns="http://www.w3.org/2000/svg" viewBox="0 0 16 16">
  <title>magic-wand</title>
  <g id="Layer_1" data-name="Layer 1">
    <path d="M7.816,7.993a.464.464,0,0,0-.678,0L1.523,13.871a.517.517,0,0,0,0,.71l.983,1.03a.464.464,0,0,0,.678,0L8.8,9.732a.519.519,0,0,0,0-.71Zm2.41-2.523a.464.464,0,0,0-.678,0L8.577,6.486a.519.519,0,0,0,0,.71l.984,1.03a.464.464,0,0,0,.678,0l.97-1.016a.517.517,0,0,0,0-.71ZM4.71,2.929A2.028,2.028,0,0,1,6.418,4.717a.3.3,0,0,0,.581,0A2.026,2.026,0,0,1,8.707,2.929a.316.316,0,0,0,0-.608A2.028,2.028,0,0,1,7,.532a.3.3,0,0,0-.581,0A2.029,2.029,0,0,1,4.71,2.321.316.316,0,0,0,4.71,2.929ZM14.425,2.8a1.206,1.206,0,0,1-.782-.818.28.28,0,0,0-.538,0,1.206,1.206,0,0,1-.782.818.3.3,0,0,0,0,.564,1.206,1.206,0,0,1,.782.819.28.28,0,0,0,.538,0,1.206,1.206,0,0,1,.782-.819A.3.3,0,0,0,14.425,2.8Zm-.39,6.759a1.2,1.2,0,0,1-.782-.818.281.281,0,0,0-.539,0,1.206,1.206,0,0,1-.782.818.3.3,0,0,0,0,.564,1.206,1.206,0,0,1,.782.818.281.281,0,0,0,.539,0,1.2,1.2,0,0,1,.782-.818A.3.3,0,0,0,14.035,9.563Z" fill="#010101"/>
  </g>
</svg>
