<svg xmlns="http://www.w3.org/2000/svg" viewBox="0 0 16 16">
  <title>overview</title>
  <g id="Layer_1" data-name="Layer 1">
    <path d="M8,.631A7.875,7.875,0,0,0,.14,8.491a7.629,7.629,0,0,0,4.068,6.785l.169.093h7.246l.169-.093A7.627,7.627,0,0,0,15.86,8.491,7.875,7.875,0,0,0,8,.631ZM8,2.105a6.381,6.381,0,0,1,6.386,6.386,6.112,6.112,0,0,1-3.178,5.4H4.791a6.113,6.113,0,0,1-3.177-5.4A6.381,6.381,0,0,1,8,2.105ZM8,3.579a4.868,4.868,0,0,0-2.38.629c.169.107.315.194.492.307A4.337,4.337,0,0,1,8,4.07a4.437,4.437,0,0,1,3.116,1.3l.031.031a4.371,4.371,0,0,1-.03,6.2.25.25,0,0,0,.353.354A4.913,4.913,0,0,0,8,3.578ZM3.579,4.07s3.147,5,3.638,5.5a1.354,1.354,0,0,0,1.857,0,1.308,1.308,0,0,0,0-1.858c-.491-.491-5.5-3.638-5.5-3.638ZM3.733,6.1a4.855,4.855,0,0,0-.645,2.395,4.933,4.933,0,0,0,1.443,3.47.25.25,0,0,0,.353-.354A4.437,4.437,0,0,1,3.579,8.491a4.378,4.378,0,0,1,.445-1.919C3.916,6.4,3.836,6.259,3.733,6.1Z" fill="#010101"/>
  </g>
</svg>
