<svg xmlns="http://www.w3.org/2000/svg" viewBox="0 0 16 16"><title>payment-alt</title><g id="Layer_1" data-name="Layer 1"><path d="M13.51,7.47V3.92a.76.76,0,0,0-.76-.76H2.24a.74.74,0,0,0-.74.76v6.2a.75.75,0,0,0,.74.77H10a3.5,3.5,0,0,0,.2.68H.81s0,0,0,0V5.34l0,0A.36.36,0,0,0,1.17,5,.37.37,0,0,0,.8,4.58.77.77,0,0,0,0,5.34v6.2a.78.78,0,0,0,.78.76h9.87a3,3,0,1,0,2.83-4.83ZM2.24,3.89H12.75a0,0,0,0,1,0,0V5.15H2.23V3.92S2.22,3.89,2.24,3.89Zm0,6.23V5.88H12.78V7.44A3,3,0,0,0,10,10.16H2.24S2.23,10.14,2.23,10.12ZM13,12.69a2.27,2.27,0,1,1,2.27-2.27A2.27,2.27,0,0,1,13,12.69Z"/><path d="M13.69,9.6l-.86.93-.37-.36a.37.37,0,0,0-.51.53l.65.62a.36.36,0,0,0,.25.1h0a.37.37,0,0,0,.26-.12l1.11-1.21a.35.35,0,0,0,0-.51A.37.37,0,0,0,13.69,9.6Z"/><path d="M6.46,7.5H3.22a.37.37,0,0,0-.37.36.38.38,0,0,0,.37.37H6.46a.37.37,0,0,0,.36-.37A.36.36,0,0,0,6.46,7.5Z"/><path d="M4.74,8.59H3.22A.38.38,0,0,0,2.85,9a.37.37,0,0,0,.37.36H4.74A.36.36,0,0,0,5.1,9,.37.37,0,0,0,4.74,8.59Z"/></g></svg>