<svg xmlns="http://www.w3.org/2000/svg" viewBox="0 0 16 16"><title>payment-alt</title><g id="Layer_1" data-name="Layer 1"><path d="M13.51,7.47V3.919a.759.759,0,0,0-.761-.758H2.236a.741.741,0,0,0-.739.758v6.2a.752.752,0,0,0,.739.771h7.808a3.214,3.214,0,0,0,.2.679H.813c-.017,0-.048-.01-.048-.027v-6.2c0-.017.023-.031.039-.031a.366.366,0,1,0,0-.731.768.768,0,0,0-.768.762v6.2a.775.775,0,0,0,.779.759h9.864A2.994,2.994,0,1,0,13.51,7.47ZM2.236,3.892H12.749a.028.028,0,0,1,.03.027V5.146H2.228V3.919C2.228,3.9,2.22,3.892,2.236,3.892ZM2.228,10.12V5.877H12.779V7.436a3,3,0,0,0-2.758,2.724H2.236C2.22,10.16,2.228,10.137,2.228,10.12ZM13,12.686a2.264,2.264,0,1,1,2.265-2.264A2.266,2.266,0,0,1,13,12.686Z"/><path d="M13.694,9.6l-.862.934-.375-.359a.366.366,0,0,0-.505.529l.644.616a.366.366,0,0,0,.253.1h.011a.361.361,0,0,0,.257-.118L14.232,10.1a.366.366,0,0,0-.538-.5Z"/><path d="M6.459,7.5H3.22a.366.366,0,0,0,0,.732H6.459a.366.366,0,0,0,0-.732Z"/><path d="M4.735,8.593H3.22a.366.366,0,0,0,0,.731H4.735a.366.366,0,1,0,0-.731Z"/></g></svg>