<svg xmlns="http://www.w3.org/2000/svg" viewBox="0 0 16 16">
  <title>pdf-instruction</title>
  <g id="Layer_1" data-name="Layer 1">
    <g>
      <path d="M5.747,10.283v.738H5.235V8.811h.779a1.276,1.276,0,0,1,.4.056.775.775,0,0,1,.277.152.606.606,0,0,1,.16.229.784.784,0,0,1,.051.285.826.826,0,0,1-.053.3.6.6,0,0,1-.162.236.762.762,0,0,1-.277.154,1.267,1.267,0,0,1-.4.056Zm0-.387h.267a.326.326,0,0,0,.376-.363A.408.408,0,0,0,6.368,9.4.282.282,0,0,0,6.3,9.288a.321.321,0,0,0-.117-.069A.523.523,0,0,0,6.014,9.2H5.747Z" fill="#010201"/>
      <path d="M9.176,9.916a1.163,1.163,0,0,1-.083.442,1.027,1.027,0,0,1-.233.35,1.05,1.05,0,0,1-.362.231,1.279,1.279,0,0,1-.469.082H7.17V8.811h.859A1.259,1.259,0,0,1,8.5,8.9a1.063,1.063,0,0,1,.362.23,1.027,1.027,0,0,1,.233.35A1.158,1.158,0,0,1,9.176,9.916Zm-.525,0a.97.97,0,0,0-.043-.3A.628.628,0,0,0,8.486,9.4a.532.532,0,0,0-.2-.141.658.658,0,0,0-.262-.049H7.686v1.421h.343a.658.658,0,0,0,.262-.049.532.532,0,0,0,.2-.141.636.636,0,0,0,.122-.224A.977.977,0,0,0,8.651,9.916Z" fill="#010201"/>
      <path d="M10.844,8.811v.395H9.937v.559h.756v.4H9.937v.86H9.421V8.811Z" fill="#010201"/>
    </g>
    <path d="M13.3,15.569H2.687a.344.344,0,0,1-.344-.344V4.608a.344.344,0,0,1,.344-.345H6v.689H3.032V14.88H12.96V4.952H9.975V4.263H13.3a.344.344,0,0,1,.345.345V15.225A.344.344,0,0,1,13.3,15.569Z" fill="#010201"/>
    <g>
      <rect x="7.645" y="0.84" width="0.689" height="5.13" fill="#010201"/>
      <path d="M9.731,3.02,7.989,1.279,6.248,3.02l-.487-.487L7.746.548a.343.343,0,0,1,.487,0l1.985,1.985Z" fill="#010201"/>
    </g>
  </g>
</svg>
