<svg xmlns="http://www.w3.org/2000/svg" viewBox="0 0 16 16"><title>permissions</title><g id="Layer_1" data-name="Layer 1"><path d="M12.12,6.07h-5V3.69a1.27,1.27,0,1,1,2.54,0v.53a.7.7,0,1,0,1.4,0V3.69a2.67,2.67,0,0,0-5.34,0V6.07h-1A1.94,1.94,0,0,0,2.76,8v5.86a2,2,0,0,0,2,2h7.41a1.94,1.94,0,0,0,1.94-2V8A1.94,1.94,0,0,0,12.12,6.07Zm.54,7.8a.54.54,0,0,1-.54.55H4.71a.55.55,0,0,1-.55-.55V8a.55.55,0,0,1,.55-.54h7.41a.54.54,0,0,1,.54.54Z"/><path d="M9.48,10.48a1.07,1.07,0,1,0-1.56.94l-.33.79a.48.48,0,0,0,.45.66h.74a.48.48,0,0,0,.45-.66l-.33-.79A1.07,1.07,0,0,0,9.48,10.48Z"/></g></svg>