<svg xmlns="http://www.w3.org/2000/svg" viewBox="0 0 16 16">
  <title>permissions</title>
  <g id="Layer_1" data-name="Layer 1">
    <g>
      <path d="M12.116,6.069H7.142V3.693a1.27,1.27,0,1,1,2.54,0v.528a.7.7,0,1,0,1.4,0V3.693a2.671,2.671,0,1,0-5.341,0V6.069H4.707A1.947,1.947,0,0,0,2.762,8.014v5.861A1.947,1.947,0,0,0,4.707,15.82h7.409a1.948,1.948,0,0,0,1.945-1.945V8.014A1.948,1.948,0,0,0,12.116,6.069Zm.545,7.806a.546.546,0,0,1-.545.545H4.707a.546.546,0,0,1-.545-.545V8.014a.546.546,0,0,1,.545-.545h7.409a.546.546,0,0,1,.545.545Z" fill="#010101"/>
      <path d="M9.484,10.479a1.072,1.072,0,1,0-2.144,0,1.06,1.06,0,0,0,.582.939l-.327.794a.479.479,0,0,0,.443.662h.747a.479.479,0,0,0,.443-.662L8.9,11.418A1.062,1.062,0,0,0,9.484,10.479Z" fill="#010101"/>
    </g>
  </g>
</svg>
