<svg xmlns="http://www.w3.org/2000/svg" viewBox="0 0 16 16"><title>person-details</title><g id="Layer_1" data-name="Layer 1"><g id="Group_7" data-name="Group 7"><g id="Your_Icon" data-name="Your Icon"><path id="Path_9" data-name="Path 9" d="M15.3,6.06H9.63a.73.73,0,0,1,0-1.45H15.3a.71.71,0,0,1,.7.73h0A.71.71,0,0,1,15.3,6.06Z"/><g id="Group_5" data-name="Group 5"><path id="Path_10" data-name="Path 10" d="M15.3,9H9.63a.73.73,0,0,1,0-1.46H15.3A.73.73,0,0,1,15.3,9Z"/></g><g id="Group_6" data-name="Group 6"><path id="Path_11" data-name="Path 11" d="M12.54,11.92H9.63a.73.73,0,0,1,0-1.45h2.91a.73.73,0,0,1,.68.77A.72.72,0,0,1,12.54,11.92Z"/></g></g><path id="Path_12" data-name="Path 12" d="M3.84,9.37C2.56,9.37,0,10.1,0,11.56v1.09H7.67V11.56C7.67,10.1,5.12,9.37,3.84,9.37Zm0-1.09A2.06,2.06,0,0,0,5.75,6.09,2.06,2.06,0,0,0,3.84,3.9,2.07,2.07,0,0,0,1.92,6.09,2.06,2.06,0,0,0,3.84,8.27Z"/></g></g></svg>