<svg xmlns="http://www.w3.org/2000/svg" viewBox="0 0 16 16"><title>put-back-arrow</title><g id="Layer_1" data-name="Layer 1"><path d="M.3,13.468a6.015,6.015,0,0,1,.072-.929l.081-.533q.067-.273.139-.562A9.3,9.3,0,0,1,1,10.249a9.817,9.817,0,0,1,.639-1.206,10.764,10.764,0,0,1,.84-1.155A9.545,9.545,0,0,1,3.512,6.875a11.071,11.071,0,0,1,1.136-.846A10.261,10.261,0,0,1,5.831,5.4l.576-.244.557-.179c.185-.054.341-.116.53-.153l.528-.107.468-.086L8.6,4.621V2.327a.722.722,0,0,1,1.183-.549l5.275,4.369a.712.712,0,0,1,0,1.1L9.779,11.613A.721.721,0,0,1,8.6,11.064V8.852L8.5,8.859l-.24.01a2.593,2.593,0,0,0-.308.043l-.349.054-.366.1c-.259.051-.509.168-.789.254a7.46,7.46,0,0,0-.8.406,9.251,9.251,0,0,0-.789.521,7.489,7.489,0,0,0-.707.649,8.672,8.672,0,0,0-.622.717,8.926,8.926,0,0,0-.479.762l-.205.373-.154.366a4.9,4.9,0,0,0-.244.664l-.092.286c-.021.091-.039.174-.056.249l-.11.48-.027.121a.909.909,0,0,1-1.79-.121l-.054-.612-.025-.326C.3,13.734.3,13.606.3,13.468Z"/></g></svg>