<svg width="16" height="16" viewBox="0 0 16 16" fill="none" xmlns="http://www.w3.org/2000/svg">
<path d="M0.495989 12.8528C0.495931 12.5418 0.519997 12.2313 0.56797 11.9241L0.64895 11.3912C0.693605 11.2093 0.739926 11.022 0.787914 10.8294C0.896655 10.4224 1.03293 10.0233 1.19581 9.63474C1.38053 9.21853 1.59399 8.81568 1.83465 8.42911C2.0887 8.02606 2.36925 7.64033 2.67443 7.27446C2.99256 6.91126 3.3378 6.57272 3.70717 6.26177C4.0673 5.9559 4.44664 5.67341 4.84288 5.41602C5.22299 5.18088 5.61806 4.97083 6.02557 4.78721L6.60143 4.54329L7.15828 4.36434C7.34324 4.31036 7.4992 4.24838 7.68815 4.21139L8.21601 4.10442L8.68389 4.01845L8.79387 4.00845V1.71514C8.79512 1.57866 8.83505 1.44533 8.90903 1.33062C8.983 1.21591 9.08798 1.12452 9.2118 1.06707C9.33561 1.00961 9.47318 0.988437 9.60855 1.006C9.74391 1.02357 9.87152 1.07915 9.97656 1.16631L15.2502 5.53399C15.3314 5.60076 15.3969 5.6847 15.4418 5.77977C15.4867 5.87484 15.51 5.97868 15.51 6.08382C15.51 6.18897 15.4867 6.29281 15.4418 6.38788C15.3969 6.48294 15.3314 6.56688 15.2502 6.63365L9.97256 10.9983C9.86757 11.0847 9.7403 11.1396 9.60543 11.1567C9.47056 11.1739 9.3336 11.1525 9.21036 11.0951C9.08712 11.0377 8.98262 10.9467 8.90892 10.8324C8.83522 10.7182 8.79534 10.5854 8.79387 10.4495V8.23817L8.69389 8.24517L8.45395 8.25516C8.35054 8.26332 8.24772 8.27767 8.14603 8.29815L7.79712 8.35213L7.43121 8.4521C7.17228 8.50309 6.92234 8.62005 6.64241 8.70603C6.36792 8.82515 6.10083 8.96069 5.84262 9.1119C5.57098 9.27196 5.3077 9.4458 5.05382 9.63274C4.80459 9.83368 4.56849 10.0504 4.347 10.2815C4.12679 10.5089 3.9192 10.7482 3.72516 10.9983C3.55283 11.244 3.393 11.4983 3.24628 11.7601L3.04134 12.133L2.88738 12.4989C2.79018 12.714 2.70865 12.9358 2.64344 13.1627L2.55146 13.4486C2.53047 13.5396 2.51247 13.6225 2.49548 13.6975L2.3855 14.1774L2.35851 14.2983C2.3094 14.5082 2.18728 14.6938 2.01396 14.8219C1.84065 14.9501 1.62742 15.0125 1.41236 14.9979C1.1973 14.9834 0.994405 14.8929 0.839914 14.7426C0.685423 14.5923 0.589392 14.3919 0.56897 14.1774L0.514984 13.5656L0.48999 13.2397C0.495989 13.1187 0.495989 12.9907 0.495989 12.8528Z" fill="black"/>
</svg>
