<svg xmlns="http://www.w3.org/2000/svg" viewBox="0 0 16 16"><title>question-outline</title><g id="Layer_1" data-name="Layer 1"><path d="M8,1.146A6.854,6.854,0,1,1,1.146,8,6.862,6.862,0,0,1,8,1.146M8,0a8,8,0,1,0,8,8A8,8,0,0,0,8,0Z"/><path d="M7.977,13.433a1.167,1.167,0,0,1-1.122-1.085.187.187,0,0,1,0-.055.2.2,0,0,1,0-.057,1.126,1.126,0,0,1,2.25.057A1.159,1.159,0,0,1,7.977,13.433Zm2.244-6.125c-.493.451-2.276,1.291-1.4,2.134a.184.184,0,0,1-.08.306c-.4.134-.8.269-1.2.405a.183.183,0,0,1-.178-.047A1.909,1.909,0,0,1,6.84,8.862a.172.172,0,0,1,0-.046.191.191,0,0,1,0-.049c.068-1.1.925-1.512,1.686-2.148.507-.422.756-1.282-.139-1.486a2.162,2.162,0,0,0-2.225.831.182.182,0,0,1-.259,0q-.456-.507-.916-1.012a.187.187,0,0,1,0-.259A3.984,3.984,0,0,1,8.437,3.32a2.708,2.708,0,0,1,2.374,1.453A2.281,2.281,0,0,1,10.221,7.308Z"/></g></svg>