<svg width="16" height="16" viewBox="0 0 16 16" fill="none" xmlns="http://www.w3.org/2000/svg">
<path d="M8.48901 9.90239C8.26664 10.0496 8.00213 10.1199 7.73601 10.1024C7.38775 10.1013 7.04327 10.0302 6.72301 9.89339C6.64039 9.85886 6.55148 9.84192 6.46196 9.84364C6.37243 9.84537 6.28424 9.86571 6.20301 9.90339C6.08645 9.95692 5.98829 10.0437 5.92087 10.1528C5.85344 10.2619 5.81975 10.3885 5.82403 10.5168C5.8283 10.645 5.87035 10.769 5.94489 10.8734C6.01943 10.9778 6.12314 11.0579 6.24301 11.1035C6.64053 11.2532 7.05956 11.338 7.48401 11.3545V11.6176C7.48049 11.7098 7.49561 11.8018 7.52847 11.8881C7.56133 11.9743 7.61126 12.053 7.67526 12.1195C7.73926 12.186 7.81602 12.239 7.90095 12.2751C7.98587 12.3112 8.07722 12.3298 8.16951 12.3298C8.2618 12.3298 8.35314 12.3112 8.43807 12.2751C8.52299 12.239 8.59975 12.186 8.66375 12.1195C8.72776 12.053 8.77768 11.9743 8.81055 11.8881C8.84341 11.8018 8.85853 11.7098 8.85501 11.6176V11.2195C8.85501 11.2075 8.85501 11.1955 8.85501 11.1835C9.10845 11.0989 9.34529 10.971 9.55501 10.8055C9.7802 10.6299 9.96117 10.4041 10.0834 10.146C10.2057 9.88792 10.2658 9.60481 10.259 9.31932C10.2723 8.87638 10.1177 8.44479 9.82601 8.11119C9.45108 7.73741 8.98928 7.46251 8.48201 7.3111C8.16353 7.22265 7.86439 7.07544 7.60001 6.87705C7.54499 6.82624 7.50145 6.76427 7.4723 6.69528C7.44316 6.62629 7.42908 6.55187 7.43101 6.477C7.42803 6.39332 7.44455 6.3101 7.47926 6.2339C7.51397 6.1577 7.56592 6.09062 7.63101 6.03796C7.80594 5.90685 8.02183 5.84232 8.24001 5.85593C8.5185 5.85635 8.79462 5.90718 9.05501 6.00595C9.13616 6.03615 9.2225 6.04993 9.30901 6.0465C9.39553 6.04307 9.48051 6.02248 9.55901 5.98595C9.63611 5.94996 9.70511 5.89869 9.76183 5.83526C9.81856 5.77183 9.86182 5.69755 9.88901 5.61691C9.94179 5.46142 9.9327 5.29157 9.86362 5.1426C9.79455 4.99363 9.67078 4.87697 9.51801 4.81682C9.30483 4.73788 9.08395 4.68157 8.85901 4.6488V4.16775C8.86253 4.07551 8.84741 3.98352 8.81455 3.89726C8.78168 3.81101 8.73176 3.73228 8.66775 3.66578C8.60375 3.59928 8.52699 3.54637 8.44207 3.51024C8.35714 3.4741 8.2658 3.45548 8.17351 3.45548C8.08122 3.45548 7.98987 3.4741 7.90495 3.51024C7.82002 3.54637 7.74326 3.59928 7.67926 3.66578C7.61526 3.73228 7.56533 3.81101 7.53247 3.89726C7.49961 3.98352 7.48449 4.07551 7.48801 4.16775V4.70381C7.14932 4.78695 6.83509 4.94905 6.57101 5.17686C6.36116 5.35217 6.19296 5.57201 6.07863 5.82042C5.9643 6.06883 5.9067 6.33958 5.91001 6.61302C5.91001 7.46911 6.51701 8.11319 7.71001 8.52023C8.00712 8.60215 8.28488 8.74258 8.52701 8.93328C8.59194 8.99529 8.64285 9.07048 8.67631 9.15379C8.70977 9.23711 8.72501 9.32663 8.72101 9.41633C8.72539 9.5102 8.7065 9.60369 8.66602 9.68849C8.62555 9.77329 8.56474 9.84677 8.48901 9.90239Z" fill="black"/>
<path d="M15.68 7.92617C15.6801 6.56051 15.3161 5.21954 14.6255 4.0414C13.9349 2.86327 12.9427 1.89057 11.7512 1.22354C10.5597 0.556505 9.21185 0.219252 7.84662 0.246528C6.48139 0.273803 5.14812 0.66462 3.98417 1.37871C2.82023 2.09281 1.86769 3.10435 1.22471 4.30913C0.581732 5.51391 0.271559 6.86835 0.326148 8.23291C0.380737 9.59748 0.798115 10.9228 1.53528 12.0724C2.27244 13.2219 3.30274 14.1541 4.52001 14.7729L4.31501 15.273C4.2917 15.3296 4.28367 15.3913 4.29173 15.4519C4.29979 15.5126 4.32366 15.5701 4.36094 15.6186C4.39821 15.6671 4.44759 15.705 4.50412 15.7284C4.56065 15.7518 4.62234 15.76 4.68301 15.752L7.01501 15.441C7.07571 15.433 7.13324 15.4092 7.18179 15.3719C7.23033 15.3346 7.26818 15.2852 7.29151 15.2286C7.31484 15.1719 7.32283 15.1102 7.31466 15.0495C7.3065 14.9888 7.28247 14.9314 7.24501 14.8829L5.81101 13.0197C5.77366 12.971 5.72412 12.933 5.66738 12.9095C5.61064 12.886 5.54871 12.8779 5.48785 12.886C5.42699 12.8942 5.36934 12.9182 5.32073 12.9557C5.27213 12.9932 5.23428 13.0429 5.21101 13.0997L5.04401 13.4998C3.78627 12.8315 2.79175 11.7572 2.22237 10.4516C1.653 9.14598 1.54229 7.68607 1.90829 6.30954C2.27428 4.93301 3.09542 3.72092 4.23801 2.87061C5.3806 2.0203 6.77735 1.58186 8.20086 1.62666C9.62436 1.67146 10.9908 2.19687 12.0777 3.11734C13.1645 4.03782 13.9078 5.29915 14.1866 6.69597C14.4653 8.09279 14.263 9.54285 13.6127 10.8101C12.9624 12.0773 11.9023 13.087 10.605 13.6748C10.5189 13.7092 10.4407 13.7608 10.3752 13.8263C10.3096 13.8918 10.258 13.97 10.2235 14.056C10.189 14.1421 10.1724 14.2343 10.1745 14.327C10.1767 14.4196 10.1977 14.5109 10.2361 14.5953C10.2746 14.6796 10.3298 14.7553 10.3984 14.8177C10.467 14.88 10.5475 14.9279 10.6351 14.9582C10.7227 14.9886 10.8155 15.0008 10.908 14.9943C11.0004 14.9877 11.0906 14.9624 11.173 14.9199C12.5151 14.3083 13.6533 13.324 14.4522 12.0842C15.2512 10.8444 15.6774 9.40118 15.68 7.92617Z" fill="black"/>
</svg>
