<svg xmlns="http://www.w3.org/2000/svg" viewBox="0 0 16 16">
  <title>registrations</title>
  <g id="Layer_1" data-name="Layer 1">
    <path d="M7.884,4.072l-6.29,6.883a2.344,2.344,0,0,0-.5,1.077L.67,15.154a.147.147,0,0,0,.177.164l3.066-.677a2.279,2.279,0,0,0,1.018-.591L11.2,7.144a.24.24,0,0,0-.015-.337L8.224,4.058A.24.24,0,0,0,7.884,4.072Zm6.236-.5L11.136.868A.239.239,0,0,0,10.8.884L8.9,2.963a.239.239,0,0,0,.014.337l2.962,2.747a.24.24,0,0,0,.34-.015l1.922-2.117A.239.239,0,0,0,14.12,3.577ZM6.788,15.369h9A.212.212,0,0,0,16,15.157V13.875a.211.211,0,0,0-.211-.211H8.309a.325.325,0,0,0-.253.121Z" fill-rule="evenodd"/>
  </g>
</svg>
