<svg xmlns="http://www.w3.org/2000/svg" viewBox="0 0 16 16"><title>registrations-logo</title><g id="Layer_1" data-name="Layer 1"><path d="M3.907,7.376c-.032-.051-.142-.07-.234-.07a.481.481,0,0,0-.365.165l-.026-.085a.069.069,0,0,0-.066-.053H3.152a.074.074,0,0,0-.072.072V8.511a.073.073,0,0,0,.072.072h.122c.039,0,.1,0,.1-.072V7.739a.334.334,0,0,1,.274-.153.284.284,0,0,1,.1.022.064.064,0,0,0,.052,0,.073.073,0,0,0,.042-.039l.063-.133A.064.064,0,0,0,3.907,7.376Z"/><path d="M4.511,7.306a.654.654,0,0,0,0,1.306.707.707,0,0,0,.462-.154.063.063,0,0,0,.007-.1l-.071-.111a.061.061,0,0,0-.036-.027.076.076,0,0,0-.055.018.461.461,0,0,1-.291.1.346.346,0,0,1-.35-.3h.829a.071.071,0,0,0,.069-.065.848.848,0,0,0,.006-.087A.561.561,0,0,0,4.511,7.306Zm0,.253a.275.275,0,0,1,.287.25h-.6A.3.3,0,0,1,4.506,7.559Z"/><path d="M6.3,7.333H6.224a.059.059,0,0,0-.058.051l-.024.058a.585.585,0,0,0-.381-.136.618.618,0,0,0-.591.652.624.624,0,0,0,.6.654.672.672,0,0,0,.3-.077v.042c0,.259-.158.313-.29.313a.449.449,0,0,1-.277-.11.071.071,0,0,0-.058-.015A.07.07,0,0,0,5.4,8.8l-.063.116a.07.07,0,0,0,.015.086.678.678,0,0,0,.433.157.541.541,0,0,0,.581-.585V7.405A.075.075,0,0,0,6.3,7.333Zm-.22.414v.5a.487.487,0,0,1-.269.091.365.365,0,0,1-.343-.375A.346.346,0,0,1,5.8,7.586.35.35,0,0,1,6.075,7.747Z"/><rect x="6.609" y="7.333" width="0.293" height="1.25" rx="0.072" ry="0.072"/><path d="M6.756,6.782a.193.193,0,0,0,0,.385.193.193,0,1,0,0-.385Z"/><path d="M7.555,7.823c-.13-.056-.2-.1-.2-.167,0-.047.044-.094.142-.094a.628.628,0,0,1,.256.06.07.07,0,0,0,.1-.031l.043-.084A.086.086,0,0,0,7.861,7.4.693.693,0,0,0,7.5,7.306c-.29,0-.419.175-.419.348,0,.216.163.319.339.4s.253.127.253.2-.056.105-.147.105a.554.554,0,0,1-.293-.085l0,0a.077.077,0,0,0-.062-.009.06.06,0,0,0-.037.031L7.071,8.4a.063.063,0,0,0,.026.081h0a.724.724,0,0,0,.41.127.4.4,0,0,0,.451-.371C7.958,8.011,7.8,7.926,7.555,7.823Z"/><path d="M8.85,8.31a.064.064,0,0,0-.039-.041.063.063,0,0,0-.053.007.388.388,0,0,1-.188.057c-.044,0-.084-.009-.084-.111V7.586H8.8a.074.074,0,0,0,.072-.072V7.405A.072.072,0,0,0,8.8,7.333H8.486V7.006a.07.07,0,0,0-.069-.073H8.266a.073.073,0,0,0-.073.073v.327H8.067A.07.07,0,0,0,8,7.405v.109a.073.073,0,0,0,.072.072h.126v.647c0,.176.037.379.324.379a.753.753,0,0,0,.346-.089A.069.069,0,0,0,8.9,8.434Z"/><path d="M9.834,7.376c-.032-.051-.141-.07-.233-.07a.492.492,0,0,0-.365.164L9.21,7.386a.071.071,0,0,0-.067-.053H9.08a.075.075,0,0,0-.073.072V8.511a.073.073,0,0,0,.073.072H9.2c.04,0,.1,0,.1-.072V7.739a.337.337,0,0,1,.274-.153.29.29,0,0,1,.105.022.064.064,0,0,0,.052,0,.071.071,0,0,0,.041-.039l.064-.133A.061.061,0,0,0,9.834,7.376Z"/><path d="M10.416,7.306a1.32,1.32,0,0,0-.425.07.07.07,0,0,0-.049.088l.024.1a.072.072,0,0,0,.087.061,1.248,1.248,0,0,1,.337-.058.175.175,0,0,1,.131.043.286.286,0,0,1,.051.205.95.95,0,0,0-.232-.033c-.306,0-.5.161-.5.409a.392.392,0,0,0,.408.421.537.537,0,0,0,.37-.143l.022.063c.013.031.029.051.063.051h.088a.074.074,0,0,0,.072-.072V7.86C10.859,7.557,10.826,7.306,10.416,7.306ZM10.3,8.367a.165.165,0,0,1-.176-.179c0-.112.095-.187.237-.187a.588.588,0,0,1,.208.037v.191A.366.366,0,0,1,10.3,8.367Z"/><path d="M11.805,8.31a.064.064,0,0,0-.039-.041.063.063,0,0,0-.053.007.388.388,0,0,1-.188.057c-.044,0-.084-.009-.084-.111V7.586h.309a.074.074,0,0,0,.072-.072V7.405a.072.072,0,0,0-.072-.072h-.309V7.006a.07.07,0,0,0-.069-.073h-.151a.073.073,0,0,0-.073.073v.327h-.126a.07.07,0,0,0-.072.072v.109a.073.073,0,0,0,.072.072h.126v.647c0,.176.037.379.324.379a.753.753,0,0,0,.346-.089.069.069,0,0,0,.035-.089Z"/><rect x="11.962" y="7.333" width="0.293" height="1.25" rx="0.072" ry="0.072"/><path d="M12.109,6.782a.193.193,0,0,0,0,.385.193.193,0,1,0,0-.385Z"/><path d="M13.052,7.306a.653.653,0,1,0,.635.649A.653.653,0,0,0,13.052,7.306Zm.348.649a.351.351,0,1,1-.7,0,.35.35,0,1,1,.7,0Z"/><path d="M14.488,7.306a.582.582,0,0,0-.4.157l-.028-.082a.062.062,0,0,0-.065-.048h-.063a.074.074,0,0,0-.072.072V8.511a.073.073,0,0,0,.072.072h.135c.057,0,.085-.024.085-.072V7.752a.362.362,0,0,1,.309-.166c.146,0,.226.107.226.3v.624a.073.073,0,0,0,.073.072H14.9a.074.074,0,0,0,.072-.072V7.9C14.975,7.5,14.816,7.306,14.488,7.306Z"/><path d="M15.616,7.823c-.13-.056-.2-.1-.2-.167,0-.047.044-.094.142-.094a.621.621,0,0,1,.256.06.071.071,0,0,0,.1-.031l.042-.084a.087.087,0,0,0-.031-.108.7.7,0,0,0-.365-.093c-.289,0-.419.175-.419.348,0,.216.163.319.339.4s.253.127.253.2-.056.105-.147.105a.55.55,0,0,1-.292-.085l0,0a.077.077,0,0,0-.062-.009.063.063,0,0,0-.037.031l-.055.114a.063.063,0,0,0,.025.081h0a.724.724,0,0,0,.41.127.4.4,0,0,0,.451-.371C16.019,8.011,15.86,7.926,15.616,7.823Z"/><path d="M1.209,6.772C.227,6.772-.019,7.018-.019,8S.227,9.228,1.209,9.228,2.437,8.982,2.437,8,2.191,6.772,1.209,6.772Zm.1.715a.123.123,0,0,1,.172-.008l.1.088a.122.122,0,0,1,.008.172l-.1.115L1.205,7.6ZM.854,8.5l-.248.055a.017.017,0,0,1-.02-.019L.62,8.287A.2.2,0,0,1,.661,8.2l.477-.525.276.255-.475.526A.189.189,0,0,1,.854,8.5ZM1.832,8.5a.06.06,0,0,1-.06.06H1.083l.242-.27h.447a.06.06,0,0,1,.06.06Z"/></g></svg>