<svg xmlns="http://www.w3.org/2000/svg" viewBox="0 0 16 16">
  <title>registrations-logo</title>
  <g id="Layer_1" data-name="Layer 1">
    <g>
      <path d="M3.949,7.441l-.063.131a.068.068,0,0,1-.041.039.064.064,0,0,1-.052,0,.306.306,0,0,0-.1-.022.337.337,0,0,0-.272.152V8.5c0,.072-.059.072-.1.072H3.2A.073.073,0,0,1,3.127,8.5v-1.1A.074.074,0,0,1,3.2,7.334h.063a.071.071,0,0,1,.066.053l.026.084a.476.476,0,0,1,.362-.163c.091,0,.2.018.231.069A.061.061,0,0,1,3.949,7.441Zm1.166.437a.828.828,0,0,1-.006.086.071.071,0,0,1-.069.065H4.218a.344.344,0,0,0,.347.3.455.455,0,0,0,.289-.1.077.077,0,0,1,.054-.018.058.058,0,0,1,.036.027l.071.111a.061.061,0,0,1-.008.1A.69.69,0,0,1,4.55,8.6a.648.648,0,0,1,0-1.295A.556.556,0,0,1,5.115,7.878Zm-.882-.072h.593a.271.271,0,0,0-.284-.247A.294.294,0,0,0,4.233,7.806Zm2.155-.4V8.568a.537.537,0,0,1-.576.581.662.662,0,0,1-.429-.157.068.068,0,0,1-.015-.085l.062-.115a.065.065,0,0,1,.1-.023.441.441,0,0,0,.275.11c.131,0,.288-.054.288-.311V8.526a.653.653,0,0,1-.3.077.619.619,0,0,1-.6-.649.612.612,0,0,1,.586-.646.585.585,0,0,1,.378.134l.024-.057a.058.058,0,0,1,.057-.051h.071A.074.074,0,0,1,6.388,7.406Zm-.568.179a.343.343,0,0,0-.329.369.362.362,0,0,0,.34.372.476.476,0,0,0,.266-.09V7.745A.344.344,0,0,0,5.82,7.585Zm1.026-.251H6.7a.074.074,0,0,0-.072.072V8.5a.072.072,0,0,0,.072.072h.146A.073.073,0,0,0,6.918,8.5v-1.1A.076.076,0,0,0,6.846,7.334Zm-.073-.546a.191.191,0,0,0,0,.382.191.191,0,1,0,0-.382Zm.793,1.033c-.129-.056-.2-.1-.2-.166,0-.046.043-.093.141-.093a.614.614,0,0,1,.254.059.07.07,0,0,0,.1-.03L7.9,7.507A.085.085,0,0,0,7.869,7.4a.682.682,0,0,0-.361-.092c-.287,0-.416.173-.416.345,0,.214.162.317.336.4s.252.127.252.2-.056.1-.146.1a.552.552,0,0,1-.29-.084l0,0a.075.075,0,0,0-.061-.009.06.06,0,0,0-.037.031L7.086,8.4a.064.064,0,0,0,.025.081h0a.721.721,0,0,0,.407.126.4.4,0,0,0,.447-.368C7.965,8.007,7.807,7.923,7.566,7.821ZM8.85,8.3a.07.07,0,0,0-.038-.041.064.064,0,0,0-.053.008.389.389,0,0,1-.187.056c-.044,0-.083-.009-.083-.109V7.585H8.8a.073.073,0,0,0,.072-.071V7.406A.072.072,0,0,0,8.8,7.334H8.489V7.01a.07.07,0,0,0-.069-.072H8.271A.072.072,0,0,0,8.2,7.01v.324H8.074A.069.069,0,0,0,8,7.406v.108a.071.071,0,0,0,.072.071H8.2v.642c0,.175.036.376.321.376a.741.741,0,0,0,.343-.089A.066.066,0,0,0,8.9,8.427Zm.976-.926c-.032-.051-.14-.069-.231-.069a.488.488,0,0,0-.362.162l-.026-.083a.071.071,0,0,0-.066-.053H9.078a.074.074,0,0,0-.072.072V8.5a.072.072,0,0,0,.072.072H9.2c.04,0,.1,0,.1-.072V7.737a.333.333,0,0,1,.271-.152.306.306,0,0,1,.1.022.063.063,0,0,0,.052,0,.071.071,0,0,0,.041-.039l.062-.131A.061.061,0,0,0,9.826,7.377Zm1.016.48V8.5a.073.073,0,0,1-.071.072h-.087c-.034,0-.05-.02-.063-.05L10.6,8.462a.535.535,0,0,1-.366.141.39.39,0,0,1-.405-.418c0-.246.2-.405.5-.405a.952.952,0,0,1,.231.032.281.281,0,0,0-.051-.2.175.175,0,0,0-.13-.042,1.229,1.229,0,0,0-.334.057.07.07,0,0,1-.086-.06l-.024-.1a.069.069,0,0,1,.049-.087,1.3,1.3,0,0,1,.421-.069C10.809,7.308,10.842,7.557,10.842,7.857Zm-.287.366v-.19A.618.618,0,0,0,10.348,8c-.14,0-.235.075-.235.185a.164.164,0,0,0,.175.178A.366.366,0,0,0,10.555,8.223Zm1.226.08a.069.069,0,0,0-.039-.041.062.062,0,0,0-.052.008.393.393,0,0,1-.187.056c-.044,0-.083-.009-.083-.109V7.585h.306a.073.073,0,0,0,.072-.071V7.406a.072.072,0,0,0-.072-.072H11.42V7.01a.07.07,0,0,0-.069-.072H11.2a.072.072,0,0,0-.072.072v.324h-.124a.069.069,0,0,0-.072.072v.108a.071.071,0,0,0,.072.071h.124v.642c0,.175.037.376.321.376a.742.742,0,0,0,.344-.089.066.066,0,0,0,.034-.087Zm.374-.969h-.147a.073.073,0,0,0-.071.072V8.5a.071.071,0,0,0,.071.072h.147a.074.074,0,0,0,.072-.072v-1.1A.076.076,0,0,0,12.155,7.334Zm-.073-.546a.191.191,0,0,0,0,.382.191.191,0,1,0,0-.382Zm1.566,1.164a.65.65,0,0,1-.631.651.648.648,0,1,1,.631-.651Zm-.631-.367a.35.35,0,0,0-.348.367.348.348,0,1,0,.693,0A.349.349,0,0,0,13.017,7.585Zm1.424-.277a.567.567,0,0,0-.4.156l-.028-.082a.061.061,0,0,0-.064-.048h-.063a.074.074,0,0,0-.072.072V8.5a.073.073,0,0,0,.072.072h.134c.057,0,.085-.023.085-.072V7.75a.357.357,0,0,1,.306-.165c.145,0,.224.106.224.3V8.5a.072.072,0,0,0,.072.072h.147a.074.074,0,0,0,.072-.072V7.894C14.925,7.5,14.767,7.308,14.441,7.308Zm1.12.513c-.129-.056-.2-.1-.2-.166,0-.046.043-.093.141-.093a.614.614,0,0,1,.254.059.071.071,0,0,0,.1-.03l.042-.084a.085.085,0,0,0-.032-.107.682.682,0,0,0-.361-.092c-.287,0-.416.173-.416.345,0,.214.162.317.336.4s.252.127.252.2-.056.1-.146.1a.542.542,0,0,1-.29-.085l-.005,0a.074.074,0,0,0-.061-.009.06.06,0,0,0-.037.031l-.055.112a.064.064,0,0,0,.025.081h0a.715.715,0,0,0,.406.126.4.4,0,0,0,.447-.368C15.96,8.007,15.8,7.923,15.561,7.821Z"/>
      <path d="M1.258,6.782C.284,6.782.04,7.026.04,8S.284,9.218,1.258,9.218,2.476,8.974,2.476,8,2.232,6.782,1.258,6.782Zm.109,1.649-.242.243a.063.063,0,0,1-.087,0L.953,8.588a.026.026,0,0,1,0-.033A.181.181,0,0,0,.7,8.308a.029.029,0,0,1-.033,0L.584,8.22a.062.062,0,0,1,0-.087L.827,7.89a.02.02,0,0,1,.027,0l.513.514A.018.018,0,0,1,1.367,8.431Zm.564-.564-.442.442a.018.018,0,0,1-.027,0L.948,7.8a.02.02,0,0,1,0-.027l.442-.443a.062.062,0,0,1,.087,0l.086.086a.027.027,0,0,1,0,.032.181.181,0,0,0,.247.248.026.026,0,0,1,.033,0l.085.085A.062.062,0,0,1,1.931,7.867Z"/>
    </g>
  </g>
</svg>
