<svg xmlns="http://www.w3.org/2000/svg" viewBox="0 0 16 16"><defs><style>.cls-1{fill:#231f20;}</style></defs><title>simple-person-outline</title><g id="Layer_1" data-name="Layer 1"><path class="cls-1" d="M12.178,9.274,9.866,8.231a3.8,3.8,0,1,0-3.732,0L3.822,9.274a1.891,1.891,0,0,0-1.114,1.72V14.1a.731.731,0,0,0,.733.729h9.117a.731.731,0,0,0,.733-.729V10.994A1.891,1.891,0,0,0,12.178,9.274ZM8,2.619A2.323,2.323,0,1,1,5.667,4.941,2.331,2.331,0,0,1,8,2.619Zm3.826,10.754H4.174V10.994a.43.43,0,0,1,.253-.391L8,8.991,11.573,10.6a.43.43,0,0,1,.253.391Z"/></g></svg>