<svg xmlns="http://www.w3.org/2000/svg" viewBox="0 0 16 16"><title>stripe</title><g id="Layer_1" data-name="Layer 1"><path d="M1.011,9.891A3.152,3.152,0,0,1,.03,9.739V8.771a5.951,5.951,0,0,0,.835.146c.285,0,.465-.08.465-.385,0-.172-.14-.311-.325-.457L.687,7.816A1.535,1.535,0,0,1,0,6.516a1.343,1.343,0,0,1,1.511-1.4,2.91,2.91,0,0,1,.962.152v.941a3.6,3.6,0,0,0-.829-.139c-.246,0-.4.12-.4.372s.172.357.385.517l.311.232a1.462,1.462,0,0,1,.643,1.3C2.589,9.712,1.76,9.891,1.011,9.891Z"/><path d="M4.215,9.891A.89.89,0,0,1,3.188,8.877V7.113H2.724v-.8h.464l.159-.8,1.1-.265V6.311H5.11l-.165.8h-.5V8.651c0,.239.073.286.213.286.092,0,.45-.053.45-.053v.895A5.111,5.111,0,0,1,4.215,9.891Z"/><path d="M7.054,7.3a.822.822,0,0,0-.417.119V9.825H5.376V6.311h1l.186.338a.58.58,0,0,1,.563-.4.744.744,0,0,1,.391.073V7.365A2.013,2.013,0,0,0,7.054,7.3Z"/><path d="M7.818,9.825V6.311h1.26V9.825Zm.63-3.945a.63.63,0,1,1,.623-.63A.623.623,0,0,1,8.448,5.88Z"/><path d="M11.313,9.891a1.958,1.958,0,0,1-.444-.073v1.267H9.609V6.311h1.022l.185.219a1.126,1.126,0,0,1,.749-.285c.517,0,1.127.146,1.127,1.8C12.692,9.865,11.777,9.891,11.313,9.891Zm-.146-2.718a.841.841,0,0,0-.3.106v1.7a.939.939,0,0,0,.212.034c.219,0,.352-.186.352-.962S11.373,7.173,11.167,7.173Z"/><path d="M14.278,8.486c0,.378.186.451.5.451A6.53,6.53,0,0,0,15.8,8.8v.915a3.513,3.513,0,0,1-1.028.179c-.789,0-1.751-.126-1.751-1.81,0-1.485.756-1.836,1.552-1.836.815,0,1.4.417,1.4,1.823v.418Zm.3-1.492c-.319,0-.285.391-.3.809h.531C14.809,7.392,14.829,6.994,14.577,6.994Z"/></g></svg>