<svg xmlns="http://www.w3.org/2000/svg" viewBox="0 0 16 16"><title>stripe</title><g id="Layer_1" data-name="Layer 1"><path d="M1,9.89a3.21,3.21,0,0,1-1-.15v-1a5.77,5.77,0,0,0,.84.15c.28,0,.46-.08.46-.39S1.19,8.22,1,8.07L.69,7.82A1.54,1.54,0,0,1,0,6.52a1.35,1.35,0,0,1,1.52-1.4,2.92,2.92,0,0,1,1,.15v.94a3.56,3.56,0,0,0-.83-.14c-.25,0-.4.12-.4.37s.17.36.38.52L2,7.19a1.47,1.47,0,0,1,.64,1.3C2.59,9.71,1.76,9.89,1,9.89Z"/><path d="M4.22,9.89a.89.89,0,0,1-1-1V7.11H2.72v-.8h.47l.16-.79,1.1-.27V6.31h.66l-.17.8H4.45V8.65c0,.24.07.29.21.29s.45-.06.45-.06v.9A5.19,5.19,0,0,1,4.22,9.89Z"/><path d="M7.05,7.3a.82.82,0,0,0-.41.12V9.83H5.38V6.31h1l.18.34a.6.6,0,0,1,.57-.41.71.71,0,0,1,.39.08v1A1.94,1.94,0,0,0,7.05,7.3Z"/><path d="M7.82,9.83V6.31H9.08V9.83Zm.63-3.95a.63.63,0,0,1,0-1.26.63.63,0,0,1,0,1.26Z"/><path d="M11.31,9.89a2,2,0,0,1-.44-.07v1.26H9.61V6.31h1l.19.22a1.1,1.1,0,0,1,.75-.29c.51,0,1.12.15,1.12,1.81S11.78,9.89,11.31,9.89Zm-.14-2.72a.78.78,0,0,0-.3.11V9a1.06,1.06,0,0,0,.21,0c.22,0,.35-.19.35-1S11.37,7.17,11.17,7.17Z"/><path d="M14.28,8.49c0,.37.18.45.5.45a6.53,6.53,0,0,0,1-.14v.91a3.44,3.44,0,0,1-1,.18C14,9.89,13,9.77,13,8.08c0-1.48.75-1.84,1.55-1.84S16,6.66,16,8.07v.42Zm.3-1.5c-.32,0-.29.4-.3.81h.53C14.81,7.39,14.83,7,14.58,7Z"/></g></svg>