<svg xmlns="http://www.w3.org/2000/svg" viewBox="0 0 16 16">
  <title>twitter-outline</title>
  <g id="Layer_1" data-name="Layer 1">
    <path d="M15.535,2.824a1.177,1.177,0,0,0-.437-1.09,1.259,1.259,0,0,0-1.366-.107,4.368,4.368,0,0,1-.846.366,4.12,4.12,0,0,0-2.319-.717A3.949,3.949,0,0,0,6.675,4.32,6.738,6.738,0,0,1,3.109,2.18,1.2,1.2,0,0,0,2.09,1.76a1.221,1.221,0,0,0-.943.571A3.689,3.689,0,0,0,.6,4.265,3.638,3.638,0,0,0,.792,5.441a1.212,1.212,0,0,0-.216.711,3.71,3.71,0,0,0,.975,2.5,1.2,1.2,0,0,0,.054.491,3.772,3.772,0,0,0,.8,1.352,4.725,4.725,0,0,1-1.023,0A1.219,1.219,0,0,0,.1,11.278a1.189,1.189,0,0,0,.505,1.409,9.355,9.355,0,0,0,4.87,1.357,8.81,8.81,0,0,0,9.066-8.41,6.581,6.581,0,0,0,1.129-1.219,1.16,1.16,0,0,0,.247-.719A1.183,1.183,0,0,0,15.535,2.824Zm-2.2,2.23c.005.112.008.225.008.338A7.6,7.6,0,0,1,5.48,12.853a8.117,8.117,0,0,1-4.233-1.179,5.7,5.7,0,0,0,.658.037,5.732,5.732,0,0,0,3.431-1.123,2.746,2.746,0,0,1-2.58-1.82A2.911,2.911,0,0,0,4,8.723,2.661,2.661,0,0,1,1.787,6.152V6.119a2.862,2.862,0,0,0,1.252.328A2.587,2.587,0,0,1,1.81,4.265a2.5,2.5,0,0,1,.374-1.317A8,8,0,0,0,7.876,5.687a2.523,2.523,0,0,1-.071-.6,2.694,2.694,0,0,1,2.762-2.622,2.827,2.827,0,0,1,2.016.829,5.76,5.76,0,0,0,1.753-.636,2.663,2.663,0,0,1-1.214,1.45A5.8,5.8,0,0,0,14.708,3.7,5.491,5.491,0,0,1,13.33,5.054Z" fill="#231f20"/>
  </g>
</svg>
