<svg xmlns="http://www.w3.org/2000/svg" viewBox="0 0 16 16"><title>view</title><g id="Layer_1" data-name="Layer 1"><path d="M15.993,7.861c-.505-.9-3.5-5.57-7.984-5.57S.563,6.963.067,7.862a.282.282,0,0,0,0,.276c.5.9,3.453,5.571,7.942,5.571s7.479-4.667,7.984-5.57A.281.281,0,0,0,15.993,7.861ZM8.07,12.036A4.04,4.04,0,1,1,12.11,8,4.04,4.04,0,0,1,8.07,12.036Z"/><path d="M8.236,5.986c0,.051.007.1.007.155A1.834,1.834,0,0,1,6.409,7.975a1.814,1.814,0,0,1-.356-.035c0,.019,0,.038,0,.056a2.018,2.018,0,1,0,2.184-2.01Z"/></g></svg>