<svg data-name="Layer 1" xmlns="http://www.w3.org/2000/svg" xmlns:xlink="http://www.w3.org/1999/xlink" viewBox="0 0 32 32" aria-labelledby="title-color-planning-center-mark" role="img" class="symbol symbol-color-planning-center-mark"><defs><linearGradient id="a" x1="16" y1="-.798" x2="16" y2="34.754" gradientUnits="userSpaceOnUse"><stop offset="0" stop-color="#1a6bfe"/><stop offset=".651" stop-color="#1d5ae1"/><stop offset=".999" stop-color="#1a56e3"/></linearGradient><linearGradient id="b" x1="16" y1="-.798" x2="16" y2="34.754" xlink:href="#a"/></defs><title id="title-color-planning-center-mark">color-planning-center-mark icon</title><path d="M20.812 12.714L17.2 13.867a4.044 4.044 0 0 1-2.386.021l-3.63-1.088a.306.306 0 0 0-.393.293V17.5a.3.3 0 0 0 .218.292l4.435 1.331a1.823 1.823 0 0 0 1.082-.01L21 17.684a.307.307 0 0 0 .213-.291v-4.388a.306.306 0 0 0-.401-.291z" fill="url(#a)" role="presentation"/><path d="M28.207 3.238L18.583.376a9.066 9.066 0 0 0-5.166 0L3.793 3.238A5.192 5.192 0 0 0 .159 8.19v15.62a5.192 5.192 0 0 0 3.634 4.952l9.624 2.862a9.066 9.066 0 0 0 5.166 0l9.624-2.862a5.192 5.192 0 0 0 3.634-4.952V8.19a5.192 5.192 0 0 0-3.634-4.952zM24.42 18.39a2.276 2.276 0 0 1-1.62 2.18l-5.625 1.681a4.042 4.042 0 0 1-2.314 0l-3.792-1.137a.216.216 0 0 0-.277.207v2.562a.809.809 0 0 1-1.039.775l-1.592-.473a.809.809 0 0 1-.578-.775V11.5A2.275 2.275 0 0 1 10.5 9.317l4.952 1.455a1.836 1.836 0 0 0 1.064-.009l4.95-1.55a2.275 2.275 0 0 1 2.955 2.171z" fill="url(#b)" role="presentation"/></svg>