<svg id="Layer_1" data-name="Layer 1" xmlns="http://www.w3.org/2000/svg" viewBox="0 0 32 32" class="symbol symbol-light-planning-center-mark" aria-labelledby="title" role="img"><defs><style>.cls-1{fill:#f5f6f8}</style></defs><title id="title">light-planning-center-mark icon</title><path class="cls-1" d="M28.207 3.238L18.583.376a9.062 9.062 0 0 0-5.165 0L3.793 3.238A5.191 5.191 0 0 0 .159 8.19v15.62a5.191 5.191 0 0 0 3.634 4.952l9.624 2.862a9.062 9.062 0 0 0 5.165 0l9.624-2.862a5.191 5.191 0 0 0 3.634-4.952V8.19a5.191 5.191 0 0 0-3.633-4.952zM24.469 18.39a2.338 2.338 0 0 1-1.658 2.227L17.186 22.3a4.094 4.094 0 0 1-2.342 0l-3.792-1.136h-.018c-.128 0-.2.072-.2.16v2.563a.858.858 0 0 1-.856.857.884.884 0 0 1-.246-.036l-1.593-.473a.863.863 0 0 1-.612-.821v-11.91a2.319 2.319 0 0 1 2.98-2.229l4.951 1.455a1.785 1.785 0 0 0 1.036-.008l4.95-1.55a2.319 2.319 0 0 1 3.018 2.218z" role="presentation"/><path class="cls-1" d="M20.812 12.714L17.2 13.867a4.036 4.036 0 0 1-2.386.021l-3.63-1.088a.306.306 0 0 0-.393.293V17.5a.305.305 0 0 0 .218.293l4.435 1.33a1.827 1.827 0 0 0 1.083-.009L21 17.684a.306.306 0 0 0 .213-.291v-4.388a.306.306 0 0 0-.401-.291z" role="presentation"/></svg>