<svg width="16" height="16" viewBox="0 0 16 16" fill="none" xmlns="http://www.w3.org/2000/svg">
<path d="M13.3015 2.69849C11.8794 1.37331 9.99835 0.651874 8.05479 0.686166C6.11122 0.720458 4.25684 1.5078 2.88232 2.88232C1.5078 4.25684 0.720458 6.11122 0.686166 8.05479C0.651874 9.99835 1.37331 11.8794 2.69849 13.3015C4.12064 14.6267 6.00164 15.3481 7.94521 15.3138C9.88877 15.2795 11.7432 14.4922 13.1177 13.1177C14.4922 11.7432 15.2795 9.88877 15.3138 7.94521C15.3481 6.00164 14.6267 4.12064 13.3015 2.69849ZM12.3612 12.3612C11.7889 12.9347 11.1091 13.3896 10.3608 13.7C9.6124 14.0104 8.81018 14.1702 8 14.1702C7.18982 14.1702 6.38759 14.0104 5.63924 13.7C4.89088 13.3896 4.21108 12.9347 3.63876 12.3612C2.48551 11.2027 1.83806 9.63465 1.83806 8C1.83806 6.36535 2.48551 4.79725 3.63876 3.63876C4.21108 3.06532 4.89088 2.61038 5.63924 2.29997C6.38759 1.98957 7.18982 1.82979 8 1.82979C8.81018 1.82979 9.6124 1.98957 10.3608 2.29997C11.1091 2.61038 11.7889 3.06532 12.3612 3.63876C13.5145 4.79725 14.1619 6.36535 14.1619 8C14.1619 9.63465 13.5145 11.2027 12.3612 12.3612Z" fill="black"/>
<path d="M10.8208 3.62875C10.787 3.54814 10.7271 3.48121 10.6508 3.4387C10.5849 3.42403 10.5166 3.42403 10.4507 3.4387H10.3907C10.2914 3.45248 10.1961 3.48652 10.1106 3.53873C9.9941 3.60478 9.88653 3.68545 9.79051 3.7788L7.27979 5.99943C6.95229 6.32499 6.67275 6.69547 6.44956 7.09974C6.21106 7.49111 6.03237 7.91592 5.91941 8.3601L5.16919 11.681C5.15593 11.8074 5.15593 11.9348 5.16919 12.0612C5.14842 12.1601 5.14842 12.2623 5.16919 12.3612C5.20298 12.4419 5.26287 12.5088 5.33924 12.5513C5.40128 12.5829 5.46969 12.6 5.5393 12.6013H5.59931C5.69855 12.5875 5.79388 12.5535 5.87939 12.5013C5.99589 12.4352 6.10346 12.3546 6.19948 12.2612L8.7202 10.0006C9.0477 9.675 9.32725 9.30452 9.55044 8.90025C9.78894 8.50888 9.96763 8.08407 10.0806 7.6399L10.8308 4.31895C10.8441 4.19259 10.8441 4.0652 10.8308 3.93884C10.8516 3.83989 10.8516 3.73771 10.8308 3.63876L10.8208 3.62875ZM8.65018 8.3701C8.57951 8.50207 8.47097 8.60988 8.33852 8.67966C8.20608 8.74944 8.05579 8.778 7.90698 8.76166C7.75817 8.74533 7.61765 8.68485 7.5035 8.588C7.38934 8.49115 7.30677 8.36236 7.26641 8.21821C7.22604 8.07405 7.22973 7.92111 7.27699 7.77907C7.32426 7.63702 7.41294 7.51237 7.53163 7.42113C7.65032 7.3299 7.79359 7.27626 7.94301 7.26711C8.09243 7.25797 8.24117 7.29374 8.3701 7.36982C8.53683 7.4682 8.65907 7.62723 8.71126 7.81365C8.76346 8.00007 8.74158 8.19945 8.65018 8.3701Z" fill="black"/>
</svg>
