<svg id="Layer_1" data-name="Layer 1" xmlns="http://www.w3.org/2000/svg" viewBox="0 0 16 16"><title>compass</title><path d="M13.3,2.7A7.5,7.5,0,0,0,2.7,13.3,7.5,7.5,0,0,0,13.3,2.7Zm-.94,9.66a6.16,6.16,0,0,1-8.72,0,6.18,6.18,0,0,1,0-8.72,6.16,6.16,0,0,1,8.72,0A6.18,6.18,0,0,1,12.36,12.36Z"/><path d="M10.82,3.63h0a.39.39,0,0,0-.17-.19.46.46,0,0,0-.2,0h-.06a.73.73,0,0,0-.28.1,1.57,1.57,0,0,0-.32.24L7.28,6a4.87,4.87,0,0,0-.83,1.1,4.6,4.6,0,0,0-.53,1.26l-.75,3.32a1.82,1.82,0,0,0,0,.38.73.73,0,0,0,0,.3h0a.39.39,0,0,0,.17.19.46.46,0,0,0,.2.05h.06a.73.73,0,0,0,.28-.1,1.57,1.57,0,0,0,.32-.24L8.72,10a4.87,4.87,0,0,0,.83-1.1,4.6,4.6,0,0,0,.53-1.26h0l.75-3.32a1.82,1.82,0,0,0,0-.38.73.73,0,0,0,0-.3ZM8.65,8.37a.75.75,0,1,1-.28-1A.75.75,0,0,1,8.65,8.37Z"/><polygon points="6.45 7.11 6.45 7.11 6.45 7.1 6.45 7.11"/><polygon points="9.55 8.89 9.55 8.89 9.55 8.9 9.55 8.89"/></svg>