<svg width="16" height="16" viewBox="0 0 16 16" fill="none" xmlns="http://www.w3.org/2000/svg">
<path d="M12.9647 2.08542V3.29538C13.0491 3.37733 13.1165 3.4752 13.1628 3.58334C13.2092 3.69147 13.2336 3.80772 13.2348 3.92536V13.7851C13.2348 13.9019 13.2117 14.0177 13.167 14.1256C13.1223 14.2336 13.0567 14.3317 12.974 14.4144C12.8914 14.497 12.7932 14.5626 12.6852 14.6073C12.5772 14.652 12.4615 14.675 12.3446 14.675H5.52301C5.41209 14.6766 5.30194 14.6562 5.19894 14.615C5.09593 14.5738 5.00211 14.5127 4.92288 14.435H3.6826C3.82322 14.8115 4.07402 15.1369 4.4023 15.3687C4.73058 15.6006 5.12112 15.7282 5.52301 15.735H12.3346C12.8566 15.7352 13.3579 15.5313 13.7317 15.167C14.1054 14.8027 14.322 14.3068 14.335 13.7851V3.92536C14.323 3.51517 14.1851 3.1186 13.9399 2.78945C13.6948 2.4603 13.3543 2.21451 12.9647 2.08542Z" fill="black"/>
<path d="M10.2741 13.9851C10.568 13.9849 10.8583 13.9201 11.1243 13.7951C11.5161 13.5986 11.8426 13.293 12.0645 12.9151C12.2943 12.5241 12.4152 12.0786 12.4146 11.6251V2.6254C12.4173 2.02279 12.2004 1.43983 11.8044 0.98545C11.6179 0.765077 11.3859 0.587687 11.1243 0.465466C10.8603 0.333716 10.5692 0.265243 10.2741 0.265472H5.52301C5.38927 0.259978 5.25799 0.302546 5.15293 0.385468C5.12072 0.417766 5.09372 0.454874 5.07291 0.495465L1.79217 4.20535C1.73557 4.26447 1.69436 4.33658 1.67214 4.41534C1.66263 4.47161 1.66263 4.52907 1.67214 4.58534V11.5851C1.66854 12.1879 1.88555 12.7712 2.28228 13.2251C2.47163 13.445 2.70283 13.6252 2.96244 13.7551C3.22843 13.8801 3.51871 13.9449 3.81263 13.9451L10.2741 13.9851ZM2.88242 12.3651C2.74763 12.1311 2.67852 11.8651 2.68237 11.5951V5.10532H4.42277C4.6455 5.1113 4.867 5.07042 5.07291 4.98533C5.3667 4.83975 5.61044 4.60999 5.77307 4.32535C5.9565 4.02453 6.05019 3.67761 6.04313 3.32538V1.26544H10.2741C10.4134 1.26773 10.5502 1.30194 10.6742 1.36544C10.8838 1.46911 11.0578 1.63269 11.1743 1.83542C11.3105 2.06882 11.3797 2.33524 11.3743 2.6054V11.6051C11.3869 11.9688 11.266 12.3245 11.0343 12.6051C10.931 12.7182 10.8092 12.8128 10.6742 12.8851C10.5495 12.9455 10.4126 12.9763 10.2741 12.9751H3.78262C3.64422 12.9752 3.50754 12.9445 3.38253 12.8851C3.17077 12.7615 2.99759 12.5815 2.88242 12.3651Z" fill="black"/>
</svg>
