<svg id="Layer_1" data-name="Layer 1" xmlns="http://www.w3.org/2000/svg" viewBox="0 0 16 16"><title>key</title><polygon points="15.13 11.63 15.13 11.63 15.13 11.63 15.13 11.63"/><polygon points="15.26 15.26 15.26 15.26 15.26 15.26 15.26 15.26"/><path d="M15.5,14.64v0l-.13-2.43h0a.66.66,0,0,0,0-.14,1,1,0,0,0-.09-.24.86.86,0,0,0-.14-.18L9.77,6.27A4.74,4.74,0,0,0,9.89,5.2,4.7,4.7,0,1,0,5.2,9.89a4.74,4.74,0,0,0,1.07-.12l1.61,1.61h0a.88.88,0,0,0,.28.18l.15,0,.13,0h.21v.18a.92.92,0,0,0,0,.16,1,1,0,0,0,.09.24l.14.18h0l.92.91h0a.8.8,0,0,0,.3.19l.19,0,0,.15.07.16a1.29,1.29,0,0,0,.13.18h0l1.11,1.1a.67.67,0,0,0,.28.18l.14,0h.13l2.43.13h.06a.47.47,0,0,0,.16,0,.54.54,0,0,0,.24-.09,1.4,1.4,0,0,0,.18-.13,1,1,0,0,0,.19-.3A1.19,1.19,0,0,0,15.5,14.64ZM5.2,8.87A3.68,3.68,0,0,1,2.59,2.59,3.68,3.68,0,0,1,8.87,5.2v.17a3.62,3.62,0,0,1-.26,1.19A3.75,3.75,0,0,1,7.8,7.8,3.73,3.73,0,0,1,5.37,8.87Zm7.1,5.49-1-1,0-.32a.5.5,0,0,0-.57-.58l-.33,0-.8-.8v-.58a.5.5,0,0,0-.48-.5l-.63,0L7.32,9.38a5,5,0,0,0,1.2-.86,5,5,0,0,0,.86-1.2l5,5,.11,2.17Z"/><path d="M9.61,8.73a.34.34,0,0,0-.46,0,.33.33,0,0,0,0,.47l3.62,3.61a.33.33,0,0,0,.46-.46Z"/><path d="M4.57,3l-.2,0A1.28,1.28,0,0,0,3.1,4.1a1.23,1.23,0,0,0,.22,1,1.28,1.28,0,0,0,.84.52l.21,0A1.29,1.29,0,0,0,4.57,3ZM3.74,4.2a.64.64,0,0,1,.63-.54h.1a.63.63,0,0,1-.1,1.26h-.1A.65.65,0,0,1,3.74,4.2Z"/></svg>