<svg id="Layer_1" data-name="Layer 1" xmlns="http://www.w3.org/2000/svg" viewBox="0 0 16 16"><title>key</title><polygon points="15.13 11.635 15.13 11.635 15.13 11.635 15.13 11.635"/><polygon points="15.257 15.256 15.256 15.257 15.256 15.257 15.257 15.256"/><path d="M15.5,14.644v-.026l-.126-2.429h0a.95.95,0,0,0-.014-.137.806.806,0,0,0-.091-.241.906.906,0,0,0-.138-.176L9.765,6.27A4.694,4.694,0,0,0,5.2.5,4.7,4.7,0,1,0,6.271,9.765l1.611,1.611h0a.839.839,0,0,0,.281.183.81.81,0,0,0,.276.059h0l.208.01v.176a.849.849,0,0,0,.016.163.776.776,0,0,0,.091.242.867.867,0,0,0,.137.176h0l.915.915h0a.813.813,0,0,0,.3.189.9.9,0,0,0,.194.046.947.947,0,0,0,.034.15.929.929,0,0,0,.067.162.733.733,0,0,0,.13.178h0l1.1,1.1a.841.841,0,0,0,.282.184.8.8,0,0,0,.142.043.874.874,0,0,0,.13.015h0l2.429.126h.058a.845.845,0,0,0,.163-.015.769.769,0,0,0,.242-.092.893.893,0,0,0,.175-.136.836.836,0,0,0,.19-.3A.923.923,0,0,0,15.5,14.644ZM5.2,8.874A3.678,3.678,0,1,1,8.874,5.2c0,.06,0,.12-.005.179a3.65,3.65,0,0,1-.256,1.182A3.686,3.686,0,0,1,6.556,8.613a3.65,3.65,0,0,1-1.182.256C5.315,8.872,5.255,8.874,5.2,8.874ZM12.3,14.361l-.991-.992.049-.319a.509.509,0,0,0-.575-.581l-.328.047-.795-.795v-.578a.51.51,0,0,0-.485-.508l-.629-.028L7.324,9.38A4.7,4.7,0,0,0,9.38,7.323L14.361,12.3l.112,2.169Z"/><path d="M9.611,8.734a.327.327,0,1,0-.462.462l3.618,3.619a.327.327,0,1,0,.462-.463Z"/><path d="M4.571,3.026a1.4,1.4,0,0,0-.2-.016,1.288,1.288,0,1,0,.2.016ZM3.741,4.2a.635.635,0,0,1,.626-.535.7.7,0,0,1,.1.008.635.635,0,0,1-.1,1.261.562.562,0,0,1-.1-.008A.634.634,0,0,1,3.741,4.2Z"/></svg>