<svg width="16" height="16" viewBox="0 0 16 16" fill="none" xmlns="http://www.w3.org/2000/svg">
<path d="M15.505 14.733L15.375 12.3025C15.38 12.2559 15.38 12.209 15.375 12.1625C15.3554 12.0789 15.3252 11.9982 15.285 11.9224C15.2465 11.8564 15.1994 11.7959 15.145 11.7424L9.77499 6.36122C9.8555 6.01019 9.89576 5.65114 9.89499 5.29099C9.89697 4.36037 9.62275 3.45011 9.10707 2.6755C8.59139 1.9009 7.85745 1.29681 6.99823 0.93976C6.13901 0.582714 5.19317 0.488776 4.28052 0.669846C3.36788 0.850916 2.52951 1.29885 1.8716 1.95689C1.21369 2.61494 0.765852 3.4535 0.58482 4.36633C0.403788 5.27917 0.497707 6.22521 0.854677 7.08461C1.21165 7.94401 1.81561 8.67811 2.59005 9.1939C3.36449 9.70969 4.27457 9.98397 5.20499 9.98199C5.56506 9.98276 5.92404 9.94249 6.27499 9.86196L7.88499 11.4723C7.96602 11.5496 8.06106 11.6107 8.16499 11.6523H8.65499V11.8324C8.65034 11.8856 8.65034 11.9392 8.65499 11.9924C8.67457 12.076 8.70482 12.1566 8.74499 12.2325L8.88499 12.4125L9.80499 13.3227C9.8895 13.4077 9.99202 13.4727 10.105 13.5127H10.295V13.6628L10.365 13.8228C10.4031 13.8864 10.4466 13.9467 10.495 14.0028L11.605 15.1031C11.6817 15.1857 11.778 15.2476 11.885 15.2831H12.155L14.585 15.4131H14.645C14.6979 15.4223 14.7521 15.4223 14.805 15.4131C14.8911 15.4028 14.9734 15.372 15.045 15.3231C15.1083 15.2846 15.1685 15.2411 15.225 15.1931C15.3057 15.1052 15.3701 15.0036 15.415 14.893C15.4491 14.8421 15.4792 14.7886 15.505 14.733ZM5.20499 8.96177C4.47693 8.9629 3.76489 8.74799 3.15898 8.34425C2.55306 7.9405 2.0805 7.36606 1.80108 6.69361C1.52167 6.02115 1.44796 5.28091 1.58928 4.56654C1.7306 3.85218 2.08059 3.19579 2.59499 2.68044C3.11023 2.16594 3.76648 1.81586 4.48069 1.67452C5.19491 1.53317 5.93499 1.60689 6.60731 1.88637C7.27962 2.16584 7.85394 2.63851 8.2576 3.24455C8.66126 3.85059 8.87612 4.56278 8.87499 5.29099V5.46103C8.85616 5.86962 8.76825 6.27207 8.61499 6.65128C8.43011 7.11445 8.15474 7.5361 7.80499 7.89155C7.15365 8.53433 6.28881 8.91522 5.37499 8.96177H5.20499ZM12.305 14.4529L11.305 13.4527V13.1327C11.3187 13.0543 11.3135 12.9738 11.2898 12.8979C11.2662 12.822 11.2248 12.7528 11.1691 12.6961C11.1133 12.6393 11.0449 12.5967 10.9694 12.5718C10.8939 12.5468 10.8135 12.5402 10.735 12.5525H10.405L9.60499 11.7524V11.1722C9.6051 11.043 9.55517 10.9187 9.46569 10.8255C9.3762 10.7323 9.2541 10.6773 9.12499 10.6721H8.49499L7.32499 9.47188C7.76534 9.24613 8.16975 8.95624 8.52499 8.6117C8.86946 8.25638 9.15928 7.85189 9.38499 7.41144L14.385 12.4125L14.495 14.583L12.305 14.4529Z" fill="black"/>
<path d="M9.61499 8.82174C9.55226 8.76411 9.47018 8.73212 9.38499 8.73212C9.29981 8.73212 9.21773 8.76411 9.15499 8.82174C9.12385 8.85245 9.09912 8.88904 9.08224 8.9294C9.06536 8.96975 9.05667 9.01305 9.05667 9.05679C9.05667 9.10053 9.06536 9.14384 9.08224 9.18419C9.09912 9.22454 9.12385 9.26113 9.15499 9.29184L12.775 12.9026C12.8386 12.9476 12.916 12.9687 12.9936 12.9621C13.0712 12.9555 13.1439 12.9216 13.199 12.8666C13.254 12.8115 13.2878 12.7387 13.2944 12.6611C13.301 12.5835 13.28 12.5061 13.235 12.4425L9.61499 8.82174Z" fill="black"/>
<path d="M4.57499 3.09053H4.37499C4.06623 3.08987 3.76764 3.20087 3.53425 3.40306C3.30086 3.60525 3.14841 3.885 3.10499 4.19076C3.06768 4.3635 3.06802 4.54225 3.10599 4.71485C3.14395 4.88745 3.21865 5.04984 3.32499 5.19097C3.42357 5.329 3.5486 5.44606 3.6928 5.53535C3.837 5.62464 3.99751 5.68437 4.16499 5.71108H4.37499C4.72242 5.73761 5.06616 5.625 5.33059 5.39804C5.59502 5.17107 5.75847 4.84833 5.78499 4.50083C5.81151 4.15332 5.69893 3.80951 5.47201 3.54502C5.24509 3.28054 4.92242 3.11705 4.57499 3.09053ZM3.74499 4.29078C3.76874 4.14058 3.84519 4.00374 3.96062 3.90477C4.07606 3.8058 4.22295 3.75117 4.37499 3.75067H4.47499C4.64208 3.76393 4.79705 3.84304 4.90582 3.97059C5.01459 4.09814 5.06825 4.26369 5.05499 4.43081C5.04173 4.59793 4.96264 4.75294 4.83511 4.86173C4.70759 4.97053 4.54208 5.0242 4.37499 5.01093H4.27499C4.11131 4.9815 3.96513 4.89043 3.86655 4.75647C3.76796 4.62251 3.72445 4.45585 3.74499 4.29078Z" fill="black"/>
</svg>
