<svg width="16" height="16" viewBox="0 0 16 16" fill="none" xmlns="http://www.w3.org/2000/svg">
<path d="M6.99989 11.082L4.87964 12.0024C4.36502 12.2142 3.78739 12.2131 3.27359 11.9992C2.7598 11.7854 2.35184 11.3764 2.13932 10.8619L1.86929 10.1916C1.75633 9.93464 1.69601 9.65763 1.69188 9.37694C1.68776 9.09625 1.73991 8.81758 1.84526 8.55739C1.95061 8.2972 2.10702 8.06077 2.30526 7.86206C2.50349 7.66336 2.73953 7.50641 2.99942 7.40048L5.76975 6.26002C6.28437 6.04818 6.862 6.0493 7.3758 6.26313C7.88959 6.47696 8.29755 6.88602 8.51007 7.40048L8.92012 8.40089C8.99335 8.57734 9.13279 8.71806 9.30854 8.79287C9.48429 8.86768 9.68234 8.87062 9.86023 8.80105C9.95409 8.76407 10.0394 8.70828 10.1109 8.63711C10.1824 8.56595 10.2386 8.48091 10.2761 8.38722C10.3136 8.29353 10.3315 8.19317 10.3288 8.0923C10.326 7.99143 10.3027 7.89218 10.2603 7.80065L9.84023 6.80024C9.47203 5.93953 8.77898 5.25906 7.91181 4.90685C7.04464 4.55463 6.07352 4.55917 5.20968 4.91948L2.45936 6.05994C2.02798 6.23655 1.63572 6.49662 1.30507 6.82523C0.974421 7.15385 0.711896 7.54454 0.532558 7.97489C0.353221 8.40524 0.260601 8.86677 0.260013 9.33301C0.259424 9.79926 0.35088 10.261 0.529131 10.6918L0.809164 11.3621C1.16774 12.2293 1.85576 12.9187 2.72211 13.2788C3.58846 13.639 4.56229 13.6404 5.42971 13.2829L7.51995 12.4225C7.60815 12.3873 7.68851 12.335 7.75641 12.2686C7.8243 12.2022 7.8784 12.123 7.91558 12.0356C7.95277 11.9482 7.9723 11.8543 7.97306 11.7593C7.97381 11.6643 7.95578 11.5701 7.92 11.4821C7.8468 11.3105 7.71066 11.1733 7.53955 11.0989C7.36844 11.0245 7.17533 11.0184 6.99989 11.082Z" fill="black"/>
<path d="M10.5703 2.71858L8.81011 3.43887C8.63239 3.51184 8.49093 3.65243 8.41684 3.82973C8.38016 3.91751 8.36112 4.01167 8.36081 4.10681C8.36051 4.20196 8.37894 4.29624 8.41506 4.38426C8.45118 4.47228 8.50427 4.55232 8.57131 4.61982C8.63836 4.68731 8.71803 4.74094 8.8058 4.77763C8.98304 4.85174 9.18245 4.85238 9.36017 4.77942L11.1204 4.04912C11.635 3.83728 12.2126 3.8384 12.7264 4.05223C13.2402 4.26606 13.6482 4.67513 13.8607 5.18959L14.1307 5.85986C14.3431 6.37337 14.3434 6.95013 14.1316 7.46388C13.9198 7.97762 13.5131 8.38649 13.0006 8.60097L10.5803 9.60138C10.3249 9.70782 10.0511 9.76274 9.77442 9.76299C9.49776 9.76324 9.22379 9.70882 8.96822 9.60285C8.71266 9.49687 8.48055 9.34144 8.28521 9.14547C8.08988 8.9495 7.93518 8.71687 7.82999 8.46092L7.40994 7.46051C7.37488 7.37232 7.32251 7.29205 7.25592 7.22445C7.18933 7.15684 7.10987 7.10327 7.02223 7.0669C6.93459 7.03053 6.84056 7.0121 6.74568 7.01269C6.6508 7.01328 6.55701 7.03289 6.46983 7.07035C6.29596 7.14344 6.15771 7.28185 6.08477 7.45582C6.01184 7.6298 6.01005 7.82545 6.07978 8.00073L6.48983 9.00114C6.84857 9.87086 7.53766 10.5627 8.40583 10.9247C9.27399 11.2867 10.2503 11.2893 11.1204 10.9319L13.5407 9.93151C13.972 9.75491 14.3643 9.49484 14.6949 9.16622C15.0256 8.8376 15.2881 8.44691 15.4675 8.01656C15.6468 7.58622 15.7394 7.12468 15.74 6.65844C15.7406 6.1922 15.6491 5.73043 15.4709 5.29963L15.1909 4.62936C14.8304 3.76396 14.1416 3.07684 13.2754 2.71866C12.4093 2.36047 11.4365 2.36044 10.5703 2.71858Z" fill="black"/>
</svg>
