<svg width="16" height="16" viewBox="0 0 16 16" fill="none" xmlns="http://www.w3.org/2000/svg">
<path d="M6.99989 11.082L4.87964 12.0024C4.36502 12.2142 3.78739 12.2131 3.27359 11.9993C2.7598 11.7854 2.35184 11.3764 2.13932 10.8619L1.86929 10.1916C1.75633 9.93466 1.69601 9.65764 1.69188 9.37695C1.68776 9.09626 1.73991 8.81759 1.84526 8.5574C1.95061 8.29722 2.10702 8.06078 2.30526 7.86208C2.50349 7.66337 2.73953 7.50642 2.99942 7.4005L5.76975 6.26004C6.28437 6.0482 6.862 6.04932 7.3758 6.26315C7.88959 6.47698 8.29755 6.88604 8.51007 7.4005L8.92012 8.40091C8.99335 8.57736 9.13279 8.71808 9.30854 8.79288C9.48429 8.86769 9.68234 8.87063 9.86023 8.80107C9.95409 8.76408 10.0394 8.70829 10.1109 8.63713C10.1824 8.56596 10.2386 8.48092 10.2761 8.38723C10.3136 8.29354 10.3315 8.19318 10.3288 8.09231C10.326 7.99144 10.3027 7.89219 10.2603 7.80066L9.84023 6.80026C9.47203 5.93955 8.77898 5.25907 7.91181 4.90686C7.04464 4.55465 6.07352 4.55919 5.20968 4.91949L2.45936 6.05995C2.02798 6.23656 1.63572 6.49663 1.30507 6.82525C0.974421 7.15387 0.711896 7.54456 0.532558 7.97491C0.353221 8.40525 0.260601 8.86679 0.260013 9.33303C0.259424 9.79927 0.35088 10.261 0.529131 10.6918L0.809164 11.3621C1.16774 12.2293 1.85576 12.9187 2.72211 13.2789C3.58846 13.639 4.56229 13.6404 5.42971 13.2829L7.51995 12.4225C7.60815 12.3873 7.68851 12.335 7.75641 12.2686C7.8243 12.2022 7.8784 12.123 7.91558 12.0356C7.95277 11.9482 7.9723 11.8543 7.97306 11.7593C7.97381 11.6643 7.95578 11.5701 7.92 11.4822C7.8468 11.3105 7.71066 11.1734 7.53955 11.0989C7.36844 11.0245 7.17533 11.0185 6.99989 11.082Z" fill="black"/>
<path d="M10.5703 2.7186L8.81011 3.43889C8.63239 3.51185 8.49093 3.65245 8.41684 3.82974C8.38016 3.91753 8.36112 4.01168 8.36081 4.10683C8.36051 4.20198 8.37894 4.29625 8.41506 4.38427C8.45118 4.4723 8.50427 4.55234 8.57132 4.61983C8.63836 4.68733 8.71804 4.74096 8.8058 4.77765C8.98304 4.85176 9.18245 4.8524 9.36017 4.77943L11.1204 4.04914C11.635 3.8373 12.2126 3.83842 12.7264 4.05225C13.2402 4.26608 13.6482 4.67514 13.8607 5.1896L14.1307 5.85987C14.3431 6.37339 14.3434 6.95015 14.1316 7.46389C13.9198 7.97763 13.5131 8.3865 13.0006 8.60099L10.5803 9.6014C10.3249 9.70783 10.0511 9.76276 9.77441 9.76301C9.49776 9.76326 9.22379 9.70884 8.96822 9.60286C8.71266 9.49689 8.48055 9.34146 8.28521 9.14549C8.08988 8.94952 7.93518 8.71688 7.82999 8.46093L7.40994 7.46052C7.37488 7.37233 7.32251 7.29207 7.25592 7.22446C7.18933 7.15686 7.10987 7.10329 7.02223 7.06692C6.93459 7.03055 6.84056 7.01211 6.74568 7.01271C6.6508 7.0133 6.55701 7.0329 6.46983 7.07037C6.29596 7.14346 6.15771 7.28187 6.08477 7.45584C6.01184 7.62981 6.01005 7.82546 6.07978 8.00074L6.48983 9.00115C6.84857 9.87088 7.53766 10.5627 8.40583 10.9247C9.27399 11.2867 10.2503 11.2893 11.1204 10.9319L13.5407 9.93153C13.972 9.75492 14.3643 9.49485 14.6949 9.16623C15.0256 8.83762 15.2881 8.44693 15.4675 8.01658C15.6468 7.58623 15.7394 7.1247 15.74 6.65845C15.7406 6.19221 15.6491 5.73045 15.4709 5.29965L15.1909 4.62937C14.8304 3.76397 14.1416 3.07686 13.2754 2.71867C12.4093 2.36049 11.4365 2.36046 10.5703 2.7186Z" fill="black"/>
</svg>
