<svg id="Layer_1" data-name="Layer 1" xmlns="http://www.w3.org/2000/svg" viewBox="0 0 16 16"><title>terminal</title><path d="M13.417,1.021H2.583A2.089,2.089,0,0,0,.5,3.1V12.9a2.089,2.089,0,0,0,2.083,2.083H13.417A2.089,2.089,0,0,0,15.5,12.9V3.1A2.089,2.089,0,0,0,13.417,1.021ZM2.583,2.235H13.417a.871.871,0,0,1,.865.783H1.718A.871.871,0,0,1,2.583,2.235Zm10.834,11.53H2.583a.87.87,0,0,1-.869-.869V4.232H14.286V12.9A.87.87,0,0,1,13.417,13.765Z"/><path d="M6.905,8.627,6.9,8.619l-.008-.008-.04-.04,0-.006-.007,0L4.651,6.572l0,0,0,0a.745.745,0,0,0-.491-.185.705.705,0,0,0-.554.264.748.748,0,0,0-.175.555.7.7,0,0,0,.257.481L5.262,9.111,3.676,10.545a.734.734,0,0,0,.49,1.287.725.725,0,0,0,.48-.178l0,0,0,0L6.835,9.664A.747.747,0,0,0,6.905,8.627Z"/><path d="M11.775,10.717H7.541a.74.74,0,0,0,0,1.479h4.234a.74.74,0,1,0,0-1.479Z"/></svg>