<svg id="Layer_1" data-name="Layer 1" xmlns="http://www.w3.org/2000/svg" viewBox="0 0 16 16"><title>terminal</title><path d="M13.42,1H2.58A2.09,2.09,0,0,0,.5,3.1v9.8A2.09,2.09,0,0,0,2.58,15H13.42A2.09,2.09,0,0,0,15.5,12.9V3.1A2.09,2.09,0,0,0,13.42,1ZM2.58,2.23H13.42a.87.87,0,0,1,.86.79H1.72A.87.87,0,0,1,2.58,2.23ZM13.42,13.77H2.58a.87.87,0,0,1-.87-.87V4.23H14.29V12.9A.87.87,0,0,1,13.42,13.77Z"/><path d="M6.9,8.63h0l0,0h0l-2.19-2h0a.76.76,0,0,0-.5-.19.7.7,0,0,0-.55.27.73.73,0,0,0-.17.55.69.69,0,0,0,.25.48L5.26,9.11,3.68,10.55a.73.73,0,0,0,.49,1.28.72.72,0,0,0,.48-.18h0l2.19-2A.74.74,0,0,0,6.9,8.63Z"/><path d="M11.77,10.72H7.54a.74.74,0,1,0,0,1.48h4.23a.74.74,0,0,0,0-1.48Z"/></svg>