<svg id="Layer_1" data-name="Layer 1" xmlns="http://www.w3.org/2000/svg" viewBox="0 0 16 16"><title>webhook</title><path d="M15.09,10.32a3,3,0,0,0-2.62-1.51,3.15,3.15,0,0,0-1,.15l-2.6-4.5A1,1,0,0,0,9,4.08a1,1,0,0,0-.14-.51A1,1,0,0,0,8,3.07a1,1,0,0,0-.5.13h0A1,1,0,0,0,7,4.08a.93.93,0,0,0,.14.5A1,1,0,0,0,7.48,5a1.29,1.29,0,0,0,.38.12l2.87,5a.6.6,0,0,0,.37.29.62.62,0,0,0,.46-.06,1.79,1.79,0,0,1,.91-.25,1.84,1.84,0,0,1,1.57.91,1.77,1.77,0,0,1,.24.91,1.84,1.84,0,0,1-.23.89,1.82,1.82,0,0,1-.67.68,1.83,1.83,0,0,1-1.91-.06.62.62,0,0,0-.85.18.61.61,0,0,0,.18.84,3,3,0,0,0,1.67.5A3,3,0,0,0,14,14.46a3,3,0,0,0,1.13-1.13,3.09,3.09,0,0,0,.39-1.49A3,3,0,0,0,15.09,10.32Z"/><path d="M5.93,6.38l-2.6,4.5A1.09,1.09,0,0,0,3,11a1.06,1.06,0,0,0-.38.38,1,1,0,0,0-.13.5,1,1,0,0,0,.13.5,1,1,0,0,0,.37.38H3a1,1,0,0,0,.5.13,1,1,0,0,0,.88-.5,1,1,0,0,0,.13-.51,1.14,1.14,0,0,0-.08-.4l2.87-5a.62.62,0,0,0,.06-.46A.64.64,0,0,0,7,5.69,1.9,1.9,0,0,1,6.36,5a1.86,1.86,0,0,1-.24-.9,1.78,1.78,0,0,1,.25-.9A1.84,1.84,0,0,1,7.94,2.3a1.88,1.88,0,0,1,.91.24,1.82,1.82,0,0,1,.67.68,1.76,1.76,0,0,1,.24.9.45.45,0,0,1,0,.11A.61.61,0,0,0,11,4.3V4.12a3,3,0,0,0-.39-1.5A3,3,0,0,0,7.94,1.08a3,3,0,0,0-1.49.4A2.9,2.9,0,0,0,5.32,2.6a3,3,0,0,0-.41,1.51,3,3,0,0,0,.39,1.5A2.73,2.73,0,0,0,5.93,6.38Z"/><path d="M11.7,12.49a1,1,0,0,0,.8.4,1,1,0,0,0,0-2,1,1,0,0,0-.81.41H6a.61.61,0,0,0-.43.17.6.6,0,0,0-.18.43,1.8,1.8,0,0,1-.8,1.51A1.81,1.81,0,0,1,2,12.9a1.78,1.78,0,0,1-.31-1,1.79,1.79,0,0,1,1-1.62A.61.61,0,0,0,3,9.44a.6.6,0,0,0-.81-.27A3.06,3.06,0,0,0,.5,11.88a2.9,2.9,0,0,0,.24,1.18,3,3,0,0,0,1.1,1.34,3,3,0,0,0,2.87.28,3.07,3.07,0,0,0,1.34-1.1,3.1,3.1,0,0,0,.45-1.09Z"/></svg>