<svg width="16" height="16" viewBox="0 0 16 16" fill="none" xmlns="http://www.w3.org/2000/svg">
<path d="M15.0801 10.3054C14.8162 9.84425 14.4346 9.46145 13.9743 9.19614C13.5139 8.93084 12.9914 8.79254 12.4601 8.7954C12.1209 8.79123 11.7832 8.84188 11.4601 8.9454L8.86011 4.4454C8.9287 4.32883 8.97292 4.19956 8.99011 4.0654C8.99006 3.88592 8.9417 3.70976 8.85011 3.5554C8.76285 3.40427 8.63757 3.27859 8.48669 3.19088C8.33582 3.10316 8.16462 3.05646 7.99011 3.0554C7.81493 3.05419 7.64251 3.09902 7.49011 3.1854C7.33602 3.27434 7.20845 3.40278 7.12056 3.55748C7.03266 3.71217 6.98763 3.8875 6.99011 4.0654C6.98836 4.24198 7.03692 4.41541 7.13011 4.5654C7.20275 4.73395 7.32038 4.87926 7.47011 4.9854C7.5898 5.04484 7.71799 5.08533 7.85011 5.1054L10.7201 10.1054C10.7591 10.1762 10.8119 10.2383 10.8755 10.2881C10.9391 10.338 11.0121 10.3745 11.0901 10.3954C11.2454 10.4357 11.4103 10.4142 11.5501 10.3354C11.8256 10.1722 12.1399 10.0858 12.4601 10.0854C12.7781 10.0885 13.0899 10.1739 13.3651 10.3334C13.6403 10.4929 13.8694 10.721 14.0301 10.9954C14.1908 11.2715 14.2737 11.586 14.2701 11.9054C14.27 12.2168 14.1908 12.523 14.0401 12.7954C13.8813 13.0776 13.65 13.3124 13.3701 13.4754C13.0771 13.6424 12.7437 13.7251 12.4067 13.7145C12.0696 13.7039 11.742 13.6004 11.4601 13.4154C11.3231 13.328 11.1573 13.2979 10.9983 13.3316C10.8393 13.3653 10.6999 13.46 10.6101 13.5954C10.5233 13.7309 10.4935 13.8951 10.5272 14.0525C10.5609 14.2098 10.6554 14.3474 10.7901 14.4354C11.285 14.7637 11.8662 14.9377 12.4601 14.9354C13.0052 14.9142 13.5341 14.7448 13.9901 14.4454C14.462 14.1778 14.8525 13.7873 15.1201 13.3154C15.3738 12.8596 15.508 12.347 15.5101 11.8254C15.5051 11.2894 15.3567 10.7646 15.0801 10.3054Z" fill="black"/>
<path d="M5.92011 6.3654L3.32011 10.8654C3.20435 10.8873 3.0929 10.9278 2.99011 10.9854C2.8329 11.0773 2.70203 11.2082 2.61011 11.3654C2.52373 11.5178 2.4789 11.6902 2.48011 11.8654C2.4789 12.0406 2.52373 12.213 2.61011 12.3654C2.69699 12.5231 2.82482 12.6543 2.98011 12.7454H2.99011C3.14251 12.8318 3.31493 12.8766 3.49011 12.8754C3.66801 12.8779 3.84335 12.8328 3.99804 12.745C4.15273 12.6571 4.28117 12.5295 4.37011 12.3754C4.4582 12.2201 4.50309 12.044 4.50011 11.8654C4.49771 11.7283 4.47061 11.5928 4.42011 11.4654L7.29011 6.4654C7.36888 6.32561 7.39039 6.16072 7.35011 6.0054C7.27845 5.85214 7.14901 5.7335 6.99011 5.6754C6.72229 5.50271 6.5022 5.26543 6.35011 4.9854C6.19507 4.71061 6.11248 4.4009 6.11011 4.0854C6.11184 3.7685 6.19814 3.4578 6.36011 3.1854C6.52208 2.91283 6.75174 2.68674 7.02682 2.52905C7.30189 2.37136 7.61305 2.28744 7.93011 2.2854C8.24889 2.28696 8.56203 2.36955 8.84011 2.5254C9.11997 2.68842 9.35126 2.92316 9.51011 3.2054C9.66949 3.47841 9.75239 3.78929 9.75011 4.1054C9.75461 4.14193 9.75461 4.17887 9.75011 4.2154C9.74083 4.37984 9.79725 4.54122 9.90696 4.66406C10.0167 4.7869 10.1707 4.86112 10.3351 4.8704C10.4995 4.87969 10.6609 4.82327 10.7838 4.71356C10.9066 4.60385 10.9808 4.44984 10.9901 4.2854V4.1054C10.9937 3.57987 10.8593 3.06261 10.6001 2.6054C10.336 2.13118 9.94821 1.73748 9.47801 1.46628C9.00781 1.19508 8.47284 1.05653 7.93011 1.0654C7.40707 1.06657 6.89341 1.20446 6.44011 1.4654C5.9664 1.72609 5.575 2.11403 5.31011 2.5854C5.04228 3.04361 4.9008 3.56466 4.90011 4.0954C4.89648 4.62093 5.03097 5.13819 5.29011 5.5954C5.45117 5.88849 5.66472 6.14949 5.92011 6.3654Z" fill="black"/>
<path d="M11.6901 12.4754C11.7833 12.5996 11.904 12.7004 12.0429 12.7698C12.1818 12.8393 12.3349 12.8754 12.4901 12.8754C12.7553 12.8754 13.0097 12.77 13.1972 12.5825C13.3848 12.395 13.4901 12.1406 13.4901 11.8754C13.4901 11.6102 13.3848 11.3558 13.1972 11.1683C13.0097 10.9808 12.7553 10.8754 12.4901 10.8754C12.3323 10.875 12.1767 10.9119 12.0359 10.9832C11.8951 11.0544 11.7732 11.158 11.6801 11.2854H5.99011C5.83002 11.2834 5.67558 11.3445 5.56011 11.4554C5.50294 11.5114 5.45756 11.5784 5.42664 11.6522C5.39573 11.7261 5.37991 11.8053 5.38011 11.8854C5.38231 12.1837 5.31036 12.4778 5.17072 12.7414C5.03108 13.005 4.82813 13.2297 4.58011 13.3954C4.37917 13.5397 4.15079 13.6413 3.90907 13.6938C3.66735 13.7464 3.41742 13.7489 3.17471 13.7011C2.932 13.6533 2.70166 13.5562 2.49791 13.4159C2.29417 13.2757 2.12134 13.0951 1.99011 12.8854C1.78887 12.5907 1.68086 12.2423 1.68011 11.8854C1.67753 11.5486 1.76999 11.218 1.94688 10.9314C2.12377 10.6449 2.37791 10.414 2.68011 10.2654C2.75777 10.2332 2.82794 10.1853 2.8862 10.1247C2.94446 10.064 2.98956 9.99202 3.01867 9.91315C3.04778 9.83427 3.06027 9.75022 3.05536 9.66629C3.05044 9.58236 3.02823 9.50034 2.99011 9.4254C2.95503 9.35414 2.90616 9.29056 2.84632 9.23833C2.78648 9.1861 2.71687 9.14628 2.64152 9.12116C2.56618 9.09605 2.48659 9.08614 2.40738 9.09202C2.32818 9.09789 2.25093 9.11944 2.18011 9.1554C1.67618 9.40769 1.25172 9.79424 0.953509 10.2724C0.655303 10.7506 0.494942 11.3019 0.49011 11.8654C0.486668 12.2712 0.56843 12.6732 0.73011 13.0454C0.956912 13.5906 1.33956 14.0567 1.83011 14.3854C2.24647 14.6694 2.72766 14.8439 3.22926 14.8928C3.73087 14.9418 4.23672 14.8636 4.70011 14.6654C5.24318 14.4351 5.7084 14.0532 6.04011 13.5654C6.25847 13.2342 6.41123 12.8642 6.49011 12.4754H11.6901Z" fill="black"/>
</svg>
