<svg xmlns="http://www.w3.org/2000/svg" viewBox="0 0 16 16"><defs><style>.cls-1{fill:#231f20;fill-rule:evenodd;}</style></defs><title>add-ons</title><g id="Layer_1" data-name="Layer 1"><path class="cls-1" d="M15.325,4.27H13.138V2.243a.407.407,0,0,0-.407-.407H9.888a.407.407,0,0,0-.407.407V4.27H6.659V2.243a.407.407,0,0,0-.407-.407H3.409A.407.407,0,0,0,3,2.243V4.27H.675a.592.592,0,0,0-.592.592v9.524a.592.592,0,0,0,.592.592h14.65a.592.592,0,0,0,.592-.592V4.862A.592.592,0,0,0,15.325,4.27Zm-4.991,5.919a.1.1,0,0,1-.1.1H8.863V11.66a.1.1,0,0,1-.1.1H7.239a.1.1,0,0,1-.1-.1V10.291H5.768a.1.1,0,0,1-.1-.1V8.667a.1.1,0,0,1,.1-.1H7.137V7.2a.1.1,0,0,1,.1-.1H8.761a.1.1,0,0,1,.1.1V8.565h1.369a.1.1,0,0,1,.1.1Z"/></g></svg>