<svg xmlns="http://www.w3.org/2000/svg" viewBox="0 0 16 16"><defs><style>.cls-1{fill:#010101;}</style></defs><title>assignments</title><g id="Layer_1" data-name="Layer 1"><path class="cls-1" d="M3.634,12.9H8.4c.084,0,.125-.017.125-.1v-.789a.959.959,0,0,0-.663-.936l-1.2-.384v-.343l.451-.289a.755.755,0,0,0,.347-.641V8.4A1.379,1.379,0,0,0,6.019,7.044h0A1.406,1.406,0,0,0,4.538,8.4V9.415a.755.755,0,0,0,.347.641l.451.289v.343l-1.2.384a.959.959,0,0,0-.663.936V12.8C3.473,12.881,3.55,12.9,3.634,12.9Z"/><path class="cls-1" d="M11.457,5.549a1.166,1.166,0,0,0-1.166-1.166H1.446A1.166,1.166,0,0,0,.28,5.549v8.845A1.166,1.166,0,0,0,1.446,15.56h8.845a1.166,1.166,0,0,0,1.166-1.166Zm-1.6,8.414H1.877V5.98H9.86Z"/><path class="cls-1" d="M14.128,10H12.8v1.6H14.72a1.043,1.043,0,0,0,1-1.013V8.665h-1.6Z"/><path class="cls-1" d="M5.878,2.012H7.209V.416H5.395c-.532,0-1.113.307-1.113.838V3.077h1.6Z"/><rect class="cls-1" x="8.539" y="0.416" width="2.927" height="1.597"/><path class="cls-1" d="M14.72.416H12.8v1.6h1.331V3.077h1.6V1.254A.9.9,0,0,0,14.72.416Z"/><rect class="cls-1" x="14.128" y="4.407" width="1.597" height="2.927"/></g></svg>