<svg xmlns="http://www.w3.org/2000/svg" viewBox="0 0 16 16"><defs><style>.cls-1{fill:#010101;}</style></defs><title>bank</title><g id="Layer_1" data-name="Layer 1"><path class="cls-1" d="M13.778.118H2.222A1.215,1.215,0,0,0,1.009,1.331V12.888A1.215,1.215,0,0,0,2.1,14.095v.419A1.448,1.448,0,0,0,3.548,15.96H4.875a1.448,1.448,0,0,0,1.447-1.447V14.1H9.61v.413a1.448,1.448,0,0,0,1.447,1.447h1.327a1.448,1.448,0,0,0,1.447-1.447V14.1a1.214,1.214,0,0,0,1.162-1.211V1.331A1.215,1.215,0,0,0,13.778.118ZM2.222,1.329l11.559,0V12.89h0l-11.559,0ZM5.11,14.513a.236.236,0,0,1-.236.236H3.548a.236.236,0,0,1-.236-.236v-.39h1.8Zm7.508,0a.236.236,0,0,1-.236.236H11.056a.236.236,0,0,1-.236-.236v-.39h1.8Z"/><path class="cls-1" d="M3.053,12.056h9.893V2.163H3.053ZM4.264,3.373h7.472v7.472H4.264Z"/><path class="cls-1" d="M10.252,6.589h-.3a2.032,2.032,0,0,0-.164-.423l.3-.3a.605.605,0,0,0-.856-.856l-.3.3a2.033,2.033,0,0,0-.414-.164V4.86a.605.605,0,0,0-1.211,0v.322a2.035,2.035,0,0,0-.268.114l-.285-.285a.605.605,0,0,0-.856.856l.275.275A2.034,2.034,0,0,0,6,6.589H5.582a.605.605,0,0,0,0,1.211h.471a2.037,2.037,0,0,0,.119.272L5.9,8.341a.605.605,0,1,0,.856.856l.271-.271a2.035,2.035,0,0,0,.282.121v.483a.605.605,0,1,0,1.211,0V9.085a2.034,2.034,0,0,0,.427-.17l.282.282a.605.605,0,0,0,.856-.856L9.8,8.049A2.036,2.036,0,0,0,9.9,7.8h.348a.605.605,0,1,0,0-1.211ZM7.978,7.734a.62.62,0,1,1,.62-.62A.62.62,0,0,1,7.978,7.734Z"/></g></svg>