<svg xmlns="http://www.w3.org/2000/svg" viewBox="0 0 16 16"><defs><style>.cls-1{fill:#010101}</style></defs><title>check</title><g id="Layer_1" data-name="Layer 1"><path class="cls-1" d="M3.358 8.971h2.56v.995h-2.56zm0-2.064h7.919v.995H3.358zm0-1.973h3.731v.995H3.358zm3.338 4.037h2.56v.995h-2.56zm3.492.994l.995-.994h-1.096v.994h.101zm4.432 2.016h-1.039l-1.347 1.35h3.125a.612.612 0 0 0 .612-.612V9.586l-1.35 1.353z"/><path class="cls-1" d="M1.331 3.091H14.62V5.6l1.35-1.339V2.353a.612.612 0 0 0-.612-.612H.593a.612.612 0 0 0-.612.612V12.72a.612.612 0 0 0 .612.612h6.27L8.2 11.981H1.331z"/><path class="cls-1" transform="rotate(-45.007 12.931 9.933)" d="M9.493 9.048h6.877v1.771H9.493z"/><path class="cls-1" d="M8.879 12.734l.054 1.233 1.198.019.497-.497-1.252-1.253-.497.498z"/></g></svg>