<svg xmlns="http://www.w3.org/2000/svg" viewBox="0 0 16 16"><defs><style>.cls-1{fill:#010101;}</style></defs><title>dial</title><g id="Layer_1" data-name="Layer 1"><path class="cls-1" d="M11.215,9.087,8.058,8.769a1.5,1.5,0,0,0-.626.075A1.451,1.451,0,1,0,8.4,11.581l2.991-1.053h0a.743.743,0,0,0-.173-1.44Zm-.057.79L8.167,10.93a.761.761,0,1,1-.506-1.435.771.771,0,0,1,.255-.043q.037,0,.074,0l3.155.319a.06.06,0,0,1,.048.058A.054.054,0,0,1,11.157,9.877ZM8,.345a7.7,7.7,0,1,0,7.7,7.7A7.711,7.711,0,0,0,8,.345ZM8,15.058a7.012,7.012,0,1,1,7.014-7.012A7.021,7.021,0,0,1,8,15.058ZM8,2.5A5.553,5.553,0,0,0,2.452,8.046v.345H3.823V7.7H3.154a4.851,4.851,0,0,1,4.5-4.478V4.331h.69V3.223a4.851,4.851,0,0,1,4.5,4.478h-.672v.69h1.374V8.046A5.553,5.553,0,0,0,8,2.5Z"/></g></svg>