<svg xmlns="http://www.w3.org/2000/svg" viewBox="0 0 16 16"><defs><style>.cls-1{fill:#010201;}</style></defs><title>email</title><g id="Layer_1" data-name="Layer 1"><path class="cls-1" d="M13.2,3.735H2.988A1.454,1.454,0,0,0,1.527,5.18v5.871a1.454,1.454,0,0,0,1.461,1.443H13.2a1.454,1.454,0,0,0,1.461-1.443V5.18A1.454,1.454,0,0,0,13.2,3.735ZM5.49,8.13,2.775,10.153V6.525Zm1.155.683.817.483a1.277,1.277,0,0,0,1.3,0l.816-.482,3.286,2.448h-9.5Zm4.085-.683,2.682-1.586v3.584ZM2.988,4.968H13.2a.2.2,0,0,1,.19.155L8.1,8.238,2.8,5.107A.2.2,0,0,1,2.988,4.968Z"/></g></svg>