<svg data-name="Layer 1" xmlns="http://www.w3.org/2000/svg" viewBox="0 0 32 32" aria-labelledby="title-color-resources-app" role="img" class="symbol symbol-color-resources-app"><title id="title-color-resources-app">color-resources-app icon</title><path d="M30 26.973A3.027 3.027 0 0 1 26.973 30H5.027A3.027 3.027 0 0 1 2 26.973V5.027A3.027 3.027 0 0 1 5.027 2h21.946A3.027 3.027 0 0 1 30 5.027z" fill="#cc4f3e" fill-rule="evenodd" role="presentation"/><path d="M27 26.239a.761.761 0 0 1-.761.761H5.761A.761.761 0 0 1 5 26.239V5.761A.761.761 0 0 1 5.761 5h20.478a.761.761 0 0 1 .761.761z" fill="#fff" fill-rule="evenodd" role="presentation"/><rect x="9" y="10" width="6" height="5" rx=".431" ry=".431" fill="#4a4a4d"/><rect x="17" y="10" width="6" height="5" rx=".431" ry=".431" fill="#4a4a4d"/><rect x="9" y="17" width="6" height="5" rx=".431" ry=".431" fill="#4a4a4d"/><rect x="17" y="17" width="6" height="5" rx=".431" ry=".431" fill="#4a4a4d"/><path d="M10 2h12v3.007a.993.993 0 0 1-.993.993H10.993A.993.993 0 0 1 10 5.007V2z" fill="#fec123" role="presentation"/></svg>