<svg data-name="Layer 1" xmlns="http://www.w3.org/2000/svg" viewBox="0 0 32 32" aria-labelledby="title-color-accounts-app" role="img" class="symbol symbol-color-accounts-app"><title id="title-color-accounts-app">color-accounts-app icon</title><path d="M30 26.973A3.027 3.027 0 0 1 26.973 30H5.027A3.027 3.027 0 0 1 2 26.973V5.027A3.027 3.027 0 0 1 5.027 2h21.946A3.027 3.027 0 0 1 30 5.027z" fill="#4984c4" fill-rule="evenodd" role="presentation"/><path d="M27 26.239a.761.761 0 0 1-.761.761H5.761A.761.761 0 0 1 5 26.239V5.761A.761.761 0 0 1 5.761 5h20.478a.761.761 0 0 1 .761.761z" fill="#fff" fill-rule="evenodd" role="presentation"/><path d="M10 2h12v3.007a.993.993 0 0 1-.993.993H10.993A.993.993 0 0 1 10 5.007V2z" fill="#fec123" role="presentation"/><path d="M22.588 15.839v-.01a.278.278 0 0 0-.194-.235.285.285 0 0 0-.044-.009h-.01l-.9-.1a1.38 1.38 0 0 1-.875-2.112l.566-.7.013-.021.006-.01a.219.219 0 0 0 .016-.03.166.166 0 0 0 .012-.031v-.011a.278.278 0 0 0-.05-.246l-.008-.01-.012-.014-.906-.906-.015-.013-.008-.006a.277.277 0 0 0-.3-.029.4.4 0 0 0-.038.024l-.008.006-.706.565a1.379 1.379 0 0 1-2.112-.874l-.1-.9a.21.21 0 0 0-.006-.024v-.012a.3.3 0 0 0-.01-.032.209.209 0 0 0-.014-.03l-.005-.011a.276.276 0 0 0-.209-.138h-1.342a.278.278 0 0 0-.235.194.312.312 0 0 0-.009.044v.01l-.1.9a1.379 1.379 0 0 1-2.112.875l-.7-.566-.021-.013-.01-.006a.219.219 0 0 0-.03-.016.166.166 0 0 0-.031-.012h-.011a.278.278 0 0 0-.246.05l-.01.009-.014.011-.907.906-.012.015-.006.008a.277.277 0 0 0-.029.3.4.4 0 0 0 .024.038l.006.008q.282.354.565.706a1.377 1.377 0 0 1-.874 2.112l-.9.1a.168.168 0 0 0-.024.006h-.012l-.032.01-.031.014h-.01a.276.276 0 0 0-.138.209v1.342a.278.278 0 0 0 .194.235.312.312 0 0 0 .044.009h.01l.9.1a1.377 1.377 0 0 1 .875 2.112l-.566.7a.239.239 0 0 0-.013.021l-.006.01a.219.219 0 0 0-.016.03.166.166 0 0 0-.012.031v.011a.278.278 0 0 0 .05.246l.009.01.011.014.906.907.015.012.008.006a.277.277 0 0 0 .3.029.4.4 0 0 0 .038-.024l.008-.006.706-.565a1.382 1.382 0 0 1 2.112.875l.1.9a.168.168 0 0 0 .006.024v.012a.3.3 0 0 0 .01.032.292.292 0 0 0 .014.031v.01a.276.276 0 0 0 .209.138h1.342a.278.278 0 0 0 .235-.194.285.285 0 0 0 .009-.044v-.01l.1-.9a1.376 1.376 0 0 1 2.112-.876l.7.566.021.013.01.006a.219.219 0 0 0 .03.016.166.166 0 0 0 .031.012h.011a.278.278 0 0 0 .246-.05l.01-.008.014-.012.907-.906.012-.015.006-.008a.277.277 0 0 0 .029-.3.4.4 0 0 0-.024-.038l-.006-.008-.565-.706a1.377 1.377 0 0 1 .875-2.112l.9-.1.024-.005h.012l.032-.01a.173.173 0 0 0 .031-.014l.01-.005a.276.276 0 0 0 .138-.209v-1.309zM16 18.748a2.248 2.248 0 1 1 2.248-2.248A2.249 2.249 0 0 1 16 18.748z" fill="#4a4a4d" role="presentation"/></svg>