<svg data-name="Layer 1" xmlns="http://www.w3.org/2000/svg" viewBox="0 0 32 32" aria-labelledby="title-color-registrations-app" role="img" class="symbol symbol-color-registrations-app"><title id="title-color-registrations-app">color-registrations-app icon</title><path d="M30 26.973A3.027 3.027 0 0 1 26.973 30H5.027A3.027 3.027 0 0 1 2 26.973V5.027A3.027 3.027 0 0 1 5.027 2h21.946A3.027 3.027 0 0 1 30 5.027z" fill="#46948d" fill-rule="evenodd" role="presentation"/><path d="M27 26.239a.761.761 0 0 1-.761.761H5.761A.761.761 0 0 1 5 26.239V5.761A.761.761 0 0 1 5.761 5h20.478a.761.761 0 0 1 .761.761z" fill="#fff" fill-rule="evenodd" role="presentation"/><path fill="#4a4a4d" fill-rule="evenodd" d="M20.793 11.749l-2.677-2.425-1.782 1.945 2.658 2.459 1.801-1.979zm-5.013.125l-5.18 5.651a2.027 2.027 0 0 0-.4.86l-.36 2.666 2.621-.578a1.991 1.991 0 0 0 .82-.473l5.159-5.666zM14.771 21H22v-2h-5.851l-1.378 2z" role="presentation"/><path d="M10 2h12v3.007a.993.993 0 0 1-.993.993H10.993A.993.993 0 0 1 10 5.007V2z" fill="#fec123" role="presentation"/></svg>