<svg data-name="Layer 1" xmlns="http://www.w3.org/2000/svg" viewBox="0 0 32 32" aria-labelledby="title-color-api-app" role="img" class="symbol symbol-color-api-app"><title id="title-color-api-app">color-api-app icon</title><path d="M30 26.973A3.027 3.027 0 0 1 26.973 30H5.027A3.027 3.027 0 0 1 2 26.973V5.027A3.027 3.027 0 0 1 5.027 2h21.946A3.027 3.027 0 0 1 30 5.027z" fill="#3b9ccf" fill-rule="evenodd" role="presentation"/><path d="M27 26.239a.761.761 0 0 1-.761.761H5.761A.761.761 0 0 1 5 26.239V5.761A.761.761 0 0 1 5.761 5h20.478a.761.761 0 0 1 .761.761z" fill="#fff" fill-rule="evenodd" role="presentation"/><path d="M10 2h12v3.007a.993.993 0 0 1-.993.993H10.993A.993.993 0 0 1 10 5.007V2z" fill="#fec123" role="presentation"/><path d="M16.207 15.211l.87-1.508-2.153-1.243-.882 1.528A3.593 3.593 0 0 0 12.6 14l-.879-1.522-2.157 1.238.893 1.546a3.808 3.808 0 0 0-.716 1.238H7.972v2.486h1.759a3.805 3.805 0 0 0 .724 1.267l-.868 1.5L11.74 23l.853-1.478a3.783 3.783 0 0 0 1.509 0l.845 1.463 2.153-1.241-.856-1.483a3.8 3.8 0 0 0 .739-1.3h1.709v-2.488h-1.735a3.817 3.817 0 0 0-.75-1.262zm-4.946 2.548a2.092 2.092 0 1 1 2.092 2.092 2.091 2.091 0 0 1-2.092-2.092z" fill="#4a4a4d" role="presentation"/><path d="M19.751 10.28v1.16a2.312 2.312 0 0 0-.293.132 2.4 2.4 0 0 0-1.181 2.373l-.966.558.906 1.57.952-.55a2.3 2.3 0 0 0 2.968 0l.957.553.906-1.571-.972-.561a2.352 2.352 0 0 0-1.465-2.505V10.28zm1.349 4.141a.892.892 0 1 1 .33-1.221.893.893 0 0 1-.33 1.221z" fill="#4a4a4d" role="presentation"/></svg>