<svg data-name="Layer 1" xmlns="http://www.w3.org/2000/svg" viewBox="0 0 32 32" aria-labelledby="title-color-giving-app" role="img" class="symbol symbol-color-giving-app"><title id="title-color-giving-app">color-giving-app icon</title><path d="M30 26.973A3.027 3.027 0 0 1 26.973 30H5.027A3.027 3.027 0 0 1 2 26.973V5.027A3.027 3.027 0 0 1 5.027 2h21.946A3.027 3.027 0 0 1 30 5.027z" fill="#fcc846" fill-rule="evenodd" role="presentation"/><path d="M27 26.239a.761.761 0 0 1-.761.761H5.761A.761.761 0 0 1 5 26.239V5.761A.761.761 0 0 1 5.761 5h20.478a.761.761 0 0 1 .761.761z" fill="#fff" fill-rule="evenodd" role="presentation"/><path d="M16.422 12.856l-.422.422-.422-.422a3.283 3.283 0 0 0-4.354-.347 3.161 3.161 0 0 0-.243 4.688l.551.55 4.114 4.115a.5.5 0 0 0 .708 0l4.665-4.662a3.161 3.161 0 0 0-.243-4.688 3.284 3.284 0 0 0-4.354.344z" fill="#4a4a4d" role="presentation"/><path d="M10 2h12v3.007a.993.993 0 0 1-.993.993H10.993A.993.993 0 0 1 10 5.007V2z" fill="#fec123" role="presentation"/></svg>