<svg data-name="Layer 1" xmlns="http://www.w3.org/2000/svg" viewBox="0 0 32 32" aria-labelledby="title-color-groups-app" role="img" class="symbol symbol-color-groups-app"><title id="title-color-groups-app">color-groups-app icon</title><path d="M30 26.973A3.027 3.027 0 0 1 26.973 30H5.027A3.027 3.027 0 0 1 2 26.973V5.027A3.027 3.027 0 0 1 5.027 2h21.946A3.027 3.027 0 0 1 30 5.027z" fill="#fb7642" fill-rule="evenodd" role="presentation"/><path d="M27 26.239a.761.761 0 0 1-.761.761H5.761A.761.761 0 0 1 5 26.239V5.761A.761.761 0 0 1 5.761 5h20.478a.761.761 0 0 1 .761.761z" fill="#fff" fill-rule="evenodd" role="presentation"/><path d="M22 18.157V14.6a2.342 2.342 0 0 0 1.351-2.384 2.753 2.753 0 0 0-2.729-2.689A2.549 2.549 0 0 0 18.157 11h-4.314a2.437 2.437 0 0 0-2.384-1.473 2.809 2.809 0 0 0-2.81 2.673A2.369 2.369 0 0 0 10 14.6v3.557a2.342 2.342 0 0 0-1.351 2.384 2.862 2.862 0 0 0 2.729 2.81A2.454 2.454 0 0 0 13.843 22h4.314a2.342 2.342 0 0 0 2.384 1.351 2.862 2.862 0 0 0 2.81-2.729A2.454 2.454 0 0 0 22 18.157zM17.93 20h-3.86A2.646 2.646 0 0 0 12 17.93v-3.1A2.381 2.381 0 0 0 14.07 13h3.86A2.381 2.381 0 0 0 20 14.827v3.1A2.646 2.646 0 0 0 17.93 20z" fill="#4a4a4d" fill-rule="evenodd" role="presentation"/><path d="M10 2h12v3.007a.993.993 0 0 1-.993.993H10.993A.993.993 0 0 1 10 5.007V2z" fill="#fec123" role="presentation"/></svg>