<svg xmlns="http://www.w3.org/2000/svg" viewBox="0 0 16 16"><defs><style>.cls-1{fill:#010101;}</style></defs><title>chain-broken</title><g id="Layer_1" data-name="Layer 1"><path class="cls-1" d="M5.986,10.073H2.358A.255.255,0,0,1,2.1,9.818V6.343a.255.255,0,0,1,.255-.255H5.986V4.123H2.358a2.22,2.22,0,0,0-2.22,2.22V9.818a2.22,2.22,0,0,0,2.22,2.22H5.986Z"/><path class="cls-1" d="M13.642,4.123H9.988V6.088h3.654a.255.255,0,0,1,.255.255V9.818a.255.255,0,0,1-.255.255H9.988v1.965h3.654a2.22,2.22,0,0,0,2.22-2.22V6.343A2.22,2.22,0,0,0,13.642,4.123Z"/><rect class="cls-1" x="4.096" y="7.138" width="1.89" height="1.925"/><rect class="cls-1" x="9.988" y="7.138" width="1.89" height="1.925"/><rect class="cls-1" x="2.176" y="7.138" width="11.621" height="1.925" transform="translate(16.087 0.114) rotate(90)"/></g></svg>