<svg xmlns="http://www.w3.org/2000/svg" viewBox="0 0 16 16"><defs><style>.cls-1{fill:#231f20;}</style></defs><title>inbox-in</title><g id="Layer_1" data-name="Layer 1"><path class="cls-1" d="M13.2,9.656a.885.885,0,0,0-.9.864v2.252H3.916V10.55a.885.885,0,0,0-.9-.864.885.885,0,0,0-.9.864v3.085a.885.885,0,0,0,.9.864H13.2a.885.885,0,0,0,.9-.864V10.519A.885.885,0,0,0,13.2,9.656ZM7.47,9.674a.932.932,0,0,0,1.277,0l2.781-2.661a.837.837,0,0,0,0-1.221.955.955,0,0,0-1.277,0L9.011,6.978V2.366a.9.9,0,0,0-1.806,0V6.978L5.965,5.792a.955.955,0,0,0-1.277,0,.837.837,0,0,0,0,1.221Z"/></g></svg>