<svg xmlns="http://www.w3.org/2000/svg" viewBox="0 0 16 16"><defs><style>.cls-1{fill:#010101;}</style></defs><title>mobile-phone</title><g id="Layer_1" data-name="Layer 1"><path class="cls-1" d="M12.57,14.2a1.7,1.7,0,0,1-1.7,1.7h-5.9a1.7,1.7,0,0,1-1.7-1.7V1.607a1.7,1.7,0,0,1,1.7-1.7h5.9a1.7,1.7,0,0,1,1.7,1.7V14.2ZM11.8,3.253H4.013v9.175H11.8ZM9.472,1.607a.189.189,0,0,0-.188-.188H6.549a.188.188,0,0,0-.189.188h0a.189.189,0,0,0,.189.189H9.284a.189.189,0,0,0,.188-.189ZM5.834,13.786a.4.4,0,1,0,.4.4A.4.4,0,0,0,5.834,13.786Zm2.082,0a.4.4,0,1,0,.4.4A.4.4,0,0,0,7.917,13.786Zm2.081,0a.4.4,0,1,0,.4.4A.4.4,0,0,0,10,13.786Z"/></g></svg>