<svg xmlns="http://www.w3.org/2000/svg" viewBox="0 0 16 16"><defs><style>.cls-1{fill:#231f20;}</style></defs><title>pico-circle-o</title><g id="Layer_1" data-name="Layer 1"><path class="cls-1" d="M13.584,7.574l-.114-.1A2.262,2.262,0,0,0,12.159,5.9l-.049-.021-.042-.017a9.508,9.508,0,0,0-2.616-.577h0a1.939,1.939,0,0,0-1.1-.492V4.28a.992.992,0,1,0-.81,0V4.8a1.945,1.945,0,0,0-1.119.511l-.018.02a10.052,10.052,0,0,0-2.365.536l-.057.023L3.941,5.9l-.007,0a2.3,2.3,0,0,0-1.32,1.551L2.5,7.547A1.754,1.754,0,0,0,1.939,8.9a1.438,1.438,0,0,0,.587,1.253l.066.044a1.419,1.419,0,0,0,1.117,1.5l.02,0h0l.032.008a21.086,21.086,0,0,0,4.134.439h.242a19.5,19.5,0,0,0,4.143-.441l.022-.006h0l.021,0a1.439,1.439,0,0,0,1.129-1.508l.069-.046a1.451,1.451,0,0,0,.575-1.247A1.777,1.777,0,0,0,13.584,7.574Zm-.86,2.692c-.01.538-.168.616-.427.683a14.892,14.892,0,0,1-4.149.474H7.9a12.1,12.1,0,0,1-4.07-.44.62.62,0,0,1-.5-.639L3.3,8.013a1.339,1.339,0,0,1,.852-1.273s.085-.028.118-.038a14.649,14.649,0,0,1,3.815-.428,13.7,13.7,0,0,1,3.707.419l.134.044a1.322,1.322,0,0,1,.841,1.271ZM9.015,9.484A.013.013,0,0,0,9,9.5a1.029,1.029,0,0,1-1.028.651A1.03,1.03,0,0,1,6.944,9.5s0-.014-.011-.014S6.92,9.5,6.92,9.5A1.062,1.062,0,0,0,8,10.421,1,1,0,0,0,9.026,9.5h0A.011.011,0,0,0,9.015,9.484ZM8.021.1A7.951,7.951,0,1,0,16,8.045,7.977,7.977,0,0,0,8.021.1ZM12.9,12.906a6.923,6.923,0,0,1-9.764,0,6.856,6.856,0,0,1,0-9.72,6.924,6.924,0,0,1,9.764,0,6.85,6.85,0,0,1,0,9.72ZM5.117,7.516c-.458,0-.831.588-.831,1.313s.371,1.313.829,1.312.831-.588.832-1.312S5.576,7.516,5.117,7.516Zm5.768,0c-.458,0-.83.588-.83,1.314s.371,1.312.829,1.312.831-.589.831-1.314S11.344,7.513,10.885,7.513Z"/></g></svg>