<svg xmlns="http://www.w3.org/2000/svg" viewBox="0 0 16 16"><defs><style>.cls-1{fill:#020202;}</style></defs><title>file-pdf</title><g id="Layer_1" data-name="Layer 1"><g id="Layer_5" data-name="Layer 5"><path class="cls-1" d="M9.845,0H2.35a.8.8,0,0,0-.8.8V15.2a.8.8,0,0,0,.8.8h11.3a.8.8,0,0,0,.8-.8V4.149Zm2.564,4.155-2.453.007h0a.118.118,0,0,1-.118-.118l0-2.194Zm.7,10.5H2.9V1.349h5.6l0,2.691A1.468,1.468,0,0,0,9.96,5.511L13.1,5.5Z"/><path class="cls-1" d="M10.8,10.183a1.069,1.069,0,0,0-1.017-.459,4.028,4.028,0,0,0-.695.059A7.89,7.89,0,0,1,8.056,8.248C8.36,6.941,8.17,6.516,8,6.307a.758.758,0,0,0-.581-.275.975.975,0,0,0-.262.046.8.8,0,0,0-.519.487,2.4,2.4,0,0,0,.274,1.8,16.238,16.238,0,0,1-.842,2.365c-1,.474-1.5.943-1.563,1.473a.933.933,0,0,0,.409.872.71.71,0,0,0,.441.156,1.27,1.27,0,0,0,.967-.663,6.8,6.8,0,0,0,.565-.993A12.764,12.764,0,0,1,8.71,10.98a1.784,1.784,0,0,0,1.144.526.983.983,0,0,0,.814-.435A.8.8,0,0,0,10.8,10.183Zm-.736.451a.213.213,0,0,1-.206.112.949.949,0,0,1-.506-.244c.169-.019.319-.037.431-.037a.678.678,0,0,1,.337.056C10.1,10.559,10.1,10.6,10.06,10.634ZM5.243,12.3c.019-.131.225-.375.75-.675-.394.731-.6.825-.637.844C5.243,12.377,5.243,12.321,5.243,12.3ZM7.4,7.616a1.241,1.241,0,0,1-.075-.75q.028-.056.056-.056H7.4A1.59,1.59,0,0,1,7.4,7.616Zm.131,1.275a9.718,9.718,0,0,0,.937,1.368,12.092,12.092,0,0,0-1.593.506A17.1,17.1,0,0,0,7.529,8.891Z"/></g></g></svg>