<svg xmlns="http://www.w3.org/2000/svg" viewBox="0 0 16 16"><defs><style>.cls-1{fill:#231f20;}</style></defs><title>caret-square-down</title><g id="Layer_1" data-name="Layer 1"><path class="cls-1" d="M15.516.427H.469A.146.146,0,0,0,.323.573V15.391a.146.146,0,0,0,.146.146H15.516a.146.146,0,0,0,.146-.146V.573A.146.146,0,0,0,15.516.427ZM12.244,6.361,8.429,11.279a.629.629,0,0,1-.432.17.649.649,0,0,1-.425-.17L3.74,6.361a.547.547,0,0,1-.131-.649.556.556,0,0,1,.556-.364h7.669a.591.591,0,0,1,.409,1.013Z"/></g></svg>