<svg xmlns="http://www.w3.org/2000/svg" viewBox="0 0 16 16"><defs><style>.cls-1,.cls-2{fill:#231f20;}.cls-2{fill-rule:evenodd;}</style></defs><title>person-check</title><g id="Layer_1" data-name="Layer 1"><path class="cls-1" d="M15.247,12.978l-2.585,2.585h3.295V13.777C15.956,13.549,15.7,13.275,15.247,12.978Z"/><path class="cls-1" d="M6.169,12.857,8.94,10.085l1.79,1.789.645-.645A2.333,2.333,0,0,1,9.733,8.917c0-.827.639-.557.919-2.071.116-.628.681-.01.789-1.444,0-.571-.308-.713-.308-.713s.156-.846.218-1.5c.076-.811-.468-2.906-3.372-2.906s-3.449,2.1-3.372,2.906c.061.651.218,1.5.218,1.5s-.308.142-.308.713c.108,1.434.672.816.788,1.444.281,1.514.919,1.244.919,2.071,0,1.377-.668,2.02-2.761,2.783S0,13.245,0,13.777v1.787H8.877Z"/><polygon class="cls-2" points="15.956 10.835 14.56 9.438 10.73 13.268 8.941 11.479 7.583 12.837 10.767 16.021 10.768 16.02 10.77 16.021 15.956 10.835"/></g></svg>