<svg xmlns="http://www.w3.org/2000/svg" viewBox="0 0 16 16"><defs><style>.cls-1{fill:#010101;}</style></defs><title>person-pencil</title><g id="Layer_1" data-name="Layer 1"><path class="cls-1" d="M9.781,8.866c0-.827.639-.557.919-2.071.116-.628.681-.01.789-1.444,0-.572-.308-.714-.308-.714s.156-.846.218-1.5C11.475,2.331,10.93.236,8.026.236s-3.449,2.1-3.372,2.906c.061.651.218,1.5.218,1.5s-.308.142-.308.714c.108,1.434.672.816.788,1.444.281,1.514.919,1.244.919,2.071,0,1.377-.668,2.02-2.761,2.783S.048,13.194.048,13.726v1.787H7.239l.509-2.4,2.625-2.624A2.112,2.112,0,0,1,9.781,8.866Z"/><path class="cls-1" d="M14.816,12.642l-2.871,2.871H16V13.726C16,13.427,15.563,13.05,14.816,12.642Z"/><path class="cls-1" d="M15.994,10.05s.109-.544-.617-1.27-1.27-.617-1.27-.617l-2.54,2.54-2.9,2.9L8.158,16l2.394-.508,2.9-2.9ZM10.409,15.2l-.816.176a1.988,1.988,0,0,0-.816-.816l.176-.816.236-.236a1.528,1.528,0,0,1,.945.51,1.529,1.529,0,0,1,.511.946Z"/></g></svg>