<svg xmlns="http://www.w3.org/2000/svg" viewBox="0 0 16 16"><title>pico-circle-o</title><path class="cls-1" d="M13.584 7.574l-.114-.1A2.262 2.262 0 0 0 12.159 5.9l-.049-.021-.042-.017a9.508 9.508 0 0 0-2.616-.577 1.939 1.939 0 0 0-1.1-.492V4.28a.992.992 0 1 0-.81 0v.52a1.945 1.945 0 0 0-1.119.511l-.018.02a10.052 10.052 0 0 0-2.365.536l-.057.023-.042.01h-.007a2.3 2.3 0 0 0-1.32 1.551l-.114.096A1.754 1.754 0 0 0 1.939 8.9a1.438 1.438 0 0 0 .587 1.253l.066.044a1.419 1.419 0 0 0 1.117 1.5h.02l.032.008a21.086 21.086 0 0 0 4.134.439h.242a19.5 19.5 0 0 0 4.143-.441l.022-.006h.021a1.439 1.439 0 0 0 1.129-1.508l.069-.046a1.451 1.451 0 0 0 .575-1.247 1.777 1.777 0 0 0-.512-1.322zm-.86 2.692c-.01.538-.168.616-.427.683a14.892 14.892 0 0 1-4.149.474H7.9a12.1 12.1 0 0 1-4.07-.44.62.62 0 0 1-.5-.639L3.3 8.013a1.339 1.339 0 0 1 .852-1.273l.118-.038a14.649 14.649 0 0 1 3.815-.428 13.7 13.7 0 0 1 3.707.419l.134.044a1.322 1.322 0 0 1 .841 1.271zm-3.709-.782A.013.013 0 0 0 9 9.5a1.029 1.029 0 0 1-1.028.651A1.03 1.03 0 0 1 6.944 9.5s0-.014-.011-.014-.013.014-.013.014a1.062 1.062 0 0 0 1.08.921A1 1 0 0 0 9.026 9.5a.011.011 0 0 0-.011-.016zM8.021.1A7.951 7.951 0 1 0 16 8.045 7.977 7.977 0 0 0 8.021.1zM12.9 12.906a6.923 6.923 0 0 1-9.764 0 6.856 6.856 0 0 1 0-9.72 6.924 6.924 0 0 1 9.764 0 6.85 6.85 0 0 1 0 9.72zm-7.783-5.39c-.458 0-.831.588-.831 1.313s.371 1.313.829 1.312.831-.588.832-1.312-.371-1.313-.83-1.313zm5.768 0c-.458 0-.83.588-.83 1.314s.371 1.312.829 1.312.831-.589.831-1.314-.371-1.315-.83-1.315z" data-name="Layer 1"/></svg>