<svg data-name="Layer 1" xmlns="http://www.w3.org/2000/svg" viewBox="0 0 32 32" class="symbol"><title>planning-center-mark</title><path d="M20.653 12.714l-3.608 1.152a4.036 4.036 0 0 1-2.386.021L11.025 12.8a.305.305 0 0 0-.393.292v4.407a.305.305 0 0 0 .218.293l4.435 1.33a1.828 1.828 0 0 0 1.083-.009l4.474-1.428a.306.306 0 0 0 .213-.291v-4.389a.306.306 0 0 0-.402-.291z"/><path d="M28.047 3.238L18.423.376a9.059 9.059 0 0 0-5.165 0L3.634 3.238A5.19 5.19 0 0 0 0 8.19v15.62a5.191 5.191 0 0 0 3.634 4.952l9.624 2.862a9.059 9.059 0 0 0 5.165 0l9.624-2.862a5.191 5.191 0 0 0 3.634-4.952V8.19a5.19 5.19 0 0 0-3.634-4.952zM24.261 18.39a2.275 2.275 0 0 1-1.624 2.18l-5.625 1.681a4.034 4.034 0 0 1-2.314 0l-3.792-1.136a.215.215 0 0 0-.277.206v2.563a.808.808 0 0 1-1.039.775L8 24.184a.809.809 0 0 1-.578-.775v-11.91a2.275 2.275 0 0 1 2.918-2.182l4.952 1.455a1.833 1.833 0 0 0 1.064-.009l4.95-1.55a2.276 2.276 0 0 1 2.955 2.172z"/></svg>