<svg xmlns="http://www.w3.org/2000/svg" viewBox="0 0 16 16"><defs><style>.cls-1{fill:#231f20;}</style></defs><title>star-circle</title><g id="Layer_1" data-name="Layer 1"><path class="cls-1" d="M8,0a7.977,7.977,0,1,0,7.977,7.977A7.977,7.977,0,0,0,8,0Zm4.651,7.282L10.62,9.259l.479,2.79a.411.411,0,0,1-.406.481.406.406,0,0,1-.192-.048L8,11.166,5.491,12.483a.411.411,0,0,1-.6-.433l.479-2.79L3.346,7.283a.411.411,0,0,1,.228-.7l2.8-.407L7.628,3.637a.428.428,0,0,1,.738,0L9.618,6.175l2.8.407a.411.411,0,0,1,.228.7Z"/></g></svg>