<svg id="Layer_1" data-name="Layer 1" xmlns="http://www.w3.org/2000/svg" viewBox="0 0 32 32" class="symbol symbol-giving-app" aria-labelledby="title" role="img"><defs><style>.cls-1,.cls-2{fill:#333132}.cls-2{fill-rule:evenodd}</style></defs><title id="title">giving-app icon</title><path class="cls-1" d="M16.422 12.856l-.422.422-.422-.422a3.284 3.284 0 0 0-4.354-.347 3.161 3.161 0 0 0-.242 4.688l.55.55 4.114 4.115a.5.5 0 0 0 .709 0l4.664-4.662a3.161 3.161 0 0 0-.242-4.688 3.285 3.285 0 0 0-4.355.344z" role="presentation"/><path class="cls-2" d="M26.973 2H5.027A3.027 3.027 0 0 0 2 5.027v21.946A3.027 3.027 0 0 0 5.027 30h21.946A3.027 3.027 0 0 0 30 26.973V5.027A3.027 3.027 0 0 0 26.973 2zm0 24.216a.757.757 0 0 1-.757.757H5.784a.757.757 0 0 1-.757-.757V5.784a.757.757 0 0 1 .757-.757h4.541v1.517a.753.753 0 0 0 .753.753h9.845a.753.753 0 0 0 .753-.753V5.027h4.541a.757.757 0 0 1 .757.757z" role="presentation"/></svg>