<svg xmlns="http://www.w3.org/2000/svg" viewBox="0 0 16 16" class="symbol symbol-accounts-logo-stack" aria-labelledby="title" role="img"><title id="title">accounts-logo-stack icon</title><g data-name="Layer 1"><path class="cls-1" d="M.314 12.541a.016.016 0 0 0 .016-.017v-.356a.239.239 0 0 0 .211.094.267.267 0 0 0 .276-.191.913.913 0 0 0 0-.449.267.267 0 0 0-.276-.191.24.24 0 0 0-.211.094v-.059a.016.016 0 0 0-.016-.017H.162a.016.016 0 0 0-.017.017v1.059a.016.016 0 0 0 .017.017zm.033-.841a.143.143 0 0 1 .153-.1.142.142 0 0 1 .147.1.675.675 0 0 1 0 .3.142.142 0 0 1-.147.1.143.143 0 0 1-.148-.1.677.677 0 0 1 0-.3zm1.316.554h.073a.016.016 0 0 0 .016-.016v-.132a.016.016 0 0 0-.016-.016H1.7c-.048 0-.069-.018-.069-.073v-.878a.016.016 0 0 0-.017-.017h-.152a.016.016 0 0 0-.017.017v.888c0 .152.063.227.218.227zm1.186-.487h-.161c-.2 0-.318.079-.318.252a.238.238 0 0 0 .267.243.26.26 0 0 0 .224-.092v.058a.015.015 0 0 0 .016.016h.139a.016.016 0 0 0 .016-.016v-.52c0-.195-.089-.277-.332-.277a.464.464 0 0 0-.282.078.015.015 0 0 0 0 .021l.061.109a.015.015 0 0 0 .023 0 .278.278 0 0 1 .182-.055c.134 0 .177.041.177.132v.038a.009.009 0 0 1-.012.013zm.01.209c0 .091-.063.135-.177.135-.089 0-.137-.033-.137-.1s.053-.107.172-.107h.132a.009.009 0 0 1 .01.01zm.778-.528h-.152a.016.016 0 0 0-.016.017v.762a.016.016 0 0 0 .016.016h.152a.016.016 0 0 0 .016-.016v-.459a.153.153 0 0 1 .152-.173c.1 0 .15.071.15.173v.459a.016.016 0 0 0 .016.016h.152a.016.016 0 0 0 .016-.016v-.5a.271.271 0 0 0-.276-.3.246.246 0 0 0-.209.092v-.058a.016.016 0 0 0-.017-.013zm1.103 0h-.152a.016.016 0 0 0-.017.017v.762a.016.016 0 0 0 .017.016h.152a.016.016 0 0 0 .017-.016v-.459a.153.153 0 0 1 .152-.173c.1 0 .15.071.15.173v.459a.016.016 0 0 0 .016.016h.152a.016.016 0 0 0 .017-.016v-.5a.271.271 0 0 0-.276-.3.246.246 0 0 0-.21.092v-.058a.016.016 0 0 0-.018-.013zm1.194 0h.152a.017.017 0 0 1 .017.017v.762a.017.017 0 0 1-.017.017h-.152a.017.017 0 0 1-.017-.017v-.762a.016.016 0 0 1 .017-.017zm0-.326h.152a.017.017 0 0 1 .017.017v.143a.017.017 0 0 1-.017.017h-.152a.016.016 0 0 1-.016-.016v-.144a.017.017 0 0 1 .016-.017zm1.011.326h-.151a.016.016 0 0 0-.017.017v.762a.016.016 0 0 0 .017.016h.152a.016.016 0 0 0 .017-.016v-.459a.153.153 0 0 1 .152-.173c.1 0 .15.071.15.173v.459a.016.016 0 0 0 .016.016h.152a.016.016 0 0 0 .016-.016v-.5a.271.271 0 0 0-.276-.3.246.246 0 0 0-.21.092v-.058a.016.016 0 0 0-.018-.013zm1.255.946a.244.244 0 0 1-.173-.074.015.015 0 0 0-.025 0l-.1.1a.015.015 0 0 0 0 .023.394.394 0 0 0 .289.119.333.333 0 0 0 .371-.365v-.729a.016.016 0 0 0-.016-.017h-.154a.016.016 0 0 0-.016.017v.059a.227.227 0 0 0-.206-.094.265.265 0 0 0-.271.195.6.6 0 0 0-.026.2.606.606 0 0 0 .026.2.266.266 0 0 0 .271.193.229.229 0 0 0 .206-.093v.072c0 .128-.056.194-.176.194zm.16-.437a.148.148 0 0 1-.282 0 .371.371 0 0 1-.018-.13.383.383 0 0 1 .018-.13.149.149 0 0 1 .282 0 .383.383 0 0 1 .018.13.371.371 0 0 1-.02.13zm1.73-.357a.18.18 0 0 1 .147.069.015.015 0 0 0 .023 0l.1-.091a.016.016 0 0 0 0-.023.346.346 0 0 0-.276-.124.321.321 0 0 0-.328.219.788.788 0 0 0 0 .393.32.32 0 0 0 .328.219.35.35 0 0 0 .276-.122c0-.008.007-.016 0-.023l-.1-.091a.015.015 0 0 0-.023 0 .18.18 0 0 1-.147.069.146.146 0 0 1-.148-.1.477.477 0 0 1-.016-.148.466.466 0 0 1 .016-.147.146.146 0 0 1 .148-.1zm1.422.527a.015.015 0 0 0 0-.023l-.1-.086a.017.017 0 0 0-.025 0 .239.239 0 0 1-.186.076.185.185 0 0 1-.19-.181.009.009 0 0 1 .01-.01h.49a.016.016 0 0 0 .018-.017.713.713 0 0 0-.026-.239.352.352 0 0 0-.652 0 .635.635 0 0 0-.026.2.616.616 0 0 0 .028.195.322.322 0 0 0 .332.221.419.419 0 0 0 .327-.136zm-.49-.437a.17.17 0 0 1 .312 0 .2.2 0 0 1 .01.068.009.009 0 0 1-.01.01h-.312a.009.009 0 0 1-.01-.01.2.2 0 0 1 .01-.069zm1.132-.167v-.058a.016.016 0 0 0-.016-.017h-.152a.016.016 0 0 0-.016.017v.762a.016.016 0 0 0 .016.016h.152a.016.016 0 0 0 .016-.016v-.459a.153.153 0 0 1 .146-.168c.1 0 .15.071.15.173v.459a.016.016 0 0 0 .017.016h.152a.016.016 0 0 0 .016-.016v-.5a.271.271 0 0 0-.276-.3.245.245 0 0 0-.205.091zm1.146.069a.009.009 0 0 1 .01.01v.419c0 .155.061.233.221.233h.079a.016.016 0 0 0 .016-.016v-.132a.016.016 0 0 0-.016-.016h-.041c-.051 0-.074-.018-.074-.074V11.6a.009.009 0 0 1 .01-.01h.106a.016.016 0 0 0 .016-.016v-.111a.016.016 0 0 0-.016-.017H13.5a.009.009 0 0 1-.01-.01v-.218a.016.016 0 0 0-.017-.017h-.152a.016.016 0 0 0-.017.017v.218a.009.009 0 0 1-.01.01h-.053a.016.016 0 0 0-.016.017v.111a.016.016 0 0 0 .016.016zm1.588.535a.015.015 0 0 0 0-.023l-.1-.086a.017.017 0 0 0-.025 0 .239.239 0 0 1-.186.076.185.185 0 0 1-.19-.181.009.009 0 0 1 .01-.01h.49a.016.016 0 0 0 .018-.017.713.713 0 0 0-.026-.239.352.352 0 0 0-.652 0 .635.635 0 0 0-.026.2.618.618 0 0 0 .028.195.322.322 0 0 0 .332.221.419.419 0 0 0 .327-.136zm-.49-.437a.17.17 0 0 1 .312 0 .2.2 0 0 1 .01.068.009.009 0 0 1-.01.01h-.31a.009.009 0 0 1-.01-.01.2.2 0 0 1 .01-.069zm1.165.554a.016.016 0 0 0 .017-.016V11.8c0-.127.046-.2.15-.2a.216.216 0 0 1 .117.038.015.015 0 0 0 .023 0l.088-.111c.007-.008 0-.015 0-.023a.24.24 0 0 0-.167-.066.228.228 0 0 0-.206.1v-.068a.016.016 0 0 0-.017-.017h-.152a.016.016 0 0 0-.016.017v.762a.016.016 0 0 0 .016.016zm-14.376.816L.107 15.6h.565l.23-.565h1.067l.231.565h.58L1.7 13.06zM1.1 14.543l.335-.818.335.818zm2.74.627a.5.5 0 0 1-.49-.533v-.007a.493.493 0 0 1 .468-.526.565.565 0 0 1 .44.213l.335-.36a.95.95 0 0 0-.771-.324.991.991 0 0 0-1.012 1.004v.007a.986.986 0 0 0 1 1 .972.972 0 0 0 .789-.353l-.321-.324a.612.612 0 0 1-.438.203zm1.866 0a.5.5 0 0 1-.49-.533v-.007a.493.493 0 0 1 .468-.526.564.564 0 0 1 .439.213l.335-.36a.95.95 0 0 0-.771-.324.991.991 0 0 0-1.012 1.005v.007a.986.986 0 0 0 1 1 .972.972 0 0 0 .789-.353l-.32-.324a.612.612 0 0 1-.438.202zm1.883-1.538a1.013 1.013 0 0 0-1.048 1.005v.007a1.045 1.045 0 0 0 2.089-.007v-.007a1 1 0 0 0-1.041-.998zm.5 1.012a.5.5 0 0 1-.5.526.513.513 0 0 1-.508-.533v-.007a.5.5 0 0 1 .5-.526.513.513 0 0 1 .508.533zm2.022.101c0 .259-.133.393-.342.393s-.331-.133-.331-.393v-1.077H8.89v1.25a.633.633 0 0 0 .656.717.683.683 0 0 0 .565-.31v.275h.547v-1.932h-.547zm2.044-1.113a.683.683 0 0 0-.566.31v-.274h-.547V15.6h.547v-1.078c0-.26.133-.393.342-.393s.331.133.331.393V15.6h.547v-1.25a.633.633 0 0 0-.654-.718zm1.645-.457h-.547v.493h-.23v.468h.23v.915c0 .447.227.58.562.58a.806.806 0 0 0 .432-.112v-.439a.556.556 0 0 1-.27.069c-.122 0-.177-.061-.177-.187v-.825h.454v-.468H13.8zm1.578 1.257c-.209-.072-.393-.122-.393-.23v-.007c0-.076.068-.133.2-.133a1.145 1.145 0 0 1 .522.18l.209-.378a1.336 1.336 0 0 0-.72-.223.631.631 0 0 0-.706.612v.007c0 .375.306.5.576.58.213.065.4.1.4.223v.007c0 .086-.072.144-.231.144a1.092 1.092 0 0 1-.609-.231l-.234.36a1.352 1.352 0 0 0 .828.292c.418 0 .738-.194.738-.623V15c.004-.348-.309-.478-.58-.568zM12.52 7.878V2.294A1.719 1.719 0 0 0 10.8.574H4.941a1.72 1.72 0 0 0-1.719 1.72v5.584A1.719 1.719 0 0 0 4.941 9.6H10.8a1.719 1.719 0 0 0 1.72-1.722zm-.929 0a.792.792 0 0 1-.791.791H4.941a.791.791 0 0 1-.79-.791V2.294a.792.792 0 0 1 .79-.791h1.148v.355a.191.191 0 0 0 .191.191h3.175a.191.191 0 0 0 .191-.191V1.5H10.8a.792.792 0 0 1 .791.791z" role="presentation"/><path class="cls-1" d="M10.292 5.054a.1.1 0 0 0-.071-.086h-.016l-.33-.036a.507.507 0 0 1-.322-.776l.208-.259v-.008l.006-.011v-.011a.1.1 0 0 0-.018-.09v-.005l-.333-.333h-.005A.1.1 0 0 0 9.3 3.4l-.014.009-.259.208a.507.507 0 0 1-.783-.317l-.036-.33v-.032a.1.1 0 0 0-.077-.051h-.506a.1.1 0 0 0-.088.071v.016L7.5 3.3a.507.507 0 0 1-.776.322l-.259-.208h-.008L6.439 3.4h-.011a.1.1 0 0 0-.09.018l-.007.005-.333.333v.005a.1.1 0 0 0-.011.111l.009.014.208.259a.506.506 0 0 1-.322.776l-.33.036H5.52a.1.1 0 0 0-.051.077v.493a.1.1 0 0 0 .071.086h.016l.33.036a.506.506 0 0 1 .322.776L6 6.684v.008l-.006.011v.011a.1.1 0 0 0 .018.092l.335.335h.005a.1.1 0 0 0 .111.011l.014-.009.259-.208A.508.508 0 0 1 7.5 7.3l.036.33v.032a.1.1 0 0 0 .077.051h.492a.1.1 0 0 0 .095-.062v-.016l.036-.33a.506.506 0 0 1 .776-.322l.259.208h.008L9.3 7.2h.011a.1.1 0 0 0 .09-.018h.005l.333-.333v-.005a.1.1 0 0 0 .011-.111l-.009-.014-.208-.259a.506.506 0 0 1 .322-.776l.33-.036h.032a.1.1 0 0 0 .051-.077v-.517zM7.871 6.127A.826.826 0 1 1 8.7 5.3a.826.826 0 0 1-.829.827z" role="presentation"/></g></svg>