<svg xmlns="http://www.w3.org/2000/svg" viewBox="0 0 16 16" aria-labelledby="title-integrations_1" role="img" class="symbol symbol-integrations_1"><title id="title-integrations_1">integrations_1 icon</title><path d="M15.807.327a.657.657 0 0 0-.931 0l-1.45 1.45a4.412 4.412 0 0 0-5.942.3l-.857.856a.727.727 0 0 0 0 1.027l5.462 5.462a.725.725 0 0 0 1.027 0l.856-.856a4.446 4.446 0 0 0 .376-5.846l1.459-1.459a.658.658 0 0 0 0-.934zm-2.766 7.3l-.441.443-4.624-4.626.439-.439a3.142 3.142 0 0 1 4.443 0l.183.184a3.144 3.144 0 0 1 0 4.442zM8.873 8.916l-1.221 1.221L6 8.486l1.234-1.234a.658.658 0 0 0-.934-.931L5.069 7.554l-.976-.975a.724.724 0 0 0-1.026 0l-.857.856a4.446 4.446 0 0 0-.376 5.846L.375 14.74a.658.658 0 1 0 .931.931l1.451-1.45a4.412 4.412 0 0 0 5.942-.3l.856-.857a.725.725 0 0 0 0-1.027l-.972-.971 1.222-1.219a.659.659 0 0 0-.932-.931zm-1.106 4.076a3.138 3.138 0 0 1-4.442 0l-.184-.183a3.146 3.146 0 0 1 0-4.442l.439-.439 4.626 4.626z" data-name="Layer 1" role="presentation"/></svg>