<svg xmlns="http://www.w3.org/2000/svg" viewBox="0 0 16 16" aria-labelledby="title" role="img" class="symbol symbol-integrations_1"><title id="title">integrations_1 icon</title><path class="cls-1" d="M15.807.327a.658.658 0 0 0-.931 0l-1.45 1.451a4.413 4.413 0 0 0-5.942.3l-.856.856a.726.726 0 0 0 0 1.027l5.462 5.462a.726.726 0 0 0 1.027 0l.856-.856a4.445 4.445 0 0 0 .376-5.845l1.459-1.459a.658.658 0 0 0-.001-.936zm-2.766 7.3l-.441.443-4.624-4.626.439-.439a3.142 3.142 0 0 1 4.443 0l.183.183a3.145 3.145 0 0 1 0 4.443zM8.873 8.916l-1.221 1.221L6 8.486l1.234-1.234a.658.658 0 0 0-.934-.931L5.069 7.554l-.976-.976a.726.726 0 0 0-1.027 0l-.856.856a4.445 4.445 0 0 0-.376 5.845L.375 14.74a.658.658 0 1 0 .931.931l1.451-1.45a4.413 4.413 0 0 0 5.942-.3l.856-.856a.726.726 0 0 0 0-1.027l-.972-.972L9.8 9.847a.658.658 0 0 0-.931-.931zm-1.106 4.076a3.141 3.141 0 0 1-4.443 0l-.183-.183a3.145 3.145 0 0 1 0-4.443l.439-.439 4.626 4.626z" data-name="Layer 1" role="presentation"/></svg>