<svg xmlns="http://www.w3.org/2000/svg" viewBox="0 0 16 16" aria-labelledby="title-keys" role="img" class="symbol symbol-keys"><title id="title-keys">keys icon</title><g data-name="Layer 1"><g data-name="Your Icon"><path d="M3.343 15.614a.479.479 0 0 1-.17-.032 1.281 1.281 0 0 1-.712-.726 1.216 1.216 0 0 1 .17-1.05l.328-.533a.471.471 0 0 1 .256-.2L3.448 13l-.235-.994a.464.464 0 0 1 .058-.356.469.469 0 0 1 .3-.208l1.029-.228v-.746a.466.466 0 0 1 .061-.23l.716-1.262A2.878 2.878 0 0 1 7.1 4.867a.922.922 0 0 1 .561-.057.467.467 0 0 1-.229.906 2.131 2.131 0 0 0-1.17.892 1.954 1.954 0 0 0 .04 2.1.465.465 0 0 1 .018.492l-.789 1.392v1a.466.466 0 0 1-.367.456l-.932.205.227.954a.467.467 0 0 1-.312.552l-.481.154-.238.385a.382.382 0 0 0-.081.261.225.225 0 0 0 .071.092l.892-.212 2.874-4.673a.469.469 0 0 1 .462-.218 1.929 1.929 0 0 0 1.586-.495.787.787 0 0 0 .14-.275.467.467 0 0 1 .9.237 1.656 1.656 0 0 1-.4.712 2.925 2.925 0 0 1-2.042.773L5 15.093a.465.465 0 0 1-.29.209l-1.262.3a.437.437 0 0 1-.105.012z" role="presentation"/><path d="M5.486 8.135a.475.475 0 0 1-.128-.017 5.79 5.79 0 0 1-.733-.274 4.108 4.108 0 0 1-1.994-5.459 4.112 4.112 0 1 1 7.46 3.462.467.467 0 1 1-.846-.394 3.178 3.178 0 1 0-5.767-2.674A3.176 3.176 0 0 0 5.023 7a4.7 4.7 0 0 0 .591.22.467.467 0 0 1-.128.916z" role="presentation"/><path d="M12.95 15.971a1.23 1.23 0 0 1-1.157-.912l-.236-.648a.472.472 0 0 1 0-.327l.114-.3-1.068-.5a.467.467 0 0 1-.221-.629l.534-1.084-.677-.539a.444.444 0 0 1-.143-.192l-.604-1.516a3.134 3.134 0 0 1-.517-6.033 3.109 3.109 0 0 1 1.062-.186 3.134 3.134 0 0 1 2.376 5.18l2.035 5.644a.465.465 0 0 1-.017.357l-.61 1.3a.456.456 0 0 1-.19.206 1.459 1.459 0 0 1-.681.179zm-.45-1.716l.177.487c.106.295.227.295.279.295a.434.434 0 0 0 .1-.014l.45-.959-2.069-5.733a.466.466 0 0 1 .117-.5 2.2 2.2 0 1 0-1.691.6.465.465 0 0 1 .395.292l.663 1.658.874.7a.467.467 0 0 1 .128.572l-.489.993 1.029.484a.466.466 0 0 1 .238.59z" role="presentation"/><path d="M9.765 6.37a.834.834 0 0 1-.287-1.617.854.854 0 0 1 1.07.5.823.823 0 0 1-.029.631.83.83 0 0 1-.754.482zm0-.935a.1.1 0 0 0-.031.005.108.108 0 0 0-.062.054.106.106 0 0 0 0 .08.1.1 0 0 0 .093.063c.089-.025.115-.082.1-.136a.1.1 0 0 0-.1-.066z" role="presentation"/></g></g></svg>