<svg xmlns="http://www.w3.org/2000/svg" viewBox="0 0 16 16" aria-labelledby="title-organization_2" role="img" class="symbol symbol-organization_2"><title id="title-organization_2">organization_2 icon</title><path d="M14.563 11.54V9.85a2.716 2.716 0 0 0-2.714-2.713H9.058V4.749h3.309V.509h-8.32v4.24h3.511v2.388H4.767A2.716 2.716 0 0 0 2.053 9.85v1.69H.388v4.239h4.239V11.54H3.553V9.85a1.214 1.214 0 0 1 1.214-1.213h2.791v2.9H6.087v4.239h4.239V11.54H9.058v-2.9h2.791a1.215 1.215 0 0 1 1.214 1.21v1.69h-1.277v4.239h4.24V11.54zM5.3 1.759h5.82V3.5H5.3zm-1.92 12.77H1.638V12.79h1.739zm5.7 0H7.337V12.79h1.739zm5.7 0h-1.74V12.79h1.74z" data-name="Layer 1" role="presentation"/></svg>