<svg xmlns="http://www.w3.org/2000/svg" viewBox="0 0 16 16" aria-labelledby="title-organization-3" role="img" class="symbol symbol-organization-3"><title id="title-organization-3">organization-3 icon</title><path d="M14.777 12.04v-1.957a2.858 2.858 0 0 0-2.941-2.94h-1.7c-1.2 0-1.315-.59-1.321-.895V3.865a2.046 2.046 0 1 0-1.619 0v2.383c0 .221-.064.895-1.321.895h-1.7a2.858 2.858 0 0 0-2.941 2.94v1.957a2.045 2.045 0 1 0 1.62 0v-1.957a1.243 1.243 0 0 1 1.313-1.321h1.7a3.858 3.858 0 0 0 1.321-.211v3.489a2.046 2.046 0 1 0 1.619 0V8.551a3.858 3.858 0 0 0 1.321.211h1.7a1.246 1.246 0 0 1 1.321 1.321v1.957a2.045 2.045 0 1 0 1.62 0zM3.216 13.918a1.18 1.18 0 1 1-1.18-1.18 1.18 1.18 0 0 1 1.18 1.18zM6.822 1.987A1.18 1.18 0 1 1 8 3.167a1.18 1.18 0 0 1-1.178-1.18zm2.359 11.931A1.18 1.18 0 1 1 8 12.738a1.18 1.18 0 0 1 1.181 1.18zm4.786 1.18a1.18 1.18 0 1 1 1.18-1.18 1.18 1.18 0 0 1-1.18 1.182z" data-name="Layer 1" role="presentation"/></svg>