<svg xmlns="http://www.w3.org/2000/svg" viewBox="0 0 16 16" aria-labelledby="title-pco-logo-stack2" role="img" class="symbol symbol-pco-logo-stack2"><title id="title-pco-logo-stack2">pco-logo-stack2 icon</title><g data-name="Layer 1"><path d="M1.8 12.289h-.027a.05.05 0 0 1-.05-.05v-1.287a.072.072 0 0 0-.07-.07h-.167a.072.072 0 0 0-.07.07V12.4a.2.2 0 0 0 .2.2H1.8a.048.048 0 0 0 .048-.048v-.212a.048.048 0 0 0-.048-.051zm.7-.921a1.23 1.23 0 0 0-.409.068.067.067 0 0 0-.047.084l.023.109c.013.045.043.066.082.057a1.185 1.185 0 0 1 .324-.052.164.164 0 0 1 .124.037.264.264 0 0 1 .044.187.859.859 0 0 0-.217-.03c-.289 0-.483.158-.483.392a.378.378 0 0 0 .392.406.512.512 0 0 0 .354-.138l.022.059c.013.031.027.05.063.05h.082a.072.072 0 0 0 .07-.07V11.9c-.002-.279-.035-.532-.424-.532zm.138.711v.175a.331.331 0 0 1-.249.136.162.162 0 0 1-.165-.173c0-.109.087-.179.223-.179a.446.446 0 0 1 .189.041zm1.093-.711a.617.617 0 0 0-.4.153l-.031-.078a.06.06 0 0 0-.06-.045h-.086a.071.071 0 0 0-.07.069v1.06a.072.072 0 0 0 .07.07h.152c.056 0 .082-.022.082-.07v-.712a.38.38 0 0 1 .31-.164c.148 0 .229.1.229.276v.6A.07.07 0 0 0 4 12.6h.167a.072.072 0 0 0 .07-.07v-.588c-.003-.366-.187-.574-.506-.574zm1.343 0a.622.622 0 0 0-.4.153l-.027-.078a.061.061 0 0 0-.061-.045H4.5a.07.07 0 0 0-.069.069v1.06a.071.071 0 0 0 .069.07h.15c.055 0 .081-.022.081-.07v-.712a.384.384 0 0 1 .311-.164c.148 0 .229.1.229.276v.6a.07.07 0 0 0 .07.07h.167a.071.071 0 0 0 .069-.07v-.588c0-.363-.183-.571-.503-.571zm.862-.515a.186.186 0 0 0 0 .371.186.186 0 1 0 0-.371z" role="presentation"/><rect x="5.787" y="11.398" width=".306" height="1.2" rx=".07" ry=".07"/><path d="M6.957 11.368a.616.616 0 0 0-.4.153l-.028-.078a.061.061 0 0 0-.06-.045h-.088a.071.071 0 0 0-.07.069v1.06a.072.072 0 0 0 .07.07h.152c.055 0 .081-.022.081-.07v-.712a.384.384 0 0 1 .311-.164c.148 0 .229.1.229.276v.6a.07.07 0 0 0 .07.07h.167a.072.072 0 0 0 .07-.07v-.588c0-.363-.184-.571-.504-.571zm3.343.841a.068.068 0 0 0-.1.006l-.018.018a.309.309 0 0 1-.244.113.348.348 0 0 1 0-.7.313.313 0 0 1 .225.108h.005c.021.019.05.045.092.007l.1-.088a.074.074 0 0 0 .029-.047.07.07 0 0 0-.015-.055.531.531 0 0 0-.435-.213.639.639 0 0 0-.628.642.626.626 0 0 0 .626.626.529.529 0 0 0 .465-.252.071.071 0 0 0-.023-.1zm.751-.841a.63.63 0 0 0 0 1.258.7.7 0 0 0 .442-.149.07.07 0 0 0 .029-.047.074.074 0 0 0-.021-.049l-.082-.111c-.032-.04-.062-.022-.1 0a.491.491 0 0 1-.253.082.325.325 0 0 1-.321-.285h.781a.069.069 0 0 0 .067-.062.754.754 0 0 0 .006-.081.542.542 0 0 0-.548-.556zm0 .254a.264.264 0 0 1 .254.232h-.537a.283.283 0 0 1 .28-.232zm1.363-.254a.617.617 0 0 0-.4.153l-.028-.078a.061.061 0 0 0-.06-.045h-.085a.071.071 0 0 0-.07.069v1.06a.072.072 0 0 0 .07.07h.152c.056 0 .082-.022.082-.07v-.712a.378.378 0 0 1 .31-.164c.148 0 .229.1.229.276v.6a.07.07 0 0 0 .07.07h.167a.072.072 0 0 0 .07-.07v-.588c-.004-.363-.188-.571-.507-.571zm1.371.952a.065.065 0 0 0-.036-.039.063.063 0 0 0-.051 0 .445.445 0 0 1-.172.052c-.044 0-.08-.008-.08-.1v-.565h.285a.071.071 0 0 0 .07-.07v-.132a.068.068 0 0 0-.07-.069h-.285v-.357a.069.069 0 0 0-.067-.07h-.166a.072.072 0 0 0-.07.07v.36h-.109a.068.068 0 0 0-.07.069v.131a.07.07 0 0 0 .07.07h.109v.595c0 .155.032.362.313.362a.922.922 0 0 0 .349-.089.063.063 0 0 0 .033-.088zm.676-.952a.63.63 0 0 0 0 1.258.7.7 0 0 0 .443-.149.06.06 0 0 0 .008-.1l-.083-.111c-.031-.039-.063-.021-.1 0a.5.5 0 0 1-.253.082.326.326 0 0 1-.322-.285h.781a.067.067 0 0 0 .067-.062.7.7 0 0 0 .006-.081.542.542 0 0 0-.547-.552zm.251.486h-.536a.282.282 0 0 1 .282-.232.262.262 0 0 1 .254.232zm1.223-.42c-.033-.049-.136-.066-.222-.066a.439.439 0 0 0-.338.154l-.023-.073a.07.07 0 0 0-.064-.051H15.2a.071.071 0 0 0-.07.069v1.06a.072.072 0 0 0 .07.07h.141c.035 0 .093 0 .093-.07v-.739a.3.3 0 0 1 .249-.134.257.257 0 0 1 .094.019.063.063 0 0 0 .089-.033l.071-.144a.065.065 0 0 0-.002-.062zM8.76 11.4h-.116a.054.054 0 0 0-.053.039l-.013.083a.542.542 0 0 0-.391-.157.68.68 0 0 0 .013 1.354.672.672 0 0 0 .309-.081v.019a.27.27 0 0 1-.078.216.409.409 0 0 1-.319.117.585.585 0 0 1-.28-.088.055.055 0 0 0-.075.02l-.064.126a.055.055 0 0 0 .016.072.879.879 0 0 0 .465.153h.017a.589.589 0 0 0 .631-.571v-1.24a.064.064 0 0 0-.062-.062zm-.31.991a.486.486 0 0 1-.214.051.355.355 0 0 1-.344-.395c0-.238.133-.4.331-.4a.336.336 0 0 1 .277.153.123.123 0 0 1 .02.068v.414a.123.123 0 0 1-.07.109zM.7 11.3a.539.539 0 0 0-.392.158l-.008-.08a.056.056 0 0 0-.054-.039H.125a.063.063 0 0 0-.061.062v1.743a.071.071 0 0 0 .069.07H.3a.068.068 0 0 0 .076-.07v-.569a.638.638 0 0 0 .308.083A.68.68 0 0 0 .7 11.3zm-.334.5a.123.123 0 0 1 .02-.068.333.333 0 0 1 .275-.149c.2 0 .332.161.332.4a.356.356 0 0 1-.345.395.49.49 0 0 1-.214-.051.124.124 0 0 1-.068-.112zm8.617-5.936L8.25 6.1a.822.822 0 0 1-.486 0l-.739-.222a.062.062 0 0 0-.08.06v.9a.061.061 0 0 0 .044.059l.9.271a.367.367 0 0 0 .22 0l.91-.29a.062.062 0 0 0 .043-.059v-.896a.062.062 0 0 0-.079-.059z" role="presentation"/><path d="M10.487 3.937L8.53 3.355a1.843 1.843 0 0 0-1.051 0l-1.957.582a1.055 1.055 0 0 0-.739 1.007v3.177a1.056 1.056 0 0 0 .739 1.007l1.957.582a1.843 1.843 0 0 0 1.051 0l1.957-.582a1.056 1.056 0 0 0 .739-1.007V4.944a1.055 1.055 0 0 0-.739-1.007zm-.77 3.081a.463.463 0 0 1-.33.444L8.243 7.8a.83.83 0 0 1-.471 0L7 7.572a.044.044 0 0 0-.056.042v.521a.165.165 0 0 1-.212.158L6.41 8.2a.165.165 0 0 1-.118-.158V5.617a.463.463 0 0 1 .593-.444l1.007.3a.37.37 0 0 0 .216 0l1.007-.315a.463.463 0 0 1 .6.442z" role="presentation"/></g></svg>