<svg xmlns="http://www.w3.org/2000/svg" viewBox="0 0 16 16" aria-labelledby="title" role="img" class="symbol symbol-stamp"><title id="title">stamp icon</title><g data-name="Layer 1"><path class="cls-1" d="M15.348 3.308h.091a.435.435 0 0 0 .435-.435V1.5a.435.435 0 0 0-.608-.4.519.519 0 0 1-.708-.54.435.435 0 0 0-.435-.435h-1.015a.5.5 0 0 0-.435.507.509.509 0 0 1-.508.508.529.529 0 0 1-.508-.58.435.435 0 0 0-.435-.435h-1.015a.5.5 0 0 0-.435.507.509.509 0 0 1-.508.508.529.529 0 0 1-.509-.58.435.435 0 0 0-.435-.435H7.306a.5.5 0 0 0-.435.507.509.509 0 0 1-.508.508.529.529 0 0 1-.508-.58.435.435 0 0 0-.436-.435H4.4a.5.5 0 0 0-.435.507.509.509 0 0 1-.508.508.529.529 0 0 1-.504-.58.435.435 0 0 0-.435-.435H1.5a.5.5 0 0 0-.435.507.509.509 0 0 1-.508.508.435.435 0 0 0-.435.435V2.93a.435.435 0 0 0 .3.415.49.49 0 0 1 0 .943.435.435 0 0 0-.3.414v1.129a.435.435 0 0 0 .3.414.5.5 0 0 1 .358.472.5.5 0 0 1-.358.472.435.435 0 0 0-.3.414v1.129a.435.435 0 0 0 .3.414.49.49 0 0 1 0 .944.435.435 0 0 0-.3.414v1.129a.435.435 0 0 0 .3.415.49.49 0 0 1 0 .943.435.435 0 0 0-.3.414v1.355a.435.435 0 0 0 .438.44.5.5 0 0 1 .473.369.436.436 0 0 0 .417.311h1.121a.435.435 0 0 0 .417-.312.5.5 0 0 1 .946 0 .435.435 0 0 0 .417.312h1.121a.435.435 0 0 0 .417-.312.5.5 0 0 1 .946 0 .436.436 0 0 0 .417.311h1.121a.436.436 0 0 0 .417-.311.5.5 0 0 1 .946 0 .436.436 0 0 0 .417.311h1.121a.435.435 0 0 0 .417-.312.5.5 0 0 1 .946 0 .435.435 0 0 0 .417.312h1.121a.435.435 0 0 0 .417-.312.5.5 0 0 1 .674-.326.435.435 0 0 0 .608-.4v-1.378a.435.435 0 0 0-.435-.435h-.091a.508.508 0 1 1 0-1.017h.091a.435.435 0 0 0 .435-.435v-1.014a.435.435 0 0 0-.435-.435h-.091a.508.508 0 1 1 0-1.016h.091a.435.435 0 0 0 .435-.435V7.66a.435.435 0 0 0-.435-.435h-.091a.508.508 0 1 1 0-1.016h.091a.435.435 0 0 0 .435-.435V4.759a.435.435 0 0 0-.435-.435h-.091a.508.508 0 1 1 0-1.017zM15 5.151v.231a1.379 1.379 0 0 0 0 2.67v.231a1.379 1.379 0 0 0 0 2.67v.231a1.379 1.379 0 0 0 0 2.671v.471a1.352 1.352 0 0 0-1.108.674h-.554a1.353 1.353 0 0 0-2.347 0h-.554a1.352 1.352 0 0 0-2.347 0h-.554a1.352 1.352 0 0 0-2.347 0h-.554a1.353 1.353 0 0 0-2.347 0h-.554A1.36 1.36 0 0 0 1 14.4v-.713a1.355 1.355 0 0 0 0-2.327v-.574a1.354 1.354 0 0 0 0-2.331V7.88a1.354 1.354 0 0 0 0-2.326v-.575a1.355 1.355 0 0 0 0-2.327V1.94A1.385 1.385 0 0 0 1.879 1h.252a1.381 1.381 0 0 0 1.33 1.016A1.369 1.369 0 0 0 4.78 1h.253a1.381 1.381 0 0 0 1.33 1.016A1.369 1.369 0 0 0 7.681 1h.252a1.381 1.381 0 0 0 1.33 1.016A1.369 1.369 0 0 0 10.582 1h.252a1.381 1.381 0 0 0 1.33 1.016A1.369 1.369 0 0 0 13.483 1h.253A1.382 1.382 0 0 0 15 2.01v.471a1.379 1.379 0 0 0 0 2.671z" role="presentation"/><path class="cls-1" d="M12.591 3.144H3.153a.326.326 0 0 0-.326.326v9.438a.326.326 0 0 0 .326.326h9.438a.326.326 0 0 0 .326-.326V3.47a.326.326 0 0 0-.326-.326zm-.326.653v1.482l-.688-.94a.305.305 0 0 0-.279-.133.327.327 0 0 0-.265.159L7.555 10.2l-1.72-2.3a.326.326 0 0 0-.25-.131.341.341 0 0 0-.258.113l-1.848 2.151V3.8zm-8.786 8.785v-1.56a.3.3 0 0 0 .03-.022l2.047-2.38 1.769 2.362a.319.319 0 0 0 .278.13.327.327 0 0 0 .263-.159l3.474-5.832.824 1.125a.326.326 0 0 0 .1.089v6.246z" role="presentation"/><path class="cls-1" d="M5.329 6.857a1.4 1.4 0 1 0-1.4-1.4 1.4 1.4 0 0 0 1.4 1.4zm0-2.149a.748.748 0 1 1-.748.748.749.749 0 0 1 .748-.748z" role="presentation"/></g></svg>