<svg xmlns="http://www.w3.org/2000/svg" viewBox="0 0 16 16" aria-labelledby="title-viewer" role="img" class="symbol symbol-viewer"><title id="title-viewer">viewer icon</title><g data-name="Layer 1"><path d="M8 2.993C4.163 2.993.718 6.394.718 8S4.163 13.007 8 13.007 15.282 9.606 15.282 8 11.837 2.993 8 2.993zm0 8.421c-3.094 0-5.586-2.773-5.69-3.39.1-.665 2.6-3.438 5.69-3.438s5.586 2.773 5.69 3.39c-.104.665-2.596 3.438-5.69 3.438z" role="presentation"/><path d="M8 5.724A2.276 2.276 0 1 0 10.276 8 2.279 2.279 0 0 0 8 5.724zm0 2.959A.683.683 0 1 1 8.683 8 .685.685 0 0 1 8 8.683z" role="presentation"/></g></svg>