<svg data-name="Layer 1" xmlns="http://www.w3.org/2000/svg" viewBox="0 0 32 32"><title>color-projector-app</title><path class="cls-1" d="M30 26.973A3.027 3.027 0 0 1 26.973 30H5.027A3.027 3.027 0 0 1 2 26.973V5.027A3.027 3.027 0 0 1 5.027 2h21.946A3.027 3.027 0 0 1 30 5.027z"/><path class="cls-2" d="M27 26.239a.761.761 0 0 1-.761.761H5.761A.761.761 0 0 1 5 26.239V5.761A.761.761 0 0 1 5.761 5h20.478a.761.761 0 0 1 .761.761z"/><path class="cls-3" d="M10 2h12v3.007a.993.993 0 0 1-.993.993H10.993A.993.993 0 0 1 10 5.007V2z"/><path class="cls-4" d="M18.452 16.663c-.209.151-2.954 2.522-3.2 2.683-.18.12-.416-.014-.416-.287V13.7c0-.251.212-.436.424-.29.17.117 2.9 2.474 3.189 2.676a.371.371 0 0 1 .003.577zM16 10a6.528 6.528 0 1 0 6.611 6.53A6.57 6.57 0 0 0 16 10z"/></svg>