<svg data-name="Layer 1" xmlns="http://www.w3.org/2000/svg" viewBox="0 0 32 32"><title>color-resources-app</title><path class="cls-1" d="M30 26.973A3.027 3.027 0 0 1 26.973 30H5.027A3.027 3.027 0 0 1 2 26.973V5.027A3.027 3.027 0 0 1 5.027 2h21.946A3.027 3.027 0 0 1 30 5.027z"/><path class="cls-2" d="M27 26.239a.761.761 0 0 1-.761.761H5.761A.761.761 0 0 1 5 26.239V5.761A.761.761 0 0 1 5.761 5h20.478a.761.761 0 0 1 .761.761z"/><rect class="cls-3" x="9" y="10" width="6" height="5" rx=".431" ry=".431"/><rect class="cls-3" x="17" y="10" width="6" height="5" rx=".431" ry=".431"/><rect class="cls-3" x="9" y="17" width="6" height="5" rx=".431" ry=".431"/><rect class="cls-3" x="17" y="17" width="6" height="5" rx=".431" ry=".431"/><path class="cls-4" d="M10 2h12v3.007a.993.993 0 0 1-.993.993H10.993A.993.993 0 0 1 10 5.007V2z"/></svg>