<svg id="Layer_1" data-name="Layer 1" xmlns="http://www.w3.org/2000/svg" viewBox="0 0 32 32"><defs><style>.cls-1{fill:#4984c4;}.cls-1,.cls-2{fill-rule:evenodd;}.cls-2{fill:#fff;}.cls-3{fill:#fec123;}.cls-4{fill:#4a4a4d;}</style></defs><title>color-accounts-app</title><path class="cls-1" d="M30,26.973A3.027,3.027,0,0,1,26.973,30H5.027A3.027,3.027,0,0,1,2,26.973V5.027A3.027,3.027,0,0,1,5.027,2H26.973A3.027,3.027,0,0,1,30,5.027Z"/><path class="cls-2" d="M27,26.239a.761.761,0,0,1-.761.761H5.761A.761.761,0,0,1,5,26.239V5.761A.761.761,0,0,1,5.761,5H26.239A.761.761,0,0,1,27,5.761Z"/><path class="cls-3" d="M10,2H22a0,0,0,0,1,0,0V5.007A.993.993,0,0,1,21.007,6H10.993A.993.993,0,0,1,10,5.007V2A0,0,0,0,1,10,2Z"/><path class="cls-4" d="M22.588,15.839v-.01a.276.276,0,0,0-.193-.235.272.272,0,0,0-.044-.01l-.01,0-.9-.1a1.38,1.38,0,0,1-.875-2.112l.565-.706.013-.021.006-.01a.291.291,0,0,0,.016-.03.269.269,0,0,0,.012-.031l0-.011a.275.275,0,0,0-.05-.245l-.008-.01-.012-.014-.906-.906-.015-.012-.008-.006a.276.276,0,0,0-.3-.029.279.279,0,0,0-.038.024l-.009.006-.706.565a1.379,1.379,0,0,1-2.112-.875l-.1-.9c0-.008,0-.016-.005-.024l0-.012a.287.287,0,0,0-.023-.063l-.006-.011a.275.275,0,0,0-.209-.138h-.013l-.019,0H15.358l-.019,0h-.01a.276.276,0,0,0-.235.193.279.279,0,0,0-.01.044l0,.01-.1.9a1.378,1.378,0,0,1-2.112.875l-.706-.565c-.007-.005-.014-.009-.021-.013l-.01-.006-.03-.016-.031-.012-.011,0a.275.275,0,0,0-.245.05l-.01.009-.014.012-.906.906-.012.015-.006.007a.276.276,0,0,0-.005.341l.006.009.565.706a1.376,1.376,0,0,1-.875,2.112l-.9.1-.024.005-.012,0-.032.01-.03.014-.01.006a.275.275,0,0,0-.138.209v.013l0,.018v1.281l0,.019v.01a.276.276,0,0,0,.193.235.266.266,0,0,0,.044.01l.01,0,.9.1a1.376,1.376,0,0,1,.875,2.112l-.565.706c-.005.007-.009.014-.013.021l-.006.01a.276.276,0,0,0-.016.03.283.283,0,0,0-.012.031l0,.011a.275.275,0,0,0,.05.245l.008.01.012.014.906.906.015.012.008.006a.276.276,0,0,0,.3.029.262.262,0,0,0,.038-.024l.009-.006.706-.565a1.382,1.382,0,0,1,2.112.875l.1.9c0,.008,0,.016.005.024l0,.012a.29.29,0,0,0,.023.063l.006.01a.275.275,0,0,0,.209.138h.013l.018,0h1.281l.019,0h.01a.276.276,0,0,0,.235-.193.28.28,0,0,0,.01-.044l0-.01.1-.9a1.376,1.376,0,0,1,2.112-.875l.706.565c.007.005.014.009.021.013l.01.006.03.016.031.012.011,0a.275.275,0,0,0,.245-.05l.01-.008.014-.012.906-.906.012-.015.006-.008a.276.276,0,0,0,.005-.341l-.006-.009-.565-.706a1.377,1.377,0,0,1,.875-2.112l.9-.1.024-.005.012,0,.032-.01.03-.013.01-.006a.275.275,0,0,0,.138-.209v-.013l0-.019V15.858ZM16,18.748A2.248,2.248,0,1,1,18.248,16.5,2.248,2.248,0,0,1,16,18.748Z"/></svg>