<svg id="Layer_1" data-name="Layer 1" xmlns="http://www.w3.org/2000/svg" viewBox="0 0 32 32"><defs><style>.cls-1,.cls-2{fill:#333132;}.cls-1{fill-rule:evenodd;}</style></defs><title>services-app</title><path class="cls-1" d="M26.973,2H5.027A3.027,3.027,0,0,0,2,5.027V26.973A3.027,3.027,0,0,0,5.027,30H26.973A3.027,3.027,0,0,0,30,26.973V5.027A3.027,3.027,0,0,0,26.973,2Zm0,24.216a.757.757,0,0,1-.757.757H5.784a.757.757,0,0,1-.757-.757V5.784a.757.757,0,0,1,.757-.757h4.541V6.544a.753.753,0,0,0,.753.753h9.845a.753.753,0,0,0,.753-.753V5.027h4.541a.757.757,0,0,1,.757.757Z"/><rect class="cls-2" x="9" y="10" width="14" height="3" rx="0.464" ry="0.464"/><rect class="cls-2" x="9" y="15" width="14" height="3" rx="0.464" ry="0.464"/><rect class="cls-2" x="9" y="20" width="14" height="3" rx="0.464" ry="0.464"/></svg>