<svg xmlns="http://www.w3.org/2000/svg" viewBox="0 0 16 16"><defs><style>.cls-1{fill:#010101;}</style></defs><title>bank-confirmed</title><g id="Layer_1" data-name="Layer 1"><path class="cls-1" d="M13.8,5.946H12.538V9.869L13.8,8.6Zm-9.785.008v4.933H5.286V5.954ZM1.728,12.72H7.4L5.975,11.454H1.728Zm.458-6.766v4.933H3.452V5.954ZM10.7,10.235l.644.644h.179l.443-.443V5.946H10.7Zm2.93,4.318h1.873V13.287h-.621ZM7.962,13.287H.493v1.266H9.223l-.69-.7ZM8,6.441A1.979,1.979,0,1,0,9.979,8.42,1.981,1.981,0,0,0,8,6.441ZM8,9.09a.67.67,0,1,1,.67-.67A.671.671,0,0,1,8,9.09Zm7.782-4.027L8.075.35a.173.173,0,0,0-.183,0L.216,5.063a.175.175,0,0,0,.092.324H15.692a.175.175,0,0,0,.091-.324ZM3.951,4.121,7.984,1.844l4.033,2.277Z"/><polygon class="cls-1" points="15.625 10.763 14.518 9.656 11.438 12.736 10.04 11.338 8.91 12.467 10.309 13.866 10.306 13.869 11.412 14.975 11.415 14.972 11.439 14.995 15.625 10.763"/></g></svg>