<svg xmlns="http://www.w3.org/2000/svg" viewBox="0 0 16 16"><defs><style>.cls-1{fill:#231f20;}</style></defs><title>batches</title><g id="Layer_1" data-name="Layer 1"><path class="cls-1" d="M8.191,5.6l-.2.209-.2-.209A1.547,1.547,0,1,0,5.552,7.744l.267.272,2,2.032a.24.24,0,0,0,.343,0l2.262-2.3A1.547,1.547,0,1,0,8.191,5.6Zm7,.311L13.433,4.718l0-.949a1.546,1.546,0,0,0-1.563-1.528h-.985L9.283,1.2A2.088,2.088,0,0,0,8.006.756H7.981A2.089,2.089,0,0,0,6.7,1.2L5.392,2.241H3.837A1.546,1.546,0,0,0,2.273,3.769l-.011.961L.663,5.98a1.263,1.263,0,0,0-.6,1.071V13.9a1.287,1.287,0,0,0,1.3,1.272H14.615a1.288,1.288,0,0,0,1.3-1.273V7.051A1.269,1.269,0,0,0,15.189,5.911ZM14.8,13.379a.46.46,0,0,1-.254.608.476.476,0,0,1-.62-.246l-2.313-2.867H4.368L2.055,13.741a.476.476,0,0,1-.62.246.46.46,0,0,1-.254-.608l2.37-3.234-2.338-2.1A.456.456,0,0,1,1.291,7.4a.481.481,0,0,1,.665.075L3.633,8.9V4.138a.532.532,0,0,1,.538-.526h7.617a.532.532,0,0,1,.538.526V9.022l1.7-1.551a.481.481,0,0,1,.665-.075.456.456,0,0,1,.077.651l-2.338,2.189Z"/></g></svg>