<svg id="Layer_1" data-name="Layer 1" xmlns="http://www.w3.org/2000/svg" viewBox="0 0 16 16"><title>email-circle</title><path d="M8,2.044A5.956,5.956,0,1,1,2.076,8,5.947,5.947,0,0,1,8,2.044M8,.459A7.541,7.541,0,1,0,15.5,8,7.521,7.521,0,0,0,8,.459Z"/><path d="M4.325,6.4,7.658,8.013a.555.555,0,0,0,.423,0l3.595-1.776a.185.185,0,0,0,.1-.166.519.519,0,0,0-.516-.519H4.744a.526.526,0,0,0-.523.525V6.23A.185.185,0,0,0,4.325,6.4Zm7.12.775-3.036,1.5a1.28,1.28,0,0,1-1.059,0l-2.8-1.352a.232.232,0,0,0-.333.21v2.41a.506.506,0,0,0,.5.506h6.494a.563.563,0,0,0,.56-.563V7.38A.232.232,0,0,0,11.445,7.171Z" style="fill:#231f20"/></svg>