<svg xmlns="http://www.w3.org/2000/svg" viewBox="0 0 16 16"><defs><style>.cls-1{fill:#010101;}</style></defs><title>logs</title><g id="Layer_1" data-name="Layer 1"><path class="cls-1" d="M11.577,5.967a5.169,5.169,0,0,0-.772-.058h0a5.077,5.077,0,1,0,.774.058Zm-.491,8.821v-.5a.315.315,0,0,0-.63,0v.494a3.925,3.925,0,0,1-3.61-3.555h.492a.31.31,0,1,0,0-.619H6.844a3.923,3.923,0,0,1,3.612-3.6v.541a.315.315,0,0,0,.63,0V7.007a3.923,3.923,0,0,1,3.681,3.6H14.2a.31.31,0,1,0,0,.619h.563A3.925,3.925,0,0,1,11.086,14.788Z"/><path class="cls-1" d="M12.442,11.33l-1-.5V9.09A.448.448,0,0,0,11,8.646h-.29a.448.448,0,0,0-.451.443v2.477l.336.165,1.314.646a.455.455,0,0,0,.6-.2l.132-.255A.44.44,0,0,0,12.442,11.33Z"/><path class="cls-1" d="M5.819,13.916H1.472V1.478H7.393V3.955a.136.136,0,0,0,.04.095.139.139,0,0,0,.1.039h2.507V5.2a5.949,5.949,0,0,1,.767-.055,5.885,5.885,0,0,1,.615.046v-1.4a.589.589,0,0,0-.181-.426L8.085.275A.625.625,0,0,0,7.651.1H.7A.624.624,0,0,0,.27.275.6.6,0,0,0,.09.7V14.73a.6.6,0,0,0,.18.426.622.622,0,0,0,.434.176H7.058A5.832,5.832,0,0,1,5.819,13.916Z"/></g></svg>