<svg id="Layer_1" data-name="Layer 1" xmlns="http://www.w3.org/2000/svg" viewBox="0 0 16 16"><title>printer-circle</title><path d="M11.519,10.175l-.008-2.727a.675.675,0,0,0-.676-.674h-.61V6.12L8.607,4.8H5.772V6.775H5.157a.676.676,0,0,0-.676.677l.008,2.723H5.772V11.2h4.453V10.175ZM6.242,5.257H8.3V6.377H9.789V7.611H6.242V5.257Zm3.548,5.466H6.242V9.52H9.789v1.2Z" style="fill:#010101"/><path d="M8,2.044A5.956,5.956,0,1,1,2.076,8,5.947,5.947,0,0,1,8,2.044M8,.459A7.541,7.541,0,1,0,15.5,8,7.521,7.521,0,0,0,8,.459Z"/></svg>