<svg id="Layer_1" data-name="Layer 1" xmlns="http://www.w3.org/2000/svg" viewBox="0 0 16 16"><title>bank-check</title><path d="M16,6.323v6.608a1.12,1.12,0,0,1-1.121,1.12H1.121A1.12,1.12,0,0,1,0,12.931V6.325H0v0A1.121,1.121,0,0,1,1.121,5.2H5.33L8.076,7.951H2.624a.134.134,0,0,0-.133.13v.67a.133.133,0,0,0,.133.133H9.013l1.8,1.8H2.624a.134.134,0,0,0-.133.134v.63a.134.134,0,0,0,.133.133H14.437a.391.391,0,0,0,.391-.391h0V8.959a1.2,1.2,0,0,0-.353-.852l-2.9-2.9h3.309A1.121,1.121,0,0,1,16,6.323ZM8.834,3.715,6.961,5.588,11.978,10.6h0a.32.32,0,0,0,.228.1h1.552a.187.187,0,0,0,.187-.187h0V8.962a.322.322,0,0,0-.094-.228Zm-3.429-.7a.718.718,0,0,0,0,1.014L6.417,5.041,8.288,3.17,7.277,2.159h0a.718.718,0,0,0-1.013,0Z"/></svg>