<svg width="16" height="16" viewBox="0 0 16 16" fill="none" xmlns="http://www.w3.org/2000/svg">
<path d="M16 6.32271V12.9301C16 13.0773 15.971 13.223 15.9146 13.3589C15.8583 13.4948 15.7757 13.6184 15.6716 13.7224C15.5675 13.8264 15.4439 13.9088 15.3079 13.9651C15.1719 14.0213 15.0262 14.0501 14.879 14.05H1.12101C0.973842 14.0501 0.828094 14.0213 0.692094 13.9651C0.556094 13.9088 0.432508 13.8264 0.328401 13.7224C0.224293 13.6184 0.141705 13.4948 0.0853576 13.3589C0.0290098 13.223 7.07847e-06 13.0773 7.13713e-06 12.9301V6.32471C-0.000519353 6.17718 0.0280876 6.03099 0.0841873 5.89454C0.140287 5.75808 0.222776 5.63404 0.326923 5.52953C0.43107 5.42502 0.554826 5.3421 0.691093 5.28552C0.82736 5.22894 0.973458 5.19981 1.12101 5.19981H5.33L8.076 7.95057H2.62401C2.58932 7.95081 2.55608 7.96449 2.53128 7.98873C2.50648 8.01297 2.49204 8.04589 2.49101 8.08055V8.75049C2.49101 8.78576 2.50502 8.81959 2.52996 8.84453C2.5549 8.86947 2.58873 8.88348 2.62401 8.88348H9.013L10.813 10.6833H2.62401C2.58864 10.6836 2.55481 10.6978 2.5299 10.7229C2.50499 10.748 2.491 10.7819 2.49101 10.8173V11.4472C2.49127 11.4824 2.50536 11.5161 2.53025 11.541C2.55514 11.5659 2.58881 11.58 2.62401 11.5802H14.437C14.5407 11.5802 14.6402 11.539 14.7135 11.4657C14.7868 11.3924 14.828 11.293 14.828 11.1893V8.95847C14.8283 8.80021 14.7972 8.64346 14.7366 8.49725C14.676 8.35104 14.5871 8.21826 14.475 8.10655L11.575 5.20681H14.884C15.1796 5.20813 15.4627 5.32612 15.6717 5.53511C15.8807 5.74409 15.9987 6.02716 16 6.32271ZM8.834 3.71495L6.961 5.58778L11.978 10.5993C12.0074 10.6304 12.0427 10.6552 12.0819 10.6724C12.121 10.6896 12.1632 10.6987 12.206 10.6993H13.758C13.8076 10.6993 13.8552 10.6796 13.8902 10.6446C13.9253 10.6095 13.945 10.5619 13.945 10.5123V8.96147C13.9451 8.91916 13.9368 8.87725 13.9207 8.83813C13.9046 8.79901 13.8809 8.76346 13.851 8.73349L8.834 3.71495ZM5.405 3.01501C5.27078 3.14959 5.19541 3.3319 5.19541 3.52197C5.19541 3.71203 5.27078 3.89434 5.405 4.02892L6.417 5.04083L8.288 3.17L7.277 2.15909C7.14245 2.02519 6.96034 1.95001 6.7705 1.95001C6.58067 1.95001 6.39856 2.02519 6.264 2.15909L5.405 3.01501Z" fill="black"/>
</svg>
