<svg width="16" height="16" viewBox="0 0 16 16" fill="none" xmlns="http://www.w3.org/2000/svg">
<path d="M7.56209 7.21894C7.60058 7.13514 7.66229 7.06414 7.73992 7.01437C7.81754 6.96459 7.90781 6.93814 8.00002 6.93814C8.09223 6.93814 8.1825 6.96459 8.26012 7.01437C8.33774 7.06414 8.39946 7.13514 8.43795 7.21894L8.98387 8.40793L10.2837 8.54493C10.3766 8.55501 10.4646 8.59184 10.537 8.65095C10.6094 8.71007 10.6631 8.78893 10.6915 8.87796C10.72 8.96699 10.722 9.06238 10.6974 9.15254C10.6727 9.24271 10.6224 9.32378 10.5526 9.38592L9.59177 10.2359L9.86073 11.4909C9.88005 11.5815 9.87283 11.6758 9.83994 11.7625C9.80705 11.8491 9.74989 11.9244 9.67529 11.9794C9.60069 12.0344 9.51183 12.0667 9.41935 12.0725C9.32686 12.0782 9.23468 12.0572 9.15384 12.0119L8.00002 11.3659L6.8452 12.0119C6.76436 12.0572 6.67218 12.0782 6.57969 12.0725C6.48721 12.0667 6.39835 12.0344 6.32375 11.9794C6.24915 11.9244 6.19199 11.8491 6.1591 11.7625C6.12621 11.6758 6.11899 11.5815 6.13831 11.4909L6.40727 10.2359L5.44642 9.38592C5.3766 9.32378 5.32631 9.24271 5.30165 9.15254C5.27699 9.06238 5.27902 8.96699 5.30749 8.87796C5.33597 8.78893 5.38966 8.71007 5.46206 8.65095C5.53446 8.59184 5.62246 8.55501 5.71538 8.54493L7.01517 8.40793L7.56209 7.21894ZM12.6663 0H11.0255V1.64099H4.76953V0H3.12879V1.64099H2.4109C1.9901 1.62989 1.58189 1.78511 1.27476 2.07301C0.967624 2.36091 0.786323 2.75828 0.770157 3.17897V14.3589C0.767336 14.5752 0.807847 14.7898 0.889303 14.9902C0.970759 15.1905 1.09151 15.3726 1.24443 15.5255C1.39735 15.6785 1.57935 15.7992 1.77969 15.8807C1.98003 15.9622 2.19465 16.0027 2.4109 15.9999H13.5891C13.8054 16.0027 14.02 15.9622 14.2203 15.8807C14.4207 15.7992 14.6027 15.6785 14.7556 15.5255C14.9085 15.3726 15.0293 15.1905 15.1107 14.9902C15.1922 14.7898 15.2327 14.5752 15.2299 14.3589V3.17897C15.1731 2.7556 14.9654 2.36694 14.6451 2.0844C14.3248 1.80186 13.9132 1.64441 13.4862 1.64099H12.6663V0ZM2.4109 5.53795H13.5891V14.3589H2.4109V5.53795Z" fill="black"/>
</svg>
