<svg width="16" height="16" viewBox="0 0 16 16" fill="none" xmlns="http://www.w3.org/2000/svg">
<path fill-rule="evenodd" clip-rule="evenodd" d="M10.286 1.51999C10.7899 1.51999 11.2732 1.72021 11.6295 2.07661C11.9858 2.43302 12.186 2.9164 12.186 3.42043V4.18661H14.1C14.3502 4.18726 14.5978 4.2372 14.8286 4.33356C15.0595 4.42993 15.2691 4.57083 15.4456 4.74823C15.622 4.92563 15.7618 5.13606 15.8569 5.36749C15.952 5.59892 16.0007 5.84682 16 6.09705V12.5745C16 13.079 15.8 13.5629 15.4438 13.9201C15.0876 14.2773 14.6044 14.4787 14.1 14.48H1.905C1.65442 14.48 1.40629 14.4305 1.17484 14.3345C0.943385 14.2384 0.733158 14.0976 0.556197 13.9201C0.379236 13.7427 0.239019 13.532 0.143578 13.3003C0.0481377 13.0685 -0.000651152 12.8202 6.56227e-06 12.5695V6.09705C0.00133037 5.59256 0.202619 5.10919 0.559732 4.75293C0.916846 4.39667 1.40063 4.19661 1.905 4.19661H3.81V3.42543C3.81 2.9214 4.01018 2.43802 4.3665 2.08162C4.72282 1.72521 5.20609 1.52499 5.71 1.52499L10.286 1.51999ZM8 6.18707C7.54832 6.18707 7.10461 6.30604 6.7135 6.53202C6.32238 6.758 5.99766 7.08301 5.772 7.47437L4.948 6.99726C5.30519 6.37948 5.84145 5.8847 6.48585 5.57835C7.13025 5.272 7.85244 5.16852 8.55692 5.28159C9.26139 5.39466 9.91495 5.71895 10.4312 6.21157C10.9474 6.7042 11.302 7.34195 11.448 8.0405L12.075 7.95348L11.185 9.61586L9.877 8.25855L10.504 8.17153C10.3713 7.60691 10.0517 7.1037 9.59722 6.7435C9.14271 6.3833 8.57988 6.18722 8 6.18707ZM5.775 10.05C5.97571 10.396 6.25432 10.6904 6.5887 10.9099C6.92309 11.1293 7.30404 11.2678 7.70128 11.3142C8.09852 11.3606 8.50111 11.3137 8.87706 11.1772C9.25301 11.0408 9.59197 10.8185 9.867 10.5281L10.559 11.1832C10.1728 11.591 9.69474 11.9006 9.16468 12.0862C8.63463 12.2719 8.06791 12.3281 7.51172 12.2503C6.95554 12.1725 6.42599 11.9629 5.96717 11.639C5.50836 11.3151 5.13356 10.8862 4.874 10.388L4.345 10.5881L4.6 9.67888L4.59 9.64087L4.612 9.63487L4.852 8.76967L6.425 9.80491L5.775 10.05Z" fill="black"/>
</svg>
