<svg id="Layer_1" data-name="Layer 1" xmlns="http://www.w3.org/2000/svg" viewBox="0 0 16 16"><title>credit-card</title><path d="M3.519,11.259h.814a.815.815,0,1,0,0-1.629H3.519a.815.815,0,1,0,0,1.629Z"/><path d="M7.185,11.259H9.63a.815.815,0,0,0,0-1.629H7.185a.815.815,0,1,0,0,1.629Z"/><path d="M13.963,1.889H2.037A2.037,2.037,0,0,0,0,3.926H0v8.148a2.037,2.037,0,0,0,2.037,2.037H13.963A2.037,2.037,0,0,0,16,12.074V3.926A2.037,2.037,0,0,0,13.963,1.889Zm-12.333,5H14.37v5.185a.407.407,0,0,1-.407.407H2.037a.407.407,0,0,1-.407-.407Zm0-2.963a.408.408,0,0,1,.407-.408H13.963a.408.408,0,0,1,.407.408v.963H1.63Z"/></svg>