<svg width="16" height="16" viewBox="0 0 16 16" fill="none" xmlns="http://www.w3.org/2000/svg">
<path d="M15.428 0H2.286C2.13447 -2.31568e-07 1.98913 0.0601266 1.88189 0.167181C1.77465 0.274236 1.71426 0.419469 1.714 0.571V3H0V3.857H1.714V7.571H0V8.429H1.714V12.143H0V13H1.714V15.429C1.71426 15.5805 1.77465 15.7258 1.88189 15.8328C1.98913 15.9399 2.13447 16 2.286 16H15.428C15.5795 16 15.7249 15.9399 15.8321 15.8328C15.9394 15.7258 15.9997 15.5805 16 15.429V0.571C15.9997 0.419469 15.9394 0.274236 15.8321 0.167181C15.7249 0.0601266 15.5795 -2.31568e-07 15.428 0V0ZM8.857 4.73C9.17508 4.73355 9.48499 4.83113 9.74772 5.01045C10.0105 5.18977 10.2143 5.44281 10.3335 5.73772C10.4527 6.03262 10.482 6.35621 10.4177 6.66774C10.3534 6.97927 10.1984 7.26481 9.97215 7.48842C9.74591 7.71202 9.45857 7.86369 9.14631 7.92434C8.83405 7.98498 8.51083 7.95188 8.21734 7.82921C7.92385 7.70653 7.67321 7.49977 7.49699 7.23495C7.32076 6.97013 7.22682 6.6591 7.227 6.341C7.23329 5.91241 7.40764 5.50343 7.7125 5.20212C8.01737 4.9008 8.42836 4.73126 8.857 4.73ZM11.857 11.27H5.857V10.222C5.857 9.291 7.857 8.768 8.857 8.768C9.857 8.768 11.857 9.291 11.857 10.222V11.27Z" fill="black"/>
</svg>
