<svg width="16" height="16" viewBox="0 0 16 16" fill="none" xmlns="http://www.w3.org/2000/svg">
<path d="M12.2317 9.07236C12.3366 8.95012 12.4043 8.80037 12.4268 8.64084C12.4492 8.48132 12.4255 8.31871 12.3583 8.17227C12.2912 8.02583 12.1835 7.90168 12.0479 7.81455C11.9124 7.72741 11.7547 7.68092 11.5936 7.68059H9.76929C9.77529 7.65659 9.78029 7.6326 9.78429 7.6076L10.8475 1.09865C10.8761 0.917844 10.8451 0.73262 10.759 0.571049C10.6729 0.409479 10.5364 0.280367 10.3703 0.203279C10.2042 0.126191 10.0175 0.105328 9.8385 0.143851C9.65947 0.182375 9.49789 0.278185 9.37823 0.416763L3.76831 6.92271C3.66337 7.04496 3.59566 7.19471 3.57322 7.35423C3.55078 7.51376 3.57453 7.67637 3.64167 7.82281C3.70882 7.96925 3.81653 8.09339 3.95206 8.18053C4.0876 8.26767 4.24527 8.31416 4.40642 8.31449H6.23071C6.22418 8.33848 6.21917 8.36285 6.21571 8.38748L5.15254 14.8964C5.12271 15.0776 5.15295 15.2635 5.23864 15.4259C5.32432 15.5883 5.46076 15.7182 5.62717 15.7959C5.79358 15.8736 5.98083 15.8948 6.16039 15.8562C6.33995 15.8177 6.50197 15.7215 6.62178 15.5823L12.2317 9.07236Z" fill="black"/>
</svg>
