<svg width="16" height="16" viewBox="0 0 16 16" fill="none" xmlns="http://www.w3.org/2000/svg">
<path d="M4.3786 15.6942C4.25367 15.8396 4.08461 15.9401 3.89723 15.9804C3.70984 16.0207 3.51442 15.9985 3.34079 15.9174C3.16715 15.8362 3.02483 15.7005 2.93554 15.5309C2.84625 15.3613 2.8149 15.1671 2.84626 14.978L3.89749 8.55016H2.06709C1.89916 8.54995 1.73482 8.50159 1.59353 8.41082C1.45225 8.32005 1.33995 8.19067 1.26995 8.03802C1.19995 7.88537 1.17517 7.71585 1.19857 7.54955C1.22196 7.38325 1.29254 7.22715 1.40194 7.09974L7.25624 0.305773C7.38117 0.160413 7.55023 0.0599187 7.73761 0.0196251C7.925 -0.0206685 8.12041 0.00145088 8.29405 0.0826082C8.46769 0.163766 8.61001 0.299504 8.6993 0.469113C8.78859 0.638721 8.81994 0.832886 8.78858 1.02198L7.73935 7.44984H9.56775C9.73568 7.45005 9.90002 7.49841 10.0413 7.58918C10.1826 7.67995 10.2949 7.80933 10.3649 7.96198C10.4349 8.11462 10.4597 8.28415 10.4363 8.45045C10.4129 8.61675 10.3423 8.77285 10.2329 8.90026L4.3786 15.6942ZM13.9737 5.89939C13.5742 6.29893 13.0652 6.57101 12.5111 6.68124C11.957 6.79147 11.3826 6.7349 10.8606 6.51867C10.3386 6.30244 9.89247 5.93628 9.57858 5.46647C9.26469 4.99667 9.09715 4.44433 9.09715 3.87931C9.09715 3.31428 9.26469 2.76194 9.57858 2.29214C9.89247 1.82234 10.3386 1.45617 10.8606 1.23994C11.3826 1.02372 11.957 0.967143 12.5111 1.07737C13.0652 1.1876 13.5742 1.45969 13.9737 1.85922C14.5092 2.39511 14.81 3.12171 14.81 3.87931C14.81 4.63691 14.5092 5.3635 13.9737 5.89939ZM13.0415 2.79149C12.836 2.58652 12.5766 2.44386 12.2935 2.37996C12.0103 2.31607 11.7148 2.33355 11.4412 2.43039L13.3996 4.39896C13.4984 4.12431 13.5172 3.82724 13.4538 3.54232C13.3904 3.2574 13.2475 2.99633 13.0415 2.78949V2.79149ZM12.4704 5.32923L10.505 3.36066C10.4079 3.6343 10.3903 3.92985 10.4542 4.21308C10.5181 4.49632 10.6609 4.75567 10.866 4.96112C11.0714 5.1677 11.3312 5.31176 11.6152 5.37657C11.8992 5.44137 12.1957 5.42426 12.4704 5.32723V5.32923Z" fill="black"/>
</svg>
