<svg width="16" height="16" viewBox="0 0 16 16" fill="none" xmlns="http://www.w3.org/2000/svg">
<path d="M4.37854 15.6942C4.2536 15.8396 4.08455 15.9401 3.89717 15.9804C3.70978 16.0207 3.51436 15.9985 3.34073 15.9174C3.16709 15.8362 3.02477 15.7005 2.93548 15.5309C2.84619 15.3613 2.81484 15.1671 2.8462 14.978L3.89743 8.55016H2.06703C1.8991 8.54995 1.73476 8.50159 1.59347 8.41082C1.45219 8.32005 1.33989 8.19067 1.26989 8.03802C1.19988 7.88537 1.17511 7.71585 1.19851 7.54955C1.2219 7.38325 1.29248 7.22715 1.40188 7.09974L7.25618 0.305773C7.38111 0.160413 7.55017 0.0599187 7.73755 0.0196251C7.92493 -0.0206685 8.12035 0.00145088 8.29399 0.0826082C8.46763 0.163766 8.60995 0.299504 8.69924 0.469113C8.78853 0.638721 8.81988 0.832886 8.78852 1.02198L7.73928 7.44984H9.56769C9.73562 7.45005 9.89996 7.49841 10.0412 7.58918C10.1825 7.67995 10.2948 7.80933 10.3648 7.96198C10.4348 8.11463 10.4596 8.28415 10.4362 8.45045C10.4128 8.61675 10.3422 8.77285 10.2328 8.90026L4.37854 15.6942ZM13.9737 5.89939C13.5742 6.29893 13.0652 6.57101 12.511 6.68124C11.9569 6.79147 11.3825 6.7349 10.8605 6.51867C10.3386 6.30244 9.89241 5.93628 9.57852 5.46647C9.26463 4.99667 9.09709 4.44433 9.09709 3.87931C9.09709 3.31428 9.26463 2.76194 9.57852 2.29214C9.89241 1.82234 10.3386 1.45617 10.8605 1.23994C11.3825 1.02372 11.9569 0.967143 12.511 1.07737C13.0652 1.1876 13.5742 1.45969 13.9737 1.85922C14.5091 2.39511 14.8099 3.12171 14.8099 3.87931C14.8099 4.63691 14.5091 5.3635 13.9737 5.89939V5.89939ZM13.0415 2.79149C12.8359 2.58652 12.5766 2.44386 12.2934 2.37996C12.0102 2.31607 11.7148 2.33355 11.4411 2.43039L13.3995 4.39896C13.4983 4.12431 13.5172 3.82724 13.4538 3.54232C13.3904 3.2574 13.2474 2.99633 13.0415 2.78949V2.79149ZM12.4703 5.32923L10.5049 3.36066C10.4078 3.6343 10.3902 3.92985 10.4541 4.21308C10.518 4.49632 10.6608 4.75567 10.866 4.96112V4.96112C11.0714 5.1677 11.3311 5.31176 11.6151 5.37657C11.8991 5.44137 12.1957 5.42426 12.4703 5.32723V5.32923Z" fill="black"/>
</svg>
