<svg id="Layer_1" data-name="Layer 1" xmlns="http://www.w3.org/2000/svg" viewBox="0 0 16 16"><title>flash-off</title><path d="M4.381,15.692a.878.878,0,0,1-1.532-.716L3.9,8.55H2.07A.878.878,0,0,1,1.405,7.1L7.258.308h0a.878.878,0,0,1,1.532.716L7.741,7.45H9.569A.878.878,0,0,1,10.234,8.9ZM13.974,5.9a2.856,2.856,0,1,1,0-4.039A2.857,2.857,0,0,1,13.974,5.9Zm-.932-3.107a1.539,1.539,0,0,0-1.6-.361L13.4,4.4A1.541,1.541,0,0,0,13.042,2.791Zm-.571,2.537L10.506,3.362a1.537,1.537,0,0,0,.361,1.6h0A1.539,1.539,0,0,0,12.471,5.328Z"/></svg>