<svg width="16" height="16" viewBox="0 0 16 16" fill="none" xmlns="http://www.w3.org/2000/svg">
<path d="M15.623 2.72498H0.377C0.277013 2.72498 0.181122 2.76468 0.110421 2.83535C0.0397195 2.90603 0 3.00188 0 3.10183L0 12.8981C0 12.9981 0.0397195 13.0939 0.110421 13.1646C0.181122 13.2353 0.277013 13.275 0.377 13.275H15.623C15.723 13.275 15.8189 13.2353 15.8896 13.1646C15.9603 13.0939 16 12.9981 16 12.8981V3.10183C16 3.00188 15.9603 2.90603 15.8896 2.83535C15.8189 2.76468 15.723 2.72498 15.623 2.72498ZM14.869 6.46856H14.14C13.6402 6.46856 13.1609 6.27017 12.8075 5.91701C12.454 5.56386 12.2553 5.08484 12.255 4.58527V3.85555H14.869V6.46856ZM14.869 12.1444H12.255V11.4147C12.2553 10.9151 12.454 10.4361 12.8075 10.0829C13.1609 9.72978 13.6402 9.53139 14.14 9.53139H14.869V12.1444ZM1.131 9.53139H1.86C2.35976 9.53139 2.83907 9.72978 3.19254 10.0829C3.54602 10.4361 3.74473 10.9151 3.745 11.4147V12.1444H1.131V9.53139ZM1.131 6.46856V3.85555H3.745V4.58527C3.74473 5.08484 3.54602 5.56386 3.19254 5.91701C2.83907 6.27017 2.35976 6.46856 1.86 6.46856H1.131ZM7.291 10.1142C6.08 8.94762 5.278 8.17291 5.278 7.21527C5.27233 7.02217 5.30576 6.82992 5.37629 6.65006C5.44682 6.4702 5.55299 6.30644 5.68842 6.16863C5.82386 6.03082 5.98576 5.9218 6.16441 5.84811C6.34305 5.77442 6.53476 5.73759 6.728 5.73983C6.95608 5.73889 7.1814 5.78968 7.387 5.88837C7.5926 5.98707 7.77313 6.13109 7.915 6.30962C8.06162 6.13702 8.24285 5.99711 8.44698 5.89896C8.65111 5.80081 8.87358 5.7466 9.1 5.73983C9.29252 5.74034 9.48302 5.77904 9.66047 5.85367C9.83791 5.92831 9.99878 6.03741 10.1337 6.17465C10.2687 6.31188 10.3751 6.47453 10.4467 6.65316C10.5183 6.83179 10.5538 7.02285 10.551 7.21527C10.551 8.1889 9.717 8.97461 8.438 10.1791L8.309 10.3021L8.122 10.448C8.05365 10.5013 7.96906 10.5295 7.88241 10.5279C7.79575 10.5262 7.71228 10.4949 7.646 10.439L7.486 10.2991L7.291 10.1142Z" fill="black"/>
</svg>
