<svg width="16" height="16" viewBox="0 0 16 16" fill="none" xmlns="http://www.w3.org/2000/svg">
<path d="M15.623 2.72501H0.377C0.277013 2.72501 0.181122 2.76471 0.110421 2.83538C0.0397195 2.90606 0 3.00191 0 3.10186L0 12.8981C0 12.9981 0.0397195 13.094 0.110421 13.1646C0.181122 13.2353 0.277013 13.275 0.377 13.275H15.623C15.723 13.275 15.8189 13.2353 15.8896 13.1646C15.9603 13.094 16 12.9981 16 12.8981V3.10186C16 3.00191 15.9603 2.90606 15.8896 2.83538C15.8189 2.76471 15.723 2.72501 15.623 2.72501ZM14.869 6.46859H14.14C13.6402 6.46859 13.1609 6.2702 12.8075 5.91705C12.454 5.56389 12.2553 5.08487 12.255 4.5853V3.85558H14.869V6.46859ZM14.869 12.1444H12.255V11.4147C12.2553 10.9151 12.454 10.4361 12.8075 10.083C13.1609 9.72981 13.6402 9.53142 14.14 9.53142H14.869V12.1444ZM1.131 9.53142H1.86C2.35976 9.53142 2.83907 9.72981 3.19254 10.083C3.54602 10.4361 3.74473 10.9151 3.745 11.4147V12.1444H1.131V9.53142ZM1.131 6.46859V3.85558H3.745V4.5853C3.74473 5.08487 3.54602 5.56389 3.19254 5.91705C2.83907 6.2702 2.35976 6.46859 1.86 6.46859H1.131ZM7.291 10.1142C6.08 8.94765 5.278 8.17294 5.278 7.2153C5.27233 7.0222 5.30576 6.82995 5.37629 6.65009C5.44682 6.47023 5.55299 6.30647 5.68842 6.16866C5.82386 6.03085 5.98576 5.92183 6.16441 5.84814C6.34305 5.77445 6.53476 5.73762 6.728 5.73986C6.95608 5.73892 7.1814 5.78971 7.387 5.8884C7.5926 5.9871 7.77313 6.13113 7.915 6.30965C8.06162 6.13705 8.24285 5.99714 8.44698 5.89899C8.65111 5.80084 8.87358 5.74663 9.1 5.73986C9.29252 5.74037 9.48302 5.77907 9.66047 5.8537C9.83791 5.92834 9.99878 6.03744 10.1337 6.17468C10.2687 6.31191 10.3751 6.47456 10.4467 6.65319C10.5183 6.83182 10.5538 7.02288 10.551 7.2153C10.551 8.18893 9.717 8.97464 8.438 10.1792L8.309 10.3021L8.122 10.4481C8.05365 10.5014 7.96906 10.5295 7.88241 10.5279C7.79575 10.5263 7.71228 10.4949 7.646 10.4391L7.486 10.2991L7.291 10.1142Z" fill="black"/>
</svg>
