<svg id="Layer_1" data-name="Layer 1" xmlns="http://www.w3.org/2000/svg" viewBox="0 0 16 16">
  <title>giving</title>
  <path d="M15.623,2.723H.377A.377.377,0,0,0,0,3.1v9.8a.377.377,0,0,0,.377.377H15.623A.377.377,0,0,0,16,12.9V3.1A.377.377,0,0,0,15.623,2.723Zm-.754,3.745H14.14a1.885,1.885,0,0,1-1.885-1.884v-.73h2.614Zm0,5.678H12.255v-.73A1.885,1.885,0,0,1,14.14,9.532h.729ZM1.131,9.532H1.86a1.885,1.885,0,0,1,1.885,1.884v.73H1.131Zm0-3.064V3.854H3.745v.73A1.885,1.885,0,0,1,1.86,6.468Zm6.16,3.647v0c-1.211-1.167-2.013-1.942-2.013-2.9A1.434,1.434,0,0,1,6.728,5.739a1.508,1.508,0,0,1,1.187.57A1.618,1.618,0,0,1,9.1,5.739a1.455,1.455,0,0,1,1.451,1.476c0,.974-.834,1.76-2.113,2.965l-.129.123-.187.146h0a.378.378,0,0,1-.476-.009L7.486,10.3Z"/>
</svg>
