<svg id="Layer_1" data-name="Layer 1" xmlns="http://www.w3.org/2000/svg" viewBox="0 0 16 16">
  <path d="M10.553,7.193c0,.948-.807,1.712-2.045,2.884l-.125.119-.172.136a.378.378,0,0,1-.478-.009h0L7.585,10.2l-.19-.184C6.224,8.876,5.447,8.123,5.447,7.193a1.392,1.392,0,0,1,1.4-1.436A1.455,1.455,0,0,1,8,6.312a1.559,1.559,0,0,1,1.149-.555A1.412,1.412,0,0,1,10.553,7.193Z"/>
  <path d="M.483,13.219a.38.38,0,0,1-.38-.38V3.08a.38.38,0,0,1,.38-.38H15.517a.38.38,0,0,1,.38.38v9.759a.38.38,0,0,1-.38.38Zm13.631-3.076a1.326,1.326,0,0,0-1.324,1.325v.971l2.326.02.02-2.3ZM.864,9.363l1.021.02a2.088,2.088,0,0,1,2.086,2.085v.971l8.038.02.019-.991a2.088,2.088,0,0,1,2.086-2.085h1l.02-2.766L14.114,6.6a2.088,2.088,0,0,1-2.086-2.085V3.48L3.99,3.46,3.971,4.512A2.088,2.088,0,0,1,1.885,6.6H.864Zm0,3.076,2.325.02.02-.991a1.326,1.326,0,0,0-1.324-1.325H.864ZM12.79,4.512a1.326,1.326,0,0,0,1.324,1.325h1l.02-2.357L12.79,3.46ZM.864,5.817l1.021.02A1.326,1.326,0,0,0,3.209,4.512V3.48L.864,3.46Z"/>
</svg>
