<svg id="Layer_1" data-name="Layer 1" xmlns="http://www.w3.org/2000/svg" viewBox="0 0 16 16">
  <title>globe</title>
  <path d="M8,0a8,8,0,1,0,8,8A8,8,0,0,0,8,0Zm5.743,5.368H11.851a11.451,11.451,0,0,0-.805-2.775c-.026-.057-.052-.114-.079-.17A6.341,6.341,0,0,1,13.743,5.368ZM6.49,3.284c.559-1.242,1.158-1.6,1.51-1.6s.951.358,1.51,1.6a9.484,9.484,0,0,1,.63,2.084H5.86A9.484,9.484,0,0,1,6.49,3.284ZM1.819,9.305A6.369,6.369,0,0,1,1.684,8a6.292,6.292,0,0,1,.071-.947H3.964Q3.937,7.52,3.937,8c0,.443.017.879.051,1.3Zm.616,1.685H4.214a11.131,11.131,0,0,0,.74,2.417c.026.057.052.114.079.17A6.354,6.354,0,0,1,2.435,10.99Zm2.519-8.4a11.451,11.451,0,0,0-.8,2.775H2.257A6.338,6.338,0,0,1,5.034,2.423C5.006,2.479,4.98,2.536,4.954,2.593ZM9.51,12.716c-.559,1.242-1.158,1.6-1.51,1.6s-.951-.358-1.51-1.6a9.072,9.072,0,0,1-.556-1.726h4.132A9.072,9.072,0,0,1,9.51,12.716Zm.813-3.411H5.678c-.037-.42-.057-.856-.057-1.3q0-.485.03-.947h4.7q.03.462.03.947C10.379,8.449,10.359,8.885,10.323,9.305Zm.644,4.272c.027-.056.053-.113.079-.17a11.076,11.076,0,0,0,.74-2.417h1.779A6.354,6.354,0,0,1,10.967,13.577Zm1.046-4.272c.033-.426.05-.862.05-1.3q0-.48-.026-.947h2.208A6.292,6.292,0,0,1,14.316,8a6.369,6.369,0,0,1-.135,1.3Z"/>
</svg>
