<svg id="Layer_1" data-name="Layer 1" xmlns="http://www.w3.org/2000/svg" viewBox="0 0 16 16">
  <title>groups</title>
  <g>
    <path d="M8,11.9a2.051,2.051,0,1,0,2.05,2.051A2.05,2.05,0,0,0,8,11.9Z"/>
    <path d="M1.446,8.209a.418.418,0,1,0-.835,0,6.97,6.97,0,0,0,3.053,5.77.417.417,0,1,0,.47-.69A6.137,6.137,0,0,1,1.446,8.209Z"/>
    <path d="M14.971,7.791a.418.418,0,0,0-.417.418,6.137,6.137,0,0,1-2.688,5.08.417.417,0,0,0,.47.69,6.97,6.97,0,0,0,3.053-5.77A.418.418,0,0,0,14.971,7.791Z"/>
    <path d="M4.7,1.8a6.148,6.148,0,0,1,6.6,0,.417.417,0,1,0,.448-.7,6.982,6.982,0,0,0-7.495,0,.417.417,0,0,0,.449.7Z"/>
    <circle cx="2.669" cy="4.928" r="2.05"/>
    <path d="M13.331,6.978a2.05,2.05,0,1,0-2.05-2.05A2.05,2.05,0,0,0,13.331,6.978Z"/>
  </g>
</svg>
