<svg id="Layer_1" data-name="Layer 1" xmlns="http://www.w3.org/2000/svg" viewBox="0 0 16 16">
  <title>home-o</title>
  <path d="M14.832,5.84l-6-5.518a1.226,1.226,0,0,0-1.656,0l-6,5.518a1.224,1.224,0,0,0-.4.9v8.036A1.224,1.224,0,0,0,2,16H5.109a1.224,1.224,0,0,0,1.223-1.223V11.621a1.668,1.668,0,1,1,3.336,0v3.156A1.224,1.224,0,0,0,10.891,16h3.114a1.224,1.224,0,0,0,1.223-1.223V6.741A1.224,1.224,0,0,0,14.832,5.84Zm-.271,8.937a.556.556,0,0,1-.556.556H10.891a.556.556,0,0,1-.556-.556V11.621a2.335,2.335,0,0,0-4.67,0v3.156a.556.556,0,0,1-.556.556H2a.556.556,0,0,1-.556-.556V6.741a.556.556,0,0,1,.18-.409L7.624.814a.554.554,0,0,1,.752,0l6.005,5.518a.556.556,0,0,1,.18.409Z"/>
</svg>
