<svg width="16" height="16" viewBox="0 0 16 16" fill="none" xmlns="http://www.w3.org/2000/svg">
<path d="M14.8949 6.00008L8.62808 0.245129C8.45691 0.0875011 8.2327 0 7.99999 0C7.76728 0 7.54308 0.0875011 7.37191 0.245129L1.10504 6.00008C1.01046 6.08717 0.934965 6.19291 0.883323 6.31064C0.83168 6.42837 0.805009 6.55552 0.804995 6.68408V15.07C0.804732 15.192 0.828544 15.3129 0.87507 15.4257C0.921595 15.5386 0.989918 15.6411 1.07613 15.7275C1.16234 15.8139 1.26475 15.8824 1.37748 15.9292C1.49022 15.9759 1.61107 16 1.73312 16H4.98257C5.22873 16 5.4648 15.9022 5.63886 15.7282C5.81292 15.5542 5.9107 15.3181 5.9107 15.072V11.779C5.9107 11.225 6.13082 10.6937 6.52264 10.3019C6.91446 9.91014 7.44588 9.69005 7.99999 9.69005C8.55411 9.69005 9.08553 9.91014 9.47734 10.3019C9.86916 10.6937 10.0893 11.225 10.0893 11.779V15.072C10.0893 15.3181 10.1871 15.5542 10.3611 15.7282C10.5352 15.9022 10.7713 16 11.0174 16H14.2669C14.5129 15.9997 14.7489 15.9019 14.9229 15.7279C15.0969 15.5539 15.1947 15.318 15.195 15.072V6.68608C15.1953 6.55719 15.1687 6.42965 15.1171 6.31155C15.0654 6.19346 14.9898 6.08739 14.8949 6.00008Z" fill="black"/>
</svg>
