<svg width="16" height="16" viewBox="0 0 16 16" fill="none" xmlns="http://www.w3.org/2000/svg">
<path d="M14.8291 5.8399L8.82991 0.32185C8.60388 0.114828 8.30851 0 8.00202 0C7.69554 0 7.40017 0.114828 7.17414 0.32185L1.17497 5.8399C1.04962 5.95404 0.949341 6.09297 0.880494 6.2479C0.811647 6.40283 0.775732 6.57037 0.775024 6.73991V14.776C0.775024 15.1006 0.903963 15.4119 1.13348 15.6415C1.36299 15.871 1.67427 16 1.99885 16H5.10742C5.43166 15.9997 5.74254 15.8708 5.9718 15.6415C6.20107 15.4122 6.32999 15.1013 6.33026 14.777V11.621C6.33026 11.1786 6.50597 10.7543 6.81873 10.4415C7.1315 10.1287 7.5557 9.95294 7.99802 9.95294C8.44034 9.95294 8.86455 10.1287 9.17732 10.4415C9.49008 10.7543 9.66579 11.1786 9.66579 11.621V14.777C9.66606 15.1013 9.79498 15.4122 10.0242 15.6415C10.2535 15.8708 10.5644 15.9997 10.8886 16H14.0022C14.3264 15.9997 14.6373 15.8708 14.8666 15.6415C15.0958 15.4122 15.2248 15.1013 15.225 14.777V6.74091C15.225 6.5715 15.1897 6.40395 15.1216 6.24885C15.0534 6.09376 14.9538 5.95451 14.8291 5.8399ZM14.5581 14.777C14.5581 14.9245 14.4995 15.0659 14.3953 15.1701C14.291 15.2744 14.1496 15.333 14.0022 15.333H10.8886C10.7412 15.333 10.5998 15.2744 10.4955 15.1701C10.3913 15.0659 10.3327 14.9245 10.3327 14.777V11.621C10.3327 11.0017 10.0867 10.4077 9.64889 9.96985C9.21105 9.53195 8.61722 9.28594 7.99802 9.28594C7.37883 9.28594 6.785 9.53195 6.34716 9.96985C5.90932 10.4077 5.66335 11.0017 5.66335 11.621V14.777C5.66335 14.9245 5.60478 15.0659 5.50052 15.1701C5.39627 15.2744 5.25486 15.333 5.10742 15.333H1.99885C1.85142 15.333 1.71001 15.2744 1.60576 15.1701C1.5015 15.0659 1.44293 14.9245 1.44293 14.777V6.74091C1.44301 6.66399 1.45905 6.58793 1.49003 6.51753C1.52101 6.44713 1.56625 6.38392 1.62291 6.33191L7.62208 0.813855C7.72442 0.719257 7.85866 0.66672 7.99802 0.66672C8.13738 0.66672 8.27162 0.719257 8.37397 0.813855L14.3781 6.33191C14.4348 6.38392 14.48 6.44713 14.511 6.51753C14.542 6.58793 14.558 6.66399 14.5581 6.74091V14.777Z" fill="black"/>
</svg>
