<svg width="16" height="16" viewBox="0 0 16 16" fill="none" xmlns="http://www.w3.org/2000/svg">
<path d="M14.895 6.00008L8.62814 0.245129C8.45697 0.0875011 8.23277 0 8.00005 0C7.76734 0 7.54314 0.0875011 7.37197 0.245129L1.1051 6.00008C1.01052 6.08717 0.935026 6.19291 0.883384 6.31064C0.831741 6.42837 0.80507 6.55552 0.805056 6.68408V15.07C0.804793 15.192 0.828605 15.3129 0.875131 15.4257C0.921656 15.5386 0.989979 15.6411 1.07619 15.7275C1.1624 15.8139 1.26481 15.8824 1.37754 15.9292C1.49028 15.9759 1.61113 16 1.73318 16H4.98264C5.22879 16 5.46486 15.9022 5.63892 15.7282C5.81298 15.5542 5.91076 15.3181 5.91076 15.072V11.779C5.91076 11.225 6.13089 10.6937 6.5227 10.3019C6.91452 9.91014 7.44594 9.69005 8.00005 9.69005C8.55417 9.69005 9.08559 9.91014 9.47741 10.3019C9.86922 10.6937 10.0893 11.225 10.0893 11.779V15.072C10.0893 15.3181 10.1871 15.5542 10.3612 15.7282C10.5352 15.9022 10.7713 16 11.0175 16H14.2669C14.513 15.9997 14.7489 15.9019 14.9229 15.7279C15.0969 15.5539 15.1948 15.318 15.1951 15.072V6.68608C15.1953 6.55719 15.1688 6.42965 15.1171 6.31155C15.0655 6.19346 14.9898 6.08739 14.895 6.00008Z" fill="black"/>
</svg>
