<svg width="16" height="16" viewBox="0 0 16 16" fill="none" xmlns="http://www.w3.org/2000/svg">
<path d="M14.7748 0.0678873L0.545335 5.95644C0.383813 6.02391 0.245851 6.13765 0.148814 6.28336C0.0517769 6.42906 0 6.60022 0 6.7753C0 6.95037 0.0517769 7.12153 0.148814 7.26724C0.245851 7.41295 0.383813 7.52669 0.545335 7.59415L6.0997 9.90215L8.41227 15.4546C8.47972 15.6161 8.59344 15.7541 8.73912 15.8512C8.88481 15.9482 9.05593 16 9.23097 16C9.40601 16 9.57714 15.9482 9.72282 15.8512C9.8685 15.7541 9.98223 15.6161 10.0497 15.4546L15.9321 1.22539C15.9994 1.0635 16.0172 0.885269 15.9831 0.713283C15.949 0.541296 15.8647 0.383301 15.7407 0.259323C15.6168 0.135346 15.4588 0.050969 15.2869 0.0168881C15.1149 -0.0171928 14.9367 0.000556912 14.7748 0.0678873V0.0678873Z" fill="black"/>
</svg>
