<svg id="Layer_1" data-name="Layer 1" xmlns="http://www.w3.org/2000/svg" viewBox="0 0 16 16">
  <title>message-circle</title>
  <g>
    <path d="M8,7.158A.842.842,0,1,0,8.842,8,.842.842,0,0,0,8,7.158Z"/>
    <path d="M5.053,7.158A.842.842,0,1,0,5.9,8,.842.842,0,0,0,5.053,7.158Z"/>
    <path d="M16,8a8,8,0,1,0-3.642,6.71l3.138.757-.819-3.058A7.972,7.972,0,0,0,16,8Zm-2.864,5.165-1.124-.271-.314.227A6.317,6.317,0,0,1,1.684,8h0a6.316,6.316,0,1,1,11.4,3.748l-.241.326Z"/>
    <circle cx="10.947" cy="8" r="0.842"/>
  </g>
</svg>
