<svg id="Layer_1" data-name="Layer 1" xmlns="http://www.w3.org/2000/svg" viewBox="0 0 16 16"><title>money-bill</title><path d="M8.3,9.9V9.387a1.083,1.083,0,0,0,.633-.3.785.785,0,0,0,.214-.548.637.637,0,0,0-.11-.378A.908.908,0,0,0,8.765,7.9a1.574,1.574,0,0,0-.349-.179c-.123-.047-.239-.09-.349-.13A2.307,2.307,0,0,1,7.8,7.475a.175.175,0,0,1-.1-.15c0-.152.114-.229.343-.229a.924.924,0,0,1,.359.065h0a1.5,1.5,0,0,1,.334.184l.363-.418a1.441,1.441,0,0,0-.348-.264A1.211,1.211,0,0,0,8.3,6.519V6.1H7.808v.429a1.065,1.065,0,0,0-.6.273.721.721,0,0,0-.219.538.667.667,0,0,0,.1.384,1,1,0,0,0,.269.259,1.94,1.94,0,0,0,.354.174c.126.046.242.091.348.134a1.4,1.4,0,0,1,.269.135.2.2,0,0,1,.11.174.184.184,0,0,1-.095.164.513.513,0,0,1-.274.06,1.293,1.293,0,0,1-.453-.079,3.192,3.192,0,0,1-.448-.23l-.319.5a1.557,1.557,0,0,0,.448.269,1.959,1.959,0,0,0,.5.125v.5Z"/><path d="M15.238,2.667H.762A.762.762,0,0,0,0,3.429v9.142a.762.762,0,0,0,.762.762H15.238A.762.762,0,0,0,16,12.571V3.429A.762.762,0,0,0,15.238,2.667ZM14.476,6.1h-.762a1.142,1.142,0,0,1-1.142-1.143V4.19h1.9ZM4.952,8a3.048,3.048,0,0,1,6.1,0h0a3.048,3.048,0,0,1-6.1,0ZM3.429,4.191v.761A1.143,1.143,0,0,1,2.286,6.1H1.524v-1.9ZM1.524,9.9h.762a1.143,1.143,0,0,1,1.143,1.143v.761h-1.9ZM12.572,11.81v-.762A1.142,1.142,0,0,1,13.714,9.9h.762V11.81Z"/></svg>