<svg width="16" height="16" viewBox="0 0 16 16" fill="none" xmlns="http://www.w3.org/2000/svg">
<path d="M15.2398 6.70227L1.89966 0.440413C1.65909 0.327066 1.38983 0.289332 1.12739 0.332192C0.864953 0.375051 0.62167 0.496489 0.42964 0.680484C0.235597 0.861297 0.101082 1.09684 0.0439318 1.35587C-0.0132184 1.61491 0.00969591 1.8852 0.109636 2.13091L1.82666 6.4662C1.88509 6.61299 1.98211 6.74124 2.10745 6.83739C2.23279 6.93353 2.38178 6.99399 2.53866 7.01236L7.91972 7.63255C8.01316 7.63942 8.10053 7.6814 8.1643 7.75005C8.22806 7.8187 8.26351 7.90895 8.26351 8.00266C8.26351 8.09637 8.22806 8.18661 8.1643 8.25526C8.10053 8.32391 8.01316 8.36589 7.91972 8.37277L2.46766 8.99295C2.30853 9.01096 2.1574 9.07235 2.03078 9.17043C1.90416 9.26851 1.80691 9.39951 1.74965 9.54911L0.089636 13.8944C-0.00682502 14.1406 -0.0259578 14.4104 0.0347893 14.6677C0.0955363 14.9251 0.233276 15.1578 0.42964 15.3348C0.671974 15.559 0.989604 15.6839 1.31965 15.6849C1.52043 15.687 1.71895 15.6425 1.89966 15.5549L15.2498 9.08298C15.4774 8.97674 15.6693 8.80684 15.8024 8.59382C15.9355 8.3808 16.0041 8.13378 15.9998 7.88262C16.0016 7.63327 15.9306 7.38881 15.7956 7.17917C15.6607 6.96952 15.4675 6.8038 15.2398 6.70227Z" fill="black"/>
</svg>
