<svg width="16" height="16" viewBox="0 0 16 16" fill="none" xmlns="http://www.w3.org/2000/svg">
<path d="M1.39433 15.6799C1.16768 15.6787 0.944711 15.6226 0.744526 15.5164C0.54434 15.4103 0.372908 15.2572 0.244921 15.0704C0.116933 14.8836 0.0362043 14.6685 0.00965319 14.4437C-0.016898 14.2189 0.0115196 13.991 0.0924709 13.7796L2.35771 7.88846L0.1125 2.22838C0.00931781 1.96862 -0.0133298 1.68389 0.0474947 1.41112C0.108319 1.13835 0.249809 0.890129 0.453609 0.698656C0.65741 0.507183 0.914117 0.381294 1.19043 0.337319C1.46674 0.293343 1.74991 0.333311 2.0032 0.452038L15.1971 6.63122C15.4359 6.74327 15.638 6.92056 15.7801 7.14257C15.9222 7.36458 15.9984 7.62224 16 7.88573C16.0015 8.14921 15.9284 8.40776 15.789 8.63145C15.6495 8.85513 15.4495 9.03481 15.2121 9.1497L2.00521 15.5389C1.81485 15.6314 1.60601 15.6796 1.39433 15.6799V15.6799ZM3.58747 8.57859L1.39634 14.2797L13.1852 8.57859H3.58747ZM3.58046 7.18632H13.0941L1.41036 1.71428L3.58046 7.18632Z" fill="black"/>
</svg>
