<svg width="16" height="16" viewBox="0 0 16 16" fill="none" xmlns="http://www.w3.org/2000/svg">
<path d="M15.2398 6.70221L1.89966 0.440352C1.65909 0.327005 1.38983 0.289271 1.12739 0.332131C0.864953 0.37499 0.62167 0.496428 0.42964 0.680423C0.235597 0.861236 0.101082 1.09678 0.0439318 1.35581C-0.0132184 1.61485 0.00969591 1.88514 0.109636 2.13085L1.82666 6.46614C1.88509 6.61293 1.98211 6.74118 2.10745 6.83733C2.23279 6.93347 2.38178 6.99393 2.53866 7.0123L7.91972 7.63249C8.01316 7.63936 8.10053 7.68134 8.1643 7.74999C8.22806 7.81864 8.26351 7.90888 8.26351 8.0026C8.26351 8.09631 8.22806 8.18655 8.1643 8.2552C8.10053 8.32385 8.01316 8.36583 7.91972 8.3727L2.46766 8.99289C2.30853 9.01089 2.1574 9.07229 2.03078 9.17037C1.90416 9.26845 1.80691 9.39945 1.74965 9.54905L0.089636 13.8943C-0.00682502 14.1405 -0.0259578 14.4103 0.0347893 14.6677C0.0955363 14.925 0.233276 15.1577 0.42964 15.3348C0.671974 15.5589 0.989604 15.6838 1.31965 15.6849C1.52043 15.6869 1.71895 15.6424 1.89966 15.5548L15.2498 9.08292C15.4774 8.97667 15.6693 8.80678 15.8024 8.59376C15.9355 8.38074 16.0041 8.13372 15.9998 7.88256C16.0016 7.63321 15.9306 7.38875 15.7956 7.1791C15.6607 6.96946 15.4675 6.80374 15.2398 6.70221V6.70221Z" fill="black"/>
</svg>
