<svg width="16" height="16" viewBox="0 0 16 16" fill="none" xmlns="http://www.w3.org/2000/svg">
<path d="M1.39433 15.68C1.16768 15.6788 0.944712 15.6227 0.744526 15.5165C0.54434 15.4103 0.372908 15.2573 0.244921 15.0705C0.116933 14.8836 0.0362043 14.6686 0.00965319 14.4438C-0.016898 14.219 0.0115196 13.9911 0.0924709 13.7796L2.35771 7.88852L0.1125 2.22844C0.00931781 1.96868 -0.0133298 1.68395 0.0474946 1.41118C0.108319 1.13841 0.249809 0.89019 0.453609 0.698717C0.65741 0.507244 0.914117 0.381355 1.19043 0.33738C1.46674 0.293404 1.74991 0.333372 2.0032 0.452099L15.1971 6.63128C15.4359 6.74333 15.638 6.92062 15.7801 7.14263C15.9222 7.36464 15.9984 7.6223 16 7.88579C16.0015 8.14927 15.9284 8.40782 15.789 8.63151C15.6495 8.85519 15.4495 9.03488 15.2121 9.14976L2.00521 15.539C1.81485 15.6314 1.60601 15.6797 1.39433 15.68ZM3.58747 8.57865L1.39634 14.2797L13.1852 8.57865H3.58747ZM3.58046 7.18639H13.0941L1.41036 1.71434L3.58046 7.18639Z" fill="black"/>
</svg>
