<svg id="Layer_1" data-name="Layer 1" xmlns="http://www.w3.org/2000/svg" viewBox="0 0 16 16">
  <title>paste</title>
  <g>
    <rect x="8.174" y="8.522" width="4" height="1.391"/>
    <rect x="8.174" y="10.783" width="4" height="1.391"/>
    <path d="M14.261,4.87H11.478V2.435a1.392,1.392,0,0,0-1.391-1.392H7.261a1.393,1.393,0,0,0-2.7,0H1.739A1.392,1.392,0,0,0,.348,2.435v8.348a1.391,1.391,0,0,0,1.391,1.391H4.522v2.435A1.391,1.391,0,0,0,5.913,16h8.348a1.391,1.391,0,0,0,1.391-1.391V6.261A1.391,1.391,0,0,0,14.261,4.87ZM4.522,6.261v4.522H1.739V2.435H3.478V3.13h4.87V2.435h1.739V4.87H5.913A1.391,1.391,0,0,0,4.522,6.261Zm9.739,8.348H5.913V6.261h8.348Z"/>
  </g>
</svg>
