<svg id="Layer_1" data-name="Layer 1" xmlns="http://www.w3.org/2000/svg" viewBox="0 0 16 16"><title>paste</title><path d="M12.174,9.913h-4V8.522h4Zm0,.87h-4v1.391h4Zm3.478-4.522v8.348A1.391,1.391,0,0,1,14.261,16H5.913a1.391,1.391,0,0,1-1.391-1.391V12.174H1.739A1.391,1.391,0,0,1,.348,10.783V2.435A1.392,1.392,0,0,1,1.739,1.043H4.565a1.393,1.393,0,0,1,2.7,0h2.826a1.392,1.392,0,0,1,1.391,1.392V4.87h2.783A1.391,1.391,0,0,1,15.652,6.261ZM5.913,4.87h4.174V2.435H8.348V3.13H3.478V2.435H1.739v8.348H4.522V6.261A1.391,1.391,0,0,1,5.913,4.87Zm8.348,1.391H5.913v8.348h8.348Z"/></svg>