<svg width="16" height="16" viewBox="0 0 16 16" fill="none" xmlns="http://www.w3.org/2000/svg">
<path d="M2.9 5.19456C2.9 4.6112 3.13179 4.05173 3.54437 3.63923C3.95695 3.22673 4.51652 2.995 5.1 2.995C5.68348 2.995 6.24305 3.22673 6.65563 3.63923C7.06821 4.05173 7.3 4.6112 7.3 5.19456C7.3 5.77792 7.06821 6.33738 6.65563 6.74988C6.24305 7.16238 5.68348 7.39412 5.1 7.39412C4.51652 7.39412 3.95695 7.16238 3.54437 6.74988C3.13179 6.33738 2.9 5.77792 2.9 5.19456V5.19456ZM10.9 7.36912C11.4786 7.36735 12.0334 7.13846 12.4449 6.73174C12.8564 6.32502 13.0916 5.773 13.1 5.19456C13.1 4.6112 12.8682 4.05173 12.4556 3.63923C12.0431 3.22673 11.4835 2.995 10.9 2.995C10.3165 2.995 9.75695 3.22673 9.34437 3.63923C8.93179 4.05173 8.7 4.6112 8.7 5.19456C8.70839 5.773 8.94365 6.32502 9.35513 6.73174C9.7666 7.13846 10.3214 7.36735 10.9 7.36912ZM5.1 8.75384C3.4 8.75384 0 9.64367 0 11.2254V13.005H10.2V11.2254C10.2 9.64367 6.8 8.75384 5.1 8.75384ZM10.9 8.75384H10.2C10.6171 9.02055 10.9627 9.38515 11.2068 9.81591C11.4508 10.2467 11.5858 10.7305 11.6 11.2254V13.005H16V11.2254C16 9.64367 12.6 8.75384 10.9 8.75384V8.75384Z" fill="black"/>
</svg>
