<svg width="16" height="16" viewBox="0 0 16 16" fill="none" xmlns="http://www.w3.org/2000/svg">
<path d="M3.459 5.622C3.4588 5.2798 3.5601 4.94522 3.75007 4.66059C3.94005 4.37596 4.21017 4.15407 4.52626 4.02298C4.84236 3.89188 5.19024 3.85748 5.52589 3.92412C5.86155 3.99076 6.1699 4.15545 6.41194 4.39735C6.65399 4.63926 6.81885 4.94751 6.88568 5.28313C6.95252 5.61874 6.91832 5.96664 6.78741 6.28281C6.6565 6.59899 6.43476 6.86923 6.15024 7.05937C5.86572 7.24951 5.5312 7.351 5.189 7.351C4.73035 7.351 4.29047 7.16887 3.96606 6.84465C3.64165 6.52043 3.45927 6.08065 3.459 5.622V5.622ZM16 1.032V14.968C16 15.2417 15.8913 15.5042 15.6977 15.6977C15.5042 15.8913 15.2417 16 14.968 16H1.032C0.758297 16 0.495803 15.8913 0.302266 15.6977C0.108728 15.5042 0 15.2417 0 14.968L0 1.032C0 0.758297 0.108728 0.495803 0.302266 0.302266C0.495803 0.108728 0.758297 0 1.032 0H14.968C15.2417 0 15.5042 0.108728 15.6977 0.302266C15.8913 0.495803 16 0.758297 16 1.032ZM13.935 2.064H2.064V12.137L9.513 8.216L13.935 10.087V2.064Z" fill="black"/>
</svg>
