<svg id="Layer_1" data-name="Layer 1" xmlns="http://www.w3.org/2000/svg" viewBox="0 0 16 16">
  <g>
    <circle cx="8.798" cy="8.342" r="1.619"/>
    <path d="M14.187,4.286h-8.2A1.848,1.848,0,0,0,4.142,6.132v7.855a1.848,1.848,0,0,0,1.846,1.846h8.2a1.848,1.848,0,0,0,1.846-1.846V6.132A1.848,1.848,0,0,0,14.187,4.286Zm-8.2,1.5h8.2a.347.347,0,0,1,.346.346v6.325L12.811,10.9a1.094,1.094,0,0,0-1.474.005l-1.356,1.24a1.094,1.094,0,0,1-1.478,0l-.341-.311a1.1,1.1,0,0,0-1.5.023l-1.018.988V6.132A.346.346,0,0,1,5.988,5.786Z"/>
    <path d="M3.081,11.531a.506.506,0,0,1-.459-.424l-1.14-7.2a.892.892,0,0,1,.743-1.022L10.4,1.594a.893.893,0,0,1,1.024.75l.022.143a.759.759,0,0,0,.852.631.749.749,0,0,0,.631-.853l-.021-.144A2.4,2.4,0,0,0,10.164.111L1.99,1.406A2.394,2.394,0,0,0,0,4.146l1.14,7.2a2,2,0,0,0,1.83,1.684l.056,0a.75.75,0,0,0,.055-1.5Z"/>
  </g>
</svg>
