<svg id="Layer_1" data-name="Layer 1" xmlns="http://www.w3.org/2000/svg" viewBox="0 0 16 16">
  <g>
    <path d="M8.787,10.1A1.678,1.678,0,1,0,7.11,8.422,1.678,1.678,0,0,0,8.787,10.1Z"/>
    <path d="M14.209,4.023h-8.5a1.793,1.793,0,0,0-1.791,1.79v7.543a1.794,1.794,0,0,0,1.791,1.791h8.5A1.794,1.794,0,0,0,16,13.356V5.813A1.793,1.793,0,0,0,14.209,4.023Zm-8.5,1.026h8.5a.765.765,0,0,1,.764.764V12.7l-2.19-1.977a1.136,1.136,0,0,0-1.528,0L9.85,12.017a1.134,1.134,0,0,1-1.532,0L7.965,11.7a1.135,1.135,0,0,0-1.556.024L4.948,13.137V5.813A.765.765,0,0,1,5.712,5.049Z"/>
    <path d="M2.973,11.6a.792.792,0,0,1-.923-.653l-1-6.336a1.191,1.191,0,0,1,.989-1.362l8.519-1.35a1.14,1.14,0,0,1,1.3.958A.514.514,0,0,0,12.876,2.7,2.168,2.168,0,0,0,10.4.88L1.875,2.23A2.217,2.217,0,0,0,.032,4.766l1,6.336a1.818,1.818,0,0,0,1.79,1.534,1.872,1.872,0,0,0,.332-.03A.514.514,0,1,0,2.973,11.6Z"/>
  </g>
</svg>
