<svg width="16" height="16" viewBox="0 0 16 16" fill="none" xmlns="http://www.w3.org/2000/svg">
<path d="M14.948 2.21503H1.052C0.772992 2.21503 0.505412 2.32582 0.308124 2.52304C0.110835 2.72026 0 2.98775 0 3.26666L0 12.7334C0 13.0123 0.110835 13.2798 0.308124 13.477C0.505412 13.6742 0.772992 13.785 1.052 13.785H14.952C15.2303 13.784 15.4969 13.6727 15.6933 13.4756C15.8897 13.2785 16 13.0116 16 12.7334V3.26666C16 2.98775 15.8892 2.72026 15.6919 2.52304C15.4946 2.32582 15.227 2.21503 14.948 2.21503ZM14.298 11.7437H1.7L5.277 8.00003L7.215 10.0303L10.043 6.6385L14.298 11.7437Z" fill="black"/>
</svg>
