<svg id="Layer_1" data-name="Layer 1" xmlns="http://www.w3.org/2000/svg" viewBox="0 0 16 16"><title>photos-o</title><path d="M7.013,7.819A1.682,1.682,0,1,1,8.694,9.5,1.681,1.681,0,0,1,7.013,7.819ZM16,5.524v8.311a1.71,1.71,0,0,1-1.708,1.708H5.776a1.71,1.71,0,0,1-1.708-1.708V5.524A1.71,1.71,0,0,1,5.776,3.816h8.516A1.71,1.71,0,0,1,16,5.524Zm-10.794,0v7.332l1.268-1.23a1.138,1.138,0,0,1,1.56-.024l.354.323a1.138,1.138,0,0,0,1.536,0l1.408-1.288a1.136,1.136,0,0,1,1.531,0l2,1.8V5.524a.571.571,0,0,0-.57-.57H5.776A.571.571,0,0,0,5.206,5.524ZM3.2,12.152a.733.733,0,0,1-.859-.606L1.153,4.07a1.14,1.14,0,0,1,.946-1.3L10.59,1.423a1.138,1.138,0,0,1,1.3.956l.022.149a.569.569,0,1,0,1.126-.17l-.023-.149A2.275,2.275,0,0,0,10.412.3L1.921,1.643A2.28,2.28,0,0,0,.028,4.248l1.184,7.476A1.875,1.875,0,0,0,3.057,13.3a1.948,1.948,0,0,0,.347-.032.57.57,0,0,0-.208-1.12Z"/></svg>