<svg width="16" height="16" viewBox="0 0 16 16" fill="none" xmlns="http://www.w3.org/2000/svg">
<path d="M8 0C6.41775 0 4.87103 0.469192 3.55544 1.34824C2.23985 2.22729 1.21447 3.47672 0.608967 4.93853C0.00346625 6.40034 -0.15496 8.00887 0.153721 9.56072C0.462403 11.1126 1.22433 12.538 2.34315 13.6569C3.46197 14.7757 4.88743 15.5376 6.43928 15.8463C7.99113 16.155 9.59966 15.9965 11.0615 15.391C12.5233 14.7855 13.7727 13.7602 14.6518 12.4446C15.5308 11.129 16 9.58225 16 8C16 5.87827 15.1571 3.84344 13.6569 2.34315C12.1566 0.842855 10.1217 0 8 0V0ZM10.5 7C10.5 7.49445 10.3534 7.9778 10.0787 8.38893C9.80397 8.80005 9.41353 9.12048 8.95671 9.3097C8.4999 9.49892 7.99723 9.54843 7.51228 9.45196C7.02733 9.3555 6.58187 9.1174 6.23224 8.76777C5.88261 8.41814 5.6445 7.97268 5.54804 7.48773C5.45158 7.00277 5.50109 6.50011 5.6903 6.04329C5.87952 5.58648 6.19996 5.19603 6.61108 4.92133C7.0222 4.64662 7.50555 4.5 8 4.5C8.66127 4.50574 9.29382 4.77098 9.76142 5.23858C10.229 5.70618 10.4943 6.33874 10.5 7ZM8 15.14C6.99183 15.1395 5.99528 14.9247 5.07639 14.5099C4.1575 14.0951 3.33725 13.4898 2.67 12.734C4.13288 11.4169 6.03159 10.6882 8 10.6882C9.96842 10.6882 11.8671 11.4169 13.33 12.734C12.6628 13.4898 11.8425 14.0951 10.9236 14.5099C10.0047 14.9247 9.00818 15.1395 8 15.14V15.14Z" fill="black"/>
</svg>
