<svg width="16" height="16" viewBox="0 0 16 16" fill="none" xmlns="http://www.w3.org/2000/svg">
<path d="M8 0C6.41775 0 4.87103 0.469192 3.55544 1.34824C2.23985 2.22729 1.21447 3.47672 0.608967 4.93853C0.00346625 6.40034 -0.15496 8.00887 0.153721 9.56072C0.462403 11.1126 1.22433 12.538 2.34315 13.6569C3.46197 14.7757 4.88743 15.5376 6.43928 15.8463C7.99113 16.155 9.59966 15.9965 11.0615 15.391C12.5233 14.7855 13.7727 13.7602 14.6518 12.4446C15.5308 11.129 16 9.58225 16 8C16 5.87827 15.1571 3.84344 13.6569 2.34315C12.1566 0.842855 10.1217 0 8 0V0ZM8 15.294C6.55739 15.294 5.14717 14.8662 3.94767 14.0647C2.74818 13.2633 1.81329 12.1241 1.26123 10.7913C0.709161 9.45849 0.564715 7.99191 0.846156 6.57701C1.1276 5.16211 1.82228 3.86245 2.84237 2.84236C3.86245 1.82228 5.16212 1.12759 6.57701 0.846152C7.99191 0.564712 9.45849 0.709157 10.7913 1.26122C12.1241 1.81329 13.2633 2.74818 14.0647 3.94767C14.8662 5.14716 15.294 6.55738 15.294 8C15.294 9.93449 14.5255 11.7897 13.1576 13.1576C11.7898 14.5255 9.93449 15.294 8 15.294Z" fill="black"/>
</svg>
