<svg id="Layer_1" data-name="Layer 1" xmlns="http://www.w3.org/2000/svg" viewBox="0 0 16 16"><title>registrations</title><path d="M14.857,1.714H13V0h-.857V1.714H3.857V0H3V1.714H1.143a.572.572,0,0,0-.572.572V5.429H15.429V2.286A.572.572,0,0,0,14.857,1.714Z"/><path d="M.571,15.429A.572.572,0,0,0,1.143,16H14.857a.572.572,0,0,0,.572-.571V6.286H.571ZM5.719,9.115,6.818,9l.465-1.012a.571.571,0,0,1,1.038,0L8.787,9l1.1.116a.571.571,0,0,1,.318,1l-.809.716.228,1.061a.571.571,0,0,1-.838.618l-.983-.55-.982.55a.571.571,0,0,1-.838-.618l.228-1.061-.81-.716A.571.571,0,0,1,5.719,9.115Z"/></svg>