<svg width="16" height="16" viewBox="0 0 16 16" fill="none" xmlns="http://www.w3.org/2000/svg">
<path d="M15.4299 2.286V5.429H0.569946V2.286C0.569946 2.1343 0.630219 1.98881 0.737504 1.88153C0.844789 1.77426 0.990299 1.714 1.14202 1.714H2.99927V0H3.85639V1.714H12.1435V0H13.0006V1.714H14.8579C14.933 1.714 15.0074 1.7288 15.0768 1.75754C15.1462 1.78629 15.2093 1.82842 15.2624 1.88153C15.3155 1.93465 15.3576 1.99771 15.3864 2.06711C15.4151 2.1365 15.4299 2.21088 15.4299 2.286ZM0.569946 6.286H15.4299V15.429C15.4297 15.5805 15.3693 15.7258 15.262 15.8328C15.1548 15.9399 15.0094 16 14.8579 16H1.14202C0.990472 16 0.845114 15.9399 0.737857 15.8328C0.6306 15.7258 0.570211 15.5805 0.569946 15.429V6.286ZM5.3996 10.111L6.20971 10.827L5.98167 11.888C5.95851 11.9955 5.96689 12.1074 6.00579 12.2103C6.0447 12.3131 6.11248 12.4025 6.20099 12.4678C6.28951 12.5331 6.39499 12.5714 6.50476 12.5782C6.61453 12.5849 6.72392 12.5599 6.81979 12.506L7.80192 11.956L8.78505 12.506C8.88092 12.5599 8.99031 12.5849 9.10008 12.5782C9.20985 12.5714 9.31533 12.5331 9.40385 12.4678C9.49236 12.4025 9.56014 12.3131 9.59905 12.2103C9.63795 12.1074 9.64633 11.9955 9.62316 11.888L9.40013 10.827L10.2092 10.111C10.2937 10.0379 10.3549 9.94166 10.3852 9.83417C10.4155 9.72668 10.4136 9.61266 10.3797 9.50624C10.3459 9.39981 10.2815 9.30564 10.1947 9.23539C10.1079 9.16514 10.0024 9.1219 9.8912 9.111L8.78705 9L8.32099 7.987C8.27541 7.88765 8.20227 7.80347 8.11026 7.74446C8.01825 7.68545 7.91123 7.65408 7.80192 7.65408C7.6926 7.65408 7.58559 7.68545 7.49358 7.74446C7.40157 7.80347 7.32843 7.88765 7.28285 7.987L6.81779 9L5.71764 9.116C5.60759 9.12779 5.50334 9.17129 5.41756 9.24123C5.33179 9.31116 5.26818 9.40451 5.23449 9.50992C5.2008 9.61533 5.19846 9.72826 5.22778 9.83498C5.25709 9.94169 5.31678 10.0376 5.3996 10.111V10.111Z" fill="black"/>
</svg>
