<svg width="16" height="16" viewBox="0 0 16 16" fill="none" xmlns="http://www.w3.org/2000/svg">
<path d="M15.43 2.286V5.429H0.570007V2.286C0.570007 2.1343 0.63028 1.98881 0.737565 1.88153C0.84485 1.77426 0.99036 1.714 1.14208 1.714H2.99933V0H3.85645V1.714H12.1436V0H13.0007V1.714H14.8579C14.9331 1.714 15.0074 1.7288 15.0769 1.75754C15.1463 1.78629 15.2093 1.82842 15.2624 1.88153C15.3156 1.93465 15.3577 1.99771 15.3865 2.06711C15.4152 2.1365 15.43 2.21088 15.43 2.286ZM0.570007 6.286H15.43V15.429C15.4297 15.5805 15.3694 15.7258 15.2621 15.8328C15.1548 15.9399 15.0095 16 14.8579 16H1.14208C0.990533 16 0.845175 15.9399 0.737918 15.8328C0.630661 15.7258 0.570272 15.5805 0.570007 15.429V6.286ZM5.39966 10.111L6.20977 10.827L5.98174 11.888C5.95857 11.9955 5.96695 12.1074 6.00585 12.2103C6.04476 12.3131 6.11254 12.4025 6.20105 12.4678C6.28957 12.5331 6.39505 12.5714 6.50482 12.5782C6.61459 12.5849 6.72398 12.5599 6.81985 12.506L7.80198 11.956L8.78511 12.506C8.88098 12.5599 8.99037 12.5849 9.10015 12.5782C9.20992 12.5714 9.31539 12.5331 9.40391 12.4678C9.49242 12.4025 9.5602 12.3131 9.59911 12.2103C9.63801 12.1074 9.64639 11.9955 9.62323 11.888L9.4002 10.827L10.2093 10.111C10.2938 10.0379 10.3549 9.94166 10.3852 9.83417C10.4155 9.72668 10.4136 9.61266 10.3798 9.50624C10.3459 9.39981 10.2816 9.30564 10.1948 9.23539C10.1079 9.16514 10.0024 9.12189 9.89126 9.111L8.78711 9L8.32105 7.987C8.27547 7.88765 8.20233 7.80347 8.11032 7.74446C8.01831 7.68545 7.91129 7.65408 7.80198 7.65408C7.69267 7.65408 7.58565 7.68545 7.49364 7.74446C7.40163 7.80347 7.32849 7.88765 7.28291 7.987L6.81785 9L5.7177 9.116C5.60765 9.12779 5.5034 9.17129 5.41762 9.24123C5.33185 9.31116 5.26825 9.40451 5.23455 9.50992C5.20086 9.61533 5.19853 9.72826 5.22784 9.83498C5.25715 9.94169 5.31684 10.0376 5.39966 10.111Z" fill="black"/>
</svg>
