<svg id="Layer_1" data-name="Layer 1" xmlns="http://www.w3.org/2000/svg" viewBox="0 0 16 16"><title>registrations-o</title><path d="M5.4,10.111a.571.571,0,0,1,.319-1L6.818,9l.465-1.011h0a.572.572,0,0,1,1.039,0L8.787,9l1.1.117a.571.571,0,0,1,.318,1l-.809.715.228,1.062a.571.571,0,0,1-.838.618l-.983-.55-.982.55a.571.571,0,0,1-.838-.618l.228-1.062ZM15.429,2.286V15.428a.572.572,0,0,1-.572.572H1.143a.572.572,0,0,1-.572-.572V2.286a.572.572,0,0,1,.572-.572H3V0h.857V1.714h8.286V0H13V1.714h1.857A.572.572,0,0,1,15.429,2.286Zm-.858,4H1.429v8.857H14.571Zm0-3.715H1.429V5.428H14.571Z"/></svg>