<svg width="16" height="16" viewBox="0 0 16 16" fill="none" xmlns="http://www.w3.org/2000/svg">
<path fill-rule="evenodd" clip-rule="evenodd" d="M12.9231 0.923077H3.07692C1.88739 0.923077 0.923077 1.88739 0.923077 3.07692V12.9231C0.923077 14.1126 1.88739 15.0769 3.07692 15.0769H12.9231C14.1126 15.0769 15.0769 14.1126 15.0769 12.9231V3.07692C15.0769 1.88739 14.1126 0.923077 12.9231 0.923077ZM3.07692 0C1.37759 0 0 1.37759 0 3.07692V12.9231C0 14.6224 1.37759 16 3.07692 16H12.9231C14.6224 16 16 14.6224 16 12.9231V3.07692C16 1.37759 14.6224 0 12.9231 0H3.07692Z" fill="black"/>
<path fill-rule="evenodd" clip-rule="evenodd" d="M4.42763 4.09232C4.1614 4.09232 3.94558 4.30814 3.94558 4.57437C3.94558 4.8406 4.1614 5.05642 4.42763 5.05642C4.69386 5.05642 4.90968 4.8406 4.90968 4.57437C4.90968 4.30814 4.69386 4.09232 4.42763 4.09232ZM3.0225 4.57437C3.0225 3.79834 3.6516 3.16925 4.42763 3.16925C5.20366 3.16925 5.83275 3.79834 5.83275 4.57437C5.83275 5.3504 5.20366 5.9795 4.42763 5.9795C3.6516 5.9795 3.0225 5.3504 3.0225 4.57437ZM6.73202 4.57437C6.73202 4.31947 6.93866 4.11283 7.19356 4.11283H12.8753C13.1303 4.11283 13.3369 4.31947 13.3369 4.57437C13.3369 4.82927 13.1303 5.03591 12.8753 5.03591H7.19356C6.93866 5.03591 6.73202 4.82927 6.73202 4.57437ZM4.42763 7.51796C4.1614 7.51796 3.94558 7.73378 3.94558 8.00001C3.94558 8.26624 4.1614 8.48206 4.42763 8.48206C4.69386 8.48206 4.90968 8.26624 4.90968 8.00001C4.90968 7.73378 4.69385 7.51796 4.42763 7.51796ZM3.0225 8.00001C3.0225 7.22398 3.6516 6.59489 4.42763 6.59489C5.20366 6.59489 5.83275 7.22398 5.83275 8.00001C5.83275 8.77604 5.20366 9.40514 4.42763 9.40514C3.6516 9.40514 3.0225 8.77604 3.0225 8.00001ZM6.73202 8.00001C6.73202 7.74511 6.93866 7.53847 7.19356 7.53847H12.8753C13.1303 7.53847 13.3369 7.74511 13.3369 8.00001C13.3369 8.25491 13.1303 8.46155 12.8753 8.46155H7.19356C6.93866 8.46155 6.73202 8.25491 6.73202 8.00001ZM4.42763 10.9436C4.1614 10.9436 3.94558 11.1594 3.94558 11.4257C3.94558 11.6919 4.1614 11.9077 4.42763 11.9077C4.69385 11.9077 4.90968 11.6919 4.90968 11.4257C4.90968 11.1594 4.69386 10.9436 4.42763 10.9436ZM3.0225 11.4257C3.0225 10.6496 3.6516 10.0205 4.42763 10.0205C5.20366 10.0205 5.83275 10.6496 5.83275 11.4257C5.83275 12.2017 5.20366 12.8308 4.42763 12.8308C3.6516 12.8308 3.0225 12.2017 3.0225 11.4257ZM6.73202 11.4257C6.73202 11.1708 6.93866 10.9641 7.19356 10.9641H12.8753C13.1303 10.9641 13.3369 11.1708 13.3369 11.4257C13.3369 11.6806 13.1303 11.8872 12.8753 11.8872H7.19356C6.93866 11.8872 6.73202 11.6806 6.73202 11.4257Z" fill="black"/>
</svg>
