<svg width="16" height="16" viewBox="0 0 16 16" fill="none" xmlns="http://www.w3.org/2000/svg">
<path fill-rule="evenodd" clip-rule="evenodd" d="M12.9 0.9H3.1C1.9 0.9 0.9 1.9 0.9 3.1V12.9C0.9 14.1 1.9 15.1 3.1 15.1H12.9C14.1 15.1 15.1 14.1 15.1 12.9V3.1C15.1 1.9 14.1 0.9 12.9 0.9ZM3.1 0C1.4 0 0 1.4 0 3.1V12.9C0 14.6 1.4 16 3.1 16H12.9C14.6 16 16 14.6 16 12.9V3.1C16 1.4 14.6 0 12.9 0H3.1ZM4.4 4.1C4.1 4.1 3.9 4.3 3.9 4.6C3.9 4.9 4.1 5.1 4.4 5.1C4.7 5.1 4.9 4.9 4.9 4.6C4.9 4.3 4.7 4.1 4.4 4.1ZM3 4.6C3 3.8 3.6 3.2 4.4 3.2C5.2 3.2 5.8 3.8 5.8 4.6C5.8 5.4 5.2 6 4.4 6C3.6 6 3 5.4 3 4.6ZM6.7 4.6C6.7 4.3 6.9 4.1 7.2 4.1H12.9C13.2 4.1 13.4 4.3 13.4 4.6C13.4 4.9 13.1 5 12.9 5H7.2C6.9 5 6.7 4.8 6.7 4.6ZM4.4 7.5C4.2 7.5 3.9 7.7 3.9 8C3.9 8.3 4.1 8.5 4.4 8.5C4.7 8.5 4.9 8.3 4.9 8C4.9 7.7 4.7 7.5 4.4 7.5ZM3 8C3 7.2 3.6 6.6 4.4 6.6C5.2 6.6 5.8 7.2 5.8 8C5.8 8.8 5.2 9.4 4.4 9.4C3.6 9.4 3 8.8 3 8ZM6.7 8C6.7 7.7 6.9 7.5 7.2 7.5H12.9C13.2 7.5 13.4 7.7 13.4 8C13.4 8.3 13.2 8.5 12.9 8.5H7.2C6.9 8.5 6.7 8.3 6.7 8ZM4.4 10.9C4.1 10.9 3.9 11.1 3.9 11.4C3.9 11.7 4.1 11.9 4.4 11.9C4.7 11.9 4.9 11.7 4.9 11.4C4.9 11.2 4.7 10.9 4.4 10.9ZM3 11.4C3 10.6 3.7 10 4.4 10C5.1 10 5.8 10.6 5.8 11.4C5.8 12.2 5.2 12.8 4.4 12.8C3.6 12.8 3 12.2 3 11.4ZM6.7 11.4C6.7 11.1 6.9 10.9 7.2 10.9H12.9C13.2 10.9 13.4 11.1 13.4 11.4C13.4 11.7 13.2 11.9 12.9 11.9H7.2C6.9 11.9 6.7 11.7 6.7 11.4Z" fill="black"/>
</svg>
