<svg width="16" height="16" viewBox="0 0 16 16" fill="none" xmlns="http://www.w3.org/2000/svg">
<path fill-rule="evenodd" clip-rule="evenodd" d="M3.07692 0C1.37759 0 0 1.37759 0 3.07692V12.9231C0 14.6224 1.37759 16 3.07692 16H12.9231C14.6224 16 16 14.6224 16 12.9231V3.07692C16 1.37759 14.6224 0 12.9231 0H3.07692ZM5.15761 4.57434C5.15761 5.09547 4.73515 5.51792 4.21402 5.51792C3.69289 5.51792 3.27043 5.09547 3.27043 4.57434C3.27043 4.05321 3.69289 3.63075 4.21402 3.63075C4.73515 3.63075 5.15761 4.05321 5.15761 4.57434ZM6.51841 4.57433C6.51841 4.31943 6.72505 4.11279 6.97995 4.11279H12.6617C12.9166 4.11279 13.1233 4.31943 13.1233 4.57433C13.1233 4.82923 12.9166 5.03587 12.6617 5.03587H6.97995C6.72505 5.03587 6.51841 4.82923 6.51841 4.57433ZM5.15761 7.99997C5.15761 8.5211 4.73515 8.94356 4.21402 8.94356C3.69289 8.94356 3.27043 8.5211 3.27043 7.99997C3.27043 7.47884 3.69289 7.05638 4.21402 7.05638C4.73515 7.05638 5.15761 7.47884 5.15761 7.99997ZM6.51841 7.99996C6.51841 7.74506 6.72505 7.53842 6.97995 7.53842H12.6617C12.9166 7.53842 13.1233 7.74506 13.1233 7.99996C13.1233 8.25486 12.9166 8.4615 12.6617 8.4615H6.97995C6.72505 8.4615 6.51841 8.25486 6.51841 7.99996ZM4.21402 12.3692C4.73515 12.3692 5.15761 11.9467 5.15761 11.4256C5.15761 10.9045 4.73515 10.482 4.21402 10.482C3.69289 10.482 3.27043 10.9045 3.27043 11.4256C3.27043 11.9467 3.69289 12.3692 4.21402 12.3692ZM6.97995 10.9641C6.72505 10.9641 6.51841 11.1707 6.51841 11.4256C6.51841 11.6805 6.72505 11.8872 6.97995 11.8872H12.6617C12.9166 11.8872 13.1233 11.6805 13.1233 11.4256C13.1233 11.1707 12.9166 10.9641 12.6617 10.9641H6.97995Z" fill="black"/>
</svg>
