<svg width="16" height="16" viewBox="0 0 16 16" fill="none" xmlns="http://www.w3.org/2000/svg">
<path d="M12.1216 16H3.87833C3.35636 15.9992 2.85601 15.7921 2.48701 15.424C2.11802 15.0559 1.9105 14.5569 1.90997 14.0365V6.10678C1.9105 5.58636 2.11802 5.0874 2.48701 4.71931C2.85601 4.35123 3.35636 4.14407 3.87833 4.14328H4.51912C4.68874 4.14988 4.84921 4.22171 4.96688 4.3437C5.08456 4.46569 5.15028 4.62837 5.15028 4.79761C5.15028 4.96686 5.08456 5.12954 4.96688 5.25153C4.84921 5.37352 4.68874 5.44534 4.51912 5.45195H3.87833C3.70439 5.45247 3.53775 5.52167 3.41485 5.64438C3.29195 5.7671 3.22281 5.93336 3.22254 6.10678V14.0335C3.22281 14.2069 3.29195 14.3732 3.41485 14.4959C3.53775 14.6186 3.70439 14.6878 3.87833 14.6883H12.1216C12.2956 14.6878 12.4622 14.6186 12.5851 14.4959C12.708 14.3732 12.7771 14.2069 12.7774 14.0335V6.10678C12.7771 5.93336 12.708 5.7671 12.5851 5.64438C12.4622 5.52167 12.2956 5.45247 12.1216 5.45195H11.4988C11.4105 5.45539 11.3224 5.44101 11.2397 5.40967C11.1571 5.37834 11.0817 5.33069 11.0179 5.26959C10.9542 5.20849 10.9035 5.1352 10.8689 5.0541C10.8343 4.97299 10.8164 4.88576 10.8164 4.79761C10.8164 4.70947 10.8343 4.62223 10.8689 4.54113C10.9035 4.46003 10.9542 4.38673 11.0179 4.32564C11.0817 4.26454 11.1571 4.21689 11.2397 4.18556C11.3224 4.15422 11.4105 4.13984 11.4988 4.14328H12.1186C12.6411 4.14328 13.1422 4.35009 13.5119 4.71826C13.8815 5.08643 14.0894 5.58584 14.09 6.10678V14.0335C14.0902 14.5545 13.8831 15.0542 13.514 15.4229C13.1449 15.7916 12.6441 15.9992 12.1216 16ZM8.65576 9.964V2.24358L9.7554 3.35988C9.87789 3.48306 10.0444 3.55268 10.2184 3.55343C10.3046 3.5538 10.3899 3.53725 10.4697 3.50473C10.5494 3.4722 10.6219 3.42434 10.6831 3.36386C10.7443 3.30339 10.7929 3.2315 10.8262 3.15229C10.8595 3.07309 10.8769 2.98811 10.8772 2.90222C10.8776 2.81633 10.861 2.73121 10.8284 2.65172C10.7957 2.57223 10.7477 2.49992 10.6871 2.43893L8.46782 0.195362L8.46182 0.189382L8.44783 0.175428C8.40338 0.134157 8.35363 0.0989635 8.29987 0.0707751H8.27988L8.24889 0.047851C8.0867 -0.0159503 7.90625 -0.0159503 7.74406 0.047851L7.71907 0.0628015H7.70007C7.64835 0.0898129 7.60031 0.123308 7.55712 0.162471L7.53813 0.189382L7.53213 0.195362L5.32785 2.419C5.20861 2.54299 5.14301 2.70873 5.14519 2.88049C5.14737 3.05225 5.21716 3.21628 5.33951 3.33722C5.46186 3.45816 5.62698 3.52633 5.79926 3.52702C5.97155 3.52772 6.13722 3.46089 6.26054 3.34094L7.34419 2.24457V9.964C7.34419 10.1374 7.41328 10.3037 7.53626 10.4263C7.65925 10.5489 7.82605 10.6178 7.99997 10.6178C8.1739 10.6178 8.3407 10.5489 8.46368 10.4263C8.58667 10.3037 8.65576 10.1374 8.65576 9.964Z" fill="black"/>
</svg>
