<svg id="Layer_1" data-name="Layer 1" xmlns="http://www.w3.org/2000/svg" viewBox="0 0 16 16">
  <path d="M12.123,16.026H3.877a1.972,1.972,0,0,1-1.969-1.97V6.1a1.972,1.972,0,0,1,1.969-1.97h.641a.657.657,0,0,1,0,1.313H3.877a.658.658,0,0,0-.656.657v7.953a.658.658,0,0,0,.656.657h8.246a.658.658,0,0,0,.656-.657V6.1a.658.658,0,0,0-.656-.657H11.5a.657.657,0,1,1,0-1.313h.62A1.972,1.972,0,0,1,14.092,6.1v7.953A1.972,1.972,0,0,1,12.123,16.026ZM8.656,9.97V2.224l1.1,1.12a.656.656,0,1,0,.932-.924L8.468.169,8.462.163,8.448.149h0v0h0v0l0,0h0A.685.685,0,0,0,8.3.044H8.28L8.249.021a.688.688,0,0,0-.505,0L7.719.036H7.7a.685.685,0,0,0-.143.1h0l0,0v0h0v0L7.538.163,7.532.169,5.327,2.4a.657.657,0,0,0,.933.925l1.084-1.1V9.97a.656.656,0,1,0,1.312,0Z"/>
</svg>
