<svg width="16" height="16" viewBox="0 0 16 16" fill="none" xmlns="http://www.w3.org/2000/svg">
<path d="M11.5063 3.45907L12.46 4.41278L6.64905 10.2237C6.26195 10.3188 5.81321 10.4281 5.39691 10.5286L5.69859 9.26674L11.5063 3.45907ZM11.5063 1.93011L4.71893 8.71852L4.03447 11.5829C4.03447 11.5829 3.89498 11.9105 4.1772 11.9105C4.20532 11.9105 4.23667 11.9073 4.27344 11.9008C4.68109 11.8229 7.2016 11.2012 7.2016 11.2012L13.99 4.4117L11.5063 1.93011Z" fill="black"/>
<path d="M15.7276 2.67622C15.7893 2.61458 15.8379 2.54214 15.8715 2.46212C15.905 2.3821 15.9223 2.29668 15.9223 2.2091C15.9223 2.12259 15.905 2.03609 15.8715 1.95607C15.8379 1.87606 15.7893 1.80361 15.7276 1.74198L14.1781 0.192471C14.1165 0.130837 14.0441 0.0821788 13.964 0.0486585C13.884 0.0151382 13.7975 0 13.711 0C13.6245 0 13.538 0.0173008 13.458 0.0508211C13.378 0.0843414 13.3055 0.133 13.2439 0.194634L12.0328 1.40569L14.5155 3.88836L15.7276 2.67622Z" fill="black"/>
<path d="M13.4575 15.7307H0.540723C0.242244 15.7307 0 15.4885 0 15.19V1.88388C0 1.5854 0.242244 1.34315 0.540723 1.34315H7.04454C7.34302 1.34315 7.58527 1.5854 7.58527 1.88388C7.58527 2.18236 7.34302 2.4246 7.04454 2.4246H1.08145V14.6493H12.9168V8.95654C12.9168 8.65806 13.159 8.41581 13.4575 8.41581C13.756 8.41581 13.9982 8.65806 13.9982 8.95654V15.19C13.9982 15.4885 13.7571 15.7307 13.4575 15.7307Z" fill="black"/>
</svg>
