<svg width="16" height="16" viewBox="0 0 16 16" fill="none" xmlns="http://www.w3.org/2000/svg">
<path d="M13.2912 12.2311C13.3649 12.2997 13.4241 12.3825 13.4651 12.4746C13.5061 12.5666 13.5281 12.6659 13.5299 12.7666C13.5317 12.8673 13.5131 12.9674 13.4754 13.0608C13.4377 13.1542 13.3815 13.239 13.3103 13.3103C13.239 13.3815 13.1542 13.4377 13.0608 13.4754C12.9673 13.5131 12.8673 13.5316 12.7666 13.5299C12.6658 13.5281 12.5665 13.506 12.4745 13.465C12.3824 13.424 12.2996 13.3649 12.2309 13.2912L7.99069 9.05158L3.75247 13.2912C3.61025 13.4237 3.42215 13.4959 3.22779 13.4924C3.03344 13.489 2.848 13.4103 2.71054 13.2728C2.57309 13.1354 2.49436 12.95 2.49093 12.7557C2.4875 12.5613 2.55964 12.3733 2.69216 12.2311L6.93239 7.99041L2.68916 3.75076C2.54855 3.60978 2.46972 3.41872 2.47 3.21962C2.47028 3.02052 2.54966 2.82969 2.69066 2.6891C2.83166 2.54851 3.02275 2.46969 3.22187 2.46997C3.421 2.47025 3.61186 2.54962 3.75247 2.6906L7.99369 6.93025L12.2309 2.6906C12.3731 2.5581 12.5612 2.48596 12.7556 2.48939C12.95 2.49282 13.1354 2.57155 13.2728 2.70898C13.4103 2.84641 13.489 3.03183 13.4925 3.22616C13.4959 3.42049 13.4237 3.60857 13.2912 3.75076L9.054 7.99041L13.2912 12.2311Z" fill="black"/>
</svg>
