<svg width="16" height="16" viewBox="0 0 16 16" fill="none" xmlns="http://www.w3.org/2000/svg">
<path d="M13.2912 12.2311C13.3649 12.2997 13.424 12.3825 13.465 12.4746C13.506 12.5666 13.5281 12.6659 13.5299 12.7666C13.5316 12.8673 13.5131 12.9674 13.4754 13.0608C13.4376 13.1542 13.3815 13.239 13.3102 13.3103C13.239 13.3815 13.1541 13.4377 13.0607 13.4754C12.9673 13.5131 12.8673 13.5316 12.7665 13.5299C12.6658 13.5281 12.5664 13.506 12.4744 13.465C12.3824 13.424 12.2996 13.3649 12.2309 13.2912L7.99066 9.05158L3.75244 13.2912C3.61022 13.4237 3.42212 13.4959 3.22776 13.4924C3.0334 13.489 2.84797 13.4103 2.71051 13.2728C2.57306 13.1354 2.49433 12.95 2.4909 12.7557C2.48747 12.5613 2.55961 12.3733 2.69213 12.2311L6.93236 7.99041L2.68913 3.75076C2.54852 3.60978 2.46969 3.41872 2.46997 3.21962C2.47025 3.02052 2.54963 2.82969 2.69063 2.6891C2.83163 2.54851 3.02272 2.46969 3.22184 2.46997C3.42097 2.47025 3.61183 2.54962 3.75244 2.6906L7.99366 6.93025L12.2309 2.6906C12.3731 2.5581 12.5612 2.48596 12.7556 2.48939C12.9499 2.49282 13.1354 2.57155 13.2728 2.70898C13.4103 2.84641 13.489 3.03183 13.4924 3.22616C13.4959 3.42049 13.4237 3.60857 13.2912 3.75076L9.05397 7.99041L13.2912 12.2311Z" fill="black"/>
</svg>
