<svg width="16" height="16" viewBox="0 0 16 16" fill="none" xmlns="http://www.w3.org/2000/svg">
<path d="M4.10149 7.99895C4.10169 8.40449 3.98155 8.80097 3.75629 9.13825C3.53103 9.47552 3.21076 9.73843 2.83599 9.89371C2.46123 10.049 2.04881 10.0897 1.65091 10.0106C1.25301 9.93154 0.887512 9.73628 0.60065 9.44952C0.313788 9.16276 0.118453 8.79739 0.0393566 8.39964C-0.0397399 8.00189 0.000955969 7.58962 0.156296 7.21499C0.311636 6.84036 0.57464 6.5202 0.912036 6.29502C1.24943 6.06984 1.64606 5.94975 2.05174 5.94995C2.59537 5.94995 3.11673 6.16583 3.50113 6.55009C3.88553 6.93435 4.10149 7.45552 4.10149 7.99895ZM8.001 5.94995C7.5956 5.94995 7.1993 6.07012 6.86222 6.29527C6.52515 6.52042 6.26242 6.84043 6.10728 7.21483C5.95214 7.58924 5.91155 8.00122 5.99064 8.39869C6.06973 8.79616 6.26495 9.16126 6.55161 9.44781C6.83827 9.73437 7.2035 9.92952 7.60111 10.0086C7.99873 10.0876 8.41086 10.0471 8.7854 9.89198C9.15994 9.7369 9.48007 9.47427 9.7053 9.13731C9.93053 8.80036 10.0507 8.40421 10.0507 7.99895C10.0507 7.72987 9.99773 7.46343 9.89472 7.21483C9.79171 6.96624 9.64072 6.74036 9.45039 6.55009C9.26005 6.35982 9.03409 6.20889 8.7854 6.10592C8.53672 6.00295 8.27018 5.94995 8.001 5.94995ZM13.9503 5.94995C13.5449 5.94995 13.1486 6.07012 12.8115 6.29527C12.4744 6.52042 12.2117 6.84043 12.0565 7.21483C11.9014 7.58924 11.8608 8.00122 11.9399 8.39869C12.019 8.79616 12.2142 9.16126 12.5009 9.44781C12.7875 9.73437 13.1528 9.92952 13.5504 10.0086C13.948 10.0876 14.3601 10.0471 14.7347 9.89198C15.1092 9.7369 15.4293 9.47427 15.6546 9.13731C15.8798 8.80036 16 8.40421 16 7.99895C16 7.45552 15.784 6.93435 15.3996 6.55009C15.0152 6.16583 14.4939 5.94995 13.9503 5.94995V5.94995Z" fill="black"/>
</svg>
