<svg id="Layer_1" data-name="Layer 1" xmlns="http://www.w3.org/2000/svg" viewBox="0 0 16 16"><title>trash</title><path d="M14.565,2.281H10.473L10,.518A.659.659,0,0,0,9.364.032H6.636A.657.657,0,0,0,6,.518L5.527,2.281H1.435a.657.657,0,0,0,0,1.313h.629l.8,11.761a.658.658,0,0,0,.655.613h8.972a.658.658,0,0,0,.655-.613l.8-11.761h.628a.657.657,0,0,0,0-1.313ZM7.139,1.345H8.86l.253.936H6.887Zm4.733,13.31H4.128L3.381,3.594H12.62ZM8.662,5.846v6.248a.657.657,0,1,1-1.313,0V5.846a.657.657,0,1,1,1.313,0Zm1.757-.655a.656.656,0,0,1,.612.7l-.416,6.249a.657.657,0,0,1-.655.613l-.044,0a.656.656,0,0,1-.611-.7L9.721,5.8A.65.65,0,0,1,10.419,5.191ZM6.279,5.8,6.7,12.051a.656.656,0,0,1-.611.7l-.044,0a.657.657,0,0,1-.655-.613L4.969,5.889A.656.656,0,0,1,6.279,5.8Z"/></svg>