<svg id="Layer_1" data-name="Layer 1" xmlns="http://www.w3.org/2000/svg" viewBox="0 0 16 16">
  <g>
    <path d="M12.486,15.968H3.514a.658.658,0,0,1-.655-.613L2.023,2.982a.657.657,0,0,1,.655-.7H13.323a.656.656,0,0,1,.655.7l-.837,12.373A.658.658,0,0,1,12.486,15.968ZM4.128,14.655h7.744L12.62,3.594H3.381Z"/>
    <path d="M14.565,3.594H1.435a.657.657,0,0,1,0-1.313h13.13a.657.657,0,0,1,0,1.313Z"/>
    <path d="M9.969,3.594H6.031A.655.655,0,0,1,5.4,2.767L6,.518A.657.657,0,0,1,6.636.032H9.364A.659.659,0,0,1,10,.518L10.6,2.766a.656.656,0,0,1-.634.828ZM6.887,2.281H9.113L8.86,1.345H7.139Z"/>
    <path d="M8.006,12.751a.657.657,0,0,1-.657-.657V5.846a.657.657,0,1,1,1.313,0v6.248A.656.656,0,0,1,8.006,12.751Z"/>
    <path d="M9.96,12.751a.331.331,0,0,1-.044,0,.656.656,0,0,1-.611-.7L9.721,5.8a.656.656,0,0,1,1.31.087l-.416,6.249A.657.657,0,0,1,9.96,12.751Z"/>
    <path d="M6.04,12.751a.657.657,0,0,1-.655-.613L4.969,5.889A.656.656,0,0,1,6.279,5.8L6.7,12.051a.656.656,0,0,1-.611.7A.331.331,0,0,1,6.04,12.751Z"/>
  </g>
</svg>
