<svg width="16" height="16" viewBox="0 0 16 16" fill="none" xmlns="http://www.w3.org/2000/svg">
<path d="M14.5597 2.25803H10.4682L9.99525 0.487954C9.95728 0.347811 9.87444 0.224107 9.75951 0.135924C9.64459 0.0477403 9.50396 -2.28871e-05 9.35932 2.06425e-06H6.63165C6.48693 -0.000361368 6.34614 0.0472739 6.23115 0.135509C6.11615 0.223744 6.0334 0.347641 5.99573 0.487954L5.52279 2.25803H1.43128C1.26162 2.26468 1.10112 2.33704 0.983423 2.45992C0.865728 2.58281 0.799988 2.74668 0.799988 2.91717C0.799988 3.08766 0.865728 3.25153 0.983423 3.37442C1.10112 3.4973 1.26162 3.56966 1.43128 3.57631H2.06021L2.86011 15.3845C2.87149 15.5513 2.9454 15.7075 3.06693 15.8217C3.18846 15.9359 3.34858 15.9996 3.51503 16H12.4859C12.6524 15.9996 12.8125 15.9359 12.934 15.8217C13.0556 15.7075 13.1295 15.5513 13.1409 15.3845L13.9408 3.57631H14.5687C14.7384 3.56966 14.8989 3.4973 15.0166 3.37442C15.1342 3.25153 15.2 3.08766 15.2 2.91717C15.2 2.74668 15.1342 2.58281 15.0166 2.45992C14.8989 2.33704 14.7384 2.26468 14.5687 2.25803H14.5597ZM7.13459 1.31827H8.85538L9.10835 2.25803H6.88262L7.13459 1.31827ZM11.867 14.6817H4.12396L3.37705 3.57631H12.6149L11.867 14.6817ZM8.65741 5.83735V12.1104C8.66086 12.1992 8.64643 12.2877 8.615 12.3707C8.58356 12.4537 8.53577 12.5294 8.47447 12.5934C8.41318 12.6574 8.33965 12.7083 8.25829 12.7431C8.17693 12.7779 8.08941 12.7958 8.00099 12.7958C7.91256 12.7958 7.82505 12.7779 7.74369 12.7431C7.66233 12.7083 7.5888 12.6574 7.5275 12.5934C7.46621 12.5294 7.41841 12.4537 7.38698 12.3707C7.35554 12.2877 7.34112 12.1992 7.34457 12.1104V5.83735C7.34112 5.74863 7.35554 5.66012 7.38698 5.57713C7.41841 5.49413 7.46621 5.41837 7.5275 5.35437C7.5888 5.29038 7.66233 5.23946 7.74369 5.20469C7.82505 5.16991 7.91256 5.15198 8.00099 5.15198C8.08941 5.15198 8.17693 5.16991 8.25829 5.20469C8.33965 5.23946 8.41318 5.29038 8.47447 5.35437C8.53577 5.41837 8.58356 5.49413 8.615 5.57713C8.64643 5.66012 8.66086 5.74863 8.65741 5.83735ZM10.4142 5.17972C10.5004 5.18533 10.5847 5.20798 10.6621 5.24638C10.7396 5.28478 10.8087 5.33816 10.8656 5.40346C10.9224 5.46877 10.9659 5.5447 10.9934 5.62692C11.021 5.70913 11.0321 5.796 11.0261 5.88253L10.6102 12.1566C10.599 12.3235 10.5252 12.4798 10.4036 12.5941C10.282 12.7083 10.1218 12.772 9.95525 12.7721H9.91126C9.82514 12.7664 9.741 12.7436 9.66365 12.7052C9.5863 12.6667 9.51727 12.6133 9.46052 12.548C9.40377 12.4827 9.3604 12.4068 9.33291 12.3247C9.30542 12.2425 9.29435 12.1557 9.30033 12.0693L9.71628 5.79117C9.72147 5.70477 9.74372 5.62027 9.78174 5.5426C9.81976 5.46492 9.87279 5.39561 9.93774 5.33871C10.0027 5.28181 10.0783 5.23845 10.1601 5.21115C10.2419 5.18386 10.3282 5.17317 10.4142 5.17972ZM6.2747 5.79117L6.69565 12.0673C6.70162 12.1537 6.69055 12.2405 6.66306 12.3227C6.63557 12.4048 6.59221 12.4807 6.53546 12.546C6.4787 12.6113 6.40967 12.6647 6.33233 12.7031C6.25498 12.7416 6.17084 12.7643 6.08472 12.7701H6.04073C5.87421 12.7699 5.71395 12.7063 5.59237 12.5921C5.47079 12.4778 5.39696 12.3215 5.3858 12.1546L4.96486 5.88052C4.95901 5.79416 4.97017 5.70749 4.99768 5.62546C5.0252 5.54343 5.06853 5.46764 5.12522 5.40242C5.23969 5.27071 5.40159 5.19006 5.57528 5.17821C5.74898 5.16636 5.92025 5.22429 6.05141 5.33924C6.18258 5.45419 6.2629 5.61675 6.2747 5.79117Z" fill="black"/>
</svg>
