<svg width="16" height="16" viewBox="0 0 16 16" fill="none" xmlns="http://www.w3.org/2000/svg">
<path d="M14.5598 2.25803H10.4682L9.99531 0.487954C9.95734 0.347811 9.8745 0.224107 9.75957 0.135924C9.64465 0.0477403 9.50402 -2.28871e-05 9.35938 2.06425e-06H6.63171C6.48699 -0.000361368 6.3462 0.0472739 6.23121 0.135509C6.11622 0.223744 6.03346 0.347641 5.99579 0.487954L5.52285 2.25803H1.43135C1.26168 2.26468 1.10118 2.33704 0.983484 2.45992C0.865789 2.58281 0.800049 2.74668 0.800049 2.91717C0.800049 3.08766 0.865789 3.25153 0.983484 3.37442C1.10118 3.4973 1.26168 3.56966 1.43135 3.57631H2.06027L2.86017 15.3845C2.87155 15.5513 2.94546 15.7075 3.06699 15.8217C3.18852 15.9359 3.34864 15.9996 3.51509 16H12.486C12.6525 15.9996 12.8126 15.9359 12.9341 15.8217C13.0556 15.7075 13.1295 15.5513 13.1409 15.3845L13.9408 3.57631H14.5688C14.7384 3.56966 14.8989 3.4973 15.0166 3.37442C15.1343 3.25153 15.2 3.08766 15.2 2.91717C15.2 2.74668 15.1343 2.58281 15.0166 2.45992C14.8989 2.33704 14.7384 2.26468 14.5688 2.25803H14.5598ZM7.13465 1.31827H8.85544L9.10841 2.25803H6.88268L7.13465 1.31827ZM11.8671 14.6817H4.12402L3.37711 3.57631H12.615L11.8671 14.6817ZM8.65747 5.83735V12.1104C8.66092 12.1992 8.64649 12.2877 8.61506 12.3707C8.58363 12.4537 8.53583 12.5294 8.47453 12.5934C8.41324 12.6574 8.33971 12.7083 8.25835 12.7431C8.17699 12.7779 8.08947 12.7958 8.00105 12.7958C7.91262 12.7958 7.82511 12.7779 7.74375 12.7431C7.66239 12.7083 7.58886 12.6574 7.52756 12.5934C7.46627 12.5294 7.41847 12.4537 7.38704 12.3707C7.3556 12.2877 7.34118 12.1992 7.34463 12.1104V5.83735C7.34118 5.74863 7.3556 5.66012 7.38704 5.57713C7.41847 5.49413 7.46627 5.41837 7.52756 5.35437C7.58886 5.29038 7.66239 5.23946 7.74375 5.20469C7.82511 5.16991 7.91262 5.15198 8.00105 5.15198C8.08947 5.15198 8.17699 5.16991 8.25835 5.20469C8.33971 5.23946 8.41324 5.29038 8.47453 5.35437C8.53583 5.41837 8.58363 5.49413 8.61506 5.57713C8.64649 5.66012 8.66092 5.74863 8.65747 5.83735ZM10.4143 5.17972C10.5005 5.18533 10.5847 5.20798 10.6622 5.24638C10.7396 5.28478 10.8088 5.33816 10.8656 5.40346C10.9225 5.46877 10.9659 5.5447 10.9935 5.62692C11.021 5.70913 11.0322 5.796 11.0262 5.88253L10.6102 12.1566C10.5991 12.3235 10.5252 12.4798 10.4037 12.5941C10.2821 12.7083 10.1218 12.772 9.95531 12.7721H9.91132C9.8252 12.7664 9.74106 12.7436 9.66371 12.7052C9.58636 12.6667 9.51734 12.6133 9.46058 12.548C9.40383 12.4827 9.36046 12.4068 9.33297 12.3247C9.30549 12.2425 9.29441 12.1557 9.30039 12.0693L9.71634 5.79117C9.72153 5.70477 9.74378 5.62027 9.7818 5.5426C9.81982 5.46492 9.87285 5.39561 9.9378 5.33871C10.0028 5.28181 10.0783 5.23845 10.1601 5.21115C10.2419 5.18386 10.3283 5.17317 10.4143 5.17972ZM6.27476 5.79117L6.69571 12.0673C6.70168 12.1537 6.69061 12.2405 6.66312 12.3227C6.63564 12.4048 6.59227 12.4807 6.53552 12.546C6.47876 12.6113 6.40973 12.6647 6.33239 12.7031C6.25504 12.7416 6.1709 12.7643 6.08478 12.7701H6.04079C5.87427 12.7699 5.71401 12.7063 5.59243 12.5921C5.47085 12.4778 5.39702 12.3215 5.38587 12.1546L4.96492 5.88052C4.95907 5.79416 4.97023 5.70749 4.99774 5.62546C5.02526 5.54343 5.06859 5.46764 5.12528 5.40242C5.23975 5.27071 5.40165 5.19006 5.57534 5.17821C5.74904 5.16636 5.92031 5.22429 6.05147 5.33924C6.18264 5.45419 6.26296 5.61675 6.27476 5.79117Z" fill="black"/>
</svg>
