<svg id="a319bb59-3603-4c2b-8b4c-1332b537390d" data-name="Layer 1" xmlns="http://www.w3.org/2000/svg" viewBox="0 0 32 32"><title>light-planning-center-mark</title><path d="M28.207,3.238,18.583.376a9.066,9.066,0,0,0-5.166,0L3.793,3.238A5.192,5.192,0,0,0,.159,8.19V23.81a5.192,5.192,0,0,0,3.634,4.952l9.624,2.862a9.066,9.066,0,0,0,5.166,0l9.624-2.862a5.192,5.192,0,0,0,3.634-4.952V8.19A5.192,5.192,0,0,0,28.207,3.238ZM24.469,18.39a2.339,2.339,0,0,1-1.658,2.227L17.186,22.3a4.095,4.095,0,0,1-2.342,0l-3.792-1.136h-.019c-.128,0-.2.072-.2.159v2.564a.858.858,0,0,1-.856.857.9.9,0,0,1-.246-.036l-1.593-.473a.863.863,0,0,1-.612-.822l0-11.91a2.327,2.327,0,0,1,2.32-2.325,2.358,2.358,0,0,1,.66.1l4.951,1.455a1.785,1.785,0,0,0,1.037-.008l4.95-1.551a2.321,2.321,0,0,1,3.018,2.218Z" fill="#f5f6f8"/><path d="M20.812,12.714,17.2,13.867a4.036,4.036,0,0,1-2.386.021L11.184,12.8a.306.306,0,0,0-.393.293l0,4.407a.3.3,0,0,0,.218.292l4.435,1.331a1.823,1.823,0,0,0,1.082-.01L21,17.684a.307.307,0,0,0,.213-.291V13.005A.306.306,0,0,0,20.812,12.714Z" fill="#f5f6f8"/></svg>