<svg id="Layer_1" data-name="Layer 1" xmlns="http://www.w3.org/2000/svg" viewBox="0 0 32 32"><defs><style>.cls-1{fill:#313239;}</style></defs><title>planning-center-mark</title><path class="cls-1" d="M20.653,12.714l-3.608,1.152a4.036,4.036,0,0,1-2.386.021L11.025,12.8a.305.305,0,0,0-.393.292l0,4.407a.305.305,0,0,0,.218.293l4.435,1.33a1.828,1.828,0,0,0,1.083-.009l4.474-1.428a.306.306,0,0,0,.213-.291V13.005A.306.306,0,0,0,20.653,12.714Z"/><path class="cls-1" d="M28.047,3.238,18.423.376a9.059,9.059,0,0,0-5.165,0L3.634,3.238A5.19,5.19,0,0,0,0,8.19V23.81a5.191,5.191,0,0,0,3.634,4.952l9.624,2.862a9.059,9.059,0,0,0,5.165,0l9.624-2.862a5.191,5.191,0,0,0,3.634-4.952V8.19A5.19,5.19,0,0,0,28.047,3.238ZM24.261,18.39a2.275,2.275,0,0,1-1.624,2.18l-5.625,1.681a4.034,4.034,0,0,1-2.314,0l-3.792-1.136a.215.215,0,0,0-.277.206v2.563a.808.808,0,0,1-1.039.775L8,24.184a.809.809,0,0,1-.578-.775l0-11.91A2.275,2.275,0,0,1,10.34,9.317l4.952,1.455a1.833,1.833,0,0,0,1.064-.009l4.95-1.55a2.276,2.276,0,0,1,2.955,2.172Z"/></svg>