<svg xmlns="http://www.w3.org/2000/svg" xmlns:xlink="http://www.w3.org/1999/xlink">
    
<symbol id="accounts-logo-stack" viewBox="0 0 16 16">
  <title>accounts-logo-stack</title><g id="Layer_1" data-name="Layer 1"><path d="M1,12.09a2.46,2.46,0,0,0-.73.12.12.12,0,0,0-.08.15l0,.17a.13.13,0,0,0,.15.11,2,2,0,0,1,.57-.1.32.32,0,0,1,.23.07.5.5,0,0,1,.08.35,1.37,1.37,0,0,0-.39-.06c-.52,0-.86.28-.86.7a.67.67,0,0,0,.69.72.92.92,0,0,0,.63-.24l0,.1a.12.12,0,0,0,.11.09h.15a.13.13,0,0,0,.12-.12V13C1.76,12.52,1.71,12.09,1,12.09ZM.81,13.9a.28.28,0,0,1-.3-.3c0-.2.16-.32.4-.32a1.07,1.07,0,0,1,.36.06v.33A.64.64,0,0,1,.81,13.9Z"></path><path d="M3.77,13.58a.12.12,0,0,0-.17,0s0,0-.05.05a.59.59,0,0,1-.43.2.64.64,0,0,1,0-1.27.64.64,0,0,1,.42.2s.09.09.16,0l.17-.15a.14.14,0,0,0,0-.18,1,1,0,0,0-.78-.37A1.11,1.11,0,0,0,2,13.21a1.09,1.09,0,0,0,1.09,1.11A1,1,0,0,0,4,13.87a.14.14,0,0,0,0-.18Z"></path><path d="M5.79,13.58a.12.12,0,0,0-.17,0l-.06.05a.54.54,0,0,1-.42.2.64.64,0,0,1,0-1.27.64.64,0,0,1,.42.2s.09.09.16,0l.17-.15a.14.14,0,0,0,0-.18,1,1,0,0,0-.78-.37,1.11,1.11,0,0,0-1.09,1.12,1.09,1.09,0,0,0,1.09,1.11A1,1,0,0,0,6,13.87a.14.14,0,0,0,0-.18Z"></path><path d="M7.15,12.09A1.12,1.12,0,1,0,8.23,13.2,1.12,1.12,0,0,0,7.15,12.09Zm.59,1.11a.6.6,0,0,1-.59.64.64.64,0,0,1,0-1.27A.59.59,0,0,1,7.74,13.2Z"></path><path d="M10.21,12.14H10c-.07,0-.14,0-.14.12v1.26a.5.5,0,0,1-.47.32c-.26,0-.38-.15-.38-.47V12.26a.13.13,0,0,0-.12-.12H8.62a.13.13,0,0,0-.13.12v1.08c0,.45.09,1,.8,1a.85.85,0,0,0,.65-.27l0,.12c0,.05,0,.1.12.1h.11a.13.13,0,0,0,.13-.12V12.26A.14.14,0,0,0,10.21,12.14Z"></path><path d="M11.82,12.09a1,1,0,0,0-.69.27l-.05-.14a.1.1,0,0,0-.1-.08h-.11a.13.13,0,0,0-.13.12v1.89a.13.13,0,0,0,.13.12h.23c.09,0,.14,0,.14-.12v-1.3a.63.63,0,0,1,.53-.28c.25,0,.38.18.38.51v1.07a.13.13,0,0,0,.13.12h.25a.12.12,0,0,0,.12-.12V13.1C12.65,12.42,12.38,12.09,11.82,12.09Z"></path><path d="M14.25,13.8a.11.11,0,0,0-.06-.07.11.11,0,0,0-.09,0,.82.82,0,0,1-.32.09c-.08,0-.15,0-.15-.19V12.57h.53a.12.12,0,0,0,.12-.12v-.19a.12.12,0,0,0-.12-.12h-.53v-.56a.11.11,0,0,0-.11-.12h-.26a.12.12,0,0,0-.12.12v.56h-.22a.12.12,0,0,0-.12.12v.19a.12.12,0,0,0,.12.12h.22v1.1c0,.3.06.65.55.65a1.3,1.3,0,0,0,.59-.15.14.14,0,0,0,.06-.16Z"></path><path d="M15.29,13c-.22-.09-.34-.17-.34-.28s.08-.16.25-.16a1,1,0,0,1,.43.1.12.12,0,0,0,.17-.05l.07-.15a.15.15,0,0,0,0-.18,1.16,1.16,0,0,0-.62-.16c-.5,0-.72.3-.72.6s.28.54.58.68.43.21.43.33-.1.18-.25.18a1,1,0,0,1-.5-.14h0a.12.12,0,0,0-.1,0,.06.06,0,0,0-.06,0l-.1.19a.12.12,0,0,0,0,.14h0a1.27,1.27,0,0,0,.7.22.68.68,0,0,0,.77-.63C16,13.29,15.71,13.15,15.29,13Z"></path><circle cx="8" cy="5.87" r="0.8"></circle><path d="M8,1.68c-3.35,0-4.19.84-4.19,4.19S4.65,10.06,8,10.06s4.19-.84,4.19-4.19S11.35,1.68,8,1.68ZM9.55,5.87c0,.07,0,.14,0,.2l.43.35a.11.11,0,0,1,0,.13l-.42.71a.09.09,0,0,1-.12,0L8.94,7.1a1.33,1.33,0,0,1-.35.2l-.07.55a.11.11,0,0,1-.11.09H7.59a.1.1,0,0,1-.1-.09L7.41,7.3a1.51,1.51,0,0,1-.35-.2l-.52.21a.1.1,0,0,1-.12,0L6,6.55a.11.11,0,0,1,0-.13l.43-.35c0-.06,0-.13,0-.2s0-.13,0-.2L6,5.33A.11.11,0,0,1,6,5.2l.42-.72a.1.1,0,0,1,.12-.05l.52.21a1.51,1.51,0,0,1,.35-.2l.08-.55a.1.1,0,0,1,.1-.09h.82a.11.11,0,0,1,.11.09l.07.55a1.33,1.33,0,0,1,.35.2l.52-.21a.1.1,0,0,1,.12.05L10,5.2a.11.11,0,0,1,0,.13l-.43.34C9.54,5.74,9.55,5.8,9.55,5.87Z"></path></g>
</symbol>

<symbol id="accounts-logo" viewBox="0 0 16 16">
  <title>accounts-logo</title><g id="Layer_1" data-name="Layer 1"><path d="M4.78,7.13a1.46,1.46,0,0,0-.53.09.09.09,0,0,0-.06.11l0,.12a.09.09,0,0,0,.11.08,1.63,1.63,0,0,1,.42-.07c.08,0,.13,0,.16,0A.35.35,0,0,1,5,7.77a1,1,0,0,0-.29,0c-.38,0-.63.2-.63.51a.49.49,0,0,0,.51.52A.71.71,0,0,0,5,8.59l0,.07a.08.08,0,0,0,.08.07h.11a.09.09,0,0,0,.09-.09V7.82C5.34,7.44,5.3,7.13,4.78,7.13ZM4.64,8.46a.21.21,0,0,1-.22-.23c0-.14.12-.23.29-.23A.61.61,0,0,1,5,8.05v.24A.44.44,0,0,1,4.64,8.46Z"></path><path d="M6.81,8.22a.08.08,0,0,0-.12,0l0,0a.4.4,0,0,1-.31.14A.44.44,0,0,1,5.9,8a.45.45,0,0,1,.45-.47.44.44,0,0,1,.3.15s.07.07.12,0l.12-.1a.11.11,0,0,0,0-.14.71.71,0,0,0-.57-.27A.82.82,0,0,0,5.53,8a.79.79,0,0,0,.8.81.7.7,0,0,0,.61-.32.09.09,0,0,0,0-.13Z"></path><path d="M8.29,8.22a.08.08,0,0,0-.12,0l0,0a.4.4,0,0,1-.31.14.47.47,0,0,1,0-.93.42.42,0,0,1,.3.15s.07.07.13,0l.11-.1a.1.1,0,0,0,0-.14.7.7,0,0,0-.57-.27A.81.81,0,0,0,7,8a.79.79,0,0,0,.8.81.71.71,0,0,0,.61-.32.09.09,0,0,0,0-.13Z"></path><path d="M9.3,7.13a.82.82,0,1,0,.79.81A.81.81,0,0,0,9.3,7.13Zm.43.81a.44.44,0,0,1-.43.47.47.47,0,0,1,0-.93A.43.43,0,0,1,9.73,7.94Z"></path><path d="M11.54,7.16h-.17s-.1,0-.1.09v.93a.35.35,0,0,1-.34.23c-.19,0-.28-.11-.28-.34V7.25a.1.1,0,0,0-.09-.09h-.19a.11.11,0,0,0-.09.09v.8c0,.33.07.71.59.71a.63.63,0,0,0,.48-.19l0,.08s0,.08.08.08h.08a.1.1,0,0,0,.1-.09V7.25A.11.11,0,0,0,11.54,7.16Z"></path><path d="M12.73,7.13a.72.72,0,0,0-.51.2l0-.11a.09.09,0,0,0-.08-.06H12a.1.1,0,0,0-.09.09V8.64a.09.09,0,0,0,.09.09h.16c.08,0,.11,0,.11-.09v-1a.46.46,0,0,1,.39-.21c.18,0,.28.13.28.38v.78a.09.09,0,0,0,.09.09h.19a.09.09,0,0,0,.09-.09V7.87C13.34,7.37,13.14,7.13,12.73,7.13Z"></path><path d="M14.51,8.39a.09.09,0,0,0,0-.06H14.4a.43.43,0,0,1-.24.07c-.05,0-.1,0-.1-.13v-.8h.38a.1.1,0,0,0,.1-.09V7.25a.09.09,0,0,0-.1-.09h-.38V6.75A.09.09,0,0,0,14,6.66h-.19a.1.1,0,0,0-.09.09v.41h-.16a.09.09,0,0,0-.09.09v.14a.1.1,0,0,0,.09.09h.16v.81c0,.22.05.47.41.47a.9.9,0,0,0,.43-.11.08.08,0,0,0,0-.11Z"></path><path d="M15.28,7.78c-.16-.07-.25-.13-.25-.21s.05-.12.18-.12a.69.69,0,0,1,.32.08.1.1,0,0,0,.12,0l0-.11a.1.1,0,0,0,0-.13.81.81,0,0,0-.45-.12c-.37,0-.53.22-.53.44s.2.4.43.49.31.16.31.25-.07.13-.18.13a.68.68,0,0,1-.37-.1h-.08a.1.1,0,0,0,0,0l-.07.14a.09.09,0,0,0,0,.11h0a.88.88,0,0,0,.51.15.5.5,0,0,0,.56-.46C15.78,8,15.58,7.91,15.28,7.78Z"></path><circle cx="1.75" cy="8" r="0.29"></circle><path d="M1.75,6.47C.52,6.47.22,6.77.22,8s.3,1.53,1.53,1.53S3.29,9.23,3.29,8,3,6.47,1.75,6.47ZM2.32,8a.15.15,0,0,1,0,.07l.16.13s0,0,0,.05l-.15.26a0,0,0,0,1,0,0L2.1,8.45A.33.33,0,0,1,2,8.52l0,.21a0,0,0,0,1,0,0H1.6s0,0,0,0l0-.21a.37.37,0,0,1-.12-.07l-.19.08s0,0-.05,0L1,8.25A0,0,0,0,1,1,8.2l.16-.13s0-.05,0-.07,0,0,0-.07L1,7.8a0,0,0,0,1,0,0l.15-.26s0,0,.05,0l.19.08a.37.37,0,0,1,.12-.07l0-.21s0,0,0,0h.3a0,0,0,0,1,0,0l0,.21a.33.33,0,0,1,.13.07l.19-.08a0,0,0,0,1,0,0l.15.26s0,0,0,0l-.16.13A.15.15,0,0,1,2.32,8Z"></path></g>
</symbol>

<symbol id="administrators" viewBox="0 0 16 16">
  <title>administrators</title><g id="Layer_1" data-name="Layer 1"><path d="M8,0,0,.8v3a13.36,13.36,0,0,0,7.45,12l.52.26.52-.26h0A13.36,13.36,0,0,0,16,3.79V.8ZM8,14.41A12.08,12.08,0,0,1,4,11,5.41,5.41,0,0,1,6.54,9.32a2.78,2.78,0,0,0,1.65.58,2.78,2.78,0,0,0,1.19-.29,7.34,7.34,0,0,1,2.47,1.67A12.17,12.17,0,0,1,8,14.41Zm.19-6c-.89,0-1.74-1.1-1.74-2.27a1.89,1.89,0,0,1,1.74-2,1.89,1.89,0,0,1,1.73,2C9.92,7.3,9.08,8.4,8.19,8.4Zm6.28-4.61A11.91,11.91,0,0,1,12.72,10a9.13,9.13,0,0,0-2.09-1.52,4.1,4.1,0,0,0,.79-2.39,3.38,3.38,0,0,0-3.23-3.5A3.38,3.38,0,0,0,5,6.13a4.1,4.1,0,0,0,.52,2A7,7,0,0,0,3.1,9.73,12,12,0,0,1,1.53,3.79V2.15L8,1.51l6.47.64Z"></path></g>
</symbol>

<symbol id="android" viewBox="0 0 16 16">
  <title>android</title><g id="Layer_1" data-name="Layer 1"><path d="M12.15,6.44,13.51,5a.74.74,0,0,0-1.09-1L10.91,5.62a6.65,6.65,0,0,0-6,0L3.42,4A.74.74,0,0,0,2.33,5L3.69,6.44A6.8,6.8,0,0,0,1.3,11.15a.46.46,0,0,0,.46.48H14.08a.46.46,0,0,0,.46-.48A6.8,6.8,0,0,0,12.15,6.44ZM4.87,10.12a1,1,0,1,1,1-1A1,1,0,0,1,4.87,10.12Zm6.1,0a1,1,0,1,1,1-1A1,1,0,0,1,11,10.12Z"></path></g>
</symbol>

<symbol id="apple-pay" viewBox="0 0 16 16">
  <title>apple-pay</title><g id="Layer_1" data-name="Layer 1"><path d="M15.87,4.21V4.07a2.64,2.64,0,0,0,0-.29,1,1,0,0,0-.1-.29,1,1,0,0,0-.17-.24.81.81,0,0,0-.24-.17A.71.71,0,0,0,15.06,3a1.53,1.53,0,0,0-.3,0H1.24a1.53,1.53,0,0,0-.3,0,.71.71,0,0,0-.28.09.81.81,0,0,0-.24.17,1,1,0,0,0-.17.24,1,1,0,0,0-.1.29,2.64,2.64,0,0,0,0,.29v.14a.86.86,0,0,0,0,.16v7.26a.86.86,0,0,0,0,.16v.14a2.64,2.64,0,0,0,0,.29,1,1,0,0,0,.1.29,1,1,0,0,0,.17.24.81.81,0,0,0,.24.17A.71.71,0,0,0,.94,13l.3,0H14.76l.3,0a.71.71,0,0,0,.28-.09.81.81,0,0,0,.24-.17,1,1,0,0,0,.17-.24,1,1,0,0,0,.1-.29,2.64,2.64,0,0,0,0-.29v-.14a.86.86,0,0,0,0-.16V4.37A.86.86,0,0,0,15.87,4.21Zm-.33,7.42v.29c0,.08,0,.16,0,.25a.75.75,0,0,1-.07.18.42.42,0,0,1-.11.16.83.83,0,0,1-.15.11.6.6,0,0,1-.19.06,1.1,1.1,0,0,1-.25,0H1.25a1.1,1.1,0,0,1-.25,0,.6.6,0,0,1-.19-.06.83.83,0,0,1-.15-.11.42.42,0,0,1-.11-.16.69.69,0,0,1-.07-.19c0-.08,0-.17,0-.24V4.08c0-.07,0-.16,0-.25a.75.75,0,0,1,.07-.18.42.42,0,0,1,.11-.16.83.83,0,0,1,.15-.11A.6.6,0,0,1,1,3.32a1.06,1.06,0,0,1,.25,0h13.5a1.06,1.06,0,0,1,.25,0,.6.6,0,0,1,.19.06.83.83,0,0,1,.15.11.42.42,0,0,1,.11.16.69.69,0,0,1,.07.19c0,.08,0,.16,0,.24v7.55Z"></path><path d="M4.27,6.36a.89.89,0,0,0,.2-.62.87.87,0,0,0-.58.3.8.8,0,0,0-.2.59A.73.73,0,0,0,4.27,6.36Z"></path><path d="M4.75,7.8a.91.91,0,0,1,.42-.74.89.89,0,0,0-.71-.38c-.32,0-.59.18-.74.18s-.38-.17-.64-.17a1,1,0,0,0-.8.49,2,2,0,0,0,.25,1.94c.16.24.35.5.61.49s.34-.15.63-.15.38.15.64.15.43-.24.59-.48a1.79,1.79,0,0,0,.27-.55A.87.87,0,0,1,4.75,7.8Z"></path><path d="M7.64,6H6.3V9.58h.56V8.36h.76A1.13,1.13,0,0,0,8.81,7.19,1.12,1.12,0,0,0,7.64,6ZM7.49,7.9H6.86V6.48h.63a.67.67,0,0,1,.76.71A.67.67,0,0,1,7.49,7.9Z"></path><path d="M10.12,7a.93.93,0,0,0-1,.8h.5a.48.48,0,0,1,.52-.36c.34,0,.53.15.53.44V8l-.69,0c-.64,0-1,.31-1,.76a.79.79,0,0,0,.87.77.93.93,0,0,0,.82-.45h0v.42h.52V7.81C11.17,7.29,10.75,7,10.12,7Zm.51,1.65a.6.6,0,0,1-.66.58c-.29,0-.48-.14-.48-.36s.18-.36.53-.38l.61,0Z"></path><path d="M12.62,9.1h0L12,7h-.58l.94,2.6-.05.16a.45.45,0,0,1-.47.37h-.16v.43h.21c.54,0,.8-.2,1-.83l1-2.73h-.56Z"></path></g>
</symbol>

<symbol id="apple" viewBox="0 0 16 16">
  <title>apple</title><g id="Layer_1" data-name="Layer 1"><path d="M12.48,5.67a3.18,3.18,0,0,0-1.08,1.1A2.58,2.58,0,0,0,11.12,8a2.52,2.52,0,0,0,.17.93,3.16,3.16,0,0,0,.47.81,3.32,3.32,0,0,0,1,.75,7.1,7.1,0,0,1-.87,1.68,5.39,5.39,0,0,1-1.07,1.21,1.56,1.56,0,0,1-.91.35A2.75,2.75,0,0,1,9,13.48l-.18-.07-.3-.12a2.3,2.3,0,0,0-.71-.1,2.78,2.78,0,0,0-.88.17l-.23.09-.29.12a1.93,1.93,0,0,1-.7.13,2.24,2.24,0,0,1-1.57-1,7.68,7.68,0,0,1-1.27-2.21,7.08,7.08,0,0,1-.42-2.39A3.83,3.83,0,0,1,3.35,5.5a3,3,0,0,1,2.39-1,2.7,2.7,0,0,1,1,.2L7,4.76l.24.1A1.43,1.43,0,0,0,7.72,5a1.47,1.47,0,0,0,.54-.1l.31-.12.22-.09A3.5,3.5,0,0,1,10,4.47,3,3,0,0,1,12.48,5.67ZM10,1.72c0,.15,0,.25,0,.33A2.63,2.63,0,0,1,9.7,3.29a2.59,2.59,0,0,1-.9,1,2.26,2.26,0,0,1-1.24.35,2.79,2.79,0,0,1,0-.33,2.35,2.35,0,0,1,.31-1.08,3,3,0,0,1,.82-1,2.65,2.65,0,0,1,1.18-.5Z"></path></g>
</symbol>

<symbol id="applications" viewBox="0 0 16 16">
  <title>applications</title><g id="Layer_1" data-name="Layer 1"><path d="M2.48,5.65c.75-.58,1.37-.18,2.19.78.1.11.22,0,.29-.08L6.18,5.26c.05,0,.12-.14,0-.23l-.59-.77c-1.45-1.89,4-3.18,3.13-3.2-.42,0-2.12,0-2.37,0a7.87,7.87,0,0,0-3,1.52,7.71,7.71,0,0,0-1.22,1c-.24.21,0,.69-.48,1.07S1,4.72.7,5l-.61.48a.26.26,0,0,0,0,.38L1.17,7a.35.35,0,0,0,.46,0l.56-.49C2.26,6.54,2.15,5.91,2.48,5.65Zm4.57.42a.21.21,0,0,0-.32,0l-1.15,1a.23.23,0,0,0,0,.32l6.65,7.56a.42.42,0,0,0,.6,0l.78-.65a.44.44,0,0,0,0-.61Zm8.86-3.22c-.06-.4-.26-.31-.37-.15s-.58.88-.77,1.21a1,1,0,0,1-1.55.33c-.92-.65-.6-1.11-.44-1.41s.66-1.17.73-1.28a.22.22,0,0,0-.3-.29c-.28.14-2,.83-2.26,1.81s.21,1.91-.68,2.8L9.19,7l1.08,1.25L11.6,7a1.89,1.89,0,0,1,1.6-.48,2,2,0,0,0,2.45-1A5.71,5.71,0,0,0,15.91,2.85ZM2.16,13.79a.45.45,0,0,0,0,.61l.76.75a.44.44,0,0,0,.6-.07l3.93-3.87L6.25,9.84Z"></path></g>
</symbol>

<symbol id="applications_2" viewBox="0 0 16 16">
  <title>applications_2</title><g id="Layer_1" data-name="Layer 1"><path d="M6.65,6.84H9.21V9.4H6.65Zm-5.13,0H4.08V9.4H1.52Zm10.25,0h2.56V9.4H11.77Zm0,5.13h2.56v2.56H11.77ZM6.65,12H9.21v2.56H6.65ZM1.52,12H4.08v2.56H1.52Zm0-10.25H4.08V4.28H1.52Zm5.13,0H9.21V4.28H6.65Zm5.12,0h2.56V4.28H11.77Z" fill-rule="evenodd"></path></g>
</symbol>

<symbol id="arrow-indent" viewBox="0 0 16 16">
  <title>arrow-indent</title><g id="Layer_1" data-name="Layer 1"><path d="M4.08,9.85V1.69H1.86v8.1A2.18,2.18,0,0,0,4.08,12h8.59V9.85Z" fill-rule="evenodd"></path><polygon points="15.33 10.95 13.76 9.38 10.95 6.57 9.38 8.14 12.19 10.96 9.38 13.77 10.95 15.34 13.76 12.53 15.33 10.96 15.33 10.96 15.33 10.95" fill-rule="evenodd"></polygon></g>
</symbol>

<symbol id="bill" viewBox="0 0 16 16">
  <title>bill</title><g id="Layer_1" data-name="Layer 1"><path d="M13.83,1.4V13.81l-.9-.46L12.24,13l-.65.45-1.37,1-1.56-1L8,13l-.69.41-1.67,1-1.22-.92L3.76,13,3,13.35l-.9.46V1.4h11.7M15.12.1H.83V16L3.62,14.5,5.54,16,8,14.5,10.25,16l2.08-1.45L15.12,16V.1Z"></path><path d="M5.91,6.69c-.7-.29-.82-.44-.82-.66s.16-.43.58-.43a1.64,1.64,0,0,1,.87.24L6.79,6l.38-1L7,4.89a1.87,1.87,0,0,0-.73-.26V3.82H5v.89a1.46,1.46,0,0,0-1,1.41c0,.9.73,1.31,1.45,1.59s.73.46.73.7-.28.52-.68.52a1.91,1.91,0,0,1-1-.29l-.26-.18-.36,1L4,9.57a2.28,2.28,0,0,0,1,.36v.83H6.25V9.82a1.58,1.58,0,0,0,1-1.46A1.81,1.81,0,0,0,5.91,6.69Z"></path><rect x="8.28" y="4.21" width="3.88" height="1.4"></rect><rect x="8.28" y="6.78" width="3.88" height="1.4"></rect><rect x="8.28" y="9.35" width="1.97" height="1.4"></rect></g>
</symbol>

<symbol id="billing" viewBox="0 0 16 16">
  <title>billing</title><g id="Layer_1" data-name="Layer 1"><path d="M.37,0V16l2.77-1.39L5.92,16,8,14.59,10.77,16l2.09-1.39L15.63,16V0ZM14.24,13.73,12.76,13l-2.09,1.39L7.9,13,5.82,14.38,3.14,13l-1.38.69V1.41H14.24Z"></path><rect x="4.21" y="3.62" width="7.74" height="1.35"></rect><rect x="4.21" y="6.31" width="7.74" height="1.35"></rect><rect x="4.21" y="9.01" width="7.74" height="1.35"></rect></g>
</symbol>

<symbol id="book" viewBox="0 0 16 16">
  <title>book</title><g id="Layer_1" data-name="Layer 1"><path d="M15.54,1.67H9.07A1.48,1.48,0,0,0,8,2.12a1.52,1.52,0,0,0-1.08-.45H.46A.44.44,0,0,0,0,2.1v9.58a.44.44,0,0,0,.44.43H6.92a.64.64,0,0,1,.64.64.44.44,0,0,0,.87,0,.64.64,0,0,1,.64-.64h6.47a.43.43,0,0,0,.43-.43V2.1A.43.43,0,0,0,15.54,1.67Zm-8,9.73a1.5,1.5,0,0,0-.64-.14h-6V2.52h6a.64.64,0,0,1,.64.64Zm7.54-.14h-6a1.5,1.5,0,0,0-.64.14V3.16a.64.64,0,0,1,.64-.64h6Zm.44,1.3H9.07a.43.43,0,0,0-.43.43.65.65,0,0,1-1.29,0,.43.43,0,0,0-.43-.43H.46a.43.43,0,1,0,0,.85H6.55a1.51,1.51,0,0,0,2.89,0h6.1a.43.43,0,1,0,0-.85ZM5.84,4.29H2.61a.43.43,0,1,0,0,.85H5.84a.43.43,0,1,0,0-.85Zm0,2.13H2.61a.43.43,0,1,0,0,.85H5.84a.43.43,0,1,0,0-.85Zm0,2.13H2.61a.43.43,0,1,0,0,.85H5.84a.43.43,0,1,0,0-.85Zm4.31-3.41h3.23a.43.43,0,1,0,0-.85H10.15a.43.43,0,1,0,0,.85Zm0,2.13h3.23a.43.43,0,1,0,0-.85H10.15a.43.43,0,1,0,0,.85Zm0,2.13h3.23a.43.43,0,1,0,0-.85H10.15a.43.43,0,1,0,0,.85Z"></path></g>
</symbol>

<symbol id="calendar" viewBox="0 0 16 16">
  <title>calendar</title><g id="Layer_1" data-name="Layer 1"><path d="M15.17,2.53V0H10.11V2.53H5.93V0H.83V2.53H0V16H16V2.53Zm-.86,4.82H11.43V4.24h2.88Zm-2.88.38h2.88v3.11H11.43Zm.37-6.05h1.68V3.39H11.8ZM11,4.24V7.35H8.15V4.24Zm-6.55,6.6H1.69V7.73h2.8Zm.38-3.11H7.76v3.11H4.87Zm2.89,3.5v3.12H4.87V11.23Zm.39-3.5H11v3.11H8.15ZM11,11.23v3.12H8.15V11.23Zm-3.28-7V7.35H4.87V4.24ZM2.55,1.68H4.21V3.39H2.55ZM4.49,4.24V7.35H1.69V4.24Zm-2.8,7h2.8v3.12H1.69Zm9.74,3.12V11.23h2.88v3.12Z" fill-rule="evenodd"></path></g>
</symbol>

<symbol id="campus" viewBox="0 0 16 16">
  <title>campus</title><g id="Layer_1" data-name="Layer 1"><path d="M7.88,3.37V.1L.12,2.63V15.89H15.88V5ZM5.12,14.79h-2V11.2h2Zm1.66,0H6V10.32H2.27v4.47h-1V3.43L6.78,1.61V14.79Zm1.1,0V4.5l6.9,1.37v5.67h-1v.88h1v.78H12.56v.88h2.22v.71Z"></path><path d="M13.74,7.16H9V10h4.73Zm-.88,2h-3V8.05h3Z"></path><path d="M4.13,4.4A1.38,1.38,0,1,0,5.51,5.78,1.37,1.37,0,0,0,4.13,4.4Zm0,1.88a.5.5,0,0,1-.49-.5.5.5,0,1,1,1,0A.5.5,0,0,1,4.13,6.28Z"></path></g>
</symbol>

<symbol id="check" viewBox="0 0 16 16">
  <title>check</title><g id="Layer_1" data-name="Layer 1"><path d="M15.77,4.47,13.13,1.76a.24.24,0,0,0-.35,0L6.27,8.44a.24.24,0,0,1-.35,0L3.13,5.57a.24.24,0,0,0-.35,0L.23,8.19a.24.24,0,0,0,0,.35L6,14.45a.24.24,0,0,0,.35,0l9.38-9.62A.25.25,0,0,0,15.77,4.47Z" fill-rule="evenodd"></path></g>
</symbol>

<symbol id="checkr" viewBox="0 0 16 16">
  <title>checkr</title><g id="Layer_1" data-name="Layer 1"><path id="Main-UI" d="M7.22,7.7a.6.6,0,0,1,.56.53H6.62a.6.6,0,0,1,.6-.53Zm1,.07a1,1,0,0,0-.34-.4,1.17,1.17,0,0,0-1.09-.13,1.2,1.2,0,0,0-.7.73,1.83,1.83,0,0,0-.1.7,1.63,1.63,0,0,0,.15.65,1.17,1.17,0,0,0,.54.56,1.41,1.41,0,0,0,.64.09A1.19,1.19,0,0,0,8,9.78a1,1,0,0,0,.32-.31l-.36-.35h0a.82.82,0,0,1-.83.3.65.65,0,0,1-.49-.66H8.36A1.63,1.63,0,0,0,8.22,7.77Zm4.51,2.15h.66l-1-1.69,1-1h-.75l-.45.46c-.15.15-.29.32-.45.47h0V6.08h-.54v2.4a.52.52,0,0,1-.17.49,1.28,1.28,0,0,1-.81.49A.69.69,0,0,1,9.31,9a1.43,1.43,0,0,1,0-.74.73.73,0,0,1,.26-.39.69.69,0,0,1,.85,0,.08.08,0,0,0,0,0l.32-.4a1.08,1.08,0,0,0-.37-.26,1.31,1.31,0,0,0-.83,0,1.11,1.11,0,0,0-.8.78,1.75,1.75,0,0,0,0,1.13,1.07,1.07,0,0,0,.39.6,1.35,1.35,0,0,0,1,.26,1.55,1.55,0,0,0,.85-.36l.06,0c0,.12,0,.24,0,.35h.54V9L12,8.67l.75,1.25ZM4,9.92V8.58a2.45,2.45,0,0,1,0-.39.63.63,0,0,1,.67-.49A.35.35,0,0,1,5.06,8s0,.1,0,.16V9.93h.55V8.07a2.11,2.11,0,0,0,0-.25A.7.7,0,0,0,5,7.2a1.16,1.16,0,0,0-.93.16L4,7.41V6.07H3.47v.11c0,.54,0,1.09,0,1.65a.78.78,0,0,1-.12.45,2.76,2.76,0,0,1-.69.83,1.3,1.3,0,0,1-1.08.23A.89.89,0,0,1,1,9,1.84,1.84,0,0,1,.76,8,1.92,1.92,0,0,1,.87,7.3a1.21,1.21,0,0,1,.39-.55,1,1,0,0,1,.63-.17.74.74,0,0,1,.61.3L2.61,7,3,6.55a1.12,1.12,0,0,0-.39-.36,1.69,1.69,0,0,0-1-.16,1.42,1.42,0,0,0-1.09.74A2.47,2.47,0,0,0,.17,8.2a2.34,2.34,0,0,0,.25.93,1.31,1.31,0,0,0,1,.79A2,2,0,0,0,2,10a1.44,1.44,0,0,0,.5-.1,2.42,2.42,0,0,0,.86-.58l.08-.09h0v.71ZM15.83,7.66a.16.16,0,0,0-.08.06c-.12.11-.24.24-.36.37L15.32,8a.48.48,0,0,0-.6-.23.41.41,0,0,0-.27.21,1,1,0,0,0-.17.6V9.92a2,2,0,0,1-.55,0V7.23h.54v.18l.06,0A1,1,0,0,1,15,7.16a1,1,0,0,1,.57.17,1.34,1.34,0,0,1,.23.25l0,.06Z"></path></g>
</symbol>

<symbol id="chevron-l" viewBox="0 0 16 16">
  <title>chevron-l</title><g id="Layer_1" data-name="Layer 1"><path d="M11.74,15.93a1.24,1.24,0,0,1-.88-.36L3.29,8,10.86.43a1.26,1.26,0,0,1,1.76,0,1.26,1.26,0,0,1,0,1.76L6.81,8l5.81,5.81a1.26,1.26,0,0,1,0,1.76A1.24,1.24,0,0,1,11.74,15.93Z"></path></g>
</symbol>

<symbol id="chevron-r" viewBox="0 0 16 16">
  <title>chevron-r</title><g id="Layer_1" data-name="Layer 1"><path d="M4.4,15.93a1.24,1.24,0,0,0,.88-.36L12.85,8,5.28.43a1.26,1.26,0,0,0-1.76,0,1.24,1.24,0,0,0,0,1.76L9.32,8l-5.8,5.81a1.24,1.24,0,0,0,.88,2.12Z"></path></g>
</symbol>

<symbol id="chrome" viewBox="0 0 16 16">
  <title>chrome</title><g id="Layer_1" data-name="Layer 1"><path d="M8.05,4.62h7a7.93,7.93,0,0,0-7-4.5,7.87,7.87,0,0,0-6.2,3L4.57,7.81A3.34,3.34,0,0,1,8.05,4.62Zm0,6.77A3.47,3.47,0,0,1,4.79,9.14l0,0L1.53,3.52A7.85,7.85,0,0,0,6.9,15.72L9.61,11A3.55,3.55,0,0,1,8,11.39ZM15.28,5H9.86a3.46,3.46,0,0,1,.81,5.17L7.46,15.79H8A7.83,7.83,0,0,0,15.85,8,7.74,7.74,0,0,0,15.28,5ZM5.09,7.89A2.93,2.93,0,1,0,8,5,2.93,2.93,0,0,0,5.09,7.89Z" fill-rule="evenodd"></path></g>
</symbol>

<symbol id="church-center-o" viewBox="0 0 16 16">
  <title>church-center-o</title><g id="Layer_1" data-name="Layer 1"><path d="M14.13,5.21,14,5C12.82,3.82,9,.6,8.82.51a1.32,1.32,0,0,0-1.73,0l-5,4.26L2,4.86c-.26.17-.34.35-.26,5.3,0,2.26.09,4.61.09,4.61a1,1,0,0,0,1,1H5.61a1.05,1.05,0,0,0,1-1V12.25a4.55,4.55,0,0,1,1.3-3,4.52,4.52,0,0,1,1.31,3v2.61a1,1,0,0,0,1,1h2.78a1,1,0,0,0,1-1l.17-4.7A28.2,28.2,0,0,0,14.13,5.21Zm-1.57-.09A17.19,17.19,0,0,0,8,7.73,17.24,17.24,0,0,0,5.26,5.9C4.65,5.64,4,5.38,3.35,5.12L7.78,1.3A.16.16,0,0,1,8,1.3ZM10.3,14.77V12.25A5.5,5.5,0,0,0,8.74,8.51a13.64,13.64,0,0,1,4.17-2.35c.09,0,.17-.08.26-.08.09,1.47,0,5.47-.17,8.78ZM5.61,12.25v2.52H2.91c-.17-3.3-.26-7.3-.17-8.78.69.26,1.3.52,1.91.78A13.77,13.77,0,0,1,7.26,8.42,5.44,5.44,0,0,0,5.61,12.25Z"></path><path d="M6.39,4.6A1.55,1.55,0,0,0,8,6.08,1.57,1.57,0,0,0,9.52,4.51,1.49,1.49,0,0,0,8,3,1.56,1.56,0,0,0,6.39,4.6Zm2.26,0A.7.7,0,1,1,8,3.9.69.69,0,0,1,8.65,4.6Z"></path></g>
</symbol>

<symbol id="compass" viewBox="0 0 16 16">
  <title>compass</title><g id="Layer_1" data-name="Layer 1"><path d="M8,.13A7.87,7.87,0,1,0,15.89,8,7.89,7.89,0,0,0,8,.13ZM8,14.77A6.77,6.77,0,1,1,14.79,8,6.79,6.79,0,0,1,8,14.77ZM8,2.3A5.7,5.7,0,1,0,13.71,8,5.71,5.71,0,0,0,8,2.3ZM8,13.06A5.06,5.06,0,1,1,13.07,8,5.07,5.07,0,0,1,8,13.06Zm2.41-7.89L7.06,6.92a.32.32,0,0,0-.14.14L5.15,10.42a.33.33,0,0,0,.28.48.42.42,0,0,0,.16,0L8.94,9.07S9,9,9,9H9S9,9,9,9s0,0,0,0L10.85,5.6a.32.32,0,0,0-.06-.37A.3.3,0,0,0,10.41,5.17ZM7.29,7.75l1,1-2,1.09Zm1.42.5-1-1,2-1.07Z"></path></g>
</symbol>

<symbol id="contact-card" viewBox="0 0 16 16">
  <title>contact-card</title><g id="Layer_1" data-name="Layer 1"><path d="M13.13,5.89h-5v.88h5Zm0,1.75h-5v.89h5ZM10.5,9.39H8.11v.88H10.5ZM6.11,8.2,5.59,8a.91.91,0,0,0,.46-.79V6.46a1.44,1.44,0,1,0-2.88,0V7.2A.89.89,0,0,0,3.63,8l-.52.21a1,1,0,0,0-.64.94v1.48a.52.52,0,0,0,.52.52H6.23a.52.52,0,0,0,.52-.52V9.14A1,1,0,0,0,6.11,8.2ZM4,6.46a.67.67,0,0,1,.66-.66.66.66,0,0,1,.65.66V7.2a.11.11,0,0,1-.06.11l-.44.24a.34.34,0,0,1-.31,0L4,7.31A.12.12,0,0,1,4,7.2Zm2,3.9H3.25V9.14a.24.24,0,0,1,.15-.21l1.22-.48,1.2.48A.22.22,0,0,1,6,9.14Z"></path><path d="M15.09,2.17V13.83H.89V2.17h14.2m0-.9H.89a.91.91,0,0,0-.9.9V13.83a.91.91,0,0,0,.9.9h14.2a.9.9,0,0,0,.9-.9V2.17a.9.9,0,0,0-.9-.9Z"></path></g>
</symbol>

<symbol id="down-arrow" viewBox="0 0 16 16">
  <title>down-arrow</title><g id="Layer_1" data-name="Layer 1"><path d="M12.81,7l-4.1,5.25a.77.77,0,0,1-1.2,0L3.41,7A.76.76,0,0,1,4,5.75h8.2A.76.76,0,0,1,12.81,7Z"></path></g>
</symbol>

<symbol id="edit-person" viewBox="0 0 16 16">
  <title>edit-person</title><g id="Layer_1" data-name="Layer 1"><circle cx="7.11" cy="3.39" r="3.38"></circle><rect x="9.48" y="11.58" width="4.19" height="2.17" transform="translate(-5.15 8.83) rotate(-34.65)"></rect><path d="M9.06,15.72,7.39,16A.38.38,0,0,1,7,15.42l.83-1.48.85-.59,1.23,1.78Z"></path><path d="M14.49,12l-1.23-1.79,1.29-.89a.49.49,0,0,1,.69.13l.67,1a.5.5,0,0,1-.13.7Z"></path><path d="M11.87,9.53a.24.24,0,0,0,.07-.32C11.32,8.19,10.14,8,8.79,8H5.42A3.42,3.42,0,0,0,2,11.42v.35a.23.23,0,0,0,.23.23H8.16a.2.2,0,0,0,.13,0Z"></path></g>
</symbol>

<symbol id="editor" viewBox="0 0 16 16">
  <title>editor</title><g id="Layer_1" data-name="Layer 1"><path d="M14.11,4.43a1.42,1.42,0,0,0,0-2L12.37.67a1.42,1.42,0,0,0-1-.42,1.44,1.44,0,0,0-1,.42l-7,7v3.71l3.81,0ZM4.48,10.24V8.15l6.67-6.67a.3.3,0,0,1,.2-.08.32.32,0,0,1,.2.08l1.73,1.74a.27.27,0,0,1,0,.4L6.67,10.25Z"></path><rect x="0.85" y="13.46" width="13.75" height="1.5"></rect></g>
</symbol>

<symbol id="editor_1" viewBox="0 0 16 16">
  <title>editor_1</title><g id="Layer_1" data-name="Layer 1"><path d="M14.38,4.8a1.44,1.44,0,0,0,0-2L12.64,1a1.42,1.42,0,0,0-1-.42,1.44,1.44,0,0,0-1,.42l-7,7v3.71H7.42ZM4.75,10.6V8.51l6.67-6.66a.29.29,0,0,1,.4,0l1.74,1.73a.33.33,0,0,1,.08.21.32.32,0,0,1-.08.2L6.94,10.61Z"></path><rect x="1.13" y="13.82" width="13.75" height="1.5"></rect></g>
</symbol>

<symbol id="firefox" viewBox="0 0 16 16">
  <title>firefox</title><g id="Layer_1" data-name="Layer 1"><path d="M14.39,3.61c-.05-.22-.12-.5-.19-.78l.11,0c.86,1.06.93,2.4,1.18,3.73L15.62,6h.06a1.11,1.11,0,0,1,.07.22,11.19,11.19,0,0,1-1.66,6.49,6.83,6.83,0,0,1-4.77,3A7.25,7.25,0,0,1,4.5,15a8,8,0,0,1-4-5.52l0-.14-.13.22V7.43l-.15.05a4.84,4.84,0,0,1,.14-.72c.24-.69.51-1.36.75-2a1.55,1.55,0,0,0,.09-.57,3.8,3.8,0,0,1,.48-2A4.14,4.14,0,0,1,2,1.74l.39,1A7.31,7.31,0,0,1,8.61.28,8.39,8.39,0,0,1,14.39,3.61Zm-2.8-1.93A6.87,6.87,0,0,0,2.66,3.13c.21,0,.37.06.53.07.41,0,.81,0,1.21,0a.8.8,0,0,0,.41-.13,3.18,3.18,0,0,1,1.64-.71,1.13,1.13,0,0,1,.3,0A7.64,7.64,0,0,0,6,3.21c-.48.74-.15,1.37.71,1.41h.65c.45,0,.58.22.37.64a1.12,1.12,0,0,1-.32.33c-.28.21-.56.39-.85.57a.56.56,0,0,0-.23.61,8.14,8.14,0,0,1,.08.82A3.75,3.75,0,0,1,6,7.45a.52.52,0,0,0-.71.15.66.66,0,0,0,0,.79,1.77,1.77,0,0,0,1.88.77c.31-.09.6-.24.91-.32a1.38,1.38,0,0,1,1.47.45c.22.25.12.58-.17.58a2,2,0,0,0-1,.45,6.84,6.84,0,0,1-1.14.51,5.88,5.88,0,0,1-1,.13,4.15,4.15,0,0,0,3.14.95,4.25,4.25,0,0,0,2.49-2.07l.1.06c-.06.32-.11.64-.17,1a4.77,4.77,0,0,0,.62-3.2l.09,0,.49.43a6.86,6.86,0,0,0,0-2.89c.12,0,.17,0,.2.07l.36.31a4.31,4.31,0,0,0-3.27-2.88l.05-.1,1.26-.24v-.1l-1.9-.58A3.61,3.61,0,0,1,11.59,1.68Z" fill-rule="evenodd"></path></g>
</symbol>

<symbol id="household-error" viewBox="0 0 16 16">
  <title>household-error</title><g id="Layer_1" data-name="Layer 1"><path d="M15.42,7.5l-1-.91V3.69a1,1,0,0,0-1-1h-1.3a1,1,0,0,0-1,1v0L9.17,2.05A1.72,1.72,0,0,0,8,1.62a1.75,1.75,0,0,0-1.15.43L.62,7.5A1,1,0,0,0,.34,8.63a1,1,0,0,0,1,.66H2.37v4.05a1.16,1.16,0,0,0,1.15,1.18h9a1.21,1.21,0,0,0,1.21-1.18V9.29h1a1,1,0,0,0,1-.67A1,1,0,0,0,15.42,7.5Zm-2.26.76a.5.5,0,0,0-.5.5v4.58a.15.15,0,0,1-.15.15h-9a.14.14,0,0,1-.15-.15V8.76a.5.5,0,0,0-.5-.5H1.3L7.55,2.82A.71.71,0,0,1,8,2.65a.73.73,0,0,1,.47.17l3.2,2.79a.24.24,0,0,0,.4-.18V3.71h1.26v3a.86.86,0,0,0,.29.64l1.09,1Z"></path><path d="M6.2,8.67h0a.27.27,0,0,0-.39,0L5.44,9l-.37-.36a.27.27,0,0,0-.39,0h0a.27.27,0,0,0,0,.39l.37.37-.37.36a.27.27,0,0,0,0,.39h0a.29.29,0,0,0,.39,0l.37-.37.37.37a.29.29,0,0,0,.39,0h0a.27.27,0,0,0,0-.39l-.36-.36.36-.37A.27.27,0,0,0,6.2,8.67Z"></path><path d="M11.36,8.67h0a.27.27,0,0,0-.39,0L10.6,9l-.37-.36a.27.27,0,0,0-.39,0h0a.27.27,0,0,0,0,.39l.37.37-.37.36a.27.27,0,0,0,0,.39h0a.29.29,0,0,0,.39,0l.37-.37.37.37a.29.29,0,0,0,.39,0h0a.27.27,0,0,0,0-.39L11,9.43l.37-.37A.27.27,0,0,0,11.36,8.67Z"></path><path d="M9.65,12a2.51,2.51,0,0,0-3.26,0,.3.3,0,0,0,0,.46h0a.29.29,0,0,0,.4,0,1.91,1.91,0,0,1,2.46,0,.29.29,0,0,0,.4,0h0A.31.31,0,0,0,9.65,12Z"></path></g>
</symbol>

<symbol id="ie" viewBox="0 0 16 16">
  <title>ie</title><g id="Layer_1" data-name="Layer 1"><path d="M11.85,9.27h3.94a5.61,5.61,0,0,0,.06-.92,7.42,7.42,0,0,0-4.73-6.8l.21,0s5-2.31,3.32,2.82l.2.35S16.3.85,14,.2c-1.92-.54-4.75,1-4.75,1l.1,0a4.61,4.61,0,0,0-.53,0,7,7,0,0,0-7,6A18.28,18.28,0,0,1,5.23,3.81S2.5,6.31,1.71,8.35a16.28,16.28,0,0,0-1.34,3.2c-.21.83-.72,3.81,1.34,4.16a5.74,5.74,0,0,0,3.84-.81l0,0a6.85,6.85,0,0,0,3.27.84,7.1,7.1,0,0,0,6.71-5.05h-4a2.83,2.83,0,0,1-2.69,1.69c-1.53,0-2.65-1.17-2.94-3.08h6ZM5.07,14.61a6.09,6.09,0,0,1-2.19.65c-3.06,0-.76-4.45-.76-4.45h0a7.39,7.39,0,0,0,3,3.81Zm3.71-10a2.63,2.63,0,0,1,2.8,2.63H5.85A2.93,2.93,0,0,1,8.78,4.56Z"></path></g>
</symbol>

<symbol id="integration-connected" viewBox="0 0 16 16">
  <title>integration-connected</title><g id="Layer_1" data-name="Layer 1"><path d="M15.24,7.5h-2.1a3.07,3.07,0,0,0-3-2.57H9.07a.49.49,0,0,0-.48.48v.77H7.49V5.37A.48.48,0,0,0,7,4.9H6a3,3,0,0,0-3,2.6H.84a.51.51,0,0,0-.55.44.52.52,0,0,0,.44.56H2.86a3,3,0,0,0,3,2.6H6.94a.48.48,0,0,0,.47-.47V9.82H8.59v.77a.49.49,0,0,0,.48.48h1a3.05,3.05,0,0,0,3-2.61h2.05A.51.51,0,0,0,15.71,8,.55.55,0,0,0,15.24,7.5ZM6.53,10.11H6A2.09,2.09,0,0,1,3.85,8,2.12,2.12,0,0,1,6,5.93h.58S6.5,10.11,6.53,10.11Zm.92-1.28V7.17H8.59V8.83Zm2.68,1.28H9.47V5.89h.59A2.13,2.13,0,0,1,12.19,8,2.08,2.08,0,0,1,10.13,10.11Z"></path></g>
</symbol>

<symbol id="integration-disconnected" viewBox="0 0 16 16">
  <title>integration-disconnected</title><g id="Layer_1" data-name="Layer 1"><path id="Symbols" d="M4.14,8.83a.51.51,0,0,0-.55.44A.53.53,0,0,0,4,9.82h1.2v.81a.48.48,0,0,0,.47.47H6.8a3,3,0,0,0,3-2.6H12a.5.5,0,0,0,0-1H9.84a3.08,3.08,0,0,0-3-2.6H5.74a.48.48,0,0,0-.47.47h0v.81H4.14a.63.63,0,0,0-.55.48.52.52,0,0,0,.48.55h1.2V8.83ZM6.21,5.89H6.8A2.08,2.08,0,0,1,8.87,8,2.1,2.1,0,0,1,6.8,10.07H6.21V5.89Z"></path></g>
</symbol>

<symbol id="integrations" viewBox="0 0 16 16">
  <title>integrations</title><g id="Layer_1" data-name="Layer 1"><path d="M8.78,7.87l-5,5-1.5-1.5L4.78,8.88H0V6.76H4.65L2.24,4.35l1.5-1.5ZM16,9V6.86l-1.85-.53A6,6,0,0,0,13.59,5l.93-1.68L13,1.79l-1.67.93A6.07,6.07,0,0,0,10,2.16L9.44.31H7.32L6.79,2.16a5.3,5.3,0,0,0-.67.23L7.72,4a4.76,4.76,0,0,1,.66-.06,4,4,0,1,1,0,8,4.65,4.65,0,0,1-.75-.07L6.05,13.43a6.49,6.49,0,0,0,.74.26l.53,1.85H9.44L10,13.69a6.07,6.07,0,0,0,1.37-.56l1.67.93,1.51-1.5-.93-1.68a6,6,0,0,0,.56-1.36Z"></path></g>
</symbol>

<symbol id="integrations_1" viewBox="0 0 16 16">
  <title>integrations_1</title><g id="Layer_1" data-name="Layer 1"><path d="M15.81.33a.65.65,0,0,0-.93,0L13.43,1.78a4.43,4.43,0,0,0-5.95.29l-.85.86a.72.72,0,0,0,0,1l5.46,5.46a.73.73,0,0,0,.51.21.75.75,0,0,0,.52-.21L14,8.56a4.44,4.44,0,0,0,.38-5.84l1.46-1.46A.67.67,0,0,0,15.81.33ZM13,7.63l-.44.44L8,3.44,8.41,3a3.15,3.15,0,0,1,4.45,0l.18.18A3.13,3.13,0,0,1,13,7.63ZM8.87,8.92,7.65,10.14,6,8.49,7.23,7.25a.66.66,0,1,0-.93-.93L5.07,7.55l-1-1a.72.72,0,0,0-1,0l-.86.86a4.44,4.44,0,0,0-.38,5.84L.38,14.74a.65.65,0,0,0,0,.93.62.62,0,0,0,.46.19.66.66,0,0,0,.47-.19l1.45-1.45a4.4,4.4,0,0,0,5.94-.3l.86-.85a.74.74,0,0,0,0-1l-1-1L9.8,9.85a.66.66,0,1,0-.93-.93ZM7.77,13a3.15,3.15,0,0,1-4.45,0l-.18-.18a3.15,3.15,0,0,1,0-4.44l.44-.44,4.63,4.62Z"></path></g>
</symbol>

<symbol id="iphone" viewBox="0 0 16 16">
  <title>iphone</title><g id="Layer_1" data-name="Layer 1"><path d="M11.17,1.36H5.09a1.73,1.73,0,0,0-1.7,1.76V13.19a1.71,1.71,0,0,0,1.7,1.72h6.08a1.71,1.71,0,0,0,1.7-1.72V3.12A1.73,1.73,0,0,0,11.17,1.36ZM7.46,13.23a.68.68,0,1,1,.68.68A.68.68,0,0,1,7.46,13.23Zm4.11-1.66H4.7V3.12a.4.4,0,0,1,.39-.41h6.08a.4.4,0,0,1,.4.41Z" fill-rule="evenodd"></path></g>
</symbol>

<symbol id="keys" viewBox="0 0 16 16">
  <title>keys</title><g id="Layer_1" data-name="Layer 1"><g id="Your_Icon" data-name="Your Icon"><path d="M3.34,15.61l-.17,0a1.28,1.28,0,0,1-.71-.72,1.2,1.2,0,0,1,.17-1L3,13.27a.55.55,0,0,1,.25-.2L3.45,13l-.24-1a.45.45,0,0,1,.06-.36.47.47,0,0,1,.3-.21l1-.23v-.74a.46.46,0,0,1,.06-.23L5.37,9a2.89,2.89,0,0,1,.1-2.86A2.83,2.83,0,0,1,7.1,4.87a.87.87,0,0,1,.56-.06.47.47,0,1,1-.23.91,2.12,2.12,0,0,0-1.17.89,2,2,0,0,0,0,2.1.46.46,0,0,1,0,.49l-.79,1.39v1a.47.47,0,0,1-.37.46l-.93.2.23.95a.48.48,0,0,1-.32.56l-.48.15-.23.39a.35.35,0,0,0-.08.26.18.18,0,0,0,.07.09l.89-.21L7.18,9.77a.47.47,0,0,1,.47-.22,1.91,1.91,0,0,0,1.58-.5h0a.69.69,0,0,0,.14-.27.48.48,0,0,1,.57-.34.49.49,0,0,1,.34.58,1.7,1.7,0,0,1-.4.71,2.93,2.93,0,0,1-2.05.77L5,15.09a.45.45,0,0,1-.29.21l-1.26.3Z"></path><path d="M5.49,8.14l-.13,0a6.88,6.88,0,0,1-.74-.28A4,4,0,0,1,2.5,5.53a4.11,4.11,0,1,1,7.59.32.47.47,0,0,1-.62.22.47.47,0,0,1-.23-.62A3.13,3.13,0,0,0,9.35,3,3.18,3.18,0,1,0,5,7a5.37,5.37,0,0,0,.59.22.47.47,0,0,1,.33.58A.48.48,0,0,1,5.49,8.14Z"></path><path d="M13,16a1.23,1.23,0,0,1-1.16-.91l-.23-.65a.47.47,0,0,1,0-.33l.11-.29-1.06-.5a.47.47,0,0,1-.25-.27.45.45,0,0,1,0-.36l.53-1.09L10.24,11a.45.45,0,0,1-.14-.19L9.49,9.32a3.13,3.13,0,0,1-.51-6A3.19,3.19,0,0,1,10,3.11a3.12,3.12,0,0,1,2.37,5.17l2,5.65a.5.5,0,0,1,0,.36l-.61,1.3a.46.46,0,0,1-.19.2A1.44,1.44,0,0,1,13,16Zm-.45-1.71.17.48c.11.3.23.3.28.3l.1,0,.45-1L11.44,8.33a.47.47,0,0,1,.11-.5A2.19,2.19,0,0,0,10,4a2.11,2.11,0,0,0-.75.13,2.2,2.2,0,0,0,.57,4.26.49.49,0,0,1,.4.29l.66,1.66.87.7a.45.45,0,0,1,.13.57l-.49,1,1,.49a.46.46,0,0,1,.24.59Z"></path><path d="M9.77,6.37a.84.84,0,0,1-.29-1.62.84.84,0,0,1,1,1.14.86.86,0,0,1-.47.43A.92.92,0,0,1,9.77,6.37Zm0-.93h0a.1.1,0,0,0-.06,0,.11.11,0,0,0,0,.08.1.1,0,0,0,.09.07c.09,0,.12-.09.1-.14A.1.1,0,0,0,9.77,5.44Z"></path></g></g>
</symbol>

<symbol id="lightbulb" viewBox="0 0 16 16">
  <title>lightbulb</title><g id="Layer_1" data-name="Layer 1"><path d="M10.21,4.86a.38.38,0,0,1-.35.35.39.39,0,0,1-.36-.35c0-.71-1.06-1-1.59-1a.38.38,0,0,1-.26-.35A.37.37,0,0,1,8,3.18C8.89,3.26,10.21,3.71,10.21,4.86Zm1.51,0c0-1.95-2-3.1-3.72-3.1S4.28,2.82,4.28,4.86A2.82,2.82,0,0,0,5,6.63c.09.18.35.35.53.62a5.66,5.66,0,0,1,1.42,2.92H9.15a5,5,0,0,1,1.42-2.92,3.63,3.63,0,0,1,.62-.62A3.22,3.22,0,0,0,11.72,4.86Zm1.32,0a4.24,4.24,0,0,1-1,2.65c-.62.8-1.59,1.77-1.68,2.84a.9.9,0,0,1,.44.79.82.82,0,0,1-.26.62.84.84,0,0,1,.26.62.92.92,0,0,1-.44.8.76.76,0,0,1,.09.44,1,1,0,0,1-1.06,1,1.68,1.68,0,0,1-1.42,1,1.53,1.53,0,0,1-1.42-1,.94.94,0,0,1-1.06-1,3.65,3.65,0,0,1,.09-.44,1,1,0,0,1-.44-.8.84.84,0,0,1,.26-.62.82.82,0,0,1-.26-.62.9.9,0,0,1,.44-.79A5.2,5.2,0,0,0,3.93,7.51,3.5,3.5,0,0,1,3,4.86C3,2.2,5.52.43,8,.43S13,2.11,13,4.86Z"></path></g>
</symbol>

<symbol id="location" viewBox="0 0 16 16">
  <title>location</title><g id="Layer_1" data-name="Layer 1"><path d="M13.21,3.46a5.64,5.64,0,0,0-3-3A5.58,5.58,0,0,0,8,0a5.65,5.65,0,0,0-2.2.44A5.92,5.92,0,0,0,4,1.65,5.92,5.92,0,0,0,2.79,3.46a5.66,5.66,0,0,0-.44,2.21A4.84,4.84,0,0,0,2.6,7.25a6.91,6.91,0,0,0,.65,1.44l3.82,6.64A1.11,1.11,0,0,0,8,16,1.15,1.15,0,0,0,9,15.33l3.8-6.62a7.8,7.8,0,0,0,.66-1.44,5.3,5.3,0,0,0,.24-1.6A5.66,5.66,0,0,0,13.21,3.46ZM8,8.48a2.83,2.83,0,1,1,2.83-2.83A2.83,2.83,0,0,1,8,8.48Z"></path></g>
</symbol>

<symbol id="mailchimp" viewBox="0 0 16 16">
  <title>mailchimp</title><g id="Layer_1" data-name="Layer 1"><path d="M6.29,7.49A.4.4,0,0,0,6,7.75s0,.1,0,.1,0,0,0-.12a.3.3,0,0,0-.32-.23.38.38,0,0,0-.34.27c0,.06,0,.08,0,.08s0,0,0-.11a.5.5,0,0,0,0-.21H4.85V8.75H5.3V8.14c0-.12,0-.27.14-.27s.12.07.12.22v.66H6V8.14c0-.11,0-.27.14-.27s.12.1.12.21v.67H6.7V8C6.7,7.71,6.58,7.49,6.29,7.49Z"></path><path d="M13.84,7.48a.36.36,0,0,0-.33.25c0,.06,0,.1-.06.1s0,0,0-.12a.3.3,0,0,0-.32-.23.37.37,0,0,0-.33.27c0,.06,0,.08,0,.08s0,0,0-.11a.61.61,0,0,0,0-.21h-.32V8.73h.44V8.12c0-.12.05-.27.14-.27s.12.08.12.22v.66h.45V8.12c0-.11,0-.27.13-.27s.12.11.12.22v.66h.44V8C14.25,7.69,14.14,7.48,13.84,7.48Z"></path><path d="M7.46,7.49a1.34,1.34,0,0,0-.59.13V8a1.19,1.19,0,0,1,.49-.16c.18,0,.2.09.19.17H7.34c-.36,0-.54.17-.54.43a.36.36,0,0,0,.38.36.45.45,0,0,0,.4-.26s0-.09,0-.09,0,0,0,.08a.86.86,0,0,0,0,.24H8V8.14C8,7.77,7.86,7.49,7.46,7.49Zm-.11,1c-.11,0-.16,0-.16-.08s.1-.13.24-.13h.12A.33.33,0,0,1,7.35,8.46Z"></path><rect x="8.73" y="7.15" width="0.45" height="1.6" transform="translate(-0.02 0.02) rotate(-0.14)"></rect><path d="M9.66,8.13c0-.11.1-.21.29-.21a.75.75,0,0,1,.41.12V7.61a.68.68,0,0,0-.45-.12.58.58,0,0,0-.62.62.6.6,0,0,0,.62.66.7.7,0,0,0,.45-.16v-.4a.76.76,0,0,1-.4.13C9.74,8.34,9.66,8.24,9.66,8.13Z"></path><path d="M11.26,7.48a.44.44,0,0,0-.38.29s0,.07,0,.07,0-.06,0-.09a1.43,1.43,0,0,0,.07-.43,1.76,1.76,0,0,0,0-.18H10.5v1.6H11V8.13c0-.1,0-.28.15-.28s.12.07.12.21v.68h.45V8.09C11.67,7.77,11.61,7.48,11.26,7.48Z"></path><path d="M11.81,7.51V8.74h.45V7.51a.56.56,0,0,1-.23,0A.53.53,0,0,1,11.81,7.51Z"></path><ellipse cx="12.03" cy="7.3" rx="0.27" ry="0.18" transform="translate(-0.02 0.03) rotate(-0.14)"></ellipse><path d="M8.14,7.52V8.74h.45V7.52a.62.62,0,0,1-.44,0Z"></path><ellipse cx="8.36" cy="7.31" rx="0.27" ry="0.18" transform="translate(-0.02 0.02) rotate(-0.14)"></ellipse><path d="M15.13,7.47a.42.42,0,0,0-.37.27c0,.07,0,.09,0,.09s0,0,0-.12a.5.5,0,0,0,0-.21h-.33V9.07h.44v-.5a.32.32,0,0,0,.3.18c.32,0,.49-.27.48-.64S15.43,7.47,15.13,7.47Zm-.12,1c-.1,0-.17-.12-.17-.3s.07-.31.17-.31.18.11.18.3S15.14,8.46,15,8.46Z"></path><path d="M3.28,7.87h.09a.42.42,0,0,0,0-.16c0-.1-.05-.15-.11-.15s0,.08,0,.18A.32.32,0,0,0,3.28,7.87Z"></path><path d="M2.79,8s.07,0,.08,0a0,0,0,0,0,0,0,.22.22,0,0,0-.1-.09.28.28,0,0,0-.28,0s-.06,0,0,.06h0a1,1,0,0,1,.19,0A.26.26,0,0,1,2.79,8Z"></path><path d="M2.71,8a.19.19,0,0,0-.1,0,.05.05,0,0,0,0,0h0a.65.65,0,0,1,.18,0h0V8A.16.16,0,0,0,2.71,8Z"></path><path d="M3.12,8.17a.07.07,0,0,0,.09,0s0-.06,0-.08a.08.08,0,0,0-.09,0S3.08,8.15,3.12,8.17Z"></path><path d="M3.35,8a.07.07,0,0,0,0,.14s0,0,0-.07S3.38,8,3.35,8Z"></path><path d="M1.38,8.7H1.32a.05.05,0,0,1-.05,0,.14.14,0,0,1,0-.09h0a.25.25,0,0,0,0-.23.21.21,0,0,0-.15-.11A.24.24,0,0,0,1,8.29a.22.22,0,0,0-.06.21h0s0,0,0,0H1l0-.06s0-.05.07-.05a.13.13,0,0,1,.09,0,.11.11,0,0,1,.05.14.23.23,0,0,0,0,.12.12.12,0,0,0,.11.13.09.09,0,0,0,.08,0A0,0,0,0,0,1.38,8.7Z"></path><path d="M4.09,8.53a.43.43,0,0,0,0-.1.78.78,0,0,1,0-.09.31.31,0,0,0,0-.23A.27.27,0,0,0,4,8a.64.64,0,0,0-.3-.15l-.08,0s0-.18,0-.26a.64.64,0,0,0,0-.22A.55.55,0,0,0,3.42,7a1,1,0,0,0,.31-.6c0-.36-.44-.47-1-.24l-.12.05L2.42,6C1.8,5.49-.12,7.64.5,8.16l.13.11a.78.78,0,0,0,0,.31A.61.61,0,0,0,.8,9a.67.67,0,0,0,.41.17A1.57,1.57,0,0,0,2.65,10a1.53,1.53,0,0,0,1.51-.89,1.49,1.49,0,0,0,.08-.39C4.24,8.6,4.15,8.53,4.09,8.53ZM1.27,9H1.2a.52.52,0,0,1-.46-.42.42.42,0,0,1,.33-.48h.09a.4.4,0,0,1,.35.38C1.55,8.69,1.49,8.93,1.27,9ZM1,7.93a.52.52,0,0,0-.33.22A1.06,1.06,0,0,1,.55,8c-.12-.23.13-.67.3-.91C1.28,6.48,2,6,2.27,6.1c0,0,.22.21.22.21a4.34,4.34,0,0,0-.6.41A2.77,2.77,0,0,0,1,7.93Zm2.19.94h0a1.49,1.49,0,0,1-.64-.06c0-.11.12-.07.26-.06a1.89,1.89,0,0,0,.62-.07,1.57,1.57,0,0,0,.47-.23A1.24,1.24,0,0,1,4,8.65a.1.1,0,0,1,.07,0s.05.06,0,.15a.85.85,0,0,1-.24.47.83.83,0,0,1-.28.21l-.19.08a.91.91,0,0,1-1.15-.39l0-.09a.75.75,0,0,1,.17-.73h0a.06.06,0,0,0,0-.09.69.69,0,0,1-.24-.55.42.42,0,0,1,.4-.37h0l.21,0a.37.37,0,0,0,.31-.11.2.2,0,0,1,.12-.06h0a.13.13,0,0,1,.08,0c.09.06.1.2.11.31s0,.21,0,.25,0,.11.08.13l.1,0a.6.6,0,0,1,.24.11.12.12,0,0,1,0,.09c0,.1-.08.23-.33.35a1.72,1.72,0,0,1-.84.13H2.69c-.18,0-.29.22-.17.38A.59.59,0,0,0,3,9.16a1.24,1.24,0,0,0,.92-.35v0h0a1.54,1.54,0,0,1-1.06.27L2.72,9c-.05,0-.14-.06-.15-.15A1,1,0,0,0,3.22,8.87ZM2.59,8.8ZM1.82,7.09a1.93,1.93,0,0,1,.51-.42h0s0,.08,0,.12h0a1,1,0,0,1,.44-.16s0,0,0,0a.23.23,0,0,0-.07.07s0,0,0,0a.9.9,0,0,1,.38.1h0a1.56,1.56,0,0,0-.68,0,1.4,1.4,0,0,0-.55.24S1.82,7.1,1.82,7.09Z"></path></g>
</symbol>

<symbol id="more-c" viewBox="0 0 16 16">
  <title>more-c</title><g id="Layer_1" data-name="Layer 1"><path d="M8,.11A7.89,7.89,0,1,0,15.89,8,7.9,7.9,0,0,0,8,.11ZM8,14.68A6.68,6.68,0,1,1,14.68,8,6.69,6.69,0,0,1,8,14.68Z"></path><path d="M4.36,6.79A1.21,1.21,0,1,0,5.57,8,1.21,1.21,0,0,0,4.36,6.79Z"></path><path d="M11.64,6.79A1.21,1.21,0,1,0,12.85,8,1.21,1.21,0,0,0,11.64,6.79Z"></path><path d="M8,6.79A1.21,1.21,0,1,0,9.21,8,1.21,1.21,0,0,0,8,6.79Z"></path></g>
</symbol>

<symbol id="no-results" viewBox="0 0 16 16">
  <title>no-results</title><g id="Layer_1" data-name="Layer 1"><path d="M15.5,12.6,11.35,10A5.54,5.54,0,0,0,1.66,4.63a5.54,5.54,0,0,0,1.71,7.65,5.52,5.52,0,0,0,3,.87A5.71,5.71,0,0,0,7.55,13a5.52,5.52,0,0,0,2.85-1.64L14.59,14ZM4.27,10.86A3.87,3.87,0,0,1,3.08,5.54,3.85,3.85,0,0,1,8.4,4.35,3.86,3.86,0,0,1,9.7,9.47l-.24.37A3.86,3.86,0,0,1,4.27,10.86Z"></path><polygon points="7.58 5.21 6.4 6.39 5.22 5.21 4.02 6.41 5.2 7.58 4.02 8.76 5.22 9.96 6.4 8.78 7.58 9.96 8.77 8.76 7.59 7.58 8.77 6.41 7.58 5.21"></polygon></g>
</symbol>

<symbol id="organization-3" viewBox="0 0 16 16">
  <title>organization-3</title><g id="Layer_1" data-name="Layer 1"><path d="M14.78,12v-2a2.86,2.86,0,0,0-2.94-2.94H10.13c-1.2,0-1.31-.59-1.32-.89V3.87a2,2,0,1,0-1.62,0V6.25c0,.22-.06.89-1.32.89H4.17a2.86,2.86,0,0,0-2.94,2.94v2a2,2,0,1,0,1.62,0v-2A1.24,1.24,0,0,1,4.17,8.76h1.7a3.93,3.93,0,0,0,1.32-.21V12a2.05,2.05,0,1,0,1.62,0V8.55a3.93,3.93,0,0,0,1.32.21h1.71a1.25,1.25,0,0,1,1.32,1.32v2a2,2,0,1,0,1.62,0ZM3.22,13.92A1.18,1.18,0,1,1,2,12.74,1.18,1.18,0,0,1,3.22,13.92ZM6.82,2A1.18,1.18,0,1,1,8,3.17,1.18,1.18,0,0,1,6.82,2ZM9.18,13.92A1.18,1.18,0,1,1,8,12.74,1.18,1.18,0,0,1,9.18,13.92ZM14,15.1a1.18,1.18,0,1,1,1.18-1.18A1.18,1.18,0,0,1,14,15.1Z"></path></g>
</symbol>

<symbol id="organization_2" viewBox="0 0 16 16">
  <title>organization_2</title><g id="Layer_1" data-name="Layer 1"><path d="M14.56,11.54V9.85a2.71,2.71,0,0,0-2.71-2.71H9.06V4.75h3.31V.51H4.05V4.75H7.56V7.14H4.77A2.71,2.71,0,0,0,2.05,9.85v1.69H.39v4.24H4.63V11.54H3.55V9.85A1.22,1.22,0,0,1,4.77,8.64H7.56v2.9H6.09v4.24h4.24V11.54H9.06V8.64h2.79a1.21,1.21,0,0,1,1.21,1.21v1.69H11.79v4.24H16V11.54ZM5.3,1.76h5.82V3.5H5.3ZM3.38,14.53H1.64V12.79H3.38Zm5.7,0H7.34V12.79H9.08Zm5.7,0H13V12.79h1.74Z"></path></g>
</symbol>

<symbol id="payments" viewBox="0 0 16 16">
  <title>payments</title><g id="Layer_1" data-name="Layer 1"><path d="M0,12.71a.89.89,0,0,0,.89.89h14.2a.89.89,0,0,0,.89-.89V7H0ZM11.54,9.14H14.3V11.9H11.54Zm3.55-6.62H.89A.89.89,0,0,0,0,3.41V4.75H16V3.41A.89.89,0,0,0,15.09,2.52Z"></path></g>
</symbol>

<symbol id="pco-logo-stack" viewBox="0 0 16 16">
  <title>pco-logo-stack</title><g id="Layer_1" data-name="Layer 1"><path d="M12.49,7.88V2.32A1.71,1.71,0,0,0,10.77.61H4.94A1.7,1.7,0,0,0,3.23,2.32V7.88A1.7,1.7,0,0,0,4.94,9.59h5.83A1.71,1.71,0,0,0,12.49,7.88Zm-.93,0a.79.79,0,0,1-.79.79H4.94a.79.79,0,0,1-.79-.79V2.32a.79.79,0,0,1,.79-.79H6.08v.35a.19.19,0,0,0,.19.19H9.43a.18.18,0,0,0,.19-.19V1.53h1.15a.79.79,0,0,1,.79.79Z"></path><path d="M9.9,4.49,9.63,4a.26.26,0,0,0-.33-.09l-.93.53V3.38a.24.24,0,0,0-.22-.25H7.6a.24.24,0,0,0-.23.25v1l-.9-.55A.23.23,0,0,0,6.15,4l-.29.47a.23.23,0,0,0,.07.32l.94.57-.94.54a.24.24,0,0,0-.09.32l.28.48a.24.24,0,0,0,.32.09l.93-.53V7.29a.21.21,0,0,0,.22.22h.55a.22.22,0,0,0,.23-.22v-1l.91.55a.23.23,0,0,0,.32-.08l.29-.47a.24.24,0,0,0-.08-.32l-.94-.57,1-.55A.22.22,0,0,0,9.9,4.49Z" fill-rule="evenodd"></path><path d="M2.28,14.08a0,0,0,0,1,0,0V11.87s0,0,0,0h.31a0,0,0,0,1,0,0V12h0a.48.48,0,0,1,.43-.19.54.54,0,0,1,.56.39,1.38,1.38,0,0,1,.06.46,1.34,1.34,0,0,1-.06.46.54.54,0,0,1-.56.39.48.48,0,0,1-.43-.19h0V14s0,0,0,0Zm1-1.12a.83.83,0,0,0,0-.31.74.74,0,0,0,0-.3.28.28,0,0,0-.3-.21.28.28,0,0,0-.3.21.74.74,0,0,0,0,.3.83.83,0,0,0,0,.31.3.3,0,0,0,.3.21A.3.3,0,0,0,3.26,13Z"></path><path d="M4.36,13.49c-.32,0-.45-.15-.45-.47V11.2s0,0,0,0h.31a0,0,0,0,1,0,0V13c0,.11,0,.15.14.15h.08a0,0,0,0,1,0,0v.27s0,0,0,0Z"></path><path d="M5.7,13.47s0,0,0,0v-.11h0a.54.54,0,0,1-.46.18A.48.48,0,0,1,4.66,13c0-.36.25-.52.65-.52h.33s0,0,0,0v-.08c0-.18-.08-.27-.36-.27a.58.58,0,0,0-.37.11,0,0,0,0,1,0,0L4.76,12a0,0,0,0,1,0,0,1,1,0,0,1,.58-.16c.5,0,.68.17.68.57v1.06s0,0,0,0Zm0-.55v-.13s0,0,0,0H5.37c-.24,0-.35.07-.35.22s.1.21.28.21S5.66,13.11,5.66,12.92Z"></path><path d="M7.37,13.47a0,0,0,0,1,0,0v-.94c0-.21-.1-.35-.31-.35a.31.31,0,0,0-.31.35v.94s0,0,0,0H6.37a0,0,0,0,1,0,0V11.87s0,0,0,0h.31a0,0,0,0,1,0,0V12h0a.5.5,0,0,1,.43-.19.56.56,0,0,1,.56.61v1s0,0,0,0Z"></path><path d="M9.05,13.47s0,0,0,0v-.94c0-.21-.11-.35-.31-.35s-.31.14-.31.35v.94a0,0,0,0,1,0,0H8.05s0,0,0,0V11.87a0,0,0,0,1,0,0h.31s0,0,0,0V12h0a.5.5,0,0,1,.43-.19.56.56,0,0,1,.57.61v1a0,0,0,0,1,0,0Z"></path><path d="M9.74,11.53s0,0,0,0v-.3s0,0,0,0h.31a0,0,0,0,1,0,0v.3a0,0,0,0,1,0,0Zm0,1.94a0,0,0,0,1,0,0V11.87s0,0,0,0h.31a0,0,0,0,1,0,0v1.56s0,0,0,0Z"></path><path d="M11.44,13.47s0,0,0,0v-.94c0-.21-.11-.35-.31-.35s-.31.14-.31.35v.94a0,0,0,0,1,0,0h-.31s0,0,0,0V11.87a0,0,0,0,1,0,0h.31s0,0,0,0V12h0a.5.5,0,0,1,.43-.19.55.55,0,0,1,.56.61v1s0,0,0,0Z"></path><path d="M12.06,13.87s0,0,0,0l.2-.2h.05a.5.5,0,0,0,.36.16c.25,0,.36-.14.36-.39v-.16h0a.46.46,0,0,1-.42.19.55.55,0,0,1-.56-.39,1.31,1.31,0,0,1-.05-.42,1.21,1.21,0,0,1,.05-.41.55.55,0,0,1,.56-.4A.46.46,0,0,1,13,12h0v-.12s0,0,0,0h.31a0,0,0,0,1,0,0v1.5a.68.68,0,0,1-.76.74A.78.78,0,0,1,12.06,13.87Zm.94-1a1.23,1.23,0,0,0,0-.54.29.29,0,0,0-.3-.2.26.26,0,0,0-.28.2.93.93,0,0,0,0,.54.27.27,0,0,0,.28.21A.3.3,0,0,0,13,12.88Z"></path><path d="M3.52,15.52a1.4,1.4,0,0,1,0-.4,1.42,1.42,0,0,1,0-.41.67.67,0,0,1,.68-.45.7.7,0,0,1,.56.26,0,0,0,0,1,0,0l-.22.19a0,0,0,0,1,0,0,.37.37,0,0,0-.3-.14.3.3,0,0,0-.31.21,1,1,0,0,0,0,.31.89.89,0,0,0,0,.3.3.3,0,0,0,.31.21.37.37,0,0,0,.3-.14,0,0,0,0,1,0,0l.22.19a0,0,0,0,1,0,.05A.72.72,0,0,1,4.2,16,.67.67,0,0,1,3.52,15.52Z"></path><path d="M5,15.51a1.07,1.07,0,0,1-.06-.39,1.53,1.53,0,0,1,0-.41.68.68,0,0,1,.67-.45.66.66,0,0,1,.67.45,1.44,1.44,0,0,1,0,.49s0,0,0,0h-1s0,0,0,0a.21.21,0,0,0,0,.12.35.35,0,0,0,.36.25.48.48,0,0,0,.38-.16s0,0,.05,0l.2.17s0,0,0,0a.87.87,0,0,1-.67.28A.65.65,0,0,1,5,15.51Zm1-.72a.31.31,0,0,0-.32-.21.33.33,0,0,0-.32.21.59.59,0,0,0,0,.14s0,0,0,0H6s0,0,0,0A.32.32,0,0,0,6,14.79Z"></path><path d="M7.62,15.93a0,0,0,0,1,0,0V15c0-.21-.11-.36-.31-.36A.32.32,0,0,0,7,15v.94a0,0,0,0,1,0,0H6.63s0,0,0,0V14.33s0,0,0,0h.31a0,0,0,0,1,0,0v.12H7a.53.53,0,0,1,.43-.19.56.56,0,0,1,.57.61v1s0,0,0,0Z"></path><path d="M8.75,16c-.32,0-.45-.16-.45-.48v-.86l0,0H8.17a0,0,0,0,1,0,0v-.23a0,0,0,0,1,0,0h.11l0,0v-.45a0,0,0,0,1,0,0h.32a0,0,0,0,1,0,0v.45a0,0,0,0,0,0,0h.22a0,0,0,0,1,0,0v.23a0,0,0,0,1,0,0H8.7l0,0v.85c0,.12.05.15.15.15h.09s0,0,0,0v.27a0,0,0,0,1,0,0Z"></path><path d="M9.16,15.51a1.37,1.37,0,0,1-.05-.39,1.53,1.53,0,0,1,.05-.41.66.66,0,0,1,.67-.45.68.68,0,0,1,.67.45,1.77,1.77,0,0,1,.05.49,0,0,0,0,1,0,0h-1s0,0,0,0a.37.37,0,0,0,0,.12.36.36,0,0,0,.37.25.48.48,0,0,0,.38-.16s0,0,.05,0l.2.17s0,0,0,0a.87.87,0,0,1-.67.28A.66.66,0,0,1,9.16,15.51Zm1-.72a.33.33,0,0,0-.32-.21.31.31,0,0,0-.32.21.32.32,0,0,0,0,.14s0,0,0,0h.64s0,0,0,0A.59.59,0,0,0,10.15,14.79Z"></path><path d="M10.82,15.93a0,0,0,0,1,0,0V14.33a0,0,0,0,1,0,0h.31s0,0,0,0v.14h0a.48.48,0,0,1,.42-.21.46.46,0,0,1,.34.14s0,0,0,0l-.18.22s0,0,0,0a.41.41,0,0,0-.24-.08c-.21,0-.3.15-.3.41v.89s0,0,0,0Z"></path></g>
</symbol>

<symbol id="pco-logo-stack2" viewBox="0 0 16 16">
  <title>pco-logo-stack2</title><g id="Layer_1" data-name="Layer 1"><path d="M1.8,12.29h0a.05.05,0,0,1-.05,0V11a.08.08,0,0,0-.07-.07H1.49a.08.08,0,0,0-.07.07V12.4a.2.2,0,0,0,.2.2H1.8a.05.05,0,0,0,.05,0v-.21A.05.05,0,0,0,1.8,12.29Z"></path><path d="M2.5,11.37a1.05,1.05,0,0,0-.41.07.06.06,0,0,0,0,.08l0,.11s0,.07.08.06a1,1,0,0,1,.32-.06.17.17,0,0,1,.12,0s.05.09.05.19a.88.88,0,0,0-.22,0c-.29,0-.48.16-.48.39a.38.38,0,0,0,.39.41.56.56,0,0,0,.36-.14l0,.06s0,0,.06,0h.08a.08.08,0,0,0,.07-.07V11.9C2.92,11.62,2.89,11.37,2.5,11.37Zm.14.71v.17a.35.35,0,0,1-.25.14.16.16,0,0,1-.17-.17c0-.11.09-.18.23-.18A.38.38,0,0,1,2.64,12.08Z"></path><path d="M3.73,11.37a.61.61,0,0,0-.4.15l0-.08a.07.07,0,0,0-.06,0H3.15a.08.08,0,0,0-.07.07v1.06a.08.08,0,0,0,.07.07h.16a.07.07,0,0,0,.08-.07v-.71a.35.35,0,0,1,.31-.17c.15,0,.23.1.23.28v.6A.07.07,0,0,0,4,12.6h.16a.08.08,0,0,0,.07-.07v-.59C4.23,11.58,4.05,11.37,3.73,11.37Z"></path><path d="M5.07,11.37a.63.63,0,0,0-.4.15l0-.08a.07.07,0,0,0-.06,0H4.5a.07.07,0,0,0-.07.07v1.06a.08.08,0,0,0,.07.07h.15c.06,0,.08,0,.08-.07v-.71A.36.36,0,0,1,5,11.65c.15,0,.23.1.23.28v.6a.07.07,0,0,0,.07.07h.17a.08.08,0,0,0,.07-.07v-.59C5.58,11.58,5.39,11.37,5.07,11.37Z"></path><path d="M5.94,10.85a.18.18,0,0,0-.19.19.18.18,0,0,0,.19.18A.18.18,0,0,0,6.12,11,.18.18,0,0,0,5.94,10.85Z"></path><rect x="5.79" y="11.4" width="0.31" height="1.2" rx="0.07"></rect><path d="M7,11.37a.67.67,0,0,0-.41.15l0-.08a.08.08,0,0,0-.06,0H6.38a.07.07,0,0,0-.07.07v1.06a.08.08,0,0,0,.07.07h.15c.06,0,.08,0,.08-.07v-.71a.37.37,0,0,1,.32-.17c.14,0,.22.1.22.28v.6a.08.08,0,0,0,.07.07h.17a.08.08,0,0,0,.07-.07v-.59C7.46,11.58,7.28,11.37,7,11.37Z"></path><path d="M10.3,12.21h0a.07.07,0,0,0-.1,0h0a.28.28,0,0,1-.24.12A.34.34,0,0,1,9.62,12a.33.33,0,0,1,.32-.35.31.31,0,0,1,.23.11h0a.06.06,0,0,0,.1,0l.09-.09a.05.05,0,0,0,0,0,.13.13,0,0,0,0-.06.55.55,0,0,0-.44-.21.64.64,0,0,0-.63.63.63.63,0,0,0,.63.63.52.52,0,0,0,.46-.26s0-.07,0-.1Z"></path><path d="M11.05,11.37a.63.63,0,0,0,0,1.26.74.74,0,0,0,.45-.15s0,0,0-.05,0,0,0,0l-.08-.11s-.06,0-.1,0a.46.46,0,0,1-.25.08.32.32,0,0,1-.32-.28h.78A.07.07,0,0,0,11.6,12v-.09A.54.54,0,0,0,11.05,11.37Zm0,.25a.25.25,0,0,1,.25.23h-.53A.28.28,0,0,1,11.05,11.62Z"></path><path d="M12.41,11.37a.63.63,0,0,0-.4.15l0-.08a.07.07,0,0,0-.06,0h-.08a.07.07,0,0,0-.07.07v1.06a.08.08,0,0,0,.07.07H12a.07.07,0,0,0,.08-.07v-.71a.36.36,0,0,1,.31-.17c.15,0,.23.1.23.28v.6a.07.07,0,0,0,.07.07h.17a.08.08,0,0,0,.07-.07v-.59C12.92,11.58,12.73,11.37,12.41,11.37Z"></path><path d="M13.78,12.32h0a.05.05,0,0,0,0,0H13.7a.55.55,0,0,1-.17.05s-.08,0-.08-.11v-.56h.28a.07.07,0,0,0,.07-.07v-.13a.07.07,0,0,0-.07-.07h-.28V11a.07.07,0,0,0-.07-.07h-.17a.08.08,0,0,0-.07.07v.36H13a.07.07,0,0,0-.07.07v.13a.08.08,0,0,0,.07.07h.11v.59c0,.16,0,.37.32.37a1,1,0,0,0,.34-.09.07.07,0,0,0,0-.09Z"></path><path d="M14.46,11.37a.63.63,0,0,0,0,1.26.74.74,0,0,0,.45-.15l0-.05a.09.09,0,0,0,0,0l-.08-.11s-.06,0-.1,0a.46.46,0,0,1-.25.08.32.32,0,0,1-.32-.28h.78A.07.07,0,0,0,15,12v-.09A.54.54,0,0,0,14.46,11.37Zm.25.48h-.53a.28.28,0,0,1,.28-.23A.25.25,0,0,1,14.71,11.85Z"></path><path d="M15.93,11.43a.32.32,0,0,0-.22-.06.42.42,0,0,0-.33.15l0-.07a.06.06,0,0,0-.06,0H15.2a.08.08,0,0,0-.07.07v1.06a.08.08,0,0,0,.07.07h.14s.1,0,.1-.07v-.74a.29.29,0,0,1,.25-.14l.09,0a.06.06,0,0,0,.09,0l.07-.14A.06.06,0,0,0,15.93,11.43Z"></path><path d="M8.76,11.4H8.64a.05.05,0,0,0-.05,0h0v.09a.55.55,0,0,0-.4-.16.68.68,0,0,0,0,1.35.71.71,0,0,0,.31-.08v0a.28.28,0,0,1-.08.21.41.41,0,0,1-.32.12.55.55,0,0,1-.28-.09.06.06,0,0,0-.07,0l-.07.13a.07.07,0,0,0,0,.07.85.85,0,0,0,.46.15h0a.59.59,0,0,0,.63-.57V11.46A.06.06,0,0,0,8.76,11.4Zm-.31,1a.54.54,0,0,1-.21,0,.35.35,0,0,1-.35-.39c0-.24.13-.4.33-.4a.32.32,0,0,1,.28.15.14.14,0,0,1,0,.07v.41A.12.12,0,0,1,8.45,12.39Z"></path><path d="M.7,11.3a.55.55,0,0,0-.39.16v-.08h0a0,0,0,0,0,0,0H.13a.07.07,0,0,0-.07.06v1.74a.08.08,0,0,0,.07.07H.3a.07.07,0,0,0,.08-.07v-.57a.59.59,0,0,0,.31.09.69.69,0,0,0,0-1.36Zm-.33.5a.1.1,0,0,1,0-.07.33.33,0,0,1,.27-.15c.2,0,.33.16.33.4a.35.35,0,0,1-.34.4.6.6,0,0,1-.22-.05.13.13,0,0,1-.06-.11Z"></path><path d="M9,5.86l-.73.24a.82.82,0,0,1-.49,0L7,5.88A.06.06,0,0,0,7,5.94v.9A.07.07,0,0,0,7,6.9l.9.27a.41.41,0,0,0,.22,0L9,6.87s0,0,0,0v-.9A.06.06,0,0,0,9,5.86Z"></path><path d="M10.49,3.94l-2-.59a1.87,1.87,0,0,0-1,0l-2,.59a1.05,1.05,0,0,0-.74,1V8.12a1.06,1.06,0,0,0,.74,1l2,.58a1.88,1.88,0,0,0,1,0l2-.58a1.06,1.06,0,0,0,.74-1V4.94A1.05,1.05,0,0,0,10.49,3.94ZM9.72,7a.47.47,0,0,1-.33.44L8.24,7.8a.75.75,0,0,1-.47,0L7,7.57a0,0,0,0,0-.06,0v.53a.16.16,0,0,1-.21.15L6.41,8.2A.17.17,0,0,1,6.29,8V5.62a.47.47,0,0,1,.6-.45l1,.3a.41.41,0,0,0,.22,0l1-.32a.47.47,0,0,1,.6.44Z"></path></g>
</symbol>

<symbol id="people" viewBox="0 0 16 16">
  <title>people</title><g id="Layer_1" data-name="Layer 1"><path d="M16,14.8a22,22,0,0,0-.22-3.34c-.27-.47-.91-.79-2.1-1.29s-1.57-.91-1.57-1.81c0-.54.36-.36.52-1.35.07-.41.39,0,.45-.94,0-.37-.18-.46-.18-.46s.09-.55.13-1a1.79,1.79,0,0,0-1.92-1.89A1.78,1.78,0,0,0,9.2,4.64c0,.42.12,1,.12,1s-.17.09-.17.46c.06.94.38.54.45.94.16,1,.52.81.52,1.35A1.46,1.46,0,0,1,9.46,9.7c2.59,1.3,2.94,1.56,2.94,2.72V14.8ZM8.18,10.62C6.6,10,6.09,9.4,6.09,8.21c0-.72.48-.49.7-1.8.08-.54.51,0,.59-1.25,0-.5-.23-.62-.23-.62s.12-.73.16-1.3A2.37,2.37,0,0,0,4.76.72,2.38,2.38,0,0,0,2.21,3.24c0,.57.17,1.3.17,1.3s-.24.12-.24.62c.09,1.24.51.71.6,1.25.21,1.31.7,1.08.7,1.8,0,1.19-.51,1.75-2.09,2.41-.48.2-1.35.52-1.35,1.27V14.8H11.11V12.62C11.11,11.93,9.77,11.29,8.18,10.62Z"></path></g>
</symbol>

<symbol id="phone" viewBox="0 0 16 16">
  <title>phone</title><g id="Layer_1" data-name="Layer 1"><path d="M2,5.84A26.84,26.84,0,0,0,9,14.45l1.08.86a1.76,1.76,0,0,0,2.22,0h0l1.89-1.57.31-.25a1.31,1.31,0,0,0,.17-1.84L13.26,9.87a1.3,1.3,0,0,0-1.83-.18L9.6,11.21A26.31,26.31,0,0,1,5.23,5.89L7.06,4.37a1.3,1.3,0,0,0,.17-1.83L5.78.78A1.29,1.29,0,0,0,4,.6l-.3.26L1.75,2.43h0a1.78,1.78,0,0,0-.44,2.18Z"></path></g>
</symbol>

<symbol id="photo" viewBox="0 0 16 16">
  <title>photo</title><g id="Layer_1" data-name="Layer 1"><path d="M14.72.61H1.28A1.31,1.31,0,0,0,0,1.91V14.09a1.31,1.31,0,0,0,1.31,1.3H14.72A1.31,1.31,0,0,0,16,14.09V1.91A1.31,1.31,0,0,0,14.72.61ZM15,14.09a.29.29,0,0,1-.3.3H1.28a.29.29,0,0,1-.3-.3V11.56L5,8l4,4a.48.48,0,0,0,.37.15A.57.57,0,0,0,9.8,12l2.49-2.68L15,12Zm0-3.49L12.64,8.19A.51.51,0,0,0,12.27,8a.48.48,0,0,0-.36.16l-2.5,2.68-4-4a.5.5,0,0,0-.69,0L1,10.21V1.91a.29.29,0,0,1,.3-.3H14.72a.29.29,0,0,1,.3.3ZM9.37,2.49A2.12,2.12,0,1,0,11.5,4.61,2.12,2.12,0,0,0,9.37,2.49Zm0,3.24a1.12,1.12,0,1,1,1.12-1.12A1.12,1.12,0,0,1,9.37,5.73Z"></path></g>
</symbol>

<symbol id="pico" viewBox="0 0 16 16">
  <title>pico</title><g id="Layer_1" data-name="Layer 1"><path d="M13.55,7.48l-.11-.1a2.27,2.27,0,0,0-1.31-1.57l-.05,0,0,0a10,10,0,0,0-2.62-.58h0a2,2,0,0,0-1.1-.49V4.19a1,1,0,1,0-.81,0V4.7a2,2,0,0,0-1.11.51l0,0A10.09,10.09,0,0,0,4,5.77l0,0,0,0h0A2.3,2.3,0,0,0,2.58,7.36l-.11.09a1.78,1.78,0,0,0-.56,1.36,1.44,1.44,0,0,0,.58,1.25l.07,0a1.42,1.42,0,0,0,1.12,1.5h0a21.28,21.28,0,0,0,4.14.44h.24a19.12,19.12,0,0,0,4.14-.44h.05a1.44,1.44,0,0,0,1.13-1.51l.07,0a1.47,1.47,0,0,0,.57-1.25A1.75,1.75,0,0,0,13.55,7.48Zm-.86,2.69c0,.54-.17.62-.43.69a14.87,14.87,0,0,1-4.15.47H7.87a12.12,12.12,0,0,1-4.07-.44.62.62,0,0,1-.5-.64l0-2.33a1.33,1.33,0,0,1,.85-1.27l.12,0a14.6,14.6,0,0,1,3.82-.43,13.73,13.73,0,0,1,3.7.42l.14.05a1.32,1.32,0,0,1,.84,1.27ZM9,9.39H9a1,1,0,0,1-1,.65,1,1,0,0,1-1-.65h0A1.06,1.06,0,0,0,8,10.33,1,1,0,0,0,9,9.4H9ZM8,0a8,8,0,1,0,8,8A8,8,0,0,0,8,0Zm4.87,12.81a6.92,6.92,0,0,1-9.76,0,6.86,6.86,0,0,1,0-9.72A6.9,6.9,0,0,1,14.89,8,6.79,6.79,0,0,1,12.86,12.81ZM5.08,7.42c-.45,0-.83.59-.83,1.32s.37,1.31.83,1.31.83-.59.83-1.31S5.54,7.42,5.08,7.42Zm5.77,0c-.46,0-.83.59-.83,1.31s.37,1.32.83,1.32.83-.59.83-1.32S11.31,7.42,10.85,7.42Z"></path></g>
</symbol>

<symbol id="renew" viewBox="0 0 16 16">
  <title>renew</title><g id="Layer_1" data-name="Layer 1"><path d="M8.05,15.9A7.89,7.89,0,1,1,8,.12H8a7.88,7.88,0,0,1,5.61,13.43A7.8,7.8,0,0,1,8.05,15.9ZM8,1.52a6.49,6.49,0,1,0,0,13A6.5,6.5,0,0,0,14.49,8,6.51,6.51,0,0,0,8,1.52Z"></path><path d="M8,12.53A4.52,4.52,0,0,1,3.48,8a4.58,4.58,0,0,1,.09-.9.65.65,0,0,1,1.28.27A2.79,2.79,0,0,0,4.78,8,3.23,3.23,0,0,0,8,11.23,3.22,3.22,0,1,0,5.8,5.66a.65.65,0,0,1-.89-1A4.52,4.52,0,1,1,8,12.53Z"></path><path d="M5.42,8.88A.65.65,0,0,1,5,8.69l-.83-.84-.84.84a.64.64,0,0,1-.92,0,.66.66,0,0,1,0-.92l1.3-1.29a.66.66,0,0,1,.92,0L5.88,7.77a.64.64,0,0,1,0,.92A.62.62,0,0,1,5.42,8.88Z"></path></g>
</symbol>

<symbol id="rocket" viewBox="0 0 16 16">
  <title>rocket</title><g id="Layer_1" data-name="Layer 1"><path d="M13.22,10.45a2.9,2.9,0,0,0-1.79-2.08,7.85,7.85,0,0,0-.13-2.79A6,6,0,0,0,9,2.41L8.83.78a.83.83,0,0,0-1.66,0L7,2.41A6,6,0,0,0,4.7,5.58a7.85,7.85,0,0,0-.13,2.79,2.9,2.9,0,0,0-1.79,2.08,5.74,5.74,0,0,0,.53,3.22,9.91,9.91,0,0,0,1,2A.83.83,0,0,0,5,16a.87.87,0,0,0,.41-.11A1.53,1.53,0,0,0,6,15.21a2.17,2.17,0,0,0,.11-.63,3.69,3.69,0,0,1,.16-1,1.49,1.49,0,0,0,.79.36l.1.67a.85.85,0,0,0,.86.72.84.84,0,0,0,.82-.72l.1-.67a1.36,1.36,0,0,0,.79-.36,3.82,3.82,0,0,1,.16,1,2.17,2.17,0,0,0,.11.63,1.53,1.53,0,0,0,.61.65A.87.87,0,0,0,11,16a.83.83,0,0,0,.64-.3,9.91,9.91,0,0,0,1-2A5.74,5.74,0,0,0,13.22,10.45ZM11,15.14a.73.73,0,0,1-.27-.26,6.44,6.44,0,0,0-.34-1.74,4.63,4.63,0,0,0-.87-.87.21.21,0,0,0-.18.18A3.1,3.1,0,0,1,9.2,13a.56.56,0,0,1-.34.17h0c-.13,0-.41,0-.63.07L8,14.52H8l-.19-1.31c-.22,0-.5-.07-.63-.07h0A.56.56,0,0,1,6.8,13a3.1,3.1,0,0,1-.17-.52.21.21,0,0,0-.18-.18,4.63,4.63,0,0,0-.87.87,6.44,6.44,0,0,0-.34,1.74.73.73,0,0,1-.27.26c-.21-.26-1.71-3-1.38-4.51A2.21,2.21,0,0,1,5.54,9a6.76,6.76,0,0,1,0-3.21A5.55,5.55,0,0,1,7.82,2.86L8,.86l.18,2a5.55,5.55,0,0,1,2.31,2.91,6.76,6.76,0,0,1,0,3.21,2.21,2.21,0,0,1,1.95,1.65C12.74,12.16,11.24,14.88,11,15.14Z"></path><path d="M8,6.5A1,1,0,1,0,8,4.44H8a1,1,0,0,0-1,1,1,1,0,0,0,1,1Zm0,.34H8a.83.83,0,0,0-.82.83.82.82,0,0,0,1.64,0,.78.78,0,0,0-.24-.58A.79.79,0,0,0,8,6.84Z"></path></g>
</symbol>

<symbol id="safari" viewBox="0 0 16 16">
  <title>safari</title><g id="Layer_1" data-name="Layer 1"><path d="M8,2a5.91,5.91,0,1,1-5.9,5.9A5.91,5.91,0,0,1,8,2M8,0a7.89,7.89,0,1,0,7.88,7.88A7.88,7.88,0,0,0,8,0Z"></path><path d="M11.18,11.13,9.39,6.51,4.77,4.72,6.55,9.33ZM7.5,7.45a.65.65,0,0,1,.94,0,.67.67,0,0,1,0,1,.65.65,0,0,1-.94,0A.66.66,0,0,1,7.5,7.45Z"></path></g>
</symbol>

<symbol id="safe" viewBox="0 0 16 16">
  <title>safe</title><g id="Layer_1" data-name="Layer 1"><path d="M.37,2.24V13.79a1.93,1.93,0,0,0,1.92,1.93H13.85a1.94,1.94,0,0,0,1.93-1.93V2.24A1.94,1.94,0,0,0,13.85.31H2.29A1.93,1.93,0,0,0,.37,2.24Zm1.28,0a.65.65,0,0,1,.64-.65H13.85a.65.65,0,0,1,.64.65V13.79a.65.65,0,0,1-.64.65H2.29a.65.65,0,0,1-.64-.65Z"></path><path d="M6.15,8A1.93,1.93,0,1,0,8.07,6.09,1.93,1.93,0,0,0,6.15,8ZM7.43,8A.64.64,0,1,1,8.71,8a.64.64,0,0,1-.64.64A.64.64,0,0,1,7.43,8Z"></path><path d="M2.94,6.73V9.3a.64.64,0,1,0,0,1.28v1.29a1.28,1.28,0,0,0,1.28,1.28h7.71a1.29,1.29,0,0,0,1.28-1.28V4.16a1.29,1.29,0,0,0-1.28-1.28H4.22A1.28,1.28,0,0,0,2.94,4.16V5.45a.64.64,0,1,0,0,1.28Zm1.28,0h0a.64.64,0,0,0,0-1.28h0V4.16h7.71v7.71H4.22V10.58h0a.64.64,0,1,0,0-1.28h0Z"></path></g>
</symbol>

<symbol id="stamp" viewBox="0 0 16 16">
  <title>stamp</title><g id="Layer_1" data-name="Layer 1"><path d="M15.35,3.31h.09a.44.44,0,0,0,.44-.44V1.5a.45.45,0,0,0-.2-.37.43.43,0,0,0-.41,0,.52.52,0,0,1-.71-.54.44.44,0,0,0-.44-.44h-1a.51.51,0,0,0-.44.51.51.51,0,0,1-.51.51.52.52,0,0,1-.5-.58.44.44,0,0,0-.44-.44h-1a.51.51,0,0,0-.44.51.51.51,0,0,1-.51.51.52.52,0,0,1-.5-.58A.44.44,0,0,0,8.32.12h-1a.51.51,0,0,0-.44.51.51.51,0,0,1-.51.51A.53.53,0,0,1,5.85.56.44.44,0,0,0,5.42.12h-1A.5.5,0,0,0,4,.63a.51.51,0,0,1-.51.51A.53.53,0,0,1,3,.56.44.44,0,0,0,2.52.12h-1a.5.5,0,0,0-.43.51.51.51,0,0,1-.51.51.44.44,0,0,0-.44.44V2.93a.43.43,0,0,0,.31.41.49.49,0,0,1,0,1,.44.44,0,0,0-.31.41V5.83a.45.45,0,0,0,.31.42.49.49,0,0,1,.36.47.5.5,0,0,1-.36.47.44.44,0,0,0-.31.41V8.73a.45.45,0,0,0,.31.42.49.49,0,0,1,0,.94.45.45,0,0,0-.31.41v1.13a.45.45,0,0,0,.31.42.49.49,0,0,1,0,.94.45.45,0,0,0-.31.42v1.35a.44.44,0,0,0,.44.44.48.48,0,0,1,.47.36.45.45,0,0,0,.42.32H2.57A.45.45,0,0,0,3,15.56a.5.5,0,0,1,.94,0,.45.45,0,0,0,.42.32H5.47a.44.44,0,0,0,.42-.32.51.51,0,0,1,1,0,.43.43,0,0,0,.41.32H8.37a.43.43,0,0,0,.42-.32.51.51,0,0,1,1,0,.43.43,0,0,0,.41.32h1.12a.43.43,0,0,0,.42-.32.51.51,0,0,1,1,0,.43.43,0,0,0,.41.32h1.13a.43.43,0,0,0,.41-.32.5.5,0,0,1,.68-.32.43.43,0,0,0,.41,0,.45.45,0,0,0,.2-.36V13.46a.44.44,0,0,0-.44-.43h-.09a.51.51,0,1,1,0-1h.09a.44.44,0,0,0,.44-.43v-1a.44.44,0,0,0-.44-.43h-.09a.51.51,0,0,1,0-1h.09a.44.44,0,0,0,.44-.43v-1a.44.44,0,0,0-.44-.43h-.09a.51.51,0,1,1,0-1h.09a.44.44,0,0,0,.44-.44v-1a.44.44,0,0,0-.44-.44h-.09a.5.5,0,0,1-.51-.5A.51.51,0,0,1,15.35,3.31ZM15,5.15v.23a1.38,1.38,0,0,0,0,2.67v.23a1.39,1.39,0,0,0-1,1.34A1.37,1.37,0,0,0,15,11v.23a1.39,1.39,0,0,0-1,1.34,1.37,1.37,0,0,0,1,1.33v.48a1.37,1.37,0,0,0-1.11.67h-.55A1.36,1.36,0,0,0,11,15h-.55a1.36,1.36,0,0,0-2.35,0H7.54a1.39,1.39,0,0,0-1.18-.68A1.36,1.36,0,0,0,5.19,15H4.63a1.35,1.35,0,0,0-2.34,0H1.73A1.35,1.35,0,0,0,1,14.4v-.72a1.35,1.35,0,0,0,0-2.32v-.58a1.36,1.36,0,0,0,.66-1.16A1.39,1.39,0,0,0,1,8.45V7.88a1.36,1.36,0,0,0,.66-1.16A1.38,1.38,0,0,0,1,5.55V5a1.37,1.37,0,0,0,.66-1.16A1.38,1.38,0,0,0,1,2.65V1.94A1.38,1.38,0,0,0,1.88,1h.25A1.39,1.39,0,0,0,3.46,2,1.37,1.37,0,0,0,4.78,1H5A1.39,1.39,0,0,0,6.36,2,1.37,1.37,0,0,0,7.68,1h.25A1.39,1.39,0,0,0,9.26,2a1.37,1.37,0,0,0,1.32-1h.25a1.39,1.39,0,0,0,1.33,1,1.36,1.36,0,0,0,1.32-1h.26A1.38,1.38,0,0,0,15,2v.47a1.38,1.38,0,0,0,0,2.67Z"></path><path d="M12.59,3.14H3.15a.32.32,0,0,0-.32.33v9.44a.32.32,0,0,0,.32.32h9.44a.32.32,0,0,0,.33-.32V3.47A.33.33,0,0,0,12.59,3.14Zm-.33.66V5.28l-.68-.94a.29.29,0,0,0-.28-.13.33.33,0,0,0-.27.15L7.56,10.2,5.83,7.9a.33.33,0,0,0-.25-.13.32.32,0,0,0-.25.12L3.48,10V3.8ZM3.48,12.58V11l0,0L5.56,8.62,7.32,11a.33.33,0,0,0,.55,0l3.47-5.83.82,1.13.1.09v6.24Z"></path><path d="M5.33,6.86a1.4,1.4,0,1,0-1.4-1.4A1.4,1.4,0,0,0,5.33,6.86Zm0-2.15a.75.75,0,1,1-.75.75A.75.75,0,0,1,5.33,4.71Z"></path></g>
</symbol>

<symbol id="stripe" viewBox="0 0 16 16">
  <title>stripe</title><g id="Layer_1" data-name="Layer 1"><path d="M4.23,5.27l-1.06.22V9a1.1,1.1,0,0,0,1.06,1.12h.06A1.73,1.73,0,0,0,5,9.93V9.05c-.14,0-.82.26-.82-.39V7.12H5V6.2H4.21Z"></path><path d="M1.3,7.31c0-.17.14-.24.36-.24a2.69,2.69,0,0,1,1.08.27v-1a2.62,2.62,0,0,0-1.08-.19C.79,6.12.21,6.59.21,7.36c0,1.19,1.65,1,1.65,1.52,0,.19-.17.26-.42.26A2.88,2.88,0,0,1,.26,8.79v1a3,3,0,0,0,1.18.25c.9,0,1.52-.44,1.52-1.22C3,7.55,1.3,7.79,1.3,7.31Z"></path><path d="M6.39,6.53,6.32,6.2H5.39V10H6.47V7.42a.74.74,0,0,1,.82-.22v-1A.74.74,0,0,0,6.39,6.53Z"></path><path d="M15.79,8.11c0-1.1-.53-2-1.56-2a1.76,1.76,0,0,0-1.65,2,1.73,1.73,0,0,0,1.8,2,2.36,2.36,0,0,0,1.19-.29V8.92a2.25,2.25,0,0,1-1.06.23c-.42,0-.8-.14-.85-.66h2.13C15.78,8.44,15.79,8.21,15.79,8.11Zm-2.14-.42c0-.49.3-.68.57-.68s.55.2.55.68Z"></path><rect x="7.56" y="6.2" width="1.09" height="3.79"></rect><path d="M10.91,6.12a1.24,1.24,0,0,0-.85.34L10,6.19H9.06v5.05L10.14,11V9.79a1.23,1.23,0,0,0,.77.27c.78,0,1.48-.63,1.48-2S11.66,6.12,10.91,6.12Zm-.26,3h0a.66.66,0,0,1-.51-.19V7.31a.62.62,0,0,1,.52-.21c.39,0,.66.44.66,1S11,9.11,10.65,9.11Z"></path><polygon points="7.56 5.88 8.65 5.64 8.65 4.76 7.56 4.99 7.56 5.88"></polygon></g>
</symbol>

<symbol id="success" viewBox="0 0 16 16">
  <title>success</title><g id="Layer_1" data-name="Layer 1"><path d="M8,0a8,8,0,1,0,8,8A8,8,0,0,0,8,0Zm3.73,7.29L8.84,10.18l-1,1a.71.71,0,0,1-1,0l-1-1L4.55,8.85a1,1,0,0,1,0-1.47h0A1,1,0,0,1,6,7.37L7.36,8.69,10.25,5.8a1.05,1.05,0,0,1,1.47,0v0A1,1,0,0,1,11.73,7.29Z"></path></g>
</symbol>

<symbol id="thank-you" viewBox="0 0 16 16">
  <title>thank-you</title><g id="Layer_1" data-name="Layer 1"><path d="M3.18,8s0,0,0,0Z"></path><path d="M9.29,9.38c-.28.32-.69.7-.47,0,.08-.24.5-.45.35-.76s-.32-.24-.52-.1a2.81,2.81,0,0,0-.52.66l-.05,0,.21-.3c.2-.35.92-1.65.4-1.95S7.74,8,7.68,8.33a6,6,0,0,0-.14,1.23l0,0-.11.07-.08,0a.14.14,0,0,1-.07,0c-.15.06,0-1.93-.53-1.13-.11.2-.18.41-.29.6h0c0-.14.11-.35.07-.48s-.28-.49-.38-.09A5.56,5.56,0,0,0,6,9.37l-.14.18c-.6.65-.2-.52-.26-.72s0-.15-.28-.26c-.48-.22-1,.29-1.07.82v0l-.1.11c-.78.75-.06-.83-.12-1-.2-.51-.78.29-1,.53l0,0c.21-.38,1.08-1.73.6-2.14-.3-.25-.57,0-.75.35-.66-.1-2.7-.39-2.71.58h0l0,.1c.21.35.35,0,.49-.12a1.29,1.29,0,0,1,.8-.3C1.19,8.38,1,9.14.75,10c-.09.37.41.3.48,0,.22-.81.52-1.62.68-2.4.15,0,.41.08.75.1a.17.17,0,0,0,0,.05,4.93,4.93,0,0,0-.22,2c.1.37.2.46.4.06A2.17,2.17,0,0,1,3.42,9h0a.89.89,0,0,0-.12,1c.27.32.64.07.92-.13.14.33.54.42.88,0,.18.45.56.25.81,0,0,.16.1.37.3.25A.18.18,0,0,0,6.32,10l.45-.89h0c0,.26-.17,1.14.35,1L7.31,10a1.75,1.75,0,0,0,.27-.14h0c.06.19.17.41.35.13l.5-.87c.17-.29.29-.12.09.08-.61.81.28,1.21.85.57S9.51,9.12,9.29,9.38Zm-6.5-.45.06-.4A5,5,0,0,1,3,7.76s.22-.57.33-.57-.11.73-.15.82,0-.11,0,0C3.06,8.33,2.92,8.63,2.79,8.93ZM5,9.33c0,.25-.43.75-.43.25,0-.27.22-.8.56-.8ZM8,9c0-.14,0-.28,0-.42a7.05,7.05,0,0,1,.15-.8c0-.13.13-.49.32-.49S8.28,8,8.26,8C8.16,8.34,8.05,8.66,8,9Z"></path><path d="M12.57,7.12c-.21.39-.51,1-.73,1.36-.15-.36-.79-1.6-1.37-1.39-.14.12-.09.75,0,.68s0-.14,0-.17c.12-.48,1,1.13,1.06,1.25-.19.33-.6,1.23-1.13.87-.21-.08.08.28.1.29.4.34.77,0,1-.36a24.2,24.2,0,0,0,1.31-2.26C13,7.13,12.73,6.84,12.57,7.12Z"></path><path d="M15.64,9.37c-.06.07-.55.51-.67.37s.11-.93.11-1.19-.35-.15-.38,0l-.19.93c0,.25-.2.33-.35.19s.16-1,.18-1.13-.08-.1-.17-.09-.27.3-.3.46h0a1,1,0,0,0-1.16-.38,1,1,0,0,0-.45,1.13c.35,1.08,1.55,0,1.13-.84v0a3.65,3.65,0,0,1,.44.36c0,.1,0,.19-.06.26-.2.73.37.9.79.35.13.6.79.27,1.08,0S15.9,9.27,15.64,9.37Zm-2.79.44c-.44,0-.26-1,.1-1S13.17,9.81,12.85,9.81Z"></path></g>
</symbol>

<symbol id="twilio" viewBox="0 0 16 16">
  <title>twilio</title><g id="Layer_1" data-name="Layer 1"><path d="M11.12,6.58H10.3a0,0,0,0,0,0,0V7.1a0,0,0,0,0,0,0h.82a0,0,0,0,0,0,0V6.62A0,0,0,0,0,11.12,6.58Zm0,.71H9.53a.07.07,0,0,0,0,0l-.2.78v0L9,7.32a.07.07,0,0,0-.06,0H8.36s0,0,0,0l-.23.78h0v0L8,7.72l-.1-.39s0,0-.05,0H6.58V6.62s0,0-.06,0l-.77.25s0,0,0,0v.42H5.5a0,0,0,0,0,0,0v.6a0,0,0,0,0,0,0h.21V8.7c0,.51.27.75.79.75a1.28,1.28,0,0,0,.55-.12V8.71a0,0,0,0,0,0,0,.47.47,0,0,1-.22.05c-.14,0-.21-.06-.21-.22V8H7a0,0,0,0,0,0,0v-.5l.58,2a.07.07,0,0,0,.05,0h.65a.07.07,0,0,0,.05,0l.27-.87L8.8,9l.13.41a.07.07,0,0,0,.06,0h.64a.08.08,0,0,0,.06,0l.59-2v2a0,0,0,0,0,0,0h.78a0,0,0,0,0,.05,0V7.33A0,0,0,0,0,11.1,7.29Zm1-.71h-.79a0,0,0,0,0,0,0V9.38a0,0,0,0,0,0,0h.79a0,0,0,0,0,0,0V6.62A0,0,0,0,0,12.14,6.58Zm1,0h-.82a0,0,0,0,0,0,0V7.1a0,0,0,0,0,0,0h.82a0,0,0,0,0,0,0V6.62A0,0,0,0,0,13.19,6.58Zm0,.71h-.79a0,0,0,0,0,0,0V9.38a0,0,0,0,0,0,0h.79a0,0,0,0,0,0,0V7.33A0,0,0,0,0,13.18,7.29Zm1.3,0A1.13,1.13,0,0,0,13.3,8.35h0a1.12,1.12,0,0,0,1.17,1.09,1.13,1.13,0,0,0,1.19-1.1h0A1.12,1.12,0,0,0,14.48,7.24Zm.34,1.12a.34.34,0,0,1-.34.36.35.35,0,0,1-.34-.37h0A.35.35,0,0,1,14.47,8a.36.36,0,0,1,.35.38ZM2.59,5.67A2.33,2.33,0,1,0,4.91,8,2.32,2.32,0,0,0,2.59,5.67Zm0,4.05A1.72,1.72,0,1,1,4.3,8,1.71,1.71,0,0,1,2.59,9.72Zm.58-2.79a.49.49,0,0,0-.48.49.48.48,0,0,0,.48.48.47.47,0,0,0,.48-.48A.48.48,0,0,0,3.17,6.93Zm0,1.17a.48.48,0,0,0-.48.48.49.49,0,0,0,.48.49.48.48,0,0,0,.48-.49A.47.47,0,0,0,3.17,8.1ZM2,8.1a.47.47,0,0,0-.48.48A.48.48,0,0,0,2,9.07a.49.49,0,0,0,.48-.49A.48.48,0,0,0,2,8.1ZM2,6.93a.48.48,0,0,0-.48.49A.47.47,0,0,0,2,7.9a.48.48,0,0,0,.48-.48A.49.49,0,0,0,2,6.93Z"></path></g>
</symbol>

<symbol id="upload" viewBox="0 0 16 16">
  <title>upload</title><g id="Layer_1" data-name="Layer 1"><path d="M14.58,7.6H12.47a1.22,1.22,0,0,0-1.12.72l-1,2.07-4.74,0-1-2A1.23,1.23,0,0,0,3.53,7.6H1.42A1.19,1.19,0,0,0,.23,8.8v5.09a1.89,1.89,0,0,0,1.88,1.9H13.89a1.89,1.89,0,0,0,1.88-1.9V8.8A1.19,1.19,0,0,0,14.58,7.6Zm-.1,6.29a.6.6,0,0,1-.59.61H2.11a.6.6,0,0,1-.59-.61v-5h2l1,2a1.29,1.29,0,0,0,1.18.78h4.74a1.27,1.27,0,0,0,1.16-.76l.93-2h2Z"></path><path d="M4.45,5.14A.76.76,0,0,0,5,4.94L7.36,2.7V8A.76.76,0,1,0,8.87,8V2.7l2.38,2.22a.75.75,0,0,0,1.06,0,.76.76,0,0,0,0-1.07L8.63.41,8.51.34A.29.29,0,0,0,8.39.27.58.58,0,0,0,8.13.21h0a.71.71,0,0,0-.28.06.37.37,0,0,0-.12.07A.67.67,0,0,0,7.6.41L3.93,3.83a.76.76,0,0,0,.52,1.31Z"></path></g>
</symbol>

<symbol id="viewer" viewBox="0 0 16 16">
  <title>viewer</title><g id="Layer_1" data-name="Layer 1"><path d="M8,3C4.16,3,.72,6.39.72,8S4.16,13,8,13s7.28-3.4,7.28-5S11.84,3,8,3Zm0,8.42C4.91,11.41,2.41,8.64,2.31,8c.1-.66,2.6-3.43,5.69-3.43S13.59,7.36,13.69,8C13.59,8.64,11.09,11.41,8,11.41Z"></path><path d="M8,5.72A2.28,2.28,0,1,0,10.28,8,2.29,2.29,0,0,0,8,5.72Zm0,3A.68.68,0,1,1,8.68,8,.67.67,0,0,1,8,8.68Z"></path></g>
</symbol>
    </svg>