<svg xmlns="http://www.w3.org/2000/svg" xmlns:xlink="http://www.w3.org/1999/xlink">
    
<symbol id="arrow-indent" viewBox="0 0 16 16">
  <title>arrow-indent</title><g id="Layer_1" data-name="Layer 1"><path d="M4.078,9.848V1.688H1.858v8.1a2.185,2.185,0,0,0,2.22,2.253h8.591v-2.2Z" fill-rule="evenodd"></path><polygon points="15.333 10.953 13.764 9.383 10.95 6.574 9.38 8.143 12.192 10.955 9.38 13.767 10.95 15.336 13.764 12.527 15.333 10.958 15.331 10.955 15.333 10.953" fill-rule="evenodd"></polygon></g>
</symbol>

<symbol id="bill" viewBox="0 0 16 16">
  <title>bill</title><g id="Layer_1" data-name="Layer 1"><path d="M13.825,1.4V13.809l-.893-.463-.7-.361-.644.448-1.372.954L8.664,13.4l-.675-.428-.686.409-1.677,1-1.217-.92-.654-.494-.727.376-.9.467V1.4h11.7m1.3-1.3H.826V15.947l2.8-1.447L5.54,15.947,7.968,14.5l2.285,1.447,2.08-1.447,2.792,1.447V.1Z"></path><path d="M5.911,6.69c-.7-.289-.818-.438-.818-.662,0-.2.153-.425.582-.425a1.648,1.648,0,0,1,.863.234l.254.145.375-.988-.183-.108a2.164,2.164,0,0,0-.729-.26V3.817H4.961v.89A1.468,1.468,0,0,0,3.918,6.122c0,.9.734,1.308,1.45,1.589.607.246.731.458.731.7,0,.31-.275.518-.684.518a1.845,1.845,0,0,1-.99-.295l-.266-.177-.36,1,.153.11a2.356,2.356,0,0,0,1.009.362v.822H6.255v-.94A1.563,1.563,0,0,0,7.281,8.357,1.809,1.809,0,0,0,5.911,6.69Z"></path><rect x="8.284" y="4.205" width="3.883" height="1.4"></rect><rect x="8.284" y="6.779" width="3.883" height="1.4"></rect><rect x="8.284" y="9.353" width="1.969" height="1.4"></rect></g>
</symbol>

<symbol id="calendar" viewBox="0 0 16 16">
  <title>calendar</title><g id="Layer_1" data-name="Layer 1"><path d="M15.171,2.527V0H10.106V2.527H5.927V0H.829V2.527H0V16H16V2.527Zm-.86,4.819H11.428V4.235h2.883Zm-2.883.388h2.883v3.105H11.428ZM11.8,1.68h1.683V3.388H11.8ZM11.04,4.235V7.346H8.151V4.235Zm-6.554,6.6H1.693V7.734H4.486Zm.388-3.105H7.763v3.105H4.874Zm2.889,3.493v3.126H4.874V11.227Zm.388-3.493H11.04v3.105H8.151Zm2.889,3.493v3.126H8.151V11.227ZM7.763,4.235V7.346H4.874V4.235ZM2.551,1.68H4.205V3.388H2.551ZM4.486,4.235V7.346H1.693V4.235ZM1.693,11.227H4.486v3.126H1.693Zm9.735,3.126V11.227h2.883v3.126Z" fill-rule="evenodd"></path></g>
</symbol>

<symbol id="campus" viewBox="0 0 16 16">
  <title>campus</title><g id="Layer_1" data-name="Layer 1"><path d="M7.884,3.374V.1L.119,2.633V15.887H15.881V4.962ZM5.116,14.786H3.154V11.2H5.116Zm1.667,0H6V10.315H2.273v4.471H1.22V3.431L6.783,1.613V14.786Zm1.1,0V4.5l6.9,1.37v5.675h-.964v.881h.964V13.2H12.563v.88H14.78v.708Z"></path><path d="M13.74,7.164H9.011v2.858H13.74Zm-.881,1.977H9.892v-1.1h2.967Z"></path><path d="M4.135,4.4a1.38,1.38,0,1,0,1.379,1.38A1.381,1.381,0,0,0,4.135,4.4Zm0,1.878a.5.5,0,1,1,.5-.5A.5.5,0,0,1,4.135,6.275Z"></path></g>
</symbol>

<symbol id="church-center-o" viewBox="0 0 16 16">
  <title>church-center-o</title><g id="Layer_1" data-name="Layer 1"><path d="M14.127,5.207l-.087-.174C12.823,3.816,9,.6,8.824.513a1.32,1.32,0,0,0-1.738,0L2.13,4.773l-.087.087c-.26.173-.347.347-.26,5.3,0,2.261.087,4.608.087,4.608a.986.986,0,0,0,.956,1.043H5.608A1.057,1.057,0,0,0,6.651,14.77V12.249a4.528,4.528,0,0,1,1.3-3.043,4.528,4.528,0,0,1,1.3,3.043v2.608a.986.986,0,0,0,1.043.956h2.782a.965.965,0,0,0,.956-.956l.174-4.695A27.2,27.2,0,0,0,14.127,5.207ZM12.562,5.12A17.117,17.117,0,0,0,7.955,7.728,18.346,18.346,0,0,0,5.26,5.9c-.609-.261-1.217-.522-1.913-.783L7.781,1.3a.163.163,0,0,1,.261,0ZM10.3,14.77V12.249A5.5,5.5,0,0,0,8.737,8.511,13.6,13.6,0,0,1,12.91,6.164c.087,0,.174-.087.261-.087.087,1.477,0,5.476-.174,8.78ZM5.608,12.249V14.77H2.913c-.174-3.3-.261-7.3-.174-8.78.7.26,1.3.521,1.912.782A13.245,13.245,0,0,1,7.259,8.424,5.423,5.423,0,0,0,5.608,12.249Z"></path><path d="M6.39,4.6A1.543,1.543,0,0,0,7.955,6.077,1.559,1.559,0,0,0,9.52,4.512,1.487,1.487,0,0,0,7.955,3.034,1.558,1.558,0,0,0,6.39,4.6Zm2.26,0a.7.7,0,1,1-.7-.7A.686.686,0,0,1,8.65,4.6Z"></path></g>
</symbol>

<symbol id="compass" viewBox="0 0 16 16">
  <title>compass</title><g id="Layer_1" data-name="Layer 1"><path d="M8,.132A7.868,7.868,0,1,0,15.887,8,7.887,7.887,0,0,0,8,.132ZM8,14.773A6.773,6.773,0,1,1,14.791,8,6.79,6.79,0,0,1,8,14.773ZM8,2.305A5.7,5.7,0,1,0,13.708,8,5.707,5.707,0,0,0,8,2.305ZM8,13.058A5.058,5.058,0,1,1,13.071,8,5.07,5.07,0,0,1,8,13.058Zm2.411-7.891L7.055,6.922a.324.324,0,0,0-.136.136L5.148,10.423a.323.323,0,0,0,.286.473.317.317,0,0,0,.152-.038L8.94,9.074c.018-.01.026-.03.042-.043s.025,0,.035-.014.006-.024.014-.034.033-.024.042-.042l1.773-3.336a.323.323,0,0,0-.435-.438ZM7.287,7.746l.964.963L6.208,9.8Zm1.421.507L7.744,7.29,9.787,6.222Z"></path></g>
</symbol>

<symbol id="contact-card" viewBox="0 0 16 16">
  <title>contact-card</title><g id="Layer_1" data-name="Layer 1"><path d="M13.129,5.886H8.107v.881h5.022Zm0,1.758H8.107v.882h5.022ZM10.5,9.389H8.107v.882H10.5ZM6.112,8.2,5.59,7.991A.915.915,0,0,0,6.049,7.2V6.459a1.442,1.442,0,1,0-2.883,0V7.2a.913.913,0,0,0,.464.794L3.107,8.2a1.008,1.008,0,0,0-.64.943v1.478a.52.52,0,0,0,.518.519H6.23a.519.519,0,0,0,.518-.519V9.142A1.009,1.009,0,0,0,6.112,8.2ZM3.95,6.459a.658.658,0,1,1,1.315,0V7.2a.129.129,0,0,1-.068.114l-.433.235a.328.328,0,0,1-.313,0l-.433-.235A.129.129,0,0,1,3.95,7.2Zm2.014,3.9H3.251V9.144A.226.226,0,0,1,3.4,8.932l1.223-.484,1.2.482a.227.227,0,0,1,.143.212Z"></path><path d="M15.091,2.174V13.826H.894V2.174h14.2m0-.9H.894a.9.9,0,0,0-.9.9V13.826a.9.9,0,0,0,.9.9h14.2a.9.9,0,0,0,.9-.9V2.174a.9.9,0,0,0-.9-.9Z"></path></g>
</symbol>

<symbol id="editor" viewBox="0 0 16 16">
  <title>editor</title><g id="Layer_1" data-name="Layer 1"><path d="M14.378,4.8a1.434,1.434,0,0,0,0-2.028L12.643,1.036a1.434,1.434,0,0,0-2.028,0l-7,7L3.6,11.749l3.816.013ZM4.754,10.6l.009-2.089,6.665-6.665a.285.285,0,0,1,.4,0l1.735,1.735a.285.285,0,0,1,0,.4L6.941,10.611Z"></path><rect x="1.126" y="13.824" width="13.749" height="1.5"></rect></g>
</symbol>

<symbol id="integration-connected" viewBox="0 0 16 16">
  <title>integration-connected</title><g id="Layer_1" data-name="Layer 1"><path d="M15.237,7.5H13.143a3.071,3.071,0,0,0-3.011-2.57H9.067a.485.485,0,0,0-.477.477v.771h-1.1V5.374A.486.486,0,0,0,7.01,4.9H5.945A3.043,3.043,0,0,0,2.934,7.5H.841a.5.5,0,0,0-.551.441A.521.521,0,0,0,.731,8.5h2.13A3.042,3.042,0,0,0,5.872,11.1H6.937a.485.485,0,0,0,.477-.477V9.818H8.553c.012,0,.024,0,.037,0v.77a.485.485,0,0,0,.477.477H10.1a3.043,3.043,0,0,0,3.012-2.607h2.056a.521.521,0,0,0,.551-.441A.544.544,0,0,0,15.237,7.5Zm-8.7,2.608H5.945A2.092,2.092,0,0,1,3.852,8.018,2.116,2.116,0,0,1,5.945,5.925h.588C6.5,5.925,6.5,10.112,6.533,10.112Zm.918-1.286V7.174H8.59V8.826Zm2.681,1.286H9.471V5.888h.588a2.132,2.132,0,0,1,2.13,2.13A2.086,2.086,0,0,1,10.132,10.112Z"></path></g>
</symbol>

<symbol id="integration-disconnected" viewBox="0 0 16 16">
  <title>integration-disconnected</title><g id="Layer_1" data-name="Layer 1"><path id="Symbols" d="M4.138,8.826a.5.5,0,0,0-.109.992h1.2v.808A.484.484,0,0,0,5.7,11.1H6.8A3.048,3.048,0,0,0,9.8,8.5h2.167a.5.5,0,0,0,.437-.551.506.506,0,0,0-.437-.441H9.841A3.086,3.086,0,0,0,6.8,4.9H5.74a.483.483,0,0,0-.473.477h0v.808H4.138a.624.624,0,0,0-.546.478.52.52,0,0,0,.473.55h1.2V8.826ZM6.213,5.888H6.8A2.083,2.083,0,0,1,8.871,7.982,2.107,2.107,0,0,1,6.8,10.075H6.213V5.888Z"></path></g>
</symbol>

<symbol id="integrations" viewBox="0 0 16 16">
  <title>integrations</title><g id="Layer_1" data-name="Layer 1"><path d="M15.716.328a.658.658,0,0,0-.931,0l-1.45,1.45a4.412,4.412,0,0,0-5.942.3l-.857.857a.727.727,0,0,0,0,1.027L12,9.42a.725.725,0,0,0,1.027,0l.856-.856a4.445,4.445,0,0,0,.376-5.845l1.459-1.46A.658.658,0,0,0,15.716.328ZM12.95,7.633l-.439.438L7.885,3.445l.439-.438a3.14,3.14,0,0,1,4.443,0l.183.183A3.145,3.145,0,0,1,12.95,7.633ZM8.782,8.917,7.561,10.139,5.909,8.487,7.143,7.253a.658.658,0,1,0-.931-.931L4.978,7.556,4,6.58a.725.725,0,0,0-1.027,0l-.856.856a4.446,4.446,0,0,0-.376,5.846L.284,14.741A.659.659,0,0,0,.75,15.865a.652.652,0,0,0,.465-.193l1.451-1.45a4.412,4.412,0,0,0,5.942-.3l.856-.856a.725.725,0,0,0,0-1.027l-.972-.972L9.714,9.849a.659.659,0,1,0-.932-.932ZM7.676,12.994a3.141,3.141,0,0,1-4.442,0l-.184-.183a3.147,3.147,0,0,1,0-4.443l.439-.439,4.626,4.626Z"></path></g>
</symbol>

<symbol id="lightbulb" viewBox="0 0 16 16">
  <title>lightbulb</title><g id="Layer_1" data-name="Layer 1"><path d="M10.213,4.858a.354.354,0,0,1-.708,0c0-.708-1.062-.974-1.594-.974a.4.4,0,0,1-.265-.354A.381.381,0,0,1,8,3.176C8.885,3.265,10.213,3.707,10.213,4.858Zm1.5,0c0-1.947-1.947-3.1-3.717-3.1s-3.717,1.062-3.717,3.1a2.807,2.807,0,0,0,.708,1.77c.088.177.354.354.531.62a5.669,5.669,0,0,1,1.416,2.92H9.151a5.061,5.061,0,0,1,1.416-2.92,4.069,4.069,0,0,1,.619-.62A3.19,3.19,0,0,0,11.717,4.858Zm1.328,0a4.264,4.264,0,0,1-.974,2.655c-.619.8-1.593,1.77-1.681,2.832a.931.931,0,0,1,.442.8.8.8,0,0,1-.265.62.8.8,0,0,1,.265.619.931.931,0,0,1-.442.8.8.8,0,0,1,.088.442,1,1,0,0,1-1.062.974A1.66,1.66,0,0,1,8,15.567a1.516,1.516,0,0,1-1.416-.973.95.95,0,0,1-1.062-.974,3.817,3.817,0,0,1,.088-.442,1.057,1.057,0,0,1-.442-.8.8.8,0,0,1,.265-.619.8.8,0,0,1-.265-.62.932.932,0,0,1,.442-.8A5.2,5.2,0,0,0,3.929,7.513a3.535,3.535,0,0,1-.974-2.655C2.955,2.2,5.522.433,8,.433S13.045,2.114,13.045,4.858Z"></path></g>
</symbol>

<symbol id="photo" viewBox="0 0 16 16">
  <title>photo</title><g id="Layer_1" data-name="Layer 1"><path d="M14.72.607H1.28a1.306,1.306,0,0,0-1.307,1.3V14.091a1.306,1.306,0,0,0,1.307,1.3H14.72a1.306,1.306,0,0,0,1.307-1.3V1.909A1.306,1.306,0,0,0,14.72.607Zm.3,13.484a.3.3,0,0,1-.3.3H1.28a.3.3,0,0,1-.3-.3V11.557L5.044,7.949l4.026,4.01a.477.477,0,0,0,.366.147.506.506,0,0,0,.36-.16L12.29,9.267l2.73,2.766Zm0-3.489L12.638,8.189a.52.52,0,0,0-.366-.15.505.505,0,0,0-.362.161l-2.5,2.682L5.419,6.905a.506.506,0,0,0-.691-.02L.98,10.213v-8.3a.3.3,0,0,1,.3-.3H14.72a.3.3,0,0,1,.3.3ZM9.367,2.491A2.121,2.121,0,1,0,11.5,4.611,2.127,2.127,0,0,0,9.367,2.491Zm0,3.238a1.118,1.118,0,1,1,1.122-1.118A1.122,1.122,0,0,1,9.367,5.729Z"></path></g>
</symbol>

<symbol id="renew" viewBox="0 0 16 16">
  <title>renew</title><g id="Layer_1" data-name="Layer 1"><path d="M8.054,15.9A7.89,7.89,0,1,1,7.994.118H8a7.886,7.886,0,0,1,5.614,13.429A7.8,7.8,0,0,1,8.054,15.9ZM8,1.519A6.49,6.49,0,1,0,8,14.5a6.5,6.5,0,0,0,6.489-6.531A6.512,6.512,0,0,0,8,1.519Z"></path><path d="M8,12.532A4.529,4.529,0,0,1,3.477,7.977a4.623,4.623,0,0,1,.1-.9.651.651,0,1,1,1.274.264,3.2,3.2,0,0,0,.864,2.928,3.172,3.172,0,0,0,2.269.957A3.223,3.223,0,1,0,8,4.786,3.206,3.206,0,0,0,5.8,5.658a.649.649,0,0,1-.889-.947A4.521,4.521,0,1,1,8,12.532Z"></path><path d="M5.423,8.882a.647.647,0,0,1-.46-.192l-.836-.836-.836.836a.65.65,0,1,1-.92-.918l1.3-1.3a.668.668,0,0,1,.92,0l1.3,1.3a.651.651,0,0,1-.46,1.11Z"></path></g>
</symbol>

<symbol id="safe" viewBox="0 0 16 16">
  <title>safe</title><g id="Layer_1" data-name="Layer 1"><path d="M.368,2.237V13.794A1.932,1.932,0,0,0,2.294,15.72H13.851a1.932,1.932,0,0,0,1.927-1.926V2.237A1.932,1.932,0,0,0,13.851.31H2.294A1.932,1.932,0,0,0,.368,2.237Zm1.284,0A.644.644,0,0,1,2.294,1.6H13.851a.644.644,0,0,1,.643.642V13.794a.644.644,0,0,1-.643.642H2.294a.644.644,0,0,1-.642-.642Z"></path><path d="M6.147,8.015A1.926,1.926,0,1,0,8.073,6.089,1.932,1.932,0,0,0,6.147,8.015Zm1.284,0a.642.642,0,1,1,.642.642A.644.644,0,0,1,7.431,8.015Z"></path><path d="M2.936,6.731V9.3a.643.643,0,0,0,0,1.285v1.284A1.288,1.288,0,0,0,4.22,13.152h7.705a1.287,1.287,0,0,0,1.284-1.284v-7.7a1.287,1.287,0,0,0-1.284-1.284H4.22A1.288,1.288,0,0,0,2.936,4.163V5.447a.642.642,0,0,0,0,1.284Zm1.284,0h0a.642.642,0,1,0,0-1.284h0V4.163h7.705v7.705H4.22V10.584h0a.643.643,0,0,0,0-1.285h0Z"></path></g>
</symbol>

<symbol id="stamp" viewBox="0 0 16 16">
  <title>stamp</title><g id="Layer_1" data-name="Layer 1"><path d="M15.348,3.308h.092a.436.436,0,0,0,.435-.436V1.5a.434.434,0,0,0-.608-.4A.519.519,0,0,1,14.558.56a.435.435,0,0,0-.435-.435H13.108a.5.5,0,0,0-.435.507.51.51,0,0,1-.508.509A.53.53,0,0,1,11.657.56a.435.435,0,0,0-.435-.435H10.207a.5.5,0,0,0-.435.507.51.51,0,0,1-.508.509A.53.53,0,0,1,8.755.56.435.435,0,0,0,8.32.125H7.306a.5.5,0,0,0-.435.507.51.51,0,0,1-.509.509A.529.529,0,0,1,5.855.56.436.436,0,0,0,5.419.125H4.4a.5.5,0,0,0-.435.507.509.509,0,0,1-.508.509A.53.53,0,0,1,2.953.56.435.435,0,0,0,2.518.125H1.5a.5.5,0,0,0-.436.507.51.51,0,0,1-.508.509.435.435,0,0,0-.435.435V2.93a.436.436,0,0,0,.3.415.489.489,0,0,1,0,.943.434.434,0,0,0-.3.414V5.831a.434.434,0,0,0,.3.414.5.5,0,0,1,.358.472.5.5,0,0,1-.358.472.434.434,0,0,0-.3.414V8.732a.434.434,0,0,0,.3.414.49.49,0,0,1,0,.944.435.435,0,0,0-.3.415v1.128a.435.435,0,0,0,.3.415.49.49,0,0,1,0,.944.434.434,0,0,0-.3.414V14.76A.435.435,0,0,0,.56,15.2a.5.5,0,0,1,.473.369.436.436,0,0,0,.417.311H2.571a.434.434,0,0,0,.417-.312.5.5,0,0,1,.946,0,.435.435,0,0,0,.417.312H5.472a.436.436,0,0,0,.418-.312.5.5,0,0,1,.945,0,.437.437,0,0,0,.418.311h1.12a.437.437,0,0,0,.418-.311.5.5,0,0,1,.946,0,.435.435,0,0,0,.417.311h1.121a.436.436,0,0,0,.417-.312.5.5,0,0,1,.946,0,.434.434,0,0,0,.417.312h1.121a.435.435,0,0,0,.417-.312.5.5,0,0,1,.674-.325.435.435,0,0,0,.608-.4V13.463a.435.435,0,0,0-.435-.435h-.092a.509.509,0,0,1,0-1.017h.092a.435.435,0,0,0,.435-.435V10.562a.436.436,0,0,0-.435-.436h-.092a.508.508,0,0,1,0-1.016h.092a.435.435,0,0,0,.435-.435V7.66a.435.435,0,0,0-.435-.435h-.092a.508.508,0,0,1,0-1.016h.092a.435.435,0,0,0,.435-.435V4.759a.435.435,0,0,0-.435-.435h-.092a.508.508,0,0,1,0-1.016Zm-.343,1.843v.231a1.378,1.378,0,0,0,0,2.67v.231a1.378,1.378,0,0,0,0,2.67v.231a1.379,1.379,0,0,0,0,2.671v.471a1.353,1.353,0,0,0-1.113.679h-.554a1.353,1.353,0,0,0-2.347,0h-.554a1.353,1.353,0,0,0-2.347,0H7.536a1.353,1.353,0,0,0-2.347,0H4.635a1.353,1.353,0,0,0-2.347,0H1.734A1.363,1.363,0,0,0,1,14.4v-.713a1.355,1.355,0,0,0,0-2.327v-.574A1.355,1.355,0,0,0,1,8.455V7.88A1.354,1.354,0,0,0,1,5.554V4.979A1.355,1.355,0,0,0,1,2.652V1.94A1.385,1.385,0,0,0,1.879,1h.252a1.382,1.382,0,0,0,1.33,1.016A1.37,1.37,0,0,0,4.78,1h.253A1.38,1.38,0,0,0,6.362,2.011,1.369,1.369,0,0,0,7.681,1h.252A1.382,1.382,0,0,0,9.264,2.011,1.369,1.369,0,0,0,10.582,1h.253a1.381,1.381,0,0,0,1.33,1.016A1.369,1.369,0,0,0,13.483,1h.253A1.382,1.382,0,0,0,15.005,2.01v.471a1.378,1.378,0,0,0,0,2.67Z"></path><path d="M12.591,3.144H3.153a.326.326,0,0,0-.326.326v9.438a.327.327,0,0,0,.326.327h9.438a.327.327,0,0,0,.326-.327V3.47A.326.326,0,0,0,12.591,3.144Zm-.327.653V5.279l-.688-.941a.307.307,0,0,0-.279-.133.327.327,0,0,0-.265.159L7.555,10.2,5.835,7.9a.33.33,0,0,0-.25-.131.344.344,0,0,0-.259.114L3.479,10.033V3.8ZM3.479,12.582v-1.56c.01-.009.022-.012.03-.022L5.556,8.62l1.769,2.362a.318.318,0,0,0,.278.131.33.33,0,0,0,.264-.159l3.474-5.832.823,1.125a.325.325,0,0,0,.1.089v6.246Z"></path><path d="M5.329,6.857a1.4,1.4,0,1,0-1.4-1.4A1.4,1.4,0,0,0,5.329,6.857Zm0-2.149a.748.748,0,1,1-.748.748A.749.749,0,0,1,5.329,4.708Z"></path></g>
</symbol>
    </svg>