<svg xmlns="http://www.w3.org/2000/svg" xmlns:xlink="http://www.w3.org/1999/xlink">
    
<symbol id="arrow-indent" viewBox="0 0 16 16">
  <path fill-rule="evenodd" clip-rule="evenodd" d="M3.48173 9.33618V1.17499H1.26108V9.27617C1.25183 9.5718 1.3027 9.86622 1.4106 10.1416C1.5185 10.417 1.68119 10.6676 1.88881 10.8783C2.09643 11.089 2.34466 11.2553 2.61847 11.3673C2.89227 11.4792 3.18596 11.5344 3.48173 11.5295H12.0752V9.32918L3.48173 9.33618Z"></path><path fill-rule="evenodd" clip-rule="evenodd" d="M14.74 10.4413L13.1706 8.87112L10.3557 6.0617L8.78527 7.63093L11.5981 10.4433L8.78527 13.2558L10.3557 14.825L14.74 10.4463L14.738 10.4433L14.74 10.4413Z"></path>
</symbol>

<symbol id="bill" viewBox="0 0 16 16">
  <path d="M13.8472 1.37526V13.7866L12.9543 13.3235L12.2544 12.9625L10.2387 14.3647L8.68691 13.3775L8.012 12.9495L5.64933 14.3587L3.7786 12.9444L3.0517 13.3205L2.15182 13.7876V1.37526H13.8502H13.8472ZM15.15 0.0750122H0.850006V15.925L3.64961 14.4777L5.56335 15.925L7.99101 14.4777L10.2757 15.925L12.3554 14.4777L15.147 15.925V0.0750122H15.15Z"></path><path d="M5.9343 6.66626C5.23439 6.37721 5.11641 6.22818 5.11641 6.00414C5.11641 5.8041 5.26939 5.57905 5.69833 5.57905C6.00202 5.57603 6.30064 5.65703 6.56121 5.8131L6.81517 5.95813L7.19012 4.96994L7.00714 4.86192C6.78178 4.73212 6.53486 4.64403 6.27825 4.60187V3.79272H4.98443V4.68288C4.6812 4.77462 4.41579 4.96203 4.22783 5.21711C4.03986 5.4722 3.93945 5.78127 3.94157 6.09815C3.94157 6.99832 4.67547 7.4064 5.39137 7.68745C5.99829 7.9335 6.12227 8.14554 6.12227 8.38759C6.12227 8.69765 5.84731 8.90569 5.43836 8.90569C5.08706 8.90363 4.74364 8.80126 4.4485 8.61063L4.18254 8.4336L3.82259 9.43379L3.97557 9.54381C4.27958 9.74044 4.6248 9.86434 4.98443 9.90587V10.728H6.27825V9.78785C6.57682 9.6786 6.83498 9.48086 7.01827 9.22102C7.20157 8.96117 7.30128 8.65159 7.3041 8.33358C7.2851 7.94534 7.14162 7.57355 6.89491 7.27326C6.64819 6.97296 6.31137 6.76012 5.9343 6.66626Z"></path><path d="M12.1894 4.18079H8.30696V5.58106H12.1894V4.18079Z"></path><path d="M12.1894 6.75528H8.30696V8.15554H12.1894V6.75528Z"></path><path d="M10.2757 9.32976H8.30696V10.73H10.2757V9.32976Z"></path>
</symbol>

<symbol id="calendar" viewBox="0 0 16 16">
  <path fill-rule="evenodd" clip-rule="evenodd" d="M15.171 2.527V0H10.106V2.527H5.927V0H0.829V2.527H0V16H16V2.527H15.171ZM14.311 7.346H11.428V4.235H14.311V7.346ZM11.428 7.734H14.311V10.839H11.428V7.734ZM11.8 1.68H13.483V3.388H11.8V1.68ZM11.04 4.235V7.346H8.151V4.235H11.04ZM4.486 10.835H1.693V7.734H4.486V10.835ZM4.874 7.73H7.763V10.835H4.874V7.73ZM7.763 11.223V14.349H4.874V11.227L7.763 11.223ZM8.151 7.73H11.04V10.835H8.151V7.73ZM11.04 11.223V14.349H8.151V11.227L11.04 11.223ZM7.763 4.235V7.346H4.874V4.235H7.763ZM2.551 1.68H4.205V3.388H2.551V1.68ZM4.486 4.235V7.346H1.693V4.235H4.486ZM1.693 11.227H4.486V14.353H1.693V11.227ZM11.428 14.353V11.227H14.311V14.353H11.428Z"></path>
</symbol>

<symbol id="campus" viewBox="0 0 16 16">
  <path d="M7.88401 3.37963V0.105011L0.119995 2.63849V15.895H15.88V4.96794L7.88401 3.37963ZM5.11636 14.7938H3.15461V11.2071H5.11636V14.7938ZM6.78315 14.7938H6.00025V10.322H2.27372V14.7938H1.22086V3.43664L6.78315 1.6183V14.7938ZM7.88301 14.7938V4.50585L14.7821 5.87611V11.5522H13.8183V12.4334H14.7821V13.2075H12.5624V14.0877H14.7791V14.7958L7.88301 14.7938Z"></path><path d="M13.7393 7.17035H9.01087V10.0289H13.7393V7.17035ZM12.8584 9.14773H9.89176V8.04752H12.8584V9.14773Z"></path><path d="M4.13549 4.40583C3.86254 4.40563 3.59567 4.48641 3.36862 4.63796C3.14158 4.7895 2.96457 5.005 2.85998 5.25719C2.75539 5.50939 2.72792 5.78694 2.78105 6.05475C2.83418 6.32256 2.96552 6.5686 3.15845 6.76173C3.35138 6.95486 3.59724 7.08642 3.86493 7.13976C4.13261 7.1931 4.4101 7.16582 4.66229 7.06138C4.91448 6.95694 5.13004 6.78003 5.2817 6.55303C5.43336 6.32602 5.51431 6.05912 5.51431 5.78609C5.51405 5.42028 5.36872 5.06951 5.11023 4.81074C4.85174 4.55198 4.50118 4.40636 4.13549 4.40583ZM4.13549 6.28418C4.03661 6.28418 3.93995 6.25485 3.85774 6.1999C3.77552 6.14495 3.71144 6.06685 3.6736 5.97547C3.63577 5.88409 3.62587 5.78354 3.64516 5.68653C3.66445 5.58952 3.71206 5.50041 3.78198 5.43047C3.85189 5.36053 3.94097 5.3129 4.03795 5.2936C4.13493 5.27431 4.23545 5.28421 4.3268 5.32206C4.41815 5.35991 4.49623 5.42401 4.55117 5.50625C4.6061 5.58849 4.63542 5.68518 4.63542 5.78409C4.63463 5.9162 4.58161 6.04263 4.48794 6.13577C4.39427 6.22891 4.26756 6.28119 4.13549 6.28118V6.28418Z"></path>
</symbol>

<symbol id="church-center-o" viewBox="0 0 16 16">
  <path d="M14.109 5.20602L14.022 5.032C12.8053 3.81485 8.98309 0.59845 8.80713 0.511439C8.56659 0.300989 8.25788 0.184998 7.93832 0.184998C7.61875 0.184998 7.31004 0.300989 7.0695 0.511439L2.11456 4.77196L2.02758 4.85897C1.76763 5.032 1.68065 5.20602 1.76763 10.1596C1.76763 12.4209 1.85462 14.7682 1.85462 14.7682C1.84694 14.8999 1.86576 15.0318 1.90998 15.1562C1.95419 15.2805 2.0229 15.3947 2.11203 15.4919C2.20115 15.5892 2.30889 15.6676 2.42885 15.7224C2.54881 15.7773 2.67856 15.8075 2.81041 15.8113H5.59182C5.86691 15.8077 6.12975 15.6969 6.32447 15.5025C6.5192 15.3081 6.63045 15.0454 6.63459 14.7702V12.2489C6.66849 11.1067 7.13276 10.0196 7.93432 9.20551C8.73587 10.0196 9.20014 11.1067 9.23404 12.2489V14.8572C9.23783 14.9891 9.26804 15.1189 9.32289 15.2389C9.37773 15.3589 9.45609 15.4667 9.55333 15.5558C9.65057 15.645 9.7647 15.7137 9.88898 15.7579C10.0133 15.8022 10.1451 15.821 10.2768 15.8133H13.0582C13.311 15.811 13.5527 15.7095 13.7315 15.5307C13.9102 15.3519 14.0117 15.1101 14.014 14.8572L14.188 10.1616C14.3124 8.51079 14.286 6.85204 14.109 5.20602ZM12.5443 5.11901C10.8831 5.74424 9.32914 6.62421 7.93832 7.72733C7.09612 7.03923 6.19443 6.42741 5.24389 5.8991C4.63502 5.63807 4.02715 5.37704 3.3313 5.11601L7.76435 1.29854C7.77953 1.27825 7.79922 1.26178 7.82187 1.25044C7.84452 1.2391 7.8695 1.23319 7.89482 1.23319C7.92015 1.23319 7.94513 1.2391 7.96778 1.25044C7.99043 1.26178 8.01012 1.27825 8.0253 1.29854L12.5443 5.11901ZM10.2828 14.7702V12.2489C10.2565 10.8492 9.69762 9.51226 8.72015 8.51042C9.96115 7.48735 11.3737 6.69261 12.8923 6.16314C12.9792 6.16314 13.0662 6.07612 13.1532 6.07612C13.2402 7.55331 13.1532 11.5528 12.9792 14.8572L10.2828 14.7702ZM5.59182 12.2489V14.7702H2.89739C2.72343 11.4698 2.63645 7.4693 2.72343 5.98911C3.42328 6.24915 4.02315 6.51018 4.63502 6.77121C5.56558 7.21839 6.44067 7.77289 7.24246 8.42341C6.72882 8.92073 6.31855 9.51474 6.03526 10.1713C5.75198 10.8278 5.60127 11.5339 5.59182 12.2489Z"></path><path d="M6.37365 4.59894C6.39079 5.00051 6.56387 5.37954 6.85608 5.65541C7.14829 5.93128 7.53657 6.08222 7.93832 6.07612C8.14401 6.07692 8.34783 6.03697 8.53802 5.9586C8.72822 5.88022 8.90102 5.76496 9.04647 5.61946C9.19192 5.47396 9.30714 5.3011 9.38549 5.11084C9.46384 4.92059 9.50377 4.7167 9.50298 4.51093C9.50204 4.30965 9.46026 4.11065 9.38018 3.926C9.3001 3.74134 9.18338 3.57487 9.03709 3.43666C8.8908 3.29846 8.71798 3.1914 8.52911 3.12197C8.34025 3.05254 8.13926 3.02219 7.93832 3.03275C7.7325 3.03182 7.52853 3.07171 7.33822 3.1501C7.1479 3.22849 6.975 3.34384 6.82951 3.48947C6.68402 3.6351 6.56882 3.80813 6.49058 3.99857C6.41233 4.189 6.37259 4.39306 6.37365 4.59894ZM8.63317 4.59894C8.63317 4.73741 8.59212 4.87276 8.51522 4.98789C8.43832 5.10302 8.32902 5.19275 8.20114 5.24574C8.07326 5.29873 7.93254 5.31259 7.79678 5.28558C7.66103 5.25856 7.53632 5.19189 7.43845 5.09398C7.34057 4.99607 7.27392 4.87133 7.24691 4.73552C7.21991 4.59972 7.23377 4.45896 7.28674 4.33103C7.33971 4.20311 7.42941 4.09377 7.5445 4.01684C7.65959 3.93992 7.7949 3.89886 7.93332 3.89886C8.02574 3.89695 8.1176 3.91375 8.20338 3.94826C8.28915 3.98277 8.36706 4.03427 8.43243 4.09966C8.4978 4.16505 8.54928 4.24299 8.58378 4.32879C8.61827 4.41459 8.63507 4.50648 8.63317 4.59894Z"></path>
</symbol>

<symbol id="compass" viewBox="0 0 16 16">
  <path d="M7.981 0.130005C6.42528 0.133762 4.90557 0.598521 3.61386 1.46557C2.32214 2.33262 1.31638 3.56305 0.723636 5.00144C0.130887 6.43982 -0.0222559 8.02162 0.283553 9.54699C0.589361 11.0724 1.3404 12.4729 2.44179 13.5716C3.54318 14.6704 4.94551 15.418 6.47162 15.7202C7.99773 16.0223 9.57915 15.8653 11.0161 15.2691C12.453 14.6729 13.6811 13.6642 14.545 12.3704C15.4089 11.0766 15.87 9.55574 15.87 8.00001C15.865 5.91101 15.0316 3.90929 13.5527 2.43392C12.0737 0.958551 10.07 0.129999 7.981 0.130005ZM7.981 14.7747C6.64186 14.7712 5.33381 14.3708 4.22209 13.6243C3.11036 12.8777 2.24483 11.8184 1.73483 10.5801C1.22483 9.34191 1.09323 7.98031 1.35666 6.66733C1.6201 5.35435 2.26674 4.14889 3.21492 3.20323C4.16309 2.25757 5.37026 1.61412 6.68393 1.35417C7.9976 1.09422 9.35885 1.22943 10.5957 1.74272C11.8326 2.25601 12.8896 3.12435 13.6332 4.23805C14.3768 5.35176 14.7737 6.66087 14.7737 8.00001C14.7692 9.79852 14.0515 11.5218 12.7781 12.7919C11.5047 14.0619 9.77951 14.775 7.981 14.7747ZM7.981 2.30356C6.85349 2.30514 5.75176 2.641 4.81511 3.26867C3.87846 3.89633 3.14894 4.78762 2.71878 5.82986C2.28863 6.87209 2.17716 8.01847 2.39846 9.12405C2.61976 10.2296 3.16389 11.2448 3.96207 12.0411C4.76025 12.8375 5.77663 13.3793 6.88272 13.5981C7.9888 13.8169 9.13492 13.7028 10.1762 13.2703C11.2174 12.8377 12.107 12.1062 12.7326 11.1681C13.3581 10.23 13.6914 9.12753 13.6905 8.00001C13.6873 6.48794 13.0843 5.03891 12.0139 3.97093C10.9435 2.90295 9.49307 2.30329 7.981 2.30356ZM7.981 13.0593C6.98093 13.0567 6.00405 12.7578 5.17377 12.2003C4.34348 11.6429 3.69705 10.8518 3.31611 9.92713C2.93518 9.00244 2.83684 7.9856 3.03352 7.00505C3.2302 6.0245 3.71308 5.12424 4.42114 4.41798C5.12921 3.71173 6.03071 3.23117 7.01176 3.03701C7.99281 2.84284 9.0094 2.94379 9.9331 3.3271C10.8568 3.7104 11.6462 4.35887 12.2015 5.19058C12.7569 6.02229 13.0533 6.99994 13.0533 8.00001C13.0501 9.3431 12.5143 10.6301 11.5634 11.5786C10.6124 12.527 9.32409 13.0596 7.981 13.0593ZM10.3926 5.16629L7.03576 6.92174C6.97769 6.95227 6.93026 6.9997 6.89973 7.05777L5.12828 10.4236C5.10246 10.4729 5.08978 10.5279 5.09148 10.5835C5.09317 10.6391 5.10917 10.6933 5.13794 10.7408C5.1667 10.7884 5.20726 10.8278 5.25568 10.8551C5.3041 10.8824 5.35876 10.8967 5.41435 10.8968C5.46741 10.897 5.51969 10.8839 5.56639 10.8587L8.92124 9.07429C8.93924 9.06429 8.94725 9.04428 8.96325 9.03128C8.97926 9.01827 8.98826 9.03128 8.99826 9.01727C9.00826 9.00327 9.00426 8.99327 9.01226 8.98326C9.02027 8.97326 9.04527 8.95926 9.05427 8.94125L10.8277 5.6044C10.8602 5.54346 10.8723 5.47372 10.8622 5.4054C10.8522 5.33708 10.8205 5.27377 10.7718 5.22478C10.7232 5.17578 10.6601 5.14366 10.5919 5.13314C10.5236 5.12261 10.4538 5.13423 10.3926 5.16629ZM7.26782 7.74595L8.23207 8.70919L6.18855 9.80047L7.26782 7.74595ZM8.68918 8.25308L7.72494 7.28983L9.76846 6.22156L8.68918 8.25308Z"></path>
</symbol>

<symbol id="contact-card" viewBox="0 0 16 16">
  <path d="M13.135 5.88631H8.113V6.76718H13.135V5.88631ZM13.135 7.64405H8.113V8.52592H13.135V7.64405ZM10.506 9.38879H8.113V10.2707H10.506V9.38879ZM6.118 8.19996L5.596 7.991C5.73517 7.91101 5.85084 7.79582 5.93141 7.657C6.01198 7.51818 6.0546 7.36061 6.055 7.20011V6.45922C6.06007 6.26676 6.02654 6.07522 5.95637 5.89593C5.88621 5.71663 5.78084 5.5532 5.64649 5.41527C5.51213 5.27735 5.3515 5.16773 5.17409 5.09288C4.99667 5.01803 4.80606 4.97947 4.6135 4.97947C4.42094 4.97947 4.23033 5.01803 4.05291 5.09288C3.8755 5.16773 3.71487 5.27735 3.58051 5.41527C3.44616 5.5532 3.34079 5.71663 3.27063 5.89593C3.20046 6.07522 3.16693 6.26676 3.172 6.45922V7.20011C3.17217 7.36165 3.21521 7.52026 3.29673 7.65973C3.37825 7.7992 3.49532 7.91455 3.636 7.99399L3.113 8.19996C2.92363 8.27421 2.76116 8.404 2.64694 8.57228C2.53271 8.74056 2.47208 8.93945 2.473 9.14282V10.6206C2.47326 10.758 2.52789 10.8897 2.62495 10.9869C2.72201 11.0841 2.85361 11.139 2.991 11.1395H6.236C6.37347 11.1393 6.50523 11.0845 6.60234 10.9872C6.69946 10.8899 6.754 10.7581 6.754 10.6206V9.14182C6.7549 8.93912 6.6947 8.74084 6.58126 8.57284C6.46781 8.40483 6.30638 8.2749 6.118 8.19996ZM3.956 6.45922C3.95255 6.37073 3.967 6.28246 3.99849 6.19969C4.02997 6.11692 4.07785 6.04136 4.13924 5.97753C4.20064 5.9137 4.27429 5.86293 4.35578 5.82824C4.43727 5.79356 4.52493 5.77568 4.6135 5.77568C4.70207 5.77568 4.78973 5.79356 4.87122 5.82824C4.95271 5.86293 5.02636 5.9137 5.08776 5.97753C5.14915 6.04136 5.19703 6.11692 5.22851 6.19969C5.26 6.28246 5.27445 6.37073 5.271 6.45922V7.20011C5.27106 7.22349 5.26477 7.24644 5.25279 7.26652C5.24081 7.2866 5.2236 7.30304 5.203 7.3141L4.77 7.54906C4.72196 7.57514 4.66816 7.5888 4.6135 7.5888C4.55884 7.5888 4.50504 7.57514 4.457 7.54906L4.024 7.3141C4.0034 7.30304 3.98619 7.2866 3.97421 7.26652C3.96223 7.24644 3.95594 7.22349 3.956 7.20011V6.45922ZM5.97 10.3586H3.257V9.14382C3.2571 9.09748 3.27145 9.05229 3.2981 9.01437C3.32475 8.97645 3.36242 8.94765 3.406 8.93186L4.629 8.44793L5.829 8.92986C5.87138 8.94673 5.90769 8.97598 5.93319 9.01379C5.9587 9.0516 5.97222 9.09622 5.972 9.14182L5.97 10.3586Z"></path><path d="M15.097 2.17486V13.8251H0.9V2.17486H15.1H15.097ZM15.1 1.27499H0.9C0.661305 1.27499 0.432387 1.3698 0.263604 1.53856C0.0948212 1.70732 0 1.9362 0 2.17486V13.8251C0 13.9433 0.0232792 14.0603 0.0685084 14.1695C0.113738 14.2787 0.180031 14.3779 0.263604 14.4614C0.347177 14.545 0.446392 14.6113 0.555585 14.6565C0.664778 14.7017 0.78181 14.725 0.9 14.725H15.1C15.2182 14.725 15.3352 14.7017 15.4444 14.6565C15.5536 14.6113 15.6528 14.545 15.7364 14.4614C15.82 14.3779 15.8863 14.2787 15.9315 14.1695C15.9767 14.0603 16 13.9433 16 13.8251V2.17486C16 1.9362 15.9052 1.70732 15.7364 1.53856C15.5676 1.3698 15.3387 1.27499 15.1 1.27499Z"></path>
</symbol>

<symbol id="editor" viewBox="0 0 16 16">
  <path d="M14.378 4.82957C14.5111 4.69639 14.6168 4.53829 14.6888 4.36428C14.7609 4.19028 14.798 4.00378 14.798 3.81543C14.798 3.62709 14.7609 3.44059 14.6888 3.26659C14.6168 3.09258 14.5111 2.93447 14.378 2.8013L12.6428 1.06506C12.5097 0.931884 12.3516 0.826239 12.1776 0.754163C12.0036 0.682086 11.8171 0.644989 11.6288 0.644989C11.4404 0.644989 11.2539 0.682086 11.0799 0.754163C10.906 0.826239 10.7479 0.931884 10.6147 1.06506L3.61418 8.06601L3.59918 11.7795L7.41546 11.7925L14.378 4.82957ZM4.75326 10.6304L4.76226 8.54107L11.4277 1.87517C11.4811 1.82264 11.5529 1.7932 11.6278 1.7932C11.7026 1.7932 11.7745 1.82264 11.8278 1.87517L13.5629 3.61041C13.6154 3.66373 13.6449 3.73558 13.6449 3.81043C13.6449 3.88529 13.6154 3.95713 13.5629 4.01046L6.94042 10.6414L4.75326 10.6304Z"></path><path d="M14.875 13.8548H1.125V15.355H14.875V13.8548Z"></path>
</symbol>

<symbol id="integration-connected" viewBox="0 0 16 16">
  <path d="M15.2338 7.49999H13.1398C13.0217 6.7853 12.6547 6.13539 12.1037 5.6651C11.5527 5.19482 10.8532 4.93444 10.1288 4.92999H9.06383C8.93796 4.93205 8.81783 4.98297 8.72881 5.07198C8.6398 5.16099 8.58889 5.28113 8.58683 5.40699V6.17799H7.48683V5.37399C7.48373 5.24822 7.43198 5.12855 7.34246 5.04015C7.25294 4.95175 7.13263 4.90151 7.00683 4.89999H5.94183C5.21146 4.89989 4.50542 5.16249 3.95262 5.63983C3.39983 6.11717 3.03715 6.77741 2.93083 7.49999H0.837827C0.706329 7.48567 0.574512 7.52403 0.47124 7.60669C0.367968 7.68934 0.301657 7.80955 0.286827 7.94099C0.275688 8.07273 0.315051 8.20378 0.396938 8.30758C0.478825 8.41138 0.597112 8.48016 0.727827 8.49999H2.85783C2.96396 9.22267 3.32657 9.88303 3.87941 10.3604C4.43225 10.8378 5.1384 11.1003 5.86883 11.1H6.93383C7.05969 11.0979 7.17983 11.047 7.26884 10.958C7.35785 10.869 7.40877 10.7489 7.41083 10.623V9.81799H8.54983C8.56183 9.81799 8.57383 9.81799 8.58683 9.81799V10.588C8.58889 10.7139 8.6398 10.834 8.72881 10.923C8.81783 11.012 8.93796 11.0629 9.06383 11.065H10.0968C10.8284 11.0651 11.5355 10.8016 12.0887 10.3228C12.6418 9.84406 13.004 9.18203 13.1088 8.45799H15.1648C15.2952 8.46702 15.4243 8.42669 15.5264 8.345C15.6284 8.26331 15.6961 8.14623 15.7158 8.01699C15.7102 7.88753 15.6586 7.76433 15.5702 7.66955C15.4819 7.57477 15.3626 7.51464 15.2338 7.49999ZM6.53383 10.108H5.94183C5.38717 10.1083 4.8551 9.88824 4.46262 9.49632C4.07013 9.1044 3.84936 8.57265 3.84883 8.01799C3.85481 7.46475 4.07724 6.93586 4.46846 6.54463C4.85969 6.15341 5.38858 5.93098 5.94183 5.92499H6.52983C6.49683 5.92499 6.49683 10.112 6.52983 10.112L6.53383 10.108ZM7.45183 8.82199V7.17399H8.58683V8.82599L7.45183 8.82199ZM10.1328 10.108H9.46783V5.88799H10.0558C10.6206 5.88852 11.162 6.1131 11.5614 6.51244C11.9607 6.91178 12.1853 7.45324 12.1858 8.01799C12.188 8.56763 11.9731 9.09591 11.588 9.48801C11.2028 9.88012 10.6784 10.1044 10.1288 10.112L10.1328 10.108Z"></path>
</symbol>

<symbol id="integration-disconnected" viewBox="0 0 16 16">
  <path d="M4.13723 8.82599C4.01021 8.82019 3.88575 8.86295 3.78914 8.94558C3.69253 9.02822 3.63103 9.14452 3.61714 9.27086C3.60325 9.3972 3.63802 9.52408 3.71437 9.62571C3.79072 9.72734 3.90293 9.79609 4.02818 9.81799H5.22873V10.626C5.23126 10.7504 5.28163 10.8691 5.36937 10.9573C5.45712 11.0456 5.5755 11.0967 5.69995 11.1H6.80045C7.52897 11.0964 8.23214 10.8323 8.78268 10.3554C9.33322 9.87845 9.69474 9.22028 9.80181 8.49999H11.9698C12.1006 8.48419 12.2198 8.41747 12.3017 8.3143C12.3835 8.21114 12.4214 8.07987 12.407 7.94899C12.3935 7.83738 12.3432 7.73345 12.264 7.6536C12.1849 7.57374 12.0813 7.52251 11.9698 7.50799H9.84283C9.72905 6.78257 9.36021 6.12148 8.80258 5.64346C8.24495 5.16545 7.53506 4.90184 6.80045 4.89999H5.73996C5.61458 4.90258 5.49511 4.95379 5.40681 5.0428C5.3185 5.13181 5.26828 5.25165 5.26675 5.37699V6.18499H4.13723C4.00769 6.1978 3.88539 6.25076 3.78745 6.33646C3.6895 6.42217 3.62081 6.53634 3.59099 6.66299C3.58263 6.79822 3.62742 6.93137 3.7158 7.03409C3.80418 7.13682 3.92918 7.201 4.0642 7.21299H5.26475V8.82599H4.13723ZM6.21318 5.88799H6.80045C7.35297 5.89117 7.88162 6.11354 8.27016 6.50621C8.6587 6.89889 8.87532 7.42972 8.87239 7.98199C8.86881 8.5322 8.65006 9.05917 8.26288 9.45028C7.87571 9.84139 7.35083 10.0656 6.80045 10.075H6.21318V5.88799Z"></path>
</symbol>

<symbol id="integrations" viewBox="0 0 16 16">
  <path d="M15.716 0.327958C15.6549 0.26679 15.5823 0.218265 15.5024 0.185158C15.4226 0.15205 15.3369 0.13501 15.2505 0.13501C15.164 0.13501 15.0784 0.15205 14.9985 0.185158C14.9186 0.218265 14.846 0.26679 14.7849 0.327958L13.3347 1.77796C12.4853 1.07768 11.4047 0.720203 10.3052 0.775709C9.20562 0.831216 8.16655 1.2957 7.39196 2.07796L6.53485 2.93497C6.39884 3.07126 6.32246 3.25593 6.32246 3.44847C6.32246 3.641 6.39884 3.82568 6.53485 3.96197L11.9995 9.41999C12.0669 9.48756 12.1469 9.54118 12.2351 9.57777C12.3232 9.61435 12.4177 9.63318 12.5131 9.63318C12.6085 9.63318 12.703 9.61435 12.7911 9.57777C12.8793 9.54118 12.9593 9.48756 13.0267 9.41999L13.8828 8.56398C14.6433 7.80074 15.1006 6.7873 15.1698 5.71216C15.239 4.63702 14.9152 3.57335 14.2588 2.71897L15.718 1.25896C15.7791 1.19772 15.8274 1.12505 15.8604 1.04511C15.8933 0.965161 15.9102 0.879508 15.91 0.793045C15.9098 0.706582 15.8926 0.621002 15.8593 0.5412C15.826 0.461397 15.7773 0.388936 15.716 0.327958ZM12.9497 7.63298L12.5106 8.07098L7.88403 3.44497L8.32308 3.00697C8.61474 2.71503 8.96108 2.48344 9.34231 2.32543C9.72354 2.16742 10.1322 2.08609 10.5449 2.08609C10.9575 2.08609 11.3662 2.16742 11.7474 2.32543C12.1286 2.48344 12.475 2.71503 12.7666 3.00697L12.9497 3.18997C13.5381 3.77958 13.8686 4.57852 13.8686 5.41147C13.8686 6.24443 13.5381 7.04337 12.9497 7.63298ZM8.78114 8.91698L7.55998 10.139L5.90777 8.48698L7.14193 7.25298C7.20307 7.19185 7.25157 7.11928 7.28465 7.03941C7.31774 6.95953 7.33477 6.87393 7.33477 6.78748C7.33477 6.70103 7.31774 6.61542 7.28465 6.53555C7.25157 6.45568 7.20307 6.38311 7.14193 6.32198C7.08079 6.26085 7.00821 6.21236 6.92833 6.17927C6.84845 6.14619 6.76283 6.12916 6.67637 6.12916C6.58991 6.12916 6.50429 6.14619 6.42441 6.17927C6.34453 6.21236 6.27195 6.26085 6.21081 6.32198L4.97666 7.55598L3.99853 6.57998C3.93117 6.5124 3.85113 6.45878 3.763 6.4222C3.67487 6.38561 3.58039 6.36678 3.48496 6.36678C3.38954 6.36678 3.29506 6.38561 3.20693 6.4222C3.1188 6.45878 3.03876 6.5124 2.9714 6.57998L2.11529 7.43598C1.35474 8.19939 0.897361 9.213 0.828191 10.2883C0.759021 11.3636 1.08277 12.4275 1.73924 13.282L0.282057 14.741C0.190218 14.8332 0.127742 14.9506 0.102505 15.0782C0.0772683 15.2059 0.0904011 15.3382 0.140248 15.4584C0.190094 15.5786 0.274423 15.6814 0.382601 15.7537C0.490779 15.8261 0.617962 15.8648 0.748116 15.865C0.834559 15.8653 0.92019 15.8483 1.00003 15.8152C1.07987 15.7821 1.15232 15.7334 1.21318 15.672L2.66436 14.222C3.51381 14.9223 4.59438 15.2798 5.69392 15.2243C6.79346 15.1687 7.83253 14.7043 8.60712 13.922L9.46323 13.066C9.53081 12.9986 9.58444 12.9186 9.62103 12.8305C9.65761 12.7424 9.67645 12.6479 9.67645 12.5525C9.67645 12.4571 9.65761 12.3626 9.62103 12.2745C9.58444 12.1864 9.53081 12.1063 9.46323 12.039L8.4911 11.067L9.71326 9.84899C9.83686 9.7254 9.90631 9.55777 9.90631 9.38299C9.90631 9.2082 9.83686 9.04058 9.71326 8.91698C9.58965 8.79339 9.422 8.72396 9.2472 8.72396C9.07239 8.72396 8.90475 8.79339 8.78114 8.91698ZM7.675 12.994C7.08587 13.583 6.28686 13.914 5.45372 13.914C4.62058 13.914 3.82156 13.583 3.23243 12.994L3.04841 12.811C2.46046 12.2211 2.13032 11.4223 2.13032 10.5895C2.13032 9.75669 2.46046 8.95785 3.04841 8.36798L3.48747 7.92898L8.11405 12.555L7.675 12.994Z"></path>
</symbol>

<symbol id="lightbulb" viewBox="0 0 16 16">
  <path d="M10.217 4.85883C10.217 4.95269 10.1797 5.04271 10.1133 5.10908C10.0469 5.17545 9.95678 5.21273 9.86286 5.21273C9.76894 5.21273 9.67886 5.17545 9.61245 5.10908C9.54604 5.04271 9.50873 4.95269 9.50873 4.85883C9.50873 4.15101 8.44635 3.88509 7.91415 3.88509C7.84004 3.85868 7.77537 3.81102 7.72822 3.74807C7.68107 3.68512 7.65353 3.60968 7.64906 3.53118C7.65536 3.43939 7.6947 3.35299 7.75979 3.28794C7.82489 3.22289 7.91134 3.18358 8.00318 3.17727C8.88851 3.26625 10.217 3.70813 10.217 4.85883ZM11.7175 4.85883C11.7175 2.91234 9.76982 1.75965 7.99918 1.75965C6.22854 1.75965 4.28084 2.82137 4.28084 4.85883C4.30314 5.51318 4.55368 6.13915 4.98909 6.62836C5.07713 6.80531 5.34322 6.98227 5.52029 7.2482C6.26702 8.06253 6.75936 9.07719 6.9368 10.1674H9.1546C9.29334 9.06534 9.79111 8.0395 10.5711 7.2482C10.7546 7.01991 10.9622 6.8121 11.1903 6.62836C11.5382 6.10381 11.723 5.48813 11.7215 4.85883H11.7175ZM13.046 4.85883C13.0328 5.8286 12.6891 6.76489 12.0717 7.51313C11.4524 8.31291 10.4781 9.28266 10.39 10.3444C10.5263 10.4284 10.6386 10.5462 10.7161 10.6863C10.7935 10.8264 10.8335 10.9841 10.8322 11.1442C10.8358 11.2605 10.814 11.3763 10.7682 11.4834C10.7224 11.5904 10.6538 11.6862 10.5671 11.764C10.6537 11.8417 10.7222 11.9373 10.768 12.0442C10.8138 12.1511 10.8357 12.2666 10.8322 12.3828C10.8335 12.5429 10.7935 12.7006 10.7161 12.8407C10.6386 12.9808 10.5263 13.0986 10.39 13.1826C10.4612 13.3184 10.4917 13.4718 10.4781 13.6245C10.4748 13.759 10.4445 13.8914 10.3888 14.0139C10.3332 14.1363 10.2534 14.2463 10.1542 14.3372C10.055 14.4282 9.93845 14.4981 9.81156 14.543C9.68467 14.5878 9.55003 14.6066 9.4157 14.5983C9.2903 14.8724 9.09256 15.1072 8.84371 15.2776C8.59485 15.4479 8.30428 15.5472 8.00318 15.565C7.69632 15.5651 7.39664 15.4722 7.14373 15.2985C6.89082 15.1248 6.69658 14.8786 6.58667 14.5923C6.45075 14.6085 6.31293 14.5951 6.18264 14.5532C6.05235 14.5112 5.93267 14.4416 5.83179 14.3491C5.7309 14.2567 5.6512 14.1435 5.59813 14.0174C5.54505 13.8913 5.51987 13.7552 5.52429 13.6185C5.5449 13.4696 5.57429 13.3221 5.61232 13.1766C5.48343 13.0849 5.37679 12.9654 5.30027 12.827C5.22374 12.6885 5.17928 12.5347 5.17016 12.3768C5.16669 12.2606 5.1886 12.1451 5.23439 12.0382C5.28017 11.9313 5.34872 11.8357 5.43525 11.758C5.34859 11.6802 5.27996 11.5844 5.23417 11.4774C5.18838 11.3703 5.16654 11.2545 5.17016 11.1382C5.16892 10.9781 5.20896 10.8205 5.2864 10.6804C5.36385 10.5403 5.47609 10.4225 5.61232 10.3384C5.37232 9.23964 4.78227 8.24831 3.93071 7.51313C3.59424 7.16155 3.33403 6.74433 3.16637 6.28759C2.99871 5.83086 2.92721 5.34445 2.95636 4.85883C2.95636 2.20153 5.52429 0.434998 8.00318 0.434998C10.4821 0.434998 13.05 2.11555 13.05 4.85883H13.046Z"></path>
</symbol>

<symbol id="photo" viewBox="0 0 16 16">
  <path d="M14.6974 0.609986H1.3026C0.958257 0.609718 0.627836 0.746336 0.383693 0.989925C0.13955 1.23351 0.00158189 1.56422 0 1.90963V14.0903C0.00158189 14.4357 0.13955 14.7665 0.383693 15.01C0.627836 15.2536 0.958257 15.3903 1.3026 15.39H14.6974C15.0417 15.3903 15.3722 15.2536 15.6163 15.01C15.8604 14.7665 15.9984 14.4357 16 14.0903V1.91163C15.9989 1.56587 15.8612 1.23465 15.617 0.990633C15.3728 0.746612 15.0421 0.609719 14.6974 0.609986ZM14.9964 14.0903C14.9964 14.1699 14.9649 14.2462 14.9088 14.3024C14.8527 14.3587 14.7767 14.3903 14.6974 14.3903H1.3026C1.22331 14.3903 1.14726 14.3587 1.09119 14.3024C1.03511 14.2462 1.00361 14.1699 1.00361 14.0903V11.557L5.05394 7.95L9.0664 11.9589C9.11324 12.0081 9.17002 12.0466 9.23293 12.072C9.29585 12.0973 9.36344 12.1089 9.43117 12.1059C9.4986 12.1046 9.56509 12.0898 9.62672 12.0624C9.68835 12.0349 9.74385 11.9953 9.78996 11.9459L12.2756 9.26764L14.9964 12.0329V14.0903ZM14.9964 10.6023L12.6224 8.18993C12.5252 8.0937 12.3942 8.03981 12.2576 8.03997C12.1898 8.04102 12.1228 8.05582 12.0608 8.08348C11.9988 8.11114 11.9431 8.15109 11.8968 8.20093L9.40526 10.8822L5.42768 6.90628C5.33682 6.81596 5.21514 6.76364 5.08728 6.75993C4.95941 6.75621 4.83492 6.80138 4.73901 6.88629L1.00361 10.2134V1.91563C1.00361 1.83609 1.03511 1.7598 1.09119 1.70356C1.14726 1.64731 1.22331 1.61571 1.3026 1.61571H14.6974C14.7767 1.61571 14.8527 1.64731 14.9088 1.70356C14.9649 1.7598 14.9964 1.83609 14.9964 1.91563V10.6023ZM9.3624 2.49348C8.94479 2.49585 8.53724 2.62224 8.19117 2.85672C7.84511 3.0912 7.57603 3.42324 7.4179 3.81096C7.25977 4.19868 7.21967 4.62469 7.30266 5.03525C7.38565 5.44581 7.58801 5.8225 7.88421 6.11781C8.18041 6.41312 8.55717 6.6138 8.96696 6.69454C9.37674 6.77528 9.80119 6.73245 10.1867 6.57146C10.5723 6.41047 10.9016 6.13853 11.1333 5.78996C11.3649 5.44139 11.4884 5.03181 11.4882 4.6129C11.4864 4.04911 11.2614 3.50914 10.8628 3.11169C10.4641 2.71425 9.92445 2.49188 9.3624 2.49348ZM9.3624 5.7306C9.1422 5.72981 8.92716 5.66359 8.74445 5.54029C8.56174 5.417 8.41955 5.24216 8.33582 5.03786C8.2521 4.83356 8.23061 4.60896 8.27405 4.39241C8.31749 4.17586 8.42392 3.97708 8.57991 3.82117C8.7359 3.66525 8.93444 3.5592 9.15047 3.5164C9.3665 3.47359 9.59034 3.49596 9.7937 3.58067C9.99707 3.66538 10.1709 3.80864 10.2931 3.99236C10.4154 4.17608 10.4806 4.39201 10.4806 4.6129C10.4796 4.9097 10.3613 5.19398 10.1517 5.40348C9.94211 5.61297 9.65828 5.7306 9.3624 5.7306Z"></path>
</symbol>

<symbol id="renew" viewBox="0 0 16 16">
  <path d="M8.04217 15.8899C7.00576 15.8939 5.97873 15.6937 5.01971 15.3008C4.06068 14.9079 3.18845 14.3301 2.45282 13.6002C1.71718 12.8704 1.13254 12.0028 0.732286 11.047C0.33203 10.0913 0.123992 9.06608 0.120052 8.02995C0.116112 6.99383 0.316346 5.96707 0.709322 5.00831C1.1023 4.04955 1.68032 3.17755 2.41038 2.44212C3.14045 1.70668 4.00826 1.1222 4.96427 0.722054C5.92027 0.321907 6.94576 0.113926 7.98216 0.109987H7.98816C9.5445 0.109057 11.0663 0.568469 12.362 1.43038C13.6577 2.2923 14.6694 3.51818 15.2697 4.9537C15.87 6.38922 16.032 7.9702 15.7354 9.49759C15.4389 11.025 14.6969 12.4305 13.603 13.5372C12.8789 14.2791 12.0143 14.8693 11.0595 15.2733C10.1047 15.6772 9.07894 15.8869 8.04217 15.8899ZM7.98816 1.5108C6.26653 1.5108 4.61542 2.19453 3.39804 3.41158C2.18066 4.62863 1.49675 6.27929 1.49675 8.00046C1.49675 9.72162 2.18066 11.3723 3.39804 12.5893C4.61542 13.8064 6.26653 14.4901 7.98816 14.4901C8.84357 14.4887 9.69027 14.3185 10.4798 13.9893C11.2692 13.6601 11.986 13.1784 12.5889 12.5717C13.1918 11.9651 13.669 11.2454 13.9932 10.4541C14.3174 9.66268 14.4822 8.81512 14.4781 7.95996C14.4618 6.24784 13.7716 4.61103 12.5569 3.40398C11.3422 2.19693 9.70082 1.51677 7.98816 1.5108Z"></path><path d="M7.98816 12.5224C7.39163 12.5216 6.80113 12.403 6.25056 12.1735C5.7 11.9439 5.2002 11.6079 4.77988 11.1847C4.35956 10.7615 4.02699 10.2595 3.80126 9.70751C3.57554 9.15548 3.4611 8.56432 3.46452 7.96796C3.46833 7.66545 3.50182 7.36405 3.56454 7.06808C3.57905 6.98173 3.61083 6.8992 3.65799 6.82543C3.70515 6.75165 3.76671 6.68814 3.83899 6.6387C3.91127 6.58926 3.99279 6.55491 4.07866 6.5377C4.16453 6.52049 4.25299 6.52078 4.33875 6.53855C4.4245 6.55631 4.50579 6.59119 4.57775 6.6411C4.64971 6.691 4.71086 6.75491 4.75754 6.82899C4.80422 6.90307 4.83546 6.98581 4.84941 7.07225C4.86336 7.15868 4.85973 7.24705 4.83872 7.33204C4.72741 7.85337 4.74815 8.39424 4.89906 8.90551C5.04997 9.41679 5.32626 9.88227 5.70284 10.2597C5.9982 10.5623 6.35111 10.8029 6.74083 10.9672C7.13055 11.1316 7.5492 11.2163 7.97216 11.2165C8.40671 11.2363 8.84077 11.168 9.2482 11.0157C9.65563 10.8633 10.028 10.6301 10.3429 10.3301C10.6578 10.0301 10.9087 9.66942 11.0805 9.26988C11.2522 8.87035 11.3413 8.44019 11.3424 8.00531C11.3435 7.57043 11.2565 7.13983 11.0867 6.73945C10.917 6.33907 10.6679 5.97718 10.3545 5.67559C10.0411 5.374 9.66986 5.13894 9.26319 4.98458C8.85652 4.83021 8.4228 4.75973 7.98816 4.77738C7.17035 4.77685 6.38323 5.08875 5.78785 5.64926C5.66226 5.76714 5.49496 5.8303 5.32278 5.82486C5.1506 5.81943 4.98763 5.74583 4.86972 5.62027C4.75182 5.4947 4.68864 5.32746 4.69408 5.15532C4.69951 4.98319 4.77313 4.82026 4.89873 4.70239C5.43695 4.19852 6.09026 3.83388 6.80174 3.64026C7.51321 3.44664 8.26126 3.42991 8.98068 3.59152C9.7001 3.75313 10.3691 4.08818 10.9293 4.56748C11.4895 5.04678 11.924 5.65577 12.1949 6.34139C12.4658 7.02702 12.5648 7.76846 12.4834 8.50112C12.4019 9.23377 12.1425 9.9354 11.7277 10.5449C11.3129 11.1543 10.7553 11.6531 10.1035 11.9978C9.45175 12.3425 8.72553 12.5226 7.98816 12.5224Z"></path><path d="M5.4108 8.87284C5.32523 8.87285 5.2405 8.85588 5.16153 8.82293C5.08256 8.78998 5.01091 8.74169 4.95074 8.68087L4.11462 7.84498L3.2785 8.68087C3.21873 8.74354 3.14704 8.79364 3.06763 8.82823C2.98822 8.86281 2.9027 8.88119 2.81609 8.88227C2.72948 8.88335 2.64352 8.86711 2.56328 8.83452C2.48303 8.80192 2.41011 8.75363 2.3488 8.69246C2.28748 8.6313 2.23901 8.5585 2.20623 8.47835C2.17346 8.39819 2.15703 8.3123 2.15792 8.22571C2.15881 8.13912 2.17701 8.05358 2.21143 7.97412C2.24585 7.89466 2.29581 7.82288 2.35837 7.76299L3.65855 6.46316C3.78271 6.34528 3.9474 6.27956 4.11862 6.27956C4.28984 6.27956 4.45453 6.34528 4.57868 6.46316L5.87887 7.76299C5.96945 7.85407 6.03106 7.96991 6.05593 8.09591C6.0808 8.22192 6.06783 8.35247 6.01864 8.47113C5.96946 8.58978 5.88626 8.69124 5.77952 8.76272C5.67278 8.8342 5.54728 8.87252 5.4188 8.87284H5.4108Z"></path>
</symbol>

<symbol id="safe" viewBox="0 0 16 16">
  <path d="M0.295013 2.22201V13.779C0.296596 14.2893 0.500021 14.7783 0.860874 15.1392C1.22173 15.5 1.71069 15.7034 2.22101 15.705H13.778C14.2885 15.7037 14.7777 15.5004 15.1388 15.1395C15.4999 14.7786 15.7034 14.2895 15.705 13.779V2.22201C15.7037 1.71135 15.5002 1.22197 15.1392 0.860877C14.7781 0.49978 14.2887 0.296333 13.778 0.295013H2.22101C1.71052 0.296597 1.2214 0.50016 0.860522 0.861228C0.499641 1.2223 0.296332 1.71152 0.295013 2.22201ZM1.57901 2.22201C1.58085 2.05278 1.64924 1.89106 1.76938 1.77186C1.88953 1.65265 2.05177 1.58553 2.22101 1.58501H13.778C13.9483 1.58528 14.1115 1.65297 14.232 1.77328C14.3525 1.89359 14.4205 2.05673 14.421 2.22701V13.779C14.4205 13.9493 14.3525 14.1124 14.232 14.2327C14.1115 14.3531 13.9483 14.4207 13.778 14.421H2.22101C2.05091 14.4205 1.88792 14.3527 1.76763 14.2324C1.64735 14.1121 1.57954 13.9491 1.57901 13.779V2.22201Z"></path><path d="M6.07401 8.00001C6.07401 8.38094 6.18697 8.75331 6.3986 9.07004C6.61023 9.38677 6.91103 9.63363 7.26297 9.77941C7.6149 9.92518 8.00215 9.96332 8.37576 9.88901C8.74936 9.81469 9.09255 9.63126 9.3619 9.3619C9.63126 9.09254 9.81469 8.74936 9.88901 8.37576C9.96332 8.00215 9.92518 7.6149 9.77941 7.26297C9.63363 6.91103 9.38677 6.61023 9.07004 6.3986C8.75331 6.18697 8.38094 6.07401 8.00001 6.07401C7.48969 6.0756 7.00073 6.27902 6.63987 6.63987C6.27902 7.00073 6.0756 7.48969 6.07401 8.00001ZM7.35801 8.00001C7.35801 7.87304 7.39567 7.74891 7.46621 7.64334C7.53675 7.53776 7.63702 7.45547 7.75433 7.40688C7.87164 7.35829 8.00073 7.34558 8.12526 7.37035C8.2498 7.39512 8.36419 7.45627 8.45398 7.54605C8.54376 7.63584 8.60491 7.75023 8.62968 7.87477C8.65445 7.9993 8.64174 8.12839 8.59314 8.2457C8.54455 8.36301 8.46227 8.46327 8.35669 8.53382C8.25111 8.60436 8.12699 8.64201 8.00001 8.64201C7.82991 8.64149 7.66692 8.57368 7.54663 8.45339C7.42635 8.33311 7.35854 8.17012 7.35801 8.00001Z"></path><path d="M2.86301 6.71601V9.28501C2.697 9.29156 2.53996 9.36212 2.42482 9.4819C2.30968 9.60167 2.24537 9.76137 2.24537 9.92751C2.24537 10.0937 2.30968 10.2534 2.42482 10.3731C2.53996 10.4929 2.697 10.5635 2.86301 10.57V11.854C2.86433 12.1941 3.00007 12.5198 3.24061 12.7601C3.48115 13.0005 3.80697 13.136 4.14701 13.137H11.852C12.1923 13.1362 12.5184 13.0007 12.7591 12.7601C12.9997 12.5194 13.1352 12.1933 13.136 11.853V4.15301C13.1352 3.81272 12.9997 3.48659 12.7591 3.24596C12.5184 3.00534 12.1923 2.86981 11.852 2.86901H4.14701C3.80766 2.87006 3.48243 3.00499 3.24201 3.24448C3.00158 3.48397 2.86538 3.80867 2.86301 4.14801V5.43201C2.69274 5.43201 2.52945 5.49965 2.40905 5.62005C2.28865 5.74045 2.22101 5.90374 2.22101 6.07401C2.22101 6.24428 2.28865 6.40758 2.40905 6.52798C2.52945 6.64837 2.69274 6.71601 2.86301 6.71601ZM4.14701 6.71601C4.23132 6.71601 4.31481 6.69941 4.3927 6.66714C4.47059 6.63488 4.54136 6.58759 4.60098 6.52798C4.66059 6.46836 4.70788 6.39759 4.74014 6.3197C4.77241 6.24181 4.78901 6.15832 4.78901 6.07401C4.78901 5.98971 4.77241 5.90622 4.74014 5.82833C4.70788 5.75044 4.66059 5.67967 4.60098 5.62005C4.54136 5.56044 4.47059 5.51315 4.3927 5.48088C4.31481 5.44862 4.23132 5.43201 4.14701 5.43201V4.14801H11.852V11.853H4.14701V10.569C4.31303 10.5625 4.47007 10.4919 4.58521 10.3721C4.70035 10.2524 4.76466 10.0927 4.76466 9.92651C4.76466 9.76037 4.70035 9.60067 4.58521 9.4809C4.47007 9.36112 4.31303 9.29056 4.14701 9.28401V6.71601Z"></path>
</symbol>

<symbol id="stamp" viewBox="0 0 16 16">
  <path d="M15.3481 3.30401H15.4401C15.5555 3.30374 15.6661 3.25767 15.7477 3.17591C15.8292 3.09415 15.875 2.98336 15.875 2.86787V1.49543C15.8754 1.42311 15.8577 1.35182 15.8236 1.28807C15.7895 1.22431 15.74 1.17009 15.6796 1.13033C15.6192 1.09058 15.5498 1.06656 15.4778 1.06044C15.4058 1.05432 15.3334 1.06631 15.2671 1.0953C15.1838 1.12876 15.0932 1.14001 15.0043 1.12795C14.9153 1.11589 14.831 1.08094 14.7595 1.0265C14.6881 0.972065 14.632 0.900014 14.5967 0.817392C14.5615 0.73477 14.5482 0.644405 14.5583 0.555133C14.5583 0.439727 14.5125 0.329048 14.431 0.247444C14.3494 0.16584 14.2388 0.119995 14.1234 0.119995H13.1087C12.9865 0.135999 12.8745 0.196631 12.7942 0.290242C12.7139 0.383854 12.671 0.503842 12.6738 0.627156C12.6736 0.76194 12.62 0.891143 12.5248 0.986544C12.4297 1.08194 12.3006 1.13579 12.1659 1.13632C12.0937 1.13366 12.0228 1.11624 11.9576 1.08514C11.8923 1.05404 11.8341 1.00992 11.7866 0.955481C11.739 0.901044 11.703 0.837445 11.681 0.768596C11.6589 0.699748 11.6511 0.627104 11.6581 0.555133C11.6581 0.439727 11.6123 0.329048 11.5307 0.247444C11.4491 0.16584 11.3385 0.119995 11.2232 0.119995H10.2084C10.0862 0.135999 9.9742 0.196631 9.89393 0.290242C9.81366 0.383854 9.77079 0.503842 9.77356 0.627156C9.77329 0.76194 9.71973 0.891143 9.62458 0.986544C9.52942 1.08194 9.40039 1.13579 9.26569 1.13632C9.19338 1.13379 9.12236 1.11647 9.057 1.08543C8.99163 1.05439 8.93332 1.01029 8.88564 0.955834C8.83796 0.901382 8.80194 0.837738 8.77978 0.768824C8.75763 0.699909 8.74981 0.627185 8.75682 0.555133C8.75682 0.439727 8.711 0.329048 8.62944 0.247444C8.54788 0.16584 8.43727 0.119995 8.32193 0.119995H7.30819C7.18596 0.135999 7.07394 0.196631 6.99367 0.290242C6.9134 0.383854 6.87053 0.503842 6.8733 0.627156C6.87304 0.762113 6.81934 0.891466 6.72396 0.986896C6.62859 1.08232 6.49931 1.13605 6.36443 1.13632C6.29225 1.13367 6.22137 1.11625 6.15618 1.08514C6.09098 1.05403 6.03284 1.00989 5.98535 0.95543C5.93786 0.900976 5.90202 0.837364 5.88004 0.768518C5.85806 0.699672 5.85041 0.627051 5.85756 0.555133C5.8573 0.439635 5.81125 0.328959 5.72954 0.247383C5.64782 0.165808 5.5371 0.119995 5.42167 0.119995H4.40293C4.2807 0.135999 4.16869 0.196631 4.08842 0.290242C4.00815 0.383854 3.96528 0.503842 3.96804 0.627156C3.96804 0.762021 3.91457 0.891377 3.81935 0.986834C3.72414 1.08229 3.59496 1.13605 3.46017 1.13632C3.3883 1.13313 3.31782 1.11532 3.25305 1.08399C3.18827 1.05266 3.13055 1.00846 3.0834 0.954077C3.03626 0.899698 3.00068 0.836281 2.97882 0.767692C2.95697 0.699104 2.94931 0.626781 2.9563 0.555133C2.9563 0.439727 2.91049 0.329048 2.82893 0.247444C2.74737 0.16584 2.63675 0.119995 2.52141 0.119995H1.50368C1.38126 0.135772 1.26901 0.196306 1.18853 0.289941C1.10806 0.383576 1.06505 0.50369 1.06779 0.627156C1.06752 0.76194 1.01396 0.891143 0.918805 0.986544C0.823647 1.08194 0.694623 1.13579 0.559917 1.13632C0.444578 1.13632 0.333962 1.18216 0.252405 1.26377C0.170847 1.34537 0.125029 1.45605 0.125029 1.57146V2.92589C0.12487 3.01789 0.153794 3.10759 0.207663 3.18215C0.261533 3.25671 0.337588 3.31232 0.424952 3.34102C0.528191 3.36942 0.619256 3.43095 0.684158 3.51616C0.749061 3.60136 0.784212 3.70553 0.784212 3.81267C0.784212 3.9198 0.749061 4.02397 0.684158 4.10917C0.619256 4.19438 0.528191 4.25591 0.424952 4.28432C0.337585 4.31269 0.261473 4.36808 0.207575 4.4425C0.153677 4.51692 0.124774 4.60654 0.125029 4.69845V5.82781C0.124774 5.91971 0.153677 6.00933 0.207575 6.08375C0.261473 6.15817 0.337585 6.21356 0.424952 6.24194C0.52711 6.2722 0.616931 6.33433 0.681315 6.41927C0.745699 6.5042 0.781278 6.6075 0.78286 6.71409C0.781278 6.82068 0.745699 6.92397 0.681315 7.00891C0.616931 7.09384 0.52711 7.15597 0.424952 7.18624C0.337585 7.21461 0.261473 7.27 0.207575 7.34442C0.153677 7.41884 0.124774 7.50846 0.125029 7.60037V8.72973C0.124774 8.82163 0.153677 8.91125 0.207575 8.98567C0.261473 9.06009 0.337585 9.11548 0.424952 9.14386C0.528014 9.17261 0.618835 9.23433 0.683539 9.31958C0.748242 9.40484 0.78327 9.50895 0.78327 9.61601C0.78327 9.72306 0.748242 9.82717 0.683539 9.91243C0.618835 9.99769 0.528014 10.0594 0.424952 10.0882C0.337505 10.1167 0.261363 10.1723 0.207472 10.2469C0.153581 10.3215 0.124716 10.4112 0.125029 10.5033V11.6316C0.124716 11.7237 0.153581 11.8135 0.207472 11.8881C0.261363 11.9626 0.337505 12.0182 0.424952 12.0468C0.528014 12.0755 0.618835 12.1372 0.683539 12.2225C0.748242 12.3078 0.78327 12.4119 0.78327 12.5189C0.78327 12.626 0.748242 12.7301 0.683539 12.8154C0.618835 12.9006 0.528014 12.9623 0.424952 12.9911C0.337585 13.0195 0.261473 13.0748 0.207575 13.1493C0.153677 13.2237 0.124774 13.3133 0.125029 13.4052V14.7596C0.124361 14.8175 0.13525 14.875 0.157057 14.9286C0.178864 14.9823 0.211151 15.031 0.252026 15.072C0.292901 15.113 0.341542 15.1454 0.395097 15.1673C0.448653 15.1893 0.506047 15.2003 0.563916 15.1998C0.672035 15.2018 0.776567 15.2389 0.861828 15.3055C0.94709 15.372 1.00848 15.4645 1.0368 15.5689C1.06365 15.6587 1.1187 15.7374 1.19379 15.7935C1.26888 15.8495 1.36002 15.8798 1.45369 15.88H2.5744C2.66828 15.8801 2.75967 15.8497 2.83483 15.7935C2.91 15.7372 2.9649 15.658 2.99129 15.5679C3.02507 15.4693 3.08881 15.3837 3.17359 15.3231C3.25838 15.2625 3.35997 15.2299 3.46417 15.2299C3.56837 15.2299 3.66997 15.2625 3.75475 15.3231C3.83954 15.3837 3.90327 15.4693 3.93705 15.5679C3.96359 15.658 4.01852 15.737 4.09366 15.7933C4.1688 15.8495 4.2601 15.8799 4.35394 15.88H5.47466C5.56863 15.88 5.66009 15.8496 5.73539 15.7934C5.8107 15.7371 5.86582 15.658 5.89255 15.5679C5.92655 15.4696 5.99031 15.3844 6.07498 15.3241C6.15964 15.2637 6.26099 15.2313 6.36493 15.2313C6.46887 15.2313 6.57022 15.2637 6.65488 15.3241C6.73955 15.3844 6.80331 15.4696 6.83731 15.5679C6.86436 15.6578 6.91959 15.7365 6.99485 15.7926C7.07011 15.8486 7.1614 15.8789 7.2552 15.879H8.37492C8.46872 15.8789 8.56 15.8486 8.63526 15.7926C8.71052 15.7365 8.76576 15.6578 8.79281 15.5679C8.82659 15.4693 8.89032 15.3837 8.97511 15.3231C9.05989 15.2625 9.16149 15.2299 9.26569 15.2299C9.36989 15.2299 9.47148 15.2625 9.55627 15.3231C9.64105 15.3837 9.70479 15.4693 9.73857 15.5679C9.76528 15.6578 9.82029 15.7366 9.89542 15.7927C9.97054 15.8487 10.0617 15.879 10.1555 15.879H11.2762C11.37 15.8788 11.4612 15.8483 11.5363 15.7921C11.6114 15.7358 11.6664 15.6569 11.6931 15.5669C11.7268 15.4683 11.7906 15.3827 11.8754 15.3221C11.9601 15.2615 12.0617 15.2289 12.1659 15.2289C12.2701 15.2289 12.3717 15.2615 12.4565 15.3221C12.5413 15.3827 12.605 15.4683 12.6388 15.5669C12.6652 15.657 12.7201 15.7362 12.7953 15.7925C12.8705 15.8487 12.9618 15.8791 13.0557 15.879H14.1764C14.2703 15.8789 14.3616 15.8485 14.4367 15.7923C14.5118 15.736 14.5668 15.657 14.5933 15.5669C14.6126 15.4988 14.6461 15.4356 14.6916 15.3815C14.737 15.3273 14.7935 15.2834 14.8572 15.2527C14.9208 15.222 14.9903 15.2051 15.061 15.2032C15.1317 15.2014 15.2019 15.2145 15.2671 15.2418C15.3334 15.2705 15.4057 15.2823 15.4777 15.2761C15.5496 15.2698 15.6188 15.2458 15.6791 15.2061C15.7394 15.1664 15.7889 15.1123 15.8231 15.0487C15.8573 14.985 15.8751 14.9139 15.875 14.8417V13.4622C15.875 13.3468 15.8292 13.2361 15.7476 13.1545C15.6661 13.0729 15.5554 13.0271 15.4401 13.0271H15.3481C15.2172 13.0213 15.0936 12.9651 15.003 12.8704C14.9124 12.7756 14.8618 12.6496 14.8618 12.5184C14.8618 12.3873 14.9124 12.2612 15.003 12.1665C15.0936 12.0717 15.2172 12.0156 15.3481 12.0098H15.4401C15.5554 12.0098 15.6661 11.9639 15.7476 11.8823C15.8292 11.8007 15.875 11.69 15.875 11.5746V10.5603C15.875 10.4448 15.8292 10.334 15.7477 10.2523C15.6661 10.1705 15.5555 10.1244 15.4401 10.1242H15.3481C15.2134 10.1242 15.0843 10.0706 14.989 9.97533C14.8938 9.88003 14.8403 9.75078 14.8403 9.61601C14.8403 9.48123 14.8938 9.35198 14.989 9.25668C15.0843 9.16139 15.2134 9.10785 15.3481 9.10785H15.4401C15.5554 9.10785 15.6661 9.062 15.7476 8.9804C15.8292 8.89879 15.875 8.78811 15.875 8.67271V7.65739C15.875 7.54198 15.8292 7.4313 15.7476 7.3497C15.6661 7.26809 15.5554 7.22225 15.4401 7.22225H15.3481C15.2134 7.22225 15.0843 7.16871 14.989 7.07341C14.8938 6.97811 14.8403 6.84886 14.8403 6.71409C14.8403 6.57931 14.8938 6.45006 14.989 6.35476C15.0843 6.25946 15.2134 6.20593 15.3481 6.20593H15.4401C15.5554 6.20593 15.6661 6.16008 15.7476 6.07848C15.8292 5.99687 15.875 5.88619 15.875 5.77079V4.75547C15.875 4.64006 15.8292 4.52938 15.7476 4.44778C15.6661 4.36617 15.5554 4.32033 15.4401 4.32033H15.3481C15.2134 4.32033 15.0843 4.26679 14.989 4.17149C14.8938 4.07619 14.8403 3.94694 14.8403 3.81217C14.8403 3.67739 14.8938 3.54814 14.989 3.45284C15.0843 3.35754 15.2134 3.30401 15.3481 3.30401ZM15.0052 5.14759V5.37866C14.7088 5.45454 14.4461 5.62697 14.2585 5.86877C14.0709 6.11057 13.969 6.40797 13.969 6.71409C13.969 7.0202 14.0709 7.31761 14.2585 7.55941C14.4461 7.8012 14.7088 7.97364 15.0052 8.04951V8.28058C14.7088 8.35646 14.4461 8.52889 14.2585 8.77069C14.0709 9.01249 13.969 9.30989 13.969 9.61601C13.969 9.92212 14.0709 10.2195 14.2585 10.4613C14.4461 10.7031 14.7088 10.8756 15.0052 10.9514V11.1825C14.709 11.2588 14.4466 11.4314 14.2592 11.6732C14.0718 11.9151 13.9701 12.2124 13.9701 12.5184C13.9701 12.8244 14.0718 13.1218 14.2592 13.3636C14.4466 13.6055 14.709 13.7781 15.0052 13.8544V14.3255C14.7776 14.3358 14.5562 14.4034 14.3617 14.5222C14.1672 14.6409 14.0058 14.8069 13.8925 15.0047H13.3386C13.2202 14.7981 13.0493 14.6265 12.8433 14.5071C12.6373 14.3878 12.4035 14.3249 12.1654 14.3249C11.9274 14.3249 11.6936 14.3878 11.4876 14.5071C11.2816 14.6265 11.1107 14.7981 10.9922 15.0047H10.4384C10.3199 14.7981 10.149 14.6265 9.94305 14.5071C9.73705 14.3878 9.50323 14.3249 9.26519 14.3249C9.02715 14.3249 8.79332 14.3878 8.58733 14.5071C8.38133 14.6265 8.21047 14.7981 8.09199 15.0047H7.53813C7.41965 14.7981 7.24878 14.6265 7.04279 14.5071C6.8368 14.3878 6.60297 14.3249 6.36493 14.3249C6.12689 14.3249 5.89306 14.3878 5.68707 14.5071C5.48108 14.6265 5.31021 14.7981 5.19173 15.0047H4.63787C4.51939 14.7981 4.34853 14.6265 4.14253 14.5071C3.93654 14.3878 3.70271 14.3249 3.46467 14.3249C3.22663 14.3249 2.99281 14.3878 2.78681 14.5071C2.58082 14.6265 2.40995 14.7981 2.29147 15.0047H1.73762C1.57358 14.7214 1.3131 14.5065 1.0038 14.3995V13.6863C1.20512 13.5661 1.37181 13.3956 1.48756 13.1916C1.60331 12.9876 1.66416 12.757 1.66416 12.5224C1.66416 12.2878 1.60331 12.0573 1.48756 11.8533C1.37181 11.6492 1.20512 11.4788 1.0038 11.3586V10.7844C1.20604 10.6644 1.37358 10.4938 1.48995 10.2894C1.60633 10.085 1.66752 9.85376 1.66752 9.61851C1.66752 9.38325 1.60633 9.15205 1.48995 8.94764C1.37358 8.74322 1.20604 8.57263 1.0038 8.45264V7.87746C1.20514 7.75735 1.37186 7.587 1.48763 7.38307C1.60341 7.17914 1.66428 6.94862 1.66428 6.71409C1.66428 6.47955 1.60341 6.24903 1.48763 6.0451C1.37186 5.84117 1.20514 5.67082 1.0038 5.55072V4.97554C1.20512 4.8553 1.37181 4.68485 1.48756 4.48084C1.60331 4.27683 1.66416 4.04626 1.66416 3.81167C1.66416 3.57708 1.60331 3.3465 1.48756 3.14249C1.37181 2.93849 1.20512 2.76803 1.0038 2.6478V1.93557C1.2154 1.86169 1.40591 1.73753 1.55897 1.57375C1.71204 1.40997 1.82309 1.21146 1.88258 0.995273H2.13451C2.21455 1.28687 2.38794 1.54416 2.6281 1.72773C2.86826 1.9113 3.16195 2.01101 3.46417 2.0116C3.76502 2.01061 4.05717 1.91055 4.2955 1.72686C4.53384 1.54317 4.7051 1.28607 4.78284 0.995273H5.03577C5.11638 1.28594 5.28993 1.54219 5.52988 1.72483C5.76982 1.90746 6.06295 2.00643 6.36443 2.00659C6.66466 2.00608 6.95639 1.90679 7.19468 1.72405C7.43296 1.5413 7.60458 1.28522 7.68309 0.995273H7.93503C8.01603 1.2861 8.18996 1.54241 8.43024 1.72502C8.67052 1.90764 8.96395 2.00653 9.26569 2.00659C9.56575 2.00586 9.85725 1.90647 10.0953 1.72374C10.3334 1.54101 10.5049 1.28506 10.5833 0.995273H10.8363C10.9162 1.28695 11.0895 1.54434 11.3297 1.72794C11.5699 1.91153 11.8637 2.01118 12.1659 2.0116C12.4667 2.01056 12.7587 1.91046 12.9968 1.72676C13.235 1.54306 13.4061 1.28599 13.4836 0.995273H13.7365C13.8146 1.27596 13.9793 1.52479 14.2072 1.70623C14.435 1.88767 14.7143 1.99244 15.0052 2.00559V2.47674C14.7088 2.55262 14.4461 2.72505 14.2585 2.96685C14.0709 3.20865 13.969 3.50605 13.969 3.81217C13.969 4.11828 14.0709 4.41569 14.2585 4.65749C14.4461 4.89928 14.7088 5.07172 15.0052 5.14759Z"></path><path d="M12.5918 3.13995H3.15625C3.06981 3.13995 2.98692 3.17431 2.92579 3.23547C2.86467 3.29662 2.83034 3.37957 2.83034 3.46606V12.9071C2.83034 12.9936 2.86464 13.0767 2.92573 13.138C2.98683 13.1993 3.06972 13.2339 3.15625 13.2342H12.5918C12.6784 13.2339 12.7613 13.1993 12.8224 13.138C12.8834 13.0767 12.9178 12.9936 12.9178 12.9071V3.46606C12.9178 3.42323 12.9093 3.38083 12.8929 3.34126C12.8766 3.3017 12.8526 3.26575 12.8223 3.23547C12.792 3.20519 12.7561 3.18116 12.7166 3.16478C12.677 3.14839 12.6346 3.13995 12.5918 3.13995ZM12.2649 3.79316V5.27563L11.5771 4.33433C11.5465 4.28946 11.5046 4.2535 11.4556 4.23013C11.4066 4.20676 11.3523 4.1968 11.2982 4.20129C11.2443 4.20389 11.192 4.21977 11.1457 4.24752C11.0995 4.27527 11.0609 4.31403 11.0332 4.36034L7.55712 10.1982L5.83757 7.89746C5.80818 7.85849 5.77052 7.82652 5.72731 7.80386C5.68409 7.7812 5.63638 7.76841 5.58763 7.76642C5.53886 7.76597 5.49054 7.7759 5.4459 7.79556C5.40126 7.81523 5.36131 7.84416 5.3287 7.88046L3.48217 10.0311V3.79616L12.2649 3.79316ZM3.48217 12.5809V11.0205C3.49217 11.0115 3.50416 11.0084 3.51216 10.9984L5.55864 8.61769L7.32718 10.9804C7.35867 11.024 7.40067 11.0589 7.44928 11.0818C7.49788 11.1047 7.55149 11.1149 7.60511 11.1115C7.65872 11.1085 7.71078 11.0924 7.75677 11.0647C7.80277 11.037 7.84131 10.9984 7.86904 10.9524L11.3422 5.11858L12.1649 6.24394C12.1917 6.28023 12.2258 6.31055 12.2649 6.33297V12.5809H3.48217Z"></path><path d="M5.3317 6.85413C5.60852 6.85413 5.87912 6.772 6.10929 6.61811C6.33946 6.46423 6.51886 6.24551 6.62479 5.98961C6.73073 5.73372 6.75845 5.45213 6.70444 5.18047C6.65044 4.90881 6.51713 4.65928 6.32139 4.46342C6.12565 4.26757 5.87626 4.13419 5.60475 4.08015C5.33325 4.02612 5.05183 4.05385 4.79608 4.15985C4.54032 4.26584 4.32173 4.44534 4.16794 4.67564C4.01414 4.90594 3.93205 5.17671 3.93205 5.45369C3.93205 5.82511 4.07952 6.18132 4.342 6.44395C4.60448 6.70658 4.96049 6.85413 5.3317 6.85413ZM5.3317 4.70445C5.4796 4.70445 5.62418 4.74833 5.74716 4.83055C5.87013 4.91277 5.96598 5.02963 6.02258 5.16635C6.07918 5.30307 6.09399 5.45352 6.06513 5.59866C6.03628 5.7438 5.96506 5.87713 5.86048 5.98177C5.75589 6.08641 5.62265 6.15768 5.47759 6.18655C5.33252 6.21542 5.18217 6.2006 5.04552 6.14397C4.90888 6.08734 4.79209 5.99143 4.70992 5.86839C4.62775 5.74534 4.58389 5.60067 4.58389 5.45269C4.58415 5.25432 4.66302 5.06416 4.80321 4.9239C4.94339 4.78363 5.13345 4.70471 5.3317 4.70445Z"></path>
</symbol>
    </svg>