<svg xmlns="http://www.w3.org/2000/svg">
    <symbol id="accounts-logo-stack" class="symbol"><title id="title-accounts-logo-stack">accounts-logo-stack icon</title><g data-name="Layer 1"><path d="M.314 12.541a.016.016 0 0 0 .016-.017v-.356a.241.241 0 0 0 .211.094.269.269 0 0 0 .276-.192.91.91 0 0 0 0-.448.269.269 0 0 0-.276-.192.241.241 0 0 0-.211.094v-.059a.016.016 0 0 0-.016-.017H.162a.016.016 0 0 0-.017.017v1.059a.016.016 0 0 0 .017.017zm.033-.841a.142.142 0 0 1 .153-.1.142.142 0 0 1 .147.1.476.476 0 0 1 .017.148.488.488 0 0 1-.022.152.142.142 0 0 1-.147.1.142.142 0 0 1-.148-.1.458.458 0 0 1-.017-.149.447.447 0 0 1 .017-.151zm1.316.554h.073a.016.016 0 0 0 .016-.017v-.132a.015.015 0 0 0-.016-.016H1.7c-.047 0-.069-.019-.069-.073v-.878a.015.015 0 0 0-.016-.016h-.153a.016.016 0 0 0-.017.016v.888c0 .153.063.228.218.228zm1.186-.487h-.161c-.2 0-.319.079-.319.252a.238.238 0 0 0 .267.243.259.259 0 0 0 .225-.093v.058a.016.016 0 0 0 .017.017h.139a.016.016 0 0 0 .016-.017v-.52c0-.194-.089-.277-.332-.277a.467.467 0 0 0-.282.078.015.015 0 0 0 0 .021l.061.109a.015.015 0 0 0 .023 0 .285.285 0 0 1 .182-.054c.133 0 .176.041.176.132v.038c-.002.01-.005.013-.012.013zm.01.209c0 .091-.063.136-.176.136-.089 0-.137-.033-.137-.1s.053-.108.171-.108h.132a.009.009 0 0 1 .01.01zm.778-.528h-.152a.016.016 0 0 0-.016.017v.762a.016.016 0 0 0 .016.017h.152a.016.016 0 0 0 .016-.017v-.459a.153.153 0 0 1 .152-.173c.1 0 .15.071.15.173v.459a.016.016 0 0 0 .017.017h.152a.016.016 0 0 0 .016-.017v-.5a.271.271 0 0 0-.275-.3.246.246 0 0 0-.21.093v-.058a.016.016 0 0 0-.018-.014zm1.103 0h-.152a.016.016 0 0 0-.017.017v.762a.016.016 0 0 0 .017.017h.152a.016.016 0 0 0 .016-.017v-.459a.153.153 0 0 1 .152-.173c.1 0 .15.071.15.173v.459a.016.016 0 0 0 .017.017h.151a.016.016 0 0 0 .017-.017v-.5a.272.272 0 0 0-.276-.3.245.245 0 0 0-.209.093v-.058a.016.016 0 0 0-.018-.014zm1.194 0h.152a.017.017 0 0 1 .017.017v.762a.017.017 0 0 1-.017.017h-.152a.017.017 0 0 1-.017-.017v-.762a.016.016 0 0 1 .017-.017zm0-.326h.152a.017.017 0 0 1 .017.017v.143a.017.017 0 0 1-.017.017h-.152a.016.016 0 0 1-.016-.016v-.144a.017.017 0 0 1 .016-.017zm1.011.326h-.151a.016.016 0 0 0-.017.017v.762a.016.016 0 0 0 .017.017h.151a.016.016 0 0 0 .017-.017v-.459a.153.153 0 0 1 .152-.173c.1 0 .15.071.15.173v.459a.016.016 0 0 0 .016.017h.152a.016.016 0 0 0 .017-.017v-.5a.272.272 0 0 0-.276-.3.246.246 0 0 0-.21.093v-.058a.016.016 0 0 0-.018-.014zm1.255.946a.249.249 0 0 1-.173-.074.014.014 0 0 0-.024 0l-.1.1a.015.015 0 0 0 0 .023.4.4 0 0 0 .289.119.333.333 0 0 0 .371-.365v-.729a.016.016 0 0 0-.016-.017h-.155a.016.016 0 0 0-.016.017v.059a.228.228 0 0 0-.206-.094.266.266 0 0 0-.271.2.591.591 0 0 0-.026.2.6.6 0 0 0 .026.2.265.265 0 0 0 .271.193.229.229 0 0 0 .206-.092v.066c0 .128-.056.194-.176.194zm.161-.437a.149.149 0 0 1-.283 0 .38.38 0 0 1-.018-.131.385.385 0 0 1 .018-.13.15.15 0 0 1 .283 0 .385.385 0 0 1 .018.13.38.38 0 0 1-.021.131zm1.729-.357a.182.182 0 0 1 .147.069.015.015 0 0 0 .023 0l.1-.091a.016.016 0 0 0 0-.023.344.344 0 0 0-.275-.124.32.32 0 0 0-.328.22.781.781 0 0 0 0 .392.32.32 0 0 0 .328.22.349.349 0 0 0 .275-.122c0-.008.007-.017 0-.023l-.1-.091a.014.014 0 0 0-.023 0 .182.182 0 0 1-.147.069.147.147 0 0 1-.149-.1.492.492 0 0 1-.016-.149.478.478 0 0 1 .016-.147.147.147 0 0 1 .149-.1zm1.422.527a.016.016 0 0 0 0-.024l-.1-.085c-.008-.007-.016-.005-.024 0a.241.241 0 0 1-.187.076.173.173 0 0 1-.178-.121.166.166 0 0 1-.012-.061.009.009 0 0 1 .01-.01h.49c.012 0 .018-.006.018-.016a.716.716 0 0 0-.026-.239.352.352 0 0 0-.652 0 .65.65 0 0 0-.026.2.606.606 0 0 0 .028.2.323.323 0 0 0 .332.221.418.418 0 0 0 .327-.141zm-.49-.438a.156.156 0 0 1 .157-.1.154.154 0 0 1 .155.1.2.2 0 0 1 .01.068c0 .007 0 .01-.01.01h-.312a.009.009 0 0 1-.01-.01.222.222 0 0 1 .01-.068zm1.132-.166v-.058a.016.016 0 0 0-.016-.017h-.152a.016.016 0 0 0-.016.017v.762a.016.016 0 0 0 .016.017h.152a.016.016 0 0 0 .016-.017v-.459a.153.153 0 0 1 .146-.168c.1 0 .15.071.15.173v.459a.016.016 0 0 0 .017.017h.152a.016.016 0 0 0 .016-.017v-.5a.272.272 0 0 0-.276-.3.245.245 0 0 0-.205.091zm1.146.069a.009.009 0 0 1 .01.01v.419c0 .155.061.233.221.233h.079a.016.016 0 0 0 .016-.017v-.132a.015.015 0 0 0-.016-.016h-.041c-.051 0-.075-.019-.075-.075V11.6a.009.009 0 0 1 .01-.01h.106a.016.016 0 0 0 .016-.017v-.11a.016.016 0 0 0-.016-.017h-.11a.009.009 0 0 1-.01-.01v-.217a.016.016 0 0 0-.016-.017h-.152a.016.016 0 0 0-.016.017v.217a.009.009 0 0 1-.01.01h-.053a.016.016 0 0 0-.017.017v.11a.016.016 0 0 0 .017.017zm1.588.535a.016.016 0 0 0 0-.024l-.1-.085a.017.017 0 0 0-.025 0 .241.241 0 0 1-.187.076.174.174 0 0 1-.178-.121.189.189 0 0 1-.011-.061.009.009 0 0 1 .01-.01h.49a.016.016 0 0 0 .018-.016.709.709 0 0 0-.027-.239.351.351 0 0 0-.651 0 .616.616 0 0 0-.027.2.635.635 0 0 0 .028.2.323.323 0 0 0 .332.221.421.421 0 0 0 .328-.141zm-.49-.438a.17.17 0 0 1 .311 0 .2.2 0 0 1 .01.068c0 .007 0 .01-.01.01H14.4c-.007 0-.01 0-.01-.01a.2.2 0 0 1 .01-.068zm1.165.555a.016.016 0 0 0 .017-.017V11.8c0-.128.046-.2.15-.2a.214.214 0 0 1 .117.038.015.015 0 0 0 .023 0l.088-.111c.006-.008 0-.014 0-.023a.243.243 0 0 0-.167-.066.226.226 0 0 0-.206.1v-.068a.016.016 0 0 0-.017-.017h-.151a.016.016 0 0 0-.017.017v.762a.016.016 0 0 0 .017.017zm-14.376.816L.107 15.6h.565l.228-.567h1.069l.23.566h.58L1.7 13.06zM1.1 14.543l.335-.817.335.817zm2.74.627a.5.5 0 0 1-.49-.533v-.007a.493.493 0 0 1 .468-.526.565.565 0 0 1 .44.213l.335-.361a.953.953 0 0 0-.771-.324.991.991 0 0 0-1.012 1.005v.007a.986.986 0 0 0 1 1 .972.972 0 0 0 .788-.353l-.32-.324a.612.612 0 0 1-.438.203zm1.866 0a.5.5 0 0 1-.49-.533v-.007a.493.493 0 0 1 .468-.526.563.563 0 0 1 .439.213l.335-.361a.95.95 0 0 0-.77-.324.992.992 0 0 0-1.013 1.005v.007a.986.986 0 0 0 1 1 .972.972 0 0 0 .789-.353l-.32-.324a.614.614 0 0 1-.438.203zm1.883-1.538a1.014 1.014 0 0 0-1.048 1.005v.007a1.045 1.045 0 0 0 2.089-.007v-.007a1 1 0 0 0-1.041-.998zm.5 1.012a.494.494 0 0 1-.5.526.512.512 0 0 1-.507-.533v-.007a.494.494 0 0 1 .5-.526.513.513 0 0 1 .508.533zm2.022.101c0 .259-.134.393-.343.393s-.331-.134-.331-.393v-1.077H8.89v1.25a.633.633 0 0 0 .655.717.683.683 0 0 0 .566-.31v.275h.547v-1.932h-.547zm2.044-1.113a.683.683 0 0 0-.565.31v-.274h-.548V15.6h.548v-1.078c0-.259.133-.393.342-.393s.331.134.331.393V15.6h.548v-1.25a.634.634 0 0 0-.656-.718zm1.645-.457h-.548v.493h-.23v.468h.23v.915c0 .447.227.58.562.58a.809.809 0 0 0 .432-.111v-.44a.558.558 0 0 1-.27.069c-.122 0-.176-.061-.176-.188v-.825h.453v-.468H13.8zm1.578 1.257c-.208-.072-.392-.123-.392-.231v-.007c0-.075.068-.133.2-.133a1.141 1.141 0 0 1 .522.18l.209-.378a1.333 1.333 0 0 0-.721-.223.631.631 0 0 0-.706.612v.007c0 .375.307.5.577.58.212.065.4.1.4.223v.007c0 .087-.073.145-.231.145a1.1 1.1 0 0 1-.609-.231l-.234.36a1.351 1.351 0 0 0 .829.292c.417 0 .738-.2.738-.623V15c.002-.348-.311-.478-.582-.568zM12.52 7.878V2.294A1.72 1.72 0 0 0 10.8.574H4.941a1.72 1.72 0 0 0-1.719 1.72v5.584A1.72 1.72 0 0 0 4.941 9.6H10.8a1.72 1.72 0 0 0 1.72-1.722zm-.929 0a.792.792 0 0 1-.791.791H4.941a.791.791 0 0 1-.79-.791V2.294a.791.791 0 0 1 .79-.791h1.148v.355a.191.191 0 0 0 .192.191h3.174a.191.191 0 0 0 .191-.191V1.5H10.8a.791.791 0 0 1 .791.791z" role="presentation"/><path d="M10.292 5.054a.1.1 0 0 0-.071-.086h-.016l-.33-.037a.507.507 0 0 1-.322-.776l.208-.26.005-.007.006-.011.005-.012a.1.1 0 0 0-.018-.09l-.333-.333A.1.1 0 0 0 9.3 3.4l-.013.009-.259.208a.507.507 0 0 1-.784-.317l-.036-.33v-.021L8.2 2.934a.1.1 0 0 0-.076-.051h-.499a.1.1 0 0 0-.087.071v.016L7.5 3.3a.506.506 0 0 1-.776.321l-.26-.207h-.008L6.439 3.4h-.012a.1.1 0 0 0-.09.018l-.007.006-.333.333a.1.1 0 0 0-.011.111l.009.014.208.26a.506.506 0 0 1-.321.776l-.331.037h-.032a.1.1 0 0 0-.051.077v.493a.1.1 0 0 0 .071.087h.016l.331.037a.505.505 0 0 1 .321.776l-.208.26v.007l-.006.011v.011a.1.1 0 0 0 .018.092l.335.335a.1.1 0 0 0 .111.01l.014-.009.26-.208A.508.508 0 0 1 7.5 7.3l.037.33v.032a.1.1 0 0 0 .077.05h.492a.1.1 0 0 0 .094-.061v-.016l.037-.33a.506.506 0 0 1 .776-.322l.259.208h.008l.02.009h.011a.106.106 0 0 0 .091-.018h.006l.333-.333v-.005a.1.1 0 0 0 .01-.112l-.009-.013-.208-.259a.507.507 0 0 1 .322-.777l.33-.036h.032a.1.1 0 0 0 .051-.076v-.517zM7.871 6.127A.826.826 0 1 1 8.7 5.3a.826.826 0 0 1-.829.827z" role="presentation"/></g></symbol>
<symbol id="accounts-logo" class="symbol"><title id="title-accounts-logo">accounts-logo icon</title><g data-name="Layer 1"><path d="M2.437 8.211a.03.03 0 0 0-.021-.026l-.1-.011a.149.149 0 0 1-.095-.229l.061-.077a.027.027 0 0 0-.006-.026l-.1-.1a.032.032 0 0 0-.033 0l-.076.062a.151.151 0 0 1-.23-.095l-.01-.1v-.022a.034.034 0 0 0-.023-.015h-.156a.03.03 0 0 0-.025.021l-.01.1a.151.151 0 0 1-.23.095l-.076-.061a.03.03 0 0 0-.026 0l-.1.1a.029.029 0 0 0 0 .033l.061.077a.149.149 0 0 1-.1.229l-.1.011h-.017a.031.031 0 0 0-.015.023v.144a.028.028 0 0 0 .021.025h.006l.1.011a.15.15 0 0 1 .1.23l-.073.09a.033.033 0 0 0 .006.027l.1.1a.029.029 0 0 0 .033 0l.076-.061a.15.15 0 0 1 .23.1l.01.1A.031.031 0 0 0 1.648 9h.146a.028.028 0 0 0 .025-.021v-.007l.01-.1a.149.149 0 0 1 .23-.1l.076.061a.03.03 0 0 0 .026-.006l.1-.1a.03.03 0 0 0 0-.033L2.2 8.617a.149.149 0 0 1 .095-.229l.1-.011h.011a.027.027 0 0 0 .015-.022v-.144zm-.716.316a.244.244 0 1 1 .244-.244.244.244 0 0 1-.244.244z" role="presentation"/><path d="M3.006 6.539H.414a.354.354 0 0 0-.345.361v2.587a.357.357 0 0 0 .356.356h2.592a.356.356 0 0 0 .356-.356V6.9a.358.358 0 0 0-.367-.361zm0 2.755a.157.157 0 0 1-.157.157H.59a.157.157 0 0 1-.157-.157V7.059A.157.157 0 0 1 .59 6.9H1v.167a.111.111 0 0 0 .111.111h1.196a.111.111 0 0 0 .111-.111V6.9h.434a.157.157 0 0 1 .157.157z" fill-rule="evenodd" role="presentation"/><path d="M5.17 9.466l-.14-.342h-.644l-.139.342h-.342l.653-1.534h.309l.653 1.534zm-.462-1.131l-.2.494h.4zM6.22 9.492a.6.6 0 0 1-.607-.6.6.6 0 0 1 .611-.607.574.574 0 0 1 .466.2l-.2.217a.342.342 0 0 0-.266-.128.3.3 0 0 0-.283.318.3.3 0 0 0 .3.322.372.372 0 0 0 .259-.131l.193.2a.586.586 0 0 1-.473.209zm1.198 0a.6.6 0 0 1-.607-.6.6.6 0 0 1 .612-.607.573.573 0 0 1 .465.2l-.2.217a.341.341 0 0 0-.265-.128.3.3 0 0 0-.283.318.3.3 0 0 0 .3.322.368.368 0 0 0 .26-.131l.194.2a.588.588 0 0 1-.476.209zm1.22 0a.606.606 0 0 1-.628-.6.632.632 0 0 1 1.262 0 .613.613 0 0 1-.634.6zm.307-.607a.31.31 0 0 0-.307-.322.3.3 0 0 0-.3.318.31.31 0 0 0 .307.322.3.3 0 0 0 .3-.318zm1.286.581V9.3a.413.413 0 0 1-.342.188.383.383 0 0 1-.4-.433V8.3h.331v.65c0 .157.074.237.2.237s.207-.08.207-.237V8.3h.331v1.166zm1.369 0v-.651c0-.156-.074-.237-.2-.237s-.207.081-.207.237v.651h-.331V8.3h.331v.165a.412.412 0 0 1 .341-.187.382.382 0 0 1 .4.433v.755zm1 .019c-.2 0-.339-.08-.339-.35v-.552h-.141V8.3h.139V8h.33v.3h.275v.283h-.275v.5c0 .076.033.113.107.113a.337.337 0 0 0 .163-.041v.265a.489.489 0 0 1-.259.065zm.915.003a.815.815 0 0 1-.5-.177l.141-.217a.664.664 0 0 0 .368.139c.1 0 .139-.035.139-.087 0-.072-.113-.1-.241-.135-.163-.048-.348-.124-.348-.35v-.009a.381.381 0 0 1 .426-.37.8.8 0 0 1 .435.135l-.126.229a.681.681 0 0 0-.316-.109c-.08 0-.121.035-.121.08 0 .065.111.1.237.139.163.054.352.133.352.346 0 .268-.193.386-.446.386zM4.046 7.559a.009.009 0 0 1-.01-.01V6.9a.009.009 0 0 1 .01-.01h.093a.009.009 0 0 1 .01.01v.037a.145.145 0 0 1 .129-.058.164.164 0 0 1 .17.121.561.561 0 0 1 0 .274.164.164 0 0 1-.169.117.147.147 0 0 1-.129-.057v.218a.009.009 0 0 1-.01.01zm.294-.334a.287.287 0 0 0 .01-.091.3.3 0 0 0-.01-.091.1.1 0 0 0-.181 0 .3.3 0 0 0-.01.091.287.287 0 0 0 .01.091.1.1 0 0 0 .181 0zm.366.158c-.1 0-.133-.045-.133-.139V6.7a.009.009 0 0 1 .01-.01h.093a.009.009 0 0 1 .01.01v.537c0 .033.013.045.042.045h.023a.009.009 0 0 1 .01.01v.08a.009.009 0 0 1-.01.01zm.442-.006a.009.009 0 0 1-.01-.01v-.035A.162.162 0 0 1 5 7.388a.145.145 0 0 1-.163-.148c0-.106.075-.154.195-.154h.1a.005.005 0 0 0 .006-.006v-.023c0-.056-.027-.081-.108-.081a.17.17 0 0 0-.111.033.009.009 0 0 1-.014 0l-.038-.066a.01.01 0 0 1 0-.014.288.288 0 0 1 .173-.049c.148 0 .2.05.2.169v.318a.009.009 0 0 1-.01.01zm-.012-.163v-.037a.005.005 0 0 0-.006-.006h-.081c-.073 0-.105.02-.105.065s.029.061.084.061.108-.028.108-.083zm.547.163a.009.009 0 0 1-.01-.01v-.28c0-.063-.031-.106-.092-.106a.094.094 0 0 0-.093.106v.28a.009.009 0 0 1-.01.01h-.092a.01.01 0 0 1-.011-.01V6.9a.01.01 0 0 1 .011-.01h.092a.009.009 0 0 1 .01.01v.035a.153.153 0 0 1 .129-.056.166.166 0 0 1 .168.181v.306a.009.009 0 0 1-.01.01zm.542 0a.009.009 0 0 1-.01-.01v-.28c0-.063-.031-.106-.092-.106s-.092.043-.092.106v.28a.01.01 0 0 1-.011.01h-.092a.009.009 0 0 1-.01-.01V6.9a.009.009 0 0 1 .01-.01h.092a.01.01 0 0 1 .011.01v.035a.15.15 0 0 1 .129-.055.166.166 0 0 1 .168.181v.306a.009.009 0 0 1-.01.01zM6.47 6.8a.009.009 0 0 1-.01-.01V6.7a.009.009 0 0 1 .01-.01h.093a.009.009 0 0 1 .01.01v.088a.009.009 0 0 1-.01.01zm0 .578a.009.009 0 0 1-.01-.01V6.9a.009.009 0 0 1 .01-.01h.093a.009.009 0 0 1 .01.01v.466a.009.009 0 0 1-.01.01zm.547-.001a.009.009 0 0 1-.01-.01v-.28c0-.063-.031-.106-.092-.106s-.092.043-.092.106v.28a.01.01 0 0 1-.011.01H6.72a.009.009 0 0 1-.01-.01V6.9a.009.009 0 0 1 .01-.01h.092a.01.01 0 0 1 .011.01v.035a.15.15 0 0 1 .128-.056.166.166 0 0 1 .168.181v.306a.009.009 0 0 1-.01.01zm.225.123a.009.009 0 0 1 0-.014l.058-.062a.009.009 0 0 1 .015 0 .152.152 0 0 0 .106.045c.075 0 .109-.04.109-.116v-.045a.14.14 0 0 1-.126.056.161.161 0 0 1-.165-.118A.457.457 0 0 1 7.24 7a.161.161 0 0 1 .165-.119.136.136 0 0 1 .126.058V6.9a.009.009 0 0 1 .01-.01h.093a.009.009 0 0 1 .01.01v.446a.2.2 0 0 1-.227.223.238.238 0 0 1-.175-.069zm.279-.3a.231.231 0 0 0 .011-.08.242.242 0 0 0-.011-.08.091.091 0 0 0-.172 0 .217.217 0 0 0-.012.08.207.207 0 0 0 .012.08.091.091 0 0 0 .172 0zm.391.054a.381.381 0 0 1-.015-.12.386.386 0 0 1 .015-.12.2.2 0 0 1 .2-.134.21.21 0 0 1 .168.076.01.01 0 0 1 0 .014l-.063.055a.01.01 0 0 1-.015 0 .109.109 0 0 0-.089-.042.089.089 0 0 0-.091.063.415.415 0 0 0 0 .181.09.09 0 0 0 .091.063.11.11 0 0 0 .087-.045h.015l.065.055c.005 0 0 .009 0 .014a.214.214 0 0 1-.168.074.2.2 0 0 1-.2-.134zm.45-.001a.376.376 0 0 1-.017-.119.391.391 0 0 1 .016-.12.216.216 0 0 1 .4 0 .439.439 0 0 1 .016.146.01.01 0 0 1-.011.011h-.3a.005.005 0 0 0-.006.006.106.106 0 0 0 .007.037.108.108 0 0 0 .109.074.146.146 0 0 0 .114-.047.011.011 0 0 1 .016 0l.059.053a.009.009 0 0 1 0 .014.257.257 0 0 1-.2.082.2.2 0 0 1-.203-.137zm.294-.215a.094.094 0 0 0-.1-.062.1.1 0 0 0-.1.062.133.133 0 0 0-.006.042.005.005 0 0 0 .006.006h.191a.005.005 0 0 0 .006-.006.133.133 0 0 0 .003-.042zm.538.339a.009.009 0 0 1-.01-.01v-.28c0-.063-.031-.106-.092-.106A.094.094 0 0 0 9 7.087v.28a.009.009 0 0 1-.01.01H8.9a.01.01 0 0 1-.011-.01V6.9a.01.01 0 0 1 .011-.01h.092A.009.009 0 0 1 9 6.9v.035a.153.153 0 0 1 .129-.056.166.166 0 0 1 .168.181v.306a.009.009 0 0 1-.01.01zm.377.006c-.1 0-.135-.047-.135-.142v-.256a.005.005 0 0 0-.006-.006H9.4a.009.009 0 0 1-.01-.01V6.9a.009.009 0 0 1 .01-.01h.03a.005.005 0 0 0 .006-.006v-.132a.009.009 0 0 1 .01-.01h.093a.009.009 0 0 1 .01.01v.133a.005.005 0 0 0 .006.006h.064a.009.009 0 0 1 .01.01v.068a.009.009 0 0 1-.01.01h-.064a.005.005 0 0 0-.006.006v.252c0 .034.014.046.045.046h.025a.009.009 0 0 1 .01.01v.08a.009.009 0 0 1-.01.01zm.162-.13a.376.376 0 0 1-.017-.119.391.391 0 0 1 .016-.12.215.215 0 0 1 .4 0 .407.407 0 0 1 .017.146c0 .007 0 .011-.012.011h-.3a.005.005 0 0 0-.006.006.113.113 0 0 0 .116.111.148.148 0 0 0 .114-.047.01.01 0 0 1 .015 0l.059.053c.006 0 .006.009 0 .014a.256.256 0 0 1-.2.082.2.2 0 0 1-.202-.137zm.294-.215a.1.1 0 0 0-.095-.062.094.094 0 0 0-.1.062.133.133 0 0 0-.006.042.005.005 0 0 0 .006.006h.191a.005.005 0 0 0 .006-.006.133.133 0 0 0-.002-.042zm.24.339a.009.009 0 0 1-.01-.01V6.9a.009.009 0 0 1 .01-.01h.093a.009.009 0 0 1 .01.01v.042a.137.137 0 0 1 .13-.062.148.148 0 0 1 .1.04s.006.009 0 .014L10.547 7a.009.009 0 0 1-.014 0 .13.13 0 0 0-.071-.023c-.064 0-.092.045-.092.123v.263a.009.009 0 0 1-.01.01z" role="presentation"/></g></symbol>
<symbol id="administrators" class="symbol"><title id="title-administrators">administrators icon</title><path d="M8 0L.026.8v2.99a13.371 13.371 0 0 0 7.451 12.031l.523.261.523-.261a13.372 13.372 0 0 0 7.45-12.035V.8zm0 14.4A11.952 11.952 0 0 1 3.952 11 5.348 5.348 0 0 1 6.54 9.322a2.806 2.806 0 0 0 1.648.578 2.687 2.687 0 0 0 1.188-.29 7.238 7.238 0 0 1 2.469 1.667A11.966 11.966 0 0 1 8 14.405zm.188-6c-.888 0-1.734-1.1-1.734-2.269a1.882 1.882 0 0 1 1.734-2 1.882 1.882 0 0 1 1.733 2C9.921 7.3 9.078 8.4 8.188 8.4zm6.286-4.613a11.921 11.921 0 0 1-1.753 6.249 9.228 9.228 0 0 0-2.094-1.516 4.068 4.068 0 0 0 .794-2.389 3.378 3.378 0 0 0-3.233-3.5 3.378 3.378 0 0 0-3.234 3.5A4.085 4.085 0 0 0 5.472 8.1a6.856 6.856 0 0 0-2.367 1.63 11.921 11.921 0 0 1-1.579-5.944V2.155L8 1.51l6.474.645z" data-name="Layer 1" role="presentation"/></symbol>
<symbol id="android" class="symbol"><title id="title-android">android icon</title><path d="M12.153 6.44l1.357-1.486a.735.735 0 1 0-1.086-.992L10.909 5.62a6.628 6.628 0 0 0-5.977 0L3.418 3.962a.736.736 0 0 0-1.087.992L3.689 6.44A6.8 6.8 0 0 0 1.3 11.147a.461.461 0 0 0 .463.481h12.315a.461.461 0 0 0 .463-.481 6.8 6.8 0 0 0-2.388-4.707zm-7.279 3.682a1.031 1.031 0 1 1 1.031-1.031 1.031 1.031 0 0 1-1.031 1.031zm6.093 0A1.031 1.031 0 1 1 12 9.091a1.031 1.031 0 0 1-1.033 1.031z" data-name="Layer 1" role="presentation"/></symbol>
<symbol id="apple" class="symbol"><title id="title-apple">apple icon</title><path d="M12.478 5.665a3.255 3.255 0 0 0-1.075 1.1 2.593 2.593 0 0 0-.284 1.2 2.5 2.5 0 0 0 .169.935 3.068 3.068 0 0 0 .477.8 3.255 3.255 0 0 0 1.031.756 6.952 6.952 0 0 1-.867 1.672 5.209 5.209 0 0 1-1.065 1.209 1.541 1.541 0 0 1-.911.357 2.839 2.839 0 0 1-.935-.222l-.183-.067-.3-.125a2.4 2.4 0 0 0-.7-.1 2.683 2.683 0 0 0-.886.174l-.232.086-.289.116a1.9 1.9 0 0 1-.693.135 2.236 2.236 0 0 1-1.571-1.026A7.56 7.56 0 0 1 2.9 10.469a6.937 6.937 0 0 1-.429-2.385A3.832 3.832 0 0 1 3.348 5.5a2.983 2.983 0 0 1 2.394-1.029 2.633 2.633 0 0 1 1.031.2L7 4.76l.231.1a1.411 1.411 0 0 0 .492.125 1.46 1.46 0 0 0 .539-.106l.309-.115.221-.087a3.379 3.379 0 0 1 1.195-.2 3.027 3.027 0 0 1 2.491 1.188zM10.03 1.724c.013.142.019.251.019.328A2.572 2.572 0 0 1 9.7 3.285a2.636 2.636 0 0 1-.906.988 2.276 2.276 0 0 1-1.234.352 3.131 3.131 0 0 1-.029-.338 2.277 2.277 0 0 1 .3-1.074 2.947 2.947 0 0 1 .824-.959 2.611 2.611 0 0 1 1.175-.5z" data-name="Layer 1" role="presentation"/></symbol>
<symbol id="applications" class="symbol"><title id="title-applications">applications icon</title><path d="M2.478 5.652c.748-.581 1.368-.18 2.2.778.093.107.218-.019.289-.081s1.159-1.044 1.212-1.091a.154.154 0 0 0 .033-.233c-.085-.1-.4-.5-.595-.761-1.448-1.895 3.963-3.179 3.131-3.2-.422-.011-2.119-.031-2.373 0a7.916 7.916 0 0 0-2.969 1.512 8.553 8.553 0 0 0-1.219.97c-.24.211-.039.7-.474 1.077-.461.4-.748.1-1.015.333-.133.117-.5.394-.608.487a.259.259 0 0 0-.017.377l1.1 1.217a.349.349 0 0 0 .455.058l.568-.5c.059-.053-.044-.69.282-.943zm4.574.414a.207.207 0 0 0-.319-.023l-1.149 1a.232.232 0 0 0-.021.32l6.645 7.562a.425.425 0 0 0 .6.042l.778-.651a.432.432 0 0 0 .041-.606zm8.861-3.219c-.06-.4-.265-.312-.371-.144s-.577.882-.771 1.205a.96.96 0 0 1-1.55.33c-.92-.651-.6-1.1-.439-1.41s.655-1.166.726-1.274a.214.214 0 0 0-.3-.29c-.286.132-2.021.822-2.262 1.81-.246 1.007.206 1.906-.681 2.8L9.193 7l1.08 1.256L11.6 6.993a1.881 1.881 0 0 1 1.6-.487A1.964 1.964 0 0 0 15.651 5.5a5.8 5.8 0 0 0 .262-2.653zM2.162 13.793a.433.433 0 0 0 0 .609l.762.744a.424.424 0 0 0 .6-.07l3.93-3.866-1.2-1.371z" data-name="Layer 1" role="presentation"/></symbol>
<symbol id="applications_2" class="symbol"><title id="title-applications_2">applications_2 icon</title><path d="M6.647 6.841H9.21V9.4H6.647zm-5.125 0h2.563V9.4H1.522zm10.25 0h2.563V9.4h-2.563zm0 5.124h2.563v2.563h-2.563zm-5.125 0H9.21v2.563H6.647zm-5.125 0h2.563v2.563H1.522zm0-10.249h2.563v2.562H1.522zm5.125 0H9.21v2.562H6.647zm5.125 0h2.563v2.562h-2.563z" fill-rule="evenodd" data-name="Layer 1" role="presentation"/></symbol>
<symbol id="arrow-indent" class="symbol"><title id="title-arrow-indent">arrow-indent icon</title><g data-name="Layer 1" fill-rule="evenodd"><path d="M4.078 9.848v-8.16h-2.22v8.1a2.185 2.185 0 0 0 2.22 2.253h8.591v-2.2z" role="presentation"/><path d="M15.333 10.953l-1.569-1.57-2.814-2.809-1.57 1.569 2.812 2.812-2.812 2.812 1.57 1.569 2.814-2.809 1.569-1.569-.002-.003.002-.002z" role="presentation"/></g></symbol>
<symbol id="bill" class="symbol"><title id="title-bill">bill icon</title><g data-name="Layer 1"><path d="M13.825 1.4v12.409l-.893-.463-.7-.361-.644.448-1.372.954-1.552-.987-.675-.428-.686.409-1.677 1-1.217-.92-.654-.494-.727.376-.9.467V1.4h11.7m1.3-1.3H.826v15.847l2.8-1.447 1.914 1.447L7.968 14.5l2.285 1.447 2.08-1.447 2.792 1.447V.1z" role="presentation"/><path d="M5.911 6.69c-.7-.289-.818-.438-.818-.662 0-.2.153-.425.582-.425a1.648 1.648 0 0 1 .863.234l.254.145.375-.988-.183-.108a2.164 2.164 0 0 0-.729-.26v-.809H4.961v.89a1.468 1.468 0 0 0-1.043 1.415c0 .9.734 1.308 1.45 1.589.607.246.731.458.731.7 0 .31-.275.518-.684.518a1.845 1.845 0 0 1-.99-.295l-.266-.177-.36 1 .153.11a2.356 2.356 0 0 0 1.009.362v.822h1.294v-.94a1.563 1.563 0 0 0 1.026-1.454 1.809 1.809 0 0 0-1.37-1.667zm2.373-2.485h3.883v1.4H8.284zm0 2.574h3.883v1.4H8.284zm0 2.574h1.969v1.4H8.284z" role="presentation"/></g></symbol>
<symbol id="billing" class="symbol"><title id="title-billing">billing icon</title><g data-name="Layer 1"><path d="M.37.023v15.954l2.775-1.387 2.774 1.387L8 14.59l2.775 1.387 2.08-1.387 2.775 1.387V.023zm13.873 13.709l-1.487-.743-2.081 1.387L7.9 12.989l-2.08 1.387-2.675-1.337-1.388.693V1.41h12.486z" role="presentation"/><path d="M4.206 3.617h7.741v1.348H4.206zm0 2.697h7.741v1.349H4.206zm0 2.697h7.741v1.349H4.206z" role="presentation"/></g></symbol>
<symbol id="book" class="symbol"><title id="title-book">book icon</title><path d="M15.536 1.669H9.073A1.507 1.507 0 0 0 8 2.12a1.507 1.507 0 0 0-1.077-.451H.456a.429.429 0 0 0-.431.431v9.589a.429.429 0 0 0 .431.427h6.463a.643.643 0 0 1 .646.639.431.431 0 0 0 .862 0 .644.644 0 0 1 .646-.639h6.463a.429.429 0 0 0 .431-.427V2.1a.429.429 0 0 0-.431-.431zM7.565 11.4a1.517 1.517 0 0 0-.646-.144H.887V2.521h6.032a.644.644 0 0 1 .646.64zm7.54-.144H9.073a1.517 1.517 0 0 0-.646.144V3.161a.644.644 0 0 1 .646-.64h6.032zm.431 1.3H9.073a.429.429 0 0 0-.431.427.646.646 0 0 1-1.292 0 .43.43 0 0 0-.431-.427H.456a.427.427 0 1 0 0 .853h6.1a1.512 1.512 0 0 0 2.89 0h6.094a.427.427 0 1 0 0-.853zM5.842 4.29H2.61a.427.427 0 1 0 0 .853h3.232a.427.427 0 1 0 0-.853zm0 2.131H2.61a.427.427 0 1 0 0 .853h3.232a.427.427 0 1 0 0-.853zm0 2.131H2.61a.426.426 0 1 0 0 .852h3.232a.426.426 0 1 0 0-.852zm4.308-3.409h3.232a.427.427 0 1 0 0-.853H10.15a.427.427 0 1 0 0 .853zm0 2.13h3.232a.426.426 0 1 0 0-.852H10.15a.426.426 0 1 0 0 .852zm0 2.131h3.232a.426.426 0 1 0 0-.852H10.15a.426.426 0 1 0 0 .852z" data-name="Layer 1" role="presentation"/></symbol>
<symbol id="calendar" class="symbol"><title id="title-calendar">calendar icon</title><path d="M15.171 2.527V0h-5.065v2.527H5.927V0H.829v2.527H0V16h16V2.527zm-.86 4.819h-2.883V4.235h2.883zm-2.883.388h2.883v3.105h-2.883zM11.8 1.68h1.683v1.708H11.8zm-.76 2.555v3.111H8.151V4.235zm-6.554 6.6H1.693V7.734h2.793zm.388-3.105h2.889v3.105H4.874zm2.889 3.493v3.126H4.874v-3.122zm.388-3.493h2.889v3.105H8.151zm2.889 3.493v3.126H8.151v-3.122zM7.763 4.235v3.111H4.874V4.235zM2.551 1.68h1.654v1.708H2.551zm1.935 2.555v3.111H1.693V4.235zm-2.793 6.992h2.793v3.126H1.693zm9.735 3.126v-3.126h2.883v3.126z" fill-rule="evenodd" data-name="Layer 1" role="presentation"/></symbol>
<symbol id="campus" class="symbol"><title id="title-campus">campus icon</title><g data-name="Layer 1"><path d="M7.884 3.374V.1L.119 2.633v13.254h15.762V4.962zM5.116 14.786H3.154V11.2h1.962zm1.667 0H6v-4.471H2.273v4.471H1.22V3.431l5.563-1.818v13.173zm1.1 0V4.5l6.9 1.37v5.675h-.964v.881h.964v.774h-2.22v.88h2.217v.708z" role="presentation"/><path d="M13.74 7.164H9.011v2.858h4.729zm-.881 1.977H9.892v-1.1h2.967zM4.135 4.4a1.38 1.38 0 1 0 1.379 1.38A1.381 1.381 0 0 0 4.135 4.4zm0 1.878a.5.5 0 1 1 .5-.5.5.5 0 0 1-.5.497z" role="presentation"/></g></symbol>
<symbol id="check" class="symbol"><title id="title-check">check icon</title><path d="M15.774 4.475l-2.646-2.713a.242.242 0 0 0-.349 0l-6.51 6.674a.242.242 0 0 1-.349 0L3.127 5.573a.243.243 0 0 0-.35 0L.229 8.185a.258.258 0 0 0 0 .358l5.81 5.911a.244.244 0 0 0 .35 0l9.384-9.621a.257.257 0 0 0 .001-.358z" fill-rule="evenodd" data-name="Layer 1" role="presentation"/></symbol>
<symbol id="chevron-l" class="symbol"><title id="title-chevron-l">chevron-l icon</title><path d="M11.737 15.933a1.241 1.241 0 0 1-.881-.366L3.289 8 10.856.433a1.246 1.246 0 0 1 1.762 1.761L6.812 8l5.806 5.806a1.247 1.247 0 0 1-.881 2.127z" data-name="Layer 1" role="presentation"/></symbol>
<symbol id="chevron-r" class="symbol"><title id="title-chevron-r">chevron-r icon</title><path d="M4.4 15.933a1.241 1.241 0 0 0 .881-.366L12.847 8 5.28.433a1.246 1.246 0 1 0-1.762 1.761L9.324 8l-5.806 5.806a1.247 1.247 0 0 0 .882 2.127z" data-name="Layer 1" role="presentation"/></symbol>
<symbol id="chrome" class="symbol"><title id="title-chrome">chrome icon</title><path d="M8.052 4.615l7.022-.006A7.929 7.929 0 0 0 8.051.11a7.844 7.844 0 0 0-6.2 2.973l2.721 4.732a3.34 3.34 0 0 1 3.48-3.2zm-.036 6.774A3.464 3.464 0 0 1 4.79 9.143l-.024.014-3.237-5.635A7.842 7.842 0 0 0 6.9 15.718l2.712-4.709a3.458 3.458 0 0 1-1.596.38zm7.263-6.377L9.862 5a3.458 3.458 0 0 1 .81 5.169l-3.207 5.617c.173.012.347.018.522.019a7.845 7.845 0 0 0 7.292-10.793zM5.093 7.889a2.929 2.929 0 1 0 2.945-2.91 2.928 2.928 0 0 0-2.945 2.91z" fill-rule="evenodd" data-name="Layer 1" role="presentation"/></symbol>
<symbol id="compass" class="symbol"><title id="title-compass">compass icon</title><path d="M8 .132A7.868 7.868 0 1 0 15.887 8 7.887 7.887 0 0 0 8 .132zm0 14.641A6.773 6.773 0 1 1 14.791 8 6.79 6.79 0 0 1 8 14.773zM8 2.305A5.7 5.7 0 1 0 13.708 8 5.707 5.707 0 0 0 8 2.305zm0 10.753A5.058 5.058 0 1 1 13.071 8 5.07 5.07 0 0 1 8 13.058zm2.411-7.891L7.055 6.922a.324.324 0 0 0-.136.136l-1.771 3.365a.323.323 0 0 0 .286.473.317.317 0 0 0 .152-.038L8.94 9.074c.018-.01.026-.03.042-.043s.025 0 .035-.014.006-.024.014-.034.033-.024.042-.042l1.773-3.336a.323.323 0 0 0-.435-.438zM7.287 7.746l.964.963L6.208 9.8zm1.421.507l-.964-.963 2.043-1.068z" data-name="Layer 1" role="presentation"/></symbol>
<symbol id="contact-card" class="symbol"><title id="title-contact-card">contact-card icon</title><g data-name="Layer 1"><path d="M13.129 5.886H8.107v.881h5.022zm0 1.758H8.107v.882h5.022zM10.5 9.389H8.107v.882H10.5zM6.112 8.2l-.522-.209a.915.915 0 0 0 .459-.791v-.741a1.442 1.442 0 1 0-2.883 0V7.2a.913.913 0 0 0 .464.794l-.523.206a1.008 1.008 0 0 0-.64.943v1.478a.52.52 0 0 0 .518.519H6.23a.519.519 0 0 0 .518-.519V9.142a1.009 1.009 0 0 0-.636-.942zM3.95 6.459a.658.658 0 1 1 1.315 0V7.2a.129.129 0 0 1-.068.114l-.433.235a.328.328 0 0 1-.313 0l-.433-.235A.129.129 0 0 1 3.95 7.2zm2.014 3.9H3.251V9.144a.226.226 0 0 1 .149-.212l1.223-.484 1.2.482a.227.227 0 0 1 .143.212z" role="presentation"/><path d="M15.091 2.174v11.652H.894V2.174h14.2m0-.9H.894a.9.9 0 0 0-.9.9v11.652a.9.9 0 0 0 .9.9h14.2a.9.9 0 0 0 .9-.9V2.174a.9.9 0 0 0-.9-.9z" role="presentation"/></g></symbol>
<symbol id="down-arrow" class="symbol"><title id="title-down-arrow">down-arrow icon</title><path d="M12.807 6.971l-4.1 5.245a.759.759 0 0 1-1.195 0L3.41 6.971a.758.758 0 0 1 .6-1.225h8.2a.758.758 0 0 1 .597 1.225z" data-name="Layer 1" role="presentation"/></symbol>
<symbol id="edit-person" class="symbol"><title id="title-edit-person">edit-person icon</title><g data-name="Layer 1"><circle cx="7.109" cy="3.394" r="3.379"/><path d="M9.237 12.962l3.445-2.38 1.235 1.786-3.446 2.381zm-.174 2.761l-1.673.258A.38.38 0 0 1 7 15.42l.828-1.484.851-.588 1.234 1.787zm5.431-3.754l-1.235-1.787 1.291-.892a.5.5 0 0 1 .695.127l.666.965a.5.5 0 0 1-.127.7zm-2.621-2.442a.238.238 0 0 0 .072-.314C11.315 8.187 10.14 8 8.794 8H5.423A3.424 3.424 0 0 0 2 11.423v.348a.23.23 0 0 0 .229.229h5.93a.229.229 0 0 0 .129-.04z" role="presentation"/></g></symbol>
<symbol id="editor" class="symbol"><title id="title-editor">editor icon</title><path d="M14.107 4.435a1.435 1.435 0 0 0 0-2.029L12.372.671a1.434 1.434 0 0 0-2.028 0l-7 7-.016 3.713 3.817.014zm-9.624 5.8l.009-2.089 6.665-6.664a.282.282 0 0 1 .4 0l1.737 1.738a.276.276 0 0 1 .083.2.279.279 0 0 1-.083.2L6.67 10.246zM.855 13.46h13.749v1.5H.855z" data-name="Layer 1" role="presentation"/></symbol>
<symbol id="editor_1" class="symbol"><title id="title-editor_1">editor_1 icon</title><path d="M14.378 4.8a1.434 1.434 0 0 0 0-2.028l-1.735-1.736a1.434 1.434 0 0 0-2.028 0l-7 7-.015 3.713 3.816.013zm-9.624 5.8l.009-2.089 6.665-6.665a.285.285 0 0 1 .4 0l1.735 1.735a.285.285 0 0 1 0 .4l-6.622 6.63zm-3.628 3.224h13.749v1.5H1.126z" data-name="Layer 1" role="presentation"/></symbol>
<symbol id="firefox" class="symbol"><title id="title-firefox">firefox icon</title><path d="M14.393 3.607l-.193-.774.112-.035c.859 1.059.929 2.4 1.178 3.729l.126-.552h.066a.827.827 0 0 1 .066.22 11.159 11.159 0 0 1-1.655 6.483 6.865 6.865 0 0 1-4.772 2.995 7.249 7.249 0 0 1-4.821-.679A7.937 7.937 0 0 1 .513 9.475C.505 9.439.489 9.4.464 9.334l-.138.215V7.431l-.144.05a4.932 4.932 0 0 1 .137-.726c.239-.681.511-1.355.753-2.031a1.719 1.719 0 0 0 .09-.571 3.691 3.691 0 0 1 .481-1.984 4.146 4.146 0 0 1 .348-.432l.389 1.015A7.34 7.34 0 0 1 8.614.276a8.421 8.421 0 0 1 5.779 3.331zm-2.807-1.932a6.877 6.877 0 0 0-8.927 1.452 5.012 5.012 0 0 0 .533.069c.4.007.808.009 1.212-.01a.7.7 0 0 0 .411-.13 3.14 3.14 0 0 1 1.633-.708 1.193 1.193 0 0 1 .3.036 7.471 7.471 0 0 0-.74.83c-.481.738-.151 1.368.713 1.4.215.009.431 0 .647 0 .45.01.58.221.368.635a1.052 1.052 0 0 1-.321.337c-.272.2-.555.388-.841.569a.525.525 0 0 0-.23.6c.042.248.048.5.076.823-.187-.062-.3-.091-.407-.137A.53.53 0 0 0 5.3 7.6a.677.677 0 0 0 0 .8 1.783 1.783 0 0 0 1.881.768c.309-.092.6-.242.915-.324a1.378 1.378 0 0 1 1.467.456c.218.247.122.575-.172.574a2.084 2.084 0 0 0-1.037.453 6.531 6.531 0 0 1-1.141.508 5.524 5.524 0 0 1-.959.13 4.174 4.174 0 0 0 3.142.951 4.21 4.21 0 0 0 2.487-2.071l.1.06q-.079.48-.161.96a4.825 4.825 0 0 0 .619-3.2l.087-.037.489.436a6.9 6.9 0 0 0 .023-2.9.911.911 0 0 1 .2.07c.112.089.217.186.36.311a4.313 4.313 0 0 0-3.27-2.88l.048-.108 1.259-.235.01-.1-1.9-.578a3.542 3.542 0 0 1 1.839.031z" fill-rule="evenodd" data-name="Layer 1" role="presentation"/></symbol>
<symbol id="household-error" class="symbol"><title id="title-household-error">household-error icon</title><g data-name="Layer 1"><path d="M15.424 7.5L14.4 6.592v-2.9a1.036 1.036 0 0 0-1.038-1.006h-1.3a.979.979 0 0 0-.973 1.006v.018L9.166 2.047a1.74 1.74 0 0 0-2.281 0L.624 7.5a1.018 1.018 0 0 0 .665 1.788h1.084v4.054a1.148 1.148 0 0 0 1.144 1.176h8.993a1.209 1.209 0 0 0 1.209-1.176V9.288h1.019a1.024 1.024 0 0 0 .966-.671 1 1 0 0 0-.28-1.117zm-2.268.764a.494.494 0 0 0-.494.493v4.585a.152.152 0 0 1-.152.151H3.517a.152.152 0 0 1-.152-.151V8.757a.494.494 0 0 0-.494-.493H1.3L7.55 2.82a.7.7 0 0 1 .927 0l3.2 2.792a.241.241 0 0 0 .4-.182V3.712h1.263v2.963a.84.84 0 0 0 .289.634l1.094.954z" role="presentation"/><path d="M6.2 8.67a.274.274 0 0 0-.389 0l-.367.367-.368-.367a.274.274 0 0 0-.389 0 .274.274 0 0 0 0 .389l.367.368-.367.367a.274.274 0 0 0 0 .389.274.274 0 0 0 .389 0l.368-.367.367.367a.274.274 0 0 0 .389 0 .274.274 0 0 0 0-.389l-.367-.367.367-.368a.274.274 0 0 0 0-.389zm5.161 0a.274.274 0 0 0-.389 0l-.368.367-.367-.367a.274.274 0 0 0-.389 0 .274.274 0 0 0 0 .389l.367.368-.367.367a.274.274 0 0 0 0 .389.274.274 0 0 0 .389 0l.363-.363.368.367a.274.274 0 0 0 .389 0 .276.276 0 0 0 0-.389l-.367-.367.367-.368a.276.276 0 0 0 .004-.393zm-1.707 3.321a2.524 2.524 0 0 0-3.266 0 .3.3 0 0 0 0 .458.3.3 0 0 0 .4.008 1.9 1.9 0 0 1 2.464 0 .3.3 0 0 0 .4-.007h.005a.305.305 0 0 0-.003-.459z" role="presentation"/></g></symbol>
<symbol id="ie" class="symbol"><title id="title-ie">ie icon</title><path d="M11.85 9.271h3.94a5.507 5.507 0 0 0 .057-.92 7.408 7.408 0 0 0-4.729-6.8l.207.043s4.98-2.313 3.32 2.818l.2.354S16.3.849 13.958.2c-1.917-.534-4.75.949-4.75.949l.1.021a7.216 7.216 0 0 0-.533-.021 7.052 7.052 0 0 0-6.968 5.989A18.607 18.607 0 0 1 5.23 3.814S2.5 6.305 1.71 8.351a16.4 16.4 0 0 0-1.345 3.2c-.2.83-.717 3.81 1.345 4.152a5.716 5.716 0 0 0 3.84-.803l-.041-.024a6.816 6.816 0 0 0 3.27.835 7.1 7.1 0 0 0 6.709-5.042h-4.042a2.817 2.817 0 0 1-2.682 1.691c-1.531 0-2.654-1.175-2.946-3.084h6.032zm-6.777 5.343a6.181 6.181 0 0 1-2.189.647c-3.062-.03-.768-4.45-.768-4.45v-.006a7.328 7.328 0 0 0 2.965 3.815zM8.779 4.556a2.639 2.639 0 0 1 2.8 2.639H5.846a2.939 2.939 0 0 1 2.933-2.639z" data-name="Layer 1" role="presentation"/></symbol>
<symbol id="integrations" class="symbol"><title id="title-integrations">integrations icon</title><path d="M8.784 7.874l-5 5-1.5-1.5L4.78 8.877H0V6.755h4.653l-2.409-2.41 1.5-1.5zM16 8.985v-2.12l-1.85-.53a5.966 5.966 0 0 0-.563-1.364l.931-1.677-1.5-1.5-1.677.931a5.94 5.94 0 0 0-1.363-.563L9.443.308h-2.12l-.53 1.85a6.166 6.166 0 0 0-.675.231l1.6 1.6a3.856 3.856 0 0 1 .666-.068 4.008 4.008 0 1 1 0 8.016 3.893 3.893 0 0 1-.753-.077l-1.578 1.573a6 6 0 0 0 .74.259l.53 1.85h2.12l.531-1.85a5.94 5.94 0 0 0 1.363-.563l1.677.931 1.5-1.5-.931-1.677a5.966 5.966 0 0 0 .563-1.364z" data-name="Layer 1" role="presentation"/></symbol>
<symbol id="integrations_1" class="symbol"><title id="title-integrations_1">integrations_1 icon</title><path d="M15.807.327a.657.657 0 0 0-.931 0l-1.45 1.45a4.412 4.412 0 0 0-5.942.3l-.857.856a.727.727 0 0 0 0 1.027l5.462 5.462a.725.725 0 0 0 1.027 0l.856-.856a4.446 4.446 0 0 0 .376-5.846l1.459-1.459a.658.658 0 0 0 0-.934zm-2.766 7.3l-.441.443-4.624-4.626.439-.439a3.142 3.142 0 0 1 4.443 0l.183.184a3.144 3.144 0 0 1 0 4.442zM8.873 8.916l-1.221 1.221L6 8.486l1.234-1.234a.658.658 0 0 0-.934-.931L5.069 7.554l-.976-.975a.724.724 0 0 0-1.026 0l-.857.856a4.446 4.446 0 0 0-.376 5.846L.375 14.74a.658.658 0 1 0 .931.931l1.451-1.45a4.412 4.412 0 0 0 5.942-.3l.856-.857a.725.725 0 0 0 0-1.027l-.972-.971 1.222-1.219a.659.659 0 0 0-.932-.931zm-1.106 4.076a3.138 3.138 0 0 1-4.442 0l-.184-.183a3.146 3.146 0 0 1 0-4.442l.439-.439 4.626 4.626z" data-name="Layer 1" role="presentation"/></symbol>
<symbol id="iphone" class="symbol"><title id="title-iphone">iphone icon</title><path d="M11.175 1.362H5.086a1.728 1.728 0 0 0-1.7 1.754v10.075a1.707 1.707 0 0 0 1.7 1.715h6.089a1.707 1.707 0 0 0 1.695-1.715V3.116a1.727 1.727 0 0 0-1.695-1.754zM7.461 13.229a.677.677 0 1 1 .677.677.677.677 0 0 1-.677-.677zm4.105-1.659H4.7V3.116a.4.4 0 0 1 .39-.4h6.089a.4.4 0 0 1 .391.4z" fill-rule="evenodd" data-name="Layer 1" role="presentation"/></symbol>
<symbol id="keys" class="symbol"><title id="title-keys">keys icon</title><g data-name="Layer 1"><g data-name="Your Icon"><path d="M3.343 15.614a.479.479 0 0 1-.17-.032 1.281 1.281 0 0 1-.712-.726 1.216 1.216 0 0 1 .17-1.05l.328-.533a.471.471 0 0 1 .256-.2L3.448 13l-.235-.994a.464.464 0 0 1 .058-.356.469.469 0 0 1 .3-.208l1.029-.228v-.746a.466.466 0 0 1 .061-.23l.716-1.262A2.878 2.878 0 0 1 7.1 4.867a.922.922 0 0 1 .561-.057.467.467 0 0 1-.229.906 2.131 2.131 0 0 0-1.17.892 1.954 1.954 0 0 0 .04 2.1.465.465 0 0 1 .018.492l-.789 1.392v1a.466.466 0 0 1-.367.456l-.932.205.227.954a.467.467 0 0 1-.312.552l-.481.154-.238.385a.382.382 0 0 0-.081.261.225.225 0 0 0 .071.092l.892-.212 2.874-4.673a.469.469 0 0 1 .462-.218 1.929 1.929 0 0 0 1.586-.495.787.787 0 0 0 .14-.275.467.467 0 0 1 .9.237 1.656 1.656 0 0 1-.4.712 2.925 2.925 0 0 1-2.042.773L5 15.093a.465.465 0 0 1-.29.209l-1.262.3a.437.437 0 0 1-.105.012z" role="presentation"/><path d="M5.486 8.135a.475.475 0 0 1-.128-.017 5.79 5.79 0 0 1-.733-.274 4.108 4.108 0 0 1-1.994-5.459 4.112 4.112 0 1 1 7.46 3.462.467.467 0 1 1-.846-.394 3.178 3.178 0 1 0-5.767-2.674A3.176 3.176 0 0 0 5.023 7a4.7 4.7 0 0 0 .591.22.467.467 0 0 1-.128.916z" role="presentation"/><path d="M12.95 15.971a1.23 1.23 0 0 1-1.157-.912l-.236-.648a.472.472 0 0 1 0-.327l.114-.3-1.068-.5a.467.467 0 0 1-.221-.629l.534-1.084-.677-.539a.444.444 0 0 1-.143-.192l-.604-1.516a3.134 3.134 0 0 1-.517-6.033 3.109 3.109 0 0 1 1.062-.186 3.134 3.134 0 0 1 2.376 5.18l2.035 5.644a.465.465 0 0 1-.017.357l-.61 1.3a.456.456 0 0 1-.19.206 1.459 1.459 0 0 1-.681.179zm-.45-1.716l.177.487c.106.295.227.295.279.295a.434.434 0 0 0 .1-.014l.45-.959-2.069-5.733a.466.466 0 0 1 .117-.5 2.2 2.2 0 1 0-1.691.6.465.465 0 0 1 .395.292l.663 1.658.874.7a.467.467 0 0 1 .128.572l-.489.993 1.029.484a.466.466 0 0 1 .238.59z" role="presentation"/><path d="M9.765 6.37a.834.834 0 0 1-.287-1.617.854.854 0 0 1 1.07.5.823.823 0 0 1-.029.631.83.83 0 0 1-.754.482zm0-.935a.1.1 0 0 0-.031.005.108.108 0 0 0-.062.054.106.106 0 0 0 0 .08.1.1 0 0 0 .093.063c.089-.025.115-.082.1-.136a.1.1 0 0 0-.1-.066z" role="presentation"/></g></g></symbol>
<symbol id="location" class="symbol"><title id="title-location">location icon</title><path d="M13.209 3.462a5.609 5.609 0 0 0-3-3.021A5.5 5.5 0 0 0 8.01 0a5.569 5.569 0 0 0-2.2.441 5.636 5.636 0 0 0-3.02 3.021 5.572 5.572 0 0 0-.442 2.209A5 5 0 0 0 2.6 7.253a6.91 6.91 0 0 0 .656 1.435L7.07 15.33a1.108 1.108 0 0 0 .93.68 1.151 1.151 0 0 0 .95-.68l3.8-6.624a6.935 6.935 0 0 0 .656-1.437 5.168 5.168 0 0 0 .245-1.6 5.572 5.572 0 0 0-.442-2.207zM8 8.481a2.831 2.831 0 1 1 2.831-2.831A2.83 2.83 0 0 1 8 8.481z" data-name="Layer 1" role="presentation"/></symbol>
<symbol id="mailchimp" class="symbol"><title id="title-mailchimp">mailchimp icon</title><g data-name="Layer 1"><path d="M14.956 8.974h.005a.508.508 0 0 0 .532-.523.618.618 0 0 0-.124-.393.437.437 0 0 0-.348-.165c-.191 0-.369.145-.543.443l-.014.024-.009-.026c-.043-.128-.083-.235-.106-.3-.016-.045-.024-.065-.025-.071a.071.071 0 0 0-.072-.053.133.133 0 0 0-.069.022.083.083 0 0 0-.039.055c-.174.543-.318.807-.439.807a.052.052 0 0 1-.042-.018c-.032-.035-.024-.118-.013-.234a2.117 2.117 0 0 0 .013-.284.288.288 0 0 0-.288-.317c-.22 0-.362.235-.428.374l-.02.042v-.046c-.016-.173-.074-.379-.257-.381-.214 0-.377.251-.476.461l-.026.057v-.063c.012-.28.022-.446.029-.492a.118.118 0 0 0-.012-.094.091.091 0 0 0-.08-.02c-.069 0-.1.045-.156.185-.087.229-.307.762-.482.762a.105.105 0 0 1-.083-.035c-.073-.085-.044-.313 0-.629v-.024c.019-.149-.014-.181-.1-.2h-.025c-.064 0-.095.063-.155.235-.108.307-.247.63-.409.63h-.018c-.085-.015-.084-.142-.081-.3a1.7 1.7 0 0 0-.011-.276c-.024-.16-.119-.261-.247-.262-.255 0-.427.327-.507.522l-.018.044-.006-.047a4.228 4.228 0 0 1-.031-.377V8a2.493 2.493 0 0 0 .694-1.407c0-.238-.107-.38-.293-.382-.135 0-.458.113-.569 1.159a5.787 5.787 0 0 0-.034.591c-.218.316-.685.86-1.141.86-.413 0-.742-.334-.742-.923a1.187 1.187 0 0 1 .98-1.275.357.357 0 0 1 .227.074.25.25 0 0 1 .089.2.361.361 0 0 1-.07.219l-.026.042a.059.059 0 0 0-.005.055.085.085 0 0 0 .074.031.345.345 0 0 0 .253-.363.489.489 0 0 0-.534-.465 1.423 1.423 0 0 0-1.22 1.5 1 1 0 0 0 .969 1.114 1.526 1.526 0 0 0 1.13-.755l.022-.028v.035c.007.173.02.309.029.409.006.064.01.11.01.135a.193.193 0 0 0 .028.119.117.117 0 0 0 .1.035c.078 0 .093-.053.124-.184l.009-.037c.038-.158.179-.675.392-.675a.11.11 0 0 1 .08.031c.047.05.042.152.036.27a1.4 1.4 0 0 0 0 .224c.02.2.106.3.264.3s.332-.175.421-.337l.017-.031.007.034c.016.087.09.373.321.373.209 0 .388-.221.585-.674l.026-.06v.065c0 .172-.013.382-.013.544 0 .125.012.173.071.173h.013c.055 0 .093-.033.112-.1.148-.516.276-.756.4-.756s.136.228.146.629V8.8c0 .14.008.2.1.2.067 0 .083-.052.117-.18l.022-.08c.12-.415.219-.584.342-.584.106 0 .112.11.114.145a1.549 1.549 0 0 1-.012.235 1.579 1.579 0 0 0-.011.216.233.233 0 0 0 .25.253c.2 0 .382-.235.541-.7l.011-.032.013.032c.028.073.066.171.1.289a2.817 2.817 0 0 0-.264.925c0 .268.119.442.309.443.1 0 .344-.041.348-.424a2.635 2.635 0 0 0-.11-.66l-.008-.032.027.018a.58.58 0 0 0 .309.11zm-5.181-1.3c0-.1.013-.19.024-.278.075-.57.23-.967.378-.967.07 0 .106.053.1.158A2.28 2.28 0 0 1 9.8 7.683l-.025.036zM14.5 9.723a.116.116 0 0 1-.1.047.125.125 0 0 1-.107-.049c-.068-.09-.049-.3.062-.687.013-.046.027-.093.042-.138l.013-.038.011.038c.128.445.153.723.079.827zm.04-1.139l-.005-.015c.147-.3.314-.475.46-.475.165 0 .279.149.277.36a.335.335 0 0 1-.115.266.343.343 0 0 1-.216.077.527.527 0 0 1-.405-.213zm-9.34.341c.226-.019.405-.326.472-.457l.017-.034.006.037c.032.185.133.495.447.5a.674.674 0 0 0 .446-.241l.012-.013.009.014a.452.452 0 0 0 .4.261.376.376 0 0 0 .367-.277.1.1 0 0 0-.02-.071.046.046 0 0 0-.07 0l-.01.009a.449.449 0 0 1-.252.147c-.127.006-.222-.07-.283-.228V8.56a2.845 2.845 0 0 0 .573-1.63C7.3 6.708 7.236 6.449 7 6.449h-.02a.349.349 0 0 0-.246.129 2.413 2.413 0 0 0-.294 1.547 1.56 1.56 0 0 0 .075.4v.006l-.005.006a.555.555 0 0 1-.362.236c-.248 0-.239-.416-.22-.761 0-.075.011-.122-.011-.149a.1.1 0 0 0-.081-.029c-.088 0-.107.018-.152.149-.094.272-.28.729-.466.729A.144.144 0 0 1 5.1 8.66c-.09-.116-.021-.4.034-.636l.027-.118a.143.143 0 0 0-.011-.12.124.124 0 0 0-.109-.03c-.08.007-.131.04-.156.192v.032l-.019-.023a.261.261 0 0 0-.229-.113h-.034a.623.623 0 0 0-.4.245.826.826 0 0 0-.177.584v.043a.333.333 0 0 1-.237.129c-.123 0-.193-.092-.193-.244 0-.254.173-1.023.173-1.3 0-.3-.132-.457-.361-.459-.335 0-.6.38-.845 1.16l-.069.226-.035.117.01-.122c.024-.272.04-.536.048-.786A1.06 1.06 0 0 0 2.35 6.7a.34.34 0 0 0-.256-.1c-.41 0-.606.69-.748 1.177-.043.147-.128.479-.185.706l.034-.055c.025-.285.1-1 .093-1.388 0-.416-.144-.6-.45-.6a.472.472 0 0 0-.343.149.6.6 0 0 0-.169.407c0 .083.054.158.093.158S.458 7.12.464 7.1c.1-.313.217-.465.374-.465a.2.2 0 0 1 .15.059c.123.132.1.487.06 1.132-.013.208-.028.444-.04.712C1 8.575 1 8.62.994 8.662c-.012.186-.021.333.049.344a.149.149 0 0 0 .182-.114c.046-.135.148-.5.344-1.177.189-.647.332-.882.515-.882.211 0 .226.362.188 1.127-.008.162-.02.345-.028.545v.081c-.008.166-.014.3.033.346a.079.079 0 0 0 .061.024c.092 0 .119-.08.165-.213l.026-.075c.313-.865.545-1.615.856-1.615.093 0 .166.076.166.224 0 .341-.167 1-.167 1.334a.461.461 0 0 0 .1.3.348.348 0 0 0 .27.12.5.5 0 0 0 .323-.15l.01-.01.008.011a.352.352 0 0 0 .315.14.532.532 0 0 0 .416-.349l.012-.032.012.032a.336.336 0 0 0 .35.252zm1.778-2.259a.073.073 0 0 1 .058.032 1.4 1.4 0 0 1-.054.914 3.135 3.135 0 0 1-.293.673l-.019.031V8.28c-.013-.1-.02-.213-.025-.3-.036-.657.161-1.306.333-1.314zM4.833 8.188c-.067.272-.2.6-.431.619h-.019q-.146 0-.162-.189a.65.65 0 0 1 .172-.467.338.338 0 0 1 .238-.126.233.233 0 0 1 .2.154v.008z" role="presentation"/><path d="M5.918 7.19a.153.153 0 1 0 0 .306v.012V7.5a.153.153 0 1 0 0-.306zm5.429 0a.153.153 0 1 0 0 .306v.012V7.5a.153.153 0 1 0 0-.306zm4.227 1.61a.106.106 0 1 0 .106.106.107.107 0 0 0-.106-.106zm0 .2a.091.091 0 1 1 .091-.091.09.09 0 0 1-.091.091z" role="presentation"/><path d="M15.621 8.88c0-.022-.011-.034-.038-.034h-.047v.123h.015v-.054h.022l.037.054h.017l-.037-.054a.033.033 0 0 0 .031-.035zm-.05.021h-.02V8.86h.027c.014 0 .028.005.028.02s-.018.02-.035.02z" role="presentation"/></g></symbol>
<symbol id="more-c" class="symbol"><title id="title-more-c">more-c icon</title><g data-name="Layer 1"><path d="M8 .111A7.889 7.889 0 1 0 15.889 8 7.9 7.9 0 0 0 8 .111zm0 14.564A6.675 6.675 0 1 1 14.675 8 6.682 6.682 0 0 1 8 14.675z" role="presentation"/><path d="M4.359 6.787A1.214 1.214 0 1 0 5.573 8a1.214 1.214 0 0 0-1.214-1.213zm7.282 0A1.214 1.214 0 1 0 12.855 8a1.214 1.214 0 0 0-1.214-1.213zM8 6.787A1.214 1.214 0 1 0 9.214 8 1.214 1.214 0 0 0 8 6.787z" role="presentation"/></g></symbol>
<symbol id="no-results" class="symbol"><title id="title-no-results">no-results icon</title><g data-name="Layer 1"><path d="M15.5 12.6l-4.153-2.63a5.543 5.543 0 0 0-9.692-5.336 5.546 5.546 0 0 0 4.67 8.514 5.589 5.589 0 0 0 1.222-.136 5.509 5.509 0 0 0 2.853-1.64l4.194 2.659zM4.273 10.856A3.856 3.856 0 1 1 9.7 9.471l-.235.371a3.854 3.854 0 0 1-5.192 1.014z" role="presentation"/><path d="M7.576 5.212L6.398 6.389 5.22 5.212 4.024 6.407l1.178 1.178-1.178 1.178L5.22 9.959l1.178-1.178 1.178 1.178 1.195-1.196-1.177-1.178 1.177-1.178-1.195-1.195z" role="presentation"/></g></symbol>
<symbol id="organization-3" class="symbol"><title id="title-organization-3">organization-3 icon</title><path d="M14.777 12.04v-1.957a2.858 2.858 0 0 0-2.941-2.94h-1.7c-1.2 0-1.315-.59-1.321-.895V3.865a2.046 2.046 0 1 0-1.619 0v2.383c0 .221-.064.895-1.321.895h-1.7a2.858 2.858 0 0 0-2.941 2.94v1.957a2.045 2.045 0 1 0 1.62 0v-1.957a1.243 1.243 0 0 1 1.313-1.321h1.7a3.858 3.858 0 0 0 1.321-.211v3.489a2.046 2.046 0 1 0 1.619 0V8.551a3.858 3.858 0 0 0 1.321.211h1.7a1.246 1.246 0 0 1 1.321 1.321v1.957a2.045 2.045 0 1 0 1.62 0zM3.216 13.918a1.18 1.18 0 1 1-1.18-1.18 1.18 1.18 0 0 1 1.18 1.18zM6.822 1.987A1.18 1.18 0 1 1 8 3.167a1.18 1.18 0 0 1-1.178-1.18zm2.359 11.931A1.18 1.18 0 1 1 8 12.738a1.18 1.18 0 0 1 1.181 1.18zm4.786 1.18a1.18 1.18 0 1 1 1.18-1.18 1.18 1.18 0 0 1-1.18 1.182z" data-name="Layer 1" role="presentation"/></symbol>
<symbol id="organization_2" class="symbol"><title id="title-organization_2">organization_2 icon</title><path d="M14.563 11.54V9.85a2.716 2.716 0 0 0-2.714-2.713H9.058V4.749h3.309V.509h-8.32v4.24h3.511v2.388H4.767A2.716 2.716 0 0 0 2.053 9.85v1.69H.388v4.239h4.239V11.54H3.553V9.85a1.214 1.214 0 0 1 1.214-1.213h2.791v2.9H6.087v4.239h4.239V11.54H9.058v-2.9h2.791a1.215 1.215 0 0 1 1.214 1.21v1.69h-1.277v4.239h4.24V11.54zM5.3 1.759h5.82V3.5H5.3zm-1.92 12.77H1.638V12.79h1.739zm5.7 0H7.337V12.79h1.739zm5.7 0h-1.74V12.79h1.74z" data-name="Layer 1" role="presentation"/></symbol>
<symbol id="payments" class="symbol"><title id="title-payments">payments icon</title><path d="M0 12.712a.893.893 0 0 0 .892.893h14.2a.893.893 0 0 0 .892-.893V7.01H0zm11.541-3.571H14.3V11.9h-2.759zm3.549-6.622H.892A.893.893 0 0 0 0 3.411v1.334h15.982V3.411a.893.893 0 0 0-.892-.892z" data-name="Layer 1" role="presentation"/></symbol>
<symbol id="pco-logo-stack" class="symbol"><title id="title-pco-logo-stack">pco-logo-stack icon</title><g data-name="Layer 1"><path d="M12.485 7.88V2.319A1.712 1.712 0 0 0 10.773.606H4.939a1.712 1.712 0 0 0-1.712 1.713V7.88a1.712 1.712 0 0 0 1.712 1.713h5.834a1.712 1.712 0 0 0 1.712-1.713zm-.925 0a.788.788 0 0 1-.787.787H4.939a.789.789 0 0 1-.788-.787V2.319a.789.789 0 0 1 .788-.788h1.143v.354a.19.19 0 0 0 .19.19h3.161a.191.191 0 0 0 .191-.19v-.354h1.149a.788.788 0 0 1 .787.788z" role="presentation"/><path d="M9.9 4.489l-.276-.482a.24.24 0 0 0-.324-.086l-.931.529V3.38a.239.239 0 0 0-.216-.253H7.6a.248.248 0 0 0-.227.253v1.053l-.907-.553a.232.232 0 0 0-.319.077l-.29.473a.232.232 0 0 0 .076.319l.94.575-.945.541a.23.23 0 0 0-.086.316l.276.482a.24.24 0 0 0 .323.085l.931-.529V7.29a.212.212 0 0 0 .216.223h.556a.221.221 0 0 0 .227-.223V6.237l.906.553a.233.233 0 0 0 .323-.077l.29-.473a.231.231 0 0 0-.076-.318l-.94-.576.946-.541a.231.231 0 0 0 .08-.316z" fill-rule="evenodd" role="presentation"/><path d="M2.277 14.076a.031.031 0 0 1-.033-.033v-2.172a.031.031 0 0 1 .033-.034h.312a.031.031 0 0 1 .033.034v.122a.491.491 0 0 1 .433-.193.548.548 0 0 1 .565.392 1.375 1.375 0 0 1 .057.46 1.375 1.375 0 0 1-.057.46.548.548 0 0 1-.565.393.491.491 0 0 1-.433-.193v.731a.031.031 0 0 1-.033.033zm.985-1.119a.987.987 0 0 0 .034-.305.975.975 0 0 0-.034-.3.291.291 0 0 0-.3-.21.293.293 0 0 0-.3.21.975.975 0 0 0-.034.3.987.987 0 0 0 .034.305.293.293 0 0 0 .3.209.292.292 0 0 0 .3-.209zm1.096.531c-.318 0-.447-.152-.447-.467V11.2a.033.033 0 0 1 .034-.034h.312a.032.032 0 0 1 .033.034V13c0 .111.044.149.142.149h.075a.032.032 0 0 1 .034.033v.271a.033.033 0 0 1-.034.034zm1.342-.02a.032.032 0 0 1-.033-.034v-.119a.53.53 0 0 1-.46.19.488.488 0 0 1-.548-.5c0-.355.25-.517.653-.517h.332a.018.018 0 0 0 .02-.021v-.077c0-.186-.088-.271-.362-.271a.57.57 0 0 0-.372.112.031.031 0 0 1-.048-.007L4.757 12a.031.031 0 0 1 .007-.044.95.95 0 0 1 .579-.159c.5 0 .68.169.68.568v1.066a.033.033 0 0 1-.034.034zm-.04-.549v-.125a.018.018 0 0 0-.02-.02h-.267c-.244 0-.352.068-.352.22 0 .135.1.2.281.2.233.006.362-.089.362-.275zm1.706.549a.032.032 0 0 1-.034-.034v-.941c0-.21-.1-.355-.308-.355a.313.313 0 0 0-.311.355v.941a.033.033 0 0 1-.034.034h-.311a.032.032 0 0 1-.034-.034v-1.563a.032.032 0 0 1 .034-.034h.311a.032.032 0 0 1 .034.034v.118a.505.505 0 0 1 .43-.189.557.557 0 0 1 .565.6v1.029a.033.033 0 0 1-.034.034zm1.685 0a.032.032 0 0 1-.034-.034v-.941c0-.21-.1-.355-.308-.355a.313.313 0 0 0-.311.355v.941a.033.033 0 0 1-.034.034h-.311a.032.032 0 0 1-.034-.034v-1.563a.032.032 0 0 1 .034-.034h.311a.032.032 0 0 1 .034.034v.118a.505.505 0 0 1 .43-.189.557.557 0 0 1 .565.6v1.029a.033.033 0 0 1-.034.034zm.686-1.939A.031.031 0 0 1 9.7 11.5v-.3a.032.032 0 0 1 .033-.034h.312a.032.032 0 0 1 .033.034v.3a.031.031 0 0 1-.033.034zm0 1.939a.032.032 0 0 1-.033-.034v-1.563a.031.031 0 0 1 .033-.034h.312a.031.031 0 0 1 .033.034v1.563a.032.032 0 0 1-.033.034zm1.702 0a.033.033 0 0 1-.034-.034v-.941c0-.21-.1-.355-.308-.355a.313.313 0 0 0-.311.355v.941a.032.032 0 0 1-.034.034h-.311a.033.033 0 0 1-.034-.034v-1.563a.032.032 0 0 1 .034-.034h.311a.032.032 0 0 1 .034.034v.118a.5.5 0 0 1 .429-.189.556.556 0 0 1 .565.6v1.029a.032.032 0 0 1-.034.034zm.619.402a.03.03 0 0 1 0-.047l.2-.2a.032.032 0 0 1 .051 0 .5.5 0 0 0 .355.152c.251 0 .366-.135.366-.389v-.152a.47.47 0 0 1-.423.19.544.544 0 0 1-.554-.4 1.23 1.23 0 0 1-.053-.412 1.208 1.208 0 0 1 .055-.413.542.542 0 0 1 .554-.4.463.463 0 0 1 .423.193v-.122a.031.031 0 0 1 .033-.034h.312a.031.031 0 0 1 .033.034v1.495a.683.683 0 0 1-.761.748.807.807 0 0 1-.591-.243zm.942-.991a.762.762 0 0 0 .038-.267.787.787 0 0 0-.038-.268.306.306 0 0 0-.578 0 .789.789 0 0 0-.037.268.764.764 0 0 0 .037.267.3.3 0 0 0 .578 0zm-9.477 2.639a1.614 1.614 0 0 1 0-.805.657.657 0 0 1 .673-.45.708.708 0 0 1 .565.254.032.032 0 0 1 0 .047l-.213.186a.03.03 0 0 1-.047-.007.372.372 0 0 0-.3-.142.3.3 0 0 0-.3.214.955.955 0 0 0-.034.3.979.979 0 0 0 .034.3.3.3 0 0 0 .3.21.372.372 0 0 0 .3-.142.03.03 0 0 1 .047 0l.213.186c.017.014.014.031 0 .048a.717.717 0 0 1-.565.25.657.657 0 0 1-.673-.449zm1.445-.003a1.258 1.258 0 0 1-.058-.4 1.325 1.325 0 0 1 .054-.4.658.658 0 0 1 .667-.45.662.662 0 0 1 .67.45 1.47 1.47 0 0 1 .054.491.033.033 0 0 1-.037.033h-1c-.014 0-.02.007-.02.021a.371.371 0 0 0 .023.125.357.357 0 0 0 .366.247.492.492 0 0 0 .382-.156.035.035 0 0 1 .051-.007l.2.176a.031.031 0 0 1 0 .048.861.861 0 0 1-.67.277.66.66 0 0 1-.682-.455zm.984-.721a.348.348 0 0 0-.639 0 .408.408 0 0 0-.02.139.018.018 0 0 0 .02.02h.639a.018.018 0 0 0 .021-.02.407.407 0 0 0-.021-.139zm1.672 1.137a.032.032 0 0 1-.034-.031v-.941c0-.209-.1-.355-.308-.355a.314.314 0 0 0-.311.355v.941a.032.032 0 0 1-.034.034h-.311a.032.032 0 0 1-.034-.034v-1.566a.032.032 0 0 1 .034-.034h.311a.033.033 0 0 1 .034.034v.118a.505.505 0 0 1 .43-.189.557.557 0 0 1 .565.606V15.9a.032.032 0 0 1-.034.034zm1.13.02c-.328 0-.454-.159-.454-.477v-.859c0-.014-.006-.02-.02-.02h-.108a.032.032 0 0 1-.034-.034v-.227a.032.032 0 0 1 .034-.034h.108a.018.018 0 0 0 .02-.02v-.447a.032.032 0 0 1 .034-.033h.311a.031.031 0 0 1 .034.033v.447a.018.018 0 0 0 .021.02h.216a.033.033 0 0 1 .034.034v.227a.033.033 0 0 1-.034.034H8.7c-.014 0-.021.006-.021.02v.846c0 .115.048.152.152.152h.085a.032.032 0 0 1 .034.034v.271a.032.032 0 0 1-.034.033zm.409-.436a1.261 1.261 0 0 1-.057-.4 1.294 1.294 0 0 1 .054-.4.721.721 0 0 1 1.336 0 1.47 1.47 0 0 1 .054.491c0 .02-.013.033-.037.033H9.508a.018.018 0 0 0-.02.021.348.348 0 0 0 .024.125.355.355 0 0 0 .365.247.49.49 0 0 0 .382-.156.035.035 0 0 1 .051-.007l.2.176a.032.032 0 0 1 0 .048.861.861 0 0 1-.67.277.66.66 0 0 1-.677-.455zm.985-.721a.349.349 0 0 0-.64 0 .434.434 0 0 0-.02.139.018.018 0 0 0 .02.02h.64a.018.018 0 0 0 .02-.02.434.434 0 0 0-.02-.139zm.673 1.137a.032.032 0 0 1-.034-.034v-1.563a.033.033 0 0 1 .034-.034h.311a.033.033 0 0 1 .034.034v.139a.469.469 0 0 1 .423-.21.5.5 0 0 1 .342.135c.017.017.02.031.007.048l-.18.226a.03.03 0 0 1-.047.007.442.442 0 0 0-.24-.078c-.213 0-.308.153-.308.413v.886a.032.032 0 0 1-.034.034z" role="presentation"/></g></symbol>
<symbol id="pco-logo-stack2" class="symbol"><title id="title-pco-logo-stack2">pco-logo-stack2 icon</title><g data-name="Layer 1"><path d="M1.8 12.289h-.027a.05.05 0 0 1-.05-.05v-1.287a.072.072 0 0 0-.07-.07h-.167a.072.072 0 0 0-.07.07V12.4a.2.2 0 0 0 .2.2H1.8a.048.048 0 0 0 .048-.048v-.212a.048.048 0 0 0-.048-.051zm.7-.921a1.23 1.23 0 0 0-.409.068.067.067 0 0 0-.047.084l.023.109c.013.045.043.066.082.057a1.185 1.185 0 0 1 .324-.052.164.164 0 0 1 .124.037.264.264 0 0 1 .044.187.859.859 0 0 0-.217-.03c-.289 0-.483.158-.483.392a.378.378 0 0 0 .392.406.512.512 0 0 0 .354-.138l.022.059c.013.031.027.05.063.05h.082a.072.072 0 0 0 .07-.07V11.9c-.002-.279-.035-.532-.424-.532zm.138.711v.175a.331.331 0 0 1-.249.136.162.162 0 0 1-.165-.173c0-.109.087-.179.223-.179a.446.446 0 0 1 .189.041zm1.093-.711a.617.617 0 0 0-.4.153l-.031-.078a.06.06 0 0 0-.06-.045h-.086a.071.071 0 0 0-.07.069v1.06a.072.072 0 0 0 .07.07h.152c.056 0 .082-.022.082-.07v-.712a.38.38 0 0 1 .31-.164c.148 0 .229.1.229.276v.6A.07.07 0 0 0 4 12.6h.167a.072.072 0 0 0 .07-.07v-.588c-.003-.366-.187-.574-.506-.574zm1.343 0a.622.622 0 0 0-.4.153l-.027-.078a.061.061 0 0 0-.061-.045H4.5a.07.07 0 0 0-.069.069v1.06a.071.071 0 0 0 .069.07h.15c.055 0 .081-.022.081-.07v-.712a.384.384 0 0 1 .311-.164c.148 0 .229.1.229.276v.6a.07.07 0 0 0 .07.07h.167a.071.071 0 0 0 .069-.07v-.588c0-.363-.183-.571-.503-.571zm.862-.515a.186.186 0 0 0 0 .371.186.186 0 1 0 0-.371z" role="presentation"/><rect x="5.787" y="11.398" width=".306" height="1.2" rx=".07" ry=".07"/><path d="M6.957 11.368a.616.616 0 0 0-.4.153l-.028-.078a.061.061 0 0 0-.06-.045h-.088a.071.071 0 0 0-.07.069v1.06a.072.072 0 0 0 .07.07h.152c.055 0 .081-.022.081-.07v-.712a.384.384 0 0 1 .311-.164c.148 0 .229.1.229.276v.6a.07.07 0 0 0 .07.07h.167a.072.072 0 0 0 .07-.07v-.588c0-.363-.184-.571-.504-.571zm3.343.841a.068.068 0 0 0-.1.006l-.018.018a.309.309 0 0 1-.244.113.348.348 0 0 1 0-.7.313.313 0 0 1 .225.108h.005c.021.019.05.045.092.007l.1-.088a.074.074 0 0 0 .029-.047.07.07 0 0 0-.015-.055.531.531 0 0 0-.435-.213.639.639 0 0 0-.628.642.626.626 0 0 0 .626.626.529.529 0 0 0 .465-.252.071.071 0 0 0-.023-.1zm.751-.841a.63.63 0 0 0 0 1.258.7.7 0 0 0 .442-.149.07.07 0 0 0 .029-.047.074.074 0 0 0-.021-.049l-.082-.111c-.032-.04-.062-.022-.1 0a.491.491 0 0 1-.253.082.325.325 0 0 1-.321-.285h.781a.069.069 0 0 0 .067-.062.754.754 0 0 0 .006-.081.542.542 0 0 0-.548-.556zm0 .254a.264.264 0 0 1 .254.232h-.537a.283.283 0 0 1 .28-.232zm1.363-.254a.617.617 0 0 0-.4.153l-.028-.078a.061.061 0 0 0-.06-.045h-.085a.071.071 0 0 0-.07.069v1.06a.072.072 0 0 0 .07.07h.152c.056 0 .082-.022.082-.07v-.712a.378.378 0 0 1 .31-.164c.148 0 .229.1.229.276v.6a.07.07 0 0 0 .07.07h.167a.072.072 0 0 0 .07-.07v-.588c-.004-.363-.188-.571-.507-.571zm1.371.952a.065.065 0 0 0-.036-.039.063.063 0 0 0-.051 0 .445.445 0 0 1-.172.052c-.044 0-.08-.008-.08-.1v-.565h.285a.071.071 0 0 0 .07-.07v-.132a.068.068 0 0 0-.07-.069h-.285v-.357a.069.069 0 0 0-.067-.07h-.166a.072.072 0 0 0-.07.07v.36h-.109a.068.068 0 0 0-.07.069v.131a.07.07 0 0 0 .07.07h.109v.595c0 .155.032.362.313.362a.922.922 0 0 0 .349-.089.063.063 0 0 0 .033-.088zm.676-.952a.63.63 0 0 0 0 1.258.7.7 0 0 0 .443-.149.06.06 0 0 0 .008-.1l-.083-.111c-.031-.039-.063-.021-.1 0a.5.5 0 0 1-.253.082.326.326 0 0 1-.322-.285h.781a.067.067 0 0 0 .067-.062.7.7 0 0 0 .006-.081.542.542 0 0 0-.547-.552zm.251.486h-.536a.282.282 0 0 1 .282-.232.262.262 0 0 1 .254.232zm1.223-.42c-.033-.049-.136-.066-.222-.066a.439.439 0 0 0-.338.154l-.023-.073a.07.07 0 0 0-.064-.051H15.2a.071.071 0 0 0-.07.069v1.06a.072.072 0 0 0 .07.07h.141c.035 0 .093 0 .093-.07v-.739a.3.3 0 0 1 .249-.134.257.257 0 0 1 .094.019.063.063 0 0 0 .089-.033l.071-.144a.065.065 0 0 0-.002-.062zM8.76 11.4h-.116a.054.054 0 0 0-.053.039l-.013.083a.542.542 0 0 0-.391-.157.68.68 0 0 0 .013 1.354.672.672 0 0 0 .309-.081v.019a.27.27 0 0 1-.078.216.409.409 0 0 1-.319.117.585.585 0 0 1-.28-.088.055.055 0 0 0-.075.02l-.064.126a.055.055 0 0 0 .016.072.879.879 0 0 0 .465.153h.017a.589.589 0 0 0 .631-.571v-1.24a.064.064 0 0 0-.062-.062zm-.31.991a.486.486 0 0 1-.214.051.355.355 0 0 1-.344-.395c0-.238.133-.4.331-.4a.336.336 0 0 1 .277.153.123.123 0 0 1 .02.068v.414a.123.123 0 0 1-.07.109zM.7 11.3a.539.539 0 0 0-.392.158l-.008-.08a.056.056 0 0 0-.054-.039H.125a.063.063 0 0 0-.061.062v1.743a.071.071 0 0 0 .069.07H.3a.068.068 0 0 0 .076-.07v-.569a.638.638 0 0 0 .308.083A.68.68 0 0 0 .7 11.3zm-.334.5a.123.123 0 0 1 .02-.068.333.333 0 0 1 .275-.149c.2 0 .332.161.332.4a.356.356 0 0 1-.345.395.49.49 0 0 1-.214-.051.124.124 0 0 1-.068-.112zm8.617-5.936L8.25 6.1a.822.822 0 0 1-.486 0l-.739-.222a.062.062 0 0 0-.08.06v.9a.061.061 0 0 0 .044.059l.9.271a.367.367 0 0 0 .22 0l.91-.29a.062.062 0 0 0 .043-.059v-.896a.062.062 0 0 0-.079-.059z" role="presentation"/><path d="M10.487 3.937L8.53 3.355a1.843 1.843 0 0 0-1.051 0l-1.957.582a1.055 1.055 0 0 0-.739 1.007v3.177a1.056 1.056 0 0 0 .739 1.007l1.957.582a1.843 1.843 0 0 0 1.051 0l1.957-.582a1.056 1.056 0 0 0 .739-1.007V4.944a1.055 1.055 0 0 0-.739-1.007zm-.77 3.081a.463.463 0 0 1-.33.444L8.243 7.8a.83.83 0 0 1-.471 0L7 7.572a.044.044 0 0 0-.056.042v.521a.165.165 0 0 1-.212.158L6.41 8.2a.165.165 0 0 1-.118-.158V5.617a.463.463 0 0 1 .593-.444l1.007.3a.37.37 0 0 0 .216 0l1.007-.315a.463.463 0 0 1 .6.442z" role="presentation"/></g></symbol>
<symbol id="people" class="symbol"><title id="title-people">people icon</title><path d="M16 14.8a22.683 22.683 0 0 0-.217-3.343c-.275-.468-.917-.789-2.107-1.287s-1.566-.914-1.566-1.81c0-.538.362-.362.522-1.347.066-.409.386-.007.447-.939 0-.372-.175-.464-.175-.464s.089-.55.123-.973a1.78 1.78 0 0 0-1.913-1.89A1.78 1.78 0 0 0 9.2 4.637c.035.424.123.973.123.973s-.173.092-.173.464c.061.933.381.531.447.939.159.985.522.809.522 1.347a1.448 1.448 0 0 1-.661 1.34c2.593 1.3 2.94 1.562 2.94 2.722V14.8zm-7.821-4.18C6.6 9.96 6.091 9.4 6.091 8.207c0-.717.483-.483.695-1.8.088-.545.515-.009.6-1.253 0-.5-.233-.619-.233-.619s.118-.733.165-1.3A2.373 2.373 0 0 0 4.763.721a2.373 2.373 0 0 0-2.55 2.521c.046.565.164 1.3.164 1.3s-.232.123-.232.619c.082 1.243.508.707.6 1.252.212 1.313.695 1.079.695 1.8 0 1.194-.506 1.752-2.088 2.414C.866 10.823 0 11.135 0 11.886V14.8h11.115v-2.184c0-.686-1.349-1.331-2.936-1.995z" data-name="Layer 1" role="presentation"/></symbol>
<symbol id="phone" class="symbol"><title id="title-phone">phone icon</title><path d="M1.951 5.838a26.79 26.79 0 0 0 7.089 8.615l1.081.86a1.755 1.755 0 0 0 2.216-.023l1.892-1.57.308-.255a1.3 1.3 0 0 0 .173-1.832l-1.452-1.765a1.292 1.292 0 0 0-1.824-.174L9.6 11.213a26.769 26.769 0 0 1-4.374-5.321l1.83-1.518a1.306 1.306 0 0 0 .173-1.833L5.777.777A1.293 1.293 0 0 0 3.953.6l-.308.258-1.892 1.57a1.775 1.775 0 0 0-.44 2.182z" data-name="Layer 1" role="presentation"/></symbol>
<symbol id="photo" class="symbol"><title id="title-photo">photo icon</title><path d="M14.72.607H1.28a1.306 1.306 0 0 0-1.307 1.3v12.184a1.306 1.306 0 0 0 1.307 1.3h13.44a1.306 1.306 0 0 0 1.307-1.3V1.909A1.306 1.306 0 0 0 14.72.607zm.3 13.484a.3.3 0 0 1-.3.3H1.28a.3.3 0 0 1-.3-.3v-2.534l4.064-3.608 4.026 4.01a.477.477 0 0 0 .366.147.506.506 0 0 0 .36-.16l2.494-2.679 2.73 2.766zm0-3.489l-2.382-2.413a.522.522 0 0 0-.366-.15.505.505 0 0 0-.362.161l-2.5 2.682-3.991-3.977a.506.506 0 0 0-.691-.02L.98 10.213v-8.3a.3.3 0 0 1 .3-.3h13.44a.3.3 0 0 1 .3.3zM9.367 2.491a2.121 2.121 0 1 0 2.133 2.12 2.127 2.127 0 0 0-2.133-2.12zm0 3.238a1.118 1.118 0 1 1 1.122-1.118 1.122 1.122 0 0 1-1.122 1.118z" data-name="Layer 1" role="presentation"/></symbol>
<symbol id="pico" class="symbol"><title id="title-pico">pico icon</title><path d="M13.551 7.481l-.114-.1a2.263 2.263 0 0 0-1.311-1.57.379.379 0 0 0-.049-.021l-.042-.017a9.525 9.525 0 0 0-2.616-.577 1.938 1.938 0 0 0-1.1-.491v-.518a.992.992 0 1 0-.809 0V4.7a1.94 1.94 0 0 0-1.119.511l-.018.019A10.1 10.1 0 0 0 4 5.769l-.057.023-.038.014h-.007a2.292 2.292 0 0 0-1.32 1.551l-.113.094a1.751 1.751 0 0 0-.563 1.352 1.44 1.44 0 0 0 .587 1.253l.067.044a1.418 1.418 0 0 0 1.117 1.5h.02l.032.008a21.081 21.081 0 0 0 4.134.44h.242a19.478 19.478 0 0 0 4.144-.442l.022-.006h.021a1.441 1.441 0 0 0 1.129-1.508l.069-.046a1.452 1.452 0 0 0 .588-1.246 1.775 1.775 0 0 0-.523-1.319zm-.861 2.692c-.009.538-.167.616-.426.682a14.885 14.885 0 0 1-4.15.474h-.247A12.112 12.112 0 0 1 3.8 10.89a.622.622 0 0 1-.5-.639L3.271 7.92a1.338 1.338 0 0 1 .851-1.272l.118-.038a14.682 14.682 0 0 1 3.816-.427 13.674 13.674 0 0 1 3.707.419l.133.043a1.321 1.321 0 0 1 .841 1.271zm-3.709-.781a.012.012 0 0 0-.012.01 1.031 1.031 0 0 1-1.029.652A1.031 1.031 0 0 1 6.911 9.4s0-.013-.011-.013-.013.013-.013.013a1.062 1.062 0 0 0 1.083.925A1 1 0 0 0 8.993 9.4a.01.01 0 0 0-.012-.008zM7.987.005a7.951 7.951 0 1 0 7.98 7.947A7.977 7.977 0 0 0 7.987.005zm4.876 12.808a6.922 6.922 0 0 1-9.763 0 6.854 6.854 0 0 1 0-9.72 6.923 6.923 0 0 1 9.763 0 6.848 6.848 0 0 1 0 9.719zm-7.779-5.39c-.458 0-.831.588-.831 1.313s.371 1.314.829 1.313.831-.588.832-1.313-.371-1.313-.83-1.313zm5.768 0c-.458 0-.831.588-.831 1.314s.372 1.312.83 1.312.831-.589.831-1.314-.372-1.315-.83-1.315z" data-name="Layer 1" role="presentation"/></symbol>
<symbol id="renew" class="symbol"><title id="title-renew">renew icon</title><g data-name="Layer 1"><path d="M8.054 15.9A7.89 7.89 0 1 1 7.994.118H8a7.886 7.886 0 0 1 5.614 13.429 7.8 7.8 0 0 1-5.56 2.353zM8 1.519A6.49 6.49 0 1 0 8 14.5a6.5 6.5 0 0 0 6.489-6.531A6.512 6.512 0 0 0 8 1.519z" role="presentation"/><path d="M8 12.532a4.529 4.529 0 0 1-4.523-4.555 4.623 4.623 0 0 1 .1-.9.651.651 0 1 1 1.274.264 3.2 3.2 0 0 0 .864 2.928 3.172 3.172 0 0 0 2.269.957A3.223 3.223 0 1 0 8 4.786a3.206 3.206 0 0 0-2.2.872.649.649 0 0 1-.889-.947A4.521 4.521 0 1 1 8 12.532z" role="presentation"/><path d="M5.423 8.882a.647.647 0 0 1-.46-.192l-.836-.836-.836.836a.65.65 0 1 1-.92-.918l1.3-1.3a.668.668 0 0 1 .92 0l1.3 1.3a.651.651 0 0 1-.46 1.11z" role="presentation"/></g></symbol>
<symbol id="rocket" class="symbol"><title id="title-rocket">rocket icon</title><g data-name="Layer 1"><path d="M13.215 10.451a2.874 2.874 0 0 0-1.789-2.077 7.867 7.867 0 0 0-.126-2.792 6.009 6.009 0 0 0-2.326-3.174L8.826.784a.829.829 0 0 0-1.652 0l-.148 1.624A6.009 6.009 0 0 0 4.7 5.582a7.867 7.867 0 0 0-.126 2.792 2.874 2.874 0 0 0-1.789 2.077 5.741 5.741 0 0 0 .522 3.219 9.8 9.8 0 0 0 1.03 2 .826.826 0 0 0 1.049.19A1.49 1.49 0 0 0 6 15.206a2.036 2.036 0 0 0 .116-.625 3.815 3.815 0 0 1 .158-.969 1.433 1.433 0 0 0 .79.354l.1.678a.845.845 0 0 0 .861.711.834.834 0 0 0 .821-.711l.1-.676a1.341 1.341 0 0 0 .791-.356 3.854 3.854 0 0 1 .158.969 2.036 2.036 0 0 0 .116.625 1.5 1.5 0 0 0 .61.655.826.826 0 0 0 1.049-.19 9.737 9.737 0 0 0 1.031-2 5.741 5.741 0 0 0 .514-3.22zm-2.19 4.689a.7.7 0 0 1-.26-.26 6.542 6.542 0 0 0-.35-1.736 4.27 4.27 0 0 0-.868-.869.19.19 0 0 0-.173.173 3.2 3.2 0 0 1-.172.52.558.558 0 0 1-.342.173h-.015c-.13 0-.414.039-.634.064l-.191 1.32h-.04l-.191-1.32c-.22-.025-.5-.064-.634-.064H7.14a.558.558 0 0 1-.342-.173 3.2 3.2 0 0 1-.172-.52.19.19 0 0 0-.173-.173 4.27 4.27 0 0 0-.868.869 6.542 6.542 0 0 0-.35 1.736.7.7 0 0 1-.26.26c-.216-.259-1.72-2.979-1.381-4.51A2.211 2.211 0 0 1 5.54 8.978a6.706 6.706 0 0 1-.032-3.21 5.536 5.536 0 0 1 2.309-2.906L8 .86l.183 2a5.536 5.536 0 0 1 2.309 2.906 6.706 6.706 0 0 1-.032 3.21 2.211 2.211 0 0 1 1.946 1.652c.339 1.533-1.165 4.253-1.381 4.512z" role="presentation"/><path d="M8 6.505a1.037 1.037 0 0 0 1.032-1.034A1.031 1.031 0 0 0 8 4.438 1.035 1.035 0 0 0 7.269 6.2 1.025 1.025 0 0 0 8 6.505zm0 .34a.821.821 0 0 0-.58 1.4.811.811 0 0 0 .58.241.822.822 0 0 0 .582-1.4A.815.815 0 0 0 8 6.845z" role="presentation"/></g></symbol>
<symbol id="safari" class="symbol"><title id="title-safari">safari icon</title><g data-name="Layer 1"><path d="M7.971 2.019a5.906 5.906 0 1 1-5.906 5.906 5.912 5.912 0 0 1 5.906-5.906m0-1.974a7.88 7.88 0 1 0 7.88 7.88 7.879 7.879 0 0 0-7.88-7.88z" role="presentation"/><path d="M11.177 11.131L9.389 6.508 4.765 4.719l1.789 4.606zM7.5 7.452a.654.654 0 0 1 .945 0 .667.667 0 0 1 0 .945.668.668 0 0 1-.945-.945z" role="presentation"/></g></symbol>
<symbol id="safe" class="symbol"><title id="title-safe">safe icon</title><g data-name="Layer 1"><path d="M.368 2.237v11.557a1.932 1.932 0 0 0 1.926 1.926h11.557a1.932 1.932 0 0 0 1.927-1.926V2.237A1.932 1.932 0 0 0 13.851.31H2.294A1.932 1.932 0 0 0 .368 2.237zm1.284 0a.644.644 0 0 1 .642-.637h11.557a.644.644 0 0 1 .643.642v11.552a.644.644 0 0 1-.643.642H2.294a.644.644 0 0 1-.642-.642z" role="presentation"/><path d="M6.147 8.015a1.926 1.926 0 1 0 1.926-1.926 1.932 1.932 0 0 0-1.926 1.926zm1.284 0a.642.642 0 1 1 .642.642.644.644 0 0 1-.642-.642z" role="presentation"/><path d="M2.936 6.731V9.3a.643.643 0 0 0 0 1.285v1.284a1.288 1.288 0 0 0 1.284 1.283h7.705a1.287 1.287 0 0 0 1.284-1.284v-7.7a1.287 1.287 0 0 0-1.284-1.284H4.22a1.288 1.288 0 0 0-1.284 1.279v1.284a.642.642 0 0 0 0 1.284zm1.284 0a.642.642 0 1 0 0-1.284V4.163h7.705v7.705H4.22v-1.284a.643.643 0 0 0 0-1.285z" role="presentation"/></g></symbol>
<symbol id="stamp" class="symbol"><title id="title-stamp">stamp icon</title><g data-name="Layer 1"><path d="M15.348 3.308h.092a.436.436 0 0 0 .435-.436V1.5a.434.434 0 0 0-.608-.4.519.519 0 0 1-.709-.54.435.435 0 0 0-.435-.435h-1.015a.5.5 0 0 0-.435.507.51.51 0 0 1-.508.509.53.53 0 0 1-.508-.581.435.435 0 0 0-.435-.435h-1.015a.5.5 0 0 0-.435.507.51.51 0 0 1-.508.509.53.53 0 0 1-.509-.581.435.435 0 0 0-.435-.435H7.306a.5.5 0 0 0-.435.507.51.51 0 0 1-.509.509.529.529 0 0 1-.507-.581.436.436 0 0 0-.436-.435H4.4a.5.5 0 0 0-.435.507.509.509 0 0 1-.508.509.53.53 0 0 1-.504-.581.435.435 0 0 0-.435-.435H1.5a.5.5 0 0 0-.436.507.51.51 0 0 1-.508.509.435.435 0 0 0-.435.435V2.93a.436.436 0 0 0 .3.415.489.489 0 0 1 0 .943.434.434 0 0 0-.3.414v1.129a.434.434 0 0 0 .3.414.5.5 0 0 1 .358.472.5.5 0 0 1-.358.472.434.434 0 0 0-.3.414v1.129a.434.434 0 0 0 .3.414.49.49 0 0 1 0 .944.435.435 0 0 0-.3.415v1.128a.435.435 0 0 0 .3.415.49.49 0 0 1 0 .944.434.434 0 0 0-.3.414v1.354a.435.435 0 0 0 .439.44.5.5 0 0 1 .473.369.436.436 0 0 0 .417.311h1.121a.434.434 0 0 0 .417-.312.5.5 0 0 1 .946 0 .435.435 0 0 0 .417.312h1.121a.436.436 0 0 0 .418-.312.5.5 0 0 1 .945 0 .437.437 0 0 0 .418.311h1.12a.437.437 0 0 0 .418-.311.5.5 0 0 1 .946 0 .435.435 0 0 0 .417.311h1.121a.436.436 0 0 0 .417-.312.5.5 0 0 1 .946 0 .434.434 0 0 0 .417.312h1.121a.435.435 0 0 0 .417-.312.5.5 0 0 1 .674-.325.435.435 0 0 0 .608-.4v-1.379a.435.435 0 0 0-.435-.435h-.092a.509.509 0 0 1 0-1.017h.092a.435.435 0 0 0 .435-.435v-1.014a.436.436 0 0 0-.435-.436h-.092a.508.508 0 0 1 0-1.016h.092a.435.435 0 0 0 .435-.435V7.66a.435.435 0 0 0-.435-.435h-.092a.508.508 0 0 1 0-1.016h.092a.435.435 0 0 0 .435-.435V4.759a.435.435 0 0 0-.435-.435h-.092a.508.508 0 0 1 0-1.016zm-.343 1.843v.231a1.378 1.378 0 0 0 0 2.67v.231a1.378 1.378 0 0 0 0 2.67v.231a1.379 1.379 0 0 0 0 2.671v.471a1.353 1.353 0 0 0-1.113.679h-.554a1.353 1.353 0 0 0-2.347 0h-.554a1.353 1.353 0 0 0-2.347 0h-.554a1.353 1.353 0 0 0-2.347 0h-.554a1.353 1.353 0 0 0-2.347 0h-.554A1.363 1.363 0 0 0 1 14.4v-.713a1.355 1.355 0 0 0 0-2.327v-.574a1.355 1.355 0 0 0 0-2.331V7.88a1.354 1.354 0 0 0 0-2.326v-.575a1.355 1.355 0 0 0 0-2.327V1.94A1.385 1.385 0 0 0 1.879 1h.252a1.382 1.382 0 0 0 1.33 1.016A1.37 1.37 0 0 0 4.78 1h.253a1.38 1.38 0 0 0 1.329 1.011A1.369 1.369 0 0 0 7.681 1h.252a1.382 1.382 0 0 0 1.331 1.011A1.369 1.369 0 0 0 10.582 1h.253a1.381 1.381 0 0 0 1.33 1.016A1.369 1.369 0 0 0 13.483 1h.253a1.382 1.382 0 0 0 1.269 1.01v.471a1.378 1.378 0 0 0 0 2.67z" role="presentation"/><path d="M12.591 3.144H3.153a.326.326 0 0 0-.326.326v9.438a.327.327 0 0 0 .326.327h9.438a.327.327 0 0 0 .326-.327V3.47a.326.326 0 0 0-.326-.326zm-.327.653v1.482l-.688-.941a.307.307 0 0 0-.279-.133.327.327 0 0 0-.265.159L7.555 10.2l-1.72-2.3a.33.33 0 0 0-.25-.131.344.344 0 0 0-.259.114l-1.847 2.15V3.8zm-8.785 8.785v-1.56c.01-.009.022-.012.03-.022l2.047-2.38 1.769 2.362a.318.318 0 0 0 .278.131.33.33 0 0 0 .264-.159l3.474-5.832.823 1.125a.325.325 0 0 0 .1.089v6.246z" role="presentation"/><path d="M5.329 6.857a1.4 1.4 0 1 0-1.4-1.4 1.4 1.4 0 0 0 1.4 1.4zm0-2.149a.748.748 0 1 1-.748.748.749.749 0 0 1 .748-.748z" role="presentation"/></g></symbol>
<symbol id="success" class="symbol"><title id="title-success">success icon</title><path d="M8 0a7.992 7.992 0 1 0 7.992 7.992A7.992 7.992 0 0 0 8 0zm3.734 7.287l-2.892 2.891-.988.989a.7.7 0 0 1-.989 0l-.989-.989L4.55 8.852a1.039 1.039 0 0 1 0-1.468l.015-.015a1.04 1.04 0 0 1 1.469 0L7.359 8.7l2.892-2.9a1.037 1.037 0 0 1 1.468 0l.015.015a1.039 1.039 0 0 1 0 1.472z" data-name="Layer 1" role="presentation"/></symbol>
<symbol id="thank-you" class="symbol"><title id="title-thank-you">thank-you icon</title><path d="M3.183 8.013v.011zm6.109 1.363c-.283.326-.69.7-.47.025.078-.239.494-.452.348-.764a.32.32 0 0 0-.518-.1 3.057 3.057 0 0 0-.526.655l-.041-.026.2-.3c.2-.342.921-1.646.4-1.948-.633-.368-.951 1.087-1.006 1.41a6.076 6.076 0 0 0-.142 1.227l-.037.024a.632.632 0 0 1-.114.068.6.6 0 0 0-.076.053.233.233 0 0 1-.072.035c-.149.066-.049-1.933-.524-1.125-.11.193-.188.4-.3.6h-.03c0-.141.1-.35.063-.481-.051-.17-.28-.489-.376-.092a4.939 4.939 0 0 0-.117.735 2.688 2.688 0 0 1-.141.173c-.6.653-.2-.516-.261-.717-.089-.3-.03-.151-.278-.263-.48-.215-.98.295-1.072.827v.039c-.034.038-.068.079-.1.112-.779.75-.061-.831-.118-.975-.2-.508-.779.3-.951.528l-.034-.024c.208-.384 1.073-1.735.6-2.141-.3-.255-.573.036-.754.352-.654-.1-2.7-.391-2.7.578 0-.02 0-.062 0 0 0 .011 0 .009 0 0a.219.219 0 0 0 .031.106c.211.347.346-.017.484-.119a1.259 1.259 0 0 1 .8-.3 48.854 48.854 0 0 0-.7 2.419c-.094.364.4.3.478 0 .214-.807.518-1.619.682-2.4.15.009.4.078.743.1-.006.017-.015.039-.019.054a4.784 4.784 0 0 0-.221 2.059c.1.366.193.464.393.064A2.231 2.231 0 0 1 3.417 9l.036.006a.9.9 0 0 0-.128.96c.273.326.641.076.921-.125.145.33.541.414.883.023.179.451.562.251.808 0 .022.162.1.374.3.25a.219.219 0 0 0 .077-.1l.446-.885h.027c-.039.262-.176 1.143.353.979a1.621 1.621 0 0 0 .165-.068c.036-.016.127-.063.271-.14l.018-.01c.061.185.173.406.355.132l.5-.874c.162-.289.286-.117.084.084-.608.808.277 1.212.855.568.485-.531.126-.68-.096-.424zm-6.5-.449a5.74 5.74 0 0 1 .057-.4A5.207 5.207 0 0 1 3 7.757c.022-.051.218-.565.335-.565.142 0-.116.728-.151.821.015-.037.044-.111 0 .011-.126.304-.26.603-.39.903zm2.235.4c-.027.253-.427.75-.427.254 0-.267.218-.806.553-.806zm2.917-.35c.011-.139.025-.279.041-.422.041-.271.088-.535.15-.8.051-.124.131-.484.322-.484.115 0-.18.71-.194.754-.102.319-.211.636-.317.954zm4.624-1.854c-.208.384-.511.972-.723 1.355-.156-.354-.795-1.6-1.377-1.384-.135.12-.089.744.05.681.033-.015.007-.145.013-.176.123-.477 1.012 1.135 1.059 1.253-.189.332-.6 1.224-1.128.87-.207-.083.081.282.094.292.407.338.772.037 1.053-.367a25.865 25.865 0 0 0 1.313-2.253c.114-.261-.197-.558-.354-.271zm3.071 2.243c-.059.077-.548.516-.674.379-.2-.2.114-.939.114-1.2 0-.157-.353-.144-.382-.012l-.187.928c-.052.252-.2.338-.348.19-.123-.12.158-.967.18-1.124a.138.138 0 0 0-.169-.091c-.212.008-.277.3-.307.461v.01a1.008 1.008 0 0 0-1.166-.374.97.97 0 0 0-.442 1.128c.341 1.084 1.543.025 1.124-.838l.013-.019a3.1 3.1 0 0 1 .435.358 2.517 2.517 0 0 1-.056.257c-.2.733.367.9.794.356.122.591.784.261 1.077-.032s.255-.474-.006-.377zm-2.787.443c-.442 0-.266-1.007.1-1.018s.223 1.018-.1 1.018z" data-name="Layer 1" role="presentation"/></symbol>
<symbol id="twilio" class="symbol"><title id="title-twilio">twilio icon</title><path d="M11.12 6.58h-.82a.041.041 0 0 0-.041.042V7.1a.041.041 0 0 0 .041.041h.819a.041.041 0 0 0 .041-.041v-.478a.041.041 0 0 0-.04-.042zm-.015.712H9.534a.056.056 0 0 0-.051.04l-.2.778-.01.041-.246-.827a.058.058 0 0 0-.053-.04h-.613a.058.058 0 0 0-.053.04l-.23.779-.012.04-.01-.04-.1-.386-.1-.385a.057.057 0 0 0-.052-.04H6.576v-.67a.043.043 0 0 0-.055-.037l-.775.244c-.023.007-.041.018-.041.041v.422H5.5a.041.041 0 0 0-.041.042v.593a.041.041 0 0 0 .041.042h.2V8.7c0 .514.276.754.79.754a1.239 1.239 0 0 0 .556-.12v-.627a.031.031 0 0 0-.043-.033.517.517 0 0 1-.221.045c-.138 0-.211-.058-.211-.216v-.534h.442a.041.041 0 0 0 .041-.042v-.5l.586 1.952a.06.06 0 0 0 .053.04h.643a.062.062 0 0 0 .054-.039l.275-.866.14.453.127.412a.06.06 0 0 0 .054.04h.646a.058.058 0 0 0 .053-.04l.59-1.959v1.958a.042.042 0 0 0 .041.042h.789a.042.042 0 0 0 .041-.042V7.334a.042.042 0 0 0-.041-.042zm1.037-.712h-.788a.042.042 0 0 0-.042.042v2.756a.042.042 0 0 0 .042.042h.788a.041.041 0 0 0 .041-.042V6.622a.041.041 0 0 0-.041-.042zm1.052 0h-.819a.041.041 0 0 0-.041.042V7.1a.041.041 0 0 0 .041.041h.819a.042.042 0 0 0 .041-.041v-.478a.042.042 0 0 0-.041-.042zm-.016.712h-.788a.042.042 0 0 0-.041.042v2.044a.042.042 0 0 0 .041.042h.788a.042.042 0 0 0 .042-.042V7.334a.042.042 0 0 0-.042-.042zm1.3-.05A1.131 1.131 0 0 0 13.3 8.348v.008a1.18 1.18 0 0 0 2.355-.008V8.34a1.12 1.12 0 0 0-1.172-1.098zm.337 1.114a.348.348 0 0 1-.337.367.36.36 0 0 1-.346-.375V8.34a.348.348 0 0 1 .338-.367.359.359 0 0 1 .345.375zM2.6 5.667A2.333 2.333 0 1 0 4.908 8 2.324 2.324 0 0 0 2.6 5.667zm0 4.051A1.718 1.718 0 1 1 4.3 8a1.711 1.711 0 0 1-1.7 1.718zm.576-2.784a.485.485 0 1 0 .481.485.483.483 0 0 0-.486-.485zm0 1.162a.485.485 0 1 0 .481.485.483.483 0 0 0-.486-.481zm-1.153 0a.485.485 0 1 0 .481.485.483.483 0 0 0-.486-.481zm0-1.162a.485.485 0 1 0 .481.485.483.483 0 0 0-.486-.485z" data-name="Layer 1" role="presentation"/></symbol>
<symbol id="upload" class="symbol"><title id="title-upload">upload icon</title><g data-name="Layer 1"><path d="M14.579 7.6h-2.108a1.217 1.217 0 0 0-1.118.724l-.977 2.066-4.739-.02-.974-2.029A1.229 1.229 0 0 0 3.534 7.6H1.422A1.2 1.2 0 0 0 .227 8.8v5.1a1.891 1.891 0 0 0 1.881 1.9h11.785a1.891 1.891 0 0 0 1.88-1.9V8.8a1.2 1.2 0 0 0-1.194-1.2zm-.1 6.3a.6.6 0 0 1-.587.6H2.108a.6.6 0 0 1-.588-.6V8.888h1.971l.97 2.013a1.282 1.282 0 0 0 1.176.777h4.739a1.27 1.27 0 0 0 1.166-.756l.929-2.034h2.009z" role="presentation"/><path d="M4.45 5.138a.753.753 0 0 0 .515-.2L7.358 2.7v5.274a.754.754 0 0 0 1.508 0V2.7l2.382 2.224a.754.754 0 0 0 1.03-1.1L8.627.411A.788.788 0 0 0 8.51.338a.779.779 0 0 0-.116-.073.776.776 0 0 0-.268-.054h-.014a.767.767 0 0 0-.282.057.842.842 0 0 0-.114.072.693.693 0 0 0-.116.072L3.935 3.833a.754.754 0 0 0 .515 1.3z" role="presentation"/></g></symbol>
<symbol id="viewer" class="symbol"><title id="title-viewer">viewer icon</title><g data-name="Layer 1"><path d="M8 2.993C4.163 2.993.718 6.394.718 8S4.163 13.007 8 13.007 15.282 9.606 15.282 8 11.837 2.993 8 2.993zm0 8.421c-3.094 0-5.586-2.773-5.69-3.39.1-.665 2.6-3.438 5.69-3.438s5.586 2.773 5.69 3.39c-.104.665-2.596 3.438-5.69 3.438z" role="presentation"/><path d="M8 5.724A2.276 2.276 0 1 0 10.276 8 2.279 2.279 0 0 0 8 5.724zm0 2.959A.683.683 0 1 1 8.683 8 .685.685 0 0 1 8 8.683z" role="presentation"/></g></symbol>
    </svg>