<svg xmlns="http://www.w3.org/2000/svg" xmlns:xlink="http://www.w3.org/1999/xlink">
    
<symbol id="accounts-logo-stack" viewBox="0 0 16 16">
  <title>accounts-logo-stack</title><g id="Layer_1" data-name="Layer 1"> <g> <g> <path d="M1.008,12.093a2.239,2.239,0,0,0-.725.119.118.118,0,0,0-.083.15l.041.171a.12.12,0,0,0,.147.1,2.138,2.138,0,0,1,.575-.1.3.3,0,0,1,.222.073.484.484,0,0,1,.088.349,1.594,1.594,0,0,0-.4-.056c-.521,0-.858.273-.858.7a.67.67,0,0,0,.7.718.916.916,0,0,0,.629-.243l.038.107c.022.052.048.087.108.087h.149a.127.127,0,0,0,.123-.124V13.037C1.762,12.52,1.705,12.093,1.008,12.093ZM.809,13.9a.281.281,0,0,1-.3-.3c0-.19.162-.318.4-.318a1.006,1.006,0,0,1,.354.063v.325A.623.623,0,0,1,.809,13.9Z"></path> <path d="M3.767,13.581a.12.12,0,0,0-.171.01l-.051.049a.545.545,0,0,1-.424.2.637.637,0,0,1,.013-1.272.611.611,0,0,1,.412.2c.034.035.093.092.168.023l.162-.149a.126.126,0,0,0,.021-.181.935.935,0,0,0-.776-.37,1.106,1.106,0,0,0-1.093,1.115,1.088,1.088,0,0,0,1.088,1.11.971.971,0,0,0,.832-.443c.027-.041.042-.106-.042-.181Z"></path> <path d="M5.787,13.581a.121.121,0,0,0-.172.01l-.05.049a.549.549,0,0,1-.424.2.638.638,0,1,1,.424-1.072c.035.035.093.093.169.023l.162-.149a.126.126,0,0,0,.02-.181.933.933,0,0,0-.775-.37,1.105,1.105,0,0,0-1.093,1.115,1.088,1.088,0,0,0,1.088,1.11.968.968,0,0,0,.831-.443c.028-.041.043-.105-.041-.181Z"></path> <path d="M7.151,12.093A1.113,1.113,0,1,0,8.235,13.2,1.112,1.112,0,0,0,7.151,12.093ZM7.745,13.2a.6.6,0,1,1-1.191,0,.6.6,0,1,1,1.191,0Z"></path> <path d="M10.207,12.138h-.23c-.071,0-.141.01-.141.123v1.258a.493.493,0,0,1-.463.323c-.261,0-.382-.15-.382-.472V12.261a.126.126,0,0,0-.123-.123H8.616a.13.13,0,0,0-.123.123v1.078c0,.456.091.979.8.979a.855.855,0,0,0,.649-.263l.041.112c.018.05.046.1.117.1h.108a.13.13,0,0,0,.128-.124V12.261A.131.131,0,0,0,10.207,12.138Z"></path> <path d="M11.822,12.093a.979.979,0,0,0-.688.267l-.05-.14a.1.1,0,0,0-.109-.082h-.108a.126.126,0,0,0-.123.123v1.884a.124.124,0,0,0,.123.124h.23c.1,0,.146-.041.146-.124V12.853a.614.614,0,0,1,.525-.283c.249,0,.386.182.386.512v1.063a.126.126,0,0,0,.124.124h.252a.126.126,0,0,0,.123-.124V13.1C12.653,12.422,12.382,12.093,11.822,12.093Z"></path> <path d="M14.255,13.8a.116.116,0,0,0-.067-.07.1.1,0,0,0-.09.013.676.676,0,0,1-.321.1c-.075,0-.143-.015-.143-.188V12.57h.526a.126.126,0,0,0,.123-.124v-.185a.122.122,0,0,0-.123-.123h-.526v-.557a.119.119,0,0,0-.118-.123h-.257a.125.125,0,0,0-.124.123v.557h-.214a.12.12,0,0,0-.124.123v.185a.124.124,0,0,0,.124.124h.214v1.1c0,.3.063.646.552.646a1.289,1.289,0,0,0,.59-.152.117.117,0,0,0,.059-.151Z"></path> <path d="M15.3,12.974c-.222-.1-.342-.17-.342-.284,0-.08.075-.161.242-.161a1.048,1.048,0,0,1,.437.1.121.121,0,0,0,.166-.052l.072-.144a.149.149,0,0,0-.053-.185,1.2,1.2,0,0,0-.622-.157c-.493,0-.714.3-.714.592,0,.369.278.545.578.68s.432.217.432.339-.1.178-.251.178a.947.947,0,0,1-.5-.145l-.008-.005a.133.133,0,0,0-.105-.015.1.1,0,0,0-.064.053l-.094.193a.109.109,0,0,0,.043.139h0a1.233,1.233,0,0,0,.7.216.683.683,0,0,0,.768-.632C15.981,13.294,15.709,13.149,15.3,12.974Z"></path> </g> <g> <circle cx="8" cy="5.871" r="0.8"></circle> <path d="M8,1.682c-3.352,0-4.189.838-4.189,4.189s.837,4.19,4.189,4.19,4.189-.838,4.189-4.19S11.352,1.682,8,1.682ZM9.551,5.871a1.656,1.656,0,0,1-.015.2l.436.341A.1.1,0,0,1,10,6.547l-.413.716a.1.1,0,0,1-.126.045L8.943,7.1a1.576,1.576,0,0,1-.349.2l-.079.548a.1.1,0,0,1-.1.086H7.587a.1.1,0,0,1-.1-.086L7.407,7.3a1.5,1.5,0,0,1-.349-.2l-.515.207a.1.1,0,0,1-.126-.045L6,6.547a.1.1,0,0,1,.025-.132l.436-.341a1.374,1.374,0,0,1,0-.405l-.436-.341A.1.1,0,0,1,6,5.2l.413-.716a.1.1,0,0,1,.126-.045l.515.207a1.576,1.576,0,0,1,.349-.2l.079-.548a.1.1,0,0,1,.1-.087h.827a.1.1,0,0,1,.1.087l.079.548a1.5,1.5,0,0,1,.349.2l.515-.207a.1.1,0,0,1,.126.045L10,5.2a.1.1,0,0,1-.025.132l-.436.341A1.654,1.654,0,0,1,9.551,5.871Z"></path> </g> </g> </g>
</symbol>

<symbol id="accounts-logo" viewBox="0 0 16 16">
  <title>accounts-logo</title><g id="Layer_1" data-name="Layer 1"> <g> <g> <path d="M4.784,7.13a1.667,1.667,0,0,0-.532.087.087.087,0,0,0-.061.111l.03.125a.087.087,0,0,0,.108.076,1.583,1.583,0,0,1,.422-.072.22.22,0,0,1,.164.054.356.356,0,0,1,.064.256,1.18,1.18,0,0,0-.291-.041c-.383,0-.63.2-.63.511a.492.492,0,0,0,.511.528.669.669,0,0,0,.462-.179l.028.078c.016.039.036.064.079.064h.11a.092.092,0,0,0,.09-.09V7.823C5.338,7.444,5.3,7.13,4.784,7.13ZM4.638,8.458a.206.206,0,0,1-.22-.224c0-.14.119-.234.3-.234a.74.74,0,0,1,.26.046v.239A.458.458,0,0,1,4.638,8.458Z"></path> <path d="M6.811,8.223a.088.088,0,0,0-.126.008l-.037.036a.4.4,0,0,1-.312.148.469.469,0,1,1,.312-.787c.026.025.069.067.124.016l.119-.109A.092.092,0,0,0,6.906,7.4a.686.686,0,0,0-.57-.272.812.812,0,0,0-.8.819.8.8,0,0,0,.8.816.714.714,0,0,0,.611-.326c.02-.03.031-.077-.031-.133Z"></path> <path d="M8.294,8.223a.087.087,0,0,0-.125.008.417.417,0,0,0-.037.036.407.407,0,0,1-.312.148.469.469,0,1,1,.312-.788c.025.026.068.069.124.017l.119-.109A.093.093,0,0,0,8.39,7.4a.686.686,0,0,0-.57-.272.812.812,0,0,0-.8.819.8.8,0,0,0,.8.816.713.713,0,0,0,.61-.326c.02-.03.031-.077-.03-.133Z"></path> <path d="M9.3,7.13a.818.818,0,1,0,.8.813A.817.817,0,0,0,9.3,7.13Zm.436.813A.438.438,0,1,1,9.3,7.48.441.441,0,0,1,9.733,7.943Z"></path> <path d="M11.541,7.164h-.168c-.053,0-.1.007-.1.09v.924a.363.363,0,0,1-.34.237c-.191,0-.28-.11-.28-.347V7.254a.092.092,0,0,0-.091-.09h-.185a.1.1,0,0,0-.091.09v.791c0,.335.067.72.588.72a.624.624,0,0,0,.476-.194l.03.083c.013.037.034.074.086.074h.079a.094.094,0,0,0,.094-.09V7.254A.1.1,0,0,0,11.541,7.164Z"></path> <path d="M12.728,7.13a.717.717,0,0,0-.506.2l-.036-.1a.076.076,0,0,0-.08-.06h-.08a.092.092,0,0,0-.09.09V8.638a.09.09,0,0,0,.09.09H12.2c.072,0,.107-.029.107-.09v-.95a.45.45,0,0,1,.386-.208c.183,0,.284.134.284.377v.781a.091.091,0,0,0,.09.09h.186a.092.092,0,0,0,.09-.09V7.87C13.338,7.372,13.139,7.13,12.728,7.13Z"></path> <path d="M14.514,8.386a.081.081,0,0,0-.048-.051.079.079,0,0,0-.066.009.494.494,0,0,1-.236.071c-.056,0-.105-.011-.105-.138v-.8h.386a.093.093,0,0,0,.091-.09V7.254a.089.089,0,0,0-.091-.09h-.386v-.41a.088.088,0,0,0-.087-.09h-.189a.092.092,0,0,0-.091.09v.41h-.157a.087.087,0,0,0-.091.09V7.39a.091.091,0,0,0,.091.09h.157v.81c0,.221.046.475.4.475a.946.946,0,0,0,.434-.112.086.086,0,0,0,.043-.111Z"></path> <path d="M15.278,7.777c-.162-.07-.25-.125-.25-.208,0-.059.055-.118.177-.118a.783.783,0,0,1,.321.074.089.089,0,0,0,.122-.038l.053-.106a.107.107,0,0,0-.039-.135.877.877,0,0,0-.457-.116c-.362,0-.524.219-.524.435,0,.271.2.4.424.5s.318.159.318.248-.071.132-.185.132a.7.7,0,0,1-.366-.107l0,0a.1.1,0,0,0-.078-.011.076.076,0,0,0-.047.039l-.069.142a.081.081,0,0,0,.032.1h0a.913.913,0,0,0,.514.159.5.5,0,0,0,.563-.465C15.782,8.012,15.583,7.906,15.278,7.777Z"></path> </g> <g> <circle cx="1.752" cy="8" r="0.293"></circle> <path d="M1.752,6.466C.524,6.466.218,6.773.218,8S.524,9.534,1.752,9.534,3.286,9.227,3.286,8,2.979,6.466,1.752,6.466ZM2.32,8a.583.583,0,0,1-.006.074l.16.125a.038.038,0,0,1,.009.049l-.151.261a.036.036,0,0,1-.046.017L2.1,8.45a.565.565,0,0,1-.128.075l-.028.2a.039.039,0,0,1-.038.032H1.6a.037.037,0,0,1-.037-.032l-.029-.2a.531.531,0,0,1-.128-.075l-.189.076a.038.038,0,0,1-.046-.017l-.151-.261A.038.038,0,0,1,1.03,8.2l.16-.125a.459.459,0,0,1,0-.148L1.03,7.8a.037.037,0,0,1-.009-.049l.151-.261a.036.036,0,0,1,.046-.017l.189.076a.565.565,0,0,1,.128-.075l.029-.2A.037.037,0,0,1,1.6,7.243h.3a.039.039,0,0,1,.038.032l.028.2A.531.531,0,0,1,2.1,7.55l.189-.076a.038.038,0,0,1,.046.017l.151.261a.038.038,0,0,1-.009.049l-.16.125A.583.583,0,0,1,2.32,8Z"></path> </g> </g> </g>
</symbol>

<symbol id="administrators" viewBox="0 0 16 16">
  <title>administrators</title><g id="Layer_1" data-name="Layer 1"> <path d="M8,0,.026.8v2.99A13.371,13.371,0,0,0,7.477,15.821L8,16.082l.523-.261h0a13.372,13.372,0,0,0,7.45-12.035V.8Zm0,14.4a11.952,11.952,0,0,1-4.048-3.4A5.348,5.348,0,0,1,6.54,9.322,2.806,2.806,0,0,0,8.188,9.9a2.687,2.687,0,0,0,1.188-.29,7.238,7.238,0,0,1,2.469,1.667A11.966,11.966,0,0,1,8,14.405ZM8.188,8.4C7.3,8.4,6.454,7.3,6.454,6.131a1.882,1.882,0,0,1,1.734-2,1.882,1.882,0,0,1,1.733,2C9.921,7.3,9.078,8.4,8.188,8.4Zm6.286-4.613a11.921,11.921,0,0,1-1.753,6.249A9.228,9.228,0,0,0,10.627,8.52a4.068,4.068,0,0,0,.794-2.389,3.378,3.378,0,0,0-3.233-3.5,3.378,3.378,0,0,0-3.234,3.5A4.085,4.085,0,0,0,5.472,8.1,6.856,6.856,0,0,0,3.105,9.73,11.921,11.921,0,0,1,1.526,3.786V2.155L8,1.51l6.474.645Z"></path> </g>
</symbol>

<symbol id="android" viewBox="0 0 16 16">
  <title>android</title><g id="Layer_1" data-name="Layer 1"> <path d="M12.153,6.44,13.51,4.954a.735.735,0,1,0-1.086-.992L10.909,5.62a6.628,6.628,0,0,0-5.977,0L3.418,3.962a.736.736,0,0,0-1.087.992L3.689,6.44A6.8,6.8,0,0,0,1.3,11.147a.461.461,0,0,0,.463.481H14.078a.461.461,0,0,0,.463-.481A6.8,6.8,0,0,0,12.153,6.44ZM4.874,10.122A1.031,1.031,0,1,1,5.905,9.091,1.031,1.031,0,0,1,4.874,10.122Zm6.093,0A1.031,1.031,0,1,1,12,9.091,1.031,1.031,0,0,1,10.967,10.122Z"></path> </g>
</symbol>

<symbol id="apple" viewBox="0 0 16 16">
  <title>apple</title><g id="Layer_1" data-name="Layer 1"> <path d="M12.478,5.665a3.255,3.255,0,0,0-1.075,1.1,2.593,2.593,0,0,0-.284,1.2,2.5,2.5,0,0,0,.169.935,3.068,3.068,0,0,0,.477.8,3.255,3.255,0,0,0,1.031.756,6.952,6.952,0,0,1-.867,1.672,5.209,5.209,0,0,1-1.065,1.209,1.541,1.541,0,0,1-.911.357,2.839,2.839,0,0,1-.935-.222l-.183-.067-.3-.125a2.4,2.4,0,0,0-.7-.1,2.683,2.683,0,0,0-.886.174l-.232.086-.289.116a1.9,1.9,0,0,1-.693.135,2.236,2.236,0,0,1-1.571-1.026A7.56,7.56,0,0,1,2.9,10.469a6.937,6.937,0,0,1-.429-2.385A3.832,3.832,0,0,1,3.348,5.5,2.983,2.983,0,0,1,5.742,4.471a2.633,2.633,0,0,1,1.031.2L7,4.76l.231.1a1.411,1.411,0,0,0,.492.125,1.46,1.46,0,0,0,.539-.106l.309-.115.221-.087a3.379,3.379,0,0,1,1.195-.2A3.027,3.027,0,0,1,12.478,5.665ZM10.03,1.724c.013.142.019.251.019.328A2.572,2.572,0,0,1,9.7,3.285a2.636,2.636,0,0,1-.906.988,2.276,2.276,0,0,1-1.234.352,3.131,3.131,0,0,1-.029-.338,2.277,2.277,0,0,1,.3-1.074,2.947,2.947,0,0,1,.824-.959,2.611,2.611,0,0,1,1.175-.5Z"></path> </g>
</symbol>

<symbol id="applications" viewBox="0 0 16 16">
  <title>applications</title><g id="Layer_1" data-name="Layer 1"> <path d="M2.478,5.652c.748-.581,1.368-.18,2.2.778.093.107.218-.019.289-.081S6.126,5.305,6.179,5.258a.154.154,0,0,0,.033-.233c-.085-.1-.4-.5-.595-.761C4.169,2.369,9.58,1.085,8.748,1.064c-.422-.011-2.119-.031-2.373,0A7.916,7.916,0,0,0,3.406,2.576a8.553,8.553,0,0,0-1.219.97c-.24.211-.039.7-.474,1.077-.461.4-.748.1-1.015.333-.133.117-.5.394-.608.487a.259.259,0,0,0-.017.377s1.012,1.119,1.1,1.217a.349.349,0,0,0,.455.058l.568-.5C2.255,6.542,2.152,5.905,2.478,5.652Zm4.574.414a.207.207,0,0,0-.319-.023l-1.149,1a.232.232,0,0,0-.021.32l6.645,7.562a.425.425,0,0,0,.6.042l.778-.651a.432.432,0,0,0,.041-.606Zm8.861-3.219c-.06-.4-.265-.312-.371-.144s-.577.882-.771,1.205a.96.96,0,0,1-1.55.33c-.92-.651-.6-1.1-.439-1.41s.655-1.166.726-1.274a.214.214,0,0,0-.3-.29c-.286.132-2.021.822-2.262,1.81-.246,1.007.206,1.906-.681,2.8L9.193,7l1.08,1.256L11.6,6.993a1.881,1.881,0,0,1,1.6-.487A1.964,1.964,0,0,0,15.651,5.5,5.8,5.8,0,0,0,15.913,2.847ZM2.162,13.793a.433.433,0,0,0,0,.609l.762.744a.424.424,0,0,0,.6-.07L7.454,11.21l-1.2-1.371Z"></path> </g>
</symbol>

<symbol id="applications_2" viewBox="0 0 16 16">
  <title>applications_2</title><g id="Layer_1" data-name="Layer 1"> <path d="M6.647,6.841H9.21V9.4H6.647Zm-5.125,0H4.085V9.4H1.522Zm10.25,0h2.563V9.4H11.772Zm0,5.124h2.563v2.563H11.772Zm-5.125,0H9.21v2.563H6.647Zm-5.125,0H4.085v2.563H1.522Zm0-10.249H4.085V4.278H1.522Zm5.125,0H9.21V4.278H6.647Zm5.125,0h2.563V4.278H11.772Z" fill-rule="evenodd"></path> </g>
</symbol>

<symbol id="arrow-indent" viewBox="0 0 16 16">
  <title>arrow-indent</title><g id="Layer_1" data-name="Layer 1"> <path d="M4.078,9.848V1.688H1.858v8.1a2.185,2.185,0,0,0,2.22,2.253h8.591v-2.2Z" fill-rule="evenodd"></path> <polygon points="15.333 10.953 13.764 9.383 10.95 6.574 9.38 8.143 12.192 10.955 9.38 13.767 10.95 15.336 13.764 12.527 15.333 10.958 15.331 10.955 15.333 10.953" fill-rule="evenodd"></polygon> </g>
</symbol>

<symbol id="bill" viewBox="0 0 16 16">
  <title>bill</title><g id="Layer_1" data-name="Layer 1"> <path d="M13.825,1.4V13.809l-.893-.463-.7-.361-.644.448-1.372.954L8.664,13.4l-.675-.428-.686.409-1.677,1-1.217-.92-.654-.494-.727.376-.9.467V1.4h11.7m1.3-1.3H.826V15.947l2.8-1.447L5.54,15.947,7.968,14.5l2.285,1.447,2.08-1.447,2.792,1.447V.1Z"></path> <path d="M5.911,6.69c-.7-.289-.818-.438-.818-.662,0-.2.153-.425.582-.425a1.648,1.648,0,0,1,.863.234l.254.145.375-.988-.183-.108a2.164,2.164,0,0,0-.729-.26V3.817H4.961v.89A1.468,1.468,0,0,0,3.918,6.122c0,.9.734,1.308,1.45,1.589.607.246.731.458.731.7,0,.31-.275.518-.684.518a1.845,1.845,0,0,1-.99-.295l-.266-.177-.36,1,.153.11a2.356,2.356,0,0,0,1.009.362v.822H6.255v-.94A1.563,1.563,0,0,0,7.281,8.357,1.809,1.809,0,0,0,5.911,6.69Z"></path> <rect x="8.284" y="4.205" width="3.883" height="1.4"></rect> <rect x="8.284" y="6.779" width="3.883" height="1.4"></rect> <rect x="8.284" y="9.353" width="1.969" height="1.4"></rect> </g>
</symbol>

<symbol id="billing" viewBox="0 0 16 16">
  <title>billing</title><g id="Layer_1" data-name="Layer 1"> <g> <path d="M.37.023V15.977L3.145,14.59l2.774,1.387L8,14.59l2.775,1.387,2.08-1.387,2.775,1.387V.023ZM14.243,13.732l-1.487-.743-2.081,1.387L7.9,12.989,5.82,14.376,3.145,13.039l-1.388.693V1.41H14.243Z"></path> <rect x="4.206" y="3.617" width="7.741" height="1.348"></rect> <rect x="4.206" y="6.314" width="7.741" height="1.349"></rect> <rect x="4.206" y="9.011" width="7.741" height="1.349"></rect> </g> </g>
</symbol>

<symbol id="book" viewBox="0 0 16 16">
  <title>book</title><g id="Layer_1" data-name="Layer 1"> <path d="M15.536,1.669H9.073A1.507,1.507,0,0,0,8,2.12a1.507,1.507,0,0,0-1.077-.451H.456A.429.429,0,0,0,.025,2.1v9.589a.429.429,0,0,0,.431.427H6.919a.643.643,0,0,1,.646.639.431.431,0,0,0,.862,0,.644.644,0,0,1,.646-.639h6.463a.429.429,0,0,0,.431-.427V2.1A.429.429,0,0,0,15.536,1.669ZM7.565,11.4a1.517,1.517,0,0,0-.646-.144H.887V2.521H6.919a.644.644,0,0,1,.646.64Zm7.54-.144H9.073a1.517,1.517,0,0,0-.646.144V3.161a.644.644,0,0,1,.646-.64h6.032Zm.431,1.3H9.073a.429.429,0,0,0-.431.427.646.646,0,0,1-1.292,0,.43.43,0,0,0-.431-.427H.456a.427.427,0,1,0,0,.853h6.1a1.512,1.512,0,0,0,2.89,0h6.094a.427.427,0,1,0,0-.853ZM5.842,4.29H2.61a.427.427,0,1,0,0,.853H5.842a.427.427,0,1,0,0-.853Zm0,2.131H2.61a.427.427,0,1,0,0,.853H5.842a.427.427,0,1,0,0-.853Zm0,2.131H2.61a.426.426,0,1,0,0,.852H5.842a.426.426,0,1,0,0-.852ZM10.15,5.143h3.232a.427.427,0,1,0,0-.853H10.15a.427.427,0,1,0,0,.853Zm0,2.13h3.232a.426.426,0,1,0,0-.852H10.15a.426.426,0,1,0,0,.852Zm0,2.131h3.232a.426.426,0,1,0,0-.852H10.15a.426.426,0,1,0,0,.852Z"></path> </g>
</symbol>

<symbol id="calendar" viewBox="0 0 16 16">
  <title>calendar</title><g id="Layer_1" data-name="Layer 1"> <path d="M15.171,2.527V0H10.106V2.527H5.927V0H.829V2.527H0V16H16V2.527Zm-.86,4.819H11.428V4.235h2.883Zm-2.883.388h2.883v3.105H11.428ZM11.8,1.68h1.683V3.388H11.8ZM11.04,4.235V7.346H8.151V4.235Zm-6.554,6.6H1.693V7.734H4.486Zm.388-3.105H7.763v3.105H4.874Zm2.889,3.493v3.126H4.874V11.227Zm.388-3.493H11.04v3.105H8.151Zm2.889,3.493v3.126H8.151V11.227ZM7.763,4.235V7.346H4.874V4.235ZM2.551,1.68H4.205V3.388H2.551ZM4.486,4.235V7.346H1.693V4.235ZM1.693,11.227H4.486v3.126H1.693Zm9.735,3.126V11.227h2.883v3.126Z" fill-rule="evenodd"></path> </g>
</symbol>

<symbol id="campus" viewBox="0 0 16 16">
  <title>campus</title><g id="Layer_1" data-name="Layer 1"> <g> <path d="M7.884,3.374V.1L.119,2.633V15.887H15.881V4.962ZM5.116,14.786H3.154V11.2H5.116Zm1.667,0H6V10.315H2.273v4.471H1.22V3.431L6.783,1.613V14.786Zm1.1,0V4.5l6.9,1.37v5.675h-.964v.881h.964V13.2H12.563v.88H14.78v.708Z"></path> <path d="M13.74,7.164H9.011v2.858H13.74Zm-.881,1.977H9.892v-1.1h2.967Z"></path> <path d="M4.135,4.4a1.38,1.38,0,1,0,1.379,1.38A1.381,1.381,0,0,0,4.135,4.4Zm0,1.878a.5.5,0,1,1,.5-.5A.5.5,0,0,1,4.135,6.275Z"></path> </g> </g>
</symbol>

<symbol id="check" viewBox="0 0 16 16">
  <title>check</title><g id="Layer_1" data-name="Layer 1"> <path d="M15.774,4.475,13.128,1.762a.242.242,0,0,0-.349,0L6.269,8.436a.242.242,0,0,1-.349,0L3.127,5.573a.243.243,0,0,0-.35,0L.229,8.185a.258.258,0,0,0,0,.358l5.81,5.911a.244.244,0,0,0,.35,0l9.384-9.621A.257.257,0,0,0,15.774,4.475Z" fill-rule="evenodd"></path> </g>
</symbol>

<symbol id="chevron-l" viewBox="0 0 16 16">
  <title>chevron-l</title><g id="Layer_1" data-name="Layer 1"> <path d="M11.737,15.933a1.241,1.241,0,0,1-.881-.366L3.289,8,10.856.433a1.246,1.246,0,0,1,1.762,1.761L6.812,8l5.806,5.806a1.247,1.247,0,0,1-.881,2.127Z"></path> </g>
</symbol>

<symbol id="chevron-r" viewBox="0 0 16 16">
  <title>chevron-r</title><g id="Layer_1" data-name="Layer 1"> <path d="M4.4,15.933a1.241,1.241,0,0,0,.881-.366L12.847,8,5.28.433A1.246,1.246,0,1,0,3.518,2.194L9.324,8,3.518,13.806A1.247,1.247,0,0,0,4.4,15.933Z"></path> </g>
</symbol>

<symbol id="chrome" viewBox="0 0 16 16">
  <title>chrome</title><g id="Layer_1" data-name="Layer 1"> <path d="M8.052,4.615c.133,0,7.022-.006,7.022-.006A7.929,7.929,0,0,0,8.051.11a7.844,7.844,0,0,0-6.2,2.973L4.572,7.815A3.34,3.34,0,0,1,8.052,4.615Zm-.036,6.774A3.464,3.464,0,0,1,4.79,9.143l-.024.014L1.529,3.522A7.842,7.842,0,0,0,6.9,15.718l2.712-4.709A3.458,3.458,0,0,1,8.016,11.389Zm7.263-6.377L9.862,5a3.458,3.458,0,0,1,.81,5.169L7.465,15.786c.173.012.347.018.522.019A7.845,7.845,0,0,0,15.279,5.012ZM5.093,7.889a2.929,2.929,0,1,0,2.945-2.91A2.928,2.928,0,0,0,5.093,7.889Z" fill-rule="evenodd"></path> </g>
</symbol>

<symbol id="compass" viewBox="0 0 16 16">
  <title>compass</title><g id="Layer_1" data-name="Layer 1"> <path d="M8,.132A7.868,7.868,0,1,0,15.887,8,7.887,7.887,0,0,0,8,.132ZM8,14.773A6.773,6.773,0,1,1,14.791,8,6.79,6.79,0,0,1,8,14.773ZM8,2.305A5.7,5.7,0,1,0,13.708,8,5.707,5.707,0,0,0,8,2.305ZM8,13.058A5.058,5.058,0,1,1,13.071,8,5.07,5.07,0,0,1,8,13.058Zm2.411-7.891L7.055,6.922a.324.324,0,0,0-.136.136L5.148,10.423a.323.323,0,0,0,.286.473.317.317,0,0,0,.152-.038L8.94,9.074c.018-.01.026-.03.042-.043s.025,0,.035-.014.006-.024.014-.034.033-.024.042-.042l1.773-3.336a.323.323,0,0,0-.435-.438ZM7.287,7.746l.964.963L6.208,9.8Zm1.421.507L7.744,7.29,9.787,6.222Z"></path> </g>
</symbol>

<symbol id="contact-card" viewBox="0 0 16 16">
  <title>contact-card</title><g id="Layer_1" data-name="Layer 1"> <g> <path d="M13.129,5.886H8.107v.881h5.022Zm0,1.758H8.107v.882h5.022ZM10.5,9.389H8.107v.882H10.5ZM6.112,8.2,5.59,7.991A.915.915,0,0,0,6.049,7.2V6.459a1.442,1.442,0,1,0-2.883,0V7.2a.913.913,0,0,0,.464.794L3.107,8.2a1.008,1.008,0,0,0-.64.943v1.478a.52.52,0,0,0,.518.519H6.23a.519.519,0,0,0,.518-.519V9.142A1.009,1.009,0,0,0,6.112,8.2ZM3.95,6.459a.658.658,0,1,1,1.315,0V7.2a.129.129,0,0,1-.068.114l-.433.235a.328.328,0,0,1-.313,0l-.433-.235A.129.129,0,0,1,3.95,7.2Zm2.014,3.9H3.251V9.144A.226.226,0,0,1,3.4,8.932l1.223-.484,1.2.482a.227.227,0,0,1,.143.212Z"></path> <path d="M15.091,2.174V13.826H.894V2.174h14.2m0-.9H.894a.9.9,0,0,0-.9.9V13.826a.9.9,0,0,0,.9.9h14.2a.9.9,0,0,0,.9-.9V2.174a.9.9,0,0,0-.9-.9Z"></path> </g> </g>
</symbol>

<symbol id="down-arrow" viewBox="0 0 16 16">
  <title>down-arrow</title><g id="Layer_1" data-name="Layer 1"> <path d="M12.807,6.971l-4.1,5.245a.759.759,0,0,1-1.195,0L3.41,6.971a.758.758,0,0,1,.6-1.225h8.2A.758.758,0,0,1,12.807,6.971Z"></path> </g>
</symbol>

<symbol id="edit-person" viewBox="0 0 16 16">
  <title>edit-person</title><g id="Layer_1" data-name="Layer 1"> <circle cx="7.109" cy="3.394" r="3.379"></circle> <g> <rect x="9.483" y="11.579" width="4.188" height="2.172" transform="translate(-5.148 8.829) rotate(-34.651)"></rect> <path d="M9.063,15.723l-1.673.258A.38.38,0,0,1,7,15.42l.828-1.484.851-.588,1.234,1.787Z"></path> <path d="M14.494,11.969l-1.235-1.787L14.55,9.29a.5.5,0,0,1,.695.127l.666.965a.5.5,0,0,1-.127.7Z"></path> </g> <path d="M11.873,9.527a.238.238,0,0,0,.072-.314C11.315,8.187,10.14,8,8.794,8H5.423A3.424,3.424,0,0,0,2,11.423v.348A.23.23,0,0,0,2.229,12h5.93a.229.229,0,0,0,.129-.04Z"></path> </g>
</symbol>

<symbol id="editor" viewBox="0 0 16 16">
  <title>editor</title><g id="Layer_1" data-name="Layer 1"> <g> <path d="M14.107,4.435a1.435,1.435,0,0,0,0-2.029L12.372.671a1.434,1.434,0,0,0-2.028,0l-7,7-.016,3.713,3.817.014Zm-9.624,5.8.009-2.089,6.665-6.664a.282.282,0,0,1,.4,0L13.294,3.22a.276.276,0,0,1,.083.2.279.279,0,0,1-.083.2L6.67,10.246Z"></path> <rect x="0.855" y="13.46" width="13.749" height="1.5"></rect> </g> </g>
</symbol>

<symbol id="editor_1" viewBox="0 0 16 16">
  <title>editor_1</title><g id="Layer_1" data-name="Layer 1"> <g> <path d="M14.378,4.8a1.434,1.434,0,0,0,0-2.028L12.643,1.036a1.434,1.434,0,0,0-2.028,0l-7,7L3.6,11.749l3.816.013ZM4.754,10.6l.009-2.089,6.665-6.665a.285.285,0,0,1,.4,0l1.735,1.735a.285.285,0,0,1,0,.4L6.941,10.611Z"></path> <rect x="1.126" y="13.824" width="13.749" height="1.5"></rect> </g> </g>
</symbol>

<symbol id="firefox" viewBox="0 0 16 16">
  <title>firefox</title><g id="Layer_1" data-name="Layer 1"> <path d="M14.393,3.607,14.2,2.833l.112-.035c.859,1.059.929,2.4,1.178,3.729.048-.209.087-.381.126-.552l.066,0a.827.827,0,0,1,.066.22,11.159,11.159,0,0,1-1.655,6.483,6.865,6.865,0,0,1-4.772,2.995A7.249,7.249,0,0,1,4.5,14.994,7.937,7.937,0,0,1,.513,9.475C.505,9.439.489,9.4.464,9.334l-.138.215V7.431l-.144.05a4.932,4.932,0,0,1,.137-.726C.558,6.074.83,5.4,1.072,4.724a1.719,1.719,0,0,0,.09-.571,3.691,3.691,0,0,1,.481-1.984,4.146,4.146,0,0,1,.348-.432L2.38,2.752A7.34,7.34,0,0,1,8.614.276,8.421,8.421,0,0,1,14.393,3.607ZM11.586,1.675A6.877,6.877,0,0,0,2.659,3.127a5.012,5.012,0,0,0,.533.069c.4.007.808.009,1.212-.01a.7.7,0,0,0,.411-.13,3.14,3.14,0,0,1,1.633-.708,1.193,1.193,0,0,1,.3.036,7.471,7.471,0,0,0-.74.83c-.481.738-.151,1.368.713,1.4.215.009.431,0,.647,0,.45.01.58.221.368.635a1.052,1.052,0,0,1-.321.337c-.272.2-.555.388-.841.569a.525.525,0,0,0-.23.6c.042.248.048.5.076.823-.187-.062-.3-.091-.407-.137A.53.53,0,0,0,5.3,7.6a.677.677,0,0,0,0,.8,1.783,1.783,0,0,0,1.881.768c.309-.092.6-.242.915-.324a1.378,1.378,0,0,1,1.467.456c.218.247.122.575-.172.574a2.084,2.084,0,0,0-1.037.453,6.531,6.531,0,0,1-1.141.508,5.524,5.524,0,0,1-.959.13,4.174,4.174,0,0,0,3.142.951,4.21,4.21,0,0,0,2.487-2.071l.1.06q-.079.48-.161.96a4.825,4.825,0,0,0,.619-3.2l.087-.037.489.436a6.9,6.9,0,0,0,.023-2.9.911.911,0,0,1,.2.07c.112.089.217.186.36.311A4.313,4.313,0,0,0,10.33,2.665l.048-.108,1.259-.235.01-.1-1.9-.578A3.542,3.542,0,0,1,11.586,1.675Z" fill-rule="evenodd"></path> </g>
</symbol>

<symbol id="household-error" viewBox="0 0 16 16">
  <title>household-error</title><g id="Layer_1" data-name="Layer 1"> <g> <path d="M15.424,7.5,14.4,6.592v-2.9a1.036,1.036,0,0,0-1.038-1.006h-1.3a.979.979,0,0,0-.973,1.006V3.71L9.166,2.047a1.74,1.74,0,0,0-2.281,0L.624,7.5a1.018,1.018,0,0,0,.665,1.788H2.373v4.054a1.148,1.148,0,0,0,1.144,1.176H12.51a1.209,1.209,0,0,0,1.209-1.176V9.288h1.019a1.024,1.024,0,0,0,.966-.671A1,1,0,0,0,15.424,7.5Zm-2.268.764a.494.494,0,0,0-.494.493v4.585a.152.152,0,0,1-.152.151H3.517a.152.152,0,0,1-.152-.151V8.757a.494.494,0,0,0-.494-.493H1.3L7.55,2.82a.7.7,0,0,1,.927,0l3.2,2.792a.241.241,0,0,0,.4-.182V3.712H13.34V6.675a.84.84,0,0,0,.289.634l1.094.954Z"></path> <path d="M6.2,8.67l0,0a.274.274,0,0,0-.389,0l-.367.367-.368-.367a.274.274,0,0,0-.389,0l0,0a.274.274,0,0,0,0,.389l.367.368-.367.367a.274.274,0,0,0,0,.389l0,0a.274.274,0,0,0,.389,0l.368-.367.367.367a.274.274,0,0,0,.389,0l0,0a.274.274,0,0,0,0-.389l-.367-.367L6.2,9.059A.274.274,0,0,0,6.2,8.67Z"></path> <path d="M11.361,8.67l0,0a.274.274,0,0,0-.389,0l-.368.367-.367-.367a.274.274,0,0,0-.389,0l0,0a.274.274,0,0,0,0,.389l.367.368-.367.367a.274.274,0,0,0,0,.389l0,0a.274.274,0,0,0,.389,0L10.6,9.82l.368.367a.274.274,0,0,0,.389,0l0,0a.276.276,0,0,0,0-.389l-.367-.367.367-.368A.276.276,0,0,0,11.361,8.67Z"></path> </g> <path d="M9.654,11.991a2.524,2.524,0,0,0-3.266,0,.3.3,0,0,0,0,.458l0,0a.3.3,0,0,0,.4.008,1.9,1.9,0,0,1,2.464,0,.3.3,0,0,0,.4-.007l.005,0A.305.305,0,0,0,9.654,11.991Z"></path> </g>
</symbol>

<symbol id="ie" viewBox="0 0 16 16">
  <title>ie</title><g id="Layer_1" data-name="Layer 1"> <path d="M11.85,9.271h3.94a5.507,5.507,0,0,0,.057-.92,7.408,7.408,0,0,0-4.729-6.8l.207.043s4.98-2.313,3.32,2.818l.2.354S16.3.849,13.958.2c-1.917-.534-4.75.949-4.75.949l.1.021c-.176-.013-.353-.021-.533-.021A7.052,7.052,0,0,0,1.807,7.138,18.607,18.607,0,0,1,5.23,3.814S2.5,6.305,1.71,8.351a16.4,16.4,0,0,0-1.345,3.2c-.2.83-.717,3.81,1.345,4.152A5.716,5.716,0,0,0,5.55,14.9l-.041-.024a6.816,6.816,0,0,0,3.27.835,7.1,7.1,0,0,0,6.709-5.042H11.446a2.817,2.817,0,0,1-2.682,1.691c-1.531,0-2.654-1.175-2.946-3.084H11.85ZM5.073,14.614a6.181,6.181,0,0,1-2.189.647c-3.062-.03-.768-4.45-.768-4.45v-.006A7.328,7.328,0,0,0,5.081,14.62ZM8.779,4.556a2.639,2.639,0,0,1,2.8,2.639H5.846A2.939,2.939,0,0,1,8.779,4.556Z"></path> </g>
</symbol>

<symbol id="integrations" viewBox="0 0 16 16">
  <title>integrations</title><g id="Layer_1" data-name="Layer 1"> <path d="M8.784,7.874l-5,5-1.5-1.5L4.78,8.877H0V6.755H4.653L2.244,4.345l1.5-1.5ZM16,8.985V6.865l-1.85-.53a5.966,5.966,0,0,0-.563-1.364l.931-1.677-1.5-1.5-1.677.931a5.94,5.94,0,0,0-1.363-.563L9.443.308H7.323l-.53,1.85a6.166,6.166,0,0,0-.675.231l1.6,1.6a3.856,3.856,0,0,1,.666-.068,4.008,4.008,0,1,1,0,8.016,3.893,3.893,0,0,1-.753-.077L6.053,13.433a6,6,0,0,0,.74.259l.53,1.85h2.12l.531-1.85a5.94,5.94,0,0,0,1.363-.563l1.677.931,1.5-1.5-.931-1.677a5.966,5.966,0,0,0,.563-1.364Z"></path> </g>
</symbol>

<symbol id="integrations_1" viewBox="0 0 16 16">
  <title>integrations_1</title><g id="Layer_1" data-name="Layer 1"> <path d="M15.807.327a.657.657,0,0,0-.931,0l-1.45,1.45a4.412,4.412,0,0,0-5.942.3l-.857.856a.727.727,0,0,0,0,1.027l5.462,5.462a.725.725,0,0,0,1.027,0l.856-.856a4.446,4.446,0,0,0,.376-5.846l1.459-1.459A.658.658,0,0,0,15.807.327Zm-2.766,7.3L12.6,8.07,7.976,3.444l.439-.439a3.142,3.142,0,0,1,4.443,0l.183.184A3.144,3.144,0,0,1,13.041,7.631ZM8.873,8.916,7.652,10.137,6,8.486,7.234,7.252A.658.658,0,0,0,6.3,6.321L5.069,7.554l-.976-.975a.724.724,0,0,0-1.026,0l-.857.856a4.446,4.446,0,0,0-.376,5.846L.375,14.74a.658.658,0,1,0,.931.931l1.451-1.45a4.412,4.412,0,0,0,5.942-.3l.856-.857a.725.725,0,0,0,0-1.027l-.972-.971L9.805,9.847a.659.659,0,0,0-.932-.931ZM7.767,12.992a3.138,3.138,0,0,1-4.442,0l-.184-.183a3.146,3.146,0,0,1,0-4.442l.439-.439,4.626,4.626Z"></path> </g>
</symbol>

<symbol id="iphone" viewBox="0 0 16 16">
  <title>iphone</title><g id="Layer_1" data-name="Layer 1"> <path d="M11.175,1.362H5.086a1.728,1.728,0,0,0-1.7,1.754V13.191a1.707,1.707,0,0,0,1.7,1.715h6.089a1.707,1.707,0,0,0,1.695-1.715V3.116A1.727,1.727,0,0,0,11.175,1.362ZM7.461,13.229a.677.677,0,1,1,.677.677A.677.677,0,0,1,7.461,13.229Zm4.105-1.659H4.7V3.116a.4.4,0,0,1,.39-.4h6.089a.4.4,0,0,1,.391.4Z" fill-rule="evenodd"></path> </g>
</symbol>

<symbol id="keys" viewBox="0 0 16 16">
  <title>keys</title><g id="Layer_1" data-name="Layer 1"> <g id="Your_Icon" data-name="Your Icon"> <path d="M3.343,15.614a.479.479,0,0,1-.17-.032,1.281,1.281,0,0,1-.712-.726,1.216,1.216,0,0,1,.17-1.05l.328-.533a.471.471,0,0,1,.256-.2L3.448,13l-.235-.994a.464.464,0,0,1,.058-.356.469.469,0,0,1,.3-.208L4.6,11.214v-.746a.466.466,0,0,1,.061-.23l.716-1.262A2.878,2.878,0,0,1,7.1,4.867a.922.922,0,0,1,.561-.057.467.467,0,0,1-.229.906,2.131,2.131,0,0,0-1.17.892,1.954,1.954,0,0,0,.04,2.1A.465.465,0,0,1,6.32,9.2l-.789,1.392,0,1a.466.466,0,0,1-.367.456l-.932.205.227.954a.467.467,0,0,1-.312.552l-.481.154-.238.385a.382.382,0,0,0-.081.261.225.225,0,0,0,.071.092l.892-.212L7.184,9.766a.469.469,0,0,1,.462-.218,1.929,1.929,0,0,0,1.586-.495h0a.787.787,0,0,0,.14-.275.467.467,0,0,1,.9.237,1.656,1.656,0,0,1-.4.712A2.925,2.925,0,0,1,7.83,10.5L5,15.093a.465.465,0,0,1-.29.209l-1.262.3A.437.437,0,0,1,3.343,15.614Z"></path> <path d="M5.486,8.135a.475.475,0,0,1-.128-.017,5.79,5.79,0,0,1-.733-.274A4.108,4.108,0,0,1,2.631,2.385a4.112,4.112,0,1,1,7.46,3.462.467.467,0,1,1-.846-.394A3.178,3.178,0,1,0,3.478,2.779,3.176,3.176,0,0,0,5.023,7a4.7,4.7,0,0,0,.591.22.467.467,0,0,1-.128.916Z"></path> <path d="M12.95,15.971a1.23,1.23,0,0,1-1.157-.912l-.236-.648a.472.472,0,0,1,0-.327l.114-.3-1.068-.5a.467.467,0,0,1-.221-.629l.534-1.084-.677-.539a.444.444,0,0,1-.143-.192L9.492,9.324a3.134,3.134,0,0,1-.517-6.033,3.109,3.109,0,0,1,1.062-.186,3.134,3.134,0,0,1,2.376,5.18l2.035,5.644a.465.465,0,0,1-.017.357l-.61,1.3a.456.456,0,0,1-.19.206A1.459,1.459,0,0,1,12.95,15.971ZM12.5,14.255l.177.487c.106.295.227.295.279.295a.434.434,0,0,0,.1-.014l.45-.959L11.437,8.331a.466.466,0,0,1,.117-.5,2.2,2.2,0,1,0-1.691.6.465.465,0,0,1,.395.292l.663,1.658.874.7a.467.467,0,0,1,.128.572l-.489.993,1.029.484a.466.466,0,0,1,.238.59Z"></path> <path d="M9.765,6.37a.834.834,0,0,1-.287-1.617.854.854,0,0,1,1.07.5.823.823,0,0,1-.029.631.83.83,0,0,1-.754.482Zm0-.935a.1.1,0,0,0-.031.005.108.108,0,0,0-.062.054.106.106,0,0,0,0,.08.1.1,0,0,0,.093.063c.089-.025.115-.082.1-.136A.1.1,0,0,0,9.765,5.435Z"></path> </g> </g>
</symbol>

<symbol id="location" viewBox="0 0 16 16">
  <title>location</title><g id="Layer_1" data-name="Layer 1"> <path d="M13.209,3.462a5.609,5.609,0,0,0-3-3.021A5.5,5.5,0,0,0,8.01,0a5.569,5.569,0,0,0-2.2.441,5.636,5.636,0,0,0-3.02,3.021,5.572,5.572,0,0,0-.442,2.209A5,5,0,0,0,2.6,7.253a6.91,6.91,0,0,0,.656,1.435L7.07,15.33A1.108,1.108,0,0,0,8,16.01a1.151,1.151,0,0,0,.95-.68l3.8-6.624a6.935,6.935,0,0,0,.656-1.437,5.168,5.168,0,0,0,.245-1.6A5.572,5.572,0,0,0,13.209,3.462ZM8,8.481A2.831,2.831,0,1,1,10.831,5.65,2.83,2.83,0,0,1,8,8.481Z"></path> </g>
</symbol>

<symbol id="mailchimp" viewBox="0 0 16 16">
  <title>mailchimp</title><g id="Layer_1" data-name="Layer 1"><path d="M6.288,7.5a.377.377,0,0,0-.337.254c-.024.056-.031.1-.051.1s-.009-.038-.032-.123A.306.306,0,0,0,5.549,7.5a.377.377,0,0,0-.335.27c-.028.065-.028.083-.05.083s-.006-.051.009-.112a.526.526,0,0,0,.006-.212H4.853l0,1.226H5.3l0-.61c0-.121.05-.273.136-.274s.12.077.12.218l0,.665H6l0-.61c0-.107.043-.273.137-.273s.119.107.119.218l0,.664H6.7l0-.721C6.7,7.707,6.583,7.494,6.288,7.5Z"></path><path d="M13.842,7.476a.377.377,0,0,0-.337.255c-.025.055-.031.1-.051.1s-.01-.048-.032-.122a.3.3,0,0,0-.319-.23.379.379,0,0,0-.335.27c-.028.066-.028.084-.05.084s-.006-.052.009-.113a.526.526,0,0,0,.006-.212h-.326l0,1.226h.445l0-.61c0-.12.05-.273.136-.273s.12.076.12.218l0,.665h.447l0-.611c0-.107.043-.273.137-.273s.119.107.119.218l0,.665h.439l0-.721C14.25,7.689,14.137,7.476,13.842,7.476Z"></path><path d="M7.456,7.492a1.408,1.408,0,0,0-.586.127v.369a1.223,1.223,0,0,1,.489-.157c.175,0,.2.094.189.172a.973.973,0,0,0-.2-.013c-.363,0-.546.167-.545.431a.355.355,0,0,0,.38.355.418.418,0,0,0,.4-.252c.023-.056.028-.094.049-.094s.016.027.015.083a.87.87,0,0,0,.019.233H8v-.6C7.994,7.765,7.86,7.491,7.456,7.492ZM7.35,8.46c-.107.025-.162-.008-.162-.078,0-.1.1-.136.242-.136.063,0,.122,0,.122,0A.316.316,0,0,1,7.35,8.46Z"></path><rect x="8.727" y="7.145" width="0.445" height="1.597" transform="translate(-0.019 0.022) rotate(-0.141)"></rect><path d="M9.663,8.128c0-.11.1-.211.289-.211a.813.813,0,0,1,.407.12V7.611a.667.667,0,0,0-.45-.125.577.577,0,0,0-.617.624.594.594,0,0,0,.619.659.7.7,0,0,0,.451-.157v-.4a.77.77,0,0,1-.4.134C9.74,8.342,9.663,8.243,9.663,8.128Z"></path><path d="M11.26,7.483a.427.427,0,0,0-.375.287c-.02.043-.03.067-.046.067s-.008-.052,0-.085a1.413,1.413,0,0,0,.064-.429.545.545,0,0,0-.019-.182H10.5l0,1.6h.445l0-.61c0-.1.039-.273.151-.273.093,0,.123.068.123.207l0,.675h.445l0-.649C11.667,7.773,11.614,7.482,11.26,7.483Z"></path><path d="M11.811,7.511l0,1.225h.445l0-1.225a.465.465,0,0,1-.222.044A.47.47,0,0,1,11.811,7.511Z"></path><ellipse cx="12.032" cy="7.303" rx="0.272" ry="0.178" transform="translate(-0.018 0.03) rotate(-0.141)"></ellipse><path d="M8.137,7.52l0,1.225h.445l0-1.225a.578.578,0,0,1-.445,0Z"></path><ellipse cx="8.358" cy="7.312" rx="0.272" ry="0.178" transform="translate(-0.018 0.021) rotate(-0.141)"></ellipse><path d="M15.134,7.473a.419.419,0,0,0-.379.27c-.03.065-.028.084-.05.084s-.005-.052.009-.113A.505.505,0,0,0,14.72,7.5h-.326l0,1.565h.445v-.5a.347.347,0,0,0,.3.184c.321,0,.483-.274.482-.642C15.624,7.7,15.429,7.472,15.134,7.473Zm-.12.992c-.1,0-.177-.129-.178-.31s.077-.31.173-.31c.124,0,.177.113.178.309S15.139,8.464,15.014,8.465Z"></path><path d="M3.281,7.873a.347.347,0,0,1,.085,0,.287.287,0,0,0,0-.16c-.021-.1-.048-.157-.1-.148s-.059.08-.039.178A.333.333,0,0,0,3.281,7.873Z"></path><path d="M2.792,7.951c.041.018.066.03.076.019s0-.019-.006-.034a.238.238,0,0,0-.1-.085.288.288,0,0,0-.28.034c-.027.02-.053.048-.049.065s0,.009.015.011a1.6,1.6,0,0,1,.191-.044A.333.333,0,0,1,2.792,7.951Z"></path><path d="M2.71,8a.191.191,0,0,0-.1.043.065.065,0,0,0-.026.04.013.013,0,0,0,0,.01l.009,0a.161.161,0,0,0,.039-.011.35.35,0,0,1,.171-.018c.027,0,.039.005.045,0s0-.008,0-.017A.153.153,0,0,0,2.71,8Z"></path><path d="M3.117,8.169a.063.063,0,0,0,.088-.016c.013-.026-.006-.062-.042-.079a.064.064,0,0,0-.088.015C3.062,8.116,3.081,8.151,3.117,8.169Z"></path><path d="M3.348,7.966c-.029,0-.053.032-.054.072s.023.073.052.073.054-.032.054-.072S3.378,7.966,3.348,7.966Z"></path><path d="M1.381,8.7c-.007-.009-.019-.006-.031,0a.11.11,0,0,1-.027,0,.06.06,0,0,1-.05-.026.09.09,0,0,1,0-.086l.007-.015A.259.259,0,0,0,1.3,8.343a.2.2,0,0,0-.153-.11.194.194,0,0,0-.168.061.239.239,0,0,0-.062.2c.005.013.012.016.017.017s.027-.007.037-.034l0-.009A.264.264,0,0,1,1,8.408a.112.112,0,0,1,.073-.051.117.117,0,0,1,.09.016.115.115,0,0,1,.044.139.315.315,0,0,0-.022.123.122.122,0,0,0,.109.126.1.1,0,0,0,.088-.044A.019.019,0,0,0,1.381,8.7Z"></path><path d="M4.089,8.529c0-.006-.013-.049-.029-.1s-.033-.087-.033-.087a.314.314,0,0,0,.056-.231A.3.3,0,0,0,4,7.946.7.7,0,0,0,3.7,7.8l-.076-.021s0-.18-.008-.256A.884.884,0,0,0,3.579,7.3a.6.6,0,0,0-.156-.278.938.938,0,0,0,.307-.6c0-.357-.441-.465-.982-.239l-.115.049-.211-.206C1.8,5.486-.123,7.637.5,8.157l.135.114A.664.664,0,0,0,.6,8.577.6.6,0,0,0,.8,8.964a.633.633,0,0,0,.409.163,1.566,1.566,0,0,0,1.435.909,1.511,1.511,0,0,0,1.51-.889,1.222,1.222,0,0,0,.083-.388C4.24,8.6,4.148,8.529,4.089,8.529Zm-2.823.443a.344.344,0,0,1-.064,0,.5.5,0,0,1-.457-.415.411.411,0,0,1,.322-.481.45.45,0,0,1,.094-.007.4.4,0,0,1,.351.374C1.55,8.687,1.491,8.933,1.266,8.972ZM1.03,7.933A.532.532,0,0,0,.7,8.148a.9.9,0,0,1-.142-.137c-.12-.226.128-.667.3-.916.429-.615,1.1-1.082,1.414-1a1.253,1.253,0,0,1,.22.209,4.4,4.4,0,0,0-.6.416A2.736,2.736,0,0,0,1.03,7.933Zm2.191.942a.011.011,0,0,0,.007-.012.011.011,0,0,0-.012-.011,1.466,1.466,0,0,1-.636-.063c.034-.109.123-.07.258-.059a1.875,1.875,0,0,0,.623-.069,1.429,1.429,0,0,0,.465-.233.921.921,0,0,1,.066.222.106.106,0,0,1,.068.012c.03.018.051.056.037.153a.845.845,0,0,1-.236.465.976.976,0,0,1-.284.213,1.106,1.106,0,0,1-.186.079.914.914,0,0,1-1.152-.39.522.522,0,0,1-.032-.089.781.781,0,0,1,.17-.735h0A.068.068,0,0,0,2.4,8.314a.08.08,0,0,0-.018-.041.677.677,0,0,1-.242-.555.416.416,0,0,1,.4-.366l.045,0c.078,0,.145.015.209.017a.421.421,0,0,0,.317-.106A.245.245,0,0,1,3.234,7.2a.144.144,0,0,1,.046,0,.156.156,0,0,1,.078.025c.091.06.1.207.11.315,0,.061.01.21.013.252.006.1.032.112.083.128.03.01.057.017.1.028a.547.547,0,0,1,.237.112.152.152,0,0,1,.044.085c.014.1-.08.232-.331.349a1.676,1.676,0,0,1-.837.137l-.081-.009c-.184-.025-.289.213-.178.376a.586.586,0,0,0,.46.172,1.207,1.207,0,0,0,.913-.356l.01-.014c.006-.01,0-.015-.007-.01a1.567,1.567,0,0,1-1.058.271.633.633,0,0,1-.115-.03c-.044-.017-.135-.059-.146-.152A.963.963,0,0,0,3.221,8.875ZM2.59,8.8ZM1.823,7.09a1.828,1.828,0,0,1,.51-.418.007.007,0,0,1,.009.009.45.45,0,0,0-.048.116.007.007,0,0,0,.011.007.988.988,0,0,1,.448-.159.007.007,0,0,1,0,.012.393.393,0,0,0-.07.071.007.007,0,0,0,.005.011.892.892,0,0,1,.375.1c.007,0,0,.018-.006.016a1.536,1.536,0,0,0-.678,0,1.578,1.578,0,0,0-.55.245A.007.007,0,0,1,1.823,7.09Z"></path></g>
</symbol>

<symbol id="more-c" viewBox="0 0 16 16">
  <title>more-c</title><g id="Layer_1" data-name="Layer 1"> <g> <path d="M8,.111A7.889,7.889,0,1,0,15.889,8,7.9,7.9,0,0,0,8,.111ZM8,14.675A6.675,6.675,0,1,1,14.675,8,6.682,6.682,0,0,1,8,14.675Z"></path> <path d="M4.359,6.787A1.214,1.214,0,1,0,5.573,8,1.214,1.214,0,0,0,4.359,6.787Z"></path> <path d="M11.641,6.787A1.214,1.214,0,1,0,12.855,8,1.214,1.214,0,0,0,11.641,6.787Z"></path> <path d="M8,6.787A1.214,1.214,0,1,0,9.214,8,1.214,1.214,0,0,0,8,6.787Z"></path> </g> </g>
</symbol>

<symbol id="no-results" viewBox="0 0 16 16">
  <title>no-results</title><g id="Layer_1" data-name="Layer 1"> <g> <path d="M15.5,12.6,11.347,9.97A5.543,5.543,0,0,0,1.655,4.634a5.546,5.546,0,0,0,4.67,8.514,5.589,5.589,0,0,0,1.222-.136,5.509,5.509,0,0,0,2.853-1.64l4.194,2.659ZM4.273,10.856A3.856,3.856,0,1,1,9.7,9.471l-.235.371A3.854,3.854,0,0,1,4.273,10.856Z"></path> <polygon points="7.576 5.212 6.398 6.389 5.22 5.212 4.024 6.407 5.202 7.585 4.024 8.763 5.22 9.959 6.398 8.781 7.576 9.959 8.771 8.763 7.594 7.585 8.771 6.407 7.576 5.212"></polygon> </g> </g>
</symbol>

<symbol id="organization-3" viewBox="0 0 16 16">
  <title>organization-3</title><g id="Layer_1" data-name="Layer 1"> <path d="M14.777,12.04V10.083a2.858,2.858,0,0,0-2.941-2.94h-1.7c-1.2,0-1.315-.59-1.321-.895V3.865a2.046,2.046,0,1,0-1.619,0V6.248c0,.221-.064.895-1.321.895h-1.7a2.858,2.858,0,0,0-2.941,2.94V12.04a2.045,2.045,0,1,0,1.62,0V10.083A1.243,1.243,0,0,1,4.167,8.762h1.7a3.858,3.858,0,0,0,1.321-.211V12.04a2.046,2.046,0,1,0,1.619,0V8.551a3.858,3.858,0,0,0,1.321.211h1.7a1.246,1.246,0,0,1,1.321,1.321V12.04a2.045,2.045,0,1,0,1.62,0ZM3.216,13.918a1.18,1.18,0,1,1-1.18-1.18A1.18,1.18,0,0,1,3.216,13.918ZM6.822,1.987A1.18,1.18,0,1,1,8,3.167,1.18,1.18,0,0,1,6.822,1.987ZM9.181,13.918A1.18,1.18,0,1,1,8,12.738,1.18,1.18,0,0,1,9.181,13.918Zm4.786,1.18a1.18,1.18,0,1,1,1.18-1.18A1.18,1.18,0,0,1,13.967,15.1Z"></path> </g>
</symbol>

<symbol id="organization_2" viewBox="0 0 16 16">
  <title>organization_2</title><g id="Layer_1" data-name="Layer 1"> <path d="M14.563,11.54V9.85a2.716,2.716,0,0,0-2.714-2.713H9.058V4.749h3.309V.509H4.047v4.24H7.558V7.137H4.767A2.716,2.716,0,0,0,2.053,9.85v1.69H.388v4.239H4.627V11.54H3.553V9.85A1.214,1.214,0,0,1,4.767,8.637H7.558v2.9H6.087v4.239h4.239V11.54H9.058v-2.9h2.791A1.215,1.215,0,0,1,13.063,9.85v1.69H11.786v4.239h4.24V11.54ZM5.3,1.759h5.82V3.5H5.3Zm-1.92,12.77H1.638V12.79H3.377Zm5.7,0H7.337V12.79H9.076Zm5.7,0h-1.74V12.79h1.74Z"></path> </g>
</symbol>

<symbol id="payments" viewBox="0 0 16 16">
  <title>payments</title><g id="Layer_1" data-name="Layer 1"> <path d="M0,12.712a.893.893,0,0,0,.892.893h14.2a.893.893,0,0,0,.892-.893V7.01H0ZM11.541,9.141H14.3V11.9H11.541ZM15.09,2.519H.892A.893.893,0,0,0,0,3.411V4.745H15.982V3.411A.893.893,0,0,0,15.09,2.519Z"></path> </g>
</symbol>

<symbol id="pco-logo-stack" viewBox="0 0 16 16">
  <title>pco-logo-stack</title><g id="Layer_1" data-name="Layer 1"> <g> <path d="M12.485,7.88V2.319A1.712,1.712,0,0,0,10.773.606H4.939A1.712,1.712,0,0,0,3.227,2.319V7.88A1.712,1.712,0,0,0,4.939,9.593h5.834A1.712,1.712,0,0,0,12.485,7.88Zm-.925,0a.788.788,0,0,1-.787.787H4.939a.789.789,0,0,1-.788-.787V2.319a.789.789,0,0,1,.788-.788H6.082v.354a.19.19,0,0,0,.19.19H9.433a.191.191,0,0,0,.191-.19V1.531h1.149a.788.788,0,0,1,.787.788Z"></path> <path d="M9.9,4.489l-.276-.482A.24.24,0,0,0,9.3,3.921l-.931.529V3.38a.239.239,0,0,0-.216-.253H7.6a.248.248,0,0,0-.227.253V4.433L6.466,3.88a.232.232,0,0,0-.319.077l-.29.473a.232.232,0,0,0,.076.319l.94.575-.945.541a.23.23,0,0,0-.086.316l.276.482a.24.24,0,0,0,.323.085l.931-.529V7.29a.212.212,0,0,0,.216.223h.556a.221.221,0,0,0,.227-.223V6.237l.906.553A.233.233,0,0,0,9.6,6.713l.29-.473a.231.231,0,0,0-.076-.318l-.94-.576.946-.541A.231.231,0,0,0,9.9,4.489Z" fill-rule="evenodd"></path> </g> <g> <g> <path d="M2.277,14.076a.031.031,0,0,1-.033-.033V11.871a.031.031,0,0,1,.033-.034h.312a.031.031,0,0,1,.033.034v.122h0a.491.491,0,0,1,.433-.193.548.548,0,0,1,.565.392,1.375,1.375,0,0,1,.057.46,1.375,1.375,0,0,1-.057.46.548.548,0,0,1-.565.393.491.491,0,0,1-.433-.193h0v.731a.031.031,0,0,1-.033.033Zm.985-1.119a.987.987,0,0,0,.034-.305.975.975,0,0,0-.034-.3.291.291,0,0,0-.3-.21.293.293,0,0,0-.3.21.975.975,0,0,0-.034.3.987.987,0,0,0,.034.305.293.293,0,0,0,.3.209A.292.292,0,0,0,3.262,12.957Z"></path> <path d="M4.358,13.488c-.318,0-.447-.152-.447-.467V11.2a.033.033,0,0,1,.034-.034h.312a.032.032,0,0,1,.033.034V13c0,.111.044.149.142.149h.075a.032.032,0,0,1,.034.033v.271a.033.033,0,0,1-.034.034Z"></path> <path d="M5.7,13.468a.032.032,0,0,1-.033-.034v-.119h0a.53.53,0,0,1-.46.19.488.488,0,0,1-.548-.5c0-.355.25-.517.653-.517h.332a.018.018,0,0,0,.02-.021v-.077c0-.186-.088-.271-.362-.271a.57.57,0,0,0-.372.112.031.031,0,0,1-.048-.007L4.757,12a.031.031,0,0,1,.007-.044.95.95,0,0,1,.579-.159c.5,0,.68.169.68.568v1.066a.033.033,0,0,1-.034.034Zm-.04-.549v-.125a.018.018,0,0,0-.02-.02H5.373c-.244,0-.352.068-.352.22,0,.135.1.2.281.2C5.535,13.2,5.664,13.105,5.664,12.919Z"></path> <path d="M7.366,13.468a.032.032,0,0,1-.034-.034v-.941c0-.21-.1-.355-.308-.355a.313.313,0,0,0-.311.355v.941a.033.033,0,0,1-.034.034H6.368a.032.032,0,0,1-.034-.034V11.871a.032.032,0,0,1,.034-.034h.311a.032.032,0,0,1,.034.034v.118h0a.505.505,0,0,1,.43-.189.557.557,0,0,1,.565.6v1.029a.033.033,0,0,1-.034.034Z"></path> <path d="M9.051,13.468a.032.032,0,0,1-.034-.034v-.941c0-.21-.1-.355-.308-.355a.313.313,0,0,0-.311.355v.941a.033.033,0,0,1-.034.034H8.053a.032.032,0,0,1-.034-.034V11.871a.032.032,0,0,1,.034-.034h.311a.032.032,0,0,1,.034.034v.118h0a.505.505,0,0,1,.43-.189.557.557,0,0,1,.565.6v1.029a.033.033,0,0,1-.034.034Z"></path> <path d="M9.737,11.529A.031.031,0,0,1,9.7,11.5V11.2a.032.032,0,0,1,.033-.034h.312a.032.032,0,0,1,.033.034V11.5a.031.031,0,0,1-.033.034Zm0,1.939a.032.032,0,0,1-.033-.034V11.871a.031.031,0,0,1,.033-.034h.312a.031.031,0,0,1,.033.034v1.563a.032.032,0,0,1-.033.034Z"></path> <path d="M11.439,13.468a.033.033,0,0,1-.034-.034v-.941c0-.21-.1-.355-.308-.355a.313.313,0,0,0-.311.355v.941a.032.032,0,0,1-.034.034h-.311a.033.033,0,0,1-.034-.034V11.871a.032.032,0,0,1,.034-.034h.311a.032.032,0,0,1,.034.034v.118h0a.5.5,0,0,1,.429-.189.556.556,0,0,1,.565.6v1.029a.032.032,0,0,1-.034.034Z"></path> <path d="M12.058,13.87a.03.03,0,0,1,0-.047l.2-.2a.032.032,0,0,1,.051,0,.5.5,0,0,0,.355.152c.251,0,.366-.135.366-.389v-.152h0a.47.47,0,0,1-.423.19.544.544,0,0,1-.554-.4A1.23,1.23,0,0,1,12,12.612a1.208,1.208,0,0,1,.055-.413.542.542,0,0,1,.554-.4.463.463,0,0,1,.423.193h0v-.122a.031.031,0,0,1,.033-.034h.312a.031.031,0,0,1,.033.034v1.495a.683.683,0,0,1-.761.748A.807.807,0,0,1,12.058,13.87ZM13,12.879a.762.762,0,0,0,.038-.267A.787.787,0,0,0,13,12.344a.306.306,0,0,0-.578,0,.789.789,0,0,0-.037.268.764.764,0,0,0,.037.267.3.3,0,0,0,.578,0Z"></path> </g> <g> <path d="M3.523,15.518a1.614,1.614,0,0,1,0-.805.657.657,0,0,1,.673-.45.708.708,0,0,1,.565.254.032.032,0,0,1,0,.047l-.213.186a.03.03,0,0,1-.047-.007.372.372,0,0,0-.3-.142.3.3,0,0,0-.3.214.955.955,0,0,0-.034.3.979.979,0,0,0,.034.3.3.3,0,0,0,.3.21.372.372,0,0,0,.3-.142.03.03,0,0,1,.047,0l.213.186c.017.014.014.031,0,.048a.717.717,0,0,1-.565.25A.657.657,0,0,1,3.523,15.518Z"></path> <path d="M4.968,15.515a1.258,1.258,0,0,1-.058-.4,1.325,1.325,0,0,1,.054-.4.658.658,0,0,1,.667-.45.662.662,0,0,1,.67.45,1.47,1.47,0,0,1,.054.491.033.033,0,0,1-.037.033h-1c-.014,0-.02.007-.02.021a.371.371,0,0,0,.023.125.357.357,0,0,0,.366.247.492.492,0,0,0,.382-.156.035.035,0,0,1,.051-.007l.2.176a.031.031,0,0,1,0,.048.861.861,0,0,1-.67.277A.66.66,0,0,1,4.968,15.515Zm.984-.721a.348.348,0,0,0-.639,0,.408.408,0,0,0-.02.139.018.018,0,0,0,.02.02h.639a.018.018,0,0,0,.021-.02A.407.407,0,0,0,5.952,14.794Z"></path> <path d="M7.624,15.931A.032.032,0,0,1,7.59,15.9v-.941c0-.209-.1-.355-.308-.355a.314.314,0,0,0-.311.355V15.9a.032.032,0,0,1-.034.034H6.626a.032.032,0,0,1-.034-.034V14.334a.032.032,0,0,1,.034-.034h.311a.033.033,0,0,1,.034.034v.118h0a.505.505,0,0,1,.43-.189.557.557,0,0,1,.565.606V15.9a.032.032,0,0,1-.034.034Z"></path> <path d="M8.754,15.951c-.328,0-.454-.159-.454-.477v-.859c0-.014-.006-.02-.02-.02H8.172a.032.032,0,0,1-.034-.034v-.227a.032.032,0,0,1,.034-.034H8.28a.018.018,0,0,0,.02-.02v-.447a.032.032,0,0,1,.034-.033h.311a.031.031,0,0,1,.034.033v.447a.018.018,0,0,0,.021.02h.216a.033.033,0,0,1,.034.034v.227a.033.033,0,0,1-.034.034H8.7c-.014,0-.021.006-.021.02v.846c0,.115.048.152.152.152h.085a.032.032,0,0,1,.034.034v.271a.032.032,0,0,1-.034.033Z"></path> <path d="M9.163,15.515a1.261,1.261,0,0,1-.057-.4,1.294,1.294,0,0,1,.054-.4.721.721,0,0,1,1.336,0,1.47,1.47,0,0,1,.054.491c0,.02-.013.033-.037.033H9.508a.018.018,0,0,0-.02.021.348.348,0,0,0,.024.125.355.355,0,0,0,.365.247.49.49,0,0,0,.382-.156.035.035,0,0,1,.051-.007l.2.176a.032.032,0,0,1,0,.048.861.861,0,0,1-.67.277A.66.66,0,0,1,9.163,15.515Zm.985-.721a.349.349,0,0,0-.64,0,.434.434,0,0,0-.02.139.018.018,0,0,0,.02.02h.64a.018.018,0,0,0,.02-.02A.434.434,0,0,0,10.148,14.794Z"></path> <path d="M10.821,15.931a.032.032,0,0,1-.034-.034V14.334a.033.033,0,0,1,.034-.034h.311a.033.033,0,0,1,.034.034v.139h0a.469.469,0,0,1,.423-.21.5.5,0,0,1,.342.135c.017.017.02.031.007.048l-.18.226a.03.03,0,0,1-.047.007.442.442,0,0,0-.24-.078c-.213,0-.308.153-.308.413V15.9a.032.032,0,0,1-.034.034Z"></path> </g> </g> </g>
</symbol>

<symbol id="pco-logo-stack2" viewBox="0 0 16 16">
  <title>pco-logo-stack2</title><g id="Layer_1" data-name="Layer 1"> <g> <g> <path d="M1.8,12.289H1.773a.05.05,0,0,1-.05-.05V10.952a.072.072,0,0,0-.07-.07H1.486a.072.072,0,0,0-.07.07V12.4a.2.2,0,0,0,.2.2H1.8a.048.048,0,0,0,.048-.048v-.212A.048.048,0,0,0,1.8,12.289Z"></path> <path d="M2.5,11.368a1.23,1.23,0,0,0-.409.068.067.067,0,0,0-.047.084l.023.109c.013.045.043.066.082.057a1.185,1.185,0,0,1,.324-.052.164.164,0,0,1,.124.037.264.264,0,0,1,.044.187.859.859,0,0,0-.217-.03c-.289,0-.483.158-.483.392a.378.378,0,0,0,.392.406.512.512,0,0,0,.354-.138l.022.059c.013.031.027.05.063.05h.082a.072.072,0,0,0,.07-.07V11.9C2.922,11.621,2.889,11.368,2.5,11.368Zm.138.711v.175a.331.331,0,0,1-.249.136.162.162,0,0,1-.165-.173c0-.109.087-.179.223-.179A.446.446,0,0,1,2.636,12.079Z"></path> <path d="M3.731,11.368a.617.617,0,0,0-.4.153L3.3,11.443a.06.06,0,0,0-.06-.045H3.154a.071.071,0,0,0-.07.069v1.06a.072.072,0,0,0,.07.07h.152c.056,0,.082-.022.082-.07v-.712a.38.38,0,0,1,.31-.164c.148,0,.229.1.229.276v.6A.07.07,0,0,0,4,12.6h.167a.072.072,0,0,0,.07-.07v-.588C4.234,11.576,4.05,11.368,3.731,11.368Z"></path> <path d="M5.074,11.368a.622.622,0,0,0-.4.153l-.027-.078a.061.061,0,0,0-.061-.045H4.5a.07.07,0,0,0-.069.069v1.06a.071.071,0,0,0,.069.07H4.65c.055,0,.081-.022.081-.07v-.712a.384.384,0,0,1,.311-.164c.148,0,.229.1.229.276v.6a.07.07,0,0,0,.07.07h.167a.071.071,0,0,0,.069-.07v-.588C5.577,11.576,5.394,11.368,5.074,11.368Z"></path> <path d="M5.936,10.853a.186.186,0,0,0,0,.371.186.186,0,1,0,0-.371Z"></path> <rect x="5.787" y="11.398" width="0.306" height="1.2" rx="0.07" ry="0.07"></rect> <path d="M6.957,11.368a.616.616,0,0,0-.4.153l-.028-.078a.061.061,0,0,0-.06-.045H6.381a.071.071,0,0,0-.07.069v1.06a.072.072,0,0,0,.07.07h.152c.055,0,.081-.022.081-.07v-.712a.384.384,0,0,1,.311-.164c.148,0,.229.1.229.276v.6a.07.07,0,0,0,.07.07h.167a.072.072,0,0,0,.07-.07v-.588C7.461,11.576,7.277,11.368,6.957,11.368Z"></path> <path d="M10.3,12.209h0a.068.068,0,0,0-.1.006l-.018.018a.309.309,0,0,1-.244.113.348.348,0,0,1,0-.7.313.313,0,0,1,.225.108l.005,0c.021.019.05.045.092.007l.1-.088a.074.074,0,0,0,.029-.047.07.07,0,0,0-.015-.055.531.531,0,0,0-.435-.213A.639.639,0,0,0,9.311,12a.626.626,0,0,0,.626.626.529.529,0,0,0,.465-.252.071.071,0,0,0-.023-.1Z"></path> <path d="M11.051,11.368a.63.63,0,0,0,0,1.258.7.7,0,0,0,.442-.149.07.07,0,0,0,.029-.047.074.074,0,0,0-.021-.049l-.082-.111c-.032-.04-.062-.022-.1,0a.491.491,0,0,1-.253.082.325.325,0,0,1-.321-.285h.781a.069.069,0,0,0,.067-.062.754.754,0,0,0,.006-.081A.542.542,0,0,0,11.051,11.368Zm0,.254a.264.264,0,0,1,.254.232h-.537A.283.283,0,0,1,11.048,11.622Z"></path> <path d="M12.414,11.368a.617.617,0,0,0-.4.153l-.028-.078a.061.061,0,0,0-.06-.045h-.085a.071.071,0,0,0-.07.069v1.06a.072.072,0,0,0,.07.07h.152c.056,0,.082-.022.082-.07v-.712a.378.378,0,0,1,.31-.164c.148,0,.229.1.229.276v.6a.07.07,0,0,0,.07.07h.167a.072.072,0,0,0,.07-.07v-.588C12.917,11.576,12.733,11.368,12.414,11.368Z"></path> <path d="M13.785,12.32h0a.065.065,0,0,0-.036-.039.063.063,0,0,0-.051,0,.445.445,0,0,1-.172.052c-.044,0-.08-.008-.08-.1v-.565h.285a.071.071,0,0,0,.07-.07v-.132a.068.068,0,0,0-.07-.069h-.285V11.04a.069.069,0,0,0-.067-.07l-.166,0a.072.072,0,0,0-.07.07V11.4h-.109a.068.068,0,0,0-.07.069V11.6a.07.07,0,0,0,.07.07h.109v.595c0,.155.032.362.313.362a.922.922,0,0,0,.349-.089.063.063,0,0,0,.033-.088Z"></path> <path d="M14.461,11.368a.63.63,0,0,0,0,1.258.7.7,0,0,0,.443-.149.06.06,0,0,0,.008-.1l-.083-.111c-.031-.039-.063-.021-.1,0a.5.5,0,0,1-.253.082.326.326,0,0,1-.322-.285h.781a.067.067,0,0,0,.067-.062.7.7,0,0,0,.006-.081A.542.542,0,0,0,14.461,11.368Zm.251.486h-.536a.282.282,0,0,1,.282-.232A.262.262,0,0,1,14.712,11.854Z"></path> <path d="M15.935,11.434c-.033-.049-.136-.066-.222-.066a.439.439,0,0,0-.338.154l-.023-.073a.07.07,0,0,0-.064-.051H15.2a.071.071,0,0,0-.07.069v1.06a.072.072,0,0,0,.07.07h.141c.035,0,.093,0,.093-.07v-.739a.3.3,0,0,1,.249-.134.257.257,0,0,1,.094.019.063.063,0,0,0,.089-.033l.071-.144A.065.065,0,0,0,15.935,11.434Z"></path> <path d="M8.76,11.4H8.644a.054.054,0,0,0-.053.039l0,0-.013.083a.542.542,0,0,0-.391-.157A.68.68,0,0,0,8.2,12.719a.672.672,0,0,0,.309-.081l0,.019a.27.27,0,0,1-.078.216.409.409,0,0,1-.319.117.585.585,0,0,1-.28-.088.055.055,0,0,0-.075.02l-.064.126a.055.055,0,0,0,.016.072.879.879,0,0,0,.465.153h.017a.589.589,0,0,0,.631-.571v-1.24A.064.064,0,0,0,8.76,11.4Zm-.31.991a.486.486,0,0,1-.214.051.355.355,0,0,1-.344-.395c0-.238.133-.4.331-.4A.336.336,0,0,1,8.5,11.8a.123.123,0,0,1,.02.068v.414A.123.123,0,0,1,8.45,12.391Z"></path> <path d="M.7,11.3a.539.539,0,0,0-.392.158L.3,11.378v0a.056.056,0,0,0-.054-.039H.125a.063.063,0,0,0-.061.062v1.743a.071.071,0,0,0,.069.07H.3a.068.068,0,0,0,.076-.07v-.569a.638.638,0,0,0,.308.083A.68.68,0,0,0,.7,11.3Zm-.334.5a.123.123,0,0,1,.02-.068.333.333,0,0,1,.275-.149c.2,0,.332.161.332.4a.356.356,0,0,1-.345.395.49.49,0,0,1-.214-.051.124.124,0,0,1-.068-.112Z"></path> </g> <g> <path d="M8.983,5.864,8.25,6.1a.822.822,0,0,1-.486,0l-.739-.222a.062.062,0,0,0-.08.06v.9a.061.061,0,0,0,.044.059l.9.271a.367.367,0,0,0,.22,0l.91-.29a.062.062,0,0,0,.043-.059V5.923A.062.062,0,0,0,8.983,5.864Z"></path> <path d="M10.487,3.937,8.53,3.355a1.843,1.843,0,0,0-1.051,0l-1.957.582a1.055,1.055,0,0,0-.739,1.007V8.121a1.056,1.056,0,0,0,.739,1.007l1.957.582a1.843,1.843,0,0,0,1.051,0l1.957-.582a1.056,1.056,0,0,0,.739-1.007V4.944A1.055,1.055,0,0,0,10.487,3.937Zm-.77,3.081a.463.463,0,0,1-.33.444L8.243,7.8a.83.83,0,0,1-.471,0L7,7.572a.044.044,0,0,0-.056.042v.521a.165.165,0,0,1-.212.158L6.41,8.2a.165.165,0,0,1-.118-.158V5.617a.463.463,0,0,1,.593-.444l1.007.3a.37.37,0,0,0,.216,0l1.007-.315a.463.463,0,0,1,.6.442Z"></path> </g> </g> </g>
</symbol>

<symbol id="people" viewBox="0 0 16 16">
  <title>people</title><g id="Layer_1" data-name="Layer 1"> <path d="M16,14.8a22.683,22.683,0,0,0-.217-3.343c-.275-.468-.917-.789-2.107-1.287S12.11,9.256,12.11,8.36c0-.538.362-.362.522-1.347.066-.409.386-.007.447-.939,0-.372-.175-.464-.175-.464s.089-.55.123-.973a1.78,1.78,0,0,0-1.913-1.89A1.78,1.78,0,0,0,9.2,4.637c.035.424.123.973.123.973s-.173.092-.173.464c.061.933.381.531.447.939.159.985.522.809.522,1.347A1.448,1.448,0,0,1,9.458,9.7c2.593,1.3,2.94,1.562,2.94,2.722V14.8Zm-7.821-4.18C6.6,9.96,6.091,9.4,6.091,8.207c0-.717.483-.483.695-1.8.088-.545.515-.009.6-1.253,0-.5-.233-.619-.233-.619s.118-.733.165-1.3A2.373,2.373,0,0,0,4.763.721a2.373,2.373,0,0,0-2.55,2.521c.046.565.164,1.3.164,1.3s-.232.123-.232.619c.082,1.243.508.707.6,1.252.212,1.313.695,1.079.695,1.8,0,1.194-.506,1.752-2.088,2.414C.866,10.823,0,11.135,0,11.886V14.8H11.115V12.616C11.115,11.93,9.766,11.285,8.179,10.621Z"></path> </g>
</symbol>

<symbol id="phone" viewBox="0 0 16 16">
  <title>phone</title><g id="Layer_1" data-name="Layer 1"> <path d="M1.951,5.838A26.79,26.79,0,0,0,9.04,14.453l1.081.86a1.755,1.755,0,0,0,2.216-.023h0l1.892-1.57.308-.255a1.3,1.3,0,0,0,.173-1.832L13.258,9.868a1.292,1.292,0,0,0-1.824-.174L9.6,11.213A26.769,26.769,0,0,1,5.226,5.892l1.83-1.518a1.306,1.306,0,0,0,.173-1.833L5.777.777A1.293,1.293,0,0,0,3.953.6L3.645.858,1.753,2.428h0a1.775,1.775,0,0,0-.44,2.182Z"></path> </g>
</symbol>

<symbol id="photo" viewBox="0 0 16 16">
  <title>photo</title><g id="Layer_1" data-name="Layer 1"> <path d="M14.72.607H1.28a1.306,1.306,0,0,0-1.307,1.3V14.091a1.306,1.306,0,0,0,1.307,1.3H14.72a1.306,1.306,0,0,0,1.307-1.3V1.909A1.306,1.306,0,0,0,14.72.607Zm.3,13.484a.3.3,0,0,1-.3.3H1.28a.3.3,0,0,1-.3-.3V11.557L5.044,7.949l4.026,4.01a.477.477,0,0,0,.366.147.506.506,0,0,0,.36-.16L12.29,9.267l2.73,2.766Zm0-3.489L12.638,8.189a.522.522,0,0,0-.366-.15.505.505,0,0,0-.362.161l-2.5,2.682L5.419,6.905a.506.506,0,0,0-.691-.02L.98,10.213v-8.3a.3.3,0,0,1,.3-.3H14.72a.3.3,0,0,1,.3.3ZM9.367,2.491A2.121,2.121,0,1,0,11.5,4.611,2.127,2.127,0,0,0,9.367,2.491Zm0,3.238a1.118,1.118,0,1,1,1.122-1.118A1.122,1.122,0,0,1,9.367,5.729Z"></path> </g>
</symbol>

<symbol id="pico" viewBox="0 0 16 16">
  <title>pico</title><g id="Layer_1" data-name="Layer 1"> <path d="M13.551,7.481l-.114-.1a2.263,2.263,0,0,0-1.311-1.57.379.379,0,0,0-.049-.021l-.042-.017a9.525,9.525,0,0,0-2.616-.577h0a1.938,1.938,0,0,0-1.1-.491V4.187a.992.992,0,1,0-.809,0V4.7a1.94,1.94,0,0,0-1.119.511l-.018.019A10.1,10.1,0,0,0,4,5.769l-.057.023-.038.014-.007,0a2.292,2.292,0,0,0-1.32,1.551l-.113.094a1.751,1.751,0,0,0-.563,1.352,1.44,1.44,0,0,0,.587,1.253l.067.044a1.418,1.418,0,0,0,1.117,1.5l.02,0h0l.032.008a21.081,21.081,0,0,0,4.134.44h.242a19.478,19.478,0,0,0,4.144-.442l.022-.006h0l.021,0a1.441,1.441,0,0,0,1.129-1.508l.069-.046A1.452,1.452,0,0,0,14.074,8.8,1.775,1.775,0,0,0,13.551,7.481Zm-.861,2.692c-.009.538-.167.616-.426.682a14.885,14.885,0,0,1-4.15.474H7.867A12.112,12.112,0,0,1,3.8,10.89a.622.622,0,0,1-.5-.639L3.271,7.92a1.338,1.338,0,0,1,.851-1.272L4.24,6.61a14.682,14.682,0,0,1,3.816-.427,13.674,13.674,0,0,1,3.707.419l.133.043a1.321,1.321,0,0,1,.841,1.271ZM8.981,9.392a.012.012,0,0,0-.012.01,1.031,1.031,0,0,1-1.029.652A1.031,1.031,0,0,1,6.911,9.4s0-.013-.011-.013-.013.013-.013.013a1.062,1.062,0,0,0,1.083.925A1,1,0,0,0,8.993,9.4h0A.01.01,0,0,0,8.981,9.392ZM7.987.005a7.951,7.951,0,1,0,7.98,7.947A7.977,7.977,0,0,0,7.987.005Zm4.876,12.808a6.922,6.922,0,0,1-9.763,0,6.854,6.854,0,0,1,0-9.72,6.923,6.923,0,0,1,9.763,0,6.848,6.848,0,0,1,0,9.719ZM5.084,7.423c-.458,0-.831.588-.831,1.313s.371,1.314.829,1.313.831-.588.832-1.313S5.543,7.423,5.084,7.423Zm5.768,0c-.458,0-.831.588-.831,1.314s.372,1.312.83,1.312.831-.589.831-1.314S11.31,7.42,10.852,7.42Z"></path> </g>
</symbol>

<symbol id="renew" viewBox="0 0 16 16">
  <title>renew</title><g id="Layer_1" data-name="Layer 1"> <path d="M8.054,15.9A7.89,7.89,0,1,1,7.994.118H8a7.886,7.886,0,0,1,5.614,13.429A7.8,7.8,0,0,1,8.054,15.9ZM8,1.519A6.49,6.49,0,1,0,8,14.5a6.5,6.5,0,0,0,6.489-6.531A6.512,6.512,0,0,0,8,1.519Z"></path> <path d="M8,12.532A4.529,4.529,0,0,1,3.477,7.977a4.623,4.623,0,0,1,.1-.9.651.651,0,1,1,1.274.264,3.2,3.2,0,0,0,.864,2.928,3.172,3.172,0,0,0,2.269.957A3.223,3.223,0,1,0,8,4.786,3.206,3.206,0,0,0,5.8,5.658a.649.649,0,0,1-.889-.947A4.521,4.521,0,1,1,8,12.532Z"></path> <path d="M5.423,8.882a.647.647,0,0,1-.46-.192l-.836-.836-.836.836a.65.65,0,1,1-.92-.918l1.3-1.3a.668.668,0,0,1,.92,0l1.3,1.3a.651.651,0,0,1-.46,1.11Z"></path> </g>
</symbol>

<symbol id="rocket" viewBox="0 0 16 16">
  <title>rocket</title><g id="Layer_1" data-name="Layer 1"> <path d="M13.215,10.451a2.874,2.874,0,0,0-1.789-2.077A7.867,7.867,0,0,0,11.3,5.582,6.009,6.009,0,0,0,8.974,2.408L8.826.784a.829.829,0,0,0-1.652,0L7.026,2.408A6.009,6.009,0,0,0,4.7,5.582a7.867,7.867,0,0,0-.126,2.792,2.874,2.874,0,0,0-1.789,2.077,5.741,5.741,0,0,0,.522,3.219,9.8,9.8,0,0,0,1.03,2,.826.826,0,0,0,1.049.19A1.49,1.49,0,0,0,6,15.206a2.036,2.036,0,0,0,.116-.625,3.815,3.815,0,0,1,.158-.969,1.433,1.433,0,0,0,.79.354l.1.678a.845.845,0,0,0,.861.711.834.834,0,0,0,.821-.711l.1-.676a1.341,1.341,0,0,0,.791-.356,3.854,3.854,0,0,1,.158.969,2.036,2.036,0,0,0,.116.625,1.5,1.5,0,0,0,.61.655.826.826,0,0,0,1.049-.19,9.737,9.737,0,0,0,1.031-2A5.741,5.741,0,0,0,13.215,10.451Zm-2.19,4.689a.7.7,0,0,1-.26-.26,6.542,6.542,0,0,0-.35-1.736,4.27,4.27,0,0,0-.868-.869.19.19,0,0,0-.173.173,3.2,3.2,0,0,1-.172.52.558.558,0,0,1-.342.173H8.845c-.13,0-.414.039-.634.064l-.191,1.32H7.98l-.191-1.32c-.22-.025-.5-.064-.634-.064H7.14a.558.558,0,0,1-.342-.173,3.2,3.2,0,0,1-.172-.52.19.19,0,0,0-.173-.173,4.27,4.27,0,0,0-.868.869,6.542,6.542,0,0,0-.35,1.736.7.7,0,0,1-.26.26c-.216-.259-1.72-2.979-1.381-4.51A2.211,2.211,0,0,1,5.54,8.978a6.706,6.706,0,0,1-.032-3.21A5.536,5.536,0,0,1,7.817,2.862L8,.86l.183,2a5.536,5.536,0,0,1,2.309,2.906,6.706,6.706,0,0,1-.032,3.21,2.211,2.211,0,0,1,1.946,1.652C12.745,12.161,11.241,14.881,11.025,15.14Z"></path> <path d="M8,6.505A1.037,1.037,0,0,0,9.032,5.471,1.031,1.031,0,0,0,8,4.438H8A1.035,1.035,0,0,0,7.269,6.2,1.025,1.025,0,0,0,8,6.505Zm0,.34H8a.821.821,0,0,0-.58,1.4A.811.811,0,0,0,8,8.486a.822.822,0,0,0,.582-1.4A.815.815,0,0,0,8,6.845Z"></path> </g>
</symbol>

<symbol id="safari" viewBox="0 0 16 16">
  <title>safari</title><g id="Layer_1" data-name="Layer 1"> <g> <path d="M7.971,2.019A5.906,5.906,0,1,1,2.065,7.925,5.912,5.912,0,0,1,7.971,2.019m0-1.974a7.88,7.88,0,1,0,7.88,7.88A7.879,7.879,0,0,0,7.971.045Z"></path> <path d="M11.177,11.131,9.389,6.508,4.765,4.719,6.554,9.325ZM7.5,7.452a.654.654,0,0,1,.945,0,.667.667,0,0,1,0,.945A.668.668,0,0,1,7.5,7.452Z"></path> </g> </g>
</symbol>

<symbol id="safe" viewBox="0 0 16 16">
  <title>safe</title><g id="Layer_1" data-name="Layer 1"> <path d="M.368,2.237V13.794A1.932,1.932,0,0,0,2.294,15.72H13.851a1.932,1.932,0,0,0,1.927-1.926V2.237A1.932,1.932,0,0,0,13.851.31H2.294A1.932,1.932,0,0,0,.368,2.237Zm1.284,0A.644.644,0,0,1,2.294,1.6H13.851a.644.644,0,0,1,.643.642V13.794a.644.644,0,0,1-.643.642H2.294a.644.644,0,0,1-.642-.642Z"></path> <path d="M6.147,8.015A1.926,1.926,0,1,0,8.073,6.089,1.932,1.932,0,0,0,6.147,8.015Zm1.284,0a.642.642,0,1,1,.642.642A.644.644,0,0,1,7.431,8.015Z"></path> <path d="M2.936,6.731V9.3a.643.643,0,0,0,0,1.285v1.284A1.288,1.288,0,0,0,4.22,13.152h7.705a1.287,1.287,0,0,0,1.284-1.284v-7.7a1.287,1.287,0,0,0-1.284-1.284H4.22A1.288,1.288,0,0,0,2.936,4.163V5.447a.642.642,0,0,0,0,1.284Zm1.284,0h0a.642.642,0,1,0,0-1.284h0V4.163h7.705v7.705H4.22V10.584h0a.643.643,0,0,0,0-1.285h0Z"></path> </g>
</symbol>

<symbol id="stamp" viewBox="0 0 16 16">
  <title>stamp</title><g id="Layer_1" data-name="Layer 1"> <g> <path d="M15.348,3.308h.092a.436.436,0,0,0,.435-.436V1.5a.434.434,0,0,0-.608-.4A.519.519,0,0,1,14.558.56a.435.435,0,0,0-.435-.435H13.108a.5.5,0,0,0-.435.507.51.51,0,0,1-.508.509A.53.53,0,0,1,11.657.56a.435.435,0,0,0-.435-.435H10.207a.5.5,0,0,0-.435.507.51.51,0,0,1-.508.509A.53.53,0,0,1,8.755.56.435.435,0,0,0,8.32.125H7.306a.5.5,0,0,0-.435.507.51.51,0,0,1-.509.509A.529.529,0,0,1,5.855.56.436.436,0,0,0,5.419.125H4.4a.5.5,0,0,0-.435.507.509.509,0,0,1-.508.509A.53.53,0,0,1,2.953.56.435.435,0,0,0,2.518.125H1.5a.5.5,0,0,0-.436.507.51.51,0,0,1-.508.509.435.435,0,0,0-.435.435V2.93a.436.436,0,0,0,.3.415.489.489,0,0,1,0,.943.434.434,0,0,0-.3.414V5.831a.434.434,0,0,0,.3.414.5.5,0,0,1,.358.472.5.5,0,0,1-.358.472.434.434,0,0,0-.3.414V8.732a.434.434,0,0,0,.3.414.49.49,0,0,1,0,.944.435.435,0,0,0-.3.415v1.128a.435.435,0,0,0,.3.415.49.49,0,0,1,0,.944.434.434,0,0,0-.3.414V14.76A.435.435,0,0,0,.56,15.2a.5.5,0,0,1,.473.369.436.436,0,0,0,.417.311H2.571a.434.434,0,0,0,.417-.312.5.5,0,0,1,.946,0,.435.435,0,0,0,.417.312H5.472a.436.436,0,0,0,.418-.312.5.5,0,0,1,.945,0,.437.437,0,0,0,.418.311h1.12a.437.437,0,0,0,.418-.311.5.5,0,0,1,.946,0,.435.435,0,0,0,.417.311h1.121a.436.436,0,0,0,.417-.312.5.5,0,0,1,.946,0,.434.434,0,0,0,.417.312h1.121a.435.435,0,0,0,.417-.312.5.5,0,0,1,.674-.325.435.435,0,0,0,.608-.4V13.463a.435.435,0,0,0-.435-.435h-.092a.509.509,0,0,1,0-1.017h.092a.435.435,0,0,0,.435-.435V10.562a.436.436,0,0,0-.435-.436h-.092a.508.508,0,0,1,0-1.016h.092a.435.435,0,0,0,.435-.435V7.66a.435.435,0,0,0-.435-.435h-.092a.508.508,0,0,1,0-1.016h.092a.435.435,0,0,0,.435-.435V4.759a.435.435,0,0,0-.435-.435h-.092a.508.508,0,0,1,0-1.016Zm-.343,1.843v.231a1.378,1.378,0,0,0,0,2.67v.231a1.378,1.378,0,0,0,0,2.67v.231a1.379,1.379,0,0,0,0,2.671v.471a1.353,1.353,0,0,0-1.113.679h-.554a1.353,1.353,0,0,0-2.347,0h-.554a1.353,1.353,0,0,0-2.347,0H7.536a1.353,1.353,0,0,0-2.347,0H4.635a1.353,1.353,0,0,0-2.347,0H1.734A1.363,1.363,0,0,0,1,14.4v-.713a1.355,1.355,0,0,0,0-2.327v-.574A1.355,1.355,0,0,0,1,8.455V7.88A1.354,1.354,0,0,0,1,5.554V4.979A1.355,1.355,0,0,0,1,2.652V1.94A1.385,1.385,0,0,0,1.879,1h.252a1.382,1.382,0,0,0,1.33,1.016A1.37,1.37,0,0,0,4.78,1h.253A1.38,1.38,0,0,0,6.362,2.011,1.369,1.369,0,0,0,7.681,1h.252A1.382,1.382,0,0,0,9.264,2.011,1.369,1.369,0,0,0,10.582,1h.253a1.381,1.381,0,0,0,1.33,1.016A1.369,1.369,0,0,0,13.483,1h.253A1.382,1.382,0,0,0,15.005,2.01v.471a1.378,1.378,0,0,0,0,2.67Z"></path> <path d="M12.591,3.144H3.153a.326.326,0,0,0-.326.326v9.438a.327.327,0,0,0,.326.327h9.438a.327.327,0,0,0,.326-.327V3.47A.326.326,0,0,0,12.591,3.144Zm-.327.653V5.279l-.688-.941a.307.307,0,0,0-.279-.133.327.327,0,0,0-.265.159L7.555,10.2,5.835,7.9a.33.33,0,0,0-.25-.131.344.344,0,0,0-.259.114L3.479,10.033V3.8ZM3.479,12.582v-1.56c.01-.009.022-.012.03-.022L5.556,8.62l1.769,2.362a.318.318,0,0,0,.278.131.33.33,0,0,0,.264-.159l3.474-5.832.823,1.125a.325.325,0,0,0,.1.089v6.246Z"></path> <path d="M5.329,6.857a1.4,1.4,0,1,0-1.4-1.4A1.4,1.4,0,0,0,5.329,6.857Zm0-2.149a.748.748,0,1,1-.748.748A.749.749,0,0,1,5.329,4.708Z"></path> </g> </g>
</symbol>

<symbol id="success" viewBox="0 0 16 16">
  <title>success</title><g id="Layer_1" data-name="Layer 1"> <path d="M8,0a7.992,7.992,0,1,0,7.992,7.992A7.992,7.992,0,0,0,8,0Zm3.734,7.287L8.842,10.178l-.988.989a.7.7,0,0,1-.989,0l-.989-.989L4.55,8.852a1.039,1.039,0,0,1,0-1.468l.015-.015a1.04,1.04,0,0,1,1.469,0L7.359,8.7,10.251,5.8a1.037,1.037,0,0,1,1.468,0l.015.015A1.039,1.039,0,0,1,11.734,7.287Z"></path> </g>
</symbol>

<symbol id="thank-you" viewBox="0 0 16 16">
  <title>thank-you</title><g id="Layer_1" data-name="Layer 1"> <g> <path d="M3.183,8.013l0,.011Z"></path> <path d="M9.292,9.376c-.283.326-.69.7-.47.025.078-.239.494-.452.348-.764a.32.32,0,0,0-.518-.1,3.057,3.057,0,0,0-.526.655l-.041-.026.2-.3c.2-.342.921-1.646.4-1.948-.633-.368-.951,1.087-1.006,1.41a6.076,6.076,0,0,0-.142,1.227L7.5,9.579a.632.632,0,0,1-.114.068A.6.6,0,0,0,7.31,9.7a.233.233,0,0,1-.072.035c-.149.066-.049-1.933-.524-1.125-.11.193-.188.4-.3.6H6.384c0-.141.1-.35.063-.481-.051-.17-.28-.489-.376-.092a4.939,4.939,0,0,0-.117.735c-.047.062-.095.122-.141.173-.6.653-.2-.516-.261-.717-.089-.3-.03-.151-.278-.263-.48-.215-.98.295-1.072.827,0,.014,0,.026,0,.039-.034.038-.068.079-.1.112-.779.75-.061-.831-.118-.975-.2-.508-.779.3-.951.528l-.034-.024c.208-.384,1.073-1.735.6-2.141-.3-.255-.573.036-.754.352-.654-.1-2.7-.391-2.7.578,0-.02,0-.062,0,0,0,.011,0,.009,0,0a.219.219,0,0,0,.031.106c.211.347.346-.017.484-.119a1.259,1.259,0,0,1,.8-.3c-.256.821-.485,1.584-.7,2.419-.094.364.4.3.478,0,.214-.807.518-1.619.682-2.4.15.009.4.078.743.1-.006.017-.015.039-.019.054A4.784,4.784,0,0,0,2.423,9.78c.1.366.193.464.393.064A2.231,2.231,0,0,1,3.417,9l.036.006a.9.9,0,0,0-.128.96c.273.326.641.076.921-.125.145.33.541.414.883.023.179.451.562.251.808,0,.022.162.1.374.3.25a.219.219,0,0,0,.077-.1l.446-.885h.027c-.039.262-.176,1.143.353.979a1.621,1.621,0,0,0,.165-.068c.036-.016.127-.063.271-.14l.018-.01c.061.185.173.406.355.132l.5-.874c.162-.289.286-.117.084.084-.608.808.277,1.212.855.568C9.873,9.269,9.514,9.12,9.292,9.376Zm-6.5-.449c.013-.129.033-.261.057-.4A5.207,5.207,0,0,1,3,7.757c.022-.051.218-.565.335-.565.142,0-.116.728-.151.821.015-.037.044-.111,0,.011C3.058,8.328,2.924,8.627,2.794,8.927Zm2.235.4C5,9.58,4.6,10.077,4.6,9.581c0-.267.218-.806.553-.806Zm2.917-.35c.011-.139.025-.279.041-.422.041-.271.088-.535.15-.8.051-.124.131-.484.322-.484.115,0-.18.71-.194.754C8.161,8.344,8.052,8.661,7.946,8.979Z"></path> <path d="M12.568,7.123c-.208.384-.511.972-.723,1.355-.156-.354-.795-1.6-1.377-1.384-.135.12-.089.744.05.681.033-.015.007-.145.013-.176.123-.477,1.012,1.135,1.059,1.253-.189.332-.6,1.224-1.128.87-.207-.083.081.282.094.292.407.338.772.037,1.053-.367a25.865,25.865,0,0,0,1.313-2.253C13.036,7.133,12.725,6.836,12.568,7.123Z"></path> <path d="M15.639,9.366c-.059.077-.548.516-.674.379-.2-.2.114-.939.114-1.2,0-.157-.353-.144-.382-.012l-.187.928c-.052.252-.2.338-.348.19-.123-.12.158-.967.18-1.124a.138.138,0,0,0-.169-.091c-.212.008-.277.3-.307.461v.01A1.008,1.008,0,0,0,12.7,8.533a.97.97,0,0,0-.442,1.128c.341,1.084,1.543.025,1.124-.838l.013-.019a3.1,3.1,0,0,1,.435.358,2.517,2.517,0,0,1-.056.257c-.2.733.367.9.794.356.122.591.784.261,1.077-.032S15.9,9.269,15.639,9.366Zm-2.787.443c-.442,0-.266-1.007.1-1.018S13.175,9.809,12.852,9.809Z"></path> </g> </g>
</symbol>

<symbol id="twilio" viewBox="0 0 16 16">
  <title>twilio</title><g id="Layer_1" data-name="Layer 1"> <path d="M11.12,6.58H10.3a.041.041,0,0,0-.041.042V7.1a.041.041,0,0,0,.041.041h.819a.041.041,0,0,0,.041-.041V6.622A.041.041,0,0,0,11.12,6.58Zm-.015.712H9.534a.056.056,0,0,0-.051.04l-.2.778-.01.041-.246-.827a.058.058,0,0,0-.053-.04H8.361a.058.058,0,0,0-.053.04l-.23.779h0l-.012.04-.01-.04-.1-.386-.1-.385a.057.057,0,0,0-.052-.04H6.576v-.67a.043.043,0,0,0-.055-.037l-.775.244c-.023.007-.041.018-.041.041v.422H5.5a.041.041,0,0,0-.041.042v.593a.041.041,0,0,0,.041.042h.2V8.7c0,.514.276.754.79.754a1.239,1.239,0,0,0,.556-.12V8.707a.031.031,0,0,0-.043-.033.517.517,0,0,1-.221.045c-.138,0-.211-.058-.211-.216V7.969h.442a.041.041,0,0,0,.041-.042v-.5L7.64,9.379a.06.06,0,0,0,.053.04h.643A.062.062,0,0,0,8.39,9.38l.275-.866.14.453.127.412a.06.06,0,0,0,.054.04h.646a.058.058,0,0,0,.053-.04l.59-1.959V9.378a.042.042,0,0,0,.041.042h.789a.042.042,0,0,0,.041-.042V7.334A.042.042,0,0,0,11.105,7.292Zm1.037-.712h-.788a.042.042,0,0,0-.042.042V9.378a.042.042,0,0,0,.042.042h.788a.041.041,0,0,0,.041-.042V6.622A.041.041,0,0,0,12.142,6.58Zm1.052,0h-.819a.041.041,0,0,0-.041.042V7.1a.041.041,0,0,0,.041.041h.819a.042.042,0,0,0,.041-.041V6.622A.042.042,0,0,0,13.194,6.58Zm-.016.712H12.39a.042.042,0,0,0-.041.042V9.378a.042.042,0,0,0,.041.042h.788a.042.042,0,0,0,.042-.042V7.334A.042.042,0,0,0,13.178,7.292Zm1.3-.05A1.131,1.131,0,0,0,13.3,8.348v.008a1.18,1.18,0,0,0,2.355-.008V8.34A1.12,1.12,0,0,0,14.483,7.242Zm.337,1.114a.348.348,0,0,1-.337.367.36.36,0,0,1-.346-.375V8.34a.348.348,0,0,1,.338-.367.359.359,0,0,1,.345.375ZM2.6,5.667A2.333,2.333,0,1,0,4.908,8,2.324,2.324,0,0,0,2.6,5.667Zm0,4.051A1.718,1.718,0,1,1,4.3,8,1.711,1.711,0,0,1,2.6,9.718Zm.576-2.784a.485.485,0,1,0,.481.485A.483.483,0,0,0,3.171,6.934Zm0,1.162a.485.485,0,1,0,.481.485A.483.483,0,0,0,3.171,8.1Zm-1.153,0a.485.485,0,1,0,.481.485A.483.483,0,0,0,2.018,8.1Zm0-1.162a.485.485,0,1,0,.481.485A.483.483,0,0,0,2.018,6.934Z"></path> </g>
</symbol>

<symbol id="upload" viewBox="0 0 16 16">
  <title>upload</title><g id="Layer_1" data-name="Layer 1"> <g> <path d="M14.579,7.6H12.471a1.217,1.217,0,0,0-1.118.724l-.977,2.066-4.739-.02L4.663,8.341A1.229,1.229,0,0,0,3.534,7.6H1.422A1.2,1.2,0,0,0,.227,8.8v5.1a1.891,1.891,0,0,0,1.881,1.9H13.893a1.891,1.891,0,0,0,1.88-1.9V8.8A1.2,1.2,0,0,0,14.579,7.6Zm-.1,6.3a.6.6,0,0,1-.587.6H2.108a.6.6,0,0,1-.588-.6V8.888H3.491l.97,2.013a1.282,1.282,0,0,0,1.176.777h4.739a1.27,1.27,0,0,0,1.166-.756l.929-2.034H14.48Z"></path> <path d="M4.45,5.138a.753.753,0,0,0,.515-.2L7.358,2.7V7.974a.754.754,0,0,0,1.508,0V2.7l2.382,2.224a.754.754,0,0,0,1.03-1.1L8.627.411A.788.788,0,0,0,8.51.338.779.779,0,0,0,8.394.265.776.776,0,0,0,8.126.211l-.014,0h0a.767.767,0,0,0-.282.057.842.842,0,0,0-.114.072A.693.693,0,0,0,7.6.412L3.935,3.833a.754.754,0,0,0,.515,1.3Z"></path> </g> </g>
</symbol>

<symbol id="viewer" viewBox="0 0 16 16">
  <title>viewer</title><g id="Layer_1" data-name="Layer 1"> <g> <path d="M8,2.993C4.163,2.993.718,6.394.718,8S4.163,13.007,8,13.007,15.282,9.606,15.282,8,11.837,2.993,8,2.993Zm0,8.421c-3.094,0-5.586-2.773-5.69-3.39.1-.665,2.6-3.438,5.69-3.438s5.586,2.773,5.69,3.39C13.586,8.641,11.094,11.414,8,11.414Z"></path> <path d="M8,5.724A2.276,2.276,0,1,0,10.276,8,2.279,2.279,0,0,0,8,5.724ZM8,8.683A.683.683,0,1,1,8.683,8,.685.685,0,0,1,8,8.683Z"></path> </g> </g>
</symbol>
    </svg>