<svg xmlns="http://www.w3.org/2000/svg" xmlns:xlink="http://www.w3.org/1999/xlink">
    
<symbol id="compass" viewBox="0 0 16 16">
  <title>compass</title><g> <path d="M13.3,2.7a7.5,7.5,0,1,0,0,10.606A7.474,7.474,0,0,0,13.3,2.7Zm-.942,9.664a6.167,6.167,0,1,1,0-8.722A6.131,6.131,0,0,1,12.361,12.361Z"></path> <path d="M10.817,3.626l0-.006,0-.012h0a.4.4,0,0,0-.367-.24c-.015,0-.029,0-.043,0h-.02a.725.725,0,0,0-.28.1,1.728,1.728,0,0,0-.315.237l-2.5,2.305A4.773,4.773,0,0,0,6.45,7.105a4.742,4.742,0,0,0-.531,1.268l-.746,3.319a1.785,1.785,0,0,0-.047.379.719.719,0,0,0,.057.3h0l0,.006,0,.012h0a.4.4,0,0,0,.367.24c.015,0,.029,0,.043,0h.02a.725.725,0,0,0,.28-.1,1.728,1.728,0,0,0,.315-.237l2.5-2.3A4.773,4.773,0,0,0,9.55,8.9a4.742,4.742,0,0,0,.531-1.268h0l.746-3.319a1.785,1.785,0,0,0,.047-.379.719.719,0,0,0-.057-.3ZM8.649,8.375a.75.75,0,1,1-.274-1.024A.748.748,0,0,1,8.649,8.375Z"></path> <polygon points="6.449 7.105 6.45 7.105 6.45 7.104 6.449 7.105"></polygon> <polygon points="9.55 8.895 9.55 8.895 9.55 8.896 9.55 8.895"></polygon> </g>
</symbol>

<symbol id="document" viewBox="0 0 16 16">
  <title>document</title><g> <path d="M4.85,7.589H9.275a.506.506,0,1,0,0-1.012H4.85a.506.506,0,0,0,0,1.012Z"></path> <path d="M11,9.076H4.85a.506.506,0,0,0,0,1.012H11a.506.506,0,1,0,0-1.012Z"></path> <path d="M11,11.575H4.85a.507.507,0,0,0,0,1.013H11a.507.507,0,0,0,0-1.013Z"></path> <path d="M14.6,5.056a.6.6,0,0,0-.154-.257L10.369.77a.569.569,0,0,0-.076-.094A.6.6,0,0,0,9.869.5H3.975A2.6,2.6,0,0,0,2.959.707a2.629,2.629,0,0,0-1.148.946,2.6,2.6,0,0,0-.449,1.459v9.776A2.6,2.6,0,0,0,1.569,13.9a2.636,2.636,0,0,0,.946,1.148,2.6,2.6,0,0,0,1.46.448h8.05a2.591,2.591,0,0,0,1.016-.207,2.629,2.629,0,0,0,1.148-.946,2.6,2.6,0,0,0,.449-1.459V5.269A.61.61,0,0,0,14.6,5.056ZM10.469,3.34V2.556l2.149,2.125H11.234a.762.762,0,0,1-.295-.06.778.778,0,0,1-.339-.28.75.75,0,0,1-.131-.426Zm2.857,10.094a1.431,1.431,0,0,1-.514.624,1.4,1.4,0,0,1-.787.242H3.975a1.4,1.4,0,0,1-.547-.111,1.432,1.432,0,0,1-.624-.515,1.4,1.4,0,0,1-.242-.786V3.112a1.4,1.4,0,0,1,.112-.546,1.431,1.431,0,0,1,.514-.624A1.4,1.4,0,0,1,3.975,1.7H9.269V3.915a1.954,1.954,0,0,0,.155.765,1.977,1.977,0,0,0,.712.863,1.948,1.948,0,0,0,1.1.338H12.7l.739-.007v7.014A1.4,1.4,0,0,1,13.326,13.434Z"></path> </g>
</symbol>

<symbol id="key" viewBox="0 0 16 16">
  <title>key</title><g> <polygon points="15.13 11.635 15.13 11.635 15.13 11.635 15.13 11.635"></polygon> <polygon points="15.257 15.256 15.256 15.257 15.256 15.257 15.257 15.256"></polygon> <path d="M15.5,14.644v-.026l-.126-2.429h0a.95.95,0,0,0-.014-.137.806.806,0,0,0-.091-.241.906.906,0,0,0-.138-.176L9.765,6.27A4.694,4.694,0,0,0,5.2.5,4.7,4.7,0,1,0,6.271,9.765l1.611,1.611h0a.839.839,0,0,0,.281.183.81.81,0,0,0,.276.059h0l.208.01v.176a.849.849,0,0,0,.016.163.776.776,0,0,0,.091.242.867.867,0,0,0,.137.176h0l.915.915h0a.813.813,0,0,0,.3.189.9.9,0,0,0,.194.046.947.947,0,0,0,.034.15.929.929,0,0,0,.067.162.733.733,0,0,0,.13.178h0l1.1,1.1a.841.841,0,0,0,.282.184.8.8,0,0,0,.142.043.874.874,0,0,0,.13.015h0l2.429.126h.058a.845.845,0,0,0,.163-.015.769.769,0,0,0,.242-.092.893.893,0,0,0,.175-.136.836.836,0,0,0,.19-.3A.923.923,0,0,0,15.5,14.644ZM5.2,8.874A3.678,3.678,0,1,1,8.874,5.2c0,.06,0,.12-.005.179a3.65,3.65,0,0,1-.256,1.182A3.686,3.686,0,0,1,6.556,8.613a3.65,3.65,0,0,1-1.182.256C5.315,8.872,5.255,8.874,5.2,8.874ZM12.3,14.361l-.991-.992.049-.319a.509.509,0,0,0-.575-.581l-.328.047-.795-.795v-.578a.51.51,0,0,0-.485-.508l-.629-.028L7.324,9.38A4.7,4.7,0,0,0,9.38,7.323L14.361,12.3l.112,2.169Z"></path> <path d="M9.611,8.734a.327.327,0,1,0-.462.462l3.618,3.619a.327.327,0,1,0,.462-.463Z"></path> <path d="M4.571,3.026a1.4,1.4,0,0,0-.2-.016,1.288,1.288,0,1,0,.2.016ZM3.741,4.2a.635.635,0,0,1,.626-.535.7.7,0,0,1,.1.008.635.635,0,0,1-.1,1.261.562.562,0,0,1-.1-.008A.634.634,0,0,1,3.741,4.2Z"></path> </g>
</symbol>

<symbol id="terminal" viewBox="0 0 16 16">
  <title>terminal</title><g> <path d="M13.417,1.021H2.583A2.089,2.089,0,0,0,.5,3.1V12.9a2.089,2.089,0,0,0,2.083,2.083H13.417A2.089,2.089,0,0,0,15.5,12.9V3.1A2.089,2.089,0,0,0,13.417,1.021ZM2.583,2.235H13.417a.871.871,0,0,1,.865.783H1.718A.871.871,0,0,1,2.583,2.235Zm10.834,11.53H2.583a.87.87,0,0,1-.869-.869V4.232H14.286V12.9A.87.87,0,0,1,13.417,13.765Z"></path> <path d="M6.905,8.627,6.9,8.619l-.008-.008-.04-.04,0-.006-.007,0L4.651,6.572l0,0,0,0a.745.745,0,0,0-.491-.185.705.705,0,0,0-.554.264.748.748,0,0,0-.175.555.7.7,0,0,0,.257.481L5.262,9.111,3.676,10.545a.734.734,0,0,0,.49,1.287.725.725,0,0,0,.48-.178l0,0,0,0L6.835,9.664A.747.747,0,0,0,6.905,8.627Z"></path> <path d="M11.775,10.717H7.541a.74.74,0,0,0,0,1.479h4.234a.74.74,0,1,0,0-1.479Z"></path> </g>
</symbol>

<symbol id="webhook" viewBox="0 0 16 16">
  <title>webhook</title><g> <path d="M15.093,10.323a3.029,3.029,0,0,0-3.584-1.361l-2.6-4.5a1,1,0,0,0,.077-.386A1.01,1.01,0,0,0,7.475,3.2h0a1.024,1.024,0,0,0-.374.377,1.012,1.012,0,0,0-.131.5,1.013,1.013,0,0,0,.513.878.987.987,0,0,0,.381.123l2.865,4.963a.607.607,0,0,0,.831.223,1.811,1.811,0,0,1,.906-.244,1.832,1.832,0,0,1,.9.236,1.823,1.823,0,0,1,.921,1.578,1.833,1.833,0,0,1-.236.9,1.819,1.819,0,0,1-1.578.921,1.83,1.83,0,0,1-1-.3.608.608,0,1,0-.669,1.015,3.031,3.031,0,0,0,4.3-4.046Z"></path> <path d="M5.929,6.385l-2.6,4.5a1.008,1.008,0,0,0-.742.5,1.01,1.01,0,0,0,.37,1.379h0a1,1,0,0,0,.5.135,1.006,1.006,0,0,0,.926-1.409L7.256,6.519a.609.609,0,0,0-.223-.83,1.8,1.8,0,0,1-.672-.678A1.815,1.815,0,0,1,8.849,2.544a1.8,1.8,0,0,1,.672.677,1.832,1.832,0,0,1,.236.9q0,.054,0,.108a.608.608,0,0,0,1.214.072c0-.06.005-.12.005-.18a3.046,3.046,0,0,0-.393-1.495A3.037,3.037,0,0,0,7.943,1.084,3.032,3.032,0,0,0,5.315,2.6a3.034,3.034,0,0,0,.614,3.785Z"></path> <path d="M11.7,12.492a1.009,1.009,0,1,0-.01-1.216H5.956a.608.608,0,0,0-.608.608,1.8,1.8,0,0,1-.143.707,1.822,1.822,0,0,1-.658.8,1.822,1.822,0,0,1-1.722.168,1.831,1.831,0,0,1-.8-.659,1.819,1.819,0,0,1-.032-1.982,1.831,1.831,0,0,1,.727-.658.608.608,0,1,0-.545-1.087A3.033,3.033,0,1,0,6.5,12.492Z"></path> </g>
</symbol>
    </svg>