<svg xmlns="http://www.w3.org/2000/svg">
    
<symbol id="accounts-app" class="symbol" viewBox="0 0 32 32">
  <title id="title-accounts-app">accounts-app icon</title><path d="M26.973 2H5.027A3.027 3.027 0 0 0 2 5.027v21.946A3.027 3.027 0 0 0 5.027 30h21.946A3.027 3.027 0 0 0 30 26.973V5.027A3.027 3.027 0 0 0 26.973 2zm0 24.216a.757.757 0 0 1-.757.757H5.784a.757.757 0 0 1-.757-.757V5.784a.757.757 0 0 1 .757-.757h4.54v1.517a.753.753 0 0 0 .753.753h9.846a.753.753 0 0 0 .753-.753V5.027h4.54a.757.757 0 0 1 .757.757z" fill-rule="evenodd" role="presentation"/><path d="M22.588 15.839v-.01a.278.278 0 0 0-.194-.235.285.285 0 0 0-.044-.009h-.01l-.9-.1a1.38 1.38 0 0 1-.875-2.112l.566-.7.013-.021.006-.01a.219.219 0 0 0 .016-.03.166.166 0 0 0 .012-.031v-.011a.278.278 0 0 0-.05-.246l-.008-.01-.012-.014-.906-.906-.015-.013-.008-.006a.277.277 0 0 0-.3-.029.4.4 0 0 0-.038.024l-.008.006-.706.565a1.379 1.379 0 0 1-2.112-.874l-.1-.9a.21.21 0 0 0-.006-.024v-.012a.3.3 0 0 0-.01-.032.209.209 0 0 0-.014-.03l-.005-.011a.276.276 0 0 0-.209-.138h-1.342a.278.278 0 0 0-.235.194.312.312 0 0 0-.009.044v.01l-.1.9a1.379 1.379 0 0 1-2.112.875l-.7-.566-.021-.013-.01-.006a.219.219 0 0 0-.03-.016.166.166 0 0 0-.031-.012h-.011a.278.278 0 0 0-.246.05l-.01.009-.014.011-.907.906-.012.015-.006.008a.277.277 0 0 0-.029.3.4.4 0 0 0 .024.038l.006.008q.282.354.565.706a1.377 1.377 0 0 1-.874 2.112l-.9.1a.168.168 0 0 0-.024.006h-.012l-.032.01-.031.014h-.01a.276.276 0 0 0-.138.209v1.342a.278.278 0 0 0 .194.235.312.312 0 0 0 .044.009h.01l.9.1a1.377 1.377 0 0 1 .875 2.112l-.566.7a.239.239 0 0 0-.013.021l-.006.01a.219.219 0 0 0-.016.03.166.166 0 0 0-.012.031v.011a.278.278 0 0 0 .05.246l.009.01.011.014.906.907.015.012.008.006a.277.277 0 0 0 .3.029.4.4 0 0 0 .038-.024l.008-.006.706-.565a1.382 1.382 0 0 1 2.112.875l.1.9a.168.168 0 0 0 .006.024v.012a.3.3 0 0 0 .01.032.292.292 0 0 0 .014.031v.01a.276.276 0 0 0 .209.138h1.342a.278.278 0 0 0 .235-.194.285.285 0 0 0 .009-.044v-.01l.1-.9a1.376 1.376 0 0 1 2.112-.876l.7.566.021.013.01.006a.219.219 0 0 0 .03.016.166.166 0 0 0 .031.012h.011a.278.278 0 0 0 .246-.05l.01-.008.014-.012.907-.906.012-.015.006-.008a.277.277 0 0 0 .029-.3.4.4 0 0 0-.024-.038l-.006-.008-.565-.706a1.377 1.377 0 0 1 .875-2.112l.9-.1.024-.005h.012l.032-.01a.173.173 0 0 0 .031-.014l.01-.005a.276.276 0 0 0 .138-.209v-1.309zM16 18.748a2.248 2.248 0 1 1 2.248-2.248A2.249 2.249 0 0 1 16 18.748z" role="presentation"/>
</symbol>

<symbol id="accounts-badge" class="symbol" viewBox="0 0 136 32">
  <title id="title-accounts-badge">accounts-badge icon</title><path d="M48.312 23L46.9 19.545h-6.509L38.982 23h-3.454l6.6-15.512h3.125L51.854 23zm-4.665-11.442l-2.045 5h4.091zm14.604 11.706a6.021 6.021 0 0 1-6.139-6.095v-.044a6.056 6.056 0 0 1 6.188-6.139 5.8 5.8 0 0 1 4.7 1.98l-2.047 2.2a3.445 3.445 0 0 0-2.685-1.3 3.014 3.014 0 0 0-2.86 3.212v.044a3.022 3.022 0 0 0 2.992 3.26 3.737 3.737 0 0 0 2.707-1.255l1.958 1.981a5.938 5.938 0 0 1-4.814 2.156zm11.46 0a6.021 6.021 0 0 1-6.139-6.095v-.044a6.055 6.055 0 0 1 6.183-6.139 5.8 5.8 0 0 1 4.709 1.98l-2.047 2.2a3.445 3.445 0 0 0-2.685-1.3 3.014 3.014 0 0 0-2.86 3.212v.044a3.022 3.022 0 0 0 2.992 3.257 3.737 3.737 0 0 0 2.707-1.255l1.958 1.981a5.938 5.938 0 0 1-4.818 2.159zm11.68 0a6.13 6.13 0 0 1-6.36-6.095v-.044a6.387 6.387 0 0 1 12.762-.044v.044a6.19 6.19 0 0 1-6.402 6.139zm3.1-6.139a3.133 3.133 0 0 0-3.1-3.256 3.021 3.021 0 0 0-3.059 3.212v.044a3.134 3.134 0 0 0 3.1 3.257 3.021 3.021 0 0 0 3.057-3.213zM96.892 23v-1.672a4.175 4.175 0 0 1-3.455 1.892c-2.531 0-4-1.672-4-4.379v-7.634h3.343v6.578c0 1.585.749 2.4 2.025 2.4s2.091-.814 2.091-2.4v-6.578h3.344V23zm13.208 0v-6.579c0-1.584-.748-2.4-2.025-2.4s-2.09.814-2.09 2.4V23h-3.344V11.207h3.344v1.671a4.172 4.172 0 0 1 3.455-1.892c2.53 0 4 1.673 4 4.379V23zm9.528.2c-2.047 0-3.433-.814-3.433-3.542v-5.591h-1.408v-2.86h1.413V8.192h3.344v3.015h2.773v2.86h-2.773v5.038c0 .77.33 1.145 1.078 1.145a3.4 3.4 0 0 0 1.651-.418v2.684a4.932 4.932 0 0 1-2.645.684zm8.665.02a8.265 8.265 0 0 1-5.061-1.782l1.431-2.2a6.659 6.659 0 0 0 3.718 1.409c.969 0 1.408-.353 1.408-.88v-.044c0-.726-1.143-.969-2.442-1.365-1.65-.484-3.521-1.254-3.521-3.542v-.044c0-2.4 1.937-3.741 4.314-3.741a8.154 8.154 0 0 1 4.4 1.365l-1.276 2.31a6.989 6.989 0 0 0-3.191-1.1c-.814 0-1.232.353-1.232.815v.044c0 .66 1.122.968 2.4 1.408 1.651.55 3.565 1.342 3.565 3.5v.044c-.006 2.615-1.96 3.803-4.513 3.803z" role="presentation"/><path d="M26.973 2H5.027A3.027 3.027 0 0 0 2 5.027v21.946A3.027 3.027 0 0 0 5.027 30h21.946A3.027 3.027 0 0 0 30 26.973V5.027A3.027 3.027 0 0 0 26.973 2zm0 24.216a.757.757 0 0 1-.757.757H5.784a.757.757 0 0 1-.757-.757V5.784a.757.757 0 0 1 .757-.757h4.54v1.517a.753.753 0 0 0 .753.753h9.846a.753.753 0 0 0 .753-.753V5.027h4.54a.757.757 0 0 1 .757.757z" fill-rule="evenodd" role="presentation"/><path d="M22.588 15.839v-.01a.278.278 0 0 0-.194-.235.285.285 0 0 0-.044-.009h-.01l-.9-.1a1.38 1.38 0 0 1-.875-2.112l.566-.7.013-.021.006-.01a.219.219 0 0 0 .016-.03.166.166 0 0 0 .012-.031v-.011a.278.278 0 0 0-.05-.246l-.008-.01-.012-.014-.906-.906-.015-.013-.008-.006a.277.277 0 0 0-.3-.029.4.4 0 0 0-.038.024l-.008.006-.706.565a1.379 1.379 0 0 1-2.112-.874l-.1-.9a.21.21 0 0 0-.006-.024v-.012a.3.3 0 0 0-.01-.032.209.209 0 0 0-.014-.03l-.005-.011a.276.276 0 0 0-.209-.138h-1.342a.278.278 0 0 0-.235.194.312.312 0 0 0-.009.044v.01l-.1.9a1.379 1.379 0 0 1-2.112.875l-.7-.566-.021-.013-.01-.006a.219.219 0 0 0-.03-.016.166.166 0 0 0-.031-.012h-.011a.278.278 0 0 0-.246.05l-.01.009-.014.011-.907.906-.012.015-.006.008a.277.277 0 0 0-.029.3.4.4 0 0 0 .024.038l.006.008q.282.354.565.706a1.377 1.377 0 0 1-.874 2.112l-.9.1a.168.168 0 0 0-.024.006h-.012l-.032.01-.031.014h-.01a.276.276 0 0 0-.138.209v1.342a.278.278 0 0 0 .194.235.312.312 0 0 0 .044.009h.01l.9.1a1.377 1.377 0 0 1 .875 2.112l-.566.7a.239.239 0 0 0-.013.021l-.006.01a.219.219 0 0 0-.016.03.166.166 0 0 0-.012.031v.011a.278.278 0 0 0 .05.246l.009.01.011.014.906.907.015.012.008.006a.277.277 0 0 0 .3.029.4.4 0 0 0 .038-.024l.008-.006.706-.565a1.382 1.382 0 0 1 2.112.875l.1.9a.168.168 0 0 0 .006.024v.012a.3.3 0 0 0 .01.032.292.292 0 0 0 .014.031v.01a.276.276 0 0 0 .209.138h1.342a.278.278 0 0 0 .235-.194.285.285 0 0 0 .009-.044v-.01l.1-.9a1.376 1.376 0 0 1 2.112-.876l.7.566.021.013.01.006a.219.219 0 0 0 .03.016.166.166 0 0 0 .031.012h.011a.278.278 0 0 0 .246-.05l.01-.008.014-.012.907-.906.012-.015.006-.008a.277.277 0 0 0 .029-.3.4.4 0 0 0-.024-.038l-.006-.008-.565-.706a1.377 1.377 0 0 1 .875-2.112l.9-.1.024-.005h.012l.032-.01a.173.173 0 0 0 .031-.014l.01-.005a.276.276 0 0 0 .138-.209v-1.309zM16 18.748a2.248 2.248 0 1 1 2.248-2.248A2.249 2.249 0 0 1 16 18.748z" role="presentation"/>
</symbol>

<symbol id="api-app" class="symbol" viewBox="0 0 32 32">
  <title id="title-api-app">api-app icon</title><path d="M26.973 2H5.027A3.027 3.027 0 0 0 2 5.027v21.946A3.027 3.027 0 0 0 5.027 30h21.946A3.027 3.027 0 0 0 30 26.973V5.027A3.027 3.027 0 0 0 26.973 2zm0 24.216a.757.757 0 0 1-.757.757H5.784a.757.757 0 0 1-.757-.757V5.784a.757.757 0 0 1 .757-.757h4.54v1.517a.753.753 0 0 0 .753.753h9.846a.753.753 0 0 0 .753-.753V5.027h4.54a.757.757 0 0 1 .757.757z" fill-rule="evenodd" role="presentation"/><path d="M16.235 15.211l.87-1.508-2.153-1.243-.882 1.528a3.814 3.814 0 0 0-.689-.07 3.856 3.856 0 0 0-.757.077l-.879-1.522-2.153 1.243.893 1.546a3.826 3.826 0 0 0-.716 1.238H8v2.486h1.759a3.805 3.805 0 0 0 .724 1.267l-.868 1.5L11.768 23l.853-1.478a3.783 3.783 0 0 0 1.509 0l.845 1.463 2.153-1.243-.856-1.483a3.8 3.8 0 0 0 .739-1.3h1.709v-2.486h-1.735a3.817 3.817 0 0 0-.75-1.262zm-4.946 2.548a2.092 2.092 0 1 1 2.092 2.092 2.092 2.092 0 0 1-2.092-2.092z" role="presentation"/><path d="M19.779 10.28v1.16a2.312 2.312 0 0 0-.293.132 2.4 2.4 0 0 0-1.181 2.373l-.966.558.906 1.57.952-.55a2.3 2.3 0 0 0 2.968 0l.957.553.906-1.57-.972-.561a2.352 2.352 0 0 0-1.465-2.505v-1.16zm1.353 4.141a.892.892 0 1 1 .326-1.219.892.892 0 0 1-.326 1.219z" role="presentation"/>
</symbol>

<symbol id="api-badge" class="symbol" viewBox="0 0 187 32">
  <title id="title-api-badge">api-badge icon</title><path d="M26.973 2H5.027A3.027 3.027 0 0 0 2 5.027v21.946A3.027 3.027 0 0 0 5.027 30h21.946A3.027 3.027 0 0 0 30 26.973V5.027A3.027 3.027 0 0 0 26.973 2zm0 24.216a.757.757 0 0 1-.757.757H5.784a.757.757 0 0 1-.757-.757V5.784a.757.757 0 0 1 .757-.757h4.54v1.517a.753.753 0 0 0 .753.753h9.846a.753.753 0 0 0 .753-.753V5.027h4.54a.757.757 0 0 1 .757.757z" fill-rule="evenodd" role="presentation"/><path d="M16.235 15.211l.87-1.508-2.153-1.243-.882 1.528a3.814 3.814 0 0 0-.689-.07 3.856 3.856 0 0 0-.757.077l-.879-1.522-2.153 1.243.893 1.546a3.826 3.826 0 0 0-.716 1.238H8v2.486h1.759a3.805 3.805 0 0 0 .724 1.267l-.868 1.5L11.768 23l.853-1.478a3.783 3.783 0 0 0 1.509 0l.845 1.463 2.153-1.243-.856-1.483a3.8 3.8 0 0 0 .739-1.3h1.709v-2.486h-1.735a3.817 3.817 0 0 0-.75-1.262zm-4.946 2.548a2.092 2.092 0 1 1 2.092 2.092 2.092 2.092 0 0 1-2.092-2.092z" role="presentation"/><path d="M19.779 10.28v1.16a2.312 2.312 0 0 0-.293.132 2.4 2.4 0 0 0-1.181 2.373l-.966.558.906 1.57.952-.55a2.3 2.3 0 0 0 2.968 0l.957.553.906-1.57-.972-.561a2.352 2.352 0 0 0-1.465-2.505v-1.16zm1.353 4.141a.892.892 0 1 1 .326-1.219.892.892 0 0 1-.326 1.219zm21.774 9.669H36.9V8.688h6.007c4.841 0 8.186 3.322 8.186 7.657v.044c-.001 4.334-3.346 7.701-8.187 7.701zm4.643-7.7a4.424 4.424 0 0 0-4.643-4.643h-2.618v9.285h2.618a4.389 4.389 0 0 0 4.643-4.6zm16.522 2.969h-8.207a2.735 2.735 0 0 0 2.882 2.31 3.864 3.864 0 0 0 2.86-1.21l1.915 1.7a6.23 6.23 0 0 1-10.98-3.895v-.044a5.872 5.872 0 0 1 5.831-6.139c3.938 0 5.743 3.059 5.743 6.4v.044c0 .328-.022.526-.044.834zm-5.7-4.6a2.629 2.629 0 0 0-2.552 2.509h5.038a2.529 2.529 0 0 0-2.485-2.508zm13.66 9.419h-3.037L64.351 12.3h3.543l2.64 7.9 2.666-7.9h3.476zm16.235-4.819h-8.207a2.736 2.736 0 0 0 2.883 2.31 3.864 3.864 0 0 0 2.86-1.21l1.915 1.7a6.23 6.23 0 0 1-10.98-3.895v-.044a5.872 5.872 0 0 1 5.831-6.139c3.938 0 5.742 3.059 5.742 6.4v.044c0 .328-.022.526-.044.834zm-5.7-4.6c-1.387 0-2.288.99-2.553 2.509h5.039a2.529 2.529 0 0 0-2.484-2.508zm7.745 9.331V8.027h3.344V24.09zm11.199.264a6.13 6.13 0 0 1-6.359-6.095v-.044a6.386 6.386 0 0 1 12.761-.044v.044a6.189 6.189 0 0 1-6.402 6.139zm3.1-6.139a3.134 3.134 0 0 0-3.1-3.257 3.022 3.022 0 0 0-3.059 3.213v.044a3.134 3.134 0 0 0 3.1 3.257 3.022 3.022 0 0 0 3.059-3.213zm11.661 6.095a4.528 4.528 0 0 1-3.674-1.76v5.06h-3.345V12.3h3.348v1.69a4.331 4.331 0 0 1 3.674-1.914c2.751 0 5.369 2.156 5.369 6.095v.044c-.003 3.939-2.577 6.095-5.372 6.095zm2.025-6.139a2.894 2.894 0 1 0-5.743 0v.044a2.894 2.894 0 1 0 5.743 0zm16.125 1.188h-8.207a2.735 2.735 0 0 0 2.882 2.31 3.865 3.865 0 0 0 2.861-1.21l1.914 1.7a6.229 6.229 0 0 1-10.979-3.895v-.044a5.872 5.872 0 0 1 5.83-6.139c3.939 0 5.744 3.059 5.744 6.4v.044c0 .328-.023.526-.045.834zm-5.7-4.6a2.629 2.629 0 0 0-2.552 2.509h5.039a2.529 2.529 0 0 0-2.486-2.508zm14.522.816c-2.223 0-3.587 1.342-3.587 4.158v4.357h-3.344V12.3h3.344v2.376a3.643 3.643 0 0 1 3.763-2.6v3.5zm19.403 8.515l-1.408-3.455h-6.513l-1.408 3.455h-3.454l6.6-15.512h3.125l6.6 15.512zm-4.664-11.442l-2.047 5h4.093zm15.027 6.821h-2.576v4.621h-3.387V8.688h6.293c3.673 0 5.9 2.178 5.9 5.324v.044c-.004 3.565-2.776 5.413-6.23 5.413zm2.794-5.39c0-1.519-1.056-2.333-2.75-2.333h-2.62v4.709h2.685a2.386 2.386 0 0 0 2.685-2.332zM181.7 24.09V8.688h3.389v15.4z" role="presentation"/>
</symbol>

<symbol id="check-ins-app" class="symbol" viewBox="0 0 32 32">
  <title id="title-check-ins-app">check-ins-app icon</title><path d="M19.846 11.606L14.352 17.1l-2.2-2.2a1.554 1.554 0 1 0-2.2 2.2l3.3 3.295a1.553 1.553 0 0 0 2.2 0l6.591-6.595a1.554 1.554 0 0 0-2.2-2.2z" fill-rule="evenodd" role="presentation"/><path d="M26.973 2H5.027A3.027 3.027 0 0 0 2 5.027v21.946A3.027 3.027 0 0 0 5.027 30h21.946A3.027 3.027 0 0 0 30 26.973V5.027A3.027 3.027 0 0 0 26.973 2zm0 24.216a.757.757 0 0 1-.757.757H5.784a.757.757 0 0 1-.757-.757V5.784a.757.757 0 0 1 .757-.757h4.54v1.517a.753.753 0 0 0 .753.753h9.846a.753.753 0 0 0 .753-.753V5.027h4.54a.757.757 0 0 1 .757.757z" fill-rule="evenodd" role="presentation"/>
</symbol>

<symbol id="check-ins-badge" class="symbol" viewBox="0 0 140 32">
  <title id="title-check-ins-badge">check-ins-badge icon</title><path d="M19.846 11.606L14.352 17.1l-2.2-2.2a1.554 1.554 0 1 0-2.2 2.2l3.3 3.295a1.553 1.553 0 0 0 2.2 0l6.591-6.595a1.554 1.554 0 0 0-2.2-2.2z" fill-rule="evenodd" role="presentation"/><path d="M26.973 2H5.027A3.027 3.027 0 0 0 2 5.027v21.946A3.027 3.027 0 0 0 5.027 30h21.946A3.027 3.027 0 0 0 30 26.973V5.027A3.027 3.027 0 0 0 26.973 2zm0 24.216a.757.757 0 0 1-.757.757H5.784a.757.757 0 0 1-.757-.757V5.784a.757.757 0 0 1 .757-.757h4.54v1.517a.753.753 0 0 0 .753.753h9.846a.753.753 0 0 0 .753-.753V5.027h4.54a.757.757 0 0 1 .757.757z" fill-rule="evenodd" role="presentation"/><path d="M44.065 23.264a7.774 7.774 0 0 1-7.9-7.921V15.3A7.829 7.829 0 0 1 44.2 7.333a7.951 7.951 0 0 1 6.071 2.377l-2.157 2.49a5.683 5.683 0 0 0-3.938-1.738 4.564 4.564 0 0 0-4.467 4.8v.038a4.575 4.575 0 0 0 4.467 4.841 5.56 5.56 0 0 0 4.049-1.8l2.156 2.179a7.876 7.876 0 0 1-6.316 2.744zM59.3 23v-6.579c0-1.584-.748-2.4-2.025-2.4s-2.089.814-2.089 2.4V23h-3.349V6.938h3.345v5.94a4.169 4.169 0 0 1 3.454-1.892c2.53 0 4 1.673 4 4.379V23zm16.584-4.73h-8.207a2.735 2.735 0 0 0 2.883 2.31 3.864 3.864 0 0 0 2.86-1.21l1.914 1.694a6.23 6.23 0 0 1-10.98-3.895v-.044a5.873 5.873 0 0 1 5.832-6.139c3.938 0 5.742 3.059 5.742 6.4v.044c0 .333-.022.531-.044.84zm-5.7-4.6a2.63 2.63 0 0 0-2.553 2.509h5.039a2.53 2.53 0 0 0-2.484-2.509zm13.067 9.594a6.021 6.021 0 0 1-6.139-6.095v-.044a6.056 6.056 0 0 1 6.188-6.139 5.8 5.8 0 0 1 4.7 1.98l-2.047 2.2a3.445 3.445 0 0 0-2.685-1.3 3.014 3.014 0 0 0-2.86 3.212v.044a3.022 3.022 0 0 0 2.992 3.26 3.737 3.737 0 0 0 2.707-1.255l1.958 1.981a5.938 5.938 0 0 1-4.814 2.156zM97.071 23l-3.08-4.819-1.166 1.233V23H89.48V6.938h3.345V15.5l3.916-4.29h4l-4.489 4.642L100.9 23z" role="presentation"/><path d="M100.658 17.785v-3.212h6.778v3.212zM110.272 23V7.6h3.389V23zm13.674 0v-6.579c0-1.584-.748-2.4-2.024-2.4s-2.09.814-2.09 2.4V23h-3.345V11.207h3.345v1.671a4.172 4.172 0 0 1 3.454-1.892c2.53 0 4 1.673 4 4.379V23zm9.768.22a8.261 8.261 0 0 1-5.061-1.782l1.43-2.2a6.662 6.662 0 0 0 3.719 1.409c.968 0 1.408-.353 1.408-.88v-.044c0-.726-1.145-.969-2.442-1.365-1.651-.484-3.521-1.254-3.521-3.542v-.044c0-2.4 1.937-3.741 4.313-3.741a8.154 8.154 0 0 1 4.4 1.365l-1.276 2.31a6.989 6.989 0 0 0-3.191-1.1c-.813 0-1.231.353-1.231.815v.044c0 .66 1.122.968 2.4 1.408 1.65.55 3.565 1.342 3.565 3.5v.044c-.002 2.615-1.961 3.803-4.513 3.803z" role="presentation"/>
</symbol>

<symbol id="giving-app" class="symbol" viewBox="0 0 32 32">
  <title id="title-giving-app">giving-app icon</title><path d="M16.422 12.856l-.422.422-.422-.422a3.283 3.283 0 0 0-4.354-.347 3.161 3.161 0 0 0-.243 4.688l.551.55 4.114 4.115a.5.5 0 0 0 .708 0l4.665-4.662a3.161 3.161 0 0 0-.243-4.688 3.284 3.284 0 0 0-4.354.344z" role="presentation"/><path d="M26.973 2H5.027A3.027 3.027 0 0 0 2 5.027v21.946A3.027 3.027 0 0 0 5.027 30h21.946A3.027 3.027 0 0 0 30 26.973V5.027A3.027 3.027 0 0 0 26.973 2zm0 24.216a.757.757 0 0 1-.757.757H5.784a.757.757 0 0 1-.757-.757V5.784a.757.757 0 0 1 .757-.757h4.54v1.517a.753.753 0 0 0 .753.753h9.846a.753.753 0 0 0 .753-.753V5.027h4.54a.757.757 0 0 1 .757.757z" fill-rule="evenodd" role="presentation"/>
</symbol>

<symbol id="giving-badge" class="symbol" viewBox="0 0 104 32">
  <title id="title-giving-badge">giving-badge icon</title><path d="M16.422 12.856l-.422.422-.422-.422a3.283 3.283 0 0 0-4.354-.347 3.161 3.161 0 0 0-.243 4.688l.551.55 4.114 4.115a.5.5 0 0 0 .708 0l4.665-4.662a3.161 3.161 0 0 0-.243-4.688 3.284 3.284 0 0 0-4.354.344z" role="presentation"/><path d="M26.973 2H5.027A3.027 3.027 0 0 0 2 5.027v21.946A3.027 3.027 0 0 0 5.027 30h21.946A3.027 3.027 0 0 0 30 26.973V5.027A3.027 3.027 0 0 0 26.973 2zm0 24.216a.757.757 0 0 1-.757.757H5.784a.757.757 0 0 1-.757-.757V5.784a.757.757 0 0 1 .757-.757h4.54v1.517a.753.753 0 0 0 .753.753h9.846a.753.753 0 0 0 .753-.753V5.027h4.54a.757.757 0 0 1 .757.757z" fill-rule="evenodd" role="presentation"/><path d="M44.264 23.264a7.709 7.709 0 0 1-8.1-7.921V15.3a7.906 7.906 0 0 1 8.075-7.966 8.455 8.455 0 0 1 6.051 2.113l-2.134 2.575a5.667 5.667 0 0 0-4.026-1.563 4.627 4.627 0 0 0-4.423 4.8v.041a4.616 4.616 0 0 0 4.665 4.885 5.409 5.409 0 0 0 3.19-.925v-2.2h-3.409v-2.927h6.69v6.689a10 10 0 0 1-6.579 2.442zm9.007-13.356v-2.97h3.521v2.97zM53.359 23V11.207H56.7V23zm12.204.088h-3.037l-4.642-11.881h3.543l2.64 7.9 2.662-7.9h3.477zm5.767-13.18v-2.97h3.521v2.97zM71.419 23V11.207h3.344V23zm13.267 0v-6.579c0-1.584-.748-2.4-2.025-2.4s-2.09.814-2.09 2.4V23h-3.344V11.207h3.344v1.671a4.172 4.172 0 0 1 3.454-1.892c2.531 0 4 1.673 4 4.379V23zm10.844 3.564a11.2 11.2 0 0 1-5.215-1.231l1.145-2.509a7.7 7.7 0 0 0 3.982 1.076c2.288 0 3.368-1.1 3.368-3.213v-.571a4.615 4.615 0 0 1-3.851 1.914 5.179 5.179 0 0 1-5.237-5.5v-.044a5.191 5.191 0 0 1 5.237-5.5 4.772 4.772 0 0 1 3.806 1.761v-1.54h3.344v9.13c0 4.445-2.2 6.227-6.579 6.227zm3.28-10.077a2.876 2.876 0 0 0-5.744 0v.044a2.7 2.7 0 0 0 2.861 2.728 2.726 2.726 0 0 0 2.883-2.728z" role="presentation"/>
</symbol>

<symbol id="groups-app" class="symbol" viewBox="0 0 32 32">
  <title id="title-groups-app">groups-app icon</title><path d="M26.973 2H5.027A3.027 3.027 0 0 0 2 5.027v21.946A3.027 3.027 0 0 0 5.027 30h21.946A3.027 3.027 0 0 0 30 26.973V5.027A3.027 3.027 0 0 0 26.973 2zm0 24.216a.757.757 0 0 1-.757.757H5.784a.757.757 0 0 1-.757-.757V5.784a.757.757 0 0 1 .757-.757h4.54v1.517a.753.753 0 0 0 .753.753h9.846a.753.753 0 0 0 .753-.753V5.027h4.54a.757.757 0 0 1 .757.757z" fill-rule="evenodd" role="presentation"/><path d="M23.189 12.973a2.643 2.643 0 0 0-5.032-1.135h-4.314a2.643 2.643 0 1 0-3.519 3.519v3.556a2.643 2.643 0 1 0 3.519 3.519h4.314a2.643 2.643 0 1 0 3.519-3.519v-3.556a2.642 2.642 0 0 0 1.513-2.384zm-3.027 5.714a2.635 2.635 0 0 0-2.232 2.232h-3.86a2.635 2.635 0 0 0-2.232-2.232v-3.1a2.634 2.634 0 0 0 2.232-2.232h3.86a2.634 2.634 0 0 0 2.232 2.232z" fill-rule="evenodd" role="presentation"/>
</symbol>

<symbol id="groups-badge" class="symbol" viewBox="0 0 114 32">
  <title id="title-groups-badge">groups-badge icon</title><path d="M26.973 2H5.027A3.027 3.027 0 0 0 2 5.027v21.946A3.027 3.027 0 0 0 5.027 30h21.946A3.027 3.027 0 0 0 30 26.973V5.027A3.027 3.027 0 0 0 26.973 2zm0 24.216a.757.757 0 0 1-.757.757H5.784a.757.757 0 0 1-.757-.757V5.784a.757.757 0 0 1 .757-.757h4.54v1.517a.753.753 0 0 0 .753.753h9.846a.753.753 0 0 0 .753-.753V5.027h4.54a.757.757 0 0 1 .757.757z" fill-rule="evenodd" role="presentation"/><path d="M23.189 12.973a2.643 2.643 0 0 0-5.032-1.135h-4.314a2.643 2.643 0 1 0-3.519 3.519v3.556a2.643 2.643 0 1 0 3.519 3.519h4.314a2.643 2.643 0 1 0 3.519-3.519v-3.556a2.642 2.642 0 0 0 1.513-2.384zm-3.027 5.714a2.635 2.635 0 0 0-2.232 2.232h-3.86a2.635 2.635 0 0 0-2.232-2.232v-3.1a2.634 2.634 0 0 0 2.232-2.232h3.86a2.634 2.634 0 0 0 2.232 2.232z" fill-rule="evenodd" role="presentation"/><path d="M44.264 23.264a7.709 7.709 0 0 1-8.1-7.921V15.3a7.906 7.906 0 0 1 8.075-7.966 8.455 8.455 0 0 1 6.051 2.113l-2.134 2.575a5.667 5.667 0 0 0-4.026-1.563 4.627 4.627 0 0 0-4.423 4.8v.041a4.616 4.616 0 0 0 4.665 4.885 5.409 5.409 0 0 0 3.19-.925v-2.2h-3.409v-2.927h6.69v6.689a10 10 0 0 1-6.579 2.442zm16.005-8.779c-2.223 0-3.587 1.342-3.587 4.159V23h-3.345V11.207h3.345v2.376a3.643 3.643 0 0 1 3.762-2.6v3.5zm7.231 8.779a6.129 6.129 0 0 1-6.359-6.095v-.044a6.386 6.386 0 0 1 12.759-.044v.044a6.189 6.189 0 0 1-6.4 6.139zm3.1-6.139a3.133 3.133 0 0 0-3.1-3.256 3.021 3.021 0 0 0-3.059 3.212v.044a3.134 3.134 0 0 0 3.1 3.257 3.022 3.022 0 0 0 3.059-3.213zM83 23v-1.672a4.175 4.175 0 0 1-3.455 1.892c-2.53 0-4-1.672-4-4.379v-7.634h3.344v6.578c0 1.585.749 2.4 2.024 2.4S83 19.37 83 17.785v-6.578h3.345V23zm12.767.22a4.527 4.527 0 0 1-3.674-1.76v5.061h-3.345V11.207h3.345V12.9a4.328 4.328 0 0 1 3.674-1.914c2.751 0 5.369 2.157 5.369 6.095v.044c0 3.939-2.574 6.095-5.369 6.095zm2.024-6.139a2.894 2.894 0 1 0-5.742 0v.044a2.894 2.894 0 1 0 5.742 0zm9.226 6.139a8.263 8.263 0 0 1-5.061-1.782l1.431-2.2a6.659 6.659 0 0 0 3.717 1.409c.969 0 1.409-.353 1.409-.88v-.044c0-.726-1.144-.969-2.443-1.365-1.649-.484-3.52-1.254-3.52-3.542v-.044c0-2.4 1.936-3.741 4.313-3.741a8.16 8.16 0 0 1 4.4 1.365l-1.277 2.31a6.989 6.989 0 0 0-3.19-1.1c-.815 0-1.233.353-1.233.815v.044c0 .66 1.123.968 2.4 1.408 1.65.55 3.564 1.342 3.564 3.5v.044c0 2.615-1.958 3.803-4.51 3.803z" role="presentation"/>
</symbol>

<symbol id="interfaces-app" class="symbol" viewBox="0 0 32 32">
  <title id="title-interfaces-app">interfaces-app icon</title><path d="M26.973 2H5.027A3.027 3.027 0 0 0 2 5.027v21.946A3.027 3.027 0 0 0 5.027 30h21.946A3.027 3.027 0 0 0 30 26.973V5.027A3.027 3.027 0 0 0 26.973 2zm0 24.216a.757.757 0 0 1-.757.757H5.784a.757.757 0 0 1-.757-.757V5.784a.757.757 0 0 1 .757-.757h4.54v1.517a.753.753 0 0 0 .753.753h9.846a.753.753 0 0 0 .753-.753V5.027h4.54a.757.757 0 0 1 .757.757z" fill-rule="evenodd" role="presentation"/><path d="M15.27 17.088l.717 6.391L22 10 9.198 17.108l6.072-.02z" role="presentation"/>
</symbol>

<symbol id="interfaces-badge" class="symbol" viewBox="0 0 141 32">
  <title id="title-interfaces-badge">interfaces-badge icon</title><path d="M26.973 2H5.027A3.027 3.027 0 0 0 2 5.027v21.946A3.027 3.027 0 0 0 5.027 30h21.946A3.027 3.027 0 0 0 30 26.973V5.027A3.027 3.027 0 0 0 26.973 2zm0 24.216a.757.757 0 0 1-.757.757H5.784a.757.757 0 0 1-.757-.757V5.784a.757.757 0 0 1 .757-.757h4.54v1.517a.753.753 0 0 0 .753.753h9.846a.753.753 0 0 0 .753-.753V5.027h4.54a.757.757 0 0 1 .757.757z" fill-rule="evenodd" role="presentation"/><path d="M15.27 17.088l.717 6.391L22 10 9.198 17.108l6.072-.02zm21.783 6.391V8.077h3.389v15.4zm13.707 0V16.9c0-1.584-.748-2.4-2.024-2.4s-2.09.814-2.09 2.4v6.579H43.3V11.686h3.345v1.671a4.172 4.172 0 0 1 3.455-1.892c2.531 0 4 1.673 4 4.379v7.635zm9.592.198c-2.047 0-3.433-.814-3.433-3.542v-5.589h-1.408v-2.86h1.408V8.671h3.344v3.015h2.773v2.86h-2.773v5.038c0 .77.331 1.145 1.079 1.145a3.4 3.4 0 0 0 1.65-.418V23a4.93 4.93 0 0 1-2.64.677zm15.133-4.928h-8.207a2.735 2.735 0 0 0 2.882 2.31 3.866 3.866 0 0 0 2.861-1.21l1.914 1.694a6.229 6.229 0 0 1-10.979-3.895V17.6a5.872 5.872 0 0 1 5.83-6.139c3.939 0 5.743 3.059 5.743 6.4v.044c0 .337-.022.535-.044.844zm-5.7-4.6a2.629 2.629 0 0 0-2.552 2.509h5.039a2.53 2.53 0 0 0-2.486-2.509zm14.521.815c-2.222 0-3.586 1.342-3.586 4.159v4.356h-3.345V11.686h3.345v2.376a3.643 3.643 0 0 1 3.762-2.6v3.5zm7.15-4.885c-.77 0-1.21.4-1.21 1.276v.462h2.706v2.729H90.29v8.933h-3.344v-8.933h-1.387V11.8h1.387v-.748c0-2.6 1.3-3.784 3.652-3.784a7.4 7.4 0 0 1 2.376.33v2.772a4.231 4.231 0 0 0-1.518-.291zm9.26 13.4V22.2a4.536 4.536 0 0 1-3.565 1.5c-2.223 0-4.049-1.276-4.049-3.609v-.044c0-2.574 1.959-3.762 4.753-3.762a8.385 8.385 0 0 1 2.883.484v-.2c0-1.386-.858-2.156-2.531-2.156a8.674 8.674 0 0 0-3.256.638l-.836-2.551a10.389 10.389 0 0 1 4.576-.947c3.653 0 5.259 1.892 5.259 5.083v6.843zm.066-4.752a5.177 5.177 0 0 0-2.135-.441c-1.43 0-2.31.572-2.31 1.629v.043c0 .9.748 1.431 1.826 1.431 1.562 0 2.619-.858 2.619-2.069zm10.977 5.016a6.022 6.022 0 0 1-6.139-6.095V17.6a6.056 6.056 0 0 1 6.183-6.139 5.8 5.8 0 0 1 4.709 1.98l-2.046 2.2a3.445 3.445 0 0 0-2.685-1.3 3.013 3.013 0 0 0-2.86 3.212v.047a3.022 3.022 0 0 0 2.992 3.257 3.736 3.736 0 0 0 2.706-1.255l1.959 1.981a5.94 5.94 0 0 1-4.819 2.16zm16.982-4.994h-8.208a2.737 2.737 0 0 0 2.883 2.31 3.864 3.864 0 0 0 2.86-1.21l1.915 1.694a6.23 6.23 0 0 1-10.98-3.895V17.6a5.872 5.872 0 0 1 5.831-6.139c3.938 0 5.743 3.059 5.743 6.4v.044c0 .337-.023.535-.044.844zm-5.7-4.6a2.629 2.629 0 0 0-2.552 2.509h5.038a2.53 2.53 0 0 0-2.485-2.509zm11.726 9.551a8.26 8.26 0 0 1-5.06-1.782l1.43-2.2a6.662 6.662 0 0 0 3.718 1.409c.969 0 1.408-.353 1.408-.88V20.2c0-.726-1.144-.969-2.442-1.365-1.65-.484-3.52-1.254-3.52-3.542v-.043c0-2.4 1.936-3.741 4.313-3.741a8.154 8.154 0 0 1 4.4 1.365l-1.276 2.31a6.989 6.989 0 0 0-3.191-1.1c-.814 0-1.232.353-1.232.815v.044c0 .66 1.122.968 2.4 1.408 1.65.55 3.564 1.342 3.564 3.5v.044c-.001 2.616-1.959 3.805-4.512 3.805z" role="presentation"/>
</symbol>

<symbol id="music-stand-app" class="symbol" viewBox="0 0 32 32">
  <title id="title-music-stand-app">music-stand-app icon</title><path d="M26.973 2H5.027A3.027 3.027 0 0 0 2 5.027v21.946A3.027 3.027 0 0 0 5.027 30h21.946A3.027 3.027 0 0 0 30 26.973V5.027A3.027 3.027 0 0 0 26.973 2zm0 24.216a.757.757 0 0 1-.757.757H5.784a.757.757 0 0 1-.757-.757V5.784a.757.757 0 0 1 .757-.757h4.54v1.517a.753.753 0 0 0 .753.753h9.846a.753.753 0 0 0 .753-.753V5.027h4.54a.757.757 0 0 1 .757.757z" fill-rule="evenodd" role="presentation"/><path d="M12.01 12.957v6.659a2.81 2.81 0 0 0-1.125-.186 2.625 2.625 0 0 0-.9.163 3.082 3.082 0 0 0-.818.428 2.15 2.15 0 0 0-.607.61 1.635 1.635 0 0 0-.257.8 1.329 1.329 0 0 0 .1.507 1.354 1.354 0 0 0 .213.373 1.624 1.624 0 0 0 .711.519 3.294 3.294 0 0 0 1 .151 4.483 4.483 0 0 0 1.7-.353 4.5 4.5 0 0 0 1.509-.965 1.728 1.728 0 0 0 .409-.775A6.939 6.939 0 0 0 14 19.87v-5.022l6.266-1.778v4.813a2.151 2.151 0 0 0-.969-.23 2.7 2.7 0 0 0-.9.165 3.1 3.1 0 0 0-.816.428 2.2 2.2 0 0 0-.584.651 1.589 1.589 0 0 0-.223.8 1.432 1.432 0 0 0 .311.88 1.607 1.607 0 0 0 .709.519 2.957 2.957 0 0 0 .949.152A4.228 4.228 0 0 0 20.4 20.9a3.546 3.546 0 0 0 1.282-.965 1.947 1.947 0 0 0 .5-.776 7.128 7.128 0 0 0 .083-1.063s-.005-5.625-.005-7.7c0-.557-.306-.7-.72-.592-1.651.443-7.231 1.84-8.9 2.367a.764.764 0 0 0-.63.786z" role="presentation"/>
</symbol>

<symbol id="music-stand-badge" class="symbol" viewBox="0 0 160 32">
  <title id="title-music-stand-badge">music-stand-badge icon</title><path d="M26.973 2H5.027A3.027 3.027 0 0 0 2 5.027v21.946A3.027 3.027 0 0 0 5.027 30h21.946A3.027 3.027 0 0 0 30 26.973V5.027A3.027 3.027 0 0 0 26.973 2zm0 24.216a.757.757 0 0 1-.757.757H5.784a.757.757 0 0 1-.757-.757V5.784a.757.757 0 0 1 .757-.757h4.54v1.517a.753.753 0 0 0 .753.753h9.846a.753.753 0 0 0 .753-.753V5.027h4.54a.757.757 0 0 1 .757.757z" fill-rule="evenodd" role="presentation"/><path d="M12.01 12.957v6.659a2.81 2.81 0 0 0-1.125-.186 2.625 2.625 0 0 0-.9.163 3.082 3.082 0 0 0-.818.428 2.15 2.15 0 0 0-.607.61 1.635 1.635 0 0 0-.257.8 1.329 1.329 0 0 0 .1.507 1.354 1.354 0 0 0 .213.373 1.624 1.624 0 0 0 .711.519 3.294 3.294 0 0 0 1 .151 4.483 4.483 0 0 0 1.7-.353 4.5 4.5 0 0 0 1.509-.965 1.728 1.728 0 0 0 .409-.775A6.939 6.939 0 0 0 14 19.87v-5.022l6.266-1.778v4.813a2.151 2.151 0 0 0-.969-.23 2.7 2.7 0 0 0-.9.165 3.1 3.1 0 0 0-.816.428 2.2 2.2 0 0 0-.584.651 1.589 1.589 0 0 0-.223.8 1.432 1.432 0 0 0 .311.88 1.607 1.607 0 0 0 .709.519 2.957 2.957 0 0 0 .949.152A4.228 4.228 0 0 0 20.4 20.9a3.546 3.546 0 0 0 1.282-.965 1.947 1.947 0 0 0 .5-.776 7.128 7.128 0 0 0 .083-1.063s-.005-5.625-.005-7.7c0-.557-.306-.7-.72-.592-1.651.443-7.231 1.84-8.9 2.367a.764.764 0 0 0-.63.786zm36.925 10.026V12.928L44.6 19.507h-.088l-4.29-6.513v9.989H36.9V7.581h3.653L44.6 14.1l4.049-6.514H52.3v15.4zm13.441 0v-1.671a4.172 4.172 0 0 1-3.454 1.888c-2.531 0-4-1.673-4-4.379V11.19h3.345v6.579c0 1.585.748 2.4 2.024 2.4s2.09-.813 2.09-2.4V11.19h3.345v11.793zm9.833.217a8.266 8.266 0 0 1-5.06-1.782l1.43-2.2a6.66 6.66 0 0 0 3.721 1.411c.968 0 1.408-.352 1.408-.88V19.7c0-.726-1.144-.968-2.442-1.364-1.65-.485-3.521-1.254-3.521-3.542v-.044c0-2.4 1.937-3.741 4.313-3.741a8.164 8.164 0 0 1 4.4 1.364l-1.277 2.31a7 7 0 0 0-3.19-1.1c-.814 0-1.232.352-1.232.814v.044c0 .66 1.122.969 2.4 1.408 1.649.55 3.564 1.343 3.564 3.5v.051c-.003 2.616-1.961 3.8-4.514 3.8zm6.336-13.308V6.921h3.52v2.971zm.088 13.091V11.19h3.344v11.793zm11.419.265a6.022 6.022 0 0 1-6.139-6.1v-.044A6.054 6.054 0 0 1 90.1 10.97a5.8 5.8 0 0 1 4.7 1.98l-2.046 2.2a3.444 3.444 0 0 0-2.684-1.3 3.012 3.012 0 0 0-2.861 3.211v.044a3.022 3.022 0 0 0 2.993 3.257 3.735 3.735 0 0 0 2.706-1.254l1.958 1.981a5.938 5.938 0 0 1-4.814 2.159zm15.509-.048a9.8 9.8 0 0 1-6.535-2.465l2-2.4a7.065 7.065 0 0 0 4.6 1.87c1.386 0 2.222-.55 2.222-1.452v-.044c0-.859-.527-1.3-3.1-1.958-3.1-.792-5.105-1.651-5.105-4.709V12c0-2.794 2.245-4.643 5.391-4.643a8.915 8.915 0 0 1 5.721 1.958l-1.76 2.553a7.229 7.229 0 0 0-4-1.518c-1.3 0-1.98.594-1.98 1.342v.044c0 1.012.66 1.342 3.322 2.025 3.125.813 4.885 1.935 4.885 4.62v.044c-.006 3.062-2.338 4.775-5.661 4.775zm11.044-.018c-2.046 0-3.432-.815-3.432-3.542v-5.589h-1.409V11.19h1.409V8.176h3.344v3.014h2.772v2.861h-2.772v5.038c0 .77.33 1.144 1.078 1.144a3.4 3.4 0 0 0 1.65-.418V22.5a4.93 4.93 0 0 1-2.64.682zm11.418-.199v-1.276a4.534 4.534 0 0 1-3.564 1.5c-2.223 0-4.049-1.276-4.049-3.609v-.044c0-2.574 1.958-3.762 4.753-3.762a8.381 8.381 0 0 1 2.882.483v-.2c0-1.386-.858-2.156-2.53-2.156a8.655 8.655 0 0 0-3.256.639L121.422 12a10.405 10.405 0 0 1 4.578-.942c3.652 0 5.259 1.892 5.259 5.083v6.842zm.066-4.752a5.185 5.185 0 0 0-2.134-.44c-1.43 0-2.311.572-2.311 1.628v.044c0 .9.749 1.431 1.827 1.431 1.562 0 2.618-.859 2.618-2.069zm12.87 4.752V16.4c0-1.584-.748-2.4-2.024-2.4s-2.09.813-2.09 2.4v6.579H133.5V11.19h3.345v1.672a4.172 4.172 0 0 1 3.455-1.892c2.53 0 4 1.673 4 4.379v7.634zm14.124 0v-1.694a4.332 4.332 0 0 1-3.675 1.915c-2.75 0-5.369-2.156-5.369-6.1v-.044c0-3.938 2.575-6.094 5.369-6.094a4.53 4.53 0 0 1 3.675 1.76V6.921h3.344v16.062zm.044-5.919a2.894 2.894 0 1 0-5.743 0v.044a2.894 2.894 0 1 0 5.743 0z" role="presentation"/>
</symbol>

<symbol id="people-app" class="symbol" viewBox="0 0 32 32">
  <title id="title-people-app">people-app icon</title><path d="M19.861 16.754a2.145 2.145 0 1 0-2.144-2.145 2.145 2.145 0 0 0 2.144 2.145z" fill-rule="evenodd" role="presentation"/><circle cx="13.289" cy="13.613" r="2.86"/><path d="M26.973 2H5.027A3.027 3.027 0 0 0 2 5.027v21.946A3.027 3.027 0 0 0 5.027 30h21.946A3.027 3.027 0 0 0 30 26.973V5.027A3.027 3.027 0 0 0 26.973 2zm0 24.216a.757.757 0 0 1-.757.757H5.784a.757.757 0 0 1-.757-.757V5.784a.757.757 0 0 1 .757-.757h4.54v1.517a.753.753 0 0 0 .753.753h9.846a.753.753 0 0 0 .753-.753V5.027h4.54a.757.757 0 0 1 .757.757z" fill-rule="evenodd" role="presentation"/><path d="M15.372 17.892h-4.041a2.52 2.52 0 0 0-2.52 2.52v2.02h9.081v-2.02a2.52 2.52 0 0 0-2.52-2.52zm6.137 0h-2.694a1.663 1.663 0 0 0-1.01.346 3.251 3.251 0 0 1 .844 2.174v.507h4.54v-1.347a1.68 1.68 0 0 0-1.68-1.68z" fill-rule="evenodd" role="presentation"/>
</symbol>

<symbol id="people-badge" class="symbol" viewBox="0 0 110 32">
  <title id="title-people-badge">people-badge icon</title><path d="M19.861 16.754a2.145 2.145 0 1 0-2.144-2.145 2.145 2.145 0 0 0 2.144 2.145z" fill-rule="evenodd" role="presentation"/><circle cx="13.289" cy="13.613" r="2.86"/><path d="M26.973 2H5.027A3.027 3.027 0 0 0 2 5.027v21.946A3.027 3.027 0 0 0 5.027 30h21.946A3.027 3.027 0 0 0 30 26.973V5.027A3.027 3.027 0 0 0 26.973 2zm0 24.216a.757.757 0 0 1-.757.757H5.784a.757.757 0 0 1-.757-.757V5.784a.757.757 0 0 1 .757-.757h4.54v1.517a.753.753 0 0 0 .753.753h9.846a.753.753 0 0 0 .753-.753V5.027h4.54a.757.757 0 0 1 .757.757z" fill-rule="evenodd" role="presentation"/><path d="M15.372 17.892h-4.041a2.52 2.52 0 0 0-2.52 2.52v2.02h9.081v-2.02a2.52 2.52 0 0 0-2.52-2.52zm6.137 0h-2.694a1.663 1.663 0 0 0-1.01.346 3.251 3.251 0 0 1 .844 2.174v.507h4.54v-1.347a1.68 1.68 0 0 0-1.68-1.68z" fill-rule="evenodd" role="presentation"/><path d="M42.812 18.379h-2.575V23h-3.388V7.6h6.293c3.674 0 5.9 2.178 5.9 5.324v.044c-.004 3.563-2.776 5.411-6.23 5.411zm2.793-5.39c0-1.519-1.055-2.333-2.75-2.333h-2.618v4.709h2.684a2.385 2.385 0 0 0 2.684-2.332zm15.773 5.281h-8.207a2.735 2.735 0 0 0 2.882 2.31 3.864 3.864 0 0 0 2.86-1.21l1.915 1.694a6.229 6.229 0 0 1-10.979-3.895v-.044a5.871 5.871 0 0 1 5.83-6.139c3.938 0 5.743 3.059 5.743 6.4v.044c0 .333-.022.531-.044.84zm-5.7-4.6a2.629 2.629 0 0 0-2.552 2.509h5.038a2.529 2.529 0 0 0-2.485-2.509zm13.229 9.594a6.129 6.129 0 0 1-6.358-6.095v-.044a6.387 6.387 0 0 1 12.762-.044v.044a6.191 6.191 0 0 1-6.404 6.139zm3.1-6.139a3.133 3.133 0 0 0-3.1-3.256 3.021 3.021 0 0 0-3.058 3.212v.044a3.135 3.135 0 0 0 3.1 3.257 3.023 3.023 0 0 0 3.059-3.213zM84.1 23.22a4.529 4.529 0 0 1-3.675-1.76v5.061h-3.346V11.207h3.345V12.9a4.331 4.331 0 0 1 3.676-1.914c2.75 0 5.368 2.157 5.368 6.095v.044c-.001 3.939-2.575 6.095-5.368 6.095zm2.024-6.139a2.894 2.894 0 1 0-5.743 0v.044a2.894 2.894 0 1 0 5.743 0zM91.435 23V6.938h3.343V23zm16.749-4.73h-8.207a2.735 2.735 0 0 0 2.882 2.31 3.866 3.866 0 0 0 2.861-1.21l1.914 1.694a6.23 6.23 0 0 1-10.98-3.895v-.044a5.873 5.873 0 0 1 5.831-6.139c3.939 0 5.743 3.059 5.743 6.4v.044c0 .333-.022.531-.044.84zm-5.7-4.6a2.629 2.629 0 0 0-2.552 2.509h5.039a2.531 2.531 0 0 0-2.486-2.509z" role="presentation"/>
</symbol>

<symbol id="projector-app" class="symbol" viewBox="0 0 32 32">
  <title id="title-projector-app">projector-app icon</title><path d="M26.973 2H5.027A3.027 3.027 0 0 0 2 5.027v21.946A3.027 3.027 0 0 0 5.027 30h21.946A3.027 3.027 0 0 0 30 26.973V5.027A3.027 3.027 0 0 0 26.973 2zm0 24.216a.757.757 0 0 1-.757.757H5.784a.757.757 0 0 1-.757-.757V5.784a.757.757 0 0 1 .757-.757h4.54v1.517a.753.753 0 0 0 .753.753h9.846a.753.753 0 0 0 .753-.753V5.027h4.54a.757.757 0 0 1 .757.757z" fill-rule="evenodd" role="presentation"/><path d="M18.48 16.611c-.209.151-2.955 2.522-3.2 2.683-.18.121-.416-.014-.416-.287v-5.362c0-.251.212-.436.424-.29.17.117 2.9 2.474 3.189 2.676a.371.371 0 0 1 .003.58zm-2.451-6.664a6.528 6.528 0 1 0 6.612 6.53 6.57 6.57 0 0 0-6.612-6.53z" role="presentation"/>
</symbol>

<symbol id="projector-badge" class="symbol" viewBox="0 0 135 32">
  <title id="title-projector-badge">projector-badge icon</title><path d="M26.973 2H5.027A3.027 3.027 0 0 0 2 5.027v21.946A3.027 3.027 0 0 0 5.027 30h21.946A3.027 3.027 0 0 0 30 26.973V5.027A3.027 3.027 0 0 0 26.973 2zm0 24.216a.757.757 0 0 1-.757.757H5.784a.757.757 0 0 1-.757-.757V5.784a.757.757 0 0 1 .757-.757h4.54v1.517a.753.753 0 0 0 .753.753h9.846a.753.753 0 0 0 .753-.753V5.027h4.54a.757.757 0 0 1 .757.757z" fill-rule="evenodd" role="presentation"/><path d="M18.48 16.611c-.209.151-2.955 2.522-3.2 2.683-.18.121-.416-.014-.416-.287v-5.362c0-.251.212-.436.424-.29.17.117 2.9 2.474 3.189 2.676a.371.371 0 0 1 .003.58zm-2.451-6.664a6.528 6.528 0 1 0 6.612 6.53 6.57 6.57 0 0 0-6.612-6.53zm26.833 8.486h-2.574v4.621H36.9V7.651h6.293c3.675 0 5.9 2.178 5.9 5.325v.044c-.004 3.565-2.776 5.413-6.231 5.413zm2.795-5.391c0-1.519-1.057-2.332-2.751-2.332h-2.618v4.708h2.684a2.385 2.385 0 0 0 2.685-2.332zm11.879 1.496c-2.222 0-3.586 1.343-3.586 4.159v4.357h-3.345V11.26h3.345v2.376a3.642 3.642 0 0 1 3.762-2.6v3.5zm7.081 8.779a6.129 6.129 0 0 1-6.359-6.094v-.044a6.387 6.387 0 0 1 12.762-.044v.044a6.19 6.19 0 0 1-6.403 6.138zm3.1-6.138a3.134 3.134 0 0 0-3.1-3.257 3.022 3.022 0 0 0-3.059 3.213v.044a3.135 3.135 0 0 0 3.1 3.257 3.023 3.023 0 0 0 3.059-3.213zm4.796 9.461a6.969 6.969 0 0 1-1.452-.132V23.89a4 4 0 0 0 .7.066c.7 0 1.189-.375 1.189-1.364V11.26h3.35v11.6c0 2.592-1.322 3.78-3.787 3.78zm.353-16.678V6.991h3.52v2.971zm16.897 8.361h-8.207a2.735 2.735 0 0 0 2.882 2.31 3.866 3.866 0 0 0 2.861-1.21l1.914 1.694a6.229 6.229 0 0 1-10.979-3.894v-.044a5.871 5.871 0 0 1 5.83-6.139c3.939 0 5.743 3.059 5.743 6.4v.044c0 .332-.022.531-.044.839zm-5.7-4.6a2.629 2.629 0 0 0-2.552 2.508h5.039a2.53 2.53 0 0 0-2.486-2.507zm13.157 9.594a6.022 6.022 0 0 1-6.139-6.094v-.044a6.055 6.055 0 0 1 6.183-6.139 5.8 5.8 0 0 1 4.709 1.98l-2.046 2.2a3.446 3.446 0 0 0-2.685-1.3 3.013 3.013 0 0 0-2.86 3.213v.044a3.023 3.023 0 0 0 2.992 3.257 3.736 3.736 0 0 0 2.706-1.255l1.959 1.98a5.942 5.942 0 0 1-4.819 2.158zm10.34-.065c-2.046 0-3.432-.814-3.432-3.543V14.12h-1.408v-2.86h1.408V8.245h3.344v3.015h2.772v2.86h-2.772v5.039c0 .77.33 1.144 1.078 1.144a3.4 3.4 0 0 0 1.65-.418v2.684a4.93 4.93 0 0 1-2.64.683zm9.963.065a6.129 6.129 0 0 1-6.359-6.094v-.044a6.387 6.387 0 0 1 12.762-.044v.044a6.189 6.189 0 0 1-6.403 6.138zm3.1-6.138a3.134 3.134 0 0 0-3.1-3.257 3.021 3.021 0 0 0-3.058 3.213v.044a3.134 3.134 0 0 0 3.1 3.257 3.023 3.023 0 0 0 3.059-3.213zm12.014-2.641c-2.222 0-3.586 1.343-3.586 4.159v4.357h-3.345V11.26h3.345v2.376a3.642 3.642 0 0 1 3.762-2.6v3.5z" role="presentation"/>
</symbol>

<symbol id="registrations-app" class="symbol" viewBox="0 0 32 32">
  <title id="title-registrations-app">registrations-app icon</title><path fill-rule="evenodd" d="M20.52 13.131l-2.677-2.425-1.782 1.945 2.658 2.459 1.801-1.979zm-5.013.125l-5.177 5.651a2.015 2.015 0 0 0-.4.86l-.36 2.665 2.621-.577a2 2 0 0 0 .819-.473l5.159-5.666zm-1.009 8.916h7.661v-1.513h-6.284l-1.377 1.513z" role="presentation"/><path d="M26.973 2H5.027A3.027 3.027 0 0 0 2 5.027v21.946A3.027 3.027 0 0 0 5.027 30h21.946A3.027 3.027 0 0 0 30 26.973V5.027A3.027 3.027 0 0 0 26.973 2zm0 24.216a.757.757 0 0 1-.757.757H5.784a.757.757 0 0 1-.757-.757V5.784a.757.757 0 0 1 .757-.757h4.54v1.517a.753.753 0 0 0 .753.753h9.846a.753.753 0 0 0 .753-.753V5.027h4.54a.757.757 0 0 1 .757.757z" fill-rule="evenodd" role="presentation"/>
</symbol>

<symbol id="registrations-badge" class="symbol" viewBox="0 0 176 32">
  <title id="title-registrations-badge">registrations-badge icon</title><path d="M46.2 24l-3.3-4.929h-2.663V24h-3.388V8.6h7.041c3.631 0 5.808 1.914 5.808 5.083v.044A4.782 4.782 0 0 1 46.4 18.5l3.76 5.5zm.066-10.144c0-1.452-1.012-2.2-2.662-2.2h-3.367v4.422h3.433c1.649 0 2.6-.879 2.6-2.178zm16.247 5.414h-8.207a2.735 2.735 0 0 0 2.882 2.31 3.862 3.862 0 0 0 2.86-1.211l1.915 1.7a6.23 6.23 0 0 1-10.98-3.895v-.044a5.872 5.872 0 0 1 5.83-6.139c3.939 0 5.744 3.059 5.744 6.4v.045c0 .328-.023.525-.044.834zm-5.7-4.6a2.628 2.628 0 0 0-2.551 2.51H59.3a2.53 2.53 0 0 0-2.487-2.51zm12.758 12.894a11.187 11.187 0 0 1-5.215-1.232l1.144-2.508a7.7 7.7 0 0 0 3.983 1.076c2.288 0 3.368-1.1 3.368-3.213v-.572A4.613 4.613 0 0 1 69 23.031a5.179 5.179 0 0 1-5.237-5.5v-.045a5.191 5.191 0 0 1 5.237-5.5 4.774 4.774 0 0 1 3.806 1.76v-1.539h3.344v9.131c0 4.444-2.2 6.226-6.579 6.226zm3.28-10.078a2.876 2.876 0 0 0-5.744 0v.045a2.7 2.7 0 0 0 2.861 2.729 2.727 2.727 0 0 0 2.883-2.729zm5.689-6.578v-2.97h3.521v2.97zM78.628 24V12.207h3.345V24zm9.911.221a8.262 8.262 0 0 1-5.06-1.783l1.43-2.2a6.662 6.662 0 0 0 3.718 1.409c.969 0 1.408-.353 1.408-.88v-.044c0-.726-1.143-.968-2.442-1.365-1.65-.484-3.521-1.253-3.521-3.543v-.043c0-2.4 1.937-3.741 4.314-3.741a8.154 8.154 0 0 1 4.4 1.365l-1.276 2.31a6.989 6.989 0 0 0-3.191-1.1c-.814 0-1.232.353-1.232.815v.044c0 .66 1.122.969 2.4 1.408 1.651.55 3.565 1.342 3.565 3.5v.045c-.002 2.613-1.96 3.803-4.513 3.803zM98.7 24.2c-2.046 0-3.432-.814-3.432-3.542v-5.59H93.86v-2.861h1.409V9.191h3.344v3.016h2.773v2.859h-2.773v5.039c0 .77.33 1.145 1.078 1.145a3.4 3.4 0 0 0 1.651-.418v2.684a4.934 4.934 0 0 1-2.642.684zm11.586-8.716c-2.222 0-3.586 1.343-3.586 4.16V24h-3.345V12.207h3.345v2.375a3.643 3.643 0 0 1 3.762-2.6v3.5zM118.407 24v-1.276a4.534 4.534 0 0 1-3.564 1.5c-2.223 0-4.049-1.278-4.049-3.61v-.044c0-2.574 1.958-3.762 4.753-3.762a8.384 8.384 0 0 1 2.882.484v-.2c0-1.386-.859-2.156-2.531-2.156a8.7 8.7 0 0 0-3.256.637l-.836-2.551a10.391 10.391 0 0 1 4.577-.947c3.652 0 5.259 1.893 5.259 5.083V24zm.066-4.752a5.176 5.176 0 0 0-2.134-.441c-1.431 0-2.311.572-2.311 1.629v.043c0 .9.748 1.431 1.826 1.431 1.563 0 2.619-.858 2.619-2.068zm9.29 4.952c-2.046 0-3.433-.814-3.433-3.542v-5.59h-1.408v-2.861h1.408V9.191h3.345v3.016h2.772v2.859h-2.772v5.039c0 .77.33 1.145 1.078 1.145a3.4 3.4 0 0 0 1.65-.418v2.684a4.93 4.93 0 0 1-2.64.684zm4.594-13.292v-2.97h3.521v2.97zM132.446 24V12.207h3.344V24zm11.474.264a6.129 6.129 0 0 1-6.359-6.095v-.044a6.386 6.386 0 0 1 12.761-.044v.044a6.189 6.189 0 0 1-6.402 6.139zm3.1-6.139a3.132 3.132 0 0 0-3.1-3.256 3.021 3.021 0 0 0-3.059 3.212v.044a3.134 3.134 0 0 0 3.1 3.257 3.021 3.021 0 0 0 3.057-3.213zM159.55 24v-6.579c0-1.584-.748-2.4-2.024-2.4s-2.09.814-2.09 2.4V24h-3.345V12.207h3.345v1.672a4.173 4.173 0 0 1 3.455-1.893c2.53 0 4 1.672 4 4.379V24zm9.767.221a8.262 8.262 0 0 1-5.06-1.783l1.431-2.2a6.659 6.659 0 0 0 3.717 1.409c.969 0 1.408-.353 1.408-.88v-.044c0-.726-1.143-.968-2.442-1.365-1.649-.484-3.52-1.253-3.52-3.543v-.043c0-2.4 1.936-3.741 4.313-3.741a8.154 8.154 0 0 1 4.4 1.365l-1.276 2.31a6.989 6.989 0 0 0-3.19-1.1c-.815 0-1.233.353-1.233.815v.044c0 .66 1.122.969 2.4 1.408 1.65.55 3.564 1.342 3.564 3.5v.045c-.001 2.613-1.959 3.803-4.512 3.803z" role="presentation"/><path fill-rule="evenodd" d="M20.52 13.131l-2.677-2.425-1.782 1.945 2.658 2.459 1.801-1.979zm-5.013.125l-5.177 5.651a2.015 2.015 0 0 0-.4.86l-.36 2.665 2.621-.577a2 2 0 0 0 .819-.473l5.159-5.666zm-1.009 8.916h7.661v-1.513h-6.284l-1.377 1.513z" role="presentation"/><path d="M26.973 2H5.027A3.027 3.027 0 0 0 2 5.027v21.946A3.027 3.027 0 0 0 5.027 30h21.946A3.027 3.027 0 0 0 30 26.973V5.027A3.027 3.027 0 0 0 26.973 2zm0 24.216a.757.757 0 0 1-.757.757H5.784a.757.757 0 0 1-.757-.757V5.784a.757.757 0 0 1 .757-.757h4.54v1.517a.753.753 0 0 0 .753.753h9.846a.753.753 0 0 0 .753-.753V5.027h4.54a.757.757 0 0 1 .757.757z" fill-rule="evenodd" role="presentation"/>
</symbol>

<symbol id="resources-app" class="symbol" viewBox="0 0 32 32">
  <title id="title-resources-app">resources-app icon</title><path d="M26.973 2H5.027A3.027 3.027 0 0 0 2 5.027v21.946A3.027 3.027 0 0 0 5.027 30h21.946A3.027 3.027 0 0 0 30 26.973V5.027A3.027 3.027 0 0 0 26.973 2zm0 24.216a.757.757 0 0 1-.757.757H5.784a.757.757 0 0 1-.757-.757V5.784a.757.757 0 0 1 .757-.757h4.54v1.517a.753.753 0 0 0 .753.753h9.846a.753.753 0 0 0 .753-.753V5.027h4.54a.757.757 0 0 1 .757.757z" fill-rule="evenodd" role="presentation"/><rect x="9" y="11" width="6" height="5" rx=".431" ry=".431"/><rect x="17" y="11" width="6" height="5" rx=".431" ry=".431"/><rect x="9" y="18" width="6" height="5" rx=".431" ry=".431"/><rect x="17" y="18" width="6" height="5" rx=".431" ry=".431"/>
</symbol>

<symbol id="resources-badge" class="symbol" viewBox="0 0 145 32">
  <title id="title-resources-badge">resources-badge icon</title><path d="M26.973 2H5.027A3.027 3.027 0 0 0 2 5.027v21.946A3.027 3.027 0 0 0 5.027 30h21.946A3.027 3.027 0 0 0 30 26.973V5.027A3.027 3.027 0 0 0 26.973 2zm0 24.216a.757.757 0 0 1-.757.757H5.784a.757.757 0 0 1-.757-.757V5.784a.757.757 0 0 1 .757-.757h4.54v1.517a.753.753 0 0 0 .753.753h9.846a.753.753 0 0 0 .753-.753V5.027h4.54a.757.757 0 0 1 .757.757z" fill-rule="evenodd" role="presentation"/><rect x="9" y="11" width="6" height="5" rx=".431" ry=".431"/><rect x="17" y="11" width="6" height="5" rx=".431" ry=".431"/><rect x="9" y="18" width="6" height="5" rx=".431" ry=".431"/><rect x="17" y="18" width="6" height="5" rx=".431" ry=".431"/><path d="M46.2 23l-3.3-4.929h-2.663V23h-3.388V7.6h7.041c3.631 0 5.808 1.914 5.808 5.083v.044A4.782 4.782 0 0 1 46.4 17.5l3.76 5.5zm.066-10.144c0-1.452-1.012-2.2-2.662-2.2h-3.367v4.422h3.433c1.649 0 2.6-.879 2.6-2.178zm16.247 5.414h-8.207a2.735 2.735 0 0 0 2.882 2.31 3.862 3.862 0 0 0 2.86-1.211l1.915 1.7a6.23 6.23 0 0 1-10.98-3.895v-.044a5.872 5.872 0 0 1 5.83-6.139c3.939 0 5.744 3.059 5.744 6.4v.045c0 .328-.023.525-.044.834zm-5.7-4.6a2.628 2.628 0 0 0-2.551 2.51H59.3a2.53 2.53 0 0 0-2.487-2.51zm11.573 9.551a8.262 8.262 0 0 1-5.061-1.783l1.43-2.2a6.662 6.662 0 0 0 3.719 1.409c.967 0 1.408-.353 1.408-.88v-.044c0-.726-1.145-.968-2.443-1.365-1.65-.484-3.52-1.253-3.52-3.543v-.043c0-2.4 1.936-3.741 4.312-3.741a8.157 8.157 0 0 1 4.4 1.365l-1.277 2.31a6.989 6.989 0 0 0-3.19-1.1c-.813 0-1.231.353-1.231.815v.044c0 .66 1.122.969 2.4 1.408 1.649.55 3.564 1.342 3.564 3.5v.045c.003 2.613-1.959 3.803-4.511 3.803zm11.883.043a6.13 6.13 0 0 1-6.36-6.095v-.044a6.387 6.387 0 0 1 12.762-.044v.044a6.19 6.19 0 0 1-6.402 6.139zm3.1-6.139a3.133 3.133 0 0 0-3.1-3.256 3.021 3.021 0 0 0-3.059 3.212v.044a3.134 3.134 0 0 0 3.1 3.257 3.021 3.021 0 0 0 3.058-3.213zM95.77 23v-1.672a4.176 4.176 0 0 1-3.456 1.893c-2.53 0-4-1.673-4-4.379v-7.635h3.343v6.578c0 1.584.749 2.4 2.025 2.4s2.091-.815 2.091-2.4v-6.578h3.344V23zm12.677-8.516c-2.221 0-3.586 1.343-3.586 4.16V23h-3.344V11.207h3.344v2.375a3.644 3.644 0 0 1 3.762-2.6v3.5zm7.025 8.78a6.023 6.023 0 0 1-6.139-6.095v-.044a6.055 6.055 0 0 1 6.183-6.139 5.8 5.8 0 0 1 4.709 1.981l-2.046 2.2a3.447 3.447 0 0 0-2.685-1.3 3.012 3.012 0 0 0-2.86 3.212v.044a3.022 3.022 0 0 0 2.992 3.257 3.735 3.735 0 0 0 2.706-1.255l1.959 1.98a5.942 5.942 0 0 1-4.819 2.159zM132.4 18.27h-8.207a2.736 2.736 0 0 0 2.882 2.31 3.864 3.864 0 0 0 2.861-1.211l1.914 1.7a6.23 6.23 0 0 1-10.98-3.895v-.044a5.873 5.873 0 0 1 5.831-6.139c3.939 0 5.742 3.059 5.742 6.4v.045c-.005.328-.026.525-.043.834zm-5.7-4.6c-1.386 0-2.288.99-2.552 2.51h5.039a2.532 2.532 0 0 0-2.487-2.51zm11.568 9.551a8.264 8.264 0 0 1-5.061-1.783l1.431-2.2a6.659 6.659 0 0 0 3.717 1.409c.969 0 1.409-.353 1.409-.88v-.044c0-.726-1.144-.968-2.443-1.365-1.649-.484-3.52-1.253-3.52-3.543v-.043c0-2.4 1.936-3.741 4.313-3.741a8.16 8.16 0 0 1 4.4 1.365l-1.277 2.31a6.989 6.989 0 0 0-3.19-1.1c-.815 0-1.233.353-1.233.815v.044c0 .66 1.123.969 2.4 1.408 1.65.55 3.564 1.342 3.564 3.5v.045c0 2.613-1.958 3.803-4.51 3.803z" role="presentation"/>
</symbol>

<symbol id="services-app" class="symbol" viewBox="0 0 32 32">
  <title id="title-services-app">services-app icon</title><path d="M26.973 2H5.027A3.027 3.027 0 0 0 2 5.027v21.946A3.027 3.027 0 0 0 5.027 30h21.946A3.027 3.027 0 0 0 30 26.973V5.027A3.027 3.027 0 0 0 26.973 2zm0 24.216a.757.757 0 0 1-.757.757H5.784a.757.757 0 0 1-.757-.757V5.784a.757.757 0 0 1 .757-.757h4.54v1.517a.753.753 0 0 0 .753.753h9.846a.753.753 0 0 0 .753-.753V5.027h4.54a.757.757 0 0 1 .757.757z" fill-rule="evenodd" role="presentation"/><rect x="9" y="10" width="14" height="3" rx=".464" ry=".464"/><rect x="9" y="15" width="14" height="3" rx=".464" ry=".464"/><rect x="9" y="20" width="14" height="3" rx=".464" ry=".464"/>
</symbol>

<symbol id="services-badge" class="symbol" viewBox="0 0 125 32">
  <title id="title-services-badge">services-badge icon</title><path d="M26.973 2H5.027A3.027 3.027 0 0 0 2 5.027v21.946A3.027 3.027 0 0 0 5.027 30h21.946A3.027 3.027 0 0 0 30 26.973V5.027A3.027 3.027 0 0 0 26.973 2zm0 24.216a.757.757 0 0 1-.757.757H5.784a.757.757 0 0 1-.757-.757V5.784a.757.757 0 0 1 .757-.757h4.54v1.517a.753.753 0 0 0 .753.753h9.846a.753.753 0 0 0 .753-.753V5.027h4.54a.757.757 0 0 1 .757.757z" fill-rule="evenodd" role="presentation"/><rect x="9" y="10" width="14" height="3" rx=".464" ry=".464"/><rect x="9" y="15" width="14" height="3" rx=".464" ry=".464"/><rect x="9" y="20" width="14" height="3" rx=".464" ry=".464"/><path d="M42.327 23.221a9.805 9.805 0 0 1-6.535-2.465l2-2.4a7.061 7.061 0 0 0 4.6 1.871c1.385 0 2.221-.55 2.221-1.453v-.044c0-.858-.527-1.3-3.1-1.958-3.1-.793-5.1-1.65-5.1-4.709v-.043c0-2.794 2.244-4.643 5.391-4.643a8.92 8.92 0 0 1 5.722 1.958l-1.766 2.554a7.221 7.221 0 0 0-4-1.519c-1.3 0-1.98.6-1.98 1.343v.043c0 1.013.66 1.343 3.323 2.025 3.124.814 4.884 1.936 4.884 4.62v.044c-.005 3.055-2.338 4.776-5.66 4.776zm18.512-4.951h-8.207a2.736 2.736 0 0 0 2.882 2.31 3.862 3.862 0 0 0 2.86-1.211l1.915 1.7a6.229 6.229 0 0 1-10.979-3.9v-.044a5.871 5.871 0 0 1 5.83-6.139c3.938 0 5.743 3.059 5.743 6.4v.045c0 .333-.023.53-.044.839zm-5.7-4.6c-1.386 0-2.288.99-2.552 2.51h5.038a2.529 2.529 0 0 0-2.485-2.51zm14.477.814c-2.222 0-3.587 1.343-3.587 4.16V23h-3.344V11.207h3.344v2.375a3.645 3.645 0 0 1 3.763-2.6v3.5zm8.528 8.604h-3.038l-4.642-11.881h3.543l2.64 7.9 2.663-7.9h3.476zm5.766-13.18v-2.97h3.521v2.97zM84 23V11.207h3.344V23zm11.3.264a6.023 6.023 0 0 1-6.139-6.095v-.044a6.055 6.055 0 0 1 6.183-6.139 5.8 5.8 0 0 1 4.709 1.981L98 15.167a3.447 3.447 0 0 0-2.685-1.3 3.013 3.013 0 0 0-2.86 3.212v.044a3.022 3.022 0 0 0 2.992 3.257 3.735 3.735 0 0 0 2.706-1.255l1.959 1.98a5.941 5.941 0 0 1-4.812 2.159zm16.919-4.994h-8.207a2.736 2.736 0 0 0 2.883 2.31 3.862 3.862 0 0 0 2.86-1.211l1.914 1.7a6.23 6.23 0 0 1-10.98-3.895v-.044a5.873 5.873 0 0 1 5.832-6.139c3.938 0 5.742 3.059 5.742 6.4v.045c0 .328-.022.525-.044.834zm-5.7-4.6a2.629 2.629 0 0 0-2.553 2.51h5.039a2.53 2.53 0 0 0-2.484-2.51zm11.573 9.551a8.264 8.264 0 0 1-5.061-1.783l1.431-2.2a6.659 6.659 0 0 0 3.718 1.409c.968 0 1.408-.353 1.408-.88v-.044c0-.726-1.144-.968-2.442-1.365-1.65-.484-3.521-1.253-3.521-3.543v-.043c0-2.4 1.937-3.741 4.313-3.741a8.157 8.157 0 0 1 4.4 1.365l-1.277 2.31a6.989 6.989 0 0 0-3.19-1.1c-.814 0-1.232.353-1.232.815v.044c0 .66 1.122.969 2.4 1.408 1.65.55 3.565 1.342 3.565 3.5v.045c-.004 2.613-1.959 3.803-4.512 3.803z" role="presentation"/>
</symbol>
    </svg>