<svg xmlns="http://www.w3.org/2000/svg" xmlns:xlink="http://www.w3.org/1999/xlink">
    
<symbol id="accounts-app" class="symbol" viewBox="0 0 32 32">
  <title>accounts-app</title><path d="M26.973,2H5.027A3.027,3.027,0,0,0,2,5.027V26.973A3.027,3.027,0,0,0,5.027,30H26.973A3.027,3.027,0,0,0,30,26.973V5.027A3.027,3.027,0,0,0,26.973,2Zm0,24.216a.757.757,0,0,1-.757.757H5.784a.757.757,0,0,1-.757-.757V5.784a.757.757,0,0,1,.757-.757h4.54V6.544a.753.753,0,0,0,.753.753h9.846a.753.753,0,0,0,.753-.753V5.027h4.54a.757.757,0,0,1,.757.757Z" fill-rule="evenodd"/><path d="M22.588,15.839v-.01a.278.278,0,0,0-.194-.235.285.285,0,0,0-.044-.009l-.01,0-.9-.1a1.38,1.38,0,0,1-.875-2.112l.566-.7.013-.021.006-.01a.219.219,0,0,0,.016-.03.166.166,0,0,0,.012-.031l0-.011a.278.278,0,0,0-.05-.246l-.008-.01-.012-.014-.906-.906-.015-.013-.008-.006a.277.277,0,0,0-.3-.029.4.4,0,0,0-.038.024l-.008.006-.706.565a1.379,1.379,0,0,1-2.112-.874l-.1-.9a.21.21,0,0,0-.006-.024l0-.012a.3.3,0,0,0-.01-.032.209.209,0,0,0-.014-.03l-.005-.011a.276.276,0,0,0-.209-.138l-.013,0-.019,0H15.358l-.019,0h-.01a.278.278,0,0,0-.235.194.312.312,0,0,0-.009.044l0,.01-.1.9a1.379,1.379,0,0,1-2.112.875l-.7-.566-.021-.013-.01-.006a.219.219,0,0,0-.03-.016.166.166,0,0,0-.031-.012l-.011,0a.278.278,0,0,0-.246.05l-.01.009-.014.011-.907.906-.012.015-.006.008a.277.277,0,0,0-.029.3.4.4,0,0,0,.024.038l.006.008q.282.354.565.706a1.377,1.377,0,0,1-.874,2.112l-.9.1a.168.168,0,0,0-.024.006l-.012,0-.032.01-.031.014-.01,0a.276.276,0,0,0-.138.209l0,.013,0,.019v1.281l0,.019v.01a.278.278,0,0,0,.194.235.312.312,0,0,0,.044.009l.01,0,.9.1a1.377,1.377,0,0,1,.875,2.112l-.566.7a.239.239,0,0,0-.013.021l-.006.01a.219.219,0,0,0-.016.03.166.166,0,0,0-.012.031l0,.011a.278.278,0,0,0,.05.246l.009.01.011.014.906.907.015.012.008.006a.277.277,0,0,0,.3.029.4.4,0,0,0,.038-.024l.008-.006.706-.565a1.382,1.382,0,0,1,2.112.875l.1.9a.168.168,0,0,0,.006.024l0,.012a.3.3,0,0,0,.01.032.292.292,0,0,0,.014.031l0,.01a.276.276,0,0,0,.209.138l.013,0,.019,0h1.281l.019,0h.01a.278.278,0,0,0,.235-.194.285.285,0,0,0,.009-.044l0-.01.1-.9a1.376,1.376,0,0,1,2.112-.876l.7.566.021.013.01.006a.219.219,0,0,0,.03.016.166.166,0,0,0,.031.012l.011,0a.278.278,0,0,0,.246-.05l.01-.008.014-.012.907-.906.012-.015.006-.008a.277.277,0,0,0,.029-.3.4.4,0,0,0-.024-.038l-.006-.008-.565-.706a1.377,1.377,0,0,1,.875-2.112l.9-.1.024-.005.012,0,.032-.01a.173.173,0,0,0,.031-.014l.01-.005a.276.276,0,0,0,.138-.209l0-.013,0-.019V15.858ZM16,18.748A2.248,2.248,0,1,1,18.248,16.5,2.249,2.249,0,0,1,16,18.748Z"/>
</symbol>

<symbol id="accounts-badge" class="symbol" viewBox="0 0 136 32">
  <title>accounts-badge</title><path d="M48.312,23,46.9,19.545H40.391L38.982,23H35.528l6.6-15.512h3.125L51.854,23ZM43.647,11.558l-2.045,5h4.091Z"/><path d="M58.251,23.264a6.021,6.021,0,0,1-6.139-6.095v-.044A6.056,6.056,0,0,1,58.3,10.986,5.8,5.8,0,0,1,63,12.966l-2.047,2.2a3.445,3.445,0,0,0-2.685-1.3,3.014,3.014,0,0,0-2.86,3.212v.044A3.022,3.022,0,0,0,58.4,20.382a3.737,3.737,0,0,0,2.707-1.255l1.958,1.981A5.938,5.938,0,0,1,58.251,23.264Z"/><path d="M69.711,23.264a6.021,6.021,0,0,1-6.139-6.095v-.044a6.055,6.055,0,0,1,6.183-6.139,5.8,5.8,0,0,1,4.709,1.98l-2.047,2.2a3.445,3.445,0,0,0-2.685-1.3,3.014,3.014,0,0,0-2.86,3.212v.044a3.022,3.022,0,0,0,2.992,3.257,3.737,3.737,0,0,0,2.707-1.255l1.958,1.981A5.938,5.938,0,0,1,69.711,23.264Z"/><path d="M81.391,23.264a6.13,6.13,0,0,1-6.36-6.095v-.044a6.387,6.387,0,0,1,12.762-.044v.044A6.19,6.19,0,0,1,81.391,23.264Zm3.1-6.139a3.133,3.133,0,0,0-3.1-3.256,3.021,3.021,0,0,0-3.059,3.212v.044a3.134,3.134,0,0,0,3.1,3.257,3.021,3.021,0,0,0,3.057-3.213Z"/><path d="M96.892,23V21.328a4.175,4.175,0,0,1-3.455,1.892c-2.531,0-4-1.672-4-4.379V11.207h3.343v6.578c0,1.585.749,2.4,2.025,2.4s2.091-.814,2.091-2.4V11.207h3.344V23Z"/><path d="M110.1,23V16.421c0-1.584-.748-2.4-2.025-2.4s-2.09.814-2.09,2.4V23h-3.344V11.207h3.344v1.671a4.172,4.172,0,0,1,3.455-1.892c2.53,0,4,1.673,4,4.379V23Z"/><path d="M119.628,23.2c-2.047,0-3.433-.814-3.433-3.542V14.067h-1.408v-2.86H116.2V8.192h3.344v3.015h2.773v2.86h-2.773v5.038c0,.77.33,1.145,1.078,1.145a3.4,3.4,0,0,0,1.651-.418v2.684A4.932,4.932,0,0,1,119.628,23.2Z"/><path d="M128.293,23.22a8.265,8.265,0,0,1-5.061-1.782l1.431-2.2a6.659,6.659,0,0,0,3.718,1.409c.969,0,1.408-.353,1.408-.88v-.044c0-.726-1.143-.969-2.442-1.365-1.65-.484-3.521-1.254-3.521-3.542v-.044c0-2.4,1.937-3.741,4.314-3.741a8.154,8.154,0,0,1,4.4,1.365l-1.276,2.31a6.989,6.989,0,0,0-3.191-1.1c-.814,0-1.232.353-1.232.815v.044c0,.66,1.122.968,2.4,1.408,1.651.55,3.565,1.342,3.565,3.5v.044C132.8,22.032,130.846,23.22,128.293,23.22Z"/><path d="M26.973,2H5.027A3.027,3.027,0,0,0,2,5.027V26.973A3.027,3.027,0,0,0,5.027,30H26.973A3.027,3.027,0,0,0,30,26.973V5.027A3.027,3.027,0,0,0,26.973,2Zm0,24.216a.757.757,0,0,1-.757.757H5.784a.757.757,0,0,1-.757-.757V5.784a.757.757,0,0,1,.757-.757h4.54V6.544a.753.753,0,0,0,.753.753h9.846a.753.753,0,0,0,.753-.753V5.027h4.54a.757.757,0,0,1,.757.757Z" fill-rule="evenodd"/><path d="M22.588,15.839v-.01a.278.278,0,0,0-.194-.235.285.285,0,0,0-.044-.009l-.01,0-.9-.1a1.38,1.38,0,0,1-.875-2.112l.566-.7.013-.021.006-.01a.219.219,0,0,0,.016-.03.166.166,0,0,0,.012-.031l0-.011a.278.278,0,0,0-.05-.246l-.008-.01-.012-.014-.906-.906-.015-.013-.008-.006a.277.277,0,0,0-.3-.029.4.4,0,0,0-.038.024l-.008.006-.706.565a1.379,1.379,0,0,1-2.112-.874l-.1-.9a.21.21,0,0,0-.006-.024l0-.012a.3.3,0,0,0-.01-.032.209.209,0,0,0-.014-.03l-.005-.011a.276.276,0,0,0-.209-.138l-.013,0-.019,0H15.358l-.019,0h-.01a.278.278,0,0,0-.235.194.312.312,0,0,0-.009.044l0,.01-.1.9a1.379,1.379,0,0,1-2.112.875l-.7-.566-.021-.013-.01-.006a.219.219,0,0,0-.03-.016.166.166,0,0,0-.031-.012l-.011,0a.278.278,0,0,0-.246.05l-.01.009-.014.011-.907.906-.012.015-.006.008a.277.277,0,0,0-.029.3.4.4,0,0,0,.024.038l.006.008q.282.354.565.706a1.377,1.377,0,0,1-.874,2.112l-.9.1a.168.168,0,0,0-.024.006l-.012,0-.032.01-.031.014-.01,0a.276.276,0,0,0-.138.209l0,.013,0,.019v1.281l0,.019v.01a.278.278,0,0,0,.194.235.312.312,0,0,0,.044.009l.01,0,.9.1a1.377,1.377,0,0,1,.875,2.112l-.566.7a.239.239,0,0,0-.013.021l-.006.01a.219.219,0,0,0-.016.03.166.166,0,0,0-.012.031l0,.011a.278.278,0,0,0,.05.246l.009.01.011.014.906.907.015.012.008.006a.277.277,0,0,0,.3.029.4.4,0,0,0,.038-.024l.008-.006.706-.565a1.382,1.382,0,0,1,2.112.875l.1.9a.168.168,0,0,0,.006.024l0,.012a.3.3,0,0,0,.01.032.292.292,0,0,0,.014.031l0,.01a.276.276,0,0,0,.209.138l.013,0,.019,0h1.281l.019,0h.01a.278.278,0,0,0,.235-.194.285.285,0,0,0,.009-.044l0-.01.1-.9a1.376,1.376,0,0,1,2.112-.876l.7.566.021.013.01.006a.219.219,0,0,0,.03.016.166.166,0,0,0,.031.012l.011,0a.278.278,0,0,0,.246-.05l.01-.008.014-.012.907-.906.012-.015.006-.008a.277.277,0,0,0,.029-.3.4.4,0,0,0-.024-.038l-.006-.008-.565-.706a1.377,1.377,0,0,1,.875-2.112l.9-.1.024-.005.012,0,.032-.01a.173.173,0,0,0,.031-.014l.01-.005a.276.276,0,0,0,.138-.209l0-.013,0-.019V15.858ZM16,18.748A2.248,2.248,0,1,1,18.248,16.5,2.249,2.249,0,0,1,16,18.748Z"/>
</symbol>

<symbol id="api-app" class="symbol" viewBox="0 0 32 32">
  <title>api-app</title><path d="M26.973,2H5.027A3.027,3.027,0,0,0,2,5.027V26.973A3.027,3.027,0,0,0,5.027,30H26.973A3.027,3.027,0,0,0,30,26.973V5.027A3.027,3.027,0,0,0,26.973,2Zm0,24.216a.757.757,0,0,1-.757.757H5.784a.757.757,0,0,1-.757-.757V5.784a.757.757,0,0,1,.757-.757h4.54V6.544a.753.753,0,0,0,.753.753h9.846a.753.753,0,0,0,.753-.753V5.027h4.54a.757.757,0,0,1,.757.757Z" fill-rule="evenodd"/><path d="M16.235,15.211l.87-1.508L14.952,12.46l-.882,1.528a3.814,3.814,0,0,0-.689-.07,3.856,3.856,0,0,0-.757.077l-.879-1.522L9.592,13.716l.893,1.546A3.826,3.826,0,0,0,9.769,16.5H8v2.486H9.759a3.805,3.805,0,0,0,.724,1.267l-.868,1.5L11.768,23l.853-1.478a3.783,3.783,0,0,0,1.509,0l.845,1.463,2.153-1.243-.856-1.483a3.8,3.8,0,0,0,.739-1.3H18.72V16.473H16.985A3.817,3.817,0,0,0,16.235,15.211Zm-4.946,2.548a2.092,2.092,0,1,1,2.092,2.092A2.092,2.092,0,0,1,11.289,17.759Z"/><path d="M19.779,10.28v1.16a2.312,2.312,0,0,0-.293.132,2.4,2.4,0,0,0-1.181,2.373l-.966.558.906,1.57.952-.55a2.3,2.3,0,0,0,2.968,0l.957.553.906-1.57-.972-.561a2.352,2.352,0,0,0-1.465-2.505V10.28Zm1.353,4.141a.892.892,0,1,1,.326-1.219A.892.892,0,0,1,21.132,14.421Z"/>
</symbol>

<symbol id="api-badge" class="symbol" viewBox="0 0 187 32">
  <title>api-badge</title><path d="M26.973,2H5.027A3.027,3.027,0,0,0,2,5.027V26.973A3.027,3.027,0,0,0,5.027,30H26.973A3.027,3.027,0,0,0,30,26.973V5.027A3.027,3.027,0,0,0,26.973,2Zm0,24.216a.757.757,0,0,1-.757.757H5.784a.757.757,0,0,1-.757-.757V5.784a.757.757,0,0,1,.757-.757h4.54V6.544a.753.753,0,0,0,.753.753h9.846a.753.753,0,0,0,.753-.753V5.027h4.54a.757.757,0,0,1,.757.757Z" fill-rule="evenodd"/><path d="M16.235,15.211l.87-1.508L14.952,12.46l-.882,1.528a3.814,3.814,0,0,0-.689-.07,3.856,3.856,0,0,0-.757.077l-.879-1.522L9.592,13.716l.893,1.546A3.826,3.826,0,0,0,9.769,16.5H8v2.486H9.759a3.805,3.805,0,0,0,.724,1.267l-.868,1.5L11.768,23l.853-1.478a3.783,3.783,0,0,0,1.509,0l.845,1.463,2.153-1.243-.856-1.483a3.8,3.8,0,0,0,.739-1.3H18.72V16.473H16.985A3.817,3.817,0,0,0,16.235,15.211Zm-4.946,2.548a2.092,2.092,0,1,1,2.092,2.092A2.092,2.092,0,0,1,11.289,17.759Z"/><path d="M19.779,10.28v1.16a2.312,2.312,0,0,0-.293.132,2.4,2.4,0,0,0-1.181,2.373l-.966.558.906,1.57.952-.55a2.3,2.3,0,0,0,2.968,0l.957.553.906-1.57-.972-.561a2.352,2.352,0,0,0-1.465-2.505V10.28Zm1.353,4.141a.892.892,0,1,1,.326-1.219A.892.892,0,0,1,21.132,14.421Z"/><path d="M42.906,24.09H36.9V8.688h6.007c4.841,0,8.186,3.322,8.186,7.657v.044C51.092,20.723,47.747,24.09,42.906,24.09Zm4.643-7.7a4.424,4.424,0,0,0-4.643-4.643H40.288v9.285h2.618a4.389,4.389,0,0,0,4.643-4.6Z"/><path d="M64.071,19.359H55.864a2.735,2.735,0,0,0,2.882,2.31,3.864,3.864,0,0,0,2.86-1.21l1.915,1.7a6.23,6.23,0,0,1-10.98-3.895v-.044a5.872,5.872,0,0,1,5.831-6.139c3.938,0,5.743,3.059,5.743,6.4v.044C64.115,18.853,64.093,19.051,64.071,19.359Zm-5.7-4.6a2.629,2.629,0,0,0-2.552,2.509h5.038A2.529,2.529,0,0,0,58.372,14.76Z"/><path d="M72.031,24.178H68.994L64.351,12.3h3.543l2.64,7.9L73.2,12.3h3.476Z"/><path d="M88.266,19.359H80.059a2.736,2.736,0,0,0,2.883,2.31,3.864,3.864,0,0,0,2.86-1.21l1.915,1.7a6.23,6.23,0,0,1-10.98-3.895v-.044a5.872,5.872,0,0,1,5.831-6.139c3.938,0,5.742,3.059,5.742,6.4v.044C88.31,18.853,88.288,19.051,88.266,19.359Zm-5.7-4.6c-1.387,0-2.288.99-2.553,2.509h5.039A2.529,2.529,0,0,0,82.568,14.76Z"/><path d="M90.311,24.09V8.027h3.344V24.09Z"/><path d="M101.51,24.354a6.13,6.13,0,0,1-6.359-6.095v-.044a6.386,6.386,0,0,1,12.761-.044v.044A6.189,6.189,0,0,1,101.51,24.354Zm3.1-6.139a3.134,3.134,0,0,0-3.1-3.257,3.022,3.022,0,0,0-3.059,3.213v.044a3.134,3.134,0,0,0,3.1,3.257,3.022,3.022,0,0,0,3.059-3.213Z"/><path d="M116.271,24.31a4.528,4.528,0,0,1-3.674-1.76v5.06h-3.345V12.3H112.6V13.99a4.331,4.331,0,0,1,3.674-1.914c2.751,0,5.369,2.156,5.369,6.095v.044C121.64,22.154,119.066,24.31,116.271,24.31Zm2.025-6.139a2.894,2.894,0,1,0-5.743,0v.044a2.894,2.894,0,1,0,5.743,0Z"/><path d="M134.421,19.359h-8.207a2.735,2.735,0,0,0,2.882,2.31,3.865,3.865,0,0,0,2.861-1.21l1.914,1.7a6.229,6.229,0,0,1-10.979-3.895v-.044a5.872,5.872,0,0,1,5.83-6.139c3.939,0,5.744,3.059,5.744,6.4v.044C134.466,18.853,134.443,19.051,134.421,19.359Zm-5.7-4.6a2.629,2.629,0,0,0-2.552,2.509h5.039A2.529,2.529,0,0,0,128.722,14.76Z"/><path d="M143.243,15.575c-2.223,0-3.587,1.342-3.587,4.158V24.09h-3.344V12.3h3.344v2.376a3.643,3.643,0,0,1,3.763-2.6v3.5Z"/><path d="M162.646,24.09l-1.408-3.455h-6.513l-1.408,3.455h-3.454l6.6-15.512h3.125l6.6,15.512Zm-4.664-11.442-2.047,5h4.093Z"/><path d="M173.009,19.469h-2.576V24.09h-3.387V8.688h6.293c3.673,0,5.9,2.178,5.9,5.324v.044C179.235,17.621,176.463,19.469,173.009,19.469Zm2.794-5.39c0-1.519-1.056-2.333-2.75-2.333h-2.62v4.709h2.685a2.386,2.386,0,0,0,2.685-2.332Z"/><path d="M181.7,24.09V8.688h3.389v15.4Z"/>
</symbol>

<symbol id="check-ins-app" class="symbol" viewBox="0 0 32 32">
  <title>check-ins-app</title><path d="M19.846,11.606,14.352,17.1l-2.2-2.2a1.554,1.554,0,1,0-2.2,2.2l3.3,3.295a1.553,1.553,0,0,0,2.2,0L22.043,13.8a1.554,1.554,0,0,0-2.2-2.2Z" fill-rule="evenodd"/><path d="M26.973,2H5.027A3.027,3.027,0,0,0,2,5.027V26.973A3.027,3.027,0,0,0,5.027,30H26.973A3.027,3.027,0,0,0,30,26.973V5.027A3.027,3.027,0,0,0,26.973,2Zm0,24.216a.757.757,0,0,1-.757.757H5.784a.757.757,0,0,1-.757-.757V5.784a.757.757,0,0,1,.757-.757h4.54V6.544a.753.753,0,0,0,.753.753h9.846a.753.753,0,0,0,.753-.753V5.027h4.54a.757.757,0,0,1,.757.757Z" fill-rule="evenodd"/>
</symbol>

<symbol id="check-ins-badge" class="symbol" viewBox="0 0 140 32">
  <title>check-ins-badge</title><path d="M19.846,11.606,14.352,17.1l-2.2-2.2a1.554,1.554,0,1,0-2.2,2.2l3.3,3.295a1.553,1.553,0,0,0,2.2,0L22.043,13.8a1.554,1.554,0,0,0-2.2-2.2Z" fill-rule="evenodd"/><path d="M26.973,2H5.027A3.027,3.027,0,0,0,2,5.027V26.973A3.027,3.027,0,0,0,5.027,30H26.973A3.027,3.027,0,0,0,30,26.973V5.027A3.027,3.027,0,0,0,26.973,2Zm0,24.216a.757.757,0,0,1-.757.757H5.784a.757.757,0,0,1-.757-.757V5.784a.757.757,0,0,1,.757-.757h4.54V6.544a.753.753,0,0,0,.753.753h9.846a.753.753,0,0,0,.753-.753V5.027h4.54a.757.757,0,0,1,.757.757Z" fill-rule="evenodd"/><path d="M44.065,23.264a7.774,7.774,0,0,1-7.9-7.921V15.3A7.829,7.829,0,0,1,44.2,7.333,7.951,7.951,0,0,1,50.271,9.71L48.114,12.2a5.683,5.683,0,0,0-3.938-1.738,4.564,4.564,0,0,0-4.467,4.8V15.3a4.575,4.575,0,0,0,4.467,4.841,5.56,5.56,0,0,0,4.049-1.8l2.156,2.179A7.876,7.876,0,0,1,44.065,23.264Z"/><path d="M59.3,23V16.421c0-1.584-.748-2.4-2.025-2.4s-2.089.814-2.089,2.4V23H51.837V6.938h3.345v5.94a4.169,4.169,0,0,1,3.454-1.892c2.53,0,4,1.673,4,4.379V23Z"/><path d="M75.884,18.27H67.677a2.735,2.735,0,0,0,2.883,2.31,3.864,3.864,0,0,0,2.86-1.21l1.914,1.694a6.23,6.23,0,0,1-10.98-3.895v-.044a5.873,5.873,0,0,1,5.832-6.139c3.938,0,5.742,3.059,5.742,6.4v.044C75.928,17.763,75.906,17.961,75.884,18.27Zm-5.7-4.6a2.63,2.63,0,0,0-2.553,2.509h5.039A2.53,2.53,0,0,0,70.186,13.67Z"/><path d="M83.251,23.264a6.021,6.021,0,0,1-6.139-6.095v-.044A6.056,6.056,0,0,1,83.3,10.986,5.8,5.8,0,0,1,88,12.966l-2.047,2.2a3.445,3.445,0,0,0-2.685-1.3,3.014,3.014,0,0,0-2.86,3.212v.044A3.022,3.022,0,0,0,83.4,20.382a3.737,3.737,0,0,0,2.707-1.255l1.958,1.981A5.938,5.938,0,0,1,83.251,23.264Z"/><path d="M97.071,23l-3.08-4.819-1.166,1.233V23H89.48V6.938h3.345V15.5l3.916-4.29h4l-4.489,4.642L100.9,23Z"/><path d="M100.658,17.785V14.573h6.778v3.212Z"/><path d="M110.272,23V7.6h3.389V23Z"/><path d="M123.946,23V16.421c0-1.584-.748-2.4-2.024-2.4s-2.09.814-2.09,2.4V23h-3.345V11.207h3.345v1.671a4.172,4.172,0,0,1,3.454-1.892c2.53,0,4,1.673,4,4.379V23Z"/><path d="M133.714,23.22a8.261,8.261,0,0,1-5.061-1.782l1.43-2.2a6.662,6.662,0,0,0,3.719,1.409c.968,0,1.408-.353,1.408-.88v-.044c0-.726-1.145-.969-2.442-1.365-1.651-.484-3.521-1.254-3.521-3.542v-.044c0-2.4,1.937-3.741,4.313-3.741a8.154,8.154,0,0,1,4.4,1.365l-1.276,2.31a6.989,6.989,0,0,0-3.191-1.1c-.813,0-1.231.353-1.231.815v.044c0,.66,1.122.968,2.4,1.408,1.65.55,3.565,1.342,3.565,3.5v.044C138.225,22.032,136.266,23.22,133.714,23.22Z"/>
</symbol>

<symbol id="giving-app" class="symbol" viewBox="0 0 32 32">
  <title>giving-app</title><path d="M16.422,12.856,16,13.278l-.422-.422a3.283,3.283,0,0,0-4.354-.347,3.161,3.161,0,0,0-.243,4.688l.551.55,4.114,4.115a.5.5,0,0,0,.708,0L21.019,17.2a3.161,3.161,0,0,0-.243-4.688A3.284,3.284,0,0,0,16.422,12.856Z"/><path d="M26.973,2H5.027A3.027,3.027,0,0,0,2,5.027V26.973A3.027,3.027,0,0,0,5.027,30H26.973A3.027,3.027,0,0,0,30,26.973V5.027A3.027,3.027,0,0,0,26.973,2Zm0,24.216a.757.757,0,0,1-.757.757H5.784a.757.757,0,0,1-.757-.757V5.784a.757.757,0,0,1,.757-.757h4.54V6.544a.753.753,0,0,0,.753.753h9.846a.753.753,0,0,0,.753-.753V5.027h4.54a.757.757,0,0,1,.757.757Z" fill-rule="evenodd"/>
</symbol>

<symbol id="giving-badge" class="symbol" viewBox="0 0 104 32">
  <title>giving-badge</title><path d="M16.422,12.856,16,13.278l-.422-.422a3.283,3.283,0,0,0-4.354-.347,3.161,3.161,0,0,0-.243,4.688l.551.55,4.114,4.115a.5.5,0,0,0,.708,0L21.019,17.2a3.161,3.161,0,0,0-.243-4.688A3.284,3.284,0,0,0,16.422,12.856Z"/><path d="M26.973,2H5.027A3.027,3.027,0,0,0,2,5.027V26.973A3.027,3.027,0,0,0,5.027,30H26.973A3.027,3.027,0,0,0,30,26.973V5.027A3.027,3.027,0,0,0,26.973,2Zm0,24.216a.757.757,0,0,1-.757.757H5.784a.757.757,0,0,1-.757-.757V5.784a.757.757,0,0,1,.757-.757h4.54V6.544a.753.753,0,0,0,.753.753h9.846a.753.753,0,0,0,.753-.753V5.027h4.54a.757.757,0,0,1,.757.757Z" fill-rule="evenodd"/><path d="M44.264,23.264a7.709,7.709,0,0,1-8.1-7.921V15.3a7.906,7.906,0,0,1,8.075-7.966,8.455,8.455,0,0,1,6.051,2.113l-2.134,2.575a5.667,5.667,0,0,0-4.026-1.563,4.627,4.627,0,0,0-4.423,4.8V15.3a4.616,4.616,0,0,0,4.665,4.885,5.409,5.409,0,0,0,3.19-.925v-2.2H44.153V14.133h6.69v6.689A10,10,0,0,1,44.264,23.264Z"/><path d="M53.271,9.908V6.938h3.521v2.97ZM53.359,23V11.207H56.7V23Z"/><path d="M65.563,23.088H62.526L57.884,11.207h3.543l2.64,7.9,2.662-7.9h3.477Z"/><path d="M71.33,9.908V6.938h3.521v2.97ZM71.419,23V11.207h3.344V23Z"/><path d="M84.686,23V16.421c0-1.584-.748-2.4-2.025-2.4s-2.09.814-2.09,2.4V23H77.227V11.207h3.344v1.671a4.172,4.172,0,0,1,3.454-1.892c2.531,0,4,1.673,4,4.379V23Z"/><path d="M95.53,26.564a11.2,11.2,0,0,1-5.215-1.231l1.145-2.509A7.7,7.7,0,0,0,95.442,23.9c2.288,0,3.368-1.1,3.368-3.213v-.571a4.615,4.615,0,0,1-3.851,1.914,5.179,5.179,0,0,1-5.237-5.5v-.044a5.191,5.191,0,0,1,5.237-5.5,4.772,4.772,0,0,1,3.806,1.761v-1.54h3.344v9.13C102.109,24.782,99.909,26.564,95.53,26.564Zm3.28-10.077a2.876,2.876,0,0,0-5.744,0v.044a2.7,2.7,0,0,0,2.861,2.728,2.726,2.726,0,0,0,2.883-2.728Z"/>
</symbol>

<symbol id="groups-app" class="symbol" viewBox="0 0 32 32">
  <title>groups-app</title><path d="M26.973,2H5.027A3.027,3.027,0,0,0,2,5.027V26.973A3.027,3.027,0,0,0,5.027,30H26.973A3.027,3.027,0,0,0,30,26.973V5.027A3.027,3.027,0,0,0,26.973,2Zm0,24.216a.757.757,0,0,1-.757.757H5.784a.757.757,0,0,1-.757-.757V5.784a.757.757,0,0,1,.757-.757h4.54V6.544a.753.753,0,0,0,.753.753h9.846a.753.753,0,0,0,.753-.753V5.027h4.54a.757.757,0,0,1,.757.757Z" fill-rule="evenodd"/><path d="M23.189,12.973a2.643,2.643,0,0,0-5.032-1.135H13.843a2.643,2.643,0,1,0-3.519,3.519v3.556a2.643,2.643,0,1,0,3.519,3.519h4.314a2.643,2.643,0,1,0,3.519-3.519V15.357A2.642,2.642,0,0,0,23.189,12.973Zm-3.027,5.714a2.635,2.635,0,0,0-2.232,2.232H14.07a2.635,2.635,0,0,0-2.232-2.232v-3.1a2.634,2.634,0,0,0,2.232-2.232h3.86a2.634,2.634,0,0,0,2.232,2.232Z" fill-rule="evenodd"/>
</symbol>

<symbol id="groups-badge" class="symbol" viewBox="0 0 114 32">
  <title>groups-badge</title><path d="M26.973,2H5.027A3.027,3.027,0,0,0,2,5.027V26.973A3.027,3.027,0,0,0,5.027,30H26.973A3.027,3.027,0,0,0,30,26.973V5.027A3.027,3.027,0,0,0,26.973,2Zm0,24.216a.757.757,0,0,1-.757.757H5.784a.757.757,0,0,1-.757-.757V5.784a.757.757,0,0,1,.757-.757h4.54V6.544a.753.753,0,0,0,.753.753h9.846a.753.753,0,0,0,.753-.753V5.027h4.54a.757.757,0,0,1,.757.757Z" fill-rule="evenodd"/><path d="M23.189,12.973a2.643,2.643,0,0,0-5.032-1.135H13.843a2.643,2.643,0,1,0-3.519,3.519v3.556a2.643,2.643,0,1,0,3.519,3.519h4.314a2.643,2.643,0,1,0,3.519-3.519V15.357A2.642,2.642,0,0,0,23.189,12.973Zm-3.027,5.714a2.635,2.635,0,0,0-2.232,2.232H14.07a2.635,2.635,0,0,0-2.232-2.232v-3.1a2.634,2.634,0,0,0,2.232-2.232h3.86a2.634,2.634,0,0,0,2.232,2.232Z" fill-rule="evenodd"/><path d="M44.264,23.264a7.709,7.709,0,0,1-8.1-7.921V15.3a7.906,7.906,0,0,1,8.075-7.966,8.455,8.455,0,0,1,6.051,2.113l-2.134,2.575a5.667,5.667,0,0,0-4.026-1.563,4.627,4.627,0,0,0-4.423,4.8V15.3a4.616,4.616,0,0,0,4.665,4.885,5.409,5.409,0,0,0,3.19-.925v-2.2H44.153V14.133h6.69v6.689A10,10,0,0,1,44.264,23.264Z"/><path d="M60.269,14.485c-2.223,0-3.587,1.342-3.587,4.159V23H53.337V11.207h3.345v2.376a3.643,3.643,0,0,1,3.762-2.6v3.5Z"/><path d="M67.5,23.264a6.129,6.129,0,0,1-6.359-6.095v-.044A6.386,6.386,0,0,1,73.9,17.081v.044A6.189,6.189,0,0,1,67.5,23.264Zm3.1-6.139a3.133,3.133,0,0,0-3.1-3.256,3.021,3.021,0,0,0-3.059,3.212v.044a3.134,3.134,0,0,0,3.1,3.257A3.022,3.022,0,0,0,70.6,17.169Z"/><path d="M83,23V21.328a4.175,4.175,0,0,1-3.455,1.892c-2.53,0-4-1.672-4-4.379V11.207h3.344v6.578c0,1.585.749,2.4,2.024,2.4S83,19.37,83,17.785V11.207h3.345V23Z"/><path d="M95.767,23.22a4.527,4.527,0,0,1-3.674-1.76v5.061H88.748V11.207h3.345V12.9a4.328,4.328,0,0,1,3.674-1.914c2.751,0,5.369,2.157,5.369,6.095v.044C101.136,21.064,98.562,23.22,95.767,23.22Zm2.024-6.139a2.894,2.894,0,1,0-5.742,0v.044a2.894,2.894,0,1,0,5.742,0Z"/><path d="M107.017,23.22a8.263,8.263,0,0,1-5.061-1.782l1.431-2.2a6.659,6.659,0,0,0,3.717,1.409c.969,0,1.409-.353,1.409-.88v-.044c0-.726-1.144-.969-2.443-1.365-1.649-.484-3.52-1.254-3.52-3.542v-.044c0-2.4,1.936-3.741,4.313-3.741a8.16,8.16,0,0,1,4.4,1.365l-1.277,2.31a6.989,6.989,0,0,0-3.19-1.1c-.815,0-1.233.353-1.233.815v.044c0,.66,1.123.968,2.4,1.408,1.65.55,3.564,1.342,3.564,3.5v.044C111.527,22.032,109.569,23.22,107.017,23.22Z"/>
</symbol>

<symbol id="interfaces-app" class="symbol" viewBox="0 0 32 32">
  <title>interfaces-app</title><path d="M26.973,2H5.027A3.027,3.027,0,0,0,2,5.027V26.973A3.027,3.027,0,0,0,5.027,30H26.973A3.027,3.027,0,0,0,30,26.973V5.027A3.027,3.027,0,0,0,26.973,2Zm0,24.216a.757.757,0,0,1-.757.757H5.784a.757.757,0,0,1-.757-.757V5.784a.757.757,0,0,1,.757-.757h4.54V6.544a.753.753,0,0,0,.753.753h9.846a.753.753,0,0,0,.753-.753V5.027h4.54a.757.757,0,0,1,.757.757Z" fill-rule="evenodd"/><polygon points="15.27 17.088 15.987 23.479 22 10 9.198 17.108 15.27 17.088"/>
</symbol>

<symbol id="interfaces-badge" class="symbol" viewBox="0 0 141 32">
  <title>interfaces-badge</title><path d="M26.973,2H5.027A3.027,3.027,0,0,0,2,5.027V26.973A3.027,3.027,0,0,0,5.027,30H26.973A3.027,3.027,0,0,0,30,26.973V5.027A3.027,3.027,0,0,0,26.973,2Zm0,24.216a.757.757,0,0,1-.757.757H5.784a.757.757,0,0,1-.757-.757V5.784a.757.757,0,0,1,.757-.757h4.54V6.544a.753.753,0,0,0,.753.753h9.846a.753.753,0,0,0,.753-.753V5.027h4.54a.757.757,0,0,1,.757.757Z" fill-rule="evenodd"/><polygon points="15.27 17.088 15.987 23.479 22 10 9.198 17.108 15.27 17.088"/><path d="M37.053,23.479V8.077h3.389v15.4Z"/><path d="M50.76,23.479V16.9c0-1.584-.748-2.4-2.024-2.4s-2.09.814-2.09,2.4v6.579H43.3V11.686h3.345v1.671A4.172,4.172,0,0,1,50.1,11.465c2.531,0,4,1.673,4,4.379v7.635Z"/><path d="M60.352,23.677c-2.047,0-3.433-.814-3.433-3.542V14.546H55.511v-2.86h1.408V8.671h3.344v3.015h2.773v2.86H60.263v5.038c0,.77.331,1.145,1.079,1.145a3.4,3.4,0,0,0,1.65-.418V23A4.93,4.93,0,0,1,60.352,23.677Z"/><path d="M75.485,18.749H67.278a2.735,2.735,0,0,0,2.882,2.31,3.866,3.866,0,0,0,2.861-1.21l1.914,1.694a6.229,6.229,0,0,1-10.979-3.895V17.6a5.872,5.872,0,0,1,5.83-6.139c3.939,0,5.743,3.059,5.743,6.4v.044C75.529,18.242,75.507,18.44,75.485,18.749Zm-5.7-4.6a2.629,2.629,0,0,0-2.552,2.509h5.039A2.53,2.53,0,0,0,69.786,14.149Z"/><path d="M84.306,14.964c-2.222,0-3.586,1.342-3.586,4.159v4.356H77.375V11.686H80.72v2.376a3.643,3.643,0,0,1,3.762-2.6v3.5Z"/><path d="M91.456,10.079c-.77,0-1.21.4-1.21,1.276v.462h2.706v2.729H90.29v8.933H86.946V14.546H85.559V11.8h1.387v-.748c0-2.6,1.3-3.784,3.652-3.784a7.4,7.4,0,0,1,2.376.33v2.772A4.231,4.231,0,0,0,91.456,10.079Z"/><path d="M100.716,23.479V22.2a4.536,4.536,0,0,1-3.565,1.5c-2.223,0-4.049-1.276-4.049-3.609v-.044c0-2.574,1.959-3.762,4.753-3.762a8.385,8.385,0,0,1,2.883.484v-.2c0-1.386-.858-2.156-2.531-2.156a8.674,8.674,0,0,0-3.256.638L94.115,12.5a10.389,10.389,0,0,1,4.576-.947c3.653,0,5.259,1.892,5.259,5.083v6.843Zm.066-4.752a5.177,5.177,0,0,0-2.135-.441c-1.43,0-2.31.572-2.31,1.629v.043c0,.9.748,1.431,1.826,1.431,1.562,0,2.619-.858,2.619-2.069Z"/><path d="M111.759,23.743a6.022,6.022,0,0,1-6.139-6.095V17.6a6.056,6.056,0,0,1,6.183-6.139,5.8,5.8,0,0,1,4.709,1.98l-2.046,2.2a3.445,3.445,0,0,0-2.685-1.3,3.013,3.013,0,0,0-2.86,3.212V17.6a3.022,3.022,0,0,0,2.992,3.257,3.736,3.736,0,0,0,2.706-1.255l1.959,1.981A5.94,5.94,0,0,1,111.759,23.743Z"/><path d="M128.741,18.749h-8.208a2.737,2.737,0,0,0,2.883,2.31,3.864,3.864,0,0,0,2.86-1.21l1.915,1.694a6.23,6.23,0,0,1-10.98-3.895V17.6a5.872,5.872,0,0,1,5.831-6.139c3.938,0,5.743,3.059,5.743,6.4v.044C128.785,18.242,128.762,18.44,128.741,18.749Zm-5.7-4.6a2.629,2.629,0,0,0-2.552,2.509h5.038A2.53,2.53,0,0,0,123.042,14.149Z"/><path d="M134.767,23.7a8.26,8.26,0,0,1-5.06-1.782l1.43-2.2a6.662,6.662,0,0,0,3.718,1.409c.969,0,1.408-.353,1.408-.88V20.2c0-.726-1.144-.969-2.442-1.365-1.65-.484-3.52-1.254-3.52-3.542V15.25c0-2.4,1.936-3.741,4.313-3.741a8.154,8.154,0,0,1,4.4,1.365l-1.276,2.31a6.989,6.989,0,0,0-3.191-1.1c-.814,0-1.232.353-1.232.815v.044c0,.66,1.122.968,2.4,1.408,1.65.55,3.564,1.342,3.564,3.5v.044C139.278,22.511,137.32,23.7,134.767,23.7Z"/>
</symbol>

<symbol id="music-stand-app" class="symbol" viewBox="0 0 32 32">
  <title>music-stand-app</title><path d="M26.973,2H5.027A3.027,3.027,0,0,0,2,5.027V26.973A3.027,3.027,0,0,0,5.027,30H26.973A3.027,3.027,0,0,0,30,26.973V5.027A3.027,3.027,0,0,0,26.973,2Zm0,24.216a.757.757,0,0,1-.757.757H5.784a.757.757,0,0,1-.757-.757V5.784a.757.757,0,0,1,.757-.757h4.54V6.544a.753.753,0,0,0,.753.753h9.846a.753.753,0,0,0,.753-.753V5.027h4.54a.757.757,0,0,1,.757.757Z" fill-rule="evenodd"/><path d="M12.01,12.957c0,1.893,0,6.659,0,6.659a2.81,2.81,0,0,0-1.125-.186,2.625,2.625,0,0,0-.9.163,3.082,3.082,0,0,0-.818.428,2.15,2.15,0,0,0-.607.61,1.635,1.635,0,0,0-.257.8,1.329,1.329,0,0,0,.1.507,1.354,1.354,0,0,0,.213.373,1.624,1.624,0,0,0,.711.519,3.294,3.294,0,0,0,1,.151,4.483,4.483,0,0,0,1.7-.353,4.5,4.5,0,0,0,1.509-.965,1.728,1.728,0,0,0,.409-.775A6.939,6.939,0,0,0,14,19.87l0-5.022,6.266-1.778v4.813a2.151,2.151,0,0,0-.969-.23,2.7,2.7,0,0,0-.9.165,3.1,3.1,0,0,0-.816.428,2.2,2.2,0,0,0-.584.651,1.589,1.589,0,0,0-.223.8,1.432,1.432,0,0,0,.311.88,1.607,1.607,0,0,0,.709.519,2.957,2.957,0,0,0,.949.152A4.228,4.228,0,0,0,20.4,20.9a3.546,3.546,0,0,0,1.282-.965,1.947,1.947,0,0,0,.5-.776,7.128,7.128,0,0,0,.083-1.063s-.005-5.625-.005-7.7c0-.557-.306-.7-.72-.592-1.651.443-7.231,1.84-8.9,2.367A.764.764,0,0,0,12.01,12.957Z"/>
</symbol>

<symbol id="music-stand-badge" class="symbol" viewBox="0 0 160 32">
  <title>music-stand-badge</title><path d="M26.973,2H5.027A3.027,3.027,0,0,0,2,5.027V26.973A3.027,3.027,0,0,0,5.027,30H26.973A3.027,3.027,0,0,0,30,26.973V5.027A3.027,3.027,0,0,0,26.973,2Zm0,24.216a.757.757,0,0,1-.757.757H5.784a.757.757,0,0,1-.757-.757V5.784a.757.757,0,0,1,.757-.757h4.54V6.544a.753.753,0,0,0,.753.753h9.846a.753.753,0,0,0,.753-.753V5.027h4.54a.757.757,0,0,1,.757.757Z" fill-rule="evenodd"/><path d="M12.01,12.957c0,1.893,0,6.659,0,6.659a2.81,2.81,0,0,0-1.125-.186,2.625,2.625,0,0,0-.9.163,3.082,3.082,0,0,0-.818.428,2.15,2.15,0,0,0-.607.61,1.635,1.635,0,0,0-.257.8,1.329,1.329,0,0,0,.1.507,1.354,1.354,0,0,0,.213.373,1.624,1.624,0,0,0,.711.519,3.294,3.294,0,0,0,1,.151,4.483,4.483,0,0,0,1.7-.353,4.5,4.5,0,0,0,1.509-.965,1.728,1.728,0,0,0,.409-.775A6.939,6.939,0,0,0,14,19.87l0-5.022,6.266-1.778v4.813a2.151,2.151,0,0,0-.969-.23,2.7,2.7,0,0,0-.9.165,3.1,3.1,0,0,0-.816.428,2.2,2.2,0,0,0-.584.651,1.589,1.589,0,0,0-.223.8,1.432,1.432,0,0,0,.311.88,1.607,1.607,0,0,0,.709.519,2.957,2.957,0,0,0,.949.152A4.228,4.228,0,0,0,20.4,20.9a3.546,3.546,0,0,0,1.282-.965,1.947,1.947,0,0,0,.5-.776,7.128,7.128,0,0,0,.083-1.063s-.005-5.625-.005-7.7c0-.557-.306-.7-.72-.592-1.651.443-7.231,1.84-8.9,2.367A.764.764,0,0,0,12.01,12.957Z"/><path d="M48.935,22.983V12.928L44.6,19.507h-.088l-4.29-6.513v9.989H36.9V7.581h3.653L44.6,14.1l4.049-6.514H52.3v15.4Z"/><path d="M62.376,22.983V21.312A4.172,4.172,0,0,1,58.922,23.2c-2.531,0-4-1.673-4-4.379V11.19h3.345v6.579c0,1.585.748,2.4,2.024,2.4s2.09-.813,2.09-2.4V11.19h3.345V22.983Z"/><path d="M72.209,23.2a8.266,8.266,0,0,1-5.06-1.782l1.43-2.2A6.66,6.66,0,0,0,72.3,20.629c.968,0,1.408-.352,1.408-.88V19.7c0-.726-1.144-.968-2.442-1.364-1.65-.485-3.521-1.254-3.521-3.542v-.044c0-2.4,1.937-3.741,4.313-3.741a8.164,8.164,0,0,1,4.4,1.364l-1.277,2.31a7,7,0,0,0-3.19-1.1c-.814,0-1.232.352-1.232.814v.044c0,.66,1.122.969,2.4,1.408,1.649.55,3.564,1.343,3.564,3.5V19.4C76.72,22.016,74.762,23.2,72.209,23.2Z"/><path d="M78.545,9.892V6.921h3.52V9.892Zm.088,13.091V11.19h3.344V22.983Z"/><path d="M90.052,23.248a6.022,6.022,0,0,1-6.139-6.1v-.044A6.054,6.054,0,0,1,90.1,10.97,5.8,5.8,0,0,1,94.8,12.95l-2.046,2.2a3.444,3.444,0,0,0-2.684-1.3,3.012,3.012,0,0,0-2.861,3.211v.044a3.022,3.022,0,0,0,2.993,3.257,3.735,3.735,0,0,0,2.706-1.254l1.958,1.981A5.938,5.938,0,0,1,90.052,23.248Z"/><path d="M105.561,23.2a9.8,9.8,0,0,1-6.535-2.465l2-2.4a7.065,7.065,0,0,0,4.6,1.87c1.386,0,2.222-.55,2.222-1.452v-.044c0-.859-.527-1.3-3.1-1.958-3.1-.792-5.105-1.651-5.105-4.709V12c0-2.794,2.245-4.643,5.391-4.643a8.915,8.915,0,0,1,5.721,1.958l-1.76,2.553a7.229,7.229,0,0,0-4-1.518c-1.3,0-1.98.594-1.98,1.342v.044c0,1.012.66,1.342,3.322,2.025,3.125.813,4.885,1.935,4.885,4.62v.044C111.216,21.487,108.884,23.2,105.561,23.2Z"/><path d="M116.605,23.182c-2.046,0-3.432-.815-3.432-3.542V14.051h-1.409V11.19h1.409V8.176h3.344V11.19h2.772v2.861h-2.772v5.038c0,.77.33,1.144,1.078,1.144a3.4,3.4,0,0,0,1.65-.418V22.5A4.93,4.93,0,0,1,116.605,23.182Z"/><path d="M128.023,22.983V21.707a4.534,4.534,0,0,1-3.564,1.5c-2.223,0-4.049-1.276-4.049-3.609v-.044c0-2.574,1.958-3.762,4.753-3.762a8.381,8.381,0,0,1,2.882.483v-.2c0-1.386-.858-2.156-2.53-2.156a8.655,8.655,0,0,0-3.256.639L121.422,12A10.405,10.405,0,0,1,126,11.058c3.652,0,5.259,1.892,5.259,5.083v6.842Zm.066-4.752a5.185,5.185,0,0,0-2.134-.44c-1.43,0-2.311.572-2.311,1.628v.044c0,.9.749,1.431,1.827,1.431,1.562,0,2.618-.859,2.618-2.069Z"/><path d="M140.959,22.983V16.4c0-1.584-.748-2.4-2.024-2.4s-2.09.813-2.09,2.4v6.579H133.5V11.19h3.345v1.672A4.172,4.172,0,0,1,140.3,10.97c2.53,0,4,1.673,4,4.379v7.634Z"/><path d="M155.083,22.983V21.289a4.332,4.332,0,0,1-3.675,1.915c-2.75,0-5.369-2.156-5.369-6.1v-.044c0-3.938,2.575-6.094,5.369-6.094a4.53,4.53,0,0,1,3.675,1.76V6.921h3.344V22.983Zm.044-5.919a2.894,2.894,0,1,0-5.743,0v.044a2.894,2.894,0,1,0,5.743,0Z"/>
</symbol>

<symbol id="people-app" class="symbol" viewBox="0 0 32 32">
  <title>people-app</title><path d="M19.861,16.754a2.145,2.145,0,1,0-2.144-2.145A2.145,2.145,0,0,0,19.861,16.754Z" fill-rule="evenodd"/><circle cx="13.289" cy="13.613" r="2.86"/><path d="M26.973,2H5.027A3.027,3.027,0,0,0,2,5.027V26.973A3.027,3.027,0,0,0,5.027,30H26.973A3.027,3.027,0,0,0,30,26.973V5.027A3.027,3.027,0,0,0,26.973,2Zm0,24.216a.757.757,0,0,1-.757.757H5.784a.757.757,0,0,1-.757-.757V5.784a.757.757,0,0,1,.757-.757h4.54V6.544a.753.753,0,0,0,.753.753h9.846a.753.753,0,0,0,.753-.753V5.027h4.54a.757.757,0,0,1,.757.757Z" fill-rule="evenodd"/><path d="M15.372,17.892H11.331a2.52,2.52,0,0,0-2.52,2.52v2.02h9.081v-2.02A2.52,2.52,0,0,0,15.372,17.892Z" fill-rule="evenodd"/><path d="M21.509,17.892H18.815a1.663,1.663,0,0,0-1.01.346,3.251,3.251,0,0,1,.844,2.174v.507h4.54V19.572A1.68,1.68,0,0,0,21.509,17.892Z" fill-rule="evenodd"/>
</symbol>

<symbol id="people-badge" class="symbol" viewBox="0 0 110 32">
  <title>people-badge</title><path d="M19.861,16.754a2.145,2.145,0,1,0-2.144-2.145A2.145,2.145,0,0,0,19.861,16.754Z" fill-rule="evenodd"/><circle cx="13.289" cy="13.613" r="2.86"/><path d="M26.973,2H5.027A3.027,3.027,0,0,0,2,5.027V26.973A3.027,3.027,0,0,0,5.027,30H26.973A3.027,3.027,0,0,0,30,26.973V5.027A3.027,3.027,0,0,0,26.973,2Zm0,24.216a.757.757,0,0,1-.757.757H5.784a.757.757,0,0,1-.757-.757V5.784a.757.757,0,0,1,.757-.757h4.54V6.544a.753.753,0,0,0,.753.753h9.846a.753.753,0,0,0,.753-.753V5.027h4.54a.757.757,0,0,1,.757.757Z" fill-rule="evenodd"/><path d="M15.372,17.892H11.331a2.52,2.52,0,0,0-2.52,2.52v2.02h9.081v-2.02A2.52,2.52,0,0,0,15.372,17.892Z" fill-rule="evenodd"/><path d="M21.509,17.892H18.815a1.663,1.663,0,0,0-1.01.346,3.251,3.251,0,0,1,.844,2.174v.507h4.54V19.572A1.68,1.68,0,0,0,21.509,17.892Z" fill-rule="evenodd"/><path d="M42.812,18.379H40.237V23H36.849V7.6h6.293c3.674,0,5.9,2.178,5.9,5.324v.044C49.038,16.531,46.266,18.379,42.812,18.379Zm2.793-5.39c0-1.519-1.055-2.333-2.75-2.333H40.237v4.709h2.684a2.385,2.385,0,0,0,2.684-2.332Z"/><path d="M61.378,18.27H53.171a2.735,2.735,0,0,0,2.882,2.31,3.864,3.864,0,0,0,2.86-1.21l1.915,1.694a6.229,6.229,0,0,1-10.979-3.895v-.044a5.871,5.871,0,0,1,5.83-6.139c3.938,0,5.743,3.059,5.743,6.4v.044C61.422,17.763,61.4,17.961,61.378,18.27Zm-5.7-4.6a2.629,2.629,0,0,0-2.552,2.509h5.038A2.529,2.529,0,0,0,55.679,13.67Z"/><path d="M68.907,23.264a6.129,6.129,0,0,1-6.358-6.095v-.044a6.387,6.387,0,0,1,12.762-.044v.044A6.191,6.191,0,0,1,68.907,23.264Zm3.1-6.139a3.133,3.133,0,0,0-3.1-3.256,3.021,3.021,0,0,0-3.058,3.212v.044a3.135,3.135,0,0,0,3.1,3.257,3.023,3.023,0,0,0,3.059-3.213Z"/><path d="M84.1,23.22a4.529,4.529,0,0,1-3.675-1.76v5.061H77.079V11.207h3.345V12.9A4.331,4.331,0,0,1,84.1,10.986c2.75,0,5.368,2.157,5.368,6.095v.044C89.467,21.064,86.893,23.22,84.1,23.22Zm2.024-6.139a2.894,2.894,0,1,0-5.743,0v.044a2.894,2.894,0,1,0,5.743,0Z"/><path d="M91.435,23V6.938h3.343V23Z"/><path d="M108.184,18.27H99.977a2.735,2.735,0,0,0,2.882,2.31,3.866,3.866,0,0,0,2.861-1.21l1.914,1.694a6.23,6.23,0,0,1-10.98-3.895v-.044a5.873,5.873,0,0,1,5.831-6.139c3.939,0,5.743,3.059,5.743,6.4v.044C108.228,17.763,108.206,17.961,108.184,18.27Zm-5.7-4.6a2.629,2.629,0,0,0-2.552,2.509h5.039A2.531,2.531,0,0,0,102.485,13.67Z"/>
</symbol>

<symbol id="projector-app" class="symbol" viewBox="0 0 32 32">
  <title>projector-app</title><path d="M26.973,2H5.027A3.027,3.027,0,0,0,2,5.027V26.973A3.027,3.027,0,0,0,5.027,30H26.973A3.027,3.027,0,0,0,30,26.973V5.027A3.027,3.027,0,0,0,26.973,2Zm0,24.216a.757.757,0,0,1-.757.757H5.784a.757.757,0,0,1-.757-.757V5.784a.757.757,0,0,1,.757-.757h4.54V6.544a.753.753,0,0,0,.753.753h9.846a.753.753,0,0,0,.753-.753V5.027h4.54a.757.757,0,0,1,.757.757Z" fill-rule="evenodd"/><path d="M18.48,16.611c-.209.151-2.955,2.522-3.2,2.683-.18.121-.416-.014-.416-.287V13.645c0-.251.212-.436.424-.29.17.117,2.9,2.474,3.189,2.676A.371.371,0,0,1,18.48,16.611ZM16.029,9.947a6.528,6.528,0,1,0,6.612,6.53A6.57,6.57,0,0,0,16.029,9.947Z"/>
</symbol>

<symbol id="projector-badge" class="symbol" viewBox="0 0 135 32">
  <title>projector-badge</title><path d="M26.973,2H5.027A3.027,3.027,0,0,0,2,5.027V26.973A3.027,3.027,0,0,0,5.027,30H26.973A3.027,3.027,0,0,0,30,26.973V5.027A3.027,3.027,0,0,0,26.973,2Zm0,24.216a.757.757,0,0,1-.757.757H5.784a.757.757,0,0,1-.757-.757V5.784a.757.757,0,0,1,.757-.757h4.54V6.544a.753.753,0,0,0,.753.753h9.846a.753.753,0,0,0,.753-.753V5.027h4.54a.757.757,0,0,1,.757.757Z" fill-rule="evenodd"/><path d="M18.48,16.611c-.209.151-2.955,2.522-3.2,2.683-.18.121-.416-.014-.416-.287V13.645c0-.251.212-.436.424-.29.17.117,2.9,2.474,3.189,2.676A.371.371,0,0,1,18.48,16.611ZM16.029,9.947a6.528,6.528,0,1,0,6.612,6.53A6.57,6.57,0,0,0,16.029,9.947Z"/><path d="M42.862,18.433H40.288v4.621H36.9V7.651h6.293c3.675,0,5.9,2.178,5.9,5.325v.044C49.089,16.585,46.317,18.433,42.862,18.433Zm2.795-5.391c0-1.519-1.057-2.332-2.751-2.332H40.288v4.708h2.684a2.385,2.385,0,0,0,2.685-2.332Z"/><path d="M57.536,14.538c-2.222,0-3.586,1.343-3.586,4.159v4.357H50.605V11.26H53.95v2.376a3.642,3.642,0,0,1,3.762-2.6v3.5Z"/><path d="M64.617,23.317a6.129,6.129,0,0,1-6.359-6.094v-.044a6.387,6.387,0,0,1,12.762-.044v.044A6.19,6.19,0,0,1,64.617,23.317Zm3.1-6.138a3.134,3.134,0,0,0-3.1-3.257,3.022,3.022,0,0,0-3.059,3.213v.044a3.135,3.135,0,0,0,3.1,3.257,3.023,3.023,0,0,0,3.059-3.213Z"/><path d="M72.513,26.64a6.969,6.969,0,0,1-1.452-.132V23.89a4,4,0,0,0,.7.066c.7,0,1.189-.375,1.189-1.364V11.26H76.3v11.6C76.3,25.452,74.978,26.64,72.513,26.64Zm.353-16.678V6.991h3.52V9.962Z"/><path d="M89.763,18.323H81.556a2.735,2.735,0,0,0,2.882,2.31,3.866,3.866,0,0,0,2.861-1.21l1.914,1.694a6.229,6.229,0,0,1-10.979-3.894v-.044a5.871,5.871,0,0,1,5.83-6.139c3.939,0,5.743,3.059,5.743,6.4v.044C89.807,17.816,89.785,18.015,89.763,18.323Zm-5.7-4.6a2.629,2.629,0,0,0-2.552,2.508h5.039A2.53,2.53,0,0,0,84.064,13.724Z"/><path d="M97.22,23.317a6.022,6.022,0,0,1-6.139-6.094v-.044a6.055,6.055,0,0,1,6.183-6.139,5.8,5.8,0,0,1,4.709,1.98l-2.046,2.2a3.446,3.446,0,0,0-2.685-1.3,3.013,3.013,0,0,0-2.86,3.213v.044a3.023,3.023,0,0,0,2.992,3.257,3.736,3.736,0,0,0,2.706-1.255l1.959,1.98A5.942,5.942,0,0,1,97.22,23.317Z"/><path d="M107.56,23.252c-2.046,0-3.432-.814-3.432-3.543V14.12H102.72V11.26h1.408V8.245h3.344V11.26h2.772v2.86h-2.772v5.039c0,.77.33,1.144,1.078,1.144a3.4,3.4,0,0,0,1.65-.418v2.684A4.93,4.93,0,0,1,107.56,23.252Z"/><path d="M117.523,23.317a6.129,6.129,0,0,1-6.359-6.094v-.044a6.387,6.387,0,0,1,12.762-.044v.044A6.189,6.189,0,0,1,117.523,23.317Zm3.1-6.138a3.134,3.134,0,0,0-3.1-3.257,3.021,3.021,0,0,0-3.058,3.213v.044a3.134,3.134,0,0,0,3.1,3.257,3.023,3.023,0,0,0,3.059-3.213Z"/><path d="M132.637,14.538c-2.222,0-3.586,1.343-3.586,4.159v4.357h-3.345V11.26h3.345v2.376a3.642,3.642,0,0,1,3.762-2.6v3.5Z"/>
</symbol>

<symbol id="registrations-app" class="symbol" viewBox="0 0 32 32">
  <title>registrations-app</title><polygon points="20.52 13.131 17.843 10.706 16.061 12.651 18.719 15.11 20.52 13.131" fill-rule="evenodd"/><path d="M15.507,13.256,10.33,18.907a2.015,2.015,0,0,0-.4.86l-.36,2.665,2.621-.577a2,2,0,0,0,.819-.473l5.159-5.666Z" fill-rule="evenodd"/><polygon points="14.498 22.172 22.159 22.172 22.159 20.659 15.875 20.659 14.498 22.172" fill-rule="evenodd"/><path d="M26.973,2H5.027A3.027,3.027,0,0,0,2,5.027V26.973A3.027,3.027,0,0,0,5.027,30H26.973A3.027,3.027,0,0,0,30,26.973V5.027A3.027,3.027,0,0,0,26.973,2Zm0,24.216a.757.757,0,0,1-.757.757H5.784a.757.757,0,0,1-.757-.757V5.784a.757.757,0,0,1,.757-.757h4.54V6.544a.753.753,0,0,0,.753.753h9.846a.753.753,0,0,0,.753-.753V5.027h4.54a.757.757,0,0,1,.757.757Z" fill-rule="evenodd"/>
</symbol>

<symbol id="registrations-badge" class="symbol" viewBox="0 0 176 32">
  <title>registrations-badge</title><path d="M46.2,24l-3.3-4.929H40.237V24H36.849V8.6H43.89c3.631,0,5.808,1.914,5.808,5.083v.044A4.782,4.782,0,0,1,46.4,18.5L50.16,24Zm.066-10.144c0-1.452-1.012-2.2-2.662-2.2H40.237v4.422H43.67c1.649,0,2.6-.879,2.6-2.178Z"/><path d="M62.513,19.27H54.306a2.735,2.735,0,0,0,2.882,2.31,3.862,3.862,0,0,0,2.86-1.211l1.915,1.7a6.23,6.23,0,0,1-10.98-3.895v-.044a5.872,5.872,0,0,1,5.83-6.139c3.939,0,5.744,3.059,5.744,6.4v.045C62.557,18.764,62.534,18.961,62.513,19.27Zm-5.7-4.6a2.628,2.628,0,0,0-2.551,2.51H59.3A2.53,2.53,0,0,0,56.813,14.67Z"/><path d="M69.571,27.564a11.187,11.187,0,0,1-5.215-1.232L65.5,23.824A7.7,7.7,0,0,0,69.483,24.9c2.288,0,3.368-1.1,3.368-3.213v-.572A4.613,4.613,0,0,1,69,23.031a5.179,5.179,0,0,1-5.237-5.5v-.045A5.191,5.191,0,0,1,69,11.986a4.774,4.774,0,0,1,3.806,1.76V12.207H76.15v9.131C76.15,25.782,73.95,27.564,69.571,27.564Zm3.28-10.078a2.876,2.876,0,0,0-5.744,0v.045a2.7,2.7,0,0,0,2.861,2.729,2.727,2.727,0,0,0,2.883-2.729Z"/><path d="M78.54,10.908V7.938h3.521v2.97ZM78.628,24V12.207h3.345V24Z"/><path d="M88.539,24.221a8.262,8.262,0,0,1-5.06-1.783l1.43-2.2a6.662,6.662,0,0,0,3.718,1.409c.969,0,1.408-.353,1.408-.88v-.044c0-.726-1.143-.968-2.442-1.365-1.65-.484-3.521-1.253-3.521-3.543v-.043c0-2.4,1.937-3.741,4.314-3.741a8.154,8.154,0,0,1,4.4,1.365l-1.276,2.31a6.989,6.989,0,0,0-3.191-1.1c-.814,0-1.232.353-1.232.815v.044c0,.66,1.122.969,2.4,1.408,1.651.55,3.565,1.342,3.565,3.5v.045C93.05,23.031,91.092,24.221,88.539,24.221Z"/><path d="M98.7,24.2c-2.046,0-3.432-.814-3.432-3.542v-5.59H93.86V12.207h1.409V9.191h3.344v3.016h2.773v2.859H98.613v5.039c0,.77.33,1.145,1.078,1.145a3.4,3.4,0,0,0,1.651-.418v2.684A4.934,4.934,0,0,1,98.7,24.2Z"/><path d="M110.286,15.484c-2.222,0-3.586,1.343-3.586,4.16V24h-3.345V12.207H106.7v2.375a3.643,3.643,0,0,1,3.762-2.6v3.5Z"/><path d="M118.407,24V22.724a4.534,4.534,0,0,1-3.564,1.5c-2.223,0-4.049-1.278-4.049-3.61v-.044c0-2.574,1.958-3.762,4.753-3.762a8.384,8.384,0,0,1,2.882.484v-.2c0-1.386-.859-2.156-2.531-2.156a8.7,8.7,0,0,0-3.256.637l-.836-2.551a10.391,10.391,0,0,1,4.577-.947c3.652,0,5.259,1.893,5.259,5.083V24Zm.066-4.752a5.176,5.176,0,0,0-2.134-.441c-1.431,0-2.311.572-2.311,1.629v.043c0,.9.748,1.431,1.826,1.431,1.563,0,2.619-.858,2.619-2.068Z"/><path d="M127.763,24.2c-2.046,0-3.433-.814-3.433-3.542v-5.59h-1.408V12.207h1.408V9.191h3.345v3.016h2.772v2.859h-2.772v5.039c0,.77.33,1.145,1.078,1.145a3.4,3.4,0,0,0,1.65-.418v2.684A4.93,4.93,0,0,1,127.763,24.2Z"/><path d="M132.357,10.908V7.938h3.521v2.97ZM132.446,24V12.207h3.344V24Z"/><path d="M143.92,24.264a6.129,6.129,0,0,1-6.359-6.095v-.044a6.386,6.386,0,0,1,12.761-.044v.044A6.189,6.189,0,0,1,143.92,24.264Zm3.1-6.139a3.132,3.132,0,0,0-3.1-3.256,3.021,3.021,0,0,0-3.059,3.212v.044a3.134,3.134,0,0,0,3.1,3.257,3.021,3.021,0,0,0,3.057-3.213Z"/><path d="M159.55,24V17.421c0-1.584-.748-2.4-2.024-2.4s-2.09.814-2.09,2.4V24h-3.345V12.207h3.345v1.672a4.173,4.173,0,0,1,3.455-1.893c2.53,0,4,1.672,4,4.379V24Z"/><path d="M169.317,24.221a8.262,8.262,0,0,1-5.06-1.783l1.431-2.2a6.659,6.659,0,0,0,3.717,1.409c.969,0,1.408-.353,1.408-.88v-.044c0-.726-1.143-.968-2.442-1.365-1.649-.484-3.52-1.253-3.52-3.543v-.043c0-2.4,1.936-3.741,4.313-3.741a8.154,8.154,0,0,1,4.4,1.365l-1.276,2.31a6.989,6.989,0,0,0-3.19-1.1c-.815,0-1.233.353-1.233.815v.044c0,.66,1.122.969,2.4,1.408,1.65.55,3.564,1.342,3.564,3.5v.045C173.828,23.031,171.87,24.221,169.317,24.221Z"/><polygon points="20.52 13.131 17.843 10.706 16.061 12.651 18.719 15.11 20.52 13.131" fill-rule="evenodd"/><path d="M15.507,13.256,10.33,18.907a2.015,2.015,0,0,0-.4.86l-.36,2.665,2.621-.577a2,2,0,0,0,.819-.473l5.159-5.666Z" fill-rule="evenodd"/><polygon points="14.498 22.172 22.159 22.172 22.159 20.659 15.875 20.659 14.498 22.172" fill-rule="evenodd"/><path d="M26.973,2H5.027A3.027,3.027,0,0,0,2,5.027V26.973A3.027,3.027,0,0,0,5.027,30H26.973A3.027,3.027,0,0,0,30,26.973V5.027A3.027,3.027,0,0,0,26.973,2Zm0,24.216a.757.757,0,0,1-.757.757H5.784a.757.757,0,0,1-.757-.757V5.784a.757.757,0,0,1,.757-.757h4.54V6.544a.753.753,0,0,0,.753.753h9.846a.753.753,0,0,0,.753-.753V5.027h4.54a.757.757,0,0,1,.757.757Z" fill-rule="evenodd"/>
</symbol>

<symbol id="resources-app" class="symbol" viewBox="0 0 32 32">
  <title>resources-app</title><path d="M26.973,2H5.027A3.027,3.027,0,0,0,2,5.027V26.973A3.027,3.027,0,0,0,5.027,30H26.973A3.027,3.027,0,0,0,30,26.973V5.027A3.027,3.027,0,0,0,26.973,2Zm0,24.216a.757.757,0,0,1-.757.757H5.784a.757.757,0,0,1-.757-.757V5.784a.757.757,0,0,1,.757-.757h4.54V6.544a.753.753,0,0,0,.753.753h9.846a.753.753,0,0,0,.753-.753V5.027h4.54a.757.757,0,0,1,.757.757Z" fill-rule="evenodd"/><rect x="9" y="11" width="6" height="5" rx="0.431" ry="0.431"/><rect x="17" y="11" width="6" height="5" rx="0.431" ry="0.431"/><rect x="9" y="18" width="6" height="5" rx="0.431" ry="0.431"/><rect x="17" y="18" width="6" height="5" rx="0.431" ry="0.431"/>
</symbol>

<symbol id="resources-badge" class="symbol" viewBox="0 0 145 32">
  <title>resources-badge</title><path d="M26.973,2H5.027A3.027,3.027,0,0,0,2,5.027V26.973A3.027,3.027,0,0,0,5.027,30H26.973A3.027,3.027,0,0,0,30,26.973V5.027A3.027,3.027,0,0,0,26.973,2Zm0,24.216a.757.757,0,0,1-.757.757H5.784a.757.757,0,0,1-.757-.757V5.784a.757.757,0,0,1,.757-.757h4.54V6.544a.753.753,0,0,0,.753.753h9.846a.753.753,0,0,0,.753-.753V5.027h4.54a.757.757,0,0,1,.757.757Z" fill-rule="evenodd"/><rect x="9" y="11" width="6" height="5" rx="0.431" ry="0.431"/><rect x="17" y="11" width="6" height="5" rx="0.431" ry="0.431"/><rect x="9" y="18" width="6" height="5" rx="0.431" ry="0.431"/><rect x="17" y="18" width="6" height="5" rx="0.431" ry="0.431"/><path d="M46.2,23l-3.3-4.929H40.237V23H36.849V7.6H43.89c3.631,0,5.808,1.914,5.808,5.083v.044A4.782,4.782,0,0,1,46.4,17.5L50.16,23Zm.066-10.144c0-1.452-1.012-2.2-2.662-2.2H40.237v4.422H43.67c1.649,0,2.6-.879,2.6-2.178Z"/><path d="M62.513,18.27H54.306a2.735,2.735,0,0,0,2.882,2.31,3.862,3.862,0,0,0,2.86-1.211l1.915,1.7a6.23,6.23,0,0,1-10.98-3.895v-.044a5.872,5.872,0,0,1,5.83-6.139c3.939,0,5.744,3.059,5.744,6.4v.045C62.557,17.764,62.534,17.961,62.513,18.27Zm-5.7-4.6a2.628,2.628,0,0,0-2.551,2.51H59.3A2.53,2.53,0,0,0,56.813,13.67Z"/><path d="M68.386,23.221a8.262,8.262,0,0,1-5.061-1.783l1.43-2.2a6.662,6.662,0,0,0,3.719,1.409c.967,0,1.408-.353,1.408-.88v-.044c0-.726-1.145-.968-2.443-1.365-1.65-.484-3.52-1.253-3.52-3.543v-.043c0-2.4,1.936-3.741,4.312-3.741a8.157,8.157,0,0,1,4.4,1.365l-1.277,2.31a6.989,6.989,0,0,0-3.19-1.1c-.813,0-1.231.353-1.231.815v.044c0,.66,1.122.969,2.4,1.408,1.649.55,3.564,1.342,3.564,3.5v.045C72.9,22.031,70.938,23.221,68.386,23.221Z"/><path d="M80.269,23.264a6.13,6.13,0,0,1-6.36-6.095v-.044a6.387,6.387,0,0,1,12.762-.044v.044A6.19,6.19,0,0,1,80.269,23.264Zm3.1-6.139a3.133,3.133,0,0,0-3.1-3.256,3.021,3.021,0,0,0-3.059,3.212v.044a3.134,3.134,0,0,0,3.1,3.257,3.021,3.021,0,0,0,3.058-3.213Z"/><path d="M95.77,23V21.328a4.176,4.176,0,0,1-3.456,1.893c-2.53,0-4-1.673-4-4.379V11.207h3.343v6.578c0,1.584.749,2.4,2.025,2.4s2.091-.815,2.091-2.4V11.207h3.344V23Z"/><path d="M108.447,14.484c-2.221,0-3.586,1.343-3.586,4.16V23h-3.344V11.207h3.344v2.375a3.644,3.644,0,0,1,3.762-2.6v3.5Z"/><path d="M115.472,23.264a6.023,6.023,0,0,1-6.139-6.095v-.044a6.055,6.055,0,0,1,6.183-6.139,5.8,5.8,0,0,1,4.709,1.981l-2.046,2.2a3.447,3.447,0,0,0-2.685-1.3,3.012,3.012,0,0,0-2.86,3.212v.044a3.022,3.022,0,0,0,2.992,3.257,3.735,3.735,0,0,0,2.706-1.255l1.959,1.98A5.942,5.942,0,0,1,115.472,23.264Z"/><path d="M132.4,18.27h-8.207a2.736,2.736,0,0,0,2.882,2.31,3.864,3.864,0,0,0,2.861-1.211l1.914,1.7a6.23,6.23,0,0,1-10.98-3.895v-.044a5.873,5.873,0,0,1,5.831-6.139c3.939,0,5.742,3.059,5.742,6.4v.045C132.438,17.764,132.417,17.961,132.4,18.27Zm-5.7-4.6c-1.386,0-2.288.99-2.552,2.51h5.039A2.532,2.532,0,0,0,126.7,13.67Z"/><path d="M138.268,23.221a8.264,8.264,0,0,1-5.061-1.783l1.431-2.2a6.659,6.659,0,0,0,3.717,1.409c.969,0,1.409-.353,1.409-.88v-.044c0-.726-1.144-.968-2.443-1.365-1.649-.484-3.52-1.253-3.52-3.543v-.043c0-2.4,1.936-3.741,4.313-3.741a8.16,8.16,0,0,1,4.4,1.365l-1.277,2.31a6.989,6.989,0,0,0-3.19-1.1c-.815,0-1.233.353-1.233.815v.044c0,.66,1.123.969,2.4,1.408,1.65.55,3.564,1.342,3.564,3.5v.045C142.778,22.031,140.82,23.221,138.268,23.221Z"/>
</symbol>

<symbol id="services-app" class="symbol" viewBox="0 0 32 32">
  <title>services-app</title><path d="M26.973,2H5.027A3.027,3.027,0,0,0,2,5.027V26.973A3.027,3.027,0,0,0,5.027,30H26.973A3.027,3.027,0,0,0,30,26.973V5.027A3.027,3.027,0,0,0,26.973,2Zm0,24.216a.757.757,0,0,1-.757.757H5.784a.757.757,0,0,1-.757-.757V5.784a.757.757,0,0,1,.757-.757h4.54V6.544a.753.753,0,0,0,.753.753h9.846a.753.753,0,0,0,.753-.753V5.027h4.54a.757.757,0,0,1,.757.757Z" fill-rule="evenodd"/><rect x="9" y="10" width="14" height="3" rx="0.464" ry="0.464"/><rect x="9" y="15" width="14" height="3" rx="0.464" ry="0.464"/><rect x="9" y="20" width="14" height="3" rx="0.464" ry="0.464"/>
</symbol>

<symbol id="services-badge" class="symbol" viewBox="0 0 125 32">
  <title>services-badge</title><path d="M26.973,2H5.027A3.027,3.027,0,0,0,2,5.027V26.973A3.027,3.027,0,0,0,5.027,30H26.973A3.027,3.027,0,0,0,30,26.973V5.027A3.027,3.027,0,0,0,26.973,2Zm0,24.216a.757.757,0,0,1-.757.757H5.784a.757.757,0,0,1-.757-.757V5.784a.757.757,0,0,1,.757-.757h4.54V6.544a.753.753,0,0,0,.753.753h9.846a.753.753,0,0,0,.753-.753V5.027h4.54a.757.757,0,0,1,.757.757Z" fill-rule="evenodd"/><rect x="9" y="10" width="14" height="3" rx="0.464" ry="0.464"/><rect x="9" y="15" width="14" height="3" rx="0.464" ry="0.464"/><rect x="9" y="20" width="14" height="3" rx="0.464" ry="0.464"/><path d="M42.327,23.221a9.805,9.805,0,0,1-6.535-2.465l2-2.4a7.061,7.061,0,0,0,4.6,1.871c1.385,0,2.221-.55,2.221-1.453v-.044c0-.858-.527-1.3-3.1-1.958-3.1-.793-5.1-1.65-5.1-4.709v-.043c0-2.794,2.244-4.643,5.391-4.643a8.92,8.92,0,0,1,5.722,1.958L45.76,11.889a7.221,7.221,0,0,0-4-1.519c-1.3,0-1.98.6-1.98,1.343v.043c0,1.013.66,1.343,3.323,2.025,3.124.814,4.884,1.936,4.884,4.62v.044C47.982,21.5,45.649,23.221,42.327,23.221Z"/><path d="M60.839,18.27H52.632a2.736,2.736,0,0,0,2.882,2.31,3.862,3.862,0,0,0,2.86-1.211l1.915,1.7A6.229,6.229,0,0,1,49.31,17.169v-.044a5.871,5.871,0,0,1,5.83-6.139c3.938,0,5.743,3.059,5.743,6.4v.045C60.883,17.764,60.86,17.961,60.839,18.27Zm-5.7-4.6c-1.386,0-2.288.99-2.552,2.51h5.038A2.529,2.529,0,0,0,55.14,13.67Z"/><path d="M69.616,14.484c-2.222,0-3.587,1.343-3.587,4.16V23H62.685V11.207h3.344v2.375a3.645,3.645,0,0,1,3.763-2.6v3.5Z"/><path d="M78.144,23.088H75.106L70.464,11.207h3.543l2.64,7.9,2.663-7.9h3.476Z"/><path d="M83.91,9.908V6.938h3.521v2.97ZM84,23V11.207h3.344V23Z"/><path d="M95.3,23.264a6.023,6.023,0,0,1-6.139-6.095v-.044a6.055,6.055,0,0,1,6.183-6.139,5.8,5.8,0,0,1,4.709,1.981L98,15.167a3.447,3.447,0,0,0-2.685-1.3,3.013,3.013,0,0,0-2.86,3.212v.044a3.022,3.022,0,0,0,2.992,3.257,3.735,3.735,0,0,0,2.706-1.255l1.959,1.98A5.941,5.941,0,0,1,95.3,23.264Z"/><path d="M112.219,18.27h-8.207a2.736,2.736,0,0,0,2.883,2.31,3.862,3.862,0,0,0,2.86-1.211l1.914,1.7a6.23,6.23,0,0,1-10.98-3.895v-.044a5.873,5.873,0,0,1,5.832-6.139c3.938,0,5.742,3.059,5.742,6.4v.045C112.263,17.764,112.241,17.961,112.219,18.27Zm-5.7-4.6a2.629,2.629,0,0,0-2.553,2.51h5.039A2.53,2.53,0,0,0,106.521,13.67Z"/><path d="M118.092,23.221a8.264,8.264,0,0,1-5.061-1.783l1.431-2.2a6.659,6.659,0,0,0,3.718,1.409c.968,0,1.408-.353,1.408-.88v-.044c0-.726-1.144-.968-2.442-1.365-1.65-.484-3.521-1.253-3.521-3.543v-.043c0-2.4,1.937-3.741,4.313-3.741a8.157,8.157,0,0,1,4.4,1.365l-1.277,2.31a6.989,6.989,0,0,0-3.19-1.1c-.814,0-1.232.353-1.232.815v.044c0,.66,1.122.969,2.4,1.408,1.65.55,3.565,1.342,3.565,3.5v.045C122.6,22.031,120.645,23.221,118.092,23.221Z"/>
</symbol>
    </svg>