<svg xmlns="http://www.w3.org/2000/svg" xmlns:xlink="http://www.w3.org/1999/xlink">
    
<symbol id="android-full" viewBox="0 0 16 16">
  <path d="M10.518 2.34068C10.5121 2.20739 10.4551 2.08149 10.3587 1.98924C10.2622 1.89699 10.1339 1.8455 10.0005 1.8455C9.86706 1.8455 9.73877 1.89699 9.64236 1.98924C9.54595 2.08149 9.48887 2.20739 9.48301 2.34068C9.48887 2.47398 9.54595 2.59987 9.64236 2.69213C9.73877 2.78438 9.86706 2.83587 10.0005 2.83587C10.1339 2.83587 10.2622 2.78438 10.3587 2.69213C10.4551 2.59987 10.5121 2.47398 10.518 2.34068V2.34068ZM6.65701 2.34068C6.65701 2.20358 6.60254 2.0721 6.50558 1.97515C6.40862 1.87821 6.27712 1.82375 6.14001 1.82375C6.00289 1.82375 5.87139 1.87821 5.77443 1.97515C5.67748 2.0721 5.62301 2.20358 5.62301 2.34068C5.62301 2.47778 5.67748 2.60927 5.77443 2.70621C5.87139 2.80316 6.00289 2.85762 6.14001 2.85762C6.27712 2.85762 6.40862 2.80316 6.50558 2.70621C6.60254 2.60927 6.65701 2.47778 6.65701 2.34068V2.34068ZM11.428 1.63177C12.0991 2.29311 12.4864 3.1896 12.508 4.13146H3.49201C3.51274 3.20003 3.89208 2.3125 4.55101 1.65377L3.71701 0.210946C3.69992 0.178699 3.696 0.141081 3.70608 0.106004C3.71615 0.0709278 3.73944 0.0411256 3.77105 0.0228656C3.80265 0.00460551 3.8401 -0.000689442 3.87553 0.00809428C3.91096 0.016878 3.9416 0.0390559 3.96101 0.0699638L4.76101 1.45279C5.52627 0.781239 6.48572 0.371098 7.50001 0.281938H8.50001C9.50426 0.369996 10.4551 0.772747 11.217 1.4328L12.006 0.0699638C12.0153 0.0540102 12.0276 0.040036 12.0422 0.0288393C12.0569 0.0176426 12.0736 0.00944254 12.0914 0.00470734C12.1093 -2.78636e-05 12.1279 -0.00120548 12.1461 0.00124172C12.1644 0.00368893 12.1821 0.00971303 12.198 0.0189701C12.214 0.0282271 12.2279 0.0405358 12.2391 0.0551934C12.2503 0.069851 12.2585 0.0865705 12.2633 0.104397C12.268 0.122224 12.2692 0.140809 12.2667 0.15909C12.2643 0.177372 12.2583 0.194993 12.249 0.210946L11.428 1.63177ZM14.15 5.13134C14.4152 5.13134 14.6696 5.23668 14.8571 5.4242C15.0447 5.61171 15.15 5.86603 15.15 6.13122V10.4187C15.15 10.6839 15.0447 10.9382 14.8571 11.1257C14.6696 11.3132 14.4152 11.4186 14.15 11.4186C13.8848 11.4186 13.6304 11.3132 13.4429 11.1257C13.2554 10.9382 13.15 10.6839 13.15 10.4187V6.13422C13.15 5.86903 13.2554 5.61471 13.4429 5.4272C13.6304 5.23968 13.8848 5.13434 14.15 5.13434V5.13134ZM1.85001 5.13134C2.11522 5.13134 2.36958 5.23668 2.55711 5.4242C2.74465 5.61171 2.85001 5.86603 2.85001 6.13122V10.4187C2.85001 10.6839 2.74465 10.9382 2.55711 11.1257C2.36958 11.3132 2.11522 11.4186 1.85001 11.4186C1.58479 11.4186 1.33044 11.3132 1.1429 11.1257C0.955363 10.9382 0.850006 10.6839 0.850006 10.4187V6.13422C0.850006 6.00283 0.875905 5.87272 0.926222 5.75135C0.976539 5.62997 1.05029 5.5197 1.14325 5.42684C1.23622 5.33398 1.34657 5.26035 1.46802 5.21016C1.58946 5.15997 1.7196 5.13421 1.85101 5.13434L1.85001 5.13134ZM9.25001 12.4304H6.74501V15.0001C6.74501 15.2653 6.63965 15.5196 6.45211 15.7071C6.26458 15.8947 6.01022 16 5.74501 16C5.47979 16 5.22544 15.8947 5.0379 15.7071C4.85036 15.5196 4.74501 15.2653 4.74501 15.0001V12.4284H4.70001C4.53574 12.4274 4.37329 12.3939 4.22201 12.3299C4.07072 12.2659 3.93357 12.1726 3.81844 12.0555C3.70331 11.9383 3.61246 11.7996 3.55112 11.6472C3.48978 11.4948 3.45916 11.3318 3.46101 11.1676V4.6684C3.46101 4.6294 3.46101 4.59141 3.46701 4.55341H12.543C12.543 4.59041 12.543 4.6294 12.543 4.6684V11.1676C12.5447 11.3321 12.5139 11.4954 12.4522 11.648C12.3906 11.8005 12.2994 11.9394 12.1839 12.0566C12.0683 12.1738 11.9308 12.267 11.7791 12.3308C11.6274 12.3946 11.4646 12.4278 11.3 12.4284H11.251V14.9981C11.251 15.2633 11.1457 15.5176 10.9581 15.7051C10.7706 15.8927 10.5162 15.998 10.251 15.998C9.98579 15.998 9.73144 15.8927 9.5439 15.7051C9.35636 15.5176 9.25101 15.2633 9.25101 14.9981L9.25001 12.4304Z"></path>
</symbol>

<symbol id="android" viewBox="0 0 16 16">
  <path d="M12.2317 6.76471L13.5886 5.27806C13.7202 5.13359 13.789 4.94276 13.7799 4.74754C13.7708 4.55232 13.6845 4.36872 13.5401 4.23711C13.3957 4.10551 13.205 4.03668 13.0099 4.04578C12.8148 4.05488 12.6312 4.14116 12.4997 4.28563L10.9878 5.94436C10.0614 5.47606 9.03796 5.23207 8 5.23207C6.96205 5.23207 5.93862 5.47606 5.0122 5.94436L3.5003 4.28563C3.43517 4.21429 3.35663 4.15649 3.26917 4.11552C3.18171 4.07455 3.08704 4.05121 2.99057 4.04684C2.89409 4.04248 2.79771 4.05717 2.7069 4.09007C2.6161 4.12297 2.53267 4.17345 2.46137 4.23861C2.39007 4.30378 2.33229 4.38235 2.29134 4.46986C2.25039 4.55736 2.22706 4.65208 2.2227 4.7486C2.21834 4.84512 2.23302 4.94156 2.2659 5.0324C2.29879 5.12325 2.34924 5.20673 2.41437 5.27806L3.76828 6.76471C3.07666 7.35079 2.50914 8.0693 2.09907 8.87799C1.689 9.68668 1.44467 10.5692 1.38044 11.4738C1.37773 11.5362 1.38772 11.5985 1.40979 11.6569C1.43187 11.7153 1.46557 11.7686 1.50886 11.8136C1.55216 11.8586 1.60413 11.8944 1.66164 11.9186C1.71914 11.9429 1.78099 11.9553 1.84341 11.955H14.1566C14.219 11.9553 14.2809 11.9429 14.3384 11.9186C14.3959 11.8944 14.4479 11.8586 14.4911 11.8136C14.5344 11.7686 14.5681 11.7153 14.5902 11.6569C14.6123 11.5985 14.6223 11.5362 14.6196 11.4738C14.5553 10.5692 14.311 9.68668 13.9009 8.87799C13.4909 8.0693 12.9233 7.35079 12.2317 6.76471V6.76471ZM4.9542 10.4473C4.75022 10.4475 4.55076 10.3872 4.38107 10.2739C4.21138 10.1606 4.07909 9.99956 4.00094 9.81105C3.92279 9.62254 3.90229 9.41506 3.94203 9.21489C3.98178 9.01471 4.07999 8.83084 4.22423 8.68652C4.36846 8.54221 4.55225 8.44396 4.75233 8.40419C4.9524 8.36442 5.15977 8.38493 5.34819 8.46313C5.53661 8.54132 5.69761 8.67368 5.81081 8.84345C5.92401 9.01323 5.98433 9.21278 5.98414 9.41687C5.98414 9.55219 5.9575 9.68619 5.90574 9.81121C5.85398 9.93623 5.77811 10.0498 5.68248 10.1455C5.58684 10.2412 5.4733 10.3171 5.34834 10.3689C5.22339 10.4207 5.08946 10.4473 4.9542 10.4473ZM11.0458 10.4473C10.8419 10.4473 10.6425 10.3868 10.4729 10.2734C10.3034 10.16 10.1713 9.99889 10.0933 9.81036C10.0153 9.62183 9.9949 9.41438 10.0348 9.21427C10.0746 9.01417 10.1729 8.83038 10.3172 8.68617C10.4615 8.54196 10.6452 8.4438 10.8453 8.40412C11.0453 8.36443 11.2527 8.385 11.441 8.46322C11.6294 8.54144 11.7903 8.6738 11.9035 8.84355C12.0166 9.01331 12.0769 9.21283 12.0767 9.41687C12.0767 9.55227 12.0501 9.68635 11.9982 9.81144C11.9464 9.93652 11.8705 10.0502 11.7747 10.1459C11.679 10.2416 11.5653 10.3174 11.4403 10.3692C11.3152 10.4209 11.1811 10.4475 11.0458 10.4473V10.4473Z"></path>
</symbol>

<symbol id="apple-pay" viewBox="0 0 16 16">
  <path d="M15.873 4.20502C15.873 4.16002 15.873 4.11502 15.873 4.06902C15.8715 3.96853 15.8628 3.86827 15.847 3.76902C15.8301 3.67126 15.7988 3.57655 15.754 3.48802C15.7091 3.39931 15.6503 3.3183 15.58 3.24802C15.5093 3.17812 15.4284 3.11945 15.34 3.07402C15.2512 3.02916 15.1561 2.99781 15.058 2.98102C14.9588 2.96463 14.8585 2.95594 14.758 2.95502H1.236C1.13548 2.95594 1.03518 2.96463 0.936 2.98102C0.839032 2.99937 0.745337 3.03206 0.658 3.07802C0.569599 3.12345 0.488664 3.18212 0.418 3.25202C0.347658 3.3223 0.288927 3.40331 0.244 3.49202C0.199233 3.58055 0.167889 3.67526 0.151 3.77302C0.13521 3.87227 0.126521 3.97253 0.125 4.07302C0.125 4.11902 0.125 4.16402 0.125 4.20902V11.795C0.125 11.84 0.125 11.885 0.125 11.931C0.126521 12.0315 0.13521 12.1318 0.151 12.231C0.167889 12.3288 0.199233 12.4235 0.244 12.512C0.288927 12.6007 0.347658 12.6817 0.418 12.752C0.488664 12.8219 0.569599 12.8806 0.658 12.926C0.746813 12.971 0.841874 13.0023 0.94 13.019C1.03912 13.0359 1.13946 13.0446 1.24 13.045H14.76C14.8605 13.0446 14.9609 13.0359 15.06 13.019C15.1581 13.0022 15.2532 12.9709 15.342 12.926C15.4304 12.8806 15.5113 12.8219 15.582 12.752C15.6523 12.6817 15.7111 12.6007 15.756 12.512C15.8008 12.4235 15.8321 12.3288 15.849 12.231C15.8648 12.1318 15.8735 12.0315 15.875 11.931C15.875 11.885 15.875 11.84 15.875 11.795V4.20502H15.873ZM15.537 11.789C15.537 11.832 15.537 11.875 15.537 11.918C15.5357 12.0004 15.5287 12.0826 15.516 12.164C15.5051 12.2295 15.4842 12.2929 15.454 12.352C15.425 12.4089 15.3872 12.4609 15.342 12.506C15.2968 12.5518 15.2445 12.59 15.187 12.619C15.1279 12.649 15.0645 12.6696 14.999 12.68C14.9183 12.6929 14.8367 12.6999 14.755 12.701H1.245C1.16227 12.7 1.07971 12.693 0.998 12.68C0.932266 12.6694 0.868533 12.6488 0.809 12.619C0.752007 12.5897 0.700026 12.5516 0.655 12.506C0.609506 12.4611 0.571672 12.4091 0.543 12.352C0.512989 12.2925 0.492089 12.2288 0.481 12.163C0.467853 12.082 0.460833 12.0001 0.46 11.918C0.46 11.875 0.46 11.832 0.46 11.789V4.20802C0.46 4.16502 0.46 4.12202 0.46 4.07902C0.46083 3.99628 0.46785 3.91371 0.481 3.83202C0.492244 3.76663 0.513138 3.70327 0.543 3.64402C0.571672 3.58691 0.609506 3.53489 0.655 3.49002C0.7 3.44397 0.75239 3.40577 0.81 3.37702C0.869301 3.34749 0.932659 3.32693 0.998 3.31602C1.07976 3.30382 1.16233 3.29781 1.245 3.29802H14.751C14.8337 3.29781 14.9162 3.30382 14.998 3.31602C15.0636 3.32709 15.1273 3.34764 15.187 3.37702C15.2436 3.40654 15.2955 3.44428 15.341 3.48902C15.386 3.5347 15.4237 3.58697 15.453 3.64402C15.4833 3.70344 15.5042 3.76719 15.515 3.83302C15.5277 3.91443 15.5348 3.99663 15.536 4.07902C15.536 4.12102 15.536 4.16402 15.536 4.20802L15.537 11.789Z"></path><path d="M4.263 6.36002C4.40773 6.18721 4.47946 5.96482 4.463 5.74002C4.24063 5.762 4.03551 5.86958 3.891 6.04002C3.81946 6.12172 3.76493 6.21686 3.73059 6.31988C3.69625 6.4229 3.68279 6.53173 3.691 6.64002C3.80143 6.64034 3.91046 6.61525 4.00964 6.5667C4.10883 6.51815 4.19551 6.44743 4.263 6.36002Z"></path><path d="M4.751 7.79802C4.75313 7.64981 4.79254 7.50452 4.86559 7.37554C4.93864 7.24657 5.04298 7.13806 5.169 7.06002C5.08831 6.94595 4.98253 6.85192 4.85978 6.78517C4.73703 6.71842 4.6006 6.68074 4.461 6.67502C4.142 6.65602 3.871 6.85602 3.719 6.85602C3.567 6.85602 3.334 6.68502 3.082 6.68902C2.91789 6.69288 2.75767 6.73969 2.6173 6.82479C2.47693 6.90989 2.36132 7.0303 2.282 7.17402C2.15199 7.49195 2.10605 7.83801 2.14861 8.17885C2.19117 8.51969 2.3208 8.84382 2.525 9.12002C2.686 9.35802 2.881 9.62002 3.138 9.61102C3.38 9.60102 3.476 9.45302 3.77 9.45302C4.064 9.45302 4.151 9.61102 4.407 9.60602C4.663 9.60102 4.84 9.36802 5.002 9.13002C5.11625 8.96127 5.20582 8.77708 5.268 8.58302C5.11532 8.51593 4.9853 8.40614 4.89357 8.26687C4.80185 8.1276 4.75233 7.96478 4.751 7.79802Z"></path><path d="M7.638 6.01202H6.298V9.58102H6.852V8.36202H7.618C7.77574 8.37081 7.93358 8.34649 8.08135 8.29062C8.22913 8.23474 8.36357 8.14855 8.47604 8.0376C8.5885 7.92664 8.67649 7.79337 8.73435 7.64636C8.79222 7.49935 8.81867 7.34186 8.812 7.18402C8.8196 7.02792 8.79442 6.87197 8.73808 6.7262C8.68175 6.58043 8.5955 6.44808 8.4849 6.33767C8.3743 6.22726 8.2418 6.14124 8.09594 6.08515C7.95007 6.02906 7.79408 6.00415 7.638 6.01202ZM7.489 7.89802H6.854V6.47902H7.492C7.59019 6.46566 7.69013 6.47439 7.78452 6.50457C7.87892 6.53474 7.96539 6.5856 8.03763 6.65343C8.10987 6.72127 8.16606 6.80437 8.20211 6.89668C8.23816 6.98899 8.25315 7.08818 8.246 7.18702C8.25333 7.28629 8.23838 7.38596 8.20225 7.47871C8.16611 7.57147 8.1097 7.65498 8.03714 7.72313C7.96458 7.79128 7.8777 7.84235 7.78286 7.87261C7.68803 7.90287 7.58762 7.91155 7.489 7.89802Z"></path><path d="M10.117 6.95902C9.87322 6.92781 9.627 6.99447 9.43226 7.14441C9.23752 7.29435 9.11014 7.51535 9.078 7.75902H9.578C9.60696 7.64534 9.67607 7.54597 9.77256 7.47925C9.86905 7.41254 9.98642 7.38297 10.103 7.39602C10.441 7.39602 10.632 7.55402 10.632 7.84302V8.04302L9.942 8.08502C9.299 8.12502 8.95 8.38502 8.95 8.84502C8.9518 8.95439 8.97647 9.06217 9.02242 9.16144C9.06838 9.26071 9.13459 9.34926 9.21681 9.42141C9.29904 9.49355 9.39545 9.54769 9.49985 9.58035C9.60424 9.613 9.71432 9.62345 9.823 9.61102C9.98742 9.61591 10.1501 9.5762 10.2938 9.49609C10.4374 9.41598 10.5567 9.29846 10.639 9.15602H10.652V9.58402H11.164V7.80502C11.164 7.29102 10.751 6.95902 10.117 6.95902ZM10.632 8.61102C10.6289 8.69301 10.609 8.77349 10.5735 8.84748C10.538 8.92147 10.4878 8.9874 10.4258 9.0412C10.3639 9.095 10.2916 9.13552 10.2133 9.16025C10.1351 9.18499 10.0526 9.19342 9.971 9.18502C9.677 9.18502 9.489 9.04402 9.489 8.82702C9.489 8.61002 9.67 8.47302 10.016 8.45102L10.632 8.41102V8.61102Z"></path><path d="M12.621 9.09802H12.609L11.956 6.99002H11.377L12.314 9.59002L12.265 9.74902C12.2475 9.85818 12.1898 9.95683 12.1031 10.0255C12.0165 10.0942 11.9073 10.1279 11.797 10.12C11.7425 10.1195 11.6881 10.1161 11.634 10.11V10.538C11.7052 10.5482 11.7771 10.5532 11.849 10.553C12.389 10.553 12.643 10.347 12.866 9.72202L13.838 6.99302H13.274L12.621 9.09802Z"></path>
</symbol>

<symbol id="apple" viewBox="0 0 16 16">
  <path d="M12.847 5.9547C12.4059 6.22983 12.0375 6.60698 11.7729 7.05433C11.5824 7.42531 11.4846 7.83692 11.4879 8.25393C11.4839 8.57343 11.5413 8.89072 11.6569 9.18862C11.7743 9.47791 11.9351 9.7476 12.1339 9.98835C12.4243 10.3059 12.7747 10.5628 13.165 10.7441C12.954 11.3383 12.6622 11.9008 12.298 12.4155C12.0075 12.871 11.6482 13.2787 11.2329 13.6241C10.976 13.8389 10.6562 13.9641 10.3218 13.981C10.0001 13.9608 9.68419 13.8857 9.38776 13.7591L9.20475 13.7001L8.90473 13.5742C8.6775 13.5069 8.44166 13.4732 8.20468 13.4742C7.90162 13.4817 7.60203 13.5405 7.31863 13.6481L7.08761 13.7341L6.79759 13.8501C6.57704 13.9379 6.34197 13.9837 6.10455 13.985C5.78397 13.938 5.47743 13.822 5.20616 13.6449C4.93488 13.4678 4.70535 13.2339 4.53344 12.9594C3.9894 12.3008 3.56097 11.5548 3.26636 10.7531C2.98452 9.98968 2.83929 9.18263 2.83733 8.36889C2.80459 7.42948 3.11852 6.51082 3.71939 5.78775C4.01452 5.44717 4.38295 5.17779 4.79707 4.99981C5.21118 4.82183 5.66023 4.73988 6.11055 4.7601C6.46418 4.75688 6.81484 4.82488 7.14161 4.96003L7.36363 5.047L7.59464 5.14697C7.74979 5.21789 7.91648 5.26022 8.08668 5.27193C8.27145 5.27111 8.45439 5.23515 8.62571 5.16596L8.93473 5.051L9.15575 4.96403C9.54037 4.82534 9.94699 4.75759 10.3558 4.7641C10.8357 4.75094 11.3119 4.85204 11.7451 5.05905C12.1782 5.26606 12.5559 5.57305 12.847 5.9547V5.9547ZM10.3998 2.01501C10.4128 2.15597 10.4198 2.26593 10.4198 2.34291C10.4099 2.77643 10.2905 3.20042 10.0728 3.57549C9.86128 3.97747 9.5491 4.31777 9.16675 4.56316C8.79797 4.79621 8.36994 4.91836 7.93367 4.91505C7.91574 4.80318 7.90438 4.69035 7.89966 4.57716C7.90902 4.19994 8.01212 3.83098 8.19968 3.50352C8.40206 3.12834 8.68316 2.80132 9.02374 2.54484C9.36827 2.28339 9.77241 2.11163 10.1998 2.045L10.3998 2.01501Z"></path>
</symbol>

<symbol id="checkr" viewBox="0 0 16 16">
  <path d="M3.18099 9.00125C3.17187 8.99747 3.16168 8.9971 3.15231 9.00023C3.14294 9.00335 3.13501 9.00975 3.12999 9.01825C3.01718 9.18322 2.87037 9.32213 2.69942 9.42564C2.52848 9.52915 2.33736 9.59486 2.13891 9.61836C1.35385 9.62036 0.824804 8.95924 0.824804 7.97507C0.824804 7.10592 1.29084 6.47481 1.93489 6.47481C2.03943 6.47646 2.14071 6.5115 2.22391 6.57482L2.89197 7.07491C2.90013 7.08194 2.91021 7.08637 2.92091 7.08763C2.93161 7.08889 2.94244 7.08692 2.95201 7.08197C2.96158 7.07702 2.96945 7.06933 2.97461 7.05987C2.97977 7.05041 2.98199 7.03963 2.98097 7.0289V6.4558C2.98106 6.44565 2.97817 6.43569 2.97266 6.42716C2.96715 6.41863 2.95926 6.4119 2.94997 6.4078C2.68324 6.29041 2.39428 6.23207 2.10291 6.23676C1.8423 6.22596 1.58231 6.2697 1.33959 6.36519C1.09687 6.46068 0.876764 6.60582 0.69337 6.7913C0.509976 6.97678 0.367336 7.19853 0.274586 7.44233C0.181836 7.68613 0.14102 7.94662 0.154751 8.20711C0.137369 8.43901 0.167734 8.672 0.24397 8.89169C0.320206 9.11138 0.440691 9.3131 0.597977 9.48437C0.755264 9.65564 0.946007 9.79282 1.15841 9.88743C1.37082 9.98204 1.60037 10.0321 1.83288 10.0344C2.13435 10.0342 2.42827 9.9401 2.67381 9.76516C2.91934 9.59022 3.1043 9.34315 3.20299 9.05826C3.20717 9.04773 3.20723 9.03602 3.20315 9.02545C3.19907 9.01488 3.19116 9.00624 3.18099 9.00125Z"></path><path d="M5.8692 9.72938C5.86685 9.72703 5.86502 9.72421 5.86381 9.72111C5.86261 9.71801 5.86206 9.7147 5.8622 9.71138V7.94307C5.86244 7.84702 5.84265 7.75198 5.80411 7.66401C5.76557 7.57604 5.70912 7.49706 5.63836 7.43213C5.5676 7.36719 5.48408 7.31772 5.39313 7.28687C5.30218 7.25602 5.2058 7.24447 5.11014 7.25294C4.79307 7.27714 4.49189 7.40148 4.25008 7.60801L4.19607 7.64701H4.18907V6.02273C4.18896 6.01445 4.18703 6.0063 4.18339 5.99887C4.17976 5.99143 4.17453 5.98489 4.16807 5.97972C4.16154 5.97492 4.15403 5.97163 4.14607 5.97007C4.13812 5.96852 4.12992 5.96874 4.12206 5.97072C4.11606 5.97072 3.55802 6.05973 3.37501 6.10074C3.36489 6.10341 3.35578 6.10901 3.34884 6.11684C3.3419 6.12467 3.33743 6.13438 3.336 6.14475C3.33478 6.15538 3.33679 6.16613 3.34179 6.17559C3.34679 6.18505 3.35453 6.19278 3.364 6.19776C3.37101 6.19776 3.52002 6.29778 3.56402 6.32478C3.5721 6.32897 3.57888 6.33528 3.58364 6.34303C3.5884 6.35078 3.59095 6.35969 3.59102 6.36879V9.71438C3.58951 9.72038 3.58598 9.72567 3.58102 9.72938L3.38101 9.8664C3.37334 9.8737 3.36808 9.88317 3.36594 9.89353C3.3638 9.9039 3.36487 9.91467 3.36901 9.92441C3.37304 9.93432 3.37997 9.94277 3.3889 9.94866C3.39782 9.95455 3.40832 9.95761 3.41901 9.95742H4.35108C4.36119 9.9578 4.3712 9.95539 4.38002 9.95045C4.38884 9.9455 4.39613 9.93823 4.40109 9.92942C4.40507 9.91933 4.40586 9.90826 4.40336 9.89771C4.40085 9.88716 4.39518 9.87763 4.38709 9.8704L4.19407 9.72938C4.189 9.72435 4.18612 9.71752 4.18607 9.71038V7.92006C4.18595 7.91626 4.1867 7.91249 4.18826 7.90902C4.18982 7.90555 4.19215 7.90249 4.19507 7.90006C4.33763 7.76712 4.51535 7.67791 4.70711 7.64301C4.7761 7.63326 4.84638 7.63849 4.91316 7.65833C4.97995 7.67818 5.04168 7.71219 5.09414 7.75803C5.14728 7.80447 5.19 7.86163 5.21947 7.92576C5.24895 7.98988 5.26452 8.05952 5.26516 8.1301V9.71438C5.26512 9.72104 5.26263 9.72745 5.25815 9.73238L5.05814 9.87541C5.05086 9.88287 5.04594 9.89233 5.04401 9.90258C5.04207 9.91283 5.0432 9.92342 5.04726 9.93303C5.05132 9.94264 5.05812 9.95084 5.06681 9.9566C5.07551 9.96236 5.08571 9.96543 5.09614 9.96542H6.02222C6.03282 9.96583 6.04329 9.96298 6.05223 9.95726C6.06117 9.95154 6.06815 9.94322 6.07222 9.93342C6.07632 9.92343 6.07727 9.91242 6.07495 9.90188C6.07263 9.89133 6.06714 9.88175 6.05922 9.87441L5.8692 9.72938Z"></path><path d="M8.56242 9.06026C8.55199 9.05495 8.54001 9.05354 8.52864 9.05629C8.51727 9.05904 8.50725 9.06577 8.50041 9.07526C8.40786 9.21625 8.28526 9.33501 8.1414 9.42303C7.99755 9.51104 7.836 9.56614 7.66835 9.58435C7.0973 9.58435 6.71227 9.14328 6.68727 8.46016C6.68732 8.45301 6.69019 8.44618 6.69527 8.44115C6.7005 8.43565 6.70768 8.43242 6.71527 8.43215H8.52541C8.53338 8.43228 8.54128 8.43064 8.54854 8.42736C8.55581 8.42407 8.56225 8.41922 8.56742 8.41315C8.5728 8.40727 8.57684 8.40028 8.57926 8.39269C8.58168 8.38509 8.58241 8.37705 8.58142 8.36914C8.43141 7.63301 8.05038 7.24394 7.48133 7.24394C7.30038 7.25078 7.12268 7.29416 6.95894 7.37149C6.79519 7.44881 6.64879 7.55848 6.52854 7.69388C6.40829 7.82928 6.31668 7.98761 6.25922 8.15935C6.20177 8.3311 6.17966 8.51269 6.19423 8.6932C6.17853 8.86588 6.19952 9.03992 6.2558 9.20392C6.31208 9.36792 6.40239 9.51817 6.52081 9.64482C6.63923 9.77146 6.78308 9.87164 6.94292 9.93879C7.10277 10.0059 7.275 10.0385 7.44833 10.0344C7.71195 10.0281 7.96607 9.93475 8.17105 9.76883C8.37602 9.60292 8.52032 9.37382 8.58142 9.11727C8.58544 9.10684 8.58553 9.0953 8.58166 9.08481C8.5778 9.07432 8.57025 9.06559 8.56042 9.06026H8.56242ZM6.69627 8.21111C6.74727 7.73503 6.99629 7.45098 7.35432 7.45098C7.68135 7.45098 7.87136 7.67702 7.99137 8.20811C7.99153 8.21216 7.9907 8.21619 7.98896 8.21985C7.98722 8.22351 7.98461 8.22669 7.98137 8.22912C7.97899 8.23248 7.97585 8.23524 7.9722 8.23715C7.96854 8.23906 7.96449 8.24008 7.96037 8.24012H6.72327C6.71515 8.23918 6.70767 8.23526 6.70227 8.22912C6.69981 8.22626 6.69799 8.2229 6.69696 8.21927C6.69592 8.21565 6.69569 8.21184 6.69627 8.20811"></path><path d="M11.0636 9.16828C11.0539 9.16366 11.0429 9.16274 11.0326 9.16569C11.0223 9.16864 11.0134 9.17525 11.0076 9.18428L10.9966 9.19929C10.9328 9.32021 10.8364 9.42084 10.7183 9.48978C10.6002 9.55872 10.4652 9.59321 10.3286 9.58936C10.1885 9.58302 10.0513 9.54814 9.92521 9.48686C9.79915 9.42558 9.68693 9.33919 9.59544 9.23299C9.50395 9.12679 9.43512 9.00301 9.39317 8.86926C9.35122 8.7355 9.33703 8.59459 9.35148 8.45516C9.35148 7.89506 9.6515 7.45498 10.0405 7.45498C10.0645 7.45498 10.0885 7.45498 10.1125 7.45498C10.1618 7.46075 10.2087 7.47937 10.2485 7.50899L10.8316 7.94707C10.84 7.95219 10.8497 7.95489 10.8596 7.95489C10.8695 7.95489 10.8792 7.95219 10.8876 7.94707C10.8966 7.94299 10.9043 7.93637 10.9096 7.92803C10.9149 7.91968 10.9177 7.90996 10.9176 7.90006V7.42898C10.9178 7.41893 10.915 7.40905 10.9097 7.40053C10.9044 7.39201 10.8967 7.38522 10.8876 7.38097C10.6819 7.29036 10.4593 7.24434 10.2345 7.24594C10.0465 7.24268 9.85974 7.27862 9.68629 7.35148C9.51285 7.42434 9.35647 7.53252 9.22712 7.66913C9.09776 7.80574 8.99827 7.96779 8.93497 8.14496C8.87167 8.32213 8.84594 8.51054 8.85944 8.6982C8.84034 8.86568 8.85672 9.0353 8.90753 9.19603C8.95833 9.35675 9.04242 9.50497 9.15432 9.63103C9.26621 9.75709 9.40341 9.85817 9.55696 9.92767C9.71052 9.99718 9.87699 10.0336 10.0455 10.0344C10.2857 10.0426 10.5211 9.96658 10.7112 9.81958C10.9013 9.67257 11.0341 9.46379 11.0866 9.22929C11.0908 9.21836 11.0908 9.20625 11.0865 9.19533C11.0823 9.18442 11.0741 9.17548 11.0636 9.17028"></path><path d="M15.803 7.30295C15.7348 7.26867 15.6593 7.2515 15.583 7.25294C15.2953 7.30448 15.0371 7.46138 14.8589 7.69302H14.8539L14.8379 7.31796C14.8375 7.31007 14.8352 7.30238 14.8314 7.29546C14.8276 7.28854 14.8223 7.28256 14.8159 7.27795C14.8092 7.2735 14.8017 7.27049 14.7937 7.26911C14.7858 7.26774 14.7777 7.26802 14.7699 7.26995L14.0699 7.46998C14.0606 7.47271 14.0521 7.47785 14.0455 7.48488C14.0388 7.4919 14.0341 7.50056 14.0318 7.50999C14.0299 7.51915 14.0303 7.52867 14.0331 7.53761C14.0359 7.54656 14.041 7.55462 14.0478 7.561L14.2799 7.76903C14.2852 7.77438 14.2884 7.7815 14.2889 7.78904V9.71938C14.289 9.72278 14.2883 9.72617 14.2869 9.72928C14.2855 9.73239 14.2835 9.73516 14.2809 9.73738L14.1119 9.87441C14.1044 9.88185 14.0993 9.89131 14.0972 9.90162C14.0951 9.91192 14.096 9.92263 14.0999 9.93242C14.1038 9.9424 14.1107 9.95093 14.1196 9.95684C14.1286 9.96275 14.1391 9.96575 14.1499 9.96542H15.0389C15.0498 9.96568 15.0605 9.96256 15.0696 9.95651C15.0787 9.95045 15.0857 9.94174 15.0896 9.93156C15.0935 9.92139 15.0942 9.91025 15.0916 9.89966C15.089 9.88908 15.0832 9.87956 15.0749 9.87241L14.8949 9.73838C14.8921 9.73586 14.8898 9.73278 14.8883 9.72934C14.8867 9.72589 14.8859 9.72216 14.8859 9.71838V8.04008C14.886 8.01745 14.8915 7.99516 14.9019 7.97507C14.9488 7.89549 15.0127 7.8272 15.0889 7.77504C15.1243 7.74158 15.1668 7.71655 15.2132 7.70183C15.2596 7.68711 15.3088 7.68307 15.357 7.69002C15.4772 7.74467 15.5896 7.81532 15.691 7.90006C15.725 7.92606 15.752 7.94607 15.767 7.95507C15.7751 7.96024 15.7845 7.96315 15.7941 7.96349C15.8037 7.96382 15.8133 7.96158 15.8217 7.95699C15.8302 7.9524 15.8373 7.94563 15.8423 7.93737C15.8472 7.92912 15.8499 7.91969 15.85 7.91006V7.36696C15.85 7.35361 15.8463 7.34052 15.8392 7.3292C15.8321 7.31788 15.822 7.30878 15.81 7.30295"></path><path d="M12.6027 8.28213C12.6027 8.27612 12.6097 8.26412 12.6237 8.25212L13.5538 7.39997C13.5617 7.39226 13.5666 7.38202 13.5677 7.37105C13.5688 7.36008 13.566 7.34908 13.5598 7.33996C13.5552 7.33401 13.5493 7.3292 13.5425 7.32591C13.5358 7.32261 13.5283 7.32092 13.5208 7.32096H12.8488C12.8407 7.32101 12.8327 7.32272 12.8253 7.32599C12.8179 7.32926 12.8112 7.33401 12.8058 7.33996C12.7982 7.3495 12.7941 7.3613 12.7941 7.37347C12.7941 7.38563 12.7982 7.39743 12.8058 7.40697L12.9818 7.63901C12.986 7.64406 12.9883 7.65043 12.9883 7.65701C12.9883 7.6636 12.986 7.66997 12.9818 7.67502L12.0037 8.57518V6.01873C12.0035 6.0105 12.0015 6.00242 11.9976 5.99512C11.9938 5.98783 11.9884 5.98153 11.9817 5.97672C11.9753 5.97155 11.9679 5.96795 11.9599 5.96621C11.9519 5.96448 11.9436 5.96465 11.9357 5.96672C11.9357 5.96672 11.3716 6.05573 11.1886 6.09674C11.1784 6.09939 11.1693 6.10514 11.1625 6.1132C11.1557 6.12126 11.1515 6.13124 11.1506 6.14175C11.1488 6.1523 11.1506 6.16315 11.1557 6.17257C11.1608 6.18199 11.1688 6.18945 11.1786 6.19376C11.1846 6.19376 11.3236 6.29377 11.3786 6.31878C11.3869 6.32304 11.3938 6.32951 11.3985 6.33746C11.4033 6.3454 11.4058 6.35452 11.4056 6.36379V9.70538C11.4058 9.70855 11.4052 9.71171 11.404 9.71464C11.4028 9.71758 11.401 9.72022 11.3986 9.72238L11.1986 9.8654C11.1908 9.87325 11.1856 9.88336 11.1838 9.8943C11.182 9.90525 11.1837 9.91648 11.1886 9.92642C11.1935 9.93568 11.2008 9.9434 11.2098 9.9487C11.2189 9.95401 11.2292 9.95668 11.2396 9.95642H12.1657C12.1763 9.95634 12.1867 9.95318 12.1956 9.94732C12.2045 9.94147 12.2115 9.93316 12.2157 9.92341C12.2197 9.91333 12.2205 9.90226 12.218 9.89171C12.2155 9.88116 12.2098 9.87163 12.2017 9.8644L12.0067 9.72938C12.0016 9.72435 11.9987 9.71752 11.9987 9.71038V8.84422C11.9987 8.83708 12.0016 8.83025 12.0067 8.82522L12.1957 8.64319C12.1982 8.64006 12.2014 8.63753 12.2051 8.63579C12.2087 8.63406 12.2127 8.63316 12.2167 8.63316C12.2207 8.63316 12.2247 8.63406 12.2283 8.63579C12.232 8.63753 12.2352 8.64006 12.2377 8.64319C12.2437 8.65019 12.7737 9.37932 13.0378 9.74338C13.0402 9.74597 13.0415 9.74936 13.0415 9.75288C13.0415 9.75641 13.0402 9.7598 13.0378 9.76239L12.9068 9.8704C12.8988 9.87813 12.8934 9.88818 12.8914 9.89913C12.8894 9.91008 12.891 9.92138 12.8958 9.93142C12.9007 9.94061 12.9081 9.94826 12.9171 9.95356C12.9261 9.95885 12.9363 9.96157 12.9468 9.96142H13.8098C13.8368 9.96142 13.8478 9.94942 13.8518 9.93942C13.8558 9.92942 13.8428 9.88341 13.8278 9.8674L12.6027 8.28213Z"></path>
</symbol>

<symbol id="chrome" viewBox="0 0 16 16">
  <path fill-rule="evenodd" clip-rule="evenodd" d="M8.04807 4.658C8.18107 4.658 15.071 4.652 15.071 4.652C14.4338 3.32401 13.439 2.19981 12.1984 1.40551C10.9577 0.611218 9.52016 0.178258 8.04707 0.155207C6.85579 0.147185 5.67834 0.410579 4.60407 0.925398C3.52981 1.44022 2.58697 2.19293 1.84712 3.12641L4.5681 7.85714C4.58611 7.41852 4.69045 6.98775 4.87515 6.58949C5.05986 6.19122 5.3213 5.83328 5.64453 5.53614C5.96775 5.239 6.34641 5.00849 6.75884 4.85781C7.17127 4.70713 7.60937 4.63923 8.04807 4.658V4.658ZM8.01307 11.4302C7.31116 11.4266 6.62685 11.2102 6.05065 10.8094C5.47445 10.4087 5.0335 9.8425 4.7861 9.18579L4.7621 9.19678L1.52513 3.56629C0.7699 4.66693 0.308287 5.94213 0.184031 7.27106C0.0597736 8.59998 0.276988 9.93862 0.81509 11.1601C1.35319 12.3816 2.19436 13.4455 3.25889 14.2511C4.32342 15.0566 5.57605 15.577 6.89808 15.763L9.60906 11.0553C9.11487 11.3065 8.56745 11.4351 8.01307 11.4302V11.4302ZM15.275 5.05489L9.85806 5.0459C10.2793 5.3084 10.6391 5.65849 10.9129 6.07237C11.1868 6.48626 11.3683 6.95424 11.4452 7.44451C11.522 7.93477 11.4924 8.43584 11.3583 8.91363C11.2242 9.39143 10.9888 9.83477 10.6681 10.2135L7.46108 15.826C7.63408 15.838 7.80808 15.845 7.98407 15.845C9.271 15.8484 10.539 15.5353 11.6763 14.9332C12.8136 14.3311 13.7853 13.4585 14.5057 12.3924C15.2261 11.3263 15.6731 10.0993 15.8072 8.81972C15.9414 7.54013 15.7586 6.24719 15.275 5.05489V5.05489ZM5.0921 7.93112C5.08835 8.51038 5.25653 9.07774 5.57538 9.56141C5.89422 10.0451 6.3494 10.4234 6.88332 10.6484C7.41724 10.8734 8.00592 10.935 8.57489 10.8255C9.14386 10.7159 9.66754 10.4401 10.0797 10.033C10.4918 9.62582 10.7739 9.10561 10.8903 8.53814C11.0067 7.97068 10.9521 7.38145 10.7334 6.84502C10.5147 6.30858 10.1419 5.84903 9.66189 5.52451C9.18194 5.19999 8.61648 5.02508 8.03707 5.0219C7.26069 5.01738 6.5143 5.32132 5.96204 5.86688C5.40978 6.41244 5.09686 7.15495 5.0921 7.93112V7.93112Z"></path>
</symbol>

<symbol id="edge" viewBox="0 0 16 16">
  <path d="M0.60498 7.09981H0.613983C0.705687 6.36402 0.881202 5.64111 1.13711 4.94515C1.39103 4.2553 1.7369 3.60285 2.16537 3.00546C2.58745 2.412 3.09275 1.88233 3.66574 1.43271C4.26732 0.970304 4.94403 0.614838 5.66623 0.381881C6.46241 0.122386 7.29544 -0.00626507 8.13284 0.000941871C9.42847 -0.0199035 10.7062 0.3056 11.8338 0.943791C12.9417 1.59058 13.8509 2.52882 14.4624 3.65636C15.1055 4.86938 15.4258 6.2273 15.3926 7.59973V9.27946H5.33415C5.32508 9.88714 5.49142 10.4846 5.81327 11.0002C6.10989 11.4728 6.53249 11.8533 7.03357 12.099C7.56888 12.3537 8.13991 12.5253 8.72699 12.6079C9.35628 12.7036 9.9957 12.7126 10.6275 12.6349C11.2601 12.5596 11.8835 12.4203 12.4879 12.219C13.0384 12.0433 13.5606 11.789 14.0383 11.4641V14.8336C13.3953 15.2 12.705 15.4766 11.9868 15.6554C11.0761 15.8885 10.1392 16.0037 9.19911 15.9984C8.23587 16.0181 7.27746 15.8573 6.37341 15.5245C5.23923 15.0839 4.26689 14.3073 3.58672 13.2988C2.88297 12.3301 2.49431 11.1684 2.47344 9.97135C2.41658 8.6713 2.76315 7.38547 3.46569 6.28994C4.19253 5.23585 5.1987 4.40494 6.37141 3.89032C6.09304 4.23426 5.8579 4.61101 5.67123 5.01214C5.47306 5.46761 5.33487 5.94688 5.26013 6.43791H10.9375C10.9875 6.01966 10.9631 5.59588 10.8655 5.18611C10.7921 4.85722 10.6489 4.54795 10.4454 4.27926C10.2636 4.05334 10.0516 3.8535 9.81526 3.68535C9.59571 3.52641 9.35274 3.40261 9.09508 3.31841C8.85102 3.24176 8.62763 3.18077 8.42491 3.13544C8.26061 3.09624 8.09332 3.07082 7.92479 3.05945L7.72474 3.05045C6.93664 3.07784 6.15594 3.21239 5.40417 3.45039C4.6976 3.66838 4.02444 3.98261 3.40367 4.38424C2.84229 4.75176 2.31803 5.17301 1.83829 5.64204C1.38226 6.08813 0.969327 6.57621 0.60498 7.09981V7.09981Z"></path>
</symbol>

<symbol id="facebook-outline" viewBox="0 0 16 16">
  <path d="M12.0809 4.99298C11.962 4.837 11.8091 4.71056 11.6338 4.62341C11.4586 4.53627 11.2658 4.49075 11.0703 4.49038H9.76352V4.00084H10.532C10.8636 4.003 11.1826 3.87341 11.4194 3.64031C11.6563 3.40721 11.7919 3.0895 11.7967 2.7564L11.8047 1.24859C11.8031 1.08254 11.7689 0.91844 11.704 0.765711C11.6391 0.612982 11.5449 0.474638 11.4266 0.358627C11.3083 0.242616 11.1684 0.151224 11.0149 0.0897019C10.8614 0.0281796 10.6972 -0.00226036 10.532 0.000130687H9.24722C9.2152 0.000130687 9.16818 0.000130687 9.11014 0.000130687C8.45145 -0.00291514 7.80339 0.166867 7.23006 0.492681C6.73264 0.789847 6.32668 1.21939 6.05704 1.73383C5.78741 2.24827 5.6646 2.82759 5.70218 3.40777V4.49339H4.92874C4.59478 4.49254 4.27387 4.62359 4.03522 4.85828C3.91817 4.9743 3.82519 5.11248 3.76164 5.26483C3.69809 5.41719 3.66525 5.58069 3.66501 5.74587V7.24664C3.66949 7.58097 3.8058 7.89986 4.04403 8.13335C4.28225 8.36683 4.60294 8.49585 4.93574 8.49209H5.69818V14.7505C5.70135 15.0847 5.83642 15.404 6.07374 15.6383C6.31105 15.8726 6.63121 16.0026 6.96391 16H8.48978C8.82231 16.0024 9.14221 15.8722 9.37931 15.6379C9.61641 15.4037 9.75134 15.0845 9.75451 14.7505V8.49209H10.7111C10.9836 8.49233 11.249 8.40451 11.4681 8.24161C11.6872 8.07871 11.8484 7.84935 11.9278 7.58741L12.283 6.09971C12.3391 5.91235 12.35 5.71428 12.3149 5.52184C12.2797 5.3294 12.1995 5.14812 12.0809 4.99298V4.99298ZM10.7111 7.24363H8.48978V14.7505H6.96391V7.24363H4.93574V5.74286H6.96391V3.40878C6.94246 3.11975 6.98325 2.82948 7.0835 2.55771C7.18375 2.28595 7.34112 2.03908 7.54487 1.8339C7.74863 1.62872 7.994 1.47006 8.26428 1.36871C8.53456 1.26736 8.8234 1.22571 9.11114 1.24658C9.17118 1.24658 9.2112 1.24658 9.2112 1.24658H10.532V2.75137H9.2082C8.48178 2.75137 8.49879 3.36153 8.49879 3.36153V5.74286H11.0703L10.7111 7.24363Z"></path>
</symbol>

<symbol id="facebook" viewBox="0 0 16 16">
  <path d="M7.99998 0.340027C6.06067 0.340016 4.19267 1.07152 2.76882 2.38853C1.34496 3.70555 0.469992 5.5112 0.318532 7.44512C0.167071 9.37903 0.750263 11.2989 1.95171 12.8217C3.15316 14.3444 4.88449 15.358 6.80015 15.66V10.2743H4.83942V8.04703H6.80015V6.34681C6.75776 5.95008 6.80317 5.54888 6.93316 5.17167C7.06315 4.79446 7.27453 4.45049 7.5523 4.16414C7.83007 3.8778 8.16744 3.65611 8.54046 3.51479C8.91348 3.37347 9.31303 3.31599 9.71075 3.34642C10.2883 3.35446 10.8644 3.40494 11.4345 3.49744V5.39969H10.4596C10.2941 5.37716 10.1256 5.39218 9.96664 5.44362C9.80768 5.49506 9.66232 5.58162 9.54134 5.69687C9.42035 5.81212 9.32684 5.95313 9.26772 6.10943C9.2086 6.26574 9.18539 6.43335 9.19982 6.59984V8.04703H11.3365L10.9996 10.2743H9.19982V15.66C11.1155 15.358 12.8468 14.3444 14.0483 12.8217C15.2497 11.2989 15.8329 9.37903 15.6814 7.44512C15.53 5.5112 14.655 3.70555 13.2311 2.38853C11.8073 1.07152 9.9393 0.340016 7.99998 0.340027V0.340027Z"></path>
</symbol>

<symbol id="firefox" viewBox="0 0 16 16">
  <path fill-rule="evenodd" clip-rule="evenodd" d="M14.4186 3.57472L14.2257 2.80096L14.3376 2.76597C15.1965 3.82464 15.2665 5.16522 15.5154 6.4938C15.5634 6.28486 15.6024 6.11292 15.6414 5.94197H15.7074C15.7394 6.01156 15.7616 6.08523 15.7734 6.1609C15.898 8.43993 15.3204 10.7023 14.1187 12.6429C13.5812 13.4521 12.8779 14.1379 12.0553 14.6549C11.2328 15.1719 10.3098 15.5084 9.34748 15.6419C7.71138 15.9777 6.00953 15.7386 4.52929 14.9651C3.49591 14.3983 2.6018 13.6084 1.91192 12.6528C1.22203 11.6972 0.753708 10.6 0.540966 9.44087C0.532967 9.40488 0.51697 9.37089 0.491974 9.29891L0.353998 9.51484V7.39651L0.210022 7.4475C0.237375 7.20248 0.283164 6.95986 0.346999 6.72173C0.585958 6.04094 0.857913 5.37115 1.10387 4.69137C1.16586 4.50788 1.19629 4.31521 1.19386 4.12155C1.16437 3.42835 1.33106 2.7409 1.67477 2.13817C1.78127 1.98651 1.8975 1.84192 2.02272 1.70531L2.40365 2.71999C3.17121 1.84091 4.13755 1.15771 5.22233 0.727201C6.30712 0.296689 7.47901 0.131295 8.6406 0.244769C9.77978 0.376995 10.8799 0.740573 11.8735 1.31319C12.8671 1.88581 13.7332 2.6554 14.4186 3.57472V3.57472ZM11.6121 1.64333C10.2005 0.76533 8.51868 0.4283 6.87776 0.694611C5.23683 0.960921 3.74793 1.81254 2.6866 3.09187C2.86279 3.12516 3.04071 3.14852 3.21951 3.16185C3.61945 3.16885 4.02738 3.17085 4.43131 3.15185C4.57855 3.15283 4.72235 3.10735 4.84224 3.02189C5.30694 2.63365 5.8739 2.38787 6.47496 2.31412C6.57606 2.31348 6.67684 2.32557 6.77491 2.3501C6.50774 2.60766 6.26042 2.88503 6.03504 3.17984C5.55312 3.91761 5.88406 4.54741 6.74692 4.5794C6.96188 4.5884 7.17884 4.5794 7.39381 4.5794C7.84373 4.5894 7.97471 4.80033 7.76275 5.2142C7.6816 5.34887 7.57166 5.46392 7.4408 5.5511C7.16885 5.75103 6.88589 5.93897 6.60094 6.11992C6.5014 6.18016 6.4247 6.27177 6.38289 6.38034C6.34109 6.48891 6.33654 6.60829 6.36998 6.71973C6.41197 6.96765 6.41797 7.21957 6.44597 7.54247C6.259 7.48049 6.14602 7.4515 6.03904 7.40451C5.92442 7.33405 5.78728 7.30981 5.65545 7.33673C5.52362 7.36365 5.40697 7.43971 5.32916 7.54946C5.24418 7.66548 5.19837 7.80554 5.19837 7.94934C5.19837 8.09314 5.24418 8.2332 5.32916 8.34921C5.52727 8.65331 5.81346 8.88974 6.14951 9.02693C6.48556 9.16412 6.85547 9.19553 7.20984 9.11697C7.51979 9.025 7.80974 8.87505 8.12469 8.79307C8.38671 8.71478 8.66612 8.71623 8.92732 8.79723C9.18852 8.87823 9.41971 9.03512 9.59144 9.24793C9.8094 9.49585 9.71342 9.82375 9.41947 9.82275C9.0387 9.8752 8.67986 10.0319 8.38264 10.2756C8.01927 10.4805 7.63729 10.6506 7.24183 10.7834C6.92703 10.8548 6.60648 10.898 6.284 10.9124C6.71576 11.2753 7.21674 11.5468 7.75657 11.7104C8.2964 11.874 8.86383 11.9263 9.42447 11.8641C9.95504 11.7001 10.4479 11.4327 10.8747 11.0774C11.3014 10.7221 11.6537 10.2858 11.911 9.79376L12.011 9.85374C11.9577 10.1736 11.904 10.4932 11.8501 10.8124C12.4219 9.85043 12.6408 8.71929 12.469 7.61344L12.5559 7.57646L13.0449 8.01232C13.2584 7.05857 13.2663 6.07025 13.0679 5.11323C13.137 5.1287 13.2041 5.15219 13.2678 5.18321C13.3798 5.27218 13.4848 5.36915 13.6278 5.49411C13.3846 4.77022 12.9537 4.12384 12.3789 3.62099C11.8041 3.11815 11.1062 2.77687 10.3563 2.63202L10.4043 2.52505L11.6631 2.29212L11.6731 2.19215L9.77341 1.61534C10.378 1.46215 11.0124 1.47181 11.6121 1.64333V1.64333Z"></path>
</symbol>

<symbol id="ie" viewBox="0 0 16 16">
  <path d="M11.8469 9.34997H15.7869C15.8316 9.04543 15.8506 8.73769 15.8439 8.42997C15.8226 6.95441 15.3611 5.51884 14.5185 4.30731C13.676 3.09577 12.4908 2.16348 11.1149 1.62997L11.3219 1.67297C11.3219 1.67297 16.3009 -0.644032 14.6419 4.48697L14.8419 4.84097C14.8419 4.84097 16.3009 0.927968 13.9549 0.275968C12.0379 -0.258032 9.2049 1.22497 9.2049 1.22497L9.3049 1.24697C9.1289 1.23297 8.9519 1.22497 8.7719 1.22497C7.08543 1.22518 5.45488 1.82977 4.17595 2.92909C2.89702 4.02841 2.0544 5.54966 1.8009 7.21697C2.79527 5.9666 3.94677 4.84972 5.2269 3.89397C5.2269 3.89397 2.5009 6.38397 1.7069 8.42997C1.14663 9.44605 0.69577 10.5187 0.3619 11.63C0.1619 12.46 -0.3551 15.44 1.7069 15.782C3.04249 15.9731 4.40267 15.6859 5.5469 14.971L5.5009 14.95C6.50408 15.4979 7.62884 15.785 8.7719 15.785C10.2809 15.7666 11.7447 15.2679 12.9511 14.3613C14.1575 13.4547 15.0436 12.1873 15.4809 10.743H11.4429C11.2172 11.2615 10.8407 11.7 10.3624 12.0016C9.88405 12.3032 9.32602 12.4539 8.7609 12.434C7.2299 12.434 6.1069 11.259 5.8149 9.34997H11.8469V9.34997ZM5.0699 14.693C4.38642 15.0428 3.64375 15.2622 2.8799 15.34C-0.1821 15.31 2.1129 10.89 2.1129 10.89V10.884C2.64178 12.4544 3.68732 13.7992 5.0789 14.699L5.0699 14.693ZM8.7759 4.63497C9.13576 4.61297 9.49631 4.66495 9.83531 4.78768C10.1743 4.91042 10.4846 5.10132 10.7469 5.3486C11.0093 5.59588 11.2182 5.8943 11.3608 6.22544C11.5034 6.55659 11.5766 6.91344 11.5759 7.27397H5.8429C5.91732 6.54863 6.25872 5.87685 6.80075 5.38915C7.34279 4.90145 8.04676 4.63265 8.7759 4.63497V4.63497Z"></path>
</symbol>

<symbol id="instagram" viewBox="0 0 16 16">
  <path d="M7.99997 1.72361C10.0444 1.72361 10.2864 1.73161 11.0932 1.7686C11.5787 1.77429 12.0596 1.86357 12.5148 2.03253C12.8485 2.15319 13.1506 2.34765 13.3986 2.60138C13.653 2.84822 13.8485 3.14928 13.9704 3.48215C14.1394 3.93736 14.2287 4.41826 14.2343 4.90378C14.2713 5.71057 14.2793 5.95251 14.2793 7.99697C14.2793 10.0414 14.2713 10.2834 14.2343 11.0902C14.2287 11.5757 14.1394 12.0566 13.9704 12.5118C13.8436 12.8422 13.6488 13.1423 13.3986 13.3926C13.1483 13.6428 12.8482 13.8376 12.5178 13.9644C12.0626 14.1334 11.5817 14.2227 11.0962 14.2283C10.2894 14.2653 10.0474 14.2733 8.00297 14.2733C5.9585 14.2733 5.71657 14.2653 4.90978 14.2283C4.42426 14.2227 3.94335 14.1334 3.48815 13.9644C3.1537 13.845 2.85056 13.6516 2.60138 13.3986C2.34694 13.1517 2.15147 12.8507 2.02953 12.5178C1.86057 12.0626 1.77129 11.5817 1.7656 11.0962C1.73161 10.2864 1.72361 10.0444 1.72361 7.99997C1.72361 5.95551 1.73161 5.71357 1.7686 4.90678C1.77429 4.42126 1.86357 3.94036 2.03253 3.48515C2.15319 3.15149 2.34765 2.84939 2.60138 2.60138C2.84822 2.34694 3.14928 2.15147 3.48215 2.02953C3.93736 1.86057 4.41826 1.77129 4.90378 1.7656C5.71357 1.73161 5.95551 1.72361 7.99997 1.72361ZM7.99997 0.344971C5.92051 0.344971 5.66058 0.352969 4.8438 0.390959C4.20858 0.403281 3.5801 0.523636 2.98528 0.746866C2.47436 0.938611 2.01164 1.23993 1.62964 1.62964C1.23993 2.01164 0.938611 2.47436 0.746866 2.98528C0.523636 3.5801 0.403281 4.20858 0.390959 4.8438C0.352969 5.66058 0.344971 5.92051 0.344971 7.99997C0.344971 10.0794 0.352969 10.3394 0.390959 11.1561C0.403281 11.7914 0.523636 12.4198 0.746866 13.0147C0.938611 13.5256 1.23993 13.9883 1.62964 14.3703C2.01164 14.76 2.47436 15.0613 2.98528 15.2531C3.5801 15.4763 4.20858 15.5967 4.8438 15.609C5.66058 15.647 5.92051 15.655 7.99997 15.655C10.0794 15.655 10.3394 15.647 11.1561 15.609C11.7914 15.5967 12.4198 15.4763 13.0147 15.2531C13.5231 15.0565 13.9849 14.7558 14.3703 14.3703C14.7558 13.9849 15.0565 13.5231 15.2531 13.0147C15.4763 12.4198 15.5967 11.7914 15.609 11.1561C15.647 10.3394 15.655 10.0794 15.655 7.99997C15.655 5.92051 15.647 5.66058 15.609 4.8438C15.5967 4.20858 15.4763 3.5801 15.2531 2.98528C15.0613 2.47436 14.76 2.01164 14.3703 1.62964C13.9883 1.23993 13.5256 0.938611 13.0147 0.746866C12.4198 0.523636 11.7914 0.403281 11.1561 0.390959C10.3394 0.352969 10.0794 0.344971 7.99997 0.344971Z"></path><path d="M7.99997 4.069C7.2225 4.069 6.46248 4.29955 5.81604 4.73149C5.16959 5.16343 4.66575 5.77736 4.36823 6.49565C4.0707 7.21394 3.99285 8.00433 4.14453 8.76687C4.29621 9.5294 4.6706 10.2298 5.22035 10.7796C5.77011 11.3293 6.47054 11.7037 7.23308 11.8554C7.99561 12.0071 8.786 11.9292 9.50429 11.6317C10.2226 11.3342 10.8365 10.8303 11.2685 10.1839C11.7004 9.53746 11.9309 8.77744 11.9309 7.99997C11.9311 7.48371 11.8295 6.97248 11.632 6.4955C11.4345 6.01851 11.1449 5.58511 10.7799 5.22006C10.4148 4.85501 9.98143 4.56546 9.50444 4.36796C9.02746 4.17045 8.51623 4.06887 7.99997 4.069ZM7.99997 10.5513C7.49537 10.5513 7.00209 10.4017 6.58253 10.1213C6.16296 9.84098 5.83595 9.44252 5.64285 8.97632C5.44974 8.51013 5.39922 7.99714 5.49766 7.50223C5.5961 7.00732 5.8391 6.55272 6.19591 6.19591C6.55272 5.8391 7.00732 5.5961 7.50223 5.49766C7.99714 5.39922 8.51013 5.44974 8.97632 5.64285C9.44252 5.83595 9.84098 6.16296 10.1213 6.58253C10.4017 7.00209 10.5513 7.49537 10.5513 7.99997C10.5514 8.33505 10.4855 8.66688 10.3574 8.97648C10.2292 9.28608 10.0413 9.56739 9.80433 9.80433C9.56739 10.0413 9.28608 10.2292 8.97648 10.3574C8.66688 10.4855 8.33505 10.5514 7.99997 10.5513Z"></path><path d="M12.0869 4.8318C12.5943 4.8318 13.0057 4.42046 13.0057 3.91304C13.0057 3.40562 12.5943 2.99428 12.0869 2.99428C11.5795 2.99428 11.1681 3.40562 11.1681 3.91304C11.1681 4.42046 11.5795 4.8318 12.0869 4.8318Z"></path>
</symbol>

<symbol id="linkedin" viewBox="0 0 16 16">
  <path d="M14.5437 0.320084H1.4533C1.15625 0.316881 0.870076 0.431683 0.657595 0.639286C0.445115 0.846888 0.3237 1.13032 0.320007 1.42736V14.5717C0.323701 14.8688 0.445083 15.1523 0.657534 15.3601C0.869985 15.5679 1.15616 15.6829 1.4533 15.6799H14.5437C14.8412 15.6831 15.1279 15.5683 15.3408 15.3606C15.5538 15.1528 15.6758 14.8691 15.68 14.5717V1.42736C15.6758 1.12997 15.5538 0.846382 15.3408 0.638807C15.1278 0.431232 14.8411 0.316611 14.5437 0.320084V0.320084ZM4.87619 13.4084H2.5986V6.07853H4.87919L4.87619 13.4084ZM3.7369 5.07728C3.47552 5.07748 3.21995 5.00015 3.00252 4.85508C2.7851 4.71001 2.61558 4.50372 2.51542 4.26229C2.41526 4.02087 2.38895 3.75516 2.43982 3.49878C2.49069 3.2424 2.61646 3.00687 2.80121 2.82198C2.98596 2.63709 3.2214 2.51114 3.47775 2.46008C3.73409 2.40901 3.99982 2.43512 4.24132 2.5351C4.48282 2.63508 4.68925 2.80444 4.83448 3.02175C4.97972 3.23906 5.05724 3.49457 5.05724 3.75595C5.05737 3.92942 5.02332 4.10122 4.95702 4.26152C4.89073 4.42183 4.79349 4.5675 4.67087 4.69021C4.54826 4.81292 4.40266 4.91026 4.2424 4.97668C4.08214 5.04309 3.91037 5.07728 3.7369 5.07728V5.07728ZM13.4094 13.4084H11.1308V9.84348C11.1308 8.99326 11.1168 7.89999 9.94751 7.89999C8.7622 7.89999 8.58116 8.82622 8.58116 9.78246V13.4084H6.30557V6.07853H8.48913V7.07878H8.52014C8.7394 6.70583 9.05559 6.39924 9.43514 6.19159C9.81468 5.98395 10.2434 5.883 10.6757 5.89949C12.9823 5.89949 13.4094 7.41687 13.4094 9.39136V13.4084Z"></path>
</symbol>

<symbol id="linux" viewBox="0 0 16 16">
  <path d="M13.945 13.4951C13.953 13.3691 13.868 13.1722 13.605 12.8803C13.4855 12.712 13.4102 12.5165 13.386 12.3115C13.3646 12.1379 13.2918 11.9747 13.177 11.8427V11.8427C13.1145 11.7906 13.042 11.752 12.9638 11.7293C12.8857 11.7066 12.8037 11.7003 12.723 11.7107H12.612C12.4942 11.8482 12.3461 11.9564 12.1794 12.027C12.0126 12.0976 11.8318 12.1286 11.6511 12.1176C11.507 12.0573 11.3848 11.9544 11.3008 11.8227C11.2168 11.6911 11.1751 11.5369 11.1811 11.3809L11.1561 11.3939C11.0645 11.4519 10.9866 11.5291 10.9276 11.62C10.8686 11.7109 10.8299 11.8134 10.8141 11.9207C10.7518 12.2392 10.7183 12.5628 10.7141 12.8873V12.8873C10.6603 13.2324 10.577 13.5722 10.4651 13.903C10.3548 14.1911 10.3446 14.508 10.4361 14.8026C10.5066 14.9625 10.6265 15.0956 10.7782 15.1823C10.9299 15.269 11.1055 15.3048 11.2791 15.2845C11.7117 15.2229 12.1028 14.9938 12.368 14.6467C12.75 14.2868 13.196 14.0016 13.683 13.806C13.847 13.709 13.938 13.6161 13.945 13.4951ZM5.91722 14.4108C5.88456 14.0938 5.74736 13.7966 5.52723 13.5661C5.28977 13.294 5.07663 13.0017 4.89025 12.6924V12.6924L4.39726 11.7957C4.33751 11.6961 4.25842 11.6093 4.16466 11.5407C4.0709 11.472 3.96435 11.4228 3.85128 11.3959C3.82319 11.3912 3.79476 11.3888 3.76628 11.3889H3.76528C3.6968 11.3909 3.62964 11.4082 3.5686 11.4393C3.50757 11.4704 3.45419 11.5146 3.41229 11.5688C3.29329 11.6958 3.1913 11.8747 3.0553 12.0186C2.91334 12.138 2.74562 12.2229 2.56531 12.2665C2.48776 12.2854 2.41495 12.3201 2.35145 12.3684C2.28795 12.4168 2.23514 12.4777 2.19632 12.5474V12.5474C2.13846 12.7079 2.13045 12.8821 2.17332 13.0473C2.22505 13.2433 2.23019 13.4487 2.18832 13.647V13.647C2.0811 13.85 2.05777 14.0869 2.12332 14.3068C2.16706 14.3699 2.2245 14.4222 2.29134 14.46C2.35818 14.4977 2.4327 14.5199 2.50931 14.5247C3.03259 14.5546 3.54805 14.6656 4.03727 14.8536V14.8536C4.42369 15.0793 4.8758 15.1657 5.31824 15.0985C5.48493 15.0718 5.63672 14.9868 5.74659 14.8586C5.85646 14.7305 5.91728 14.5675 5.91822 14.3988V14.3988L5.91722 14.4108ZM9.03414 4.38441C8.97993 4.29336 8.89474 4.22487 8.79415 4.19148C8.61239 4.13278 8.43552 4.05992 8.26516 3.97356C8.0872 3.84617 7.87587 3.77355 7.65718 3.76463C7.5775 3.76487 7.49842 3.77839 7.42318 3.80462C7.26263 3.86934 7.11898 3.96986 7.00319 4.09851C6.98619 4.11451 6.96519 4.1285 6.9142 4.16649C6.8632 4.20447 6.7842 4.26145 6.6722 4.34542C6.62569 4.37454 6.59046 4.41859 6.57229 4.47036C6.55412 4.52213 6.55409 4.57853 6.5722 4.63032C6.63835 4.78847 6.76096 4.91638 6.9162 4.98919V4.98919C7.02479 5.0645 7.12742 5.14805 7.22319 5.2391C7.27199 5.28018 7.32658 5.31386 7.38518 5.33906C7.45651 5.36818 7.53223 5.38508 7.60918 5.38904C7.78729 5.3984 7.96397 5.35268 8.11516 5.25809C8.23775 5.17292 8.36837 5.09993 8.50515 5.04017C8.6192 5.01218 8.72586 4.95991 8.81784 4.88693C8.90983 4.81396 8.98497 4.72199 9.03814 4.61732C9.05431 4.58051 9.06232 4.54063 9.06163 4.50043C9.06094 4.46023 9.05156 4.42065 9.03414 4.38441ZM10.9531 10.5712C11.0171 10.1473 11.3531 10.1323 11.3721 9.84942C11.233 9.14243 10.9843 8.46147 10.6351 7.83116C10.1499 6.87513 9.76097 5.87322 9.47413 4.84024C9.29779 5.06823 9.05214 5.23276 8.77415 5.30907C8.60169 5.3893 8.43614 5.48359 8.27916 5.59097C8.07824 5.71384 7.8477 5.77984 7.61218 5.7819H7.53718C7.32294 5.77211 7.11781 5.6924 6.95319 5.55498C6.82796 5.4377 6.69427 5.32978 6.55321 5.2321C6.50421 5.20411 6.39321 5.13214 6.36121 5.10515C6.14554 6.33748 5.73008 7.52635 5.13124 8.62487C4.87087 9.23309 4.72477 9.88405 4.70025 10.5452C4.69193 10.669 4.71305 10.7931 4.76189 10.9073C4.81073 11.0214 4.88589 11.1224 4.98125 11.2019C5.44102 11.4632 5.84797 11.808 6.18122 12.2186C6.27957 12.3204 6.35192 12.4444 6.39213 12.5802C6.43234 12.7159 6.43923 12.8593 6.41221 12.9983C6.39344 13.0472 6.36498 13.0917 6.32855 13.1294C6.29213 13.167 6.24847 13.1969 6.20022 13.2172C6.10282 13.2581 5.99784 13.2779 5.89222 13.2752C5.95322 13.3522 6.01622 13.4311 6.07622 13.5101C6.17122 13.6341 6.26221 13.759 6.34221 13.886C6.88705 14.2267 7.52477 14.3888 8.16625 14.3495C8.80773 14.3103 9.42091 14.0717 9.92012 13.667C10.0197 13.3746 10.091 13.0734 10.1331 12.7674C10.1403 12.3482 10.1858 11.9307 10.2691 11.5198C10.2963 11.3575 10.3578 11.2028 10.4496 11.0661C10.5413 10.9294 10.6611 10.8138 10.8011 10.7271C10.8453 10.7027 10.8915 10.682 10.9391 10.6651C10.9438 10.6311 10.9484 10.5998 10.9531 10.5712V10.5712ZM7.30919 3.41376C7.31421 3.34888 7.31421 3.28371 7.30919 3.21883V3.21883C7.3036 3.06823 7.26967 2.92003 7.20919 2.78199C7.16076 2.66073 7.08231 2.55375 6.98119 2.4711C6.90645 2.40724 6.81153 2.37183 6.7132 2.37114H6.6882C6.58104 2.37758 6.48076 2.42608 6.40921 2.50609C6.31766 2.59911 6.25155 2.71407 6.21721 2.83997C6.17322 2.98424 6.15594 3.13533 6.16622 3.28581V3.28581C6.17281 3.43627 6.20669 3.58429 6.26621 3.72265C6.30896 3.82646 6.37261 3.92037 6.45321 3.99855L6.54121 3.93357C6.5802 3.90558 6.6122 3.87959 6.6592 3.8436L6.6362 3.82561C6.58718 3.78094 6.54918 3.7255 6.52521 3.66367C6.4959 3.59361 6.47768 3.51941 6.47121 3.44375V3.43375C6.46342 3.35515 6.46849 3.27581 6.48621 3.19884C6.49808 3.13363 6.52552 3.07224 6.5662 3.0199C6.58111 2.99839 6.60057 2.98043 6.62322 2.9673C6.64586 2.95416 6.67112 2.94619 6.6972 2.94393H6.7102C6.75499 2.94699 6.79705 2.96659 6.8282 2.99891C6.8772 3.0434 6.91491 3.09891 6.9382 3.16085C6.96881 3.22938 6.98871 3.3022 6.99719 3.37677V3.38577C7.00374 3.4429 7.00374 3.50058 6.99719 3.55771C7.07873 3.50436 7.16678 3.46169 7.25919 3.43075L7.30919 3.41376ZM9.47413 3.22583C9.47318 3.22155 9.47318 3.21711 9.47413 3.21283C9.47402 3.04013 9.43613 2.86954 9.36313 2.71302C9.30033 2.56518 9.19876 2.43705 9.06914 2.34215C8.95689 2.25551 8.81896 2.20873 8.67715 2.2092H8.66815C8.52253 2.20856 8.38119 2.25836 8.26816 2.35015C8.14099 2.44792 8.04197 2.5776 7.98117 2.72601C7.91044 2.88714 7.87629 3.06193 7.88117 3.23782V3.25282C7.88203 3.30367 7.88604 3.35441 7.89317 3.40476C8.03295 3.43645 8.16902 3.48268 8.29916 3.54271C8.28997 3.48992 8.28595 3.43635 8.28716 3.38277V3.37378C8.29028 3.27905 8.31132 3.18577 8.34916 3.09887C8.3778 3.02154 8.42563 2.95275 8.48815 2.89895C8.53573 2.8554 8.59765 2.83086 8.66215 2.82997H8.67115C8.70469 2.8311 8.73768 2.83883 8.76822 2.85272C8.79876 2.86662 8.82626 2.8864 8.84914 2.91094C8.90741 2.96943 8.95005 3.04162 8.97314 3.12087C9.00234 3.20776 9.01588 3.29914 9.01314 3.39077V3.39877C9.01179 3.49426 8.9921 3.5886 8.95514 3.67667C8.92232 3.73078 8.88153 3.77965 8.83414 3.82161L8.97914 3.87359C9.03614 3.89459 9.09814 3.91958 9.16914 3.95057C9.19013 3.95856 9.21013 3.96756 9.22913 3.97656C9.28819 3.90394 9.33636 3.82312 9.37213 3.73664C9.44315 3.5759 9.47797 3.40151 9.47413 3.22583V3.22583ZM14.126 12.6224C14.3997 12.856 14.5715 13.1869 14.605 13.5451C14.5856 13.669 14.5355 13.7861 14.4594 13.8857C14.3832 13.9854 14.2834 14.0645 14.169 14.1159C13.5852 14.354 13.0474 14.6923 12.58 15.1155L12.498 15.0485L12.579 15.1165C12.2125 15.5971 11.6702 15.9128 11.0711 15.9942C10.8128 16.0191 10.5531 15.9635 10.3277 15.835C10.1023 15.7065 9.92219 15.5114 9.81212 15.2765V15.2765C9.77776 15.2099 9.75157 15.1394 9.73412 15.0665C9.06314 15.1045 8.47915 14.9006 8.01217 14.9386C7.32419 14.9766 6.8942 15.1385 6.50221 15.1445C6.42648 15.306 6.31364 15.4474 6.17287 15.557C6.03211 15.6666 5.86742 15.7414 5.69223 15.7753C5.08996 15.8734 4.47229 15.7589 3.94528 15.4514L3.99727 15.3514L3.94728 15.4454C3.3514 15.2262 2.72696 15.0942 2.09332 15.0535C1.96635 15.0415 1.84379 15.0006 1.73497 14.9341C1.62616 14.8676 1.53394 14.7772 1.46534 14.6697C1.40895 14.5085 1.38607 14.3375 1.39811 14.1671C1.41014 13.9968 1.45684 13.8307 1.53534 13.679C1.57079 13.4633 1.56229 13.2426 1.51034 13.0303C1.48846 12.9081 1.47609 12.7845 1.47334 12.6604C1.46922 12.5259 1.49915 12.3925 1.56034 12.2725V12.2725C1.68544 12.0511 1.89329 11.8882 2.13832 11.8197C2.33224 11.7733 2.51375 11.6853 2.67031 11.5618C2.81331 11.4109 2.9413 11.1869 3.1143 11.001C3.1373 10.977 3.1623 10.953 3.1873 10.93C3.12003 10.3675 3.18614 9.79694 3.38029 9.26464C3.80024 8.15811 4.41341 7.13493 5.19124 6.24273C5.62335 5.65545 5.86739 4.95111 5.89122 4.22247C5.93622 3.22383 5.18724 0.239913 8.01117 0.0129953C8.12316 0 8.23016 0 8.33316 0C10.8611 0 10.7191 2.66603 10.7031 4.09851C10.7645 4.94988 11.135 5.74945 11.7451 6.3467C12.3554 7.03683 12.8462 7.82405 13.197 8.67585C13.5254 9.45989 13.5665 10.3346 13.313 11.146C13.3575 11.1633 13.4006 11.1841 13.442 11.2079C13.4862 11.2351 13.528 11.2658 13.567 11.2999V11.2999C13.7495 11.4915 13.8649 11.737 13.896 11.9996C13.9253 12.2191 14.0021 12.4296 14.121 12.6164L14.126 12.6224Z"></path>
</symbol>

<symbol id="mailchimp" viewBox="0 0 16 16">
  <path d="M6.28919 7.50642C6.21411 7.51032 6.14191 7.53661 6.08187 7.5819C6.02183 7.6272 5.9767 7.68944 5.95227 7.76061C5.92828 7.81665 5.92128 7.86069 5.90128 7.86069C5.88129 7.86069 5.89228 7.82166 5.86929 7.73759C5.85143 7.66801 5.8097 7.60694 5.75139 7.56504C5.69309 7.52315 5.62194 7.50311 5.55036 7.50842C5.47367 7.51388 5.40048 7.5427 5.34062 7.591C5.28075 7.6393 5.23707 7.70477 5.21544 7.77863C5.18745 7.84367 5.18745 7.86169 5.16546 7.86169C5.14346 7.86169 5.15946 7.80965 5.17445 7.7486C5.19085 7.67936 5.1929 7.6075 5.18045 7.53744H4.85453V8.76438H5.29942V8.15391C5.29942 8.03382 5.34941 7.8807 5.43539 7.8807C5.52137 7.8807 5.55536 7.95676 5.55536 8.09887V8.76438H6.00126V8.15391C6.00126 8.04683 6.04425 7.8807 6.13823 7.8797C6.2322 7.8787 6.2572 7.98778 6.2572 8.09787V8.76338H6.70109V8.04183C6.70109 7.71858 6.58412 7.50542 6.28919 7.50642Z"></path><path d="M13.8414 7.4874C13.7663 7.49144 13.6942 7.51778 13.6342 7.56305C13.5742 7.60833 13.529 7.67049 13.5045 7.7416C13.4795 7.79764 13.4735 7.84167 13.4535 7.84167C13.4335 7.84167 13.4435 7.79364 13.4215 7.71858C13.4047 7.64839 13.3633 7.58659 13.3047 7.5445C13.2461 7.50241 13.1744 7.48285 13.1026 7.4894C13.026 7.49515 12.9529 7.52406 12.8931 7.57232C12.8333 7.62058 12.7895 7.68589 12.7676 7.75961C12.7397 7.82466 12.7397 7.84367 12.7177 7.84367C12.6957 7.84367 12.7117 7.79163 12.7267 7.73059C12.743 7.66101 12.7451 7.58882 12.7327 7.51843H12.4067V8.74536H12.8516V8.1349C12.8516 8.01481 12.9016 7.86169 12.9876 7.86169C13.0736 7.86169 13.1076 7.93775 13.1076 8.07986V8.74536H13.5545V8.1349C13.5545 8.02782 13.5975 7.86169 13.6914 7.86169C13.7854 7.86169 13.8104 7.96877 13.8104 8.07986V8.74536H14.2493V8.02381C14.2493 7.70057 14.1363 7.4864 13.8414 7.4874Z"></path><path d="M7.45691 7.50341C7.25477 7.50318 7.05496 7.54653 6.87105 7.63051V7.99879C7.02101 7.91241 7.18771 7.85918 7.35993 7.84267C7.53489 7.84267 7.55989 7.93675 7.54889 8.01481C7.48286 8.00359 7.41586 7.99923 7.34894 8.0018C6.98602 8.0018 6.80307 8.16792 6.80407 8.43312C6.80393 8.48192 6.81387 8.53022 6.83326 8.57499C6.85265 8.61976 6.88107 8.66004 6.91674 8.6933C6.95241 8.72656 6.99456 8.75209 7.04054 8.76828C7.08653 8.78447 7.13536 8.79098 7.18398 8.7874C7.26819 8.7909 7.35148 8.76877 7.42287 8.72393C7.49426 8.67908 7.5504 8.61363 7.58388 8.5362C7.60688 8.48016 7.61187 8.44213 7.63287 8.44213C7.65386 8.44213 7.64887 8.46915 7.64787 8.5252C7.64369 8.60342 7.65008 8.68186 7.66686 8.75837H8.00078V8.15791C7.99478 7.77662 7.86081 7.50241 7.45691 7.50341ZM7.35094 8.47216C7.24396 8.49717 7.18897 8.46415 7.18897 8.3941C7.18897 8.29402 7.28895 8.25799 7.43092 8.25799C7.47163 8.25755 7.51234 8.25922 7.55289 8.26299C7.53826 8.31142 7.5123 8.35565 7.47718 8.39202C7.44206 8.4284 7.39878 8.45587 7.35094 8.47216Z"></path><path d="M9.17075 7.15555L8.72586 7.15665L8.72979 8.75487L9.17468 8.75377L9.17075 7.15555Z"></path><path d="M9.66339 8.1399C9.66339 8.02982 9.76336 7.92874 9.95232 7.92874C10.0963 7.93138 10.2369 7.97287 10.3592 8.04883V7.6215C10.2292 7.527 10.0694 7.48291 9.90933 7.49741C9.82616 7.49133 9.74266 7.50337 9.66459 7.5327C9.58652 7.56203 9.51573 7.60796 9.45709 7.66731C9.39846 7.72667 9.35338 7.79805 9.32496 7.87652C9.29654 7.955 9.28546 8.03871 9.29247 8.12189C9.28297 8.20739 9.29212 8.29394 9.31929 8.37555C9.34646 8.45717 9.391 8.53191 9.44984 8.59462C9.50868 8.65732 9.58041 8.70649 9.66009 8.73874C9.73977 8.77099 9.82548 8.78554 9.91133 8.78139C10.0754 8.78354 10.235 8.72793 10.3622 8.62427V8.21896C10.244 8.30005 10.1055 8.3465 9.96232 8.35306C9.74037 8.35406 9.66339 8.25499 9.66339 8.1399Z"></path><path d="M11.26 7.49441C11.1762 7.49993 11.0959 7.53015 11.0292 7.58126C10.9624 7.63236 10.9123 7.70208 10.8851 7.78163C10.8651 7.82466 10.8551 7.84868 10.8391 7.84868C10.8231 7.84868 10.8311 7.79664 10.8391 7.76361C10.8824 7.62465 10.904 7.47984 10.9031 7.33428C10.9071 7.27293 10.9006 7.21135 10.8841 7.15215H10.5002V8.75337H10.9451V8.1429C10.9451 8.04283 10.9841 7.86969 11.096 7.86869C11.189 7.86869 11.219 7.93775 11.219 8.07685V8.75237H11.6639V8.10287C11.6669 7.78363 11.6139 7.49341 11.26 7.49441Z"></path><path d="M11.8109 7.52243V8.74837H12.2558V7.52243C12.1865 7.55518 12.1103 7.57031 12.0338 7.56646C11.957 7.57026 11.8805 7.55514 11.8109 7.52243Z"></path><path d="M12.0319 7.49277C12.1821 7.4924 12.3036 7.41235 12.3034 7.31397C12.3031 7.21559 12.1812 7.13613 12.031 7.1365C11.8808 7.13687 11.7593 7.21693 11.7595 7.31531C11.7598 7.41369 11.8817 7.49314 12.0319 7.49277Z"></path><path d="M8.13775 7.53043V8.75637H8.58264V7.53043C8.44001 7.58846 8.28038 7.58846 8.13775 7.53043Z"></path><path d="M8.35879 7.50182C8.50898 7.50145 8.63053 7.4214 8.63029 7.32302C8.63005 7.22463 8.5081 7.14518 8.35792 7.14555C8.20773 7.14592 8.08618 7.22597 8.08642 7.32436C8.08667 7.42274 8.20861 7.50219 8.35879 7.50182Z"></path><path d="M15.1331 7.4844C15.0503 7.48664 14.97 7.51355 14.9025 7.56168C14.835 7.6098 14.7834 7.67697 14.7542 7.75461C14.7242 7.81966 14.7262 7.83867 14.7042 7.83867C14.6822 7.83867 14.6992 7.78663 14.7132 7.73059C14.7302 7.66109 14.7322 7.58877 14.7192 7.51843H14.3933V9.08462H14.8382V8.58424C14.8672 8.63892 14.9103 8.68482 14.9631 8.7172C15.0158 8.74957 15.0762 8.76725 15.1381 8.76838C15.459 8.76838 15.621 8.49417 15.62 8.12589C15.623 7.70757 15.428 7.4834 15.1331 7.4844ZM15.0131 8.47616C14.9131 8.47616 14.8362 8.34706 14.8352 8.16692C14.8342 7.98678 14.9121 7.85668 15.0081 7.85668C15.1321 7.85668 15.1851 7.96977 15.1861 8.16592C15.1871 8.36207 15.1381 8.47616 15.0131 8.47616Z"></path><path d="M3.2829 7.8837C3.31115 7.88068 3.33964 7.88068 3.36788 7.8837C3.38302 7.83107 3.38302 7.77522 3.36788 7.72258C3.34689 7.62251 3.3199 7.56646 3.26791 7.57547C3.21592 7.58448 3.20892 7.65553 3.22892 7.75361C3.23729 7.80037 3.25571 7.84476 3.2829 7.8837Z"></path><path d="M2.79402 7.96277C2.83501 7.98078 2.86 7.99179 2.87 7.98178C2.88 7.97177 2.87 7.96276 2.864 7.94675C2.8392 7.90991 2.80456 7.88078 2.76403 7.86269C2.71841 7.84366 2.66864 7.83679 2.61958 7.84276C2.57052 7.84872 2.52384 7.86731 2.48409 7.89672C2.4571 7.91673 2.43111 7.94475 2.43511 7.96176C2.4391 7.97878 2.43511 7.97077 2.4501 7.97177C2.51138 7.95505 2.57344 7.94135 2.63606 7.93074C2.69054 7.9283 2.74478 7.9393 2.79402 7.96277Z"></path><path d="M2.71204 8.0098C2.67537 8.0139 2.64066 8.0285 2.61206 8.05183C2.59851 8.06171 2.58921 8.07638 2.58607 8.09286L2.58507 8.09787L2.58607 8.10287H2.59507C2.60848 8.10086 2.62158 8.09716 2.63406 8.09186C2.68842 8.0707 2.74745 8.06448 2.80502 8.07385C2.83201 8.07385 2.84401 8.07385 2.85001 8.06885C2.85601 8.06384 2.85001 8.06084 2.85001 8.05183C2.83224 8.03401 2.81035 8.02085 2.78628 8.01352C2.76222 8.00619 2.73672 8.00491 2.71204 8.0098Z"></path><path d="M3.11894 8.18093C3.13287 8.19004 3.14975 8.19346 3.16612 8.19048C3.18249 8.1875 3.19709 8.17835 3.20692 8.16492C3.21992 8.1389 3.20092 8.10287 3.16493 8.08486C3.15101 8.07575 3.13412 8.07233 3.11775 8.07531C3.10139 8.07829 3.08678 8.08744 3.07695 8.10087C3.06396 8.13089 3.08295 8.16292 3.11894 8.18093Z"></path><path d="M3.34989 7.97778C3.32089 7.97778 3.2969 8.0088 3.2959 8.04983C3.2949 8.09086 3.3189 8.12289 3.34789 8.12289C3.37688 8.12289 3.40188 8.09086 3.40188 8.05083C3.40188 8.0108 3.37988 7.97778 3.34989 7.97778Z"></path><path d="M1.38336 8.70733C1.37636 8.69833 1.36436 8.70133 1.35236 8.70733C1.34338 8.70797 1.33436 8.70797 1.32537 8.70733C1.31555 8.70743 1.30585 8.7051 1.29713 8.70057C1.28842 8.69603 1.28095 8.68942 1.27538 8.68131C1.26821 8.66811 1.26445 8.65331 1.26445 8.63828C1.26445 8.62325 1.26821 8.60846 1.27538 8.59525L1.28238 8.57924C1.30254 8.54586 1.31482 8.50832 1.31829 8.46947C1.32175 8.43062 1.31631 8.39149 1.30238 8.35507C1.28788 8.32555 1.26634 8.30006 1.23966 8.28086C1.21298 8.26166 1.18198 8.24934 1.14941 8.24498C1.11858 8.24093 1.08722 8.24436 1.05799 8.25499C1.02876 8.26561 1.00251 8.28312 0.981451 8.30603C0.956558 8.33245 0.938032 8.36422 0.927288 8.39891C0.916545 8.43361 0.913869 8.4703 0.919466 8.50618C0.924465 8.51919 0.931463 8.52219 0.936462 8.52319C0.941461 8.52419 0.963456 8.51619 0.973453 8.48917V8.48016C0.980675 8.45874 0.990407 8.43825 1.00245 8.41911C1.01067 8.40633 1.02136 8.39531 1.03389 8.38672C1.04642 8.37813 1.06055 8.37213 1.07543 8.36908C1.09073 8.36556 1.10659 8.36517 1.12205 8.36792C1.1375 8.37067 1.15225 8.37651 1.16541 8.38509C1.18759 8.39944 1.20411 8.42106 1.21213 8.44625C1.22015 8.47144 1.21919 8.49864 1.2094 8.52319C1.19393 8.56269 1.18645 8.60487 1.1874 8.64729C1.18623 8.67811 1.19686 8.70822 1.21711 8.73146C1.23736 8.75471 1.26571 8.76935 1.29638 8.77239C1.31357 8.77476 1.33109 8.77215 1.34685 8.76488C1.36262 8.75761 1.37598 8.74598 1.38536 8.73135C1.38804 8.72781 1.38933 8.7234 1.38896 8.71896C1.38859 8.71453 1.38659 8.71038 1.38336 8.70733Z"></path><path d="M4.09071 8.54121C4.09071 8.5342 4.07772 8.49217 4.06172 8.44113C4.04572 8.39009 4.02873 8.35306 4.02873 8.35306C4.07677 8.28663 4.09687 8.20399 4.08471 8.12289C4.07509 8.06048 4.04605 8.0027 4.00173 7.95776C3.9153 7.88487 3.81231 7.83435 3.7018 7.81065L3.62582 7.78963C3.62582 7.78963 3.62582 7.6095 3.61782 7.53344C3.61573 7.4572 3.60397 7.38154 3.58283 7.30826C3.55662 7.2028 3.50198 7.10656 3.42487 7.03005C3.59773 6.8747 3.70706 6.66081 3.7318 6.42959C3.7318 6.07132 3.2909 5.96424 2.75003 6.19041L2.63506 6.23945L2.42411 6.02929C1.80226 5.49588 -0.120287 7.64853 0.502565 8.16792L0.637533 8.28201C0.602115 8.38029 0.590133 8.4855 0.602542 8.58924C0.618608 8.7385 0.689946 8.87632 0.802494 8.97554C0.914565 9.07781 1.05978 9.1361 1.2114 9.13967C1.33776 9.41338 1.54033 9.64479 1.7948 9.80615C2.04927 9.96751 2.34484 10.052 2.64606 10.0494C2.95885 10.0765 3.27231 10.0054 3.54287 9.84594C3.81342 9.68649 4.02763 9.44662 4.1557 9.15968C4.2043 9.03564 4.23233 8.90448 4.23868 8.77138C4.24168 8.60826 4.1497 8.54121 4.09071 8.54121ZM1.26838 8.98355C1.24713 8.98603 1.22565 8.98603 1.2044 8.98355C1.09279 8.97549 0.987114 8.93019 0.904278 8.85489C0.821442 8.7796 0.76624 8.67865 0.747507 8.56823C0.726894 8.46171 0.749161 8.35136 0.809457 8.2612C0.869753 8.17104 0.963194 8.10837 1.06943 8.08686C1.10042 8.08124 1.13192 8.07889 1.16341 8.07985C1.25644 8.09119 1.34255 8.13488 1.40668 8.20329C1.47082 8.27169 1.50892 8.36048 1.51432 8.45414C1.55232 8.69933 1.49333 8.94452 1.26838 8.98355ZM1.03244 7.94475C0.899016 7.97158 0.780943 8.04859 0.702518 8.15992C0.650319 8.11956 0.602711 8.07358 0.560552 8.02281C0.44058 7.79664 0.688521 7.3553 0.86048 7.10611C1.28938 6.48964 1.96022 6.02328 2.27414 6.10534C2.35565 6.16589 2.42951 6.23612 2.49409 6.3145C2.28296 6.4364 2.08232 6.57566 1.89423 6.73082C1.50044 7.04799 1.20214 7.46818 1.03244 7.94475ZM3.22292 8.88747C3.22549 8.88656 3.22763 8.88472 3.22892 8.88232C3.23022 8.87991 3.23057 8.87711 3.22992 8.87446L3.22871 8.87032L3.226 8.86696L3.22221 8.8649L3.21792 8.86446C3.00392 8.8905 2.78681 8.86898 2.58207 8.80141C2.61606 8.69232 2.70504 8.73135 2.84001 8.74236C3.05 8.75349 3.26039 8.73016 3.46286 8.67331C3.63077 8.6247 3.78834 8.54567 3.92775 8.44013C3.95912 8.51107 3.98129 8.58573 3.99374 8.6623C4.0171 8.6586 4.04103 8.66282 4.06172 8.67431C4.09171 8.69232 4.11271 8.72935 4.09871 8.82743C4.07084 9.0035 3.98829 9.16632 3.86277 9.29278C3.78194 9.38061 3.6857 9.45286 3.57883 9.50595C3.51939 9.53792 3.45714 9.56439 3.39288 9.58501C3.1865 9.67271 2.95512 9.68141 2.74275 9.60945C2.53038 9.53748 2.35186 9.38987 2.24115 9.19471C2.22782 9.16605 2.21711 9.13624 2.20916 9.10564C2.17312 8.97864 2.16981 8.84458 2.19953 8.71595C2.22925 8.58733 2.29104 8.46834 2.37912 8.37008C2.39101 8.36008 2.39913 8.3463 2.40211 8.33105C2.40037 8.31587 2.3941 8.30157 2.38412 8.29002C2.30305 8.22207 2.23897 8.13611 2.19696 8.03898C2.15496 7.94186 2.1362 7.83625 2.14218 7.73059C2.15408 7.63176 2.20096 7.54047 2.27433 7.47328C2.3477 7.40608 2.44269 7.36742 2.54208 7.36431H2.58707C2.66505 7.36431 2.73204 7.37832 2.79602 7.38132C2.85336 7.38628 2.91112 7.37933 2.96565 7.3609C3.02019 7.34248 3.07033 7.31297 3.11294 7.27424C3.14584 7.24031 3.18786 7.21667 3.23392 7.20619C3.24915 7.20372 3.26467 7.20372 3.2799 7.20619C3.30774 7.20696 3.33479 7.21564 3.35789 7.23121C3.44886 7.29125 3.45786 7.43836 3.46786 7.54645C3.46786 7.60749 3.47786 7.75661 3.48086 7.79864C3.48686 7.89872 3.51285 7.90973 3.56384 7.92674C3.59383 7.93675 3.62082 7.94375 3.66381 7.95476C3.7507 7.97235 3.83202 8.01081 3.90076 8.06685C3.92437 8.08959 3.93983 8.11948 3.94475 8.15191C3.95874 8.25199 3.86477 8.38409 3.61383 8.50118C3.35103 8.61717 3.06299 8.66402 2.77702 8.63728L2.69604 8.62827C2.51209 8.60426 2.40711 8.84244 2.51809 9.00556C2.57774 9.06585 2.64975 9.11246 2.72915 9.14218C2.80855 9.1719 2.89344 9.18402 2.97798 9.17769C3.14652 9.18525 3.31479 9.15746 3.47198 9.09611C3.62917 9.03475 3.77181 8.94119 3.89076 8.82142L3.90076 8.80641C3.90676 8.7974 3.90076 8.7924 3.89376 8.7974C3.58508 9.01185 3.20968 9.10811 2.83601 9.06861C2.79618 9.0603 2.75732 9.04789 2.72004 9.03158C2.68397 9.02234 2.6512 9.00321 2.62541 8.97633C2.59963 8.94946 2.58184 8.91591 2.57407 8.87947C2.78285 8.95754 3.01228 8.96038 3.22292 8.88747ZM1.82525 7.10111C1.96819 6.93159 2.14101 6.7898 2.33513 6.68279L2.33906 6.68251L2.34252 6.6844L2.3444 6.68786L2.34413 6.69179C2.32279 6.72805 2.30664 6.76713 2.29614 6.80788L2.29657 6.81199L2.29925 6.81514L2.30323 6.81623L2.30714 6.81489C2.44127 6.72615 2.59502 6.67153 2.75503 6.65577L2.75752 6.65832L2.75842 6.66177L2.75752 6.66522L2.75503 6.66777C2.72878 6.68839 2.70527 6.71227 2.68505 6.73883L2.6838 6.74221L2.68439 6.74577L2.68668 6.74856L2.69005 6.74984C2.82098 6.75431 2.94918 6.78853 3.06496 6.84991C3.07195 6.84991 3.06496 6.86793 3.05896 6.86593C2.83589 6.81488 2.60419 6.81488 2.38112 6.86593C2.18381 6.91157 1.99712 6.99481 1.83125 7.11111L1.82798 7.11013L1.82557 7.10772L1.82458 7.10445L1.82525 7.10111Z"></path>
</symbol>

<symbol id="safari" viewBox="0 0 16 16">
  <path d="M8 2.094C9.16809 2.094 10.31 2.44038 11.2812 3.08934C12.2524 3.7383 13.0094 4.66069 13.4564 5.73987C13.9034 6.81905 14.0204 8.00655 13.7925 9.1522C13.5646 10.2979 13.0021 11.3502 12.1762 12.1762C11.3502 13.0021 10.2979 13.5646 9.1522 13.7925C8.00655 14.0204 6.81905 13.9034 5.73987 13.4564C4.66069 13.0094 3.7383 12.2524 3.08934 11.2812C2.44038 10.31 2.094 9.16809 2.094 8C2.09559 6.43411 2.71833 4.93282 3.82558 3.82558C4.93283 2.71833 6.43412 2.09558 8 2.094ZM8 0.119995C6.44148 0.119995 4.91796 0.582149 3.62211 1.44801C2.32625 2.31388 1.31625 3.54457 0.719828 4.98445C0.123409 6.42433 -0.0326409 8.00874 0.271411 9.53731C0.575462 11.0659 1.32596 12.47 2.428 13.572C3.53004 14.674 4.93412 15.4245 6.46269 15.7286C7.99126 16.0326 9.57566 15.8766 11.0155 15.2802C12.4554 14.6837 13.6861 13.6737 14.552 12.3779C15.4178 11.082 15.88 9.55851 15.88 8C15.8801 6.96514 15.6764 5.9404 15.2804 4.98429C14.8845 4.02819 14.304 3.15945 13.5723 2.4277C12.8405 1.69595 11.9718 1.11552 11.0157 0.719557C10.0596 0.323596 9.03485 0.119864 8 0.119995Z"></path><path d="M11.206 11.206L9.417 6.583L4.794 4.794L6.583 9.39999L11.206 11.206ZM7.528 7.528C7.58882 7.46397 7.66202 7.41299 7.74317 7.37815C7.82431 7.34331 7.91169 7.32534 8 7.32534C8.0883 7.32534 8.17569 7.34331 8.25683 7.37815C8.33797 7.41299 8.41118 7.46397 8.472 7.528C8.53428 7.58981 8.58372 7.66334 8.61745 7.74435C8.65119 7.82536 8.66855 7.91224 8.66855 8C8.66855 8.08775 8.65119 8.17463 8.61745 8.25564C8.58372 8.33665 8.53428 8.41018 8.472 8.472C8.34527 8.58936 8.178 8.65307 8.0053 8.64976C7.8326 8.64645 7.6679 8.57637 7.54576 8.45423C7.42362 8.33209 7.35354 8.16739 7.35023 7.99469C7.34692 7.822 7.41063 7.65473 7.528 7.528Z"></path>
</symbol>

<symbol id="stripe" viewBox="0 0 16 16">
  <path d="M4.23128 5.26601L3.16621 5.48701V8.95401C3.1616 9.24271 3.2707 9.52165 3.46996 9.73063C3.66922 9.9396 3.94266 10.0619 4.23128 10.071H4.28328C4.54202 10.0828 4.79994 10.0339 5.03633 9.92801V9.04501C4.89332 9.09701 4.21827 9.30501 4.21827 8.65601V7.12301H5.03633V6.20001H4.20527L4.23128 5.26601Z"></path><path d="M1.29709 7.30501C1.29709 7.13601 1.4401 7.07101 1.66111 7.07101C2.03595 7.0832 2.40372 7.17633 2.73918 7.34401V6.33101C2.39683 6.19287 2.03023 6.12486 1.66111 6.13101C0.790055 6.12401 0.205017 6.59101 0.205017 7.35701C0.205017 8.55201 1.85512 8.35701 1.85512 8.87701C1.85512 9.07101 1.68611 9.13601 1.4391 9.13601C1.02351 9.11116 0.619136 8.99143 0.25702 8.78601V9.82501C0.631293 9.98311 1.03282 10.0667 1.4391 10.071C2.33915 10.071 2.95819 9.63001 2.95819 8.85101C2.94519 7.55201 1.29709 7.78601 1.29709 7.30501Z"></path><path d="M6.38741 6.52601L6.32241 6.20001H5.38735V9.99301H6.46542V7.42201C6.56253 7.30556 6.69311 7.22179 6.83945 7.18208C6.98579 7.14237 7.14081 7.14863 7.28347 7.20001V6.20001C7.11972 6.13919 6.93967 6.13858 6.77551 6.19831C6.61136 6.25803 6.47379 6.37419 6.38741 6.52601Z"></path><path d="M15.79 8.11001C15.79 7.01001 15.257 6.12401 14.2309 6.12401C13.9895 6.1362 13.7532 6.19821 13.5369 6.30616C13.3205 6.41411 13.1289 6.56564 12.974 6.75124C12.8191 6.93684 12.7043 7.15248 12.6368 7.3846C12.5693 7.61672 12.5506 7.8603 12.5818 8.10001C12.5475 8.35114 12.5689 8.60674 12.6444 8.84869C12.7199 9.09065 12.8476 9.31306 13.0186 9.50016C13.1896 9.68726 13.3996 9.83449 13.6338 9.93141C13.8681 10.0283 14.1207 10.0726 14.3739 10.061C14.792 10.0722 15.2056 9.97392 15.574 9.77601V8.91601C15.245 9.08419 14.8781 9.16445 14.5089 9.14901C14.0929 9.14901 13.7169 9.00601 13.6649 8.48701H15.795C15.7868 8.36152 15.7851 8.23568 15.79 8.11001ZM13.6469 7.70001C13.6469 7.20601 13.9469 7.01201 14.2179 7.01201C14.4889 7.01201 14.764 7.21901 14.764 7.70001H13.6469Z"></path><path d="M8.64656 6.20101H7.55549V9.99301H8.64656V6.20101Z"></path><path d="M10.9067 6.12401C10.592 6.12135 10.2889 6.24237 10.0626 6.46101L10.0106 6.18801H9.06258V11.24L10.1407 11.006V9.78601C10.3566 9.96303 10.6275 10.0592 10.9067 10.058C11.6858 10.058 12.3868 9.43501 12.3868 8.05801C12.3738 6.81201 11.6598 6.12401 10.9067 6.12401ZM10.6467 9.11001C10.5534 9.11552 10.46 9.10106 10.3727 9.06761C10.2855 9.03416 10.2064 8.98247 10.1407 8.91601V7.30501C10.2062 7.23379 10.2868 7.17815 10.3766 7.14215C10.4664 7.10616 10.5631 7.09073 10.6597 7.09701C11.0497 7.09701 11.3217 7.53901 11.3217 8.11001C11.3217 8.68101 11.0367 9.11001 10.6467 9.11001Z"></path><path d="M7.55549 5.87701L8.64656 5.64301V4.76001L7.55549 4.99401V5.87701Z"></path>
</symbol>

<symbol id="twilio" viewBox="0 0 16 16">
  <path d="M11.1723 6.57885H10.3534C10.3424 6.57911 10.332 6.58365 10.3243 6.59151C10.3166 6.59936 10.3124 6.60991 10.3124 6.62088V7.09929C10.3126 7.1101 10.317 7.12039 10.3247 7.12803C10.3323 7.13567 10.3426 7.14007 10.3534 7.14033H11.1723C11.1777 7.14033 11.183 7.13927 11.188 7.1372C11.193 7.13514 11.1975 7.13212 11.2013 7.12831C11.2051 7.1245 11.2081 7.11997 11.2102 7.115C11.2122 7.11002 11.2133 7.10468 11.2133 7.09929V6.62088C11.2134 6.61541 11.2125 6.60997 11.2105 6.60487C11.2085 6.59978 11.2055 6.59513 11.2017 6.59122C11.1978 6.5873 11.1933 6.58419 11.1882 6.58206C11.1832 6.57994 11.1778 6.57884 11.1723 6.57885V6.57885ZM11.1573 7.29146H9.58741C9.57568 7.29196 9.56439 7.29607 9.55508 7.30324C9.54577 7.3104 9.53891 7.32027 9.53541 7.33149L9.33543 8.11016L9.32543 8.15119L9.08044 7.32348C9.07618 7.31137 9.06815 7.30095 9.05753 7.29375C9.04691 7.28654 9.03427 7.28293 9.02145 7.28345H8.41349C8.40162 7.28389 8.39018 7.28797 8.3807 7.29513C8.37122 7.30228 8.36417 7.31218 8.36049 7.32348L8.13051 8.10315L8.11951 8.14319L8.10851 8.10015L8.00851 7.71382L7.90852 7.32849C7.90509 7.31742 7.89837 7.30766 7.88926 7.30051C7.88015 7.29336 7.86908 7.28915 7.85752 7.28845H6.6286V6.61788C6.62795 6.61168 6.62596 6.6057 6.62278 6.60035C6.61959 6.595 6.61528 6.59041 6.61015 6.58689C6.60501 6.58337 6.59917 6.581 6.59304 6.57996C6.5869 6.57892 6.58061 6.57922 6.57461 6.58085L5.79966 6.82506C5.77566 6.83206 5.75766 6.84307 5.75766 6.86609V7.28845H5.55767C5.54671 7.28872 5.53628 7.29326 5.52862 7.30111C5.52096 7.30897 5.51667 7.31951 5.51668 7.33049V7.924C5.51667 7.93498 5.52096 7.94552 5.52862 7.95337C5.53628 7.96123 5.54671 7.96577 5.55767 7.96603H5.75766V8.70066C5.75766 9.2151 6.03464 9.45531 6.54861 9.45531C6.74072 9.45886 6.93103 9.41775 7.10457 9.33521V8.70767C7.10516 8.70215 7.10431 8.69657 7.1021 8.69148C7.09989 8.68639 7.09639 8.68197 7.09196 8.67864C7.08752 8.67531 7.08229 8.67319 7.07679 8.67249C7.07129 8.67179 7.0657 8.67253 7.06058 8.67464C6.99118 8.70594 6.91568 8.72133 6.83959 8.71968C6.7016 8.71968 6.6286 8.66163 6.6286 8.50349V7.96904H7.07057C7.07604 7.96904 7.08146 7.96795 7.0865 7.96582C7.09154 7.9637 7.0961 7.96058 7.09992 7.95667C7.10374 7.95275 7.10674 7.94811 7.10874 7.94301C7.11074 7.93792 7.11171 7.93247 7.11157 7.927V7.42657L7.69253 9.38125C7.69651 9.39255 7.70378 9.4024 7.71341 9.40954C7.72303 9.41667 7.73457 9.42076 7.74653 9.42128H8.38849C8.4003 9.42071 8.41169 9.41672 8.42128 9.40979C8.43087 9.40286 8.43823 9.39329 8.44248 9.38225L8.72147 8.5145L8.86146 8.96789L8.98945 9.38024C8.99313 9.39155 9.00018 9.40144 9.00966 9.4086C9.01914 9.41576 9.03058 9.41984 9.04245 9.42028H9.6884C9.70037 9.41976 9.7119 9.41567 9.72153 9.40854C9.73115 9.4014 9.73842 9.39155 9.7424 9.38024L10.3314 7.41957V9.37924C10.3314 9.39039 10.3358 9.40109 10.3437 9.40897C10.3515 9.41685 10.3622 9.42128 10.3734 9.42128H11.1613C11.1668 9.42128 11.1722 9.42019 11.1772 9.41806C11.1823 9.41594 11.1868 9.41283 11.1907 9.40891C11.1945 9.40499 11.1975 9.40035 11.1995 9.39526C11.2015 9.39016 11.2024 9.38472 11.2023 9.37924V7.33349C11.2025 7.32767 11.2014 7.32187 11.1992 7.31649C11.1969 7.31111 11.1936 7.30627 11.1893 7.3023C11.185 7.29832 11.18 7.29529 11.1745 7.29343C11.169 7.29156 11.1631 7.29089 11.1573 7.29146V7.29146ZM12.1942 6.57885H11.4063C11.4008 6.57884 11.3954 6.57994 11.3904 6.58206C11.3853 6.58419 11.3808 6.5873 11.3769 6.59122C11.3731 6.59513 11.3701 6.59978 11.3681 6.60487C11.3661 6.60997 11.3652 6.61541 11.3653 6.62088V9.37924C11.3652 9.38472 11.3661 9.39016 11.3681 9.39526C11.3701 9.40035 11.3731 9.40499 11.3769 9.40891C11.3808 9.41283 11.3853 9.41594 11.3904 9.41806C11.3954 9.42019 11.4008 9.42128 11.4063 9.42128H12.1942C12.1997 9.42128 12.2051 9.42019 12.2102 9.41806C12.2152 9.41594 12.2198 9.41283 12.2236 9.40891C12.2274 9.40499 12.2304 9.40035 12.2324 9.39526C12.2344 9.39016 12.2354 9.38472 12.2352 9.37924V6.62088C12.2354 6.61541 12.2344 6.60997 12.2324 6.60487C12.2304 6.59978 12.2274 6.59513 12.2236 6.59122C12.2198 6.5873 12.2152 6.58419 12.2102 6.58206C12.2051 6.57994 12.1997 6.57884 12.1942 6.57885V6.57885ZM13.2462 6.57885H12.4272C12.4218 6.57884 12.4163 6.57994 12.4113 6.58206C12.4063 6.58419 12.4017 6.5873 12.3979 6.59122C12.3941 6.59513 12.3911 6.59978 12.3891 6.60487C12.3871 6.60997 12.3861 6.61541 12.3862 6.62088V7.09929C12.3862 7.10468 12.3873 7.11002 12.3893 7.115C12.3914 7.11997 12.3944 7.1245 12.3982 7.12831C12.402 7.13212 12.4066 7.13514 12.4115 7.1372C12.4165 7.13927 12.4218 7.14033 12.4272 7.14033H13.2462C13.2516 7.14033 13.2569 7.13927 13.2619 7.1372C13.2668 7.13514 13.2714 7.13212 13.2752 7.12831C13.279 7.1245 13.282 7.11997 13.2841 7.115C13.2861 7.11002 13.2872 7.10468 13.2872 7.09929V6.62088C13.2873 6.61541 13.2863 6.60997 13.2843 6.60487C13.2823 6.59978 13.2793 6.59513 13.2755 6.59122C13.2717 6.5873 13.2671 6.58419 13.2621 6.58206C13.2571 6.57994 13.2516 6.57884 13.2462 6.57885V6.57885ZM13.2312 7.29146H12.4422C12.4313 7.29172 12.4208 7.29626 12.4132 7.30412C12.4055 7.31197 12.4012 7.32252 12.4012 7.33349V9.37924C12.4012 9.39022 12.4055 9.40076 12.4132 9.40862C12.4208 9.41648 12.4313 9.42102 12.4422 9.42128H13.2312C13.2421 9.42102 13.2526 9.41648 13.2602 9.40862C13.2679 9.40076 13.2722 9.39022 13.2722 9.37924V7.33349C13.2722 7.32252 13.2679 7.31197 13.2602 7.30412C13.2526 7.29626 13.2421 7.29172 13.2312 7.29146V7.29146ZM14.5311 7.24141C14.3805 7.23471 14.2301 7.25821 14.0887 7.31052C13.9473 7.36283 13.8178 7.44291 13.7078 7.54604C13.5978 7.64917 13.5095 7.77327 13.448 7.91106C13.3866 8.04884 13.3533 8.19752 13.3502 8.34836V8.35637C13.3707 8.65561 13.5041 8.93584 13.7235 9.14018C13.9429 9.34451 14.2317 9.45766 14.5313 9.45664C14.831 9.45562 15.119 9.34052 15.337 9.13469C15.555 8.92886 15.6866 8.64773 15.705 8.34836V8.34036C15.7021 8.19075 15.6693 8.04323 15.6086 7.9065C15.5478 7.76976 15.4604 7.64657 15.3514 7.54417C15.2424 7.44177 15.114 7.36224 14.9738 7.31024C14.8336 7.25825 14.6844 7.23484 14.5351 7.24141H14.5311ZM14.8681 8.35637C14.8706 8.40277 14.8639 8.44921 14.8482 8.49296C14.8326 8.53671 14.8083 8.57689 14.7769 8.61112C14.7455 8.64535 14.7076 8.67294 14.6654 8.69227C14.6232 8.71161 14.5775 8.72228 14.5311 8.72368C14.4838 8.72188 14.4373 8.71073 14.3943 8.69086C14.3513 8.67099 14.3126 8.64279 14.2805 8.60791C14.2485 8.57302 14.2236 8.53212 14.2074 8.48758C14.1912 8.44303 14.184 8.39572 14.1861 8.34836V8.34036C14.1836 8.29395 14.1903 8.24751 14.206 8.20376C14.2216 8.16001 14.2458 8.11984 14.2773 8.08561C14.3087 8.05138 14.3466 8.02378 14.3888 8.00445C14.431 7.98512 14.4767 7.97444 14.5231 7.97304C14.5704 7.97484 14.6169 7.986 14.6599 8.00587C14.7029 8.02574 14.7416 8.05393 14.7736 8.08882C14.8057 8.1237 14.8306 8.1646 14.8468 8.20914C14.863 8.25369 14.8702 8.301 14.8681 8.34836V8.35637ZM2.64786 5.66506C2.18564 5.6611 1.73265 5.79466 1.3464 6.04881C0.96014 6.30296 0.658023 6.66624 0.478385 7.09254C0.298747 7.51884 0.249686 7.98895 0.337428 8.44321C0.42517 8.89746 0.64576 9.31539 0.971204 9.64395C1.29665 9.97251 1.71228 10.1969 2.16534 10.2886C2.61841 10.3804 3.08849 10.3353 3.51592 10.1592C3.94336 9.98304 4.30889 9.68379 4.56612 9.29938C4.82336 8.91497 4.96069 8.46273 4.96071 8.00006C4.9631 7.38352 4.72084 6.79124 4.28715 6.3534C3.85346 5.91556 3.26384 5.66798 2.64786 5.66506V5.66506ZM2.64786 9.71954C2.30747 9.72251 1.97387 9.6242 1.6894 9.43708C1.40493 9.24996 1.18241 8.98247 1.05009 8.66855C0.91776 8.35463 0.881593 8.00844 0.946175 7.67391C1.01076 7.33938 1.17317 7.0316 1.41282 6.78962C1.65246 6.54764 1.95852 6.38238 2.29216 6.31481C2.62581 6.24724 2.97198 6.2804 3.28676 6.41009C3.60154 6.53978 3.87072 6.76015 4.06016 7.04323C4.2496 7.32632 4.35074 7.65935 4.35075 8.00006C4.35261 8.45407 4.17428 8.89023 3.85495 9.21266C3.53562 9.5351 3.10145 9.71742 2.64786 9.71954ZM3.22182 6.93315C3.12574 6.93236 3.03159 6.96015 2.95131 7.013C2.87103 7.06586 2.80825 7.14139 2.77093 7.23001C2.73361 7.31864 2.72343 7.41636 2.74169 7.51079C2.75995 7.60521 2.80582 7.69208 2.87348 7.76037C2.94115 7.82865 3.02755 7.87528 3.12173 7.89434C3.21591 7.9134 3.31363 7.90402 3.40248 7.8674C3.49133 7.83078 3.56731 7.76857 3.62078 7.68866C3.67424 7.60875 3.70279 7.51474 3.70279 7.41857C3.70306 7.35508 3.69082 7.29217 3.6668 7.23342C3.64277 7.17467 3.60741 7.12123 3.56275 7.07615C3.51809 7.03108 3.46499 6.99525 3.4065 6.97071C3.348 6.94618 3.28525 6.93341 3.22182 6.93315V6.93315ZM3.22182 8.10015C3.12574 8.09936 3.03159 8.12715 2.95131 8.18C2.87103 8.23286 2.80825 8.30839 2.77093 8.39701C2.73361 8.48564 2.72343 8.58336 2.74169 8.67779C2.75995 8.77221 2.80582 8.85908 2.87348 8.92736C2.94115 8.99565 3.02755 9.04228 3.12173 9.06134C3.21591 9.0804 3.31363 9.07102 3.40248 9.0344C3.49133 8.99778 3.56731 8.93557 3.62078 8.85566C3.67424 8.77575 3.70279 8.68174 3.70279 8.58556C3.70306 8.52208 3.69082 8.45917 3.6668 8.40042C3.64277 8.34167 3.60741 8.28823 3.56275 8.24315C3.51809 8.19808 3.46499 8.16225 3.4065 8.13771C3.348 8.11318 3.28525 8.10041 3.22182 8.10015V8.10015ZM2.0719 8.10015C1.97582 8.09936 1.88166 8.12715 1.80138 8.18C1.72111 8.23286 1.65833 8.30839 1.62101 8.39701C1.58368 8.48564 1.57351 8.58336 1.59177 8.67779C1.61003 8.77221 1.6559 8.85908 1.72356 8.92736C1.79122 8.99565 1.87762 9.04228 1.97181 9.06134C2.06599 9.0804 2.1637 9.07102 2.25255 9.0344C2.3414 8.99778 2.41738 8.93557 2.47085 8.85566C2.52432 8.77575 2.55286 8.68174 2.55287 8.58556C2.55313 8.52208 2.5409 8.45917 2.51687 8.40042C2.49284 8.34167 2.45749 8.28823 2.41283 8.24315C2.36816 8.19808 2.31507 8.16225 2.25657 8.13771C2.19808 8.11318 2.13532 8.10041 2.0719 8.10015V8.10015ZM2.0719 6.93715C1.97582 6.93636 1.88166 6.96415 1.80138 7.01701C1.72111 7.06986 1.65833 7.14539 1.62101 7.23402C1.58368 7.32264 1.57351 7.42037 1.59177 7.51479C1.61003 7.60921 1.6559 7.69608 1.72356 7.76437C1.79122 7.83266 1.87762 7.87929 1.97181 7.89834C2.06599 7.9174 2.1637 7.90802 2.25255 7.8714C2.3414 7.83479 2.41738 7.77257 2.47085 7.69266C2.52432 7.61275 2.55286 7.51874 2.55287 7.42257C2.55366 7.35875 2.54182 7.29541 2.51803 7.23619C2.49424 7.17698 2.45897 7.12307 2.41425 7.07757C2.36954 7.03206 2.31626 6.99588 2.2575 6.97109C2.19874 6.9463 2.13566 6.93341 2.0719 6.93315V6.93715Z"></path>
</symbol>

<symbol id="twitter-outline" viewBox="0 0 16 16">
  <path d="M15.5619 3.15874C15.5905 2.95456 15.5652 2.74644 15.4883 2.55513C15.4114 2.36382 15.2857 2.19601 15.1238 2.06842C14.931 1.92028 14.6994 1.8313 14.457 1.8123C14.2146 1.7933 13.9719 1.8451 13.7584 1.96139C13.4896 2.11278 13.2057 2.23549 12.9112 2.3275C12.2279 1.86105 11.42 1.61113 10.5926 1.61029C9.69402 1.59913 8.81847 1.89475 8.11052 2.44833C7.40256 3.00191 6.90453 3.78036 6.69865 4.65517C5.314 4.3356 4.06587 3.58634 3.13275 2.51455C3.00868 2.36803 2.85128 2.25341 2.67375 2.18031C2.49623 2.10721 2.30375 2.07776 2.11249 2.09443C1.92163 2.10899 1.73687 2.16828 1.57318 2.26751C1.40948 2.36674 1.27145 2.50311 1.17025 2.6656C0.811591 3.24715 0.62148 3.91689 0.621113 4.60016C0.620707 5.00027 0.686269 5.39772 0.815162 5.7765C0.670271 5.98501 0.594682 6.23383 0.599107 6.48771C0.600621 7.41362 0.948101 8.30554 1.57335 8.98843C1.55724 9.15386 1.57598 9.32083 1.62837 9.47857C1.79659 9.98113 2.0693 10.4424 2.42857 10.832C2.08816 10.869 1.74473 10.869 1.40431 10.832C1.13348 10.8011 0.8601 10.8618 0.62784 11.0045C0.39558 11.1472 0.217833 11.3636 0.122987 11.6192C0.0321906 11.8757 0.0323321 12.1556 0.123388 12.4121C0.214443 12.6685 0.390877 12.8858 0.623113 13.0276C2.09125 13.9193 3.77665 14.3893 5.49435 14.386C7.80762 14.4556 10.0554 13.6122 11.752 12.0381C13.4486 10.4641 14.4579 8.28563 14.5616 5.97356C14.9881 5.61645 15.3675 5.20673 15.6909 4.7542C15.8551 4.54887 15.9447 4.29388 15.945 4.03099C15.9451 3.86698 15.9111 3.70474 15.8452 3.55457C15.7792 3.40441 15.6828 3.26961 15.5619 3.15874V3.15874ZM13.3553 5.38839C13.3613 5.50142 13.3633 5.61445 13.3633 5.72748C13.3455 6.73616 13.127 7.73118 12.7208 8.65458C12.3145 9.57797 11.7285 10.4113 10.9969 11.1059C10.2654 11.8005 9.40285 12.3426 8.45969 12.7005C7.51652 13.0584 6.51155 13.2251 5.50335 13.1906C4.01044 13.1941 2.54547 12.786 1.26928 12.0113C1.48811 12.0363 1.70819 12.0487 1.92844 12.0483C3.16322 12.0533 4.36658 11.6593 5.35931 10.925C4.79416 10.9238 4.24312 10.7483 3.78131 10.4225C3.3195 10.0968 2.96937 9.63649 2.77866 9.10446C2.95032 9.13539 3.12437 9.15112 3.29879 9.15148C3.5441 9.15168 3.78845 9.12075 4.02598 9.05945C3.41507 8.95571 2.85951 8.64207 2.45506 8.1726C2.05061 7.70313 1.82263 7.10726 1.81041 6.48771V6.4547C2.19715 6.65778 2.62511 6.76999 3.06173 6.78279C2.68894 6.55267 2.38062 6.23173 2.16563 5.85C1.95063 5.46828 1.83599 5.03825 1.83242 4.60016C1.83251 4.13452 1.96203 3.67806 2.20651 3.28177C2.91972 4.10143 3.79251 4.76711 4.77157 5.23817C5.75063 5.70923 6.81544 5.97579 7.90096 6.02157C7.85236 5.82524 7.82817 5.62365 7.82894 5.4214C7.84936 4.70767 8.15158 4.03108 8.66948 3.53958C9.18739 3.04808 9.87885 2.78168 10.5926 2.79863C10.9668 2.79643 11.3376 2.8686 11.6836 3.01096C12.0296 3.15331 12.3439 3.36302 12.6081 3.62788C13.2233 3.51415 13.8157 3.30025 14.3616 2.99469C14.1471 3.6109 13.7139 4.12698 13.1443 4.44511C13.69 4.38278 14.2241 4.24335 14.7307 4.03099C14.3563 4.56142 13.8906 5.02104 13.3553 5.38839V5.38839Z"></path>
</symbol>

<symbol id="twitter" viewBox="0 0 16 16">
  <path d="M5.14525 14.2498C6.32722 14.2579 7.49903 14.0311 8.5926 13.5825C9.68617 13.1339 10.6797 12.4725 11.5155 11.6367C12.3513 10.8009 13.0127 9.80735 13.4613 8.71378C13.9099 7.6202 14.1367 6.44839 14.1286 5.26642C14.1286 5.12971 14.1256 4.99368 14.1196 4.85831C14.7374 4.41071 15.2708 3.85697 15.695 3.22288C15.1191 3.47987 14.5077 3.64848 13.8815 3.72301C14.541 3.32869 15.0344 2.70793 15.2699 1.97655C14.6517 2.34425 13.975 2.6034 13.2694 2.74275C12.7929 2.23746 12.1634 1.90308 11.478 1.79126C10.7926 1.67944 10.0894 1.7964 9.47707 2.12407C8.86475 2.45174 8.37734 2.9719 8.09013 3.60421C7.80291 4.23651 7.73187 4.9458 7.88796 5.62251C6.63243 5.55937 5.40421 5.23287 4.28306 4.66419C3.16191 4.09552 2.17291 3.29739 1.38027 2.32164C0.976826 3.01628 0.852901 3.83843 1.03367 4.62113C1.21443 5.40383 1.68633 6.08838 2.35353 6.53575C1.85185 6.51908 1.36158 6.38185 0.924154 6.13565V6.17566C0.923075 6.90554 1.17478 7.61327 1.63649 8.17855C2.0982 8.74384 2.74142 9.13179 3.45681 9.27648C3.18555 9.35021 2.9057 9.38755 2.6246 9.3875C2.42551 9.3874 2.2269 9.36831 2.03144 9.33049C2.23316 9.95796 2.62591 10.5067 3.15479 10.9C3.68367 11.2933 4.32224 11.5115 4.98121 11.5241C3.86206 12.4017 2.4804 12.8776 1.05819 12.8754C0.80648 12.8755 0.554985 12.8608 0.304993 12.8314C1.74889 13.7589 3.42916 14.2512 5.14525 14.2498"></path>
</symbol>

<symbol id="windows" viewBox="0 0 16 16">
  <path d="M0 2.265L6.53843 1.378V7.665L0.00601881 7.7L0 2.265ZM6.53542 8.39V14.683L0 13.783V8.347L6.53542 8.39ZM7.3279 1.261L15.998 0V7.585L7.3279 7.654V1.261ZM16 8.449V16L7.3279 14.78L7.31586 8.435L16 8.449Z"></path>
</symbol>
    </svg>