<svg xmlns="http://www.w3.org/2000/svg" xmlns:xlink="http://www.w3.org/1999/xlink">
    
<symbol id="approval-group" viewBox="0 0 16 16">
  <title>approval-group</title><path d="M12,8a4,4,0,1,0,4,4A4,4,0,0,0,12,8Zm2.567,3.3L12.022,13.84a.544.544,0,0,1-.771,0L9.8,12.386a.546.546,0,0,1,.771-.772l1.069,1.069,2.16-2.16a.546.546,0,1,1,.771.772ZM7,14.5H2a.485.485,0,0,1-.5-.48V11.38a.494.494,0,0,1,.308-.457l4-1.65a10.041,10.041,0,0,1,.981-.342,4.5,4.5,0,1,0-2.92-.467L1.231,9.552A1.982,1.982,0,0,0,0,11.38v2.64A1.989,1.989,0,0,0,2,16H7a.75.75,0,0,0,0-1.5ZM3,4.5a3,3,0,1,1,3,3A3,3,0,0,1,3,4.5Z"></path>
</symbol>

<symbol id="event" viewBox="0 0 16 16">
  <title>event</title><path id="path0_fill" data-name="path0 fill" d="M12.25,0a.75.75,0,0,0-.75.75V1.5h-7V.75A.75.75,0,0,0,3,.75V1.5H2a2,2,0,0,0-2,2V14a2,2,0,0,0,2,2H14a2,2,0,0,0,2-2V3.5a2,2,0,0,0-2-2H13V.75A.75.75,0,0,0,12.25,0ZM2,14.5a.5.5,0,0,1-.5-.5V6A.5.5,0,0,1,2,5.5H14a.5.5,0,0,1,.5.5v8a.5.5,0,0,1-.5.5ZM11.5,8h-3a.5.5,0,0,0-.5.5v3a.5.5,0,0,0,.5.5h3a.5.5,0,0,0,.5-.5v-3a.5.5,0,0,0-.5-.5Z"></path>
</symbol>

<symbol id="file-pdf" viewBox="0 0 16 16">
  <title>file-pdf</title><path id="path0_fill" data-name="path0 fill" d="M9.858,0H2.31A.807.807,0,0,0,1.5.8V15.2a.807.807,0,0,0,.81.8H13.69a.807.807,0,0,0,.81-.8V4.149ZM12.44,4.155l-2.47.007a.119.119,0,0,1-.119-.119l0-2.194Zm.7,10.5H2.859V1.35H8.5L8.491,4.041A1.454,1.454,0,0,0,8.924,5.08a1.475,1.475,0,0,0,1.05.431L13.141,5.5Z"></path><path id="path1_fill" data-name="path1 fill" d="M10.815,10.183a1.079,1.079,0,0,0-1.024-.458,4.133,4.133,0,0,0-.7.058A7.893,7.893,0,0,1,8.056,8.248C8.362,6.941,8.172,6.516,8,6.307a.765.765,0,0,0-.584-.275.976.976,0,0,0-.265.047.8.8,0,0,0-.522.486,2.382,2.382,0,0,0,.276,1.8,16.309,16.309,0,0,1-.848,2.364c-1.01.474-1.511.943-1.574,1.472a.93.93,0,0,0,.412.872.719.719,0,0,0,.444.156,1.279,1.279,0,0,0,.974-.663,6.776,6.776,0,0,0,.569-.993,12.838,12.838,0,0,1,1.836-.594,1.8,1.8,0,0,0,1.152.526.991.991,0,0,0,.819-.436A.793.793,0,0,0,10.815,10.183Zm-.741.451a.215.215,0,0,1-.207.112.958.958,0,0,1-.51-.243c.17-.019.321-.038.434-.038a.7.7,0,0,1,.34.056C10.112,10.559,10.112,10.6,10.074,10.634ZM5.223,12.3c.019-.131.227-.375.755-.675-.4.731-.6.825-.641.844C5.223,12.377,5.223,12.321,5.223,12.3ZM7.394,7.616a1.228,1.228,0,0,1-.075-.749c.018-.038.037-.057.056-.057h.019A1.572,1.572,0,0,1,7.394,7.616Zm.132,1.275a9.713,9.713,0,0,0,.944,1.368,12.236,12.236,0,0,0-1.605.506A16.964,16.964,0,0,0,7.526,8.891Z"></path>
</symbol>

<symbol id="kiosk" viewBox="0 0 16 16">
  <title>kiosk</title><g id="Kiosk_Alt2" data-name="Kiosk Alt2"><path id="Line_4_Stroke_" data-name="Line 4 (Stroke)" d="M5,7.25a.75.75,0,0,1,.75-.75h2.5a.75.75,0,0,1,0,1.5H5.75A.75.75,0,0,1,5,7.25Z"></path><path id="Line_3_Stroke_" data-name="Line 3 (Stroke)" d="M5,4.25a.75.75,0,0,1,.75-.75h4.5a.75.75,0,0,1,0,1.5H5.75A.75.75,0,0,1,5,4.25Z"></path><path id="Union" d="M2.5,1.5A1.5,1.5,0,0,1,4,0h8a1.5,1.5,0,0,1,1.5,1.5V11A1.5,1.5,0,0,1,12,12.5H8.75v2h3a.75.75,0,0,1,0,1.5H4.25a.75.75,0,0,1,0-1.5h3v-2H4A1.5,1.5,0,0,1,2.5,11Zm2,.5a.5.5,0,0,0-.5.5V10a.5.5,0,0,0,.5.5h7A.5.5,0,0,0,12,10V2.5a.5.5,0,0,0-.5-.5Z"></path></g>
</symbol>

<symbol id="note" viewBox="0 0 16 16">
  <title>note</title><path d="M13.5,0H2.5a1,1,0,0,0-1,1V15a1,1,0,0,0,1,1H9.75l.75-.75L13.75,12l.75-.75V1A1,1,0,0,0,13.5,0Zm-3,13.129V12.25a.25.25,0,0,1,.25-.25h.879ZM13,10.5H10.75A1.749,1.749,0,0,0,9,12.25V14.5H3V1.5H13Z"></path><rect x="4.5" y="3" width="7" height="1.5" rx="0.5"></rect><rect x="4.5" y="6" width="7" height="1.5" rx="0.5"></rect><rect x="4.5" y="9" width="4" height="1.5" rx="0.5"></rect>
</symbol>

<symbol id="people" viewBox="0 0 16 16">
  <title>people</title><g id="Canvas"><g id="People"><g id="Union"><path id="path0_fill" data-name="path0 fill" d="M11,4.5a3,3,0,1,1-3-3A3,3,0,0,1,11,4.5Zm-.79,3.921a4.5,4.5,0,1,0-4.42,0L3.231,9.487A2,2,0,0,0,2,11.333V14a2,2,0,0,0,2,2h8a2,2,0,0,0,2-2V11.333a2,2,0,0,0-1.231-1.846Zm2.29,2.912V14a.5.5,0,0,1-.5.5H4a.5.5,0,0,1-.5-.5V11.333a.5.5,0,0,1,.308-.461l4-1.667a.5.5,0,0,1,.384,0l4,1.667A.5.5,0,0,1,12.5,11.333Z"></path></g></g></g>
</symbol>

<symbol id="primary-room" viewBox="0 0 16 16">
  <title>primary-room</title><path d="M8.656,3.33H6.874a.094.094,0,0,0-.1.1V8.652a.093.093,0,0,0,.1.1H7.979a.094.094,0,0,0,.1-.1V7.425a.053.053,0,0,1,.059-.06h.518c1.205,0,1.992-.482,1.992-2.015S9.891,3.33,8.656,3.33ZM8.617,6.22H8.138a.053.053,0,0,1-.059-.06V4.535a.053.053,0,0,1,.059-.06h.479c.507,0,.726.108.726.875S9.124,6.22,8.617,6.22Z"></path><path d="M14.089,3.716A6.028,6.028,0,0,0,10.869.474,5.9,5.9,0,0,0,8.509,0,5.97,5.97,0,0,0,6.148.474,6.05,6.05,0,0,0,2.906,3.716a5.986,5.986,0,0,0-.474,2.371,5.361,5.361,0,0,0,.266,1.7,7.408,7.408,0,0,0,.7,1.54s3.831,5.438,4.146,5.837c.276.35.671.838.952.838.328,0,.634-.48.9-.849l4.2-5.806A7.386,7.386,0,0,0,14.3,7.8a5.515,5.515,0,0,0,.264-1.715A5.986,5.986,0,0,0,14.089,3.716ZM8.521,10.172A4.052,4.052,0,0,1,4.412,6.063,4.109,4.109,0,0,1,8.521,1.954c2.27,0,4.38,1.856,4.109,4.109A4.655,4.655,0,0,1,8.521,10.172Z"></path>
</symbol>

<symbol id="reservation-block" viewBox="0 0 16 16">
  <title>reservation-block</title><path d="M12.25,0a.75.75,0,0,0-.75.75V1.5h-7V.75A.75.75,0,0,0,3,.75V1.5H2a2,2,0,0,0-2,2V14a2,2,0,0,0,2,2H14a2,2,0,0,0,2-2V3.5a2,2,0,0,0-2-2H13V.75A.75.75,0,0,0,12.25,0ZM2,14.5a.5.5,0,0,1-.5-.5V6A.5.5,0,0,1,2,5.5H14a.5.5,0,0,1,.5.5v8a.5.5,0,0,1-.5.5ZM9,7a.5.5,0,0,1,.5.5V8.75a.5.5,0,0,1-.5.5H3.5a.5.5,0,0,1-.5-.5V7.5A.5.5,0,0,1,3.5,7Zm3.5,3.75a.5.5,0,0,1,.5.5V12.5a.5.5,0,0,1-.5.5H7a.5.5,0,0,1-.5-.5V11.25a.5.5,0,0,1,.5-.5Z"></path>
</symbol>

<symbol id="resources-reverse" viewBox="0 0 16 16">
  <title>resources-reverse</title><path d="M14,0H2A2,2,0,0,0,0,2V14a2,2,0,0,0,2,2H14a2,2,0,0,0,2-2V2A2,2,0,0,0,14,0ZM5,12.5a2,2,0,1,1,2-2A2,2,0,0,1,5,12.5ZM6,5A2,2,0,1,1,8,7,2,2,0,0,1,6,5Zm5,7.5a2,2,0,1,1,2-2A2,2,0,0,1,11,12.5Z"></path>
</symbol>

<symbol id="resources" viewBox="0 0 16 16">
  <title>resources</title><circle cx="8" cy="5" r="2"></circle><circle cx="5" cy="10.5" r="2"></circle><circle cx="11" cy="10.5" r="2"></circle><path d="M14,0H2A2,2,0,0,0,0,2V14a2,2,0,0,0,2,2H14a2,2,0,0,0,2-2V2A2,2,0,0,0,14,0Zm.5,14a.5.5,0,0,1-.5.5H2a.5.5,0,0,1-.5-.5V2A.5.5,0,0,1,2,1.5H14a.5.5,0,0,1,.5.5Z"></path>
</symbol>

<symbol id="room-setup" viewBox="0 0 16 16">
  <title>room-setup</title><g id="RoomSetup"><g id="Rectangle_16_Stroke_" data-name="Rectangle 16 (Stroke)"><path id="path0_fill" data-name="path0 fill" d="M14,0H2A2,2,0,0,0,0,2V14a2,2,0,0,0,2,2H14a2,2,0,0,0,2-2V2a2,2,0,0,0-2-2ZM2,14.5a.5.5,0,0,1-.5-.5V2A.5.5,0,0,1,2,1.5H14a.5.5,0,0,1,.5.5V14a.5.5,0,0,1-.5.5Z"></path></g><g id="Subtract"><path id="path1_fill" data-name="path1 fill" d="M8.749,3h-1.5L6.812,4.234a3.934,3.934,0,0,0-.635.264L4.994,3.935,3.935,4.994,4.5,6.177a3.934,3.934,0,0,0-.264.635L3,7.251v1.5l1.234.439a3.934,3.934,0,0,0,.264.635l-.563,1.183,1.059,1.059L6.177,11.5a3.934,3.934,0,0,0,.635.264L7.251,13h1.5l.439-1.234a3.934,3.934,0,0,0,.635-.264l1.183.563,1.059-1.059L11.5,9.823a3.934,3.934,0,0,0,.264-.635L13,8.749v-1.5l-1.234-.439a3.934,3.934,0,0,0-.264-.635l.563-1.183L11.006,3.935,9.823,4.5a3.934,3.934,0,0,0-.635-.264L8.749,3ZM8,10.368A2.368,2.368,0,1,1,10.368,8,2.368,2.368,0,0,1,8,10.368Z"></path></g></g>
</symbol>

<symbol id="rooms-reverse" viewBox="0 0 16 16">
  <title>rooms-reverse</title><path d="M5,0H2A2,2,0,0,0,0,2V5A2,2,0,0,0,2,7H5A2,2,0,0,0,7,5V2A2,2,0,0,0,5,0Z"></path><path d="M14,0H11A2,2,0,0,0,9,2V5a2,2,0,0,0,2,2h3a2,2,0,0,0,2-2V2A2,2,0,0,0,14,0Z"></path><path d="M5,9H2a2,2,0,0,0-2,2v3a2,2,0,0,0,2,2H5a2,2,0,0,0,2-2V11A2,2,0,0,0,5,9Z"></path><path d="M14,9H11a2,2,0,0,0-2,2v3a2,2,0,0,0,2,2h3a2,2,0,0,0,2-2V11A2,2,0,0,0,14,9Z"></path>
</symbol>

<symbol id="rooms" viewBox="0 0 16 16">
  <title>rooms</title><path d="M5,0H2A2,2,0,0,0,0,2V5A2,2,0,0,0,2,7H5A2,2,0,0,0,7,5V2A2,2,0,0,0,5,0Zm.5,5a.5.5,0,0,1-.5.5H2A.5.5,0,0,1,1.5,5V2A.5.5,0,0,1,2,1.5H5a.5.5,0,0,1,.5.5Z"></path><path d="M14,0H11A2,2,0,0,0,9,2V5a2,2,0,0,0,2,2h3a2,2,0,0,0,2-2V2A2,2,0,0,0,14,0Zm.5,5a.5.5,0,0,1-.5.5H11a.5.5,0,0,1-.5-.5V2a.5.5,0,0,1,.5-.5h3a.5.5,0,0,1,.5.5Z"></path><path d="M5,9H2a2,2,0,0,0-2,2v3a2,2,0,0,0,2,2H5a2,2,0,0,0,2-2V11A2,2,0,0,0,5,9Zm.5,5a.5.5,0,0,1-.5.5H2a.5.5,0,0,1-.5-.5V11a.5.5,0,0,1,.5-.5H5a.5.5,0,0,1,.5.5Z"></path><path d="M14,9H11a2,2,0,0,0-2,2v3a2,2,0,0,0,2,2h3a2,2,0,0,0,2-2V11A2,2,0,0,0,14,9Zm.5,5a.5.5,0,0,1-.5.5H11a.5.5,0,0,1-.5-.5V11a.5.5,0,0,1,.5-.5h3a.5.5,0,0,1,.5.5Z"></path>
</symbol>

<symbol id="share" viewBox="0 0 16 16">
  <title>share</title><path id="path0_fill" data-name="path0 fill" d="M7.47.22a.749.749,0,0,1,1.06,0l2.5,2.5A.75.75,0,0,1,9.97,3.78L8.75,2.561V10.25a.75.75,0,0,1-1.5,0V2.561L6.03,3.78A.75.75,0,0,1,4.97,2.72Z"></path><path id="path1_fill" data-name="path1 fill" d="M4.5,6.5A.5.5,0,0,0,4,7v7a.5.5,0,0,0,.5.5h7A.5.5,0,0,0,12,14V7a.5.5,0,0,0-.5-.5H11A.75.75,0,0,1,11,5h.5a2,2,0,0,1,2,2v7a2,2,0,0,1-2,2h-7a2,2,0,0,1-2-2V7a2,2,0,0,1,2-2H5A.75.75,0,0,1,5,6.5Z"></path>
</symbol>
    </svg>