<svg xmlns="http://www.w3.org/2000/svg">
    
<symbol id="accounts-app" class="symbol" viewBox="0 0 32 32">
  <defs><style>.cls-1,.cls-2{fill:#333132;}.cls-1{fill-rule:evenodd;}</style></defs><title>accounts-app</title><path class="cls-1" d="M26.973,2H5.027A3.027,3.027,0,0,0,2,5.027V26.973A3.027,3.027,0,0,0,5.027,30H26.973A3.027,3.027,0,0,0,30,26.973V5.027A3.027,3.027,0,0,0,26.973,2Zm0,24.216a.757.757,0,0,1-.757.757H5.784a.757.757,0,0,1-.757-.757V5.784a.757.757,0,0,1,.757-.757h4.541V6.544a.753.753,0,0,0,.753.753h9.845a.753.753,0,0,0,.753-.753V5.027h4.541a.757.757,0,0,1,.757.757Z"/><path class="cls-2" d="M22.588,15.839v-.01a.276.276,0,0,0-.193-.235.272.272,0,0,0-.044-.01l-.01,0-.9-.1a1.38,1.38,0,0,1-.875-2.112l.565-.706.013-.021.006-.01a.291.291,0,0,0,.016-.03.269.269,0,0,0,.012-.031l0-.011a.275.275,0,0,0-.05-.245l-.008-.01-.012-.014-.906-.906-.015-.012-.008-.006a.276.276,0,0,0-.3-.029.279.279,0,0,0-.038.024l-.009.006-.706.565a1.379,1.379,0,0,1-2.112-.875l-.1-.9c0-.008,0-.016-.005-.024l0-.012a.287.287,0,0,0-.023-.063l-.006-.011a.275.275,0,0,0-.209-.138h-.013l-.019,0H15.358l-.019,0h-.01a.276.276,0,0,0-.235.193.279.279,0,0,0-.01.044l0,.01-.1.9a1.378,1.378,0,0,1-2.112.875l-.706-.565c-.007-.005-.014-.009-.021-.013l-.01-.006-.03-.016-.031-.012-.011,0a.275.275,0,0,0-.245.05l-.01.009-.014.012-.906.906-.012.015-.006.007a.276.276,0,0,0-.005.341l.006.009.565.706a1.376,1.376,0,0,1-.875,2.112l-.9.1-.024.005-.012,0-.032.01-.03.014-.01.006a.275.275,0,0,0-.138.209v.013l0,.018v1.281l0,.019v.01a.276.276,0,0,0,.193.235.266.266,0,0,0,.044.01l.01,0,.9.1a1.376,1.376,0,0,1,.875,2.112l-.565.706c-.005.007-.009.014-.013.021l-.006.01a.276.276,0,0,0-.016.03.283.283,0,0,0-.012.031l0,.011a.275.275,0,0,0,.05.245l.008.01.012.014.906.906.015.012.008.006a.276.276,0,0,0,.3.029.262.262,0,0,0,.038-.024l.009-.006.706-.565a1.382,1.382,0,0,1,2.112.875l.1.9c0,.008,0,.016.005.024l0,.012a.29.29,0,0,0,.023.063l.006.01a.275.275,0,0,0,.209.138h.013l.018,0h1.281l.019,0h.01a.276.276,0,0,0,.235-.193.28.28,0,0,0,.01-.044l0-.01.1-.9a1.376,1.376,0,0,1,2.112-.875l.706.565c.007.005.014.009.021.013l.01.006.03.016.031.012.011,0a.275.275,0,0,0,.245-.05l.01-.008.014-.012.906-.906.012-.015.006-.008a.276.276,0,0,0,.005-.341l-.006-.009-.565-.706a1.377,1.377,0,0,1,.875-2.112l.9-.1.024-.005.012,0,.032-.01.03-.013.01-.006a.275.275,0,0,0,.138-.209v-.013l0-.019V15.858ZM16,18.748A2.248,2.248,0,1,1,18.248,16.5,2.248,2.248,0,0,1,16,18.748Z"/>
</symbol>

<symbol id="accounts-badge" class="symbol" viewBox="0 0 136 32">
  <defs><style>.cls-1,.cls-2{fill:#333132;}.cls-2{fill-rule:evenodd;}</style></defs><title>accounts-badge</title><path class="cls-1" d="M48.313,23,46.9,19.545H40.391L38.982,23H35.528l6.6-15.512h3.125L51.854,23ZM43.647,11.558l-2.046,5h4.092Z"/><path class="cls-1" d="M58.251,23.264a6.022,6.022,0,0,1-6.139-6.1v-.044a6.055,6.055,0,0,1,6.183-6.139A5.8,5.8,0,0,1,63,12.966l-2.047,2.2a3.444,3.444,0,0,0-2.685-1.3,3.014,3.014,0,0,0-2.86,3.212v.044A3.022,3.022,0,0,0,58.4,20.382a3.737,3.737,0,0,0,2.707-1.254l1.958,1.98A5.939,5.939,0,0,1,58.251,23.264Z"/><path class="cls-1" d="M69.711,23.264a6.022,6.022,0,0,1-6.139-6.1v-.044a6.055,6.055,0,0,1,6.183-6.139,5.8,5.8,0,0,1,4.709,1.98l-2.047,2.2a3.444,3.444,0,0,0-2.685-1.3,3.014,3.014,0,0,0-2.86,3.212v.044a3.022,3.022,0,0,0,2.992,3.257,3.737,3.737,0,0,0,2.707-1.254l1.958,1.98A5.939,5.939,0,0,1,69.711,23.264Z"/><path class="cls-1" d="M81.391,23.264a6.13,6.13,0,0,1-6.359-6.1v-.044a6.387,6.387,0,0,1,12.762-.044v.044A6.19,6.19,0,0,1,81.391,23.264Zm3.1-6.139a3.133,3.133,0,0,0-3.1-3.256,3.021,3.021,0,0,0-3.059,3.212v.044a3.134,3.134,0,0,0,3.1,3.257,3.021,3.021,0,0,0,3.058-3.213Z"/><path class="cls-1" d="M96.892,23V21.328a4.174,4.174,0,0,1-3.455,1.893c-2.53,0-4-1.672-4-4.379V11.207h3.344v6.579c0,1.584.749,2.4,2.024,2.4s2.091-.814,2.091-2.4V11.207h3.345V23Z"/><path class="cls-1" d="M110.1,23V16.421c0-1.584-.748-2.4-2.024-2.4s-2.09.814-2.09,2.4V23h-3.345V11.207h3.345v1.672a4.17,4.17,0,0,1,3.454-1.892c2.53,0,4,1.672,4,4.378V23Z"/><path class="cls-1" d="M119.628,23.2c-2.047,0-3.433-.814-3.433-3.542V14.067h-1.408v-2.86H116.2V8.192h3.344v3.015h2.772v2.86h-2.772v5.039c0,.77.33,1.144,1.078,1.144a3.4,3.4,0,0,0,1.65-.418v2.685A4.929,4.929,0,0,1,119.628,23.2Z"/><path class="cls-1" d="M128.293,23.22a8.263,8.263,0,0,1-5.061-1.782l1.431-2.2a6.664,6.664,0,0,0,3.718,1.408c.969,0,1.408-.352,1.408-.88v-.044c0-.726-1.144-.968-2.442-1.364-1.649-.484-3.521-1.254-3.521-3.542v-.044c0-2.4,1.937-3.741,4.313-3.741a8.16,8.16,0,0,1,4.4,1.364l-1.276,2.31a6.991,6.991,0,0,0-3.19-1.1c-.814,0-1.232.352-1.232.814v.044c0,.66,1.122.968,2.4,1.408,1.65.55,3.564,1.342,3.564,3.5v.044C132.8,22.032,130.846,23.22,128.293,23.22Z"/><path class="cls-2" d="M26.973,2H5.027A3.027,3.027,0,0,0,2,5.027V26.973A3.027,3.027,0,0,0,5.027,30H26.973A3.027,3.027,0,0,0,30,26.973V5.027A3.027,3.027,0,0,0,26.973,2Zm0,24.216a.757.757,0,0,1-.757.757H5.784a.757.757,0,0,1-.757-.757V5.784a.757.757,0,0,1,.757-.757h4.541V6.544a.753.753,0,0,0,.753.753h9.845a.753.753,0,0,0,.753-.753V5.027h4.541a.757.757,0,0,1,.757.757Z"/><path class="cls-1" d="M22.588,15.839v-.01a.276.276,0,0,0-.193-.235.272.272,0,0,0-.044-.01l-.01,0-.9-.1a1.38,1.38,0,0,1-.875-2.112l.565-.706.013-.021.006-.01a.291.291,0,0,0,.016-.03.269.269,0,0,0,.012-.031l0-.011a.275.275,0,0,0-.05-.245l-.008-.01-.012-.014-.906-.906-.015-.012-.008-.006a.276.276,0,0,0-.3-.029.279.279,0,0,0-.038.024l-.009.006-.706.565a1.379,1.379,0,0,1-2.112-.875l-.1-.9c0-.008,0-.016-.005-.024l0-.012a.287.287,0,0,0-.023-.063l-.006-.011a.275.275,0,0,0-.209-.138h-.013l-.019,0H15.358l-.019,0h-.01a.276.276,0,0,0-.235.193.279.279,0,0,0-.01.044l0,.01-.1.9a1.378,1.378,0,0,1-2.112.875l-.706-.565c-.007-.005-.014-.009-.021-.013l-.01-.006-.03-.016-.031-.012-.011,0a.275.275,0,0,0-.245.05l-.01.009-.014.012-.906.906-.012.015-.006.007a.276.276,0,0,0-.005.341l.006.009.565.706a1.376,1.376,0,0,1-.875,2.112l-.9.1-.024.005-.012,0-.032.01-.03.014-.01.006a.275.275,0,0,0-.138.209v.013l0,.018v1.281l0,.019v.01a.276.276,0,0,0,.193.235.266.266,0,0,0,.044.01l.01,0,.9.1a1.376,1.376,0,0,1,.875,2.112l-.565.706c-.005.007-.009.014-.013.021l-.006.01a.276.276,0,0,0-.016.03.283.283,0,0,0-.012.031l0,.011a.275.275,0,0,0,.05.245l.008.01.012.014.906.906.015.012.008.006a.276.276,0,0,0,.3.029.262.262,0,0,0,.038-.024l.009-.006.706-.565a1.382,1.382,0,0,1,2.112.875l.1.9c0,.008,0,.016.005.024l0,.012a.29.29,0,0,0,.023.063l.006.01a.275.275,0,0,0,.209.138h.013l.018,0h1.281l.019,0h.01a.276.276,0,0,0,.235-.193.28.28,0,0,0,.01-.044l0-.01.1-.9a1.376,1.376,0,0,1,2.112-.875l.706.565c.007.005.014.009.021.013l.01.006.03.016.031.012.011,0a.275.275,0,0,0,.245-.05l.01-.008.014-.012.906-.906.012-.015.006-.008a.276.276,0,0,0,.005-.341l-.006-.009-.565-.706a1.377,1.377,0,0,1,.875-2.112l.9-.1.024-.005.012,0,.032-.01.03-.013.01-.006a.275.275,0,0,0,.138-.209v-.013l0-.019V15.858ZM16,18.748A2.248,2.248,0,1,1,18.248,16.5,2.248,2.248,0,0,1,16,18.748Z"/>
</symbol>

<symbol id="add-ons-outline" class="symbol" viewBox="0 0 16 16">
  <title>add-ons-outline</title><g id="6d6e31e0-7779-4dd4-a449-f55de528da11" data-name="Layer 1"><path d="M15.363,3.515H14.269V2.083a.552.552,0,0,0-.552-.551H9.993a.552.552,0,0,0-.552.551V3.515H6.776V2.083a.551.551,0,0,0-.551-.551H2.5a.552.552,0,0,0-.552.551V3.515H.671a.6.6,0,0,0-.6.6V14.489a.6.6,0,0,0,.6.6H15.362a.6.6,0,0,0,.6-.6V4.115A.6.6,0,0,0,15.363,3.515Zm-.8,10.173H1.472V4.915H3.35V2.932H5.376V4.915h5.466V2.932h2.026V4.915h1.694Z" fill-rule="evenodd"/><path d="M10.259,8.565H8.89V7.2a.1.1,0,0,0-.1-.1H7.266a.1.1,0,0,0-.1.1V8.565H5.8a.1.1,0,0,0-.1.1v1.522a.1.1,0,0,0,.1.1H7.164V11.66a.1.1,0,0,0,.1.1H8.788a.1.1,0,0,0,.1-.1V10.291h1.369a.1.1,0,0,0,.1-.1V8.667A.1.1,0,0,0,10.259,8.565Z" fill-rule="evenodd"/></g>
</symbol>

<symbol id="add-ons" class="symbol" viewBox="0 0 16 16">
  <title>add-ons</title><g id="fcacafe9-bde5-4de8-8bf6-3aece26debb3" data-name="Layer 1"><path d="M15.325,4.27H13.138V2.243a.408.408,0,0,0-.408-.407H9.888a.407.407,0,0,0-.407.407V4.27H6.659V2.243a.408.408,0,0,0-.408-.407H3.409A.407.407,0,0,0,3,2.243V4.27H.675a.592.592,0,0,0-.592.592v9.524a.592.592,0,0,0,.592.592h14.65a.592.592,0,0,0,.592-.592V4.862A.592.592,0,0,0,15.325,4.27Zm-4.991,5.919a.1.1,0,0,1-.1.1H8.863V11.66a.1.1,0,0,1-.1.1H7.239a.1.1,0,0,1-.1-.1V10.291H5.768a.1.1,0,0,1-.1-.1V8.667a.1.1,0,0,1,.1-.1H7.137V7.2a.1.1,0,0,1,.1-.1H8.761a.1.1,0,0,1,.1.1V8.565h1.369a.1.1,0,0,1,.1.1Z" fill-rule="evenodd"/></g>
</symbol>

<symbol id="api-app" class="symbol" viewBox="0 0 32 32">
  <defs><style>.cls-1,.cls-2{fill:#333132;}.cls-1{fill-rule:evenodd;}</style></defs><title>api-app</title><path class="cls-1" d="M26.973,2H5.027A3.027,3.027,0,0,0,2,5.027V26.973A3.027,3.027,0,0,0,5.027,30H26.973A3.027,3.027,0,0,0,30,26.973V5.027A3.027,3.027,0,0,0,26.973,2Zm0,24.216a.757.757,0,0,1-.757.757H5.784a.757.757,0,0,1-.757-.757V5.784a.757.757,0,0,1,.757-.757h4.541V6.544a.753.753,0,0,0,.753.753h9.845a.753.753,0,0,0,.753-.753V5.027h4.541a.757.757,0,0,1,.757.757Z"/><path class="cls-2" d="M16.235,15.211l.87-1.508L14.952,12.46l-.882,1.528a3.622,3.622,0,0,0-1.446.007l-.879-1.522L9.592,13.716l.893,1.546A3.809,3.809,0,0,0,9.769,16.5H8v2.486H9.759a3.812,3.812,0,0,0,.724,1.267l-.868,1.5L11.768,23l.853-1.478a3.781,3.781,0,0,0,1.509,0l.845,1.463,2.153-1.243-.856-1.482a3.81,3.81,0,0,0,.739-1.3H18.72V16.473H16.985A3.814,3.814,0,0,0,16.235,15.211Zm-4.946,2.548a2.092,2.092,0,1,1,2.092,2.092A2.092,2.092,0,0,1,11.289,17.759Z"/><path class="cls-2" d="M19.779,10.28V11.44a2.355,2.355,0,0,0-.293.132,2.4,2.4,0,0,0-1.181,2.373l-.967.558.906,1.569.952-.55a2.306,2.306,0,0,0,2.968,0l.957.552.906-1.569-.972-.561a2.354,2.354,0,0,0-1.465-2.505V10.28Zm1.352,4.141a.892.892,0,1,1,.327-1.219A.892.892,0,0,1,21.132,14.421Z"/>
</symbol>

<symbol id="api-badge" class="symbol" viewBox="0 0 187 32">
  <defs><style>.cls-1,.cls-2{fill:#333132;}.cls-1{fill-rule:evenodd;}</style></defs><title>api-badge</title><path class="cls-1" d="M26.973,2H5.027A3.027,3.027,0,0,0,2,5.027V26.973A3.027,3.027,0,0,0,5.027,30H26.973A3.027,3.027,0,0,0,30,26.973V5.027A3.027,3.027,0,0,0,26.973,2Zm0,24.216a.757.757,0,0,1-.757.757H5.784a.757.757,0,0,1-.757-.757V5.784a.757.757,0,0,1,.757-.757h4.541V6.544a.753.753,0,0,0,.753.753h9.845a.753.753,0,0,0,.753-.753V5.027h4.541a.757.757,0,0,1,.757.757Z"/><path class="cls-2" d="M16.235,15.211l.87-1.508L14.952,12.46l-.882,1.528a3.622,3.622,0,0,0-1.446.007l-.879-1.522L9.592,13.716l.893,1.546A3.809,3.809,0,0,0,9.769,16.5H8v2.486H9.759a3.812,3.812,0,0,0,.724,1.267l-.868,1.5L11.768,23l.853-1.478a3.781,3.781,0,0,0,1.509,0l.845,1.463,2.153-1.243-.856-1.482a3.81,3.81,0,0,0,.739-1.3H18.72V16.473H16.985A3.814,3.814,0,0,0,16.235,15.211Zm-4.946,2.548a2.092,2.092,0,1,1,2.092,2.092A2.092,2.092,0,0,1,11.289,17.759Z"/><path class="cls-2" d="M19.779,10.28V11.44a2.355,2.355,0,0,0-.293.132,2.4,2.4,0,0,0-1.181,2.373l-.967.558.906,1.569.952-.55a2.306,2.306,0,0,0,2.968,0l.957.552.906-1.569-.972-.561a2.354,2.354,0,0,0-1.465-2.505V10.28Zm1.352,4.141a.892.892,0,1,1,.327-1.219A.892.892,0,0,1,21.132,14.421Z"/><path class="cls-2" d="M42.906,24.09H36.9V8.688h6.007c4.841,0,8.186,3.323,8.186,7.657v.044C51.092,20.723,47.747,24.09,42.906,24.09Zm4.643-7.7a4.423,4.423,0,0,0-4.643-4.643H40.288v9.285h2.618a4.389,4.389,0,0,0,4.643-4.6Z"/><path class="cls-2" d="M64.071,19.359H55.864a2.735,2.735,0,0,0,2.882,2.31,3.865,3.865,0,0,0,2.86-1.21l1.915,1.694a6.23,6.23,0,0,1-10.979-3.9v-.044a5.872,5.872,0,0,1,5.831-6.139c3.938,0,5.743,3.059,5.743,6.4v.044C64.115,18.853,64.093,19.051,64.071,19.359Zm-5.7-4.6a2.629,2.629,0,0,0-2.552,2.509h5.039A2.529,2.529,0,0,0,58.372,14.76Z"/><path class="cls-2" d="M72.031,24.178H68.994L64.351,12.3h3.542l2.641,7.9L73.2,12.3h3.477Z"/><path class="cls-2" d="M88.266,19.359H80.059a2.735,2.735,0,0,0,2.882,2.31,3.865,3.865,0,0,0,2.86-1.21l1.915,1.694a6.23,6.23,0,0,1-10.979-3.9v-.044a5.872,5.872,0,0,1,5.831-6.139c3.938,0,5.743,3.059,5.743,6.4v.044C88.31,18.853,88.288,19.051,88.266,19.359Zm-5.7-4.6a2.629,2.629,0,0,0-2.552,2.509h5.039A2.529,2.529,0,0,0,82.568,14.76Z"/><path class="cls-2" d="M90.311,24.09V8.027h3.344V24.09Z"/><path class="cls-2" d="M101.51,24.354a6.13,6.13,0,0,1-6.359-6.1v-.044a6.387,6.387,0,0,1,12.762-.044v.044A6.19,6.19,0,0,1,101.51,24.354Zm3.1-6.139a3.134,3.134,0,0,0-3.1-3.256,3.021,3.021,0,0,0-3.059,3.212v.044a3.134,3.134,0,0,0,3.1,3.257,3.022,3.022,0,0,0,3.059-3.213Z"/><path class="cls-2" d="M116.271,24.31a4.529,4.529,0,0,1-3.674-1.76V27.61h-3.345V12.3H112.6V13.99a4.33,4.33,0,0,1,3.674-1.914c2.75,0,5.369,2.156,5.369,6.095v.044C121.64,22.154,119.066,24.31,116.271,24.31Zm2.024-6.139a2.894,2.894,0,1,0-5.743,0v.044a2.894,2.894,0,1,0,5.743,0Z"/><path class="cls-2" d="M134.421,19.359h-8.207a2.735,2.735,0,0,0,2.882,2.31,3.865,3.865,0,0,0,2.86-1.21l1.915,1.694a6.23,6.23,0,0,1-10.979-3.9v-.044a5.872,5.872,0,0,1,5.831-6.139c3.938,0,5.743,3.059,5.743,6.4v.044C134.466,18.853,134.443,19.051,134.421,19.359Zm-5.7-4.6a2.629,2.629,0,0,0-2.552,2.509h5.039A2.529,2.529,0,0,0,128.722,14.76Z"/><path class="cls-2" d="M143.243,15.575c-2.223,0-3.587,1.342-3.587,4.159V24.09h-3.344V12.3h3.344v2.376a3.643,3.643,0,0,1,3.763-2.6v3.5Z"/><path class="cls-2" d="M162.646,24.09l-1.408-3.455h-6.513l-1.408,3.455h-3.454l6.6-15.512h3.125l6.6,15.512Zm-4.664-11.442-2.047,5h4.093Z"/><path class="cls-2" d="M173.009,19.469h-2.575V24.09h-3.388V8.688h6.293c3.674,0,5.9,2.178,5.9,5.325v.044C179.235,17.621,176.463,19.469,173.009,19.469Zm2.794-5.391c0-1.519-1.056-2.333-2.75-2.333h-2.619v4.708h2.685a2.385,2.385,0,0,0,2.685-2.332Z"/><path class="cls-2" d="M181.7,24.09V8.688h3.389v15.4Z"/>
</symbol>

<symbol id="arrows-recur" class="symbol" viewBox="0 0 16 16">
  <title>arrows-recur</title><g id="961b18cc-e723-42e2-8ccf-f23e0d2f2370" data-name="Layer 1"><polygon points="13.81 4.005 10.762 3.6 13.406 0.956 13.81 4.005"/><path d="M1.877,10.851A6.642,6.642,0,0,1,11.826,2.67l.83-.544A7.577,7.577,0,0,0,1.09,11.365Z"/><path d="M14.729,4.749l-.786.515a6.644,6.644,0,0,1-9.924,8.164l-.83.543a7.575,7.575,0,0,0,11.54-9.222Z"/><polygon points="1.982 12.018 5.03 12.422 2.386 15.066 1.982 12.018"/></g>
</symbol>

<symbol id="attendee-type-outline" class="symbol" viewBox="0 0 16 16">
  <title>attendee-type-outline</title><g id="2a94f162-8e7d-467c-8109-2c3161054186" data-name="Layer 1"><path d="M11.939,7.6a4.046,4.046,0,0,0-1.814.442A2.859,2.859,0,0,0,10.569,6.9c.393-.192.65-.494.718-1.411a1.359,1.359,0,0,0-.238-.81c.048-.28.119-.736.155-1.118a2.873,2.873,0,0,0-.75-2.089A3.556,3.556,0,0,0,7.692.417,3.554,3.554,0,0,0,4.929,1.473,2.861,2.861,0,0,0,4.18,3.561c.036.383.108.84.155,1.121a1.426,1.426,0,0,0-.236.845c.064.852.306,1.161.717,1.373a2.613,2.613,0,0,0,.663,1.42c.131.149.145.164.145.311,0,.873-.3,1.346-2.14,2.017C.061,11.9.061,12.679.061,12.974v1.26a.838.838,0,0,0,.837.837H9.623A4.1,4.1,0,1,0,11.939,7.6ZM1.06,14.071l-.009-1.037c.067-.145.7-.688,2.776-1.446,1.814-.661,2.8-1.328,2.8-2.957a1.3,1.3,0,0,0-.395-.972,1.673,1.673,0,0,1-.436-.971.911.911,0,0,0-.586-.71.979.979,0,0,1-.11-.489c0-.134.029-.2.009-.2h0l.329-.151L5.364,4.76s-.135-.73-.189-1.293a1.877,1.877,0,0,1,.494-1.321,2.613,2.613,0,0,1,2.023-.729,2.612,2.612,0,0,1,2.022.729,1.876,1.876,0,0,1,.494,1.321c-.052.561-.187,1.288-.188,1.294l-.131.344.352.164a.283.283,0,0,1,.047.183c-.033.432-.11.526-.164.553a.871.871,0,0,0-.534.683,1.668,1.668,0,0,1-.435.971,1.3,1.3,0,0,0-.395.972c0,.068,0,.134.007.2A4.235,4.235,0,0,0,8.4,14.071Zm10.879.722a3.1,3.1,0,1,1,3.1-3.1A3.1,3.1,0,0,1,11.939,14.793Z"/><path d="M11.932,13.26a.567.567,0,0,0-.558.526.086.086,0,0,0,0,.029.114.114,0,0,0,0,.027.583.583,0,0,0,.559.54.577.577,0,0,0,.561-.567A.57.57,0,0,0,11.932,13.26Z"/><path d="M12.161,9.348a1.983,1.983,0,0,0-1.716.683.092.092,0,0,0,0,.129l.455.5a.091.091,0,0,0,.129,0,1.076,1.076,0,0,1,1.108-.413c.445.1.321.529.069.739-.379.317-.8.524-.839,1.069a.069.069,0,0,0,0,.025.089.089,0,0,0,0,.023.953.953,0,0,0,.26.619.091.091,0,0,0,.089.023l.6-.2a.092.092,0,0,0,.04-.152c-.436-.419.451-.837.7-1.062a1.138,1.138,0,0,0,.294-1.262A1.351,1.351,0,0,0,12.161,9.348Z"/></g>
</symbol>

<symbol id="attendee-type" class="symbol" viewBox="0 0 16 16">
  <title>attendee-type</title><g id="4e286e5e-40c0-468f-a934-6743dc60cd0d" data-name="Layer 1"><path d="M12.751,9.28a3.227,3.227,0,1,0,3.227,3.227A3.227,3.227,0,0,0,12.751,9.28Zm-.007,5.429a.473.473,0,0,1-.454-.44.052.052,0,0,1,0-.022.055.055,0,0,1,0-.023.456.456,0,0,1,.911.023A.469.469,0,0,1,12.744,14.709Zm.91-2.483c-.2.183-.922.524-.568.865a.075.075,0,0,1-.032.124l-.487.164a.072.072,0,0,1-.072-.019.772.772,0,0,1-.211-.5.055.055,0,0,1,0-.018.112.112,0,0,1,0-.02c.028-.445.375-.613.683-.871.206-.171.307-.519-.056-.6a.875.875,0,0,0-.9.337.074.074,0,0,1-.105,0l-.371-.411a.075.075,0,0,1,0-.1,1.616,1.616,0,0,1,1.4-.557,1.1,1.1,0,0,1,.962.589A.924.924,0,0,1,13.654,12.226Z"/><path d="M11.155,4.851s.156-.846.217-1.5c.076-.81-.468-2.9-3.372-2.9s-3.449,2.1-3.372,2.905c.061.651.217,1.5.217,1.5s-.308.142-.308.713c.108,1.434.672.816.789,1.444.281,1.515.919,1.245.919,2.071,0,1.378-.668,2.021-2.761,2.783S.022,13.407.022,13.939v1.513A.548.548,0,0,0,.57,16h9.474a4.793,4.793,0,0,1-1.52-3.493,4.217,4.217,0,0,1,1.259-3,3.329,3.329,0,0,1-.028-.424c0-.826.638-.556.919-2.071.116-.628.68-.01.789-1.444C11.463,4.993,11.155,4.851,11.155,4.851ZM15.458,16h.52v-.521A4.2,4.2,0,0,1,15.458,16Z"/></g>
</symbol>

<symbol id="bill" class="symbol" viewBox="0 0 16 16">
  <title>bill</title><g id="0684ef12-36fb-4788-bccf-916285970759" data-name="Layer 1"><path d="M11.061,6.217a4.187,4.187,0,0,0-.72-1.244,3.407,3.407,0,0,0-1.054-.832,2.833,2.833,0,0,0-1.3-.3,2.863,2.863,0,0,0-1.3.3,3.362,3.362,0,0,0-1.057.832,3.914,3.914,0,0,0-.706,1.244,4.688,4.688,0,0,0,0,3.056,3.925,3.925,0,0,0,.706,1.244,3.391,3.391,0,0,0,1.057.832,2.908,2.908,0,0,0,2.593,0,3.406,3.406,0,0,0,1.058-.832,4.2,4.2,0,0,0,.72-1.244,4.49,4.49,0,0,0,0-3.056Zm-1.085,3.8h-3.8V9.011H7.384V6.4c-.023.041-.572.547-.572.547L6,6.173l1.544-1.3H8.754V9.011H9.976Z"/><path d="M15.794,1.917a.669.669,0,0,0-.463-.176H.687a.693.693,0,0,0-.481.176.543.543,0,0,0-.195.418v10.8a.556.556,0,0,0,.195.434.689.689,0,0,0,.481.177H15.331a.665.665,0,0,0,.463-.177.556.556,0,0,0,.2-.434V2.335A.543.543,0,0,0,15.794,1.917Zm-14.22,8.23a1.8,1.8,0,0,0-.363.037V5.306a1.791,1.791,0,0,0,.363.038,2.476,2.476,0,0,0,2.472-2.4h7.936a2.476,2.476,0,0,0,2.472,2.4,1.787,1.787,0,0,0,.335-.035v4.872a1.881,1.881,0,0,0-.335-.034,2.475,2.475,0,0,0-2.472,2.4H4.046A2.475,2.475,0,0,0,1.574,10.147Z"/></g>
</symbol>

<symbol id="calendar-o" class="symbol" viewBox="0 0 16 16">
  <title>calendar-o</title><g id="dd90b1a1-407c-4677-821b-6c2afff18303" data-name="Layer 1"><path d="M6.6,9.073a.177.177,0,0,0,.159.024L7.938,8.7v4.12A.177.177,0,0,0,8.115,13h.708A.177.177,0,0,0,9,12.823V7.513a.177.177,0,0,0-.233-.168l-2.124.708a.178.178,0,0,0-.121.168v.708A.177.177,0,0,0,6.6,9.073Z"/><path d="M13,1V0H12V1H4V0H3V1H0V16H16V1Zm2,14H1V6H15ZM15,5H1V2H3V3H4V2h8V3h1V2h2Z"/></g>
</symbol>

<symbol id="calendar-outline" class="symbol" viewBox="0 0 16 16">
  <title>calendar-outline</title><g id="3b5f8e43-abb8-402f-8db3-418fe5b20d36" data-name="Layer 1"><path d="M14.758,6.038V2.612a.872.872,0,0,0-.852-.891H12.683v-.8a.853.853,0,1,0-1.7,0v.8H4.809v-.8a.853.853,0,1,0-1.7,0v.8H1.981a.872.872,0,0,0-.851.891V15.086a.872.872,0,0,0,.851.891H13.906a.872.872,0,0,0,.852-.891V6.313a.922.922,0,0,0,.027-.137A.91.91,0,0,0,14.758,6.038Zm-1.7,8.157H2.833V7.067H13.054Zm0-8.91H2.833V3.5H13.054Zm-8.245,4.9A.886.886,0,1,0,3.962,9.3.866.866,0,0,0,4.809,10.186Zm3.161,0A.886.886,0,1,0,7.124,9.3.867.867,0,0,0,7.97,10.186Zm3.162,0a.886.886,0,1,0-.846-.886A.867.867,0,0,0,11.132,10.186ZM4.809,12.859a.886.886,0,1,0-.847-.885A.866.866,0,0,0,4.809,12.859Zm3.161,0a.886.886,0,1,0-.846-.885A.866.866,0,0,0,7.97,12.859Zm3.162,0a.886.886,0,1,0-.846-.885A.866.866,0,0,0,11.132,12.859Z"/></g>
</symbol>

<symbol id="cc" class="symbol" viewBox="0 0 16 16">
  <title>cc</title><g id="099187ab-e855-4ece-ad3a-f95401e92f4c" data-name="Layer 1"><rect x="5.177" y="10.18" width="2.049" height="1.165"/><rect x="2.499" y="10.18" width="2.049" height="1.165"/><path d="M12.008,8.288A1.517,1.517,0,0,0,11,8.674a1.529,1.529,0,1,0,0,2.285,1.512,1.512,0,0,0,1.006.386,1.529,1.529,0,0,0,0-3.057Z"/><path d="M15.388,1.741H.623a.607.607,0,0,0-.536.332.519.519,0,0,0-.076.262v10.8h0a.574.574,0,0,0,.045.221l0,.016,0,0a.61.61,0,0,0,.561.37H15.388A.612.612,0,0,0,16,13.137V2.353A.612.612,0,0,0,15.388,1.741ZM14.65,5.373H1.361V3.091H14.65ZM1.361,12.4V6.867H14.65V12.4Z"/></g>
</symbol>

<symbol id="check-encircled" class="symbol" viewBox="0 0 16 16">
  <title>check-encircled</title><g id="156a2133-bce4-47f0-902e-f70be912e539" data-name="Layer 1"><path d="M8,.028a8,8,0,1,0,8,8A8,8,0,0,0,8,.028Zm4.065,6.847L7.8,11.136a1.039,1.039,0,0,1-1.47,0l-2.4-2.4a1.039,1.039,0,0,1,1.47-1.47L7.068,8.931,10.6,5.405a1.039,1.039,0,0,1,1.47,1.47Z"/></g>
</symbol>

<symbol id="check-ins-app" class="symbol" viewBox="0 0 32 32">
  <defs><style>.cls-1{fill:#333132;fill-rule:evenodd;}</style></defs><title>check-ins-app</title><path class="cls-1" d="M19.846,11.606,14.352,17.1l-2.2-2.2a1.554,1.554,0,1,0-2.2,2.2l3.3,3.3a1.554,1.554,0,0,0,2.2,0L22.043,13.8a1.554,1.554,0,0,0-2.2-2.2Z"/><path class="cls-1" d="M26.973,2H5.027A3.027,3.027,0,0,0,2,5.027V26.973A3.027,3.027,0,0,0,5.027,30H26.973A3.027,3.027,0,0,0,30,26.973V5.027A3.027,3.027,0,0,0,26.973,2Zm0,24.216a.757.757,0,0,1-.757.757H5.784a.757.757,0,0,1-.757-.757V5.784a.757.757,0,0,1,.757-.757h4.541V6.544a.753.753,0,0,0,.753.753h9.845a.753.753,0,0,0,.753-.753V5.027h4.541a.757.757,0,0,1,.757.757Z"/>
</symbol>

<symbol id="check-ins-badge" class="symbol" viewBox="0 0 140 32">
  <defs><style>.cls-1,.cls-2{fill:#333132;}.cls-1{fill-rule:evenodd;}</style></defs><title>check-ins-badge</title><path class="cls-1" d="M19.846,11.606,14.352,17.1l-2.2-2.2a1.554,1.554,0,1,0-2.2,2.2l3.3,3.3a1.554,1.554,0,0,0,2.2,0L22.043,13.8a1.554,1.554,0,0,0-2.2-2.2Z"/><path class="cls-1" d="M26.973,2H5.027A3.027,3.027,0,0,0,2,5.027V26.973A3.027,3.027,0,0,0,5.027,30H26.973A3.027,3.027,0,0,0,30,26.973V5.027A3.027,3.027,0,0,0,26.973,2Zm0,24.216a.757.757,0,0,1-.757.757H5.784a.757.757,0,0,1-.757-.757V5.784a.757.757,0,0,1,.757-.757h4.541V6.544a.753.753,0,0,0,.753.753h9.845a.753.753,0,0,0,.753-.753V5.027h4.541a.757.757,0,0,1,.757.757Z"/><path class="cls-2" d="M44.065,23.264a7.775,7.775,0,0,1-7.9-7.921V15.3A7.829,7.829,0,0,1,44.2,7.333,7.948,7.948,0,0,1,50.271,9.71L48.114,12.2a5.685,5.685,0,0,0-3.938-1.738,4.564,4.564,0,0,0-4.467,4.8V15.3a4.575,4.575,0,0,0,4.467,4.841,5.562,5.562,0,0,0,4.049-1.8l2.156,2.178A7.874,7.874,0,0,1,44.065,23.264Z"/><path class="cls-2" d="M59.3,23V16.421c0-1.584-.748-2.4-2.024-2.4s-2.09.814-2.09,2.4V23H51.837V6.938h3.345v5.941a4.17,4.17,0,0,1,3.454-1.892c2.53,0,4,1.672,4,4.378V23Z"/><path class="cls-2" d="M75.884,18.27H67.677a2.736,2.736,0,0,0,2.883,2.31,3.865,3.865,0,0,0,2.86-1.21l1.914,1.694a6.23,6.23,0,0,1-10.979-3.9v-.044a5.872,5.872,0,0,1,5.831-6.139c3.938,0,5.742,3.059,5.742,6.4v.044C75.928,17.763,75.906,17.961,75.884,18.27Zm-5.7-4.6a2.629,2.629,0,0,0-2.553,2.509h5.039A2.53,2.53,0,0,0,70.186,13.67Z"/><path class="cls-2" d="M83.251,23.264a6.022,6.022,0,0,1-6.139-6.1v-.044a6.055,6.055,0,0,1,6.183-6.139A5.8,5.8,0,0,1,88,12.966l-2.047,2.2a3.444,3.444,0,0,0-2.685-1.3,3.014,3.014,0,0,0-2.86,3.212v.044A3.022,3.022,0,0,0,83.4,20.382a3.737,3.737,0,0,0,2.707-1.254l1.958,1.98A5.939,5.939,0,0,1,83.251,23.264Z"/><path class="cls-2" d="M97.071,23l-3.08-4.819-1.166,1.232V23H89.48V6.938h3.345V15.5l3.916-4.291h4l-4.489,4.643L100.9,23Z"/><path class="cls-2" d="M100.658,17.785V14.573h6.777v3.212Z"/><path class="cls-2" d="M110.272,23V7.6h3.389V23Z"/><path class="cls-2" d="M123.946,23V16.421c0-1.584-.748-2.4-2.024-2.4s-2.09.814-2.09,2.4V23h-3.345V11.207h3.345v1.672a4.17,4.17,0,0,1,3.454-1.892c2.53,0,4,1.672,4,4.378V23Z"/><path class="cls-2" d="M133.714,23.22a8.261,8.261,0,0,1-5.061-1.782l1.43-2.2a6.667,6.667,0,0,0,3.719,1.408c.968,0,1.408-.352,1.408-.88v-.044c0-.726-1.145-.968-2.442-1.364-1.65-.484-3.521-1.254-3.521-3.542v-.044c0-2.4,1.937-3.741,4.313-3.741a8.16,8.16,0,0,1,4.4,1.364l-1.276,2.31a6.991,6.991,0,0,0-3.19-1.1c-.813,0-1.231.352-1.231.814v.044c0,.66,1.122.968,2.4,1.408,1.649.55,3.564,1.342,3.564,3.5v.044C138.225,22.032,136.266,23.22,133.714,23.22Z"/>
</symbol>

<symbol id="check" class="symbol" viewBox="0 0 16 16">
  <title>check</title><g id="57e76cd7-12b6-472d-8bdb-c9a691aabd90" data-name="Layer 1"><rect x="3.358" y="8.971" width="2.56" height="0.995"/><rect x="3.358" y="6.907" width="7.919" height="0.995"/><rect x="3.358" y="4.934" width="3.731" height="0.995"/><rect x="6.696" y="8.971" width="2.56" height="0.995"/><polygon points="10.188 9.965 11.183 8.971 10.087 8.971 10.087 9.965 10.188 9.965"/><path d="M14.62,11.981H13.581l-1.347,1.35h3.125a.612.612,0,0,0,.611-.611V9.586l-1.35,1.353Z"/><path d="M1.331,3.091H14.62V5.6l1.35-1.339V2.353a.612.612,0,0,0-.611-.612H.593a.612.612,0,0,0-.612.612V12.72a.612.612,0,0,0,.612.611h6.27L8.2,11.981H1.331Z"/><rect x="9.493" y="9.048" width="6.877" height="1.771" transform="translate(-3.236 12.055) rotate(-45.007)"/><polygon points="8.879 12.734 8.933 13.967 10.131 13.986 10.628 13.489 9.376 12.236 8.879 12.734"/></g>
</symbol>

<symbol id="circle-arrow" class="symbol" viewBox="0 0 16 16">
  <title>circle-arrow</title><g id="40ba6e4e-bab5-4af0-b8ac-1da987193098" data-name="Layer 1"><polygon points="9.354 11.354 8.646 10.646 11.793 7.5 8.646 4.354 9.354 3.646 13.207 7.5 9.354 11.354"/><rect x="4" y="7" width="8.5" height="1"/></g>
</symbol>

<symbol id="clock" class="symbol" viewBox="0 0 16 16">
  <title>clock</title><g id="665ed15f-3698-4455-aa59-1f0056e91411" data-name="Layer 1"><path d="M8,2.028a6,6,0,1,1-6,6,6.007,6.007,0,0,1,6-6m0-2a8,8,0,1,0,8,8,8,8,0,0,0-8-8Z"/><path d="M10.941,9.416H7.985a1,1,0,0,1-1-1v-4.6a1,1,0,1,1,2,0v3.6h1.956a1,1,0,0,1,0,2Z"/></g>
</symbol>

<symbol id="comment-outline" class="symbol" viewBox="0 0 16 16">
  <title>comment-outline</title><g id="23b25ee7-d362-4bb0-afb3-f7ec9c00228f" data-name="Layer 1"><path d="M1.015,15.992A1,1,0,0,1,.048,14.75l.8-3.2a7.972,7.972,0,1,1,3.608,3.613l-3.2.8A1,1,0,0,1,1.015,15.992ZM4.584,13.1a1,1,0,0,1,.488.128,6,6,0,1,0-2.294-2.3,1,1,0,0,1,.1.732L2.387,13.62l1.955-.488A1,1,0,0,1,4.584,13.1Z"/></g>
</symbol>

<symbol id="contact-outline" class="symbol" viewBox="0 0 16 16">
  <title>contact-outline</title><g id="42feb370-a166-4a19-a779-fa98cfde8b73" data-name="Layer 1"><path d="M13.213,6.183H8.482V5.065h4.731Z"/><rect x="3.193" y="5.065" width="4.213" height="4.213"/><path d="M13.388,2H2.434A2.436,2.436,0,0,0,0,4.436v7.3a2.437,2.437,0,0,0,2.434,2.434H3.651a.609.609,0,0,0,.609-.609v-.608h.608v.608a.609.609,0,0,0,.609.609h4.869a.608.608,0,0,0,.608-.609v-.608h.609v.608a.608.608,0,0,0,.608.609h1.217a2.437,2.437,0,0,0,2.435-2.434v-7.3A2.436,2.436,0,0,0,13.388,2Zm1.217,9.737a1.218,1.218,0,0,1-1.217,1.217H12.78v-.609a.608.608,0,0,0-.609-.608H10.346a.608.608,0,0,0-.609.608v.609H6.086v-.609a.609.609,0,0,0-.609-.608H3.651a.608.608,0,0,0-.608.608v.609H2.434a1.218,1.218,0,0,1-1.217-1.217v-7.3A1.218,1.218,0,0,1,2.434,3.219H13.388a1.218,1.218,0,0,1,1.217,1.217Z"/><rect x="8.482" y="7.326" width="3.248" height="1.118"/></g>
</symbol>

<symbol id="discount" class="symbol" viewBox="0 0 16 16">
  <title>discount</title><g id="8caebe65-b45e-46b8-80c9-1ea2efc6e846" data-name="Layer 1"><path d="M10.324,4.973A3.384,3.384,0,0,0,9.27,4.141a2.828,2.828,0,0,0-1.3-.3,2.86,2.86,0,0,0-1.3.3,3.377,3.377,0,0,0-1.058.832,3.912,3.912,0,0,0-.7,1.244,4.671,4.671,0,0,0,0,3.056,3.923,3.923,0,0,0,.705,1.244,3.406,3.406,0,0,0,1.058.832,2.908,2.908,0,0,0,2.593,0,3.391,3.391,0,0,0,1.057-.832,4.156,4.156,0,0,0,.72-1.244,4.474,4.474,0,0,0,0-3.056A4.144,4.144,0,0,0,10.324,4.973ZM9.96,10.019h-3.8V9.011h1.2V6.4c-.023.041-.571.547-.571.547l-.815-.775,1.544-1.3H8.738V9.011H9.96Zm1.166-8.278H8.953V2.947h2.173ZM8.953,13.749h2.173v-1.2H8.953ZM15.858,2.04a.607.607,0,0,0-.516-.3H13.61V2.947h1V4.1h1.35V2.335A.527.527,0,0,0,15.858,2.04ZM3.765,11.61a2.44,2.44,0,0,0-.568-.762,2.747,2.747,0,0,0-.845-.512,2.834,2.834,0,0,0-1.035-.191v-4.8a2.834,2.834,0,0,0,1.035-.191A2.728,2.728,0,0,0,3.2,4.642a2.452,2.452,0,0,0,.568-.762,2.111,2.111,0,0,0,.213-.933H6.469V1.741H.657a.694.694,0,0,0-.481.176.542.542,0,0,0-.194.418v10.8a.556.556,0,0,0,.194.434.69.69,0,0,0,.481.177H6.469v-1.2H3.979A2.12,2.12,0,0,0,3.765,11.61ZM14.609,8.672h1.35V6.587h-1.35Zm0,3.874h-1v1.2h1.732a.611.611,0,0,0,.538-.331.553.553,0,0,0,.079-.28V11.156h-1.35Z"/></g>
</symbol>

<symbol id="donor-card-o" class="symbol" viewBox="0 0 16 16">
  <title>donor-card-o</title><g id="97ac74c5-428b-46f3-be11-9d5facfc5625" data-name="Layer 1"><path d="M7,8H2V3H7ZM3,7H6V4H3Z"/><rect x="8" y="3" width="6" height="1"/><rect x="8" y="5" width="6" height="1.034"/><rect x="8" y="7" width="4" height="1"/><path d="M0,1V13H4V11.5a.5.5,0,0,1,1,0V13h6V11.5a.5.5,0,0,1,1,0V13h4V1ZM15,12H13v-.5a1.5,1.5,0,0,0-3,0V12H6v-.5a1.5,1.5,0,0,0-3,0V12H1V2H15Z"/></g>
</symbol>

<symbol id="email-thick-o" class="symbol" viewBox="0 0 16 16">
  <title>email-thick-o</title><g id="f5bde2a2-a38d-4f64-8221-2193ec3f6998" data-name="Layer 1"><path d="M15.905,2.88a.873.873,0,0,0-.042-.208.935.935,0,0,0-.1-.175.846.846,0,0,0-.071-.124c-.008-.01-.02-.013-.028-.022a.965.965,0,0,0-.167-.129.97.97,0,0,0-.139-.094,1,1,0,0,0-.167-.045,1.02,1.02,0,0,0-.2-.041c-.012,0-.022-.006-.034-.006H.975l-.015,0a.978.978,0,0,0-.219.044,1.065,1.065,0,0,0-.153.034A1.022,1.022,0,0,0,.5,2.176a.953.953,0,0,0-.223.157l-.012.008a.9.9,0,0,0-.078.125.908.908,0,0,0-.115.185.942.942,0,0,0-.047.229A.949.949,0,0,0,0,3.011V13.025A.976.976,0,0,0,.975,14H14.957a.976.976,0,0,0,.975-.975V3.011A.951.951,0,0,0,15.905,2.88ZM12.341,3.986,7.688,8.013,3.426,3.986ZM1.949,12.05V5.273L6.99,10.036a.974.974,0,0,0,1.308.029l5.684-4.921V12.05Z"/></g>
</symbol>

<symbol id="envelope-open-o" class="symbol" viewBox="0 0 16 16">
  <title>envelope-open-o</title><g id="6b1fe2e2-bd76-45c7-8634-39825d3975ed" data-name="Layer 1"><path d="M15.955,7.516v0l0-.017a.488.488,0,0,0-.029-.173,1,1,0,0,0-.166-.4h0l-.014-.013a.968.968,0,0,0-.177-.179L9.072.45a1.531,1.531,0,0,0-2.114,0L.463,6.681a1.343,1.343,0,0,0-.45.831v7.465a1,1,0,0,0,1,1H14.959a1,1,0,0,0,1-1V7.529A.056.056,0,0,0,15.955,7.516ZM4.215,11.337l-3.2,2.951V8.509ZM5.3,11.69c.012-.011.026-.015.037-.027l.008-.014,2.2-2.03a.613.613,0,0,1,.388-.139.642.642,0,0,1,.382.125l5.972,5.372H1.732Zm6.506-.287,3.152-2.8v5.633ZM1.63,6.923,7.663,1.154a.5.5,0,0,1,.705,0l5.626,5.361h-.015l.854.869-3.772,3.348L8.956,8.838a1.64,1.64,0,0,0-2.051.021l-1.953,1.8L1.187,7.337l.42-.414Z"/></g>
</symbol>

<symbol id="file-image" class="symbol" viewBox="0 0 16 16">
  <title>file-image</title><g id="c634e042-8dec-4bc4-911e-1b04690f086e" data-name="Layer 1"><path d="M9.845,0H2.35a.8.8,0,0,0-.805.805V15.2a.805.805,0,0,0,.805.8h11.3a.805.805,0,0,0,.8-.8V4.15Zm2.564,4.155-2.452.007h0a.118.118,0,0,1-.118-.119l0-2.194Zm.7,10.5H2.9V1.35h5.6L8.488,4.041A1.468,1.468,0,0,0,9.96,5.512L13.105,5.5Z"/><path d="M4.2,12.638h7.682V6.689H4.2Zm6.932-5.2v2.948l-.78-.911L9.192,10.835,6.89,8.149,4.954,10.408V7.439ZM4.954,11.56,6.89,9.3l2.217,2.586H4.954Zm4.322.328,1.08-1.259.78.91v.349Z"/><path d="M9.2,9.141a.434.434,0,1,0-.433-.434A.434.434,0,0,0,9.2,9.141Z"/></g>
</symbol>

<symbol id="file-pdf" class="symbol" viewBox="0 0 16 16">
  <title>file-pdf</title><g id="e4e53d9e-3c7b-404f-88df-07c9f73f4f98" data-name="Layer 1"><path d="M9.845,0H2.35a.8.8,0,0,0-.805.805V15.2a.805.805,0,0,0,.805.8h11.3a.805.805,0,0,0,.8-.8V4.15Zm2.564,4.155-2.452.007h0a.118.118,0,0,1-.118-.119l0-2.194Zm.7,10.5H2.9V1.35h5.6L8.488,4.041A1.468,1.468,0,0,0,9.96,5.512L13.105,5.5Z"/><path d="M10.8,10.184a1.07,1.07,0,0,0-1.017-.458,4.057,4.057,0,0,0-.7.058A7.871,7.871,0,0,1,8.056,8.249C8.36,6.941,8.17,6.517,8,6.308a.757.757,0,0,0-.58-.275.991.991,0,0,0-.263.046.8.8,0,0,0-.519.487,2.4,2.4,0,0,0,.274,1.8,16.115,16.115,0,0,1-.842,2.365c-1,.474-1.5.943-1.563,1.473a.933.933,0,0,0,.41.872.707.707,0,0,0,.441.155,1.269,1.269,0,0,0,.967-.663,6.8,6.8,0,0,0,.565-.993,12.76,12.76,0,0,1,1.823-.594,1.783,1.783,0,0,0,1.144.526.982.982,0,0,0,.814-.436A.8.8,0,0,0,10.8,10.184Zm-.736.451a.213.213,0,0,1-.206.112.946.946,0,0,1-.506-.243c.168-.019.318-.038.431-.038a.685.685,0,0,1,.337.056C10.1,10.56,10.1,10.6,10.06,10.635ZM5.243,12.3c.018-.131.224-.375.749-.675-.393.732-.6.825-.637.844C5.243,12.378,5.243,12.322,5.243,12.3ZM7.4,7.617a1.239,1.239,0,0,1-.075-.75c.019-.037.038-.056.056-.056H7.4A1.582,1.582,0,0,1,7.4,7.617Zm.131,1.275a9.779,9.779,0,0,0,.938,1.368,12.086,12.086,0,0,0-1.594.506A16.931,16.931,0,0,0,7.529,8.892Z"/></g>
</symbol>

<symbol id="file-song" class="symbol" viewBox="0 0 16 16">
  <title>file-song</title><g id="a0f6ba51-89e4-41a1-9344-2f19ffa87d2a" data-name="Layer 1"><path d="M9.891,0H2.4a.8.8,0,0,0-.8.8V15.2a.8.8,0,0,0,.8.8H13.7a.8.8,0,0,0,.8-.8V4.149Zm2.564,4.155L10,4.162h0a.119.119,0,0,1-.118-.119l0-2.194Zm.7,10.5H2.942V1.35h5.6l0,2.691a1.468,1.468,0,0,0,1.472,1.47L13.15,5.5Z"/><path d="M10.617,7.212a.645.645,0,0,0-.644-.645l-2.954.722a.644.644,0,0,0-.488.626v2.653a1.282,1.282,0,0,0-.452-.091,1.3,1.3,0,1,0,1.3,1.3,1.135,1.135,0,0,0-.033-.162l.033.033V8.3L9.768,7.7v2.06a1.283,1.283,0,0,0-.459-.093,1.3,1.3,0,1,0,1.3,1.3l.008,0ZM6.079,12.328a.551.551,0,1,1,.551-.551A.551.551,0,0,1,6.079,12.328Zm3.23-.812a.551.551,0,1,1,.55-.551A.551.551,0,0,1,9.309,11.516Z"/></g>
</symbol>

<symbol id="file-text" class="symbol" viewBox="0 0 16 16">
  <title>file-text</title><g id="69d954cf-14be-4ce0-9248-dce45834deca" data-name="Layer 1"><path d="M7.146,7.212v.516a.29.29,0,0,1-.294.294.3.3,0,0,1-.295-.257h-.35V9.256a.3.3,0,0,1,.258.295.291.291,0,0,1-.295.294H5.655a.291.291,0,0,1-.295-.294.3.3,0,0,1,.258-.295V7.765H5.176a.279.279,0,0,1-.276.257.29.29,0,0,1-.295-.294V7.212A.291.291,0,0,1,4.9,6.918a.3.3,0,0,1,.295.258h1.38a.286.286,0,0,1,.571.036Z"/><path d="M10.819,8.349H8.249a.425.425,0,0,1,0-.85h2.57a.425.425,0,0,1,0,.85Z"/><path d="M10.819,9.827H8.249a.425.425,0,1,1,0-.849h2.57a.425.425,0,1,1,0,.849Z"/><path d="M10.819,11.307H4.976a.425.425,0,0,1,0-.85h5.843a.425.425,0,0,1,0,.85Z"/><path d="M10.819,12.785H4.976a.425.425,0,1,1,0-.849h5.843a.425.425,0,1,1,0,.849Z"/><path d="M9.845,0H2.35a.8.8,0,0,0-.805.805V15.2a.805.805,0,0,0,.805.8h11.3a.805.805,0,0,0,.8-.8V4.15Zm2.564,4.155-2.452.007h0a.118.118,0,0,1-.118-.119l0-2.194Zm.7,10.5H2.9V1.35h5.6L8.488,4.041A1.468,1.468,0,0,0,9.96,5.512L13.105,5.5Z"/></g>
</symbol>

<symbol id="file-video" class="symbol" viewBox="0 0 16 16">
  <title>file-video</title><g id="03e97f18-656d-4fb2-8f19-1069f53311d3" data-name="Layer 1"><path d="M9.845,0H2.35a.8.8,0,0,0-.805.805V15.2a.805.805,0,0,0,.805.8h11.3a.805.805,0,0,0,.8-.8V4.15Zm2.564,4.155-2.452.007h0a.118.118,0,0,1-.118-.119l0-2.194Zm.7,10.5H2.9V1.35h5.6L8.488,4.041A1.468,1.468,0,0,0,9.96,5.512L13.105,5.5Z"/><path d="M7.778,13.147A3.483,3.483,0,1,1,11.26,9.664,3.491,3.491,0,0,1,7.778,13.147Zm0-6.18a2.7,2.7,0,1,0,2.7,2.7A2.689,2.689,0,0,0,7.778,6.967Z"/><path d="M9.267,9.431,7.055,7.906a.284.284,0,0,0-.445.234v3.047a.284.284,0,0,0,.445.234L9.267,9.9A.283.283,0,0,0,9.267,9.431ZM7.26,10.491V8.837l1.2.827Z"/></g>
</symbol>

<symbol id="form-download copy" class="symbol" viewBox="0 0 16 16">
  <title>form-download copy</title><g id="fae7c559-a44b-441b-8e73-ec5c208e810b" data-name="Layer 1"><path d="M8.558,10.329a.28.28,0,0,0,.276-.275l.119-3.681A.284.284,0,0,0,8.676,6.1H7.366a.264.264,0,0,0-.2.082.281.281,0,0,0-.074.193l.095,3.681a.271.271,0,0,0,.082.193.266.266,0,0,0,.194.082ZM8.9,11.363a.312.312,0,0,0-.07-.21.248.248,0,0,0-.2-.082H7.414a.268.268,0,0,0-.193.079.276.276,0,0,0-.084.213v1.16a.251.251,0,0,0,.084.2.277.277,0,0,0,.193.075H8.629a.235.235,0,0,0,.267-.276Z"/><path d="M15.9,13.464a2,2,0,0,0-.191-.4L9.4,2.16a2.392,2.392,0,0,0-.456-.56,1.413,1.413,0,0,0-1.863,0,2.47,2.47,0,0,0-.453.56L.366,13.019a1.811,1.811,0,0,0-.231.471,1.769,1.769,0,0,0-.079.526A1.3,1.3,0,0,0,.72,15.2a2.029,2.029,0,0,0,1,.264h12.6a2.027,2.027,0,0,0,1-.265,1.3,1.3,0,0,0,.663-1.182A1.631,1.631,0,0,0,15.9,13.464ZM8.305,2.8l6.316,10.92a.852.852,0,0,1,.081.169.394.394,0,0,1,0,.212.756.756,0,0,1-.382.1H1.723a.505.505,0,0,1-.4-.182.5.5,0,0,1,.021-.147.667.667,0,0,1,.09-.173L7.721,2.8a1.124,1.124,0,0,1,.213-.263.1.1,0,0,1,.079-.027l.075.024A1.2,1.2,0,0,1,8.305,2.8Z"/></g>
</symbol>

<symbol id="form-download" class="symbol" viewBox="0 0 16 16">
  <title>form-download</title><g id="2abf0abd-0e01-4515-af4c-18238b015f61" data-name="Layer 1"><path d="M8,.187A7.813,7.813,0,1,0,15.812,8,7.822,7.822,0,0,0,8,.187ZM8,14.622A6.622,6.622,0,1,1,14.622,8,6.63,6.63,0,0,1,8,14.622Z"/><polygon points="8.471 9.065 8.471 5.445 7.281 5.445 7.281 9.093 6.052 7.813 5.235 8.655 7.95 11.357 10.659 8.655 9.77 7.813 8.471 9.065"/></g>
</symbol>

<symbol id="form-line" class="symbol" viewBox="0 0 16 16">
  <title>form-line</title><g id="ebe092d9-c6b7-4e93-bb04-2ea84af24042" data-name="Layer 1"><path d="M11.285,1.028H2V14.972H14V3.872ZM11.03,2.64l1.472,1.4H11.03Zm1.993,11.389H2.946v-12h7.079V5.016h3Zm-4-8.006H5.032V7H9.021ZM5.032,9.995H11V9.02H5.032Z"/></g>
</symbol>

<symbol id="geo-pin-outline" class="symbol" viewBox="0 0 16 16">
  <title>geo-pin-outline</title><g id="77ee2a32-412b-460b-81e0-6a5b980d6f70" data-name="Layer 1"><path d="M8,.028A5.849,5.849,0,0,0,2.305,6.007,6.062,6.062,0,0,0,3.414,9.549l3.8,5.98a.925.925,0,0,0,1.58,0L12.556,9.6A6.137,6.137,0,0,0,13.7,6.007,5.849,5.849,0,0,0,8,.028Zm3.007,8.416L8,13.18,4.962,8.4A4.081,4.081,0,0,1,4.2,6.007,3.9,3.9,0,0,1,8,2.021a3.9,3.9,0,0,1,3.8,3.986A4.146,4.146,0,0,1,11.007,8.444ZM7.326,5.3a1.048,1.048,0,0,0,0,1.415.928.928,0,0,0,1.348,0,1.048,1.048,0,0,0,0-1.415A.961.961,0,0,0,7.326,5.3Z"/></g>
</symbol>

<symbol id="giving-app" class="symbol" viewBox="0 0 32 32">
  <defs><style>.cls-1,.cls-2{fill:#333132;}.cls-2{fill-rule:evenodd;}</style></defs><title>giving-app</title><path class="cls-1" d="M16.422,12.856,16,13.278l-.422-.422a3.284,3.284,0,0,0-4.354-.347,3.161,3.161,0,0,0-.242,4.688l.55.55,4.114,4.115a.5.5,0,0,0,.709,0L21.019,17.2a3.161,3.161,0,0,0-.242-4.688A3.285,3.285,0,0,0,16.422,12.856Z"/><path class="cls-2" d="M26.973,2H5.027A3.027,3.027,0,0,0,2,5.027V26.973A3.027,3.027,0,0,0,5.027,30H26.973A3.027,3.027,0,0,0,30,26.973V5.027A3.027,3.027,0,0,0,26.973,2Zm0,24.216a.757.757,0,0,1-.757.757H5.784a.757.757,0,0,1-.757-.757V5.784a.757.757,0,0,1,.757-.757h4.541V6.544a.753.753,0,0,0,.753.753h9.845a.753.753,0,0,0,.753-.753V5.027h4.541a.757.757,0,0,1,.757.757Z"/>
</symbol>

<symbol id="giving-badge" class="symbol" viewBox="0 0 104 32">
  <defs><style>.cls-1,.cls-2{fill:#333132;}.cls-2{fill-rule:evenodd;}</style></defs><title>giving-badge</title><path class="cls-1" d="M16.422,12.856,16,13.278l-.422-.422a3.284,3.284,0,0,0-4.354-.347,3.161,3.161,0,0,0-.242,4.688l.55.55,4.114,4.115a.5.5,0,0,0,.709,0L21.019,17.2a3.161,3.161,0,0,0-.242-4.688A3.285,3.285,0,0,0,16.422,12.856Z"/><path class="cls-2" d="M26.973,2H5.027A3.027,3.027,0,0,0,2,5.027V26.973A3.027,3.027,0,0,0,5.027,30H26.973A3.027,3.027,0,0,0,30,26.973V5.027A3.027,3.027,0,0,0,26.973,2Zm0,24.216a.757.757,0,0,1-.757.757H5.784a.757.757,0,0,1-.757-.757V5.784a.757.757,0,0,1,.757-.757h4.541V6.544a.753.753,0,0,0,.753.753h9.845a.753.753,0,0,0,.753-.753V5.027h4.541a.757.757,0,0,1,.757.757Z"/><path class="cls-1" d="M44.264,23.264a7.709,7.709,0,0,1-8.1-7.921V15.3a7.906,7.906,0,0,1,8.075-7.965,8.457,8.457,0,0,1,6.051,2.112l-2.134,2.575a5.671,5.671,0,0,0-4.026-1.562,4.626,4.626,0,0,0-4.423,4.8V15.3a4.615,4.615,0,0,0,4.665,4.885,5.408,5.408,0,0,0,3.19-.924v-2.2H44.153V14.133h6.689v6.689A10,10,0,0,1,44.264,23.264Z"/><path class="cls-1" d="M53.271,9.908V6.938h3.521V9.908ZM53.359,23V11.207H56.7V23Z"/><path class="cls-1" d="M65.563,23.088H62.526L57.884,11.207h3.543l2.641,7.9,2.662-7.9h3.477Z"/><path class="cls-1" d="M71.33,9.908V6.938h3.521V9.908ZM71.419,23V11.207h3.344V23Z"/><path class="cls-1" d="M84.686,23V16.421c0-1.584-.748-2.4-2.024-2.4s-2.09.814-2.09,2.4V23H77.227V11.207h3.345v1.672a4.17,4.17,0,0,1,3.454-1.892c2.53,0,4,1.672,4,4.378V23Z"/><path class="cls-1" d="M95.53,26.564a11.2,11.2,0,0,1-5.215-1.232l1.145-2.509A7.7,7.7,0,0,0,95.442,23.9c2.288,0,3.367-1.1,3.367-3.213v-.572a4.613,4.613,0,0,1-3.851,1.914,5.179,5.179,0,0,1-5.237-5.5v-.044a5.191,5.191,0,0,1,5.237-5.5,4.771,4.771,0,0,1,3.806,1.76v-1.54h3.345v9.131C102.109,24.782,99.909,26.564,95.53,26.564ZM98.81,16.487a2.875,2.875,0,0,0-5.743,0v.044a2.694,2.694,0,0,0,2.86,2.728,2.726,2.726,0,0,0,2.883-2.728Z"/>
</symbol>

<symbol id="group-contact" class="symbol" viewBox="0 0 16 16">
  <title>group-contact</title><g id="8b24aa9b-d748-4e4a-9358-6f1a8e83959a" data-name="Layer 1"><path d="M3.5,9.073a.718.718,0,0,0-.67-.76H.676a.769.769,0,0,0,0,1.527H2.829A.723.723,0,0,0,3.5,9.073ZM14.529,0H3.338A1.455,1.455,0,0,0,1.866,1.435V2.558h.963A1.665,1.665,0,0,1,4.438,4.271,1.666,1.666,0,0,1,2.829,5.985H1.866V7.36h.963A1.665,1.665,0,0,1,4.438,9.073a1.81,1.81,0,0,1-.269.959,1.6,1.6,0,0,1-1.34.754H1.866v1.22a1.45,1.45,0,0,0,1.472,1.429h11.19A1.454,1.454,0,0,0,16,12.006V10.612h0V1.435A1.458,1.458,0,0,0,14.529,0ZM9.557,7.824a.836.836,0,0,1-.077-.072h0a.73.73,0,0,0,.078.072ZM14.9,9.58a2.43,2.43,0,0,0-.909-.428c-1.9-.526-2.823-.736-2.985-1.383a4.572,4.572,0,0,0,1.478-3.154A2.621,2.621,0,0,0,10.042,1.9,2.589,2.589,0,0,0,7.536,4.531,4.809,4.809,0,0,0,8.918,7.752.409.409,0,0,0,9,7.824H8.9c-.21.6-1.13.821-2.973,1.328-.012,0-.017.006-.023.006V2.715A1.455,1.455,0,0,1,7.315,1.224H14.05c.783,0,.849.67.849,1.491ZM.675,5.032H2.829a.718.718,0,0,0,.67-.76.723.723,0,0,0-.67-.767H.675A.728.728,0,0,0,0,4.272.722.722,0,0,0,.675,5.032Z"/></g>
</symbol>

<symbol id="groups-app" class="symbol" viewBox="0 0 32 32">
  <defs><style>.cls-1{fill:#333132;fill-rule:evenodd;}</style></defs><title>groups-app</title><path class="cls-1" d="M26.973,2H5.027A3.027,3.027,0,0,0,2,5.027V26.973A3.027,3.027,0,0,0,5.027,30H26.973A3.027,3.027,0,0,0,30,26.973V5.027A3.027,3.027,0,0,0,26.973,2Zm0,24.216a.757.757,0,0,1-.757.757H5.784a.757.757,0,0,1-.757-.757V5.784a.757.757,0,0,1,.757-.757h4.541V6.544a.753.753,0,0,0,.753.753h9.845a.753.753,0,0,0,.753-.753V5.027h4.541a.757.757,0,0,1,.757.757Z"/><path class="cls-1" d="M23.189,12.973a2.643,2.643,0,0,0-5.033-1.135H13.843a2.643,2.643,0,1,0-3.519,3.519v3.556a2.643,2.643,0,1,0,3.519,3.519h4.313a2.643,2.643,0,1,0,3.519-3.519V15.357A2.642,2.642,0,0,0,23.189,12.973Zm-3.027,5.714a2.634,2.634,0,0,0-2.232,2.232H14.07a2.634,2.634,0,0,0-2.232-2.232v-3.1a2.634,2.634,0,0,0,2.232-2.232h3.86a2.634,2.634,0,0,0,2.232,2.232Z"/>
</symbol>

<symbol id="groups-badge" class="symbol" viewBox="0 0 114 32">
  <defs><style>.cls-1,.cls-2{fill:#333132;}.cls-1{fill-rule:evenodd;}</style></defs><title>groups-badge</title><path class="cls-1" d="M26.973,2H5.027A3.027,3.027,0,0,0,2,5.027V26.973A3.027,3.027,0,0,0,5.027,30H26.973A3.027,3.027,0,0,0,30,26.973V5.027A3.027,3.027,0,0,0,26.973,2Zm0,24.216a.757.757,0,0,1-.757.757H5.784a.757.757,0,0,1-.757-.757V5.784a.757.757,0,0,1,.757-.757h4.541V6.544a.753.753,0,0,0,.753.753h9.845a.753.753,0,0,0,.753-.753V5.027h4.541a.757.757,0,0,1,.757.757Z"/><path class="cls-1" d="M23.189,12.973a2.643,2.643,0,0,0-5.033-1.135H13.843a2.643,2.643,0,1,0-3.519,3.519v3.556a2.643,2.643,0,1,0,3.519,3.519h4.313a2.643,2.643,0,1,0,3.519-3.519V15.357A2.642,2.642,0,0,0,23.189,12.973Zm-3.027,5.714a2.634,2.634,0,0,0-2.232,2.232H14.07a2.634,2.634,0,0,0-2.232-2.232v-3.1a2.634,2.634,0,0,0,2.232-2.232h3.86a2.634,2.634,0,0,0,2.232,2.232Z"/><path class="cls-2" d="M44.264,23.264a7.709,7.709,0,0,1-8.1-7.921V15.3a7.906,7.906,0,0,1,8.075-7.965,8.457,8.457,0,0,1,6.051,2.112l-2.134,2.575a5.671,5.671,0,0,0-4.026-1.562,4.626,4.626,0,0,0-4.423,4.8V15.3a4.615,4.615,0,0,0,4.665,4.885,5.408,5.408,0,0,0,3.19-.924v-2.2H44.153V14.133h6.689v6.689A10,10,0,0,1,44.264,23.264Z"/><path class="cls-2" d="M60.269,14.485c-2.223,0-3.587,1.342-3.587,4.159V23H53.337V11.207h3.345v2.376a3.643,3.643,0,0,1,3.763-2.6v3.5Z"/><path class="cls-2" d="M67.5,23.264a6.13,6.13,0,0,1-6.359-6.1v-.044A6.387,6.387,0,0,1,73.9,17.081v.044A6.19,6.19,0,0,1,67.5,23.264Zm3.1-6.139a3.133,3.133,0,0,0-3.1-3.256,3.021,3.021,0,0,0-3.059,3.212v.044a3.134,3.134,0,0,0,3.1,3.257A3.021,3.021,0,0,0,70.6,17.169Z"/><path class="cls-2" d="M83,23V21.328a4.174,4.174,0,0,1-3.455,1.893c-2.53,0-4-1.672-4-4.379V11.207h3.344v6.579c0,1.584.749,2.4,2.024,2.4S83,19.37,83,17.785V11.207h3.345V23Z"/><path class="cls-2" d="M95.767,23.22a4.528,4.528,0,0,1-3.674-1.76v5.061H88.748V11.207h3.345V12.9a4.329,4.329,0,0,1,3.674-1.914c2.751,0,5.369,2.156,5.369,6.095v.044C101.136,21.064,98.562,23.22,95.767,23.22Zm2.024-6.139a2.894,2.894,0,1,0-5.742,0v.044a2.894,2.894,0,1,0,5.742,0Z"/><path class="cls-2" d="M107.017,23.22a8.263,8.263,0,0,1-5.061-1.782l1.431-2.2a6.664,6.664,0,0,0,3.718,1.408c.969,0,1.408-.352,1.408-.88v-.044c0-.726-1.144-.968-2.442-1.364-1.649-.484-3.521-1.254-3.521-3.542v-.044c0-2.4,1.937-3.741,4.313-3.741a8.16,8.16,0,0,1,4.4,1.364l-1.276,2.31a6.991,6.991,0,0,0-3.19-1.1c-.814,0-1.232.352-1.232.814v.044c0,.66,1.122.968,2.4,1.408,1.65.55,3.564,1.342,3.564,3.5v.044C111.527,22.032,109.569,23.22,107.017,23.22Z"/>
</symbol>

<symbol id="groups" class="symbol" viewBox="0 0 16 16">
  <title>groups</title><g id="90607ec4-c78d-420c-84df-7258739ac317" data-name="Layer 1"><path d="M13.179,9.137V6.824a3.332,3.332,0,1,0-3.942-3.91H6.763A3.33,3.33,0,1,0,2.945,6.838V9.154A3.326,3.326,0,1,0,6.769,13H9.232a3.329,3.329,0,1,0,3.947-3.863Zm-.713-7.568a1.962,1.962,0,1,1-1.961,1.962A1.962,1.962,0,0,1,12.466,1.569ZM1.505,3.531A1.962,1.962,0,1,1,3.466,5.493,1.962,1.962,0,0,1,1.505,3.531ZM3.466,14.365A1.964,1.964,0,1,1,5.431,12.4,1.964,1.964,0,0,1,3.466,14.365Zm5.769-2.6H6.754a3.33,3.33,0,0,0-2.575-2.6V6.822a3.336,3.336,0,0,0,2.6-2.674H9.225a3.328,3.328,0,0,0,2.72,2.689V9.125A3.33,3.33,0,0,0,9.235,11.767Zm3.231,2.6A1.964,1.964,0,1,1,14.431,12.4,1.964,1.964,0,0,1,12.466,14.365Z" fill-rule="evenodd"/></g>
</symbol>

<symbol id="heart-o" class="symbol" viewBox="0 0 16 16">
  <title>heart-o</title><g id="af088b1e-b28d-4d9d-a321-63e358c5069a" data-name="Layer 1"><path d="M8.012,14.812a.713.713,0,0,1-.507-.211L1.363,8.409A4.266,4.266,0,0,1,.136,5.194a4.22,4.22,0,0,1,1.55-3.083,4.051,4.051,0,0,1,2.574-.9A4.6,4.6,0,0,1,7.5,2.574l.514.518.514-.518a4.363,4.363,0,0,1,5.812-.463,4.227,4.227,0,0,1,1.551,3.083,4.281,4.281,0,0,1-1.227,3.215h0L8.52,14.6A.717.717,0,0,1,8.012,14.812ZM4.26,2.208a3,3,0,0,0-1.938.674,3.27,3.27,0,0,0-.248,4.823l5.939,5.987,5.938-5.987a3.274,3.274,0,0,0,.94-2.462A3.237,3.237,0,0,0,13.7,2.882a3.36,3.36,0,0,0-4.466.4L8.012,4.512,6.788,3.278A3.6,3.6,0,0,0,4.26,2.208Z"/></g>
</symbol>

<symbol id="info-outline" class="symbol" viewBox="0 0 16 16">
  <title>info-outline</title><g id="669ef5de-5297-46ff-a218-d6e5429b384d" data-name="Layer 1"><path d="M6.074,6.272H8.346a.654.654,0,0,1,.649.735l-.757,3.95a.527.527,0,0,0,.692.565l.6-.242a.223.223,0,0,1,.139.389,2.735,2.735,0,0,1-2.176.854c-1.854-.079-1.393-1.835-1.324-2.257s.451-2.512.471-2.689.206-.51-.314-.647-.687-.246-.687-.363S5.741,6.272,6.074,6.272Z"/><circle cx="8.209" cy="4.543" r="1.261"/><path d="M8,1.249A6.751,6.751,0,1,1,1.249,8,6.758,6.758,0,0,1,8,1.249M8,.119A7.881,7.881,0,1,0,15.881,8,7.882,7.882,0,0,0,8,.119Z"/></g>
</symbol>

<symbol id="interfaces-app" class="symbol" viewBox="0 0 32 32">
  <defs><style>.cls-1,.cls-2{fill:#333132;}.cls-1{fill-rule:evenodd;}</style></defs><title>interfaces-app</title><path class="cls-1" d="M26.973,2H5.027A3.027,3.027,0,0,0,2,5.027V26.973A3.027,3.027,0,0,0,5.027,30H26.973A3.027,3.027,0,0,0,30,26.973V5.027A3.027,3.027,0,0,0,26.973,2Zm0,24.216a.757.757,0,0,1-.757.757H5.784a.757.757,0,0,1-.757-.757V5.784a.757.757,0,0,1,.757-.757h4.541V6.544a.753.753,0,0,0,.753.753h9.845a.753.753,0,0,0,.753-.753V5.027h4.541a.757.757,0,0,1,.757.757Z"/><polygon class="cls-2" points="15.27 17.088 15.987 23.479 22 10 9.198 17.108 15.27 17.088"/>
</symbol>

<symbol id="interfaces-badge" class="symbol" viewBox="0 0 141 32">
  <defs><style>.cls-1,.cls-2{fill:#333132;}.cls-1{fill-rule:evenodd;}</style></defs><title>interfaces-badge</title><path class="cls-1" d="M26.973,2H5.027A3.027,3.027,0,0,0,2,5.027V26.973A3.027,3.027,0,0,0,5.027,30H26.973A3.027,3.027,0,0,0,30,26.973V5.027A3.027,3.027,0,0,0,26.973,2Zm0,24.216a.757.757,0,0,1-.757.757H5.784a.757.757,0,0,1-.757-.757V5.784a.757.757,0,0,1,.757-.757h4.541V6.544a.753.753,0,0,0,.753.753h9.845a.753.753,0,0,0,.753-.753V5.027h4.541a.757.757,0,0,1,.757.757Z"/><polygon class="cls-2" points="15.27 17.088 15.987 23.479 22 10 9.198 17.108 15.27 17.088"/><path class="cls-2" d="M37.053,23.479V8.077h3.388v15.4Z"/><path class="cls-2" d="M50.76,23.479V16.9c0-1.584-.748-2.4-2.024-2.4s-2.09.814-2.09,2.4v6.579H43.3V11.686h3.345v1.672A4.172,4.172,0,0,1,50.1,11.465c2.53,0,4,1.672,4,4.378v7.635Z"/><path class="cls-2" d="M60.352,23.677c-2.046,0-3.433-.814-3.433-3.542V14.546H55.511v-2.86h1.408V8.671h3.344v3.015h2.772v2.86H60.263v5.039c0,.77.33,1.144,1.078,1.144a3.4,3.4,0,0,0,1.65-.418V23A4.931,4.931,0,0,1,60.352,23.677Z"/><path class="cls-2" d="M75.485,18.749H67.278a2.735,2.735,0,0,0,2.882,2.31,3.865,3.865,0,0,0,2.86-1.21l1.915,1.694a6.23,6.23,0,0,1-10.979-3.9V17.6a5.872,5.872,0,0,1,5.831-6.139c3.938,0,5.743,3.059,5.743,6.4v.044C75.529,18.242,75.507,18.44,75.485,18.749Zm-5.7-4.6a2.629,2.629,0,0,0-2.552,2.509h5.039A2.529,2.529,0,0,0,69.786,14.149Z"/><path class="cls-2" d="M84.306,14.964c-2.222,0-3.586,1.342-3.586,4.159v4.356H77.375V11.686H80.72v2.376a3.643,3.643,0,0,1,3.762-2.6v3.5Z"/><path class="cls-2" d="M91.456,10.079c-.77,0-1.21.4-1.21,1.276v.462h2.707v2.729H90.29v8.933H86.946V14.546H85.559V11.8h1.386v-.748c0-2.6,1.3-3.785,3.652-3.785a7.4,7.4,0,0,1,2.376.33v2.772A4.23,4.23,0,0,0,91.456,10.079Z"/><path class="cls-2" d="M100.716,23.479V22.2a4.534,4.534,0,0,1-3.564,1.5c-2.223,0-4.049-1.276-4.049-3.609v-.044c0-2.574,1.958-3.762,4.753-3.762a8.378,8.378,0,0,1,2.882.484v-.2c0-1.386-.858-2.156-2.53-2.156a8.675,8.675,0,0,0-3.256.638L94.115,12.5a10.4,10.4,0,0,1,4.577-.946c3.652,0,5.259,1.892,5.259,5.083v6.843Zm.066-4.752a5.185,5.185,0,0,0-2.134-.44c-1.43,0-2.311.572-2.311,1.628v.044c0,.9.749,1.43,1.827,1.43,1.562,0,2.618-.858,2.618-2.068Z"/><path class="cls-2" d="M111.759,23.743a6.022,6.022,0,0,1-6.139-6.1V17.6a6.055,6.055,0,0,1,6.183-6.139,5.8,5.8,0,0,1,4.709,1.98l-2.046,2.2a3.444,3.444,0,0,0-2.685-1.3,3.013,3.013,0,0,0-2.86,3.212V17.6a3.022,3.022,0,0,0,2.992,3.257,3.736,3.736,0,0,0,2.707-1.254l1.958,1.98A5.94,5.94,0,0,1,111.759,23.743Z"/><path class="cls-2" d="M128.741,18.749h-8.207a2.735,2.735,0,0,0,2.882,2.31,3.865,3.865,0,0,0,2.86-1.21l1.915,1.694a6.23,6.23,0,0,1-10.979-3.9V17.6a5.872,5.872,0,0,1,5.831-6.139c3.938,0,5.743,3.059,5.743,6.4v.044C128.785,18.242,128.762,18.44,128.741,18.749Zm-5.7-4.6a2.629,2.629,0,0,0-2.552,2.509h5.039A2.529,2.529,0,0,0,123.042,14.149Z"/><path class="cls-2" d="M134.767,23.7a8.262,8.262,0,0,1-5.061-1.782l1.43-2.2a6.666,6.666,0,0,0,3.718,1.408c.968,0,1.408-.352,1.408-.88V20.2c0-.726-1.144-.968-2.442-1.364-1.65-.484-3.521-1.254-3.521-3.542V15.25c0-2.4,1.937-3.741,4.313-3.741a8.16,8.16,0,0,1,4.4,1.364l-1.276,2.31a6.991,6.991,0,0,0-3.19-1.1c-.814,0-1.232.352-1.232.814v.044c0,.66,1.122.968,2.4,1.408,1.65.55,3.564,1.342,3.564,3.5v.044C139.278,22.511,137.32,23.7,134.767,23.7Z"/>
</symbol>

<symbol id="list-outline" class="symbol" viewBox="0 0 16 16">
  <title>list-outline</title><g id="976c7488-7839-4def-a588-0ffff2802fb9" data-name="Layer 1"><path d="M13.962.872H2.038a.872.872,0,0,0-.852.891V14.237a.872.872,0,0,0,.852.891H13.962a.872.872,0,0,0,.852-.891V1.763A.872.872,0,0,0,13.962.872Zm-.851,12.474H2.889V2.654H13.111Z"/><g id="6121e7fa-7e05-41a5-a281-424c3ab0bf94" data-name="Your Icon"><path d="M11.188,5.71h-3.4a.577.577,0,0,1,0-1.153h3.4a.577.577,0,0,1,0,1.153Z"/><path d="M5.653,5.885H4.811a.564.564,0,0,1-.551-.576V4.931a.564.564,0,0,1,.551-.576h.842a.565.565,0,0,1,.552.576v.378A.565.565,0,0,1,5.653,5.885Z"/><path d="M11.188,8.577h-3.4a.578.578,0,0,1,0-1.154h3.4a.578.578,0,0,1,0,1.154Z"/><path d="M5.653,8.765H4.811a.564.564,0,0,1-.551-.576V7.812a.564.564,0,0,1,.551-.577h.842a.565.565,0,0,1,.552.577v.377A.565.565,0,0,1,5.653,8.765Z"/><path d="M11.188,11.457h-3.4a.578.578,0,0,1,0-1.154h3.4a.578.578,0,0,1,0,1.154Z"/><path d="M5.653,11.645H4.811a.564.564,0,0,1-.551-.577v-.376a.564.564,0,0,1,.551-.577h.842a.565.565,0,0,1,.552.577v.376A.565.565,0,0,1,5.653,11.645Z"/></g></g>
</symbol>

<symbol id="location-o" class="symbol" viewBox="0 0 16 16">
  <title>location-o</title><g id="a44af875-3f4f-4f65-9061-8d5460e3cd59" data-name="Layer 1"><path d="M8,4.75A3.25,3.25,0,1,0,11.25,8,3.254,3.254,0,0,0,8,4.75ZM8,6.438A1.562,1.562,0,1,1,6.438,8,1.564,1.564,0,0,1,8,6.438Z"/><path d="M14.9,7.25h-.7A6.255,6.255,0,0,0,8.752,1.8V1.1a.75.75,0,1,0-1.5,0v.7A6.255,6.255,0,0,0,1.8,7.25H1.1a.75.75,0,0,0,0,1.5h.7A6.255,6.255,0,0,0,7.252,14.2v.6a.75.75,0,1,0,1.5,0v-.6A6.255,6.255,0,0,0,14.2,8.75h.7a.75.75,0,0,0,0-1.5ZM8,12.656A4.656,4.656,0,1,1,12.656,8,4.662,4.662,0,0,1,8,12.656Z"/></g>
</symbol>

<symbol id="logout-o" class="symbol" viewBox="0 0 16 16">
  <title>logout-o</title><g id="7c949823-57de-4795-8b43-72232ccf66af" data-name="Layer 1"><polygon points="12.629 4.463 11.947 5.157 14.09 7.262 6.408 7.262 6.408 8.233 14.194 8.233 11.977 10.471 12.668 11.156 16.008 7.783 12.629 4.463"/><path d="M9.922,12.409l-.078.07-.046.035c-.05.036-.11.078-.177.123a6.081,6.081,0,0,1-.676.382,5.154,5.154,0,0,1-2.257.555A5.63,5.63,0,0,1,1,7.877,5.453,5.453,0,0,1,2.948,3.513a6.062,6.062,0,0,1,3.74-1.36A5.063,5.063,0,0,1,8.9,2.724a6.9,6.9,0,0,1,.7.4c.073.047.136.09.19.129a.648.648,0,0,1,.057.042l.08.061.595-.768-.08-.062c-.059-.045-.165-.121-.311-.217h0a7.881,7.881,0,0,0-.806-.456A6.029,6.029,0,0,0,6.688,1.18,7.056,7.056,0,0,0,2.33,2.764a6.392,6.392,0,0,0-2.3,5.113,6.59,6.59,0,0,0,6.654,6.668,6.116,6.116,0,0,0,2.682-.652,7.111,7.111,0,0,0,.786-.445c.121-.081.232-.16.3-.216l.078-.063-.546-.679Z"/></g>
</symbol>

<symbol id="music-stand-app" class="symbol" viewBox="0 0 32 32">
  <defs><style>.cls-1,.cls-2{fill:#333132;}.cls-1{fill-rule:evenodd;}</style></defs><title>music-stand-app</title><path class="cls-1" d="M26.973,2H5.027A3.027,3.027,0,0,0,2,5.027V26.973A3.027,3.027,0,0,0,5.027,30H26.973A3.027,3.027,0,0,0,30,26.973V5.027A3.027,3.027,0,0,0,26.973,2Zm0,24.216a.757.757,0,0,1-.757.757H5.784a.757.757,0,0,1-.757-.757V5.784a.757.757,0,0,1,.757-.757h4.541V6.544a.753.753,0,0,0,.753.753h9.845a.753.753,0,0,0,.753-.753V5.027h4.541a.757.757,0,0,1,.757.757Z"/><path class="cls-2" d="M12.01,12.957c0,1.893,0,6.659,0,6.659a2.822,2.822,0,0,0-1.125-.186,2.648,2.648,0,0,0-.9.163,3.124,3.124,0,0,0-.818.429,2.14,2.14,0,0,0-.606.61,1.639,1.639,0,0,0-.258.8,1.325,1.325,0,0,0,.1.507,1.348,1.348,0,0,0,.214.373,1.62,1.62,0,0,0,.711.518,3.293,3.293,0,0,0,1,.152,4.469,4.469,0,0,0,1.7-.354,4.486,4.486,0,0,0,1.509-.965,1.735,1.735,0,0,0,.409-.774A6.95,6.95,0,0,0,14,19.87l0-5.022,6.266-1.779v4.813a2.158,2.158,0,0,0-.968-.23,2.708,2.708,0,0,0-.9.165,3.087,3.087,0,0,0-.817.429,2.2,2.2,0,0,0-.584.651,1.588,1.588,0,0,0-.223.8,1.444,1.444,0,0,0,.311.88,1.611,1.611,0,0,0,.709.518,2.954,2.954,0,0,0,.949.152A4.227,4.227,0,0,0,20.4,20.9a3.547,3.547,0,0,0,1.283-.965,1.957,1.957,0,0,0,.5-.776,7.208,7.208,0,0,0,.083-1.063s-.005-5.625-.005-7.7c0-.557-.306-.7-.72-.592-1.651.443-7.231,1.84-8.9,2.367A.764.764,0,0,0,12.01,12.957Z"/>
</symbol>

<symbol id="music-stand-badge" class="symbol" viewBox="0 0 160 32">
  <defs><style>.cls-1,.cls-2{fill:#333132;}.cls-1{fill-rule:evenodd;}</style></defs><title>music-stand-badge</title><path class="cls-1" d="M26.973,2H5.027A3.027,3.027,0,0,0,2,5.027V26.973A3.027,3.027,0,0,0,5.027,30H26.973A3.027,3.027,0,0,0,30,26.973V5.027A3.027,3.027,0,0,0,26.973,2Zm0,24.216a.757.757,0,0,1-.757.757H5.784a.757.757,0,0,1-.757-.757V5.784a.757.757,0,0,1,.757-.757h4.541V6.544a.753.753,0,0,0,.753.753h9.845a.753.753,0,0,0,.753-.753V5.027h4.541a.757.757,0,0,1,.757.757Z"/><path class="cls-2" d="M12.01,12.957c0,1.893,0,6.659,0,6.659a2.822,2.822,0,0,0-1.125-.186,2.648,2.648,0,0,0-.9.163,3.124,3.124,0,0,0-.818.429,2.14,2.14,0,0,0-.606.61,1.639,1.639,0,0,0-.258.8,1.325,1.325,0,0,0,.1.507,1.348,1.348,0,0,0,.214.373,1.62,1.62,0,0,0,.711.518,3.293,3.293,0,0,0,1,.152,4.469,4.469,0,0,0,1.7-.354,4.486,4.486,0,0,0,1.509-.965,1.735,1.735,0,0,0,.409-.774A6.95,6.95,0,0,0,14,19.87l0-5.022,6.266-1.779v4.813a2.158,2.158,0,0,0-.968-.23,2.708,2.708,0,0,0-.9.165,3.087,3.087,0,0,0-.817.429,2.2,2.2,0,0,0-.584.651,1.588,1.588,0,0,0-.223.8,1.444,1.444,0,0,0,.311.88,1.611,1.611,0,0,0,.709.518,2.954,2.954,0,0,0,.949.152A4.227,4.227,0,0,0,20.4,20.9a3.547,3.547,0,0,0,1.283-.965,1.957,1.957,0,0,0,.5-.776,7.208,7.208,0,0,0,.083-1.063s-.005-5.625-.005-7.7c0-.557-.306-.7-.72-.592-1.651.443-7.231,1.84-8.9,2.367A.764.764,0,0,0,12.01,12.957Z"/><path class="cls-2" d="M48.935,22.983V12.928L44.6,19.507h-.088l-4.291-6.513v9.989H36.9V7.581h3.653L44.6,14.095l4.049-6.514H52.3v15.4Z"/><path class="cls-2" d="M62.376,22.983V21.312A4.172,4.172,0,0,1,58.922,23.2c-2.53,0-4-1.673-4-4.379V11.19h3.344v6.578c0,1.585.749,2.4,2.024,2.4s2.09-.813,2.09-2.4V11.19h3.345V22.983Z"/><path class="cls-2" d="M72.209,23.2a8.265,8.265,0,0,1-5.061-1.782l1.43-2.2A6.662,6.662,0,0,0,72.3,20.629c.968,0,1.408-.352,1.408-.88v-.044c0-.726-1.144-.968-2.442-1.364-1.65-.484-3.521-1.254-3.521-3.542v-.044c0-2.4,1.937-3.741,4.313-3.741a8.16,8.16,0,0,1,4.4,1.364l-1.276,2.311a6.992,6.992,0,0,0-3.19-1.1c-.814,0-1.232.353-1.232.814v.044c0,.66,1.122.969,2.4,1.408,1.65.55,3.564,1.343,3.564,3.5V19.4C76.72,22.016,74.762,23.2,72.209,23.2Z"/><path class="cls-2" d="M78.545,9.892V6.921h3.521V9.892Zm.088,13.092V11.19h3.344V22.983Z"/><path class="cls-2" d="M90.052,23.248a6.022,6.022,0,0,1-6.139-6.1v-.044A6.055,6.055,0,0,1,90.1,10.97,5.8,5.8,0,0,1,94.8,12.95l-2.046,2.2a3.446,3.446,0,0,0-2.685-1.3,3.013,3.013,0,0,0-2.86,3.212v.044a3.022,3.022,0,0,0,2.993,3.257,3.737,3.737,0,0,0,2.706-1.254l1.958,1.98A5.94,5.94,0,0,1,90.052,23.248Z"/><path class="cls-2" d="M105.561,23.2a9.8,9.8,0,0,1-6.535-2.465l2-2.4a7.064,7.064,0,0,0,4.6,1.87c1.386,0,2.222-.55,2.222-1.452v-.044c0-.858-.528-1.3-3.1-1.958-3.1-.792-5.1-1.65-5.1-4.709V12c0-2.794,2.244-4.643,5.391-4.643a8.918,8.918,0,0,1,5.721,1.958l-1.76,2.553a7.227,7.227,0,0,0-4-1.519c-1.3,0-1.98.595-1.98,1.343v.044c0,1.012.66,1.342,3.322,2.024,3.125.813,4.885,1.936,4.885,4.62v.044C111.216,21.487,108.884,23.2,105.561,23.2Z"/><path class="cls-2" d="M116.605,23.182c-2.046,0-3.433-.814-3.433-3.542V14.051h-1.408V11.19h1.408V8.176h3.344V11.19h2.772v2.86h-2.772v5.038c0,.771.33,1.145,1.078,1.145a3.405,3.405,0,0,0,1.65-.418V22.5A4.931,4.931,0,0,1,116.605,23.182Z"/><path class="cls-2" d="M128.023,22.983V21.707a4.534,4.534,0,0,1-3.564,1.5c-2.223,0-4.049-1.276-4.049-3.609v-.044c0-2.574,1.958-3.762,4.753-3.762a8.379,8.379,0,0,1,2.882.483v-.2c0-1.386-.858-2.156-2.53-2.156a8.666,8.666,0,0,0-3.256.639L121.422,12A10.4,10.4,0,0,1,126,11.058c3.652,0,5.259,1.893,5.259,5.083v6.843Zm.066-4.752a5.177,5.177,0,0,0-2.134-.44c-1.43,0-2.311.572-2.311,1.628v.044c0,.9.749,1.431,1.827,1.431,1.562,0,2.618-.858,2.618-2.068Z"/><path class="cls-2" d="M140.959,22.983V16.4c0-1.584-.748-2.4-2.024-2.4s-2.09.813-2.09,2.4v6.579H133.5V11.19h3.345v1.672A4.172,4.172,0,0,1,140.3,10.97c2.53,0,4,1.673,4,4.379v7.635Z"/><path class="cls-2" d="M155.083,22.983V21.289a4.332,4.332,0,0,1-3.675,1.915c-2.75,0-5.369-2.156-5.369-6.1v-.044c0-3.938,2.575-6.095,5.369-6.095a4.529,4.529,0,0,1,3.675,1.761V6.921h3.344V22.983Zm.044-5.919a2.894,2.894,0,1,0-5.743,0v.044a2.894,2.894,0,1,0,5.743,0Z"/>
</symbol>

<symbol id="overview" class="symbol" viewBox="0 0 16 16">
  <title>overview</title><g id="4e5b1b4a-662f-4d3c-be69-286f32981273" data-name="Layer 1"><path d="M8,.631A7.875,7.875,0,0,0,.14,8.491a7.629,7.629,0,0,0,4.068,6.785l.169.093h7.246l.169-.093A7.627,7.627,0,0,0,15.86,8.491,7.875,7.875,0,0,0,8,.631ZM8,2.105a6.381,6.381,0,0,1,6.386,6.386,6.112,6.112,0,0,1-3.178,5.4H4.791a6.113,6.113,0,0,1-3.177-5.4A6.381,6.381,0,0,1,8,2.105ZM8,3.579a4.868,4.868,0,0,0-2.38.629c.169.107.315.194.492.307A4.337,4.337,0,0,1,8,4.07a4.437,4.437,0,0,1,3.116,1.3l.031.031a4.371,4.371,0,0,1-.03,6.2.25.25,0,0,0,.353.354A4.913,4.913,0,0,0,8,3.578ZM3.579,4.07s3.147,5,3.638,5.5a1.354,1.354,0,0,0,1.857,0,1.308,1.308,0,0,0,0-1.858c-.491-.491-5.5-3.638-5.5-3.638ZM3.733,6.1a4.855,4.855,0,0,0-.645,2.395,4.933,4.933,0,0,0,1.443,3.47.25.25,0,0,0,.353-.354A4.437,4.437,0,0,1,3.579,8.491a4.378,4.378,0,0,1,.445-1.919C3.916,6.4,3.836,6.259,3.733,6.1Z"/></g>
</symbol>

<symbol id="pencil-underline" class="symbol" viewBox="0 0 16 16">
  <title>pencil-underline</title><g id="3b428cf1-5976-4c8d-8dd7-8cb88a0031d7" data-name="Layer 1"><path d="M15.16,14.369H5.063L12.551,4.053a.841.841,0,0,0-.171-1.162L9.418.663A.8.8,0,0,0,8.811.507a.81.81,0,0,0-.536.328L.734,11.225.721,14.691a.82.82,0,0,0,.324.658.772.772,0,0,0,.288.129.541.541,0,0,0,.151.031H15.16a.57.57,0,0,0,0-1.14ZM1.852,11.6l7.143-9.84,2.476,1.863L4.327,13.466l-2.485.787Z"/></g>
</symbol>

<symbol id="pencil" class="symbol" viewBox="0 0 16 16">
  <title>pencil</title><g id="15af8115-50d3-40be-bd32-5a9da519b3cd" data-name="Layer 1"><path d="M15.362,3.453,12.575.677a1.543,1.543,0,0,0-2.125,0L.981,10.108A1.715,1.715,0,0,0,.464,11.3L.2,14.588a1.073,1.073,0,0,0,1.072,1.159q.041,0,.078,0l3.3-.238A1.787,1.787,0,0,0,5.9,14.989l9.458-9.42a1.488,1.488,0,0,0,0-2.116ZM2.584,10.486l5.79-5.767L11.3,7.635,5.512,13.4Zm-.749,1.23,2.427,2.418-2.634.19ZM14.37,4.581,12.3,6.647,9.366,3.731l2.075-2.067a.1.1,0,0,1,.071-.025.1.1,0,0,1,.07.025L14.37,4.44Z"/></g>
</symbol>

<symbol id="people-app" class="symbol" viewBox="0 0 32 32">
  <defs><style>.cls-1,.cls-2{fill:#333132;}.cls-2{fill-rule:evenodd;}</style></defs><title>people-app</title><circle class="cls-1" cx="19.861" cy="14.609" r="2.145"/><circle class="cls-1" cx="13.289" cy="13.613" r="2.86"/><path class="cls-2" d="M26.973,2H5.027A3.027,3.027,0,0,0,2,5.027V26.973A3.027,3.027,0,0,0,5.027,30H26.973A3.027,3.027,0,0,0,30,26.973V5.027A3.027,3.027,0,0,0,26.973,2Zm0,24.216a.757.757,0,0,1-.757.757H5.784a.757.757,0,0,1-.757-.757V5.784a.757.757,0,0,1,.757-.757h4.541V6.544a.753.753,0,0,0,.753.753h9.845a.753.753,0,0,0,.753-.753V5.027h4.541a.757.757,0,0,1,.757.757Z"/><path class="cls-2" d="M15.372,17.892H11.331a2.52,2.52,0,0,0-2.52,2.52v2.021h9.081V20.412A2.52,2.52,0,0,0,15.372,17.892Z"/><path class="cls-2" d="M21.509,17.892H18.815a1.664,1.664,0,0,0-1.01.346,3.251,3.251,0,0,1,.844,2.174v.507h4.541V19.572A1.68,1.68,0,0,0,21.509,17.892Z"/>
</symbol>

<symbol id="people-badge" class="symbol" viewBox="0 0 110 32">
  <defs><style>.cls-1,.cls-2{fill:#333132;}.cls-2{fill-rule:evenodd;}</style></defs><title>people-badge</title><circle class="cls-1" cx="19.861" cy="14.609" r="2.145"/><circle class="cls-1" cx="13.289" cy="13.613" r="2.86"/><path class="cls-2" d="M26.973,2H5.027A3.027,3.027,0,0,0,2,5.027V26.973A3.027,3.027,0,0,0,5.027,30H26.973A3.027,3.027,0,0,0,30,26.973V5.027A3.027,3.027,0,0,0,26.973,2Zm0,24.216a.757.757,0,0,1-.757.757H5.784a.757.757,0,0,1-.757-.757V5.784a.757.757,0,0,1,.757-.757h4.541V6.544a.753.753,0,0,0,.753.753h9.845a.753.753,0,0,0,.753-.753V5.027h4.541a.757.757,0,0,1,.757.757Z"/><path class="cls-2" d="M15.372,17.892H11.331a2.52,2.52,0,0,0-2.52,2.52v2.021h9.081V20.412A2.52,2.52,0,0,0,15.372,17.892Z"/><path class="cls-2" d="M21.509,17.892H18.815a1.664,1.664,0,0,0-1.01.346,3.251,3.251,0,0,1,.844,2.174v.507h4.541V19.572A1.68,1.68,0,0,0,21.509,17.892Z"/><path class="cls-1" d="M42.812,18.379H40.237V23H36.849V7.6h6.293c3.675,0,5.9,2.178,5.9,5.325v.044C49.038,16.531,46.266,18.379,42.812,18.379Zm2.794-5.391c0-1.519-1.056-2.333-2.75-2.333H40.237v4.708h2.684a2.385,2.385,0,0,0,2.685-2.332Z"/><path class="cls-1" d="M61.378,18.27H53.171a2.735,2.735,0,0,0,2.882,2.31,3.865,3.865,0,0,0,2.86-1.21l1.915,1.694a6.23,6.23,0,0,1-10.979-3.9v-.044a5.871,5.871,0,0,1,5.83-6.139c3.938,0,5.743,3.059,5.743,6.4v.044C61.422,17.763,61.4,17.961,61.378,18.27Zm-5.7-4.6a2.629,2.629,0,0,0-2.552,2.509h5.038A2.529,2.529,0,0,0,55.679,13.67Z"/><path class="cls-1" d="M68.907,23.264a6.13,6.13,0,0,1-6.358-6.1v-.044a6.387,6.387,0,0,1,12.762-.044v.044A6.19,6.19,0,0,1,68.907,23.264Zm3.1-6.139a3.133,3.133,0,0,0-3.1-3.256,3.022,3.022,0,0,0-3.059,3.212v.044a3.134,3.134,0,0,0,3.1,3.257,3.022,3.022,0,0,0,3.059-3.213Z"/><path class="cls-1" d="M84.1,23.22a4.53,4.53,0,0,1-3.675-1.76v5.061H77.079V11.207h3.345V12.9A4.332,4.332,0,0,1,84.1,10.986c2.75,0,5.368,2.156,5.368,6.095v.044C89.467,21.064,86.893,23.22,84.1,23.22Zm2.024-6.139a2.894,2.894,0,1,0-5.743,0v.044a2.894,2.894,0,1,0,5.743,0Z"/><path class="cls-1" d="M91.435,23V6.938h3.344V23Z"/><path class="cls-1" d="M108.184,18.27H99.977a2.736,2.736,0,0,0,2.883,2.31,3.865,3.865,0,0,0,2.86-1.21l1.914,1.694a6.23,6.23,0,0,1-10.979-3.9v-.044a5.872,5.872,0,0,1,5.831-6.139c3.938,0,5.742,3.059,5.742,6.4v.044C108.228,17.763,108.206,17.961,108.184,18.27Zm-5.7-4.6a2.629,2.629,0,0,0-2.553,2.509h5.039A2.53,2.53,0,0,0,102.485,13.67Z"/>
</symbol>

<symbol id="people-outline" class="symbol" viewBox="0 0 16 16">
  <title>people-outline</title><g id="dfd745c9-3261-4f1e-8726-73660f7c4caa" data-name="Layer 1"><path d="M15.8,9.649a3.6,3.6,0,0,0-2.025-1.618c.019-.05.037-.1.053-.155a2.289,2.289,0,0,0,.463-1.335l0-.112a2.237,2.237,0,0,0-.08-.6c.014-.115.027-.236.035-.348a2.991,2.991,0,0,0-.768-2.2,2.94,2.94,0,0,0-2.243-.928,2.929,2.929,0,0,0-2.161.853,3.367,3.367,0,0,0-.738-1.3A3.407,3.407,0,0,0,5.734.84a3.406,3.406,0,0,0-2.6,1.068A3.494,3.494,0,0,0,2.247,4.44c.014.178.036.372.059.546a2.419,2.419,0,0,0-.116.759l0,.1A2.5,2.5,0,0,0,2.76,7.417a3.3,3.3,0,0,0,.185.512c-.221.114-.559.266-1.022.459A2.671,2.671,0,0,0,0,10.773v2.368A2.021,2.021,0,0,0,2.019,15.16h8.032a2.01,2.01,0,0,0,1.592-.793h2.339A2.018,2.018,0,0,0,16,12.269c-.005-.123.009-.407.021-.659A3.312,3.312,0,0,0,15.8,9.649ZM1.633,13.141V10.773c0-.561.647-.794,1.008-.945,1.182-.495,2.147-.912,2.147-1.8,0-.536-.361-.361-.519-1.342-.066-.408-.385-.007-.446-.936,0-.371.173-.463.173-.463s-.088-.548-.122-.97A1.774,1.774,0,0,1,5.78,2.427,1.774,1.774,0,0,1,7.687,4.311c-.035.422-.123.97-.123.97s.174.092.174.463c-.061.93-.38.529-.446.937-.158.981-.519.806-.519,1.342a1.861,1.861,0,0,0,.1.6l-.013,0a1.263,1.263,0,0,0,.059.116A1.234,1.234,0,0,0,7,8.919a1.369,1.369,0,0,0,.143.175,1.553,1.553,0,0,0,.133.137,2.357,2.357,0,0,0,.234.17c.04.026.068.055.113.081l0,0,0,0a5.48,5.48,0,0,0,.705.354c1.187.5,2.2.978,2.2,1.491v1.822a.432.432,0,0,1-.432.432H2.065A.432.432,0,0,1,1.633,13.141Zm12.827-.809a.431.431,0,0,1-.431.448H11.615V11.319c0-.974-.858-1.575-1.853-2.052.172-.222.786-.551.778-1.129-.006-.4-.272-.271-.39-1.007-.05-.305-.289,0-.335-.7,0-.278.13-.347.13-.347s-.066-.41-.092-.727a1.331,1.331,0,0,1,1.43-1.413,1.331,1.331,0,0,1,1.43,1.413c-.026.316-.092.727-.092.727s.131.069.131.347c-.046.7-.285.4-.335.7-.119.736-.39.6-.39,1.007,0,.669.284.983,1.171,1.353s1.071.613,1.277.962A17.173,17.173,0,0,1,14.46,12.332Z"/></g>
</symbol>

<symbol id="person-check-o" class="symbol" viewBox="0 0 16 16">
  <title>person-check-o</title><g id="af16013a-d222-44d6-99de-b207642a44c0" data-name="Layer 1"><path d="M11.749,14.605l-.519-.445L9.859,12.788a.657.657,0,1,1,.929-.93l.925.925,2.446-2.447a.657.657,0,1,1,.93.929Z"/><path d="M6.714,7.936a3.914,3.914,0,1,1,3.914-3.913A3.918,3.918,0,0,1,6.714,7.936Zm0-6.512a2.6,2.6,0,1,0,2.6,2.6A2.6,2.6,0,0,0,6.714,1.424Z"/><path d="M8.634,15.891H2.88A2.064,2.064,0,0,1,.818,13.829V10.657A2.484,2.484,0,0,1,2.412,8.346l4.3-1.633L11.152,8.4a.657.657,0,1,1-.466,1.229L6.714,8.119,2.879,9.575a1.166,1.166,0,0,0-.747,1.082v3.172a.749.749,0,0,0,.748.747H8.634a.658.658,0,1,1,0,1.315Z"/></g>
</symbol>

<symbol id="person-outline" class="symbol" viewBox="0 0 16 16">
  <title>person-outline</title><g id="f19abd7e-de01-4948-8753-d234517a9140" data-name="Layer 1"><path d="M11.65,15.837h-7a2.675,2.675,0,0,1-2.626-2.715v-.9a.907.907,0,0,1,.489-.812l2.743-1.4-.5-.987a.942.942,0,0,1-.1-.424V4.978a3.566,3.566,0,0,1,3.5-3.62,3.566,3.566,0,0,1,3.5,3.62V8.6a.93.93,0,0,1-.1.424l-.505.987,2.744,1.4a.908.908,0,0,1,.488.812v.9A2.674,2.674,0,0,1,11.65,15.837ZM3.773,12.78v.342a.892.892,0,0,0,.876.9h7a.892.892,0,0,0,.875-.9V12.78L9.461,11.218a.892.892,0,0,1-.445-.533.93.93,0,0,1,.059-.7L9.9,8.371V4.978a1.751,1.751,0,1,0-3.5,0V8.371l.825,1.612a.934.934,0,0,1,.058.7.892.892,0,0,1-.445.533Z"/></g>
</symbol>

<symbol id="phone-thick-o" class="symbol" viewBox="0 0 16 16">
  <title>phone-thick-o</title><g id="7eb02722-ce90-4e3a-b8d1-3128cf2a6800" data-name="Layer 1"><path d="M13.007.009H2.993a1,1,0,0,0-1,1V14.991a1,1,0,0,0,1,1H13.007a1,1,0,0,0,1-1V1.009A1,1,0,0,0,13.007.009Zm-1,13.982H3.993V2.009h8.014Z"/><path d="M8,12.883a.989.989,0,1,0-.989-.989A.989.989,0,0,0,8,12.883Z"/></g>
</symbol>

<symbol id="pie-chart-o" class="symbol" viewBox="0 0 16 16">
  <title>pie-chart-o</title><g id="d034f59b-c891-4df7-adb2-26a13e783ad9" data-name="Layer 1"><path d="M8,0a8,8,0,1,0,8,8A8,8,0,0,0,8,0Zm6.215,4.792L8.5,7.242V1.025A7,7,0,0,1,14.215,4.792ZM1,8A7.005,7.005,0,0,1,7.5,1.025V8.642l-.009.006.009.013v.1l.054-.023,3.891,5.351A6.989,6.989,0,0,1,1,8Zm11.276,5.53L8.5,8.331l6.112-2.619a6.949,6.949,0,0,1-2.332,7.818Z"/></g>
</symbol>

<symbol id="profile-o" class="symbol" viewBox="0 0 16 16">
  <title>profile-o</title><g id="3570395b-3346-4698-9a70-cdbcb0084b93" data-name="Layer 1"><path d="M7.944.13a7.9,7.9,0,1,0,7.9,7.9A7.908,7.908,0,0,0,7.944.13ZM3.8,13.569a10.161,10.161,0,0,1,.655-.837,3.823,3.823,0,0,1,1.926-.474A1.127,1.127,0,0,0,7.5,11.14v-.6c0-.517-.469-.787-.883-1.026a3.356,3.356,0,0,1-.514-.5l-.11-.12a1.315,1.315,0,0,1-.331-.623,11.729,11.729,0,0,1-.255-2.4A1.823,1.823,0,0,1,5.95,4.528a2.945,2.945,0,0,1,1.966-.8,2.944,2.944,0,0,1,1.965.8,1.828,1.828,0,0,1,.547,1.345,11.77,11.77,0,0,1-.256,2.4,1.316,1.316,0,0,1-.331.622l-.13.143a3.187,3.187,0,0,1-.486.475c-.436.251-.882.575-.882,1.075v.6a1.1,1.1,0,0,0,1.111,1.07,3.8,3.8,0,0,1,1.919.474,10.531,10.531,0,0,1,.675.865A6.876,6.876,0,0,1,3.8,13.569Zm8.99-.6a10.991,10.991,0,0,0-.7-.889c-.662-.73-2.533-.79-2.613-.792-.053,0-.153,0-.166-.1L9.3,10.655a1.216,1.216,0,0,1,.409-.3,3.382,3.382,0,0,0,.722-.665l.123-.135a2.3,2.3,0,0,0,.567-1.075,12.689,12.689,0,0,0,.278-2.6,2.8,2.8,0,0,0-.828-2.037A3.911,3.911,0,0,0,7.916,2.76,3.911,3.911,0,0,0,5.261,3.844a2.8,2.8,0,0,0-.829,2.037,12.726,12.726,0,0,0,.278,2.6,2.326,2.326,0,0,0,.566,1.074l.106.116a3.587,3.587,0,0,0,.747.685,3.365,3.365,0,0,1,.4.255v.52a.154.154,0,0,1-.168.159c-.079,0-1.958.062-2.62.792-.228.252-.482.589-.677.858a6.928,6.928,0,1,1,9.732.031Z"/></g>
</symbol>

<symbol id="profile-thick-o" class="symbol" viewBox="0 0 16 16">
  <title>profile-thick-o</title><g id="4cbbf58e-cf54-4ecc-a06c-eb514ff4328c" data-name="Layer 1"><path d="M10.888,7.86a4.559,4.559,0,1,0-6.355.078A7.81,7.81,0,0,0,.2,14.932a.975.975,0,0,0,.975.974H14.407a.975.975,0,0,0,.975-.974A7.8,7.8,0,0,0,10.888,7.86ZM7.665,2.043a2.6,2.6,0,1,1-2.605,2.6A2.607,2.607,0,0,1,7.665,2.043ZM2.231,13.957A5.615,5.615,0,0,1,7.456,9.206h.667a5.615,5.615,0,0,1,5.225,4.751Z"/></g>
</symbol>

<symbol id="projector-app" class="symbol" viewBox="0 0 32 32">
  <defs><style>.cls-1,.cls-2{fill:#333132;}.cls-1{fill-rule:evenodd;}</style></defs><title>projector-app</title><path class="cls-1" d="M26.973,2H5.027A3.027,3.027,0,0,0,2,5.027V26.973A3.027,3.027,0,0,0,5.027,30H26.973A3.027,3.027,0,0,0,30,26.973V5.027A3.027,3.027,0,0,0,26.973,2Zm0,24.216a.757.757,0,0,1-.757.757H5.784a.757.757,0,0,1-.757-.757V5.784a.757.757,0,0,1,.757-.757h4.541V6.544a.753.753,0,0,0,.753.753h9.845a.753.753,0,0,0,.753-.753V5.027h4.541a.757.757,0,0,1,.757.757Z"/><path class="cls-2" d="M18.48,16.611c-.209.151-2.954,2.522-3.2,2.683-.18.12-.416-.014-.416-.287V13.645c0-.251.212-.436.424-.29.17.117,2.9,2.474,3.189,2.676A.371.371,0,0,1,18.48,16.611Zm-2.45-6.664a6.528,6.528,0,1,0,6.611,6.53A6.57,6.57,0,0,0,16.029,9.947Z"/>
</symbol>

<symbol id="projector-badge" class="symbol" viewBox="0 0 135 32">
  <defs><style>.cls-1,.cls-2{fill:#333132;}.cls-1{fill-rule:evenodd;}</style></defs><title>projector-badge</title><path class="cls-1" d="M26.973,2H5.027A3.027,3.027,0,0,0,2,5.027V26.973A3.027,3.027,0,0,0,5.027,30H26.973A3.027,3.027,0,0,0,30,26.973V5.027A3.027,3.027,0,0,0,26.973,2Zm0,24.216a.757.757,0,0,1-.757.757H5.784a.757.757,0,0,1-.757-.757V5.784a.757.757,0,0,1,.757-.757h4.541V6.544a.753.753,0,0,0,.753.753h9.845a.753.753,0,0,0,.753-.753V5.027h4.541a.757.757,0,0,1,.757.757Z"/><path class="cls-2" d="M18.48,16.611c-.209.151-2.954,2.522-3.2,2.683-.18.12-.416-.014-.416-.287V13.645c0-.251.212-.436.424-.29.17.117,2.9,2.474,3.189,2.676A.371.371,0,0,1,18.48,16.611Zm-2.45-6.664a6.528,6.528,0,1,0,6.611,6.53A6.57,6.57,0,0,0,16.029,9.947Z"/><path class="cls-2" d="M42.862,18.433H40.288v4.621H36.9V7.651h6.293c3.675,0,5.9,2.178,5.9,5.324v.044C49.089,16.585,46.317,18.433,42.862,18.433Zm2.794-5.391c0-1.519-1.056-2.332-2.75-2.332H40.288v4.708h2.685a2.385,2.385,0,0,0,2.684-2.332Z"/><path class="cls-2" d="M57.536,14.538c-2.222,0-3.586,1.343-3.586,4.159v4.356H50.605V11.26H53.95v2.376a3.642,3.642,0,0,1,3.762-2.6v3.5Z"/><path class="cls-2" d="M64.617,23.317a6.129,6.129,0,0,1-6.359-6.095v-.044a6.387,6.387,0,0,1,12.762-.044v.044A6.19,6.19,0,0,1,64.617,23.317Zm3.1-6.139a3.134,3.134,0,0,0-3.1-3.257,3.022,3.022,0,0,0-3.059,3.213v.044a3.134,3.134,0,0,0,3.1,3.257,3.022,3.022,0,0,0,3.059-3.213Z"/><path class="cls-2" d="M72.513,26.64a6.97,6.97,0,0,1-1.452-.132V23.89a4.008,4.008,0,0,0,.7.066c.7,0,1.188-.375,1.188-1.364V11.26H76.3v11.6C76.3,25.452,74.978,26.64,72.513,26.64Zm.352-16.678V6.991h3.521V9.962Z"/><path class="cls-2" d="M89.763,18.323H81.556a2.735,2.735,0,0,0,2.882,2.31,3.863,3.863,0,0,0,2.86-1.21l1.915,1.694a6.23,6.23,0,0,1-10.979-3.895v-.044a5.872,5.872,0,0,1,5.831-6.139c3.938,0,5.743,3.059,5.743,6.4v.044C89.807,17.816,89.785,18.015,89.763,18.323Zm-5.7-4.6a2.629,2.629,0,0,0-2.552,2.509h5.039A2.53,2.53,0,0,0,84.064,13.724Z"/><path class="cls-2" d="M97.22,23.317a6.022,6.022,0,0,1-6.139-6.095v-.044a6.055,6.055,0,0,1,6.183-6.139,5.8,5.8,0,0,1,4.709,1.979l-2.046,2.2a3.443,3.443,0,0,0-2.685-1.3,3.014,3.014,0,0,0-2.86,3.213v.044a3.022,3.022,0,0,0,2.992,3.257,3.734,3.734,0,0,0,2.707-1.255l1.958,1.98A5.94,5.94,0,0,1,97.22,23.317Z"/><path class="cls-2" d="M107.56,23.252c-2.046,0-3.433-.814-3.433-3.543V14.12H102.72V11.26h1.408V8.245h3.344V11.26h2.772v2.86h-2.772v5.039c0,.77.33,1.144,1.078,1.144a3.394,3.394,0,0,0,1.65-.418v2.685A4.931,4.931,0,0,1,107.56,23.252Z"/><path class="cls-2" d="M117.523,23.317a6.129,6.129,0,0,1-6.359-6.095v-.044a6.387,6.387,0,0,1,12.762-.044v.044A6.19,6.19,0,0,1,117.523,23.317Zm3.1-6.139a3.134,3.134,0,0,0-3.1-3.257,3.022,3.022,0,0,0-3.059,3.213v.044a3.134,3.134,0,0,0,3.1,3.257,3.022,3.022,0,0,0,3.059-3.213Z"/><path class="cls-2" d="M132.637,14.538c-2.222,0-3.586,1.343-3.586,4.159v4.356h-3.345V11.26h3.345v2.376a3.642,3.642,0,0,1,3.762-2.6v3.5Z"/>
</symbol>

<symbol id="promote" class="symbol" viewBox="0 0 16 16">
  <title>promote</title><g id="9525cc1e-d7d7-47dc-ad77-3bfd26586b53" data-name="Layer 1"><path d="M12.4,9.948,10.322,6.1A3.41,3.41,0,1,0,5.4,5.8L3.173,9.991a2.9,2.9,0,1,0,1.555.175L6.569,6.7a3.216,3.216,0,0,0,2.411.165l1.893,3.509A2.906,2.906,0,1,0,12.4,9.948ZM5.373,12.865a1.752,1.752,0,1,1-1.751-1.751A1.751,1.751,0,0,1,5.373,12.865Zm7.005,1.763a1.764,1.764,0,1,1,1.764-1.763A1.763,1.763,0,0,1,12.378,14.628Z" fill-rule="evenodd"/></g>
</symbol>

<symbol id="question-outline" class="symbol" viewBox="0 0 16 16">
  <title>question-outline</title><g id="03b2d71f-33e6-45c1-a5e2-d5bd9f6023b9" data-name="Layer 1"><path d="M8,1.146A6.854,6.854,0,1,1,1.146,8,6.862,6.862,0,0,1,8,1.146M8,0a8,8,0,1,0,8,8A8,8,0,0,0,8,0Z"/><path d="M7.977,13.433a1.167,1.167,0,0,1-1.122-1.085.187.187,0,0,1,0-.055.2.2,0,0,1,0-.057,1.126,1.126,0,0,1,2.25.057A1.159,1.159,0,0,1,7.977,13.433Zm2.244-6.125c-.493.451-2.276,1.291-1.4,2.134a.184.184,0,0,1-.08.306c-.4.134-.8.269-1.2.405a.183.183,0,0,1-.178-.047A1.909,1.909,0,0,1,6.84,8.862a.172.172,0,0,1,0-.046.191.191,0,0,1,0-.049c.068-1.1.925-1.512,1.686-2.148.507-.422.756-1.282-.139-1.486a2.162,2.162,0,0,0-2.225.831.182.182,0,0,1-.259,0q-.456-.507-.916-1.012a.187.187,0,0,1,0-.259A3.984,3.984,0,0,1,8.437,3.32a2.708,2.708,0,0,1,2.374,1.453A2.281,2.281,0,0,1,10.221,7.308Z"/></g>
</symbol>

<symbol id="refund" class="symbol" viewBox="0 0 16 16">
  <title>refund</title><g id="44ea0974-04e2-48a9-8867-5809df0776eb" data-name="Layer 1"><path d="M15.67,5.953A7.946,7.946,0,1,0,.321,10.068a7.786,7.786,0,0,0,2.59,4.014l.006.035L2.193,15.2a.26.26,0,0,0,.195.4l4.752.318a.259.259,0,0,0,.246-.374l-2.1-4.282a.253.253,0,0,0-.44-.03l-.623.935a5.556,5.556,0,0,1-1.668-2.7A5.635,5.635,0,1,1,9.777,13.36a.238.238,0,0,0-.16.276l.377,1.783a.237.237,0,0,0,.3.181A7.953,7.953,0,0,0,15.67,5.953ZM10.1,9.137a2.293,2.293,0,0,0-.152-.892,1.509,1.509,0,0,0-.371-.554,6.3,6.3,0,0,0-.826-.564A5.932,5.932,0,0,1,7.9,6.541a.74.74,0,0,1-.149-.526.63.63,0,0,1,.073-.339.241.241,0,0,1,.218-.112.228.228,0,0,1,.236.13,1.2,1.2,0,0,1,.055.474v.21a.155.155,0,0,0,.132.155l1.285.022a.155.155,0,0,0,.177-.149c0-.142.01-.154.01-.193A1.584,1.584,0,0,0,9.567,5.1a1.731,1.731,0,0,0-1.1-.5V4.3a.2.2,0,0,0-.2-.2H7.933a.2.2,0,0,0-.2.2v.31a1.965,1.965,0,0,0-1.208.5,1.525,1.525,0,0,0-.4,1.123,2,2,0,0,0,.19.887,1.788,1.788,0,0,0,.452.607,11.127,11.127,0,0,0,.989.675,1.134,1.134,0,0,1,.511.5,2.777,2.777,0,0,1,.075.77A.55.55,0,0,1,8.262,10a.274.274,0,0,1-.24.109.221.221,0,0,1-.238-.156,3.774,3.774,0,0,1-.049-.8V8.892A.156.156,0,0,0,7.6,8.737l-1.28-.016a.156.156,0,0,0-.177.155V9.07a1.95,1.95,0,0,0,.476,1.5,1.9,1.9,0,0,0,1.112.493v.421a.2.2,0,0,0,.2.2h.336a.2.2,0,0,0,.2-.2v-.4a1.871,1.871,0,0,0,1.227-.6A2.023,2.023,0,0,0,10.1,9.137Z"/></g>
</symbol>

<symbol id="registrations-app" class="symbol" viewBox="0 0 32 32">
  <defs><style>.cls-1{fill:#333132;fill-rule:evenodd;}</style></defs><title>registrations-app</title><polygon class="cls-1" points="20.52 13.131 17.843 10.706 16.061 12.651 18.719 15.11 20.52 13.131"/><path class="cls-1" d="M15.507,13.256,10.33,18.907a2.029,2.029,0,0,0-.4.86l-.36,2.666,2.621-.578a2,2,0,0,0,.819-.473l5.159-5.666Z"/><polygon class="cls-1" points="14.498 22.172 22.159 22.172 22.159 20.659 15.875 20.659 14.498 22.172"/><path class="cls-1" d="M26.973,2H5.027A3.027,3.027,0,0,0,2,5.027V26.973A3.027,3.027,0,0,0,5.027,30H26.973A3.027,3.027,0,0,0,30,26.973V5.027A3.027,3.027,0,0,0,26.973,2Zm0,24.216a.757.757,0,0,1-.757.757H5.784a.757.757,0,0,1-.757-.757V5.784a.757.757,0,0,1,.757-.757h4.541V6.544a.753.753,0,0,0,.753.753h9.845a.753.753,0,0,0,.753-.753V5.027h4.541a.757.757,0,0,1,.757.757Z"/>
</symbol>

<symbol id="registrations-badge" class="symbol" viewBox="0 0 176 32">
  <defs><style>.cls-1,.cls-2{fill:#333132;}.cls-2{fill-rule:evenodd;}</style></defs><title>registrations-badge</title><path class="cls-1" d="M46.2,24l-3.3-4.929H40.237V24H36.849V8.6H43.89c3.631,0,5.809,1.914,5.809,5.083v.044A4.782,4.782,0,0,1,46.4,18.5L50.16,24Zm.065-10.144c0-1.452-1.012-2.2-2.662-2.2H40.237v4.422H43.67c1.649,0,2.6-.879,2.6-2.178Z"/><path class="cls-1" d="M62.513,19.27H54.306a2.736,2.736,0,0,0,2.882,2.311,3.864,3.864,0,0,0,2.86-1.211l1.915,1.7a6.23,6.23,0,0,1-10.979-3.9v-.044a5.871,5.871,0,0,1,5.83-6.139c3.938,0,5.743,3.059,5.743,6.4v.045C62.557,18.764,62.534,18.961,62.513,19.27Zm-5.7-4.6a2.629,2.629,0,0,0-2.552,2.51H59.3A2.529,2.529,0,0,0,56.813,14.67Z"/><path class="cls-1" d="M69.571,27.564a11.184,11.184,0,0,1-5.215-1.232L65.5,23.824A7.7,7.7,0,0,0,69.483,24.9c2.288,0,3.367-1.1,3.367-3.213v-.572A4.612,4.612,0,0,1,69,23.031a5.179,5.179,0,0,1-5.237-5.5v-.045A5.191,5.191,0,0,1,69,11.986a4.771,4.771,0,0,1,3.806,1.76V12.207H76.15v9.131C76.15,25.782,73.95,27.564,69.571,27.564Zm3.279-10.078a2.875,2.875,0,0,0-5.743,0v.045a2.7,2.7,0,0,0,2.86,2.729,2.726,2.726,0,0,0,2.883-2.729Z"/><path class="cls-1" d="M78.54,10.908V7.938h3.521v2.971ZM78.628,24V12.207h3.345V24Z"/><path class="cls-1" d="M88.539,24.221a8.261,8.261,0,0,1-5.061-1.783l1.431-2.2a6.661,6.661,0,0,0,3.718,1.408c.969,0,1.408-.353,1.408-.88v-.044c0-.726-1.144-.968-2.442-1.364-1.649-.484-3.521-1.254-3.521-3.543v-.043c0-2.4,1.937-3.741,4.313-3.741a8.16,8.16,0,0,1,4.4,1.364L91.51,15.705a6.992,6.992,0,0,0-3.19-1.1c-.814,0-1.232.353-1.232.814v.044c0,.66,1.122.969,2.4,1.408,1.65.55,3.564,1.342,3.564,3.5v.045C93.05,23.031,91.092,24.221,88.539,24.221Z"/><path class="cls-1" d="M98.7,24.2c-2.046,0-3.433-.814-3.433-3.542v-5.59H93.86V12.207h1.408V9.191h3.345v3.016h2.772v2.859H98.613v5.039c0,.77.33,1.145,1.078,1.145a3.407,3.407,0,0,0,1.65-.418v2.684A4.933,4.933,0,0,1,98.7,24.2Z"/><path class="cls-1" d="M110.286,15.484c-2.222,0-3.586,1.343-3.586,4.159V24h-3.345V12.207H106.7v2.375a3.643,3.643,0,0,1,3.762-2.6v3.5Z"/><path class="cls-1" d="M118.407,24V22.724a4.535,4.535,0,0,1-3.564,1.5c-2.223,0-4.049-1.277-4.049-3.609v-.044c0-2.574,1.958-3.763,4.753-3.763a8.376,8.376,0,0,1,2.882.484v-.2c0-1.386-.858-2.156-2.53-2.156a8.691,8.691,0,0,0-3.257.638l-.836-2.552a10.405,10.405,0,0,1,4.577-.946c3.652,0,5.259,1.893,5.259,5.083V24Zm.065-4.752a5.176,5.176,0,0,0-2.134-.441c-1.431,0-2.311.572-2.311,1.629v.044c0,.9.748,1.431,1.826,1.431,1.563,0,2.618-.858,2.618-2.068Z"/><path class="cls-1" d="M127.763,24.2c-2.046,0-3.433-.814-3.433-3.542v-5.59h-1.408V12.207h1.408V9.191h3.345v3.016h2.772v2.859h-2.772v5.039c0,.77.33,1.145,1.078,1.145a3.407,3.407,0,0,0,1.65-.418v2.684A4.933,4.933,0,0,1,127.763,24.2Z"/><path class="cls-1" d="M132.357,10.908V7.938h3.521v2.971ZM132.446,24V12.207h3.344V24Z"/><path class="cls-1" d="M143.92,24.264a6.13,6.13,0,0,1-6.359-6.095v-.044a6.387,6.387,0,0,1,12.762-.044v.044A6.19,6.19,0,0,1,143.92,24.264Zm3.1-6.139a3.133,3.133,0,0,0-3.1-3.256,3.021,3.021,0,0,0-3.059,3.212v.044a3.134,3.134,0,0,0,3.1,3.257,3.021,3.021,0,0,0,3.058-3.213Z"/><path class="cls-1" d="M159.55,24V17.421c0-1.584-.748-2.4-2.023-2.4s-2.091.813-2.091,2.4V24h-3.345V12.207h3.345v1.672a4.174,4.174,0,0,1,3.455-1.893c2.53,0,4,1.672,4,4.379V24Z"/><path class="cls-1" d="M169.317,24.221a8.261,8.261,0,0,1-5.061-1.783l1.431-2.2a6.661,6.661,0,0,0,3.718,1.408c.969,0,1.408-.353,1.408-.88v-.044c0-.726-1.144-.968-2.442-1.364-1.649-.484-3.521-1.254-3.521-3.543v-.043c0-2.4,1.937-3.741,4.313-3.741a8.16,8.16,0,0,1,4.4,1.364l-1.276,2.311a6.992,6.992,0,0,0-3.19-1.1c-.814,0-1.232.353-1.232.814v.044c0,.66,1.122.969,2.4,1.408,1.65.55,3.564,1.342,3.564,3.5v.045C173.828,23.031,171.87,24.221,169.317,24.221Z"/><polygon class="cls-2" points="20.52 13.131 17.843 10.706 16.061 12.651 18.719 15.11 20.52 13.131"/><path class="cls-2" d="M15.507,13.256,10.33,18.907a2.029,2.029,0,0,0-.4.86l-.36,2.666,2.621-.578a2,2,0,0,0,.819-.473l5.159-5.666Z"/><polygon class="cls-2" points="14.498 22.172 22.159 22.172 22.159 20.659 15.875 20.659 14.498 22.172"/><path class="cls-2" d="M26.973,2H5.027A3.027,3.027,0,0,0,2,5.027V26.973A3.027,3.027,0,0,0,5.027,30H26.973A3.027,3.027,0,0,0,30,26.973V5.027A3.027,3.027,0,0,0,26.973,2Zm0,24.216a.757.757,0,0,1-.757.757H5.784a.757.757,0,0,1-.757-.757V5.784a.757.757,0,0,1,.757-.757h4.541V6.544a.753.753,0,0,0,.753.753h9.845a.753.753,0,0,0,.753-.753V5.027h4.541a.757.757,0,0,1,.757.757Z"/>
</symbol>

<symbol id="registrations" class="symbol" viewBox="0 0 16 16">
  <title>registrations</title><g id="01c1ad66-3009-418a-84fe-a4b5b8452a9c" data-name="Layer 1"><path d="M7.884,4.072l-6.29,6.883a2.344,2.344,0,0,0-.5,1.077L.67,15.154a.147.147,0,0,0,.177.164l3.066-.677a2.279,2.279,0,0,0,1.018-.591L11.2,7.144a.24.24,0,0,0-.015-.337L8.224,4.058A.24.24,0,0,0,7.884,4.072Zm6.236-.5L11.136.868A.239.239,0,0,0,10.8.884L8.9,2.963a.239.239,0,0,0,.014.337l2.962,2.747a.24.24,0,0,0,.34-.015l1.922-2.117A.239.239,0,0,0,14.12,3.577ZM6.788,15.369h9A.212.212,0,0,0,16,15.157V13.875a.211.211,0,0,0-.211-.211H8.309a.325.325,0,0,0-.253.121Z" fill-rule="evenodd"/></g>
</symbol>

<symbol id="resources-app" class="symbol" viewBox="0 0 32 32">
  <defs><style>.cls-1,.cls-2{fill:#333132;}.cls-1{fill-rule:evenodd;}</style></defs><title>resources-app</title><path class="cls-1" d="M26.973,2H5.027A3.027,3.027,0,0,0,2,5.027V26.973A3.027,3.027,0,0,0,5.027,30H26.973A3.027,3.027,0,0,0,30,26.973V5.027A3.027,3.027,0,0,0,26.973,2Zm0,24.216a.757.757,0,0,1-.757.757H5.784a.757.757,0,0,1-.757-.757V5.784a.757.757,0,0,1,.757-.757h4.541V6.544a.753.753,0,0,0,.753.753h9.845a.753.753,0,0,0,.753-.753V5.027h4.541a.757.757,0,0,1,.757.757Z"/><rect class="cls-2" x="9" y="11" width="6" height="5" rx="0.431" ry="0.431"/><rect class="cls-2" x="17" y="11" width="6" height="5" rx="0.431" ry="0.431"/><rect class="cls-2" x="9" y="18" width="6" height="5" rx="0.431" ry="0.431"/><rect class="cls-2" x="17" y="18" width="6" height="5" rx="0.431" ry="0.431"/>
</symbol>

<symbol id="resources-badge" class="symbol" viewBox="0 0 145 32">
  <defs><style>.cls-1,.cls-2{fill:#333132;}.cls-1{fill-rule:evenodd;}</style></defs><title>resources-badge</title><path class="cls-1" d="M26.973,2H5.027A3.027,3.027,0,0,0,2,5.027V26.973A3.027,3.027,0,0,0,5.027,30H26.973A3.027,3.027,0,0,0,30,26.973V5.027A3.027,3.027,0,0,0,26.973,2Zm0,24.216a.757.757,0,0,1-.757.757H5.784a.757.757,0,0,1-.757-.757V5.784a.757.757,0,0,1,.757-.757h4.541V6.544a.753.753,0,0,0,.753.753h9.845a.753.753,0,0,0,.753-.753V5.027h4.541a.757.757,0,0,1,.757.757Z"/><rect class="cls-2" x="9" y="11" width="6" height="5" rx="0.431" ry="0.431"/><rect class="cls-2" x="17" y="11" width="6" height="5" rx="0.431" ry="0.431"/><rect class="cls-2" x="9" y="18" width="6" height="5" rx="0.431" ry="0.431"/><rect class="cls-2" x="17" y="18" width="6" height="5" rx="0.431" ry="0.431"/><path class="cls-2" d="M46.2,23l-3.3-4.929H40.237V23H36.849V7.6H43.89c3.631,0,5.809,1.914,5.809,5.083v.044A4.782,4.782,0,0,1,46.4,17.5L50.16,23Zm.065-10.144c0-1.452-1.012-2.2-2.662-2.2H40.237v4.422H43.67c1.649,0,2.6-.879,2.6-2.178Z"/><path class="cls-2" d="M62.513,18.27H54.306a2.736,2.736,0,0,0,2.882,2.311,3.864,3.864,0,0,0,2.86-1.211l1.915,1.7a6.23,6.23,0,0,1-10.979-3.9v-.044a5.871,5.871,0,0,1,5.83-6.139c3.938,0,5.743,3.059,5.743,6.4v.045C62.557,17.764,62.534,17.961,62.513,18.27Zm-5.7-4.6a2.629,2.629,0,0,0-2.552,2.51H59.3A2.529,2.529,0,0,0,56.813,13.67Z"/><path class="cls-2" d="M68.386,23.221a8.259,8.259,0,0,1-5.061-1.783l1.43-2.2a6.663,6.663,0,0,0,3.719,1.408c.968,0,1.408-.353,1.408-.88v-.044c0-.726-1.145-.968-2.442-1.364-1.65-.484-3.521-1.254-3.521-3.543v-.043c0-2.4,1.937-3.741,4.313-3.741a8.16,8.16,0,0,1,4.4,1.364l-1.276,2.311a6.992,6.992,0,0,0-3.19-1.1c-.813,0-1.231.353-1.231.814v.044c0,.66,1.122.969,2.4,1.408,1.649.55,3.564,1.342,3.564,3.5v.045C72.9,22.031,70.938,23.221,68.386,23.221Z"/><path class="cls-2" d="M80.269,23.264a6.13,6.13,0,0,1-6.359-6.095v-.044a6.387,6.387,0,0,1,12.762-.044v.044A6.19,6.19,0,0,1,80.269,23.264Zm3.1-6.139a3.133,3.133,0,0,0-3.1-3.256,3.021,3.021,0,0,0-3.059,3.212v.044a3.134,3.134,0,0,0,3.1,3.257,3.021,3.021,0,0,0,3.058-3.213Z"/><path class="cls-2" d="M95.77,23V21.328a4.174,4.174,0,0,1-3.455,1.893c-2.53,0-4-1.673-4-4.379V11.207h3.344v6.578c0,1.584.749,2.4,2.024,2.4s2.091-.814,2.091-2.4V11.207h3.345V23Z"/><path class="cls-2" d="M108.447,14.484c-2.222,0-3.586,1.343-3.586,4.159V23h-3.345V11.207h3.345v2.375a3.643,3.643,0,0,1,3.762-2.6v3.5Z"/><path class="cls-2" d="M115.472,23.264a6.022,6.022,0,0,1-6.139-6.095v-.044a6.055,6.055,0,0,1,6.183-6.139,5.8,5.8,0,0,1,4.709,1.98l-2.046,2.2a3.446,3.446,0,0,0-2.685-1.3,3.013,3.013,0,0,0-2.86,3.212v.044a3.022,3.022,0,0,0,2.992,3.257,3.733,3.733,0,0,0,2.706-1.255l1.959,1.98A5.941,5.941,0,0,1,115.472,23.264Z"/><path class="cls-2" d="M132.395,18.27h-8.207a2.736,2.736,0,0,0,2.883,2.311,3.864,3.864,0,0,0,2.86-1.211l1.914,1.7a6.23,6.23,0,0,1-10.979-3.9v-.044a5.872,5.872,0,0,1,5.831-6.139c3.938,0,5.742,3.059,5.742,6.4v.045C132.438,17.764,132.417,17.961,132.395,18.27Zm-5.7-4.6c-1.387,0-2.288.99-2.553,2.51h5.039A2.53,2.53,0,0,0,126.7,13.67Z"/><path class="cls-2" d="M138.268,23.221a8.261,8.261,0,0,1-5.061-1.783l1.431-2.2a6.661,6.661,0,0,0,3.718,1.408c.969,0,1.408-.353,1.408-.88v-.044c0-.726-1.144-.968-2.442-1.364-1.649-.484-3.521-1.254-3.521-3.543v-.043c0-2.4,1.937-3.741,4.313-3.741a8.16,8.16,0,0,1,4.4,1.364l-1.276,2.311a6.992,6.992,0,0,0-3.19-1.1c-.814,0-1.232.353-1.232.814v.044c0,.66,1.122.969,2.4,1.408,1.65.55,3.564,1.342,3.564,3.5v.045C142.778,22.031,140.82,23.221,138.268,23.221Z"/>
</symbol>

<symbol id="scholarship" class="symbol" viewBox="0 0 16 16">
  <title>scholarship</title><g id="8c7bd882-e66a-48cf-9ab9-e1c4bae42191" data-name="Layer 1"><path d="M11.94,9.465a5.55,5.55,0,1,0-7.995.007L1.979,14.048l2.61.019,1.826,1.882,1.529-3.591,1.528,3.591L11.3,14.067l2.609-.019Zm-4-7.867A4.017,4.017,0,1,1,3.936,5.605,4.028,4.028,0,0,1,7.944,1.6ZM5.893,13.21l-.652-.671-.932-.019L5.2,10.451a5.525,5.525,0,0,0,1.611.611Zm4.753-.671-.652.671-.92-2.148a5.467,5.467,0,0,0,1.613-.618l.891,2.076Z"/><path d="M7.944,8.02a2.406,2.406,0,1,0-2.4-2.411A2.4,2.4,0,0,0,7.944,8.02Z"/></g>
</symbol>

<symbol id="services-app" class="symbol" viewBox="0 0 32 32">
  <defs><style>.cls-1,.cls-2{fill:#333132;}.cls-1{fill-rule:evenodd;}</style></defs><title>services-app</title><path class="cls-1" d="M26.973,2H5.027A3.027,3.027,0,0,0,2,5.027V26.973A3.027,3.027,0,0,0,5.027,30H26.973A3.027,3.027,0,0,0,30,26.973V5.027A3.027,3.027,0,0,0,26.973,2Zm0,24.216a.757.757,0,0,1-.757.757H5.784a.757.757,0,0,1-.757-.757V5.784a.757.757,0,0,1,.757-.757h4.541V6.544a.753.753,0,0,0,.753.753h9.845a.753.753,0,0,0,.753-.753V5.027h4.541a.757.757,0,0,1,.757.757Z"/><rect class="cls-2" x="9" y="10" width="14" height="3" rx="0.464" ry="0.464"/><rect class="cls-2" x="9" y="15" width="14" height="3" rx="0.464" ry="0.464"/><rect class="cls-2" x="9" y="20" width="14" height="3" rx="0.464" ry="0.464"/>
</symbol>

<symbol id="services-badge" class="symbol" viewBox="0 0 125 32">
  <defs><style>.cls-1,.cls-2{fill:#333132;}.cls-1{fill-rule:evenodd;}</style></defs><title>services-badge</title><path class="cls-1" d="M26.973,2H5.027A3.027,3.027,0,0,0,2,5.027V26.973A3.027,3.027,0,0,0,5.027,30H26.973A3.027,3.027,0,0,0,30,26.973V5.027A3.027,3.027,0,0,0,26.973,2Zm0,24.216a.757.757,0,0,1-.757.757H5.784a.757.757,0,0,1-.757-.757V5.784a.757.757,0,0,1,.757-.757h4.541V6.544a.753.753,0,0,0,.753.753h9.845a.753.753,0,0,0,.753-.753V5.027h4.541a.757.757,0,0,1,.757.757Z"/><rect class="cls-2" x="9" y="10" width="14" height="3" rx="0.464" ry="0.464"/><rect class="cls-2" x="9" y="15" width="14" height="3" rx="0.464" ry="0.464"/><rect class="cls-2" x="9" y="20" width="14" height="3" rx="0.464" ry="0.464"/><path class="cls-2" d="M42.327,23.221a9.8,9.8,0,0,1-6.535-2.465l2-2.4a7.062,7.062,0,0,0,4.6,1.87c1.386,0,2.222-.55,2.222-1.452v-.044c0-.858-.527-1.3-3.1-1.958-3.1-.793-5.1-1.65-5.1-4.709v-.044c0-2.794,2.244-4.643,5.391-4.643a8.919,8.919,0,0,1,5.722,1.958L45.76,11.889a7.226,7.226,0,0,0-4-1.519c-1.3,0-1.979.595-1.979,1.343v.043c0,1.013.659,1.343,3.322,2.025,3.124.813,4.885,1.936,4.885,4.62v.044C47.982,21.5,45.649,23.221,42.327,23.221Z"/><path class="cls-2" d="M60.839,18.27H52.632a2.736,2.736,0,0,0,2.882,2.311,3.864,3.864,0,0,0,2.86-1.211l1.915,1.7a6.23,6.23,0,0,1-10.979-3.9v-.044a5.871,5.871,0,0,1,5.83-6.139c3.938,0,5.743,3.059,5.743,6.4v.045C60.883,17.764,60.86,17.961,60.839,18.27Zm-5.7-4.6a2.629,2.629,0,0,0-2.552,2.51h5.038A2.529,2.529,0,0,0,55.14,13.67Z"/><path class="cls-2" d="M69.616,14.484c-2.223,0-3.587,1.343-3.587,4.159V23H62.685V11.207h3.345v2.375a3.644,3.644,0,0,1,3.763-2.6v3.5Z"/><path class="cls-2" d="M78.144,23.088H75.106L70.464,11.207h3.543l2.641,7.9,2.662-7.9h3.477Z"/><path class="cls-2" d="M83.91,9.908V6.938h3.521V9.908ZM84,23V11.207h3.344V23Z"/><path class="cls-2" d="M95.3,23.264a6.022,6.022,0,0,1-6.139-6.095v-.044a6.055,6.055,0,0,1,6.183-6.139,5.8,5.8,0,0,1,4.709,1.98L98,15.167a3.446,3.446,0,0,0-2.685-1.3,3.013,3.013,0,0,0-2.86,3.212v.044a3.022,3.022,0,0,0,2.992,3.257,3.733,3.733,0,0,0,2.706-1.255l1.959,1.98A5.941,5.941,0,0,1,95.3,23.264Z"/><path class="cls-2" d="M112.219,18.27h-8.207a2.736,2.736,0,0,0,2.883,2.311,3.864,3.864,0,0,0,2.86-1.211l1.914,1.7a6.23,6.23,0,0,1-10.979-3.9v-.044a5.872,5.872,0,0,1,5.831-6.139c3.938,0,5.742,3.059,5.742,6.4v.045C112.263,17.764,112.241,17.961,112.219,18.27Zm-5.7-4.6c-1.387,0-2.288.99-2.553,2.51h5.039A2.53,2.53,0,0,0,106.521,13.67Z"/><path class="cls-2" d="M118.092,23.221a8.261,8.261,0,0,1-5.061-1.783l1.431-2.2a6.661,6.661,0,0,0,3.718,1.408c.969,0,1.408-.353,1.408-.88v-.044c0-.726-1.144-.968-2.442-1.364-1.649-.484-3.521-1.254-3.521-3.543v-.043c0-2.4,1.937-3.741,4.313-3.741a8.16,8.16,0,0,1,4.4,1.364l-1.276,2.311a6.992,6.992,0,0,0-3.19-1.1c-.814,0-1.232.353-1.232.814v.044c0,.66,1.122.969,2.4,1.408,1.65.55,3.564,1.342,3.564,3.5v.045C122.6,22.031,120.645,23.221,118.092,23.221Z"/>
</symbol>

<symbol id="simple-arrow" class="symbol" viewBox="0 0 16 16">
  <title>simple-arrow</title><g id="3f49b4bd-7d17-49c6-938e-868facfcda90" data-name="Layer 1"><polygon points="9.178 1.221 7.456 2.978 11.159 6.757 0.179 6.757 0.179 9.243 11.159 9.243 7.456 13.022 9.178 14.779 15.821 8 9.178 1.221"/></g>
</symbol>

<symbol id="sms-thick-o" class="symbol" viewBox="0 0 16 16">
  <title>sms-thick-o</title><g id="26d62d28-7d47-4cb7-be22-b1348d13301a" data-name="Layer 1"><path d="M8,.088A7.942,7.942,0,0,0,.9,11.553L.1,14.731a.992.992,0,0,0,.961,1.234.98.98,0,0,0,.24-.03l3.178-.794A7.936,7.936,0,1,0,8,.088ZM8,13.98a5.963,5.963,0,0,1-2.909-.759.985.985,0,0,0-.725-.1l-1.941.485.485-1.943a.989.989,0,0,0-.1-.726A5.946,5.946,0,1,1,8,13.98Z"/><path d="M5.405,7.126a.983.983,0,1,0,.983.983A.983.983,0,0,0,5.405,7.126Z"/><path d="M8,7.126a.983.983,0,1,0,.983.983A.983.983,0,0,0,8,7.126Z"/><path d="M10.6,7.126a.983.983,0,1,0,.983.983A.983.983,0,0,0,10.6,7.126Z"/></g>
</symbol>

<symbol id="statements-o" class="symbol" viewBox="0 0 16 16">
  <title>statements-o</title><g id="1778c328-05ea-451d-8206-af4fe1f7e98e" data-name="Layer 1"><path d="M11,1V15H1V1H11m1-1H0V16H12V0Z"/><path d="M14,2V13H12V2h2m1-1H11V14h4V1Z"/><rect x="3" y="3" width="6" height="1"/><rect x="3" y="5" width="6" height="1"/><rect x="3" y="7" width="6" height="1"/><rect x="3" y="9" width="4" height="1"/></g>
</symbol>

<symbol id="text-give-o" class="symbol" viewBox="0 0 16 16">
  <title>text-give-o</title><g id="a264f2bf-6a33-47a6-8451-57bd9e219d47" data-name="Layer 1"><path d="M15.023,11.916a.146.146,0,0,1-.146.146H6.24l-.252.168L3.154,14.117l-.01-1.063-.009-.992-1.995.022a.146.146,0,0,1-.148-.146L.969,1.364a.147.147,0,0,1,.147-.147H14.854A.146.146,0,0,1,15,1.363Zm0-11.7H.969a.978.978,0,0,0-.977.977V12.086a.977.977,0,0,0,.977.976H2.144l.021,2.34a.31.31,0,0,0,.481.255l3.9-2.6h8.481A.976.976,0,0,0,16,12.086V1.194a.977.977,0,0,0-.977-.977Z"/><path d="M5.413,5.519c-.354-.295-.812-.081-1.135.249l-.187.218L3.9,5.768c-.324-.33-.779-.544-1.133-.249A.9.9,0,0,0,2.7,6.84L2.855,7l1.138,1.16a.137.137,0,0,0,.2,0L5.48,6.84A.9.9,0,0,0,5.413,5.519Z"/><path d="M13.181,5.519c-.354-.295-.812-.081-1.136.249l-.186.218-.19-.218c-.323-.33-.778-.544-1.132-.249A.9.9,0,0,0,10.47,6.84L10.622,7l1.139,1.16a.137.137,0,0,0,.2,0L13.248,6.84A.9.9,0,0,0,13.181,5.519Z"/><path d="M9.3,5.519c-.354-.295-.812-.081-1.136.249l-.186.218-.189-.218c-.324-.33-.779-.544-1.133-.249A.9.9,0,0,0,6.586,6.84L6.738,7l1.139,1.16a.137.137,0,0,0,.2,0L9.364,6.84A.9.9,0,0,0,9.3,5.519Z"/></g>
</symbol>

<symbol id="ticket" class="symbol" viewBox="0 0 16 16">
  <title>ticket</title><g id="f5deb486-080d-4bf8-b5f6-fd2218ce7c17" data-name="Layer 1"><path d="M13.983,4.7l-.222.045a2.131,2.131,0,0,1-2.519-2.519L11.287,2l-2-2-9.3,9.3,2,2,.222-.045a2.132,2.132,0,0,1,2.52,2.52L4.686,14l2,2,9.3-9.3Zm-3.539,6.353L6.69,14.807,5.6,13.714a2.975,2.975,0,0,0-3.323-3.323L1.179,9.3,4.933,5.543l.67.67.6-.6-.67-.67L9.284,1.193l1.094,1.094A2.972,2.972,0,0,0,13.7,5.609L14.794,6.7,11.04,10.457l-.67-.67-.6.6ZM7.205,7.814l.968.968.6-.6L7.8,7.218Z"/></g>
</symbol>

<symbol id="trash" class="symbol" viewBox="0 0 16 16">
  <title>trash</title><g id="438273f6-dc28-47b4-988c-d5eaa386be3f" data-name="Layer 1"><g id="afa2efda-3af6-4b27-8c70-8906c0da04f1" data-name="Layer 1"><path d="M3.26,14.8a1.143,1.143,0,0,0,1.13,1.166H12a1.143,1.143,0,0,0,1.13-1.166l.439-10.051H2.839Zm7.213-7.628c0-.336.185-.6.506-.6s.505.265.505.6v6.38c0,.336-.185.6-.505.6s-.506-.265-.506-.6Zm-2.794,0a.532.532,0,0,1,.506-.6c.321,0,.506.265.506.6v6.38c0,.336-.185.6-.506.6a.532.532,0,0,1-.506-.6Zm-2.763,0c0-.336.185-.6.506-.6a.532.532,0,0,1,.506.6v6.38a.532.532,0,0,1-.506.6c-.321,0-.506-.265-.506-.6Zm8.852-5.251H10.511V.582c0-.318-.152-.548-.472-.548h-3.7a.5.5,0,0,0-.506.548V1.921H2.636a.528.528,0,0,0-.523.583v.613c0,.335.2.689.523.689H13.785c.321,0,.489-.371.489-.689V2.5C14.257,2.168,14.089,1.921,13.768,1.921Zm-4.181,0h-2.8V.978h2.8Z"/></g></g>
</symbol>

<symbol id="wallet-o" class="symbol" viewBox="0 0 16 16">
  <title>wallet-o</title><g id="fd0c1dac-3911-4956-bce7-ff7ab20b5aab" data-name="Layer 1"><path d="M14.279,3.021,13.556,0,0,3l.05.05V16H16V3.021ZM12.818,1.214,13.246,3H4.137ZM15,15H1.05V4.021H15Z"/><path d="M15,8v3H8.5a1.5,1.5,0,0,1,0-3H15m1-1H8.5a2.5,2.5,0,0,0,0,5H16V7Z"/><circle cx="8.5" cy="9.5" r="0.5"/></g>
</symbol>
    </svg>