<svg xmlns="http://www.w3.org/2000/svg" xmlns:xlink="http://www.w3.org/1999/xlink">
    
<symbol id="add-household" viewBox="0 0 16 16">
  <title>add-household</title><g id="Layer_1" data-name="Layer 1"><path d="M14.5,7.85,9,1.62A1.38,1.38,0,0,0,7,1.62L1.5,7.85a1.3,1.3,0,0,0-.22,1.44,1.32,1.32,0,0,0,1.24.77H3v3.41a1.38,1.38,0,0,0,1.33,1.41h7.31A1.41,1.41,0,0,0,13,13.47V10.06h.46a1.32,1.32,0,0,0,1.24-.77A1.3,1.3,0,0,0,14.5,7.85ZM8,2.51,13.5,8.72H11.68v4.75s0,.06,0,.06H4.35s0,0,0-.06V8.77H2.53s0,0,0,0L8,2.51"></path><path d="M9.54,8.28h-.9V7.35A.66.66,0,0,0,8,6.68H8a.68.68,0,0,0-.68.67v.93H6.46a.65.65,0,0,0-.67.64v0a.68.68,0,0,0,.67.68h.83v.81a.69.69,0,0,0,.69.68H8a.67.67,0,0,0,.67-.68V9.62h.9a.7.7,0,0,0,.67-.7v0A.66.66,0,0,0,9.54,8.28Z"></path></g>
</symbol>

<symbol id="android" viewBox="0 0 16 16">
  <title>android</title><g id="Layer_1" data-name="Layer 1"><path d="M10.52,2.34h0a.52.52,0,0,0-1,0h0a.52.52,0,0,0,.52.51A.51.51,0,0,0,10.52,2.34Zm-3.86,0h0a.52.52,0,0,0-1,0h0a.52.52,0,0,0,.52.51A.51.51,0,0,0,6.66,2.34Zm4.77-.71a3.69,3.69,0,0,1,1.08,2.5h-9A3.67,3.67,0,0,1,4.55,1.65L3.72.21a.13.13,0,0,1,0-.19A.13.13,0,0,1,4,.07l.8,1.38A4.82,4.82,0,0,1,7.5.28h1a4.84,4.84,0,0,1,2.72,1.15L12,.07a.13.13,0,0,1,.19,0,.14.14,0,0,1,.05.19Zm2.72,3.5a1,1,0,0,1,1,1v4.29a1,1,0,0,1-2,0V6.13A1,1,0,0,1,14.15,5.13Zm-12.3,0a1,1,0,0,1,1,1v4.29a1,1,0,0,1-2,0V6.13A1,1,0,0,1,1.85,5.13Zm7.41,7.3H6.74V15a1,1,0,1,1-2,0V12.43h0a1.24,1.24,0,0,1-1.24-1.26V4.56h9.08v6.61a1.24,1.24,0,0,1-1.24,1.26h-.05V15a1,1,0,1,1-2,0Z"></path></g>
</symbol>

<symbol id="apple" viewBox="0 0 16 16">
  <title>apple</title><g id="Layer_1" data-name="Layer 1"><path d="M8.68,1.39A3.44,3.44,0,0,1,11.19,0a3.41,3.41,0,0,1-.83,2.56A2.69,2.69,0,0,1,8,3.68,3,3,0,0,1,8.68,1.39Zm-.57,3.2c.54,0,1.55-.74,2.85-.74a3.59,3.59,0,0,1,3.14,1.6,3.46,3.46,0,0,0-1.73,3,3.57,3.57,0,0,0,2.15,3.26S13,16,11,16c-.94,0-1.66-.63-2.65-.63s-2,.65-2.65.65c-1.85,0-4.2-4-4.2-7.26s2-4.85,3.85-4.85c1.21,0,2.15.7,2.78.7Z"></path></g>
</symbol>

<symbol id="bar-code" viewBox="0 0 16 16">
  <title>bar-code</title><g id="Layer_1" data-name="Layer 1"><rect x="1.47" y="4.64" width="1.15" height="6.73"></rect><path d="M15,3.23H1a1,1,0,0,0-1,1v7.56a1,1,0,0,0,1,1H15a1,1,0,0,0,1-1V4.22A1,1,0,0,0,15,3.23Zm.42,8.55a.42.42,0,0,1-.42.41H1a.41.41,0,0,1-.41-.41V4.22A.41.41,0,0,1,1,3.81H15a.42.42,0,0,1,.42.41Z"></path><rect x="3.84" y="4.64" width="0.57" height="6.73"></rect><rect x="3.2" y="4.64" width="0.25" height="6.73"></rect><rect x="5.11" y="4.64" width="1.35" height="6.73"></rect><rect x="7.03" y="4.64" width="0.59" height="6.73"></rect><rect x="10.73" y="4.64" width="1.35" height="6.73"></rect><rect x="9.58" y="4.64" width="0.59" height="6.73"></rect><rect x="8.37" y="4.64" width="0.59" height="6.73"></rect><rect x="13.85" y="4.64" width="0.59" height="6.73"></rect><rect x="12.63" y="4.64" width="0.59" height="6.73"></rect></g>
</symbol>

<symbol id="barcode-camera" viewBox="0 0 16 16">
  <title>barcode-camera</title><g id="Layer_1" data-name="Layer 1"><path d="M14.66,3H12.2a1,1,0,0,0-.95-1H4.74A1,1,0,0,0,3.8,3H1.33A1.34,1.34,0,0,0,0,4.3v8.1a1.34,1.34,0,0,0,1.33,1.34H14.66A1.34,1.34,0,0,0,16,12.4V4.3A1.34,1.34,0,0,0,14.66,3ZM8,12.2A4.2,4.2,0,1,1,12.19,8,4.21,4.21,0,0,1,8,12.2Z"></path><path d="M8,4.3A3.7,3.7,0,1,0,11.69,8,3.7,3.7,0,0,0,8,4.3Zm0,6.9A3.2,3.2,0,1,1,11.19,8,3.19,3.19,0,0,1,8,11.2Z"></path><rect x="5.73" y="6.26" width="0.65" height="3.48"></rect><rect x="6.71" y="6.26" width="0.33" height="3.48"></rect><rect x="7.35" y="6.26" width="0.65" height="3.48"></rect><rect x="9.61" y="6.26" width="0.65" height="3.48"></rect><rect x="8.32" y="6.26" width="0.33" height="3.48"></rect><rect x="8.97" y="6.26" width="0.33" height="3.48"></rect></g>
</symbol>

<symbol id="bgcheck-check" viewBox="0 0 16 16">
  <title>bgcheck-check</title><g id="Layer_1" data-name="Layer 1"><path d="M15.25,2.49,8.48.27a1.57,1.57,0,0,0-1,0L.75,2.49A.52.52,0,0,0,.39,3V7.72A5.39,5.39,0,0,0,2.51,12l4.56,3.47a1.53,1.53,0,0,0,1.86,0L13.49,12a5.39,5.39,0,0,0,2.12-4.3V3A.52.52,0,0,0,15.25,2.49ZM11.43,6.62,7.49,10.69a.1.1,0,0,1-.16,0L4.57,7.85a.11.11,0,0,1,0-.15L5.66,6.58a.1.1,0,0,1,.16,0l1.5,1.55a.08.08,0,0,0,.11,0l2.72-2.82a.1.1,0,0,1,.16,0l1.12,1.16A.11.11,0,0,1,11.43,6.62Z"></path></g>
</symbol>

<symbol id="bgcheck-x" viewBox="0 0 16 16">
  <title>bgcheck-x</title><g id="Layer_1" data-name="Layer 1"><path d="M15.22,2.48,8.45.27a1.7,1.7,0,0,0-1,0L.78,2.48A.5.5,0,0,0,.39,3V7.69A5.49,5.49,0,0,0,2.48,12l4.57,3.5a1.65,1.65,0,0,0,1.9,0L13.52,12a5.49,5.49,0,0,0,2.09-4.31V3A.93.93,0,0,0,15.22,2.48Zm-4.6,7.09-1,1L8,9.05,6.43,10.62l-1-1L7,8,5.38,6.43l1-1L8,7,9.57,5.38l1,1L9.05,8Z"></path></g>
</symbol>

<symbol id="birthday" viewBox="0 0 16 16">
  <title>birthday</title><g id="Layer_1" data-name="Layer 1"><path d="M9,2.31a1.13,1.13,0,0,1-2.26,0A2.74,2.74,0,0,1,8,.07a2.93,2.93,0,0,0,.27,1C8.47,1.4,9,1.62,9,2.31Z"></path><path d="M5,2.31a1.13,1.13,0,0,1-2.26,0A2.74,2.74,0,0,1,4,.07a2.93,2.93,0,0,0,.27,1C4.47,1.4,5,1.62,5,2.31Z"></path><path d="M13,2.31a1.13,1.13,0,0,1-2.26,0A2.74,2.74,0,0,1,12,.07a2.93,2.93,0,0,0,.27,1C12.47,1.4,13,1.62,13,2.31Z"></path><path d="M15.29,8.76H12.43V4.1a.68.68,0,0,0-.56-.23.65.65,0,0,0-.55.23V8.76H8.43V4.1a.68.68,0,0,0-.56-.23.65.65,0,0,0-.55.23V8.76H4.43V4.1a.68.68,0,0,0-.56-.23.65.65,0,0,0-.55.23V8.76H.71a.5.5,0,0,0-.5.5v1.86a2.93,2.93,0,0,0,2.07.73c1.38,0,2.35-.7,2.35-1.32h1c0,.62,1,1.32,2.35,1.32s2.35-.7,2.35-1.32h1c0,.62,1,1.32,2.35,1.32a2.85,2.85,0,0,0,2.11-.77V9.26A.5.5,0,0,0,15.29,8.76Z"></path><path d="M10.83,11.75A3.81,3.81,0,0,1,8,12.85a3.81,3.81,0,0,1-2.85-1.1,3.83,3.83,0,0,1-2.85,1.1,4.46,4.46,0,0,1-2.07-.49v3.07a.5.5,0,0,0,.5.5H15.29a.5.5,0,0,0,.5-.5v-3.1a4.36,4.36,0,0,1-2.11.52A3.81,3.81,0,0,1,10.83,11.75Z"></path></g>
</symbol>

<symbol id="chart" viewBox="0 0 16 16">
  <title>chart</title><g id="Layer_1" data-name="Layer 1"><path d="M5.7,0a5.45,5.45,0,1,0,5.45,5.45A5.45,5.45,0,0,0,5.7,0Zm0,9.52a4.08,4.08,0,0,1,0-8.15V5.48L9,7.84A4.06,4.06,0,0,1,5.7,9.54Z"></path><path d="M12.75,15.47a.51.51,0,0,0,.51.51h1.62a.5.5,0,0,0,.5-.51V6.77a.5.5,0,0,0-.5-.5H13.26a.5.5,0,0,0-.51.5Z"></path><path d="M8.84,11.57v3.9a.51.51,0,0,0,.51.51H11a.51.51,0,0,0,.51-.51v-3.9a.51.51,0,0,0-.51-.51H9.35A.51.51,0,0,0,8.84,11.57Z"></path><path d="M4.93,12.78v2.69a.5.5,0,0,0,.5.51H7.05a.51.51,0,0,0,.51-.51V12.79a.51.51,0,0,0-.51-.51H5.43A.5.5,0,0,0,4.93,12.78Z"></path></g>
</symbol>

<symbol id="check-pending" viewBox="0 0 16 16">
  <title>check-pending</title><g id="Layer_1" data-name="Layer 1"><path d="M11.63,6.19a5.42,5.42,0,0,1,2.09.42L16,4.33,13.32,1.65,6,9,2.56,5.56,0,8.17l6.11,6.1h0l.57-.57a5.42,5.42,0,0,1,5-7.51Z" fill-rule="evenodd"></path><path d="M11.63,7.28A4.34,4.34,0,1,0,16,11.61,4.33,4.33,0,0,0,11.63,7.28ZM13,14a.58.58,0,0,1-.41.17A.6.6,0,0,1,12.2,14L10.79,12.5V9.67a.59.59,0,0,1,1.18,0V12l1.09,1.12A.6.6,0,0,1,13,14Z" fill-rule="evenodd"></path></g>
</symbol>

<symbol id="check" viewBox="0 0 16 16">
  <title>check</title><g id="Layer_1" data-name="Layer 1"><polygon points="16 4.33 13.33 1.65 5.99 8.99 2.56 5.56 -0.04 8.16 6.06 14.27 6.06 14.27 6.06 14.27 16 4.33" fill-rule="evenodd"></polygon></g>
</symbol>

<symbol id="checkin" viewBox="0 0 16 16">
  <title>checkin</title><g id="Layer_1" data-name="Layer 1"><path d="M7.22,14.42h5.17a.21.21,0,0,0,.21-.21V1.79a.21.21,0,0,0-.21-.21H7.31L6.31,0H13a1.18,1.18,0,0,1,1.17,1.17V14.83A1.18,1.18,0,0,1,13,16H6.31Z" fill-rule="evenodd"></path><path d="M10,5.93a.68.68,0,0,0-1,1l.42.43H7.08a.68.68,0,0,0,0,1.36H9.44L9,9.11a.68.68,0,0,0,.48,1.16.69.69,0,0,0,.48-.2l1.54-1.54a.75.75,0,0,0,0-1.06Z"></path><path d="M4.75,7.54h0a2.58,2.58,0,1,0-4.2-2,2.59,2.59,0,0,0,.93,2A3.1,3.1,0,0,0,0,10.18v1.63A1.23,1.23,0,0,0,1.28,13H4.94a1.23,1.23,0,0,0,1.28-1.23V10.18A3.1,3.1,0,0,0,4.75,7.54ZM3.12,4.1A1.44,1.44,0,1,1,1.68,5.54,1.44,1.44,0,0,1,3.12,4.1Zm0,7.85H1.28a.14.14,0,0,1-.14-.14V10.18a2,2,0,1,1,3.94,0v1.63a.14.14,0,0,1-.14.14H3.11Z"></path></g>
</symbol>

<symbol id="checkout" viewBox="0 0 16 16">
  <title>checkout</title><g id="Layer_1" data-name="Layer 1"><path d="M12.9,7.09a2,2,0,1,0-2-2A2,2,0,0,0,12.9,7.09Z"></path><path d="M12.88,8.07a2.59,2.59,0,0,0-2.59,2.59v1.67A.68.68,0,0,0,11,13h3.74a.68.68,0,0,0,.72-.67V10.66A2.59,2.59,0,0,0,12.88,8.07Z"></path><path d="M8.77,14.42H3.6a.21.21,0,0,1-.21-.21V1.79a.21.21,0,0,1,.21-.21H8.68L9.68,0H3A1.18,1.18,0,0,0,1.81,1.17V14.83A1.18,1.18,0,0,0,3,16h6.7Z" fill-rule="evenodd"></path><path d="M7.83,5.93a.68.68,0,0,0-1,1l.42.43H4.93a.68.68,0,0,0,0,1.36H7.29l-.42.43a.68.68,0,0,0,.48,1.16.69.69,0,0,0,.48-.2L9.37,8.53a.75.75,0,0,0,0-1.06Z"></path></g>
</symbol>

<symbol id="clock" viewBox="0 0 16 16">
  <title>clock</title><g id="Layer_1" data-name="Layer 1"><path d="M8.05,16a8,8,0,1,1,8-8,8,8,0,0,1-8,8Zm0-14.29A6.32,6.32,0,1,0,14.37,8,6.32,6.32,0,0,0,8.05,1.66Z"></path><path d="M12,9.61h-5a.37.37,0,0,1-.36-.37V4.5a1,1,0,1,1,2,0V7.61H12a1,1,0,1,1,0,2Z"></path></g>
</symbol>

<symbol id="delete" viewBox="0 0 16 16">
  <title>delete</title><g id="Layer_1" data-name="Layer 1"><path d="M14.58,2.37h-9a2.71,2.71,0,0,0-1.9.89l-3.35,4a1.65,1.65,0,0,0,0,2.06l3.35,4a2.71,2.71,0,0,0,1.9.89h9A1.42,1.42,0,0,0,16,12.73V3.81A1.42,1.42,0,0,0,14.58,2.37Zm.2,10.36a.21.21,0,0,1-.2.22h-9a1.55,1.55,0,0,1-1-.46l-3.35-4a.45.45,0,0,1,0-.5L4.62,4a1.55,1.55,0,0,1,1-.46h9a.22.22,0,0,1,.2.23Z"></path><polygon points="11.26 5.02 9.68 6.6 8.1 5.02 6.43 6.69 8.01 8.27 6.43 9.85 8.1 11.52 9.68 9.94 11.26 11.52 12.93 9.85 11.35 8.27 12.93 6.69 11.26 5.02"></polygon></g>
</symbol>

<symbol id="download" viewBox="0 0 16 16">
  <title>download</title><g id="Layer_1" data-name="Layer 1"><polygon points="13.6 7.44 13.6 11.44 2.4 11.44 2.4 7.44 0 7.44 0 13.84 16 13.84 16 7.44 13.6 7.44"></polygon><polygon points="9.6 5.36 9.6 2.16 6.4 2.16 6.4 5.36 3.52 5.36 8 9.99 12.48 5.36 9.6 5.36"></polygon></g>
</symbol>

<symbol id="event" viewBox="0 0 16 16">
  <title>event</title><g id="Layer_1" data-name="Layer 1"><path d="M15.22,2.53H13.86V.5a.5.5,0,0,0-.5-.5H9.59a.5.5,0,0,0-.5.5v2H6.83V.5a.5.5,0,0,0-.5-.5H2.59a.5.5,0,0,0-.5.5v2H.82a.5.5,0,0,0-.5.5V15.5a.5.5,0,0,0,.5.5h14.4a.5.5,0,0,0,.5-.5V3A.5.5,0,0,0,15.22,2.53ZM10.63,1.4h1.69V3.11H10.63Zm-7,0H5.28V3.11H3.62ZM14,14.35H2V4.24H14Z" fill-rule="evenodd"></path><path d="M12,8.14,9.3,7.93a.14.14,0,0,1-.13-.09l-1-2.47a.15.15,0,0,0-.28,0l-1,2.47a.14.14,0,0,1-.13.09L4,8.14A.16.16,0,0,0,4,8.42l2,1.74a.16.16,0,0,1,0,.15l-.62,2.6a.15.15,0,0,0,.23.17l2.28-1.4a.15.15,0,0,1,.16,0l2.28,1.4a.15.15,0,0,0,.23-.17L10,10.31a.16.16,0,0,1,0-.15l2-1.74A.16.16,0,0,0,12,8.14Z" fill-rule="evenodd"></path></g>
</symbol>

<symbol id="eyeball-hide" viewBox="0 0 16 16">
  <title>eyeball-hide</title><g id="Layer_1" data-name="Layer 1"><path d="M7,5.34l3.59,3.58a2.6,2.6,0,0,0,.2-1A2.76,2.76,0,0,0,8,5.15,2.89,2.89,0,0,0,7,5.34Zm8.93,2.23c-.13-.2-3.11-4.9-7.91-4.9a7.56,7.56,0,0,0-3,.66l1,1A6.09,6.09,0,0,1,8,3.91c3.42,0,5.89,3,6.62,4a12.22,12.22,0,0,1-2.53,2.53l.89.89a13.08,13.08,0,0,0,2.93-3.1A.63.63,0,0,0,15.91,7.57ZM4.7,4.85h0L3.8,3.93h0L3,3.11a.63.63,0,0,0-.88,0,.63.63,0,0,0,0,.88l.68.67A12.79,12.79,0,0,0,.09,7.57a.63.63,0,0,0,0,.65c.13.2,3.11,4.9,7.91,4.9a7.48,7.48,0,0,0,2.72-.52l.55.55a.63.63,0,0,0,.88,0,.61.61,0,0,0,0-.88L11.92,12h0L11,11.11h0Zm.63,2.38a2.48,2.48,0,0,0-.1.68A2.77,2.77,0,0,0,8,10.67a2.61,2.61,0,0,0,.69-.1l1.05,1A6.2,6.2,0,0,1,8,11.88c-3.42,0-5.89-3-6.62-4A11.94,11.94,0,0,1,3.65,5.55Z"></path></g>
</symbol>

<symbol id="eyeball-show" viewBox="0 0 16 16">
  <title>eyeball-show</title><g id="Layer_1" data-name="Layer 1"><circle cx="8" cy="8" r="2.77"></circle><path d="M15.91,7.67c-.13-.2-3.11-4.9-7.91-4.9S.22,7.47.09,7.67a.65.65,0,0,0,0,.66c.13.2,3.11,4.9,7.91,4.9s7.78-4.7,7.91-4.9a.65.65,0,0,0,0-.66ZM8,12C4.58,12,2.11,9,1.38,8,2.11,7,4.58,4,8,4s5.89,3,6.62,4C13.89,9,11.42,12,8,12Z"></path></g>
</symbol>

<symbol id="filter" viewBox="0 0 16 16">
  <title>filter</title><g id="Layer_1" data-name="Layer 1"><path d="M15.18,1.28H.81a.47.47,0,0,0-.32.81L6.24,8.28V14.4a.35.35,0,0,0,.51.29l2.67-2.26a.7.7,0,0,0,.37-.64V8.28l5.71-6.2A.46.46,0,0,0,15.18,1.28Z"></path></g>
</symbol>

<symbol id="guest-badge" viewBox="0 0 16 16">
  <title>guest-badge</title><g id="Layer_1" data-name="Layer 1"><path d="M8.72,7.84H8.05v3h.67Zm-2.13,3,1-3H6.91L6.23,10h0L5.54,7.84H4.85l1,3ZM13.17,0H3.05A1.33,1.33,0,0,0,1.72,1.33V14.65A1.32,1.32,0,0,0,3.05,16H13.17a1.32,1.32,0,0,0,1.33-1.33V1.33A1.33,1.33,0,0,0,13.17,0Zm-6,1.07H9.57a.39.39,0,0,1,.4.4.39.39,0,0,1-.4.39H7.18a.4.4,0,1,1,0-.79Zm6.26,13.32a.54.54,0,0,1-.54.53H3.58a.53.53,0,0,1-.53-.53V6.13a.54.54,0,0,1,.53-.54H12.9a.54.54,0,0,1,.54.54ZM5.18,12.93h6.13v-.8H5.18Zm6.51-4.79a1.12,1.12,0,0,0-.33-.22,1.34,1.34,0,0,0-.48-.08H9.5v3h.67V9.79h.71a1.34,1.34,0,0,0,.48-.08,1.12,1.12,0,0,0,.33-.22.92.92,0,0,0,.18-.32,1,1,0,0,0,.06-.36,1.13,1.13,0,0,0-.06-.36A.87.87,0,0,0,11.69,8.14Zm-.46.91a.35.35,0,0,1-.13.14.53.53,0,0,1-.19.06l-.22,0h-.52V8.36h.74a.84.84,0,0,1,.19.07.29.29,0,0,1,.13.14.52.52,0,0,1,0,.23A.54.54,0,0,1,11.23,9.05Z"></path></g>
</symbol>

<symbol id="headcounts" viewBox="0 0 16 16">
  <title>headcounts</title><g id="Layer_1" data-name="Layer 1"><polygon points="13.28 10.84 13.28 8.12 11.39 8.12 11.39 10.84 8.67 10.84 8.67 12.73 11.39 12.73 11.39 15.45 13.28 15.45 13.28 12.73 16 12.73 16 10.84 13.28 10.84"></polygon><path d="M9.38,2.61a1.61,1.61,0,0,1,.44-.06,1.83,1.83,0,1,1,0,3.65,2.12,2.12,0,0,1-.44-.06,3.67,3.67,0,0,1-.36.6L8.84,7l.29.08a3,3,0,0,0,.69.1,2.78,2.78,0,0,0,0-5.55,3,3,0,0,0-.69.09l-.29.08L9,2A3.29,3.29,0,0,1,9.38,2.61Z"></path><path d="M12.34,2.61a1.61,1.61,0,0,1,.44-.06,1.83,1.83,0,1,1,0,3.65,2.12,2.12,0,0,1-.44-.06,3.67,3.67,0,0,1-.36.6L11.8,7l.29.08a3,3,0,0,0,.69.1,2.78,2.78,0,0,0,0-5.55,3,3,0,0,0-.69.09l-.29.08L12,2A3.29,3.29,0,0,1,12.34,2.61Z"></path><path d="M2.77,13.45a.7.7,0,0,1-.7-.7V10.16a.68.68,0,0,1,.44-.65L6,8.06,8.67,9.15l1.7-1c-.07,0-2.31-1-2.31-1A3.44,3.44,0,1,0,4,7.14L1.89,8A2.32,2.32,0,0,0,.45,10.16v2.59a2.32,2.32,0,0,0,2.32,2.33H8V13.45H2.77ZM6,2.55A1.83,1.83,0,1,1,4.2,4.37,1.83,1.83,0,0,1,6,2.55Z"></path></g>
</symbol>

<symbol id="house" viewBox="0 0 16 16">
  <title>house</title><g id="Layer_1" data-name="Layer 1"><path d="M15.81,8.29,13.93,6.4V2.62a.31.31,0,0,0-.31-.31H11.91a.31.31,0,0,0-.31.31V4.05L8.29.72a.45.45,0,0,0-.64,0L.2,8.29A.44.44,0,0,0,.52,9H2.78V15a.31.31,0,0,0,.31.31h2.8A.31.31,0,0,0,6.2,15V11A1.62,1.62,0,0,1,7.84,9.67h.4A1.59,1.59,0,0,1,9.85,11V15a.31.31,0,0,0,.31.31H13a.31.31,0,0,0,.31-.31V9h2.22A.44.44,0,0,0,15.81,8.29Z"></path></g>
</symbol>

<symbol id="household-add-person" viewBox="0 0 16 16">
  <title>household-add-person</title><g id="Layer_1" data-name="Layer 1"><path d="M3.91,13.54V8.83H2.07a0,0,0,0,1,0,0L7.55,2.55h0l4,4.56h1.78L8.59,1.66a1.36,1.36,0,0,0-2.06,0L1,7.9a1.34,1.34,0,0,0,1,2.23h.5v3.41A1.38,1.38,0,0,0,3.9,15H8.2V13.6H3.9S3.91,13.55,3.91,13.54Z"></path><path d="M14.58,12.19l-1.48-.61a1.83,1.83,0,1,0-1.68,0l-1.48.61a1.18,1.18,0,0,0-.73,1.1v1.49A1.19,1.19,0,0,0,10.39,16h3.74a1.19,1.19,0,0,0,1.18-1.19V13.29A1.18,1.18,0,0,0,14.58,12.19Z"></path><polygon points="7.54 11.17 7.54 11.17 7.53 11.17 7.54 11.17"></polygon><path d="M9.78,9a.68.68,0,0,0-.68-.66H8.2V7.41a.67.67,0,0,0-.66-.68h0a.69.69,0,0,0-.68.68v.92H6A.65.65,0,0,0,5.34,9V9A.69.69,0,0,0,6,9.69h.84v.81a.69.69,0,0,0,.69.67.66.66,0,0,0,.66-.67V9.69h.9A.71.71,0,0,0,9.78,9Z"></path><polygon points="9.78 8.98 9.78 8.99 9.78 9 9.78 8.98"></polygon></g>
</symbol>

<symbol id="l-arr" viewBox="0 0 16 16">
  <title>l-arr</title><g id="Layer_1" data-name="Layer 1"><path d="M8.68.29A.93.93,0,0,0,8,0a1,1,0,0,0-.7.27l-6.75,7a1,1,0,0,0,0,1.35l6.75,7A.91.91,0,0,0,8,16a1,1,0,0,0,.69-.28l1-1A.9.9,0,0,0,10,14a1,1,0,0,0-.27-.69L6.31,9.92h8.43a1,1,0,0,0,.68-.27A.87.87,0,0,0,15.7,9V7a.93.93,0,0,0-.28-.68,1,1,0,0,0-.68-.28H6.31L9.7,2.66A.9.9,0,0,0,10,2a1,1,0,0,0-.27-.68l-1-1Z"></path></g>
</symbol>

<symbol id="label-add-multiple" viewBox="0 0 16 16">
  <title>label-add-multiple</title><g id="Layer_1" data-name="Layer 1"><path d="M2,9.6H0l2.74,2.74v-2A.76.76,0,0,0,2,9.6Z" fill-rule="evenodd"></path><path d="M13.76,2.79A2.2,2.2,0,1,0,16,5,2.2,2.2,0,0,0,13.76,2.79Zm1.32,2.52h-1v1h-.66v-1h-1V4.65h1v-1h.66v1h1Z" fill-rule="evenodd"></path><path d="M11.09,5a2.59,2.59,0,0,1,.37-1.32H1.37A1.37,1.37,0,0,0,0,5V9.14H2A1.21,1.21,0,0,1,3.2,10.35v2H13.71A1.37,1.37,0,0,0,15.08,11V7.28a2.59,2.59,0,0,1-1.32.37A2.68,2.68,0,0,1,11.09,5Z" fill-rule="evenodd"></path><path d="M2.22,2.79a1.37,1.37,0,0,0-1,.44H11.82a2.81,2.81,0,0,1,.54-.44Z"></path><path d="M15.51,6.92v4.2a1.38,1.38,0,0,0,.45-1V6.38A2.93,2.93,0,0,1,15.51,6.92Z"></path></g>
</symbol>

<symbol id="label-birthday-add" viewBox="0 0 16 16">
  <title>label-birthday-add</title><g id="Layer_1" data-name="Layer 1"> <g id="label-birthday-add"> <path d="M1.993,9.6H.006l2.741,2.742V10.353A.755.755,0,0,0,1.993,9.6Z" fill-rule="evenodd"></path> <path d="M13.76,2.785a2.2,2.2,0,1,0,2.2,2.2A2.2,2.2,0,0,0,13.76,2.785Zm1.324,2.527H14.09v.994h-.66V5.312h-.995v-.66h.995V3.658h.66v.994h.994Z" fill-rule="evenodd"></path> <path d="M13.76,7.65a2.63,2.63,0,0,0,1.324-.366V10.97a1.371,1.371,0,0,1-1.371,1.371H3.2V10.353A1.211,1.211,0,0,0,1.993,9.142H0V5.03A1.371,1.371,0,0,1,1.371,3.659H11.457a2.636,2.636,0,0,0-.365,1.323A2.671,2.671,0,0,0,13.76,7.65Zm-.128,3.365.019,0a.1.1,0,0,0,.073-.113l-.021-.108a.9.9,0,1,0-.944-1.437,1.089,1.089,0,0,1,.8,1.045,1.074,1.074,0,0,1-.161.567.093.093,0,0,0,.082.048h.005a.654.654,0,0,0,.416.472l.042-.09a.567.567,0,0,1-.356-.382Zm-1,.5.019,0a.1.1,0,0,0,.073-.113l-.021-.108a.9.9,0,1,0-.3.031l-.016.077,0,.019a.1.1,0,0,0,.095.1h.035a.337.337,0,0,1-.222.354l.042.091a.434.434,0,0,0,.28-.445Z" fill-rule="evenodd"></path> </g> </g>
</symbol>

<symbol id="label-birthday" viewBox="0 0 16 16">
  <title>label-birthday</title><g id="Layer_1" data-name="Layer 1"> <g id="label-birthday"> <path d="M2,9.6H.006l2.746,2.747V10.358A.756.756,0,0,0,2,9.6Z" fill-rule="evenodd"></path> <path d="M13.74,3.651H1.374A1.373,1.373,0,0,0,0,5.024V9.145H2A1.213,1.213,0,0,1,3.21,10.358v1.991H13.74a1.373,1.373,0,0,0,1.374-1.373V5.024A1.373,1.373,0,0,0,13.74,3.651Zm-.149,7.364a.566.566,0,0,0,.356.381l-.042.091a.656.656,0,0,1-.416-.472h-.005a.093.093,0,0,1-.082-.048,1.074,1.074,0,0,0,.161-.567,1.089,1.089,0,0,0-.8-1.045.9.9,0,1,1,.943,1.437l.021.108a.1.1,0,0,1-.073.113l-.019,0Zm-.971.5a.434.434,0,0,1-.28.445l-.042-.091a.335.335,0,0,0,.222-.354h-.035a.1.1,0,0,1-.095-.1l0-.019.016-.077a.9.9,0,1,1,.3-.031l.021.108a.1.1,0,0,1-.073.113l-.019,0Z" fill-rule="evenodd"></path> </g> </g>
</symbol>

<symbol id="label-name-add" viewBox="0 0 16 16">
  <title>label-name-add</title><g id="Layer_1" data-name="Layer 1"><path d="M2,9.6H0l2.74,2.74v-2A.76.76,0,0,0,2,9.6Z" fill-rule="evenodd"></path><path d="M13.76,2.79A2.2,2.2,0,1,0,16,5,2.2,2.2,0,0,0,13.76,2.79Zm1.32,2.52h-1v1h-.66v-1h-1V4.65h1v-1h.66v1h1Z" fill-rule="evenodd"></path><path d="M11.09,5a2.59,2.59,0,0,1,.37-1.32H1.37A1.37,1.37,0,0,0,0,5V9.14H2A1.21,1.21,0,0,1,3.2,10.35v2H13.71A1.37,1.37,0,0,0,15.08,11V7.28a2.59,2.59,0,0,1-1.32.37A2.68,2.68,0,0,1,11.09,5Z" fill-rule="evenodd"></path></g>
</symbol>

<symbol id="label-name-circle" viewBox="0 0 16 16">
  <title>label-name-circle</title><g id="Layer_1" data-name="Layer 1"><path d="M2,9.6H0l2.74,2.74v-2A.76.76,0,0,0,2,9.6Z" fill-rule="evenodd"></path><path d="M13.76,2.79A2.2,2.2,0,1,0,16,5,2.2,2.2,0,0,0,13.76,2.79Z" fill-rule="evenodd"></path><path d="M11.09,5a2.59,2.59,0,0,1,.37-1.32H1.37A1.37,1.37,0,0,0,0,5V9.14H2A1.21,1.21,0,0,1,3.2,10.35v2H13.71A1.37,1.37,0,0,0,15.08,11V7.28a2.59,2.59,0,0,1-1.32.37A2.68,2.68,0,0,1,11.09,5Z" fill-rule="evenodd"></path></g>
</symbol>

<symbol id="label-name" viewBox="0 0 16 16">
  <title>label-name</title><g id="Layer_1" data-name="Layer 1"><path d="M2,9.6H0l2.74,2.75v-2A.76.76,0,0,0,2,9.6Z" fill-rule="evenodd"></path><path d="M13.74,3.65H1.37A1.37,1.37,0,0,0,0,5V9.14H2a1.22,1.22,0,0,1,1.21,1.22v2H13.74A1.37,1.37,0,0,0,15.11,11V5A1.37,1.37,0,0,0,13.74,3.65ZM12.19,9.14a.56.56,0,1,1-.56.56A.56.56,0,0,1,12.19,9.14Zm.9,2.21a.09.09,0,0,1-.09.08H11.38a.09.09,0,0,1-.09-.08v-.29a.58.58,0,0,1,.58-.57h.64a.58.58,0,0,1,.58.57Zm.44-1.86a.41.41,0,0,1,.41.42.42.42,0,0,1-.83,0A.42.42,0,0,1,13.53,9.49Zm.67,1.65a.07.07,0,0,1-.07.06h-.76a.09.09,0,0,1-.09-.08V11a.72.72,0,0,0-.15-.43.06.06,0,0,1,0-.1l.13,0h.49a.44.44,0,0,1,.43.44Z" fill-rule="evenodd"></path></g>
</symbol>

<symbol id="label-security-add" viewBox="0 0 16 16">
  <title>label-security-add</title><g id="Layer_1" data-name="Layer 1"><rect x="4.11" y="9.14" width="0.46" height="2.29"></rect><rect x="5.26" y="9.14" width="0.46" height="2.29"></rect><rect x="7.31" y="9.14" width="0.46" height="2.29"></rect><rect x="4.8" y="9.14" width="0.23" height="2.29"></rect><rect x="5.94" y="9.14" width="0.23" height="2.29"></rect><rect x="6.4" y="9.14" width="0.23" height="2.29"></rect><rect x="6.86" y="9.14" width="0.23" height="2.29"></rect><rect x="8" y="9.14" width="0.23" height="2.29"></rect><rect x="8.46" y="9.14" width="0.23" height="2.29"></rect><rect x="8.91" y="9.14" width="0.46" height="2.29"></rect><rect x="10.97" y="9.14" width="0.46" height="2.29"></rect><rect x="12.57" y="9.14" width="0.46" height="2.29"></rect><rect x="13.26" y="9.14" width="0.46" height="2.29"></rect><rect x="9.6" y="9.14" width="0.23" height="2.29"></rect><rect x="10.06" y="9.14" width="0.23" height="2.29"></rect><rect x="10.51" y="9.14" width="0.23" height="2.29"></rect><rect x="11.66" y="9.14" width="0.23" height="2.29"></rect><rect x="12.11" y="9.14" width="0.23" height="2.29"></rect><path d="M13.76,2.78A2.2,2.2,0,1,0,16,5,2.21,2.21,0,0,0,13.76,2.78Zm1.32,2.53h-1v1h-.66v-1h-1V4.65h1v-1h.66v1h1Z"></path><path d="M11.09,5a2.85,2.85,0,0,1,0-.41H.58a.92.92,0,0,1,.79-.46h9.88a1.85,1.85,0,0,1,.21-.45H1.37A1.37,1.37,0,0,0,0,5V9.6H0a.51.51,0,0,0,.13.32l2.29,2.29a.44.44,0,0,0,.32.13h11A1.37,1.37,0,0,0,15.08,11V7.28a2.59,2.59,0,0,1-1.32.37A2.68,2.68,0,0,1,11.09,5Zm-8.35,6.9L.46,9.6H2a.76.76,0,0,1,.76.76ZM14.63,11a.92.92,0,0,1-.92.91H3.2V10.36A1.22,1.22,0,0,0,2,9.14H.46V8.68H14.63Z"></path></g>
</symbol>

<symbol id="label-security-circle" viewBox="0 0 16 16">
  <title>label-security-circle</title><g id="Layer_1" data-name="Layer 1"><rect x="4.11" y="9.14" width="0.46" height="2.29"></rect><rect x="5.26" y="9.14" width="0.46" height="2.29"></rect><rect x="7.31" y="9.14" width="0.46" height="2.29"></rect><rect x="4.8" y="9.14" width="0.23" height="2.29"></rect><rect x="5.94" y="9.14" width="0.23" height="2.29"></rect><rect x="6.4" y="9.14" width="0.23" height="2.29"></rect><rect x="6.86" y="9.14" width="0.23" height="2.29"></rect><rect x="8" y="9.14" width="0.23" height="2.29"></rect><rect x="8.46" y="9.14" width="0.23" height="2.29"></rect><rect x="8.91" y="9.14" width="0.46" height="2.29"></rect><rect x="10.97" y="9.14" width="0.46" height="2.29"></rect><rect x="12.57" y="9.14" width="0.46" height="2.29"></rect><rect x="13.26" y="9.14" width="0.46" height="2.29"></rect><rect x="9.6" y="9.14" width="0.23" height="2.29"></rect><rect x="10.06" y="9.14" width="0.23" height="2.29"></rect><rect x="10.51" y="9.14" width="0.23" height="2.29"></rect><rect x="11.66" y="9.14" width="0.23" height="2.29"></rect><rect x="12.11" y="9.14" width="0.23" height="2.29"></rect><path d="M13.76,2.78A2.2,2.2,0,1,0,16,5,2.21,2.21,0,0,0,13.76,2.78Z"></path><path d="M11.09,5a2.85,2.85,0,0,1,0-.41H.58a.92.92,0,0,1,.79-.46h9.88a1.85,1.85,0,0,1,.21-.45H1.37A1.37,1.37,0,0,0,0,5V9.6H0a.51.51,0,0,0,.13.32l2.29,2.29a.44.44,0,0,0,.32.13h11A1.37,1.37,0,0,0,15.08,11V7.28a2.59,2.59,0,0,1-1.32.37A2.68,2.68,0,0,1,11.09,5Zm-8.35,6.9L.46,9.6H2a.76.76,0,0,1,.76.76ZM14.63,11a.92.92,0,0,1-.92.91H3.2V10.36A1.22,1.22,0,0,0,2,9.14H.46V8.68H14.63Z"></path></g>
</symbol>

<symbol id="label-security" viewBox="0 0 16 16">
  <title>label-security</title><g id="Layer_1" data-name="Layer 1"><rect x="4.12" y="9.14" width="0.46" height="2.29"></rect><rect x="5.27" y="9.14" width="0.46" height="2.29"></rect><rect x="7.33" y="9.14" width="0.46" height="2.29"></rect><rect x="4.81" y="9.14" width="0.23" height="2.29"></rect><rect x="5.95" y="9.14" width="0.23" height="2.29"></rect><rect x="6.41" y="9.14" width="0.23" height="2.29"></rect><rect x="6.87" y="9.14" width="0.23" height="2.29"></rect><rect x="8.01" y="9.14" width="0.23" height="2.29"></rect><rect x="8.47" y="9.14" width="0.23" height="2.29"></rect><rect x="8.93" y="9.14" width="0.46" height="2.29"></rect><rect x="10.99" y="9.14" width="0.46" height="2.29"></rect><rect x="12.59" y="9.14" width="0.46" height="2.29"></rect><rect x="13.28" y="9.14" width="0.46" height="2.29"></rect><rect x="9.62" y="9.14" width="0.23" height="2.29"></rect><rect x="10.08" y="9.14" width="0.23" height="2.29"></rect><rect x="10.53" y="9.14" width="0.23" height="2.29"></rect><rect x="11.68" y="9.14" width="0.23" height="2.29"></rect><rect x="12.14" y="9.14" width="0.23" height="2.29"></rect><path d="M13.32,6.12l-.56.56h0c-.08-.07-.15-.15-.22-.22a.16.16,0,0,0-.26,0,.17.17,0,0,0,0,.19l.34.34a.15.15,0,0,0,.23,0c.06,0,.11-.11.17-.17l.52-.51a.16.16,0,0,0-.23-.23Z"></path><path d="M13.74,3.65H1.37A1.37,1.37,0,0,0,0,5V9.6H0a.56.56,0,0,0,.13.32l2.29,2.29a.51.51,0,0,0,.33.13h11A1.37,1.37,0,0,0,15.11,11V5A1.37,1.37,0,0,0,13.74,3.65ZM1.37,4.11H13.74a.9.9,0,0,1,.79.46H.59A.88.88,0,0,1,1.37,4.11ZM14.2,5.92A2.49,2.49,0,0,1,14,7a3,3,0,0,1-.45.66,2.54,2.54,0,0,1-.64.49,0,0,0,0,1-.07,0,2.66,2.66,0,0,1-.54-.39,2.51,2.51,0,0,1-.65-1,1.88,1.88,0,0,1-.12-.45,3.25,3.25,0,0,1,0-.44,1.82,1.82,0,0,1,0-.32s0,0,0,0l.38-.07a2.57,2.57,0,0,0,.61-.2,1.2,1.2,0,0,0,.24-.15l.08,0h.05a2.07,2.07,0,0,0,.62.29,4.9,4.9,0,0,0,.55.13h.09s0,0,0,0a1.82,1.82,0,0,1,0,.32Zm-11.45,6L.46,9.6H2a.76.76,0,0,1,.77.77ZM14.66,11a.92.92,0,0,1-.92.91H3.21V10.37A1.23,1.23,0,0,0,2,9.14H.46V8.69h14.2Z"></path></g>
</symbol>

<symbol id="label" viewBox="0 0 16 16">
  <title>label</title><g id="Layer_1" data-name="Layer 1"><polygon points="4.22 14.07 3.36 14.07 3.36 12.33 1.62 12.33 1.62 11.46 4.22 11.46 4.22 14.07"></polygon><rect x="1.34" y="12.48" width="2.87" height="0.87" transform="translate(-8.32 5.75) rotate(-45)"></rect><path d="M14.36.75H1.62a.87.87,0,0,0-.87.87V8.28A2.32,2.32,0,0,0,3.07,10.6h2v2.31a2.32,2.32,0,0,0,2.32,2.32h7a.87.87,0,0,0,.87-.87V1.62A.87.87,0,0,0,14.36.75Zm-.6,13H7.41a.84.84,0,0,1-.84-.85V9.12H3.07a.85.85,0,0,1-.85-.84V2.22H13.76Z"></path></g>
</symbol>

<symbol id="linux" viewBox="0 0 16 16">
  <title>linux</title><g id="Layer_1" data-name="Layer 1"><path d="M14,13.49c0-.12-.08-.32-.34-.61h0a1.18,1.18,0,0,1-.22-.57.89.89,0,0,0-.21-.47h0a.56.56,0,0,0-.45-.13h-.12a1.17,1.17,0,0,1-1,.41.78.78,0,0,1-.47-.74l0,0a.72.72,0,0,0-.34.52,5,5,0,0,0-.11,1h0a5.79,5.79,0,0,1-.25,1,1.4,1.4,0,0,0,0,.9h0a.82.82,0,0,0,.84.49,1.71,1.71,0,0,0,1.09-.64,4.21,4.21,0,0,1,1.31-.84C13.85,13.71,13.94,13.62,14,13.49Zm-8,.92a1.46,1.46,0,0,0-.39-.84,6.87,6.87,0,0,1-.64-.88h0L4.4,11.8a.84.84,0,0,0-.54-.4H3.77a.48.48,0,0,0-.35.18c-.12.13-.23.31-.36.45h0a1.14,1.14,0,0,1-.49.25.58.58,0,0,0-.37.28h0a.83.83,0,0,0,0,.5,1.35,1.35,0,0,1,0,.6h0a.86.86,0,0,0-.07.66.52.52,0,0,0,.39.21A5.49,5.49,0,0,1,4,14.86H4a1.91,1.91,0,0,0,1.28.25.72.72,0,0,0,.6-.7ZM9,4.39a.49.49,0,0,0-.24-.2h0A2.93,2.93,0,0,1,8.27,4a1.17,1.17,0,0,0-.61-.21l-.23,0A1.05,1.05,0,0,0,7,4.1H7l-.08.07a2.23,2.23,0,0,0-.25.18.23.23,0,0,0-.09.28A.64.64,0,0,0,6.92,5h0a2,2,0,0,1,.31.25l.16.1a.52.52,0,0,0,.23,0,.87.87,0,0,0,.5-.13A3.15,3.15,0,0,1,8.51,5h0A.79.79,0,0,0,9,4.62.3.3,0,0,0,9,4.39ZM11,10.58c.06-.43.4-.44.42-.73a7.23,7.23,0,0,0-.74-2,16.08,16.08,0,0,1-1.16-3,1.36,1.36,0,0,1-.7.47,3.89,3.89,0,0,0-.5.28,1.29,1.29,0,0,1-.66.19H7.54A1,1,0,0,1,7,5.56a3,3,0,0,0-.4-.33l-.19-.12A11.43,11.43,0,0,1,5.14,8.63a5.36,5.36,0,0,0-.43,1.92A.77.77,0,0,0,5,11.2a4.49,4.49,0,0,1,1.2,1,.89.89,0,0,1,.23.78.4.4,0,0,1-.22.22.67.67,0,0,1-.3.06l.18.23a4.44,4.44,0,0,1,.27.38,3.06,3.06,0,0,0,3.57-.22,5.5,5.5,0,0,0,.22-.9,7.17,7.17,0,0,1,.13-1.25,1.19,1.19,0,0,1,.54-.8l.13-.06S11,10.6,11,10.58ZM7.31,3.41h0a.6.6,0,0,0,0-.19h0a1.29,1.29,0,0,0-.1-.44A.74.74,0,0,0,7,2.47a.39.39,0,0,0-.27-.1h0a.43.43,0,0,0-.28.13.8.8,0,0,0-.19.34,1.27,1.27,0,0,0,0,.44h0a1.18,1.18,0,0,0,.1.43A.73.73,0,0,0,6.46,4l.08-.07.12-.09,0,0a.38.38,0,0,1-.11-.16.79.79,0,0,1-.06-.22h0a.86.86,0,0,1,0-.23A.38.38,0,0,1,6.57,3a.21.21,0,0,1,.12-.08h0A.17.17,0,0,1,6.83,3a.33.33,0,0,1,.11.16A.79.79,0,0,1,7,3.38H7a1,1,0,0,1,0,.17,1.36,1.36,0,0,1,.27-.13Zm2.17-.18h0v0a1.18,1.18,0,0,0-.12-.49.83.83,0,0,0-.29-.37.67.67,0,0,0-.39-.14h0a.62.62,0,0,0-.39.14A.92.92,0,0,0,8,2.73a1.22,1.22,0,0,0-.1.51v0a.76.76,0,0,0,0,.15,1.74,1.74,0,0,1,.4.14s0-.11,0-.16h0a1.06,1.06,0,0,1,.06-.28.51.51,0,0,1,.14-.2.25.25,0,0,1,.17-.07h0a.22.22,0,0,1,.18.08A.44.44,0,0,1,9,3.12a.8.8,0,0,1,0,.27H9A1.27,1.27,0,0,1,9,3.68a.87.87,0,0,1-.12.14L9,3.88,9.17,4l.06,0a1,1,0,0,0,.14-.24A1.09,1.09,0,0,0,9.48,3.23Zm4.65,9.39a1.43,1.43,0,0,1,.48.93.78.78,0,0,1-.44.57,5.61,5.61,0,0,0-1.59,1l-.08-.07.08.07a2.31,2.31,0,0,1-1.51.88,1.25,1.25,0,0,1-1.25-.72h0a.86.86,0,0,1-.07-.21c-.67,0-1.26-.17-1.73-.13-.68,0-1.11.2-1.51.2a1.13,1.13,0,0,1-.81.64A2.67,2.67,0,0,1,4,15.45l0-.09,0,.09a6.45,6.45,0,0,0-1.86-.39.88.88,0,0,1-.63-.38,1.33,1.33,0,0,1,.07-1,1.45,1.45,0,0,0,0-.65,2.21,2.21,0,0,1,0-.37.73.73,0,0,1,.09-.38h0a1,1,0,0,1,.58-.46,1.2,1.2,0,0,0,.53-.26c.14-.15.27-.37.44-.56l.08-.07a3.42,3.42,0,0,1,.19-1.66,9.79,9.79,0,0,1,1.81-3,3.6,3.6,0,0,0,.71-2c0-1-.71-4,2.11-4.21h.33c2.52,0,2.38,2.67,2.37,4.1a3.51,3.51,0,0,0,1,2.25A8.46,8.46,0,0,1,13.2,8.68a3.6,3.6,0,0,1,.12,2.47l.13.06.12.09h0a1.18,1.18,0,0,1,.33.71,1.59,1.59,0,0,0,.23.61Z"></path></g>
</symbol>

<symbol id="microsoft-edge" viewBox="0 0 16 16">
  <title>microsoft-edge</title><g id="Layer_1" data-name="Layer 1"><path d="M.61,7.11h0A9.73,9.73,0,0,1,1.14,5,8,8,0,0,1,2.17,3,7.73,7.73,0,0,1,3.66,1.43a6.91,6.91,0,0,1,2-1A7.94,7.94,0,0,1,8.13,0a7.25,7.25,0,0,1,3.7.94,7,7,0,0,1,2.63,2.72,8,8,0,0,1,.93,4V9.29h-10A3.14,3.14,0,0,0,5.81,11,3,3,0,0,0,7,12.1a5.62,5.62,0,0,0,1.7.51,6.72,6.72,0,0,0,1.9,0,9.65,9.65,0,0,0,1.86-.42A6,6,0,0,0,14,11.47v3.37a8,8,0,0,1-2,.82A11.22,11.22,0,0,1,9.2,16a7.68,7.68,0,0,1-2.83-.47A6,6,0,0,1,3.59,13.3,5.82,5.82,0,0,1,2.48,10a6.31,6.31,0,0,1,1-3.69A6.9,6.9,0,0,1,6.37,3.9,5.05,5.05,0,0,0,5.68,5a5.84,5.84,0,0,0-.42,1.42h5.68a3.66,3.66,0,0,0-.07-1.25,2.51,2.51,0,0,0-.42-.9,3.56,3.56,0,0,0-.63-.6,2.43,2.43,0,0,0-.72-.36c-.24-.08-.47-.14-.67-.19a2.81,2.81,0,0,0-.5-.07h-.2a8.94,8.94,0,0,0-2.32.39,8.19,8.19,0,0,0-2,.94A10.51,10.51,0,0,0,1.84,5.64,9.59,9.59,0,0,0,.61,7.11Z"></path></g>
</symbol>

<symbol id="minus-circle" viewBox="0 0 16 16">
  <title>minus-circle</title><g id="Layer_1" data-name="Layer 1"><path d="M8,0a8,8,0,1,0,8,8A8,8,0,0,0,8,0ZM8,14.32A6.32,6.32,0,1,1,14.32,8,6.32,6.32,0,0,1,8,14.32Z"></path><path d="M11,7.18H5A.81.81,0,1,0,5,8.79h6a.81.81,0,1,0,0-1.61Z"></path></g>
</symbol>

<symbol id="mobile-pass" viewBox="0 0 16 16">
  <title>mobile-pass</title><g id="Layer_1" data-name="Layer 1"><path d="M12.65,14.3A1.7,1.7,0,0,1,11,16H5.05a1.7,1.7,0,0,1-1.7-1.7V1.7A1.7,1.7,0,0,1,5.05,0H11a1.7,1.7,0,0,1,1.7,1.7V14.3Zm-.77-11H4.1v9.17h7.78ZM9.56,1.7a.2.2,0,0,0-.19-.19H6.63a.2.2,0,0,0-.19.19h0a.19.19,0,0,0,.19.19H9.37a.19.19,0,0,0,.19-.19ZM5.92,13.88a.41.41,0,1,0,.4.4A.4.4,0,0,0,5.92,13.88Zm2.08,0a.41.41,0,1,0,.4.4A.4.4,0,0,0,8,13.88Zm2.08,0a.41.41,0,1,0,.4.4A.4.4,0,0,0,10.08,13.88Z"></path><rect x="10.39" y="10.39" width="0.68" height="0.68"></rect><rect x="9.02" y="9.02" width="0.68" height="0.68"></rect><rect x="10.39" y="9.02" width="0.68" height="0.68"></rect><rect x="9.7" y="8.34" width="0.68" height="0.68"></rect><rect x="9.02" y="10.39" width="0.68" height="0.68"></rect><rect x="9.7" y="9.7" width="0.68" height="0.68"></rect><rect x="8.34" y="9.7" width="0.68" height="0.68"></rect><rect x="8.34" y="8.34" width="0.68" height="0.68"></rect><path d="M4.93,8.34v2.73H7.66V8.34ZM7,10.39H5.61V9H7Z"></path><path d="M4.93,4.93V7.66H7.66V4.93ZM7,7H5.61V5.61H7Z"></path><path d="M8.34,4.93V7.66h2.73V4.93ZM10.39,7H9V5.61h1.37Z"></path></g>
</symbol>

<symbol id="new-station" viewBox="0 0 16 16">
  <title>new-station</title><g id="Layer_1" data-name="Layer 1"><path d="M5.17,6.65,3.7,8.12l3.45,3.44h0L12.76,6,11.25,4.44,7.11,8.58ZM13,0H3A2.9,2.9,0,0,0,0,2.91V13a3,3,0,0,0,3,3H9.41a4.62,4.62,0,0,1-1.16-1.89H2.91a1,1,0,0,1-1-1V2.91a1,1,0,0,1,1-1H13.09a1,1,0,0,1,1,1V8.3A4.47,4.47,0,0,1,16,9.5V2.91A2.9,2.9,0,0,0,13,0Z"></path><path d="M12.63,9.34A3.33,3.33,0,1,0,16,12.67,3.33,3.33,0,0,0,12.63,9.34Zm2,3.83H13.13v1.51h-1V13.17h-1.5v-1h1.5V10.66h1v1.51h1.51Z"></path></g>
</symbol>

<symbol id="people" viewBox="0 0 16 16">
  <title>people</title><g id="Layer_1" data-name="Layer 1"><path d="M16,14.8a22,22,0,0,0-.22-3.34c-.27-.47-.91-.79-2.1-1.29s-1.57-.91-1.57-1.81c0-.54.36-.36.52-1.35.07-.41.39,0,.45-.94,0-.37-.18-.46-.18-.46s.09-.55.13-1a1.79,1.79,0,0,0-1.92-1.89A1.78,1.78,0,0,0,9.2,4.64c0,.42.12,1,.12,1s-.17.09-.17.46c.06.94.38.54.45.94.16,1,.52.81.52,1.35A1.46,1.46,0,0,1,9.46,9.7c2.59,1.3,2.94,1.56,2.94,2.72V14.8ZM8.18,10.62C6.6,10,6.09,9.4,6.09,8.21c0-.72.48-.49.7-1.8.08-.54.51,0,.59-1.25,0-.5-.23-.62-.23-.62s.12-.73.16-1.3A2.37,2.37,0,0,0,4.76.72,2.38,2.38,0,0,0,2.21,3.24c0,.57.17,1.3.17,1.3s-.24.12-.24.62c.09,1.24.51.71.6,1.25.21,1.31.7,1.08.7,1.8,0,1.19-.51,1.75-2.09,2.41-.48.2-1.35.52-1.35,1.27V14.8H11.11V12.62C11.11,11.93,9.77,11.29,8.18,10.62Z"></path></g>
</symbol>

<symbol id="plus-circle" viewBox="0 0 16 16">
  <title>plus-circle</title><g id="Layer_1" data-name="Layer 1"><path d="M8,0a8,8,0,1,0,8,8A8,8,0,0,0,8,0ZM8,14.33A6.33,6.33,0,1,1,14.32,8,6.32,6.32,0,0,1,8,14.33Z"></path><path d="M11,7.18H8.8V5A.81.81,0,1,0,7.19,5v2.2H5A.81.81,0,0,0,5,8.8H7.19V11A.81.81,0,1,0,8.8,11V8.8H11a.81.81,0,1,0,0-1.62Z"></path></g>
</symbol>

<symbol id="r-arr-enclosed" viewBox="0 0 16 16">
  <title>r-arr-enclosed</title><g id="Layer_1" data-name="Layer 1"><path d="M12.62,7.5h0v0l-.05,0L9,3.86A.8.8,0,0,0,7.86,5l2.19,2.19H4a.8.8,0,1,0,0,1.6h6.07L7.86,11a.8.8,0,0,0,0,1.13.79.79,0,0,0,1.13,0l3.55-3.55h0s0,0,.05,0l0,0v0A.75.75,0,0,0,12.77,8,.81.81,0,0,0,12.62,7.5ZM8,0a8,8,0,1,0,8,8A8,8,0,0,0,8,0ZM8,14.37A6.4,6.4,0,1,1,14.37,8,6.4,6.4,0,0,1,8,14.37Z"></path></g>
</symbol>

<symbol id="report-formats" viewBox="0 0 16 16">
  <title>report-formats</title><g id="Layer_1" data-name="Layer 1"><path d="M2,13v-11H7V3.92a.13.13,0,0,0,0,.1.15.15,0,0,0,.1,0H10v1h2V3.79a.58.58,0,0,0-.18-.43L7.61.22A.66.66,0,0,0,7.17.05H.62A.61.61,0,0,0,0,.66V14.41a.64.64,0,0,0,.18.43A.67.67,0,0,0,.62,15H5L3.85,13Zm13-1.56v-.08c0-.07,0-.15,0-.22h0v-.27c0-.08,0-.15,0-.23v-.06l1-.73a.1.1,0,0,0,0-.12L14.57,7.33a.09.09,0,0,0-.12,0l-1.14.5-.09-.06-.06,0-.1-.07-.08,0,0,0h0l-.18-.09h0l-.06,0a.31.31,0,0,1-.1,0l-.14-1.21a.08.08,0,0,0-.09-.08H9.51a.09.09,0,0,0-.09.08L9.28,7.37h0L9,7.48l0,0-.12.06-.08.06-.06,0-.2.13h0L7.39,7.3a.09.09,0,0,0-.12,0L5.86,9.72a.08.08,0,0,0,0,.12l1,.73v.07s0,.09,0,.14v.09s0,.05,0,.08a.13.13,0,0,0,0,.06.2.2,0,0,0,0,.07s0,.05,0,.07v.07s0,.09,0,.13v.1l-1,.73a.07.07,0,0,0,0,.11l1.41,2.39a.1.1,0,0,0,.12,0l1.14-.49h0l.22.15h0l.1.06a2.69,2.69,0,0,0,.38.19h0l.14,1.22a.09.09,0,0,0,.09.08h2.82a.08.08,0,0,0,.09-.08l.14-1.22.08,0,.1,0h0l.07,0h0l0,0,0,0h0l.05,0h0l.18-.11.06,0,.09-.06,1.14.5a.1.1,0,0,0,.12,0L16,12.3a.1.1,0,0,0,0-.12Zm-1.85-.33v.09s0,.08,0,.12,0,.05,0,.07l0,.14s0,0,0,.06,0,.09,0,.14l0,.06s0,.09-.05.13h0l0,.06a.41.41,0,0,0,0,.09l0,.06,0,0,0,.06-.06.09,0,0,0,0-.09.09,0,0,0,0-.11.1,0,0,0,0-.12.09,0,0h0l-.12.08-.06,0-.13.07-.06,0-.14.05-.06,0-.15,0h-.06l-.17,0h-.48l-.2,0h0l-.2,0h0a2.17,2.17,0,0,1-1.43-1.41h0c0-.06,0-.12-.05-.19v0a1.25,1.25,0,0,1,0-.19v0a1.34,1.34,0,0,1,0-.2h0v0a1.21,1.21,0,0,1,0-.19v0l0-.16s0,0,0-.06a.57.57,0,0,1,0-.14.14.14,0,0,1,0-.07.69.69,0,0,1,.05-.13s0,0,0-.07A.67.67,0,0,1,9,10L9,10l.07-.12h0l0-.06.08-.1,0,0,0,0,.09-.1,0,0,0,0,.09-.07,0,0,0,0,.07-.05.08,0,0,0,0,0,.11-.05.07,0L10.12,9l.05,0,.15,0,.06,0,.14,0h.07l.14,0h.6l.13,0,.07,0,.13,0,.08,0,.12.05.08,0,.11.06.08.06.1.06.08.07.08.06.08.08.08.07.07.09.06.08a.36.36,0,0,1,.07.1.18.18,0,0,1,.05.07.75.75,0,0,1,.07.12l0,.07.06.12,0,.07s0,.09,0,.14,0,0,0,.06l0,.14s0,0,0,.07,0,.08,0,.12v.31Z"></path></g>
</symbol>

<symbol id="report-preview" viewBox="0 0 16 16">
  <title>report-preview</title><g id="Layer_1" data-name="Layer 1"><path d="M12,3.19l-4-3A.63.63,0,0,0,7.57.05H1.37A.59.59,0,0,0,1,.22.57.57,0,0,0,.78.63v13a.54.54,0,0,0,.17.4.59.59,0,0,0,.42.17h4.1l-1-1.89H2.67V2H7.43V3.72a.13.13,0,0,0,0,.09.13.13,0,0,0,.1,0h2.68v.94h1.89V3.59A.54.54,0,0,0,12,3.19Z"></path><path d="M15,14.31l-2.54-2.55A4.18,4.18,0,0,0,13,9.59a4.4,4.4,0,0,0-4.3-4.3A4.18,4.18,0,0,0,4.56,9.47a4.4,4.4,0,0,0,4.31,4.3A4.18,4.18,0,0,0,11,13.2l2.56,2.56a.65.65,0,0,0,.91,0l.64-.63C15.33,14.88,15.24,14.56,15,14.31ZM8.74,12.07a2.54,2.54,0,1,1,2.54-2.54A2.54,2.54,0,0,1,8.74,12.07Z"></path></g>
</symbol>

<symbol id="sort-down" viewBox="0 0 16 16">
  <title>sort-down</title><g id="Layer_1" data-name="Layer 1"><path d="M3,0V12H0l4,4,4-4H5V0ZM7,0V2h9V0ZM7,4V6h7V4ZM7,8v2h5V8Z"></path></g>
</symbol>

<symbol id="station-options" viewBox="0 0 16 16">
  <title>station-options</title><g id="Layer_1" data-name="Layer 1"><g id="Your_Icon" data-name="Your Icon"><path d="M13.81,3.83H7.61a1,1,0,0,1-1-1.06,1,1,0,0,1,1-1h6.2a1,1,0,0,1,1,1.05A1,1,0,0,1,13.81,3.83Z"></path><path d="M3.72,4.14H2.19a1,1,0,0,1-1-1V2.41a1,1,0,0,1,1-1.06H3.72a1,1,0,0,1,1,1.06v.68A1,1,0,0,1,3.72,4.14Z"></path><path d="M13.81,9.05H7.61a1.05,1.05,0,0,1,0-2.1h6.2a1.05,1.05,0,0,1,0,2.1Z"></path><path d="M3.72,9.4H2.19a1,1,0,0,1-1-1.06V7.66a1,1,0,0,1,1-1H3.72a1,1,0,0,1,1,1v.68A1,1,0,0,1,3.72,9.4Z"></path><path d="M13.81,14.3H7.61a1.05,1.05,0,0,1,0-2.1h6.2a1.05,1.05,0,0,1,0,2.1Z"></path><path d="M3.72,14.65H2.19a1,1,0,0,1-1-1.06v-.68a1,1,0,0,1,1-1.05H3.72a1,1,0,0,1,1,1.05v.68A1,1,0,0,1,3.72,14.65Z"></path></g></g>
</symbol>

<symbol id="station" viewBox="0 0 16 16">
  <title>station</title><g id="Layer_1" data-name="Layer 1"><path d="M13,0H3a2.89,2.89,0,0,0-3,2.88V13a3,3,0,0,0,3,3H13a3,3,0,0,0,3-3v-10A2.89,2.89,0,0,0,13,0Zm1.08,13a1,1,0,0,1-1,1H2.93a1,1,0,0,1-1-1V2.92a1,1,0,0,1,1-1H13.07a1,1,0,0,1,1,1ZM10.68,5.15,7.19,8.64,5.79,7.25a1,1,0,0,0-1.4,1.39l2.1,2.1a1,1,0,0,0,1.39,0l4.2-4.19a1,1,0,0,0,0-1.4A1,1,0,0,0,10.68,5.15Z" fill-rule="evenodd"></path></g>
</symbol>

<symbol id="tick-box-full" viewBox="0 0 16 16">
  <title>tick-box-full</title><g id="Layer_1" data-name="Layer 1"><path d="M13,0H3A2.9,2.9,0,0,0,0,2.91V13a3,3,0,0,0,3,3H13a3,3,0,0,0,3-3V2.91A2.9,2.9,0,0,0,13,0Zm1.08,13.07a1,1,0,0,1-1,1H2.91a1,1,0,0,1-1-1V2.91a1,1,0,0,1,1-1H13.09a1,1,0,0,1,1,1Z" fill-rule="evenodd"></path><polygon points="7.11 8.58 5.17 6.65 3.71 8.12 7.15 11.56 7.15 11.56 7.15 11.56 12.76 5.95 11.25 4.44 7.11 8.58" fill-rule="evenodd"></polygon></g>
</symbol>

<symbol id="tick-box-open" viewBox="0 0 16 16">
  <title>tick-box-open</title><g id="Layer_1" data-name="Layer 1"><path d="M13,0H3A2.9,2.9,0,0,0,0,2.91V13a3,3,0,0,0,3,3H13a3,3,0,0,0,3-3V2.91A2.9,2.9,0,0,0,13,0Zm1.08,13.07a1,1,0,0,1-1,1H2.91a1,1,0,0,1-1-1V2.91a1,1,0,0,1,1-1H13.09a1,1,0,0,1,1,1Z" fill-rule="evenodd"></path></g>
</symbol>

<symbol id="windows" viewBox="0 0 16 16">
  <title>windows</title><g id="Layer_1" data-name="Layer 1"><path d="M0,2.27l6.52-.89V7.67L0,7.7ZM6.54,8.39v6.29L0,13.79V8.35Zm.79-7.13L16,0V7.59l-8.64.06ZM16,8.45V16L7.33,14.78V8.43Z"></path></g>
</symbol>

<symbol id="x" viewBox="0 0 16 16">
  <title>x</title><g id="Layer_1" data-name="Layer 1"><polygon points="14.3 4.34 11.63 1.66 8 5.29 4.38 1.66 1.7 4.34 5.33 7.96 1.7 11.59 4.38 14.27 8 10.64 11.63 14.27 14.3 11.59 10.68 7.96 14.3 4.34" fill-rule="evenodd"></polygon></g>
</symbol>
    </svg>