<svg xmlns="http://www.w3.org/2000/svg" xmlns:xlink="http://www.w3.org/1999/xlink">
    
<symbol id="Artboard 55" class="symbol" viewBox="0 0 16 16">
  <title>Artboard 55</title><g id="a908487b-6b60-4c55-97da-eeb716e1d818" data-name="Layer 1"><path d="M14.5,7.847,9.026,1.623a1.366,1.366,0,0,0-2.052,0L1.5,7.847a1.31,1.31,0,0,0-.219,1.44,1.328,1.328,0,0,0,1.246.778h.5v3.4a1.375,1.375,0,0,0,1.334,1.407h7.3a1.4,1.4,0,0,0,1.369-1.407v-3.4h.453a1.328,1.328,0,0,0,1.246-.778A1.309,1.309,0,0,0,14.5,7.847ZM8.016,2.512,13.5,8.719c0,.007-.006,0-.022,0h-1.8v4.75c0,.011-.01.06-.022.06h-7.3c-.012,0,.012-.049.012-.06v-4.7H2.527c-.005,0-.02-.018-.012-.033L7.989,2.512"/><path d="M9.539,8.277h-.9V7.355a.658.658,0,0,0-.654-.674h-.01a.681.681,0,0,0-.682.674v.922H6.461a.65.65,0,0,0-.674.645v.014a.686.686,0,0,0,.674.688H7.29v.809a.69.69,0,0,0,.692.674h-.01a.666.666,0,0,0,.664-.674V9.624h.9a.7.7,0,0,0,.674-.7v.014A.662.662,0,0,0,9.539,8.277Z"/></g>
</symbol>

<symbol id="admin-panel" class="symbol" viewBox="0 0 16 16">
  <title>admin-panel</title><g id="b8c57883-fa9d-4e96-8a74-50dab02be6b7" data-name="Layer 1"><path d="M1.461,12.014V4.091h12.3V5.566l1.461-.494V2.041a.869.869,0,0,0-.247-.609.828.828,0,0,0-.6-.252H.866a.832.832,0,0,0-.6.252.869.869,0,0,0-.247.609V13.48H6.528l-.8-1.466ZM4.614,2.227a.539.539,0,1,1-.527.539A.534.534,0,0,1,4.614,2.227Zm-1.564,0a.539.539,0,1,1-.527.539A.534.534,0,0,1,3.05,2.227ZM.958,2.766a.528.528,0,1,1,.528.539A.534.534,0,0,1,.958,2.766ZM14.867,9.7l-.093-.722.588-.877L14.5,6.833l-1.081.423L12.8,6.833l-.155-.988-1.421-.187-.495.972-.679.2-.866-.612-1.143.612.336,1.05-.423.727L6.9,8.789,6.74,10.3l.911.31s.355.975.263.975a5.2,5.2,0,0,0-.649.847l.742,1.191,1.237-.5.586.5.093,1.1,1.452.22.433-.971.649-.158.988.565,1.081-.752-.308-1.035.308-.626,1.175-.252.247-1.5Zm-3.522,2.622A2.028,2.028,0,1,1,13.43,10.3,2.057,2.057,0,0,1,11.345,12.323Z"/></g>
</symbol>

<symbol id="android" class="symbol" viewBox="0 0 16 16">
  <title>android</title><g id="6dee6806-d6c3-4a1b-8f66-8ee0035d5a7a" data-name="Layer 1"><path d="M10.518,2.341v0a.518.518,0,0,0-1.035,0v0a.518.518,0,0,0,1.035,0Zm-3.861,0v0a.517.517,0,0,0-1.034,0v0a.517.517,0,0,0,1.034,0Zm4.771-.709a3.627,3.627,0,0,1,1.08,2.5H3.492A3.618,3.618,0,0,1,4.551,1.654L3.717.211A.141.141,0,0,1,3.961.07l.8,1.383A4.788,4.788,0,0,1,7.5.282h1a4.8,4.8,0,0,1,2.717,1.151L12.006.07a.14.14,0,1,1,.243.141Zm2.722,3.5a1,1,0,0,1,1,1v4.288a1,1,0,1,1-2,0V6.135A1,1,0,0,1,14.15,5.135Zm-12.3,0a1,1,0,0,1,1,1v4.288a1,1,0,1,1-2,0V6.135A1,1,0,0,1,1.851,5.135Zm7.4,7.3H6.745V15a1,1,0,0,1-2,0V12.431H4.7a1.248,1.248,0,0,1-1.239-1.262v-6.5c0-.039,0-.077.006-.115h9.076c0,.037,0,.076,0,.115v6.5A1.248,1.248,0,0,1,11.3,12.431h-.049V15a1,1,0,0,1-2,0Z"/></g>
</symbol>

<symbol id="apple" class="symbol" viewBox="0 0 16 16">
  <title>apple</title><g id="2986cf60-964f-48b4-aa7c-e4e7ab6e1675" data-name="Layer 1"><path d="M8.675,1.392A3.426,3.426,0,0,1,11.188,0a3.419,3.419,0,0,1-.827,2.558,2.7,2.7,0,0,1-2.383,1.12A2.971,2.971,0,0,1,8.675,1.392Zm-.563,3.2c.541,0,1.544-.744,2.851-.744a3.572,3.572,0,0,1,3.134,1.6,3.473,3.473,0,0,0-1.731,3.031,3.562,3.562,0,0,0,2.156,3.256s-1.507,4.242-3.542,4.242c-.935,0-1.662-.63-2.647-.63-1,0-2,.653-2.648.653-1.859,0-4.207-4.023-4.207-7.257,0-3.182,1.988-4.851,3.852-4.851,1.211,0,2.152.7,2.782.7Z"/></g>
</symbol>

<symbol id="bar-code" class="symbol" viewBox="0 0 16 16">
  <title>bar-code</title><g id="3c121faa-bfe2-4a0a-b7db-5147fbcef47e" data-name="Layer 1"><rect x="1.472" y="4.635" width="1.154" height="6.729"/><path d="M15.024,3.225H1a1,1,0,0,0-1,1v7.554a1,1,0,0,0,1,1H15.024a1,1,0,0,0,1-1V4.223A1,1,0,0,0,15.024,3.225Zm.411,8.552a.412.412,0,0,1-.411.411H1a.412.412,0,0,1-.411-.411V4.223A.411.411,0,0,1,1,3.812H15.024a.411.411,0,0,1,.411.411Z"/><rect x="3.839" y="4.635" width="0.567" height="6.729"/><rect x="3.202" y="4.635" width="0.25" height="6.729"/><rect x="5.111" y="4.635" width="1.349" height="6.729"/><rect x="7.028" y="4.635" width="0.587" height="6.729"/><rect x="10.735" y="4.635" width="1.35" height="6.729"/><rect x="9.581" y="4.635" width="0.587" height="6.729"/><rect x="8.368" y="4.635" width="0.587" height="6.729"/><rect x="13.845" y="4.635" width="0.587" height="6.729"/><rect x="12.633" y="4.635" width="0.586" height="6.729"/></g>
</symbol>

<symbol id="barcode-camera" class="symbol" viewBox="0 0 16 16">
  <title>barcode-camera</title><g id="1ad45863-f2d0-4478-a0c5-ea800f754d65" data-name="Layer 1"><path d="M14.661,2.968H12.2a.95.95,0,0,0-.947-.947h-6.5a.95.95,0,0,0-.947.947H1.333A1.337,1.337,0,0,0,0,4.3v8.1a1.337,1.337,0,0,0,1.333,1.333H14.661A1.337,1.337,0,0,0,15.994,12.4V4.3A1.337,1.337,0,0,0,14.661,2.968ZM7.994,12.2a4.2,4.2,0,1,1,4.2-4.2A4.2,4.2,0,0,1,7.994,12.2Z"/><path d="M7.994,4.3a3.7,3.7,0,1,0,3.7,3.7A3.7,3.7,0,0,0,7.994,4.3Zm0,6.9a3.2,3.2,0,1,1,3.2-3.2A3.2,3.2,0,0,1,7.994,11.2Z"/><rect x="5.735" y="6.258" width="0.651" height="3.484"/><rect x="6.706" y="6.258" width="0.326" height="3.484"/><rect x="7.351" y="6.258" width="0.651" height="3.484"/><rect x="9.614" y="6.258" width="0.651" height="3.484"/><rect x="8.323" y="6.258" width="0.326" height="3.484"/><rect x="8.968" y="6.258" width="0.326" height="3.484"/></g>
</symbol>

<symbol id="birthday" class="symbol" viewBox="0 0 16 16">
  <title>birthday</title><g id="b8dcc9d4-783d-4306-a11c-545959596efa" data-name="Layer 1"><path d="M9,2.314a1.13,1.13,0,0,1-2.259,0A2.747,2.747,0,0,1,7.989.068a2.951,2.951,0,0,0,.273.957C8.475,1.4,9,1.617,9,2.314Z"/><path d="M5,2.314a1.13,1.13,0,0,1-2.259,0A2.747,2.747,0,0,1,3.989.068a2.951,2.951,0,0,0,.273.957C4.475,1.4,5,1.617,5,2.314Z"/><path d="M13,2.314a1.13,1.13,0,0,1-2.259,0A2.747,2.747,0,0,1,11.989.068a2.951,2.951,0,0,0,.273.957C12.475,1.4,13,1.617,13,2.314Z"/><path d="M15.285,8.758H12.428V4.1a.781.781,0,0,0-1.109,0V8.758H8.428V4.1a.659.659,0,0,0-.555-.231.658.658,0,0,0-.554.231V8.758H4.428V4.1a.659.659,0,0,0-.555-.231.658.658,0,0,0-.554.231V8.758H.715a.5.5,0,0,0-.5.5v1.865a2.883,2.883,0,0,0,2.063.722c1.385,0,2.351-.691,2.351-1.312h1c0,.621.966,1.312,2.351,1.312s2.35-.691,2.35-1.312h1c0,.621.966,1.312,2.352,1.312a2.831,2.831,0,0,0,2.1-.765V9.258A.5.5,0,0,0,15.285,8.758Z"/><path d="M10.83,11.751a3.81,3.81,0,0,1-2.85,1.094,3.811,3.811,0,0,1-2.851-1.094,3.812,3.812,0,0,1-2.851,1.094,4.369,4.369,0,0,1-2.063-.49v3.077a.5.5,0,0,0,.5.5h14.57a.5.5,0,0,0,.5-.5v-3.1a4.349,4.349,0,0,1-2.1.513A3.816,3.816,0,0,1,10.83,11.751Z"/></g>
</symbol>

<symbol id="calendar" class="symbol" viewBox="0 0 16 16">
  <title>calendar</title><g id="814c3e33-8556-4af6-9e7a-225448a6fe44" data-name="Layer 1"><path d="M14.8,1.6h-2V0H11.2V1.6H4.8V0H3.2V1.6h-2A1.2,1.2,0,0,0,0,2.8v12A1.2,1.2,0,0,0,1.2,16H14.8A1.2,1.2,0,0,0,16,14.8V2.8A1.2,1.2,0,0,0,14.8,1.6Zm-.4,12.8H1.6V8H14.4Zm0-8H1.6V3.2H3.2V4.8H4.8V3.2h6.4V4.8h1.6V3.2h1.6Z"/></g>
</symbol>

<symbol id="capacity" class="symbol" viewBox="0 0 16 16">
  <title>capacity</title><g id="d3ac749f-1f11-40bd-b09a-6cc2271aef72" data-name="Layer 1"><path d="M.949,8.6h5.49a.948.948,0,0,1,.948.948v5.5A.949.949,0,0,1,6.438,16H.948A.948.948,0,0,1,0,15.052v-5.5A.949.949,0,0,1,.949,8.6Z"/><path d="M6.439,0H.948A.949.949,0,0,0,0,.949V6.425a.949.949,0,0,0,.948.949H6.439a.948.948,0,0,0,.948-.949V.949A.948.948,0,0,0,6.439,0Zm0,6.141L1.231.949H6.439Z" fill-rule="evenodd"/><path d="M15.052,0H9.561a.948.948,0,0,0-.948.949V6.425a.948.948,0,0,0,.948.949h5.491A.948.948,0,0,0,16,6.425V.949A.948.948,0,0,0,15.052,0Zm.031,6.269a.188.188,0,0,1-.187.188H9.717a.188.188,0,0,1-.187-.188V1.1A.187.187,0,0,1,9.717.917H14.9a.187.187,0,0,1,.187.187Z" fill-rule="evenodd"/><path d="M15.052,8.6H9.561a.948.948,0,0,0-.948.949v5.5A.948.948,0,0,0,9.561,16h5.491A.948.948,0,0,0,16,15.051v-5.5A.948.948,0,0,0,15.052,8.6Zm0,6.147L9.829,9.553l5.223,0Z" fill-rule="evenodd"/></g>
</symbol>

<symbol id="chart" class="symbol" viewBox="0 0 16 16">
  <title>chart</title><g id="18014cc7-0d8e-4fd8-b401-d1ae4ec9d2ab" data-name="Layer 1"><path d="M5.7.018a5.451,5.451,0,1,0,5.452,5.45A5.448,5.448,0,0,0,5.7.018Zm0,9.525a4.075,4.075,0,0,1,0-8.149V5.477L9.014,7.839A4.068,4.068,0,0,1,5.7,9.543Z"/><path d="M12.753,15.474a.506.506,0,0,0,.506.506h1.617a.507.507,0,0,0,.507-.507v-8.7a.506.506,0,0,0-.506-.506H13.26a.507.507,0,0,0-.507.507Z"/><path d="M8.839,11.573v3.9a.506.506,0,0,0,.507.506h1.617a.506.506,0,0,0,.506-.506v-3.9a.51.51,0,0,0-.508-.509H9.349A.511.511,0,0,0,8.839,11.573Z"/><path d="M4.927,12.783v2.692a.506.506,0,0,0,.506.506H7.048a.507.507,0,0,0,.508-.507V12.787a.513.513,0,0,0-.511-.511H5.434A.507.507,0,0,0,4.927,12.783Z"/></g>
</symbol>

<symbol id="check-pending" class="symbol" viewBox="0 0 16 16">
  <title>check-pending</title><g id="16149007-34ea-48eb-b3b4-8f5c1b218cb0" data-name="Layer 1"><path d="M11.63,6.194a5.391,5.391,0,0,1,2.086.419L16,4.328,13.325,1.653,5.986,8.992,2.557,5.563l-2.6,2.6,6.1,6.1,0,0,0,0,.568-.568a5.416,5.416,0,0,1,5-7.5Z" fill-rule="evenodd"/><path d="M11.63,7.276a4.338,4.338,0,1,0,4.337,4.337A4.338,4.338,0,0,0,11.63,7.276Zm1.412,6.7a.593.593,0,0,1-.839-.014L10.789,12.5V9.673a.593.593,0,1,1,1.185,0v2.348l1.082,1.122A.591.591,0,0,1,13.042,13.98Z" fill-rule="evenodd"/></g>
</symbol>

<symbol id="check" class="symbol" viewBox="0 0 16 16">
  <title>check</title><g id="f47acc46-cc8f-42f2-b52b-344ac768af9c" data-name="Layer 1"><polygon points="16.002 4.328 13.327 1.653 5.988 8.992 2.559 5.563 -0.044 8.165 6.059 14.267 6.061 14.265 6.063 14.267 16.002 4.328" fill-rule="evenodd"/></g>
</symbol>

<symbol id="checkin" class="symbol" viewBox="0 0 16 16">
  <title>checkin</title><g id="530ce96f-f895-49bb-a3bd-f693de1b6dbf" data-name="Layer 1"><path d="M7.22,14.422h5.166a.215.215,0,0,0,.215-.215V1.793a.215.215,0,0,0-.215-.215H7.312L6.312,0h6.694a1.173,1.173,0,0,1,1.173,1.173V14.827A1.173,1.173,0,0,1,13.006,16H6.312Z" fill-rule="evenodd"/><path d="M9.979,5.929a.681.681,0,0,0-.964.963l.428.427H7.081a.681.681,0,1,0,0,1.362H9.442l-.427.427a.681.681,0,1,0,.964.963l1.539-1.539a.751.751,0,0,0,0-1.063Z"/><path d="M4.75,7.539v0a2.577,2.577,0,1,0-3.267-.009A3.113,3.113,0,0,0,0,10.177v1.635a1.235,1.235,0,0,0,1.275,1.226H4.944a1.235,1.235,0,0,0,1.275-1.226V10.177A3.106,3.106,0,0,0,4.75,7.539ZM3.124,4.1A1.443,1.443,0,1,1,1.681,5.54,1.444,1.444,0,0,1,3.124,4.1ZM3.11,11.953H1.275a.141.141,0,0,1-.14-.141V10.177a1.975,1.975,0,1,1,3.949,0v1.635a.141.141,0,0,1-.14.141H3.11Z"/></g>
</symbol>

<symbol id="checkins-logo" class="symbol" viewBox="0 0 16 16">
  <title>checkins-logo</title><g id="dad8cd34-d7c4-4f62-a33e-2572baedba8d" data-name="Layer 1"><path d="M1.878,8.6a.2.2,0,0,1-.291,0l-.438-.437a.206.206,0,0,1,.292-.291l.291.291.729-.728a.206.206,0,0,1,.291.291Z" fill-rule="evenodd"/><path d="M3.362,6.109H.4A.4.4,0,0,0,0,6.516V9.484a.407.407,0,0,0,.407.407H3.375a.407.407,0,0,0,.407-.407V6.516A.41.41,0,0,0,3.362,6.109Zm0,3.154a.18.18,0,0,1-.18.18H.6a.18.18,0,0,1-.18-.18V6.705a.181.181,0,0,1,.18-.18h.472v.191a.127.127,0,0,0,.127.127H2.562a.127.127,0,0,0,.127-.127V6.525h.5a.181.181,0,0,1,.18.18Z" fill-rule="evenodd"/><path d="M5.376,9.523a.881.881,0,0,1-.9-.9v0a.887.887,0,0,1,.91-.9.9.9,0,0,1,.687.269l-.244.282a.642.642,0,0,0-.446-.2.516.516,0,0,0-.5.543v.005a.517.517,0,0,0,.5.548.631.631,0,0,0,.459-.2l.244.247A.9.9,0,0,1,5.376,9.523Z"/><path d="M7.1,9.493V8.748c0-.179-.084-.271-.229-.271s-.237.092-.237.271v.745H6.251V7.675h.378v.672a.475.475,0,0,1,.392-.214.438.438,0,0,1,.453.5v.864Z"/><path d="M8.969,8.957H8.04a.31.31,0,0,0,.326.262.436.436,0,0,0,.324-.137l.217.192a.705.705,0,0,1-1.243-.441V8.828a.664.664,0,0,1,.66-.7.65.65,0,0,1,.65.725v0A.936.936,0,0,1,8.969,8.957Zm-.645-.52a.3.3,0,0,0-.289.284h.571A.286.286,0,0,0,8.324,8.437Z"/><path d="M9.8,9.523a.682.682,0,0,1-.7-.69V8.828a.686.686,0,0,1,.7-.7.656.656,0,0,1,.533.224l-.232.249a.39.39,0,0,0-.3-.147.341.341,0,0,0-.324.364v0a.342.342,0,0,0,.338.369.423.423,0,0,0,.307-.142l.222.224A.673.673,0,0,1,9.8,9.523Z"/><path d="M11.359,9.493l-.349-.545-.132.139v.406H10.5V7.675h.378v.969l.444-.486h.453l-.508.525.526.81Z"/><path d="M11.76,8.9V8.539h.767V8.9Z"/><path d="M12.844,9.493V7.749h.383V9.493Z"/><path d="M14.388,9.493V8.748c0-.179-.085-.271-.23-.271s-.236.092-.236.271v.745h-.379V8.158h.379v.189a.472.472,0,0,1,.391-.214.438.438,0,0,1,.453.5v.864Z"/><path d="M15.489,9.518a.935.935,0,0,1-.573-.2l.162-.249a.754.754,0,0,0,.421.159c.11,0,.16-.039.16-.1V9.122c0-.082-.13-.11-.277-.155-.187-.054-.4-.142-.4-.4V8.561a.436.436,0,0,1,.488-.423.924.924,0,0,1,.5.154l-.144.262a.794.794,0,0,0-.362-.125c-.092,0-.139.04-.139.093v0c0,.074.127.109.271.159.187.062.4.152.4.4v0C16,9.383,15.778,9.518,15.489,9.518Z"/><path d="M4.551,7.313A.011.011,0,0,1,4.539,7.3V6.559a.011.011,0,0,1,.012-.011h.106a.011.011,0,0,1,.012.011V6.6h0a.168.168,0,0,1,.148-.066.188.188,0,0,1,.193.134.662.662,0,0,1,0,.315.188.188,0,0,1-.193.134.168.168,0,0,1-.148-.066h0V7.3a.011.011,0,0,1-.012.011Zm.336-.382a.461.461,0,0,0,0-.209.111.111,0,0,0-.207,0,.5.5,0,0,0,0,.209.111.111,0,0,0,.207,0Z"/><path d="M5.308,7.112c-.109,0-.153-.052-.153-.159V6.33a.011.011,0,0,1,.012-.011h.106a.011.011,0,0,1,.012.011v.616c0,.038.015.051.049.051h.025a.011.011,0,0,1,.012.011V7.1a.011.011,0,0,1-.012.011Z"/><path d="M5.815,7.105A.011.011,0,0,1,5.8,7.094V7.053h0a.183.183,0,0,1-.157.065.167.167,0,0,1-.188-.17c0-.121.086-.177.223-.177h.114A.006.006,0,0,0,5.8,6.764V6.737c0-.063-.03-.092-.124-.092a.193.193,0,0,0-.127.038.01.01,0,0,1-.016,0L5.491,6.6a.011.011,0,0,1,0-.015.329.329,0,0,1,.2-.054c.17,0,.232.058.232.194v.365a.01.01,0,0,1-.011.011ZM5.8,6.918V6.875a.006.006,0,0,0-.007-.007H5.7c-.083,0-.12.023-.12.075s.034.07.1.07C5.757,7.013,5.8,6.982,5.8,6.918Z"/><path d="M6.429,7.105a.011.011,0,0,1-.012-.011V6.772c0-.072-.036-.121-.1-.121a.106.106,0,0,0-.106.121v.322a.011.011,0,0,1-.012.011H6.088a.011.011,0,0,1-.012-.011V6.559a.011.011,0,0,1,.012-.011h.106a.011.011,0,0,1,.012.011V6.6h0a.171.171,0,0,1,.147-.065.19.19,0,0,1,.193.207v.352a.011.011,0,0,1-.012.011Z"/><path d="M7.051,7.105a.011.011,0,0,1-.012-.011V6.772c0-.072-.035-.121-.1-.121a.106.106,0,0,0-.106.121v.322a.011.011,0,0,1-.012.011H6.71A.011.011,0,0,1,6.7,7.094V6.559a.011.011,0,0,1,.012-.011h.106a.011.011,0,0,1,.012.011V6.6h0a.171.171,0,0,1,.147-.065.19.19,0,0,1,.193.207v.352a.011.011,0,0,1-.012.011Z"/><path d="M7.332,6.443a.011.011,0,0,1-.011-.012v-.1a.01.01,0,0,1,.011-.011h.106a.011.011,0,0,1,.012.011v.1a.012.012,0,0,1-.012.012Zm0,.662a.01.01,0,0,1-.011-.011V6.559a.01.01,0,0,1,.011-.011h.106a.011.011,0,0,1,.012.011v.535a.011.011,0,0,1-.012.011Z"/><path d="M7.96,7.105a.01.01,0,0,1-.011-.011V6.772c0-.072-.036-.121-.106-.121a.106.106,0,0,0-.106.121v.322a.011.011,0,0,1-.012.011H7.619a.011.011,0,0,1-.012-.011V6.559a.011.011,0,0,1,.012-.011h.106a.011.011,0,0,1,.012.011V6.6h0a.171.171,0,0,1,.147-.065.19.19,0,0,1,.193.207v.352a.011.011,0,0,1-.012.011Z"/><path d="M8.218,7.243c-.005-.006-.005-.01,0-.016l.068-.068a.011.011,0,0,1,.018,0,.171.171,0,0,0,.121.052c.086,0,.125-.047.125-.133V7.025h0A.161.161,0,0,1,8.4,7.09a.186.186,0,0,1-.189-.135A.421.421,0,0,1,8.2,6.813a.407.407,0,0,1,.019-.141A.185.185,0,0,1,8.4,6.535.159.159,0,0,1,8.55,6.6h0V6.559a.011.011,0,0,1,.012-.011h.106a.011.011,0,0,1,.012.011v.512a.234.234,0,0,1-.261.255A.275.275,0,0,1,8.218,7.243Zm.32-.339a.24.24,0,0,0,.013-.091.256.256,0,0,0-.013-.092.1.1,0,0,0-.2,0,.256.256,0,0,0-.013.092.24.24,0,0,0,.013.091.1.1,0,0,0,.2,0Z"/><path d="M8.964,6.964a.424.424,0,0,1-.017-.137.431.431,0,0,1,.017-.138.224.224,0,0,1,.23-.154.244.244,0,0,1,.193.087.01.01,0,0,1,0,.016L9.313,6.7a.011.011,0,0,1-.016,0,.127.127,0,0,0-.1-.048.1.1,0,0,0-.1.073.334.334,0,0,0-.011.1.349.349,0,0,0,.011.1.1.1,0,0,0,.1.071.127.127,0,0,0,.1-.048.01.01,0,0,1,.016,0l.073.063a.01.01,0,0,1,0,.016.246.246,0,0,1-.193.086A.224.224,0,0,1,8.964,6.964Z"/><path d="M9.5,6.963a.42.42,0,0,1-.02-.136A.432.432,0,0,1,9.5,6.689a.247.247,0,0,1,.457,0,.493.493,0,0,1,.018.168c0,.007,0,.011-.012.011H9.622s-.007,0-.007.007a.143.143,0,0,0,.008.043A.123.123,0,0,0,9.748,7a.168.168,0,0,0,.131-.053c.006-.006.011-.007.017,0l.068.06a.011.011,0,0,1,0,.016.293.293,0,0,1-.229.1A.226.226,0,0,1,9.5,6.963Zm.337-.246a.119.119,0,0,0-.219,0,.129.129,0,0,0-.007.047s0,.007.007.007h.219a.006.006,0,0,0,.007-.007A.155.155,0,0,0,9.841,6.717Z"/><path d="M10.458,7.105a.01.01,0,0,1-.011-.011V6.772c0-.072-.036-.121-.106-.121a.106.106,0,0,0-.106.121v.322a.011.011,0,0,1-.012.011h-.106a.011.011,0,0,1-.012-.011V6.559a.011.011,0,0,1,.012-.011h.106a.011.011,0,0,1,.012.011V6.6h0a.171.171,0,0,1,.147-.065.19.19,0,0,1,.193.207v.352a.01.01,0,0,1-.011.011Z"/><path d="M10.891,7.112c-.112,0-.155-.054-.155-.163V6.655a.006.006,0,0,0-.007-.007h-.037a.011.011,0,0,1-.012-.011V6.559a.011.011,0,0,1,.012-.011h.037a.006.006,0,0,0,.007-.007V6.388a.01.01,0,0,1,.011-.011h.107a.01.01,0,0,1,.011.011v.153a.007.007,0,0,0,.007.007h.074a.011.011,0,0,1,.012.011v.078a.011.011,0,0,1-.012.011h-.074a.007.007,0,0,0-.007.007v.29c0,.039.017.052.052.052h.029a.011.011,0,0,1,.012.011V7.1a.011.011,0,0,1-.012.011Z"/><path d="M11.077,6.963a.42.42,0,0,1-.02-.136.432.432,0,0,1,.019-.138.247.247,0,0,1,.457,0,.521.521,0,0,1,.018.168c0,.007,0,.011-.013.011H11.2c-.005,0-.007,0-.007.007a.118.118,0,0,0,.008.043A.123.123,0,0,0,11.321,7a.17.17,0,0,0,.131-.053c.006-.006.011-.007.017,0l.068.06a.01.01,0,0,1,0,.016.292.292,0,0,1-.229.1A.225.225,0,0,1,11.077,6.963Zm.337-.246a.119.119,0,0,0-.219,0,.129.129,0,0,0-.007.047s0,.007.007.007h.219a.006.006,0,0,0,.007-.007A.155.155,0,0,0,11.414,6.717Z"/><path d="M11.69,7.105a.011.011,0,0,1-.012-.011V6.559a.011.011,0,0,1,.012-.011H11.8a.011.011,0,0,1,.012.011v.048h0a.16.16,0,0,1,.145-.072.164.164,0,0,1,.116.046c.006.006.007.011,0,.017l-.061.077a.011.011,0,0,1-.017,0,.15.15,0,0,0-.082-.026c-.073,0-.105.052-.105.141v.3a.011.011,0,0,1-.012.011Z"/></g>
</symbol>

<symbol id="checkout" class="symbol" viewBox="0 0 16 16">
  <title>checkout</title><g id="1e60b9c7-3d2c-4e8f-9744-13e33a8c4f9c" data-name="Layer 1"><path d="M12.9,7.093a2.047,2.047,0,1,0-2.047-2.047A2.047,2.047,0,0,0,12.9,7.093Z"/><path d="M12.879,8.072a2.589,2.589,0,0,0-2.589,2.589V12.33a.68.68,0,0,0,.721.671h3.736a.68.68,0,0,0,.721-.671V10.661A2.589,2.589,0,0,0,12.879,8.072Z"/><path d="M8.769,14.422H3.6a.215.215,0,0,1-.215-.215V1.793A.215.215,0,0,1,3.6,1.578H8.677L9.677,0H2.983A1.173,1.173,0,0,0,1.81,1.173V14.827A1.173,1.173,0,0,0,2.983,16H9.677Z" fill-rule="evenodd"/><path d="M7.828,5.929a.681.681,0,0,0-.963.963l.427.427H4.931a.681.681,0,1,0,0,1.362H7.292l-.427.427a.681.681,0,1,0,.963.963l1.54-1.539a.751.751,0,0,0,0-1.063Z"/></g>
</symbol>

<symbol id="clock" class="symbol" viewBox="0 0 16 16">
  <title>clock</title><g id="b80c26ca-54a7-49b7-9b20-6de9ea2beee8" data-name="Layer 1"><path d="M8.053,15.952a7.976,7.976,0,1,1,7.976-7.976,7.985,7.985,0,0,1-7.976,7.976Zm0-14.294a6.318,6.318,0,1,0,6.318,6.318A6.325,6.325,0,0,0,8.053,1.658Z"/><path d="M11.963,9.606H6.919a.362.362,0,0,1-.362-.362V4.5a1,1,0,0,1,1.995,0V7.612h3.411a1,1,0,1,1,0,1.994Z"/></g>
</symbol>

<symbol id="delete" class="symbol" viewBox="0 0 16 16">
  <title>delete</title><g id="4b775a81-5db0-4e2b-acdf-06460e5263fc" data-name="Layer 1"><path d="M14.579,2.371H5.585a2.737,2.737,0,0,0-1.9.889L.343,7.236a1.659,1.659,0,0,0,0,2.062l3.344,3.975a2.732,2.732,0,0,0,1.9.89h8.994a1.426,1.426,0,0,0,1.415-1.434V3.805A1.426,1.426,0,0,0,14.579,2.371Zm.2,10.358a.214.214,0,0,1-.2.22H5.586a1.565,1.565,0,0,1-.97-.457L1.271,8.517a.44.44,0,0,1,0-.5L4.616,4.042a1.565,1.565,0,0,1,.97-.457h8.993a.214.214,0,0,1,.2.22Z"/><polygon points="11.259 5.017 9.679 6.597 8.1 5.017 6.43 6.687 8.01 8.267 6.43 9.847 8.1 11.516 9.679 9.936 11.259 11.516 12.929 9.847 11.349 8.267 12.929 6.687 11.259 5.017"/></g>
</symbol>

<symbol id="download" class="symbol" viewBox="0 0 16 16">
  <title>download</title><g id="0482821f-1719-45e3-81d3-0f4ac5d3950e" data-name="Layer 1"><polygon points="13.6 7.44 13.6 11.44 2.4 11.44 2.4 7.44 0 7.44 0 13.84 16 13.84 16 7.44 13.6 7.44"/><polygon points="9.6 5.36 9.6 2.16 6.4 2.16 6.4 5.36 3.52 5.36 8 9.989 12.48 5.36 9.6 5.36"/></g>
</symbol>

<symbol id="email" class="symbol" viewBox="0 0 16 16">
  <title>email</title><g id="7dd4650e-eccf-4cca-9ab3-aaf0449cfd5e" data-name="Layer 1"><g id="4007f988-2dd0-4179-a90b-3d1ee35439b4" data-name="Your Icon"><path d="M7.979,8.17l7.645-5.615a.966.966,0,0,0-.639-.245H.973a.971.971,0,0,0-.64.245Z"/><polygon points="4.717 7.477 0 4.013 0 10.941 4.717 7.477"/><polygon points="11.24 7.477 15.958 10.941 15.958 4.013 11.24 7.477"/><path d="M10.081,8.328l-2.1,1.545-2.1-1.545L0,12.644v.413a.973.973,0,0,0,.973.973H14.985a.973.973,0,0,0,.973-.973v-.413Z"/></g></g>
</symbol>

<symbol id="event" class="symbol" viewBox="0 0 16 16">
  <title>event</title><g id="fc28285b-79c4-4f19-b23f-b496effa0dbb" data-name="Layer 1"><path d="M15.223,2.527H13.86V.5a.5.5,0,0,0-.5-.5H9.594a.5.5,0,0,0-.5.5V2.527H6.83V.5a.5.5,0,0,0-.5-.5H2.588a.5.5,0,0,0-.5.5V2.527H.82a.5.5,0,0,0-.5.5V15.5a.5.5,0,0,0,.5.5h14.4a.5.5,0,0,0,.5-.5V3.029A.5.5,0,0,0,15.223,2.527ZM10.633,1.4h1.682V3.112H10.633Zm-7.011,0H5.276V3.112H3.622ZM14.035,14.353H2.012V4.235H14.035Z" fill-rule="evenodd"/><path d="M11.966,8.144,9.3,7.931a.155.155,0,0,1-.13-.095L8.143,5.366a.155.155,0,0,0-.286,0L6.83,7.836a.155.155,0,0,1-.13.095l-2.666.213a.155.155,0,0,0-.088.272l2.031,1.74a.155.155,0,0,1,.05.153l-.621,2.6a.155.155,0,0,0,.231.168l2.282-1.394a.157.157,0,0,1,.162,0l2.282,1.394a.155.155,0,0,0,.231-.168l-.621-2.6a.155.155,0,0,1,.05-.153l2.031-1.74A.155.155,0,0,0,11.966,8.144Z" fill-rule="evenodd"/></g>
</symbol>

<symbol id="eyeball-hide" class="symbol" viewBox="0 0 16 16">
  <title>eyeball-hide</title><g id="7f5c28be-baaf-4759-94b4-7cfb3801f804" data-name="Layer 1"><path d="M6.984,5.344l3.588,3.577a2.737,2.737,0,0,0,.2-1.013A2.76,2.76,0,0,0,6.984,5.344Zm8.922,2.224c-.125-.2-3.105-4.9-7.906-4.9a7.511,7.511,0,0,0-3.034.664l.961.959A6.114,6.114,0,0,1,8,3.911c3.425,0,5.887,2.977,6.621,3.984a11.912,11.912,0,0,1-2.536,2.534l.9.895a12.8,12.8,0,0,0,2.923-3.1A.621.621,0,0,0,15.906,7.568ZM4.7,4.846l.011-.006L3.8,3.93l-.011.006L2.962,3.11a.622.622,0,0,0-.881.878l.674.672A12.716,12.716,0,0,0,.094,7.568a.621.621,0,0,0,0,.654c.125.2,3.105,4.9,7.906,4.9a7.508,7.508,0,0,0,2.719-.524l.553.552a.623.623,0,1,0,.882-.879l-.237-.235.01-.007L11,11.106l-.01.006Zm.625,2.379a2.651,2.651,0,0,0-.1.683A2.765,2.765,0,0,0,8,10.669a2.667,2.667,0,0,0,.685-.1l1.053,1.05A6.121,6.121,0,0,1,8,11.88C4.575,11.88,2.114,8.9,1.379,7.9a12.018,12.018,0,0,1,2.27-2.344Z"/></g>
</symbol>

<symbol id="eyeball-show" class="symbol" viewBox="0 0 16 16">
  <title>eyeball-show</title><g id="2cf19c36-8167-4df4-b363-c2c0b04bbcab" data-name="Layer 1"><circle cx="8" cy="8" r="2.771"/><path d="M15.905,7.673c-.124-.2-3.1-4.9-7.9-4.9S.219,7.472.1,7.673a.616.616,0,0,0,0,.654c.124.2,3.105,4.9,7.905,4.9s7.781-4.7,7.9-4.9a.616.616,0,0,0,0-.654ZM8,11.984C4.576,11.984,2.113,9.007,1.38,8,2.113,6.993,4.576,4.016,8,4.016S13.887,6.993,14.62,8C13.887,9.007,11.424,11.984,8,11.984Z"/></g>
</symbol>

<symbol id="filter" class="symbol" viewBox="0 0 16 16">
  <title>filter</title><g id="4d89df87-784c-4de8-bbcd-704c650c2128" data-name="Layer 1"><path d="M15.182,1.284H.814a.468.468,0,0,0-.321.809L6.242,8.279V14.4a.342.342,0,0,0,.511.283l2.67-2.259a.7.7,0,0,0,.365-.638V8.282l5.711-6.2A.46.46,0,0,0,15.182,1.284Z"/></g>
</symbol>

<symbol id="guest-badge" class="symbol" viewBox="0 0 16 16">
  <title>guest-badge</title><g id="dd1ff554-0a09-45fe-973e-11dc68d7dac3" data-name="Layer 1"><path d="M6.592,10.881,7.6,7.838H6.911L6.225,9.977H6.217L5.539,7.838H4.853l.984,3.043ZM8.723,7.838H8.054v3.043h.669ZM5.179,12.93h6.127v-.8H5.179ZM13.171,0H3.048A1.332,1.332,0,0,0,1.716,1.332v13.32a1.332,1.332,0,0,0,1.332,1.332H13.171A1.332,1.332,0,0,0,14.5,14.652V1.332A1.332,1.332,0,0,0,13.171,0ZM7.177,1.066h2.4a.4.4,0,0,1,0,.8h-2.4a.4.4,0,1,1,0-.8Zm6.261,13.32a.533.533,0,0,1-.533.533H3.58a.533.533,0,0,1-.532-.533V6.127A.532.532,0,0,1,3.58,5.6h9.325a.533.533,0,0,1,.533.532ZM11.688,8.14a.9.9,0,0,0-.327-.219,1.253,1.253,0,0,0-.486-.083H9.5v3.043h.669V9.79h.7a1.272,1.272,0,0,0,.486-.083.918.918,0,0,0,.327-.22.859.859,0,0,0,.183-.313,1.175,1.175,0,0,0,0-.723A.867.867,0,0,0,11.688,8.14Zm-.457.908a.356.356,0,0,1-.13.139.539.539,0,0,1-.187.066,1.448,1.448,0,0,1-.222.017h-.52V8.358h.52a1.332,1.332,0,0,1,.222.017.5.5,0,0,1,.187.066.353.353,0,0,1,.13.138.586.586,0,0,1,0,.469Z"/></g>
</symbol>

<symbol id="headcounts" class="symbol" viewBox="0 0 16 16">
  <title>headcounts</title><g id="85c56512-ee5f-4fe0-ae6a-39285d7d9731" data-name="Layer 1"><polygon points="13.281 10.838 13.281 8.119 11.388 8.119 11.388 10.838 8.669 10.838 8.669 12.731 11.388 12.731 11.388 15.45 13.281 15.45 13.281 12.731 16 12.731 16 10.838 13.281 10.838"/><path d="M9.381,2.607a1.782,1.782,0,0,1,.44-.06,1.825,1.825,0,1,1-.44,3.589,3.946,3.946,0,0,1-.36.6l-.178.239.287.074a2.717,2.717,0,0,0,.692.1,2.775,2.775,0,0,0,0-5.549,2.713,2.713,0,0,0-.692.1l-.286.075.176.238A3.929,3.929,0,0,1,9.381,2.607Z"/><path d="M12.341,2.607a1.782,1.782,0,0,1,.44-.06,1.825,1.825,0,1,1-.44,3.589,3.946,3.946,0,0,1-.36.6l-.178.239.287.074a2.717,2.717,0,0,0,.692.1,2.775,2.775,0,0,0,0-5.549,2.713,2.713,0,0,0-.692.1l-.286.075.176.238A3.929,3.929,0,0,1,12.341,2.607Z"/><path d="M2.774,13.453a.7.7,0,0,1-.7-.7V10.156a.7.7,0,0,1,.434-.65L6.02,8.055,8.669,9.149l1.7-1.024c-.074-.041-2.314-.989-2.314-.989a3.443,3.443,0,1,0-4.075,0L1.888,8A2.323,2.323,0,0,0,.45,10.156V12.75a2.33,2.33,0,0,0,2.324,2.331H7.947V13.453H2.774ZM6.02,2.547A1.825,1.825,0,1,1,4.2,4.371,1.823,1.823,0,0,1,6.02,2.547Z"/></g>
</symbol>

<symbol id="house" class="symbol" viewBox="0 0 16 16">
  <title>house</title><g id="780b698d-2d5b-4ac7-9916-fe379e2dcf09" data-name="Layer 1"><path d="M15.806,8.287,13.93,6.4V2.622a.31.31,0,0,0-.309-.309H11.908a.309.309,0,0,0-.309.309V4.054L8.285.719a.437.437,0,0,0-.633,0L.2,8.289a.438.438,0,0,0,.318.739H2.783v5.943a.308.308,0,0,0,.308.309h2.8a.309.309,0,0,0,.309-.309v-3.94A1.625,1.625,0,0,1,7.838,9.667h.405a1.6,1.6,0,0,1,1.609,1.364v3.94a.308.308,0,0,0,.308.309h2.8a.308.308,0,0,0,.308-.309V9.028H15.49A.438.438,0,0,0,15.806,8.287Z"/></g>
</symbol>

<symbol id="household-add-person" class="symbol" viewBox="0 0 16 16">
  <title>household-add-person</title><g id="65ebcc83-8d56-4fe6-b2bc-3ad199045c82" data-name="Layer 1"><path d="M3.914,13.543V8.83H2.069A.028.028,0,0,1,2.056,8.8L7.548,2.551h.028l4.03,4.562H13.39l-4.8-5.455a1.372,1.372,0,0,0-2.059,0L1.033,7.9a1.313,1.313,0,0,0-.22,1.445,1.333,1.333,0,0,0,1.25.78h.5v3.415A1.38,1.38,0,0,0,3.9,14.954H8.2V13.6H3.9C3.89,13.6,3.914,13.554,3.914,13.543Z"/><path d="M14.578,12.189,13.1,11.576a1.828,1.828,0,1,0-1.675,0l-1.482.612a1.183,1.183,0,0,0-.732,1.1v1.493a1.187,1.187,0,0,0,1.183,1.187h3.737a1.187,1.187,0,0,0,1.183-1.187V13.286A1.18,1.18,0,0,0,14.578,12.189Z"/><polygon points="7.541 11.173 7.536 11.172 7.532 11.173 7.541 11.173"/><path d="M9.778,8.989A.663.663,0,0,0,9.1,8.334H8.2V7.409a.66.66,0,0,0-.657-.676H7.532a.684.684,0,0,0-.685.676v.925H6.015a.652.652,0,0,0-.676.648V9a.688.688,0,0,0,.676.689h.832V10.5a.69.69,0,0,0,.689.674A.667.667,0,0,0,8.2,10.5V9.685H9.1A.7.7,0,0,0,9.778,8.989Z"/><polygon points="9.779 8.982 9.778 8.989 9.779 8.996 9.779 8.982"/></g>
</symbol>

<symbol id="include" class="symbol" viewBox="0 0 16 16">
  <title>include</title><g id="e8fc043f-5dec-47db-b403-b5f9aa227dbd" data-name="Layer 1"><path d="M15,0H1A1,1,0,0,0,0,1V15a1,1,0,0,0,1,1H15a1,1,0,0,0,1-1V1A1,1,0,0,0,15,0ZM6,5A1,1,0,0,1,5,6H3A1,1,0,0,1,2,5V3A1,1,0,0,1,3,2H5A1,1,0,0,1,6,3Zm8,8a1,1,0,0,1-1,1H8a1,1,0,0,1-1-1V8A1,1,0,0,1,8,7h5a1,1,0,0,1,1,1Z" fill-rule="evenodd"/></g>
</symbol>

<symbol id="l-arr" class="symbol" viewBox="0 0 16 16">
  <title>l-arr</title><g id="7f861d45-db3b-4651-8886-86f804a03c04" data-name="Layer 1"><path d="M8.676.292A.908.908,0,0,0,8.015.017a1.009,1.009,0,0,0-.691.275L.574,7.282a.962.962,0,0,0,0,1.349l6.75,7.049a.912.912,0,0,0,.669.278.954.954,0,0,0,.683-.278L9.7,14.659A.9.9,0,0,0,9.971,14a1,1,0,0,0-.275-.688L6.307,9.921h8.431a.955.955,0,0,0,.68-.267.878.878,0,0,0,.284-.668V7.015a.965.965,0,0,0-.964-.964H6.307L9.7,2.661a.905.905,0,0,0,.275-.668.951.951,0,0,0-.275-.68L8.676.292Z"/></g>
</symbol>

<symbol id="label-add-multiple" class="symbol" viewBox="0 0 16 16">
  <title>label-add-multiple</title><g id="e31dc1d7-dfe7-434a-b722-ae03965116f7" data-name="Layer 1"><path d="M1.993,9.6H.006l2.741,2.742V10.353A.755.755,0,0,0,1.993,9.6Z" fill-rule="evenodd"/><path d="M13.76,2.785a2.2,2.2,0,1,0,2.2,2.2A2.2,2.2,0,0,0,13.76,2.785Zm1.324,2.527H14.09v.994h-.66V5.312h-.995v-.66h.995V3.658h.66v.994h.994Z" fill-rule="evenodd"/><path d="M11.092,4.982a2.636,2.636,0,0,1,.365-1.323H1.371A1.371,1.371,0,0,0,0,5.03V9.142H1.993A1.211,1.211,0,0,1,3.2,10.353v1.988H13.713a1.371,1.371,0,0,0,1.371-1.371V7.284a2.63,2.63,0,0,1-1.324.366A2.671,2.671,0,0,1,11.092,4.982Z" fill-rule="evenodd"/><path d="M2.217,2.785a1.363,1.363,0,0,0-1.006.449H11.819a2.717,2.717,0,0,1,.546-.449Z"/><path d="M15.509,6.921v4.2a1.363,1.363,0,0,0,.448-1.005V6.378A2.722,2.722,0,0,1,15.509,6.921Z"/></g>
</symbol>

<symbol id="label-name-add" class="symbol" viewBox="0 0 16 16">
  <title>label-name-add</title><g id="b31cac58-098d-47ec-9eeb-d78974761dde" data-name="Layer 1"><path d="M1.993,9.6H.006l2.741,2.742V10.353A.755.755,0,0,0,1.993,9.6Z" fill-rule="evenodd"/><path d="M13.76,2.785a2.2,2.2,0,1,0,2.2,2.2A2.2,2.2,0,0,0,13.76,2.785Zm1.324,2.527H14.09v.994h-.66V5.312h-.995v-.66h.995V3.658h.66v.994h.994Z" fill-rule="evenodd"/><path d="M11.092,4.982a2.636,2.636,0,0,1,.365-1.323H1.371A1.371,1.371,0,0,0,0,5.03V9.142H1.993A1.211,1.211,0,0,1,3.2,10.353v1.988H13.713a1.371,1.371,0,0,0,1.371-1.371V7.284a2.63,2.63,0,0,1-1.324.366A2.671,2.671,0,0,1,11.092,4.982Z" fill-rule="evenodd"/></g>
</symbol>

<symbol id="label-name-circle" class="symbol" viewBox="0 0 16 16">
  <title>label-name-circle</title><g id="14404625-a2d6-4316-85f7-071901179700" data-name="Layer 1"><path d="M1.993,9.6H.006l2.741,2.742V10.353A.755.755,0,0,0,1.993,9.6Z" fill-rule="evenodd"/><path d="M13.76,2.785a2.2,2.2,0,1,0,2.2,2.2A2.2,2.2,0,0,0,13.76,2.785Z" fill-rule="evenodd"/><path d="M11.092,4.982a2.636,2.636,0,0,1,.365-1.323H1.371A1.371,1.371,0,0,0,0,5.03V9.142H1.993A1.211,1.211,0,0,1,3.2,10.353v1.988H13.713a1.371,1.371,0,0,0,1.371-1.371V7.284a2.63,2.63,0,0,1-1.324.366A2.671,2.671,0,0,1,11.092,4.982Z" fill-rule="evenodd"/></g>
</symbol>

<symbol id="label-name" class="symbol" viewBox="0 0 16 16">
  <title>label-name</title><g id="cfd87016-30c3-44b3-bd43-59247dae192a" data-name="Layer 1"><path d="M2,9.6H.006l2.746,2.747V10.358A.756.756,0,0,0,2,9.6Z" fill-rule="evenodd"/><path d="M13.74,3.651H1.374A1.373,1.373,0,0,0,0,5.024V9.145H2A1.213,1.213,0,0,1,3.21,10.358v1.991H13.74a1.373,1.373,0,0,0,1.374-1.373V5.024A1.373,1.373,0,0,0,13.74,3.651ZM12.189,9.145a.558.558,0,1,1-.559.558A.557.557,0,0,1,12.189,9.145Zm.9,2.2a.087.087,0,0,1-.087.088H11.379a.087.087,0,0,1-.088-.088v-.283a.575.575,0,0,1,.576-.575h.643a.574.574,0,0,1,.575.575Zm.44-1.858a.419.419,0,1,1-.418.418A.418.418,0,0,1,13.525,9.488Zm.673,1.651a.065.065,0,0,1-.065.065h-.764a.087.087,0,0,1-.087-.087v-.079a.658.658,0,0,0-.154-.424.061.061,0,0,1,.027-.1.425.425,0,0,1,.129-.02h.482a.431.431,0,0,1,.432.431Z" fill-rule="evenodd"/></g>
</symbol>

<symbol id="label-security-add" class="symbol" viewBox="0 0 16 16">
  <title>label-security-add</title><g id="98b21458-0fbb-4b56-b3ff-272d778c9454" data-name="Layer 1"><rect x="4.114" y="9.142" width="0.457" height="2.285"/><rect x="5.257" y="9.142" width="0.457" height="2.285"/><rect x="7.314" y="9.142" width="0.457" height="2.285"/><rect x="4.8" y="9.142" width="0.229" height="2.285"/><rect x="5.942" y="9.142" width="0.229" height="2.285"/><rect x="6.399" y="9.142" width="0.229" height="2.285"/><rect x="6.857" y="9.142" width="0.229" height="2.285"/><rect x="7.999" y="9.142" width="0.229" height="2.285"/><rect x="8.456" y="9.142" width="0.229" height="2.285"/><rect x="8.913" y="9.142" width="0.457" height="2.285"/><rect x="10.97" y="9.142" width="0.457" height="2.285"/><rect x="12.57" y="9.142" width="0.457" height="2.285"/><rect x="13.256" y="9.142" width="0.457" height="2.285"/><rect x="9.599" y="9.142" width="0.229" height="2.285"/><rect x="10.056" y="9.142" width="0.229" height="2.285"/><rect x="10.513" y="9.142" width="0.229" height="2.285"/><rect x="11.656" y="9.142" width="0.229" height="2.285"/><rect x="12.113" y="9.142" width="0.229" height="2.285"/><path d="M13.76,2.784a2.2,2.2,0,1,0,2.2,2.2A2.2,2.2,0,0,0,13.76,2.784Zm1.324,2.527H14.09v1h-.66v-1h-.995V4.652h.995v-1h.66v1h.994Z"/><path d="M11.092,4.981a2.649,2.649,0,0,1,.041-.41H.584a.911.911,0,0,1,.787-.457h9.878a2.657,2.657,0,0,1,.208-.457H1.371A1.371,1.371,0,0,0,0,5.028V9.6l.005,0a.453.453,0,0,0,.129.319l2.285,2.286a.461.461,0,0,0,.324.134h10.97a1.371,1.371,0,0,0,1.371-1.372V7.283a2.63,2.63,0,0,1-1.324.366A2.671,2.671,0,0,1,11.092,4.981Zm-8.349,6.9L.457,9.6H1.981a.762.762,0,0,1,.762.762Zm11.884-.915a.916.916,0,0,1-.914.915H3.2V10.361A1.22,1.22,0,0,0,1.981,9.142H.457V8.685h14.17Z"/></g>
</symbol>

<symbol id="label-security-circle" class="symbol" viewBox="0 0 16 16">
  <title>label-security-circle</title><g id="14941bc4-a2e1-4703-b9a1-55b034eb46ef" data-name="Layer 1"><rect x="4.114" y="9.142" width="0.457" height="2.285"/><rect x="5.257" y="9.142" width="0.457" height="2.285"/><rect x="7.314" y="9.142" width="0.457" height="2.285"/><rect x="4.8" y="9.142" width="0.229" height="2.285"/><rect x="5.942" y="9.142" width="0.229" height="2.285"/><rect x="6.399" y="9.142" width="0.229" height="2.285"/><rect x="6.857" y="9.142" width="0.229" height="2.285"/><rect x="7.999" y="9.142" width="0.229" height="2.285"/><rect x="8.456" y="9.142" width="0.229" height="2.285"/><rect x="8.913" y="9.142" width="0.457" height="2.285"/><rect x="10.97" y="9.142" width="0.457" height="2.285"/><rect x="12.57" y="9.142" width="0.457" height="2.285"/><rect x="13.256" y="9.142" width="0.457" height="2.285"/><rect x="9.599" y="9.142" width="0.229" height="2.285"/><rect x="10.056" y="9.142" width="0.229" height="2.285"/><rect x="10.513" y="9.142" width="0.229" height="2.285"/><rect x="11.656" y="9.142" width="0.229" height="2.285"/><rect x="12.113" y="9.142" width="0.229" height="2.285"/><path d="M13.76,2.784a2.2,2.2,0,1,0,2.2,2.2A2.2,2.2,0,0,0,13.76,2.784Z"/><path d="M11.092,4.981a2.649,2.649,0,0,1,.041-.41H.584a.911.911,0,0,1,.787-.457h9.878a2.657,2.657,0,0,1,.208-.457H1.371A1.371,1.371,0,0,0,0,5.028V9.6l.005,0a.453.453,0,0,0,.129.319l2.285,2.286a.461.461,0,0,0,.324.134h10.97a1.371,1.371,0,0,0,1.371-1.372V7.283a2.63,2.63,0,0,1-1.324.366A2.671,2.671,0,0,1,11.092,4.981Zm-8.349,6.9L.457,9.6H1.981a.762.762,0,0,1,.762.762Zm11.884-.915a.916.916,0,0,1-.914.915H3.2V10.361A1.22,1.22,0,0,0,1.981,9.142H.457V8.685h14.17Z"/></g>
</symbol>

<symbol id="label-security" class="symbol" viewBox="0 0 16 16">
  <title>label-security</title><g id="0047af18-e650-46c8-9604-1d628c4d027d" data-name="Layer 1"><rect x="4.122" y="9.145" width="0.458" height="2.29"/><rect x="5.267" y="9.145" width="0.458" height="2.29"/><rect x="7.328" y="9.145" width="0.458" height="2.29"/><rect x="4.809" y="9.145" width="0.229" height="2.29"/><rect x="5.954" y="9.145" width="0.229" height="2.29"/><rect x="6.412" y="9.145" width="0.229" height="2.29"/><rect x="6.87" y="9.145" width="0.229" height="2.29"/><rect x="8.015" y="9.145" width="0.229" height="2.29"/><rect x="8.473" y="9.145" width="0.229" height="2.29"/><rect x="8.931" y="9.145" width="0.458" height="2.29"/><rect x="10.992" y="9.145" width="0.458" height="2.29"/><rect x="12.595" y="9.145" width="0.458" height="2.29"/><rect x="13.282" y="9.145" width="0.458" height="2.29"/><rect x="9.618" y="9.145" width="0.229" height="2.29"/><rect x="10.076" y="9.145" width="0.229" height="2.29"/><rect x="10.534" y="9.145" width="0.229" height="2.29"/><rect x="11.679" y="9.145" width="0.229" height="2.29"/><rect x="12.137" y="9.145" width="0.229" height="2.29"/><path d="M13.318,6.119l-.56.56-.012.014-.011-.013c-.073-.073-.145-.147-.219-.219a.161.161,0,1,0-.223.233l.338.337a.161.161,0,0,0,.23,0c.056-.057.113-.113.17-.17q.258-.257.515-.515a.153.153,0,0,0,.038-.168A.16.16,0,0,0,13.318,6.119Z"/><path d="M13.74,3.649H1.374A1.374,1.374,0,0,0,0,5.023V9.6l0,0a.459.459,0,0,0,.13.319l2.29,2.291a.461.461,0,0,0,.324.134H13.74a1.374,1.374,0,0,0,1.374-1.374V5.023A1.374,1.374,0,0,0,13.74,3.649ZM1.374,4.107H13.74a.914.914,0,0,1,.788.458H.585A.914.914,0,0,1,1.374,4.107ZM14.2,5.916a2.557,2.557,0,0,1-.249,1.1A2.6,2.6,0,0,1,12.86,8.175a.067.067,0,0,1-.071,0,2.835,2.835,0,0,1-.54-.4A2.489,2.489,0,0,1,11.6,6.761a2.63,2.63,0,0,1-.117-.456,2.508,2.508,0,0,1-.029-.433,2.573,2.573,0,0,1,.026-.317c0-.028.013-.038.041-.043.13-.024.259-.044.388-.072a2.712,2.712,0,0,0,.606-.2,2.283,2.283,0,0,0,.243-.144.123.123,0,0,1,.074-.028.1.1,0,0,1,.053.016,2.063,2.063,0,0,0,.621.286,4.881,4.881,0,0,0,.547.129c.029.006.059.009.088.014a.036.036,0,0,1,.035.037,2.527,2.527,0,0,1,.026.325ZM2.748,11.893.458,9.6H1.985a.763.763,0,0,1,.763.763Zm11.908-.916a.917.917,0,0,1-.916.916H3.206V10.366A1.222,1.222,0,0,0,1.985,9.145H.458V8.687h14.2Z"/></g>
</symbol>

<symbol id="label" class="symbol" viewBox="0 0 16 16">
  <title>label</title><g id="6f762902-0380-4ae7-b8b0-9fe161e996d1" data-name="Layer 1"><polygon points="4.225 14.07 3.356 14.07 3.356 12.333 1.619 12.333 1.619 11.464 4.225 11.464 4.225 14.07"/><rect x="1.344" y="12.478" width="2.867" height="0.869" transform="translate(-8.317 5.745) rotate(-45)"/><path d="M14.36.75H1.619a.869.869,0,0,0-.869.869v6.66A2.319,2.319,0,0,0,3.067,10.6H5.094v2.317A2.319,2.319,0,0,0,7.41,15.228h6.95a.868.868,0,0,0,.868-.868V1.619A.869.869,0,0,0,14.36.75Zm-.6,13.006H7.41a.846.846,0,0,1-.845-.844V9.124h-3.5a.845.845,0,0,1-.843-.845V2.222H13.756Z"/></g>
</symbol>

<symbol id="linux" class="symbol" viewBox="0 0 16 16">
  <title>linux</title><g id="1e33290f-b36a-44fb-b9fd-321897231fcf" data-name="Layer 1"><path d="M13.948,13.5c.008-.126-.077-.323-.34-.615h0a1.233,1.233,0,0,1-.219-.569.879.879,0,0,0-.209-.469h0a.59.59,0,0,0-.454-.132l-.111,0a1.172,1.172,0,0,1-.961.407.767.767,0,0,1-.47-.737l-.025.013a.754.754,0,0,0-.342.527,5.4,5.4,0,0,0-.1.967h0a6.1,6.1,0,0,1-.249,1.016,1.376,1.376,0,0,0-.029.9h0a.817.817,0,0,0,.843.482,1.666,1.666,0,0,0,1.089-.638,4.2,4.2,0,0,1,1.315-.841C13.85,13.714,13.941,13.621,13.948,13.5Zm-8.028.916a1.437,1.437,0,0,0-.39-.845,6.179,6.179,0,0,1-.637-.874h0L4.4,11.8a.872.872,0,0,0-.546-.4.512.512,0,0,0-.085-.007H3.768a.464.464,0,0,0-.353.18c-.119.127-.221.306-.357.45h0a1.2,1.2,0,0,1-.49.248.579.579,0,0,0-.369.281h0a.847.847,0,0,0-.023.5,1.3,1.3,0,0,1,.015.6v0h0a.877.877,0,0,0-.065.66.509.509,0,0,0,.386.218,5.064,5.064,0,0,1,1.528.329h0a1.957,1.957,0,0,0,1.281.245.713.713,0,0,0,.6-.7h0ZM9.037,4.386a.441.441,0,0,0-.24-.193h0a3.652,3.652,0,0,1-.529-.218,1.123,1.123,0,0,0-.608-.209.717.717,0,0,0-.234.04,1.137,1.137,0,0,0-.42.294h0c-.017.016-.038.03-.089.068s-.13.095-.242.179a.242.242,0,0,0-.1.285.691.691,0,0,0,.344.359h0a2.576,2.576,0,0,1,.307.25.651.651,0,0,0,.162.1.686.686,0,0,0,.224.05.868.868,0,0,0,.506-.131,2.291,2.291,0,0,1,.39-.218h0a.816.816,0,0,0,.533-.423A.279.279,0,0,0,9.037,4.386Zm1.919,6.189c.064-.424.4-.439.419-.722a6.925,6.925,0,0,0-.737-2.019A16.175,16.175,0,0,1,9.477,4.842a1.33,1.33,0,0,1-.7.469,3.466,3.466,0,0,0-.495.282,1.3,1.3,0,0,1-.667.191l-.075,0a.981.981,0,0,1-.584-.227,3.5,3.5,0,0,0-.4-.323c-.049-.028-.16-.1-.192-.127a11.5,11.5,0,0,1-1.23,3.521,5.39,5.39,0,0,0-.431,1.921.787.787,0,0,0,.281.657,4.251,4.251,0,0,1,1.2,1.017.881.881,0,0,1,.231.78.389.389,0,0,1-.212.219.746.746,0,0,1-.308.058c.061.077.124.156.184.235.095.124.186.249.266.376a3.084,3.084,0,0,0,3.578-.219,4.838,4.838,0,0,0,.213-.9,6.877,6.877,0,0,1,.136-1.248,1.158,1.158,0,0,1,.532-.793.931.931,0,0,1,.138-.062Q10.949,10.618,10.956,10.575ZM7.312,3.415h0a1.264,1.264,0,0,0,0-.195h0a1.2,1.2,0,0,0-.1-.437.771.771,0,0,0-.228-.311.417.417,0,0,0-.268-.1H6.691a.407.407,0,0,0-.279.135.762.762,0,0,0-.192.334,1.24,1.24,0,0,0-.051.446v0a1.244,1.244,0,0,0,.1.437A.819.819,0,0,0,6.456,4l.088-.065c.039-.028.071-.054.118-.09l-.023-.018a.429.429,0,0,1-.111-.162.732.732,0,0,1-.054-.22v-.01A.728.728,0,0,1,6.489,3.2a.412.412,0,0,1,.08-.179A.178.178,0,0,1,6.7,2.945h.013A.181.181,0,0,1,6.831,3a.417.417,0,0,1,.11.162A.733.733,0,0,1,7,3.378v.009a.756.756,0,0,1,0,.172,1.139,1.139,0,0,1,.262-.127Zm2.165-.188h0a.03.03,0,0,1,0-.013,1.185,1.185,0,0,0-.111-.5.892.892,0,0,0-.294-.371.638.638,0,0,0-.392-.133H8.671a.63.63,0,0,0-.4.141.909.909,0,0,0-.287.376,1.192,1.192,0,0,0-.1.512v.015a1.232,1.232,0,0,0,.012.152,2.052,2.052,0,0,1,.406.138.825.825,0,0,1-.012-.16V3.375A.751.751,0,0,1,8.352,3.1a.487.487,0,0,1,.139-.2.263.263,0,0,1,.174-.069h.009a.255.255,0,0,1,.178.081.493.493,0,0,1,.124.21.775.775,0,0,1,.04.27V3.4a.746.746,0,0,1-.058.278.63.63,0,0,1-.121.145l.145.052c.057.021.119.046.19.077.021.008.041.017.06.026a.965.965,0,0,0,.143-.24A1.2,1.2,0,0,0,9.477,3.227Zm4.652,9.4a1.383,1.383,0,0,1,.479.923.754.754,0,0,1-.436.571,5.414,5.414,0,0,0-1.589,1l-.082-.067.081.068A2.283,2.283,0,0,1,11.074,16a1.257,1.257,0,0,1-1.259-.718v0a.931.931,0,0,1-.078-.21c-.671.038-1.255-.166-1.722-.128-.688.038-1.118.2-1.51.206a1.132,1.132,0,0,1-.81.631,2.627,2.627,0,0,1-1.747-.324L4,15.357l-.05.094a6.592,6.592,0,0,0-1.854-.392.839.839,0,0,1-.628-.384,1.255,1.255,0,0,1,.07-.991,1.624,1.624,0,0,0-.025-.649,2.4,2.4,0,0,1-.037-.37.8.8,0,0,1,.087-.388h0a.961.961,0,0,1,.578-.453,1.377,1.377,0,0,0,.532-.258c.143-.151.271-.375.444-.561.023-.024.048-.048.073-.071a3.612,3.612,0,0,1,.193-1.666A10,10,0,0,1,5.194,6.245a3.61,3.61,0,0,0,.7-2.021C5.939,3.225,5.19.24,8.014.013,8.126,0,8.233,0,8.336,0c2.528,0,2.386,2.667,2.37,4.1a3.5,3.5,0,0,0,1.042,2.249A8.274,8.274,0,0,1,13.2,8.679a3.611,3.611,0,0,1,.116,2.471.948.948,0,0,1,.129.062.93.93,0,0,1,.125.092h0a1.224,1.224,0,0,1,.329.7,1.526,1.526,0,0,0,.225.617Z"/></g>
</symbol>

<symbol id="location" class="symbol" viewBox="0 0 16 16">
  <title>location</title><g id="a18837ce-2ea3-4ad9-8fe7-50ed093712c4" data-name="Layer 1"><path d="M8,0A5.548,5.548,0,0,0,2.453,5.547c0,.066,0,.133.005.2a5.538,5.538,0,0,0,.317,1.666c.93,3.057,3.625,6.845,4.737,8.328a.608.608,0,0,0,.976,0c1.112-1.483,3.806-5.271,4.736-8.328a5.5,5.5,0,0,0,.318-1.666c0-.067.005-.134.005-.2A5.547,5.547,0,0,0,8,0ZM8,8.264a2.717,2.717,0,1,1,2.717-2.717A2.718,2.718,0,0,1,8,8.264Z"/></g>
</symbol>

<symbol id="medical" class="symbol" viewBox="0 0 16 16">
  <title>medical</title><g id="668c5fb0-e8e5-4c58-845a-318823430317" data-name="Layer 1"><path d="M7.988.059A7.953,7.953,0,1,0,15.94,8.012,7.953,7.953,0,0,0,7.988.059Zm4.795,10.146h-2.6v2.6H5.8v-2.6h-2.6V5.818H5.8v-2.6h4.387v2.6h2.6Z"/></g>
</symbol>

<symbol id="microsoft-edge" class="symbol" viewBox="0 0 16 16">
  <title>microsoft-edge</title><g id="46a390c4-d782-49b6-91d8-7680cdc65a2e" data-name="Layer 1"><path d="M.608,7.106H.617A9.757,9.757,0,0,1,1.14,4.947,8.185,8.185,0,0,1,2.168,3.008a7.593,7.593,0,0,1,1.5-1.573,6.612,6.612,0,0,1,2-1.051A7.74,7.74,0,0,1,8.134,0a7.272,7.272,0,0,1,3.7.943,7.011,7.011,0,0,1,2.628,2.713,8.009,8.009,0,0,1,.929,3.951v1.68H5.336a3.162,3.162,0,0,0,.479,1.721,3,3,0,0,0,1.22,1.1,5.829,5.829,0,0,0,1.693.509,7.013,7.013,0,0,0,1.9.027,9.4,9.4,0,0,0,1.86-.416,6,6,0,0,0,1.55-.755v3.37a8.09,8.09,0,0,1-2.051.822A10.988,10.988,0,0,1,9.2,16a7.716,7.716,0,0,1-2.825-.474A5.962,5.962,0,0,1,3.589,13.3,5.832,5.832,0,0,1,2.476,9.975a6.312,6.312,0,0,1,.992-3.682A6.894,6.894,0,0,1,6.373,3.9a5.415,5.415,0,0,0-.7,1.122,5.727,5.727,0,0,0-.411,1.426h5.676a3.574,3.574,0,0,0-.072-1.252,2.344,2.344,0,0,0-.42-.907,3.133,3.133,0,0,0-.63-.594,2.61,2.61,0,0,0-.72-.367q-.366-.115-.67-.183a3.033,3.033,0,0,0-.5-.076l-.2-.009a8.683,8.683,0,0,0-2.32.4,8.015,8.015,0,0,0-2,.934A10.341,10.341,0,0,0,1.841,5.645,10.147,10.147,0,0,0,.608,7.106Z"/></g>
</symbol>

<symbol id="minus-circle" class="symbol" viewBox="0 0 16 16">
  <title>minus-circle</title><g id="972843f2-5278-48e0-bc87-a296d2b6c3e8" data-name="Layer 1"><path d="M8,.006A7.994,7.994,0,1,0,15.994,8,8,8,0,0,0,8,.006ZM8,14.323A6.323,6.323,0,1,1,14.323,8,6.323,6.323,0,0,1,8,14.323Z"/><path d="M10.989,7.176H4.967a.807.807,0,0,0,0,1.613h6.022a.807.807,0,0,0,0-1.613Z"/></g>
</symbol>

<symbol id="mobile-pass" class="symbol" viewBox="0 0 16 16">
  <title>mobile-pass</title><g id="98b9c853-69ff-4359-981e-b76bb2d32163" data-name="Layer 1"><path d="M12.654,14.3a1.7,1.7,0,0,1-1.7,1.7h-5.9a1.7,1.7,0,0,1-1.7-1.7V1.7A1.7,1.7,0,0,1,5.049,0h5.9a1.7,1.7,0,0,1,1.7,1.7V14.3ZM11.883,3.349H4.1v9.175h7.786ZM9.556,1.7a.189.189,0,0,0-.189-.188H6.633a.188.188,0,0,0-.189.188h0a.189.189,0,0,0,.189.189H9.367A.189.189,0,0,0,9.556,1.7ZM5.918,13.883a.4.4,0,1,0,.4.4A.4.4,0,0,0,5.918,13.883Zm2.082,0a.4.4,0,1,0,.4.4A.4.4,0,0,0,8,13.883Zm2.081,0a.4.4,0,1,0,.4.4A.4.4,0,0,0,10.081,13.883Z"/><rect x="10.387" y="10.387" width="0.682" height="0.682"/><rect x="9.023" y="9.023" width="0.682" height="0.682"/><rect x="10.387" y="9.023" width="0.682" height="0.682"/><rect x="9.705" y="8.341" width="0.682" height="0.682"/><rect x="9.023" y="10.387" width="0.682" height="0.682"/><rect x="9.705" y="9.705" width="0.682" height="0.682"/><rect x="8.341" y="9.705" width="0.682" height="0.682"/><rect x="8.341" y="8.341" width="0.682" height="0.682"/><path d="M4.931,8.341v2.728H7.659V8.341Zm2.046,2.046H5.613V9.023H6.977Z"/><path d="M4.931,4.931V7.659H7.659V4.931ZM6.977,6.977H5.613V5.613H6.977Z"/><path d="M8.341,4.931V7.659h2.728V4.931Zm2.046,2.046H9.023V5.613h1.364Z"/></g>
</symbol>

<symbol id="new-station" class="symbol" viewBox="0 0 16 16">
  <title>new-station</title><g id="84725ba7-66f7-4d65-a1ae-cb9a3752bb01" data-name="Layer 1"><path d="M5.174,6.647,3.705,8.116,7.149,11.56h0l5.61-5.61-1.51-1.51L7.109,8.582ZM13.005.018H3A2.9,2.9,0,0,0,.018,2.907v10.1A2.976,2.976,0,0,0,3,15.982H9.409a4.61,4.61,0,0,1-1.16-1.9H2.907a.993.993,0,0,1-.993-.992V2.907a.994.994,0,0,1,.993-.993H13.093a.993.993,0,0,1,.993.993V8.3a4.6,4.6,0,0,1,1.9,1.2V2.907A2.9,2.9,0,0,0,13.005.018Z"/><path d="M12.632,9.342a3.329,3.329,0,1,0,3.329,3.329A3.33,3.33,0,0,0,12.632,9.342Zm2.007,3.829H13.132v1.507h-1V13.171H10.625v-1h1.508V10.664h1v1.508h1.507Z"/></g>
</symbol>

<symbol id="options" class="symbol" viewBox="0 0 16 16">
  <title>options</title><g id="a9e8df9f-e879-4de4-8418-6d7932701817" data-name="Layer 1"><path d="M13.984.872H2.059a.872.872,0,0,0-.852.891V14.237a.872.872,0,0,0,.852.891H13.984a.872.872,0,0,0,.852-.891V1.763A.872.872,0,0,0,13.984.872Zm-.852,12.474H2.911V2.654H13.132Z"/><g id="3320004d-55f8-4ffe-aeef-250c98943c08" data-name="Your Icon"><path d="M11.21,5.71h-3.4a.577.577,0,0,1,0-1.153h3.4a.577.577,0,0,1,0,1.153Z"/><path d="M5.674,5.885H4.833a.564.564,0,0,1-.552-.576V4.931a.564.564,0,0,1,.552-.576h.841a.564.564,0,0,1,.552.576v.378A.564.564,0,0,1,5.674,5.885Z"/><path d="M11.21,8.577h-3.4a.578.578,0,0,1,0-1.154h3.4a.578.578,0,0,1,0,1.154Z"/><path d="M5.674,8.765H4.833a.564.564,0,0,1-.552-.576V7.812a.565.565,0,0,1,.552-.577h.841a.565.565,0,0,1,.552.577v.377A.564.564,0,0,1,5.674,8.765Z"/><path d="M11.21,11.457h-3.4a.578.578,0,0,1,0-1.154h3.4a.578.578,0,0,1,0,1.154Z"/><path d="M5.674,11.645H4.833a.565.565,0,0,1-.552-.577v-.376a.565.565,0,0,1,.552-.577h.841a.565.565,0,0,1,.552.577v.376A.565.565,0,0,1,5.674,11.645Z"/></g></g>
</symbol>

<symbol id="page-left-double" class="symbol" viewBox="0 0 16 16">
  <title>page-left-double</title><g id="a9a8571e-419b-4542-bca3-81dc65e825fd" data-name="Layer 1"><polygon points="6.363 1.637 9.066 4.339 5.404 8 9.066 11.661 6.363 14.363 0 8 6.363 1.637" fill-rule="evenodd"/><polygon points="13.298 1.637 16 4.339 12.339 8 16 11.661 13.298 14.363 6.934 8 13.298 1.637" fill-rule="evenodd"/></g>
</symbol>

<symbol id="page-left" class="symbol" viewBox="0 0 16 16">
  <title>page-left</title><g id="1a1eb4d6-755c-49b0-b649-5689576b6308" data-name="Layer 1"><polygon points="9.831 1.637 12.533 4.339 8.871 8 12.533 11.661 9.831 14.363 3.467 8 9.831 1.637" fill-rule="evenodd"/></g>
</symbol>

<symbol id="page-right-double" class="symbol" viewBox="0 0 16 16">
  <title>page-right-double</title><g id="32db36ff-a8aa-4683-a679-dad779829f46" data-name="Layer 1"><polygon points="9.637 1.637 6.934 4.339 10.596 8 6.934 11.661 9.637 14.363 16 8 9.637 1.637" fill-rule="evenodd"/><polygon points="2.702 1.637 0 4.339 3.661 8 0 11.661 2.702 14.363 9.066 8 2.702 1.637" fill-rule="evenodd"/></g>
</symbol>

<symbol id="page-right" class="symbol" viewBox="0 0 16 16">
  <title>page-right</title><g id="07e7cadd-6b76-4ebe-bac0-f780d127225b" data-name="Layer 1"><polygon points="6.169 1.637 3.467 4.339 7.129 8 3.467 11.661 6.169 14.363 12.533 8 6.169 1.637" fill-rule="evenodd"/></g>
</symbol>

<symbol id="people" class="symbol" viewBox="0 0 16 16">
  <title>people</title><g id="57203cf2-e1b9-4870-99d9-b62c5fbe0967" data-name="Layer 1"><path d="M16,14.8a22.683,22.683,0,0,0-.217-3.343c-.275-.468-.917-.789-2.107-1.287S12.11,9.256,12.11,8.36c0-.538.362-.362.522-1.347.066-.409.386-.007.447-.939,0-.372-.175-.464-.175-.464s.089-.55.123-.973a1.78,1.78,0,0,0-1.913-1.89A1.78,1.78,0,0,0,9.2,4.637c.035.424.123.973.123.973s-.173.092-.173.464c.061.933.381.531.447.939.159.985.522.809.522,1.347A1.448,1.448,0,0,1,9.458,9.7c2.593,1.3,2.94,1.562,2.94,2.722V14.8Zm-7.821-4.18C6.6,9.96,6.091,9.4,6.091,8.207c0-.717.483-.483.695-1.8.088-.545.515-.009.6-1.253,0-.5-.233-.619-.233-.619s.118-.733.165-1.3A2.373,2.373,0,0,0,4.763.721a2.373,2.373,0,0,0-2.55,2.521c.046.565.164,1.3.164,1.3s-.232.123-.232.619c.082,1.243.508.707.6,1.252.212,1.313.695,1.079.695,1.8,0,1.194-.506,1.752-2.088,2.414C.866,10.823,0,11.135,0,11.886V14.8H11.115V12.616C11.115,11.93,9.766,11.285,8.179,10.621Z"/></g>
</symbol>

<symbol id="permissions" class="symbol" viewBox="0 0 16 16">
  <title>permissions</title><g id="8709fc8c-a83f-448b-b15a-ae4339a2d560" data-name="Layer 1"><path d="M15.452,16l-2.4-.052-.207-.207-.415-2.383H10.462l-.277-.276.035-1.9-2.334.671-1.6-1.6a4.894,4.894,0,1,1,3.385-3.42l6.3,6.3v2.349A.472.472,0,0,1,15.452,16ZM2.4,3.019a1.734,1.734,0,1,0,2.452,0A1.741,1.741,0,0,0,2.4,3.019Z"/></g>
</symbol>

<symbol id="phone" class="symbol" viewBox="0 0 16 16">
  <title>phone</title><g id="6fac923f-132f-408d-9401-45f75fd2df6c" data-name="Layer 1"><path d="M12.679,14.3a1.7,1.7,0,0,1-1.7,1.7h-5.9a1.7,1.7,0,0,1-1.7-1.7V1.7A1.7,1.7,0,0,1,5.074,0h5.9a1.7,1.7,0,0,1,1.7,1.7V14.3ZM11.908,3.349H4.122v9.175h7.786ZM9.581,1.7a.189.189,0,0,0-.189-.188H6.658a.188.188,0,0,0-.189.188h0a.189.189,0,0,0,.189.189H9.392A.189.189,0,0,0,9.581,1.7ZM5.943,13.883a.4.4,0,1,0,.4.4A.4.4,0,0,0,5.943,13.883Zm2.082,0a.4.4,0,1,0,.4.4A.4.4,0,0,0,8.025,13.883Zm2.081,0a.4.4,0,1,0,.4.4A.4.4,0,0,0,10.106,13.883Z"/></g>
</symbol>

<symbol id="plus-circle" class="symbol" viewBox="0 0 16 16">
  <title>plus-circle</title><g id="388032c1-f874-43ba-b75c-796d793b4330" data-name="Layer 1"><path d="M7.994.013a7.994,7.994,0,1,0,7.993,7.993A7.994,7.994,0,0,0,7.994.013Zm0,14.317a6.323,6.323,0,1,1,6.322-6.323A6.324,6.324,0,0,1,7.994,14.33Z"/><path d="M11,7.183H8.8v-2.2a.807.807,0,1,0-1.613,0v2.2h-2.2a.807.807,0,1,0,0,1.613h2.2V11A.807.807,0,1,0,8.8,11V8.8H11a.807.807,0,1,0,0-1.613Z"/></g>
</symbol>

<symbol id="profile" class="symbol" viewBox="0 0 16 16">
  <title>profile</title><g id="507347d8-40ef-4daf-a56f-3e3433285972" data-name="Layer 1"><path d="M14.943,2.139H1.057a.988.988,0,0,0-.988.989v9.435a.989.989,0,0,0,.988.989H3.539V12.77a1.021,1.021,0,1,1,.989,0v.782h6.944V12.77a1.021,1.021,0,1,1,.989,0v.782h2.482a.988.988,0,0,0,.988-.989V3.128A.988.988,0,0,0,14.943,2.139Zm-7.851,7H1.443V3.487H7.092Zm5.776-2.21h-4.5V5.938h4.5Zm1.483-1.978H8.365V3.959h5.986Z"/></g>
</symbol>

<symbol id="r-arr-enclosed" class="symbol" viewBox="0 0 16 16">
  <title>r-arr-enclosed</title><g id="e4e55eed-d298-42ad-8f6b-4406f7d3a3cc" data-name="Layer 1"><path d="M12.617,7.5,12.6,7.485l-.018-.021c-.014-.017-.029-.034-.046-.051L8.989,3.862a.8.8,0,1,0-1.13,1.131l2.186,2.186H3.982a.8.8,0,1,0,0,1.6h6.063L7.859,10.964A.8.8,0,1,0,8.989,12.1L12.54,8.544v0a.639.639,0,0,0,.044-.048l.022-.027.01-.014a.8.8,0,0,0,0-.95ZM7.978-.015a7.994,7.994,0,1,0,7.994,7.993A7.994,7.994,0,0,0,7.978-.015Zm0,14.388a6.395,6.395,0,1,1,6.4-6.394A6.4,6.4,0,0,1,7.978,14.373Z"/></g>
</symbol>

<symbol id="report-formats" class="symbol" viewBox="0 0 16 16">
  <title>report-formats</title><g id="74d2427d-106d-42fa-934b-98ddbe890bdf" data-name="Layer 1"><path d="M2,13.014V2.049H7.028V3.923a.138.138,0,0,0,.041.1.142.142,0,0,0,.1.04H10v.987h2V3.789a.607.607,0,0,0-.182-.432L7.61.225A.633.633,0,0,0,7.17.046H.622a.638.638,0,0,0-.44.179A.609.609,0,0,0,0,.657v13.75a.606.606,0,0,0,.182.431.631.631,0,0,0,.44.179H4.958l-1.1-2ZM14.958,11.45c0-.025,0-.051,0-.076.008-.074.012-.15.015-.225v-.022c0-.04,0-.079,0-.12s0-.069,0-.1v-.045c0-.077-.007-.154-.015-.229,0-.02,0-.04,0-.06l1-.729a.092.092,0,0,0,.025-.121L14.573,7.331a.092.092,0,0,0-.118-.037l-1.142.494-.094-.06-.055-.037c-.036-.024-.072-.048-.109-.07s-.05-.028-.074-.043l-.023-.013-.031-.016c-.057-.032-.115-.064-.174-.093l-.012-.007h0l-.025-.011-.059-.029-.1-.045-.137-1.217a.093.093,0,0,0-.094-.082H9.514a.092.092,0,0,0-.093.082L9.283,7.365a.169.169,0,0,1-.027.013c-.073.032-.146.067-.218.1L9,7.5c-.04.021-.079.04-.118.062s-.056.035-.085.053l-.058.035c-.068.042-.133.087-.2.132l-.008.006L7.389,7.3a.093.093,0,0,0-.118.038L5.857,9.724a.09.09,0,0,0,.026.12l1,.729v.018l0,.05c0,.045-.008.089-.01.135s-.006.062-.007.094v.076c0,.02,0,.04,0,.061s0,.047,0,.071v.072c0,.022,0,.046,0,.068,0,.045.007.089.01.133l0,.024,0,.053v.019l-1,.728a.091.091,0,0,0-.025.12l1.413,2.39a.1.1,0,0,0,.119.038l1.143-.494.006,0c.072.05.145.1.22.146.009,0,.017.011.026.016.033.019.064.041.1.06.124.07.25.131.377.187.009,0,.016.009.025.012l.138,1.218a.092.092,0,0,0,.093.082h2.815a.093.093,0,0,0,.094-.082l.137-1.218c.027-.011.051-.025.078-.037l.1-.049v0c.023-.011.045-.025.068-.037l.033-.016a.2.2,0,0,0,.029-.016c.012-.006.025-.012.036-.019h0c.017-.01.034-.017.051-.026l.02-.013c.062-.035.121-.073.18-.111.02-.013.041-.025.061-.039s.063-.039.094-.06l1.142.494a.1.1,0,0,0,.119-.038l1.413-2.39a.091.091,0,0,0-.024-.12Zm-1.847-.333a.867.867,0,0,1-.006.088c0,.043-.009.085-.015.127,0,.024-.009.047-.012.07-.009.046-.019.092-.03.137-.006.022-.013.041-.019.063-.013.045-.028.091-.044.136-.008.022-.017.043-.026.065-.017.041-.034.083-.053.122l-.007.016L12.867,12c-.016.032-.033.063-.052.094s-.024.039-.035.057l-.028.042c-.014.021-.027.041-.042.061s-.041.056-.063.082l-.029.037c-.01.011-.02.023-.031.034-.028.033-.058.066-.089.1l-.026.027-.022.022c-.036.033-.073.067-.111.1l-.027.021-.018.016c-.04.031-.081.061-.122.09l-.039.025-.009.006c-.042.027-.085.053-.129.077l-.052.028c-.046.023-.09.045-.135.063L11.747,13c-.045.018-.092.034-.139.05l-.06.019c-.051.014-.1.027-.153.038l-.052.012c-.058.01-.117.019-.176.025a.112.112,0,0,1-.032,0,2,2,0,0,1-.206.011H10.91c-.07,0-.138,0-.207-.011h-.016c-.068-.008-.135-.018-.2-.031l-.017,0a1.894,1.894,0,0,1-.2-.05l-.008,0a2.18,2.18,0,0,1-1.437-1.41l0-.011c-.02-.062-.036-.126-.05-.19l0-.019c-.012-.064-.023-.129-.029-.194l0-.019a1.9,1.9,0,0,1-.011-.2v-.03c0-.063,0-.125.01-.187,0-.015.005-.03.006-.045.006-.053.015-.107.025-.16,0-.02.009-.042.014-.063.011-.046.022-.091.036-.135.007-.025.015-.05.023-.074.015-.041.03-.082.046-.122s.02-.049.032-.073c.018-.04.037-.08.058-.118l.035-.065c.024-.04.047-.079.073-.117h0l.039-.057c.026-.037.055-.072.082-.108l.014-.016c.011-.014.022-.028.034-.041.029-.032.058-.064.089-.1l.025-.025c.012-.012.025-.023.036-.035.028-.026.057-.051.086-.076a.482.482,0,0,1,.044-.035l.042-.035.068-.05.075-.049c.016-.011.031-.021.047-.03l.041-.025c.036-.02.073-.04.11-.058.021-.01.042-.023.063-.033.045-.02.092-.039.138-.057l.058-.023c.048-.015.1-.031.147-.045l.056-.015c.048-.012.1-.022.147-.031l.063-.011c.046-.007.092-.012.138-.017l.08-.005c.04,0,.08,0,.121,0s.066,0,.1,0,.068,0,.1.007.08.008.118.014l.085.014c.043.008.085.017.127.028.027.006.051.013.077.02.042.012.085.025.128.04.026.009.051.019.077.03.041.015.081.031.12.049s.055.027.081.041.075.038.11.059l.085.054c.032.021.063.041.094.063a.948.948,0,0,1,.085.069,1.016,1.016,0,0,1,.082.065c.027.024.052.05.078.075s.051.049.075.076.048.055.071.083.044.052.066.08.047.066.068.1.035.049.052.076.043.077.063.117a.759.759,0,0,1,.036.069c.021.043.038.086.056.128l.026.065c.016.045.031.09.044.137.006.02.013.041.019.062.011.045.021.091.03.136,0,.025.009.048.012.071.006.042.011.084.015.127a.867.867,0,0,1,.006.087c0,.036,0,.074,0,.109S13.114,11.081,13.111,11.117Z"/></g>
</symbol>

<symbol id="report-preview" class="symbol" viewBox="0 0 16 16">
  <title>report-preview</title><g id="9a475821-bd9e-4180-bf09-bbd7f7b4f776" data-name="Layer 1"><path d="M11.965,3.186,7.986.218A.6.6,0,0,0,7.569.049h-6.2A.6.6,0,0,0,.948.218.576.576,0,0,0,.776.627V13.655a.58.58,0,0,0,.172.409.6.6,0,0,0,.417.169H5.473l-1.045-1.9H2.665V1.946h4.77V3.722a.13.13,0,0,0,.038.091.135.135,0,0,0,.093.037h2.682v.936h1.889V3.6A.57.57,0,0,0,11.965,3.186Z"/><path d="M14.985,14.31l-2.55-2.549a4.149,4.149,0,0,0,.606-2.167,4.4,4.4,0,0,0-4.3-4.3A4.174,4.174,0,0,0,4.565,9.466a4.4,4.4,0,0,0,4.3,4.3,4.157,4.157,0,0,0,2.1-.568l2.564,2.563a.642.642,0,0,0,.908,0l.636-.635C15.327,14.877,15.236,14.561,14.985,14.31ZM8.738,12.071A2.541,2.541,0,1,1,11.28,9.53,2.541,2.541,0,0,1,8.738,12.071Z"/></g>
</symbol>

<symbol id="room" class="symbol" viewBox="0 0 16 16">
  <title>room</title><g id="9d46d2ca-b00c-42ad-890a-4dbbec9f96e5" data-name="Layer 1"><path d="M6.424,1.353H2.315a.949.949,0,0,0-.949.949V6.414a.948.948,0,0,0,.949.948H6.424a.947.947,0,0,0,.948-.948V2.3A.948.948,0,0,0,6.424,1.353Zm0,7.236H2.315a.949.949,0,0,0-.949.949v4.151a.949.949,0,0,0,.949.949H6.424a.948.948,0,0,0,.948-.949V9.538A.948.948,0,0,0,6.424,8.589Zm7.231,0H9.546a.948.948,0,0,0-.948.949v4.151a.948.948,0,0,0,.948.949h4.109a.949.949,0,0,0,.949-.949V9.538A.949.949,0,0,0,13.655,8.589Zm0-7.236H9.546A.948.948,0,0,0,8.6,2.3V6.414a.947.947,0,0,0,.948.948h4.109a.948.948,0,0,0,.949-.948V2.3A.949.949,0,0,0,13.655,1.353Z" fill-rule="evenodd"/></g>
</symbol>

<symbol id="scope" class="symbol" viewBox="0 0 16 16">
  <title>scope</title><g id="1a9ef307-f68d-453a-8abb-a02b8004978f" data-name="Layer 1"><path d="M10.036,11.375v.018a.527.527,0,0,0,.147.408.565.565,0,0,0,.408.173h4.841a.563.563,0,0,0,.432-.2.533.533,0,0,0,.114-.45L14.033,3.414a.552.552,0,0,0-.545-.431H10.541a.549.549,0,0,0-.557.54V3.61c0,.618-1.214,1.122-1.956,1.122H7.869c-.742,0-1.956-.5-1.956-1.122V3.523a.549.549,0,0,0-.557-.54H2.64a.553.553,0,0,0-.544.423L.014,11.317a.528.528,0,0,0,.11.455.561.561,0,0,0,.434.2h4.8a.565.565,0,0,0,.409-.173.528.528,0,0,0,.147-.408v-.018a.565.565,0,0,1,0-.058V9.31c0-.619,1.214-1.123,1.956-1.123h.159c.742,0,2.012.5,2.012,1.123v2.007A.546.546,0,0,1,10.036,11.375ZM5.43,13.014H.558a.549.549,0,0,0-.557.54v1.9A.548.548,0,0,0,.558,16H5.43a.549.549,0,0,0,.557-.54v-1.9A.549.549,0,0,0,5.43,13.014ZM2.563,2H5.429a.549.549,0,0,0,.558-.54V.538A.549.549,0,0,0,5.43,0H2.563a.549.549,0,0,0-.557.54v.919A.549.549,0,0,0,2.563,2Zm8.043,0h2.866a.549.549,0,0,0,.558-.54V.538A.549.549,0,0,0,13.472,0H10.606a.549.549,0,0,0-.557.54v.919A.549.549,0,0,0,10.606,2Zm4.837,11.017H10.627a.549.549,0,0,0-.557.54v1.9a.548.548,0,0,0,.557.54h4.816a.548.548,0,0,0,.557-.54v-1.9A.549.549,0,0,0,15.443,13.014Z"/></g>
</symbol>

<symbol id="sort-down" class="symbol" viewBox="0 0 16 16">
  <title>sort-down</title><g id="131b926a-d677-4b63-8d44-ddcff191338f" data-name="Layer 1"><path d="M3,0V12H0l4,4,4-4H5V0ZM7,0V2h9V0ZM7,4V6h7V4ZM7,8v2h5V8Z"/></g>
</symbol>

<symbol id="station-options" class="symbol" viewBox="0 0 16 16">
  <title>station-options</title><g id="73f5c279-d422-4a6e-a5da-dc4a778ff1e6" data-name="Layer 1"><g id="b9592b42-e78b-4214-a995-dcab33e79ddd" data-name="Your Icon"><path d="M13.812,3.826h-6.2A1.03,1.03,0,0,1,6.605,2.774,1.03,1.03,0,0,1,7.611,1.723h6.2a1.029,1.029,0,0,1,1.007,1.051A1.03,1.03,0,0,1,13.812,3.826Z"/><path d="M3.721,4.145H2.187A1.03,1.03,0,0,1,1.181,3.093V2.406A1.029,1.029,0,0,1,2.187,1.355H3.721A1.029,1.029,0,0,1,4.727,2.406v.687A1.03,1.03,0,0,1,3.721,4.145Z"/><path d="M13.812,9.051h-6.2a1.052,1.052,0,0,1,0-2.1h6.2a1.052,1.052,0,0,1,0,2.1Z"/><path d="M3.721,9.4H2.187A1.03,1.03,0,0,1,1.181,8.344V7.656A1.03,1.03,0,0,1,2.187,6.605H3.721A1.03,1.03,0,0,1,4.727,7.656v.688A1.03,1.03,0,0,1,3.721,9.4Z"/><path d="M13.812,14.3h-6.2a1.053,1.053,0,0,1,0-2.1h6.2a1.052,1.052,0,0,1,0,2.1Z"/><path d="M3.721,14.645H2.187a1.03,1.03,0,0,1-1.006-1.051v-.687a1.03,1.03,0,0,1,1.006-1.051H3.721a1.03,1.03,0,0,1,1.006,1.051v.687A1.03,1.03,0,0,1,3.721,14.645Z"/></g></g>
</symbol>

<symbol id="station-time" class="symbol" viewBox="0 0 16 16">
  <title>station-time</title><g id="8e176417-0b2b-4222-b1ee-86cf014dc5ce" data-name="Layer 1"><path d="M8,.333A7.667,7.667,0,1,0,15.667,8,7.667,7.667,0,0,0,8,.333Zm2.5,11.851a1.046,1.046,0,0,1-1.482-.026l-2.5-2.591v-5a1.047,1.047,0,1,1,2.094,0V8.721L10.521,10.7A1.046,1.046,0,0,1,10.5,12.184Z" fill-rule="evenodd"/></g>
</symbol>

<symbol id="station" class="symbol" viewBox="0 0 16 16">
  <title>station</title><g id="40a71a90-b1d6-4432-a1ba-3b77f0d6d56f" data-name="Layer 1"><path d="M12.984.042H3.018A2.891,2.891,0,0,0,.054,2.918V12.972a2.963,2.963,0,0,0,2.964,2.964h9.966a2.963,2.963,0,0,0,2.964-2.964V2.918A2.891,2.891,0,0,0,12.984.042ZM14.06,13.06a.988.988,0,0,1-.988.988H2.93a.987.987,0,0,1-.987-.988V2.918a.987.987,0,0,1,.987-.987H13.072a.987.987,0,0,1,.988.987ZM10.678,5.15,7.186,8.642l-1.4-1.4a.988.988,0,0,0-1.4,1.4l2.1,2.1a.987.987,0,0,0,1.4,0l4.191-4.19a.988.988,0,1,0-1.4-1.4Z" fill-rule="evenodd"/></g>
</symbol>

<symbol id="template" class="symbol" viewBox="0 0 16 16">
  <title>template</title><g id="7cc3d6eb-665c-4814-adb9-e7de6256964c" data-name="Layer 1"><path d="M15,0H1A1,1,0,0,0,0,1V15a1,1,0,0,0,1,1H15a1,1,0,0,0,1-1V1A1,1,0,0,0,15,0ZM6,14H2V7H6Zm8,0H7V7h7Zm0-8H2V2H14Z" fill-rule="evenodd"/></g>
</symbol>

<symbol id="tick-box-full" class="symbol" viewBox="0 0 16 16">
  <title>tick-box-full</title><g id="cddc212f-7185-4036-aef0-6027e5b3ef85" data-name="Layer 1"><path d="M13.005.018H3A2.9,2.9,0,0,0,.018,2.907v10.1A2.976,2.976,0,0,0,3,15.982h10.01a2.976,2.976,0,0,0,2.977-2.976V2.907A2.9,2.9,0,0,0,13.005.018Zm1.081,13.076a.992.992,0,0,1-.993.992H2.907a.993.993,0,0,1-.993-.992V2.907a.994.994,0,0,1,.993-.993H13.093a.993.993,0,0,1,.993.993Z" fill-rule="evenodd"/><polygon points="7.109 8.582 5.174 6.647 3.705 8.116 7.149 11.56 7.15 11.559 7.152 11.56 12.762 5.95 11.252 4.44 7.109 8.582" fill-rule="evenodd"/></g>
</symbol>

<symbol id="tick-box-open" class="symbol" viewBox="0 0 16 16">
  <title>tick-box-open</title><g id="eb4b3407-8346-4eec-9683-9ea8655e49b1" data-name="Layer 1"><path d="M13.005.018H3A2.9,2.9,0,0,0,.018,2.907v10.1A2.976,2.976,0,0,0,3,15.982h10.01a2.976,2.976,0,0,0,2.977-2.976V2.907A2.9,2.9,0,0,0,13.005.018Zm1.081,13.076a.992.992,0,0,1-.993.992H2.907a.993.993,0,0,1-.993-.992V2.907a.994.994,0,0,1,.993-.993H13.093a.993.993,0,0,1,.993.993Z" fill-rule="evenodd"/></g>
</symbol>

<symbol id="up-arrow" class="symbol" viewBox="0 0 16 16">
  <title>up-arrow</title><g id="4c644c03-0390-4763-a7c5-aac7f18d1136" data-name="Layer 1"><path d="M8.183.985,0,8.855v1.259H4.091v4.407h7.554V10.114h4.406V9.17Zm2.365,8.061v4.325H5.188V9.046H1.322L8.174,2.492,14.43,9.046Z" fill-rule="evenodd"/></g>
</symbol>

<symbol id="upload" class="symbol" viewBox="0 0 16 16">
  <title>upload</title><g id="3ebf9d05-0b47-42b7-98c4-a1335ffc691f" data-name="Layer 1"><path d="M12.607,5A3.091,3.091,0,0,0,9.969,3.468q-.06,0-.12,0a4.223,4.223,0,0,0-7.37,1.8,4.223,4.223,0,0,0,1.789,8.05H6.253V11.638H4.268a2.542,2.542,0,0,1-.654-5l.432-.116.019-.448A2.541,2.541,0,0,1,8.823,4.933l.243.431.471-.149a1.268,1.268,0,0,1,.388-.059,1.43,1.43,0,0,1,1.354.976l.119.391.407.038a2.544,2.544,0,0,1-.238,5.077H10.089v1.681h1.477A4.225,4.225,0,0,0,12.607,5Z"/><path d="M6.907,10.079l.357-.347v3.61h1.85v-3.6l.322.332A.919.919,0,1,0,10.727,8.77L8.811,6.852a.946.946,0,0,0-1.31,0L5.584,8.769a.928.928,0,0,0,0,1.309A.972.972,0,0,0,6.907,10.079Z"/></g>
</symbol>

<symbol id="windows" class="symbol" viewBox="0 0 16 16">
  <title>windows</title><g id="cf8e81bf-6a65-4ff5-8665-91501b9d4f56" data-name="Layer 1"><path d="M.025,2.265l6.518-.887,0,6.287L.031,7.7ZM6.54,8.39l0,6.293-6.515-.9V8.347Zm.79-7.129L15.973,0V7.585L7.33,7.654Zm8.645,7.188,0,7.551L7.33,14.78,7.318,8.435Z"/></g>
</symbol>

<symbol id="x" class="symbol" viewBox="0 0 16 16">
  <title>x</title><g id="2792a92f-0ddc-4052-8099-c60778ed6b9c" data-name="Layer 1"><polygon points="14.301 4.34 11.625 1.664 8 5.29 4.375 1.664 1.699 4.34 5.325 7.965 1.699 11.591 4.375 14.266 8 10.641 11.625 14.266 14.301 11.591 10.675 7.965 14.301 4.34" fill-rule="evenodd"/></g>
</symbol>
    </svg>