<svg xmlns="http://www.w3.org/2000/svg" xmlns:xlink="http://www.w3.org/1999/xlink">
    
<symbol id="add-household" viewBox="0 0 16 16">
  <path d="M14.4953 7.83162L9.02241 1.60906C8.89423 1.46324 8.73644 1.34643 8.55956 1.2664C8.38267 1.18638 8.19076 1.14499 7.99661 1.14499C7.80247 1.14499 7.61055 1.18638 7.43367 1.2664C7.25678 1.34643 7.099 1.46324 6.97082 1.60906L1.49794 7.83162C1.32305 8.02298 1.2089 8.26193 1.16992 8.51822C1.13094 8.7745 1.1689 9.03659 1.27898 9.27128C1.38707 9.50911 1.56292 9.70976 1.78451 9.84811C2.00611 9.98647 2.26359 10.0564 2.52473 10.0491H3.02463V13.4483C3.01601 13.8114 3.15145 14.1632 3.40135 14.4267C3.65125 14.6903 3.9953 14.8443 4.35835 14.855H11.6569C12.0239 14.8469 12.3731 14.6949 12.6291 14.4317C12.8851 14.1686 13.0275 13.8154 13.0256 13.4483V10.0491H13.4785C13.7396 10.0564 13.9971 9.98647 14.2187 9.84811C14.4403 9.70976 14.6162 9.50911 14.7242 9.27128C14.8332 9.03566 14.8696 8.77298 14.8288 8.51662C14.788 8.26027 14.6719 8.02183 14.4953 7.83162ZM8.01261 2.49785L13.4955 8.70342C13.4955 8.71041 13.4895 8.70342 13.4735 8.70342H11.6739V13.4523C11.6739 13.4633 11.6639 13.5123 11.6519 13.5123H4.35335C4.34136 13.5123 4.36535 13.4633 4.36535 13.4523V8.7534H2.52473C2.51973 8.7534 2.50473 8.73541 2.51273 8.72041L7.98562 2.49785"></path><path d="M9.5353 8.26152H8.63548V7.33973C8.63761 7.25234 8.6223 7.1654 8.59044 7.084C8.55859 7.00259 8.51082 6.92835 8.44995 6.86561C8.38907 6.80288 8.3163 6.7529 8.23589 6.71861C8.15548 6.68432 8.06903 6.66639 7.98162 6.66589H7.97162C7.79208 6.66562 7.61969 6.73627 7.49199 6.86247C7.36429 6.98867 7.2916 7.1602 7.28976 7.33973V8.26152H6.45793C6.37101 8.2583 6.28433 8.27257 6.20302 8.30347C6.12172 8.33438 6.04744 8.38129 5.9846 8.44142C5.92176 8.50156 5.87163 8.57369 5.83718 8.65356C5.80274 8.73343 5.78467 8.81939 5.78406 8.90637V8.92036C5.78351 9.10055 5.85389 9.27371 5.97999 9.40242C6.10608 9.53113 6.27777 9.60505 6.45793 9.6082H7.28676V10.417C7.29094 10.5975 7.36574 10.7692 7.4951 10.8952C7.62445 11.0212 7.79805 11.0914 7.97862 11.0909H7.96862C8.05657 11.0906 8.1436 11.0729 8.22468 11.0388C8.30576 11.0048 8.37929 10.955 8.44101 10.8923C8.50274 10.8297 8.55144 10.7554 8.5843 10.6738C8.61717 10.5922 8.63354 10.505 8.63248 10.417V9.6082H9.5323C9.71337 9.60147 9.88478 9.52478 10.0105 9.39426C10.1361 9.26374 10.2063 9.08956 10.2062 8.90837V8.92236C10.206 8.83477 10.1885 8.74807 10.1546 8.6673C10.1208 8.58652 10.0712 8.51328 10.0088 8.45181C9.94638 8.39034 9.8724 8.34186 9.79112 8.3092C9.70984 8.27653 9.62289 8.26033 9.5353 8.26152Z"></path>
</symbol>

<symbol id="barcode-camera" viewBox="0 0 16 16">
  <path d="M14.6665 3.09183H12.2046C12.2038 2.84095 12.1037 2.60058 11.9262 2.42319C11.7487 2.24579 11.5082 2.14578 11.2572 2.14499H4.75478C4.50377 2.14578 4.26327 2.24579 4.08578 2.42319C3.90828 2.60058 3.80822 2.84095 3.80743 3.09183H1.3335C0.980331 3.09288 0.641914 3.2335 0.392091 3.483C0.142268 3.7325 0.00131918 4.07062 0 4.4236V12.5222C0.00105555 12.8754 0.141888 13.2137 0.391739 13.4635C0.641591 13.7132 0.980159 13.8539 1.3335 13.855H14.6665C15.0198 13.8539 15.3584 13.7132 15.6083 13.4635C15.8581 13.2137 15.9989 12.8754 16 12.5222V4.4236C15.9987 4.07062 15.8577 3.7325 15.6079 3.483C15.3581 3.2335 15.0197 3.09288 14.6665 3.09183ZM7.997 12.3223C7.16601 12.3223 6.35367 12.076 5.66273 11.6145C4.97178 11.1531 4.43326 10.4973 4.11525 9.72996C3.79724 8.96265 3.71404 8.11831 3.87616 7.30373C4.03827 6.48915 4.43844 5.74091 5.02604 5.15363C5.61364 4.56635 6.36229 4.1664 7.17731 4.00437C7.99234 3.84234 8.83714 3.9255 9.60487 4.24334C10.3726 4.56117 11.0288 5.0994 11.4905 5.78997C11.9522 6.48054 12.1986 7.29243 12.1986 8.12297C12.1986 9.23669 11.7559 10.3048 10.968 11.0923C10.18 11.8798 9.11133 12.3223 7.997 12.3223Z"></path><path d="M7.997 4.4236C7.26493 4.4236 6.54931 4.64056 5.94062 5.04706C5.33193 5.45355 4.85751 6.03131 4.57736 6.70728C4.29721 7.38325 4.22391 8.12707 4.36673 8.84468C4.50955 9.56229 4.86207 10.2215 5.37972 10.7388C5.89737 11.2562 6.5569 11.6085 7.27489 11.7513C7.99289 11.894 8.73712 11.8207 9.41346 11.5407C10.0898 11.2607 10.6679 10.7866 11.0746 10.1782C11.4813 9.56987 11.6984 8.85463 11.6984 8.12297C11.6984 7.14183 11.3084 6.20089 10.6143 5.50712C9.92013 4.81335 8.97867 4.4236 7.997 4.4236ZM7.997 11.3224C7.36386 11.3224 6.74494 11.1348 6.21851 10.7832C5.69207 10.4317 5.28177 9.93197 5.03947 9.34735C4.79718 8.76272 4.73379 8.11942 4.85731 7.49879C4.98083 6.87815 5.28571 6.30806 5.73341 5.86061C6.1811 5.41316 6.7515 5.10844 7.37248 4.98499C7.99345 4.86154 8.6371 4.9249 9.22204 5.16706C9.80699 5.40922 10.3069 5.8193 10.6587 6.34545C11.0105 6.87159 11.1982 7.49018 11.1982 8.12297C11.1982 8.54313 11.1154 8.95917 10.9545 9.34735C10.7936 9.73552 10.5578 10.0882 10.2606 10.3853C9.96333 10.6824 9.61043 10.9181 9.22204 11.0789C8.83366 11.2397 8.41739 11.3224 7.997 11.3224Z"></path><path d="M6.3884 6.38127H5.73715V9.86467H6.3884V6.38127Z"></path><path d="M7.03464 6.38127H6.70852V9.86467H7.03464V6.38127Z"></path><path d="M8.005 6.38127H7.35376V9.86467H8.005V6.38127Z"></path><path d="M10.2689 6.38127H9.61761V9.86467H10.2689V6.38127Z"></path><path d="M8.65224 6.38127H8.32612V9.86467H8.65224V6.38127Z"></path><path d="M9.29749 6.38127H8.97136V9.86467H9.29749V6.38127Z"></path>
</symbol>

<symbol id="barcode" viewBox="0 0 16 16">
  <path d="M2.62207 4.63442H1.4698V11.3606H2.62207V4.63442Z"></path><path d="M15.0015 3.22501H0.998502C0.733683 3.22501 0.47971 3.33032 0.292455 3.51778C0.105199 3.70523 0 3.95948 0 4.22459V11.7754C0 12.0405 0.105199 12.2948 0.292455 12.4822C0.47971 12.6697 0.733683 12.775 0.998502 12.775H15.0015C15.1326 12.775 15.2625 12.7492 15.3836 12.6989C15.5048 12.6487 15.6148 12.5751 15.7075 12.4822C15.8003 12.3894 15.8738 12.2792 15.924 12.1579C15.9742 12.0367 16 11.9067 16 11.7754V4.22259C15.9995 3.95783 15.894 3.7041 15.7068 3.51707C15.5196 3.33004 15.266 3.22501 15.0015 3.22501ZM15.4119 11.7734C15.4116 11.8823 15.3683 11.9866 15.2914 12.0636C15.2145 12.1406 15.1103 12.184 15.0015 12.1843H0.998502C0.889743 12.184 0.785513 12.1406 0.708608 12.0636C0.631703 11.9866 0.588381 11.8823 0.588118 11.7734V4.22259C0.588118 4.11363 0.631355 4.00913 0.708317 3.93209C0.785279 3.85504 0.889662 3.81176 0.998502 3.81176H15.0015C15.1103 3.81176 15.2147 3.85504 15.2917 3.93209C15.3686 4.00913 15.4119 4.11363 15.4119 4.22259V11.7734Z"></path><path d="M4.3994 4.63442H3.83325V11.3606H4.3994V4.63442Z"></path><path d="M3.44683 4.63442H3.1972V11.3606H3.44683V4.63442Z"></path><path d="M6.45032 4.63442H5.10334V11.3606H6.45032V4.63442Z"></path><path d="M7.60359 4.63442H7.01747V11.3606H7.60359V4.63442Z"></path><path d="M12.0669 4.63442H10.7189V11.3606H12.0669V4.63442Z"></path><path d="M10.1528 4.63442H9.56665V11.3606H10.1528V4.63442Z"></path><path d="M8.94159 4.63442H8.35547V11.3606H8.94159V4.63442Z"></path><path d="M14.4104 4.63442H13.8243V11.3606H14.4104V4.63442Z"></path><path d="M13.1992 4.63442H12.6141V11.3606H13.1992V4.63442Z"></path>
</symbol>

<symbol id="bgcheck-check" viewBox="0 0 16 16">
  <path d="M15.247 2.48731L8.47801 0.270744C8.16735 0.169762 7.83267 0.169762 7.52201 0.270744L0.753034 2.48731C0.645208 2.5224 0.551386 2.59096 0.485205 2.68302C0.419024 2.77508 0.383934 2.88584 0.385035 2.99921V7.72128C0.384507 8.55346 0.576394 9.37449 0.945709 10.1203C1.31502 10.866 1.85177 11.5164 2.51403 12.0204L7.06901 15.4908C7.33656 15.6946 7.66363 15.805 8.00001 15.805C8.33639 15.805 8.66346 15.6946 8.93101 15.4908L13.486 12.0204C14.1483 11.5164 14.685 10.866 15.0543 10.1203C15.4236 9.37449 15.6155 8.55346 15.615 7.72128V2.99921C15.6161 2.88584 15.581 2.77508 15.5148 2.68302C15.4486 2.59096 15.3548 2.5224 15.247 2.48731ZM11.431 6.6185L7.49101 10.6887C7.48058 10.6993 7.46814 10.7078 7.4544 10.7136C7.44066 10.7193 7.42591 10.7223 7.41101 10.7223C7.39611 10.7223 7.38136 10.7193 7.36762 10.7136C7.35389 10.7078 7.34144 10.6993 7.33101 10.6887L4.56902 7.84926C4.5488 7.82853 4.53749 7.80073 4.53749 7.77177C4.53749 7.74282 4.5488 7.71502 4.56902 7.69429L5.65802 6.57451C5.66836 6.5639 5.68072 6.55546 5.69438 6.5497C5.70803 6.54395 5.7227 6.54098 5.73752 6.54098C5.75234 6.54098 5.767 6.54395 5.78066 6.5497C5.79431 6.55546 5.80667 6.5639 5.81702 6.57451L7.32401 8.1252C7.33743 8.13816 7.35536 8.14539 7.37401 8.14539C7.39266 8.14539 7.41059 8.13816 7.42401 8.1252L10.144 5.30976C10.1544 5.29899 10.1668 5.29043 10.1805 5.28458C10.1943 5.27873 10.2091 5.27571 10.224 5.27571C10.2389 5.27571 10.2537 5.27873 10.2675 5.28458C10.2812 5.29043 10.2936 5.29899 10.304 5.30976L11.427 6.46553C11.4472 6.48564 11.4588 6.51274 11.4596 6.54122C11.4603 6.56969 11.4501 6.59736 11.431 6.6185Z"></path>
</symbol>

<symbol id="bgcheck-x" viewBox="0 0 16 16">
  <path d="M15.216 2.47623L8.44849 0.270775C8.12283 0.169751 7.77422 0.169751 7.44856 0.270775L0.78501 2.47623C0.670915 2.50067 0.568773 2.56381 0.495883 2.65495C0.422992 2.74609 0.383833 2.85963 0.385037 2.97633V7.68931C0.383417 8.52004 0.570941 9.34023 0.933386 10.0877C1.29583 10.8351 1.82368 11.4902 2.4769 12.0032L7.05459 15.5039C7.33114 15.6998 7.66165 15.805 8.00052 15.805C8.33939 15.805 8.6699 15.6998 8.94646 15.5039L13.5241 12.0032C14.1764 11.4903 14.7036 10.8358 15.0658 10.0891C15.4281 9.34248 15.6158 8.52323 15.615 7.69331V2.97734C15.5401 2.77132 15.4 2.59538 15.216 2.47623ZM10.6163 9.5717L9.56942 10.6179L8.00052 9.04859L6.43163 10.6179L5.3857 9.5717L6.95459 8.00238L5.3857 6.43305L6.43163 5.38683L8.00052 6.95616L9.56942 5.38683L10.6153 6.43305L9.04645 8.00238L10.6163 9.5717Z"></path>
</symbol>

<symbol id="birthday" viewBox="0 0 16 16">
  <path d="M9.00003 2.31544C8.99129 2.60911 8.86845 2.88783 8.65758 3.09246C8.44672 3.2971 8.1644 3.41155 7.87053 3.41155C7.57665 3.41155 7.29434 3.2971 7.08347 3.09246C6.8726 2.88783 6.74977 2.60911 6.74103 2.31544C6.75021 1.86781 6.86872 1.42922 7.08624 1.03785C7.30376 0.646491 7.61368 0.314229 7.98903 0.0700073C8.02519 0.402078 8.11751 0.725597 8.26203 1.02677C8.47503 1.40167 9.00003 1.61862 9.00003 2.31544Z"></path><path d="M5.00003 2.31544C4.99129 2.60911 4.86845 2.88783 4.65758 3.09246C4.44672 3.2971 4.1644 3.41155 3.87053 3.41155C3.57665 3.41155 3.29434 3.2971 3.08347 3.09246C2.8726 2.88783 2.74977 2.60911 2.74103 2.31544C2.75021 1.86781 2.86872 1.42922 3.08624 1.03785C3.30376 0.646491 3.61368 0.314229 3.98903 0.0700073C4.02519 0.402078 4.11751 0.725597 4.26203 1.02677C4.47503 1.40167 5.00003 1.61862 5.00003 2.31544Z"></path><path d="M13 2.31544C12.9913 2.60911 12.8685 2.88783 12.6576 3.09246C12.4467 3.2971 12.1644 3.41155 11.8705 3.41155C11.5767 3.41155 11.2943 3.2971 11.0835 3.09246C10.8726 2.88783 10.7498 2.60911 10.741 2.31544C10.7502 1.86781 10.8687 1.42922 11.0862 1.03785C11.3038 0.646491 11.6137 0.314229 11.989 0.0700073C12.0252 0.402078 12.1175 0.725597 12.262 1.02677C12.475 1.40167 13 1.61862 13 2.31544Z"></path><path d="M15.285 8.75782H12.428V4.10099C12.3554 4.02781 12.269 3.96973 12.1739 3.93009C12.0787 3.89045 11.9766 3.87004 11.8735 3.87004C11.7704 3.87004 11.6683 3.89045 11.5732 3.93009C11.478 3.96973 11.3916 4.02781 11.319 4.10099V8.75782H8.42803V4.10099C8.36047 4.02125 8.2749 3.95872 8.1784 3.91857C8.0819 3.87841 7.97723 3.86178 7.87303 3.87005C7.76898 3.86186 7.66448 3.87853 7.56815 3.91869C7.47182 3.95884 7.38643 4.02133 7.31903 4.10099V8.75782H4.42803V4.10099C4.36047 4.02125 4.2749 3.95872 4.1784 3.91857C4.0819 3.87841 3.97723 3.86178 3.87303 3.87005C3.76898 3.86186 3.66448 3.87853 3.56815 3.91869C3.47182 3.95884 3.38643 4.02133 3.31903 4.10099V8.75782H0.715027C0.582419 8.75782 0.455242 8.81048 0.361473 8.90423C0.267705 8.99797 0.215027 9.12512 0.215027 9.25769V11.1222C0.781274 11.6242 1.52225 11.8835 2.27803 11.844C3.66303 11.844 4.62903 11.1532 4.62903 10.5324H5.62903C5.62903 11.1532 6.59503 11.844 7.98003 11.844C9.36503 11.844 10.33 11.1532 10.33 10.5324H11.33C11.33 11.1532 12.296 11.844 13.682 11.844C14.0657 11.8657 14.4497 11.8091 14.8107 11.6776C15.1717 11.5461 15.5022 11.3425 15.782 11.0792V9.25769C15.782 9.12563 15.7298 8.99894 15.6366 8.90528C15.5435 8.81162 15.4171 8.75861 15.285 8.75782Z"></path><path d="M10.83 11.7501C10.4561 12.119 10.0098 12.4065 9.51939 12.5948C9.02893 12.783 8.50483 12.8678 7.98003 12.8438C7.45506 12.8678 6.93079 12.7831 6.44016 12.5949C5.94953 12.4067 5.50313 12.119 5.12903 11.7501C4.75488 12.119 4.30848 12.4066 3.81786 12.5948C3.32723 12.783 2.80298 12.8678 2.27803 12.8438C1.56056 12.8523 0.852024 12.6841 0.215027 12.3539V15.4301C0.215027 15.5627 0.267705 15.6899 0.361473 15.7836C0.455242 15.8773 0.582419 15.93 0.715027 15.93H15.285C15.4176 15.93 15.5448 15.8773 15.6386 15.7836C15.7323 15.6899 15.785 15.5627 15.785 15.4301V12.3309C15.1394 12.6758 14.417 12.8523 13.685 12.8438C13.1594 12.8681 12.6345 12.7835 12.1432 12.5953C11.6519 12.4071 11.2048 12.1193 10.83 11.7501Z"></path>
</symbol>

<symbol id="chart" viewBox="0 0 16 16">
  <path d="M5.88392 1.47224e-06C4.80603 0.00019973 3.7524 0.32083 2.85627 0.921347C1.96015 1.52186 1.26178 2.37529 0.849468 3.37372C0.437159 4.37214 0.329434 5.47072 0.539914 6.53052C0.750394 7.59032 1.26963 8.56375 2.03195 9.32772C2.79428 10.0917 3.76545 10.6119 4.82267 10.8225C5.87989 11.0331 6.97567 10.9247 7.97144 10.511C8.9672 10.0973 9.81824 9.39683 10.4169 8.49823C11.0156 7.59963 11.335 6.54324 11.3348 5.46263C11.3351 4.74503 11.1943 4.03441 10.9204 3.3714C10.6465 2.70839 10.245 2.106 9.73876 1.59867C9.23252 1.09134 8.6315 0.689019 7.97006 0.414707C7.30861 0.140395 6.59972 -0.000525453 5.88392 1.47224e-06ZM5.88392 9.54708C4.81456 9.53028 3.79467 9.09262 3.04437 8.32856C2.29408 7.5645 1.87355 6.53531 1.87355 5.46313C1.87355 4.39095 2.29408 3.36177 3.04437 2.59771C3.79467 1.83364 4.81456 1.39599 5.88392 1.37919V5.47165L9.19726 7.83913C8.82066 8.36786 8.32348 8.79872 7.74714 9.09581C7.17079 9.3929 6.53198 9.54762 5.88392 9.54708Z"></path><path d="M12.9355 15.4918C12.9355 15.6263 12.9888 15.7553 13.0837 15.8504C13.1786 15.9456 13.3072 15.999 13.4414 15.999H15.0581C15.1925 15.999 15.3215 15.9455 15.4165 15.8502C15.5116 15.7549 15.565 15.6256 15.565 15.4908V6.77066C15.565 6.63615 15.5117 6.50715 15.4168 6.41203C15.3219 6.31692 15.1933 6.26348 15.0591 6.26348H13.4424C13.308 6.26348 13.179 6.31702 13.084 6.41233C12.9889 6.50763 12.9355 6.63688 12.9355 6.77166V15.4918Z"></path><path d="M9.02229 11.5818V15.4908C9.02229 15.5575 9.03541 15.6235 9.0609 15.6851C9.08639 15.7467 9.12374 15.8027 9.17082 15.8498C9.21791 15.8969 9.27379 15.9342 9.33529 15.9597C9.39678 15.9851 9.46268 15.9981 9.52919 15.998H11.1459C11.28 15.998 11.4087 15.9446 11.5036 15.8494C11.5985 15.7543 11.6518 15.6253 11.6518 15.4908V11.5818C11.6515 11.4467 11.5979 11.3173 11.5028 11.2217C11.4076 11.1261 11.2786 11.0721 11.1439 11.0716H9.53219C9.39721 11.0719 9.26782 11.1257 9.17229 11.2213C9.07675 11.3169 9.02282 11.4465 9.02229 11.5818Z"></path><path d="M5.11107 12.7946V15.4928C5.11107 15.6273 5.16437 15.7563 5.25925 15.8515C5.35412 15.9466 5.4828 16 5.61697 16H7.23165C7.2983 16.0001 7.36433 15.9871 7.42594 15.9616C7.48756 15.9361 7.54355 15.8987 7.59073 15.8515C7.63791 15.8043 7.67533 15.7482 7.70087 15.6865C7.72641 15.6248 7.73955 15.5586 7.73955 15.4918V12.7986C7.73902 12.6629 7.68503 12.5329 7.58933 12.437C7.49363 12.3411 7.36399 12.2869 7.22865 12.2864H5.61797C5.48353 12.2864 5.3546 12.34 5.25954 12.4353C5.16448 12.5306 5.11107 12.6598 5.11107 12.7946Z"></path>
</symbol>

<symbol id="check-pending" viewBox="0 0 16 16">
  <path fill-rule="evenodd" clip-rule="evenodd" d="M11.6417 5.39132C12.3561 5.39103 13.0633 5.53348 13.7221 5.81035L16 3.52519L13.3322 0.850006L6.01284 8.18952L2.59303 4.76028L0 7.36046L6.08365 13.4609L6.65013 12.8928C6.3079 12.0697 6.17368 11.1745 6.25938 10.2868C6.34509 9.39905 6.64807 8.54631 7.14142 7.80424C7.63478 7.06217 8.30323 6.45374 9.08744 6.03298C9.87164 5.61223 10.7473 5.39216 11.6367 5.39232L11.6417 5.39132Z"></path><path fill-rule="evenodd" clip-rule="evenodd" d="M11.6417 6.4734C10.786 6.4732 9.94936 6.7275 9.23773 7.20412C8.52611 7.68074 7.97144 8.35828 7.64386 9.15104C7.31628 9.9438 7.23052 10.8162 7.39742 11.6578C7.56433 12.4995 7.97639 13.2726 8.58151 13.8793C9.18662 14.4861 9.9576 14.8993 10.7969 15.0667C11.6363 15.2341 12.5062 15.1481 13.2968 14.8196C14.0874 14.4911 14.7631 13.9349 15.2384 13.2213C15.7137 12.5077 15.9673 11.6688 15.9671 10.8107C15.9668 9.66046 15.511 8.5574 14.6999 7.74406C13.8888 6.93071 12.7888 6.47366 11.6417 6.4734ZM13.0499 13.1739C12.9941 13.2281 12.9281 13.2707 12.8559 13.2994C12.7836 13.328 12.7064 13.3421 12.6287 13.3408C12.5509 13.3395 12.4743 13.3228 12.403 13.2918C12.3317 13.2607 12.2672 13.2159 12.2132 13.1599L10.803 11.6978V8.87057C10.7997 8.79071 10.8126 8.711 10.8408 8.63625C10.869 8.5615 10.912 8.49324 10.9672 8.43557C11.0224 8.37791 11.0886 8.33202 11.162 8.30068C11.2353 8.26933 11.3142 8.25318 11.3939 8.25318C11.4736 8.25318 11.5525 8.26933 11.6258 8.30068C11.6991 8.33202 11.7654 8.37791 11.8206 8.43557C11.8758 8.49324 11.9188 8.5615 11.947 8.63625C11.9752 8.711 11.9881 8.79071 11.9848 8.87057V11.2187L13.0639 12.3408C13.1179 12.3966 13.1604 12.4626 13.1889 12.5349C13.2175 12.6072 13.2315 12.6845 13.2302 12.7622C13.2289 12.84 13.2123 12.9167 13.1814 12.9881C13.1504 13.0594 13.1058 13.1239 13.0499 13.1779V13.1739Z"></path>
</symbol>

<symbol id="check" viewBox="0 0 16 16">
  <path fill-rule="evenodd" clip-rule="evenodd" d="M16 4.36916L13.3327 1.69501L6.01471 9.03168L2.59554 5.60377L0 8.20494L6.0855 14.305L6.0875 14.303L6.08949 14.305L16 4.36916Z"></path>
</symbol>

<symbol id="checkin" viewBox="0 0 16 16">
  <path fill-rule="evenodd" clip-rule="evenodd" d="M8.13051 14.422H13.2969C13.3539 14.422 13.4086 14.3993 13.4489 14.359C13.4892 14.3187 13.5119 14.264 13.5119 14.207V1.793C13.5119 1.73598 13.4892 1.68129 13.4489 1.64097C13.4086 1.60065 13.3539 1.578 13.2969 1.578H8.22252L7.22245 0H13.9169C14.228 0 14.5264 0.123584 14.7464 0.343564C14.9664 0.563544 15.09 0.861901 15.09 1.173V14.827C15.09 15.1381 14.9664 15.4365 14.7464 15.6564C14.5264 15.8764 14.228 16 13.9169 16H7.22245L8.13051 14.422Z"></path><path d="M10.8897 5.929C10.762 5.80117 10.5887 5.7293 10.408 5.7292C10.2273 5.72911 10.054 5.8008 9.92614 5.9285C9.7983 6.0562 9.72642 6.22945 9.72633 6.41015C9.72623 6.59084 9.79793 6.76417 9.92564 6.892L10.3537 7.319H7.9915C7.81088 7.319 7.63765 7.39075 7.50993 7.51846C7.38221 7.64617 7.31046 7.81939 7.31046 8C7.31046 8.18061 7.38221 8.35383 7.50993 8.48154C7.63765 8.60925 7.81088 8.681 7.9915 8.681H10.3527L9.92564 9.108C9.8624 9.1713 9.81225 9.24643 9.77806 9.32911C9.74386 9.41178 9.72628 9.50038 9.72633 9.58985C9.72637 9.67932 9.74404 9.76791 9.77833 9.85055C9.81261 9.93319 9.86284 10.0083 9.92614 10.0715C9.98944 10.1347 10.0646 10.1849 10.1473 10.2191C10.2299 10.2533 10.3186 10.2708 10.408 10.2708C10.4975 10.2708 10.5861 10.2531 10.6687 10.2188C10.7514 10.1845 10.8265 10.1343 10.8897 10.071L12.4288 8.532C12.4987 8.46225 12.5541 8.3794 12.592 8.2882C12.6298 8.197 12.6493 8.09923 12.6493 8.0005C12.6493 7.90177 12.6298 7.804 12.592 7.7128C12.5541 7.6216 12.4987 7.53875 12.4288 7.469L10.8897 5.929Z"></path><path d="M5.66034 7.539C6.07229 7.20329 6.37039 6.74845 6.51379 6.23677C6.6572 5.72509 6.6389 5.18159 6.46141 4.6807C6.28393 4.17982 5.95592 3.74605 5.52233 3.4388C5.08873 3.13155 4.57075 2.96585 4.03931 2.96438C3.50788 2.96292 2.98899 3.12577 2.55371 3.43062C2.11843 3.73548 1.78804 4.16744 1.60779 4.66733C1.42755 5.16723 1.40626 5.71062 1.54684 6.22309C1.68743 6.73555 1.98301 7.19203 2.39311 7.53C1.94062 7.80808 1.56681 8.19728 1.30721 8.66059C1.04762 9.12391 0.910882 9.64593 0.910004 10.177V11.812C0.911118 11.9768 0.945227 12.1398 1.01032 12.2913C1.07541 12.4427 1.17016 12.5796 1.289 12.6939C1.40783 12.8081 1.54834 12.8974 1.70224 12.9565C1.85614 13.0156 2.02032 13.0433 2.18509 13.038H5.85435C6.01913 13.0433 6.1833 13.0156 6.3372 12.9565C6.4911 12.8974 6.63161 12.8081 6.75045 12.6939C6.86928 12.5796 6.96404 12.4427 7.02913 12.2913C7.09422 12.1398 7.12833 11.9768 7.12944 11.812V10.177C7.12917 9.64865 6.99411 9.12909 6.73704 8.66748C6.47997 8.20587 6.10939 7.81747 5.66034 7.539ZM4.03422 4.1C4.31977 4.1 4.5989 4.18471 4.83628 4.3434C5.07366 4.50209 5.25863 4.72763 5.36776 4.99148C5.4769 5.25533 5.5053 5.54562 5.44937 5.82562C5.39345 6.10562 5.25571 6.36273 5.05359 6.56442C4.85146 6.7661 4.59405 6.9033 4.31392 6.95864C4.03378 7.01398 3.74353 6.98497 3.47989 6.8753C3.21625 6.76562 2.99108 6.5802 2.83287 6.3425C2.67466 6.10481 2.59053 5.82553 2.59112 5.54C2.59218 5.15789 2.74466 4.79178 3.01515 4.52188C3.28564 4.25197 3.65209 4.10026 4.03422 4.1ZM2.18509 11.953C2.14787 11.9527 2.11226 11.9378 2.08603 11.9114C2.0598 11.8849 2.04508 11.8492 2.04508 11.812V10.177C2.03916 9.91397 2.08586 9.6524 2.18244 9.40766C2.27901 9.16292 2.42352 8.93995 2.60746 8.75183C2.79141 8.5637 3.0111 8.41423 3.25362 8.31218C3.49614 8.21013 3.7566 8.15756 4.01972 8.15756C4.28284 8.15756 4.54331 8.21013 4.78583 8.31218C5.02835 8.41423 5.24803 8.5637 5.43198 8.75183C5.61593 8.93995 5.76044 9.16292 5.85701 9.40766C5.95358 9.6524 6.00028 9.91397 5.99436 10.177V11.812C5.99436 11.8492 5.97964 11.8849 5.95342 11.9114C5.92719 11.9378 5.89158 11.9527 5.85435 11.953H2.18509Z"></path>
</symbol>

<symbol id="checkout" viewBox="0 0 16 16">
  <path d="M12.2616 7.093C12.6665 7.093 13.0623 6.97295 13.399 6.74802C13.7357 6.52309 13.9981 6.20339 14.1531 5.82935C14.308 5.45531 14.3486 5.04373 14.2696 4.64665C14.1906 4.24957 13.9956 3.88483 13.7093 3.59855C13.4229 3.31227 13.0582 3.11732 12.661 3.03833C12.2639 2.95935 11.8522 2.99989 11.4781 3.15482C11.104 3.30975 10.7843 3.57212 10.5593 3.90875C10.3344 4.24538 10.2143 4.64114 10.2143 5.046C10.2143 5.5889 10.43 6.10956 10.8139 6.49345C11.1979 6.87733 11.7186 7.093 12.2616 7.093Z"></path><path d="M12.2406 8.072C11.5539 8.072 10.8952 8.34477 10.4096 8.8303C9.92403 9.31583 9.65122 9.97435 9.65122 10.661V12.33C9.65228 12.4221 9.67203 12.513 9.70928 12.5973C9.74654 12.6815 9.80052 12.7573 9.86795 12.82C9.93538 12.8828 10.0149 12.9312 10.1016 12.9623C10.1883 12.9934 10.2804 13.0066 10.3723 13.001H14.1089C14.2008 13.0066 14.2929 12.9934 14.3796 12.9623C14.4663 12.9312 14.5458 12.8828 14.6133 12.82C14.6807 12.7573 14.7347 12.6815 14.7719 12.5973C14.8092 12.513 14.8289 12.4221 14.83 12.33V10.661C14.83 9.97435 14.5572 9.31583 14.0716 8.8303C13.586 8.34477 12.9273 8.072 12.2406 8.072Z"></path><path fill-rule="evenodd" clip-rule="evenodd" d="M8.13 14.422H2.96024C2.90322 14.422 2.84852 14.3993 2.80819 14.359C2.76787 14.3187 2.74521 14.264 2.74521 14.207V1.793C2.74521 1.73598 2.76787 1.68129 2.80819 1.64097C2.84852 1.60065 2.90322 1.578 2.96024 1.578H8.03799L9.03813 0H2.34315C2.03201 0 1.73361 0.123584 1.5136 0.343564C1.29358 0.563544 1.16998 0.861901 1.16998 1.173V14.827C1.16998 15.1381 1.29358 15.4365 1.5136 15.6564C1.73361 15.8764 2.03201 16 2.34315 16H9.03813L8.13 14.422Z"></path><path d="M7.18886 5.929C7.06059 5.804 6.88823 5.73455 6.70911 5.7357C6.52998 5.73685 6.35853 5.8085 6.23187 5.93515C6.10521 6.06179 6.03354 6.23322 6.03239 6.41231C6.03124 6.59141 6.1007 6.76374 6.22572 6.892L6.65279 7.319H4.29144C4.1108 7.319 3.93756 7.39075 3.80983 7.51846C3.6821 7.64617 3.61034 7.81939 3.61034 8C3.61034 8.18061 3.6821 8.35383 3.80983 8.48154C3.93756 8.60925 4.1108 8.681 4.29144 8.681H6.65279L6.22572 9.108C6.16114 9.17093 6.1097 9.24606 6.07439 9.32903C6.03908 9.412 6.0206 9.50115 6.02002 9.59131C6.01944 9.68148 6.03678 9.77086 6.07102 9.85427C6.10526 9.93768 6.15573 10.0135 6.2195 10.0772C6.28326 10.141 6.35906 10.1914 6.44248 10.2257C6.52591 10.2599 6.6153 10.2772 6.70548 10.2767C6.79566 10.2761 6.88482 10.2576 6.9678 10.2223C7.05078 10.187 7.12592 10.1356 7.18886 10.071L8.72909 8.532C8.79898 8.46225 8.85442 8.3794 8.89225 8.2882C8.93008 8.197 8.94955 8.09923 8.94955 8.0005C8.94955 7.90177 8.93008 7.804 8.89225 7.7128C8.85442 7.6216 8.79898 7.53875 8.72909 7.469L7.18886 5.929Z"></path>
</symbol>

<symbol id="delete" viewBox="0 0 16 16">
  <path d="M14.5841 2.10501H5.59696C5.23764 2.12097 4.88499 2.2077 4.55921 2.36022C4.23343 2.51274 3.94092 2.72806 3.69842 2.99386L0.358986 6.96919C0.126517 7.26243 0 7.62572 0 8.00001C0 8.37431 0.126517 8.7376 0.358986 9.03084L3.70042 13.0052C3.94266 13.2714 4.2351 13.487 4.56092 13.6397C4.88674 13.7924 5.23951 13.8792 5.59896 13.895H14.5861C14.9635 13.8921 15.3243 13.7395 15.5894 13.4707C15.8544 13.2019 16.0021 12.8389 16 12.4613V3.53877C16.0021 3.1608 15.8542 2.79746 15.5886 2.52861C15.3231 2.25975 14.9618 2.10739 14.5841 2.10501ZM14.7839 12.4613C14.7856 12.5167 14.7657 12.5706 14.7284 12.6116C14.6911 12.6527 14.6394 12.6776 14.5841 12.6812H5.59796C5.23119 12.6479 4.88794 12.4861 4.62871 12.2243L1.28627 8.24997C1.23557 8.17649 1.20841 8.08931 1.20841 8.00001C1.20841 7.91072 1.23557 7.82353 1.28627 7.75005L4.62871 3.77573C4.88794 3.51397 5.23119 3.35216 5.59796 3.31881H14.5841C14.6394 3.32241 14.6911 3.34736 14.7284 3.38839C14.7657 3.42942 14.7856 3.48334 14.7839 3.53877V12.4613Z"></path><path d="M11.2666 4.75056L9.68782 6.33029L8.11003 4.75056L6.44132 6.42028L8.0201 8.00001L6.44132 9.57974L8.11003 11.2485L9.68782 9.66873L11.2666 11.2485L12.9353 9.57974L11.3565 8.00001L12.9353 6.42028L11.2666 4.75056Z"></path>
</symbol>

<symbol id="guest-badge" viewBox="0 0 16 16">
  <path d="M13.0614 0H2.94157C2.58841 0 2.24972 0.140476 2 0.390524C1.75028 0.640573 1.60999 0.979711 1.60999 1.33333V14.6667C1.60999 15.0203 1.75028 15.3594 2 15.6095C2.24972 15.8595 2.58841 16 2.94157 16H13.0614C13.414 15.9992 13.752 15.8584 14.001 15.6084C14.2501 15.3585 14.39 15.0198 14.39 14.6667V1.33333C14.39 0.980231 14.2501 0.641547 14.001 0.391584C13.752 0.141622 13.414 0.000795275 13.0614 0ZM7.06928 1.06707H9.46852C9.57458 1.06707 9.67629 1.10925 9.75128 1.18434C9.82627 1.25943 9.8684 1.36127 9.8684 1.46747C9.8684 1.57366 9.82627 1.6755 9.75128 1.75059C9.67629 1.82568 9.57458 1.86787 9.46852 1.86787H7.06928C6.96322 1.86787 6.86151 1.82568 6.78652 1.75059C6.71153 1.6755 6.6694 1.57366 6.6694 1.46747C6.6694 1.36127 6.71153 1.25943 6.78652 1.18434C6.86151 1.10925 6.96322 1.06707 7.06928 1.06707ZM13.3283 14.4004C13.3283 14.5419 13.2722 14.6776 13.1723 14.7777C13.0723 14.8777 12.9368 14.9339 12.7955 14.9339H3.4734C3.33226 14.9337 3.19699 14.8773 3.09728 14.7773C2.99757 14.6773 2.94157 14.5417 2.94157 14.4004V6.13313C2.94289 5.99277 2.9995 5.8586 3.0991 5.75981C3.19869 5.66102 3.33321 5.6056 3.4734 5.60561H12.7955C12.9366 5.60561 13.072 5.66168 13.1719 5.76152C13.2718 5.86136 13.3281 5.99681 13.3283 6.13814V14.4004ZM8.61479 7.84585H7.946V10.8919H8.61479V7.84585ZM6.48446 10.8919L7.49214 7.84585H6.80336L6.11757 9.98699H6.10958L5.43179 7.84585H4.746L5.7297 10.8919H6.48446ZM5.0719 12.9429H11.197V12.1421H5.0719V12.9429ZM11.5789 8.14815C11.4874 8.05182 11.3758 7.97696 11.252 7.92893C11.0971 7.86929 10.932 7.84105 10.7661 7.84585H9.39155V10.8919H10.0603V9.7998H10.7601C10.9259 9.8041 11.091 9.77587 11.246 9.71672C11.3696 9.66787 11.4811 9.59274 11.5729 9.4965C11.6554 9.40628 11.7178 9.29946 11.7558 9.18318C11.8318 8.94794 11.8318 8.69471 11.7558 8.45946C11.7191 8.3445 11.6588 8.23847 11.5789 8.14815ZM11.122 9.05706C11.0921 9.11439 11.0472 9.16249 10.992 9.1962C10.9344 9.22961 10.871 9.25201 10.8051 9.26226C10.7317 9.27363 10.6575 9.27932 10.5832 9.27928H10.0633V8.36637H10.5832C10.6575 8.36583 10.7317 8.37152 10.8051 8.38338C10.8712 8.39269 10.9348 8.41515 10.992 8.44945C11.0471 8.48277 11.0921 8.53054 11.122 8.58759C11.1543 8.66162 11.171 8.74154 11.171 8.82232C11.171 8.90311 11.1543 8.98302 11.122 9.05706Z"></path>
</symbol>

<symbol id="household-add-person" viewBox="0 0 16 16">
  <path d="M3.91158 12.9642V8.24961H2.06603C2.06099 8.2466 2.05703 8.24208 2.05469 8.2367C2.05236 8.23131 2.05178 8.22533 2.05303 8.2196L7.54667 1.96851H7.57468L11.6059 6.53203H13.3904L8.58898 1.07521C8.46019 0.92901 8.30174 0.811905 8.12418 0.731689C7.94662 0.651473 7.75401 0.609985 7.55917 0.609985C7.36433 0.609985 7.17173 0.651473 6.99417 0.731689C6.8166 0.811905 6.65816 0.92901 6.52936 1.07521L1.02972 7.3193C0.853921 7.5113 0.739143 7.75122 0.699961 8.00858C0.660779 8.26595 0.698959 8.52915 0.809654 8.76478C0.918301 9.00334 1.09485 9.20459 1.31724 9.34337C1.53963 9.48215 1.79799 9.55229 2.06003 9.54504H2.56018V12.9612C2.55102 13.3258 2.68654 13.6793 2.93713 13.9443C3.18772 14.2093 3.53301 14.3644 3.89758 14.3756H8.19886V13.0212H3.89758C3.88757 13.0212 3.91158 12.9752 3.91158 12.9642Z"></path><path d="M14.5788 11.6097L13.1003 10.9965C13.4648 10.8087 13.7555 10.5038 13.9258 10.1309C14.0962 9.75791 14.1362 9.33854 14.0396 8.94008C13.943 8.54163 13.7152 8.18721 13.3929 7.93376C13.0707 7.6803 12.6726 7.54251 12.2626 7.54251C11.8526 7.54251 11.4545 7.6803 11.1322 7.93376C10.8099 8.18721 10.5822 8.54163 10.4856 8.94008C10.3889 9.33854 10.429 9.75791 10.5993 10.1309C10.7697 10.5038 11.0604 10.8087 11.4248 10.9965L9.94238 11.6087C9.72472 11.6985 9.53878 11.8511 9.40834 12.0472C9.27791 12.2432 9.20891 12.4736 9.21017 12.7091V14.2026C9.21017 14.5168 9.33471 14.8182 9.55652 15.0408C9.77833 15.2634 10.0793 15.3889 10.3935 15.39H14.1316C14.4458 15.3889 14.7468 15.2634 14.9686 15.0408C15.1904 14.8182 15.315 14.5168 15.315 14.2026V12.7071C15.3157 12.4716 15.246 12.2413 15.1148 12.0457C14.9836 11.8502 14.7969 11.6983 14.5788 11.6097Z"></path><path d="M7.53967 10.5934L7.53466 10.5924L7.53066 10.5934H7.53967Z"></path><path d="M9.77734 8.40866C9.7763 8.32096 9.75788 8.23434 9.72315 8.15381C9.68841 8.07328 9.63805 8.00044 9.57498 7.9395C9.5119 7.87857 9.43737 7.83074 9.35569 7.79881C9.27401 7.76687 9.18681 7.75145 9.09913 7.75344H8.19886V6.82813C8.20099 6.74035 8.18559 6.65302 8.15355 6.57126C8.12152 6.48949 8.0735 6.41495 8.0123 6.35198C7.9511 6.289 7.87795 6.23887 7.79714 6.20452C7.71633 6.17017 7.62948 6.15228 7.54167 6.15191H7.53066C7.35041 6.15163 7.17732 6.2225 7.04902 6.34912C6.92072 6.47574 6.84757 6.64788 6.84546 6.82813V7.75344H6.01321C5.9259 7.75022 5.83883 7.76458 5.75718 7.79566C5.67552 7.82675 5.60095 7.87392 5.53788 7.93438C5.4748 7.99484 5.42452 8.06736 5.39002 8.14763C5.35551 8.2279 5.33748 8.31429 5.33701 8.40166V8.41966C5.33672 8.6003 5.40746 8.77382 5.53397 8.90276C5.66047 9.03171 5.8326 9.10574 6.01321 9.10889H6.84546V9.92016C6.84964 10.1003 6.92406 10.2716 7.05283 10.3976C7.1816 10.5235 7.35452 10.5942 7.53466 10.5944C7.62262 10.594 7.70963 10.5762 7.7907 10.5421C7.87176 10.5079 7.94527 10.4581 8.00699 10.3954C8.06872 10.3328 8.11746 10.2585 8.15038 10.177C8.18331 10.0954 8.19979 10.0081 8.19886 9.92016V9.10489H9.09913C9.28031 9.0992 9.45222 9.02346 9.5787 8.89361C9.70519 8.76377 9.77639 8.58993 9.77734 8.40866Z"></path><path d="M9.77834 8.40166L9.77734 8.40866L9.77834 8.41566V8.40166Z"></path>
</symbol>

<symbol id="label-add-multiple" viewBox="0 0 16 16">
  <path fill-rule="evenodd" clip-rule="evenodd" d="M1.998 10.0371H0.00601504L2.75388 12.78V10.7904C2.75335 10.5906 2.67351 10.3992 2.53184 10.258C2.39017 10.1168 2.19821 10.0374 1.998 10.0371Z"></path><path fill-rule="evenodd" clip-rule="evenodd" d="M13.7945 3.22C13.3583 3.22 12.9319 3.34907 12.5692 3.59088C12.2065 3.8327 11.9238 4.1764 11.7569 4.57852C11.5899 4.98065 11.5463 5.42313 11.6314 5.85003C11.7165 6.27692 11.9265 6.66904 12.235 6.97681C12.5434 7.28459 12.9364 7.49418 13.3642 7.5791C13.792 7.66401 14.2355 7.62043 14.6385 7.45387C15.0415 7.2873 15.386 7.00523 15.6283 6.64333C15.8706 6.28143 16 5.85595 16 5.42069C16 4.83703 15.7676 4.27728 15.354 3.86457C14.9404 3.45186 14.3794 3.22 13.7945 3.22ZM15.1218 5.74779H14.1253V6.74211H13.4637V5.74779H12.4662V5.08759H13.4637V4.09328H14.1253V5.08759H15.1218V5.74779Z"></path><path fill-rule="evenodd" clip-rule="evenodd" d="M11.1198 5.41769C11.1225 4.95205 11.2488 4.49544 11.4857 4.09428H1.37444C1.00991 4.09428 0.66032 4.23876 0.402563 4.49596C0.144806 4.75315 0 5.10198 0 5.46571V9.579H1.998C2.31928 9.58006 2.62705 9.70815 2.85386 9.93521C3.08067 10.1623 3.20802 10.4698 3.20802 10.7904V12.779H13.7474C14.1119 12.779 14.4615 12.6345 14.7192 12.3773C14.977 12.1201 15.1218 11.7713 15.1218 11.4076V7.72041C14.7197 7.95762 14.2616 8.08397 13.7945 8.08653C13.0854 8.08573 12.4055 7.8043 11.9041 7.30397C11.4026 6.80363 11.1206 6.12527 11.1198 5.41769Z"></path><path d="M2.22256 3.22C2.03238 3.22072 1.84445 3.26103 1.67079 3.33837C1.49713 3.41571 1.34156 3.52837 1.21404 3.66914H11.8486C12.0107 3.49628 12.1947 3.34529 12.396 3.22H2.22256Z"></path><path d="M15.5479 7.3573V11.5586C15.6886 11.4314 15.8013 11.2763 15.8786 11.1032C15.9559 10.9301 15.9963 10.7428 15.997 10.5533V6.81413C15.8715 7.01382 15.7205 7.1964 15.5479 7.3573Z"></path>
</symbol>

<symbol id="label-birthday-add" viewBox="0 0 16 16">
  <path fill-rule="evenodd" clip-rule="evenodd" d="M1.998 10.0371H0.00601504L2.75388 12.78V10.7904C2.75335 10.5906 2.67351 10.3992 2.53184 10.258C2.39017 10.1168 2.19821 10.0374 1.998 10.0371Z"></path><path fill-rule="evenodd" clip-rule="evenodd" d="M13.7945 3.22C13.3583 3.22 12.9319 3.34907 12.5692 3.59088C12.2065 3.8327 11.9238 4.1764 11.7569 4.57852C11.5899 4.98065 11.5463 5.42313 11.6314 5.85003C11.7165 6.27692 11.9265 6.66904 12.235 6.97681C12.5434 7.28459 12.9364 7.49418 13.3642 7.5791C13.792 7.66401 14.2355 7.62043 14.6385 7.45387C15.0415 7.2873 15.386 7.00523 15.6283 6.64333C15.8706 6.28143 16 5.85595 16 5.42069C16 4.83703 15.7676 4.27728 15.354 3.86457C14.9404 3.45186 14.3794 3.22 13.7945 3.22ZM15.1218 5.74779H14.1253V6.74211H13.4637V5.74779H12.4662V5.08759H13.4637V4.09328H14.1253V5.08759H15.1218V5.74779Z"></path><path fill-rule="evenodd" clip-rule="evenodd" d="M13.7945 8.08653C14.2616 8.08397 14.7197 7.95762 15.1218 7.72041V11.4076C15.1218 11.7713 14.977 12.1201 14.7192 12.3773C14.4615 12.6345 14.1119 12.779 13.7474 12.779H3.20802V10.7904C3.20802 10.4698 3.08067 10.1623 2.85386 9.93521C2.62705 9.70815 2.31928 9.58006 1.998 9.579H0V5.46571C0 5.10198 0.144806 4.75315 0.402563 4.49596C0.66032 4.23876 1.00991 4.09428 1.37444 4.09428H11.4857C11.2488 4.49544 11.1225 4.95205 11.1198 5.41769C11.1206 6.12527 11.4026 6.80363 11.9041 7.30397C12.4055 7.8043 13.0854 8.08573 13.7945 8.08653ZM13.6662 11.4526H13.6852C13.7093 11.4462 13.7302 11.4311 13.7437 11.4102C13.7572 11.3893 13.7625 11.3641 13.7584 11.3396L13.7373 11.2315C13.8732 11.1924 13.9979 11.1221 14.1014 11.0261C14.205 10.9301 14.2845 10.8112 14.3336 10.6789C14.3826 10.5466 14.3998 10.4047 14.3838 10.2646C14.3678 10.1245 14.3191 9.99005 14.2415 9.87217C14.1639 9.75429 14.0596 9.65626 13.9371 9.58597C13.8145 9.51568 13.6771 9.4751 13.536 9.4675C13.3949 9.4599 13.2539 9.48549 13.1245 9.54221C12.9951 9.59894 12.8808 9.68521 12.791 9.79406C13.0206 9.85714 13.2233 9.99344 13.3681 10.1822C13.5129 10.3709 13.5919 10.6017 13.593 10.8394C13.5932 11.0398 13.5373 11.2362 13.4316 11.4066C13.4397 11.4212 13.4516 11.4334 13.4661 11.4418C13.4805 11.4503 13.497 11.4547 13.5138 11.4546H13.5188C13.5429 11.5619 13.5938 11.6615 13.6667 11.744C13.7396 11.8265 13.8321 11.8894 13.9358 11.9267L13.9779 11.8367C13.8921 11.8062 13.8149 11.7556 13.7528 11.6891C13.6907 11.6226 13.6455 11.5422 13.6211 11.4546L13.6662 11.4526ZM12.6637 11.9527H12.6827C12.7068 11.9464 12.7277 11.9312 12.7412 11.9103C12.7547 11.8894 12.76 11.8643 12.7559 11.8397L12.7348 11.7317C12.9527 11.6712 13.1399 11.5313 13.2593 11.3396C13.3787 11.148 13.4216 10.9186 13.3795 10.6968C13.3375 10.4751 13.2135 10.2772 13.0321 10.1424C12.8507 10.0076 12.6253 9.94561 12.4003 9.96881C12.1753 9.992 11.9673 10.0987 11.8174 10.2676C11.6675 10.4366 11.5867 10.6556 11.5909 10.8812C11.5952 11.1069 11.6842 11.3227 11.8404 11.4859C11.9965 11.6492 12.2084 11.7479 12.4341 11.7627L12.418 11.8397V11.8587C12.418 11.8844 12.4279 11.9091 12.4456 11.9277C12.4633 11.9464 12.4876 11.9575 12.5133 11.9587H12.5484C12.5566 12.0341 12.5391 12.1101 12.4987 12.1744C12.4583 12.2386 12.3974 12.2874 12.3258 12.3129L12.3679 12.4039C12.4571 12.3705 12.5328 12.309 12.5835 12.2286C12.6342 12.1481 12.6571 12.0534 12.6486 11.9587L12.6637 11.9527Z"></path>
</symbol>

<symbol id="label-birthday-circle" viewBox="0 0 16 16">
  <path fill-rule="evenodd" clip-rule="evenodd" d="M1.998 10.0371H0.00601504L2.75388 12.78V10.7904C2.75335 10.5906 2.67351 10.3992 2.53184 10.258C2.39017 10.1168 2.19821 10.0374 1.998 10.0371Z"></path><path fill-rule="evenodd" clip-rule="evenodd" d="M13.7945 3.22C13.3583 3.22 12.9319 3.34907 12.5692 3.59088C12.2065 3.8327 11.9238 4.1764 11.7569 4.57852C11.5899 4.98065 11.5463 5.42313 11.6314 5.85003C11.7165 6.27692 11.9265 6.66904 12.235 6.97681C12.5434 7.28459 12.9364 7.49418 13.3642 7.5791C13.792 7.66401 14.2355 7.62043 14.6385 7.45387C15.0415 7.2873 15.386 7.00523 15.6283 6.64333C15.8706 6.28143 16 5.85595 16 5.42069C16 4.83703 15.7676 4.27728 15.354 3.86457C14.9404 3.45186 14.3794 3.22 13.7945 3.22Z"></path><path fill-rule="evenodd" clip-rule="evenodd" d="M13.7945 8.08653C14.2616 8.08397 14.7197 7.95762 15.1218 7.72041V11.4076C15.1218 11.7713 14.977 12.1201 14.7192 12.3773C14.4615 12.6345 14.1119 12.779 13.7474 12.779H3.20802V10.7904C3.20802 10.4698 3.08067 10.1623 2.85386 9.93521C2.62705 9.70815 2.31928 9.58006 1.998 9.579H0V5.46571C0 5.10198 0.144806 4.75315 0.402563 4.49596C0.66032 4.23876 1.00991 4.09428 1.37444 4.09428H11.4857C11.2488 4.49544 11.1225 4.95205 11.1198 5.41769C11.1206 6.12527 11.4026 6.80363 11.9041 7.30397C12.4055 7.8043 13.0854 8.08573 13.7945 8.08653ZM13.6662 11.4526H13.6852C13.7093 11.4462 13.7302 11.4311 13.7437 11.4102C13.7572 11.3893 13.7625 11.3641 13.7584 11.3396L13.7373 11.2315C13.8732 11.1924 13.9979 11.1221 14.1014 11.0261C14.205 10.9301 14.2845 10.8112 14.3336 10.6789C14.3826 10.5466 14.3998 10.4047 14.3838 10.2646C14.3678 10.1245 14.3191 9.99005 14.2415 9.87217C14.1639 9.75429 14.0596 9.65626 13.9371 9.58597C13.8145 9.51568 13.6771 9.4751 13.536 9.4675C13.3949 9.4599 13.2539 9.48549 13.1245 9.54221C12.9951 9.59894 12.8808 9.68521 12.791 9.79406C13.0206 9.85714 13.2233 9.99344 13.3681 10.1822C13.5129 10.3709 13.5919 10.6017 13.593 10.8394C13.5932 11.0398 13.5373 11.2362 13.4316 11.4066C13.4397 11.4212 13.4516 11.4334 13.4661 11.4418C13.4805 11.4503 13.497 11.4547 13.5138 11.4546H13.5188C13.5429 11.5619 13.5938 11.6615 13.6667 11.744C13.7396 11.8265 13.8321 11.8894 13.9358 11.9267L13.9779 11.8367C13.8921 11.8062 13.8149 11.7556 13.7528 11.6891C13.6907 11.6226 13.6455 11.5422 13.6211 11.4546L13.6662 11.4526ZM12.6637 11.9527H12.6827C12.7068 11.9464 12.7277 11.9312 12.7412 11.9103C12.7547 11.8894 12.76 11.8643 12.7559 11.8397L12.7348 11.7317C12.9527 11.6712 13.1399 11.5313 13.2593 11.3396C13.3787 11.148 13.4216 10.9186 13.3795 10.6968C13.3375 10.4751 13.2135 10.2772 13.0321 10.1424C12.8507 10.0076 12.6253 9.94561 12.4003 9.96881C12.1753 9.992 11.9673 10.0987 11.8174 10.2676C11.6675 10.4366 11.5867 10.6556 11.5909 10.8812C11.5952 11.1069 11.6842 11.3227 11.8404 11.4859C11.9965 11.6492 12.2084 11.7479 12.4341 11.7627L12.418 11.8397V11.8587C12.418 11.8844 12.4279 11.9091 12.4456 11.9277C12.4633 11.9464 12.4876 11.9575 12.5133 11.9587H12.5484C12.5566 12.0341 12.5391 12.1101 12.4987 12.1744C12.4583 12.2386 12.3974 12.2874 12.3258 12.3129L12.3679 12.4039C12.4571 12.3705 12.5328 12.309 12.5835 12.2286C12.6342 12.1481 12.6571 12.0534 12.6486 11.9587L12.6637 11.9527Z"></path>
</symbol>

<symbol id="label-birthday" viewBox="0 0 16 16">
  <path fill-rule="evenodd" clip-rule="evenodd" d="M2.44448 9.60036H0.451006L3.19628 12.348V10.3585C3.19681 10.1583 3.11797 9.96609 2.97703 9.82396C2.8361 9.68183 2.64458 9.60142 2.44448 9.60036Z"></path><path fill-rule="evenodd" clip-rule="evenodd" d="M14.1814 3.64999H1.81864C1.6383 3.64986 1.4597 3.68529 1.29305 3.75424C1.1264 3.8232 0.974964 3.92434 0.847397 4.05188C0.71983 4.17941 0.618633 4.33085 0.549589 4.49753C0.480545 4.66422 0.445007 4.84288 0.445007 5.02331V9.14526H2.44448C2.76558 9.14605 3.07326 9.27423 3.30003 9.50168C3.52681 9.72913 3.65416 10.0373 3.65416 10.3585V12.35H14.1814C14.3617 12.3501 14.5403 12.3147 14.707 12.2457C14.8736 12.1768 15.0251 12.0757 15.1526 11.9481C15.2802 11.8206 15.3814 11.6691 15.4504 11.5025C15.5195 11.3358 15.555 11.1571 15.555 10.9767V5.02331C15.555 4.84288 15.5195 4.66422 15.4504 4.49753C15.3814 4.33085 15.2802 4.17941 15.1526 4.05188C15.0251 3.92434 14.8736 3.8232 14.707 3.75424C14.5403 3.68529 14.3617 3.64986 14.1814 3.64999ZM14.0324 11.0157C14.0569 11.1031 14.1019 11.1834 14.1639 11.2497C14.2258 11.316 14.3028 11.3665 14.3883 11.3968L14.3463 11.4878C14.243 11.4503 14.1508 11.3874 14.0781 11.3049C14.0054 11.2224 13.9547 11.1229 13.9304 11.0157H13.9254C13.9087 11.0158 13.8923 11.0114 13.8779 11.0029C13.8634 10.9945 13.8515 10.9823 13.8435 10.9677C13.9489 10.7974 14.0047 10.6009 14.0044 10.4005C14.0033 10.1629 13.9246 9.93209 13.7802 9.74338C13.6358 9.55466 13.4337 9.41838 13.2046 9.35531C13.2942 9.24635 13.4082 9.15999 13.5373 9.1032C13.6664 9.04642 13.807 9.02079 13.9479 9.02839C14.0887 9.03599 14.2258 9.0766 14.348 9.14696C14.4703 9.21731 14.5743 9.31543 14.6517 9.4334C14.729 9.55137 14.7776 9.68588 14.7935 9.82609C14.8093 9.9663 14.792 10.1083 14.7429 10.2406C14.6939 10.3728 14.6144 10.4917 14.5109 10.5876C14.4075 10.6835 14.283 10.7538 14.1474 10.7926L14.1684 10.9007C14.1724 10.9252 14.1672 10.9504 14.1537 10.9713C14.1402 10.9922 14.1194 11.0073 14.0954 11.0137H14.0764L14.0324 11.0157ZM13.0617 11.5158C13.0701 11.6104 13.0473 11.7052 12.9967 11.7856C12.9462 11.866 12.8706 11.9276 12.7817 11.9609L12.7398 11.8699C12.8114 11.8448 12.8723 11.796 12.9127 11.7317C12.953 11.6674 12.9703 11.5913 12.9617 11.5158H12.9267C12.9011 11.5145 12.8769 11.5034 12.8592 11.4848C12.8415 11.4662 12.8317 11.4415 12.8317 11.4158V11.3968L12.8477 11.3198C12.6227 11.305 12.4114 11.2062 12.2556 11.043C12.0999 10.8798 12.0111 10.664 12.0069 10.4384C12.0027 10.2128 12.0833 9.99381 12.2327 9.82484C12.3822 9.65587 12.5897 9.54923 12.814 9.52604C13.0384 9.50284 13.2632 9.56479 13.4441 9.69961C13.6249 9.83442 13.7486 10.0323 13.7906 10.254C13.8325 10.4757 13.7897 10.7051 13.6707 10.8967C13.5516 11.0884 13.3649 11.2283 13.1476 11.2888L13.1686 11.3968C13.1727 11.4213 13.1675 11.4465 13.154 11.4674C13.1405 11.4883 13.1197 11.5034 13.0957 11.5098H13.0767L13.0617 11.5158Z"></path>
</symbol>

<symbol id="label-name-add" viewBox="0 0 16 16">
  <path fill-rule="evenodd" clip-rule="evenodd" d="M1.998 10.0371H0.00601504L2.75388 12.78V10.7904C2.75335 10.5906 2.67351 10.3992 2.53184 10.258C2.39017 10.1168 2.19821 10.0374 1.998 10.0371Z"></path><path fill-rule="evenodd" clip-rule="evenodd" d="M13.7945 3.22C13.3583 3.22 12.9319 3.34907 12.5692 3.59088C12.2065 3.8327 11.9238 4.1764 11.7569 4.57852C11.5899 4.98065 11.5463 5.42313 11.6314 5.85003C11.7165 6.27692 11.9265 6.66904 12.235 6.97681C12.5434 7.28459 12.9364 7.49418 13.3642 7.5791C13.792 7.66401 14.2355 7.62043 14.6385 7.45387C15.0415 7.2873 15.386 7.00523 15.6283 6.64333C15.8706 6.28143 16 5.85595 16 5.42069C16 4.83703 15.7676 4.27728 15.354 3.86457C14.9404 3.45186 14.3794 3.22 13.7945 3.22ZM15.1218 5.74779H14.1253V6.74211H13.4637V5.74779H12.4662V5.08759H13.4637V4.09328H14.1253V5.08759H15.1218V5.74779Z"></path><path fill-rule="evenodd" clip-rule="evenodd" d="M11.1198 5.41769C11.1225 4.95205 11.2488 4.49544 11.4857 4.09428H1.37444C1.00991 4.09428 0.66032 4.23876 0.402563 4.49596C0.144806 4.75315 0 5.10198 0 5.46571V9.579H1.998C2.31928 9.58006 2.62705 9.70815 2.85386 9.93521C3.08067 10.1623 3.20802 10.4698 3.20802 10.7904V12.779H13.7474C14.1119 12.779 14.4615 12.6345 14.7192 12.3773C14.977 12.1201 15.1218 11.7713 15.1218 11.4076V7.72041C14.7197 7.95762 14.2616 8.08397 13.7945 8.08653C13.0854 8.08573 12.4055 7.8043 11.9041 7.30397C11.4026 6.80363 11.1206 6.12527 11.1198 5.41769Z"></path>
</symbol>

<symbol id="label-name-circle" viewBox="0 0 16 16">
  <path fill-rule="evenodd" clip-rule="evenodd" d="M1.998 10.0371H0.00601504L2.75388 12.78V10.7904C2.75335 10.5906 2.67351 10.3992 2.53184 10.258C2.39017 10.1168 2.19821 10.0374 1.998 10.0371Z"></path><path fill-rule="evenodd" clip-rule="evenodd" d="M13.7945 3.22C13.3583 3.22 12.9319 3.34907 12.5692 3.59088C12.2065 3.8327 11.9238 4.1764 11.7569 4.57852C11.5899 4.98065 11.5463 5.42313 11.6314 5.85003C11.7165 6.27692 11.9265 6.66904 12.235 6.97681C12.5434 7.28459 12.9364 7.49418 13.3642 7.5791C13.792 7.66401 14.2355 7.62043 14.6385 7.45387C15.0415 7.2873 15.386 7.00523 15.6283 6.64333C15.8706 6.28143 16 5.85595 16 5.42069C16 4.83703 15.7676 4.27728 15.354 3.86457C14.9404 3.45186 14.3794 3.22 13.7945 3.22Z"></path><path fill-rule="evenodd" clip-rule="evenodd" d="M11.1198 5.41769C11.1225 4.95205 11.2488 4.49544 11.4857 4.09428H1.37444C1.00991 4.09428 0.66032 4.23876 0.402563 4.49596C0.144806 4.75315 0 5.10198 0 5.46571V9.579H1.998C2.31928 9.58006 2.62705 9.70815 2.85386 9.93521C3.08067 10.1623 3.20802 10.4698 3.20802 10.7904V12.779H13.7474C14.1119 12.779 14.4615 12.6345 14.7192 12.3773C14.977 12.1201 15.1218 11.7713 15.1218 11.4076V7.72041C14.7197 7.95762 14.2616 8.08397 13.7945 8.08653C13.0854 8.08573 12.4055 7.8043 11.9041 7.30397C11.4026 6.80363 11.1206 6.12527 11.1198 5.41769Z"></path>
</symbol>

<symbol id="label-name" viewBox="0 0 16 16">
  <path fill-rule="evenodd" clip-rule="evenodd" d="M2.44448 9.60036H0.451006L3.19628 12.348V10.3585C3.19681 10.1583 3.11797 9.96609 2.97703 9.82396C2.8361 9.68183 2.64458 9.60142 2.44448 9.60036Z"></path><path fill-rule="evenodd" clip-rule="evenodd" d="M14.1814 3.64999H1.81864C1.6383 3.64986 1.4597 3.68529 1.29305 3.75424C1.1264 3.8232 0.974964 3.92434 0.847397 4.05188C0.71983 4.17941 0.618633 4.33085 0.549589 4.49753C0.480545 4.66422 0.445007 4.84288 0.445007 5.02331V9.14526H2.44448C2.76558 9.14605 3.07326 9.27423 3.30003 9.50168C3.52681 9.72913 3.65416 10.0373 3.65416 10.3585V12.35H14.1814C14.3617 12.3501 14.5403 12.3147 14.707 12.2457C14.8736 12.1768 15.0251 12.0757 15.1526 11.9481C15.2802 11.8206 15.3814 11.6691 15.4504 11.5025C15.5195 11.3358 15.555 11.1571 15.555 10.9767V5.02331C15.555 4.84288 15.5195 4.66422 15.4504 4.49753C15.3814 4.33085 15.2802 4.17941 15.1526 4.05188C15.0251 3.92434 14.8736 3.8232 14.707 3.75424C14.5403 3.68529 14.3617 3.64986 14.1814 3.64999ZM12.6308 9.14526C12.7411 9.14546 12.8488 9.17836 12.9404 9.23981C13.032 9.30125 13.1034 9.38849 13.1455 9.49049C13.1875 9.59249 13.1984 9.70468 13.1768 9.81288C13.1552 9.92108 13.1019 10.0204 13.0239 10.0984C12.9458 10.1764 12.8464 10.2294 12.7382 10.2509C12.6301 10.2723 12.5179 10.2612 12.4161 10.2189C12.3142 10.1767 12.2271 10.1051 12.1659 10.0134C12.1046 9.9216 12.0719 9.81373 12.0719 9.70339C12.0718 9.62997 12.0862 9.55725 12.1142 9.48941C12.1423 9.42157 12.1834 9.35995 12.2354 9.30808C12.2873 9.25621 12.349 9.21513 12.4168 9.18719C12.4847 9.15924 12.5574 9.14499 12.6308 9.14526ZM13.5305 11.3458C13.5307 11.3573 13.5285 11.3687 13.5242 11.3794C13.5199 11.39 13.5135 11.3998 13.5054 11.4079C13.4973 11.4161 13.4877 11.4226 13.4771 11.4271C13.4665 11.4315 13.4551 11.4338 13.4436 11.4338H11.821C11.8094 11.4339 11.7979 11.4317 11.7872 11.4274C11.7764 11.423 11.7667 11.4165 11.7585 11.4083C11.7503 11.4001 11.7438 11.3903 11.7394 11.3796C11.7351 11.3689 11.7329 11.3574 11.733 11.3458V11.0627C11.733 10.9871 11.7479 10.9122 11.7769 10.8424C11.8058 10.7725 11.8483 10.7091 11.9017 10.6557C11.9552 10.6022 12.0187 10.5599 12.0886 10.5311C12.1584 10.5022 12.2333 10.4874 12.3089 10.4876H12.9517C13.0272 10.4874 13.102 10.5022 13.1718 10.5311C13.2416 10.5599 13.3051 10.6023 13.3585 10.6557C13.4119 10.7092 13.4542 10.7726 13.4831 10.8424C13.5119 10.9123 13.5267 10.9871 13.5265 11.0627L13.5305 11.3458ZM13.9704 9.48734C14.0534 9.48714 14.1345 9.51158 14.2035 9.55755C14.2726 9.60352 14.3264 9.66897 14.3582 9.74559C14.3901 9.82221 14.3984 9.90656 14.3823 9.98795C14.3662 10.0693 14.3263 10.1441 14.2676 10.2028C14.209 10.2614 14.1343 10.3014 14.0529 10.3175C13.9716 10.3337 13.8872 10.3253 13.8107 10.2934C13.7341 10.2616 13.6687 10.2077 13.6227 10.1386C13.5768 10.0696 13.5523 9.98841 13.5525 9.90543C13.5528 9.79541 13.5964 9.68992 13.6739 9.61184C13.7513 9.53377 13.8565 9.48939 13.9664 9.48834L13.9704 9.48734ZM14.6432 11.1387C14.6432 11.156 14.6364 11.1725 14.6242 11.1847C14.612 11.1969 14.5955 11.2037 14.5783 11.2037H13.8145C13.7914 11.2037 13.7693 11.1946 13.753 11.1782C13.7367 11.1619 13.7275 11.1398 13.7275 11.1167V11.0377C13.7277 10.8826 13.6732 10.7324 13.5735 10.6136C13.5665 10.606 13.5614 10.5968 13.5589 10.5867C13.5565 10.5766 13.5566 10.5661 13.5593 10.5561C13.562 10.5461 13.5672 10.5369 13.5744 10.5295C13.5816 10.522 13.5906 10.5166 13.6005 10.5136C13.6422 10.5003 13.6857 10.4936 13.7295 10.4936H14.2114C14.268 10.4934 14.3242 10.5045 14.3766 10.5261C14.429 10.5477 14.4766 10.5794 14.5167 10.6195C14.5568 10.6595 14.5886 10.7071 14.6104 10.7595C14.6321 10.8118 14.6432 10.868 14.6432 10.9247V11.1387Z"></path>
</symbol>

<symbol id="label-security-add" viewBox="0 0 16 16">
  <path d="M4.58246 9.57968H4.12431V11.8635H4.58246V9.57968Z"></path><path d="M5.72832 9.57968H5.27018V11.8635H5.72832V9.57968Z"></path><path d="M7.79048 9.57968H7.33233V11.8635H7.79048V9.57968Z"></path><path d="M5.0416 9.57968H4.81203V11.8635H5.0416V9.57968Z"></path><path d="M6.18647 9.57968H5.95689V11.8635H6.18647V9.57968Z"></path><path d="M6.64461 9.57968H6.41504V11.8635H6.64461V9.57968Z"></path><path d="M7.10376 9.57968H6.87419V11.8635H7.10376V9.57968Z"></path><path d="M8.24862 9.57968H8.01905V11.8635H8.24862V9.57968Z"></path><path d="M8.70677 9.57968H8.47719V11.8635H8.70677V9.57968Z"></path><path d="M9.39348 9.57968H8.93534V11.8635H9.39348V9.57968Z"></path><path d="M11.4556 9.57968H10.9975V11.8635H11.4556V9.57968Z"></path><path d="M13.0596 9.57968H12.6015V11.8635H13.0596V9.57968Z"></path><path d="M13.7474 9.57968H13.2892V11.8635H13.7474V9.57968Z"></path><path d="M9.85263 9.57968H9.62306V11.8635H9.85263V9.57968Z"></path><path d="M10.3108 9.57968H10.0812V11.8635H10.3108V9.57968Z"></path><path d="M10.7689 9.57968H10.5393V11.8635H10.7689V9.57968Z"></path><path d="M11.9148 9.57968H11.6852V11.8635H11.9148V9.57968Z"></path><path d="M12.3729 9.57968H12.1434V11.8635H12.3729V9.57968Z"></path><path d="M13.7945 3.22501C13.3583 3.22501 12.9319 3.35397 12.5692 3.59558C12.2065 3.83719 11.9238 4.1806 11.7569 4.58239C11.5899 4.98418 11.5463 5.42629 11.6314 5.85283C11.7165 6.27936 11.9265 6.67116 12.235 6.97868C12.5434 7.28619 12.9364 7.49561 13.3642 7.58045C13.792 7.6653 14.2355 7.62175 14.6385 7.45533C15.0415 7.2889 15.386 7.00707 15.6283 6.64547C15.8706 6.28387 16 5.85875 16 5.42386C16 4.84068 15.7676 4.2814 15.354 3.86903C14.9404 3.45667 14.3794 3.22501 13.7945 3.22501ZM15.1218 5.75068H14.1253V6.75016H13.4637V5.75068H12.4662V5.09203H13.4637V4.09255H14.1253V5.09203H15.1218V5.75068Z"></path><path d="M11.1198 5.42086C11.1228 5.2834 11.1366 5.1464 11.1609 5.01107H0.585464C0.665265 4.87266 0.780166 4.7576 0.918643 4.67743C1.05712 4.59726 1.21431 4.5548 1.37444 4.55431H11.2772C11.3321 4.39584 11.4019 4.2429 11.4857 4.09755H1.37444C1.00991 4.09755 0.66032 4.24192 0.402563 4.4989C0.144806 4.75587 0 5.10441 0 5.46783V10.0374H0.00501253C0.00438027 10.1565 0.0508438 10.2711 0.134336 10.3563L2.42506 12.6411C2.51141 12.7266 2.62814 12.7748 2.74987 12.775H13.7474C13.9279 12.775 14.1068 12.7395 14.2736 12.6706C14.4404 12.6017 14.592 12.5007 14.7196 12.3733C14.8472 12.246 14.9485 12.0948 15.0175 11.9284C15.0865 11.762 15.1219 11.5838 15.1218 11.4037V7.72165C14.7197 7.95866 14.2616 8.08491 13.7945 8.08746C13.0854 8.08667 12.4055 7.80547 11.9041 7.30555C11.4026 6.80564 11.1206 6.12784 11.1198 5.42086ZM2.74987 12.3172L0.458145 10.0374H1.98596C2.18857 10.0374 2.38287 10.1177 2.52613 10.2605C2.66939 10.4033 2.74987 10.5971 2.74987 10.799V12.3172ZM14.6637 11.4027C14.6634 11.645 14.5668 11.8773 14.3951 12.0487C14.2233 12.2202 13.9904 12.3167 13.7474 12.3172H3.20802V10.798C3.20775 10.475 3.07892 10.1653 2.8498 9.93682C2.62067 9.70839 2.30999 9.57994 1.98596 9.57968H0.458145V9.12292H14.6637V11.4027Z"></path>
</symbol>

<symbol id="label-security-circle" viewBox="0 0 16 16">
  <path d="M4.58246 9.57968H4.12431V11.8635H4.58246V9.57968Z"></path><path d="M5.72832 9.57968H5.27018V11.8635H5.72832V9.57968Z"></path><path d="M7.79048 9.57968H7.33233V11.8635H7.79048V9.57968Z"></path><path d="M5.0416 9.57968H4.81203V11.8635H5.0416V9.57968Z"></path><path d="M6.18647 9.57968H5.95689V11.8635H6.18647V9.57968Z"></path><path d="M6.64461 9.57968H6.41504V11.8635H6.64461V9.57968Z"></path><path d="M7.10376 9.57968H6.87419V11.8635H7.10376V9.57968Z"></path><path d="M8.24862 9.57968H8.01905V11.8635H8.24862V9.57968Z"></path><path d="M8.70677 9.57968H8.47719V11.8635H8.70677V9.57968Z"></path><path d="M9.39348 9.57968H8.93534V11.8635H9.39348V9.57968Z"></path><path d="M11.4556 9.57968H10.9975V11.8635H11.4556V9.57968Z"></path><path d="M13.0596 9.57968H12.6015V11.8635H13.0596V9.57968Z"></path><path d="M13.7474 9.57968H13.2892V11.8635H13.7474V9.57968Z"></path><path d="M9.85263 9.57968H9.62306V11.8635H9.85263V9.57968Z"></path><path d="M10.3108 9.57968H10.0812V11.8635H10.3108V9.57968Z"></path><path d="M10.7689 9.57968H10.5393V11.8635H10.7689V9.57968Z"></path><path d="M11.9148 9.57968H11.6852V11.8635H11.9148V9.57968Z"></path><path d="M12.3729 9.57968H12.1434V11.8635H12.3729V9.57968Z"></path><path d="M13.7945 3.22501C13.3583 3.22501 12.9319 3.35397 12.5692 3.59558C12.2065 3.83719 11.9238 4.1806 11.7569 4.58239C11.5899 4.98418 11.5463 5.42629 11.6314 5.85283C11.7165 6.27936 11.9265 6.67116 12.235 6.97868C12.5434 7.28619 12.9364 7.49561 13.3642 7.58045C13.792 7.6653 14.2355 7.62175 14.6385 7.45533C15.0415 7.2889 15.386 7.00707 15.6283 6.64547C15.8706 6.28387 16 5.85875 16 5.42386C16 4.84068 15.7676 4.2814 15.354 3.86903C14.9404 3.45667 14.3794 3.22501 13.7945 3.22501Z"></path><path d="M11.1198 5.42086C11.1228 5.2834 11.1366 5.1464 11.1609 5.01107H0.585464C0.665265 4.87266 0.780166 4.7576 0.918643 4.67743C1.05712 4.59726 1.21431 4.5548 1.37444 4.55431H11.2772C11.3321 4.39584 11.4019 4.2429 11.4857 4.09755H1.37444C1.00991 4.09755 0.66032 4.24192 0.402563 4.4989C0.144806 4.75587 0 5.10441 0 5.46783V10.0374H0.00501253C0.00438027 10.1565 0.0508438 10.2711 0.134336 10.3563L2.42506 12.6411C2.51141 12.7266 2.62814 12.7748 2.74987 12.775H13.7474C13.9279 12.775 14.1068 12.7395 14.2736 12.6706C14.4404 12.6017 14.592 12.5007 14.7196 12.3733C14.8472 12.246 14.9485 12.0948 15.0175 11.9284C15.0865 11.762 15.1219 11.5838 15.1218 11.4037V7.72165C14.7197 7.95866 14.2616 8.08491 13.7945 8.08746C13.0854 8.08667 12.4055 7.80547 11.9041 7.30555C11.4026 6.80564 11.1206 6.12784 11.1198 5.42086ZM2.74987 12.3172L0.458145 10.0374H1.98596C2.18857 10.0374 2.38287 10.1177 2.52613 10.2605C2.66939 10.4033 2.74987 10.5971 2.74987 10.799V12.3172ZM14.6637 11.4027C14.6634 11.645 14.5668 11.8773 14.3951 12.0487C14.2233 12.2202 13.9904 12.3167 13.7474 12.3172H3.20802V10.798C3.20775 10.475 3.07892 10.1653 2.8498 9.93682C2.62067 9.70839 2.30999 9.57994 1.98596 9.57968H0.458145V9.12292H14.6637V11.4027Z"></path>
</symbol>

<symbol id="label-security" viewBox="0 0 16 16">
  <path d="M5.0238 9.14784H4.56592V11.4365H5.0238V9.14784Z"></path><path d="M6.16849 9.14784H5.71061V11.4365H6.16849V9.14784Z"></path><path d="M8.22895 9.14784H7.77107V11.4365H8.22895V9.14784Z"></path><path d="M5.48167 9.14784H5.25273V11.4365H5.48167V9.14784Z"></path><path d="M6.62637 9.14784H6.39743V11.4365H6.62637V9.14784Z"></path><path d="M7.08425 9.14784H6.85531V11.4365H7.08425V9.14784Z"></path><path d="M7.54213 9.14784H7.31319V11.4365H7.54213V9.14784Z"></path><path d="M8.68683 9.14784H8.45789V11.4365H8.68683V9.14784Z"></path><path d="M9.1447 9.14784H8.91576V11.4365H9.1447V9.14784Z"></path><path d="M9.83152 9.14784H9.37364V11.4365H9.83152V9.14784Z"></path><path d="M11.892 9.14784H11.4341V11.4365H11.892V9.14784Z"></path><path d="M13.4946 9.14784H13.0367V11.4365H13.4946V9.14784Z"></path><path d="M14.1814 9.14784H13.7235V11.4365H14.1814V9.14784Z"></path><path d="M10.2894 9.14784H10.0605V11.4365H10.2894V9.14784Z"></path><path d="M10.7473 9.14784H10.5183V11.4365H10.7473V9.14784Z"></path><path d="M11.2052 9.14784H10.9762V11.4365H11.2052V9.14784Z"></path><path d="M12.3499 9.14784H12.1209V11.4365H12.3499V9.14784Z"></path><path d="M12.8077 9.14784H12.5788V11.4365H12.8077V9.14784Z"></path><path d="M13.7595 6.12358L13.1996 6.68326L13.1876 6.69725L13.1766 6.68426C13.1037 6.6113 13.0317 6.53734 12.9577 6.46538C12.9424 6.45075 12.9244 6.43927 12.9046 6.4316C12.8849 6.42393 12.8639 6.42022 12.8427 6.42069C12.8215 6.42115 12.8007 6.42578 12.7813 6.4343C12.7619 6.44283 12.7444 6.45509 12.7298 6.47038C12.7151 6.48567 12.7036 6.50369 12.696 6.52342C12.6883 6.54315 12.6846 6.56419 12.685 6.58535C12.6855 6.60651 12.6901 6.62737 12.6987 6.64674C12.7072 6.66611 12.7195 6.68361 12.7348 6.69825L13.0727 7.03505C13.0877 7.05035 13.1055 7.06249 13.1253 7.07079C13.145 7.07908 13.1662 7.08335 13.1876 7.08335C13.209 7.08335 13.2302 7.07908 13.25 7.07079C13.2697 7.06249 13.2876 7.05035 13.3026 7.03505C13.3586 6.97809 13.4156 6.92212 13.4726 6.86515C13.6445 6.69392 13.8161 6.52235 13.9874 6.35045C14.0099 6.32951 14.0255 6.30229 14.0323 6.27235C14.0391 6.2424 14.0367 6.21111 14.0254 6.18254C14.0165 6.15675 14.0011 6.13368 13.9807 6.11552C13.9603 6.09737 13.9356 6.08473 13.9089 6.07882C13.8823 6.07291 13.8545 6.07392 13.8284 6.08175C13.8022 6.08959 13.7785 6.10399 13.7595 6.12358Z"></path><path d="M14.1814 3.655H1.81864C1.45433 3.655 1.10494 3.79968 0.847336 4.0572C0.589729 4.31473 0.445007 4.66401 0.445007 5.02821V9.60258C0.445283 9.72169 0.491891 9.83602 0.574973 9.92139L2.86437 12.2111C2.95048 12.2966 3.06688 12.3447 3.18828 12.345H14.1814C14.3618 12.345 14.5404 12.3095 14.707 12.2405C14.8737 12.1715 15.0251 12.0703 15.1527 11.9428C15.2802 11.8153 15.3814 11.6639 15.4504 11.4973C15.5195 11.3307 15.555 11.1521 15.555 10.9718V5.02821C15.555 4.66401 15.4103 4.31473 15.1527 4.0572C14.8951 3.79968 14.5457 3.655 14.1814 3.655ZM1.81864 4.11274H14.1814C14.3413 4.11346 14.4982 4.15611 14.6364 4.23643C14.7747 4.31676 14.8894 4.43194 14.9692 4.57047H1.02985C1.10971 4.43179 1.2246 4.31652 1.36304 4.23619C1.50147 4.15585 1.65858 4.11328 1.81864 4.11274ZM14.6412 5.9207C14.6412 6.30111 14.5561 6.6767 14.3923 7.02006C14.1588 7.51067 13.7774 7.91577 13.3016 8.1784C13.291 8.18504 13.2787 8.18857 13.2661 8.18857C13.2536 8.18857 13.2413 8.18504 13.2306 8.1784C13.0355 8.06701 12.8542 7.93281 12.6908 7.77863C12.3948 7.49899 12.172 7.151 12.0419 6.76521C11.9894 6.6171 11.9503 6.46457 11.925 6.30947C11.9028 6.16633 11.8931 6.02154 11.896 5.87672C11.8981 5.77068 11.9068 5.66487 11.922 5.5599C11.922 5.53192 11.935 5.52192 11.963 5.51693C12.0929 5.49294 12.2219 5.47295 12.3509 5.44497C12.56 5.40241 12.7633 5.33531 12.9567 5.24508C13.0406 5.20217 13.1217 5.15411 13.1996 5.10117C13.2205 5.08395 13.2465 5.07411 13.2736 5.07318C13.2924 5.07342 13.3108 5.07896 13.3266 5.08917C13.5162 5.21831 13.726 5.31491 13.9474 5.37501C14.1271 5.42845 14.3097 5.4715 14.4943 5.50394C14.5233 5.50993 14.5533 5.51293 14.5823 5.51793C14.587 5.51806 14.5916 5.51912 14.596 5.52104C14.6003 5.52297 14.6042 5.52573 14.6074 5.52917C14.6107 5.5326 14.6132 5.53664 14.6149 5.54106C14.6166 5.54548 14.6174 5.55018 14.6173 5.55491C14.6329 5.6625 14.6416 5.771 14.6432 5.87972L14.6412 5.9207ZM3.19228 11.8943L0.902886 9.60258H2.42948C2.63179 9.60258 2.82581 9.68292 2.96886 9.82593C3.11191 9.96893 3.19228 10.1629 3.19228 10.3651V11.8943ZM15.0971 10.9788C15.0969 11.2215 15.0003 11.4542 14.8286 11.6258C14.6569 11.7975 14.4242 11.894 14.1814 11.8943H3.65016V10.3681C3.64989 10.0446 3.5212 9.73434 3.29234 9.50555C3.06347 9.27675 2.75314 9.1481 2.42948 9.14784H0.902886V8.6901H15.0991L15.0971 10.9788Z"></path>
</symbol>

<symbol id="label" viewBox="0 0 16 16">
  <path d="M4.23549 14.0819H3.36637V12.3446H1.62913V11.4755H4.23549V14.0819Z"></path><path d="M3.49429 11.6022L1.46674 13.6297L2.0813 14.2443L4.10885 12.2167L3.49429 11.6022Z"></path><path d="M14.3719 0.76001H1.62913C1.39863 0.76001 1.17756 0.851578 1.01457 1.01457C0.851578 1.17756 0.760011 1.39862 0.760011 1.62913V8.29005C0.759748 8.59463 0.819479 8.89627 0.935793 9.17777C1.05211 9.45926 1.22273 9.71509 1.43791 9.93064C1.65309 10.1462 1.90862 10.3173 2.18992 10.4341C2.47121 10.5509 2.77275 10.6111 3.07733 10.6114H5.10461V12.9287C5.10673 13.5419 5.3516 14.1293 5.78568 14.5625C6.21976 14.9956 6.80771 15.2392 7.42093 15.24H14.3719C14.6021 15.24 14.8229 15.1485 14.9857 14.9857C15.1485 14.8229 15.24 14.6021 15.24 14.3719V1.62913C15.24 1.3988 15.1486 1.17789 14.9858 1.01492C14.823 0.85196 14.6022 0.760275 14.3719 0.76001ZM13.7718 13.7678H7.42093C7.19705 13.7675 6.98239 13.6786 6.82399 13.5203C6.66558 13.3621 6.57634 13.1476 6.57581 12.9237V9.13517H3.07533C2.85154 9.13464 2.63709 9.04536 2.47904 8.88693C2.32098 8.7285 2.23221 8.51384 2.23221 8.29005V2.23221H13.7678L13.7718 13.7678Z"></path>
</symbol>

<symbol id="mobile-pass" viewBox="0 0 16 16">
  <path d="M12.65 14.3C12.65 14.7509 12.4709 15.1833 12.1521 15.5021C11.8333 15.8209 11.4009 16 10.95 16H5.05001C4.59914 16 4.16674 15.8209 3.84792 15.5021C3.52911 15.1833 3.35001 14.7509 3.35001 14.3V1.7C3.35 1.25 3.52842 0.818351 3.84616 0.499683C4.16389 0.181014 4.595 0.00132354 5.04501 0H10.945C11.3959 0 11.8283 0.179107 12.1471 0.497918C12.4659 0.81673 12.645 1.24913 12.645 1.7V14.3H12.65ZM11.879 3.349H4.09601V12.524H11.882L11.879 3.349ZM9.55201 1.7C9.55174 1.65005 9.53171 1.60223 9.4963 1.567C9.46088 1.53177 9.41296 1.512 9.36301 1.512H6.62901C6.60423 1.51187 6.57968 1.51663 6.55675 1.52602C6.53383 1.53541 6.51299 1.54924 6.49542 1.56671C6.47786 1.58418 6.46392 1.60495 6.45441 1.62782C6.4449 1.6507 6.44001 1.67523 6.44001 1.7C6.44001 1.75013 6.45992 1.7982 6.49536 1.83364C6.53081 1.86909 6.57888 1.889 6.62901 1.889H9.36301C9.41313 1.889 9.4612 1.86909 9.49665 1.83364C9.53209 1.7982 9.55201 1.75013 9.55201 1.7ZM5.91401 13.883C5.83489 13.883 5.75756 13.9065 5.69178 13.9504C5.626 13.9944 5.57473 14.0568 5.54445 14.1299C5.51418 14.203 5.50626 14.2834 5.52169 14.361C5.53713 14.4386 5.57522 14.5099 5.63116 14.5658C5.6871 14.6218 5.75838 14.6599 5.83597 14.6753C5.91356 14.6907 5.99399 14.6828 6.06708 14.6526C6.14017 14.6223 6.20264 14.571 6.24659 14.5052C6.29055 14.4394 6.31401 14.3621 6.31401 14.283C6.31401 14.2305 6.30366 14.1785 6.28356 14.1299C6.26346 14.0814 6.23399 14.0373 6.19685 14.0002C6.15971 13.963 6.11561 13.9335 6.06708 13.9134C6.01855 13.8933 5.96654 13.883 5.91401 13.883ZM7.99601 13.883C7.91689 13.883 7.83956 13.9065 7.77378 13.9504C7.708 13.9944 7.65673 14.0568 7.62645 14.1299C7.59618 14.203 7.58826 14.2834 7.60369 14.361C7.61913 14.4386 7.65722 14.5099 7.71316 14.5658C7.7691 14.6218 7.84038 14.6599 7.91797 14.6753C7.99556 14.6907 8.07599 14.6828 8.14908 14.6526C8.22217 14.6223 8.28464 14.571 8.32859 14.5052C8.37255 14.4394 8.39601 14.3621 8.39601 14.283C8.39601 14.1769 8.35386 14.0752 8.27885 14.0002C8.20383 13.9251 8.10209 13.883 7.99601 13.883ZM10.077 13.883C9.99789 13.883 9.92056 13.9065 9.85478 13.9504C9.789 13.9944 9.73773 14.0568 9.70745 14.1299C9.67718 14.203 9.66926 14.2834 9.68469 14.361C9.70013 14.4386 9.73822 14.5099 9.79416 14.5658C9.8501 14.6218 9.92138 14.6599 9.99897 14.6753C10.0766 14.6907 10.157 14.6828 10.2301 14.6526C10.3032 14.6223 10.3656 14.571 10.4096 14.5052C10.4535 14.4394 10.477 14.3621 10.477 14.283C10.477 14.1769 10.4349 14.0752 10.3598 14.0002C10.2848 13.9251 10.1831 13.883 10.077 13.883Z"></path><path d="M11.065 10.387H10.383V11.069H11.065V10.387Z"></path><path d="M9.70101 9.023H9.01901V9.705H9.70101V9.023Z"></path><path d="M11.065 9.023H10.383V9.705H11.065V9.023Z"></path><path d="M10.383 8.341H9.70101V9.023H10.383V8.341Z"></path><path d="M9.70101 10.387H9.01901V11.069H9.70101V10.387Z"></path><path d="M10.383 9.705H9.70101V10.387H10.383V9.705Z"></path><path d="M9.01901 9.705H8.33701V10.387H9.01901V9.705Z"></path><path d="M9.01901 8.341H8.33701V9.023H9.01901V8.341Z"></path><path d="M4.92701 8.341V11.069H7.65501V8.341H4.92701ZM6.97301 10.387H5.60901V9.023H6.97301V10.387Z"></path><path d="M4.92701 4.931V7.659H7.65501V4.931H4.92701ZM6.97301 6.977H5.60901V5.613H6.97301V6.977Z"></path><path d="M8.33701 4.931V7.659H11.065V4.931H8.33701ZM10.383 6.977H9.01901V5.613H10.383V6.977Z"></path>
</symbol>

<symbol id="report-preview" viewBox="0 0 16 16">
  <path d="M11.9654 3.18698L7.98592 0.218997C7.87409 0.110706 7.72455 0.0501073 7.56887 0.0499984H1.3681C1.21104 0.0490641 1.05987 0.109739 0.947046 0.218997C0.892754 0.272414 0.849595 0.336067 0.820068 0.406271C0.790541 0.476474 0.775231 0.551836 0.775024 0.627995V13.6559C0.775884 13.8097 0.837757 13.9568 0.947046 14.0649C1.05888 14.1732 1.20842 14.2338 1.3641 14.2339H5.47261L4.42748 12.3339H2.66426V1.94699H7.43485V3.72298C7.43508 3.75713 7.44873 3.78981 7.47286 3.81398C7.49798 3.83777 7.53127 3.85102 7.56587 3.85098H10.2482V4.78697H12.1374V3.60098C12.1382 3.52393 12.1234 3.44752 12.0938 3.37636C12.0643 3.3052 12.0206 3.24078 11.9654 3.18698Z"></path><path d="M14.9858 14.3109L12.4355 11.7619C12.8333 11.1092 13.043 10.3593 13.0416 9.59495C13.0161 8.46252 12.5548 7.38353 11.7538 6.58258C10.9527 5.78163 9.87359 5.32043 8.74102 5.29497C8.19281 5.29471 7.64992 5.40241 7.14334 5.61193C6.63677 5.82145 6.17642 6.12868 5.7886 6.51609C5.40077 6.90349 5.09306 7.36348 4.88303 7.86979C4.673 8.3761 4.56476 8.91881 4.5645 9.46695C4.58996 10.5994 5.05122 11.6784 5.85228 12.4793C6.65333 13.2803 7.73246 13.7415 8.86503 13.7669C9.60313 13.7674 10.328 13.5713 10.9653 13.1989L13.5296 15.7619C13.5892 15.8215 13.66 15.8688 13.7379 15.9011C13.8158 15.9334 13.8993 15.95 13.9837 15.95C14.068 15.95 14.1515 15.9334 14.2294 15.9011C14.3073 15.8688 14.3781 15.8215 14.4377 15.7619L15.0738 15.1269C15.3278 14.8779 15.2368 14.5619 14.9858 14.3109ZM8.73802 12.0719C8.23543 12.0717 7.74419 11.9225 7.32641 11.6432C6.90862 11.3639 6.58305 10.967 6.39086 10.5026C6.19867 10.0383 6.14848 9.52745 6.24665 9.03461C6.34482 8.54178 6.58694 8.08911 6.94239 7.73385C7.29784 7.37858 7.75066 7.13668 8.2436 7.03871C8.73654 6.94075 9.24746 6.99113 9.71177 7.18348C10.1761 7.37583 10.5729 7.70151 10.8521 8.11935C11.1313 8.5372 11.2803 9.02843 11.2803 9.53095C11.2803 9.86472 11.2146 10.1952 11.0868 10.5036C10.959 10.8119 10.7717 11.0921 10.5356 11.328C10.2996 11.564 10.0193 11.7512 9.71084 11.8788C9.4024 12.0064 9.07183 12.0721 8.73802 12.0719Z"></path>
</symbol>

<symbol id="tick-box-full" viewBox="0 0 16 16">
  <path fill-rule="evenodd" clip-rule="evenodd" d="M13.0122 0.00116262H2.98779C2.60028 -0.00980365 2.2145 0.0569013 1.85317 0.197349C1.49183 0.337796 1.16225 0.549146 0.883822 0.818952C0.605398 1.08876 0.383766 1.41156 0.231978 1.76836C0.0801897 2.12515 0.00131537 2.50872 0 2.89647V13.0185C0.000130922 13.4106 0.0775528 13.7988 0.227836 14.1609C0.378119 14.5231 0.598314 14.852 0.875821 15.1289C1.15333 15.4058 1.4827 15.6253 1.8451 15.7748C2.20749 15.9243 2.59579 16.0008 2.98779 16H13.0172C13.4089 16.0001 13.7967 15.9231 14.1586 15.7733C14.5205 15.6234 14.8493 15.4038 15.1263 15.1268C15.4033 14.8498 15.623 14.521 15.7729 14.1591C15.9228 13.7972 16 13.4093 16 13.0175V2.89647C15.9987 2.50872 15.9198 2.12515 15.768 1.76836C15.6162 1.41156 15.3946 1.08876 15.1162 0.818952C14.8378 0.549146 14.5082 0.337796 14.1468 0.197349C13.7855 0.0569013 13.3997 -0.00980365 13.0122 0.00116262ZM14.0953 13.1057C14.0953 13.2363 14.0696 13.3657 14.0196 13.4864C13.9695 13.6071 13.8962 13.7167 13.8038 13.809C13.7114 13.9014 13.6018 13.9746 13.481 14.0245C13.3603 14.0744 13.231 14.1 13.1004 14.0999H2.89461C2.63091 14.0999 2.378 13.9951 2.19144 13.8087C2.00489 13.6223 1.89995 13.3695 1.89968 13.1057V2.89647C1.89995 2.63261 2.00485 2.37964 2.19138 2.19307C2.37791 2.0065 2.63082 1.90156 2.89461 1.9013H13.1004C13.3643 1.9013 13.6173 2.00615 13.8039 2.19278C13.9905 2.37941 14.0953 2.63253 14.0953 2.89647V13.1057Z"></path><path fill-rule="evenodd" clip-rule="evenodd" d="M7.10477 8.58385L5.16601 6.64463L3.69416 8.11683L7.14484 11.5683L7.14584 11.5673L7.14785 11.5683L12.7687 5.94611L11.2558 4.43281L7.10477 8.58385Z"></path>
</symbol>

<symbol id="tick-box-open" viewBox="0 0 16 16">
  <path fill-rule="evenodd" clip-rule="evenodd" d="M13.0122 0.00116262H2.98779C2.60028 -0.00980365 2.2145 0.0569013 1.85317 0.197349C1.49183 0.337796 1.16225 0.549146 0.883822 0.818952C0.605398 1.08876 0.383766 1.41156 0.231978 1.76836C0.0801897 2.12515 0.00131537 2.50872 0 2.89647V13.0185C0.000130922 13.4106 0.0775528 13.7988 0.227836 14.1609C0.378119 14.5231 0.598314 14.852 0.875821 15.1289C1.15333 15.4058 1.4827 15.6253 1.8451 15.7748C2.20749 15.9243 2.59579 16.0008 2.98779 16H13.0172C13.4089 16.0001 13.7967 15.9231 14.1586 15.7733C14.5205 15.6234 14.8493 15.4038 15.1263 15.1268C15.4033 14.8498 15.623 14.521 15.7729 14.1591C15.9228 13.7972 16 13.4093 16 13.0175V2.89647C15.9987 2.50872 15.9198 2.12515 15.768 1.76836C15.6162 1.41156 15.3946 1.08876 15.1162 0.818952C14.8378 0.549146 14.5082 0.337796 14.1468 0.197349C13.7855 0.0569013 13.3997 -0.00980365 13.0122 0.00116262ZM14.0953 13.1057C14.0953 13.2363 14.0696 13.3657 14.0196 13.4864C13.9695 13.6071 13.8962 13.7167 13.8038 13.809C13.7114 13.9014 13.6018 13.9746 13.481 14.0245C13.3603 14.0744 13.231 14.1 13.1004 14.0999H2.89461C2.63091 14.0999 2.378 13.9951 2.19144 13.8087C2.00489 13.6223 1.89995 13.3695 1.89968 13.1057V2.89647C1.89995 2.63261 2.00485 2.37964 2.19138 2.19307C2.37791 2.0065 2.63082 1.90156 2.89461 1.9013H13.1004C13.3643 1.9013 13.6173 2.00615 13.8039 2.19278C13.9905 2.37941 14.0953 2.63253 14.0953 2.89647V13.1057Z"></path>
</symbol>

<symbol id="x" viewBox="0 0 16 16">
  <path fill-rule="evenodd" clip-rule="evenodd" d="M14.3 4.37559L11.6244 1.70001L8.00001 5.32544L4.37559 1.70001L1.70001 4.37559L5.32544 8.00001L1.70001 11.6254L4.37559 14.3L8.00001 10.6756L11.6244 14.3L14.3 11.6254L10.6746 8.00001L14.3 4.37559Z"></path>
</symbol>
    </svg>