<svg xmlns="http://www.w3.org/2000/svg" xmlns:xlink="http://www.w3.org/1999/xlink">
    
<symbol id="add-household" viewBox="0 0 16 16">
  <title>add-household</title><g id="Layer_1" data-name="Layer 1"><path d="M14.5,7.847,9.026,1.623a1.366,1.366,0,0,0-2.052,0L1.5,7.847a1.31,1.31,0,0,0-.219,1.44,1.328,1.328,0,0,0,1.246.778h.5v3.4a1.375,1.375,0,0,0,1.334,1.407h7.3a1.4,1.4,0,0,0,1.369-1.407v-3.4h.453a1.328,1.328,0,0,0,1.246-.778A1.309,1.309,0,0,0,14.5,7.847ZM8.016,2.512,13.5,8.719c0,.007-.006,0-.022,0h-1.8v4.75c0,.011-.01.06-.022.06h-7.3c-.012,0,.012-.049.012-.06v-4.7H2.527c-.005,0-.02-.018-.012-.033L7.989,2.512"></path><path d="M9.539,8.277h-.9V7.355a.658.658,0,0,0-.654-.674h-.01a.681.681,0,0,0-.682.674v.922H6.461a.65.65,0,0,0-.674.645v.014a.686.686,0,0,0,.674.688H7.29v.809a.69.69,0,0,0,.692.674h-.01a.666.666,0,0,0,.664-.674V9.624h.9a.7.7,0,0,0,.674-.7v.014A.662.662,0,0,0,9.539,8.277Z"></path></g>
</symbol>

<symbol id="android" viewBox="0 0 16 16">
  <title>android</title><g id="Layer_1" data-name="Layer 1"><path d="M10.518,2.341v0a.518.518,0,0,0-1.035,0v0a.518.518,0,0,0,1.035,0Zm-3.861,0v0a.517.517,0,0,0-1.034,0v0a.517.517,0,0,0,1.034,0Zm4.771-.709a3.627,3.627,0,0,1,1.08,2.5H3.492A3.618,3.618,0,0,1,4.551,1.654L3.717.211A.141.141,0,0,1,3.961.07l.8,1.383A4.788,4.788,0,0,1,7.5.282h1a4.8,4.8,0,0,1,2.717,1.151L12.006.07a.14.14,0,1,1,.243.141Zm2.722,3.5a1,1,0,0,1,1,1v4.288a1,1,0,1,1-2,0V6.135A1,1,0,0,1,14.15,5.135Zm-12.3,0a1,1,0,0,1,1,1v4.288a1,1,0,1,1-2,0V6.135A1,1,0,0,1,1.851,5.135Zm7.4,7.3H6.745V15a1,1,0,0,1-2,0V12.431H4.7a1.248,1.248,0,0,1-1.239-1.262v-6.5c0-.039,0-.077.006-.115h9.076c0,.037,0,.076,0,.115v6.5A1.248,1.248,0,0,1,11.3,12.431h-.049V15a1,1,0,0,1-2,0Z"></path></g>
</symbol>

<symbol id="apple" viewBox="0 0 16 16">
  <title>apple</title><g id="Layer_1" data-name="Layer 1"><path d="M8.675,1.392A3.426,3.426,0,0,1,11.188,0a3.419,3.419,0,0,1-.827,2.558,2.7,2.7,0,0,1-2.383,1.12A2.971,2.971,0,0,1,8.675,1.392Zm-.563,3.2c.541,0,1.544-.744,2.851-.744a3.572,3.572,0,0,1,3.134,1.6,3.473,3.473,0,0,0-1.731,3.031,3.562,3.562,0,0,0,2.156,3.256s-1.507,4.242-3.542,4.242c-.935,0-1.662-.63-2.647-.63-1,0-2,.653-2.648.653-1.859,0-4.207-4.023-4.207-7.257,0-3.182,1.988-4.851,3.852-4.851,1.211,0,2.152.7,2.782.7Z"></path></g>
</symbol>

<symbol id="barcode-camera" viewBox="0 0 16 16">
  <title>barcode-camera</title><g id="Layer_1" data-name="Layer 1"><path d="M14.661,2.968H12.2a.95.95,0,0,0-.947-.947h-6.5a.95.95,0,0,0-.947.947H1.333A1.337,1.337,0,0,0,0,4.3v8.1a1.337,1.337,0,0,0,1.333,1.333H14.661A1.337,1.337,0,0,0,15.994,12.4V4.3A1.337,1.337,0,0,0,14.661,2.968ZM7.994,12.2a4.2,4.2,0,1,1,4.2-4.2A4.2,4.2,0,0,1,7.994,12.2Z"></path><path d="M7.994,4.3a3.7,3.7,0,1,0,3.7,3.7A3.7,3.7,0,0,0,7.994,4.3Zm0,6.9a3.2,3.2,0,1,1,3.2-3.2A3.2,3.2,0,0,1,7.994,11.2Z"></path><rect x="5.735" y="6.258" width="0.651" height="3.484"></rect><rect x="6.706" y="6.258" width="0.326" height="3.484"></rect><rect x="7.351" y="6.258" width="0.651" height="3.484"></rect><rect x="9.614" y="6.258" width="0.651" height="3.484"></rect><rect x="8.323" y="6.258" width="0.326" height="3.484"></rect><rect x="8.968" y="6.258" width="0.326" height="3.484"></rect></g>
</symbol>

<symbol id="barcode" viewBox="0 0 16 16">
  <title>barcode</title><g id="Layer_1" data-name="Layer 1"><rect x="1.472" y="4.635" width="1.154" height="6.729"></rect><path d="M15.024,3.225H1a1,1,0,0,0-1,1v7.554a1,1,0,0,0,1,1H15.024a1,1,0,0,0,1-1V4.223A1,1,0,0,0,15.024,3.225Zm.411,8.552a.412.412,0,0,1-.411.411H1a.412.412,0,0,1-.411-.411V4.223A.411.411,0,0,1,1,3.812H15.024a.411.411,0,0,1,.411.411Z"></path><rect x="3.839" y="4.635" width="0.567" height="6.729"></rect><rect x="3.202" y="4.635" width="0.25" height="6.729"></rect><rect x="5.111" y="4.635" width="1.349" height="6.729"></rect><rect x="7.028" y="4.635" width="0.587" height="6.729"></rect><rect x="10.735" y="4.635" width="1.35" height="6.729"></rect><rect x="9.581" y="4.635" width="0.587" height="6.729"></rect><rect x="8.368" y="4.635" width="0.587" height="6.729"></rect><rect x="13.845" y="4.635" width="0.587" height="6.729"></rect><rect x="12.633" y="4.635" width="0.586" height="6.729"></rect></g>
</symbol>

<symbol id="bgcheck-check" viewBox="0 0 16 16">
  <title>bgcheck-check</title><g id="Layer_1" data-name="Layer 1"><path d="M15.247,2.488,8.478.271a1.546,1.546,0,0,0-.956,0L.753,2.488A.533.533,0,0,0,.385,3V7.723a5.4,5.4,0,0,0,2.129,4.3l4.555,3.471a1.536,1.536,0,0,0,1.862,0l4.555-3.471a5.4,5.4,0,0,0,2.129-4.3V3A.533.533,0,0,0,15.247,2.488ZM11.431,6.62l-3.94,4.071a.112.112,0,0,1-.16,0L4.569,7.851a.111.111,0,0,1,0-.155l1.089-1.12a.111.111,0,0,1,.159,0L7.324,8.127a.072.072,0,0,0,.1,0l2.72-2.816a.111.111,0,0,1,.16,0l1.123,1.156A.111.111,0,0,1,11.431,6.62Z"></path></g>
</symbol>

<symbol id="bgcheck-x" viewBox="0 0 16 16">
  <title>bgcheck-x</title><g id="Layer_1" data-name="Layer 1"><path d="M15.216,2.475,8.448.27a1.688,1.688,0,0,0-1,0L.784,2.475a.506.506,0,0,0-.4.5V7.687A5.47,5.47,0,0,0,2.476,12L7.054,15.5a1.637,1.637,0,0,0,1.892,0L13.524,12a5.474,5.474,0,0,0,2.091-4.309V2.976A1.007,1.007,0,0,0,15.216,2.475Zm-4.6,7.094L9.569,10.615,8,9.046,6.431,10.615,5.385,9.569,6.954,8,5.385,6.431,6.431,5.385,8,6.954,9.569,5.385l1.046,1.046L9.046,8Z"></path></g>
</symbol>

<symbol id="birthday" viewBox="0 0 16 16">
  <title>birthday</title><g id="Layer_1" data-name="Layer 1"><path d="M9,2.314a1.13,1.13,0,0,1-2.259,0A2.747,2.747,0,0,1,7.989.068a2.951,2.951,0,0,0,.273.957C8.475,1.4,9,1.617,9,2.314Z"></path><path d="M5,2.314a1.13,1.13,0,0,1-2.259,0A2.747,2.747,0,0,1,3.989.068a2.951,2.951,0,0,0,.273.957C4.475,1.4,5,1.617,5,2.314Z"></path><path d="M13,2.314a1.13,1.13,0,0,1-2.259,0A2.747,2.747,0,0,1,11.989.068a2.951,2.951,0,0,0,.273.957C12.475,1.4,13,1.617,13,2.314Z"></path><path d="M15.285,8.758H12.428V4.1a.781.781,0,0,0-1.109,0V8.758H8.428V4.1a.659.659,0,0,0-.555-.231.658.658,0,0,0-.554.231V8.758H4.428V4.1a.659.659,0,0,0-.555-.231.658.658,0,0,0-.554.231V8.758H.715a.5.5,0,0,0-.5.5v1.865a2.883,2.883,0,0,0,2.063.722c1.385,0,2.351-.691,2.351-1.312h1c0,.621.966,1.312,2.351,1.312s2.35-.691,2.35-1.312h1c0,.621.966,1.312,2.352,1.312a2.831,2.831,0,0,0,2.1-.765V9.258A.5.5,0,0,0,15.285,8.758Z"></path><path d="M10.83,11.751a3.81,3.81,0,0,1-2.85,1.094,3.811,3.811,0,0,1-2.851-1.094,3.812,3.812,0,0,1-2.851,1.094,4.369,4.369,0,0,1-2.063-.49v3.077a.5.5,0,0,0,.5.5h14.57a.5.5,0,0,0,.5-.5v-3.1a4.349,4.349,0,0,1-2.1.513A3.816,3.816,0,0,1,10.83,11.751Z"></path></g>
</symbol>

<symbol id="chart" viewBox="0 0 16 16">
  <title>chart</title><g id="Layer_1" data-name="Layer 1"><path d="M5.7.018a5.451,5.451,0,1,0,5.452,5.45A5.448,5.448,0,0,0,5.7.018Zm0,9.525a4.075,4.075,0,0,1,0-8.149V5.477L9.014,7.839A4.068,4.068,0,0,1,5.7,9.543Z"></path><path d="M12.753,15.474a.506.506,0,0,0,.506.506h1.617a.507.507,0,0,0,.507-.507v-8.7a.506.506,0,0,0-.506-.506H13.26a.507.507,0,0,0-.507.507Z"></path><path d="M8.839,11.573v3.9a.506.506,0,0,0,.507.506h1.617a.506.506,0,0,0,.506-.506v-3.9a.51.51,0,0,0-.508-.509H9.349A.511.511,0,0,0,8.839,11.573Z"></path><path d="M4.927,12.783v2.692a.506.506,0,0,0,.506.506H7.048a.507.507,0,0,0,.508-.507V12.787a.513.513,0,0,0-.511-.511H5.434A.507.507,0,0,0,4.927,12.783Z"></path></g>
</symbol>

<symbol id="check-pending" viewBox="0 0 16 16">
  <title>check-pending</title><g id="Layer_1" data-name="Layer 1"><path d="M11.63,6.194a5.391,5.391,0,0,1,2.086.419L16,4.328,13.325,1.653,5.986,8.992,2.557,5.563l-2.6,2.6,6.1,6.1,0,0,0,0,.568-.568a5.416,5.416,0,0,1,5-7.5Z" fill-rule="evenodd"></path><path d="M11.63,7.276a4.338,4.338,0,1,0,4.337,4.337A4.338,4.338,0,0,0,11.63,7.276Zm1.412,6.7a.593.593,0,0,1-.839-.014L10.789,12.5V9.673a.593.593,0,1,1,1.185,0v2.348l1.082,1.122A.591.591,0,0,1,13.042,13.98Z" fill-rule="evenodd"></path></g>
</symbol>

<symbol id="check" viewBox="0 0 16 16">
  <title>check</title><g id="Layer_1" data-name="Layer 1"><polygon points="16.002 4.328 13.327 1.653 5.988 8.992 2.559 5.563 -0.044 8.165 6.059 14.267 6.061 14.265 6.063 14.267 16.002 4.328" fill-rule="evenodd"></polygon></g>
</symbol>

<symbol id="checkin" viewBox="0 0 16 16">
  <title>checkin</title><g id="Layer_1" data-name="Layer 1"><path d="M7.22,14.422h5.166a.215.215,0,0,0,.215-.215V1.793a.215.215,0,0,0-.215-.215H7.312L6.312,0h6.694a1.173,1.173,0,0,1,1.173,1.173V14.827A1.173,1.173,0,0,1,13.006,16H6.312Z" fill-rule="evenodd"></path><path d="M9.979,5.929a.681.681,0,0,0-.964.963l.428.427H7.081a.681.681,0,1,0,0,1.362H9.442l-.427.427a.681.681,0,1,0,.964.963l1.539-1.539a.751.751,0,0,0,0-1.063Z"></path><path d="M4.75,7.539v0a2.577,2.577,0,1,0-3.267-.009A3.113,3.113,0,0,0,0,10.177v1.635a1.235,1.235,0,0,0,1.275,1.226H4.944a1.235,1.235,0,0,0,1.275-1.226V10.177A3.106,3.106,0,0,0,4.75,7.539ZM3.124,4.1A1.443,1.443,0,1,1,1.681,5.54,1.444,1.444,0,0,1,3.124,4.1ZM3.11,11.953H1.275a.141.141,0,0,1-.14-.141V10.177a1.975,1.975,0,1,1,3.949,0v1.635a.141.141,0,0,1-.14.141H3.11Z"></path></g>
</symbol>

<symbol id="checkout" viewBox="0 0 16 16">
  <title>checkout</title><g id="Layer_1" data-name="Layer 1"><path d="M12.9,7.093a2.047,2.047,0,1,0-2.047-2.047A2.047,2.047,0,0,0,12.9,7.093Z"></path><path d="M12.879,8.072a2.589,2.589,0,0,0-2.589,2.589V12.33a.68.68,0,0,0,.721.671h3.736a.68.68,0,0,0,.721-.671V10.661A2.589,2.589,0,0,0,12.879,8.072Z"></path><path d="M8.769,14.422H3.6a.215.215,0,0,1-.215-.215V1.793A.215.215,0,0,1,3.6,1.578H8.677L9.677,0H2.983A1.173,1.173,0,0,0,1.81,1.173V14.827A1.173,1.173,0,0,0,2.983,16H9.677Z" fill-rule="evenodd"></path><path d="M7.828,5.929a.681.681,0,0,0-.963.963l.427.427H4.931a.681.681,0,1,0,0,1.362H7.292l-.427.427a.681.681,0,1,0,.963.963l1.54-1.539a.751.751,0,0,0,0-1.063Z"></path></g>
</symbol>

<symbol id="delete" viewBox="0 0 16 16">
  <title>delete</title><g id="Layer_1" data-name="Layer 1"><path d="M14.579,2.371H5.585a2.737,2.737,0,0,0-1.9.889L.343,7.236a1.659,1.659,0,0,0,0,2.062l3.344,3.975a2.732,2.732,0,0,0,1.9.89h8.994a1.426,1.426,0,0,0,1.415-1.434V3.805A1.426,1.426,0,0,0,14.579,2.371Zm.2,10.358a.214.214,0,0,1-.2.22H5.586a1.565,1.565,0,0,1-.97-.457L1.271,8.517a.44.44,0,0,1,0-.5L4.616,4.042a1.565,1.565,0,0,1,.97-.457h8.993a.214.214,0,0,1,.2.22Z"></path><polygon points="11.259 5.017 9.679 6.597 8.1 5.017 6.43 6.687 8.01 8.267 6.43 9.847 8.1 11.516 9.679 9.936 11.259 11.516 12.929 9.847 11.349 8.267 12.929 6.687 11.259 5.017"></polygon></g>
</symbol>

<symbol id="eyeball-hide" viewBox="0 0 16 16">
  <title>eyeball-hide</title><g id="Layer_1" data-name="Layer 1"><path d="M6.984,5.344l3.588,3.577a2.737,2.737,0,0,0,.2-1.013A2.76,2.76,0,0,0,6.984,5.344Zm8.922,2.224c-.125-.2-3.105-4.9-7.906-4.9a7.511,7.511,0,0,0-3.034.664l.961.959A6.114,6.114,0,0,1,8,3.911c3.425,0,5.887,2.977,6.621,3.984a11.912,11.912,0,0,1-2.536,2.534l.9.895a12.8,12.8,0,0,0,2.923-3.1A.621.621,0,0,0,15.906,7.568ZM4.7,4.846l.011-.006L3.8,3.93l-.011.006L2.962,3.11a.622.622,0,0,0-.881.878l.674.672A12.716,12.716,0,0,0,.094,7.568a.621.621,0,0,0,0,.654c.125.2,3.105,4.9,7.906,4.9a7.508,7.508,0,0,0,2.719-.524l.553.552a.623.623,0,1,0,.882-.879l-.237-.235.01-.007L11,11.106l-.01.006Zm.625,2.379a2.651,2.651,0,0,0-.1.683A2.765,2.765,0,0,0,8,10.669a2.667,2.667,0,0,0,.685-.1l1.053,1.05A6.121,6.121,0,0,1,8,11.88C4.575,11.88,2.114,8.9,1.379,7.9a12.018,12.018,0,0,1,2.27-2.344Z"></path></g>
</symbol>

<symbol id="eyeball-show" viewBox="0 0 16 16">
  <title>eyeball-show</title><g id="Layer_1" data-name="Layer 1"><circle cx="8" cy="8" r="2.771"></circle><path d="M15.905,7.673c-.124-.2-3.1-4.9-7.9-4.9S.219,7.472.1,7.673a.616.616,0,0,0,0,.654c.124.2,3.105,4.9,7.905,4.9s7.781-4.7,7.9-4.9a.616.616,0,0,0,0-.654ZM8,11.984C4.576,11.984,2.113,9.007,1.38,8,2.113,6.993,4.576,4.016,8,4.016S13.887,6.993,14.62,8C13.887,9.007,11.424,11.984,8,11.984Z"></path></g>
</symbol>

<symbol id="filter" viewBox="0 0 16 16">
  <title>filter</title><g id="Layer_1" data-name="Layer 1"><path d="M15.182,1.284H.814a.468.468,0,0,0-.321.809L6.242,8.279V14.4a.342.342,0,0,0,.511.283l2.67-2.259a.7.7,0,0,0,.365-.638V8.282l5.711-6.2A.46.46,0,0,0,15.182,1.284Z"></path></g>
</symbol>

<symbol id="guest-badge" viewBox="0 0 16 16">
  <title>guest-badge</title><g id="Layer_1" data-name="Layer 1"><path d="M8.723,7.838H8.054v3.043h.669ZM6.592,10.881,7.6,7.838H6.911L6.225,9.977H6.217L5.539,7.838H4.853l.984,3.043ZM13.171,0H3.048A1.332,1.332,0,0,0,1.716,1.332v13.32a1.332,1.332,0,0,0,1.332,1.332H13.171A1.332,1.332,0,0,0,14.5,14.652V1.332A1.332,1.332,0,0,0,13.171,0ZM7.177,1.066h2.4a.4.4,0,0,1,0,.8h-2.4a.4.4,0,1,1,0-.8Zm6.261,13.32a.533.533,0,0,1-.533.533H3.581a.533.533,0,0,1-.533-.533V6.127A.532.532,0,0,1,3.581,5.6h9.324a.533.533,0,0,1,.533.532ZM5.179,12.93h6.127v-.8H5.179Zm6.509-4.79a.9.9,0,0,0-.327-.219,1.251,1.251,0,0,0-.485-.083H9.5v3.043h.669V9.79h.7a1.27,1.27,0,0,0,.485-.083.918.918,0,0,0,.327-.22.859.859,0,0,0,.183-.313,1.175,1.175,0,0,0,0-.723A.867.867,0,0,0,11.688,8.14Zm-.457.908a.356.356,0,0,1-.13.139.539.539,0,0,1-.187.066,1.448,1.448,0,0,1-.222.017h-.52V8.358h.52a1.332,1.332,0,0,1,.222.017.5.5,0,0,1,.187.066.353.353,0,0,1,.13.138.586.586,0,0,1,0,.469Z"></path></g>
</symbol>

<symbol id="household-add-person" viewBox="0 0 16 16">
  <title>household-add-person</title><g id="Layer_1" data-name="Layer 1"><path d="M3.914,13.543V8.83H2.069A.028.028,0,0,1,2.056,8.8L7.548,2.551h.028l4.03,4.562H13.39l-4.8-5.455a1.372,1.372,0,0,0-2.059,0L1.033,7.9a1.313,1.313,0,0,0-.22,1.445,1.333,1.333,0,0,0,1.25.78h.5v3.415A1.38,1.38,0,0,0,3.9,14.954H8.2V13.6H3.9C3.89,13.6,3.914,13.554,3.914,13.543Z"></path><path d="M14.578,12.189,13.1,11.576a1.828,1.828,0,1,0-1.675,0l-1.482.612a1.183,1.183,0,0,0-.732,1.1v1.493a1.187,1.187,0,0,0,1.183,1.187h3.737a1.187,1.187,0,0,0,1.183-1.187V13.286A1.18,1.18,0,0,0,14.578,12.189Z"></path><polygon points="7.541 11.173 7.536 11.172 7.532 11.173 7.541 11.173"></polygon><path d="M9.778,8.989A.663.663,0,0,0,9.1,8.334H8.2V7.409a.66.66,0,0,0-.657-.676H7.532a.684.684,0,0,0-.685.676v.925H6.015a.652.652,0,0,0-.676.648V9a.688.688,0,0,0,.676.689h.832V10.5a.69.69,0,0,0,.689.674A.667.667,0,0,0,8.2,10.5V9.685H9.1A.7.7,0,0,0,9.778,8.989Z"></path><polygon points="9.779 8.982 9.778 8.989 9.779 8.996 9.779 8.982"></polygon></g>
</symbol>

<symbol id="label-add-multiple" viewBox="0 0 16 16">
  <title>label-add-multiple</title><g id="Layer_1" data-name="Layer 1"><path d="M1.993,9.6H.006l2.741,2.742V10.353A.755.755,0,0,0,1.993,9.6Z" fill-rule="evenodd"></path><path d="M13.76,2.785a2.2,2.2,0,1,0,2.2,2.2A2.2,2.2,0,0,0,13.76,2.785Zm1.324,2.527H14.09v.994h-.66V5.312h-.995v-.66h.995V3.658h.66v.994h.994Z" fill-rule="evenodd"></path><path d="M11.092,4.982a2.636,2.636,0,0,1,.365-1.323H1.371A1.371,1.371,0,0,0,0,5.03V9.142H1.993A1.211,1.211,0,0,1,3.2,10.353v1.988H13.713a1.371,1.371,0,0,0,1.371-1.371V7.284a2.63,2.63,0,0,1-1.324.366A2.671,2.671,0,0,1,11.092,4.982Z" fill-rule="evenodd"></path><path d="M2.217,2.785a1.363,1.363,0,0,0-1.006.449H11.819a2.717,2.717,0,0,1,.546-.449Z"></path><path d="M15.509,6.921v4.2a1.363,1.363,0,0,0,.448-1.005V6.378A2.722,2.722,0,0,1,15.509,6.921Z"></path></g>
</symbol>

<symbol id="label-birthday-add" viewBox="0 0 16 16">
  <title>label-birthday-add</title><g id="Layer_1" data-name="Layer 1"><g id="label-birthday-add"><path d="M1.993,9.6H.006l2.741,2.742V10.353A.755.755,0,0,0,1.993,9.6Z" fill-rule="evenodd"></path><path d="M13.76,2.785a2.2,2.2,0,1,0,2.2,2.2A2.2,2.2,0,0,0,13.76,2.785Zm1.324,2.527H14.09v.994h-.66V5.312h-.995v-.66h.995V3.658h.66v.994h.994Z" fill-rule="evenodd"></path><path d="M13.76,7.65a2.63,2.63,0,0,0,1.324-.366V10.97a1.371,1.371,0,0,1-1.371,1.371H3.2V10.353A1.211,1.211,0,0,0,1.993,9.142H0V5.03A1.371,1.371,0,0,1,1.371,3.659H11.457a2.636,2.636,0,0,0-.365,1.323A2.671,2.671,0,0,0,13.76,7.65Zm-.128,3.365.019,0a.1.1,0,0,0,.073-.113l-.021-.108a.9.9,0,1,0-.944-1.437,1.089,1.089,0,0,1,.8,1.045,1.074,1.074,0,0,1-.161.567.093.093,0,0,0,.082.048h.005a.654.654,0,0,0,.416.472l.042-.09a.567.567,0,0,1-.356-.382Zm-1,.5.019,0a.1.1,0,0,0,.073-.113l-.021-.108a.9.9,0,1,0-.3.031l-.016.077,0,.019a.1.1,0,0,0,.095.1h.035a.337.337,0,0,1-.222.354l.042.091a.434.434,0,0,0,.28-.445Z" fill-rule="evenodd"></path></g></g>
</symbol>

<symbol id="label-birthday-circle" viewBox="0 0 16 16">
  <title>label-birthday-circle</title><g id="Layer_1" data-name="Layer 1"><g id="label-birthday-add"><path d="M1.993,9.6H.006l2.741,2.742V10.353A.755.755,0,0,0,1.993,9.6Z" fill-rule="evenodd"></path><path d="M13.76,2.785a2.2,2.2,0,1,0,2.2,2.2A2.2,2.2,0,0,0,13.76,2.785Z" fill-rule="evenodd"></path><path d="M13.76,7.65a2.63,2.63,0,0,0,1.324-.366V10.97a1.371,1.371,0,0,1-1.371,1.371H3.2V10.353A1.211,1.211,0,0,0,1.993,9.142H0V5.03A1.371,1.371,0,0,1,1.371,3.659H11.457a2.636,2.636,0,0,0-.365,1.323A2.671,2.671,0,0,0,13.76,7.65Zm-.128,3.365.019,0a.1.1,0,0,0,.073-.113l-.021-.108a.9.9,0,1,0-.944-1.437,1.089,1.089,0,0,1,.8,1.045,1.074,1.074,0,0,1-.161.567.093.093,0,0,0,.082.048h.005a.654.654,0,0,0,.416.472l.042-.09a.567.567,0,0,1-.356-.382Zm-1,.5.019,0a.1.1,0,0,0,.073-.113l-.021-.108a.9.9,0,1,0-.3.031l-.016.077,0,.019a.1.1,0,0,0,.095.1h.035a.337.337,0,0,1-.222.354l.042.091a.434.434,0,0,0,.28-.445Z" fill-rule="evenodd"></path></g></g>
</symbol>

<symbol id="label-birthday" viewBox="0 0 16 16">
  <title>label-birthday</title><g id="Layer_1" data-name="Layer 1"><g id="label-birthday"><path d="M2,9.6H.006l2.746,2.747V10.358A.756.756,0,0,0,2,9.6Z" fill-rule="evenodd"></path><path d="M13.74,3.651H1.374A1.373,1.373,0,0,0,0,5.024V9.145H2A1.213,1.213,0,0,1,3.21,10.358v1.991H13.74a1.373,1.373,0,0,0,1.374-1.373V5.024A1.373,1.373,0,0,0,13.74,3.651Zm-.149,7.364a.566.566,0,0,0,.356.381l-.042.091a.656.656,0,0,1-.416-.472h-.005a.093.093,0,0,1-.082-.048,1.074,1.074,0,0,0,.161-.567,1.089,1.089,0,0,0-.8-1.045.9.9,0,1,1,.943,1.437l.021.108a.1.1,0,0,1-.073.113l-.019,0Zm-.971.5a.434.434,0,0,1-.28.445l-.042-.091a.335.335,0,0,0,.222-.354h-.035a.1.1,0,0,1-.095-.1l0-.019.016-.077a.9.9,0,1,1,.3-.031l.021.108a.1.1,0,0,1-.073.113l-.019,0Z" fill-rule="evenodd"></path></g></g>
</symbol>

<symbol id="label-name-add" viewBox="0 0 16 16">
  <title>label-name-add</title><g id="Layer_1" data-name="Layer 1"><path d="M1.993,9.6H.006l2.741,2.742V10.353A.755.755,0,0,0,1.993,9.6Z" fill-rule="evenodd"></path><path d="M13.76,2.785a2.2,2.2,0,1,0,2.2,2.2A2.2,2.2,0,0,0,13.76,2.785Zm1.324,2.527H14.09v.994h-.66V5.312h-.995v-.66h.995V3.658h.66v.994h.994Z" fill-rule="evenodd"></path><path d="M11.092,4.982a2.636,2.636,0,0,1,.365-1.323H1.371A1.371,1.371,0,0,0,0,5.03V9.142H1.993A1.211,1.211,0,0,1,3.2,10.353v1.988H13.713a1.371,1.371,0,0,0,1.371-1.371V7.284a2.63,2.63,0,0,1-1.324.366A2.671,2.671,0,0,1,11.092,4.982Z" fill-rule="evenodd"></path></g>
</symbol>

<symbol id="label-name-circle" viewBox="0 0 16 16">
  <title>label-name-circle</title><g id="Layer_1" data-name="Layer 1"><path d="M1.993,9.6H.006l2.741,2.742V10.353A.755.755,0,0,0,1.993,9.6Z" fill-rule="evenodd"></path><path d="M13.76,2.785a2.2,2.2,0,1,0,2.2,2.2A2.2,2.2,0,0,0,13.76,2.785Z" fill-rule="evenodd"></path><path d="M11.092,4.982a2.636,2.636,0,0,1,.365-1.323H1.371A1.371,1.371,0,0,0,0,5.03V9.142H1.993A1.211,1.211,0,0,1,3.2,10.353v1.988H13.713a1.371,1.371,0,0,0,1.371-1.371V7.284a2.63,2.63,0,0,1-1.324.366A2.671,2.671,0,0,1,11.092,4.982Z" fill-rule="evenodd"></path></g>
</symbol>

<symbol id="label-name" viewBox="0 0 16 16">
  <title>label-name</title><g id="Layer_1" data-name="Layer 1"><path d="M2,9.6H.006l2.746,2.747V10.358A.756.756,0,0,0,2,9.6Z" fill-rule="evenodd"></path><path d="M13.74,3.651H1.374A1.373,1.373,0,0,0,0,5.024V9.145H2A1.213,1.213,0,0,1,3.21,10.358v1.991H13.74a1.373,1.373,0,0,0,1.374-1.373V5.024A1.373,1.373,0,0,0,13.74,3.651ZM12.189,9.145a.558.558,0,1,1-.559.558A.557.557,0,0,1,12.189,9.145Zm.9,2.2a.087.087,0,0,1-.087.088H11.379a.087.087,0,0,1-.088-.088v-.283a.575.575,0,0,1,.576-.575h.643a.574.574,0,0,1,.575.575Zm.44-1.858a.419.419,0,1,1-.418.418A.418.418,0,0,1,13.525,9.488Zm.673,1.651a.065.065,0,0,1-.065.065h-.764a.087.087,0,0,1-.087-.087v-.079a.658.658,0,0,0-.154-.424.061.061,0,0,1,.027-.1.425.425,0,0,1,.129-.02h.482a.431.431,0,0,1,.432.431Z" fill-rule="evenodd"></path></g>
</symbol>

<symbol id="label-security-add" viewBox="0 0 16 16">
  <title>label-security-add</title><g id="Layer_1" data-name="Layer 1"><rect x="4.114" y="9.142" width="0.457" height="2.285"></rect><rect x="5.257" y="9.142" width="0.457" height="2.285"></rect><rect x="7.314" y="9.142" width="0.457" height="2.285"></rect><rect x="4.8" y="9.142" width="0.229" height="2.285"></rect><rect x="5.942" y="9.142" width="0.229" height="2.285"></rect><rect x="6.399" y="9.142" width="0.229" height="2.285"></rect><rect x="6.857" y="9.142" width="0.229" height="2.285"></rect><rect x="7.999" y="9.142" width="0.229" height="2.285"></rect><rect x="8.456" y="9.142" width="0.229" height="2.285"></rect><rect x="8.913" y="9.142" width="0.457" height="2.285"></rect><rect x="10.97" y="9.142" width="0.457" height="2.285"></rect><rect x="12.57" y="9.142" width="0.457" height="2.285"></rect><rect x="13.256" y="9.142" width="0.457" height="2.285"></rect><rect x="9.599" y="9.142" width="0.229" height="2.285"></rect><rect x="10.056" y="9.142" width="0.229" height="2.285"></rect><rect x="10.513" y="9.142" width="0.229" height="2.285"></rect><rect x="11.656" y="9.142" width="0.229" height="2.285"></rect><rect x="12.113" y="9.142" width="0.229" height="2.285"></rect><path d="M13.76,2.784a2.2,2.2,0,1,0,2.2,2.2A2.2,2.2,0,0,0,13.76,2.784Zm1.324,2.527H14.09v1h-.66v-1h-.995V4.652h.995v-1h.66v1h.994Z"></path><path d="M11.092,4.981a2.649,2.649,0,0,1,.041-.41H.584a.911.911,0,0,1,.787-.457h9.878a2.657,2.657,0,0,1,.208-.457H1.371A1.371,1.371,0,0,0,0,5.028V9.6l.005,0a.453.453,0,0,0,.129.319l2.285,2.286a.461.461,0,0,0,.324.134h10.97a1.371,1.371,0,0,0,1.371-1.372V7.283a2.63,2.63,0,0,1-1.324.366A2.671,2.671,0,0,1,11.092,4.981Zm-8.349,6.9L.457,9.6H1.981a.762.762,0,0,1,.762.762Zm11.884-.915a.916.916,0,0,1-.914.915H3.2V10.361A1.22,1.22,0,0,0,1.981,9.142H.457V8.685h14.17Z"></path></g>
</symbol>

<symbol id="label-security-circle" viewBox="0 0 16 16">
  <title>label-security-circle</title><g id="Layer_1" data-name="Layer 1"><rect x="4.114" y="9.142" width="0.457" height="2.285"></rect><rect x="5.257" y="9.142" width="0.457" height="2.285"></rect><rect x="7.314" y="9.142" width="0.457" height="2.285"></rect><rect x="4.8" y="9.142" width="0.229" height="2.285"></rect><rect x="5.942" y="9.142" width="0.229" height="2.285"></rect><rect x="6.399" y="9.142" width="0.229" height="2.285"></rect><rect x="6.857" y="9.142" width="0.229" height="2.285"></rect><rect x="7.999" y="9.142" width="0.229" height="2.285"></rect><rect x="8.456" y="9.142" width="0.229" height="2.285"></rect><rect x="8.913" y="9.142" width="0.457" height="2.285"></rect><rect x="10.97" y="9.142" width="0.457" height="2.285"></rect><rect x="12.57" y="9.142" width="0.457" height="2.285"></rect><rect x="13.256" y="9.142" width="0.457" height="2.285"></rect><rect x="9.599" y="9.142" width="0.229" height="2.285"></rect><rect x="10.056" y="9.142" width="0.229" height="2.285"></rect><rect x="10.513" y="9.142" width="0.229" height="2.285"></rect><rect x="11.656" y="9.142" width="0.229" height="2.285"></rect><rect x="12.113" y="9.142" width="0.229" height="2.285"></rect><path d="M13.76,2.784a2.2,2.2,0,1,0,2.2,2.2A2.2,2.2,0,0,0,13.76,2.784Z"></path><path d="M11.092,4.981a2.649,2.649,0,0,1,.041-.41H.584a.911.911,0,0,1,.787-.457h9.878a2.657,2.657,0,0,1,.208-.457H1.371A1.371,1.371,0,0,0,0,5.028V9.6l.005,0a.453.453,0,0,0,.129.319l2.285,2.286a.461.461,0,0,0,.324.134h10.97a1.371,1.371,0,0,0,1.371-1.372V7.283a2.63,2.63,0,0,1-1.324.366A2.671,2.671,0,0,1,11.092,4.981Zm-8.349,6.9L.457,9.6H1.981a.762.762,0,0,1,.762.762Zm11.884-.915a.916.916,0,0,1-.914.915H3.2V10.361A1.22,1.22,0,0,0,1.981,9.142H.457V8.685h14.17Z"></path></g>
</symbol>

<symbol id="label-security" viewBox="0 0 16 16">
  <title>label-security</title><g id="Layer_1" data-name="Layer 1"><rect x="4.122" y="9.145" width="0.458" height="2.29"></rect><rect x="5.267" y="9.145" width="0.458" height="2.29"></rect><rect x="7.328" y="9.145" width="0.458" height="2.29"></rect><rect x="4.809" y="9.145" width="0.229" height="2.29"></rect><rect x="5.954" y="9.145" width="0.229" height="2.29"></rect><rect x="6.412" y="9.145" width="0.229" height="2.29"></rect><rect x="6.87" y="9.145" width="0.229" height="2.29"></rect><rect x="8.015" y="9.145" width="0.229" height="2.29"></rect><rect x="8.473" y="9.145" width="0.229" height="2.29"></rect><rect x="8.931" y="9.145" width="0.458" height="2.29"></rect><rect x="10.992" y="9.145" width="0.458" height="2.29"></rect><rect x="12.595" y="9.145" width="0.458" height="2.29"></rect><rect x="13.282" y="9.145" width="0.458" height="2.29"></rect><rect x="9.618" y="9.145" width="0.229" height="2.29"></rect><rect x="10.076" y="9.145" width="0.229" height="2.29"></rect><rect x="10.534" y="9.145" width="0.229" height="2.29"></rect><rect x="11.679" y="9.145" width="0.229" height="2.29"></rect><rect x="12.137" y="9.145" width="0.229" height="2.29"></rect><path d="M13.318,6.119l-.56.56-.012.014-.011-.013c-.073-.073-.145-.147-.219-.219a.161.161,0,1,0-.223.233l.338.337a.161.161,0,0,0,.23,0c.056-.057.113-.113.17-.17q.258-.257.515-.515a.153.153,0,0,0,.038-.168A.16.16,0,0,0,13.318,6.119Z"></path><path d="M13.74,3.649H1.374A1.374,1.374,0,0,0,0,5.023V9.6l0,0a.459.459,0,0,0,.13.319l2.29,2.291a.461.461,0,0,0,.324.134H13.74a1.374,1.374,0,0,0,1.374-1.374V5.023A1.374,1.374,0,0,0,13.74,3.649ZM1.374,4.107H13.74a.914.914,0,0,1,.788.458H.585A.914.914,0,0,1,1.374,4.107ZM14.2,5.916a2.557,2.557,0,0,1-.249,1.1A2.6,2.6,0,0,1,12.86,8.175a.067.067,0,0,1-.071,0,2.835,2.835,0,0,1-.54-.4A2.489,2.489,0,0,1,11.6,6.761a2.63,2.63,0,0,1-.117-.456,2.508,2.508,0,0,1-.029-.433,2.573,2.573,0,0,1,.026-.317c0-.028.013-.038.041-.043.13-.024.259-.044.388-.072a2.712,2.712,0,0,0,.606-.2,2.283,2.283,0,0,0,.243-.144.123.123,0,0,1,.074-.028.1.1,0,0,1,.053.016,2.063,2.063,0,0,0,.621.286,4.881,4.881,0,0,0,.547.129c.029.006.059.009.088.014a.036.036,0,0,1,.035.037,2.527,2.527,0,0,1,.026.325ZM2.748,11.893.458,9.6H1.985a.763.763,0,0,1,.763.763Zm11.908-.916a.917.917,0,0,1-.916.916H3.206V10.366A1.222,1.222,0,0,0,1.985,9.145H.458V8.687h14.2Z"></path></g>
</symbol>

<symbol id="label" viewBox="0 0 16 16">
  <title>label</title><g id="Layer_1" data-name="Layer 1"><polygon points="4.225 14.07 3.356 14.07 3.356 12.333 1.619 12.333 1.619 11.464 4.225 11.464 4.225 14.07"></polygon><rect x="1.344" y="12.478" width="2.867" height="0.869" transform="translate(-8.317 5.745) rotate(-45)"></rect><path d="M14.36.75H1.619a.869.869,0,0,0-.869.869v6.66A2.319,2.319,0,0,0,3.067,10.6H5.094v2.317A2.319,2.319,0,0,0,7.41,15.228h6.95a.868.868,0,0,0,.868-.868V1.619A.869.869,0,0,0,14.36.75Zm-.6,13.006H7.41a.846.846,0,0,1-.845-.844V9.124h-3.5a.845.845,0,0,1-.843-.845V2.222H13.756Z"></path></g>
</symbol>

<symbol id="linux" viewBox="0 0 16 16">
  <title>linux</title><g id="Layer_1" data-name="Layer 1"><path d="M13.948,13.5c.008-.126-.077-.323-.34-.615h0a1.233,1.233,0,0,1-.219-.569.879.879,0,0,0-.209-.469h0a.59.59,0,0,0-.454-.132l-.111,0a1.172,1.172,0,0,1-.961.407.767.767,0,0,1-.47-.737l-.025.013a.754.754,0,0,0-.342.527,5.4,5.4,0,0,0-.1.967h0a6.1,6.1,0,0,1-.249,1.016,1.376,1.376,0,0,0-.029.9h0a.817.817,0,0,0,.843.482,1.666,1.666,0,0,0,1.089-.638,4.2,4.2,0,0,1,1.315-.841C13.85,13.714,13.941,13.621,13.948,13.5Zm-8.028.916a1.437,1.437,0,0,0-.39-.845,6.179,6.179,0,0,1-.637-.874h0L4.4,11.8a.872.872,0,0,0-.546-.4.512.512,0,0,0-.085-.007H3.768a.464.464,0,0,0-.353.18c-.119.127-.221.306-.357.45h0a1.2,1.2,0,0,1-.49.248.579.579,0,0,0-.369.281h0a.847.847,0,0,0-.023.5,1.3,1.3,0,0,1,.015.6v0h0a.877.877,0,0,0-.065.66.509.509,0,0,0,.386.218,5.064,5.064,0,0,1,1.528.329h0a1.957,1.957,0,0,0,1.281.245.713.713,0,0,0,.6-.7h0ZM9.037,4.386a.441.441,0,0,0-.24-.193h0a3.652,3.652,0,0,1-.529-.218,1.123,1.123,0,0,0-.608-.209.717.717,0,0,0-.234.04,1.137,1.137,0,0,0-.42.294h0c-.017.016-.038.03-.089.068s-.13.095-.242.179a.242.242,0,0,0-.1.285.691.691,0,0,0,.344.359h0a2.576,2.576,0,0,1,.307.25.651.651,0,0,0,.162.1.686.686,0,0,0,.224.05.868.868,0,0,0,.506-.131,2.291,2.291,0,0,1,.39-.218h0a.816.816,0,0,0,.533-.423A.279.279,0,0,0,9.037,4.386Zm1.919,6.189c.064-.424.4-.439.419-.722a6.925,6.925,0,0,0-.737-2.019A16.175,16.175,0,0,1,9.477,4.842a1.33,1.33,0,0,1-.7.469,3.466,3.466,0,0,0-.495.282,1.3,1.3,0,0,1-.667.191l-.075,0a.981.981,0,0,1-.584-.227,3.5,3.5,0,0,0-.4-.323c-.049-.028-.16-.1-.192-.127a11.5,11.5,0,0,1-1.23,3.521,5.39,5.39,0,0,0-.431,1.921.787.787,0,0,0,.281.657,4.251,4.251,0,0,1,1.2,1.017.881.881,0,0,1,.231.78.389.389,0,0,1-.212.219.746.746,0,0,1-.308.058c.061.077.124.156.184.235.095.124.186.249.266.376a3.084,3.084,0,0,0,3.578-.219,4.838,4.838,0,0,0,.213-.9,6.877,6.877,0,0,1,.136-1.248,1.158,1.158,0,0,1,.532-.793.931.931,0,0,1,.138-.062Q10.949,10.618,10.956,10.575ZM7.312,3.415h0a1.264,1.264,0,0,0,0-.195h0a1.2,1.2,0,0,0-.1-.437.771.771,0,0,0-.228-.311.417.417,0,0,0-.268-.1H6.691a.407.407,0,0,0-.279.135.762.762,0,0,0-.192.334,1.24,1.24,0,0,0-.051.446v0a1.244,1.244,0,0,0,.1.437A.819.819,0,0,0,6.456,4l.088-.065c.039-.028.071-.054.118-.09l-.023-.018a.429.429,0,0,1-.111-.162.732.732,0,0,1-.054-.22v-.01A.728.728,0,0,1,6.489,3.2a.412.412,0,0,1,.08-.179A.178.178,0,0,1,6.7,2.945h.013A.181.181,0,0,1,6.831,3a.417.417,0,0,1,.11.162A.733.733,0,0,1,7,3.378v.009a.756.756,0,0,1,0,.172,1.139,1.139,0,0,1,.262-.127Zm2.165-.188h0a.03.03,0,0,1,0-.013,1.185,1.185,0,0,0-.111-.5.892.892,0,0,0-.294-.371.638.638,0,0,0-.392-.133H8.671a.63.63,0,0,0-.4.141.909.909,0,0,0-.287.376,1.192,1.192,0,0,0-.1.512v.015a1.232,1.232,0,0,0,.012.152,2.052,2.052,0,0,1,.406.138.825.825,0,0,1-.012-.16V3.375A.751.751,0,0,1,8.352,3.1a.487.487,0,0,1,.139-.2.263.263,0,0,1,.174-.069h.009a.255.255,0,0,1,.178.081.493.493,0,0,1,.124.21.775.775,0,0,1,.04.27V3.4a.746.746,0,0,1-.058.278.63.63,0,0,1-.121.145l.145.052c.057.021.119.046.19.077.021.008.041.017.06.026a.965.965,0,0,0,.143-.24A1.2,1.2,0,0,0,9.477,3.227Zm4.652,9.4a1.383,1.383,0,0,1,.479.923.754.754,0,0,1-.436.571,5.414,5.414,0,0,0-1.589,1l-.082-.067.081.068A2.283,2.283,0,0,1,11.074,16a1.257,1.257,0,0,1-1.259-.718v0a.931.931,0,0,1-.078-.21c-.671.038-1.255-.166-1.722-.128-.688.038-1.118.2-1.51.206a1.132,1.132,0,0,1-.81.631,2.627,2.627,0,0,1-1.747-.324L4,15.357l-.05.094a6.592,6.592,0,0,0-1.854-.392.839.839,0,0,1-.628-.384,1.255,1.255,0,0,1,.07-.991,1.624,1.624,0,0,0-.025-.649,2.4,2.4,0,0,1-.037-.37.8.8,0,0,1,.087-.388h0a.961.961,0,0,1,.578-.453,1.377,1.377,0,0,0,.532-.258c.143-.151.271-.375.444-.561.023-.024.048-.048.073-.071a3.612,3.612,0,0,1,.193-1.666A10,10,0,0,1,5.194,6.245a3.61,3.61,0,0,0,.7-2.021C5.939,3.225,5.19.24,8.014.013,8.126,0,8.233,0,8.336,0c2.528,0,2.386,2.667,2.37,4.1a3.5,3.5,0,0,0,1.042,2.249A8.274,8.274,0,0,1,13.2,8.679a3.611,3.611,0,0,1,.116,2.471.948.948,0,0,1,.129.062.93.93,0,0,1,.125.092h0a1.224,1.224,0,0,1,.329.7,1.526,1.526,0,0,0,.225.617Z"></path></g>
</symbol>

<symbol id="microsoft-edge" viewBox="0 0 16 16">
  <title>microsoft-edge</title><g id="Layer_1" data-name="Layer 1"><path d="M.608,7.106H.617A9.757,9.757,0,0,1,1.14,4.947,8.185,8.185,0,0,1,2.168,3.008a7.593,7.593,0,0,1,1.5-1.573,6.612,6.612,0,0,1,2-1.051A7.74,7.74,0,0,1,8.134,0a7.272,7.272,0,0,1,3.7.943,7.011,7.011,0,0,1,2.628,2.713,8.009,8.009,0,0,1,.929,3.951v1.68H5.336a3.162,3.162,0,0,0,.479,1.721,3,3,0,0,0,1.22,1.1,5.829,5.829,0,0,0,1.693.509,7.013,7.013,0,0,0,1.9.027,9.4,9.4,0,0,0,1.86-.416,6,6,0,0,0,1.55-.755v3.37a8.09,8.09,0,0,1-2.051.822A10.988,10.988,0,0,1,9.2,16a7.716,7.716,0,0,1-2.825-.474A5.962,5.962,0,0,1,3.589,13.3,5.832,5.832,0,0,1,2.476,9.975a6.312,6.312,0,0,1,.992-3.682A6.894,6.894,0,0,1,6.373,3.9a5.415,5.415,0,0,0-.7,1.122,5.727,5.727,0,0,0-.411,1.426h5.676a3.574,3.574,0,0,0-.072-1.252,2.344,2.344,0,0,0-.42-.907,3.133,3.133,0,0,0-.63-.594,2.61,2.61,0,0,0-.72-.367q-.366-.115-.67-.183a3.033,3.033,0,0,0-.5-.076l-.2-.009a8.683,8.683,0,0,0-2.32.4,8.015,8.015,0,0,0-2,.934A10.341,10.341,0,0,0,1.841,5.645,10.147,10.147,0,0,0,.608,7.106Z"></path></g>
</symbol>

<symbol id="minus-circle" viewBox="0 0 16 16">
  <title>minus-circle</title><g id="Layer_1" data-name="Layer 1"><path d="M8,.006A7.994,7.994,0,1,0,15.994,8,8,8,0,0,0,8,.006ZM8,14.323A6.323,6.323,0,1,1,14.323,8,6.323,6.323,0,0,1,8,14.323Z"></path><path d="M10.989,7.176H4.967a.807.807,0,0,0,0,1.613h6.022a.807.807,0,0,0,0-1.613Z"></path></g>
</symbol>

<symbol id="mobile-pass" viewBox="0 0 16 16">
  <title>mobile-pass</title><g id="Layer_1" data-name="Layer 1"><path d="M12.654,14.3a1.7,1.7,0,0,1-1.7,1.7h-5.9a1.7,1.7,0,0,1-1.7-1.7V1.7A1.7,1.7,0,0,1,5.049,0h5.9a1.7,1.7,0,0,1,1.7,1.7V14.3ZM11.883,3.349H4.1v9.175h7.786ZM9.556,1.7a.189.189,0,0,0-.189-.188H6.633a.188.188,0,0,0-.189.188h0a.189.189,0,0,0,.189.189H9.367A.189.189,0,0,0,9.556,1.7ZM5.918,13.883a.4.4,0,1,0,.4.4A.4.4,0,0,0,5.918,13.883Zm2.082,0a.4.4,0,1,0,.4.4A.4.4,0,0,0,8,13.883Zm2.081,0a.4.4,0,1,0,.4.4A.4.4,0,0,0,10.081,13.883Z"></path><rect x="10.387" y="10.387" width="0.682" height="0.682"></rect><rect x="9.023" y="9.023" width="0.682" height="0.682"></rect><rect x="10.387" y="9.023" width="0.682" height="0.682"></rect><rect x="9.705" y="8.341" width="0.682" height="0.682"></rect><rect x="9.023" y="10.387" width="0.682" height="0.682"></rect><rect x="9.705" y="9.705" width="0.682" height="0.682"></rect><rect x="8.341" y="9.705" width="0.682" height="0.682"></rect><rect x="8.341" y="8.341" width="0.682" height="0.682"></rect><path d="M4.931,8.341v2.728H7.659V8.341Zm2.046,2.046H5.613V9.023H6.977Z"></path><path d="M4.931,4.931V7.659H7.659V4.931ZM6.977,6.977H5.613V5.613H6.977Z"></path><path d="M8.341,4.931V7.659h2.728V4.931Zm2.046,2.046H9.023V5.613h1.364Z"></path></g>
</symbol>

<symbol id="report-preview" viewBox="0 0 16 16">
  <title>report-preview</title><g id="Layer_1" data-name="Layer 1"><path d="M11.965,3.186,7.986.218A.6.6,0,0,0,7.569.049h-6.2A.6.6,0,0,0,.948.218.576.576,0,0,0,.776.627V13.655a.58.58,0,0,0,.172.409.6.6,0,0,0,.417.169H5.473l-1.045-1.9H2.665V1.946h4.77V3.722a.13.13,0,0,0,.038.091.135.135,0,0,0,.093.037h2.682v.936h1.889V3.6A.57.57,0,0,0,11.965,3.186Z"></path><path d="M14.985,14.31l-2.55-2.549a4.149,4.149,0,0,0,.606-2.167,4.4,4.4,0,0,0-4.3-4.3A4.174,4.174,0,0,0,4.565,9.466a4.4,4.4,0,0,0,4.3,4.3,4.157,4.157,0,0,0,2.1-.568l2.564,2.563a.642.642,0,0,0,.908,0l.636-.635C15.327,14.877,15.236,14.561,14.985,14.31ZM8.738,12.071A2.541,2.541,0,1,1,11.28,9.53,2.541,2.541,0,0,1,8.738,12.071Z"></path></g>
</symbol>

<symbol id="tick-box-full" viewBox="0 0 16 16">
  <title>tick-box-full</title><g id="Layer_1" data-name="Layer 1"><path d="M13.005.018H3A2.9,2.9,0,0,0,.018,2.907v10.1A2.976,2.976,0,0,0,3,15.982h10.01a2.976,2.976,0,0,0,2.977-2.976V2.907A2.9,2.9,0,0,0,13.005.018Zm1.081,13.076a.992.992,0,0,1-.993.992H2.907a.993.993,0,0,1-.993-.992V2.907a.994.994,0,0,1,.993-.993H13.093a.993.993,0,0,1,.993.993Z" fill-rule="evenodd"></path><polygon points="7.109 8.582 5.174 6.647 3.705 8.116 7.149 11.56 7.15 11.559 7.152 11.56 12.762 5.95 11.252 4.44 7.109 8.582" fill-rule="evenodd"></polygon></g>
</symbol>

<symbol id="tick-box-open" viewBox="0 0 16 16">
  <title>tick-box-open</title><g id="Layer_1" data-name="Layer 1"><path d="M13.005.018H3A2.9,2.9,0,0,0,.018,2.907v10.1A2.976,2.976,0,0,0,3,15.982h10.01a2.976,2.976,0,0,0,2.977-2.976V2.907A2.9,2.9,0,0,0,13.005.018Zm1.081,13.076a.992.992,0,0,1-.993.992H2.907a.993.993,0,0,1-.993-.992V2.907a.994.994,0,0,1,.993-.993H13.093a.993.993,0,0,1,.993.993Z" fill-rule="evenodd"></path></g>
</symbol>

<symbol id="windows" viewBox="0 0 16 16">
  <title>windows</title><g id="Layer_1" data-name="Layer 1"><path d="M.025,2.265l6.518-.887,0,6.287L.031,7.7ZM6.54,8.39l0,6.293-6.515-.9V8.347Zm.79-7.129L15.973,0V7.585L7.33,7.654Zm8.645,7.188,0,7.551L7.33,14.78,7.318,8.435Z"></path></g>
</symbol>

<symbol id="x" viewBox="0 0 16 16">
  <title>x</title><g id="Layer_1" data-name="Layer 1"><polygon points="14.301 4.34 11.625 1.664 8 5.29 4.375 1.664 1.699 4.34 5.325 7.965 1.699 11.591 4.375 14.266 8 10.641 11.625 14.266 14.301 11.591 10.675 7.965 14.301 4.34" fill-rule="evenodd"></polygon></g>
</symbol>
    </svg>