<svg xmlns="http://www.w3.org/2000/svg" xmlns:xlink="http://www.w3.org/1999/xlink">
    
<symbol id="bank-check" viewBox="0 0 16 16">
  <title>bank-check</title><path d="M14.879,5.2H11.57l2.9,2.9a1.2,1.2,0,0,1,.353.852v2.23h0a.391.391,0,0,1-.391.391H2.624a.134.134,0,0,1-.133-.133v-.63a.134.134,0,0,1,.133-.134h8.194l-1.8-1.8H2.624a.133.133,0,0,1-.133-.133v-.67a.134.134,0,0,1,.133-.13H8.076L5.33,5.2H1.121A1.121,1.121,0,0,0,0,6.323v0H0v6.606a1.12,1.12,0,0,0,1.121,1.12H14.879A1.12,1.12,0,0,0,16,12.931V6.323A1.121,1.121,0,0,0,14.879,5.2Z"></path><path d="M8.834,3.715,6.961,5.588,11.978,10.6h0a.32.32,0,0,0,.228.1h1.552a.187.187,0,0,0,.187-.187h0V8.962a.322.322,0,0,0-.094-.228Z"></path><path d="M5.405,3.016a.718.718,0,0,0,0,1.014L6.417,5.041,8.288,3.17,7.277,2.159h0a.718.718,0,0,0-1.013,0Z"></path>
</symbol>

<symbol id="bank" viewBox="0 0 16 16">
  <title>bank</title><path d="M16,3.907,8,.186,0,3.907V5.4H16Zm-.512,9.3H.512v2.605H15.488Zm-4.325-6.7h2.6v5.581h-2.6Zm-1.861,0H6.7v5.581H9.3Zm-7.069,0h2.6v5.581h-2.6Z" fill-rule="evenodd"></path>
</symbol>

<symbol id="calendar-events" viewBox="0 0 16 16">
  <title>calendar-events</title><path d="M7.562,7.219a.482.482,0,0,1,.876,0l.546,1.189,1.3.137a.483.483,0,0,1,.269.841l-.961.85.269,1.255a.482.482,0,0,1-.707.521L8,11.366l-1.155.646a.482.482,0,0,1-.707-.521l.269-1.255-.961-.85a.483.483,0,0,1,.269-.841l1.3-.137Z"></path><path d="M12.667,1.641h.82a1.774,1.774,0,0,1,1.744,1.538v11.18A1.62,1.62,0,0,1,13.59,16H2.41A1.62,1.62,0,0,1,.769,14.359V3.179A1.6,1.6,0,0,1,2.41,1.641h.718V0H4.769V1.641h6.257V0h1.641ZM2.41,14.359H13.59V5.538H2.41Z" fill-rule="evenodd"></path>
</symbol>

<symbol id="camera-reverse" viewBox="0 0 16 16">
  <title>camera-reverse</title><path d="M10.286,1.524a1.9,1.9,0,0,1,1.9,1.9V4.19H14.1A1.905,1.905,0,0,1,16,6.1v6.476a1.905,1.905,0,0,1-1.9,1.905H1.905A1.905,1.905,0,0,1,0,12.571V6.1a1.905,1.905,0,0,1,1.905-1.9H3.81V3.429a1.9,1.9,0,0,1,1.9-1.9ZM8,6.19A2.572,2.572,0,0,0,5.772,7.477L4.948,7a3.524,3.524,0,0,1,6.5,1.043l.627-.087-.89,1.662L9.877,8.261l.627-.087A2.573,2.573,0,0,0,8,6.19ZM5.775,10.052a2.572,2.572,0,0,0,4.092.478l.692.655a3.525,3.525,0,0,1-5.685-.795l-.529.2L4.6,9.681l-.01-.038.022-.006.24-.865L6.425,9.807Z" fill-rule="evenodd"></path>
</symbol>

<symbol id="check-ins-o" viewBox="0 0 16 16">
  <title>check-ins-o</title><path d="M11.979,5.925l-.606-.606L7.351,9.34,5.492,7.481l-.606.606,2.465,2.465Z"></path><path d="M16,8A8,8,0,1,1,8,0,8,8,0,0,1,16,8Zm-.857,0A7.143,7.143,0,1,1,8,.857,7.143,7.143,0,0,1,15.143,8Z" fill-rule="evenodd"></path>
</symbol>

<symbol id="check-ins" viewBox="0 0 16 16">
  <title>check-ins</title><path d="M8,0a8,8,0,1,0,8,8A8.024,8.024,0,0,0,8,0ZM7.371,10.743,4.8,8.171l.8-.8L7.371,9.143,11.314,5.2l.8.8Z"></path>
</symbol>

<symbol id="circle" viewBox="0 0 16 16">
  <title>circle</title><circle cx="8" cy="8" r="8"></circle>
</symbol>

<symbol id="dot-circle" viewBox="0 0 16 16">
  <title>dot-circle</title><path d="M8,.5A7.5,7.5,0,1,0,15.5,8,7.5,7.5,0,0,0,8,.5ZM8,11.088H8A3.088,3.088,0,1,1,11.088,8,3.087,3.087,0,0,1,8,11.088Z"></path>
</symbol>

<symbol id="event-circle" viewBox="0 0 16 16">
  <title>event-circle</title><path d="M8,0a8,8,0,1,0,8,8A8,8,0,0,0,8,0ZM8,14.118A6.118,6.118,0,1,1,14.118,8,6.118,6.118,0,0,1,8,14.118Z"></path><path d="M11.045,6.694,9.2,6.5l-.77-1.677a.471.471,0,0,0-.856,0L6.8,6.5l-1.847.2a.47.47,0,0,0-.262.82l1.368,1.21L5.679,10.5a.471.471,0,0,0,.69.51L8,10.1l1.631.913a.471.471,0,0,0,.69-.51L9.939,8.724l1.368-1.21A.47.47,0,0,0,11.045,6.694Z"></path>
</symbol>

<symbol id="exclamation-circle" viewBox="0 0 16 16">
  <title>exclamation-circle</title><path d="M8,0a8,8,0,1,0,8,8A8.024,8.024,0,0,0,8,0Zm.8,12H7.2V10.4H8.8Zm0-3.2H7.2V4H8.8Z"></path>
</symbol>

<symbol id="flag" viewBox="0 0 16 16">
  <title>flag</title><polygon points="10.319 2.319 10.319 0 1.507 0 1.507 16 1.507 16 3.362 16 3.362 7.42 6.609 7.42 6.609 9.739 14.493 9.739 14.493 2.319 10.319 2.319"></polygon>
</symbol>

<symbol id="flash-off" viewBox="0 0 16 16">
  <title>flash-off</title><path d="M10.234,8.9A.878.878,0,0,0,9.569,7.45H7.741L8.79,1.024A.878.878,0,0,0,7.258.308h0L1.405,7.1A.878.878,0,0,0,2.07,8.55H3.9L2.849,14.976a.878.878,0,0,0,1.532.716Z"></path><path d="M13.974,1.859a2.856,2.856,0,1,0,0,4.039A2.857,2.857,0,0,0,13.974,1.859ZM13.4,4.4,11.438,2.43A1.538,1.538,0,0,1,13.4,4.4Zm-2.536.57h0a1.537,1.537,0,0,1-.361-1.6l1.965,1.966A1.539,1.539,0,0,1,10.867,4.966Z"></path>
</symbol>

<symbol id="flash-on" viewBox="0 0 16 16">
  <title>flash-on</title><path d="M12.231,9.075a.843.843,0,0,0-.638-1.392H9.769c.006-.024.011-.048.015-.073L10.847,1.1A.842.842,0,0,0,9.378.418L3.769,6.925a.843.843,0,0,0,.638,1.392H6.231a.59.59,0,0,0-.015.073L5.153,14.9a.842.842,0,0,0,1.469.686Z"></path>
</symbol>

<symbol id="give-heart" viewBox="0 0 16 16">
  <title>give-heart</title><path d="M11.579.689a4.954,4.954,0,0,0-3.5,1.6.184.184,0,0,1-.21,0A4.416,4.416,0,0,0,4.421.689,4.343,4.343,0,0,0,0,5.111c0,3.031,2.7,5.431,6.7,9.305l.926.8a.443.443,0,0,0,.547,0l1.011-.8C13.305,10.584,16,8.142,16,5.111A4.421,4.421,0,0,0,11.579.689ZM7.368,7.132a2.124,2.124,0,0,0,.548.21c.21.084.463.169.716.253a3.676,3.676,0,0,1,.715.337,1.572,1.572,0,0,1,.548.5,1.036,1.036,0,0,1,.21.716,1.458,1.458,0,0,1-.421,1.052h0a2.529,2.529,0,0,1-1.263.59v.968H7.453V10.8a4.457,4.457,0,0,1-1.011-.253,3.969,3.969,0,0,1-.926-.5l.631-.969a5.85,5.85,0,0,0,.927.422A3.284,3.284,0,0,0,8,9.658a.954.954,0,0,0,.547-.126c.127-.085.211-.169.211-.295A.429.429,0,0,0,8.547,8.9,3.5,3.5,0,0,0,8,8.647c-.21-.084-.463-.168-.716-.252a3.773,3.773,0,0,1-.716-.337,2.063,2.063,0,0,1-.547-.5,1.308,1.308,0,0,1-.21-.716,1.282,1.282,0,0,1,.463-1.011,2.161,2.161,0,0,1,1.221-.5V4.479h.968v.8a2.374,2.374,0,0,1,.926.295,2.732,2.732,0,0,1,.716.5l-.842.8a2.021,2.021,0,0,0-.673-.337,1.977,1.977,0,0,0-.716-.126c-.463,0-.716.126-.716.421C7.158,6.963,7.242,7.047,7.368,7.132Z"></path>
</symbol>

<symbol id="give-money" viewBox="0 0 16 16">
  <title>give-money</title><path d="M8,0a8,8,0,1,0,8,8A8,8,0,0,0,8,0ZM8,14.118A6.118,6.118,0,1,1,14.118,8,6.118,6.118,0,0,1,8,14.118Z"></path><path d="M9.591,7.871a3.391,3.391,0,0,0-.726-.352c-.255-.091-.5-.175-.725-.254a4.592,4.592,0,0,1-.56-.234.34.34,0,0,1-.217-.293q0-.45.715-.45a2.034,2.034,0,0,1,.746.127,3.156,3.156,0,0,1,.694.362h0l.757-.821a2.952,2.952,0,0,0-.726-.518,2.61,2.61,0,0,0-.932-.283V4.324H7.6v.841A2.283,2.283,0,0,0,6.357,5.7,1.374,1.374,0,0,0,5.9,6.757a1.258,1.258,0,0,0,.218.753,2.034,2.034,0,0,0,.56.508,3.918,3.918,0,0,0,.735.342q.394.137.726.264a3.082,3.082,0,0,1,.56.263.4.4,0,0,1,.228.342.361.361,0,0,1-.2.323,1.133,1.133,0,0,1-.57.117,2.831,2.831,0,0,1-.943-.156,6.812,6.812,0,0,1-.933-.45l-.663.977a3.325,3.325,0,0,0,.932.528,4.262,4.262,0,0,0,1.047.244V11.8H8.617V10.783A2.307,2.307,0,0,0,9.933,10.2a1.5,1.5,0,0,0,.445-1.075,1.2,1.2,0,0,0-.228-.743A1.849,1.849,0,0,0,9.591,7.871Z"></path>
</symbol>

<symbol id="giving-o" viewBox="0 0 16 16">
  <title>giving-o</title><path d="M7.4,10.042l.19.185.148.126h0a.378.378,0,0,0,.478.009l.172-.135.126-.119c1.237-1.173,2.044-1.937,2.044-2.885a1.412,1.412,0,0,0-1.4-1.436A1.563,1.563,0,0,0,8,6.342a1.455,1.455,0,0,0-1.149-.555,1.392,1.392,0,0,0-1.4,1.436C5.447,8.153,6.224,8.907,7.4,10.042Z"></path><path d="M15.623,2.723H.377l-.039,0a.385.385,0,0,0-.15.049.378.378,0,0,0-.18.25A.384.384,0,0,0,0,3.1v9.8H0a.379.379,0,0,0,.377.377H15.623A.377.377,0,0,0,16,12.9V3.1A.377.377,0,0,0,15.623,2.723ZM3.179,4.584A1.319,1.319,0,0,1,1.86,5.9H.565V3.289H3.179ZM.565,10.1h1.3a1.319,1.319,0,0,1,1.319,1.319v1.3H.565Zm3.18,1.319A1.885,1.885,0,0,0,1.86,9.532H.565V6.468h1.3A1.885,1.885,0,0,0,3.745,4.584V3.289h8.51V4.584A1.885,1.885,0,0,0,14.14,6.468h1.3V9.532H14.14a1.885,1.885,0,0,0-1.885,1.884v1.3H3.745ZM15.435,5.9H14.14a1.319,1.319,0,0,1-1.319-1.319h0V3.289h2.614Zm-2.614,5.513A1.319,1.319,0,0,1,14.14,10.1h1.3v2.614H12.821Z"></path>
</symbol>

<symbol id="giving" viewBox="0 0 16 16">
  <title>giving</title><path d="M15.623,2.723H.377A.377.377,0,0,0,0,3.1v9.8a.377.377,0,0,0,.377.377H15.623A.377.377,0,0,0,16,12.9V3.1A.377.377,0,0,0,15.623,2.723Zm-.754,3.745H14.14a1.885,1.885,0,0,1-1.885-1.884v-.73h2.614Zm0,5.678H12.255v-.73A1.885,1.885,0,0,1,14.14,9.532h.729ZM1.131,9.532H1.86a1.885,1.885,0,0,1,1.885,1.884v.73H1.131Zm0-3.064V3.854H3.745v.73A1.885,1.885,0,0,1,1.86,6.468Zm6.16,3.647v0c-1.211-1.167-2.013-1.942-2.013-2.9A1.434,1.434,0,0,1,6.728,5.739a1.508,1.508,0,0,1,1.187.57A1.618,1.618,0,0,1,9.1,5.739a1.455,1.455,0,0,1,1.451,1.476c0,.974-.834,1.76-2.113,2.965l-.129.123-.187.146h0a.378.378,0,0,1-.476-.009L7.486,10.3Z"></path>
</symbol>

<symbol id="globe" viewBox="0 0 16 16">
  <title>globe</title><path d="M8,0a8,8,0,1,0,8,8A8,8,0,0,0,8,0Zm5.743,5.368H11.851a11.451,11.451,0,0,0-.805-2.775c-.026-.057-.052-.114-.079-.17A6.341,6.341,0,0,1,13.743,5.368ZM6.49,3.284c.559-1.242,1.158-1.6,1.51-1.6s.951.358,1.51,1.6a9.484,9.484,0,0,1,.63,2.084H5.86A9.484,9.484,0,0,1,6.49,3.284ZM1.819,9.305A6.369,6.369,0,0,1,1.684,8a6.292,6.292,0,0,1,.071-.947H3.964Q3.937,7.52,3.937,8c0,.443.017.879.051,1.3Zm.616,1.685H4.214a11.131,11.131,0,0,0,.74,2.417c.026.057.052.114.079.17A6.354,6.354,0,0,1,2.435,10.99Zm2.519-8.4a11.451,11.451,0,0,0-.8,2.775H2.257A6.338,6.338,0,0,1,5.034,2.423C5.006,2.479,4.98,2.536,4.954,2.593ZM9.51,12.716c-.559,1.242-1.158,1.6-1.51,1.6s-.951-.358-1.51-1.6a9.072,9.072,0,0,1-.556-1.726h4.132A9.072,9.072,0,0,1,9.51,12.716Zm.813-3.411H5.678c-.037-.42-.057-.856-.057-1.3q0-.485.03-.947h4.7q.03.462.03.947C10.379,8.449,10.359,8.885,10.323,9.305Zm.644,4.272c.027-.056.053-.113.079-.17a11.076,11.076,0,0,0,.74-2.417h1.779A6.354,6.354,0,0,1,10.967,13.577Zm1.046-4.272c.033-.426.05-.862.05-1.3q0-.48-.026-.947h2.208A6.292,6.292,0,0,1,14.316,8a6.369,6.369,0,0,1-.135,1.3Z"></path>
</symbol>

<symbol id="groups-o" viewBox="0 0 16 16">
  <title>groups-o</title><path d="M8,11.9a2.051,2.051,0,1,0,2.05,2.051A2.05,2.05,0,0,0,8,11.9Zm0,3.266A1.216,1.216,0,1,1,9.216,13.95,1.215,1.215,0,0,1,8,15.165Z"></path><path d="M2.669,2.878a2.051,2.051,0,1,0,2.05,2.05A2.05,2.05,0,0,0,2.669,2.878Zm0,3.266A1.216,1.216,0,1,1,3.885,4.928,1.215,1.215,0,0,1,2.669,6.144Z"></path><path d="M13.331,6.979a2.051,2.051,0,1,0-2.05-2.051A2.05,2.05,0,0,0,13.331,6.979Zm0-3.266a1.216,1.216,0,1,1-1.216,1.215A1.216,1.216,0,0,1,13.331,3.713Z"></path><path d="M4.7,1.8a6.148,6.148,0,0,1,6.6,0,.417.417,0,0,0,.449-.7,6.982,6.982,0,0,0-7.495,0,.417.417,0,0,0,.448.7Z"></path><path d="M14.971,7.791a.418.418,0,0,0-.417.418,6.137,6.137,0,0,1-2.688,5.08.417.417,0,0,0,.47.69,6.97,6.97,0,0,0,3.053-5.77A.418.418,0,0,0,14.971,7.791Z"></path><path d="M1.446,8.209a.418.418,0,1,0-.835,0,6.97,6.97,0,0,0,3.053,5.77.417.417,0,1,0,.47-.69A6.137,6.137,0,0,1,1.446,8.209Z"></path>
</symbol>

<symbol id="groups" viewBox="0 0 16 16">
  <title>groups</title><path d="M8,11.9a2.051,2.051,0,1,0,2.05,2.051A2.05,2.05,0,0,0,8,11.9Z"></path><path d="M1.446,8.209a.418.418,0,1,0-.835,0,6.97,6.97,0,0,0,3.053,5.77.417.417,0,1,0,.47-.69A6.137,6.137,0,0,1,1.446,8.209Z"></path><path d="M14.971,7.791a.418.418,0,0,0-.417.418,6.137,6.137,0,0,1-2.688,5.08.417.417,0,0,0,.47.69,6.97,6.97,0,0,0,3.053-5.77A.418.418,0,0,0,14.971,7.791Z"></path><path d="M4.7,1.8a6.148,6.148,0,0,1,6.6,0,.417.417,0,1,0,.448-.7,6.982,6.982,0,0,0-7.495,0,.417.417,0,0,0,.449.7Z"></path><circle cx="2.669" cy="4.928" r="2.05"></circle><path d="M13.331,6.978a2.05,2.05,0,1,0-2.05-2.05A2.05,2.05,0,0,0,13.331,6.978Z"></path>
</symbol>

<symbol id="home-o" viewBox="0 0 16 16">
  <title>home-o</title><path d="M14.832,5.84l-6-5.518a1.226,1.226,0,0,0-1.656,0l-6,5.518a1.224,1.224,0,0,0-.4.9v8.036A1.224,1.224,0,0,0,2,16H5.109a1.224,1.224,0,0,0,1.223-1.223V11.621a1.668,1.668,0,1,1,3.336,0v3.156A1.224,1.224,0,0,0,10.891,16h3.114a1.224,1.224,0,0,0,1.223-1.223V6.741A1.224,1.224,0,0,0,14.832,5.84Zm-.271,8.937a.556.556,0,0,1-.556.556H10.891a.556.556,0,0,1-.556-.556V11.621a2.335,2.335,0,0,0-4.67,0v3.156a.556.556,0,0,1-.556.556H2a.556.556,0,0,1-.556-.556V6.741a.556.556,0,0,1,.18-.409L7.624.814a.554.554,0,0,1,.752,0l6.005,5.518a.556.556,0,0,1,.18.409Z"></path>
</symbol>

<symbol id="home" viewBox="0 0 16 16">
  <title>home</title><path d="M14.894,6,8.628.245a.927.927,0,0,0-1.256,0L1.106,6a.93.93,0,0,0-.3.684h0v8.386A.928.928,0,0,0,1.734,16H4.983a.928.928,0,0,0,.928-.928V11.779a2.089,2.089,0,0,1,4.178,0v3.293a.928.928,0,0,0,.928.928h3.249a.929.929,0,0,0,.928-.928V6.686A.93.93,0,0,0,14.894,6Z"></path>
</symbol>

<symbol id="location-arrow" viewBox="0 0 16 16">
  <title>location-arrow</title><path d="M14.773.07h0L.547,5.956a.887.887,0,0,0,0,1.637L6.1,9.9l2.312,5.55a.887.887,0,0,0,1.637,0L15.93,1.227A.885.885,0,0,0,14.773.07Z"></path>
</symbol>

<symbol id="message-circle" viewBox="0 0 16 16">
  <title>message-circle</title><path d="M8,7.158A.842.842,0,1,0,8.842,8,.842.842,0,0,0,8,7.158Z"></path><path d="M5.053,7.158A.842.842,0,1,0,5.9,8,.842.842,0,0,0,5.053,7.158Z"></path><path d="M16,8a8,8,0,1,0-3.642,6.71l3.138.757-.819-3.058A7.972,7.972,0,0,0,16,8Zm-2.864,5.165-1.124-.271-.314.227A6.317,6.317,0,0,1,1.684,8h0a6.316,6.316,0,1,1,11.4,3.748l-.241.326Z"></path><circle cx="10.947" cy="8" r="0.842"></circle>
</symbol>

<symbol id="paste" viewBox="0 0 16 16">
  <title>paste</title><rect x="8.174" y="8.522" width="4" height="1.391"></rect><rect x="8.174" y="10.783" width="4" height="1.391"></rect><path d="M14.261,4.87H11.478V2.435a1.392,1.392,0,0,0-1.391-1.392H7.261a1.393,1.393,0,0,0-2.7,0H1.739A1.392,1.392,0,0,0,.348,2.435v8.348a1.391,1.391,0,0,0,1.391,1.391H4.522v2.435A1.391,1.391,0,0,0,5.913,16h8.348a1.391,1.391,0,0,0,1.391-1.391V6.261A1.391,1.391,0,0,0,14.261,4.87ZM4.522,6.261v4.522H1.739V2.435H3.478V3.13h4.87V2.435h1.739V4.87H5.913A1.391,1.391,0,0,0,4.522,6.261Zm9.739,8.348H5.913V6.261h8.348Z"></path>
</symbol>

<symbol id="people" viewBox="0 0 16 16">
  <title>people</title><path d="M5.1,7.357A2.207,2.207,0,0,0,7.3,5.182a2.2,2.2,0,0,0-4.4,0A2.207,2.207,0,0,0,5.1,7.357Z"></path><path d="M10.9,7.357a2.207,2.207,0,0,0,2.2-2.175,2.2,2.2,0,0,0-4.4,0A2.207,2.207,0,0,0,10.9,7.357Z"></path><path d="M5.1,8.742c-1.7,0-5.1.89-5.1,2.472v1.78H10.2v-1.78C10.2,9.632,6.8,8.742,5.1,8.742Z"></path><path d="M10.9,8.742h-.7a3.038,3.038,0,0,1,1.4,2.472v1.78H16v-1.78C16,9.632,12.6,8.742,10.9,8.742Z"></path>
</symbol>

<symbol id="photos-android" viewBox="0 0 16 16">
  <title>photos-android</title><path d="M14.948,2.213H1.052A1.052,1.052,0,0,0,0,3.265v9.47a1.052,1.052,0,0,0,1.052,1.052h13.9A1.052,1.052,0,0,0,16,12.735V3.265A1.052,1.052,0,0,0,14.948,2.213Zm-.65,9.532H1.7L5.277,8l1.938,2.031,2.828-3.393h0Z"></path>
</symbol>

<symbol id="photos-ios" viewBox="0 0 16 16">
  <title>photos-ios</title><path d="M5.189,7.351a1.73,1.73,0,1,0-1.73-1.729A1.73,1.73,0,0,0,5.189,7.351Z"></path><path d="M14.968,0H1.032A1.032,1.032,0,0,0,0,1.032V14.968A1.032,1.032,0,0,0,1.032,16H14.968A1.032,1.032,0,0,0,16,14.968V1.032A1.032,1.032,0,0,0,14.968,0ZM13.935,10.087,9.513,8.216,2.064,12.137V2.065H13.935Z"></path>
</symbol>

<symbol id="profile-o" viewBox="0 0 16 16">
  <title>profile-o</title><circle cx="8" cy="6.833" r="2.5"></circle><path d="M8,0a8,8,0,1,0,8,8A8,8,0,0,0,8,0Zm4.474,12A7.6,7.6,0,0,0,8,10.583,7.6,7.6,0,0,0,3.526,12a6,6,0,1,1,8.948,0Z"></path>
</symbol>

<symbol id="profile" viewBox="0 0 16 16">
  <title>profile</title><path d="M8,0a8,8,0,1,0,8,8A8,8,0,0,0,8,0Zm.076,4.571A2.515,2.515,0,1,1,5.562,7.086,2.537,2.537,0,0,1,8.076,4.571Zm0,9.372a5.731,5.731,0,0,1-4.266-1.9,7.99,7.99,0,0,1,4.266-1.219,8.452,8.452,0,0,1,4.267,1.219A5.735,5.735,0,0,1,8.076,13.943Z"></path>
</symbol>

<symbol id="radio-button-off" viewBox="0 0 16 16">
  <title>radio-button-off</title><path d="M8,0a8,8,0,1,0,8,8A8,8,0,0,0,8,0ZM8,15.294A7.294,7.294,0,1,1,15.294,8,7.294,7.294,0,0,1,8,15.294Z"></path>
</symbol>

<symbol id="registrations-o" viewBox="0 0 16 16">
  <title>registrations-o</title><path d="M6.21,10.826l-.228,1.062a.571.571,0,0,0,.838.618l.982-.55.983.55a.571.571,0,0,0,.838-.618L9.4,10.826l.809-.715a.571.571,0,0,0-.318-1L8.787,9,8.322,7.987a.572.572,0,0,0-1.039,0h0L6.818,9l-1.1.117a.571.571,0,0,0-.319,1Z"></path><path d="M14.857,1.714H13V0h-.857V1.714H3.857V0H3V1.714H1.143a.572.572,0,0,0-.572.572V15.428A.572.572,0,0,0,1.143,16H14.857a.572.572,0,0,0,.572-.572V2.286A.572.572,0,0,0,14.857,1.714Zm-.286,13.429H1.429V6.286H14.571Zm0-9.715H1.429V2.571H14.571Z"></path>
</symbol>

<symbol id="registrations" viewBox="0 0 16 16">
  <title>registrations</title><path d="M14.857,1.714H13V0h-.857V1.714H3.857V0H3V1.714H1.143a.572.572,0,0,0-.572.572V5.429H15.429V2.286A.572.572,0,0,0,14.857,1.714Z"></path><path d="M.571,15.429A.572.572,0,0,0,1.143,16H14.857a.572.572,0,0,0,.572-.571V6.286H.571ZM5.719,9.115,6.818,9l.465-1.012a.571.571,0,0,1,1.038,0L8.787,9l1.1.116a.571.571,0,0,1,.318,1l-.809.716.228,1.061a.571.571,0,0,1-.838.618l-.983-.55-.982.55a.571.571,0,0,1-.838-.618l.228-1.061-.81-.716A.571.571,0,0,1,5.719,9.115Z"></path>
</symbol>

<symbol id="share-android" viewBox="0 0 16 16">
  <title>share-android</title><path d="M12.574,10.93a2.527,2.527,0,0,0-1.866.82L5.778,8.9a2.517,2.517,0,0,0,.183-.945A2.552,2.552,0,0,0,5.9,7.381L10.937,4.47a2.537,2.537,0,1,0-.829-1.349L5.071,6.029a2.534,2.534,0,1,0-.336,4.1l5.318,3.07a2.6,2.6,0,0,0-.014.266,2.535,2.535,0,1,0,2.535-2.535Z"></path>
</symbol>

<symbol id="share-ios" viewBox="0 0 16 16">
  <title>share-ios</title><polygon points="7.229 2.997 7.229 9.446 8.797 9.446 8.797 3.004 9.732 3.939 10.84 2.831 8.01 0 5.179 2.831 6.288 3.939 7.229 2.997"></polygon><path d="M11.923,5.02H10.128V6.587h1.8v7.845H4.077V6.587h1.8V5.02H4.077A1.567,1.567,0,0,0,2.51,6.587v7.845A1.568,1.568,0,0,0,4.077,16h7.846a1.568,1.568,0,0,0,1.567-1.568V6.587A1.567,1.567,0,0,0,11.923,5.02Z"></path>
</symbol>
    </svg>