<svg xmlns="http://www.w3.org/2000/svg" xmlns:xlink="http://www.w3.org/1999/xlink">
    
<symbol id="color-accounts-app" class="symbol" viewBox="0 0 32 32">
  <defs><style>.cls-1{fill:url(#linear-gradient);}.cls-2{fill:#fff;fill-rule:evenodd;}</style><linearGradient id="linear-gradient" x1="4.17919" y1="4.17922" x2="27.54027" y2="27.5403" gradientTransform="translate(4.10407 -3.24803) rotate(13.28255)" gradientUnits="userSpaceOnUse"><stop offset="0" stop-color="#32a0f0"/><stop offset="1" stop-color="#3f75e5"/></linearGradient></defs><title>color-accounts-app</title><g id="New"><circle class="cls-1" cx="15.99998" cy="15.99998" r="14.27544" transform="translate(-3.24803 4.10407) rotate(-13.28255)"/><path id="SVGID" class="cls-2" d="M16.00156,18.725A2.725,2.725,0,1,1,18.72659,16,2.728,2.728,0,0,1,16.00156,18.725Zm5.23313-2.03479a4.85661,4.85661,0,0,0,0-1.38048l1.48613-1.16214a.35532.35532,0,0,0,.08452-.45076l-1.40865-2.437a.354.354,0,0,0-.42964-.155l-1.75377.70432A5.14578,5.14578,0,0,0,18.023,11.119l-.26764-1.86647a.34345.34345,0,0,0-.34512-.29581h-2.8173a.34344.34344,0,0,0-.34512.29581L13.98014,11.119a5.4114,5.4114,0,0,0-1.19031.69023l-1.75377-.70432a.34357.34357,0,0,0-.42964.155l-1.40865,2.437a.34723.34723,0,0,0,.08452.45076l1.48613,1.16214a4.85661,4.85661,0,0,0,0,1.38048L9.28229,17.85238a.35532.35532,0,0,0-.08452.45076l1.40865,2.437a.354.354,0,0,0,.42964.15495l1.75377-.70432a5.14578,5.14578,0,0,0,1.19031.69023l.26765,1.86647a.34344.34344,0,0,0,.34512.29581h2.8173a.34345.34345,0,0,0,.34512-.29581L18.023,20.881a5.4114,5.4114,0,0,0,1.19031-.69023l1.75377.70432a.34357.34357,0,0,0,.42964-.15495l1.40865-2.437a.35532.35532,0,0,0-.08452-.45076Z"/></g>
</symbol>

<symbol id="color-accounts-badge" class="symbol" viewBox="0 0 135 32">
  <defs><style>.cls-1{fill:url(#linear-gradient);}.cls-2{fill:#fff;fill-rule:evenodd;}.cls-3{fill:#333132;}</style><linearGradient id="linear-gradient" x1="2.2315" y1="5.25383" x2="23.46885" y2="26.49118" gradientTransform="translate(4.02322 -2.55365) rotate(13.28255)" gradientUnits="userSpaceOnUse"><stop offset="0" stop-color="#32a0f0"/><stop offset="1" stop-color="#3f75e5"/></linearGradient></defs><title>color-accounts-badge</title><g id="New"><circle class="cls-1" cx="12.97768" cy="15.99998" r="12.97767" transform="translate(-3.32888 3.40968) rotate(-13.28255)"/><path id="SVGID" class="cls-2" d="M12.97911,18.4773A2.4773,2.4773,0,1,1,15.45641,16,2.48,2.48,0,0,1,12.97911,18.4773Zm4.75739-1.84981a4.41491,4.41491,0,0,0,0-1.255l1.351-1.05649a.323.323,0,0,0,.07683-.40979l-1.28059-2.21542a.32183.32183,0,0,0-.39058-.14087l-1.59434.6403a4.67779,4.67779,0,0,0-1.0821-.62749L14.57344,9.866A.31223.31223,0,0,0,14.2597,9.597H11.69851a.31223.31223,0,0,0-.31374.26893l-.24331,1.69678a4.91928,4.91928,0,0,0-1.0821.62749L8.465,11.54994a.31234.31234,0,0,0-.39058.14087L6.79385,13.90623a.31567.31567,0,0,0,.07684.40979l1.351,1.05649a4.41491,4.41491,0,0,0,0,1.255L6.87069,17.684a.323.323,0,0,0-.07684.40979l1.28059,2.21542a.32183.32183,0,0,0,.39058.14086l1.59434-.64029a4.67779,4.67779,0,0,0,1.0821.62749l.24331,1.69678a.31223.31223,0,0,0,.31374.26893H14.2597a.31223.31223,0,0,0,.31374-.26893l.24331-1.69678a4.91928,4.91928,0,0,0,1.0821-.62749l1.59434.64029a.31233.31233,0,0,0,.39058-.14086l1.28059-2.21542a.323.323,0,0,0-.07683-.40979Z"/><path class="cls-3" d="M38.62668,8.64453a14.01351,14.01351,0,0,0-4.5039.73633.73386.73386,0,0,0-.51367.93164l.251,1.06348a.74879.74879,0,0,0,.916.64257,13.1662,13.1662,0,0,1,3.57031-.61035,1.83928,1.83928,0,0,1,1.38281.45362,2.99134,2.99134,0,0,1,.543,2.1665,9.99988,9.99988,0,0,0-2.458-.34375c-3.2373,0-5.33007,1.69629-5.33007,4.32178a4.15955,4.15955,0,0,0,4.32226,4.46142A5.69412,5.69412,0,0,0,40.7175,20.959l.23438.66065c.13476.32471.30078.54053.66992.54053h.92481a.7863.7863,0,0,0,.76562-.76612V14.50635C43.31223,11.29932,42.95969,8.64453,38.62668,8.64453ZM37.39426,19.87207A1.74406,1.74406,0,0,1,35.529,17.978c0-1.18311,1.00781-1.978,2.50879-1.978a6.32272,6.32272,0,0,1,2.20214.38818v2.023A3.88225,3.88225,0,0,1,37.39426,19.87207Z"/><path class="cls-3" d="M55.76926,17.88916a.73961.73961,0,0,0-1.06347.0625c-.1045.0957-.208.19824-.31348.30371a3.40972,3.40972,0,0,1-2.63672,1.25342,3.79308,3.79308,0,0,1-3.68652-3.96631,3.81607,3.81607,0,0,1,3.7705-3.938,3.77634,3.77634,0,0,1,2.55469,1.24561c.21582.21484.57813.57324,1.04688.14258l1.00683-.92286a.78639.78639,0,0,0,.127-1.12939,5.7965,5.7965,0,0,0-4.81934-2.2959,6.865,6.865,0,0,0-6.78711,6.92529,6.75663,6.75663,0,0,0,6.75879,6.898,6.034,6.034,0,0,0,5.165-2.75439c.16894-.25391.26367-.6543-.25586-1.12354Z"/><path class="cls-3" d="M68.31809,17.88916a.74128.74128,0,0,0-1.06348.0625c-.10449.0957-.208.19824-.31347.30371a3.40972,3.40972,0,0,1-2.63672,1.25342,3.79292,3.79292,0,0,1-3.68555-3.96631,3.81527,3.81527,0,0,1,3.76953-3.938,3.77261,3.77261,0,0,1,2.55371,1.24414c.2168.21631.57618.57813,1.04785.14405l1.00684-.92286a.787.787,0,0,0,.12793-1.12988,5.80041,5.80041,0,0,0-4.82031-2.29541,6.86483,6.86483,0,0,0-6.78613,6.92529,6.75643,6.75643,0,0,0,6.75781,6.898,6.03228,6.03228,0,0,0,5.165-2.7539c.16894-.25391.26367-.65381-.25489-1.124Z"/><path class="cls-3" d="M76.79758,8.64453A6.91405,6.91405,0,1,0,83.528,15.51416,6.90578,6.90578,0,0,0,76.79758,8.64453Zm3.68553,6.86963a3.71014,3.71014,0,1,1-7.39842,0,3.70488,3.70488,0,1,1,7.39842,0Z"/><path class="cls-3" d="M95.78391,8.9248H94.35618c-.44434,0-.87793.05909-.87793.76514l.00293,7.8125a3.06148,3.06148,0,0,1-2.877,2.00635c-1.61621,0-2.36914-.93115-2.36914-2.93018V9.68994a.786.786,0,0,0-.7666-.76514H85.90012a.80695.80695,0,0,0-.7666.76514v6.69238c0,2.8335.56445,6.08545,4.9668,6.08545a5.30511,5.30511,0,0,0,4.03027-1.63427l.25293.6958c.11328.312.28906.63086.72852.63086h.67187a.80173.80173,0,0,0,.79492-.76612V9.68994A.81136.81136,0,0,0,95.78391,8.9248Z"/><path class="cls-3" d="M105.81907,8.64453a6.09084,6.09084,0,0,0-4.28028,1.65967l-.30568-.87012a.64289.64289,0,0,0-.67772-.50928h-.67187a.786.786,0,0,0-.7666.76514V21.394a.76718.76718,0,0,0,.7666.76612h1.42773c.60938,0,.90625-.25049.90625-.76612V13.36328a3.8181,3.8181,0,0,1,3.26561-1.75879c1.54592,0,2.39748,1.13037,2.39748,3.18213V21.394a.77679.77679,0,0,0,.7666.76612h1.56738a.78648.78648,0,0,0,.76661-.76612V14.898C110.98118,10.68994,109.2927,8.64453,105.81907,8.64453Z"/><path class="cls-3" d="M120.93039,19.26562a.72205.72205,0,0,0-.4121-.43457.66227.66227,0,0,0-.55958.082,4.21436,4.21436,0,0,1-1.99609.5957c-.4668,0-.88574-.08936-.88574-1.1665v-6.7378h3.26562a.78648.78648,0,0,0,.76661-.76611V9.68994a.75775.75775,0,0,0-.76661-.76514h-3.26562V5.4624a.74447.74447,0,0,0-.73828-.76611h-1.59571a.7768.7768,0,0,0-.7666.76611V8.9248h-1.334a.74043.74043,0,0,0-.76563.76514v1.14844a.76764.76764,0,0,0,.76563.76611h1.334v6.8501c0,1.86865.38965,4.01318,3.42676,4.01318a7.92022,7.92022,0,0,0,3.66406-.94726.72074.72074,0,0,0,.36719-.936Z"/><path class="cls-3" d="M127.39329,14.1167c-1.376-.59863-2.1211-1.05762-2.1211-1.7666,0-.49658.46387-.99756,1.502-.99756a6.55015,6.55015,0,0,1,2.71094.63086.75417.75417,0,0,0,1.03516-.32227l.44726-.89551a.91769.91769,0,0,0-.33105-1.14453,7.41954,7.41954,0,0,0-3.86231-.97656c-3.06347,0-4.43457,1.84717-4.43457,3.67822,0,2.291,1.72461,3.38428,3.58887,4.22461,1.81836.82373,2.6836,1.34815,2.6836,2.10254,0,.68506-.59668,1.11084-1.55762,1.11084a5.83707,5.83707,0,0,1-3.09766-.90576l-.04785-.02588a.81934.81934,0,0,0-.6543-.09814.64032.64032,0,0,0-.3955.32959l-.58692,1.20312a.677.677,0,0,0,.27149.86084l.002.00147a7.69085,7.69085,0,0,0,4.34082,1.34179c3.13086,0,4.76953-1.97656,4.76953-3.9292C131.656,16.104,129.9675,15.207,127.39329,14.1167Z"/></g>
</symbol>

<symbol id="color-api-app" class="symbol" viewBox="0 0 32 32">
  <defs><style>.cls-1{fill:#3f75e5;}.cls-2{fill:#fff;}</style></defs><title>color-api-app</title><g id="New"><circle class="cls-1" cx="15.99998" cy="16" r="14.27544" transform="translate(-2.35632 2.76952) rotate(-9.21748)"/><path class="cls-2" d="M17.826,19.20648a4.19455,4.19455,0,0,0,.297-1.232l2.101-.33-.363-2.332-2.101.319a4.59948,4.59948,0,0,0-1.573-1.98l.759-1.969-2.2-.858-.759,1.969a4.67683,4.67683,0,0,0-2.519.385l-1.32-1.65L8.3,13.01347l1.32,1.65a4.69628,4.69628,0,0,0-.60505,1.111,4.53655,4.53655,0,0,0-.319,1.452l-2.134.319.363,2.42,2.266-.352a4.68018,4.68018,0,0,0,1.463,1.716l-.77,1.98,2.211.869.76995-1.991a4.6989,4.6989,0,0,0,2.497-.374l1.32,1.661,1.848-1.485-1.32-1.672A4.36061,4.36061,0,0,0,17.826,19.20648Zm-1.815-.70395a2.77917,2.77917,0,1,1-1.584-3.597A2.79069,2.79069,0,0,1,16.011,18.50253Zm8.415-6.171a2.186,2.186,0,0,0,.05505-.539,2.96544,2.96544,0,0,0-1.98005-2.794V7.8215h-1.98v1.177a2.96547,2.96547,0,0,0-1.98,2.794,2.8917,2.8917,0,0,0,.055.539l-1.012.594.99,1.716,1.01205-.583a2.96358,2.96358,0,0,0,3.861,0l1.001.583.99-1.716Zm-2.915.946a1.485,1.485,0,1,1,1.485-1.485A1.47889,1.47889,0,0,1,21.511,13.27753Z"/></g>
</symbol>

<symbol id="color-api-badge" class="symbol" viewBox="0 0 186.75 32">
  <defs><style>.cls-1{fill:#3f75e5;}.cls-2{fill:#fff;}.cls-3{fill:#333132;}</style></defs><title>color-api-badge</title><g id="New"><circle class="cls-1" cx="12.97768" cy="15.99042" r="12.97768" transform="translate(-2.39381 2.28527) rotate(-9.21748)"/><path class="cls-2" d="M14.37061,19.09247a3.81354,3.81354,0,0,0,.27-1.12l1.91-.3-.33-2.12-1.91.29a4.18148,4.18148,0,0,0-1.43-1.8l.69-1.79-2-.78-.69,1.79a4.25174,4.25174,0,0,0-2.29.35l-1.2-1.5-1.68,1.35,1.2,1.5a4.26908,4.26908,0,0,0-.55005,1.01,4.124,4.124,0,0,0-.29,1.32l-1.94.29.33,2.2,2.06-.32a4.25473,4.25473,0,0,0,1.33,1.56l-.7,1.80005,2.01.79.69995-1.81a4.27166,4.27166,0,0,0,2.27-.34l1.2,1.51,1.68-1.35-1.2-1.52A3.96423,3.96423,0,0,0,14.37061,19.09247Zm-1.65-.64a2.52653,2.52653,0,1,1-1.44-3.27A2.537,2.537,0,0,1,12.72065,18.45251Zm7.65-5.61a1.98707,1.98707,0,0,0,.05005-.49,2.69585,2.69585,0,0,0-1.80005-2.54v-1.07h-1.8v1.07a2.69588,2.69588,0,0,0-1.8,2.54,2.62826,2.62826,0,0,0,.05.49l-.92.54.9,1.56.92-.53a2.69419,2.69419,0,0,0,3.51,0l.91.53.9-1.56Zm-2.65.86a1.35,1.35,0,1,1,1.35-1.35A1.34445,1.34445,0,0,1,17.72065,13.70251Z"/><path class="cls-3" d="M44.53391,3.93848h-1.5957a.80738.80738,0,0,0-.7666.76562v5.50781A8.9312,8.9312,0,0,0,39.074,9.60156c-3.64551,0-6.39453,2.96582-6.39453,6.89844,0,3.88379,2.66113,6.92578,6.05859,6.92578a6.34211,6.34211,0,0,0,4.18262-1.6875l.208.70606a.769.769,0,0,0,.7334.67382h.67187a.77754.77754,0,0,0,.7666-.7666V4.7041A.78673.78673,0,0,0,44.53391,3.93848Zm-2.334,9.31836v5.4248a3.56578,3.56578,0,0,1-3.06934,1.78418c-1.87891,0-3.34961-1.74219-3.34961-3.96582a3.785,3.785,0,0,1,3.60156-3.9375A6.413,6.413,0,0,1,42.19993,13.25684Z"/><path class="cls-3" d="M53.67551,9.60156A6.60127,6.60127,0,0,0,47.08567,16.5c0,4.0127,2.7832,6.92578,6.61816,6.92578A7.418,7.418,0,0,0,58.58957,21.794a.66445.66445,0,0,0,.084-1.06348l-.75684-1.17774a.60593.60593,0,0,0-.38281-.28613.80369.80369,0,0,0-.585.19141,4.85412,4.85412,0,0,1-3.07715,1.06347,3.66267,3.66267,0,0,1-3.708-3.22753h8.77637a.7524.7524,0,0,0,.73633-.69141c.0293-.22754.05762-.68066.05762-.915A5.9389,5.9389,0,0,0,53.67551,9.60156Zm-.05566,2.68067a2.89669,2.89669,0,0,1,3.03222,2.63965H50.321A3.13367,3.13367,0,0,1,53.61985,12.28223Z"/><path class="cls-3" d="M72.43918,10.19238a.7063.7063,0,0,0-.6416-.31054H70.53782c-.373,0-.7959,0-1.00489.45117L66.032,18.0127l-3.34082-7.68458a.70518.70518,0,0,0-.69336-.44628h-1.708a.70632.70632,0,0,0-.6416.31054.63273.63273,0,0,0,.03125.63574L65.28,23.00684a.76569.76569,0,0,0,.69336.41894h.168a.73019.73019,0,0,0,.669-.42383L72.403,10.834A.63318.63318,0,0,0,72.43918,10.19238Z"/><path class="cls-3" d="M78.87766,9.60156A6.60126,6.60126,0,0,0,72.28782,16.5c0,4.0127,2.7832,6.92578,6.61816,6.92578A7.418,7.418,0,0,0,83.79172,21.794a.66445.66445,0,0,0,.084-1.06348l-.75684-1.17774a.60593.60593,0,0,0-.38281-.28613.80229.80229,0,0,0-.585.19141A4.85414,4.85414,0,0,1,79.074,20.52148a3.66267,3.66267,0,0,1-3.708-3.22753h8.77637a.7524.7524,0,0,0,.73633-.69141c.02929-.22754.05761-.68066.05761-.915A5.93889,5.93889,0,0,0,78.87766,9.60156ZM78.822,12.28223a2.89669,2.89669,0,0,1,3.03222,2.63965H75.52317A3.13367,3.13367,0,0,1,78.822,12.28223Z"/><path class="cls-3" d="M87.43332,3.93848h1.56836a.7666.7666,0,0,1,.7666.7666V22.35156a.7666.7666,0,0,1-.7666.7666H87.43332a.76563.76563,0,0,1-.76562-.76562V4.7041a.76562.76562,0,0,1,.76562-.76562Z"/><path class="cls-3" d="M98.31223,9.60156a6.91456,6.91456,0,1,0,6.73047,6.87012A6.907,6.907,0,0,0,98.31223,9.60156Zm3.68555,6.87012a3.71056,3.71056,0,1,1-7.39942,0,3.70532,3.70532,0,1,1,7.39942,0Z"/><path class="cls-3" d="M113.23606,9.60156a6.18449,6.18449,0,0,0-4.00195,1.43262l-.25391-.63281a.67726.67726,0,0,0-.7002-.51953h-.70019a.78672.78672,0,0,0-.7666.76562V28.2959a.77754.77754,0,0,0,.7666.7666h1.56836a.754.754,0,0,0,.82226-.7666V22.63574a7.28372,7.28372,0,0,0,3.15332.79c3.56934,0,6.36621-3.042,6.36621-6.92578C119.49,12.63184,116.74289,9.60156,113.23606,9.60156ZM116.38938,16.5a3.768,3.768,0,0,1-3.62988,3.96582,5.33837,5.33837,0,0,1-2.84571-.87988V14.25488a3.4133,3.4133,0,0,1,2.958-1.69238C114.90989,12.5625,116.38938,14.21777,116.38938,16.5Z"/><path class="cls-3" d="M127.157,9.60156A6.602,6.602,0,0,0,120.56614,16.5a6.55559,6.55559,0,0,0,6.61914,6.92578A7.4231,7.4231,0,0,0,132.071,21.794a.665.665,0,0,0,.084-1.06348l-.75683-1.17774a.6066.6066,0,0,0-.38379-.28613.79035.79035,0,0,0-.584.19141,4.85411,4.85411,0,0,1-3.07714,1.06347,3.66266,3.66266,0,0,1-3.708-3.22753h8.77539a.75093.75093,0,0,0,.73633-.69141c.02929-.23145.05859-.68457.05859-.915A5.93889,5.93889,0,0,0,127.157,9.60156Zm-.05567,2.68067a2.8967,2.8967,0,0,1,3.03223,2.63965h-6.332A3.134,3.134,0,0,1,127.10129,12.28223Z"/><path class="cls-3" d="M141.18723,9.60156a5.09477,5.09477,0,0,0-3.86035,1.73926l-.27637-.89453a.74858.74858,0,0,0-.707-.56445h-.67187a.78672.78672,0,0,0-.76661.76562v11.7041a.77755.77755,0,0,0,.76661.7666h1.28808c.416,0,1.0459,0,1.0459-.7666v-8.167a3.5544,3.5544,0,0,1,2.90234-1.62207,3.07469,3.07469,0,0,1,1.10938.23535.70283.70283,0,0,0,.55078.042.75932.75932,0,0,0,.43457-.41992l.67188-1.39844a.67153.67153,0,0,0-.0127-.68164C143.32,9.7959,142.15989,9.60156,141.18723,9.60156Z"/><path class="cls-3" d="M158.35352,3.32812a.803.803,0,0,0-.60938-.39062h-.28027a.806.806,0,0,0-.61328.39551l-8.59473,18.84472a.65972.65972,0,0,0,.02637.64258.6732.6732,0,0,0,.58593.29785h1.76368a.84658.84658,0,0,0,.78027-.50976l1.66894-3.7461H162.043l1.69629,3.7461a.80321.80321,0,0,0,.78027.50976h1.76367a.6732.6732,0,0,0,.58594-.29785.66048.66048,0,0,0,.02734-.6416Zm2.49023,12.8252h-6.53711l3.25488-7.31152Z"/><path class="cls-3" d="M175.36914,3.21777h-6.38379a.68311.68311,0,0,0-.68262.68164V22.43555a.68394.68394,0,0,0,.68262.68261h1.82031a.701.701,0,0,0,.68262-.68261V16.00586h3.90918a6.39408,6.39408,0,1,0-.02832-12.78809Zm3.23828,6.30957a3.3295,3.3295,0,0,1-3.29394,3.4336h-3.8252V6.31836h3.8252A3.2171,3.2171,0,0,1,178.60742,9.52734Z"/><path class="cls-3" d="M184.21875,3.21777h1.84863a.68262.68262,0,0,1,.68262.68262V22.43555a.68262.68262,0,0,1-.68262.68262h-1.84766a.68262.68262,0,0,1-.68262-.68262V3.89941a.68164.68164,0,0,1,.68164-.68164Z"/></g>
</symbol>

<symbol id="color-check-ins-app" class="symbol" viewBox="0 0 32 32">
  <defs><style>.cls-1{fill:url(#linear-gradient);}.cls-2{fill:#fff;}</style><linearGradient id="linear-gradient" x1="4.09468" y1="4.09471" x2="28.59923" y2="28.59926" gradientTransform="translate(4.10407 -3.24803) rotate(13.28255)" gradientUnits="userSpaceOnUse"><stop offset="0" stop-color="#a76ebe"/><stop offset="1" stop-color="#875e96"/></linearGradient></defs><title>color-check-ins-app</title><g id="New"><circle class="cls-1" cx="15.99998" cy="15.99998" r="14.27544" transform="translate(-3.24803 4.10407) rotate(-13.28255)"/><path class="cls-2" d="M22.618,13.4969,15.2597,20.85376a1.6622,1.6622,0,0,1-2.35086,0L9.38178,17.32817a1.66217,1.66217,0,1,1,2.35093-2.35039l2.3516,2.35039,6.18293-6.18173A1.66212,1.66212,0,0,1,22.618,13.4969Z"/></g>
</symbol>

<symbol id="color-check-ins-badge" class="symbol" viewBox="0 0 140 32">
  <defs><style>.cls-1{fill:url(#linear-gradient);}.cls-2{fill:#333132;}.cls-3{fill:#fff;}</style><linearGradient id="linear-gradient" x1="2.15468" y1="5.17701" x2="24.43154" y2="27.45387" gradientTransform="translate(4.02322 -2.55365) rotate(13.28255)" gradientUnits="userSpaceOnUse"><stop offset="0" stop-color="#a76ebe"/><stop offset="1" stop-color="#875e96"/></linearGradient></defs><title>color-check-ins-badge</title><g id="New"><circle class="cls-1" cx="12.97768" cy="15.99998" r="12.97767" transform="translate(-3.32888 3.40968) rotate(-13.28255)"/><path class="cls-2" d="M66.511,9.49887a6.44188,6.44188,0,0,0-6.44043,6.748c0,3.69531,2.54834,6.77539,6.46826,6.77539a7.4097,7.4097,0,0,0,4.78809-1.5957c.3916-.33594.27978-.5879.05566-.86817l-.75586-1.17578c-.22412-.33594-.47607-.252-.75586-.05566a5.02028,5.02028,0,0,1-3.16406,1.09179,3.78077,3.78077,0,0,1-3.86426-3.52832h8.93213a.60356.60356,0,0,0,.58789-.55957c.02832-.22461.05615-.67187.05615-.89648A5.76151,5.76151,0,0,0,66.511,9.49887ZM62.9827,14.81918a3.28487,3.28487,0,0,1,3.47217-2.94043,3.05622,3.05622,0,0,1,3.19189,2.94043Z"/><path class="cls-2" d="M131.59183,14.95883c-1.28809-.56055-2.21192-1.06445-2.21192-1.9043,0-.58789.53223-1.14746,1.65186-1.14746a6.71073,6.71073,0,0,1,2.772.64356.6057.6057,0,0,0,.84033-.252l.44776-.89551a.76351.76351,0,0,0-.27979-.95215,7.22771,7.22771,0,0,0-3.78027-.95215c-3.13574,0-4.28369,1.9043-4.28369,3.52832,0,2.12793,1.51172,3.19141,3.5,4.08789,1.792.81153,2.772,1.37207,2.772,2.23926,0,.72852-.61621,1.26074-1.708,1.26074a6.01677,6.01677,0,0,1-3.22021-.95215.57593.57593,0,0,0-.83985.168l-.58789,1.2041a.52847.52847,0,0,0,.22413.67188,7.51078,7.51078,0,0,0,4.25585,1.31543c2.88379,0,4.61963-1.76367,4.61963-3.7793C135.7637,16.83481,133.97171,15.96664,131.59183,14.95883Z"/><path class="cls-2" d="M53.08817,9.49887a6.25713,6.25713,0,0,0-3.75244,1.34375V5.17032A.66169.66169,0,0,0,48.72,4.55508H47.15213a.64026.64026,0,0,0-.61621.61524V22.09848a.62159.62159,0,0,0,.61621.61621h1.54a.59551.59551,0,0,0,.64356-.61621V14.035a3.85658,3.85658,0,0,1,3.38818-1.876c1.68017,0,2.57617,1.25976,2.57617,3.38769v6.55176a.62149.62149,0,0,0,.61572.61621h1.56787a.64114.64114,0,0,0,.61622-.61621V15.60239C58.09989,12.075,56.75614,9.49887,53.08817,9.49887Z"/><path class="cls-2" d="M84.1785,18.71078a.59646.59646,0,0,0-.86817.05567,3.99582,3.99582,0,0,1-3.05175,1.59668,3.92835,3.92835,0,0,1-3.83643-4.11621A3.9532,3.9532,0,0,1,80.34256,12.159a3.897,3.897,0,0,1,2.65967,1.28808c.22412.22364.47607.47559.84033.13965l1.00781-.92383a.64017.64017,0,0,0,.11182-.92382,5.67163,5.67163,0,0,0-4.70361-2.24024,6.71693,6.71693,0,0,0-6.63623,6.77539,6.59875,6.59875,0,0,0,6.60791,6.748,5.9051,5.9051,0,0,0,5.04-2.6875c.22412-.33594.084-.64453-.22413-.92383Z"/><path class="cls-2" d="M43.60477,18.71078a.59646.59646,0,0,0-.86817.05567,3.99582,3.99582,0,0,1-3.05175,1.59668,3.92835,3.92835,0,0,1-3.83643-4.11621A3.9532,3.9532,0,0,1,39.76883,12.159a3.897,3.897,0,0,1,2.65967,1.28808c.22412.22364.47607.47559.84033.13965l1.00781-.92383a.64017.64017,0,0,0,.11182-.92382,5.67163,5.67163,0,0,0-4.70361-2.24024,6.71693,6.71693,0,0,0-6.63623,6.77539,6.59875,6.59875,0,0,0,6.60791,6.748,5.90507,5.90507,0,0,0,5.04-2.6875c.22413-.33594.084-.64453-.22412-.92383Z"/><path class="cls-2" d="M119.7012,9.49887a5.83612,5.83612,0,0,0-4.34033,1.792l-.39209-1.12011a.49548.49548,0,0,0-.53174-.39161h-.67187a.64026.64026,0,0,0-.61621.61524v11.7041a.62159.62159,0,0,0,.61621.61621h1.42773c.53223,0,.75586-.19629.75586-.61621V14.035a3.93594,3.93594,0,0,1,3.416-1.876c1.68017,0,2.54834,1.23144,2.54834,3.332v6.60742a.62149.62149,0,0,0,.61572.61621h1.56787a.64113.64113,0,0,0,.61621-.61621V15.60239C124.71292,12.243,123.649,9.49887,119.7012,9.49887Z"/><path class="cls-2" d="M109.708,9.77914h-1.56787a.64026.64026,0,0,0-.61621.61524v11.7041a.62159.62159,0,0,0,.61621.61621H109.708a.64069.64069,0,0,0,.61572-.61621V10.39438A.66168.66168,0,0,0,109.708,9.77914Z"/><path class="cls-2" d="M108.92386,3.94638a1.8596,1.8596,0,0,0-1.84766,1.9043,1.85225,1.85225,0,0,0,1.84766,1.876,1.89019,1.89019,0,1,0,0-3.78027Z"/><path class="cls-2" d="M92.84989,15.60239l5.23584-4.92774a.50536.50536,0,0,0-.33594-.89551h-2.044a1.2419,1.2419,0,0,0-.812.39161l-4.98437,4.50781V5.17032a.66169.66169,0,0,0-.61573-.61524H87.72586a.64062.64062,0,0,0-.61621.61524V22.09848a.62191.62191,0,0,0,.61621.61621h1.56787a.6407.6407,0,0,0,.61573-.61621V16.44223l5.18017,6.02051a.77225.77225,0,0,0,.58789.252h2.2959c.56006,0,.61621-.53223.36426-.83984Z"/><path class="cls-2" d="M104.44681,14.70688H99.11844a.5147.5147,0,0,0-.53174.53223v1.20312a.50933.50933,0,0,0,.53174.50488h5.32837a.509.509,0,0,0,.53174-.50488V15.23911A.51443.51443,0,0,0,104.44681,14.70688Z"/><path class="cls-3" d="M18.994,13.72446l-6.68934,6.68805a1.51109,1.51109,0,0,1-2.13714,0L6.96113,17.20743a1.51106,1.51106,0,0,1,2.1372-2.13672l2.13782,2.13672L16.857,11.58768a1.511,1.511,0,0,1,2.137,2.13678Z"/></g>
</symbol>

<symbol id="color-giving-app" class="symbol" viewBox="0 0 32 32">
  <defs><style>.cls-1{fill:url(#linear-gradient);}.cls-2{fill:#fff;}</style><linearGradient id="linear-gradient" x1="1.72454" y1="16" x2="30.27546" y2="16" gradientTransform="translate(2.76952 -2.35631) rotate(9.21748)" gradientUnits="userSpaceOnUse"><stop offset="0" stop-color="#f5c426"/><stop offset="1" stop-color="#f2b327"/></linearGradient></defs><title>color-giving-app</title><g id="New"><circle class="cls-1" cx="15.99998" cy="16" r="14.27544" transform="translate(-2.35632 2.76952) rotate(-9.21748)"/><path class="cls-2" d="M16.42517,21.21018a.72881.72881,0,0,1-.84977,0c-1.80637-1.27456-8.581-6.44658-4.68789-9.79694a3.42176,3.42176,0,0,1,4.61142.2932L16,12.20783l.50106-.50139a3.42167,3.42167,0,0,1,4.61135-.2932C25.00556,14.7636,18.23147,19.93556,16.42517,21.21018Z"/></g>
</symbol>

<symbol id="color-giving-badge" class="symbol" viewBox="0 0 104 32">
  <defs><style>.cls-1{fill:url(#linear-gradient);}.cls-2{fill:#fff;}.cls-3{fill:#333132;}</style><linearGradient id="linear-gradient" y1="16" x2="25.95538" y2="16" gradientTransform="translate(2.73049 -1.87219) rotate(9.21748)" gradientUnits="userSpaceOnUse"><stop offset="0" stop-color="#f5c426"/><stop offset="1" stop-color="#f2b327"/></linearGradient></defs><title>color-giving-badge</title><g id="New"><circle class="cls-1" cx="12.97768" cy="16" r="12.97768" transform="translate(-2.39534 2.2854) rotate(-9.21748)"/><path class="cls-2" d="M13.3642,20.91888a.66258.66258,0,0,1-.77253,0c-1.64215-1.15869-7.8009-5.86053-4.26171-8.90631a3.1107,3.1107,0,0,1,4.1922.26654l.4555.45581.45551-.45581a3.11062,3.11062,0,0,1,4.19214-.26654C21.16455,15.05835,15.00629,19.76013,13.3642,20.91888Z"/><path class="cls-3" d="M44.59055,8.89227h-.75586c-.43555,0-.5459.33057-.61523.54l-.25391.61377A6.20273,6.20273,0,0,0,38.9343,8.612c-3.50684,0-6.25488,3.02978-6.25488,6.898,0,3.8833,2.80859,6.92529,6.39453,6.92529a7.005,7.005,0,0,0,3.1543-.8164v.44287c0,2.7456-1.66993,3.32177-3.07032,3.32177a4.70842,4.70842,0,0,1-2.93359-1.17431.75073.75073,0,0,0-.61523-.1499.72111.72111,0,0,0-.47461.39453l-.66993,1.22949a.74423.74423,0,0,0,.16309.9082,7.131,7.131,0,0,0,4.58691,1.668c3.78809,0,6.14161-2.375,6.14161-6.19775V9.65741A.78577.78577,0,0,0,44.59055,8.89227Zm-2.335,4.3877v5.23535a5.14534,5.14534,0,0,1-2.8457.96094A3.86033,3.86033,0,0,1,35.781,15.51a3.49736,3.49736,0,0,1,6.47461-2.23Z"/><path class="cls-3" d="M49.4675,3.04755a2.00533,2.00533,0,0,0-1.998,2.0542,1.99073,1.99073,0,0,0,1.998,2.02587,2.04009,2.04009,0,1,0,0-4.08007Z"/><path class="cls-3" d="M48.68186,8.89227h1.56885a.7666.7666,0,0,1,.7666.7666V21.36151a.76611.76611,0,0,1-.76611.76611H48.68235a.76563.76563,0,0,1-.76562-.76562V9.65741A.76514.76514,0,0,1,48.68186,8.89227Z"/><path class="cls-3" d="M64.2595,8.89227H62.99973c-.373,0-.7959,0-1.00488.45117l-3.5,7.68067L55.154,9.33807a.706.706,0,0,0-.69434-.4458h-1.708a.706.706,0,0,0-.6416.31006.633.633,0,0,0,.03223.63574L57.74192,22.0163a.77657.77657,0,0,0,.69336.41894h.16894a.72753.72753,0,0,0,.668-.42334l5.59375-12.168a.63388.63388,0,0,0,.03516-.64209A.70677.70677,0,0,0,64.2595,8.89227Z"/><path class="cls-3" d="M67.571,3.04755A2.00533,2.00533,0,0,0,65.573,5.10175,2.01442,2.01442,0,0,0,67.571,7.12762a2.04009,2.04009,0,1,0,0-4.08007Z"/><path class="cls-3" d="M66.78635,8.89227H68.3552a.7666.7666,0,0,1,.7666.7666V21.36151a.76611.76611,0,0,1-.76611.76611H66.78782a.7666.7666,0,0,1-.7666-.7666V9.65741A.76514.76514,0,0,1,66.78635,8.89227Z"/><path class="cls-3" d="M78.34836,8.612a6.09079,6.09079,0,0,0-4.28027,1.65967l-.30566-.87012a.64293.64293,0,0,0-.67774-.50928h-.67187a.786.786,0,0,0-.76661.76514v11.7041a.76718.76718,0,0,0,.76661.76611h1.42773c.60938,0,.90625-.25048.90625-.76611V13.33075A3.81811,3.81811,0,0,1,78.01243,11.572c1.54589,0,2.39746,1.13037,2.39746,3.18213v6.60742a.77678.77678,0,0,0,.7666.76611h1.56738a.78648.78648,0,0,0,.7666-.76611V14.86542C83.51047,10.65741,81.822,8.612,78.34836,8.612Z"/><path class="cls-3" d="M97.09153,8.89227h-.75586c-.43555,0-.5459.33057-.61524.54l-.2539.61377A6.20275,6.20275,0,0,0,91.43528,8.612c-3.50684,0-6.25489,3.02978-6.25489,6.898,0,3.8833,2.8086,6.92529,6.39454,6.92529a7.005,7.005,0,0,0,3.15429-.8164v.44287c0,2.7456-1.66992,3.32177-3.07031,3.32177a4.70842,4.70842,0,0,1-2.93359-1.17431.75075.75075,0,0,0-.61524-.1499.72113.72113,0,0,0-.47461.39453l-.66992,1.22949a.74421.74421,0,0,0,.16309.9082,7.13092,7.13092,0,0,0,4.58691,1.668c3.78809,0,6.1416-2.375,6.1416-6.19775V9.65741A.78577.78577,0,0,0,97.09153,8.89227Zm-2.335,4.3877v5.23535a5.14542,5.14542,0,0,1-2.84571.96094A3.86032,3.86032,0,0,1,88.282,15.51a3.49736,3.49736,0,0,1,6.47461-2.23Z"/></g>
</symbol>

<symbol id="color-groups-app" class="symbol" viewBox="0 0 32 32">
  <defs><style>.cls-1{fill:url(#linear-gradient);}.cls-2{fill:#fff;}</style><linearGradient id="linear-gradient" x1="4.4056" y1="4.40564" x2="27.69345" y2="27.69349" gradientTransform="translate(2.76952 -2.35631) rotate(9.21748)" gradientUnits="userSpaceOnUse"><stop offset="0" stop-color="#ff962d"/><stop offset="1" stop-color="#fc7638"/></linearGradient></defs><title>color-groups-app</title><g id="New"><circle class="cls-1" cx="15.99999" cy="16" r="14.29998" transform="translate(-2.35632 2.76952) rotate(-9.21748)"/><path class="cls-2" d="M17.89425,12.68348H14.10573a2.69148,2.69148,0,0,1-1.42539,1.42538V17.8912a2.69159,2.69159,0,0,1,1.42536,1.42532h3.78243a2.69167,2.69167,0,0,1,1.42525-1.42527v-3.7854A2.69144,2.69144,0,0,1,17.89425,12.68348ZM23.04117,20.362a2.68267,2.68267,0,0,1-5.15311,1.04537H14.10577A2.68266,2.68266,0,1,1,10.5895,17.8912V14.10886a2.68268,2.68268,0,1,1,3.51626-3.51622h3.78847a2.68263,2.68263,0,1,1,3.51,3.51866v3.77984A2.683,2.683,0,0,1,23.04117,20.362Z"/></g>
</symbol>

<symbol id="color-groups-badge" class="symbol" viewBox="0 0 114 32">
  <defs><style>.cls-1{fill:url(#linear-gradient);}.cls-2{fill:#333132;}.cls-3{fill:#fff;}</style><linearGradient id="linear-gradient" x1="2.45964" y1="5.45967" x2="23.63041" y2="26.63044" gradientTransform="translate(2.73078 -1.87577) rotate(9.21748)" gradientUnits="userSpaceOnUse"><stop offset="0" stop-color="#ff962d"/><stop offset="1" stop-color="#fc7638"/></linearGradient></defs><title>color-groups-badge</title><g id="New"><circle class="cls-1" cx="12.99999" cy="16" r="12.99999" transform="translate(-2.39506 2.28897) rotate(-9.21748)"/><path class="cls-2" d="M44.61286,8.8924H43.857c-.43555,0-.5459.33056-.61523.54l-.25391.61377a6.20273,6.20273,0,0,0-4.03125-1.43408c-3.50684,0-6.25488,3.02979-6.25488,6.898,0,3.8833,2.80859,6.92529,6.39453,6.92529a7.00494,7.00494,0,0,0,3.15429-.8164v.44287c0,2.7456-1.66992,3.32178-3.07031,3.32178a4.70835,4.70835,0,0,1-2.93359-1.17432.749.749,0,0,0-.61524-.1499.72113.72113,0,0,0-.47461.39453l-.66992,1.22949a.74422.74422,0,0,0,.16309.9082,7.131,7.131,0,0,0,4.58691,1.668c3.78809,0,6.1416-2.375,6.1416-6.19775V9.65753A.78576.78576,0,0,0,44.61286,8.8924Zm-2.335,4.38769v5.23535a5.14534,5.14534,0,0,1-2.8457.96094,3.86033,3.86033,0,0,1-3.62891-3.96631,3.49736,3.49736,0,0,1,6.47461-2.23Z"/><path class="cls-2" d="M56.67341,9.34991c-.3418-.54394-1.502-.73779-2.47461-.73779a5.09481,5.09481,0,0,0-3.86035,1.73828l-.27637-.89355a.748.748,0,0,0-.707-.56445h-.67188a.786.786,0,0,0-.7666.76513v11.7041a.77679.77679,0,0,0,.7666.76612h1.28809c.416,0,1.0459,0,1.0459-.76612v-8.167a3.55451,3.55451,0,0,1,2.90234-1.62256,3.07223,3.07223,0,0,1,1.10937.23633.70907.70907,0,0,0,.55079.0415.75845.75845,0,0,0,.43457-.41943l.67187-1.39892A.67179.67179,0,0,0,56.67341,9.34991Z"/><path class="cls-2" d="M63.17243,8.61212a6.91405,6.91405,0,1,0,6.73047,6.86963A6.90577,6.90577,0,0,0,63.17243,8.61212ZM66.858,15.48175a3.71014,3.71014,0,1,1-7.39844,0,3.70489,3.70489,0,1,1,7.39844,0Z"/><path class="cls-2" d="M82.15973,8.8924H80.732c-.44434,0-.87891.05908-.87891.76513L79.856,17.47a3.06107,3.06107,0,0,1-2.876,2.00635c-1.61719,0-2.37012-.93115-2.37012-2.93018V9.65753a.786.786,0,0,0-.7666-.76513H72.276a.80694.80694,0,0,0-.76661.76513v6.69238c0,2.8335.56446,6.08545,4.96582,6.08545a5.3059,5.3059,0,0,0,4.03125-1.63427l.25293.69531c.11231.3125.28711.63135.72852.63135h.67187a.80084.80084,0,0,0,.794-.76612V9.65753A.81115.81115,0,0,0,82.15973,8.8924Z"/><path class="cls-2" d="M91.91462,8.61212a6.18179,6.18179,0,0,0-4.002,1.43262l-.2539-.6333a.67733.67733,0,0,0-.7002-.519h-.70019a.786.786,0,0,0-.7666.76513v17.648a.77678.77678,0,0,0,.7666.76611h1.56836a.75336.75336,0,0,0,.82226-.76611V21.6463a7.28549,7.28549,0,0,0,3.15332.78906c3.56934,0,6.36621-3.042,6.36621-6.92529C98.16852,11.64191,95.42145,8.61212,91.91462,8.61212Zm3.15332,6.898a3.76817,3.76817,0,0,1-3.62989,3.96631,5.34282,5.34282,0,0,1-2.8457-.87988V13.265a3.41337,3.41337,0,0,1,2.958-1.69287C93.58845,11.57208,95.06794,13.22833,95.06794,15.51007Z"/><path class="cls-2" d="M104.2652,14.08429c-1.376-.59863-2.12109-1.05762-2.12109-1.7666,0-.49658.46387-.99756,1.502-.99756a6.55015,6.55015,0,0,1,2.71094.63086.75418.75418,0,0,0,1.03516-.32227l.44726-.8955a.91771.91771,0,0,0-.33105-1.14454,7.41954,7.41954,0,0,0-3.86231-.97656c-3.06347,0-4.43457,1.84717-4.43457,3.67822,0,2.291,1.72461,3.38428,3.58887,4.22461,1.81836.82373,2.68359,1.34815,2.68359,2.10254,0,.68506-.59668,1.11084-1.55761,1.11084a5.83707,5.83707,0,0,1-3.09766-.90576l-.04785-.02588a.81934.81934,0,0,0-.6543-.09814.6404.6404,0,0,0-.39551.32959l-.58691,1.20312a.677.677,0,0,0,.27148.86084l.002.00147a7.69085,7.69085,0,0,0,4.34082,1.34179c3.13086,0,4.76953-1.97656,4.76953-3.9292C108.5279,16.07159,106.83942,15.17462,104.2652,14.08429Z"/><path class="cls-3" d="M14.72206,12.985H11.27794a2.44676,2.44676,0,0,1-1.2958,1.29579v3.43849A2.447,2.447,0,0,1,11.27792,19.015h3.43857a2.447,2.447,0,0,1,1.29568-1.29569V14.27805A2.44678,2.44678,0,0,1,14.72206,12.985Zm4.679,6.98046a2.4388,2.4388,0,0,1-4.68465.95033H11.278a2.43878,2.43878,0,1,1-3.19661-3.19651V14.28078a2.43879,2.43879,0,1,1,3.1966-3.19656H14.722a2.43876,2.43876,0,1,1,3.1909,3.19878v3.43622A2.43907,2.43907,0,0,1,19.40107,19.96545Z"/></g>
</symbol>

<symbol id="color-interfaces-app" class="symbol" viewBox="0 0 32 32">
  <title>color-interfaces-app</title><path d="M30,26.973A3.027,3.027,0,0,1,26.973,30H5.027A3.027,3.027,0,0,1,2,26.973V5.027A3.027,3.027,0,0,1,5.027,2H26.973A3.027,3.027,0,0,1,30,5.027Z" fill="#4a4a4d" fill-rule="evenodd"/><path d="M27,26.239a.761.761,0,0,1-.761.761H5.761A.761.761,0,0,1,5,26.239V5.761A.761.761,0,0,1,5.761,5H26.239A.761.761,0,0,1,27,5.761Z" fill="#fff" fill-rule="evenodd"/><path d="M10,2H22a0,0,0,0,1,0,0V5.007A.993.993,0,0,1,21.007,6H10.993A.993.993,0,0,1,10,5.007V2A0,0,0,0,1,10,2Z" fill="#fec123"/><polygon points="15.27 17.088 15.987 23.479 22 10 9.198 17.108 15.27 17.088" fill="#4a4a4d"/>
</symbol>

<symbol id="color-interfaces-badge" class="symbol" viewBox="0 0 141 32">
  <title>color-interfaces-badge</title><path d="M30,26.973A3.027,3.027,0,0,1,26.973,30H5.027A3.027,3.027,0,0,1,2,26.973V5.027A3.027,3.027,0,0,1,5.027,2H26.973A3.027,3.027,0,0,1,30,5.027Z" fill="#4a4a4d" fill-rule="evenodd"/><path d="M27,26.239a.761.761,0,0,1-.761.761H5.761A.761.761,0,0,1,5,26.239V5.761A.761.761,0,0,1,5.761,5H26.239A.761.761,0,0,1,27,5.761Z" fill="#fff" fill-rule="evenodd"/><path d="M10,2H22a0,0,0,0,1,0,0V5.007A.993.993,0,0,1,21.007,6H10.993A.993.993,0,0,1,10,5.007V2A0,0,0,0,1,10,2Z" fill="#fec123"/><polygon points="15.27 17.088 15.987 23.479 22 10 9.198 17.108 15.27 17.088" fill="#4a4a4d"/><path d="M36.63,23.479V8.077h3.388v15.4Z" fill="#333132"/><path d="M50.336,23.479V16.9c0-1.584-.748-2.4-2.024-2.4s-2.09.814-2.09,2.4v6.579H42.877V11.686h3.345v1.671a4.172,4.172,0,0,1,3.455-1.892c2.53,0,4,1.673,4,4.379v7.635Z" fill="#333132"/><path d="M59.928,23.677c-2.046,0-3.432-.814-3.432-3.542V14.546H55.087v-2.86H56.5V8.671H59.84v3.015h2.772v2.86H59.84v5.038c0,.77.33,1.145,1.078,1.145a3.4,3.4,0,0,0,1.65-.418V23A4.93,4.93,0,0,1,59.928,23.677Z" fill="#333132"/><path d="M75.062,18.749H66.854a2.737,2.737,0,0,0,2.883,2.31,3.864,3.864,0,0,0,2.86-1.21l1.915,1.694a6.23,6.23,0,0,1-10.98-3.895V17.6a5.872,5.872,0,0,1,5.831-6.139c3.938,0,5.742,3.059,5.742,6.4v.044C75.105,18.242,75.083,18.44,75.062,18.749Zm-5.7-4.6a2.629,2.629,0,0,0-2.552,2.509h5.038A2.53,2.53,0,0,0,69.363,14.149Z" fill="#333132"/><path d="M83.883,14.964c-2.222,0-3.587,1.342-3.587,4.159v4.356H76.952V11.686H80.3v2.376a3.645,3.645,0,0,1,3.763-2.6v3.5Z" fill="#333132"/><path d="M91.033,10.079c-.77,0-1.211.4-1.211,1.276v.462h2.707v2.729H89.866v8.933H86.522V14.546H85.136V11.8h1.386v-.748c0-2.6,1.3-3.784,3.652-3.784a7.408,7.408,0,0,1,2.377.33v2.772A4.24,4.24,0,0,0,91.033,10.079Z" fill="#333132"/><path d="M100.292,23.479V22.2a4.535,4.535,0,0,1-3.564,1.5c-2.223,0-4.049-1.276-4.049-3.609v-.044c0-2.574,1.958-3.762,4.753-3.762a8.379,8.379,0,0,1,2.882.484v-.2c0-1.386-.858-2.156-2.53-2.156a8.675,8.675,0,0,0-3.257.638L93.691,12.5a10.391,10.391,0,0,1,4.577-.947c3.652,0,5.258,1.892,5.258,5.083v6.843Zm.066-4.752a5.169,5.169,0,0,0-2.134-.441c-1.431,0-2.311.572-2.311,1.629v.043c0,.9.749,1.431,1.827,1.431,1.562,0,2.618-.858,2.618-2.069Z" fill="#333132"/><path d="M111.335,23.743a6.021,6.021,0,0,1-6.138-6.095V17.6a6.055,6.055,0,0,1,6.182-6.139,5.8,5.8,0,0,1,4.709,1.98l-2.046,2.2a3.445,3.445,0,0,0-2.685-1.3,3.013,3.013,0,0,0-2.86,3.212V17.6a3.022,3.022,0,0,0,2.992,3.257,3.737,3.737,0,0,0,2.707-1.255l1.958,1.981A5.939,5.939,0,0,1,111.335,23.743Z" fill="#333132"/><path d="M128.317,18.749H120.11a2.735,2.735,0,0,0,2.882,2.31,3.866,3.866,0,0,0,2.861-1.21l1.914,1.694a6.229,6.229,0,0,1-10.979-3.895V17.6a5.872,5.872,0,0,1,5.83-6.139c3.939,0,5.743,3.059,5.743,6.4v.044C128.361,18.242,128.339,18.44,128.317,18.749Zm-5.7-4.6a2.629,2.629,0,0,0-2.552,2.509H125.1A2.529,2.529,0,0,0,122.618,14.149Z" fill="#333132"/><path d="M134.344,23.7a8.261,8.261,0,0,1-5.061-1.782l1.43-2.2a6.665,6.665,0,0,0,3.719,1.409c.968,0,1.408-.353,1.408-.88V20.2c0-.726-1.144-.969-2.443-1.365-1.649-.484-3.52-1.254-3.52-3.542V15.25c0-2.4,1.936-3.741,4.313-3.741a8.154,8.154,0,0,1,4.4,1.365l-1.276,2.31a6.989,6.989,0,0,0-3.19-1.1c-.814,0-1.232.353-1.232.815v.044c0,.66,1.122.968,2.4,1.408,1.65.55,3.564,1.342,3.564,3.5v.044C138.854,22.511,136.9,23.7,134.344,23.7Z" fill="#333132"/>
</symbol>

<symbol id="color-music-stand-app" class="symbol" viewBox="0 0 32 32">
  <defs><style>.cls-1{fill:#4682c5;}.cls-2{fill:#fff;}</style></defs><title>color-music-stand-app</title><g id="New"><circle class="cls-1" cx="15.99998" cy="15.99998" r="14.27544" transform="translate(-3.24803 4.10407) rotate(-13.28255)"/><path class="cls-2" d="M23.46922,19.01167l-.0235-.00678c.05036,1.05871-1.14082,2.0486-2.73415,2.23565-1.64.19236-3.07348-.53791-3.20178-1.63127S18.607,17.47353,20.247,17.28111a4.1466,4.1466,0,0,1,1.47812.09117V12.10472l-7.22566,2.35253v6.54764h-.032c-.13508.95813-1.2616,1.80791-2.72556,1.97971-1.64006.19256-3.07354-.53784-3.20191-1.6312s1.09718-2.13575,2.73724-2.32816a4.14727,4.14727,0,0,1,1.47806.09124V13.03177c0-.33147.08621-.77465.40465-.87771,1.50014-.48528,8.82584-2.891,9.77082-3.16015a.48509.48509,0,0,1,.53845.39746Z"/></g>
</symbol>

<symbol id="color-music-stand-badge" class="symbol" viewBox="0 0 162 32">
  <defs><style>.cls-1{fill:#4682c5;}.cls-2{fill:#fff;}.cls-3{fill:#333132;}</style></defs><title>color-music-stand-badge</title><g id="New"><circle class="cls-1" cx="12.97768" cy="16.37483" r="12.97767" transform="translate(-3.41501 3.41971) rotate(-13.28255)"/><path class="cls-2" d="M18.74841,19.08917,18.727,19.083c.04578.96246-1.03711,1.86236-2.48559,2.03241-1.49091.17486-2.79407-.489-2.91071-1.483s.99744-1.94159,2.48834-2.11652a3.76959,3.76959,0,0,1,1.34375.08289v-4.7887l-6.56878,2.13867v5.95239H10.565a2.63117,2.63117,0,0,1-2.47778,1.79975c-1.491.175-2.79413-.48895-2.91083-1.48291s.99744-1.94159,2.4884-2.11652a3.77031,3.77031,0,0,1,1.34369.08295V13.65289c0-.30133.07837-.70422.36786-.79791,1.36377-.44116,8.0235-2.62817,8.88257-2.87286a.441.441,0,0,1,.4895.36132Z"/><path class="cls-3" d="M47.55246,9.03125a6.08931,6.08931,0,0,0-4.35156,1.96436,4.538,4.538,0,0,0-3.96484-1.96436A5.70175,5.70175,0,0,0,35.18625,10.688l-.28711-.88233a.67547.67547,0,0,0-.70214-.49414h-.64454a.786.786,0,0,0-.7666.76514v11.7041a.7768.7768,0,0,0,.7666.76612h1.56836a.7863.7863,0,0,0,.76563-.76612V13.74219a3.15888,3.15888,0,0,1,2.90234-1.751c1.61328,0,2.39746,1.041,2.39746,3.18213v6.60742a.75827.75827,0,0,0,.76661.76612h1.5957a.76237.76237,0,0,0,.73828-.76612v-6.6914a13.19829,13.19829,0,0,0-.10156-1.68506c.02148-.022.04492-.04785.07226-.07666a3.766,3.766,0,0,1,2.875-1.33643c1.59082,0,2.39746,1.0708,2.39746,3.18213v6.60742a.73328.73328,0,0,0,.76661.76612H51.864a.75826.75826,0,0,0,.7666-.76612V15.28467C52.63059,12.6001,52.10422,9.03125,47.55246,9.03125Z"/><path class="cls-3" d="M65.56418,9.31152H64.13645c-.44434,0-.87793.05909-.87793.76514l.00293,7.8125a3.06148,3.06148,0,0,1-2.877,2.00635c-1.61621,0-2.36914-.93115-2.36914-2.93018V10.07666a.786.786,0,0,0-.76661-.76514H55.68039a.80695.80695,0,0,0-.7666.76514V16.769c0,2.8335.56446,6.08545,4.9668,6.08545a5.305,5.305,0,0,0,4.03027-1.63428l.25293.69581c.11328.312.28907.63086.72852.63086h.67187a.80174.80174,0,0,0,.79493-.76612V10.07666A.81137.81137,0,0,0,65.56418,9.31152Z"/><path class="cls-3" d="M73.321,14.50342c-1.376-.59863-2.12109-1.05762-2.12109-1.7666,0-.49659.46386-.99756,1.502-.99756a6.55018,6.55018,0,0,1,2.71094.63086.755.755,0,0,0,1.03515-.32227l.44727-.89551a.9177.9177,0,0,0-.33106-1.14453,7.4194,7.4194,0,0,0-3.8623-.97656c-3.06348,0-4.43457,1.84717-4.43457,3.67822,0,2.291,1.72461,3.38428,3.58887,4.22461,1.81836.82373,2.68359,1.34815,2.68359,2.10254,0,.68506-.59668,1.11084-1.55762,1.11084a5.83706,5.83706,0,0,1-3.09765-.90576l-.04786-.02588a.82072.82072,0,0,0-.65429-.09814.64031.64031,0,0,0-.39551.32959l-.58691,1.20312a.677.677,0,0,0,.27148.86084l.00195.00147a7.69088,7.69088,0,0,0,4.34082,1.34179c3.13086,0,4.76953-1.97656,4.76953-3.9292C77.58371,16.49072,75.89524,15.59375,73.321,14.50342Z"/><path class="cls-3" d="M80.66184,3.479a2.00534,2.00534,0,0,0-1.998,2.0542,1.99074,1.99074,0,0,0,1.998,2.02588,2.04009,2.04009,0,1,0,0-4.08008Z"/><path class="cls-3" d="M79.8762,9.31152H81.445a.7666.7666,0,0,1,.7666.7666V21.78076a.76611.76611,0,0,1-.76611.76611H79.87668a.76563.76563,0,0,1-.76562-.76562V10.07666A.76514.76514,0,0,1,79.8762,9.31152Z"/><path class="cls-3" d="M94.68821,18.27588a.74046.74046,0,0,0-1.06348.0625c-.10449.0957-.208.19824-.31348.30371a3.40969,3.40969,0,0,1-2.63671,1.25342A3.79308,3.79308,0,0,1,86.988,15.9292a3.81607,3.81607,0,0,1,3.77051-3.938,3.77638,3.77638,0,0,1,2.55469,1.24561c.21484.21484.5791.5747,1.04687.14257l1.00684-.92285a.7864.7864,0,0,0,.127-1.12939,5.79647,5.79647,0,0,0-4.81933-2.2959,6.865,6.865,0,0,0-6.78711,6.92529,6.75663,6.75663,0,0,0,6.75878,6.89795,6.034,6.034,0,0,0,5.165-2.75439c.16895-.25391.26368-.6543-.25586-1.12354Z"/><path class="cls-3" d="M107.18966,14.50342c-1.376-.59863-2.1211-1.05762-2.1211-1.7666,0-.49659.46387-.99756,1.501-.99756a6.55357,6.55357,0,0,1,2.71094.63086.75513.75513,0,0,0,1.03515-.32178l.44825-.896a.91673.91673,0,0,0-.332-1.14453,7.41089,7.41089,0,0,0-3.8623-.97656c-3.0625,0-4.43359,1.84717-4.43359,3.67822,0,2.291,1.7246,3.38428,3.58886,4.22461,1.81739.82324,2.68262,1.34815,2.68262,2.10254,0,.68506-.59668,1.11084-1.55762,1.11084a5.833,5.833,0,0,1-3.09863-.90674l-.0459-.0249a.81624.81624,0,0,0-.65625-.09766.63754.63754,0,0,0-.39355.32911l-.58692,1.20263a.67609.67609,0,0,0,.27051.86133l.00195.00147a7.69088,7.69088,0,0,0,4.34082,1.34179c3.13184,0,4.77051-1.97656,4.77051-3.9292C111.45235,16.49072,109.76388,15.59375,107.18966,14.50342Z"/><path class="cls-3" d="M120.90255,19.65234a.72207.72207,0,0,0-.41211-.43457.6571.6571,0,0,0-.55957.082,4.21443,4.21443,0,0,1-1.9961.59571c-.46679,0-.88574-.08936-.88574-1.16651V11.99121h3.26563a.78645.78645,0,0,0,.76657-.76611V10.07666a.75772.75772,0,0,0-.76657-.76514H117.049V5.84912a.74447.74447,0,0,0-.73828-.76611h-1.5957a.77678.77678,0,0,0-.7666.76611v3.4624h-1.334a.74043.74043,0,0,0-.76562.76514V11.2251a.76763.76763,0,0,0,.76562.76611h1.334v6.8501c0,1.86865.38964,4.01318,3.42675,4.01318a7.92031,7.92031,0,0,0,3.66407-.94726.72075.72075,0,0,0,.36718-.936Z"/><path class="cls-3" d="M127.98653,9.03125a14.08552,14.08552,0,0,0-4.5039.73633.73428.73428,0,0,0-.51368.93164l.251,1.06348a.75.75,0,0,0,.917.64257,13.16513,13.16513,0,0,1,3.56931-.61035,1.83931,1.83931,0,0,1,1.38284.45362,2.99134,2.99134,0,0,1,.543,2.1665,9.98177,9.98177,0,0,0-2.457-.34375c-3.23828,0-5.33106,1.69629-5.33106,4.32178a4.15954,4.15954,0,0,0,4.32227,4.46142,5.69241,5.69241,0,0,0,3.91113-1.50879l.23438.66114c.13574.32421.30175.54.6709.54h.92382a.78648.78648,0,0,0,.7666-.76612V14.89307C132.67305,11.686,132.32052,9.03125,127.98653,9.03125Zm-1.23242,11.22754a1.74406,1.74406,0,0,1-1.86523-1.894c0-1.18311,1.00878-1.978,2.50976-1.978a6.32092,6.32092,0,0,1,2.20117.38818v2.023A3.87851,3.87851,0,0,1,126.75411,20.25879Z"/><path class="cls-3" d="M141.81759,9.03125a6.093,6.093,0,0,0-4.28028,1.65967l-.30468-.87012a.64331.64331,0,0,0-.67872-.50928H135.882a.786.786,0,0,0-.7666.76514v11.7041a.77679.77679,0,0,0,.7666.76612h1.42773c.60938,0,.90625-.25049.90625-.76612V13.75a3.81811,3.81811,0,0,1,3.26563-1.75879c1.54687,0,2.39844,1.13037,2.39844,3.18213v6.60742a.767.767,0,0,0,.76562.76612h1.56836a.78649.78649,0,0,0,.7666-.76612V15.28467C146.98067,11.07666,145.29122,9.03125,141.81759,9.03125Z"/><path class="cls-3" d="M160.50509,2.64746h-1.59571a.80694.80694,0,0,0-.7666.76514V9.64111a8.93374,8.93374,0,0,0-3.09765-.60986c-3.64551,0-6.39454,2.96533-6.39454,6.898,0,3.8833,2.66114,6.92529,6.0586,6.92529a6.34227,6.34227,0,0,0,4.18261-1.687l.208.70654a.768.768,0,0,0,.7334.67286h.67188a.77679.77679,0,0,0,.7666-.76612V3.4126A.786.786,0,0,0,160.50509,2.64746Zm-5.4043,17.24805c-1.87891,0-3.34961-1.74219-3.34961-3.96631a3.7851,3.7851,0,0,1,3.60156-3.938,6.404,6.404,0,0,1,2.81739.69483v5.42529A3.56682,3.56682,0,0,1,155.10079,19.89551Z"/></g>
</symbol>

<symbol id="color-people-app" class="symbol" viewBox="0 0 32 32">
  <defs><style>.cls-1{fill:url(#linear-gradient);}.cls-2{fill:#fff;}</style><linearGradient id="linear-gradient" x1="4.57966" y1="4.57968" x2="27.42033" y2="27.42036" gradientTransform="translate(4.10407 -3.24803) rotate(13.28255)" gradientUnits="userSpaceOnUse"><stop offset="0" stop-color="#32a0f0"/><stop offset="1" stop-color="#3f75e5"/></linearGradient></defs><title>color-people-app</title><g id="New"><circle class="cls-1" cx="15.99998" cy="15.99998" r="14.27544" transform="translate(-3.24803 4.10407) rotate(-13.28255)"/><path class="cls-2" d="M13.3733,9.88209a2.89445,2.89445,0,1,1-2.89442,2.89441A2.89443,2.89443,0,0,1,13.3733,9.88209ZM17.76,22.11791H8.96v-2.64a2.64,2.64,0,0,1,2.64-2.64h3.52a2.64,2.64,0,0,1,2.64,2.64ZM20.0248,11.6146a2.17026,2.17026,0,1,1-2.17026,2.17026A2.1703,2.1703,0,0,1,20.0248,11.6146ZM23.04,20.35424h-4.4v-.88a3.28426,3.28426,0,0,0-.29037-1.37279.83341.83341,0,0,0-.088-.20249,1.43644,1.43644,0,0,0-.088-.15831,1.95441,1.95441,0,0,0-.13206-.22881,1.62046,1.62046,0,0,1,1.30242-.67763h2.112A1.58873,1.58873,0,0,1,23.04,18.4183Z"/></g>
</symbol>

<symbol id="color-people-badge" class="symbol" viewBox="0 0 110 32">
  <defs><style>.cls-1{fill:url(#linear-gradient);}.cls-2{fill:#fff;}.cls-3{fill:#333132;}</style><linearGradient id="linear-gradient" x1="2.59556" y1="5.54294" x2="23.35981" y2="26.30719" gradientTransform="translate(4.006 -2.55565) rotate(13.28255)" gradientUnits="userSpaceOnUse"><stop offset="0" stop-color="#32a0f0"/><stop offset="1" stop-color="#3f75e5"/></linearGradient></defs><title>color-people-badge</title><g id="New"><circle class="cls-1" cx="12.97768" cy="15.92503" r="12.97767" transform="translate(-3.31166 3.40768) rotate(-13.28255)"/><path class="cls-2" d="M10.58978,10.36331A2.63132,2.63132,0,1,1,7.9585,12.9946,2.6313,2.6313,0,0,1,10.58978,10.36331ZM14.5777,21.48679h-8v-2.4a2.4,2.4,0,0,1,2.4-2.4h3.2a2.4,2.4,0,0,1,2.4,2.4Zm2.0589-9.54847a1.973,1.973,0,1,1-1.973,1.973A1.973,1.973,0,0,1,16.6366,11.93832Zm2.74109,7.94513h-4v-.8a2.98572,2.98572,0,0,0-.264-1.248.75755.75755,0,0,0-.08-.18408,1.30531,1.30531,0,0,0-.08-.14392,1.7761,1.7761,0,0,0-.12006-.208,1.47315,1.47315,0,0,1,1.184-.616h1.92a1.4443,1.4443,0,0,1,1.44,1.44006Z"/><path class="cls-3" d="M39.20871,9.59317a6.18178,6.18178,0,0,0-4.002,1.43262l-.2539-.6333a.67736.67736,0,0,0-.7002-.519h-.7002a.786.786,0,0,0-.7666.76514v17.648a.77679.77679,0,0,0,.7666.76611h1.56836a.75336.75336,0,0,0,.82227-.76611V22.62735a7.2856,7.2856,0,0,0,3.15332.78906c3.56934,0,6.36621-3.042,6.36621-6.92529C45.46262,12.623,42.71555,9.59317,39.20871,9.59317ZM42.362,16.49112a3.76817,3.76817,0,0,1-3.62989,3.96631,5.34275,5.34275,0,0,1-2.8457-.87988V14.246a3.4134,3.4134,0,0,1,2.958-1.69287C40.88254,12.55313,42.362,14.20938,42.362,16.49112Z"/><path class="cls-3" d="M53.12961,9.59317a6.60163,6.60163,0,0,0-6.59082,6.89795,6.55518,6.55518,0,0,0,6.61914,6.92529,7.42314,7.42314,0,0,0,4.88575-1.63183.66454.66454,0,0,0,.084-1.063l-.75684-1.17822a.60829.60829,0,0,0-.38378-.28614.80522.80522,0,0,0-.584.1919,4.85418,4.85418,0,0,1-3.07715,1.064,3.66307,3.66307,0,0,1-3.708-3.22851h8.7754a.75007.75007,0,0,0,.73632-.69092c.0293-.23145.0586-.68457.0586-.915A5.93878,5.93878,0,0,0,53.12961,9.59317ZM53.074,12.27286a2.89745,2.89745,0,0,1,3.03223,2.64062h-6.332A3.134,3.134,0,0,1,53.074,12.27286Z"/><path class="cls-3" d="M66.84934,9.59317a6.91405,6.91405,0,1,0,6.73047,6.86963A6.90661,6.90661,0,0,0,66.84934,9.59317Zm3.68555,6.86963a3.7106,3.7106,0,1,1-7.39942,0,3.70535,3.70535,0,1,1,7.39942,0Z"/><path class="cls-3" d="M81.77317,9.59317a6.16632,6.16632,0,0,0-4.001,1.43213l-.2539-.6333a.67938.67938,0,0,0-.70118-.51856h-.69922a.786.786,0,0,0-.7666.76514v17.648a.76718.76718,0,0,0,.7666.76611h1.56739a.75336.75336,0,0,0,.82226-.76611V22.62491a7.15082,7.15082,0,0,0,3.1543.7915c3.56934,0,6.36621-3.042,6.36621-6.92529C88.028,12.623,85.28,9.59317,81.77317,9.59317ZM78.45188,14.246a3.41338,3.41338,0,0,1,2.958-1.69287c2.03808,0,3.51757,1.65625,3.51757,3.938a3.76817,3.76817,0,0,1-3.62988,3.96631,5.34275,5.34275,0,0,1-2.8457-.87988Z"/><path class="cls-3" d="M90.61936,3.92911h1.56885a.7666.7666,0,0,1,.7666.7666V22.34219a.7666.7666,0,0,1-.7666.7666H90.61985a.76563.76563,0,0,1-.76562-.76562V4.69424A.76514.76514,0,0,1,90.61936,3.92911Z"/><path class="cls-3" d="M101.34446,9.59317a6.60162,6.60162,0,0,0-6.59082,6.89795,6.55518,6.55518,0,0,0,6.61914,6.92529,7.4231,7.4231,0,0,0,4.88574-1.63183.66454.66454,0,0,0,.084-1.063l-.75683-1.17822a.60831.60831,0,0,0-.38379-.28614.80382.80382,0,0,0-.584.1919,4.85417,4.85417,0,0,1-3.07714,1.064,3.66306,3.66306,0,0,1-3.708-3.22851h8.77537a.75009.75009,0,0,0,.73635-.69092c.02929-.23145.05859-.68457.05859-.915A5.93877,5.93877,0,0,0,101.34446,9.59317Zm-.05567,2.67969a2.89744,2.89744,0,0,1,3.03223,2.64062H97.989A3.134,3.134,0,0,1,101.28879,12.27286Z"/></g>
</symbol>

<symbol id="color-projector-app" class="symbol" viewBox="0 0 32 32">
  <title>color-projector-app</title><path d="M30,26.973A3.027,3.027,0,0,1,26.973,30H5.027A3.027,3.027,0,0,1,2,26.973V5.027A3.027,3.027,0,0,1,5.027,2H26.973A3.027,3.027,0,0,1,30,5.027Z" fill="#f19900" fill-rule="evenodd"/><path d="M27,26.239a.761.761,0,0,1-.761.761H5.761A.761.761,0,0,1,5,26.239V5.761A.761.761,0,0,1,5.761,5H26.239A.761.761,0,0,1,27,5.761Z" fill="#fff" fill-rule="evenodd"/><path d="M10,2H22a0,0,0,0,1,0,0V5.007A.993.993,0,0,1,21.007,6H10.993A.993.993,0,0,1,10,5.007V2A0,0,0,0,1,10,2Z" fill="#fec123"/><path d="M18.452,16.663c-.208.151-2.954,2.521-3.2,2.682-.18.121-.415-.013-.415-.286V13.7c0-.251.211-.436.424-.29.169.117,2.9,2.474,3.188,2.676A.371.371,0,0,1,18.452,16.663ZM16,10a6.528,6.528,0,1,0,6.611,6.53A6.569,6.569,0,0,0,16,10Z" fill="#4a4a4d"/>
</symbol>

<symbol id="color-projector-badge" class="symbol" viewBox="0 0 135 32">
  <title>color-projector-badge</title><path d="M30,26.973A3.027,3.027,0,0,1,26.973,30H5.027A3.027,3.027,0,0,1,2,26.973V5.027A3.027,3.027,0,0,1,5.027,2H26.973A3.027,3.027,0,0,1,30,5.027Z" fill="#f19900" fill-rule="evenodd"/><path d="M27,26.239a.761.761,0,0,1-.761.761H5.761A.761.761,0,0,1,5,26.239V5.761A.761.761,0,0,1,5.761,5H26.239A.761.761,0,0,1,27,5.761Z" fill="#fff" fill-rule="evenodd"/><path d="M10,2H22a0,0,0,0,1,0,0V5.007A.993.993,0,0,1,21.007,6H10.993A.993.993,0,0,1,10,5.007V2A0,0,0,0,1,10,2Z" fill="#fec123"/><path d="M18.452,16.663c-.208.151-2.954,2.521-3.2,2.682-.18.121-.415-.013-.415-.286V13.7c0-.251.211-.436.424-.29.169.117,2.9,2.474,3.188,2.676A.371.371,0,0,1,18.452,16.663ZM16,10a6.528,6.528,0,1,0,6.611,6.53A6.569,6.569,0,0,0,16,10Z" fill="#4a4a4d"/><path d="M42.438,18.433H39.864v4.621H36.476V7.651h6.293c3.674,0,5.9,2.178,5.9,5.325v.044C48.666,16.585,45.893,18.433,42.438,18.433Zm2.795-5.391c0-1.519-1.056-2.332-2.751-2.332H39.864v4.708h2.685a2.385,2.385,0,0,0,2.684-2.332Z" fill="#333132"/><path d="M57.113,14.538c-2.222,0-3.587,1.343-3.587,4.159v4.357H50.182V11.26h3.344v2.376a3.643,3.643,0,0,1,3.763-2.6v3.5Z" fill="#333132"/><path d="M64.193,23.317a6.13,6.13,0,0,1-6.359-6.094v-.044A6.387,6.387,0,0,1,70.6,17.135v.044A6.189,6.189,0,0,1,64.193,23.317Zm3.1-6.138a3.133,3.133,0,0,0-3.1-3.257,3.021,3.021,0,0,0-3.058,3.213v.044a3.134,3.134,0,0,0,3.1,3.257A3.023,3.023,0,0,0,67.3,17.223Z" fill="#333132"/><path d="M72.09,26.64a6.956,6.956,0,0,1-1.452-.132V23.89a4,4,0,0,0,.7.066c.7,0,1.188-.375,1.188-1.364V11.26h3.345v11.6C75.875,25.452,74.554,26.64,72.09,26.64Zm.352-16.678V6.991h3.52V9.962Z" fill="#333132"/><path d="M89.339,18.323H81.132a2.736,2.736,0,0,0,2.883,2.31,3.864,3.864,0,0,0,2.86-1.21l1.915,1.694a6.23,6.23,0,0,1-10.98-3.894v-.044a5.871,5.871,0,0,1,5.831-6.139c3.938,0,5.743,3.059,5.743,6.4v.044C89.384,17.816,89.361,18.015,89.339,18.323Zm-5.7-4.6a2.629,2.629,0,0,0-2.553,2.508h5.039A2.529,2.529,0,0,0,83.641,13.724Z" fill="#333132"/><path d="M96.8,23.317a6.021,6.021,0,0,1-6.138-6.094v-.044A6.054,6.054,0,0,1,96.84,11.04a5.8,5.8,0,0,1,4.709,1.98l-2.046,2.2a3.443,3.443,0,0,0-2.685-1.3,3.013,3.013,0,0,0-2.86,3.213v.044a3.023,3.023,0,0,0,2.992,3.257,3.737,3.737,0,0,0,2.707-1.255l1.958,1.98A5.939,5.939,0,0,1,96.8,23.317Z" fill="#333132"/><path d="M107.137,23.252c-2.047,0-3.433-.814-3.433-3.543V14.12H102.3V11.26H103.7V8.245h3.344V11.26h2.773v2.86h-2.773v5.039c0,.77.33,1.144,1.078,1.144a3.4,3.4,0,0,0,1.651-.418v2.684A4.93,4.93,0,0,1,107.137,23.252Z" fill="#333132"/><path d="M117.1,23.317a6.129,6.129,0,0,1-6.359-6.094v-.044a6.386,6.386,0,0,1,12.761-.044v.044A6.189,6.189,0,0,1,117.1,23.317Zm3.1-6.138a3.133,3.133,0,0,0-3.1-3.257,3.022,3.022,0,0,0-3.059,3.213v.044a3.134,3.134,0,0,0,3.1,3.257,3.022,3.022,0,0,0,3.058-3.213Z" fill="#333132"/><path d="M132.213,14.538c-2.222,0-3.586,1.343-3.586,4.159v4.357h-3.345V11.26h3.345v2.376a3.642,3.642,0,0,1,3.762-2.6v3.5Z" fill="#333132"/>
</symbol>

<symbol id="color-registrations-app" class="symbol" viewBox="0 0 32 32">
  <defs><style>.cls-1{fill:url(#linear-gradient);}.cls-2{fill:#fff;}</style><linearGradient id="linear-gradient" x1="4.56" y1="4.56004" x2="27.43996" y2="27.44" gradientTransform="translate(7.34087 -4.90501) rotate(22.50005)" gradientUnits="userSpaceOnUse"><stop offset="0" stop-color="#43b39c"/><stop offset="1" stop-color="#46948d"/></linearGradient></defs><title>color-registrations-app</title><g id="New"><circle class="cls-1" cx="15.99998" cy="15.99997" r="14.30001" transform="translate(-4.905 7.34087) rotate(-22.50005)"/><path class="cls-2" d="M17.15721,9.99317a1.41706,1.41706,0,0,1,1.99623-.09306l1.1331,1.02628a1.41716,1.41716,0,0,1,.09655,2.0045l-1.2173,1.33693L15.95865,11.3013ZM11.86849,21.82508l-2.891.63695a.19479.19479,0,0,1-.23492-.21632l.397-2.9396a2.258,2.258,0,0,1,.48515-1.03783l5.551-6.12265L18.385,15.11417l-5.524,6.1356A2.21974,2.21974,0,0,1,11.86849,21.82508Zm11.39075-.08258a.70406.70406,0,0,1-.70408.704H14.53155l2.817-3.14793h5.20661a.70406.70406,0,0,1,.70408.70408Z"/></g>
</symbol>

<symbol id="color-registrations-badge" class="symbol" viewBox="0 0 176 32">
  <defs><style>.cls-1{fill:url(#linear-gradient);}.cls-2{fill:#fff;}.cls-3{fill:#333132;}</style><linearGradient id="linear-gradient" x1="2.60003" y1="5.60003" x2="23.4" y2="26.4" gradientTransform="translate(7.11251 -3.75697) rotate(22.50005)" gradientUnits="userSpaceOnUse"><stop offset="0" stop-color="#43b39c"/><stop offset="1" stop-color="#46948d"/></linearGradient></defs><title>color-registrations-badge</title><g id="New"><circle class="cls-1" cx="13.00002" cy="15.99997" r="13.00001" transform="translate(-5.13336 6.19283) rotate(-22.50005)"/><path class="cls-2" d="M14.05206,10.56726a1.28825,1.28825,0,0,1,1.81476-.08459l1.03009.933a1.28833,1.28833,0,0,1,.08777,1.82227l-1.10663,1.21539-2.91559-2.69684ZM9.24414,21.32355l-2.62817.579a.17708.17708,0,0,1-.21357-.19666l.36091-2.67236a2.05261,2.05261,0,0,1,.441-.94348l5.04632-5.566,2.91754,2.69867-5.02179,5.57782A2.018,2.018,0,0,1,9.24414,21.32355Zm10.35523-.07508a.64.64,0,0,1-.64008.64H11.6651L14.226,19.02673h4.73328a.64006.64006,0,0,1,.64008.64008Z"/><path class="cls-3" d="M41.565,9.31924c-.3418-.54394-1.502-.73779-2.47461-.73779a5.09481,5.09481,0,0,0-3.86035,1.73828l-.27637-.89355a.748.748,0,0,0-.707-.56446H33.5748a.786.786,0,0,0-.7666.76514V21.331a.77679.77679,0,0,0,.7666.76612h1.28809c.416,0,1.0459,0,1.0459-.76612V13.164a3.55453,3.55453,0,0,1,2.90234-1.62256,3.07234,3.07234,0,0,1,1.10938.23633.70691.70691,0,0,0,.55078.0415.75845.75845,0,0,0,.43457-.41943l.67187-1.39892A.67179.67179,0,0,0,41.565,9.31924Z"/><path class="cls-3" d="M47.96641,8.58145a6.60163,6.60163,0,0,0-6.59083,6.898,6.55518,6.55518,0,0,0,6.61915,6.92529,7.423,7.423,0,0,0,4.88572-1.63183.66453.66453,0,0,0,.084-1.063l-.75683-1.17822a.60833.60833,0,0,0-.38379-.28614.7948.7948,0,0,0-.584.1919,4.85418,4.85418,0,0,1-3.07715,1.064,3.66305,3.66305,0,0,1-3.708-3.22851h8.77539a.75007.75007,0,0,0,.73633-.69092c.02929-.23145.05859-.68457.05859-.915A5.93877,5.93877,0,0,0,47.96641,8.58145Zm-.05567,2.67969A2.89744,2.89744,0,0,1,50.943,13.90176h-6.332A3.134,3.134,0,0,1,47.91074,11.26114Z"/><path class="cls-3" d="M66.85215,8.86172h-.75586c-.43457,0-.54492.33057-.61426.54l-.25391.61377A6.22136,6.22136,0,0,0,61.1959,8.58145c-3.50684,0-6.25391,3.02979-6.25391,6.898,0,3.8833,2.80859,6.92529,6.39453,6.92529a7.08185,7.08185,0,0,0,3.15332-.81787v.44434c0,2.7456-1.66894,3.32178-3.06933,3.32178a4.72285,4.72285,0,0,1-2.93457-1.17432.74482.74482,0,0,0-.61524-.1499.72113.72113,0,0,0-.47461.39453l-.66992,1.23a.73261.73261,0,0,0,.16406.90771,7.1208,7.1208,0,0,0,4.58594,1.668c3.78906,0,6.14258-2.375,6.14258-6.19775V9.62686A.786.786,0,0,0,66.85215,8.86172Zm-2.334,4.3877v5.23535a5.14534,5.14534,0,0,1-2.8457.96094,3.86044,3.86044,0,0,1-3.62988-3.96631,3.49794,3.49794,0,0,1,6.47558-2.23Z"/><path class="cls-3" d="M70.94443,8.86172h1.57031a.76514.76514,0,0,1,.76514.76514V21.331a.76611.76611,0,0,1-.76611.76611H70.94541a.76611.76611,0,0,1-.76611-.76611V9.62686A.76514.76514,0,0,1,70.94443,8.86172Z"/><path class="cls-3" d="M71.7291,3.02921A2.00533,2.00533,0,0,0,69.73105,5.0834,2.01442,2.01442,0,0,0,71.7291,7.10928a2.04009,2.04009,0,1,0,0-4.08007Z"/><path class="cls-3" d="M80.191,14.05362c-1.376-.59863-2.12109-1.05762-2.12109-1.7666,0-.49658.46387-.99756,1.502-.99756a6.55015,6.55015,0,0,1,2.71094.63086.7552.7552,0,0,0,1.03516-.32227l.44726-.8955A.9177.9177,0,0,0,83.43418,9.558a7.41954,7.41954,0,0,0-3.86231-.97656c-3.06347,0-4.43457,1.84717-4.43457,3.67822,0,2.291,1.72461,3.38428,3.58887,4.22461,1.81836.82373,2.68359,1.34815,2.68359,2.10254,0,.68506-.59668,1.11084-1.55761,1.11084a5.83707,5.83707,0,0,1-3.09766-.90576l-.04785-.02588a.8247.8247,0,0,0-.6543-.09814.6404.6404,0,0,0-.39551.32959l-.58691,1.20312a.677.677,0,0,0,.27149.86084l.002.00147a7.69085,7.69085,0,0,0,4.34082,1.34179c3.13086,0,4.76953-1.97656,4.76953-3.9292C84.45371,16.04092,82.76523,15.144,80.191,14.05362Z"/><path class="cls-3" d="M93.90488,19.20255a.72335.72335,0,0,0-.41211-.43458.66774.66774,0,0,0-.56054.082,4.20205,4.20205,0,0,1-1.99512.5957c-.4668,0-.88574-.08936-.88574-1.1665v-6.7378H93.317a.78648.78648,0,0,0,.7666-.76611V9.62686a.75774.75774,0,0,0-.7666-.76514H90.05137V5.39932a.74448.74448,0,0,0-.73829-.76611H87.71641a.767.767,0,0,0-.76563.76611v3.4624h-1.334a.74067.74067,0,0,0-.76661.76514V10.7753a.76786.76786,0,0,0,.76661.76611h1.334v6.8501c0,1.86865.38965,4.01318,3.42578,4.01318a7.92748,7.92748,0,0,0,3.66406-.94677.72163.72163,0,0,0,.36817-.93653Z"/><path class="cls-3" d="M104.3248,9.31924c-.34179-.54394-1.50195-.73779-2.47363-.73779a5.19278,5.19278,0,0,0-3.8623,1.73389l-.27539-.88867a.74558.74558,0,0,0-.70606-.56495h-.67187a.786.786,0,0,0-.76661.76514V21.331a.76718.76718,0,0,0,.76661.76612h1.28711c.417,0,1.04687,0,1.04687-.76612V13.164a3.554,3.554,0,0,1,2.90137-1.62256,3.05665,3.05665,0,0,1,1.1084.23633.70957.70957,0,0,0,.55175.0415.7584.7584,0,0,0,.43457-.41943l.67188-1.39892A.67181.67181,0,0,0,104.3248,9.31924Z"/><path class="cls-3" d="M110.48594,8.58145a14.08562,14.08562,0,0,0-4.50391.73633.73427.73427,0,0,0-.51367.93164l.251,1.06348a.749.749,0,0,0,.917.64257,13.16507,13.16507,0,0,1,3.56933-.61035,1.83932,1.83932,0,0,1,1.38282.45362,2.99134,2.99134,0,0,1,.543,2.1665,9.98218,9.98218,0,0,0-2.457-.34375c-3.23828,0-5.331,1.69629-5.331,4.32178a4.15955,4.15955,0,0,0,4.32226,4.46142,5.69241,5.69241,0,0,0,3.91114-1.50879l.23437.66114c.13574.32422.30176.54.6709.54h.92383a.78648.78648,0,0,0,.7666-.76612V14.44327C115.17246,11.23624,114.81992,8.58145,110.48594,8.58145ZM109.25351,19.809a1.74406,1.74406,0,0,1-1.86523-1.894c0-1.18311,1.00879-1.978,2.50977-1.978a6.321,6.321,0,0,1,2.20117.38818v2.023A3.87852,3.87852,0,0,1,109.25351,19.809Z"/><path class="cls-3" d="M125.191,19.20255a.72334.72334,0,0,0-.4121-.43458.66776.66776,0,0,0-.56055.082,4.20205,4.20205,0,0,1-1.99512.5957c-.4668,0-.88574-.08936-.88574-1.1665v-6.7378h3.26562a.78648.78648,0,0,0,.76661-.76611V9.62686a.75775.75775,0,0,0-.76661-.76514H121.3375V5.39932a.74447.74447,0,0,0-.73828-.76611h-1.59668a.767.767,0,0,0-.76563.76611v3.4624h-1.334a.74067.74067,0,0,0-.7666.76514V10.7753a.76785.76785,0,0,0,.7666.76611h1.334v6.8501c0,1.86865.38965,4.01318,3.42578,4.01318a7.92757,7.92757,0,0,0,3.66407-.94677.72163.72163,0,0,0,.36816-.93653Z"/><path class="cls-3" d="M127.61728,8.86172h1.57031a.76514.76514,0,0,1,.76514.76514V21.331a.76611.76611,0,0,1-.76611.76611h-1.56787a.7666.7666,0,0,1-.7666-.7666V9.62686a.76514.76514,0,0,1,.76514-.76514Z"/><path class="cls-3" d="M128.402,3.02921a2.00532,2.00532,0,0,0-1.998,2.05419,2.01441,2.01441,0,0,0,1.998,2.02588,2.04009,2.04009,0,1,0,0-4.08007Z"/><path class="cls-3" d="M138.3873,8.58145a6.91405,6.91405,0,1,0,6.73047,6.86963A6.90662,6.90662,0,0,0,138.3873,8.58145Zm3.68555,6.86963a3.71059,3.71059,0,1,1-7.39941,0,3.70534,3.70534,0,1,1,7.39941,0Z"/><path class="cls-3" d="M153.59043,8.58145a6.093,6.093,0,0,0-4.28027,1.65967l-.30472-.87012a.64324.64324,0,0,0-.67868-.50928h-.67188a.786.786,0,0,0-.7666.76514V21.331a.77679.77679,0,0,0,.7666.76612h1.42774c.60937,0,.90625-.25049.90625-.76612V13.3002a3.81807,3.81807,0,0,1,3.26562-1.75879c1.54688,0,2.39844,1.13037,2.39844,3.18213V21.331a.767.767,0,0,0,.76562.76612h1.56836a.78647.78647,0,0,0,.7666-.76612V14.83487C158.75351,10.62686,157.06406,8.58145,153.59043,8.58145Z"/><path class="cls-3" d="M165.5416,14.05362c-1.376-.59863-2.12109-1.05762-2.12109-1.7666,0-.49658.46386-.99756,1.501-.99756a6.55354,6.55354,0,0,1,2.71094.63086.75514.75514,0,0,0,1.03516-.32178l.44824-.896a.91672.91672,0,0,0-.332-1.14454,7.411,7.411,0,0,0-3.86231-.97656c-3.0625,0-4.43359,1.84717-4.43359,3.67822,0,2.291,1.72461,3.38428,3.58887,4.22461,1.81738.82325,2.68261,1.34815,2.68261,2.10254,0,.68506-.59668,1.11084-1.55761,1.11084a5.8331,5.8331,0,0,1-3.09864-.90674l-.04589-.0249a.81956.81956,0,0,0-.65625-.09765.63754.63754,0,0,0-.39356.3291l-.58691,1.20263a.67609.67609,0,0,0,.2705.86133l.002.00147a7.69085,7.69085,0,0,0,4.34082,1.34179c3.13183,0,4.77051-1.97656,4.77051-3.9292C169.8043,16.04092,168.11582,15.144,165.5416,14.05362Z"/></g>
</symbol>

<symbol id="color-resources-app" class="symbol" viewBox="0 0 32 32">
  <defs><style>.cls-1{fill:url(#linear-gradient);}.cls-2{fill:#fff;}</style><linearGradient id="linear-gradient" x1="4.57966" y1="4.57968" x2="27.42033" y2="27.42036" gradientTransform="translate(4.10407 -3.24803) rotate(13.28255)" gradientUnits="userSpaceOnUse"><stop offset="0" stop-color="#f25437"/><stop offset="1" stop-color="#cd4e39"/></linearGradient></defs><title>color-resources-app</title><g id="New"><circle class="cls-1" cx="15.99998" cy="15.99998" r="14.27544" transform="translate(-3.24803 4.10407) rotate(-13.28255)"/><path class="cls-2" d="M14.9,21.73969a.8603.8603,0,0,1-.86031.86031H10.26038A.86036.86036,0,0,1,9.4,21.73969V17.96038A.86042.86042,0,0,1,10.26038,17.1h3.77931a.86036.86036,0,0,1,.86031.86038Zm0-7.7a.8603.8603,0,0,1-.86031.86031H10.26038A.86036.86036,0,0,1,9.4,14.03969V10.26038A.86042.86042,0,0,1,10.26038,9.4h3.77931a.86036.86036,0,0,1,.86031.86038Zm7.7,7.7a.8603.8603,0,0,1-.86031.86031H17.96038A.86036.86036,0,0,1,17.1,21.73969V17.96038A.86042.86042,0,0,1,17.96038,17.1h3.77931a.86036.86036,0,0,1,.86031.86038Zm0-7.7a.8603.8603,0,0,1-.86031.86031H17.96038A.86036.86036,0,0,1,17.1,14.03969V10.26038A.86042.86042,0,0,1,17.96038,9.4h3.77931a.86036.86036,0,0,1,.86031.86038Z"/></g>
</symbol>

<symbol id="color-resources-badge" class="symbol" viewBox="0 0 145 32">
  <defs><style>.cls-1{fill:url(#linear-gradient);}.cls-2{fill:#333132;}.cls-3{fill:#fff;}</style><linearGradient id="linear-gradient" x1="2.59556" y1="5.61789" x2="23.35981" y2="26.38214" gradientTransform="translate(4.02322 -2.55365) rotate(13.28255)" gradientUnits="userSpaceOnUse"><stop offset="0" stop-color="#f25437"/><stop offset="1" stop-color="#cd4e39"/></linearGradient></defs><title>color-resources-badge</title><g id="New"><circle class="cls-1" cx="12.97768" cy="15.99998" r="12.97767" transform="translate(-3.32888 3.40968) rotate(-13.28255)"/><path class="cls-2" d="M41.5427,9.3942c-.3418-.54395-1.502-.7378-2.47461-.7378a5.09481,5.09481,0,0,0-3.86035,1.73828l-.27637-.89355a.748.748,0,0,0-.707-.56445h-.67188a.786.786,0,0,0-.7666.76513v11.7041a.7768.7768,0,0,0,.7666.76612h1.28809c.416,0,1.0459,0,1.0459-.76612v-8.167a3.55453,3.55453,0,0,1,2.90234-1.62256,3.07234,3.07234,0,0,1,1.10938.23633.707.707,0,0,0,.55078.04151.75847.75847,0,0,0,.43457-.41944l.67187-1.39892A.67177.67177,0,0,0,41.5427,9.3942Z"/><path class="cls-2" d="M47.94407,8.6564a6.60162,6.60162,0,0,0-6.59082,6.898,6.55517,6.55517,0,0,0,6.61914,6.92529,7.423,7.423,0,0,0,4.88572-1.63183.66453.66453,0,0,0,.084-1.063l-.75683-1.17822a.60826.60826,0,0,0-.38379-.28613.80732.80732,0,0,0-.584.19189,4.85412,4.85412,0,0,1-3.07714,1.064,3.66306,3.66306,0,0,1-3.708-3.22851h8.77539a.75007.75007,0,0,0,.73633-.69092c.02929-.23144.05859-.68457.05859-.915A5.93877,5.93877,0,0,0,47.94407,8.6564Zm-.05567,2.67969a2.89744,2.89744,0,0,1,3.03223,2.64063h-6.332A3.134,3.134,0,0,1,47.8884,11.33609Z"/><path class="cls-2" d="M60.00168,14.12857c-1.376-.59863-2.12109-1.05762-2.12109-1.7666,0-.49658.46387-.99756,1.501-.99756a6.55349,6.55349,0,0,1,2.71093.63086.75491.75491,0,0,0,1.03516-.32178l.44824-.896a.91668.91668,0,0,0-.332-1.14453,7.41088,7.41088,0,0,0-3.8623-.97657c-3.0625,0-4.4336,1.84717-4.4336,3.67823,0,2.291,1.72461,3.38427,3.58887,4.2246,1.81738.82325,2.68262,1.34815,2.68262,2.10254,0,.68506-.59668,1.11084-1.55762,1.11084a5.83312,5.83312,0,0,1-3.09863-.90673l-.0459-.02491a.81517.81517,0,0,0-.65625-.09765.63754.63754,0,0,0-.39356.3291l-.58691,1.20263a.67608.67608,0,0,0,.27051.86133l.002.00147a7.69085,7.69085,0,0,0,4.34082,1.34179c3.13184,0,4.77051-1.97656,4.77051-3.92919C64.26438,16.11588,62.5759,15.2189,60.00168,14.12857Z"/><path class="cls-2" d="M71.78293,8.6564A6.91405,6.91405,0,1,0,78.5134,15.526,6.90662,6.90662,0,0,0,71.78293,8.6564ZM75.46848,15.526a3.71059,3.71059,0,1,1-7.39941,0,3.70534,3.70534,0,1,1,7.39941,0Z"/><path class="cls-2" d="M90.76926,8.93668H89.34153c-.44434,0-.87793.05908-.87793.76513l.00293,7.8125a3.06148,3.06148,0,0,1-2.877,2.00635c-1.61621,0-2.36914-.93115-2.36914-2.93018V9.70181a.786.786,0,0,0-.7666-.76513H80.88547a.80694.80694,0,0,0-.7666.76513V16.3942c0,2.83349.56445,6.08544,4.9668,6.08544a5.30509,5.30509,0,0,0,4.03027-1.63427l.25293.6958c.11328.312.28906.63086.72852.63086h.67187a.80173.80173,0,0,0,.79492-.76612V9.70181A.81135.81135,0,0,0,90.76926,8.93668Z"/><path class="cls-2" d="M102.85811,9.3942c-.34178-.54395-1.50193-.7378-2.47361-.7378a5.19281,5.19281,0,0,0-3.86231,1.73389l-.27539-.88867a.74555.74555,0,0,0-.706-.56494h-.67188a.786.786,0,0,0-.7666.76513v11.7041a.76718.76718,0,0,0,.7666.76612H96.156c.417,0,1.04688,0,1.04688-.76612v-8.167a3.554,3.554,0,0,1,2.90136-1.62256,3.06741,3.06741,0,0,1,1.10938.23633.70667.70667,0,0,0,.55078.04151.75847.75847,0,0,0,.43457-.41944l.67187-1.39892A.67171.67171,0,0,0,102.85811,9.3942Z"/><path class="cls-2" d="M113.40012,17.901a.74046.74046,0,0,0-1.06348.0625c-.10449.0957-.208.19824-.31347.30371a3.40972,3.40972,0,0,1-2.63672,1.25342,3.79308,3.79308,0,0,1-3.68652-3.96631,3.81607,3.81607,0,0,1,3.7705-3.938,3.77634,3.77634,0,0,1,2.55469,1.24561c.21484.21435.57813.57422,1.04688.14258l1.00683-.92285a.7864.7864,0,0,0,.127-1.1294,5.7965,5.7965,0,0,0-4.81934-2.2959,6.865,6.865,0,0,0-6.78711,6.9253,6.75662,6.75662,0,0,0,6.75877,6.89794,6.034,6.034,0,0,0,5.16506-2.75439c.16894-.25391.26367-.6543-.25586-1.12353Z"/><path class="cls-2" d="M121.76731,8.6564a6.60162,6.60162,0,0,0-6.59082,6.898,6.55517,6.55517,0,0,0,6.61914,6.92529,7.4231,7.4231,0,0,0,4.88574-1.63183.66455.66455,0,0,0,.084-1.063l-.75684-1.17822a.60826.60826,0,0,0-.38379-.28613.80872.80872,0,0,0-.584.19189,4.85417,4.85417,0,0,1-3.07715,1.064,3.66306,3.66306,0,0,1-3.708-3.22851H127.031a.7501.7501,0,0,0,.73633-.69092c.0293-.23144.05859-.68457.05859-.915A5.93877,5.93877,0,0,0,121.76731,8.6564Zm-.05567,2.67969a2.89744,2.89744,0,0,1,3.03223,2.64063h-6.332A3.134,3.134,0,0,1,121.71164,11.33609Z"/><path class="cls-2" d="M133.824,14.12857c-1.376-.59863-2.12109-1.05762-2.12109-1.7666,0-.49658.46386-.99756,1.502-.99756a6.55018,6.55018,0,0,1,2.71094.63086.7556.7556,0,0,0,1.03515-.32227l.44727-.8955a.9177.9177,0,0,0-.33106-1.14453,7.41939,7.41939,0,0,0-3.8623-.97657c-3.06348,0-4.43457,1.84717-4.43457,3.67823,0,2.291,1.72461,3.38427,3.58887,4.2246,1.81835.82374,2.68359,1.34815,2.68359,2.10254,0,.68506-.59668,1.11084-1.55762,1.11084a5.83706,5.83706,0,0,1-3.09765-.90576l-.04786-.02588a.82076.82076,0,0,0-.65429-.09814.64038.64038,0,0,0-.39551.32959l-.58691,1.20312a.677.677,0,0,0,.27148.86084l.00195.00147a7.69088,7.69088,0,0,0,4.34082,1.34179c3.13086,0,4.76953-1.97656,4.76953-3.92919C138.08664,16.11588,136.39817,15.2189,133.824,14.12857Z"/><path class="cls-3" d="M11.97766,21.21786A.7821.7821,0,0,1,11.19556,22H7.75983a.78216.78216,0,0,1-.78217-.78211V17.78214A.78221.78221,0,0,1,7.75983,17h3.43573a.78216.78216,0,0,1,.7821.78217Zm0-7A.7821.7821,0,0,1,11.19556,15H7.75983a.78216.78216,0,0,1-.78217-.78211V10.78214A.78221.78221,0,0,1,7.75983,10h3.43573a.78216.78216,0,0,1,.7821.78217Zm7,7A.7821.7821,0,0,1,18.19556,22H14.75983a.78216.78216,0,0,1-.78217-.78211V17.78214A.78221.78221,0,0,1,14.75983,17h3.43573a.78216.78216,0,0,1,.7821.78217Zm0-7A.7821.7821,0,0,1,18.19556,15H14.75983a.78216.78216,0,0,1-.78217-.78211V10.78214A.78221.78221,0,0,1,14.75983,10h3.43573a.78216.78216,0,0,1,.7821.78217Z"/></g>
</symbol>

<symbol id="color-services-app" class="symbol" viewBox="0 0 32 32">
  <defs><style>.cls-1{fill:url(#linear-gradient);}.cls-2{fill:#fff;}</style><linearGradient id="linear-gradient" x1="4.55182" y1="4.55185" x2="27.44818" y2="27.4482" gradientUnits="userSpaceOnUse"><stop offset="0" stop-color="#6bb23d"/><stop offset="0.99949" stop-color="#659630"/></linearGradient></defs><title>color-services-app</title><g id="New"><path class="cls-1" d="M16,1.68974C4.5519,1.68974,1.68974,4.5519,1.68974,16S4.5519,30.31026,16,30.31026,30.31026,27.44823,30.31026,16,27.4481,1.68974,16,1.68974Z"/><circle class="cls-2" cx="9.49109" cy="11.09022" r="1.51738"/><circle class="cls-2" cx="9.49109" cy="16.02506" r="1.51738"/><circle class="cls-2" cx="9.49109" cy="20.9599" r="1.51738"/><path class="cls-2" d="M23.19008,11.76642a.69525.69525,0,0,1-.69525.69525H13.35174a.69526.69526,0,0,1-.69525-.69525V10.41408a.69526.69526,0,0,1,.69525-.69531h9.14309a.69526.69526,0,0,1,.69525.69531Z"/><path class="cls-2" d="M13.35174,14.65361h9.14309a.69525.69525,0,0,1,.69525.69525v1.35234a.69532.69532,0,0,1-.69532.69532h-9.143a.69525.69525,0,0,1-.69525-.69525v-1.3524A.69525.69525,0,0,1,13.35174,14.65361Z"/><path class="cls-2" d="M13.35174,19.58845h9.14309a.69525.69525,0,0,1,.69525.69525V21.636a.69532.69532,0,0,1-.69532.69532h-9.143a.69525.69525,0,0,1-.69525-.69525v-1.3524A.69525.69525,0,0,1,13.35174,19.58845Z"/></g>
</symbol>

<symbol id="color-services-badge" class="symbol" viewBox="0 0 125 32">
  <defs><style>.cls-1{fill:#333132;}.cls-2{fill:url(#linear-gradient);}.cls-3{fill:#fff;}</style><linearGradient id="linear-gradient" x1="2.60189" y1="5.59259" x2="23.41676" y2="26.40746" gradientUnits="userSpaceOnUse"><stop offset="0" stop-color="#6bb23d"/><stop offset="0.99949" stop-color="#659630"/></linearGradient></defs><title>color-services-badge</title><g id="New"><path class="cls-1" d="M37.97345,14.16039c-1.376-.59864-2.12109-1.05762-2.12109-1.76661,0-.49658.46387-.99755,1.502-.99755a6.55015,6.55015,0,0,1,2.71094.63086.75378.75378,0,0,0,1.03516-.32227l.44726-.89551a.9177.9177,0,0,0-.331-1.14453,7.41944,7.41944,0,0,0-3.86231-.97656c-3.06347,0-4.43457,1.84717-4.43457,3.67822,0,2.291,1.72461,3.38428,3.58887,4.22461,1.81836.82373,2.68359,1.34814,2.68359,2.10254,0,.68506-.59668,1.11084-1.55761,1.11084a5.83707,5.83707,0,0,1-3.09766-.90576l-.04785-.02588a.81879.81879,0,0,0-.6543-.09815.64043.64043,0,0,0-.39551.32959l-.58691,1.20313a.677.677,0,0,0,.27148.86084l.002.00146a7.69077,7.69077,0,0,0,4.34082,1.3418c3.13086,0,4.76951-1.97656,4.76951-3.9292C42.23613,16.14769,40.54767,15.25072,37.97345,14.16039Z"/><path class="cls-1" d="M49.615,8.68822a6.60163,6.60163,0,0,0-6.59082,6.898,6.55518,6.55518,0,0,0,6.61915,6.92529,7.423,7.423,0,0,0,4.88574-1.63184.66453.66453,0,0,0,.084-1.063l-.75683-1.17823a.60832.60832,0,0,0-.38379-.28613.80242.80242,0,0,0-.584.1919,4.85418,4.85418,0,0,1-3.07715,1.064,3.66305,3.66305,0,0,1-3.708-3.22852h8.77539a.75006.75006,0,0,0,.73632-.69091c.0293-.23145.0586-.68457.0586-.915A5.93878,5.93878,0,0,0,49.615,8.68822Zm-.05566,2.67969a2.89744,2.89744,0,0,1,3.03223,2.64062h-6.332A3.134,3.134,0,0,1,49.55939,11.36791Z"/><path class="cls-1" d="M63.64533,8.68822A5.09477,5.09477,0,0,0,59.785,10.4265l-.27637-.89356a.748.748,0,0,0-.707-.56445H58.1297a.786.786,0,0,0-.7666.76514v11.7041a.77678.77678,0,0,0,.7666.76611h1.28809c.416,0,1.0459,0,1.0459-.76611v-8.167A3.5545,3.5545,0,0,1,63.366,11.64818a3.07213,3.07213,0,0,1,1.10938.23633.70488.70488,0,0,0,.55078.0415.75848.75848,0,0,0,.43457-.41943l.67187-1.39893a.67177.67177,0,0,0-.01269-.68164C65.77814,8.88207,64.618,8.68822,63.64533,8.68822Z"/><path class="cls-1" d="M78.67267,8.96849H77.41291c-.373,0-.7959,0-1.00489.45117l-3.5,7.68067-3.34082-7.686a.70593.70593,0,0,0-.69433-.4458h-1.708a.706.706,0,0,0-.6416.31006.633.633,0,0,0,.03222.63574l5.59961,12.17823a.77659.77659,0,0,0,.69336.41894h.16895a.72753.72753,0,0,0,.668-.42334l5.59375-12.168a.63388.63388,0,0,0,.03515-.64209A.70672.70672,0,0,0,78.67267,8.96849Z"/><path class="cls-1" d="M81.19953,8.96849h1.56885a.7666.7666,0,0,1,.7666.7666V21.43773a.76611.76611,0,0,1-.76611.76611H81.2a.76563.76563,0,0,1-.76562-.76562V9.73363A.76514.76514,0,0,1,81.19953,8.96849Z"/><path class="cls-1" d="M81.98517,3.136a2.00533,2.00533,0,0,0-1.998,2.0542,1.99073,1.99073,0,0,0,1.998,2.02588,2.04009,2.04009,0,1,0,0-4.08008Z"/><path class="cls-1" d="M96.01154,17.93285a.74054.74054,0,0,0-1.06348.0625c-.10449.0957-.208.19824-.31347.30371a3.40972,3.40972,0,0,1-2.63672,1.25342,3.79308,3.79308,0,0,1-3.68653-3.96631,3.81607,3.81607,0,0,1,3.77051-3.938,3.77641,3.77641,0,0,1,2.55469,1.2456c.21484.21485.57812.57325,1.04687.14258l1.00684-.92285a.78639.78639,0,0,0,.12695-1.12939,5.79647,5.79647,0,0,0-4.81933-2.2959,6.865,6.865,0,0,0-6.78711,6.92529,6.75663,6.75663,0,0,0,6.75879,6.898,6.034,6.034,0,0,0,5.165-2.75439c.16894-.25391.26367-.6543-.25586-1.12354Z"/><path class="cls-1" d="M104.37873,8.68822a6.60162,6.60162,0,0,0-6.59082,6.898,6.55518,6.55518,0,0,0,6.61914,6.92529,7.423,7.423,0,0,0,4.88574-1.63184.66453.66453,0,0,0,.084-1.063l-.75683-1.17823a.60828.60828,0,0,0-.38381-.28613.8024.8024,0,0,0-.584.1919,4.85417,4.85417,0,0,1-3.07714,1.064,3.66306,3.66306,0,0,1-3.708-3.22852h8.77539a.75007.75007,0,0,0,.73633-.69091c.02929-.23145.05859-.68457.05859-.915A5.93877,5.93877,0,0,0,104.37873,8.68822Zm-.05567,2.67969a2.89744,2.89744,0,0,1,3.03223,2.64062h-6.332A3.134,3.134,0,0,1,104.32306,11.36791Z"/><path class="cls-1" d="M116.43634,14.16039c-1.376-.59864-2.12109-1.05762-2.12109-1.76661,0-.49658.46387-.99755,1.501-.99755a6.55349,6.55349,0,0,1,2.71093.63086.75492.75492,0,0,0,1.03516-.32178l.44824-.896a.91668.91668,0,0,0-.332-1.14453,7.41089,7.41089,0,0,0-3.8623-.97656c-3.0625,0-4.4336,1.84717-4.4336,3.67822,0,2.291,1.72461,3.38428,3.58887,4.22461,1.81738.82324,2.68262,1.34814,2.68262,2.10254,0,.68506-.59668,1.11084-1.55762,1.11084a5.833,5.833,0,0,1-3.09863-.90674l-.0459-.0249a.81428.81428,0,0,0-.65625-.09766.6376.6376,0,0,0-.39356.3291l-.58691,1.20264a.67608.67608,0,0,0,.27051.86133l.002.00146a7.69077,7.69077,0,0,0,4.34082,1.3418c3.13184,0,4.77051-1.97656,4.77051-3.9292C120.699,16.14769,119.01056,15.25072,116.43634,14.16039Z"/><path class="cls-2" d="M13.00932,2.99068C2.602,2.99068,0,5.59264,0,16S2.602,29.00932,13.00932,29.00932,26.01865,26.40748,26.01865,16,23.41669,2.99068,13.00932,2.99068Z"/><circle class="cls-3" cx="7.09213" cy="11.53656" r="1.37944"/><circle class="cls-3" cx="7.09213" cy="16.02278" r="1.37944"/><circle class="cls-3" cx="7.09213" cy="20.509" r="1.37944"/><path class="cls-3" d="M19.54576,12.15129a.632.632,0,0,1-.632.63205h-8.3119a.63205.63205,0,0,1-.632-.63205v-1.2294a.63206.63206,0,0,1,.632-.6321h8.3119a.63206.63206,0,0,1,.632.6321Z"/><path class="cls-3" d="M10.60182,14.776h8.3119a.632.632,0,0,1,.632.632v1.2294a.63211.63211,0,0,1-.63211.63211H10.60182a.632.632,0,0,1-.632-.632V15.40805A.632.632,0,0,1,10.60182,14.776Z"/><path class="cls-3" d="M10.60182,19.26222h8.3119a.632.632,0,0,1,.632.632v1.2294a.63211.63211,0,0,1-.63211.63211H10.60182a.632.632,0,0,1-.632-.632V19.89427A.632.632,0,0,1,10.60182,19.26222Z"/></g>
</symbol>
    </svg>