<svg xmlns="http://www.w3.org/2000/svg" xmlns:xlink="http://www.w3.org/1999/xlink">
    
<symbol id="blank-file" viewBox="0 0 16 16">
  <title>blank-file</title><path d="M11.05,3.42v-3l3,3ZM13.34,5H9.52V1.14A.76.76,0,0,0,8.76.38H2.66a.76.76,0,0,0-.76.76V14.86a.77.77,0,0,0,.76.77H13.34a.77.77,0,0,0,.76-.77V5.71A.76.76,0,0,0,13.34,5Z"></path>
</symbol>

<symbol id="broken-link" viewBox="0 0 16 16">
  <title>broken-link</title><path d="M5.33,12.42H4.44a4.45,4.45,0,0,1,0-8.89h.89V5.31H4.44a2.67,2.67,0,0,0,0,5.33h.89ZM16,8a4.44,4.44,0,0,0-4.44-4.44h-.89V5.31h.89a2.67,2.67,0,0,1,0,5.33h-.89v1.78h.89A4.45,4.45,0,0,0,16,8ZM6.22,7.08H3.56V8.86H6.22Zm6.22,0H9.78V8.86h2.66ZM8.89,2.64H7.11V13.31H8.89Z"></path>
</symbol>

<symbol id="calendar-repeat" viewBox="0 0 16 16">
  <title>calendar-repeat</title><path d="M13.15,2.71h-.39V.6h-1.5V2.71H4.76V.6H3.26V2.71H2.87a1.61,1.61,0,0,0-1.61,1.6v8.58a1.61,1.61,0,0,0,1.61,1.6H6V13H2.87a.11.11,0,0,1-.11-.1V6.6h12V4.31A1.61,1.61,0,0,0,13.15,2.71Z"></path><path d="M12.85,8.12A3.92,3.92,0,0,0,11.1,7.7a3.87,3.87,0,1,0,3.13,6.14L13,13A2.37,2.37,0,1,1,11.1,9.2a2.32,2.32,0,0,1,1.07.26,2.26,2.26,0,0,1,.45.31l-1.1,1.1h3.22V7.65L13.68,8.71A4,4,0,0,0,12.85,8.12Z"></path>
</symbol>

<symbol id="calendar" viewBox="0 0 16 16">
  <title>calendar</title><path d="M13.44,14.22H2.56V5.67H13.44Zm0-12.44h-.77V.22H11.11V1.78H4.89V.22H3.33V1.78H2.56A1.54,1.54,0,0,0,1,3.33V14.22a1.56,1.56,0,0,0,1.56,1.56H13.44A1.56,1.56,0,0,0,15,14.22V3.33A1.56,1.56,0,0,0,13.44,1.78Z"></path>
</symbol>

<symbol id="check-circle" viewBox="0 0 16 16">
  <title>check-circle</title><path d="M8,0a8,8,0,1,0,8,8A8,8,0,0,0,8,0ZM7,11.63,3.43,8.07,4.57,6.93,7,9.37l4.43-4.44,1.14,1.14Z"></path>
</symbol>

<symbol id="check-person" viewBox="0 0 16 16">
  <title>check-person</title><path d="M2.1,8.25,0,6.15,1.15,5l1,1,2-2L5.21,5.14Zm7.4-.13C7.34,8.12,3,9.21,3,11.37V13H16V11.37C16,9.21,11.67,8.12,9.5,8.12Zm0-1.62A3.25,3.25,0,1,0,6.26,3.25,3.25,3.25,0,0,0,9.5,6.5Z"></path>
</symbol>

<symbol id="check" viewBox="0 0 16 16">
  <title>check</title><path d="M6.26,13.33.07,7.13l2-2L6.26,9.4,14,1.69l2,2Z"></path>
</symbol>

<symbol id="clock" viewBox="0 0 16 16">
  <title>clock</title><path d="M8,0a8,8,0,1,0,8,8A8,8,0,0,0,8,0Zm3.15,11.08-4-1.34V4.56H8.87v4l2.84.94Z"></path>
</symbol>

<symbol id="cog-person" viewBox="0 0 16 16">
  <title>cog-person</title><path d="M16,12.52V14H4.22V12.52c0-2,3.92-2.95,5.89-2.95S16,10.56,16,12.52ZM10.11,8.1A2.95,2.95,0,1,0,7.16,5.15,2.94,2.94,0,0,0,10.11,8.1ZM4.37,7A1.16,1.16,0,1,0,3.21,8.14,1.16,1.16,0,0,0,4.37,7Zm1.3.32.7.54a.18.18,0,0,1,0,.22L5.75,9.21a.17.17,0,0,1-.21.07L4.72,9a2.84,2.84,0,0,1-.56.33L4,10.15a.16.16,0,0,1-.16.14H2.55a.16.16,0,0,1-.16-.14l-.12-.87A2.58,2.58,0,0,1,1.71,9l-.82.33a.17.17,0,0,1-.21-.07L0,8.07a.18.18,0,0,1,0-.22l.7-.54c0-.11,0-.22,0-.32s0-.22,0-.33l-.7-.54a.17.17,0,0,1,0-.21L.68,4.76a.17.17,0,0,1,.21-.07L1.71,5a2.2,2.2,0,0,1,.56-.32l.12-.88a.16.16,0,0,1,.16-.14H3.88A.16.16,0,0,1,4,3.82l.12.88A2.39,2.39,0,0,1,4.72,5l.82-.33a.17.17,0,0,1,.21.07l.66,1.15a.17.17,0,0,1,0,.21l-.7.54c0,.11,0,.21,0,.33s0,.21,0,.32Z"></path>
</symbol>

<symbol id="cog" viewBox="0 0 16 16">
  <title>cog</title><path d="M16,7.17h0l-1.52-.26a.77.77,0,0,1-.65-.44h0A6.33,6.33,0,0,0,13.18,5h0a.76.76,0,0,1,.14-.77L14.22,3h0s0,0,0,0l0,0,0-.05-1-1-.06-.06h0s0,0,0,0l-1.27.91a.78.78,0,0,1-.77.15h0a6,6,0,0,0-1.48-.62h0a.77.77,0,0,1-.44-.65L8.83,0h0s0,0,0,0H7.19s0,0,0,0L6.91,1.56a.77.77,0,0,1-.44.65h0A6.33,6.33,0,0,0,5,2.82H5a.76.76,0,0,1-.77-.14L3,1.78H3s0,0,0,0l0,0-.05,0-1,1-.06.06h0s0,0,0,0l.91,1.27A.78.78,0,0,1,2.83,5h0a5.81,5.81,0,0,0-.62,1.48h0a.76.76,0,0,1-.65.44L0,7.17H0s0,0,0,0V8.81s0,0,0,0l1.53.26a.76.76,0,0,1,.65.44h0A6.16,6.16,0,0,0,2.82,11h0a.76.76,0,0,1-.14.77l-.91,1.27s0,0,0,0h0l.06.06,1,1,.05,0,0,0H3l1.26-.9A.78.78,0,0,1,5,13.17H5a5.81,5.81,0,0,0,1.48.62h0a.76.76,0,0,1,.44.65L7.17,16s0,0,0,0H8.81s0,0,0,0h0l.26-1.52a.76.76,0,0,1,.44-.65h0A6.16,6.16,0,0,0,11,13.18h0a.76.76,0,0,1,.77.14l1.27.91h0l.06-.06,1-1,0-.05,0,0s0,0,0,0h0l-.9-1.26a.78.78,0,0,1-.15-.77h0a5.81,5.81,0,0,0,.62-1.48h0a.76.76,0,0,1,.65-.44L16,8.83s0,0,0,0V7.19S16,7.17,16,7.17Zm-5.35,3.45a3.71,3.71,0,1,1,0-5.24A3.7,3.7,0,0,1,10.62,10.62Z"></path>
</symbol>

<symbol id="credit-card" viewBox="0 0 16 16">
  <title>credit-card</title><path d="M14.4,4.8H1.6V3.2H14.4Zm0,8H1.6V8H14.4Zm0-11.2H1.6A1.58,1.58,0,0,0,0,3.2v9.6a1.59,1.59,0,0,0,1.6,1.6H14.4A1.59,1.59,0,0,0,16,12.8V3.2A1.59,1.59,0,0,0,14.4,1.6Z"></path><rect x="9.6" y="9.6" width="3.2" height="1.6" rx="0.8"></rect>
</symbol>

<symbol id="down-arrow" viewBox="0 0 16 16">
  <title>down-arrow</title><polygon points="14.22 5.83 9.26 10.79 9.26 0 6.74 0 6.74 10.79 1.78 5.83 0 7.61 8 15.61 16 7.61 14.22 5.83"></polygon>
</symbol>

<symbol id="down-caret" viewBox="0 0 16 16">
  <title>down-caret</title><polygon points="3 6 8 11 13 6 3 6"></polygon>
</symbol>

<symbol id="down-chevron" viewBox="0 0 16 16">
  <title>down-chevron</title><polygon points="8 14.07 0.01 6.07 1.78 4.29 8 10.51 14.22 4.29 16 6.07 8 14.07"></polygon>
</symbol>

<symbol id="envelope" viewBox="0 0 16 16">
  <title>envelope</title><path d="M14.4,1.6H1.6A1.6,1.6,0,0,0,0,3.2v9.6a1.6,1.6,0,0,0,1.6,1.6H14.4A1.6,1.6,0,0,0,16,12.8V3.2A1.6,1.6,0,0,0,14.4,1.6ZM8,9.5,1.41,5.55l.83-1.37L8,7.64l5.76-3.46.83,1.37Z"></path>
</symbol>

<symbol id="exchange" viewBox="0 0 16 16">
  <title>exchange</title><path d="M13.22,8.37H15v2.85a1.83,1.83,0,0,1-1.82,1.83H3.05V14.9L0,12.11,3.05,9.32v2h10.1ZM2.7,4.5H12.8v2l3-2.79L12.8.9V2.75H2.7A1.83,1.83,0,0,0,.88,4.58V7.43H2.63Z"></path>
</symbol>

<symbol id="exclamation-triangle" viewBox="0 0 16 16">
  <title>exclamation-triangle</title><path d="M15.67,13.68l-7-12.12a.77.77,0,0,0-1.32,0l-7,12.12A.75.75,0,0,0,1,14.81H15A.75.75,0,0,0,15.67,13.68ZM8.76,12.54H7.24V11H8.76Zm0-3H7.24v-3H8.76Z"></path>
</symbol>

<symbol id="faders" viewBox="0 0 16 16">
  <title>faders</title><path d="M9.05,8.76V1.31h-2V8.76a2.74,2.74,0,0,0,0,5.11v1.44h2V13.87a2.74,2.74,0,0,0,0-5.11Zm-1,3.8A1.25,1.25,0,1,1,9.3,11.31,1.25,1.25,0,0,1,8.05,12.56Z"></path><path d="M14.05,3.76V1.31h-2V3.76a2.74,2.74,0,0,0,0,5.11v6.44h2V8.87a2.74,2.74,0,0,0,0-5.11Zm-1,3.8A1.25,1.25,0,1,1,14.3,6.31,1.25,1.25,0,0,1,13.05,7.56Z"></path><path d="M3.05.56a2.75,2.75,0,0,0-1,5.31v9.44h2V5.87a2.75,2.75,0,0,0-1-5.31Zm0,4A1.25,1.25,0,1,1,4.3,3.31,1.25,1.25,0,0,1,3.05,4.56Z"></path>
</symbol>

<symbol id="folder-open" viewBox="0 0 16 16">
  <title>folder-open</title><path d="M0,3.64A1.46,1.46,0,0,1,1.46,2.18H5.52A.7.7,0,0,1,6,2.4l1,1a.73.73,0,0,0,.52.22h5.51a1.46,1.46,0,0,1,1.46,1.45v.73H2.93A2.9,2.9,0,0,0,0,8.41M14.55,7.27H2.93a1.47,1.47,0,0,0-1.45,1.3l-.4,3.63a1.46,1.46,0,0,0,1.45,1.62H14.14a1.46,1.46,0,0,0,1.45-1.3L16,8.89A1.46,1.46,0,0,0,14.55,7.27Z"></path>
</symbol>

<symbol id="folder" viewBox="0 0 16 16">
  <title>folder</title><path d="M6.67,2a.75.75,0,0,0-.55-.23H1.78A1.55,1.55,0,0,0,.23,3.33v9.34a1.56,1.56,0,0,0,1.56,1.55H14.22a1.56,1.56,0,0,0,1.56-1.55V4.89a1.56,1.56,0,0,0-1.56-1.56H8.32a.82.82,0,0,1-.55-.22Z"></path>
</symbol>

<symbol id="from-cloud-arrow" viewBox="0 0 16 16">
  <title>from-cloud-arrow</title><path d="M11.33,8.67,8,12,4.67,8.67h2V6H9.33V8.67Zm1.57-2A5,5,0,0,0,3.57,5.36a4,4,0,0,0,.43,8h8.67a3.32,3.32,0,0,0,.23-6.64Z"></path>
</symbol>

<symbol id="heart" viewBox="0 0 16 16">
  <title>heart</title><path d="M8,15.42,6.85,14.37C2.76,10.67.07,8.22.07,5.22A4.32,4.32,0,0,1,4.43.86,4.73,4.73,0,0,1,8,2.52,4.73,4.73,0,0,1,11.57.86a4.32,4.32,0,0,1,4.36,4.36c0,3-2.69,5.45-6.78,9.16Z"></path>
</symbol>

<symbol id="horizontal-bars" viewBox="0 0 24 24">
  <title>horizontal-bars</title><path d="M3,7V9H21V7Zm0,7H21V12H3Zm0,5H21V17H3Z"></path><g opacity="0.008"><rect x="-6" y="-6" width="24" height="24"></rect></g>
</symbol>

<symbol id="in-tray" viewBox="0 0 16 16">
  <title>in-tray</title><path d="M11.56,6.22H9.78V3.56H6.22V6.22H4.44L8,9.78Zm2.66,4.45H10.67a2.67,2.67,0,0,1-5.34,0H1.77V1.78H14.22ZM14.22,0H1.77A1.76,1.76,0,0,0,0,1.78V14.22A1.77,1.77,0,0,0,1.77,16H14.22A1.78,1.78,0,0,0,16,14.22V1.78A1.78,1.78,0,0,0,14.22,0Z"></path>
</symbol>

<symbol id="info-circle" viewBox="0 0 16 16">
  <title>info-circle</title><path d="M8.8,5.6H7.2V4H8.8Zm0,6.4H7.2V7.2H8.8ZM8,0a8,8,0,1,0,8,8A8,8,0,0,0,8,0Z"></path>
</symbol>

<symbol id="into-box" viewBox="0 0 16 16">
  <title>into-box</title><path d="M14.22,0H1.78A1.78,1.78,0,0,0,0,1.78V5.33H1.78V1.78H14.22V14.22H1.78V10.67H0v3.55A1.78,1.78,0,0,0,1.78,16H14.22A1.78,1.78,0,0,0,16,14.22V1.78A1.78,1.78,0,0,0,14.22,0ZM6.3,11.19l1.26,1.25L12,8,7.56,3.56,6.3,4.81l2.3,2.3H0V8.89H8.6Z"></path>
</symbol>

<symbol id="laptop" viewBox="0 0 16 16">
  <title>laptop</title><path d="M15.66,12.42l-1.38-2.06V3.29a1.57,1.57,0,0,0-1.57-1.57H3.29A1.57,1.57,0,0,0,1.72,3.29v7.07L.34,12.42a1,1,0,0,0-.19.69v.39a.84.84,0,0,0,.78.78H15.07a.84.84,0,0,0,.78-.78v-.39a1,1,0,0,0-.19-.69Zm-10,.29.47-.78H9.88l.48.78Zm7.07-3.14H3.29V3.29h9.42Z"></path>
</symbol>

<symbol id="left-arrow" viewBox="0 0 16 16">
  <title>left-arrow</title><polygon points="15.65 6.74 4.85 6.74 9.82 1.78 8.04 0 0.04 8 8.04 16 9.82 14.22 4.85 9.26 15.65 9.26 15.65 6.74"></polygon>
</symbol>

<symbol id="left-caret" viewBox="0 0 16 16">
  <title>left-caret</title><polygon points="10 3 5 8 10 13 10 3"></polygon>
</symbol>

<symbol id="left-chevron" viewBox="0 0 16 16">
  <title>left-chevron</title><path d="M10.21,16l-8-7.95,8-8L12,1.86,5.79,8.05,12,14.23Z"></path>
</symbol>

<symbol id="link" viewBox="0 0 16 16">
  <title>link</title><path d="M6.2,12.43H4.43a4.43,4.43,0,0,1,0-8.86H6.2V5.34H4.43a2.66,2.66,0,0,0,0,5.32H6.2ZM16,8a4.44,4.44,0,0,0-4.43-4.43H9.75V5.34h1.77a2.66,2.66,0,0,1,0,5.32H9.75v1.77h1.77A4.44,4.44,0,0,0,16,8Zm-4.43-.89H4.43V8.89h7.09Z"></path>
</symbol>

<symbol id="location-pin" viewBox="0 0 16 16">
  <title>location-pin</title><path d="M12.52,1.9A6.41,6.41,0,0,0,3,10.52l4.94,6,4.95-6A6.41,6.41,0,0,0,12.52,1.9ZM8,8.51A1.83,1.83,0,1,1,9.81,6.68,1.82,1.82,0,0,1,8,8.51Z"></path>
</symbol>

<symbol id="lock" viewBox="0 0 16 16">
  <title>lock</title><path d="M12.59,5.31h-.76V3.8a3.78,3.78,0,0,0-7.56,0V5.31H3.51A1.52,1.52,0,0,0,2,6.83v7.56A1.52,1.52,0,0,0,3.51,15.9h9.08a1.52,1.52,0,0,0,1.51-1.51V6.83A1.52,1.52,0,0,0,12.59,5.31ZM8.05,12.12a1.51,1.51,0,1,1,1.51-1.51A1.52,1.52,0,0,1,8.05,12.12ZM10.4,5.31H5.71V3.8a2.35,2.35,0,0,1,4.69,0Z"></path>
</symbol>

<symbol id="minus-circle" viewBox="0 0 16 16">
  <title>minus-circle</title><path d="M12,8.8H4V7.2h8ZM8,0a8,8,0,1,0,8,8A8,8,0,0,0,8,0Z"></path>
</symbol>

<symbol id="mobile-phone" viewBox="0 0 16 16">
  <title>mobile-phone</title><rect x="7.25" y="12.75" width="1.5" height="1.5" rx="0.75" fill="#fff"></rect><path d="M11.57,13H4.43V3h7.14Zm0-12.85H4.43A1.44,1.44,0,0,0,3,1.57V14.43a1.44,1.44,0,0,0,1.43,1.43h7.14A1.44,1.44,0,0,0,13,14.43V1.57A1.43,1.43,0,0,0,11.57.15Z"></path>
</symbol>

<symbol id="outlined-blank-file" viewBox="0 0 16 16">
  <title>outlined-blank-file</title><path d="M10.42,0H2.77A1.14,1.14,0,0,0,1.63,1.14V14.87A1.14,1.14,0,0,0,2.77,16H13.28a1.14,1.14,0,0,0,1.14-1.14V4Zm2.39,4.67v.24H9.6V1.61h.15Zm0,9.73H3.24V1.61H8V6.52h4.83Z"></path>
</symbol>

<symbol id="outlined-circle-check" viewBox="0 0 16 16">
  <title>outlined-circle-check</title><path d="M8,1.78A6.22,6.22,0,1,1,1.83,8,6.21,6.21,0,0,1,8,1.78M8,.12A7.88,7.88,0,1,0,15.85,8,7.86,7.86,0,0,0,8,.12Z"></path><polygon points="10.89 5.05 7.03 8.93 5.14 7.03 3.97 8.21 7.03 11.29 7.08 11.24 7.08 11.24 12.06 6.23 10.89 5.05"></polygon>
</symbol>

<symbol id="outlined-clock" viewBox="0 0 16 16">
  <title>outlined-clock</title><path d="M8,2.29A5.71,5.71,0,1,1,2.29,8,5.71,5.71,0,0,1,8,2.29M8,0a8,8,0,1,0,8,8A8,8,0,0,0,8,0Zm3.79,9.2L9.14,8.32V4.57H6.86V10l4.21,1.4Z"></path>
</symbol>

<symbol id="outlined-credit-card" viewBox="0 0 16 16">
  <title>outlined-credit-card</title><path d="M16,3.2V4.8H0V3.2A1.58,1.58,0,0,1,1.6,1.6H14.4A1.59,1.59,0,0,1,16,3.2Z"></path><path d="M0,6.4v6.4a1.59,1.59,0,0,0,1.6,1.6H14.4A1.59,1.59,0,0,0,16,12.8V6.4Zm12,4.8H10.4a.8.8,0,1,1,0-1.6H12a.8.8,0,0,1,0,1.6Z"></path>
</symbol>

<symbol id="outlined-envelope" viewBox="0 0 16 16">
  <title>outlined-envelope</title><path d="M14.4,1.6H1.6A1.6,1.6,0,0,0,0,3.2v9.6a1.6,1.6,0,0,0,1.6,1.6H14.4A1.6,1.6,0,0,0,16,12.8V3.2A1.6,1.6,0,0,0,14.4,1.6Zm0,1.6V4L8,7.83,1.6,4V3.2ZM1.6,12.8V5.86L8,9.7l6.4-3.84V12.8Z"></path>
</symbol>

<symbol id="outlined-heart" viewBox="0 0 16 16">
  <title>outlined-heart</title><path d="M11.6,2.92A2.23,2.23,0,0,1,13.87,5.2c0,2-2.31,4.18-5.87,7.41C4.44,9.39,2.11,7.23,2.11,5.2A2.23,2.23,0,0,1,4.39,2.92a2.63,2.63,0,0,1,2,.93L8,5.75l1.62-1.9a2.67,2.67,0,0,1,2-.93m0-2.13A4.8,4.8,0,0,0,8,2.47,4.78,4.78,0,0,0,4.39.79,4.36,4.36,0,0,0,0,5.2c0,3,2.72,5.49,6.84,9.23L8,15.49l1.16-1.05C13.28,10.69,16,8.22,16,5.2A4.36,4.36,0,0,0,11.6.79Z"></path>
</symbol>

<symbol id="outlined-info-circle" viewBox="0 0 16 16">
  <title>outlined-info-circle</title><path d="M7.2,5.6H8.8V4H7.2ZM8,14.4A6.4,6.4,0,1,1,14.4,8,6.41,6.41,0,0,1,8,14.4ZM8,0a8,8,0,1,0,8,8A8,8,0,0,0,8,0ZM7.2,12H8.8V7.2H7.2Z"></path>
</symbol>

<symbol id="outlined-location-pin" viewBox="0 0 16 16">
  <title>outlined-location-pin</title><path d="M8,2.14a4.3,4.3,0,0,1,3.32,7L8,13.18l-3.31-4A4.3,4.3,0,0,1,8,2.14M8,0A6.41,6.41,0,0,0,3.44,1.88h0A6.44,6.44,0,0,0,3,10.53l5,6,5-6a6.44,6.44,0,0,0-.42-8.65h0A6.42,6.42,0,0,0,8,0Z"></path><circle cx="7.98" cy="6.54" r="2"></circle>
</symbol>

<symbol id="outlined-plus-circle" viewBox="0 0 16 16">
  <title>outlined-plus-circle</title><path d="M8,0a8,8,0,1,0,8,8A8,8,0,0,0,8,0ZM8,13.71A5.71,5.71,0,1,1,13.71,8,5.71,5.71,0,0,1,8,13.71ZM9.14,6.86h2.29V9.14H9.14v2.29H6.86V9.14H4.57V6.86H6.86V4.57H9.14Z"></path>
</symbol>

<symbol id="outlined-question-circle" viewBox="0 0 16 16">
  <title>outlined-question-circle</title><path d="M8,3.2A3.2,3.2,0,0,0,4.8,6.4H6.4a1.6,1.6,0,1,1,3.2,0c0,1.6-2.4,1.4-2.4,4H8.8c0-1.8,2.4-2,2.4-4A3.2,3.2,0,0,0,8,3.2ZM8,14.4A6.4,6.4,0,1,1,14.4,8,6.41,6.41,0,0,1,8,14.4ZM8,0a8,8,0,1,0,8,8A8,8,0,0,0,8,0ZM7.2,12.8H8.8V11.2H7.2Z"></path>
</symbol>

<symbol id="outlined-text-file" viewBox="0 0 16 16">
  <title>outlined-text-file</title><path d="M10.47,0H2.82A1.15,1.15,0,0,0,1.67,1.14V14.87A1.15,1.15,0,0,0,2.82,16h10.5a1.14,1.14,0,0,0,1.15-1.14V4Zm2.38,4.67v.24H9.58V1.61H9.8Zm0,9.73H3.29V1.61H8V6.52h4.88ZM10.43,9.61H5.59V8h4.84Zm0,2.43H5.59V10.42h4.84Z"></path>
</symbol>

<symbol id="outlined-two-blank-files" viewBox="0 0 16 16">
  <title>outlined-two-blank-files</title><path d="M11.21,1.6,13.6,4V11.2h-8V1.6h5.61M11.88,0H5A1,1,0,0,0,4,1v10.9a.94.94,0,0,0,1,1h9.3a.94.94,0,0,0,.95-1V3.32L11.88,0Zm2.37,4h-3V1H9.65v4.6h4.6ZM12,14.4H2.55a.14.14,0,0,1-.15-.15V3.2H.8V14.25A1.75,1.75,0,0,0,2.55,16H12Z"></path>
</symbol>

<symbol id="outlined-x-circle" viewBox="0 0 16 16">
  <title>outlined-x-circle</title><path d="M13.66,2.34a8,8,0,1,0,0,11.32A8,8,0,0,0,13.66,2.34ZM12,12A5.71,5.71,0,0,1,4,4,5.71,5.71,0,0,1,12,12Zm-.81-5.66L9.62,8l1.61,1.62L9.62,11.23,8,9.62,6.38,11.23,4.77,9.62,6.38,8,4.77,6.38,6.38,4.77,8,6.38,9.62,4.77Z"></path>
</symbol>

<symbol id="pencil-person" viewBox="0 0 16 16">
  <title>pencil-person</title><path d="M5.45,5.61a.31.31,0,0,0,0-.44l-.72-.72a.3.3,0,0,0-.43,0L3.73,5,4.89,6.17ZM0,8.75V9.91H1.15L4.3,6.76,3.14,5.61Zm16,3.61v1.46H4.36V12.36c0-1.93,3.88-2.91,5.82-2.91S16,10.43,16,12.36ZM7.27,5.09A2.91,2.91,0,1,1,10.18,8,2.91,2.91,0,0,1,7.27,5.09Z"></path>
</symbol>

<symbol id="pencil" viewBox="0 0 16 16">
  <title>pencil</title><path d="M15.71,3.76a.87.87,0,0,0,0-1.23l-2-2a.88.88,0,0,0-1.24,0l-1.6,1.6,3.28,3.28ZM.23,12.69V16H3.51l9-9L9.19,3.72Z"></path>
</symbol>

<symbol id="person-badge" viewBox="0 0 16 16">
  <title>person-badge</title><path d="M12.67,14.3H3.13V13.19c0-1.59,3.18-2.46,4.77-2.46s4.77.87,4.77,2.46ZM7.9,4.77A2.38,2.38,0,1,1,5.52,7.15,2.37,2.37,0,0,1,7.9,4.77Zm0-3.18a.8.8,0,1,1-.79.79A.79.79,0,0,1,7.9,1.59Zm5.56,0H10.14a2.37,2.37,0,0,0-4.48,0H2.34A1.59,1.59,0,0,0,.75,3.18V14.3a1.59,1.59,0,0,0,1.59,1.59H13.46a1.59,1.59,0,0,0,1.59-1.59V3.18A1.59,1.59,0,0,0,13.46,1.59Z"></path>
</symbol>

<symbol id="person" viewBox="0 0 16 16">
  <title>person</title><path d="M8,10c-2.67,0-8,1.34-8,4v2H16V14C16,11.34,10.67,10,8,10ZM8,8A4,4,0,1,0,4,4,4,4,0,0,0,8,8Z"></path>
</symbol>

<symbol id="pico" viewBox="0 0 16 16">
  <title>pico</title><path d="M8,3.67A1.64,1.64,0,1,1,9.64,2,1.63,1.63,0,0,1,8,3.67ZM4.33,8.05c-.61,0-1.1.74-1.1,1.65s.49,1.64,1.1,1.64S5.42,10.6,5.42,9.7,4.93,8.05,4.33,8.05Zm7.34,0c-.6,0-1.09.74-1.09,1.65s.49,1.64,1.09,1.64,1.1-.74,1.1-1.64S12.28,8.05,11.67,8.05ZM8,6.31A17.85,17.85,0,0,0,3.07,7a1.74,1.74,0,0,0-1.2,1.67v2.09a1.74,1.74,0,0,0,1.2,1.67A17.85,17.85,0,0,0,8,13.09a17.85,17.85,0,0,0,4.93-.68,1.74,1.74,0,0,0,1.2-1.67V8.65A1.74,1.74,0,0,0,12.93,7,17.85,17.85,0,0,0,8,6.31M8,4.77a19.13,19.13,0,0,1,5.36.74,3.26,3.26,0,0,1,2.31,3.14v2.09a3.26,3.26,0,0,1-2.31,3.14A18.77,18.77,0,0,1,8,14.62a18.77,18.77,0,0,1-5.36-.74A3.26,3.26,0,0,1,.33,10.74V8.65A3.26,3.26,0,0,1,2.64,5.51,19.13,19.13,0,0,1,8,4.77ZM6.9,10.24a1.1,1.1,0,0,0,2.2,0"></path>
</symbol>

<symbol id="plus-circle" viewBox="0 0 16 16">
  <title>plus-circle</title><path d="M12,8.8H8.8V12H7.2V8.8H4V7.2H7.2V4H8.8V7.2H12ZM8,0a8,8,0,1,0,8,8A8,8,0,0,0,8,0Z"></path>
</symbol>

<symbol id="plus-person" viewBox="0 0 16 16">
  <title>plus-person</title><path d="M10.34,9.39c-2,0-5.91,1-5.91,2.95v1.48H16.25V12.34C16.25,10.38,12.31,9.39,10.34,9.39Zm-6.65-3V4.22H2.22V6.43H0V7.91H2.22v2.21H3.69V7.91H5.91V6.43Zm6.65,1.48A3,3,0,1,0,7.39,5,3,3,0,0,0,10.34,7.91Z"></path>
</symbol>

<symbol id="plus" viewBox="0 0 16 16">
  <title>plus</title><polygon points="9.14 16 6.86 16 6.86 9.14 0 9.14 0 6.86 6.86 6.86 6.86 0 9.14 0 9.14 6.86 16 6.86 16 9.14 9.14 9.14 9.14 16"></polygon>
</symbol>

<symbol id="printer" viewBox="0 0 16 16">
  <title>printer</title><path d="M12.67,1H3.33V3.33h9.34Zm.77,7a.78.78,0,1,1,.78-.78A.78.78,0,0,1,13.44,8Zm-2.33,5.44H4.89V9.56h6.22Zm2.33-8.55H2.56A2.33,2.33,0,0,0,.22,7.22v4.67H3.33V15h9.34V11.89h3.11V7.22A2.33,2.33,0,0,0,13.44,4.89Z"></path>
</symbol>

<symbol id="question-circle" viewBox="0 0 16 16">
  <title>question-circle</title><path d="M8,0a8,8,0,1,0,8,8A8,8,0,0,0,8,0Zm.8,12.8H7.2V11.2H8.8Zm0-2.4H7.2c0-2.6,2.4-2.4,2.4-4a1.6,1.6,0,1,0-3.2,0H4.8a3.2,3.2,0,1,1,6.4,0C11.2,8.4,8.8,8.6,8.8,10.4Z"></path>
</symbol>

<symbol id="reduced-horizontal-bars" viewBox="0 0 24 24">
  <title>reduced-horizontal-bars</title><g opacity="0.008"><rect x="-6" y="-6" width="24" height="24"></rect></g><path d="M6,13H18V11H6ZM3,6V8H21V6Zm7,12h4V16H10Z"></path>
</symbol>

<symbol id="right-arrow" viewBox="0 0 16 16">
  <title>right-arrow</title><polygon points="7.62 0 5.84 1.78 10.81 6.74 0.01 6.74 0.01 9.26 10.81 9.26 5.84 14.22 7.62 16 15.62 8 7.62 0"></polygon>
</symbol>

<symbol id="right-caret" viewBox="0 0 16 16">
  <title>right-caret</title><polygon points="6 13 11 8 6 3 6 13"></polygon>
</symbol>

<symbol id="right-chevron" viewBox="0 0 16 16">
  <title>right-chevron</title><polygon points="5.79 16 4.03 14.23 10.21 8.04 4.03 1.86 5.79 0.09 13.75 8.04 5.79 16"></polygon>
</symbol>

<symbol id="search" viewBox="0 0 16 16">
  <title>search</title><path d="M7,2a4.91,4.91,0,0,1,3.5,1.45A4.94,4.94,0,0,1,7,11.89a4.94,4.94,0,0,1-3.5-8.44A4.89,4.89,0,0,1,7,2M7,0a6.95,6.95,0,1,0,4.91,2A7,7,0,0,0,7,0Zm9.76,15.29-5-5-1.42,1.42,5,5ZM7,2a4.91,4.91,0,0,1,3.5,1.45A4.94,4.94,0,0,1,7,11.89a4.94,4.94,0,0,1-3.5-8.44A4.89,4.89,0,0,1,7,2M7,0a6.95,6.95,0,1,0,4.91,2A7,7,0,0,0,7,0Zm9.76,15.29-5-5-1.42,1.42,5,5Z"></path>
</symbol>

<symbol id="star-circle" viewBox="0 0 16 16">
  <title>star-circle</title><path d="M8,0a8,8,0,1,0,8,8A8,8,0,0,0,8,0Zm3.53,13L8,11.15,4.48,13l.67-3.92L2.3,6.31l3.94-.58L8,2.17,9.76,5.73l3.94.58L10.85,9.08Z"></path>
</symbol>

<symbol id="star-square" viewBox="0 0 16 16">
  <title>star-square</title><path d="M15.2,0H.8A.8.8,0,0,0,0,.8V15.2a.8.8,0,0,0,.8.8H15.2a.8.8,0,0,0,.8-.8V.8A.8.8,0,0,0,15.2,0ZM11.46,13.15,8,11.34,4.54,13.15,5.2,9.3,2.4,6.58,6.27,6,8,2.51,9.73,6l3.87.56L10.8,9.3Z"></path>
</symbol>

<symbol id="star" viewBox="0 0 16 16">
  <title>star</title><path d="M8,0l2.56,5.17L16.27,6l-4.14,4,1,5.68L8,13,2.89,15.71l1-5.68L-.27,6l5.71-.83Z"></path>
</symbol>

<symbol id="text-file" viewBox="0 0 16 16">
  <title>text-file</title><path d="M11.11,3.33V.23l3.11,3.1Zm3.11,2.34V15a.78.78,0,0,1-.78.78H2.56A.78.78,0,0,1,1.78,15V1A.77.77,0,0,1,2.56.23H8.78A.77.77,0,0,1,9.56,1V4.89h3.88A.78.78,0,0,1,14.22,5.67Zm-3.11,4.66H4.89v1.56h6.22Zm0-3.11H4.89V8.78h6.22Z"></path>
</symbol>

<symbol id="thick-from-bottom-arrow" viewBox="0 0 16 16">
  <title>thick-from-bottom-arrow</title><path d="M14.73,14.12V16H1.6V14.12ZM1.6,6.62H5.35v5.63H11V6.62h3.75L8.16.06Z"></path>
</symbol>

<symbol id="thick-to-bottom-arrow" viewBox="0 0 16 16">
  <title>thick-to-bottom-arrow</title><path d="M1.45,14.12V16H14.63V14.12ZM14.63,5.65H10.86V0H5.21V5.65H1.45L8,12.24Z"></path>
</symbol>

<symbol id="three-horizontal-bars" viewBox="0 0 16 16">
  <title>three-horizontal-bars</title><path d="M0,2.47V4.24H16V2.47ZM0,8.69H16V6.91H0Zm0,4.44H16V11.36H0Z"></path>
</symbol>

<symbol id="three-horizontal-list-items" viewBox="0 0 16 16">
  <title>three-horizontal-list-items</title><path d="M3.56,3.56V5.33H16V3.56Zm0,8.88H16V10.67H3.56Zm0-3.55H16V7.11H3.56ZM0,5.33H1.78V3.56H0Zm0,7.11H1.78V10.67H0ZM0,8.89H1.78V7.11H0Z"></path>
</symbol>

<symbol id="three-reducing-horizontal-bars" viewBox="0 0 16 16">
  <title>three-reducing-horizontal-bars</title><rect x="-0.29" y="1.91" width="16.29" height="2.72"></rect><rect x="2.42" y="7.34" width="10.86" height="2.72"></rect><rect x="5.82" y="12.77" width="4.07" height="2.72"></rect>
</symbol>

<symbol id="to-cloud-arrow" viewBox="0 0 16 16">
  <title>to-cloud-arrow</title><path d="M9.33,8.67v2.66H6.67V8.67h-2L8,5.33l3.33,3.34Zm3.57-2A5,5,0,0,0,3.57,5.36a4,4,0,0,0,.43,8h8.67a3.32,3.32,0,0,0,.23-6.64Z"></path>
</symbol>

<symbol id="trash" viewBox="0 0 16 16">
  <title>trash</title><path d="M12.36,1H11.05L10.18.16H5.82L5,1H3.64A1.74,1.74,0,0,0,1.9,2.77v.87H14.1V2.77A1.74,1.74,0,0,0,12.36,1ZM2.77,14.1a1.75,1.75,0,0,0,1.74,1.74h7a1.75,1.75,0,0,0,1.74-1.74V6.26H2.77Z"></path>
</symbol>

<symbol id="tray" viewBox="0 0 16 16">
  <title>tray</title><path d="M4.44,6.86H6.22V9.53H9.78V6.86h1.78L8,3.31Zm9.78,3.81H10.67a2.67,2.67,0,0,1-5.34,0H1.77V1.78H14.22ZM14.22,0H1.77A1.75,1.75,0,0,0,0,1.78V14.22A1.77,1.77,0,0,0,1.77,16H14.22A1.78,1.78,0,0,0,16,14.22V1.78A1.78,1.78,0,0,0,14.22,0Z"></path>
</symbol>

<symbol id="two-blank-files" viewBox="0 0 16 16">
  <title>two-blank-files</title><path d="M12.4,2.81V.17l2.65,2.64ZM10.2.17H5.12a.87.87,0,0,0-.88.88V11.64a.87.87,0,0,0,.88.88h9.05a.88.88,0,0,0,.88-.88V5a.89.89,0,0,0-.88-.89H11.08V1.05A.88.88,0,0,0,10.2.17ZM12,14.07H2.84a.15.15,0,0,1-.15-.15V3.26H1.15V13.92a1.69,1.69,0,0,0,1.69,1.69H12Z"></path>
</symbol>

<symbol id="two-people" viewBox="0 0 16 16">
  <title>two-people</title><path d="M10.88,8.78c-.21,0-.45,0-.7,0a3.07,3.07,0,0,1,1.43,2.5v1.81H16V11.32C16,9.63,12.57,8.78,10.88,8.78Zm-5.8,0C3.39,8.78,0,9.63,0,11.32v1.81H10.16V11.32C10.16,9.63,6.77,8.78,5.08,8.78Zm0-1.45A2.18,2.18,0,1,0,2.91,5.16,2.17,2.17,0,0,0,5.08,7.33Zm5.8,0A2.18,2.18,0,1,0,8.71,5.16,2.16,2.16,0,0,0,10.88,7.33Z"></path>
</symbol>

<symbol id="up-arrow" viewBox="0 0 16 16">
  <title>up-arrow</title><polygon points="16 8 8 0 0 8 1.78 9.78 6.74 4.81 6.74 15.61 9.26 15.61 9.26 4.81 14.22 9.78 16 8"></polygon>
</symbol>

<symbol id="up-caret" viewBox="0 0 16 16">
  <title>up-caret</title><polygon points="13 10 8 5 3 10 13 10"></polygon>
</symbol>

<symbol id="up-chevron" viewBox="0 0 16 16">
  <title>up-chevron</title><polygon points="14.23 12.07 8.03 5.87 1.84 12.07 0.07 10.3 8.03 2.33 16 10.3 14.23 12.07"></polygon>
</symbol>

<symbol id="x-circle" viewBox="0 0 16 16">
  <title>x-circle</title><path d="M10.15,11.23,8,9.08,5.85,11.23,4.77,10.15,6.92,8,4.77,5.85,5.85,4.77,8,6.92l2.15-2.15,1.08,1.08L9.08,8l2.15,2.15Zm3.23-8.61a7.61,7.61,0,1,0,0,10.76A7.59,7.59,0,0,0,13.38,2.62Z"></path>
</symbol>

<symbol id="x" viewBox="0 0 16 16">
  <title>x</title><polygon points="15.58 2.33 13.68 0.43 7.98 6.13 2.28 0.43 0.38 2.33 6.08 8.04 0.38 13.73 2.28 15.63 7.98 9.94 13.68 15.63 15.58 13.73 9.88 8.04 15.58 2.33"></polygon>
</symbol>
    </svg>