<svg xmlns="http://www.w3.org/2000/svg" xmlns:xlink="http://www.w3.org/1999/xlink">
    
<symbol id="anonymous" viewBox="0 0 16 16">
  <title>anonymous</title><path d="M12.516,12.136c-2.093-.762-2.761-1.4-2.761-2.783,0-.826.638-.556.919-2.07.116-.629.681-.011.789-1.444,0-.572-.308-.714-.308-.714s.156-.846.217-1.5C11.448,2.818,10.9.723,8,.723s-3.449,2.1-3.372,2.906c.061.65.217,1.5.217,1.5s-.308.142-.308.714c.108,1.433.672.815.789,1.444.281,1.514.919,1.244.919,2.07,0,1.378-.668,2.021-2.761,2.783S.022,13.681.022,14.213V16H15.978V14.213C15.978,13.681,14.615,12.9,12.516,12.136Zm-3.91-2.83A.865.865,0,0,1,7.391,8.077.818.818,0,0,1,8,7.836a.827.827,0,0,1,.61.241.816.816,0,0,1,.247.613A.824.824,0,0,1,8.606,9.306Zm.729-3.877a3.986,3.986,0,0,0-.4.485,2.454,2.454,0,0,0-.286.537.943.943,0,0,0-.055.54H7.443a1.372,1.372,0,0,1,.021-.629,2.35,2.35,0,0,1,.25-.6,3.362,3.362,0,0,1,.376-.509c.14-.156.274-.312.4-.461A3.283,3.283,0,0,0,8.8,4.343a.937.937,0,0,0,.125-.47.861.861,0,0,0-.244-.638A.931.931,0,0,0,8,3a1.359,1.359,0,0,0-.638.152,2.133,2.133,0,0,0-.534.418L6.1,2.919a2.929,2.929,0,0,1,.867-.687A2.33,2.33,0,0,1,8.1,1.96a2.95,2.95,0,0,1,.845.117,1.916,1.916,0,0,1,.672.347A1.542,1.542,0,0,1,10.052,3a1.916,1.916,0,0,1,.153.79,1.466,1.466,0,0,1-.131.631,2.86,2.86,0,0,1-.324.531A5.58,5.58,0,0,1,9.335,5.429Z"></path>
</symbol>

<symbol id="arrow-up-trend-circle-o" viewBox="0 0 16 16">
  <title>arrow-up-trend-circle-o</title><path d="M8.048.533a7.5,7.5,0,1,0,7.5,7.5A7.5,7.5,0,0,0,8.048.533Zm0,13.393a5.892,5.892,0,0,1-4.91-2.64L6.071,8.354l2.518,2.518,2.3-2.3v.868h1.5V5.978H8.846v1.5H9.863L8.589,8.751,6.071,6.232,2.447,9.856a5.891,5.891,0,1,1,5.6,4.07Z"></path>
</symbol>

<symbol id="arrows-merging" viewBox="0 0 16 15.319">
  <title>arrows-merging</title><path d="M14.7,6.973,10.752,3.028A.971.971,0,1,0,9.379,4.4l2.286,2.287H7.31a4.356,4.356,0,0,1-4.35-4.35V1.02a.971.971,0,0,0-1.942,0V2.339A6.288,6.288,0,0,0,3.967,7.66a6.285,6.285,0,0,0-2.949,5.32V14.3a.971.971,0,0,0,1.942,0V12.98A4.354,4.354,0,0,1,7.31,8.631h4.355L9.379,10.917a.971.971,0,0,0,1.373,1.374L14.7,8.346A.971.971,0,0,0,14.7,6.973Z"></path>
</symbol>

<symbol id="batches-group" viewBox="0 0 16 16">
  <title>batches-group</title><path d="M14.257,5.318V5.039a.73.73,0,0,0-.73-.731H2.4a.73.73,0,0,0-.73.731v6.908a.73.73,0,0,0,.73.73h.254V6.645A1.328,1.328,0,0,1,3.981,5.318Zm.851.6H3.981a.731.731,0,0,0-.731.731v6.908a.73.73,0,0,0,.731.73H15.108a.73.73,0,0,0,.73-.73V6.645A.73.73,0,0,0,15.108,5.914ZM8.458,7.561a.743.743,0,0,1,1,.081l.1.1.1-.1a.732.732,0,1,1,1.055,1.014l-.126.129-.945.961a.112.112,0,0,1-.162,0L8.4,8.656A.747.747,0,0,1,8.458,7.561ZM15,13.277a.438.438,0,0,1-.615-.055l-2.053-2.456L9.816,12.953a.435.435,0,0,1-.574,0l-2.5-2.175L4.7,13.222a.437.437,0,0,1-.671-.561L6.084,10.2,4.391,8.73a.437.437,0,0,1,.574-.659L9.53,12.044l4.647-4.035a.437.437,0,1,1,.574.659L13,10.193l2.063,2.468A.437.437,0,0,1,15,13.277ZM12.667,3.728v-.28a.73.73,0,0,0-.73-.73H.81a.73.73,0,0,0-.731.73v6.908a.73.73,0,0,0,.731.73h.254V5.054A1.328,1.328,0,0,1,2.39,3.728Z"></path>
</symbol>

<symbol id="batches" viewBox="0 0 16 16">
  <title>batches</title><path d="M8.191,5.6l-.205.209L7.781,5.6A1.547,1.547,0,1,0,5.552,7.744l.266.272,2,2.032a.239.239,0,0,0,.343,0l2.263-2.3A1.547,1.547,0,1,0,8.191,5.6Zm7,.311L13.433,4.718l.005-.949a1.546,1.546,0,0,0-1.563-1.528h-.986L9.283,1.2A2.082,2.082,0,0,0,8.006.756H7.981A2.082,2.082,0,0,0,6.7,1.2L5.392,2.241H3.837A1.546,1.546,0,0,0,2.273,3.769l-.011.96L.663,5.98a1.262,1.262,0,0,0-.6,1.071V13.9a1.287,1.287,0,0,0,1.3,1.272H14.615a1.288,1.288,0,0,0,1.3-1.273V7.051A1.27,1.27,0,0,0,15.189,5.911Zm-.384,7.468a.46.46,0,0,1-.254.608.475.475,0,0,1-.62-.246l-2.313-2.867H4.368L2.055,13.741a.475.475,0,0,1-.62.246.46.46,0,0,1-.253-.608l2.37-3.233-2.338-2.1A.456.456,0,0,1,1.291,7.4a.481.481,0,0,1,.665.074L3.633,8.9V4.138a.532.532,0,0,1,.538-.526h7.616a.532.532,0,0,1,.539.526V9.022l1.7-1.552A.481.481,0,0,1,14.7,7.4a.456.456,0,0,1,.077.651l-2.338,2.189Z"></path>
</symbol>

<symbol id="bill" viewBox="0 0 16 16">
  <title>bill</title><g> <path d="M15.783,1.917a.671.671,0,0,0-.463-.176H.675a.7.7,0,0,0-.481.176A.546.546,0,0,0,0,2.335v10.8a.559.559,0,0,0,.194.434.692.692,0,0,0,.481.177H15.32a.667.667,0,0,0,.463-.177.556.556,0,0,0,.2-.434V2.335A.543.543,0,0,0,15.783,1.917Zm-1,8.264a1.881,1.881,0,0,0-.335-.034,2.475,2.475,0,0,0-2.472,2.4H4.035a2.475,2.475,0,0,0-2.472-2.4,1.8,1.8,0,0,0-.363.037V5.306a1.791,1.791,0,0,0,.363.038,2.476,2.476,0,0,0,2.472-2.4h7.936a2.476,2.476,0,0,0,2.472,2.4,1.787,1.787,0,0,0,.335-.035Z"></path> <path d="M10.33,4.973a3.407,3.407,0,0,0-1.054-.832,2.833,2.833,0,0,0-1.3-.3,2.863,2.863,0,0,0-1.3.3,3.377,3.377,0,0,0-1.058.832,3.931,3.931,0,0,0-.7,1.244,4.688,4.688,0,0,0,0,3.056,3.942,3.942,0,0,0,.705,1.244,3.406,3.406,0,0,0,1.058.832,2.908,2.908,0,0,0,2.593,0,3.406,3.406,0,0,0,1.058-.832,4.2,4.2,0,0,0,.72-1.244,4.49,4.49,0,0,0,0-3.056A4.187,4.187,0,0,0,10.33,4.973ZM9.319,9.665H6.681V9.1h.447a.285.285,0,0,0,.3-.325v-2.1H6.694V6.105h.17a.822.822,0,0,0,.855-.543H8.6V8.77a.285.285,0,0,0,.3.325h.42Z"></path> </g>
</symbol>

<symbol id="check-circle-stylized" viewBox="0 0 16 16">
  <title>check-circle-stylized</title><path d="M14.06,2.65A.76.76,0,0,0,13,2.476,17.531,17.531,0,0,0,7.975,8.413l-1.8-2.128a.758.758,0,0,0-1.158.979l2.554,3.021c.007.008.017.01.023.018a.783.783,0,0,0,.167.127,1.019,1.019,0,0,0,.091.06l.013.008a.748.748,0,0,0,.284.056h.007a.752.752,0,0,0,.231-.04.651.651,0,0,0,.071-.033.782.782,0,0,0,.148-.086c.011-.008.023-.011.034-.019s.017-.026.029-.037a.767.767,0,0,0,.124-.157.682.682,0,0,0,.041-.068c0-.012.014-.02.018-.031a16.573,16.573,0,0,1,5.033-6.375A.758.758,0,0,0,14.06,2.65Z"></path><path d="M15.321,5.764a.758.758,0,0,0-1.449.445A6.106,6.106,0,1,1,10.218,2.3.758.758,0,1,0,10.762.881a7.623,7.623,0,1,0,4.559,4.883Z"></path>
</symbol>

<symbol id="checkmark" viewBox="0 0 16 16">
  <title>checkmark</title><polygon points="12.86 2.928 6.376 9.451 3.204 6.261 1.23 8.245 6.37 13.416 6.455 13.328 6.458 13.333 14.833 4.912 12.86 2.928"></polygon>
</symbol>

<symbol id="clock-circle-o" viewBox="0 0 16 16">
  <title>clock-circle-o</title><polygon points="8.797 7.734 8.797 3.742 7.19 3.742 7.19 8.333 9.05 10.484 10.266 9.433 8.797 7.734"></polygon><path d="M7.994.533a7.5,7.5,0,1,0,7.5,7.5A7.5,7.5,0,0,0,7.994.533Zm0,13.393a5.893,5.893,0,1,1,5.893-5.893A5.9,5.9,0,0,1,7.994,13.926Z"></path>
</symbol>

<symbol id="communication" viewBox="0 0 16 15.319">
  <title>communication</title><path d="M8,9.34a3.36,3.36,0,0,0,3.36-3.361V4.3A3.183,3.183,0,0,0,8,.937H4.637A3.1,3.1,0,0,0,1.277,4.3,3.132,3.132,0,0,0,4.637,7.66H6.319A1.681,1.681,0,0,1,8,9.34Zm4.193-3.272A4.2,4.2,0,0,1,8,10.181H7.16V9.34a.841.841,0,0,0-.841-.84h-1.6a4.267,4.267,0,0,0-.083.809v1.744A3.36,3.36,0,0,0,8,14.382,1.68,1.68,0,0,1,9.681,12.7H11.36A3.133,3.133,0,0,0,14.723,9.34a3.011,3.011,0,0,0-2.53-3.272Z"></path>
</symbol>

<symbol id="defaults" viewBox="0 0 16 16">
  <title>defaults</title><path d="M3.112,6.652A2.044,2.044,0,1,1,5.156,4.608,2.046,2.046,0,0,1,3.112,6.652Zm0-3.588A1.544,1.544,0,1,0,4.656,4.608,1.546,1.546,0,0,0,3.112,3.064Z"></path><path d="M7.945,13.418a2.044,2.044,0,1,1,2.044-2.044A2.046,2.046,0,0,1,7.945,13.418Zm0-3.588a1.544,1.544,0,1,0,1.544,1.544A1.546,1.546,0,0,0,7.945,9.83Z"></path><path d="M12.778,9.552a2.044,2.044,0,1,1,2.044-2.044A2.046,2.046,0,0,1,12.778,9.552Zm0-3.588a1.544,1.544,0,1,0,1.544,1.544A1.546,1.546,0,0,0,12.778,5.964Z"></path><g> <path d="M3.112,2.814a1.777,1.777,0,0,1,.75.169V1.25a.75.75,0,0,0-1.5,0V2.983A1.777,1.777,0,0,1,3.112,2.814Z"></path> <path d="M3.112,6.4a1.777,1.777,0,0,1-.75-.169v8.491a.75.75,0,0,0,1.5,0V6.233A1.777,1.777,0,0,1,3.112,6.4Z"></path> </g><g> <path d="M7.945,9.58a1.777,1.777,0,0,1,.75.169V1.25a.75.75,0,0,0-1.5,0v8.5A1.777,1.777,0,0,1,7.945,9.58Z"></path> <path d="M7.945,13.168A1.777,1.777,0,0,1,7.2,13v1.725a.75.75,0,0,0,1.5,0V13A1.777,1.777,0,0,1,7.945,13.168Z"></path> </g><g> <path d="M12.778,5.714a1.777,1.777,0,0,1,.75.169V1.25a.75.75,0,0,0-1.5,0V5.883A1.777,1.777,0,0,1,12.778,5.714Z"></path> <path d="M12.778,9.3a1.777,1.777,0,0,1-.75-.169v5.591a.75.75,0,0,0,1.5,0V9.133A1.777,1.777,0,0,1,12.778,9.3Z"></path> </g>
</symbol>

<symbol id="donations" viewBox="0 0 16 16">
  <title>donations</title><path d="M8.206,6.2,8,6.406,7.793,6.2A1.562,1.562,0,1,0,5.542,8.361l.269.274,2.015,2.052a.243.243,0,0,0,.347,0l2.284-2.326A1.562,1.562,0,1,0,8.206,6.2ZM15.812,2.2a.683.683,0,0,0-.464-.171H.677A.707.707,0,0,0,.2,2.2.519.519,0,0,0,0,2.608V13.084a.533.533,0,0,0,.2.421.707.707,0,0,0,.482.171H15.348a.683.683,0,0,0,.464-.171.533.533,0,0,0,.2-.421V2.608A.519.519,0,0,0,15.812,2.2ZM14.564,9.886a2.917,2.917,0,0,0-1.045.186,2.681,2.681,0,0,0-.844.5,2.478,2.478,0,0,0-.568.739,1.965,1.965,0,0,0-.218.906H4.118a2,2,0,0,0-.214-.906,2.372,2.372,0,0,0-.569-.739,2.743,2.743,0,0,0-.847-.5,2.9,2.9,0,0,0-1.037-.186V5.8a2.9,2.9,0,0,0,1.037-.186,2.743,2.743,0,0,0,.847-.5A2.383,2.383,0,0,0,3.9,4.379a2,2,0,0,0,.214-.907h7.771a1.966,1.966,0,0,0,.218.907,2.491,2.491,0,0,0,.568.739,2.685,2.685,0,0,0,.847.5,2.936,2.936,0,0,0,1.042.186Z"></path>
</symbol>

<symbol id="download" viewBox="0 0 16 16">
  <title>download</title><polygon points="14.121 11.595 14.121 12.797 1.921 12.797 1.921 11.595 0.146 11.595 0.146 14.448 15.896 14.448 15.896 11.595 14.121 11.595" fill-rule="evenodd"></polygon><polygon points="10.286 6.645 8.908 7.926 8.908 2.005 7.133 2.005 7.133 7.94 5.741 6.645 4.472 7.825 6.743 9.94 8.011 11.12 8.013 11.119 8.015 11.12 9.284 9.94 11.555 7.825 10.286 6.645" fill-rule="evenodd"></polygon>
</symbol>

<symbol id="edit-circle-outline" viewBox="0 0 16 16">
  <title>edit-circle-outline</title><path d="M8.048.139a7.824,7.824,0,1,0,7.824,7.824A7.833,7.833,0,0,0,8.048.139Zm0,15.059a7.235,7.235,0,1,1,7.234-7.235A7.244,7.244,0,0,1,8.048,15.2ZM10.5,4.452a.458.458,0,0,0-.632,0L5.29,9.026a.741.741,0,0,0-.175.279l-.627,1.823a.305.305,0,0,0,.043.279.311.311,0,0,0,.252.13.3.3,0,0,0,.1-.016l1.8-.61a.722.722,0,0,0,.283-.175l4.591-4.59a.449.449,0,0,0,0-.632ZM6.572,10.34a.188.188,0,0,1-.066.041l-1.323.447.461-1.341a.191.191,0,0,1,.042-.066L8.995,6.112l.9.9Zm3.753-3.753-.9-.9.757-.757.9.9Z"></path>
</symbol>

<symbol id="email-circle" viewBox="0 0 16 16">
  <title>email-circle</title><path d="M8,2.044A5.956,5.956,0,1,1,2.076,8,5.947,5.947,0,0,1,8,2.044M8,.459A7.541,7.541,0,1,0,15.5,8,7.521,7.521,0,0,0,8,.459Z"></path><path d="M4,6.255l3.626,1.76a.6.6,0,0,0,.461,0L12,6.081a.2.2,0,0,0,.112-.181.565.565,0,0,0-.562-.564H4.458a.573.573,0,0,0-.57.572v.166A.2.2,0,0,0,4,6.255Zm7.746.843-3.3,1.634a1.4,1.4,0,0,1-1.153,0L4.25,7.264a.252.252,0,0,0-.362.228v2.622a.551.551,0,0,0,.548.55H11.5a.614.614,0,0,0,.61-.612V7.326A.253.253,0,0,0,11.748,7.1Z"></path>
</symbol>

<symbol id="email-multi" viewBox="0 0 16 16">
  <title>email-multi</title><g> <path d="M9.7,4.206h2.517l1.124-.555a.33.33,0,0,0,.183-.3.925.925,0,0,0-.92-.924H.994a.937.937,0,0,0-.932.936v.272a.329.329,0,0,0,.186.3l1.894.919A1.542,1.542,0,0,1,2.3,4.67a1.568,1.568,0,0,1,1.114-.464Z"></path> <path d="M.062,5.96v4.291a.9.9,0,0,0,.9.9h.878V6.158L.655,5.586A.414.414,0,0,0,.062,5.96Z"></path> <path d="M15.342,7.733,9.937,10.406a2.252,2.252,0,0,1-.945.207,2.277,2.277,0,0,1-.941-.2L3.072,8a.413.413,0,0,0-.592.374v4.29a.9.9,0,0,0,.9.9H14.94a1,1,0,0,0,1-1V8.105A.413.413,0,0,0,15.342,7.733Z"></path> <path d="M2.48,5.784v.273a.331.331,0,0,0,.185.3L8.6,9.233a.99.99,0,0,0,.754,0l6.4-3.162a.33.33,0,0,0,.184-.295.925.925,0,0,0-.92-.924H3.412A.936.936,0,0,0,2.48,5.784Z"></path> </g>
</symbol>

<symbol id="email" viewBox="0 0 16 16">
  <title>email</title><path d="M14.36,3.049l-.038.038a.426.426,0,0,0,.036-.039Z"></path><path d="M14.36,3.049l-.038.038a.426.426,0,0,0,.036-.039Z"></path><path d="M.339,4.679,7.287,8.05a1.155,1.155,0,0,0,.883,0l7.494-3.7A.386.386,0,0,0,15.878,4,1.082,1.082,0,0,0,14.8,2.917H1.212a1.1,1.1,0,0,0-1.09,1.1v.319A.384.384,0,0,0,.339,4.679ZM15.181,6.294,8.853,9.424a2.638,2.638,0,0,1-1.107.243,2.67,2.67,0,0,1-1.1-.237L.815,6.612a.483.483,0,0,0-.693.437v5.023a1.055,1.055,0,0,0,1.049,1.055H14.71a1.174,1.174,0,0,0,1.168-1.174V6.73A.484.484,0,0,0,15.181,6.294Z"></path>
</symbol>

<symbol id="eraser" viewBox="0 0 16 16">
  <title>eraser</title><g> <rect x="0.106" y="14.674" width="14.66" height="1.333" rx="0.184" ry="0.184"></rect> <path d="M15.832,5.861,10.776.774a.212.212,0,0,0-.3,0l-9.347,9.38a.213.213,0,0,0,0,.3l3.449,3.491a.213.213,0,0,0,.151.063H7.942a.213.213,0,0,0,.151-.063l7.739-7.784A.214.214,0,0,0,15.832,5.861Zm-8.17,7.1a.16.16,0,0,1-.116.049H5.121a.164.164,0,0,1-.116-.048L2.5,10.425a.165.165,0,0,1,0-.231L6.7,5.965l3.946,3.968Z"></path> </g>
</symbol>

<symbol id="external-link" viewBox="0 0 16 16">
  <title>external-link</title><g> <polygon points="14.637 9.902 13.547 9.902 13.547 13.547 2.453 13.547 2.453 2.453 6.098 2.453 6.098 1.363 6.098 0.075 0.075 0.075 0.075 15.925 15.925 15.925 15.925 9.902 14.637 9.902"></polygon> <polygon points="8.634 0.075 8.634 0.175 11.453 3.004 8.428 6.098 6.098 6.098 6.098 9.902 9.902 9.902 9.902 7.968 13.194 4.745 15.825 7.366 15.925 7.366 15.925 0.075 8.634 0.075"></polygon> </g>
</symbol>

<symbol id="filter" viewBox="0 0 16 15.319">
  <title>filter</title><path d="M15.188.937H.819a.468.468,0,0,0-.32.81L6.248,7.932v6.124a.342.342,0,0,0,.511.283l2.67-2.259a.7.7,0,0,0,.365-.638V7.935l5.711-6.2A.461.461,0,0,0,15.188.937Z"></path>
</symbol>

<symbol id="hold" viewBox="0 0 16 16">
  <title>hold</title><path d="M2.085,7.975,8.04,13.93a.1.1,0,0,0,.148,0l5.956-5.955a.106.106,0,0,0,0-.148L8.188,1.872a.1.1,0,0,0-.148,0L2.085,7.827A.1.1,0,0,0,2.085,7.975ZM7.9,15.7.316,8.112a.3.3,0,0,1,0-.421L7.9.1a.3.3,0,0,1,.421,0l7.588,7.588a.3.3,0,0,1,0,.421L8.325,15.7A.3.3,0,0,1,7.9,15.7Z"></path><rect x="5.934" y="5.658" width="1.689" height="4.501"></rect><rect x="8.621" y="5.658" width="1.693" height="4.501"></rect>
</symbol>

<symbol id="info-alt" viewBox="0 0 16 16">
  <title>info-alt</title><path d="M8,.137A7.863,7.863,0,1,0,15.863,8,7.863,7.863,0,0,0,8,.137ZM8.5,2.9A1.367,1.367,0,1,1,7.136,4.261,1.367,1.367,0,0,1,8.5,2.9Zm1.7,9.019a3.262,3.262,0,0,1-2.474,1c-2.01-.085-1.51-1.989-1.436-2.446s.489-2.722.511-2.913.223-.553-.341-.7-.744-.266-.744-.394.107-.318.468-.318H8.651a.708.708,0,0,1,.7.8l-.821,4.28a.572.572,0,0,0,.75.612l.771-.331A.241.241,0,0,1,10.205,11.914Z"></path>
</symbol>

<symbol id="info" viewBox="0 0 16 16">
  <title>info</title><path d="M10.054,11.5l-.772.332a.572.572,0,0,1-.751-.613l.822-4.288a.71.71,0,0,0-.7-.8H6.182c-.362,0-.468.192-.468.32s.181.245.745.394.363.511.341.7-.436,2.461-.511,2.919-.575,2.364,1.438,2.45a3.264,3.264,0,0,0,2.478-1A.241.241,0,0,0,10.054,11.5ZM8.5,5.623A1.369,1.369,0,1,0,7.131,4.254,1.369,1.369,0,0,0,8.5,5.623ZM8,.137A7.863,7.863,0,1,0,15.863,8,7.863,7.863,0,0,0,8,.137ZM8,14.665A6.665,6.665,0,1,1,14.665,8,6.673,6.673,0,0,1,8,14.665Z"></path>
</symbol>

<symbol id="label" viewBox="0 0 16 16">
  <title>label</title><g> <path d="M10.341,6.694,6.822,10.212a.829.829,0,0,0,0,1.172h0a.83.83,0,0,0,1.172,0l3.52-3.519a.829.829,0,0,0-1.173-1.172ZM6.883,11.322Z"></path> <path d="M11.7,4.432a1.022,1.022,0,1,0-.3-.722A1.014,1.014,0,0,0,11.7,4.432Z"></path> <path d="M4.74,9.3h0a.829.829,0,0,0,1.172,0l3.52-3.519A.829.829,0,0,0,8.26,4.614L4.741,8.132A.831.831,0,0,0,4.74,9.3ZM4.8,9.242Z"></path> <path d="M16.092,7.107,16.059.814a.849.849,0,0,0-.825-.825l-6.3-.033A.825.825,0,0,0,8.349.2L.242,8.3a.83.83,0,0,0,0,1.172h0L6.571,15.8a.828.828,0,0,0,1.172,0L15.85,7.7A.823.823,0,0,0,16.092,7.107Zm-1.66-.338L7.157,14.043,2,8.889,9.277,1.616l5.128.027ZM.3,9.412Z"></path> </g>
</symbol>

<symbol id="laptop" viewBox="0 0 16 15.319">
  <title>laptop</title><path d="M15.661,12.082l-1.378-2.066V2.947a1.575,1.575,0,0,0-1.571-1.571H3.287a1.574,1.574,0,0,0-1.57,1.571v7.069L.339,12.082a1.016,1.016,0,0,0-.193.683v.392a.845.845,0,0,0,.784.786H15.07a.845.845,0,0,0,.784-.786v-.392a1.016,1.016,0,0,0-.193-.683Zm-10.017.29.471-.785h3.77l.471.785ZM12.712,9.23H3.287V2.947h9.425Z"></path>
</symbol>

<symbol id="linked-circles" viewBox="0 0 16 16">
  <title>linked-circles</title><g> <path d="M13.733,6.4a5.09,5.09,0,0,0-.721-.529,5.024,5.024,0,0,0-1.98-.691,5.527,5.527,0,0,1,.006,1.465,3.67,3.67,0,0,1,1,.337A3.633,3.633,0,1,1,7.4,12.272,3.628,3.628,0,0,1,8.35,7.208a3.1,3.1,0,0,0,.239-1.746,5.063,5.063,0,0,0-2.02,1.4,5.073,5.073,0,0,0-.149,6.518,5.007,5.007,0,0,0,.519.561c.031.03.064.058.1.088a5.077,5.077,0,1,0,6.7-7.632Z"></path> <path d="M3.2,8.506A3.63,3.63,0,0,1,6.017,2.184a4.27,4.27,0,0,1,.8.183l.064.023h0a3.437,3.437,0,0,1,1.148.68,3.489,3.489,0,0,1,.813,1.06h0l.026.052a4.317,4.317,0,0,1,.18.432A3.632,3.632,0,0,1,7.667,8.791l-.1.285a3.141,3.141,0,0,0-.146,1.467A5.031,5.031,0,0,0,9.059,9.529c.124-.115.243-.236.355-.362a5.168,5.168,0,0,0,1.177-4.388c-.02-.1-.042-.2-.068-.3h.011A5.093,5.093,0,0,0,4.491.833l0,0A5.082,5.082,0,0,0,2.243,9.589,5.043,5.043,0,0,0,4.9,10.822c-.019-.147-.032-.3-.039-.448A5.688,5.688,0,0,1,4.9,9.353,3.608,3.608,0,0,1,3.2,8.506Z"></path> </g>
</symbol>

<symbol id="logs" viewBox="0 0 16 16">
  <title>logs</title><g> <path d="M11.577,5.967a5.167,5.167,0,0,0-.772-.057h0a5.073,5.073,0,1,0,.774.057Zm-.491,8.821v-.5a.315.315,0,0,0-.63,0v.494a3.924,3.924,0,0,1-3.61-3.555h.492a.31.31,0,1,0,0-.619H6.844a3.922,3.922,0,0,1,3.611-3.6v.541a.316.316,0,0,0,.631,0V7.007a3.923,3.923,0,0,1,3.681,3.6H14.2a.31.31,0,1,0,0,.619h.564A3.926,3.926,0,0,1,11.086,14.788Z"></path> <path d="M12.442,11.33l-1-.5V9.09A.448.448,0,0,0,11,8.646h-.29a.448.448,0,0,0-.451.444v2.477l.335.164,1.315.646a.455.455,0,0,0,.6-.2l.132-.255A.439.439,0,0,0,12.442,11.33Z"></path> <path d="M5.819,13.916H1.472V1.478H7.393V3.955a.134.134,0,0,0,.04.094.139.139,0,0,0,.1.039h2.506V5.2a6.072,6.072,0,0,1,.767-.055,5.911,5.911,0,0,1,.615.046v-1.4a.592.592,0,0,0-.181-.426L8.085.275A.627.627,0,0,0,7.651.1H.7A.621.621,0,0,0,.27.275.6.6,0,0,0,.09.7V14.73a.6.6,0,0,0,.18.426.622.622,0,0,0,.433.176H7.058A5.84,5.84,0,0,1,5.819,13.916Z"></path> </g>
</symbol>

<symbol id="merge-circle-outline" viewBox="0 0 16 16">
  <title>merge-circle-outline</title><path d="M8,.139a7.824,7.824,0,1,0,7.824,7.824A7.833,7.833,0,0,0,8,.139ZM8,15.2a7.235,7.235,0,1,1,7.235-7.235A7.243,7.243,0,0,1,8,15.2Z"></path><g> <path d="M9.237,8.359a.377.377,0,0,1-.316-.172L7.251,5.6H5.977a.375.375,0,0,1,0-.75H7.455a.376.376,0,0,1,.315.172L9.551,7.781a.375.375,0,0,1-.314.578Z"></path> <path d="M7.455,11.116H5.977a.375.375,0,0,1,0-.75H7.251l1.67-2.585a.375.375,0,1,1,.63.406L7.77,10.944A.376.376,0,0,1,7.455,11.116Z"></path> <path d="M10.723,8.464H9.236a.48.48,0,0,1,0-.96h1.487a.48.48,0,1,1,0,.96Z"></path> <path d="M10.5,9.312V6.674a.172.172,0,0,1,.262-.147l1.96,1.192a.337.337,0,0,1,0,.579L10.764,9.461A.172.172,0,0,1,10.5,9.312Z"></path> <path d="M5.242,6.337a1.109,1.109,0,1,1,1.11-1.109A1.111,1.111,0,0,1,5.242,6.337Zm0-1.468a.359.359,0,1,0,.36.359A.359.359,0,0,0,5.242,4.869Z"></path> <path d="M5.242,11.85a1.11,1.11,0,1,1,1.11-1.109A1.111,1.111,0,0,1,5.242,11.85Zm0-1.469a.36.36,0,1,0,.36.36A.36.36,0,0,0,5.242,10.381Z"></path> </g>
</symbol>

<symbol id="note" viewBox="0 0 16 16">
  <title>note</title><g> <rect x="3.253" y="7.738" width="7.053" height="1.056"></rect> <rect x="3.253" y="5.546" width="9.458" height="1.056"></rect> <rect x="3.253" y="3.451" width="9.458" height="1.056"></rect> <path d="M15.82,11.015a.827.827,0,0,1-.193.93l-3.8,3.66a.892.892,0,0,1-.626.25A.872.872,0,0,1,10.306,15V11.575a1.115,1.115,0,0,1,1.141-1.083h3.56A.876.876,0,0,1,15.82,11.015Zm-4.087,2.733,1.956-1.881"></path> <path d="M14.628.145H1.434A1.17,1.17,0,0,0,.174,1.192V14.808a1.17,1.17,0,0,0,1.26,1.047H11.3l-.016-1.341H1.787V1.486H14.276V11.41h1.612V1.192A1.17,1.17,0,0,0,14.628.145Z"></path> </g>
</symbol>

<symbol id="page-right-double" viewBox="0 0 16 15.319">
  <title>page-right-double</title><g> <polygon points="9.637 1.296 6.934 3.998 10.596 7.66 6.934 11.321 9.637 14.023 16 7.66 9.637 1.296" fill-rule="evenodd"></polygon> <polygon points="2.702 1.296 0 3.998 3.661 7.66 0 11.321 2.702 14.023 9.066 7.66 2.702 1.296" fill-rule="evenodd"></polygon> </g>
</symbol>

<symbol id="payment-methods" viewBox="0 0 16 16">
  <title>payment-methods</title><g> <path d="M14.9,0H2.42L4.669,1.492h8.515a.56.56,0,0,1,.577.54V2.04a.56.56,0,0,1-.577.54H6.335L7.871,3.6h5.313a.559.559,0,0,1,.577.54v.007a.559.559,0,0,1-.577.54H9.616l.053.036a1.988,1.988,0,0,1,.892,1.662v4.661H14.9a.721.721,0,0,0,.721-.722V.722A.721.721,0,0,0,14.9,0Z" fill-rule="evenodd"></path> <path d="M9.265,5.587.937.06a.358.358,0,0,0-.556.3V8.447a1.171,1.171,0,0,0,.451.924l8.283,6.462a.358.358,0,0,0,.578-.282V6.384A.955.955,0,0,0,9.265,5.587Z" fill-rule="evenodd"></path> </g>
</symbol>

<symbol id="payment-sources" viewBox="0 0 16 16">
  <title>payment-sources</title><g> <path d="M13.367,2.094a.526.526,0,0,1,.525.525V13.381a.526.526,0,0,1-.525.525H5.094a.526.526,0,0,1-.525-.525V2.619a.526.526,0,0,1,.525-.525h8.273m0-1.093H5.094A1.617,1.617,0,0,0,3.476,2.619V13.381A1.617,1.617,0,0,0,5.094,15h8.273a1.617,1.617,0,0,0,1.618-1.618V2.619A1.617,1.617,0,0,0,13.367,1Z"></path> <path d="M6.66,11.086l.773-.955c.046-.056.1-.068.149-.023a2.644,2.644,0,0,0,1.364.6V8.766a2.233,2.233,0,0,1-2.138-2.24A2.341,2.341,0,0,1,8.946,4.137V3.466a.108.108,0,0,1,.114-.114h.523a.108.108,0,0,1,.114.114v.671a3.878,3.878,0,0,1,1.808.614.115.115,0,0,1,.023.171l-.66.955a.113.113,0,0,1-.159.034,2.861,2.861,0,0,0-1.012-.4V7.345a2.2,2.2,0,0,1,2.15,2.263A2.356,2.356,0,0,1,9.7,12.054v.693a.108.108,0,0,1-.114.114H9.06a.107.107,0,0,1-.114-.114v-.659a3.969,3.969,0,0,1-2.263-.831A.115.115,0,0,1,6.66,11.086ZM8.946,5.57a.862.862,0,0,0-.569.83.764.764,0,0,0,.569.8Zm1.331,4.118a.762.762,0,0,0-.58-.762v1.706A.931.931,0,0,0,10.277,9.688Z"></path> <g> <path d="M2.108,3.5v9.01a.526.526,0,0,0,.525.525h.279V2.97H2.633A.526.526,0,0,0,2.108,3.5Z"></path> <path d="M2.633,13.03a.526.526,0,0,1-.525-.525V3.5a.526.526,0,0,1,.525-.525h.279V1.876H2.633A1.618,1.618,0,0,0,1.015,3.5v9.01a1.618,1.618,0,0,0,1.618,1.619h.279V13.03Z"></path> </g> </g>
</symbol>

<symbol id="person-cog" viewBox="0 0 16 16">
  <title>person-cog</title><g> <path d="M9.488,14.519l.254-.431c-.028-.061-.053-.123-.077-.186L9.18,13.78a.524.524,0,0,1-.395-.507V12.212a.522.522,0,0,1,.395-.506l.487-.124q.034-.091.075-.18l-.258-.432a.522.522,0,0,1,.078-.638l.4-.4a2.485,2.485,0,0,1-.2-1.035c0-.829.641-.558.922-2.076.117-.63.683-.01.791-1.448,0-.573-.309-.716-.309-.716s.157-.848.219-1.5C11.458,2.348,10.912.247,8,.247s-3.458,2.1-3.382,2.914c.062.652.219,1.5.219,1.5s-.309.143-.309.716c.108,1.438.674.818.79,1.448C5.6,8.343,6.24,8.072,6.24,8.9c0,1.381-.67,2.026-2.768,2.791S0,13.241,0,13.774v1.792H9.98l-.412-.412A.522.522,0,0,1,9.488,14.519Z"></path> <path d="M16,13.246V12.227l-.733-.184a2.588,2.588,0,0,0-.256-.615l.384-.651-.722-.722-.649.389a2.822,2.822,0,0,0-.615-.255l-.18-.726H12.212l-.185.733a2.6,2.6,0,0,0-.615.255l-.65-.384-.717.717.39.65a2.834,2.834,0,0,0-.256.615l-.733.184v1.019l.733.184a2.63,2.63,0,0,0,.256.615l-.384.651.722.722.65-.389a2.846,2.846,0,0,0,.614.256l.191.731h1.007l.185-.731a2.63,2.63,0,0,0,.615-.256l.65.384.722-.723-.389-.65a2.834,2.834,0,0,0,.256-.615Zm-3.275.937h0a1.445,1.445,0,1,1,1.445-1.444A1.444,1.444,0,0,1,12.723,14.183Z"></path> </g>
</symbol>

<symbol id="person-group" viewBox="0 0 16 16">
  <title>person-group</title><path d="M16.025,14.92a22.683,22.683,0,0,0-.217-3.343c-.275-.468-.917-.789-2.107-1.287s-1.566-.915-1.566-1.811c0-.538.362-.362.522-1.347.066-.409.386-.007.447-.939,0-.372-.175-.464-.175-.464s.089-.55.123-.973a1.78,1.78,0,0,0-1.913-1.89,1.78,1.78,0,0,0-1.913,1.89c.035.424.123.973.123.973s-.173.092-.173.464c.061.933.381.531.447.939.159.985.522.809.522,1.347a1.448,1.448,0,0,1-.662,1.34c2.593,1.3,2.94,1.562,2.94,2.722V14.92ZM8.2,10.74c-1.582-.661-2.088-1.219-2.088-2.414,0-.717.483-.483.7-1.8.088-.545.515-.009.6-1.253,0-.5-.233-.619-.233-.619s.118-.733.165-1.3A2.373,2.373,0,0,0,4.788.84a2.373,2.373,0,0,0-2.55,2.521c.046.565.164,1.3.164,1.3s-.232.123-.232.619c.082,1.243.508.707.6,1.252.212,1.313.695,1.079.695,1.8,0,1.194-.506,1.752-2.088,2.414-.482.2-1.348.514-1.348,1.265V14.92H11.14V12.735C11.14,12.049,9.791,11.4,8.2,10.74Z"></path>
</symbol>

<symbol id="person-plus" viewBox="0 0 16 16">
  <title>person-plus</title><g> <path d="M14.737,12.738a.963.963,0,0,1-.846.507H12.429a.962.962,0,0,1-.96-.96v-.75H10.72a.961.961,0,0,1-.96-.96V9.114c0-.013,0-.025,0-.038s0-.053,0-.081c0-.829.641-.559.922-2.077.117-.63.683-.01.791-1.448,0-.573-.309-.715-.309-.715s.157-.848.219-1.5C11.458,2.441,10.912.34,8,.34s-3.458,2.1-3.382,2.914c.062.653.219,1.5.219,1.5s-.309.142-.309.715c.108,1.438.674.818.79,1.448.282,1.518.922,1.248.922,2.077,0,1.381-.67,2.026-2.768,2.79S0,13.334,0,13.868V15.66H16V13.868C16,13.558,15.536,13.164,14.737,12.738Z"></path> <path d="M10.56,9.114v1.461a.16.16,0,0,0,.16.16h1.549v1.55a.16.16,0,0,0,.16.16h1.462a.16.16,0,0,0,.16-.16v-1.55H15.6a.16.16,0,0,0,.16-.16V9.114a.16.16,0,0,0-.16-.16H14.051V7.405a.16.16,0,0,0-.16-.16H12.429a.16.16,0,0,0-.16.16V8.954H10.72A.16.16,0,0,0,10.56,9.114Z"></path> </g>
</symbol>

<symbol id="person" viewBox="0 0 16 16">
  <title>person</title><path d="M12.528,12.147c-2.1-.765-2.769-1.41-2.769-2.791,0-.829.641-.558.922-2.076.117-.63.683-.011.791-1.448,0-.573-.309-.716-.309-.716s.157-.848.219-1.5C11.458,2.8,10.912.7,8,.7S4.542,2.8,4.618,3.616c.062.652.219,1.5.219,1.5s-.309.143-.309.716c.108,1.437.674.818.79,1.448C5.6,8.8,6.24,8.527,6.24,9.356c0,1.381-.67,2.026-2.768,2.791S0,13.7,0,14.229v1.792H16V14.229C16,13.7,14.633,12.914,12.528,12.147Z"></path>
</symbol>

<symbol id="phone-currency" viewBox="0 0 16 16">
  <title>phone-currency</title><g> <path d="M8.412,9.229a.827.827,0,0,1-.494.152,2.155,2.155,0,0,1-1.4-.637L5.894,9.9a1.905,1.905,0,0,0,.372.264,3.223,3.223,0,0,0,.486.222,3.8,3.8,0,0,0,.529.153c.053.011.105.021.156.028v.794H8.8v-.91a3.663,3.663,0,0,0,.445-.2,1.773,1.773,0,0,0,.5-.391,1.382,1.382,0,0,0,.275-.505,2.267,2.267,0,0,0,.084-.652,1.432,1.432,0,0,0-.336-.985,2.538,2.538,0,0,0-1.095-.641l-.453-.152A1.066,1.066,0,0,1,7.839,6.7a.408.408,0,0,1-.146-.292.38.38,0,0,1,.184-.3.8.8,0,0,1,.476-.133,1.6,1.6,0,0,1,.967.377l.566-1.1a3,3,0,0,0-1.085-.4V4.024H7.437v.847a1.47,1.47,0,0,0-.34.139,1.682,1.682,0,0,0-.486.406,1.6,1.6,0,0,0-.292.548,2.116,2.116,0,0,0-.095.636,1.662,1.662,0,0,0,.084.556,1.206,1.206,0,0,0,.26.434,1.7,1.7,0,0,0,.453.336,4.138,4.138,0,0,0,.666.269l.438.137c.332.108.5.275.5.5A.474.474,0,0,1,8.412,9.229Z"></path> <path d="M11.379.546H4.621A1.4,1.4,0,0,0,3.257,1.91V14.09a1.4,1.4,0,0,0,1.364,1.364h6.758a1.4,1.4,0,0,0,1.364-1.364V1.91A1.4,1.4,0,0,0,11.379.546Zm-4.561,1a.057.057,0,0,1,.05-.063H9.134a.057.057,0,0,1,.05.063v.057a.06.06,0,0,1-.051.064H6.868a.058.058,0,0,1-.05-.064ZM8,14.556a.582.582,0,1,1,.582-.582A.583.583,0,0,1,8,14.556ZM11.377,12.7H4.621V2.576h6.756Z"></path> </g>
</symbol>

<symbol id="phone" viewBox="0 0 16 16">
  <title>phone</title><path d="M1.961,5.8A26.79,26.79,0,0,0,9.05,14.416l1.081.86a1.756,1.756,0,0,0,2.217-.023h0l1.892-1.57.307-.255a1.306,1.306,0,0,0,.174-1.833L13.269,9.831a1.293,1.293,0,0,0-1.825-.174l-1.83,1.519A26.769,26.769,0,0,1,5.236,5.855l1.83-1.519A1.3,1.3,0,0,0,7.239,2.5L5.787.74A1.291,1.291,0,0,0,3.963.565L3.655.821,1.763,2.391h0a1.773,1.773,0,0,0-.439,2.182Z"></path>
</symbol>

<symbol id="print" viewBox="0 0 16 15.319">
  <title>print</title><path d="M14.558,11.62l-.015-4.965a1.244,1.244,0,0,0-1.259-1.226H12.148V4.236L9.131,1.825H3.848v3.6H2.7A1.244,1.244,0,0,0,1.442,6.662l.015,4.958H3.848v1.874h8.3V11.62ZM4.723,2.665H8.565V4.706h2.77V6.951H4.723V2.665Zm6.612,9.952H4.723V10.426h6.612v2.191Z"></path>
</symbol>

<symbol id="printer-circle" viewBox="0 0 16 16">
  <title>printer-circle</title><g> <path d="M8,2.044A5.956,5.956,0,1,1,2.076,8,5.947,5.947,0,0,1,8,2.044M8,.459A7.541,7.541,0,1,0,15.5,8,7.521,7.521,0,0,0,8,.459Z"></path> <path d="M12.053,10.505l-.01-3.14a.778.778,0,0,0-.778-.776h-.7V5.834L8.7,4.309H5.434v2.28H4.725a.779.779,0,0,0-.778.78l.01,3.136H5.434v1.186h5.129V10.505ZM5.975,4.84H8.349V6.131h1.712V7.552H5.975V4.84Zm4.086,6.3H5.975V9.75h4.086v1.386Z"></path> </g>
</symbol>

<symbol id="recurring" viewBox="0 0 16 16">
  <title>recurring</title><path d="M7.562,11.6a3.169,3.169,0,0,1,.629-3.52,3.066,3.066,0,0,1,3.474-.638l.034.012-.586.466a.574.574,0,0,0-.095.8.557.557,0,0,0,.79.1l1.484-1.18a.577.577,0,0,0,.2-.565L13.11,5.188a.563.563,0,0,0-.665-.442.57.57,0,0,0-.436.674l.178.868-.013-.008a4.294,4.294,0,0,0-4.865.9,4.44,4.44,0,0,0-.887,4.931.623.623,0,0,0,.571.376.611.611,0,0,0,.253-.055A.636.636,0,0,0,7.562,11.6Zm6.82-3.076a.623.623,0,0,0-.825-.322.637.637,0,0,0-.318.836,3.17,3.17,0,0,1-.629,3.52,3.062,3.062,0,0,1-3.4.669l.585-.465a.575.575,0,0,0,.1-.8.557.557,0,0,0-.789-.1L7.618,13.042a.576.576,0,0,0-.2.565L7.8,15.485a.564.564,0,0,0,.55.454.579.579,0,0,0,.116-.012.571.571,0,0,0,.436-.674l-.178-.863a4.364,4.364,0,0,0,1.709.353A4.29,4.29,0,0,0,13.5,13.451,4.448,4.448,0,0,0,14.382,8.52ZM2.208,3.938h10.08V1.76a.657.657,0,0,0-.651-.659H10.174V.613a.6.6,0,0,0-.594-.6H9.142a.6.6,0,0,0-.594.6V1.1H4.972V.613a.6.6,0,0,0-.594-.6H3.94a.6.6,0,0,0-.594.6V1.1H1.883a.656.656,0,0,0-.65.659v9.886a.657.657,0,0,0,.65.66H4.937V11.189H2.208Z"></path>
</symbol>

<symbol id="routing-mark" viewBox="0 0 16 16">
  <title>routing-mark</title><path d="M8.609,3V6h3V3Zm0,10h3V10h-3Zm-4-2h2V5h-2Z" fill-rule="evenodd"></path>
</symbol>

<symbol id="statements" viewBox="0 0 16 16">
  <title>statements</title><g> <path d="M12.843,1.078V.145H.108v15.71H12.843v-.972H16V1.078ZM1.572,14.55V1.45H11.38v13.1Zm11.271-.973V2.384h1.694V13.577Z"></path> <rect x="3.383" y="3.417" width="6.185" height="1.306"></rect> <rect x="3.383" y="5.672" width="6.185" height="1.306"></rect> <rect x="3.383" y="7.928" width="6.185" height="1.305"></rect> <rect x="3.383" y="10.183" width="6.185" height="1.305"></rect> </g>
</symbol>

<symbol id="stripe-link" viewBox="0 0 16 16">
  <title>stripe-link</title><g> <polygon points="14.652 9.888 13.556 9.888 13.556 13.556 2.392 13.556 2.392 2.392 6.06 2.392 6.06 1.296 6.06 0 0 0 0 15.948 15.948 15.948 15.948 9.888 14.652 9.888"></polygon> <polygon points="8.612 0 8.612 0.1 11.448 2.947 10.514 3.903 12.28 5.6 13.2 4.698 15.848 7.336 15.948 7.336 15.948 0 8.612 0"></polygon> </g><path d="M7.447,6.472c0-.318.265-.441.692-.441a4.57,4.57,0,0,1,2.025.524V4.638a5.384,5.384,0,0,0-2.023-.373c-1.652,0-2.753.863-2.753,2.3,0,2.254,3.1,1.888,3.1,2.86,0,.376-.327.5-.781.5a5.137,5.137,0,0,1-2.228-.65V11.22a5.644,5.644,0,0,0,2.226.463c1.693,0,2.86-.837,2.86-2.3C10.56,6.953,7.447,7.388,7.447,6.472Z" fill-rule="evenodd"></path>
</symbol>

<symbol id="stripe" viewBox="0 0 16 16">
  <title>stripe</title><g id="Stripe"> <path d="M15.333,8.1c0-1.039-.5-1.86-1.467-1.86a1.649,1.649,0,0,0-1.552,1.854A1.621,1.621,0,0,0,14,9.937a2.27,2.27,0,0,0,1.124-.263V8.856a2.138,2.138,0,0,1-1,.225c-.395,0-.743-.14-.789-.616H15.32C15.324,8.411,15.333,8.2,15.333,8.1Zm-2.009-.384c0-.457.282-.648.536-.648s.513.192.513.648Z" fill-rule="evenodd"></path> <path d="M10.745,6.24a1.131,1.131,0,0,0-.795.319L9.9,6.308H9v4.736l1.015-.215,0-1.149a1.138,1.138,0,0,0,.718.257c.726,0,1.39-.584,1.39-1.873C12.129,6.882,11.458,6.24,10.745,6.24ZM10.5,9.04a.6.6,0,0,1-.478-.192L10.018,7.34a.612.612,0,0,1,.484-.2c.372,0,.627.416.627.947S10.878,9.04,10.5,9.04Z" fill-rule="evenodd"></path> <polygon points="7.605 5.999 8.624 5.782 8.624 4.956 7.605 5.172 7.605 5.999" fill-rule="evenodd"></polygon> <rect x="7.605" y="6.308" width="1.019" height="3.557"></rect> <path d="M6.514,6.608l-.064-.3H5.573V9.864H6.587V7.453a.72.72,0,0,1,.774-.212V6.308A.692.692,0,0,0,6.514,6.608Z" fill-rule="evenodd"></path> <path d="M4.479,5.427l-.991.21,0,3.256A1.022,1.022,0,0,0,4.538,9.937,1.569,1.569,0,0,0,5.25,9.8V8.977c-.13.052-.77.238-.77-.36V7.173h.77V6.308H4.48Z" fill-rule="evenodd"></path> <path d="M1.732,7.34c0-.158.132-.22.344-.22a2.266,2.266,0,0,1,1.009.262V6.426A2.682,2.682,0,0,0,2.077,6.24c-.823,0-1.372.43-1.372,1.149,0,1.123,1.543.94,1.543,1.425,0,.187-.163.248-.389.248A2.563,2.563,0,0,1,.748,8.738v.969a2.821,2.821,0,0,0,1.11.23c.843,0,1.425-.417,1.425-1.147C3.283,7.58,1.732,7.8,1.732,7.34Z" fill-rule="evenodd"></path> </g>
</symbol>

<symbol id="transfers" viewBox="0 0 16 16">
  <title>transfers</title><path d="M2.825,9.8l.467-.577c.028-.034.062-.042.09-.014a1.593,1.593,0,0,0,.824.364V8.4A1.35,1.35,0,0,1,2.914,7.042,1.416,1.416,0,0,1,4.206,5.6V5.193a.066.066,0,0,1,.069-.069h.316a.066.066,0,0,1,.069.069V5.6a2.339,2.339,0,0,1,1.092.372.068.068,0,0,1,.014.1l-.4.577a.071.071,0,0,1-.1.021A1.709,1.709,0,0,0,4.66,6.43V7.537A1.328,1.328,0,0,1,5.959,8.9a1.422,1.422,0,0,1-1.3,1.477V10.8a.065.065,0,0,1-.069.069H4.275a.065.065,0,0,1-.069-.069v-.4a2.393,2.393,0,0,1-1.367-.5A.069.069,0,0,1,2.825,9.8ZM4.206,6.464a.523.523,0,0,0-.344.5.462.462,0,0,0,.344.481Zm.8,2.489a.461.461,0,0,0-.351-.461V9.523A.561.561,0,0,0,5.011,8.953Z"></path><path d="M8.342,7.539V6.425a1.8,1.8,0,0,1,.6.245.068.068,0,0,0,.1-.02l.4-.576a.07.07,0,0,0-.02-.107A2.341,2.341,0,0,0,8.342,5.6V5.2a.067.067,0,0,0-.069-.068H7.951a.066.066,0,0,0-.068.068v.4A1.413,1.413,0,0,0,6.594,7.041,1.356,1.356,0,0,0,7.883,8.4V9.57a1.525,1.525,0,0,1-.821-.362.066.066,0,0,0-.1.01l-.459.576a.07.07,0,0,0,.01.108,2.366,2.366,0,0,0,1.367.5v.4a.066.066,0,0,0,.068.068h.322a.067.067,0,0,0,.069-.068v-.42a1.605,1.605,0,0,0,.449-.127v-.01l.83-1.552A1.334,1.334,0,0,0,8.342,7.539Zm-.459-.088a.464.464,0,0,1-.342-.489.507.507,0,0,1,.342-.5Zm.459,2.07V8.495a.449.449,0,0,1,.341.459A.552.552,0,0,1,8.342,9.521Z"></path><path d="M13.136,5.947a2.371,2.371,0,0,0-1.094-.371v-.4a.062.062,0,0,0-.068-.069h-.313a.062.062,0,0,0-.068.069v.4a1.422,1.422,0,0,0-1.3,1.445,1.28,1.28,0,0,0,.3.859,3.847,3.847,0,0,1,1.445-.527V6.406a1.842,1.842,0,0,1,.615.244.077.077,0,0,0,.1-.02l.4-.576A.077.077,0,0,0,13.136,5.947ZM11.593,7.431a.462.462,0,0,1-.342-.488.508.508,0,0,1,.342-.5Z"></path><path d="M15.186,2.149H.764a.576.576,0,0,0-.517.322.456.456,0,0,0-.078.254V13.27a.49.49,0,0,0,.049.215v.02a.6.6,0,0,0,.546.361H9.523a3.907,3.907,0,0,1-.7-1.318H1.487V3.467H14.464V7.714A3.961,3.961,0,0,1,15.782,8.73V2.744A.592.592,0,0,0,15.186,2.149Z"></path><path d="M12.685,8.215a3.127,3.127,0,1,0,3.127,3.127A3.127,3.127,0,0,0,12.685,8.215Zm0,5.35a2.223,2.223,0,1,1,2.223-2.223A2.223,2.223,0,0,1,12.685,13.565Z"></path><path d="M12.95,10.337l-.278.28.372.37a1.5,1.5,0,0,0-.765.078,1.463,1.463,0,0,0-.725.606l.287.305a1.011,1.011,0,0,1,.584-.544,1.162,1.162,0,0,1,.641-.041l-.389.393.28.278.859-.866Z"></path>
</symbol>

<symbol id="trash-circle-outline" viewBox="0 0 16 16">
  <title>trash-circle-outline</title><path d="M8.048.139a7.824,7.824,0,1,0,7.824,7.824A7.833,7.833,0,0,0,8.048.139Zm0,15.059a7.235,7.235,0,1,1,7.234-7.235A7.244,7.244,0,0,1,8.048,15.2Z"></path><g> <path d="M11.112,5.8h-1.6V4.678a.336.336,0,0,0-.336-.336H6.94a.337.337,0,0,0-.337.336V5.8H5a.336.336,0,0,0,0,.672h.518v4.819a.337.337,0,0,0,.336.336h4.4a.337.337,0,0,0,.337-.336V6.473h.518a.336.336,0,0,0,0-.672ZM7.276,5.014H8.841V5.8H7.276Zm2.646,5.941H6.2V6.473H9.922Z"></path> <path d="M8.788,10.526A.332.332,0,0,0,9.12,10.2V7.213a.332.332,0,1,0-.663,0V10.2A.331.331,0,0,0,8.788,10.526Z"></path> <path d="M7.328,10.526a.331.331,0,0,0,.331-.331V7.213a.331.331,0,1,0-.662,0V10.2A.331.331,0,0,0,7.328,10.526Z"></path> </g>
</symbol>

<symbol id="upload" viewBox="0 0 16 15.319">
  <title>upload</title><g> <path d="M12.69,5.012a3.092,3.092,0,0,0-2.638-1.53l-.12,0a4.222,4.222,0,0,0-7.37,1.8,4.223,4.223,0,0,0,1.789,8.05H6.336V11.652H4.351a2.542,2.542,0,0,1-.654-5l.432-.116.019-.448A2.541,2.541,0,0,1,8.906,4.947l.243.431.471-.15a1.3,1.3,0,0,1,.388-.058,1.431,1.431,0,0,1,1.354.975l.119.392.407.038a2.544,2.544,0,0,1-.238,5.077H10.172v1.681h1.477A4.226,4.226,0,0,0,12.69,5.012Z"></path> <path d="M6.99,10.092l.357-.347v3.611H9.2v-3.6l.322.332A.918.918,0,1,0,10.81,8.784L8.894,6.866a.946.946,0,0,0-1.31,0L5.667,8.783a.927.927,0,0,0,0,1.308A.97.97,0,0,0,6.99,10.092Z"></path> </g>
</symbol>
    </svg>