<svg xmlns="http://www.w3.org/2000/svg" xmlns:xlink="http://www.w3.org/1999/xlink">
    
<symbol id="ach" class="symbol" viewBox="0 0 16 16">
  <defs><style>.cls-1{fill:#231f20;}</style></defs><title>ach</title><g id="Layer_1" data-name="Layer 1"><path class="cls-1" d="M15.359,2H.593a.606.606,0,0,0-.535.332.522.522,0,0,0-.076.262v10.8h0a.578.578,0,0,0,.045.221l0,.016,0,0A.611.611,0,0,0,.593,14H15.359a.612.612,0,0,0,.612-.612V2.608A.612.612,0,0,0,15.359,2ZM14.62,12.654H1.331V3.346H14.62Z"/><path class="cls-1" d="M4.854,5.554,6.125,10.4H5.183l-.222-.965H3.612l-.228.965H2.443l1.241-4.85Zm-.57.865H4.26L3.78,8.613h.99Z"/><path class="cls-1" d="M6.372,7.186c0-1.109.54-1.737,1.565-1.737a1.492,1.492,0,0,1,.965.323A1.8,1.8,0,0,1,9.359,7.1H8.393c-.006-.237-.018-.767-.5-.767a.535.535,0,0,0-.366.152.739.739,0,0,0-.162.528V8.857c0,.264,0,.772.534.772.4,0,.516-.356.516-.878h.972a3.375,3.375,0,0,1-.042.595,1.391,1.391,0,0,1-.462.865,1.531,1.531,0,0,1-.959.323,1.432,1.432,0,0,1-1.139-.429c-.18-.192-.414-.47-.414-1.461Z"/><path class="cls-1" d="M10.032,5.554h.978V7.391h1.235V5.554h.99V10.4h-.972V8.309H11.016V10.4h-.984Z"/></g>
</symbol>

<symbol id="anonymous" class="symbol" viewBox="0 0 16 16">
  <defs><style>.cls-1{fill:#231f20;}</style></defs><title>anonymous</title><g id="Layer_1" data-name="Layer 1"><path class="cls-1" d="M12.516,12.136c-2.092-.763-2.761-1.406-2.761-2.783,0-.827.639-.557.919-2.071.116-.628.681-.01.789-1.444,0-.572-.308-.714-.308-.714s.156-.846.218-1.5C11.448,2.818,10.9.723,8,.723s-3.449,2.1-3.372,2.906c.061.651.218,1.5.218,1.5s-.308.142-.308.714c.108,1.434.672.816.788,1.444.281,1.514.919,1.244.919,2.071,0,1.377-.668,2.02-2.761,2.783S.022,13.681.022,14.213V16H15.978V14.213C15.978,13.681,14.615,12.9,12.516,12.136Zm-3.91-2.83A.864.864,0,0,1,7.391,8.077.864.864,0,0,1,8.606,9.306Zm.73-3.877a3.862,3.862,0,0,0-.4.485,2.422,2.422,0,0,0-.287.537.95.95,0,0,0-.055.54H7.443a1.358,1.358,0,0,1,.021-.629,2.327,2.327,0,0,1,.25-.6,3.4,3.4,0,0,1,.376-.509c.14-.156.274-.311.4-.461A3.265,3.265,0,0,0,8.8,4.343a.94.94,0,0,0,.125-.47.861.861,0,0,0-.244-.638A.928.928,0,0,0,8,2.995a1.349,1.349,0,0,0-.638.153,2.124,2.124,0,0,0-.534.418L6.1,2.919a2.933,2.933,0,0,1,.867-.687A2.33,2.33,0,0,1,8.1,1.96a2.975,2.975,0,0,1,.845.116,1.9,1.9,0,0,1,.672.348,1.538,1.538,0,0,1,.439.57,1.922,1.922,0,0,1,.153.79,1.466,1.466,0,0,1-.131.631,2.821,2.821,0,0,1-.323.531A5.843,5.843,0,0,1,9.335,5.429Z"/></g>
</symbol>

<symbol id="arrow-up-trend-circle-o" class="symbol" viewBox="0 0 16 16">
  <title>arrow-up-trend-circle-o</title><g id="Layer_1" data-name="Layer 1"><path d="M8.048.533a7.5,7.5,0,1,0,7.5,7.5A7.5,7.5,0,0,0,8.048.533Zm0,13.393a5.89,5.89,0,0,1-4.909-2.64L6.071,8.354l2.519,2.519,2.3-2.3v.868h1.5V5.978H8.846v1.5H9.863L8.589,8.751,6.071,6.232,2.447,9.856a5.891,5.891,0,1,1,5.6,4.07Z"/></g>
</symbol>

<symbol id="asterisk" class="symbol" viewBox="0 0 16 16">
  <defs><style>.cls-1{fill:#010101;}</style></defs><title>asterisk</title><g id="Layer_1" data-name="Layer 1"><g id="Rectangle_1" data-name="Rectangle 1"><g id="g4"><path id="path6" class="cls-1" d="M13.944,13.746l-2.708,1.882L8.024,10.762c-.044.032-.014,0-.046.046L4.7,15.627l-2.639-1.9.069-.069L5.66,9.064V9.041L.015,7.5,1.025,4.36l5.553,2L6.3.482H9.63L9.378,6.356l5.576-1.974L15.941,7.5,10.3,9.064Z"/></g></g></g>
</symbol>

<symbol id="bank-confirmed" class="symbol" viewBox="0 0 16 16">
  <defs><style>.cls-1{fill:#010101;}</style></defs><title>bank-confirmed</title><g id="Layer_1" data-name="Layer 1"><path class="cls-1" d="M13.8,5.946H12.538V9.869L13.8,8.6Zm-9.785.008v4.933H5.286V5.954ZM1.728,12.72H7.4L5.975,11.454H1.728Zm.458-6.766v4.933H3.452V5.954ZM10.7,10.235l.644.644h.179l.443-.443V5.946H10.7Zm2.93,4.318h1.873V13.287h-.621ZM7.962,13.287H.493v1.266H9.223l-.69-.7ZM8,6.441A1.979,1.979,0,1,0,9.979,8.42,1.981,1.981,0,0,0,8,6.441ZM8,9.09a.67.67,0,1,1,.67-.67A.671.671,0,0,1,8,9.09Zm7.782-4.027L8.075.35a.173.173,0,0,0-.183,0L.216,5.063a.175.175,0,0,0,.092.324H15.692a.175.175,0,0,0,.091-.324ZM3.951,4.121,7.984,1.844l4.033,2.277Z"/><polygon class="cls-1" points="15.625 10.763 14.518 9.656 11.438 12.736 10.04 11.338 8.91 12.467 10.309 13.866 10.306 13.869 11.412 14.975 11.415 14.972 11.439 14.995 15.625 10.763"/></g>
</symbol>

<symbol id="bank-pending" class="symbol" viewBox="0 0 16 16">
  <defs><style>.cls-1{fill:#010101;}</style></defs><title>bank-pending</title><g id="Layer_1" data-name="Layer 1"><polygon class="cls-1" points="12.557 11.179 12.557 9.476 11.572 9.476 11.572 11.783 13.063 12.452 13.507 11.588 12.557 11.179"/><path class="cls-1" d="M12.117,7.435a3.915,3.915,0,1,0,3.915,3.915A3.915,3.915,0,0,0,12.117,7.435Zm0,6.7A2.784,2.784,0,1,1,14.9,11.35,2.784,2.784,0,0,1,12.117,14.134Z"/><path class="cls-1" d="M7.867,6.441a1.975,1.975,0,0,0-.59,3.861,4.883,4.883,0,0,1,.468-1.236A.662.662,0,0,1,7.2,8.42a.671.671,0,0,1,.671-.67.647.647,0,0,1,.559.325,4.967,4.967,0,0,1,.985-.867A1.96,1.96,0,0,0,7.867,6.441ZM3.886,5.954v4.933H5.152V5.954Zm-1.833,0v4.933H3.318V5.954ZM1.595,12.72H7.377a4.89,4.89,0,0,1-.206-1.266H1.595ZM15.649,5.063,7.941.35a.173.173,0,0,0-.183,0L.083,5.063a.175.175,0,0,0,.092.324H15.558a.175.175,0,0,0,.091-.324ZM3.817,4.121,7.85,1.844l4.033,2.277Zm6.754,2.544a4.9,4.9,0,0,1,1.267-.243V5.946H10.571ZM.359,13.287v1.266H8.367a4.941,4.941,0,0,1-.811-1.266ZM12.4,6.423a4.9,4.9,0,0,1,1.267.245V5.946H12.4Z"/></g>
</symbol>

<symbol id="bank" class="symbol" viewBox="0 0 16 16">
  <defs><style>.cls-1{fill:#010101;}</style></defs><title>bank</title><g id="Layer_1" data-name="Layer 1"><rect class="cls-1" x="4.019" y="5.954" width="1.267" height="4.933"/><rect class="cls-1" x="2.186" y="5.954" width="1.266" height="4.933"/><path class="cls-1" d="M9.979,8.42A1.979,1.979,0,1,0,8,10.4,1.981,1.981,0,0,0,9.979,8.42Zm-2.649,0A.67.67,0,1,1,8,9.09.671.671,0,0,1,7.33,8.42Z"/><path class="cls-1" d="M15.783,5.063,8.075.35a.173.173,0,0,0-.183,0L.216,5.063a.175.175,0,0,0,.092.324H15.692a.175.175,0,0,0,.091-.324ZM3.951,4.121,7.984,1.844l4.033,2.277Z"/><rect class="cls-1" x="1.728" y="11.454" width="12.545" height="1.266"/><rect class="cls-1" x="10.715" y="5.954" width="1.267" height="4.933"/><rect class="cls-1" x="12.549" y="5.954" width="1.266" height="4.933"/><rect class="cls-1" x="0.493" y="13.287" width="15.016" height="1.266"/></g>
</symbol>

<symbol id="batches-group" class="symbol" viewBox="0 0 16 16">
  <defs><style>.cls-1{fill:#231f20;}</style></defs><title>batches-group</title><g id="Layer_1" data-name="Layer 1"><path class="cls-1" d="M14.257,5.318v-.28a.73.73,0,0,0-.73-.73H2.4a.73.73,0,0,0-.73.73v6.908a.73.73,0,0,0,.73.73h.254V6.645A1.328,1.328,0,0,1,3.981,5.318Zm.85.6H3.981a.73.73,0,0,0-.73.73v6.908a.73.73,0,0,0,.73.73H15.108a.73.73,0,0,0,.73-.73V6.645A.73.73,0,0,0,15.108,5.914ZM8.458,7.561a.744.744,0,0,1,1,.081l.1.1.1-.1a.732.732,0,1,1,1.055,1.015l-.126.128-.944.962a.113.113,0,0,1-.163,0L8.4,8.656A.748.748,0,0,1,8.458,7.561ZM15,13.277a.437.437,0,0,1-.615-.055l-2.053-2.456L9.816,12.953a.438.438,0,0,1-.574,0l-2.5-2.175L4.7,13.222a.437.437,0,1,1-.67-.56L6.084,10.2,4.391,8.73a.437.437,0,1,1,.574-.66L9.53,12.044l4.647-4.036a.437.437,0,1,1,.573.66l-1.756,1.525,2.064,2.468A.436.436,0,0,1,15,13.277ZM12.667,3.728v-.28a.73.73,0,0,0-.73-.73H.81a.73.73,0,0,0-.73.73v6.908a.73.73,0,0,0,.73.73h.254V5.054A1.328,1.328,0,0,1,2.39,3.728Z"/></g>
</symbol>

<symbol id="batches" class="symbol" viewBox="0 0 16 16">
  <defs><style>.cls-1{fill:#231f20;}</style></defs><title>batches</title><g id="Layer_1" data-name="Layer 1"><path class="cls-1" d="M8.191,5.6l-.2.209-.2-.209A1.547,1.547,0,1,0,5.552,7.744l.267.272,2,2.032a.24.24,0,0,0,.343,0l2.262-2.3A1.547,1.547,0,1,0,8.191,5.6Zm7,.311L13.433,4.718l0-.949a1.546,1.546,0,0,0-1.563-1.528h-.985L9.283,1.2A2.088,2.088,0,0,0,8.006.756H7.981A2.089,2.089,0,0,0,6.7,1.2L5.392,2.241H3.837A1.546,1.546,0,0,0,2.273,3.769l-.011.961L.663,5.98a1.263,1.263,0,0,0-.6,1.071V13.9a1.287,1.287,0,0,0,1.3,1.272H14.615a1.288,1.288,0,0,0,1.3-1.273V7.051A1.269,1.269,0,0,0,15.189,5.911ZM14.8,13.379a.46.46,0,0,1-.254.608.476.476,0,0,1-.62-.246l-2.313-2.867H4.368L2.055,13.741a.476.476,0,0,1-.62.246.46.46,0,0,1-.254-.608l2.37-3.234-2.338-2.1A.456.456,0,0,1,1.291,7.4a.481.481,0,0,1,.665.075L3.633,8.9V4.138a.532.532,0,0,1,.538-.526h7.617a.532.532,0,0,1,.538.526V9.022l1.7-1.551a.481.481,0,0,1,.665-.075.456.456,0,0,1,.077.651l-2.338,2.189Z"/></g>
</symbol>

<symbol id="bill" class="symbol" viewBox="0 0 16 16">
  <defs><style>.cls-1{fill:#231f20;}</style></defs><title>bill</title><g id="Layer_1" data-name="Layer 1"><path class="cls-1" d="M11.05,6.217a4.153,4.153,0,0,0-.72-1.243,3.394,3.394,0,0,0-1.054-.832,2.828,2.828,0,0,0-1.3-.3,2.858,2.858,0,0,0-1.3.3,3.37,3.37,0,0,0-1.058.832,3.909,3.909,0,0,0-.705,1.243,4.681,4.681,0,0,0,0,3.056,3.919,3.919,0,0,0,.705,1.244,3.393,3.393,0,0,0,1.058.832,2.91,2.91,0,0,0,2.593,0,3.39,3.39,0,0,0,1.058-.832,4.165,4.165,0,0,0,.72-1.244,4.478,4.478,0,0,0,0-3.056Zm-1.084,3.8h-3.8V9.011h1.2V6.4c-.023.041-.571.547-.571.547l-.815-.774,1.544-1.3H8.743V9.011H9.965Z"/><path class="cls-1" d="M15.783,1.917a.67.67,0,0,0-.463-.176H.675a.693.693,0,0,0-.481.176A.542.542,0,0,0,0,2.335v10.8a.556.556,0,0,0,.194.434.691.691,0,0,0,.481.177H15.32a.668.668,0,0,0,.463-.177.556.556,0,0,0,.195-.434V2.335A.541.541,0,0,0,15.783,1.917ZM1.563,10.147a1.8,1.8,0,0,0-.363.038V5.306a1.8,1.8,0,0,0,.363.038,2.475,2.475,0,0,0,2.472-2.4h7.936a2.475,2.475,0,0,0,2.472,2.4,1.794,1.794,0,0,0,.335-.035v4.873a1.794,1.794,0,0,0-.335-.035,2.475,2.475,0,0,0-2.472,2.4H4.035A2.475,2.475,0,0,0,1.563,10.147Z"/></g>
</symbol>

<symbol id="caret-outline" class="symbol" viewBox="0 0 16 16">
  <defs><style>.cls-1{fill:#010101;}</style></defs><title>caret-outline</title><g id="Layer_1" data-name="Layer 1"><path class="cls-1" d="M7.926,13.4.342,4.754,2.187,2.967,7.926,9.509,13.79,2.844l1.841,1.792Z"/></g>
</symbol>

<symbol id="cc" class="symbol" viewBox="0 0 16 16">
  <defs><style>.cls-1{fill:#231f20;}</style></defs><title>cc</title><g id="Layer_1" data-name="Layer 1"><rect class="cls-1" x="5.171" y="10.18" width="2.049" height="1.165"/><rect class="cls-1" x="2.494" y="10.18" width="2.049" height="1.165"/><path class="cls-1" d="M12,8.288A1.516,1.516,0,0,0,11,8.674a1.529,1.529,0,1,0,0,2.285A1.526,1.526,0,1,0,12,8.288Z"/><path class="cls-1" d="M15.383,1.741H.617a.606.606,0,0,0-.535.332.522.522,0,0,0-.076.262v10.8h0a.578.578,0,0,0,.045.221l0,.016,0,0a.611.611,0,0,0,.561.37H15.383a.612.612,0,0,0,.612-.612V2.353A.612.612,0,0,0,15.383,1.741Zm-.738,3.632H1.355V3.091H14.645ZM1.355,12.4V6.867H14.645V12.4Z"/></g>
</symbol>

<symbol id="check-circle-o" class="symbol" viewBox="0 0 16 16">
  <title>check-circle-o</title><g id="Layer_1" data-name="Layer 1"><path d="M8.032,2.054A5.956,5.956,0,1,1,2.108,8.01,5.947,5.947,0,0,1,8.032,2.054m0-1.585a7.541,7.541,0,1,0,7.5,7.541A7.521,7.521,0,0,0,8.032.469Z"/><polygon points="10.78 5.186 7.089 8.9 5.283 7.084 4.159 8.214 7.086 11.157 7.134 11.107 7.136 11.11 11.904 6.316 10.78 5.186"/></g>
</symbol>

<symbol id="check-circle-stylized" class="symbol" viewBox="0 0 16 16">
  <title>check-circle-stylized</title><g id="Layer_1" data-name="Layer 1"><path d="M14.06,2.65A.759.759,0,0,0,13,2.476,17.518,17.518,0,0,0,7.975,8.413l-1.8-2.128a.758.758,0,0,0-1.158.979l2.554,3.021c.007.008.016.01.023.018a.749.749,0,0,0,.167.127.751.751,0,0,0,.091.06l.013.008a.754.754,0,0,0,.285.056h.006a.846.846,0,0,0,.45-.159c.011-.008.023-.011.034-.019s.017-.026.029-.037a1.079,1.079,0,0,0,.165-.225c.005-.011.014-.02.019-.031a16.561,16.561,0,0,1,5.033-6.374A.758.758,0,0,0,14.06,2.65Z"/><path d="M15.321,5.764a.758.758,0,1,0-1.449.445A6.11,6.11,0,1,1,10.218,2.3.758.758,0,1,0,10.762.881a7.625,7.625,0,1,0,4.559,4.883Z"/></g>
</symbol>

<symbol id="check" class="symbol" viewBox="0 0 16 16">
  <defs><style>.cls-1{fill:#010101;}</style></defs><title>check</title><g id="Layer_1" data-name="Layer 1"><rect class="cls-1" x="3.358" y="8.971" width="2.56" height="0.995"/><rect class="cls-1" x="3.358" y="6.907" width="7.919" height="0.995"/><rect class="cls-1" x="3.358" y="4.934" width="3.731" height="0.995"/><rect class="cls-1" x="6.696" y="8.971" width="2.56" height="0.995"/><polygon class="cls-1" points="10.188 9.965 11.183 8.971 10.087 8.971 10.087 9.965 10.188 9.965"/><path class="cls-1" d="M14.62,11.981H13.581l-1.347,1.35h3.125a.612.612,0,0,0,.612-.612V9.586l-1.35,1.353Z"/><path class="cls-1" d="M1.331,3.091H14.62V5.6l1.35-1.339V2.353a.612.612,0,0,0-.612-.612H.593a.612.612,0,0,0-.612.612V12.72a.612.612,0,0,0,.612.612H6.863L8.2,11.981H1.331Z"/><rect class="cls-1" x="9.493" y="9.048" width="6.877" height="1.771" transform="translate(-3.236 12.055) rotate(-45.007)"/><polygon class="cls-1" points="8.879 12.734 8.933 13.967 10.131 13.986 10.628 13.489 9.376 12.236 8.879 12.734"/></g>
</symbol>

<symbol id="clock-circle-o" class="symbol" viewBox="0 0 16 16">
  <title>clock-circle-o</title><g id="Layer_1" data-name="Layer 1"><polygon points="8.797 7.734 8.797 3.742 7.19 3.742 7.19 8.333 9.05 10.484 10.266 9.433 8.797 7.734"/><path d="M7.994.533a7.5,7.5,0,1,0,7.5,7.5A7.5,7.5,0,0,0,7.994.533Zm0,13.393a5.893,5.893,0,1,1,5.893-5.893A5.9,5.9,0,0,1,7.994,13.926Z"/></g>
</symbol>

<symbol id="defaults" class="symbol" viewBox="0 0 16 16">
  <defs><style>.cls-1{fill:#231f20;}</style></defs><title>defaults</title><g id="Layer_1" data-name="Layer 1"><path class="cls-1" d="M3.112,6.652A2.044,2.044,0,1,1,5.156,4.608,2.046,2.046,0,0,1,3.112,6.652Zm0-3.588A1.544,1.544,0,1,0,4.656,4.608,1.545,1.545,0,0,0,3.112,3.064Z"/><path class="cls-1" d="M7.945,13.418a2.044,2.044,0,1,1,2.044-2.044A2.046,2.046,0,0,1,7.945,13.418Zm0-3.588a1.544,1.544,0,1,0,1.544,1.544A1.545,1.545,0,0,0,7.945,9.83Z"/><path class="cls-1" d="M12.778,9.552a2.044,2.044,0,1,1,2.044-2.044A2.046,2.046,0,0,1,12.778,9.552Zm0-3.588a1.544,1.544,0,1,0,1.544,1.544A1.545,1.545,0,0,0,12.778,5.964Z"/><path class="cls-1" d="M3.112,2.814a1.779,1.779,0,0,1,.75.169V1.25a.75.75,0,0,0-1.5,0V2.983A1.779,1.779,0,0,1,3.112,2.814Z"/><path class="cls-1" d="M3.112,6.4a1.779,1.779,0,0,1-.75-.169v8.491a.75.75,0,0,0,1.5,0V6.233A1.779,1.779,0,0,1,3.112,6.4Z"/><path class="cls-1" d="M7.945,9.58a1.779,1.779,0,0,1,.75.169V1.25a.75.75,0,0,0-1.5,0v8.5A1.779,1.779,0,0,1,7.945,9.58Z"/><path class="cls-1" d="M7.945,13.168A1.779,1.779,0,0,1,7.2,13v1.724a.75.75,0,0,0,1.5,0V13A1.779,1.779,0,0,1,7.945,13.168Z"/><path class="cls-1" d="M12.778,5.714a1.779,1.779,0,0,1,.75.169V1.25a.75.75,0,0,0-1.5,0V5.883A1.779,1.779,0,0,1,12.778,5.714Z"/><path class="cls-1" d="M12.778,9.3a1.779,1.779,0,0,1-.75-.169v5.591a.75.75,0,0,0,1.5,0V9.133A1.779,1.779,0,0,1,12.778,9.3Z"/></g>
</symbol>

<symbol id="deposit" class="symbol" viewBox="0 0 16 16">
  <defs><style>.cls-1{fill:#010101;}</style></defs><title>deposit</title><g id="Layer_1" data-name="Layer 1"><rect class="cls-1" x="1.633" y="11.454" width="12.542" height="1.266"/><rect class="cls-1" x="2.091" y="5.954" width="1.266" height="4.933"/><path class="cls-1" d="M9.884,8.42A1.979,1.979,0,1,0,7.905,10.4,1.981,1.981,0,0,0,9.884,8.42Zm-1.309,0a.67.67,0,1,1-.67-.67A.671.671,0,0,1,8.575,8.42Z"/><rect class="cls-1" x="3.924" y="5.954" width="1.267" height="4.933"/><rect class="cls-1" x="12.442" y="5.946" width="1.267" height="4.933"/><rect class="cls-1" x="0.397" y="13.287" width="15.015" height="1.266"/><rect class="cls-1" x="10.609" y="5.946" width="1.267" height="4.933"/><path class="cls-1" d="M15.688,5.063,7.979.35a.173.173,0,0,0-.183,0L.121,5.063a.175.175,0,0,0,.092.324H15.6a.175.175,0,0,0,.091-.324ZM3.855,4.121,7.889,1.844l4.033,2.277Z"/></g>
</symbol>

<symbol id="donations" class="symbol" viewBox="0 0 16 16">
  <defs><style>.cls-1{fill:#231f20;}</style></defs><title>donations</title><g id="Layer_1" data-name="Layer 1"><path class="cls-1" d="M8.206,6.2,8,6.406,7.793,6.2A1.562,1.562,0,1,0,5.542,8.361l.269.274,2.015,2.052a.242.242,0,0,0,.347,0l2.284-2.326A1.562,1.562,0,1,0,8.206,6.2ZM15.812,2.2a.684.684,0,0,0-.464-.171H.677A.708.708,0,0,0,.195,2.2.519.519,0,0,0,0,2.608V13.084a.533.533,0,0,0,.195.421.706.706,0,0,0,.482.172H15.348a.682.682,0,0,0,.464-.172.532.532,0,0,0,.2-.421V2.608A.518.518,0,0,0,15.812,2.2ZM14.564,9.886a2.926,2.926,0,0,0-1.045.186,2.688,2.688,0,0,0-.844.5,2.478,2.478,0,0,0-.569.739,1.976,1.976,0,0,0-.218.906H4.118a1.992,1.992,0,0,0-.214-.906,2.367,2.367,0,0,0-.569-.739,2.745,2.745,0,0,0-.847-.5,2.907,2.907,0,0,0-1.037-.186V5.8a2.907,2.907,0,0,0,1.037-.186,2.744,2.744,0,0,0,.847-.5A2.374,2.374,0,0,0,3.9,4.379a1.992,1.992,0,0,0,.214-.906h7.771a1.976,1.976,0,0,0,.218.906,2.486,2.486,0,0,0,.569.739,2.685,2.685,0,0,0,.847.5,2.944,2.944,0,0,0,1.042.186Z"/></g>
</symbol>

<symbol id="dots-outline" class="symbol" viewBox="0 0 16 16">
  <defs><style>.cls-1{fill:#010101;}.cls-2{fill-rule:evenodd;}</style></defs><title>dots-outline</title><g id="Layer_1" data-name="Layer 1"><path class="cls-1" d="M8,.139a7.824,7.824,0,1,0,7.824,7.824A7.833,7.833,0,0,0,8,.139ZM8,15.2a7.235,7.235,0,1,1,7.235-7.235A7.243,7.243,0,0,1,8,15.2Z"/><path class="cls-2" d="M4.788,6.921A1.079,1.079,0,1,1,3.708,8,1.079,1.079,0,0,1,4.788,6.921Z"/><path class="cls-2" d="M8,6.921A1.079,1.079,0,1,1,6.921,8,1.079,1.079,0,0,1,8,6.921Z"/><path class="cls-2" d="M11.212,6.921A1.079,1.079,0,1,1,10.133,8,1.079,1.079,0,0,1,11.212,6.921Z"/></g>
</symbol>

<symbol id="download" class="symbol" viewBox="0 0 16 16">
  <defs><style>.cls-1{fill-rule:evenodd;}</style></defs><title>download</title><g id="Layer_1" data-name="Layer 1"><polygon class="cls-1" points="14.121 11.595 14.121 12.797 1.921 12.797 1.921 11.595 0.146 11.595 0.146 14.448 15.896 14.448 15.896 11.595 14.121 11.595"/><polygon class="cls-1" points="10.286 6.645 8.908 7.926 8.908 2.005 7.133 2.005 7.133 7.94 5.741 6.645 4.472 7.825 6.743 9.94 8.011 11.12 8.013 11.119 8.015 11.12 9.284 9.94 11.555 7.825 10.286 6.645"/></g>
</symbol>

<symbol id="edit-circle-outline" class="symbol" viewBox="0 0 16 16">
  <defs><style>.cls-1{fill:#010101;}</style></defs><title>edit-circle-outline</title><g id="Layer_1" data-name="Layer 1"><path class="cls-1" d="M8.048.139a7.824,7.824,0,1,0,7.824,7.824A7.833,7.833,0,0,0,8.048.139Zm0,15.058a7.235,7.235,0,1,1,7.235-7.235A7.243,7.243,0,0,1,8.048,15.2ZM10.495,4.452a.458.458,0,0,0-.632,0L5.29,9.026a.735.735,0,0,0-.174.279l-.628,1.823a.307.307,0,0,0,.043.279.313.313,0,0,0,.252.13.322.322,0,0,0,.1-.016l1.8-.61a.734.734,0,0,0,.283-.175l4.59-4.59a.447.447,0,0,0,0-.632ZM6.572,10.34a.184.184,0,0,1-.066.041l-1.322.447.461-1.341a.181.181,0,0,1,.041-.066L8.995,6.112l.9.9Zm3.753-3.753-.9-.9.757-.757.9.9Z"/></g>
</symbol>

<symbol id="email-circle" class="symbol" viewBox="0 0 16 16">
  <title>email-circle</title><path d="M8,2.044A5.956,5.956,0,1,1,2.076,8,5.947,5.947,0,0,1,8,2.044M8,.459A7.541,7.541,0,1,0,15.5,8,7.521,7.521,0,0,0,8,.459Z"/><path d="M3.7,6.124,7.6,8.016a.648.648,0,0,0,.5,0L12.3,5.937a.219.219,0,0,0,.12-.2.608.608,0,0,0-.6-.607H4.191a.615.615,0,0,0-.612.615v.179A.216.216,0,0,0,3.7,6.124Zm8.329.906L8.479,8.787a1.48,1.48,0,0,1-.621.136,1.5,1.5,0,0,1-.619-.133L3.968,7.208a.272.272,0,0,0-.389.246v2.819a.593.593,0,0,0,.589.592h7.6a.66.66,0,0,0,.656-.659V7.275A.272.272,0,0,0,12.03,7.03Z"/>
</symbol>

<symbol id="email" class="symbol" viewBox="0 0 16 16">
  <defs><style>.cls-1{fill:#010101;}.cls-2{fill:#231f20;}</style></defs><title>email</title><g id="Layer_1" data-name="Layer 1"><path class="cls-1" d="M14.36,3.049l-.037.037c.013-.013.024-.026.035-.039Z"/><path class="cls-1" d="M14.36,3.049l-.037.037c.013-.013.024-.026.035-.039Z"/><path class="cls-2" d="M.339,4.679,7.287,8.05a1.157,1.157,0,0,0,.882,0l7.494-3.7A.386.386,0,0,0,15.878,4,1.082,1.082,0,0,0,14.8,2.917H1.212a1.1,1.1,0,0,0-1.091,1.1v.319A.386.386,0,0,0,.339,4.679ZM15.181,6.294,8.853,9.424a2.669,2.669,0,0,1-2.209.006L.815,6.612a.484.484,0,0,0-.693.438v5.023a1.055,1.055,0,0,0,1.05,1.054H14.71a1.174,1.174,0,0,0,1.168-1.173V6.73A.484.484,0,0,0,15.181,6.294Z"/></g>
</symbol>

<symbol id="eraser" class="symbol" viewBox="0 0 16 16">
  <defs><style>.cls-1{fill:#010101;}</style></defs><title>eraser</title><g id="Layer_1" data-name="Layer 1"><rect class="cls-1" x="0.106" y="14.674" width="14.66" height="1.333" rx="0.184" ry="0.184"/><path class="cls-1" d="M15.832,5.861,10.776.774a.213.213,0,0,0-.3,0l-9.347,9.38a.213.213,0,0,0,0,.3l3.449,3.491a.213.213,0,0,0,.151.063H7.942a.213.213,0,0,0,.151-.063l7.739-7.784A.213.213,0,0,0,15.832,5.861Zm-8.169,7.1a.164.164,0,0,1-.117.049H5.121A.164.164,0,0,1,5,12.96L2.5,10.425a.164.164,0,0,1,0-.231L6.7,5.965l3.945,3.968Z"/></g>
</symbol>

<symbol id="external-link" class="symbol" viewBox="0 0 16 16">
  <defs><style>.cls-1{fill:#010101;}</style></defs><title>external-link</title><g id="Layer_1" data-name="Layer 1"><polygon class="cls-1" points="14.637 9.902 13.547 9.902 13.547 13.547 2.453 13.547 2.453 2.453 6.098 2.453 6.098 1.363 6.098 0.075 0.075 0.075 0.075 15.925 15.925 15.925 15.925 9.902 14.637 9.902"/><polygon class="cls-1" points="8.634 0.075 8.634 0.175 11.453 3.004 8.428 6.098 6.098 6.098 6.098 9.902 9.902 9.902 9.902 7.968 13.194 4.745 15.825 7.366 15.925 7.366 15.925 0.075 8.634 0.075"/></g>
</symbol>

<symbol id="eyeball-hide" class="symbol" viewBox="0 0 16 16">
  <defs><style>.cls-1{fill:#010101;}</style></defs><title>eyeball-hide</title><g id="Layer_1" data-name="Layer 1"><path class="cls-1" d="M6.983,5.276l3.588,3.576a2.735,2.735,0,0,0,.2-1.013A2.76,2.76,0,0,0,6.983,5.276ZM15.905,7.5C15.781,7.3,12.8,2.6,8,2.6a7.523,7.523,0,0,0-3.035.664l.962.959A6.12,6.12,0,0,1,8,3.843c3.424,0,5.887,2.978,6.62,3.984a11.892,11.892,0,0,1-2.536,2.534l.9.9a12.8,12.8,0,0,0,2.922-3.1A.618.618,0,0,0,15.905,7.5ZM4.7,4.778l.011-.006L3.8,3.862l-.011.006-.829-.826a.622.622,0,1,0-.881.879l.674.672A12.7,12.7,0,0,0,.093,7.5a.618.618,0,0,0,0,.654c.125.2,3.105,4.9,7.906,4.9a7.508,7.508,0,0,0,2.718-.523l.553.552a.622.622,0,1,0,.881-.879l-.236-.236.01-.006L11,11.038l-.01.006Zm.625,2.379a2.653,2.653,0,0,0-.1.683A2.766,2.766,0,0,0,8,10.6a2.677,2.677,0,0,0,.685-.1l1.053,1.049A6.086,6.086,0,0,1,8,11.812c-3.425,0-5.887-2.978-6.621-3.984a12,12,0,0,1,2.27-2.344Z"/></g>
</symbol>

<symbol id="eyedropper" class="symbol" viewBox="0 0 16 16">
  <defs><style>.cls-1{fill:#010101;}</style></defs><title>eyedropper</title><g id="Layer_1" data-name="Layer 1"><path class="cls-1" d="M15.422,1.853c-.652-.669-.651-.67-1.306-1.336A1.3,1.3,0,0,0,12.74.146a1.453,1.453,0,0,0-.591.36L10.159,2.482c-.647.6-.68.5-.988.519a2.064,2.064,0,0,0-1.649.79L6.2,5.112l-.33.33.555.568L2.429,9.989a2.153,2.153,0,0,0-.552,1.078c-.028.107-.055.211-.092.314A4.924,4.924,0,0,1,.436,13.3l-.428.428,2.153,2.2.428-.426a5.021,5.021,0,0,1,1.916-1.346,3.157,3.157,0,0,1,.313-.09,2.135,2.135,0,0,0,1.074-.544L9.883,9.545l.556.57.333-.332,1.322-1.32a2.087,2.087,0,0,0,.8-1.646c.027-.309-.074-.345.528-.992l1.985-1.981a1.592,1.592,0,0,0,.362-.6A1.326,1.326,0,0,0,15.422,1.853ZM5.039,12.664a.929.929,0,0,1-.5.223c-.112.03-.247.066-.415.119a5.441,5.441,0,0,0-1.945,1.209L1.7,13.726a5.534,5.534,0,0,0,1.221-1.95c.055-.169.093-.307.125-.421a.956.956,0,0,1,.228-.5L7.272,6.878l1.767,1.8Z"/></g>
</symbol>

<symbol id="giving-logo" class="symbol" viewBox="0 0 16 16">
  <defs><style>.cls-1{fill:#231f20;}</style></defs><title>giving-logo</title><path class="cls-1" d="M1.41408,6.58592C.28283,6.58592,0,6.86874,0,8S.28283,9.41408,1.41408,9.41408,2.82816,9.13127,2.82816,8,2.54534,6.58592,1.41408,6.58592ZM1.4562,8.536a.0722.0722,0,0,1-.08418,0c-.17893-.12625-.85-.63857-.46437-.97045a.339.339,0,0,1,.4568.029l.04963.04967.04963-.04967a.33895.33895,0,0,1,.45679-.029C2.30614,7.8974,1.63512,8.40971,1.4562,8.536Z"/><path class="cls-1" d="M4.8587,7.22552H4.77634c-.04746,0-.05949.036-.067.05885l-.02767.06688A.67581.67581,0,0,0,4.24238,7.195a.7115.7115,0,0,0-.68155.75161.71963.71963,0,0,0,.69676.7546.76331.76331,0,0,0,.34371-.089V8.6605c0,.29917-.182.36195-.33455.36195a.513.513,0,0,1-.31966-.128.08177.08177,0,0,0-.067-.01633.07855.07855,0,0,0-.05172.043l-.073.134a.08108.08108,0,0,0,.01777.099.777.777,0,0,0,.4998.18174.62376.62376,0,0,0,.6692-.67532V7.3089A.08562.08562,0,0,0,4.8587,7.22552Zm-.25443.4781v.57046a.56065.56065,0,0,1-.31007.1047.42063.42063,0,0,1-.39542-.43218.38108.38108,0,0,1,.70549-.243Z"/><path class="cls-1" d="M5.3901,6.58867a.22233.22233,0,0,0,0,.44457.22229.22229,0,1,0,0-.44457Z"/><path class="cls-1" d="M5.3045,7.22552h.17095a.08353.08353,0,0,1,.08353.08353V8.5842a.08348.08348,0,0,1-.08348.08348H5.30455a.08342.08342,0,0,1-.08342-.08342V7.3089A.08337.08337,0,0,1,5.3045,7.22552Z"/><path class="cls-1" d="M7.00188,7.22552H6.86461c-.04065,0-.08673,0-.1095.04917l-.38137.8369-.364-.83749a.07691.07691,0,0,0-.07566-.04858H5.748a.07694.07694,0,0,0-.06992.03379.069.069,0,0,0,.00352.06927l.61014,1.327a.08463.08463,0,0,0,.07555.04565h.01841a.07928.07928,0,0,0,.07279-.04613L7.068,7.32922a.06908.06908,0,0,0,.00384-.07A.077.077,0,0,0,7.00188,7.22552Z"/><path class="cls-1" d="M7.36271,6.58867a.22233.22233,0,0,0,0,.44457.22229.22229,0,1,0,0-.44457Z"/><path class="cls-1" d="M7.27721,7.22552h.17095a.08353.08353,0,0,1,.08353.08353V8.5842a.08348.08348,0,0,1-.08348.08348H7.27737a.08353.08353,0,0,1-.08353-.08353V7.3089A.08337.08337,0,0,1,7.27721,7.22552Z"/><path class="cls-1" d="M8.537,7.195a.6637.6637,0,0,0-.46639.18084L8.03734,7.281a.07006.07006,0,0,0-.07385-.0555H7.89028a.08564.08564,0,0,0-.08353.08338V8.5842a.08359.08359,0,0,0,.08353.08348h.15557c.0664,0,.09875-.02729.09875-.08348v-.875a.416.416,0,0,1,.35583-.19164c.16844,0,.26123.12317.26123.34673v.72a.08464.08464,0,0,0,.08353.08348H9.016a.0857.0857,0,0,0,.08353-.08348V7.87637C9.09951,7.41786,8.91553,7.195,8.537,7.195Z"/><path class="cls-1" d="M10.57934,7.22552H10.497c-.04745,0-.05948.036-.067.05885l-.02767.06688A.67581.67581,0,0,0,9.963,7.195a.7115.7115,0,0,0-.68155.75161.71963.71963,0,0,0,.69676.7546.76321.76321,0,0,0,.3437-.089V8.6605c0,.29917-.182.36195-.33455.36195a.513.513,0,0,1-.31965-.128.0818.0818,0,0,0-.067-.01633.07854.07854,0,0,0-.05171.043l-.073.134a.0811.0811,0,0,0,.01777.099.777.777,0,0,0,.49981.18174.62376.62376,0,0,0,.6692-.67532V7.3089A.08562.08562,0,0,0,10.57934,7.22552Zm-.25443.4781v.57046a.56065.56065,0,0,1-.31007.1047.42063.42063,0,0,1-.39542-.43218.38108.38108,0,0,1,.70549-.243Z"/>
</symbol>

<symbol id="hold" class="symbol" viewBox="0 0 16 16">
  <defs><style>.cls-1{fill:#010101;}</style></defs><title>hold</title><g id="Layer_1" data-name="Layer 1"><path class="cls-1" d="M2.085,7.975,8.04,13.93a.1.1,0,0,0,.148,0l5.955-5.955a.1.1,0,0,0,0-.148L8.188,1.872a.1.1,0,0,0-.148,0L2.085,7.827A.1.1,0,0,0,2.085,7.975ZM7.9,15.7.316,8.112a.3.3,0,0,1,0-.421L7.9.1a.3.3,0,0,1,.421,0l7.588,7.588a.3.3,0,0,1,0,.421L8.325,15.7A.3.3,0,0,1,7.9,15.7Z"/><rect class="cls-1" x="5.934" y="5.658" width="1.689" height="4.501"/><rect class="cls-1" x="8.621" y="5.658" width="1.693" height="4.501"/></g>
</symbol>

<symbol id="incomplete-circle-o" class="symbol" viewBox="0 0 16 16">
  <title>incomplete-circle-o</title><g id="Layer_1" data-name="Layer 1"><path d="M3.705,8.023A4.31,4.31,0,0,0,8,12.345V3.7A4.31,4.31,0,0,0,3.705,8.023Z"/><path d="M8,.482a7.541,7.541,0,1,0,7.5,7.541A7.52,7.52,0,0,0,8,.482ZM8,13.948A5.925,5.925,0,1,1,13.9,8.023,5.916,5.916,0,0,1,8,13.948Z"/></g>
</symbol>

<symbol id="info-alt" class="symbol" viewBox="0 0 16 16">
  <defs><style>.cls-2{fill:none;}.cls-1{fill:#231f20;}</style></defs><title>info-alt</title><path class="cls-2" d="M8,.137A7.863,7.863,0,1,0,15.863,8,7.863,7.863,0,0,0,8,.137ZM8.5,2.9A1.367,1.367,0,1,1,7.136,4.261,1.367,1.367,0,0,1,8.5,2.9Zm1.7,9.019a3.262,3.262,0,0,1-2.474,1c-2.01-.085-1.51-1.989-1.436-2.446s.489-2.722.511-2.913.223-.553-.341-.7-.744-.266-.744-.394.107-.318.468-.318H8.651a.708.708,0,0,1,.7.8l-.821,4.28a.572.572,0,0,0,.75.612l.771-.331A.241.241,0,0,1,10.205,11.914Z"/><path class="cls-1" d="M10.054,11.5l-.772.332a.572.572,0,0,1-.751-.613l.822-4.288a.71.71,0,0,0-.7-.8H6.182c-.362,0-.468.192-.468.32s.181.245.745.394.363.511.341.7-.437,2.461-.511,2.919-.575,2.364,1.438,2.45a3.264,3.264,0,0,0,2.478-1A.241.241,0,0,0,10.054,11.5ZM8.5,5.623A1.369,1.369,0,1,0,7.131,4.254,1.368,1.368,0,0,0,8.5,5.623ZM8,.137A7.863,7.863,0,1,0,15.863,8,7.863,7.863,0,0,0,8,.137ZM8,14.665A6.665,6.665,0,1,1,14.665,8,6.673,6.673,0,0,1,8,14.665Z"/>
</symbol>

<symbol id="info" class="symbol" viewBox="0 0 16 16">
  <defs><style>.cls-1{fill:#010101;}</style></defs><title>info</title><g id="Layer_1" data-name="Layer 1"><path class="cls-1" d="M10.054,11.5l-.772.332a.572.572,0,0,1-.751-.613l.822-4.288a.709.709,0,0,0-.7-.8H6.182c-.362,0-.469.192-.469.319s.181.245.746.394.362.511.341.7-.437,2.461-.511,2.919-.575,2.365,1.438,2.45a3.266,3.266,0,0,0,2.478-1A.242.242,0,0,0,10.054,11.5ZM8.5,5.623A1.369,1.369,0,1,0,7.131,4.254,1.369,1.369,0,0,0,8.5,5.623ZM8,.137A7.863,7.863,0,1,0,15.863,8,7.863,7.863,0,0,0,8,.137ZM8,14.665A6.665,6.665,0,1,1,14.665,8,6.673,6.673,0,0,1,8,14.665Z"/></g>
</symbol>

<symbol id="label" class="symbol" viewBox="0 0 16 16">
  <defs><style>.cls-1{fill:#231f20;}</style></defs><title>label</title><g id="Layer_1" data-name="Layer 1"><path class="cls-1" d="M10.341,6.694l-3.52,3.518a.829.829,0,0,0,0,1.171h0a.83.83,0,0,0,1.172,0l3.52-3.519a.829.829,0,0,0-1.173-1.172ZM6.883,11.322Z"/><path class="cls-1" d="M11.7,4.432a1.022,1.022,0,1,0-.3-.722A1.014,1.014,0,0,0,11.7,4.432Z"/><path class="cls-1" d="M4.74,9.3h0a.829.829,0,0,0,1.172,0l3.52-3.519A.829.829,0,0,0,8.26,4.614L4.741,8.132A.83.83,0,0,0,4.74,9.3ZM4.8,9.242Z"/><path class="cls-1" d="M16.092,7.107,16.059.814a.848.848,0,0,0-.824-.824l-6.3-.033A.825.825,0,0,0,8.349.2L.242,8.3a.83.83,0,0,0,0,1.171h0L6.571,15.8a.825.825,0,0,0,.586.243.834.834,0,0,0,.586-.242L15.85,7.7A.824.824,0,0,0,16.092,7.107Zm-1.66-.338L7.157,14.043,2,8.889,9.277,1.616l5.129.027ZM.3,9.412Z"/></g>
</symbol>

<symbol id="logs" class="symbol" viewBox="0 0 16 16">
  <defs><style>.cls-1{fill:#010101;}</style></defs><title>logs</title><g id="Layer_1" data-name="Layer 1"><path class="cls-1" d="M11.577,5.967a5.169,5.169,0,0,0-.772-.058h0a5.077,5.077,0,1,0,.774.058Zm-.491,8.821v-.5a.315.315,0,0,0-.63,0v.494a3.925,3.925,0,0,1-3.61-3.555h.492a.31.31,0,1,0,0-.619H6.844a3.923,3.923,0,0,1,3.612-3.6v.541a.315.315,0,0,0,.63,0V7.007a3.923,3.923,0,0,1,3.681,3.6H14.2a.31.31,0,1,0,0,.619h.563A3.925,3.925,0,0,1,11.086,14.788Z"/><path class="cls-1" d="M12.442,11.33l-1-.5V9.09A.448.448,0,0,0,11,8.646h-.29a.448.448,0,0,0-.451.443v2.477l.336.165,1.314.646a.455.455,0,0,0,.6-.2l.132-.255A.44.44,0,0,0,12.442,11.33Z"/><path class="cls-1" d="M5.819,13.916H1.472V1.478H7.393V3.955a.136.136,0,0,0,.04.095.139.139,0,0,0,.1.039h2.507V5.2a5.949,5.949,0,0,1,.767-.055,5.885,5.885,0,0,1,.615.046v-1.4a.589.589,0,0,0-.181-.426L8.085.275A.625.625,0,0,0,7.651.1H.7A.624.624,0,0,0,.27.275.6.6,0,0,0,.09.7V14.73a.6.6,0,0,0,.18.426.622.622,0,0,0,.434.176H7.058A5.832,5.832,0,0,1,5.819,13.916Z"/></g>
</symbol>

<symbol id="merge-circle-outline" class="symbol" viewBox="0 0 16 16">
  <defs><style>.cls-1{fill:#010101;}</style></defs><title>merge-circle-outline</title><g id="Layer_1" data-name="Layer 1"><path class="cls-1" d="M8,.139a7.824,7.824,0,1,0,7.824,7.824A7.833,7.833,0,0,0,8,.139ZM8,15.2a7.235,7.235,0,1,1,7.235-7.235A7.243,7.243,0,0,1,8,15.2Z"/><path class="cls-1" d="M9.237,8.359a.375.375,0,0,1-.315-.172L7.251,5.6H5.977a.375.375,0,0,1,0-.75H7.455a.374.374,0,0,1,.315.172L9.551,7.781a.375.375,0,0,1-.314.578Z"/><path class="cls-1" d="M7.455,11.116H5.977a.375.375,0,1,1,0-.75H7.251l1.67-2.585a.375.375,0,1,1,.63.406L7.77,10.944A.374.374,0,0,1,7.455,11.116Z"/><path class="cls-1" d="M10.723,8.464H9.236a.48.48,0,0,1,0-.961h1.487a.48.48,0,1,1,0,.961Z"/><path class="cls-1" d="M10.5,9.312V6.674a.172.172,0,0,1,.262-.147l1.96,1.192a.338.338,0,0,1,0,.579L10.764,9.461A.172.172,0,0,1,10.5,9.312Z"/><path class="cls-1" d="M5.242,6.337A1.109,1.109,0,1,1,6.352,5.228,1.111,1.111,0,0,1,5.242,6.337Zm0-1.469a.359.359,0,1,0,.359.359A.36.36,0,0,0,5.242,4.869Z"/><path class="cls-1" d="M5.242,11.85a1.109,1.109,0,1,1,1.109-1.109A1.111,1.111,0,0,1,5.242,11.85Zm0-1.469a.359.359,0,1,0,.359.359A.36.36,0,0,0,5.242,10.381Z"/></g>
</symbol>

<symbol id="note" class="symbol" viewBox="0 0 16 16">
  <defs><style>.cls-1{fill:#010101;}</style></defs><title>note</title><g id="Layer_1" data-name="Layer 1"><rect class="cls-1" x="3.253" y="7.738" width="7.053" height="1.056"/><rect class="cls-1" x="3.253" y="5.546" width="9.458" height="1.056"/><rect class="cls-1" x="3.253" y="3.451" width="9.458" height="1.056"/><path class="cls-1" d="M15.82,11.015a.828.828,0,0,1-.193.93l-3.8,3.66a.9.9,0,0,1-.626.25A.873.873,0,0,1,10.306,15V11.575a1.114,1.114,0,0,1,1.141-1.083h3.56A.878.878,0,0,1,15.82,11.015Zm-4.087,2.733,1.956-1.882"/><path class="cls-1" d="M14.628.145H1.434A1.17,1.17,0,0,0,.174,1.192V14.808a1.17,1.17,0,0,0,1.26,1.048H11.3l-.016-1.341H1.787V1.486H14.276V11.41h1.612V1.192A1.17,1.17,0,0,0,14.628.145Z"/></g>
</symbol>

<symbol id="payment-methods" class="symbol" viewBox="0 0 16 16">
  <defs><style>.cls-1{fill:#010101;fill-rule:evenodd;}</style></defs><title>payment-methods</title><g id="Layer_1" data-name="Layer 1"><path class="cls-1" d="M14.9,0H2.42L4.669,1.492h8.515a.56.56,0,0,1,.577.54V2.04a.56.56,0,0,1-.577.54H6.335L7.871,3.6h5.312a.56.56,0,0,1,.577.54v.008a.56.56,0,0,1-.577.54H9.616l.053.035a1.99,1.99,0,0,1,.892,1.662v4.661H14.9a.722.722,0,0,0,.722-.721V.722A.722.722,0,0,0,14.9,0Z"/><path class="cls-1" d="M9.265,5.587.937.06a.358.358,0,0,0-.556.3V8.447a1.172,1.172,0,0,0,.451.924l8.283,6.462a.358.358,0,0,0,.578-.282V6.384A.957.957,0,0,0,9.265,5.587Z"/></g>
</symbol>

<symbol id="payment-sources" class="symbol" viewBox="0 0 16 16">
  <defs><style>.cls-1{fill:#010101;}.cls-2{fill:#231f20;}.cls-3{fill:none;}</style></defs><title>payment-sources</title><path class="cls-1" d="M13.367,2.094a.525.525,0,0,1,.525.525V13.381a.525.525,0,0,1-.525.525H5.094a.525.525,0,0,1-.525-.525V2.619a.525.525,0,0,1,.525-.525h8.273m0-1.094H5.094A1.618,1.618,0,0,0,3.476,2.619V13.381A1.618,1.618,0,0,0,5.094,15h8.273a1.618,1.618,0,0,0,1.618-1.618V2.619A1.618,1.618,0,0,0,13.367,1Z"/><path class="cls-2" d="M6.66,11.086l.773-.955c.046-.056.1-.068.149-.023a2.648,2.648,0,0,0,1.364.6V8.766A2.234,2.234,0,0,1,6.808,6.526,2.342,2.342,0,0,1,8.946,4.137V3.466a.108.108,0,0,1,.114-.114h.524a.108.108,0,0,1,.114.114v.671a3.877,3.877,0,0,1,1.808.614.114.114,0,0,1,.023.171l-.66.955a.114.114,0,0,1-.16.034,2.845,2.845,0,0,0-1.012-.4V7.345a2.2,2.2,0,0,1,2.15,2.264A2.354,2.354,0,0,1,9.7,12.054v.694a.108.108,0,0,1-.114.114H9.06a.107.107,0,0,1-.114-.114v-.66a3.969,3.969,0,0,1-2.263-.83A.115.115,0,0,1,6.66,11.086ZM8.946,5.57a.862.862,0,0,0-.569.83.764.764,0,0,0,.569.8Zm1.331,4.118a.762.762,0,0,0-.58-.762v1.706A.931.931,0,0,0,10.277,9.688Z"/><path class="cls-3" d="M2.108,3.495v9.011a.525.525,0,0,0,.525.525h.279V2.97H2.633A.525.525,0,0,0,2.108,3.495Z"/><path class="cls-1" d="M2.633,13.03a.525.525,0,0,1-.525-.525V3.495a.525.525,0,0,1,.525-.525h.279V1.876H2.633A1.618,1.618,0,0,0,1.015,3.495v9.011a1.618,1.618,0,0,0,1.618,1.618h.279V13.03Z"/>
</symbol>

<symbol id="person-group" class="symbol" viewBox="0 0 16 16">
  <defs><style>.cls-1{fill:#020202;}</style></defs><title>person-group</title><g id="Layer_1" data-name="Layer 1"><path class="cls-1" d="M16.025,14.92a22.683,22.683,0,0,0-.217-3.343c-.275-.468-.917-.789-2.107-1.287s-1.566-.915-1.566-1.811c0-.538.362-.362.522-1.347.066-.409.386-.007.447-.939,0-.372-.175-.464-.175-.464s.089-.55.123-.973a1.78,1.78,0,0,0-1.913-1.89,1.78,1.78,0,0,0-1.913,1.89c.035.424.123.973.123.973s-.173.092-.173.464c.061.933.381.531.447.939.159.985.522.809.522,1.347a1.448,1.448,0,0,1-.662,1.34c2.593,1.3,2.94,1.562,2.94,2.722V14.92ZM8.2,10.74c-1.582-.661-2.088-1.219-2.088-2.414,0-.717.483-.483.7-1.8.088-.545.515-.009.6-1.253,0-.5-.233-.619-.233-.619s.118-.733.165-1.3A2.373,2.373,0,0,0,4.788.84a2.373,2.373,0,0,0-2.55,2.521c.046.565.164,1.3.164,1.3s-.232.123-.232.619c.082,1.243.508.707.6,1.252.212,1.313.695,1.079.695,1.8,0,1.194-.506,1.752-2.088,2.414C.891,10.942.025,11.254.025,12V14.92H11.14V12.735C11.14,12.049,9.791,11.4,8.2,10.74Z"/></g>
</symbol>

<symbol id="phone-outline" class="symbol" viewBox="0 0 16 16">
  <defs><style>.cls-1{fill:#231f20;}</style></defs><title>phone-outline</title><g id="Layer_1" data-name="Layer 1"><path class="cls-1" d="M12.563.006H3.437a.99.99,0,0,0-.981,1v13.99a.99.99,0,0,0,.981,1h9.125a.99.99,0,0,0,.981-1V1.005A.99.99,0,0,0,12.563.006ZM3.706,14.744V1.256h8.588V14.744Zm4.4-3.172A1.031,1.031,0,1,0,9.16,12.6,1.045,1.045,0,0,0,8.1,11.572Z"/></g>
</symbol>

<symbol id="phone" class="symbol" viewBox="0 0 16 16">
  <defs><style>.cls-1{fill:#231f20;}</style></defs><title>phone</title><g id="Layer_1" data-name="Layer 1"><path class="cls-1" d="M1.961,5.8A26.787,26.787,0,0,0,9.05,14.416l1.081.86a1.756,1.756,0,0,0,2.216-.023h0l1.892-1.57.308-.255a1.305,1.305,0,0,0,.173-1.832L13.269,9.831a1.292,1.292,0,0,0-1.825-.174l-1.83,1.519a26.79,26.79,0,0,1-4.378-5.32l1.83-1.519A1.305,1.305,0,0,0,7.239,2.5L5.787.74A1.292,1.292,0,0,0,3.963.565L3.655.821,1.763,2.391h0a1.774,1.774,0,0,0-.44,2.182Z"/></g>
</symbol>

<symbol id="printer-circle" class="symbol" viewBox="0 0 16 16">
  <title>printer-circle</title><path d="M8,2.044A5.956,5.956,0,1,1,2.076,8,5.947,5.947,0,0,1,8,2.044M8,.459A7.541,7.541,0,1,0,15.5,8,7.521,7.521,0,0,0,8,.459Z"/><path d="M12.053,10.505l-.01-3.14a.778.778,0,0,0-.778-.776h-.7V5.834L8.7,4.309H5.434v2.28H4.725a.779.779,0,0,0-.778.78l.01,3.136H5.434v1.186h5.129V10.505ZM5.975,4.84H8.349V6.131h1.712V7.552H5.975V4.84Zm4.086,6.3H5.975V9.75h4.086v1.386Z"/>
</symbol>

<symbol id="r-arr-circle-outline" class="symbol" viewBox="0 0 16 16">
  <defs><style>.cls-1{fill:#010101;}</style></defs><title>r-arr-circle-outline</title><g id="Layer_1" data-name="Layer 1"><path class="cls-1" d="M7.09,4.879c-.065-.065-.326-.267-.543-.088-.16.166-.113.321-.048.386L9.285,7.966,6.431,10.82a.382.382,0,0,0,.015.424c.107.123.328.086.515-.1l3.1-3.057a.165.165,0,0,0,0-.233ZM8.033.139a7.827,7.827,0,1,0,7.826,7.827A7.836,7.836,0,0,0,8.033.139Zm0,15.064A7.237,7.237,0,1,1,15.27,7.966,7.245,7.245,0,0,1,8.033,15.2Z"/></g>
</symbol>

<symbol id="recurring" class="symbol" viewBox="0 0 16 16">
  <defs><style>.cls-1{fill:#010101;}</style></defs><title>recurring</title><g id="Layer_1" data-name="Layer 1"><path class="cls-1" d="M7.562,11.6a3.168,3.168,0,0,1,.629-3.52,3.065,3.065,0,0,1,3.473-.638l.035.012-.586.466a.575.575,0,0,0-.1.8.557.557,0,0,0,.79.1l1.485-1.18a.576.576,0,0,0,.2-.565L13.11,5.188a.562.562,0,0,0-.665-.442.57.57,0,0,0-.436.674l.179.868-.014-.008a4.294,4.294,0,0,0-4.865.9,4.44,4.44,0,0,0-.887,4.93.624.624,0,0,0,.571.376.615.615,0,0,0,.254-.055A.636.636,0,0,0,7.562,11.6ZM14.382,8.52a.623.623,0,0,0-.825-.322.637.637,0,0,0-.318.836,3.169,3.169,0,0,1-.629,3.52,3.061,3.061,0,0,1-3.4.669l.585-.465a.575.575,0,0,0,.1-.8.557.557,0,0,0-.789-.1L7.618,13.042a.574.574,0,0,0-.2.565L7.8,15.485a.564.564,0,0,0,.55.454.564.564,0,0,0,.551-.686l-.178-.864a4.366,4.366,0,0,0,1.709.353A4.285,4.285,0,0,0,13.5,13.451,4.446,4.446,0,0,0,14.382,8.52ZM2.208,3.938h10.08V1.76a.657.657,0,0,0-.651-.659H10.174V.613a.6.6,0,0,0-.594-.6H9.142a.6.6,0,0,0-.594.6V1.1H4.972V.613a.6.6,0,0,0-.594-.6H3.94a.6.6,0,0,0-.594.6V1.1H1.883a.656.656,0,0,0-.65.659v9.886a.657.657,0,0,0,.65.66H4.937V11.189H2.208Z"/></g>
</symbol>

<symbol id="routing-mark" class="symbol" viewBox="0 0 16 16">
  <defs><style>.cls-1{fill:#010101;fill-rule:evenodd;}</style></defs><title>routing-mark</title><g id="Layer_1" data-name="Layer 1"><path class="cls-1" d="M8.609,3V6h3V3Zm0,10h3V10h-3Zm-4-2h2V5h-2Z"/></g>
</symbol>

<symbol id="skip-circle-o" class="symbol" viewBox="0 0 16 16">
  <title>skip-circle-o</title><g id="Layer_1" data-name="Layer 1"><path d="M8,.533a7.5,7.5,0,1,0,7.5,7.5A7.5,7.5,0,0,0,8,.533ZM8,13.926A5.893,5.893,0,1,1,13.9,8.033,5.9,5.9,0,0,1,8,13.926Z"/><path d="M8.94,4.565,7.9,5.611,9.293,6.988a5.6,5.6,0,0,0-2.856.294,5.445,5.445,0,0,0-2.7,2.257L4.8,10.676A3.782,3.782,0,0,1,6.982,8.649,4.283,4.283,0,0,1,9.373,8.5L7.922,9.96,8.968,11l3.2-3.23Z"/></g>
</symbol>

<symbol id="speedy" class="symbol" viewBox="0 0 16 16">
  <defs><style>.cls-1{fill:#231f20;}</style></defs><title>speedy</title><g id="Layer_1" data-name="Layer 1"><path class="cls-1" d="M15.744,9.221c-.085-.3-.351-.921-.442-1.384a2.108,2.108,0,0,0-.767-1.578,4.361,4.361,0,0,0-1.292-.625A8.509,8.509,0,0,0,11.37,2.921,10.03,10.03,0,0,0,7.485.819a7.489,7.489,0,0,0,1.88,3.442,22.108,22.108,0,0,0,2.1,1.818,1.863,1.863,0,0,0-.487.476.759.759,0,0,1-.437-.208c-.269-.214-2.728-2.123-3.5-2.674s-1.216-1.1-2.312-.929A16.533,16.533,0,0,0,.681,4.6a2.356,2.356,0,0,0-.312.814.71.71,0,0,0,.757.29.205.205,0,0,1,.25.2,3.6,3.6,0,0,0,1,2.783A3.872,3.872,0,0,0,4.782,9.712a.577.577,0,0,1,.55.241c.137.163,3.839,4.435,3.839,4.435l3.974.435a.941.941,0,0,0-.9-1.013,6.815,6.815,0,0,1-1.652-.239c-.116-.108-1.493-3.587-2-4.689S7.679,6.19,6.605,5.912a4.422,4.422,0,0,0-1.557-.2s.043-.356.361-.349,1.732-.137,2.4.753a55.076,55.076,0,0,1,2.6,5.358s.4.21.849-.274,1.132-1.217,1.786-1.2,1.689.237,1.818.177.893-.593.893-.593S15.829,9.517,15.744,9.221Zm-1.432-.6a.476.476,0,1,1,.458-.493A.476.476,0,0,1,14.312,8.62Z"/><path class="cls-1" d="M4.782,11.766a1.942,1.942,0,0,0-.935-.041,1.136,1.136,0,0,0,.009.261,1.471,1.471,0,0,0,1.676.91c1.341-.086,1.353-.273,1.353-.273l-.932-.975C5.438,11.836,5.105,11.922,4.782,11.766Z"/></g>
</symbol>

<symbol id="statements" class="symbol" viewBox="0 0 16 16">
  <title>statements</title><g id="Layer_1" data-name="Layer 1"><path d="M12.843,1.078V.145H.108V15.855H12.843v-.973H16V1.078ZM1.572,14.55V1.45H11.38v13.1Zm11.271-.973V2.384h1.693V13.577Z"/><rect x="3.383" y="3.417" width="6.185" height="1.306"/><rect x="3.383" y="5.672" width="6.185" height="1.306"/><rect x="3.383" y="7.928" width="6.185" height="1.305"/><rect x="3.383" y="10.183" width="6.185" height="1.305"/></g>
</symbol>

<symbol id="stripe-link" class="symbol" viewBox="0 0 16 16">
  <defs><style>.cls-1,.cls-2{fill:#010101;}.cls-2{fill-rule:evenodd;}</style></defs><title>stripe-link</title><g id="Layer_1" data-name="Layer 1"><polygon class="cls-1" points="14.652 9.888 13.556 9.888 13.556 13.556 2.392 13.556 2.392 2.392 6.06 2.392 6.06 1.296 6.06 0 0 0 0 15.948 15.948 15.948 15.948 9.888 14.652 9.888"/><polygon class="cls-1" points="8.612 0 8.612 0.1 11.448 2.947 10.514 3.903 12.28 5.6 13.2 4.698 15.848 7.336 15.948 7.336 15.948 0 8.612 0"/><path class="cls-2" d="M7.447,6.472c0-.318.265-.441.691-.441a4.563,4.563,0,0,1,2.025.524V4.638a5.379,5.379,0,0,0-2.023-.373c-1.651,0-2.753.863-2.753,2.3,0,2.254,3.1,1.888,3.1,2.86,0,.376-.327.5-.781.5a5.129,5.129,0,0,1-2.228-.65V11.22a5.65,5.65,0,0,0,2.226.462c1.693,0,2.859-.836,2.859-2.3C10.56,6.953,7.447,7.388,7.447,6.472Z"/></g>
</symbol>

<symbol id="stripe" class="symbol" viewBox="0 0 16 16">
  <defs><style>.cls-1,.cls-2{fill:#010101;}.cls-1{fill-rule:evenodd;}</style></defs><title>stripe</title><g id="Layer_1" data-name="Layer 1"><g id="Stripe"><path class="cls-1" d="M15.333,8.1c0-1.039-.5-1.86-1.467-1.86a1.649,1.649,0,0,0-1.553,1.854,1.621,1.621,0,0,0,1.681,1.843,2.275,2.275,0,0,0,1.125-.263V8.856a2.143,2.143,0,0,1-1,.225c-.4,0-.744-.14-.789-.616H15.32C15.324,8.411,15.333,8.2,15.333,8.1Zm-2.009-.384c0-.457.282-.649.536-.649s.513.192.513.649Z"/><path class="cls-1" d="M10.745,6.24a1.136,1.136,0,0,0-.795.318L9.9,6.308H9v4.736l1.015-.216,0-1.148a1.138,1.138,0,0,0,.718.257c.726,0,1.39-.584,1.39-1.873C12.129,6.882,11.458,6.24,10.745,6.24ZM10.5,9.04a.606.606,0,0,1-.479-.193L10.018,7.34a.613.613,0,0,1,.485-.2c.371,0,.627.416.627.947C11.129,8.632,10.878,9.04,10.5,9.04Z"/><polygon class="cls-1" points="7.605 5.999 8.624 5.782 8.624 4.956 7.605 5.172 7.605 5.999"/><rect class="cls-2" x="7.605" y="6.308" width="1.019" height="3.557"/><path class="cls-1" d="M6.514,6.608l-.064-.3H5.573V9.864H6.587V7.453a.721.721,0,0,1,.774-.213V6.308A.692.692,0,0,0,6.514,6.608Z"/><path class="cls-1" d="M4.479,5.427l-.991.211,0,3.255A1.022,1.022,0,0,0,4.538,9.937,1.568,1.568,0,0,0,5.25,9.8V8.977c-.13.052-.77.238-.77-.36V7.173H5.25V6.308H4.48Z"/><path class="cls-1" d="M1.732,7.34c0-.158.132-.22.345-.22a2.274,2.274,0,0,1,1.009.261V6.426A2.681,2.681,0,0,0,2.077,6.24c-.823,0-1.372.43-1.372,1.148,0,1.123,1.543.941,1.543,1.425,0,.187-.163.248-.389.248a2.556,2.556,0,0,1-1.11-.324v.969a2.816,2.816,0,0,0,1.109.23c.844,0,1.425-.417,1.425-1.147C3.283,7.58,1.732,7.8,1.732,7.34Z"/></g></g>
</symbol>

<symbol id="to-arrow" class="symbol" viewBox="0 0 16 16">
  <defs><style>.cls-1{fill:#231f20;}</style></defs><title>to-arrow</title><g id="Layer_1" data-name="Layer 1"><path class="cls-1" d="M14.173,7.78,9.79,3.441a.913.913,0,0,0-1.283,0,.891.891,0,0,0,0,1.27l2.835,2.807H2.468a.9.9,0,1,0,0,1.8h8.874L8.507,12.12a.891.891,0,0,0,0,1.27.913.913,0,0,0,1.283,0l4.383-4.34A.891.891,0,0,0,14.173,7.78Z"/></g>
</symbol>

<symbol id="transfers" class="symbol" viewBox="0 0 16 16">
  <defs><style>.cls-1{fill:#010101;}</style></defs><title>transfers</title><g id="Layer_1" data-name="Layer 1"><path class="cls-1" d="M2.825,9.8l.467-.577c.028-.034.062-.041.09-.014a1.6,1.6,0,0,0,.825.364V8.4A1.35,1.35,0,0,1,2.914,7.042,1.415,1.415,0,0,1,4.206,5.6V5.193a.065.065,0,0,1,.069-.069h.316a.065.065,0,0,1,.069.069V5.6a2.343,2.343,0,0,1,1.092.371.069.069,0,0,1,.014.1l-.4.577a.069.069,0,0,1-.1.021A1.719,1.719,0,0,0,4.66,6.43V7.537A1.328,1.328,0,0,1,5.959,8.9a1.423,1.423,0,0,1-1.3,1.478V10.8a.065.065,0,0,1-.069.069H4.275a.065.065,0,0,1-.069-.069v-.4a2.4,2.4,0,0,1-1.368-.5A.07.07,0,0,1,2.825,9.8ZM4.206,6.464a.521.521,0,0,0-.344.5.461.461,0,0,0,.344.481Zm.8,2.488a.46.46,0,0,0-.351-.461V9.523A.563.563,0,0,0,5.011,8.953Z"/><path class="cls-1" d="M8.342,7.539V6.425a1.8,1.8,0,0,1,.605.244.067.067,0,0,0,.1-.02l.4-.576a.071.071,0,0,0-.02-.107A2.339,2.339,0,0,0,8.342,5.6V5.2a.067.067,0,0,0-.068-.068H7.951a.067.067,0,0,0-.068.068v.4A1.412,1.412,0,0,0,6.594,7.041,1.356,1.356,0,0,0,7.883,8.4V9.57a1.514,1.514,0,0,1-.82-.361.066.066,0,0,0-.1.01l-.459.576a.069.069,0,0,0,.01.107,2.362,2.362,0,0,0,1.367.5v.4a.067.067,0,0,0,.068.068h.322a.067.067,0,0,0,.068-.068v-.42a1.6,1.6,0,0,0,.449-.127v-.01l.83-1.552A1.335,1.335,0,0,0,8.342,7.539Zm-.459-.088a.463.463,0,0,1-.342-.488.508.508,0,0,1,.342-.5Zm.459,2.07V8.5a.448.448,0,0,1,.342.459A.551.551,0,0,1,8.342,9.521Z"/><path class="cls-1" d="M13.136,5.947a2.379,2.379,0,0,0-1.094-.371v-.4a.062.062,0,0,0-.068-.068h-.312a.062.062,0,0,0-.068.068v.4a1.421,1.421,0,0,0-1.3,1.445,1.28,1.28,0,0,0,.3.859,3.835,3.835,0,0,1,1.445-.527V6.406a1.844,1.844,0,0,1,.615.244.078.078,0,0,0,.1-.02l.4-.576A.078.078,0,0,0,13.136,5.947ZM11.593,7.431a.463.463,0,0,1-.342-.488.508.508,0,0,1,.342-.5Z"/><path class="cls-1" d="M15.186,2.149H.764a.576.576,0,0,0-.518.322.459.459,0,0,0-.078.254V13.27a.5.5,0,0,0,.049.215v.02a.6.6,0,0,0,.547.361H9.523a3.9,3.9,0,0,1-.7-1.318H1.487V3.467H14.464V7.714A3.949,3.949,0,0,1,15.782,8.73V2.744A.592.592,0,0,0,15.186,2.149Z"/><path class="cls-1" d="M12.685,8.215a3.127,3.127,0,1,0,3.127,3.127A3.127,3.127,0,0,0,12.685,8.215Zm0,5.35a2.223,2.223,0,1,1,2.223-2.223A2.223,2.223,0,0,1,12.685,13.565Z"/><path class="cls-1" d="M12.95,10.337l-.278.281.373.369a1.5,1.5,0,0,0-.766.079,1.46,1.46,0,0,0-.725.605l.287.3a1.014,1.014,0,0,1,.584-.544,1.148,1.148,0,0,1,.641-.041l-.389.392.28.278.859-.866Z"/></g>
</symbol>

<symbol id="trash-circle-outline" class="symbol" viewBox="0 0 16 16">
  <defs><style>.cls-1{fill:#010101;}</style></defs><title>trash-circle-outline</title><g id="Layer_1" data-name="Layer 1"><path class="cls-1" d="M8.048.139a7.824,7.824,0,1,0,7.824,7.824A7.833,7.833,0,0,0,8.048.139Zm0,15.058a7.235,7.235,0,1,1,7.235-7.235A7.243,7.243,0,0,1,8.048,15.2Z"/><path class="cls-1" d="M11.112,5.8h-1.6V4.678a.337.337,0,0,0-.336-.336H6.94a.337.337,0,0,0-.336.336V5.8H5a.336.336,0,1,0,0,.672h.518v4.818a.336.336,0,0,0,.336.336h4.4a.336.336,0,0,0,.336-.336V6.473h.518a.336.336,0,0,0,0-.672ZM7.276,5.014H8.841V5.8H7.276Zm2.646,5.941H6.195V6.473H9.922Z"/><path class="cls-1" d="M8.788,10.526a.332.332,0,0,0,.331-.331V7.213a.331.331,0,1,0-.663,0v2.982A.331.331,0,0,0,8.788,10.526Z"/><path class="cls-1" d="M7.328,10.526a.331.331,0,0,0,.331-.331V7.213a.331.331,0,0,0-.663,0v2.982A.332.332,0,0,0,7.328,10.526Z"/></g>
</symbol>
    </svg>