<svg xmlns="http://www.w3.org/2000/svg">
    
<symbol id="ach" class="symbol" viewBox="0 0 16 16">
  <title id="title">ach icon</title><g data-name="Layer 1"><path class="cls-1" d="M15.359 2H.593a.606.606 0 0 0-.535.332.522.522 0 0 0-.076.262v10.8a.578.578 0 0 0 .045.221v.016A.611.611 0 0 0 .593 14h14.766a.612.612 0 0 0 .612-.612V2.608A.612.612 0 0 0 15.359 2zm-.739 10.654H1.331V3.346H14.62z" role="presentation"/><path class="cls-1" d="M4.854 5.554L6.125 10.4h-.942l-.222-.965H3.612l-.228.965h-.941l1.241-4.85zm-.57.865H4.26l-.48 2.194h.99zm2.088.767c0-1.109.54-1.737 1.565-1.737a1.492 1.492 0 0 1 .965.323A1.8 1.8 0 0 1 9.359 7.1h-.966c-.006-.237-.018-.767-.5-.767a.535.535 0 0 0-.366.152.739.739 0 0 0-.162.528v1.844c0 .264 0 .772.534.772.4 0 .516-.356.516-.878h.972a3.375 3.375 0 0 1-.042.595 1.391 1.391 0 0 1-.462.865 1.531 1.531 0 0 1-.959.323 1.432 1.432 0 0 1-1.139-.429c-.18-.192-.414-.47-.414-1.461zm3.66-1.632h.978v1.837h1.235V5.554h.99V10.4h-.972V8.309h-1.247V10.4h-.984z" role="presentation"/></g>
</symbol>

<symbol id="anonymous" class="symbol" viewBox="0 0 16 16">
  <title id="title">anonymous icon</title><path class="cls-1" d="M12.516 12.136c-2.092-.763-2.761-1.406-2.761-2.783 0-.827.639-.557.919-2.071.116-.628.681-.01.789-1.444 0-.572-.308-.714-.308-.714s.156-.846.218-1.5C11.448 2.818 10.9.723 8 .723s-3.449 2.1-3.372 2.906c.061.651.218 1.5.218 1.5s-.308.142-.308.714c.108 1.434.672.816.788 1.444.281 1.514.919 1.244.919 2.071 0 1.377-.668 2.02-2.761 2.783S.022 13.681.022 14.213V16h15.956v-1.787c0-.532-1.363-1.313-3.462-2.077zm-3.91-2.83a.864.864 0 0 1-1.215-1.229.864.864 0 0 1 1.215 1.229zm.73-3.877a3.862 3.862 0 0 0-.4.485 2.422 2.422 0 0 0-.287.537.95.95 0 0 0-.055.54H7.443a1.358 1.358 0 0 1 .021-.629 2.327 2.327 0 0 1 .25-.6 3.4 3.4 0 0 1 .376-.509c.14-.156.274-.311.4-.461a3.265 3.265 0 0 0 .31-.449.94.94 0 0 0 .125-.47.861.861 0 0 0-.244-.638.928.928 0 0 0-.681-.24 1.349 1.349 0 0 0-.638.153 2.124 2.124 0 0 0-.534.418L6.1 2.919a2.933 2.933 0 0 1 .867-.687A2.33 2.33 0 0 1 8.1 1.96a2.975 2.975 0 0 1 .845.116 1.9 1.9 0 0 1 .672.348 1.538 1.538 0 0 1 .439.57 1.922 1.922 0 0 1 .153.79 1.466 1.466 0 0 1-.131.631 2.821 2.821 0 0 1-.323.531 5.843 5.843 0 0 1-.42.483z" data-name="Layer 1" role="presentation"/>
</symbol>

<symbol id="arrow-up-trend-circle-o" class="symbol" viewBox="0 0 16 16">
  <title id="title">arrow-up-trend-circle-o icon</title><path d="M8.048.533a7.5 7.5 0 1 0 7.5 7.5 7.5 7.5 0 0 0-7.5-7.5zm0 13.393a5.89 5.89 0 0 1-4.909-2.64l2.932-2.932 2.519 2.519 2.3-2.3v.868h1.5V5.978H8.846v1.5h1.017L8.589 8.751 6.071 6.232 2.447 9.856a5.891 5.891 0 1 1 5.6 4.07z" data-name="Layer 1" role="presentation"/>
</symbol>

<symbol id="asterisk" class="symbol" viewBox="0 0 16 16">
  <title id="title">asterisk icon</title><g data-name="Layer 1"><path class="cls-1" d="M13.944 13.746l-2.708 1.882-3.212-4.866c-.044.032-.014 0-.046.046L4.7 15.627l-2.639-1.9.069-.069 3.53-4.594v-.023L.015 7.5l1.01-3.14 5.553 2L6.3.482h3.33l-.252 5.874 5.576-1.974.987 3.118L10.3 9.064z" data-name="Rectangle 1" role="presentation"/></g>
</symbol>

<symbol id="bank-confirmed" class="symbol" viewBox="0 0 16 16">
  <title id="title">bank-confirmed icon</title><g data-name="Layer 1"><path class="cls-1" d="M13.8 5.946h-1.262v3.923L13.8 8.6zm-9.785.008v4.933h1.271V5.954zM1.728 12.72H7.4l-1.425-1.266H1.728zm.458-6.766v4.933h1.266V5.954zm8.514 4.281l.644.644h.179l.443-.443v-4.49H10.7zm2.93 4.318h1.873v-1.266h-.621zm-5.668-1.266H.493v1.266h8.73l-.69-.7zM8 6.441A1.979 1.979 0 1 0 9.979 8.42 1.981 1.981 0 0 0 8 6.441zM8 9.09a.67.67 0 1 1 .67-.67.671.671 0 0 1-.67.67zm7.782-4.027L8.075.35a.173.173 0 0 0-.183 0L.216 5.063a.175.175 0 0 0 .092.324h15.384a.175.175 0 0 0 .091-.324zM3.951 4.121l4.033-2.277 4.033 2.277z" role="presentation"/><path class="cls-1" d="M15.625 10.763l-1.107-1.107-3.08 3.08-1.398-1.398-1.13 1.129 1.399 1.399-.003.003 1.106 1.106.003-.003.024.023 4.186-4.232z" role="presentation"/></g>
</symbol>

<symbol id="bank-pending" class="symbol" viewBox="0 0 16 16">
  <title id="title">bank-pending icon</title><g data-name="Layer 1"><path class="cls-1" d="M12.557 11.179V9.476h-.985v2.307l1.491.669.444-.864-.95-.409z" role="presentation"/><path class="cls-1" d="M12.117 7.435a3.915 3.915 0 1 0 3.915 3.915 3.915 3.915 0 0 0-3.915-3.915zm0 6.7A2.784 2.784 0 1 1 14.9 11.35a2.784 2.784 0 0 1-2.783 2.784zm-4.25-7.694a1.975 1.975 0 0 0-.59 3.861 4.883 4.883 0 0 1 .468-1.236.662.662 0 0 1-.545-.646.671.671 0 0 1 .671-.67.647.647 0 0 1 .559.325 4.967 4.967 0 0 1 .985-.867 1.96 1.96 0 0 0-1.548-.767zm-3.981-.487v4.933h1.266V5.954zm-1.833 0v4.933h1.265V5.954zm-.458 6.766h5.782a4.89 4.89 0 0 1-.206-1.266H1.595zm14.054-7.657L7.941.35a.173.173 0 0 0-.183 0L.083 5.063a.175.175 0 0 0 .092.324h15.383a.175.175 0 0 0 .091-.324zM3.817 4.121L7.85 1.844l4.033 2.277zm6.754 2.544a4.9 4.9 0 0 1 1.267-.243v-.476h-1.267zM.359 13.287v1.266h8.008a4.941 4.941 0 0 1-.811-1.266zM12.4 6.423a4.9 4.9 0 0 1 1.267.245v-.722H12.4z" role="presentation"/></g>
</symbol>

<symbol id="bank" class="symbol" viewBox="0 0 16 16">
  <title id="title">bank icon</title><path class="cls-1" d="M4.019 5.954h1.267v4.933H4.019zm-1.833 0h1.266v4.933H2.186zM9.979 8.42A1.979 1.979 0 1 0 8 10.4a1.981 1.981 0 0 0 1.979-1.98zm-2.649 0a.67.67 0 1 1 .67.67.671.671 0 0 1-.67-.67zm8.453-3.357L8.075.35a.173.173 0 0 0-.183 0L.216 5.063a.175.175 0 0 0 .092.324h15.384a.175.175 0 0 0 .091-.324zM3.951 4.121l4.033-2.277 4.033 2.277zm-2.223 7.333h12.545v1.266H1.728zm8.987-5.5h1.267v4.933h-1.267zm1.834 0h1.266v4.933h-1.266zM.493 13.287h15.016v1.266H.493z" data-name="Layer 1" role="presentation"/>
</symbol>

<symbol id="batches-group" class="symbol" viewBox="0 0 16 16">
  <title id="title">batches-group icon</title><path class="cls-1" d="M14.257 5.318v-.28a.73.73 0 0 0-.73-.73H2.4a.73.73 0 0 0-.73.73v6.908a.73.73 0 0 0 .73.73h.254V6.645a1.328 1.328 0 0 1 1.327-1.327zm.85.6H3.981a.73.73 0 0 0-.73.73v6.908a.73.73 0 0 0 .73.73h11.127a.73.73 0 0 0 .73-.73V6.645a.73.73 0 0 0-.73-.731zM8.458 7.561a.744.744 0 0 1 1 .081l.1.1.1-.1a.732.732 0 1 1 1.055 1.015l-.126.128-.944.962a.113.113 0 0 1-.163 0L8.4 8.656a.748.748 0 0 1 .058-1.095zM15 13.277a.437.437 0 0 1-.615-.055l-2.053-2.456-2.516 2.187a.438.438 0 0 1-.574 0l-2.5-2.175L4.7 13.222a.437.437 0 1 1-.67-.56L6.084 10.2 4.391 8.73a.437.437 0 1 1 .574-.66l4.565 3.974 4.647-4.036a.437.437 0 1 1 .573.66l-1.756 1.525 2.064 2.468a.436.436 0 0 1-.058.616zm-2.333-9.549v-.28a.73.73 0 0 0-.73-.73H.81a.73.73 0 0 0-.73.73v6.908a.73.73 0 0 0 .73.73h.254V5.054A1.328 1.328 0 0 1 2.39 3.728z" data-name="Layer 1" role="presentation"/>
</symbol>

<symbol id="batches" class="symbol" viewBox="0 0 16 16">
  <title id="title">batches icon</title><path class="cls-1" d="M8.191 5.6l-.2.209-.2-.209a1.547 1.547 0 1 0-2.239 2.144l.267.272 2 2.032a.24.24 0 0 0 .343 0l2.262-2.3A1.547 1.547 0 1 0 8.191 5.6zm7 .311l-1.758-1.193v-.949a1.546 1.546 0 0 0-1.563-1.528h-.985L9.283 1.2A2.088 2.088 0 0 0 8.006.756h-.025A2.089 2.089 0 0 0 6.7 1.2L5.392 2.241H3.837a1.546 1.546 0 0 0-1.564 1.528l-.011.961L.663 5.98a1.263 1.263 0 0 0-.6 1.071V13.9a1.287 1.287 0 0 0 1.3 1.272h13.252a1.288 1.288 0 0 0 1.3-1.273V7.051a1.269 1.269 0 0 0-.726-1.14zm-.391 7.468a.46.46 0 0 1-.254.608.476.476 0 0 1-.62-.246l-2.313-2.867H4.368l-2.313 2.867a.476.476 0 0 1-.62.246.46.46 0 0 1-.254-.608l2.37-3.234-2.338-2.1a.456.456 0 0 1 .078-.645.481.481 0 0 1 .665.075L3.633 8.9V4.138a.532.532 0 0 1 .538-.526h7.617a.532.532 0 0 1 .538.526v4.884l1.7-1.551a.481.481 0 0 1 .665-.075.456.456 0 0 1 .077.651l-2.338 2.189z" data-name="Layer 1" role="presentation"/>
</symbol>

<symbol id="bill" class="symbol" viewBox="0 0 16 16">
  <title id="title">bill icon</title><g data-name="Layer 1"><path class="cls-1" d="M11.05 6.217a4.153 4.153 0 0 0-.72-1.243 3.394 3.394 0 0 0-1.054-.832 2.828 2.828 0 0 0-1.3-.3 2.858 2.858 0 0 0-1.3.3 3.37 3.37 0 0 0-1.058.832 3.909 3.909 0 0 0-.705 1.243 4.681 4.681 0 0 0 0 3.056 3.919 3.919 0 0 0 .705 1.244 3.393 3.393 0 0 0 1.058.832 2.91 2.91 0 0 0 2.593 0 3.39 3.39 0 0 0 1.058-.832 4.165 4.165 0 0 0 .72-1.244 4.478 4.478 0 0 0 0-3.056zm-1.084 3.8h-3.8V9.011h1.2V6.4c-.023.041-.571.547-.571.547l-.815-.774 1.544-1.3h1.219v4.138h1.222z" role="presentation"/><path class="cls-1" d="M15.783 1.917a.67.67 0 0 0-.463-.176H.675a.693.693 0 0 0-.481.176.542.542 0 0 0-.194.418v10.8a.556.556 0 0 0 .194.434.691.691 0 0 0 .481.177H15.32a.668.668 0 0 0 .463-.177.556.556 0 0 0 .195-.434v-10.8a.541.541 0 0 0-.195-.418zm-14.22 8.23a1.8 1.8 0 0 0-.363.038V5.306a1.8 1.8 0 0 0 .363.038 2.475 2.475 0 0 0 2.472-2.4h7.936a2.475 2.475 0 0 0 2.472 2.4 1.794 1.794 0 0 0 .335-.035v4.873a1.794 1.794 0 0 0-.335-.035 2.475 2.475 0 0 0-2.472 2.4H4.035a2.475 2.475 0 0 0-2.472-2.4z" role="presentation"/></g>
</symbol>

<symbol id="caret-outline" class="symbol" viewBox="0 0 16 16">
  <title id="title">caret-outline icon</title><path class="cls-1" d="M7.926 13.4L.342 4.754l1.845-1.787 5.739 6.542 5.864-6.665 1.841 1.792z" data-name="Layer 1" role="presentation"/>
</symbol>

<symbol id="cc" class="symbol" viewBox="0 0 16 16">
  <title id="title">cc icon</title><g data-name="Layer 1"><path class="cls-1" d="M5.171 10.18H7.22v1.165H5.171zm-2.677 0h2.049v1.165H2.494zM12 8.288a1.516 1.516 0 0 0-1 .386 1.529 1.529 0 1 0 0 2.285 1.526 1.526 0 1 0 1-2.671z" role="presentation"/><path class="cls-1" d="M15.383 1.741H.617a.606.606 0 0 0-.535.332.522.522 0 0 0-.076.262v10.8a.578.578 0 0 0 .045.221v.016a.611.611 0 0 0 .561.37h14.771a.612.612 0 0 0 .612-.612V2.353a.612.612 0 0 0-.612-.612zm-.738 3.632H1.355V3.091h13.29zM1.355 12.4V6.867h13.29V12.4z" role="presentation"/></g>
</symbol>

<symbol id="check-circle-o" class="symbol" viewBox="0 0 16 16">
  <title id="title">check-circle-o icon</title><g data-name="Layer 1"><path d="M8.032 2.054A5.956 5.956 0 1 1 2.108 8.01a5.947 5.947 0 0 1 5.924-5.956m0-1.585a7.541 7.541 0 1 0 7.5 7.541 7.521 7.521 0 0 0-7.5-7.541z" role="presentation"/><path d="M10.78 5.186L7.089 8.9 5.283 7.084l-1.124 1.13 2.927 2.943.048-.05.002.003 4.768-4.794-1.124-1.13z" role="presentation"/></g>
</symbol>

<symbol id="check-circle-stylized" class="symbol" viewBox="0 0 16 16">
  <title id="title">check-circle-stylized icon</title><g data-name="Layer 1"><path d="M14.06 2.65A.759.759 0 0 0 13 2.476a17.518 17.518 0 0 0-5.025 5.937l-1.8-2.128a.758.758 0 0 0-1.158.979l2.554 3.021c.007.008.016.01.023.018a.749.749 0 0 0 .167.127.751.751 0 0 0 .091.06l.013.008a.754.754 0 0 0 .285.056h.006a.846.846 0 0 0 .45-.159c.011-.008.023-.011.034-.019s.017-.026.029-.037a1.079 1.079 0 0 0 .165-.225c.005-.011.014-.02.019-.031a16.561 16.561 0 0 1 5.033-6.374.758.758 0 0 0 .174-1.059z" role="presentation"/><path d="M15.321 5.764a.758.758 0 1 0-1.449.445A6.11 6.11 0 1 1 10.218 2.3a.758.758 0 1 0 .544-1.419 7.625 7.625 0 1 0 4.559 4.883z" role="presentation"/></g>
</symbol>

<symbol id="check" class="symbol" viewBox="0 0 16 16">
  <title id="title">check icon</title><g data-name="Layer 1"><path class="cls-1" d="M3.358 8.971h2.56v.995h-2.56zm0-2.064h7.919v.995H3.358zm0-1.973h3.731v.995H3.358zm3.338 4.037h2.56v.995h-2.56zm3.492.994l.995-.994h-1.096v.994h.101zm4.432 2.016h-1.039l-1.347 1.35h3.125a.612.612 0 0 0 .612-.612V9.586l-1.35 1.353z" role="presentation"/><path class="cls-1" d="M1.331 3.091H14.62V5.6l1.35-1.339V2.353a.612.612 0 0 0-.612-.612H.593a.612.612 0 0 0-.612.612V12.72a.612.612 0 0 0 .612.612h6.27L8.2 11.981H1.331zm8.543 8.648l4.863-4.864 1.252 1.252-4.862 4.864zm-.995.995l.054 1.233 1.198.019.497-.497-1.252-1.253-.497.498z" role="presentation"/></g>
</symbol>

<symbol id="clock-circle-o" class="symbol" viewBox="0 0 16 16">
  <title id="title">clock-circle-o icon</title><g data-name="Layer 1"><path d="M8.797 7.734V3.742H7.19v4.591l1.86 2.151 1.216-1.051-1.469-1.699z" role="presentation"/><path d="M7.994.533a7.5 7.5 0 1 0 7.5 7.5 7.5 7.5 0 0 0-7.5-7.5zm0 13.393a5.893 5.893 0 1 1 5.893-5.893 5.9 5.9 0 0 1-5.893 5.893z" role="presentation"/></g>
</symbol>

<symbol id="defaults" class="symbol" viewBox="0 0 16 16">
  <title id="title">defaults icon</title><g data-name="Layer 1"><path class="cls-1" d="M3.112 6.652a2.044 2.044 0 1 1 2.044-2.044 2.046 2.046 0 0 1-2.044 2.044zm0-3.588a1.544 1.544 0 1 0 1.544 1.544 1.545 1.545 0 0 0-1.544-1.544zm4.833 10.354a2.044 2.044 0 1 1 2.044-2.044 2.046 2.046 0 0 1-2.044 2.044zm0-3.588a1.544 1.544 0 1 0 1.544 1.544A1.545 1.545 0 0 0 7.945 9.83zm4.833-.278a2.044 2.044 0 1 1 2.044-2.044 2.046 2.046 0 0 1-2.044 2.044zm0-3.588a1.544 1.544 0 1 0 1.544 1.544 1.545 1.545 0 0 0-1.544-1.544z" role="presentation"/><path class="cls-1" d="M3.112 2.814a1.779 1.779 0 0 1 .75.169V1.25a.75.75 0 0 0-1.5 0v1.733a1.779 1.779 0 0 1 .75-.169zm0 3.586a1.779 1.779 0 0 1-.75-.169v8.491a.75.75 0 0 0 1.5 0V6.233a1.779 1.779 0 0 1-.75.167zm4.833 3.18a1.779 1.779 0 0 1 .75.169V1.25a.75.75 0 0 0-1.5 0v8.5a1.779 1.779 0 0 1 .75-.17zm0 3.588A1.779 1.779 0 0 1 7.2 13v1.724a.75.75 0 0 0 1.5 0V13a1.779 1.779 0 0 1-.755.168zm4.833-7.454a1.779 1.779 0 0 1 .75.169V1.25a.75.75 0 0 0-1.5 0v4.633a1.779 1.779 0 0 1 .75-.169zm0 3.586a1.779 1.779 0 0 1-.75-.169v5.591a.75.75 0 0 0 1.5 0V9.133a1.779 1.779 0 0 1-.75.167z" role="presentation"/></g>
</symbol>

<symbol id="deposit" class="symbol" viewBox="0 0 16 16">
  <title id="title">deposit icon</title><path class="cls-1" d="M1.633 11.454h12.542v1.266H1.633zm.458-5.5h1.266v4.933H2.091zM9.884 8.42a1.979 1.979 0 1 0-1.979 1.98 1.981 1.981 0 0 0 1.979-1.98zm-1.309 0a.67.67 0 1 1-.67-.67.671.671 0 0 1 .67.67zM3.924 5.954h1.267v4.933H3.924zm8.518-.008h1.267v4.933h-1.267zM.397 13.287h15.015v1.266H.397zm10.212-7.341h1.267v4.933h-1.267zm5.079-.883L7.979.35a.173.173 0 0 0-.183 0L.121 5.063a.175.175 0 0 0 .092.324H15.6a.175.175 0 0 0 .091-.324zM3.855 4.121l4.034-2.277 4.033 2.277z" data-name="Layer 1" role="presentation"/>
</symbol>

<symbol id="donations" class="symbol" viewBox="0 0 16 16">
  <title id="title">donations icon</title><path class="cls-1" d="M8.206 6.2L8 6.406 7.793 6.2a1.562 1.562 0 1 0-2.251 2.161l.269.274 2.015 2.052a.242.242 0 0 0 .347 0l2.284-2.326A1.562 1.562 0 1 0 8.206 6.2zm7.606-4a.684.684 0 0 0-.464-.171H.677a.708.708 0 0 0-.482.171.519.519 0 0 0-.195.408v10.476a.533.533 0 0 0 .195.421.706.706 0 0 0 .482.172h14.671a.682.682 0 0 0 .464-.172.532.532 0 0 0 .2-.421V2.608a.518.518 0 0 0-.2-.408zm-1.248 7.686a2.926 2.926 0 0 0-1.045.186 2.688 2.688 0 0 0-.844.5 2.478 2.478 0 0 0-.569.739 1.976 1.976 0 0 0-.218.906h-7.77a1.992 1.992 0 0 0-.214-.906 2.367 2.367 0 0 0-.569-.739 2.745 2.745 0 0 0-.847-.5 2.907 2.907 0 0 0-1.037-.186V5.8a2.907 2.907 0 0 0 1.037-.186 2.744 2.744 0 0 0 .847-.5 2.374 2.374 0 0 0 .565-.735 1.992 1.992 0 0 0 .214-.906h7.771a1.976 1.976 0 0 0 .218.906 2.486 2.486 0 0 0 .569.739 2.685 2.685 0 0 0 .847.5 2.944 2.944 0 0 0 1.042.186z" data-name="Layer 1" role="presentation"/>
</symbol>

<symbol id="dots-outline" class="symbol" viewBox="0 0 16 16">
  <title id="title">dots-outline icon</title><g data-name="Layer 1"><path class="cls-1" d="M8 .139a7.824 7.824 0 1 0 7.824 7.824A7.833 7.833 0 0 0 8 .139zM8 15.2a7.235 7.235 0 1 1 7.235-7.235A7.243 7.243 0 0 1 8 15.2z" role="presentation"/><path class="cls-2" d="M4.788 6.921A1.079 1.079 0 1 1 3.708 8a1.079 1.079 0 0 1 1.08-1.079zm3.212 0A1.079 1.079 0 1 1 6.921 8 1.079 1.079 0 0 1 8 6.921zm3.212 0A1.079 1.079 0 1 1 10.133 8a1.079 1.079 0 0 1 1.079-1.079z" role="presentation"/></g>
</symbol>

<symbol id="download" class="symbol" viewBox="0 0 16 16">
  <title id="title">download icon</title><path class="cls-1" d="M14.121 11.595v1.202h-12.2v-1.202H.146v2.853h15.75v-2.853h-1.775zm-3.835-4.95L8.908 7.926V2.005H7.133V7.94L5.741 6.645l-1.269 1.18L6.743 9.94l1.268 1.18.002-.001.002.001 1.269-1.18 2.271-2.115-1.269-1.18z" data-name="Layer 1" role="presentation"/>
</symbol>

<symbol id="edit-circle-outline" class="symbol" viewBox="0 0 16 16">
  <title id="title">edit-circle-outline icon</title><path class="cls-1" d="M8.048.139a7.824 7.824 0 1 0 7.824 7.824A7.833 7.833 0 0 0 8.048.139zm0 15.058a7.235 7.235 0 1 1 7.235-7.235A7.243 7.243 0 0 1 8.048 15.2zm2.447-10.745a.458.458 0 0 0-.632 0L5.29 9.026a.735.735 0 0 0-.174.279l-.628 1.823a.307.307 0 0 0 .043.279.313.313 0 0 0 .252.13.322.322 0 0 0 .1-.016l1.8-.61a.734.734 0 0 0 .283-.175l4.59-4.59a.447.447 0 0 0 0-.632zM6.572 10.34a.184.184 0 0 1-.066.041l-1.322.447.461-1.341a.181.181 0 0 1 .041-.066l3.309-3.309.9.9zm3.753-3.753l-.9-.9.757-.757.9.9z" data-name="Layer 1" role="presentation"/>
</symbol>

<symbol id="email-circle" class="symbol" viewBox="0 0 16 16">
  <title id="title">email-circle icon</title><path d="M8 2.044A5.956 5.956 0 1 1 2.076 8 5.947 5.947 0 0 1 8 2.044M8 .459A7.541 7.541 0 1 0 15.5 8 7.521 7.521 0 0 0 8 .459z" role="presentation"/><path d="M4.325 6.4l3.333 1.613a.555.555 0 0 0 .423 0l3.595-1.776a.185.185 0 0 0 .1-.166.519.519 0 0 0-.516-.519H4.744a.526.526 0 0 0-.523.525v.153a.185.185 0 0 0 .104.17zm7.12.775l-3.036 1.5a1.28 1.28 0 0 1-1.059 0l-2.8-1.352a.232.232 0 0 0-.333.21v2.41a.506.506 0 0 0 .5.506h6.494a.563.563 0 0 0 .56-.563V7.38a.232.232 0 0 0-.326-.209z" role="presentation"/>
</symbol>

<symbol id="email" class="symbol" viewBox="0 0 16 16">
  <title id="title">email icon</title><g data-name="Layer 1"><path class="cls-1" d="M14.36 3.049l-.037.037a.615.615 0 0 0 .035-.039z" role="presentation"/><path class="cls-1" d="M14.36 3.049l-.037.037a.615.615 0 0 0 .035-.039z" role="presentation"/><path class="cls-2" d="M.339 4.679L7.287 8.05a1.157 1.157 0 0 0 .882 0l7.494-3.7a.386.386 0 0 0 .215-.35A1.082 1.082 0 0 0 14.8 2.917H1.212a1.1 1.1 0 0 0-1.091 1.1v.319a.386.386 0 0 0 .218.343zm14.842 1.615l-6.328 3.13a2.669 2.669 0 0 1-2.209.006L.815 6.612a.484.484 0 0 0-.693.438v5.023a1.055 1.055 0 0 0 1.05 1.054H14.71a1.174 1.174 0 0 0 1.168-1.173V6.73a.484.484 0 0 0-.697-.436z" role="presentation"/></g>
</symbol>

<symbol id="eraser" class="symbol" viewBox="0 0 16 16">
  <title id="title">eraser icon</title><g data-name="Layer 1"><rect class="cls-1" x=".106" y="14.674" width="14.66" height="1.333" rx=".184" ry=".184"/><path class="cls-1" d="M15.832 5.861L10.776.774a.213.213 0 0 0-.3 0l-9.347 9.38a.213.213 0 0 0 0 .3l3.449 3.491a.213.213 0 0 0 .151.063h3.213a.213.213 0 0 0 .151-.063l7.739-7.784a.213.213 0 0 0 0-.3zm-8.169 7.1a.164.164 0 0 1-.117.049H5.121A.164.164 0 0 1 5 12.96l-2.5-2.535a.164.164 0 0 1 0-.231l4.2-4.229 3.945 3.968z" role="presentation"/></g>
</symbol>

<symbol id="external-link" class="symbol" viewBox="0 0 16 16">
  <title id="title">external-link icon</title><g data-name="Layer 1"><path class="cls-1" d="M14.637 9.902h-1.09v3.645H2.453V2.453h3.645V.075H.075v15.85h15.85V9.902h-1.288z" role="presentation"/><path class="cls-1" d="M8.634.075v.1l2.819 2.829-3.025 3.094h-2.33v3.804h3.804V7.968l3.292-3.223 2.631 2.621h.1V.075H8.634z" role="presentation"/></g>
</symbol>

<symbol id="eyeball-hide" class="symbol" viewBox="0 0 16 16">
  <title id="title">eyeball-hide icon</title><path class="cls-1" d="M6.983 5.276l3.588 3.576a2.735 2.735 0 0 0 .2-1.013 2.76 2.76 0 0 0-3.788-2.563zM15.905 7.5C15.781 7.3 12.8 2.6 8 2.6a7.523 7.523 0 0 0-3.035.664l.962.959A6.12 6.12 0 0 1 8 3.843c3.424 0 5.887 2.978 6.62 3.984a11.892 11.892 0 0 1-2.536 2.534l.9.9a12.8 12.8 0 0 0 2.922-3.1.618.618 0 0 0-.001-.661zM4.7 4.778l.011-.006-.911-.91-.011.006-.829-.826a.622.622 0 1 0-.881.879l.674.672A12.7 12.7 0 0 0 .093 7.5a.618.618 0 0 0 0 .654c.125.2 3.105 4.9 7.906 4.9a7.508 7.508 0 0 0 2.718-.523l.553.552a.622.622 0 1 0 .881-.879l-.236-.236.01-.006-.925-.924-.01.006zm.625 2.379a2.653 2.653 0 0 0-.1.683A2.766 2.766 0 0 0 8 10.6a2.677 2.677 0 0 0 .685-.1l1.053 1.049A6.086 6.086 0 0 1 8 11.812c-3.425 0-5.887-2.978-6.621-3.984a12 12 0 0 1 2.27-2.344z" data-name="Layer 1" role="presentation"/>
</symbol>

<symbol id="eyedropper" class="symbol" viewBox="0 0 16 16">
  <title id="title">eyedropper icon</title><path class="cls-1" d="M15.422 1.853c-.652-.669-.651-.67-1.306-1.336A1.3 1.3 0 0 0 12.74.146a1.453 1.453 0 0 0-.591.36l-1.99 1.976c-.647.6-.68.5-.988.519a2.064 2.064 0 0 0-1.649.79L6.2 5.112l-.33.33.555.568-3.996 3.979a2.153 2.153 0 0 0-.552 1.078c-.028.107-.055.211-.092.314A4.924 4.924 0 0 1 .436 13.3l-.428.428 2.153 2.2.428-.426a5.021 5.021 0 0 1 1.916-1.346 3.157 3.157 0 0 1 .313-.09 2.135 2.135 0 0 0 1.074-.544l3.991-3.977.556.57.333-.332 1.322-1.32a2.087 2.087 0 0 0 .8-1.646c.027-.309-.074-.345.528-.992l1.985-1.981a1.592 1.592 0 0 0 .362-.6 1.326 1.326 0 0 0-.347-1.391zM5.039 12.664a.929.929 0 0 1-.5.223c-.112.03-.247.066-.415.119a5.441 5.441 0 0 0-1.945 1.209l-.479-.489a5.534 5.534 0 0 0 1.221-1.95c.055-.169.093-.307.125-.421a.956.956 0 0 1 .228-.5l3.998-3.977 1.767 1.8z" data-name="Layer 1" role="presentation"/>
</symbol>

<symbol id="giving-logo" class="symbol" viewBox="0 0 16 16">
  <title id="title">giving-logo icon</title><g data-name="Layer 1"><path class="cls-1" d="M2.955 6.354H.373a.352.352 0 0 0-.344.355v2.582a.355.355 0 0 0 .355.355h2.582a.355.355 0 0 0 .355-.355V6.708a.357.357 0 0 0-.366-.354zm0 2.745a.157.157 0 0 1-.157.157H.548A.157.157 0 0 1 .392 9.1V6.872a.157.157 0 0 1 .157-.157h.41v.166a.111.111 0 0 0 .111.111h1.189a.111.111 0 0 0 .111-.111v-.165h.43a.157.157 0 0 1 .157.157z" role="presentation"/><path class="cls-2" d="M4.64 9.339a.718.718 0 0 1-.755-.739.737.737 0 0 1 .752-.742.788.788 0 0 1 .564.2l-.2.24a.529.529 0 0 0-.375-.145.431.431 0 0 0-.412.447.43.43 0 0 0 .435.455.5.5 0 0 0 .3-.086v-.208h-.32v-.273h.623v.623a.93.93 0 0 1-.612.228zm.902-1.245v-.276h.328v.277zm.008 1.22v-1.1h.312v1.1zm1.201.009h-.283l-.433-1.108h.33l.246.736.248-.736h.324zm.598-1.229v-.276h.328v.277zm.008 1.22v-1.1h.312v1.1zm1.297 0V8.7c0-.148-.07-.223-.189-.223s-.195.076-.195.223v.613h-.311v-1.1h.311v.156a.389.389 0 0 1 .322-.176.36.36 0 0 1 .373.408v.711zm1.072.332a1.043 1.043 0 0 1-.486-.115l.107-.231a.716.716 0 0 0 .371.1c.213 0 .314-.1.314-.3v-.054a.43.43 0 0 1-.359.179.483.483 0 0 1-.488-.513.484.484 0 0 1 .488-.512.444.444 0 0 1 .355.164v-.149h.312v.851c-.001.414-.206.58-.614.58zm.306-.939a.268.268 0 0 0-.535 0 .251.251 0 0 0 .266.254.254.254 0 0 0 .269-.254zm-6.049-1.27a.01.01 0 0 1-.011-.011v-.677a.01.01 0 0 1 .011-.011h.1a.01.01 0 0 1 .011.011v.038a.154.154 0 0 1 .135-.06.171.171 0 0 1 .176.122.585.585 0 0 1 0 .287.171.171 0 0 1-.176.123.153.153 0 0 1-.135-.06v.228a.01.01 0 0 1-.011.011zm.307-.35a.432.432 0 0 0 0-.19.1.1 0 0 0-.189 0 .433.433 0 0 0 0 .19.1.1 0 0 0 .189 0zm.385.166c-.1 0-.139-.047-.139-.146v-.568a.01.01 0 0 1 .011-.011h.1a.01.01 0 0 1 .011.011V7.1c0 .035.014.046.044.046h.023a.01.01 0 0 1 .011.011v.084a.01.01 0 0 1-.011.011zm.463-.006a.01.01 0 0 1-.011-.011V7.2a.166.166 0 0 1-.144.059.152.152 0 0 1-.171-.159c0-.111.078-.161.2-.161h.1a.006.006 0 0 0 .006-.006v-.022c0-.058-.027-.084-.113-.084a.176.176 0 0 0-.116.035.01.01 0 0 1-.015 0l-.039-.07a.01.01 0 0 1 0-.014.3.3 0 0 1 .181-.049c.155 0 .212.053.212.177v.333a.01.01 0 0 1-.011.011zm-.013-.171v-.039s0-.006-.006-.006h-.084c-.076 0-.11.021-.11.069s.03.063.087.063c.073 0 .113-.029.113-.087zm.575.171a.01.01 0 0 1-.011-.011v-.293c0-.066-.033-.111-.1-.111a.1.1 0 0 0-.1.111v.294a.01.01 0 0 1-.011.011h-.1a.01.01 0 0 1-.011-.011v-.488a.01.01 0 0 1 .011-.011h.1a.01.01 0 0 1 .011.011v.037a.157.157 0 0 1 .134-.059.174.174 0 0 1 .176.189v.321a.01.01 0 0 1-.011.011zm.568 0a.01.01 0 0 1-.011-.011v-.293c0-.066-.033-.111-.1-.111a.1.1 0 0 0-.1.111v.294a.01.01 0 0 1-.011.011h-.1a.01.01 0 0 1-.011-.011v-.488a.01.01 0 0 1 .011-.011h.1a.01.01 0 0 1 .011.011v.037a.157.157 0 0 1 .143-.059.174.174 0 0 1 .176.189v.321a.01.01 0 0 1-.011.011zm.257-.605a.01.01 0 0 1-.011-.011v-.092a.01.01 0 0 1 .011-.011h.1a.01.01 0 0 1 .011.011v.092a.01.01 0 0 1-.011.011zm0 .605a.01.01 0 0 1-.011-.011v-.487a.01.01 0 0 1 .011-.011h.1a.01.01 0 0 1 .011.011v.488a.01.01 0 0 1-.011.011zm.575 0a.01.01 0 0 1-.011-.011v-.293c0-.066-.033-.111-.1-.111a.1.1 0 0 0-.1.111v.294a.01.01 0 0 1-.011.011h-.1a.01.01 0 0 1-.011-.011v-.488a.01.01 0 0 1 .011-.011h.1a.01.01 0 0 1 .011.011v.037a.157.157 0 0 1 .134-.059.174.174 0 0 1 .176.189v.321a.01.01 0 0 1-.011.011zm.235.126a.009.009 0 0 1 0-.015L7.4 7.3a.01.01 0 0 1 .016 0 .156.156 0 0 0 .111.047c.078 0 .114-.042.114-.121v-.052a.148.148 0 0 1-.132.059.17.17 0 0 1-.173-.124.392.392 0 0 1-.017-.13.385.385 0 0 1 .017-.129.17.17 0 0 1 .173-.125.146.146 0 0 1 .132.06v-.036a.01.01 0 0 1 .011-.011h.1a.01.01 0 0 1 .011.011v.467a.213.213 0 0 1-.238.234.251.251 0 0 1-.19-.077zm.293-.31a.239.239 0 0 0 .012-.083.25.25 0 0 0-.013-.08.087.087 0 0 0-.091-.065.086.086 0 0 0-.09.065.241.241 0 0 0-.012.084.231.231 0 0 0 .012.083.086.086 0 0 0 .09.066.087.087 0 0 0 .091-.07zm.388.055a.5.5 0 0 1 0-.252.2.2 0 0 1 .21-.14.221.221 0 0 1 .176.079.01.01 0 0 1 0 .015l-.067.058a.01.01 0 0 1-.015 0 .116.116 0 0 0-.094-.044.093.093 0 0 0-.1.067.305.305 0 0 0-.011.094.313.313 0 0 0 .011.1.094.094 0 0 0 .1.065.116.116 0 0 0 .094-.044.009.009 0 0 1 .015 0l.067.058c.005 0 0 .009 0 .015a.224.224 0 0 1-.176.078.205.205 0 0 1-.21-.149zm.494-.001a.394.394 0 0 1-.018-.125.405.405 0 0 1 .017-.126.225.225 0 0 1 .417 0 .459.459 0 0 1 .017.153.01.01 0 0 1-.012.011h-.314a.005.005 0 0 0-.006.006.118.118 0 0 0 .007.039.111.111 0 0 0 .114.077.153.153 0 0 0 .12-.052.011.011 0 0 1 .016 0l.062.055a.01.01 0 0 1 0 .015.269.269 0 0 1-.209.086.206.206 0 0 1-.211-.139zm.307-.225a.109.109 0 0 0-.2 0 .128.128 0 0 0-.006.043.006.006 0 0 0 .006.006h.2a.006.006 0 0 0 .006-.006.136.136 0 0 0-.006-.043zm.565.355a.01.01 0 0 1-.011-.011v-.293c0-.066-.033-.111-.1-.111a.1.1 0 0 0-.1.111v.294a.01.01 0 0 1-.011.011h-.1a.01.01 0 0 1-.011-.011v-.488a.01.01 0 0 1 .011-.011h.1a.01.01 0 0 1 .011.011v.037a.157.157 0 0 1 .134-.059.174.174 0 0 1 .176.189v.321a.01.01 0 0 1-.011.011zm.395.006c-.1 0-.141-.05-.141-.149v-.268s0-.006-.006-.006H9.6a.01.01 0 0 1-.011-.011v-.07a.01.01 0 0 1 .011-.011h.034s.006 0 .006-.007v-.139a.01.01 0 0 1 .011-.011h.1a.01.01 0 0 1 .011.011v.139s0 .007.006.007h.068a.01.01 0 0 1 .011.011v.071a.01.01 0 0 1-.011.011H9.76s-.006 0-.006.006V7.1c0 .036.015.047.047.047h.027a.01.01 0 0 1 .011.011v.084a.01.01 0 0 1-.011.011zm.17-.136a.393.393 0 0 1-.018-.125.405.405 0 0 1 .017-.126.225.225 0 0 1 .417 0 .461.461 0 0 1 .017.153.01.01 0 0 1-.012.011h-.314s-.006 0-.006.006a.12.12 0 0 0 .007.039.111.111 0 0 0 .114.077.153.153 0 0 0 .121-.052.011.011 0 0 1 .016 0l.062.055a.01.01 0 0 1 0 .015.269.269 0 0 1-.209.086.206.206 0 0 1-.212-.139zm.307-.225a.109.109 0 0 0-.2 0 .127.127 0 0 0-.006.043.006.006 0 0 0 .006.006h.2a.006.006 0 0 0 .006-.006.136.136 0 0 0-.005-.043zm.254.355a.01.01 0 0 1-.011-.011v-.487a.01.01 0 0 1 .011-.011h.1a.01.01 0 0 1 .011.011v.043a.145.145 0 0 1 .132-.065.153.153 0 0 1 .107.042c.005.005.006.01 0 .015l-.056.071a.01.01 0 0 1-.015 0 .136.136 0 0 0-.075-.025c-.067 0-.1.048-.1.129v.276a.01.01 0 0 1-.011.011zm-8.768.424l-.05.049-.049-.049a.384.384 0 0 0-.509-.04.369.369 0 0 0-.028.548l.064.064.481.481a.059.059 0 0 0 .083 0l.545-.545a.369.369 0 0 0-.028-.548.384.384 0 0 0-.509.04z" role="presentation"/></g>
</symbol>

<symbol id="hold" class="symbol" viewBox="0 0 16 16">
  <title id="title">hold icon</title><g data-name="Layer 1"><path class="cls-1" d="M2.085 7.975L8.04 13.93a.1.1 0 0 0 .148 0l5.955-5.955a.1.1 0 0 0 0-.148L8.188 1.872a.1.1 0 0 0-.148 0L2.085 7.827a.1.1 0 0 0 0 .148zM7.9 15.7L.316 8.112a.3.3 0 0 1 0-.421L7.9.1a.3.3 0 0 1 .421 0l7.588 7.588a.3.3 0 0 1 0 .421L8.325 15.7a.3.3 0 0 1-.425 0z" role="presentation"/><path class="cls-1" d="M5.934 5.658h1.689v4.501H5.934zm2.687 0h1.693v4.501H8.621z" role="presentation"/></g>
</symbol>

<symbol id="incomplete-circle-o" class="symbol" viewBox="0 0 16 16">
  <title id="title">incomplete-circle-o icon</title><g data-name="Layer 1"><path d="M3.705 8.023A4.31 4.31 0 0 0 8 12.345V3.7a4.31 4.31 0 0 0-4.295 4.323z" role="presentation"/><path d="M8 .482a7.541 7.541 0 1 0 7.5 7.541A7.52 7.52 0 0 0 8 .482zm0 13.466a5.925 5.925 0 1 1 5.9-5.925A5.916 5.916 0 0 1 8 13.948z" role="presentation"/></g>
</symbol>

<symbol id="info" class="symbol" viewBox="0 0 16 16">
  <title id="title">info icon</title><path class="cls-1" d="M10.054 11.5l-.772.332a.572.572 0 0 1-.751-.613l.822-4.288a.709.709 0 0 0-.7-.8H6.182c-.362 0-.469.192-.469.319s.181.245.746.394.362.511.341.7-.437 2.461-.511 2.919-.575 2.365 1.438 2.45a3.266 3.266 0 0 0 2.478-1 .242.242 0 0 0-.151-.413zM8.5 5.623a1.369 1.369 0 1 0-1.369-1.369A1.369 1.369 0 0 0 8.5 5.623zM8 .137A7.863 7.863 0 1 0 15.863 8 7.863 7.863 0 0 0 8 .137zm0 14.528A6.665 6.665 0 1 1 14.665 8 6.673 6.673 0 0 1 8 14.665z" data-name="Layer 1" role="presentation"/>
</symbol>

<symbol id="label" class="symbol" viewBox="0 0 16 16">
  <title id="title">label icon</title><g data-name="Layer 1"><path class="cls-1" d="M10.341 6.694l-3.52 3.518a.829.829 0 0 0 0 1.171.83.83 0 0 0 1.172 0l3.52-3.519a.829.829 0 0 0-1.173-1.172zm-3.458 4.628zm4.817-6.89a1.022 1.022 0 1 0-.3-.722 1.014 1.014 0 0 0 .3.722zM4.74 9.3a.829.829 0 0 0 1.172 0l3.52-3.519A.829.829 0 0 0 8.26 4.614L4.741 8.132A.83.83 0 0 0 4.74 9.3zm.06-.058z" role="presentation"/><path class="cls-1" d="M16.092 7.107L16.059.814a.848.848 0 0 0-.824-.824l-6.3-.033A.825.825 0 0 0 8.349.2L.242 8.3a.83.83 0 0 0 0 1.171L6.571 15.8a.825.825 0 0 0 .586.243.834.834 0 0 0 .586-.242L15.85 7.7a.824.824 0 0 0 .242-.593zm-1.66-.338l-7.275 7.274L2 8.889l7.277-7.273 5.129.027zM.3 9.412z" role="presentation"/></g>
</symbol>

<symbol id="logs" class="symbol" viewBox="0 0 16 16">
  <title id="title">logs icon</title><g data-name="Layer 1"><path class="cls-1" d="M11.577 5.967a5.169 5.169 0 0 0-.772-.058 5.077 5.077 0 1 0 .774.058zm-.491 8.821v-.5a.315.315 0 0 0-.63 0v.494a3.925 3.925 0 0 1-3.61-3.555h.492a.31.31 0 1 0 0-.619h-.494a3.923 3.923 0 0 1 3.612-3.6v.541a.315.315 0 0 0 .63 0v-.542a3.923 3.923 0 0 1 3.681 3.6H14.2a.31.31 0 1 0 0 .619h.563a3.925 3.925 0 0 1-3.677 3.562z" role="presentation"/><path class="cls-1" d="M12.442 11.33l-1-.5V9.09A.448.448 0 0 0 11 8.646h-.29a.448.448 0 0 0-.451.443v2.477l.336.165 1.314.646a.455.455 0 0 0 .6-.2l.132-.255a.44.44 0 0 0-.199-.592zm-6.623 2.586H1.472V1.478h5.921v2.477a.136.136 0 0 0 .04.095.139.139 0 0 0 .1.039h2.507V5.2a5.949 5.949 0 0 1 .767-.055 5.885 5.885 0 0 1 .615.046v-1.4a.589.589 0 0 0-.181-.426L8.085.275A.625.625 0 0 0 7.651.1H.7a.624.624 0 0 0-.43.175A.6.6 0 0 0 .09.7v14.03a.6.6 0 0 0 .18.426.622.622 0 0 0 .434.176h6.354a5.832 5.832 0 0 1-1.239-1.416z" role="presentation"/></g>
</symbol>

<symbol id="merge-circle-outline" class="symbol" viewBox="0 0 16 16">
  <title id="title">merge-circle-outline icon</title><g data-name="Layer 1"><path class="cls-1" d="M8 .139a7.824 7.824 0 1 0 7.824 7.824A7.833 7.833 0 0 0 8 .139zM8 15.2a7.235 7.235 0 1 1 7.235-7.235A7.243 7.243 0 0 1 8 15.2z" role="presentation"/><path class="cls-1" d="M9.237 8.359a.375.375 0 0 1-.315-.172L7.251 5.6H5.977a.375.375 0 0 1 0-.75h1.478a.374.374 0 0 1 .315.172l1.781 2.759a.375.375 0 0 1-.314.578z" role="presentation"/><path class="cls-1" d="M7.455 11.116H5.977a.375.375 0 1 1 0-.75h1.274l1.67-2.585a.375.375 0 1 1 .63.406L7.77 10.944a.374.374 0 0 1-.315.172z" role="presentation"/><path class="cls-1" d="M10.723 8.464H9.236a.48.48 0 0 1 0-.961h1.487a.48.48 0 1 1 0 .961z" role="presentation"/><path class="cls-1" d="M10.5 9.312V6.674a.172.172 0 0 1 .262-.147l1.96 1.192a.338.338 0 0 1 0 .579l-1.958 1.163a.172.172 0 0 1-.264-.149zM5.242 6.337a1.109 1.109 0 1 1 1.11-1.109 1.111 1.111 0 0 1-1.11 1.109zm0-1.469a.359.359 0 1 0 .359.359.36.36 0 0 0-.359-.358zm0 6.982a1.109 1.109 0 1 1 1.109-1.109 1.111 1.111 0 0 1-1.109 1.109zm0-1.469a.359.359 0 1 0 .359.359.36.36 0 0 0-.359-.359z" role="presentation"/></g>
</symbol>

<symbol id="note" class="symbol" viewBox="0 0 16 16">
  <title id="title">note icon</title><g data-name="Layer 1"><path class="cls-1" d="M3.253 7.738h7.053v1.056H3.253zm0-2.192h9.458v1.056H3.253zm0-2.095h9.458v1.056H3.253zm12.567 7.564a.828.828 0 0 1-.193.93l-3.8 3.66a.9.9 0 0 1-.626.25.873.873 0 0 1-.895-.855v-3.425a1.114 1.114 0 0 1 1.141-1.083h3.56a.878.878 0 0 1 .813.523zm-4.087 2.733l1.956-1.882" role="presentation"/><path class="cls-1" d="M14.628.145H1.434a1.17 1.17 0 0 0-1.26 1.047v13.616a1.17 1.17 0 0 0 1.26 1.048H11.3l-.016-1.341H1.787V1.486h12.489v9.924h1.612V1.192a1.17 1.17 0 0 0-1.26-1.047z" role="presentation"/></g>
</symbol>

<symbol id="payment-methods" class="symbol" viewBox="0 0 16 16">
  <title id="title">payment-methods icon</title><g data-name="Layer 1"><path class="cls-1" d="M14.9 0H2.42l2.249 1.492h8.515a.56.56 0 0 1 .577.54v.008a.56.56 0 0 1-.577.54H6.335L7.871 3.6h5.312a.56.56 0 0 1 .577.54v.008a.56.56 0 0 1-.577.54H9.616l.053.035a1.99 1.99 0 0 1 .892 1.662v4.661H14.9a.722.722 0 0 0 .722-.721V.722A.722.722 0 0 0 14.9 0z" role="presentation"/><path class="cls-1" d="M9.265 5.587L.937.06a.358.358 0 0 0-.556.3v8.087a1.172 1.172 0 0 0 .451.924l8.283 6.462a.358.358 0 0 0 .578-.282V6.384a.957.957 0 0 0-.428-.797z" role="presentation"/></g>
</symbol>

<symbol id="payment-sources" class="symbol" viewBox="0 0 16 16">
  <title id="title-payment-sources">payment-sources icon</title><path class="cls-1" d="M13.367 2.094a.525.525 0 0 1 .525.525v10.762a.525.525 0 0 1-.525.525H5.094a.525.525 0 0 1-.525-.525V2.619a.525.525 0 0 1 .525-.525h8.273m0-1.094H5.094a1.618 1.618 0 0 0-1.618 1.619v10.762A1.618 1.618 0 0 0 5.094 15h8.273a1.618 1.618 0 0 0 1.618-1.618V2.619A1.618 1.618 0 0 0 13.367 1z" role="presentation"/><path class="cls-2" d="M6.66 11.086l.773-.955c.046-.056.1-.068.149-.023a2.648 2.648 0 0 0 1.364.6V8.766a2.234 2.234 0 0 1-2.138-2.24 2.342 2.342 0 0 1 2.138-2.389v-.671a.108.108 0 0 1 .114-.114h.524a.108.108 0 0 1 .114.114v.671a3.877 3.877 0 0 1 1.808.614.114.114 0 0 1 .023.171l-.66.955a.114.114 0 0 1-.16.034 2.845 2.845 0 0 0-1.012-.4v1.834a2.2 2.2 0 0 1 2.15 2.264A2.354 2.354 0 0 1 9.7 12.054v.694a.108.108 0 0 1-.114.114H9.06a.107.107 0 0 1-.114-.114v-.66a3.969 3.969 0 0 1-2.263-.83.115.115 0 0 1-.023-.172zM8.946 5.57a.862.862 0 0 0-.569.83.764.764 0 0 0 .569.8zm1.331 4.118a.762.762 0 0 0-.58-.762v1.706a.931.931 0 0 0 .58-.944z" role="presentation"/><path class="cls-3" d="M2.108 3.495v9.011a.525.525 0 0 0 .525.525h.279V2.97h-.279a.525.525 0 0 0-.525.525z" role="presentation"/><path class="cls-1" d="M2.633 13.03a.525.525 0 0 1-.525-.525v-9.01a.525.525 0 0 1 .525-.525h.279V1.876h-.279a1.618 1.618 0 0 0-1.618 1.619v9.011a1.618 1.618 0 0 0 1.618 1.618h.279V13.03z" role="presentation"/>
</symbol>

<symbol id="person-group" class="symbol" viewBox="0 0 16 16">
  <title id="title">person-group icon</title><path class="cls-1" d="M16.025 14.92a22.683 22.683 0 0 0-.217-3.343c-.275-.468-.917-.789-2.107-1.287s-1.566-.915-1.566-1.811c0-.538.362-.362.522-1.347.066-.409.386-.007.447-.939 0-.372-.175-.464-.175-.464s.089-.55.123-.973a1.78 1.78 0 0 0-1.913-1.89 1.78 1.78 0 0 0-1.913 1.89c.035.424.123.973.123.973s-.173.092-.173.464c.061.933.381.531.447.939.159.985.522.809.522 1.347a1.448 1.448 0 0 1-.662 1.34c2.593 1.3 2.94 1.562 2.94 2.722v2.379zM8.2 10.74c-1.582-.661-2.088-1.219-2.088-2.414 0-.717.483-.483.7-1.8.088-.545.515-.009.6-1.253 0-.5-.233-.619-.233-.619s.118-.733.165-1.3A2.373 2.373 0 0 0 4.788.84a2.373 2.373 0 0 0-2.55 2.521c.046.565.164 1.3.164 1.3s-.232.123-.232.619c.082 1.243.508.707.6 1.252.212 1.313.695 1.079.695 1.8 0 1.194-.506 1.752-2.088 2.414C.891 10.942.025 11.254.025 12v2.92H11.14v-2.185c0-.686-1.349-1.335-2.94-1.995z" data-name="Layer 1" role="presentation"/>
</symbol>

<symbol id="phone-outline" class="symbol" viewBox="0 0 16 16">
  <title id="title">phone-outline icon</title><path class="cls-1" d="M12.563.006H3.437a.99.99 0 0 0-.981 1v13.99a.99.99 0 0 0 .981 1h9.125a.99.99 0 0 0 .981-1V1.005a.99.99 0 0 0-.98-.999zM3.706 14.744V1.256h8.588v13.488zm4.4-3.172A1.031 1.031 0 1 0 9.16 12.6a1.045 1.045 0 0 0-1.06-1.028z" data-name="Layer 1" role="presentation"/>
</symbol>

<symbol id="phone" class="symbol" viewBox="0 0 16 16">
  <title id="title">phone icon</title><path class="cls-1" d="M1.961 5.8a26.787 26.787 0 0 0 7.089 8.616l1.081.86a1.756 1.756 0 0 0 2.216-.023l1.892-1.57.308-.255a1.305 1.305 0 0 0 .173-1.832l-1.451-1.765a1.292 1.292 0 0 0-1.825-.174l-1.83 1.519a26.79 26.79 0 0 1-4.378-5.32l1.83-1.519A1.305 1.305 0 0 0 7.239 2.5L5.787.74A1.292 1.292 0 0 0 3.963.565l-.308.256-1.892 1.57a1.774 1.774 0 0 0-.44 2.182z" data-name="Layer 1" role="presentation"/>
</symbol>

<symbol id="printer-circle" class="symbol" viewBox="0 0 16 16">
  <title id="title">printer-circle icon</title><path d="M8 2.044A5.956 5.956 0 1 1 2.076 8 5.947 5.947 0 0 1 8 2.044M8 .459A7.541 7.541 0 1 0 15.5 8 7.521 7.521 0 0 0 8 .459z" role="presentation"/><path d="M11.742 10.313l-.009-2.9a.718.718 0 0 0-.718-.716h-.648V6L8.645 4.592H5.631V6.7h-.655a.718.718 0 0 0-.718.72l.009 2.9h1.364v1.094h4.736v-1.101zM6.13 5.083h2.193v1.192H9.9v1.311H6.13v-2.5zM9.9 10.9H6.13V9.616H9.9V10.9z" role="presentation"/>
</symbol>

<symbol id="r-arr-circle-outline" class="symbol" viewBox="0 0 16 16">
  <title id="title">r-arr-circle-outline icon</title><path class="cls-1" d="M7.09 4.879c-.065-.065-.326-.267-.543-.088-.16.166-.113.321-.048.386l2.786 2.789-2.854 2.854a.382.382 0 0 0 .015.424c.107.123.328.086.515-.1l3.1-3.057a.165.165 0 0 0 0-.233zm.943-4.74a7.827 7.827 0 1 0 7.826 7.827A7.836 7.836 0 0 0 8.033.139zm0 15.064a7.237 7.237 0 1 1 7.237-7.237A7.245 7.245 0 0 1 8.033 15.2z" data-name="Layer 1" role="presentation"/>
</symbol>

<symbol id="recurring" class="symbol" viewBox="0 0 16 16">
  <title id="title">recurring icon</title><path class="cls-1" d="M7.562 11.6a3.168 3.168 0 0 1 .629-3.52 3.065 3.065 0 0 1 3.473-.638l.035.012-.586.466a.575.575 0 0 0-.1.8.557.557 0 0 0 .79.1l1.485-1.18a.576.576 0 0 0 .2-.565l-.378-1.887a.562.562 0 0 0-.665-.442.57.57 0 0 0-.436.674l.179.868-.014-.008a4.294 4.294 0 0 0-4.865.9 4.44 4.44 0 0 0-.887 4.93.624.624 0 0 0 .571.376.615.615 0 0 0 .254-.055.636.636 0 0 0 .315-.831zm6.82-3.08a.623.623 0 0 0-.825-.322.637.637 0 0 0-.318.836 3.169 3.169 0 0 1-.629 3.52 3.061 3.061 0 0 1-3.4.669l.585-.465a.575.575 0 0 0 .1-.8.557.557 0 0 0-.789-.1l-1.488 1.184a.574.574 0 0 0-.2.565l.382 1.878a.564.564 0 0 0 .55.454.564.564 0 0 0 .551-.686l-.178-.864a4.366 4.366 0 0 0 1.709.353 4.285 4.285 0 0 0 3.068-1.291 4.446 4.446 0 0 0 .882-4.931zM2.208 3.938h10.08V1.76a.657.657 0 0 0-.651-.659h-1.463V.613a.6.6 0 0 0-.594-.6h-.438a.6.6 0 0 0-.594.6V1.1H4.972V.613a.6.6 0 0 0-.594-.6H3.94a.6.6 0 0 0-.594.6V1.1H1.883a.656.656 0 0 0-.65.659v9.886a.657.657 0 0 0 .65.66h3.054v-1.116H2.208z" data-name="Layer 1" role="presentation"/>
</symbol>

<symbol id="routing-mark" class="symbol" viewBox="0 0 16 16">
  <title id="title">routing-mark icon</title><path class="cls-1" d="M8.609 3v3h3V3zm0 10h3v-3h-3zm-4-2h2V5h-2z" data-name="Layer 1" role="presentation"/>
</symbol>

<symbol id="skip-circle-o" class="symbol" viewBox="0 0 16 16">
  <title id="title">skip-circle-o icon</title><g data-name="Layer 1"><path d="M8 .533a7.5 7.5 0 1 0 7.5 7.5A7.5 7.5 0 0 0 8 .533zm0 13.393a5.893 5.893 0 1 1 5.9-5.893A5.9 5.9 0 0 1 8 13.926z" role="presentation"/><path d="M8.94 4.565L7.9 5.611l1.393 1.377a5.6 5.6 0 0 0-2.856.294 5.445 5.445 0 0 0-2.7 2.257L4.8 10.676a3.782 3.782 0 0 1 2.182-2.027A4.283 4.283 0 0 1 9.373 8.5L7.922 9.96 8.968 11l3.2-3.23z" role="presentation"/></g>
</symbol>

<symbol id="speedy" class="symbol" viewBox="0 0 16 16">
  <title id="title">speedy icon</title><g data-name="Layer 1"><path class="cls-1" d="M15.744 9.221c-.085-.3-.351-.921-.442-1.384a2.108 2.108 0 0 0-.767-1.578 4.361 4.361 0 0 0-1.292-.625 8.509 8.509 0 0 0-1.873-2.713A10.03 10.03 0 0 0 7.485.819a7.489 7.489 0 0 0 1.88 3.442 22.108 22.108 0 0 0 2.1 1.818 1.863 1.863 0 0 0-.487.476.759.759 0 0 1-.437-.208c-.269-.214-2.728-2.123-3.5-2.674s-1.216-1.1-2.312-.929A16.533 16.533 0 0 0 .681 4.6a2.356 2.356 0 0 0-.312.814.71.71 0 0 0 .757.29.205.205 0 0 1 .25.2 3.6 3.6 0 0 0 1 2.783 3.872 3.872 0 0 0 2.406 1.025.577.577 0 0 1 .55.241c.137.163 3.839 4.435 3.839 4.435l3.974.435a.941.941 0 0 0-.9-1.013 6.815 6.815 0 0 1-1.652-.239c-.116-.108-1.493-3.587-2-4.689s-.914-2.692-1.988-2.97a4.422 4.422 0 0 0-1.557-.2s.043-.356.361-.349 1.732-.137 2.4.753a55.076 55.076 0 0 1 2.6 5.358s.4.21.849-.274 1.132-1.217 1.786-1.2 1.689.237 1.818.177.893-.593.893-.593.074-.067-.011-.363zm-1.432-.6a.476.476 0 1 1 .458-.493.476.476 0 0 1-.458.492z" role="presentation"/><path class="cls-1" d="M4.782 11.766a1.942 1.942 0 0 0-.935-.041 1.136 1.136 0 0 0 .009.261 1.471 1.471 0 0 0 1.676.91c1.341-.086 1.353-.273 1.353-.273l-.932-.975c-.515.188-.848.274-1.171.118z" role="presentation"/></g>
</symbol>

<symbol id="statements" class="symbol" viewBox="0 0 16 16">
  <title id="title">statements icon</title><g data-name="Layer 1"><path d="M12.843 1.078V.145H.108v15.71h12.735v-.973H16V1.078zM1.572 14.55V1.45h9.808v13.1zm11.271-.973V2.384h1.693v11.193z" role="presentation"/><path d="M3.383 3.417h6.185v1.306H3.383zm0 2.255h6.185v1.306H3.383zm0 2.256h6.185v1.305H3.383zm0 2.255h6.185v1.305H3.383z" role="presentation"/></g>
</symbol>

<symbol id="stripe-link" class="symbol" viewBox="0 0 16 16">
  <title id="title">stripe-link icon</title><g data-name="Layer 1"><path class="cls-1" d="M14.652 9.888h-1.096v3.668H2.392V2.392H6.06V0H0v15.948h15.948v-6.06h-1.296zM8.612 0v.1l2.836 2.847-.934.956L12.28 5.6l.92-.902 2.648 2.638h.1V0H8.612z" role="presentation"/><path class="cls-2" d="M7.447 6.472c0-.318.265-.441.691-.441a4.563 4.563 0 0 1 2.025.524V4.638a5.379 5.379 0 0 0-2.023-.373c-1.651 0-2.753.863-2.753 2.3 0 2.254 3.1 1.888 3.1 2.86 0 .376-.327.5-.781.5a5.129 5.129 0 0 1-2.228-.65v1.945a5.65 5.65 0 0 0 2.226.462c1.693 0 2.859-.836 2.859-2.3-.003-2.429-3.116-1.994-3.116-2.91z" role="presentation"/></g>
</symbol>

<symbol id="stripe" class="symbol" viewBox="0 0 16 16">
  <title id="title">stripe icon</title><g data-name="Layer 1"><path class="cls-1" d="M15.333 8.1c0-1.039-.5-1.86-1.467-1.86a1.649 1.649 0 0 0-1.553 1.854 1.621 1.621 0 0 0 1.681 1.843 2.275 2.275 0 0 0 1.125-.263v-.818a2.143 2.143 0 0 1-1 .225c-.4 0-.744-.14-.789-.616h1.99c.004-.054.013-.265.013-.365zm-2.009-.384c0-.457.282-.649.536-.649s.513.192.513.649zM10.745 6.24a1.136 1.136 0 0 0-.795.318l-.05-.25H9v4.736l1.015-.216V9.68a1.138 1.138 0 0 0 .718.257c.726 0 1.39-.584 1.39-1.873.006-1.182-.665-1.824-1.378-1.824zm-.245 2.8a.606.606 0 0 1-.479-.193l-.003-1.507a.613.613 0 0 1 .485-.2c.371 0 .627.416.627.947-.001.545-.252.953-.63.953zM7.605 5.999l1.019-.217v-.826l-1.019.216v.827z" role="presentation"/><path class="cls-2" d="M7.605 6.308h1.019v3.557H7.605z" role="presentation"/><path class="cls-1" d="M6.514 6.608l-.064-.3h-.877v3.556h1.014V7.453a.721.721 0 0 1 .774-.213v-.932a.692.692 0 0 0-.847.3zM4.479 5.427l-.991.211v3.255a1.022 1.022 0 0 0 1.05 1.044A1.568 1.568 0 0 0 5.25 9.8v-.823c-.13.052-.77.238-.77-.36V7.173h.77v-.865h-.77zM1.732 7.34c0-.158.132-.22.345-.22a2.274 2.274 0 0 1 1.009.261v-.955a2.681 2.681 0 0 0-1.009-.186c-.823 0-1.372.43-1.372 1.148 0 1.123 1.543.941 1.543 1.425 0 .187-.163.248-.389.248a2.556 2.556 0 0 1-1.11-.324v.969a2.816 2.816 0 0 0 1.109.23c.844 0 1.425-.417 1.425-1.147 0-1.209-1.551-.989-1.551-1.449z" role="presentation"/></g>
</symbol>

<symbol id="to-arrow" class="symbol" viewBox="0 0 16 16">
  <title id="title">to-arrow icon</title><path class="cls-1" d="M14.173 7.78L9.79 3.441a.913.913 0 0 0-1.283 0 .891.891 0 0 0 0 1.27l2.835 2.807H2.468a.9.9 0 1 0 0 1.8h8.874L8.507 12.12a.891.891 0 0 0 0 1.27.913.913 0 0 0 1.283 0l4.383-4.34a.891.891 0 0 0 0-1.27z" data-name="Layer 1" role="presentation"/>
</symbol>

<symbol id="transfers" class="symbol" viewBox="0 0 16 16">
  <title id="title">transfers icon</title><g data-name="Layer 1"><path class="cls-1" d="M2.825 9.8l.467-.577c.028-.034.062-.041.09-.014a1.6 1.6 0 0 0 .825.364V8.4a1.35 1.35 0 0 1-1.293-1.358A1.415 1.415 0 0 1 4.206 5.6v-.407a.065.065 0 0 1 .069-.069h.316a.065.065 0 0 1 .069.069V5.6a2.343 2.343 0 0 1 1.092.371.069.069 0 0 1 .014.1l-.4.577a.069.069 0 0 1-.1.021 1.719 1.719 0 0 0-.606-.239v1.107A1.328 1.328 0 0 1 5.959 8.9a1.423 1.423 0 0 1-1.3 1.478v.422a.065.065 0 0 1-.069.069h-.315a.065.065 0 0 1-.069-.069v-.4a2.4 2.4 0 0 1-1.368-.5.07.07 0 0 1-.013-.1zm1.381-3.336a.521.521 0 0 0-.344.5.461.461 0 0 0 .344.481zm.8 2.488a.46.46 0 0 0-.351-.461v1.032a.563.563 0 0 0 .356-.57zm3.336-1.413V6.425a1.8 1.8 0 0 1 .605.244.067.067 0 0 0 .1-.02l.4-.576a.071.071 0 0 0-.02-.107A2.339 2.339 0 0 0 8.342 5.6v-.4a.067.067 0 0 0-.068-.068h-.323a.067.067 0 0 0-.068.068v.4a1.412 1.412 0 0 0-1.289 1.441A1.356 1.356 0 0 0 7.883 8.4v1.17a1.514 1.514 0 0 1-.82-.361.066.066 0 0 0-.1.01l-.459.576a.069.069 0 0 0 .01.107 2.362 2.362 0 0 0 1.367.5v.4a.067.067 0 0 0 .068.068h.322a.067.067 0 0 0 .068-.068v-.42a1.6 1.6 0 0 0 .449-.127v-.01l.83-1.552a1.335 1.335 0 0 0-1.276-1.154zm-.459-.088a.463.463 0 0 1-.342-.488.508.508 0 0 1 .342-.5zm.459 2.07V8.5a.448.448 0 0 1 .342.459.551.551 0 0 1-.342.562zm4.794-3.574a2.379 2.379 0 0 0-1.094-.371v-.4a.062.062 0 0 0-.068-.068h-.312a.062.062 0 0 0-.068.068v.4a1.421 1.421 0 0 0-1.3 1.445 1.28 1.28 0 0 0 .3.859 3.835 3.835 0 0 1 1.445-.527v-.947a1.844 1.844 0 0 1 .615.244.078.078 0 0 0 .1-.02l.4-.576a.078.078 0 0 0-.018-.107zm-1.543 1.484a.463.463 0 0 1-.342-.488.508.508 0 0 1 .342-.5z" role="presentation"/><path class="cls-1" d="M15.186 2.149H.764a.576.576 0 0 0-.518.322.459.459 0 0 0-.078.254V13.27a.5.5 0 0 0 .049.215v.02a.6.6 0 0 0 .547.361h8.759a3.9 3.9 0 0 1-.7-1.318H1.487V3.467h12.977v4.247a3.949 3.949 0 0 1 1.318 1.016V2.744a.592.592 0 0 0-.596-.595z" role="presentation"/><path class="cls-1" d="M12.685 8.215a3.127 3.127 0 1 0 3.127 3.127 3.127 3.127 0 0 0-3.127-3.127zm0 5.35a2.223 2.223 0 1 1 2.223-2.223 2.223 2.223 0 0 1-2.223 2.223z" role="presentation"/><path class="cls-1" d="M12.95 10.337l-.278.281.373.369a1.5 1.5 0 0 0-.766.079 1.46 1.46 0 0 0-.725.605l.287.3a1.014 1.014 0 0 1 .584-.544 1.148 1.148 0 0 1 .641-.041l-.389.392.28.278.859-.866z" role="presentation"/></g>
</symbol>

<symbol id="trash-circle-outline" class="symbol" viewBox="0 0 16 16">
  <title id="title">trash-circle-outline icon</title><g data-name="Layer 1"><path class="cls-1" d="M8.048.139a7.824 7.824 0 1 0 7.824 7.824A7.833 7.833 0 0 0 8.048.139zm0 15.058a7.235 7.235 0 1 1 7.235-7.235A7.243 7.243 0 0 1 8.048 15.2z" role="presentation"/><path class="cls-1" d="M11.112 5.8h-1.6V4.678a.337.337 0 0 0-.336-.336H6.94a.337.337 0 0 0-.336.336V5.8H5a.336.336 0 1 0 0 .672h.518v4.818a.336.336 0 0 0 .336.336h4.4a.336.336 0 0 0 .336-.336V6.473h.518a.336.336 0 0 0 0-.672zm-3.836-.786h1.565V5.8H7.276zm2.646 5.941H6.195V6.473h3.727z" role="presentation"/><path class="cls-1" d="M8.788 10.526a.332.332 0 0 0 .331-.331V7.213a.331.331 0 1 0-.663 0v2.982a.331.331 0 0 0 .332.331zm-1.46 0a.331.331 0 0 0 .331-.331V7.213a.331.331 0 0 0-.663 0v2.982a.332.332 0 0 0 .332.331z" role="presentation"/></g>
</symbol>
    </svg>