<svg xmlns="http://www.w3.org/2000/svg" xmlns:xlink="http://www.w3.org/1999/xlink">
    
<symbol id="cards" viewBox="0 0 16 16">
  <path d="M15.725 0.275024H9.27325V6.72677H15.725V0.275024Z"></path><path d="M6.72674 0.275024H0.274994V6.72677H6.72674V0.275024Z"></path><path d="M6.72674 9.27328H0.274994V15.725H6.72674V9.27328Z"></path><path d="M15.725 9.27328H9.27325V15.725H15.725V9.27328Z"></path>
</symbol>

<symbol id="lock-o" viewBox="0 0 16 16">
  <path d="M12.9653 6.46962H12.9393V5.40934C12.9393 4.09803 12.4186 2.84042 11.4917 1.91318C10.5649 0.985944 9.30778 0.465027 7.99701 0.465027C6.68624 0.465027 5.42915 0.985944 4.5023 1.91318C3.57544 2.84042 3.05474 4.09803 3.05474 5.40934V6.46962H3.02975C2.55213 6.47147 2.09468 6.66244 1.75742 7.00078C1.42016 7.33912 1.23054 7.79728 1.23001 8.2751V13.7295C1.23054 14.2074 1.42016 14.6655 1.75742 15.0039C2.09468 15.3422 2.55213 15.5332 3.02975 15.535H12.9653C13.4429 15.5345 13.9009 15.3448 14.2391 15.0074C14.5773 14.67 14.7682 14.2124 14.77 13.7345V8.2751C14.7695 7.79642 14.5792 7.3375 14.2408 6.99902C13.9025 6.66054 13.4438 6.47015 12.9653 6.46962ZM4.80448 5.40934C4.80448 4.56228 5.14084 3.74991 5.73955 3.15095C6.33827 2.55199 7.1503 2.21549 7.99701 2.21549C8.84372 2.21549 9.65576 2.55199 10.2545 3.15095C10.8532 3.74991 11.1895 4.56228 11.1895 5.40934V6.46962H4.80448V5.40934ZM13.0203 13.7295C13.0203 13.7441 13.0145 13.7581 13.0042 13.7684C12.9938 13.7788 12.9799 13.7846 12.9653 13.7846L2.97475 13.7295L3.02975 8.22008L13.0203 8.2751V13.7295Z"></path>
</symbol>

<symbol id="note-o" viewBox="0 0 16 16">
  <path d="M9.703 7.69168H4.159V8.74742H9.703V7.69168Z"></path><path d="M11.832 5.50024H4.159V6.55597H11.832V5.50024Z"></path><path d="M11.832 3.40577H4.159V4.4615H11.832V3.40577Z"></path><path d="M14.852 11.0358C14.9185 11.1908 14.9358 11.3624 14.9015 11.5275C14.8671 11.6925 14.7828 11.8431 14.66 11.9586L10.884 15.5907C10.7176 15.7517 10.4946 15.8411 10.263 15.8396C10.0338 15.8445 9.81207 15.7582 9.64636 15.5999C9.48065 15.4415 9.38451 15.224 9.379 14.9948V11.5957C9.38712 11.3033 9.5108 11.026 9.72297 10.8246C9.93513 10.6232 10.2185 10.514 10.511 10.521H14.045C14.2151 10.5187 14.3821 10.5663 14.5255 10.6578C14.6689 10.7493 14.7824 10.8807 14.852 11.0358Z"></path><path d="M13.806 0.155586H2.19C1.90428 0.147773 1.6271 0.253408 1.41908 0.449381C1.21107 0.645355 1.08915 0.915715 1.08 1.20132V14.7979C1.08889 15.0837 1.21069 15.3543 1.41874 15.5505C1.62678 15.7467 1.90412 15.8524 2.19 15.8446H10.19V14.505H2.5V1.49025H13.5V11.4007H14.92V1.19732C14.9101 0.911617 14.7872 0.641504 14.5784 0.446218C14.3696 0.250932 14.0918 0.146414 13.806 0.155586Z"></path>
</symbol>

<symbol id="notification-o" viewBox="0 0 16 16">
  <path d="M15.2327 11.506L13.3279 9.23398V5.81697C13.3366 4.39376 12.7806 3.02517 11.7816 2.0115C10.7827 0.997831 9.42244 0.421864 7.99938 0.409973C6.5765 0.422127 5.21654 0.99821 4.2178 2.01185C3.21907 3.02549 2.66312 4.39393 2.67191 5.81697V9.23398L0.767103 11.505C0.578314 11.7279 0.457357 12.0003 0.418549 12.2899C0.379741 12.5795 0.424707 12.8742 0.548124 13.139C0.664092 13.4035 0.854941 13.6282 1.09713 13.7855C1.33931 13.9427 1.62223 14.0256 1.91099 14.024H5.69061C5.87469 14.4861 6.19316 14.8824 6.60484 15.1616C7.01652 15.4407 7.50248 15.59 7.99988 15.59C8.49728 15.59 8.98324 15.4407 9.39493 15.1616C9.80661 14.8824 10.1251 14.4861 10.3092 14.024H14.0908C14.3791 14.0247 14.6614 13.9414 14.903 13.7842C15.1447 13.6271 15.3354 13.4028 15.4516 13.139C15.5752 12.8744 15.6203 12.5798 15.5815 12.2904C15.5426 12.0009 15.4216 11.7287 15.2327 11.506ZM14.0908 12.568H1.91099L1.84999 12.455L3.91079 9.98997C4.02701 9.84926 4.09064 9.67249 4.09077 9.48997V5.81697C4.09077 5.30416 4.19177 4.79637 4.38799 4.3226C4.58422 3.84882 4.87183 3.41833 5.23441 3.05572C5.59698 2.69311 6.02742 2.40547 6.50115 2.20922C6.97488 2.01298 7.48262 1.91197 7.99538 1.91197C8.50814 1.91197 9.01588 2.01298 9.48961 2.20922C9.96334 2.40547 10.3938 2.69311 10.7564 3.05572C11.1189 3.41833 11.4066 3.84882 11.6028 4.3226C11.799 4.79637 11.9 5.30416 11.9 5.81697V9.48798C11.9006 9.67058 11.9645 9.84731 12.081 9.98798L14.1488 12.453L14.0908 12.568Z"></path><path d="M15.2327 11.506L13.3279 9.23398V5.81697C13.3366 4.39376 12.7806 3.02517 11.7816 2.0115C10.7827 0.997831 9.42244 0.421864 7.99938 0.409973C6.5765 0.422127 5.21654 0.99821 4.2178 2.01185C3.21907 3.02549 2.66312 4.39393 2.67191 5.81697V9.23398L0.767103 11.505C0.578314 11.7279 0.457357 12.0003 0.418549 12.2899C0.379741 12.5795 0.424707 12.8742 0.548124 13.139C0.664092 13.4035 0.854941 13.6282 1.09713 13.7855C1.33931 13.9427 1.62223 14.0256 1.91099 14.024H5.69061C5.87469 14.4861 6.19316 14.8824 6.60484 15.1616C7.01652 15.4407 7.50248 15.59 7.99988 15.59C8.49728 15.59 8.98324 15.4407 9.39493 15.1616C9.80661 14.8824 10.1251 14.4861 10.3092 14.024H14.0908C14.3791 14.0247 14.6614 13.9414 14.903 13.7842C15.1447 13.6271 15.3354 13.4028 15.4516 13.139C15.5752 12.8744 15.6203 12.5798 15.5815 12.2904C15.5426 12.0009 15.4216 11.7287 15.2327 11.506ZM14.0908 12.568H1.91099L1.84999 12.455L3.91079 9.98997C4.02701 9.84926 4.09064 9.67249 4.09077 9.48997V5.81697C4.09077 5.30416 4.19177 4.79637 4.38799 4.3226C4.58422 3.84882 4.87183 3.41833 5.23441 3.05572C5.59698 2.69311 6.02742 2.40547 6.50115 2.20922C6.97488 2.01298 7.48262 1.91197 7.99538 1.91197C8.50814 1.91197 9.01588 2.01298 9.48961 2.20922C9.96334 2.40547 10.3938 2.69311 10.7564 3.05572C11.1189 3.41833 11.4066 3.84882 11.6028 4.3226C11.799 4.79637 11.9 5.30416 11.9 5.81697V9.48798C11.9006 9.67058 11.9645 9.84731 12.081 9.98798L14.1488 12.453L14.0908 12.568Z"></path><path d="M15.2327 11.506L13.3279 9.23398V5.81697C13.3366 4.39376 12.7806 3.02517 11.7816 2.0115C10.7827 0.997831 9.42244 0.421864 7.99938 0.409973C6.5765 0.422127 5.21654 0.99821 4.2178 2.01185C3.21907 3.02549 2.66312 4.39393 2.67191 5.81697V9.23398L0.767103 11.505C0.578314 11.7279 0.457357 12.0003 0.418549 12.2899C0.379741 12.5795 0.424707 12.8742 0.548124 13.139C0.664092 13.4035 0.854941 13.6282 1.09713 13.7855C1.33931 13.9427 1.62223 14.0256 1.91099 14.024H5.69061C5.87469 14.4861 6.19316 14.8824 6.60484 15.1616C7.01652 15.4407 7.50248 15.59 7.99988 15.59C8.49728 15.59 8.98324 15.4407 9.39493 15.1616C9.80661 14.8824 10.1251 14.4861 10.3092 14.024H14.0908C14.3791 14.0247 14.6614 13.9414 14.903 13.7842C15.1447 13.6271 15.3354 13.4028 15.4516 13.139C15.5752 12.8744 15.6203 12.5798 15.5815 12.2904C15.5426 12.0009 15.4216 11.7287 15.2327 11.506ZM14.0908 12.568H1.91099L1.84999 12.455L3.91079 9.98997C4.02701 9.84926 4.09064 9.67249 4.09077 9.48997V5.81697C4.09077 5.30416 4.19177 4.79637 4.38799 4.3226C4.58422 3.84882 4.87183 3.41833 5.23441 3.05572C5.59698 2.69311 6.02742 2.40547 6.50115 2.20922C6.97488 2.01298 7.48262 1.91197 7.99538 1.91197C8.50814 1.91197 9.01588 2.01298 9.48961 2.20922C9.96334 2.40547 10.3938 2.69311 10.7564 3.05572C11.1189 3.41833 11.4066 3.84882 11.6028 4.3226C11.799 4.79637 11.9 5.30416 11.9 5.81697V9.48798C11.9006 9.67058 11.9645 9.84731 12.081 9.98798L14.1488 12.453L14.0908 12.568Z"></path>
</symbol>

<symbol id="notification" viewBox="0 0 16 16">
  <path d="M15.2327 11.506L13.3279 9.23398V5.81697C13.3366 4.39376 12.7806 3.02517 11.7816 2.0115C10.7827 0.997831 9.42244 0.421864 7.99938 0.409973C6.5765 0.422127 5.21654 0.99821 4.2178 2.01185C3.21907 3.02549 2.66312 4.39393 2.67191 5.81697V9.23398L0.767103 11.505C0.578314 11.7279 0.457357 12.0003 0.418549 12.2899C0.379741 12.5795 0.424707 12.8742 0.548124 13.139C0.664092 13.4035 0.854941 13.6282 1.09713 13.7855C1.33931 13.9427 1.62223 14.0256 1.91099 14.024H5.69061C5.87469 14.4861 6.19316 14.8824 6.60484 15.1616C7.01652 15.4407 7.50248 15.59 7.99988 15.59C8.49728 15.59 8.98324 15.4407 9.39493 15.1616C9.80661 14.8824 10.1251 14.4861 10.3092 14.024H14.0908C14.3791 14.0247 14.6614 13.9414 14.903 13.7842C15.1447 13.6271 15.3354 13.4028 15.4516 13.139C15.5752 12.8744 15.6203 12.5798 15.5815 12.2904C15.5426 12.0009 15.4216 11.7287 15.2327 11.506Z"></path>
</symbol>

<symbol id="person-remove-o" viewBox="0 0 16 16">
  <path d="M3.39084 15.68C2.86584 15.6787 2.36283 15.469 1.99234 15.097C1.62186 14.7251 1.4142 14.2213 1.415 13.6963V10.5887C1.41719 10.1065 1.56461 9.63616 1.83804 9.23898C2.11147 8.84179 2.49822 8.53619 2.94788 8.362L5.3307 7.45312L5.01872 7.24115C4.34659 6.78828 3.83764 6.13157 3.56683 5.36772C3.29601 4.60386 3.27764 3.77324 3.51442 2.99817C3.75119 2.22309 4.23061 1.54452 4.88206 1.06238C5.53352 0.580238 6.32258 0.320007 7.13306 0.320007C7.94354 0.320007 8.7326 0.580238 9.38406 1.06238C10.0355 1.54452 10.5149 2.22309 10.7517 2.99817C10.9885 3.77324 10.9701 4.60386 10.6993 5.36772C10.4285 6.13157 9.91953 6.78828 9.2474 7.24115L8.93442 7.45312L11.4512 8.41199C11.5846 8.4622 11.6961 8.55767 11.7662 8.68171C11.8364 8.80575 11.8607 8.95049 11.835 9.09065C11.8092 9.2308 11.7351 9.35747 11.6255 9.44853C11.5159 9.53959 11.3778 9.58924 11.2352 9.58883C11.1625 9.58886 11.0903 9.57564 11.0223 9.54984L7.13356 8.06704L3.37585 9.49884C3.15539 9.58375 2.96569 9.7332 2.83154 9.92764C2.69738 10.1221 2.62502 10.3525 2.6239 10.5887V13.6933C2.6239 13.8969 2.70464 14.0921 2.84841 14.2363C2.99219 14.3804 3.18726 14.4616 3.39084 14.4622H9.00742C9.16426 14.4685 9.31256 14.5353 9.42128 14.6485C9.53001 14.7617 9.59072 14.9126 9.59072 15.0696C9.59072 15.2266 9.53001 15.3774 9.42128 15.4906C9.31256 15.6039 9.16426 15.6706 9.00742 15.677L3.39084 15.68ZM7.13356 1.51393C6.62279 1.51234 6.12303 1.66235 5.69757 1.94495C5.27211 2.22755 4.94007 2.63004 4.74351 3.10145C4.54695 3.57286 4.4947 4.09199 4.59338 4.59311C4.69205 5.09424 4.93722 5.55481 5.29783 5.91652C5.65844 6.27823 6.11828 6.52481 6.61912 6.62504C7.11997 6.72526 7.63929 6.67463 8.11134 6.47954C8.58338 6.28446 8.98692 5.95369 9.27086 5.52914C9.5548 5.10458 9.70636 4.60532 9.70636 4.09458C9.70663 3.41145 9.43591 2.75611 8.95359 2.27231C8.47126 1.78852 7.81673 1.51578 7.13356 1.51393Z"></path><path d="M10.0973 12.6294C9.95148 12.6294 9.81159 12.5715 9.70846 12.4684C9.60532 12.3652 9.54738 12.2253 9.54738 12.0795C9.54738 11.9336 9.60532 11.7938 9.70846 11.6906C9.81159 11.5875 9.95148 11.5296 10.0973 11.5296H14.035C14.1809 11.5296 14.3208 11.5875 14.4239 11.6906C14.5271 11.7938 14.585 11.9336 14.585 12.0795C14.585 12.2253 14.5271 12.3652 14.4239 12.4684C14.3208 12.5715 14.1809 12.6294 14.035 12.6294H10.0973Z"></path>
</symbol>

<symbol id="promote" viewBox="0 0 16 16">
  <path fill-rule="evenodd" clip-rule="evenodd" d="M12.3853 9.97352L10.3067 6.12583C10.7967 5.67197 11.1426 5.08428 11.3015 4.43568C11.4603 3.78708 11.4252 3.10612 11.2004 2.4773C10.9756 1.84849 10.571 1.2995 10.0369 0.898455C9.50278 0.497412 8.86261 0.261969 8.19583 0.221344C7.52905 0.180719 6.86501 0.336699 6.28612 0.669929C5.70722 1.00316 5.23895 1.49897 4.93941 2.09584C4.63987 2.69271 4.52226 3.36436 4.60115 4.02745C4.68004 4.69053 4.95198 5.31587 5.38321 5.82586L3.15553 10.0165C2.46368 10.1289 1.83593 10.4879 1.38836 11.0272C0.940798 11.5664 0.703688 12.2494 0.720874 12.9498C0.738061 13.6503 1.00838 14.3208 1.48185 14.8375C1.95533 15.3541 2.59993 15.6819 3.29646 15.7603C3.993 15.8387 4.69437 15.6623 5.27087 15.2637C5.84738 14.8652 6.26004 14.2715 6.43254 13.5924C6.60504 12.9133 6.52573 12.1947 6.20926 11.5695C5.89279 10.9443 5.36057 10.4548 4.71101 10.1915L6.55256 6.72579C7.30445 7.0921 8.1695 7.15128 8.9643 6.89077L10.8579 10.3995C10.2591 10.7651 9.81284 11.3348 9.60139 12.0035C9.38993 12.6723 9.42758 13.3949 9.70737 14.038C9.98717 14.6812 10.4902 15.2015 11.1237 15.5029C11.7572 15.8044 12.4784 15.8666 13.1542 15.6781C13.83 15.4897 14.4149 15.0632 14.8008 14.4775C15.1867 13.8918 15.3476 13.1863 15.254 12.4913C15.1603 11.7962 14.8183 11.1585 14.291 10.6957C13.7638 10.233 13.0869 9.97647 12.3853 9.97352ZM5.3562 12.8903C5.3562 13.2368 5.25339 13.5756 5.06078 13.8637C4.86816 14.1518 4.59439 14.3763 4.2741 14.5089C3.95381 14.6415 3.60138 14.6761 3.2614 14.6084C2.92141 14.5407 2.60914 14.3738 2.36409 14.1287C2.11903 13.8836 1.9522 13.5713 1.88469 13.2314C1.81718 12.8915 1.85203 12.5393 1.98483 12.2192C2.11763 11.8991 2.34241 11.6256 2.63074 11.4332C2.91908 11.2408 3.25801 11.1382 3.60467 11.1384C3.83477 11.1384 4.06261 11.1837 4.27518 11.2718C4.48775 11.3599 4.68089 11.4889 4.84354 11.6516C5.0062 11.8143 5.1352 12.0074 5.22316 12.22C5.31112 12.4325 5.35633 12.6603 5.3562 12.8903ZM12.3633 14.6531C12.0143 14.6531 11.6731 14.5497 11.3829 14.3558C11.0927 14.1619 10.8665 13.8864 10.733 13.5641C10.5995 13.2417 10.5646 12.887 10.6328 12.5448C10.7009 12.2026 10.8691 11.8883 11.116 11.6417C11.3628 11.3951 11.6773 11.2271 12.0197 11.1592C12.362 11.0913 12.7169 11.1263 13.0393 11.26C13.3617 11.3936 13.6372 11.6199 13.831 11.9101C14.0247 12.2003 14.1281 12.5414 14.1279 12.8903C14.1279 13.1219 14.0822 13.3512 13.9935 13.5651C13.9048 13.7791 13.7748 13.9735 13.611 14.1372C13.4471 14.3009 13.2526 14.4307 13.0385 14.5192C12.8244 14.6078 12.595 14.6533 12.3633 14.6531Z"></path>
</symbol>

<symbol id="unlock-o" viewBox="0 0 16 16">
  <path d="M12.9745 6.9995H12.9495V4.91398C12.9507 3.71021 12.5064 2.54795 11.701 1.64814C10.8956 0.748319 9.78527 0.173674 8.58104 0.0334373C7.37682 -0.1068 6.16267 0.197148 5.16939 0.887503C4.17612 1.57786 3.47297 2.60649 3.1936 3.77787L4.8941 4.17511C5.07464 3.41852 5.52887 2.75416 6.17046 2.30829C6.81206 1.86242 7.5963 1.66612 8.37412 1.75671C9.15194 1.84729 9.86913 2.21844 10.3894 2.79962C10.9096 3.3808 11.1967 4.13149 11.196 4.90901V6.99453H3.03555C2.79785 6.99479 2.56253 7.0416 2.34307 7.13227C2.1236 7.22294 1.92431 7.3557 1.7566 7.52295C1.58889 7.69019 1.45605 7.88863 1.36569 8.10692C1.27534 8.3252 1.22923 8.55903 1.23002 8.79503V14.2074C1.23055 14.6818 1.42025 15.1367 1.75766 15.4726C2.09507 15.8086 2.55272 15.9982 3.03055 16H12.9695C13.4474 15.9984 13.9052 15.8089 14.2427 15.4729C14.5801 15.137 14.7697 14.6819 14.77 14.2074V8.79503C14.7705 8.32089 14.582 7.86584 14.2455 7.52936C13.909 7.19289 13.452 7.00238 12.9745 6.9995ZM13.0295 14.2074C13.0295 14.2219 13.0237 14.2358 13.0134 14.2461C13.0031 14.2563 12.9891 14.2621 12.9745 14.2621L2.98054 14.2074L3.03555 8.73743L13.0295 8.79205V14.2074Z"></path>
</symbol>
    </svg>