<svg xmlns="http://www.w3.org/2000/svg" xmlns:xlink="http://www.w3.org/1999/xlink">
    
<symbol id="cards" viewBox="0 0 16 16">
  <path d="M15.725 0.275024H9.27325V6.72677H15.725V0.275024Z"></path><path d="M6.72674 0.275024H0.274994V6.72677H6.72674V0.275024Z"></path><path d="M6.72674 9.27328H0.274994V15.725H6.72674V9.27328Z"></path><path d="M15.725 9.27328H9.27325V15.725H15.725V9.27328Z"></path>
</symbol>

<symbol id="lock-o" viewBox="0 0 16 16">
  <path d="M12.9653 6.46956H12.9393V5.40928C12.9393 4.09796 12.4186 2.84036 11.4917 1.91312C10.5649 0.985883 9.30778 0.464966 7.99701 0.464966C6.68624 0.464966 5.42915 0.985883 4.5023 1.91312C3.57544 2.84036 3.05474 4.09796 3.05474 5.40928V6.46956H3.02975C2.55213 6.47141 2.09468 6.66238 1.75742 7.00072C1.42016 7.33905 1.23054 7.79722 1.23001 8.27504V13.7295C1.23054 14.2073 1.42016 14.6655 1.75742 15.0038C2.09468 15.3421 2.55213 15.5331 3.02975 15.535H12.9653C13.4429 15.5344 13.9009 15.3447 14.2391 15.0073C14.5773 14.6699 14.7682 14.2123 14.77 13.7345V8.27504C14.7695 7.79636 14.5792 7.33744 14.2408 6.99896C13.9025 6.66048 13.4438 6.47009 12.9653 6.46956ZM4.80448 5.40928C4.80448 4.56222 5.14084 3.74985 5.73955 3.15089C6.33827 2.55192 7.1503 2.21543 7.99701 2.21543C8.84372 2.21543 9.65575 2.55192 10.2545 3.15089C10.8532 3.74985 11.1895 4.56222 11.1895 5.40928V6.46956H4.80448V5.40928ZM13.0203 13.7295C13.0203 13.7441 13.0145 13.7581 13.0042 13.7684C12.9939 13.7787 12.9799 13.7845 12.9653 13.7845L2.97475 13.7295L3.02975 8.22002L13.0203 8.27504V13.7295Z"></path>
</symbol>

<symbol id="note-o" viewBox="0 0 16 16">
  <path d="M9.703 7.69168H4.159V8.74742H9.703V7.69168Z"></path><path d="M11.832 5.50024H4.159V6.55597H11.832V5.50024Z"></path><path d="M11.832 3.40577H4.159V4.4615H11.832V3.40577Z"></path><path d="M14.852 11.0358C14.9185 11.1908 14.9358 11.3624 14.9015 11.5275C14.8671 11.6925 14.7828 11.8431 14.66 11.9586L10.884 15.5907C10.7176 15.7517 10.4946 15.8411 10.263 15.8396C10.0338 15.8445 9.81207 15.7582 9.64636 15.5999C9.48066 15.4415 9.38451 15.224 9.379 14.9948V11.5957C9.38712 11.3033 9.5108 11.026 9.72297 10.8246C9.93513 10.6232 10.2185 10.514 10.511 10.521H14.045C14.2151 10.5187 14.3821 10.5663 14.5255 10.6578C14.6689 10.7493 14.7824 10.8807 14.852 11.0358Z"></path><path d="M13.806 0.155586H2.19C1.90428 0.147773 1.6271 0.253408 1.41908 0.449381C1.21107 0.645355 1.08915 0.915715 1.08 1.20132V14.7979C1.08889 15.0837 1.21069 15.3543 1.41874 15.5505C1.62678 15.7467 1.90412 15.8524 2.19 15.8446H10.19V14.505H2.5V1.49025H13.5V11.4007H14.92V1.19732C14.9101 0.911617 14.7872 0.641504 14.5784 0.446218C14.3696 0.250932 14.0918 0.146414 13.806 0.155586Z"></path>
</symbol>

<symbol id="notification-o" viewBox="0 0 16 16">
  <path d="M15.2327 11.506L13.3279 9.23404V5.81704C13.3366 4.39382 12.7806 3.02523 11.7816 2.01156C10.7827 0.997892 9.42244 0.421925 7.99938 0.410034C6.5765 0.422188 5.21654 0.998271 4.2178 2.01191C3.21907 3.02556 2.66312 4.39399 2.67191 5.81704V9.23404L0.767103 11.505C0.578314 11.728 0.457357 12.0004 0.418549 12.29C0.379741 12.5796 0.424707 12.8742 0.548124 13.139C0.664092 13.4035 0.854941 13.6282 1.09713 13.7855C1.33931 13.9428 1.62223 14.0257 1.91099 14.024H5.69061C5.87469 14.4862 6.19316 14.8824 6.60484 15.1616C7.01652 15.4408 7.50248 15.59 7.99988 15.59C8.49728 15.59 8.98324 15.4408 9.39493 15.1616C9.80661 14.8824 10.1251 14.4862 10.3092 14.024H14.0908C14.3791 14.0248 14.6614 13.9415 14.903 13.7843C15.1447 13.6271 15.3354 13.4029 15.4516 13.139C15.5752 12.8744 15.6203 12.5799 15.5815 12.2904C15.5426 12.001 15.4216 11.7287 15.2327 11.506ZM14.0908 12.568H1.91099L1.84999 12.455L3.91079 9.99004C4.02701 9.84932 4.09064 9.67255 4.09077 9.49004V5.81704C4.09077 5.30422 4.19177 4.79643 4.38799 4.32266C4.58422 3.84888 4.87183 3.4184 5.23441 3.05578C5.59698 2.69317 6.02742 2.40553 6.50115 2.20929C6.97488 2.01304 7.48262 1.91203 7.99538 1.91203C8.50814 1.91203 9.01588 2.01304 9.48961 2.20929C9.96334 2.40553 10.3938 2.69317 10.7564 3.05578C11.1189 3.4184 11.4066 3.84888 11.6028 4.32266C11.799 4.79643 11.9 5.30422 11.9 5.81704V9.48804C11.9006 9.67064 11.9645 9.84738 12.081 9.98804L14.1488 12.453L14.0908 12.568Z"></path><path d="M15.2327 11.506L13.3279 9.23404V5.81704C13.3366 4.39382 12.7806 3.02523 11.7816 2.01156C10.7827 0.997892 9.42244 0.421925 7.99938 0.410034C6.5765 0.422188 5.21654 0.998271 4.2178 2.01191C3.21907 3.02556 2.66312 4.39399 2.67191 5.81704V9.23404L0.767103 11.505C0.578314 11.728 0.457357 12.0004 0.418549 12.29C0.379741 12.5796 0.424707 12.8742 0.548124 13.139C0.664092 13.4035 0.854941 13.6282 1.09713 13.7855C1.33931 13.9428 1.62223 14.0257 1.91099 14.024H5.69061C5.87469 14.4862 6.19316 14.8824 6.60484 15.1616C7.01652 15.4408 7.50248 15.59 7.99988 15.59C8.49728 15.59 8.98324 15.4408 9.39493 15.1616C9.80661 14.8824 10.1251 14.4862 10.3092 14.024H14.0908C14.3791 14.0248 14.6614 13.9415 14.903 13.7843C15.1447 13.6271 15.3354 13.4029 15.4516 13.139C15.5752 12.8744 15.6203 12.5799 15.5815 12.2904C15.5426 12.001 15.4216 11.7287 15.2327 11.506ZM14.0908 12.568H1.91099L1.84999 12.455L3.91079 9.99004C4.02701 9.84932 4.09064 9.67255 4.09077 9.49004V5.81704C4.09077 5.30422 4.19177 4.79643 4.38799 4.32266C4.58422 3.84888 4.87183 3.4184 5.23441 3.05578C5.59698 2.69317 6.02742 2.40553 6.50115 2.20929C6.97488 2.01304 7.48262 1.91203 7.99538 1.91203C8.50814 1.91203 9.01588 2.01304 9.48961 2.20929C9.96334 2.40553 10.3938 2.69317 10.7564 3.05578C11.1189 3.4184 11.4066 3.84888 11.6028 4.32266C11.799 4.79643 11.9 5.30422 11.9 5.81704V9.48804C11.9006 9.67064 11.9645 9.84738 12.081 9.98804L14.1488 12.453L14.0908 12.568Z"></path><path d="M15.2327 11.506L13.3279 9.23404V5.81704C13.3366 4.39382 12.7806 3.02523 11.7816 2.01156C10.7827 0.997892 9.42244 0.421925 7.99938 0.410034C6.5765 0.422188 5.21654 0.998271 4.2178 2.01191C3.21907 3.02556 2.66312 4.39399 2.67191 5.81704V9.23404L0.767103 11.505C0.578314 11.728 0.457357 12.0004 0.418549 12.29C0.379741 12.5796 0.424707 12.8742 0.548124 13.139C0.664092 13.4035 0.854941 13.6282 1.09713 13.7855C1.33931 13.9428 1.62223 14.0257 1.91099 14.024H5.69061C5.87469 14.4862 6.19316 14.8824 6.60484 15.1616C7.01652 15.4408 7.50248 15.59 7.99988 15.59C8.49728 15.59 8.98324 15.4408 9.39493 15.1616C9.80661 14.8824 10.1251 14.4862 10.3092 14.024H14.0908C14.3791 14.0248 14.6614 13.9415 14.903 13.7843C15.1447 13.6271 15.3354 13.4029 15.4516 13.139C15.5752 12.8744 15.6203 12.5799 15.5815 12.2904C15.5426 12.001 15.4216 11.7287 15.2327 11.506ZM14.0908 12.568H1.91099L1.84999 12.455L3.91079 9.99004C4.02701 9.84932 4.09064 9.67255 4.09077 9.49004V5.81704C4.09077 5.30422 4.19177 4.79643 4.38799 4.32266C4.58422 3.84888 4.87183 3.4184 5.23441 3.05578C5.59698 2.69317 6.02742 2.40553 6.50115 2.20929C6.97488 2.01304 7.48262 1.91203 7.99538 1.91203C8.50814 1.91203 9.01588 2.01304 9.48961 2.20929C9.96334 2.40553 10.3938 2.69317 10.7564 3.05578C11.1189 3.4184 11.4066 3.84888 11.6028 4.32266C11.799 4.79643 11.9 5.30422 11.9 5.81704V9.48804C11.9006 9.67064 11.9645 9.84738 12.081 9.98804L14.1488 12.453L14.0908 12.568Z"></path>
</symbol>

<symbol id="notification" viewBox="0 0 16 16">
  <path d="M15.2327 11.506L13.3279 9.23404V5.81704C13.3366 4.39382 12.7806 3.02523 11.7816 2.01156C10.7827 0.997892 9.42244 0.421925 7.99938 0.410034C6.5765 0.422188 5.21654 0.998271 4.2178 2.01191C3.21907 3.02556 2.66312 4.39399 2.67191 5.81704V9.23404L0.767103 11.505C0.578314 11.728 0.457357 12.0004 0.418549 12.29C0.379741 12.5796 0.424707 12.8742 0.548124 13.139C0.664092 13.4035 0.854941 13.6282 1.09713 13.7855C1.33931 13.9428 1.62223 14.0257 1.91099 14.024H5.69061C5.87469 14.4862 6.19316 14.8824 6.60484 15.1616C7.01652 15.4408 7.50248 15.59 7.99988 15.59C8.49728 15.59 8.98324 15.4408 9.39493 15.1616C9.80661 14.8824 10.1251 14.4862 10.3092 14.024H14.0908C14.3791 14.0248 14.6614 13.9415 14.903 13.7843C15.1447 13.6271 15.3354 13.4029 15.4516 13.139C15.5752 12.8744 15.6203 12.5799 15.5815 12.2904C15.5426 12.001 15.4216 11.7287 15.2327 11.506Z"></path>
</symbol>

<symbol id="person-remove-o" viewBox="0 0 16 16">
  <path d="M3.39084 15.6799C2.86584 15.6786 2.36283 15.4689 1.99234 15.097C1.62186 14.725 1.4142 14.2212 1.415 13.6962V10.5886C1.41719 10.1064 1.56461 9.6361 1.83804 9.23892C2.11147 8.84173 2.49822 8.53612 2.94788 8.36194L5.3307 7.45306L5.01872 7.24109C4.34659 6.78822 3.83764 6.13151 3.56683 5.36765C3.29601 4.6038 3.27764 3.77318 3.51442 2.99811C3.75119 2.22303 4.23061 1.54446 4.88206 1.06232C5.53352 0.580177 6.32258 0.319946 7.13306 0.319946C7.94354 0.319946 8.7326 0.580177 9.38406 1.06232C10.0355 1.54446 10.5149 2.22303 10.7517 2.99811C10.9885 3.77318 10.9701 4.6038 10.6993 5.36765C10.4285 6.13151 9.91953 6.78822 9.2474 7.24109L8.93442 7.45306L11.4512 8.41193C11.5846 8.46214 11.6961 8.55761 11.7662 8.68165C11.8364 8.80569 11.8607 8.95043 11.835 9.09059C11.8093 9.23074 11.7351 9.35741 11.6255 9.44847C11.5159 9.53952 11.3778 9.58918 11.2352 9.58877C11.1625 9.5888 11.0903 9.57558 11.0223 9.54978L7.13356 8.06698L3.37585 9.49878C3.15539 9.58369 2.96569 9.73314 2.83154 9.92758C2.69738 10.122 2.62502 10.3524 2.6239 10.5886V13.6932C2.6239 13.8968 2.70464 14.0921 2.84841 14.2362C2.99219 14.3803 3.18726 14.4616 3.39084 14.4621H9.00742C9.16426 14.4685 9.31256 14.5353 9.42128 14.6485C9.53001 14.7617 9.59072 14.9126 9.59072 15.0695C9.59072 15.2265 9.53001 15.3774 9.42128 15.4906C9.31256 15.6038 9.16426 15.6706 9.00742 15.6769L3.39084 15.6799ZM7.13356 1.51386C6.62279 1.51228 6.12303 1.66229 5.69757 1.94489C5.27211 2.22749 4.94007 2.62998 4.74351 3.10139C4.54695 3.5728 4.4947 4.09193 4.59338 4.59305C4.69205 5.09418 4.93722 5.55475 5.29783 5.91646C5.65844 6.27817 6.11828 6.52475 6.61912 6.62498C7.11997 6.7252 7.63929 6.67457 8.11134 6.47948C8.58338 6.28439 8.98692 5.95363 9.27086 5.52908C9.5548 5.10452 9.70636 4.60526 9.70636 4.09451C9.70663 3.41139 9.43591 2.75604 8.95359 2.27225C8.47126 1.78846 7.81673 1.51572 7.13356 1.51386Z"></path><path d="M10.0973 12.6294C9.95148 12.6294 9.81159 12.5714 9.70846 12.4683C9.60532 12.3652 9.54738 12.2253 9.54738 12.0794C9.54738 11.9336 9.60532 11.7937 9.70846 11.6906C9.81159 11.5874 9.95148 11.5295 10.0973 11.5295H14.035C14.1809 11.5295 14.3208 11.5874 14.4239 11.6906C14.5271 11.7937 14.585 11.9336 14.585 12.0794C14.585 12.2253 14.5271 12.3652 14.4239 12.4683C14.3208 12.5714 14.1809 12.6294 14.035 12.6294H10.0973Z"></path>
</symbol>

<symbol id="promote" viewBox="0 0 16 16">
  <path fill-rule="evenodd" clip-rule="evenodd" d="M12.3853 9.97346L10.3067 6.12577C10.7967 5.67191 11.1426 5.08422 11.3015 4.43562C11.4603 3.78702 11.4252 3.10606 11.2004 2.47724C10.9756 1.84843 10.571 1.29944 10.0369 0.898394C9.50278 0.497351 8.86261 0.261908 8.19583 0.221283C7.52905 0.180658 6.86501 0.336638 6.28612 0.669868C5.70722 1.0031 5.23895 1.49891 4.93941 2.09578C4.63988 2.69265 4.52226 3.3643 4.60115 4.02738C4.68004 4.69047 4.95198 5.31581 5.38321 5.8258L3.15553 10.0165C2.46368 10.1289 1.83593 10.4879 1.38836 11.0271C0.940798 11.5663 0.703688 12.2493 0.720874 12.9498C0.738061 13.6502 1.00838 14.3208 1.48185 14.8374C1.95533 15.3541 2.59993 15.6819 3.29646 15.7602C3.993 15.8386 4.69437 15.6622 5.27087 15.2637C5.84738 14.8651 6.26004 14.2714 6.43254 13.5923C6.60504 12.9132 6.52573 12.1946 6.20926 11.5694C5.89279 10.9442 5.36057 10.4547 4.71101 10.1914L6.55256 6.72572C7.30445 7.09204 8.1695 7.15122 8.9643 6.89071L10.8579 10.3994C10.2591 10.765 9.81284 11.3347 9.60139 12.0035C9.38993 12.6722 9.42758 13.3948 9.70737 14.038C9.98717 14.6811 10.4902 15.2014 11.1237 15.5029C11.7572 15.8043 12.4784 15.8665 13.1542 15.6781C13.83 15.4896 14.4149 15.0632 14.8008 14.4775C15.1867 13.8917 15.3476 13.1863 15.254 12.4912C15.1603 11.7961 14.8183 11.1584 14.291 10.6957C13.7638 10.2329 13.0869 9.97641 12.3853 9.97346ZM5.3562 12.8902C5.3562 13.2368 5.25339 13.5755 5.06078 13.8636C4.86816 14.1517 4.59439 14.3763 4.2741 14.5088C3.95381 14.6414 3.60138 14.676 3.2614 14.6083C2.92141 14.5407 2.60914 14.3737 2.36409 14.1286C2.11903 13.8835 1.9522 13.5713 1.88469 13.2314C1.81718 12.8915 1.85203 12.5392 1.98483 12.2191C2.11763 11.899 2.34241 11.6255 2.63074 11.4331C2.91908 11.2407 3.25801 11.1382 3.60467 11.1384C3.83477 11.1384 4.06261 11.1837 4.27518 11.2717C4.48775 11.3598 4.68089 11.4888 4.84354 11.6515C5.0062 11.8142 5.1352 12.0074 5.22316 12.2199C5.31112 12.4324 5.35633 12.6602 5.3562 12.8902ZM12.3633 14.6531C12.0143 14.6531 11.6731 14.5496 11.3829 14.3557C11.0927 14.1619 10.8665 13.8864 10.733 13.564C10.5995 13.2416 10.5646 12.8869 10.6328 12.5447C10.7009 12.2026 10.8691 11.8883 11.116 11.6416C11.3628 11.395 11.6773 11.2271 12.0197 11.1591C12.362 11.0912 12.7169 11.1263 13.0393 11.2599C13.3617 11.3936 13.6372 11.6198 13.831 11.91C14.0247 12.2002 14.1281 12.5413 14.1279 12.8902C14.1279 13.1218 14.0822 13.3511 13.9935 13.5651C13.9048 13.779 13.7748 13.9734 13.611 14.1371C13.4471 14.3008 13.2526 14.4306 13.0385 14.5192C12.8244 14.6077 12.595 14.6532 12.3633 14.6531Z"></path>
</symbol>

<symbol id="unlock-o" viewBox="0 0 16 16">
  <path d="M12.9745 6.9995H12.9495V4.91398C12.9507 3.71021 12.5064 2.54795 11.701 1.64814C10.8956 0.748319 9.78527 0.173674 8.58104 0.0334373C7.37682 -0.1068 6.16267 0.197148 5.16939 0.887503C4.17612 1.57786 3.47297 2.60649 3.1936 3.77787L4.8941 4.17511C5.07464 3.41852 5.52887 2.75416 6.17047 2.30829C6.81206 1.86242 7.5963 1.66612 8.37412 1.75671C9.15194 1.84729 9.86914 2.21844 10.3894 2.79962C10.9096 3.3808 11.1967 4.13149 11.196 4.90901V6.99453H3.03555C2.79785 6.99479 2.56253 7.0416 2.34307 7.13227C2.1236 7.22294 1.92431 7.3557 1.7566 7.52295C1.58889 7.69019 1.45605 7.88863 1.36569 8.10692C1.27534 8.3252 1.22923 8.55903 1.23002 8.79503V14.2074C1.23055 14.6818 1.42025 15.1367 1.75766 15.4726C2.09507 15.8086 2.55272 15.9982 3.03055 16H12.9695C13.4474 15.9984 13.9052 15.8089 14.2427 15.4729C14.5801 15.137 14.7697 14.6819 14.77 14.2074V8.79503C14.7705 8.32089 14.582 7.86584 14.2455 7.52936C13.909 7.19289 13.452 7.00238 12.9745 6.9995V6.9995ZM13.0295 14.2074C13.0295 14.2219 13.0237 14.2358 13.0134 14.2461C13.0031 14.2563 12.9891 14.2621 12.9745 14.2621L2.98054 14.2074L3.03555 8.73743L13.0295 8.79205V14.2074Z"></path>
</symbol>
    </svg>