<svg xmlns="http://www.w3.org/2000/svg" xmlns:xlink="http://www.w3.org/1999/xlink">
    
<symbol id="cards" viewBox="0 0 16 16">
  <title>cards</title><g id="Layer_1" data-name="Layer 1"><g id="Layer_27" data-name="Layer 27"><rect x="9.318" y="0.256" width="6.453" height="6.453"/><rect x="0.318" y="0.256" width="6.453" height="6.453"/><rect x="0.318" y="9.256" width="6.453" height="6.453"/><rect x="9.318" y="9.256" width="6.453" height="6.453"/></g></g>
</symbol>

<symbol id="dots-outline" viewBox="0 0 16 16">
  <title>dots-outline</title><g id="Layer_1" data-name="Layer 1"><path d="M8.032,2.044A5.956,5.956,0,1,1,2.108,8,5.947,5.947,0,0,1,8.032,2.044m0-1.585A7.541,7.541,0,1,0,15.532,8,7.521,7.521,0,0,0,8.032.459Z"/><path d="M4.82,7A1.079,1.079,0,1,1,3.74,8.079,1.079,1.079,0,0,1,4.82,7Z" fill-rule="evenodd"/><path d="M8.032,7A1.079,1.079,0,1,1,6.953,8.079,1.079,1.079,0,0,1,8.032,7Z" fill-rule="evenodd"/><path d="M11.245,7a1.079,1.079,0,1,1-1.08,1.079A1.079,1.079,0,0,1,11.245,7Z" fill-rule="evenodd"/></g>
</symbol>

<symbol id="external-link" viewBox="0 0 16 16">
  <title>external-link</title><g id="Layer_1" data-name="Layer 1"><path d="M12.433,7.738v6.108H2.222V3.378h5.87c.173,0,.041-.226.041-.226L6.355,1.373H1.9A1.684,1.684,0,0,0,.218,3.057V14.166A1.684,1.684,0,0,0,1.9,15.85H12.754a1.684,1.684,0,0,0,1.684-1.684V9.456L12.611,7.63S12.433,7.581,12.433,7.738Z"/><path d="M15.136.15H9.26a.5.5,0,0,0-.356.858l2.037,2.037L6,7.984A1.226,1.226,0,0,0,7.736,9.717l4.938-4.94,2.25,2.25a.5.5,0,0,0,.858-.355V.8A.646.646,0,0,0,15.136.15Z"/></g>
</symbol>

<symbol id="eye-crossed-out" viewBox="0 0 16 16">
  <title>eye-crossed-out</title><g id="Layer_1" data-name="Layer 1"><path d="M15.82,7.86a9.676,9.676,0,0,0-1.44-2.35L13.14,6.75a7.865,7.865,0,0,1,.91,1.44c-.51,1.02-2.33,4.05-5.95,4.05a3.024,3.024,0,0,1-.43-.02L6.14,13.75a8.093,8.093,0,0,0,1.96.24c5.47,0,7.63-5.26,7.72-5.48A.91.91,0,0,0,15.82,7.86Z"/><path d="M11.06,8.83,8.64,11.25A3.158,3.158,0,0,0,11.06,8.83Z"/><path d="M14.737,2.5A.875.875,0,0,0,13.5,1.263L11.57,3.192A7.572,7.572,0,0,0,8.1,2.38C2.65,2.38.29,7.61.19,7.83a.878.878,0,0,0,0,.71,10.768,10.768,0,0,0,2.6,3.428L1.235,13.526a.876.876,0,0,0,1.239,1.239Zm-8.1,5.624a1.37,1.37,0,0,1,1.31-1.31ZM1.97,8.19C2.54,7.13,4.48,4.13,8.1,4.13a5.982,5.982,0,0,1,2.143.388l-.87.87A3.077,3.077,0,0,0,8,5.06,3.126,3.126,0,0,0,4.88,8.19,3.087,3.087,0,0,0,5.2,9.559L4.04,10.722A9,9,0,0,1,1.97,8.19Z"/></g>
</symbol>

<symbol id="eye" viewBox="0 0 16 16">
  <title>eye</title><g id="Layer_1" data-name="Layer 1"><path d="M15.789,7.86c-.09-.223-2.256-5.479-7.724-5.479C2.619,2.381.256,7.61.158,7.833a.882.882,0,0,0,0,.705c.1.223,2.461,5.451,7.907,5.451,5.468,0,7.634-5.255,7.724-5.478A.882.882,0,0,0,15.789,7.86ZM8.065,12.239c-3.615,0-5.557-3-6.127-4.053.57-1.054,2.512-4.055,6.127-4.055s5.442,3.033,5.95,4.055C13.506,9.209,11.691,12.239,8.065,12.239Z"/><path d="M7.968,5.062A3.123,3.123,0,1,0,11.09,8.186,3.127,3.127,0,0,0,7.968,5.062Zm0,4.5A1.373,1.373,0,1,1,9.34,8.186,1.374,1.374,0,0,1,7.968,9.558Z"/></g>
</symbol>

<symbol id="file-image" viewBox="0 0 16 16">
  <title>file-image</title><g id="Layer_1" data-name="Layer 1"><g id="Layer_5" data-name="Layer 5"><path d="M9.845.041H2.35a.8.8,0,0,0-.805.8V15.238a.8.8,0,0,0,.805.8h11.3a.8.8,0,0,0,.8-.8V4.191ZM12.409,4.2,9.957,4.2h0a.118.118,0,0,1-.118-.119l0-2.194Zm.7,10.5H2.9V1.391h5.6L8.488,4.082A1.468,1.468,0,0,0,9.96,5.553l3.145-.009Z"/><path d="M4.2,12.679h7.682V6.73H4.2Zm6.932-5.2v2.948l-.78-.911L9.192,10.876,6.89,8.19,4.954,10.448V7.48ZM4.954,11.6,6.89,9.342l2.217,2.587H4.954Zm4.322.328,1.08-1.259.78.91v.349Z"/><path d="M9.2,9.181a.433.433,0,1,0-.433-.433A.433.433,0,0,0,9.2,9.181Z"/></g></g>
</symbol>

<symbol id="file-pdf" viewBox="0 0 16 16">
  <title>file-pdf</title><g id="Layer_1" data-name="Layer 1"><g id="Layer_5" data-name="Layer 5"><path d="M9.845,0H2.35A.8.8,0,0,0,1.545.8V15.2A.8.8,0,0,0,2.35,16h11.3a.8.8,0,0,0,.8-.805V4.149Zm2.564,4.155-2.452.007h0a.118.118,0,0,1-.118-.118l0-2.2Zm.7,10.5H2.9V1.349h5.6L8.488,4.04A1.468,1.468,0,0,0,9.96,5.511L13.105,5.5Z"/><path d="M10.8,10.183a1.07,1.07,0,0,0-1.017-.458,4.057,4.057,0,0,0-.7.058A7.841,7.841,0,0,1,8.056,8.248C8.36,6.941,8.17,6.516,8,6.307a.757.757,0,0,0-.58-.275.991.991,0,0,0-.263.046.8.8,0,0,0-.519.487,2.4,2.4,0,0,0,.274,1.8,16.1,16.1,0,0,1-.842,2.364c-1,.474-1.5.943-1.563,1.473a.933.933,0,0,0,.41.872.707.707,0,0,0,.441.155,1.269,1.269,0,0,0,.967-.663,6.8,6.8,0,0,0,.565-.993A12.887,12.887,0,0,1,8.71,10.98a1.783,1.783,0,0,0,1.144.526.984.984,0,0,0,.814-.435A.8.8,0,0,0,10.8,10.183Zm-.736.451a.213.213,0,0,1-.206.113.949.949,0,0,1-.506-.244c.168-.019.318-.038.431-.038a.666.666,0,0,1,.337.057C10.1,10.559,10.1,10.6,10.06,10.634ZM5.243,12.3c.018-.131.224-.374.749-.674-.393.731-.6.824-.637.843C5.243,12.377,5.243,12.321,5.243,12.3ZM7.4,7.616a1.239,1.239,0,0,1-.075-.75c.019-.037.038-.056.056-.056H7.4A1.582,1.582,0,0,1,7.4,7.616Zm.131,1.275a9.72,9.72,0,0,0,.938,1.368,12.086,12.086,0,0,0-1.594.506A16.86,16.86,0,0,0,7.529,8.891Z"/></g></g>
</symbol>

<symbol id="file-song" viewBox="0 0 16 16">
  <title>file-song</title><g id="Layer_1" data-name="Layer 1"><g id="Layer_5" data-name="Layer 5"><path d="M9.845.041H2.35a.8.8,0,0,0-.805.8V15.238a.8.8,0,0,0,.805.8h11.3a.8.8,0,0,0,.8-.8V4.191ZM12.409,4.2,9.957,4.2h0a.118.118,0,0,1-.118-.119l0-2.194Zm.7,10.5H2.9V1.391h5.6L8.488,4.082A1.468,1.468,0,0,0,9.96,5.553l3.145-.009Z"/><path d="M10.571,7.254a.646.646,0,0,0-.644-.646l-2.954.723a.645.645,0,0,0-.489.625V10.61a1.277,1.277,0,0,0-.451-.091,1.3,1.3,0,1,0,1.3,1.3,1.135,1.135,0,0,0-.033-.162l.033.033V8.345l2.388-.607V9.8a1.278,1.278,0,0,0-.459-.093,1.3,1.3,0,1,0,1.3,1.3l.008,0ZM6.033,12.37a.551.551,0,1,1,.551-.551A.551.551,0,0,1,6.033,12.37Zm3.23-.812a.551.551,0,1,1,.551-.551A.551.551,0,0,1,9.263,11.558Z"/></g></g>
</symbol>

<symbol id="file-text" viewBox="0 0 16 16">
  <title>file-text</title><g id="Layer_1" data-name="Layer 1"><g id="Layer_5" data-name="Layer 5"><path d="M7.146,7.212v.515a.291.291,0,0,1-.294.295.3.3,0,0,1-.295-.258h-.35V9.255a.3.3,0,0,1,.258.295.29.29,0,0,1-.295.294H5.655A.29.29,0,0,1,5.36,9.55a.3.3,0,0,1,.258-.295V7.764H5.176a.28.28,0,0,1-.276.258.291.291,0,0,1-.295-.295V7.212A.291.291,0,0,1,4.9,6.917a.3.3,0,0,1,.295.258h1.38a.286.286,0,0,1,.571.037Z"/><path d="M10.819,8.348H8.249a.425.425,0,1,1,0-.849h2.57a.425.425,0,1,1,0,.849Z"/><path d="M10.819,9.827H8.249a.425.425,0,1,1,0-.85h2.57a.425.425,0,0,1,0,.85Z"/><path d="M10.819,11.306H4.976a.425.425,0,1,1,0-.849h5.843a.425.425,0,1,1,0,.849Z"/><path d="M10.819,12.785H4.976a.425.425,0,0,1,0-.85h5.843a.425.425,0,1,1,0,.85Z"/><path d="M9.845,0H2.35A.8.8,0,0,0,1.545.8V15.2A.8.8,0,0,0,2.35,16h11.3a.8.8,0,0,0,.8-.805V4.149Zm2.564,4.155-2.452.007h0a.118.118,0,0,1-.118-.118l0-2.2Zm.7,10.5H2.9V1.349h5.6L8.488,4.04A1.468,1.468,0,0,0,9.96,5.511L13.105,5.5Z"/></g></g>
</symbol>

<symbol id="file-video" viewBox="0 0 16 16">
  <title>file-video</title><g id="Layer_1" data-name="Layer 1"><g id="Layer_5" data-name="Layer 5"><path d="M9.845,0H2.35a.8.8,0,0,0-.805.805V15.2a.805.805,0,0,0,.805.8h11.3a.805.805,0,0,0,.8-.8V4.15Zm2.564,4.155-2.452.007h0a.118.118,0,0,1-.118-.119l0-2.194Zm.7,10.5H2.9V1.35h5.6L8.488,4.041A1.468,1.468,0,0,0,9.96,5.512L13.105,5.5Z"/><path d="M7.778,13.147A3.483,3.483,0,1,1,11.26,9.664,3.491,3.491,0,0,1,7.778,13.147Zm0-6.18a2.7,2.7,0,1,0,2.7,2.7A2.689,2.689,0,0,0,7.778,6.967Z"/><path d="M9.267,9.431,7.055,7.906a.284.284,0,0,0-.445.234v3.047a.284.284,0,0,0,.445.234L9.267,9.9A.283.283,0,0,0,9.267,9.431ZM7.26,10.491V8.837l1.2.827Z"/></g></g>
</symbol>

<symbol id="hang-tag" viewBox="0 0 16 16">
  <title>hang-tag</title><g id="Layer_1" data-name="Layer 1"><g id="Layer_5" data-name="Layer 5"><path d="M7.543,15.93a1.292,1.292,0,0,1-.917-.379L.4,9.327a1.3,1.3,0,0,1,0-1.833L7.446.45a1.309,1.309,0,0,1,1.1-.367l5.39.849a1.294,1.294,0,0,1,1.091,1.1L15.87,7.4A1.3,1.3,0,0,1,15.508,8.5L8.46,15.551A1.292,1.292,0,0,1,7.543,15.93Zm.144-1.44h0ZM1.606,8.411l5.937,5.936L14.371,7.52l-.809-5.128L8.434,1.583Zm12.1-6,.009,0Zm-.165-.159v0Z"/><path d="M10.643,7.05a1.872,1.872,0,0,1-1.325-3.2,1.918,1.918,0,0,1,2.649,0,1.876,1.876,0,0,1,0,2.648h0A1.864,1.864,0,0,1,10.643,7.05ZM11.5,6.033h0Zm-.854-1.4a.537.537,0,0,0-.385.159.544.544,0,1,0,.769.77h0a.546.546,0,0,0,0-.77A.537.537,0,0,0,10.643,4.634Z"/></g></g>
</symbol>

<symbol id="lock-o" viewBox="0 0 16 16">
  <title>lock-o</title><g id="Layer_1" data-name="Layer 1"><path d="M12.937,6.983h-.026V5.923a4.943,4.943,0,0,0-9.886,0v1.06H3A1.807,1.807,0,0,0,1.2,8.788v5.453A1.807,1.807,0,0,0,3,16.046h9.937a1.807,1.807,0,0,0,1.805-1.8V8.788A1.807,1.807,0,0,0,12.937,6.983ZM4.775,5.923a3.193,3.193,0,0,1,6.386,0v1.06H4.775Zm8.217,8.318a.055.055,0,0,1-.055.055l-9.992-.055L3,8.733l9.992.055Z"/></g>
</symbol>

<symbol id="note-o" viewBox="0 0 16 16">
  <title>note-o</title><g id="Layer_1" data-name="Layer 1"><g id="Layer_6" data-name="Layer 6"><rect x="4.253" y="7.738" width="5.544" height="1.056"/><rect x="4.253" y="5.546" width="7.673" height="1.056"/><rect x="4.253" y="3.451" width="7.673" height="1.056"/><path d="M14.946,11.083a.822.822,0,0,1-.192.923l-3.776,3.633a.885.885,0,0,1-.621.249.866.866,0,0,1-.884-.845v-3.4a1.106,1.106,0,0,1,1.132-1.075h3.534A.872.872,0,0,1,14.946,11.083ZM10.889,13.8l1.942-1.867"/><path d="M13.9.2H2.284a1.081,1.081,0,0,0-1.11,1.046v13.6a1.081,1.081,0,0,0,1.11,1.047h8v-1.34H2.594V1.535h11v9.913h1.42V1.242A1.08,1.08,0,0,0,13.9.2Z"/></g></g>
</symbol>

<symbol id="notification-o" viewBox="0 0 16 16">
  <title>notification-o</title><g id="Layer_1" data-name="Layer 1"><g id="Layer_9" data-name="Layer 9"><path d="M15.323,11.506,13.418,9.234V5.817A5.374,5.374,0,0,0,8.089.41,5.374,5.374,0,0,0,2.761,5.817V9.234L.856,11.505a1.529,1.529,0,0,0-.219,1.634A1.479,1.479,0,0,0,2,14.024H5.78a2.486,2.486,0,0,0,4.619,0h3.782a1.483,1.483,0,0,0,1.361-.885A1.526,1.526,0,0,0,15.323,11.506Zm-1.142,1.062H2l-.061-.113L4,9.99a.786.786,0,0,0,.18-.5V5.817a3.905,3.905,0,1,1,7.81,0V9.488a.788.788,0,0,0,.181.5l2.068,2.465Z"/></g><g id="Layer_6" data-name="Layer 6"><path d="M15.323,11.506,13.418,9.234V5.817A5.374,5.374,0,0,0,8.089.41,5.374,5.374,0,0,0,2.761,5.817V9.234L.856,11.505a1.529,1.529,0,0,0-.219,1.634A1.479,1.479,0,0,0,2,14.024H5.78a2.486,2.486,0,0,0,4.619,0h3.782a1.483,1.483,0,0,0,1.361-.885A1.526,1.526,0,0,0,15.323,11.506Zm-1.142,1.062H2l-.061-.113L4,9.99a.786.786,0,0,0,.18-.5V5.817a3.905,3.905,0,1,1,7.81,0V9.488a.788.788,0,0,0,.181.5l2.068,2.465Z"/></g><g id="Layer_5" data-name="Layer 5"><path d="M15.323,11.506,13.418,9.234V5.817A5.374,5.374,0,0,0,8.089.41,5.374,5.374,0,0,0,2.761,5.817V9.234L.856,11.505a1.529,1.529,0,0,0-.219,1.634A1.479,1.479,0,0,0,2,14.024H5.78a2.486,2.486,0,0,0,4.619,0h3.782a1.483,1.483,0,0,0,1.361-.885A1.526,1.526,0,0,0,15.323,11.506Zm-1.142,1.062H2l-.061-.113L4,9.99a.786.786,0,0,0,.18-.5V5.817a3.905,3.905,0,1,1,7.81,0V9.488a.788.788,0,0,0,.181.5l2.068,2.465Z"/></g></g>
</symbol>

<symbol id="notification" viewBox="0 0 16 16">
  <title>notification</title><g id="Layer_1" data-name="Layer 1"><g id="Layer_9" data-name="Layer 9"><path d="M15.323,11.506,13.418,9.234V5.817A5.374,5.374,0,0,0,8.089.41,5.374,5.374,0,0,0,2.761,5.817V9.234L.856,11.505a1.529,1.529,0,0,0-.219,1.634A1.479,1.479,0,0,0,2,14.024H5.78a2.486,2.486,0,0,0,4.619,0h3.782a1.483,1.483,0,0,0,1.361-.885A1.526,1.526,0,0,0,15.323,11.506Z"/></g></g>
</symbol>

<symbol id="person-o" viewBox="0 0 16 16">
  <title>person-o</title><g id="Layer_1" data-name="Layer 1"><g id="Layer_30" data-name="Layer 30"><path d="M12.593,9.448,10.05,8.267A4.3,4.3,0,0,0,12.176,4.54,4.237,4.237,0,0,0,8,.256,4.238,4.238,0,0,0,3.818,4.54,4.3,4.3,0,0,0,5.945,8.267L3.4,9.448A2.146,2.146,0,0,0,2.177,11.4v3.52a.816.816,0,0,0,.805.827h10.03a.817.817,0,0,0,.806-.827V11.4A2.148,2.148,0,0,0,12.593,9.448ZM8,1.909A2.6,2.6,0,0,1,10.564,4.54a2.568,2.568,0,1,1-5.134,0A2.6,2.6,0,0,1,8,1.909Zm4.258,12.279H3.74V11.566a.486.486,0,0,1,.279-.443L8,9.3l3.979,1.826a.488.488,0,0,1,.279.443Z"/></g></g>
</symbol>

<symbol id="person-remove-o" viewBox="0 0 16 16">
  <title>person-remove-o</title><g id="Layer_1" data-name="Layer 1"><path d="M3.393,15.692a1.981,1.981,0,0,1-1.976-1.984V10.6A2.4,2.4,0,0,1,2.95,8.373l2.383-.909-.312-.212a3.784,3.784,0,1,1,4.229,0l-.313.212,2.517.959A.608.608,0,0,1,11.238,9.6h0a.6.6,0,0,1-.213-.039L7.136,8.078,3.378,9.51A1.174,1.174,0,0,0,2.626,10.6v3.105a.769.769,0,0,0,.767.769H9.01a.608.608,0,0,1,0,1.215ZM7.136,1.524A2.581,2.581,0,1,0,9.709,4.105,2.58,2.58,0,0,0,7.136,1.524Z"/><path d="M10.1,12.641a.55.55,0,0,1,0-1.1h3.938a.55.55,0,0,1,0,1.1Z"/></g>
</symbol>

<symbol id="phone" viewBox="0 0 16 16">
  <title>phone</title><g id="Layer_1" data-name="Layer 1"><path d="M1.89,5.805A26.793,26.793,0,0,0,8.98,14.42l1.081.86a1.755,1.755,0,0,0,2.216-.023h0l1.892-1.57.307-.255A1.3,1.3,0,0,0,14.65,11.6L13.2,9.835a1.293,1.293,0,0,0-1.825-.174L9.543,11.18A26.8,26.8,0,0,1,5.165,5.859L7,4.34a1.3,1.3,0,0,0,.174-1.832L5.717.744A1.293,1.293,0,0,0,3.892.569L3.585.825,1.693,2.4h0a1.774,1.774,0,0,0-.44,2.182Z"/></g>
</symbol>

<symbol id="promote" viewBox="0 0 16 16">
  <title>promote</title><g id="Layer_1" data-name="Layer 1"><g id="Layer_5" data-name="Layer 5"><path d="M12.4,9.948,10.322,6.1A3.41,3.41,0,1,0,5.4,5.8L3.173,9.991a2.9,2.9,0,1,0,1.555.175L6.569,6.7a3.216,3.216,0,0,0,2.411.165l1.893,3.509A2.906,2.906,0,1,0,12.4,9.948ZM5.373,12.865a1.752,1.752,0,1,1-1.751-1.751A1.751,1.751,0,0,1,5.373,12.865Zm7.005,1.763a1.764,1.764,0,1,1,1.764-1.763A1.763,1.763,0,0,1,12.378,14.628Z" fill-rule="evenodd"/></g></g>
</symbol>

<symbol id="unlock-o" viewBox="0 0 16 16">
  <title>unlock-o</title><g id="Layer_1" data-name="Layer 1"><path d="M13.063,7.092h-.025v-2.1A4.943,4.943,0,0,0,3.285,3.848l1.7.4a3.193,3.193,0,0,1,6.3.739v2.1H3.127A1.807,1.807,0,0,0,1.322,8.9V14.35a1.807,1.807,0,0,0,1.8,1.805h9.936a1.806,1.806,0,0,0,1.8-1.805V8.9A1.806,1.806,0,0,0,13.063,7.092Zm.055,7.258a.055.055,0,0,1-.055.055L3.072,14.35l.055-5.508,9.991.055Z"/></g>
</symbol>
    </svg>