<svg xmlns="http://www.w3.org/2000/svg" xmlns:xlink="http://www.w3.org/1999/xlink">
    
<symbol id="cards" viewBox="0 0 16 16">
  <title>cards</title><g id="Layer_1" data-name="Layer 1"><g id="Layer_27" data-name="Layer 27"><rect x="9.32" y="0.26" width="6.45" height="6.45"></rect><rect x="0.32" y="0.26" width="6.45" height="6.45"></rect><rect x="0.32" y="9.26" width="6.45" height="6.45"></rect><rect x="9.32" y="9.26" width="6.45" height="6.45"></rect></g></g>
</symbol>

<symbol id="dots-outline" viewBox="0 0 16 16">
  <title>dots-outline</title><g id="Layer_1" data-name="Layer 1"><path d="M8,2A6,6,0,1,1,2.11,8,6,6,0,0,1,8,2M8,.46A7.54,7.54,0,1,0,15.53,8,7.52,7.52,0,0,0,8,.46Z"></path><path d="M4.82,7A1.08,1.08,0,1,1,3.74,8.08,1.08,1.08,0,0,1,4.82,7Z" fill-rule="evenodd"></path><path d="M8,7A1.08,1.08,0,1,1,7,8.08,1.08,1.08,0,0,1,8,7Z" fill-rule="evenodd"></path><path d="M11.24,7a1.08,1.08,0,1,1-1.07,1.08A1.08,1.08,0,0,1,11.24,7Z" fill-rule="evenodd"></path></g>
</symbol>

<symbol id="external-link" viewBox="0 0 16 16">
  <title>external-link</title><g id="Layer_1" data-name="Layer 1"><path d="M12.43,7.74v6.11H2.22V3.38H8.09c.18,0,0-.23,0-.23L6.35,1.37H1.9A1.69,1.69,0,0,0,.22,3.06V14.17A1.68,1.68,0,0,0,1.9,15.85H12.75a1.69,1.69,0,0,0,1.69-1.68V9.46L12.61,7.63S12.43,7.58,12.43,7.74Z"></path><path d="M15.14.15H9.26A.51.51,0,0,0,8.9,1l2,2L6,8A1.25,1.25,0,0,0,6,9.72a1.23,1.23,0,0,0,1.74,0l4.93-4.94L14.92,7a.51.51,0,0,0,.86-.36V.8A.65.65,0,0,0,15.14.15Z"></path></g>
</symbol>

<symbol id="eye-crossed-out" viewBox="0 0 16 16">
  <title>eye-crossed-out</title><g id="Layer_1" data-name="Layer 1"><path d="M15.82,7.86a9.68,9.68,0,0,0-1.44-2.35L13.14,6.75a7.86,7.86,0,0,1,.91,1.44c-.51,1-2.33,4.05-6,4.05a3,3,0,0,1-.43,0L6.14,13.75a8.09,8.09,0,0,0,2,.24c5.47,0,7.63-5.26,7.72-5.48A.91.91,0,0,0,15.82,7.86Z"></path><path d="M11.06,8.83,8.64,11.25A3.16,3.16,0,0,0,11.06,8.83Z"></path><path d="M14.74,2.5A.88.88,0,1,0,13.5,1.26L11.57,3.19A7.56,7.56,0,0,0,8.1,2.38C2.65,2.38.29,7.61.19,7.83a.88.88,0,0,0,0,.71A10.75,10.75,0,0,0,2.79,12L1.24,13.53a.85.85,0,0,0,0,1.23.83.83,0,0,0,.61.26.83.83,0,0,0,.62-.26ZM6.64,8.13A1.35,1.35,0,0,1,8,6.82ZM2,8.19C2.54,7.13,4.48,4.13,8.1,4.13a6,6,0,0,1,2.14.39l-.87.87A3,3,0,0,0,8,5.06,3.13,3.13,0,0,0,4.88,8.19,3.17,3.17,0,0,0,5.2,9.56L4,10.72A8.93,8.93,0,0,1,2,8.19Z"></path></g>
</symbol>

<symbol id="eye" viewBox="0 0 16 16">
  <title>eye</title><g id="Layer_1" data-name="Layer 1"><path d="M15.79,7.86c-.09-.22-2.26-5.48-7.72-5.48S.26,7.61.16,7.83a.88.88,0,0,0,0,.71C.26,8.76,2.62,14,8.07,14s7.63-5.26,7.72-5.48A.91.91,0,0,0,15.79,7.86ZM8.07,12.24c-3.62,0-5.56-3-6.13-4.05.57-1.06,2.51-4.06,6.13-4.06s5.44,3,5.94,4.06C13.51,9.21,11.69,12.24,8.07,12.24Z"></path><path d="M8,5.06a3.13,3.13,0,1,0,3.12,3.13A3.13,3.13,0,0,0,8,5.06Zm0,4.5A1.38,1.38,0,1,1,9.34,8.19,1.37,1.37,0,0,1,8,9.56Z"></path></g>
</symbol>

<symbol id="file-image" viewBox="0 0 16 16">
  <title>file-image</title><g id="Layer_1" data-name="Layer 1"><g id="Layer_5" data-name="Layer 5"><path d="M9.84,0H2.35a.8.8,0,0,0-.8.81V15.24a.8.8,0,0,0,.8.8h11.3a.8.8,0,0,0,.8-.8v-11ZM12.41,4.2H10a.12.12,0,0,1-.12-.12V1.89Zm.69,10.49H2.9V1.39H8.49V4.08a1.46,1.46,0,0,0,.43,1,1.43,1.43,0,0,0,1,.43H13.1Z"></path><path d="M4.2,12.68h7.69V6.73H4.2Zm6.94-5.2v2.95l-.78-.91L9.19,10.88,6.89,8.19,5,10.45v-3ZM5,11.6,6.89,9.34l2.22,2.59H5Zm4.33.33,1.08-1.26.78.91v.35Z"></path><path d="M9.2,9.18a.43.43,0,0,0,.43-.43.43.43,0,1,0-.86,0A.43.43,0,0,0,9.2,9.18Z"></path></g></g>
</symbol>

<symbol id="file-pdf" viewBox="0 0 16 16">
  <title>file-pdf</title><g id="Layer_1" data-name="Layer 1"><g id="Layer_5" data-name="Layer 5"><path d="M9.84,0H2.35a.8.8,0,0,0-.8.8V15.2a.8.8,0,0,0,.8.8h11.3a.8.8,0,0,0,.8-.8v-11Zm2.57,4.15H10A.12.12,0,0,1,9.84,4V1.85Zm.69,10.5H2.9V1.35H8.49V4a1.46,1.46,0,0,0,.43,1,1.43,1.43,0,0,0,1,.43H13.1Z"></path><path d="M10.8,10.18a1.08,1.08,0,0,0-1-.46,4,4,0,0,0-.7.06,7.84,7.84,0,0,1-1-1.53c.3-1.31.11-1.73-.06-1.94A.75.75,0,0,0,7.42,6a1,1,0,0,0-.27,0,.76.76,0,0,0-.51.49,2.38,2.38,0,0,0,.27,1.8,16,16,0,0,1-.84,2.36c-1,.47-1.5.94-1.57,1.47a.94.94,0,0,0,.41.87.74.74,0,0,0,.44.16,1.27,1.27,0,0,0,1-.66,6.93,6.93,0,0,0,.57-1A12.88,12.88,0,0,1,8.71,11a1.82,1.82,0,0,0,1.14.53,1,1,0,0,0,.82-.44A.81.81,0,0,0,10.8,10.18Zm-.74.45a.21.21,0,0,1-.21.12,1,1,0,0,1-.5-.25l.43,0a.74.74,0,0,1,.34,0S10.1,10.6,10.06,10.63ZM5.24,12.3c0-.13.23-.37.75-.67-.39.73-.6.82-.63.84S5.24,12.32,5.24,12.3ZM7.4,7.62a1.24,1.24,0,0,1-.08-.75s0-.06.06-.06h0A1.64,1.64,0,0,1,7.4,7.62Zm.13,1.27a9.13,9.13,0,0,0,.94,1.37,11.44,11.44,0,0,0-1.6.51A16.13,16.13,0,0,0,7.53,8.89Z"></path></g></g>
</symbol>

<symbol id="file-song" viewBox="0 0 16 16">
  <title>file-song</title><g id="Layer_1" data-name="Layer 1"><g id="Layer_5" data-name="Layer 5"><path d="M9.84,0H2.35a.8.8,0,0,0-.8.81V15.24a.8.8,0,0,0,.8.8h11.3a.8.8,0,0,0,.8-.8v-11ZM12.41,4.2H10a.12.12,0,0,1-.12-.12V1.89Zm.69,10.49H2.9V1.39H8.49V4.08a1.46,1.46,0,0,0,.43,1,1.43,1.43,0,0,0,1,.43H13.1Z"></path><path d="M10.57,7.25a.64.64,0,0,0-.64-.64L7,7.33A.65.65,0,0,0,6.48,8v2.65A1.34,1.34,0,0,0,6,10.52a1.3,1.3,0,1,0,1.3,1.3.76.76,0,0,0,0-.16l0,0V8.35l2.39-.61V9.8a1.14,1.14,0,0,0-.46-.09,1.3,1.3,0,1,0,1.3,1.3h0ZM6,12.37a.55.55,0,0,1,0-1.1.55.55,0,0,1,0,1.1Zm3.23-.81A.55.55,0,0,1,8.71,11a.55.55,0,0,1,.55-.55.54.54,0,0,1,.55.55A.55.55,0,0,1,9.26,11.56Z"></path></g></g>
</symbol>

<symbol id="file-text" viewBox="0 0 16 16">
  <title>file-text</title><g id="Layer_1" data-name="Layer 1"><g id="Layer_5" data-name="Layer 5"><path d="M7.15,7.21v.52a.3.3,0,0,1-.59,0H6.21v1.5a.28.28,0,0,1,.25.29.28.28,0,0,1-.29.29H5.65a.29.29,0,0,1,0-.58V7.76H5.18a.29.29,0,0,1-.57,0V7.21a.29.29,0,0,1,.58,0H6.58a.28.28,0,0,1,.29-.25A.3.3,0,0,1,7.15,7.21Z"></path><path d="M10.82,8.35H8.25a.43.43,0,1,1,0-.85h2.57a.43.43,0,0,1,0,.85Z"></path><path d="M10.82,9.83H8.25a.43.43,0,1,1,0-.85h2.57a.43.43,0,0,1,0,.85Z"></path><path d="M10.82,11.31H5a.43.43,0,1,1,0-.85h5.84a.43.43,0,0,1,0,.85Z"></path><path d="M10.82,12.78H5a.42.42,0,1,1,0-.84h5.84a.42.42,0,0,1,0,.84Z"></path><path d="M9.84,0H2.35a.8.8,0,0,0-.8.8V15.2a.8.8,0,0,0,.8.8h11.3a.8.8,0,0,0,.8-.8v-11Zm2.57,4.15H10A.12.12,0,0,1,9.84,4V1.85Zm.69,10.5H2.9V1.35H8.49V4a1.46,1.46,0,0,0,.43,1,1.43,1.43,0,0,0,1,.43H13.1Z"></path></g></g>
</symbol>

<symbol id="file-video" viewBox="0 0 16 16">
  <title>file-video</title><g id="Layer_1" data-name="Layer 1"><g id="Layer_5" data-name="Layer 5"><path d="M9.84,0H2.35a.8.8,0,0,0-.8.8V15.2a.8.8,0,0,0,.8.8h11.3a.8.8,0,0,0,.8-.8v-11Zm2.57,4.16H10A.12.12,0,0,1,9.84,4V1.85Zm.69,10.49H2.9V1.35H8.49V4a1.46,1.46,0,0,0,.43,1,1.43,1.43,0,0,0,1,.43H13.1Z"></path><path d="M7.78,13.15a3.49,3.49,0,1,1,3.48-3.49A3.49,3.49,0,0,1,7.78,13.15ZM7.78,7a2.7,2.7,0,1,0,2.69,2.69A2.69,2.69,0,0,0,7.78,7Z"></path><path d="M9.27,9.43,7.05,7.91a.28.28,0,0,0-.44.23v3a.28.28,0,0,0,.44.23L9.27,9.9A.29.29,0,0,0,9.27,9.43Zm-2,1.06V8.84l1.2.82Z"></path></g></g>
</symbol>

<symbol id="hang-tag" viewBox="0 0 16 16">
  <title>hang-tag</title><g id="Layer_1" data-name="Layer 1"><g id="Layer_5" data-name="Layer 5"><path d="M7.54,15.93a1.29,1.29,0,0,1-.91-.38L.4,9.33a1.32,1.32,0,0,1,0-1.84l7.05-7A1.29,1.29,0,0,1,8.54.08l5.39.85A1.28,1.28,0,0,1,15,2l.85,5.36a1.3,1.3,0,0,1-.36,1.1l-7,7.05A1.29,1.29,0,0,1,7.54,15.93Zm.15-1.44h0ZM1.61,8.41l5.93,5.94,6.83-6.83-.81-5.13L8.43,1.58Zm12.1-6h0Zm-.17-.16h0Z"></path><path d="M10.64,7.05A1.83,1.83,0,0,1,9.32,6.5a1.88,1.88,0,0,1,0-2.65,1.93,1.93,0,0,1,2.65,0A1.88,1.88,0,0,1,12,6.5h0A1.87,1.87,0,0,1,10.64,7.05Zm.86-1h0Zm-.86-1.4a.55.55,0,0,0-.38.93.53.53,0,0,0,.77,0h0a.55.55,0,0,0,0-.77A.57.57,0,0,0,10.64,4.63Z"></path></g></g>
</symbol>

<symbol id="lock-o" viewBox="0 0 16 16">
  <title>lock-o</title><g id="Layer_1" data-name="Layer 1"><path d="M12.94,7h0V5.92A4.94,4.94,0,0,0,3,5.92V7H3A1.8,1.8,0,0,0,1.2,8.79v5.45A1.8,1.8,0,0,0,3,16.05h9.94a1.81,1.81,0,0,0,1.8-1.81V8.79A1.81,1.81,0,0,0,12.94,7ZM4.78,5.92a3.19,3.19,0,0,1,6.38,0V7H4.78ZM13,14.24a.06.06,0,0,1-.05.06L3,14.24,3,8.73l10,.06Z"></path></g>
</symbol>

<symbol id="note-o" viewBox="0 0 16 16">
  <title>note-o</title><g id="Layer_1" data-name="Layer 1"><g id="Layer_6" data-name="Layer 6"><rect x="4.25" y="7.74" width="5.54" height="1.06"></rect><rect x="4.25" y="5.55" width="7.67" height="1.06"></rect><rect x="4.25" y="3.45" width="7.67" height="1.06"></rect><path d="M15,11.08a.84.84,0,0,1-.2.93L11,15.64a.9.9,0,0,1-.62.25A.87.87,0,0,1,9.47,15v-3.4a1.12,1.12,0,0,1,1.14-1.08h3.53A.9.9,0,0,1,15,11.08ZM10.89,13.8l1.94-1.87"></path><path d="M13.9.2H2.28a1.08,1.08,0,0,0-1.11,1v13.6a1.08,1.08,0,0,0,1.11,1.05h8V14.55H2.59v-13h11v9.91H15V1.24A1.08,1.08,0,0,0,13.9.2Z"></path></g></g>
</symbol>

<symbol id="notification-o" viewBox="0 0 16 16">
  <title>notification-o</title><g id="Layer_1" data-name="Layer 1"><g id="Layer_9" data-name="Layer 9"><path d="M15.32,11.51l-1.9-2.28V5.82A5.38,5.38,0,0,0,8.09.41,5.38,5.38,0,0,0,2.76,5.82V9.23L.86,11.5a1.53,1.53,0,0,0-.22,1.64A1.46,1.46,0,0,0,2,14H5.78a2.48,2.48,0,0,0,4.62,0h3.78a1.47,1.47,0,0,0,1.36-.88A1.51,1.51,0,0,0,15.32,11.51Zm-1.14,1.06H2l-.06-.11L4,10a.77.77,0,0,0,.18-.5V5.82a3.91,3.91,0,1,1,7.81,0V9.49a.83.83,0,0,0,.18.5l2.07,2.47Z"></path></g><g id="Layer_6" data-name="Layer 6"><path d="M15.32,11.51l-1.9-2.28V5.82A5.38,5.38,0,0,0,8.09.41,5.38,5.38,0,0,0,2.76,5.82V9.23L.86,11.5a1.53,1.53,0,0,0-.22,1.64A1.46,1.46,0,0,0,2,14H5.78a2.48,2.48,0,0,0,4.62,0h3.78a1.47,1.47,0,0,0,1.36-.88A1.51,1.51,0,0,0,15.32,11.51Zm-1.14,1.06H2l-.06-.11L4,10a.77.77,0,0,0,.18-.5V5.82a3.91,3.91,0,1,1,7.81,0V9.49a.83.83,0,0,0,.18.5l2.07,2.47Z"></path></g><g id="Layer_5" data-name="Layer 5"><path d="M15.32,11.51l-1.9-2.28V5.82A5.38,5.38,0,0,0,8.09.41,5.38,5.38,0,0,0,2.76,5.82V9.23L.86,11.5a1.53,1.53,0,0,0-.22,1.64A1.46,1.46,0,0,0,2,14H5.78a2.48,2.48,0,0,0,4.62,0h3.78a1.47,1.47,0,0,0,1.36-.88A1.51,1.51,0,0,0,15.32,11.51Zm-1.14,1.06H2l-.06-.11L4,10a.77.77,0,0,0,.18-.5V5.82a3.91,3.91,0,1,1,7.81,0V9.49a.83.83,0,0,0,.18.5l2.07,2.47Z"></path></g></g>
</symbol>

<symbol id="notification" viewBox="0 0 16 16">
  <title>notification</title><g id="Layer_1" data-name="Layer 1"><g id="Layer_9" data-name="Layer 9"><path d="M15.32,11.51l-1.9-2.28V5.82A5.38,5.38,0,0,0,8.09.41,5.38,5.38,0,0,0,2.76,5.82V9.23L.86,11.5a1.53,1.53,0,0,0-.22,1.64A1.46,1.46,0,0,0,2,14H5.78a2.48,2.48,0,0,0,4.62,0h3.78a1.47,1.47,0,0,0,1.36-.88A1.51,1.51,0,0,0,15.32,11.51Z"></path></g></g>
</symbol>

<symbol id="person-o" viewBox="0 0 16 16">
  <title>person-o</title><g id="Layer_1" data-name="Layer 1"><g id="Layer_30" data-name="Layer 30"><path d="M12.59,9.45,10.05,8.27a4.31,4.31,0,0,0,2.13-3.73A4.24,4.24,0,0,0,8,.26,4.23,4.23,0,0,0,3.82,4.54,4.32,4.32,0,0,0,5.94,8.27L3.4,9.45a2.14,2.14,0,0,0-1.22,2v3.52a.81.81,0,0,0,.8.82H13a.82.82,0,0,0,.81-.82V11.4A2.14,2.14,0,0,0,12.59,9.45ZM8,1.91a2.6,2.6,0,0,1,2.56,2.63,2.57,2.57,0,1,1-5.13,0A2.6,2.6,0,0,1,8,1.91Zm4.25,12.28H3.74V11.57A.5.5,0,0,1,4,11.12L8,9.3l4,1.82a.49.49,0,0,1,.27.45Z"></path></g></g>
</symbol>

<symbol id="person-remove-o" viewBox="0 0 16 16">
  <title>person-remove-o</title><g id="Layer_1" data-name="Layer 1"><path d="M3.39,15.69a2,2,0,0,1-2-2V10.6A2.4,2.4,0,0,1,3,8.37l2.38-.91L5,7.25a3.79,3.79,0,1,1,4.23,0l-.31.21,2.51,1a.61.61,0,0,1-.21,1.18h0a.57.57,0,0,1-.22,0L7.14,8.08,3.38,9.51a1.17,1.17,0,0,0-.75,1.09v3.11a.77.77,0,0,0,.76.77H9a.61.61,0,0,1,0,1.21ZM7.14,1.52A2.59,2.59,0,1,0,9.71,4.1,2.59,2.59,0,0,0,7.14,1.52Z"></path><path d="M10.1,12.64a.55.55,0,0,1,0-1.1H14a.55.55,0,0,1,0,1.1Z"></path></g>
</symbol>

<symbol id="phone" viewBox="0 0 16 16">
  <title>phone</title><g id="Layer_1" data-name="Layer 1"><path d="M1.89,5.8A26.75,26.75,0,0,0,9,14.42l1.08.86a1.76,1.76,0,0,0,2.22,0h0l1.89-1.57.31-.26a1.3,1.3,0,0,0,.17-1.83L13.2,9.84a1.29,1.29,0,0,0-1.83-.18L9.54,11.18A26.88,26.88,0,0,1,5.17,5.86L7,4.34a1.31,1.31,0,0,0,.17-1.83L5.72.74A1.3,1.3,0,0,0,3.89.57L3.58.82,1.69,2.39h0a1.8,1.8,0,0,0-.44,2.19Z"></path></g>
</symbol>

<symbol id="promote" viewBox="0 0 16 16">
  <title>promote</title><g id="Layer_1" data-name="Layer 1"><g id="Layer_5" data-name="Layer 5"><path d="M12.4,10,10.32,6.1a3.37,3.37,0,0,0,1.09-2.48,3.41,3.41,0,0,0-6.82,0A3.42,3.42,0,0,0,5.4,5.8L3.17,10a2.91,2.91,0,1,0,1.56.18L6.57,6.7A3.3,3.3,0,0,0,8,7a3.53,3.53,0,0,0,1-.16l1.89,3.51A2.91,2.91,0,1,0,12.4,10Zm-7,2.91a1.75,1.75,0,1,1-1.75-1.75A1.75,1.75,0,0,1,5.37,12.86Zm7,1.77a1.77,1.77,0,1,1,1.76-1.77A1.77,1.77,0,0,1,12.38,14.63Z" fill-rule="evenodd"></path></g></g>
</symbol>

<symbol id="unlock-o" viewBox="0 0 16 16">
  <title>unlock-o</title><g id="Layer_1" data-name="Layer 1"><path d="M13.06,7.09h0V5A4.94,4.94,0,0,0,3.29,3.85l1.7.4a3.19,3.19,0,0,1,6.3.74v2.1H3.13A1.81,1.81,0,0,0,1.32,8.9v5.45a1.81,1.81,0,0,0,1.81,1.81h9.93a1.81,1.81,0,0,0,1.81-1.81V8.9A1.81,1.81,0,0,0,13.06,7.09Zm.06,7.26a.06.06,0,0,1-.06.06l-10-.06.06-5.51,10,.06Z"></path></g>
</symbol>
    </svg>