<svg xmlns="http://www.w3.org/2000/svg" xmlns:xlink="http://www.w3.org/1999/xlink">
    
<symbol id="accounts" viewBox="0 0 16 16">
  <path d="M8.00002 9.47583C8.81509 9.47583 9.47583 8.81509 9.47583 8.00002C9.47583 7.18495 8.81509 6.52421 8.00002 6.52421C7.18495 6.52421 6.52421 7.18495 6.52421 8.00002C6.52421 8.81509 7.18495 9.47583 8.00002 9.47583Z"></path><path d="M8.00002 0.27002C1.81582 0.27002 0.27002 1.81582 0.27002 8.00002C0.27002 14.1842 1.81582 15.73 8.00002 15.73C14.1842 15.73 15.73 14.1842 15.73 8.00002C15.73 1.81582 14.1842 0.27002 8.00002 0.27002ZM10.8616 8.00002C10.8604 8.12511 10.8514 8.25 10.8347 8.37397L11.6345 9.00289C11.6695 9.03176 11.6933 9.07198 11.7017 9.11655C11.7101 9.16112 11.7026 9.20723 11.6805 9.24686L10.9176 10.5667C10.8957 10.6067 10.86 10.6373 10.8171 10.6528C10.7741 10.6683 10.7271 10.6675 10.6847 10.6507L9.73479 10.2697C9.53678 10.4208 9.32041 10.5461 9.09088 10.6427L8.9459 11.6535C8.93957 11.6984 8.91708 11.7394 8.88265 11.7689C8.84822 11.7983 8.80423 11.8142 8.75892 11.8135H7.23812C7.19281 11.8142 7.14882 11.7983 7.11439 11.7689C7.07996 11.7394 7.05747 11.6984 7.05114 11.6535L6.90616 10.6427C6.67553 10.5476 6.45864 10.4222 6.26124 10.2697L5.31237 10.6507C5.26987 10.6664 5.22317 10.6666 5.18053 10.6513C5.13789 10.6359 5.10207 10.6059 5.0794 10.5667L4.3165 9.24686C4.293 9.20709 4.28471 9.16016 4.29317 9.11475C4.30163 9.06934 4.32625 9.02853 4.36249 8.99989L5.16239 8.37097C5.12634 8.12297 5.12634 7.87107 5.16239 7.62307L4.36249 7.00015C4.32648 6.97202 4.30195 6.93174 4.29349 6.88684C4.28502 6.84194 4.2932 6.79549 4.3165 6.75618L5.0794 5.43635C5.1013 5.39635 5.13708 5.36573 5.17998 5.35026C5.22289 5.33479 5.26997 5.33554 5.31237 5.35236L6.26124 5.73331C6.45961 5.58227 6.67631 5.45696 6.90616 5.36036L7.05114 4.34949C7.05747 4.30463 7.07996 4.26361 7.11439 4.23416C7.14882 4.2047 7.19281 4.18882 7.23812 4.18951H8.76392C8.80923 4.18882 8.85322 4.2047 8.88765 4.23416C8.92208 4.26361 8.94457 4.30463 8.9509 4.34949L9.09988 5.35736C9.33019 5.45241 9.54675 5.57784 9.74379 5.73031L10.6937 5.34936C10.7362 5.33361 10.7829 5.3334 10.8255 5.34877C10.8681 5.36414 10.904 5.3941 10.9266 5.43335L11.6895 6.75318C11.712 6.79356 11.7193 6.84061 11.7101 6.88589C11.7009 6.93116 11.6759 6.97168 11.6395 7.00015L10.8397 7.62907C10.8546 7.75215 10.8619 7.87603 10.8616 8.00002Z"></path>
</symbol>

<symbol id="api" viewBox="0 0 16 16">
  <path d="M6.98815 7.51608C6.71174 7.40995 6.4101 7.38801 6.12124 7.45303C5.83238 7.51804 5.56923 7.6671 5.36494 7.88142C5.16065 8.09573 5.02437 8.36572 4.97326 8.65736C4.92216 8.94901 4.95852 9.24925 5.07777 9.52026C5.19701 9.79127 5.3938 10.0209 5.64335 10.1803C5.89289 10.3396 6.18402 10.4216 6.48005 10.4157C6.77607 10.4099 7.06376 10.3166 7.30684 10.1476C7.54993 9.97853 7.73754 9.74132 7.84604 9.46583C7.91861 9.28156 7.95397 9.08475 7.95008 8.88675C7.94619 8.68874 7.90312 8.49347 7.82336 8.3122C7.7436 8.13093 7.62873 7.96725 7.48538 7.83061C7.34203 7.69397 7.17303 7.58707 6.98815 7.51608Z"></path><path d="M10.8237 5.0294C10.664 5.02941 10.508 5.07683 10.3753 5.16565C10.2427 5.25447 10.1394 5.38069 10.0785 5.5283C10.0177 5.67591 10.0021 5.83825 10.0337 5.99474C10.0653 6.15123 10.1426 6.29482 10.256 6.40728C10.3693 6.51974 10.5134 6.59602 10.6701 6.62643C10.8269 6.65685 10.9891 6.64003 11.1362 6.57811C11.2834 6.5162 11.4088 6.41197 11.4967 6.27865C11.5845 6.14534 11.6307 5.98894 11.6295 5.8293C11.6277 5.61669 11.542 5.41339 11.3911 5.26361C11.2402 5.11383 11.0363 5.02966 10.8237 5.0294Z"></path><path d="M8.00002 0.27002C1.81582 0.27002 0.27002 1.81582 0.27002 8.00002C0.27002 14.1842 1.81582 15.73 8.00002 15.73C14.1842 15.73 15.73 14.1842 15.73 8.00002C15.73 1.81582 14.1842 0.27002 8.00002 0.27002ZM9.21286 11.3526L8.21299 12.1525L7.49308 11.2526C7.07033 11.4418 6.60413 11.5126 6.14426 11.4576L5.72531 12.5394L4.52547 12.0725L4.94841 10.9996C4.61086 10.7589 4.33644 10.4403 4.14852 10.0708L2.92368 10.2567L2.7237 8.9509L3.88155 8.77492C3.91145 8.27421 4.08502 7.79272 4.38149 7.3881L3.66658 6.48821L4.66645 5.68832L5.38036 6.5792C5.8093 6.38575 6.28332 6.31447 6.75018 6.37323L7.16413 5.31037L8.35597 5.77231L7.94103 6.84017C8.32006 7.11056 8.61557 7.48194 8.79392 7.91203L9.93277 7.74005L10.1277 8.99989L8.98889 9.17987C8.96913 9.4086 8.91625 9.63325 8.83191 9.84678C8.74881 10.0636 8.635 10.2673 8.49396 10.4517L9.21286 11.3526ZM12.4124 7.3731L11.8695 7.05914C11.578 7.30828 11.2071 7.44517 10.8237 7.44517C10.4402 7.44517 10.0693 7.30828 9.77779 7.05914L9.23386 7.3731L8.69993 6.44422L9.24786 6.12526C9.22857 6.02948 9.21885 5.93201 9.21886 5.8343C9.21871 5.50205 9.32163 5.17793 9.51342 4.90662C9.70522 4.63531 9.97645 4.43018 10.2897 4.3195V3.68558H11.3626V4.3195C11.676 4.43001 11.9475 4.63507 12.1395 4.90639C12.3315 5.17772 12.4345 5.50192 12.4344 5.8343C12.4348 5.93198 12.4254 6.02944 12.4064 6.12526L12.9544 6.44422L12.4124 7.3731Z"></path>
</symbol>

<symbol id="calendar" viewBox="0 0 16 16">
  <path d="M5.455 7.218H10.545V10.426H5.455V7.218ZM15.75 8C15.75 14.2 14.2 15.75 8 15.75C1.8 15.75 0.25 14.2 0.25 8C0.25 1.8 1.8 0.25 8 0.25C14.2 0.25 15.75 1.8 15.75 8ZM11.7 5.663C11.7 5.54276 11.6523 5.42744 11.5674 5.34233C11.4825 5.25721 11.3672 5.20926 11.247 5.209H10.547V4.666C10.547 4.55196 10.5017 4.44258 10.4211 4.36194C10.3404 4.2813 10.231 4.236 10.117 4.236H9.917C9.80296 4.236 9.69358 4.2813 9.61294 4.36194C9.5323 4.44258 9.487 4.55196 9.487 4.666V5.209H6.519V4.666C6.519 4.55196 6.4737 4.44258 6.39306 4.36194C6.31242 4.2813 6.20304 4.236 6.089 4.236H5.889C5.77504 4.23626 5.66582 4.28165 5.58524 4.36224C5.50465 4.44282 5.45926 4.55204 5.459 4.666V5.209H4.759C4.63876 5.20926 4.52354 5.25721 4.43862 5.34233C4.35369 5.42744 4.306 5.54276 4.306 5.663V11.163C4.306 11.2832 4.35369 11.3986 4.43862 11.4837C4.52354 11.5688 4.63876 11.6167 4.759 11.617H11.253C11.3732 11.6167 11.4885 11.5688 11.5734 11.4837C11.6583 11.3986 11.706 11.2832 11.706 11.163L11.7 5.663Z"></path>
</symbol>

<symbol id="check-ins" viewBox="0 0 16 16">
  <path d="M7.99999 0.27002C1.81579 0.27002 0.269989 1.81582 0.269989 8.00002C0.269989 14.1842 1.81579 15.73 7.99999 15.73C14.1842 15.73 15.73 14.1842 15.73 8.00002C15.73 1.81582 14.1842 0.27002 7.99999 0.27002ZM11.5835 6.6442L7.60004 10.6287C7.51647 10.7123 7.41726 10.7786 7.30806 10.8238C7.19886 10.8691 7.08182 10.8924 6.96362 10.8924C6.84542 10.8924 6.72838 10.8691 6.61918 10.8238C6.50999 10.7786 6.41077 10.7123 6.32721 10.6287L4.41745 8.71893C4.25459 8.54906 4.16474 8.32216 4.16717 8.08685C4.1696 7.85154 4.26411 7.62654 4.43044 7.46007C4.59678 7.29361 4.8217 7.19892 5.05701 7.19631C5.29233 7.19369 5.5193 7.28336 5.68929 7.44609L6.96312 8.71893L10.3107 5.37136C10.3943 5.28778 10.4935 5.22149 10.6027 5.17626C10.7119 5.13103 10.8289 5.10775 10.9471 5.10775C11.0653 5.10775 11.1823 5.13103 11.2915 5.17626C11.4007 5.22149 11.4999 5.28778 11.5835 5.37136C11.6671 5.45494 11.7334 5.55415 11.7786 5.66335C11.8239 5.77255 11.8471 5.88958 11.8471 6.00778C11.8471 6.12597 11.8239 6.24301 11.7786 6.3522C11.7334 6.4614 11.6671 6.56062 11.5835 6.6442Z"></path>
</symbol>

<symbol id="church-center" viewBox="0 0 16 16">
  <path d="M7.99999 0.27002C1.81879 0.27002 0.269989 1.81582 0.269989 8.00002C0.269989 14.1842 1.81879 15.73 7.99999 15.73C14.1812 15.73 15.73 14.1812 15.73 8.00002C15.73 1.81882 14.1842 0.27002 7.99999 0.27002ZM11.0286 11.6995C11.0291 11.7683 11.0024 11.8345 10.9542 11.8836C10.9061 11.9327 10.8404 11.9607 10.7716 11.9615L9.25183 11.9495C9.18305 11.9503 9.11676 11.9238 9.06747 11.8758C9.01818 11.8279 8.98991 11.7623 8.98886 11.6935C8.98886 11.6935 8.98886 11.5146 8.98886 10.2937C8.97285 9.90335 8.87681 9.52042 8.7067 9.16869C8.5366 8.81696 8.29606 8.50392 7.99999 8.24899C7.70247 8.50424 7.46075 8.81809 7.28992 9.17092C7.11909 9.52376 7.02282 9.90802 7.00712 10.2997C7.00712 11.5146 7.00712 11.6995 7.00712 11.6995C7.00673 11.7335 6.99964 11.7671 6.98626 11.7984C6.97288 11.8297 6.95348 11.858 6.92915 11.8818C6.90483 11.9056 6.87606 11.9243 6.84448 11.9369C6.81291 11.9496 6.77916 11.9559 6.74515 11.9555L5.22435 11.9675C5.1903 11.9672 5.15664 11.9602 5.12531 11.9469C5.09398 11.9336 5.0656 11.9142 5.04181 11.8898C5.01801 11.8655 4.99927 11.8367 4.98667 11.805C4.97407 11.7734 4.96785 11.7396 4.96838 11.7055C4.87629 9.98679 4.87095 8.26449 4.95238 6.54521L7.73302 4.14552C7.8062 4.08058 7.90065 4.04471 7.99849 4.04471C8.09633 4.04471 8.19077 4.08058 8.26395 4.14552L11.0416 6.54521C11.1243 8.26244 11.12 9.98275 11.0286 11.6995Z"></path>
</symbol>

<symbol id="giving" viewBox="0 0 16 16">
  <path d="M8.00002 0.27002C1.81582 0.27002 0.27002 1.81582 0.27002 8.00002C0.27002 14.1842 1.81582 15.73 8.00002 15.73C14.1842 15.73 15.73 14.1842 15.73 8.00002C15.73 1.81582 14.1842 0.27002 8.00002 0.27002ZM8.22999 10.9296C8.16304 10.978 8.08258 11.004 8.00002 11.004C7.91746 11.004 7.83699 10.978 7.77005 10.9296C6.79218 10.2397 3.12365 7.43909 5.23138 5.63033C5.59231 5.33928 6.0492 5.19406 6.51193 5.22331C6.97466 5.25255 7.40964 5.45414 7.73105 5.78831L8.00002 6.05527L8.27098 5.78331C8.5924 5.44914 9.02738 5.24755 9.49011 5.21831C9.95284 5.18906 10.4097 5.33428 10.7707 5.62533C12.8764 7.43909 9.20786 10.2397 8.22999 10.9296Z"></path>
</symbol>

<symbol id="groups" viewBox="0 0 16 16">
  <path d="M9.02614 6.19977H6.97387C6.82622 6.54742 6.54942 6.82422 6.20177 6.97187V9.02414C6.54942 9.17179 6.82622 9.44859 6.97387 9.79624H9.02314C9.17038 9.44865 9.44684 9.17183 9.79424 9.02414V6.97387C9.44748 6.82524 9.17206 6.54767 9.02614 6.19977ZM8 0.255005C1.8042 0.255005 0.255005 1.7992 0.255005 8C0.255005 14.2008 1.8042 15.745 8 15.745C14.1958 15.745 15.745 14.2008 15.745 8C15.745 1.7992 14.2008 0.255005 8 0.255005ZM11.8135 10.3623C11.814 10.6977 11.6983 11.0229 11.4863 11.2827C11.2742 11.5425 10.9787 11.7209 10.65 11.7875C10.3214 11.8542 9.97973 11.8051 9.68317 11.6485C9.38661 11.4919 9.1534 11.2374 9.02314 10.9284H6.97387C6.88207 11.1488 6.73739 11.3431 6.55263 11.4943C6.36786 11.6455 6.14869 11.7488 5.91449 11.7951C5.6803 11.8415 5.4383 11.8294 5.20988 11.76C4.98146 11.6906 4.77366 11.566 4.60485 11.3972C4.43604 11.2283 4.31142 11.0205 4.24201 10.7921C4.1726 10.5637 4.16053 10.3217 4.20687 10.0875C4.25321 9.85332 4.35653 9.63415 4.50771 9.44939C4.65888 9.26462 4.85325 9.11994 5.07363 9.02814V6.97587C4.85325 6.88407 4.65888 6.73939 4.50771 6.55463C4.35653 6.36986 4.25321 6.15069 4.20687 5.9165C4.16053 5.6823 4.1726 5.4403 4.24201 5.21188C4.31142 4.98346 4.43604 4.77566 4.60485 4.60685C4.77366 4.43805 4.98146 4.31342 5.20988 4.24401C5.4383 4.1746 5.6803 4.16253 5.91449 4.20887C6.14869 4.25521 6.36786 4.35853 6.55263 4.50971C6.73739 4.66088 6.88207 4.85525 6.97387 5.07563H9.02614C9.11878 4.85603 9.26401 4.66259 9.44903 4.51235C9.63406 4.36212 9.8532 4.25969 10.0871 4.21411C10.3211 4.16853 10.5626 4.18119 10.7905 4.25097C11.0184 4.32075 11.2257 4.44552 11.394 4.61427C11.5623 4.78302 11.6865 4.99058 11.7557 5.21866C11.8249 5.44673 11.8369 5.68832 11.7907 5.92214C11.7445 6.15596 11.6415 6.37483 11.4908 6.55946C11.34 6.74409 11.1462 6.88881 10.9264 6.98087V9.02414C11.1894 9.13536 11.4137 9.3216 11.5715 9.55959C11.7293 9.79758 11.8135 10.0768 11.8135 10.3623Z"></path>
</symbol>

<symbol id="music-stand" viewBox="0 0 16 16">
  <path d="M7.99999 0.27002C1.81579 0.27002 0.269989 1.81582 0.269989 8.00002C0.269989 14.1842 1.81579 15.73 7.99999 15.73C14.1842 15.73 15.73 14.1842 15.73 8.00002C15.73 1.81582 14.1842 0.27002 7.99999 0.27002ZM11.4375 9.61681H11.4245C11.4515 10.1907 10.8066 10.7267 9.94374 10.8277C9.05585 10.9276 8.27995 10.5367 8.20996 9.94477C8.13997 9.35284 8.80488 8.78392 9.69277 8.67993C9.96018 8.64795 10.2312 8.66455 10.4927 8.72893V5.87629L6.58017 7.15013V10.6997H6.56318C6.45976 11.0101 6.2619 11.2803 5.99728 11.4727C5.73266 11.6651 5.41451 11.7699 5.08737 11.7725C4.19848 11.8725 3.42258 11.4806 3.35359 10.8886C3.2846 10.2967 3.94751 9.7328 4.8354 9.62781C5.10288 9.59664 5.37378 9.61357 5.63529 9.6778V6.37823C5.63529 6.19925 5.68229 5.95928 5.85527 5.90329C6.66716 5.64032 10.6336 4.33749 11.1456 4.19251C11.2126 4.18378 11.2804 4.20127 11.3348 4.24133C11.3892 4.28139 11.426 4.34092 11.4375 4.40748V9.61681Z"></path>
</symbol>

<symbol id="people" viewBox="0 0 16 16">
  <path d="M7.99999 0.27002C1.81579 0.27002 0.269989 1.81582 0.269989 8.00002C0.269989 14.1842 1.81579 15.73 7.99999 15.73C14.1842 15.73 15.73 14.1842 15.73 8.00002C15.73 1.81582 14.1842 0.27002 7.99999 0.27002ZM6.57717 4.68745C6.88734 4.68725 7.19059 4.77906 7.44857 4.95125C7.70655 5.12345 7.90765 5.3683 8.02644 5.65481C8.14522 5.94133 8.17636 6.25665 8.11589 6.56086C8.05543 6.86508 7.90609 7.14452 7.68677 7.36385C7.46745 7.58317 7.18801 7.7325 6.88379 7.79297C6.57957 7.85343 6.26426 7.8223 5.97774 7.70351C5.69122 7.58472 5.44638 7.38362 5.27418 7.12564C5.10198 6.86767 5.01018 6.56441 5.01038 6.25425C5.01064 5.83879 5.1758 5.44042 5.46957 5.14665C5.76335 4.85287 6.16171 4.68771 6.57717 4.68745ZM8.95287 11.3126H4.18748V9.88378C4.18748 9.50457 4.33812 9.14089 4.60627 8.87274C4.87441 8.6046 5.23809 8.45396 5.6173 8.45396H7.52305C7.90226 8.45396 8.26594 8.6046 8.53408 8.87274C8.80223 9.14089 8.95287 9.50457 8.95287 9.88378V11.3126ZM10.1797 5.62533C10.4121 5.62612 10.6391 5.69578 10.832 5.8255C11.0248 5.95523 11.1749 6.13921 11.2633 6.35419C11.3516 6.56918 11.3743 6.80553 11.3284 7.03338C11.2825 7.26124 11.1701 7.47038 11.0054 7.63438C10.8407 7.79839 10.6311 7.9099 10.403 7.95483C10.175 7.99977 9.93873 7.97611 9.72412 7.88684C9.50951 7.79757 9.32617 7.64671 9.19727 7.4533C9.06836 7.25988 8.99966 7.03261 8.99986 6.80017C8.99986 6.64547 9.03041 6.49229 9.08977 6.34942C9.14912 6.20656 9.23611 6.07682 9.34573 5.96766C9.45536 5.8585 9.58546 5.77206 9.72858 5.71332C9.87169 5.65457 10.025 5.62467 10.1797 5.62533ZM11.8125 10.3577H9.4298V9.88178C9.43145 9.62531 9.37756 9.37153 9.27182 9.13787C9.26118 9.09926 9.24537 9.06227 9.22483 9.02789C9.21075 8.99852 9.19471 8.97012 9.17684 8.9429C9.15578 8.90013 9.13207 8.85872 9.10585 8.81891C9.18615 8.70656 9.29185 8.61477 9.41434 8.551C9.53684 8.48723 9.67266 8.4533 9.81075 8.45196H10.9546C11.182 8.45249 11.3999 8.54304 11.5606 8.70381C11.7214 8.86459 11.812 9.08249 11.8125 9.30985V10.3577Z"></path>
</symbol>

<symbol id="publishing" viewBox="0 0 16 16">
  <path d="M7.99999 0.27002C1.81579 0.27002 0.269989 1.81582 0.269989 8.00002C0.269989 14.1842 1.81579 15.73 7.99999 15.73C14.1842 15.73 15.73 14.1842 15.73 8.00002C15.73 1.81582 14.1842 0.27002 7.99999 0.27002ZM5.90826 10.7837C5.90826 10.882 5.86918 10.9764 5.79961 11.046C5.73004 11.1155 5.63569 11.1546 5.53731 11.1546H4.8004C4.70219 11.1543 4.6081 11.1151 4.53875 11.0456C4.4694 10.9761 4.43045 10.8819 4.43045 10.7837V5.21638C4.43045 5.11817 4.4694 5.02397 4.53875 4.95443C4.6081 4.88489 4.70219 4.84569 4.8004 4.84543H5.54131C5.63969 4.84543 5.73404 4.88451 5.80361 4.95408C5.87318 5.02364 5.91226 5.118 5.91226 5.21638L5.90826 10.7837ZM11.5735 10.7837C11.5735 10.8819 11.5346 10.9761 11.4652 11.0456C11.3959 11.1151 11.3018 11.1543 11.2036 11.1546H7.44706C7.39839 11.1546 7.3502 11.145 7.30525 11.1264C7.2603 11.1077 7.21948 11.0804 7.18511 11.0459C7.15074 11.0114 7.12351 10.9705 7.10498 10.9255C7.08645 10.8805 7.07698 10.8323 7.07711 10.7837V10.0268C7.07711 9.92864 7.11609 9.83454 7.18546 9.76516C7.25484 9.69578 7.34894 9.65681 7.44706 9.65681H11.1996C11.2977 9.65681 11.3918 9.69578 11.4612 9.76516C11.5306 9.83454 11.5695 9.92864 11.5695 10.0268L11.5735 10.7837ZM11.5735 8.08401C11.5735 8.18222 11.5346 8.27642 11.4652 8.34596C11.3959 8.4155 11.3018 8.4547 11.2036 8.45496H7.44706C7.39839 8.45496 7.3502 8.44536 7.30525 8.4267C7.2603 8.40805 7.21948 8.38071 7.18511 8.34625C7.15074 8.31179 7.12351 8.27089 7.10498 8.22589C7.08645 8.18089 7.07698 8.13268 7.07711 8.08401V5.21638C7.07698 5.16771 7.08645 5.1195 7.10498 5.0745C7.12351 5.0295 7.15074 4.9886 7.18511 4.95414C7.21948 4.91968 7.2603 4.89234 7.30525 4.87368C7.3502 4.85503 7.39839 4.84543 7.44706 4.84543H11.1996C11.2978 4.84569 11.3919 4.88489 11.4612 4.95443C11.5306 5.02397 11.5695 5.11817 11.5695 5.21638L11.5735 8.08401Z"></path>
</symbol>

<symbol id="registrations" viewBox="0 0 16 16">
  <path d="M15.745 8C15.745 14.2008 14.1958 15.745 8 15.745C1.8042 15.745 0.255005 14.2008 0.255005 8C0.255005 1.7992 1.7992 0.255005 8 0.255005C14.2008 0.255005 15.745 1.8042 15.745 8ZM8.7001 10.5663L5.43367 7.29991C5.41043 7.27677 5.37896 7.26377 5.34616 7.26377C5.31336 7.26377 5.28189 7.27677 5.25865 7.29991L3.71645 8.84411C3.68004 8.88027 3.65115 8.92328 3.63143 8.97065C3.61171 9.01803 3.60156 9.06884 3.60156 9.12015C3.60156 9.17146 3.61171 9.22227 3.63143 9.26964C3.65115 9.31702 3.68004 9.36002 3.71645 9.39618L4.25752 9.93826C4.28503 9.96468 4.32071 9.98096 4.3587 9.98441C4.39669 9.98786 4.43472 9.97829 4.46655 9.95726C4.68601 9.82636 4.94288 9.77242 5.19646 9.80398C5.45004 9.83554 5.68584 9.95078 5.86653 10.1315C6.04722 10.3122 6.16247 10.548 6.19403 10.8016C6.22559 11.0551 6.17165 11.312 6.04075 11.5315C6.01972 11.5633 6.01015 11.6013 6.0136 11.6393C6.01705 11.6773 6.03333 11.713 6.05975 11.7405L6.60382 12.2836C6.63999 12.32 6.68299 12.3489 6.73036 12.3686C6.77774 12.3883 6.82855 12.3984 6.87986 12.3984C6.93117 12.3984 6.98198 12.3883 7.02936 12.3686C7.07673 12.3489 7.11974 12.32 7.1559 12.2836L8.7001 10.7414C8.72324 10.7181 8.73624 10.6866 8.73624 10.6538C8.73624 10.621 8.72324 10.5896 8.7001 10.5663ZM12.2836 6.59982L11.7385 6.05475C11.7113 6.02866 11.6761 6.01242 11.6386 6.00862C11.6011 6.00481 11.5634 6.01366 11.5315 6.03375C11.3126 6.16009 11.0582 6.21077 10.8076 6.17793C10.5571 6.1451 10.3243 6.03059 10.1454 5.85213C9.96649 5.67367 9.85139 5.44121 9.81792 5.19073C9.78445 4.94025 9.83448 4.68573 9.96026 4.46655C9.98035 4.43464 9.9892 4.39693 9.98539 4.35942C9.98159 4.32191 9.96535 4.28674 9.93926 4.25952L9.40019 3.71645C9.36403 3.68004 9.32102 3.65115 9.27365 3.63143C9.22627 3.61171 9.17546 3.60156 9.12415 3.60156C9.07284 3.60156 9.02203 3.61171 8.97466 3.63143C8.92728 3.65115 8.88427 3.68004 8.84811 3.71645L6.03175 6.52881C6.0086 6.55206 5.99561 6.58352 5.99561 6.61633C5.99561 6.64913 6.0086 6.68059 6.03175 6.70384L9.30017 9.96826C9.32342 9.99141 9.35488 10.0044 9.38768 10.0044C9.42049 10.0044 9.45195 9.99141 9.4752 9.96826L12.2876 7.1559C12.3243 7.1194 12.3534 7.07594 12.3731 7.02805C12.3929 6.98016 12.4029 6.92881 12.4025 6.87702C12.4021 6.82522 12.3914 6.77403 12.371 6.72643C12.3506 6.67883 12.3208 6.63579 12.2836 6.59982Z"></path>
</symbol>

<symbol id="resources" viewBox="0 0 16 16">
  <path d="M15.73 8.00002C15.73 14.1842 14.1842 15.73 8.00002 15.73C1.81582 15.73 0.27002 14.1842 0.27002 8.00002C0.27002 1.81582 1.81582 0.27002 8.00002 0.27002C14.1842 0.27002 15.73 1.81582 15.73 8.00002ZM7.4001 9.06188C7.39931 8.93961 7.35039 8.82257 7.26393 8.73611C7.17747 8.64965 7.06043 8.60073 6.93816 8.59994H4.89242C4.8312 8.59981 4.77055 8.61177 4.71396 8.63514C4.65737 8.65851 4.60595 8.69283 4.56266 8.73612C4.51937 8.77941 4.48505 8.83083 4.46168 8.88742C4.43831 8.94401 4.42635 9.00466 4.42648 9.06588V11.1116C4.42635 11.1728 4.43831 11.2335 4.46168 11.2901C4.48505 11.3467 4.51937 11.3981 4.56266 11.4414C4.60595 11.4847 4.65737 11.519 4.71396 11.5424C4.77055 11.5657 4.8312 11.5777 4.89242 11.5776H6.93816C6.99938 11.5777 7.06003 11.5657 7.11662 11.5424C7.17321 11.519 7.22463 11.4847 7.26792 11.4414C7.31121 11.3981 7.34553 11.3467 7.3689 11.2901C7.39227 11.2335 7.40423 11.1728 7.4041 11.1116L7.4001 9.06188ZM7.4001 4.89242C7.40023 4.8312 7.38827 4.77055 7.3649 4.71396C7.34153 4.65737 7.30721 4.60595 7.26392 4.56266C7.22063 4.51937 7.16921 4.48505 7.11262 4.46168C7.05603 4.43831 6.99538 4.42635 6.93416 4.42648H4.89242C4.8312 4.42635 4.77055 4.43831 4.71396 4.46168C4.65737 4.48505 4.60595 4.51937 4.56266 4.56266C4.51937 4.60595 4.48505 4.65737 4.46168 4.71396C4.43831 4.77055 4.42635 4.8312 4.42648 4.89242V6.93816C4.42635 6.99938 4.43831 7.06003 4.46168 7.11662C4.48505 7.17321 4.51937 7.22463 4.56266 7.26792C4.60595 7.31121 4.65737 7.34553 4.71396 7.3689C4.77055 7.39227 4.8312 7.40423 4.89242 7.4041H6.93816C7.06112 7.4033 7.17876 7.35383 7.26533 7.26651C7.35191 7.17918 7.40036 7.06112 7.4001 6.93816V4.89242ZM11.5696 9.06188C11.5697 9.00066 11.5577 8.94001 11.5344 8.88342C11.511 8.82683 11.4767 8.77541 11.4334 8.73212C11.3901 8.68883 11.3387 8.65451 11.2821 8.63114C11.2255 8.60777 11.1648 8.59581 11.1036 8.59594H9.06188C9.00066 8.59581 8.94001 8.60777 8.88342 8.63114C8.82683 8.65451 8.77541 8.68883 8.73212 8.73212C8.68883 8.77541 8.65451 8.82683 8.63114 8.88342C8.60777 8.94001 8.59581 9.00066 8.59594 9.06188V11.1076C8.59581 11.1688 8.60777 11.2295 8.63114 11.2861C8.65451 11.3427 8.68883 11.3941 8.73212 11.4374C8.77541 11.4807 8.82683 11.515 8.88342 11.5384C8.94001 11.5617 9.00066 11.5737 9.06188 11.5736H11.1076C11.1688 11.5737 11.2295 11.5617 11.2861 11.5384C11.3427 11.515 11.3941 11.4807 11.4374 11.4374C11.4807 11.3941 11.515 11.3427 11.5384 11.2861C11.5617 11.2295 11.5737 11.1688 11.5736 11.1076L11.5696 9.06188ZM11.5696 4.89242C11.5697 4.8312 11.5577 4.77055 11.5344 4.71396C11.511 4.65737 11.4767 4.60595 11.4334 4.56266C11.3901 4.51937 11.3387 4.48505 11.2821 4.46168C11.2255 4.43831 11.1648 4.42635 11.1036 4.42648H9.06188C9.00066 4.42635 8.94001 4.43831 8.88342 4.46168C8.82683 4.48505 8.77541 4.51937 8.73212 4.56266C8.68883 4.60595 8.65451 4.65737 8.63114 4.71396C8.60777 4.77055 8.59581 4.8312 8.59594 4.89242V6.93816C8.59581 6.99938 8.60777 7.06003 8.63114 7.11662C8.65451 7.17321 8.68883 7.22463 8.73212 7.26792C8.77541 7.31121 8.82683 7.34553 8.88342 7.3689C8.94001 7.39227 9.00066 7.40423 9.06188 7.4041H11.1076C11.1688 7.40423 11.2295 7.39227 11.2861 7.3689C11.3427 7.34553 11.3941 7.31121 11.4374 7.26792C11.4807 7.22463 11.515 7.17321 11.5384 7.11662C11.5617 7.06003 11.5737 6.99938 11.5736 6.93816L11.5696 4.89242Z"></path>
</symbol>

<symbol id="services" viewBox="0 0 16 16">
  <path d="M8 0.25C1.8 0.25 0.25 1.8 0.25 8C0.25 14.2 1.8 15.75 8 15.75C14.2 15.75 15.75 14.2 15.75 8C15.75 1.8 14.2 0.25 8 0.25ZM4.475 11.508C4.31242 11.508 4.1535 11.4598 4.01832 11.3695C3.88314 11.2791 3.77779 11.1508 3.71557 11.0006C3.65336 10.8504 3.63708 10.6851 3.66879 10.5256C3.70051 10.3662 3.7788 10.2197 3.89376 10.1048C4.00872 9.9898 4.15518 9.91151 4.31464 9.87979C4.47409 9.84808 4.63936 9.86436 4.78957 9.92657C4.93977 9.98879 5.06815 10.0941 5.15847 10.2293C5.24879 10.3645 5.297 10.5234 5.297 10.686C5.297 10.904 5.2104 11.1131 5.05624 11.2672C4.90209 11.4214 4.69301 11.508 4.475 11.508ZM4.475 8.835C4.31251 8.83441 4.15384 8.78567 4.01904 8.69494C3.88423 8.60421 3.77934 8.47557 3.71762 8.32526C3.65589 8.17495 3.6401 8.00972 3.67224 7.85044C3.70437 7.69116 3.783 7.54497 3.89817 7.43035C4.01335 7.31573 4.15991 7.23782 4.31935 7.20646C4.47879 7.1751 4.64394 7.19169 4.79395 7.25415C4.94396 7.31661 5.07209 7.42212 5.16216 7.55736C5.25223 7.69261 5.3002 7.85151 5.3 8.014C5.29987 8.12212 5.27841 8.22914 5.23686 8.32895C5.1953 8.42876 5.13446 8.51939 5.05783 8.59566C4.98119 8.67192 4.89027 8.73232 4.79026 8.77339C4.69025 8.81446 4.58311 8.83539 4.475 8.835ZM4.475 6.163C4.31255 6.16241 4.15392 6.11369 4.01914 6.02301C3.88436 5.93233 3.77947 5.80374 3.71771 5.65349C3.65596 5.50324 3.64011 5.33806 3.67216 5.1788C3.70422 5.01955 3.78274 4.87336 3.89782 4.75871C4.0129 4.64405 4.15937 4.56606 4.31874 4.53458C4.47811 4.50311 4.64323 4.51956 4.79325 4.58186C4.94328 4.64417 5.07148 4.74952 5.16167 4.88463C5.25186 5.01975 5.3 5.17855 5.3 5.341C5.3 5.4492 5.27864 5.55633 5.23714 5.65626C5.19565 5.75619 5.13483 5.84694 5.05818 5.92331C4.98153 5.99967 4.89056 6.06016 4.79049 6.10129C4.69041 6.14242 4.5832 6.16339 4.475 6.163ZM11.894 11.052C11.894 11.1015 11.8842 11.1505 11.8653 11.1963C11.8464 11.242 11.8186 11.2836 11.7836 11.3186C11.7486 11.3536 11.707 11.3814 11.6613 11.4003C11.6155 11.4192 11.5665 11.429 11.517 11.429H6.566C6.46601 11.429 6.37012 11.3893 6.29942 11.3186C6.22872 11.2479 6.189 11.152 6.189 11.052V10.32C6.189 10.22 6.22872 10.1241 6.29942 10.0534C6.37012 9.98272 6.46601 9.943 6.566 9.943H11.517C11.617 9.943 11.7129 9.98272 11.7836 10.0534C11.8543 10.1241 11.894 10.22 11.894 10.32V11.052ZM11.894 8.38C11.894 8.42946 11.8842 8.47844 11.8653 8.52412C11.8463 8.5698 11.8185 8.6113 11.7835 8.64623C11.7485 8.68115 11.7069 8.70883 11.6612 8.72767C11.6155 8.7465 11.5665 8.75613 11.517 8.756H6.566C6.51654 8.75613 6.46754 8.7465 6.4218 8.72767C6.37607 8.70883 6.3345 8.68115 6.29948 8.64623C6.26446 8.6113 6.23667 8.5698 6.21772 8.52412C6.19876 8.47844 6.189 8.42946 6.189 8.38V7.647C6.189 7.59754 6.19876 7.54856 6.21772 7.50288C6.23667 7.4572 6.26446 7.4157 6.29948 7.38077C6.3345 7.34585 6.37607 7.31817 6.4218 7.29933C6.46754 7.2805 6.51654 7.27087 6.566 7.271H11.517C11.5665 7.27087 11.6155 7.2805 11.6612 7.29933C11.7069 7.31817 11.7485 7.34585 11.7835 7.38077C11.8185 7.4157 11.8463 7.4572 11.8653 7.50288C11.8842 7.54856 11.894 7.59754 11.894 7.647V8.38ZM11.894 5.707C11.894 5.75651 11.8842 5.80553 11.8653 5.85127C11.8464 5.89701 11.8186 5.93857 11.7836 5.97358C11.7486 6.00859 11.707 6.03636 11.6613 6.0553C11.6155 6.07425 11.5665 6.084 11.517 6.084H6.566C6.46601 6.084 6.37012 6.04428 6.29942 5.97358C6.22872 5.90288 6.189 5.80699 6.189 5.707V4.975C6.18953 4.87536 6.22948 4.77998 6.30013 4.70971C6.37077 4.63944 6.46636 4.6 6.566 4.6H11.517C11.617 4.6 11.7129 4.63972 11.7836 4.71042C11.8543 4.78112 11.894 4.87701 11.894 4.977V5.707Z"></path>
</symbol>
    </svg>