<svg xmlns="http://www.w3.org/2000/svg" xmlns:xlink="http://www.w3.org/1999/xlink">
    
<symbol id="activity-regis" viewBox="0 0 16 16">
  <path d="M10.3181 14.3704H5.00558C4.84904 14.3699 4.69909 14.3075 4.5885 14.1967C4.4779 14.086 4.41567 13.936 4.41541 13.7796V10.8545C4.41742 10.6592 4.4781 10.469 4.58957 10.3086C4.70105 10.1481 4.85818 10.0249 5.04059 9.95477L8.5416 8.62617L12.1726 10.0038C12.3034 10.0532 12.4458 10.0628 12.582 10.0313C12.7182 9.99985 12.842 9.92878 12.9378 9.82705C13.0336 9.72533 13.0971 9.59751 13.1202 9.45975C13.1434 9.32199 13.1252 9.18047 13.0679 9.05304C13.0304 8.96827 12.9763 8.89187 12.9088 8.82834C12.8413 8.76481 12.7617 8.71544 12.6748 8.68316L10.5162 7.85541C11.1991 7.42775 11.7242 6.78966 12.0123 6.03748C12.3004 5.28529 12.3358 4.45985 12.1132 3.68579C11.8906 2.91172 11.422 2.23104 10.7782 1.74654C10.1345 1.26203 9.35048 1 8.5446 1C7.73871 1 6.9547 1.26203 6.31094 1.74654C5.66718 2.23104 5.19862 2.91172 4.97601 3.68579C4.75339 4.45985 4.7888 5.28529 5.0769 6.03748C5.365 6.78966 5.89014 7.42775 6.57303 7.85541L4.53844 8.62717C4.08705 8.79989 3.69852 9.10508 3.42394 9.50262C3.14935 9.90016 3.00156 10.3714 3 10.8545V13.7806C3 14.3109 3.21077 14.8194 3.58596 15.1944C3.96114 15.5694 4.46999 15.78 5.00058 15.78H10.3181C10.5054 15.78 10.685 15.7056 10.8175 15.5733C10.9499 15.4409 11.0243 15.2614 11.0243 15.0742C11.0243 14.887 10.9499 14.7075 10.8175 14.5751C10.685 14.4428 10.5054 14.3684 10.3181 14.3684V14.3704ZM6.24593 4.73336C6.24593 4.2786 6.38087 3.83405 6.63367 3.45593C6.88647 3.07781 7.24578 2.78311 7.66617 2.60908C8.08656 2.43505 8.54915 2.38951 8.99543 2.47823C9.44172 2.56695 9.85166 2.78594 10.1734 3.1075C10.4952 3.42907 10.7143 3.83876 10.8031 4.28478C10.8918 4.7308 10.8463 5.19312 10.6721 5.61326C10.498 6.0334 10.2031 6.3925 9.82478 6.64515C9.44643 6.89781 9.00163 7.03266 8.5466 7.03266C7.93642 7.03266 7.35124 6.79041 6.91978 6.35921C6.48833 5.928 6.24593 5.34317 6.24593 4.73336Z"></path><path d="M15.2381 10.597C15.1054 10.4644 14.9257 10.39 14.7384 10.39C14.551 10.39 14.3713 10.4644 14.2386 10.597L12.0539 12.7871L11.2714 12.0043C11.2058 11.9386 11.1279 11.8865 11.0421 11.8509C10.9564 11.8153 10.8645 11.797 10.7717 11.797C10.6789 11.797 10.587 11.8153 10.5013 11.8509C10.4155 11.8865 10.3376 11.9386 10.272 12.0043C10.2064 12.0701 10.1543 12.1481 10.1188 12.234C10.0833 12.3198 10.065 12.4119 10.065 12.5048C10.065 12.5978 10.0833 12.6898 10.1188 12.7757C10.1543 12.8616 10.2064 12.9396 10.272 13.0053L11.5422 14.2786L12.0919 14.75L15.2371 11.5979C15.3029 11.5323 15.3551 11.4544 15.3908 11.3685C15.4265 11.2827 15.4449 11.1906 15.445 11.0977C15.4451 11.0047 15.4269 10.9126 15.3914 10.8266C15.3558 10.7407 15.3037 10.6627 15.2381 10.597Z"></path>
</symbol>

<symbol id="advance" viewBox="0 0 16 16">
  <path d="M3.76601 14.37C3.09727 14.37 2.44355 14.1716 1.88752 13.8C1.3315 13.4284 0.898149 12.9001 0.642279 12.2821C0.386408 11.6641 0.319512 10.9841 0.450049 10.3281C0.580587 9.67205 0.902695 9.06948 1.37564 8.59656C1.84858 8.12365 2.45111 7.80165 3.10702 7.67127C3.76294 7.5409 4.44278 7.60801 5.06056 7.86412C5.67834 8.12024 6.20631 8.55385 6.57769 9.11011C6.94908 9.66638 7.14721 10.3203 7.14701 10.9892C7.14569 11.8856 6.78902 12.7449 6.15522 13.3787C5.52141 14.0124 4.66221 14.3689 3.76601 14.37ZM3.76601 8.60765C3.29509 8.60765 2.83475 8.74732 2.4432 9.00901C2.05164 9.2707 1.74647 9.64265 1.56625 10.0778C1.38604 10.513 1.33889 10.9919 1.43076 11.4538C1.52263 11.9158 1.7494 12.3402 2.08239 12.6732C2.41538 13.0063 2.83963 13.2331 3.3015 13.325C3.76337 13.4169 4.24211 13.3697 4.67718 13.1895C5.11225 13.0092 5.48411 12.704 5.74574 12.3123C6.00737 11.9207 6.14701 11.4602 6.14701 10.9892C6.14595 10.3579 5.89476 9.75276 5.44846 9.30636C5.00217 8.85996 4.39717 8.60871 3.76601 8.60765Z"></path><path d="M12.234 14.37C11.5653 14.37 10.9115 14.1716 10.3555 13.8C9.7995 13.4284 9.36615 12.9001 9.11028 12.2821C8.85441 11.6641 8.78751 10.9841 8.91805 10.3281C9.04859 9.67205 9.37069 9.06948 9.84364 8.59656C10.3166 8.12365 10.9191 7.80165 11.575 7.67127C12.2309 7.5409 12.9108 7.60801 13.5286 7.86412C14.1463 8.12024 14.6743 8.55385 15.0457 9.11011C15.4171 9.66638 15.6152 10.3203 15.615 10.9892C15.6137 11.8856 15.257 12.7449 14.6232 13.3787C13.9894 14.0124 13.1302 14.3689 12.234 14.37Z"></path><path d="M13.428 2.10112C13.3639 2.01606 13.2833 1.94484 13.1911 1.89173C13.0988 1.83862 12.9967 1.80471 12.891 1.79204C12.7106 1.77542 12.5308 1.83005 12.3901 1.94425C12.2494 2.05845 12.1589 2.22316 12.138 2.40319L11.976 3.77351C11.5373 3.14588 10.9612 2.62659 10.2916 2.25516C9.62207 1.88372 8.87662 1.66991 8.11201 1.63C5.22901 1.64501 3.21201 4.86877 3.12701 5.0058C3.02265 5.17531 2.98988 5.37935 3.03592 5.57303C3.08196 5.76671 3.20304 5.93416 3.37251 6.03854C3.45643 6.09023 3.5497 6.12488 3.647 6.14051C3.7443 6.15614 3.84373 6.15245 3.93961 6.12965C4.13324 6.0836 4.30065 5.9625 4.40501 5.79299C4.42101 5.76598 6.09301 3.14036 8.12101 3.13036H8.13301C8.65498 3.17475 9.16083 3.33331 9.61477 3.59482C10.0687 3.85632 10.4597 4.2144 10.76 4.64371L9.38901 4.38865C9.20842 4.37154 9.02835 4.42614 8.88766 4.54066C8.74697 4.65519 8.65694 4.82046 8.63701 5.0008C8.61726 5.19129 8.66909 5.38232 8.7824 5.5367C8.89571 5.69108 9.06239 5.79777 9.25001 5.836L12.213 6.38913L12.294 6.40113C12.5142 6.42165 12.7337 6.35501 12.9053 6.2155C13.0769 6.076 13.1871 5.87475 13.212 5.65495L13.571 2.63824C13.5933 2.44753 13.5422 2.25546 13.428 2.10112Z"></path>
</symbol>

<symbol id="anniversary" viewBox="0 0 16 16">
  <path d="M2.6 14.2V5.59995H13.5V14.2H2.6ZM13.4 1.79995H12.6V0.199951H11V1.79995H4.9V0.199951H3.3V1.79995H2.6C1.7 1.79995 1 2.49995 1 3.29995V14.2C1 15.1 1.7 15.8 2.6 15.8H13.5C14.4 15.8 15.1 15.1 15.1 14.2V3.29995C15 2.49995 14.3 1.79995 13.4 1.79995Z"></path><path d="M8 12.6L7.6 12.2C6.1 10.8 5.1 9.99995 5.1 8.89995C5.1 7.99995 5.8 7.29995 6.7 7.29995C7.2 7.29995 7.7 7.49995 8 7.89995C8.3 7.49995 8.8 7.29995 9.3 7.29995C10.2 7.29995 10.9 7.99995 10.9 8.89995C10.9 9.99995 9.9 10.9 8.4 12.2L8 12.6Z"></path>
</symbol>

<symbol id="apple" viewBox="0 0 16 16">
  <path d="M7.69127 4.64768C7.57887 3.60569 7.3856 2.57402 7.11318 1.562C6.91316 1.30002 6.60111 1.20603 6.60111 0.83707C6.63764 0.71564 6.71233 0.60921 6.81412 0.533552C6.9159 0.457895 7.03936 0.417039 7.16619 0.417039C7.29303 0.417039 7.41648 0.457895 7.51827 0.533552C7.62005 0.60921 7.69474 0.71564 7.73127 0.83707C7.94572 1.88 8.04632 2.94312 8.03131 4.00775C8.03131 4.00775 8.27835 1.46501 9.68055 0.615092C10.843 0.11663 12.1335 -0.0013216 13.3671 0.278127C13.3671 0.278127 12.647 2.57789 10.7727 3.04485C9.77217 3.24429 8.84566 3.71469 8.09432 4.40471L8.11833 4.65868C9.46752 4.60469 9.96659 3.67878 11.9389 4.5217C12.7169 4.83291 13.3759 5.38311 13.821 6.09295C14.2661 6.80279 14.4741 7.6356 14.4152 8.4713C14.4152 10.5711 12.565 14.9706 9.60254 15.8116C9.20748 15.9245 8.49338 15.5716 7.99531 15.5716C7.49724 15.5716 6.83214 16.0285 6.28907 15.8116C3.57168 14.7287 1.57539 10.4521 1.57539 8.4713C1.5644 7.6309 1.79075 6.80445 2.22844 6.08688C2.66612 5.36931 3.2974 4.78972 4.04975 4.41471C5.63597 3.76577 6.41808 4.5347 7.69127 4.64768Z"></path>
</symbol>

<symbol id="bars" viewBox="0 0 16 16">
  <path d="M2.0846 0.5H0.585007V15.5H2.0846V0.5Z"></path><path d="M6.5284 3.27881H5.02881V15.5H6.5284V3.27881Z"></path><path d="M10.9712 6.61159H9.47161V15.5H10.9712V6.61159Z"></path><path d="M15.415 1.61193H13.9154V15.5H15.415V1.61193Z"></path>
</symbol>

<symbol id="bgcheck-clear" viewBox="0 0 16 16">
  <path d="M15.247 2.48716L8.47799 0.271417C8.16748 0.169456 7.8325 0.169456 7.52199 0.271417L0.752996 2.48716C0.646069 2.52213 0.552919 2.58997 0.486836 2.68101C0.420752 2.77204 0.38511 2.88162 0.384996 2.99411V7.72156C0.384468 8.55381 0.576355 9.37491 0.945671 10.1207C1.31499 10.8666 1.85173 11.5169 2.514 12.0211L7.06899 15.4907C7.33654 15.6945 7.66362 15.8049 7.99999 15.8049C8.33637 15.8049 8.66345 15.6945 8.93099 15.4907L13.486 12.0211C14.1483 11.5169 14.685 10.8666 15.0543 10.1207C15.4236 9.37491 15.6155 8.55381 15.615 7.72156V2.99411C15.6149 2.88162 15.5792 2.77204 15.5132 2.68101C15.4471 2.58997 15.3539 2.52213 15.247 2.48716ZM11.431 6.61969L7.49099 10.6892C7.48057 10.6999 7.46812 10.7083 7.45438 10.7141C7.44065 10.7199 7.42589 10.7228 7.41099 10.7228C7.39609 10.7228 7.38134 10.7199 7.36761 10.7141C7.35387 10.7083 7.34142 10.6999 7.33099 10.6892L4.56899 7.85055C4.54871 7.82965 4.53737 7.80168 4.53737 7.77256C4.53737 7.74344 4.54871 7.71546 4.56899 7.69457L5.65799 6.5757C5.66834 6.56508 5.6807 6.55665 5.69435 6.55089C5.70801 6.54513 5.72268 6.54216 5.73749 6.54216C5.75231 6.54216 5.76698 6.54513 5.78064 6.55089C5.79429 6.55665 5.80665 6.56508 5.81699 6.5757L7.32399 8.12552C7.33753 8.13824 7.35541 8.14533 7.37399 8.14533C7.39258 8.14533 7.41046 8.13824 7.42399 8.12552L10.144 5.30884C10.1544 5.2982 10.1669 5.28974 10.1806 5.28397C10.1943 5.2782 10.2091 5.27523 10.224 5.27523C10.2389 5.27523 10.2536 5.2782 10.2674 5.28397C10.2811 5.28974 10.2936 5.2982 10.304 5.30884L11.427 6.46371C11.4478 6.48408 11.4599 6.51177 11.4606 6.54089C11.4614 6.57001 11.4507 6.59828 11.431 6.61969Z"></path>
</symbol>

<symbol id="bgcheck-expired" viewBox="0 0 16 16">
  <path d="M8.30559 8.29309H7.70441V8.89444H8.30559V8.29309Z"></path><path d="M8.30559 6.38883H7.70441V7.69175H8.30559V6.38883Z"></path><path d="M15.2192 2.48006L8.506 0.27512C8.10521 0.174895 7.80462 0.174895 7.50403 0.27512L0.790804 2.48006C0.590409 2.48006 0.390015 2.68051 0.390015 2.98119V7.69175C0.390015 9.39557 1.19159 10.9992 2.49416 12.0014L7.10324 15.5093C7.40383 15.7097 7.70442 15.81 8.00501 15.81C8.30561 15.81 8.7064 15.7097 8.90679 15.5093L13.5159 12.0014C14.8184 10.9992 15.62 9.39557 15.62 7.69175V2.98119C15.62 2.78074 15.4196 2.58029 15.2192 2.48006ZM11.0109 9.89669H5.09929C4.8989 9.89669 4.6985 9.59602 4.7987 9.39557L7.70442 4.28411C7.90482 4.18388 8.20541 4.18388 8.30561 4.38433L11.2113 9.49579C11.4117 9.69624 11.2113 9.89669 11.0109 9.89669Z"></path>
</symbol>

<symbol id="bgcheck-none" viewBox="0 0 16 16">
  <path d="M6.20146 6.30389C6.00107 6.70414 5.90087 7.00433 5.90087 7.40459C5.90087 8.60536 6.90284 9.606 8.10521 9.606C8.506 9.606 8.90679 9.50594 9.20738 9.30581L6.20146 6.30389Z"></path><path d="M8.10521 5.20318C7.70442 5.20318 7.30363 5.40331 7.00304 5.50337L10.009 8.5053C10.2094 8.2051 10.3096 7.80485 10.3096 7.40459C10.3096 6.20382 9.30758 5.20318 8.10521 5.20318Z"></path><path d="M15.2192 2.50143L8.506 0.300024C8.10521 0.19996 7.80462 0.19996 7.50403 0.300024L0.790804 2.50143C0.590409 2.50143 0.390015 2.70156 0.390015 3.00175V7.70477C0.390015 9.40586 1.19159 11.0069 2.49416 12.0075L7.10324 15.5098C7.40383 15.7099 7.70442 15.81 8.00501 15.81C8.30561 15.81 8.7064 15.7099 8.90679 15.5098L13.5159 12.0075C14.8184 11.0069 15.62 9.40586 15.62 7.70477V3.00175C15.62 2.80163 15.4196 2.6015 15.2192 2.50143ZM8.10521 10.5066C6.40186 10.5066 4.99909 9.10566 4.99909 7.40457C4.99909 5.70348 6.40186 4.40265 8.10521 4.40265C9.80857 4.40265 11.2113 5.80355 11.2113 7.50464C11.2113 9.20573 9.80857 10.5066 8.10521 10.5066Z"></path>
</symbol>

<symbol id="bgcheck-notclear" viewBox="0 0 16 16">
  <path d="M15.2192 2.48006L8.506 0.27512C8.10521 0.174895 7.80462 0.174895 7.50403 0.27512L0.790804 2.48006C0.590409 2.48006 0.390015 2.68051 0.390015 2.98119V7.69175C0.390015 9.39557 1.19159 10.9992 2.49416 12.0014L7.10324 15.5093C7.40383 15.7097 7.70442 15.81 8.00501 15.81C8.30561 15.81 8.7064 15.7097 8.90679 15.5093L13.5159 12.0014C14.8184 10.9992 15.62 9.39557 15.62 7.69175V2.98119C15.62 2.78074 15.4196 2.58029 15.2192 2.48006ZM10.6101 8.99467L9.60817 9.99692L8.00501 8.49355L6.40186 10.0971L5.39988 9.09489L7.00304 7.4913L5.39988 5.8877L6.40186 4.88546L8.00501 6.48905L9.60817 4.88546L10.6101 5.8877L9.10719 7.39107L10.6101 8.99467Z"></path>
</symbol>

<symbol id="bgcheck-pending" viewBox="0 0 16 16">
  <path d="M15.2192 2.50143L8.506 0.300024C8.10521 0.19996 7.80462 0.19996 7.50403 0.300024L0.790804 2.50143C0.590409 2.50143 0.390015 2.70156 0.390015 3.00175V7.70477C0.390015 9.40586 1.19159 11.0069 2.49416 12.0075L7.10324 15.5098C7.40383 15.7099 7.70442 15.81 8.00501 15.81C8.30561 15.81 8.7064 15.7099 8.90679 15.5098L13.5159 12.0075C14.8184 11.0069 15.62 9.40586 15.62 7.70477V3.00175C15.62 2.80163 15.4196 2.6015 15.2192 2.50143ZM4.19751 8.30515C3.49613 8.30515 2.99515 7.70477 2.99515 7.10438C2.99515 6.40393 3.59633 5.90361 4.19751 5.90361C4.8989 5.90361 5.39988 6.504 5.39988 7.10438C5.50008 7.70477 4.8989 8.30515 4.19751 8.30515ZM8.10521 8.30515C7.40383 8.30515 6.90284 7.70477 6.90284 7.00432C6.90284 6.30387 7.50403 5.80355 8.10521 5.80355C8.80659 5.80355 9.40778 6.30387 9.40778 7.00432C9.40778 7.70477 8.80659 8.30515 8.10521 8.30515ZM11.8125 8.30515C11.1111 8.30515 10.6101 7.70477 10.6101 7.10438C10.6101 6.40393 11.2113 5.90361 11.8125 5.90361C12.5139 5.90361 13.0149 6.504 13.0149 7.10438C13.1151 7.70477 12.5139 8.30515 11.8125 8.30515Z"></path>
</symbol>

<symbol id="bulk-actions" viewBox="0 0 16 16">
  <path d="M9.1165 7.48305C9.76709 7.48305 10.2945 6.95565 10.2945 6.30505C10.2945 5.65446 9.76709 5.12705 9.1165 5.12705C8.46591 5.12705 7.9385 5.65446 7.9385 6.30505C7.9385 6.95565 8.46591 7.48305 9.1165 7.48305Z"></path><path d="M13.1155 1.30505H5.1155C4.85029 1.30505 4.59593 1.41041 4.4084 1.59795C4.22086 1.78548 4.1155 2.03984 4.1155 2.30505V10.3051C4.1155 10.5703 4.22086 10.8246 4.4084 11.0122C4.59593 11.1997 4.85029 11.3051 5.1155 11.3051H13.1155C13.3807 11.3051 13.6351 11.1997 13.8226 11.0122C14.0101 10.8246 14.1155 10.5703 14.1155 10.3051V2.30505C14.1155 2.03984 14.0101 1.78548 13.8226 1.59795C13.6351 1.41041 13.3807 1.30505 13.1155 1.30505ZM11.5155 6.30505C11.5149 6.40975 11.5075 6.5143 11.4935 6.61805L12.1685 7.14605C12.1967 7.17002 12.2159 7.20295 12.2228 7.23934C12.2298 7.27573 12.224 7.3134 12.2065 7.34605L11.5665 8.45305C11.5481 8.48776 11.5173 8.51424 11.4802 8.52722C11.4431 8.5402 11.4025 8.53871 11.3665 8.52305L10.5665 8.20305C10.4007 8.33041 10.2192 8.43594 10.0265 8.51705L9.9055 9.36405C9.90015 9.40168 9.88124 9.43606 9.85233 9.46073C9.82343 9.4854 9.7865 9.49868 9.7485 9.49805H8.4765C8.43856 9.49887 8.40165 9.48564 8.37286 9.46091C8.34407 9.43618 8.32542 9.40169 8.3205 9.36405L8.2005 8.52105C8.00722 8.4411 7.82559 8.33548 7.6605 8.20705L6.8605 8.52705C6.82436 8.54178 6.78409 8.5428 6.74725 8.52991C6.71042 8.51701 6.67957 8.49111 6.6605 8.45705L6.0275 7.35005C6.00994 7.31733 6.00423 7.27955 6.01134 7.2431C6.01844 7.20665 6.03793 7.17378 6.0665 7.15005L6.7405 6.62205C6.71117 6.41442 6.71117 6.20369 6.7405 5.99605L6.0665 5.46805C6.03728 5.4448 6.0173 5.4119 6.01015 5.37524C6.003 5.33858 6.00915 5.30058 6.0275 5.26805L6.6675 4.16105C6.6859 4.12635 6.71672 4.09986 6.75379 4.08689C6.79087 4.07391 6.83148 4.0754 6.8675 4.09105L7.6675 4.41105C7.83332 4.2837 8.0148 4.17817 8.2075 4.09705L8.3295 3.25005C8.33442 3.21242 8.35307 3.17793 8.38186 3.1532C8.41065 3.12847 8.44756 3.11524 8.4855 3.11605H9.7555C9.7935 3.11543 9.83043 3.1287 9.85933 3.15338C9.88824 3.17805 9.90715 3.21243 9.9125 3.25005L10.0335 4.09705C10.2268 4.17701 10.4084 4.28262 10.5735 4.41105L11.3735 4.09105C11.4096 4.07632 11.4499 4.07531 11.4867 4.0882C11.5236 4.10109 11.5544 4.127 11.5735 4.16105L12.2005 5.26005C12.218 5.29271 12.2238 5.33037 12.2168 5.36677C12.2099 5.40316 12.1907 5.43609 12.1625 5.46005L11.4875 5.98805C11.5031 6.09304 11.5117 6.19893 11.5135 6.30505H11.5155Z"></path><path d="M3.1145 11.3051V4.30505H2.1145C1.84929 4.30505 1.59493 4.41041 1.4074 4.59795C1.21986 4.78548 1.1145 5.03984 1.1145 5.30505V13.3051C1.1145 13.5703 1.21986 13.8246 1.4074 14.0122C1.59493 14.1997 1.84929 14.3051 2.1145 14.3051H10.1145C10.3797 14.3051 10.6341 14.1997 10.8216 14.0122C11.0091 13.8246 11.1145 13.5703 11.1145 13.3051V12.3051H4.1145C3.98318 12.3051 3.85314 12.2792 3.73182 12.2289C3.61049 12.1787 3.50025 12.105 3.4074 12.0122C3.31454 11.9193 3.24088 11.8091 3.19062 11.6877C3.14037 11.5664 3.1145 11.4364 3.1145 11.3051Z"></path>
</symbol>

<symbol id="card-complete" viewBox="0 0 16 16">
  <path d="M9.71714 6.94309L7.47526 9.26689C7.46967 9.27264 7.46299 9.27721 7.45561 9.28033C7.44823 9.28345 7.4403 9.28505 7.43228 9.28505C7.42427 9.28505 7.41634 9.28345 7.40896 9.28033C7.40158 9.27721 7.39489 9.27264 7.38931 9.26689L6.14793 7.98745C6.13936 7.97861 6.1291 7.97159 6.11777 7.9668C6.10644 7.962 6.09426 7.95953 6.08196 7.95953C6.06966 7.95953 6.05748 7.962 6.04615 7.9668C6.03482 7.97159 6.02456 7.97861 6.01599 7.98745L5.11644 8.91077C5.0996 8.92781 5.09015 8.95082 5.09015 8.97479C5.09015 8.99876 5.0996 9.02177 5.11644 9.03881L7.3923 11.3806C7.40087 11.3895 7.41113 11.3965 7.42246 11.4013C7.43379 11.4061 7.44597 11.4085 7.45827 11.4085C7.47057 11.4085 7.48275 11.4061 7.49408 11.4013C7.50541 11.3965 7.51567 11.3895 7.52424 11.3806L10.7716 8.02346C10.788 8.00618 10.7971 7.98326 10.7971 7.95944C10.7971 7.93562 10.788 7.9127 10.7716 7.89542L9.84608 6.94208C9.82875 6.92529 9.80552 6.91599 9.7814 6.91618C9.75729 6.91636 9.73421 6.92603 9.71714 6.94309Z"></path><path d="M13.3133 0.839966L1.6072 0.932998C1.39833 0.930621 1.19104 0.969478 0.997191 1.04735C0.803341 1.12521 0.62673 1.24057 0.477459 1.3868C0.328188 1.53304 0.209186 1.7073 0.127259 1.89961C0.0453327 2.09191 0.00208844 2.2985 0 2.50754V13.5854C0.00448498 14.0061 0.175237 14.4079 0.474918 14.703C0.774599 14.9981 1.17882 15.1623 1.5992 15.1599H14.4008C14.8212 15.1623 15.2254 14.9981 15.5251 14.703C15.8248 14.4079 15.9955 14.0061 16 13.5854V3.70496L13.3133 0.839966ZM14.6267 13.5854C14.6254 13.6454 14.6007 13.7025 14.558 13.7445C14.5152 13.7866 14.4577 13.8102 14.3978 13.8105H1.6072C1.54726 13.8102 1.48978 13.7866 1.44703 13.7445C1.40427 13.7025 1.37961 13.6454 1.37831 13.5854V2.50754C1.37961 2.44757 1.40427 2.39047 1.44703 2.34843C1.48978 2.30638 1.54726 2.28271 1.6072 2.28247L10.7026 2.20344V6.22384H14.6237L14.6267 13.5854ZM12.3188 4.64429V2.19444L14.5767 4.64429H12.3188Z"></path>
</symbol>

<symbol id="card-removed" viewBox="0 0 16 16">
  <path d="M8.03298 8.59966L6.73963 7.30521L5.87806 8.16851L7.17141 9.46296L5.87806 10.7574L6.73963 11.6197L8.03298 10.3253L9.32634 11.6197L10.1889 10.7574L8.89555 9.46296L10.1889 8.16851L9.32634 7.30521L8.03298 8.59966Z"></path><path d="M13.3133 0.839966L1.6072 0.932998C1.39833 0.930621 1.19104 0.969478 0.997191 1.04735C0.803341 1.12521 0.62673 1.24057 0.477459 1.3868C0.328188 1.53304 0.209186 1.7073 0.127259 1.89961C0.0453327 2.09191 0.00208844 2.2985 0 2.50754V13.5854C0.00448498 14.0061 0.175237 14.4079 0.474918 14.703C0.774599 14.9981 1.17882 15.1623 1.5992 15.1599H14.4008C14.8212 15.1623 15.2254 14.9981 15.5251 14.703C15.8248 14.4079 15.9955 14.0061 16 13.5854V3.70496L13.3133 0.839966ZM14.6267 13.5854C14.6254 13.6454 14.6007 13.7025 14.558 13.7445C14.5152 13.7866 14.4577 13.8102 14.3978 13.8105H1.6072C1.54726 13.8102 1.48978 13.7866 1.44703 13.7445C1.40427 13.7025 1.37961 13.6454 1.37831 13.5854V2.50754C1.37961 2.44757 1.40427 2.39047 1.44703 2.34843C1.48978 2.30638 1.54726 2.28271 1.6072 2.28247L12.3188 2.18943L14.6317 4.69931L14.6267 13.5854Z"></path><path d="M16 6.22384H10.7056V0.958007H12.3188V4.64429H16V6.22384Z"></path>
</symbol>

<symbol id="comment-outline" viewBox="0 0 16 16">
  <path d="M4.99999 5.98851C4.83282 5.98851 4.66941 6.03811 4.53043 6.13102C4.39145 6.22394 4.28314 6.35601 4.21921 6.51051C4.15529 6.66501 4.13861 6.83501 4.1713 6.99899C4.20398 7.16298 4.28456 7.31358 4.40284 7.43175C4.52111 7.54991 4.67177 7.63034 4.83575 7.66284C4.99973 7.69533 5.16966 7.67845 5.32405 7.61433C5.47843 7.5502 5.61034 7.44171 5.70307 7.30258C5.7958 7.16346 5.84519 6.99994 5.84499 6.83273C5.84499 6.72178 5.82312 6.61192 5.78065 6.50943C5.73817 6.40694 5.67591 6.31383 5.59743 6.23542C5.51895 6.15702 5.42579 6.09485 5.32328 6.05248C5.22077 6.01012 5.11091 5.98838 4.99999 5.98851Z"></path><path d="M7.99999 5.98851C7.83282 5.98851 7.66941 6.03811 7.53043 6.13102C7.39145 6.22394 7.28314 6.35601 7.21921 6.51051C7.15529 6.66501 7.13861 6.83501 7.1713 6.99899C7.20398 7.16298 7.28456 7.31358 7.40284 7.43175C7.52111 7.54991 7.67177 7.63034 7.83575 7.66284C7.99973 7.69533 8.16966 7.67845 8.32405 7.61433C8.47844 7.5502 8.61034 7.44171 8.70307 7.30258C8.7958 7.16346 8.84519 6.99994 8.84499 6.83273C8.84472 6.60874 8.75558 6.39401 8.59714 6.23571C8.4387 6.07742 8.22392 5.98851 7.99999 5.98851Z"></path><path d="M11 5.98851C10.8328 5.98831 10.6693 6.03774 10.5302 6.13054C10.391 6.22334 10.2826 6.35533 10.2185 6.50982C10.1544 6.6643 10.1376 6.83433 10.1702 6.99838C10.2027 7.16243 10.2832 7.31313 10.4015 7.43139C10.5197 7.54966 10.6704 7.63018 10.8344 7.66276C10.9984 7.69534 11.1684 7.67852 11.3228 7.61442C11.4773 7.55033 11.6092 7.44184 11.702 7.30269C11.7948 7.16354 11.8442 6.99999 11.844 6.83273C11.844 6.60883 11.7551 6.3941 11.5968 6.23578C11.4385 6.07745 11.2238 5.98851 11 5.98851Z"></path><path d="M11.319 0.415039H4.68099C3.45318 0.416363 2.27603 0.904824 1.40784 1.77325C0.539644 2.64167 0.0513113 3.81913 0.0499878 5.04726V8.40014C0.051176 9.59314 0.517569 10.7386 1.34999 11.593L1.12999 15.585L5.67199 13.0364H11.319C12.5475 13.035 13.7252 12.546 14.5935 11.6767C15.4619 10.8075 15.9497 9.62897 15.95 8.40014V5.04726C15.9487 3.81913 15.4603 2.64167 14.5921 1.77325C13.7239 0.904824 12.5468 0.416363 11.319 0.415039ZM14.353 8.40014C14.3522 9.20478 14.0323 9.97623 13.4635 10.5452C12.8947 11.1142 12.1234 11.4341 11.319 11.4349H5.23899L2.79999 12.9894L3.00999 10.9318L2.78799 10.7538C2.43368 10.472 2.14719 10.1142 1.9497 9.70685C1.7522 9.29946 1.64875 8.85289 1.64699 8.40014V5.04626C1.64778 4.24162 1.96769 3.47017 2.5365 2.90121C3.10532 2.33225 3.87656 2.01225 4.68099 2.01146H11.319C12.1234 2.01225 12.8947 2.33225 13.4635 2.90121C14.0323 3.47017 14.3522 4.24162 14.353 5.04626V8.40014Z"></path>
</symbol>

<symbol id="comment" viewBox="0 0 16 16">
  <path d="M11.3214 0.415039H4.68159C3.45379 0.416362 2.27665 0.904686 1.40838 1.77289C0.540102 2.6411 0.0515914 3.8183 0.0500031 5.04626V8.40415C0.051663 9.59675 0.518064 10.7417 1.35017 11.596L1.12814 15.585L5.67071 13.0354H11.3194C12.5471 13.034 13.7242 12.5457 14.5923 11.6775C15.4604 10.8092 15.9487 9.63202 15.95 8.40415V5.04626C15.9487 3.81874 15.4607 2.64184 14.593 1.77366C13.7253 0.905482 12.5488 0.416892 11.3214 0.415039ZM4.99863 7.67495C4.83144 7.67515 4.66795 7.62575 4.52884 7.53299C4.38973 7.44024 4.28125 7.3083 4.21714 7.15388C4.15302 6.99945 4.13614 6.82947 4.16864 6.66545C4.20113 6.50143 4.28154 6.35073 4.39969 6.23242C4.51784 6.11412 4.66842 6.03352 4.83239 6.00082C4.99635 5.96813 5.16632 5.98481 5.3208 6.04875C5.47528 6.11269 5.60733 6.22103 5.70024 6.36005C5.79314 6.49906 5.84273 6.66252 5.84273 6.82973C5.84273 7.05372 5.75383 7.26856 5.59556 7.42704C5.43729 7.58552 5.22259 7.67469 4.99863 7.67495ZM7.999 7.67495C7.83186 7.67495 7.66846 7.62538 7.52949 7.53251C7.39051 7.43963 7.28219 7.30763 7.21823 7.15318C7.15426 6.99874 7.13753 6.82879 7.17014 6.66484C7.20274 6.50088 7.28323 6.35028 7.40142 6.23207C7.51961 6.11386 7.6702 6.03336 7.83413 6.00075C7.99807 5.96814 8.16799 5.98487 8.32241 6.04885C8.47683 6.11282 8.60882 6.22115 8.70168 6.36015C8.79454 6.49915 8.84411 6.66256 8.84411 6.82973C8.84424 6.9406 8.82254 7.0504 8.78024 7.15288C8.73794 7.25535 8.67587 7.34849 8.59758 7.42698C8.51929 7.50547 8.42631 7.56776 8.32395 7.61031C8.22159 7.65286 8.11185 7.67482 8.001 7.67495H7.999ZM10.9994 7.67495C10.8322 7.67495 10.6688 7.62538 10.5299 7.53251C10.3909 7.43963 10.2826 7.30763 10.2186 7.15318C10.1546 6.99874 10.1379 6.82879 10.1705 6.66484C10.2031 6.50088 10.2836 6.35028 10.4018 6.23207C10.52 6.11386 10.6706 6.03336 10.8345 6.00075C10.9984 5.96814 11.1684 5.98487 11.3228 6.04885C11.4772 6.11282 11.6092 6.22115 11.7021 6.36015C11.7949 6.49915 11.8445 6.66256 11.8445 6.82973C11.8448 7.05311 11.7565 7.2675 11.599 7.42592C11.4416 7.58435 11.2277 7.6739 11.0044 7.67495H10.9994Z"></path>
</symbol>

<symbol id="duplicate" viewBox="0 0 16 16">
  <path d="M2.66861 4.00116H1.33501V13.3314C1.33606 13.6847 1.4769 14.0233 1.72677 14.2732C1.97664 14.5231 2.31524 14.6639 2.66861 14.665H11.9988V13.3314H2.66861V4.00116ZM13.3314 1.33496H5.33381C4.98053 1.33602 4.64204 1.47689 4.39233 1.72679C4.14262 1.97669 4.002 2.31528 4.00121 2.66856V10.6662C4.00226 11.0193 4.143 11.3576 4.39268 11.6073C4.64236 11.857 4.9807 11.9977 5.33381 11.9988H13.3314C13.6847 11.998 14.0233 11.8573 14.2732 11.6076C14.5231 11.3579 14.6639 11.0194 14.665 10.6662V2.66856C14.664 2.31519 14.5231 1.9766 14.2732 1.72673C14.0234 1.47686 13.6848 1.33602 13.3314 1.33496ZM12.6656 7.33316H9.99941V9.99936H8.66681V7.33316H6.00061V6.00056H8.66681V3.33436H9.99941V6.00056H12.6656V7.33316Z"></path>
</symbol>

<symbol id="error-uploading" viewBox="0 0 16 16">
  <path d="M7.95701 9.37838L6.66401 8.08543L5.80101 8.94673L7.09501 10.2397L5.80101 11.5326L6.66401 12.3949L7.95701 11.102L9.25101 12.3949L10.114 11.5326L8.82001 10.2397L10.114 8.94673L9.25101 8.08543L7.95701 9.37838Z"></path><path d="M9.72701 1.61569L12.784 4.66521V14.3873H3.21601V1.61569H9.72701ZM10.4 0.00799351H2.74601C2.44312 0.00746152 2.15238 0.126972 1.93755 0.340317C1.72272 0.553662 1.60133 0.843428 1.60001 1.14607V14.8569C1.60001 15.1599 1.7204 15.4505 1.93472 15.6648C2.14905 15.8792 2.43977 15.9997 2.74301 16H13.254C13.4044 16.0003 13.5534 15.9709 13.6924 15.9136C13.8314 15.8562 13.9578 15.7721 14.0642 15.6659C14.1707 15.5597 14.2551 15.4336 14.3127 15.2948C14.3704 15.156 14.4 15.0072 14.4 14.8569V3.99675L10.4 0V0.00799351Z"></path><path d="M13.254 6.5167H7.95701V1.13907H9.57101V4.90402H13.254V6.5167Z"></path>
</symbol>

<symbol id="form-checkbox" viewBox="0 0 16 16">
  <path d="M13.4434 10.0282V13.4465H2.55657V2.5525H8.70079V1.09998H2.33664C2.01015 1.1005 1.69718 1.23052 1.46632 1.46154C1.23546 1.69255 1.10552 2.00572 1.105 2.33242V13.6665C1.10526 13.9934 1.23508 14.3068 1.46597 14.5381C1.69686 14.7693 2.00998 14.8994 2.33664 14.9H13.6634C13.99 14.8994 14.3031 14.7693 14.534 14.5381C14.7649 14.3068 14.8947 13.9934 14.895 13.6665V10.0282H13.4434Z"></path><path d="M8.37589 10.7155C8.22745 10.7161 8.0844 10.6599 7.976 10.5584L4.49101 7.33323C4.47238 7.31652 4.45724 7.29629 4.44644 7.27369C4.43565 7.2511 4.42943 7.2266 4.42813 7.2016C4.42682 7.17659 4.43047 7.15157 4.43886 7.12799C4.44726 7.1044 4.46022 7.0827 4.47702 7.06414L5.5697 5.88371C5.60447 5.84682 5.65229 5.82502 5.70292 5.82296C5.75355 5.8209 5.80298 5.83876 5.84062 5.8727L8.3299 8.17354L13.3514 3.05768C13.3689 3.03918 13.39 3.02448 13.4134 3.01449C13.4368 3.00451 13.462 2.99946 13.4874 2.99966C13.5123 2.99957 13.5369 3.00438 13.5599 3.01382C13.5828 3.02326 13.6037 3.03715 13.6214 3.05468L14.767 4.18109C14.8028 4.21692 14.8229 4.26549 14.8229 4.31614C14.8229 4.36679 14.8028 4.41536 14.767 4.45119L8.79776 10.5394C8.74289 10.5956 8.67725 10.6402 8.60476 10.6705C8.53227 10.7007 8.45443 10.716 8.37589 10.7155Z"></path>
</symbol>

<symbol id="form-dropdown" viewBox="0 0 16 16">
  <path d="M13.9627 0.869995H2.03731C1.80617 0.875242 1.58657 0.972071 1.42679 1.1392C1.26701 1.30632 1.18011 1.53007 1.18521 1.76125V14.2387C1.18011 14.4699 1.26701 14.6937 1.42679 14.8608C1.58657 15.0279 1.80617 15.1247 2.03731 15.13H13.9627C14.1938 15.1247 14.4134 15.0279 14.5732 14.8608C14.733 14.6937 14.8199 14.4699 14.8148 14.2387V1.76125C14.8199 1.53007 14.733 1.30632 14.5732 1.1392C14.4134 0.972071 14.1938 0.875242 13.9627 0.869995ZM13.1116 13.3475H2.88841V2.6525H13.1116V13.3475Z"></path><path d="M11.0565 6.53769L8.3152 10.0681C8.23043 10.1475 8.11826 10.1912 8.00205 10.19C7.89066 10.1864 7.78424 10.1431 7.7019 10.0681L4.94757 6.53769C4.8833 6.48083 4.83941 6.4045 4.82261 6.32038C4.80581 6.23625 4.81702 6.14894 4.85453 6.07177C4.88428 5.99105 4.93928 5.92206 5.01137 5.87505C5.08347 5.82804 5.16881 5.80552 5.25472 5.81082H10.7634C10.8474 5.81133 10.9295 5.83679 10.999 5.88397C11.0686 5.93115 11.1225 5.99792 11.1541 6.0758C11.1856 6.15369 11.1932 6.23917 11.176 6.32141C11.1589 6.40365 11.1176 6.47892 11.0575 6.53769H11.0565Z"></path>
</symbol>

<symbol id="form-number" viewBox="0 0 16 16">
  <path d="M1.82142 6.02591L1.30044 6.16184C1.21541 6.18408 1.12825 6.19715 1.04045 6.20082C0.882733 6.2007 0.730515 6.1429 0.612491 6.03834C0.494466 5.93378 0.418789 5.78967 0.399726 5.63319C0.380664 5.47671 0.419534 5.31866 0.509008 5.18884C0.598482 5.05903 0.732377 4.96642 0.885451 4.92846L1.84041 4.64861C2.06493 4.5768 2.29792 4.5348 2.53339 4.52367H2.55339C2.64951 4.52367 2.74469 4.54259 2.8335 4.57936C2.92231 4.61613 3.003 4.67002 3.07097 4.73796C3.13894 4.8059 3.19286 4.88655 3.22964 4.97532C3.26643 5.06408 3.28536 5.15922 3.28536 5.2553V10.6886C3.28536 10.8826 3.20824 11.0687 3.07097 11.2059C2.9337 11.3431 2.74752 11.4202 2.55339 11.4202C2.35926 11.4202 2.17308 11.3431 2.03581 11.2059C1.89853 11.0687 1.82142 10.8826 1.82142 10.6886V6.02591Z"></path><path d="M4.9743 9.91795L6.89422 8.34774C7.73219 7.66408 8.05918 7.28827 8.05918 6.72956C8.06681 6.61004 8.0484 6.4903 8.00522 6.37859C7.96204 6.26688 7.89513 6.16587 7.80908 6.08253C7.72304 5.99918 7.61993 5.9355 7.50687 5.89587C7.39381 5.85625 7.27348 5.84162 7.15421 5.853C6.93827 5.86111 6.72701 5.91825 6.53643 6.02007C6.34586 6.12189 6.18097 6.26574 6.05426 6.4407C5.9607 6.53896 5.83994 6.60709 5.70743 6.63637C5.57492 6.66564 5.43668 6.65474 5.3104 6.60505C5.18413 6.55535 5.07556 6.46914 4.99858 6.35742C4.9216 6.2457 4.87972 6.11357 4.8783 5.97793C4.88211 5.80872 4.94348 5.64585 5.05229 5.51617C5.31439 5.1887 5.65043 4.92801 6.03284 4.75548C6.41525 4.58295 6.83313 4.50351 7.25221 4.52367C7.54457 4.49 7.84075 4.51874 8.12117 4.60797C8.4016 4.6972 8.65989 4.8449 8.87897 5.0413C9.09806 5.2377 9.27295 5.47834 9.39209 5.74732C9.51123 6.01629 9.57191 6.30747 9.57012 6.60162V6.62161C9.57012 7.75104 8.99414 8.30976 7.79419 9.23429L6.69423 10.0819H9.05014C9.22147 10.0819 9.38577 10.1499 9.50692 10.271C9.62806 10.3921 9.69612 10.5563 9.69612 10.7275C9.69586 10.8117 9.6789 10.8951 9.64621 10.9727C9.61352 11.0503 9.56575 11.1206 9.50567 11.1797C9.44559 11.2387 9.3744 11.2852 9.2962 11.3165C9.21801 11.3479 9.13438 11.3634 9.05014 11.3622H5.38828C5.28864 11.3748 5.18747 11.3661 5.09143 11.3368C4.99539 11.3074 4.90666 11.2581 4.83108 11.192C4.75551 11.1259 4.69479 11.0445 4.65295 10.9533C4.6111 10.862 4.58907 10.7629 4.58831 10.6626C4.59017 10.517 4.62603 10.3738 4.69305 10.2446C4.76006 10.1153 4.85637 10.0034 4.9743 9.91795Z"></path><path d="M10.9421 10.7075C10.8661 10.6412 10.8047 10.5599 10.7617 10.4688C10.7187 10.3776 10.695 10.2786 10.6921 10.1778C10.6947 9.98962 10.7706 9.80985 10.9038 9.67676C11.0369 9.54367 11.2168 9.46776 11.4051 9.46518C11.5796 9.46583 11.7477 9.53097 11.877 9.64808C12.2377 9.97597 12.7095 10.1546 13.197 10.1478C13.3146 10.163 13.4342 10.1533 13.5478 10.1193C13.6615 10.0853 13.7667 10.0277 13.8566 9.95045C13.9466 9.87316 14.0193 9.77783 14.07 9.67063C14.1207 9.56344 14.1483 9.44679 14.1509 9.32825V9.31125C14.1509 8.76153 13.659 8.45369 12.831 8.45369H12.599C12.4308 8.45212 12.27 8.38465 12.151 8.26577C12.0321 8.1469 11.9646 7.98611 11.963 7.81801C11.9705 7.70013 12.0027 7.58515 12.0577 7.4806C12.1127 7.37605 12.1891 7.28428 12.282 7.21131L13.594 5.89198H11.52C11.3514 5.89198 11.1896 5.82501 11.0703 5.70579C10.9511 5.58658 10.8841 5.42489 10.8841 5.2563C10.8841 5.08771 10.9511 4.92602 11.0703 4.80681C11.1896 4.68759 11.3514 4.62062 11.52 4.62062H14.8059C14.8992 4.60942 14.9939 4.61791 15.0837 4.64554C15.1735 4.67317 15.2565 4.71932 15.3274 4.78101C15.3982 4.84271 15.4554 4.91858 15.4951 5.00372C15.5348 5.08885 15.5562 5.18137 15.5579 5.27529C15.5517 5.43793 15.5086 5.59704 15.4319 5.74059C15.3552 5.88414 15.2468 6.00836 15.1149 6.10387L13.794 7.36524C14.2828 7.38089 14.7461 7.58727 15.0846 7.94017C15.4231 8.29307 15.6098 8.76443 15.6049 9.25328V9.27227C15.6075 9.58184 15.5448 9.88848 15.4207 10.1721C15.2966 10.4558 15.114 10.71 14.8848 10.9183C14.6556 11.1265 14.385 11.284 14.0907 11.3805C13.7964 11.477 13.485 11.5103 13.177 11.4782C12.3624 11.506 11.5663 11.2315 10.9421 10.7075Z"></path>
</symbol>

<symbol id="form-paragraph" viewBox="0 0 16 16">
  <path d="M14.3401 2.01501H1.65994C1.21538 2.01501 0.854996 2.37537 0.854996 2.81988V3.67074C0.854996 4.11525 1.21538 4.4756 1.65994 4.4756H14.3401C14.7846 4.4756 15.145 4.11525 15.145 3.67074V2.81988C15.145 2.37537 14.7846 2.01501 14.3401 2.01501Z"></path><path d="M14.3401 6.76922H1.65994C1.21538 6.76922 0.854996 7.12957 0.854996 7.57409V8.42494C0.854996 8.86946 1.21538 9.22981 1.65994 9.22981H14.3401C14.7846 9.22981 15.145 8.86946 15.145 8.42494V7.57409C15.145 7.12957 14.7846 6.76922 14.3401 6.76922Z"></path><path d="M11.3403 11.5244H1.65994C1.21538 11.5244 0.854996 11.8848 0.854996 12.3293V13.1801C0.854996 13.6247 1.21538 13.985 1.65994 13.985H11.3403C11.7848 13.985 12.1452 13.6247 12.1452 13.1801V12.3293C12.1452 11.8848 11.7848 11.5244 11.3403 11.5244Z"></path>
</symbol>

<symbol id="form-text" viewBox="0 0 16 16">
  <path d="M2.01111 10.4211L4.36394 5.11201C4.43106 4.93725 4.55021 4.78728 4.7053 4.68233C4.86039 4.57738 5.04397 4.52251 5.23124 4.52512H5.31828C5.50434 4.5224 5.68667 4.57738 5.84019 4.68247C5.99372 4.78757 6.11088 4.93763 6.17558 5.11201L8.52841 10.4211C8.57503 10.5144 8.60096 10.6167 8.60444 10.721C8.60616 10.814 8.58933 10.9064 8.55491 10.9928C8.5205 11.0792 8.46919 11.1579 8.40399 11.2243C8.3388 11.2907 8.26102 11.3434 8.1752 11.3794C8.08938 11.4154 7.99725 11.4339 7.90419 11.4339C7.74691 11.4334 7.59368 11.384 7.46584 11.2924C7.338 11.2008 7.24191 11.0717 7.19094 10.923L6.73478 9.86315H3.76573L3.29356 10.971C3.2397 11.1081 3.14544 11.2257 3.02327 11.3082C2.90109 11.3907 2.75675 11.4342 2.60932 11.4329C2.51862 11.4331 2.42878 11.4153 2.34505 11.3805C2.26132 11.3457 2.18538 11.2945 2.12167 11.23C2.05796 11.1655 2.00776 11.0889 1.974 11.0048C1.94025 10.9206 1.92361 10.8306 1.92508 10.74C1.93124 10.6289 1.96054 10.5202 2.01111 10.4211ZM6.18458 8.55239L5.25025 6.32679L4.31492 8.55239H6.18458Z"></path><path d="M9.31371 9.89114V9.87215C9.31371 8.74535 10.171 8.22545 11.3954 8.22545C11.8257 8.22118 12.2534 8.29259 12.6589 8.43641V8.34942C12.6589 7.74253 12.2818 7.40559 11.5495 7.40559C11.2066 7.4019 10.8652 7.45079 10.5371 7.55057C10.4691 7.57521 10.3974 7.58806 10.3251 7.58856C10.2456 7.58962 10.1667 7.57489 10.0929 7.54521C10.0192 7.51554 9.95205 7.47152 9.89547 7.41571C9.83888 7.3599 9.79395 7.29341 9.76329 7.2201C9.73263 7.14679 9.71684 7.06813 9.71685 6.98867C9.71738 6.86446 9.75604 6.7434 9.8276 6.64185C9.89915 6.54029 10.0002 6.46313 10.117 6.42077C10.6446 6.22755 11.2039 6.13563 11.7656 6.14982C12.0802 6.12594 12.3965 6.16481 12.696 6.26419C12.9955 6.36358 13.2723 6.52148 13.5102 6.72872C13.7083 6.9524 13.8598 7.21334 13.9559 7.49626C14.0519 7.77919 14.0905 8.07841 14.0694 8.37642V10.726C14.0694 10.819 14.0509 10.9111 14.0149 10.9969C13.9789 11.0826 13.9261 11.1604 13.8597 11.2255C13.7933 11.2907 13.7146 11.342 13.6281 11.3764C13.5416 11.4108 13.4492 11.4276 13.3561 11.4259C13.1828 11.438 13.0118 11.3809 12.8805 11.2671C12.7492 11.1533 12.6684 10.9922 12.6559 10.819V10.809C12.4601 11.0267 12.2186 11.1984 11.9486 11.3118C11.6787 11.4252 11.3869 11.4775 11.0943 11.4649C10.8717 11.4901 10.6463 11.4683 10.4326 11.4009C10.2189 11.3335 10.0218 11.222 9.85393 11.0737C9.68609 10.9254 9.55127 10.7434 9.45821 10.5397C9.36516 10.336 9.31592 10.1151 9.31371 9.89114ZM12.6769 9.5552V9.29825C12.3827 9.16829 12.0642 9.10251 11.7426 9.10529C11.1163 9.10529 10.7302 9.35624 10.7302 9.81916V9.83815C10.7302 10.2331 11.0573 10.464 11.5305 10.464C12.2147 10.46 12.6769 10.0841 12.6769 9.5552Z"></path>
</symbol>

<symbol id="forms" viewBox="0 0 16 16">
  <path d="M13.8205 6.05011V14.8564C13.8205 15.1597 13.6999 15.4506 13.4854 15.665C13.2708 15.8795 12.9798 16 12.6764 16H2.16605C2.01564 16.0003 1.86666 15.9709 1.72763 15.9135C1.58859 15.8562 1.46224 15.772 1.35579 15.6657C1.24935 15.5595 1.1649 15.4334 1.10728 15.2945C1.04966 15.1556 1.02 15.0067 1.02 14.8564V1.13865C1.02133 0.835853 1.14272 0.545943 1.35756 0.332492C1.5724 0.11904 1.86315 -0.000530483 2.16605 1.76935e-06H11.1204L9.99033 1.6135H2.63606V14.3865H12.2044V8.3364L13.8205 6.05011Z"></path><path d="M14.4535 0.985694L13.4405 0.287912C13.1717 0.10355 12.8415 0.0317743 12.5204 0.0879743C12.3617 0.114988 12.2098 0.173043 12.0736 0.258815C11.9373 0.344587 11.8193 0.45639 11.7264 0.587818L7.66524 6.34302L7.68225 8.42637C7.68375 8.54879 7.71447 8.66909 7.77188 8.77725C7.82928 8.8854 7.91169 8.97829 8.01226 9.04817C8.11347 9.11747 8.22957 9.16199 8.35117 9.17814C8.47278 9.19429 8.59648 9.18162 8.71228 9.14114L10.6964 8.44136L14.7575 2.68816C14.85 2.55709 14.9157 2.40901 14.9507 2.25245C14.9857 2.0959 14.9894 1.93396 14.9615 1.77598C14.9336 1.618 14.8747 1.4671 14.7882 1.33197C14.7017 1.19685 14.5893 1.08018 14.4575 0.988693L14.4535 0.985694ZM13.6095 2.01037L9.84832 7.33671L9.00829 7.63661L9.00129 6.75589L12.7594 1.42955L13.6095 2.01037Z"></path><path d="M7.07922 4.62655H3.5741V5.49828H7.07922V4.62655Z"></path><path d="M7.07922 6.36601H3.5741V7.23774H7.07922V6.36601Z"></path><path d="M5.32216 8.09247H3.5741V8.9642H5.32216V8.09247Z"></path>
</symbol>

<symbol id="groups-added" viewBox="0 0 16 16">
  <path d="M12.7776 12.2749V10.9585C12.7776 10.7861 12.7091 10.6207 12.5872 10.4988C12.4653 10.3768 12.3 10.3083 12.1276 10.3083C11.9553 10.3083 11.7899 10.3768 11.668 10.4988C11.5461 10.6207 11.4777 10.7861 11.4777 10.9585V12.2749H10.1657C9.99332 12.2749 9.82799 12.3434 9.7061 12.4654C9.5842 12.5873 9.51572 12.7527 9.51572 12.9251C9.51572 13.0976 9.5842 13.2629 9.7061 13.3849C9.82799 13.5068 9.99332 13.5753 10.1657 13.5753H11.4807V14.8897C11.4807 15.0622 11.5491 15.2275 11.671 15.3495C11.7929 15.4714 11.9583 15.5399 12.1306 15.5399C12.303 15.5399 12.4683 15.4714 12.5902 15.3495C12.7121 15.2275 12.7806 15.0622 12.7806 14.8897V13.5703H14.0966C14.1837 13.5737 14.2707 13.5595 14.3522 13.5285C14.4338 13.4975 14.5082 13.4504 14.5711 13.3899C14.634 13.3294 14.684 13.2568 14.7182 13.1765C14.7524 13.0963 14.77 13.0099 14.77 12.9226C14.77 12.8354 14.7524 12.749 14.7182 12.6687C14.684 12.5884 14.634 12.5158 14.5711 12.4554C14.5082 12.3949 14.4338 12.3477 14.3522 12.3167C14.2707 12.2857 14.1837 12.2715 14.0966 12.2749H12.7776Z"></path><path d="M8.79575 14.3576H3.09593C2.91603 14.357 2.74369 14.2851 2.61676 14.1576C2.48983 14.03 2.41869 13.8573 2.41896 13.6774V10.5244C2.41918 10.3043 2.48622 10.0894 2.61122 9.90832C2.73622 9.72718 2.91327 9.58831 3.11893 9.51008L6.89581 8.06964L10.8067 9.56009C10.8868 9.59068 10.9719 9.60595 11.0577 9.60511C11.1772 9.60522 11.2949 9.57539 11.4 9.51833C11.505 9.46127 11.5941 9.3788 11.6592 9.27844C11.7242 9.17809 11.7631 9.06304 11.7722 8.9438C11.7814 8.82456 11.7606 8.70492 11.7116 8.5958C11.6733 8.50968 11.6181 8.43208 11.5495 8.3675C11.4808 8.30293 11.4 8.25268 11.3117 8.21968L8.94174 7.3144L9.10074 7.20637C9.80038 6.73495 10.3302 6.05124 10.6122 5.25593C10.8941 4.46062 10.9134 3.59576 10.667 2.78871C10.4206 1.98165 9.92167 1.27507 9.24365 0.773025C8.56563 0.270978 7.74437 0 6.90081 0C6.05725 0 5.23598 0.270978 4.55796 0.773025C3.87994 1.27507 3.38101 1.98165 3.13463 2.78871C2.88826 3.59576 2.90747 4.46062 3.18944 5.25593C3.47141 6.05124 4.00123 6.73495 4.70088 7.20637L4.85888 7.31341L2.61995 8.16767C2.14384 8.35096 1.73432 8.67406 1.44519 9.09451C1.15607 9.51495 1.00087 10.0131 1 10.5234V13.6764C0.999197 14.2342 1.21922 14.7697 1.61197 15.1658C2.00472 15.5619 2.53825 15.7863 3.09593 15.79H8.79575C8.98563 15.79 9.16775 15.7145 9.30202 15.5802C9.43629 15.4459 9.51172 15.2637 9.51172 15.0738C9.51172 14.8838 9.43629 14.7017 9.30202 14.5673C9.16775 14.433 8.98563 14.3576 8.79575 14.3576ZM6.89381 1.4106C7.3923 1.40921 7.87999 1.55582 8.29515 1.83185C8.7103 2.10788 9.03424 2.50093 9.22597 2.96123C9.41769 3.42154 9.46858 3.9284 9.37218 4.41765C9.27577 4.90689 9.03642 5.35653 8.68443 5.70963C8.33243 6.06272 7.88362 6.3034 7.3948 6.4012C6.90599 6.49899 6.39916 6.4495 5.93848 6.259C5.4778 6.06849 5.08399 5.74553 4.8069 5.331C4.5298 4.91648 4.38189 4.42903 4.38189 3.93037C4.38136 3.26313 4.64561 2.62297 5.1166 2.15051C5.58759 1.67805 6.2268 1.41192 6.89381 1.4106Z"></path>
</symbol>

<symbol id="groups-removed" viewBox="0 0 16 16">
  <path d="M14.2115 11.7387H10.283C10.1106 11.7387 9.94526 11.8072 9.82335 11.9291C9.70144 12.0511 9.63295 12.2165 9.63295 12.3889C9.63295 12.5613 9.70144 12.7267 9.82335 12.8487C9.94526 12.9706 10.1106 13.0391 10.283 13.0391H14.2115C14.2986 13.0425 14.3856 13.0283 14.4672 12.9973C14.5487 12.9663 14.6232 12.9191 14.6861 12.8587C14.749 12.7982 14.799 12.7256 14.8332 12.6453C14.8674 12.565 14.885 12.4787 14.885 12.3914C14.885 12.3041 14.8674 12.2178 14.8332 12.1375C14.799 12.0572 14.749 11.9846 14.6861 11.9241C14.6232 11.8637 14.5487 11.8165 14.4672 11.7855C14.3856 11.7545 14.2986 11.7403 14.2115 11.7437V11.7387Z"></path><path d="M8.91287 14.4625H3.21223C3.0323 14.462 2.85993 14.3901 2.73299 14.2625C2.60604 14.135 2.53489 13.9623 2.53515 13.7823V10.6294C2.53537 10.4093 2.60243 10.1944 2.72745 10.0133C2.85246 9.83216 3.02954 9.69329 3.23523 9.61506L7.01265 8.17462L10.9241 9.66507C11.0042 9.69566 11.0894 9.71093 11.1751 9.71009C11.3426 9.71029 11.5049 9.65176 11.6337 9.54469C11.7625 9.43762 11.8497 9.28878 11.8801 9.12405C11.9106 8.95932 11.8823 8.78913 11.8003 8.64308C11.7183 8.49703 11.5876 8.38436 11.4312 8.32466L9.05889 7.41939L9.2169 7.31135C9.91665 6.83993 10.4465 6.15622 10.7286 5.36091C11.0106 4.5656 11.0298 3.70074 10.7834 2.89369C10.537 2.08663 10.038 1.38005 9.35984 0.878006C8.68172 0.375958 7.86034 0.10498 7.01666 0.10498C6.17297 0.10498 5.35159 0.375958 4.67347 0.878006C3.99535 1.38005 3.49634 2.08663 3.24993 2.89369C3.00352 3.70074 3.02274 4.5656 3.30475 5.36091C3.58676 6.15622 4.11666 6.83993 4.81641 7.31135L4.97443 7.41839L2.73517 8.27265C2.25908 8.45606 1.84957 8.77919 1.56042 9.19961C1.27127 9.62003 1.116 10.1181 1.11499 10.6284V13.7813C1.11445 14.3393 1.33473 14.8748 1.72769 15.2709C2.12066 15.6669 2.65438 15.8913 3.21223 15.895H8.91287C9.10279 15.895 9.28492 15.8195 9.41921 15.6852C9.55351 15.5509 9.62895 15.3687 9.62895 15.1788C9.62895 14.9888 9.55351 14.8066 9.41921 14.6723C9.28492 14.538 9.10279 14.4625 8.91287 14.4625ZM4.49837 4.03535C4.49976 3.53867 4.64827 3.05354 4.92517 2.64124C5.20206 2.22894 5.59491 1.90796 6.05409 1.71885C6.51327 1.52974 7.01818 1.48098 7.50505 1.57872C7.99193 1.67647 8.43892 1.91634 8.78957 2.26803C9.14022 2.61972 9.37879 3.06747 9.47516 3.5547C9.57154 4.04194 9.52138 4.54682 9.33102 5.00556C9.14067 5.4643 8.81866 5.85633 8.40567 6.13212C7.99268 6.40792 7.50724 6.55512 7.01065 6.55512C6.34363 6.55353 5.70448 6.28732 5.23348 5.81492C4.76248 5.34251 4.49811 4.7025 4.49837 4.03535Z"></path>
</symbol>

<symbol id="history" viewBox="0 0 16 16">
  <path d="M3.51767 4.93501L0.819935 6.40901L0.100006 3.42001L3.51767 4.93501Z"></path><path d="M7.88723 1.15059e-05C6.3775 0.00104642 4.89902 0.4302 3.62332 1.23768C2.34763 2.04515 1.32703 3.19785 0.679949 4.56201H2.50277C3.24967 3.38862 4.35849 2.49053 5.66136 2.0037C6.96424 1.51687 8.39024 1.4678 9.72349 1.86392C11.0567 2.26004 12.2247 3.07978 13.0504 4.19905C13.8762 5.31833 14.3149 6.67619 14.3001 8.0671C14.2853 9.458 13.8178 10.8062 12.9683 11.9076C12.1189 13.0091 10.9338 13.8037 9.59238 14.1713C8.25099 14.539 6.82636 14.4595 5.53415 13.945C4.24195 13.4306 3.15251 12.5091 2.43078 11.32H0.622954C1.21938 12.6277 2.15707 13.7506 3.33745 14.5705C4.51782 15.3905 5.89728 15.8772 7.3308 15.9797C8.76433 16.0821 10.199 15.7964 11.4839 15.1525C12.7688 14.5087 13.8566 13.5306 14.6328 12.3209C15.4091 11.1113 15.8451 9.71488 15.8952 8.27843C15.9452 6.84198 15.6073 5.41858 14.9171 4.15788C14.2269 2.89717 13.2098 1.84572 11.9727 1.11407C10.7357 0.382412 9.32441 -0.00242584 7.88723 1.15059e-05Z"></path><path d="M7.09531 4.00001V8.80001L11.2949 11.32L11.8948 10.336L8.29519 8.20001V4.00001H7.09531Z"></path>
</symbol>

<symbol id="id-card-outline" viewBox="0 0 16 16">
  <path d="M15.24 2.81006H0.759C0.557517 2.81059 0.364467 2.891 0.222184 3.03366C0.0799013 3.17631 -6.95823e-07 3.36957 0 3.57106L0 12.4281C0.000262748 12.6295 0.0802495 12.8226 0.222475 12.9652C0.364702 13.1078 0.557598 13.1883 0.759 13.1891H15.24C15.4416 13.1885 15.6347 13.1082 15.7772 12.9655C15.9196 12.8229 15.9997 12.6296 16 12.4281V3.57106C16 3.3694 15.92 3.17599 15.7775 3.0333C15.635 2.89062 15.4417 2.81032 15.24 2.81006ZM15.129 12.3171H0.856V3.66806H15.129V12.3171ZM2.929 11.0171H6.139C6.2065 11.0169 6.27331 11.0035 6.33562 10.9776C6.39793 10.9516 6.45452 10.9136 6.50216 10.8658C6.5498 10.818 6.58755 10.7612 6.61326 10.6988C6.63897 10.6364 6.65213 10.5696 6.652 10.5021V9.03906C6.65267 8.83855 6.59306 8.64248 6.4809 8.47628C6.36873 8.31009 6.2092 8.18144 6.023 8.10706L5.5 7.89906C5.63813 7.82049 5.75299 7.70674 5.83291 7.56939C5.91282 7.43203 5.95495 7.27597 5.955 7.11706V6.38506C5.955 6.00646 5.8046 5.64337 5.53689 5.37566C5.26919 5.10796 4.9061 4.95756 4.5275 4.95756C4.1489 4.95756 3.78581 5.10796 3.51811 5.37566C3.2504 5.64337 3.1 6.00646 3.1 6.38506V7.11806C3.10026 7.27794 3.14287 7.4349 3.2235 7.57296C3.30412 7.71103 3.41988 7.82527 3.559 7.90406L3.042 8.10406C2.85474 8.17794 2.69413 8.30661 2.58119 8.47326C2.46825 8.6399 2.40824 8.83675 2.409 9.03806V10.4991C2.40847 10.5671 2.42147 10.6347 2.44725 10.6977C2.47303 10.7607 2.51108 10.818 2.55918 10.8662C2.60728 10.9144 2.66448 10.9525 2.72745 10.9784C2.79042 11.0043 2.85791 11.0175 2.926 11.0171H2.929ZM3.88 6.38506C3.8751 6.29667 3.88827 6.2082 3.91872 6.12508C3.94917 6.04195 3.99625 5.96591 4.05709 5.9016C4.11793 5.83729 4.19125 5.78606 4.27256 5.75105C4.35387 5.71605 4.44147 5.69799 4.53 5.69799C4.61853 5.69799 4.70613 5.71605 4.78744 5.75105C4.86875 5.78606 4.94207 5.83729 5.00291 5.9016C5.06375 5.96591 5.11083 6.04195 5.14128 6.12508C5.17173 6.2082 5.18491 6.29667 5.18 6.38506V7.11806C5.17987 7.14115 5.1736 7.16378 5.16182 7.18364C5.15005 7.2035 5.1332 7.21987 5.113 7.23106L4.684 7.46306C4.63668 7.48915 4.58353 7.50283 4.5295 7.50283C4.47547 7.50283 4.42232 7.48915 4.375 7.46306L3.946 7.23006C3.92574 7.2192 3.90881 7.20305 3.89701 7.18332C3.88521 7.1636 3.87899 7.14104 3.879 7.11806L3.88 6.38506ZM3.188 9.04106C3.18763 8.99566 3.20112 8.95123 3.22667 8.9137C3.25222 8.87618 3.28862 8.84734 3.331 8.83106L4.541 8.35206L5.731 8.82906C5.77303 8.84574 5.80906 8.8747 5.83439 8.91216C5.85972 8.94962 5.87317 8.99384 5.873 9.03906V10.2391H3.188V9.04106ZM13.412 5.82306H8.212V6.69506H13.412V5.82306ZM13.412 7.56306H8.212V8.43606H13.412V7.56306ZM10.807 9.29006H8.216V10.1621H10.807V9.29006Z"></path>
</symbol>

<symbol id="import-progress" viewBox="0 0 16 16">
  <path d="M3.60567 6.76501C3.36127 6.76501 3.12237 6.83745 2.91916 6.97315C2.71596 7.10885 2.55758 7.30173 2.46406 7.5274C2.37053 7.75307 2.34606 8.00138 2.39374 8.24095C2.44142 8.48052 2.5591 8.70057 2.73192 8.87329C2.90473 9.04601 3.1249 9.16363 3.3646 9.21128C3.6043 9.25894 3.85275 9.23448 4.07854 9.14101C4.30433 9.04753 4.49731 8.88924 4.63309 8.68614C4.76887 8.48305 4.84134 8.24427 4.84134 8.00001C4.84134 7.67247 4.71115 7.35835 4.47942 7.12674C4.24768 6.89513 3.93339 6.76501 3.60567 6.76501Z"></path><path d="M8.0005 6.76501C7.7561 6.76501 7.5172 6.83745 7.31399 6.97315C7.11079 7.10885 6.95241 7.30173 6.85888 7.5274C6.76536 7.75307 6.74089 8.00138 6.78857 8.24095C6.83625 8.48052 6.95393 8.70057 7.12674 8.87329C7.29956 9.04601 7.51973 9.16363 7.75943 9.21128C7.99913 9.25894 8.24758 9.23448 8.47337 9.14101C8.69916 9.04753 8.89214 8.88924 9.02792 8.68614C9.16369 8.48305 9.23617 8.24427 9.23617 8.00001C9.23617 7.83783 9.2042 7.67724 9.14211 7.5274C9.08001 7.37756 8.98899 7.24142 8.87425 7.12674C8.7595 7.01206 8.62328 6.92109 8.47337 6.85902C8.32345 6.79696 8.16277 6.76501 8.0005 6.76501Z"></path><path d="M12.3943 6.76501C12.1499 6.76501 11.911 6.83745 11.7078 6.97315C11.5046 7.10885 11.3462 7.30173 11.2527 7.5274C11.1592 7.75307 11.1347 8.00138 11.1824 8.24095C11.2301 8.48052 11.3478 8.70057 11.5206 8.87329C11.6934 9.04601 11.9136 9.16363 12.1533 9.21128C12.393 9.25894 12.6414 9.23448 12.8672 9.14101C13.093 9.04753 13.286 8.88924 13.4217 8.68614C13.5575 8.48305 13.63 8.24427 13.63 8.00001C13.63 7.67247 13.4998 7.35835 13.2681 7.12674C13.0363 6.89513 12.722 6.76501 12.3943 6.76501Z"></path>
</symbol>

<symbol id="inactive" viewBox="0 0 16 16">
  <path d="M7.70405 15.8801H1.60405C1.20405 15.8801 0.804052 15.5801 0.604052 15.1801C0.404052 14.7801 0.504052 14.2801 0.804052 13.9801L4.90405 9.88005H1.60405C1.00405 9.88005 0.504052 9.38005 0.504052 8.78005C0.504052 8.18005 1.00405 7.68005 1.60405 7.68005H7.70405C8.10405 7.68005 8.50405 7.98005 8.70405 8.38005C8.90405 8.78005 8.80405 9.28005 8.50405 9.58005L4.40405 13.6801H7.80405C8.40405 13.6801 8.90405 14.1801 8.90405 14.7801C8.80405 15.3801 8.30405 15.8801 7.70405 15.8801Z"></path><path d="M14.7041 6.08005H10.4041C10.1041 6.08005 9.80405 5.88005 9.60405 5.58005C9.60405 5.28005 9.60405 4.88005 9.90405 4.68005L12.8041 1.88005H10.4041C9.90405 1.88005 9.60405 1.48005 9.60405 1.08005C9.60405 0.680054 10.0041 0.180054 10.4041 0.180054H14.7041C15.0041 0.180054 15.3041 0.380054 15.5041 0.680054C15.6041 0.980054 15.6041 1.38005 15.3041 1.58005L12.5041 4.38005H14.8041C15.3041 4.38005 15.6041 4.78005 15.6041 5.18005C15.6041 5.68005 15.2041 6.08005 14.7041 6.08005Z"></path>
</symbol>

<symbol id="logic" viewBox="0 0 16 16">
  <path d="M11.6708 6H15.37V1H10.3711V5.193L8.47154 7.25H7.04086C6.85707 6.47493 6.3951 5.79435 5.74268 5.33754C5.09025 4.88072 4.29281 4.67947 3.50181 4.77201C2.7108 4.86454 1.98132 5.24443 1.45191 5.83951C0.922487 6.43459 0.630005 7.20343 0.630005 8C0.630005 8.79657 0.922487 9.56541 1.45191 10.1605C1.98132 10.7556 2.7108 11.1355 3.50181 11.228C4.29281 11.3205 5.09025 11.1193 5.74268 10.6625C6.3951 10.2056 6.85707 9.52507 7.04086 8.75H8.47154L10.3711 10.808V15H15.37V10H11.6708L9.82424 8L11.6708 6ZM3.88756 9.75C3.54152 9.75 3.20325 9.64736 2.91553 9.45507C2.6278 9.26278 2.40355 8.98947 2.27113 8.6697C2.1387 8.34993 2.10406 7.99806 2.17157 7.65859C2.23907 7.31913 2.40571 7.00731 2.6504 6.76256C2.89508 6.51782 3.20683 6.35115 3.54623 6.28363C3.88562 6.2161 4.23741 6.25076 4.55711 6.38321C4.8768 6.51566 5.15006 6.73997 5.34231 7.02775C5.53456 7.31554 5.63717 7.65388 5.63717 8C5.63664 8.46397 5.45214 8.90878 5.12414 9.23685C4.79613 9.56493 4.35142 9.74947 3.88756 9.75Z"></path>
</symbol>

<symbol id="mix-gender" viewBox="0 0 16 16">
  <path d="M15.8059 3.07599L15.2626 2.36981C14.8851 1.87691 14.3388 1.5453 13.7315 1.44047C13.1243 1.33565 12.5003 1.46525 11.9828 1.80366L11.7319 1.9667C11.3867 1.82554 11.0176 1.75353 10.6453 1.75465C9.87339 1.75597 9.13351 2.0671 8.5878 2.61984C8.04209 3.17259 7.73506 3.92186 7.73402 4.70342V5.91274C7.73345 6.2368 7.8052 6.5568 7.94394 6.84883C8.08267 7.14086 8.28478 7.39737 8.53518 7.59919L9.38771 8.29137L8.02841 8.92153C7.7505 9.05125 7.50147 9.2367 7.29639 9.46668C7.09203 9.23633 6.84325 9.05081 6.56537 8.92153L5.20607 8.29137L6.0586 7.59919C6.30887 7.39732 6.51083 7.14077 6.6494 6.84874C6.78796 6.5567 6.85953 6.23673 6.85877 5.91274V4.70342C6.8659 4.31168 6.79585 3.92243 6.65272 3.55841C6.50959 3.19438 6.29625 2.8629 6.02517 2.5833C5.75408 2.30371 5.43068 2.08163 5.07387 1.93003C4.71706 1.77842 4.33398 1.70034 3.94703 1.70034C3.56007 1.70034 3.177 1.77842 2.82019 1.93003C2.46337 2.08163 2.13998 2.30371 1.86889 2.5833C1.5978 2.8629 1.38446 3.19438 1.24134 3.55841C1.09821 3.92243 1.02816 4.31168 1.03529 4.70342V5.91274C1.03474 6.23669 1.10641 6.55659 1.24495 6.84859C1.3835 7.1406 1.58535 7.39717 1.83546 7.59919L2.68898 8.29137L1.32967 8.92153C0.933496 9.10628 0.597792 9.40194 0.362186 9.77361C0.126579 10.1453 0.00090559 10.5774 0 11.0191V13.5047C0.000522939 13.7939 0.114272 14.0711 0.316307 14.2755C0.518342 14.4798 0.792175 14.5948 1.07776 14.595H13.516C13.8017 14.595 14.0757 14.4802 14.2778 14.2758C14.4798 14.0713 14.5935 13.794 14.5938 13.5047V11.0191C14.5938 10.5769 14.4685 10.1439 14.2329 9.77157C13.9972 9.39925 13.661 9.1032 13.2641 8.91853L11.9048 8.28837L12.7583 7.59618C13.0085 7.39427 13.2105 7.13771 13.349 6.84569C13.4876 6.55366 13.5592 6.23372 13.5585 5.90974V4.70342C13.5579 4.65921 13.5543 4.61509 13.5476 4.57139H15.0887C15.2598 4.57092 15.4273 4.52183 15.5722 4.42971C15.717 4.3376 15.8335 4.20615 15.9082 4.05033C15.9829 3.89451 16.013 3.72057 15.9949 3.54832C15.9768 3.37607 15.9113 3.21242 15.8059 3.07599ZM14.5108 3.36107H13.2266L13.2058 3.33306C13.095 3.11471 12.9583 2.91083 12.7988 2.7259C13.0591 2.6076 13.3512 2.58156 13.628 2.65198C13.9047 2.72239 14.1499 2.88515 14.3241 3.114L14.5108 3.36107ZM10.2126 7.41214L9.28596 6.65494C9.17561 6.56619 9.08649 6.45334 9.02525 6.32482C8.96401 6.1963 8.93224 6.05544 8.93231 5.91274V5.35559L10.908 4.69842L12.3691 5.10953V5.90974C12.3691 6.05233 12.3375 6.1931 12.2764 6.32159C12.2153 6.45008 12.1265 6.56299 12.0164 6.65194L11.0809 7.40914C10.9592 7.51082 10.8065 7.56668 10.6488 7.56723C10.491 7.56778 10.3379 7.51297 10.2155 7.41214H10.2126ZM8.52728 10.0208L10.6472 9.03857L12.7662 10.0208C12.9552 10.1087 13.1154 10.2497 13.2276 10.427C13.3399 10.6043 13.3995 10.8105 13.3994 11.0211V13.3867H7.89405V11.0191C7.89437 10.8088 7.95418 10.6031 8.0664 10.4261C8.17862 10.2492 8.33856 10.1086 8.52728 10.0208ZM9.06369 4.05125C9.16565 3.79157 9.32842 3.56087 9.53797 3.37901C9.74752 3.19715 9.99758 3.06958 10.2666 3.00728C10.5357 2.94498 10.8156 2.94982 11.0824 3.02139C11.3492 3.09295 11.5948 3.22909 11.7981 3.41808L11.9226 3.59213L11.1471 3.36107L9.06369 4.05125ZM1.82854 10.0208L3.95147 9.03857L6.07045 10.0208C6.25947 10.1087 6.41962 10.2497 6.53186 10.427C6.64411 10.6043 6.70374 10.8105 6.70367 11.0211V13.3867L1.19828 13.4047V11.0191C1.19834 10.8091 1.2577 10.6036 1.36938 10.4267C1.48106 10.2498 1.64038 10.109 1.82854 10.0208ZM5.66444 5.91274C5.66476 6.05523 5.6332 6.19595 5.57212 6.32432C5.51104 6.4527 5.42202 6.56539 5.31177 6.65394L4.37823 7.41214C4.25582 7.51081 4.10399 7.56454 3.94752 7.56454C3.79106 7.56454 3.63922 7.51081 3.51681 7.41214L2.58328 6.65394C2.47289 6.56544 2.38373 6.45278 2.32248 6.32441C2.26123 6.19605 2.22948 6.0553 2.22962 5.91274V4.70342C2.22413 4.47155 2.26449 4.24091 2.34833 4.02506C2.43216 3.80922 2.55779 3.61253 2.71781 3.44657C2.87783 3.28061 3.06901 3.14873 3.28011 3.05868C3.49121 2.96864 3.71796 2.92226 3.94703 2.92226C4.17609 2.92226 4.40284 2.96864 4.61394 3.05868C4.82504 3.14873 5.01623 3.28061 5.17625 3.44657C5.33627 3.61253 5.46189 3.80922 5.54573 4.02506C5.62957 4.24091 5.66993 4.47155 5.66444 4.70342V5.91274Z"></path>
</symbol>

<symbol id="no-activity" viewBox="0 0 16 16">
  <path d="M8.14405 13.46H8.11104C7.9727 13.4535 7.84001 13.4032 7.73213 13.3164C7.62425 13.2296 7.54676 13.1108 7.51086 12.9771L5.49325 5.31677L4.05782 9.10043C4.01152 9.22396 3.92854 9.33039 3.82002 9.40546C3.7115 9.48052 3.58261 9.52062 3.45064 9.52039H1.75013C1.58392 9.51117 1.42756 9.43868 1.31316 9.3178C1.19876 9.19693 1.13501 9.03685 1.13501 8.87045C1.13501 8.70405 1.19876 8.54397 1.31316 8.4231C1.42756 8.30222 1.58392 8.22973 1.75013 8.22051H3.0015L4.9961 2.95898C5.04504 2.83034 5.13356 2.72055 5.24891 2.64542C5.36427 2.57029 5.5005 2.53371 5.63799 2.54094C5.77548 2.54816 5.90713 2.59883 6.01396 2.68564C6.1208 2.77245 6.19731 2.89091 6.23248 3.02397L8.24308 10.6363L10.0366 5.70073C10.0805 5.58032 10.1589 5.47555 10.2621 5.39959C10.3654 5.32362 10.4888 5.27985 10.6168 5.27377C10.7442 5.27139 10.8696 5.30481 10.9789 5.37022C11.0882 5.43563 11.1769 5.5304 11.235 5.64374L12.4634 8.21951H14.2499C14.4161 8.22873 14.5725 8.30122 14.6869 8.4221C14.8013 8.54297 14.865 8.70305 14.865 8.86945C14.865 9.03585 14.8013 9.19593 14.6869 9.3168C14.5725 9.43768 14.4161 9.51017 14.2499 9.51939H12.0492C11.9263 9.51926 11.8059 9.48435 11.702 9.4187C11.5981 9.35306 11.5149 9.25935 11.4621 9.14843L10.7248 7.60256L8.75624 13.0311C8.7105 13.1567 8.62724 13.2652 8.51774 13.3419C8.40823 13.4187 8.27778 13.4599 8.14405 13.46Z"></path>
</symbol>

<symbol id="person-arrow" viewBox="0 0 16 16">
  <path d="M7.71715 14.2955H2.1096C1.94314 14.2952 1.78357 14.2292 1.66586 14.1118C1.54815 13.9944 1.4819 13.8353 1.48164 13.6693V10.5873C1.48285 10.3798 1.54677 10.1774 1.66505 10.0067C1.78334 9.83589 1.95049 9.70464 2.14471 9.63003L5.84529 8.22958L9.67929 9.68005C9.77019 9.71453 9.86701 9.73082 9.96422 9.72799C10.0614 9.72516 10.1571 9.70327 10.2459 9.66356C10.3346 9.62385 10.4146 9.5671 10.4813 9.49656C10.5481 9.42601 10.6002 9.34305 10.6348 9.25241C10.6694 9.16177 10.6857 9.06522 10.6829 8.96829C10.68 8.87135 10.6581 8.77592 10.6183 8.68744C10.5784 8.59897 10.5215 8.51918 10.4508 8.45263C10.38 8.38609 10.2968 8.33409 10.2059 8.29961L7.9238 7.43633C8.64306 6.98655 9.19608 6.31565 9.49938 5.52491C9.80267 4.73417 9.83979 3.8665 9.60512 3.05288C9.37045 2.23926 8.87673 1.52384 8.19848 1.01461C7.52024 0.50538 6.69429 0.22998 5.84529 0.22998C4.9963 0.22998 4.17034 0.50538 3.4921 1.01461C2.81386 1.52384 2.32014 2.23926 2.08547 3.05288C1.8508 3.8665 1.88791 4.73417 2.19121 5.52491C2.49451 6.31565 3.04752 6.98655 3.76679 7.43633L1.61806 8.24959C1.14343 8.43113 0.734934 8.75153 0.446173 9.16872C0.157413 9.58592 0.00188456 10.0804 0 10.5873V13.6693C0.0015881 14.226 0.224042 14.7594 0.618761 15.153C1.01348 15.5466 1.54838 15.7684 2.10659 15.77H7.71414C7.9059 15.7629 8.08745 15.682 8.22062 15.5443C8.35379 15.4065 8.4282 15.2226 8.4282 15.0312C8.4282 14.8399 8.35379 14.656 8.22062 14.5182C8.08745 14.3805 7.9059 14.2996 7.71414 14.2925L7.71715 14.2955ZM5.84529 6.56706C5.36437 6.56706 4.89424 6.42485 4.49436 6.15841C4.09449 5.89197 3.78282 5.51327 3.59878 5.0702C3.41474 4.62714 3.36658 4.1396 3.46041 3.66924C3.55423 3.19888 3.78582 2.76682 4.12589 2.42771C4.46595 2.0886 4.89922 1.85767 5.37091 1.76411C5.8426 1.67054 6.33151 1.71856 6.77583 1.90209C7.22015 2.08561 7.59991 2.3964 7.8671 2.79515C8.13429 3.19391 8.2769 3.66271 8.2769 4.14228C8.27637 4.78521 8.02001 5.40165 7.56411 5.85627C7.10821 6.31089 6.49003 6.56653 5.84529 6.56706Z"></path><path d="M15.7433 11.8397L13.1502 9.41996C13.0185 9.30589 12.85 9.24307 12.6757 9.24307C12.5013 9.24307 12.3328 9.30589 12.2012 9.41996C12.1388 9.47729 12.089 9.54689 12.055 9.62437C12.0209 9.70184 12.0033 9.78552 12.0033 9.87011C12.0033 9.9547 12.0209 10.0384 12.055 10.1158C12.089 10.1933 12.1388 10.2629 12.2012 10.3202L13.7681 11.7817H8.8828C8.79601 11.7769 8.70913 11.7897 8.6275 11.8195C8.54586 11.8493 8.47117 11.8953 8.408 11.9549C8.34484 12.0145 8.29452 12.0862 8.26013 12.1658C8.22575 12.2455 8.20801 12.3312 8.20801 12.4179C8.20801 12.5046 8.22575 12.5904 8.26013 12.67C8.29452 12.7496 8.34484 12.8214 8.408 12.8809C8.47117 12.9405 8.54586 12.9866 8.6275 13.0163C8.70913 13.0461 8.79601 13.059 8.8828 13.0541H13.7681L12.2222 14.4956C12.1601 14.5531 12.1106 14.6227 12.0767 14.7002C12.0428 14.7776 12.0254 14.8612 12.0254 14.9457C12.0254 15.0302 12.0428 15.1138 12.0767 15.1913C12.1106 15.2687 12.1601 15.3384 12.2222 15.3959C12.3518 15.5145 12.5213 15.5804 12.6972 15.5804C12.8732 15.5804 13.0427 15.5145 13.1722 15.3959L15.7433 13.0081C15.8242 12.9339 15.8888 12.8438 15.933 12.7434C15.9772 12.643 16 12.5345 16 12.4249C16 12.3153 15.9772 12.2069 15.933 12.1065C15.8888 12.0061 15.8242 11.9159 15.7433 11.8417V11.8397Z"></path>
</symbol>

<symbol id="person-outline" viewBox="0 0 16 16">
  <path d="M12.7226 8.19473L9.92196 7.0395C10.6393 6.61939 11.1982 5.97552 11.5123 5.20723C11.8265 4.43893 11.8784 3.58889 11.6601 2.78824C11.4419 1.98758 10.9656 1.28079 10.3046 0.776898C9.64371 0.273004 8.83492 0 8.00301 0C7.1711 0 6.3623 0.273004 5.70137 0.776898C5.04045 1.28079 4.56412 1.98758 4.34586 2.78824C4.1276 3.58889 4.17955 4.43893 4.49367 5.20723C4.8078 5.97552 5.36666 6.61939 6.08405 7.0395L3.27638 8.19473C2.81905 8.38247 2.42818 8.70186 2.15365 9.11213C1.87912 9.5224 1.73337 10.005 1.73501 10.4982V13.506C1.73501 14.1655 1.99695 14.7982 2.46353 15.2657C2.9301 15.7331 3.56332 15.9971 4.22461 16H11.7744C12.4359 15.9974 13.0693 15.7334 13.5361 15.266C14.0029 14.7986 14.265 14.1657 14.265 13.506V10.4962C14.2659 10.0032 14.1197 9.52116 13.845 9.11132C13.5704 8.70148 13.1797 8.38241 12.7226 8.19473ZM3.83451 9.54748L7.99951 7.8306L12.1645 9.54748C12.353 9.62468 12.5141 9.75618 12.6272 9.92518C12.7404 10.0942 12.8004 10.293 12.7996 10.4962V13.504C12.7996 13.7756 12.6918 14.0361 12.4996 14.2285C12.3074 14.4209 12.0467 14.5295 11.7744 14.5305H4.22461C3.95233 14.5295 3.69156 14.4209 3.49941 14.2285C3.30725 14.0361 3.19936 13.7756 3.19936 13.504V10.4962C3.19835 10.2929 3.25827 10.094 3.37145 9.92496C3.48462 9.75591 3.64588 9.62445 3.83451 9.54748ZM5.67395 3.78731C5.67553 3.32891 5.81327 2.88126 6.06976 2.50088C6.32626 2.1205 6.69001 1.82446 7.11508 1.65013C7.54016 1.4758 8.0075 1.431 8.45808 1.5214C8.90867 1.61179 9.32229 1.83333 9.64673 2.15802C9.97116 2.48271 10.1919 2.89601 10.2809 3.34572C10.37 3.79542 10.3235 4.26137 10.1473 4.68473C9.97101 5.10809 9.67294 5.46986 9.29068 5.72437C8.90842 5.97889 8.45912 6.11472 7.99951 6.11472C7.38191 6.11287 6.79027 5.86682 6.35431 5.43051C5.91836 4.99421 5.67368 4.40328 5.67395 3.78731Z"></path>
</symbol>

<symbol id="person-pencil" viewBox="0 0 16 16">
  <path d="M3.06555 8.4804L6.79862 6.95728L9.42437 8.02777C9.58728 8.09554 9.77039 8.09586 9.93354 8.02866C10.0967 7.96145 10.2265 7.8322 10.2946 7.66927C10.3609 7.50896 10.3609 7.32889 10.2946 7.16857C10.2609 7.08745 10.2114 7.01381 10.1491 6.95194C10.0868 6.89006 10.0128 6.84116 9.93152 6.80807L8.54512 6.23928C9.04926 5.94522 9.46795 5.52444 9.75971 5.0186C10.0515 4.51275 10.2062 3.93939 10.2086 3.35528C10.1933 2.46015 9.82733 1.60688 9.1896 0.979279C8.55187 0.351683 7.69339 0 6.79912 0C5.90486 0 5.04638 0.351683 4.40864 0.979279C3.77091 1.60688 3.40496 2.46015 3.38965 3.35528C3.39173 3.93933 3.54623 4.51271 3.83783 5.01858C4.12944 5.52445 4.54803 5.94525 5.05212 6.23928L2.55841 7.2567C2.14849 7.42157 1.79723 7.70545 1.5498 8.07182C1.30238 8.4382 1.17011 8.8703 1.17001 9.31255V11.9843C1.17398 12.5765 1.4124 13.1431 1.833 13.5596C2.25359 13.9762 2.82202 14.2088 3.41365 14.2064H5.75632C5.84525 14.2098 5.93396 14.1953 6.01714 14.1636C6.10031 14.1319 6.17625 14.0838 6.24039 14.022C6.30453 13.9602 6.35555 13.8861 6.39041 13.8042C6.42526 13.7222 6.44322 13.634 6.44322 13.5449C6.44322 13.4558 6.42526 13.3677 6.39041 13.2857C6.35555 13.2037 6.30453 13.1296 6.24039 13.0679C6.17625 13.0061 6.10031 12.9579 6.01714 12.9263C5.93396 12.8946 5.84525 12.88 5.75632 12.8835H3.41365C3.17347 12.8848 2.94258 12.7907 2.77172 12.6217C2.60085 12.4527 2.50398 12.2227 2.50239 11.9823V9.31255C2.50309 9.13354 2.55703 8.95879 2.65733 8.81058C2.75763 8.66237 2.89974 8.54743 3.06555 8.4804ZM4.72203 3.35528C4.71747 2.94316 4.83537 2.53899 5.06076 2.1941C5.28615 1.84921 5.60885 1.57918 5.98787 1.41829C6.3669 1.25741 6.78513 1.21294 7.18946 1.29053C7.59378 1.36813 7.96594 1.56428 8.25867 1.85408C8.55139 2.14388 8.75146 2.51425 8.83347 2.91813C8.91548 3.32201 8.87572 3.74118 8.71925 4.12239C8.56277 4.5036 8.29664 4.82965 7.95467 5.05911C7.6127 5.28858 7.21031 5.41111 6.79862 5.41113C6.25112 5.41353 5.72503 5.19844 5.33573 4.81303C4.94644 4.42762 4.72573 3.90337 4.72203 3.35528Z"></path><path d="M14.3008 7.78844L13.2885 7.08746C13.0193 6.90282 12.6886 6.83094 12.3672 6.88718C12.2086 6.91421 12.0568 6.97236 11.9207 7.05828C11.7846 7.14421 11.6667 7.25622 11.574 7.38788L7.51083 13.1539L7.52783 15.2398C7.53049 15.3623 7.56207 15.4825 7.61999 15.5905C7.67791 15.6985 7.76053 15.7913 7.8611 15.8612C7.96167 15.9311 8.07734 15.9762 8.19866 15.9928C8.31997 16.0094 8.44349 15.9971 8.55912 15.9568L10.5437 15.2558L14.6059 9.4908C14.6989 9.35969 14.7651 9.21137 14.8004 9.05446C14.8357 8.89754 14.8395 8.73517 14.8116 8.57677C14.7836 8.41837 14.7246 8.2671 14.6377 8.13177C14.5509 7.99643 14.438 7.87973 14.3058 7.78844H14.3008ZM13.4565 8.81386L9.69945 14.1483L8.85921 14.4487L8.85221 13.5665L12.6073 8.22905L13.4565 8.81386Z"></path>
</symbol>

<symbol id="photo-outline" viewBox="0 0 16 16">
  <path d="M4.7183 7.98806C5.1078 7.98825 5.48861 7.87296 5.81256 7.65676C6.13651 7.44056 6.38905 7.13316 6.53825 6.77344C6.68744 6.41373 6.72658 6.01786 6.65071 5.63591C6.57484 5.25395 6.38738 4.90307 6.11203 4.62765C5.83669 4.35222 5.48582 4.16462 5.10382 4.08858C4.72182 4.01254 4.32585 4.05146 3.96598 4.20044C3.60611 4.34942 3.29852 4.60175 3.0821 4.92552C2.86569 5.24929 2.75017 5.62995 2.75017 6.01937C2.75097 6.54108 2.95855 7.04121 3.32744 7.41021C3.69634 7.77921 4.19647 7.987 4.7183 7.98806ZM4.7183 5.03552C4.91293 5.03552 5.10319 5.09322 5.26502 5.20133C5.42684 5.30944 5.55297 5.46309 5.62745 5.64287C5.70194 5.82264 5.72142 6.02046 5.68345 6.21131C5.64548 6.40215 5.55176 6.57746 5.41414 6.71505C5.27651 6.85264 5.10117 6.94635 4.91028 6.98431C4.71939 7.02227 4.52153 7.00279 4.34172 6.92832C4.1619 6.85386 4.00821 6.72775 3.90008 6.56596C3.79195 6.40417 3.73424 6.21395 3.73424 6.01937C3.7345 5.75852 3.83826 5.50843 4.02275 5.32398C4.20724 5.13953 4.45739 5.03579 4.7183 5.03552Z"></path><path d="M14.1649 1.68005H1.83512C1.37112 1.68058 0.926282 1.8651 0.598187 2.19312C0.270092 2.52114 0.0855361 2.96588 0.0850067 3.42978V12.5703C0.0855361 13.0342 0.270092 13.479 0.598187 13.807C0.926282 14.135 1.37112 14.3195 1.83512 14.3201H14.1649C14.6289 14.3195 15.0737 14.135 15.4018 13.807C15.7299 13.479 15.9145 13.0342 15.915 12.5703V3.42978C15.9145 2.96588 15.7299 2.52114 15.4018 2.19312C15.0737 1.8651 14.6289 1.68058 14.1649 1.68005ZM1.83512 3.17982H14.1649C14.231 3.18059 14.2941 3.20718 14.3408 3.25389C14.3875 3.3006 14.4141 3.36372 14.4149 3.42978V8.15803L12.8518 6.60028C12.482 6.23223 11.9815 6.0256 11.4597 6.0256C10.9379 6.0256 10.4374 6.23223 10.0676 6.60028L6.59742 10.0687L6.20439 9.67579C5.83475 9.3075 5.33416 9.10071 4.81231 9.10071C4.29045 9.10071 3.78986 9.3075 3.42022 9.67579L1.5851 11.5055V3.42978C1.58588 3.36372 1.61247 3.3006 1.65919 3.25389C1.70591 3.20718 1.76905 3.18059 1.83512 3.17982ZM7.49848 12.8203H2.12614L4.34828 10.5996C4.47158 10.477 4.63841 10.4082 4.81231 10.4082C4.9862 10.4082 5.15303 10.477 5.27633 10.5996L7.49848 12.8203ZM14.1649 12.8203H9.35459L7.52548 10.9916L10.9927 7.52413C11.116 7.40153 11.2828 7.33271 11.4567 7.33271C11.6306 7.33271 11.7975 7.40153 11.9208 7.52413L14.4119 10.0147V12.5713C14.4109 12.6367 14.3846 12.6991 14.3386 12.7455C14.2925 12.792 14.2303 12.8187 14.1649 12.8203Z"></path>
</symbol>

<symbol id="school" viewBox="0 0 16 16">
  <path d="M14.7785 9.93865L8.47057 4.5213V3.55223C9.94803 4.27928 11.4265 2.75218 12.9039 3.53423V0.900057C11.4265 0.121006 9.94803 1.64611 8.47057 0.921059V0.900057C8.47057 0.76744 8.41788 0.640255 8.32408 0.546481C8.23028 0.452706 8.10307 0.400024 7.97042 0.400024C7.83777 0.400024 7.71055 0.452706 7.61676 0.546481C7.52296 0.640255 7.47026 0.76744 7.47026 0.900057V4.5213L1.22034 9.92165C1.10481 10.0212 1.02239 10.1536 0.984064 10.3012C0.945735 10.4488 0.953318 10.6046 1.0058 10.7478C1.05829 10.891 1.15318 11.0148 1.27783 11.1027C1.40248 11.1906 1.55096 11.2384 1.70348 11.2397L2.74581 11.2497V14.85C2.74581 15.0489 2.82485 15.2397 2.96554 15.3803C3.10624 15.521 3.29706 15.6 3.49604 15.6H12.4208C12.6198 15.6 12.8106 15.521 12.9513 15.3803C13.092 15.2397 13.171 15.0489 13.171 14.85V11.2497H14.2894C14.4426 11.2498 14.5922 11.203 14.7181 11.1155C14.8439 11.028 14.9399 10.9041 14.9932 10.7604C15.0465 10.6167 15.0545 10.4602 15.0161 10.3119C14.9777 10.1635 14.8948 10.0305 14.7785 9.93065V9.93865ZM11.6706 10.5077V14.1079H4.24627V10.5077C4.24637 10.3406 4.1906 10.1783 4.08783 10.0466C3.98506 9.91485 3.84119 9.82124 3.67909 9.78064L7.97242 6.0674L12.2807 9.76764C12.1084 9.79998 11.9529 9.89178 11.8414 10.027C11.7299 10.1623 11.6694 10.3324 11.6706 10.5077Z"></path>
</symbol>

<symbol id="skip-step" viewBox="0 0 16 16">
  <path d="M9.84852 13.98L7.83803 11.9683L11.803 8.00002L7.83803 4.03169L9.84852 2.02002L15.825 8.00002L9.84852 13.98Z"></path><path d="M2.18547 13.98L0.174988 11.9683L4.14097 8.00002L0.174988 4.03169L2.18547 2.02002L8.16295 8.00002L2.18547 13.98Z"></path>
</symbol>

<symbol id="step-back" viewBox="0 0 16 16">
  <path d="M13.05 6.98395H6.84001L8.68701 5.13695L7.25001 3.69995L2.95001 7.99995L7.25001 12.3L8.68701 10.863L6.84001 9.01595H13.05V6.98395Z"></path>
</symbol>

<symbol id="text-message-outline" viewBox="0 0 16 16">
  <path d="M13.553 0.962375H2.44799C1.84507 0.934579 1.25561 1.14774 0.807585 1.55558C0.359556 1.96342 0.0891225 2.53302 0.0549927 3.14072V10.2708C0.0891225 10.8785 0.359556 11.4481 0.807585 11.8559C1.25561 12.2638 1.84507 12.4769 2.44799 12.4491H4.90199L7.99599 15.16L11.09 12.4491H13.553C14.1559 12.4769 14.7454 12.2638 15.1934 11.8559C15.6414 11.4481 15.9119 10.8785 15.946 10.2708V3.14072C15.9119 2.53302 15.6414 1.96342 15.1934 1.55558C14.7454 1.14774 14.1559 0.934579 13.553 0.962375ZM14.446 10.1185C14.4431 10.3353 14.3565 10.5425 14.2044 10.6958C14.0524 10.8491 13.847 10.9365 13.632 10.9394H10.815L7.99599 13.2942L5.17699 10.9394H2.36899C2.15399 10.9365 1.9486 10.8491 1.79656 10.6958C1.64452 10.5425 1.55784 10.3353 1.55499 10.1185V3.29603C1.55784 3.0792 1.64452 2.87207 1.79656 2.71873C1.9486 2.5654 2.15399 2.47799 2.36899 2.47512H13.632C13.847 2.47799 14.0524 2.5654 14.2044 2.71873C14.3565 2.87207 14.4431 3.0792 14.446 3.29603V10.1185Z"></path>
</symbol>

<symbol id="text-message" viewBox="0 0 16 16">
  <path d="M13.4672 0.959961H2.44356C1.1525 0.959961 0.0600586 1.95996 0.0600586 3.15996V9.25996C0.0600586 10.46 1.1525 11.46 2.44356 11.46H4.9195L8.00506 15.16L11.0906 11.46H13.5666C14.8576 11.46 15.9501 10.46 15.9501 9.25996V3.15996C15.8507 1.95996 14.7583 0.959961 13.4672 0.959961Z"></path>
</symbol>

<symbol id="unsubscribed" viewBox="0 0 16 16">
  <path d="M14.08 0.785034H1.91999C1.51809 0.786622 1.13322 0.947484 0.849776 1.23235C0.566335 1.51721 0.407461 1.90282 0.407994 2.30461L0.399994 11.4221C0.40105 11.8248 0.561531 12.2107 0.846358 12.4954C1.13118 12.7802 1.51719 12.9406 1.91999 12.9417H7.67099C7.48521 12.4567 7.38767 11.9424 7.38299 11.4231H1.91999V4.83091L7.99999 8.4779L14.08 4.83091V7.65313C14.7078 8.03513 15.2302 8.56775 15.6 9.2027V2.30461C15.5989 1.90192 15.4385 1.51602 15.1536 1.23127C14.8688 0.946527 14.4828 0.78609 14.08 0.785034ZM14.08 3.0584L7.99999 6.70639L1.91999 3.0584V2.30461H14.08V3.0584Z"></path><path d="M11.8 7.61714C11.0484 7.61714 10.3137 7.83994 9.68883 8.25738C9.06392 8.67481 8.57686 9.26813 8.28925 9.96229C8.00164 10.6565 7.92639 11.4203 8.07301 12.1572C8.21963 12.8941 8.58155 13.5711 9.11299 14.1023C9.64443 14.6336 10.3215 14.9955 11.0587 15.142C11.7958 15.2886 12.5598 15.2134 13.2542 14.9259C13.9485 14.6383 14.542 14.1514 14.9596 13.5267C15.3771 12.9019 15.6 12.1674 15.6 11.4161C15.6 10.9172 15.5017 10.4232 15.3107 9.96229C15.1198 9.50138 14.8399 9.08259 14.487 8.72983C14.1341 8.37706 13.7152 8.09723 13.2542 7.90632C12.7932 7.7154 12.299 7.61714 11.8 7.61714ZM13.7 11.796H9.89999V11.0362H13.7V11.796Z"></path>
</symbol>

<symbol id="workflows" viewBox="0 0 16 16">
  <path d="M3.35777 7.48308L1.25999 5.38752L2.40842 4.23976L3.35777 5.18756L5.3215 3.22498L6.46993 4.37274L3.35777 7.48308Z"></path><path d="M3.35777 12.775L1.25999 10.6794L2.40842 9.53165L3.35777 10.4795L5.3215 8.51687L6.46993 9.66463L3.35777 12.775Z"></path><path d="M7.99149 11.5342H14.74V9.75761H7.99149V11.5342Z"></path><path d="M14.739 4.32575H7.99049V6.10337H14.739V4.32575Z"></path>
</symbol>
    </svg>