<svg xmlns="http://www.w3.org/2000/svg">
    
<symbol id="activity-envelope-outline" class="symbol" viewBox="0 0 16 16">
  <defs><style>.cls-1{fill:#010101;}</style></defs><title>activity-envelope-outline</title><g id="Layer_1" data-name="Layer 1"><path class="cls-1" d="M14.161,2.894H1.849A1.764,1.764,0,0,0,.087,4.656v7.166a1.763,1.763,0,0,0,1.762,1.762H14.161a1.763,1.763,0,0,0,1.762-1.762V4.656A1.764,1.764,0,0,0,14.161,2.894Zm-9.3,5.364L1.591,10.727V6.3Zm1.394.834.984.589a1.524,1.524,0,0,0,1.563,0l.984-.589,3.963,2.988H2.3Zm4.925-.834,3.235-1.936V10.7ZM1.849,4.4H14.161a.246.246,0,0,1,.229.189L8.014,8.39,1.627,4.568A.243.243,0,0,1,1.849,4.4Z"/></g>
</symbol>

<symbol id="activity-regis" class="symbol" viewBox="0 0 16 16">
  <defs><style>.cls-1{fill:#010101;}</style></defs><title>activity-regis</title><g id="Layer_1" data-name="Layer 1"><path class="cls-1" d="M11.791,14.044l-.479-.411-1.266-1.266a.607.607,0,0,1,.858-.858l.853.853L14.015,10.1a.607.607,0,0,1,.858.858Z"/><path class="cls-1" d="M7.143,7.889a3.612,3.612,0,1,1,3.612-3.612A3.616,3.616,0,0,1,7.143,7.889Zm0-6.01a2.4,2.4,0,1,0,2.4,2.4A2.4,2.4,0,0,0,7.143,1.879Z"/><path class="cls-1" d="M8.916,15.23H3.605a1.905,1.905,0,0,1-1.9-1.9V10.4A2.293,2.293,0,0,1,3.173,8.267L7.143,6.76l4.1,1.555a.606.606,0,0,1-.43,1.134L7.143,8.058,3.6,9.4a1.075,1.075,0,0,0-.689,1v2.928a.691.691,0,0,0,.69.69H8.916a.607.607,0,1,1,0,1.213Z"/></g>
</symbol>

<symbol id="add-household" class="symbol" viewBox="0 0 16 16">
  <defs><style>.cls-1{fill:#010101;}</style></defs><title>add-household</title><g id="Layer_1" data-name="Layer 1"><path class="cls-1" d="M15.4,7.79,9.082.61a1.577,1.577,0,0,0-2.367,0L.4,7.79A1.51,1.51,0,0,0,.143,9.451a1.533,1.533,0,0,0,1.437.9h.574v3.925A1.587,1.587,0,0,0,3.693,15.9h8.423a1.62,1.62,0,0,0,1.579-1.623V10.348h.523a1.532,1.532,0,0,0,1.437-.9A1.509,1.509,0,0,0,15.4,7.79ZM7.917,1.637,14.243,8.8c0,.007-.007,0-.026,0H12.141v5.479c0,.013-.012.07-.025.07H3.693c-.013,0,.015-.057.015-.07V8.855H1.587c-.006,0-.023-.021-.015-.038l6.314-7.18"/><path class="cls-1" d="M9.674,8.285H8.633V7.222a.759.759,0,0,0-.755-.777H7.867a.786.786,0,0,0-.787.777V8.285H6.123a.75.75,0,0,0-.777.744v.016a.791.791,0,0,0,.777.793h.956v.934a.8.8,0,0,0,.8.777H7.867a.768.768,0,0,0,.766-.777V9.839H9.674a.805.805,0,0,0,.777-.809v.016A.763.763,0,0,0,9.674,8.285Z"/></g>
</symbol>

<symbol id="advance" class="symbol" viewBox="0 0 16 16">
  <defs><style>.cls-1{fill:#231f20;}</style></defs><title>advance</title><g id="Layer_1" data-name="Layer 1"><path class="cls-1" d="M3.8,14.31a3.38,3.38,0,1,1,3.38-3.38A3.39,3.39,0,0,1,3.8,14.31Zm0-5.76a2.38,2.38,0,1,0,2.38,2.38A2.39,2.39,0,0,0,3.8,8.55Z"/><path class="cls-1" d="M12.27,14.31a3.38,3.38,0,1,1,3.38-3.38A3.38,3.38,0,0,1,12.27,14.31Z"/><path class="cls-1" d="M13.46,2.05a.75.75,0,0,0-.54-.31.69.69,0,0,0-.75.61L12,3.72A5,5,0,0,0,8.15,1.57c-2.89,0-4.9,3.24-5,3.38a.74.74,0,0,0,.25,1,.7.7,0,0,0,.39.11.74.74,0,0,0,.64-.35S6.13,3.08,8.15,3.07h0a3.55,3.55,0,0,1,2.62,1.52L9.42,4.33a.7.7,0,0,0-.75.61.78.78,0,0,0,.61.84l3,.55h.08a.84.84,0,0,0,.92-.74l.35-3A.67.67,0,0,0,13.46,2.05Z"/></g>
</symbol>

<symbol id="app-check" class="symbol" viewBox="0 0 16 16">
  <defs><style>.cls-1{fill:#231f20;}</style></defs><title>app-check</title><g id="Layer_1" data-name="Layer 1"><path class="cls-1" d="M5.992,13.5a1.616,1.616,0,0,1-1.137-.466L.971,9.188a1.58,1.58,0,0,1,0-2.25,1.619,1.619,0,0,1,2.273,0l2.748,2.72,6.764-6.7a1.619,1.619,0,0,1,2.273,0,1.579,1.579,0,0,1,0,2.25l-7.9,7.82A1.614,1.614,0,0,1,5.992,13.5Z"/></g>
</symbol>

<symbol id="app-list" class="symbol" viewBox="0 0 16 16">
  <defs><style>.cls-1{fill:#010101;}</style></defs><title>app-list</title><g id="Layer_1" data-name="Layer 1"><rect class="cls-1" x="0.42" y="1.696" width="2.811" height="2.811" rx="0.43" ry="0.43"/><path class="cls-1" d="M14.688,3.906H5.41a.843.843,0,0,1,0-1.687h9.278a.843.843,0,1,1,0,1.687Z"/><rect class="cls-1" x="0.42" y="6.754" width="2.811" height="2.811" rx="0.43" ry="0.43"/><path class="cls-1" d="M14.688,9H5.41a.843.843,0,0,1,0-1.687h9.278a.843.843,0,1,1,0,1.687Z"/><rect class="cls-1" x="0.42" y="11.811" width="2.811" height="2.811" rx="0.43" ry="0.43"/><path class="cls-1" d="M14.688,14.06H5.41a.843.843,0,1,1,0-1.687h9.278a.843.843,0,1,1,0,1.687Z"/></g>
</symbol>

<symbol id="apple" class="symbol" viewBox="0 0 16 16">
  <defs><style>.cls-1{fill:#231f20;}</style></defs><title>apple</title><g id="Layer_1" data-name="Layer 1"><path class="cls-1" d="M7.465,4.633a20.208,20.208,0,0,0-.578-3.086c-.2-.262-.513-.356-.513-.726a.591.591,0,0,1,1.131,0,14.765,14.765,0,0,1,.3,3.172S8.052,1.45,9.454.6A5.991,5.991,0,0,1,13.14.263s-.719,2.3-2.593,2.767A5.57,5.57,0,0,0,7.868,4.39l.024.254c1.349-.054,1.848-.98,3.82-.137a3.955,3.955,0,0,1,2.476,3.95c0,2.1-1.85,6.5-4.812,7.341-.395.112-1.109-.241-1.607-.241s-1.163.457-1.706.241C3.346,14.715,1.35,10.438,1.35,8.457A4.468,4.468,0,0,1,3.824,4.4C5.41,3.751,6.192,4.52,7.465,4.633Z"/></g>
</symbol>

<symbol id="background-checks" class="symbol" viewBox="0 0 16 16">
  <title>background-checks</title><g id="Layer_1" data-name="Layer 1"><path d="M15.287,2.508,8.518.291a1.537,1.537,0,0,0-.957,0L.793,2.508a.533.533,0,0,0-.367.507V7.743a5.4,5.4,0,0,0,2.128,4.3l4.555,3.47a1.537,1.537,0,0,0,1.863,0l4.555-3.47a5.4,5.4,0,0,0,2.128-4.3V3.015A.533.533,0,0,0,15.287,2.508ZM11.58,7.138,8.364,10.072a1.011,1.011,0,0,1-1.325.032L5.4,8.752A1.011,1.011,0,1,1,6.691,7.194l.959.793,2.568-2.342A1.011,1.011,0,0,1,11.58,7.138Z"/></g>
</symbol>

<symbol id="bars" class="symbol" viewBox="0 0 16 16">
  <defs><style>.cls-1{fill:#231f20;}</style></defs><title>bars</title><g id="Layer_1" data-name="Layer 1"><path class="cls-1" d="M1.334.5A.833.833,0,0,0,.5,1.333V14.667a.833.833,0,0,0,1.667,0V1.333A.834.834,0,0,0,1.334.5ZM5.778,3.278a.833.833,0,0,0-.833.833V14.667a.833.833,0,0,0,1.667,0V4.111A.834.834,0,0,0,5.778,3.278Zm8.889-1.667a.834.834,0,0,0-.833.834V14.667a.833.833,0,0,0,1.667,0V2.445A.833.833,0,0,0,14.666,1.611Zm-4.444,5a.833.833,0,0,0-.834.833v7.222a.833.833,0,0,0,1.667,0V7.444A.833.833,0,0,0,10.223,6.611Z"/></g>
</symbol>

<symbol id="bgcheck-status-clear" class="symbol" viewBox="0 0 16 16">
  <title>bgcheck-status-clear</title><g id="Layer_1" data-name="Layer 1"><path d="M15.287,2.508,8.518.291a1.532,1.532,0,0,0-.956,0L.793,2.508a.533.533,0,0,0-.368.507V7.743a5.4,5.4,0,0,0,2.129,4.3l4.555,3.471a1.536,1.536,0,0,0,1.862,0l4.555-3.471a5.4,5.4,0,0,0,2.129-4.3V3.015A.533.533,0,0,0,15.287,2.508ZM11.58,7.138,8.364,10.072a1.011,1.011,0,0,1-1.326.032L5.4,8.752A1.011,1.011,0,0,1,6.691,7.194l.959.793,2.568-2.342A1.01,1.01,0,0,1,11.58,7.138Z"/></g>
</symbol>

<symbol id="bgcheck-status-expired" class="symbol" viewBox="0 0 16 16">
  <defs><style>.cls-1{fill:#231f20;}</style></defs><title>bgcheck-status-expired</title><g id="Layer_1" data-name="Layer 1"><path id="Subtraction_13" data-name="Subtraction 13" class="cls-1" d="M8.04,15.825a1.7,1.7,0,0,1-.946-.3L2.516,12.016A5.47,5.47,0,0,1,.426,7.707V3a.506.506,0,0,1,.4-.5L7.493.29a1.688,1.688,0,0,1,.995,0L15.256,2.5a1,1,0,0,1,.4.5V7.707a5.47,5.47,0,0,1-2.09,4.309L8.986,15.524A1.7,1.7,0,0,1,8.04,15.825ZM6.886,3.222a.2.2,0,0,0-.2.189v.63a.2.2,0,0,0,.2.189h.469v.543a3.543,3.543,0,0,0-2.1,1.1,3.162,3.162,0,0,0-.848,2.14,3.388,3.388,0,0,0,3.484,3.276H7.9a3.553,3.553,0,0,0,2.55-1.047,3.157,3.157,0,0,0,.926-2.243,3.107,3.107,0,0,0-.561-1.766l-.007-.008a3.277,3.277,0,0,0-.7-.733L10.1,5.474a3.569,3.569,0,0,0-1.67-.7V4.231H8.9a.2.2,0,0,0,.2-.189V3.411a.2.2,0,0,0-.2-.189ZM9.809,8.768H7.555a.2.2,0,0,1-.2-.188V6.19A.2.2,0,0,1,7.555,6h.67a.2.2,0,0,1,.2.189V7.761H9.809a.2.2,0,0,1,.2.189v.628A.2.2,0,0,1,9.809,8.768Z"/></g>
</symbol>

<symbol id="bgcheck-status-none" class="symbol" viewBox="0 0 16 16">
  <defs><style>.cls-1{fill:#231f20;}</style></defs><title>bgcheck-status-none</title><g id="Layer_1" data-name="Layer 1"><path id="Subtraction_8" data-name="Subtraction 8" class="cls-1" d="M8.04,15.825a1.7,1.7,0,0,1-.946-.3L2.516,12.016A5.47,5.47,0,0,1,.426,7.707V3a.506.506,0,0,1,.4-.5L7.493.29a1.688,1.688,0,0,1,.995,0L15.256,2.5a1,1,0,0,1,.4.5V7.707a5.47,5.47,0,0,1-2.09,4.309L8.986,15.524A1.7,1.7,0,0,1,8.04,15.825ZM7.955,4.077a3.508,3.508,0,1,0,3.484,3.507A3.495,3.495,0,0,0,7.955,4.077Zm0,6.113h0a2.61,2.61,0,0,1-2.118-4.1l3.6,3.625a2.548,2.548,0,0,1-1.484.47Zm2.121-1.11h0l-3.6-3.629a2.577,2.577,0,0,1,3.6.659,2.623,2.623,0,0,1,0,2.966Z"/></g>
</symbol>

<symbol id="bgcheck-status-notclear" class="symbol" viewBox="0 0 16 16">
  <defs><style>.cls-1{fill:#231f20;}</style></defs><title>bgcheck-status-notclear</title><g id="Layer_1" data-name="Layer 1"><path id="Subtraction_2" data-name="Subtraction 2" class="cls-1" d="M8.04,15.825a1.7,1.7,0,0,1-.946-.3L2.516,12.016A5.47,5.47,0,0,1,.426,7.707V3a.506.506,0,0,1,.4-.5L7.493.29a1.688,1.688,0,0,1,.995,0L15.256,2.5a1,1,0,0,1,.4.5V7.707a5.47,5.47,0,0,1-2.09,4.309L8.986,15.524A1.7,1.7,0,0,1,8.04,15.825ZM6.145,4.874a.573.573,0,0,0-.4.2l-.466.47a.63.63,0,0,0-.215.437.7.7,0,0,0,.243.469l1.25,1.257L5.32,8.949a.594.594,0,0,0-.131.827c.014.019.029.038.045.056l.493.5a.625.625,0,0,0,.432.219.689.689,0,0,0,.464-.255l.015-.016L7.873,9.035l1.284,1.294a.611.611,0,0,0,.426.209.632.632,0,0,0,.439-.215l.467-.469A.536.536,0,0,0,10.475,9l-1.29-1.3,1.27-1.277a.681.681,0,0,0,.222-.458.61.61,0,0,0-.2-.425l-.493-.5A.544.544,0,0,0,9.6,4.862.669.669,0,0,0,9.14,5.1L7.871,6.38,6.62,5.126A.728.728,0,0,0,6.145,4.874Z"/></g>
</symbol>

<symbol id="bgcheck-status-pending" class="symbol" viewBox="0 0 16 16">
  <defs><style>.cls-1{fill:#231f20;}</style></defs><title>bgcheck-status-pending</title><g id="Layer_1" data-name="Layer 1"><path id="Subtraction_10" data-name="Subtraction 10" class="cls-1" d="M8.04,15.825a1.7,1.7,0,0,1-.946-.3L2.516,12.016A5.47,5.47,0,0,1,.426,7.707V3a.506.506,0,0,1,.4-.5L7.493.29a1.688,1.688,0,0,1,.995,0L15.256,2.5a1,1,0,0,1,.4.5V7.707a5.47,5.47,0,0,1-2.09,4.309L8.986,15.524A1.7,1.7,0,0,1,8.04,15.825Zm2.7-9.6A1.173,1.173,0,1,0,11.9,7.4h0A1.171,1.171,0,0,0,10.738,6.228Zm-2.847,0A1.173,1.173,0,1,0,9.055,7.4h0A1.171,1.171,0,0,0,7.891,6.228Zm-2.847,0A1.173,1.173,0,1,0,6.209,7.4,1.17,1.17,0,0,0,5.044,6.228Z"/></g>
</symbol>

<symbol id="bgcheck-status-unknown" class="symbol" viewBox="0 0 16 16">
  <defs><style>.cls-1{fill:#231f20;}</style></defs><title>bgcheck-status-unknown</title><g id="Layer_1" data-name="Layer 1"><path id="Subtraction_6" data-name="Subtraction 6" class="cls-1" d="M8.04,15.825a1.7,1.7,0,0,1-.946-.3L2.516,12.016A5.47,5.47,0,0,1,.426,7.707V3a.506.506,0,0,1,.4-.5L7.493.29a1.688,1.688,0,0,1,.995,0L15.256,2.5a1,1,0,0,1,.4.5V7.707a5.47,5.47,0,0,1-2.09,4.309L8.986,15.524A1.7,1.7,0,0,1,8.04,15.825Zm-.379-6.5a.948.948,0,1,0,.94.948h0A.945.945,0,0,0,7.661,9.328Zm.031-3.7c.441,0,.933.29.933.679,0,.307-.253.466-.665.7l-.035.018c-.482.272-1.08.61-1.08,1.433V8.6a.327.327,0,0,0,.326.328h.983A.327.327,0,0,0,8.481,8.6V8.519c0-.222.241-.362.545-.539A1.829,1.829,0,0,0,10.18,6.329,2.355,2.355,0,0,0,7.8,4.224,2.616,2.616,0,0,0,5.461,5.468a.33.33,0,0,0,.071.45l.585.446a.325.325,0,0,0,.2.067.329.329,0,0,0,.255-.123A1.318,1.318,0,0,1,7.692,5.632Z"/></g>
</symbol>

<symbol id="browser-outline" class="symbol" viewBox="0 0 16 16">
  <defs><style>.cls-1{fill:#231f20;}</style></defs><title>browser-outline</title><g id="Layer_1" data-name="Layer 1"><path class="cls-1" d="M14.457.025H1.518A1.5,1.5,0,0,0,.025,1.518v12.94a1.5,1.5,0,0,0,1.493,1.493h12.94a1.5,1.5,0,0,0,1.493-1.493V1.518A1.5,1.5,0,0,0,14.457.025Zm.5,14.433a.5.5,0,0,1-.5.5H1.518a.5.5,0,0,1-.5-.5V1.518a.5.5,0,0,1,.5-.5h12.94a.5.5,0,0,1,.5.5ZM12.964,2.016H3.011a1,1,0,0,0-1,1V5a1,1,0,0,0,1,1h9.954a1,1,0,0,0,1-1V3.011A1,1,0,0,0,12.964,2.016ZM3.011,5V3.011h9.954V5ZM5,6.992H3.011a1,1,0,0,0-1,1v4.977a1,1,0,0,0,1,1H5a1,1,0,0,0,1-1V7.988A1,1,0,0,0,5,6.992ZM3.011,12.964V7.988H5v4.977Zm9.954-5.972H7.988a1,1,0,0,0-1,1v4.977a1,1,0,0,0,1,1h4.977a1,1,0,0,0,1-1V7.988A1,1,0,0,0,12.964,6.992ZM7.988,12.964V7.988h4.977v4.977Z"/></g>
</symbol>

<symbol id="bulk-update" class="symbol" viewBox="0 0 16 16">
  <defs><style>.cls-1{fill:#010101;}</style></defs><title>bulk-update</title><g id="Layer_1" data-name="Layer 1"><path class="cls-1" d="M.387,1.938A.387.387,0,0,0,0,2.324V4.012A.387.387,0,0,0,.387,4.4H8.441l.806-.949,1.284-1.512ZM0,6.665V8.353a.387.387,0,0,0,.387.387H4.753L6.844,6.278H.387A.387.387,0,0,0,0,6.665ZM13.151,10.7h-.629l-2.091,2.461h2.72a.387.387,0,0,0,.387-.387V11.089A.387.387,0,0,0,13.151,10.7ZM0,11.089v1.688a.387.387,0,0,0,.387.387H2.392l.039-1.579a.32.32,0,0,1,.076-.2l.58-.683H.387A.387.387,0,0,0,0,11.089Z"/><path class="cls-1" d="M13.02,1.982,11.713,3.519l2.813,2.389,1.306-1.538a.4.4,0,0,0-.046-.563l-2.2-1.873A.4.4,0,0,0,13.02,1.982ZM4.458,15.42l2.367-.446L4.044,12.611l-.059,2.406A.4.4,0,0,0,4.458,15.42Zm.153-3.508L7.424,14.3l6.514-7.7L11.125,4.212Z"/></g>
</symbol>

<symbol id="calendar-check" class="symbol" viewBox="0 0 16 16">
  <defs><style>.cls-1{fill:#010101;}</style></defs><title>calendar-check</title><g id="Layer_1" data-name="Layer 1"><path class="cls-1" d="M14.044,2.063H12.415V0H11.038V2.063H4.843V0H3.467V2.063H1.837A1.123,1.123,0,0,0,.713,3.186v10.82a1.123,1.123,0,0,0,1.124,1.123H14.044a1.123,1.123,0,0,0,1.124-1.123V3.186A1.123,1.123,0,0,0,14.044,2.063Zm-.253,11.691H2.09V3.439h11.7ZM11.748,7.076l-.941-.99L7.453,9.613,5.806,7.88l-.941.99,2.589,2.723Z"/></g>
</symbol>

<symbol id="calendar" class="symbol" viewBox="0 0 16 16">
  <defs><style>.cls-1{fill:#231f20;}</style></defs><title>calendar</title><g id="Layer_1" data-name="Layer 1"><path class="cls-1" d="M14.758,6.038V2.612a.872.872,0,0,0-.852-.891H12.683v-.8a.853.853,0,1,0-1.7,0v.8H4.809v-.8A.872.872,0,0,0,3.957.031a.872.872,0,0,0-.852.891v.8H1.981a.872.872,0,0,0-.852.891V15.086a.872.872,0,0,0,.852.891H13.906a.872.872,0,0,0,.852-.891V6.313a.874.874,0,0,0,.026-.137A.874.874,0,0,0,14.758,6.038Zm-1.7,8.157H2.833V7.067H13.054Zm0-8.91H2.833V3.5H13.054Zm-8.246,4.9A.886.886,0,1,0,3.962,9.3.867.867,0,0,0,4.809,10.186Zm3.162,0A.886.886,0,1,0,7.124,9.3.867.867,0,0,0,7.97,10.186Zm3.162,0a.886.886,0,1,0-.846-.885A.867.867,0,0,0,11.132,10.186ZM4.809,12.859a.886.886,0,1,0-.847-.885A.867.867,0,0,0,4.809,12.859Zm3.162,0a.886.886,0,1,0-.846-.885A.867.867,0,0,0,7.97,12.859Zm3.162,0a.886.886,0,1,0-.846-.885A.867.867,0,0,0,11.132,12.859Z"/></g>
</symbol>

<symbol id="card-complete" class="symbol" viewBox="0 0 16 16">
  <defs><style>.cls-1{fill:#231f20;fill-rule:evenodd;}.cls-2{fill:#010101;}</style></defs><title>card-complete</title><g id="Layer_1" data-name="Layer 1"><path class="cls-1" d="M13.584,10l-3.249,3.356a.092.092,0,0,1-.132,0L7.926,11.013a.092.092,0,0,1,0-.128l.9-.923a.092.092,0,0,1,.132,0L10.2,11.24a.059.059,0,0,0,.085,0l2.243-2.323a.092.092,0,0,1,.132,0l.926.953A.092.092,0,0,1,13.584,10Z"/><path class="cls-2" d="M10.715,6.915a4.187,4.187,0,0,1,.624.047,3.991,3.991,0,0,1-.626,7.945,4,4,0,1,1,0-7.992h0m0-1h0a5.077,5.077,0,1,0,.774.058,5.168,5.168,0,0,0-.772-.058Z"/><path class="cls-2" d="M5.729,13.922H1.382V1.484H7.3V3.96a.136.136,0,0,0,.04.095.139.139,0,0,0,.1.039H9.946V5.2a5.949,5.949,0,0,1,.767-.055,5.885,5.885,0,0,1,.615.046V3.8a.589.589,0,0,0-.181-.426L7.994.281A.625.625,0,0,0,7.56.1H.613A.624.624,0,0,0,.18.281.6.6,0,0,0,0,.707V14.736a.6.6,0,0,0,.18.426.622.622,0,0,0,.434.176H6.968A5.832,5.832,0,0,1,5.729,13.922Z"/></g>
</symbol>

<symbol id="card-removed" class="symbol" viewBox="0 0 16 16">
  <defs><style>.cls-1{fill:#010101;}.cls-2{fill:#231f20;fill-rule:evenodd;}</style></defs><title>card-removed</title><g id="Layer_1" data-name="Layer 1"><path class="cls-1" d="M10.815,6.915a4.187,4.187,0,0,1,.624.047,3.991,3.991,0,0,1-.626,7.945,4,4,0,1,1,0-7.992h0m0-1h0a5.077,5.077,0,1,0,.774.058,5.168,5.168,0,0,0-.772-.058Z"/><path class="cls-1" d="M5.829,13.922H1.481V1.484H7.4V3.96a.136.136,0,0,0,.04.095.139.139,0,0,0,.1.039h2.507V5.2a5.949,5.949,0,0,1,.767-.055,5.885,5.885,0,0,1,.615.046V3.8a.589.589,0,0,0-.181-.426L8.094.281A.625.625,0,0,0,7.66.1H.713A.624.624,0,0,0,.279.281.6.6,0,0,0,.1.707V14.736a.6.6,0,0,0,.18.426.622.622,0,0,0,.434.176H7.068A5.832,5.832,0,0,1,5.829,13.922Z"/><path class="cls-2" d="M13.122,9.6l-1-1a.133.133,0,0,0-.188,0L10.812,9.721,9.693,8.6a.133.133,0,0,0-.188,0l-1,1a.133.133,0,0,0,0,.188l1.119,1.119L8.5,12.031a.133.133,0,0,0,0,.188l1,1a.133.133,0,0,0,.188,0L10.812,12.1l1.119,1.119a.133.133,0,0,0,.188,0l1-1a.133.133,0,0,0,0-.188L12,10.911l1.119-1.119A.133.133,0,0,0,13.122,9.6Z"/></g>
</symbol>

<symbol id="chat-bubble" class="symbol" viewBox="0 0 16 16">
  <defs><style>.cls-1{fill:#010101;}</style></defs><title>chat-bubble</title><g id="Layer_1" data-name="Layer 1"><path class="cls-1" d="M8.305,14.821a8.36,8.36,0,0,1-4.274-1.149l-2.073.63a1.405,1.405,0,0,1-1.652-2l.887-1.693A6.024,6.024,0,0,1,.61,8.032c0-3.745,3.452-6.79,7.695-6.79S16,4.287,16,8.032,12.548,14.821,8.305,14.821ZM4.239,12.146l.272.178a6.939,6.939,0,0,0,3.794,1.1c3.471,0,6.3-2.418,6.3-5.39S11.776,2.64,8.305,2.64s-6.3,2.418-6.3,5.391a4.694,4.694,0,0,0,.585,2.253l.178.328L1.545,12.954Z"/><path class="cls-1" d="M5.313,7.484a.845.845,0,1,0,.845.845.845.845,0,0,0-.845-.845Z"/><path class="cls-1" d="M8.316,7.484a.845.845,0,1,0,.845.845.845.845,0,0,0-.845-.845Z"/><path class="cls-1" d="M11.319,7.484a.845.845,0,1,0,.845.845.845.845,0,0,0-.845-.845Z"/></g>
</symbol>

<symbol id="checkr-logo" class="symbol" viewBox="0 0 16 16">
  <defs><style>.cls-1{fill:#010101;}</style></defs><title>checkr-logo</title><g id="Layer_1" data-name="Layer 1"><path class="cls-1" d="M13.353,9.453h-.673l-.757-1.262-.072.072-.216.228v.961H11.07V9.093a1.836,1.836,0,0,1-.637.361.093.093,0,0,0-.036.012,2.022,2.022,0,0,1-.373.048H9.941a1.268,1.268,0,0,1-.925-.4,1.548,1.548,0,0,1-.336-1.009A1.486,1.486,0,0,1,9.015,7.1a1.141,1.141,0,0,1,.913-.4,1.056,1.056,0,0,1,.745.252.725.725,0,0,1,.1.1l-.324.409a.613.613,0,0,0-.493-.216.621.621,0,0,0-.5.24,1.028,1.028,0,0,0-.18.637,1.028,1.028,0,0,0,.18.637A.713.713,0,0,0,9.917,9h.2a1.34,1.34,0,0,0,.961-.721V5.62h.565V7.711l.9-.949h.769l-.973,1.009Z"/><path class="cls-1" d="M8.4,8.107a1.576,1.576,0,0,0-.3-.985,1.03,1.03,0,0,0-.877-.409,1.1,1.1,0,0,0-.889.409,1.475,1.475,0,0,0-.336,1,1.531,1.531,0,0,0,.324,1,1.166,1.166,0,0,0,.925.4h0A1.244,1.244,0,0,0,8.294,9l-.373-.373a.683.683,0,0,1-.276.252.974.974,0,0,1-.409.1.583.583,0,0,1-.469-.192.873.873,0,0,1-.18-.457h1.8V8.107ZM6.636,7.759A.739.739,0,0,1,6.828,7.4a.534.534,0,0,1,.4-.156A.465.465,0,0,1,7.6,7.4a.867.867,0,0,1,.192.361Z"/><path class="cls-1" d="M15.757,7.182l-.445.445a.667.667,0,0,0-.228-.324A.486.486,0,0,0,14.8,7.23a.429.429,0,0,0-.4.24,1.167,1.167,0,0,0-.168.637V9.441h-.565V6.749h.565v.2a1.055,1.055,0,0,1,.721-.252.861.861,0,0,1,.529.156A1.044,1.044,0,0,1,15.757,7.182Z"/><path class="cls-1" d="M5.675,7.626V9.453H5.122V7.687c0-.3-.132-.445-.421-.445a.546.546,0,0,0-.433.216.667.667,0,0,0-.072.1.788.788,0,0,0-.1.252.265.265,0,0,0-.012.1c0,.048-.012.1-.012.144V9.441H3.512V8.708c-.012.024-.036.036-.048.06a2.184,2.184,0,0,1-1.19.7.044.044,0,0,0-.036.012c-.1.012-.18.024-.228.024h-.12a1.514,1.514,0,0,1-1.2-.529,2.561,2.561,0,0,1,0-2.884A1.5,1.5,0,0,1,1.865,5.56,1.6,1.6,0,0,1,2.875,5.9a.954.954,0,0,1,.168.2l-.373.469a.813.813,0,0,0-.805-.445.971.971,0,0,0-.745.385A1.783,1.783,0,0,0,.844,7.518a1.839,1.839,0,0,0,.276,1,.994.994,0,0,0,.805.373,2.788,2.788,0,0,0,.288-.024A2.047,2.047,0,0,0,3.464,7.7a.427.427,0,0,0,.048-.108V5.62h.565V6.966A1.89,1.89,0,0,1,4.3,6.821a1.182,1.182,0,0,1,.481-.12.885.885,0,0,1,.661.228A.938.938,0,0,1,5.675,7.626Z"/></g>
</symbol>

<symbol id="comment" class="symbol" viewBox="0 0 16 16">
  <defs><style>.cls-1{fill:#231f20;}</style></defs><title>comment</title><g id="Layer_1" data-name="Layer 1"><path class="cls-1" d="M15,7.149a7,7,0,1,0-7.25,7.046c.539.528,2.282,2.016,4.256,1.41,0,0,.587-.162.274-.646a11.671,11.671,0,0,1-.864-1.654A7.059,7.059,0,0,0,15,7.149ZM9.373,9.51H5.354a.861.861,0,0,1-.744-.942.859.859,0,0,1,.744-.939h4.02a.859.859,0,0,1,.744.939A.861.861,0,0,1,9.373,9.51Zm1.211-3.1H5.543a.94.94,0,0,1,0-1.881h5.041a.94.94,0,0,1,0,1.881Z"/></g>
</symbol>

<symbol id="crop" class="symbol" viewBox="0 0 16 16">
  <defs><style>.cls-1{fill:#231f20;}</style></defs><title>crop</title><g id="Layer_1" data-name="Layer 1"><path class="cls-1" d="M15.447,11.514H13.283V5.419a6.472,6.472,0,0,0-.4-1.954L15.467.937a.276.276,0,1,0-.391-.391L12.488,3.075a3.524,3.524,0,0,0-1.432-.357H4.439V1.029c0-.305-.816-.553-1.122-.553s-1.075.248-1.075.553V2.718H.553C.248,2.718,0,3.487,0,3.792S.248,4.867.553,4.867H2.242v7.186A1.66,1.66,0,0,0,3.9,13.711h7.186v1.737c0,.305.769.553,1.075.553s1.122-.248,1.122-.553V13.711h2.163c.306,0,.553-.769.553-1.075S15.752,11.514,15.447,11.514ZM10.534,4.867a.539.539,0,0,1,.135.027l-6.2,6.2a.534.534,0,0,1-.027-.135V5.419a.553.553,0,0,1,.553-.553ZM4.992,11.514a.535.535,0,0,1-.135-.027l6.2-6.2a.533.533,0,0,1,.027.135v5.542a.553.553,0,0,1-.553.553Z"/></g>
</symbol>

<symbol id="download" class="symbol" viewBox="0 0 16 16">
  <defs><style>.cls-1{fill:#231f20;}</style></defs><title>download</title><g id="Layer_1" data-name="Layer 1"><path class="cls-1" d="M13.587,8v4.181H2.4V8H0v6.689H15.984V8ZM7.8,10.463a.257.257,0,0,0,.378,0l3.887-4.2a.257.257,0,0,0-.189-.432H9.591V2.742a.257.257,0,0,0-.257-.257H6.651a.257.257,0,0,0-.257.257V5.829H4.105a.257.257,0,0,0-.189.432Z"/></g>
</symbol>

<symbol id="email-envelope" class="symbol" viewBox="0 0 16 16">
  <defs><style>.cls-1{fill:#231f20;}</style></defs><title>email-envelope</title><g id="Layer_1" data-name="Layer 1"><path class="cls-1" d="M.987,5.8,7.43,8.926a1.072,1.072,0,0,0,.818,0L15.2,5.491a.358.358,0,0,0,.2-.321,1,1,0,0,0-1-1H1.8A1.016,1.016,0,0,0,.786,5.183v.3A.358.358,0,0,0,.987,5.8ZM14.748,7.3,8.881,10.2a2.474,2.474,0,0,1-2.048.006l-5.4-2.613A.448.448,0,0,0,.786,8v4.657a.978.978,0,0,0,.973.977H14.312a1.089,1.089,0,0,0,1.083-1.088V7.7A.448.448,0,0,0,14.748,7.3Z"/></g>
</symbol>

<symbol id="envelope-open-outline" class="symbol" viewBox="0 0 16 16">
  <defs><style>.cls-1{fill:#231f20;}</style></defs><title>envelope-open-outline</title><g id="Layer_1" data-name="Layer 1"><path class="cls-1" d="M15.955,7.511v0l0-.017a.5.5,0,0,0-.029-.173,1,1,0,0,0-.166-.4h0L15.746,6.9a1,1,0,0,0-.178-.179L9.072.445a1.531,1.531,0,0,0-2.114,0L.463,6.676a1.345,1.345,0,0,0-.45.831v7.465a1,1,0,0,0,1,1H14.959a1,1,0,0,0,1-1V7.523S15.955,7.515,15.955,7.511ZM4.215,11.331l-3.2,2.951V8.5Zm1.086.353c.011-.011.026-.015.037-.027l.008-.015,2.2-2.03a.611.611,0,0,1,.387-.139A.645.645,0,0,1,8.32,9.6l5.972,5.372H1.732Zm6.505-.288,3.152-2.8v5.633ZM1.63,6.918,7.663,1.149a.5.5,0,0,1,.705,0L13.994,6.51h-.015l.854.869-3.772,3.348L8.956,8.833a1.639,1.639,0,0,0-2.05.021l-1.954,1.8L1.187,7.332l.42-.414Z"/></g>
</symbol>

<symbol id="envelope-outline" class="symbol" viewBox="0 0 16 16">
  <defs><style>.cls-1{fill:#231f20;}</style></defs><title>envelope-outline</title><g id="Layer_1" data-name="Layer 1"><path class="cls-1" d="M13.947,1.445H2.061A2.026,2.026,0,0,0,.044,3.479V11.8a2.026,2.026,0,0,0,2.017,2.035H13.947A2.026,2.026,0,0,0,15.964,11.8V3.479A2.026,2.026,0,0,0,13.947,1.445Zm-3.182,6.9,4-3.421v5.783Zm-8.7-5.689H13.947a.809.809,0,0,1,.777.622L8.135,9.161a.163.163,0,0,1-.2,0L1.291,3.238A.811.811,0,0,1,2.061,2.654ZM5.375,8.422l-4.132,2.35V4.877Zm8.572,4.2H2.061a.817.817,0,0,1-.746-.493l4.9-2.785,1.012.916a1.347,1.347,0,0,0,1.615,0l1.076-.994,4.788,2.806A.813.813,0,0,1,13.947,12.622Z"/></g>
</symbol>

<symbol id="error-uploading" class="symbol" viewBox="0 0 16 16">
  <defs><style>.cls-1{fill:#010101;}</style></defs><title>error-uploading</title><g id="Layer_1" data-name="Layer 1"><path class="cls-1" d="M6.913,10.285A.683.683,0,0,1,6.43,9.119L9.064,6.485a.683.683,0,0,1,.966.966L7.4,10.085A.681.681,0,0,1,6.913,10.285Z"/><path class="cls-1" d="M9.547,10.285a.681.681,0,0,1-.483-.2L6.43,7.451A.683.683,0,0,1,7.4,6.485L10.03,9.119a.683.683,0,0,1-.483,1.166Z"/><path class="cls-1" d="M13.926,5.261H10.518A1,1,0,0,1,9.46,4.252V.846A.836.836,0,0,1,10.3,0a.822.822,0,0,1,.591.248l3.637,3.636a.791.791,0,0,1,.183.89A.813.813,0,0,1,13.926,5.261Zm-3.1-1.366h1.839l-1.839-1.8Z"/><path class="cls-1" d="M13.741,15.993H2.564A1.067,1.067,0,0,1,1.5,14.926V1.059A1.067,1.067,0,0,1,2.564-.008h7.716V1.358H2.864V14.627H13.4V4.48h1.366V14.926A1.034,1.034,0,0,1,13.741,15.993Z"/></g>
</symbol>

<symbol id="facebook-outline" class="symbol" viewBox="0 0 16 16">
  <defs><style>.cls-1{fill:#231f20;}</style></defs><title>facebook-outline</title><g id="Layer_1" data-name="Layer 1"><path class="cls-1" d="M12.353,4.987a1.3,1.3,0,0,0-1.023-.5H10.006V4h.776a1.267,1.267,0,0,0,1.281-1.24l.008-1.5A1.265,1.265,0,0,0,10.789.007H9.483c-.032,0-.08,0-.138,0A3.864,3.864,0,0,0,7.437.5,3.138,3.138,0,0,0,5.89,3.406V4.489H5.113a1.3,1.3,0,0,0-.906.365,1.239,1.239,0,0,0-.374.885l0,1.5A1.266,1.266,0,0,0,5.117,8.476h.772v6.241a1.265,1.265,0,0,0,1.281,1.245H8.716A1.265,1.265,0,0,0,10,14.717V8.476h.969A1.286,1.286,0,0,0,12.2,7.57l.36-1.483A1.222,1.222,0,0,0,12.353,4.987ZM10.966,7.231H8.716v7.487H7.171V7.231H5.117l0-1.5H7.171V3.406A2.026,2.026,0,0,1,9.345,1.25c.061,0,.1,0,.1,0h1.346l-.007,1.5H9.444c-.736,0-.719.608-.719.608V5.734h2.6Z"/></g>
</symbol>

<symbol id="facebook" class="symbol" viewBox="0 0 16 16">
  <defs><style>.cls-1{fill:#231f20;fill-rule:evenodd;}</style></defs><title>facebook</title><g id="Layer_1" data-name="Layer 1"><path class="cls-1" d="M11.919,0H9.5S5.716-.381,5.716,3.4V4.973H4.177L4.152,7.951H5.716v7.927H9.3V7.951h2.072l.5-2.979H9.3V3.762s-.221-1.024,1.055-1.024h1.536Z"/></g>
</symbol>

<symbol id="form-break" class="symbol" viewBox="0 0 16 16">
  <g> <g> <path d="M3.7,9.3H1c-0.4,0-0.8-0.4-0.8-0.8V7.6c0-0.4,0.4-0.8,0.8-0.8h2.7c0.4,0,0.8,0.4,0.8,0.8v0.9C4.5,8.9,4.2,9.3,3.7,9.3z"/> </g> <g> <path d="M9.4,9.3H6.7c-0.4,0-0.8-0.4-0.8-0.8V7.6c0-0.4,0.4-0.8,0.8-0.8h2.7c0.4,0,0.8,0.4,0.8,0.8v0.9C10.2,8.9,9.8,9.3,9.4,9.3z
			"/> </g> <g> <path d="M15,9.3h-2.7c-0.4,0-0.8-0.4-0.8-0.8V7.6c0-0.4,0.4-0.8,0.8-0.8H15c0.4,0,0.8,0.4,0.8,0.8v0.9C15.8,8.9,15.5,9.3,15,9.3z"/> </g> </g>
</symbol>

<symbol id="form-checkbox" class="symbol" viewBox="0 0 16 16">
  <style type="text/css"> .st0{fill:#231F20;} </style><g> <g> <path d="M13.4,10v3.4H2.6V2.6h6.1V1.1H2.3c-0.7,0-1.2,0.6-1.2,1.2v11.3c0,0.7,0.6,1.2,1.2,1.2h11.3c0.7,0,1.2-0.6,1.2-1.2V10H13.4
			z"/> </g> <g> <path class="st0" d="M8.4,10.7c-0.1,0-0.3-0.1-0.4-0.2L4.5,7.3c-0.1-0.1-0.1-0.2,0-0.3l1.1-1.2c0-0.1,0.1-0.1,0.1-0.1
			c0,0,0.1,0,0.1,0.1l2.5,2.3l5-5.1c0,0,0.1-0.1,0.1-0.1c0,0,0.1,0,0.1,0.1l1.1,1.1c0.1,0.1,0.1,0.2,0,0.3l-6,6.1
			C8.7,10.7,8.5,10.7,8.4,10.7z"/> </g> </g>
</symbol>

<symbol id="form-dropdown" class="symbol" viewBox="0 0 16 16">
  <style type="text/css"> .st0{fill:#231F20;} </style><g> <g> <g> <path d="M14,0.9H2c-0.5,0-0.9,0.4-0.9,0.9v12.5c0,0.5,0.4,0.9,0.9,0.9H14c0.5,0,0.9-0.4,0.9-0.9V1.8C14.8,1.3,14.4,0.9,14,0.9z
				 M13.1,13.3H2.9V2.7h10.2V13.3z"/> </g> </g> <path class="st0" d="M11.1,6.5l-2.7,3.5c-0.1,0.1-0.2,0.1-0.3,0.1c-0.1,0-0.2,0-0.3-0.1L4.9,6.5C4.8,6.4,4.8,6.2,4.9,6.1
		c0.1-0.2,0.2-0.3,0.4-0.3h5.5c0.2,0,0.3,0.1,0.4,0.3C11.2,6.2,11.2,6.4,11.1,6.5z"/> </g>
</symbol>

<symbol id="form-number" class="symbol" viewBox="0 0 16 16">
  <style type="text/css"> .st0{fill:#231F20;} </style><g> <path class="st0" d="M1.8,6L1.3,6.2c-0.1,0-0.2,0-0.3,0c-0.3,0-0.6-0.3-0.6-0.6c0-0.3,0.2-0.5,0.5-0.6l1-0.3
		c0.3-0.1,0.5-0.1,0.7-0.1h0c0.4,0,0.7,0.3,0.7,0.7v5.4c0,0.4-0.3,0.7-0.7,0.7c-0.4,0-0.7-0.3-0.7-0.7V6z"/> <path class="st0" d="M5,9.9l1.9-1.6c0.8-0.7,1.2-1.1,1.2-1.6c0-0.6-0.4-0.9-0.9-0.9C6.7,5.9,6.4,6,6.1,6.4C6,6.5,5.8,6.7,5.6,6.7
		C5.2,6.7,4.9,6.4,4.9,6c0-0.2,0.1-0.3,0.2-0.5c0.5-0.6,1.2-1,2.2-1c1.4,0,2.3,0.8,2.3,2.1v0c0,1.1-0.6,1.7-1.8,2.6l-1.1,0.8h2.4
		c0.4,0,0.6,0.3,0.6,0.6s-0.3,0.6-0.6,0.6H5.4c-0.5,0-0.8-0.3-0.8-0.7C4.6,10.4,4.7,10.1,5,9.9z"/> <path class="st0" d="M10.9,10.7c-0.1-0.1-0.3-0.3-0.3-0.5c0-0.4,0.3-0.7,0.7-0.7c0.2,0,0.4,0.1,0.5,0.2c0.4,0.3,0.8,0.5,1.3,0.5
		c0.6,0,1-0.3,1-0.8v0c0-0.5-0.5-0.9-1.3-0.9h-0.2c-0.3,0-0.6-0.3-0.6-0.6c0-0.2,0.1-0.4,0.3-0.6l1.3-1.3h-2.1
		c-0.3,0-0.6-0.3-0.6-0.6c0-0.3,0.3-0.6,0.6-0.6h3.3c0.4,0,0.8,0.3,0.8,0.7c0,0.4-0.2,0.6-0.4,0.8l-1.3,1.3c0.9,0.2,1.8,0.6,1.8,1.9
		v0c0,1.3-0.9,2.2-2.4,2.2C12.2,11.5,11.5,11.2,10.9,10.7z"/> </g>
</symbol>

<symbol id="form-paragraph" class="symbol" viewBox="0 0 16 16">
  <g> <g> <path d="M14.3,4.5H1.7c-0.4,0-0.8-0.4-0.8-0.8V2.8C0.9,2.4,1.2,2,1.7,2h12.7c0.4,0,0.8,0.4,0.8,0.8v0.9
			C15.1,4.1,14.8,4.5,14.3,4.5z"/> </g> <g> <path d="M14.3,9.2H1.7c-0.4,0-0.8-0.4-0.8-0.8V7.6c0-0.4,0.4-0.8,0.8-0.8h12.7c0.4,0,0.8,0.4,0.8,0.8v0.9
			C15.1,8.9,14.8,9.2,14.3,9.2z"/> </g> <g> <path d="M11.3,14H1.7c-0.4,0-0.8-0.4-0.8-0.8v-0.9c0-0.4,0.4-0.8,0.8-0.8h9.7c0.4,0,0.8,0.4,0.8,0.8v0.9
			C12.1,13.6,11.8,14,11.3,14z"/> </g> </g>
</symbol>

<symbol id="form-text" class="symbol" viewBox="0 0 16 16">
  <style type="text/css"> .st0{fill:#231F20;} </style><g> <g> <path class="st0" d="M2,10.4l2.4-5.3c0.2-0.4,0.5-0.6,0.9-0.6h0.1c0.4,0,0.7,0.2,0.9,0.6l2.4,5.3c0,0.1,0.1,0.2,0.1,0.3
			c0,0.4-0.3,0.7-0.7,0.7c-0.3,0-0.6-0.2-0.7-0.5L6.7,9.9h-3L3.3,11c-0.1,0.3-0.4,0.5-0.7,0.5c-0.4,0-0.7-0.3-0.7-0.7
			C1.9,10.6,2,10.5,2,10.4z M6.2,8.6L5.3,6.3L4.3,8.6H6.2z"/> <path class="st0" d="M9.3,9.9L9.3,9.9c0-1.1,0.9-1.7,2.1-1.7c0.5,0,0.9,0.1,1.3,0.2V8.4c0-0.6-0.4-0.9-1.1-0.9
			c-0.4,0-0.7,0.1-1,0.1c-0.1,0-0.1,0-0.2,0C10,7.6,9.7,7.3,9.7,7c0-0.3,0.2-0.5,0.4-0.6c0.5-0.2,1-0.3,1.6-0.3
			c0.8,0,1.4,0.2,1.7,0.6c0.4,0.4,0.6,1,0.6,1.6v2.4c0,0.4-0.3,0.7-0.7,0.7c-0.4,0-0.7-0.3-0.7-0.6v0c-0.4,0.4-0.8,0.7-1.6,0.7
			C10.1,11.5,9.3,10.9,9.3,9.9z M12.7,9.6V9.3c-0.3-0.1-0.6-0.2-0.9-0.2c-0.6,0-1,0.3-1,0.7v0c0,0.4,0.3,0.6,0.8,0.6
			C12.2,10.5,12.7,10.1,12.7,9.6z"/> </g> </g>
</symbol>

<symbol id="groups-added" class="symbol" viewBox="0 0 16 16">
  <defs><style>.cls-1{fill:#010101;}</style></defs><title>groups-added</title><g id="Layer_1" data-name="Layer 1"><path class="cls-1" d="M12.488,15.745a.549.549,0,0,1-.548-.548V11.27a.548.548,0,0,1,1.1,0V15.2A.549.549,0,0,1,12.488,15.745Z"/><path class="cls-1" d="M10.524,13.781a.548.548,0,1,1,0-1.1h3.928a.548.548,0,0,1,0,1.1Z"/><path class="cls-1" d="M3.454,16a2.011,2.011,0,0,1-2-2.013V10.836A2.427,2.427,0,0,1,3,8.574l2.419-.923-.317-.215a3.839,3.839,0,1,1,4.291,0l-.317.215,2.554.974a.616.616,0,0,1-.22,1.192h0a.609.609,0,0,1-.216-.039l-3.946-1.5L3.439,9.728a1.189,1.189,0,0,0-.763,1.108v3.151a.78.78,0,0,0,.777.78h5.7a.616.616,0,0,1,0,1.232Zm3.8-14.376A2.619,2.619,0,1,0,9.863,4.243,2.619,2.619,0,0,0,7.252,1.624Z"/></g>
</symbol>

<symbol id="groups-app" class="symbol" viewBox="0 0 16 16">
  <defs><style>.cls-1{fill:#020202;}</style></defs><title>groups-app</title><g id="Layer_1" data-name="Layer 1"><path class="cls-1" d="M9.154,5.031a1.521,1.521,0,0,0-.39.686H7.236a1.53,1.53,0,0,0-2.57-.686,1.546,1.546,0,0,0,0,2.184,1.52,1.52,0,0,0,.684.391V9.137a1.517,1.517,0,0,0-.684.391,1.543,1.543,0,1,0,2.571,1.5H8.765a1.53,1.53,0,0,0,2.57.686,1.536,1.536,0,0,0-.685-2.576V7.606a1.516,1.516,0,0,0,.684-.391,1.543,1.543,0,0,0-2.18-2.184Zm.684,4.106a1.493,1.493,0,0,0-1.074,1.077H7.236A1.492,1.492,0,0,0,6.162,9.136V7.606A1.493,1.493,0,0,0,7.236,6.529H8.764A1.493,1.493,0,0,0,9.838,7.606Z"/><path class="cls-1" d="M14,.014H2a2,2,0,0,0-2,2v12a2,2,0,0,0,2,2H14a2,2,0,0,0,2-2v-12A2,2,0,0,0,14,.014Zm0,14H2v-12H5a1,1,0,0,0,1,1h4a1,1,0,0,0,1-1h3Z"/></g>
</symbol>

<symbol id="groups-removed" class="symbol" viewBox="0 0 16 16">
  <defs><style>.cls-1{fill:#010101;}</style></defs><title>groups-removed</title><g id="Layer_1" data-name="Layer 1"><path class="cls-1" d="M10.723,13.14a.548.548,0,0,1,0-1.1h3.928a.548.548,0,1,1,0,1.1Z"/><path class="cls-1" d="M3.654,16a2.011,2.011,0,0,1-2-2.013V10.836A2.428,2.428,0,0,1,3.2,8.574l2.418-.923-.317-.215a3.839,3.839,0,1,1,4.292,0l-.317.215,2.554.974a.616.616,0,0,1-.22,1.192h0a.609.609,0,0,1-.216-.039l-3.946-1.5L3.639,9.728a1.189,1.189,0,0,0-.763,1.108v3.151a.78.78,0,0,0,.777.78h5.7a.616.616,0,0,1,0,1.232Zm3.8-14.376a2.619,2.619,0,1,0,2.611,2.619A2.619,2.619,0,0,0,7.452,1.624Z"/></g>
</symbol>

<symbol id="heart-outline" class="symbol" viewBox="0 0 16 16">
  <defs><style>.cls-1{fill:#010101;}</style></defs><title>heart-outline</title><g id="Layer_1" data-name="Layer 1"><path class="cls-1" d="M8.023,15.024a1.575,1.575,0,0,1-1.133-.478L1.9,9.47A4.356,4.356,0,0,1,.662,6.227a4.284,4.284,0,0,1,1.53-3.111,4.282,4.282,0,0,1,5.78.383l.05.051a4.218,4.218,0,0,1,7.263,2.776,4.354,4.354,0,0,1-1.237,3.243L9.156,14.546A1.577,1.577,0,0,1,8.023,15.024ZM4.826,3.6a2.671,2.671,0,0,0-1.734.621A2.856,2.856,0,0,0,2.069,6.293a2.906,2.906,0,0,0,.826,2.165l4.99,5.076a.168.168,0,0,0,.275,0l4.894-4.977a2.905,2.905,0,0,0,.826-2.165,2.86,2.86,0,0,0-1.022-2.076,2.883,2.883,0,0,0-3.887.294l-.948.965L6.977,4.511A3.029,3.029,0,0,0,4.826,3.6Z"/></g>
</symbol>

<symbol id="history" class="symbol" viewBox="0 0 16 16">
  <title>history</title><g id="Layer_1" data-name="Layer 1"><path d="M7.933,2.551a.923.923,0,0,0-.923.923v4.62a.925.925,0,0,0,.465.8l3.232,1.848a.9.9,0,0,0,.456.122.924.924,0,0,0,.458-1.726L8.856,7.557V3.474A.923.923,0,0,0,7.933,2.551Z" fill="#231f20"/><path d="M8,0A7.967,7.967,0,0,0,1.143,3.931L0,3.424l.72,2.99,2.7-1.474L2.4,4.488A6.621,6.621,0,1,1,12.684,12.7,6.6,6.6,0,0,1,2.32,11.408H.766A8,8,0,1,0,8,0Z" fill="#231f20"/></g>
</symbol>

<symbol id="id-card-outline" class="symbol" viewBox="0 0 16 16">
  <defs><style>.cls-1{fill:#231f20;}</style></defs><title>id-card-outline</title><g id="Layer_1" data-name="Layer 1"><path class="cls-1" d="M15.24,2.825H.759A.761.761,0,0,0,0,3.586v8.857a.761.761,0,0,0,.759.761H15.24a.762.762,0,0,0,.76-.761V3.586A.762.762,0,0,0,15.24,2.825Zm-.111,9.507H.856V3.683H15.129Zm-12.2-1.3h3.21a.514.514,0,0,0,.513-.514V9.054a1,1,0,0,0-.629-.932L5.5,7.914a.9.9,0,0,0,.455-.782V6.4A1.426,1.426,0,1,0,3.1,6.4v.733a.9.9,0,0,0,.459.786l-.517.2a1,1,0,0,0-.634.933v1.462A.514.514,0,0,0,2.926,11.032ZM3.88,6.4a.65.65,0,1,1,1.3,0v.733a.128.128,0,0,1-.067.113l-.429.233a.324.324,0,0,1-.309,0l-.429-.233a.127.127,0,0,1-.067-.112ZM3.188,9.056a.225.225,0,0,1,.143-.21l1.21-.479,1.19.477a.225.225,0,0,1,.142.21v1.2H3.188ZM13.412,5.838h-5.2V6.71h5.2Zm0,1.74h-5.2v.872h5.2ZM10.807,9.3H8.216v.872h2.591Z"/></g>
</symbol>

<symbol id="import-progress" class="symbol" viewBox="0 0 16 16">
  <defs><style>.cls-1{fill:#010101;}</style></defs><title>import-progress</title><g id="Layer_1" data-name="Layer 1"><path class="cls-1" d="M3.848,7.311A1.236,1.236,0,1,0,5.084,8.547,1.236,1.236,0,0,0,3.848,7.311Z"/><path class="cls-1" d="M8.244,7.311A1.236,1.236,0,1,0,9.48,8.547,1.236,1.236,0,0,0,8.244,7.311Z"/><path class="cls-1" d="M12.639,7.311a1.236,1.236,0,1,0,1.236,1.236,1.236,1.236,0,0,0-1.236-1.236Z"/></g>
</symbol>

<symbol id="info-simple" class="symbol" viewBox="0 0 16 16">
  <defs><style>.cls-1{fill:#231f20;}</style></defs><title>info-simple</title><g id="Layer_1" data-name="Layer 1"><path class="cls-1" d="M8,.1A7.912,7.912,0,1,0,15.91,8.014,7.92,7.92,0,0,0,8,.1ZM8,13.8a5.782,5.782,0,1,1,5.78-5.781A5.787,5.787,0,0,1,8,13.8ZM6.935,11.777h2.13V7.516H6.935ZM8,4.085A1.148,1.148,0,1,0,9.148,5.233,1.148,1.148,0,0,0,8,4.085Z"/></g>
</symbol>

<symbol id="instagram-outline" class="symbol" viewBox="0 0 16 16">
  <defs><style>.cls-1{fill:#231f20;}</style></defs><title>instagram-outline</title><g id="Layer_1" data-name="Layer 1"><path class="cls-1" d="M13,.006H3A2.992,2.992,0,0,0,.01,3V13A2.993,2.993,0,0,0,3,15.986H13A2.993,2.993,0,0,0,15.99,13V3A2.992,2.992,0,0,0,13,.006ZM13.954,13A.954.954,0,0,1,13,13.95H3A.954.954,0,0,1,2.046,13V7.621H3.826c-.011.124-.019.248-.019.375a4.193,4.193,0,1,0,8.387,0c0-.127-.008-.251-.019-.375h1.779ZM5.842,8A2.158,2.158,0,1,1,8,10.154,2.158,2.158,0,0,1,5.842,8Zm8.112-2.411H11.427a4.187,4.187,0,0,0-6.855,0H2.046V3A.954.954,0,0,1,3,2.043H13A.954.954,0,0,1,13.954,3Z"/><rect class="cls-1" x="11.247" y="2.816" width="1.968" height="1.968" rx="0.62" ry="0.62"/></g>
</symbol>

<symbol id="instagram" class="symbol" viewBox="0 0 16 16">
  <defs><style>.cls-1{fill:#231f20;}</style></defs><title>instagram</title><g id="Layer_1" data-name="Layer 1"><circle class="cls-1" cx="7.987" cy="8.195" r="2.107"/><path class="cls-1" d="M12.16,8.078c0,.013,0,.026,0,.039a4.254,4.254,0,0,1-8.508,0c0-.013,0-.026,0-.039H.182v5.386A2.537,2.537,0,0,0,2.718,16H13.255a2.537,2.537,0,0,0,2.537-2.537V8.078Z"/><path class="cls-1" d="M13.255.39H2.718A2.537,2.537,0,0,0,.182,2.926v3.59H3.969a4.252,4.252,0,0,1,7.88,0h3.943V2.926A2.537,2.537,0,0,0,13.255.39Zm.891,3.092a.723.723,0,0,1-.723.723h-.506a.723.723,0,0,1-.723-.723V2.976a.723.723,0,0,1,.723-.723h.506a.723.723,0,0,1,.723.723Z"/></g>
</symbol>

<symbol id="key" class="symbol" viewBox="0 0 16 16">
  <defs><style>.cls-1{fill:#231f20;}</style></defs><title>key</title><g id="Layer_1" data-name="Layer 1"><path class="cls-1" d="M15.494,11.129,13.407,9.941h0L8.383,7.08A4.328,4.328,0,0,0,6.433,2.148,4.3,4.3,0,0,0,.584,3.893,4.384,4.384,0,0,0,2.131,9.848,4.249,4.249,0,0,0,7.4,8.907l.994.566-.708,1.268a1.03,1.03,0,0,0,.364,1.4,1.01,1.01,0,0,0,1.376-.411l.708-1.268,1.392.793-1.012,1.812a1.031,1.031,0,0,0,.364,1.4,1.011,1.011,0,0,0,1.376-.411l1.012-1.812,1.218.693a1.01,1.01,0,0,0,1.377-.411A1.03,1.03,0,0,0,15.494,11.129ZM3.143,8.036a2.321,2.321,0,0,1-.818-3.153,2.275,2.275,0,0,1,3.1-.924A2.321,2.321,0,0,1,6.24,7.113,2.275,2.275,0,0,1,3.143,8.036Z"/></g>
</symbol>

<symbol id="linkedin" class="symbol" viewBox="0 0 16 16">
  <defs><style>.cls-1{fill:#231f20;fill-rule:evenodd;}</style></defs><title>linkedin</title><g id="Layer_1" data-name="Layer 1"><path class="cls-1" d="M.065,15.2H3.458V5.269H.065ZM1.754.8A1.7,1.7,0,0,0,.021,2.466,1.7,1.7,0,0,0,1.754,4.13,1.7,1.7,0,0,0,3.488,2.466,1.7,1.7,0,0,0,1.754.8Zm14.175,8c0-1.758-1.534-3.514-4.37-3.514-1.429,0-2.663.12-3.532,1.134V5.3H4.6v9.9h3.4V8.671a2.4,2.4,0,0,1,1.956-1.13c2.176-.085,2.566,1,2.566,2.427V15.2H15.93Z"/></g>
</symbol>

<symbol id="list-options" class="symbol" viewBox="0 0 16 16">
  <defs><style>.cls-1{fill:#010101;}</style></defs><title>list-options</title><g id="Layer_1" data-name="Layer 1"><path class="cls-1" d="M14.707,2.164H6.026a.805.805,0,0,0-.805.805V3.82a.805.805,0,0,0,.805.805h8.681a.805.805,0,0,0,.805-.805V2.969A.805.805,0,0,0,14.707,2.164Zm.757,6.587.012,0a.771.771,0,0,0,.036-.179V8.554l-.07.145Zm.026,3.673-.012.031.034.066v-.041c0-.021-.01-.038-.012-.059ZM6.463,8.751l.016-.04-.686-1.36.432-.432h-.2a.805.805,0,0,0-.805.805v.851a.793.793,0,0,0,.2.518ZM2.679,1.945H1.293a.805.805,0,0,0-.805.805V4.031a.805.805,0,0,0,.805.805H2.679a.805.805,0,0,0,.805-.805V2.75A.805.805,0,0,0,2.679,1.945Zm3.784,10.5-1.121-.368a.783.783,0,0,0-.121.4v.851a.805.805,0,0,0,.805.805h.083l-.275-.275.65-1.359Zm-3.784-.994H1.293a.805.805,0,0,0-.805.805v1.281a.805.805,0,0,0,.805.805H2.679a.805.805,0,0,0,.805-.805V12.261A.805.805,0,0,0,2.679,11.456Zm0-4.755H1.293a.805.805,0,0,0-.805.805V8.786a.805.805,0,0,0,.805.805H2.679a.805.805,0,0,0,.805-.805V7.505A.805.805,0,0,0,2.679,6.7Z"/><path class="cls-1" d="M10.349,5.683l-.4,1.229a4.458,4.458,0,0,0-.884.365L7.919,6.7l-.855.855L7.641,8.7a4.458,4.458,0,0,0-.365.884l-1.229.4v1.229l1.229.4a4.458,4.458,0,0,0,.365.884l-.547,1.143.855.855,1.143-.576a4.56,4.56,0,0,0,.893.365l.394,1.229h1.229l.4-1.229a4.541,4.541,0,0,0,.893-.365l1.133.547.864-.855-.586-1.143a4.56,4.56,0,0,0,.365-.893l1.2-.365V9.986l-1.229-.4a4.458,4.458,0,0,0-.365-.884l.547-1.143L13.98,6.7l-1.143.576a4.541,4.541,0,0,0-.893-.365l-.365-1.229Zm.615,2.766A2.151,2.151,0,1,1,8.813,10.6,2.138,2.138,0,0,1,10.964,8.449Z"/></g>
</symbol>

<symbol id="list" class="symbol" viewBox="0 0 16 16">
  <defs><style>.cls-1{fill:#010101;}</style></defs><title>list</title><g id="Layer_1" data-name="Layer 1"><rect class="cls-1" x="0.473" y="1.945" width="2.997" height="2.891" rx="0.805" ry="0.805"/><rect class="cls-1" x="5.207" y="2.164" width="10.291" height="2.461" rx="0.805" ry="0.805"/><rect class="cls-1" x="0.473" y="6.7" width="2.997" height="2.891" rx="0.805" ry="0.805"/><rect class="cls-1" x="5.207" y="6.919" width="10.291" height="2.461" rx="0.805" ry="0.805"/><rect class="cls-1" x="0.473" y="11.455" width="2.997" height="2.891" rx="0.805" ry="0.805"/><rect class="cls-1" x="5.207" y="11.674" width="10.291" height="2.461" rx="0.805" ry="0.805"/></g>
</symbol>

<symbol id="location-outline" class="symbol" viewBox="0 0 16 16">
  <defs><style>.cls-1{fill:#231f20;}</style></defs><title>location-outline</title><g id="Layer_1" data-name="Layer 1"><path class="cls-1" d="M8.209.008C4.78.008,2,2.488,2,5.548c0,.066,0,.132.005.2a5.009,5.009,0,0,0,.355,1.664c1.041,3.053,4.057,6.837,5.3,8.318a.732.732,0,0,0,1.093,0c1.244-1.481,4.26-5.264,5.3-8.317a5,5,0,0,0,.355-1.664c0-.067.006-.134.006-.2C14.417,2.488,11.638.008,8.209.008ZM12.6,5.965a3.735,3.735,0,0,1-.248,1.2l-.008.02-.007.021A26.459,26.459,0,0,1,8.209,14,26.463,26.463,0,0,1,4.08,7.21L4.073,7.19l-.008-.02a3.755,3.755,0,0,1-.248-1.213c0-.046,0-.092,0-.137a4.233,4.233,0,0,1,4.4-4.039,4.566,4.566,0,0,1,3.119,1.193A3.854,3.854,0,0,1,12.6,5.82C12.6,5.864,12.6,5.909,12.6,5.965ZM8.209,4.553a1.34,1.34,0,0,0-1.4,1.267,1.34,1.34,0,0,0,1.4,1.267,1.34,1.34,0,0,0,1.4-1.267A1.34,1.34,0,0,0,8.209,4.553Z"/></g>
</symbol>

<symbol id="location" class="symbol" viewBox="0 0 16 16">
  <defs><style>.cls-1{fill:#231f20;}</style></defs><title>location</title><g id="Layer_1" data-name="Layer 1"><path class="cls-1" d="M13.384,3.86a6.11,6.11,0,0,0-10.769,0,5.855,5.855,0,0,0,.439,6.182l3.207,4.45a2.152,2.152,0,0,0,3.478,0l3.207-4.45A5.854,5.854,0,0,0,13.384,3.86ZM11.5,9.034l-3.207,4.45a.36.36,0,0,1-.582,0L4.5,9.034a4.088,4.088,0,0,1-.31-4.373A4.226,4.226,0,0,1,8,2.382a4.227,4.227,0,0,1,3.809,2.279A4.088,4.088,0,0,1,11.5,9.034ZM8,5A1.8,1.8,0,1,0,9.829,6.8,1.814,1.814,0,0,0,8,5Z"/></g>
</symbol>

<symbol id="merge-people" class="symbol" viewBox="0 0 16 16">
  <defs><style>.cls-1{fill:#231f20;}</style></defs><title>merge-people</title><g id="Layer_1" data-name="Layer 1"><circle class="cls-1" cx="13.202" cy="4.737" r="2.047"/><path class="cls-1" d="M13.177,7.762a2.589,2.589,0,0,0-2.589,2.589v1.669a.68.68,0,0,0,.721.671h3.736a.68.68,0,0,0,.721-.671V10.351A2.589,2.589,0,0,0,13.177,7.762Z"/><path class="cls-1" d="M5.868,10.33A.568.568,0,0,0,5.3,10.9v.648a.14.14,0,0,1-.14.14H1.491a.14.14,0,0,1-.14-.14V9.91A1.977,1.977,0,0,1,3.326,7.935a1.957,1.957,0,0,1,1.2.4.568.568,0,1,0,.688-.9c-.078-.06-.159-.114-.242-.166A2.577,2.577,0,1,0,1.7,7.26,3.11,3.11,0,0,0,.216,9.91v1.635a1.235,1.235,0,0,0,1.275,1.226H5.16a1.235,1.235,0,0,0,1.276-1.226V10.9A.568.568,0,0,0,5.868,10.33ZM3.34,3.83A1.443,1.443,0,1,1,1.9,5.273,1.444,1.444,0,0,1,3.34,3.83Z"/><path class="cls-1" d="M8.743,7.442a.568.568,0,0,0-.8.8L8.3,8.6H6.329a.568.568,0,0,0,0,1.135H8.3l-.356.356a.568.568,0,1,0,.8.8l1.283-1.283a.626.626,0,0,0,0-.886Z"/></g>
</symbol>

<symbol id="mix-gender" class="symbol" viewBox="0 0 16 16">
  <defs><style>.cls-1{fill:#231f20;}</style></defs><title>mix-gender</title><g id="Layer_1" data-name="Layer 1"><path class="cls-1" d="M15.824,3.153l-.551-.705A2.39,2.39,0,0,0,12.084,1.9l-.3.192A2.848,2.848,0,0,0,7.829,4.719V5.928A2.05,2.05,0,0,0,8.6,7.536l.946.758c.016.013.033.021.05.033l-1.528.7a2.2,2.2,0,0,0-.783.608A2.2,2.2,0,0,0,6.5,9.027l-1.528-.7c.016-.012.034-.021.05-.033l.946-.757a2.051,2.051,0,0,0,.772-1.608V4.719a2.847,2.847,0,1,0-5.695,0V5.928A2.05,2.05,0,0,0,1.82,7.536l.946.758c.016.013.033.021.05.033l-1.528.7A2.213,2.213,0,0,0,0,11.034v2.484a.992.992,0,0,0,.991.991H13.582a.992.992,0,0,0,.991-.991V11.034a2.212,2.212,0,0,0-1.288-2.007l-1.528-.7c.016-.012.034-.021.049-.033l.946-.758h0a2.052,2.052,0,0,0,.772-1.608V4.719c0-.079-.017-.154-.023-.231h1.672a.826.826,0,0,0,.651-1.334ZM10.678,2.88a1.826,1.826,0,0,1,1.246.5l.426.589c.014.03.025.061.037.091l-.82-.632-2.651.794A1.835,1.835,0,0,1,10.678,2.88ZM2.452,6.748a1.044,1.044,0,0,1-.394-.82V4.719a1.838,1.838,0,1,1,3.675,0V5.928a1.044,1.044,0,0,1-.394.82l-.946.758a.793.793,0,0,1-1,0ZM1.01,13.518V11.034a1.2,1.2,0,0,1,.7-1.089l2.187-1,2.188,1a1.2,1.2,0,0,1,.7,1.089V13.5H2.949v.012Zm12.554-2.484V13.5l-2.033.006V13.5H7.791V11.034a1.2,1.2,0,0,1,.7-1.089l2.188-1,2.187,1A1.2,1.2,0,0,1,13.563,11.034ZM12.121,6.748l-.947.758a.791.791,0,0,1-1,0l-.945-.758a1.046,1.046,0,0,1-.394-.82V5.3l2.523-.756,1.154.889v.5A1.047,1.047,0,0,1,12.121,6.748Zm1.122-3.27L13.184,3.4a2.858,2.858,0,0,0-.487-.682,1.385,1.385,0,0,1,1.782.355l.319.409Z"/></g>
</symbol>

<symbol id="new-pencil" class="symbol" viewBox="0 0 16 16">
  <defs><style>.cls-1,.cls-2{fill:#010101;}.cls-1{fill-rule:evenodd;}</style></defs><title>new-pencil</title><g id="Layer_1" data-name="Layer 1"><polygon class="cls-1" points="1.028 11.474 1.028 14.972 4.527 14.972 11.122 8.377 7.624 4.878 1.028 11.474"/><rect class="cls-2" x="9.969" y="1.68" width="3.837" height="4.948" transform="translate(0.544 9.622) rotate(-45)"/></g>
</symbol>

<symbol id="new-window" class="symbol" viewBox="0 0 16 16">
  <defs><style>.cls-1{fill:#010101;}</style></defs><title>new-window</title><g id="Layer_1" data-name="Layer 1"><path class="cls-1" d="M14.086,10.267v3.819H1.914V1.914H5.43V.291H1.669A1.379,1.379,0,0,0,.291,1.668V14.331a1.379,1.379,0,0,0,1.377,1.377H14.332a1.379,1.379,0,0,0,1.377-1.377V10.267Z"/><path class="cls-1" d="M8.576,8.625l5.456-5.5v3.53h1.623V1.23A.885.885,0,0,0,14.77.345H9.343V1.968h3.552L7.424,7.482Z"/></g>
</symbol>

<symbol id="no-activity" class="symbol" viewBox="0 0 16 16">
  <defs><style>.cls-1{fill:#010101;}</style></defs><title>no-activity</title><g id="Layer_1" data-name="Layer 1"><path class="cls-1" d="M8.233,13.808H8.2a.651.651,0,0,1-.6-.483L5.583,5.664,4.148,9.448a.649.649,0,0,1-.607.42h-1.7a.65.65,0,0,1,0-1.3H3.092L5.086,3.306a.65.65,0,0,1,1.236.064l2.01,7.613,1.793-4.936a.652.652,0,0,1,.58-.428.681.681,0,0,1,.618.37l1.228,2.576h1.786a.65.65,0,1,1,0,1.3h-2.2a.651.651,0,0,1-.587-.371l-.736-1.546L8.845,13.379A.651.651,0,0,1,8.233,13.808Z"/></g>
</symbol>

<symbol id="notebook-outline" class="symbol" viewBox="0 0 16 16">
  <defs><style>.cls-1{fill:#231f20;}</style></defs><title>notebook-outline</title><g id="Layer_1" data-name="Layer 1"><path class="cls-1" d="M13.937-.006H2.584A1.117,1.117,0,0,0,1.409,1.169V2.3H.787a.558.558,0,1,0,0,1.115h.622V5.7H.841a.558.558,0,1,0,0,1.116h.568v2.3H.828a.558.558,0,0,0,0,1.116h.581v2.286H.828a.558.558,0,0,0,0,1.116h.581V14.8a1.071,1.071,0,0,0,1.148,1.139h11.38a1.708,1.708,0,0,0,1.708-1.708V1.7A1.708,1.708,0,0,0,13.937-.006ZM2.548,14.8V13.638h.593a.558.558,0,1,0,0-1.116H2.548V10.237h.593a.558.558,0,1,0,0-1.116H2.548v-2.3h.606a.558.558,0,1,0,0-1.116H2.548V3.411H3.1A.558.558,0,1,0,3.1,2.3H2.548V1.169a.194.194,0,0,1,0-.034h9.109V14.8Zm11.959-.57a.57.57,0,0,1-.569.57H12.8V1.133h1.139a.57.57,0,0,1,.569.569Z"/></g>
</symbol>

<symbol id="pco-people" class="symbol" viewBox="0 0 16 16">
  <defs><style>.cls-1,.cls-2{fill:#231f20;}.cls-1{fill-rule:evenodd;}</style></defs><title>pco-people</title><g id="Layer_1" data-name="Layer 1"><path class="cls-1" d="M4.418,5.365H.713a.506.506,0,0,0-.493.509V9.579a.509.509,0,0,0,.509.509H4.434a.509.509,0,0,0,.509-.509V5.873A.512.512,0,0,0,4.418,5.365ZM4.423,9.3a.225.225,0,0,1-.225.225H.965A.225.225,0,0,1,.74,9.3V6.109a.225.225,0,0,1,.225-.225h.589v.238a.159.159,0,0,0,.159.159H3.419a.159.159,0,0,0,.159-.159V5.884H4.2a.225.225,0,0,1,.225.225Z"/><circle class="cls-2" cx="3.226" cy="7.525" r="0.354"/><circle class="cls-2" cx="2.142" cy="7.361" r="0.472"/><path class="cls-1" d="M3.429,8.023H3.022a.361.361,0,0,0-.11.017.052.052,0,0,0-.023.084.558.558,0,0,1,.13.359v.067a.074.074,0,0,0,.074.074h.645a.055.055,0,0,0,.055-.055v-.18A.365.365,0,0,0,3.429,8.023Z"/><path class="cls-1" d="M2.826,8.824H1.457a.074.074,0,0,1-.074-.074V8.511a.487.487,0,0,1,.487-.487h.543a.487.487,0,0,1,.487.487v.239A.074.074,0,0,1,2.826,8.824Z"/><path class="cls-2" d="M6.639,8.976H6.294v.619H5.84V7.533h.842a.706.706,0,0,1,.789.713v.006A.737.737,0,0,1,6.639,8.976Zm.374-.722c0-.2-.141-.312-.368-.312H6.294v.63h.359a.319.319,0,0,0,.359-.312Z"/><path class="cls-2" d="M9.117,8.961h-1.1a.366.366,0,0,0,.386.309.518.518,0,0,0,.383-.162l.256.227a.834.834,0,0,1-1.47-.521V8.808a.786.786,0,0,1,.781-.822.769.769,0,0,1,.769.857v.006C9.123,8.894,9.121,8.92,9.117,8.961Zm-.763-.616a.352.352,0,0,0-.342.336h.675A.339.339,0,0,0,8.355,8.346Z"/><path class="cls-2" d="M10.119,9.63a.821.821,0,0,1-.851-.816V8.808A.855.855,0,0,1,10.976,8.8v.006A.829.829,0,0,1,10.119,9.63Zm.415-.822a.419.419,0,0,0-.415-.436.4.4,0,0,0-.409.43v.006a.419.419,0,0,0,.415.436.4.4,0,0,0,.409-.43Z"/><path class="cls-2" d="M12.147,9.624a.606.606,0,0,1-.492-.236v.677h-.448V8.016h.448v.227a.58.58,0,0,1,.492-.256.743.743,0,0,1,.719.816v.006A.74.74,0,0,1,12.147,9.624Zm.271-.822a.387.387,0,1,0-.769,0v.006a.387.387,0,1,0,.769,0Z"/><path class="cls-2" d="M13.123,9.595V7.445h.448v2.15Z"/><path class="cls-2" d="M15.36,8.961h-1.1a.366.366,0,0,0,.386.309.517.517,0,0,0,.383-.162l.256.227a.834.834,0,0,1-1.47-.521V8.808a.786.786,0,0,1,.78-.822.769.769,0,0,1,.769.857v.006C15.366,8.894,15.363,8.92,15.36,8.961ZM14.6,8.346a.352.352,0,0,0-.342.336h.675A.339.339,0,0,0,14.6,8.346Z"/><path class="cls-2" d="M5.889,6.9a.014.014,0,0,1-.015-.015V5.915A.014.014,0,0,1,5.889,5.9h.139a.014.014,0,0,1,.015.015v.055h0a.22.22,0,0,1,.194-.086.245.245,0,0,1,.253.176.837.837,0,0,1,0,.412.245.245,0,0,1-.253.176.22.22,0,0,1-.194-.086h0v.327a.014.014,0,0,1-.015.015Zm.441-.5a.621.621,0,0,0,0-.273.145.145,0,0,0-.271,0,.621.621,0,0,0,0,.273.145.145,0,0,0,.271,0Z"/><path class="cls-2" d="M6.882,6.639c-.142,0-.2-.068-.2-.209V5.615A.014.014,0,0,1,6.7,5.6h.139a.014.014,0,0,1,.015.015v.806c0,.05.02.067.064.067h.033a.014.014,0,0,1,.015.015v.121a.014.014,0,0,1-.015.015Z"/><path class="cls-2" d="M7.545,6.63a.014.014,0,0,1-.015-.015V6.562h0a.238.238,0,0,1-.206.085.219.219,0,0,1-.245-.223c0-.159.112-.232.292-.232h.149a.008.008,0,0,0,.009-.009V6.148c0-.083-.039-.121-.162-.121a.256.256,0,0,0-.167.05.014.014,0,0,1-.021,0l-.056-.1a.014.014,0,0,1,0-.02.426.426,0,0,1,.259-.071c.223,0,.3.076.3.255v.477a.014.014,0,0,1-.015.015Zm-.018-.245V6.329a.008.008,0,0,0-.009-.009H7.4c-.109,0-.158.03-.158.1s.044.091.126.091C7.47,6.509,7.527,6.468,7.527,6.385Z"/><path class="cls-2" d="M8.35,6.63a.014.014,0,0,1-.015-.015V6.194c0-.094-.047-.159-.138-.159a.14.14,0,0,0-.139.159v.421a.014.014,0,0,1-.015.015H7.9a.014.014,0,0,1-.015-.015v-.7A.014.014,0,0,1,7.9,5.9h.139a.014.014,0,0,1,.015.015v.053h0a.226.226,0,0,1,.192-.085.249.249,0,0,1,.253.271v.461a.014.014,0,0,1-.015.015Z"/><path class="cls-2" d="M9.165,6.63a.014.014,0,0,1-.015-.015V6.194c0-.094-.047-.159-.138-.159a.14.14,0,0,0-.139.159v.421a.014.014,0,0,1-.015.015H8.718A.014.014,0,0,1,8.7,6.615v-.7A.014.014,0,0,1,8.718,5.9h.139a.014.014,0,0,1,.015.015v.053h0a.226.226,0,0,1,.193-.085.249.249,0,0,1,.253.271v.461A.014.014,0,0,1,9.3,6.63Z"/><path class="cls-2" d="M9.534,5.762a.014.014,0,0,1-.015-.015V5.615A.014.014,0,0,1,9.534,5.6h.139a.014.014,0,0,1,.015.015v.132a.014.014,0,0,1-.015.015Zm0,.868a.014.014,0,0,1-.015-.015v-.7A.014.014,0,0,1,9.534,5.9h.139a.014.014,0,0,1,.015.015v.7a.014.014,0,0,1-.015.015Z"/><path class="cls-2" d="M10.356,6.63a.014.014,0,0,1-.015-.015V6.194c0-.094-.047-.159-.138-.159a.14.14,0,0,0-.139.159v.421a.014.014,0,0,1-.015.015H9.909a.014.014,0,0,1-.015-.015v-.7A.014.014,0,0,1,9.909,5.9h.139a.014.014,0,0,1,.015.015v.053h0a.226.226,0,0,1,.192-.085.249.249,0,0,1,.253.271v.461a.014.014,0,0,1-.015.015Z"/><path class="cls-2" d="M10.694,6.81a.014.014,0,0,1,0-.021l.089-.089a.014.014,0,0,1,.023,0,.224.224,0,0,0,.159.068c.112,0,.164-.061.164-.174V6.526h0a.211.211,0,0,1-.189.085.244.244,0,0,1-.249-.177.556.556,0,0,1-.024-.186.547.547,0,0,1,.024-.185.244.244,0,0,1,.249-.179.208.208,0,0,1,.189.086h0V5.915a.014.014,0,0,1,.015-.015h.139a.014.014,0,0,1,.015.015v.67a.306.306,0,0,1-.341.335A.361.361,0,0,1,10.694,6.81Zm.42-.444a.34.34,0,0,0,.017-.12.351.351,0,0,0-.017-.12.137.137,0,0,0-.259,0,.351.351,0,0,0-.017.12.34.34,0,0,0,.017.12.136.136,0,0,0,.259,0Z"/><path class="cls-2" d="M11.672,6.445a.727.727,0,0,1,0-.361.294.294,0,0,1,.3-.2A.318.318,0,0,1,12.226,6a.015.015,0,0,1,0,.021l-.1.083a.014.014,0,0,1-.021,0,.165.165,0,0,0-.135-.064.134.134,0,0,0-.136.1.429.429,0,0,0-.015.135.44.44,0,0,0,.015.136.134.134,0,0,0,.136.094.165.165,0,0,0,.135-.064.014.014,0,0,1,.021,0l.1.083c.008.006.006.014,0,.021a.322.322,0,0,1-.253.112A.294.294,0,0,1,11.672,6.445Z"/><path class="cls-2" d="M12.379,6.444a.566.566,0,0,1-.026-.179.582.582,0,0,1,.024-.18.323.323,0,0,1,.6,0A.654.654,0,0,1,13,6.3a.015.015,0,0,1-.017.015h-.45a.008.008,0,0,0-.009.009A.17.17,0,0,0,12.7,6.5a.22.22,0,0,0,.171-.07.015.015,0,0,1,.023,0l.089.079a.014.014,0,0,1,0,.021.385.385,0,0,1-.3.124A.3.3,0,0,1,12.379,6.444Zm.441-.323a.156.156,0,0,0-.286,0,.185.185,0,0,0-.009.062.008.008,0,0,0,.009.009h.286a.008.008,0,0,0,.009-.009A.185.185,0,0,0,12.82,6.121Z"/><path class="cls-2" d="M13.63,6.63a.014.014,0,0,1-.015-.015V6.194c0-.094-.047-.159-.138-.159a.14.14,0,0,0-.139.159v.421a.014.014,0,0,1-.015.015h-.139a.014.014,0,0,1-.015-.015v-.7a.014.014,0,0,1,.015-.015h.139a.014.014,0,0,1,.015.015v.053h0a.226.226,0,0,1,.192-.085.249.249,0,0,1,.253.271v.461a.014.014,0,0,1-.015.015Z"/><path class="cls-2" d="M14.2,6.639c-.147,0-.2-.071-.2-.214V6.041a.008.008,0,0,0-.009-.009h-.048a.014.014,0,0,1-.015-.015v-.1a.014.014,0,0,1,.015-.015h.048a.008.008,0,0,0,.009-.009v-.2a.014.014,0,0,1,.015-.015h.139a.014.014,0,0,1,.015.015v.2a.008.008,0,0,0,.009.009h.1a.014.014,0,0,1,.015.015v.1a.014.014,0,0,1-.015.015h-.1a.008.008,0,0,0-.009.009v.379c0,.052.021.068.068.068h.038a.014.014,0,0,1,.015.015v.121a.014.014,0,0,1-.015.015Z"/><path class="cls-2" d="M14.44,6.444a.566.566,0,0,1-.026-.179.582.582,0,0,1,.024-.18.323.323,0,0,1,.6,0,.654.654,0,0,1,.024.22.015.015,0,0,1-.017.015h-.45a.008.008,0,0,0-.009.009.17.17,0,0,0,.174.167.22.22,0,0,0,.171-.07.015.015,0,0,1,.023,0l.089.079a.014.014,0,0,1,0,.021.385.385,0,0,1-.3.124A.3.3,0,0,1,14.44,6.444Zm.441-.323a.156.156,0,0,0-.286,0,.185.185,0,0,0-.009.062.008.008,0,0,0,.009.009h.286a.008.008,0,0,0,.009-.009A.185.185,0,0,0,14.881,6.121Z"/><path class="cls-2" d="M15.244,6.63a.014.014,0,0,1-.015-.015v-.7a.014.014,0,0,1,.015-.015h.139a.014.014,0,0,1,.015.015v.062h0a.209.209,0,0,1,.189-.094.221.221,0,0,1,.153.061c.008.008.009.014,0,.021l-.08.1a.014.014,0,0,1-.021,0,.2.2,0,0,0-.108-.035c-.1,0-.138.068-.138.185v.4a.014.014,0,0,1-.015.015Z"/></g>
</symbol>

<symbol id="pencil" class="symbol" viewBox="0 0 16 16">
  <defs><style>.cls-1{fill:#010101;}</style></defs><title>pencil</title><g id="Layer_1" data-name="Layer 1"><path class="cls-1" d="M14.909,2.787,13.17,1.048a1.662,1.662,0,0,0-2.348,0l-9.14,9.14L.655,14.161A.937.937,0,0,0,1.8,15.3l3.973-1.027,9.14-9.14A1.662,1.662,0,0,0,14.909,2.787ZM3.026,11.145l1.786,1.786L2.4,13.553Zm10.793-7.1L5.962,11.9,4.055,9.994l7.856-7.856a.12.12,0,0,1,.169,0l1.739,1.739A.119.119,0,0,1,13.819,4.045Z"/></g>
</symbol>

<symbol id="person-arrow" class="symbol" viewBox="0 0 16 16">
  <title>person-outline</title><g> <g> <path d="M5.9,7.9c-2.1,0-3.8-1.7-3.8-3.8s1.7-3.8,3.8-3.8c2.1,0,3.8,1.7,3.8,3.8S7.9,7.9,5.9,7.9z M5.9,1.6
			c-1.4,0-2.5,1.1-2.5,2.5s1.1,2.5,2.5,2.5c1.4,0,2.5-1.1,2.5-2.5S7.2,1.6,5.9,1.6z"/> </g> <g> <path d="M7.7,15.7H2.1c-1.1,0-2-0.9-2-2v-3.1c0-1,0.6-1.9,1.5-2.2l4.2-1.6l4.3,1.6c0.3,0.1,0.5,0.5,0.4,0.8
			C10.4,9.5,10,9.7,9.7,9.6L5.9,8.1L2.1,9.5c-0.4,0.2-0.7,0.6-0.7,1.1v3.1c0,0.4,0.3,0.7,0.7,0.7h5.6c0.4,0,0.6,0.3,0.6,0.6
			S8.1,15.7,7.7,15.7z"/> </g> </g><path d="M8.9,11.9H14l-1.7-1.6C12,10,12,9.7,12.3,9.5c0.1-0.1,0.3-0.2,0.4-0.2c0.1,0,0.3,0.1,0.4,0.2l2.6,2.4c0.3,0.3,0.3,0.7,0,1
	l-2.6,2.4c-0.2,0.2-0.6,0.2-0.8,0c-0.2-0.2-0.2-0.5,0-0.8L14,13H8.9c-0.3,0-0.6-0.2-0.6-0.5C8.3,12.1,8.6,11.9,8.9,11.9z"/>
</symbol>

<symbol id="person-outline" class="symbol" viewBox="0 0 16 16">
  <defs><style>.cls-1{fill:#231f20;}</style></defs><title>person-outline</title><g id="Layer_1" data-name="Layer 1"><path class="cls-1" d="M12.839,8.293,9.815,7.043a3.728,3.728,0,1,0-3.417,0L3.375,8.292a2.415,2.415,0,0,0-1.495,2.24v3.046A2.421,2.421,0,0,0,4.3,16h7.624a2.421,2.421,0,0,0,2.415-2.422V10.532A2.413,2.413,0,0,0,12.839,8.293ZM5.658,3.739A2.449,2.449,0,1,1,8.107,6.2,2.456,2.456,0,0,1,5.658,3.739Zm7.4,9.839a1.139,1.139,0,0,1-1.136,1.139H4.3a1.139,1.139,0,0,1-1.136-1.139V10.532a1.137,1.137,0,0,1,.7-1.054L8.107,7.725l4.245,1.754a1.135,1.135,0,0,1,.7,1.053Z"/></g>
</symbol>

<symbol id="person-pencil" class="symbol" viewBox="0 0 16 16">
  <defs><style>.cls-1{fill:#231f20;}</style></defs><title>person-pencil</title><g id="Layer_1" data-name="Layer 1"><path class="cls-1" d="M3.263,8.4,7.079,6.849l2.7,1.1a.576.576,0,0,0,.75-.309.566.566,0,0,0-.312-.742l-1.6-.651a3.3,3.3,0,0,0,1.816-2.93,3.352,3.352,0,0,0-6.7,0,3.3,3.3,0,0,0,1.815,2.93L2.825,7.353A2.14,2.14,0,0,0,1.481,9.338v2.7a2.162,2.162,0,0,0,2.171,2.148H6.024a.569.569,0,1,0,0-1.137H3.652a1.017,1.017,0,0,1-1.022-1.01v-2.7A1.007,1.007,0,0,1,3.263,8.4ZM4.877,3.315a2.2,2.2,0,1,1,2.2,2.178A2.192,2.192,0,0,1,4.877,3.315Zm9.739,4.563-1.025-.707a1.152,1.152,0,0,0-.858-.187,1.138,1.138,0,0,0-.74.468L7.9,13.253l.017,2.077a.675.675,0,0,0,.291.549.69.69,0,0,0,.62.082l1.979-.7L14.9,9.46A1.129,1.129,0,0,0,14.616,7.879Zm-4.542,6.433-1.012.358-.009-1.064,3.881-5.5,1.024.7Z"/></g>
</symbol>

<symbol id="phone-outline" class="symbol" viewBox="0 0 16 16">
  <defs><style>.cls-1{fill:#231f20;}</style></defs><title>phone-outline</title><g id="Layer_1" data-name="Layer 1"><path class="cls-1" d="M12.916.015H3.745a.99.99,0,0,0-.986.993V14.917a.99.99,0,0,0,.986.994h9.171a.99.99,0,0,0,.986-.994V1.008A.99.99,0,0,0,12.916.015Zm-.754,13.909a.228.228,0,0,1-.232.223h-7.2a.228.228,0,0,1-.232-.223V2a.228.228,0,0,1,.232-.223h7.2A.228.228,0,0,1,12.162,2ZM8.432,11.111A1.025,1.025,0,1,0,9.5,12.135,1.045,1.045,0,0,0,8.432,11.111Z"/></g>
</symbol>

<symbol id="phone" class="symbol" viewBox="0 0 16 16">
  <defs><style>.cls-1{fill:#231f20;}</style></defs><title>phone</title><g id="Layer_1" data-name="Layer 1"><path class="cls-1" d="M2.541,6.033A26.787,26.787,0,0,0,9.63,14.648l1.081.86a1.756,1.756,0,0,0,2.216-.023h0l1.892-1.57.308-.255a1.305,1.305,0,0,0,.173-1.832l-1.452-1.764a1.292,1.292,0,0,0-1.825-.174l-1.83,1.519a26.79,26.79,0,0,1-4.378-5.32l1.83-1.519a1.305,1.305,0,0,0,.173-1.832L6.367.972A1.292,1.292,0,0,0,4.543.8l-.307.255L2.343,2.623h0A1.774,1.774,0,0,0,1.9,4.8Z"/></g>
</symbol>

<symbol id="photo-outline" class="symbol" viewBox="0 0 16 16">
  <defs><style>.cls-1{fill:#231f20;}</style></defs><title>photo-outline</title><g id="Layer_1" data-name="Layer 1"><path class="cls-1" d="M14.61.063H1.478A1.4,1.4,0,0,0,.115,1.487V14.5A1.4,1.4,0,0,0,1.478,15.92H14.61A1.4,1.4,0,0,0,15.972,14.5V1.487A1.4,1.4,0,0,0,14.61.063ZM14.981,14.5a.406.406,0,0,1-.372.433H1.478a.406.406,0,0,1-.372-.433V1.487a.407.407,0,0,1,.372-.434H14.61a.407.407,0,0,1,.372.434ZM6.061,4.027A1.982,1.982,0,1,0,8.044,6.009,1.984,1.984,0,0,0,6.061,4.027ZM6.061,7a.991.991,0,1,1,.991-.991A.992.992,0,0,1,6.061,7Zm7.433-4.955H2.593a.5.5,0,0,0-.5.5v9.911a.5.5,0,0,0,.5.5h10.9a.5.5,0,0,0,.5-.5V2.54A.5.5,0,0,0,13.495,2.045ZM3.584,11.956a.484.484,0,0,1-.228-.063l1.93-1.93a.5.5,0,0,1,.7,0L7.98,11.956ZM13,11.46a.5.5,0,0,1-.5.5H9.381l-1.7-1.7,2.62-2.619a.5.5,0,0,1,.7,0L13,9.633Zm0-3.228L11.707,6.94a1.489,1.489,0,0,0-2.1,0L6.985,9.559l-.3-.3a1.489,1.489,0,0,0-2.1,0l-1.5,1.5V3.531a.5.5,0,0,1,.5-.5H12.5a.5.5,0,0,1,.5.5Z"/></g>
</symbol>

<symbol id="photo-upload" class="symbol" viewBox="0 0 16 16">
  <defs><style>.cls-1{fill:#231f20;}</style></defs><title>photo-upload</title><g id="Layer_1" data-name="Layer 1"><path class="cls-1" d="M12.03,12.311H2v-7H8V3.305H.9a.892.892,0,0,0-.9.976v9.181a.843.843,0,0,0,.9.842H12.981a.925.925,0,0,0,.975-.842V9.327H12.03Zm-9.219-.994L11,11.278l-.006-2.235L9.875,7.351,8.07,9.722,6.393,8.151ZM5.43,7.2a.923.923,0,1,0-.924.923A.924.924,0,0,0,5.43,7.2Zm7.608-5.987-2.973,4.1h1.918l0,2H14v-2h2Z"/></g>
</symbol>

<symbol id="pulse-simple" class="symbol" viewBox="0 0 16 16">
  <defs><style>.cls-1{fill:#231f20;}</style></defs><title>pulse-simple</title><g id="Layer_1" data-name="Layer 1"><path class="cls-1" d="M9.3,14.473H9.257a1.058,1.058,0,0,1-1.01-.848L6.215,4.107l-1.358,4a1.2,1.2,0,0,1-1.138.816H.733a.733.733,0,1,1,0-1.466h2.8L5.285,2.285A1.073,1.073,0,0,1,7.35,2.4l2,9.387L10.4,8.2a1.208,1.208,0,0,1,1.154-.866h3.716a.733.733,0,0,1,0,1.466H11.75l-1.424,4.9A1.058,1.058,0,0,1,9.3,14.473Z"/></g>
</symbol>

<symbol id="r-arr-thin" class="symbol" viewBox="0 0 16 16">
  <defs><style>.cls-1{fill:#231f20;}</style></defs><title>r-arr-thin</title><g id="Layer_1" data-name="Layer 1"><path class="cls-1" d="M1.625,6.736h9.553L6.967,2.8a1.236,1.236,0,0,1,0-1.828,1.446,1.446,0,0,1,1.951,0L15.149,6.8a1.663,1.663,0,0,1,0,2.456L8.971,15.041a1.447,1.447,0,0,1-1.951,0,1.236,1.236,0,0,1,0-1.828l4.159-3.891H1.625A1.338,1.338,0,0,1,.246,8.03,1.338,1.338,0,0,1,1.625,6.736Z"/></g>
</symbol>

<symbol id="received-email" class="symbol" viewBox="0 0 16 16">
  <defs><style>.cls-1{fill:#231f20;}</style></defs><title>received-email</title><g id="Layer_1" data-name="Layer 1"><path class="cls-1" d="M8.887,4.713H1.112A1.134,1.134,0,0,0,0,5.866v4.689a1.134,1.134,0,0,0,1.112,1.153H8.887A1.134,1.134,0,0,0,10,10.555V5.866A1.134,1.134,0,0,0,8.887,4.713ZM1.112,5.7H8.887a.162.162,0,0,1,.153.119L5.018,8.309H5.006L.962,5.8A.163.163,0,0,1,1.112,5.7ZM.95,9.839v-2.9L3.017,8.223Zm.445.885L3.9,8.769l.621.385a.931.931,0,0,0,.988,0l.621-.385,2.5,1.955Zm7.656-.9-2.043-1.6L9.05,6.957Zm6.457-3.877H11.434a.5.5,0,0,0,0,1h4.073a.5.5,0,0,0,0-1ZM14.253,7.711H11.434a.5.5,0,0,0,0,1h2.819a.5.5,0,0,0,0-1ZM12.844,9.48H11.434a.5.5,0,0,0,0,1h1.409a.5.5,0,0,0,0-1Z"/></g>
</symbol>

<symbol id="refresh" class="symbol" viewBox="0 0 16 16">
  <defs><style>.cls-1{fill:#010101;}</style></defs><title>refresh</title><g id="Layer_1" data-name="Layer 1"><g id="Your_Icon" data-name="Your Icon"><path id="refresh-3-icon" class="cls-1" d="M12.585,3.876,11.147,5.315a4.317,4.317,0,0,0-7.37,3.053H5.454L2.775,11.047.1,8.369H1.742A6.352,6.352,0,0,1,12.585,3.876Zm3.43,4.271L13.339,5.469,10.661,8.147h1.677A4.317,4.317,0,0,1,4.968,11.2L3.529,12.64A6.352,6.352,0,0,0,14.373,8.147h1.642Z"/></g></g>
</symbol>

<symbol id="report" class="symbol" viewBox="0 0 16 16">
  <defs><style>.cls-1{fill:#010101;}</style></defs><title>report</title><g id="Layer_1" data-name="Layer 1"><path class="cls-1" d="M14.56.038H1.431A1.421,1.421,0,0,0,.019,1.46V14.613a1.411,1.411,0,0,0,1.412,1.412H14.561a1.411,1.411,0,0,0,1.411-1.412V1.449A1.411,1.411,0,0,0,14.56.038Zm-.18,14.106a.155.155,0,0,1-.144.156H1.757a.145.145,0,0,1-.145-.145V1.918a.156.156,0,0,1,.145-.156H14.234a.146.146,0,0,1,.145.146Z"/><rect class="cls-1" x="2.759" y="11.149" width="2.235" height="2.048"/><rect class="cls-1" x="5.505" y="8.592" width="2.235" height="4.604"/><rect class="cls-1" x="8.251" y="3.989" width="2.235" height="9.208"/><rect class="cls-1" x="10.998" y="6.882" width="2.235" height="6.314"/></g>
</symbol>

<symbol id="sent-email" class="symbol" viewBox="0 0 16 16">
  <defs><style>.cls-1{fill:#231f20;}</style></defs><title>sent-email</title><g id="Layer_1" data-name="Layer 1"><path class="cls-1" d="M6.1,5.866v4.689a1.134,1.134,0,0,0,1.112,1.153h7.775A1.134,1.134,0,0,0,16.1,10.555V5.866a1.134,1.134,0,0,0-1.112-1.153H7.216A1.134,1.134,0,0,0,6.1,5.866ZM15.141,5.8,11.1,8.309h-.013L7.063,5.816A.162.162,0,0,1,7.216,5.7h7.775A.163.163,0,0,1,15.141,5.8ZM13.086,8.223l2.068-1.282v2.9Zm-5.613,2.5,2.5-1.955.621.385a.931.931,0,0,0,.988,0l.621-.385,2.5,1.955Zm-.42-3.767L9.1,8.223l-2.043,1.6ZM.1,6.442a.5.5,0,0,0,.493.5H4.669a.5.5,0,0,0,0-1H.6A.5.5,0,0,0,.1,6.442ZM1.357,8.211a.5.5,0,0,0,.493.5H4.669a.5.5,0,0,0,0-1H1.85A.5.5,0,0,0,1.357,8.211ZM2.766,9.98a.5.5,0,0,0,.493.5H4.669a.5.5,0,0,0,0-1H3.259A.5.5,0,0,0,2.766,9.98Z"/></g>
</symbol>

<symbol id="simple-people" class="symbol" viewBox="0 0 16 16">
  <defs><style>.cls-1,.cls-2{fill:#231f20;}.cls-2{fill-rule:evenodd;}</style></defs><title>simple-people</title><g id="Layer_1" data-name="Layer 1"><circle class="cls-1" cx="12.282" cy="5.783" r="2.295"/><circle class="cls-1" cx="4.949" cy="4.666" r="3.06"/><path class="cls-2" d="M13.6,9.01H10.96a2.345,2.345,0,0,0-.712.11.338.338,0,0,0-.148.542,3.623,3.623,0,0,1,.844,2.327v.433a.48.48,0,0,0,.48.48h4.187a.359.359,0,0,0,.359-.359V11.377A2.367,2.367,0,0,0,13.6,9.01Z"/><path class="cls-2" d="M9.39,14.161H.509a.479.479,0,0,1-.479-.479V12.128A3.157,3.157,0,0,1,3.186,8.971H6.713a3.157,3.157,0,0,1,3.157,3.157v1.553A.479.479,0,0,1,9.39,14.161Z"/></g>
</symbol>

<symbol id="skip-step" class="symbol" viewBox="0 0 16 16">
  <defs><style>.cls-1{fill:#010101;}</style></defs><title>skip-step</title><g id="Layer_1" data-name="Layer 1"><polygon class="cls-1" points="10.022 13.912 8.011 11.901 11.977 7.934 8.011 3.967 10.022 1.956 16 7.934 10.022 13.912"/><polygon class="cls-1" points="2.357 13.912 0.346 11.901 4.313 7.934 0.346 3.967 2.357 1.956 8.336 7.934 2.357 13.912"/></g>
</symbol>

<symbol id="sms" class="symbol" viewBox="0 0 16 16">
  <defs><style>.cls-1{fill:#231f20;}</style></defs><title>sms</title><g id="Layer_1" data-name="Layer 1"><path class="cls-1" d="M11.3.528H4.66A4.636,4.636,0,0,0,.03,5.159V8.515a4.581,4.581,0,0,0,1.3,3.192l-.222,3.988,4.542-2.548H11.3A4.636,4.636,0,0,0,15.93,8.515V5.159A4.636,4.636,0,0,0,11.3.528ZM5.219,11.546,2.784,13.1l.209-2.057-.221-.179A3.018,3.018,0,0,1,1.626,8.515V5.159A3.037,3.037,0,0,1,4.66,2.125H11.3a3.037,3.037,0,0,1,3.034,3.034V8.515A3.037,3.037,0,0,1,11.3,11.549Z"/><circle class="cls-1" cx="8.103" cy="6.837" r="1.298"/><circle class="cls-1" cx="4.579" cy="6.837" r="1.298"/><circle class="cls-1" cx="11.628" cy="6.837" r="1.298"/></g>
</symbol>

<symbol id="star-closed" class="symbol" viewBox="0 0 16 16">
  <defs><style>.cls-1{fill:#231f20;}</style></defs><title>star-closed</title><g id="Layer_1" data-name="Layer 1"><path class="cls-1" d="M15.224,6.318a.623.623,0,0,0-.5-.425l-4.256-.618-1.9-3.856a.65.65,0,0,0-1.121,0l-1.9,3.856-4.256.618A.624.624,0,0,0,.935,6.959l3.08,3L3.287,14.2a.625.625,0,0,0,.907.658l3.806-2,3.806,2a.617.617,0,0,0,.291.072.625.625,0,0,0,.616-.73L11.986,9.96l3.08-3A.624.624,0,0,0,15.224,6.318Z"/></g>
</symbol>

<symbol id="star-open" class="symbol" viewBox="0 0 16 16">
  <defs><style>.cls-1{fill:#231f20;}</style></defs><title>star-open</title><g id="Layer_1" data-name="Layer 1"><path class="cls-1" d="M12.1,14.93a.617.617,0,0,1-.291-.072L8,12.857l-3.806,2a.625.625,0,0,1-.907-.658L4.014,9.96l-3.08-3a.624.624,0,0,1,.346-1.065l4.256-.618,1.9-3.856a.65.65,0,0,1,1.121,0l1.9,3.856,4.256.618a.624.624,0,0,1,.346,1.065l-3.08,3,.728,4.239a.625.625,0,0,1-.616.73ZM8,11.526a.626.626,0,0,1,.291.072l2.976,1.564L10.7,9.848a.625.625,0,0,1,.18-.553l2.408-2.348L9.958,6.464a.625.625,0,0,1-.471-.342L8,3.107,6.512,6.123a.625.625,0,0,1-.471.342l-3.328.483L5.122,9.3a.625.625,0,0,1,.18.553l-.569,3.314L7.709,11.6A.626.626,0,0,1,8,11.526Z"/></g>
</symbol>

<symbol id="step-back" class="symbol" viewBox="0 0 16 16">
  <defs><style>.cls-1{fill:#010101;}</style></defs><title>step-back</title><g id="Layer_1" data-name="Layer 1"><polygon class="cls-1" points="13.05 6.984 6.84 6.984 8.687 5.137 7.25 3.7 2.95 8 7.25 12.3 8.687 10.863 6.84 9.016 13.05 9.016 13.05 6.984"/></g>
</symbol>

<symbol id="success-uploading" class="symbol" viewBox="0 0 16 16">
  <defs><style>.cls-1{fill:#010101;}</style></defs><title>success-uploading</title><g id="Layer_1" data-name="Layer 1"><path class="cls-1" d="M14,5.342H10.6A1.083,1.083,0,0,1,9.51,4.269V.87a.848.848,0,0,1,.85-.844.838.838,0,0,1,.6.248L14.591,3.9A.842.842,0,0,1,14,5.342ZM10.873,3.98H12.74L10.873,2.115Z"/><path class="cls-1" d="M13.775,15.981H2.625A1.066,1.066,0,0,1,1.56,14.916V1.084A1.066,1.066,0,0,1,2.625.019H10.3V1.382H2.923V14.618H13.477V4.535H14.84V14.916A1.066,1.066,0,0,1,13.775,15.981Z"/><path class="cls-1" d="M7.921,10.24a.931.931,0,0,1-.66-.272L6.242,8.948a.681.681,0,1,1,.964-.963l.716.716L9.573,7.049a.681.681,0,0,1,.964.963L8.582,9.967A.932.932,0,0,1,7.921,10.24Z"/></g>
</symbol>

<symbol id="twitter-outline" class="symbol" viewBox="0 0 16 16">
  <defs><style>.cls-1{fill:#231f20;}</style></defs><title>twitter-outline</title><g id="Layer_1" data-name="Layer 1"><path class="cls-1" d="M15.595,3.012a1.219,1.219,0,0,0-1.812-1.235,4.386,4.386,0,0,1-.851.378,4.066,4.066,0,0,0-2.33-.739A3.991,3.991,0,0,0,6.69,4.555,6.746,6.746,0,0,1,3.106,2.348a1.192,1.192,0,0,0-1.025-.433,1.219,1.219,0,0,0-.947.589A3.882,3.882,0,0,0,.777,5.711a1.273,1.273,0,0,0-.217.733A3.886,3.886,0,0,0,1.54,9.022a1.253,1.253,0,0,0,.055.506,3.9,3.9,0,0,0,.808,1.4,4.646,4.646,0,0,1-1.029,0,1.222,1.222,0,0,0-1.288.811,1.241,1.241,0,0,0,.508,1.453,9.22,9.22,0,0,0,4.895,1.4A8.959,8.959,0,0,0,14.6,5.91a6.726,6.726,0,0,0,1.135-1.257,1.215,1.215,0,0,0,.248-.742A1.234,1.234,0,0,0,15.595,3.012Zm-2.216,2.3c.005.116.008.233.008.349a7.739,7.739,0,0,1-7.9,7.7A8.008,8.008,0,0,1,1.234,12.14a5.529,5.529,0,0,0,.662.038A5.661,5.661,0,0,0,5.344,11.02,2.767,2.767,0,0,1,2.751,9.143,2.846,2.846,0,0,0,4,9.1,2.724,2.724,0,0,1,1.777,6.445V6.41a2.822,2.822,0,0,0,1.258.339A2.686,2.686,0,0,1,1.8,4.5a2.634,2.634,0,0,1,.376-1.359A7.958,7.958,0,0,0,7.9,5.964a2.642,2.642,0,0,1-.072-.616,2.741,2.741,0,0,1,2.776-2.7,2.805,2.805,0,0,1,2.026.855,5.667,5.667,0,0,0,1.762-.656,2.727,2.727,0,0,1-1.22,1.5,5.672,5.672,0,0,0,1.594-.427A5.585,5.585,0,0,1,13.378,5.311Z"/></g>
</symbol>

<symbol id="twitter" class="symbol" viewBox="0 0 16 16">
  <defs><style>.cls-1{fill:#231f20;fill-rule:evenodd;}</style></defs><title>twitter</title><g id="Layer_1" data-name="Layer 1"><path class="cls-1" d="M.118,10.165s3.133,2.619,5.624.023a1.334,1.334,0,0,1-.684-.2,1.144,1.144,0,0,1-.34-.559s.775-.417.484-.731c0,0-1.714-.033-1.81-1.028L4.4,7.047a1,1,0,0,1-.787,0s-1.016-.7-.822-1.418l.849-.083S2.165,4.536,2.577,3.763c0,0,.142-.665,5.014,2.445,0,0,.859-2.939,2.445-3.585,0,0,.264.122.264.251,0,0,.225-.465.522-.508,0,0,.359.3.126.476,0,0,.6-.4.9-.2,0,0-.024.353-.892.793,0,0,2.252.12,3.038,3.007a2.4,2.4,0,0,0,1.893-.229s.076.427-1.347,1.03c0,0,.133.205,1.326.049,0,0-.009.853-1.9.847,0,0-1.594,4.44-5.468,5.051C3.789,13.936.481,11.673.118,10.165Z"/></g>
</symbol>

<symbol id="workflows" class="symbol" viewBox="0 0 16 16">
  <defs><style>.cls-1{fill:#231f20;}</style></defs><title>workflows</title><g id="Layer_1" data-name="Layer 1"><rect class="cls-1" x="7.505" y="3.947" width="8.406" height="2.01" rx="0.658" ry="0.658"/><rect class="cls-1" x="7.505" y="10.534" width="8.406" height="2.01" rx="0.658" ry="0.658"/><path class="cls-1" d="M1.93,6.927.172,5.3a.474.474,0,0,1-.026-.67L.7,4.037a.474.474,0,0,1,.67-.026l.986.912L4.627,2.606A.474.474,0,0,1,5.3,2.6l.578.568a.474.474,0,0,1,.006.671L2.87,6.9A.675.675,0,0,1,1.93,6.927Z"/><path class="cls-1" d="M1.93,13.387.172,11.762a.474.474,0,0,1-.026-.67L.7,10.5a.474.474,0,0,1,.67-.026l.986.912L4.627,9.065A.474.474,0,0,1,5.3,9.059l.578.568a.474.474,0,0,1,.006.671L2.87,13.364A.675.675,0,0,1,1.93,13.387Z"/></g>
</symbol>
    </svg>