<svg xmlns="http://www.w3.org/2000/svg">
    <symbol id="activity-envelope-outline" class="symbol"><title id="title">activity-envelope-outline icon</title><path class="cls-1" d="M14.161 2.894H1.849A1.764 1.764 0 0 0 .087 4.656v7.166a1.763 1.763 0 0 0 1.762 1.762h12.312a1.763 1.763 0 0 0 1.762-1.762V4.656a1.764 1.764 0 0 0-1.762-1.762zm-9.3 5.364l-3.27 2.469V6.3zm1.394.834l.984.589a1.524 1.524 0 0 0 1.563 0l.984-.589 3.963 2.988H2.3zm4.925-.834l3.235-1.936V10.7zM1.849 4.4h12.312a.246.246 0 0 1 .229.189L8.014 8.39 1.627 4.568a.243.243 0 0 1 .222-.168z" data-name="Layer 1" role="presentation"/></symbol>
<symbol id="activity-regis" class="symbol"><title id="title">activity-regis icon</title><g data-name="Layer 1"><path class="cls-1" d="M11.791 14.044l-.479-.411-1.266-1.266a.607.607 0 0 1 .858-.858l.853.853 2.258-2.262a.607.607 0 0 1 .858.858zM7.143 7.889a3.612 3.612 0 1 1 3.612-3.612 3.616 3.616 0 0 1-3.612 3.612zm0-6.01a2.4 2.4 0 1 0 2.4 2.4 2.4 2.4 0 0 0-2.4-2.4z" role="presentation"/><path class="cls-1" d="M8.916 15.23H3.605a1.905 1.905 0 0 1-1.9-1.9V10.4a2.293 2.293 0 0 1 1.468-2.133l3.97-1.507 4.1 1.555a.606.606 0 0 1-.43 1.134l-3.67-1.391L3.6 9.4a1.075 1.075 0 0 0-.689 1v2.928a.691.691 0 0 0 .69.69h5.315a.607.607 0 1 1 0 1.213z" role="presentation"/></g></symbol>
<symbol id="add-household" class="symbol"><title id="title">add-household icon</title><g data-name="Layer 1"><path class="cls-1" d="M15.4 7.79L9.082.61a1.577 1.577 0 0 0-2.367 0L.4 7.79a1.51 1.51 0 0 0-.257 1.661 1.533 1.533 0 0 0 1.437.9h.574v3.925A1.587 1.587 0 0 0 3.693 15.9h8.423a1.62 1.62 0 0 0 1.579-1.623v-3.929h.523a1.532 1.532 0 0 0 1.437-.9A1.509 1.509 0 0 0 15.4 7.79zM7.917 1.637L14.243 8.8c0 .007-.007 0-.026 0h-2.076v5.479c0 .013-.012.07-.025.07H3.693c-.013 0 .015-.057.015-.07V8.855H1.587c-.006 0-.023-.021-.015-.038l6.314-7.18" role="presentation"/><path class="cls-1" d="M9.674 8.285H8.633V7.222a.759.759 0 0 0-.755-.777h-.011a.786.786 0 0 0-.787.777v1.063h-.957a.75.75 0 0 0-.777.744v.016a.791.791 0 0 0 .777.793h.956v.934a.8.8 0 0 0 .8.777h-.012a.768.768 0 0 0 .766-.777v-.933h1.041a.805.805 0 0 0 .777-.809v.016a.763.763 0 0 0-.777-.761z" role="presentation"/></g></symbol>
<symbol id="advance" class="symbol"><title id="title-advance">advance icon</title><path class="cls-1" d="M3.8 14.31a3.38 3.38 0 1 1 3.38-3.38 3.39 3.39 0 0 1-3.38 3.38zm0-5.76a2.38 2.38 0 1 0 2.38 2.38A2.39 2.39 0 0 0 3.8 8.55zm8.47 5.76a3.38 3.38 0 1 1 3.38-3.38 3.38 3.38 0 0 1-3.38 3.38zm1.19-12.26a.75.75 0 0 0-.54-.31.69.69 0 0 0-.75.61L12 3.72a5 5 0 0 0-3.85-2.15c-2.89 0-4.9 3.24-5 3.38a.74.74 0 0 0 .25 1 .7.7 0 0 0 .39.11.74.74 0 0 0 .64-.35s1.7-2.63 3.72-2.64a3.55 3.55 0 0 1 2.62 1.52l-1.35-.26a.7.7 0 0 0-.75.61.78.78 0 0 0 .61.84l3 .55h.08a.84.84 0 0 0 .92-.74l.35-3a.67.67 0 0 0-.17-.54z" data-name="Layer 1" role="presentation"/></symbol>
<symbol id="app-check" class="symbol"><title id="title">app-check icon</title><path class="cls-1" d="M5.992 13.5a1.616 1.616 0 0 1-1.137-.466L.971 9.188a1.58 1.58 0 0 1 0-2.25 1.619 1.619 0 0 1 2.273 0l2.748 2.72 6.764-6.7a1.619 1.619 0 0 1 2.273 0 1.579 1.579 0 0 1 0 2.25l-7.9 7.82a1.614 1.614 0 0 1-1.137.472z" data-name="Layer 1" role="presentation"/></symbol>
<symbol id="app-list" class="symbol"><title id="title">app-list icon</title><g data-name="Layer 1"><rect class="cls-1" x=".42" y="1.696" width="2.811" height="2.811" rx=".43" ry=".43"/><path class="cls-1" d="M14.688 3.906H5.41a.843.843 0 0 1 0-1.687h9.278a.843.843 0 1 1 0 1.687z" role="presentation"/><rect class="cls-1" x=".42" y="6.754" width="2.811" height="2.811" rx=".43" ry=".43"/><path class="cls-1" d="M14.688 9H5.41a.843.843 0 0 1 0-1.687h9.278a.843.843 0 1 1 0 1.687z" role="presentation"/><rect class="cls-1" x=".42" y="11.811" width="2.811" height="2.811" rx=".43" ry=".43"/><path class="cls-1" d="M14.688 14.06H5.41a.843.843 0 1 1 0-1.687h9.278a.843.843 0 1 1 0 1.687z" role="presentation"/></g></symbol>
<symbol id="apple" class="symbol"><title id="title">apple icon</title><path class="cls-1" d="M7.465 4.633a20.208 20.208 0 0 0-.578-3.086c-.2-.262-.513-.356-.513-.726a.591.591 0 0 1 1.131 0 14.765 14.765 0 0 1 .3 3.172S8.052 1.45 9.454.6A5.991 5.991 0 0 1 13.14.263s-.719 2.3-2.593 2.767a5.57 5.57 0 0 0-2.679 1.36l.024.254c1.349-.054 1.848-.98 3.82-.137a3.955 3.955 0 0 1 2.476 3.95c0 2.1-1.85 6.5-4.812 7.341-.395.112-1.109-.241-1.607-.241s-1.163.457-1.706.241c-2.717-1.083-4.713-5.36-4.713-7.341A4.468 4.468 0 0 1 3.824 4.4c1.586-.649 2.368.12 3.641.233z" data-name="Layer 1" role="presentation"/></symbol>
<symbol id="background-checks" class="symbol"><title id="title">background-checks icon</title><path d="M15.287 2.508L8.518.291a1.537 1.537 0 0 0-.957 0L.793 2.508a.533.533 0 0 0-.367.507v4.728a5.4 5.4 0 0 0 2.128 4.3l4.555 3.47a1.537 1.537 0 0 0 1.863 0l4.555-3.47a5.4 5.4 0 0 0 2.128-4.3V3.015a.533.533 0 0 0-.368-.507zm-3.707 4.63l-3.216 2.934a1.011 1.011 0 0 1-1.325.032L5.4 8.752a1.011 1.011 0 1 1 1.291-1.558l.959.793 2.568-2.342a1.011 1.011 0 0 1 1.362 1.493z" data-name="Layer 1" role="presentation"/></symbol>
<symbol id="bars" class="symbol"><title id="title">bars icon</title><path class="cls-1" d="M1.334.5a.833.833 0 0 0-.834.833v13.334a.833.833 0 0 0 1.667 0V1.333A.834.834 0 0 0 1.334.5zm4.444 2.778a.833.833 0 0 0-.833.833v10.556a.833.833 0 0 0 1.667 0V4.111a.834.834 0 0 0-.834-.833zm8.889-1.667a.834.834 0 0 0-.833.834v12.222a.833.833 0 0 0 1.667 0V2.445a.833.833 0 0 0-.835-.834zm-4.444 5a.833.833 0 0 0-.834.833v7.222a.833.833 0 0 0 1.667 0V7.444a.833.833 0 0 0-.833-.833z" data-name="Layer 1" role="presentation"/></symbol>
<symbol id="bgcheck-status-clear" class="symbol"><title id="title-bgcheck-status-clear">bgcheck-status-clear icon</title><path d="M15.287 2.508L8.518.291a1.532 1.532 0 0 0-.956 0L.793 2.508a.533.533 0 0 0-.368.507v4.728a5.4 5.4 0 0 0 2.129 4.3l4.555 3.471a1.536 1.536 0 0 0 1.862 0l4.555-3.471a5.4 5.4 0 0 0 2.129-4.3V3.015a.533.533 0 0 0-.368-.507zm-3.707 4.63l-3.216 2.934a1.011 1.011 0 0 1-1.326.032L5.4 8.752a1.011 1.011 0 0 1 1.291-1.558l.959.793 2.568-2.342a1.01 1.01 0 0 1 1.362 1.493z" data-name="Layer 1" role="presentation"/></symbol>
<symbol id="bgcheck-status-expired" class="symbol"><title id="title-bgcheck-status-expired">bgcheck-status-expired icon</title><g data-name="Layer 1"><path data-name="Subtraction 13" class="cls-1" d="M8.04 15.825a1.7 1.7 0 0 1-.946-.3l-4.578-3.509a5.47 5.47 0 0 1-2.09-4.309V3a.506.506 0 0 1 .4-.5L7.493.29a1.688 1.688 0 0 1 .995 0l6.768 2.21a1 1 0 0 1 .4.5v4.707a5.47 5.47 0 0 1-2.09 4.309l-4.58 3.508a1.7 1.7 0 0 1-.946.301zM6.886 3.222a.2.2 0 0 0-.2.189v.63a.2.2 0 0 0 .2.189h.469v.543a3.543 3.543 0 0 0-2.1 1.1 3.162 3.162 0 0 0-.848 2.14 3.388 3.388 0 0 0 3.484 3.276H7.9a3.553 3.553 0 0 0 2.55-1.047 3.157 3.157 0 0 0 .926-2.243 3.107 3.107 0 0 0-.561-1.766l-.007-.008a3.277 3.277 0 0 0-.7-.733l-.008-.018a3.569 3.569 0 0 0-1.67-.7v-.543h.47a.2.2 0 0 0 .2-.189v-.631a.2.2 0 0 0-.2-.189zm2.923 5.546H7.555a.2.2 0 0 1-.2-.188V6.19a.2.2 0 0 1 .2-.19h.67a.2.2 0 0 1 .2.189v1.572h1.384a.2.2 0 0 1 .2.189v.628a.2.2 0 0 1-.2.19z" role="presentation"/></g></symbol>
<symbol id="bgcheck-status-none" class="symbol"><title id="title-bgcheck-status-none">bgcheck-status-none icon</title><g data-name="Layer 1"><path data-name="Subtraction 8" class="cls-1" d="M8.04 15.825a1.7 1.7 0 0 1-.946-.3l-4.578-3.509a5.47 5.47 0 0 1-2.09-4.309V3a.506.506 0 0 1 .4-.5L7.493.29a1.688 1.688 0 0 1 .995 0l6.768 2.21a1 1 0 0 1 .4.5v4.707a5.47 5.47 0 0 1-2.09 4.309l-4.58 3.508a1.7 1.7 0 0 1-.946.301zM7.955 4.077a3.508 3.508 0 1 0 3.484 3.507 3.495 3.495 0 0 0-3.484-3.507zm0 6.113a2.61 2.61 0 0 1-2.118-4.1l3.6 3.625a2.548 2.548 0 0 1-1.484.47zm2.121-1.11l-3.6-3.629a2.577 2.577 0 0 1 3.6.659 2.623 2.623 0 0 1 0 2.966z" role="presentation"/></g></symbol>
<symbol id="bgcheck-status-notclear" class="symbol"><title id="title-bgcheck-status-notclear">bgcheck-status-notclear icon</title><g data-name="Layer 1"><path data-name="Subtraction 2" class="cls-1" d="M8.04 15.825a1.7 1.7 0 0 1-.946-.3l-4.578-3.509a5.47 5.47 0 0 1-2.09-4.309V3a.506.506 0 0 1 .4-.5L7.493.29a1.688 1.688 0 0 1 .995 0l6.768 2.21a1 1 0 0 1 .4.5v4.707a5.47 5.47 0 0 1-2.09 4.309l-4.58 3.508a1.7 1.7 0 0 1-.946.301zM6.145 4.874a.573.573 0 0 0-.4.2l-.466.47a.63.63 0 0 0-.215.437.7.7 0 0 0 .243.469l1.25 1.257L5.32 8.949a.594.594 0 0 0-.131.827.788.788 0 0 0 .045.056l.493.5a.625.625 0 0 0 .432.219.689.689 0 0 0 .464-.255l.015-.016 1.235-1.245 1.284 1.294a.611.611 0 0 0 .426.209.632.632 0 0 0 .439-.215l.467-.469A.536.536 0 0 0 10.475 9l-1.29-1.3 1.27-1.277a.681.681 0 0 0 .222-.458.61.61 0 0 0-.2-.425l-.493-.5a.544.544 0 0 0-.384-.178.669.669 0 0 0-.46.238L7.871 6.38 6.62 5.126a.728.728 0 0 0-.475-.252z" role="presentation"/></g></symbol>
<symbol id="bgcheck-status-pending" class="symbol"><title id="title-bgcheck-status-pending">bgcheck-status-pending icon</title><g data-name="Layer 1"><path data-name="Subtraction 10" class="cls-1" d="M8.04 15.825a1.7 1.7 0 0 1-.946-.3l-4.578-3.509a5.47 5.47 0 0 1-2.09-4.309V3a.506.506 0 0 1 .4-.5L7.493.29a1.688 1.688 0 0 1 .995 0l6.768 2.21a1 1 0 0 1 .4.5v4.707a5.47 5.47 0 0 1-2.09 4.309l-4.58 3.508a1.7 1.7 0 0 1-.946.301zm2.7-9.6A1.173 1.173 0 1 0 11.9 7.4a1.171 1.171 0 0 0-1.162-1.172zm-2.847 0A1.173 1.173 0 1 0 9.055 7.4a1.171 1.171 0 0 0-1.164-1.172zm-2.847 0A1.173 1.173 0 1 0 6.209 7.4a1.17 1.17 0 0 0-1.165-1.172z" role="presentation"/></g></symbol>
<symbol id="bgcheck-status-unknown" class="symbol"><title id="title-bgcheck-status-unknown">bgcheck-status-unknown icon</title><g data-name="Layer 1"><path data-name="Subtraction 6" class="cls-1" d="M8.04 15.825a1.7 1.7 0 0 1-.946-.3l-4.578-3.509a5.47 5.47 0 0 1-2.09-4.309V3a.506.506 0 0 1 .4-.5L7.493.29a1.688 1.688 0 0 1 .995 0l6.768 2.21a1 1 0 0 1 .4.5v4.707a5.47 5.47 0 0 1-2.09 4.309l-4.58 3.508a1.7 1.7 0 0 1-.946.301zm-.379-6.5a.948.948 0 1 0 .94.948.945.945 0 0 0-.94-.945zm.031-3.7c.441 0 .933.29.933.679 0 .307-.253.466-.665.7l-.035.018c-.482.272-1.08.61-1.08 1.433V8.6a.327.327 0 0 0 .326.328h.983a.327.327 0 0 0 .327-.328v-.081c0-.222.241-.362.545-.539a1.829 1.829 0 0 0 1.154-1.651A2.355 2.355 0 0 0 7.8 4.224a2.616 2.616 0 0 0-2.339 1.244.33.33 0 0 0 .071.45l.585.446a.325.325 0 0 0 .2.067.329.329 0 0 0 .255-.123 1.318 1.318 0 0 1 1.12-.676z" role="presentation"/></g></symbol>
<symbol id="browser-outline" class="symbol"><title id="title">browser-outline icon</title><path class="cls-1" d="M14.457.025H1.518A1.5 1.5 0 0 0 .025 1.518v12.94a1.5 1.5 0 0 0 1.493 1.493h12.94a1.5 1.5 0 0 0 1.493-1.493V1.518A1.5 1.5 0 0 0 14.457.025zm.5 14.433a.5.5 0 0 1-.5.5H1.518a.5.5 0 0 1-.5-.5V1.518a.5.5 0 0 1 .5-.5h12.94a.5.5 0 0 1 .5.5zM12.964 2.016H3.011a1 1 0 0 0-1 1V5a1 1 0 0 0 1 1h9.954a1 1 0 0 0 1-1V3.011a1 1 0 0 0-1.001-.995zM3.011 5V3.011h9.954V5zM5 6.992H3.011a1 1 0 0 0-1 1v4.977a1 1 0 0 0 1 1H5a1 1 0 0 0 1-1V7.988a1 1 0 0 0-1-.996zm-1.989 5.972V7.988H5v4.977zm9.954-5.972H7.988a1 1 0 0 0-1 1v4.977a1 1 0 0 0 1 1h4.977a1 1 0 0 0 1-1V7.988a1 1 0 0 0-1.001-.996zm-4.977 5.972V7.988h4.977v4.977z" data-name="Layer 1" role="presentation"/></symbol>
<symbol id="bulk-update" class="symbol"><title id="title">bulk-update icon</title><path class="cls-1" d="M.387 1.938A.387.387 0 0 0 0 2.324v1.688a.387.387 0 0 0 .387.388h8.054l.806-.949 1.284-1.512zM0 6.665v1.688a.387.387 0 0 0 .387.387h4.366l2.091-2.462H.387A.387.387 0 0 0 0 6.665zM13.151 10.7h-.629l-2.091 2.461h2.72a.387.387 0 0 0 .387-.387v-1.685a.387.387 0 0 0-.387-.389zM0 11.089v1.688a.387.387 0 0 0 .387.387h2.005l.039-1.579a.32.32 0 0 1 .076-.2l.58-.683h-2.7a.387.387 0 0 0-.387.387zm13.02-9.107l-1.307 1.537 2.813 2.389 1.306-1.538a.4.4 0 0 0-.046-.563l-2.2-1.873a.4.4 0 0 0-.566.048zM4.458 15.42l2.367-.446-2.781-2.363-.059 2.406a.4.4 0 0 0 .473.403zm.153-3.508L7.424 14.3l6.514-7.7-2.813-2.388z" data-name="Layer 1" role="presentation"/></symbol>
<symbol id="calendar-check" class="symbol"><title id="title">calendar-check icon</title><path class="cls-1" d="M14.044 2.063h-1.629V0h-1.377v2.063H4.843V0H3.467v2.063h-1.63A1.123 1.123 0 0 0 .713 3.186v10.82a1.123 1.123 0 0 0 1.124 1.123h12.207a1.123 1.123 0 0 0 1.124-1.123V3.186a1.123 1.123 0 0 0-1.124-1.123zm-.253 11.691H2.09V3.439h11.7zm-2.043-6.678l-.941-.99-3.354 3.527L5.806 7.88l-.941.99 2.589 2.723z" data-name="Layer 1" role="presentation"/></symbol>
<symbol id="calendar" class="symbol"><title id="title">calendar icon</title><path class="cls-1" d="M14.758 6.038V2.612a.872.872 0 0 0-.852-.891h-1.223v-.8a.853.853 0 1 0-1.7 0v.8H4.809v-.8a.872.872 0 0 0-.852-.89.872.872 0 0 0-.852.891v.8H1.981a.872.872 0 0 0-.852.891v12.473a.872.872 0 0 0 .852.891h11.925a.872.872 0 0 0 .852-.891V6.313a.874.874 0 0 0 .026-.137.874.874 0 0 0-.026-.138zm-1.7 8.157H2.833V7.067h10.221zm0-8.91H2.833V3.5h10.221zm-8.246 4.9a.886.886 0 1 0-.85-.885.867.867 0 0 0 .847.886zm3.162 0a.886.886 0 1 0-.85-.885.867.867 0 0 0 .846.886zm3.162 0a.886.886 0 1 0-.846-.885.867.867 0 0 0 .842.886zm-6.327 2.674a.886.886 0 1 0-.847-.885.867.867 0 0 0 .847.885zm3.162 0a.886.886 0 1 0-.846-.885.867.867 0 0 0 .845.885zm3.162 0a.886.886 0 1 0-.846-.885.867.867 0 0 0 .845.885z" data-name="Layer 1" role="presentation"/></symbol>
<symbol id="card-complete" class="symbol"><title id="title">card-complete icon</title><g data-name="Layer 1"><path class="cls-1" d="M13.584 10l-3.249 3.356a.092.092 0 0 1-.132 0l-2.277-2.343a.092.092 0 0 1 0-.128l.9-.923a.092.092 0 0 1 .132 0L10.2 11.24a.059.059 0 0 0 .085 0l2.243-2.323a.092.092 0 0 1 .132 0l.926.953a.092.092 0 0 1-.002.13z" role="presentation"/><path class="cls-2" d="M10.715 6.915a4.187 4.187 0 0 1 .624.047 3.991 3.991 0 0 1-.626 7.945 4 4 0 1 1 0-7.992m0-1a5.077 5.077 0 1 0 .774.058 5.168 5.168 0 0 0-.772-.058z" role="presentation"/><path class="cls-2" d="M5.729 13.922H1.382V1.484H7.3V3.96a.136.136 0 0 0 .04.095.139.139 0 0 0 .1.039h2.506V5.2a5.949 5.949 0 0 1 .767-.055 5.885 5.885 0 0 1 .615.046V3.8a.589.589 0 0 0-.181-.426L7.994.281A.625.625 0 0 0 7.56.1H.613A.624.624 0 0 0 .18.281.6.6 0 0 0 0 .707v14.029a.6.6 0 0 0 .18.426.622.622 0 0 0 .434.176h6.354a5.832 5.832 0 0 1-1.239-1.416z" role="presentation"/></g></symbol>
<symbol id="card-removed" class="symbol"><title id="title">card-removed icon</title><g data-name="Layer 1"><path class="cls-1" d="M10.815 6.915a4.187 4.187 0 0 1 .624.047 3.991 3.991 0 0 1-.626 7.945 4 4 0 1 1 0-7.992m0-1a5.077 5.077 0 1 0 .774.058 5.168 5.168 0 0 0-.772-.058z" role="presentation"/><path class="cls-1" d="M5.829 13.922H1.481V1.484H7.4V3.96a.136.136 0 0 0 .04.095.139.139 0 0 0 .1.039h2.507V5.2a5.949 5.949 0 0 1 .767-.055 5.885 5.885 0 0 1 .615.046V3.8a.589.589 0 0 0-.181-.426L8.094.281A.625.625 0 0 0 7.66.1H.713a.624.624 0 0 0-.434.181A.6.6 0 0 0 .1.707v14.029a.6.6 0 0 0 .18.426.622.622 0 0 0 .434.176h6.354a5.832 5.832 0 0 1-1.239-1.416z" role="presentation"/><path class="cls-2" d="M13.122 9.6l-1-1a.133.133 0 0 0-.188 0l-1.122 1.121L9.693 8.6a.133.133 0 0 0-.188 0l-1 1a.133.133 0 0 0 0 .188l1.119 1.119L8.5 12.031a.133.133 0 0 0 0 .188l1 1a.133.133 0 0 0 .188 0l1.124-1.119 1.119 1.119a.133.133 0 0 0 .188 0l1-1a.133.133 0 0 0 0-.188L12 10.911l1.119-1.119a.133.133 0 0 0 .003-.192z" role="presentation"/></g></symbol>
<symbol id="chat-bubble" class="symbol"><title id="title">chat-bubble icon</title><g data-name="Layer 1"><path class="cls-1" d="M8.305 14.821a8.36 8.36 0 0 1-4.274-1.149l-2.073.63a1.405 1.405 0 0 1-1.652-2l.887-1.693A6.024 6.024 0 0 1 .61 8.032c0-3.745 3.452-6.79 7.695-6.79S16 4.287 16 8.032s-3.452 6.789-7.695 6.789zm-4.066-2.675l.272.178a6.939 6.939 0 0 0 3.794 1.1c3.471 0 6.3-2.418 6.3-5.39s-2.829-5.394-6.3-5.394-6.3 2.418-6.3 5.391a4.694 4.694 0 0 0 .585 2.253l.178.328-1.223 2.342z" role="presentation"/><path class="cls-1" d="M5.313 7.484a.845.845 0 1 0 .845.845.845.845 0 0 0-.845-.845zm3.003 0a.845.845 0 1 0 .845.845.845.845 0 0 0-.845-.845zm3.003 0a.845.845 0 1 0 .845.845.845.845 0 0 0-.845-.845z" role="presentation"/></g></symbol>
<symbol id="checkr-logo" class="symbol"><title id="title">checkr-logo icon</title><path class="cls-1" d="M13.353 9.453h-.673l-.757-1.262-.072.072-.216.228v.961h-.565v-.359a1.836 1.836 0 0 1-.637.361.093.093 0 0 0-.036.012 2.022 2.022 0 0 1-.373.048h-.083a1.268 1.268 0 0 1-.925-.4 1.548 1.548 0 0 1-.336-1.009A1.486 1.486 0 0 1 9.015 7.1a1.141 1.141 0 0 1 .913-.4 1.056 1.056 0 0 1 .745.252.725.725 0 0 1 .1.1l-.324.409a.613.613 0 0 0-.493-.216.621.621 0 0 0-.5.24 1.028 1.028 0 0 0-.18.637 1.028 1.028 0 0 0 .18.637.713.713 0 0 0 .461.241h.2a1.34 1.34 0 0 0 .961-.721V5.62h.565v2.091l.9-.949h.769l-.973 1.009zM8.4 8.107a1.576 1.576 0 0 0-.3-.985 1.03 1.03 0 0 0-.877-.409 1.1 1.1 0 0 0-.889.409 1.475 1.475 0 0 0-.336 1 1.531 1.531 0 0 0 .324 1 1.166 1.166 0 0 0 .925.4A1.244 1.244 0 0 0 8.294 9l-.373-.373a.683.683 0 0 1-.276.252.974.974 0 0 1-.409.1.583.583 0 0 1-.469-.192.873.873 0 0 1-.18-.457h1.8v-.223zm-1.764-.348a.739.739 0 0 1 .192-.359.534.534 0 0 1 .4-.156.465.465 0 0 1 .372.156.867.867 0 0 1 .192.361zm9.121-.577l-.445.445a.667.667 0 0 0-.228-.324.486.486 0 0 0-.284-.073.429.429 0 0 0-.4.24 1.167 1.167 0 0 0-.168.637v1.334h-.565V6.749h.565v.2a1.055 1.055 0 0 1 .721-.252.861.861 0 0 1 .529.156 1.044 1.044 0 0 1 .275.329zm-10.082.444v1.827h-.553V7.687c0-.3-.132-.445-.421-.445a.546.546 0 0 0-.433.216.667.667 0 0 0-.072.1.788.788 0 0 0-.1.252.265.265 0 0 0-.012.1c0 .048-.012.1-.012.144v1.387h-.56v-.733c-.012.024-.036.036-.048.06a2.184 2.184 0 0 1-1.19.7.044.044 0 0 0-.036.012c-.1.012-.18.024-.228.024h-.12a1.514 1.514 0 0 1-1.2-.529 2.561 2.561 0 0 1 0-2.884 1.5 1.5 0 0 1 1.175-.531 1.6 1.6 0 0 1 1.01.34.954.954 0 0 1 .168.2l-.373.469a.813.813 0 0 0-.805-.445.971.971 0 0 0-.745.385 1.783 1.783 0 0 0-.276 1.009 1.839 1.839 0 0 0 .276 1 .994.994 0 0 0 .805.373 2.788 2.788 0 0 0 .288-.024A2.047 2.047 0 0 0 3.464 7.7a.427.427 0 0 0 .048-.108V5.62h.565v1.346a1.89 1.89 0 0 1 .223-.145 1.182 1.182 0 0 1 .481-.12.885.885 0 0 1 .661.228.938.938 0 0 1 .233.697z" data-name="Layer 1" role="presentation"/></symbol>
<symbol id="comment" class="symbol"><title id="title">comment icon</title><path class="cls-1" d="M15 7.149a7 7 0 1 0-7.25 7.046c.539.528 2.282 2.016 4.256 1.41 0 0 .587-.162.274-.646a11.671 11.671 0 0 1-.864-1.654A7.059 7.059 0 0 0 15 7.149zM9.373 9.51H5.354a.861.861 0 0 1-.744-.942.859.859 0 0 1 .744-.939h4.02a.859.859 0 0 1 .744.939.861.861 0 0 1-.745.942zm1.211-3.1H5.543a.94.94 0 0 1 0-1.881h5.041a.94.94 0 0 1 0 1.881z" data-name="Layer 1" role="presentation"/></symbol>
<symbol id="crop" class="symbol"><title id="title">crop icon</title><path class="cls-1" d="M15.447 11.514h-2.164V5.419a6.472 6.472 0 0 0-.4-1.954L15.467.937a.276.276 0 1 0-.391-.391l-2.588 2.529a3.524 3.524 0 0 0-1.432-.357H4.439V1.029c0-.305-.816-.553-1.122-.553s-1.075.248-1.075.553v1.689H.553C.248 2.718 0 3.487 0 3.792s.248 1.075.553 1.075h1.689v7.186A1.66 1.66 0 0 0 3.9 13.711h7.186v1.737c0 .305.769.553 1.075.553s1.122-.248 1.122-.553v-1.737h2.163c.306 0 .553-.769.553-1.075s-.247-1.122-.552-1.122zm-4.913-6.647a.539.539 0 0 1 .135.027l-6.2 6.2a.534.534 0 0 1-.027-.135v-5.54a.553.553 0 0 1 .553-.553zm-5.542 6.647a.535.535 0 0 1-.135-.027l6.2-6.2a.533.533 0 0 1 .027.135v5.542a.553.553 0 0 1-.553.553z" data-name="Layer 1" role="presentation"/></symbol>
<symbol id="download" class="symbol"><title id="title">download icon</title><path class="cls-1" d="M13.587 8v4.181H2.4V8H0v6.689h15.984V8zM7.8 10.463a.257.257 0 0 0 .378 0l3.887-4.2a.257.257 0 0 0-.189-.432H9.591V2.742a.257.257 0 0 0-.257-.257H6.651a.257.257 0 0 0-.257.257v3.087H4.105a.257.257 0 0 0-.189.432z" data-name="Layer 1" role="presentation"/></symbol>
<symbol id="email-envelope" class="symbol"><title id="title">email-envelope icon</title><path class="cls-1" d="M.987 5.8L7.43 8.926a1.072 1.072 0 0 0 .818 0L15.2 5.491a.358.358 0 0 0 .2-.321 1 1 0 0 0-1-1H1.8A1.016 1.016 0 0 0 .786 5.183v.3a.358.358 0 0 0 .201.317zm13.761 1.5l-5.867 2.9a2.474 2.474 0 0 1-2.048.006l-5.4-2.613A.448.448 0 0 0 .786 8v4.657a.978.978 0 0 0 .973.977h12.553a1.089 1.089 0 0 0 1.083-1.088V7.7a.448.448 0 0 0-.647-.4z" data-name="Layer 1" role="presentation"/></symbol>
<symbol id="envelope-open-outline" class="symbol"><title id="title">envelope-open-outline icon</title><path class="cls-1" d="M15.955 7.511v-.017a.5.5 0 0 0-.029-.173 1 1 0 0 0-.166-.4l-.014-.021a1 1 0 0 0-.178-.179L9.072.445a1.531 1.531 0 0 0-2.114 0L.463 6.676a1.345 1.345 0 0 0-.45.831v7.465a1 1 0 0 0 1 1h13.946a1 1 0 0 0 1-1V7.523s-.004-.008-.004-.012zm-11.74 3.82l-3.2 2.951V8.5zm1.086.353c.011-.011.026-.015.037-.027l.008-.015 2.2-2.03a.611.611 0 0 1 .387-.139.645.645 0 0 1 .387.127l5.972 5.372H1.732zm6.505-.288l3.152-2.8v5.633zM1.63 6.918l6.033-5.769a.5.5 0 0 1 .705 0l5.626 5.361h-.015l.854.869-3.772 3.348-2.105-1.894a1.639 1.639 0 0 0-2.05.021l-1.954 1.8-3.765-3.322.42-.414z" data-name="Layer 1" role="presentation"/></symbol>
<symbol id="envelope-outline" class="symbol"><title id="title">envelope-outline icon</title><path class="cls-1" d="M13.947 1.445H2.061A2.026 2.026 0 0 0 .044 3.479V11.8a2.026 2.026 0 0 0 2.017 2.035h11.886a2.026 2.026 0 0 0 2.017-2.035V3.479a2.026 2.026 0 0 0-2.017-2.034zm-3.182 6.9l4-3.421v5.783zm-8.7-5.689h11.882a.809.809 0 0 1 .777.622L8.135 9.161a.163.163 0 0 1-.2 0L1.291 3.238a.811.811 0 0 1 .77-.584zm3.31 5.766l-4.132 2.35V4.877zm8.572 4.2H2.061a.817.817 0 0 1-.746-.493l4.9-2.785 1.012.916a1.347 1.347 0 0 0 1.615 0l1.076-.994 4.788 2.806a.813.813 0 0 1-.759.55z" data-name="Layer 1" role="presentation"/></symbol>
<symbol id="error-uploading" class="symbol"><title id="title">error-uploading icon</title><g data-name="Layer 1"><path class="cls-1" d="M6.913 10.285a.683.683 0 0 1-.483-1.166l2.634-2.634a.683.683 0 0 1 .966.966L7.4 10.085a.681.681 0 0 1-.487.2z" role="presentation"/><path class="cls-1" d="M9.547 10.285a.681.681 0 0 1-.483-.2L6.43 7.451a.683.683 0 0 1 .97-.966l2.63 2.634a.683.683 0 0 1-.483 1.166zm4.379-5.024h-3.408A1 1 0 0 1 9.46 4.252V.846A.836.836 0 0 1 10.3 0a.822.822 0 0 1 .591.248l3.637 3.636a.791.791 0 0 1 .183.89.813.813 0 0 1-.785.487zm-3.1-1.366h1.839l-1.839-1.8z" role="presentation"/><path class="cls-1" d="M13.741 15.993H2.564A1.067 1.067 0 0 1 1.5 14.926V1.059A1.067 1.067 0 0 1 2.564-.008h7.716v1.366H2.864v13.269H13.4V4.48h1.366v10.446a1.034 1.034 0 0 1-1.025 1.067z" role="presentation"/></g></symbol>
<symbol id="facebook-outline" class="symbol"><title id="title">facebook-outline icon</title><path class="cls-1" d="M12.353 4.987a1.3 1.3 0 0 0-1.023-.5h-1.324V4h.776a1.267 1.267 0 0 0 1.281-1.24l.008-1.5A1.265 1.265 0 0 0 10.789.007H9.345A3.864 3.864 0 0 0 7.437.5 3.138 3.138 0 0 0 5.89 3.406v1.083h-.777a1.3 1.3 0 0 0-.906.365 1.239 1.239 0 0 0-.374.885v1.5a1.266 1.266 0 0 0 1.284 1.237h.772v6.241a1.265 1.265 0 0 0 1.281 1.245h1.546A1.265 1.265 0 0 0 10 14.717V8.476h.969A1.286 1.286 0 0 0 12.2 7.57l.36-1.483a1.222 1.222 0 0 0-.207-1.1zm-1.387 2.244h-2.25v7.487H7.171V7.231H5.117v-1.5h2.054V3.406A2.026 2.026 0 0 1 9.345 1.25h1.446l-.007 1.5h-1.34c-.736 0-.719.608-.719.608v2.376h2.6z" data-name="Layer 1" role="presentation"/></symbol>
<symbol id="facebook" class="symbol"><title id="title">facebook icon</title><path class="cls-1" d="M11.919 0H9.5S5.716-.381 5.716 3.4v1.573H4.177l-.025 2.978h1.564v7.927H9.3V7.951h2.072l.5-2.979H9.3v-1.21s-.221-1.024 1.055-1.024h1.536z" data-name="Layer 1" role="presentation"/></symbol>
<symbol id="form-break" class="symbol"><path d="M3.7 9.3H1c-.4 0-.8-.4-.8-.8v-.9c0-.4.4-.8.8-.8h2.7c.4 0 .8.4.8.8v.9c0 .4-.3.8-.8.8zm5.7 0H6.7c-.4 0-.8-.4-.8-.8v-.9c0-.4.4-.8.8-.8h2.7c.4 0 .8.4.8.8v.9c0 .4-.4.8-.8.8zm5.6 0h-2.7c-.4 0-.8-.4-.8-.8v-.9c0-.4.4-.8.8-.8H15c.4 0 .8.4.8.8v.9c0 .4-.3.8-.8.8z" role="presentation"/></symbol>
<symbol id="form-checkbox" class="symbol"><path d="M13.4 10v3.4H2.6V2.6h6.1V1.1H2.3c-.7 0-1.2.6-1.2 1.2v11.3c0 .7.6 1.2 1.2 1.2h11.3c.7 0 1.2-.6 1.2-1.2V10h-1.4z" role="presentation"/><path class="st0" d="M8.4 10.7c-.1 0-.3-.1-.4-.2L4.5 7.3c-.1-.1-.1-.2 0-.3l1.1-1.2c0-.1.1-.1.1-.1s.1 0 .1.1l2.5 2.3 5-5.1.1-.1s.1 0 .1.1l1.1 1.1c.1.1.1.2 0 .3l-6 6.1c.1.2-.1.2-.2.2z" role="presentation"/></symbol>
<symbol id="form-dropdown" class="symbol"><path d="M14 .9H2c-.5 0-.9.4-.9.9v12.5c0 .5.4.9.9.9h12c.5 0 .9-.4.9-.9V1.8c-.1-.5-.5-.9-.9-.9zm-.9 12.4H2.9V2.7h10.2v10.6z" role="presentation"/><path class="st0" d="M11.1 6.5L8.4 10c-.1.1-.2.1-.3.1-.1 0-.2 0-.3-.1L4.9 6.5c-.1-.1-.1-.3 0-.4.1-.2.2-.3.4-.3h5.5c.2 0 .3.1.4.3 0 .1 0 .3-.1.4z" role="presentation"/></symbol>
<symbol id="form-number" class="symbol"><path class="st0" d="M1.8 6l-.5.2H1c-.3 0-.6-.3-.6-.6s.2-.5.5-.6l1-.3c.3-.1.5-.1.7-.1.4 0 .7.3.7.7v5.4c0 .4-.3.7-.7.7-.4 0-.7-.3-.7-.7V6zM5 9.9l1.9-1.6c.8-.7 1.2-1.1 1.2-1.6 0-.6-.4-.9-.9-.9-.5.1-.8.2-1.1.6-.1.1-.3.3-.5.3-.4 0-.7-.3-.7-.7 0-.2.1-.3.2-.5.5-.6 1.2-1 2.2-1 1.4 0 2.3.8 2.3 2.1 0 1.1-.6 1.7-1.8 2.6l-1.1.8h2.4c.4 0 .6.3.6.6s-.3.6-.6.6H5.4c-.5 0-.8-.3-.8-.7 0-.1.1-.4.4-.6zm5.9.8c-.1-.1-.3-.3-.3-.5 0-.4.3-.7.7-.7.2 0 .4.1.5.2.4.3.8.5 1.3.5.6 0 1-.3 1-.8s-.5-.9-1.3-.9h-.2c-.3 0-.6-.3-.6-.6 0-.2.1-.4.3-.6L13.6 6h-2.1c-.3 0-.6-.3-.6-.6s.3-.6.6-.6h3.3c.4 0 .8.3.8.7 0 .4-.2.6-.4.8l-1.3 1.3c.9.2 1.8.6 1.8 1.9 0 1.3-.9 2.2-2.4 2.2-1.1-.2-1.8-.5-2.4-1z" role="presentation"/></symbol>
<symbol id="form-paragraph" class="symbol"><path d="M14.3 4.5H1.7c-.4 0-.8-.4-.8-.8v-.9c0-.4.3-.8.8-.8h12.7c.4 0 .8.4.8.8v.9c-.1.4-.4.8-.9.8zm0 4.7H1.7c-.4 0-.8-.4-.8-.8v-.8c0-.4.4-.8.8-.8h12.7c.4 0 .8.4.8.8v.9c-.1.4-.4.7-.9.7zm-3 4.8H1.7c-.4 0-.8-.4-.8-.8v-.9c0-.4.4-.8.8-.8h9.7c.4 0 .8.4.8.8v.9c-.1.4-.4.8-.9.8z" role="presentation"/></symbol>
<symbol id="form-text" class="symbol"><path class="st0" d="M2 10.4l2.4-5.3c.2-.4.5-.6.9-.6h.1c.4 0 .7.2.9.6l2.4 5.3c0 .1.1.2.1.3 0 .4-.3.7-.7.7-.3 0-.6-.2-.7-.5l-.7-1h-3L3.3 11c-.1.3-.4.5-.7.5-.4 0-.7-.3-.7-.7 0-.2.1-.3.1-.4zm4.2-1.8l-.9-2.3-1 2.3h1.9zm3.1 1.3c0-1.1.9-1.7 2.1-1.7.5 0 .9.1 1.3.2 0-.6-.4-.9-1.1-.9-.4 0-.7.1-1 .1h-.2c-.4 0-.7-.3-.7-.6s.2-.5.4-.6c.5-.2 1-.3 1.6-.3.8 0 1.4.2 1.7.6.4.4.6 1 .6 1.6v2.4c0 .4-.3.7-.7.7-.4 0-.7-.3-.7-.6-.4.4-.8.7-1.6.7-.9 0-1.7-.6-1.7-1.6zm3.4-.3v-.3c-.3-.1-.6-.2-.9-.2-.6 0-1 .3-1 .7 0 .4.3.6.8.6.6.1 1.1-.3 1.1-.8z" role="presentation"/></symbol>
<symbol id="groups-added" class="symbol"><title id="title">groups-added icon</title><g data-name="Layer 1"><path class="cls-1" d="M12.488 15.745a.549.549 0 0 1-.548-.548V11.27a.548.548 0 0 1 1.1 0v3.93a.549.549 0 0 1-.552.545z" role="presentation"/><path class="cls-1" d="M10.524 13.781a.548.548 0 1 1 0-1.1h3.928a.548.548 0 0 1 0 1.1z" role="presentation"/><path class="cls-1" d="M3.454 16a2.011 2.011 0 0 1-2-2.013v-3.151A2.427 2.427 0 0 1 3 8.574l2.419-.923-.317-.215a3.839 3.839 0 1 1 4.291 0l-.317.215 2.554.974a.616.616 0 0 1-.22 1.192.609.609 0 0 1-.216-.039l-3.946-1.5-3.809 1.45a1.189 1.189 0 0 0-.763 1.108v3.151a.78.78 0 0 0 .777.78h5.7a.616.616 0 0 1 0 1.232zm3.8-14.376a2.619 2.619 0 1 0 2.609 2.619 2.619 2.619 0 0 0-2.611-2.619z" role="presentation"/></g></symbol>
<symbol id="groups-app" class="symbol"><title id="title">groups-app icon</title><g data-name="Layer 1"><path class="cls-1" d="M9.154 5.031a1.521 1.521 0 0 0-.39.686H7.236a1.53 1.53 0 0 0-2.57-.686 1.546 1.546 0 0 0 0 2.184 1.52 1.52 0 0 0 .684.391v1.531a1.517 1.517 0 0 0-.684.391 1.543 1.543 0 1 0 2.571 1.5h1.528a1.53 1.53 0 0 0 2.57.686 1.536 1.536 0 0 0-.685-2.576V7.606a1.516 1.516 0 0 0 .684-.391 1.543 1.543 0 0 0-2.18-2.184zm.684 4.106a1.493 1.493 0 0 0-1.074 1.077H7.236a1.492 1.492 0 0 0-1.074-1.078v-1.53a1.493 1.493 0 0 0 1.074-1.077h1.528a1.493 1.493 0 0 0 1.074 1.077z" role="presentation"/><path class="cls-1" d="M14 .014H2a2 2 0 0 0-2 2v12a2 2 0 0 0 2 2h12a2 2 0 0 0 2-2v-12a2 2 0 0 0-2-2zm0 14H2v-12h3a1 1 0 0 0 1 1h4a1 1 0 0 0 1-1h3z" role="presentation"/></g></symbol>
<symbol id="groups-removed" class="symbol"><title id="title">groups-removed icon</title><g data-name="Layer 1"><path class="cls-1" d="M10.723 13.14a.548.548 0 0 1 0-1.1h3.928a.548.548 0 1 1 0 1.1z" role="presentation"/><path class="cls-1" d="M3.654 16a2.011 2.011 0 0 1-2-2.013v-3.151A2.428 2.428 0 0 1 3.2 8.574l2.418-.923-.317-.215a3.839 3.839 0 1 1 4.292 0l-.317.215 2.554.974a.616.616 0 0 1-.22 1.192.609.609 0 0 1-.216-.039l-3.946-1.5-3.809 1.45a1.189 1.189 0 0 0-.763 1.108v3.151a.78.78 0 0 0 .777.78h5.7a.616.616 0 0 1 0 1.232zm3.8-14.376a2.619 2.619 0 1 0 2.611 2.619 2.619 2.619 0 0 0-2.613-2.619z" role="presentation"/></g></symbol>
<symbol id="heart-outline" class="symbol"><title id="title">heart-outline icon</title><path class="cls-1" d="M8.023 15.024a1.575 1.575 0 0 1-1.133-.478L1.9 9.47A4.356 4.356 0 0 1 .662 6.227a4.284 4.284 0 0 1 1.53-3.111 4.282 4.282 0 0 1 5.78.383l.05.051a4.218 4.218 0 0 1 7.263 2.776 4.354 4.354 0 0 1-1.237 3.243l-4.892 4.977a1.577 1.577 0 0 1-1.133.478zM4.826 3.6a2.671 2.671 0 0 0-1.734.621 2.856 2.856 0 0 0-1.023 2.072 2.906 2.906 0 0 0 .826 2.165l4.99 5.076a.168.168 0 0 0 .275 0l4.894-4.977a2.905 2.905 0 0 0 .826-2.165 2.86 2.86 0 0 0-1.022-2.076 2.883 2.883 0 0 0-3.887.294l-.948.965-1.046-1.064A3.029 3.029 0 0 0 4.826 3.6z" data-name="Layer 1" role="presentation"/></symbol>
<symbol id="id-card-outline" class="symbol"><title id="title">id-card-outline icon</title><path class="cls-1" d="M15.24 2.825H.759A.761.761 0 0 0 0 3.586v8.857a.761.761 0 0 0 .759.761H15.24a.762.762 0 0 0 .76-.761V3.586a.762.762 0 0 0-.76-.761zm-.111 9.507H.856V3.683h14.273zm-12.2-1.3h3.21a.514.514 0 0 0 .513-.514V9.054a1 1 0 0 0-.629-.932L5.5 7.914a.9.9 0 0 0 .455-.782V6.4a1.426 1.426 0 1 0-2.855 0v.733a.9.9 0 0 0 .459.786l-.517.2a1 1 0 0 0-.634.933v1.462a.514.514 0 0 0 .518.518zM3.88 6.4a.65.65 0 1 1 1.3 0v.733a.128.128 0 0 1-.067.113l-.429.233a.324.324 0 0 1-.309 0l-.429-.233a.127.127 0 0 1-.067-.112zm-.692 2.656a.225.225 0 0 1 .143-.21l1.21-.479 1.19.477a.225.225 0 0 1 .142.21v1.2H3.188zm10.224-3.218h-5.2v.872h5.2zm0 1.74h-5.2v.872h5.2zM10.807 9.3H8.216v.872h2.591z" data-name="Layer 1" role="presentation"/></symbol>
<symbol id="import-progress" class="symbol"><title id="title">import-progress icon</title><path class="cls-1" d="M3.848 7.311a1.236 1.236 0 1 0 1.236 1.236 1.236 1.236 0 0 0-1.236-1.236zm4.396 0A1.236 1.236 0 1 0 9.48 8.547a1.236 1.236 0 0 0-1.236-1.236zm4.395 0a1.236 1.236 0 1 0 1.236 1.236 1.236 1.236 0 0 0-1.236-1.236z" data-name="Layer 1" role="presentation"/></symbol>
<symbol id="info-simple" class="symbol"><title id="title">info-simple icon</title><path class="cls-1" d="M8 .1a7.912 7.912 0 1 0 7.91 7.914A7.92 7.92 0 0 0 8 .1zm0 13.7a5.782 5.782 0 1 1 5.78-5.781A5.787 5.787 0 0 1 8 13.8zm-1.065-2.023h2.13V7.516h-2.13zM8 4.085a1.148 1.148 0 1 0 1.148 1.148A1.148 1.148 0 0 0 8 4.085z" data-name="Layer 1" role="presentation"/></symbol>
<symbol id="instagram-outline" class="symbol"><title id="title">instagram-outline icon</title><g data-name="Layer 1"><path class="cls-1" d="M13 .006H3A2.992 2.992 0 0 0 .01 3v10A2.993 2.993 0 0 0 3 15.986h10A2.993 2.993 0 0 0 15.99 13V3A2.992 2.992 0 0 0 13 .006zM13.954 13a.954.954 0 0 1-.954.95H3a.954.954 0 0 1-.954-.95V7.621h1.78a4.221 4.221 0 0 0-.019.375 4.193 4.193 0 1 0 8.387 0c0-.127-.008-.251-.019-.375h1.779zM5.842 8A2.158 2.158 0 1 1 8 10.154 2.158 2.158 0 0 1 5.842 8zm8.112-2.411h-2.527a4.187 4.187 0 0 0-6.855 0H2.046V3A.954.954 0 0 1 3 2.043h10a.954.954 0 0 1 .954.957z" role="presentation"/><rect class="cls-1" x="11.247" y="2.816" width="1.968" height="1.968" rx=".62" ry=".62"/></g></symbol>
<symbol id="instagram" class="symbol"><title id="title">instagram icon</title><g data-name="Layer 1"><circle class="cls-1" cx="7.987" cy="8.195" r="2.107"/><path class="cls-1" d="M12.16 8.078v.039a4.254 4.254 0 0 1-8.508 0v-.039H.182v5.386A2.537 2.537 0 0 0 2.718 16h10.537a2.537 2.537 0 0 0 2.537-2.537V8.078zM13.255.39H2.718A2.537 2.537 0 0 0 .182 2.926v3.59h3.787a4.252 4.252 0 0 1 7.88 0h3.943v-3.59A2.537 2.537 0 0 0 13.255.39zm.891 3.092a.723.723 0 0 1-.723.723h-.506a.723.723 0 0 1-.723-.723v-.506a.723.723 0 0 1 .723-.723h.506a.723.723 0 0 1 .723.723z" role="presentation"/></g></symbol>
<symbol id="key" class="symbol"><title id="title">key icon</title><path class="cls-1" d="M15.494 11.129l-2.087-1.188L8.383 7.08a4.328 4.328 0 0 0-1.95-4.932A4.3 4.3 0 0 0 .584 3.893a4.384 4.384 0 0 0 1.547 5.955A4.249 4.249 0 0 0 7.4 8.907l.994.566-.708 1.268a1.03 1.03 0 0 0 .364 1.4 1.01 1.01 0 0 0 1.376-.411l.708-1.268 1.392.793-1.012 1.812a1.031 1.031 0 0 0 .364 1.4 1.011 1.011 0 0 0 1.376-.411l1.012-1.812 1.218.693a1.01 1.01 0 0 0 1.377-.411 1.03 1.03 0 0 0-.367-1.397zM3.143 8.036a2.321 2.321 0 0 1-.818-3.153 2.275 2.275 0 0 1 3.1-.924 2.321 2.321 0 0 1 .815 3.154 2.275 2.275 0 0 1-3.097.923z" data-name="Layer 1" role="presentation"/></symbol>
<symbol id="linkedin" class="symbol"><title id="title">linkedin icon</title><path class="cls-1" d="M.065 15.2h3.393V5.269H.065zM1.754.8A1.7 1.7 0 0 0 .021 2.466 1.7 1.7 0 0 0 1.754 4.13a1.7 1.7 0 0 0 1.734-1.664A1.7 1.7 0 0 0 1.754.8zm14.175 8c0-1.758-1.534-3.514-4.37-3.514-1.429 0-2.663.12-3.532 1.134V5.3H4.6v9.9H8V8.671a2.4 2.4 0 0 1 1.956-1.13c2.176-.085 2.566 1 2.566 2.427V15.2h3.408z" data-name="Layer 1" role="presentation"/></symbol>
<symbol id="list-options" class="symbol"><title id="title">list-options icon</title><path class="cls-1" d="M14.707 2.164H6.026a.805.805 0 0 0-.805.805v.851a.805.805 0 0 0 .805.805h8.681a.805.805 0 0 0 .805-.805v-.851a.805.805 0 0 0-.805-.805zm.757 6.587h.012a.771.771 0 0 0 .036-.179v-.018l-.07.145zm.026 3.673l-.012.031.034.066v-.041c0-.021-.01-.038-.012-.059zM6.463 8.751l.016-.04-.686-1.36.432-.432h-.2a.805.805 0 0 0-.805.805v.851a.793.793 0 0 0 .2.518zM2.679 1.945H1.293a.805.805 0 0 0-.805.805v1.281a.805.805 0 0 0 .805.805h1.386a.805.805 0 0 0 .805-.805V2.75a.805.805 0 0 0-.805-.805zm3.784 10.5l-1.121-.368a.783.783 0 0 0-.121.4v.851a.805.805 0 0 0 .805.805h.083l-.275-.275.65-1.359zm-3.784-.994H1.293a.805.805 0 0 0-.805.805v1.281a.805.805 0 0 0 .805.805h1.386a.805.805 0 0 0 .805-.805v-1.276a.805.805 0 0 0-.805-.805zm0-4.755H1.293a.805.805 0 0 0-.805.805v1.285a.805.805 0 0 0 .805.805h1.386a.805.805 0 0 0 .805-.805V7.505a.805.805 0 0 0-.805-.805zm7.67-1.013l-.4 1.229a4.458 4.458 0 0 0-.884.365L7.919 6.7l-.855.855.577 1.145a4.458 4.458 0 0 0-.365.884l-1.229.4v1.229l1.229.4a4.458 4.458 0 0 0 .365.884l-.547 1.143.855.855 1.143-.576a4.56 4.56 0 0 0 .893.365l.394 1.229h1.229l.4-1.229a4.541 4.541 0 0 0 .893-.365l1.133.547.864-.855-.586-1.143a4.56 4.56 0 0 0 .365-.893l1.2-.365V9.986l-1.229-.4a4.458 4.458 0 0 0-.365-.884l.547-1.143-.85-.859-1.143.576a4.541 4.541 0 0 0-.893-.365l-.365-1.229zm.615 2.766A2.151 2.151 0 1 1 8.813 10.6a2.138 2.138 0 0 1 2.151-2.151z" data-name="Layer 1" role="presentation"/></symbol>
<symbol id="list" class="symbol"><title id="title">list icon</title><g data-name="Layer 1"><rect class="cls-1" x=".473" y="1.945" width="2.997" height="2.891" rx=".805" ry=".805"/><rect class="cls-1" x="5.207" y="2.164" width="10.291" height="2.461" rx=".805" ry=".805"/><rect class="cls-1" x=".473" y="6.7" width="2.997" height="2.891" rx=".805" ry=".805"/><rect class="cls-1" x="5.207" y="6.919" width="10.291" height="2.461" rx=".805" ry=".805"/><rect class="cls-1" x=".473" y="11.455" width="2.997" height="2.891" rx=".805" ry=".805"/><rect class="cls-1" x="5.207" y="11.674" width="10.291" height="2.461" rx=".805" ry=".805"/></g></symbol>
<symbol id="location-outline" class="symbol"><title id="title">location-outline icon</title><path class="cls-1" d="M8.209.008C4.78.008 2 2.488 2 5.548c0 .066 0 .132.005.2a5.009 5.009 0 0 0 .355 1.664c1.041 3.053 4.057 6.837 5.3 8.318a.732.732 0 0 0 1.093 0c1.244-1.481 4.26-5.264 5.3-8.317a5 5 0 0 0 .355-1.664c0-.067.006-.134.006-.2.003-3.061-2.776-5.541-6.205-5.541zM12.6 5.965a3.735 3.735 0 0 1-.248 1.2l-.008.02-.007.021A26.459 26.459 0 0 1 8.209 14 26.463 26.463 0 0 1 4.08 7.21l-.007-.02-.008-.02a3.755 3.755 0 0 1-.248-1.213V5.82a4.233 4.233 0 0 1 4.4-4.039 4.566 4.566 0 0 1 3.119 1.193A3.854 3.854 0 0 1 12.6 5.82v.145zM8.209 4.553a1.34 1.34 0 0 0-1.4 1.267 1.34 1.34 0 0 0 1.4 1.267 1.34 1.34 0 0 0 1.4-1.267 1.34 1.34 0 0 0-1.4-1.267z" data-name="Layer 1" role="presentation"/></symbol>
<symbol id="location" class="symbol"><title id="title">location icon</title><path class="cls-1" d="M13.384 3.86a6.11 6.11 0 0 0-10.769 0 5.855 5.855 0 0 0 .439 6.182l3.207 4.45a2.152 2.152 0 0 0 3.478 0l3.207-4.45a5.854 5.854 0 0 0 .438-6.182zM11.5 9.034l-3.207 4.45a.36.36 0 0 1-.582 0L4.5 9.034a4.088 4.088 0 0 1-.31-4.373A4.226 4.226 0 0 1 8 2.382a4.227 4.227 0 0 1 3.809 2.279 4.088 4.088 0 0 1-.309 4.373zM8 5a1.8 1.8 0 1 0 1.829 1.8A1.814 1.814 0 0 0 8 5z" data-name="Layer 1" role="presentation"/></symbol>
<symbol id="merge-people" class="symbol"><title id="title">merge-people icon</title><g data-name="Layer 1"><circle class="cls-1" cx="13.202" cy="4.737" r="2.047"/><path class="cls-1" d="M13.177 7.762a2.589 2.589 0 0 0-2.589 2.589v1.669a.68.68 0 0 0 .721.671h3.736a.68.68 0 0 0 .721-.671v-1.669a2.589 2.589 0 0 0-2.589-2.589zM5.868 10.33a.568.568 0 0 0-.568.57v.648a.14.14 0 0 1-.14.14H1.491a.14.14 0 0 1-.14-.14V9.91a1.977 1.977 0 0 1 1.975-1.975 1.957 1.957 0 0 1 1.2.4.568.568 0 1 0 .688-.9 3.047 3.047 0 0 0-.242-.166A2.577 2.577 0 1 0 1.7 7.26 3.11 3.11 0 0 0 .216 9.91v1.635a1.235 1.235 0 0 0 1.275 1.226H5.16a1.235 1.235 0 0 0 1.276-1.226V10.9a.568.568 0 0 0-.568-.57zM3.34 3.83A1.443 1.443 0 1 1 1.9 5.273 1.444 1.444 0 0 1 3.34 3.83z" role="presentation"/><path class="cls-1" d="M8.743 7.442a.568.568 0 0 0-.8.8L8.3 8.6H6.329a.568.568 0 0 0 0 1.135H8.3l-.356.356a.568.568 0 1 0 .8.8l1.283-1.283a.626.626 0 0 0 0-.886z" role="presentation"/></g></symbol>
<symbol id="mix-gender" class="symbol"><title id="title">mix-gender icon</title><path class="cls-1" d="M15.824 3.153l-.551-.705a2.39 2.39 0 0 0-3.189-.548l-.3.192a2.848 2.848 0 0 0-3.955 2.627v1.209A2.05 2.05 0 0 0 8.6 7.536l.946.758c.016.013.033.021.05.033l-1.528.7a2.2 2.2 0 0 0-.783.608 2.2 2.2 0 0 0-.785-.608l-1.528-.7c.016-.012.034-.021.05-.033l.946-.757a2.051 2.051 0 0 0 .772-1.608v-1.21a2.847 2.847 0 1 0-5.695 0v1.209a2.05 2.05 0 0 0 .775 1.608l.946.758c.016.013.033.021.05.033l-1.528.7A2.213 2.213 0 0 0 0 11.034v2.484a.992.992 0 0 0 .991.991h12.591a.992.992 0 0 0 .991-.991v-2.484a2.212 2.212 0 0 0-1.288-2.007l-1.528-.7c.016-.012.034-.021.049-.033l.946-.758a2.052 2.052 0 0 0 .772-1.608V4.719c0-.079-.017-.154-.023-.231h1.672a.826.826 0 0 0 .651-1.334zm-5.146-.273a1.826 1.826 0 0 1 1.246.5l.426.589c.014.03.025.061.037.091l-.82-.632-2.651.794a1.835 1.835 0 0 1 1.762-1.342zM2.452 6.748a1.044 1.044 0 0 1-.394-.82V4.719a1.838 1.838 0 1 1 3.675 0v1.209a1.044 1.044 0 0 1-.394.82l-.946.758a.793.793 0 0 1-1 0zm-1.442 6.77v-2.484a1.2 1.2 0 0 1 .7-1.089l2.187-1 2.188 1a1.2 1.2 0 0 1 .7 1.089V13.5H2.949v.012zm12.554-2.484V13.5l-2.033.006V13.5h-3.74v-2.466a1.2 1.2 0 0 1 .7-1.089l2.188-1 2.187 1a1.2 1.2 0 0 1 .697 1.089zm-1.443-4.286l-.947.758a.791.791 0 0 1-1 0l-.945-.758a1.046 1.046 0 0 1-.394-.82V5.3l2.523-.756 1.154.889v.5a1.047 1.047 0 0 1-.391.815zm1.122-3.27l-.059-.078a2.858 2.858 0 0 0-.487-.682 1.385 1.385 0 0 1 1.782.355l.319.409z" data-name="Layer 1" role="presentation"/></symbol>
<symbol id="new-pencil" class="symbol"><title id="title">new-pencil icon</title><g data-name="Layer 1"><path class="cls-1" d="M1.028 11.474v3.498h3.499l6.595-6.595-3.498-3.499-6.596 6.596z" role="presentation"/><path class="cls-2" d="M8.781 3.76l2.714-2.712 3.498 3.498L12.28 7.26z" role="presentation"/></g></symbol>
<symbol id="new-window" class="symbol"><title id="title">new-window icon</title><g data-name="Layer 1"><path class="cls-1" d="M14.086 10.267v3.819H1.914V1.914H5.43V.291H1.669A1.379 1.379 0 0 0 .291 1.668v12.663a1.379 1.379 0 0 0 1.377 1.377h12.664a1.379 1.379 0 0 0 1.377-1.377v-4.064z" role="presentation"/><path class="cls-1" d="M8.576 8.625l5.456-5.5v3.53h1.623V1.23a.885.885 0 0 0-.885-.885H9.343v1.623h3.552L7.424 7.482z" role="presentation"/></g></symbol>
<symbol id="no-activity" class="symbol"><title id="title">no-activity icon</title><path class="cls-1" d="M8.233 13.808H8.2a.651.651 0 0 1-.6-.483L5.583 5.664 4.148 9.448a.649.649 0 0 1-.607.42h-1.7a.65.65 0 0 1 0-1.3h1.251l1.994-5.262a.65.65 0 0 1 1.236.064l2.01 7.613 1.793-4.936a.652.652 0 0 1 .58-.428.681.681 0 0 1 .618.37l1.228 2.576h1.786a.65.65 0 1 1 0 1.3h-2.2a.651.651 0 0 1-.587-.371l-.736-1.546-1.969 5.431a.651.651 0 0 1-.612.429z" data-name="Layer 1" role="presentation"/></symbol>
<symbol id="notebook-outline" class="symbol"><title id="title">notebook-outline icon</title><path class="cls-1" d="M13.937-.006H2.584a1.117 1.117 0 0 0-1.175 1.175V2.3H.787a.558.558 0 1 0 0 1.115h.622V5.7H.841a.558.558 0 1 0 0 1.116h.568v2.3H.828a.558.558 0 0 0 0 1.116h.581v2.286H.828a.558.558 0 0 0 0 1.116h.581V14.8a1.071 1.071 0 0 0 1.148 1.139h11.38a1.708 1.708 0 0 0 1.708-1.708V1.7a1.708 1.708 0 0 0-1.708-1.706zM2.548 14.8v-1.162h.593a.558.558 0 1 0 0-1.116h-.593v-2.285h.593a.558.558 0 1 0 0-1.116h-.593v-2.3h.606a.558.558 0 1 0 0-1.116h-.606V3.411H3.1a.558.558 0 1 0 0-1.111h-.552V1.169a.194.194 0 0 1 0-.034h9.109V14.8zm11.959-.57a.57.57 0 0 1-.569.57H12.8V1.133h1.139a.57.57 0 0 1 .569.569z" data-name="Layer 1" role="presentation"/></symbol>
<symbol id="pco-people" class="symbol"><title id="title">pco-people icon</title><g data-name="Layer 1"><path class="cls-1" d="M4.418 5.365H.713a.506.506 0 0 0-.493.509v3.705a.509.509 0 0 0 .509.509h3.705a.509.509 0 0 0 .509-.509V5.873a.512.512 0 0 0-.525-.508zM4.423 9.3a.225.225 0 0 1-.225.225H.965A.225.225 0 0 1 .74 9.3V6.109a.225.225 0 0 1 .225-.225h.589v.238a.159.159 0 0 0 .159.159h1.706a.159.159 0 0 0 .159-.159v-.238H4.2a.225.225 0 0 1 .225.225z" role="presentation"/><circle class="cls-2" cx="3.226" cy="7.525" r=".354"/><circle class="cls-2" cx="2.142" cy="7.361" r=".472"/><path class="cls-1" d="M3.429 8.023h-.407a.361.361 0 0 0-.11.017.052.052 0 0 0-.023.084.558.558 0 0 1 .13.359v.067a.074.074 0 0 0 .074.074h.645a.055.055 0 0 0 .055-.055v-.18a.365.365 0 0 0-.364-.366zm-.603.801H1.457a.074.074 0 0 1-.074-.074v-.239a.487.487 0 0 1 .487-.487h.543a.487.487 0 0 1 .487.487v.239a.074.074 0 0 1-.074.074z" role="presentation"/><path class="cls-2" d="M6.639 8.976h-.345v.619H5.84V7.533h.842a.706.706 0 0 1 .789.713v.006a.737.737 0 0 1-.832.724zm.374-.722c0-.2-.141-.312-.368-.312h-.351v.63h.359a.319.319 0 0 0 .359-.312zm2.104.707h-1.1a.366.366 0 0 0 .386.309.518.518 0 0 0 .383-.162l.256.227a.834.834 0 0 1-1.47-.521v-.006a.786.786 0 0 1 .781-.822.769.769 0 0 1 .769.857v.006a.81.81 0 0 1-.005.112zm-.763-.616a.352.352 0 0 0-.342.336h.675a.339.339 0 0 0-.332-.335zm1.765 1.285a.821.821 0 0 1-.851-.816v-.006a.855.855 0 0 1 1.708-.008v.006a.829.829 0 0 1-.857.824zm.415-.822a.419.419 0 0 0-.415-.436.4.4 0 0 0-.409.43v.006a.419.419 0 0 0 .415.436.4.4 0 0 0 .409-.43zm1.613.816a.606.606 0 0 1-.492-.236v.677h-.448V8.016h.448v.227a.58.58 0 0 1 .492-.256.743.743 0 0 1 .719.816v.006a.74.74 0 0 1-.719.815zm.271-.822a.387.387 0 1 0-.769 0v.006a.387.387 0 1 0 .769 0zm.705.793v-2.15h.448v2.15zm2.237-.634h-1.1a.366.366 0 0 0 .386.309.517.517 0 0 0 .383-.162l.256.227a.834.834 0 0 1-1.47-.521v-.006a.786.786 0 0 1 .78-.822.769.769 0 0 1 .769.857v.006c.002.045-.001.071-.004.112zm-.76-.615a.352.352 0 0 0-.342.336h.675a.339.339 0 0 0-.333-.336zM5.889 6.9a.014.014 0 0 1-.015-.015v-.97a.014.014 0 0 1 .015-.015h.139a.014.014 0 0 1 .015.015v.055a.22.22 0 0 1 .194-.086.245.245 0 0 1 .253.176.837.837 0 0 1 0 .412.245.245 0 0 1-.253.176.22.22 0 0 1-.194-.086v.327a.014.014 0 0 1-.015.015zm.441-.5a.621.621 0 0 0 0-.273.145.145 0 0 0-.271 0 .621.621 0 0 0 0 .273.145.145 0 0 0 .271 0zm.552.239c-.142 0-.2-.068-.2-.209v-.815A.014.014 0 0 1 6.7 5.6h.139a.014.014 0 0 1 .015.015v.806c0 .05.02.067.064.067h.033a.014.014 0 0 1 .015.015v.121a.014.014 0 0 1-.015.015zm.663-.009a.014.014 0 0 1-.015-.015v-.053a.238.238 0 0 1-.206.085.219.219 0 0 1-.245-.223c0-.159.112-.232.292-.232h.149a.008.008 0 0 0 .009-.009v-.035c0-.083-.039-.121-.162-.121a.256.256 0 0 0-.167.05.014.014 0 0 1-.021 0l-.056-.1a.014.014 0 0 1 0-.02.426.426 0 0 1 .259-.071c.223 0 .3.076.3.255v.477a.014.014 0 0 1-.015.015zm-.018-.245v-.056a.008.008 0 0 0-.009-.009H7.4c-.109 0-.158.03-.158.1s.044.091.126.091c.102-.002.159-.043.159-.126zm.823.245a.014.014 0 0 1-.015-.015v-.421c0-.094-.047-.159-.138-.159a.14.14 0 0 0-.139.159v.421a.014.014 0 0 1-.015.015H7.9a.014.014 0 0 1-.015-.015v-.7A.014.014 0 0 1 7.9 5.9h.139a.014.014 0 0 1 .015.015v.053a.226.226 0 0 1 .192-.085.249.249 0 0 1 .253.271v.461a.014.014 0 0 1-.015.015zm.815 0a.014.014 0 0 1-.015-.015v-.421c0-.094-.047-.159-.138-.159a.14.14 0 0 0-.139.159v.421a.014.014 0 0 1-.015.015h-.14a.014.014 0 0 1-.018-.015v-.7a.014.014 0 0 1 .018-.015h.139a.014.014 0 0 1 .015.015v.053a.226.226 0 0 1 .193-.085.249.249 0 0 1 .253.271v.461a.014.014 0 0 1-.018.015zm.369-.868a.014.014 0 0 1-.015-.015v-.132a.014.014 0 0 1 .015-.015h.139a.014.014 0 0 1 .015.015v.132a.014.014 0 0 1-.015.015zm0 .868a.014.014 0 0 1-.015-.015v-.7a.014.014 0 0 1 .015-.015h.139a.014.014 0 0 1 .015.015v.7a.014.014 0 0 1-.015.015zm.822 0a.014.014 0 0 1-.015-.015v-.421c0-.094-.047-.159-.138-.159a.14.14 0 0 0-.139.159v.421a.014.014 0 0 1-.015.015h-.14a.014.014 0 0 1-.015-.015v-.7a.014.014 0 0 1 .015-.015h.139a.014.014 0 0 1 .015.015v.053a.226.226 0 0 1 .192-.085.249.249 0 0 1 .253.271v.461a.014.014 0 0 1-.015.015zm.338.18a.014.014 0 0 1 0-.021l.089-.089a.014.014 0 0 1 .023 0 .224.224 0 0 0 .159.068c.112 0 .164-.061.164-.174v-.068a.211.211 0 0 1-.189.085.244.244 0 0 1-.249-.177.556.556 0 0 1-.024-.186.547.547 0 0 1 .024-.185.244.244 0 0 1 .249-.179.208.208 0 0 1 .189.086v-.055a.014.014 0 0 1 .015-.015h.139a.014.014 0 0 1 .015.015v.67a.306.306 0 0 1-.341.335.361.361 0 0 1-.263-.11zm.42-.444a.34.34 0 0 0 .017-.12.351.351 0 0 0-.017-.12.137.137 0 0 0-.259 0 .351.351 0 0 0-.017.12.34.34 0 0 0 .017.12.136.136 0 0 0 .259 0zm.558.079a.727.727 0 0 1 0-.361.294.294 0 0 1 .3-.2.318.318 0 0 1 .254.116.015.015 0 0 1 0 .021l-.1.083a.014.014 0 0 1-.021 0 .165.165 0 0 0-.135-.064.134.134 0 0 0-.136.1.429.429 0 0 0-.015.135.44.44 0 0 0 .015.136.134.134 0 0 0 .136.094.165.165 0 0 0 .135-.064.014.014 0 0 1 .021 0l.1.083c.008.006.006.014 0 .021a.322.322 0 0 1-.253.112.294.294 0 0 1-.301-.212zm.707-.001a.566.566 0 0 1-.026-.179.582.582 0 0 1 .024-.18.323.323 0 0 1 .6 0A.654.654 0 0 1 13 6.3a.015.015 0 0 1-.017.015h-.45a.008.008 0 0 0-.009.009.17.17 0 0 0 .176.176.22.22 0 0 0 .171-.07.015.015 0 0 1 .023 0l.089.079a.014.014 0 0 1 0 .021.385.385 0 0 1-.3.124.3.3 0 0 1-.304-.21zm.441-.323a.156.156 0 0 0-.286 0 .185.185 0 0 0-.009.062.008.008 0 0 0 .009.009h.286a.008.008 0 0 0 .009-.009.185.185 0 0 0-.009-.062zm.81.509a.014.014 0 0 1-.015-.015v-.421c0-.094-.047-.159-.138-.159a.14.14 0 0 0-.139.159v.421a.014.014 0 0 1-.015.015h-.139a.014.014 0 0 1-.015-.015v-.7a.014.014 0 0 1 .015-.015h.139a.014.014 0 0 1 .015.015v.053a.226.226 0 0 1 .192-.085.249.249 0 0 1 .253.271v.461a.014.014 0 0 1-.015.015zm.57.009c-.147 0-.2-.071-.2-.214v-.384a.008.008 0 0 0-.009-.009h-.048a.014.014 0 0 1-.015-.015v-.1a.014.014 0 0 1 .015-.015h.048A.008.008 0 0 0 14 5.893v-.2a.014.014 0 0 1 .015-.015h.139a.014.014 0 0 1 .015.015v.2a.008.008 0 0 0 .009.009h.1a.014.014 0 0 1 .015.015v.1a.014.014 0 0 1-.015.015h-.1a.008.008 0 0 0-.009.009v.379c0 .052.021.068.068.068h.038a.014.014 0 0 1 .015.015v.121a.014.014 0 0 1-.015.015zm.24-.195a.566.566 0 0 1-.026-.179.582.582 0 0 1 .024-.18.323.323 0 0 1 .6 0 .654.654 0 0 1 .024.22.015.015 0 0 1-.017.015h-.45a.008.008 0 0 0-.009.009.17.17 0 0 0 .174.167.22.22 0 0 0 .171-.07.015.015 0 0 1 .023 0l.089.079a.014.014 0 0 1 0 .021.385.385 0 0 1-.3.124.3.3 0 0 1-.303-.206zm.441-.323a.156.156 0 0 0-.286 0 .185.185 0 0 0-.009.062.008.008 0 0 0 .009.009h.286a.008.008 0 0 0 .009-.009.185.185 0 0 0-.009-.062zm.363.509a.014.014 0 0 1-.015-.015v-.7a.014.014 0 0 1 .015-.015h.139a.014.014 0 0 1 .015.015v.062a.209.209 0 0 1 .189-.094.221.221 0 0 1 .153.061c.008.008.009.014 0 .021l-.08.1a.014.014 0 0 1-.021 0 .2.2 0 0 0-.108-.035c-.1 0-.138.068-.138.185v.4a.014.014 0 0 1-.015.015z" role="presentation"/></g></symbol>
<symbol id="pencil" class="symbol"><title id="title">pencil icon</title><path class="cls-1" d="M14.909 2.787L13.17 1.048a1.662 1.662 0 0 0-2.348 0l-9.14 9.14-1.027 3.973A.937.937 0 0 0 1.8 15.3l3.973-1.027 9.14-9.14a1.662 1.662 0 0 0-.004-2.346zM3.026 11.145l1.786 1.786-2.412.622zm10.793-7.1L5.962 11.9 4.055 9.994l7.856-7.856a.12.12 0 0 1 .169 0l1.739 1.739a.119.119 0 0 1 0 .168z" data-name="Layer 1" role="presentation"/></symbol>
<symbol id="person-arrow" class="symbol"><title id="title-person-arrow">person-arrow icon</title><path d="M5.9 7.9c-2.1 0-3.8-1.7-3.8-3.8S3.8.3 5.9.3C8 .3 9.7 2 9.7 4.1S7.9 7.9 5.9 7.9zm0-6.3c-1.4 0-2.5 1.1-2.5 2.5s1.1 2.5 2.5 2.5 2.5-1.1 2.5-2.5-1.2-2.5-2.5-2.5z" role="presentation"/><path d="M7.7 15.7H2.1c-1.1 0-2-.9-2-2v-3.1c0-1 .6-1.9 1.5-2.2l4.2-1.6 4.3 1.6c.3.1.5.5.4.8-.1.3-.5.5-.8.4L5.9 8.1 2.1 9.5c-.4.2-.7.6-.7 1.1v3.1c0 .4.3.7.7.7h5.6c.4 0 .6.3.6.6s-.2.7-.6.7z" role="presentation"/><path d="M8.9 11.9H14l-1.7-1.6c-.3-.3-.3-.6 0-.8.1-.1.3-.2.4-.2.1 0 .3.1.4.2l2.6 2.4c.3.3.3.7 0 1l-2.6 2.4c-.2.2-.6.2-.8 0-.2-.2-.2-.5 0-.8L14 13H8.9c-.3 0-.6-.2-.6-.5 0-.4.3-.6.6-.6z" role="presentation"/></symbol>
<symbol id="person-outline" class="symbol"><title id="title">person-outline icon</title><path class="cls-1" d="M12.839 8.293l-3.024-1.25a3.728 3.728 0 1 0-3.417 0L3.375 8.292a2.415 2.415 0 0 0-1.495 2.24v3.046A2.421 2.421 0 0 0 4.3 16h7.624a2.421 2.421 0 0 0 2.415-2.422v-3.046a2.413 2.413 0 0 0-1.5-2.239zM5.658 3.739A2.449 2.449 0 1 1 8.107 6.2a2.456 2.456 0 0 1-2.449-2.461zm7.4 9.839a1.139 1.139 0 0 1-1.136 1.139H4.3a1.139 1.139 0 0 1-1.136-1.139v-3.046a1.137 1.137 0 0 1 .7-1.054l4.243-1.753 4.245 1.754a1.135 1.135 0 0 1 .7 1.053z" data-name="Layer 1" role="presentation"/></symbol>
<symbol id="person-pencil" class="symbol"><title id="title">person-pencil icon</title><path class="cls-1" d="M3.263 8.4l3.816-1.551 2.7 1.1a.576.576 0 0 0 .75-.309.566.566 0 0 0-.312-.742l-1.6-.651a3.3 3.3 0 0 0 1.816-2.93 3.352 3.352 0 0 0-6.7 0 3.3 3.3 0 0 0 1.815 2.93L2.825 7.353a2.14 2.14 0 0 0-1.344 1.985v2.7a2.162 2.162 0 0 0 2.171 2.148h2.372a.569.569 0 1 0 0-1.137H3.652a1.017 1.017 0 0 1-1.022-1.01v-2.7a1.007 1.007 0 0 1 .633-.939zm1.614-5.085a2.2 2.2 0 1 1 2.2 2.178 2.192 2.192 0 0 1-2.2-2.178zm9.739 4.563l-1.025-.707a1.152 1.152 0 0 0-.858-.187 1.138 1.138 0 0 0-.74.468L7.9 13.253l.017 2.077a.675.675 0 0 0 .291.549.69.69 0 0 0 .62.082l1.979-.7L14.9 9.46a1.129 1.129 0 0 0-.284-1.581zm-4.542 6.433l-1.012.358-.009-1.064 3.881-5.5 1.024.7z" data-name="Layer 1" role="presentation"/></symbol>
<symbol id="phone-outline" class="symbol"><title id="title">phone-outline icon</title><path class="cls-1" d="M12.916.015H3.745a.99.99 0 0 0-.986.993v13.909a.99.99 0 0 0 .986.994h9.171a.99.99 0 0 0 .986-.994V1.008a.99.99 0 0 0-.986-.993zm-.754 13.909a.228.228 0 0 1-.232.223h-7.2a.228.228 0 0 1-.232-.223V2a.228.228 0 0 1 .232-.223h7.2a.228.228 0 0 1 .232.223zm-3.73-2.813A1.025 1.025 0 1 0 9.5 12.135a1.045 1.045 0 0 0-1.068-1.024z" data-name="Layer 1" role="presentation"/></symbol>
<symbol id="phone" class="symbol"><title id="title">phone icon</title><path class="cls-1" d="M2.541 6.033a26.787 26.787 0 0 0 7.089 8.615l1.081.86a1.756 1.756 0 0 0 2.216-.023l1.892-1.57.308-.255a1.305 1.305 0 0 0 .173-1.832l-1.452-1.764a1.292 1.292 0 0 0-1.825-.174l-1.83 1.519a26.79 26.79 0 0 1-4.378-5.32l1.83-1.519a1.305 1.305 0 0 0 .173-1.832L6.367.972A1.292 1.292 0 0 0 4.543.8l-.307.255-1.893 1.568A1.774 1.774 0 0 0 1.9 4.8z" data-name="Layer 1" role="presentation"/></symbol>
<symbol id="photo-outline" class="symbol"><title id="title">photo-outline icon</title><path class="cls-1" d="M14.61.063H1.478A1.4 1.4 0 0 0 .115 1.487V14.5a1.4 1.4 0 0 0 1.363 1.42H14.61a1.4 1.4 0 0 0 1.362-1.42V1.487A1.4 1.4 0 0 0 14.61.063zm.371 14.437a.406.406 0 0 1-.372.433H1.478a.406.406 0 0 1-.372-.433V1.487a.407.407 0 0 1 .372-.434H14.61a.407.407 0 0 1 .372.434zM6.061 4.027a1.982 1.982 0 1 0 1.983 1.982 1.984 1.984 0 0 0-1.983-1.982zm0 2.973a.991.991 0 1 1 .991-.991.992.992 0 0 1-.991.991zm7.433-4.955H2.593a.5.5 0 0 0-.5.5v9.911a.5.5 0 0 0 .5.5h10.9a.5.5 0 0 0 .5-.5V2.54a.5.5 0 0 0-.498-.495zm-9.91 9.911a.484.484 0 0 1-.228-.063l1.93-1.93a.5.5 0 0 1 .7 0l1.994 1.993zM13 11.46a.5.5 0 0 1-.5.5H9.381l-1.7-1.7 2.62-2.619a.5.5 0 0 1 .7 0L13 9.633zm0-3.228L11.707 6.94a1.489 1.489 0 0 0-2.1 0L6.985 9.559l-.3-.3a1.489 1.489 0 0 0-2.1 0l-1.5 1.5V3.531a.5.5 0 0 1 .5-.5H12.5a.5.5 0 0 1 .5.5z" data-name="Layer 1" role="presentation"/></symbol>
<symbol id="photo-upload" class="symbol"><title id="title">photo-upload icon</title><path class="cls-1" d="M12.03 12.311H2v-7h6V3.305H.9a.892.892 0 0 0-.9.976v9.181a.843.843 0 0 0 .9.842h12.081a.925.925 0 0 0 .975-.842V9.327H12.03zm-9.219-.994L11 11.278l-.006-2.235-1.119-1.692L8.07 9.722 6.393 8.151zM5.43 7.2a.923.923 0 1 0-.924.923.924.924 0 0 0 .924-.923zm7.608-5.987l-2.973 4.1h1.918v2H14v-2h2z" data-name="Layer 1" role="presentation"/></symbol>
<symbol id="pulse-simple" class="symbol"><title id="title">pulse-simple icon</title><path class="cls-1" d="M9.3 14.473h-.043a1.058 1.058 0 0 1-1.01-.848L6.215 4.107l-1.358 4a1.2 1.2 0 0 1-1.138.816H.733a.733.733 0 1 1 0-1.466h2.8l1.752-5.172A1.073 1.073 0 0 1 7.35 2.4l2 9.387L10.4 8.2a1.208 1.208 0 0 1 1.154-.866h3.716a.733.733 0 0 1 0 1.466h-3.52l-1.424 4.9a1.058 1.058 0 0 1-1.026.773z" data-name="Layer 1" role="presentation"/></symbol>
<symbol id="r-arr-thin" class="symbol"><title id="title">r-arr-thin icon</title><path class="cls-1" d="M1.625 6.736h9.553L6.967 2.8a1.236 1.236 0 0 1 0-1.828 1.446 1.446 0 0 1 1.951 0L15.149 6.8a1.663 1.663 0 0 1 0 2.456l-6.178 5.785a1.447 1.447 0 0 1-1.951 0 1.236 1.236 0 0 1 0-1.828l4.159-3.891H1.625A1.338 1.338 0 0 1 .246 8.03a1.338 1.338 0 0 1 1.379-1.294z" data-name="Layer 1" role="presentation"/></symbol>
<symbol id="received-email" class="symbol"><title id="title">received-email icon</title><path class="cls-1" d="M8.887 4.713H1.112A1.134 1.134 0 0 0 0 5.866v4.689a1.134 1.134 0 0 0 1.112 1.153h7.775A1.134 1.134 0 0 0 10 10.555V5.866a1.134 1.134 0 0 0-1.113-1.153zM1.112 5.7h7.775a.162.162 0 0 1 .153.119l-4.022 2.49h-.012L.962 5.8a.163.163 0 0 1 .15-.1zM.95 9.839v-2.9l2.067 1.284zm.445.885L3.9 8.769l.621.385a.931.931 0 0 0 .988 0l.621-.385 2.5 1.955zm7.656-.9l-2.043-1.6L9.05 6.957zm6.457-3.877h-4.074a.5.5 0 0 0 0 1h4.073a.5.5 0 0 0 0-1zm-1.255 1.764h-2.819a.5.5 0 0 0 0 1h2.819a.5.5 0 0 0 0-1zM12.844 9.48h-1.41a.5.5 0 0 0 0 1h1.409a.5.5 0 0 0 0-1z" data-name="Layer 1" role="presentation"/></symbol>
<symbol id="refresh" class="symbol"><title id="title">refresh icon</title><g data-name="Layer 1"><path class="cls-1" d="M12.585 3.876l-1.438 1.439a4.317 4.317 0 0 0-7.37 3.053h1.677l-2.679 2.679L.1 8.369h1.642a6.352 6.352 0 0 1 10.843-4.493zm3.43 4.271l-2.676-2.678-2.678 2.678h1.677a4.317 4.317 0 0 1-7.37 3.053l-1.439 1.44a6.352 6.352 0 0 0 10.844-4.493h1.642z" data-name="Your Icon" role="presentation"/></g></symbol>
<symbol id="report" class="symbol"><title id="title">report icon</title><g data-name="Layer 1"><path class="cls-1" d="M14.56.038H1.431A1.421 1.421 0 0 0 .019 1.46v13.153a1.411 1.411 0 0 0 1.412 1.412h13.13a1.411 1.411 0 0 0 1.411-1.412V1.449A1.411 1.411 0 0 0 14.56.038zm-.18 14.106a.155.155 0 0 1-.144.156H1.757a.145.145 0 0 1-.145-.145V1.918a.156.156 0 0 1 .145-.156h12.477a.146.146 0 0 1 .145.146z" role="presentation"/><path class="cls-1" d="M2.759 11.149h2.235v2.048H2.759zm2.746-2.557H7.74v4.604H5.505zm2.746-4.603h2.235v9.208H8.251zm2.747 2.893h2.235v6.314h-2.235z" role="presentation"/></g></symbol>
<symbol id="sent-email" class="symbol"><title id="title">sent-email icon</title><path class="cls-1" d="M6.1 5.866v4.689a1.134 1.134 0 0 0 1.112 1.153h7.775a1.134 1.134 0 0 0 1.113-1.153V5.866a1.134 1.134 0 0 0-1.112-1.153H7.216A1.134 1.134 0 0 0 6.1 5.866zm9.041-.066L11.1 8.309h-.013L7.063 5.816a.162.162 0 0 1 .153-.116h7.775a.163.163 0 0 1 .15.1zm-2.055 2.423l2.068-1.282v2.9zm-5.613 2.5l2.5-1.955.621.385a.931.931 0 0 0 .988 0l.621-.385 2.5 1.955zm-.42-3.767L9.1 8.223l-2.043 1.6zM.1 6.442a.5.5 0 0 0 .493.5h4.076a.5.5 0 0 0 0-1H.6a.5.5 0 0 0-.5.5zm1.257 1.769a.5.5 0 0 0 .493.5h2.819a.5.5 0 0 0 0-1H1.85a.5.5 0 0 0-.493.5zM2.766 9.98a.5.5 0 0 0 .493.5h1.41a.5.5 0 0 0 0-1h-1.41a.5.5 0 0 0-.493.5z" data-name="Layer 1" role="presentation"/></symbol>
<symbol id="simple-people" class="symbol"><title id="title">simple-people icon</title><g data-name="Layer 1"><circle class="cls-1" cx="12.282" cy="5.783" r="2.295"/><circle class="cls-1" cx="4.949" cy="4.666" r="3.06"/><path class="cls-2" d="M13.6 9.01h-2.64a2.345 2.345 0 0 0-.712.11.338.338 0 0 0-.148.542 3.623 3.623 0 0 1 .844 2.327v.433a.48.48 0 0 0 .48.48h4.187a.359.359 0 0 0 .359-.359v-1.166A2.367 2.367 0 0 0 13.6 9.01zm-4.21 5.151H.509a.479.479 0 0 1-.479-.479v-1.554a3.157 3.157 0 0 1 3.156-3.157h3.527a3.157 3.157 0 0 1 3.157 3.157v1.553a.479.479 0 0 1-.48.48z" role="presentation"/></g></symbol>
<symbol id="skip-step" class="symbol"><title id="title">skip-step icon</title><g data-name="Layer 1"><path class="cls-1" d="M10.022 13.912l-2.011-2.011 3.966-3.967-3.966-3.967 2.011-2.011L16 7.934l-5.978 5.978z" role="presentation"/><path class="cls-1" d="M2.357 13.912L.346 11.901l3.967-3.967L.346 3.967l2.011-2.011 5.979 5.978-5.979 5.978z" role="presentation"/></g></symbol>
<symbol id="sms" class="symbol"><title id="title">sms icon</title><g data-name="Layer 1"><path class="cls-1" d="M11.3.528H4.66A4.636 4.636 0 0 0 .03 5.159v3.356a4.581 4.581 0 0 0 1.3 3.192l-.222 3.988 4.542-2.548h5.65a4.636 4.636 0 0 0 4.63-4.632V5.159A4.636 4.636 0 0 0 11.3.528zM5.219 11.546L2.784 13.1l.209-2.057-.221-.179a3.018 3.018 0 0 1-1.146-2.349V5.159A3.037 3.037 0 0 1 4.66 2.125h6.64a3.037 3.037 0 0 1 3.034 3.034v3.356a3.037 3.037 0 0 1-3.034 3.034z" role="presentation"/><circle class="cls-1" cx="8.103" cy="6.837" r="1.298"/><circle class="cls-1" cx="4.579" cy="6.837" r="1.298"/><circle class="cls-1" cx="11.628" cy="6.837" r="1.298"/></g></symbol>
<symbol id="star-closed" class="symbol"><title id="title">star-closed icon</title><path class="cls-1" d="M15.224 6.318a.623.623 0 0 0-.5-.425l-4.256-.618-1.9-3.856a.65.65 0 0 0-1.121 0l-1.9 3.856-4.256.618a.624.624 0 0 0-.356 1.066l3.08 3-.728 4.241a.625.625 0 0 0 .907.658l3.806-2 3.806 2a.617.617 0 0 0 .291.072.625.625 0 0 0 .616-.73l-.727-4.24 3.08-3a.624.624 0 0 0 .158-.642z" data-name="Layer 1" role="presentation"/></symbol>
<symbol id="star-open" class="symbol"><title id="title">star-open icon</title><path class="cls-1" d="M12.1 14.93a.617.617 0 0 1-.291-.072L8 12.857l-3.806 2a.625.625 0 0 1-.907-.658l.727-4.239-3.08-3a.624.624 0 0 1 .346-1.065l4.256-.618 1.9-3.856a.65.65 0 0 1 1.121 0l1.9 3.856 4.256.618a.624.624 0 0 1 .346 1.065l-3.08 3 .728 4.239a.625.625 0 0 1-.616.73zM8 11.526a.626.626 0 0 1 .291.072l2.976 1.564-.567-3.314a.625.625 0 0 1 .18-.553l2.408-2.348-3.33-.483a.625.625 0 0 1-.471-.342L8 3.107 6.512 6.123a.625.625 0 0 1-.471.342l-3.328.483L5.122 9.3a.625.625 0 0 1 .18.553l-.569 3.314L7.709 11.6A.626.626 0 0 1 8 11.526z" data-name="Layer 1" role="presentation"/></symbol>
<symbol id="step-back" class="symbol"><title id="title">step-back icon</title><path class="cls-1" d="M13.05 6.984H6.84l1.847-1.847L7.25 3.7 2.95 8l4.3 4.3 1.437-1.437L6.84 9.016h6.21V6.984z" data-name="Layer 1" role="presentation"/></symbol>
<symbol id="success-uploading" class="symbol"><title id="title">success-uploading icon</title><g data-name="Layer 1"><path class="cls-1" d="M14 5.342h-3.4a1.083 1.083 0 0 1-1.09-1.073V.87a.848.848 0 0 1 .85-.844.838.838 0 0 1 .6.248L14.591 3.9A.842.842 0 0 1 14 5.342zM10.873 3.98h1.867l-1.867-1.865z" role="presentation"/><path class="cls-1" d="M13.775 15.981H2.625a1.066 1.066 0 0 1-1.065-1.065V1.084A1.066 1.066 0 0 1 2.625.019H10.3v1.363H2.923v13.236h10.554V4.535h1.363v10.381a1.066 1.066 0 0 1-1.065 1.065z" role="presentation"/><path class="cls-1" d="M7.921 10.24a.931.931 0 0 1-.66-.272l-1.019-1.02a.681.681 0 1 1 .964-.963l.716.716 1.651-1.652a.681.681 0 0 1 .964.963L8.582 9.967a.932.932 0 0 1-.661.273z" role="presentation"/></g></symbol>
<symbol id="twitter-outline" class="symbol"><title id="title">twitter-outline icon</title><path class="cls-1" d="M15.595 3.012a1.219 1.219 0 0 0-1.812-1.235 4.386 4.386 0 0 1-.851.378 4.066 4.066 0 0 0-2.33-.739A3.991 3.991 0 0 0 6.69 4.555a6.746 6.746 0 0 1-3.584-2.207 1.192 1.192 0 0 0-1.025-.433 1.219 1.219 0 0 0-.947.589 3.882 3.882 0 0 0-.357 3.207 1.273 1.273 0 0 0-.217.733 3.886 3.886 0 0 0 .98 2.578 1.253 1.253 0 0 0 .055.506 3.9 3.9 0 0 0 .808 1.4 4.646 4.646 0 0 1-1.029 0 1.222 1.222 0 0 0-1.288.811 1.241 1.241 0 0 0 .508 1.453 9.22 9.22 0 0 0 4.895 1.4A8.959 8.959 0 0 0 14.6 5.91a6.726 6.726 0 0 0 1.135-1.257 1.215 1.215 0 0 0 .248-.742 1.234 1.234 0 0 0-.388-.899zm-2.216 2.3c.005.116.008.233.008.349a7.739 7.739 0 0 1-7.9 7.7 8.008 8.008 0 0 1-4.253-1.221 5.529 5.529 0 0 0 .662.038 5.661 5.661 0 0 0 3.448-1.158 2.767 2.767 0 0 1-2.593-1.877A2.846 2.846 0 0 0 4 9.1a2.724 2.724 0 0 1-2.223-2.655V6.41a2.822 2.822 0 0 0 1.258.339A2.686 2.686 0 0 1 1.8 4.5a2.634 2.634 0 0 1 .376-1.359A7.958 7.958 0 0 0 7.9 5.964a2.642 2.642 0 0 1-.072-.616 2.741 2.741 0 0 1 2.776-2.7 2.805 2.805 0 0 1 2.026.855 5.667 5.667 0 0 0 1.762-.656 2.727 2.727 0 0 1-1.22 1.5 5.672 5.672 0 0 0 1.594-.427 5.585 5.585 0 0 1-1.388 1.391z" data-name="Layer 1" role="presentation"/></symbol>
<symbol id="twitter" class="symbol"><title id="title">twitter icon</title><path class="cls-1" d="M.118 10.165s3.133 2.619 5.624.023a1.334 1.334 0 0 1-.684-.2 1.144 1.144 0 0 1-.34-.559s.775-.417.484-.731c0 0-1.714-.033-1.81-1.028L4.4 7.047a1 1 0 0 1-.787 0s-1.016-.7-.822-1.418l.849-.083s-1.475-1.01-1.063-1.783c0 0 .142-.665 5.014 2.445 0 0 .859-2.939 2.445-3.585 0 0 .264.122.264.251 0 0 .225-.465.522-.508 0 0 .359.3.126.476 0 0 .6-.4.9-.2 0 0-.024.353-.892.793 0 0 2.252.12 3.038 3.007a2.4 2.4 0 0 0 1.893-.229s.076.427-1.347 1.03c0 0 .133.205 1.326.049 0 0-.009.853-1.9.847 0 0-1.594 4.44-5.468 5.051-4.709.746-8.017-1.517-8.38-3.025z" data-name="Layer 1" role="presentation"/></symbol>
<symbol id="workflows" class="symbol"><title id="title">workflows icon</title><g data-name="Layer 1"><rect class="cls-1" x="7.505" y="3.947" width="8.406" height="2.01" rx=".658" ry=".658"/><rect class="cls-1" x="7.505" y="10.534" width="8.406" height="2.01" rx=".658" ry=".658"/><path class="cls-1" d="M1.93 6.927L.172 5.3a.474.474 0 0 1-.026-.67L.7 4.037a.474.474 0 0 1 .67-.026l.986.912 2.271-2.317A.474.474 0 0 1 5.3 2.6l.578.568a.474.474 0 0 1 .006.671L2.87 6.9a.675.675 0 0 1-.94.027zm0 6.46L.172 11.762a.474.474 0 0 1-.026-.67L.7 10.5a.474.474 0 0 1 .67-.026l.986.912 2.271-2.321a.474.474 0 0 1 .673-.006l.578.568a.474.474 0 0 1 .006.671L2.87 13.364a.675.675 0 0 1-.94.023z" role="presentation"/></g></symbol>
    </svg>