<svg xmlns="http://www.w3.org/2000/svg" xmlns:xlink="http://www.w3.org/1999/xlink">
    
<symbol id="activity-envelope-outline" class="symbol" viewBox="0 0 16 16">
  <title>activity-envelope-outline</title><g id="Layer_1" data-name="Layer 1"> <path d="M14.161,2.894H1.849A1.764,1.764,0,0,0,.087,4.656v7.166a1.763,1.763,0,0,0,1.762,1.762H14.161a1.763,1.763,0,0,0,1.762-1.762V4.656A1.764,1.764,0,0,0,14.161,2.894Zm-9.3,5.364L1.591,10.727V6.3Zm1.394.834.984.589a1.53,1.53,0,0,0,1.564,0l.983-.589,3.964,2.988H2.3Zm4.925-.834,3.235-1.936V10.7ZM1.849,4.4H14.161a.247.247,0,0,1,.229.189L8.014,8.39,1.627,4.568A.243.243,0,0,1,1.849,4.4Z" fill="#010101"/> </g>
</symbol>

<symbol id="activity-regis" class="symbol" viewBox="0 0 16 16">
  <title>activity-regis</title><g id="Layer_1" data-name="Layer 1"> <g> <path d="M11.791,14.044l-.48-.412-1.265-1.266a.607.607,0,0,1,.858-.858l.853.854L14.015,10.1a.607.607,0,0,1,.858.858Z" fill="#010101"/> <path d="M7.143,7.889a3.612,3.612,0,1,1,3.612-3.612A3.617,3.617,0,0,1,7.143,7.889Zm0-6.01a2.4,2.4,0,1,0,2.4,2.4A2.4,2.4,0,0,0,7.143,1.879Z" fill="#010101"/> <path d="M8.916,15.23H3.605a1.9,1.9,0,0,1-1.9-1.9V10.4A2.292,2.292,0,0,1,3.173,8.267L7.143,6.76l4.1,1.555a.607.607,0,0,1-.431,1.134L7.143,8.058,3.6,9.4a1.075,1.075,0,0,0-.689,1v2.928a.691.691,0,0,0,.69.689H8.916a.607.607,0,0,1,0,1.214Z" fill="#010101"/> </g> </g>
</symbol>

<symbol id="add-household" class="symbol" viewBox="0 0 16 16">
  <title>add-household</title><g id="Layer_1" data-name="Layer 1"> <g> <path d="M15.4,7.79,9.082.61a1.577,1.577,0,0,0-2.367,0L.4,7.79A1.508,1.508,0,0,0,.143,9.451a1.532,1.532,0,0,0,1.437.9h.574v3.925A1.587,1.587,0,0,0,3.693,15.9h8.423A1.621,1.621,0,0,0,13.7,14.273V10.348h.523a1.532,1.532,0,0,0,1.436-.9A1.508,1.508,0,0,0,15.4,7.79ZM7.917,1.637,14.243,8.8c0,.007-.007,0-.025,0H12.141v5.479c0,.013-.012.07-.025.07H3.693c-.013,0,.015-.057.015-.07V8.855H1.587c-.007,0-.024-.021-.015-.038L7.886,1.637" fill="#010101"/> <path d="M9.674,8.285H8.633V7.222a.76.76,0,0,0-.756-.777h-.01a.787.787,0,0,0-.788.777V8.285H6.123a.75.75,0,0,0-.777.744v.017a.791.791,0,0,0,.777.793h.956v.933a.8.8,0,0,0,.8.777h-.01a.768.768,0,0,0,.766-.777V9.839H9.674a.806.806,0,0,0,.777-.81v.017A.764.764,0,0,0,9.674,8.285Z" fill="#010101"/> </g> </g>
</symbol>

<symbol id="advance" class="symbol" viewBox="0 0 16 16">
  <title>advance</title><g id="Layer_1" data-name="Layer 1"> <path d="M3.8,14.311a3.381,3.381,0,1,1,3.381-3.38A3.385,3.385,0,0,1,3.8,14.311Zm0-5.761a2.381,2.381,0,1,0,2.381,2.381A2.385,2.385,0,0,0,3.8,8.55Z" fill="#231f20"/> <path d="M12.268,14.311a3.381,3.381,0,1,1,3.381-3.38A3.385,3.385,0,0,1,12.268,14.311Z" fill="#231f20"/> <path d="M13.462,2.045a.79.79,0,0,0-.537-.309.694.694,0,0,0-.753.611l-.162,1.37A5.035,5.035,0,0,0,8.146,1.574c-2.883.015-4.9,3.238-4.985,3.375a.75.75,0,0,0,1.278.787c.016-.027,1.688-2.652,3.716-2.662h.012a3.576,3.576,0,0,1,2.627,1.513L9.423,4.332a.691.691,0,0,0-.752.612.771.771,0,0,0,.613.835l2.963.553.081.012a.845.845,0,0,0,.918-.746l.359-3.016A.755.755,0,0,0,13.462,2.045Z" fill="#231f20"/> </g>
</symbol>

<symbol id="app-check" class="symbol" viewBox="0 0 16 16">
  <title>app-check</title><g id="Layer_1" data-name="Layer 1"> <path d="M5.992,13.5a1.617,1.617,0,0,1-1.137-.465L.971,9.188a1.579,1.579,0,0,1,0-2.25,1.619,1.619,0,0,1,2.273,0l2.748,2.72,6.764-6.7a1.619,1.619,0,0,1,2.273,0,1.58,1.58,0,0,1,0,2.251l-7.9,7.82A1.615,1.615,0,0,1,5.992,13.5Z" fill="#231f20"/> </g>
</symbol>

<symbol id="app-list" class="symbol" viewBox="0 0 16 16">
  <title>app-list</title><g id="Layer_1" data-name="Layer 1"> <g> <g> <rect x="0.42" y="1.696" width="2.811" height="2.811" rx="0.43" ry="0.43" fill="#010101"/> <path d="M14.688,3.906H5.41a.844.844,0,0,1,0-1.687h9.278a.844.844,0,0,1,0,1.687Z" fill="#010101"/> </g> <g> <rect x="0.42" y="6.754" width="2.811" height="2.811" rx="0.43" ry="0.43" fill="#010101"/> <path d="M14.688,9H5.41a.844.844,0,0,1,0-1.687h9.278a.844.844,0,0,1,0,1.687Z" fill="#010101"/> </g> <g> <rect x="0.42" y="11.811" width="2.811" height="2.811" rx="0.43" ry="0.43" fill="#010101"/> <path d="M14.688,14.06H5.41a.843.843,0,0,1,0-1.686h9.278a.843.843,0,0,1,0,1.686Z" fill="#010101"/> </g> </g> </g>
</symbol>

<symbol id="apple" class="symbol" viewBox="0 0 16 16">
  <title>apple</title><g id="Layer_1" data-name="Layer 1"> <path d="M7.465,4.633a20.216,20.216,0,0,0-.578-3.086c-.2-.262-.512-.356-.512-.725a.59.59,0,0,1,1.13,0,14.718,14.718,0,0,1,.3,3.171S8.052,1.45,9.454.6A5.992,5.992,0,0,1,13.14.263s-.72,2.3-2.594,2.767A5.568,5.568,0,0,0,7.868,4.39l.024.254c1.349-.054,1.848-.98,3.82-.137a3.955,3.955,0,0,1,2.476,3.95c0,2.1-1.85,6.5-4.812,7.341-.395.113-1.109-.24-1.607-.24s-1.163.457-1.706.24C3.346,14.715,1.35,10.438,1.35,8.457A4.468,4.468,0,0,1,3.824,4.4C5.41,3.751,6.192,4.52,7.465,4.633Z" fill="#231f20"/> </g>
</symbol>

<symbol id="background-checks" class="symbol" viewBox="0 0 16 16">
  <title>background-checks</title><g id="Layer_1" data-name="Layer 1"><path d="M15.287,2.508,8.518.291a1.537,1.537,0,0,0-.957,0L.793,2.508a.533.533,0,0,0-.367.507V7.743a5.4,5.4,0,0,0,2.128,4.3l4.555,3.47a1.537,1.537,0,0,0,1.863,0l4.555-3.47a5.4,5.4,0,0,0,2.128-4.3V3.015A.533.533,0,0,0,15.287,2.508ZM11.58,7.138,8.364,10.072a1.011,1.011,0,0,1-1.325.032L5.4,8.752A1.011,1.011,0,1,1,6.691,7.194l.959.793,2.568-2.342A1.011,1.011,0,0,1,11.58,7.138Z"/></g>
</symbol>

<symbol id="bars" class="symbol" viewBox="0 0 16 16">
  <title>bars</title><g id="Layer_1" data-name="Layer 1"> <path d="M1.334.5A.833.833,0,0,0,.5,1.333V14.667a.834.834,0,0,0,1.667,0V1.333A.834.834,0,0,0,1.334.5ZM5.778,3.278a.833.833,0,0,0-.833.833V14.667a.833.833,0,0,0,1.666,0V4.111A.833.833,0,0,0,5.778,3.278Zm8.888-1.667a.834.834,0,0,0-.833.834V14.667a.834.834,0,0,0,1.667,0V2.445A.833.833,0,0,0,14.666,1.611Zm-4.443,5a.833.833,0,0,0-.834.833v7.223a.834.834,0,0,0,1.667,0V7.444A.834.834,0,0,0,10.223,6.611Z" fill="#231f20"/> </g>
</symbol>

<symbol id="bgcheck-status-clear" class="symbol" viewBox="0 0 16 16">
  <title>bgcheck-status-clear</title><g id="Layer_1" data-name="Layer 1"> <path d="M15.287,2.508,8.518.291a1.532,1.532,0,0,0-.956,0L.793,2.508a.533.533,0,0,0-.368.507V7.743a5.4,5.4,0,0,0,2.129,4.3l4.555,3.471a1.536,1.536,0,0,0,1.862,0l4.555-3.471a5.4,5.4,0,0,0,2.129-4.3V3.015A.533.533,0,0,0,15.287,2.508ZM11.58,7.138,8.364,10.072a1.011,1.011,0,0,1-1.326.032L5.4,8.752A1.011,1.011,0,0,1,6.691,7.194l.959.793,2.568-2.342A1.01,1.01,0,0,1,11.58,7.138Z"/> </g>
</symbol>

<symbol id="bgcheck-status-expired" class="symbol" viewBox="0 0 16 16">
  <title>bgcheck-status-expired</title><g id="Layer_1" data-name="Layer 1"> <path id="Subtraction_13" data-name="Subtraction 13" d="M8.04,15.825a1.7,1.7,0,0,1-.946-.3L2.516,12.016A5.47,5.47,0,0,1,.426,7.707V3a.506.506,0,0,1,.4-.5L7.493.29a1.688,1.688,0,0,1,.995,0L15.256,2.5a1,1,0,0,1,.4.5V7.707a5.47,5.47,0,0,1-2.09,4.309L8.986,15.524A1.7,1.7,0,0,1,8.04,15.825ZM6.886,3.222a.2.2,0,0,0-.2.189v.63a.2.2,0,0,0,.2.189h.469v.543a3.543,3.543,0,0,0-2.1,1.1,3.162,3.162,0,0,0-.848,2.14,3.388,3.388,0,0,0,3.484,3.276H7.9a3.553,3.553,0,0,0,2.55-1.047,3.157,3.157,0,0,0,.926-2.243,3.107,3.107,0,0,0-.561-1.766l-.007-.008a3.277,3.277,0,0,0-.7-.733L10.1,5.474a3.569,3.569,0,0,0-1.67-.7V4.231H8.9a.2.2,0,0,0,.2-.189V3.411a.2.2,0,0,0-.2-.189ZM9.809,8.768H7.555a.2.2,0,0,1-.2-.188V6.19A.2.2,0,0,1,7.555,6h.67a.2.2,0,0,1,.2.189V7.761H9.809a.2.2,0,0,1,.2.189v.628A.2.2,0,0,1,9.809,8.768Z" fill="#231f20"/> </g>
</symbol>

<symbol id="bgcheck-status-none" class="symbol" viewBox="0 0 16 16">
  <title>bgcheck-status-none</title><g id="Layer_1" data-name="Layer 1"> <path id="Subtraction_8" data-name="Subtraction 8" d="M8.04,15.825a1.7,1.7,0,0,1-.946-.3L2.516,12.016A5.47,5.47,0,0,1,.426,7.707V3a.506.506,0,0,1,.4-.5L7.493.29a1.688,1.688,0,0,1,.995,0L15.256,2.5a1,1,0,0,1,.4.5V7.707a5.47,5.47,0,0,1-2.09,4.309L8.986,15.524A1.7,1.7,0,0,1,8.04,15.825ZM7.955,4.077a3.508,3.508,0,1,0,3.484,3.507A3.495,3.495,0,0,0,7.955,4.077Zm0,6.113h0a2.61,2.61,0,0,1-2.118-4.1l3.6,3.625a2.548,2.548,0,0,1-1.484.47Zm2.121-1.11h0l-3.6-3.629a2.577,2.577,0,0,1,3.6.659,2.623,2.623,0,0,1,0,2.966Z" fill="#231f20"/> </g>
</symbol>

<symbol id="bgcheck-status-notclear" class="symbol" viewBox="0 0 16 16">
  <title>bgcheck-status-notclear</title><g id="Layer_1" data-name="Layer 1"> <path id="Subtraction_2" data-name="Subtraction 2" d="M8.04,15.825a1.7,1.7,0,0,1-.946-.3L2.516,12.016A5.47,5.47,0,0,1,.426,7.707V3a.506.506,0,0,1,.4-.5L7.493.29a1.688,1.688,0,0,1,.995,0L15.256,2.5a1,1,0,0,1,.4.5V7.707a5.47,5.47,0,0,1-2.09,4.309L8.986,15.524A1.7,1.7,0,0,1,8.04,15.825ZM6.145,4.874a.573.573,0,0,0-.4.2l-.466.47a.63.63,0,0,0-.215.437.7.7,0,0,0,.243.469l1.25,1.257L5.32,8.949a.594.594,0,0,0-.131.827c.014.019.029.038.045.056l.493.5a.625.625,0,0,0,.432.219.689.689,0,0,0,.464-.255l.015-.016L7.873,9.035l1.284,1.294a.611.611,0,0,0,.426.209.632.632,0,0,0,.439-.215l.467-.469A.536.536,0,0,0,10.475,9l-1.29-1.3,1.27-1.277a.681.681,0,0,0,.222-.458.61.61,0,0,0-.2-.425l-.493-.5A.544.544,0,0,0,9.6,4.862.669.669,0,0,0,9.14,5.1L7.871,6.38,6.62,5.126A.728.728,0,0,0,6.145,4.874Z" fill="#231f20"/> </g>
</symbol>

<symbol id="bgcheck-status-pending" class="symbol" viewBox="0 0 16 16">
  <title>bgcheck-status-pending</title><g id="Layer_1" data-name="Layer 1"> <path id="Subtraction_10" data-name="Subtraction 10" d="M8.04,15.825a1.7,1.7,0,0,1-.946-.3L2.516,12.016A5.47,5.47,0,0,1,.426,7.707V3a.506.506,0,0,1,.4-.5L7.493.29a1.688,1.688,0,0,1,.995,0L15.256,2.5a1,1,0,0,1,.4.5V7.707a5.47,5.47,0,0,1-2.09,4.309L8.986,15.524A1.7,1.7,0,0,1,8.04,15.825Zm2.7-9.6A1.173,1.173,0,1,0,11.9,7.4h0A1.171,1.171,0,0,0,10.738,6.228Zm-2.847,0A1.173,1.173,0,1,0,9.055,7.4h0A1.171,1.171,0,0,0,7.891,6.228Zm-2.847,0A1.173,1.173,0,1,0,6.209,7.4,1.17,1.17,0,0,0,5.044,6.228Z" fill="#231f20"/> </g>
</symbol>

<symbol id="bgcheck-status-unknown" class="symbol" viewBox="0 0 16 16">
  <title>bgcheck-status-unknown</title><g id="Layer_1" data-name="Layer 1"> <path id="Subtraction_6" data-name="Subtraction 6" d="M8.04,15.825a1.7,1.7,0,0,1-.946-.3L2.516,12.016A5.47,5.47,0,0,1,.426,7.707V3a.506.506,0,0,1,.4-.5L7.493.29a1.688,1.688,0,0,1,.995,0L15.256,2.5a1,1,0,0,1,.4.5V7.707a5.47,5.47,0,0,1-2.09,4.309L8.986,15.524A1.7,1.7,0,0,1,8.04,15.825Zm-.379-6.5a.948.948,0,1,0,.94.948h0A.945.945,0,0,0,7.661,9.328Zm.031-3.7c.441,0,.933.29.933.679,0,.307-.253.466-.665.7l-.035.018c-.482.272-1.08.61-1.08,1.433V8.6a.327.327,0,0,0,.326.328h.983A.327.327,0,0,0,8.481,8.6V8.519c0-.222.241-.362.545-.539A1.829,1.829,0,0,0,10.18,6.329,2.355,2.355,0,0,0,7.8,4.224,2.616,2.616,0,0,0,5.461,5.468a.33.33,0,0,0,.071.45l.585.446a.325.325,0,0,0,.2.067.329.329,0,0,0,.255-.123A1.318,1.318,0,0,1,7.692,5.632Z" fill="#231f20"/> </g>
</symbol>

<symbol id="browser-outline" class="symbol" viewBox="0 0 16 16">
  <title>browser-outline</title><g id="Layer_1" data-name="Layer 1"> <path d="M14.457.025H1.518A1.5,1.5,0,0,0,.025,1.518V14.457a1.5,1.5,0,0,0,1.493,1.494H14.457a1.5,1.5,0,0,0,1.494-1.494V1.518A1.5,1.5,0,0,0,14.457.025Zm.5,14.432a.5.5,0,0,1-.5.5H1.518a.5.5,0,0,1-.5-.5V1.518a.5.5,0,0,1,.5-.5H14.457a.5.5,0,0,1,.5.5ZM12.964,2.016H3.011a1,1,0,0,0-1,1V5a1,1,0,0,0,1,1h9.953a1,1,0,0,0,1-1V3.011A1,1,0,0,0,12.964,2.016ZM3.011,5V3.011h9.953V5ZM5,6.992H3.011a1,1,0,0,0-1,1v4.976a1,1,0,0,0,1,1H5a1,1,0,0,0,1-1V7.988A1,1,0,0,0,5,6.992ZM3.011,12.964V7.988H5v4.976Zm9.953-5.972H7.988a1,1,0,0,0-1,1v4.976a1,1,0,0,0,1,1h4.976a1,1,0,0,0,1-1V7.988A1,1,0,0,0,12.964,6.992ZM7.988,12.964V7.988h4.976v4.976Z" fill="#231f20"/> </g>
</symbol>

<symbol id="bulk-update" class="symbol" viewBox="0 0 16 16">
  <title>bulk-update</title><g id="Layer_1" data-name="Layer 1"> <path d="M.387,1.938A.386.386,0,0,0,0,2.324V4.012A.387.387,0,0,0,.387,4.4H8.441l.806-.949,1.284-1.512ZM0,6.665V8.353a.387.387,0,0,0,.387.387H4.753L6.844,6.278H.387A.387.387,0,0,0,0,6.665ZM13.151,10.7h-.629l-2.091,2.461h2.72a.386.386,0,0,0,.386-.386V11.089A.386.386,0,0,0,13.151,10.7ZM0,11.089v1.688a.386.386,0,0,0,.387.386H2.392l.039-1.579a.318.318,0,0,1,.076-.2l.579-.683H.387A.387.387,0,0,0,0,11.089Z" fill="#010101"/> <path d="M13.02,1.982,11.713,3.519l2.814,2.39,1.306-1.538a.4.4,0,0,0-.046-.563l-2.2-1.872A.4.4,0,0,0,13.02,1.982ZM4.458,15.42l2.368-.446L4.044,12.611l-.059,2.407A.4.4,0,0,0,4.458,15.42Zm.153-3.508L7.424,14.3l6.514-7.7L11.125,4.212Z" fill="#010101"/> </g>
</symbol>

<symbol id="calendar-check" class="symbol" viewBox="0 0 16 16">
  <title>calendar-check</title><g id="Layer_1" data-name="Layer 1"> <path d="M14.044,2.063H12.415V0H11.038V2.063H4.843V0H3.467V2.063H1.837A1.124,1.124,0,0,0,.713,3.186v10.82a1.123,1.123,0,0,0,1.124,1.123H14.044a1.123,1.123,0,0,0,1.124-1.123V3.186A1.123,1.123,0,0,0,14.044,2.063Zm-.253,11.691H2.09V3.439h11.7ZM11.748,7.076l-.942-.99L7.453,9.613,5.806,7.88l-.941.99,2.588,2.723Z" fill="#010101"/> </g>
</symbol>

<symbol id="calendar" class="symbol" viewBox="0 0 16 16">
  <title>calendar</title><g id="Layer_1" data-name="Layer 1"> <path d="M14.758,6.038V2.612a.873.873,0,0,0-.852-.892H12.683v-.8a.853.853,0,1,0-1.7,0v.8H4.809v-.8a.853.853,0,1,0-1.7,0v.8H1.981a.873.873,0,0,0-.851.892V15.086a.872.872,0,0,0,.851.891H13.906a.872.872,0,0,0,.852-.891V6.313a.922.922,0,0,0,.027-.137A.91.91,0,0,0,14.758,6.038Zm-1.7,8.157H2.833V7.067H13.054Zm0-8.91H2.833V3.5H13.054Zm-8.245,4.9A.886.886,0,1,0,3.962,9.3.866.866,0,0,0,4.809,10.186Zm3.161,0A.886.886,0,1,0,7.124,9.3.867.867,0,0,0,7.97,10.186Zm3.162,0a.886.886,0,1,0-.846-.886A.867.867,0,0,0,11.132,10.186ZM4.809,12.859a.886.886,0,1,0-.847-.885A.866.866,0,0,0,4.809,12.859Zm3.161,0a.886.886,0,1,0-.846-.885A.866.866,0,0,0,7.97,12.859Zm3.162,0a.886.886,0,1,0-.846-.885A.866.866,0,0,0,11.132,12.859Z" fill="#231f20"/> </g>
</symbol>

<symbol id="card-complete" class="symbol" viewBox="0 0 16 16">
  <title>card-complete</title><g id="Layer_1" data-name="Layer 1"> <path d="M13.584,10l-3.249,3.356a.091.091,0,0,1-.132,0L7.926,11.013a.093.093,0,0,1,0-.128l.9-.923a.091.091,0,0,1,.131,0L10.2,11.24a.059.059,0,0,0,.085,0l2.243-2.323a.092.092,0,0,1,.132,0l.926.953A.092.092,0,0,1,13.584,10Z" fill="#231f20" fill-rule="evenodd"/> <g> <path d="M10.715,6.915a4.188,4.188,0,0,1,.624.047,3.991,3.991,0,0,1-.626,7.945,4,4,0,1,1,0-7.992h0m0-1h0a5.079,5.079,0,1,0,.774.058,5.177,5.177,0,0,0-.772-.058Z" fill="#010101"/> <path d="M5.729,13.922H1.382V1.484H7.3V3.96a.135.135,0,0,0,.04.095.138.138,0,0,0,.1.039H9.946V5.2a6.059,6.059,0,0,1,.767-.055,5.911,5.911,0,0,1,.615.046V3.8a.592.592,0,0,0-.181-.426L7.994.281A.624.624,0,0,0,7.56.1H.613A.62.62,0,0,0,.18.281.6.6,0,0,0,0,.707V14.736a.6.6,0,0,0,.18.425.62.62,0,0,0,.433.177H6.968A5.84,5.84,0,0,1,5.729,13.922Z" fill="#010101"/> </g> </g>
</symbol>

<symbol id="card-removed" class="symbol" viewBox="0 0 16 16">
  <title>card-removed</title><g id="Layer_1" data-name="Layer 1"> <g> <path d="M10.815,6.915a4.174,4.174,0,0,1,.623.047,3.991,3.991,0,0,1-.625,7.945,4,4,0,1,1,0-7.992h0m0-1h0a5.079,5.079,0,1,0,.774.058,5.177,5.177,0,0,0-.772-.058Z" fill="#010101"/> <path d="M5.829,13.922H1.481V1.484H7.4V3.96a.135.135,0,0,0,.04.095.136.136,0,0,0,.1.039h2.507V5.2a6.059,6.059,0,0,1,.767-.055,5.911,5.911,0,0,1,.615.046V3.8a.592.592,0,0,0-.181-.426L8.094.281A.626.626,0,0,0,7.66.1H.713A.624.624,0,0,0,.279.281.6.6,0,0,0,.1.707V14.736a.6.6,0,0,0,.179.425.624.624,0,0,0,.434.177H7.068A5.819,5.819,0,0,1,5.829,13.922Z" fill="#010101"/> </g> <path d="M13.122,9.6l-1-1a.133.133,0,0,0-.188,0l-1.12,1.119L9.693,8.6a.133.133,0,0,0-.188,0l-1,1a.133.133,0,0,0,0,.188l1.119,1.119L8.5,12.031a.133.133,0,0,0,0,.188l1,1a.133.133,0,0,0,.188,0L10.812,12.1l1.12,1.119a.133.133,0,0,0,.188,0l1-1a.133.133,0,0,0,0-.188L12,10.911l1.119-1.119A.133.133,0,0,0,13.122,9.6Z" fill="#231f20" fill-rule="evenodd"/> </g>
</symbol>

<symbol id="chat-bubble" class="symbol" viewBox="0 0 16 16">
  <title>chat-bubble</title><g id="Layer_1" data-name="Layer 1"> <g> <path d="M8.305,14.821a8.364,8.364,0,0,1-4.274-1.149l-2.073.63a1.405,1.405,0,0,1-1.652-2l.887-1.693A6.022,6.022,0,0,1,.61,8.032c0-3.745,3.452-6.791,7.695-6.791S16,4.287,16,8.032,12.548,14.821,8.305,14.821ZM4.239,12.146l.272.178a6.947,6.947,0,0,0,3.794,1.1c3.471,0,6.3-2.418,6.3-5.39S11.776,2.64,8.305,2.64s-6.3,2.419-6.3,5.392a4.7,4.7,0,0,0,.585,2.253l.178.328L1.545,12.954Z" fill="#010101"/> <g> <path d="M5.313,7.484a.845.845,0,1,0,.845.844.844.844,0,0,0-.845-.844Z" fill="#010101"/> <path d="M8.316,7.484a.845.845,0,1,0,.845.844.845.845,0,0,0-.845-.844Z" fill="#010101"/> <path d="M11.319,7.484a.845.845,0,1,0,.844.844.844.844,0,0,0-.844-.844Z" fill="#010101"/> </g> </g> </g>
</symbol>

<symbol id="checkr-logo" class="symbol" viewBox="0 0 16 16">
  <title>checkr-logo</title><g id="Layer_1" data-name="Layer 1"> <g> <path d="M13.353,9.453h-.672l-.758-1.262-.072.072-.216.229v.961H11.07v-.36a1.828,1.828,0,0,1-.637.36.093.093,0,0,0-.036.012,2.02,2.02,0,0,1-.372.048H9.941a1.27,1.27,0,0,1-.926-.4,1.552,1.552,0,0,1-.336-1.01A1.486,1.486,0,0,1,9.015,7.1a1.141,1.141,0,0,1,.914-.4,1.054,1.054,0,0,1,.745.253.724.724,0,0,1,.1.1l-.325.408a.612.612,0,0,0-.492-.216.621.621,0,0,0-.5.24,1.029,1.029,0,0,0-.18.637,1.027,1.027,0,0,0,.18.637A.713.713,0,0,0,9.917,9h.2a1.339,1.339,0,0,0,.961-.721V5.62h.565V7.711l.9-.95h.769l-.973,1.01Z" fill="#010101"/> <path d="M8.4,8.107a1.577,1.577,0,0,0-.3-.985,1.029,1.029,0,0,0-.877-.409,1.1,1.1,0,0,0-.889.409,1.471,1.471,0,0,0-.337,1,1.529,1.529,0,0,0,.325,1,1.165,1.165,0,0,0,.925.4h0A1.241,1.241,0,0,0,8.294,9l-.372-.372a.682.682,0,0,1-.276.252.982.982,0,0,1-.409.1.584.584,0,0,1-.469-.192.872.872,0,0,1-.18-.457h1.8V8.107ZM6.636,7.759A.737.737,0,0,1,6.828,7.4a.537.537,0,0,1,.4-.156A.464.464,0,0,1,7.6,7.4a.854.854,0,0,1,.193.361Z" fill="#010101"/> <path d="M15.757,7.182l-.445.444a.666.666,0,0,0-.228-.324A.487.487,0,0,0,14.8,7.23a.428.428,0,0,0-.4.24,1.169,1.169,0,0,0-.168.637V9.441h-.565V6.749h.565v.205a1.051,1.051,0,0,1,.721-.253.86.86,0,0,1,.528.156A1.036,1.036,0,0,1,15.757,7.182Z" fill="#010101"/> <path d="M5.675,7.626V9.453H5.122V7.687c0-.3-.132-.445-.421-.445a.545.545,0,0,0-.432.216.666.666,0,0,0-.072.1.793.793,0,0,0-.1.253.264.264,0,0,0-.012.1c0,.048-.012.1-.012.144V9.441H3.512V8.708c-.012.024-.036.036-.048.06a2.182,2.182,0,0,1-1.19.7.044.044,0,0,0-.036.012c-.1.012-.18.024-.228.024H1.889a1.512,1.512,0,0,1-1.2-.529,2.559,2.559,0,0,1,0-2.884A1.5,1.5,0,0,1,1.865,5.56a1.6,1.6,0,0,1,1.01.336.953.953,0,0,1,.168.2l-.372.469a.814.814,0,0,0-.806-.445.974.974,0,0,0-.745.385A1.783,1.783,0,0,0,.844,7.518a1.844,1.844,0,0,0,.276,1,1,1,0,0,0,.806.372,2.784,2.784,0,0,0,.288-.024A2.049,2.049,0,0,0,3.464,7.7a.432.432,0,0,0,.048-.109V5.62h.565V6.966a1.771,1.771,0,0,1,.228-.145,1.181,1.181,0,0,1,.481-.12.884.884,0,0,1,.66.228A.937.937,0,0,1,5.675,7.626Z" fill="#010101"/> </g> </g>
</symbol>

<symbol id="comment" class="symbol" viewBox="0 0 16 16">
  <title>comment</title><g id="Layer_1" data-name="Layer 1"> <path d="M15,7.149a7,7,0,1,0-7.25,7.045c.538.528,2.282,2.017,4.255,1.41,0,0,.588-.162.275-.645a11.715,11.715,0,0,1-.865-1.655A7.056,7.056,0,0,0,15,7.149ZM9.373,9.51H5.354a.861.861,0,0,1-.744-.942.859.859,0,0,1,.744-.939H9.373a.859.859,0,0,1,.744.939A.861.861,0,0,1,9.373,9.51Zm1.212-3.1H5.543a.941.941,0,0,1,0-1.881h5.042a.941.941,0,0,1,0,1.881Z" fill="#231f20"/> </g>
</symbol>

<symbol id="crop" class="symbol" viewBox="0 0 16 16">
  <title>crop</title><g id="Layer_1" data-name="Layer 1"> <path d="M15.447,11.514H13.283V5.419a6.466,6.466,0,0,0-.4-1.954L15.467.937a.276.276,0,0,0-.391-.391L12.488,3.075a3.511,3.511,0,0,0-1.432-.357H4.439V1.029c0-.306-.816-.553-1.122-.553s-1.075.247-1.075.553V2.718H.553C.248,2.718,0,3.487,0,3.792S.248,4.867.553,4.867H2.242v7.186A1.66,1.66,0,0,0,3.9,13.711h7.185v1.736c0,.305.769.553,1.075.553s1.122-.248,1.122-.553V13.711h2.164c.305,0,.552-.77.552-1.075S15.752,11.514,15.447,11.514ZM10.534,4.867a.567.567,0,0,1,.135.027l-6.2,6.2a.548.548,0,0,1-.027-.135V5.419a.552.552,0,0,1,.553-.552ZM4.992,11.514a.548.548,0,0,1-.135-.027l6.2-6.2a.506.506,0,0,1,.027.134v5.542a.552.552,0,0,1-.552.553Z" fill="#231f20"/> </g>
</symbol>

<symbol id="download" class="symbol" viewBox="0 0 16 16">
  <title>download</title><g id="Layer_1" data-name="Layer 1"> <path d="M13.587,8v4.181H2.4V8H0v6.689H15.984V8ZM7.8,10.463a.258.258,0,0,0,.378,0l3.887-4.2a.257.257,0,0,0-.189-.432H9.591V2.742a.258.258,0,0,0-.258-.257H6.651a.257.257,0,0,0-.257.257V5.829H4.105a.257.257,0,0,0-.189.432Z" fill="#231f20"/> </g>
</symbol>

<symbol id="email-envelope" class="symbol" viewBox="0 0 16 16">
  <title>email-envelope</title><g id="Layer_1" data-name="Layer 1"> <path d="M.987,5.8,7.43,8.926a1.069,1.069,0,0,0,.818,0L15.2,5.491a.358.358,0,0,0,.2-.321,1,1,0,0,0-1-1H1.8A1.016,1.016,0,0,0,.786,5.183v.295A.356.356,0,0,0,.987,5.8ZM14.748,7.3,8.881,10.2a2.447,2.447,0,0,1-1.026.225,2.487,2.487,0,0,1-1.022-.219l-5.4-2.614A.449.449,0,0,0,.786,8v4.657a.978.978,0,0,0,.973.978H14.312A1.089,1.089,0,0,0,15.4,12.545V7.7A.448.448,0,0,0,14.748,7.3Z" fill="#231f20"/> </g>
</symbol>

<symbol id="envelope-open-outline" class="symbol" viewBox="0 0 16 16">
  <title>envelope-open-outline</title><g id="Layer_1" data-name="Layer 1"> <path d="M15.955,7.511v0l0-.017a.512.512,0,0,0-.03-.173.992.992,0,0,0-.166-.4h0L15.746,6.9a1.034,1.034,0,0,0-.177-.179L9.072.445a1.531,1.531,0,0,0-2.114,0L.463,6.676a1.343,1.343,0,0,0-.45.83v7.465a1,1,0,0,0,1,1H14.959a1,1,0,0,0,1-1V7.523A.048.048,0,0,0,15.955,7.511Zm-11.74,3.82-3.2,2.951V8.5Zm1.086.354c.011-.011.026-.015.037-.027l.008-.015,2.2-2.03a.612.612,0,0,1,.388-.138A.648.648,0,0,1,8.32,9.6l5.972,5.372H1.732Zm6.506-.288,3.152-2.8v5.634ZM1.63,6.918,7.663,1.149a.5.5,0,0,1,.705,0L13.994,6.51h-.015l.854.869-3.772,3.347L8.956,8.833a1.64,1.64,0,0,0-2.051.021l-1.953,1.8L1.187,7.332l.42-.414Z" fill="#231f20"/> </g>
</symbol>

<symbol id="envelope-outline" class="symbol" viewBox="0 0 16 16">
  <title>envelope-outline</title><g id="Layer_1" data-name="Layer 1"> <path d="M13.947,1.445H2.061A2.026,2.026,0,0,0,.044,3.479V11.8a2.026,2.026,0,0,0,2.017,2.035H13.947A2.026,2.026,0,0,0,15.964,11.8V3.479A2.026,2.026,0,0,0,13.947,1.445Zm-3.181,6.9,4-3.421v5.783Zm-8.7-5.689H13.947a.811.811,0,0,1,.778.622L8.135,9.161a.164.164,0,0,1-.195,0L1.291,3.238A.812.812,0,0,1,2.061,2.654ZM5.375,8.422l-4.132,2.35V4.877Zm8.572,4.2H2.061a.817.817,0,0,1-.746-.493l4.9-2.785,1.012.916a1.345,1.345,0,0,0,1.614,0l1.077-.994,4.788,2.806A.812.812,0,0,1,13.947,12.622Z" fill="#231f20"/> </g>
</symbol>

<symbol id="error-uploading" class="symbol" viewBox="0 0 16 16">
  <title>error-uploading</title><g id="Layer_1" data-name="Layer 1"> <g> <g> <path d="M6.913,10.285A.683.683,0,0,1,6.43,9.119L9.064,6.485a.683.683,0,1,1,.966.966L7.4,10.085A.677.677,0,0,1,6.913,10.285Z" fill="#010101"/> <path d="M9.547,10.285a.681.681,0,0,1-.483-.2L6.43,7.451A.683.683,0,0,1,7.4,6.485L10.03,9.119a.683.683,0,0,1-.483,1.166Z" fill="#010101"/> </g> <path d="M13.926,5.261H10.518A1,1,0,0,1,9.46,4.252V.846A.836.836,0,0,1,10.3,0a.821.821,0,0,1,.59.248l3.638,3.637a.789.789,0,0,1,.182.89A.813.813,0,0,1,13.926,5.261ZM10.826,3.9h1.838l-1.838-1.8Z" fill="#010101"/> <path d="M13.741,15.993H2.564A1.067,1.067,0,0,1,1.5,14.926V1.059A1.067,1.067,0,0,1,2.564-.008h7.715V1.358H2.864V14.627H13.4V4.48h1.366V14.926A1.034,1.034,0,0,1,13.741,15.993Z" fill="#010101"/> </g> </g>
</symbol>

<symbol id="facebook-outline" class="symbol" viewBox="0 0 16 16">
  <title>facebook-outline</title><g id="Layer_1" data-name="Layer 1"> <path d="M12.353,4.987a1.3,1.3,0,0,0-1.023-.5H10.006V4h.776a1.267,1.267,0,0,0,1.281-1.241l.008-1.5A1.266,1.266,0,0,0,10.789.007H9.483c-.032,0-.079,0-.138,0A3.866,3.866,0,0,0,7.437.5,3.14,3.14,0,0,0,5.89,3.406V4.489H5.113a1.3,1.3,0,0,0-.906.364,1.238,1.238,0,0,0-.374.885l0,1.5a1.266,1.266,0,0,0,1.28,1.241h.772v6.241a1.266,1.266,0,0,0,1.281,1.246H8.716A1.265,1.265,0,0,0,10,14.717V8.476h.969A1.286,1.286,0,0,0,12.2,7.57l.36-1.484A1.221,1.221,0,0,0,12.353,4.987ZM10.966,7.231H8.716v7.486H7.171V7.231H5.117l0-1.5H7.171V3.406A2.027,2.027,0,0,1,9.345,1.25c.062,0,.1,0,.1,0h1.347l-.008,1.5H9.444c-.736,0-.719.608-.719.608V5.734h2.6Z" fill="#231f20"/> </g>
</symbol>

<symbol id="facebook" class="symbol" viewBox="0 0 16 16">
  <title>facebook</title><g id="Layer_1" data-name="Layer 1"> <path d="M11.919,0H9.5S5.716-.381,5.716,3.405V4.973H4.177L4.152,7.951H5.716v7.928H9.3V7.951h2.072l.5-2.978H9.3V3.762s-.221-1.024,1.055-1.024h1.536Z" fill="#231f20" fill-rule="evenodd"/> </g>
</symbol>

<symbol id="form-break" class="symbol" viewBox="0 0 16 16">
  <title>form-break</title><g id="Layer_1" data-name="Layer 1"> <g> <rect x="0.243" y="6.809" width="4.291" height="2.461" rx="0.805" ry="0.805" fill="#010101"/> <rect x="5.882" y="6.809" width="4.291" height="2.461" rx="0.805" ry="0.805" fill="#010101"/> <rect x="11.52" y="6.809" width="4.291" height="2.461" rx="0.805" ry="0.805" fill="#010101"/> </g> </g>
</symbol>

<symbol id="form-checkbox" class="symbol" viewBox="0 0 16 16">
  <title>form-checkbox</title><g id="Layer_1" data-name="Layer 1"> <g> <path d="M13.069,9.873V13.29H2.179V2.4H8.325V.948H1.959A1.234,1.234,0,0,0,.727,2.18V13.51a1.234,1.234,0,0,0,1.232,1.233h11.33a1.234,1.234,0,0,0,1.232-1.233V9.873Z" fill="#010101"/> <path d="M8,10.56a.582.582,0,0,1-.4-.157L4.114,7.179A.19.19,0,0,1,4.1,6.91L5.193,5.73a.194.194,0,0,1,.271-.011l2.49,2.3,5.023-5.114a.185.185,0,0,1,.136-.058.189.189,0,0,1,.134.055l1.146,1.126a.191.191,0,0,1,0,.27L8.422,10.384A.584.584,0,0,1,8,10.56Z" fill="#231f20"/> </g> </g>
</symbol>

<symbol id="form-dropdown" class="symbol" viewBox="0 0 16 16">
  <title>form-dropdown</title><g id="Layer_1" data-name="Layer 1"> <g> <path d="M13.962.872H2.038a.872.872,0,0,0-.852.891V14.237a.872.872,0,0,0,.852.891H13.962a.872.872,0,0,0,.852-.891V1.763A.872.872,0,0,0,13.962.872Zm-.851,12.474H2.889V2.654H13.111Z" fill="#010101"/> <path d="M11.053,6.537l-2.74,3.531A.451.451,0,0,1,8,10.19a.468.468,0,0,1-.3-.122L4.947,6.537a.393.393,0,0,1-.093-.466.4.4,0,0,1,.4-.261h5.506a.424.424,0,0,1,.294.727Z" fill="#231f20"/> </g> </g>
</symbol>

<symbol id="form-number" class="symbol" viewBox="0 0 16 16">
  <title>form-number</title><g id="Layer_1" data-name="Layer 1"> <g> <path d="M1.827,6.024l-.521.136a1.23,1.23,0,0,1-.26.039A.646.646,0,0,1,.891,4.926l.955-.28a2.691,2.691,0,0,1,.693-.125h.02a.732.732,0,0,1,.732.732v5.436a.732.732,0,0,1-1.464,0Z" fill="#231f20"/> <path d="M4.98,9.918,6.9,8.347c.838-.684,1.165-1.06,1.165-1.619a.828.828,0,0,0-.905-.877,1.424,1.424,0,0,0-1.1.588.682.682,0,0,1-1.176-.463.745.745,0,0,1,.174-.462,2.654,2.654,0,0,1,2.2-.993A2.08,2.08,0,0,1,9.576,6.6v.02C9.576,7.75,9,8.309,7.8,9.234l-1.1.848H9.056a.646.646,0,0,1,.646.646.637.637,0,0,1-.646.635H5.394a.711.711,0,0,1-.8-.7A.935.935,0,0,1,4.98,9.918Z" fill="#231f20"/> <path d="M10.948,10.708a.732.732,0,0,1-.25-.53.723.723,0,0,1,.713-.713.707.707,0,0,1,.472.183,1.922,1.922,0,0,0,1.32.5.846.846,0,0,0,.954-.82V9.311c0-.55-.492-.858-1.32-.858h-.232a.642.642,0,0,1-.636-.636.839.839,0,0,1,.319-.607L13.6,5.89H11.526a.636.636,0,1,1,0-1.272h3.286a.672.672,0,0,1,.752.655,1.074,1.074,0,0,1-.443.829L13.8,7.364a1.871,1.871,0,0,1,1.811,1.889v.019a2.2,2.2,0,0,1-2.428,2.207A3.3,3.3,0,0,1,10.948,10.708Z" fill="#231f20"/> </g> </g>
</symbol>

<symbol id="form-paragraph" class="symbol" viewBox="0 0 16 16">
  <title>form-paragraph</title><g id="Layer_1" data-name="Layer 1"> <g> <rect x="0.855" y="2.014" width="14.291" height="2.461" rx="0.805" ry="0.805" fill="#010101"/> <rect x="0.855" y="6.769" width="14.291" height="2.461" rx="0.805" ry="0.805" fill="#010101"/> <rect x="0.855" y="11.525" width="11.291" height="2.461" rx="0.805" ry="0.805" fill="#010101"/> </g> </g>
</symbol>

<symbol id="form-text" class="symbol" viewBox="0 0 16 16">
  <title>form-text</title><g id="Layer_1" data-name="Layer 1"> <g> <path d="M2.018,10.423,4.37,5.113a.915.915,0,0,1,.867-.587h.087a.9.9,0,0,1,.857.587l2.352,5.31a.726.726,0,0,1,.076.3.7.7,0,0,1-.7.713.756.756,0,0,1-.713-.511L6.74,9.865H3.772L3.3,10.973a.728.728,0,0,1-.684.462.682.682,0,0,1-.684-.693A.8.8,0,0,1,2.018,10.423ZM6.19,8.554,5.256,6.328,4.321,8.554Z" fill="#231f20"/> <path d="M9.318,9.893V9.874c0-1.127.857-1.647,2.081-1.647a3.668,3.668,0,0,1,1.263.211V8.351c0-.607-.377-.944-1.109-.944a3.352,3.352,0,0,0-1.012.145.635.635,0,0,1-.212.038.6.6,0,0,1-.608-.6.607.607,0,0,1,.4-.568,4.462,4.462,0,0,1,1.648-.271,2.38,2.38,0,0,1,1.744.579,2.247,2.247,0,0,1,.559,1.648v2.35a.7.7,0,0,1-.713.7.656.656,0,0,1-.7-.607v-.01a1.984,1.984,0,0,1-1.561.656A1.6,1.6,0,0,1,9.318,9.893Zm3.362-.336V9.3a2.262,2.262,0,0,0-.934-.193c-.626,0-1.012.251-1.012.714v.019c0,.395.327.626.8.626C12.218,10.462,12.68,10.086,12.68,9.557Z" fill="#231f20"/> </g> </g>
</symbol>

<symbol id="groups-added" class="symbol" viewBox="0 0 16 16">
  <title>groups-added</title><g id="Layer_1" data-name="Layer 1"> <g> <path d="M12.488,15.745a.55.55,0,0,1-.549-.548V11.27a.549.549,0,0,1,1.1,0V15.2A.549.549,0,0,1,12.488,15.745Z" fill="#010101"/> <path d="M10.524,13.781a.548.548,0,1,1,0-1.1h3.928a.548.548,0,1,1,0,1.1Z" fill="#010101"/> <path d="M3.454,16a2.011,2.011,0,0,1-2-2.013V10.836A2.428,2.428,0,0,1,3.005,8.574l2.419-.923-.318-.214a3.84,3.84,0,1,1,4.291,0l-.317.214,2.554.974a.616.616,0,0,1-.22,1.192h0a.594.594,0,0,1-.216-.039l-3.946-1.5L3.439,9.728a1.188,1.188,0,0,0-.762,1.108v3.151a.78.78,0,0,0,.777.781h5.7a.616.616,0,0,1,0,1.232Zm3.8-14.376A2.619,2.619,0,1,0,9.863,4.243,2.619,2.619,0,0,0,7.252,1.624Z" fill="#010101"/> </g> </g>
</symbol>

<symbol id="groups-app" class="symbol" viewBox="0 0 16 16">
  <title>groups-app</title><g id="Layer_1" data-name="Layer 1"> <path d="M9.035,6.189H6.965a1.466,1.466,0,0,1-.778.778V9.033a1.469,1.469,0,0,1,.778.778H9.031a1.471,1.471,0,0,1,.779-.778V6.965A1.464,1.464,0,0,1,9.035,6.189ZM8,.19C1.752.19.19,1.752.19,8S1.752,15.81,8,15.81,15.81,14.248,15.81,8,14.248.19,8,.19Zm3.846,10.192a1.466,1.466,0,0,1-2.815.571H6.965a1.465,1.465,0,1,1-1.92-1.92V6.967a1.465,1.465,0,1,1,1.92-1.92h2.07a1.465,1.465,0,1,1,1.917,1.921V9.033A1.465,1.465,0,0,1,11.846,10.382Z"/> <path d="M9.035,6.189H6.965a1.466,1.466,0,0,1-.778.778V9.033a1.469,1.469,0,0,1,.778.778H9.031a1.471,1.471,0,0,1,.779-.778V6.965A1.464,1.464,0,0,1,9.035,6.189ZM8,.19C1.752.19.19,1.752.19,8S1.752,15.81,8,15.81,15.81,14.248,15.81,8,14.248.19,8,.19Zm3.846,10.192a1.466,1.466,0,0,1-2.815.571H6.965a1.465,1.465,0,1,1-1.92-1.92V6.967a1.465,1.465,0,1,1,1.92-1.92h2.07a1.465,1.465,0,1,1,1.917,1.921V9.033A1.465,1.465,0,0,1,11.846,10.382Z"/> </g>
</symbol>

<symbol id="groups-removed" class="symbol" viewBox="0 0 16 16">
  <title>groups-removed</title><g id="Layer_1" data-name="Layer 1"> <path d="M10.723,13.14a.548.548,0,0,1,0-1.1h3.929a.548.548,0,0,1,0,1.1Z" fill="#010101"/> <path d="M3.654,16a2.011,2.011,0,0,1-2-2.013V10.836A2.429,2.429,0,0,1,3.205,8.574l2.418-.923-.317-.214a3.839,3.839,0,1,1,4.291,0l-.317.214,2.554.974a.616.616,0,0,1-.22,1.192h0a.594.594,0,0,1-.216-.039l-3.946-1.5L3.639,9.728a1.188,1.188,0,0,0-.762,1.108v3.151a.78.78,0,0,0,.777.781h5.7a.616.616,0,0,1,0,1.232Zm3.8-14.376a2.619,2.619,0,1,0,2.611,2.619A2.619,2.619,0,0,0,7.452,1.624Z" fill="#010101"/> </g>
</symbol>

<symbol id="heart-outline" class="symbol" viewBox="0 0 16 16">
  <title>heart-outline</title><g id="Layer_1" data-name="Layer 1"> <path d="M8.023,15.024a1.577,1.577,0,0,1-1.133-.478L1.9,9.47A4.361,4.361,0,0,1,.662,6.227a4.283,4.283,0,0,1,1.53-3.111A4.282,4.282,0,0,1,7.973,3.5l.05.051a4.218,4.218,0,0,1,7.263,2.776,4.352,4.352,0,0,1-1.237,3.243L9.156,14.546A1.579,1.579,0,0,1,8.023,15.024ZM4.826,3.6a2.676,2.676,0,0,0-1.735.62A2.861,2.861,0,0,0,2.069,6.293,2.9,2.9,0,0,0,2.9,8.458l4.99,5.076a.168.168,0,0,0,.275,0l4.894-4.977a2.9,2.9,0,0,0,.826-2.165,2.862,2.862,0,0,0-1.023-2.076,2.883,2.883,0,0,0-3.886.294l-.948.965L6.977,4.511A3.03,3.03,0,0,0,4.826,3.6Z" fill="#010101"/> </g>
</symbol>

<symbol id="history" class="symbol" viewBox="0 0 16 16">
  <title>history</title><g id="Layer_1" data-name="Layer 1"> <g> <path d="M7.933,2.551a.923.923,0,0,0-.923.923v4.62a.925.925,0,0,0,.465.8l3.232,1.848a.9.9,0,0,0,.456.122.924.924,0,0,0,.458-1.726L8.856,7.557V3.474A.923.923,0,0,0,7.933,2.551Z"/> <path d="M8,0A7.967,7.967,0,0,0,1.143,3.931L0,3.424l.72,2.99,2.7-1.474L2.4,4.488A6.621,6.621,0,1,1,12.684,12.7,6.6,6.6,0,0,1,2.32,11.408H.766A8,8,0,1,0,8,0Z"/> </g> </g>
</symbol>

<symbol id="id-card-outline" class="symbol" viewBox="0 0 16 16">
  <title>id-card-outline</title><g id="Layer_1" data-name="Layer 1"> <path d="M15.24,2.825H.759A.761.761,0,0,0,0,3.586v8.857a.762.762,0,0,0,.759.761H15.24a.762.762,0,0,0,.76-.761V3.586A.761.761,0,0,0,15.24,2.825Zm-.111,9.507H.856V3.683H15.129Zm-12.2-1.3h3.21a.514.514,0,0,0,.513-.515V9.054a1,1,0,0,0-.629-.932L5.5,7.914a.9.9,0,0,0,.455-.782V6.4A1.427,1.427,0,1,0,3.1,6.4v.733a.905.905,0,0,0,.459.786l-.517.2a1,1,0,0,0-.633.934v1.461A.514.514,0,0,0,2.926,11.032ZM3.88,6.4a.651.651,0,1,1,1.3,0v.733a.13.13,0,0,1-.067.113l-.429.232a.32.32,0,0,1-.309,0l-.429-.233a.127.127,0,0,1-.067-.112ZM3.188,9.056a.223.223,0,0,1,.143-.21l1.21-.479,1.19.477a.225.225,0,0,1,.142.21v1.2H3.188ZM13.412,5.838h-5.2V6.71h5.2Zm0,1.74h-5.2v.873h5.2ZM10.807,9.305H8.216v.872h2.591Z" fill="#231f20"/> </g>
</symbol>

<symbol id="import-progress" class="symbol" viewBox="0 0 16 16">
  <title>import-progress</title><g id="Layer_1" data-name="Layer 1"> <g> <path d="M3.848,7.311A1.236,1.236,0,1,0,5.084,8.547,1.236,1.236,0,0,0,3.848,7.311Z" fill="#010101"/> <path d="M8.244,7.311A1.236,1.236,0,1,0,9.48,8.547,1.236,1.236,0,0,0,8.244,7.311Z" fill="#010101"/> <path d="M12.639,7.311a1.236,1.236,0,1,0,1.236,1.236,1.236,1.236,0,0,0-1.236-1.236Z" fill="#010101"/> </g> </g>
</symbol>

<symbol id="info-simple" class="symbol" viewBox="0 0 16 16">
  <title>info-simple</title><g id="Layer_1" data-name="Layer 1"> <path d="M8,.1a7.912,7.912,0,1,0,7.91,7.912A7.921,7.921,0,0,0,8,.1ZM8,13.8a5.782,5.782,0,1,1,5.78-5.782A5.788,5.788,0,0,1,8,13.8ZM6.935,11.777h2.13V7.516H6.935ZM8,4.085A1.148,1.148,0,1,0,9.148,5.233,1.148,1.148,0,0,0,8,4.085Z" fill="#231f20"/> </g>
</symbol>

<symbol id="instagram-outline" class="symbol" viewBox="0 0 16 16">
  <title>instagram-outline</title><g id="Layer_1" data-name="Layer 1"> <path d="M13,.006H3A2.993,2.993,0,0,0,.01,3V13A2.993,2.993,0,0,0,3,15.986H13A2.993,2.993,0,0,0,15.99,13V3A2.993,2.993,0,0,0,13,.006ZM13.954,13A.955.955,0,0,1,13,13.95H3A.955.955,0,0,1,2.046,13V7.621h1.78c-.011.124-.019.249-.019.375a4.193,4.193,0,0,0,8.386,0c0-.126-.008-.251-.019-.375h1.78ZM5.842,8A2.158,2.158,0,1,1,8,10.154,2.158,2.158,0,0,1,5.842,8Zm8.112-2.411H11.427a4.186,4.186,0,0,0-6.854,0H2.046V3A.954.954,0,0,1,3,2.043H13A.954.954,0,0,1,13.954,3Z" fill="#231f20"/> <rect x="11.247" y="2.816" width="1.968" height="1.968" rx="0.62" ry="0.62" fill="#231f20"/> </g>
</symbol>

<symbol id="instagram" class="symbol" viewBox="0 0 16 16">
  <title>instagram</title><g id="Layer_1" data-name="Layer 1"> <g> <circle cx="7.987" cy="8.195" r="2.107" fill="#231f20"/> <g> <path d="M12.16,8.078c0,.013,0,.026,0,.039a4.254,4.254,0,1,1-8.507,0c0-.013,0-.026,0-.039H.182v5.385A2.536,2.536,0,0,0,2.718,16H13.255a2.537,2.537,0,0,0,2.537-2.537V8.078Z" fill="#231f20"/> <path d="M13.255.39H2.718A2.536,2.536,0,0,0,.182,2.926V6.517H3.969a4.251,4.251,0,0,1,7.879,0h3.944V2.926A2.537,2.537,0,0,0,13.255.39Zm.891,3.091a.722.722,0,0,1-.722.723h-.506a.723.723,0,0,1-.723-.723v-.5a.723.723,0,0,1,.723-.723h.506a.723.723,0,0,1,.722.723Z" fill="#231f20"/> </g> </g> </g>
</symbol>

<symbol id="key" class="symbol" viewBox="0 0 16 16">
  <title>key</title><g id="Layer_1" data-name="Layer 1"> <path d="M15.494,11.129,13.407,9.941h0L8.383,7.08a4.328,4.328,0,0,0-1.95-4.932A4.3,4.3,0,0,0,.584,3.893,4.384,4.384,0,0,0,2.131,9.848,4.248,4.248,0,0,0,7.4,8.907l.994.566-.709,1.268a1.029,1.029,0,0,0,.364,1.4,1.009,1.009,0,0,0,1.376-.41l.709-1.268,1.392.792-1.012,1.812a1.03,1.03,0,0,0,.364,1.4,1.011,1.011,0,0,0,1.376-.411l1.012-1.812,1.218.694a1.009,1.009,0,0,0,1.376-.411A1.029,1.029,0,0,0,15.494,11.129ZM3.143,8.036a2.32,2.32,0,0,1-.818-3.153,2.274,2.274,0,0,1,3.1-.923,2.321,2.321,0,0,1,.82,3.153A2.275,2.275,0,0,1,3.143,8.036Z" fill="#231f20"/> </g>
</symbol>

<symbol id="linkedin" class="symbol" viewBox="0 0 16 16">
  <title>linkedin</title><g id="Layer_1" data-name="Layer 1"> <path d="M.065,15.2H3.458V5.269H.065ZM1.754.8A1.7,1.7,0,0,0,.021,2.466,1.7,1.7,0,0,0,1.754,4.13,1.7,1.7,0,0,0,3.488,2.466,1.7,1.7,0,0,0,1.754.8Zm14.176,8c0-1.758-1.535-3.515-4.37-3.515-1.429,0-2.664.12-3.532,1.135V5.3H4.6v9.9h3.4V8.671a2.4,2.4,0,0,1,1.955-1.13c2.177-.085,2.566,1,2.566,2.428V15.2H15.93Z" fill="#231f20" fill-rule="evenodd"/> </g>
</symbol>

<symbol id="list-options" class="symbol" viewBox="0 0 16 16">
  <title>list-options</title><g id="Layer_1" data-name="Layer 1"> <path d="M14.707,2.164H6.026a.805.805,0,0,0-.8.8V3.82a.805.805,0,0,0,.8.805h8.681a.8.8,0,0,0,.8-.805V2.969A.8.8,0,0,0,14.707,2.164Zm.757,6.587.012,0a.777.777,0,0,0,.036-.18V8.554l-.069.145Zm.027,3.673-.013.03.034.066v-.041c0-.02-.01-.038-.011-.058ZM6.463,8.751l.016-.04-.686-1.36.433-.432h-.2a.805.805,0,0,0-.8.805v.851a.8.8,0,0,0,.2.518ZM2.679,1.945H1.293a.8.8,0,0,0-.8.805V4.031a.8.8,0,0,0,.805.805H2.679a.8.8,0,0,0,.805-.805V2.75A.8.8,0,0,0,2.679,1.945Zm3.784,10.5-1.121-.368a.779.779,0,0,0-.121.4v.852a.806.806,0,0,0,.8.8h.083l-.275-.276.65-1.358Zm-3.784-.993H1.293a.8.8,0,0,0-.8.8v1.281a.805.805,0,0,0,.805.8H2.679a.805.805,0,0,0,.805-.8V12.261A.8.8,0,0,0,2.679,11.456Zm0-4.756H1.293a.805.805,0,0,0-.8.8V8.786a.8.8,0,0,0,.805.8H2.679a.8.8,0,0,0,.805-.8V7.505A.805.805,0,0,0,2.679,6.7Z" fill="#010101"/> <path d="M10.349,5.683l-.4,1.229a4.447,4.447,0,0,0-.884.365L7.919,6.7l-.854.855L7.641,8.7a4.447,4.447,0,0,0-.365.884l-1.229.4v1.229l1.229.4a4.423,4.423,0,0,0,.365.884l-.547,1.143.854.854,1.143-.576a4.526,4.526,0,0,0,.893.365l.394,1.23h1.229l.4-1.23a4.526,4.526,0,0,0,.893-.365l1.133.548.865-.855-.586-1.143a4.526,4.526,0,0,0,.365-.893l1.2-.365V9.986l-1.23-.4a4.447,4.447,0,0,0-.365-.884l.547-1.142L13.98,6.7l-1.143.576a4.526,4.526,0,0,0-.893-.365l-.365-1.229Zm.615,2.766A2.151,2.151,0,1,1,8.813,10.6,2.137,2.137,0,0,1,10.964,8.449Z" fill="#010101"/> </g>
</symbol>

<symbol id="list" class="symbol" viewBox="0 0 16 16">
  <title>list</title><g id="Layer_1" data-name="Layer 1"> <g> <rect x="0.473" y="1.945" width="2.997" height="2.891" rx="0.805" ry="0.805" fill="#010101"/> <rect x="5.207" y="2.164" width="10.291" height="2.461" rx="0.805" ry="0.805" fill="#010101"/> </g> <g> <rect x="0.473" y="6.7" width="2.997" height="2.891" rx="0.805" ry="0.805" fill="#010101"/> <rect x="5.207" y="6.919" width="10.291" height="2.461" rx="0.805" ry="0.805" fill="#010101"/> </g> <g> <rect x="0.473" y="11.455" width="2.997" height="2.891" rx="0.805" ry="0.805" fill="#010101"/> <rect x="5.207" y="11.674" width="10.291" height="2.461" rx="0.805" ry="0.805" fill="#010101"/> </g> </g>
</symbol>

<symbol id="location-outline" class="symbol" viewBox="0 0 16 16">
  <title>location-outline</title><g id="Layer_1" data-name="Layer 1"> <path d="M8.209.008C4.78.008,2,2.488,2,5.548c0,.066,0,.132.006.2a5,5,0,0,0,.355,1.664c1.041,3.053,4.057,6.837,5.3,8.317a.732.732,0,0,0,1.093,0c1.244-1.48,4.26-5.264,5.3-8.317a5,5,0,0,0,.355-1.664c0-.068.006-.134.006-.2C14.417,2.488,11.638.008,8.209.008ZM12.6,5.965a3.747,3.747,0,0,1-.248,1.2l-.008.021-.007.021A26.441,26.441,0,0,1,8.209,14,26.449,26.449,0,0,1,4.08,7.21l-.007-.02-.008-.021a3.757,3.757,0,0,1-.248-1.213c0-.046,0-.091,0-.136a4.234,4.234,0,0,1,4.4-4.039,4.569,4.569,0,0,1,3.119,1.193A3.855,3.855,0,0,1,12.6,5.82C12.6,5.864,12.6,5.909,12.6,5.965ZM8.209,4.553a1.34,1.34,0,0,0-1.4,1.267,1.34,1.34,0,0,0,1.4,1.266,1.34,1.34,0,0,0,1.4-1.266A1.34,1.34,0,0,0,8.209,4.553Z" fill="#231f20"/> </g>
</symbol>

<symbol id="location" class="symbol" viewBox="0 0 16 16">
  <title>location</title><g id="Layer_1" data-name="Layer 1"> <path d="M13.384,3.86a6.109,6.109,0,0,0-10.769,0,5.854,5.854,0,0,0,.439,6.182l3.207,4.45a2.152,2.152,0,0,0,3.478,0l3.207-4.45A5.852,5.852,0,0,0,13.384,3.86ZM11.5,9.034l-3.207,4.45a.36.36,0,0,1-.582,0L4.5,9.034a4.087,4.087,0,0,1-.31-4.373A4.226,4.226,0,0,1,8,2.382a4.226,4.226,0,0,1,3.808,2.279A4.087,4.087,0,0,1,11.5,9.034ZM8,5A1.8,1.8,0,1,0,9.829,6.8,1.814,1.814,0,0,0,8,5Z" fill="#231f20"/> </g>
</symbol>

<symbol id="merge-people" class="symbol" viewBox="0 0 16 16">
  <title>merge-people</title><g id="Layer_1" data-name="Layer 1"> <g> <path d="M13.2,6.784a2.047,2.047,0,1,0-2.047-2.047A2.048,2.048,0,0,0,13.2,6.784Z" fill="#231f20"/> <path d="M13.177,7.762a2.589,2.589,0,0,0-2.589,2.589v1.67a.68.68,0,0,0,.721.671h3.736a.68.68,0,0,0,.721-.671v-1.67A2.589,2.589,0,0,0,13.177,7.762Z" fill="#231f20"/> <path d="M5.868,10.33A.568.568,0,0,0,5.3,10.9v.647a.141.141,0,0,1-.14.141H1.491a.141.141,0,0,1-.14-.141V9.91a1.975,1.975,0,0,1,3.17-1.572.568.568,0,0,0,.688-.9c-.079-.059-.16-.114-.242-.165A2.578,2.578,0,1,0,1.7,7.26,3.11,3.11,0,0,0,.216,9.91v1.635a1.235,1.235,0,0,0,1.275,1.226H5.16a1.235,1.235,0,0,0,1.275-1.226V10.9A.567.567,0,0,0,5.868,10.33ZM3.34,3.83A1.443,1.443,0,1,1,1.9,5.273,1.444,1.444,0,0,1,3.34,3.83Z" fill="#231f20"/> <path d="M8.743,7.442a.568.568,0,1,0-.8.8L8.3,8.6H6.329a.568.568,0,0,0,0,1.136H8.3l-.356.356a.567.567,0,0,0,.8.8l1.283-1.283a.625.625,0,0,0,0-.886Z" fill="#231f20"/> </g> </g>
</symbol>

<symbol id="mix-gender" class="symbol" viewBox="0 0 16 16">
  <title>mix-gender</title><g id="Layer_1" data-name="Layer 1"> <path d="M15.824,3.153l-.55-.7a2.39,2.39,0,0,0-3.19-.544l-.3.191A2.848,2.848,0,0,0,7.829,4.719V5.928A2.053,2.053,0,0,0,8.6,7.536l.946.757c.016.013.034.022.05.034l-1.528.7a2.19,2.19,0,0,0-.784.608A2.186,2.186,0,0,0,6.5,9.027l-1.528-.7c.016-.012.034-.021.05-.034l.946-.757a2.049,2.049,0,0,0,.772-1.608V4.719a2.848,2.848,0,1,0-5.695,0V5.928A2.052,2.052,0,0,0,1.82,7.536l.947.757c.015.013.033.022.049.034l-1.528.7A2.213,2.213,0,0,0,0,11.034v2.484a.993.993,0,0,0,.991.991H13.582a.993.993,0,0,0,.991-.991V11.034a2.211,2.211,0,0,0-1.288-2.007l-1.528-.7c.016-.012.034-.021.05-.033l.946-.758h0a2.052,2.052,0,0,0,.772-1.608V4.719c0-.08-.017-.154-.023-.232h1.672a.825.825,0,0,0,.65-1.334ZM10.678,2.88a1.825,1.825,0,0,1,1.246.5l.426.589c.014.03.025.06.037.091l-.819-.631-2.651.794A1.835,1.835,0,0,1,10.678,2.88ZM2.452,6.748a1.045,1.045,0,0,1-.394-.82V4.719a1.838,1.838,0,1,1,3.675,0V5.928a1.047,1.047,0,0,1-.393.82l-.946.758a.793.793,0,0,1-1,0ZM1.01,13.518V11.034a1.2,1.2,0,0,1,.7-1.089l2.186-1,2.188,1a1.2,1.2,0,0,1,.7,1.089V13.5H2.949v.012Zm12.553-2.484V13.5l-2.033.007V13.5H7.791V11.034a1.2,1.2,0,0,1,.7-1.089l2.188-1,2.187,1A1.2,1.2,0,0,1,13.563,11.034ZM12.121,6.748l-.946.758a.793.793,0,0,1-1,0l-.946-.758a1.048,1.048,0,0,1-.394-.82V5.3l2.523-.756,1.154.89v.5A1.046,1.046,0,0,1,12.121,6.748Zm1.122-3.27L13.184,3.4a2.872,2.872,0,0,0-.487-.682,1.385,1.385,0,0,1,1.781.356l.319.409Z" fill="#231f20"/> </g>
</symbol>

<symbol id="new-pencil" class="symbol" viewBox="0 0 16 16">
  <title>new-pencil</title><g id="Layer_1" data-name="Layer 1"> <polygon points="1.028 11.474 1.028 14.972 4.527 14.972 11.122 8.377 7.624 4.878 1.028 11.474" fill="#010101" fill-rule="evenodd"/> <rect x="9.969" y="1.68" width="3.837" height="4.948" transform="translate(0.544 9.622) rotate(-45)" fill="#010101"/> </g>
</symbol>

<symbol id="new-window" class="symbol" viewBox="0 0 16 16">
  <title>new-window</title><g id="Layer_1" data-name="Layer 1"> <g> <path d="M14.086,10.267v3.819H1.914V1.914H5.43V.291H1.669A1.379,1.379,0,0,0,.291,1.668V14.331a1.379,1.379,0,0,0,1.378,1.378H14.332a1.379,1.379,0,0,0,1.377-1.378V10.267Z" fill="#010101"/> <path d="M8.576,8.625l5.456-5.5v3.53h1.623V1.23A.886.886,0,0,0,14.77.345H9.343V1.968H12.9L7.424,7.482Z" fill="#010101"/> </g> </g>
</symbol>

<symbol id="no-activity" class="symbol" viewBox="0 0 16 16">
  <title>no-activity</title><g id="Layer_1" data-name="Layer 1"> <path d="M8.233,13.808H8.2a.653.653,0,0,1-.6-.483L5.583,5.664,4.148,9.448a.647.647,0,0,1-.607.42h-1.7a.651.651,0,0,1,0-1.3H3.092L5.086,3.306a.65.65,0,0,1,1.236.065l2.01,7.613,1.793-4.936a.65.65,0,0,1,.58-.427.68.68,0,0,1,.618.37l1.228,2.576h1.786a.651.651,0,0,1,0,1.3h-2.2a.651.651,0,0,1-.587-.371l-.737-1.546L8.845,13.379A.652.652,0,0,1,8.233,13.808Z" fill="#010101"/> </g>
</symbol>

<symbol id="notebook-outline" class="symbol" viewBox="0 0 16 16">
  <title>notebook-outline</title><g id="Layer_1" data-name="Layer 1"> <path d="M13.937-.006H2.584A1.117,1.117,0,0,0,1.409,1.169V2.3H.787a.558.558,0,1,0,0,1.115h.622V5.7H.841a.558.558,0,1,0,0,1.116h.568v2.3H.828a.558.558,0,0,0,0,1.116h.581v2.286H.828a.558.558,0,0,0,0,1.115h.581V14.8a1.071,1.071,0,0,0,1.148,1.139h11.38a1.709,1.709,0,0,0,1.709-1.709V1.7A1.709,1.709,0,0,0,13.937-.006ZM2.548,14.8V13.638h.593a.558.558,0,1,0,0-1.115H2.548V10.237h.593a.558.558,0,0,0,0-1.116H2.548v-2.3h.605a.558.558,0,1,0,0-1.116h-.6V3.411H3.1A.558.558,0,1,0,3.1,2.3H2.548V1.169a.183.183,0,0,1,0-.035h9.108V14.8Zm11.959-.57a.57.57,0,0,1-.57.57H12.8V1.133h1.139a.571.571,0,0,1,.57.57Z" fill="#231f20"/> </g>
</symbol>

<symbol id="pco-people" class="symbol" viewBox="0 0 16 16">
  <title>pco-people</title><g id="Layer_1" data-name="Layer 1"> <g> <path d="M2.065,6.1C.552,6.1.174,6.476.174,7.989S.552,9.88,2.065,9.88,3.957,9.5,3.957,7.989,3.578,6.1,2.065,6.1ZM1.717,7.179a.383.383,0,1,1-.383.383A.383.383,0,0,1,1.717,7.179ZM2.3,8.8H1.133V8.45a.35.35,0,0,1,.35-.35h.466a.35.35,0,0,1,.35.35Zm.3-1.392a.288.288,0,1,1-.288.288A.288.288,0,0,1,2.6,7.408ZM3,8.566H2.415V8.449a.446.446,0,0,0-.038-.182.123.123,0,0,0-.012-.026L2.353,8.22a.187.187,0,0,0-.017-.031A.215.215,0,0,1,2.508,8.1h.28A.21.21,0,0,1,3,8.309Z" fill="#010101"/> <g> <path d="M5.888,7.066a.9.9,0,0,0-.583.209l-.037-.092a.1.1,0,0,0-.1-.076h-.1a.114.114,0,0,0-.112.112V9.79a.113.113,0,0,0,.112.112h.228a.11.11,0,0,0,.12-.112V8.966a1.071,1.071,0,0,0,.46.115A.961.961,0,0,0,6.8,8.072.952.952,0,0,0,5.888,7.066Zm.46,1.006a.55.55,0,0,1-.529.578A.773.773,0,0,1,5.4,8.521V7.744A.5.5,0,0,1,5.835,7.5.528.528,0,0,1,6.348,8.072Z" fill="#010101"/> <path d="M7.917,7.066a.962.962,0,0,0-.961,1.006.956.956,0,0,0,.965,1.009,1.082,1.082,0,0,0,.712-.238.1.1,0,0,0,.012-.155l-.11-.172a.091.091,0,0,0-.056-.041.112.112,0,0,0-.085.028.71.71,0,0,1-.449.155.534.534,0,0,1-.54-.471H8.684a.109.109,0,0,0,.107-.1c0-.034.009-.1.009-.134A.866.866,0,0,0,7.917,7.066Zm-.008.391a.421.421,0,0,1,.441.385H7.428A.456.456,0,0,1,7.909,7.457Z" fill="#010101"/> <path d="M9.916,7.066a1.008,1.008,0,1,0,.981,1A1.007,1.007,0,0,0,9.916,7.066Zm.537,1a.541.541,0,1,1-1.078,0,.54.54,0,1,1,1.078,0Z" fill="#010101"/> <path d="M12.091,7.066a.9.9,0,0,0-.583.209l-.037-.092a.1.1,0,0,0-.1-.076h-.1a.114.114,0,0,0-.112.112V9.79a.112.112,0,0,0,.112.112H11.5a.11.11,0,0,0,.12-.112V8.965a1.037,1.037,0,0,0,.46.116A.961.961,0,0,0,13,8.072.952.952,0,0,0,12.091,7.066Zm-.484.678a.5.5,0,0,1,.431-.246.527.527,0,0,1,.512.574.549.549,0,0,1-.529.578.768.768,0,0,1-.414-.129Z" fill="#010101"/> <rect x="13.268" y="6.241" width="0.452" height="2.795" rx="0.112" ry="0.112" fill="#010101"/> <path d="M14.943,7.066a.962.962,0,0,0-.961,1.006.956.956,0,0,0,.965,1.009,1.08,1.08,0,0,0,.712-.238.1.1,0,0,0,.012-.155l-.11-.172a.091.091,0,0,0-.056-.041.112.112,0,0,0-.085.028.71.71,0,0,1-.449.155.534.534,0,0,1-.54-.471H15.71a.109.109,0,0,0,.107-.1,1.206,1.206,0,0,0,.009-.134A.866.866,0,0,0,14.943,7.066Zm-.008.391a.423.423,0,0,1,.442.385h-.923A.456.456,0,0,1,14.935,7.457Z" fill="#010101"/> </g> </g> </g>
</symbol>

<symbol id="pencil" class="symbol" viewBox="0 0 16 16">
  <title>pencil</title><g id="Layer_1" data-name="Layer 1"> <path d="M14.909,2.787,13.17,1.048a1.664,1.664,0,0,0-2.349,0l-9.14,9.14L.655,14.161a.936.936,0,0,0,.908,1.171A.925.925,0,0,0,1.8,15.3l3.972-1.027,9.141-9.14A1.663,1.663,0,0,0,14.909,2.787ZM3.026,11.145l1.786,1.786L2.4,13.553Zm10.793-7.1L5.962,11.9,4.055,9.994l7.856-7.856a.121.121,0,0,1,.169,0l1.739,1.739A.12.12,0,0,1,13.819,4.045Z" fill="#010101"/> </g>
</symbol>

<symbol id="person-arrow" class="symbol" viewBox="0 0 16 16">
  <title>person-arrow</title><g id="Layer_1" data-name="Layer 1"> <g> <path d="M5.852,7.938a3.8,3.8,0,1,1,3.8-3.8A3.805,3.805,0,0,1,5.852,7.938Zm0-6.325A2.524,2.524,0,1,0,8.377,4.137,2.527,2.527,0,0,0,5.852,1.613Z"/> <path d="M7.718,15.664H2.129a2.005,2.005,0,0,1-2-2V10.58A2.413,2.413,0,0,1,1.674,8.336L5.852,6.75l4.311,1.637A.638.638,0,1,1,9.71,9.58L5.852,8.116,2.127,9.53A1.131,1.131,0,0,0,1.4,10.58v3.081a.727.727,0,0,0,.727.726H7.718a.639.639,0,0,1,0,1.277Z"/> </g> <path d="M8.88,11.879H14l-1.747-1.634a.513.513,0,0,1,0-.759.6.6,0,0,1,.809,0l2.585,2.42a.689.689,0,0,1,0,1.019l-2.563,2.4a.6.6,0,0,1-.809,0,.512.512,0,0,1,0-.758L14,12.951H8.88a.537.537,0,1,1,0-1.072Z"/> </g>
</symbol>

<symbol id="person-outline" class="symbol" viewBox="0 0 16 16">
  <title>person-outline</title><g id="Layer_1" data-name="Layer 1"> <path d="M12.839,8.293,9.815,7.043a3.728,3.728,0,1,0-3.417,0L3.375,8.292a2.416,2.416,0,0,0-1.495,2.24v3.046A2.422,2.422,0,0,0,4.3,16h7.624a2.421,2.421,0,0,0,2.415-2.422V10.532A2.412,2.412,0,0,0,12.839,8.293ZM5.658,3.739A2.449,2.449,0,1,1,8.107,6.2,2.456,2.456,0,0,1,5.658,3.739Zm7.4,9.839a1.139,1.139,0,0,1-1.136,1.139H4.3a1.139,1.139,0,0,1-1.136-1.139V10.532a1.136,1.136,0,0,1,.7-1.054L8.107,7.725l4.245,1.753a1.136,1.136,0,0,1,.7,1.054Z" fill="#231f20"/> </g>
</symbol>

<symbol id="person-pencil" class="symbol" viewBox="0 0 16 16">
  <title>person-pencil</title><g id="Layer_1" data-name="Layer 1"> <path d="M3.263,8.4,7.079,6.849l2.695,1.1a.576.576,0,0,0,.75-.309.566.566,0,0,0-.312-.742l-1.6-.651a3.3,3.3,0,0,0,1.815-2.93,3.352,3.352,0,0,0-6.7,0,3.3,3.3,0,0,0,1.816,2.93L2.825,7.353A2.139,2.139,0,0,0,1.481,9.338v2.7a2.162,2.162,0,0,0,2.171,2.147H6.024a.569.569,0,1,0,0-1.137H3.652a1.017,1.017,0,0,1-1.022-1.01v-2.7A1.008,1.008,0,0,1,3.263,8.4ZM4.877,3.315a2.2,2.2,0,1,1,2.2,2.179A2.192,2.192,0,0,1,4.877,3.315Zm9.739,4.564-1.025-.708a1.157,1.157,0,0,0-.858-.187,1.138,1.138,0,0,0-.739.468L7.9,13.253l.017,2.077a.677.677,0,0,0,.291.549.692.692,0,0,0,.62.082l1.979-.7L14.9,9.46A1.129,1.129,0,0,0,14.616,7.879Zm-4.542,6.433-1.012.358-.009-1.064,3.88-5.5,1.024.705Z" fill="#231f20"/> </g>
</symbol>

<symbol id="phone-outline" class="symbol" viewBox="0 0 16 16">
  <title>phone-outline</title><g id="Layer_1" data-name="Layer 1"> <path d="M12.916.015H3.745a.989.989,0,0,0-.986.993V14.917a.99.99,0,0,0,.986.994h9.171a.99.99,0,0,0,.986-.994V1.008A.989.989,0,0,0,12.916.015Zm-.754,13.908a.228.228,0,0,1-.232.223h-7.2a.228.228,0,0,1-.232-.223V2a.229.229,0,0,1,.232-.224h7.2A.229.229,0,0,1,12.162,2Zm-3.73-2.812A1.025,1.025,0,1,0,9.5,12.135,1.045,1.045,0,0,0,8.432,11.111Z" fill="#231f20"/> </g>
</symbol>

<symbol id="phone" class="symbol" viewBox="0 0 16 16">
  <title>phone</title><g id="Layer_1" data-name="Layer 1"> <path d="M2.541,6.033A26.8,26.8,0,0,0,9.63,14.648l1.081.861a1.757,1.757,0,0,0,2.217-.023h0l1.892-1.57.307-.256a1.3,1.3,0,0,0,.174-1.832l-1.452-1.765a1.293,1.293,0,0,0-1.825-.174l-1.83,1.519a26.791,26.791,0,0,1-4.378-5.32l1.83-1.519a1.306,1.306,0,0,0,.173-1.833L6.367.972A1.291,1.291,0,0,0,4.543.8l-.308.255L2.343,2.623h0A1.774,1.774,0,0,0,1.9,4.805Z" fill="#231f20"/> </g>
</symbol>

<symbol id="photo-outline" class="symbol" viewBox="0 0 16 16">
  <title>photo-outline</title><g id="Layer_1" data-name="Layer 1"> <path d="M14.61.063H1.478A1.4,1.4,0,0,0,.115,1.487V14.5A1.4,1.4,0,0,0,1.478,15.92H14.61A1.4,1.4,0,0,0,15.972,14.5V1.487A1.4,1.4,0,0,0,14.61.063ZM14.981,14.5a.407.407,0,0,1-.371.434H1.478a.407.407,0,0,1-.372-.434V1.487a.406.406,0,0,1,.372-.433H14.61a.406.406,0,0,1,.371.433ZM6.061,4.027A1.982,1.982,0,1,0,8.044,6.009,1.984,1.984,0,0,0,6.061,4.027ZM6.061,7a.991.991,0,1,1,.991-.991A.992.992,0,0,1,6.061,7ZM13.5,2.045H2.593a.5.5,0,0,0-.5.5v9.911a.5.5,0,0,0,.5.5H13.5a.5.5,0,0,0,.5-.5V2.54A.5.5,0,0,0,13.5,2.045ZM3.584,11.956a.478.478,0,0,1-.228-.063l1.93-1.93a.5.5,0,0,1,.7,0L7.98,11.956ZM13,11.46a.5.5,0,0,1-.5.5H9.381l-1.7-1.7,2.62-2.619a.5.5,0,0,1,.7,0L13,9.633Zm0-3.228L11.707,6.94a1.489,1.489,0,0,0-2.1,0L6.985,9.559l-.3-.3a1.491,1.491,0,0,0-2.1,0l-1.5,1.5V3.531a.5.5,0,0,1,.5-.5H12.5a.5.5,0,0,1,.5.5Z" fill="#231f20"/> </g>
</symbol>

<symbol id="photo-upload" class="symbol" viewBox="0 0 16 16">
  <title>photo-upload</title><g id="Layer_1" data-name="Layer 1"> <path d="M12.03,12.311H2.005v-7H8v-2H.9a.892.892,0,0,0-.9.976v9.181a.844.844,0,0,0,.9.842H12.981a.925.925,0,0,0,.975-.842V9.327l-1.926,0Zm-9.219-.994L11,11.278l-.006-2.235L9.875,7.351,8.07,9.722,6.393,8.151ZM5.43,7.2a.924.924,0,1,0-.924.922A.924.924,0,0,0,5.43,7.2Zm7.608-5.988-2.973,4.1h1.918l0,2H14v-2h2Z" fill="#231f20"/> </g>
</symbol>

<symbol id="pulse-simple" class="symbol" viewBox="0 0 16 16">
  <title>pulse-simple</title><g id="Layer_1" data-name="Layer 1"> <path d="M9.3,14.473H9.257a1.057,1.057,0,0,1-1.009-.848L6.215,4.107l-1.358,4a1.2,1.2,0,0,1-1.138.816H.733a.733.733,0,0,1,0-1.466h2.8L5.285,2.285A1.073,1.073,0,0,1,7.35,2.4l2.005,9.387L10.4,8.205a1.208,1.208,0,0,1,1.154-.867h3.715a.733.733,0,1,1,0,1.466H11.75L10.326,13.7A1.057,1.057,0,0,1,9.3,14.473Z" fill="#231f20"/> </g>
</symbol>

<symbol id="r-arr-thin" class="symbol" viewBox="0 0 16 16">
  <title>r-arr-thin</title><g id="Layer_1" data-name="Layer 1"> <path d="M1.625,6.736h9.553L6.967,2.8a1.235,1.235,0,0,1,0-1.828,1.445,1.445,0,0,1,1.951,0L15.149,6.8a1.663,1.663,0,0,1,0,2.456L8.971,15.041a1.447,1.447,0,0,1-1.952,0,1.237,1.237,0,0,1,0-1.828l4.159-3.891H1.625A1.338,1.338,0,0,1,.246,8.03,1.338,1.338,0,0,1,1.625,6.736Z" fill="#231f20"/> </g>
</symbol>

<symbol id="received-email" class="symbol" viewBox="0 0 16 16">
  <title>received-email</title><g id="Layer_1" data-name="Layer 1"> <path d="M8.887,4.713H1.112A1.134,1.134,0,0,0,0,5.866v4.689a1.134,1.134,0,0,0,1.112,1.153H8.887A1.134,1.134,0,0,0,10,10.555V5.866A1.134,1.134,0,0,0,8.887,4.713ZM1.112,5.7H8.887a.163.163,0,0,1,.153.119L5.018,8.309H5.006L.962,5.8A.163.163,0,0,1,1.112,5.7ZM.95,9.839v-2.9L3.017,8.223Zm.444.885L3.9,8.769l.621.385a.936.936,0,0,0,.988,0l.621-.385,2.5,1.955Zm7.656-.9-2.043-1.6L9.05,6.957Zm6.457-3.877H11.434a.5.5,0,0,0,0,1h4.073a.5.5,0,0,0,0-1ZM14.253,7.711H11.434a.5.5,0,0,0,0,1h2.819a.5.5,0,0,0,0-1ZM12.844,9.48h-1.41a.5.5,0,0,0,0,1h1.41a.5.5,0,0,0,0-1Z" fill="#231f20"/> </g>
</symbol>

<symbol id="refresh" class="symbol" viewBox="0 0 16 16">
  <title>refresh</title><g id="Layer_1" data-name="Layer 1"> <g id="Your_Icon" data-name="Your Icon"> <path id="refresh-3-icon" d="M12.585,3.876,11.147,5.315a4.318,4.318,0,0,0-7.37,3.054H5.454L2.775,11.047.1,8.369H1.742A6.352,6.352,0,0,1,12.585,3.876Zm3.43,4.271L13.339,5.469,10.661,8.147h1.677A4.318,4.318,0,0,1,4.968,11.2L3.529,12.64A6.353,6.353,0,0,0,14.373,8.147h1.642Z" fill="#010101"/> </g> </g>
</symbol>

<symbol id="report" class="symbol" viewBox="0 0 16 16">
  <title>report</title><g id="Layer_1" data-name="Layer 1"> <path d="M14.56.038H1.431A1.42,1.42,0,0,0,.019,1.46V14.613a1.411,1.411,0,0,0,1.413,1.412H14.561a1.411,1.411,0,0,0,1.411-1.412V1.449A1.411,1.411,0,0,0,14.56.038Zm-.18,14.106a.155.155,0,0,1-.144.156H1.757a.146.146,0,0,1-.146-.146V1.918a.156.156,0,0,1,.146-.156H14.234a.146.146,0,0,1,.146.146Z" fill="#010101"/> <g> <rect x="2.759" y="11.149" width="2.235" height="2.048" fill="#010101"/> <rect x="5.505" y="8.592" width="2.235" height="4.604" fill="#010101"/> <rect x="8.251" y="3.989" width="2.235" height="9.208" fill="#010101"/> <rect x="10.998" y="6.882" width="2.235" height="6.314" fill="#010101"/> </g> </g>
</symbol>

<symbol id="sent-email" class="symbol" viewBox="0 0 16 16">
  <title>sent-email</title><g id="Layer_1" data-name="Layer 1"> <path d="M6.1,5.866v4.689a1.134,1.134,0,0,0,1.112,1.153h7.775A1.134,1.134,0,0,0,16.1,10.555V5.866a1.134,1.134,0,0,0-1.112-1.153H7.216A1.134,1.134,0,0,0,6.1,5.866ZM15.141,5.8,11.1,8.309h-.012L7.063,5.816A.163.163,0,0,1,7.216,5.7h7.775A.163.163,0,0,1,15.141,5.8ZM13.086,8.223l2.068-1.282v2.9Zm-5.613,2.5,2.5-1.955.621.385a.936.936,0,0,0,.988,0l.621-.385,2.5,1.955Zm-.42-3.767L9.1,8.223l-2.043,1.6ZM.1,6.442a.5.5,0,0,0,.493.5H4.669a.5.5,0,0,0,0-1H.6A.5.5,0,0,0,.1,6.442ZM1.357,8.211a.5.5,0,0,0,.493.5H4.669a.5.5,0,0,0,0-1H1.85A.5.5,0,0,0,1.357,8.211ZM2.766,9.98a.5.5,0,0,0,.493.5h1.41a.5.5,0,0,0,0-1H3.259A.5.5,0,0,0,2.766,9.98Z" fill="#231f20"/> </g>
</symbol>

<symbol id="simple-people" class="symbol" viewBox="0 0 16 16">
  <title>simple-people</title><g id="Layer_1" data-name="Layer 1"> <circle cx="12.282" cy="5.783" r="2.295" fill="#231f20"/> <circle cx="4.949" cy="4.666" r="3.06" fill="#231f20"/> <path d="M13.6,9.01H10.96a2.331,2.331,0,0,0-.712.111.337.337,0,0,0-.148.541,3.626,3.626,0,0,1,.845,2.327v.433a.478.478,0,0,0,.479.479h4.187a.359.359,0,0,0,.36-.359V11.377A2.367,2.367,0,0,0,13.6,9.01Z" fill="#231f20" fill-rule="evenodd"/> <path d="M9.39,14.161H.509a.479.479,0,0,1-.479-.479V12.128A3.157,3.157,0,0,1,3.186,8.971H6.713a3.157,3.157,0,0,1,3.156,3.157v1.554A.479.479,0,0,1,9.39,14.161Z" fill="#231f20" fill-rule="evenodd"/> </g>
</symbol>

<symbol id="skip-step" class="symbol" viewBox="0 0 16 16">
  <title>skip-step</title><g id="Layer_1" data-name="Layer 1"> <g> <polygon points="10.022 13.912 8.011 11.901 11.977 7.934 8.011 3.967 10.022 1.956 16 7.934 10.022 13.912" fill="#010101"/> <polygon points="2.357 13.912 0.346 11.901 4.313 7.934 0.346 3.967 2.357 1.956 8.336 7.934 2.357 13.912" fill="#010101"/> </g> </g>
</symbol>

<symbol id="sms" class="symbol" viewBox="0 0 16 16">
  <title>sms</title><g id="Layer_1" data-name="Layer 1"> <g> <path d="M11.3.528H4.66A4.636,4.636,0,0,0,.03,5.159V8.515a4.58,4.58,0,0,0,1.3,3.192L1.109,15.7l4.542-2.549H11.3A4.636,4.636,0,0,0,15.93,8.515V5.159A4.637,4.637,0,0,0,11.3.528ZM5.219,11.546,2.784,13.1l.209-2.057-.221-.179A3.016,3.016,0,0,1,1.626,8.515V5.159A3.037,3.037,0,0,1,4.66,2.125H11.3a3.037,3.037,0,0,1,3.034,3.034V8.515A3.037,3.037,0,0,1,11.3,11.549Z" fill="#231f20"/> <circle cx="8.103" cy="6.837" r="1.298" fill="#231f20"/> <path d="M4.579,5.539a1.3,1.3,0,1,0,1.3,1.3A1.3,1.3,0,0,0,4.579,5.539Z" fill="#231f20"/> <path d="M12.926,6.837a1.3,1.3,0,1,0-1.3,1.3A1.3,1.3,0,0,0,12.926,6.837Z" fill="#231f20"/> </g> </g>
</symbol>

<symbol id="star-closed" class="symbol" viewBox="0 0 16 16">
  <title>star-closed</title><g id="Layer_1" data-name="Layer 1"> <path d="M15.224,6.318a.624.624,0,0,0-.505-.425l-4.256-.618-1.9-3.856a.651.651,0,0,0-1.122,0l-1.9,3.856-4.256.618A.624.624,0,0,0,.935,6.959l3.079,3L3.287,14.2a.625.625,0,0,0,.907.658l3.806-2,3.806,2a.625.625,0,0,0,.658-.047.625.625,0,0,0,.249-.611l-.727-4.24,3.079-3A.626.626,0,0,0,15.224,6.318Z" fill="#231f20"/> </g>
</symbol>

<symbol id="star-open" class="symbol" viewBox="0 0 16 16">
  <title>star-open</title><g id="Layer_1" data-name="Layer 1"> <path d="M12.1,14.93a.617.617,0,0,1-.291-.072L8,12.857l-3.806,2a.625.625,0,0,1-.907-.658l.727-4.24-3.079-3a.624.624,0,0,1,.346-1.066l4.256-.618,1.9-3.856a.651.651,0,0,1,1.122,0l1.9,3.856,4.256.618a.624.624,0,0,1,.346,1.066l-3.079,3,.727,4.24a.625.625,0,0,1-.616.73ZM8,11.526a.623.623,0,0,1,.291.072l2.976,1.565L10.7,9.848a.629.629,0,0,1,.18-.553l2.408-2.347L9.958,6.464a.624.624,0,0,1-.47-.341L8,3.107,6.512,6.123a.624.624,0,0,1-.47.341l-3.328.484L5.122,9.3a.629.629,0,0,1,.18.553l-.569,3.315L7.709,11.6A.623.623,0,0,1,8,11.526Z" fill="#231f20"/> </g>
</symbol>

<symbol id="step-back" class="symbol" viewBox="0 0 16 16">
  <title>step-back</title><g id="Layer_1" data-name="Layer 1"> <polygon points="13.05 6.984 6.84 6.984 8.687 5.137 7.25 3.7 2.95 8 7.25 12.3 8.687 10.863 6.84 9.016 13.05 9.016 13.05 6.984" fill="#010101"/> </g>
</symbol>

<symbol id="success-uploading" class="symbol" viewBox="0 0 16 16">
  <title>success-uploading</title><g id="Layer_1" data-name="Layer 1"> <path d="M14,5.342H10.6A1.082,1.082,0,0,1,9.51,4.269V.87a.849.849,0,0,1,1.448-.6L14.591,3.9A.842.842,0,0,1,14,5.342ZM10.873,3.98H12.74L10.873,2.115Z" fill="#010101"/> <path d="M13.775,15.981H2.625A1.067,1.067,0,0,1,1.56,14.916V1.084A1.067,1.067,0,0,1,2.625.019H10.3V1.382H2.923V14.618H13.477V4.535H14.84V14.916A1.067,1.067,0,0,1,13.775,15.981Z" fill="#010101"/> <path d="M7.921,10.24a.931.931,0,0,1-.659-.272l-1.02-1.02a.681.681,0,1,1,.964-.963l.716.716L9.573,7.049a.681.681,0,0,1,.964.963L8.582,9.967A.933.933,0,0,1,7.921,10.24Z" fill="#010101"/> </g>
</symbol>

<symbol id="twitter-outline" class="symbol" viewBox="0 0 16 16">
  <title>twitter-outline</title><g id="Layer_1" data-name="Layer 1"> <path d="M15.6,3.012a1.219,1.219,0,0,0-1.812-1.235,4.358,4.358,0,0,1-.851.378,4.062,4.062,0,0,0-2.33-.739A3.99,3.99,0,0,0,6.69,4.555,6.746,6.746,0,0,1,3.106,2.348a1.19,1.19,0,0,0-1.024-.433,1.217,1.217,0,0,0-.947.588A3.884,3.884,0,0,0,.777,5.711a1.278,1.278,0,0,0-.217.734,3.885,3.885,0,0,0,.98,2.577,1.246,1.246,0,0,0,.055.506A3.9,3.9,0,0,0,2.4,10.923a4.655,4.655,0,0,1-1.029,0,1.223,1.223,0,0,0-1.288.811,1.241,1.241,0,0,0,.508,1.453,9.219,9.219,0,0,0,4.894,1.4A8.959,8.959,0,0,0,14.6,5.91a6.737,6.737,0,0,0,1.135-1.257,1.216,1.216,0,0,0,.248-.742A1.234,1.234,0,0,0,15.6,3.012Zm-2.217,2.3c.006.116.008.233.008.35a7.739,7.739,0,0,1-7.9,7.7A8.01,8.01,0,0,1,1.234,12.14a5.564,5.564,0,0,0,.662.039A5.657,5.657,0,0,0,5.344,11.02,2.766,2.766,0,0,1,2.751,9.143a2.887,2.887,0,0,0,.522.048A2.839,2.839,0,0,0,4,9.1,2.724,2.724,0,0,1,1.777,6.445V6.41a2.821,2.821,0,0,0,1.258.339A2.686,2.686,0,0,1,1.8,4.5a2.631,2.631,0,0,1,.376-1.359A7.955,7.955,0,0,0,7.9,5.964a2.667,2.667,0,0,1-.072-.615,2.741,2.741,0,0,1,2.776-2.7,2.807,2.807,0,0,1,2.026.854,5.649,5.649,0,0,0,1.762-.656,2.727,2.727,0,0,1-1.22,1.5,5.686,5.686,0,0,0,1.594-.427A5.566,5.566,0,0,1,13.378,5.311Z" fill="#231f20"/> </g>
</symbol>

<symbol id="twitter" class="symbol" viewBox="0 0 16 16">
  <title>twitter</title><g id="Layer_1" data-name="Layer 1"> <path d="M.118,10.165s3.132,2.619,5.623.023a1.336,1.336,0,0,1-.683-.2,1.145,1.145,0,0,1-.341-.559s.775-.417.484-.731c0,0-1.714-.033-1.81-1.028L4.4,7.047a1,1,0,0,1-.787,0s-1.016-.7-.822-1.418l.849-.083S2.165,4.536,2.577,3.763c0,0,.141-.665,5.013,2.445,0,0,.859-2.939,2.446-3.585,0,0,.263.122.263.251,0,0,.226-.465.522-.508,0,0,.359.3.126.476,0,0,.6-.4.9-.2,0,0-.024.354-.892.793,0,0,2.252.12,3.038,3.007a2.4,2.4,0,0,0,1.893-.229s.076.426-1.347,1.029c0,0,.132.206,1.325.05,0,0-.009.853-1.9.846,0,0-1.595,4.44-5.469,5.052C3.789,13.936.481,11.673.118,10.165Z" fill="#231f20" fill-rule="evenodd"/> </g>
</symbol>

<symbol id="workflows" class="symbol" viewBox="0 0 16 16">
  <title>workflows</title><g id="Layer_1" data-name="Layer 1"> <g> <rect x="7.505" y="3.947" width="8.406" height="2.01" rx="0.658" ry="0.658" fill="#231f20"/> <rect x="7.505" y="10.534" width="8.406" height="2.01" rx="0.658" ry="0.658" fill="#231f20"/> <path d="M1.93,6.927.172,5.3a.474.474,0,0,1-.027-.67L.7,4.037a.474.474,0,0,1,.67-.026l.987.911L4.627,2.606A.474.474,0,0,1,5.3,2.6l.578.567a.475.475,0,0,1,.006.671L2.87,6.905A.675.675,0,0,1,1.93,6.927Z" fill="#231f20"/> <path d="M1.93,13.387.172,11.762a.475.475,0,0,1-.027-.671L.7,10.5a.473.473,0,0,1,.67-.027l.987.912L4.627,9.065A.475.475,0,0,1,5.3,9.059l.578.568a.475.475,0,0,1,.006.671L2.87,13.364A.674.674,0,0,1,1.93,13.387Z" fill="#231f20"/> </g> </g>
</symbol>
    </svg>