<svg xmlns="http://www.w3.org/2000/svg">
    
<symbol id="color-planning-center-badge" class="symbol" viewBox="0 0 174 32">
  <defs><linearGradient id="a" x1="15.841" y1="-.794" x2="15.841" y2="34.758" gradientUnits="userSpaceOnUse"><stop offset="0" stop-color="#1a6bfe"/><stop offset=".651" stop-color="#1d5ae1"/><stop offset=".999" stop-color="#1a56e3"/></linearGradient></defs><title id="title-color-planning-center-badge">color-planning-center-badge icon</title><path d="M122.888 20a5.164 5.164 0 0 1-5.228-5.085 5.264 5.264 0 0 1 5.252-5.133 4.469 4.469 0 0 1 3.632 1.73.5.5 0 0 1 .109.386.546.546 0 0 1-.214.346l-.817.723a.471.471 0 0 1-.306.142.624.624 0 0 1-.379-.2 2.819 2.819 0 0 0-2-.944A2.85 2.85 0 0 0 120.1 14.9a2.852 2.852 0 0 0 2.808 2.951 2.721 2.721 0 0 0 2.122-.951l.155-.146a.555.555 0 0 1 .386-.183.565.565 0 0 1 .341.131l.671.532c.289.224.355.49.183.729A4.452 4.452 0 0 1 122.888 20zm9.461 0a4.959 4.959 0 0 1-5.03-5.109 4.948 4.948 0 0 1 5.006-5.109 4.457 4.457 0 0 1 4.607 4.506 5.817 5.817 0 0 1-.049.658.494.494 0 0 1-.49.445h-6.63a2.7 2.7 0 0 0 2.735 2.5 4.272 4.272 0 0 0 2.183-.693 1.032 1.032 0 0 1 .445-.177.366.366 0 0 1 .285.161l.695.918a.49.49 0 0 1 .16.352.5.5 0 0 1-.217.33 5.9 5.9 0 0 1-3.7 1.218zm-.05-8.278a2.431 2.431 0 0 0-2.468 1.991l4.633.075a2.178 2.178 0 0 0-2.164-2.062zm13.829 8.041a.508.508 0 0 1-.515-.5v-4.947c0-1.515-.715-2.348-2.015-2.348a3.318 3.318 0 0 0-2.705 1.4l-.006 5.9c0 .35-.184.5-.613.5h-1.29a.521.521 0 0 1-.515-.5v-8.741a.52.52 0 0 1 .515-.5h.72a.445.445 0 0 1 .438.32l.241.665a6.176 6.176 0 0 1 3.487-1.227c2.661 0 4.188 1.687 4.188 4.627v4.85a.522.522 0 0 1-.516.5zM152.7 20c-2.307 0-2.574-1.663-2.574-2.913v-4.91l-1-.064a.509.509 0 0 1-.516-.5v-1.086a.5.5 0 0 1 .516-.5h.934l.064-3a.521.521 0 0 1 .515-.5l1.414-.024a.5.5 0 0 1 .49.5v2.961l2.487.064a.5.5 0 0 1 .515.5v1.086a.509.509 0 0 1-.515.5h-2.423l-.064 4.737c0 .853.37.925.75.925a3.993 3.993 0 0 0 1.493-.431.633.633 0 0 1 .254-.063.356.356 0 0 1 .122.021.491.491 0 0 1 .255.279l.447 1.063a.434.434 0 0 1-.243.63A7.68 7.68 0 0 1 152.7 20zm8.543 0a4.96 4.96 0 0 1-5.032-5.109 4.948 4.948 0 0 1 5.006-5.109 4.458 4.458 0 0 1 4.609 4.506 6.315 6.315 0 0 1-.05.658.494.494 0 0 1-.491.445h-6.631a2.7 2.7 0 0 0 2.736 2.5 4.283 4.283 0 0 0 2.183-.693 1.039 1.039 0 0 1 .446-.177.364.364 0 0 1 .283.161l.7.918a.406.406 0 0 1-.057.682A5.894 5.894 0 0 1 161.243 20zm-.051-8.278a2.432 2.432 0 0 0-2.469 1.991l4.633.075a2.179 2.179 0 0 0-2.164-2.062zm6.308 8.041a.521.521 0 0 1-.514-.5v-8.736a.52.52 0 0 1 .514-.5h.72a.518.518 0 0 1 .465.369l.209.627a4.306 4.306 0 0 1 2.923-1.238c.678 0 1.561.133 1.819.506a.438.438 0 0 1 .032.443l-.6 1.185a.462.462 0 0 1-.425.287.607.607 0 0 1-.229-.05 2.269 2.269 0 0 0-.825-.165 2.587 2.587 0 0 0-2.179 1.136l-.01 6.135c0 .461-.337.5-.713.5zm-115.1 0a1.593 1.593 0 0 1-1.617-1.563V6.282a.521.521 0 0 1 .516-.5h1.414a.52.52 0 0 1 .515.5v10.607a.494.494 0 0 0 .5.483h.2a.328.328 0 0 1 .333.321v1.747a.329.329 0 0 1-.333.323zm6.056.237a3.087 3.087 0 0 1-3.245-3.275c0-1.887 1.612-3.155 4.013-3.155a7.346 7.346 0 0 1 1.837.253c.083-.925-.032-1.392-.318-1.675a1.487 1.487 0 0 0-1.1-.329 10.437 10.437 0 0 0-2.766.433.585.585 0 0 1-.13.016c-.224 0-.392-.154-.47-.432l-.2-.894a.47.47 0 0 1 .351-.6 10.376 10.376 0 0 1 3.436-.559c3.252 0 3.517 1.965 3.517 4.336v5.141a.521.521 0 0 1-.515.5h-.7c-.261 0-.364-.128-.462-.363l-.193-.506A4.9 4.9 0 0 1 58.456 20zm.967-4.851c-1.193 0-1.965.609-1.965 1.552a1.422 1.422 0 0 0 1.469 1.5 2.906 2.906 0 0 0 2.179-1.159l.01-1.49a3.377 3.377 0 0 0-1.693-.399zm13.148 4.614a.508.508 0 0 1-.515-.5v-4.947c0-1.515-.716-2.348-2.015-2.348a3.31 3.31 0 0 0-2.7 1.4l-.006 5.9c0 .35-.184.5-.613.5h-1.29a.521.521 0 0 1-.515-.5v-8.741a.52.52 0 0 1 .515-.5h.719a.444.444 0 0 1 .439.319l.241.665a6.025 6.025 0 0 1 3.487-1.226c2.661 0 4.188 1.687 4.188 4.627v4.85a.522.522 0 0 1-.516.5zm11.383 0a.509.509 0 0 1-.515-.5v-4.947c0-1.515-.715-2.348-2.015-2.348a3.311 3.311 0 0 0-2.705 1.4v5.9c0 .35-.184.5-.615.5h-1.29a.521.521 0 0 1-.514-.5v-8.741a.52.52 0 0 1 .514-.5h.72a.443.443 0 0 1 .439.319l.242.665A6.15 6.15 0 0 1 81.7 9.786c2.661 0 4.187 1.687 4.187 4.627v4.85a.521.521 0 0 1-.515.5zm5.039-11.32a1.453 1.453 0 1 1 0-2.9 1.454 1.454 0 1 1 0 2.9zm-.67 11.32a.521.521 0 0 1-.515-.5v-8.736a.521.521 0 0 1 .515-.5h1.414a.521.521 0 0 1 .516.5v8.736a.522.522 0 0 1-.516.5zm11.583 0a.508.508 0 0 1-.514-.5v-4.947c0-1.515-.716-2.348-2.016-2.348a3.31 3.31 0 0 0-2.7 1.4v5.9c0 .346-.19.5-.615.5h-1.29a.522.522 0 0 1-.516-.5v-8.741a.521.521 0 0 1 .516-.5h.72a.444.444 0 0 1 .438.32l.242.664a6.151 6.151 0 0 1 3.479-1.225c1.563 0 4.186.6 4.186 4.627v4.85a.521.521 0 0 1-.515.5zm8.05 5.571a7.412 7.412 0 0 1-3.893-1.252.358.358 0 0 1-.118-.49l.544-1.043a.4.4 0 0 1 .526-.132 5.18 5.18 0 0 0 2.415.736 3.606 3.606 0 0 0 2.76-.986 2.272 2.272 0 0 0 .678-1.841l-.021-.2a6.872 6.872 0 0 1-2.692.637A5.156 5.156 0 0 1 103.1 15.3c0-3.146 2.126-5.518 4.945-5.518a4.615 4.615 0 0 1 3.266 1.27l.238-.719a.4.4 0 0 1 .389-.286h.983a.449.449 0 0 1 .444.431V20.7c0 2.641-2.167 4.545-5.271 4.63zm.416-13.388c-1.726 0-2.885 1.349-2.885 3.358a3.039 3.039 0 0 0 3 3.333 4.26 4.26 0 0 0 1.847-.429 1.088 1.088 0 0 0 .622-.988v-3.412a1.058 1.058 0 0 0-.184-.607 2.913 2.913 0 0 0-2.4-1.255zM39.841 24.822a.522.522 0 0 1-.516-.5V9.954a.448.448 0 0 1 .444-.431h.982a.4.4 0 0 1 .386.272l.131.82.088-.083a4.716 4.716 0 0 1 3.288-1.274c2.82 0 4.946 2.372 4.946 5.518a5.157 5.157 0 0 1-5.055 5.465 5.5 5.5 0 0 1-2.589-.683l-.1 4.764a.5.5 0 0 1-.564.5zm4.476-13.4a2.93 2.93 0 0 0-2.4 1.256 1.075 1.075 0 0 0-.184.607v3.412a1.09 1.09 0 0 0 .623.988 4.258 4.258 0 0 0 1.847.428 3.04 3.04 0 0 0 3-3.332c-.003-2.014-1.16-3.364-2.886-3.364z" fill="#252628" role="presentation"/><path d="M20.653 12.719l-3.608 1.152a4.028 4.028 0 0 1-2.386.021L11.025 12.8a.305.305 0 0 0-.393.292v4.407a.306.306 0 0 0 .217.293l4.435 1.33a1.834 1.834 0 0 0 1.083-.009l4.474-1.428a.305.305 0 0 0 .212-.291V13.01a.305.305 0 0 0-.4-.291z" fill="url(#a)" role="presentation"/><path d="M28.047 3.243L18.423.38a9.063 9.063 0 0 0-5.165 0L3.634 3.243A5.189 5.189 0 0 0 0 8.194v15.621a5.19 5.19 0 0 0 3.634 4.951l9.624 2.862a9.045 9.045 0 0 0 5.165 0l9.624-2.862a5.19 5.19 0 0 0 3.634-4.951V8.194a5.189 5.189 0 0 0-3.634-4.951zm-3.786 15.151a2.275 2.275 0 0 1-1.624 2.18l-5.625 1.681a4.034 4.034 0 0 1-2.314 0l-3.791-1.136a.215.215 0 0 0-.278.206v2.563a.807.807 0 0 1-1.038.774L8 24.188a.808.808 0 0 1-.578-.775v-11.91a2.275 2.275 0 0 1 2.918-2.182l4.952 1.455a1.825 1.825 0 0 0 1.063-.009l4.951-1.55a2.275 2.275 0 0 1 2.955 2.171z" fill="url(#a)" role="presentation"/>
</symbol>

<symbol id="color-planning-center-mark" class="symbol" viewBox="0 0 32 32">
  <defs><linearGradient id="a" x1="16" y1="-.798" x2="16" y2="34.754" gradientUnits="userSpaceOnUse"><stop offset="0" stop-color="#1a6bfe"/><stop offset=".651" stop-color="#1d5ae1"/><stop offset=".999" stop-color="#1a56e3"/></linearGradient><linearGradient id="b" x1="16" y1="-.798" x2="16" y2="34.754" xlink:href="#a"/></defs><title id="title-color-planning-center-mark">color-planning-center-mark icon</title><path d="M20.812 12.714L17.2 13.867a4.044 4.044 0 0 1-2.386.021l-3.63-1.088a.306.306 0 0 0-.393.293V17.5a.3.3 0 0 0 .218.292l4.435 1.331a1.823 1.823 0 0 0 1.082-.01L21 17.684a.307.307 0 0 0 .213-.291v-4.388a.306.306 0 0 0-.401-.291z" fill="url(#a)" role="presentation"/><path d="M28.207 3.238L18.583.376a9.066 9.066 0 0 0-5.166 0L3.793 3.238A5.192 5.192 0 0 0 .159 8.19v15.62a5.192 5.192 0 0 0 3.634 4.952l9.624 2.862a9.066 9.066 0 0 0 5.166 0l9.624-2.862a5.192 5.192 0 0 0 3.634-4.952V8.19a5.192 5.192 0 0 0-3.634-4.952zM24.42 18.39a2.276 2.276 0 0 1-1.62 2.18l-5.625 1.681a4.042 4.042 0 0 1-2.314 0l-3.792-1.137a.216.216 0 0 0-.277.207v2.562a.809.809 0 0 1-1.039.775l-1.592-.473a.809.809 0 0 1-.578-.775V11.5A2.275 2.275 0 0 1 10.5 9.317l4.952 1.455a1.836 1.836 0 0 0 1.064-.009l4.95-1.55a2.275 2.275 0 0 1 2.955 2.171z" fill="url(#b)" role="presentation"/>
</symbol>

<symbol id="light-planning-center-badge" class="symbol" viewBox="0 0 174 32">
  <title id="title-light-planning-center-badge">light-planning-center-badge icon</title><path d="M123.055 19.959a5.116 5.116 0 0 1-5.18-5.037 5.215 5.215 0 0 1 5.2-5.084 4.424 4.424 0 0 1 3.594 1.713.436.436 0 0 1 .1.347.5.5 0 0 1-.2.315l-.82.726a.427.427 0 0 1-.274.128.575.575 0 0 1-.344-.185 2.86 2.86 0 0 0-2.035-.959 2.9 2.9 0 0 0-2.881 2.976 2.9 2.9 0 0 0 2.857 3 2.76 2.76 0 0 0 2.151-.96l.159-.151a.509.509 0 0 1 .353-.169.528.528 0 0 1 .312.121l.67.531c.268.209.329.444.173.663a4.409 4.409 0 0 1-3.835 2.025zm9.462 0a4.912 4.912 0 0 1-4.982-5.06 4.9 4.9 0 0 1 4.958-5.061 4.41 4.41 0 0 1 4.558 4.457 6.164 6.164 0 0 1-.048.651.446.446 0 0 1-.442.4h-6.631a2.668 2.668 0 0 0 2.735 2.6 4.325 4.325 0 0 0 2.209-.7 1 1 0 0 1 .419-.17.316.316 0 0 1 .248.144l.694.916a.36.36 0 0 1-.05.615 5.848 5.848 0 0 1-3.668 1.208zm-.05-8.278a2.477 2.477 0 0 0-2.516 2.031l4.68.133a2.164 2.164 0 0 0-2.164-2.164zm13.828 8.037a.46.46 0 0 1-.467-.451V14.32c0-1.546-.732-2.4-2.063-2.4a3.367 3.367 0 0 0-2.749 1.43l-.01 5.914c0 .32-.164.451-.565.451h-1.29a.471.471 0 0 1-.466-.451v-8.733a.471.471 0 0 1 .466-.451h.72a.4.4 0 0 1 .391.285l.243.669.247-.09a5.845 5.845 0 0 1 3.285-1.106c2.63 0 4.14 1.669 4.14 4.578v4.851a.472.472 0 0 1-.468.451zm6.57.241c-2.263 0-2.525-1.635-2.525-2.865v-4.913l-1.043-.113a.461.461 0 0 1-.471-.451v-1.086a.449.449 0 0 1 .467-.451h.934l.113-3.046a.471.471 0 0 1 .466-.452l1.415-.024a.452.452 0 0 1 .441.45v2.959l2.534.113a.448.448 0 0 1 .467.451v1.086a.459.459 0 0 1-.465.451h-2.423l-.113 4.784c0 .9.412.975.8.975a4.062 4.062 0 0 0 1.515-.436.608.608 0 0 1 .233-.057.324.324 0 0 1 .1.017.445.445 0 0 1 .228.254l.446 1.061a.389.389 0 0 1-.218.568 7.684 7.684 0 0 1-2.901.725zm8.545 0a4.913 4.913 0 0 1-4.983-5.06 4.9 4.9 0 0 1 4.957-5.061 4.411 4.411 0 0 1 4.56 4.457 6.163 6.163 0 0 1-.049.651.444.444 0 0 1-.443.4h-6.631a2.667 2.667 0 0 0 2.737 2.6 4.346 4.346 0 0 0 2.209-.7 1.006 1.006 0 0 1 .419-.17.317.317 0 0 1 .246.144l.7.916a.361.361 0 0 1-.049.615 5.85 5.85 0 0 1-3.673 1.208zm-.051-8.278a2.48 2.48 0 0 0-2.517 2.031l4.681.133a2.165 2.165 0 0 0-2.164-2.164zm6.31 8.037a.471.471 0 0 1-.465-.451v-8.736a.471.471 0 0 1 .465-.451h.72a.472.472 0 0 1 .418.331l.211.632.18-.064a4.122 4.122 0 0 1 2.789-1.141c.718 0 1.547.15 1.779.486a.394.394 0 0 1 .027.4L173.2 11.9a.415.415 0 0 1-.381.259.548.548 0 0 1-.211-.046 2.317 2.317 0 0 0-.843-.168 2.626 2.626 0 0 0-2.22 1.159l-.017 6.161c0 .417-.3.451-.666.451zm-115.106 0A1.543 1.543 0 0 1 51 18.2V6.286a.471.471 0 0 1 .468-.451h1.412a.47.47 0 0 1 .466.451v10.607a.542.542 0 0 0 .551.531h.2a.278.278 0 0 1 .284.273v1.747a.279.279 0 0 1-.284.274zm6.059.241a3.04 3.04 0 0 1-3.195-3.227c0-1.858 1.593-3.106 3.964-3.106a7.371 7.371 0 0 1 1.825.251c.14-.933.041-1.446-.271-1.757a1.534 1.534 0 0 0-1.132-.342 10.477 10.477 0 0 0-2.779.435.513.513 0 0 1-.116.015c-.2 0-.353-.142-.425-.4l-.2-.892a.422.422 0 0 1 .319-.544 10.463 10.463 0 0 1 3.422-.556c3.206 0 3.467 1.942 3.467 4.288v5.141a.47.47 0 0 1-.466.451h-.695c-.236 0-.326-.112-.416-.333l-.194-.505a5.318 5.318 0 0 1-3.108 1.081zm.968-4.85c-1.223 0-2.013.627-2.013 1.6a1.469 1.469 0 0 0 1.517 1.552 2.965 2.965 0 0 0 2.22-1.181l.018-1.517a3.167 3.167 0 0 0-1.742-.454zm13.148 4.609a.46.46 0 0 1-.467-.451V14.32c0-1.546-.733-2.4-2.064-2.4a3.359 3.359 0 0 0-2.748 1.43l-.01 5.914c0 .32-.164.451-.565.451h-1.29a.472.472 0 0 1-.467-.451v-8.733a.472.472 0 0 1 .467-.451h.719a.393.393 0 0 1 .392.284l.242.668.185-.05a5.867 5.867 0 0 1 3.348-1.144c2.63 0 4.139 1.669 4.139 4.578v4.851a.471.471 0 0 1-.467.451zm11.383 0a.46.46 0 0 1-.466-.451V14.32c0-1.546-.733-2.4-2.064-2.4a3.36 3.36 0 0 0-2.749 1.43l-.01 5.914c0 .32-.164.451-.565.451h-1.29a.47.47 0 0 1-.466-.451v-8.733a.47.47 0 0 1 .466-.451h.723a.393.393 0 0 1 .392.284l.243.668.249-.089a5.827 5.827 0 0 1 3.284-1.105c2.63 0 4.138 1.669 4.138 4.578v4.851a.471.471 0 0 1-.467.451zM89.161 8.4a1.4 1.4 0 1 1 0-2.808 1.405 1.405 0 1 1 0 2.808zm-.67 11.318a.471.471 0 0 1-.467-.451v-8.736a.471.471 0 0 1 .467-.451H89.9a.471.471 0 0 1 .468.451v8.736a.471.471 0 0 1-.468.451zm11.582 0a.459.459 0 0 1-.465-.451V14.32c0-1.546-.733-2.4-2.065-2.4a3.358 3.358 0 0 0-2.747 1.43l-.01 5.914c0 .316-.169.451-.565.451h-1.29a.472.472 0 0 1-.468-.451v-8.733a.472.472 0 0 1 .468-.451h.719a.4.4 0 0 1 .392.285l.242.667.248-.088a5.821 5.821 0 0 1 3.285-1.106c1.545 0 4.137.6 4.137 4.578v4.851a.47.47 0 0 1-.466.451zm8.05 5.571a7.349 7.349 0 0 1-3.866-1.244.311.311 0 0 1-.1-.425l.545-1.045a.346.346 0 0 1 .293-.155.341.341 0 0 1 .166.042 5.221 5.221 0 0 0 2.439.743 3.649 3.649 0 0 0 2.8-1 2.3 2.3 0 0 0 .691-1.876l-.021-.2a8.042 8.042 0 0 1-2.74.593 5.108 5.108 0 0 1-5.006-5.415c0-3.118 2.105-5.47 4.9-5.47a4.571 4.571 0 0 1 3.233 1.257l.317-.74c.085-.182.179-.252.344-.252h.982a.4.4 0 0 1 .4.382v10.223c0 2.613-2.147 4.5-5.223 4.581zm.417-13.389c-1.756 0-2.935 1.37-2.935 3.408a3.085 3.085 0 0 0 3.044 3.381 4.3 4.3 0 0 0 1.868-.434 1.136 1.136 0 0 0 .649-1.031v-3.413a1.115 1.115 0 0 0-.191-.634 2.966 2.966 0 0 0-2.435-1.277zM40.008 24.776a.471.471 0 0 1-.468-.45V9.957a.4.4 0 0 1 .4-.382h.982a.352.352 0 0 1 .343.245l.141.9.155-.146a4.666 4.666 0 0 1 3.254-1.259c2.792 0 4.9 2.35 4.9 5.468a5.109 5.109 0 0 1-5 5.417 5.461 5.461 0 0 1-2.567-.677l-.167 4.806c0 .283-.193.451-.516.451zm4.476-13.4a2.975 2.975 0 0 0-2.435 1.276 1.127 1.127 0 0 0-.192.634V16.7a1.137 1.137 0 0 0 .65 1.032 4.314 4.314 0 0 0 1.868.433 3.086 3.086 0 0 0 3.045-3.381c0-2.043-1.18-3.411-2.936-3.411zm-16.27-8.13L18.59.384a9.063 9.063 0 0 0-5.165 0L3.8 3.246A5.191 5.191 0 0 0 .167 8.2v15.62A5.191 5.191 0 0 0 3.8 28.77l9.624 2.862a9.063 9.063 0 0 0 5.165 0l9.624-2.862a5.191 5.191 0 0 0 3.634-4.952V8.2a5.191 5.191 0 0 0-3.633-4.954zM24.476 18.4a2.338 2.338 0 0 1-1.658 2.227l-5.624 1.68a4.087 4.087 0 0 1-2.343 0l-3.792-1.136h-.018c-.128 0-.2.071-.2.159v2.56a.858.858 0 0 1-.856.858.91.91 0 0 1-.246-.036l-1.592-.474a.863.863 0 0 1-.613-.821V11.506a2.32 2.32 0 0 1 2.98-2.228l4.951 1.455a1.8 1.8 0 0 0 .5.072 1.774 1.774 0 0 0 .532-.081l4.95-1.55a2.319 2.319 0 0 1 3.018 2.218z" fill="#f5f6f8" role="presentation"/><path d="M20.82 12.722l-3.608 1.153a4.044 4.044 0 0 1-2.386.021l-3.634-1.09a.305.305 0 0 0-.393.293v4.407a.3.3 0 0 0 .217.292l4.435 1.331a1.826 1.826 0 0 0 1.083-.01l4.474-1.427a.307.307 0 0 0 .212-.292v-4.387a.305.305 0 0 0-.4-.291z" fill="#f5f6f8" role="presentation"/>
</symbol>

<symbol id="light-planning-center-mark" class="symbol" viewBox="0 0 32 32">
  <title id="title-light-planning-center-mark">light-planning-center-mark icon</title><path d="M28.207 3.238L18.583.376a9.066 9.066 0 0 0-5.166 0L3.793 3.238A5.192 5.192 0 0 0 .159 8.19v15.62a5.192 5.192 0 0 0 3.634 4.952l9.624 2.862a9.066 9.066 0 0 0 5.166 0l9.624-2.862a5.192 5.192 0 0 0 3.634-4.952V8.19a5.192 5.192 0 0 0-3.634-4.952zM24.469 18.39a2.339 2.339 0 0 1-1.658 2.227L17.186 22.3a4.095 4.095 0 0 1-2.342 0l-3.792-1.136h-.019c-.128 0-.2.072-.2.159v2.564a.858.858 0 0 1-.856.857.9.9 0 0 1-.246-.036l-1.593-.473a.863.863 0 0 1-.612-.822v-11.91a2.327 2.327 0 0 1 2.32-2.325 2.358 2.358 0 0 1 .66.1l4.951 1.455a1.785 1.785 0 0 0 1.037-.008l4.95-1.551a2.321 2.321 0 0 1 3.018 2.218z" fill="#f5f6f8" role="presentation"/><path d="M20.812 12.714L17.2 13.867a4.036 4.036 0 0 1-2.386.021l-3.63-1.088a.306.306 0 0 0-.393.293V17.5a.3.3 0 0 0 .218.292l4.435 1.331a1.823 1.823 0 0 0 1.082-.01L21 17.684a.307.307 0 0 0 .213-.291v-4.388a.306.306 0 0 0-.401-.291z" fill="#f5f6f8" role="presentation"/>
</symbol>

<symbol id="planning-center-badge" class="symbol" viewBox="0 0 174 32">
  <title id="title-planning-center-badge">planning-center-badge icon</title><path d="M123.031 20.006a5.164 5.164 0 0 1-5.231-5.086 5.264 5.264 0 0 1 5.253-5.132 4.469 4.469 0 0 1 3.632 1.73.5.5 0 0 1 .108.386.542.542 0 0 1-.214.346l-.817.723a.467.467 0 0 1-.3.141.62.62 0 0 1-.379-.2 2.816 2.816 0 0 0-2-.945 2.851 2.851 0 0 0-2.832 2.928 2.852 2.852 0 0 0 2.808 2.951 2.717 2.717 0 0 0 2.121-.951l.155-.147a.562.562 0 0 1 .387-.182.57.57 0 0 1 .341.13l.671.533c.289.224.354.489.183.729a4.452 4.452 0 0 1-3.886 2.046zm9.461 0a4.959 4.959 0 0 1-5.03-5.109 4.948 4.948 0 0 1 5.006-5.109 4.457 4.457 0 0 1 4.607 4.506 5.782 5.782 0 0 1-.049.657.494.494 0 0 1-.49.445h-6.631a2.7 2.7 0 0 0 2.735 2.5 4.263 4.263 0 0 0 2.184-.694 1.027 1.027 0 0 1 .445-.177.361.361 0 0 1 .284.162l.7.918a.405.405 0 0 1-.058.682 5.9 5.9 0 0 1-3.703 1.219zm-.05-8.278a2.43 2.43 0 0 0-2.468 1.991l4.633.075a2.179 2.179 0 0 0-2.165-2.066zm13.828 8.036a.507.507 0 0 1-.514-.5v-4.946c0-1.515-.716-2.349-2.016-2.349a3.32 3.32 0 0 0-2.705 1.4v5.9c0 .35-.184.5-.614.5h-1.29a.52.52 0 0 1-.514-.5v-8.74a.52.52 0 0 1 .514-.5h.72a.446.446 0 0 1 .439.32l.241.665a6.173 6.173 0 0 1 3.487-1.227c2.66 0 4.187 1.686 4.187 4.626v4.851a.521.521 0 0 1-.516.5zm6.571.242c-2.308 0-2.575-1.663-2.575-2.913v-4.914l-1-.065a.507.507 0 0 1-.516-.5v-1.085a.5.5 0 0 1 .516-.5h.933l.064-3a.521.521 0 0 1 .515-.5l1.414-.025a.5.5 0 0 1 .491.5v2.961l2.487.065a.5.5 0 0 1 .514.5v1.086a.507.507 0 0 1-.514.5h-2.42l-.064 4.737c0 .854.37.926.749.926a4.016 4.016 0 0 0 1.494-.431.63.63 0 0 1 .254-.063.346.346 0 0 1 .121.021.493.493 0 0 1 .256.279l.446 1.063a.434.434 0 0 1-.242.63 7.692 7.692 0 0 1-2.923.728zm8.544 0a4.96 4.96 0 0 1-5.031-5.109 4.948 4.948 0 0 1 5.006-5.109 4.458 4.458 0 0 1 4.608 4.506 6.3 6.3 0 0 1-.05.657.492.492 0 0 1-.49.445H158.8a2.7 2.7 0 0 0 2.736 2.5 4.276 4.276 0 0 0 2.183-.694 1.048 1.048 0 0 1 .445-.177.363.363 0 0 1 .284.162l.7.918a.406.406 0 0 1-.058.682 5.89 5.89 0 0 1-3.705 1.219zm-.051-8.278a2.433 2.433 0 0 0-2.469 1.991l4.634.075a2.18 2.18 0 0 0-2.165-2.066zm6.311 8.036a.52.52 0 0 1-.514-.5v-8.735a.52.52 0 0 1 .514-.5h.719a.517.517 0 0 1 .465.368l.21.628a4.3 4.3 0 0 1 2.923-1.238c.677 0 1.561.133 1.819.506a.438.438 0 0 1 .032.443l-.6 1.185a.461.461 0 0 1-.424.287.6.6 0 0 1-.229-.05 2.248 2.248 0 0 0-.825-.165 2.583 2.583 0 0 0-2.179 1.136l-.01 6.135c0 .461-.338.5-.713.5zm-115.107 0a1.592 1.592 0 0 1-1.612-1.564V6.284a.522.522 0 0 1 .516-.5h1.414a.521.521 0 0 1 .515.5v10.607a.494.494 0 0 0 .5.483h.2a.327.327 0 0 1 .332.321v1.747a.328.328 0 0 1-.332.322zm6.062.242a3.087 3.087 0 0 1-3.244-3.275c0-1.887 1.612-3.155 4.013-3.155a7.415 7.415 0 0 1 1.837.252c.083-.924-.033-1.391-.318-1.675a1.488 1.488 0 0 0-1.1-.329 10.477 10.477 0 0 0-2.765.433.6.6 0 0 1-.13.017c-.225 0-.392-.154-.471-.432l-.2-.9a.471.471 0 0 1 .351-.6 10.4 10.4 0 0 1 3.437-.558c3.252 0 3.517 1.964 3.517 4.336v5.141a.521.521 0 0 1-.515.5h-.7c-.261 0-.364-.127-.461-.363l-.193-.506a4.894 4.894 0 0 1-3.058 1.114zm.968-4.851c-1.194 0-1.965.609-1.965 1.551a1.422 1.422 0 0 0 1.469 1.5 2.908 2.908 0 0 0 2.179-1.159l.01-1.491a3.393 3.393 0 0 0-1.695-.401zm13.145 4.609a.508.508 0 0 1-.515-.5v-4.946c0-1.515-.715-2.349-2.015-2.349a3.312 3.312 0 0 0-2.705 1.4v5.9c0 .35-.184.5-.614.5h-1.29a.521.521 0 0 1-.515-.5v-8.74a.521.521 0 0 1 .515-.5h.72a.445.445 0 0 1 .439.318l.241.666a6.019 6.019 0 0 1 3.487-1.226c2.66 0 4.187 1.686 4.187 4.626v4.851a.521.521 0 0 1-.516.5zm11.387 0a.507.507 0 0 1-.515-.5v-4.946c0-1.515-.715-2.349-2.015-2.349a3.312 3.312 0 0 0-2.7 1.4l-.006 5.9c0 .35-.184.5-.614.5h-1.29a.52.52 0 0 1-.514-.5v-8.74a.52.52 0 0 1 .514-.5h.719a.444.444 0 0 1 .44.318l.241.666a6.158 6.158 0 0 1 3.487-1.226c2.661 0 4.187 1.686 4.187 4.626v4.851a.521.521 0 0 1-.515.5zm5.036-11.319a1.453 1.453 0 1 1 0-2.9 1.454 1.454 0 1 1 0 2.905zm-.67 11.319a.52.52 0 0 1-.515-.5v-8.735a.52.52 0 0 1 .515-.5h1.414a.521.521 0 0 1 .516.5v8.736a.521.521 0 0 1-.516.5zm11.583 0a.506.506 0 0 1-.514-.5v-4.946c0-1.515-.716-2.349-2.016-2.349a3.31 3.31 0 0 0-2.7 1.4l-.006 5.9c0 .345-.189.5-.614.5h-1.29a.521.521 0 0 1-.516-.5v-8.74a.521.521 0 0 1 .516-.5h.72a.444.444 0 0 1 .438.32l.241.664a6.158 6.158 0 0 1 3.487-1.226c1.564 0 4.187.6 4.187 4.626v4.851a.521.521 0 0 1-.515.5zm8.051 5.572a7.42 7.42 0 0 1-3.893-1.252.36.36 0 0 1-.117-.491l.544-1.043a.4.4 0 0 1 .526-.132 5.167 5.167 0 0 0 2.414.737 3.6 3.6 0 0 0 2.761-.987 2.265 2.265 0 0 0 .677-1.84l-.021-.2a6.864 6.864 0 0 1-2.691.637 5.157 5.157 0 0 1-5.055-5.464c0-3.146 2.126-5.518 4.945-5.518a4.612 4.612 0 0 1 3.265 1.27l.238-.72a.4.4 0 0 1 .39-.285h.982a.448.448 0 0 1 .444.43V20.7c0 2.641-2.167 4.546-5.27 4.631zm.417-13.389c-1.727 0-2.886 1.35-2.886 3.359a3.038 3.038 0 0 0 2.995 3.332 4.262 4.262 0 0 0 1.847-.428 1.089 1.089 0 0 0 .622-.988V13.81a1.065 1.065 0 0 0-.183-.607 2.911 2.911 0 0 0-2.397-1.256zM39.983 24.823a.521.521 0 0 1-.516-.5V9.955a.448.448 0 0 1 .444-.43h.982a.4.4 0 0 1 .387.272l.131.819.088-.083a4.716 4.716 0 0 1 3.287-1.273c2.821 0 4.947 2.372 4.947 5.517a5.157 5.157 0 0 1-5.055 5.466 5.514 5.514 0 0 1-2.59-.683l-.095 4.764a.5.5 0 0 1-.565.5zm4.477-13.4a2.925 2.925 0 0 0-2.4 1.256 1.066 1.066 0 0 0-.184.606v3.413a1.089 1.089 0 0 0 .622.988 4.262 4.262 0 0 0 1.847.428 3.04 3.04 0 0 0 3-3.333c.001-2.012-1.159-3.362-2.885-3.362zM20.8 12.72l-3.609 1.153a4.044 4.044 0 0 1-2.386.021L11.167 12.8a.306.306 0 0 0-.393.293V17.5a.3.3 0 0 0 .217.292l4.435 1.331a1.826 1.826 0 0 0 1.083-.01l4.473-1.427a.307.307 0 0 0 .213-.291v-4.384a.306.306 0 0 0-.395-.291z" fill="#313239" role="presentation"/><path d="M28.19 3.244L18.566.382a9.066 9.066 0 0 0-5.166 0L3.777 3.244A5.191 5.191 0 0 0 .143 8.2v15.62a5.191 5.191 0 0 0 3.634 4.952L13.4 31.63a9.063 9.063 0 0 0 5.165 0l9.624-2.862a5.192 5.192 0 0 0 3.634-4.952V8.2a5.192 5.192 0 0 0-3.633-4.956zM24.4 18.4a2.276 2.276 0 0 1-1.623 2.18l-5.625 1.681a4.042 4.042 0 0 1-2.314 0l-3.792-1.137a.216.216 0 0 0-.277.207v2.562a.809.809 0 0 1-1.039.775l-1.589-.478a.809.809 0 0 1-.578-.775v-11.91a2.276 2.276 0 0 1 2.918-2.182l4.951 1.455a1.836 1.836 0 0 0 1.064-.009l4.95-1.55A2.275 2.275 0 0 1 24.4 11.39z" fill="#313239" role="presentation"/>
</symbol>

<symbol id="planning-center-mark" class="symbol" viewBox="0 0 32 32">
  <title id="title-planning-center-mark">planning-center-mark icon</title><path d="M20.653 12.714l-3.608 1.153a4.044 4.044 0 0 1-2.386.021L11.025 12.8a.306.306 0 0 0-.393.293V17.5a.3.3 0 0 0 .217.292l4.435 1.331a1.826 1.826 0 0 0 1.083-.01l4.474-1.427a.307.307 0 0 0 .212-.291v-4.39a.306.306 0 0 0-.4-.291z" fill="#313239" role="presentation"/><path d="M28.047 3.238L18.423.376a9.063 9.063 0 0 0-5.165 0L3.634 3.238A5.191 5.191 0 0 0 0 8.19v15.62a5.191 5.191 0 0 0 3.634 4.952l9.624 2.862a9.063 9.063 0 0 0 5.165 0l9.624-2.862a5.191 5.191 0 0 0 3.634-4.952V8.19a5.191 5.191 0 0 0-3.634-4.952zM24.261 18.39a2.276 2.276 0 0 1-1.624 2.18l-5.625 1.681a4.042 4.042 0 0 1-2.314 0l-3.791-1.137a.216.216 0 0 0-.278.207v2.562a.808.808 0 0 1-1.038.775L8 24.184a.809.809 0 0 1-.578-.775v-11.91a2.275 2.275 0 0 1 2.918-2.182l4.952 1.455a1.833 1.833 0 0 0 1.063-.009l4.951-1.55a2.275 2.275 0 0 1 2.955 2.171z" fill="#313239" role="presentation"/>
</symbol>
    </svg>