<svg xmlns="http://www.w3.org/2000/svg" xmlns:xlink="http://www.w3.org/1999/xlink">
    
<symbol id="accounts-logomark" viewBox="0 0 16 16">
  <circle cx="8" cy="8" r="1.476"></circle><path d="M8,.269C1.815.269.269,1.815.269,8S1.815,15.731,8,15.731,15.731,14.185,15.731,8,14.185.269,8,.269ZM10.862,8a3.019,3.019,0,0,1-.027.374l.8.629a.194.194,0,0,1,.046.244l-.763,1.32a.187.187,0,0,1-.233.084l-.95-.381a2.947,2.947,0,0,1-.644.373l-.145,1.011a.186.186,0,0,1-.187.16H7.238a.186.186,0,0,1-.187-.16l-.145-1.011a2.8,2.8,0,0,1-.645-.373l-.949.381a.192.192,0,0,1-.233-.084l-.763-1.32A.191.191,0,0,1,4.362,9l.8-.629a2.6,2.6,0,0,1,0-.748L4.362,7a.188.188,0,0,1-.046-.244l.763-1.32a.187.187,0,0,1,.233-.084l.949.381a2.954,2.954,0,0,1,.645-.373l.145-1.011a.186.186,0,0,1,.187-.16H8.764a.186.186,0,0,1,.187.16L9.1,5.357a2.794,2.794,0,0,1,.644.373l.95-.381a.192.192,0,0,1,.233.084l.763,1.32A.194.194,0,0,1,11.64,7l-.8.629A3.019,3.019,0,0,1,10.862,8Z"></path>
</symbol>

<symbol id="accounts-logotype" viewBox="0 0 131.656 32">
  <title>accounts-logotype</title><g id="New"><path d="M38.627,8.645a14.026,14.026,0,0,0-4.5.736.734.734,0,0,0-.514.932l.251,1.063a.749.749,0,0,0,.916.643,13.147,13.147,0,0,1,3.57-.611,1.84,1.84,0,0,1,1.383.454,2.988,2.988,0,0,1,.543,2.166,10.021,10.021,0,0,0-2.458-.343c-3.237,0-5.33,1.7-5.33,4.321a4.16,4.16,0,0,0,4.322,4.462,5.7,5.7,0,0,0,3.911-1.509l.235.661c.135.324.3.54.67.54h.925a.786.786,0,0,0,.765-.766V14.506C43.312,11.3,42.96,8.645,38.627,8.645ZM37.394,19.872a1.744,1.744,0,0,1-1.865-1.894C35.529,16.8,36.537,16,38.038,16a6.325,6.325,0,0,1,2.2.388v2.023A3.88,3.88,0,0,1,37.394,19.872Z"></path><path d="M55.769,17.889a.739.739,0,0,0-1.063.063c-.105.095-.208.2-.314.3a3.405,3.405,0,0,1-2.636,1.254,3.793,3.793,0,0,1-3.687-3.966,3.816,3.816,0,0,1,3.771-3.938,3.775,3.775,0,0,1,2.554,1.245c.216.215.578.573,1.047.143l1.007-.923a.787.787,0,0,0,.127-1.13,5.8,5.8,0,0,0-4.819-2.295,6.865,6.865,0,0,0-6.788,6.925,6.757,6.757,0,0,0,6.759,6.9,6.032,6.032,0,0,0,5.165-2.755c.169-.253.264-.654-.256-1.123Z"></path><path d="M68.318,17.889a.741.741,0,0,0-1.063.063c-.1.095-.208.2-.314.3A3.408,3.408,0,0,1,64.3,19.509a3.793,3.793,0,0,1-3.685-3.966,3.815,3.815,0,0,1,3.769-3.938,3.769,3.769,0,0,1,2.554,1.244c.217.216.576.578,1.048.144L69,12.07a.787.787,0,0,0,.128-1.13A5.8,5.8,0,0,0,64.3,8.645a6.865,6.865,0,0,0-6.786,6.925,6.757,6.757,0,0,0,6.758,6.9,6.031,6.031,0,0,0,5.165-2.754c.169-.254.264-.654-.255-1.124Z"></path><path d="M76.8,8.645a6.914,6.914,0,1,0,6.73,6.869A6.905,6.905,0,0,0,76.8,8.645Zm3.685,6.869a3.71,3.71,0,1,1-7.4,0,3.7,3.7,0,1,1,7.4,0Z"></path><path d="M95.784,8.925H94.356c-.444,0-.878.059-.878.765l0,7.812A3.06,3.06,0,0,1,90.6,19.509c-1.616,0-2.369-.931-2.369-2.93V9.69a.785.785,0,0,0-.767-.765H85.9a.806.806,0,0,0-.766.765v6.692c0,2.834.564,6.086,4.966,6.086a5.308,5.308,0,0,0,4.031-1.634l.253.7c.113.312.289.631.728.631h.672a.8.8,0,0,0,.795-.766V9.69A.812.812,0,0,0,95.784,8.925Z"></path><path d="M105.819,8.645a6.093,6.093,0,0,0-4.28,1.659l-.306-.87a.642.642,0,0,0-.678-.509h-.671a.785.785,0,0,0-.767.765v11.7a.768.768,0,0,0,.767.766h1.427c.61,0,.906-.25.906-.766V13.363a3.821,3.821,0,0,1,3.266-1.758c1.546,0,2.4,1.13,2.4,3.182v6.607a.776.776,0,0,0,.766.766h1.568a.786.786,0,0,0,.766-.766V14.9C110.981,10.69,109.293,8.645,105.819,8.645Z"></path><path d="M120.93,19.266a.72.72,0,0,0-.412-.435.665.665,0,0,0-.559.082,4.22,4.22,0,0,1-2,.6c-.467,0-.886-.09-.886-1.167V11.605h3.265a.787.787,0,0,0,.767-.767V9.69a.758.758,0,0,0-.767-.765h-3.265V5.462a.745.745,0,0,0-.738-.766h-1.6a.777.777,0,0,0-.767.766V8.925h-1.334a.74.74,0,0,0-.765.765v1.148a.768.768,0,0,0,.765.767h1.334v6.85c0,1.868.39,4.013,3.427,4.013a7.926,7.926,0,0,0,3.664-.947.72.72,0,0,0,.367-.936Z"></path><path d="M127.393,14.117c-1.376-.6-2.121-1.058-2.121-1.767,0-.5.464-1,1.5-1a6.549,6.549,0,0,1,2.711.63.753.753,0,0,0,1.035-.322l.447-.895a.917.917,0,0,0-.331-1.145,7.419,7.419,0,0,0-3.862-.976c-3.063,0-4.434,1.847-4.434,3.678,0,2.291,1.724,3.384,3.588,4.224,1.819.824,2.684,1.349,2.684,2.1,0,.685-.6,1.111-1.558,1.111a5.838,5.838,0,0,1-3.1-.906l-.048-.026a.819.819,0,0,0-.654-.1.639.639,0,0,0-.4.33l-.587,1.2a.677.677,0,0,0,.272.861h0a7.688,7.688,0,0,0,4.34,1.342c3.131,0,4.77-1.977,4.77-3.929C131.656,16.1,129.967,15.207,127.393,14.117Z"></path><circle cx="12.978" cy="16" r="2.477"></circle><path d="M12.978,3.022C2.6,3.022,0,5.618,0,16S2.6,28.978,12.978,28.978,25.955,26.382,25.955,16,23.36,3.022,12.978,3.022ZM17.781,16a5.115,5.115,0,0,1-.044.628l1.351,1.056a.324.324,0,0,1,.076.41l-1.28,2.215a.313.313,0,0,1-.391.141L15.9,19.81a4.957,4.957,0,0,1-1.082.627l-.244,1.7a.311.311,0,0,1-.313.269H11.7a.311.311,0,0,1-.313-.269l-.244-1.7a4.69,4.69,0,0,1-1.082-.627l-1.594.64a.323.323,0,0,1-.391-.141l-1.28-2.215a.323.323,0,0,1,.077-.41l1.351-1.056a4.4,4.4,0,0,1,0-1.255L6.871,14.316a.316.316,0,0,1-.077-.41l1.28-2.215a.313.313,0,0,1,.391-.141l1.594.64a4.957,4.957,0,0,1,1.082-.627l.244-1.7A.311.311,0,0,1,11.7,9.6H14.26a.311.311,0,0,1,.313.269l.244,1.7a4.69,4.69,0,0,1,1.082.627l1.594-.64a.323.323,0,0,1,.391.141l1.28,2.215a.324.324,0,0,1-.076.41l-1.351,1.057A5.085,5.085,0,0,1,17.781,16Z"></path></g>
</symbol>

<symbol id="api-logomark" viewBox="0 0 16 16">
  <path d="M6.988,7.516a1.5,1.5,0,1,0,.858,1.95A1.5,1.5,0,0,0,6.988,7.516Z"></path><path d="M10.824,5.029a.806.806,0,1,0,.806.8A.807.807,0,0,0,10.824,5.029Z"></path><path d="M8,.269C1.815.269.269,1.815.269,8S1.815,15.731,8,15.731,15.731,14.185,15.731,8,14.185.269,8,.269ZM9.213,11.353l-1,.8-.72-.9a2.558,2.558,0,0,1-1.349.205L5.725,12.54l-1.2-.467L4.948,11a2.574,2.574,0,0,1-.8-.929l-1.225.186-.2-1.306,1.158-.176a2.61,2.61,0,0,1,.5-1.387l-.715-.9,1-.8.714.891A2.556,2.556,0,0,1,6.75,6.373L7.164,5.31l1.192.462L7.941,6.84a2.487,2.487,0,0,1,.853,1.072L9.933,7.74,10.128,9,8.989,9.18a2.371,2.371,0,0,1-.157.667,2.424,2.424,0,0,1-.338.605Zm3.2-3.98-.543-.314a1.61,1.61,0,0,1-2.092,0l-.544.314L8.7,6.444l.548-.319a1.473,1.473,0,0,1-.029-.291A1.606,1.606,0,0,1,10.29,4.319V3.685h1.073v.634a1.606,1.606,0,0,1,1.072,1.515,1.473,1.473,0,0,1-.028.291l.548.319Z"></path>
</symbol>

<symbol id="api-logotype" viewBox="0 0 187.385 32">
  <title>api-logotype</title><g id="New"><path d="M11.279,15.179a2.524,2.524,0,1,0,1.44,3.272A2.519,2.519,0,0,0,11.279,15.179Z"></path><path d="M17.719,11a1.352,1.352,0,1,0,1.352,1.352A1.355,1.355,0,0,0,17.719,11Z"></path><path d="M12.978,3.013C2.6,3.013,0,5.608,0,15.99S2.6,28.968,12.978,28.968,25.955,26.373,25.955,15.99,23.36,3.013,12.978,3.013Zm2.037,18.606-1.68,1.352-1.208-1.512a4.274,4.274,0,0,1-2.264.344l-.7,1.808-2.008-.784.7-1.8a4.315,4.315,0,0,1-1.336-1.56l-2.056.312-.336-2.192,1.944-.3a4.3,4.3,0,0,1,.288-1.32,4.381,4.381,0,0,1,.552-1.008l-1.2-1.5,1.68-1.344,1.2,1.5a4.287,4.287,0,0,1,2.288-.352l.7-1.784,2,.776-.7,1.792a4.183,4.183,0,0,1,1.432,1.8l1.912-.288.328,2.12-1.912.3a4,4,0,0,1-.264,1.12,4.055,4.055,0,0,1-.568,1.016Zm5.376-6.68-.912-.528a2.7,2.7,0,0,1-3.512,0l-.912.528-.9-1.56.92-.536a2.462,2.462,0,0,1-.048-.488,2.7,2.7,0,0,1,1.8-2.544V8.747h1.8V9.811a2.7,2.7,0,0,1,1.8,2.544,2.462,2.462,0,0,1-.048.488l.92.536Z"></path><path d="M44.534,3.938h-1.6a.808.808,0,0,0-.766.766v5.508a8.924,8.924,0,0,0-3.1-.61c-3.646,0-6.395,2.965-6.395,6.9,0,3.884,2.662,6.926,6.059,6.926a6.343,6.343,0,0,0,4.183-1.688l.208.706a.768.768,0,0,0,.733.674h.672a.777.777,0,0,0,.767-.766V4.7A.788.788,0,0,0,44.534,3.938ZM42.2,13.257v5.425a3.565,3.565,0,0,1-3.069,1.784c-1.879,0-3.35-1.742-3.35-3.966a3.785,3.785,0,0,1,3.6-3.938A6.415,6.415,0,0,1,42.2,13.257Z"></path><path d="M53.676,9.6a6.6,6.6,0,0,0-6.59,6.9c0,4.013,2.783,6.926,6.618,6.926a7.42,7.42,0,0,0,4.886-1.632.665.665,0,0,0,.084-1.064l-.757-1.177a.608.608,0,0,0-.383-.286.8.8,0,0,0-.585.191,4.854,4.854,0,0,1-3.077,1.063,3.662,3.662,0,0,1-3.708-3.227H58.94a.752.752,0,0,0,.736-.691c.03-.228.058-.681.058-.915A5.938,5.938,0,0,0,53.676,9.6Zm-.056,2.68a2.9,2.9,0,0,1,3.032,2.64H50.321A3.134,3.134,0,0,1,53.62,12.282Z"></path><path d="M72.439,10.192a.705.705,0,0,0-.641-.31h-1.26c-.373,0-.8,0-1,.451l-3.5,7.68-3.341-7.685A.7.7,0,0,0,62,9.882H60.29a.707.707,0,0,0-.642.31.634.634,0,0,0,.031.636l5.6,12.179a.766.766,0,0,0,.693.419h.168A.731.731,0,0,0,66.81,23L72.4,10.834A.632.632,0,0,0,72.439,10.192Z"></path><path d="M78.878,9.6a6.6,6.6,0,0,0-6.59,6.9c0,4.013,2.783,6.926,6.618,6.926a7.418,7.418,0,0,0,4.886-1.632.665.665,0,0,0,.084-1.064l-.757-1.177a.605.605,0,0,0-.383-.286.8.8,0,0,0-.585.191,4.854,4.854,0,0,1-3.077,1.063,3.662,3.662,0,0,1-3.708-3.227h8.776a.754.754,0,0,0,.737-.691c.029-.228.057-.681.057-.915A5.938,5.938,0,0,0,78.878,9.6Zm-.056,2.68a2.9,2.9,0,0,1,3.032,2.64H75.523A3.134,3.134,0,0,1,78.822,12.282Z"></path><path d="M87.433,3.938H89a.767.767,0,0,1,.767.767V22.352a.767.767,0,0,1-.767.767H87.434a.767.767,0,0,1-.767-.767V4.7A.766.766,0,0,1,87.433,3.938Z"></path><path d="M98.312,9.6a6.914,6.914,0,1,0,6.731,6.87A6.907,6.907,0,0,0,98.312,9.6ZM102,16.472a3.711,3.711,0,1,1-7.4,0,3.706,3.706,0,1,1,7.4,0Z"></path><path d="M113.236,9.6a6.187,6.187,0,0,0-4,1.432l-.254-.633a.677.677,0,0,0-.7-.519h-.7a.787.787,0,0,0-.767.765V28.3a.777.777,0,0,0,.767.766h1.568a.753.753,0,0,0,.822-.766v-5.66a7.287,7.287,0,0,0,3.154.79c3.569,0,6.366-3.042,6.366-6.926C119.49,12.632,116.743,9.6,113.236,9.6Zm3.153,6.9a3.768,3.768,0,0,1-3.63,3.966,5.33,5.33,0,0,1-2.845-.88V14.255a3.413,3.413,0,0,1,2.958-1.693C114.91,12.562,116.389,14.218,116.389,16.5Z"></path><path d="M127.157,9.6a6.6,6.6,0,0,0-6.591,6.9c0,4.013,2.784,6.926,6.619,6.926a7.423,7.423,0,0,0,4.886-1.632.665.665,0,0,0,.084-1.064l-.757-1.177a.6.6,0,0,0-.384-.286.793.793,0,0,0-.584.191,4.852,4.852,0,0,1-3.077,1.063,3.662,3.662,0,0,1-3.708-3.227h8.776a.751.751,0,0,0,.736-.691c.029-.232.059-.685.059-.915A5.939,5.939,0,0,0,127.157,9.6Zm-.056,2.68a2.9,2.9,0,0,1,3.033,2.64H123.8A3.134,3.134,0,0,1,127.1,12.282Z"></path><path d="M141.187,9.6a5.092,5.092,0,0,0-3.86,1.739l-.276-.895a.75.75,0,0,0-.708-.564h-.671a.786.786,0,0,0-.767.765V22.352a.777.777,0,0,0,.767.766h1.288c.416,0,1.046,0,1.046-.766V14.185a3.551,3.551,0,0,1,2.9-1.623,3.064,3.064,0,0,1,1.109.236.705.705,0,0,0,.551.042.761.761,0,0,0,.435-.42l.672-1.4a.671.671,0,0,0-.013-.681C143.32,9.8,142.16,9.6,141.187,9.6Z"></path><path d="M158.989,3.328a.8.8,0,0,0-.609-.39H158.1a.8.8,0,0,0-.613.4l-8.595,18.845a.66.66,0,0,0,.027.642.672.672,0,0,0,.586.3h1.763a.847.847,0,0,0,.781-.51l1.669-3.746h8.961l1.7,3.746a.8.8,0,0,0,.78.51h1.764a.672.672,0,0,0,.586-.3.659.659,0,0,0,.027-.641Zm2.49,12.825h-6.537L158.2,8.842Z"></path><path d="M176.005,3.218h-6.384a.683.683,0,0,0-.683.681V22.436a.684.684,0,0,0,.683.682h1.82a.7.7,0,0,0,.683-.682v-6.43h3.909a6.394,6.394,0,1,0-.028-12.788Zm3.238,6.309a3.33,3.33,0,0,1-3.294,3.434h-3.825V6.318h3.825A3.217,3.217,0,0,1,179.243,9.527Z"></path><path d="M184.854,3.218H186.7a.683.683,0,0,1,.683.683V22.436a.683.683,0,0,1-.683.683h-1.848a.683.683,0,0,1-.683-.683V3.9A.682.682,0,0,1,184.854,3.218Z"></path></g>
</symbol>

<symbol id="calendar-logomark" viewBox="0 0 16 16">
  <path d="M5.455,7.218h5.09v3.208H5.455ZM15.75,8c0,6.2-1.55,7.75-7.75,7.75S.25,14.2.25,8,1.8.25,8,.25,15.75,1.8,15.75,8ZM11.7,5.663a.454.454,0,0,0-.453-.454h-.7V4.666a.43.43,0,0,0-.43-.43h-.2a.43.43,0,0,0-.43.43v.543H6.519V4.666a.43.43,0,0,0-.43-.43h-.2a.431.431,0,0,0-.43.43v.543h-.7a.454.454,0,0,0-.453.454v5.5a.454.454,0,0,0,.453.454h6.494a.454.454,0,0,0,.453-.454Z"></path>
</symbol>

<symbol id="calendar-logotype" viewBox="0 0 127.591 32">
  <title>calendar-logotype</title><g id="New"><path d="M8.847,14.719H17.37v5.373H8.847Zm17.239,1.31c0,10.382-2.595,12.978-12.977,12.978S.131,26.411.131,16.029,2.727,3.051,13.109,3.051,26.086,5.647,26.086,16.029Zm-6.781-3.913a.759.759,0,0,0-.759-.76H17.37v-.911a.719.719,0,0,0-.719-.719h-.343a.719.719,0,0,0-.719.719v.911h-4.96v-.911a.719.719,0,0,0-.72-.719H9.567a.719.719,0,0,0-.72.719v.911H7.672a.76.76,0,0,0-.76.76v9.216a.76.76,0,0,0,.76.76H18.546a.76.76,0,0,0,.759-.76Zm23.808,6.1a.717.717,0,0,0-1.031.061c-.1.1-.207.2-.313.3a3.427,3.427,0,0,1-2.654,1.261A3.818,3.818,0,0,1,35.4,15.85,3.84,3.84,0,0,1,39.2,11.888a3.8,3.8,0,0,1,2.572,1.252c.224.222.56.559,1.013.143l1.006-.924a.763.763,0,0,0,.126-1.1,5.777,5.777,0,0,0-4.8-2.287,6.84,6.84,0,0,0-6.761,6.9,6.731,6.731,0,0,0,6.733,6.873,6.008,6.008,0,0,0,5.144-2.743c.164-.246.255-.634-.25-1.091Zm12.831-3.4V21.7a.77.77,0,0,1-.74.741h-.925c-.355,0-.515-.21-.647-.525l-.247-.694a5.675,5.675,0,0,1-3.922,1.527,4.136,4.136,0,0,1-4.3-4.437c0-2.61,2.083-4.3,5.306-4.3a9.964,9.964,0,0,1,2.482.352,3.058,3.058,0,0,0-.549-2.217,1.868,1.868,0,0,0-1.4-.461,13.169,13.169,0,0,0-3.576.612.727.727,0,0,1-.885-.624l-.252-1.064a.712.712,0,0,1,.5-.9,14.037,14.037,0,0,1,4.5-.735C55.594,8.977,55.944,11.621,55.944,14.814Zm-3.022,3.912V16.68a6.187,6.187,0,0,0-2.227-.4c-1.516,0-2.534.8-2.534,2a1.767,1.767,0,0,0,1.89,1.919A3.9,3.9,0,0,0,52.922,18.726ZM60.789,3.284H59.221a.77.77,0,0,0-.741.74V21.7a.75.75,0,0,0,.741.741h1.568a.77.77,0,0,0,.741-.741V4.024A.791.791,0,0,0,60.789,3.284ZM75.978,15.038c0,.231-.028.684-.057.912a.727.727,0,0,1-.712.669h-8.8A3.684,3.684,0,0,0,70.141,19.9a4.869,4.869,0,0,0,3.091-1.068.8.8,0,0,1,.566-.188.582.582,0,0,1,.367.276l.757,1.178a.638.638,0,0,1-.079,1.03,7.393,7.393,0,0,1-4.87,1.626c-3.82,0-6.593-2.9-6.593-6.9a6.577,6.577,0,0,1,6.565-6.873A5.915,5.915,0,0,1,75.978,15.038ZM66.56,14.3h6.389a2.923,2.923,0,0,0-3.06-2.691A3.158,3.158,0,0,0,66.56,14.3ZM84.4,8.977A6.052,6.052,0,0,0,80.1,10.658l-.319-.911a.62.62,0,0,0-.654-.489h-.672a.759.759,0,0,0-.741.74V21.7a.751.751,0,0,0,.741.741h1.428c.593,0,.881-.242.881-.741V13.666a3.841,3.841,0,0,1,3.291-1.778c1.563,0,2.423,1.139,2.423,3.207V21.7a.751.751,0,0,0,.741.741h1.568a.77.77,0,0,0,.741-.741v-6.5C89.532,11.015,87.852,8.977,84.4,8.977Zm19.428-4.953V21.7a.75.75,0,0,1-.741.741h-.672a.744.744,0,0,1-.709-.654l-.22-.746a6.32,6.32,0,0,1-4.195,1.708c-3.383,0-6.033-3.031-6.033-6.9,0-3.918,2.738-6.873,6.369-6.873a8.932,8.932,0,0,1,3.1.613l.023.008V4.024a.791.791,0,0,1,.741-.74h1.6A.77.77,0,0,1,103.823,4.024Zm-3.05,14.013V12.593a6.429,6.429,0,0,0-2.843-.7A3.81,3.81,0,0,0,94.3,15.85c0,2.239,1.483,3.992,3.375,3.992A3.591,3.591,0,0,0,100.773,18.037Zm15.521-3.223V21.7a.77.77,0,0,1-.741.741h-.924c-.356,0-.516-.21-.647-.525l-.247-.694a5.677,5.677,0,0,1-3.922,1.527,4.136,4.136,0,0,1-4.3-4.437c0-2.61,2.083-4.3,5.3-4.3a9.974,9.974,0,0,1,2.483.352,3.057,3.057,0,0,0-.55-2.217,1.864,1.864,0,0,0-1.4-.461,13.178,13.178,0,0,0-3.577.612.725.725,0,0,1-.884-.624l-.252-1.064a.712.712,0,0,1,.5-.9,14.027,14.027,0,0,1,4.495-.735C115.943,8.977,116.294,11.621,116.294,14.814Zm-3.022,3.912V16.68a6.187,6.187,0,0,0-2.227-.4c-1.516,0-2.535.8-2.535,2A1.768,1.768,0,0,0,110.4,20.2,3.906,3.906,0,0,0,113.272,18.726ZM127.5,9.7c-.336-.535-1.531-.726-2.453-.726a5.165,5.165,0,0,0-3.872,1.76l-.289-.934a.722.722,0,0,0-.682-.545h-.672a.759.759,0,0,0-.741.74V21.7a.75.75,0,0,0,.741.741h1.287c.407,0,1.021,0,1.021-.741V13.529a3.583,3.583,0,0,1,2.928-1.641,3.111,3.111,0,0,1,1.12.238.674.674,0,0,0,.531.041.736.736,0,0,0,.421-.407l.672-1.4A.649.649,0,0,0,127.5,9.7Z"></path></g>
</symbol>

<symbol id="check-ins-logomark" viewBox="0 0 16 16">
  <path d="M8,.269C1.815.269.269,1.815.269,8S1.815,15.731,8,15.731,15.731,14.185,15.731,8,14.185.269,8,.269Zm3.584,6.375L7.6,10.629a.9.9,0,0,1-1.273,0l-1.91-1.91A.9.9,0,0,1,5.689,7.446L6.963,8.719l3.348-3.348a.9.9,0,0,1,1.273,1.273Z"></path>
</symbol>

<symbol id="check-ins-logotype" viewBox="0 0 135.654 32">
  <title>check-ins-logotype</title><g id="New"><path d="M12.978,3.022C2.6,3.022,0,5.618,0,16S2.6,28.978,12.978,28.978,25.955,26.382,25.955,16,23.36,3.022,12.978,3.022Zm6.016,10.7-6.689,6.689a1.511,1.511,0,0,1-2.137,0L6.961,17.207A1.511,1.511,0,0,1,9.1,15.071l2.138,2.136,5.621-5.619a1.511,1.511,0,1,1,2.137,2.136Z"></path><path d="M66.4,9.5a6.442,6.442,0,0,0-6.441,6.748,6.44,6.44,0,0,0,6.468,6.775,7.416,7.416,0,0,0,4.789-1.595c.391-.336.279-.588.055-.869l-.756-1.175c-.224-.336-.476-.252-.755-.056A5.022,5.022,0,0,1,66.6,20.419a3.781,3.781,0,0,1-3.864-3.529h8.932a.6.6,0,0,0,.588-.559c.029-.225.056-.672.056-.9A5.761,5.761,0,0,0,66.4,9.5Zm-3.529,5.32a3.285,3.285,0,0,1,3.472-2.94,3.056,3.056,0,0,1,3.192,2.94Z"></path><path d="M131.482,14.959c-1.288-.561-2.211-1.065-2.211-1.9,0-.588.532-1.148,1.651-1.148a6.7,6.7,0,0,1,2.772.644.607.607,0,0,0,.841-.252l.447-.9a.763.763,0,0,0-.279-.952,7.23,7.23,0,0,0-3.781-.952c-3.135,0-4.283,1.9-4.283,3.528,0,2.128,1.511,3.192,3.5,4.088,1.792.812,2.772,1.372,2.772,2.239,0,.729-.617,1.261-1.708,1.261a6.021,6.021,0,0,1-3.221-.952.576.576,0,0,0-.839.168l-.588,1.2a.529.529,0,0,0,.224.672,7.509,7.509,0,0,0,4.256,1.315c2.883,0,4.619-1.763,4.619-3.779C135.654,16.835,133.862,15.967,131.482,14.959Z"></path><path d="M52.979,9.5a6.254,6.254,0,0,0-3.753,1.344V5.17a.661.661,0,0,0-.615-.615H47.043a.64.64,0,0,0-.616.615V22.1a.622.622,0,0,0,.616.617h1.54a.6.6,0,0,0,.643-.617V14.035a3.858,3.858,0,0,1,3.389-1.876c1.68,0,2.576,1.26,2.576,3.388V22.1a.621.621,0,0,0,.615.617h1.568a.643.643,0,0,0,.617-.617V15.6C57.991,12.075,56.647,9.5,52.979,9.5Z"></path><path d="M84.069,18.711a.6.6,0,0,0-.868.055,3.994,3.994,0,0,1-3.052,1.6,3.928,3.928,0,0,1-3.836-4.116,3.953,3.953,0,0,1,3.92-4.088,3.9,3.9,0,0,1,2.66,1.288c.224.224.476.476.84.14l1.008-.924a.64.64,0,0,0,.112-.924,5.673,5.673,0,0,0-4.7-2.24,6.717,6.717,0,0,0-6.636,6.775,6.6,6.6,0,0,0,6.608,6.748,5.9,5.9,0,0,0,5.04-2.687c.224-.336.084-.645-.224-.924Z"></path><path d="M43.5,18.711a.6.6,0,0,0-.868.055,3.994,3.994,0,0,1-3.052,1.6,3.928,3.928,0,0,1-3.836-4.116,3.953,3.953,0,0,1,3.92-4.088,3.9,3.9,0,0,1,2.66,1.288c.224.224.476.476.84.14l1.008-.924a.64.64,0,0,0,.112-.924,5.673,5.673,0,0,0-4.7-2.24,6.717,6.717,0,0,0-6.636,6.775,6.6,6.6,0,0,0,6.608,6.748,5.9,5.9,0,0,0,5.04-2.687c.224-.336.084-.645-.224-.924Z"></path><path d="M119.592,9.5a5.835,5.835,0,0,0-4.34,1.792l-.393-1.12a.5.5,0,0,0-.531-.392h-.672a.64.64,0,0,0-.616.615V22.1a.622.622,0,0,0,.616.617h1.428c.532,0,.755-.2.755-.617V14.035a3.937,3.937,0,0,1,3.416-1.876c1.681,0,2.549,1.231,2.549,3.332V22.1a.622.622,0,0,0,.615.617h1.568a.643.643,0,0,0,.617-.617V15.6C124.6,12.243,123.54,9.5,119.592,9.5Z"></path><path d="M109.6,9.779h-1.568a.64.64,0,0,0-.616.615V22.1a.622.622,0,0,0,.616.617H109.6a.641.641,0,0,0,.615-.617v-11.7A.661.661,0,0,0,109.6,9.779Z"></path><path d="M108.814,3.946a1.86,1.86,0,0,0-1.847,1.9,1.852,1.852,0,0,0,1.847,1.876,1.891,1.891,0,1,0,0-3.781Z"></path><path d="M92.741,15.6l5.235-4.927a.506.506,0,0,0-.336-.9H95.6a1.241,1.241,0,0,0-.812.392L89.8,14.679V5.17a.662.662,0,0,0-.616-.615H87.616A.641.641,0,0,0,87,5.17V22.1a.623.623,0,0,0,.616.617h1.568A.642.642,0,0,0,89.8,22.1V16.442l5.18,6.021a.775.775,0,0,0,.588.252h2.3c.56,0,.616-.533.364-.84Z"></path><path d="M104.337,14.707H99.009a.515.515,0,0,0-.532.532v1.2a.509.509,0,0,0,.532.5h5.328a.508.508,0,0,0,.532-.5v-1.2A.514.514,0,0,0,104.337,14.707Z"></path></g>
</symbol>

<symbol id="church-center-logomark" viewBox="0 0 16 16">
  <path d="M8,.269C1.818.269.269,1.815.269,8S1.818,15.731,8,15.731,15.731,14.182,15.731,8,14.185.269,8,.269ZM11.029,11.7a.26.26,0,0,1-.257.262l-1.52-.012a.26.26,0,0,1-.263-.256h0s0-.179,0-1.4A2.853,2.853,0,0,0,8,8.249,2.853,2.853,0,0,0,7.007,10.3c0,1.215,0,1.4,0,1.4a.259.259,0,0,1-.262.256h0l-1.521.012a.258.258,0,0,1-.256-.262h0a51.194,51.194,0,0,1-.016-5.161h0l2.781-2.4a.4.4,0,0,1,.531,0l2.778,2.4h0A50.9,50.9,0,0,1,11.029,11.7Z"></path>
</symbol>

<symbol id="church-center-logotype" viewBox="0 0 188.616 32">
  <title>church-center-logotype</title><g id="New"><g id="New-2" data-name="New"><path d="M12.978,3.022C2.6,3.022,0,5.617,0,16S2.6,28.978,12.978,28.978,25.955,26.377,25.955,16,23.36,3.022,12.978,3.022ZM18.062,22.21a.437.437,0,0,1-.431.44l-2.552-.021a.435.435,0,0,1-.441-.429h0s.006-.3.006-2.343a4.79,4.79,0,0,0-1.666-3.438,4.782,4.782,0,0,0-1.667,3.438c0,2.039.007,2.343.007,2.343a.436.436,0,0,1-.44.43h0l-2.553.021a.435.435,0,0,1-.43-.44h0s-.316-8.413-.026-8.664h0l4.668-4.029a.681.681,0,0,1,.892,0l4.663,4.029h-.005C18.377,13.821,18.062,22.209,18.062,22.21Z"></path><path d="M39.768,23.773a6.732,6.732,0,0,1-6.734-6.73c0-.048,0-.1,0-.145A6.841,6.841,0,0,1,39.8,10a5.776,5.776,0,0,1,4.8,2.287.764.764,0,0,1-.1,1.075l-.026.02-1.008.924c-.448.415-.788.081-1.011-.141a3.8,3.8,0,0,0-2.576-1.255,3.842,3.842,0,0,0-3.8,3.88c0,.028,0,.056,0,.083a3.818,3.818,0,0,0,3.634,3.994c.028,0,.057,0,.086,0a3.421,3.421,0,0,0,2.653-1.261c.107-.105.21-.207.314-.3a.717.717,0,0,1,1.009-.08l.022.019.868.7c.5.458.413.844.25,1.091A6.011,6.011,0,0,1,39.768,23.773Z"></path><path d="M65.583,23.773c-4.379,0-4.94-3.239-4.94-6.062V11.024a.779.779,0,0,1,.74-.741h1.568a.761.761,0,0,1,.741.741v6.888c0,2.017.761,2.955,2.4,2.955a3.086,3.086,0,0,0,2.9-2.027V11.024c0-.684.421-.741.853-.741h1.429a.8.8,0,0,1,.768.741v11.7a.776.776,0,0,1-.768.742H70.6c-.424,0-.59-.3-.706-.615l-.267-.734A5.271,5.271,0,0,1,65.583,23.773Z"></path><path d="M76.651,23.472H75.363a.751.751,0,0,1-.741-.742V11.03a.762.762,0,0,1,.741-.741h.672a.723.723,0,0,1,.682.546l.289.933a5.163,5.163,0,0,1,3.873-1.76c.921,0,2.116.191,2.453.727a.647.647,0,0,1,.012.657l-.673,1.4a.738.738,0,0,1-.421.408.678.678,0,0,1-.531-.042,3.122,3.122,0,0,0-1.12-.239,3.579,3.579,0,0,0-2.927,1.642v8.173C77.672,23.472,77.058,23.472,76.651,23.472Z"></path><path d="M89.853,23.773a6.732,6.732,0,0,1-6.734-6.73c0-.047,0-.094,0-.141A6.841,6.841,0,0,1,89.881,10a5.776,5.776,0,0,1,4.8,2.287.764.764,0,0,1-.1,1.075l-.026.02-1.008.924c-.448.415-.788.081-1.011-.141a3.794,3.794,0,0,0-2.573-1.254,3.841,3.841,0,0,0-3.8,3.879c0,.028,0,.056,0,.084A3.817,3.817,0,0,0,89.8,20.869c.027,0,.055,0,.083,0a3.421,3.421,0,0,0,2.653-1.261c.107-.105.21-.207.314-.3a.717.717,0,0,1,1.009-.08l.022.019.868.7c.5.458.413.844.25,1.091A6.011,6.011,0,0,1,89.853,23.773Z"></path><path d="M122.855,23.773a6.732,6.732,0,0,1-6.733-6.731c0-.048,0-.1,0-.144a6.839,6.839,0,0,1,6.761-6.9,5.773,5.773,0,0,1,4.8,2.286.764.764,0,0,1-.1,1.075l-.026.021-1.008.923c-.448.415-.788.081-1.011-.141a3.794,3.794,0,0,0-2.573-1.254,3.841,3.841,0,0,0-3.8,3.879c0,.028,0,.056,0,.084a3.818,3.818,0,0,0,3.639,3.989l.072,0a3.428,3.428,0,0,0,2.653-1.261c.107-.105.21-.207.314-.3a.716.716,0,0,1,1.009-.081l.022.02.868.7c.5.457.413.844.25,1.09A6.012,6.012,0,0,1,122.855,23.773Z"></path><path d="M135.265,10a6.579,6.579,0,0,0-6.572,6.583c0,.1,0,.192.007.287,0,4,2.773,6.9,6.593,6.9a7.384,7.384,0,0,0,4.869-1.626.636.636,0,0,0,.213-.875.65.65,0,0,0-.132-.155l-.758-1.177a.581.581,0,0,0-.366-.276.779.779,0,0,0-.566.187,4.866,4.866,0,0,1-3.092,1.069,3.683,3.683,0,0,1-3.733-3.278h8.8a.728.728,0,0,0,.712-.67c.03-.231.058-.683.058-.911A5.915,5.915,0,0,0,135.528,10C135.44,10,135.353,10,135.265,10Zm-3.385,5.32a3.158,3.158,0,0,1,3.328-2.689,2.921,2.921,0,0,1,3.06,2.689Z"></path><path d="M154.111,23.472h-1.568a.751.751,0,0,1-.741-.742V16.12c0-2.068-.861-3.207-2.423-3.207a3.839,3.839,0,0,0-3.291,1.779v8.036c0,.5-.288.742-.881.742h-1.428a.752.752,0,0,1-.741-.742v-11.7a.761.761,0,0,1,.741-.741h.672a.62.62,0,0,1,.654.489l.32.911a6.043,6.043,0,0,1,4.29-1.681c3.457,0,5.138,2.038,5.138,6.229v6.5A.771.771,0,0,1,154.111,23.472Z"></path><path d="M161.3,23.773c-3.014,0-3.4-2.132-3.4-3.989V12.912h-1.359a.75.75,0,0,1-.741-.739V11.024a.718.718,0,0,1,.692-.741H157.9V6.8a.752.752,0,0,1,.742-.742h1.595a.72.72,0,0,1,.713.727v3.5h3.291a.733.733,0,0,1,.742.725v1.164a.77.77,0,0,1-.742.739H160.95v6.761c0,1,.334,1.19.911,1.19a4.2,4.2,0,0,0,2.009-.6.639.639,0,0,1,.539-.08.7.7,0,0,1,.4.423l.5,1.316a.7.7,0,0,1-.36.906A7.885,7.885,0,0,1,161.3,23.773Z"></path><path d="M172.036,10a6.578,6.578,0,0,0-6.572,6.583c0,.1,0,.194.007.291,0,4,2.772,6.9,6.593,6.9a7.405,7.405,0,0,0,4.869-1.626.639.639,0,0,0,.212-.878.658.658,0,0,0-.131-.152l-.758-1.177a.578.578,0,0,0-.366-.276.774.774,0,0,0-.567.187,4.871,4.871,0,0,1-3.092,1.068,3.683,3.683,0,0,1-3.733-3.277h8.8a.73.73,0,0,0,.712-.67c.029-.231.057-.683.057-.912A5.914,5.914,0,0,0,172.3,10C172.213,10,172.125,10,172.036,10Zm-3.385,5.32a3.157,3.157,0,0,1,3.329-2.689,2.92,2.92,0,0,1,3.059,2.689Z"></path><path d="M181.839,23.472h-1.288a.751.751,0,0,1-.741-.742V11.03a.761.761,0,0,1,.741-.741h.672a.72.72,0,0,1,.681.546l.289.933a5.163,5.163,0,0,1,3.873-1.76c.921,0,2.117.191,2.454.727a.645.645,0,0,1,.011.657l-.673,1.4a.736.736,0,0,1-.42.408.68.68,0,0,1-.532-.042,3.122,3.122,0,0,0-1.12-.239,3.581,3.581,0,0,0-2.927,1.642v8.173C182.859,23.472,182.245,23.472,181.839,23.472Z"></path><path d="M53.2,10.091a6.2,6.2,0,0,0-3.627,1.224V5.887a.792.792,0,0,0-.741-.74H47.264a.762.762,0,0,0-.741.74V22.816a.741.741,0,0,0,.741.741H48.8a.723.723,0,0,0,.768-.675c0-.022,0-.044,0-.066V14.782A3.753,3.753,0,0,1,52.831,13c1.582,0,2.452,1.159,2.452,3.263v6.552a.75.75,0,0,0,.741.741H57.6a.759.759,0,0,0,.741-.741v-6.5C58.336,12.245,56.56,10.091,53.2,10.091Z"></path><path d="M103.285,10.091a6.2,6.2,0,0,0-3.627,1.224V5.887a.792.792,0,0,0-.741-.74H97.349a.762.762,0,0,0-.741.74V22.816a.741.741,0,0,0,.741.741h1.54a.723.723,0,0,0,.768-.675c0-.022,0-.044,0-.066V14.782A3.753,3.753,0,0,1,102.92,13c1.581,0,2.452,1.159,2.452,3.263v6.552a.75.75,0,0,0,.741.741h1.567a.759.759,0,0,0,.741-.741v-6.5C108.421,12.245,106.645,10.091,103.285,10.091Z"></path></g></g>
</symbol>

<symbol id="giving-logomark" viewBox="0 0 16 16">
  <path d="M8,.269C1.815.269.269,1.815.269,8S1.815,15.731,8,15.731,15.731,14.185,15.731,8,14.185.269,8,.269ZM8.23,10.93a.393.393,0,0,1-.46,0c-.978-.69-4.647-3.491-2.539-5.3a1.854,1.854,0,0,1,2.5.158L8,6.055l.271-.272a1.854,1.854,0,0,1,2.5-.158C12.877,7.439,9.208,10.24,8.23,10.93Z"></path>
</symbol>

<symbol id="giving-logotype" viewBox="0 0 97.857 32">
  <title>giving-logotype</title><g id="New"><path d="M12.978,3.022C2.6,3.022,0,5.618,0,16S2.6,28.978,12.978,28.978,25.955,26.382,25.955,16,23.36,3.022,12.978,3.022Zm.386,17.9a.661.661,0,0,1-.772,0c-1.642-1.159-7.8-5.861-4.262-8.906a3.11,3.11,0,0,1,4.192.266l.456.456.455-.456a3.11,3.11,0,0,1,4.192-.266C21.165,15.058,15.006,19.76,13.364,20.919Z"></path><path d="M44.591,8.892h-.756c-.436,0-.546.331-.616.54l-.253.614a6.2,6.2,0,0,0-4.032-1.434c-3.507,0-6.255,3.03-6.255,6.9,0,3.883,2.809,6.925,6.395,6.925a7.008,7.008,0,0,0,3.154-.816v.443c0,2.745-1.67,3.321-3.07,3.321a4.709,4.709,0,0,1-2.934-1.174.75.75,0,0,0-.615-.15.723.723,0,0,0-.475.395l-.669,1.229a.742.742,0,0,0,.163.908,7.125,7.125,0,0,0,4.587,1.668c3.788,0,6.141-2.375,6.141-6.2V9.657A.786.786,0,0,0,44.591,8.892ZM42.256,13.28v5.235a5.145,5.145,0,0,1-2.846.961,3.86,3.86,0,0,1-3.629-3.966,3.5,3.5,0,0,1,6.475-2.23Z"></path><path d="M49.468,3.048a2.005,2.005,0,0,0-2,2.054,1.991,1.991,0,0,0,2,2.026,2.04,2.04,0,1,0,0-4.08Z"></path><path d="M48.682,8.892h1.569a.767.767,0,0,1,.767.767v11.7a.767.767,0,0,1-.767.767H48.682a.766.766,0,0,1-.766-.766V9.657A.765.765,0,0,1,48.682,8.892Z"></path><path d="M64.259,8.892H63c-.373,0-.8,0-1.005.451l-3.5,7.681L55.154,9.338a.706.706,0,0,0-.694-.446H52.752a.707.707,0,0,0-.642.31.634.634,0,0,0,.032.636l5.6,12.178a.776.776,0,0,0,.693.419H58.6a.728.728,0,0,0,.668-.423L64.866,9.844A.632.632,0,0,0,64.9,9.2.707.707,0,0,0,64.259,8.892Z"></path><path d="M67.571,3.048a2.005,2.005,0,0,0-2,2.054,2.014,2.014,0,0,0,2,2.026,2.04,2.04,0,1,0,0-4.08Z"></path><path d="M66.786,8.892h1.569a.767.767,0,0,1,.767.767v11.7a.766.766,0,0,1-.766.766H66.788a.767.767,0,0,1-.767-.767V9.657A.765.765,0,0,1,66.786,8.892Z"></path><path d="M78.348,8.612a6.09,6.09,0,0,0-4.28,1.66l-.306-.87a.643.643,0,0,0-.677-.51h-.672a.787.787,0,0,0-.767.765v11.7a.768.768,0,0,0,.767.766h1.428c.609,0,.906-.251.906-.766V13.331a3.816,3.816,0,0,1,3.265-1.759c1.546,0,2.4,1.13,2.4,3.182v6.608a.777.777,0,0,0,.766.766h1.568a.786.786,0,0,0,.766-.766v-6.5C83.51,10.657,81.822,8.612,78.348,8.612Z"></path><path d="M97.092,8.892h-.756c-.436,0-.546.331-.616.54l-.253.614a6.2,6.2,0,0,0-4.032-1.434c-3.507,0-6.255,3.03-6.255,6.9,0,3.883,2.809,6.925,6.395,6.925a7.008,7.008,0,0,0,3.154-.816v.443c0,2.745-1.67,3.321-3.07,3.321a4.709,4.709,0,0,1-2.934-1.174.75.75,0,0,0-.615-.15.723.723,0,0,0-.475.395l-.669,1.229a.742.742,0,0,0,.163.908,7.125,7.125,0,0,0,4.587,1.668c3.788,0,6.141-2.375,6.141-6.2V9.657A.786.786,0,0,0,97.092,8.892ZM94.757,13.28v5.235a5.145,5.145,0,0,1-2.846.961,3.86,3.86,0,0,1-3.629-3.966,3.5,3.5,0,0,1,6.475-2.23Z"></path></g>
</symbol>

<symbol id="groups-logomark" viewBox="0 0 16 16">
  <path d="M9.026,6.2H6.974a1.458,1.458,0,0,1-.772.772V9.024a1.458,1.458,0,0,1,.772.772H9.023a1.456,1.456,0,0,1,.771-.772V6.974A1.454,1.454,0,0,1,9.026,6.2ZM8,.256C1.805.256.256,1.8.256,8S1.805,15.744,8,15.744,15.744,14.2,15.744,8,14.2.256,8,.256Zm3.813,10.106a1.452,1.452,0,0,1-2.79.566H6.974a1.453,1.453,0,1,1-1.9-1.9V6.976a1.453,1.453,0,1,1,1.9-1.9H9.026a1.453,1.453,0,1,1,1.9,1.905V9.024A1.453,1.453,0,0,1,11.813,10.362Z"></path>
</symbol>

<symbol id="groups-logotype" viewBox="0 0 108.565 32">
  <title>groups-logotype</title><g id="New"><path d="M44.65,8.892H43.9c-.436,0-.546.331-.616.54l-.254.614a6.2,6.2,0,0,0-4.031-1.434c-3.507,0-6.255,3.03-6.255,6.9,0,3.883,2.809,6.925,6.4,6.925a7.008,7.008,0,0,0,3.154-.816v.443c0,2.745-1.67,3.322-3.07,3.322a4.709,4.709,0,0,1-2.934-1.175.75.75,0,0,0-.615-.15.723.723,0,0,0-.475.395l-.67,1.229a.746.746,0,0,0,.164.909,7.127,7.127,0,0,0,4.586,1.668c3.789,0,6.142-2.375,6.142-6.2V9.658A.786.786,0,0,0,44.65,8.892ZM42.315,13.28v5.235a5.137,5.137,0,0,1-2.845.961,3.86,3.86,0,0,1-3.629-3.966,3.5,3.5,0,0,1,6.474-2.23Z"></path><path d="M56.711,9.35c-.342-.544-1.5-.738-2.475-.738a5.1,5.1,0,0,0-3.86,1.738L50.1,9.457a.749.749,0,0,0-.707-.565h-.672a.787.787,0,0,0-.767.766v11.7a.777.777,0,0,0,.767.766h1.288c.416,0,1.046,0,1.046-.766V13.2a3.554,3.554,0,0,1,2.9-1.623,3.085,3.085,0,0,1,1.109.236.709.709,0,0,0,.551.042.758.758,0,0,0,.435-.42l.672-1.4A.673.673,0,0,0,56.711,9.35Z"></path><path d="M63.21,8.612a6.914,6.914,0,1,0,6.73,6.87A6.906,6.906,0,0,0,63.21,8.612Zm3.686,6.87a3.71,3.71,0,1,1-7.4,0,3.705,3.705,0,1,1,7.4,0Z"></path><path d="M82.2,8.892H80.77c-.445,0-.879.059-.879.766l0,7.812a3.062,3.062,0,0,1-2.876,2.006c-1.618,0-2.371-.931-2.371-2.93V9.658a.786.786,0,0,0-.766-.766H72.314a.807.807,0,0,0-.767.766V16.35c0,2.833.564,6.085,4.966,6.085A5.306,5.306,0,0,0,80.544,20.8l.253.7c.112.313.287.632.728.632H82.2a.8.8,0,0,0,.794-.766V9.658A.812.812,0,0,0,82.2,8.892Z"></path><path d="M91.952,8.612a6.18,6.18,0,0,0-4,1.433L87.7,9.411a.678.678,0,0,0-.7-.519h-.7a.787.787,0,0,0-.767.766V27.305a.778.778,0,0,0,.767.767h1.568a.754.754,0,0,0,.823-.767V21.646a7.279,7.279,0,0,0,3.153.789c3.569,0,6.366-3.042,6.366-6.925C98.206,11.642,95.459,8.612,91.952,8.612Zm3.154,6.9a3.768,3.768,0,0,1-3.63,3.966,5.338,5.338,0,0,1-2.846-.88V13.265a3.413,3.413,0,0,1,2.958-1.693C93.626,11.572,95.106,13.228,95.106,15.51Z"></path><path d="M104.3,14.084c-1.376-.6-2.121-1.057-2.121-1.766,0-.5.464-1,1.5-1a6.554,6.554,0,0,1,2.711.631.754.754,0,0,0,1.035-.322l.447-.9a.917.917,0,0,0-.331-1.144,7.421,7.421,0,0,0-3.862-.977c-3.064,0-4.435,1.847-4.435,3.678,0,2.291,1.725,3.385,3.589,4.225,1.818.824,2.684,1.348,2.684,2.1,0,.686-.6,1.111-1.558,1.111a5.842,5.842,0,0,1-3.1-.905l-.048-.026a.818.818,0,0,0-.654-.1.636.636,0,0,0-.395.329l-.587,1.2a.677.677,0,0,0,.271.861l0,0a7.693,7.693,0,0,0,4.341,1.341c3.131,0,4.769-1.976,4.769-3.929C108.565,16.072,106.877,15.175,104.3,14.084Z"></path><path d="M14.722,12.985H11.278a2.449,2.449,0,0,1-1.3,1.3v3.438a2.449,2.449,0,0,1,1.3,1.3h3.438a2.452,2.452,0,0,1,1.3-1.3V14.278A2.446,2.446,0,0,1,14.722,12.985ZM13,3C2.6,3,0,5.6,0,16S2.6,29,13,29s13-2.6,13-13S23.4,3,13,3Zm6.4,16.965a2.439,2.439,0,0,1-4.685.951H11.278a2.439,2.439,0,1,1-3.2-3.2V14.281a2.439,2.439,0,1,1,3.2-3.2h3.444a2.439,2.439,0,1,1,3.191,3.2v3.436A2.441,2.441,0,0,1,19.4,19.965Z"></path></g>
</symbol>

<symbol id="music-stand-logomark" viewBox="0 0 16 16">
  <path d="M8,.269C1.815.269.269,1.815.269,8S1.815,15.731,8,15.731,15.731,14.185,15.731,8,14.185.269,8,.269Zm3.438,9.348-.013,0c.027.574-.618,1.11-1.481,1.211-.888.1-1.664-.291-1.734-.883S8.805,8.784,9.693,8.68a2.236,2.236,0,0,1,.8.049V5.876L6.58,7.15V10.7H6.563a1.569,1.569,0,0,1-1.476,1.073c-.889.1-1.665-.292-1.734-.884s.594-1.156,1.482-1.261a2.258,2.258,0,0,1,.8.05v-3.3c0-.179.047-.419.22-.475.812-.263,4.779-1.566,5.291-1.711a.262.262,0,0,1,.292.215Z"></path>
</symbol>

<symbol id="music-stand-logotype" viewBox="0 0 161.924 32">
  <title>music-stand-logotype</title><g id="New"><path d="M12.978,3.4C2.6,3.4,0,5.993,0,16.375S2.6,29.353,12.978,29.353s12.977-2.6,12.977-12.978S23.36,3.4,12.978,3.4Zm5.77,15.692-.021-.006c.046.962-1.037,1.862-2.486,2.032-1.49.175-2.794-.489-2.91-1.483s1-1.941,2.488-2.116a3.777,3.777,0,0,1,1.344.083V12.81l-6.569,2.139V20.9h-.029a2.632,2.632,0,0,1-2.478,1.8c-1.491.175-2.794-.489-2.911-1.483s1-1.942,2.489-2.116a3.772,3.772,0,0,1,1.343.082V13.653c0-.3.079-.7.368-.8,1.364-.441,8.024-2.628,8.883-2.873a.44.44,0,0,1,.489.361Z"></path><path d="M47.552,9.031A6.087,6.087,0,0,0,43.2,11a4.538,4.538,0,0,0-3.965-1.965,5.705,5.705,0,0,0-4.05,1.657L34.9,9.806a.675.675,0,0,0-.7-.494h-.645a.785.785,0,0,0-.766.765v11.7a.777.777,0,0,0,.766.766h1.569a.786.786,0,0,0,.765-.766V13.742a3.161,3.161,0,0,1,2.9-1.751c1.613,0,2.4,1.041,2.4,3.182v6.608a.759.759,0,0,0,.767.766h1.6a.763.763,0,0,0,.738-.766V15.089a13.134,13.134,0,0,0-.1-1.685c.022-.022.045-.048.073-.076a3.761,3.761,0,0,1,2.875-1.337c1.59,0,2.4,1.071,2.4,3.182v6.608a.733.733,0,0,0,.767.766h1.567a.759.759,0,0,0,.767-.766v-6.5C52.631,12.6,52.1,9.031,47.552,9.031Z"></path><path d="M65.564,9.312H64.136c-.444,0-.877.059-.877.765l0,7.812A3.062,3.062,0,0,1,60.384,19.9c-1.616,0-2.369-.932-2.369-2.931V10.077a.785.785,0,0,0-.766-.765H55.68a.806.806,0,0,0-.766.765v6.692c0,2.834.564,6.085,4.967,6.085a5.305,5.305,0,0,0,4.03-1.634l.253.7c.113.312.289.631.728.631h.672a.8.8,0,0,0,.8-.766v-11.7A.811.811,0,0,0,65.564,9.312Z"></path><path d="M73.321,14.5c-1.376-.6-2.121-1.057-2.121-1.766,0-.5.464-1,1.5-1a6.551,6.551,0,0,1,2.711.631.755.755,0,0,0,1.035-.322l.447-.9a.916.916,0,0,0-.331-1.144A7.418,7.418,0,0,0,72.7,9.031c-3.064,0-4.435,1.847-4.435,3.678,0,2.291,1.725,3.385,3.589,4.225,1.819.824,2.684,1.348,2.684,2.1,0,.685-.6,1.11-1.558,1.11a5.842,5.842,0,0,1-3.1-.9l-.047-.026a.82.82,0,0,0-.655-.1.639.639,0,0,0-.395.329l-.587,1.2a.677.677,0,0,0,.271.861l0,0a7.693,7.693,0,0,0,4.341,1.341c3.131,0,4.77-1.976,4.77-3.929C77.584,16.491,75.9,15.594,73.321,14.5Z"></path><path d="M80.662,3.479a2.005,2.005,0,0,0-2,2.054,1.991,1.991,0,0,0,2,2.026,2.04,2.04,0,1,0,0-4.08Z"></path><path d="M79.876,9.312h1.569a.767.767,0,0,1,.767.767v11.7a.767.767,0,0,1-.767.767H79.877a.766.766,0,0,1-.766-.766v-11.7A.765.765,0,0,1,79.876,9.312Z"></path><path d="M94.688,18.276a.74.74,0,0,0-1.063.062c-.105.1-.208.2-.314.3A3.409,3.409,0,0,1,90.675,19.9a3.794,3.794,0,0,1-3.687-3.967,3.816,3.816,0,0,1,3.771-3.938,3.776,3.776,0,0,1,2.554,1.246c.215.215.579.575,1.047.142l1.007-.922a.787.787,0,0,0,.127-1.13,5.8,5.8,0,0,0-4.819-2.3,6.866,6.866,0,0,0-6.788,6.926,6.756,6.756,0,0,0,6.759,6.9A6.033,6.033,0,0,0,95.811,20.1c.169-.254.264-.654-.256-1.123Z"></path><path d="M107.842,14.5c-1.376-.6-2.122-1.057-2.122-1.766,0-.5.464-1,1.5-1a6.554,6.554,0,0,1,2.711.631.756.756,0,0,0,1.036-.322l.448-.9a.917.917,0,0,0-.332-1.144,7.414,7.414,0,0,0-3.863-.977c-3.062,0-4.433,1.847-4.433,3.678,0,2.291,1.724,3.385,3.589,4.225,1.817.823,2.682,1.348,2.682,2.1,0,.685-.6,1.11-1.557,1.11a5.834,5.834,0,0,1-3.1-.906l-.046-.025a.814.814,0,0,0-.656-.1.64.64,0,0,0-.394.329l-.587,1.2a.677.677,0,0,0,.271.861l0,0a7.693,7.693,0,0,0,4.341,1.341c3.132,0,4.77-1.976,4.77-3.929C112.1,16.491,110.416,15.594,107.842,14.5Z"></path><path d="M121.554,19.652a.718.718,0,0,0-.412-.434.654.654,0,0,0-.559.082,4.22,4.22,0,0,1-2,.6c-.467,0-.886-.09-.886-1.167V11.991h3.266a.786.786,0,0,0,.766-.766V10.077a.757.757,0,0,0-.766-.765H117.7V5.849a.744.744,0,0,0-.738-.766h-1.6a.777.777,0,0,0-.767.766V9.312h-1.334a.74.74,0,0,0-.765.765v1.148a.767.767,0,0,0,.765.766H114.6v6.85c0,1.869.39,4.013,3.427,4.013a7.913,7.913,0,0,0,3.664-.947.72.72,0,0,0,.367-.936Z"></path><path d="M128.638,9.031a14.067,14.067,0,0,0-4.5.737.734.734,0,0,0-.513.931l.251,1.064a.749.749,0,0,0,.917.642,13.193,13.193,0,0,1,3.569-.61,1.836,1.836,0,0,1,1.383.454,2.986,2.986,0,0,1,.543,2.166,10,10,0,0,0-2.457-.344c-3.238,0-5.331,1.7-5.331,4.322a4.159,4.159,0,0,0,4.322,4.461,5.692,5.692,0,0,0,3.911-1.508l.235.661c.135.324.3.54.67.54h.924a.786.786,0,0,0,.767-.766V14.893C133.325,11.686,132.972,9.031,128.638,9.031Zm-1.232,11.228a1.744,1.744,0,0,1-1.865-1.894c0-1.183,1.009-1.978,2.51-1.978a6.328,6.328,0,0,1,2.2.388V18.8A3.883,3.883,0,0,1,127.406,20.259Z"></path><path d="M142.469,9.031a6.093,6.093,0,0,0-4.28,1.66l-.305-.87a.642.642,0,0,0-.678-.509h-.672a.786.786,0,0,0-.767.765v11.7a.777.777,0,0,0,.767.766h1.428c.609,0,.906-.251.906-.766V13.75a3.816,3.816,0,0,1,3.266-1.759c1.546,0,2.4,1.131,2.4,3.182v6.608a.767.767,0,0,0,.766.766h1.568a.787.787,0,0,0,.767-.766v-6.5C147.633,11.077,145.943,9.031,142.469,9.031Z"></path><path d="M161.157,2.647h-1.6a.807.807,0,0,0-.766.766V9.641a8.948,8.948,0,0,0-3.1-.61c-3.646,0-6.4,2.966-6.4,6.9,0,3.883,2.662,6.925,6.059,6.925a6.343,6.343,0,0,0,4.183-1.687l.208.707a.767.767,0,0,0,.733.673h.672a.777.777,0,0,0,.767-.766V3.413A.787.787,0,0,0,161.157,2.647Zm-5.4,17.249c-1.879,0-3.35-1.743-3.35-3.967a3.785,3.785,0,0,1,3.6-3.938,6.4,6.4,0,0,1,2.817.7v5.425A3.565,3.565,0,0,1,155.753,19.9Z"></path></g>
</symbol>

<symbol id="people-logomark" viewBox="0 0 16 16">
  <path d="M8,.269C1.815.269.269,1.815.269,8S1.815,15.731,8,15.731,15.731,14.185,15.731,8,14.185.269,8,.269ZM6.577,4.687A1.568,1.568,0,1,1,5.01,6.254,1.568,1.568,0,0,1,6.577,4.687Zm2.376,6.626H4.187V9.884a1.43,1.43,0,0,1,1.43-1.43H7.523a1.43,1.43,0,0,1,1.43,1.43ZM10.18,5.625A1.176,1.176,0,1,1,9,6.8,1.175,1.175,0,0,1,10.18,5.625Zm1.633,4.733H9.43V9.882a1.777,1.777,0,0,0-.158-.744.445.445,0,0,0-.047-.11.73.73,0,0,0-.048-.085,1.144,1.144,0,0,0-.071-.124.877.877,0,0,1,.705-.367h1.144a.86.86,0,0,1,.858.858Z"></path>
</symbol>

<symbol id="people-logotype" viewBox="0 0 107.344 32">
  <title>people-logotype</title><g id="New"><path d="M12.978,2.947C2.6,2.947,0,5.543,0,15.925S2.6,28.9,12.978,28.9s12.977-2.6,12.977-12.978S23.36,2.947,12.978,2.947ZM10.59,10.363A2.632,2.632,0,1,1,7.958,13,2.631,2.631,0,0,1,10.59,10.363Zm3.988,11.124h-8v-2.4a2.4,2.4,0,0,1,2.4-2.4h3.2a2.4,2.4,0,0,1,2.4,2.4Zm2.059-9.549a1.973,1.973,0,1,1-1.973,1.973A1.974,1.974,0,0,1,16.637,11.938Zm2.741,7.945h-4v-.8a2.985,2.985,0,0,0-.264-1.248.772.772,0,0,0-.08-.184,1.391,1.391,0,0,0-.08-.144,1.845,1.845,0,0,0-.12-.208,1.473,1.473,0,0,1,1.184-.616h1.92a1.445,1.445,0,0,1,1.44,1.441Z"></path><path d="M39.209,9.593a6.178,6.178,0,0,0-4,1.433l-.254-.634a.678.678,0,0,0-.7-.519h-.7a.786.786,0,0,0-.766.766V28.287a.777.777,0,0,0,.766.766h1.569a.753.753,0,0,0,.822-.766v-5.66a7.283,7.283,0,0,0,3.153.789c3.57,0,6.367-3.042,6.367-6.925S42.716,9.593,39.209,9.593Zm3.153,6.9a3.768,3.768,0,0,1-3.63,3.966,5.349,5.349,0,0,1-2.846-.879V14.246a3.416,3.416,0,0,1,2.958-1.693C40.883,12.553,42.362,14.209,42.362,16.491Z"></path><path d="M53.13,9.593a6.6,6.6,0,0,0-6.591,6.9,6.555,6.555,0,0,0,6.619,6.925,7.43,7.43,0,0,0,4.886-1.631.665.665,0,0,0,.084-1.063l-.757-1.179a.613.613,0,0,0-.384-.286.808.808,0,0,0-.584.192,4.854,4.854,0,0,1-3.077,1.064,3.663,3.663,0,0,1-3.708-3.228h8.775a.751.751,0,0,0,.737-.691c.029-.232.058-.685.058-.915A5.938,5.938,0,0,0,53.13,9.593Zm-.056,2.68a2.9,2.9,0,0,1,3.032,2.64H49.774A3.134,3.134,0,0,1,53.074,12.273Z"></path><path d="M66.849,9.593a6.914,6.914,0,1,0,6.731,6.87A6.906,6.906,0,0,0,66.849,9.593Zm3.686,6.87a3.711,3.711,0,1,1-7.4,0,3.706,3.706,0,1,1,7.4,0Z"></path><path d="M81.773,9.593a6.171,6.171,0,0,0-4,1.432l-.254-.633a.679.679,0,0,0-.7-.519h-.7a.787.787,0,0,0-.767.766V28.287a.768.768,0,0,0,.767.766h1.567a.754.754,0,0,0,.823-.766V22.625a7.149,7.149,0,0,0,3.154.791c3.569,0,6.366-3.042,6.366-6.925S85.28,9.593,81.773,9.593Zm-3.321,4.653a3.413,3.413,0,0,1,2.958-1.693c2.038,0,3.517,1.656,3.517,3.938A3.767,3.767,0,0,1,81.3,20.457a5.349,5.349,0,0,1-2.846-.879Z"></path><path d="M90.619,3.929h1.569a.767.767,0,0,1,.767.767V22.343a.766.766,0,0,1-.766.766H90.62a.766.766,0,0,1-.766-.766V4.694A.765.765,0,0,1,90.619,3.929Z"></path><path d="M101.344,9.593a6.6,6.6,0,0,0-6.59,6.9,6.555,6.555,0,0,0,6.619,6.925,7.432,7.432,0,0,0,4.886-1.631.665.665,0,0,0,.084-1.063l-.757-1.179a.616.616,0,0,0-.384-.286.807.807,0,0,0-.584.192,4.854,4.854,0,0,1-3.077,1.064,3.663,3.663,0,0,1-3.708-3.228h8.775a.75.75,0,0,0,.736-.691c.03-.232.059-.685.059-.915A5.939,5.939,0,0,0,101.344,9.593Zm-.055,2.68a2.9,2.9,0,0,1,3.032,2.64H97.989A3.134,3.134,0,0,1,101.289,12.273Z"></path></g>
</symbol>

<symbol id="publishing-logomark" viewBox="0 0 16 16">
  <path d="M8,.269C1.815.269.269,1.815.269,8S1.815,15.731,8,15.731,15.731,14.185,15.731,8,14.185.269,8,.269ZM5.908,10.784a.371.371,0,0,1-.371.371H4.8a.371.371,0,0,1-.37-.371V5.216a.371.371,0,0,1,.37-.371h.741a.371.371,0,0,1,.371.371Zm5.666,0a.371.371,0,0,1-.37.371H7.447a.37.37,0,0,1-.37-.371v-.757a.37.37,0,0,1,.37-.37H11.2a.37.37,0,0,1,.37.37Zm0-2.7a.371.371,0,0,1-.37.371H7.447a.37.37,0,0,1-.37-.371V5.216a.37.37,0,0,1,.37-.371H11.2a.371.371,0,0,1,.37.371Z"></path>
</symbol>

<symbol id="publishing-logotype" viewBox="0 0 143.368 32">
  <title>publishing-logotype</title><g id="New"><path d="M39.313,9.762a6.137,6.137,0,0,0-4.012,1.45l-.266-.667a.657.657,0,0,0-.678-.5h-.7a.77.77,0,0,0-.741.74V28.47a.75.75,0,0,0,.741.741h1.568a.729.729,0,0,0,.8-.741V22.73a7.269,7.269,0,0,0,3.179.806c3.556,0,6.341-3.031,6.341-6.9C45.542,12.781,42.806,9.762,39.313,9.762Zm-3.347,4.624a3.441,3.441,0,0,1,2.983-1.714c2.053,0,3.543,1.667,3.543,3.963a3.793,3.793,0,0,1-3.655,3.992,5.367,5.367,0,0,1-2.871-.892Z"></path><path d="M57.888,10.043H56.46c-.432,0-.853.057-.853.74l0,7.817a3.088,3.088,0,0,1-2.9,2.027c-1.634,0-2.395-.939-2.395-2.956V10.783a.771.771,0,0,0-.741-.74H48a.79.79,0,0,0-.741.74v6.692c0,2.822.561,6.061,4.941,6.061a5.279,5.279,0,0,0,4.04-1.656l.266.733c.111.3.28.615.706.615h.672a.775.775,0,0,0,.769-.741v-11.7A.8.8,0,0,0,57.888,10.043Z"></path><path d="M67.447,9.762a8.9,8.9,0,0,0-3.1.613l-.023.008V4.828a.791.791,0,0,0-.742-.74H61.987a.759.759,0,0,0-.741.74V22.487a.75.75,0,0,0,.741.741h.672a.743.743,0,0,0,.708-.649l.22-.751a6.323,6.323,0,0,0,4.2,1.708c3.388,0,6.145-3.1,6.145-6.9A6.615,6.615,0,0,0,67.447,9.762ZM64.3,13.323a6.866,6.866,0,0,1,2.844-.651,3.907,3.907,0,0,1,3.738,3.963,3.78,3.78,0,0,1-3.514,3.992,3.606,3.606,0,0,1-3.068-1.78Z"></path><path d="M76.546,4.088h1.568a.741.741,0,0,1,.741.741V22.487a.741.741,0,0,1-.741.741H76.546a.741.741,0,0,1-.741-.741V4.828A.74.74,0,0,1,76.546,4.088Z"></path><path d="M82.218,10.043h1.568a.741.741,0,0,1,.741.741v11.7a.741.741,0,0,1-.741.741H82.219a.741.741,0,0,1-.741-.741v-11.7A.74.74,0,0,1,82.218,10.043Z"></path><path d="M83,4.088A1.98,1.98,0,0,0,81.03,6.117a1.966,1.966,0,0,0,1.973,2,2.015,2.015,0,1,0,0-4.03Z"></path><path d="M91.455,15.233c-1.385-.6-2.136-1.067-2.136-1.79,0-.509.472-1.022,1.527-1.022a6.584,6.584,0,0,1,2.721.632.73.73,0,0,0,1-.31l.447-.9a.892.892,0,0,0-.323-1.112,7.39,7.39,0,0,0-3.848-.973c-3.046,0-4.409,1.835-4.409,3.654,0,2.276,1.718,3.364,3.573,4.2,1.829.828,2.7,1.358,2.7,2.126,0,.69-.622,1.136-1.583,1.136a5.842,5.842,0,0,1-3.11-.91l-.047-.026a.806.806,0,0,0-.637-.1.613.613,0,0,0-.378.317l-.588,1.2a.655.655,0,0,0,.263.83h0a7.658,7.658,0,0,0,4.327,1.338c3.115,0,4.745-1.964,4.745-3.905C95.7,17.212,94.021,16.319,91.455,15.233Z"></path><path d="M104.022,9.762a6.215,6.215,0,0,0-3.627,1.223V4.828a.79.79,0,0,0-.741-.74H98.086a.759.759,0,0,0-.741.74V22.487a.75.75,0,0,0,.741.741h1.54a.723.723,0,0,0,.769-.741V14.454a3.754,3.754,0,0,1,3.263-1.782c1.581,0,2.451,1.159,2.451,3.263v6.552a.751.751,0,0,0,.741.741h1.568a.77.77,0,0,0,.741-.741v-6.5C109.159,11.916,107.383,9.762,104.022,9.762Z"></path><path d="M112.323,10.043h1.568a.741.741,0,0,1,.741.741v11.7a.741.741,0,0,1-.741.741h-1.568a.741.741,0,0,1-.741-.741v-11.7A.74.74,0,0,1,112.323,10.043Z"></path><path d="M113.108,4.088a1.98,1.98,0,0,0-1.973,2.029,1.966,1.966,0,0,0,1.973,2,2.015,2.015,0,1,0,0-4.03Z"></path><path d="M123.885,9.762a6.055,6.055,0,0,0-4.291,1.68l-.319-.91a.62.62,0,0,0-.654-.489h-.672a.77.77,0,0,0-.741.74v11.7a.75.75,0,0,0,.741.741h1.428c.593,0,.881-.243.881-.741V14.451a3.842,3.842,0,0,1,3.291-1.779c1.562,0,2.423,1.14,2.423,3.208v6.607a.75.75,0,0,0,.741.741h1.568a.771.771,0,0,0,.741-.741v-6.5C129.022,11.8,127.342,9.762,123.885,9.762Z"></path><path d="M142.628,10.043h-.756c-.417,0-.52.308-.592.524l-.267.646a6.176,6.176,0,0,0-4.041-1.451c-3.493,0-6.229,3.019-6.229,6.873,0,3.87,2.8,6.9,6.369,6.9a7.077,7.077,0,0,0,3.179-.835v.486c0,2.766-1.683,3.347-3.095,3.347a4.742,4.742,0,0,1-2.949-1.179.715.715,0,0,0-.594-.146.7.7,0,0,0-.459.382l-.671,1.23a.718.718,0,0,0,.161.878,7.1,7.1,0,0,0,4.568,1.661c3.772,0,6.116-2.365,6.116-6.173v-12.4A.759.759,0,0,0,142.628,10.043Zm-5.18,10.584a3.886,3.886,0,0,1-3.655-3.992,3.523,3.523,0,0,1,6.526-2.236v5.254A5.173,5.173,0,0,1,137.448,20.627Z"></path><path d="M13.032,3.255C2.65,3.255.055,5.851.055,16.233s2.6,12.978,12.977,12.978,12.978-2.6,12.978-12.978S23.415,3.255,13.032,3.255ZM9.52,20.907a.622.622,0,0,1-.622.622H7.654a.623.623,0,0,1-.622-.622V11.559a.623.623,0,0,1,.622-.622H8.9a.622.622,0,0,1,.622.622Zm9.512,0a.622.622,0,0,1-.622.622H12.1a.623.623,0,0,1-.622-.622V19.636a.622.622,0,0,1,.622-.622H18.41a.621.621,0,0,1,.622.622Zm0-4.529a.621.621,0,0,1-.621.621H12.1a.622.622,0,0,1-.622-.621V11.559a.623.623,0,0,1,.622-.622H18.41a.622.622,0,0,1,.622.622Z"></path></g>
</symbol>

<symbol id="registrations-logomark" viewBox="0 0 16 16">
  <path d="M15.744,8c0,6.2-1.549,7.744-7.744,7.744S.256,14.2.256,8,1.8.256,8,.256,15.744,1.805,15.744,8ZM8.7,10.566,5.434,7.3a.124.124,0,0,0-.175,0L3.717,8.844a.389.389,0,0,0,0,.552l.541.542a.168.168,0,0,0,.209.019,1.148,1.148,0,0,1,1.574,1.574.168.168,0,0,0,.019.209l.544.543a.389.389,0,0,0,.552,0L8.7,10.741A.124.124,0,0,0,8.7,10.566ZM12.283,6.6l-.545-.545a.169.169,0,0,0-.207-.021A1.149,1.149,0,0,1,9.96,4.467a.169.169,0,0,0-.021-.207L9.4,3.717a.389.389,0,0,0-.552,0L6.032,6.529a.124.124,0,0,0,0,.175L9.3,9.968a.124.124,0,0,0,.175,0l2.812-2.812A.389.389,0,0,0,12.283,6.6Z"></path>
</symbol>

<symbol id="registrations-logotype" viewBox="0 0 169.804 32">
  <title>registrations-logotype</title><g id="New"><path d="M41.578,10.076l-.672,1.4a.759.759,0,0,1-.435.419.7.7,0,0,1-.55-.041,3.067,3.067,0,0,0-1.11-.237,3.554,3.554,0,0,0-2.9,1.623v8.167c0,.766-.63.766-1.046.766H33.575a.777.777,0,0,1-.767-.766V9.7a.786.786,0,0,1,.767-.765h.672a.748.748,0,0,1,.707.564l.276.894a5.094,5.094,0,0,1,3.86-1.739c.973,0,2.133.194,2.475.738A.673.673,0,0,1,41.578,10.076Zm12.447,4.666c0,.23-.029.683-.059.915a.75.75,0,0,1-.736.691H44.455a3.663,3.663,0,0,0,3.708,3.228,4.854,4.854,0,0,0,3.077-1.064.8.8,0,0,1,.584-.192.614.614,0,0,1,.384.287l.756,1.178a.664.664,0,0,1-.084,1.063A7.419,7.419,0,0,1,48,22.48c-3.835,0-6.619-2.913-6.619-6.926a6.6,6.6,0,0,1,6.59-6.9A5.939,5.939,0,0,1,54.025,14.742Zm-9.414-.765h6.332a2.9,2.9,0,0,0-3.032-2.641A3.134,3.134,0,0,0,44.611,13.977ZM67.619,9.7v12.4c0,3.823-2.354,6.2-6.143,6.2a7.122,7.122,0,0,1-4.586-1.668.734.734,0,0,1-.164-.908l.67-1.23a.724.724,0,0,1,.475-.394.742.742,0,0,1,.615.15,4.721,4.721,0,0,0,2.935,1.174c1.4,0,3.069-.576,3.069-3.322v-.444a7.085,7.085,0,0,1-3.153.818c-3.586,0-6.4-3.042-6.4-6.926,0-3.868,2.747-6.9,6.254-6.9a6.223,6.223,0,0,1,4.032,1.434l.254-.613c.069-.21.18-.54.614-.54h.756A.786.786,0,0,1,67.619,9.7ZM61.56,11.616a3.662,3.662,0,0,0-3.517,3.938,3.861,3.861,0,0,0,3.629,3.967,5.149,5.149,0,0,0,2.846-.961V13.324A3.68,3.68,0,0,0,61.56,11.616ZM72.513,8.937H70.946a.786.786,0,0,0-.767.765v11.7a.768.768,0,0,0,.767.766h1.567a.787.787,0,0,0,.767-.766V9.7A.807.807,0,0,0,72.513,8.937ZM71.729,3.1a2.006,2.006,0,0,0-2,2.054,2.014,2.014,0,0,0,2,2.026,2.04,2.04,0,1,0,0-4.08Zm8.462,11.025c-1.376-.6-2.121-1.058-2.121-1.767,0-.5.464-1,1.5-1A6.551,6.551,0,0,1,82.283,12a.755.755,0,0,0,1.035-.322l.447-.895a.917.917,0,0,0-.331-1.145,7.418,7.418,0,0,0-3.862-.977c-3.064,0-4.435,1.848-4.435,3.679,0,2.291,1.725,3.384,3.589,4.224,1.819.824,2.684,1.348,2.684,2.1,0,.685-.6,1.111-1.558,1.111a5.842,5.842,0,0,1-3.1-.906l-.047-.026a.824.824,0,0,0-.655-.1.642.642,0,0,0-.4.329l-.587,1.2a.676.676,0,0,0,.271.86l0,0a7.692,7.692,0,0,0,4.341,1.342c3.131,0,4.77-1.977,4.77-3.93C84.454,16.116,82.765,15.219,80.191,14.129Zm13.714,5.149a.72.72,0,0,0-.412-.435.669.669,0,0,0-.561.082,4.2,4.2,0,0,1-2,.6c-.467,0-.886-.09-.886-1.167V11.616h3.266a.787.787,0,0,0,.767-.766V9.7a.758.758,0,0,0-.767-.765H90.051V5.474a.745.745,0,0,0-.738-.766h-1.6a.767.767,0,0,0-.765.766V8.937H85.617a.74.74,0,0,0-.767.765V10.85a.768.768,0,0,0,.767.766h1.334v6.85c0,1.869.389,4.014,3.426,4.014a7.934,7.934,0,0,0,3.664-.947.723.723,0,0,0,.368-.937Zm10.42-9.884c-.342-.544-1.5-.738-2.474-.738a5.193,5.193,0,0,0-3.862,1.734L97.713,9.5a.744.744,0,0,0-.706-.565h-.671a.785.785,0,0,0-.767.765v11.7a.768.768,0,0,0,.767.766h1.287c.417,0,1.047,0,1.047-.766V13.239a3.553,3.553,0,0,1,2.9-1.623,3.045,3.045,0,0,1,1.108.237.707.707,0,0,0,.552.041.759.759,0,0,0,.435-.419l.671-1.4A.671.671,0,0,0,104.325,9.394Zm10.847,5.124v6.888a.786.786,0,0,1-.766.766h-.924c-.369,0-.535-.216-.671-.54l-.234-.661a5.7,5.7,0,0,1-3.911,1.509,4.16,4.16,0,0,1-4.323-4.462c0-2.625,2.093-4.322,5.331-4.322a9.992,9.992,0,0,1,2.457.344,2.988,2.988,0,0,0-.543-2.166,1.838,1.838,0,0,0-1.382-.454,13.194,13.194,0,0,0-3.57.61.749.749,0,0,1-.917-.642l-.251-1.064a.733.733,0,0,1,.514-.931,14.052,14.052,0,0,1,4.5-.737C114.82,8.656,115.172,11.311,115.172,14.518Zm-3.073,3.9V16.4a6.317,6.317,0,0,0-2.2-.388c-1.5,0-2.51.795-2.51,1.978a1.745,1.745,0,0,0,1.866,1.894A3.876,3.876,0,0,0,112.1,18.423Zm13.092.855a.72.72,0,0,0-.412-.435.669.669,0,0,0-.561.082,4.2,4.2,0,0,1-2,.6c-.467,0-.886-.09-.886-1.167V11.616H124.6a.787.787,0,0,0,.767-.766V9.7a.758.758,0,0,0-.767-.765h-3.266V5.474a.745.745,0,0,0-.738-.766H119a.767.767,0,0,0-.766.766V8.937H116.9a.741.741,0,0,0-.767.765V10.85a.768.768,0,0,0,.767.766h1.334v6.85c0,1.869.39,4.014,3.426,4.014a7.934,7.934,0,0,0,3.664-.947.723.723,0,0,0,.368-.937Zm4-10.341h-1.567a.786.786,0,0,0-.767.765v11.7a.768.768,0,0,0,.767.766h1.567a.787.787,0,0,0,.767-.766V9.7A.807.807,0,0,0,129.186,8.937ZM128.4,3.1a2.006,2.006,0,0,0-2,2.054,2.014,2.014,0,0,0,2,2.026,2.04,2.04,0,1,0,0-4.08Zm16.716,12.422a6.936,6.936,0,0,1-6.731,6.954,6.914,6.914,0,1,1,6.731-6.954Zm-6.731-3.91a3.732,3.732,0,0,0-3.714,3.91,3.711,3.711,0,1,0,7.4,0A3.719,3.719,0,0,0,138.387,11.616Zm15.2-2.96a6.093,6.093,0,0,0-4.28,1.66l-.305-.87a.642.642,0,0,0-.678-.509h-.672a.786.786,0,0,0-.767.765v11.7a.777.777,0,0,0,.767.766h1.428c.609,0,.906-.25.906-.766V13.375a3.818,3.818,0,0,1,3.265-1.759c1.547,0,2.4,1.131,2.4,3.182v6.608a.767.767,0,0,0,.766.766h1.568a.787.787,0,0,0,.767-.766v-6.5C158.754,10.7,157.064,8.656,153.59,8.656Zm11.952,5.473c-1.376-.6-2.121-1.058-2.121-1.767,0-.5.463-1,1.5-1a6.554,6.554,0,0,1,2.711.631.756.756,0,0,0,1.036-.322l.448-.895a.918.918,0,0,0-.332-1.145,7.414,7.414,0,0,0-3.863-.977c-3.062,0-4.433,1.848-4.433,3.679,0,2.291,1.724,3.384,3.589,4.224,1.817.823,2.682,1.348,2.682,2.1,0,.685-.6,1.111-1.557,1.111a5.833,5.833,0,0,1-3.1-.907l-.046-.025a.821.821,0,0,0-.656-.1.64.64,0,0,0-.394.329l-.586,1.2a.676.676,0,0,0,.27.861l0,0a7.692,7.692,0,0,0,4.341,1.342c3.132,0,4.77-1.977,4.77-3.93C169.8,16.116,168.116,15.219,165.542,14.129ZM26,16c0,10.4-2.6,13-13,13S0,26.4,0,16,2.6,3,13,3,26,5.6,26,16ZM14.172,20.308l-5.48-5.479a.206.206,0,0,0-.294,0L5.81,17.417a.655.655,0,0,0,0,.927l.909.908a.282.282,0,0,0,.35.033,1.927,1.927,0,0,1,2.642,2.643.283.283,0,0,0,.033.35l.912.912a.655.655,0,0,0,.927,0L14.172,20.6A.208.208,0,0,0,14.172,20.308Zm6.018-6.652-.915-.915a.283.283,0,0,0-.348-.034A1.928,1.928,0,0,1,16.29,10.07a.284.284,0,0,0-.034-.348l-.912-.912a.655.655,0,0,0-.927,0L9.7,13.53a.206.206,0,0,0,0,.294l5.479,5.48a.208.208,0,0,0,.294,0l4.72-4.721A.655.655,0,0,0,20.19,13.656Z"></path></g>
</symbol>

<symbol id="resource-logotype" viewBox="0 0 140.247 32">
  <title>resource-logotype</title><g id="New"><path d="M43.715,10.22l-.671,1.4a.762.762,0,0,1-.435.419A.709.709,0,0,1,42.058,12a3.061,3.061,0,0,0-1.109-.237,3.556,3.556,0,0,0-2.9,1.623V21.55c0,.766-.629.766-1.045.766H35.712a.777.777,0,0,1-.766-.766V9.846a.785.785,0,0,1,.766-.765h.672a.746.746,0,0,1,.707.564l.277.894A5.092,5.092,0,0,1,41.228,8.8c.973,0,2.133.194,2.475.738A.671.671,0,0,1,43.715,10.22Zm12.448,4.666c0,.23-.03.683-.059.915a.75.75,0,0,1-.736.691H46.592A3.664,3.664,0,0,0,50.3,19.72a4.857,4.857,0,0,0,3.078-1.064.807.807,0,0,1,.583-.192.609.609,0,0,1,.384.287l.757,1.178a.664.664,0,0,1-.084,1.063,7.42,7.42,0,0,1-4.886,1.632c-3.835,0-6.619-2.913-6.619-6.926A6.6,6.6,0,0,1,50.1,8.8,5.94,5.94,0,0,1,56.163,14.886Zm-9.414-.765h6.332a2.9,2.9,0,0,0-3.033-2.641A3.133,3.133,0,0,0,46.749,14.121Zm15.413.152c-1.376-.6-2.121-1.058-2.121-1.767,0-.5.463-1,1.5-1a6.558,6.558,0,0,1,2.711.631.754.754,0,0,0,1.035-.321l.448-.9A.917.917,0,0,0,65.4,9.777,7.412,7.412,0,0,0,61.542,8.8c-3.063,0-4.434,1.848-4.434,3.679,0,2.291,1.725,3.384,3.589,4.224,1.817.824,2.682,1.348,2.682,2.1,0,.685-.6,1.111-1.557,1.111a5.833,5.833,0,0,1-3.1-.907l-.046-.025a.817.817,0,0,0-.656-.1.639.639,0,0,0-.393.329l-.587,1.2a.675.675,0,0,0,.27.861l0,0a7.692,7.692,0,0,0,4.341,1.342c3.132,0,4.77-1.977,4.77-3.93C66.424,16.26,64.736,15.363,62.162,14.273Zm18.511,1.4a6.936,6.936,0,0,1-6.73,6.954,6.914,6.914,0,1,1,6.73-6.954Zm-6.73-3.91a3.732,3.732,0,0,0-3.714,3.91,3.71,3.71,0,1,0,7.4,0A3.719,3.719,0,0,0,73.943,11.76ZM92.929,9.081H91.5c-.445,0-.878.059-.878.765l0,7.812a3.062,3.062,0,0,1-2.877,2.007c-1.617,0-2.37-.931-2.37-2.93V9.846a.785.785,0,0,0-.766-.765H83.045a.806.806,0,0,0-.766.765v6.692c0,2.834.564,6.086,4.967,6.086a5.305,5.305,0,0,0,4.03-1.635l.253.7c.113.312.289.631.728.631h.672a.8.8,0,0,0,.8-.766V9.846A.811.811,0,0,0,92.929,9.081Zm12.089.457c-.342-.544-1.5-.738-2.474-.738a5.194,5.194,0,0,0-3.862,1.734l-.275-.888a.746.746,0,0,0-.706-.565h-.672a.786.786,0,0,0-.767.765v11.7a.768.768,0,0,0,.767.766h1.287c.417,0,1.047,0,1.047-.766V13.383a3.553,3.553,0,0,1,2.9-1.623,3.062,3.062,0,0,1,1.11.237.706.706,0,0,0,.55.041.759.759,0,0,0,.435-.419l.672-1.4A.673.673,0,0,0,105.018,9.538Zm10.542,8.507a.739.739,0,0,0-1.063.063c-.105.095-.208.2-.314.3a3.408,3.408,0,0,1-2.637,1.254A3.794,3.794,0,0,1,107.86,15.7a3.816,3.816,0,0,1,3.77-3.938,3.776,3.776,0,0,1,2.555,1.246c.215.214.578.574,1.047.143l1.007-.923a.787.787,0,0,0,.127-1.13,5.8,5.8,0,0,0-4.82-2.3,6.866,6.866,0,0,0-6.787,6.926,6.757,6.757,0,0,0,6.759,6.9,6.032,6.032,0,0,0,5.165-2.755c.169-.254.264-.654-.256-1.123Zm14.426-3.159c0,.23-.029.683-.059.915a.75.75,0,0,1-.736.691h-8.775a3.663,3.663,0,0,0,3.708,3.228,4.856,4.856,0,0,0,3.077-1.064.81.81,0,0,1,.584-.192.614.614,0,0,1,.384.287l.756,1.178a.664.664,0,0,1-.084,1.063,7.419,7.419,0,0,1-4.885,1.632,6.556,6.556,0,0,1-6.62-6.926,6.6,6.6,0,0,1,6.591-6.9A5.94,5.94,0,0,1,129.986,14.886Zm-9.414-.765H126.9a2.9,2.9,0,0,0-3.032-2.641A3.134,3.134,0,0,0,120.572,14.121Zm15.412.152c-1.376-.6-2.121-1.058-2.121-1.767,0-.5.464-1,1.5-1a6.551,6.551,0,0,1,2.711.631.755.755,0,0,0,1.035-.322l.447-.895a.917.917,0,0,0-.331-1.145,7.418,7.418,0,0,0-3.862-.977c-3.064,0-4.435,1.848-4.435,3.679,0,2.291,1.725,3.384,3.589,4.224,1.818.824,2.684,1.348,2.684,2.1,0,.685-.6,1.111-1.558,1.111a5.842,5.842,0,0,1-3.1-.906l-.047-.026a.824.824,0,0,0-.655-.1.639.639,0,0,0-.4.329l-.587,1.2a.676.676,0,0,0,.271.86l0,0a7.692,7.692,0,0,0,4.341,1.342c3.131,0,4.77-1.977,4.77-3.93C140.247,16.26,138.558,15.363,135.984,14.273ZM25.955,16.144c0,10.382-2.595,12.978-12.977,12.978S0,26.526,0,16.144,2.6,3.166,12.978,3.166,25.955,5.762,25.955,16.144ZM11.978,17.926a.782.782,0,0,0-.782-.782H7.76a.782.782,0,0,0-.782.782v3.436a.782.782,0,0,0,.782.782H11.2a.782.782,0,0,0,.782-.782Zm0-7a.782.782,0,0,0-.782-.782H7.76a.782.782,0,0,0-.782.782v3.436a.782.782,0,0,0,.782.782H11.2a.782.782,0,0,0,.782-.782Zm7,7a.782.782,0,0,0-.782-.782H14.76a.782.782,0,0,0-.782.782v3.436a.782.782,0,0,0,.782.782H18.2a.782.782,0,0,0,.782-.782Zm0-7a.782.782,0,0,0-.782-.782H14.76a.782.782,0,0,0-.782.782v3.436a.782.782,0,0,0,.782.782H18.2a.782.782,0,0,0,.782-.782Z"></path></g>
</symbol>

<symbol id="resources-logomark" viewBox="0 0 16 16">
  <path d="M15.731,8c0,6.185-1.546,7.731-7.731,7.731S.269,14.185.269,8,1.815.269,8,.269,15.731,1.815,15.731,8ZM7.4,9.062A.465.465,0,0,0,6.938,8.6H4.892a.465.465,0,0,0-.466.466v2.046a.465.465,0,0,0,.466.466H6.938a.465.465,0,0,0,.466-.466Zm0-4.17a.465.465,0,0,0-.466-.466H4.892a.465.465,0,0,0-.466.466V6.938a.465.465,0,0,0,.466.466H6.938A.465.465,0,0,0,7.4,6.938Zm4.17,4.17a.465.465,0,0,0-.466-.466H9.062a.465.465,0,0,0-.466.466v2.046a.465.465,0,0,0,.466.466h2.046a.465.465,0,0,0,.466-.466Zm0-4.17a.465.465,0,0,0-.466-.466H9.062a.465.465,0,0,0-.466.466V6.938a.465.465,0,0,0,.466.466h2.046a.465.465,0,0,0,.466-.466Z"></path>
</symbol>

<symbol id="services-logomark" viewBox="0 0 16 16">
  <path d="M8,.25C1.8.25.25,1.8.25,8S1.8,15.75,8,15.75,15.75,14.2,15.75,8,14.2.25,8,.25ZM4.475,11.508a.822.822,0,1,1,.822-.822A.822.822,0,0,1,4.475,11.508Zm0-2.673A.822.822,0,1,1,5.3,8.014.822.822,0,0,1,4.475,8.835Zm0-2.672A.822.822,0,1,1,5.3,5.341.822.822,0,0,1,4.475,6.163Zm7.419,4.889a.377.377,0,0,1-.377.377H6.566a.377.377,0,0,1-.377-.377V10.32a.377.377,0,0,1,.377-.377h4.951a.377.377,0,0,1,.377.377Zm0-2.672a.376.376,0,0,1-.377.376H6.566a.376.376,0,0,1-.377-.376V7.647a.376.376,0,0,1,.377-.376h4.951a.376.376,0,0,1,.377.376Zm0-2.673a.377.377,0,0,1-.377.377H6.566a.377.377,0,0,1-.377-.377V4.975A.377.377,0,0,1,6.566,4.6h4.951a.377.377,0,0,1,.377.377Z"></path>
</symbol>

<symbol id="services-logotype" viewBox="0 0 120.699 32">
  <title>services-logotype</title><g id="New"><path d="M37.973,14.193c-1.375-.6-2.121-1.057-2.121-1.766,0-.5.464-1,1.5-1a6.551,6.551,0,0,1,2.711.631.753.753,0,0,0,1.035-.322l.448-.9A.918.918,0,0,0,41.217,9.7a7.413,7.413,0,0,0-3.863-.977c-3.063,0-4.434,1.847-4.434,3.678,0,2.291,1.724,3.385,3.589,4.225,1.818.824,2.683,1.348,2.683,2.1,0,.685-.6,1.111-1.557,1.111a5.833,5.833,0,0,1-3.1-.906l-.048-.025a.819.819,0,0,0-.654-.1.642.642,0,0,0-.4.33l-.587,1.2a.678.678,0,0,0,.272.861h0a7.689,7.689,0,0,0,4.341,1.342c3.131,0,4.769-1.976,4.769-3.929C42.236,16.181,40.548,15.284,37.973,14.193Z"></path><path d="M49.615,8.721a6.6,6.6,0,0,0-6.591,6.9,6.555,6.555,0,0,0,6.619,6.925,7.42,7.42,0,0,0,4.886-1.632.664.664,0,0,0,.084-1.063l-.757-1.178a.608.608,0,0,0-.383-.286.8.8,0,0,0-.584.192,4.857,4.857,0,0,1-3.078,1.064A3.664,3.664,0,0,1,46.1,16.412h8.776a.749.749,0,0,0,.736-.69c.029-.232.059-.685.059-.916A5.939,5.939,0,0,0,49.615,8.721Zm-.056,2.68a2.9,2.9,0,0,1,3.033,2.64H46.26A3.133,3.133,0,0,1,49.559,11.4Z"></path><path d="M63.645,8.721a5.1,5.1,0,0,0-3.86,1.738l-.276-.893A.749.749,0,0,0,58.8,9H58.13a.787.787,0,0,0-.767.765V21.471a.777.777,0,0,0,.767.766h1.288c.416,0,1.046,0,1.046-.766V13.3a3.551,3.551,0,0,1,2.9-1.623,3.085,3.085,0,0,1,1.109.236.705.705,0,0,0,.551.042.758.758,0,0,0,.435-.42l.672-1.4a.671.671,0,0,0-.013-.681C65.778,8.915,64.618,8.721,63.645,8.721Z"></path><path d="M78.673,9h-1.26c-.373,0-.8,0-1,.451l-3.5,7.681L69.567,9.447A.706.706,0,0,0,68.873,9H67.165a.708.708,0,0,0-.642.31.635.635,0,0,0,.033.636l5.6,12.178a.776.776,0,0,0,.693.419h.169a.727.727,0,0,0,.668-.423L79.279,9.953a.632.632,0,0,0,.035-.642A.705.705,0,0,0,78.673,9Z"></path><path d="M81.2,9h1.569a.767.767,0,0,1,.767.767v11.7a.767.767,0,0,1-.767.767H81.2a.766.766,0,0,1-.766-.766V9.766A.765.765,0,0,1,81.2,9Z"></path><path d="M81.985,3.169a2.005,2.005,0,0,0-2,2.054,1.991,1.991,0,0,0,2,2.026,2.04,2.04,0,1,0,0-4.08Z"></path><path d="M96.012,17.966a.741.741,0,0,0-1.064.062c-.1.1-.208.2-.313.3A3.412,3.412,0,0,1,92,19.585a3.793,3.793,0,0,1-3.687-3.966,3.61,3.61,0,0,1,6.326-2.692c.214.214.578.573,1.046.142l1.007-.923a.785.785,0,0,0,.127-1.129A5.8,5.8,0,0,0,92,8.721a6.865,6.865,0,0,0-6.787,6.925,6.757,6.757,0,0,0,6.759,6.9,6.036,6.036,0,0,0,5.165-2.754c.169-.254.263-.654-.256-1.124Z"></path><path d="M104.379,8.721a6.6,6.6,0,0,0-6.591,6.9,6.555,6.555,0,0,0,6.619,6.925,7.423,7.423,0,0,0,4.886-1.632.665.665,0,0,0,.084-1.063l-.757-1.178a.607.607,0,0,0-.384-.286.8.8,0,0,0-.584.192,4.854,4.854,0,0,1-3.077,1.064,3.663,3.663,0,0,1-3.708-3.229h8.775a.75.75,0,0,0,.737-.69c.029-.232.058-.685.058-.916A5.938,5.938,0,0,0,104.379,8.721Zm-.056,2.68a2.9,2.9,0,0,1,3.032,2.64h-6.332A3.134,3.134,0,0,1,104.323,11.4Z"></path><path d="M116.436,14.193c-1.376-.6-2.121-1.057-2.121-1.766,0-.5.464-1,1.5-1a6.554,6.554,0,0,1,2.711.631.754.754,0,0,0,1.035-.322l.449-.9a.917.917,0,0,0-.332-1.144,7.407,7.407,0,0,0-3.863-.977c-3.062,0-4.433,1.847-4.433,3.678,0,2.291,1.724,3.385,3.589,4.225,1.817.823,2.682,1.348,2.682,2.1,0,.685-.6,1.111-1.557,1.111a5.84,5.84,0,0,1-3.1-.906l-.046-.025a.814.814,0,0,0-.656-.1.637.637,0,0,0-.394.329l-.587,1.2a.677.677,0,0,0,.271.861h0a7.689,7.689,0,0,0,4.341,1.342c3.131,0,4.77-1.976,4.77-3.929C120.7,16.181,119.011,15.284,116.436,14.193Z"></path><path d="M13.009,2.991C2.6,2.991,0,5.593,0,16S2.6,29.009,13.009,29.009s13.01-2.6,13.01-13.009S23.417,2.991,13.009,2.991Zm-5.917,18.9a1.379,1.379,0,1,1,1.38-1.379A1.378,1.378,0,0,1,7.092,21.888Zm0-4.486a1.38,1.38,0,1,1,1.38-1.379A1.378,1.378,0,0,1,7.092,17.4Zm0-4.486a1.38,1.38,0,1,1,1.38-1.379A1.379,1.379,0,0,1,7.092,12.916Zm12.454,8.208a.632.632,0,0,1-.632.632H10.6a.632.632,0,0,1-.632-.632v-1.23a.632.632,0,0,1,.632-.632h8.312a.632.632,0,0,1,.632.632Zm0-4.486a.632.632,0,0,1-.632.632H10.6a.632.632,0,0,1-.632-.632v-1.23a.632.632,0,0,1,.632-.632h8.312a.632.632,0,0,1,.632.632Zm0-4.487a.632.632,0,0,1-.632.632H10.6a.632.632,0,0,1-.632-.632V10.922a.632.632,0,0,1,.632-.632h8.312a.632.632,0,0,1,.632.632Z"></path></g>
</symbol>
    </svg>