<svg xmlns="http://www.w3.org/2000/svg" xmlns:xlink="http://www.w3.org/1999/xlink">
    
<symbol id="check-ins" viewBox="0 0 16 16">
  <title>check-ins</title><g id="Layer_1" data-name="Layer 1"> <g> <path d="M8.00488,15.501A7.50049,7.50049,0,1,1,8,.5a7.169,7.169,0,0,1,2.874.5625,7.506,7.506,0,0,1-.0039,13.8667A7.48031,7.48031,0,0,1,8.00488,15.501ZM8,1.5a6.46916,6.46916,0,1,0,2.49316.4873A6.85028,6.85028,0,0,0,8.002,1.5Z"></path> <path d="M6.979,11.22168a.50082.50082,0,0,1-.38916-.186L4.54834,8.5083a.5.5,0,0,1,.77832-.62793L6.978,9.9248l3.98681-4.96044a.50009.50009,0,1,1,.7793.62695L7.36865,11.03516a.49983.49983,0,0,1-.38916.18652Z"></path> </g> </g>
</symbol>

<symbol id="giving" viewBox="0 0 16 16">
  <title>giving</title><g id="Layer_1" data-name="Layer 1"> <g> <path d="M14.98584,13.32031h-.001L1.00732,13.29688a.49992.49992,0,0,1-.499-.50049L.52246,3.18262a.50011.50011,0,0,1,.5-.49951h.001L15.001,2.70654a.5.5,0,0,1,.499.501l-.01416,9.61377a.50011.50011,0,0,1-.5.499Zm-13.477-1.02246,12.978.02149.0122-8.61377L1.52148,3.68408Z"></path> <path d="M3.60645,13.293H3.605a.5.5,0,0,1-.49853-.50147,2.08439,2.08439,0,0,0-.605-1.47949,2.08766,2.08766,0,0,0-1.47265-.62549.5.5,0,0,1,.00537-1h.00537a3.08094,3.08094,0,0,1,2.17334.92286,3.0757,3.0757,0,0,1,.89356,2.18505A.50035.50035,0,0,1,3.60645,13.293Z"></path> <path d="M12.23584,13.25928h-.01367a.50054.50054,0,0,1-.48682-.51319,3.19221,3.19221,0,0,1,.98291-2.229,3.12148,3.12148,0,0,1,2.26563-.897.5.5,0,0,1-.00635,1c-.01074-.001-.02246,0-.03418,0a2.20918,2.20918,0,0,0-2.208,2.15234A.5001.5001,0,0,1,12.23584,13.25928Z"></path> <path d="M14.80811,6.21875h-.001A2.87811,2.87811,0,0,1,11.93994,3.146a.51147.51147,0,0,1,.53272-.46534.50074.50074,0,0,1,.46533.53272,1.8778,1.8778,0,0,0,1.87109,2.00537.5.5,0,0,1-.001,1Z"></path> <path d="M1.02637,6.25244H.99512A.5.5,0,0,1,.5,5.74756a.51277.51277,0,0,1,.50488-.49512,2.153,2.153,0,0,0,.80127-.15137,2.07811,2.07811,0,0,0,1.3003-1.92285.50033.50033,0,0,1,.5-.49853h.00146a.5.5,0,0,1,.49854.50146,3.0808,3.0808,0,0,1-.916,2.1836,3.0791,3.0791,0,0,1-2.16406.88769Z"></path> <path d="M7.92139,11.39746H7.91846a.5.5,0,0,1-.375-.17236L4.90283,8.17822a2.03236,2.03236,0,0,1-.36035-.81689,2.00926,2.00926,0,0,1,.01416-.84082,1.92483,1.92483,0,0,1,.68994-1.09375,2.0305,2.0305,0,0,1,1.229-.41162,2.05691,2.05691,0,0,1,1.47949.6167,2.03737,2.03737,0,0,1,.28564-.24268,2.0908,2.0908,0,0,1,1.208-.374,1.96613,1.96613,0,0,1,1.49854,3.22314L8.29541,11.229A.49823.49823,0,0,1,7.92139,11.39746ZM6.45215,6.01465a.94315.94315,0,0,0-.58838.19824.92836.92836,0,0,0-.33154.52734,1.018,1.018,0,0,0-.0083.43067,1.03019,1.03019,0,0,0,.166.39258l2.23535,2.57568L10.18848,7.5874a.97031.97031,0,0,0,.123-1.01367.96621.96621,0,0,0-.8706-.55859c-.01172-.00049-.01367,0-.02,0a1.04106,1.04106,0,0,0-.60352.19091,1.05566,1.05566,0,0,0-.38867.51954.5.5,0,0,1-.47314.33984H7.95508a.4998.4998,0,0,1-.47315-.33887,1.044,1.044,0,0,0-.38867-.52,1.10644,1.10644,0,0,0-.6206-.1914Z"></path> </g> </g>
</symbol>

<symbol id="groups" viewBox="0 0 16 16">
  <title>groups</title><g id="Layer_1" data-name="Layer 1"> <g> <g> <path d="M4.68974,5.82652c-.65212-.24116-1.40466-.579-1.45486-.82068V4.81249a1.24371,1.24371,0,0,0,.30068-.62785.37528.37528,0,0,0,.09773-.11387.35935.35935,0,0,0,.02725-.28834.368.368,0,0,0-.07478-.129V3.17061A.7126.7126,0,0,0,3.549,2.84152.73505.73505,0,0,0,3.36656,2.561a.7716.7716,0,0,0-.29139-.17562.79474.79474,0,0,0-.3418-.03542.81809.81809,0,0,0-.337.04392.79433.79433,0,0,0-.28663.17628.75769.75769,0,0,0-.18309.276.73456.73456,0,0,0-.04563.3245v.48285c-.10041.19335-.10041.4345.0502.53118a1.08686,1.08686,0,0,0,.30069.57951v.24169c-.05021.24169-.752.57952-1.40411.82068-.0502,0-.10041.09667-.10041.145v.53115a.12349.12349,0,0,0,.00542.0587.12718.12718,0,0,0,.03216.05014.13374.13374,0,0,0,.05207.031.13771.13771,0,0,0,.061.0052H4.63953a.13771.13771,0,0,0,.061-.0052.13374.13374,0,0,0,.05207-.031.12729.12729,0,0,0,.03216-.05014.12349.12349,0,0,0,.00542-.0587V5.97153C4.73994,5.92319,4.73994,5.87485,4.68974,5.82652Z"></path> <path d="M4.65967,7.14893a.63161.63161,0,0,1-.09082-.00635L.87793,7.14746a.97688.97688,0,0,1-.21582-.0293A.64227.64227,0,0,1,.41748,6.9707a.78362.78362,0,0,1-.15771-.24756.61111.61111,0,0,1-.02686-.293l-.00537-.4585A.66447.66447,0,0,1,.689,5.34473a5.28843,5.28843,0,0,0,.99317-.46631A1.56824,1.56824,0,0,1,1.47705,4.438a.91092.91092,0,0,1-.09619-.88965V3.17041A1.17623,1.17623,0,0,1,1.45947,2.668a1.251,1.251,0,0,1,.30323-.45752A1.289,1.289,0,0,1,2.23,1.92236a1.4019,1.4019,0,0,1,.544-.0708,1.07164,1.07164,0,0,1,.45947.05957,1.2782,1.2782,0,0,1,.48047.29A1.23738,1.23738,0,0,1,4.02,2.67334a1.21811,1.21811,0,0,1,.062.55811l.00244.27246a.82933.82933,0,0,1,.05078.12158.859.859,0,0,1-.06494.688.914.914,0,0,1-.07568.11474,1.75,1.75,0,0,1-.19141.45264,6.33912,6.33912,0,0,0,1.06006.47705.49576.49576,0,0,1,.17481.10986,1.20558,1.20558,0,0,1,.1455.20118A.34213.34213,0,0,1,5.29,5.97168v.53076a.93376.93376,0,0,1-.03125.21729.63177.63177,0,0,1-.165.25732.81763.81763,0,0,1-.23828.14111A.65.65,0,0,1,4.65967,7.14893Zm-.36524-.67432a.36171.36171,0,0,0,.001.1001ZM.82861,6.32666h0Zm.02881-.17773a.34367.34367,0,0,0-.05029.00341h.1001A.34187.34187,0,0,0,.85742,6.14893Zm1.46973-2.27a.50278.50278,0,0,1,.09668.2207.587.587,0,0,0,.16308.3125.50062.50062,0,0,1,.145.35205v.2417a.51282.51282,0,0,1-.01025.10205c-.03711.17773-.11084.53174-1.35156,1.04395L4.13525,6.148c-1.17529-.47754-1.33691-.78613-1.39013-1.04a.51283.51283,0,0,1-.01026-.10205V4.8125A.50043.50043,0,0,1,2.86133,4.48.74037.74037,0,0,0,3.042,4.10449a.50148.50148,0,0,1,.1167-.24853.22827.22827,0,0,1-.07275-.20264V3.17041l-.0083-.16113a.22834.22834,0,0,0-.05811-.08838A.27292.27292,0,0,0,2.917,2.85938a.30673.30673,0,0,0-.127-.0127.62753.62753,0,0,0-.22656.01855.29488.29488,0,0,0-.10645.065.25248.25248,0,0,0-.063.09375.24006.24006,0,0,0-.01513.10449l.002.5249A.50158.50158,0,0,1,2.32715,3.87891ZM3.228,3.79053Z"></path> </g> <g> <path d="M10.15659,13.55251a4.73637,4.73637,0,0,1-1.4543-.82067v-.24169a1.08673,1.08673,0,0,0,.30068-.57952.37438.37438,0,0,0,.09776-.11383.36212.36212,0,0,0,.044-.14151.35831.35831,0,0,0-.01671-.14681.36845.36845,0,0,0-.07482-.129v-.48284a.7664.7664,0,0,0-.85239-.869.76641.76641,0,0,0-.85239.869v.48284a.42671.42671,0,0,0-.06819.27377.43208.43208,0,0,0,.11839.25741,1.08736,1.08736,0,0,0,.30069.57952v.24169c-.05021.19335-.80274.53118-1.45431.82067-.05021,0-.10042.09668-.10042.145v.53118A.12411.12411,0,0,0,6.15,14.2874a.12707.12707,0,0,0,.03216.05014.13381.13381,0,0,0,.052.031.13775.13775,0,0,0,.061.00521h3.76156a.13766.13766,0,0,0,.061-.00521.13364.13364,0,0,0,.05208-.031.1272.1272,0,0,0,.03217-.05014.1241.1241,0,0,0,.00546-.05869v-.53118C10.25706,13.64919,10.257,13.55251,10.15659,13.55251Z"></path> <path d="M10.07617,14.875a.7077.7077,0,0,1-.09033-.00635l-3.69043.00489a.97747.97747,0,0,1-.21582-.0293.63707.63707,0,0,1-.24512-.14746.79874.79874,0,0,1-.15381-.23633.64594.64594,0,0,1-.03076-.3042l-.00537-.4585a.6681.6681,0,0,1,.43848-.62011c.291-.1294.78271-.34961,1.04687-.50342a1.5674,1.5674,0,0,1-.1958-.44678.92536.92536,0,0,1-.08594-.8667v-.36426A1.26233,1.26233,0,0,1,8.20068,9.52783a1.26232,1.26232,0,0,1,1.35254,1.36865v.33545a.82243.82243,0,0,1,.04932.11963.859.859,0,0,1,.03955.353.87647.87647,0,0,1-.18311.45361,1.59162,1.59162,0,0,1-.17187.3916,4.24289,4.24289,0,0,0,1.03516.53125l-.00049.00245a.6471.6471,0,0,1,.37549.32275.586.586,0,0,1,.01025.40869v.41358a.93367.93367,0,0,1-.03125.21728.64736.64736,0,0,1-.15869.251.80487.80487,0,0,1-.24512.14746A.63447.63447,0,0,1,10.07617,14.875Zm-.36426-.67139a.34007.34007,0,0,0,.001.09717Zm-3.46582-.15088h0ZM6.2749,13.875a.34367.34367,0,0,0-.05029.00342h.1001A.34179.34179,0,0,0,6.2749,13.875Zm1.92578-3.34717c-.26464,0-.35254.05322-.35254.36865v.48291a.50329.50329,0,0,1-.08105.27344c.06787.07178.10742.0752.124.17285a.587.587,0,0,0,.16309.3125.50068.50068,0,0,1,.145.35205v.2417a.49812.49812,0,0,1-.01611.126c-.09327.3584-.48.58545-1.44043,1.02L9.61035,13.874a5.20768,5.20768,0,0,1-1.22705-.75683.50059.50059,0,0,1-.18115-.38526v-.2417a.50064.50064,0,0,1,.145-.35205.587.587,0,0,0,.16308-.3125.495.495,0,0,1,.11573-.24316.22448.22448,0,0,1-.07276-.20313v-.48291C8.55322,10.58105,8.46533,10.52783,8.20068,10.52783Zm.49463.98877Z"></path> </g> <g> <path d="M15.17225,5.82651c-.65212-.24116-1.35445-.579-1.40465-.82067V4.81249a1.0869,1.0869,0,0,0,.30068-.57952A.37507.37507,0,0,0,14.166,4.1191a.35945.35945,0,0,0,.02725-.28834.36873.36873,0,0,0-.07476-.129V3.21894a.7664.7664,0,0,0-.85239-.869.76641.76641,0,0,0-.85239.869v.48285a.42639.42639,0,0,0-.06825.27376.43189.43189,0,0,0,.11845.25742,1.08685,1.08685,0,0,0,.30069.57952v.24168c-.05021.19335-.80274.53118-1.45431.82068-.05021,0-.10041.09667-.10041.145V6.551a.12335.12335,0,0,0,.0054.0587.12716.12716,0,0,0,.03217.05014.13364.13364,0,0,0,.05208.031.13775.13775,0,0,0,.061.0052h3.76157a.13783.13783,0,0,0,.061-.0052.134.134,0,0,0,.05208-.031.12783.12783,0,0,0,.03217-.05014.124.124,0,0,0,.0054-.0587v-.5795C15.27266,5.92319,15.22246,5.87485,15.17225,5.82651Z"></path> <path d="M15.1416,7.19727a.70953.70953,0,0,1-.09033-.00635l-3.69092.00488a.97468.97468,0,0,1-.2124-.02832.64416.64416,0,0,1-.248-.14844.7838.7838,0,0,1-.15771-.24756.63366.63366,0,0,1-.02686-.293L10.71,6.02a.6686.6686,0,0,1,.4375-.62012c.2915-.12939.78369-.34961,1.04785-.50342A1.56311,1.56311,0,0,1,12,4.4502a.92343.92343,0,0,1-.08643-.86719V3.21875A1.26232,1.26232,0,0,1,13.26611,1.8501a1.26232,1.26232,0,0,1,1.35254,1.36865v.33594a.81581.81581,0,0,1,.04932.11914.859.859,0,0,1-.06494.688.84678.84678,0,0,1-.07862.11865,1.59025,1.59025,0,0,1-.18505.4126,5.62932,5.62932,0,0,0,1.00634.46484.49472.49472,0,0,1,.17334.1084.69791.69791,0,0,1,.25342.50537v.5791a.89833.89833,0,0,1-.03467.228.62437.62437,0,0,1-.16162.24658.8175.8175,0,0,1-.23828.14111A.63448.63448,0,0,1,15.1416,7.19727Zm-.36474-.67676a.37982.37982,0,0,0,.001.10254ZM11.31055,6.375h0Zm.02881-.17773a.34168.34168,0,0,0-.04981.00341h.09961A.34164.34164,0,0,0,11.33936,6.19727ZM13.26611,2.8501c-.26465,0-.35254.05322-.35254.36865v.48291a.50332.50332,0,0,1-.081.27344c.06885.07178.10693.0747.124.17285a.587.587,0,0,0,.16309.3125.50066.50066,0,0,1,.145.35205v.2417a.49812.49812,0,0,1-.01611.126c-.09327.35888-.48.58593-1.44092,1.02l2.93213-.00391c-1.34668-.53662-1.42383-.90576-1.46192-1.08838a.51356.51356,0,0,1-.01025-.10205V4.8125a.50062.50062,0,0,1,.145-.35205.587.587,0,0,0,.16308-.3125.50092.50092,0,0,1,.11573-.24365.23186.23186,0,0,1-.07276-.20264V3.21875C13.61865,2.90332,13.53076,2.8501,13.26611,2.8501Zm1.50635,3.12158v0ZM13.76074,3.83887Z"></path> </g> <path d="M10.80811,2.8501a.49664.49664,0,0,1-.252-.06836,4.68531,4.68531,0,0,0-2.49951-.65625,4.48436,4.48436,0,0,0-2.458.65381A.50018.50018,0,0,1,5.085,1.9209a5.60734,5.60734,0,0,1,2.97217-.79541,5.839,5.839,0,0,1,3.00391.793.5.5,0,0,1-.25293.93164Z"></path> <path d="M11.05957,12.16943a.5.5,0,0,1-.26807-.92236,4.85043,4.85043,0,0,0,1.48487-1.47266,4.616,4.616,0,0,0,.69384-1.93066.5.5,0,0,1,.99659.05908.48529.48529,0,0,1-.00342.05908,5.62658,5.62658,0,0,1-.84424,2.35108,5.86134,5.86134,0,0,1-1.79248,1.77881A.49679.49679,0,0,1,11.05957,12.16943Z"></path> <path d="M5.09033,12.16943a.49679.49679,0,0,1-.26709-.07763,5.85053,5.85053,0,0,1-1.792-1.7793,5.63184,5.63184,0,0,1-.84473-2.3501.50032.50032,0,0,1,.437-.55615.49427.49427,0,0,1,.55615.437A4.61872,4.61872,0,0,0,3.874,9.77393,4.84508,4.84508,0,0,0,5.3584,11.24707a.5.5,0,0,1-.26807.92236Z"></path> </g> </g>
</symbol>

<symbol id="home" viewBox="0 0 16 16">
  <title>home</title><g id="Layer_1" data-name="Layer 1"> <path d="M13.80615,15.49805l-3.24121-.041a1.06574,1.06574,0,0,1-1.05176-.97656l-.002-1.63721A5.21209,5.21209,0,0,0,8.686,9.68213a1.20827,1.20827,0,0,0-.88135-.35205.81606.81606,0,0,0-.60254.24414c-.71924.68945-.87695,2.53125-.87695,3.18262l-.04346,1.61035a1.06378,1.06378,0,0,1-.97656,1.04492l-3.19434.04541L2.09863,15.457a1.03525,1.03525,0,0,1-.93945-.68017,1.04571,1.04571,0,0,1-.061-.40381c-.22216-8.22266.105-8.50879.29981-8.67969L7.05225.81592A1.429,1.429,0,0,1,8.81055.80176l5.84277,5.0625c.21143.18554.52881.46338.12891,8.59961a1.047,1.047,0,0,1-.28223.6958A1.06182,1.06182,0,0,1,13.80615,15.49805ZM2.14551,6.36914a78.476,78.476,0,0,0-.04785,8.01465l.01806.57373-.00683-.5,3.148-.04346.06836-1.6709c0-.26953.0332-2.78759,1.18505-3.89111a1.78561,1.78561,0,0,1,1.36426-.52051H7.876a2.07093,2.07093,0,0,1,1.52929.65625c1.17725,1.21582,1.10938,3.76367,1.10547,3.87159l.00049,1.57958,3.26025.061a74.99457,74.99457,0,0,0,.13331-7.96094L8.17334,1.57227A.44082.44082,0,0,0,7.688,1.5874Z"></path> </g>
</symbol>

<symbol id="profile" viewBox="0 0 16 16">
  <title>profile</title><g id="Layer_1" data-name="Layer 1"> <path d="M8,.75125A7.25609,7.25609,0,1,0,13.12349,2.8765,7.24875,7.24875,0,0,0,8,.75125ZM4.19763,13.08236a9.33446,9.33446,0,0,1,.601-.768,3.508,3.508,0,0,1,1.76723-.43492A1.034,1.034,0,0,0,7.5926,10.8536v-.55054c0-.47438-.43034-.72212-.8102-.94142a3.07775,3.07775,0,0,1-.47162-.45878l-.10094-.1101a1.20648,1.20648,0,0,1-.30371-.57165,10.76152,10.76152,0,0,1-.234-2.20214,1.67273,1.67273,0,0,1,.49823-1.23228,2.70222,2.70222,0,0,1,1.80392-.734,2.70133,2.70133,0,0,1,1.803.734,1.677,1.677,0,0,1,.5019,1.23412A10.8004,10.8004,0,0,1,10.04433,8.223a1.20736,1.20736,0,0,1-.30372.57072l-.11928.13121a2.92268,2.92268,0,0,1-.44594.43585c-.40005.23031-.80929.5276-.80929.98638v.55053a1.00927,1.00927,0,0,0,1.01942.9818,3.487,3.487,0,0,1,1.7608.43492,9.66428,9.66428,0,0,1,.61936.79369,6.30917,6.30917,0,0,1-7.568-.02569Zm8.24888-.55053a10.08759,10.08759,0,0,0-.6423-.81572c-.60742-.66982-2.32418-.72487-2.39759-.72671-.04863,0-.14039,0-.15231-.09176l-.0101-.48906a1.11656,1.11656,0,0,1,.37529-.27526,3.1029,3.1029,0,0,0,.66248-.61018l.11286-.12388a2.10984,2.10984,0,0,0,.52025-.98638,11.64241,11.64241,0,0,0,.25509-2.38565,2.569,2.569,0,0,0-.75975-1.86907A3.58858,3.58858,0,0,0,7.9743,3.16444a3.58855,3.58855,0,0,0-2.43611.99463,2.56917,2.56917,0,0,0-.76066,1.86908A11.67638,11.67638,0,0,0,5.0326,8.4138a2.13442,2.13442,0,0,0,.51934.98546l.09727.10644a3.29071,3.29071,0,0,0,.68542.62853,3.09864,3.09864,0,0,1,.367.234v.47713a.14126.14126,0,0,1-.15414.1459c-.0725,0-1.79659.05689-2.404.72671-.2092.23122-.44227.54044-.62119.78727a6.35686,6.35686,0,1,1,8.92971.02844Z"></path> </g>
</symbol>

<symbol id="registrations" viewBox="0 0 16 16">
  <title>registrations</title><g id="Layer_1" data-name="Layer 1"> <g> <path d="M15,15.39307H1a.49972.49972,0,0,1-.5-.5V4.80371a.49971.49971,0,0,1,.5-.5H15a.49971.49971,0,0,1,.5.5V14.89307A.49972.49972,0,0,1,15,15.39307Zm-13.5-1h13V5.30371H1.5Z"></path> <path d="M5.05469,5.30371a.5.5,0,0,1-.35352-.85351L7.11523,2.03613a.49995.49995,0,1,1,.707.707L5.4082,5.15723A.49838.49838,0,0,1,5.05469,5.30371Z"></path> <path d="M10.99316,5.30371a.49668.49668,0,0,1-.36035-.15381L8.26758,2.6875a.4997.4997,0,1,1,.7207-.69238l2.36524,2.4624a.49976.49976,0,0,1-.36036.84619Z"></path> <g> <path d="M8.772,1.8587a.7726.7726,0,0,1-1.54462,0,.7726.7726,0,0,1,1.54462,0Z"></path> <path d="M8,3.11035A1.27343,1.27343,0,0,1,6.72754,1.87354,1.279,1.279,0,0,1,7.11328.96729,1.3012,1.3012,0,0,1,8.8877.96875a1.26734,1.26734,0,0,1,.38476.87549v.0293A1.276,1.276,0,0,1,8,3.11035ZM8,1.60693a.27264.27264,0,0,0-.27246.26661.27055.27055,0,0,0,.081.15869.27884.27884,0,0,0,.37989.00195.27429.27429,0,0,0,.083-.17529A.27311.27311,0,0,0,8,1.60693Z"></path> </g> <path d="M3.46191,9.16553H2.93164a.5.5,0,0,1,0-1h.53027a.5.5,0,0,1,0,1Z"></path> <path d="M3.46191,10.61328H2.93164a.5.5,0,0,1,0-1h.53027a.5.5,0,0,1,0,1Z"></path> <path d="M3.46191,12.062H2.93164a.5.5,0,0,1,0-1h.53027a.5.5,0,0,1,0,1Z"></path> <path d="M3.46191,13.50977H2.93164a.5.5,0,0,1,0-1h.53027a.5.5,0,0,1,0,1Z"></path> <path d="M5.39258,9.16553H4.8623a.5.5,0,0,1,0-1h.53028a.5.5,0,0,1,0,1Z"></path> <path d="M5.39258,10.61328H4.8623a.5.5,0,0,1,0-1h.53028a.5.5,0,0,1,0,1Z"></path> <path d="M5.39258,12.062H4.8623a.5.5,0,0,1,0-1h.53028a.5.5,0,0,1,0,1Z"></path> <path d="M5.39258,13.50977H4.8623a.5.5,0,0,1,0-1h.53028a.5.5,0,0,1,0,1Z"></path> <path d="M7.32422,9.16553H6.793a.5.5,0,0,1,0-1h.53125a.5.5,0,0,1,0,1Z"></path> <path d="M7.32422,10.61328H6.793a.5.5,0,0,1,0-1h.53125a.5.5,0,0,1,0,1Z"></path> <path d="M7.32422,12.062H6.793a.5.5,0,0,1,0-1h.53125a.5.5,0,0,1,0,1Z"></path> <path d="M7.32422,13.50977H6.793a.5.5,0,0,1,0-1h.53125a.5.5,0,0,1,0,1Z"></path> <path d="M9.25488,9.16553H8.72461a.5.5,0,0,1,0-1h.53027a.5.5,0,0,1,0,1Z"></path> <path d="M9.25488,10.61328H8.72461a.5.5,0,0,1,0-1h.53027a.5.5,0,0,1,0,1Z"></path> <path d="M9.25488,12.062H8.72461a.5.5,0,1,1,0-1h.53027a.5.5,0,0,1,0,1Z"></path> <path d="M11.18555,9.16553h-.53028a.5.5,0,1,1,0-1h.53028a.5.5,0,0,1,0,1Z"></path> <path d="M11.18555,10.61328h-.53028a.5.5,0,1,1,0-1h.53028a.5.5,0,0,1,0,1Z"></path> <path d="M11.18555,12.062h-.53028a.5.5,0,0,1,0-1h.53028a.5.5,0,0,1,0,1Z"></path> <path d="M13.11719,9.16553h-.53125a.5.5,0,0,1,0-1h.53125a.5.5,0,0,1,0,1Z"></path> <path d="M13.11719,10.61328h-.53125a.5.5,0,0,1,0-1h.53125a.5.5,0,0,1,0,1Z"></path> <path d="M13.11719,12.062h-.53125a.5.5,0,0,1,0-1h.53125a.5.5,0,0,1,0,1Z"></path> <path d="M9.25488,13.50977H8.72461a.5.5,0,0,1,0-1h.53027a.5.5,0,0,1,0,1Z"></path> <path d="M15,7.23438H1a.5.5,0,0,1,0-1H15a.5.5,0,0,1,0,1Z"></path> </g> </g>
</symbol>
    </svg>