<svg xmlns="http://www.w3.org/2000/svg" xmlns:xlink="http://www.w3.org/1999/xlink">
    
<symbol id="archive" viewBox="0 0 16 16">
  <title>archive</title><path d="M0,2.48a.824.824,0,0,1,.824-.824H15.176a.824.824,0,0,1,0,1.648H.824A.824.824,0,0,1,0,2.48ZM1.76,5.121A.824.824,0,0,1,2.584,4.3H13.416a.824.824,0,0,1,.824.824v6.638a2.573,2.573,0,0,1-2.584,2.585H4.344A2.616,2.616,0,0,1,1.76,11.759Zm1.648.824v5.814a.969.969,0,0,0,.936.937h7.312a.924.924,0,0,0,.936-.937V5.945ZM6.714,7.481a.824.824,0,1,0,0,1.648H9.151a.824.824,0,0,0,0-1.648Z" fill="#231f20" fill-rule="evenodd"></path>
</symbol>

<symbol id="check-ins" viewBox="0 0 16 16">
  <title>check-ins</title><path d="M8.005,15.5A7.5,7.5,0,0,1,1.071,5.13,7.5,7.5,0,0,1,8,.5a7.153,7.153,0,0,1,2.874.563,7.51,7.51,0,0,1,3.362,11.1A7.507,7.507,0,0,1,8.005,15.5ZM8,1.5a6.47,6.47,0,1,0,6.013,4.007,6.48,6.48,0,0,0-3.52-3.52A6.859,6.859,0,0,0,8,1.5ZM6.979,11.222a.5.5,0,0,0,.39-.187l4.375-5.444a.5.5,0,1,0-.779-.627L6.978,9.925,5.327,7.88a.5.5,0,0,0-.779.628L6.59,11.036a.5.5,0,0,0,.389.186Z"></path>
</symbol>

<symbol id="giving" viewBox="0 0 16 16">
  <title>giving</title><path d="M15,2.707l-2.449,0a.541.541,0,0,0-.079-.021.5.5,0,0,0-.14.021L3.646,2.688a.257.257,0,0,0-.038-.008h0c-.013,0-.024.006-.038.007l-2.545,0h0a.5.5,0,0,0-.353.146.5.5,0,0,0-.147.354l0,2.479A.412.412,0,0,0,.5,5.748a.441.441,0,0,0,.019.1L.508,12.8a.5.5,0,0,0,.5.5l13.978.023h0a.5.5,0,0,0,.5-.5L15.5,3.208A.5.5,0,0,0,15,2.707Zm-3.212,9.608L4.06,12.3A3.053,3.053,0,0,0,1.513,9.738l.005-3.533a3.022,3.022,0,0,0,.663-.177A3.079,3.079,0,0,0,3.867,4.364a3.073,3.073,0,0,0,.188-.676l7.9.013a2.879,2.879,0,0,0,.141.6,2.873,2.873,0,0,0,1.563,1.674,2.8,2.8,0,0,0,.832.207l0,3.472a3.14,3.14,0,0,0-1.773.859A3.176,3.176,0,0,0,11.789,12.315ZM14.5,5.186a1.8,1.8,0,0,1-1.059-.564,1.868,1.868,0,0,1-.4-.652,1.889,1.889,0,0,1-.065-.267l1.522,0ZM3.034,3.687a2.166,2.166,0,0,1-.089.291,2.089,2.089,0,0,1-.457.675,2.067,2.067,0,0,1-.682.448,1.959,1.959,0,0,1-.287.084l0-1.5ZM1.511,10.753A2.069,2.069,0,0,1,3.044,12.3l-1.535,0ZM12.8,12.317a2.2,2.2,0,0,1,1.692-1.647l0,1.649Zm-2.3-6.99a1.965,1.965,0,0,0-1.049-.312,2.1,2.1,0,0,0-1.208.374,2.028,2.028,0,0,0-.286.243A2,2,0,0,0,7.67,5.39a2.063,2.063,0,0,0-2.423.037,1.922,1.922,0,0,0-.69,1.094,2.016,2.016,0,0,0-.015.84,2.039,2.039,0,0,0,.361.817l2.64,3.047a.5.5,0,0,0,.375.172h0a.5.5,0,0,0,.374-.168l2.652-2.991A1.965,1.965,0,0,0,10.5,5.327Zm-.31,2.26L7.925,10.139,5.69,7.563a1.012,1.012,0,0,1-.166-.392,1.028,1.028,0,0,1,.008-.431.927.927,0,0,1,.332-.527.94.94,0,0,1,.588-.2h.021a1.1,1.1,0,0,1,.62.192,1.042,1.042,0,0,1,.389.52.5.5,0,0,0,.473.338h0a.5.5,0,0,0,.473-.339,1.045,1.045,0,0,1,.992-.711h.02a.97.97,0,0,1,.516.153.982.982,0,0,1,.355.406.963.963,0,0,1,.081.532A.947.947,0,0,1,10.188,7.587Z"></path>
</symbol>

<symbol id="groups" viewBox="0 0 16 16">
  <title>groups</title><path d="M5.29,5.972V6.5a.948.948,0,0,1-.031.218.633.633,0,0,1-.165.257.8.8,0,0,1-.239.141.63.63,0,0,1-.2.031.684.684,0,0,1-.091-.006l-3.691,0a.985.985,0,0,1-.216-.029.648.648,0,0,1-.245-.147A.8.8,0,0,1,.26,6.723.61.61,0,0,1,.233,6.43L.228,5.972a.663.663,0,0,1,.461-.627,5.264,5.264,0,0,0,.993-.467,1.55,1.55,0,0,1-.2-.44.909.909,0,0,1-.1-.89V3.17a1.183,1.183,0,0,1,.078-.5,1.25,1.25,0,0,1,.3-.458,1.3,1.3,0,0,1,.467-.288,1.4,1.4,0,0,1,.544-.07,1.061,1.061,0,0,1,.459.059,1.28,1.28,0,0,1,.481.29,1.221,1.221,0,0,1,.368,1.03l0,.273a.756.756,0,0,1,.051.121.853.853,0,0,1-.065.688A.909.909,0,0,1,4,4.428a1.754,1.754,0,0,1-.192.453,6.385,6.385,0,0,0,1.06.477.485.485,0,0,1,.175.11,1.16,1.16,0,0,1,.146.2A.342.342,0,0,1,5.29,5.972ZM10.7,13.406a.652.652,0,0,0-.375-.323v0a4.255,4.255,0,0,1-1.035-.531,1.6,1.6,0,0,0,.172-.392.867.867,0,0,0,.079-.118.843.843,0,0,0,.1-.335.863.863,0,0,0-.039-.353.894.894,0,0,0-.05-.12V10.9A1.262,1.262,0,0,0,8.2,9.528,1.262,1.262,0,0,0,6.848,10.9v.365a.923.923,0,0,0,.086.866,1.568,1.568,0,0,0,.2.447c-.264.154-.756.374-1.047.5a.668.668,0,0,0-.438.62l.005.458a.648.648,0,0,0,.031.3.81.81,0,0,0,.153.237.637.637,0,0,0,.246.147.977.977,0,0,0,.215.03l3.691-.005a.68.68,0,0,0,.09.006.618.618,0,0,0,.2-.031.789.789,0,0,0,.246-.147.658.658,0,0,0,.158-.251.941.941,0,0,0,.032-.217v-.414A.588.588,0,0,0,10.7,13.406Zm4.822-7.94a.49.49,0,0,0-.173-.108,5.7,5.7,0,0,1-1.007-.465,1.565,1.565,0,0,0,.185-.413.783.783,0,0,0,.079-.118.854.854,0,0,0,.065-.688.826.826,0,0,0-.049-.119V3.219A1.263,1.263,0,0,0,13.266,1.85a1.263,1.263,0,0,0-1.352,1.369v.364A.924.924,0,0,0,12,4.45a1.559,1.559,0,0,0,.2.446c-.264.154-.756.375-1.048.5a.668.668,0,0,0-.437.62l0,.459a.634.634,0,0,0,.027.292.777.777,0,0,0,.158.248.632.632,0,0,0,.248.148.95.95,0,0,0,.212.029l3.691,0a.707.707,0,0,0,.091.006.652.652,0,0,0,.2-.03.835.835,0,0,0,.238-.142.625.625,0,0,0,.162-.246.925.925,0,0,0,.034-.228V5.972A.7.7,0,0,0,15.519,5.466ZM11.24,2.6a.5.5,0,0,0-.179-.685,5.848,5.848,0,0,0-3-.793,5.61,5.61,0,0,0-2.972.8.5.5,0,0,0,.514.858,4.5,4.5,0,0,1,2.458-.654,4.692,4.692,0,0,1,2.5.657A.5.5,0,0,0,11.24,2.6Zm.087,9.489a5.85,5.85,0,0,0,1.792-1.779,5.608,5.608,0,0,0,.844-2.351.4.4,0,0,0,0-.059.5.5,0,0,0-.441-.5.5.5,0,0,0-.556.438,4.607,4.607,0,0,1-.694,1.93,4.851,4.851,0,0,1-1.484,1.473.5.5,0,0,0-.233.423.493.493,0,0,0,.078.267.5.5,0,0,0,.423.232A.494.494,0,0,0,11.327,12.092Zm-5.814-.155a.5.5,0,0,0-.155-.69A4.851,4.851,0,0,1,3.874,9.774,4.62,4.62,0,0,1,3.18,7.843a.5.5,0,0,0-.556-.437.5.5,0,0,0-.437.556,5.635,5.635,0,0,0,.844,2.351,5.872,5.872,0,0,0,1.792,1.779.494.494,0,0,0,.267.077A.5.5,0,0,0,5.513,11.937Z"></path>
</symbol>

<symbol id="home" viewBox="0 0 16 16">
  <title>home</title><path d="M13.806,15.5l-3.241-.041a1.066,1.066,0,0,1-1.052-.977l0-1.637a5.212,5.212,0,0,0-.825-3.161,1.206,1.206,0,0,0-.881-.352.817.817,0,0,0-.6.244c-.719.69-.877,2.531-.877,3.183l-.043,1.61a1.065,1.065,0,0,1-.977,1.045l-3.194.046H2.1a1.038,1.038,0,0,1-.4-.092,1.028,1.028,0,0,1-.331-.24,1.048,1.048,0,0,1-.213-.348,1.06,1.06,0,0,1-.061-.4c-.222-8.223.1-8.509.3-8.68L7.052.816A1.43,1.43,0,0,1,8.811.8l5.842,5.062c.212.186.529.464.129,8.6a1.048,1.048,0,0,1-.282.7A1.064,1.064,0,0,1,13.806,15.5ZM2.146,6.369A78.4,78.4,0,0,0,2.1,14.384l.018.574-.007-.5,3.148-.044.068-1.671c0-.269.033-2.787,1.185-3.891a1.785,1.785,0,0,1,1.365-.52h0A2.068,2.068,0,0,1,9.4,8.988c1.178,1.216,1.11,3.763,1.106,3.871v1.58l3.26.061a75.087,75.087,0,0,0,.134-7.961L8.173,1.572a.442.442,0,0,0-.485.015Z"></path>
</symbol>

<symbol id="page-saved" viewBox="0 0 16 16">
  <title>page-saved</title><path d="M8.879,15.641H2.744A2.747,2.747,0,0,1,0,12.9V3.1A2.747,2.747,0,0,1,2.744.359H8.879A2.747,2.747,0,0,1,11.623,3.1v.832H9.794V3.1a.916.916,0,0,0-.915-.915H2.744a.916.916,0,0,0-.915.915V12.9a.916.916,0,0,0,.915.915H8.879a.916.916,0,0,0,.915-.915v-.192h1.829V12.9A2.747,2.747,0,0,1,8.879,15.641ZM16,4.754,14.652,3.382,9.357,8.772,6.372,5.832,5.024,7.2l4.333,4.409Z"></path>
</symbol>

<symbol id="profile" viewBox="0 0 16 16">
  <title>profile</title><path d="M8,.751a7.259,7.259,0,1,0,5.123,2.126A7.244,7.244,0,0,0,8,.751ZM4.2,13.082a9.228,9.228,0,0,1,.6-.768,3.505,3.505,0,0,1,1.767-.435,1.035,1.035,0,0,0,1.027-1.025V10.3c0-.474-.431-.722-.811-.941A3.1,3.1,0,0,1,6.311,8.9l-.1-.11a1.2,1.2,0,0,1-.3-.572,10.793,10.793,0,0,1-.234-2.2,1.677,1.677,0,0,1,.5-1.232,2.7,2.7,0,0,1,1.8-.734,2.7,2.7,0,0,1,1.8.734,1.663,1.663,0,0,1,.379.565,1.683,1.683,0,0,1,.123.669,10.724,10.724,0,0,1-.235,2.2,1.206,1.206,0,0,1-.3.571l-.12.131a2.874,2.874,0,0,1-.446.436c-.4.23-.809.527-.809.986V10.9a1.009,1.009,0,0,0,1.02.981,3.5,3.5,0,0,1,1.76.435,9.9,9.9,0,0,1,.62.794A6.308,6.308,0,0,1,4.2,13.082Zm8.249-.55a10.11,10.11,0,0,0-.643-.816c-.607-.67-2.324-.725-2.4-.727-.049,0-.141,0-.153-.091l-.01-.489a1.134,1.134,0,0,1,.375-.276,3.075,3.075,0,0,0,.663-.61L10.4,9.4a2.109,2.109,0,0,0,.52-.986,11.6,11.6,0,0,0,.255-2.386,2.572,2.572,0,0,0-.76-1.869,3.587,3.587,0,0,0-2.436-.994,3.6,3.6,0,0,0-2.436.995,2.572,2.572,0,0,0-.76,1.869,11.6,11.6,0,0,0,.255,2.386,2.127,2.127,0,0,0,.519.985l.1.107a3.3,3.3,0,0,0,.686.628,3.351,3.351,0,0,1,.367.234v.477a.151.151,0,0,1-.011.059.137.137,0,0,1-.033.049.135.135,0,0,1-.051.031.132.132,0,0,1-.059.007c-.073,0-1.8.057-2.405.727a10.017,10.017,0,0,0-.621.787,6.357,6.357,0,1,1,8.93.029Z"></path>
</symbol>

<symbol id="registrations" viewBox="0 0 16 16">
  <title>registrations</title><path d="M15,4.3H11.206L9.2,2.212a1.227,1.227,0,0,0,.076-.338v-.03A1.264,1.264,0,0,0,8.888.969a1.3,1.3,0,0,0-1.775,0,1.278,1.278,0,0,0-.385.907,1.266,1.266,0,0,0,.1.449L4.848,4.3H1a.5.5,0,0,0-.5.5V14.893a.5.5,0,0,0,.5.5H15a.5.5,0,0,0,.5-.5V4.8A.5.5,0,0,0,15,4.3ZM7.544,3.022A1.275,1.275,0,0,0,8,3.11a1.257,1.257,0,0,0,.544-.135L9.82,4.3H6.262ZM14.5,5.3v.93H1.5V5.3Zm-13,9.089V7.234h13v7.159ZM3.962,8.666a.5.5,0,0,1-.5.5h-.53a.5.5,0,0,1,0-1h.53A.5.5,0,0,1,3.962,8.666Zm0,1.447a.5.5,0,0,1-.5.5h-.53a.5.5,0,0,1,0-1h.53A.5.5,0,0,1,3.962,10.113Zm0,1.449a.5.5,0,0,1-.5.5h-.53a.5.5,0,0,1,0-1h.53A.5.5,0,0,1,3.962,11.562Zm0,1.448a.5.5,0,0,1-.5.5h-.53a.5.5,0,0,1,0-1h.53A.5.5,0,0,1,3.962,13.01ZM5.893,8.666a.5.5,0,0,1-.5.5H4.862a.5.5,0,0,1,0-1h.531A.5.5,0,0,1,5.893,8.666Zm0,1.447a.5.5,0,0,1-.5.5H4.862a.5.5,0,0,1,0-1h.531A.5.5,0,0,1,5.893,10.113Zm0,1.449a.5.5,0,0,1-.5.5H4.862a.5.5,0,0,1,0-1h.531A.5.5,0,0,1,5.893,11.562Zm0,1.448a.5.5,0,0,1-.5.5H4.862a.5.5,0,0,1,0-1h.531A.5.5,0,0,1,5.893,13.01ZM7.824,8.666a.5.5,0,0,1-.5.5H6.793a.5.5,0,1,1,0-1h.531A.5.5,0,0,1,7.824,8.666Zm0,1.447a.5.5,0,0,1-.5.5H6.793a.5.5,0,1,1,0-1h.531A.5.5,0,0,1,7.824,10.113Zm0,1.449a.5.5,0,0,1-.5.5H6.793a.5.5,0,0,1,0-1h.531A.5.5,0,0,1,7.824,11.562Zm0,1.448a.5.5,0,0,1-.5.5H6.793a.5.5,0,0,1,0-1h.531A.5.5,0,0,1,7.824,13.01ZM9.755,8.666a.5.5,0,0,1-.5.5h-.53a.5.5,0,1,1,0-1h.53A.5.5,0,0,1,9.755,8.666Zm0,1.447a.5.5,0,0,1-.5.5h-.53a.5.5,0,0,1,0-1h.53A.5.5,0,0,1,9.755,10.113Zm0,1.449a.5.5,0,0,1-.5.5h-.53a.5.5,0,0,1,0-1h.53A.5.5,0,0,1,9.755,11.562Zm1.931-2.9a.5.5,0,0,1-.5.5h-.531a.5.5,0,1,1,0-1h.531A.5.5,0,0,1,11.686,8.666Zm0,1.447a.5.5,0,0,1-.5.5h-.531a.5.5,0,0,1,0-1h.531A.5.5,0,0,1,11.686,10.113Zm0,1.449a.5.5,0,0,1-.5.5h-.531a.5.5,0,0,1,0-1h.531A.5.5,0,0,1,11.686,11.562Zm1.931-2.9a.5.5,0,0,1-.5.5h-.531a.5.5,0,0,1,0-1h.531A.5.5,0,0,1,13.617,8.666Zm0,1.447a.5.5,0,0,1-.5.5h-.531a.5.5,0,1,1,0-1h.531A.5.5,0,0,1,13.617,10.113Zm0,1.449a.5.5,0,0,1-.5.5h-.531a.5.5,0,0,1,0-1h.531A.5.5,0,0,1,13.617,11.562ZM9.755,13.01a.5.5,0,0,1-.5.5h-.53a.5.5,0,0,1,0-1h.53A.5.5,0,0,1,9.755,13.01Z"></path>
</symbol>

<symbol id="two-horizontal-bars" viewBox="0 0 16 16">
  <title>two-horizontal-bars</title><path d="M0,9.062H16v2.123H0ZM0,4.815V6.938H16V4.815Z"></path>
</symbol>
    </svg>