<svg xmlns="http://www.w3.org/2000/svg" xmlns:xlink="http://www.w3.org/1999/xlink">
    
<symbol id="archive" viewBox="0 0 16 16">
  <path d="M5.89 8.30508C5.89 8.0865 5.97681 7.87688 6.13134 7.72233C6.28587 7.56777 6.49546 7.48095 6.714 7.48095H9.151C9.36954 7.48095 9.57913 7.56777 9.73366 7.72233C9.88819 7.87688 9.975 8.0865 9.975 8.30508C9.975 8.52365 9.88819 8.73327 9.73366 8.88783C9.57913 9.04238 9.36954 9.12921 9.151 9.12921H6.714C6.49546 9.12921 6.28587 9.04238 6.13134 8.88783C5.97681 8.73327 5.89 8.52365 5.89 8.30508ZM14.24 5.12057V11.7596C14.2416 12.0976 14.1766 12.4325 14.0487 12.7453C13.9209 13.0582 13.7327 13.3427 13.4949 13.5828C13.2571 13.8229 12.9743 14.0138 12.6627 14.1446C12.3512 14.2753 12.0169 14.3435 11.679 14.345H4.344C3.66109 14.3367 3.0085 14.0616 2.52567 13.5785C2.04284 13.0954 1.76804 12.4426 1.76 11.7596V5.12057C1.76079 4.90252 1.84796 4.69367 2.0024 4.53977C2.15685 4.38586 2.36598 4.29944 2.584 4.29945H13.416C13.634 4.29944 13.8432 4.38586 13.9976 4.53977C14.152 4.69367 14.2392 4.90252 14.24 5.12057ZM12.592 5.94471H3.408V11.7596C3.41598 12.0055 3.51713 12.2391 3.69094 12.4131C3.86474 12.5871 4.09821 12.6885 4.344 12.6968H11.656C11.7773 12.6984 11.8978 12.676 12.0105 12.631C12.1232 12.5861 12.226 12.5193 12.3129 12.4346C12.3998 12.3499 12.4692 12.2489 12.5171 12.1374C12.565 12.0259 12.5904 11.906 12.592 11.7846V5.94471ZM15.176 1.65503H0.824C0.715791 1.65503 0.608641 1.67635 0.508669 1.71776C0.408697 1.75918 0.31786 1.81988 0.241344 1.89641C0.164829 1.97294 0.104133 2.06379 0.0627233 2.16378C0.0213134 2.26377 0 2.37093 0 2.47916C0 2.58739 0.0213134 2.69455 0.0627233 2.79454C0.104133 2.89453 0.164829 2.98538 0.241344 3.06191C0.31786 3.13843 0.408697 3.19914 0.508669 3.24056C0.608641 3.28197 0.715791 3.30329 0.824 3.30329H15.176C15.3945 3.30329 15.6041 3.21646 15.7587 3.06191C15.9132 2.90735 16 2.69773 16 2.47916C16 2.26059 15.9132 2.05097 15.7587 1.89641C15.6041 1.74186 15.3945 1.65503 15.176 1.65503Z"></path>
</symbol>

<symbol id="check-ins" viewBox="0 0 16 16">
  <path d="M8.00597 15.5C6.77201 15.5008 5.5569 15.1972 4.46836 14.6162C3.37981 14.0351 2.45145 13.1946 1.76555 12.169C1.07966 11.1434 0.657416 9.96447 0.536251 8.7367C0.415086 7.50893 0.598741 6.27023 1.07094 5.1304C1.63866 3.76 2.60007 2.58869 3.8336 1.76459C5.06714 0.940486 6.51739 0.500609 8.00097 0.500579C8.9877 0.488024 9.96635 0.6797 10.8754 1.06356C11.8992 1.48964 12.8159 2.1371 13.5597 2.95943C14.3036 3.78175 14.856 4.75855 15.1775 5.81968C15.499 6.88081 15.5814 7.99994 15.419 9.09672C15.2565 10.1935 14.8532 11.2407 14.2379 12.1631C13.553 13.1882 12.6262 14.0288 11.5393 14.6108C10.4524 15.1927 9.23892 15.4981 8.00597 15.5ZM8.00097 1.50054C6.61463 1.50699 5.26701 1.95843 4.15662 2.78835C3.04623 3.61828 2.23179 4.78281 1.83326 6.1104C1.43473 7.43799 1.47319 8.85846 1.94297 10.1626C2.41275 11.4666 3.28902 12.5854 4.44268 13.3541C5.59635 14.1227 6.96643 14.5006 8.35109 14.4321C9.73575 14.3635 11.0618 13.8522 12.1339 12.9733C13.206 12.0945 13.9674 10.8947 14.306 9.55055C14.6447 8.20644 14.5426 6.78913 14.0149 5.50739C13.6891 4.71762 13.2103 4.00005 12.6062 3.39597C12.002 2.79189 11.2843 2.31323 10.4943 1.98752C9.7008 1.6714 8.85517 1.50624 8.00097 1.50054ZM6.97982 11.2222C7.05469 11.2222 7.12861 11.2054 7.19612 11.173C7.26363 11.1407 7.32301 11.0935 7.36988 11.0352L11.7455 5.59138C11.7871 5.54028 11.8182 5.48146 11.837 5.41831C11.8558 5.35515 11.8619 5.28891 11.855 5.22338C11.8481 5.15786 11.8283 5.09434 11.7968 5.03649C11.7652 4.97863 11.7226 4.92758 11.6712 4.88627C11.6199 4.84496 11.5609 4.8142 11.4976 4.79576C11.4344 4.77732 11.3681 4.77156 11.3026 4.77883C11.2371 4.78609 11.1737 4.80622 11.116 4.83807C11.0583 4.86992 11.0075 4.91285 10.9664 4.96441L6.97882 9.92521L5.32757 7.88029C5.24428 7.777 5.12336 7.71101 4.99141 7.69685C4.85946 7.68269 4.72729 7.72152 4.62397 7.8048C4.52065 7.88807 4.45465 8.00897 4.44049 8.1409C4.42633 8.27282 4.46517 8.40497 4.54846 8.50827L6.59076 11.0362C6.63762 11.0942 6.69689 11.1411 6.76421 11.1733C6.83153 11.2054 6.9052 11.2221 6.97982 11.2222Z"></path>
</symbol>

<symbol id="giving" viewBox="0 0 16 16">
  <path d="M15 2.70705H12.551C12.5252 2.69807 12.4988 2.69105 12.472 2.68605C12.4246 2.68638 12.3774 2.69345 12.332 2.70705L3.646 2.68805C3.63355 2.68443 3.62085 2.68176 3.608 2.68005C3.595 2.68005 3.584 2.68605 3.57 2.68705H1.025C0.892648 2.68708 0.765705 2.73957 0.672 2.83301C0.625418 2.87943 0.588455 2.93459 0.56323 2.99532C0.538005 3.05605 0.525014 3.12115 0.525 3.18691V5.66521C0.513838 5.69159 0.505459 5.71907 0.5 5.74719C0.502452 5.78113 0.508828 5.81468 0.519 5.84716L0.508 12.7972C0.508 12.9298 0.560678 13.0569 0.654447 13.1507C0.748215 13.2444 0.875392 13.2971 1.008 13.2971L14.986 13.3201C15.1186 13.3201 15.2458 13.2674 15.3396 13.1736C15.4333 13.0799 15.486 12.9528 15.486 12.8202L15.5 3.2079C15.5001 3.14218 15.4873 3.07707 15.4622 3.01631C15.4372 2.95555 15.4003 2.90033 15.3539 2.8538C15.3075 2.80728 15.2523 2.77037 15.1916 2.74519C15.1308 2.72001 15.0657 2.70705 15 2.70705ZM11.788 12.3123L4.06 12.2973C3.96332 11.655 3.66419 11.0603 3.20611 10.5997C2.74804 10.139 2.15491 9.83649 1.513 9.73606L1.518 6.20406C1.745 6.17043 1.96744 6.11107 2.181 6.02711C2.55798 5.87485 2.90105 5.64945 3.19043 5.36393C3.47981 5.07841 3.70976 4.73842 3.867 4.36358C3.95527 4.14622 4.01835 3.91948 4.055 3.68777L11.955 3.70077C11.9804 3.90518 12.0277 4.10627 12.096 4.3006C12.2278 4.67178 12.4346 5.01189 12.7035 5.29979C12.9724 5.58769 13.2976 5.81723 13.659 5.97412C13.9241 6.0854 14.2047 6.15519 14.491 6.18107V9.65209C13.8232 9.74078 13.2015 10.0419 12.718 10.5108C12.2198 10.9938 11.8935 11.6265 11.789 12.3123H11.788ZM14.5 5.18535C14.0929 5.12401 13.7191 4.925 13.441 4.62151C13.2641 4.43414 13.1279 4.21222 13.041 3.96969C13.0129 3.88241 12.9912 3.7932 12.976 3.70277H14.498L14.5 5.18535ZM3.034 3.68677C3.01119 3.78571 2.98145 3.88292 2.945 3.97769C2.83847 4.23044 2.68318 4.45974 2.488 4.6525C2.29269 4.84561 2.06084 4.99787 1.806 5.10037C1.71261 5.13563 1.61667 5.16371 1.519 5.18435V3.68477L3.034 3.68677ZM1.511 10.7508C1.88509 10.8406 2.22672 11.0329 2.49752 11.3061C2.76833 11.5793 2.95757 11.9226 3.044 12.2973H1.509L1.511 10.7508ZM12.8 12.3143C12.8963 11.9075 13.1066 11.5365 13.4063 11.2449C13.706 10.9533 14.0826 10.7531 14.492 10.6678V12.3163L12.8 12.3143ZM10.5 5.32631C10.1869 5.12512 9.82316 5.01696 9.451 5.0144C9.01947 5.01198 8.59767 5.14254 8.243 5.38829C8.14036 5.46026 8.04462 5.54158 7.957 5.63122C7.86913 5.54176 7.77304 5.46076 7.67 5.38929C7.31386 5.13913 6.8877 5.008 6.45249 5.01464C6.01729 5.02128 5.59533 5.16537 5.247 5.42628C4.89752 5.7002 4.65371 6.08666 4.557 6.51997C4.49307 6.79573 4.48795 7.08187 4.542 7.35973C4.60047 7.65532 4.72376 7.93427 4.903 8.1765L7.543 11.2226C7.58967 11.2763 7.64726 11.3194 7.71193 11.3491C7.7766 11.3787 7.84685 11.3943 7.918 11.3946C7.98867 11.3946 8.05854 11.3797 8.12301 11.3507C8.18748 11.3218 8.24507 11.2795 8.292 11.2266L10.944 8.23649C11.1224 8.02281 11.2534 7.77367 11.3282 7.50557C11.4031 7.23746 11.4201 6.95652 11.3781 6.68136C11.3361 6.40619 11.2361 6.14309 11.0847 5.90948C10.9333 5.67587 10.734 5.47709 10.5 5.32631ZM10.19 7.58567L7.925 10.137L5.69 7.56168C5.6075 7.44429 5.55091 7.31071 5.524 7.16979C5.49618 7.02721 5.4989 6.88036 5.532 6.73891C5.57857 6.53027 5.69586 6.34414 5.864 6.21206C6.03168 6.08073 6.239 6.01023 6.452 6.01211H6.473C6.69427 6.0123 6.91035 6.07919 7.093 6.20406C7.27475 6.33149 7.41104 6.51363 7.482 6.72391C7.51577 6.8225 7.57952 6.90807 7.66433 6.96865C7.74914 7.02924 7.85076 7.06181 7.955 7.06182C8.05936 7.06174 8.16108 7.02902 8.2459 6.96825C8.33072 6.90747 8.3944 6.82169 8.428 6.72291C8.498 6.51546 8.63142 6.33523 8.80942 6.20769C8.98742 6.08015 9.201 6.01173 9.42 6.01211H9.44C9.62299 6.01342 9.80188 6.06645 9.956 6.16507C10.1099 6.26459 10.2329 6.40519 10.311 6.57096C10.388 6.73694 10.4161 6.92143 10.392 7.10281C10.3708 7.27975 10.3001 7.44712 10.188 7.58567H10.19Z"></path>
</symbol>

<symbol id="groups" viewBox="0 0 16 16">
  <path d="M5.28901 5.97563V6.50363C5.28718 6.57725 5.27678 6.65041 5.25801 6.72163C5.22481 6.81948 5.16816 6.90771 5.09301 6.97863C5.02217 7.03919 4.94128 7.08691 4.85401 7.11963C4.78945 7.14067 4.72191 7.15114 4.65401 7.15063C4.62358 7.15065 4.59318 7.14865 4.56301 7.14463H0.872011C0.79916 7.14298 0.726717 7.13325 0.656011 7.11563C0.564424 7.08546 0.480723 7.03524 0.411011 6.96863C0.34623 6.89774 0.294742 6.81576 0.259011 6.72663C0.226238 6.63263 0.216968 6.53203 0.232011 6.43363L0.227011 5.97563C0.227956 5.83586 0.273045 5.69997 0.355837 5.58737C0.438629 5.47477 0.55489 5.39121 0.688011 5.34863C1.03438 5.22798 1.36718 5.07146 1.68101 4.88163C1.59175 4.74632 1.52426 4.59785 1.48101 4.44163C1.38893 4.31453 1.33132 4.16576 1.3138 4.0098C1.29627 3.85383 1.31943 3.69599 1.38101 3.55163V3.17363C1.37064 3.00328 1.39725 2.83272 1.45901 2.67363C1.52394 2.50067 1.62639 2.34425 1.75901 2.21563C1.89242 2.08749 2.05163 1.98931 2.22601 1.92763C2.40096 1.86865 2.58584 1.84486 2.77001 1.85763C2.92549 1.84328 3.08222 1.86342 3.22901 1.91663C3.40884 1.97649 3.57313 2.07554 3.71001 2.20663C3.84721 2.33788 3.95191 2.49931 4.01579 2.67811C4.07968 2.85691 4.10098 3.04815 4.07801 3.23663V3.50963C4.09849 3.5484 4.11555 3.58889 4.12901 3.63063C4.16677 3.74349 4.1805 3.86301 4.1693 3.9815C4.15811 4.09999 4.12224 4.21483 4.06401 4.31863C4.04508 4.3578 4.02335 4.39556 3.99901 4.43163C3.95661 4.5909 3.89198 4.7434 3.80701 4.88463C4.14511 5.07552 4.49991 5.23518 4.86701 5.36163C4.93257 5.38529 4.99226 5.42281 5.04201 5.47163C5.09767 5.53289 5.14662 5.59994 5.18801 5.67163C5.22838 5.7102 5.2587 5.75808 5.2763 5.81107C5.29391 5.86406 5.29827 5.92056 5.28901 5.97563ZM10.699 13.4096C10.6213 13.2569 10.4866 13.1408 10.324 13.0866C9.95633 12.9578 9.60808 12.7792 9.28901 12.5556C9.36364 12.4333 9.4215 12.3014 9.46101 12.1636C9.49053 12.1265 9.51695 12.0871 9.54001 12.0456C9.59639 11.9422 9.63045 11.8281 9.64001 11.7106C9.65162 11.5915 9.63834 11.4713 9.60101 11.3576C9.58728 11.3165 9.57057 11.2764 9.55101 11.2376V10.9036C9.56751 10.721 9.54403 10.5371 9.48221 10.3645C9.42039 10.1919 9.32171 10.0348 9.19303 9.90424C9.06435 9.77366 8.90877 9.67268 8.73711 9.60833C8.56544 9.54398 8.38182 9.51781 8.19901 9.53162C8.0162 9.51781 7.83258 9.54398 7.66092 9.60833C7.48925 9.67268 7.33367 9.77366 7.20499 9.90424C7.07631 10.0348 6.97763 10.1919 6.91581 10.3645C6.85399 10.5371 6.83051 10.721 6.84701 10.9036V11.2686C6.78903 11.4089 6.76654 11.5613 6.78154 11.7124C6.79654 11.8635 6.84857 12.0085 6.93301 12.1346C6.97586 12.2932 7.04334 12.444 7.13301 12.5816C6.86901 12.7356 6.37701 12.9556 6.08601 13.0816C5.95871 13.1283 5.84862 13.2126 5.77038 13.3234C5.69215 13.4341 5.64947 13.566 5.64801 13.7016L5.65301 14.1596C5.63961 14.2607 5.65023 14.3635 5.68401 14.4596C5.72076 14.547 5.77254 14.6272 5.83701 14.6966C5.90678 14.7637 5.99091 14.8139 6.08301 14.8436C6.15334 14.8616 6.22545 14.8716 6.29801 14.8736L9.98901 14.8686C10.0188 14.8726 10.0489 14.8746 10.079 14.8746C10.1469 14.8754 10.2145 14.8649 10.279 14.8436C10.3693 14.8101 10.4527 14.7602 10.525 14.6966C10.5961 14.6261 10.6501 14.5402 10.683 14.4456C10.7021 14.3748 10.7128 14.302 10.715 14.2286V13.8146C10.7578 13.682 10.7522 13.5385 10.699 13.4096ZM15.521 5.46963C15.4716 5.42189 15.4126 5.38509 15.348 5.36163C14.998 5.23973 14.6608 5.08399 14.341 4.89663C14.4224 4.76865 14.4847 4.62953 14.526 4.48363C14.5559 4.44677 14.5823 4.40727 14.605 4.36563C14.6632 4.26181 14.699 4.14697 14.7102 4.02849C14.7214 3.91001 14.7077 3.7905 14.67 3.67763C14.6568 3.63674 14.6404 3.59696 14.621 3.55863V3.22263C14.637 3.03996 14.6129 2.85601 14.5506 2.68356C14.4883 2.51111 14.3892 2.3543 14.2601 2.22403C14.1311 2.09375 13.9752 1.99314 13.8034 1.92917C13.6315 1.86521 13.4478 1.83943 13.265 1.85363C13.0825 1.84004 12.8993 1.86628 12.7279 1.93051C12.5566 1.99475 12.4012 2.09546 12.2726 2.22566C12.144 2.35587 12.0453 2.51246 11.9832 2.6846C11.9211 2.85674 11.8971 3.04032 11.913 3.22263V3.58663C11.8549 3.72707 11.8324 3.87967 11.8474 4.0309C11.8624 4.18213 11.9145 4.32733 11.999 4.45363C12.0418 4.61188 12.1093 4.7624 12.199 4.89963C11.935 5.05363 11.443 5.27463 11.151 5.39963C11.0239 5.44647 10.914 5.53085 10.836 5.64158C10.7579 5.75231 10.7154 5.88416 10.714 6.01963V6.47863C10.7001 6.57673 10.7093 6.67674 10.741 6.77063C10.7774 6.8626 10.831 6.94677 10.899 7.01863C10.9691 7.08644 11.054 7.13709 11.147 7.16663C11.2164 7.18425 11.2875 7.19397 11.359 7.19563H15.05C15.0802 7.19958 15.1106 7.20159 15.141 7.20163C15.2088 7.20209 15.2763 7.19197 15.341 7.17163C15.4277 7.13788 15.5081 7.08989 15.579 7.02963C15.6518 6.9617 15.7074 6.87736 15.741 6.78363C15.7618 6.70934 15.7732 6.63275 15.775 6.55563V5.97563C15.7699 5.87801 15.7444 5.78256 15.7001 5.69541C15.6558 5.60826 15.5938 5.53135 15.518 5.46963H15.521ZM11.239 2.60363C11.2723 2.54692 11.2941 2.48419 11.3031 2.41905C11.3122 2.3539 11.3083 2.28762 11.2916 2.22399C11.275 2.16036 11.246 2.10063 11.2062 2.04823C11.1665 1.99583 11.1168 1.95179 11.06 1.91863C10.1497 1.38897 9.11318 1.11499 8.06001 1.12563C7.01414 1.11001 5.98472 1.38711 5.08801 1.92563C4.97423 1.99379 4.89219 2.10435 4.85994 2.233C4.82768 2.36165 4.84785 2.49785 4.91601 2.61163C4.98417 2.7254 5.09474 2.80744 5.22339 2.8397C5.35204 2.87196 5.48823 2.85179 5.60201 2.78363C6.3414 2.33379 7.19483 2.10672 8.06001 2.12963C8.93842 2.11023 9.80463 2.33787 10.56 2.78663C10.6745 2.85166 10.81 2.86893 10.9371 2.83466C11.0642 2.8004 11.1727 2.71738 11.239 2.60363ZM11.326 12.0926C12.0457 11.6371 12.6573 11.03 13.118 10.3136C13.5725 9.60338 13.861 8.79978 13.962 7.96263C13.9635 7.94299 13.9635 7.92327 13.962 7.90363C13.9629 7.78063 13.9184 7.66164 13.837 7.5694C13.7556 7.47715 13.6431 7.41814 13.521 7.40363C13.4557 7.39581 13.3896 7.40095 13.3263 7.41874C13.263 7.43653 13.2038 7.46663 13.1522 7.50731C13.1005 7.548 13.0574 7.59847 13.0253 7.65583C12.9932 7.7132 12.9727 7.77633 12.965 7.84163C12.8816 8.52893 12.6444 9.18861 12.271 9.77162C11.8893 10.3647 11.3829 10.8673 10.787 11.2446C10.7156 11.2897 10.6568 11.3522 10.6161 11.4261C10.5753 11.5001 10.554 11.5832 10.554 11.6676C10.5538 11.7623 10.5809 11.855 10.632 11.9346C10.6772 12.0058 10.7397 12.0645 10.8137 12.105C10.8876 12.1456 10.9707 12.1668 11.055 12.1666C11.1503 12.1696 11.2444 12.1449 11.326 12.0956V12.0926ZM5.51201 11.9376C5.54715 11.8821 5.57101 11.8203 5.58224 11.7556C5.59346 11.6909 5.59183 11.6246 5.57744 11.5605C5.56305 11.4964 5.53617 11.4358 5.49835 11.3821C5.46053 11.3285 5.4125 11.2827 5.35701 11.2476C4.76147 10.8712 4.25506 10.3696 3.87301 9.77763C3.49986 9.19412 3.26267 8.53418 3.17901 7.84663C3.1712 7.78142 3.15063 7.71839 3.11846 7.66114C3.08629 7.60389 3.04316 7.55354 2.99153 7.51296C2.9399 7.47238 2.88078 7.44236 2.81755 7.42463C2.75432 7.4069 2.68821 7.4018 2.62301 7.40963C2.55781 7.41743 2.49478 7.43801 2.43753 7.47018C2.38028 7.50234 2.32992 7.54548 2.28934 7.59711C2.24876 7.64874 2.21875 7.70786 2.20102 7.77109C2.18329 7.83432 2.17819 7.90042 2.18601 7.96563C2.28792 8.80256 2.57634 9.60597 3.03001 10.3166C3.49127 11.0326 4.10274 11.6396 4.82201 12.0956C4.90181 12.1463 4.99448 12.173 5.08901 12.1726C5.17336 12.1728 5.25638 12.1516 5.33034 12.111C5.4043 12.0705 5.4668 12.0118 5.51201 11.9406V11.9376Z"></path>
</symbol>

<symbol id="home" viewBox="0 0 16 16">
  <path d="M13.8076 15.495L10.5674 15.454C10.302 15.4515 10.047 15.3499 9.8525 15.1693C9.65798 14.9886 9.53788 14.7419 9.51573 14.4773V12.8408C9.58657 11.7263 9.29744 10.6185 8.69095 9.68076C8.57556 9.56561 8.43802 9.47505 8.28663 9.41457C8.13525 9.35408 7.97317 9.32493 7.81019 9.32886C7.69886 9.32649 7.58822 9.3469 7.48507 9.38885C7.38192 9.43079 7.28843 9.49339 7.21036 9.57279C6.49155 10.2626 6.3336 12.103 6.3336 12.7548L6.29061 14.3643C6.28654 14.6287 6.1843 14.882 6.00377 15.0751C5.82323 15.2682 5.57732 15.3872 5.31387 15.409L2.12074 15.455H2.10474C1.96665 15.4513 1.8307 15.42 1.70485 15.363C1.5796 15.306 1.46707 15.2244 1.37394 15.1231C1.28086 15.0222 1.2085 14.904 1.161 14.7752C1.11519 14.6471 1.09448 14.5113 1.10002 14.3753C0.878079 6.15482 1.19999 5.86891 1.39994 5.69796L7.0554 0.815432C7.30482 0.617198 7.61332 0.507962 7.93191 0.505064C8.2505 0.502166 8.56093 0.605773 8.81392 0.799436L14.6543 5.85991C14.8663 6.04585 15.1832 6.32377 14.7833 14.4573C14.7795 14.7175 14.679 14.9669 14.5014 15.1571C14.3206 15.3526 14.073 15.4732 13.8076 15.495ZM2.15073 6.36676C1.99879 9.03509 1.98344 11.7094 2.10474 14.3793L2.12274 14.9532L2.11574 14.4533L5.26289 14.4093L5.33087 12.7388C5.33087 12.4699 5.36386 9.95268 6.51555 8.84901C6.69349 8.67103 6.90706 8.53271 7.14225 8.44312C7.37744 8.35352 7.62892 8.31469 7.88017 8.32917C8.16548 8.3275 8.44804 8.38491 8.71008 8.49777C8.97212 8.61064 9.20796 8.77652 9.40276 8.98497C10.5804 10.2006 10.5125 12.7468 10.5085 12.8548V14.4343L13.7676 14.4953C13.953 11.8467 13.9977 9.19007 13.9015 6.53671L8.1761 1.5712C8.10262 1.52614 8.01757 1.50355 7.93142 1.50622C7.84527 1.50888 7.76178 1.53668 7.69123 1.5862L2.15073 6.36676Z"></path>
</symbol>

<symbol id="page-saved" viewBox="0 0 16 16">
  <path d="M8.879 15.64H2.744C2.01701 15.6392 1.31998 15.3503 0.805634 14.8366C0.291292 14.3229 0.00158746 13.6262 0 12.8993L0 3.10063C0.00158746 2.37373 0.291292 1.67711 0.805634 1.16339C1.31998 0.649682 2.01701 0.360777 2.744 0.359985H8.879C9.60599 0.360777 10.303 0.649682 10.8174 1.16339C11.3317 1.67711 11.6214 2.37373 11.623 3.10063V3.93252H9.794V3.10063C9.79373 2.85807 9.69725 2.62552 9.52571 2.454C9.35417 2.28249 9.12159 2.18601 8.879 2.18575H2.744C2.50141 2.18601 2.26883 2.28249 2.09729 2.454C1.92575 2.62552 1.82926 2.85807 1.829 3.10063V12.8993C1.82926 13.1419 1.92575 13.3745 2.09729 13.546C2.26883 13.7175 2.50141 13.814 2.744 13.8142H8.879C9.12159 13.814 9.35417 13.7175 9.52571 13.546C9.69725 13.3745 9.79373 13.1419 9.794 12.8993V12.7074H11.623V12.8993C11.6214 13.6262 11.3317 14.3229 10.8174 14.8366C10.303 15.3503 9.60599 15.6392 8.879 15.64ZM16 4.75441L14.652 3.38259L9.357 8.77188L6.372 5.83227L5.024 7.20009L9.357 11.6085L16 4.75441Z"></path>
</symbol>

<symbol id="profile" viewBox="0 0 16 16">
  <path d="M8.00977 0.739997C6.32971 0.737733 4.70087 1.31823 3.40091 2.38252C2.10095 3.44681 1.21035 4.92902 0.880928 6.57647C0.551507 8.22393 0.803659 9.93464 1.5944 11.417C2.38514 12.8993 3.66551 14.0615 5.21726 14.7055C6.76901 15.3495 8.49607 15.4353 10.104 14.9484C11.712 14.4615 13.1013 13.432 14.0352 12.0354C14.969 10.6387 15.3896 8.96147 15.2251 7.28947C15.0607 5.61747 14.3215 4.05425 13.1335 2.86629C12.461 2.19267 11.6623 1.65817 10.7832 1.29333C9.90404 0.928491 8.96162 0.740465 8.00977 0.739997ZM4.20926 13.0727C4.39561 12.8063 4.59592 12.5499 4.80934 12.3046C5.34984 12.0065 5.95947 11.8564 6.57658 11.8695C6.848 11.8674 7.10775 11.7588 7.29987 11.5671C7.49199 11.3753 7.6011 11.1158 7.60372 10.8444V10.2903C7.60372 9.81625 7.17266 9.56821 6.79261 9.34918C6.6194 9.21335 6.46116 9.05946 6.32054 8.89012L6.22053 8.7801C6.07011 8.62042 5.96634 8.42256 5.92049 8.20803C5.76731 7.48454 5.68889 6.74724 5.68646 6.00772C5.68141 5.7791 5.72317 5.55186 5.80916 5.33996C5.89516 5.12807 6.02358 4.936 6.18653 4.77555C6.67465 4.31583 7.31636 4.05415 7.98677 4.04145C8.65718 4.05415 9.29889 4.31583 9.78702 4.77555C9.95096 4.93578 10.08 5.12816 10.1661 5.34063C10.2522 5.55296 10.294 5.78064 10.2891 6.00972C10.2868 6.7493 10.208 7.48666 10.0541 8.21003C10.0077 8.4241 9.90402 8.62152 9.75401 8.7811L9.634 8.91212C9.50157 9.07323 9.352 9.21944 9.18794 9.34818C8.78788 9.57821 8.37883 9.87525 8.37883 10.3343V10.8904C8.38616 11.1551 8.49721 11.4063 8.68805 11.5898C8.87888 11.7733 9.13421 11.8745 9.39896 11.8715C10.0137 11.8594 10.6209 12.0095 11.1592 12.3066C11.3792 12.5606 11.5862 12.8256 11.7793 13.1007C10.6843 13.9156 9.35453 14.3533 7.98961 14.3483C6.62468 14.3432 5.29821 13.8956 4.20926 13.0727ZM12.4594 12.5226C12.2591 12.2397 12.0445 11.9673 11.8163 11.7065C11.2092 11.0364 9.49198 10.9814 9.41597 10.9794C9.36696 10.9794 9.27495 10.9794 9.26295 10.8884L9.25294 10.3993C9.35752 10.2824 9.48523 10.1884 9.628 10.1233C9.87778 9.95358 10.1012 9.74802 10.2911 9.5132L10.4101 9.39019C10.6688 9.11407 10.8484 8.77346 10.9302 8.40405C11.0975 7.61956 11.1829 6.81984 11.1852 6.01772C11.191 5.671 11.1267 5.32668 10.9961 5.00545C10.8655 4.68422 10.6713 4.39272 10.4251 4.14847C9.76822 3.52046 8.89749 3.16516 7.98877 3.15433C7.08018 3.16672 6.20988 3.5222 5.55244 4.14947C5.30629 4.39372 5.11207 4.68522 4.98145 5.00645C4.85082 5.32768 4.7865 5.672 4.79234 6.01872C4.79463 6.82084 4.88009 7.62056 5.04737 8.40505C5.12986 8.77369 5.30902 9.11372 5.56644 9.39019L5.66646 9.4972C5.86436 9.7379 6.09535 9.94937 6.35255 10.1253C6.47984 10.1953 6.60245 10.2734 6.7196 10.3593V10.8364C6.71992 10.8566 6.71618 10.8767 6.7086 10.8954C6.70129 10.9139 6.69003 10.9307 6.67559 10.9444C6.66112 10.9584 6.64369 10.969 6.62459 10.9754C6.6057 10.9822 6.58552 10.9846 6.56558 10.9824C6.49257 10.9824 4.76533 11.0394 4.16025 11.7095C3.94021 11.9613 3.73293 12.224 3.53917 12.4966C2.64441 11.608 2.03414 10.4733 1.78595 9.23686C1.53776 8.00045 1.66287 6.71815 2.14536 5.55303C2.62786 4.3879 3.44594 3.39258 4.49559 2.69363C5.54525 1.99467 6.77905 1.62365 8.04012 1.62774C9.30119 1.63184 10.5326 2.01086 11.5776 2.71662C12.6227 3.42239 13.4343 4.423 13.9093 5.59123C14.3842 6.75947 14.5009 8.04254 14.2447 9.27732C13.9885 10.5121 13.3709 11.6428 12.4704 12.5256L12.4594 12.5226Z"></path>
</symbol>

<symbol id="registrations" viewBox="0 0 16 16">
  <path d="M15 4.29506H11.206L9.2 2.20763C9.24119 2.09916 9.26678 1.98539 9.276 1.86973V1.83973C9.26637 1.50857 9.12704 1.19444 8.888 0.964976C8.64722 0.740084 8.33001 0.61499 8.0005 0.61499C7.67099 0.61499 7.35377 0.740084 7.113 0.964976C6.992 1.08313 6.89566 1.22411 6.82957 1.37977C6.76349 1.53542 6.72896 1.70263 6.728 1.87173C6.73363 2.0262 6.76753 2.17834 6.828 2.3206L4.848 4.29506H1C0.867392 4.29506 0.740215 4.34772 0.646447 4.44146C0.552678 4.5352 0.5 4.66235 0.5 4.79492V14.8851C0.5 15.0177 0.552678 15.1448 0.646447 15.2386C0.740215 15.3323 0.867392 15.385 1 15.385H15C15.1326 15.385 15.2598 15.3323 15.3536 15.2386C15.4473 15.1448 15.5 15.0177 15.5 14.8851V4.79492C15.5 4.66235 15.4473 4.5352 15.3536 4.44146C15.2598 4.34772 15.1326 4.29506 15 4.29506ZM7.544 3.01741C7.68933 3.0744 7.84389 3.10421 8 3.10538C8.18918 3.1019 8.37514 3.05577 8.544 2.97042L9.82 4.29506H6.262L7.544 3.01741ZM14.5 5.29478V6.22452H1.5V5.29478H14.5ZM1.5 14.3813V7.22824H14.5V14.3853L1.5 14.3813ZM3.962 8.65985C3.962 8.79242 3.90932 8.91956 3.81555 9.0133C3.72179 9.10705 3.59461 9.15971 3.462 9.15971H2.932C2.79939 9.15971 2.67221 9.10705 2.57845 9.0133C2.48468 8.91956 2.432 8.79242 2.432 8.65985C2.432 8.52728 2.48468 8.40014 2.57845 8.30639C2.67221 8.21265 2.79939 8.15999 2.932 8.15999H3.462C3.59461 8.15999 3.72179 8.21265 3.81555 8.30639C3.90932 8.40014 3.962 8.52728 3.962 8.65985ZM3.962 10.1065C3.962 10.239 3.90932 10.3662 3.81555 10.4599C3.72179 10.5536 3.59461 10.6063 3.462 10.6063H2.932C2.79939 10.6063 2.67221 10.5536 2.57845 10.4599C2.48468 10.3662 2.432 10.239 2.432 10.1065C2.432 9.97388 2.48468 9.84674 2.57845 9.75299C2.67221 9.65925 2.79939 9.60659 2.932 9.60659H3.462C3.59461 9.60659 3.72179 9.65925 3.81555 9.75299C3.90932 9.84674 3.962 9.97388 3.962 10.1065ZM3.962 11.555C3.962 11.6876 3.90932 11.8148 3.81555 11.9085C3.72179 12.0022 3.59461 12.0549 3.462 12.0549H2.932C2.79939 12.0549 2.67221 12.0022 2.57845 11.9085C2.48468 11.8148 2.432 11.6876 2.432 11.555C2.432 11.4225 2.48468 11.2953 2.57845 11.2016C2.67221 11.1079 2.79939 11.0552 2.932 11.0552H3.462C3.59461 11.0552 3.72179 11.1079 3.81555 11.2016C3.90932 11.2953 3.962 11.4225 3.962 11.555ZM3.962 13.0026C3.962 13.1352 3.90932 13.2624 3.81555 13.3561C3.72179 13.4498 3.59461 13.5025 3.462 13.5025H2.932C2.79939 13.5025 2.67221 13.4498 2.57845 13.3561C2.48468 13.2624 2.432 13.1352 2.432 13.0026C2.432 12.8701 2.48468 12.7429 2.57845 12.6492C2.67221 12.5555 2.79939 12.5028 2.932 12.5028H3.462C3.59461 12.5028 3.72179 12.5555 3.81555 12.6492C3.90932 12.7429 3.962 12.8701 3.962 13.0026ZM5.893 8.65985C5.893 8.79242 5.84032 8.91956 5.74655 9.0133C5.65279 9.10705 5.52561 9.15971 5.393 9.15971H4.862C4.72939 9.15971 4.60221 9.10705 4.50845 9.0133C4.41468 8.91956 4.362 8.79242 4.362 8.65985C4.362 8.52728 4.41468 8.40014 4.50845 8.30639C4.60221 8.21265 4.72939 8.15999 4.862 8.15999H5.393C5.52561 8.15999 5.65279 8.21265 5.74655 8.30639C5.84032 8.40014 5.893 8.52728 5.893 8.65985ZM5.893 10.1065C5.893 10.239 5.84032 10.3662 5.74655 10.4599C5.65279 10.5536 5.52561 10.6063 5.393 10.6063H4.862C4.72939 10.6063 4.60221 10.5536 4.50845 10.4599C4.41468 10.3662 4.362 10.239 4.362 10.1065C4.362 9.97388 4.41468 9.84674 4.50845 9.75299C4.60221 9.65925 4.72939 9.60659 4.862 9.60659H5.393C5.52561 9.60659 5.65279 9.65925 5.74655 9.75299C5.84032 9.84674 5.893 9.97388 5.893 10.1065ZM5.893 11.555C5.893 11.6876 5.84032 11.8148 5.74655 11.9085C5.65279 12.0022 5.52561 12.0549 5.393 12.0549H4.862C4.72939 12.0549 4.60221 12.0022 4.50845 11.9085C4.41468 11.8148 4.362 11.6876 4.362 11.555C4.362 11.4225 4.41468 11.2953 4.50845 11.2016C4.60221 11.1079 4.72939 11.0552 4.862 11.0552H5.393C5.52561 11.0552 5.65279 11.1079 5.74655 11.2016C5.84032 11.2953 5.893 11.4225 5.893 11.555ZM5.893 13.0026C5.893 13.1352 5.84032 13.2624 5.74655 13.3561C5.65279 13.4498 5.52561 13.5025 5.393 13.5025H4.862C4.72939 13.5025 4.60221 13.4498 4.50845 13.3561C4.41468 13.2624 4.362 13.1352 4.362 13.0026C4.362 12.8701 4.41468 12.7429 4.50845 12.6492C4.60221 12.5555 4.72939 12.5028 4.862 12.5028H5.393C5.52561 12.5028 5.65279 12.5555 5.74655 12.6492C5.84032 12.7429 5.893 12.8701 5.893 13.0026ZM7.824 8.65985C7.824 8.79242 7.77132 8.91956 7.67755 9.0133C7.58379 9.10705 7.45661 9.15971 7.324 9.15971H6.793C6.66039 9.15971 6.53321 9.10705 6.43945 9.0133C6.34568 8.91956 6.293 8.79242 6.293 8.65985C6.293 8.52728 6.34568 8.40014 6.43945 8.30639C6.53321 8.21265 6.66039 8.15999 6.793 8.15999H7.324C7.45661 8.15999 7.58379 8.21265 7.67755 8.30639C7.77132 8.40014 7.824 8.52728 7.824 8.65985ZM7.824 10.1065C7.824 10.239 7.77132 10.3662 7.67755 10.4599C7.58379 10.5536 7.45661 10.6063 7.324 10.6063H6.793C6.66039 10.6063 6.53321 10.5536 6.43945 10.4599C6.34568 10.3662 6.293 10.239 6.293 10.1065C6.293 9.97388 6.34568 9.84674 6.43945 9.75299C6.53321 9.65925 6.66039 9.60659 6.793 9.60659H7.324C7.45661 9.60659 7.58379 9.65925 7.67755 9.75299C7.77132 9.84674 7.824 9.97388 7.824 10.1065ZM7.824 11.555C7.824 11.6876 7.77132 11.8148 7.67755 11.9085C7.58379 12.0022 7.45661 12.0549 7.324 12.0549H6.793C6.66039 12.0549 6.53321 12.0022 6.43945 11.9085C6.34568 11.8148 6.293 11.6876 6.293 11.555C6.293 11.4225 6.34568 11.2953 6.43945 11.2016C6.53321 11.1079 6.66039 11.0552 6.793 11.0552H7.324C7.45661 11.0552 7.58379 11.1079 7.67755 11.2016C7.77132 11.2953 7.824 11.4225 7.824 11.555ZM7.824 13.0026C7.824 13.1352 7.77132 13.2624 7.67755 13.3561C7.58379 13.4498 7.45661 13.5025 7.324 13.5025H6.793C6.66039 13.5025 6.53321 13.4498 6.43945 13.3561C6.34568 13.2624 6.293 13.1352 6.293 13.0026C6.293 12.8701 6.34568 12.7429 6.43945 12.6492C6.53321 12.5555 6.66039 12.5028 6.793 12.5028H7.324C7.45661 12.5028 7.58379 12.5555 7.67755 12.6492C7.77132 12.7429 7.824 12.8701 7.824 13.0026ZM9.755 8.65985C9.755 8.79242 9.70232 8.91956 9.60855 9.0133C9.51478 9.10705 9.38761 9.15971 9.255 9.15971H8.725C8.59239 9.15971 8.46521 9.10705 8.37145 9.0133C8.27768 8.91956 8.225 8.79242 8.225 8.65985C8.225 8.52728 8.27768 8.40014 8.37145 8.30639C8.46521 8.21265 8.59239 8.15999 8.725 8.15999H9.255C9.38761 8.15999 9.51478 8.21265 9.60855 8.30639C9.70232 8.40014 9.755 8.52728 9.755 8.65985ZM9.755 10.1065C9.755 10.239 9.70232 10.3662 9.60855 10.4599C9.51478 10.5536 9.38761 10.6063 9.255 10.6063H8.725C8.59239 10.6063 8.46521 10.5536 8.37145 10.4599C8.27768 10.3662 8.225 10.239 8.225 10.1065C8.225 9.97388 8.27768 9.84674 8.37145 9.75299C8.46521 9.65925 8.59239 9.60659 8.725 9.60659H9.255C9.38761 9.60659 9.51478 9.65925 9.60855 9.75299C9.70232 9.84674 9.755 9.97388 9.755 10.1065ZM9.755 11.555C9.755 11.6876 9.70232 11.8148 9.60855 11.9085C9.51478 12.0022 9.38761 12.0549 9.255 12.0549H8.725C8.59239 12.0549 8.46521 12.0022 8.37145 11.9085C8.27768 11.8148 8.225 11.6876 8.225 11.555C8.225 11.4225 8.27768 11.2953 8.37145 11.2016C8.46521 11.1079 8.59239 11.0552 8.725 11.0552H9.255C9.38761 11.0552 9.51478 11.1079 9.60855 11.2016C9.70232 11.2953 9.755 11.4225 9.755 11.555ZM11.686 8.65585C11.686 8.78842 11.6333 8.91556 11.5396 9.00931C11.4458 9.10305 11.3186 9.15571 11.186 9.15571H10.655C10.5224 9.15571 10.3952 9.10305 10.3014 9.00931C10.2077 8.91556 10.155 8.78842 10.155 8.65585C10.155 8.52328 10.2077 8.39614 10.3014 8.30239C10.3952 8.20865 10.5224 8.15599 10.655 8.15599H11.186C11.252 8.15599 11.3173 8.16905 11.3783 8.19442C11.4392 8.21979 11.4945 8.25697 11.541 8.30381C11.5875 8.35065 11.6242 8.40622 11.6491 8.46733C11.674 8.52844 11.6865 8.59387 11.686 8.65985V8.65585ZM11.686 10.1025C11.686 10.235 11.6333 10.3622 11.5396 10.4559C11.4458 10.5496 11.3186 10.6023 11.186 10.6023H10.655C10.5224 10.6023 10.3952 10.5496 10.3014 10.4559C10.2077 10.3622 10.155 10.235 10.155 10.1025C10.155 9.96988 10.2077 9.84274 10.3014 9.74899C10.3952 9.65525 10.5224 9.60259 10.655 9.60259H11.186C11.252 9.60259 11.3173 9.61565 11.3783 9.64102C11.4392 9.66639 11.4945 9.70357 11.541 9.75041C11.5875 9.79725 11.6242 9.85282 11.6491 9.91393C11.674 9.97504 11.6865 10.0405 11.686 10.1065V10.1025ZM11.686 11.5511C11.686 11.6836 11.6333 11.8108 11.5396 11.9045C11.4458 11.9982 11.3186 12.0509 11.186 12.0509H10.655C10.5224 12.0509 10.3952 11.9982 10.3014 11.9045C10.2077 11.8108 10.155 11.6836 10.155 11.5511C10.155 11.4185 10.2077 11.2913 10.3014 11.1976C10.3952 11.1039 10.5224 11.0512 10.655 11.0512H11.186C11.252 11.0512 11.3173 11.0642 11.3783 11.0896C11.4392 11.115 11.4945 11.1522 11.541 11.199C11.5875 11.2458 11.6242 11.3014 11.6491 11.3625C11.674 11.4236 11.6865 11.4891 11.686 11.555V11.5511ZM13.617 8.65185C13.617 8.78442 13.5643 8.91157 13.4706 9.00531C13.3768 9.09905 13.2496 9.15171 13.117 9.15171H12.586C12.4534 9.15171 12.3262 9.09905 12.2324 9.00531C12.1387 8.91157 12.086 8.78442 12.086 8.65185C12.086 8.51928 12.1387 8.39214 12.2324 8.2984C12.3262 8.20465 12.4534 8.15199 12.586 8.15199H13.117C13.1833 8.15198 13.249 8.16517 13.3102 8.19079C13.3714 8.21641 13.4269 8.25394 13.4734 8.30121C13.5199 8.34848 13.5566 8.40453 13.5813 8.4661C13.6059 8.52768 13.6181 8.59354 13.617 8.65985V8.65185ZM13.617 10.0985C13.617 10.231 13.5643 10.3582 13.4706 10.4519C13.3768 10.5456 13.2496 10.5983 13.117 10.5983H12.586C12.4534 10.5983 12.3262 10.5456 12.2324 10.4519C12.1387 10.3582 12.086 10.231 12.086 10.0985C12.086 9.96588 12.1387 9.83874 12.2324 9.745C12.3262 9.65125 12.4534 9.59859 12.586 9.59859H13.117C13.1833 9.59858 13.249 9.61177 13.3102 9.63739C13.3714 9.66301 13.4269 9.70055 13.4734 9.74781C13.5199 9.79508 13.5566 9.85113 13.5813 9.9127C13.6059 9.97428 13.6181 10.0401 13.617 10.1065V10.0985ZM13.617 11.5471C13.617 11.6796 13.5643 11.8068 13.4706 11.9005C13.3768 11.9943 13.2496 12.0469 13.117 12.0469H12.586C12.4534 12.0469 12.3262 11.9943 12.2324 11.9005C12.1387 11.8068 12.086 11.6796 12.086 11.5471C12.086 11.4145 12.1387 11.2873 12.2324 11.1936C12.3262 11.0999 12.4534 11.0472 12.586 11.0472H13.117C13.1833 11.0472 13.249 11.0604 13.3102 11.086C13.3714 11.1116 13.4269 11.1491 13.4734 11.1964C13.5199 11.2437 13.5566 11.2997 13.5813 11.3613C13.6059 11.4229 13.6181 11.4887 13.617 11.555V11.5471ZM9.755 13.0026C9.755 13.1352 9.70232 13.2624 9.60855 13.3561C9.51478 13.4498 9.38761 13.5025 9.255 13.5025H8.725C8.59239 13.5025 8.46521 13.4498 8.37145 13.3561C8.27768 13.2624 8.225 13.1352 8.225 13.0026C8.225 12.8701 8.27768 12.7429 8.37145 12.6492C8.46521 12.5555 8.59239 12.5028 8.725 12.5028H9.255C9.38761 12.5028 9.51478 12.5555 9.60855 12.6492C9.70232 12.7429 9.755 12.8701 9.755 13.0026Z"></path>
</symbol>

<symbol id="trash" viewBox="0 0 16 16">
  <path d="M7.24713 5.70696V12.521H5.53538V5.70696H7.24713ZM12.2164 12.773C12.2161 13.1515 12.0656 13.5145 11.7978 13.7821C11.5301 14.0496 11.1671 14.2 10.7886 14.2H5.21243C4.83349 14.2 4.47008 14.0494 4.20213 13.7814C3.93418 13.5134 3.78364 13.15 3.78364 12.771V4.62996H2.0699V12.773C2.07017 13.6064 2.40137 14.4055 2.99068 14.9948C3.57999 15.584 4.37915 15.915 5.21243 15.915H10.7886C11.6219 15.915 12.421 15.584 13.0103 14.9948C13.5997 14.4055 13.9309 13.6064 13.9311 12.773V4.62996H12.2164V12.773ZM10.5996 1.68696V0.0849609H5.61337V1.68496H1.32501V3.39996H14.675V1.68696H10.5996ZM8.7539 5.70696V12.521H10.4656V5.70696H8.7539Z"></path>
</symbol>

<symbol id="two-horizontal-bars" viewBox="0 0 16 16">
  <path d="M0 9.06194H16V11.1849H0V9.06194ZM0 4.81494V6.93794H16V4.81494H0Z"></path>
</symbol>
    </svg>