<svg xmlns="http://www.w3.org/2000/svg" xmlns:xlink="http://www.w3.org/1999/xlink">
    
<symbol id="checkins" viewBox="0 0 16 16">
  <title>checkins</title><g id="Layer_1" data-name="Layer 1"><path d="M8.005,15.5A7.5,7.5,0,0,1,1.071,5.13,7.5,7.5,0,0,1,8,.5a7.153,7.153,0,0,1,2.874.563,7.51,7.51,0,0,1,3.362,11.1A7.507,7.507,0,0,1,8.005,15.5ZM8,1.5a6.47,6.47,0,1,0,6.013,4.007,6.48,6.48,0,0,0-3.52-3.52A6.859,6.859,0,0,0,8,1.5Z"></path><path d="M6.979,11.222a.5.5,0,0,1-.389-.186L4.548,8.508a.5.5,0,0,1,.779-.628L6.978,9.925l3.987-4.961a.5.5,0,1,1,.779.627L7.369,11.035a.5.5,0,0,1-.39.187Z"></path></g>
</symbol>

<symbol id="give" viewBox="0 0 16 16">
  <title>give</title><g id="Layer_1" data-name="Layer 1"><path d="M14.986,13.32h0L1.007,13.3a.5.5,0,0,1-.5-.5L.522,3.183a.5.5,0,0,1,.147-.354.5.5,0,0,1,.353-.146h0L15,2.707a.5.5,0,0,1,.5.5l-.014,9.613a.5.5,0,0,1-.5.5ZM1.509,12.3l12.978.021L14.5,3.706,1.521,3.684Z"></path><path d="M3.606,13.293h0a.5.5,0,0,1-.5-.5,2.08,2.08,0,0,0-.6-1.48,2.084,2.084,0,0,0-1.472-.625.5.5,0,0,1,.005-1H1.04a3.08,3.08,0,0,1,2.173.922,3.073,3.073,0,0,1,.893,2.185A.5.5,0,0,1,3.606,13.293Z"></path><path d="M12.236,13.259h-.014a.5.5,0,0,1-.487-.513,3.193,3.193,0,0,1,.983-2.229,3.125,3.125,0,0,1,2.266-.9.5.5,0,0,1-.006,1h-.035a2.211,2.211,0,0,0-2.208,2.152A.5.5,0,0,1,12.236,13.259Z"></path><path d="M14.808,6.219h0A2.879,2.879,0,0,1,11.94,3.146a.511.511,0,0,1,.533-.465.5.5,0,0,1,.465.532,1.878,1.878,0,0,0,1.871,2.006.5.5,0,0,1,0,1Z"></path><path d="M1.026,6.252H1a.5.5,0,0,1-.495-.5.514.514,0,0,1,.5-.5,2.125,2.125,0,0,0,.8-.151,2.067,2.067,0,0,0,.682-.448,2.07,2.07,0,0,0,.618-1.475.5.5,0,0,1,.5-.5h0a.5.5,0,0,1,.5.5,3.078,3.078,0,0,1-3.08,3.071Z"></path><path d="M7.921,11.4h0a.5.5,0,0,1-.375-.172L4.9,8.178a2.039,2.039,0,0,1-.361-.817,2.016,2.016,0,0,1,.015-.84,1.922,1.922,0,0,1,.69-1.094A2.063,2.063,0,0,1,7.67,5.39a2,2,0,0,1,.285.242,2.028,2.028,0,0,1,.286-.243,2.1,2.1,0,0,1,1.208-.374,1.966,1.966,0,0,1,1.5,3.223L8.3,11.229A.5.5,0,0,1,7.921,11.4ZM6.452,6.015a.94.94,0,0,0-.588.2.927.927,0,0,0-.332.527,1.028,1.028,0,0,0-.008.431,1.012,1.012,0,0,0,.166.392l2.235,2.576,2.263-2.552a.947.947,0,0,0,.205-.481.963.963,0,0,0-.081-.532.982.982,0,0,0-.355-.406.97.97,0,0,0-.516-.153h-.02a1.045,1.045,0,0,0-.992.711.5.5,0,0,1-.473.339h0a.5.5,0,0,1-.473-.338,1.042,1.042,0,0,0-.389-.52,1.1,1.1,0,0,0-.62-.192Z"></path></g>
</symbol>

<symbol id="groups" viewBox="0 0 16 16">
  <title>groups</title><g id="Layer_1" data-name="Layer 1"><path d="M4.69,5.827c-.652-.242-1.405-.579-1.455-.821V4.812a1.242,1.242,0,0,0,.3-.627.378.378,0,0,0,.1-.114.341.341,0,0,0,.044-.142.368.368,0,0,0-.016-.147.39.39,0,0,0-.075-.129V3.171a.708.708,0,0,0-.037-.329.734.734,0,0,0-.182-.281.786.786,0,0,0-.292-.176.807.807,0,0,0-.342-.035.821.821,0,0,0-.337.044.8.8,0,0,0-.286.176.75.75,0,0,0-.183.276.737.737,0,0,0-.046.325v.482c-.1.194-.1.435.05.532a1.094,1.094,0,0,0,.3.579v.242c-.05.242-.752.579-1.4.821-.05,0-.1.1-.1.145V6.5a.115.115,0,0,0,.006.058.126.126,0,0,0,.032.051.129.129,0,0,0,.052.03.128.128,0,0,0,.061.006H4.64a.122.122,0,0,0,.06-.006.133.133,0,0,0,.053-.03.152.152,0,0,0,.032-.051.126.126,0,0,0,0-.058V5.972C4.74,5.923,4.74,5.875,4.69,5.827Z"></path><path d="M4.66,7.149a.684.684,0,0,1-.091-.006l-3.691,0a.985.985,0,0,1-.216-.029.648.648,0,0,1-.245-.147A.8.8,0,0,1,.26,6.723.61.61,0,0,1,.233,6.43L.228,5.972a.663.663,0,0,1,.461-.627,5.264,5.264,0,0,0,.993-.467,1.55,1.55,0,0,1-.2-.44.909.909,0,0,1-.1-.89V3.17a1.183,1.183,0,0,1,.078-.5,1.25,1.25,0,0,1,.3-.458,1.3,1.3,0,0,1,.467-.288,1.4,1.4,0,0,1,.544-.07,1.061,1.061,0,0,1,.459.059,1.28,1.28,0,0,1,.481.29,1.221,1.221,0,0,1,.368,1.03l0,.273a.756.756,0,0,1,.051.121.853.853,0,0,1-.065.688A.909.909,0,0,1,4,4.428a1.754,1.754,0,0,1-.192.453,6.385,6.385,0,0,0,1.06.477.485.485,0,0,1,.175.11,1.16,1.16,0,0,1,.146.2.342.342,0,0,1,.106.3V6.5a.948.948,0,0,1-.031.218.633.633,0,0,1-.165.257.8.8,0,0,1-.239.141A.63.63,0,0,1,4.66,7.149Zm-.366-.674a.418.418,0,0,0,0,.1ZM.829,6.327h0Zm.028-.178a.419.419,0,0,0-.05,0h.1A.407.407,0,0,0,.857,6.149Zm1.47-2.27a.507.507,0,0,1,.1.221.577.577,0,0,0,.163.312.5.5,0,0,1,.145.352v.242a.5.5,0,0,1-.01.1c-.037.178-.111.532-1.352,1.044l2.765,0C2.96,5.67,2.8,5.362,2.745,5.108a.5.5,0,0,1-.01-.1V4.813a.5.5,0,0,1,.126-.333A.728.728,0,0,0,3.042,4.1a.5.5,0,0,1,.117-.248.229.229,0,0,1-.073-.2V3.17l-.008-.161a.25.25,0,0,0-.058-.088.279.279,0,0,0-.23-.074.639.639,0,0,0-.227.018.3.3,0,0,0-.106.065.251.251,0,0,0-.063.094.233.233,0,0,0-.015.1l0,.525A.5.5,0,0,1,2.327,3.879Zm.9-.088Z"></path><path d="M10.157,13.553A4.741,4.741,0,0,1,8.7,12.732V12.49a1.087,1.087,0,0,0,.3-.579.4.4,0,0,0,.1-.114.373.373,0,0,0,.044-.142.369.369,0,0,0-.017-.147.373.373,0,0,0-.075-.129V10.9a.766.766,0,0,0-.852-.869.766.766,0,0,0-.853.869v.482a.427.427,0,0,0,.051.532,1.086,1.086,0,0,0,.3.579v.242c-.05.193-.8.531-1.454.821-.05,0-.1.1-.1.145v.531a.126.126,0,0,0,.005.058.152.152,0,0,0,.032.051.153.153,0,0,0,.052.031.141.141,0,0,0,.061.005h3.762a.141.141,0,0,0,.061-.005.153.153,0,0,0,.052-.031.152.152,0,0,0,.032-.051.126.126,0,0,0,.005-.058V13.7C10.257,13.649,10.257,13.553,10.157,13.553Z"></path><path d="M10.076,14.875a.68.68,0,0,1-.09-.006L6.3,14.874a.977.977,0,0,1-.215-.03.637.637,0,0,1-.246-.147.81.81,0,0,1-.153-.237.648.648,0,0,1-.031-.3L5.645,13.7a.668.668,0,0,1,.438-.62c.291-.13.783-.35,1.047-.5a1.568,1.568,0,0,1-.2-.447.923.923,0,0,1-.086-.866V10.9A1.262,1.262,0,0,1,8.2,9.528,1.262,1.262,0,0,1,9.553,10.9v.336a.894.894,0,0,1,.05.12.863.863,0,0,1,.039.353.843.843,0,0,1-.1.335.867.867,0,0,1-.079.118,1.6,1.6,0,0,1-.172.392,4.255,4.255,0,0,0,1.035.531v0a.652.652,0,0,1,.375.323.588.588,0,0,1,.011.409v.414a.941.941,0,0,1-.032.217.658.658,0,0,1-.158.251.789.789,0,0,1-.246.147A.618.618,0,0,1,10.076,14.875ZM9.712,14.2a.349.349,0,0,0,0,.1Zm-3.466-.151h0Zm.029-.178a.407.407,0,0,0-.05,0h.1A.419.419,0,0,0,6.275,13.875ZM8.2,10.528c-.265,0-.353.053-.353.368v.483a.5.5,0,0,1-.081.274c.068.072.108.075.124.173a.591.591,0,0,0,.163.312.5.5,0,0,1,.145.352v.242a.489.489,0,0,1-.016.126c-.093.358-.48.585-1.44,1.02l2.867,0a5.217,5.217,0,0,1-1.227-.757.5.5,0,0,1-.181-.385V12.49a.5.5,0,0,1,.145-.352.577.577,0,0,0,.163-.312.5.5,0,0,1,.116-.243.225.225,0,0,1-.073-.2V10.9C8.553,10.581,8.465,10.528,8.2,10.528Zm.494.989Z"></path><path d="M15.172,5.827c-.652-.242-1.354-.579-1.4-.821V4.812a1.078,1.078,0,0,0,.3-.579.369.369,0,0,0,.1-.114.374.374,0,0,0,.044-.141.364.364,0,0,0-.092-.276V3.219a.766.766,0,0,0-.852-.869.766.766,0,0,0-.852.869V3.7a.423.423,0,0,0-.069.274.435.435,0,0,0,.119.257,1.08,1.08,0,0,0,.3.579v.242c-.051.194-.8.531-1.455.821-.05,0-.1.1-.1.145v.531a.131.131,0,0,0,0,.059.138.138,0,0,0,.032.05.137.137,0,0,0,.113.036h3.762a.14.14,0,0,0,.061,0,.131.131,0,0,0,.052-.031.116.116,0,0,0,.032-.05.119.119,0,0,0,.006-.059V5.972C15.273,5.923,15.222,5.875,15.172,5.827Z"></path><path d="M15.142,7.2a.707.707,0,0,1-.091-.006l-3.691,0a.95.95,0,0,1-.212-.029.632.632,0,0,1-.248-.148.777.777,0,0,1-.158-.248.634.634,0,0,1-.027-.292l0-.459a.668.668,0,0,1,.437-.62c.292-.129.784-.35,1.048-.5A1.559,1.559,0,0,1,12,4.45a.924.924,0,0,1-.086-.867V3.219A1.263,1.263,0,0,1,13.266,1.85a1.263,1.263,0,0,1,1.353,1.369v.336a.826.826,0,0,1,.049.119.854.854,0,0,1-.065.688.783.783,0,0,1-.079.118,1.565,1.565,0,0,1-.185.413,5.7,5.7,0,0,0,1.007.465.49.49,0,0,1,.173.108.7.7,0,0,1,.253.506v.579a.925.925,0,0,1-.034.228.625.625,0,0,1-.162.246.835.835,0,0,1-.238.142A.652.652,0,0,1,15.142,7.2Zm-.365-.676a.349.349,0,0,0,0,.1Zm-3.466-.146h0Zm.028-.178a.27.27,0,0,0-.049,0h.1A.274.274,0,0,0,11.339,6.2ZM13.266,2.85c-.265,0-.352.053-.352.369V3.7a.507.507,0,0,1-.081.273c.068.072.106.075.124.173a.577.577,0,0,0,.163.312.506.506,0,0,1,.145.353v.241a.531.531,0,0,1-.016.126c-.094.359-.48.586-1.441,1.02l2.932,0c-1.347-.536-1.424-.9-1.462-1.088a.5.5,0,0,1-.01-.1V4.813a.5.5,0,0,1,.145-.353.591.591,0,0,0,.163-.312.5.5,0,0,1,.115-.244.231.231,0,0,1-.072-.2V3.219C13.619,2.9,13.531,2.85,13.266,2.85Zm1.506,3.122v0ZM13.761,3.839Z"></path><path d="M10.808,2.85a.5.5,0,0,1-.252-.068,4.692,4.692,0,0,0-2.5-.657A4.5,4.5,0,0,0,5.6,2.779a.5.5,0,0,1-.514-.858,5.61,5.61,0,0,1,2.972-.8,5.848,5.848,0,0,1,3,.793.5.5,0,0,1-.253.932Z"></path><path d="M11.06,12.169a.5.5,0,0,1-.423-.232.493.493,0,0,1-.078-.267.5.5,0,0,1,.233-.423,4.851,4.851,0,0,0,1.484-1.473,4.607,4.607,0,0,0,.694-1.93.5.5,0,0,1,.556-.438.5.5,0,0,1,.441.5.4.4,0,0,1,0,.059,5.608,5.608,0,0,1-.844,2.351,5.85,5.85,0,0,1-1.792,1.779A.494.494,0,0,1,11.06,12.169Z"></path><path d="M5.09,12.169a.494.494,0,0,1-.267-.077,5.872,5.872,0,0,1-1.792-1.779,5.635,5.635,0,0,1-.844-2.351.5.5,0,0,1,.437-.556.5.5,0,0,1,.556.437,4.62,4.62,0,0,0,.694,1.931,4.851,4.851,0,0,0,1.484,1.473.5.5,0,0,1-.268.922Z"></path></g>
</symbol>

<symbol id="home" viewBox="0 0 16 16">
  <title>home</title><g id="Layer_1" data-name="Layer 1"><path d="M13.806,15.5l-3.241-.041a1.066,1.066,0,0,1-1.052-.977l0-1.637a5.212,5.212,0,0,0-.825-3.161,1.206,1.206,0,0,0-.881-.352.817.817,0,0,0-.6.244c-.719.69-.877,2.531-.877,3.183l-.043,1.61a1.065,1.065,0,0,1-.977,1.045l-3.194.046H2.1a1.038,1.038,0,0,1-.4-.092,1.028,1.028,0,0,1-.331-.24,1.048,1.048,0,0,1-.213-.348,1.06,1.06,0,0,1-.061-.4c-.222-8.223.1-8.509.3-8.68L7.052.816A1.43,1.43,0,0,1,8.811.8l5.842,5.062c.212.186.529.464.129,8.6a1.048,1.048,0,0,1-.282.7A1.064,1.064,0,0,1,13.806,15.5ZM2.146,6.369A78.4,78.4,0,0,0,2.1,14.384l.018.574-.007-.5,3.148-.044.068-1.671c0-.269.033-2.787,1.185-3.891a1.785,1.785,0,0,1,1.365-.52h0A2.068,2.068,0,0,1,9.4,8.988c1.178,1.216,1.11,3.763,1.106,3.871v1.58l3.26.061a75.087,75.087,0,0,0,.134-7.961L8.173,1.572a.442.442,0,0,0-.485.015Z"></path></g>
</symbol>

<symbol id="profile" viewBox="0 0 16 16">
  <title>profile</title><g id="Layer_1" data-name="Layer 1"><path d="M8,.751a7.259,7.259,0,1,0,5.123,2.126A7.244,7.244,0,0,0,8,.751ZM4.2,13.082a9.228,9.228,0,0,1,.6-.768,3.505,3.505,0,0,1,1.767-.435,1.035,1.035,0,0,0,1.027-1.025V10.3c0-.474-.431-.722-.811-.941A3.1,3.1,0,0,1,6.311,8.9l-.1-.11a1.2,1.2,0,0,1-.3-.572,10.793,10.793,0,0,1-.234-2.2,1.677,1.677,0,0,1,.5-1.232,2.7,2.7,0,0,1,1.8-.734,2.7,2.7,0,0,1,1.8.734,1.663,1.663,0,0,1,.379.565,1.683,1.683,0,0,1,.123.669,10.724,10.724,0,0,1-.235,2.2,1.206,1.206,0,0,1-.3.571l-.12.131a2.874,2.874,0,0,1-.446.436c-.4.23-.809.527-.809.986V10.9a1.009,1.009,0,0,0,1.02.981,3.5,3.5,0,0,1,1.76.435,9.9,9.9,0,0,1,.62.794A6.308,6.308,0,0,1,4.2,13.082Zm8.249-.55a10.11,10.11,0,0,0-.643-.816c-.607-.67-2.324-.725-2.4-.727-.049,0-.141,0-.153-.091l-.01-.489a1.134,1.134,0,0,1,.375-.276,3.075,3.075,0,0,0,.663-.61L10.4,9.4a2.109,2.109,0,0,0,.52-.986,11.6,11.6,0,0,0,.255-2.386,2.572,2.572,0,0,0-.76-1.869,3.587,3.587,0,0,0-2.436-.994,3.6,3.6,0,0,0-2.436.995,2.572,2.572,0,0,0-.76,1.869,11.6,11.6,0,0,0,.255,2.386,2.127,2.127,0,0,0,.519.985l.1.107a3.3,3.3,0,0,0,.686.628,3.351,3.351,0,0,1,.367.234v.477a.151.151,0,0,1-.011.059.137.137,0,0,1-.033.049.135.135,0,0,1-.051.031.132.132,0,0,1-.059.007c-.073,0-1.8.057-2.405.727a10.017,10.017,0,0,0-.621.787,6.357,6.357,0,1,1,8.93.029Z"></path></g>
</symbol>

<symbol id="registrations" viewBox="0 0 16 16">
  <title>registrations</title><g id="Layer_1" data-name="Layer 1"><path d="M15,15.393H1a.5.5,0,0,1-.5-.5V4.8A.5.5,0,0,1,1,4.3H15a.5.5,0,0,1,.5.5V14.893A.5.5,0,0,1,15,15.393Zm-13.5-1h13V5.3H1.5Z"></path><path d="M5.055,5.3A.5.5,0,0,1,4.7,4.45L7.115,2.036a.5.5,0,1,1,.707.707L5.408,5.157A.5.5,0,0,1,5.055,5.3Z"></path><path d="M10.993,5.3a.5.5,0,0,1-.36-.154L8.268,2.688A.5.5,0,1,1,8.988,2l2.366,2.463a.5.5,0,0,1-.361.846Z"></path><path d="M8.772,1.859a.773.773,0,0,1-1.545,0,.773.773,0,0,1,1.545,0Z"></path><path d="M8,3.11A1.271,1.271,0,0,1,6.728,1.874,1.278,1.278,0,0,1,7.113.967a1.3,1.3,0,0,1,1.775,0,1.264,1.264,0,0,1,.384.875v.03A1.274,1.274,0,0,1,8,3.11Zm0-1.5a.273.273,0,0,0-.272.267.261.261,0,0,0,.081.158.277.277,0,0,0,.379,0,.268.268,0,0,0,.083-.175A.273.273,0,0,0,8,1.607Z"></path><path d="M3.462,9.166h-.53a.5.5,0,0,1,0-1h.53a.5.5,0,0,1,0,1Z"></path><path d="M3.462,10.613h-.53a.5.5,0,0,1,0-1h.53a.5.5,0,0,1,0,1Z"></path><path d="M3.462,12.062h-.53a.5.5,0,0,1,0-1h.53a.5.5,0,0,1,0,1Z"></path><path d="M3.462,13.51h-.53a.5.5,0,0,1,0-1h.53a.5.5,0,1,1,0,1Z"></path><path d="M5.393,9.166H4.862a.5.5,0,0,1,0-1h.531a.5.5,0,1,1,0,1Z"></path><path d="M5.393,10.613H4.862a.5.5,0,0,1,0-1h.531a.5.5,0,1,1,0,1Z"></path><path d="M5.393,12.062H4.862a.5.5,0,0,1,0-1h.531a.5.5,0,0,1,0,1Z"></path><path d="M5.393,13.51H4.862a.5.5,0,0,1,0-1h.531a.5.5,0,0,1,0,1Z"></path><path d="M7.324,9.166H6.793a.5.5,0,1,1,0-1h.531a.5.5,0,0,1,0,1Z"></path><path d="M7.324,10.613H6.793a.5.5,0,1,1,0-1h.531a.5.5,0,0,1,0,1Z"></path><path d="M7.324,12.062H6.793a.5.5,0,0,1,0-1h.531a.5.5,0,0,1,0,1Z"></path><path d="M7.324,13.51H6.793a.5.5,0,0,1,0-1h.531a.5.5,0,0,1,0,1Z"></path><path d="M9.255,9.166h-.53a.5.5,0,1,1,0-1h.53a.5.5,0,0,1,0,1Z"></path><path d="M9.255,10.613h-.53a.5.5,0,0,1,0-1h.53a.5.5,0,1,1,0,1Z"></path><path d="M9.255,12.062h-.53a.5.5,0,0,1,0-1h.53a.5.5,0,0,1,0,1Z"></path><path d="M11.186,9.166h-.531a.5.5,0,1,1,0-1h.531a.5.5,0,0,1,0,1Z"></path><path d="M11.186,10.613h-.531a.5.5,0,0,1,0-1h.531a.5.5,0,0,1,0,1Z"></path><path d="M11.186,12.062h-.531a.5.5,0,0,1,0-1h.531a.5.5,0,0,1,0,1Z"></path><path d="M13.117,9.166h-.531a.5.5,0,0,1,0-1h.531a.5.5,0,0,1,0,1Z"></path><path d="M13.117,10.613h-.531a.5.5,0,1,1,0-1h.531a.5.5,0,0,1,0,1Z"></path><path d="M13.117,12.062h-.531a.5.5,0,0,1,0-1h.531a.5.5,0,0,1,0,1Z"></path><path d="M9.255,13.51h-.53a.5.5,0,0,1,0-1h.53a.5.5,0,0,1,0,1Z"></path><path d="M15,7.234H1a.5.5,0,0,1,0-1H15a.5.5,0,0,1,0,1Z"></path></g>
</symbol>
    </svg>