<svg xmlns="http://www.w3.org/2000/svg">
    <symbol id="add-circle" class="symbol"><title id="title">add-circle icon</title><path class="cls-1" d="M8.687 4.355H7.672v3.138H4.534v1.014h3.138v3.138h1.015V8.507h3.138V7.493H8.687zM8.179.284A7.716 7.716 0 1 0 15.9 8 7.725 7.725 0 0 0 8.179.284zm0 14.417a6.7 6.7 0 1 1 6.7-6.7 6.709 6.709 0 0 1-6.7 6.699z" data-name="Layer 1" role="presentation"/></symbol>
<symbol id="add-ons-outline" class="symbol"><title id="title">add-ons-outline icon</title><g data-name="Layer 1"><path class="cls-1" d="M14.935 3.515h-.666v-1a.981.981 0 0 0-.979-.979h-2.869a.981.981 0 0 0-.979.979v1H6.776v-1a.981.981 0 0 0-.976-.983H2.929a.981.981 0 0 0-.979.979v1H1.1A1.029 1.029 0 0 0 .071 4.542v9.518A1.029 1.029 0 0 0 1.1 15.088h13.835a1.029 1.029 0 0 0 1.028-1.028V4.542a1.029 1.029 0 0 0-1.028-1.027zm-.372 10.173H1.472V4.915H3.35V2.932h2.026v1.983h5.466V2.932h2.026v1.983h1.694z" role="presentation"/><path class="cls-1" d="M10.259 8.565H8.89V7.2a.1.1 0 0 0-.1-.1H7.266a.1.1 0 0 0-.1.1v1.365H5.8a.1.1 0 0 0-.1.1v1.522a.1.1 0 0 0 .1.1h1.364v1.373a.1.1 0 0 0 .1.1h1.524a.1.1 0 0 0 .1-.1v-1.369h1.369a.1.1 0 0 0 .1-.1V8.667a.1.1 0 0 0-.098-.102z" role="presentation"/></g></symbol>
<symbol id="add-ons" class="symbol"><title id="title">add-ons icon</title><path class="cls-1" d="M15.325 4.27h-2.187V2.243a.407.407 0 0 0-.407-.407H9.888a.407.407 0 0 0-.407.407V4.27H6.659V2.243a.407.407 0 0 0-.407-.407H3.409A.407.407 0 0 0 3 2.243V4.27H.675a.592.592 0 0 0-.592.592v9.524a.592.592 0 0 0 .592.592h14.65a.592.592 0 0 0 .592-.592V4.862a.592.592 0 0 0-.592-.592zm-4.991 5.919a.1.1 0 0 1-.1.1H8.863v1.371a.1.1 0 0 1-.1.1H7.239a.1.1 0 0 1-.1-.1v-1.369H5.768a.1.1 0 0 1-.1-.1V8.667a.1.1 0 0 1 .1-.1h1.369V7.2a.1.1 0 0 1 .1-.1h1.524a.1.1 0 0 1 .1.1v1.365h1.369a.1.1 0 0 1 .1.1z" data-name="Layer 1" role="presentation"/></symbol>
<symbol id="assignments" class="symbol"><title id="title">assignments icon</title><g data-name="Layer 1"><path class="cls-1" d="M3.634 12.9H8.4c.084 0 .125-.017.125-.1v-.789a.959.959 0 0 0-.663-.936l-1.2-.384v-.343l.451-.289a.755.755 0 0 0 .347-.641V8.4a1.379 1.379 0 0 0-1.441-1.356A1.406 1.406 0 0 0 4.538 8.4v1.015a.755.755 0 0 0 .347.641l.451.289v.343l-1.2.384a.959.959 0 0 0-.663.936v.792c0 .081.077.1.161.1z" role="presentation"/><path class="cls-1" d="M11.457 5.549a1.166 1.166 0 0 0-1.166-1.166H1.446A1.166 1.166 0 0 0 .28 5.549v8.845a1.166 1.166 0 0 0 1.166 1.166h8.845a1.166 1.166 0 0 0 1.166-1.166zm-1.6 8.414h-7.98V5.98H9.86zM14.128 10H12.8v1.6h1.92a1.043 1.043 0 0 0 1-1.013V8.665h-1.6zm-8.25-7.988h1.331V.416H5.395c-.532 0-1.113.307-1.113.838v1.823h1.6zM8.539.416h2.927v1.597H8.539zm6.181 0H12.8v1.6h1.331v1.061h1.6V1.254A.9.9 0 0 0 14.72.416zm-.592 3.991h1.597v2.927h-1.597z" role="presentation"/></g></symbol>
<symbol id="attendee-type-outline" class="symbol"><title id="title">attendee-type-outline icon</title><g data-name="Layer 1"><path class="cls-1" d="M11.939 8.1a3.6 3.6 0 1 0 3.6 3.6 3.6 3.6 0 0 0-3.6-3.6z" role="presentation"/><path class="cls-1" d="M10.512 4.852s.14-.756.195-1.338c.068-.725-.419-2.6-3.014-2.6s-3.083 1.875-3.015 2.6c.055.582.195 1.338.195 1.338s-.275.127-.275.638c.1 1.282.6.729.7 1.291.251 1.353.822 1.112.822 1.851 0 1.231-.6 1.806-2.468 2.488S.561 12.5.561 12.974v1.26a.337.337 0 0 0 .337.337h8.621a3.744 3.744 0 0 1-.233-5.561 2.973 2.973 0 0 1-.026-.379c0-.739.571-.5.822-1.851.1-.561.608-.009.7-1.291.005-.511-.27-.637-.27-.637z" role="presentation"/><path class="cls-2" d="M11.932 14.382a.582.582 0 0 1-.558-.54.1.1 0 0 1 0-.027.088.088 0 0 1 0-.029.56.56 0 0 1 1.119.029.576.576 0 0 1-.561.567zm1.117-3.049c-.245.225-1.133.643-.7 1.062a.092.092 0 0 1-.04.152l-.6.2a.09.09 0 0 1-.088-.023.952.952 0 0 1-.26-.619.088.088 0 0 1 0-.023.1.1 0 0 1 0-.024c.034-.546.46-.752.839-1.069.252-.21.376-.638-.069-.739a1.075 1.075 0 0 0-1.107.414.091.091 0 0 1-.129 0l-.456-.5a.093.093 0 0 1 0-.129 1.983 1.983 0 0 1 1.717-.683 1.349 1.349 0 0 1 1.182.723 1.136 1.136 0 0 1-.289 1.258z" role="presentation"/></g></symbol>
<symbol id="attendee-type" class="symbol"><title id="title">attendee-type icon</title><g data-name="Layer 1"><path class="cls-1" d="M12.751 9.28a3.227 3.227 0 1 0 3.227 3.227 3.227 3.227 0 0 0-3.227-3.227zm-.007 5.429a.474.474 0 0 1-.455-.44.078.078 0 0 1 0-.022.072.072 0 0 1 0-.023.456.456 0 0 1 .911.023.469.469 0 0 1-.456.462zm.909-2.482c-.2.183-.922.523-.568.865a.075.075 0 0 1-.032.124l-.486.164a.074.074 0 0 1-.072-.019.775.775 0 0 1-.212-.5.071.071 0 0 1 0-.019.079.079 0 0 1 0-.02c.028-.444.375-.613.683-.871.205-.171.306-.519-.057-.6a.876.876 0 0 0-.9.337.074.074 0 0 1-.1 0l-.371-.41a.075.075 0 0 1 0-.1 1.614 1.614 0 0 1 1.4-.556 1.1 1.1 0 0 1 .962.589.925.925 0 0 1-.246 1.015z" role="presentation"/><path class="cls-1" d="M11.155 4.851s.156-.846.218-1.5C11.448 2.544 10.9.449 8 .449s-3.449 2.1-3.372 2.906c.061.651.218 1.5.218 1.5s-.308.142-.308.713c.108 1.434.672.816.788 1.444.281 1.514.919 1.244.919 2.071 0 1.377-.668 2.02-2.761 2.783S.022 13.407.022 13.939v1.513A.548.548 0 0 0 .57 16h9.474a4.794 4.794 0 0 1-1.52-3.493 4.212 4.212 0 0 1 1.259-3 3.326 3.326 0 0 1-.029-.424c0-.827.639-.557.919-2.071.116-.628.681-.01.789-1.444.001-.575-.307-.717-.307-.717zM15.458 16h.52v-.521a4.237 4.237 0 0 1-.52.521z" role="presentation"/></g></symbol>
<symbol id="bank" class="symbol"><title id="title">bank icon</title><g data-name="Layer 1"><path class="cls-1" d="M13.778.118H2.222a1.215 1.215 0 0 0-1.213 1.213v11.557A1.215 1.215 0 0 0 2.1 14.095v.419a1.448 1.448 0 0 0 1.448 1.446h1.327a1.448 1.448 0 0 0 1.447-1.447V14.1H9.61v.413a1.448 1.448 0 0 0 1.447 1.447h1.327a1.448 1.448 0 0 0 1.447-1.447V14.1a1.214 1.214 0 0 0 1.162-1.211V1.331A1.215 1.215 0 0 0 13.778.118zM2.222 1.329h11.559V12.89H2.222zM5.11 14.513a.236.236 0 0 1-.236.236H3.548a.236.236 0 0 1-.236-.236v-.39h1.8zm7.508 0a.236.236 0 0 1-.236.236h-1.326a.236.236 0 0 1-.236-.236v-.39h1.8z" role="presentation"/><path class="cls-1" d="M3.053 12.056h9.893V2.163H3.053zm1.211-8.683h7.472v7.472H4.264z" role="presentation"/><path class="cls-1" d="M10.252 6.589h-.3a2.032 2.032 0 0 0-.164-.423l.3-.3a.605.605 0 0 0-.856-.856l-.3.3a2.033 2.033 0 0 0-.414-.164V4.86a.605.605 0 0 0-1.211 0v.322a2.035 2.035 0 0 0-.268.114l-.285-.285a.605.605 0 0 0-.856.856l.275.275A2.034 2.034 0 0 0 6 6.589h-.418a.605.605 0 0 0 0 1.211h.471a2.037 2.037 0 0 0 .119.272l-.272.269a.605.605 0 1 0 .856.856l.271-.271a2.035 2.035 0 0 0 .282.121v.483a.605.605 0 1 0 1.211 0v-.445a2.034 2.034 0 0 0 .427-.17l.282.282a.605.605 0 0 0 .856-.856L9.8 8.049a2.036 2.036 0 0 0 .1-.249h.348a.605.605 0 1 0 0-1.211zM7.978 7.734a.62.62 0 1 1 .62-.62.62.62 0 0 1-.62.62z" role="presentation"/></g></symbol>
<symbol id="bell" class="symbol"><title id="title">bell icon</title><path class="cls-1" d="M14.885 11.5l-1.822-2.068v-3.1A4.8 4.8 0 0 0 8.18 1.623 4.8 4.8 0 0 0 3.3 6.332v3.1L1.474 11.5a1.194 1.194 0 0 0-.188 1.324 1.276 1.276 0 0 0 1.167.719h3.639a2.256 2.256 0 0 0 4.174 0h3.639a1.276 1.276 0 0 0 1.167-.719 1.193 1.193 0 0 0-.187-1.324zm-.732.914a.264.264 0 0 1-.247.152H2.453a.264.264 0 0 1-.247-.152.248.248 0 0 1 .04-.281l1.943-2.2a.479.479 0 0 0 .121-.316V6.332A3.807 3.807 0 0 1 8.18 2.6a3.807 3.807 0 0 1 3.87 3.731v3.28a.479.479 0 0 0 .121.316l1.943 2.2a.248.248 0 0 1 .039.284z" data-name="Layer 1" role="presentation"/></symbol>
<symbol id="bill" class="symbol"><title id="title">bill icon</title><g data-name="Layer 1"><path class="cls-1" d="M11.061 6.217a4.153 4.153 0 0 0-.72-1.243 3.394 3.394 0 0 0-1.054-.832 2.828 2.828 0 0 0-1.3-.3 2.858 2.858 0 0 0-1.3.3 3.37 3.37 0 0 0-1.058.832 3.909 3.909 0 0 0-.705 1.243 4.681 4.681 0 0 0 0 3.056 3.919 3.919 0 0 0 .705 1.244 3.393 3.393 0 0 0 1.058.832 2.91 2.91 0 0 0 2.593 0 3.39 3.39 0 0 0 1.058-.832 4.165 4.165 0 0 0 .72-1.244 4.478 4.478 0 0 0 0-3.056zm-1.084 3.8h-3.8V9.011h1.2V6.4c-.023.041-.571.547-.571.547L6 6.173l1.544-1.3h1.21v4.138h1.222z" role="presentation"/><path class="cls-1" d="M15.794 1.917a.67.67 0 0 0-.463-.176H.687a.693.693 0 0 0-.481.176.542.542 0 0 0-.194.418v10.8a.556.556 0 0 0 .194.434.691.691 0 0 0 .481.177h14.644a.668.668 0 0 0 .463-.177.556.556 0 0 0 .195-.434v-10.8a.541.541 0 0 0-.195-.418zm-14.22 8.23a1.8 1.8 0 0 0-.363.038V5.306a1.8 1.8 0 0 0 .363.038 2.475 2.475 0 0 0 2.472-2.4h7.936a2.475 2.475 0 0 0 2.472 2.4 1.794 1.794 0 0 0 .335-.035v4.873a1.794 1.794 0 0 0-.335-.035 2.475 2.475 0 0 0-2.472 2.4H4.046a2.475 2.475 0 0 0-2.472-2.4z" role="presentation"/></g></symbol>
<symbol id="calendar-outline" class="symbol"><title id="title">calendar-outline icon</title><path class="cls-1" d="M14.758 6.038V2.612a.872.872 0 0 0-.852-.891h-1.223v-.8a.853.853 0 1 0-1.7 0v.8H4.809v-.8a.872.872 0 0 0-.852-.89.872.872 0 0 0-.852.891v.8H1.981a.872.872 0 0 0-.852.891v12.473a.872.872 0 0 0 .852.891h11.925a.872.872 0 0 0 .852-.891V6.313a.874.874 0 0 0 .026-.137.874.874 0 0 0-.026-.138zm-1.7 8.156H2.833V7.067h10.221zm0-8.91H2.833V3.5h10.221zm-8.246 4.9a.886.886 0 1 0-.85-.884.867.867 0 0 0 .847.886zm3.162 0a.886.886 0 1 0-.85-.884.867.867 0 0 0 .846.886zm3.162 0a.886.886 0 1 0-.846-.885.867.867 0 0 0 .842.887zm-6.327 2.675a.886.886 0 1 0-.847-.885.867.867 0 0 0 .847.885zm3.162 0a.886.886 0 1 0-.846-.885.867.867 0 0 0 .845.885zm3.162 0a.886.886 0 1 0-.846-.885.867.867 0 0 0 .845.885z" data-name="Layer 1" role="presentation"/></symbol>
<symbol id="capacity" class="symbol"><title id="title">capacity icon</title><g data-name="Layer 1"><path class="cls-1" d="M8.731 7.813l-1.812-.825A3.05 3.05 0 1 0 3.645 7l-1.793.816a2.53 2.53 0 0 0-1.478 2.3v2.434A1.826 1.826 0 0 0 2.2 14.368h6.185a1.826 1.826 0 0 0 1.824-1.824V10.11a2.53 2.53 0 0 0-1.478-2.297zM5.275 2.781a1.648 1.648 0 1 1-1.648 1.648 1.649 1.649 0 0 1 1.648-1.648zm3.533 9.762a.423.423 0 0 1-.423.423H2.2a.423.423 0 0 1-.423-.423V10.11a1.125 1.125 0 0 1 .657-1.022l2.858-1.3 2.858 1.3a1.125 1.125 0 0 1 .658 1.022z" role="presentation"/><path class="cls-1" d="M14.383 6.665l-1.114-.507a2.478 2.478 0 1 0-3.136.008l-.249.113a.7.7 0 0 0 .581 1.275l1.244-.566 2.091.952a.681.681 0 0 1 .4.619V10.4a.15.15 0 0 1-.15.15h-2.144a.7.7 0 0 0 0 1.4h2.144a1.553 1.553 0 0 0 1.55-1.55V8.559a2.086 2.086 0 0 0-1.217-1.894zM11.7 3.182a1.077 1.077 0 1 1-1.08 1.077 1.078 1.078 0 0 1 1.08-1.077z" role="presentation"/></g></symbol>
<symbol id="cc" class="symbol"><title id="title">cc icon</title><g data-name="Layer 1"><path class="cls-1" d="M5.177 10.18h2.049v1.165H5.177zm-2.678 0h2.049v1.165H2.499zm9.509-1.892A1.516 1.516 0 0 0 11 8.674a1.529 1.529 0 1 0 0 2.285 1.526 1.526 0 1 0 1.006-2.671z" role="presentation"/><path class="cls-1" d="M15.388 1.741H.623a.606.606 0 0 0-.535.332.522.522 0 0 0-.076.262v10.8a.578.578 0 0 0 .045.221v.016a.611.611 0 0 0 .561.37h14.77a.612.612 0 0 0 .612-.605V2.353a.612.612 0 0 0-.612-.612zm-.738 3.632H1.361V3.091H14.65zM1.361 12.4V6.867H14.65V12.4z" role="presentation"/></g></symbol>
<symbol id="check" class="symbol"><title id="title">check icon</title><g data-name="Layer 1"><path class="cls-1" d="M3.358 8.971h2.56v.995h-2.56zm0-2.064h7.919v.995H3.358zm0-1.973h3.731v.995H3.358zm3.338 4.037h2.56v.995h-2.56zm3.492.994l.995-.994h-1.096v.994h.101zm4.432 2.016h-1.039l-1.347 1.35h3.125a.612.612 0 0 0 .612-.612V9.586l-1.35 1.353z" role="presentation"/><path class="cls-1" d="M1.331 3.091H14.62V5.6l1.35-1.339V2.353a.612.612 0 0 0-.612-.612H.593a.612.612 0 0 0-.612.612V12.72a.612.612 0 0 0 .612.612h6.27L8.2 11.981H1.331zm8.543 8.648l4.863-4.864 1.252 1.252-4.862 4.864zm-.995.995l.054 1.233 1.198.019.497-.497-1.252-1.253-.497.498z" role="presentation"/></g></symbol>
<symbol id="circle-clock" class="symbol"><title id="title">circle-clock icon</title><g data-name="Layer 1"><path class="cls-1" d="M8.047 16.07a8.021 8.021 0 1 1 8.021-8.021 8.03 8.03 0 0 1-8.021 8.021zm0-14.673A6.652 6.652 0 1 0 14.7 8.049 6.66 6.66 0 0 0 8.047 1.4z" role="presentation"/><path class="cls-1" d="M10.933 10.276c-.108 0-.12-.026-.222-.079L7.583 8.5V4.083a.777.777 0 0 1 1.543 0V7.67l2.311 1.316a.658.658 0 0 1 .194.925.836.836 0 0 1-.698.365z" role="presentation"/></g></symbol>
<symbol id="circle-money" class="symbol"><title id="title">circle-money icon</title><g data-name="Layer 1"><path class="cls-1" d="M8.427 9.935a1.145 1.145 0 0 1-.707.185 2.438 2.438 0 0 1-.95-.2.6.6 0 0 0-.487.01.61.61 0 0 0 .037 1.122 3.712 3.712 0 0 0 1.163.235v.247a.643.643 0 1 0 1.286 0v-.401a2.156 2.156 0 0 0 .657-.354 1.715 1.715 0 0 0 .661-1.4 1.648 1.648 0 0 0-.406-1.133A3 3 0 0 0 8.418 7.5a2.478 2.478 0 0 1-.827-.4.494.494 0 0 1-.159-.374.5.5 0 0 1 .189-.411.861.861 0 0 1 .571-.171 2.157 2.157 0 0 1 .764.142.614.614 0 0 0 .477-.018.59.59 0 0 0 .31-.346.6.6 0 0 0-.348-.753 2.968 2.968 0 0 0-.625-.159v-.452a.643.643 0 0 0-1.286 0v.5a2.075 2.075 0 0 0-.86.444A1.728 1.728 0 0 0 6 6.851c0 .8.569 1.4 1.692 1.789a2.174 2.174 0 0 1 .766.386.591.591 0 0 1 .182.453.536.536 0 0 1-.213.456z" role="presentation"/><path class="cls-1" d="M8.008 16.07a8.021 8.021 0 1 1 8.021-8.021 8.03 8.03 0 0 1-8.021 8.021zm0-14.673a6.652 6.652 0 1 0 6.652 6.652A6.66 6.66 0 0 0 8.008 1.4z" role="presentation"/></g></symbol>
<symbol id="circle-person" class="symbol"><title id="title">circle-person icon</title><g data-name="Layer 1"><path class="cls-1" d="M10.549 8.345L9.65 7.9a2.328 2.328 0 1 0-3.257 0l-.9.448a1.265 1.265 0 0 0-.7 1.138v1.446a1.206 1.206 0 0 0 1.2 1.2h4.055a1.206 1.206 0 0 0 1.2-1.2V9.484a1.265 1.265 0 0 0-.699-1.139zM8.021 5.277a.959.959 0 1 1-.959.959.96.96 0 0 1 .959-.959zm1.863 5.488H6.158V9.544l1.863-.928 1.863.928z" role="presentation"/><path class="cls-1" d="M8.021 0a8.021 8.021 0 1 0 8.021 8.021A8.03 8.03 0 0 0 8.021 0zm0 14.673a6.652 6.652 0 1 1 6.652-6.652 6.66 6.66 0 0 1-6.652 6.652z" role="presentation"/></g></symbol>
<symbol id="clock" class="symbol"><title id="title">clock icon</title><g data-name="Layer 1"><path class="cls-1" d="M8 2.028a6 6 0 1 1-6 6 6.007 6.007 0 0 1 6-6m0-2a8 8 0 1 0 8 8 8 8 0 0 0-8-8z" role="presentation"/><path class="cls-1" d="M10.941 9.416H7.985a1 1 0 0 1-1-1v-4.6a1 1 0 0 1 2 0v3.6h1.956a1 1 0 1 1 0 2z" role="presentation"/></g></symbol>
<symbol id="comment-outline" class="symbol"><title id="title">comment-outline icon</title><path class="cls-1" d="M1.015 15.992a1 1 0 0 1-.967-1.242l.8-3.2a7.974 7.974 0 1 1 3.608 3.613l-3.2.8a1 1 0 0 1-.241.029zM4.584 13.1a1 1 0 0 1 .488.128 6 6 0 1 0-2.294-2.3 1 1 0 0 1 .1.731l-.491 1.961 1.955-.488a.992.992 0 0 1 .242-.032z" data-name="Layer 1" role="presentation"/></symbol>
<symbol id="contact-outline" class="symbol"><title id="title">contact-outline icon</title><g data-name="Layer 1"><path class="cls-1" d="M13.213 6.183H8.482V5.065h4.731zM3.193 5.065h4.213v4.213H3.193z" role="presentation"/><path class="cls-1" d="M13.388 2H2.434A2.437 2.437 0 0 0 0 4.436v7.3a2.437 2.437 0 0 0 2.434 2.434h1.217a.608.608 0 0 0 .609-.609v-.609h.609v.609a.608.608 0 0 0 .609.609h4.868a.608.608 0 0 0 .609-.609v-.609h.609v.609a.608.608 0 0 0 .609.609h1.217a2.437 2.437 0 0 0 2.434-2.434v-7.3A2.437 2.437 0 0 0 13.388 2zm1.217 9.737a1.218 1.218 0 0 1-1.217 1.217h-.608v-.609a.608.608 0 0 0-.609-.609h-1.825a.608.608 0 0 0-.609.609v.609H6.086v-.609a.608.608 0 0 0-.609-.609H3.651a.608.608 0 0 0-.609.609v.609h-.608a1.218 1.218 0 0 1-1.217-1.217v-7.3a1.218 1.218 0 0 1 1.217-1.218h10.954a1.218 1.218 0 0 1 1.217 1.217z" role="presentation"/><path class="cls-1" d="M8.482 7.326h3.248v1.118H8.482z" role="presentation"/></g></symbol>
<symbol id="dial" class="symbol"><title id="title">dial icon</title><path class="cls-1" d="M11.215 9.087l-3.157-.318a1.5 1.5 0 0 0-.626.075 1.451 1.451 0 1 0 .968 2.737l2.991-1.053a.743.743 0 0 0-.173-1.44zm-.057.79L8.167 10.93a.761.761 0 1 1-.506-1.435.771.771 0 0 1 .255-.043h.074l3.155.319a.06.06 0 0 1 .048.058.054.054 0 0 1-.036.048zM8 .345a7.7 7.7 0 1 0 7.7 7.7A7.711 7.711 0 0 0 8 .345zm0 14.713a7.012 7.012 0 1 1 7.014-7.012A7.021 7.021 0 0 1 8 15.058zM8 2.5a5.553 5.553 0 0 0-5.548 5.546v.345h1.371V7.7h-.669a4.851 4.851 0 0 1 4.5-4.478v1.109h.69V3.223a4.851 4.851 0 0 1 4.5 4.478h-.672v.69h1.374v-.345A5.553 5.553 0 0 0 8 2.5z" data-name="Layer 1" role="presentation"/></symbol>
<symbol id="discount" class="symbol"><title id="title">discount icon</title><path class="cls-1" d="M10.324 4.973a3.394 3.394 0 0 0-1.054-.832 2.828 2.828 0 0 0-1.3-.3 2.858 2.858 0 0 0-1.3.3 3.37 3.37 0 0 0-1.058.832 3.909 3.909 0 0 0-.705 1.243 4.681 4.681 0 0 0 0 3.056 3.919 3.919 0 0 0 .705 1.244 3.393 3.393 0 0 0 1.058.832 2.91 2.91 0 0 0 2.593 0 3.39 3.39 0 0 0 1.058-.832 4.165 4.165 0 0 0 .72-1.244 4.478 4.478 0 0 0 0-3.056 4.153 4.153 0 0 0-.717-1.243zm-.364 5.046h-3.8V9.011h1.2V6.4c-.023.041-.571.547-.571.547l-.815-.774 1.544-1.3h1.22v4.138H9.96zm1.165-8.278H8.953v1.206h2.173zM8.953 13.749h2.173v-1.2H8.953zM15.858 2.04a.608.608 0 0 0-.516-.3H13.61v1.207h1V4.1h1.35V2.335a.523.523 0 0 0-.102-.295zM3.765 11.61a2.433 2.433 0 0 0-.568-.762 2.723 2.723 0 0 0-.845-.512 2.816 2.816 0 0 0-1.035-.191v-4.8a2.819 2.819 0 0 0 1.035-.191 2.722 2.722 0 0 0 .848-.512 2.439 2.439 0 0 0 .568-.762 2.11 2.11 0 0 0 .214-.933h2.49V1.741H.657a.693.693 0 0 0-.481.176.542.542 0 0 0-.195.418v10.8a.557.557 0 0 0 .195.434.691.691 0 0 0 .481.177h5.812v-1.2h-2.49a2.11 2.11 0 0 0-.214-.936zm10.844-2.938h1.35V6.587h-1.35zm0 3.874h-1v1.2h1.732a.611.611 0 0 0 .538-.331.557.557 0 0 0 .08-.28v-1.979h-1.35z" data-name="Layer 1" role="presentation"/></symbol>
<symbol id="drag" class="symbol"><title id="title">drag icon</title><path class="cls-1" d="M14.412 7.382l-1.648-1.415a.593.593 0 0 0-.98.45v.748h-3.14V3.977h.7A.593.593 0 0 0 9.794 3L8.38 1.349a.593.593 0 0 0-.9 0L6.065 3a.593.593 0 0 0 .45.98h.7v3.182h-3.14v-.744a.593.593 0 0 0-.98-.45L1.447 7.382a.593.593 0 0 0 0 .9L3.095 9.7a.593.593 0 0 0 .98-.45v-.662h3.14v3.1h-.7a.593.593 0 0 0-.45.98l1.414 1.648a.593.593 0 0 0 .9 0l1.414-1.648a.593.593 0 0 0-.45-.98h-.7V8.592h3.14v.651a.593.593 0 0 0 .98.45l1.648-1.414a.593.593 0 0 0 .001-.897z" data-name="Layer 1" role="presentation"/></symbol>
<symbol id="edit" class="symbol"><title id="title">edit icon</title><path class="cls-1" d="M9.649 3.178l-7.9 7.9-.8 3.358a.511.511 0 0 0 .618.618l3.333-.829 7.9-7.9zm3.903 2.393L15 4.12a1.119 1.119 0 0 0 .065-1.566L13.5.984a1.213 1.213 0 0 0-1.645-.012L10.4 2.423z" data-name="Layer 1" role="presentation"/></symbol>
<symbol id="email-envelope" class="symbol"><title id="title">email-envelope icon</title><path class="cls-1" d="M.86 4.635L7.3 7.761a1.072 1.072 0 0 0 .818 0l6.948-3.433a.358.358 0 0 0 .2-.321 1 1 0 0 0-1-1H1.67A1.016 1.016 0 0 0 .659 4.018v.3a.358.358 0 0 0 .201.317zm13.761 1.5l-5.867 2.9a2.474 2.474 0 0 1-2.048.006L1.3 6.427a.448.448 0 0 0-.643.406v4.657a.978.978 0 0 0 .973.978h12.554a1.089 1.089 0 0 0 1.083-1.088V6.537a.448.448 0 0 0-.646-.404z" data-name="Layer 1" role="presentation"/></symbol>
<symbol id="email" class="symbol"><title id="title">email icon</title><path class="cls-1" d="M13.2 3.735H2.988A1.454 1.454 0 0 0 1.527 5.18v5.871a1.454 1.454 0 0 0 1.461 1.443H13.2a1.454 1.454 0 0 0 1.461-1.443V5.18A1.454 1.454 0 0 0 13.2 3.735zM5.49 8.13l-2.715 2.023V6.525zm1.155.683l.817.483a1.277 1.277 0 0 0 1.3 0l.816-.482 3.286 2.448h-9.5zm4.085-.683l2.682-1.586v3.584zM2.988 4.968H13.2a.2.2 0 0 1 .19.155L8.1 8.238 2.8 5.107a.2.2 0 0 1 .188-.139z" data-name="Layer 1" role="presentation"/></symbol>
<symbol id="eve-closed" class="symbol"><title id="title">eve-closed icon</title><path class="cls-1" d="M15.122 8a11.685 11.685 0 0 0-1.863-2.259.574.574 0 0 0-.83.048.624.624 0 0 0 .046.859 10.187 10.187 0 0 1 1.444 1.689 8.87 8.87 0 0 1-2.774 2.686.62.62 0 0 0-.223.829.583.583 0 0 0 .512.31.569.569 0 0 0 .288-.079 10.294 10.294 0 0 0 3.4-3.409.627.627 0 0 0 0-.674zm-3-4.29a.622.622 0 0 0-.159-.845.575.575 0 0 0-.816.165l-.634.975a4.361 4.361 0 0 0-.824-.227c-3.056-.7-6.156.88-8.3 4.222a.627.627 0 0 0 0 .674 10.132 10.132 0 0 0 3.749 3.6l-.579.891a.622.622 0 0 0 .159.845.571.571 0 0 0 .328.1.582.582 0 0 0 .488-.269l2.343-3.6a1.822 1.822 0 0 0 .378.039 1.912 1.912 0 0 0 1.877-1.944 1.984 1.984 0 0 0-.316-1.078zm-3.24 2.8a1.8 1.8 0 0 0-.63-.12 1.912 1.912 0 0 0-1.873 1.951 1.968 1.968 0 0 0 .482 1.29L5.8 11.256a8.6 8.6 0 0 1-3.207-2.915c1.882-2.731 4.375-3.954 6.89-3.36A.634.634 0 0 0 9.6 5a1.757 1.757 0 0 1 .25.037z" data-name="Layer 1" role="presentation"/></symbol>
<symbol id="event-settings" class="symbol"><title id="title">event-settings icon</title><g data-name="Layer 1"><path class="cls-1" d="M14.827 10.245l-.18-.694.48-.928-1.015-1.134-1.027.546-.667-.335-.273-.946-1.44-.008-.376 1.009-.653.282-.937-.491-1.066.738.461.984-.334.762-1.031.3.031 1.493.946.191s.471.909.379.92a5.121 5.121 0 0 0-.545.907l.883 1.072 1.173-.642.645.418.224 1.059 1.475.037.314-1 .628-.234 1.053.43.988-.867-.432-.973.233-.649 1.14-.39.066-1.5zm-3.2 2.993A2 2 0 1 1 13.466 11a2.047 2.047 0 0 1-1.836 2.238z" role="presentation"/><path class="cls-2" d="M13.429 2.789h-.643V1a.442.442 0 0 0-.442-.442H9.215A.442.442 0 0 0 8.773 1v1.789H5.085V1a.442.442 0 0 0-.442-.437H1.535A.442.442 0 0 0 1.094 1v1.789H.477a.442.442 0 0 0-.442.442v10.983a.442.442 0 0 0 .442.442h6.474l-.563-.684.295-.583c.035-.068.063-.12.1-.183H1.527V4.293h10.856v1.46h.516l.311 1.08.661-.351V3.23a.442.442 0 0 0-.442-.441zm-9.712.4H2.446v-1.56h1.271zm7.709 0h-1.3v-1.56h1.3z" role="presentation"/><path class="cls-2" d="M7.09 5.44a.129.129 0 0 0-.238 0L6 7.5a.129.129 0 0 1-.109.079l-2.221.178a.129.129 0 0 0-.074.226L5.285 9.43a.129.129 0 0 1 .042.128l-.517 2.167a.129.129 0 0 0 .193.14l.785-.48-.032-1.8 1.253-.371-.6-1.278 1.336-.924z" role="presentation"/></g></symbol>
<symbol id="event-status" class="symbol"><title id="title">event-status icon</title><path class="cls-1" d="M8.687 12.987h-.033a.7.7 0 0 1-.638-.5L5.938 5.564 4.445 9.226a.7.7 0 0 1-.649.436H.7a.7.7 0 1 1 0-1.4h2.625L5.389 3.2a.7.7 0 0 1 1.32.063l2.075 6.915 1.957-4.839a.7.7 0 0 1 .649-.438h.01a.7.7 0 0 1 .648.447l1.13 2.915H15.3a.7.7 0 1 1 0 1.4h-2.606a.7.7 0 0 1-.653-.447L11.377 7.5l-2.041 5.049a.7.7 0 0 1-.649.438z" data-name="Layer 1" role="presentation"/></symbol>
<symbol id="event-time" class="symbol"><title id="title">event-time icon</title><g data-name="Layer 1"><path class="cls-1" d="M7.944 14.14A6.14 6.14 0 1 1 14.083 8a6.146 6.146 0 0 1-6.139 6.14zm0-10.878A4.738 4.738 0 1 0 12.682 8a4.744 4.744 0 0 0-4.738-4.738z" role="presentation"/><path class="cls-1" d="M10.018 9.9a.7.7 0 0 1-.349-.1L7.243 8.4V4.922a.7.7 0 1 1 1.4 0V7.6l1.724.994a.7.7 0 0 1-.35 1.308z" role="presentation"/></g></symbol>
<symbol id="external-link" class="symbol"><title id="title">external-link icon</title><g data-name="Layer 1"><path class="cls-1" d="M11.981 7.764v5.486h-9.17v-9.4h5.271c.156 0 .037-.2.037-.2l-1.6-1.6h-4a1.512 1.512 0 0 0-1.508 1.511v9.976a1.512 1.512 0 0 0 1.513 1.513h9.745a1.512 1.512 0 0 0 1.512-1.512v-4.23l-1.64-1.64s-.16-.044-.16.096z" role="presentation"/><path class="cls-1" d="M14.408.95H9.131a.451.451 0 0 0-.319.77l1.829 1.83-4.435 4.436a1.1 1.1 0 0 0 1.557 1.556L12.2 5.106l2.021 2.021a.451.451 0 0 0 .77-.319V1.53a.58.58 0 0 0-.583-.58z" role="presentation"/></g></symbol>
<symbol id="eye" class="symbol"><title id="title">eye icon</title><path class="cls-1" d="M8.169 6.519a1.923 1.923 0 1 0 1.877 1.922 1.9 1.9 0 0 0-1.877-1.922zm6.866 1.589c-1.816-2.8-4.254-4.335-6.866-4.335S3.119 5.313 1.3 8.108a.614.614 0 0 0 0 .666c1.815 2.8 4.254 4.335 6.866 4.335s5.05-1.539 6.866-4.335a.614.614 0 0 0 .002-.666zm-6.866 3.8c-2.1 0-4.1-1.227-5.663-3.465C4.066 6.2 6.065 4.977 8.169 4.977s4.1 1.227 5.663 3.465c-1.561 2.237-3.56 3.464-5.663 3.464z" data-name="Layer 1" role="presentation"/></symbol>
<symbol id="facebook-outline" class="symbol"><title id="title">facebook-outline icon</title><path class="cls-1" d="M11.76 4.963a1.276 1.276 0 0 0-1.01-.5H9.443v-.487h.766a1.257 1.257 0 0 0 1.264-1.237l.008-1.5A1.255 1.255 0 0 0 10.216 0H8.79a3.782 3.782 0 0 0-1.882.487 3.137 3.137 0 0 0-1.527 2.9v1.08h-.767a1.271 1.271 0 0 0-.894.364 1.242 1.242 0 0 0-.369.883v1.493a1.256 1.256 0 0 0 1.268 1.237h.762v6.226a1.255 1.255 0 0 0 1.264 1.242H8.17a1.255 1.255 0 0 0 1.264-1.242V8.444h.956a1.271 1.271 0 0 0 1.216-.9l.355-1.48a1.23 1.23 0 0 0-.201-1.101zM10.39 7.2H8.17v7.469H6.645V7.2H4.618V5.708h2.027V3.387a2.007 2.007 0 0 1 2.146-2.151h1.429l-.007 1.494H8.889c-.727 0-.71.607-.71.607v2.372h2.57z" data-name="Layer 1" role="presentation"/></symbol>
<symbol id="form-download" class="symbol"><title id="title">form-download icon</title><g data-name="Layer 1"><path class="cls-1" d="M8.032.663a7.348 7.348 0 1 0 7.348 7.348A7.356 7.356 0 0 0 8.032.663zm0 13.577a6.228 6.228 0 1 1 6.228-6.229 6.235 6.235 0 0 1-6.228 6.229z" role="presentation"/><path class="cls-1" d="M8.475 9.013V5.608h-1.12v3.431L6.199 7.835l-.768.792 2.554 2.542 2.548-2.542-.836-.792-1.222 1.178z" role="presentation"/></g></symbol>
<symbol id="forms" class="symbol"><title id="title">forms icon</title><path class="cls-1" d="M14.45 3.817h-2.6V3.23a.653.653 0 0 0-.208-.478L9.34.605A.653.653 0 0 0 8.9.431H1.724a.653.653 0 0 0-.653.653v10.459a.653.653 0 0 0 .653.653H3.7v2.624a.75.75 0 0 0 .75.75h10a.75.75 0 0 0 .75-.75V4.567a.75.75 0 0 0-.75-.75zM7.667 1.592h1.2V3.51h1.945v1.2H8.167a.5.5 0 0 1-.5-.5zM3.129 3.657h3.163V4.9H3.129zm0 2.454h4.857v1.24H3.129zm0 2.455h4.857v1.24H3.129zm10.571 5.5H5.2V12.2h6a.653.653 0 0 0 .653-.653v-6.23H13.7z" data-name="Layer 1" role="presentation"/></symbol>
<symbol id="gear" class="symbol"><title id="title">gear icon</title><path class="cls-1" d="M15.187 8.907V7.644a.6.6 0 0 0-.6-.6h-.65a.61.61 0 0 1-.574-.436 5.382 5.382 0 0 0-.329-.789.609.609 0 0 1 .1-.716l.461-.461a.6.6 0 0 0 0-.854l-.893-.893a.6.6 0 0 0-.854 0l-.461.461a.609.609 0 0 1-.716.1 5.38 5.38 0 0 0-.789-.328.61.61 0 0 1-.436-.574v-.65a.6.6 0 0 0-.6-.6H7.571a.6.6 0 0 0-.6.6v.65a.61.61 0 0 1-.436.574 5.38 5.38 0 0 0-.789.328.609.609 0 0 1-.716-.1l-.466-.466a.6.6 0 0 0-.854 0l-.893.893a.6.6 0 0 0 0 .854l.461.461a.609.609 0 0 1 .1.716 5.382 5.382 0 0 0-.329.789.61.61 0 0 1-.574.436h-.65a.6.6 0 0 0-.6.6v1.268a.6.6 0 0 0 .6.6h.65a.61.61 0 0 1 .574.436 5.382 5.382 0 0 0 .329.79.609.609 0 0 1-.1.716l-.461.461a.6.6 0 0 0 0 .854l.893.893a.6.6 0 0 0 .854 0l.46-.46a.609.609 0 0 1 .716-.1 5.381 5.381 0 0 0 .789.329.61.61 0 0 1 .436.574v.65a.6.6 0 0 0 .6.6h1.269a.6.6 0 0 0 .6-.6V14a.61.61 0 0 1 .436-.574 5.382 5.382 0 0 0 .789-.329.609.609 0 0 1 .716.1l.461.461a.6.6 0 0 0 .854 0l.893-.893a.6.6 0 0 0 0-.854l-.461-.461a.609.609 0 0 1-.1-.716 5.382 5.382 0 0 0 .329-.789.61.61 0 0 1 .574-.436h.65a.6.6 0 0 0 .612-.602zM8.2 11.436a3.16 3.16 0 1 1 3.16-3.16 3.164 3.164 0 0 1-3.16 3.16z" data-name="Layer 1" role="presentation"/></symbol>
<symbol id="geo-pin-outline" class="symbol"><title id="title">geo-pin-outline icon</title><path class="cls-1" d="M8 .028a5.849 5.849 0 0 0-5.695 5.979 6.066 6.066 0 0 0 1.109 3.542l3.8 5.979a.924.924 0 0 0 1.579 0l3.766-5.934a6.134 6.134 0 0 0 1.139-3.588A5.849 5.849 0 0 0 8 .028zm3.007 8.416L8 13.18 4.962 8.4A4.076 4.076 0 0 1 4.2 6.007 3.9 3.9 0 0 1 8 2.021a3.9 3.9 0 0 1 3.8 3.986 4.146 4.146 0 0 1-.793 2.437zM7.326 5.3a1.047 1.047 0 0 0 0 1.415.93.93 0 0 0 1.348 0 1.047 1.047 0 0 0 0-1.415.959.959 0 0 0-1.348 0z" data-name="Layer 1" role="presentation"/></symbol>
<symbol id="html-link-outline" class="symbol"><title id="title">html-link-outline icon</title><g data-name="Layer 1"><path class="cls-1" d="M8.412 4.326L4.58.5a1.254 1.254 0 0 0-1.73 0L.473 2.872a1.225 1.225 0 0 0 0 1.729L4.3 8.431a1.222 1.222 0 0 0 1.729 0l2.383-2.376a1.225 1.225 0 0 0 0-1.729zM5.17 7.567L1.338 3.736 3.715 1.36l3.832 3.83zm10.286 3.8l-3.832-3.831a1.252 1.252 0 0 0-1.729 0L7.517 9.913a1.225 1.225 0 0 0 0 1.729l3.832 3.831a1.224 1.224 0 0 0 1.73 0l2.377-2.373a1.222 1.222 0 0 0 0-1.729zm-3.242 3.241l-3.832-3.83L10.759 8.4l3.832 3.83z" role="presentation"/><path class="cls-1" d="M11.482 10.309L5.857 4.688a.893.893 0 0 0-1.232 0 .8.8 0 0 0 .061 1.172l5.624 5.622a.918.918 0 0 0 .64.287.745.745 0 0 0 .533-.228.873.873 0 0 0-.001-1.232z" role="presentation"/></g></symbol>
<symbol id="info-outline" class="symbol"><title id="title">info-outline icon</title><g data-name="Layer 1"><path class="cls-1" d="M6.074 6.272h2.272a.654.654 0 0 1 .649.735l-.757 3.95a.527.527 0 0 0 .692.565l.6-.242a.223.223 0 0 1 .139.389 2.735 2.735 0 0 1-2.176.854c-1.855-.078-1.393-1.835-1.325-2.257s.451-2.512.471-2.689.206-.51-.314-.648-.687-.245-.687-.363.103-.294.436-.294z" role="presentation"/><circle class="cls-1" cx="8.209" cy="4.543" r="1.261"/><path class="cls-1" d="M8 1.249A6.751 6.751 0 1 1 1.249 8 6.759 6.759 0 0 1 8 1.249m0-1.13A7.881 7.881 0 1 0 15.881 8 7.881 7.881 0 0 0 8 .119z" role="presentation"/></g></symbol>
<symbol id="link-arrow" class="symbol"><title id="title">link-arrow icon</title><path class="cls-1" d="M15.236 7.585L9.978 2.458a.918.918 0 0 0-1.275 0A.863.863 0 0 0 8.7 3.7l3.719 3.626H1.4a.879.879 0 1 0 0 1.758h11.021L8.7 12.711a.863.863 0 0 0 0 1.243.918.918 0 0 0 1.275 0l5.258-5.127a.864.864 0 0 0 .003-1.242z" data-name="Layer 1" role="presentation"/></symbol>
<symbol id="list-outline" class="symbol"><title id="title">list-outline icon</title><g data-name="Layer 1"><path class="cls-1" d="M13.962.872H2.038a.872.872 0 0 0-.852.891v12.474a.872.872 0 0 0 .852.891h11.924a.872.872 0 0 0 .852-.891V1.763a.872.872 0 0 0-.852-.891zm-.852 12.474H2.889V2.654h10.222z" role="presentation"/><path class="cls-1" d="M11.188 5.71h-3.4a.577.577 0 0 1 0-1.154h3.4a.577.577 0 0 1 0 1.154zm-5.535.175h-.842a.565.565 0 0 1-.552-.577v-.377a.565.565 0 0 1 .552-.577h.841a.565.565 0 0 1 .552.577v.377a.565.565 0 0 1-.551.577zm5.535 2.692h-3.4a.577.577 0 0 1 0-1.153h3.4a.577.577 0 0 1 0 1.153zm-5.535.188h-.842a.565.565 0 0 1-.552-.577v-.376a.565.565 0 0 1 .552-.577h.841a.565.565 0 0 1 .552.577v.377a.565.565 0 0 1-.551.576zm5.535 2.692h-3.4a.577.577 0 0 1 0-1.153h3.4a.577.577 0 0 1 0 1.153zm-5.535.188h-.842a.565.565 0 0 1-.552-.577v-.377a.565.565 0 0 1 .552-.577h.841a.565.565 0 0 1 .552.577v.377a.565.565 0 0 1-.551.577z" data-name="Your Icon" role="presentation"/></g></symbol>
<symbol id="magic-wand" class="symbol"><title id="title">magic-wand icon</title><path class="cls-1" d="M7.816 7.993a.465.465 0 0 0-.678 0l-5.615 5.878a.519.519 0 0 0 0 .71l.984 1.03a.464.464 0 0 0 .678 0L8.8 9.732a.519.519 0 0 0 0-.71zm2.41-2.523a.464.464 0 0 0-.678 0l-.971 1.016a.519.519 0 0 0 0 .71l.984 1.03a.464.464 0 0 0 .678 0l.971-1.016a.519.519 0 0 0 0-.71zM4.71 2.929a2.028 2.028 0 0 1 1.708 1.788.3.3 0 0 0 .581 0 2.028 2.028 0 0 1 1.708-1.788.316.316 0 0 0 0-.608A2.028 2.028 0 0 1 7 .532a.3.3 0 0 0-.581 0A2.028 2.028 0 0 1 4.71 2.321a.316.316 0 0 0 0 .608zm9.715-.129a1.2 1.2 0 0 1-.782-.818.281.281 0 0 0-.539 0 1.2 1.2 0 0 1-.782.818.3.3 0 0 0 0 .564 1.2 1.2 0 0 1 .782.818.281.281 0 0 0 .539 0 1.2 1.2 0 0 1 .782-.818.3.3 0 0 0 0-.564zm-.391 6.759a1.205 1.205 0 0 1-.782-.818.281.281 0 0 0-.539 0 1.205 1.205 0 0 1-.782.818.3.3 0 0 0 0 .564 1.205 1.205 0 0 1 .782.818.281.281 0 0 0 .539 0 1.205 1.205 0 0 1 .782-.818.3.3 0 0 0 .001-.56z" data-name="Layer 1" role="presentation"/></symbol>
<symbol id="overview" class="symbol"><title id="title">overview icon</title><path class="cls-1" d="M8 .631a7.875 7.875 0 0 0-7.86 7.86 7.629 7.629 0 0 0 4.068 6.785l.169.092h7.246l.169-.092a7.628 7.628 0 0 0 4.068-6.785A7.875 7.875 0 0 0 8 .631zM8 2.1a6.381 6.381 0 0 1 6.386 6.386 6.112 6.112 0 0 1-3.178 5.4H4.791a6.112 6.112 0 0 1-3.178-5.4A6.381 6.381 0 0 1 8 2.1zm0 1.479a4.867 4.867 0 0 0-2.38.629c.168.107.315.195.491.307A4.337 4.337 0 0 1 8 4.07a4.438 4.438 0 0 1 3.116 1.3l.031.031a4.373 4.373 0 0 1-.03 6.2.25.25 0 1 0 .353.353A4.913 4.913 0 0 0 8 3.578zm-4.421.491s3.147 5 3.638 5.5a1.354 1.354 0 0 0 1.857 0 1.308 1.308 0 0 0 0-1.857c-.491-.491-5.5-3.638-5.5-3.638zm.154 2.03a4.86 4.86 0 0 0-.645 2.395 4.931 4.931 0 0 0 1.443 3.47.25.25 0 1 0 .353-.353 4.438 4.438 0 0 1-1.3-3.116 4.364 4.364 0 0 1 .445-1.919c-.113-.177-.193-.318-.296-.477z" data-name="Layer 1" role="presentation"/></symbol>
<symbol id="payment-alt" class="symbol"><title id="title">payment-alt icon</title><g data-name="Layer 1"><path class="cls-1" d="M13.51 7.47V3.919a.76.76 0 0 0-.762-.758H2.236a.741.741 0 0 0-.74.758v6.2a.753.753 0 0 0 .74.772h7.807a3.2 3.2 0 0 0 .2.679H.813c-.017 0-.048-.01-.048-.027v-6.2c0-.017.022-.03.039-.03a.366.366 0 1 0 0-.731.768.768 0 0 0-.768.762v6.2a.775.775 0 0 0 .779.758h9.863A2.994 2.994 0 1 0 13.51 7.47zM2.236 3.892h10.513a.028.028 0 0 1 .03.027v1.227H2.228V3.919c0-.019-.008-.027.008-.027zm-.008 6.228V5.877h10.551v1.559a3 3 0 0 0-2.757 2.725H2.236c-.016-.001-.008-.024-.008-.041zM13 12.686a2.264 2.264 0 1 1 2.264-2.264A2.267 2.267 0 0 1 13 12.686z" role="presentation"/><path class="cls-1" d="M13.694 9.6l-.862.934-.375-.359a.366.366 0 0 0-.505.529l.644.616a.366.366 0 0 0 .253.1h.011a.365.365 0 0 0 .257-.118l1.114-1.208a.366.366 0 0 0-.537-.5zM6.459 7.5H3.22a.366.366 0 0 0 0 .731h3.239a.366.366 0 1 0 0-.731zM4.735 8.593H3.22a.366.366 0 0 0 0 .731h1.515a.366.366 0 0 0 0-.731z" role="presentation"/></g></symbol>
<symbol id="pdf-instruction" class="symbol"><title id="title">pdf-instruction icon</title><g data-name="Layer 1"><path class="cls-1" d="M5.747 10.283v.739h-.512V8.811h.78a1.286 1.286 0 0 1 .4.055.77.77 0 0 1 .276.152.6.6 0 0 1 .16.229.778.778 0 0 1 .052.285.837.837 0 0 1-.053.3.608.608 0 0 1-.162.237.765.765 0 0 1-.277.154 1.269 1.269 0 0 1-.4.055zm0-.387h.267a.325.325 0 0 0 .376-.363.4.4 0 0 0-.022-.133.28.28 0 0 0-.068-.112.311.311 0 0 0-.117-.069.517.517 0 0 0-.169-.019h-.267zm3.429.02a1.16 1.16 0 0 1-.083.442 1.035 1.035 0 0 1-.233.35 1.056 1.056 0 0 1-.362.231 1.279 1.279 0 0 1-.469.083H7.17V8.811h.859a1.27 1.27 0 0 1 .469.083 1.071 1.071 0 0 1 .362.231 1.028 1.028 0 0 1 .233.35 1.155 1.155 0 0 1 .083.441zm-.525 0a.963.963 0 0 0-.043-.3.632.632 0 0 0-.122-.216.53.53 0 0 0-.195-.141.662.662 0 0 0-.262-.049h-.343v1.421h.343a.662.662 0 0 0 .262-.049.53.53 0 0 0 .195-.141.632.632 0 0 0 .122-.224.968.968 0 0 0 .043-.301zm2.193-1.105v.394h-.907v.56h.755v.4h-.755v.86h-.516V8.811z" role="presentation"/><path class="cls-1" d="M13.3 15.569H2.687a.345.345 0 0 1-.345-.345V4.608a.345.345 0 0 1 .345-.345H6v.689H3.032v9.928h9.928V4.952H9.975v-.689H13.3a.345.345 0 0 1 .345.345v10.617a.345.345 0 0 1-.345.344z" role="presentation"/><path class="cls-1" d="M7.645.84h.689v5.13h-.689z" role="presentation"/><path class="cls-1" d="M9.731 3.02L7.989 1.279 6.248 3.02l-.487-.487L7.746.548a.344.344 0 0 1 .487 0l1.985 1.985z" role="presentation"/></g></symbol>
<symbol id="people-outline" class="symbol"><title id="title">people-outline icon</title><path class="cls-1" d="M15.8 9.649a3.6 3.6 0 0 0-2.024-1.618c.019-.05.036-.1.053-.155a2.292 2.292 0 0 0 .463-1.335v-.112a2.251 2.251 0 0 0-.08-.6c.014-.115.027-.236.035-.347a2.994 2.994 0 0 0-.768-2.2 2.941 2.941 0 0 0-2.243-.928 2.93 2.93 0 0 0-2.162.853 3.37 3.37 0 0 0-.738-1.3A3.409 3.409 0 0 0 5.734.84a3.406 3.406 0 0 0-2.6 1.068 3.493 3.493 0 0 0-.887 2.532c.014.178.036.372.059.546a2.438 2.438 0 0 0-.115.758v.105a2.493 2.493 0 0 0 .569 1.568 3.345 3.345 0 0 0 .186.512c-.222.114-.56.266-1.022.459A2.671 2.671 0 0 0 0 10.773v2.367a2.021 2.021 0 0 0 2.019 2.02h8.032a2.009 2.009 0 0 0 1.593-.793h2.339A2.016 2.016 0 0 0 16 12.269c0-.123.009-.407.021-.659a3.306 3.306 0 0 0-.221-1.961zM1.633 13.141v-2.368c0-.561.647-.795 1.008-.946 1.183-.495 2.148-.912 2.148-1.8 0-.536-.361-.361-.519-1.343-.066-.407-.384-.007-.446-.936 0-.371.173-.463.173-.463s-.088-.548-.123-.97A1.774 1.774 0 0 1 5.78 2.427a1.774 1.774 0 0 1 1.907 1.884c-.035.422-.123.97-.123.97s.174.092.174.463c-.061.93-.38.529-.445.937-.159.982-.52.807-.52 1.343a1.853 1.853 0 0 0 .1.6H6.86a1.275 1.275 0 0 0 .059.116A1.272 1.272 0 0 0 7 8.919a1.392 1.392 0 0 0 .142.175 1.577 1.577 0 0 0 .134.138 2.367 2.367 0 0 0 .234.169c.04.027.068.055.113.082v-.005h.005a5.391 5.391 0 0 0 .705.353c1.186.5 2.195.979 2.195 1.491v1.822a.432.432 0 0 1-.432.432H2.065a.432.432 0 0 1-.432-.435zm12.828-.809a.431.431 0 0 1-.432.448h-2.414v-1.461c0-.974-.858-1.575-1.853-2.052.172-.222.786-.551.778-1.13-.006-.4-.271-.271-.39-1.007-.049-.3-.289 0-.334-.7 0-.278.129-.347.129-.347s-.066-.41-.092-.727a1.331 1.331 0 0 1 1.43-1.413 1.33 1.33 0 0 1 1.43 1.413c-.025.316-.092.727-.092.727s.131.069.131.347c-.046.7-.285.4-.334.7-.12.736-.39.6-.39 1.007 0 .67.283.983 1.171 1.354s1.071.612 1.277.962a17.2 17.2 0 0 1-.016 1.879z" data-name="Layer 1" role="presentation"/></symbol>
<symbol id="permissions" class="symbol"><title id="title">permissions icon</title><g data-name="Layer 1"><path class="cls-1" d="M12.116 6.069H7.142V3.693a1.27 1.27 0 1 1 2.54 0v.528a.7.7 0 1 0 1.4 0v-.528a2.67 2.67 0 1 0-5.341 0v2.376H4.707a1.948 1.948 0 0 0-1.945 1.945v5.86a1.948 1.948 0 0 0 1.945 1.946h7.409a1.948 1.948 0 0 0 1.945-1.945V8.014a1.948 1.948 0 0 0-1.945-1.945zm.545 7.806a.545.545 0 0 1-.545.545H4.707a.545.545 0 0 1-.545-.545V8.014a.545.545 0 0 1 .545-.545h7.409a.545.545 0 0 1 .545.545z" role="presentation"/><path class="cls-1" d="M9.484 10.479a1.072 1.072 0 1 0-1.562.939l-.327.793a.48.48 0 0 0 .444.663h.746a.48.48 0 0 0 .444-.663l-.329-.793a1.062 1.062 0 0 0 .584-.939z" role="presentation"/></g></symbol>
<symbol id="person-outline" class="symbol"><title id="title">person-outline icon</title><path class="cls-1" d="M11.65 15.837h-7a2.674 2.674 0 0 1-2.625-2.715v-.905a.908.908 0 0 1 .489-.812l2.744-1.4-.5-.987a.93.93 0 0 1-.1-.423V4.978a3.566 3.566 0 0 1 3.5-3.62 3.566 3.566 0 0 1 3.5 3.62V8.6a.93.93 0 0 1-.1.423l-.505.987 2.744 1.4a.908.908 0 0 1 .488.812v.905a2.674 2.674 0 0 1-2.635 2.71zM3.773 12.78v.342a.892.892 0 0 0 .875.905h7a.892.892 0 0 0 .875-.905v-.342l-3.062-1.562a.9.9 0 0 1-.446-.533.931.931 0 0 1 .059-.7L9.9 8.371V4.978a1.751 1.751 0 1 0-3.5 0v3.393l.825 1.612a.932.932 0 0 1 .059.7.9.9 0 0 1-.446.533z" data-name="Layer 1" role="presentation"/></symbol>
<symbol id="phone" class="symbol"><title id="title">phone icon</title><path class="cls-1" d="M2.242 5.838a26.787 26.787 0 0 0 7.089 8.615l1.081.86a1.756 1.756 0 0 0 2.216-.023l1.892-1.57.308-.255A1.305 1.305 0 0 0 15 11.633l-1.45-1.765a1.292 1.292 0 0 0-1.825-.174l-1.83 1.519a26.79 26.79 0 0 1-4.378-5.32l1.83-1.519a1.305 1.305 0 0 0 .173-1.833L6.068.777A1.292 1.292 0 0 0 4.244.6l-.308.258-1.892 1.57A1.774 1.774 0 0 0 1.6 4.61z" data-name="Layer 1" role="presentation"/></symbol>
<symbol id="print" class="symbol"><title id="title">print icon</title><path class="cls-1" d="M14.541 11.827l-.015-4.965a1.245 1.245 0 0 0-1.259-1.226h-1.136V4.443L9.114 2.032H3.831v3.6H2.684a1.244 1.244 0 0 0-1.259 1.237l.015 4.958h2.391V13.7h8.3v-1.873zM4.706 2.872h3.842v2.04h2.77v2.246H4.706V2.872zm6.612 9.951H4.706v-2.19h6.612v2.19z" data-name="Layer 1" role="presentation"/></symbol>
<symbol id="put-back-arrow" class="symbol"><title id="title">put-back-arrow icon</title><path class="cls-1" d="M.3 13.468a5.966 5.966 0 0 1 .072-.93l.08-.533.14-.562A9.381 9.381 0 0 1 1 10.249a9.732 9.732 0 0 1 .64-1.206 10.669 10.669 0 0 1 .839-1.155 9.621 9.621 0 0 1 1.033-1.013 10.956 10.956 0 0 1 1.136-.846A10.158 10.158 0 0 1 5.831 5.4l.576-.244.557-.179c.185-.053.341-.115.53-.153l.528-.107.469-.086.109-.01V2.327a.721.721 0 0 1 1.183-.549l5.275 4.368a.712.712 0 0 1 0 1.1l-5.279 4.367a.721.721 0 0 1-1.179-.549V8.852l-.1.007-.24.009a2.665 2.665 0 0 0-.308.044l-.352.054-.365.1c-.259.051-.51.169-.789.255a7.392 7.392 0 0 0-.8.406 9.241 9.241 0 0 0-.79.521 7.517 7.517 0 0 0-.707.649 8.666 8.666 0 0 0-.621.717 8.81 8.81 0 0 0-.479.762l-.205.372-.154.367a4.9 4.9 0 0 0-.243.664l-.093.286-.056.248-.11.48-.028.122a.909.909 0 0 1-1.79-.122l-.054-.611-.025-.326c.009-.122.009-.25.009-.388z" data-name="Layer 1" role="presentation"/></symbol>
<symbol id="question-outline" class="symbol"><title id="title">question-outline icon</title><g data-name="Layer 1"><path class="cls-1" d="M8 1.146A6.854 6.854 0 1 1 1.146 8 6.861 6.861 0 0 1 8 1.146M8 0a8 8 0 1 0 8 8 8 8 0 0 0-8-8z" role="presentation"/><path class="cls-1" d="M7.977 13.433a1.169 1.169 0 0 1-1.122-1.085.192.192 0 0 1 0-.055.178.178 0 0 1 0-.058 1.126 1.126 0 0 1 2.249.058 1.158 1.158 0 0 1-1.127 1.14zm2.244-6.125c-.493.451-2.275 1.291-1.4 2.134a.184.184 0 0 1-.08.306l-1.2.405a.182.182 0 0 1-.178-.047 1.912 1.912 0 0 1-.523-1.244.176.176 0 0 1 0-.046.2.2 0 0 1 0-.049c.068-1.1.925-1.512 1.686-2.148.507-.422.756-1.281-.14-1.485a2.16 2.16 0 0 0-2.225.831.183.183 0 0 1-.259 0q-.457-.507-.916-1.013a.186.186 0 0 1 0-.259A3.984 3.984 0 0 1 8.437 3.32a2.711 2.711 0 0 1 2.374 1.453 2.283 2.283 0 0 1-.59 2.535z" role="presentation"/></g></symbol>
<symbol id="refund" class="symbol"><title id="title">refund icon</title><g data-name="Layer 1"><path class="cls-1" d="M8.53 9.983a1.221 1.221 0 0 1-.753.2 2.6 2.6 0 0 1-1.013-.209.642.642 0 0 0-.519.011.651.651 0 0 0 .04 1.2 3.958 3.958 0 0 0 1.24.251v.263a.686.686 0 1 0 1.371 0v-.435a2.3 2.3 0 0 0 .7-.378A1.829 1.829 0 0 0 10.3 9.4a1.758 1.758 0 0 0-.433-1.208 3.2 3.2 0 0 0-1.344-.8 2.643 2.643 0 0 1-.882-.434.527.527 0 0 1-.169-.4.538.538 0 0 1 .2-.438.918.918 0 0 1 .609-.183 2.3 2.3 0 0 1 .815.151.655.655 0 0 0 .504-.021.629.629 0 0 0 .33-.368.64.64 0 0 0-.372-.8A3.165 3.165 0 0 0 8.9 4.73v-.481a.686.686 0 0 0-1.371 0v.536a2.213 2.213 0 0 0-.917.474 1.843 1.843 0 0 0-.66 1.435c0 .856.607 1.5 1.8 1.908a2.319 2.319 0 0 1 .817.412.631.631 0 0 1 .194.483.571.571 0 0 1-.233.486z" role="presentation"/><path class="cls-1" d="M15.721 8.007a7.68 7.68 0 1 0-11.16 6.846l-.2.5a.349.349 0 0 0 .369.479l2.331-.31a.349.349 0 0 0 .23-.559L5.852 13.1a.349.349 0 0 0-.6.08l-.167.4a6.306 6.306 0 1 1 5.561.175.686.686 0 1 0 .568 1.245 7.7 7.7 0 0 0 4.507-6.993z" role="presentation"/></g></symbol>
<symbol id="registrations-logo" class="symbol"><title id="title">registrations-logo icon</title><g data-name="Layer 1"><path d="M3.574 7.417a.009.009 0 0 1-.01-.01v-.619a.009.009 0 0 1 .01-.01h.089a.009.009 0 0 1 .01.01v.035a.14.14 0 0 1 .127-.055.156.156 0 0 1 .161.112.533.533 0 0 1 0 .262.156.156 0 0 1-.161.112.14.14 0 0 1-.127-.054v.208a.009.009 0 0 1-.01.01zm.281-.317a.4.4 0 0 0 0-.174.092.092 0 0 0-.173 0 .4.4 0 0 0 0 .174.092.092 0 0 0 .173 0zm.345.149c-.091 0-.127-.043-.127-.133V6.6a.009.009 0 0 1 .01-.01h.089a.009.009 0 0 1 .01.01v.51c0 .032.013.042.041.042h.021a.009.009 0 0 1 .01.01v.077a.009.009 0 0 1-.01.01zm.408-.006a.009.009 0 0 1-.01-.01V7.2a.152.152 0 0 1-.131.054.139.139 0 0 1-.156-.142c0-.1.071-.147.186-.147h.094l.009-.006v-.022c0-.053-.025-.077-.1-.077a.163.163 0 0 0-.106.032.009.009 0 0 1-.013 0l-.036-.064a.009.009 0 0 1 0-.012.271.271 0 0 1 .155-.048c.142 0 .194.048.194.162v.3a.009.009 0 0 1-.01.01zM4.6 7.087v-.036a.005.005 0 0 0-.006-.006h-.08c-.069 0-.1.019-.1.063s.028.058.08.058.106-.026.106-.079zm.51.156a.009.009 0 0 1-.01-.01v-.268c0-.06-.03-.1-.088-.1a.089.089 0 0 0-.089.1v.268a.009.009 0 0 1-.01.01h-.087a.009.009 0 0 1-.01-.01v-.445a.009.009 0 0 1 .01-.01h.089a.009.009 0 0 1 .01.01v.034a.143.143 0 0 1 .122-.054.159.159 0 0 1 .161.173v.293a.009.009 0 0 1-.01.01zm.509 0a.009.009 0 0 1-.01-.01v-.268c0-.06-.03-.1-.088-.1a.089.089 0 0 0-.089.1v.268a.009.009 0 0 1-.01.01h-.088a.009.009 0 0 1-.01-.01v-.445a.009.009 0 0 1 .01-.01h.089a.009.009 0 0 1 .01.01v.034a.143.143 0 0 1 .122-.054.159.159 0 0 1 .161.173v.293a.009.009 0 0 1-.01.01zm.224-.552a.009.009 0 0 1-.01-.01V6.6a.009.009 0 0 1 .01-.01h.089a.009.009 0 0 1 .01.01v.084a.009.009 0 0 1-.01.01zm0 .552a.009.009 0 0 1-.01-.01v-.445a.009.009 0 0 1 .01-.01h.089a.009.009 0 0 1 .01.01v.445a.009.009 0 0 1-.01.01zm.514 0a.009.009 0 0 1-.01-.01v-.268c0-.06-.03-.1-.088-.1a.089.089 0 0 0-.089.1v.268a.009.009 0 0 1-.01.01h-.088a.009.009 0 0 1-.01-.01v-.445a.009.009 0 0 1 .01-.01h.089a.009.009 0 0 1 .01.01v.034a.143.143 0 0 1 .122-.054.159.159 0 0 1 .161.173v.293a.009.009 0 0 1-.01.01zm.205.115a.009.009 0 0 1 0-.013l.057-.057a.009.009 0 0 1 .014 0 .143.143 0 0 0 .1.043c.071 0 .1-.039.1-.111v-.043a.134.134 0 0 1-.121.054.155.155 0 0 1-.158-.113A.353.353 0 0 1 6.545 7a.348.348 0 0 1 .015-.118.155.155 0 0 1 .158-.114.132.132 0 0 1 .121.055v-.035a.009.009 0 0 1 .01-.01h.089a.009.009 0 0 1 .01.01v.426a.2.2 0 0 1-.217.213.23.23 0 0 1-.169-.069zm.267-.282A.217.217 0 0 0 6.84 7a.224.224 0 0 0-.011-.076.087.087 0 0 0-.165 0 .224.224 0 0 0-.01.076.217.217 0 0 0 .011.076.087.087 0 0 0 .165 0zm.437.05a.462.462 0 0 1 0-.229.187.187 0 0 1 .192-.128.2.2 0 0 1 .161.072.009.009 0 0 1 0 .014l-.061.053a.009.009 0 0 1-.013 0 .105.105 0 0 0-.086-.04.085.085 0 0 0-.087.061.272.272 0 0 0-.01.086.279.279 0 0 0 .01.087.085.085 0 0 0 .087.06.105.105 0 0 0 .086-.04.009.009 0 0 1 .013 0l.061.053v.013a.2.2 0 0 1-.161.071.187.187 0 0 1-.192-.133zm.441-.001a.361.361 0 0 1-.016-.114.37.37 0 0 1 .015-.111.206.206 0 0 1 .381 0 .417.417 0 0 1 .015.14.009.009 0 0 1-.011.01H7.8a.005.005 0 0 0-.006.006.108.108 0 0 0 .111.106.14.14 0 0 0 .109-.044.01.01 0 0 1 .014 0l.057.05a.009.009 0 0 1 0 .014.245.245 0 0 1-.191.079.188.188 0 0 1-.187-.136zm.281-.205a.1.1 0 0 0-.182 0 .118.118 0 0 0-.006.04l.006.006h.182l.006-.006a.118.118 0 0 0-.007-.041zm.504.323a.009.009 0 0 1-.01-.01v-.268c0-.06-.03-.1-.088-.1a.089.089 0 0 0-.089.1v.268a.009.009 0 0 1-.01.01h-.087a.009.009 0 0 1-.01-.01v-.445a.009.009 0 0 1 .01-.01H8.3a.009.009 0 0 1 .01.01v.034a.143.143 0 0 1 .122-.054.159.159 0 0 1 .161.173v.293a.009.009 0 0 1-.01.01zm.351.006c-.093 0-.129-.045-.129-.136v-.245l-.006-.006h-.031a.009.009 0 0 1-.01-.01v-.064a.009.009 0 0 1 .01-.01h.031l.006-.006v-.127a.009.009 0 0 1 .01-.01h.089a.009.009 0 0 1 .01.01v.127l.006.006h.062a.009.009 0 0 1 .01.01v.065a.009.009 0 0 1-.01.01h-.064l-.006.006v.241c0 .033.013.043.043.043h.024a.009.009 0 0 1 .01.01v.077a.009.009 0 0 1-.01.01zm.145-.124a.36.36 0 0 1-.016-.114.371.371 0 0 1 .015-.111.206.206 0 0 1 .381 0 .418.418 0 0 1 .015.14.009.009 0 0 1-.011.01h-.285a.005.005 0 0 0-.006.006.108.108 0 0 0 .111.106.14.14 0 0 0 .108-.049.01.01 0 0 1 .014 0l.057.05a.009.009 0 0 1 0 .014.245.245 0 0 1-.191.079.188.188 0 0 1-.192-.131zm.281-.205a.1.1 0 0 0-.182 0 .118.118 0 0 0-.006.04l.006.006h.182l.006-.006a.118.118 0 0 0-.006-.041zm.22.323a.009.009 0 0 1-.01-.01v-.445a.009.009 0 0 1 .01-.01h.089a.009.009 0 0 1 .01.01v.04a.133.133 0 0 1 .12-.06.14.14 0 0 1 .1.039s.006.009 0 .014l-.051.065a.009.009 0 0 1-.013 0 .125.125 0 0 0-.068-.022c-.061 0-.088.043-.088.118v.252a.009.009 0 0 1-.01.01zM4.44 9.326l-.316-.471h-.255v.471h-.324V7.853h.673c.347 0 .556.183.556.486a.457.457 0 0 1-.316.457l.36.526zm.006-.97c0-.139-.1-.21-.255-.21h-.322v.423H4.2c.158 0 .248-.084.248-.208zm1.467.518h-.785a.262.262 0 0 0 .276.221.369.369 0 0 0 .274-.116l.183.162a.6.6 0 0 1-1.05-.373.562.562 0 0 1 .558-.587.549.549 0 0 1 .549.612c-.001.033-.003.051-.005.081zm-.545-.44a.251.251 0 0 0-.244.24h.482a.242.242 0 0 0-.238-.24zm1.174 1.233a1.071 1.071 0 0 1-.5-.118l.109-.24a.736.736 0 0 0 .381.1c.219 0 .322-.105.322-.307v-.051a.441.441 0 0 1-.368.183.5.5 0 0 1-.5-.526.5.5 0 0 1 .5-.526.457.457 0 0 1 .364.168V8.2h.32v.873c.001.427-.209.594-.628.594zm.313-.967a.275.275 0 0 0-.549 0 .258.258 0 0 0 .274.261.261.261 0 0 0 .276-.261zm.499-.626V7.79h.337v.284zm.008 1.252V8.2h.32v1.126zm.903.021a.79.79 0 0 1-.484-.171l.137-.21a.638.638 0 0 0 .356.135c.093 0 .135-.034.135-.084 0-.069-.109-.093-.234-.13-.158-.046-.337-.12-.337-.339a.369.369 0 0 1 .412-.358.78.78 0 0 1 .421.13l-.122.221a.668.668 0 0 0-.305-.105c-.078 0-.118.034-.118.078 0 .063.107.093.229.135.158.053.341.128.341.335.004.25-.187.363-.431.363zm.928-.002c-.2 0-.328-.078-.328-.339v-.534H8.73V8.2h.135v-.29h.32v.29h.265v.274h-.265v.482c0 .074.032.11.1.11a.326.326 0 0 0 .158-.04v.254a.472.472 0 0 1-.25.065zm1.063-.833c-.213 0-.343.128-.343.4v.417h-.32V8.2h.32v.227a.349.349 0 0 1 .36-.248v.335zm.732.814V9.2a.434.434 0 0 1-.341.143A.349.349 0 0 1 10.26 9c0-.246.187-.36.455-.36a.8.8 0 0 1 .276.046v-.02c0-.133-.082-.206-.242-.206a.832.832 0 0 0-.311.061l-.08-.244a1 1 0 0 1 .438-.091.439.439 0 0 1 .5.486v.654zm.006-.455a.5.5 0 0 0-.2-.042c-.137 0-.221.055-.221.156 0 .086.072.137.175.137.149 0 .25-.082.25-.2zm.844.474c-.2 0-.328-.078-.328-.339v-.534h-.135V8.2h.135v-.29h.32v.29h.27v.274h-.27v.482c0 .074.032.11.1.11a.326.326 0 0 0 .158-.04v.254a.472.472 0 0 1-.25.065zm.396-1.271V7.79h.337v.284zm.008 1.252V8.2h.32v1.126zm1.01.026a.586.586 0 0 1-.608-.583.611.611 0 0 1 1.221 0 .592.592 0 0 1-.613.583zm.3-.587a.3.3 0 0 0-.3-.311.289.289 0 0 0-.293.307.3.3 0 0 0 .3.311.289.289 0 0 0 .293-.307zm1.108.561V8.7c0-.151-.072-.229-.194-.229s-.2.078-.2.229v.629h-.32V8.2h.32v.16a.4.4 0 0 1 .33-.181.37.37 0 0 1 .383.419v.73zm.89.021a.79.79 0 0 1-.484-.171l.137-.21a.638.638 0 0 0 .356.135c.093 0 .135-.034.135-.084 0-.069-.109-.093-.234-.13-.158-.046-.337-.12-.337-.339a.369.369 0 0 1 .412-.358.78.78 0 0 1 .421.13l-.122.221a.668.668 0 0 0-.305-.105c-.078 0-.118.034-.118.078 0 .063.107.093.229.135.158.053.341.128.341.335.001.25-.187.363-.431.363z" role="presentation"/><path class="cls-1" d="M2.426 6.545H.55A.55.55 0 0 0 0 7.1v1.783a.55.55 0 0 0 .55.55h1.876a.55.55 0 0 0 .55-.55V7.1a.55.55 0 0 0-.55-.555zM2.7 8.883a.275.275 0 0 1-.275.275H.55a.275.275 0 0 1-.275-.275V7.1a.275.275 0 0 1 .275-.28h.368v.136a.061.061 0 0 0 .061.061h1.016a.061.061 0 0 0 .061-.061V6.82h.369a.275.275 0 0 1 .275.28z" role="presentation"/><path class="cls-1" d="M1.461 7.587l-.643.7a.253.253 0 0 0-.05.107l-.045.332.326-.072a.248.248 0 0 0 .1-.059l.641-.705zm.623-.016l-.332-.3-.221.242.33.306zM1.335 8.73h.917v-.17h-.781z" role="presentation"/></g></symbol>
<symbol id="reports" class="symbol"><title id="title">reports icon</title><g data-name="Layer 1"><path class="cls-1" d="M7.686 1.145a7.144 7.144 0 1 0 7.557 7.665.454.454 0 0 0-.454-.481H8.49a.322.322 0 0 1-.322-.322V1.6a.454.454 0 0 0-.482-.455z" role="presentation"/><path class="cls-1" d="M9.633 1.616v4.8a.286.286 0 0 0 .286.286h4.974a.432.432 0 0 0 .42-.541 7.014 7.014 0 0 0-5.146-4.969.434.434 0 0 0-.534.424z" role="presentation"/></g></symbol>
<symbol id="restricted" class="symbol"><title id="title">restricted icon</title><path class="cls-1" d="M8 .028a8 8 0 1 0 8 8 8 8 0 0 0-8-8zm0 2a5.972 5.972 0 0 1 4.1 1.632l-9.39 7.193A6 6 0 0 1 8 2.028zm0 12a5.97 5.97 0 0 1-4.062-1.6l9.375-7.18A5.992 5.992 0 0 1 8 14.028z" data-name="Layer 1" role="presentation"/></symbol>
<symbol id="scholarship" class="symbol"><title id="title">scholarship icon</title><g data-name="Layer 1"><path class="cls-1" d="M7.944 11.178A5.564 5.564 0 1 1 13.5 5.6a5.556 5.556 0 0 1-5.556 5.578zm0-9.58a4.017 4.017 0 1 0 4.007 4.026A4.013 4.013 0 0 0 7.944 1.6z" role="presentation"/><path class="cls-1" d="M6.415 15.949l-1.826-1.882-2.61-.019 2.33-5.424 1.417.615-1.417 3.281.932.019.653.671 1.342-3.132 1.416.615-2.237 5.256z" role="presentation"/><path class="cls-1" d="M9.472 15.949l-2.236-5.256 1.416-.615 1.342 3.132.652-.671.932-.019-1.416-3.299 1.416-.597 2.33 5.424-2.609.019-1.827 1.882zM7.944 3.208a2.406 2.406 0 1 0 2.4 2.411 2.4 2.4 0 0 0-2.4-2.411z" role="presentation"/></g></symbol>
<symbol id="simple-arrow" class="symbol"><title id="title">simple-arrow icon</title><path class="cls-1" d="M9.178 1.378L7.456 3.136l3.703 3.779H.179V9.4h10.98l-3.703 3.779 1.722 1.758 6.643-6.78-6.643-6.779z" data-name="Layer 1" role="presentation"/></symbol>
<symbol id="simple-person-outline" class="symbol"><title id="title">simple-person-outline icon</title><path class="cls-1" d="M12.178 9.274L9.866 8.231a3.8 3.8 0 1 0-3.732 0L3.822 9.274a1.891 1.891 0 0 0-1.114 1.72V14.1a.731.731 0 0 0 .733.729h9.117a.731.731 0 0 0 .733-.729v-3.106a1.891 1.891 0 0 0-1.113-1.72zM8 2.619a2.323 2.323 0 1 1-2.333 2.322A2.331 2.331 0 0 1 8 2.619zm3.826 10.754H4.174v-2.379a.43.43 0 0 1 .253-.391L8 8.991l3.573 1.609a.43.43 0 0 1 .253.391z" data-name="Layer 1" role="presentation"/></symbol>
<symbol id="sort" class="symbol"><title id="title">sort icon</title><path class="cls-1" d="M5.526 10.875h-.877V1.142h-2.4v9.732h-.878a.9.9 0 0 0-.661 1.475l2.077 2.479a.858.858 0 0 0 1.323 0l2.077-2.479a.9.9 0 0 0-.661-1.474zm9.764-6.942l-2.077-2.479a.858.858 0 0 0-1.323 0L9.812 3.933a.9.9 0 0 0 .662 1.474h.878v9.732h2.4V5.407h.878a.9.9 0 0 0 .66-1.474z" data-name="Layer 1" role="presentation"/></symbol>
<symbol id="stripe" class="symbol"><title id="title">stripe icon</title><path class="cls-1" d="M1.011 9.891a3.145 3.145 0 0 1-.981-.152v-.968a5.96 5.96 0 0 0 .835.146c.285 0 .464-.08.464-.385 0-.172-.139-.312-.325-.458l-.317-.258A1.536 1.536 0 0 1 0 6.516a1.344 1.344 0 0 1 1.512-1.4 2.9 2.9 0 0 1 .962.153v.941a3.594 3.594 0 0 0-.829-.139c-.245 0-.4.119-.4.371s.173.358.385.517l.312.232a1.464 1.464 0 0 1 .643 1.3c.004 1.221-.825 1.4-1.574 1.4zm3.204 0a.891.891 0 0 1-1.027-1.014V7.113h-.464v-.8h.464l.159-.8 1.1-.265v1.063h.663l-.166.8h-.5v1.54c0 .239.073.285.212.285.093 0 .451-.053.451-.053v.9a5.079 5.079 0 0 1-.892.108zM7.054 7.3a.824.824 0 0 0-.417.119v2.406H5.376V6.311h1l.186.338a.581.581 0 0 1 .563-.4.745.745 0 0 1 .391.073v1.043a2.017 2.017 0 0 0-.462-.065zm.764 2.525V6.311h1.26v3.514zm.63-3.945a.63.63 0 1 1 .623-.63.624.624 0 0 1-.623.63zm2.865 4.011a1.949 1.949 0 0 1-.444-.073v1.267h-1.26V6.311h1.021l.185.219a1.128 1.128 0 0 1 .749-.285c.517 0 1.127.146 1.127 1.8.001 1.82-.914 1.846-1.378 1.846zm-.146-2.719a.838.838 0 0 0-.3.106v1.7a.964.964 0 0 0 .212.033c.219 0 .351-.186.351-.962s-.057-.876-.263-.876zm3.111 1.314c0 .378.186.451.5.451A6.561 6.561 0 0 0 15.8 8.8v.915a3.5 3.5 0 0 1-1.028.179c-.789 0-1.75-.126-1.75-1.81 0-1.485.756-1.837 1.552-1.837.815 0 1.405.418 1.405 1.823v.418zm.3-1.492c-.319 0-.285.391-.3.809h.531c0-.411.02-.809-.232-.809z" data-name="Layer 1" role="presentation"/></symbol>
<symbol id="twitter-outline" class="symbol"><title id="title">twitter-outline icon</title><path class="cls-1" d="M15.535 2.824a1.178 1.178 0 0 0-.437-1.09 1.257 1.257 0 0 0-1.365-.107 4.417 4.417 0 0 1-.847.366 4.12 4.12 0 0 0-2.318-.717A3.949 3.949 0 0 0 6.675 4.32a6.741 6.741 0 0 1-3.566-2.14 1.2 1.2 0 0 0-1.02-.42 1.218 1.218 0 0 0-.942.571A3.687 3.687 0 0 0 .6 4.265a3.645 3.645 0 0 0 .192 1.176 1.212 1.212 0 0 0-.216.711 3.713 3.713 0 0 0 .975 2.5 1.184 1.184 0 0 0 .055.49 3.765 3.765 0 0 0 .8 1.353 4.746 4.746 0 0 1-1.023 0 1.217 1.217 0 0 0-1.283.783 1.187 1.187 0 0 0 .5 1.409 9.353 9.353 0 0 0 4.87 1.357 8.809 8.809 0 0 0 9.065-8.41 6.588 6.588 0 0 0 1.129-1.219 1.159 1.159 0 0 0 .247-.719 1.181 1.181 0 0 0-.376-.872zm-2.205 2.23c.005.112.008.226.008.339a7.6 7.6 0 0 1-7.858 7.46 8.123 8.123 0 0 1-4.233-1.179 5.66 5.66 0 0 0 .658.037 5.729 5.729 0 0 0 3.431-1.123 2.747 2.747 0 0 1-2.58-1.82A2.9 2.9 0 0 0 4 8.723a2.661 2.661 0 0 1-2.213-2.571v-.033a2.864 2.864 0 0 0 1.252.328A2.589 2.589 0 0 1 1.81 4.265a2.5 2.5 0 0 1 .374-1.317 7.994 7.994 0 0 0 5.692 2.739 2.5 2.5 0 0 1-.072-.6 2.7 2.7 0 0 1 2.763-2.622 2.827 2.827 0 0 1 2.016.829 5.736 5.736 0 0 0 1.753-.636 2.66 2.66 0 0 1-1.214 1.45 5.763 5.763 0 0 0 1.586-.408 5.485 5.485 0 0 1-1.378 1.354z" data-name="Layer 1" role="presentation"/></symbol>
<symbol id="undo" class="symbol"><title id="title">undo icon</title><path class="cls-1" d="M15.5 12.857a5.966 5.966 0 0 0-.072-.93l-.08-.533-.14-.562a9.381 9.381 0 0 0-.408-1.194 9.732 9.732 0 0 0-.64-1.206 10.669 10.669 0 0 0-.839-1.155 9.621 9.621 0 0 0-1.029-1.014 10.956 10.956 0 0 0-1.136-.846 10.158 10.158 0 0 0-1.183-.626L9.4 4.547l-.557-.179c-.185-.053-.341-.115-.53-.153l-.528-.107-.469-.086-.105-.013V1.716a.721.721 0 0 0-1.183-.549L.75 5.535a.712.712 0 0 0 0 1.1L6.025 11a.721.721 0 0 0 1.183-.549V8.24l.093.008.24.009a2.665 2.665 0 0 1 .308.044l.349.054.365.1c.259.051.51.169.789.255a7.392 7.392 0 0 1 .8.406 9.241 9.241 0 0 1 .79.521 7.517 7.517 0 0 1 .707.649 8.666 8.666 0 0 1 .621.717 8.81 8.81 0 0 1 .479.762l.205.372.154.367a4.9 4.9 0 0 1 .243.664l.093.286.056.248.11.48.028.122a.909.909 0 0 0 1.79-.122l.054-.611.025-.326c-.001-.123-.007-.251-.007-.388z" data-name="Layer 1" role="presentation"/></symbol>
<symbol id="view" class="symbol"><title id="title">view icon</title><g data-name="Layer 1"><path class="cls-1" d="M15.993 7.861c-.505-.9-3.5-5.569-7.984-5.569S.563 6.963.067 7.862a.285.285 0 0 0 0 .276c.5.9 3.453 5.571 7.943 5.571s7.478-4.667 7.984-5.569a.285.285 0 0 0-.001-.279zM8.07 12.036A4.04 4.04 0 1 1 12.11 8a4.04 4.04 0 0 1-4.04 4.036z" role="presentation"/><path class="cls-1" d="M8.236 5.986c0 .051.007.1.007.155a1.834 1.834 0 0 1-2.189 1.8v.056a2.018 2.018 0 1 0 2.182-2.011z" role="presentation"/></g></symbol>
    </svg>