<svg xmlns="http://www.w3.org/2000/svg" xmlns:xlink="http://www.w3.org/1999/xlink">
    
<symbol id="add-circle" class="symbol" viewBox="0 0 16 16">
  <defs><style>.cls-1{fill:#010101;}</style></defs><title>add-circle</title><g id="Layer_1" data-name="Layer 1"><path class="cls-1" d="M8.687,4.355H7.672V7.493H4.534V8.507H7.672v3.138H8.687V8.507h3.138V7.493H8.687ZM8.179.284A7.716,7.716,0,1,0,15.9,8,7.725,7.725,0,0,0,8.179.284Zm0,14.417a6.7,6.7,0,1,1,6.7-6.7A6.709,6.709,0,0,1,8.179,14.7Z"/></g>
</symbol>

<symbol id="add-ons-outline" class="symbol" viewBox="0 0 16 16">
  <defs><style>.cls-1{fill:#231f20;fill-rule:evenodd;}</style></defs><title>add-ons-outline</title><g id="Layer_1" data-name="Layer 1"><path class="cls-1" d="M14.935,3.515h-.666v-1a.981.981,0,0,0-.979-.979H10.421a.981.981,0,0,0-.979.979v1H6.776v-1A.981.981,0,0,0,5.8,1.532H2.929a.981.981,0,0,0-.979.979v1H1.1A1.029,1.029,0,0,0,.071,4.542v9.518A1.029,1.029,0,0,0,1.1,15.088H14.935a1.029,1.029,0,0,0,1.028-1.028V4.542A1.029,1.029,0,0,0,14.935,3.515Zm-.372,10.173H1.472V4.915H3.35V2.932H5.376V4.915h5.466V2.932h2.026V4.915h1.694Z"/><path class="cls-1" d="M10.259,8.565H8.89V7.2a.1.1,0,0,0-.1-.1H7.266a.1.1,0,0,0-.1.1V8.565H5.8a.1.1,0,0,0-.1.1v1.522a.1.1,0,0,0,.1.1H7.164V11.66a.1.1,0,0,0,.1.1H8.788a.1.1,0,0,0,.1-.1V10.291h1.369a.1.1,0,0,0,.1-.1V8.667A.1.1,0,0,0,10.259,8.565Z"/></g>
</symbol>

<symbol id="add-ons" class="symbol" viewBox="0 0 16 16">
  <defs><style>.cls-1{fill:#231f20;fill-rule:evenodd;}</style></defs><title>add-ons</title><g id="Layer_1" data-name="Layer 1"><path class="cls-1" d="M15.325,4.27H13.138V2.243a.407.407,0,0,0-.407-.407H9.888a.407.407,0,0,0-.407.407V4.27H6.659V2.243a.407.407,0,0,0-.407-.407H3.409A.407.407,0,0,0,3,2.243V4.27H.675a.592.592,0,0,0-.592.592v9.524a.592.592,0,0,0,.592.592h14.65a.592.592,0,0,0,.592-.592V4.862A.592.592,0,0,0,15.325,4.27Zm-4.991,5.919a.1.1,0,0,1-.1.1H8.863V11.66a.1.1,0,0,1-.1.1H7.239a.1.1,0,0,1-.1-.1V10.291H5.768a.1.1,0,0,1-.1-.1V8.667a.1.1,0,0,1,.1-.1H7.137V7.2a.1.1,0,0,1,.1-.1H8.761a.1.1,0,0,1,.1.1V8.565h1.369a.1.1,0,0,1,.1.1Z"/></g>
</symbol>

<symbol id="assignments" class="symbol" viewBox="0 0 16 16">
  <defs><style>.cls-1{fill:#010101;}</style></defs><title>assignments</title><g id="Layer_1" data-name="Layer 1"><path class="cls-1" d="M3.634,12.9H8.4c.084,0,.125-.017.125-.1v-.789a.959.959,0,0,0-.663-.936l-1.2-.384v-.343l.451-.289a.755.755,0,0,0,.347-.641V8.4A1.379,1.379,0,0,0,6.019,7.044h0A1.406,1.406,0,0,0,4.538,8.4V9.415a.755.755,0,0,0,.347.641l.451.289v.343l-1.2.384a.959.959,0,0,0-.663.936V12.8C3.473,12.881,3.55,12.9,3.634,12.9Z"/><path class="cls-1" d="M11.457,5.549a1.166,1.166,0,0,0-1.166-1.166H1.446A1.166,1.166,0,0,0,.28,5.549v8.845A1.166,1.166,0,0,0,1.446,15.56h8.845a1.166,1.166,0,0,0,1.166-1.166Zm-1.6,8.414H1.877V5.98H9.86Z"/><path class="cls-1" d="M14.128,10H12.8v1.6H14.72a1.043,1.043,0,0,0,1-1.013V8.665h-1.6Z"/><path class="cls-1" d="M5.878,2.012H7.209V.416H5.395c-.532,0-1.113.307-1.113.838V3.077h1.6Z"/><rect class="cls-1" x="8.539" y="0.416" width="2.927" height="1.597"/><path class="cls-1" d="M14.72.416H12.8v1.6h1.331V3.077h1.6V1.254A.9.9,0,0,0,14.72.416Z"/><rect class="cls-1" x="14.128" y="4.407" width="1.597" height="2.927"/></g>
</symbol>

<symbol id="attendee-type-outline" class="symbol" viewBox="0 0 16 16">
  <defs><style>.cls-1{fill:none;stroke:#231f20;stroke-miterlimit:10;}.cls-2{fill:#231f20;}</style></defs><title>attendee-type-outline</title><g id="Layer_1" data-name="Layer 1"><path class="cls-1" d="M11.939,8.1a3.6,3.6,0,1,0,3.6,3.6A3.6,3.6,0,0,0,11.939,8.1Z"/><path class="cls-1" d="M10.512,4.852s.14-.756.195-1.338c.068-.725-.419-2.6-3.014-2.6S4.61,2.789,4.678,3.514c.055.582.195,1.338.195,1.338s-.275.127-.275.638c.1,1.282.6.729.7,1.291.251,1.353.822,1.112.822,1.851,0,1.231-.6,1.806-2.468,2.488S.561,12.5.561,12.974v1.26a.337.337,0,0,0,.337.337H9.519A3.744,3.744,0,0,1,9.286,9.01a2.973,2.973,0,0,1-.026-.379c0-.739.571-.5.822-1.851.1-.561.608-.009.7-1.291C10.787,4.978,10.512,4.852,10.512,4.852Z"/><path class="cls-2" d="M11.932,14.382a.582.582,0,0,1-.558-.54.1.1,0,0,1,0-.027.088.088,0,0,1,0-.029.56.56,0,0,1,1.119.029A.576.576,0,0,1,11.932,14.382Z"/><path class="cls-2" d="M13.049,11.333c-.245.225-1.133.643-.7,1.062a.092.092,0,0,1-.04.152l-.6.2a.09.09,0,0,1-.088-.023.952.952,0,0,1-.26-.619.088.088,0,0,1,0-.023.1.1,0,0,1,0-.024c.034-.546.46-.752.839-1.069.252-.21.376-.638-.069-.739a1.075,1.075,0,0,0-1.107.414.091.091,0,0,1-.129,0l-.456-.5a.093.093,0,0,1,0-.129,1.983,1.983,0,0,1,1.717-.683,1.349,1.349,0,0,1,1.182.723A1.136,1.136,0,0,1,13.049,11.333Z"/></g>
</symbol>

<symbol id="attendee-type" class="symbol" viewBox="0 0 16 16">
  <defs><style>.cls-1{fill:#231f20;}</style></defs><title>attendee-type</title><g id="Layer_1" data-name="Layer 1"><path class="cls-1" d="M12.751,9.28a3.227,3.227,0,1,0,3.227,3.227A3.227,3.227,0,0,0,12.751,9.28Zm-.007,5.429a.474.474,0,0,1-.455-.44.078.078,0,0,1,0-.022.072.072,0,0,1,0-.023.456.456,0,0,1,.911.023A.469.469,0,0,1,12.744,14.709Zm.909-2.482c-.2.183-.922.523-.568.865a.075.075,0,0,1-.032.124l-.486.164a.074.074,0,0,1-.072-.019.775.775,0,0,1-.212-.5.071.071,0,0,1,0-.019.079.079,0,0,1,0-.02c.028-.444.375-.613.683-.871.205-.171.306-.519-.057-.6a.876.876,0,0,0-.9.337.074.074,0,0,1-.1,0l-.371-.41a.075.075,0,0,1,0-.1,1.614,1.614,0,0,1,1.4-.556,1.1,1.1,0,0,1,.962.589A.925.925,0,0,1,13.654,12.226Z"/><path class="cls-1" d="M11.155,4.851s.156-.846.218-1.5C11.448,2.544,10.9.449,8,.449s-3.449,2.1-3.372,2.906c.061.651.218,1.5.218,1.5s-.308.142-.308.713c.108,1.434.672.816.788,1.444.281,1.514.919,1.244.919,2.071,0,1.377-.668,2.02-2.761,2.783S.022,13.407.022,13.939v1.513A.548.548,0,0,0,.57,16h9.474a4.794,4.794,0,0,1-1.52-3.493,4.212,4.212,0,0,1,1.259-3,3.326,3.326,0,0,1-.029-.424c0-.827.639-.557.919-2.071.116-.628.681-.01.789-1.444C11.463,4.993,11.155,4.851,11.155,4.851ZM15.458,16h.52v-.521A4.237,4.237,0,0,1,15.458,16Z"/></g>
</symbol>

<symbol id="bank" class="symbol" viewBox="0 0 16 16">
  <defs><style>.cls-1{fill:#010101;}</style></defs><title>bank</title><g id="Layer_1" data-name="Layer 1"><path class="cls-1" d="M13.778.118H2.222A1.215,1.215,0,0,0,1.009,1.331V12.888A1.215,1.215,0,0,0,2.1,14.095v.419A1.448,1.448,0,0,0,3.548,15.96H4.875a1.448,1.448,0,0,0,1.447-1.447V14.1H9.61v.413a1.448,1.448,0,0,0,1.447,1.447h1.327a1.448,1.448,0,0,0,1.447-1.447V14.1a1.214,1.214,0,0,0,1.162-1.211V1.331A1.215,1.215,0,0,0,13.778.118ZM2.222,1.329l11.559,0V12.89h0l-11.559,0ZM5.11,14.513a.236.236,0,0,1-.236.236H3.548a.236.236,0,0,1-.236-.236v-.39h1.8Zm7.508,0a.236.236,0,0,1-.236.236H11.056a.236.236,0,0,1-.236-.236v-.39h1.8Z"/><path class="cls-1" d="M3.053,12.056h9.893V2.163H3.053ZM4.264,3.373h7.472v7.472H4.264Z"/><path class="cls-1" d="M10.252,6.589h-.3a2.032,2.032,0,0,0-.164-.423l.3-.3a.605.605,0,0,0-.856-.856l-.3.3a2.033,2.033,0,0,0-.414-.164V4.86a.605.605,0,0,0-1.211,0v.322a2.035,2.035,0,0,0-.268.114l-.285-.285a.605.605,0,0,0-.856.856l.275.275A2.034,2.034,0,0,0,6,6.589H5.582a.605.605,0,0,0,0,1.211h.471a2.037,2.037,0,0,0,.119.272L5.9,8.341a.605.605,0,1,0,.856.856l.271-.271a2.035,2.035,0,0,0,.282.121v.483a.605.605,0,1,0,1.211,0V9.085a2.034,2.034,0,0,0,.427-.17l.282.282a.605.605,0,0,0,.856-.856L9.8,8.049A2.036,2.036,0,0,0,9.9,7.8h.348a.605.605,0,1,0,0-1.211ZM7.978,7.734a.62.62,0,1,1,.62-.62A.62.62,0,0,1,7.978,7.734Z"/></g>
</symbol>

<symbol id="bell" class="symbol" viewBox="0 0 16 16">
  <defs><style>.cls-1{fill:#010101;}</style></defs><title>bell</title><g id="Layer_1" data-name="Layer 1"><path class="cls-1" d="M14.885,11.5,13.063,9.432v-3.1A4.8,4.8,0,0,0,8.18,1.623,4.8,4.8,0,0,0,3.3,6.332v3.1L1.474,11.5a1.194,1.194,0,0,0-.188,1.324,1.276,1.276,0,0,0,1.167.719H6.092a2.256,2.256,0,0,0,4.174,0h3.639a1.276,1.276,0,0,0,1.167-.719A1.193,1.193,0,0,0,14.885,11.5Zm-.732.914a.264.264,0,0,1-.247.152H2.453a.264.264,0,0,1-.247-.152.248.248,0,0,1,.04-.281l1.943-2.2a.479.479,0,0,0,.121-.316V6.332A3.807,3.807,0,0,1,8.18,2.6a3.807,3.807,0,0,1,3.87,3.731v3.28a.479.479,0,0,0,.121.316l1.943,2.2A.248.248,0,0,1,14.153,12.411Z"/></g>
</symbol>

<symbol id="bill" class="symbol" viewBox="0 0 16 16">
  <defs><style>.cls-1{fill:#231f20;}</style></defs><title>bill</title><g id="Layer_1" data-name="Layer 1"><path class="cls-1" d="M11.061,6.217a4.153,4.153,0,0,0-.72-1.243,3.394,3.394,0,0,0-1.054-.832,2.828,2.828,0,0,0-1.3-.3,2.858,2.858,0,0,0-1.3.3,3.37,3.37,0,0,0-1.058.832,3.909,3.909,0,0,0-.705,1.243,4.681,4.681,0,0,0,0,3.056,3.919,3.919,0,0,0,.705,1.244,3.393,3.393,0,0,0,1.058.832,2.91,2.91,0,0,0,2.593,0,3.39,3.39,0,0,0,1.058-.832,4.165,4.165,0,0,0,.72-1.244,4.478,4.478,0,0,0,0-3.056Zm-1.084,3.8h-3.8V9.011h1.2V6.4c-.023.041-.571.547-.571.547L6,6.173l1.544-1.3H8.754V9.011H9.976Z"/><path class="cls-1" d="M15.794,1.917a.67.67,0,0,0-.463-.176H.687a.693.693,0,0,0-.481.176.542.542,0,0,0-.194.418v10.8a.556.556,0,0,0,.194.434.691.691,0,0,0,.481.177H15.331a.668.668,0,0,0,.463-.177.556.556,0,0,0,.195-.434V2.335A.541.541,0,0,0,15.794,1.917ZM1.574,10.147a1.8,1.8,0,0,0-.363.038V5.306a1.8,1.8,0,0,0,.363.038,2.475,2.475,0,0,0,2.472-2.4h7.936a2.475,2.475,0,0,0,2.472,2.4,1.794,1.794,0,0,0,.335-.035v4.873a1.794,1.794,0,0,0-.335-.035,2.475,2.475,0,0,0-2.472,2.4H4.046A2.475,2.475,0,0,0,1.574,10.147Z"/></g>
</symbol>

<symbol id="calendar-outline" class="symbol" viewBox="0 0 16 16">
  <defs><style>.cls-1{fill:#231f20;}</style></defs><title>calendar-outline</title><g id="Layer_1" data-name="Layer 1"><path class="cls-1" d="M14.758,6.038V2.612a.872.872,0,0,0-.852-.891H12.683v-.8a.853.853,0,1,0-1.7,0v.8H4.809v-.8A.872.872,0,0,0,3.957.031a.872.872,0,0,0-.852.891v.8H1.981a.872.872,0,0,0-.852.891V15.086a.872.872,0,0,0,.852.891H13.906a.872.872,0,0,0,.852-.891V6.313a.874.874,0,0,0,.026-.137A.874.874,0,0,0,14.758,6.038Zm-1.7,8.156H2.833V7.067H13.054Zm0-8.91H2.833V3.5H13.054Zm-8.246,4.9A.886.886,0,1,0,3.962,9.3.867.867,0,0,0,4.809,10.186Zm3.162,0A.886.886,0,1,0,7.124,9.3.867.867,0,0,0,7.97,10.186Zm3.162,0a.886.886,0,1,0-.846-.885A.867.867,0,0,0,11.132,10.186ZM4.809,12.859a.886.886,0,1,0-.847-.885A.867.867,0,0,0,4.809,12.859Zm3.162,0a.886.886,0,1,0-.846-.885A.867.867,0,0,0,7.97,12.859Zm3.162,0a.886.886,0,1,0-.846-.885A.867.867,0,0,0,11.132,12.859Z"/></g>
</symbol>

<symbol id="capacity" class="symbol" viewBox="0 0 16 16">
  <defs><style>.cls-1{fill:#010101;}</style></defs><title>capacity</title><g id="Layer_1" data-name="Layer 1"><path class="cls-1" d="M8.731,7.813,6.919,6.988A3.05,3.05,0,1,0,3.645,7l-1.793.816a2.53,2.53,0,0,0-1.478,2.3v2.434A1.826,1.826,0,0,0,2.2,14.368H8.385a1.826,1.826,0,0,0,1.824-1.824V10.11A2.53,2.53,0,0,0,8.731,7.813ZM5.275,2.781A1.648,1.648,0,1,1,3.627,4.429,1.649,1.649,0,0,1,5.275,2.781Zm3.533,9.762a.423.423,0,0,1-.423.423H2.2a.423.423,0,0,1-.423-.423V10.11a1.125,1.125,0,0,1,.657-1.022l2.858-1.3,2.858,1.3a1.125,1.125,0,0,1,.658,1.022Z"/><path class="cls-1" d="M14.383,6.665l-1.114-.507a2.478,2.478,0,1,0-3.136.008l-.249.113a.7.7,0,0,0,.581,1.275l1.244-.566L13.8,7.94a.681.681,0,0,1,.4.619V10.4a.15.15,0,0,1-.15.15H11.906a.7.7,0,0,0,0,1.4H14.05A1.553,1.553,0,0,0,15.6,10.4V8.559A2.086,2.086,0,0,0,14.383,6.665ZM11.7,3.182A1.077,1.077,0,1,1,10.62,4.259,1.078,1.078,0,0,1,11.7,3.182Z"/></g>
</symbol>

<symbol id="cc" class="symbol" viewBox="0 0 16 16">
  <defs><style>.cls-1{fill:#231f20;}</style></defs><title>cc</title><g id="Layer_1" data-name="Layer 1"><rect class="cls-1" x="5.177" y="10.18" width="2.049" height="1.165"/><rect class="cls-1" x="2.499" y="10.18" width="2.049" height="1.165"/><path class="cls-1" d="M12.008,8.288A1.516,1.516,0,0,0,11,8.674a1.529,1.529,0,1,0,0,2.285,1.526,1.526,0,1,0,1.006-2.671Z"/><path class="cls-1" d="M15.388,1.741H.623a.606.606,0,0,0-.535.332.522.522,0,0,0-.076.262v10.8h0a.578.578,0,0,0,.045.221l0,.016,0,0a.611.611,0,0,0,.561.37H15.388A.612.612,0,0,0,16,13.137V2.353A.612.612,0,0,0,15.388,1.741ZM14.65,5.373H1.361V3.091H14.65ZM1.361,12.4V6.867H14.65V12.4Z"/></g>
</symbol>

<symbol id="check" class="symbol" viewBox="0 0 16 16">
  <defs><style>.cls-1{fill:#010101;}</style></defs><title>check</title><g id="Layer_1" data-name="Layer 1"><rect class="cls-1" x="3.358" y="8.971" width="2.56" height="0.995"/><rect class="cls-1" x="3.358" y="6.907" width="7.919" height="0.995"/><rect class="cls-1" x="3.358" y="4.934" width="3.731" height="0.995"/><rect class="cls-1" x="6.696" y="8.971" width="2.56" height="0.995"/><polygon class="cls-1" points="10.188 9.965 11.183 8.971 10.087 8.971 10.087 9.965 10.188 9.965"/><path class="cls-1" d="M14.62,11.981H13.581l-1.347,1.35h3.125a.612.612,0,0,0,.612-.612V9.586l-1.35,1.353Z"/><path class="cls-1" d="M1.331,3.091H14.62V5.6l1.35-1.339V2.353a.612.612,0,0,0-.612-.612H.593a.612.612,0,0,0-.612.612V12.72a.612.612,0,0,0,.612.612H6.863L8.2,11.981H1.331Z"/><rect class="cls-1" x="9.493" y="9.048" width="6.877" height="1.771" transform="translate(-3.236 12.055) rotate(-45.007)"/><polygon class="cls-1" points="8.879 12.734 8.933 13.967 10.131 13.986 10.628 13.489 9.376 12.236 8.879 12.734"/></g>
</symbol>

<symbol id="circle-clock" class="symbol" viewBox="0 0 16 16">
  <defs><style>.cls-1{fill:#010101;}</style></defs><title>circle-clock</title><g id="Layer_1" data-name="Layer 1"><path class="cls-1" d="M8.047,16.07a8.021,8.021,0,1,1,8.021-8.021A8.03,8.03,0,0,1,8.047,16.07Zm0-14.673A6.652,6.652,0,1,0,14.7,8.049,6.66,6.66,0,0,0,8.047,1.4Z"/><path class="cls-1" d="M10.933,10.276c-.108,0-.12-.026-.222-.079L7.583,8.5V4.083a.777.777,0,0,1,1.543,0V7.67l2.311,1.316a.658.658,0,0,1,.194.925A.836.836,0,0,1,10.933,10.276Z"/></g>
</symbol>

<symbol id="circle-money" class="symbol" viewBox="0 0 16 16">
  <defs><style>.cls-1{fill:#010101;}</style></defs><title>circle-money</title><g id="Layer_1" data-name="Layer 1"><path class="cls-1" d="M8.427,9.935a1.145,1.145,0,0,1-.707.185,2.438,2.438,0,0,1-.95-.2.6.6,0,0,0-.487.01.61.61,0,0,0,.037,1.122,3.712,3.712,0,0,0,1.163.235v.247a.643.643,0,1,0,1.286,0v-.367c0-.012,0-.022,0-.034a2.156,2.156,0,0,0,.657-.354,1.715,1.715,0,0,0,.661-1.4,1.648,1.648,0,0,0-.406-1.133A3,3,0,0,0,8.418,7.5,2.478,2.478,0,0,1,7.591,7.1a.494.494,0,0,1-.159-.374.5.5,0,0,1,.189-.411.861.861,0,0,1,.571-.171,2.157,2.157,0,0,1,.764.142.614.614,0,0,0,.477-.018.59.59,0,0,0,.31-.346.6.6,0,0,0-.348-.753A2.968,2.968,0,0,0,8.77,5.01V4.558a.643.643,0,0,0-1.286,0v.5a2.075,2.075,0,0,0-.86.444A1.728,1.728,0,0,0,6,6.851c0,.8.569,1.4,1.692,1.789a2.174,2.174,0,0,1,.766.386.591.591,0,0,1,.182.453A.536.536,0,0,1,8.427,9.935Z"/><path class="cls-1" d="M8.008,16.07a8.021,8.021,0,1,1,8.021-8.021A8.03,8.03,0,0,1,8.008,16.07Zm0-14.673A6.652,6.652,0,1,0,14.66,8.049,6.66,6.66,0,0,0,8.008,1.4Z"/></g>
</symbol>

<symbol id="circle-person" class="symbol" viewBox="0 0 16 16">
  <defs><style>.cls-1{fill:#010101;}</style></defs><title>circle-person</title><g id="Layer_1" data-name="Layer 1"><path class="cls-1" d="M10.549,8.345h0L9.65,7.9a2.328,2.328,0,1,0-3.257,0l-.9.448a1.265,1.265,0,0,0-.7,1.138v1.446a1.206,1.206,0,0,0,1.2,1.2h4.055a1.206,1.206,0,0,0,1.2-1.2V9.484A1.265,1.265,0,0,0,10.549,8.345ZM8.021,5.277a.959.959,0,1,1-.959.959A.96.96,0,0,1,8.021,5.277Zm1.863,5.488H6.158V9.544l1.863-.928,1.863.928Z"/><path class="cls-1" d="M8.021,0a8.021,8.021,0,1,0,8.021,8.021A8.03,8.03,0,0,0,8.021,0Zm0,14.673a6.652,6.652,0,1,1,6.652-6.652A6.66,6.66,0,0,1,8.021,14.673Z"/></g>
</symbol>

<symbol id="clock" class="symbol" viewBox="0 0 16 16">
  <defs><style>.cls-1{fill:#231f20;}</style></defs><title>clock</title><g id="Layer_1" data-name="Layer 1"><path class="cls-1" d="M8,2.028a6,6,0,1,1-6,6,6.007,6.007,0,0,1,6-6m0-2a8,8,0,1,0,8,8,8,8,0,0,0-8-8Z"/><path class="cls-1" d="M10.941,9.416H7.985a1,1,0,0,1-1-1v-4.6a1,1,0,0,1,2,0v3.6h1.956a1,1,0,1,1,0,2Z"/></g>
</symbol>

<symbol id="comment-outline" class="symbol" viewBox="0 0 16 16">
  <defs><style>.cls-1{fill:#231f20;}</style></defs><title>comment-outline</title><g id="Layer_1" data-name="Layer 1"><path class="cls-1" d="M1.015,15.992A1,1,0,0,1,.048,14.75l.8-3.2a7.974,7.974,0,1,1,3.608,3.613l-3.2.8A1,1,0,0,1,1.015,15.992ZM4.584,13.1a1,1,0,0,1,.488.128,6,6,0,1,0-2.294-2.3,1,1,0,0,1,.1.731L2.387,13.62l1.955-.488A.992.992,0,0,1,4.584,13.1Z"/></g>
</symbol>

<symbol id="contact-outline" class="symbol" viewBox="0 0 16 16">
  <defs><style>.cls-1{fill:#010101;}</style></defs><title>contact-outline</title><g id="Layer_1" data-name="Layer 1"><path class="cls-1" d="M13.213,6.183H8.482V5.065h4.731Z"/><rect class="cls-1" x="3.193" y="5.065" width="4.213" height="4.213"/><path class="cls-1" d="M13.388,2H2.434A2.437,2.437,0,0,0,0,4.436v7.3a2.437,2.437,0,0,0,2.434,2.434H3.651a.608.608,0,0,0,.609-.609v-.609h.609v.609a.608.608,0,0,0,.609.609h4.868a.608.608,0,0,0,.609-.609v-.609h.609v.609a.608.608,0,0,0,.609.609h1.217a2.437,2.437,0,0,0,2.434-2.434v-7.3A2.437,2.437,0,0,0,13.388,2Zm1.217,9.737a1.218,1.218,0,0,1-1.217,1.217H12.78v-.609a.608.608,0,0,0-.609-.609H10.346a.608.608,0,0,0-.609.609v.609H6.086v-.609a.608.608,0,0,0-.609-.609H3.651a.608.608,0,0,0-.609.609v.609H2.434a1.218,1.218,0,0,1-1.217-1.217v-7.3A1.218,1.218,0,0,1,2.434,3.219H13.388a1.218,1.218,0,0,1,1.217,1.217Z"/><rect class="cls-1" x="8.482" y="7.326" width="3.248" height="1.118"/></g>
</symbol>

<symbol id="dial" class="symbol" viewBox="0 0 16 16">
  <defs><style>.cls-1{fill:#010101;}</style></defs><title>dial</title><g id="Layer_1" data-name="Layer 1"><path class="cls-1" d="M11.215,9.087,8.058,8.769a1.5,1.5,0,0,0-.626.075A1.451,1.451,0,1,0,8.4,11.581l2.991-1.053h0a.743.743,0,0,0-.173-1.44Zm-.057.79L8.167,10.93a.761.761,0,1,1-.506-1.435.771.771,0,0,1,.255-.043q.037,0,.074,0l3.155.319a.06.06,0,0,1,.048.058A.054.054,0,0,1,11.157,9.877ZM8,.345a7.7,7.7,0,1,0,7.7,7.7A7.711,7.711,0,0,0,8,.345ZM8,15.058a7.012,7.012,0,1,1,7.014-7.012A7.021,7.021,0,0,1,8,15.058ZM8,2.5A5.553,5.553,0,0,0,2.452,8.046v.345H3.823V7.7H3.154a4.851,4.851,0,0,1,4.5-4.478V4.331h.69V3.223a4.851,4.851,0,0,1,4.5,4.478h-.672v.69h1.374V8.046A5.553,5.553,0,0,0,8,2.5Z"/></g>
</symbol>

<symbol id="discount" class="symbol" viewBox="0 0 16 16">
  <defs><style>.cls-1{fill:#231f20;}</style></defs><title>discount</title><g id="Layer_1" data-name="Layer 1"><path class="cls-1" d="M10.324,4.973A3.394,3.394,0,0,0,9.27,4.141a2.828,2.828,0,0,0-1.3-.3,2.858,2.858,0,0,0-1.3.3,3.37,3.37,0,0,0-1.058.832,3.909,3.909,0,0,0-.705,1.243,4.681,4.681,0,0,0,0,3.056,3.919,3.919,0,0,0,.705,1.244,3.393,3.393,0,0,0,1.058.832,2.91,2.91,0,0,0,2.593,0,3.39,3.39,0,0,0,1.058-.832,4.165,4.165,0,0,0,.72-1.244,4.478,4.478,0,0,0,0-3.056A4.153,4.153,0,0,0,10.324,4.973ZM9.96,10.019h-3.8V9.011h1.2V6.4c-.023.041-.571.547-.571.547l-.815-.774,1.544-1.3H8.738V9.011H9.96Zm1.165-8.278H8.953V2.947h2.173ZM8.953,13.749h2.173v-1.2H8.953ZM15.858,2.04a.608.608,0,0,0-.516-.3H13.61V2.947h1V4.1h1.35V2.335A.523.523,0,0,0,15.858,2.04ZM3.765,11.61a2.433,2.433,0,0,0-.568-.762,2.723,2.723,0,0,0-.845-.512,2.816,2.816,0,0,0-1.035-.191v-4.8a2.819,2.819,0,0,0,1.035-.191A2.722,2.722,0,0,0,3.2,4.642a2.439,2.439,0,0,0,.568-.762,2.11,2.11,0,0,0,.214-.933h2.49V1.741H.657a.693.693,0,0,0-.481.176.542.542,0,0,0-.195.418v10.8a.557.557,0,0,0,.195.434.691.691,0,0,0,.481.177H6.469v-1.2H3.979A2.11,2.11,0,0,0,3.765,11.61ZM14.609,8.672h1.35V6.587h-1.35Zm0,3.874h-1v1.2h1.732a.611.611,0,0,0,.538-.331.557.557,0,0,0,.08-.28V11.156h-1.35Z"/></g>
</symbol>

<symbol id="drag" class="symbol" viewBox="0 0 16 16">
  <defs><style>.cls-1{fill:#010101;}</style></defs><title>drag</title><g id="Layer_1" data-name="Layer 1"><path class="cls-1" d="M14.412,7.382,12.764,5.967a.593.593,0,0,0-.98.45v.748l-3.14,0V3.977h.7A.593.593,0,0,0,9.794,3L8.38,1.349a.593.593,0,0,0-.9,0L6.065,3a.593.593,0,0,0,.45.98h.7V7.162l-3.14,0V6.418a.593.593,0,0,0-.98-.45L1.447,7.382a.593.593,0,0,0,0,.9L3.095,9.7a.593.593,0,0,0,.98-.45V8.588l3.14,0v3.1h-.7a.593.593,0,0,0-.45.98l1.414,1.648a.593.593,0,0,0,.9,0l1.414-1.648a.593.593,0,0,0-.45-.98h-.7V8.592l3.14,0v.651a.593.593,0,0,0,.98.45l1.648-1.414A.593.593,0,0,0,14.412,7.382Z"/></g>
</symbol>

<symbol id="edit" class="symbol" viewBox="0 0 16 16">
  <defs><style>.cls-1{fill:#010201;}</style></defs><title>edit</title><g id="Layer_1" data-name="Layer 1"><path class="cls-1" d="M9.649,3.178l-7.9,7.9-.8,3.358a.511.511,0,0,0,.618.618L4.9,14.225l7.9-7.9Z"/><path class="cls-1" d="M13.552,5.571,15,4.12a1.119,1.119,0,0,0,.065-1.566L13.5.984A1.213,1.213,0,0,0,11.855.972L10.4,2.423Z"/></g>
</symbol>

<symbol id="email-envelope" class="symbol" viewBox="0 0 16 16">
  <defs><style>.cls-1{fill:#231f20;}</style></defs><title>email-envelope</title><g id="Layer_1" data-name="Layer 1"><path class="cls-1" d="M.86,4.635,7.3,7.761a1.072,1.072,0,0,0,.818,0l6.948-3.433a.358.358,0,0,0,.2-.321,1,1,0,0,0-1-1H1.67A1.016,1.016,0,0,0,.659,4.018v.3A.358.358,0,0,0,.86,4.635Zm13.761,1.5-5.867,2.9a2.474,2.474,0,0,1-2.048.006L1.3,6.427a.448.448,0,0,0-.643.406V11.49a.978.978,0,0,0,.973.978H14.184a1.089,1.089,0,0,0,1.083-1.088V6.537A.448.448,0,0,0,14.621,6.133Z"/></g>
</symbol>

<symbol id="email" class="symbol" viewBox="0 0 16 16">
  <defs><style>.cls-1{fill:#010201;}</style></defs><title>email</title><g id="Layer_1" data-name="Layer 1"><path class="cls-1" d="M13.2,3.735H2.988A1.454,1.454,0,0,0,1.527,5.18v5.871a1.454,1.454,0,0,0,1.461,1.443H13.2a1.454,1.454,0,0,0,1.461-1.443V5.18A1.454,1.454,0,0,0,13.2,3.735ZM5.49,8.13,2.775,10.153V6.525Zm1.155.683.817.483a1.277,1.277,0,0,0,1.3,0l.816-.482,3.286,2.448h-9.5Zm4.085-.683,2.682-1.586v3.584ZM2.988,4.968H13.2a.2.2,0,0,1,.19.155L8.1,8.238,2.8,5.107A.2.2,0,0,1,2.988,4.968Z"/></g>
</symbol>

<symbol id="eve-closed" class="symbol" viewBox="0 0 16 16">
  <defs><style>.cls-1{fill:#010101;}</style></defs><title>eve-closed</title><g id="Layer_1" data-name="Layer 1"><path class="cls-1" d="M15.122,8a11.685,11.685,0,0,0-1.863-2.259.574.574,0,0,0-.83.048.624.624,0,0,0,.046.859,10.187,10.187,0,0,1,1.444,1.689,8.87,8.87,0,0,1-2.774,2.686.62.62,0,0,0-.223.829.583.583,0,0,0,.512.31.569.569,0,0,0,.288-.079,10.294,10.294,0,0,0,3.4-3.409A.627.627,0,0,0,15.122,8Zm-3-4.29a.622.622,0,0,0-.159-.845.575.575,0,0,0-.816.165l-.634.975a4.361,4.361,0,0,0-.824-.227c-3.056-.7-6.156.88-8.3,4.222a.627.627,0,0,0,0,.674,10.132,10.132,0,0,0,3.749,3.6l-.579.891a.622.622,0,0,0,.159.845.571.571,0,0,0,.328.1.582.582,0,0,0,.488-.269l2.343-3.6a1.822,1.822,0,0,0,.378.039,1.912,1.912,0,0,0,1.877-1.944,1.984,1.984,0,0,0-.316-1.078Zm-3.24,2.8a1.8,1.8,0,0,0-.63-.12A1.912,1.912,0,0,0,6.379,8.341a1.968,1.968,0,0,0,.482,1.29L5.8,11.256A8.6,8.6,0,0,1,2.593,8.341c1.882-2.731,4.375-3.954,6.89-3.36A.634.634,0,0,0,9.6,5a1.757,1.757,0,0,1,.25.037Z"/></g>
</symbol>

<symbol id="event-settings" class="symbol" viewBox="0 0 16 16">
  <defs><style>.cls-1,.cls-2{fill:#010101;}.cls-2{fill-rule:evenodd;}</style></defs><title>event-settings</title><g id="Layer_1" data-name="Layer 1"><path class="cls-1" d="M14.827,10.245l-.18-.694.48-.928L14.112,7.489l-1.027.546L12.418,7.7l-.273-.946-1.44-.008-.376,1.009-.653.282-.937-.491-1.066.738.461.984-.334.762-1.031.3L6.8,11.823l.946.191s.471.909.379.92a5.121,5.121,0,0,0-.545.907l.883,1.072,1.173-.642.645.418.224,1.059,1.475.037.314-1,.628-.234,1.053.43.988-.867-.432-.973.233-.649,1.14-.39.066-1.5Zm-3.2,2.993A2,2,0,1,1,13.466,11,2.047,2.047,0,0,1,11.63,13.238Z"/><path class="cls-2" d="M13.429,2.789h-.643V1a.442.442,0,0,0-.442-.442H9.215A.442.442,0,0,0,8.773,1V2.789H5.085V1A.442.442,0,0,0,4.643.563H1.535A.442.442,0,0,0,1.094,1V2.789H.477a.442.442,0,0,0-.442.442V14.214a.442.442,0,0,0,.442.442H6.951l-.563-.684.295-.583c.035-.068.063-.12.1-.183H1.527V4.293H12.383V5.753l.516,0,.311,1.08.661-.351V3.23A.442.442,0,0,0,13.429,2.789Zm-9.712.4H2.446V1.629H3.717Zm7.709,0h-1.3V1.629h1.3Z"/><path class="cls-2" d="M7.09,5.44a.129.129,0,0,0-.238,0L6,7.5a.129.129,0,0,1-.109.079l-2.221.178a.129.129,0,0,0-.074.226L5.285,9.43a.129.129,0,0,1,.042.128l-.517,2.167a.129.129,0,0,0,.193.14l.785-.48-.032-1.8,1.253-.371-.6-1.278,1.336-.924Z"/></g>
</symbol>

<symbol id="event-status" class="symbol" viewBox="0 0 16 16">
  <defs><style>.cls-1{fill:#010101;}</style></defs><title>event-status</title><g id="Layer_1" data-name="Layer 1"><path class="cls-1" d="M8.687,12.987H8.654a.7.7,0,0,1-.638-.5L5.938,5.564,4.445,9.226a.7.7,0,0,1-.649.436H.7a.7.7,0,1,1,0-1.4H3.325L5.389,3.2a.7.7,0,0,1,1.32.063l2.075,6.915,1.957-4.839a.7.7,0,0,1,.649-.438H11.4a.7.7,0,0,1,.648.447l1.13,2.915H15.3a.7.7,0,1,1,0,1.4H12.694a.7.7,0,0,1-.653-.447L11.377,7.5,9.336,12.549A.7.7,0,0,1,8.687,12.987Z"/></g>
</symbol>

<symbol id="event-time" class="symbol" viewBox="0 0 16 16">
  <defs><style>.cls-1{fill:#010101;}</style></defs><title>event-time</title><g id="Layer_1" data-name="Layer 1"><path class="cls-1" d="M7.944,14.14A6.14,6.14,0,1,1,14.083,8,6.146,6.146,0,0,1,7.944,14.14Zm0-10.878A4.738,4.738,0,1,0,12.682,8,4.744,4.744,0,0,0,7.944,3.262Z"/><path class="cls-1" d="M10.018,9.9A.7.7,0,0,1,9.669,9.8L7.243,8.4V4.922a.7.7,0,1,1,1.4,0V7.6l1.724.994a.7.7,0,0,1-.35,1.308Z"/></g>
</symbol>

<symbol id="external-link" class="symbol" viewBox="0 0 16 16">
  <defs><style>.cls-1{fill:#020202;}</style></defs><title>external-link</title><g id="Layer_1" data-name="Layer 1"><path class="cls-1" d="M11.981,7.764V13.25H2.811v-9.4H8.082c.156,0,.037-.2.037-.2l-1.6-1.6h-4A1.512,1.512,0,0,0,1.011,3.561v9.976A1.512,1.512,0,0,0,2.524,15.05h9.745a1.512,1.512,0,0,0,1.512-1.512V9.308l-1.64-1.64S11.981,7.624,11.981,7.764Z"/><path class="cls-1" d="M14.408.95H9.131a.451.451,0,0,0-.319.77L10.641,3.55,6.206,7.986A1.1,1.1,0,0,0,7.763,9.542L12.2,5.106l2.021,2.021a.451.451,0,0,0,.77-.319V1.53A.58.58,0,0,0,14.408.95Z"/></g>
</symbol>

<symbol id="eye" class="symbol" viewBox="0 0 16 16">
  <defs><style>.cls-1{fill:#010101;}</style></defs><title>eye</title><g id="Layer_1" data-name="Layer 1"><path class="cls-1" d="M8.169,6.519a1.923,1.923,0,1,0,1.877,1.922A1.9,1.9,0,0,0,8.169,6.519Zm6.866,1.589c-1.816-2.8-4.254-4.335-6.866-4.335S3.119,5.313,1.3,8.108a.614.614,0,0,0,0,.666c1.815,2.8,4.254,4.335,6.866,4.335s5.05-1.539,6.866-4.335A.614.614,0,0,0,15.034,8.108Zm-6.866,3.8c-2.1,0-4.1-1.227-5.663-3.465C4.066,6.2,6.065,4.977,8.169,4.977s4.1,1.227,5.663,3.465C12.271,10.679,10.272,11.906,8.169,11.906Z"/></g>
</symbol>

<symbol id="facebook-outline" class="symbol" viewBox="0 0 16 16">
  <defs><style>.cls-1{fill:#231f20;}</style></defs><title>facebook-outline</title><g id="Layer_1" data-name="Layer 1"><path class="cls-1" d="M11.76,4.963a1.276,1.276,0,0,0-1.01-.5H9.443V3.976h.766a1.257,1.257,0,0,0,1.264-1.237l.008-1.5A1.255,1.255,0,0,0,10.216,0H8.927c-.032,0-.079,0-.137,0A3.782,3.782,0,0,0,6.908.487a3.137,3.137,0,0,0-1.527,2.9v1.08H4.614a1.271,1.271,0,0,0-.894.364,1.242,1.242,0,0,0-.369.883l0,1.493A1.256,1.256,0,0,0,4.619,8.444h.762v6.226a1.255,1.255,0,0,0,1.264,1.242H8.17a1.255,1.255,0,0,0,1.264-1.242V8.444h.956a1.271,1.271,0,0,0,1.216-.9l.355-1.48A1.23,1.23,0,0,0,11.76,4.963ZM10.39,7.2H8.17v7.469H6.645V7.2H4.618l0-1.492H6.645V3.387A2.007,2.007,0,0,1,8.791,1.236c.061,0,.1,0,.1,0h1.329l-.007,1.494H8.889c-.727,0-.71.607-.71.607V5.709h2.57Z"/></g>
</symbol>

<symbol id="form-download" class="symbol" viewBox="0 0 16 16">
  <defs><style>.cls-1{fill:#010101;}</style></defs><title>form-download</title><g id="Layer_1" data-name="Layer 1"><path class="cls-1" d="M8.032.663A7.348,7.348,0,1,0,15.38,8.011,7.356,7.356,0,0,0,8.032.663Zm0,13.577A6.228,6.228,0,1,1,14.26,8.011,6.235,6.235,0,0,1,8.032,14.24Z"/><polygon class="cls-1" points="8.475 9.013 8.475 5.608 7.355 5.608 7.355 9.039 6.199 7.835 5.431 8.627 7.985 11.169 10.533 8.627 9.697 7.835 8.475 9.013"/></g>
</symbol>

<symbol id="forms" class="symbol" viewBox="0 0 16 16">
  <defs><style>.cls-1{fill:#010201;}</style></defs><title>forms</title><g id="Layer_1" data-name="Layer 1"><path class="cls-1" d="M14.45,3.817h-2.6V3.23a.653.653,0,0,0-.208-.478L9.34.605A.653.653,0,0,0,8.9.431H1.724a.653.653,0,0,0-.653.653V11.543a.653.653,0,0,0,.653.653H3.7v2.624a.75.75,0,0,0,.75.75h10a.75.75,0,0,0,.75-.75V4.567A.75.75,0,0,0,14.45,3.817ZM7.667,1.592h1.2V3.51h1.945v1.2H8.167a.5.5,0,0,1-.5-.5ZM3.129,3.657H6.292V4.9H3.129Zm0,2.454H7.986v1.24H3.129Zm0,2.455H7.986v1.24H3.129Zm10.571,5.5H5.2V12.2h6a.653.653,0,0,0,.653-.653V5.317H13.7Z"/></g>
</symbol>

<symbol id="gear" class="symbol" viewBox="0 0 16 16">
  <defs><style>.cls-1{fill:#010101;}</style></defs><title>gear</title><g id="Layer_1" data-name="Layer 1"><path class="cls-1" d="M15.187,8.907V7.644a.6.6,0,0,0-.6-.6h-.65a.61.61,0,0,1-.574-.436,5.382,5.382,0,0,0-.329-.789.609.609,0,0,1,.1-.716l.461-.461a.6.6,0,0,0,0-.854l-.893-.893a.6.6,0,0,0-.854,0l-.461.461a.609.609,0,0,1-.716.1,5.38,5.38,0,0,0-.789-.328.61.61,0,0,1-.436-.574v-.65a.6.6,0,0,0-.6-.6H7.571a.6.6,0,0,0-.6.6v.65a.61.61,0,0,1-.436.574,5.38,5.38,0,0,0-.789.328.609.609,0,0,1-.716-.1L4.564,2.89a.6.6,0,0,0-.854,0l-.893.893a.6.6,0,0,0,0,.854l.461.461a.609.609,0,0,1,.1.716,5.382,5.382,0,0,0-.329.789.61.61,0,0,1-.574.436h-.65a.6.6,0,0,0-.6.6V8.907a.6.6,0,0,0,.6.6h.65a.61.61,0,0,1,.574.436,5.382,5.382,0,0,0,.329.79.609.609,0,0,1-.1.716l-.461.461a.6.6,0,0,0,0,.854l.893.893a.6.6,0,0,0,.854,0l.46-.46a.609.609,0,0,1,.716-.1,5.381,5.381,0,0,0,.789.329.61.61,0,0,1,.436.574v.65a.6.6,0,0,0,.6.6H8.834a.6.6,0,0,0,.6-.6v-.65a.61.61,0,0,1,.436-.574,5.382,5.382,0,0,0,.789-.329.609.609,0,0,1,.716.1l.461.461a.6.6,0,0,0,.854,0l.893-.893a.6.6,0,0,0,0-.854l-.461-.461a.609.609,0,0,1-.1-.716,5.382,5.382,0,0,0,.329-.789.61.61,0,0,1,.574-.436h.65A.6.6,0,0,0,15.187,8.907ZM8.2,11.436a3.16,3.16,0,1,1,3.16-3.16A3.164,3.164,0,0,1,8.2,11.436Z"/></g>
</symbol>

<symbol id="geo-pin-outline" class="symbol" viewBox="0 0 16 16">
  <defs><style>.cls-1{fill:#231f20;}</style></defs><title>geo-pin-outline</title><g id="Layer_1" data-name="Layer 1"><path class="cls-1" d="M8,.028A5.849,5.849,0,0,0,2.305,6.007,6.066,6.066,0,0,0,3.414,9.549l3.8,5.979a.924.924,0,0,0,1.579,0l3.766-5.934a6.134,6.134,0,0,0,1.139-3.588A5.849,5.849,0,0,0,8,.028Zm3.007,8.416L8,13.18,4.962,8.4A4.076,4.076,0,0,1,4.2,6.007,3.9,3.9,0,0,1,8,2.021a3.9,3.9,0,0,1,3.8,3.986A4.146,4.146,0,0,1,11.007,8.444ZM7.326,5.3a1.047,1.047,0,0,0,0,1.415.93.93,0,0,0,1.348,0,1.047,1.047,0,0,0,0-1.415A.959.959,0,0,0,7.326,5.3Z"/></g>
</symbol>

<symbol id="html-link-outline" class="symbol" viewBox="0 0 16 16">
  <defs><style>.cls-1{fill:#231f20;}</style></defs><title>html-link-outline</title><g id="Layer_1" data-name="Layer 1"><path class="cls-1" d="M8.412,4.326,4.58.5A1.254,1.254,0,0,0,2.85.5L.473,2.872a1.225,1.225,0,0,0,0,1.729L4.3,8.431a1.222,1.222,0,0,0,1.729,0L8.412,6.055A1.225,1.225,0,0,0,8.412,4.326ZM5.17,7.567,1.338,3.736,3.715,1.36,7.547,5.19Zm10.286,3.8L11.624,7.536a1.252,1.252,0,0,0-1.729,0L7.517,9.913a1.225,1.225,0,0,0,0,1.729l3.832,3.831a1.224,1.224,0,0,0,1.73,0L15.456,13.1a1.222,1.222,0,0,0,0-1.729Zm-3.242,3.241-3.832-3.83L10.759,8.4l3.832,3.83Z"/><path class="cls-1" d="M11.482,10.309,5.857,4.688a.893.893,0,0,0-1.232,0,.8.8,0,0,0,.061,1.172l5.624,5.622a.918.918,0,0,0,.64.287.745.745,0,0,0,.533-.228A.873.873,0,0,0,11.482,10.309Z"/></g>
</symbol>

<symbol id="info-outline" class="symbol" viewBox="0 0 16 16">
  <defs><style>.cls-1{fill:#231f20;}</style></defs><title>info-outline</title><g id="Layer_1" data-name="Layer 1"><path class="cls-1" d="M6.074,6.272H8.346a.654.654,0,0,1,.649.735l-.757,3.95a.527.527,0,0,0,.692.565l.6-.242a.223.223,0,0,1,.139.389,2.735,2.735,0,0,1-2.176.854c-1.855-.078-1.393-1.835-1.325-2.257s.451-2.512.471-2.689.206-.51-.314-.648-.687-.245-.687-.363S5.741,6.272,6.074,6.272Z"/><circle class="cls-1" cx="8.209" cy="4.543" r="1.261"/><path class="cls-1" d="M8,1.249A6.751,6.751,0,1,1,1.249,8,6.759,6.759,0,0,1,8,1.249M8,.119A7.881,7.881,0,1,0,15.881,8,7.881,7.881,0,0,0,8,.119Z"/></g>
</symbol>

<symbol id="link-arrow" class="symbol" viewBox="0 0 16 16">
  <defs><style>.cls-1{fill:#231f20;}</style></defs><title>link-arrow</title><g id="Layer_1" data-name="Layer 1"><path class="cls-1" d="M15.236,7.585,9.978,2.458a.918.918,0,0,0-1.275,0A.863.863,0,0,0,8.7,3.7l3.719,3.626H1.4a.879.879,0,1,0,0,1.758H12.421L8.7,12.711a.863.863,0,0,0,0,1.243.918.918,0,0,0,1.275,0l5.258-5.127A.864.864,0,0,0,15.236,7.585Z"/></g>
</symbol>

<symbol id="list-outline" class="symbol" viewBox="0 0 16 16">
  <defs><style>.cls-1{fill:#010101;}</style></defs><title>list-outline</title><g id="Layer_1" data-name="Layer 1"><path class="cls-1" d="M13.962.872H2.038a.872.872,0,0,0-.852.891V14.237a.872.872,0,0,0,.852.891H13.962a.872.872,0,0,0,.852-.891V1.763A.872.872,0,0,0,13.962.872Zm-.852,12.474H2.889V2.654H13.111Z"/><g id="Your_Icon" data-name="Your Icon"><path class="cls-1" d="M11.188,5.71h-3.4a.577.577,0,0,1,0-1.154h3.4a.577.577,0,0,1,0,1.154Z"/><path class="cls-1" d="M5.653,5.885H4.811a.565.565,0,0,1-.552-.577V4.931a.565.565,0,0,1,.552-.577h.841a.565.565,0,0,1,.552.577v.377A.565.565,0,0,1,5.653,5.885Z"/><path class="cls-1" d="M11.188,8.577h-3.4a.577.577,0,0,1,0-1.153h3.4a.577.577,0,0,1,0,1.153Z"/><path class="cls-1" d="M5.653,8.765H4.811a.565.565,0,0,1-.552-.577V7.812a.565.565,0,0,1,.552-.577h.841a.565.565,0,0,1,.552.577v.377A.565.565,0,0,1,5.653,8.765Z"/><path class="cls-1" d="M11.188,11.457h-3.4a.577.577,0,0,1,0-1.153h3.4a.577.577,0,0,1,0,1.153Z"/><path class="cls-1" d="M5.653,11.645H4.811a.565.565,0,0,1-.552-.577v-.377a.565.565,0,0,1,.552-.577h.841a.565.565,0,0,1,.552.577v.377A.565.565,0,0,1,5.653,11.645Z"/></g></g>
</symbol>

<symbol id="magic-wand" class="symbol" viewBox="0 0 16 16">
  <defs><style>.cls-1{fill:#010101;}</style></defs><title>magic-wand</title><g id="Layer_1" data-name="Layer 1"><path class="cls-1" d="M7.816,7.993a.465.465,0,0,0-.678,0L1.523,13.871a.519.519,0,0,0,0,.71l.984,1.03a.464.464,0,0,0,.678,0L8.8,9.732a.519.519,0,0,0,0-.71ZM10.226,5.47a.464.464,0,0,0-.678,0L8.577,6.486a.519.519,0,0,0,0,.71l.984,1.03a.464.464,0,0,0,.678,0l.971-1.016a.519.519,0,0,0,0-.71ZM4.71,2.929A2.028,2.028,0,0,1,6.418,4.717a.3.3,0,0,0,.581,0A2.028,2.028,0,0,1,8.707,2.929a.316.316,0,0,0,0-.608A2.028,2.028,0,0,1,7,.532a.3.3,0,0,0-.581,0A2.028,2.028,0,0,1,4.71,2.321.316.316,0,0,0,4.71,2.929ZM14.425,2.8a1.2,1.2,0,0,1-.782-.818.281.281,0,0,0-.539,0,1.2,1.2,0,0,1-.782.818.3.3,0,0,0,0,.564,1.2,1.2,0,0,1,.782.818.281.281,0,0,0,.539,0,1.2,1.2,0,0,1,.782-.818A.3.3,0,0,0,14.425,2.8Zm-.391,6.759a1.205,1.205,0,0,1-.782-.818.281.281,0,0,0-.539,0,1.205,1.205,0,0,1-.782.818.3.3,0,0,0,0,.564,1.205,1.205,0,0,1,.782.818.281.281,0,0,0,.539,0,1.205,1.205,0,0,1,.782-.818A.3.3,0,0,0,14.035,9.563Z"/></g>
</symbol>

<symbol id="overview" class="symbol" viewBox="0 0 16 16">
  <defs><style>.cls-1{fill:#010101;}</style></defs><title>overview</title><g id="Layer_1" data-name="Layer 1"><path class="cls-1" d="M8,.631A7.875,7.875,0,0,0,.14,8.491a7.629,7.629,0,0,0,4.068,6.785l.169.092h7.246l.169-.092A7.628,7.628,0,0,0,15.86,8.491,7.875,7.875,0,0,0,8,.631ZM8,2.1a6.381,6.381,0,0,1,6.386,6.386,6.112,6.112,0,0,1-3.178,5.4H4.791a6.112,6.112,0,0,1-3.178-5.4A6.381,6.381,0,0,1,8,2.1ZM8,3.579a4.867,4.867,0,0,0-2.38.629c.168.107.315.195.491.307A4.337,4.337,0,0,1,8,4.07a4.438,4.438,0,0,1,3.116,1.3l.031.031a4.373,4.373,0,0,1-.03,6.2.25.25,0,1,0,.353.353A4.913,4.913,0,0,0,8,3.578ZM3.579,4.07s3.147,5,3.638,5.5a1.354,1.354,0,0,0,1.857,0,1.308,1.308,0,0,0,0-1.857c-.491-.491-5.5-3.638-5.5-3.638ZM3.733,6.1a4.86,4.86,0,0,0-.645,2.395,4.931,4.931,0,0,0,1.443,3.47.25.25,0,1,0,.353-.353,4.438,4.438,0,0,1-1.3-3.116,4.364,4.364,0,0,1,.445-1.919C3.916,6.4,3.836,6.259,3.733,6.1Z"/></g>
</symbol>

<symbol id="payment-alt" class="symbol" viewBox="0 0 16 16">
  <defs><style>.cls-1{fill:#010101;}</style></defs><title>payment-alt</title><g id="Layer_1" data-name="Layer 1"><path class="cls-1" d="M13.51,7.47V3.919a.76.76,0,0,0-.762-.758H2.236a.741.741,0,0,0-.74.758v6.2a.753.753,0,0,0,.74.772h7.807a3.2,3.2,0,0,0,.2.679H.813c-.017,0-.048-.01-.048-.027v-6.2c0-.017.022-.03.039-.03a.366.366,0,1,0,0-.731.768.768,0,0,0-.768.762v6.2a.775.775,0,0,0,.779.758h9.863A2.994,2.994,0,1,0,13.51,7.47ZM2.236,3.892H12.749a.028.028,0,0,1,.03.027V5.146H2.228V3.919C2.228,3.9,2.22,3.892,2.236,3.892ZM2.228,10.12V5.877H12.779V7.436a3,3,0,0,0-2.757,2.725H2.236C2.22,10.16,2.228,10.137,2.228,10.12ZM13,12.686a2.264,2.264,0,1,1,2.264-2.264A2.267,2.267,0,0,1,13,12.686Z"/><path class="cls-1" d="M13.694,9.6l-.862.934-.375-.359a.366.366,0,0,0-.505.529l.644.616a.366.366,0,0,0,.253.1h.011a.365.365,0,0,0,.257-.118l1.114-1.208a.366.366,0,0,0-.537-.5Z"/><path class="cls-1" d="M6.459,7.5H3.22a.366.366,0,0,0,0,.731H6.459a.366.366,0,1,0,0-.731Z"/><path class="cls-1" d="M4.735,8.593H3.22a.366.366,0,0,0,0,.731H4.735a.366.366,0,0,0,0-.731Z"/></g>
</symbol>

<symbol id="pdf-instruction" class="symbol" viewBox="0 0 16 16">
  <defs><style>.cls-1{fill:#010201;}</style></defs><title>pdf-instruction</title><g id="Layer_1" data-name="Layer 1"><path class="cls-1" d="M5.747,10.283v.739H5.235V8.811h.78a1.286,1.286,0,0,1,.4.055.77.77,0,0,1,.276.152.6.6,0,0,1,.16.229.778.778,0,0,1,.052.285.837.837,0,0,1-.053.3.608.608,0,0,1-.162.237.765.765,0,0,1-.277.154,1.269,1.269,0,0,1-.4.055Zm0-.387h.267a.325.325,0,0,0,.376-.363A.4.4,0,0,0,6.368,9.4.28.28,0,0,0,6.3,9.288a.311.311,0,0,0-.117-.069A.517.517,0,0,0,6.014,9.2H5.747Z"/><path class="cls-1" d="M9.176,9.916a1.16,1.16,0,0,1-.083.442,1.035,1.035,0,0,1-.233.35,1.056,1.056,0,0,1-.362.231,1.279,1.279,0,0,1-.469.083H7.17V8.811h.859a1.27,1.27,0,0,1,.469.083,1.071,1.071,0,0,1,.362.231,1.028,1.028,0,0,1,.233.35A1.155,1.155,0,0,1,9.176,9.916Zm-.525,0a.963.963,0,0,0-.043-.3A.632.632,0,0,0,8.486,9.4a.53.53,0,0,0-.195-.141.662.662,0,0,0-.262-.049H7.686v1.421h.343a.662.662,0,0,0,.262-.049.53.53,0,0,0,.195-.141.632.632,0,0,0,.122-.224A.968.968,0,0,0,8.651,9.916Z"/><path class="cls-1" d="M10.844,8.811v.394H9.937v.56h.755v.4H9.937v.86H9.421V8.811Z"/><path class="cls-1" d="M13.3,15.569H2.687a.345.345,0,0,1-.345-.345V4.608a.345.345,0,0,1,.345-.345H6v.689H3.032V14.88H12.96V4.952H9.975V4.263H13.3a.345.345,0,0,1,.345.345V15.225A.345.345,0,0,1,13.3,15.569Z"/><rect class="cls-1" x="7.645" y="0.84" width="0.689" height="5.13"/><path class="cls-1" d="M9.731,3.02,7.989,1.279,6.248,3.02l-.487-.487L7.746.548a.344.344,0,0,1,.487,0l1.985,1.985Z"/></g>
</symbol>

<symbol id="people-outline" class="symbol" viewBox="0 0 16 16">
  <defs><style>.cls-1{fill:#020202;}</style></defs><title>people-outline</title><g id="Layer_1" data-name="Layer 1"><path class="cls-1" d="M15.8,9.649a3.6,3.6,0,0,0-2.024-1.618c.019-.05.036-.1.053-.155a2.292,2.292,0,0,0,.463-1.335l0-.112a2.251,2.251,0,0,0-.08-.6c.014-.115.027-.236.035-.347a2.994,2.994,0,0,0-.768-2.2,2.941,2.941,0,0,0-2.243-.928,2.93,2.93,0,0,0-2.162.853,3.37,3.37,0,0,0-.738-1.3A3.409,3.409,0,0,0,5.734.84a3.406,3.406,0,0,0-2.6,1.068A3.493,3.493,0,0,0,2.247,4.44c.014.178.036.372.059.546a2.438,2.438,0,0,0-.115.758l0,.105A2.493,2.493,0,0,0,2.76,7.417a3.345,3.345,0,0,0,.186.512c-.222.114-.56.266-1.022.459A2.671,2.671,0,0,0,0,10.773v2.367A2.021,2.021,0,0,0,2.019,15.16h8.032a2.009,2.009,0,0,0,1.593-.793h2.339A2.016,2.016,0,0,0,16,12.269c0-.123.009-.407.021-.659A3.306,3.306,0,0,0,15.8,9.649ZM1.633,13.141V10.773c0-.561.647-.795,1.008-.946,1.183-.495,2.148-.912,2.148-1.8,0-.536-.361-.361-.519-1.343-.066-.407-.384-.007-.446-.936,0-.371.173-.463.173-.463s-.088-.548-.123-.97A1.774,1.774,0,0,1,5.78,2.427,1.774,1.774,0,0,1,7.687,4.311c-.035.422-.123.97-.123.97s.174.092.174.463c-.061.93-.38.529-.445.937-.159.982-.52.807-.52,1.343a1.853,1.853,0,0,0,.1.6l-.013,0a1.275,1.275,0,0,0,.059.116A1.272,1.272,0,0,0,7,8.919a1.392,1.392,0,0,0,.142.175,1.577,1.577,0,0,0,.134.138,2.367,2.367,0,0,0,.234.169c.04.027.068.055.113.082l0-.005.005,0a5.391,5.391,0,0,0,.705.353c1.186.5,2.195.979,2.195,1.491v1.822a.432.432,0,0,1-.432.432H2.065A.432.432,0,0,1,1.633,13.141Zm12.828-.809a.431.431,0,0,1-.432.448H11.615V11.319c0-.974-.858-1.575-1.853-2.052.172-.222.786-.551.778-1.13-.006-.4-.271-.271-.39-1.007-.049-.3-.289,0-.334-.7,0-.278.129-.347.129-.347s-.066-.41-.092-.727a1.331,1.331,0,0,1,1.43-1.413,1.33,1.33,0,0,1,1.43,1.413c-.025.316-.092.727-.092.727s.131.069.131.347c-.046.7-.285.4-.334.7-.12.736-.39.6-.39,1.007,0,.67.283.983,1.171,1.354s1.071.612,1.277.962A17.2,17.2,0,0,1,14.46,12.332Z"/></g>
</symbol>

<symbol id="permissions" class="symbol" viewBox="0 0 16 16">
  <defs><style>.cls-1{fill:#010101;}</style></defs><title>permissions</title><g id="Layer_1" data-name="Layer 1"><path class="cls-1" d="M12.116,6.069H7.142V3.693a1.27,1.27,0,1,1,2.54,0v.528a.7.7,0,1,0,1.4,0V3.693a2.67,2.67,0,1,0-5.341,0V6.069H4.707A1.948,1.948,0,0,0,2.762,8.014v5.86A1.948,1.948,0,0,0,4.707,15.82h7.409a1.948,1.948,0,0,0,1.945-1.945V8.014A1.948,1.948,0,0,0,12.116,6.069Zm.545,7.806a.545.545,0,0,1-.545.545H4.707a.545.545,0,0,1-.545-.545V8.014a.545.545,0,0,1,.545-.545h7.409a.545.545,0,0,1,.545.545Z"/><path class="cls-1" d="M9.484,10.479a1.072,1.072,0,1,0-1.562.939l-.327.793a.48.48,0,0,0,.444.663h.746a.48.48,0,0,0,.444-.663L8.9,11.418A1.062,1.062,0,0,0,9.484,10.479Z"/></g>
</symbol>

<symbol id="person-outline" class="symbol" viewBox="0 0 16 16">
  <defs><style>.cls-1{fill:#231f20;}</style></defs><title>person-outline</title><g id="Layer_1" data-name="Layer 1"><path class="cls-1" d="M11.65,15.837h-7a2.674,2.674,0,0,1-2.625-2.715v-.905a.908.908,0,0,1,.489-.812l2.744-1.4-.5-.987a.93.93,0,0,1-.1-.423V4.978a3.566,3.566,0,0,1,3.5-3.62,3.566,3.566,0,0,1,3.5,3.62V8.6a.93.93,0,0,1-.1.423l-.505.987,2.744,1.4a.908.908,0,0,1,.488.812v.905A2.674,2.674,0,0,1,11.65,15.837ZM3.773,12.78v.342a.892.892,0,0,0,.875.905h7a.892.892,0,0,0,.875-.905V12.78L9.461,11.218a.9.9,0,0,1-.446-.533.931.931,0,0,1,.059-.7L9.9,8.371V4.978a1.751,1.751,0,1,0-3.5,0V8.371l.825,1.612a.932.932,0,0,1,.059.7.9.9,0,0,1-.446.533Z"/></g>
</symbol>

<symbol id="phone" class="symbol" viewBox="0 0 16 16">
  <defs><style>.cls-1{fill:#231f20;}</style></defs><title>phone</title><g id="Layer_1" data-name="Layer 1"><path class="cls-1" d="M2.242,5.838a26.787,26.787,0,0,0,7.089,8.615l1.081.86a1.756,1.756,0,0,0,2.216-.023h0l1.892-1.57.308-.255A1.305,1.305,0,0,0,15,11.633L13.55,9.868a1.292,1.292,0,0,0-1.825-.174l-1.83,1.519a26.79,26.79,0,0,1-4.378-5.32l1.83-1.519A1.305,1.305,0,0,0,7.52,2.541L6.068.777A1.292,1.292,0,0,0,4.244.6L3.936.858,2.044,2.428h0A1.774,1.774,0,0,0,1.6,4.61Z"/></g>
</symbol>

<symbol id="print" class="symbol" viewBox="0 0 16 16">
  <defs><style>.cls-1{fill:#010201;}</style></defs><title>print</title><g id="Layer_1" data-name="Layer 1"><path class="cls-1" d="M14.541,11.827l-.015-4.965a1.245,1.245,0,0,0-1.259-1.226H12.131V4.443L9.114,2.032H3.831v3.6H2.684A1.244,1.244,0,0,0,1.425,6.869l.015,4.958H3.831V13.7h8.3V11.827ZM4.706,2.872H8.548v2.04h2.77V7.158H4.706V2.872Zm6.612,9.951H4.706v-2.19h6.612v2.19Z"/></g>
</symbol>

<symbol id="put-back-arrow" class="symbol" viewBox="0 0 16 16">
  <defs><style>.cls-1{fill:#010101;}</style></defs><title>put-back-arrow</title><g id="Layer_1" data-name="Layer 1"><path class="cls-1" d="M.3,13.468a5.966,5.966,0,0,1,.072-.93l.08-.533.14-.562A9.381,9.381,0,0,1,1,10.249a9.732,9.732,0,0,1,.64-1.206,10.669,10.669,0,0,1,.839-1.155A9.621,9.621,0,0,1,3.512,6.875a10.956,10.956,0,0,1,1.136-.846A10.158,10.158,0,0,1,5.831,5.4l.576-.244.557-.179c.185-.053.341-.115.53-.153l.528-.107.469-.086L8.6,4.621V2.327a.721.721,0,0,1,1.183-.549l5.275,4.368a.712.712,0,0,1,0,1.1L9.779,11.613A.721.721,0,0,1,8.6,11.064V8.852L8.5,8.859l-.24.009a2.665,2.665,0,0,0-.308.044L7.6,8.966l-.365.1c-.259.051-.51.169-.789.255a7.392,7.392,0,0,0-.8.406,9.241,9.241,0,0,0-.79.521,7.517,7.517,0,0,0-.707.649,8.666,8.666,0,0,0-.621.717,8.81,8.81,0,0,0-.479.762l-.205.372-.154.367a4.9,4.9,0,0,0-.243.664l-.093.286-.056.248-.11.48-.028.122a.909.909,0,0,1-1.79-.122l-.054-.611-.025-.326C.3,13.734.3,13.606.3,13.468Z"/></g>
</symbol>

<symbol id="question-outline" class="symbol" viewBox="0 0 16 16">
  <defs><style>.cls-1{fill:#231f20;}</style></defs><title>question-outline</title><g id="Layer_1" data-name="Layer 1"><path class="cls-1" d="M8,1.146A6.854,6.854,0,1,1,1.146,8,6.861,6.861,0,0,1,8,1.146M8,0a8,8,0,1,0,8,8A8,8,0,0,0,8,0Z"/><path class="cls-1" d="M7.977,13.433a1.169,1.169,0,0,1-1.122-1.085.192.192,0,0,1,0-.055.178.178,0,0,1,0-.058,1.126,1.126,0,0,1,2.249.058A1.158,1.158,0,0,1,7.977,13.433Zm2.244-6.125c-.493.451-2.275,1.291-1.4,2.134a.184.184,0,0,1-.08.306l-1.2.405a.182.182,0,0,1-.178-.047A1.912,1.912,0,0,1,6.84,8.862a.176.176,0,0,1,0-.046.2.2,0,0,1,0-.049c.068-1.1.925-1.512,1.686-2.148.507-.422.756-1.281-.14-1.485a2.16,2.16,0,0,0-2.225.831.183.183,0,0,1-.259,0q-.457-.507-.916-1.013a.186.186,0,0,1,0-.259A3.984,3.984,0,0,1,8.437,3.32a2.711,2.711,0,0,1,2.374,1.453A2.283,2.283,0,0,1,10.221,7.308Z"/></g>
</symbol>

<symbol id="refund" class="symbol" viewBox="0 0 16 16">
  <defs><style>.cls-1{fill:#010101;}</style></defs><title>refund</title><g id="Layer_1" data-name="Layer 1"><path class="cls-1" d="M8.53,9.983a1.221,1.221,0,0,1-.753.2,2.6,2.6,0,0,1-1.013-.209.642.642,0,0,0-.519.011.651.651,0,0,0,.04,1.2,3.958,3.958,0,0,0,1.24.251v.263a.686.686,0,1,0,1.371,0V11.3c0-.012,0-.024,0-.036a2.3,2.3,0,0,0,.7-.378A1.829,1.829,0,0,0,10.3,9.4a1.758,1.758,0,0,0-.433-1.208,3.2,3.2,0,0,0-1.344-.8,2.643,2.643,0,0,1-.882-.434.527.527,0,0,1-.169-.4.538.538,0,0,1,.2-.438.918.918,0,0,1,.609-.183,2.3,2.3,0,0,1,.815.151A.655.655,0,0,0,9.6,6.067a.629.629,0,0,0,.33-.368.64.64,0,0,0-.372-.8A3.165,3.165,0,0,0,8.9,4.73V4.249a.686.686,0,0,0-1.371,0v.536a2.213,2.213,0,0,0-.917.474,1.843,1.843,0,0,0-.66,1.435c0,.856.607,1.5,1.8,1.908a2.319,2.319,0,0,1,.817.412.631.631,0,0,1,.194.483A.571.571,0,0,1,8.53,9.983Z"/><path class="cls-1" d="M15.721,8.007A7.68,7.68,0,1,0,4.561,14.853l-.2.5a.349.349,0,0,0,.369.479l2.331-.31a.349.349,0,0,0,.23-.559L5.852,13.1a.349.349,0,0,0-.6.08l-.167.4a6.306,6.306,0,1,1,5.561.175A.686.686,0,1,0,11.214,15,7.7,7.7,0,0,0,15.721,8.007Z"/></g>
</symbol>

<symbol id="registrations-logo" class="symbol" viewBox="0 0 16 16">
  <defs><style>.cls-1{fill:#010101;}</style></defs><title>registrations-logo</title><g id="Layer_1" data-name="Layer 1"><path class="cls-1" d="M3.90679,7.37608c-.03228-.05138-.14186-.06969-.23372-.06969a.48121.48121,0,0,0-.36462.16419l-.0261-.0844a.07064.07064,0,0,0-.06678-.05331H3.15211a.07423.07423,0,0,0-.0724.07226V8.51059a.07336.07336,0,0,0,.0724.07236h.12166c.0393,0,.09879,0,.09879-.07236V7.73922A.33571.33571,0,0,1,3.64669,7.586a.2902.2902,0,0,1,.10478.02233.06679.06679,0,0,0,.052.00392.07163.07163,0,0,0,.041-.03962L3.908,7.44046A.06346.06346,0,0,0,3.90679,7.37608Z"/><path class="cls-1" d="M4.5114,7.30639A.65348.65348,0,0,0,4.51408,8.612a.70116.70116,0,0,0,.46146-.15413.06276.06276,0,0,0,.00793-.1004L4.912,8.24619a.05747.05747,0,0,0-.03625-.027.0751.0751,0,0,0-.05516.01812.45843.45843,0,0,1-.29064.1005.346.346,0,0,1-.35022-.30494h.82884a.07085.07085,0,0,0,.06955-.06526c.00276-.02186.00553-.06465.00553-.08642A.56092.56092,0,0,0,4.5114,7.30639Zm-.00525.2531a.27366.27366,0,0,1,.28639.24941H4.19448A.296.296,0,0,1,4.50615,7.55949Z"/><path class="cls-1" d="M6.29517,7.33287H6.22378c-.041,0-.05147.03122-.058.051l-.024.058a.58763.58763,0,0,0-.38084-.13545.61667.61667,0,0,0-.59069.65152.62379.62379,0,0,0,.604.6541.66889.66889,0,0,0,.29783-.07725v.042c0,.25933-.15763.31375-.2899.31375A.44609.44609,0,0,1,5.505,8.77955a.07038.07038,0,0,0-.05811-.01416.06814.06814,0,0,0-.04483.03727l-.06327.11617a.06918.06918,0,0,0,.01549.08573.67253.67253,0,0,0,.43315.15755.54072.54072,0,0,0,.58017-.58539V7.40513A.07423.07423,0,0,0,6.29517,7.33287Zm-.22045.41442v.49448a.486.486,0,0,1-.26877.09076.36462.36462,0,0,1-.34285-.37462.33038.33038,0,0,1,.61162-.21062Z"/><path class="cls-1" d="M6.68169,7.33287h.14818a.07241.07241,0,0,1,.07241.07241V8.51054a.07241.07241,0,0,1-.07241.07241H6.68178a.07236.07236,0,0,1-.07236-.07236V7.40513A.07227.07227,0,0,1,6.68169,7.33287Z"/><path class="cls-1" d="M6.7558,6.782a.19273.19273,0,0,0,0,.38537.19269.19269,0,1,0,0-.38537Z"/><path class="cls-1" d="M7.555,7.82324c-.13-.05654-.20034-.09989-.20034-.16685,0-.04691.04382-.09422.14186-.09422a.61871.61871,0,0,1,.25605.05958.07132.07132,0,0,0,.09777-.03044l.04225-.08458a.08667.08667,0,0,0-.03127-.1081.70075.70075,0,0,0-.3648-.09224c-.28934,0-.41884.17447-.41884.34741,0,.21639.16289.31965.339.399.17174.0778.25346.12733.25346.19859,0,.0647-.05635.10492-.14711.10492a.55133.55133,0,0,1-.29258-.08555l-.00452-.00245a.07789.07789,0,0,0-.0618-.00927.06046.06046,0,0,0-.03735.03113l-.05544.11364a.064.064,0,0,0,.02564.0813l.00019.00014a.72637.72637,0,0,0,.41.12674.40084.40084,0,0,0,.45048-.37112C7.95764,8.01094,7.79817,7.92623,7.555,7.82324Z"/><path class="cls-1" d="M8.85031,8.30956a.06833.06833,0,0,0-.03892-.041.06308.06308,0,0,0-.05295.00774A.39679.39679,0,0,1,8.57,8.33253c-.04408,0-.08365-.00844-.08365-.11018V7.586h.30844a.07428.07428,0,0,0,.0724-.07236V7.40513a.07157.07157,0,0,0-.0724-.07226H8.48635v-.327a.07032.07032,0,0,0-.06974-.07236h-.1508a.07245.07245,0,0,0-.07232.07236v.327h-.126a.07.07,0,0,0-.07241.07226V7.5136A.07252.07252,0,0,0,8.0675,7.586h.126v.647c0,.17649.03681.379.32357.379a.74878.74878,0,0,0,.34607-.08943.06815.06815,0,0,0,.03478-.08845Z"/><path class="cls-1" d="M9.83448,7.37608c-.03229-.05138-.14186-.06969-.23364-.06969a.49044.49044,0,0,0-.36479.16377L9.21,7.38623a.07041.07041,0,0,0-.06668-.05336H9.07989a.07423.07423,0,0,0-.07241.07226V8.51059a.07246.07246,0,0,0,.07241.07236h.12157c.03938,0,.09887,0,.09887-.07236V7.73922a.3357.3357,0,0,1,.274-.15326.28865.28865,0,0,1,.10469.02233.067.067,0,0,0,.05211.00392.07168.07168,0,0,0,.04105-.03962l.06346-.13213A.06346.06346,0,0,0,9.83448,7.37608Z"/><path class="cls-1" d="M10.4164,7.30639a1.33033,1.33033,0,0,0-.4254.06955.06935.06935,0,0,0-.04851.088l.0237.10044a.07074.07074,0,0,0,.08661.06069,1.24338,1.24338,0,0,1,.33713-.05765.17368.17368,0,0,1,.1306.04285.28251.28251,0,0,1,.05129.20463.94288.94288,0,0,0-.23207-.03247c-.30586,0-.50352.16021-.50352.40819a.39288.39288,0,0,0,.40824.42139.53766.53766,0,0,0,.36941-.14251l.02213.06244c.01283.03063.02851.051.06337.051h.08726a.07428.07428,0,0,0,.0724-.07236V7.86005C10.859,7.55714,10.82575,7.30639,10.4164,7.30639ZM10.3,8.36684a.16473.16473,0,0,1-.17618-.17889c0-.11175.09528-.18683.23705-.18683a.59679.59679,0,0,1,.2079.03667v.19106A.36631.36631,0,0,1,10.3,8.36684Z"/><path class="cls-1" d="M11.8053,8.30956a.06833.06833,0,0,0-.03892-.041.06308.06308,0,0,0-.05295.00774.39683.39683,0,0,1-.18844.05627c-.04409,0-.08366-.00844-.08366-.11018V7.586h.30844a.07428.07428,0,0,0,.07241-.07236V7.40513a.07157.07157,0,0,0-.07241-.07226h-.30844v-.327a.07032.07032,0,0,0-.06973-.07236h-.15081a.07244.07244,0,0,0-.07231.07236v.327h-.126a.07.07,0,0,0-.07241.07226V7.5136a.07252.07252,0,0,0,.07241.07236h.126v.647c0,.17649.0368.379.32357.379a.74878.74878,0,0,0,.34607-.08943.06815.06815,0,0,0,.03477-.08845Z"/><path class="cls-1" d="M12.03446,7.33287h.14818a.07241.07241,0,0,1,.07241.07241V8.51059a.07236.07236,0,0,1-.07236.07236H12.0346a.07241.07241,0,0,1-.07241-.07241V7.40513A.07227.07227,0,0,1,12.03446,7.33287Z"/><path class="cls-1" d="M12.10857,6.782a.19273.19273,0,0,0,0,.38537.19269.19269,0,1,0,0-.38537Z"/><path class="cls-1" d="M13.05169,7.30639a.653.653,0,1,0,.6357.64884A.65234.65234,0,0,0,13.05169,7.30639Zm.34811.64884a.35.35,0,1,1-.34811-.36927A.35123.35123,0,0,1,13.3998,7.95523Z"/><path class="cls-1" d="M14.48763,7.30639a.5755.5755,0,0,0-.40427.15676L14.05458,7.381a.06075.06075,0,0,0-.0641-.0481H13.927a.07424.07424,0,0,0-.07241.07226V8.51059A.07337.07337,0,0,0,13.927,8.583h.13485c.05756,0,.0856-.02366.0856-.07236V7.75208a.36061.36061,0,0,1,.30844-.16612c.1461,0,.22653.10677.22653.30056v.62407a.07244.07244,0,0,0,.07231.07236h.14813a.07428.07428,0,0,0,.07241-.07236V7.897C14.97529,7.49958,14.81572,7.30639,14.48763,7.30639Z"/><path class="cls-1" d="M15.61643,7.82324c-.13-.05654-.20034-.09989-.20034-.16685,0-.04691.04381-.09422.14177-.09422a.61905.61905,0,0,1,.25605.05958.07132.07132,0,0,0,.09777-.03039l.04233-.08463a.08658.08658,0,0,0-.03136-.1081.69989.69989,0,0,0-.36479-.09224c-.28926,0-.41876.17447-.41876.34741,0,.21639.16289.31965.339.399.17166.07776.25338.12733.25338.19859,0,.0647-.05636.10492-.14712.10492a.551.551,0,0,1-.29267-.08565l-.00433-.00235a.0774.0774,0,0,0-.062-.00922.06026.06026,0,0,0-.03717.03108l-.05543.11359a.06385.06385,0,0,0,.02555.08135l.00018.00014a.7264.7264,0,0,0,.41.12674.40088.40088,0,0,0,.45058-.37112C16.019,8.01094,15.85956,7.92623,15.61643,7.82324Z"/><path class="cls-1" d="M1.20881,6.77214C.22654,6.77214-.019,7.01773-.019,8S.22654,9.22786,1.20881,9.22786,2.43668,8.98229,2.43668,8,2.19109,6.77214,1.20881,6.77214Zm.09937.71474a.12167.12167,0,0,1,.17141-.008l.09729.08812a.12168.12168,0,0,1,.00829.17211l-.10452.11479L1.20527,7.5992ZM.85407,8.50281.60584,8.5575a.01672.01672,0,0,1-.02017-.01857l.03409-.25241a.19393.19393,0,0,1,.04165-.08911L1.138,7.67169l.27556.2549-.47431.52682A.19053.19053,0,0,1,.85407,8.50281Zm.97806-.00709a.06046.06046,0,0,1-.06046.06045H1.08273l.24188-.27029h.44706a.06045.06045,0,0,1,.06046.06045Z"/></g>
</symbol>

<symbol id="registrations" class="symbol" viewBox="0 0 16 16">
  <defs><style>.cls-1{fill-rule:evenodd;}</style></defs><title>registrations</title><g id="Layer_1" data-name="Layer 1"><path class="cls-1" d="M7.884,4.072,1.594,10.955a2.34,2.34,0,0,0-.5,1.076L.67,15.154a.147.147,0,0,0,.178.163l3.065-.677a2.281,2.281,0,0,0,1.018-.59L11.2,7.144a.24.24,0,0,0-.014-.337L8.224,4.058A.24.24,0,0,0,7.884,4.072Zm6.236-.5L11.136.868A.24.24,0,0,0,10.8.884L8.9,2.963a.24.24,0,0,0,.014.337l2.962,2.746a.24.24,0,0,0,.34-.015l1.922-2.116A.24.24,0,0,0,14.12,3.577ZM6.788,15.369h9A.211.211,0,0,0,16,15.157V13.875a.211.211,0,0,0-.211-.211H8.309a.324.324,0,0,0-.253.121Z"/></g>
</symbol>

<symbol id="reports" class="symbol" viewBox="0 0 16 16">
  <defs><style>.cls-1{fill:#010101;}</style></defs><title>reports</title><g id="Layer_1" data-name="Layer 1"><path class="cls-1" d="M7.686,1.145A7.144,7.144,0,1,0,15.243,8.81a.454.454,0,0,0-.454-.481H8.49a.322.322,0,0,1-.322-.322V1.6A.454.454,0,0,0,7.686,1.145Z"/><path class="cls-1" d="M9.633,1.616v4.8a.286.286,0,0,0,.286.286h4.974a.432.432,0,0,0,.42-.541,7.014,7.014,0,0,0-5.146-4.969A.434.434,0,0,0,9.633,1.616Z"/></g>
</symbol>

<symbol id="restricted" class="symbol" viewBox="0 0 16 16">
  <defs><style>.cls-1{fill:#231f20;}</style></defs><title>restricted</title><g id="Layer_1" data-name="Layer 1"><path class="cls-1" d="M8,.028a8,8,0,1,0,8,8A8,8,0,0,0,8,.028Zm0,2A5.972,5.972,0,0,1,12.1,3.66L2.71,10.853A6,6,0,0,1,8,2.028Zm0,12a5.97,5.97,0,0,1-4.062-1.6l9.375-7.18A5.992,5.992,0,0,1,8,14.028Z"/></g>
</symbol>

<symbol id="scholarship" class="symbol" viewBox="0 0 16 16">
  <defs><style>.cls-1{fill:#010101;}</style></defs><title>scholarship</title><g id="Layer_1" data-name="Layer 1"><path class="cls-1" d="M7.944,11.178A5.564,5.564,0,1,1,13.5,5.6,5.556,5.556,0,0,1,7.944,11.178Zm0-9.58a4.017,4.017,0,1,0,4.007,4.026A4.013,4.013,0,0,0,7.944,1.6Z"/><polygon class="cls-1" points="6.415 15.949 4.589 14.067 1.979 14.048 4.309 8.624 5.726 9.239 4.309 12.52 5.241 12.539 5.894 13.21 7.236 10.078 8.652 10.693 6.415 15.949"/><polygon class="cls-1" points="9.472 15.949 7.236 10.693 8.652 10.078 9.994 13.21 10.646 12.539 11.578 12.52 10.162 9.221 11.578 8.624 13.908 14.048 11.299 14.067 9.472 15.949"/><path class="cls-1" d="M7.944,3.208a2.406,2.406,0,1,0,2.4,2.411A2.4,2.4,0,0,0,7.944,3.208Z"/></g>
</symbol>

<symbol id="simple-arrow" class="symbol" viewBox="0 0 16 16">
  <defs><style>.cls-1{fill:#010201;}</style></defs><title>simple-arrow</title><g id="Layer_1" data-name="Layer 1"><polygon class="cls-1" points="9.178 1.378 7.456 3.136 11.159 6.915 0.179 6.915 0.179 9.4 11.159 9.4 7.456 13.179 9.178 14.937 15.821 8.157 9.178 1.378"/></g>
</symbol>

<symbol id="simple-person-outline" class="symbol" viewBox="0 0 16 16">
  <defs><style>.cls-1{fill:#231f20;}</style></defs><title>simple-person-outline</title><g id="Layer_1" data-name="Layer 1"><path class="cls-1" d="M12.178,9.274,9.866,8.231a3.8,3.8,0,1,0-3.732,0L3.822,9.274a1.891,1.891,0,0,0-1.114,1.72V14.1a.731.731,0,0,0,.733.729h9.117a.731.731,0,0,0,.733-.729V10.994A1.891,1.891,0,0,0,12.178,9.274ZM8,2.619A2.323,2.323,0,1,1,5.667,4.941,2.331,2.331,0,0,1,8,2.619Zm3.826,10.754H4.174V10.994a.43.43,0,0,1,.253-.391L8,8.991,11.573,10.6a.43.43,0,0,1,.253.391Z"/></g>
</symbol>

<symbol id="sort" class="symbol" viewBox="0 0 16 16">
  <defs><style>.cls-1{fill:#010101;}</style></defs><title>sort</title><g id="Layer_1" data-name="Layer 1"><path class="cls-1" d="M5.526,10.875H4.649V1.142h-2.4v9.732H1.371A.9.9,0,0,0,.71,12.349l2.077,2.479a.858.858,0,0,0,1.323,0l2.077-2.479A.9.9,0,0,0,5.526,10.875ZM15.29,3.933,13.213,1.454a.858.858,0,0,0-1.323,0L9.812,3.933a.9.9,0,0,0,.662,1.474h.878v9.732h2.4V5.407h.878A.9.9,0,0,0,15.29,3.933Z"/></g>
</symbol>

<symbol id="stripe" class="symbol" viewBox="0 0 16 16">
  <defs><style>.cls-1{fill:#231f20;}</style></defs><title>stripe</title><g id="Layer_1" data-name="Layer 1"><path class="cls-1" d="M1.011,9.891A3.145,3.145,0,0,1,.03,9.739V8.771a5.96,5.96,0,0,0,.835.146c.285,0,.464-.08.464-.385,0-.172-.139-.312-.325-.458L.687,7.816A1.536,1.536,0,0,1,0,6.516a1.344,1.344,0,0,1,1.512-1.4,2.9,2.9,0,0,1,.962.153v.941a3.594,3.594,0,0,0-.829-.139c-.245,0-.4.119-.4.371s.173.358.385.517l.312.232a1.464,1.464,0,0,1,.643,1.3C2.589,9.712,1.76,9.891,1.011,9.891Z"/><path class="cls-1" d="M4.215,9.891A.891.891,0,0,1,3.188,8.877V7.113H2.724v-.8h.464l.159-.8,1.1-.265V6.311H5.11l-.166.8h-.5V8.651c0,.239.073.285.212.285.093,0,.451-.053.451-.053v.9A5.079,5.079,0,0,1,4.215,9.891Z"/><path class="cls-1" d="M7.054,7.3a.824.824,0,0,0-.417.119V9.825H5.376V6.311h1l.186.338a.581.581,0,0,1,.563-.4.745.745,0,0,1,.391.073V7.365A2.017,2.017,0,0,0,7.054,7.3Z"/><path class="cls-1" d="M7.818,9.825V6.311h1.26V9.825Zm.63-3.945a.63.63,0,1,1,.623-.63A.624.624,0,0,1,8.448,5.88Z"/><path class="cls-1" d="M11.313,9.891a1.949,1.949,0,0,1-.444-.073v1.267H9.609V6.311h1.021l.185.219a1.128,1.128,0,0,1,.749-.285c.517,0,1.127.146,1.127,1.8C12.692,9.865,11.777,9.891,11.313,9.891Zm-.146-2.719a.838.838,0,0,0-.3.106v1.7a.964.964,0,0,0,.212.033c.219,0,.351-.186.351-.962S11.373,7.173,11.167,7.173Z"/><path class="cls-1" d="M14.278,8.486c0,.378.186.451.5.451A6.561,6.561,0,0,0,15.8,8.8v.915a3.5,3.5,0,0,1-1.028.179c-.789,0-1.75-.126-1.75-1.81,0-1.485.756-1.837,1.552-1.837.815,0,1.405.418,1.405,1.823v.418Zm.3-1.492c-.319,0-.285.391-.3.809h.531C14.809,7.392,14.829,6.994,14.577,6.994Z"/></g>
</symbol>

<symbol id="twitter-outline" class="symbol" viewBox="0 0 16 16">
  <defs><style>.cls-1{fill:#231f20;}</style></defs><title>twitter-outline</title><g id="Layer_1" data-name="Layer 1"><path class="cls-1" d="M15.535,2.824a1.178,1.178,0,0,0-.437-1.09,1.257,1.257,0,0,0-1.365-.107,4.417,4.417,0,0,1-.847.366,4.12,4.12,0,0,0-2.318-.717A3.949,3.949,0,0,0,6.675,4.32,6.741,6.741,0,0,1,3.109,2.18a1.2,1.2,0,0,0-1.02-.42,1.218,1.218,0,0,0-.942.571A3.687,3.687,0,0,0,.6,4.265,3.645,3.645,0,0,0,.792,5.441a1.212,1.212,0,0,0-.216.711,3.713,3.713,0,0,0,.975,2.5,1.184,1.184,0,0,0,.055.49,3.765,3.765,0,0,0,.8,1.353,4.746,4.746,0,0,1-1.023,0A1.217,1.217,0,0,0,.1,11.278a1.187,1.187,0,0,0,.5,1.409,9.353,9.353,0,0,0,4.87,1.357,8.809,8.809,0,0,0,9.065-8.41,6.588,6.588,0,0,0,1.129-1.219,1.159,1.159,0,0,0,.247-.719A1.181,1.181,0,0,0,15.535,2.824ZM13.33,5.054c.005.112.008.226.008.339A7.6,7.6,0,0,1,5.48,12.853a8.123,8.123,0,0,1-4.233-1.179,5.66,5.66,0,0,0,.658.037,5.729,5.729,0,0,0,3.431-1.123,2.747,2.747,0,0,1-2.58-1.82A2.9,2.9,0,0,0,4,8.723,2.661,2.661,0,0,1,1.787,6.152V6.119a2.864,2.864,0,0,0,1.252.328A2.589,2.589,0,0,1,1.81,4.265a2.5,2.5,0,0,1,.374-1.317A7.994,7.994,0,0,0,7.876,5.687a2.5,2.5,0,0,1-.072-.6,2.7,2.7,0,0,1,2.763-2.622,2.827,2.827,0,0,1,2.016.829,5.736,5.736,0,0,0,1.753-.636,2.66,2.66,0,0,1-1.214,1.45A5.763,5.763,0,0,0,14.708,3.7,5.485,5.485,0,0,1,13.33,5.054Z"/></g>
</symbol>

<symbol id="undo" class="symbol" viewBox="0 0 16 16">
  <defs><style>.cls-1{fill:#010101;}</style></defs><title>undo</title><g id="Layer_1" data-name="Layer 1"><path class="cls-1" d="M15.5,12.857a5.966,5.966,0,0,0-.072-.93l-.08-.533-.14-.562A9.381,9.381,0,0,0,14.8,9.638a9.732,9.732,0,0,0-.64-1.206,10.669,10.669,0,0,0-.839-1.155,9.621,9.621,0,0,0-1.029-1.014,10.956,10.956,0,0,0-1.136-.846,10.158,10.158,0,0,0-1.183-.626L9.4,4.547l-.557-.179c-.185-.053-.341-.115-.53-.153l-.528-.107-.469-.086-.105-.013V1.716a.721.721,0,0,0-1.183-.549L.75,5.535a.712.712,0,0,0,0,1.1L6.025,11a.721.721,0,0,0,1.183-.549V8.24l.093.008.24.009a2.665,2.665,0,0,1,.308.044l.349.054.365.1c.259.051.51.169.789.255a7.392,7.392,0,0,1,.8.406,9.241,9.241,0,0,1,.79.521,7.517,7.517,0,0,1,.707.649,8.666,8.666,0,0,1,.621.717,8.81,8.81,0,0,1,.479.762l.205.372.154.367a4.9,4.9,0,0,1,.243.664l.093.286.056.248.11.48.028.122a.909.909,0,0,0,1.79-.122l.054-.611.025-.326C15.506,13.122,15.5,12.994,15.5,12.857Z"/></g>
</symbol>

<symbol id="view" class="symbol" viewBox="0 0 16 16">
  <defs><style>.cls-1{fill:#020202;}</style></defs><title>view</title><g id="Layer_1" data-name="Layer 1"><path class="cls-1" d="M15.993,7.861c-.505-.9-3.5-5.569-7.984-5.569S.563,6.963.067,7.862a.285.285,0,0,0,0,.276c.5.9,3.453,5.571,7.943,5.571s7.478-4.667,7.984-5.569A.285.285,0,0,0,15.993,7.861ZM8.07,12.036A4.04,4.04,0,1,1,12.11,8,4.04,4.04,0,0,1,8.07,12.036Z"/><path class="cls-1" d="M8.236,5.986c0,.051.007.1.007.155a1.834,1.834,0,0,1-2.189,1.8c0,.019,0,.037,0,.056A2.018,2.018,0,1,0,8.236,5.986Z"/></g>
</symbol>
    </svg>