<svg xmlns="http://www.w3.org/2000/svg" xmlns:xlink="http://www.w3.org/1999/xlink">
    
<symbol id="add-circle" viewBox="0 0 16 16">
  <title>add-circle</title><g id="Layer_1" data-name="Layer 1"><path d="M8.687,4.355H7.672V7.493H4.534V8.507H7.672v3.138H8.687V8.507h3.138V7.493H8.687ZM8.179.284A7.716,7.716,0,1,0,15.9,8,7.724,7.724,0,0,0,8.179.284Zm0,14.417a6.7,6.7,0,1,1,6.7-6.7A6.709,6.709,0,0,1,8.179,14.7Z"></path></g>
</symbol>

<symbol id="add-ons-outline" viewBox="0 0 16 16">
  <title>add-ons-outline</title><g id="Layer_1" data-name="Layer 1"><path d="M14.935,3.515h-.666v-1a.981.981,0,0,0-.98-.979H10.421a.981.981,0,0,0-.98.979v1H6.776v-1A.98.98,0,0,0,5.8,1.532H2.929a.981.981,0,0,0-.98.979v1H1.1A1.029,1.029,0,0,0,.071,4.542v9.519A1.029,1.029,0,0,0,1.1,15.088H14.935a1.029,1.029,0,0,0,1.028-1.027V4.542A1.029,1.029,0,0,0,14.935,3.515Zm-.373,10.173H1.472V4.915H3.35V2.932H5.376V4.915h5.466V2.932h2.026V4.915h1.694Zm-4.2-5.021v1.522a.1.1,0,0,1-.1.1H8.89V11.66a.1.1,0,0,1-.1.1H7.266a.1.1,0,0,1-.1-.1V10.291H5.8a.1.1,0,0,1-.1-.1V8.667a.1.1,0,0,1,.1-.1H7.164V7.2a.1.1,0,0,1,.1-.1H8.788a.1.1,0,0,1,.1.1V8.565h1.369A.1.1,0,0,1,10.361,8.667Z" fill-rule="evenodd"></path></g>
</symbol>

<symbol id="add-ons" viewBox="0 0 16 16">
  <title>add-ons</title><g id="Layer_1" data-name="Layer 1"><path d="M15.325,4.27H13.138V2.243a.408.408,0,0,0-.408-.407H9.888a.407.407,0,0,0-.407.407V4.27H6.659V2.243a.408.408,0,0,0-.408-.407H3.409A.407.407,0,0,0,3,2.243V4.27H.675a.592.592,0,0,0-.592.592v9.524a.592.592,0,0,0,.592.592h14.65a.592.592,0,0,0,.592-.592V4.862A.592.592,0,0,0,15.325,4.27Zm-4.991,5.919a.1.1,0,0,1-.1.1H8.863V11.66a.1.1,0,0,1-.1.1H7.239a.1.1,0,0,1-.1-.1V10.291H5.768a.1.1,0,0,1-.1-.1V8.667a.1.1,0,0,1,.1-.1H7.137V7.2a.1.1,0,0,1,.1-.1H8.761a.1.1,0,0,1,.1.1V8.565h1.369a.1.1,0,0,1,.1.1Z" fill-rule="evenodd"></path></g>
</symbol>

<symbol id="assignments" viewBox="0 0 16 16">
  <title>assignments</title><g id="Layer_1" data-name="Layer 1"><path d="M3.473,12.8v-.789a.959.959,0,0,1,.663-.935l1.2-.385v-.343l-.451-.289a.756.756,0,0,1-.347-.641V8.4A1.406,1.406,0,0,1,6.015,7.044h0A1.379,1.379,0,0,1,7.465,8.4V9.415a.756.756,0,0,1-.347.641l-.451.289v.343l1.2.385a.959.959,0,0,1,.663.935V12.8c0,.084-.042.1-.126.1H3.634C3.55,12.9,3.473,12.881,3.473,12.8Zm7.984,1.6a1.166,1.166,0,0,1-1.166,1.166H1.446A1.166,1.166,0,0,1,.28,14.394V5.549A1.166,1.166,0,0,1,1.446,4.383h8.845a1.166,1.166,0,0,1,1.166,1.166ZM9.86,5.98H1.877v7.983H9.86ZM14.128,10H12.8v1.6H14.72a1.044,1.044,0,0,0,1-1.014V8.665h-1.6ZM5.878,2.012H7.209V.416H5.4c-.532,0-1.114.306-1.114.838V3.077h1.6Zm5.589-1.6H8.539v1.6h2.928Zm3.253,0H12.8v1.6h1.331V3.077h1.6V1.254A.9.9,0,0,0,14.72.416Zm-.592,6.919h1.6V4.407h-1.6Z"></path></g>
</symbol>

<symbol id="attendee-type-outline" viewBox="0 0 16 16">
  <title>attendee-type-outline</title><g id="Layer_1" data-name="Layer 1"><path d="M12.493,13.815a.577.577,0,0,1-.561.567.583.583,0,0,1-.559-.54.114.114,0,0,1,0-.027.086.086,0,0,1,0-.029.56.56,0,0,1,1.119.029Zm3.545-2.121a4.093,4.093,0,0,1-6.415,3.377H.9a.837.837,0,0,1-.836-.837v-1.26c0-.295,0-1.078,3.423-2.326C5.326,9.978,5.623,9.5,5.623,8.631c0-.147-.014-.162-.144-.311a2.634,2.634,0,0,1-.668-1.449c-.384-.157-.646-.455-.713-1.344a1.432,1.432,0,0,1,.237-.846c-.047-.28-.119-.737-.155-1.12a2.862,2.862,0,0,1,.75-2.088A3.549,3.549,0,0,1,7.692.417a3.549,3.549,0,0,1,2.762,1.056,2.862,2.862,0,0,1,.75,2.088c-.036.382-.107.837-.154,1.118a1.356,1.356,0,0,1,.237.81c-.067.917-.325,1.219-.718,1.411a2.859,2.859,0,0,1-.444,1.137A4.055,4.055,0,0,1,11.938,7.6,4.1,4.1,0,0,1,16.038,11.694ZM8.4,14.071A4.233,4.233,0,0,1,8.767,8.83c0-.064-.007-.131-.007-.2a1.308,1.308,0,0,1,.394-.972,1.672,1.672,0,0,0,.437-.971.868.868,0,0,1,.532-.683c.055-.028.133-.121.165-.553a.3.3,0,0,0-.046-.183l-.353-.163.132-.345c0-.006.134-.733.187-1.294a1.875,1.875,0,0,0-.493-1.321,2.614,2.614,0,0,0-2.023-.729,2.613,2.613,0,0,0-2.023.729,1.87,1.87,0,0,0-.493,1.321c.053.561.186,1.288.187,1.294l.072.382-.33.151a1.616,1.616,0,0,0-.008.2.99.99,0,0,0,.109.489.912.912,0,0,1,.587.71,1.667,1.667,0,0,0,.436.971,1.308,1.308,0,0,1,.394.972c0,1.629-.982,2.3-2.8,2.957-2.079.758-2.708,1.3-2.775,1.446l.009,1.037Zm6.639-2.377a3.1,3.1,0,1,0-3.1,3.1A3.1,3.1,0,0,0,15.038,11.694ZM12.161,9.348a1.983,1.983,0,0,0-1.716.683.091.091,0,0,0,0,.129l.455.5a.091.091,0,0,0,.129,0,1.075,1.075,0,0,1,1.107-.413c.446.1.322.529.07.739-.379.317-.8.524-.839,1.069a.069.069,0,0,0,0,.025.089.089,0,0,0,0,.023.953.953,0,0,0,.26.619.091.091,0,0,0,.089.023l.6-.2a.092.092,0,0,0,.04-.152c-.436-.419.451-.837.7-1.062a1.138,1.138,0,0,0,.294-1.262A1.351,1.351,0,0,0,12.161,9.348Z"></path></g>
</symbol>

<symbol id="attendee-type" viewBox="0 0 16 16">
  <title>attendee-type</title><g id="Layer_1" data-name="Layer 1"><path d="M12.751,9.28a3.227,3.227,0,1,0,3.227,3.227A3.227,3.227,0,0,0,12.751,9.28Zm-.007,5.429a.473.473,0,0,1-.454-.44.052.052,0,0,1,0-.022.055.055,0,0,1,0-.023.456.456,0,0,1,.911.023A.469.469,0,0,1,12.744,14.709Zm.91-2.483c-.2.183-.922.524-.568.865a.075.075,0,0,1-.032.124l-.487.164a.072.072,0,0,1-.072-.019.772.772,0,0,1-.211-.5.055.055,0,0,1,0-.018.112.112,0,0,1,0-.02c.028-.445.375-.613.683-.871.206-.171.307-.519-.056-.6a.875.875,0,0,0-.9.337.074.074,0,0,1-.105,0l-.371-.411a.075.075,0,0,1,0-.1,1.616,1.616,0,0,1,1.4-.557,1.1,1.1,0,0,1,.962.589A.924.924,0,0,1,13.654,12.226Z"></path><path d="M11.155,4.851s.156-.846.217-1.5c.076-.81-.468-2.9-3.372-2.9s-3.449,2.1-3.372,2.905c.061.651.217,1.5.217,1.5s-.308.142-.308.713c.108,1.434.672.816.789,1.444.281,1.515.919,1.245.919,2.071,0,1.378-.668,2.021-2.761,2.783S.022,13.407.022,13.939v1.513A.548.548,0,0,0,.57,16h9.474a4.793,4.793,0,0,1-1.52-3.493,4.217,4.217,0,0,1,1.259-3,3.329,3.329,0,0,1-.028-.424c0-.826.638-.556.919-2.071.116-.628.68-.01.789-1.444C11.463,4.993,11.155,4.851,11.155,4.851ZM15.458,16h.52v-.521A4.2,4.2,0,0,1,15.458,16Z"></path></g>
</symbol>

<symbol id="bank" viewBox="0 0 16 16">
  <title>bank</title><g id="Layer_1" data-name="Layer 1"><path d="M13.778.118H2.222A1.214,1.214,0,0,0,1.009,1.331V12.888A1.215,1.215,0,0,0,2.1,14.1v.418A1.448,1.448,0,0,0,3.548,15.96H4.875a1.448,1.448,0,0,0,1.446-1.447V14.1H9.61v.412a1.448,1.448,0,0,0,1.446,1.447h1.327a1.448,1.448,0,0,0,1.446-1.447V14.1a1.213,1.213,0,0,0,1.162-1.21V1.331A1.214,1.214,0,0,0,13.778.118ZM2.222,1.329l11.559,0,0,11.559h0l-11.559,0ZM5.11,14.513a.235.235,0,0,1-.235.236H3.548a.236.236,0,0,1-.236-.236v-.389h1.8Zm7.509,0a.236.236,0,0,1-.236.236H11.056a.236.236,0,0,1-.236-.236v-.389h1.8Z"></path><path d="M3.053,12.056h9.894V2.163H3.053ZM4.264,3.373h7.472v7.473H4.264Z"></path><path d="M10.252,6.589h-.3a2.005,2.005,0,0,0-.164-.423l.3-.3a.605.605,0,1,0-.856-.856l-.3.3a2.038,2.038,0,0,0-.414-.163V4.86a.606.606,0,1,0-1.211,0v.322a2.114,2.114,0,0,0-.268.114l-.285-.285a.605.605,0,0,0-.856.856l.276.276A1.961,1.961,0,0,0,6,6.589H5.582a.606.606,0,0,0,0,1.211h.47a2.132,2.132,0,0,0,.119.272L5.9,8.341a.605.605,0,0,0,.856.856l.272-.271a2.124,2.124,0,0,0,.281.121v.482a.606.606,0,1,0,1.211,0V9.085a2.1,2.1,0,0,0,.428-.17l.282.282a.605.605,0,0,0,.856-.856L9.8,8.049A2.2,2.2,0,0,0,9.9,7.8h.348a.606.606,0,0,0,0-1.211ZM7.978,7.734a.62.62,0,1,1,.62-.62A.621.621,0,0,1,7.978,7.734Z"></path></g>
</symbol>

<symbol id="bell" viewBox="0 0 16 16">
  <title>bell</title><g id="Layer_1" data-name="Layer 1"><path d="M14.885,11.5,13.063,9.432v-3.1A4.8,4.8,0,0,0,8.18,1.623,4.8,4.8,0,0,0,3.3,6.332v3.1L1.474,11.5a1.193,1.193,0,0,0-.187,1.323,1.275,1.275,0,0,0,1.166.72H6.092a2.256,2.256,0,0,0,4.174,0h3.64a1.275,1.275,0,0,0,1.166-.72A1.193,1.193,0,0,0,14.885,11.5Zm-.732.913a.264.264,0,0,1-.247.153H2.453a.264.264,0,0,1-.247-.153.247.247,0,0,1,.04-.28l1.943-2.2a.479.479,0,0,0,.121-.317V6.332A3.807,3.807,0,0,1,8.18,2.6a3.807,3.807,0,0,1,3.869,3.732V9.611a.479.479,0,0,0,.121.317l1.943,2.2A.247.247,0,0,1,14.153,12.411Z"></path></g>
</symbol>

<symbol id="bill" viewBox="0 0 16 16">
  <title>bill</title><g id="Layer_1" data-name="Layer 1"><path d="M11.061,6.217a4.187,4.187,0,0,0-.72-1.244,3.407,3.407,0,0,0-1.054-.832,2.833,2.833,0,0,0-1.3-.3,2.863,2.863,0,0,0-1.3.3,3.362,3.362,0,0,0-1.057.832,3.914,3.914,0,0,0-.706,1.244,4.688,4.688,0,0,0,0,3.056,3.925,3.925,0,0,0,.706,1.244,3.391,3.391,0,0,0,1.057.832,2.908,2.908,0,0,0,2.593,0,3.406,3.406,0,0,0,1.058-.832,4.2,4.2,0,0,0,.72-1.244,4.49,4.49,0,0,0,0-3.056Zm-1.085,3.8h-3.8V9.011H7.384V6.4c-.023.041-.572.547-.572.547L6,6.173l1.544-1.3H8.754V9.011H9.976Z"></path><path d="M15.794,1.917a.669.669,0,0,0-.463-.176H.687a.693.693,0,0,0-.481.176.543.543,0,0,0-.195.418v10.8a.556.556,0,0,0,.195.434.689.689,0,0,0,.481.177H15.331a.665.665,0,0,0,.463-.177.556.556,0,0,0,.2-.434V2.335A.543.543,0,0,0,15.794,1.917Zm-14.22,8.23a1.8,1.8,0,0,0-.363.037V5.306a1.791,1.791,0,0,0,.363.038,2.476,2.476,0,0,0,2.472-2.4h7.936a2.476,2.476,0,0,0,2.472,2.4,1.787,1.787,0,0,0,.335-.035v4.872a1.881,1.881,0,0,0-.335-.034,2.475,2.475,0,0,0-2.472,2.4H4.046A2.475,2.475,0,0,0,1.574,10.147Z"></path></g>
</symbol>

<symbol id="calendar-outline" viewBox="0 0 16 16">
  <title>calendar-outline</title><g id="Layer_1" data-name="Layer 1"><path d="M14.758,6.038V2.612a.872.872,0,0,0-.852-.891H12.683v-.8a.853.853,0,1,0-1.7,0v.8H4.809v-.8a.853.853,0,1,0-1.7,0v.8H1.981a.872.872,0,0,0-.851.891V15.086a.872.872,0,0,0,.851.891H13.906a.872.872,0,0,0,.852-.891V6.313a.922.922,0,0,0,.027-.137A.91.91,0,0,0,14.758,6.038Zm-1.7,8.157H2.833V7.067H13.054Zm0-8.91H2.833V3.5H13.054Zm-8.245,4.9A.886.886,0,1,0,3.962,9.3.866.866,0,0,0,4.809,10.186Zm3.161,0A.886.886,0,1,0,7.124,9.3.867.867,0,0,0,7.97,10.186Zm3.162,0a.886.886,0,1,0-.846-.886A.867.867,0,0,0,11.132,10.186ZM4.809,12.859a.886.886,0,1,0-.847-.885A.866.866,0,0,0,4.809,12.859Zm3.161,0a.886.886,0,1,0-.846-.885A.866.866,0,0,0,7.97,12.859Zm3.162,0a.886.886,0,1,0-.846-.885A.866.866,0,0,0,11.132,12.859Z"></path></g>
</symbol>

<symbol id="capacity" viewBox="0 0 16 16">
  <title>capacity</title><g id="Layer_1" data-name="Layer 1"><path d="M8.731,7.813,6.919,6.988A3.049,3.049,0,1,0,3.645,7l-1.792.816a2.529,2.529,0,0,0-1.478,2.3v2.434A1.826,1.826,0,0,0,2.2,14.368H8.385a1.827,1.827,0,0,0,1.824-1.824V10.11A2.531,2.531,0,0,0,8.731,7.813ZM5.275,2.781A1.648,1.648,0,1,1,3.627,4.429,1.649,1.649,0,0,1,5.275,2.781Zm3.532,9.763a.423.423,0,0,1-.422.423H2.2a.424.424,0,0,1-.423-.423V10.11a1.126,1.126,0,0,1,.657-1.022l2.859-1.3,2.858,1.3a1.126,1.126,0,0,1,.657,1.022Z"></path><path d="M14.383,6.665l-1.114-.507a2.479,2.479,0,1,0-3.136.007l-.249.114a.7.7,0,0,0,.581,1.275l1.244-.566L13.8,7.94a.681.681,0,0,1,.4.619V10.4a.15.15,0,0,1-.15.15H11.906a.7.7,0,0,0,0,1.4H14.05A1.552,1.552,0,0,0,15.6,10.4V8.559A2.086,2.086,0,0,0,14.383,6.665ZM11.7,3.182A1.077,1.077,0,1,1,10.62,4.259,1.078,1.078,0,0,1,11.7,3.182Z"></path></g>
</symbol>

<symbol id="cc" viewBox="0 0 16 16">
  <title>cc</title><g id="Layer_1" data-name="Layer 1"><rect x="5.177" y="10.18" width="2.049" height="1.165"></rect><rect x="2.499" y="10.18" width="2.049" height="1.165"></rect><path d="M12.008,8.288A1.517,1.517,0,0,0,11,8.674a1.529,1.529,0,1,0,0,2.285,1.512,1.512,0,0,0,1.006.386,1.529,1.529,0,0,0,0-3.057Z"></path><path d="M15.388,1.741H.623a.607.607,0,0,0-.536.332.519.519,0,0,0-.076.262v10.8h0a.574.574,0,0,0,.045.221l0,.016,0,0a.61.61,0,0,0,.561.37H15.388A.612.612,0,0,0,16,13.137V2.353A.612.612,0,0,0,15.388,1.741ZM14.65,5.373H1.361V3.091H14.65ZM1.361,12.4V6.867H14.65V12.4Z"></path></g>
</symbol>

<symbol id="check" viewBox="0 0 16 16">
  <title>check</title><g id="Layer_1" data-name="Layer 1"><rect x="3.358" y="8.971" width="2.56" height="0.995"></rect><rect x="3.358" y="6.907" width="7.919" height="0.995"></rect><rect x="3.358" y="4.934" width="3.731" height="0.995"></rect><rect x="6.696" y="8.971" width="2.56" height="0.995"></rect><polygon points="10.188 9.965 11.183 8.971 10.087 8.971 10.087 9.965 10.188 9.965"></polygon><path d="M14.62,11.981H13.581l-1.347,1.35h3.125a.612.612,0,0,0,.611-.611V9.586l-1.35,1.353Z"></path><path d="M1.331,3.091H14.62V5.6l1.35-1.339V2.353a.612.612,0,0,0-.611-.612H.593a.612.612,0,0,0-.612.612V12.72a.612.612,0,0,0,.612.611h6.27L8.2,11.981H1.331Z"></path><rect x="9.493" y="9.048" width="6.877" height="1.771" transform="translate(-3.236 12.055) rotate(-45.007)"></rect><polygon points="8.879 12.734 8.933 13.967 10.131 13.986 10.628 13.489 9.376 12.236 8.879 12.734"></polygon></g>
</symbol>

<symbol id="circle-clock" viewBox="0 0 16 16">
  <title>circle-clock</title><g id="Layer_1" data-name="Layer 1"><path d="M8.047,16.07a8.022,8.022,0,1,1,8.021-8.021A8.03,8.03,0,0,1,8.047,16.07Zm0-14.673A6.652,6.652,0,1,0,14.7,8.049,6.659,6.659,0,0,0,8.047,1.4Z"></path><path d="M10.933,10.276c-.108,0-.12-.025-.222-.079L7.583,8.5V4.083a.777.777,0,0,1,1.543,0V7.67l2.31,1.316a.659.659,0,0,1,.2.925A.838.838,0,0,1,10.933,10.276Z"></path></g>
</symbol>

<symbol id="circle-money" viewBox="0 0 16 16">
  <title>circle-money</title><g id="Layer_1" data-name="Layer 1"><path d="M8.427,9.935a1.145,1.145,0,0,1-.707.186,2.434,2.434,0,0,1-.95-.2.6.6,0,0,0-.487.01.61.61,0,0,0,.038,1.122,3.707,3.707,0,0,0,1.163.235v.247a.643.643,0,1,0,1.286,0v-.367c0-.012,0-.023,0-.034a2.179,2.179,0,0,0,.658-.355,1.715,1.715,0,0,0,.66-1.4,1.647,1.647,0,0,0-.406-1.133A3.007,3.007,0,0,0,8.418,7.5,2.462,2.462,0,0,1,7.591,7.1a.494.494,0,0,1-.158-.374.5.5,0,0,1,.188-.411.859.859,0,0,1,.571-.172,2.157,2.157,0,0,1,.764.142.614.614,0,0,0,.476-.018.591.591,0,0,0,.31-.346.6.6,0,0,0-.348-.753A3,3,0,0,0,8.77,5.01V4.558a.643.643,0,0,0-1.286,0v.5a2.077,2.077,0,0,0-.86.444,1.728,1.728,0,0,0-.619,1.346c0,.8.569,1.405,1.692,1.789a2.17,2.17,0,0,1,.766.386.593.593,0,0,1,.182.453A.537.537,0,0,1,8.427,9.935Z"></path><path d="M8.008,16.07a8.022,8.022,0,1,1,8.021-8.021A8.031,8.031,0,0,1,8.008,16.07Zm0-14.673A6.652,6.652,0,1,0,14.66,8.049,6.66,6.66,0,0,0,8.008,1.4Z"></path></g>
</symbol>

<symbol id="circle-person" viewBox="0 0 16 16">
  <title>circle-person</title><g id="Layer_1" data-name="Layer 1"><path d="M10.549,8.345h0L9.65,7.9a2.329,2.329,0,1,0-3.257,0l-.9.448a1.264,1.264,0,0,0-.7,1.138v1.445a1.206,1.206,0,0,0,1.205,1.205h4.055a1.206,1.206,0,0,0,1.205-1.2V9.484A1.265,1.265,0,0,0,10.549,8.345ZM8.021,5.277a.96.96,0,1,1-.959.96A.962.962,0,0,1,8.021,5.277Zm1.864,5.488H6.158V9.544l1.863-.928,1.864.928Z"></path><path d="M8.021,0a8.021,8.021,0,1,0,8.022,8.021A8.03,8.03,0,0,0,8.021,0Zm0,14.673a6.652,6.652,0,1,1,6.652-6.652A6.659,6.659,0,0,1,8.021,14.673Z"></path></g>
</symbol>

<symbol id="clock" viewBox="0 0 16 16">
  <title>clock</title><g id="Layer_1" data-name="Layer 1"><path d="M8,2.028a6,6,0,1,1-6,6,6.007,6.007,0,0,1,6-6m0-2a8,8,0,1,0,8,8,8,8,0,0,0-8-8Z"></path><path d="M10.941,9.416H7.985a1,1,0,0,1-1-1v-4.6a1,1,0,1,1,2,0v3.6h1.956a1,1,0,0,1,0,2Z"></path></g>
</symbol>

<symbol id="comment-outline" viewBox="0 0 16 16">
  <title>comment-outline</title><g id="Layer_1" data-name="Layer 1"><path d="M1.015,15.992A1,1,0,0,1,.048,14.75l.8-3.2a7.972,7.972,0,1,1,3.608,3.613l-3.2.8A1,1,0,0,1,1.015,15.992ZM4.584,13.1a1,1,0,0,1,.488.128,6,6,0,1,0-2.294-2.3,1,1,0,0,1,.1.732L2.387,13.62l1.955-.488A1,1,0,0,1,4.584,13.1Z"></path></g>
</symbol>

<symbol id="contact-outline" viewBox="0 0 16 16">
  <title>contact-outline</title><g id="Layer_1" data-name="Layer 1"><path d="M13.213,6.183H8.482V5.065h4.731Z"></path><rect x="3.193" y="5.065" width="4.213" height="4.213"></rect><path d="M13.388,2H2.434A2.436,2.436,0,0,0,0,4.436v7.3a2.437,2.437,0,0,0,2.434,2.434H3.651a.609.609,0,0,0,.609-.609v-.608h.608v.608a.609.609,0,0,0,.609.609h4.869a.608.608,0,0,0,.608-.609v-.608h.609v.608a.608.608,0,0,0,.608.609h1.217a2.437,2.437,0,0,0,2.435-2.434v-7.3A2.436,2.436,0,0,0,13.388,2Zm1.217,9.737a1.218,1.218,0,0,1-1.217,1.217H12.78v-.609a.608.608,0,0,0-.609-.608H10.346a.608.608,0,0,0-.609.608v.609H6.086v-.609a.609.609,0,0,0-.609-.608H3.651a.608.608,0,0,0-.608.608v.609H2.434a1.218,1.218,0,0,1-1.217-1.217v-7.3A1.218,1.218,0,0,1,2.434,3.219H13.388a1.218,1.218,0,0,1,1.217,1.217Z"></path><rect x="8.482" y="7.326" width="3.248" height="1.118"></rect></g>
</symbol>

<symbol id="dial" viewBox="0 0 16 16">
  <title>dial</title><g id="Layer_1" data-name="Layer 1"><path d="M11.215,9.087,8.058,8.769a1.489,1.489,0,0,0-.626.075,1.451,1.451,0,0,0,.481,2.82,1.469,1.469,0,0,0,.483-.083l2.991-1.054h0a.743.743,0,0,0-.173-1.44Zm-.058.79L8.167,10.93a.761.761,0,1,1-.251-1.478c.025,0,.05,0,.074,0l3.156.319a.058.058,0,0,1,.047.058A.053.053,0,0,1,11.157,9.877ZM8,.345a7.7,7.7,0,1,0,7.7,7.7A7.711,7.711,0,0,0,8,.345ZM8,15.058a7.012,7.012,0,1,1,7.014-7.012A7.021,7.021,0,0,1,8,15.058ZM8,2.5A5.553,5.553,0,0,0,2.452,8.046v.345H3.823V7.7H3.154a4.85,4.85,0,0,1,4.5-4.478V4.331h.69V3.223a4.85,4.85,0,0,1,4.5,4.478h-.672v.69h1.374V8.046A5.553,5.553,0,0,0,8,2.5Z"></path></g>
</symbol>

<symbol id="discount" viewBox="0 0 16 16">
  <title>discount</title><g id="Layer_1" data-name="Layer 1"><path d="M10.324,4.973A3.384,3.384,0,0,0,9.27,4.141a2.828,2.828,0,0,0-1.3-.3,2.86,2.86,0,0,0-1.3.3,3.377,3.377,0,0,0-1.058.832,3.912,3.912,0,0,0-.7,1.244,4.671,4.671,0,0,0,0,3.056,3.923,3.923,0,0,0,.705,1.244,3.406,3.406,0,0,0,1.058.832,2.908,2.908,0,0,0,2.593,0,3.391,3.391,0,0,0,1.057-.832,4.156,4.156,0,0,0,.72-1.244,4.474,4.474,0,0,0,0-3.056A4.144,4.144,0,0,0,10.324,4.973ZM9.96,10.019h-3.8V9.011h1.2V6.4c-.023.041-.571.547-.571.547l-.815-.775,1.544-1.3H8.738V9.011H9.96Zm1.166-8.278H8.953V2.947h2.173ZM8.953,13.749h2.173v-1.2H8.953ZM15.858,2.04a.607.607,0,0,0-.516-.3H13.61V2.947h1V4.1h1.35V2.335A.527.527,0,0,0,15.858,2.04ZM3.765,11.61a2.44,2.44,0,0,0-.568-.762,2.747,2.747,0,0,0-.845-.512,2.834,2.834,0,0,0-1.035-.191v-4.8a2.834,2.834,0,0,0,1.035-.191A2.728,2.728,0,0,0,3.2,4.642a2.452,2.452,0,0,0,.568-.762,2.111,2.111,0,0,0,.213-.933H6.469V1.741H.657a.694.694,0,0,0-.481.176.542.542,0,0,0-.194.418v10.8a.556.556,0,0,0,.194.434.69.69,0,0,0,.481.177H6.469v-1.2H3.979A2.12,2.12,0,0,0,3.765,11.61ZM14.609,8.672h1.35V6.587h-1.35Zm0,3.874h-1v1.2h1.732a.611.611,0,0,0,.538-.331.553.553,0,0,0,.079-.28V11.156h-1.35Z"></path></g>
</symbol>

<symbol id="drag" viewBox="0 0 16 16">
  <title>drag</title><g id="Layer_1" data-name="Layer 1"><path d="M14.412,7.382,12.764,5.967a.594.594,0,0,0-.98.451v.748l-3.14,0V3.977h.7A.593.593,0,0,0,9.794,3L8.38,1.349a.594.594,0,0,0-.9,0L6.065,3a.593.593,0,0,0,.45.98h.7V7.162l-3.14,0V6.418a.594.594,0,0,0-.98-.451L1.447,7.382a.593.593,0,0,0,0,.9L3.1,9.7a.593.593,0,0,0,.98-.45V8.588l3.14,0v3.1h-.7a.593.593,0,0,0-.45.98l1.414,1.648a.594.594,0,0,0,.9,0l1.414-1.648a.593.593,0,0,0-.45-.98h-.7V8.592l3.14,0v.651a.593.593,0,0,0,.98.45l1.648-1.414A.593.593,0,0,0,14.412,7.382Z"></path></g>
</symbol>

<symbol id="edit" viewBox="0 0 16 16">
  <title>edit</title><g id="Layer_1" data-name="Layer 1"><path d="M9.649,3.178l-7.9,7.9-.8,3.358a.511.511,0,0,0,.618.618L4.9,14.225l7.9-7.9Z"></path><path d="M13.552,5.571,15,4.12a1.119,1.119,0,0,0,.066-1.566L13.5.984A1.214,1.214,0,0,0,11.855.972L10.4,2.423Z"></path></g>
</symbol>

<symbol id="email-envelope" viewBox="0 0 16 16">
  <title>email-envelope</title><g id="Layer_1" data-name="Layer 1"><path d="M.86,4.635,7.3,7.761a1.069,1.069,0,0,0,.818,0l6.948-3.432a.358.358,0,0,0,.2-.321,1,1,0,0,0-1-1H1.67A1.016,1.016,0,0,0,.659,4.018v.295A.356.356,0,0,0,.86,4.635Zm13.761,1.5-5.867,2.9a2.45,2.45,0,0,1-1.026.225,2.484,2.484,0,0,1-1.022-.219L1.3,6.427a.448.448,0,0,0-.642.406V11.49a.978.978,0,0,0,.973.978H14.184a1.089,1.089,0,0,0,1.083-1.088V6.537A.448.448,0,0,0,14.621,6.133Z"></path></g>
</symbol>

<symbol id="email" viewBox="0 0 16 16">
  <title>email</title><g id="Layer_1" data-name="Layer 1"><path d="M13.2,3.735H2.988A1.455,1.455,0,0,0,1.527,5.18v5.871a1.454,1.454,0,0,0,1.461,1.443H13.2a1.453,1.453,0,0,0,1.461-1.443V5.18A1.454,1.454,0,0,0,13.2,3.735ZM5.49,8.13,2.775,10.153V6.525Zm1.155.683.817.483a1.275,1.275,0,0,0,1.3,0l.816-.482,3.287,2.448h-9.5Zm4.085-.682,2.682-1.586v3.584ZM2.988,4.968H13.2a.2.2,0,0,1,.19.154L8.1,8.238l-5.3-3.131A.2.2,0,0,1,2.988,4.968Z"></path></g>
</symbol>

<symbol id="eve-closed" viewBox="0 0 16 16">
  <title>eve-closed</title><g id="Layer_1" data-name="Layer 1"><path d="M15.122,8a11.651,11.651,0,0,0-1.864-2.259.573.573,0,0,0-.829.047.624.624,0,0,0,.046.86,10.207,10.207,0,0,1,1.444,1.689,8.874,8.874,0,0,1-2.774,2.686.62.62,0,0,0-.222.829.581.581,0,0,0,.512.309.564.564,0,0,0,.288-.079,10.293,10.293,0,0,0,3.4-3.408A.627.627,0,0,0,15.122,8Zm-3-4.29a.622.622,0,0,0-.16-.845.574.574,0,0,0-.815.165l-.634.975a4.445,4.445,0,0,0-.824-.228c-3.057-.7-6.156.881-8.3,4.223a.627.627,0,0,0,0,.674,10.126,10.126,0,0,0,3.749,3.6l-.58.891a.623.623,0,0,0,.16.845.571.571,0,0,0,.327.1.58.58,0,0,0,.488-.269l2.343-3.6a1.816,1.816,0,0,0,.378.039,1.911,1.911,0,0,0,1.877-1.944,1.984,1.984,0,0,0-.315-1.078Zm-3.24,2.8a1.791,1.791,0,0,0-.63-.121A1.912,1.912,0,0,0,6.379,8.341a1.972,1.972,0,0,0,.482,1.29L5.805,11.256A8.6,8.6,0,0,1,2.593,8.341C4.475,5.609,6.968,4.387,9.484,4.98A.577.577,0,0,0,9.6,5a1.782,1.782,0,0,1,.251.037Z"></path></g>
</symbol>

<symbol id="event-settings" viewBox="0 0 16 16">
  <title>event-settings</title><g id="Layer_1" data-name="Layer 1"><path d="M14.827,10.245l-.18-.694.481-.929L14.112,7.489l-1.027.546L12.418,7.7l-.273-.946-1.44-.008-.376,1.009-.653.282-.937-.491-1.066.738.461.984-.334.761-1.031.305L6.8,11.823l.946.191s.471.909.379.92a5.1,5.1,0,0,0-.545.907l.882,1.072,1.174-.642.645.417.224,1.06,1.474.036.315-1,.628-.234,1.053.431.988-.867-.432-.973.232-.65L15.9,12.1l.066-1.5Zm-3.2,2.993A2,2,0,1,1,13.466,11,2.047,2.047,0,0,1,11.63,13.238Z"></path><path d="M13.429,2.789h-.643V1a.442.442,0,0,0-.442-.442H9.215A.442.442,0,0,0,8.773,1V2.789H5.085V1A.442.442,0,0,0,4.643.563H1.535A.441.441,0,0,0,1.094,1V2.789H.477a.441.441,0,0,0-.442.441V14.214a.442.442,0,0,0,.442.442H6.951l-.563-.684.295-.583c.034-.068.063-.12.095-.184H1.527V4.293H12.383v1.46l.516,0,.311,1.08.661-.351V3.23A.441.441,0,0,0,13.429,2.789Zm-9.712.4H2.446V1.629H3.717Zm7.709,0h-1.3V1.629h1.3Z" fill-rule="evenodd"></path><path d="M7.09,5.44a.13.13,0,0,0-.239,0L6,7.5a.132.132,0,0,1-.109.079l-2.221.178a.128.128,0,0,0-.073.226L5.285,9.43a.126.126,0,0,1,.041.128l-.517,2.167a.129.129,0,0,0,.193.14l.785-.48-.032-1.8,1.253-.371-.6-1.278,1.336-.924Z" fill-rule="evenodd"></path></g>
</symbol>

<symbol id="event-status" viewBox="0 0 16 16">
  <title>event-status</title><g id="Layer_1" data-name="Layer 1"><path d="M8.687,12.987H8.654a.7.7,0,0,1-.638-.5L5.938,5.564,4.445,9.226a.7.7,0,0,1-.649.436H.7a.7.7,0,1,1,0-1.4H3.325L5.389,3.2a.7.7,0,0,1,1.32.063l2.076,6.915,1.956-4.839a.7.7,0,0,1,.65-.438H11.4a.7.7,0,0,1,.648.447l1.13,2.916H15.3a.7.7,0,1,1,0,1.4h-2.6a.7.7,0,0,1-.653-.448L11.377,7.5,9.336,12.549A.7.7,0,0,1,8.687,12.987Z"></path></g>
</symbol>

<symbol id="event-time" viewBox="0 0 16 16">
  <title>event-time</title><g id="Layer_1" data-name="Layer 1"><path d="M7.944,14.14A6.14,6.14,0,1,1,14.083,8,6.147,6.147,0,0,1,7.944,14.14Zm0-10.878A4.738,4.738,0,1,0,12.682,8,4.744,4.744,0,0,0,7.944,3.262Z"></path><path d="M10.018,9.9A.7.7,0,0,1,9.669,9.8L7.243,8.4V4.922a.7.7,0,0,1,1.4,0V7.6l1.725.994A.7.7,0,0,1,10.018,9.9Z"></path></g>
</symbol>

<symbol id="external-link" viewBox="0 0 16 16">
  <title>external-link</title><g id="Layer_1" data-name="Layer 1"><path d="M11.981,7.764V13.25H2.811v-9.4H8.082c.156,0,.037-.2.037-.2l-1.6-1.6h-4A1.513,1.513,0,0,0,1.011,3.561v9.976A1.513,1.513,0,0,0,2.524,15.05h9.745a1.512,1.512,0,0,0,1.512-1.513V9.308l-1.64-1.64S11.981,7.624,11.981,7.764Z"></path><path d="M14.408.95H9.131a.452.452,0,0,0-.319.771L10.641,3.55,6.206,7.986A1.1,1.1,0,0,0,7.763,9.542L12.2,5.106l2.02,2.021a.452.452,0,0,0,.771-.319V1.53A.581.581,0,0,0,14.408.95Z"></path></g>
</symbol>

<symbol id="eye" viewBox="0 0 16 16">
  <title>eye</title><g id="Layer_1" data-name="Layer 1"><path d="M8.169,6.519a1.923,1.923,0,1,0,1.877,1.922A1.9,1.9,0,0,0,8.169,6.519Zm6.865,1.589c-1.815-2.8-4.253-4.335-6.865-4.335S3.119,5.313,1.3,8.108a.613.613,0,0,0,0,.666c1.816,2.8,4.254,4.335,6.866,4.335s5.05-1.539,6.865-4.335A.613.613,0,0,0,15.034,8.108Zm-6.865,3.8c-2.1,0-4.1-1.227-5.663-3.465C4.066,6.2,6.065,4.977,8.169,4.977s4.1,1.226,5.663,3.464C12.271,10.679,10.272,11.906,8.169,11.906Z"></path></g>
</symbol>

<symbol id="facebook-outline" viewBox="0 0 16 16">
  <title>facebook-outline</title><g id="Layer_1" data-name="Layer 1"><path d="M11.76,4.963a1.278,1.278,0,0,0-1.01-.5H9.443V3.976h.766a1.257,1.257,0,0,0,1.264-1.237l.008-1.5A1.255,1.255,0,0,0,10.216,0H8.927c-.031,0-.078,0-.136,0A3.784,3.784,0,0,0,6.908.487a3.135,3.135,0,0,0-1.526,2.9v1.08H4.614a1.271,1.271,0,0,0-.894.364,1.238,1.238,0,0,0-.369.882l0,1.493A1.254,1.254,0,0,0,4.619,8.444h.762v6.227a1.254,1.254,0,0,0,1.264,1.242H8.17a1.254,1.254,0,0,0,1.264-1.242V8.444h.957a1.271,1.271,0,0,0,1.216-.9l.355-1.479A1.236,1.236,0,0,0,11.76,4.963ZM10.39,7.2H8.17v7.469H6.645V7.2H4.618l0-1.493H6.645V3.387A2.007,2.007,0,0,1,8.791,1.236c.061,0,.1,0,.1,0h1.329l-.008,1.494H8.889c-.727,0-.71.607-.71.607V5.709h2.57Z"></path></g>
</symbol>

<symbol id="form-download" viewBox="0 0 16 16">
  <title>form-download</title><g id="Layer_1" data-name="Layer 1"><path d="M8.032.663A7.348,7.348,0,1,0,15.38,8.011,7.356,7.356,0,0,0,8.032.663Zm0,13.577A6.229,6.229,0,1,1,14.26,8.011,6.236,6.236,0,0,1,8.032,14.24Z"></path><polygon points="8.475 9.013 8.475 5.608 7.355 5.608 7.355 9.039 6.199 7.835 5.431 8.627 7.985 11.169 10.533 8.627 9.697 7.835 8.475 9.013"></polygon></g>
</symbol>

<symbol id="forms" viewBox="0 0 16 16">
  <title>forms</title><g id="Layer_1" data-name="Layer 1"><path d="M14.45,3.817h-2.6V3.23a.653.653,0,0,0-.208-.478L9.34.605A.655.655,0,0,0,8.9.431H1.724a.652.652,0,0,0-.652.652v10.46a.653.653,0,0,0,.652.653H3.7v2.623a.75.75,0,0,0,.75.75h10a.75.75,0,0,0,.75-.75V4.567A.75.75,0,0,0,14.45,3.817ZM7.667,1.592h1.2V3.51h1.945v1.2H8.167a.5.5,0,0,1-.5-.5ZM3.129,3.657H6.292V4.9H3.129Zm0,2.454H7.986v1.24H3.129Zm0,2.455H7.986v1.24H3.129Zm10.571,5.5H5.2V12.2h6a.653.653,0,0,0,.652-.653V5.317H13.7Z"></path></g>
</symbol>

<symbol id="gear" viewBox="0 0 16 16">
  <title>gear</title><g id="Layer_1" data-name="Layer 1"><path d="M15.187,8.907V7.644a.6.6,0,0,0-.6-.6h-.65a.61.61,0,0,1-.574-.437,5.313,5.313,0,0,0-.329-.789.609.609,0,0,1,.1-.716l.461-.461a.6.6,0,0,0,0-.854L12.7,2.89a.6.6,0,0,0-.854,0l-.461.46a.609.609,0,0,1-.716.1,5.357,5.357,0,0,0-.789-.329.61.61,0,0,1-.437-.574V1.9a.6.6,0,0,0-.6-.6H7.571a.6.6,0,0,0-.6.605v.65a.61.61,0,0,1-.437.574,5.313,5.313,0,0,0-.789.329.609.609,0,0,1-.716-.1l-.461-.46a.6.6,0,0,0-.854,0l-.893.893a.6.6,0,0,0,0,.854l.46.461a.609.609,0,0,1,.1.716,5.313,5.313,0,0,0-.329.789.61.61,0,0,1-.574.437h-.65a.6.6,0,0,0-.6.6V8.907a.6.6,0,0,0,.605.6h.65a.61.61,0,0,1,.574.437,5.313,5.313,0,0,0,.329.789.611.611,0,0,1-.1.716l-.46.461a.6.6,0,0,0,0,.854l.893.893a.6.6,0,0,0,.854,0l.461-.46a.609.609,0,0,1,.716-.1,5.313,5.313,0,0,0,.789.329.61.61,0,0,1,.437.574v.65a.6.6,0,0,0,.6.6H8.834a.6.6,0,0,0,.6-.6v-.65a.61.61,0,0,1,.437-.574,5.313,5.313,0,0,0,.789-.329.609.609,0,0,1,.716.1l.461.46a.6.6,0,0,0,.854,0l.893-.893a.6.6,0,0,0,0-.854l-.46-.461a.609.609,0,0,1-.1-.716,5.313,5.313,0,0,0,.329-.789.61.61,0,0,1,.574-.437h.65A.6.6,0,0,0,15.187,8.907ZM8.2,11.436a3.161,3.161,0,1,1,3.161-3.16A3.164,3.164,0,0,1,8.2,11.436Z"></path></g>
</symbol>

<symbol id="geo-pin-outline" viewBox="0 0 16 16">
  <title>geo-pin-outline</title><g id="Layer_1" data-name="Layer 1"><path d="M8,.028A5.849,5.849,0,0,0,2.305,6.007,6.062,6.062,0,0,0,3.414,9.549l3.8,5.98a.925.925,0,0,0,1.58,0L12.556,9.6A6.137,6.137,0,0,0,13.7,6.007,5.849,5.849,0,0,0,8,.028Zm3.007,8.416L8,13.18,4.962,8.4A4.081,4.081,0,0,1,4.2,6.007,3.9,3.9,0,0,1,8,2.021a3.9,3.9,0,0,1,3.8,3.986A4.146,4.146,0,0,1,11.007,8.444ZM7.326,5.3a1.048,1.048,0,0,0,0,1.415.928.928,0,0,0,1.348,0,1.048,1.048,0,0,0,0-1.415A.959.959,0,0,0,7.326,5.3Z"></path></g>
</symbol>

<symbol id="html-link-outline" viewBox="0 0 16 16">
  <title>html-link-outline</title><g id="Layer_1" data-name="Layer 1"><path d="M8.412,4.326,4.58.5A1.253,1.253,0,0,0,2.85.5L.473,2.872a1.223,1.223,0,0,0,0,1.729l3.832,3.83a1.22,1.22,0,0,0,1.729,0L8.412,6.055A1.223,1.223,0,0,0,8.412,4.326ZM5.17,7.567,1.338,3.736,3.715,1.36,7.547,5.19Zm10.286,3.8L11.624,7.536a1.253,1.253,0,0,0-1.729,0L7.517,9.913a1.223,1.223,0,0,0,0,1.729l3.832,3.831a1.224,1.224,0,0,0,1.73,0L15.456,13.1a1.223,1.223,0,0,0,0-1.729Zm-3.242,3.241L8.382,10.777,10.759,8.4l3.832,3.83Z"></path><path d="M11.482,10.309,5.857,4.688a.891.891,0,0,0-1.232,0,.794.794,0,0,0,.061,1.171l5.624,5.622a.917.917,0,0,0,.639.287.747.747,0,0,0,.533-.227A.872.872,0,0,0,11.482,10.309Z"></path></g>
</symbol>

<symbol id="info-outline" viewBox="0 0 16 16">
  <title>info-outline</title><g id="Layer_1" data-name="Layer 1"><path d="M6.074,6.272H8.346a.654.654,0,0,1,.649.735l-.757,3.95a.527.527,0,0,0,.692.565l.6-.242a.223.223,0,0,1,.139.389,2.735,2.735,0,0,1-2.176.854c-1.854-.079-1.393-1.835-1.324-2.257s.451-2.512.471-2.689.206-.51-.314-.647-.687-.246-.687-.363S5.741,6.272,6.074,6.272Z"></path><circle cx="8.209" cy="4.543" r="1.261"></circle><path d="M8,1.249A6.751,6.751,0,1,1,1.249,8,6.758,6.758,0,0,1,8,1.249M8,.119A7.881,7.881,0,1,0,15.881,8,7.882,7.882,0,0,0,8,.119Z"></path></g>
</symbol>

<symbol id="link-arrow" viewBox="0 0 16 16">
  <title>link-arrow</title><g id="Layer_1" data-name="Layer 1"><path d="M15.236,7.585,9.978,2.458a.919.919,0,0,0-1.275,0A.862.862,0,0,0,8.7,3.7l3.718,3.626H1.4a.879.879,0,1,0,0,1.758H12.421L8.7,12.711a.862.862,0,0,0,0,1.243.917.917,0,0,0,1.275,0l5.258-5.126A.864.864,0,0,0,15.236,7.585Z"></path></g>
</symbol>

<symbol id="list-outline" viewBox="0 0 16 16">
  <title>list-outline</title><g id="Layer_1" data-name="Layer 1"><path d="M13.962.872H2.038a.872.872,0,0,0-.852.891V14.237a.872.872,0,0,0,.852.891H13.962a.872.872,0,0,0,.852-.891V1.763A.872.872,0,0,0,13.962.872Zm-.851,12.474H2.889V2.654H13.111Z"></path><g id="Your_Icon" data-name="Your Icon"><path d="M11.188,5.71h-3.4a.577.577,0,0,1,0-1.153h3.4a.577.577,0,0,1,0,1.153Z"></path><path d="M5.653,5.885H4.811a.564.564,0,0,1-.551-.576V4.931a.564.564,0,0,1,.551-.576h.842a.565.565,0,0,1,.552.576v.378A.565.565,0,0,1,5.653,5.885Z"></path><path d="M11.188,8.577h-3.4a.578.578,0,0,1,0-1.154h3.4a.578.578,0,0,1,0,1.154Z"></path><path d="M5.653,8.765H4.811a.564.564,0,0,1-.551-.576V7.812a.564.564,0,0,1,.551-.577h.842a.565.565,0,0,1,.552.577v.377A.565.565,0,0,1,5.653,8.765Z"></path><path d="M11.188,11.457h-3.4a.578.578,0,0,1,0-1.154h3.4a.578.578,0,0,1,0,1.154Z"></path><path d="M5.653,11.645H4.811a.564.564,0,0,1-.551-.577v-.376a.564.564,0,0,1,.551-.577h.842a.565.565,0,0,1,.552.577v.376A.565.565,0,0,1,5.653,11.645Z"></path></g></g>
</symbol>

<symbol id="magic-wand" viewBox="0 0 16 16">
  <title>magic-wand</title><g id="Layer_1" data-name="Layer 1"><path d="M7.816,7.993a.464.464,0,0,0-.678,0L1.523,13.871a.517.517,0,0,0,0,.71l.983,1.03a.464.464,0,0,0,.678,0L8.8,9.732a.519.519,0,0,0,0-.71Zm2.41-2.523a.466.466,0,0,0-.679,0l-.97,1.016a.519.519,0,0,0,0,.71l.984,1.03a.464.464,0,0,0,.678,0l.97-1.016a.519.519,0,0,0,0-.71ZM4.71,2.929A2.028,2.028,0,0,1,6.418,4.717a.3.3,0,0,0,.581,0A2.026,2.026,0,0,1,8.707,2.929a.316.316,0,0,0,0-.608A2.027,2.027,0,0,1,7,.533a.3.3,0,0,0-.581,0A2.029,2.029,0,0,1,4.71,2.321.316.316,0,0,0,4.71,2.929ZM14.425,2.8a1.206,1.206,0,0,1-.782-.818.28.28,0,0,0-.538,0,1.206,1.206,0,0,1-.782.818.3.3,0,0,0,0,.564,1.206,1.206,0,0,1,.782.818.28.28,0,0,0,.538,0,1.206,1.206,0,0,1,.782-.818A.3.3,0,0,0,14.425,2.8Zm-.39,6.759a1.2,1.2,0,0,1-.782-.818.281.281,0,0,0-.539,0,1.206,1.206,0,0,1-.782.818.3.3,0,0,0,0,.564,1.206,1.206,0,0,1,.782.819.281.281,0,0,0,.539,0,1.2,1.2,0,0,1,.782-.819A.3.3,0,0,0,14.035,9.563Z"></path></g>
</symbol>

<symbol id="overview" viewBox="0 0 16 16">
  <title>overview</title><g id="Layer_1" data-name="Layer 1"><path d="M8,.631A7.875,7.875,0,0,0,.14,8.491a7.629,7.629,0,0,0,4.068,6.785l.169.093h7.246l.169-.093A7.627,7.627,0,0,0,15.86,8.491,7.875,7.875,0,0,0,8,.631ZM8,2.105a6.381,6.381,0,0,1,6.386,6.386,6.112,6.112,0,0,1-3.178,5.4H4.791a6.113,6.113,0,0,1-3.177-5.4A6.381,6.381,0,0,1,8,2.105ZM8,3.579a4.868,4.868,0,0,0-2.38.629c.169.107.315.194.492.307A4.337,4.337,0,0,1,8,4.07a4.437,4.437,0,0,1,3.116,1.3l.031.031a4.371,4.371,0,0,1-.03,6.2.25.25,0,0,0,.353.354A4.913,4.913,0,0,0,8,3.578ZM3.579,4.07s3.147,5,3.638,5.5a1.354,1.354,0,0,0,1.857,0,1.308,1.308,0,0,0,0-1.858c-.491-.491-5.5-3.638-5.5-3.638ZM3.733,6.1a4.855,4.855,0,0,0-.645,2.395,4.933,4.933,0,0,0,1.443,3.47.25.25,0,0,0,.353-.354A4.437,4.437,0,0,1,3.579,8.491a4.378,4.378,0,0,1,.445-1.919C3.916,6.4,3.836,6.259,3.733,6.1Z"></path></g>
</symbol>

<symbol id="payment-alt" viewBox="0 0 16 16">
  <title>payment-alt</title><g id="Layer_1" data-name="Layer 1"><path d="M13.51,7.47V3.919a.759.759,0,0,0-.761-.758H2.236a.741.741,0,0,0-.739.758v6.2a.752.752,0,0,0,.739.771h7.808a3.214,3.214,0,0,0,.2.679H.813c-.017,0-.048-.01-.048-.027v-6.2c0-.017.023-.031.039-.031a.366.366,0,1,0,0-.731.768.768,0,0,0-.768.762v6.2a.775.775,0,0,0,.779.759h9.864A2.994,2.994,0,1,0,13.51,7.47ZM2.236,3.892H12.749a.028.028,0,0,1,.03.027V5.146H2.228V3.919C2.228,3.9,2.22,3.892,2.236,3.892ZM2.228,10.12V5.877H12.779V7.436a3,3,0,0,0-2.758,2.724H2.236C2.22,10.16,2.228,10.137,2.228,10.12ZM13,12.686a2.264,2.264,0,1,1,2.265-2.264A2.266,2.266,0,0,1,13,12.686Z"></path><path d="M13.694,9.6l-.862.934-.375-.359a.366.366,0,0,0-.505.529l.644.616a.366.366,0,0,0,.253.1h.011a.361.361,0,0,0,.257-.118L14.232,10.1a.366.366,0,0,0-.538-.5Z"></path><path d="M6.459,7.5H3.22a.366.366,0,0,0,0,.732H6.459a.366.366,0,0,0,0-.732Z"></path><path d="M4.735,8.593H3.22a.366.366,0,0,0,0,.731H4.735a.366.366,0,1,0,0-.731Z"></path></g>
</symbol>

<symbol id="pdf-instruction" viewBox="0 0 16 16">
  <title>pdf-instruction</title><g id="Layer_1" data-name="Layer 1"><path d="M5.747,10.283v.738H5.235V8.811h.779a1.276,1.276,0,0,1,.4.056.775.775,0,0,1,.277.152.606.606,0,0,1,.16.229.784.784,0,0,1,.051.285.826.826,0,0,1-.053.3.6.6,0,0,1-.162.236.762.762,0,0,1-.277.154,1.267,1.267,0,0,1-.4.056Zm0-.387h.267a.326.326,0,0,0,.376-.363A.408.408,0,0,0,6.368,9.4.282.282,0,0,0,6.3,9.288a.321.321,0,0,0-.117-.069A.523.523,0,0,0,6.014,9.2H5.747Z"></path><path d="M9.176,9.916a1.163,1.163,0,0,1-.083.442,1.027,1.027,0,0,1-.233.35,1.05,1.05,0,0,1-.362.231,1.279,1.279,0,0,1-.469.082H7.17V8.811h.859A1.259,1.259,0,0,1,8.5,8.9a1.063,1.063,0,0,1,.362.23,1.027,1.027,0,0,1,.233.35A1.158,1.158,0,0,1,9.176,9.916Zm-.525,0a.97.97,0,0,0-.043-.3A.628.628,0,0,0,8.486,9.4a.532.532,0,0,0-.2-.141.658.658,0,0,0-.262-.049H7.686v1.421h.343a.658.658,0,0,0,.262-.049.532.532,0,0,0,.2-.141.636.636,0,0,0,.122-.224A.977.977,0,0,0,8.651,9.916Z"></path><path d="M10.844,8.811v.395H9.937v.559h.756v.4H9.937v.86H9.421V8.811Z"></path><path d="M13.3,15.569H2.687a.344.344,0,0,1-.344-.344V4.608a.344.344,0,0,1,.344-.345H6v.689H3.032V14.88H12.96V4.952H9.975V4.263H13.3a.344.344,0,0,1,.345.345V15.225A.344.344,0,0,1,13.3,15.569Z"></path><rect x="7.645" y="0.84" width="0.689" height="5.13"></rect><path d="M9.731,3.02,7.989,1.279,6.248,3.02l-.487-.487L7.746.548a.343.343,0,0,1,.487,0l1.985,1.985Z"></path></g>
</symbol>

<symbol id="people-outline" viewBox="0 0 16 16">
  <title>people-outline</title><g id="Layer_1" data-name="Layer 1"><path d="M15.8,9.649a3.6,3.6,0,0,0-2.025-1.618c.019-.05.037-.1.053-.155a2.289,2.289,0,0,0,.463-1.335l0-.112a2.237,2.237,0,0,0-.08-.6c.014-.115.027-.236.035-.348a2.991,2.991,0,0,0-.768-2.2,2.94,2.94,0,0,0-2.243-.928,2.929,2.929,0,0,0-2.161.853,3.367,3.367,0,0,0-.738-1.3A3.407,3.407,0,0,0,5.734.84a3.406,3.406,0,0,0-2.6,1.068A3.494,3.494,0,0,0,2.247,4.44c.014.178.036.372.059.546a2.419,2.419,0,0,0-.116.759l0,.1A2.5,2.5,0,0,0,2.76,7.417a3.3,3.3,0,0,0,.185.512c-.221.114-.559.266-1.022.459A2.671,2.671,0,0,0,0,10.773v2.368A2.021,2.021,0,0,0,2.019,15.16h8.032a2.01,2.01,0,0,0,1.592-.793h2.339A2.018,2.018,0,0,0,16,12.269c-.005-.123.009-.407.021-.659A3.312,3.312,0,0,0,15.8,9.649ZM1.633,13.141V10.773c0-.561.647-.794,1.008-.945,1.182-.495,2.147-.912,2.147-1.8,0-.536-.361-.361-.519-1.342-.066-.408-.385-.007-.446-.936,0-.371.173-.463.173-.463s-.088-.548-.122-.97A1.774,1.774,0,0,1,5.78,2.427,1.774,1.774,0,0,1,7.687,4.311c-.035.422-.123.97-.123.97s.174.092.174.463c-.061.93-.38.529-.446.937-.158.981-.519.806-.519,1.342a1.861,1.861,0,0,0,.1.6l-.013,0a1.263,1.263,0,0,0,.059.116A1.234,1.234,0,0,0,7,8.919a1.369,1.369,0,0,0,.143.175,1.553,1.553,0,0,0,.133.137,2.357,2.357,0,0,0,.234.17c.04.026.068.055.113.081l0,0,0,0a5.48,5.48,0,0,0,.705.354c1.187.5,2.2.978,2.2,1.491v1.822a.432.432,0,0,1-.432.432H2.065A.432.432,0,0,1,1.633,13.141Zm12.827-.809a.431.431,0,0,1-.431.448H11.615V11.319c0-.974-.858-1.575-1.853-2.052.172-.222.786-.551.778-1.129-.006-.4-.272-.271-.39-1.007-.05-.305-.289,0-.335-.7,0-.278.13-.347.13-.347s-.066-.41-.092-.727a1.331,1.331,0,0,1,1.43-1.413,1.331,1.331,0,0,1,1.43,1.413c-.026.316-.092.727-.092.727s.131.069.131.347c-.046.7-.285.4-.335.7-.119.736-.39.6-.39,1.007,0,.669.284.983,1.171,1.353s1.071.613,1.277.962A17.173,17.173,0,0,1,14.46,12.332Z"></path></g>
</symbol>

<symbol id="permissions" viewBox="0 0 16 16">
  <title>permissions</title><g id="Layer_1" data-name="Layer 1"><path d="M12.116,6.069H7.142V3.693a1.27,1.27,0,1,1,2.54,0v.528a.7.7,0,1,0,1.4,0V3.693a2.671,2.671,0,1,0-5.341,0V6.069H4.707A1.947,1.947,0,0,0,2.762,8.014v5.861A1.947,1.947,0,0,0,4.707,15.82h7.409a1.948,1.948,0,0,0,1.945-1.945V8.014A1.948,1.948,0,0,0,12.116,6.069Zm.545,7.806a.546.546,0,0,1-.545.545H4.707a.546.546,0,0,1-.545-.545V8.014a.546.546,0,0,1,.545-.545h7.409a.546.546,0,0,1,.545.545Z"></path><path d="M9.484,10.479a1.072,1.072,0,1,0-2.144,0,1.06,1.06,0,0,0,.582.939l-.327.794a.479.479,0,0,0,.443.662h.747a.479.479,0,0,0,.443-.662L8.9,11.418A1.062,1.062,0,0,0,9.484,10.479Z"></path></g>
</symbol>

<symbol id="person-details" viewBox="0 0 16 16">
  <title>person-details</title><g id="Layer_1" data-name="Layer 1"><g id="Group_7" data-name="Group 7"><g id="Your_Icon" data-name="Your Icon"><path id="Path_9" data-name="Path 9" d="M15.3,6.061H9.633a.728.728,0,0,1,0-1.452H15.3a.712.712,0,0,1,.7.726h0A.712.712,0,0,1,15.3,6.061Z"></path><g id="Group_5" data-name="Group 5"><path id="Path_10" data-name="Path 10" d="M15.3,8.986H9.633a.728.728,0,0,1,0-1.453H15.3a.728.728,0,0,1,0,1.453Z"></path></g><g id="Group_6" data-name="Group 6"><path id="Path_11" data-name="Path 11" d="M12.537,11.924h-2.9a.728.728,0,0,1,0-1.452h2.9a.727.727,0,0,1,0,1.452Z"></path></g></g><path id="Path_12" data-name="Path 12" d="M3.835,9.369C2.555,9.369,0,10.1,0,11.556V12.65H7.67V11.556C7.67,10.1,5.115,9.369,3.835,9.369Zm0-1.094A2.066,2.066,0,0,0,5.751,6.088,2.066,2.066,0,0,0,3.835,3.9,2.065,2.065,0,0,0,1.918,6.088,2.065,2.065,0,0,0,3.835,8.274Z"></path></g></g>
</symbol>

<symbol id="person-outline" viewBox="0 0 16 16">
  <title>person-outline</title><g id="Layer_1" data-name="Layer 1"><path d="M11.65,15.837h-7a2.675,2.675,0,0,1-2.626-2.715v-.9a.907.907,0,0,1,.489-.812l2.743-1.4-.5-.987a.942.942,0,0,1-.1-.424V4.978a3.566,3.566,0,0,1,3.5-3.62,3.566,3.566,0,0,1,3.5,3.62V8.6a.93.93,0,0,1-.1.424l-.505.987,2.744,1.4a.908.908,0,0,1,.488.812v.9A2.674,2.674,0,0,1,11.65,15.837ZM3.773,12.78v.342a.892.892,0,0,0,.876.9h7a.892.892,0,0,0,.875-.9V12.78L9.461,11.218a.892.892,0,0,1-.445-.533.93.93,0,0,1,.059-.7L9.9,8.371V4.978a1.751,1.751,0,1,0-3.5,0V8.371l.825,1.612a.934.934,0,0,1,.058.7.892.892,0,0,1-.445.533Z"></path></g>
</symbol>

<symbol id="phone" viewBox="0 0 16 16">
  <title>phone</title><g id="Layer_1" data-name="Layer 1"><path d="M2.242,5.838a26.79,26.79,0,0,0,7.089,8.615l1.081.86a1.756,1.756,0,0,0,2.217-.023h0l1.892-1.57.307-.255A1.306,1.306,0,0,0,15,11.633L13.55,9.868a1.293,1.293,0,0,0-1.825-.174L9.9,11.213A26.769,26.769,0,0,1,5.517,5.892l1.83-1.518A1.306,1.306,0,0,0,7.52,2.541L6.068.777A1.292,1.292,0,0,0,4.244.6L3.936.858,2.044,2.428h0A1.773,1.773,0,0,0,1.605,4.61Z"></path></g>
</symbol>

<symbol id="print" viewBox="0 0 16 16">
  <title>print</title><g id="Layer_1" data-name="Layer 1"><path d="M14.541,11.827l-.015-4.965a1.244,1.244,0,0,0-1.259-1.226H12.131V4.443L9.114,2.032H3.831v3.6H2.684A1.244,1.244,0,0,0,1.425,6.869l.015,4.958H3.831V13.7h8.3V11.827ZM4.706,2.872H8.548V4.913h2.77V7.158H4.706V2.872Zm6.612,9.952H4.706V10.633h6.612v2.191Z"></path></g>
</symbol>

<symbol id="put-back-arrow" viewBox="0 0 16 16">
  <title>put-back-arrow</title><g id="Layer_1" data-name="Layer 1"><path d="M.3,13.468a6.015,6.015,0,0,1,.072-.929l.081-.533q.067-.273.139-.562A9.3,9.3,0,0,1,1,10.249a9.817,9.817,0,0,1,.639-1.206,10.764,10.764,0,0,1,.84-1.155A9.545,9.545,0,0,1,3.512,6.875a11.071,11.071,0,0,1,1.136-.846A10.261,10.261,0,0,1,5.831,5.4l.576-.244.557-.179c.185-.054.341-.116.53-.153l.528-.107.468-.086L8.6,4.621V2.327a.722.722,0,0,1,1.183-.549l5.275,4.369a.712.712,0,0,1,0,1.1L9.779,11.613A.721.721,0,0,1,8.6,11.064V8.852L8.5,8.859l-.24.01a2.593,2.593,0,0,0-.308.043l-.349.054-.366.1c-.259.051-.509.168-.789.254a7.46,7.46,0,0,0-.8.406,9.251,9.251,0,0,0-.789.521,7.489,7.489,0,0,0-.707.649,8.672,8.672,0,0,0-.622.717,8.926,8.926,0,0,0-.479.762l-.205.373-.154.366a4.9,4.9,0,0,0-.244.664l-.092.286c-.021.091-.039.174-.056.249l-.11.48-.027.121a.909.909,0,0,1-1.79-.121l-.054-.612-.025-.326C.3,13.734.3,13.606.3,13.468Z"></path></g>
</symbol>

<symbol id="question-outline" viewBox="0 0 16 16">
  <title>question-outline</title><g id="Layer_1" data-name="Layer 1"><path d="M8,1.146A6.854,6.854,0,1,1,1.146,8,6.862,6.862,0,0,1,8,1.146M8,0a8,8,0,1,0,8,8A8,8,0,0,0,8,0Z"></path><path d="M7.977,13.433a1.167,1.167,0,0,1-1.122-1.085.187.187,0,0,1,0-.055.2.2,0,0,1,0-.057,1.126,1.126,0,0,1,2.25.057A1.159,1.159,0,0,1,7.977,13.433Zm2.244-6.125c-.493.451-2.276,1.291-1.4,2.134a.184.184,0,0,1-.08.306c-.4.134-.8.269-1.2.405a.183.183,0,0,1-.178-.047A1.909,1.909,0,0,1,6.84,8.862a.172.172,0,0,1,0-.046.191.191,0,0,1,0-.049c.068-1.1.925-1.512,1.686-2.148.507-.422.756-1.282-.139-1.486a2.162,2.162,0,0,0-2.225.831.182.182,0,0,1-.259,0q-.456-.507-.916-1.012a.187.187,0,0,1,0-.259A3.984,3.984,0,0,1,8.437,3.32a2.708,2.708,0,0,1,2.374,1.453A2.281,2.281,0,0,1,10.221,7.308Z"></path></g>
</symbol>

<symbol id="refund" viewBox="0 0 16 16">
  <title>refund</title><g id="Layer_1" data-name="Layer 1"><path d="M8.53,9.983a1.219,1.219,0,0,1-.753.2,2.6,2.6,0,0,1-1.013-.209.645.645,0,0,0-.52.01.651.651,0,0,0,.04,1.2,3.959,3.959,0,0,0,1.241.251v.263a.686.686,0,1,0,1.371,0V11.3c0-.012,0-.024,0-.036a2.31,2.31,0,0,0,.7-.378A1.829,1.829,0,0,0,10.3,9.4a1.755,1.755,0,0,0-.433-1.208,3.2,3.2,0,0,0-1.344-.8,2.652,2.652,0,0,1-.882-.434.526.526,0,0,1-.169-.4.54.54,0,0,1,.2-.439.92.92,0,0,1,.609-.182,2.308,2.308,0,0,1,.815.15A.654.654,0,0,0,9.6,6.067a.629.629,0,0,0,.33-.369.639.639,0,0,0-.371-.8A3.245,3.245,0,0,0,8.9,4.73V4.249a.686.686,0,1,0-1.371,0v.536a2.211,2.211,0,0,0-.917.473,1.842,1.842,0,0,0-.661,1.436c0,.856.607,1.5,1.8,1.907a2.315,2.315,0,0,1,.817.413.629.629,0,0,1,.194.483A.57.57,0,0,1,8.53,9.983Z"></path><path d="M15.721,8.007a7.68,7.68,0,1,0-11.16,6.846l-.205.5a.349.349,0,0,0,.368.479l2.332-.311a.348.348,0,0,0,.23-.558L5.852,13.1a.349.349,0,0,0-.6.08l-.167.4a6.306,6.306,0,1,1,5.561.175A.685.685,0,1,0,11.214,15,7.7,7.7,0,0,0,15.721,8.007Z"></path></g>
</symbol>

<symbol id="registrations-logo" viewBox="0 0 16 16">
  <title>registrations-logo</title><g id="Layer_1" data-name="Layer 1"><path d="M3.907,7.376c-.032-.051-.142-.07-.234-.07a.481.481,0,0,0-.365.165l-.026-.085a.069.069,0,0,0-.066-.053H3.152a.074.074,0,0,0-.072.072V8.511a.073.073,0,0,0,.072.072h.122c.039,0,.1,0,.1-.072V7.739a.334.334,0,0,1,.274-.153.284.284,0,0,1,.1.022.064.064,0,0,0,.052,0,.073.073,0,0,0,.042-.039l.063-.133A.064.064,0,0,0,3.907,7.376Z"></path><path d="M4.511,7.306a.654.654,0,0,0,0,1.306.707.707,0,0,0,.462-.154.063.063,0,0,0,.007-.1l-.071-.111a.061.061,0,0,0-.036-.027.076.076,0,0,0-.055.018.461.461,0,0,1-.291.1.346.346,0,0,1-.35-.3h.829a.071.071,0,0,0,.069-.065.848.848,0,0,0,.006-.087A.561.561,0,0,0,4.511,7.306Zm0,.253a.275.275,0,0,1,.287.25h-.6A.3.3,0,0,1,4.506,7.559Z"></path><path d="M6.3,7.333H6.224a.059.059,0,0,0-.058.051l-.024.058a.585.585,0,0,0-.381-.136.618.618,0,0,0-.591.652.624.624,0,0,0,.6.654.672.672,0,0,0,.3-.077v.042c0,.259-.158.313-.29.313a.449.449,0,0,1-.277-.11.071.071,0,0,0-.058-.015A.07.07,0,0,0,5.4,8.8l-.063.116a.07.07,0,0,0,.015.086.678.678,0,0,0,.433.157.541.541,0,0,0,.581-.585V7.405A.075.075,0,0,0,6.3,7.333Zm-.22.414v.5a.487.487,0,0,1-.269.091.365.365,0,0,1-.343-.375A.346.346,0,0,1,5.8,7.586.35.35,0,0,1,6.075,7.747Z"></path><rect x="6.609" y="7.333" width="0.293" height="1.25" rx="0.072" ry="0.072"></rect><path d="M6.756,6.782a.193.193,0,0,0,0,.385.193.193,0,1,0,0-.385Z"></path><path d="M7.555,7.823c-.13-.056-.2-.1-.2-.167,0-.047.044-.094.142-.094a.628.628,0,0,1,.256.06.07.07,0,0,0,.1-.031l.043-.084A.086.086,0,0,0,7.861,7.4.693.693,0,0,0,7.5,7.306c-.29,0-.419.175-.419.348,0,.216.163.319.339.4s.253.127.253.2-.056.105-.147.105a.554.554,0,0,1-.293-.085l0,0a.077.077,0,0,0-.062-.009.06.06,0,0,0-.037.031L7.071,8.4a.063.063,0,0,0,.026.081h0a.724.724,0,0,0,.41.127.4.4,0,0,0,.451-.371C7.958,8.011,7.8,7.926,7.555,7.823Z"></path><path d="M8.85,8.31a.064.064,0,0,0-.039-.041.063.063,0,0,0-.053.007.388.388,0,0,1-.188.057c-.044,0-.084-.009-.084-.111V7.586H8.8a.074.074,0,0,0,.072-.072V7.405A.072.072,0,0,0,8.8,7.333H8.486V7.006a.07.07,0,0,0-.069-.073H8.266a.073.073,0,0,0-.073.073v.327H8.067A.07.07,0,0,0,8,7.405v.109a.073.073,0,0,0,.072.072h.126v.647c0,.176.037.379.324.379a.753.753,0,0,0,.346-.089A.069.069,0,0,0,8.9,8.434Z"></path><path d="M9.834,7.376c-.032-.051-.141-.07-.233-.07a.492.492,0,0,0-.365.164L9.21,7.386a.071.071,0,0,0-.067-.053H9.08a.075.075,0,0,0-.073.072V8.511a.073.073,0,0,0,.073.072H9.2c.04,0,.1,0,.1-.072V7.739a.337.337,0,0,1,.274-.153.29.29,0,0,1,.105.022.064.064,0,0,0,.052,0,.071.071,0,0,0,.041-.039l.064-.133A.061.061,0,0,0,9.834,7.376Z"></path><path d="M10.416,7.306a1.32,1.32,0,0,0-.425.07.07.07,0,0,0-.049.088l.024.1a.072.072,0,0,0,.087.061,1.248,1.248,0,0,1,.337-.058.175.175,0,0,1,.131.043.286.286,0,0,1,.051.205.95.95,0,0,0-.232-.033c-.306,0-.5.161-.5.409a.392.392,0,0,0,.408.421.537.537,0,0,0,.37-.143l.022.063c.013.031.029.051.063.051h.088a.074.074,0,0,0,.072-.072V7.86C10.859,7.557,10.826,7.306,10.416,7.306ZM10.3,8.367a.165.165,0,0,1-.176-.179c0-.112.095-.187.237-.187a.588.588,0,0,1,.208.037v.191A.366.366,0,0,1,10.3,8.367Z"></path><path d="M11.805,8.31a.064.064,0,0,0-.039-.041.063.063,0,0,0-.053.007.388.388,0,0,1-.188.057c-.044,0-.084-.009-.084-.111V7.586h.309a.074.074,0,0,0,.072-.072V7.405a.072.072,0,0,0-.072-.072h-.309V7.006a.07.07,0,0,0-.069-.073h-.151a.073.073,0,0,0-.073.073v.327h-.126a.07.07,0,0,0-.072.072v.109a.073.073,0,0,0,.072.072h.126v.647c0,.176.037.379.324.379a.753.753,0,0,0,.346-.089.069.069,0,0,0,.035-.089Z"></path><rect x="11.962" y="7.333" width="0.293" height="1.25" rx="0.072" ry="0.072"></rect><path d="M12.109,6.782a.193.193,0,0,0,0,.385.193.193,0,1,0,0-.385Z"></path><path d="M13.052,7.306a.653.653,0,1,0,.635.649A.653.653,0,0,0,13.052,7.306Zm.348.649a.351.351,0,1,1-.7,0,.35.35,0,1,1,.7,0Z"></path><path d="M14.488,7.306a.582.582,0,0,0-.4.157l-.028-.082a.062.062,0,0,0-.065-.048h-.063a.074.074,0,0,0-.072.072V8.511a.073.073,0,0,0,.072.072h.135c.057,0,.085-.024.085-.072V7.752a.362.362,0,0,1,.309-.166c.146,0,.226.107.226.3v.624a.073.073,0,0,0,.073.072H14.9a.074.074,0,0,0,.072-.072V7.9C14.975,7.5,14.816,7.306,14.488,7.306Z"></path><path d="M15.616,7.823c-.13-.056-.2-.1-.2-.167,0-.047.044-.094.142-.094a.621.621,0,0,1,.256.06.071.071,0,0,0,.1-.031l.042-.084a.087.087,0,0,0-.031-.108.7.7,0,0,0-.365-.093c-.289,0-.419.175-.419.348,0,.216.163.319.339.4s.253.127.253.2-.056.105-.147.105a.55.55,0,0,1-.292-.085l0,0a.077.077,0,0,0-.062-.009.063.063,0,0,0-.037.031l-.055.114a.063.063,0,0,0,.025.081h0a.724.724,0,0,0,.41.127.4.4,0,0,0,.451-.371C16.019,8.011,15.86,7.926,15.616,7.823Z"></path><path d="M1.209,6.772C.227,6.772-.019,7.018-.019,8S.227,9.228,1.209,9.228,2.437,8.982,2.437,8,2.191,6.772,1.209,6.772Zm.1.715a.123.123,0,0,1,.172-.008l.1.088a.122.122,0,0,1,.008.172l-.1.115L1.205,7.6ZM.854,8.5l-.248.055a.017.017,0,0,1-.02-.019L.62,8.287A.2.2,0,0,1,.661,8.2l.477-.525.276.255-.475.526A.189.189,0,0,1,.854,8.5ZM1.832,8.5a.06.06,0,0,1-.06.06H1.083l.242-.27h.447a.06.06,0,0,1,.06.06Z"></path></g>
</symbol>

<symbol id="registrations" viewBox="0 0 16 16">
  <title>registrations</title><g id="Layer_1" data-name="Layer 1"><path d="M7.884,4.072l-6.29,6.883a2.344,2.344,0,0,0-.5,1.077L.67,15.154a.147.147,0,0,0,.177.164l3.066-.677a2.279,2.279,0,0,0,1.018-.591L11.2,7.144a.24.24,0,0,0-.015-.337L8.224,4.058A.24.24,0,0,0,7.884,4.072Zm6.236-.5L11.136.868A.239.239,0,0,0,10.8.884L8.9,2.963a.239.239,0,0,0,.014.337l2.962,2.747a.24.24,0,0,0,.34-.015l1.922-2.117A.239.239,0,0,0,14.12,3.577ZM6.788,15.369h9A.212.212,0,0,0,16,15.157V13.875a.211.211,0,0,0-.211-.211H8.309a.325.325,0,0,0-.253.121Z" fill-rule="evenodd"></path></g>
</symbol>

<symbol id="reports" viewBox="0 0 16 16">
  <title>reports</title><g id="Layer_1" data-name="Layer 1"><path d="M7.686,1.145A7.144,7.144,0,1,0,15.243,8.81a.453.453,0,0,0-.453-.481H8.49a.322.322,0,0,1-.322-.322V1.6A.454.454,0,0,0,7.686,1.145Z"></path><path d="M9.633,1.616v4.8a.286.286,0,0,0,.286.286h4.975a.432.432,0,0,0,.42-.541,7.014,7.014,0,0,0-5.146-4.969A.433.433,0,0,0,9.633,1.616Z"></path></g>
</symbol>

<symbol id="restricted" viewBox="0 0 16 16">
  <title>restricted</title><g id="Layer_1" data-name="Layer 1"><path d="M8,.028a8,8,0,1,0,8,8A8,8,0,0,0,8,.028Zm0,2A5.975,5.975,0,0,1,12.1,3.66L2.71,10.853A6,6,0,0,1,8,2.028Zm0,12a5.971,5.971,0,0,1-4.062-1.6l9.376-7.18A5.993,5.993,0,0,1,8,14.028Z"></path></g>
</symbol>

<symbol id="scholarship" viewBox="0 0 16 16">
  <title>scholarship</title><g id="Layer_1" data-name="Layer 1"><path d="M7.944,11.178A5.564,5.564,0,1,1,13.5,5.605,5.557,5.557,0,0,1,7.944,11.178Zm0-9.58a4.017,4.017,0,1,0,4.007,4.026A4.014,4.014,0,0,0,7.944,1.6Z"></path><polygon points="6.415 15.949 4.589 14.067 1.979 14.048 4.309 8.624 5.726 9.239 4.309 12.52 5.241 12.539 5.894 13.21 7.236 10.078 8.652 10.693 6.415 15.949"></polygon><polygon points="9.472 15.949 7.236 10.693 8.652 10.078 9.994 13.21 10.646 12.539 11.578 12.52 10.162 9.221 11.578 8.624 13.908 14.048 11.299 14.067 9.472 15.949"></polygon><path d="M7.944,3.208a2.406,2.406,0,1,0,2.4,2.412A2.4,2.4,0,0,0,7.944,3.208Z"></path></g>
</symbol>

<symbol id="simple-arrow" viewBox="0 0 16 16">
  <title>simple-arrow</title><g id="Layer_1" data-name="Layer 1"><polygon points="9.178 1.378 7.456 3.136 11.159 6.915 0.179 6.915 0.179 9.4 11.159 9.4 7.456 13.179 9.178 14.937 15.821 8.157 9.178 1.378"></polygon></g>
</symbol>

<symbol id="simple-person-outline" viewBox="0 0 16 16">
  <title>simple-person-outline</title><g id="Layer_1" data-name="Layer 1"><path d="M12.178,9.274,9.866,8.231a3.8,3.8,0,1,0-3.732,0L3.822,9.274a1.891,1.891,0,0,0-1.113,1.72V14.1a.731.731,0,0,0,.732.729h9.118a.731.731,0,0,0,.732-.729V10.994A1.891,1.891,0,0,0,12.178,9.274ZM8,2.619A2.323,2.323,0,1,1,5.667,4.941,2.33,2.33,0,0,1,8,2.619Zm3.826,10.753H4.174V10.994a.431.431,0,0,1,.253-.392L8,8.991,11.573,10.6a.431.431,0,0,1,.253.392Z"></path></g>
</symbol>

<symbol id="sort" viewBox="0 0 16 16">
  <title>sort</title><g id="Layer_1" data-name="Layer 1"><path d="M5.526,10.875H4.649V1.142h-2.4v9.733H1.371A.9.9,0,0,0,.71,12.349l2.077,2.479a.859.859,0,0,0,1.323,0l2.078-2.479A.9.9,0,0,0,5.526,10.875ZM15.29,3.933,13.213,1.454a.857.857,0,0,0-1.323,0L9.812,3.933a.9.9,0,0,0,.662,1.474h.877v9.732h2.4V5.407h.878A.9.9,0,0,0,15.29,3.933Z"></path></g>
</symbol>

<symbol id="stripe" viewBox="0 0 16 16">
  <title>stripe</title><g id="Layer_1" data-name="Layer 1"><path d="M1.011,9.891A3.152,3.152,0,0,1,.03,9.739V8.771a5.951,5.951,0,0,0,.835.146c.285,0,.465-.08.465-.385,0-.172-.14-.311-.325-.457L.687,7.816A1.535,1.535,0,0,1,0,6.516a1.343,1.343,0,0,1,1.511-1.4,2.91,2.91,0,0,1,.962.152v.941a3.6,3.6,0,0,0-.829-.139c-.246,0-.4.12-.4.372s.172.357.385.517l.311.232a1.462,1.462,0,0,1,.643,1.3C2.589,9.712,1.76,9.891,1.011,9.891Z"></path><path d="M4.215,9.891A.89.89,0,0,1,3.188,8.877V7.113H2.724v-.8h.464l.159-.8,1.1-.265V6.311H5.11l-.165.8h-.5V8.651c0,.239.073.286.213.286.092,0,.45-.053.45-.053v.895A5.111,5.111,0,0,1,4.215,9.891Z"></path><path d="M7.054,7.3a.822.822,0,0,0-.417.119V9.825H5.376V6.311h1l.186.338a.58.58,0,0,1,.563-.4.744.744,0,0,1,.391.073V7.365A2.013,2.013,0,0,0,7.054,7.3Z"></path><path d="M7.818,9.825V6.311h1.26V9.825Zm.63-3.945a.63.63,0,1,1,.623-.63A.623.623,0,0,1,8.448,5.88Z"></path><path d="M11.313,9.891a1.958,1.958,0,0,1-.444-.073v1.267H9.609V6.311h1.022l.185.219a1.126,1.126,0,0,1,.749-.285c.517,0,1.127.146,1.127,1.8C12.692,9.865,11.777,9.891,11.313,9.891Zm-.146-2.718a.841.841,0,0,0-.3.106v1.7a.939.939,0,0,0,.212.034c.219,0,.352-.186.352-.962S11.373,7.173,11.167,7.173Z"></path><path d="M14.278,8.486c0,.378.186.451.5.451A6.53,6.53,0,0,0,15.8,8.8v.915a3.513,3.513,0,0,1-1.028.179c-.789,0-1.751-.126-1.751-1.81,0-1.485.756-1.836,1.552-1.836.815,0,1.4.417,1.4,1.823v.418Zm.3-1.492c-.319,0-.285.391-.3.809h.531C14.809,7.392,14.829,6.994,14.577,6.994Z"></path></g>
</symbol>

<symbol id="twitter-outline" viewBox="0 0 16 16">
  <title>twitter-outline</title><g id="Layer_1" data-name="Layer 1"><path d="M15.535,2.824a1.177,1.177,0,0,0-.437-1.09,1.259,1.259,0,0,0-1.366-.107,4.368,4.368,0,0,1-.846.366,4.12,4.12,0,0,0-2.319-.717A3.949,3.949,0,0,0,6.675,4.32,6.738,6.738,0,0,1,3.109,2.18,1.2,1.2,0,0,0,2.09,1.76a1.221,1.221,0,0,0-.943.571A3.689,3.689,0,0,0,.6,4.265,3.638,3.638,0,0,0,.792,5.441a1.212,1.212,0,0,0-.216.711,3.71,3.71,0,0,0,.975,2.5,1.2,1.2,0,0,0,.054.491,3.772,3.772,0,0,0,.8,1.352,4.725,4.725,0,0,1-1.023,0A1.219,1.219,0,0,0,.1,11.278a1.189,1.189,0,0,0,.505,1.409,9.355,9.355,0,0,0,4.87,1.357,8.81,8.81,0,0,0,9.066-8.41,6.581,6.581,0,0,0,1.129-1.219,1.16,1.16,0,0,0,.247-.719A1.183,1.183,0,0,0,15.535,2.824Zm-2.2,2.23c.005.112.008.225.008.338A7.6,7.6,0,0,1,5.48,12.853a8.117,8.117,0,0,1-4.233-1.179,5.7,5.7,0,0,0,.658.037,5.732,5.732,0,0,0,3.431-1.123,2.746,2.746,0,0,1-2.58-1.82A2.911,2.911,0,0,0,4,8.723,2.661,2.661,0,0,1,1.787,6.152V6.119a2.862,2.862,0,0,0,1.252.328A2.587,2.587,0,0,1,1.81,4.265a2.5,2.5,0,0,1,.374-1.317A8,8,0,0,0,7.876,5.687a2.523,2.523,0,0,1-.071-.6,2.694,2.694,0,0,1,2.762-2.622,2.827,2.827,0,0,1,2.016.829,5.76,5.76,0,0,0,1.753-.636,2.663,2.663,0,0,1-1.214,1.45A5.8,5.8,0,0,0,14.708,3.7,5.491,5.491,0,0,1,13.33,5.054Z"></path></g>
</symbol>

<symbol id="undo" viewBox="0 0 16 16">
  <title>undo</title><g id="Layer_1" data-name="Layer 1"><path d="M15.5,12.857a6.027,6.027,0,0,0-.072-.93l-.081-.533q-.067-.273-.139-.562A9.287,9.287,0,0,0,14.8,9.638a9.675,9.675,0,0,0-.639-1.206,10.437,10.437,0,0,0-.84-1.155,9.462,9.462,0,0,0-1.028-1.014,11.109,11.109,0,0,0-1.136-.846,10.261,10.261,0,0,0-1.183-.626L9.4,4.547l-.557-.179c-.185-.053-.341-.115-.53-.153l-.528-.107-.468-.086-.106-.013V1.716a.721.721,0,0,0-1.182-.549L.75,5.535a.71.71,0,0,0,0,1.1L6.025,11a.721.721,0,0,0,1.182-.549V8.24l.094.008.24.009a2.786,2.786,0,0,1,.308.043l.35.054.365.1c.259.051.51.169.789.255a7.269,7.269,0,0,1,.8.4c.275.146.521.342.79.521a7.755,7.755,0,0,1,.707.65,8.522,8.522,0,0,1,.621.717,8.624,8.624,0,0,1,.479.762l.205.372c.053.127.1.249.154.367a4.8,4.8,0,0,1,.244.664l.092.285c.021.091.039.174.056.249l.11.48.027.121a.909.909,0,0,0,1.79-.121l.054-.611.025-.327C15.506,13.122,15.5,12.994,15.5,12.857Z"></path></g>
</symbol>

<symbol id="view" viewBox="0 0 16 16">
  <title>view</title><g id="Layer_1" data-name="Layer 1"><path d="M15.993,7.861c-.505-.9-3.5-5.57-7.984-5.57S.563,6.963.067,7.862a.282.282,0,0,0,0,.276c.5.9,3.453,5.571,7.942,5.571s7.479-4.667,7.984-5.57A.281.281,0,0,0,15.993,7.861ZM8.07,12.036A4.04,4.04,0,1,1,12.11,8,4.04,4.04,0,0,1,8.07,12.036Z"></path><path d="M8.236,5.986c0,.051.007.1.007.155A1.834,1.834,0,0,1,6.409,7.975a1.814,1.814,0,0,1-.356-.035c0,.019,0,.038,0,.056a2.018,2.018,0,1,0,2.184-2.01Z"></path></g>
</symbol>
    </svg>