<svg xmlns="http://www.w3.org/2000/svg">
    <symbol id="approval-group" class="symbol"><title id="title">approval-group icon</title><path class="cls-1" d="M12 8a4 4 0 1 0 4 4 4 4 0 0 0-4-4zm2.568 3.295l-2.546 2.545a.546.546 0 0 1-.771 0L9.8 12.386a.545.545 0 0 1 .771-.771l1.069 1.069 2.16-2.16a.545.545 0 0 1 .771.771z" role="presentation"/><path class="cls-1" d="M7 14.5H2a.485.485 0 0 1-.5-.48v-2.64a.5.5 0 0 1 .308-.457l4-1.65a10.2 10.2 0 0 1 .982-.342 4.5 4.5 0 1 0-2.921-.467L1.231 9.552A1.98 1.98 0 0 0 0 11.38v2.64A1.99 1.99 0 0 0 2 16h5a.75.75 0 0 0 0-1.5zm-4-10a3 3 0 1 1 3 3 3 3 0 0 1-3-3z" role="presentation"/></symbol>
<symbol id="calendar" class="symbol"><title id="title">calendar icon</title><path data-name="path0 fill" class="cls-1" d="M12.25 0a.75.75 0 0 0-.75.75v.75h-7V.75a.75.75 0 0 0-1.5 0v.75H2a2 2 0 0 0-2 2V14a2 2 0 0 0 2 2h12a2 2 0 0 0 2-2V3.5a2 2 0 0 0-2-2h-1V.75a.75.75 0 0 0-.75-.75zM2 14.5a.5.5 0 0 1-.5-.5V6a.5.5 0 0 1 .5-.5h12a.5.5 0 0 1 .5.5v8a.5.5 0 0 1-.5.5z" role="presentation"/></symbol>
<symbol id="check" class="symbol"><title id="title">check icon</title><path class="cls-1" d="M15.872 4.542l-2.415-2.415a.184.184 0 0 0-.261 0L6.118 9.205a.184.184 0 0 1-.261 0L2.689 6.037a.184.184 0 0 0-.261 0L.087 8.379a.184.184 0 0 0 0 .261L5.9 14.454a.222.222 0 0 0 .315 0L15.872 4.8a.184.184 0 0 0 0-.258z" role="presentation"/></symbol>
<symbol id="chevron_left" class="symbol"><title id="title">chevron_left icon</title><path class="cls-1" d="M10.425 15.933a1.242 1.242 0 0 1-.881-.365L1.977 8 9.544.433a1.246 1.246 0 1 1 1.762 1.762L5.5 8l5.806 5.806a1.246 1.246 0 0 1-.881 2.127z" role="presentation"/></symbol>
<symbol id="chevron_right" class="symbol"><title id="title">chevron_right icon</title><path class="cls-1" d="M5.847 15.933a1.242 1.242 0 0 0 .881-.365L14.3 8 6.728.433a1.246 1.246 0 0 0-1.762 1.761L10.772 8l-5.806 5.806a1.246 1.246 0 0 0 .881 2.127z" role="presentation"/></symbol>
<symbol id="chrome" class="symbol"><title id="title">chrome icon</title><path class="cls-1" d="M14.8 4.9l-4.4.13a3.821 3.821 0 0 1 .684 5.232l-3.518 5.203c.144.008.288.013.434.013A7.48 7.48 0 0 0 14.8 4.9zM5.346 8.007a2.682 2.682 0 1 0 2.682-2.682 2.682 2.682 0 0 0-2.682 2.682zM8 11.823a3.818 3.818 0 0 1-3.246-1.8q-.078-.126-.147-.258L2.013 5.206l-.528-.878a7.48 7.48 0 0 0 5.14 11.022l2.5-3.7A3.823 3.823 0 0 1 8 11.823zm-.336-7.631c.11-.01.221-.015.334-.015h.183l6.176-.117A7.478 7.478 0 0 0 2 3.543l2.25 3.738a3.825 3.825 0 0 1 3.414-3.089z" role="presentation"/></symbol>
<symbol id="close-disc" class="symbol"><title id="title">close-disc icon</title><path class="cls-1" d="M8.036.234A7.766 7.766 0 1 0 15.8 8 7.766 7.766 0 0 0 8.036.234zm4.484 10.628a.257.257 0 0 1 0 .363l-1.259 1.259a.257.257 0 0 1-.363 0L8.036 9.622l-2.862 2.862a.257.257 0 0 1-.363 0l-1.259-1.259a.257.257 0 0 1 0-.363L6.414 8 3.552 5.138a.257.257 0 0 1 0-.363l1.259-1.259a.257.257 0 0 1 .363 0l2.862 2.862L10.9 3.516a.257.257 0 0 1 .363 0l1.257 1.259a.257.257 0 0 1 0 .363L9.658 8z" role="presentation"/></symbol>
<symbol id="close" class="symbol"><title id="title">close icon</title><path class="cls-1" d="M10.288 7.93l3.99-3.99a.358.358 0 0 0 0-.506l-1.754-1.755a.358.358 0 0 0-.506 0l-3.99 3.99-3.99-3.99a.358.358 0 0 0-.506 0L1.776 3.434a.358.358 0 0 0 0 .506l3.99 3.99-3.99 3.99a.358.358 0 0 0 0 .506l1.755 1.755a.358.358 0 0 0 .506 0l3.99-3.99 3.99 3.99a.358.358 0 0 0 .506 0l1.755-1.755a.358.358 0 0 0 0-.506z" role="presentation"/></symbol>
<symbol id="dark" class="symbol"><title id="title">dark icon</title><path class="cls-1" d="M4.106 4.808V3.743H5.17a.533.533 0 1 0 0-1.065H4.106V1.612a.533.533 0 0 0-1.066 0v1.065H1.975a.533.533 0 1 0 0 1.066h1.064v1.065a.533.533 0 1 0 1.066 0zm6.548.519a5.327 5.327 0 0 1-4.262 8.521 5.326 5.326 0 1 0 4.262-8.521zM6.236 8.538H5.7V8a.533.533 0 0 0-1.063 0v.533h-.531a.532.532 0 1 0 0 1.065h.531v.534a.533.533 0 0 0 1.066 0V9.6h.533a.532.532 0 0 0 0-1.065z" role="presentation"/></symbol>
<symbol id="date" class="symbol"><title id="title">date icon</title><path class="cls-1" d="M15.518 2.326h-1.433V1.257c0-.7-.9-1.271-1.605-1.271s-1.64.57-1.64 1.271v1.069H4.819V1.257c0-.7-.9-1.271-1.605-1.271s-1.64.57-1.64 1.271v1.069H.518a.5.5 0 0 0-.5.5v12.692a.5.5 0 0 0 .5.5h15a.5.5 0 0 0 .5-.5V2.826a.5.5 0 0 0-.5-.5zm-3.577-.749a.521.521 0 0 1 1.042 0v.7a.521.521 0 0 1-1.042 0zm-9.28 0a.521.521 0 0 1 1.042 0v.7a.521.521 0 0 1-1.042 0zm2.8 12.92H1.6v-3.141h3.86zm0-3.876H1.6V7.676h3.86zm0-3.68H1.6V3.883h3.86zM9.937 14.5H6.194v-3.144h3.743zm0-3.876H6.194V7.676h3.743zm0-3.68H6.194V3.883h3.743zm4.5 7.556h-3.765v-3.144h3.762zm0-3.876h-3.765V7.676h3.762zm0-3.68h-3.765V3.883h3.762z" role="presentation"/></symbol>
<symbol id="delete" class="symbol"><title id="title">delete icon</title><path class="cls-1" d="M8.035 0A7.965 7.965 0 1 0 16 7.965 7.965 7.965 0 0 0 8.035 0zm4.606 8.727a.3.3 0 0 1-.1.234.335.335 0 0 1-.226.1H3.782a.291.291 0 0 1-.329-.329v-1.58a.29.29 0 0 1 .329-.327h8.53a.331.331 0 0 1 .226.094.3.3 0 0 1 .1.234z" role="presentation"/></symbol>
<symbol id="event" class="symbol"><title id="title">event icon</title><path data-name="path0 fill" class="cls-1" d="M12.25 0a.75.75 0 0 0-.75.75v.75h-7V.75a.75.75 0 0 0-1.5 0v.75H2a2 2 0 0 0-2 2V14a2 2 0 0 0 2 2h12a2 2 0 0 0 2-2V3.5a2 2 0 0 0-2-2h-1V.75a.75.75 0 0 0-.75-.75zM2 14.5a.5.5 0 0 1-.5-.5V6a.5.5 0 0 1 .5-.5h12a.5.5 0 0 1 .5.5v8a.5.5 0 0 1-.5.5zM11.5 8h-3a.5.5 0 0 0-.5.5v3a.5.5 0 0 0 .5.5h3a.5.5 0 0 0 .5-.5v-3a.5.5 0 0 0-.5-.5z" role="presentation"/></symbol>
<symbol id="file-pdf" class="symbol"><title id="title">file-pdf icon</title><path data-name="path0 fill" class="cls-1" d="M9.858 0H2.31a.807.807 0 0 0-.81.8v14.4a.807.807 0 0 0 .81.8h11.38a.807.807 0 0 0 .81-.8V4.149zm2.582 4.155l-2.47.007a.119.119 0 0 1-.12-.118V1.85zm.7 10.5H2.859V1.35H8.5v2.691a1.453 1.453 0 0 0 .432 1.04 1.476 1.476 0 0 0 1.05.431l3.159-.012z" role="presentation"/><path data-name="path1 fill" class="cls-1" d="M10.815 10.183a1.079 1.079 0 0 0-1.024-.458 4.086 4.086 0 0 0-.7.059 7.886 7.886 0 0 1-1.035-1.536c.306-1.307.115-1.732-.059-1.94a.766.766 0 0 0-.585-.275.99.99 0 0 0-.264.046.8.8 0 0 0-.523.487 2.382 2.382 0 0 0 .276 1.8 16.175 16.175 0 0 1-.848 2.364c-1.01.474-1.511.943-1.574 1.472a.93.93 0 0 0 .412.872.717.717 0 0 0 .444.156 1.279 1.279 0 0 0 .974-.663 6.79 6.79 0 0 0 .569-.993 12.908 12.908 0 0 1 1.835-.594 1.8 1.8 0 0 0 1.152.526.991.991 0 0 0 .82-.435.8.8 0 0 0 .13-.888zm-.741.451a.215.215 0 0 1-.208.112.958.958 0 0 1-.51-.244c.17-.019.321-.038.434-.038a.688.688 0 0 1 .34.056c-.018.039-.018.08-.056.114zM5.223 12.3c.019-.131.226-.375.755-.675-.4.731-.6.825-.642.844-.113-.092-.113-.148-.113-.169zm2.171-4.684a1.232 1.232 0 0 1-.075-.75q.028-.056.057-.056h.019a1.58 1.58 0 0 1-.001.806zm.132 1.275a9.711 9.711 0 0 0 .944 1.368 12.234 12.234 0 0 0-1.6.506 17.039 17.039 0 0 0 .656-1.874z" role="presentation"/></symbol>
<symbol id="firefox" class="symbol"><title id="title">firefox icon</title><path class="cls-1" d="M14.359 3.319a.087.087 0 0 0-.095-.034.087.087 0 0 0-.064.115 4.75 4.75 0 0 1 .178.495 6.094 6.094 0 0 1 .135.712l-.036.01a5.751 5.751 0 0 0-1.262-1.662 6.11 6.11 0 0 0-1.936-1.183.114.114 0 0 0-.12.19c1.251 1.138 1.752 1.882 1.766 2.556a3.984 3.984 0 0 0-1.212-.92.1.1 0 0 0-.106.022.1.1 0 0 0-.005.142 5.66 5.66 0 0 1 1.363 4.383v.01c-.107 2.335-2.7 3.987-4.627 3.987s-2.45-.811-2.45-.811l.005-.018.006-.02.007-.026.005-.018a4.209 4.209 0 0 0 2.865-.955 1.1 1.1 0 0 1 .6-.131c.3-.01.39-.134.223-.4a.961.961 0 0 0-.276-.284 1.555 1.555 0 0 0-1.445-.209c-.25.086-.5.178-.752.253a1.853 1.853 0 0 1-2.254-1.18.878.878 0 0 1-.045-.3.377.377 0 0 1 .088-.233.591.591 0 0 1 .6-.258h.007a.53.53 0 0 1 .365.153 1.567 1.567 0 0 0 .07-.617.592.592 0 0 1-.02-.211v-.011a.492.492 0 0 1 .263-.358c.284-.18.6-.317.864-.518a1.968 1.968 0 0 0 .567-.609c.192-.368.075-.514-.351-.54-.366-.023-.734-.033-1.1-.053a.627.627 0 0 1-.591-.909c.231-.443.539-.846.814-1.267a2.7 2.7 0 0 0-2.5.873c-.403.015-.79.015-1.18.015a3.022 3.022 0 0 1-1.1-1.426 3.184 3.184 0 0 0-.776 1.85 4.825 4.825 0 0 1-.1 1.058q-.048.15-.092.3a7.676 7.676 0 0 0-.261 1 7.742 7.742 0 1 0 13.963-2.96z" role="presentation"/></symbol>
<symbol id="folder-back" class="symbol"><title id="title">folder-back icon</title><path class="cls-1" d="M14.715 3.273a.591.591 0 0 0-.591-.591H8.261V2.4a.855.855 0 0 0-.855-.855H2.061a.855.855 0 0 0-.855.855v.283H.671a.591.591 0 0 0-.591.591v2.114h14.635zM5.95 13.557a1.147 1.147 0 0 1 0-1.965l5.688-3.459.337-.017a1.113 1.113 0 0 1 1.112 1.111v.893h2.23l.6-3.4H.08v7.175a.808.808 0 0 0 .808.808H7.85z" role="presentation"/><path class="cls-1" d="M15.953 13.884a.146.146 0 0 1-.146.146h-3.722v1.859a.111.111 0 0 1-.168.1L6.466 12.7a.148.148 0 0 1 0-.253l5.451-3.314a.111.111 0 0 1 .169.095v1.892h3.722a.146.146 0 0 1 .146.146z" role="presentation"/></symbol>
<symbol id="folder" class="symbol"><title id="title">folder icon</title><path class="cls-1" d="M14.715 3.273a.591.591 0 0 0-.591-.591H8.261V2.4a.855.855 0 0 0-.855-.855H2.061a.855.855 0 0 0-.855.855v.283H.671a.591.591 0 0 0-.591.591v2.114h14.635zM.08 6.719v7.175a.808.808 0 0 0 .808.808h12.936a.808.808 0 0 0 .8-.666l1.3-7.316z" role="presentation"/></symbol>
<symbol id="internet_explorer" class="symbol"><title id="title">internet_explorer icon</title><path class="cls-1" d="M10.082 1.892A7.461 7.461 0 0 1 13.566.569c1.871 0 1.727 1.6 1.514 2.464a.06.06 0 0 0 .049.074.061.061 0 0 0 .067-.042C16.145-.085 13.63.15 13.63.15c-1.806 0-4.064 1.645-4.064 1.645a7.48 7.48 0 0 0-5.386.9A6.263 6.263 0 0 0 1.367 7.4a.144.144 0 0 0 .258.1A14.858 14.858 0 0 1 6.9 3.154a.108.108 0 0 1 .154.1.108.108 0 0 1-.054.089 15.994 15.994 0 0 0-6.3 9.224c-.29 1-.1 3.243 1.967 3.243a8.013 8.013 0 0 0 4.161-1.663 9.372 9.372 0 0 0 1.677.1A6.493 6.493 0 0 0 14.888 9.7h-4.58a1.965 1.965 0 0 1-1.967 1.484 2.139 2.139 0 0 1-2.129-2.358h8.741c.419-6.064-4.871-6.934-4.871-6.934zM6.569 14.081s-3.15 1.912-4.569.587c-.758-1.325.474-3.2.474-3.2a6.145 6.145 0 0 0 4.095 2.613zm3.789-7.318H6.2a1.977 1.977 0 0 1 2.132-2.026 1.918 1.918 0 0 1 2.026 2.026z" role="presentation"/></symbol>
<symbol id="light" class="symbol"><title id="title">light icon</title><path class="cls-1" d="M8.048 2.53a.5.5 0 0 0 .5-.5V.535a.5.5 0 0 0-1 0v1.5a.5.5 0 0 0 .5.495zm-3.425.553a.5.5 0 0 0 .432.249.508.508 0 0 0 .25-.066.5.5 0 0 0 .183-.682l-.749-1.3a.5.5 0 0 0-.864.5zM2.56 8.018a.5.5 0 0 0-.5-.5H.565a.5.5 0 0 0 0 1h1.5a.5.5 0 0 0 .495-.5zm10.672-2.494a.49.49 0 0 0 .249-.067l1.3-.748a.5.5 0 1 0-.5-.864l-1.3.748a.5.5 0 0 0 .25.931zm-2.441-2.258a.5.5 0 0 0 .683-.183l.748-1.3a.5.5 0 0 0-.865-.5l-.748 1.3a.5.5 0 0 0 .182.683zm-8.177 7.313l-1.3.748a.5.5 0 0 0 .5.865l1.3-.749a.5.5 0 0 0-.5-.864zm12.916-3.06h-1.5a.5.5 0 0 0 0 1h1.5a.5.5 0 0 0 0-1z" role="presentation"/><circle class="cls-1" cx="8.048" cy="8.018" r="4.572"/><path class="cls-1" d="M3.113 4.593l-1.3-.748a.5.5 0 0 0-.5.864l1.3.748a.49.49 0 0 0 .249.067.5.5 0 0 0 .25-.931zm11.664 6.734l-1.3-.748a.5.5 0 1 0-.5.864l1.3.749a.506.506 0 0 0 .249.065.5.5 0 0 0 .25-.931zm-3.303 1.625a.5.5 0 0 0-.865.5l.748 1.3a.5.5 0 0 0 .433.249.493.493 0 0 0 .25-.067.5.5 0 0 0 .183-.681zm-3.426.554a.5.5 0 0 0-.5.5v1.5a.5.5 0 1 0 1 0V14a.5.5 0 0 0-.5-.494zM5.3 12.771a.5.5 0 0 0-.682.182l-.749 1.3a.5.5 0 1 0 .864.5l.749-1.295a.5.5 0 0 0-.182-.687z" role="presentation"/></symbol>
<symbol id="menu" class="symbol"><title id="title">menu icon</title><path class="cls-1" d="M15.781 1.726a.636.636 0 0 0-.462-.194H.722a.656.656 0 0 0-.479.194.626.626 0 0 0-.194.462v2.129a.626.626 0 0 0 .194.462.65.65 0 0 0 .479.2h14.6a.666.666 0 0 0 .656-.657V2.188a.626.626 0 0 0-.197-.462zM15.319 6.4H.722a.656.656 0 0 0-.479.194.626.626 0 0 0-.194.462V9.18a.626.626 0 0 0 .194.462.65.65 0 0 0 .479.2h14.6a.665.665 0 0 0 .656-.657V7.051a.626.626 0 0 0-.194-.462.636.636 0 0 0-.465-.189zm0 4.859H.722a.656.656 0 0 0-.479.194.626.626 0 0 0-.194.462v2.129a.626.626 0 0 0 .194.462.65.65 0 0 0 .479.2h14.6a.665.665 0 0 0 .656-.657v-2.134a.626.626 0 0 0-.194-.462.636.636 0 0 0-.465-.194z" role="presentation"/></symbol>
<symbol id="note" class="symbol"><title id="title">note icon</title><path class="cls-1" d="M13.5 0h-11a1 1 0 0 0-1 1v14a1 1 0 0 0 1 1h7.25l.75-.75L13.75 12l.75-.75V1a1 1 0 0 0-1-1zm-3 13.129v-.879a.25.25 0 0 1 .25-.25h.879zM13 10.5h-2.25A1.75 1.75 0 0 0 9 12.25v2.25H3v-13h10z" role="presentation"/><rect class="cls-1" x="4.5" y="3" width="7" height="1.5" rx=".5" ry=".5"/><rect class="cls-1" x="4.5" y="6" width="7" height="1.5" rx=".5" ry=".5"/><rect class="cls-1" x="4.5" y="9" width="4" height="1.5" rx=".5" ry=".5"/></symbol>
<symbol id="notification" class="symbol"><title id="title">notification icon</title><path d="M15.323 11.506l-1.905-2.272V5.817A5.374 5.374 0 0 0 8.089.41a5.374 5.374 0 0 0-5.328 5.407v3.417L.856 11.5a1.533 1.533 0 0 0-.219 1.635A1.481 1.481 0 0 0 2 14.024h3.78a2.486 2.486 0 0 0 4.619 0h3.782a1.485 1.485 0 0 0 1.361-.885 1.529 1.529 0 0 0-.219-1.633z" role="presentation"/></symbol>
<symbol id="octagon" class="symbol"><title id="title">octagon icon</title><path class="cls-1" d="M4.694 15.938L.031 11.275V4.681L4.694.018h6.594l4.663 4.663v6.594l-4.663 4.663H4.694z" role="presentation"/></symbol>
<symbol id="people" class="symbol"><title id="title">people icon</title><path data-name="path0 fill" class="cls-1" d="M11 4.5a3 3 0 1 1-3-3 3 3 0 0 1 3 3zm-.79 3.921a4.5 4.5 0 1 0-4.42 0L3.231 9.487A2 2 0 0 0 2 11.333V14a2 2 0 0 0 2 2h8a2 2 0 0 0 2-2v-2.667a2 2 0 0 0-1.231-1.846zm2.29 2.913V14a.5.5 0 0 1-.5.5H4a.5.5 0 0 1-.5-.5v-2.667a.5.5 0 0 1 .308-.462l4-1.667a.5.5 0 0 1 .385 0l4 1.667a.5.5 0 0 1 .307.462z" role="presentation"/></symbol>
<symbol id="primary-room" class="symbol"><title id="title">primary-room icon</title><path class="cls-1" d="M8.657 3.33H6.874a.094.094 0 0 0-.1.1v5.222a.094.094 0 0 0 .1.1H7.98a.094.094 0 0 0 .1-.1V7.425a.052.052 0 0 1 .059-.06h.518c1.2 0 1.991-.482 1.991-2.015s-.757-2.02-1.991-2.02zm-.04 2.89h-.479a.053.053 0 0 1-.059-.06V4.535a.052.052 0 0 1 .059-.06h.478c.508 0 .726.108.726.875s-.218.87-.725.87z" role="presentation"/><path class="cls-1" d="M14.089 3.716a6.028 6.028 0 0 0-3.22-3.242A5.9 5.9 0 0 0 8.509 0a5.971 5.971 0 0 0-2.36.474 6.046 6.046 0 0 0-3.243 3.242 5.988 5.988 0 0 0-.474 2.371 5.372 5.372 0 0 0 .266 1.7 7.447 7.447 0 0 0 .7 1.54s3.831 5.438 4.146 5.838c.276.35.671.838.952.838.328 0 .635-.48.9-.849L13.6 9.345a7.365 7.365 0 0 0 .7-1.545 5.529 5.529 0 0 0 .263-1.715 5.993 5.993 0 0 0-.474-2.369zm-5.568 6.456a4.051 4.051 0 0 1-4.109-4.109 4.109 4.109 0 0 1 4.109-4.109c2.269 0 4.38 1.856 4.109 4.109a4.655 4.655 0 0 1-4.109 4.109z" role="presentation"/></symbol>
<symbol id="questions" class="symbol"><title id="title">questions icon</title><path class="cls-1" d="M7.984.092A7.819 7.819 0 1 0 15.8 7.911 7.819 7.819 0 0 0 7.984.092zm0 13.706a5.887 5.887 0 1 1 5.887-5.887A5.887 5.887 0 0 1 7.986 13.8z" role="presentation"/><path class="cls-1" d="M8.622 10.834h-1.66a.318.318 0 0 0-.3.3v1.579a.3.3 0 0 0 .093.217.274.274 0 0 0 .211.1h1.66a.264.264 0 0 0 .208-.1.311.311 0 0 0 .087-.217v-1.575a.308.308 0 0 0-.083-.211.267.267 0 0 0-.216-.093zm1.61-7.008a3.52 3.52 0 0 0-1.049-.537A3.8 3.8 0 0 0 8.025 3.1a3.678 3.678 0 0 0-1.148.167 5.265 5.265 0 0 0-.865.359 2.714 2.714 0 0 0-.537.359c-.122.111-.19.173-.2.188a.3.3 0 0 0-.031.395L6.2 5.733a.279.279 0 0 0 .2.12.474.474 0 0 0 .233-.06l.1-.081a1.867 1.867 0 0 1 .276-.178 2.409 2.409 0 0 1 .4-.167 1.5 1.5 0 0 1 .471-.07 1.1 1.1 0 0 1 .7.227.714.714 0 0 1 .289.582.945.945 0 0 1-.248.652A7.668 7.668 0 0 1 8 7.372q-.232.183-.471.409A3.179 3.179 0 0 0 7.1 8.3a2.783 2.783 0 0 0-.32.642 1.646 1.646 0 0 0-.122.66v.359a.314.314 0 0 0 .3.3h1.66a.271.271 0 0 0 .208-.091.293.293 0 0 0 .087-.211v-.365c0-.264.085-.2.258-.384s.382-.39.632-.613a5.172 5.172 0 0 0 .5-.464 5.006 5.006 0 0 0 .464-.578 2.756 2.756 0 0 0 .349-.7 2.844 2.844 0 0 0 .132-.917 2.63 2.63 0 0 0-.279-1.226 2.58 2.58 0 0 0-.737-.886z" role="presentation"/></symbol>
<symbol id="reservation-block" class="symbol"><title id="title">reservation-block icon</title><g data-name="Reservation Block"><path data-name="path0 fill" class="cls-1" d="M12.25 0a.75.75 0 0 0-.75.75v.75h-7V.75a.75.75 0 0 0-1.5 0v.75H2a2 2 0 0 0-2 2V14a2 2 0 0 0 2 2h12a2 2 0 0 0 2-2V3.5a2 2 0 0 0-2-2h-1V.75a.75.75 0 0 0-.75-.75zM2 14.5a.5.5 0 0 1-.5-.5V6a.5.5 0 0 1 .5-.5h12a.5.5 0 0 1 .5.5v8a.5.5 0 0 1-.5.5z" role="presentation"/><g data-name="Rectangle 5"><path data-name="path1 fill" class="cls-1" d="M9 7H3.5a.5.5 0 0 0-.5.5v1.25a.5.5 0 0 0 .5.5H9a.5.5 0 0 0 .5-.5V7.5A.5.5 0 0 0 9 7z" role="presentation"/></g><g data-name="Rectangle 5"><path data-name="path1 fill" class="cls-1" d="M12.5 10.75H7a.5.5 0 0 0-.5.5v1.25a.5.5 0 0 0 .5.5h5.5a.5.5 0 0 0 .5-.5v-1.25a.5.5 0 0 0-.5-.5z" role="presentation"/></g></g></symbol>
<symbol id="resources-logo" class="symbol"><title id="title">resources-logo icon</title><rect class="cls-1" x="1.235" y="7.439" width=".661" height=".614" rx=".047" ry=".047"/><rect class="cls-1" x="2.131" y="7.439" width=".661" height=".614" rx=".047" ry=".047"/><rect class="cls-1" x="1.235" y="8.289" width=".661" height=".614" rx=".047" ry=".047"/><rect class="cls-1" x="2.131" y="8.289" width=".661" height=".614" rx=".047" ry=".047"/><path class="cls-2" d="M3.41 6.264H.594a.384.384 0 0 0-.375.387v2.815a.387.387 0 0 0 .387.387h2.816a.387.387 0 0 0 .387-.387V6.651a.389.389 0 0 0-.399-.387zm0 2.993a.171.171 0 0 1-.171.171H.785a.171.171 0 0 1-.171-.171V6.83a.171.171 0 0 1 .171-.171h.448v.181a.121.121 0 0 0 .121.121h1.3a.121.121 0 0 0 .121-.121v-.181h.472a.171.171 0 0 1 .171.171z" role="presentation"/><path class="cls-1" d="M5.514 9.486l-.354-.529h-.286v.529H4.51V7.833h.755c.39 0 .623.205.623.545a.513.513 0 0 1-.354.512l.4.59zM5.521 8.4c0-.156-.109-.236-.286-.236h-.361v.475h.368c.177 0 .279-.095.279-.234zm1.739.578h-.881a.293.293 0 0 0 .309.248A.415.415 0 0 0 7 9.1l.205.182a.668.668 0 0 1-1.183-.422.63.63 0 0 1 .626-.66.616.616 0 0 1 .616.687c0 .037-.002.058-.004.091zm-.611-.493a.282.282 0 0 0-.274.269h.541a.271.271 0 0 0-.268-.269zm1.237 1.024a.886.886 0 0 1-.543-.191l.157-.236a.716.716 0 0 0 .4.151c.1 0 .151-.038.151-.094 0-.078-.123-.1-.262-.147-.177-.052-.378-.134-.378-.38a.414.414 0 0 1 .463-.4.876.876 0 0 1 .472.146L8.2 8.6a.749.749 0 0 0-.342-.118c-.087 0-.132.038-.132.087 0 .071.12.1.257.151.177.059.382.144.382.376.005.286-.205.413-.479.413zm1.271.005a.658.658 0 0 1-.682-.654.685.685 0 0 1 1.37 0 .664.664 0 0 1-.688.654zm.333-.659a.336.336 0 0 0-.333-.349.324.324 0 0 0-.328.345.336.336 0 0 0 .333.35.324.324 0 0 0 .328-.345zm1.326.631v-.18a.448.448 0 0 1-.371.2.415.415 0 0 1-.43-.47V8.22h.359v.706c0 .17.08.257.217.257s.224-.087.224-.257V8.22h.359v1.266zm1.357-.914c-.238 0-.385.144-.385.446v.467h-.359V8.22h.359v.255a.391.391 0 0 1 .4-.279v.375zm.749.942a.646.646 0 0 1-.659-.654.65.65 0 0 1 .663-.659.623.623 0 0 1 .505.212l-.22.236a.37.37 0 0 0-.288-.139.323.323 0 0 0-.307.345.324.324 0 0 0 .321.35.4.4 0 0 0 .29-.135l.21.213a.638.638 0 0 1-.515.231zm1.812-.536h-.881a.294.294 0 0 0 .309.248.415.415 0 0 0 .307-.13l.206.182A.668.668 0 0 1 13.5 8.86a.63.63 0 0 1 .626-.659.616.616 0 0 1 .616.687 1.575 1.575 0 0 0-.008.09zm-.611-.493a.282.282 0 0 0-.274.269h.541a.272.272 0 0 0-.268-.269zm1.237 1.024a.887.887 0 0 1-.543-.191l.153-.236a.716.716 0 0 0 .4.151c.1 0 .151-.038.151-.094 0-.078-.123-.1-.262-.147-.177-.052-.378-.134-.378-.38a.414.414 0 0 1 .463-.4.875.875 0 0 1 .472.146l-.137.248a.75.75 0 0 0-.342-.118c-.087 0-.132.038-.132.087 0 .071.12.1.257.151.177.059.382.144.382.376 0 .28-.21.407-.484.407zM4.528 7.394a.01.01 0 0 1-.011-.011v-.7a.01.01 0 0 1 .011-.011h.1a.01.01 0 0 1 .011.011v.04a.159.159 0 0 1 .14-.062.177.177 0 0 1 .183.127.607.607 0 0 1 0 .3.177.177 0 0 1-.183.127.159.159 0 0 1-.14-.062v.237a.01.01 0 0 1-.011.011zm.319-.363a.448.448 0 0 0 0-.2.1.1 0 0 0-.2 0 .448.448 0 0 0 0 .2.1.1 0 0 0 .2 0zm.399.169c-.1 0-.145-.049-.145-.151v-.59a.01.01 0 0 1 .011-.011h.1a.01.01 0 0 1 .011.011v.583c0 .036.014.048.046.048h.024a.01.01 0 0 1 .007.01v.088a.01.01 0 0 1-.011.011zm.48 0a.01.01 0 0 1-.011-.011v-.042a.173.173 0 0 1-.149.061.158.158 0 0 1-.178-.161c0-.115.081-.168.212-.168h.108a.006.006 0 0 0 .006-.006v-.025c0-.06-.029-.088-.117-.088a.185.185 0 0 0-.121.036.01.01 0 0 1-.015 0l-.041-.072a.01.01 0 0 1 0-.014.309.309 0 0 1 .188-.051c.161 0 .22.055.22.184v.345a.01.01 0 0 1-.011.011zm-.013-.178v-.04a.006.006 0 0 0-.006-.007h-.089c-.079 0-.114.022-.114.071s.032.066.091.066c.076-.003.118-.033.118-.093zm.595.178a.01.01 0 0 1-.008-.014v-.3c0-.068-.034-.115-.1-.115a.1.1 0 0 0-.1.115v.3a.01.01 0 0 1-.011.011h-.1a.01.01 0 0 1-.011-.011v-.507a.01.01 0 0 1 .011-.011h.1a.01.01 0 0 1 .011.011v.038a.163.163 0 0 1 .139-.061.18.18 0 0 1 .183.2v.333a.01.01 0 0 1-.011.011zm.592 0a.01.01 0 0 1-.011-.011v-.3c0-.068-.034-.115-.1-.115a.1.1 0 0 0-.1.115v.3a.01.01 0 0 1-.011.011h-.1a.01.01 0 0 1-.011-.011v-.51a.01.01 0 0 1 .011-.011h.1a.01.01 0 0 1 .011.011v.038a.163.163 0 0 1 .139-.061.18.18 0 0 1 .183.2v.333A.01.01 0 0 1 7 7.2zm.264-.631a.01.01 0 0 1-.011-.011v-.1a.01.01 0 0 1 .011-.011h.1a.01.01 0 0 1 .011.011v.1a.01.01 0 0 1-.011.011zm0 .628a.01.01 0 0 1-.011-.011v-.507a.01.01 0 0 1 .011-.011h.1a.01.01 0 0 1 .011.011v.506a.01.01 0 0 1-.011.011zm.595.003a.01.01 0 0 1-.011-.011v-.3c0-.068-.034-.115-.1-.115a.1.1 0 0 0-.1.115v.3a.01.01 0 0 1-.011.011h-.1a.01.01 0 0 1-.011-.011v-.51a.01.01 0 0 1 .011-.011h.1a.01.01 0 0 1 .011.011v.038a.163.163 0 0 1 .139-.061.18.18 0 0 1 .183.2v.333a.01.01 0 0 1-.01.011zM8 7.327a.01.01 0 0 1 0-.015l.065-.065a.01.01 0 0 1 .016 0A.162.162 0 0 0 8.2 7.3c.081 0 .118-.044.118-.126v-.053a.152.152 0 0 1-.137.061A.177.177 0 0 1 8 7.054a.4.4 0 0 1-.018-.135A.394.394 0 0 1 8 6.786a.176.176 0 0 1 .18-.129.151.151 0 0 1 .137.063v-.04a.01.01 0 0 1 .011-.011h.1a.01.01 0 0 1 .011.011v.485a.221.221 0 0 1-.247.242.261.261 0 0 1-.192-.08zm.3-.321a.245.245 0 0 0 .012-.087.254.254 0 0 0-.012-.087.1.1 0 0 0-.187 0 .254.254 0 0 0-.012.087.245.245 0 0 0 .012.087.1.1 0 0 0 .187 0zm.411.057a.527.527 0 0 1 0-.261.213.213 0 0 1 .218-.146.23.23 0 0 1 .183.082.011.011 0 0 1 0 .015l-.069.06a.01.01 0 0 1-.015 0 .12.12 0 0 0-.1-.046.1.1 0 0 0-.1.069.313.313 0 0 0-.011.1.322.322 0 0 0 .011.1.1.1 0 0 0 .1.068.12.12 0 0 0 .1-.046.01.01 0 0 1 .015 0l.069.06c.006 0 0 .01 0 .015a.233.233 0 0 1-.183.081.213.213 0 0 1-.218-.151zm.512-.001a.411.411 0 0 1-.023-.13.423.423 0 0 1 .017-.13.234.234 0 0 1 .433 0 .472.472 0 0 1 .018.159.011.011 0 0 1-.012.011h-.322a.006.006 0 0 0-.007.007.118.118 0 0 0 .008.04.115.115 0 0 0 .118.08.159.159 0 0 0 .124-.05.011.011 0 0 1 .017 0l.065.057a.01.01 0 0 1 0 .015.278.278 0 0 1-.217.09.214.214 0 0 1-.219-.149zm.319-.233a.113.113 0 0 0-.207 0 .13.13 0 0 0-.007.045s0 .006.007.006h.207a.006.006 0 0 0 .007-.006.133.133 0 0 0-.007-.046zm.585.371a.01.01 0 0 1-.011-.011v-.3c0-.068-.034-.115-.1-.115a.1.1 0 0 0-.1.115v.3A.01.01 0 0 1 9.9 7.2h-.1a.01.01 0 0 1-.011-.011v-.51a.01.01 0 0 1 .011-.011h.1a.01.01 0 0 1 .011.011v.038a.164.164 0 0 1 .139-.061.18.18 0 0 1 .183.2v.333a.01.01 0 0 1-.011.011zm.41 0c-.106 0-.147-.052-.147-.155V6.77a.006.006 0 0 0-.007-.007h-.035a.01.01 0 0 1-.011-.011v-.073a.01.01 0 0 1 .011-.011h.035a.006.006 0 0 0 .007-.007v-.144a.01.01 0 0 1 .011-.011h.1a.01.01 0 0 1 .011.011v.145a.006.006 0 0 0 .007.007h.07a.01.01 0 0 1 .011.011v.074a.01.01 0 0 1-.011.011h-.07a.006.006 0 0 0-.007.007v.274c0 .037.015.049.049.049h.028a.01.01 0 0 1 .011.005v.088a.01.01 0 0 1-.011.011zm.176-.138a.411.411 0 0 1-.019-.129.42.42 0 0 1 .018-.13.234.234 0 0 1 .433 0 .472.472 0 0 1 .018.159.011.011 0 0 1-.012.011h-.326a.006.006 0 0 0-.007.007.123.123 0 0 0 .126.12.159.159 0 0 0 .124-.05c.005-.006.011-.007.016 0l.065.057a.01.01 0 0 1 0 .015.278.278 0 0 1-.217.09.214.214 0 0 1-.219-.15zm.319-.233a.113.113 0 0 0-.207 0 .133.133 0 0 0-.007.045.006.006 0 0 0 .007.006h.207a.006.006 0 0 0 .007-.006.133.133 0 0 0-.007-.046zm.262.371a.01.01 0 0 1-.011-.011v-.51a.01.01 0 0 1 .011-.011h.1a.01.01 0 0 1 .011.011v.045a.151.151 0 0 1 .137-.068.159.159 0 0 1 .111.044c.006.005.007.01 0 .015l-.058.073a.01.01 0 0 1-.015 0 .143.143 0 0 0-.078-.025c-.069 0-.1.049-.1.134v.286a.01.01 0 0 1-.002.017z" role="presentation"/></symbol>
<symbol id="resources-reverse" class="symbol"><title id="title">resources-reverse icon</title><path class="cls-1" d="M14 0H2a2 2 0 0 0-2 2v12a2 2 0 0 0 2 2h12a2 2 0 0 0 2-2V2a2 2 0 0 0-2-2zM5 12.5a2 2 0 1 1 2-2 2 2 0 0 1-2 2zM6 5a2 2 0 1 1 2 2 2 2 0 0 1-2-2zm5 7.5a2 2 0 1 1 2-2 2 2 0 0 1-2 2z" role="presentation"/></symbol>
<symbol id="room-setup-add" class="symbol"><title id="title">room-setup-add icon</title><path class="cls-1" d="M5.373 7.225A1.281 1.281 0 0 1 4.4 8.72c-.671.146-.875 1.444-1.008.764L1.74 1.519a1.281 1.281 0 0 1 .974-1.5 1.217 1.217 0 0 1 1.457.97z" role="presentation"/><path class="cls-1" d="M14.5 7.766c0 .8-.611 1.84-1.365 1.84H4.447c-.754 0-1.365-1.044-1.365-1.84a1.375 1.375 0 0 1 1.365-1.407h8.688A1.375 1.375 0 0 1 14.5 7.766z" role="presentation"/><path class="cls-1" d="M4.314 15.213c-.05.358-.975.8-1.314.749a.65.65 0 0 1-.524-.743L3.7 8.242a.627.627 0 0 1 .7-.553c.339.053 1.023.475.974.833zm9.109.11c0 .362-.078.655-.421.655a.638.638 0 0 1-.62-.655v-6.51A.638.638 0 0 1 13 8.159c.343 0 .421.293.421.655z" role="presentation"/><path class="cls-1" d="M13.507 12.068a.71.71 0 0 1-.745.719h-8.19a.709.709 0 0 1-.745-.719c0-.434.333-.386.745-.386h8.191c.411 0 .745-.048.745.386z" role="presentation"/><path class="cls-2" d="M10.726 0h1.064v5.319h-1.064z" role="presentation"/><path class="cls-2" d="M13.917 2.128v1.064H8.6V2.128z" role="presentation"/></symbol>
<symbol id="room-setup-link" class="symbol"><title id="title">room-setup-link icon</title><path class="cls-1" d="M5.373 7.225A1.281 1.281 0 0 1 4.4 8.72c-.671.146-.875 1.444-1.008.764L1.74 1.519a1.281 1.281 0 0 1 .974-1.5 1.217 1.217 0 0 1 1.457.97z" role="presentation"/><path class="cls-1" d="M14.5 7.766c0 .8-.611 1.84-1.365 1.84H4.447c-.754 0-1.365-1.044-1.365-1.84a1.375 1.375 0 0 1 1.365-1.407h8.688A1.375 1.375 0 0 1 14.5 7.766z" role="presentation"/><path class="cls-1" d="M4.314 15.213c-.05.358-.975.8-1.314.749a.65.65 0 0 1-.524-.743L3.7 8.242a.627.627 0 0 1 .7-.553c.339.053 1.023.475.974.833zm9.109.11c0 .362-.078.655-.421.655a.638.638 0 0 1-.62-.655v-6.51A.638.638 0 0 1 13 8.159c.343 0 .421.293.421.655z" role="presentation"/><path class="cls-1" d="M13.507 12.068a.709.709 0 0 1-.745.719h-8.19a.709.709 0 0 1-.745-.719c0-.434.333-.386.745-.386h8.191c.411 0 .745-.048.745.386z" role="presentation"/><path class="cls-2" d="M11.246 0v1.064h-1.063V0H6.992v3.191h3.191V2.128h1.064v1.063h3.191V0zm-3.19 2.128V1.064h1.063v1.064zm5.318 0H12.31V1.064h1.064z" role="presentation"/></symbol>
<symbol id="room-setup" class="symbol"><title id="title">room-setup icon</title><g data-name="Rectangle 16 (Stroke)"><path data-name="path0 fill" class="cls-1" d="M14 0H2a2 2 0 0 0-2 2v12a2 2 0 0 0 2 2h12a2 2 0 0 0 2-2V2a2 2 0 0 0-2-2zM2 14.5a.5.5 0 0 1-.5-.5V2a.5.5 0 0 1 .5-.5h12a.5.5 0 0 1 .5.5v12a.5.5 0 0 1-.5.5z" role="presentation"/></g><path data-name="path1 fill" class="cls-1" d="M8.749 3h-1.5l-.437 1.234a3.922 3.922 0 0 0-.635.263l-1.183-.562-1.059 1.059.565 1.183a3.923 3.923 0 0 0-.263.635L3 7.251v1.5l1.234.439a3.924 3.924 0 0 0 .263.635l-.563 1.184 1.059 1.059 1.184-.568a3.921 3.921 0 0 0 .635.263L7.251 13h1.5l.439-1.234a3.921 3.921 0 0 0 .635-.263l1.184.563 1.059-1.059-.568-1.184a3.926 3.926 0 0 0 .263-.635L13 8.749v-1.5l-1.234-.439a3.926 3.926 0 0 0-.263-.635l.563-1.184-1.06-1.056-1.183.565a3.923 3.923 0 0 0-.635-.263L8.749 3zM8 10.368A2.368 2.368 0 1 1 10.368 8 2.368 2.368 0 0 1 8 10.368z" role="presentation"/></symbol>
<symbol id="rooms-reverse" class="symbol"><title id="title">rooms-reverse icon</title><path class="cls-1" d="M5 0H2a2 2 0 0 0-2 2v3a2 2 0 0 0 2 2h3a2 2 0 0 0 2-2V2a2 2 0 0 0-2-2zm9 0h-3a2 2 0 0 0-2 2v3a2 2 0 0 0 2 2h3a2 2 0 0 0 2-2V2a2 2 0 0 0-2-2zM5 9H2a2 2 0 0 0-2 2v3a2 2 0 0 0 2 2h3a2 2 0 0 0 2-2v-3a2 2 0 0 0-2-2zm9 0h-3a2 2 0 0 0-2 2v3a2 2 0 0 0 2 2h3a2 2 0 0 0 2-2v-3a2 2 0 0 0-2-2z" role="presentation"/></symbol>
<symbol id="rooms" class="symbol"><title id="title">rooms icon</title><path class="cls-1" d="M5 0H2a2 2 0 0 0-2 2v3a2 2 0 0 0 2 2h3a2 2 0 0 0 2-2V2a2 2 0 0 0-2-2zm.5 5a.5.5 0 0 1-.5.5H2a.5.5 0 0 1-.5-.5V2a.5.5 0 0 1 .5-.5h3a.5.5 0 0 1 .5.5zM14 0h-3a2 2 0 0 0-2 2v3a2 2 0 0 0 2 2h3a2 2 0 0 0 2-2V2a2 2 0 0 0-2-2zm.5 5a.5.5 0 0 1-.5.5h-3a.5.5 0 0 1-.5-.5V2a.5.5 0 0 1 .5-.5h3a.5.5 0 0 1 .5.5zM5 9H2a2 2 0 0 0-2 2v3a2 2 0 0 0 2 2h3a2 2 0 0 0 2-2v-3a2 2 0 0 0-2-2zm.5 5a.5.5 0 0 1-.5.5H2a.5.5 0 0 1-.5-.5v-3a.5.5 0 0 1 .5-.5h3a.5.5 0 0 1 .5.5zM14 9h-3a2 2 0 0 0-2 2v3a2 2 0 0 0 2 2h3a2 2 0 0 0 2-2v-3a2 2 0 0 0-2-2zm.5 5a.5.5 0 0 1-.5.5h-3a.5.5 0 0 1-.5-.5v-3a.5.5 0 0 1 .5-.5h3a.5.5 0 0 1 .5.5z" role="presentation"/></symbol>
<symbol id="share" class="symbol"><title id="title">share icon</title><path data-name="path0 fill" class="cls-1" d="M7.47.22a.75.75 0 0 1 1.06 0l2.5 2.5a.75.75 0 0 1-1.06 1.06L8.75 2.561v7.689a.75.75 0 0 1-1.5 0V2.561L6.03 3.78a.75.75 0 0 1-1.06-1.06z" role="presentation"/><path data-name="path1 fill" class="cls-1" d="M4.5 6.5A.5.5 0 0 0 4 7v7a.5.5 0 0 0 .5.5h7a.5.5 0 0 0 .5-.5V7a.5.5 0 0 0-.5-.5H11A.75.75 0 0 1 11 5h.5a2 2 0 0 1 2 2v7a2 2 0 0 1-2 2h-7a2 2 0 0 1-2-2V7a2 2 0 0 1 2-2H5a.75.75 0 0 1 0 1.5z" role="presentation"/></symbol>
<symbol id="time" class="symbol"><title id="title">time icon</title><path class="cls-1" d="M8 0a8.007 8.007 0 1 0 8 8.007A8 8 0 0 0 8 0zm4.684 12.7a6.627 6.627 0 0 1-9.368-9.382 6.627 6.627 0 0 1 9.368 9.382z" role="presentation"/><path class="cls-1" d="M11.163 10.865a.924.924 0 0 0 .459-1.726L8.856 7.557V3.474a.923.923 0 1 0-1.846 0v4.62a.924.924 0 0 0 .465.8l3.232 1.848a.908.908 0 0 0 .456.122z" role="presentation"/></symbol>
<symbol id="warning" class="symbol"><title id="title">warning icon</title><path class="cls-1" d="M15.932 13.638L8.473 1.181a.57.57 0 0 0-.93 0L.083 13.638a.559.559 0 0 0 .425.831h15a.559.559 0 0 0 .424-.831zm-6.953-1.1H7.036V10.6h1.943zm0-3.237H7.036V5.418h1.943z" role="presentation"/></symbol>
    </svg>