<svg xmlns="http://www.w3.org/2000/svg" xmlns:xlink="http://www.w3.org/1999/xlink">
    
<symbol id="approval-group" class="symbol" viewBox="0 0 16 16">
  <defs><style>.cls-1{fill:#010101;}</style></defs><title>approval-group</title><path class="cls-1" d="M12,8a4,4,0,1,0,4,4A4,4,0,0,0,12,8Zm2.568,3.295L12.022,13.84a.546.546,0,0,1-.771,0L9.8,12.386a.545.545,0,0,1,.771-.771l1.069,1.069,2.16-2.16a.545.545,0,0,1,.771.771Z"/><path class="cls-1" d="M7,14.5H2a.485.485,0,0,1-.5-.48V11.38a.5.5,0,0,1,.308-.457l4-1.65a10.2,10.2,0,0,1,.982-.342,4.5,4.5,0,1,0-2.921-.467L1.231,9.552A1.98,1.98,0,0,0,0,11.38v2.64A1.99,1.99,0,0,0,2,16H7a.75.75,0,0,0,0-1.5ZM3,4.5a3,3,0,1,1,3,3A3,3,0,0,1,3,4.5Z"/>
</symbol>

<symbol id="calendar" class="symbol" viewBox="0 0 16 16">
  <defs><style>.cls-1{fill:#010101;}</style></defs><title>calendar</title><g id="Calendar"><g id="Union"><path id="path0_fill" data-name="path0 fill" class="cls-1" d="M12.25,0a.75.75,0,0,0-.75.75V1.5h-7V.75A.75.75,0,0,0,3,.75V1.5H2a2,2,0,0,0-2,2V14a2,2,0,0,0,2,2H14a2,2,0,0,0,2-2V3.5a2,2,0,0,0-2-2H13V.75A.75.75,0,0,0,12.25,0ZM2,14.5a.5.5,0,0,1-.5-.5V6A.5.5,0,0,1,2,5.5H14a.5.5,0,0,1,.5.5v8a.5.5,0,0,1-.5.5Z"/></g></g>
</symbol>

<symbol id="check" class="symbol" viewBox="0 0 16 16">
  <defs><style>.cls-1{fill:#231f20;fill-rule:evenodd;}</style></defs><title>check</title><path class="cls-1" d="M15.872,4.542,13.457,2.127a.184.184,0,0,0-.261,0L6.118,9.205a.184.184,0,0,1-.261,0L2.689,6.037a.184.184,0,0,0-.261,0L.087,8.379a.184.184,0,0,0,0,.261L5.9,14.454a.222.222,0,0,0,.315,0L15.872,4.8A.184.184,0,0,0,15.872,4.542Z"/>
</symbol>

<symbol id="chevron_left" class="symbol" viewBox="0 0 16 16">
  <defs><style>.cls-1{fill:#231f20;}</style></defs><title>chevron_left</title><path class="cls-1" d="M10.425,15.933a1.242,1.242,0,0,1-.881-.365L1.977,8,9.544.433a1.246,1.246,0,1,1,1.762,1.762L5.5,8l5.806,5.806a1.246,1.246,0,0,1-.881,2.127Z"/>
</symbol>

<symbol id="chevron_right" class="symbol" viewBox="0 0 16 16">
  <defs><style>.cls-1{fill:#231f20;}</style></defs><title>chevron_right</title><path class="cls-1" d="M5.847,15.933a1.242,1.242,0,0,0,.881-.365L14.3,8,6.728.433A1.246,1.246,0,0,0,4.966,2.194L10.772,8,4.966,13.806a1.246,1.246,0,0,0,.881,2.127Z"/>
</symbol>

<symbol id="chrome" class="symbol" viewBox="0 0 16 16">
  <defs><style>.cls-1{fill:#231f20;}</style></defs><title>chrome</title><path class="cls-1" d="M14.8,4.9l-4.4.13a3.821,3.821,0,0,1,.684,5.232L7.566,15.465c.144.008.288.013.434.013A7.48,7.48,0,0,0,14.8,4.9ZM5.346,8.007A2.682,2.682,0,1,0,8.028,5.325,2.682,2.682,0,0,0,5.346,8.007ZM8,11.823a3.818,3.818,0,0,1-3.246-1.8h0l0,0q-.078-.126-.147-.258L2.013,5.206l-.528-.878a7.48,7.48,0,0,0,5.14,11.022l2.5-3.7A3.823,3.823,0,0,1,8,11.823ZM7.664,4.192h0c.11-.01.221-.015.334-.015.061,0,.122,0,.183,0l6.176-.117A7.478,7.478,0,0,0,2,3.543l2.25,3.738A3.825,3.825,0,0,1,7.664,4.192Z"/>
</symbol>

<symbol id="close-disc" class="symbol" viewBox="0 0 16 16">
  <defs><style>.cls-1{fill:#231f20;}</style></defs><title>close-disc</title><path class="cls-1" d="M8.036.234A7.766,7.766,0,1,0,15.8,8,7.766,7.766,0,0,0,8.036.234ZM12.52,10.862a.257.257,0,0,1,0,.363l-1.259,1.259a.257.257,0,0,1-.363,0L8.036,9.622,5.174,12.484a.257.257,0,0,1-.363,0L3.552,11.225a.257.257,0,0,1,0-.363L6.414,8,3.552,5.138a.257.257,0,0,1,0-.363L4.811,3.516a.257.257,0,0,1,.363,0L8.036,6.378,10.9,3.516a.257.257,0,0,1,.363,0L12.52,4.775a.257.257,0,0,1,0,.363L9.658,8Z"/>
</symbol>

<symbol id="close" class="symbol" viewBox="0 0 16 16">
  <defs><style>.cls-1{fill:#231f20;}</style></defs><title>close</title><path class="cls-1" d="M10.288,7.93l3.99-3.99a.358.358,0,0,0,0-.506L12.524,1.679a.358.358,0,0,0-.506,0l-3.99,3.99-3.99-3.99a.358.358,0,0,0-.506,0L1.776,3.434a.358.358,0,0,0,0,.506l3.99,3.99-3.99,3.99a.358.358,0,0,0,0,.506l1.755,1.755a.358.358,0,0,0,.506,0l3.99-3.99,3.99,3.99a.358.358,0,0,0,.506,0l1.755-1.755a.358.358,0,0,0,0-.506Z"/>
</symbol>

<symbol id="dark" class="symbol" viewBox="0 0 16 16">
  <defs><style>.cls-1{fill:#231f20;}</style></defs><title>dark</title><path class="cls-1" d="M4.106,4.808V3.743H5.17a.533.533,0,1,0,0-1.065H4.106V1.612a.533.533,0,0,0-1.066,0V2.677H1.975a.533.533,0,1,0,0,1.066H3.039V4.808a.533.533,0,1,0,1.066,0Z"/><path class="cls-1" d="M10.654,5.327a5.327,5.327,0,0,1-4.262,8.521,5.326,5.326,0,1,0,4.262-8.521Z"/><path class="cls-1" d="M6.236,8.538H5.7V8A.533.533,0,0,0,4.637,8v.533H4.106a.532.532,0,1,0,0,1.065h.531v.534a.533.533,0,0,0,1.066,0V9.6h.533a.532.532,0,0,0,0-1.065Z"/>
</symbol>

<symbol id="date" class="symbol" viewBox="0 0 16 16">
  <defs><style>.cls-1{fill:#231f20;fill-rule:evenodd;}</style></defs><title>date</title><path class="cls-1" d="M15.518,2.326H14.085V1.257c0-.7-.9-1.271-1.605-1.271s-1.64.57-1.64,1.271V2.326H4.819V1.257c0-.7-.9-1.271-1.605-1.271s-1.64.57-1.64,1.271V2.326H.518a.5.5,0,0,0-.5.5V15.518a.5.5,0,0,0,.5.5h15a.5.5,0,0,0,.5-.5V2.826A.5.5,0,0,0,15.518,2.326Zm-3.577-.749a.521.521,0,0,1,1.042,0v.7a.521.521,0,0,1-1.042,0Zm-9.28,0a.521.521,0,0,1,1.042,0v.7a.521.521,0,0,1-1.042,0Zm2.8,12.92H1.6V11.356h3.86Zm0-3.876H1.6V7.676h3.86Zm0-3.68H1.6V3.883h3.86ZM9.937,14.5H6.194V11.356H9.937Zm0-3.876H6.194V7.676H9.937Zm0-3.68H6.194V3.883H9.937Zm4.5,7.556H10.672V11.356h3.762Zm0-3.876H10.672V7.676h3.762Zm0-3.68H10.672V3.883h3.762Z"/>
</symbol>

<symbol id="delete" class="symbol" viewBox="0 0 16 16">
  <defs><style>.cls-1{fill:#231f20;}</style></defs><title>delete</title><path class="cls-1" d="M8.035,0A7.965,7.965,0,1,0,16,7.965,7.965,7.965,0,0,0,8.035,0Zm4.606,8.727a.3.3,0,0,1-.1.234.335.335,0,0,1-.226.1H3.782a.291.291,0,0,1-.329-.329V7.152a.29.29,0,0,1,.329-.327h8.53a.331.331,0,0,1,.226.094.3.3,0,0,1,.1.234Z"/>
</symbol>

<symbol id="event" class="symbol" viewBox="0 0 16 16">
  <defs><style>.cls-1{fill:#010101;}</style></defs><title>event</title><path id="path0_fill" data-name="path0 fill" class="cls-1" d="M12.25,0a.75.75,0,0,0-.75.75V1.5h-7V.75A.75.75,0,0,0,3,.75V1.5H2a2,2,0,0,0-2,2V14a2,2,0,0,0,2,2H14a2,2,0,0,0,2-2V3.5a2,2,0,0,0-2-2H13V.75A.75.75,0,0,0,12.25,0ZM2,14.5a.5.5,0,0,1-.5-.5V6A.5.5,0,0,1,2,5.5H14a.5.5,0,0,1,.5.5v8a.5.5,0,0,1-.5.5ZM11.5,8h-3a.5.5,0,0,0-.5.5v3a.5.5,0,0,0,.5.5h3a.5.5,0,0,0,.5-.5v-3a.5.5,0,0,0-.5-.5Z"/>
</symbol>

<symbol id="file-pdf" class="symbol" viewBox="0 0 16 16">
  <defs><style>.cls-1{fill:#030303;}</style></defs><title>file-pdf</title><path id="path0_fill" data-name="path0 fill" class="cls-1" d="M9.858,0H2.31A.807.807,0,0,0,1.5.8V15.2a.807.807,0,0,0,.81.8H13.69a.807.807,0,0,0,.81-.8V4.149ZM12.44,4.155l-2.47.007a.119.119,0,0,1-.12-.118l0-2.194Zm.7,10.5H2.859V1.35H8.5l0,2.691a1.453,1.453,0,0,0,.432,1.04,1.476,1.476,0,0,0,1.05.431L13.141,5.5Z"/><path id="path1_fill" data-name="path1 fill" class="cls-1" d="M10.815,10.183a1.079,1.079,0,0,0-1.024-.458,4.086,4.086,0,0,0-.7.059A7.886,7.886,0,0,1,8.056,8.248c.306-1.307.115-1.732-.059-1.94a.766.766,0,0,0-.585-.275.99.99,0,0,0-.264.046.8.8,0,0,0-.523.487,2.382,2.382,0,0,0,.276,1.8,16.175,16.175,0,0,1-.848,2.364c-1.01.474-1.511.943-1.574,1.472a.93.93,0,0,0,.412.872.717.717,0,0,0,.444.156,1.279,1.279,0,0,0,.974-.663,6.79,6.79,0,0,0,.569-.993,12.908,12.908,0,0,1,1.835-.594,1.8,1.8,0,0,0,1.152.526.991.991,0,0,0,.82-.435A.8.8,0,0,0,10.815,10.183Zm-.741.451a.215.215,0,0,1-.208.112.958.958,0,0,1-.51-.244c.17-.019.321-.038.434-.038a.688.688,0,0,1,.34.056C10.112,10.559,10.112,10.6,10.074,10.634ZM5.223,12.3c.019-.131.226-.375.755-.675-.4.731-.6.825-.642.844C5.223,12.377,5.223,12.321,5.223,12.3ZM7.394,7.616a1.232,1.232,0,0,1-.075-.75q.028-.056.057-.056h.019A1.58,1.58,0,0,1,7.394,7.616Zm.132,1.275a9.711,9.711,0,0,0,.944,1.368,12.234,12.234,0,0,0-1.6.506A17.039,17.039,0,0,0,7.526,8.891Z"/>
</symbol>

<symbol id="firefox" class="symbol" viewBox="0 0 16 16">
  <defs><style>.cls-1{fill:#231f20;}</style></defs><title>firefox</title><path class="cls-1" d="M14.359,3.319a.087.087,0,0,0-.095-.034h0A.087.087,0,0,0,14.2,3.4a4.75,4.75,0,0,1,.178.495,6.094,6.094,0,0,1,.135.712l-.036.01a5.751,5.751,0,0,0-1.262-1.662v0a6.11,6.11,0,0,0-1.936-1.183.114.114,0,0,0-.12.19C12.41,3.1,12.911,3.844,12.925,4.518h0a3.984,3.984,0,0,0-1.212-.92.1.1,0,0,0-.106.022h0a.1.1,0,0,0-.005.142,5.66,5.66,0,0,1,1.363,4.383v.01c-.107,2.335-2.7,3.987-4.627,3.987s-2.45-.811-2.45-.811l.005-.018.006-.02.007-.026.005-.018a4.209,4.209,0,0,0,2.865-.955,1.1,1.1,0,0,1,.6-.131c.3-.01.39-.134.223-.4a.961.961,0,0,0-.276-.284A1.555,1.555,0,0,0,7.878,9.27c-.25.086-.5.178-.752.253A1.853,1.853,0,0,1,4.872,8.343a.878.878,0,0,1-.045-.3h0v0a.377.377,0,0,1,.088-.233.591.591,0,0,1,.6-.258h.007a.53.53,0,0,1,.365.153h0a1.567,1.567,0,0,0,.07-.617.592.592,0,0,1-.02-.211V6.866h0A.492.492,0,0,1,6.2,6.508c.284-.18.6-.317.864-.518a1.968,1.968,0,0,0,.567-.609c.192-.368.075-.514-.351-.54-.366-.023-.734-.033-1.1-.053a.627.627,0,0,1-.591-.909c.231-.443.539-.846.814-1.267a2.7,2.7,0,0,0-2.5.873C3.5,3.5,3.113,3.5,2.723,3.5a3.022,3.022,0,0,1-1.1-1.426,3.184,3.184,0,0,0-.776,1.85,4.825,4.825,0,0,1-.1,1.058q-.048.15-.092.3a7.676,7.676,0,0,0-.261,1,7.742,7.742,0,1,0,13.963-2.96Z"/>
</symbol>

<symbol id="folder-back" class="symbol" viewBox="0 0 16 16">
  <defs><style>.cls-1{fill:#231f20;}</style></defs><title>folder-back</title><path class="cls-1" d="M14.715,3.273a.591.591,0,0,0-.591-.591H8.261V2.4a.855.855,0,0,0-.855-.855H2.061a.855.855,0,0,0-.855.855v.283H.671a.591.591,0,0,0-.591.591V5.388H14.715Z"/><path class="cls-1" d="M5.95,13.557a1.147,1.147,0,0,1,0-1.965l5.688-3.459.337-.017a1.113,1.113,0,0,1,1.112,1.111v.893h2.23l.6-3.4H.08v7.175a.808.808,0,0,0,.808.808H7.85Z"/><path class="cls-1" d="M15.953,13.884a.146.146,0,0,1-.146.146H12.085v1.859a.111.111,0,0,1-.168.1L6.466,12.7a.148.148,0,0,1,0-.253l5.451-3.314a.111.111,0,0,1,.169.095V11.12h3.722a.146.146,0,0,1,.146.146Z"/>
</symbol>

<symbol id="folder" class="symbol" viewBox="0 0 16 16">
  <defs><style>.cls-1{fill:#231f20;fill-rule:evenodd;}</style></defs><title>folder</title><path class="cls-1" d="M14.715,3.273a.591.591,0,0,0-.591-.591H8.261V2.4a.855.855,0,0,0-.855-.855H2.061a.855.855,0,0,0-.855.855v.283H.671a.591.591,0,0,0-.591.591V5.388H14.715Z"/><path class="cls-1" d="M.08,6.719v7.175a.808.808,0,0,0,.808.808H13.824a.808.808,0,0,0,.8-.666l1.3-7.316Z"/>
</symbol>

<symbol id="internet_explorer" class="symbol" viewBox="0 0 16 16">
  <defs><style>.cls-1{fill:#231f20;}</style></defs><title>internet_explorer</title><path class="cls-1" d="M10.082,1.892A7.461,7.461,0,0,1,13.566.569c1.871,0,1.727,1.6,1.514,2.464a.06.06,0,0,0,.049.074h0a.061.061,0,0,0,.067-.042C16.145-.085,13.63.15,13.63.15c-1.806,0-4.064,1.645-4.064,1.645a7.48,7.48,0,0,0-5.386.9A6.263,6.263,0,0,0,1.367,7.4a.144.144,0,0,0,.258.1A14.858,14.858,0,0,1,6.9,3.154a.108.108,0,0,1,.154.1v0A.108.108,0,0,1,7,3.343,15.994,15.994,0,0,0,.7,12.567c-.29,1-.1,3.243,1.967,3.243a8.013,8.013,0,0,0,4.161-1.663,9.372,9.372,0,0,0,1.677.1A6.493,6.493,0,0,0,14.888,9.7h-4.58a1.965,1.965,0,0,1-1.967,1.484A2.139,2.139,0,0,1,6.212,8.826h8.741C15.372,2.762,10.082,1.892,10.082,1.892ZM6.569,14.081S3.419,15.993,2,14.668c-.758-1.325.474-3.2.474-3.2A6.145,6.145,0,0,0,6.569,14.081Zm3.789-7.318H6.2A1.977,1.977,0,0,1,8.332,4.737,1.918,1.918,0,0,1,10.358,6.763Z"/>
</symbol>

<symbol id="light" class="symbol" viewBox="0 0 16 16">
  <defs><style>.cls-1{fill:#231f20;}</style></defs><title>light</title><path class="cls-1" d="M8.048,2.53a.5.5,0,0,0,.5-.5V.535a.5.5,0,0,0-1,0v1.5A.5.5,0,0,0,8.048,2.53Z"/><path class="cls-1" d="M4.623,3.083a.5.5,0,0,0,.432.249.508.508,0,0,0,.25-.066.5.5,0,0,0,.183-.682l-.749-1.3a.5.5,0,0,0-.864.5Z"/><path class="cls-1" d="M2.56,8.018a.5.5,0,0,0-.5-.5H.565a.5.5,0,0,0,0,1h1.5A.5.5,0,0,0,2.56,8.018Z"/><path class="cls-1" d="M13.232,5.524a.49.49,0,0,0,.249-.067l1.3-.748a.5.5,0,1,0-.5-.864l-1.3.748a.5.5,0,0,0,.25.931Z"/><path class="cls-1" d="M10.791,3.266a.5.5,0,0,0,.683-.183l.748-1.3a.5.5,0,0,0-.865-.5l-.748,1.3A.5.5,0,0,0,10.791,3.266Z"/><path class="cls-1" d="M2.614,10.579l-1.3.748a.5.5,0,0,0,.5.865l1.3-.749a.5.5,0,0,0-.5-.864Z"/><path class="cls-1" d="M15.53,7.519h-1.5a.5.5,0,0,0,0,1h1.5a.5.5,0,0,0,0-1Z"/><circle class="cls-1" cx="8.048" cy="8.018" r="4.572"/><path class="cls-1" d="M3.113,4.593l-1.3-.748a.5.5,0,0,0-.5.864l1.3.748a.49.49,0,0,0,.249.067.5.5,0,0,0,.25-.931Z"/><path class="cls-1" d="M14.777,11.327l-1.3-.748a.5.5,0,1,0-.5.864l1.3.749a.506.506,0,0,0,.249.065.5.5,0,0,0,.25-.931Z"/><path class="cls-1" d="M11.474,12.952a.5.5,0,0,0-.865.5l.748,1.3a.5.5,0,0,0,.433.249.493.493,0,0,0,.25-.067.5.5,0,0,0,.183-.681Z"/><path class="cls-1" d="M8.048,13.506a.5.5,0,0,0-.5.5v1.5a.5.5,0,1,0,1,0V14A.5.5,0,0,0,8.048,13.506Z"/><path class="cls-1" d="M5.3,12.771a.5.5,0,0,0-.682.182l-.749,1.3a.5.5,0,1,0,.864.5l.749-1.295A.5.5,0,0,0,5.3,12.771Z"/>
</symbol>

<symbol id="menu" class="symbol" viewBox="0 0 16 16">
  <defs><style>.cls-1{fill:#231f20;}</style></defs><title>menu</title><path class="cls-1" d="M15.781,1.726a.636.636,0,0,0-.462-.194H.722a.656.656,0,0,0-.479.194.626.626,0,0,0-.194.462V4.317a.626.626,0,0,0,.194.462.65.65,0,0,0,.479.2h14.6a.666.666,0,0,0,.656-.657V2.188A.626.626,0,0,0,15.781,1.726Z"/><path class="cls-1" d="M15.319,6.4H.722a.656.656,0,0,0-.479.194.626.626,0,0,0-.194.462V9.18a.626.626,0,0,0,.194.462.65.65,0,0,0,.479.2h14.6a.665.665,0,0,0,.656-.657V7.051a.626.626,0,0,0-.194-.462A.636.636,0,0,0,15.319,6.4Z"/><path class="cls-1" d="M15.319,11.259H.722a.656.656,0,0,0-.479.194.626.626,0,0,0-.194.462v2.129a.626.626,0,0,0,.194.462.65.65,0,0,0,.479.2h14.6a.665.665,0,0,0,.656-.657V11.915a.626.626,0,0,0-.194-.462A.636.636,0,0,0,15.319,11.259Z"/>
</symbol>

<symbol id="note" class="symbol" viewBox="0 0 16 16">
  <defs><style>.cls-1{fill:#010101;}</style></defs><title>note</title><path class="cls-1" d="M13.5,0H2.5a1,1,0,0,0-1,1V15a1,1,0,0,0,1,1H9.75l.75-.75L13.75,12l.75-.75V1A1,1,0,0,0,13.5,0Zm-3,13.129V12.25a.25.25,0,0,1,.25-.25h.879ZM13,10.5H10.75A1.75,1.75,0,0,0,9,12.25V14.5H3V1.5H13Z"/><rect class="cls-1" x="4.5" y="3" width="7" height="1.5" rx="0.5" ry="0.5"/><rect class="cls-1" x="4.5" y="6" width="7" height="1.5" rx="0.5" ry="0.5"/><rect class="cls-1" x="4.5" y="9" width="4" height="1.5" rx="0.5" ry="0.5"/>
</symbol>

<symbol id="notification" class="symbol" viewBox="0 0 16 16">
  <title>notification</title><path d="M15.323,11.506,13.418,9.234V5.817A5.374,5.374,0,0,0,8.089.41,5.374,5.374,0,0,0,2.761,5.817V9.234L.856,11.5a1.533,1.533,0,0,0-.219,1.635A1.481,1.481,0,0,0,2,14.024H5.78a2.486,2.486,0,0,0,4.619,0h3.782a1.485,1.485,0,0,0,1.361-.885A1.529,1.529,0,0,0,15.323,11.506Z"/>
</symbol>

<symbol id="octagon" class="symbol" viewBox="0 0 16 16">
  <defs><style>.cls-1{fill:#231f20;}</style></defs><title>octagon</title><polygon class="cls-1" points="4.694 15.938 0.031 11.275 0.031 4.681 4.694 0.018 11.288 0.018 15.951 4.681 15.951 11.275 11.288 15.938 4.694 15.938"/>
</symbol>

<symbol id="people" class="symbol" viewBox="0 0 16 16">
  <defs><style>.cls-1{fill:#010101;}</style></defs><title>people</title><g id="Canvas"><g id="People"><g id="Union"><path id="path0_fill" data-name="path0 fill" class="cls-1" d="M11,4.5a3,3,0,1,1-3-3A3,3,0,0,1,11,4.5Zm-.79,3.921a4.5,4.5,0,1,0-4.42,0L3.231,9.487A2,2,0,0,0,2,11.333V14a2,2,0,0,0,2,2h8a2,2,0,0,0,2-2V11.333a2,2,0,0,0-1.231-1.846Zm2.29,2.913V14a.5.5,0,0,1-.5.5H4a.5.5,0,0,1-.5-.5V11.333a.5.5,0,0,1,.308-.462l4-1.667a.5.5,0,0,1,.385,0l4,1.667A.5.5,0,0,1,12.5,11.333Z"/></g></g></g>
</symbol>

<symbol id="primary-room" class="symbol" viewBox="0 0 16 16">
  <defs><style>.cls-1{fill:#231f20;}</style></defs><title>primary-room</title><path class="cls-1" d="M8.657,3.33H6.874a.094.094,0,0,0-.1.1V8.652a.094.094,0,0,0,.1.1H7.98a.094.094,0,0,0,.1-.1V7.425a.052.052,0,0,1,.059-.06h.518c1.2,0,1.991-.482,1.991-2.015S9.891,3.33,8.657,3.33Zm-.04,2.89H8.138a.053.053,0,0,1-.059-.06V4.535a.052.052,0,0,1,.059-.06h.478c.508,0,.726.108.726.875S9.124,6.22,8.617,6.22Z"/><path class="cls-1" d="M14.089,3.716A6.028,6.028,0,0,0,10.869.474,5.9,5.9,0,0,0,8.509,0a5.971,5.971,0,0,0-2.36.474A6.046,6.046,0,0,0,2.906,3.716a5.988,5.988,0,0,0-.474,2.371,5.372,5.372,0,0,0,.266,1.7,7.447,7.447,0,0,0,.7,1.54s3.831,5.438,4.146,5.838c.276.35.671.838.952.838.328,0,.635-.48.9-.849L13.6,9.345A7.365,7.365,0,0,0,14.3,7.8a5.529,5.529,0,0,0,.263-1.715A5.993,5.993,0,0,0,14.089,3.716ZM8.521,10.172A4.051,4.051,0,0,1,4.412,6.063,4.109,4.109,0,0,1,8.521,1.954c2.269,0,4.38,1.856,4.109,4.109A4.655,4.655,0,0,1,8.521,10.172Z"/>
</symbol>

<symbol id="questions" class="symbol" viewBox="0 0 16 16">
  <defs><style>.cls-1{fill:#231f20;}</style></defs><title>questions</title><path class="cls-1" d="M7.984.092A7.819,7.819,0,1,0,15.8,7.911,7.819,7.819,0,0,0,7.984.092Zm0,13.706a5.887,5.887,0,1,1,5.887-5.887A5.887,5.887,0,0,1,7.986,13.8Z"/><path class="cls-1" d="M8.622,10.834H6.962a.318.318,0,0,0-.3.3v1.579a.3.3,0,0,0,.093.217.274.274,0,0,0,.211.1h1.66a.264.264,0,0,0,.208-.1.311.311,0,0,0,.087-.217V11.138a.308.308,0,0,0-.083-.211A.267.267,0,0,0,8.622,10.834Z"/><path class="cls-1" d="M10.232,3.826a3.52,3.52,0,0,0-1.049-.537A3.8,3.8,0,0,0,8.025,3.1a3.678,3.678,0,0,0-1.148.167,5.265,5.265,0,0,0-.865.359,2.714,2.714,0,0,0-.537.359c-.122.111-.19.173-.2.188a.3.3,0,0,0-.031.395L6.2,5.733a.279.279,0,0,0,.2.12.474.474,0,0,0,.233-.06l.1-.081a1.867,1.867,0,0,1,.276-.178,2.409,2.409,0,0,1,.4-.167,1.5,1.5,0,0,1,.471-.07,1.1,1.1,0,0,1,.7.227.714.714,0,0,1,.289.582.945.945,0,0,1-.248.652A7.668,7.668,0,0,1,8,7.372q-.232.183-.471.409A3.179,3.179,0,0,0,7.1,8.3a2.783,2.783,0,0,0-.32.642,1.646,1.646,0,0,0-.122.66v.359a.314.314,0,0,0,.3.3h1.66a.271.271,0,0,0,.208-.091.293.293,0,0,0,.087-.211V9.594c0-.264.085-.2.258-.384s.382-.39.632-.613a5.172,5.172,0,0,0,.5-.464,5.006,5.006,0,0,0,.464-.578,2.756,2.756,0,0,0,.349-.7,2.844,2.844,0,0,0,.132-.917,2.63,2.63,0,0,0-.279-1.226A2.58,2.58,0,0,0,10.232,3.826Z"/>
</symbol>

<symbol id="reservation-block" class="symbol" viewBox="0 0 16 16">
  <defs><style>.cls-1{fill:#010101;}</style></defs><title>reservation-block</title><g id="Reservation_Block" data-name="Reservation Block"><g id="Union"><path id="path0_fill" data-name="path0 fill" class="cls-1" d="M12.25,0a.75.75,0,0,0-.75.75V1.5h-7V.75A.75.75,0,0,0,3,.75V1.5H2a2,2,0,0,0-2,2V14a2,2,0,0,0,2,2H14a2,2,0,0,0,2-2V3.5a2,2,0,0,0-2-2H13V.75A.75.75,0,0,0,12.25,0ZM2,14.5a.5.5,0,0,1-.5-.5V6A.5.5,0,0,1,2,5.5H14a.5.5,0,0,1,.5.5v8a.5.5,0,0,1-.5.5Z"/></g><g id="Rectangle_5" data-name="Rectangle 5"><path id="path1_fill" data-name="path1 fill" class="cls-1" d="M9,7H3.5a.5.5,0,0,0-.5.5V8.75a.5.5,0,0,0,.5.5H9a.5.5,0,0,0,.5-.5V7.5A.5.5,0,0,0,9,7Z"/></g><g id="Rectangle_5-2" data-name="Rectangle 5"><path id="path1_fill-2" data-name="path1 fill" class="cls-1" d="M12.5,10.75H7a.5.5,0,0,0-.5.5V12.5A.5.5,0,0,0,7,13h5.5a.5.5,0,0,0,.5-.5V11.25a.5.5,0,0,0-.5-.5Z"/></g></g>
</symbol>

<symbol id="resources-logo" class="symbol" viewBox="0 0 16 16">
  <defs><style>.cls-1{fill:#010101;}</style></defs><title>resources-logo</title><path class="cls-1" d="M4.847,7.2426c-.0392-.0623-.1722-.0846-.2837-.0846a.58436.58436,0,0,0-.4426.1993L4.089,7.2549a.08582.08582,0,0,0-.081-.0647H3.9309a.09013.09013,0,0,0-.0879.0877V8.6198a.08905.08905,0,0,0,.0879.0878h.1477c.0477,0,.1199,0,.1199-.0878V7.6834a.40775.40775,0,0,1,.3328-.186.35192.35192,0,0,1,.1272.0271.08112.08112,0,0,0,.0631.0048.0869.0869,0,0,0,.0498-.0481l.0771-.1604A.07712.07712,0,0,0,4.847,7.2426Z"/><path class="cls-1" d="M5.5809,7.158a.79327.79327,0,0,0,.0033,1.5849.85071.85071,0,0,0,.5601-.1871.07622.07622,0,0,0,.0097-.1219l-.0868-.135a.06979.06979,0,0,0-.044-.0329.09338.09338,0,0,0-.067.022.55624.55624,0,0,1-.3528.122.42.42,0,0,1-.4251-.3701H6.1844a.086.086,0,0,0,.0844-.0792c.0034-.0266.0068-.0785.0068-.1049A.681.681,0,0,0,5.5809,7.158Zm-.0063.3073a.33217.33217,0,0,1,.3476.3027h-.726A.35936.35936,0,0,1,5.5746,7.4653Z"/><path class="cls-1" d="M6.9634,7.7854c-.1578-.0686-.2432-.1212-.2432-.2025,0-.0569.0532-.1144.1721-.1144a.75142.75142,0,0,1,.3108.0724.08659.08659,0,0,0,.1187-.0369l.0514-.1028A.10522.10522,0,0,0,7.3351,7.27a.85019.85019,0,0,0-.4428-.112c-.3512,0-.5084.2118-.5084.4218,0,.2626.1978.388.4115.4843.2084.0944.3076.1546.3076.2411,0,.0785-.0684.1273-.1786.1273a.6689.6689,0,0,1-.3553-.1039l-.0052-.0029a.09371.09371,0,0,0-.0753-.0112.07324.07324,0,0,0-.0451.0378l-.0673.1378a.07762.07762,0,0,0,.031.0988l.0003.0002a.88163.88163,0,0,0,.4976.1538.48664.48664,0,0,0,.547-.4505C7.4521,8.0133,7.2585,7.9104,6.9634,7.7854Z"/><path class="cls-1" d="M8.3141,7.158a.79273.79273,0,1,0,.7717.7877A.79186.79186,0,0,0,8.3141,7.158Zm.4226.7877a.42485.42485,0,1,1-.4226-.4483A.42643.42643,0,0,1,8.7367,7.9457Z"/><path class="cls-1" d="M10.4909,7.1902h-.1637c-.0509,0-.1006.0068-.1006.0877l.0003.8957a.35094.35094,0,0,1-.3298.23c-.1853,0-.2717-.1067-.2717-.3359V7.2779a.09013.09013,0,0,0-.0879-.0877H9.3577a.09254.09254,0,0,0-.0879.0877v.7673c0,.3249.0647.6977.5695.6977a.60842.60842,0,0,0,.4621-.1874l.029.0798c.0129.0358.0331.0723.0835.0723h.077a.09184.09184,0,0,0,.0911-.0878V7.2779A.093.093,0,0,0,10.4909,7.1902Z"/><path class="cls-1" d="M11.8769,7.2426c-.0392-.0623-.1722-.0846-.2836-.0846a.59557.59557,0,0,0-.4428.1988l-.0316-.1018a.08531.08531,0,0,0-.0809-.0648h-.0771a.09013.09013,0,0,0-.0879.0877V8.6198a.088.088,0,0,0,.0879.0878h.1476c.0478,0,.12,0,.12-.0878V7.6834a.4077.4077,0,0,1,.3327-.186.35142.35142,0,0,1,.1272.0271.08109.08109,0,0,0,.0631.0048.0869.0869,0,0,0,.0498-.0481l.0771-.1604A.07712.07712,0,0,0,11.8769,7.2426Z"/><path class="cls-1" d="M13.0856,8.218a.085.085,0,0,0-.122.0071l-.0359.0348a.39079.39079,0,0,1-.3023.1437.45445.45445,0,1,1,.3025-.7634c.0247.0246.0663.0659.1201.0164l.1154-.1058a.09021.09021,0,0,0,.0145-.1295.6645.6645,0,0,0-.5525-.2633.78712.78712,0,0,0-.7782.794.7747.7747,0,0,0,.7749.7909.69173.69173,0,0,0,.5922-.3158c.0194-.0291.0303-.075-.0293-.1288Z"/><path class="cls-1" d="M14.0449,7.158a.79327.79327,0,0,0,.0032,1.5849.85108.85108,0,0,0,.5602-.1871.0762.0762,0,0,0,.0096-.1219l-.0868-.135a.06979.06979,0,0,0-.044-.0329.09313.09313,0,0,0-.0669.022.55669.55669,0,0,1-.3528.122.41989.41989,0,0,1-.4251-.3701h1.0061a.086.086,0,0,0,.0844-.0792c.0033-.0266.0067-.0785.0067-.1049A.68093.68093,0,0,0,14.0449,7.158Zm-.0064.3073a.332.332,0,0,1,.3476.3027h-.7259A.35925.35925,0,0,1,14.0385,7.4653Z"/><path class="cls-1" d="M15.4272,7.7854c-.1578-.0686-.2432-.1212-.2432-.2025,0-.0569.0532-.1144.1722-.1144a.75107.75107,0,0,1,.3108.0724.08664.08664,0,0,0,.1187-.037l.0513-.1027a.1052.1052,0,0,0-.038-.1312.85077.85077,0,0,0-.4428-.112c-.3512,0-.5084.2118-.5084.4218,0,.2626.1977.388.4114.4843.2085.0945.3077.1546.3077.2411,0,.0785-.0684.1273-.1786.1273a.66967.66967,0,0,1-.3551-.1038l-.0055-.003a.09408.09408,0,0,0-.075-.0112.07322.07322,0,0,0-.0454.0378l-.0672.1379a.07746.07746,0,0,0,.0311.0987l.0002.0002a.88231.88231,0,0,0,.4977.1538.48656.48656,0,0,0,.5468-.4505C15.9159,8.0133,15.7223,7.9104,15.4272,7.7854Z"/><path class="cls-1" d="M1.572,6.5121C.3817,6.5121.0841,6.8097.0841,8S.3817,9.4879,1.572,9.4879,3.0599,9.1903,3.0599,8,2.7623,6.5121,1.572,6.5121ZM1.4573,8.5982a.0896.0896,0,0,1-.0896.0897H.9738a.08962.08962,0,0,1-.0897-.0897V8.2043a.08969.08969,0,0,1,.0897-.0897h.3939a.08967.08967,0,0,1,.0896.0897Zm0-.8025a.08958.08958,0,0,1-.0896.0896H.9738a.0896.0896,0,0,1-.0897-.0896V7.4018a.08962.08962,0,0,1,.0897-.0897h.3939a.0896.0896,0,0,1,.0896.0897Zm.8026.8025a.08962.08962,0,0,1-.0897.0897H1.7763a.08969.08969,0,0,1-.0897-.0897V8.2043a.08975.08975,0,0,1,.0897-.0897h.3939a.08969.08969,0,0,1,.0897.0897Zm0-.8025a.0896.0896,0,0,1-.0897.0896H1.7763a.08967.08967,0,0,1-.0897-.0896V7.4018a.08969.08969,0,0,1,.0897-.0897h.3939a.08962.08962,0,0,1,.0897.0897Z"/>
</symbol>

<symbol id="resources-reverse" class="symbol" viewBox="0 0 16 16">
  <defs><style>.cls-1{fill:#010101;}</style></defs><title>resources-reverse</title><path class="cls-1" d="M14,0H2A2,2,0,0,0,0,2V14a2,2,0,0,0,2,2H14a2,2,0,0,0,2-2V2A2,2,0,0,0,14,0ZM5,12.5a2,2,0,1,1,2-2A2,2,0,0,1,5,12.5ZM6,5A2,2,0,1,1,8,7,2,2,0,0,1,6,5Zm5,7.5a2,2,0,1,1,2-2A2,2,0,0,1,11,12.5Z"/>
</symbol>

<symbol id="resources" class="symbol" viewBox="0 0 16 16">
  <defs><style>.cls-1{fill:#010101;}</style></defs><title>resources</title><circle class="cls-1" cx="8" cy="5" r="2"/><circle class="cls-1" cx="5" cy="10.5" r="2"/><circle class="cls-1" cx="11" cy="10.5" r="2"/><path class="cls-1" d="M14,0H2A2,2,0,0,0,0,2V14a2,2,0,0,0,2,2H14a2,2,0,0,0,2-2V2A2,2,0,0,0,14,0Zm.5,14a.5.5,0,0,1-.5.5H2a.5.5,0,0,1-.5-.5V2A.5.5,0,0,1,2,1.5H14a.5.5,0,0,1,.5.5Z"/>
</symbol>

<symbol id="room-setup-add" class="symbol" viewBox="0 0 16 16">
  <defs><style>.cls-1,.cls-2{fill:#231f20;}.cls-2{fill-rule:evenodd;}</style></defs><title>room-setup-add</title><path class="cls-1" d="M5.373,7.225A1.281,1.281,0,0,1,4.4,8.72h0c-.671.146-.875,1.444-1.008.764L1.74,1.519a1.281,1.281,0,0,1,.974-1.5h0A1.217,1.217,0,0,1,4.171.989Z"/><path class="cls-1" d="M14.5,7.766c0,.8-.611,1.84-1.365,1.84H4.447c-.754,0-1.365-1.044-1.365-1.84h0A1.375,1.375,0,0,1,4.447,6.359h8.688A1.375,1.375,0,0,1,14.5,7.766Z"/><path class="cls-1" d="M4.314,15.213c-.05.358-.975.8-1.314.749H3a.65.65,0,0,1-.524-.743L3.7,8.242a.627.627,0,0,1,.7-.553h0c.339.053,1.023.475.974.833Z"/><path class="cls-1" d="M13.423,15.323c0,.362-.078.655-.421.655h0a.638.638,0,0,1-.62-.655V8.813A.638.638,0,0,1,13,8.159h0c.343,0,.421.293.421.655Z"/><path class="cls-1" d="M13.507,12.068a.71.71,0,0,1-.745.719H4.572a.709.709,0,0,1-.745-.719h0c0-.434.333-.386.745-.386h8.191c.411,0,.745-.048.745.386Z"/><path class="cls-2" d="M10.726,0H11.79V5.319H10.726Z"/><path class="cls-2" d="M13.917,2.128V3.192H8.6V2.128Z"/>
</symbol>

<symbol id="room-setup-link" class="symbol" viewBox="0 0 16 16">
  <defs><style>.cls-1,.cls-2{fill:#231f20;}.cls-2{fill-rule:evenodd;}</style></defs><title>room-setup-link</title><path class="cls-1" d="M5.373,7.225A1.281,1.281,0,0,1,4.4,8.72h0c-.671.146-.875,1.444-1.008.764L1.74,1.519a1.281,1.281,0,0,1,.974-1.5h0A1.217,1.217,0,0,1,4.171.989Z"/><path class="cls-1" d="M14.5,7.766c0,.8-.611,1.84-1.365,1.84H4.447c-.754,0-1.365-1.044-1.365-1.84h0A1.375,1.375,0,0,1,4.447,6.359h8.688A1.375,1.375,0,0,1,14.5,7.766Z"/><path class="cls-1" d="M4.314,15.213c-.05.358-.975.8-1.314.749H3a.65.65,0,0,1-.524-.743L3.7,8.242a.627.627,0,0,1,.7-.553h0c.339.053,1.023.475.974.833Z"/><path class="cls-1" d="M13.423,15.323c0,.362-.078.655-.421.655h0a.638.638,0,0,1-.62-.655V8.813A.638.638,0,0,1,13,8.159h0c.343,0,.421.293.421.655Z"/><path class="cls-1" d="M13.507,12.068a.709.709,0,0,1-.745.719H4.572a.709.709,0,0,1-.745-.719h0c0-.434.333-.386.745-.386h8.191c.411,0,.745-.048.745.386Z"/><path class="cls-2" d="M11.246,0V1.064H10.183V0H6.992V3.191h3.191V2.128h1.064V3.191h3.191V0ZM8.056,2.128V1.064H9.119V2.128Zm5.318,0H12.31V1.064h1.064Z"/>
</symbol>

<symbol id="room-setup" class="symbol" viewBox="0 0 16 16">
  <defs><style>.cls-1{fill:#010101;}</style></defs><title>room-setup</title><g id="RoomSetup"><g id="Rectangle_16_Stroke_" data-name="Rectangle 16 (Stroke)"><path id="path0_fill" data-name="path0 fill" class="cls-1" d="M14,0H2A2,2,0,0,0,0,2V14a2,2,0,0,0,2,2H14a2,2,0,0,0,2-2V2a2,2,0,0,0-2-2ZM2,14.5a.5.5,0,0,1-.5-.5V2A.5.5,0,0,1,2,1.5H14a.5.5,0,0,1,.5.5V14a.5.5,0,0,1-.5.5Z"/></g><g id="Subtract"><path id="path1_fill" data-name="path1 fill" class="cls-1" d="M8.749,3h-1.5L6.812,4.234a3.922,3.922,0,0,0-.635.263L4.994,3.935,3.935,4.994,4.5,6.177a3.923,3.923,0,0,0-.263.635L3,7.251v1.5l1.234.439a3.924,3.924,0,0,0,.263.635l-.563,1.184,1.059,1.059L6.177,11.5a3.921,3.921,0,0,0,.635.263L7.251,13h1.5l.439-1.234a3.921,3.921,0,0,0,.635-.263l1.184.563,1.059-1.059L11.5,9.823a3.926,3.926,0,0,0,.263-.635L13,8.749v-1.5l-1.234-.439a3.926,3.926,0,0,0-.263-.635l.563-1.184L11.006,3.935,9.823,4.5a3.923,3.923,0,0,0-.635-.263L8.749,3ZM8,10.368A2.368,2.368,0,1,1,10.368,8,2.368,2.368,0,0,1,8,10.368Z"/></g></g>
</symbol>

<symbol id="rooms-reverse" class="symbol" viewBox="0 0 16 16">
  <defs><style>.cls-1{fill:#010101;}</style></defs><title>rooms-reverse</title><path class="cls-1" d="M5,0H2A2,2,0,0,0,0,2V5A2,2,0,0,0,2,7H5A2,2,0,0,0,7,5V2A2,2,0,0,0,5,0Z"/><path class="cls-1" d="M14,0H11A2,2,0,0,0,9,2V5a2,2,0,0,0,2,2h3a2,2,0,0,0,2-2V2A2,2,0,0,0,14,0Z"/><path class="cls-1" d="M5,9H2a2,2,0,0,0-2,2v3a2,2,0,0,0,2,2H5a2,2,0,0,0,2-2V11A2,2,0,0,0,5,9Z"/><path class="cls-1" d="M14,9H11a2,2,0,0,0-2,2v3a2,2,0,0,0,2,2h3a2,2,0,0,0,2-2V11A2,2,0,0,0,14,9Z"/>
</symbol>

<symbol id="rooms" class="symbol" viewBox="0 0 16 16">
  <defs><style>.cls-1{fill:#010101;}</style></defs><title>rooms</title><path class="cls-1" d="M5,0H2A2,2,0,0,0,0,2V5A2,2,0,0,0,2,7H5A2,2,0,0,0,7,5V2A2,2,0,0,0,5,0Zm.5,5a.5.5,0,0,1-.5.5H2A.5.5,0,0,1,1.5,5V2A.5.5,0,0,1,2,1.5H5a.5.5,0,0,1,.5.5Z"/><path class="cls-1" d="M14,0H11A2,2,0,0,0,9,2V5a2,2,0,0,0,2,2h3a2,2,0,0,0,2-2V2A2,2,0,0,0,14,0Zm.5,5a.5.5,0,0,1-.5.5H11a.5.5,0,0,1-.5-.5V2a.5.5,0,0,1,.5-.5h3a.5.5,0,0,1,.5.5Z"/><path class="cls-1" d="M5,9H2a2,2,0,0,0-2,2v3a2,2,0,0,0,2,2H5a2,2,0,0,0,2-2V11A2,2,0,0,0,5,9Zm.5,5a.5.5,0,0,1-.5.5H2a.5.5,0,0,1-.5-.5V11a.5.5,0,0,1,.5-.5H5a.5.5,0,0,1,.5.5Z"/><path class="cls-1" d="M14,9H11a2,2,0,0,0-2,2v3a2,2,0,0,0,2,2h3a2,2,0,0,0,2-2V11A2,2,0,0,0,14,9Zm.5,5a.5.5,0,0,1-.5.5H11a.5.5,0,0,1-.5-.5V11a.5.5,0,0,1,.5-.5h3a.5.5,0,0,1,.5.5Z"/>
</symbol>

<symbol id="share" class="symbol" viewBox="0 0 16 16">
  <defs><style>.cls-1{fill:#010101;}</style></defs><title>share</title><path id="path0_fill" data-name="path0 fill" class="cls-1" d="M7.47.22A.75.75,0,0,1,8.53.22l2.5,2.5A.75.75,0,0,1,9.97,3.78L8.75,2.561V10.25a.75.75,0,0,1-1.5,0V2.561L6.03,3.78A.75.75,0,0,1,4.97,2.72Z"/><path id="path1_fill" data-name="path1 fill" class="cls-1" d="M4.5,6.5A.5.5,0,0,0,4,7v7a.5.5,0,0,0,.5.5h7A.5.5,0,0,0,12,14V7a.5.5,0,0,0-.5-.5H11A.75.75,0,0,1,11,5h.5a2,2,0,0,1,2,2v7a2,2,0,0,1-2,2h-7a2,2,0,0,1-2-2V7a2,2,0,0,1,2-2H5A.75.75,0,0,1,5,6.5Z"/>
</symbol>

<symbol id="time" class="symbol" viewBox="0 0 16 16">
  <defs><style>.cls-1{fill:#231f20;}</style></defs><title>time</title><path class="cls-1" d="M8,0a8.007,8.007,0,1,0,8,8.007A8,8,0,0,0,8,0Zm4.684,12.7A6.627,6.627,0,0,1,3.316,3.318,6.627,6.627,0,0,1,12.684,12.7Z"/><path class="cls-1" d="M11.163,10.865a.924.924,0,0,0,.459-1.726L8.856,7.557V3.474a.923.923,0,1,0-1.846,0v4.62a.924.924,0,0,0,.465.8l3.232,1.848a.908.908,0,0,0,.456.122Z"/>
</symbol>

<symbol id="warning" class="symbol" viewBox="0 0 16 16">
  <defs><style>.cls-1{fill:#231f20;fill-rule:evenodd;}</style></defs><title>warning</title><path class="cls-1" d="M15.932,13.638,8.473,1.181a.57.57,0,0,0-.93,0L.083,13.638a.559.559,0,0,0,.425.831h15A.559.559,0,0,0,15.932,13.638Zm-6.953-1.1H7.036V10.6H8.979Zm0-3.237H7.036V5.418H8.979Z"/>
</symbol>
    </svg>