<svg xmlns="http://www.w3.org/2000/svg">
    <symbol id="admin" class="symbol"><title id="title">admin icon</title><g data-name="Layer 1"><path class="cls-1" d="M15.69 12.212c-.467-.728-2.037-1.182-3.59-1.829a18.147 18.147 0 0 1-1.922-.872l-.014-1.49a2.8 2.8 0 0 0 .763-1.85c.364.105.746-.543.767-.885s-.05-1.243-.494-1.15a9.222 9.222 0 0 0 .123-1.636A2.978 2.978 0 0 0 8.216.042 2.978 2.978 0 0 0 5.109 2.5a9.164 9.164 0 0 0 .124 1.633c-.444-.092-.514.822-.494 1.15s.4.99.767.885a2.792 2.792 0 0 0 .763 1.85l-.015 1.49a18.147 18.147 0 0 1-1.922.872c-1.554.647-3.123 1.1-3.59 1.829C.323 12.865.449 16 .449 16H6.31L8 13l1.691 3h6.291s.127-3.135-.292-3.788zM8 13l-1-1 1-1 1 1z" data-name="New Symbol 37" role="presentation"/></g></symbol>
<symbol id="approve-check" class="symbol"><title id="title">approve-check icon</title><g data-name="Layer 1"><path d="M15.816 4.6l-1.9-1.9a.429.429 0 0 0-.606 0L6.286 9.729l-3.6-3.6a.429.429 0 0 0-.606 0l-1.9 1.9a.429.429 0 0 0 0 .606l3.6 3.6 2.5 2.5 2.5-2.5L15.816 5.2a.429.429 0 0 0 0-.6z" data-name="New Symbol 37" role="presentation"/></g></symbol>
<symbol id="check-ins" class="symbol"><title id="title">check-ins icon</title><g data-name="Layer 1"><path class="cls-1" d="M14 0H2a2 2 0 0 0-2 2v12a2 2 0 0 0 2 2h12a2 2 0 0 0 2-2V2a2 2 0 0 0-2-2zm0 14H2V2h3a1 1 0 0 0 1 1h4a1 1 0 0 0 1-1h3z" role="presentation"/><path class="cls-2" d="M12.008 5.682a1.038 1.038 0 0 0-1.466 0L6.875 9.341 5.408 7.877a1.036 1.036 0 0 0-1.467 1.464l2.2 2.2a1.038 1.038 0 0 0 1.467 0l4.4-4.391a1.033 1.033 0 0 0 0-1.468z" role="presentation"/></g></symbol>
<symbol id="drop-caret" class="symbol"><title id="title">drop-caret icon</title><g data-name="Layer 1"><path class="cls-1" d="M14.25 1.292H1.75A1.75 1.75 0 0 0 0 3.042v9.917a1.75 1.75 0 0 0 1.75 1.75h12.5A1.75 1.75 0 0 0 16 12.958V3.042a1.75 1.75 0 0 0-1.75-1.75zm-1.9 5.421l-3.941 3.951a.6.6 0 0 1-.409.163.618.618 0 0 1-.405-.162L3.646 6.713a.521.521 0 0 1-.125-.619.53.53 0 0 1 .53-.347h7.912a.564.564 0 0 1 .39.965z" data-name="New Symbol 37" role="presentation"/></g></symbol>
<symbol id="duplicate" class="symbol"><path d="M2.7 4H1.3v9.3c0 .7.6 1.3 1.3 1.3H12v-1.3H2.7V4zm10.6-2.7h-8c-.7 0-1.3.6-1.3 1.4v8c0 .7.6 1.3 1.3 1.3h8c.7 0 1.3-.6 1.3-1.3v-8c.1-.8-.5-1.4-1.3-1.4zm-.6 6H10V10H8.7V7.3H6V6h2.7V3.3H10V6h2.7v1.3z" role="presentation"/></symbol>
<symbol id="help" class="symbol"><title id="title">help icon</title><path class="cls-1" d="M8 .012a7.772 7.772 0 0 1 3.108.624 8.157 8.157 0 0 1 2.541 1.711A7.918 7.918 0 0 1 15.977 8a7.871 7.871 0 0 1-.62 3.112 7.953 7.953 0 0 1-1.709 2.541 8.151 8.151 0 0 1-2.541 1.709A7.772 7.772 0 0 1 8 15.988a7.808 7.808 0 0 1-3.114-.624 7.977 7.977 0 0 1-4.248-4.25A7.771 7.771 0 0 1 .009 8a7.791 7.791 0 0 1 .626-3.115A8 8 0 0 1 4.884.636 7.808 7.808 0 0 1 8 .012zM9.838 8.66a5.107 5.107 0 0 0 .5-.459 4.947 4.947 0 0 0 .459-.571 2.724 2.724 0 0 0 .345-.694 2.808 2.808 0 0 0 .131-.906 2.6 2.6 0 0 0-.275-1.211 2.548 2.548 0 0 0-.734-.873 3.478 3.478 0 0 0-1.036-.53 3.749 3.749 0 0 0-1.144-.186 3.634 3.634 0 0 0-1.14.17 5.205 5.205 0 0 0-.855.355 2.683 2.683 0 0 0-.53.355c-.12.11-.188.171-.2.185a.3.3 0 0 0-.03.39l.95 1.15a.276.276 0 0 0 .2.118.468.468 0 0 0 .23-.059l.1-.08a1.835 1.835 0 0 1 .273-.175 2.369 2.369 0 0 1 .392-.165 1.48 1.48 0 0 1 .465-.074 1.091 1.091 0 0 1 .693.224.706.706 0 0 1 .286.575.934.934 0 0 1-.245.645 7.579 7.579 0 0 1-.616.606q-.229.18-.465.4a3.138 3.138 0 0 0-.428.516A2.748 2.748 0 0 0 6.848 9a2.432 2.432 0 0 0-.12.8v.641a.31.31 0 0 0 .3.3h1.64a.267.267 0 0 0 .206-.09.289.289 0 0 0 .086-.208V9.93a.935.935 0 0 1 .255-.665q.253-.275.623-.605zm-.879 2.94a.3.3 0 0 0-.082-.208.263.263 0 0 0-.21-.092h-1.64a.314.314 0 0 0-.3.3v1.56a.3.3 0 0 0 .092.214.271.271 0 0 0 .208.1h1.64a.261.261 0 0 0 .206-.1.307.307 0 0 0 .086-.214z" data-name="Layer 1" role="presentation"/></symbol>
<symbol id="home" class="symbol"><title id="title">home icon</title><g data-name="Layer 1"><g data-name="New Symbol 37"><path class="cls-1" d="M15.7 8.392L9.111 1.608a1.534 1.534 0 0 0-2.211 0L.31 8.392a.871.871 0 0 0 0 1.208.813.813 0 0 0 1.173 0l.264-.272v3.546a1.89 1.89 0 0 0 1.86 1.914h8.8a1.89 1.89 0 0 0 1.86-1.914V9.328l.264.272a.812.812 0 0 0 1.173 0 .871.871 0 0 0-.004-1.208zm-3.1 4.481a.2.2 0 0 1-.2.207H3.6a.2.2 0 0 1-.2-.207V7.62L8 2.884l4.6 4.736z" role="presentation"/><path class="cls-1" d="M8.911 10.762H7.1a.725.725 0 0 1-.714-.735V8.165A.725.725 0 0 1 7.1 7.43h1.811a.725.725 0 0 1 .714.735v1.862a.725.725 0 0 1-.714.735z" role="presentation"/></g></g></symbol>
<symbol id="logout" class="symbol"><title id="title">logout icon</title><path class="cls-1" d="M13.585 7.246a1.115 1.115 0 0 1 .568.427 1.176 1.176 0 0 1 .216.7v6.363a1.146 1.146 0 0 1-.353.833 1.125 1.125 0 0 1-.827.357H2.822a1.142 1.142 0 0 1-.834-.357 1.134 1.134 0 0 1-.357-.833V8.374a1.176 1.176 0 0 1 .218-.7 1.152 1.152 0 0 1 .576-.427V5.579a5.441 5.441 0 0 1 .435-2.165 5.708 5.708 0 0 1 1.195-1.778A5.6 5.6 0 0 1 5.834.437a5.591 5.591 0 0 1 4.335 0 5.6 5.6 0 0 1 2.979 2.984 5.438 5.438 0 0 1 .435 2.158v1.667zm-2.4-1.667a3.118 3.118 0 0 0-.935-2.256 3.283 3.283 0 0 0-1.02-.676A3.1 3.1 0 0 0 8.005 2.4a3.06 3.06 0 0 0-1.24.249 3.424 3.424 0 0 0-1.012.676 3.053 3.053 0 0 0-.69 1.012 3.137 3.137 0 0 0-.249 1.244v1.585h6.371zm-2.541 5.794a1.362 1.362 0 0 0 .451-.46 1.194 1.194 0 0 0 .177-.624 1.257 1.257 0 0 0-.372-.905 1.244 1.244 0 0 0-1.791 0 1.249 1.249 0 0 0-.371.905 1.207 1.207 0 0 0 .171.624 1.181 1.181 0 0 0 .449.443l-.62 2.538h2.534z" data-name="Layer 1" role="presentation"/></symbol>
<symbol id="media" class="symbol"><title id="title">media icon</title><path class="cls-1" d="M0-.02v15.964h15.973V-.02zm2.139 13.89H1.063V12.8h1.076zm0-2.132H1.063v-1.074h1.076zm0-3.2H1.063V7.462h1.076zm0-3.213H1.063V4.249h1.076zm0-2.132H1.063V2.118h1.076zm10.67 9.582H3.148V8.493h9.66zm0-6.356H3.148V2.137h9.66zm2.139 7.451h-1.076V12.8h1.076zm0-2.132h-1.076v-1.074h1.076zm0-3.2h-1.076V7.462h1.076zm0-3.213h-1.076V4.249h1.076zm0-2.132h-1.076V2.118h1.076z" data-name="Layer 1" role="presentation"/></symbol>
<symbol id="music stand" class="symbol"><title id="title">music stand icon</title><g data-name="Layer 1"><path class="cls-1" d="M11.844 4.568c0-.333-.183-.421-.432-.354-.989.266-4.332 1.1-5.33 1.418a.458.458 0 0 0-.376.47v3.989a1.69 1.69 0 0 0-.674-.111 1.587 1.587 0 0 0-.541.1 1.871 1.871 0 0 0-.49.257 1.281 1.281 0 0 0-.363.365.982.982 0 0 0-.154.48.794.794 0 0 0 .058.3.807.807 0 0 0 .128.224.97.97 0 0 0 .426.311 1.973 1.973 0 0 0 .6.091 2.677 2.677 0 0 0 1.017-.208 2.688 2.688 0 0 0 .9-.578 1.04 1.04 0 0 0 .245-.464 4.174 4.174 0 0 0 .034-.611V7.239l3.754-1.066v2.88a1.293 1.293 0 0 0-.58-.138 1.622 1.622 0 0 0-.541.1 1.848 1.848 0 0 0-.489.257 1.319 1.319 0 0 0-.35.39.951.951 0 0 0-.134.481.866.866 0 0 0 .186.527.966.966 0 0 0 .425.311 1.77 1.77 0 0 0 .568.091 2.533 2.533 0 0 0 1-.212 2.125 2.125 0 0 0 .768-.578 1.172 1.172 0 0 0 .3-.465 4.318 4.318 0 0 0 .05-.637s-.005-3.371-.005-4.612z" role="presentation"/><path class="cls-2" d="M14 0H2a2 2 0 0 0-2 2v12a2 2 0 0 0 2 2h12a2 2 0 0 0 2-2V2a2 2 0 0 0-2-2zm0 14H2V2h3a1 1 0 0 0 1 1h4a1 1 0 0 0 1-1h3z" role="presentation"/></g></symbol>
<symbol id="pco" class="symbol"><title id="title">pco icon</title><g data-name="Layer 1"><path class="cls-1" d="M12.121 10.053a.521.521 0 0 0-.256-.328L9.857 8.508 11.865 7.4a.512.512 0 0 0 .253-.33.545.545 0 0 0-.064-.415l-.4-.508a.5.5 0 0 0-.335-.252.585.585 0 0 0-.421.051L8.787 7.049V4.908a.516.516 0 0 0-.161-.384.544.544 0 0 0-.4-.158h-.578a.541.541 0 0 0-.554.552v2.131L5.146 5.942a.568.568 0 0 0-.421-.055.517.517 0 0 0-.335.256l-.415.508a.526.526 0 0 0-.058.415.537.537 0 0 0 .259.33L6.19 8.508 4.176 9.725a.51.51 0 0 0-.253.328.579.579 0 0 0 .052.416l.415.576a.517.517 0 0 0 .335.26.542.542 0 0 0 .421-.057l1.949-1.107v1.994a.528.528 0 0 0 .158.385.54.54 0 0 0 .4.158h.579a.548.548 0 0 0 .4-.158.537.537 0 0 0 .161-.4v-1.979l2.107 1.107a.576.576 0 0 0 .421.055.514.514 0 0 0 .335-.258l.415-.576a.552.552 0 0 0 .05-.416z" role="presentation"/><path class="cls-1" d="M14 0H2a2 2 0 0 0-2 2v12a2 2 0 0 0 2 2h12a2 2 0 0 0 2-2V2a2 2 0 0 0-2-2zm0 14H2V2h3a1 1 0 0 0 1 1h4a1 1 0 0 0 1-1h3z" role="presentation"/></g></symbol>
<symbol id="people" class="symbol"><title id="title">people icon</title><g data-name="Layer 1"><path class="cls-1" d="M5.217 8.012l-.138-.059-.711-.316V7.1a1.5 1.5 0 0 1 .109-.366 3.081 3.081 0 0 0 .123-.323 3.661 3.661 0 0 0 .128-.435 2.573 2.573 0 0 0 .049-.553 3.387 3.387 0 0 0-.069-.7 1.182 1.182 0 0 0-.287-.563.9.9 0 0 0-.415-.3 1.443 1.443 0 0 0-.455-.079 1.3 1.3 0 0 0-.425.079.912.912 0 0 0-.405.3 1.252 1.252 0 0 0-.3.563 2.966 2.966 0 0 0-.079.7 2.552 2.552 0 0 0 .049.553 3.543 3.543 0 0 0 .128.435 3.027 3.027 0 0 0 .128.326 1.518 1.518 0 0 1 .109.366V7.6l-.692.3a4.331 4.331 0 0 1-.405.178q-.208.079-.425.178l-.573.237a.838.838 0 0 0-.494.455.958.958 0 0 0-.119.376v1.561h1.098c.026-.079.056-.161.089-.247s.069-.168.109-.247a3.671 3.671 0 0 1 .456-.699 1.9 1.9 0 0 1 .435-.385 2.531 2.531 0 0 1 .534-.267l.353-.14.278-.118q.138-.059.3-.119l.672-.277.1-.04q.158-.059.267-.109T5 8.111zm5.81.119l.474.2.2.079q.158.079.3.138t.3.119l.04.02.553.217.356.138a2.506 2.506 0 0 1 .949.652 4.652 4.652 0 0 1 .455.672 2.651 2.651 0 0 1 .178.514h1.107V9.316a.967.967 0 0 0-.119-.376.92.92 0 0 0-.494-.455l-.573-.237q-.218-.1-.425-.178a4.3 4.3 0 0 1-.405-.178q-.178-.079-.336-.158t-.3-.138V7.1a1.5 1.5 0 0 1 .109-.366 3.1 3.1 0 0 0 .128-.326 3.661 3.661 0 0 0 .128-.435 2.573 2.573 0 0 0 .049-.553 2.983 2.983 0 0 0-.079-.7 1.258 1.258 0 0 0-.3-.563.913.913 0 0 0-.405-.3 1.3 1.3 0 0 0-.425-.079 1.441 1.441 0 0 0-.455.079.9.9 0 0 0-.415.3 1.176 1.176 0 0 0-.287.563 3.365 3.365 0 0 0-.069.7 2.553 2.553 0 0 0 .049.553 3.543 3.543 0 0 0 .128.435 3.027 3.027 0 0 0 .128.326 1.521 1.521 0 0 1 .109.366v.534q-.138.059-.356.138a3.932 3.932 0 0 0-.415.178l-.138.059z" role="presentation"/><path class="cls-2" d="M13.676 10.672c-.355-.553-1.547-.9-2.727-1.389A13.782 13.782 0 0 1 9.49 8.62l-.011-1.132a2.123 2.123 0 0 0 .579-1.4c.276.08.567-.413.582-.672s-.038-.944-.375-.874A7 7 0 0 0 10.36 3.3 2.262 2.262 0 0 0 8 1.429 2.261 2.261 0 0 0 5.641 3.3a6.96 6.96 0 0 0 .094 1.24c-.337-.07-.39.624-.375.874s.306.752.583.672a2.121 2.121 0 0 0 .579 1.4L6.51 8.62a13.782 13.782 0 0 1-1.46.662c-1.18.492-2.372.836-2.727 1.389a9.825 9.825 0 0 0-.223 2.878h11.8a9.825 9.825 0 0 0-.224-2.877z" data-name="New Symbol 37" role="presentation"/></g></symbol>
<symbol id="plans" class="symbol"><title id="title">plans icon</title><path class="cls-1" d="M13.681.9h-1.107v-.922L3.366-.044V.9h-1a1.77 1.77 0 0 0-1.77 1.77v11.837c0 .977.793 1.488 1.77 1.488h11.315c.978 0 1.77-.511 1.77-1.488V2.671A1.77 1.77 0 0 0 13.681.9zm-1.509.291l-1.494 1.615H5.2L3.762 1.191zm1.4 12.921H2.457V3.718h11.116zm-1.465-2.822h-8.3v.954h8.3zm0-5.715h-8.3v.953h8.3zm0 2.88h-8.3v.951h8.3z" data-name="Layer 1" role="presentation"/></symbol>
<symbol id="projector" class="symbol"><title id="title">projector icon</title><g data-name="Layer 1"><path class="cls-1" d="M7.945 4.7a3.757 3.757 0 1 0 3.8 3.758 3.781 3.781 0 0 0-3.8-3.758zm1.41 3.835c-.12.087-1.7 1.451-1.84 1.544-.1.069-.239-.008-.239-.165v-3.09c0-.145.122-.251.244-.167.1.067 1.668 1.424 1.835 1.54a.213.213 0 0 1 .001.334z" role="presentation"/><path class="cls-2" d="M14 0H2a2 2 0 0 0-2 2v12a2 2 0 0 0 2 2h12a2 2 0 0 0 2-2V2a2 2 0 0 0-2-2zm0 14H2V2h3a1 1 0 0 0 1 1h4a1 1 0 0 0 1-1h3z" role="presentation"/></g></symbol>
<symbol id="remove" class="symbol"><title id="title">remove icon</title><g data-name="Layer 1"><path d="M10.188 7.994L15.8 2.383a.3.3 0 0 0 0-.424L14.031.191a.3.3 0 0 0-.424 0L8 5.8 2.385.191a.3.3 0 0 0-.424 0L.193 1.958a.3.3 0 0 0 0 .424L5.8 7.994.193 13.606a.3.3 0 0 0 0 .424l1.768 1.77a.3.3 0 0 0 .424 0L8 10.186l5.607 5.614a.3.3 0 0 0 .424 0l1.769-1.77a.3.3 0 0 0 0-.424z" data-name="New Symbol 37" role="presentation"/></g></symbol>
<symbol id="resources" class="symbol"><title id="title">resources icon</title><g data-name="Layer 1"><path class="cls-1" d="M14 0H2a2 2 0 0 0-2 2v12a2 2 0 0 0 2 2h12a2 2 0 0 0 2-2V2a2 2 0 0 0-2-2zm0 14H2V2h3a1 1 0 0 0 1 1h4a1 1 0 0 0 1-1h3z" role="presentation"/><path class="cls-1" d="M4.575 5h2.21a.59.59 0 0 1 .59.59v1.82a.59.59 0 0 1-.59.59H4.573a.589.589 0 0 1-.589-.589V5.593A.591.591 0 0 1 4.575 5zm4.641 0h2.21a.59.59 0 0 1 .59.59v1.82a.59.59 0 0 1-.59.59H9.214a.589.589 0 0 1-.589-.589V5.593A.591.591 0 0 1 9.216 5zM4.575 9h2.21a.59.59 0 0 1 .59.59v1.82a.59.59 0 0 1-.59.59H4.573a.589.589 0 0 1-.589-.589V9.593A.591.591 0 0 1 4.575 9zm4.641 0h2.21a.59.59 0 0 1 .59.59v1.82a.59.59 0 0 1-.59.59H9.214a.589.589 0 0 1-.589-.589V9.593A.591.591 0 0 1 9.216 9z" role="presentation"/></g></symbol>
<symbol id="services-logo" class="symbol"><title id="title">services-logo icon</title><g data-name="Layer 1"><g data-name="New Symbol 37"><path class="cls-1" d="M5.859 9.656a1.234 1.234 0 0 1-.822-.31l.252-.3a.889.889 0 0 0 .579.235c.174 0 .28-.069.28-.183v-.007c0-.108-.066-.163-.39-.246-.39-.1-.642-.208-.642-.593v-.006a.606.606 0 0 1 .678-.584 1.122 1.122 0 0 1 .72.246l-.222.321a.91.91 0 0 0-.5-.191c-.163 0-.249.075-.249.169v.006c0 .127.083.169.418.255.393.1.615.244.615.581v.006c-.005.385-.299.601-.717.601zm2.325-.623H7.151a.344.344 0 0 0 .363.291.486.486 0 0 0 .36-.152l.241.213a.784.784 0 0 1-1.382-.49v-.006a.739.739 0 0 1 .734-.773.723.723 0 0 1 .723.806v.006c-.001.041-.004.066-.006.105zm-.717-.579a.331.331 0 0 0-.321.316h.634a.318.318 0 0 0-.313-.316zm1.817.103c-.28 0-.451.169-.451.523v.548h-.422V8.144h.421v.3a.458.458 0 0 1 .473-.327v.44zm1.068 1.082H9.97l-.584-1.5h.446l.332.994.335-.994h.437zm.721-1.658v-.374h.443v.374zm.011 1.648V8.144h.421v1.484zm1.416.032a.758.758 0 0 1-.772-.767v-.005a.762.762 0 0 1 .778-.773.73.73 0 0 1 .593.249l-.258.277a.434.434 0 0 0-.338-.163.379.379 0 0 0-.36.4v.006a.38.38 0 0 0 .377.41.47.47 0 0 0 .341-.158l.246.249a.747.747 0 0 1-.607.275zm2.126-.628h-1.033a.344.344 0 0 0 .363.291.486.486 0 0 0 .36-.152l.241.213a.784.784 0 0 1-1.382-.49v-.006a.739.739 0 0 1 .734-.773.723.723 0 0 1 .723.806v.006c-.001.041-.004.066-.006.105zm-.717-.579a.331.331 0 0 0-.321.316h.634a.318.318 0 0 0-.314-.316zm1.451 1.202a1.039 1.039 0 0 1-.637-.224l.18-.277a.839.839 0 0 0 .468.177c.122 0 .177-.044.177-.111v-.005c0-.091-.144-.122-.307-.172-.208-.061-.443-.158-.443-.446v-.005a.485.485 0 0 1 .543-.471 1.027 1.027 0 0 1 .554.172l-.161.291a.88.88 0 0 0-.4-.138c-.1 0-.155.044-.155.1v.006c0 .083.141.122.3.177.208.069.449.169.449.44v.006c-.001.33-.247.48-.568.48zM5.155 7.211a.012.012 0 0 1-.013-.011v-.827a.012.012 0 0 1 .013-.013h.118a.012.012 0 0 1 .013.013v.046a.187.187 0 0 1 .165-.073.208.208 0 0 1 .215.149.711.711 0 0 1 0 .35.208.208 0 0 1-.215.149.187.187 0 0 1-.165-.073V7.2a.012.012 0 0 1-.013.013zm.374-.425a.528.528 0 0 0 0-.231.123.123 0 0 0-.23 0 .528.528 0 0 0 0 .231.123.123 0 0 0 .23 0zM6 6.987c-.121 0-.17-.058-.17-.177v-.692a.012.012 0 0 1 .013-.013h.118a.012.012 0 0 1 .013.013V6.8c0 .042.017.057.054.057h.028a.012.012 0 0 1 .013.013v.1a.012.012 0 0 1-.013.013zm.56-.007a.012.012 0 0 1-.013-.013v-.045a.2.2 0 0 1-.175.072.185.185 0 0 1-.209-.194c0-.135.1-.2.248-.2h.126a.007.007 0 0 0 .007 0v-.03c0-.071-.034-.1-.138-.1a.217.217 0 0 0-.141.042.012.012 0 0 1-.018 0L6.2 6.423a.012.012 0 0 1 0-.017.362.362 0 0 1 .22-.06c.189 0 .258.064.258.216v.4a.012.012 0 0 1-.013.013zm-.015-.208v-.048a.007.007 0 0 0-.008-.008h-.1c-.093 0-.134.026-.134.084s.037.077.107.077c.09 0 .134-.035.134-.106zm.697.208a.012.012 0 0 1-.013-.013v-.358c0-.08-.04-.135-.117-.135a.119.119 0 0 0-.118.135v.357a.012.012 0 0 1-.013.013h-.118a.012.012 0 0 1-.013-.013v-.593a.012.012 0 0 1 .013-.013h.118a.012.012 0 0 1 .013.013v.045H7a.192.192 0 0 1 .163-.072.211.211 0 0 1 .215.23v.391a.012.012 0 0 1-.013.013zm.692 0a.012.012 0 0 1-.013-.013v-.358c0-.08-.04-.135-.117-.135a.119.119 0 0 0-.118.135v.357a.012.012 0 0 1-.013.013h-.118a.012.012 0 0 1-.013-.013v-.593a.012.012 0 0 1 .013-.013h.118a.012.012 0 0 1 .013.013v.045a.192.192 0 0 1 .163-.072.211.211 0 0 1 .215.23v.391a.012.012 0 0 1-.013.013zm.312-.737a.012.012 0 0 1-.013-.013v-.112a.012.012 0 0 1 .013-.013h.118a.012.012 0 0 1 .013.013v.112a.012.012 0 0 1-.013.013zm0 .737a.012.012 0 0 1-.013-.013v-.594a.012.012 0 0 1 .013-.013h.118a.012.012 0 0 1 .013.013v.594a.012.012 0 0 1-.013.013zm.698 0a.012.012 0 0 1-.013-.013v-.358c0-.08-.04-.135-.117-.135a.119.119 0 0 0-.118.135v.357a.012.012 0 0 1-.013.013h-.118a.012.012 0 0 1-.013-.013v-.593a.012.012 0 0 1 .013-.013h.118a.012.012 0 0 1 .013.013v.045a.192.192 0 0 1 .163-.072.211.211 0 0 1 .215.23v.391a.012.012 0 0 1-.013.013zm.287.153a.012.012 0 0 1 0-.018l.076-.076a.012.012 0 0 1 .019 0 .19.19 0 0 0 .135.058c.1 0 .139-.051.139-.148v-.058a.179.179 0 0 1-.161.072.207.207 0 0 1-.211-.15.474.474 0 0 1-.021-.158.466.466 0 0 1 .021-.155.207.207 0 0 1 .211-.152.177.177 0 0 1 .161.073v-.048a.012.012 0 0 1 .013-.013h.118a.012.012 0 0 1 .013.013v.568a.259.259 0 0 1-.289.284.307.307 0 0 1-.224-.092zm.356-.377a.29.29 0 0 0 .014-.1.3.3 0 0 0-.014-.1.116.116 0 0 0-.22 0 .3.3 0 0 0-.014.1.29.29 0 0 0 .014.1.116.116 0 0 0 .22 0zm.473.067a.616.616 0 0 1 0-.306.25.25 0 0 1 .256-.171.27.27 0 0 1 .215.1.013.013 0 0 1 0 .018l-.081.071a.012.012 0 0 1-.018 0 .14.14 0 0 0-.114-.054.114.114 0 0 0-.116.081.366.366 0 0 0-.013.114.375.375 0 0 0 .013.116.114.114 0 0 0 .116.08.14.14 0 0 0 .114-.054.012.012 0 0 1 .018 0l.081.071c.006.005.005.012 0 .018a.273.273 0 0 1-.215.1.25.25 0 0 1-.256-.184zm.601-.001a.48.48 0 0 1-.022-.152.494.494 0 0 1 .021-.153.274.274 0 0 1 .508 0 .556.556 0 0 1 .021.186.013.013 0 0 1-.014.013h-.382a.007.007 0 0 0-.008.008.137.137 0 0 0 .009.048.135.135 0 0 0 .139.094.187.187 0 0 0 .145-.059c.006-.006.013-.008.019 0l.076.067a.011.011 0 0 1 0 .018.326.326 0 0 1-.254.105.251.251 0 0 1-.258-.175zm.374-.274a.132.132 0 0 0-.243 0 .156.156 0 0 0-.008.053.007.007 0 0 0 .008.008h.243a.007.007 0 0 0 .008-.008.158.158 0 0 0-.008-.053zm.686.432a.012.012 0 0 1-.013-.013v-.358c0-.08-.04-.135-.117-.135a.119.119 0 0 0-.118.135v.357a.012.012 0 0 1-.013.013h-.118a.012.012 0 0 1-.013-.013v-.593a.012.012 0 0 1 .013-.013h.118a.012.012 0 0 1 .013.013v.045a.192.192 0 0 1 .163-.072.211.211 0 0 1 .215.23v.391a.012.012 0 0 1-.013.013zm.479.007c-.125 0-.172-.06-.172-.181V6.48a.007.007 0 0 0-.008-.008h-.041a.012.012 0 0 1-.013-.013v-.086a.012.012 0 0 1 .013-.013h.041a.007.007 0 0 0 .008-.008v-.17a.012.012 0 0 1 .013-.013h.118a.012.012 0 0 1 .013.013v.17a.007.007 0 0 0 .008.008h.082a.012.012 0 0 1 .013.013v.086a.012.012 0 0 1-.013.013h-.082a.007.007 0 0 0-.008.008v.32c0 .044.018.058.058.058h.032a.012.012 0 0 1 .013.013v.1a.012.012 0 0 1-.013.013zm.209-.165a.48.48 0 0 1-.022-.152.494.494 0 0 1 .021-.153.274.274 0 0 1 .508 0 .556.556 0 0 1 .021.186.013.013 0 0 1-.014.013h-.383a.007.007 0 0 0-.008.008.137.137 0 0 0 .009.048.135.135 0 0 0 .139.094.187.187 0 0 0 .145-.059c.006-.006.013-.008.019 0l.076.067a.011.011 0 0 1 0 .018.326.326 0 0 1-.254.105.251.251 0 0 1-.257-.175zm.374-.274a.132.132 0 0 0-.243 0 .156.156 0 0 0-.008.053.007.007 0 0 0 .008.008h.243a.007.007 0 0 0 .008-.008.158.158 0 0 0-.008-.053zm.307.432a.012.012 0 0 1-.013-.013v-.594a.012.012 0 0 1 .013-.013h.118a.012.012 0 0 1 .013.013v.053a.178.178 0 0 1 .161-.08.187.187 0 0 1 .13.051c.006.006.008.012 0 .018l-.068.086a.012.012 0 0 1-.018 0 .167.167 0 0 0-.091-.03c-.081 0-.117.058-.117.157v.336a.012.012 0 0 1-.013.013z" role="presentation"/><rect class="cls-1" x="1.218" y="8.478" width="1.949" height=".479" rx=".068" ry=".068"/><rect class="cls-1" x="1.218" y="7.794" width="1.949" height=".479" rx=".068" ry=".068"/><rect class="cls-1" x="1.218" y="7.11" width="1.949" height=".479" rx=".068" ry=".068"/><path class="cls-2" d="M3.833 5.859H.524a.452.452 0 0 0-.44.454v3.31a.454.454 0 0 0 .454.454h3.309a.454.454 0 0 0 .453-.454V6.314a.458.458 0 0 0-.467-.455zm0 3.518a.2.2 0 0 1-.2.2H.748a.2.2 0 0 1-.2-.2V6.524a.2.2 0 0 1 .2-.2h.526v.213a.142.142 0 0 0 .142.142H2.94a.142.142 0 0 0 .142-.142v-.214h.555a.2.2 0 0 1 .2.2z" role="presentation"/></g></g></symbol>
<symbol id="settings" class="symbol"><title id="title">settings icon</title><path class="cls-1" d="M13.269 5.076a4.726 4.726 0 0 1 .512 1.236 7.1 7.1 0 0 0 1.04.131 3.548 3.548 0 0 1 1.02.2.179.179 0 0 1 .161.18V9.2c0 .08-.1.152-.3.215a4.341 4.341 0 0 1-.689.156c-.261.041-.515.07-.763.09s-.412.037-.492.051a4.872 4.872 0 0 1-.472 1.174A15.127 15.127 0 0 0 14.5 12.46l.06.152c0 .053-.092.182-.277.385s-.393.424-.627.66-.458.443-.668.627-.347.275-.407.275a1.773 1.773 0 0 1-.267-.184c-.165-.123-.345-.262-.543-.412s-.385-.3-.563-.432-.29-.219-.336-.246a5.15 5.15 0 0 1-.588.277 5.865 5.865 0 0 1-.6.195c-.013.082-.032.246-.055.5s-.055.506-.1.765-.087.49-.14.7-.124.311-.211.311H6.809c-.094 0-.158-.057-.191-.17a5.572 5.572 0 0 1-.191-1.035q-.051-.541-.111-1.035a5.576 5.576 0 0 1-1.175-.5c-.276.209-.546.41-.815.607s-.532.408-.793.629l-.121.039a1.247 1.247 0 0 1-.372-.275q-.311-.277-.648-.627T1.781 13c-.184-.2-.277-.332-.277-.385a1.889 1.889 0 0 1 .161-.267c.108-.164.233-.344.377-.537s.285-.381.422-.557.225-.3.266-.349a4.7 4.7 0 0 1-.512-1.236 7.616 7.616 0 0 0-1.05-.129 3.578 3.578 0 0 1-1.009-.2C.051 9.309 0 9.249 0 9.155V6.784c0-.084.1-.152.3-.216a4.69 4.69 0 0 1 .688-.156c.255-.039.5-.072.744-.09s.4-.037.483-.051A5.774 5.774 0 0 1 2.71 5.1 16.077 16.077 0 0 0 1.5 3.519l-.07-.15c0-.053.093-.184.281-.387s.4-.424.628-.658.454-.443.668-.627.348-.279.4-.279a1.988 1.988 0 0 1 .273.182q.246.187.547.412c.2.152.39.3.568.432s.287.219.327.246a4.133 4.133 0 0 1 .588-.266c.2-.07.4-.137.608-.205a10.268 10.268 0 0 1 .12-1.246 5.32 5.32 0 0 1 .155-.69c.064-.205.136-.31.216-.31H9.19a.191.191 0 0 1 .191.15 7.168 7.168 0 0 1 .171 1.035q.049.544.14 1.066a5.4 5.4 0 0 1 .6.191 3.661 3.661 0 0 1 .568.281c.053-.039.167-.129.342-.266s.36-.281.558-.433.375-.283.532-.4a.865.865 0 0 1 .3-.176 1.3 1.3 0 0 1 .371.279q.312.277.654.627c.227.234.433.455.618.658s.276.334.276.387a1.139 1.139 0 0 1-.175.287 42.321 42.321 0 0 1-.815 1.094c-.137.178-.219.287-.246.326zM8 10.411a2.276 2.276 0 0 0 .935-.2 2.33 2.33 0 0 0 .765-.523 2.685 2.685 0 0 0 .512-.773 2.292 2.292 0 0 0 .2-.935 2.224 2.224 0 0 0-.2-.924 2.729 2.729 0 0 0-.512-.764 2.215 2.215 0 0 0-.758-.516A2.407 2.407 0 0 0 8 5.589a2.44 2.44 0 0 0-.94.187 2.3 2.3 0 0 0-.774.516 2.473 2.473 0 0 0-.512.764 2.32 2.32 0 0 0-.185.924 2.391 2.391 0 0 0 .185.935 2.421 2.421 0 0 0 1.286 1.3 2.307 2.307 0 0 0 .94.196z" data-name="Layer 1" role="presentation"/></symbol>
<symbol id="songs" class="symbol"><title id="title">songs icon</title><path class="cls-1" d="M15.32 2.967l-.063.018.01 1.659v5.519a9.221 9.221 0 0 1-.068 1.262 1.935 1.935 0 0 1-.429.921 4.446 4.446 0 0 1-1.58 1.148 3.577 3.577 0 0 1-1.631.421 2.891 2.891 0 0 1-1.027-.182 1.862 1.862 0 0 1-.823-.614 1.587 1.587 0 0 1-.248-.443 1.612 1.612 0 0 1-.113-.6 2.2 2.2 0 0 1 2.294-2.4 4.817 4.817 0 0 1 1.609.237V3.468L6.27 5.58l.007 1.12v5.519a9.22 9.22 0 0 1-.068 1.262 1.934 1.934 0 0 1-.429.921 4.077 4.077 0 0 1-1.48 1.152 4.621 4.621 0 0 1-1.881.421 2.42 2.42 0 0 1-.936-.182 1.862 1.862 0 0 1-.823-.614 1.58 1.58 0 0 1-.248-.443 1.611 1.611 0 0 1-.113-.6 1.9 1.9 0 0 1 .259-.955 2.556 2.556 0 0 1 .677-.773 3.565 3.565 0 0 1 .948-.512 3.051 3.051 0 0 1 1.048-.196 2.094 2.094 0 0 1 1.029.273l-.007-8.711L15.362.025z" data-name="Layer 1" role="presentation"/></symbol>
<symbol id="split-teams" class="symbol"><title id="title">split-teams icon</title><g data-name="Layer 1"><path class="cls-1" d="M14.461 2.443H5.074V1.372A.839.839 0 0 0 3.718.711L.422 3.286a.839.839 0 0 0 0 1.322l3.3 2.576a.839.839 0 0 0 1.356-.661v-1.07h9.387a1.5 1.5 0 1 0 0-3.01zM1.6 10.505h9.387V9.434a.839.839 0 0 1 1.356-.661l3.3 2.576a.839.839 0 0 1 0 1.322l-3.3 2.576a.839.839 0 0 1-1.356-.661v-1.071H1.6a1.5 1.5 0 1 1 0-3.01z" data-name="New Symbol 37" role="presentation"/></g></symbol>
<symbol id="time" class="symbol"><title id="title">time icon</title><g data-name="Layer 1"><g data-name="New Symbol 37"><path d="M8.069.049a7.971 7.971 0 1 1-8.032 7.88A7.972 7.972 0 0 1 8.069.049zm-.057 13.363a5.4 5.4 0 1 0-5.405-5.345 5.384 5.384 0 0 0 5.405 5.345z" role="presentation"/><path d="M10.755 9.82H7.507a.684.684 0 0 1-.684-.684V5.181a1.056 1.056 0 0 1 1.056-1.056H7.9a1.056 1.056 0 0 1 1.056 1.056v2.506h1.8a1.056 1.056 0 0 1 1.056 1.056v.021a1.056 1.056 0 0 1-1.057 1.056z" role="presentation"/></g></g></symbol>
<symbol id="upload-docs-outline" class="symbol"><title id="title">upload-docs-outline icon</title><g data-name="Layer 1"><path class="cls-1" d="M15.287 4.454L12.432 2.8a.571.571 0 0 0-.781.208l-.725 1.251V1.843L9.2.12H5.9a.572.572 0 0 0-.572.572V3.8l-1.871-.843L.37 4.122a.572.572 0 0 0-.333.737L2.1 10.313a.566.566 0 0 0 .22.273 5.21 5.21 0 0 1 .41-.716L.8 4.761l2.317-.875.523 1.389L5.156 4.7l.176.466v2.565a1.619 1.619 0 0 1 .75-.027V.87h2.476v1.485h1.618v3.2l-.1.18a1.627 1.627 0 0 1 .2.016 1.691 1.691 0 0 1 .2.025 1.8 1.8 0 0 1 .347.111c.008 0 .014.009.022.013.028.015.055.033.083.048v-.193l1.284-2.217 2.141 1.242-.744 1.285 1.4.811-1.877 3.24a3.129 3.129 0 0 1 .736.225l2.046-3.532zM3.773 3.923l.8.361-.581.216zm5.385-2.788l.62.62h-.62zm5.582 4.176l.225.845-.535-.31z" role="presentation"/><g data-name="New Symbol 37"><path d="M9.557 6.258a2.813 2.813 0 0 1 2.734 3.525.75.75 0 0 0 .719.935 2.176 2.176 0 0 1 .336 4.322.753.753 0 0 0-.075.016c-.041.011-.07.015-.059.015H2.934a2.177 2.177 0 0 1-.355-4.325.75.75 0 0 0 .627-.695 2.168 2.168 0 0 1 2.919-1.91.75.75 0 0 0 .924-.359 2.818 2.818 0 0 1 2.508-1.524m0-.75A3.573 3.573 0 0 0 6.384 7.44a2.918 2.918 0 0 0-3.925 2.569 2.927 2.927 0 0 0 .477 5.815h10.281a1.141 1.141 0 0 0 .253-.041 2.926 2.926 0 0 0-.451-5.812 3.563 3.563 0 0 0-3.462-4.463z" role="presentation"/><path d="M6.98 13.617v-1.756a.121.121 0 0 0-.121-.121h-1.18a.121.121 0 0 1-.091-.2l2.45-2.69a.123.123 0 0 1 .181 0l2.451 2.691a.121.121 0 0 1-.091.2h-1.2a.121.121 0 0 0-.121.121v1.756a.271.271 0 0 1-.271.271H7.251a.271.271 0 0 1-.271-.272z" role="presentation"/></g></g></symbol>
<symbol id="upload-outline" class="symbol"><title id="title">upload-outline icon</title><g data-name="Layer 1"><g data-name="New Symbol 37"><path d="M9.557 3.53a2.813 2.813 0 0 1 2.734 3.525.75.75 0 0 0 .719.935 2.176 2.176 0 0 1 .336 4.322.753.753 0 0 0-.075.016c-.041.011-.07.015-.059.015H2.934a2.177 2.177 0 0 1-.354-4.322.75.75 0 0 0 .627-.695 2.168 2.168 0 0 1 2.919-1.91.75.75 0 0 0 .924-.359A2.818 2.818 0 0 1 9.557 3.53m0-.75a3.573 3.573 0 0 0-3.173 1.932 2.918 2.918 0 0 0-3.926 2.569 2.927 2.927 0 0 0 .477 5.819h10.281a1.141 1.141 0 0 0 .253-.041 2.926 2.926 0 0 0-.451-5.812A3.563 3.563 0 0 0 9.557 2.78z" role="presentation"/><path d="M6.98 10.888V9.132a.121.121 0 0 0-.121-.121h-1.18a.121.121 0 0 1-.091-.2l2.45-2.69a.123.123 0 0 1 .181 0l2.451 2.691a.121.121 0 0 1-.091.2h-1.2a.121.121 0 0 0-.121.121v1.756a.271.271 0 0 1-.271.271H7.251a.271.271 0 0 1-.271-.272z" role="presentation"/></g></g></symbol>
    </svg>