<svg xmlns="http://www.w3.org/2000/svg" viewBox="0 0 16 16"><defs><style>.cls-1,.cls-2{fill:#231f20;}.cls-2{fill-rule:evenodd;}</style></defs><title>accounts-logo</title><g id="Layer_1" data-name="Layer 1"><path class="cls-1" d="M2.437,8.211h0a.03.03,0,0,0-.021-.026H2.41l-.1-.011a.15.15,0,0,1-.1-.229l.061-.077v0h0l0,0v0h0a.03.03,0,0,0-.005-.027h0v0l-.1-.1h0a.03.03,0,0,0-.033,0l0,0h0l-.077.061a.15.15,0,0,1-.229-.095l-.011-.1v0h0V7.584h0a.03.03,0,0,0-.023-.015H1.648a.03.03,0,0,0-.026.021v0h0l-.011.1a.15.15,0,0,1-.229.1L1.3,7.726h0l0,0h0a.03.03,0,0,0-.027.005h0l0,0-.1.1v0h0a.03.03,0,0,0,0,.033l0,0h0l.062.077a.149.149,0,0,1-.095.229l-.1.011H1.021a.03.03,0,0,0-.015.023h0v.142h0a.03.03,0,0,0,.021.026h.006l.1.011a.149.149,0,0,1,.1.229L1.164,8.7v0h0l0,0v0h0a.03.03,0,0,0,.005.027h0v0l.1.1h0a.03.03,0,0,0,.033,0l0,0h0l.077-.061a.15.15,0,0,1,.229.095l.011.1v0h0v.007h0A.03.03,0,0,0,1.648,9h.146a.03.03,0,0,0,.026-.021v0h0l.011-.1a.149.149,0,0,1,.229-.1l.077.061h0l0,0h0a.03.03,0,0,0,.027-.005h0l.1-.1v0h0a.03.03,0,0,0,0-.033l0,0h0l-.061-.077a.15.15,0,0,1,.095-.229l.1-.011h.012a.03.03,0,0,0,.015-.023h0V8.211Zm-.715.316a.244.244,0,1,1,.244-.244A.244.244,0,0,1,1.721,8.527Z"/><path class="cls-2" d="M3.006,6.539H.414a.354.354,0,0,0-.345.356V9.487a.356.356,0,0,0,.356.356H3.017a.356.356,0,0,0,.356-.356V6.895A.359.359,0,0,0,3.006,6.539Zm0,2.755a.157.157,0,0,1-.157.157H.59a.157.157,0,0,1-.157-.157V7.059A.157.157,0,0,1,.59,6.9H1v.167a.111.111,0,0,0,.111.111H2.307a.111.111,0,0,0,.111-.111V6.9h.434a.157.157,0,0,1,.157.157Z"/><path class="cls-1" d="M5.17,9.466,5.03,9.124H4.386l-.139.342H3.905l.653-1.534h.309L5.52,9.466ZM4.708,8.335l-.2.494h.4Z"/><path class="cls-1" d="M6.22,9.492a.6.6,0,0,1-.607-.6v0a.6.6,0,0,1,.611-.607.574.574,0,0,1,.466.2l-.2.218a.341.341,0,0,0-.265-.128.3.3,0,0,0-.283.318v0a.3.3,0,0,0,.3.322A.368.368,0,0,0,6.5,9.083l.194.2A.588.588,0,0,1,6.22,9.492Z"/><path class="cls-1" d="M7.418,9.492a.6.6,0,0,1-.607-.6v0a.6.6,0,0,1,.611-.607.574.574,0,0,1,.466.2l-.2.218a.341.341,0,0,0-.265-.128.3.3,0,0,0-.283.318v0a.3.3,0,0,0,.3.322A.368.368,0,0,0,7.7,9.083l.194.2A.588.588,0,0,1,7.418,9.492Z"/><path class="cls-1" d="M8.638,9.492a.606.606,0,0,1-.629-.6v0a.631.631,0,0,1,1.262,0v0A.612.612,0,0,1,8.638,9.492Zm.307-.607a.31.31,0,0,0-.307-.322.3.3,0,0,0-.3.318v0a.31.31,0,0,0,.307.322.3.3,0,0,0,.3-.317Z"/><path class="cls-1" d="M10.231,9.466V9.3a.413.413,0,0,1-.342.187.382.382,0,0,1-.4-.433V8.3h.331v.65c0,.157.074.237.2.237s.207-.08.207-.237V8.3h.331V9.466Z"/><path class="cls-1" d="M11.6,9.466v-.65c0-.157-.074-.237-.2-.237s-.207.08-.207.237v.65h-.331V8.3h.331v.165a.413.413,0,0,1,.342-.187.382.382,0,0,1,.4.433v.755Z"/><path class="cls-1" d="M12.6,9.485c-.2,0-.339-.08-.339-.35V8.583H12.12V8.3h.139V8h.331v.3h.274v.283h-.274v.5c0,.076.033.113.107.113a.338.338,0,0,0,.163-.041v.265A.487.487,0,0,1,12.6,9.485Z"/><path class="cls-1" d="M13.515,9.488a.817.817,0,0,1-.5-.176l.142-.218a.658.658,0,0,0,.368.139c.1,0,.139-.035.139-.087v0c0-.072-.113-.1-.241-.135-.163-.048-.348-.124-.348-.35v0a.381.381,0,0,1,.426-.37.807.807,0,0,1,.435.135l-.126.228a.692.692,0,0,0-.315-.109c-.08,0-.122.035-.122.08v0c0,.065.111.1.237.139.163.054.352.133.352.346v0C13.961,9.37,13.768,9.488,13.515,9.488Z"/><path class="cls-1" d="M4.046,7.559a.01.01,0,0,1-.01-.01V6.9a.01.01,0,0,1,.01-.01h.093a.01.01,0,0,1,.01.01v.036h0a.147.147,0,0,1,.129-.058A.163.163,0,0,1,4.448,7a.557.557,0,0,1,0,.274.163.163,0,0,1-.168.117.147.147,0,0,1-.129-.058h0v.218a.01.01,0,0,1-.01.01Zm.294-.334a.414.414,0,0,0,0-.182.1.1,0,0,0-.181,0,.414.414,0,0,0,0,.182.1.1,0,0,0,.181,0Z"/><path class="cls-1" d="M4.706,7.383c-.095,0-.133-.045-.133-.139V6.7a.01.01,0,0,1,.01-.01h.093a.01.01,0,0,1,.01.01v.537c0,.033.013.044.042.044h.022a.01.01,0,0,1,.01.01v.081a.01.01,0,0,1-.01.01Z"/><path class="cls-1" d="M5.148,7.377a.01.01,0,0,1-.01-.01V7.332h0A.159.159,0,0,1,5,7.388a.145.145,0,0,1-.163-.148c0-.106.075-.154.195-.154h.1a.005.005,0,0,0,.006-.006V7.057c0-.055-.026-.081-.108-.081a.17.17,0,0,0-.111.033.009.009,0,0,1-.014,0l-.037-.067a.009.009,0,0,1,0-.013A.284.284,0,0,1,5.04,6.88c.148,0,.2.05.2.169v.318a.01.01,0,0,1-.01.01Zm-.012-.163V7.177a.005.005,0,0,0-.006-.006H5.049c-.073,0-.1.02-.1.066s.029.061.084.061C5.1,7.3,5.136,7.269,5.136,7.214Z"/><path class="cls-1" d="M5.683,7.377a.01.01,0,0,1-.01-.01v-.28c0-.063-.031-.106-.092-.106a.093.093,0,0,0-.093.106v.28a.01.01,0,0,1-.01.01H5.386a.01.01,0,0,1-.01-.01V6.9a.01.01,0,0,1,.01-.01h.093a.01.01,0,0,1,.01.01v.035h0a.15.15,0,0,1,.128-.056.166.166,0,0,1,.168.181v.307a.01.01,0,0,1-.01.01Z"/><path class="cls-1" d="M6.225,7.377a.01.01,0,0,1-.01-.01v-.28c0-.063-.031-.106-.092-.106a.093.093,0,0,0-.093.106v.28a.01.01,0,0,1-.01.01H5.928a.01.01,0,0,1-.01-.01V6.9a.01.01,0,0,1,.01-.01H6.02a.01.01,0,0,1,.01.01v.035h0A.15.15,0,0,1,6.16,6.88a.166.166,0,0,1,.168.181v.307a.01.01,0,0,1-.01.01Z"/><path class="cls-1" d="M6.47,6.8a.01.01,0,0,1-.01-.01V6.7a.01.01,0,0,1,.01-.01h.093a.01.01,0,0,1,.01.01v.088a.01.01,0,0,1-.01.01Zm0,.578a.01.01,0,0,1-.01-.01V6.9a.01.01,0,0,1,.01-.01h.093a.01.01,0,0,1,.01.01v.466a.01.01,0,0,1-.01.01Z"/><path class="cls-1" d="M7.017,7.377a.01.01,0,0,1-.01-.01v-.28c0-.063-.031-.106-.092-.106a.093.093,0,0,0-.093.106v.28a.01.01,0,0,1-.01.01H6.72a.01.01,0,0,1-.01-.01V6.9a.01.01,0,0,1,.01-.01h.093a.01.01,0,0,1,.01.01v.035h0a.15.15,0,0,1,.128-.056.166.166,0,0,1,.168.181v.307a.01.01,0,0,1-.01.01Z"/><path class="cls-1" d="M7.242,7.5a.009.009,0,0,1,0-.014l.06-.06a.009.009,0,0,1,.015,0,.149.149,0,0,0,.106.045c.075,0,.109-.04.109-.116V7.308h0a.14.14,0,0,1-.126.056.162.162,0,0,1-.165-.118.37.37,0,0,1-.016-.124A.364.364,0,0,1,7.24,7a.162.162,0,0,1,.165-.119.139.139,0,0,1,.126.058h0V6.9a.01.01,0,0,1,.01-.01h.093a.01.01,0,0,1,.01.01v.446a.2.2,0,0,1-.227.223A.241.241,0,0,1,7.242,7.5Zm.279-.3a.227.227,0,0,0,.011-.08.234.234,0,0,0-.011-.08.091.091,0,0,0-.173,0,.234.234,0,0,0-.011.08.227.227,0,0,0,.011.08.091.091,0,0,0,.173,0Z"/><path class="cls-1" d="M7.912,7.254a.484.484,0,0,1,0-.24.2.2,0,0,1,.2-.134.212.212,0,0,1,.168.076.01.01,0,0,1,0,.014l-.064.055a.009.009,0,0,1-.014,0,.11.11,0,0,0-.09-.042.089.089,0,0,0-.091.064.286.286,0,0,0-.01.09.293.293,0,0,0,.01.091.089.089,0,0,0,.091.063.11.11,0,0,0,.09-.042.009.009,0,0,1,.014,0L8.28,7.3c.005,0,0,.009,0,.014a.214.214,0,0,1-.168.075A.2.2,0,0,1,7.912,7.254Z"/><path class="cls-1" d="M8.362,7.253a.377.377,0,0,1-.017-.119.387.387,0,0,1,.016-.12.215.215,0,0,1,.4,0,.436.436,0,0,1,.016.146.01.01,0,0,1-.011.01h-.3a.005.005,0,0,0-.006.006.113.113,0,0,0,.116.111.147.147,0,0,0,.114-.046.01.01,0,0,1,.015,0l.06.052a.009.009,0,0,1,0,.014.256.256,0,0,1-.2.083A.2.2,0,0,1,8.362,7.253Zm.294-.215a.1.1,0,0,0-.191,0,.123.123,0,0,0-.006.041.005.005,0,0,0,.006.006h.191a.005.005,0,0,0,.006-.006A.123.123,0,0,0,8.656,7.038Z"/><path class="cls-1" d="M9.194,7.377a.01.01,0,0,1-.01-.01v-.28c0-.063-.031-.106-.092-.106A.093.093,0,0,0,9,7.087v.28a.01.01,0,0,1-.01.01H8.9a.01.01,0,0,1-.01-.01V6.9a.01.01,0,0,1,.01-.01h.093A.01.01,0,0,1,9,6.9v.035H9a.15.15,0,0,1,.128-.056.166.166,0,0,1,.168.181v.307a.01.01,0,0,1-.01.01Z"/><path class="cls-1" d="M9.571,7.383c-.1,0-.135-.047-.135-.142V6.985a.005.005,0,0,0-.006-.006H9.4a.01.01,0,0,1-.01-.01V6.9a.01.01,0,0,1,.01-.01H9.43a.005.005,0,0,0,.006-.006V6.752a.01.01,0,0,1,.01-.01h.093a.01.01,0,0,1,.01.01v.133a.005.005,0,0,0,.006.006h.065a.01.01,0,0,1,.01.01v.068a.01.01,0,0,1-.01.01H9.555a.005.005,0,0,0-.006.006v.252c0,.034.014.045.045.045h.025a.01.01,0,0,1,.01.01v.081a.01.01,0,0,1-.01.01Z"/><path class="cls-1" d="M9.733,7.253a.377.377,0,0,1-.017-.119.387.387,0,0,1,.016-.12.215.215,0,0,1,.4,0,.436.436,0,0,1,.016.146.01.01,0,0,1-.011.01h-.3a.005.005,0,0,0-.006.006.113.113,0,0,0,.116.111.147.147,0,0,0,.114-.046.01.01,0,0,1,.015,0l.06.052a.009.009,0,0,1,0,.014.256.256,0,0,1-.2.083A.2.2,0,0,1,9.733,7.253Zm.294-.215a.1.1,0,0,0-.191,0,.123.123,0,0,0-.006.041.005.005,0,0,0,.006.006h.191a.005.005,0,0,0,.006-.006A.123.123,0,0,0,10.027,7.038Z"/><path class="cls-1" d="M10.267,7.377a.01.01,0,0,1-.01-.01V6.9a.01.01,0,0,1,.01-.01h.093a.01.01,0,0,1,.01.01v.041h0A.139.139,0,0,1,10.5,6.88a.147.147,0,0,1,.1.04c.005.005.006.009,0,.014L10.547,7a.009.009,0,0,1-.014,0,.131.131,0,0,0-.072-.023c-.064,0-.092.045-.092.123v.263a.01.01,0,0,1-.01.01Z"/></g></svg>