<svg xmlns="http://www.w3.org/2000/svg" viewBox="0 0 16 16"><defs><style>.cls-1{fill:#231f20;}</style></defs><title>campus</title><g id="Layer_1" data-name="Layer 1"><path class="cls-1" d="M7.884,3.374V.1L.119,2.633V15.887H15.881V4.962ZM5.116,14.786H3.154V11.2H5.116Zm1.667,0H6V10.315H2.273v4.471H1.22V3.431L6.783,1.613V14.786Zm1.1,0V4.5l6.9,1.37v5.675h-.964v.881h.964V13.2H12.563v.881H14.78v.708Z"/><path class="cls-1" d="M13.74,7.164H9.011v2.858H13.74Zm-.881,1.977H9.892v-1.1h2.967Z"/><path class="cls-1" d="M4.135,4.4A1.379,1.379,0,1,0,5.514,5.777,1.381,1.381,0,0,0,4.135,4.4Zm0,1.878a.5.5,0,1,1,.5-.5A.5.5,0,0,1,4.135,6.275Z"/></g></svg>