<svg xmlns="http://www.w3.org/2000/svg" viewBox="0 0 16 16"><defs><style>.cls-1{fill:#231f20;}</style></defs><title>contact-card</title><g id="Layer_1" data-name="Layer 1"><path class="cls-1" d="M13.129,5.886H8.107v.882h5.023Zm0,1.759H8.107v.882h5.023ZM10.5,9.389H8.107v.882H10.5ZM6.112,8.2l-.523-.21A.913.913,0,0,0,6.049,7.2v-.74a1.442,1.442,0,1,0-2.883,0V7.2a.914.914,0,0,0,.464.794L3.107,8.2a1.008,1.008,0,0,0-.64.943v1.477a.52.52,0,0,0,.519.52H6.23a.52.52,0,0,0,.518-.52V9.142A1.01,1.01,0,0,0,6.112,8.2ZM3.95,6.459a.657.657,0,1,1,1.315,0V7.2a.129.129,0,0,1-.068.114l-.433.235a.327.327,0,0,1-.313,0l-.433-.235A.129.129,0,0,1,3.95,7.2Zm2.014,3.9H3.251V9.144A.227.227,0,0,1,3.4,8.932l1.223-.484,1.2.482a.228.228,0,0,1,.143.212Z"/><path class="cls-1" d="M15.091,2.174V13.826H.894V2.174h14.2m0-.9H.894a.9.9,0,0,0-.9.9V13.826a.9.9,0,0,0,.9.9h14.2a.9.9,0,0,0,.9-.9V2.174a.9.9,0,0,0-.9-.9Z"/></g></svg>