<svg xmlns="http://www.w3.org/2000/svg" viewBox="0 0 16 16"><defs><style>.cls-1{fill:#010101;}</style></defs><title>integrations_1</title><g id="Layer_1" data-name="Layer 1"><path class="cls-1" d="M15.807.327a.658.658,0,0,0-.931,0l-1.45,1.451a4.413,4.413,0,0,0-5.942.3l-.856.856a.726.726,0,0,0,0,1.027l5.462,5.462a.726.726,0,0,0,1.027,0l.856-.856a4.445,4.445,0,0,0,.376-5.845l1.459-1.459A.658.658,0,0,0,15.807.327Zm-2.766,7.3L12.6,8.07,7.976,3.444l.439-.439a3.142,3.142,0,0,1,4.443,0l.183.183A3.145,3.145,0,0,1,13.041,7.631ZM8.873,8.916,7.652,10.137,6,8.486,7.234,7.252A.658.658,0,0,0,6.3,6.321L5.069,7.554l-.976-.976a.726.726,0,0,0-1.027,0l-.856.856a4.445,4.445,0,0,0-.376,5.845L.375,14.74a.658.658,0,1,0,.931.931l1.451-1.45a4.413,4.413,0,0,0,5.942-.3l.856-.856a.726.726,0,0,0,0-1.027l-.972-.972L9.8,9.847a.658.658,0,0,0-.931-.931ZM7.767,12.992a3.141,3.141,0,0,1-4.443,0l-.183-.183a3.145,3.145,0,0,1,0-4.443l.439-.439,4.626,4.626Z"/></g></svg>