<svg xmlns="http://www.w3.org/2000/svg" viewBox="0 0 16 16"><defs><style>.cls-1{fill:#231f20;}</style></defs><title>location</title><g id="Layer_1" data-name="Layer 1"><path class="cls-1" d="M13.209,3.462a5.616,5.616,0,0,0-3-3.021A5.5,5.5,0,0,0,8.01,0a5.563,5.563,0,0,0-2.2.441,5.633,5.633,0,0,0-3.02,3.021,5.58,5.58,0,0,0-.442,2.209A5,5,0,0,0,2.6,7.253a6.927,6.927,0,0,0,.656,1.435L7.07,15.33A1.107,1.107,0,0,0,8,16.01a1.151,1.151,0,0,0,.95-.681l3.8-6.623a6.864,6.864,0,0,0,.656-1.437,5.153,5.153,0,0,0,.245-1.6A5.583,5.583,0,0,0,13.209,3.462ZM8,8.481A2.831,2.831,0,1,1,10.831,5.65,2.831,2.831,0,0,1,8,8.481Z"/></g></svg>