<svg xmlns="http://www.w3.org/2000/svg" viewBox="0 0 16 16"><defs><style>.cls-1{fill:#231f20;}</style></defs><title>stamp</title><g id="Layer_1" data-name="Layer 1"><path class="cls-1" d="M15.348,3.308h.091a.435.435,0,0,0,.435-.435V1.5a.435.435,0,0,0-.608-.4A.519.519,0,0,1,14.558.56a.435.435,0,0,0-.435-.435H13.108a.5.5,0,0,0-.435.507.509.509,0,0,1-.508.508A.529.529,0,0,1,11.657.56a.435.435,0,0,0-.435-.435H10.207a.5.5,0,0,0-.435.507.509.509,0,0,1-.508.508A.529.529,0,0,1,8.755.56.435.435,0,0,0,8.32.125H7.306a.5.5,0,0,0-.435.507.509.509,0,0,1-.508.508A.529.529,0,0,1,5.855.56.435.435,0,0,0,5.419.125H4.4a.5.5,0,0,0-.435.507.509.509,0,0,1-.508.508A.529.529,0,0,1,2.953.56.435.435,0,0,0,2.518.125H1.5a.5.5,0,0,0-.435.507.509.509,0,0,1-.508.508.435.435,0,0,0-.435.435V2.93a.435.435,0,0,0,.3.415.49.49,0,0,1,0,.943.435.435,0,0,0-.3.414V5.831a.435.435,0,0,0,.3.414.5.5,0,0,1,.358.472.5.5,0,0,1-.358.472.435.435,0,0,0-.3.414V8.732a.435.435,0,0,0,.3.414.49.49,0,0,1,0,.944.435.435,0,0,0-.3.414v1.129a.435.435,0,0,0,.3.415.49.49,0,0,1,0,.943.435.435,0,0,0-.3.414V14.76A.435.435,0,0,0,.56,15.2a.5.5,0,0,1,.473.369.436.436,0,0,0,.417.311H2.571a.435.435,0,0,0,.417-.312.5.5,0,0,1,.946,0,.435.435,0,0,0,.417.312H5.472a.435.435,0,0,0,.417-.312.5.5,0,0,1,.946,0,.436.436,0,0,0,.417.311H8.373a.436.436,0,0,0,.417-.311.5.5,0,0,1,.946,0,.436.436,0,0,0,.417.311h1.121a.435.435,0,0,0,.417-.312.5.5,0,0,1,.946,0,.435.435,0,0,0,.417.312h1.121a.435.435,0,0,0,.417-.312.5.5,0,0,1,.674-.326.435.435,0,0,0,.608-.4V13.463a.435.435,0,0,0-.435-.435h-.091a.508.508,0,1,1,0-1.017h.091a.435.435,0,0,0,.435-.435V10.562a.435.435,0,0,0-.435-.435h-.091a.508.508,0,1,1,0-1.016h.091a.435.435,0,0,0,.435-.435V7.66a.435.435,0,0,0-.435-.435h-.091a.508.508,0,1,1,0-1.016h.091a.435.435,0,0,0,.435-.435V4.759a.435.435,0,0,0-.435-.435h-.091a.508.508,0,1,1,0-1.017ZM15,5.151v.231a1.379,1.379,0,0,0,0,2.67v.231a1.379,1.379,0,0,0,0,2.67v.231a1.379,1.379,0,0,0,0,2.671v.471A1.352,1.352,0,0,0,13.892,15h-.554a1.353,1.353,0,0,0-2.347,0h-.554A1.352,1.352,0,0,0,8.09,15H7.536a1.352,1.352,0,0,0-2.347,0H4.635a1.353,1.353,0,0,0-2.347,0H1.734A1.36,1.36,0,0,0,1,14.4v-.713a1.355,1.355,0,0,0,0-2.327v-.574A1.354,1.354,0,0,0,1,8.455V7.88A1.354,1.354,0,0,0,1,5.554V4.979A1.355,1.355,0,0,0,1,2.652V1.94A1.385,1.385,0,0,0,1.879,1h.252a1.381,1.381,0,0,0,1.33,1.016A1.369,1.369,0,0,0,4.78,1h.253a1.381,1.381,0,0,0,1.33,1.016A1.369,1.369,0,0,0,7.681,1h.252a1.381,1.381,0,0,0,1.33,1.016A1.369,1.369,0,0,0,10.582,1h.252a1.381,1.381,0,0,0,1.33,1.016A1.369,1.369,0,0,0,13.483,1h.253A1.382,1.382,0,0,0,15,2.01v.471a1.379,1.379,0,0,0,0,2.671Z"/><path class="cls-1" d="M12.591,3.144H3.153a.326.326,0,0,0-.326.326v9.438a.326.326,0,0,0,.326.326h9.438a.326.326,0,0,0,.326-.326V3.47A.326.326,0,0,0,12.591,3.144Zm-.326.653V5.279l-.688-.94a.305.305,0,0,0-.279-.133.327.327,0,0,0-.265.159L7.555,10.2,5.835,7.9a.326.326,0,0,0-.25-.131.341.341,0,0,0-.258.113L3.479,10.033V3.8ZM3.479,12.582v-1.56A.3.3,0,0,0,3.509,11L5.556,8.62l1.769,2.362a.319.319,0,0,0,.278.13.327.327,0,0,0,.263-.159l3.474-5.832.824,1.125a.326.326,0,0,0,.1.089v6.246Z"/><path class="cls-1" d="M5.329,6.857a1.4,1.4,0,1,0-1.4-1.4A1.4,1.4,0,0,0,5.329,6.857Zm0-2.149a.748.748,0,1,1-.748.748A.749.749,0,0,1,5.329,4.708Z"/></g></svg>