<svg xmlns="http://www.w3.org/2000/svg" viewBox="0 0 16 16"><title>activity-regis</title><g id="Layer_1" data-name="Layer 1"><path d="M11.791,14.044l-.48-.412-1.265-1.266a.607.607,0,0,1,.858-.858l.853.854L14.015,10.1a.607.607,0,0,1,.858.858ZM10.755,4.277A3.612,3.612,0,1,0,7.143,7.889,3.616,3.616,0,0,0,10.755,4.277Zm-1.213,0a2.4,2.4,0,1,1-2.4-2.4A2.4,2.4,0,0,1,9.542,4.277Zm-.02,10.346a.606.606,0,0,0-.606-.607H3.605a.691.691,0,0,1-.69-.689V10.4a1.075,1.075,0,0,1,.689-1L7.143,8.058l3.666,1.391a.607.607,0,0,0,.431-1.134L7.143,6.76,3.173,8.267A2.292,2.292,0,0,0,1.7,10.4v2.928a1.9,1.9,0,0,0,1.9,1.9H8.916A.606.606,0,0,0,9.522,14.623Z"/></g></svg>