<svg width="16" height="16" viewBox="0 0 16 16" fill="none" xmlns="http://www.w3.org/2000/svg">
<path d="M10.3181 14.3704H5.00558C4.84904 14.3699 4.69909 14.3075 4.5885 14.1967C4.4779 14.086 4.41567 13.936 4.41541 13.7796V10.8545C4.41742 10.6592 4.4781 10.469 4.58957 10.3086C4.70105 10.1481 4.85818 10.0249 5.04059 9.95477L8.5416 8.62617L12.1726 10.0038C12.3034 10.0532 12.4458 10.0628 12.582 10.0313C12.7182 9.99985 12.842 9.92878 12.9378 9.82705C13.0336 9.72533 13.0971 9.59751 13.1202 9.45975C13.1434 9.32199 13.1252 9.18047 13.0679 9.05304C13.0304 8.96827 12.9763 8.89187 12.9088 8.82834C12.8413 8.76481 12.7617 8.71544 12.6748 8.68316L10.5162 7.85541C11.1991 7.42775 11.7242 6.78966 12.0123 6.03748C12.3004 5.28529 12.3358 4.45985 12.1132 3.68579C11.8906 2.91172 11.422 2.23104 10.7782 1.74654C10.1345 1.26203 9.35048 1 8.5446 1C7.73871 1 6.9547 1.26203 6.31094 1.74654C5.66718 2.23104 5.19862 2.91172 4.97601 3.68579C4.75339 4.45985 4.7888 5.28529 5.0769 6.03748C5.365 6.78966 5.89014 7.42775 6.57303 7.85541L4.53844 8.62717C4.08705 8.79989 3.69852 9.10508 3.42394 9.50262C3.14935 9.90016 3.00156 10.3714 3 10.8545V13.7806C3 14.3109 3.21077 14.8194 3.58596 15.1944C3.96114 15.5694 4.46999 15.78 5.00058 15.78H10.3181C10.5054 15.78 10.685 15.7056 10.8175 15.5733C10.9499 15.4409 11.0243 15.2614 11.0243 15.0742C11.0243 14.887 10.9499 14.7075 10.8175 14.5751C10.685 14.4428 10.5054 14.3684 10.3181 14.3684V14.3704ZM6.24593 4.73336C6.24593 4.2786 6.38087 3.83405 6.63367 3.45593C6.88647 3.07781 7.24578 2.78311 7.66617 2.60908C8.08656 2.43505 8.54915 2.38951 8.99543 2.47823C9.44172 2.56695 9.85166 2.78594 10.1734 3.1075C10.4952 3.42907 10.7143 3.83876 10.8031 4.28478C10.8918 4.7308 10.8463 5.19312 10.6721 5.61326C10.498 6.0334 10.2031 6.3925 9.82478 6.64515C9.44643 6.89781 9.00163 7.03266 8.5466 7.03266C7.93642 7.03266 7.35124 6.79041 6.91978 6.35921C6.48833 5.928 6.24593 5.34317 6.24593 4.73336Z" fill="black"/>
<path d="M15.2381 10.5969C15.1054 10.4644 14.9257 10.39 14.7384 10.39C14.551 10.39 14.3713 10.4644 14.2386 10.5969L12.0539 12.7871L11.2714 12.0043C11.2058 11.9386 11.1279 11.8865 11.0421 11.8509C10.9564 11.8153 10.8645 11.797 10.7717 11.797C10.6789 11.797 10.587 11.8153 10.5013 11.8509C10.4155 11.8865 10.3376 11.9386 10.272 12.0043C10.2064 12.07 10.1543 12.1481 10.1188 12.2339C10.0833 12.3198 10.065 12.4119 10.065 12.5048C10.065 12.5978 10.0833 12.6898 10.1188 12.7757C10.1543 12.8615 10.2064 12.9396 10.272 13.0053L11.5422 14.2785L12.0919 14.75L15.2371 11.5979C15.3029 11.5323 15.3551 11.4544 15.3908 11.3685C15.4265 11.2827 15.4449 11.1906 15.445 11.0976C15.4451 11.0046 15.4269 10.9126 15.3914 10.8266C15.3558 10.7407 15.3037 10.6627 15.2381 10.5969Z" fill="black"/>
</svg>
