<svg xmlns="http://www.w3.org/2000/svg" viewBox="0 0 16 16"><title>activity-regis</title><g id="Layer_1" data-name="Layer 1"><path d="M8.92,13.92H3.61A.59.59,0,0,1,3,13.33V10.4a1,1,0,0,1,.62-.91l3.5-1.33,3.63,1.38a.72.72,0,0,0,.54,0,.66.66,0,0,0,.37-.4.68.68,0,0,0,0-.54.73.73,0,0,0-.4-.37L9.11,7.4a3.71,3.71,0,1,0-3.94,0l-2,.77A2.4,2.4,0,0,0,1.6,10.4v2.93a2,2,0,0,0,2,2H8.92a.7.7,0,0,0,.7-.71A.7.7,0,0,0,8.92,13.92ZM4.84,4.28a2.3,2.3,0,1,1,2.3,2.3A2.31,2.31,0,0,1,4.84,4.28Z"/><path d="M14.94,10a.72.72,0,0,0-1,0l-2.18,2.19L11,11.44a.69.69,0,0,0-1,0,.7.7,0,0,0,0,1l1.27,1.27.55.47L14.94,11A.7.7,0,0,0,14.94,10Z"/></g></svg>