<svg xmlns="http://www.w3.org/2000/svg" viewBox="0 0 16 16"><title>activity-regis</title><g id="Layer_1" data-name="Layer 1"><path d="M8.916,13.917H3.605a.592.592,0,0,1-.59-.591V10.4a.975.975,0,0,1,.625-.9l3.5-1.329,3.63,1.378a.707.707,0,0,0,.895-.951.694.694,0,0,0-.393-.37L9.114,7.4a3.712,3.712,0,1,0-3.942,0l-2.034.772A2.394,2.394,0,0,0,1.6,10.4v2.927a2,2,0,0,0,2,2H8.916a.706.706,0,1,0,0-1.412ZM4.845,4.277a2.3,2.3,0,1,1,2.3,2.3A2.3,2.3,0,0,1,4.845,4.277Z"/><path d="M14.943,10.032a.708.708,0,0,0-1,0L11.757,12.22l-.783-.782a.706.706,0,1,0-1,1l1.271,1.272.55.471,3.147-3.149A.706.706,0,0,0,14.943,10.032Z"/></g></svg>