<svg xmlns="http://www.w3.org/2000/svg" viewBox="0 0 16 16"><defs><style>.cls-1{fill:#010101;}</style></defs><title>add-household</title><g id="Layer_1" data-name="Layer 1"><path class="cls-1" d="M15.4,7.79,9.082.61a1.577,1.577,0,0,0-2.367,0L.4,7.79A1.51,1.51,0,0,0,.143,9.451a1.533,1.533,0,0,0,1.437.9h.574v3.925A1.587,1.587,0,0,0,3.693,15.9h8.423a1.62,1.62,0,0,0,1.579-1.623V10.348h.523a1.532,1.532,0,0,0,1.437-.9A1.509,1.509,0,0,0,15.4,7.79ZM7.917,1.637,14.243,8.8c0,.007-.007,0-.026,0H12.141v5.479c0,.013-.012.07-.025.07H3.693c-.013,0,.015-.057.015-.07V8.855H1.587c-.006,0-.023-.021-.015-.038l6.314-7.18"/><path class="cls-1" d="M9.674,8.285H8.633V7.222a.759.759,0,0,0-.755-.777H7.867a.786.786,0,0,0-.787.777V8.285H6.123a.75.75,0,0,0-.777.744v.016a.791.791,0,0,0,.777.793h.956v.934a.8.8,0,0,0,.8.777H7.867a.768.768,0,0,0,.766-.777V9.839H9.674a.805.805,0,0,0,.777-.809v.016A.763.763,0,0,0,9.674,8.285Z"/></g></svg>