<svg xmlns="http://www.w3.org/2000/svg" viewBox="0 0 16 16"><title>advance</title><g id="Layer_1" data-name="Layer 1"><path d="M3.8,14.31a3.38,3.38,0,1,1,3.38-3.38A3.39,3.39,0,0,1,3.8,14.31Zm0-5.76a2.38,2.38,0,1,0,2.38,2.38A2.39,2.39,0,0,0,3.8,8.55Z"/><path d="M12.27,14.31a3.38,3.38,0,1,1,3.38-3.38A3.38,3.38,0,0,1,12.27,14.31Z"/><path d="M13.46,2.05a.75.75,0,0,0-.54-.31.69.69,0,0,0-.75.61L12,3.72A5,5,0,0,0,8.15,1.57c-2.89,0-4.9,3.24-5,3.38a.74.74,0,0,0,.25,1,.7.7,0,0,0,.39.11.74.74,0,0,0,.64-.35S6.13,3.08,8.15,3.07h0a3.55,3.55,0,0,1,2.62,1.52L9.42,4.33a.7.7,0,0,0-.75.61.78.78,0,0,0,.61.84l3,.55h.08a.84.84,0,0,0,.92-.74l.35-3A.67.67,0,0,0,13.46,2.05Z"/></g></svg>