<svg width="16" height="16" viewBox="0 0 16 16" fill="none" xmlns="http://www.w3.org/2000/svg">
<path d="M3.766 14.37C3.09725 14.37 2.44353 14.1716 1.88751 13.8C1.33148 13.4284 0.898134 12.9001 0.642264 12.2821C0.386393 11.6641 0.319496 10.9841 0.450034 10.3281C0.580572 9.67205 0.90268 9.06947 1.37562 8.59656C1.84856 8.12365 2.45109 7.80164 3.10701 7.67127C3.76292 7.54089 4.44276 7.608 5.06054 7.86412C5.67832 8.12023 6.20629 8.55384 6.57768 9.11011C6.94907 9.66637 7.14719 10.3203 7.147 10.9892C7.14567 11.8856 6.789 12.7449 6.1552 13.3787C5.5214 14.0124 4.66219 14.3689 3.766 14.37ZM3.766 8.60764C3.29508 8.60764 2.83474 8.74732 2.44318 9.00901C2.05163 9.2707 1.74645 9.64265 1.56624 10.0778C1.38603 10.513 1.33887 10.9918 1.43075 11.4538C1.52262 11.9158 1.74939 12.3402 2.08237 12.6732C2.41536 13.0063 2.83962 13.2331 3.30149 13.325C3.76335 13.4169 4.24209 13.3697 4.67716 13.1895C5.11224 13.0092 5.4841 12.704 5.74572 12.3123C6.00735 11.9207 6.147 11.4602 6.147 10.9892C6.14594 10.3579 5.89474 9.75275 5.44845 9.30635C5.00215 8.85995 4.39715 8.6087 3.766 8.60764Z" fill="black"/>
<path d="M12.234 14.37C11.5653 14.37 10.9115 14.1716 10.3555 13.8C9.79948 13.4284 9.36613 12.9001 9.11026 12.2821C8.85439 11.6641 8.7875 10.9841 8.91803 10.3281C9.04857 9.67205 9.37068 9.06947 9.84362 8.59656C10.3166 8.12365 10.9191 7.80164 11.575 7.67127C12.2309 7.54089 12.9108 7.608 13.5285 7.86412C14.1463 8.12023 14.6743 8.55384 15.0457 9.11011C15.4171 9.66637 15.6152 10.3203 15.615 10.9892C15.6137 11.8856 15.257 12.7449 14.6232 13.3787C13.9894 14.0124 13.1302 14.3689 12.234 14.37Z" fill="black"/>
<path d="M13.428 2.10111C13.3639 2.01606 13.2833 1.94483 13.191 1.89172C13.0988 1.83861 12.9967 1.8047 12.891 1.79204C12.7106 1.77542 12.5308 1.83004 12.3901 1.94424C12.2494 2.05844 12.1589 2.22315 12.138 2.40318L11.976 3.7735C11.5373 3.14587 10.9612 2.62659 10.2916 2.25515C9.62205 1.88371 8.87661 1.66991 8.11199 1.63C5.229 1.645 3.212 4.86876 3.127 5.00579C3.02263 5.17531 2.98987 5.37935 3.03591 5.57302C3.08195 5.7667 3.20302 5.93415 3.3725 6.03854C3.45641 6.09023 3.54968 6.12487 3.64698 6.14051C3.74429 6.15614 3.84371 6.15245 3.93959 6.12965C4.13322 6.0836 4.30063 5.96249 4.405 5.79298C4.421 5.76597 6.09299 3.14035 8.12099 3.13035H8.13299C8.65496 3.17474 9.16081 3.3333 9.61476 3.59481C10.0687 3.85632 10.4597 4.21439 10.76 4.64371L9.389 4.38865C9.20841 4.37153 9.02833 4.42613 8.88764 4.54066C8.74695 4.65518 8.65692 4.82045 8.63699 5.00079C8.61725 5.19129 8.66907 5.38232 8.78238 5.5367C8.89569 5.69108 9.06238 5.79776 9.25 5.83599L12.213 6.38912L12.294 6.40112C12.5142 6.42165 12.7337 6.355 12.9053 6.2155C13.0769 6.07599 13.187 5.87474 13.212 5.65495L13.571 2.63824C13.5933 2.44752 13.5422 2.25546 13.428 2.10111Z" fill="black"/>
</svg>
