<svg xmlns="http://www.w3.org/2000/svg" viewBox="0 0 16 16">
  <g id="Layer_1" data-name="Layer 1">
    <path d="M3.8,14.311a3.381,3.381,0,1,1,3.381-3.38A3.385,3.385,0,0,1,3.8,14.311Zm0-5.761a2.381,2.381,0,1,0,2.381,2.381A2.385,2.385,0,0,0,3.8,8.55Z"/>
    <path d="M12.268,14.311a3.381,3.381,0,1,1,3.381-3.38A3.385,3.385,0,0,1,12.268,14.311Z"/>
    <path d="M13.462,2.045a.79.79,0,0,0-.537-.309.694.694,0,0,0-.753.611l-.162,1.37A5.035,5.035,0,0,0,8.146,1.574c-2.883.015-4.9,3.238-4.985,3.375a.75.75,0,0,0,1.278.787c.016-.027,1.688-2.652,3.716-2.662h.012a3.576,3.576,0,0,1,2.627,1.513L9.423,4.332a.691.691,0,0,0-.752.612.771.771,0,0,0,.613.835l2.963.553.081.012a.845.845,0,0,0,.918-.746l.359-3.016A.755.755,0,0,0,13.462,2.045Z"/>
  </g>
</svg>
