<svg width="16" height="16" viewBox="0 0 16 16" fill="none" xmlns="http://www.w3.org/2000/svg">
<path d="M2.6 14.2V5.6H13.5V14.2H2.6ZM13.4 1.8H12.6V0.199997H11V1.8H4.9V0.199997H3.3V1.8H2.6C1.7 1.8 1 2.5 1 3.3V14.2C1 15.1 1.7 15.8 2.6 15.8H13.5C14.4 15.8 15.1 15.1 15.1 14.2V3.3C15 2.5 14.3 1.8 13.4 1.8Z" fill="black"/>
<path d="M8 12.6L7.6 12.2C6.1 10.8 5.1 10 5.1 8.9C5.1 8 5.8 7.3 6.7 7.3C7.2 7.3 7.7 7.5 8 7.9C8.3 7.5 8.8 7.3 9.3 7.3C10.2 7.3 10.9 8 10.9 8.9C10.9 10 9.9 10.9 8.4 12.2L8 12.6Z" fill="black"/>
</svg>
