<svg xmlns="http://www.w3.org/2000/svg" viewBox="0 0 16 16"><title>anniversary</title><g id="Layer_1" data-name="Layer 1"><path d="M13.444,14.222H2.556V5.667H13.444Zm0-12.444h-.777V.222H11.111V1.778H4.889V.222H3.333V1.778H2.556A1.548,1.548,0,0,0,1.008,3.333L1,14.222a1.555,1.555,0,0,0,1.556,1.556H13.444A1.56,1.56,0,0,0,15,14.222V3.333A1.56,1.56,0,0,0,13.444,1.778Z" fill="#010101"/><path d="M8,12.949l-.475-.433c-1.686-1.529-2.8-2.537-2.8-3.775a1.784,1.784,0,0,1,1.8-1.8A1.959,1.959,0,0,1,8,7.625,1.959,1.959,0,0,1,9.473,6.94a1.784,1.784,0,0,1,1.8,1.8c0,1.238-1.113,2.246-2.8,3.779Z" fill="#010101"/></g></svg>