<svg xmlns="http://www.w3.org/2000/svg" viewBox="0 0 16 16"><title>anniversary</title><g id="Layer_1" data-name="Layer 1"><path d="M13.444,14.222H2.556V5.667H13.444Zm0-12.444h-.777V.222H11.111V1.778H4.889V.222H3.333V1.778H2.556A1.548,1.548,0,0,0,1.008,3.333L1,14.222a1.555,1.555,0,0,0,1.556,1.556H13.444A1.56,1.56,0,0,0,15,14.222V3.333A1.56,1.56,0,0,0,13.444,1.778Z"/><path d="M8,12.606l-.421-.383C6.085,10.869,5.1,9.975,5.1,8.878a1.581,1.581,0,0,1,1.595-1.6A1.736,1.736,0,0,1,8,7.889a1.736,1.736,0,0,1,1.306-.607,1.581,1.581,0,0,1,1.6,1.6c0,1.1-.986,1.991-2.48,3.348Z"/></g></svg>