<svg xmlns="http://www.w3.org/2000/svg" viewBox="0 0 16 16">
  <title>app-list</title>
  <g id="Layer_1" data-name="Layer 1">
    <g>
      <g>
        <rect x="0.42" y="1.696" width="2.811" height="2.811" rx="0.43" ry="0.43" fill="#010101"/>
        <path d="M14.688,3.906H5.41a.844.844,0,0,1,0-1.687h9.278a.844.844,0,0,1,0,1.687Z" fill="#010101"/>
      </g>
      <g>
        <rect x="0.42" y="6.754" width="2.811" height="2.811" rx="0.43" ry="0.43" fill="#010101"/>
        <path d="M14.688,9H5.41a.844.844,0,0,1,0-1.687h9.278a.844.844,0,0,1,0,1.687Z" fill="#010101"/>
      </g>
      <g>
        <rect x="0.42" y="11.811" width="2.811" height="2.811" rx="0.43" ry="0.43" fill="#010101"/>
        <path d="M14.688,14.06H5.41a.843.843,0,0,1,0-1.686h9.278a.843.843,0,0,1,0,1.686Z" fill="#010101"/>
      </g>
    </g>
  </g>
</svg>
