<svg width="16" height="16" viewBox="0 0 16 16" fill="none" xmlns="http://www.w3.org/2000/svg">
<path d="M7.69127 4.64768C7.57887 3.60569 7.3856 2.57401 7.11318 1.56199C6.91316 1.30002 6.60111 1.20603 6.60111 0.837062C6.63764 0.715633 6.71233 0.609202 6.81412 0.533545C6.9159 0.457888 7.03936 0.417031 7.16619 0.417031C7.29303 0.417031 7.41648 0.457888 7.51827 0.533545C7.62005 0.609202 7.69474 0.715633 7.73127 0.837062C7.94572 1.87999 8.04632 2.94311 8.03131 4.00774C8.03131 4.00774 8.27835 1.465 9.68055 0.615085C10.843 0.116622 12.1335 -0.00132923 13.3671 0.278119C13.3671 0.278119 12.647 2.57789 10.7727 3.04484C9.77217 3.24428 8.84566 3.71468 8.09432 4.4047L8.11833 4.65868C9.46752 4.60468 9.96659 3.67877 11.9389 4.52169C12.7169 4.83291 13.3759 5.3831 13.821 6.09294C14.2661 6.80278 14.4741 7.63559 14.4152 8.47129C14.4152 10.5711 12.565 14.9706 9.60254 15.8115C9.20748 15.9245 8.49338 15.5716 7.99531 15.5716C7.49724 15.5716 6.83214 16.0285 6.28907 15.8115C3.57168 14.7287 1.57539 10.4521 1.57539 8.47129C1.5644 7.63089 1.79075 6.80444 2.22844 6.08687C2.66612 5.3693 3.2974 4.78972 4.04975 4.4147C5.63597 3.76577 6.41808 4.53469 7.69127 4.64768Z" fill="black"/>
</svg>
