<svg width="16" height="16" viewBox="0 0 16 16" fill="none" xmlns="http://www.w3.org/2000/svg">
<path d="M7.69127 4.64768C7.57887 3.60569 7.3856 2.57402 7.11318 1.562C6.91316 1.30002 6.60111 1.20603 6.60111 0.83707C6.63764 0.71564 6.71233 0.60921 6.81412 0.533552C6.9159 0.457895 7.03936 0.417039 7.16619 0.417039C7.29303 0.417039 7.41648 0.457895 7.51827 0.533552C7.62005 0.60921 7.69474 0.71564 7.73127 0.83707C7.94572 1.88 8.04632 2.94312 8.03131 4.00775C8.03131 4.00775 8.27835 1.46501 9.68055 0.615092C10.843 0.11663 12.1335 -0.0013216 13.3671 0.278127C13.3671 0.278127 12.647 2.57789 10.7727 3.04485C9.77217 3.24429 8.84566 3.71469 8.09432 4.40471L8.11833 4.65868C9.46752 4.60469 9.96659 3.67878 11.9389 4.5217C12.7169 4.83291 13.3759 5.38311 13.821 6.09295C14.2661 6.80279 14.4741 7.6356 14.4152 8.4713C14.4152 10.5711 12.565 14.9706 9.60254 15.8116C9.20748 15.9245 8.49338 15.5716 7.99531 15.5716C7.49724 15.5716 6.83214 16.0285 6.28907 15.8116C3.57168 14.7287 1.57539 10.4521 1.57539 8.4713C1.5644 7.6309 1.79075 6.80445 2.22844 6.08688C2.66612 5.36931 3.2974 4.78972 4.04975 4.41471C5.63597 3.76577 6.41808 4.5347 7.69127 4.64768Z" fill="black"/>
</svg>
