<svg xmlns="http://www.w3.org/2000/svg" viewBox="0 0 16 16"><title>apple</title><g id="Layer_1" data-name="Layer 1"><path d="M7.47,4.63a20.84,20.84,0,0,0-.58-3.08c-.21-.26-.52-.36-.52-.73a.6.6,0,0,1,1.14,0A14.88,14.88,0,0,1,7.81,4S8.05,1.45,9.45.6A6,6,0,0,1,13.14.26S12.42,2.56,10.55,3A5.55,5.55,0,0,0,7.87,4.39l0,.25c1.35,0,1.85-1,3.82-.13a4,4,0,0,1,2.48,4c0,2.09-1.85,6.5-4.81,7.34-.4.11-1.11-.24-1.61-.24s-1.16.46-1.71.24c-2.71-1.08-4.71-5.36-4.71-7.34A4.47,4.47,0,0,1,3.82,4.4C5.41,3.75,6.19,4.52,7.47,4.63Z"/></g></svg>