<svg xmlns="http://www.w3.org/2000/svg" viewBox="0 0 16 16"><title>bars</title><g id="Layer_1" data-name="Layer 1"><path d="M1.334.5A.833.833,0,0,0,.5,1.333V14.667a.834.834,0,0,0,1.667,0V1.333A.834.834,0,0,0,1.334.5ZM5.778,3.278a.833.833,0,0,0-.833.833V14.667a.833.833,0,0,0,1.666,0V4.111A.833.833,0,0,0,5.778,3.278Zm8.888-1.667a.834.834,0,0,0-.833.834V14.667a.834.834,0,0,0,1.667,0V2.445A.833.833,0,0,0,14.666,1.611Zm-4.443,5a.833.833,0,0,0-.834.833v7.223a.834.834,0,0,0,1.667,0V7.444A.834.834,0,0,0,10.223,6.611Z"/></g></svg>