<svg xmlns="http://www.w3.org/2000/svg" viewBox="0 0 16 16"><g id="Layer_1" data-name="Layer 1"><path d="M7.305,7.439,6.2,6.331a2.175,2.175,0,0,0-.31,1.108A2.186,2.186,0,0,0,9.2,9.329L8.087,8.221Z"/><path d="M8.087,5.239a2.175,2.175,0,0,0-1.108.31L8.087,6.657l.782.782L9.977,8.547a2.175,2.175,0,0,0,.31-1.108A2.2,2.2,0,0,0,8.087,5.239Z"/><path d="M15.236,2.485,8.468.28a1.688,1.688,0,0,0-1,0L.8,2.485a.506.506,0,0,0-.4.5V7.7A5.47,5.47,0,0,0,2.5,12.006l4.578,3.508a1.637,1.637,0,0,0,1.892,0l4.578-3.508A5.474,5.474,0,0,0,15.635,7.7V2.986A1.007,1.007,0,0,0,15.236,2.485ZM8.087,10.519a3.08,3.08,0,1,1,3.08-3.08A3.08,3.08,0,0,1,8.087,10.519Z"/></g></svg>