<svg xmlns="http://www.w3.org/2000/svg" viewBox="0 0 16 16"><title>bgcheck-status-expired</title><g id="Layer_1" data-name="Layer 1"><path id="Subtraction_13" data-name="Subtraction 13" d="M8,15.825a1.7,1.7,0,0,1-.946-.3L2.476,12.016A5.47,5.47,0,0,1,.386,7.707V3a.506.506,0,0,1,.4-.5L7.453.29a1.688,1.688,0,0,1,1,0L15.216,2.5a1,1,0,0,1,.4.5V7.707a5.47,5.47,0,0,1-2.09,4.309L8.946,15.524A1.7,1.7,0,0,1,8,15.825Z"/><path d="M8.22,5.238H7.56V7.879L9.871,9.266l.33-.542L8.22,7.549ZM8,10.96a3.521,3.521,0,1,1,3.521-3.521A3.52,3.52,0,0,1,8,10.96ZM8,3.038a4.4,4.4,0,1,0,4.4,4.4A4.4,4.4,0,0,0,8,3.038Z" fill="#fff"/></g></svg>