<svg xmlns="http://www.w3.org/2000/svg" viewBox="0 0 16 16">
  <title>bgcheck-status-pending</title>
  <g id="Layer_1" data-name="Layer 1">
    <path id="Subtraction_10" data-name="Subtraction 10" d="M8.04,15.825a1.7,1.7,0,0,1-.946-.3L2.516,12.016A5.47,5.47,0,0,1,.426,7.707V3a.506.506,0,0,1,.4-.5L7.493.29a1.688,1.688,0,0,1,.995,0L15.256,2.5a1,1,0,0,1,.4.5V7.707a5.47,5.47,0,0,1-2.09,4.309L8.986,15.524A1.7,1.7,0,0,1,8.04,15.825Zm2.7-9.6A1.173,1.173,0,1,0,11.9,7.4h0A1.171,1.171,0,0,0,10.738,6.228Zm-2.847,0A1.173,1.173,0,1,0,9.055,7.4h0A1.171,1.171,0,0,0,7.891,6.228Zm-2.847,0A1.173,1.173,0,1,0,6.209,7.4,1.17,1.17,0,0,0,5.044,6.228Z" fill="#231f20"/>
  </g>
</svg>
