<svg xmlns="http://www.w3.org/2000/svg" viewBox="0 0 16 16">
  <g id="Layer_1" data-name="Layer 1">
    <path d="M15.216,2.49,8.448.285a1.688,1.688,0,0,0-1,0L.784,2.49a.506.506,0,0,0-.4.5V7.7a5.47,5.47,0,0,0,2.09,4.309l4.578,3.508a1.637,1.637,0,0,0,1.892,0l4.578-3.508A5.474,5.474,0,0,0,15.615,7.7V2.991A1.007,1.007,0,0,0,15.216,2.49ZM3.605,8.265A1.237,1.237,0,1,1,4.841,7.029,1.236,1.236,0,0,1,3.605,8.265ZM8,8.265A1.237,1.237,0,1,1,9.236,7.029,1.236,1.236,0,0,1,8,8.265Zm4.395,0a1.237,1.237,0,1,1,1.236-1.236A1.237,1.237,0,0,1,12.4,8.265Z"/>
  </g>
</svg>
