<svg width="16" height="16" viewBox="0 0 16 16" fill="none" xmlns="http://www.w3.org/2000/svg">
<path d="M15.2192 2.50145L8.506 0.300039C8.10521 0.199975 7.80462 0.199975 7.50403 0.300039L0.790804 2.50145C0.590409 2.50145 0.390015 2.70158 0.390015 3.00177V7.70478C0.390015 9.40587 1.19159 11.0069 2.49416 12.0075L7.10324 15.5098C7.40383 15.7099 7.70442 15.81 8.00501 15.81C8.30561 15.81 8.7064 15.7099 8.90679 15.5098L13.5159 12.0075C14.8184 11.0069 15.62 9.40587 15.62 7.70478V3.00177C15.62 2.80164 15.4196 2.60151 15.2192 2.50145ZM4.19751 8.30517C3.49613 8.30517 2.99515 7.70478 2.99515 7.1044C2.99515 6.40395 3.59633 5.90363 4.19751 5.90363C4.8989 5.90363 5.39988 6.50401 5.39988 7.1044C5.50008 7.70478 4.8989 8.30517 4.19751 8.30517ZM8.10521 8.30517C7.40383 8.30517 6.90284 7.70478 6.90284 7.00433C6.90284 6.30388 7.50403 5.80356 8.10521 5.80356C8.80659 5.80356 9.40778 6.30388 9.40778 7.00433C9.40778 7.70478 8.80659 8.30517 8.10521 8.30517ZM11.8125 8.30517C11.1111 8.30517 10.6101 7.70478 10.6101 7.1044C10.6101 6.40395 11.2113 5.90363 11.8125 5.90363C12.5139 5.90363 13.0149 6.50401 13.0149 7.1044C13.1151 7.70478 12.5139 8.30517 11.8125 8.30517Z" fill="black"/>
</svg>
