<svg xmlns="http://www.w3.org/2000/svg" viewBox="0 0 16 16">
  <title>bgcheck-status-notclear</title>
  <g id="Layer_1" data-name="Layer 1">
    <path id="Subtraction_2" data-name="Subtraction 2" d="M8.04,15.825a1.7,1.7,0,0,1-.946-.3L2.516,12.016A5.47,5.47,0,0,1,.426,7.707V3a.506.506,0,0,1,.4-.5L7.493.29a1.688,1.688,0,0,1,.995,0L15.256,2.5a1,1,0,0,1,.4.5V7.707a5.47,5.47,0,0,1-2.09,4.309L8.986,15.524A1.7,1.7,0,0,1,8.04,15.825ZM6.145,4.874a.573.573,0,0,0-.4.2l-.466.47a.63.63,0,0,0-.215.437.7.7,0,0,0,.243.469l1.25,1.257L5.32,8.949a.594.594,0,0,0-.131.827c.014.019.029.038.045.056l.493.5a.625.625,0,0,0,.432.219.689.689,0,0,0,.464-.255l.015-.016L7.873,9.035l1.284,1.294a.611.611,0,0,0,.426.209.632.632,0,0,0,.439-.215l.467-.469A.536.536,0,0,0,10.475,9l-1.29-1.3,1.27-1.277a.681.681,0,0,0,.222-.458.61.61,0,0,0-.2-.425l-.493-.5A.544.544,0,0,0,9.6,4.862.669.669,0,0,0,9.14,5.1L7.871,6.38,6.62,5.126A.728.728,0,0,0,6.145,4.874Z" fill="#231f20"/>
  </g>
</svg>
