<svg width="16" height="16" viewBox="0 0 16 16" fill="none" xmlns="http://www.w3.org/2000/svg">
<path d="M15.2192 2.50143L8.506 0.300024C8.10521 0.19996 7.80462 0.19996 7.50403 0.300024L0.790804 2.50143C0.590409 2.50143 0.390015 2.70156 0.390015 3.00175V7.70477C0.390015 9.40586 1.19159 11.0069 2.49416 12.0075L7.10324 15.5098C7.40383 15.7099 7.70442 15.81 8.00501 15.81C8.30561 15.81 8.7064 15.7099 8.90679 15.5098L13.5159 12.0075C14.8184 11.0069 15.62 9.40586 15.62 7.70477V3.00175C15.62 2.80163 15.4196 2.6015 15.2192 2.50143ZM4.19751 8.30515C3.49613 8.30515 2.99515 7.70477 2.99515 7.10438C2.99515 6.40393 3.59633 5.90361 4.19751 5.90361C4.8989 5.90361 5.39988 6.504 5.39988 7.10438C5.50008 7.70477 4.8989 8.30515 4.19751 8.30515ZM8.10521 8.30515C7.40383 8.30515 6.90284 7.70477 6.90284 7.00432C6.90284 6.30387 7.50403 5.80355 8.10521 5.80355C8.80659 5.80355 9.40778 6.30387 9.40778 7.00432C9.40778 7.70477 8.80659 8.30515 8.10521 8.30515ZM11.8125 8.30515C11.1111 8.30515 10.6101 7.70477 10.6101 7.10438C10.6101 6.40393 11.2113 5.90361 11.8125 5.90361C12.5139 5.90361 13.0149 6.504 13.0149 7.10438C13.1151 7.70477 12.5139 8.30515 11.8125 8.30515Z" fill="black"/>
</svg>
