<svg xmlns="http://www.w3.org/2000/svg" viewBox="0 0 16 16"><title>bgcheck-status-none</title><g id="Layer_1" data-name="Layer 1"><path id="Subtraction_8" data-name="Subtraction 8" d="M8.04,15.825a1.7,1.7,0,0,1-.946-.3L2.516,12.016A5.47,5.47,0,0,1,.426,7.707V3a.506.506,0,0,1,.4-.5L7.493.29a1.688,1.688,0,0,1,.995,0L15.256,2.5a1,1,0,0,1,.4.5V7.707a5.47,5.47,0,0,1-2.09,4.309L8.986,15.524A1.7,1.7,0,0,1,8.04,15.825ZM7.955,4.077a3.508,3.508,0,1,0,3.484,3.507A3.495,3.495,0,0,0,7.955,4.077Zm0,6.113h0a2.61,2.61,0,0,1-2.118-4.1l3.6,3.625a2.548,2.548,0,0,1-1.484.47Zm2.121-1.11h0l-3.6-3.629a2.577,2.577,0,0,1,3.6.659,2.623,2.623,0,0,1,0,2.966Z"/></g></svg>