<svg xmlns="http://www.w3.org/2000/svg" viewBox="0 0 16 16">
  <g id="Layer_1" data-name="Layer 1">
    <g>
      <path d="M5.249,5.515A3.364,3.364,0,0,0,7.98,10.8v0a3.289,3.289,0,0,0,1.913-.606Z"/>
      <path d="M6.07,4.688l4.644,4.679V9.362a3.38,3.38,0,0,0,0-3.824A3.322,3.322,0,0,0,6.07,4.688Z"/>
      <path d="M15.236,2.485,8.468.28a1.688,1.688,0,0,0-1,0L.8,2.485a.506.506,0,0,0-.4.5V7.7A5.47,5.47,0,0,0,2.5,12.006l4.578,3.508a1.637,1.637,0,0,0,1.892,0l4.578-3.508A5.474,5.474,0,0,0,15.635,7.7V2.986A1.007,1.007,0,0,0,15.236,2.485ZM7.98,11.962a4.523,4.523,0,1,1,4.492-4.523A4.507,4.507,0,0,1,7.98,11.962Z"/>
    </g>
  </g>
</svg>
