<svg xmlns="http://www.w3.org/2000/svg" viewBox="0 0 16 16"><g id="Layer_1" data-name="Layer 1"><rect x="7.682" y="8.348" width="0.635" height="0.635"/><rect x="7.682" y="6.443" width="0.635" height="1.27"/><path d="M15.216,2.5,8.448.29a1.688,1.688,0,0,0-1,0L.784,2.5a.506.506,0,0,0-.4.5V7.707a5.47,5.47,0,0,0,2.09,4.309l4.578,3.508a1.637,1.637,0,0,0,1.892,0l4.578-3.508a5.47,5.47,0,0,0,2.09-4.309V3A1,1,0,0,0,15.216,2.5ZM10.942,9.936H5.058a.318.318,0,0,1-.275-.477L7.725,4.377a.318.318,0,0,1,.55,0l2.942,5.082A.318.318,0,0,1,10.942,9.936Z"/></g></svg>