<svg xmlns="http://www.w3.org/2000/svg" viewBox="0 0 16 16"><title>bgcheck-status-unknown</title><g id="Layer_1" data-name="Layer 1"><path d="M15.216,2.5,8.448.29a1.688,1.688,0,0,0-1,0L.784,2.5a.506.506,0,0,0-.4.5V7.707a5.47,5.47,0,0,0,2.09,4.309l4.578,3.508a1.637,1.637,0,0,0,1.892,0l4.578-3.508a5.474,5.474,0,0,0,2.091-4.309V3A1.007,1.007,0,0,0,15.216,2.5ZM8.733,12.42H7.267V10.953H8.733Zm0-2.2H7.267c0-2.383,2.2-2.2,2.2-3.667a1.467,1.467,0,0,0-2.934,0H5.067a2.933,2.933,0,0,1,5.866,0C10.933,8.387,8.733,8.57,8.733,10.22Z"/></g></svg>