<svg xmlns="http://www.w3.org/2000/svg" viewBox="0 0 16 16"><title>bgcheck-status-notclear</title><g id="Layer_1" data-name="Layer 1"><path id="Subtraction_2" data-name="Subtraction 2" d="M8,15.805a1.7,1.7,0,0,1-.946-.3L2.476,12A5.47,5.47,0,0,1,.386,7.687V2.976a.506.506,0,0,1,.4-.5L7.453.27a1.688,1.688,0,0,1,1,0l6.768,2.205a1,1,0,0,1,.4.5V7.687A5.47,5.47,0,0,1,13.524,12L8.946,15.5A1.7,1.7,0,0,1,8,15.805Z"/><polygon points="8 6.954 6.431 5.385 5.385 6.431 6.954 8 5.385 9.569 6.431 10.615 8 9.046 9.569 10.615 10.615 9.569 9.046 8 10.615 6.431 9.569 5.385 8 6.954" fill="#fff"/></g></svg>