<svg width="16" height="16" viewBox="0 0 16 16" fill="none" xmlns="http://www.w3.org/2000/svg">
<path d="M8.30559 8.29309H7.70441V8.89444H8.30559V8.29309Z" fill="black"/>
<path d="M8.30559 6.38883H7.70441V7.69175H8.30559V6.38883Z" fill="black"/>
<path d="M15.2192 2.48006L8.506 0.27512C8.10521 0.174895 7.80462 0.174895 7.50403 0.27512L0.790804 2.48006C0.590409 2.48006 0.390015 2.68051 0.390015 2.98119V7.69175C0.390015 9.39557 1.19159 10.9992 2.49416 12.0014L7.10324 15.5093C7.40383 15.7097 7.70442 15.81 8.00501 15.81C8.30561 15.81 8.7064 15.7097 8.90679 15.5093L13.5159 12.0014C14.8184 10.9992 15.62 9.39557 15.62 7.69175V2.98119C15.62 2.78074 15.4196 2.58029 15.2192 2.48006ZM11.0109 9.89669H5.09929C4.8989 9.89669 4.6985 9.59602 4.7987 9.39557L7.70442 4.28411C7.90482 4.18388 8.20541 4.18388 8.30561 4.38433L11.2113 9.49579C11.4117 9.69624 11.2113 9.89669 11.0109 9.89669Z" fill="black"/>
</svg>
