<svg width="16" height="16" viewBox="0 0 16 16" fill="none" xmlns="http://www.w3.org/2000/svg">
<path d="M15.2192 2.48011L8.506 0.275165C8.10521 0.174941 7.80462 0.174941 7.50403 0.275165L0.790804 2.48011C0.590409 2.48011 0.390015 2.68056 0.390015 2.98123V7.69179C0.390015 9.39561 1.19159 10.9992 2.49416 12.0015L7.10324 15.5093C7.40383 15.7098 7.70442 15.81 8.00501 15.81C8.30561 15.81 8.7064 15.7098 8.90679 15.5093L13.5159 12.0015C14.8184 10.9992 15.62 9.39561 15.62 7.69179V2.98123C15.62 2.78078 15.4196 2.58033 15.2192 2.48011ZM10.6101 8.99472L9.60817 9.99696L8.00501 8.49359L6.40186 10.0972L5.39988 9.09494L7.00304 7.49134L5.39988 5.88775L6.40186 4.8855L8.00501 6.4891L9.60817 4.8855L10.6101 5.88775L9.10719 7.39112L10.6101 8.99472Z" fill="black"/>
</svg>
