<svg xmlns="http://www.w3.org/2000/svg" viewBox="0 0 16 16"><title>bgcheck-status-none</title><g id="Layer_1" data-name="Layer 1"><path id="Subtraction_8" data-name="Subtraction 8" d="M8.02,15.815a1.7,1.7,0,0,1-.946-.3L2.5,12.006A5.47,5.47,0,0,1,.406,7.7V2.986a.506.506,0,0,1,.4-.5L7.473.28a1.688,1.688,0,0,1,1,0l6.768,2.205a1,1,0,0,1,.4.5V7.7a5.47,5.47,0,0,1-2.09,4.309L8.966,15.514A1.7,1.7,0,0,1,8.02,15.815Zm-.04-12.9a4.523,4.523,0,1,0,4.492,4.523A4.507,4.507,0,0,0,7.98,2.916Zm0,7.883h0A3.364,3.364,0,0,1,5.249,5.515l4.643,4.674a3.291,3.291,0,0,1-1.913.606Zm2.734-1.432h0L6.07,4.688a3.322,3.322,0,0,1,4.643.85,3.38,3.38,0,0,1,0,3.824Z"/></g></svg>