<svg width="16" height="16" viewBox="0 0 16 16" fill="none" xmlns="http://www.w3.org/2000/svg">
<path d="M6.20146 6.3039C6.00107 6.70416 5.90087 7.00435 5.90087 7.40461C5.90087 8.60538 6.90284 9.60602 8.10521 9.60602C8.506 9.60602 8.90679 9.50595 9.20738 9.30582L6.20146 6.3039Z" fill="black"/>
<path d="M8.10521 5.2032C7.70442 5.2032 7.30363 5.40332 7.00304 5.50339L10.009 8.50531C10.2094 8.20512 10.3096 7.80486 10.3096 7.40461C10.3096 6.20384 9.30758 5.2032 8.10521 5.2032Z" fill="black"/>
<path d="M15.2192 2.50145L8.506 0.300039C8.10521 0.199975 7.80462 0.199975 7.50403 0.300039L0.790804 2.50145C0.590409 2.50145 0.390015 2.70158 0.390015 3.00177V7.70478C0.390015 9.40587 1.19159 11.0069 2.49416 12.0075L7.10324 15.5098C7.40383 15.7099 7.70442 15.81 8.00501 15.81C8.30561 15.81 8.7064 15.7099 8.90679 15.5098L13.5159 12.0075C14.8184 11.0069 15.62 9.40587 15.62 7.70478V3.00177C15.62 2.80164 15.4196 2.60151 15.2192 2.50145ZM8.10521 10.5066C6.40186 10.5066 4.99909 9.10568 4.99909 7.40459C4.99909 5.7035 6.40186 4.40267 8.10521 4.40267C9.80857 4.40267 11.2113 5.80356 11.2113 7.50465C11.2113 9.20574 9.80857 10.5066 8.10521 10.5066Z" fill="black"/>
</svg>
