<svg xmlns="http://www.w3.org/2000/svg" viewBox="0 0 16 16"><title>bgcheck-status-clear</title><g id="Layer_1" data-name="Layer 1"><path d="M15.25,2.45,8.48.23a1.57,1.57,0,0,0-1,0L.75,2.45A.52.52,0,0,0,.39,3V7.68A5.39,5.39,0,0,0,2.51,12l4.56,3.47a1.53,1.53,0,0,0,1.86,0L13.49,12a5.39,5.39,0,0,0,2.12-4.3V3A.52.52,0,0,0,15.25,2.45ZM11.43,6.58,7.49,10.65a.1.1,0,0,1-.16,0L4.57,7.81a.11.11,0,0,1,0-.15L5.66,6.54a.1.1,0,0,1,.16,0l1.5,1.55a.08.08,0,0,0,.11,0l2.72-2.82a.1.1,0,0,1,.16,0l1.12,1.15A.12.12,0,0,1,11.43,6.58Z"/></g></svg>