<svg width="16" height="16" viewBox="0 0 16 16" fill="none" xmlns="http://www.w3.org/2000/svg">
<path d="M9 2.31538C8.99125 2.60905 8.86842 2.88776 8.65755 3.0924C8.44668 3.29703 8.16437 3.41149 7.8705 3.41149C7.57662 3.41149 7.29431 3.29703 7.08344 3.0924C6.87257 2.88776 6.74974 2.60905 6.741 2.31538C6.75018 1.86775 6.86869 1.42916 7.08621 1.03779C7.30373 0.64643 7.61365 0.314168 7.989 0.0699463C8.02516 0.402017 8.11748 0.725536 8.262 1.0267C8.475 1.40161 9 1.61856 9 2.31538Z" fill="black"/>
<path d="M5 2.31538C4.99125 2.60905 4.86842 2.88776 4.65755 3.0924C4.44669 3.29703 4.16437 3.41149 3.8705 3.41149C3.57662 3.41149 3.29431 3.29703 3.08344 3.0924C2.87257 2.88776 2.74974 2.60905 2.741 2.31538C2.75018 1.86775 2.86869 1.42916 3.08621 1.03779C3.30373 0.64643 3.61365 0.314168 3.989 0.0699463C4.02516 0.402017 4.11748 0.725536 4.262 1.0267C4.475 1.40161 5 1.61856 5 2.31538Z" fill="black"/>
<path d="M13 2.31538C12.9913 2.60905 12.8684 2.88776 12.6576 3.0924C12.4467 3.29703 12.1644 3.41149 11.8705 3.41149C11.5766 3.41149 11.2943 3.29703 11.0834 3.0924C10.8726 2.88776 10.7497 2.60905 10.741 2.31538C10.7502 1.86775 10.8687 1.42916 11.0862 1.03779C11.3037 0.64643 11.6137 0.314168 11.989 0.0699463C12.0252 0.402017 12.1175 0.725536 12.262 1.0267C12.475 1.40161 13 1.61856 13 2.31538Z" fill="black"/>
<path d="M15.285 8.75776H12.428V4.10093C12.3554 4.02775 12.269 3.96966 12.1738 3.93003C12.0787 3.89039 11.9766 3.86998 11.8735 3.86998C11.7704 3.86998 11.6683 3.89039 11.5731 3.93003C11.478 3.96966 11.3916 4.02775 11.319 4.10093V8.75776H8.428V4.10093C8.36044 4.02119 8.27487 3.95866 8.17837 3.9185C8.08187 3.87835 7.9772 3.86172 7.873 3.86999C7.76895 3.8618 7.66445 3.87847 7.56812 3.91863C7.47179 3.95878 7.3864 4.02127 7.319 4.10093V8.75776H4.428V4.10093C4.36044 4.02119 4.27487 3.95866 4.17837 3.9185C4.08187 3.87835 3.9772 3.86172 3.873 3.86999C3.76895 3.8618 3.66445 3.87847 3.56812 3.91863C3.47179 3.95878 3.3864 4.02127 3.319 4.10093V8.75776H0.714996C0.582388 8.75776 0.455211 8.81042 0.361443 8.90416C0.267675 8.99791 0.214996 9.12505 0.214996 9.25763V11.1222C0.781243 11.6241 1.52222 11.8834 2.278 11.844C3.663 11.844 4.629 11.1532 4.629 10.5323H5.629C5.629 11.1532 6.595 11.844 7.98 11.844C9.365 11.844 10.33 11.1532 10.33 10.5323H11.33C11.33 11.1532 12.296 11.844 13.682 11.844C14.0656 11.8656 14.4497 11.809 14.8107 11.6775C15.1717 11.546 15.5022 11.3425 15.782 11.0792V9.25763C15.782 9.12557 15.7297 8.99888 15.6366 8.90522C15.5435 8.81156 15.4171 8.75855 15.285 8.75776Z" fill="black"/>
<path d="M10.83 11.75C10.456 12.1189 10.0098 12.4065 9.51936 12.5947C9.0289 12.7829 8.5048 12.8677 7.98 12.8437C7.45503 12.8678 6.93076 12.783 6.44013 12.5948C5.9495 12.4066 5.5031 12.119 5.129 11.75C4.75485 12.1189 4.30845 12.4065 3.81783 12.5947C3.3272 12.783 2.80295 12.8677 2.278 12.8437C1.56053 12.8523 0.851994 12.684 0.214996 12.3538V15.4301C0.214996 15.5626 0.267675 15.6898 0.361443 15.7835C0.455211 15.8773 0.582388 15.9299 0.714996 15.9299H15.285C15.4176 15.9299 15.5448 15.8773 15.6385 15.7835C15.7323 15.6898 15.785 15.5626 15.785 15.4301V12.3309C15.1393 12.6758 14.417 12.8522 13.685 12.8437C13.1594 12.868 12.6345 12.7834 12.1431 12.5952C11.6518 12.407 11.2047 12.1192 10.83 11.75Z" fill="black"/>
</svg>
