<svg xmlns="http://www.w3.org/2000/svg" viewBox="0 0 16 16"><title>browser-outline</title><g id="Layer_1" data-name="Layer 1"><path d="M5,7H3A1,1,0,0,0,2,8v5a1,1,0,0,0,1,1H5a1,1,0,0,0,1-1V8A1,1,0,0,0,5,7ZM3,13V8H5v5Z"/><path d="M14.46,0H1.52A1.5,1.5,0,0,0,0,1.52V14.46A1.5,1.5,0,0,0,1.52,16H14.46A1.49,1.49,0,0,0,16,14.46V1.52A1.5,1.5,0,0,0,14.46,0ZM15,14.46a.51.51,0,0,1-.5.5H1.52a.5.5,0,0,1-.5-.5V1.52a.5.5,0,0,1,.5-.5H14.46a.5.5,0,0,1,.5.5Z"/><path d="M13,7H8A1,1,0,0,0,7,8v5a1,1,0,0,0,1,1h5a1,1,0,0,0,1-1V8A1,1,0,0,0,13,7ZM8,13V8h5v5Z"/><path d="M13,2H3A1,1,0,0,0,2,3V5A1,1,0,0,0,3,6H13a1,1,0,0,0,1-1V3A1,1,0,0,0,13,2ZM3,5V3H13V5Z"/></g></svg>