<svg width="16" height="16" viewBox="0 0 16 16" fill="none" xmlns="http://www.w3.org/2000/svg">
<path d="M9.1165 7.48299C9.76709 7.48299 10.2945 6.95558 10.2945 6.30499C10.2945 5.6544 9.76709 5.12699 9.1165 5.12699C8.46591 5.12699 7.9385 5.6544 7.9385 6.30499C7.9385 6.95558 8.46591 7.48299 9.1165 7.48299Z" fill="black"/>
<path d="M13.1155 1.30499H5.1155C4.85029 1.30499 4.59593 1.41035 4.4084 1.59789C4.22086 1.78542 4.1155 2.03978 4.1155 2.30499V10.305C4.1155 10.5702 4.22086 10.8246 4.4084 11.0121C4.59593 11.1996 4.85029 11.305 5.1155 11.305H13.1155C13.3807 11.305 13.6351 11.1996 13.8226 11.0121C14.0101 10.8246 14.1155 10.5702 14.1155 10.305V2.30499C14.1155 2.03978 14.0101 1.78542 13.8226 1.59789C13.6351 1.41035 13.3807 1.30499 13.1155 1.30499ZM11.5155 6.30499C11.5149 6.40969 11.5075 6.51424 11.4935 6.61799L12.1685 7.14599C12.1967 7.16996 12.2159 7.20288 12.2228 7.23928C12.2298 7.27567 12.224 7.31334 12.2065 7.34599L11.5665 8.45299C11.5481 8.4877 11.5173 8.51418 11.4802 8.52716C11.4431 8.54014 11.4025 8.53865 11.3665 8.52299L10.5665 8.20299C10.4007 8.33034 10.2192 8.43587 10.0265 8.51699L9.9055 9.36399C9.90015 9.40162 9.88124 9.436 9.85233 9.46067C9.82343 9.48534 9.7865 9.49862 9.7485 9.49799H8.4765C8.43856 9.49881 8.40165 9.48558 8.37286 9.46085C8.34407 9.43612 8.32542 9.40163 8.3205 9.36399L8.2005 8.52099C8.00722 8.44104 7.82559 8.33542 7.6605 8.20699L6.8605 8.52699C6.82436 8.54172 6.78409 8.54274 6.74725 8.52985C6.71042 8.51695 6.67957 8.49104 6.6605 8.45699L6.0275 7.34999C6.00994 7.31727 6.00423 7.27949 6.01134 7.24304C6.01844 7.20659 6.03793 7.17372 6.0665 7.14999L6.7405 6.62199C6.71117 6.41436 6.71117 6.20363 6.7405 5.99599L6.0665 5.46799C6.03728 5.44474 6.0173 5.41184 6.01015 5.37518C6.003 5.33852 6.00915 5.30052 6.0275 5.26799L6.6675 4.16099C6.6859 4.12629 6.71672 4.0998 6.75379 4.08683C6.79087 4.07385 6.83148 4.07534 6.8675 4.09099L7.6675 4.41099C7.83332 4.28364 8.0148 4.17811 8.2075 4.09699L8.3295 3.24999C8.33442 3.21236 8.35307 3.17787 8.38186 3.15314C8.41065 3.12841 8.44756 3.11518 8.4855 3.11599H9.7555C9.7935 3.11537 9.83043 3.12864 9.85933 3.15331C9.88824 3.17799 9.90715 3.21237 9.9125 3.24999L10.0335 4.09699C10.2268 4.17695 10.4084 4.28256 10.5735 4.41099L11.3735 4.09099C11.4096 4.07626 11.4499 4.07525 11.4867 4.08814C11.5236 4.10103 11.5544 4.12694 11.5735 4.16099L12.2005 5.25999C12.218 5.29265 12.2238 5.33031 12.2168 5.36671C12.2099 5.4031 12.1907 5.43603 12.1625 5.45999L11.4875 5.98799C11.5031 6.09298 11.5117 6.19887 11.5135 6.30499H11.5155Z" fill="black"/>
<path d="M3.1145 11.305V4.30499H2.1145C1.84929 4.30499 1.59493 4.41035 1.4074 4.59789C1.21986 4.78542 1.1145 5.03978 1.1145 5.30499V13.305C1.1145 13.5702 1.21986 13.8246 1.4074 14.0121C1.59493 14.1996 1.84929 14.305 2.1145 14.305H10.1145C10.3797 14.305 10.6341 14.1996 10.8216 14.0121C11.0091 13.8246 11.1145 13.5702 11.1145 13.305V12.305H4.1145C3.98318 12.305 3.85314 12.2791 3.73182 12.2289C3.61049 12.1786 3.50025 12.105 3.4074 12.0121C3.31454 11.9192 3.24088 11.809 3.19062 11.6877C3.14037 11.5663 3.1145 11.4363 3.1145 11.305Z" fill="black"/>
</svg>
