<svg xmlns="http://www.w3.org/2000/svg" viewBox="0 0 16 16">
  <title>bulk-update</title>
  <g id="Layer_1" data-name="Layer 1">
    <path d="M.387,1.938A.386.386,0,0,0,0,2.324V4.012A.387.387,0,0,0,.387,4.4H8.441l.806-.949,1.284-1.512ZM0,6.665V8.353a.387.387,0,0,0,.387.387H4.753L6.844,6.278H.387A.387.387,0,0,0,0,6.665ZM13.151,10.7h-.629l-2.091,2.461h2.72a.386.386,0,0,0,.386-.386V11.089A.386.386,0,0,0,13.151,10.7ZM0,11.089v1.688a.386.386,0,0,0,.387.386H2.392l.039-1.579a.318.318,0,0,1,.076-.2l.579-.683H.387A.387.387,0,0,0,0,11.089Z" fill="#010101"/>
    <path d="M13.02,1.982,11.713,3.519l2.814,2.39,1.306-1.538a.4.4,0,0,0-.046-.563l-2.2-1.872A.4.4,0,0,0,13.02,1.982ZM4.458,15.42l2.368-.446L4.044,12.611l-.059,2.407A.4.4,0,0,0,4.458,15.42Zm.153-3.508L7.424,14.3l6.514-7.7L11.125,4.212Z" fill="#010101"/>
  </g>
</svg>
