<svg xmlns="http://www.w3.org/2000/svg" viewBox="0 0 15.229 15.61">
  <g id="Layer_1" data-name="Layer 1">
    <g>
      <circle cx="9.116" cy="6.305" r="1.178"/>
      <path d="M13.115,1.305h-8a1,1,0,0,0-1,1v8a1,1,0,0,0,1,1h8a1,1,0,0,0,1-1v-8A1,1,0,0,0,13.115,1.305Zm-1.6,5a2.44,2.44,0,0,1-.022.313l.675.528a.162.162,0,0,1,.038.2l-.64,1.107a.156.156,0,0,1-.2.07l-.8-.32a2.442,2.442,0,0,1-.54.314l-.121.847a.156.156,0,0,1-.157.134H8.476a.154.154,0,0,1-.156-.134L8.2,8.521a2.33,2.33,0,0,1-.54-.314l-.8.32a.16.16,0,0,1-.2-.07L6.027,7.35a.161.161,0,0,1,.039-.2l.674-.528a2.238,2.238,0,0,1,0-.626l-.674-.528a.157.157,0,0,1-.039-.2l.64-1.107a.156.156,0,0,1,.2-.07l.8.32a2.442,2.442,0,0,1,.54-.314l.122-.847a.154.154,0,0,1,.156-.134H9.755a.156.156,0,0,1,.157.134l.121.847a2.33,2.33,0,0,1,.54.314l.8-.32a.16.16,0,0,1,.2.07L12.2,5.26a.162.162,0,0,1-.038.2l-.675.528A2.44,2.44,0,0,1,11.513,6.305Z"/>
      <path d="M3.114,11.305v-7h-1a1,1,0,0,0-1,1v8a1,1,0,0,0,1,1h8a1,1,0,0,0,1-1v-1h-7A1,1,0,0,1,3.114,11.305Z"/>
    </g>
  </g>
</svg>
