<svg xmlns="http://www.w3.org/2000/svg" viewBox="0 0 16 16"><title>calendar-check</title><g id="Layer_1" data-name="Layer 1"><path d="M13.35,14.22H2.46V5.67H13.35Zm0-12.44h-.78V.22H11V1.78H4.79V.22H3.23V1.78H2.46A1.54,1.54,0,0,0,.91,3.33V14.22a1.56,1.56,0,0,0,1.56,1.56H13.35a1.56,1.56,0,0,0,1.55-1.56V3.33A1.56,1.56,0,0,0,13.35,1.78Z"/><path d="M10.77,8.2,7.52,11.56a.09.09,0,0,1-.13,0L5.11,9.22a.11.11,0,0,1,0-.13L6,8.17a.09.09,0,0,1,.13,0L7.39,9.45a.06.06,0,0,0,.08,0L9.71,7.12a.12.12,0,0,1,.14,0l.92,1A.08.08,0,0,1,10.77,8.2Z" fill-rule="evenodd"/></g></svg>