<svg xmlns="http://www.w3.org/2000/svg" viewBox="0 0 16 16"><title>card-complete</title><g id="Layer_1" data-name="Layer 1"><path d="M9.714,7.124,7.471,9.447a.06.06,0,0,1-.086,0L6.143,8.168a.092.092,0,0,0-.132,0l-.9.923a.091.091,0,0,0,0,.128l2.277,2.341a.092.092,0,0,0,.132,0l3.249-3.356a.093.093,0,0,0,0-.128l-.926-.953A.092.092,0,0,0,9.714,7.124Z"/><path d="M13.312,1.023,1.6,1.116A1.59,1.59,0,0,0-.008,2.69V13.764a1.591,1.591,0,0,0,1.6,1.574H14.4A1.591,1.591,0,0,0,16,13.764V3.887Zm1.314,12.741a.23.23,0,0,1-.229.225H1.6a.23.23,0,0,1-.229-.225V2.69A.23.23,0,0,1,1.6,2.465L10.7,2.386V6.405h3.923ZM12.317,4.826V2.377l2.259,2.449Z"/></g></svg>