<svg xmlns="http://www.w3.org/2000/svg" viewBox="0 0 16 16">
  <g id="Layer_1" data-name="Layer 1">
    <polygon points="8.029 8.78 6.735 7.486 5.873 8.349 7.167 9.643 5.873 10.937 6.735 11.799 8.029 10.505 9.323 11.799 10.186 10.937 8.892 9.643 10.186 8.349 9.323 7.486 8.029 8.78"/>
    <g>
      <path d="M13.312,1.023,1.6,1.116A1.59,1.59,0,0,0-.008,2.69V13.764a1.591,1.591,0,0,0,1.6,1.574H14.4A1.591,1.591,0,0,0,16,13.764V3.887Zm1.314,12.741a.23.23,0,0,1-.229.225H1.6a.23.23,0,0,1-.229-.225V2.69A.23.23,0,0,1,1.6,2.465l10.717-.093,2.314,2.509Z"/>
      <polygon points="16 6.405 10.703 6.405 10.703 1.141 12.317 1.141 12.317 4.826 16 4.826 16 6.405"/>
    </g>
  </g>
</svg>
