<svg xmlns="http://www.w3.org/2000/svg" viewBox="0 0 16 16">
  <title>card-complete</title>
  <g id="Layer_1" data-name="Layer 1">
    <path d="M13.584,10l-3.249,3.356a.091.091,0,0,1-.132,0L7.926,11.013a.093.093,0,0,1,0-.128l.9-.923a.091.091,0,0,1,.131,0L10.2,11.24a.059.059,0,0,0,.085,0l2.243-2.323a.092.092,0,0,1,.132,0l.926.953A.092.092,0,0,1,13.584,10Z" fill="#231f20" fill-rule="evenodd"/>
    <g>
      <path d="M10.715,6.915a4.188,4.188,0,0,1,.624.047,3.991,3.991,0,0,1-.626,7.945,4,4,0,1,1,0-7.992h0m0-1h0a5.079,5.079,0,1,0,.774.058,5.177,5.177,0,0,0-.772-.058Z" fill="#010101"/>
      <path d="M5.729,13.922H1.382V1.484H7.3V3.96a.135.135,0,0,0,.04.095.138.138,0,0,0,.1.039H9.946V5.2a6.059,6.059,0,0,1,.767-.055,5.911,5.911,0,0,1,.615.046V3.8a.592.592,0,0,0-.181-.426L7.994.281A.624.624,0,0,0,7.56.1H.613A.62.62,0,0,0,.18.281.6.6,0,0,0,0,.707V14.736a.6.6,0,0,0,.18.425.62.62,0,0,0,.433.177H6.968A5.84,5.84,0,0,1,5.729,13.922Z" fill="#010101"/>
    </g>
  </g>
</svg>
