<svg width="16" height="16" viewBox="0 0 16 16" fill="none" xmlns="http://www.w3.org/2000/svg">
<path d="M9.71714 6.94312L7.47526 9.26692C7.46967 9.27267 7.46299 9.27724 7.45561 9.28036C7.44823 9.28348 7.4403 9.28508 7.43228 9.28508C7.42427 9.28508 7.41634 9.28348 7.40896 9.28036C7.40158 9.27724 7.39489 9.27267 7.38931 9.26692L6.14793 7.98748C6.13936 7.97865 6.1291 7.97162 6.11777 7.96683C6.10644 7.96203 6.09426 7.95956 6.08196 7.95956C6.06966 7.95956 6.05748 7.96203 6.04615 7.96683C6.03482 7.97162 6.02456 7.97865 6.01599 7.98748L5.11644 8.9108C5.0996 8.92784 5.09015 8.95085 5.09015 8.97482C5.09015 8.99879 5.0996 9.0218 5.11644 9.03884L7.3923 11.3807C7.40087 11.3895 7.41113 11.3965 7.42246 11.4013C7.43379 11.4061 7.44597 11.4086 7.45827 11.4086C7.47057 11.4086 7.48275 11.4061 7.49408 11.4013C7.50541 11.3965 7.51567 11.3895 7.52424 11.3807L10.7716 8.02349C10.788 8.00621 10.7971 7.98329 10.7971 7.95947C10.7971 7.93565 10.788 7.91273 10.7716 7.89545L9.84608 6.94212C9.82875 6.92532 9.80552 6.91602 9.7814 6.91621C9.75729 6.91639 9.73421 6.92606 9.71714 6.94312Z" fill="black"/>
<path d="M13.3133 0.839996L1.6072 0.933029C1.39833 0.930652 1.19104 0.969508 0.997191 1.04738C0.803341 1.12524 0.62673 1.2406 0.477459 1.38684C0.328188 1.53307 0.209186 1.70733 0.127259 1.89964C0.0453327 2.09194 0.00208844 2.29853 0 2.50758V13.5854C0.00448498 14.0061 0.175237 14.408 0.474918 14.703C0.774599 14.9981 1.17882 15.1624 1.5992 15.16H14.4008C14.8212 15.1624 15.2254 14.9981 15.5251 14.703C15.8248 14.408 15.9955 14.0061 16 13.5854V3.70499L13.3133 0.839996ZM14.6267 13.5854C14.6254 13.6454 14.6007 13.7025 14.558 13.7445C14.5152 13.7866 14.4577 13.8103 14.3978 13.8105H1.6072C1.54726 13.8103 1.48978 13.7866 1.44703 13.7445C1.40427 13.7025 1.37961 13.6454 1.37831 13.5854V2.50758C1.37961 2.4476 1.40427 2.3905 1.44703 2.34846C1.48978 2.30641 1.54726 2.28274 1.6072 2.2825L10.7026 2.20347V6.22387H14.6237L14.6267 13.5854ZM12.3188 4.64432V2.19447L14.5767 4.64432H12.3188Z" fill="black"/>
</svg>
