<svg xmlns="http://www.w3.org/2000/svg" viewBox="0 0 16 16">
  <title>card-removed</title>
  <g id="Layer_1" data-name="Layer 1">
    <g>
      <path d="M10.815,6.915a4.174,4.174,0,0,1,.623.047,3.991,3.991,0,0,1-.625,7.945,4,4,0,1,1,0-7.992h0m0-1h0a5.079,5.079,0,1,0,.774.058,5.177,5.177,0,0,0-.772-.058Z" fill="#010101"/>
      <path d="M5.829,13.922H1.481V1.484H7.4V3.96a.135.135,0,0,0,.04.095.136.136,0,0,0,.1.039h2.507V5.2a6.059,6.059,0,0,1,.767-.055,5.911,5.911,0,0,1,.615.046V3.8a.592.592,0,0,0-.181-.426L8.094.281A.626.626,0,0,0,7.66.1H.713A.624.624,0,0,0,.279.281.6.6,0,0,0,.1.707V14.736a.6.6,0,0,0,.179.425.624.624,0,0,0,.434.177H7.068A5.819,5.819,0,0,1,5.829,13.922Z" fill="#010101"/>
    </g>
    <path d="M13.122,9.6l-1-1a.133.133,0,0,0-.188,0l-1.12,1.119L9.693,8.6a.133.133,0,0,0-.188,0l-1,1a.133.133,0,0,0,0,.188l1.119,1.119L8.5,12.031a.133.133,0,0,0,0,.188l1,1a.133.133,0,0,0,.188,0L10.812,12.1l1.12,1.119a.133.133,0,0,0,.188,0l1-1a.133.133,0,0,0,0-.188L12,10.911l1.119-1.119A.133.133,0,0,0,13.122,9.6Z" fill="#231f20" fill-rule="evenodd"/>
  </g>
</svg>
