<svg xmlns="http://www.w3.org/2000/svg" viewBox="0 0 16 16"><title>card-complete</title><g id="Layer_1" data-name="Layer 1"><path d="M10.772,8.205,7.523,11.561a.092.092,0,0,1-.132,0L5.114,9.22a.091.091,0,0,1,0-.128l.9-.924a.092.092,0,0,1,.132,0L7.385,9.447a.06.06,0,0,0,.086,0L9.714,7.124a.092.092,0,0,1,.132,0l.926.953A.093.093,0,0,1,10.772,8.205Z" fill-rule="evenodd"/><path d="M13.312,1.023,1.6,1.116A1.59,1.59,0,0,0-.008,2.69V13.764a1.591,1.591,0,0,0,1.6,1.574H14.4A1.591,1.591,0,0,0,16,13.764V3.887Zm1.314,12.741a.23.23,0,0,1-.229.225H1.6a.23.23,0,0,1-.229-.225V2.69A.23.23,0,0,1,1.6,2.465l10.717-.093,2.314,2.509Z"/><polygon points="16 6.405 10.703 6.405 10.703 1.141 12.317 1.141 12.317 4.826 16 4.826 16 6.405"/></g></svg>