<svg xmlns="http://www.w3.org/2000/svg" viewBox="0 0 16 16"><title>card-complete</title><g id="Layer_1" data-name="Layer 1"><path d="M9.71,7.12,7.47,9.45a.06.06,0,0,1-.08,0L6.14,8.17a.09.09,0,0,0-.13,0l-.9.92a.11.11,0,0,0,0,.13l2.28,2.34a.09.09,0,0,0,.13,0L10.77,8.2a.08.08,0,0,0,0-.12l-.92-1A.12.12,0,0,0,9.71,7.12Z"/><path d="M13.31,1,1.6,1.12A1.59,1.59,0,0,0,0,2.69V13.76A1.6,1.6,0,0,0,1.6,15.34H14.4A1.59,1.59,0,0,0,16,13.76V3.89Zm1.32,12.74a.23.23,0,0,1-.23.23H1.6a.23.23,0,0,1-.23-.23V2.69a.23.23,0,0,1,.23-.23l9.1-.07v4h3.93ZM12.32,4.83V2.38l2.26,2.45Z"/></g></svg>