<svg width="16" height="16" viewBox="0 0 16 16" fill="none" xmlns="http://www.w3.org/2000/svg">
<path d="M8.03298 8.59969L6.73963 7.30524L5.87806 8.16854L7.17141 9.46299L5.87806 10.7574L6.73963 11.6197L8.03298 10.3253L9.32634 11.6197L10.1889 10.7574L8.89555 9.46299L10.1889 8.16854L9.32634 7.30524L8.03298 8.59969Z" fill="black"/>
<path d="M13.3133 0.839996L1.6072 0.933029C1.39833 0.930652 1.19104 0.969508 0.997191 1.04738C0.803341 1.12524 0.62673 1.2406 0.477459 1.38684C0.328188 1.53307 0.209186 1.70733 0.127259 1.89964C0.0453327 2.09194 0.00208844 2.29853 0 2.50758V13.5854C0.00448498 14.0061 0.175237 14.408 0.474918 14.703C0.774599 14.9981 1.17882 15.1624 1.5992 15.16H14.4008C14.8212 15.1624 15.2254 14.9981 15.5251 14.703C15.8248 14.408 15.9955 14.0061 16 13.5854V3.70499L13.3133 0.839996ZM14.6267 13.5854C14.6254 13.6454 14.6007 13.7025 14.558 13.7445C14.5152 13.7866 14.4577 13.8103 14.3978 13.8105H1.6072C1.54726 13.8103 1.48978 13.7866 1.44703 13.7445C1.40427 13.7025 1.37961 13.6454 1.37831 13.5854V2.50758C1.37961 2.4476 1.40427 2.3905 1.44703 2.34846C1.48978 2.30641 1.54726 2.28274 1.6072 2.2825L12.3188 2.18946L14.6317 4.69934L14.6267 13.5854Z" fill="black"/>
<path d="M16 6.22387H10.7056V0.958037H12.3188V4.64432H16V6.22387Z" fill="black"/>
</svg>
