<svg xmlns="http://www.w3.org/2000/svg" viewBox="0 0 16 16"><title>card-removed</title><g id="Layer_1" data-name="Layer 1"><polygon points="8.03 8.78 6.74 7.49 5.87 8.35 7.17 9.64 5.87 10.94 6.74 11.8 8.03 10.51 9.32 11.8 10.19 10.94 8.89 9.64 10.19 8.35 9.32 7.49 8.03 8.78"/><path d="M13.31,1,1.6,1.12A1.59,1.59,0,0,0,0,2.69V13.76A1.6,1.6,0,0,0,1.6,15.34H14.4A1.59,1.59,0,0,0,16,13.76V3.89Zm1.32,12.74a.23.23,0,0,1-.23.23H1.6a.23.23,0,0,1-.23-.23V2.69a.23.23,0,0,1,.23-.23l10.71-.09,2.32,2.51Z"/><polygon points="16 6.41 10.7 6.41 10.7 1.14 12.32 1.14 12.32 4.83 16 4.83 16 6.41"/></g></svg>