<svg xmlns="http://www.w3.org/2000/svg" viewBox="0 0 16 16"><defs><style>.cls-1{fill:#010101;}</style></defs><title>chat-bubble</title><g id="Layer_1" data-name="Layer 1"><path class="cls-1" d="M8.305,14.821a8.36,8.36,0,0,1-4.274-1.149l-2.073.63a1.405,1.405,0,0,1-1.652-2l.887-1.693A6.024,6.024,0,0,1,.61,8.032c0-3.745,3.452-6.79,7.695-6.79S16,4.287,16,8.032,12.548,14.821,8.305,14.821ZM4.239,12.146l.272.178a6.939,6.939,0,0,0,3.794,1.1c3.471,0,6.3-2.418,6.3-5.39S11.776,2.64,8.305,2.64s-6.3,2.418-6.3,5.391a4.694,4.694,0,0,0,.585,2.253l.178.328L1.545,12.954Z"/><path class="cls-1" d="M5.313,7.484a.845.845,0,1,0,.845.845.845.845,0,0,0-.845-.845Z"/><path class="cls-1" d="M8.316,7.484a.845.845,0,1,0,.845.845.845.845,0,0,0-.845-.845Z"/><path class="cls-1" d="M11.319,7.484a.845.845,0,1,0,.845.845.845.845,0,0,0-.845-.845Z"/></g></svg>