<svg xmlns="http://www.w3.org/2000/svg" viewBox="0 0 16 16"><title>checkr-logo</title><g id="Layer_1" data-name="Layer 1"><path d="M13.35,9.45h-.67l-.76-1.26-.07.07-.21.23v1h-.57V9.09a1.83,1.83,0,0,1-.64.36l0,0a2.44,2.44,0,0,1-.38,0H9.94A1.24,1.24,0,0,1,9,9.12a1.54,1.54,0,0,1-.34-1A1.47,1.47,0,0,1,9,7.1a1.1,1.1,0,0,1,.91-.4,1.08,1.08,0,0,1,.74.25.94.94,0,0,1,.1.1l-.32.41a.62.62,0,0,0-.5-.22.64.64,0,0,0-.5.24,1,1,0,0,0-.18.64,1.05,1.05,0,0,0,.18.64A.76.76,0,0,0,9.92,9h.2a1.35,1.35,0,0,0,1-.72V5.62h.57V7.71l.9-1h.77l-1,1Z"/><path d="M8.4,8.11a1.55,1.55,0,0,0-.3-1,1,1,0,0,0-.88-.41,1.09,1.09,0,0,0-.88.41,1.48,1.48,0,0,0-.34,1,1.58,1.58,0,0,0,.32,1,1.19,1.19,0,0,0,.93.39h0a1.25,1.25,0,0,0,1-.51l-.37-.38a.74.74,0,0,1-.27.26A1.18,1.18,0,0,1,7.24,9a.58.58,0,0,1-.47-.19.8.8,0,0,1-.18-.46h1.8V8.11ZM6.64,7.76a.62.62,0,0,1,.19-.36.53.53,0,0,1,.39-.16.48.48,0,0,1,.38.16.88.88,0,0,1,.19.36Z"/><path d="M15.76,7.18l-.45.45a.63.63,0,0,0-.23-.33.45.45,0,0,0-.28-.07.43.43,0,0,0-.4.24,1.15,1.15,0,0,0-.17.64V9.44h-.56V6.75h.56V7A1.09,1.09,0,0,1,15,6.7a.84.84,0,0,1,.53.16A1.1,1.1,0,0,1,15.76,7.18Z"/><path d="M5.67,7.63V9.45H5.12V7.69c0-.3-.13-.45-.42-.45a.53.53,0,0,0-.43.22.31.31,0,0,0-.07.09.74.74,0,0,0-.1.26.28.28,0,0,0,0,.09s0,.1,0,.15V9.44H3.51V8.71l0,.06a2.19,2.19,0,0,1-1.19.7h0L2,9.5H1.89A1.53,1.53,0,0,1,.69,9a2.53,2.53,0,0,1,0-2.88,1.5,1.5,0,0,1,1.18-.53,1.55,1.55,0,0,1,1,.34A.82.82,0,0,1,3,6.1l-.37.47a.81.81,0,0,0-.8-.45,1,1,0,0,0-.75.39,1.77,1.77,0,0,0-.28,1,1.87,1.87,0,0,0,.28,1,1,1,0,0,0,.81.37l.28,0A2,2,0,0,0,3.46,7.7a.27.27,0,0,0,0-.11v-2h.57V7l.22-.15a1.26,1.26,0,0,1,.49-.12.89.89,0,0,1,.66.23A1,1,0,0,1,5.67,7.63Z"/></g></svg>