<svg xmlns="http://www.w3.org/2000/svg" viewBox="0 0 16 16"><title>comment-outline</title><g id="Layer_1" data-name="Layer 1"><path d="M5,5.989a.845.845,0,1,0,.845.844A.844.844,0,0,0,5,5.989Z"/><path d="M8,5.989a.845.845,0,1,0,.845.844A.845.845,0,0,0,8,5.989Z"/><path d="M11,5.989a.845.845,0,1,0,.844.844A.844.844,0,0,0,11,5.989Z"/><path d="M11.319.417H4.681A4.636,4.636,0,0,0,.05,5.048V8.4a4.58,4.58,0,0,0,1.3,3.192L1.13,15.583l4.542-2.548h5.647A4.636,4.636,0,0,0,15.95,8.4V5.048A4.636,4.636,0,0,0,11.319.417ZM14.353,8.4a3.037,3.037,0,0,1-3.034,3.034l-6.08,0L2.8,12.988l.21-2.057-.222-.178A3.021,3.021,0,0,1,1.647,8.4V5.047A3.037,3.037,0,0,1,4.681,2.013h6.638a3.037,3.037,0,0,1,3.034,3.034Z"/></g></svg>