<svg xmlns="http://www.w3.org/2000/svg" viewBox="0 0 16 16"><title>comment-outline</title><g id="Layer_1" data-name="Layer 1"><path d="M5,6a.85.85,0,1,0,.84.84A.85.85,0,0,0,5,6Z"/><path d="M8,6a.85.85,0,1,0,.84.84A.84.84,0,0,0,8,6Z"/><path d="M11,6a.85.85,0,1,0,.85.84A.85.85,0,0,0,11,6Z"/><path d="M11.32.42H4.68A4.63,4.63,0,0,0,.05,5.05V8.4a4.62,4.62,0,0,0,1.3,3.2l-.22,4L5.67,13h5.65A4.63,4.63,0,0,0,16,8.4V5.05A4.63,4.63,0,0,0,11.32.42Zm3,8a3,3,0,0,1-3,3H5.24L2.8,13,3,10.93l-.22-.18A3,3,0,0,1,1.65,8.4V5.05a3,3,0,0,1,3-3h6.64a3,3,0,0,1,3,3Z"/></g></svg>