<svg width="16" height="16" viewBox="0 0 16 16" fill="none" xmlns="http://www.w3.org/2000/svg">
<path d="M11.3214 0.415039H4.68159C3.45379 0.416362 2.27665 0.904686 1.40838 1.77289C0.540102 2.6411 0.0515914 3.8183 0.0500031 5.04626V8.40415C0.051663 9.59675 0.518064 10.7417 1.35017 11.596L1.12814 15.585L5.67071 13.0354H11.3194C12.5471 13.034 13.7242 12.5457 14.5923 11.6775C15.4604 10.8092 15.9487 9.63202 15.95 8.40415V5.04626C15.9487 3.81874 15.4607 2.64184 14.593 1.77366C13.7253 0.905482 12.5488 0.416892 11.3214 0.415039ZM4.99863 7.67495C4.83144 7.67515 4.66795 7.62575 4.52884 7.53299C4.38973 7.44024 4.28125 7.3083 4.21714 7.15388C4.15302 6.99945 4.13614 6.82947 4.16864 6.66545C4.20113 6.50143 4.28154 6.35073 4.39969 6.23242C4.51784 6.11412 4.66842 6.03352 4.83239 6.00082C4.99635 5.96813 5.16632 5.98481 5.3208 6.04875C5.47528 6.11269 5.60733 6.22103 5.70024 6.36005C5.79314 6.49906 5.84273 6.66252 5.84273 6.82973C5.84273 7.05372 5.75383 7.26856 5.59556 7.42704C5.43729 7.58552 5.22259 7.67469 4.99863 7.67495ZM7.999 7.67495C7.83186 7.67495 7.66846 7.62538 7.52949 7.53251C7.39051 7.43963 7.28219 7.30763 7.21823 7.15318C7.15426 6.99874 7.13753 6.82879 7.17014 6.66484C7.20274 6.50088 7.28323 6.35028 7.40142 6.23207C7.51961 6.11386 7.6702 6.03336 7.83413 6.00075C7.99807 5.96814 8.16799 5.98487 8.32241 6.04885C8.47683 6.11282 8.60882 6.22115 8.70168 6.36015C8.79454 6.49915 8.84411 6.66256 8.84411 6.82973C8.84424 6.9406 8.82254 7.0504 8.78024 7.15288C8.73794 7.25535 8.67587 7.34849 8.59758 7.42698C8.51929 7.50547 8.42631 7.56776 8.32395 7.61031C8.22159 7.65286 8.11185 7.67482 8.001 7.67495H7.999ZM10.9994 7.67495C10.8322 7.67495 10.6688 7.62538 10.5299 7.53251C10.3909 7.43963 10.2826 7.30763 10.2186 7.15318C10.1546 6.99874 10.1379 6.82879 10.1705 6.66484C10.2031 6.50088 10.2836 6.35028 10.4018 6.23207C10.52 6.11386 10.6706 6.03336 10.8345 6.00075C10.9984 5.96814 11.1684 5.98487 11.3228 6.04885C11.4772 6.11282 11.6092 6.22115 11.7021 6.36015C11.7949 6.49915 11.8445 6.66256 11.8445 6.82973C11.8448 7.05311 11.7565 7.2675 11.599 7.42592C11.4416 7.58435 11.2277 7.6739 11.0044 7.67495H10.9994Z" fill="black"/>
</svg>
