<svg width="16" height="16" viewBox="0 0 16 16" fill="none" xmlns="http://www.w3.org/2000/svg">
<path d="M11.3214 0.415009H4.68159C3.45379 0.416332 2.27665 0.904656 1.40838 1.77286C0.540102 2.64107 0.0515914 3.81827 0.0500031 5.04623V8.40412C0.051663 9.59672 0.518064 10.7417 1.35017 11.596L1.12814 15.585L5.67071 13.0353H11.3194C12.5471 13.034 13.7242 12.5457 14.5923 11.6774C15.4604 10.8092 15.9487 9.63199 15.95 8.40412V5.04623C15.9487 3.81871 15.4607 2.64181 14.593 1.77363C13.7253 0.905451 12.5488 0.416862 11.3214 0.415009ZM4.99863 7.67492C4.83144 7.67512 4.66795 7.62572 4.52884 7.53296C4.38973 7.44021 4.28125 7.30827 4.21714 7.15385C4.15302 6.99942 4.13614 6.82944 4.16864 6.66542C4.20113 6.5014 4.28154 6.3507 4.39969 6.23239C4.51784 6.11409 4.66842 6.03349 4.83239 6.00079C4.99635 5.9681 5.16632 5.98478 5.3208 6.04872C5.47528 6.11266 5.60733 6.221 5.70024 6.36002C5.79314 6.49903 5.84273 6.66249 5.84273 6.8297C5.84273 7.05369 5.75383 7.26853 5.59556 7.42701C5.43729 7.58549 5.22259 7.67466 4.99863 7.67492ZM7.999 7.67492C7.83186 7.67492 7.66846 7.62535 7.52949 7.53248C7.39051 7.4396 7.28219 7.3076 7.21823 7.15315C7.15426 6.99871 7.13753 6.82876 7.17014 6.66481C7.20274 6.50085 7.28323 6.35024 7.40142 6.23204C7.51961 6.11383 7.6702 6.03333 7.83413 6.00072C7.99807 5.96811 8.16799 5.98484 8.32241 6.04882C8.47683 6.11279 8.60882 6.22112 8.70168 6.36012C8.79454 6.49912 8.84411 6.66253 8.84411 6.8297C8.84424 6.94057 8.82254 7.05037 8.78024 7.15285C8.73794 7.25532 8.67587 7.34846 8.59758 7.42695C8.51929 7.50544 8.42631 7.56773 8.32395 7.61028C8.22159 7.65283 8.11185 7.67479 8.001 7.67492H7.999ZM10.9994 7.67492C10.8322 7.67492 10.6688 7.62535 10.5299 7.53248C10.3909 7.4396 10.2826 7.3076 10.2186 7.15315C10.1546 6.99871 10.1379 6.82876 10.1705 6.66481C10.2031 6.50085 10.2836 6.35024 10.4018 6.23204C10.52 6.11383 10.6706 6.03333 10.8345 6.00072C10.9984 5.96811 11.1684 5.98484 11.3228 6.04882C11.4772 6.11279 11.6092 6.22112 11.7021 6.36012C11.7949 6.49912 11.8445 6.66253 11.8445 6.8297C11.8448 7.05308 11.7565 7.26747 11.599 7.42589C11.4416 7.58432 11.2277 7.67386 11.0044 7.67492H10.9994Z" fill="black"/>
</svg>
