<svg xmlns="http://www.w3.org/2000/svg" viewBox="0 0 16 16"><title>crop</title><g id="Layer_1" data-name="Layer 1"><path d="M15.447,11.514H13.283V5.419a6.466,6.466,0,0,0-.4-1.954L15.467.937a.276.276,0,0,0-.391-.391L12.488,3.075a3.515,3.515,0,0,0-1.432-.357H4.439V1.029c0-.306-.816-.553-1.122-.553s-1.075.247-1.075.553V2.718H.553C.248,2.718,0,3.487,0,3.792S.248,4.867.553,4.867H2.242v7.185A1.661,1.661,0,0,0,3.9,13.711h7.185v1.736c0,.305.769.553,1.075.553s1.122-.248,1.122-.553V13.711h2.164c.305,0,.552-.77.552-1.075S15.752,11.514,15.447,11.514ZM4.439,10.961V5.419a.552.552,0,0,1,.553-.552h5.542a.567.567,0,0,1,.135.027l-6.2,6.2A.548.548,0,0,1,4.439,10.961Zm6.647,0a.553.553,0,0,1-.552.553H4.992a.548.548,0,0,1-.135-.027l6.2-6.2a.548.548,0,0,1,.026.134Z"/></g></svg>