<svg xmlns="http://www.w3.org/2000/svg" viewBox="0 0 16 16"><title>crop</title><g id="Layer_1" data-name="Layer 1"><path d="M15.45,11.51H13.28V5.42a6.5,6.5,0,0,0-.4-1.95L15.47.94a.29.29,0,0,0,0-.39.27.27,0,0,0-.39,0L12.49,3.07a3.59,3.59,0,0,0-1.43-.35H4.44V1c0-.31-.82-.55-1.12-.55S2.24.72,2.24,1V2.72H.55c-.3,0-.55.77-.55,1.07S.25,4.87.55,4.87H2.24v7.18A1.66,1.66,0,0,0,3.9,13.71h7.19v1.74c0,.3.77.55,1.07.55s1.12-.25,1.12-.55V13.71h2.17c.3,0,.55-.77.55-1.07S15.75,11.51,15.45,11.51ZM4.44,11V5.42A.55.55,0,0,1,5,4.87h5.54l.14,0L4.47,11.1A.35.35,0,0,1,4.44,11Zm6.65,0a.55.55,0,0,1-.56.55H5l-.13,0,6.2-6.21a.7.7,0,0,1,0,.14Z"/></g></svg>