<svg width="16" height="16" viewBox="0 0 16 16" fill="none" xmlns="http://www.w3.org/2000/svg">
<path d="M2.66861 4.00121H1.33501V13.3314C1.33606 13.6848 1.4769 14.0234 1.72677 14.2732C1.97664 14.5231 2.31524 14.664 2.66861 14.665H11.9988V13.3314H2.66861V4.00121ZM13.3314 1.33501H5.33381C4.98053 1.33606 4.64204 1.47694 4.39233 1.72684C4.14262 1.97673 4.002 2.31533 4.00121 2.66861V10.6662C4.00226 11.0193 4.143 11.3576 4.39268 11.6073C4.64236 11.857 4.9807 11.9978 5.33381 11.9988H13.3314C13.6847 11.998 14.0233 11.8574 14.2732 11.6077C14.5231 11.358 14.6639 11.0195 14.665 10.6662V2.66861C14.664 2.31524 14.5231 1.97664 14.2732 1.72677C14.0234 1.4769 13.6848 1.33606 13.3314 1.33501ZM12.6656 7.33321H9.99941V9.99941H8.66681V7.33321H6.00061V6.00061H8.66681V3.33441H9.99941V6.00061H12.6656V7.33321Z" fill="black"/>
</svg>
