<svg width="16" height="16" viewBox="0 0 16 16" fill="none" xmlns="http://www.w3.org/2000/svg">
<path d="M2.66861 4.00116H1.33501V13.3314C1.33606 13.6847 1.4769 14.0233 1.72677 14.2732C1.97664 14.5231 2.31524 14.6639 2.66861 14.665H11.9988V13.3314H2.66861V4.00116ZM13.3314 1.33496H5.33381C4.98053 1.33602 4.64204 1.47689 4.39233 1.72679C4.14262 1.97669 4.002 2.31528 4.00121 2.66856V10.6662C4.00226 11.0193 4.143 11.3576 4.39268 11.6073C4.64236 11.857 4.9807 11.9977 5.33381 11.9988H13.3314C13.6847 11.998 14.0233 11.8573 14.2732 11.6076C14.5231 11.3579 14.6639 11.0194 14.665 10.6662V2.66856C14.664 2.31519 14.5231 1.9766 14.2732 1.72673C14.0234 1.47686 13.6848 1.33602 13.3314 1.33496ZM12.6656 7.33316H9.99941V9.99936H8.66681V7.33316H6.00061V6.00056H8.66681V3.33436H9.99941V6.00056H12.6656V7.33316Z" fill="black"/>
</svg>
