<svg xmlns="http://www.w3.org/2000/svg" viewBox="0 0 16 16"><title>email-envelope</title><g id="Layer_1" data-name="Layer 1"><path d="M.988,5.8,7.43,8.926a1.069,1.069,0,0,0,.818,0L15.2,5.491a.358.358,0,0,0,.2-.321,1,1,0,0,0-1-1H1.8A1.016,1.016,0,0,0,.786,5.183v.295A.355.355,0,0,0,.988,5.8Zm13.76,1.5L8.881,10.2a2.447,2.447,0,0,1-1.026.225,2.479,2.479,0,0,1-1.021-.219l-5.4-2.614A.449.449,0,0,0,.786,8v4.657a.978.978,0,0,0,.973.978H14.312A1.089,1.089,0,0,0,15.4,12.545V7.7A.448.448,0,0,0,14.748,7.3Z"/></g></svg>