<svg xmlns="http://www.w3.org/2000/svg" viewBox="0 0 16 16">
  <title>envelope-open-outline</title>
  <g id="Layer_1" data-name="Layer 1">
    <path d="M15.955,7.511v0l0-.017a.512.512,0,0,0-.03-.173.992.992,0,0,0-.166-.4h0L15.746,6.9a1.034,1.034,0,0,0-.177-.179L9.072.445a1.531,1.531,0,0,0-2.114,0L.463,6.676a1.343,1.343,0,0,0-.45.83v7.465a1,1,0,0,0,1,1H14.959a1,1,0,0,0,1-1V7.523A.048.048,0,0,0,15.955,7.511Zm-11.74,3.82-3.2,2.951V8.5Zm1.086.354c.011-.011.026-.015.037-.027l.008-.015,2.2-2.03a.612.612,0,0,1,.388-.138A.648.648,0,0,1,8.32,9.6l5.972,5.372H1.732Zm6.506-.288,3.152-2.8v5.634ZM1.63,6.918,7.663,1.149a.5.5,0,0,1,.705,0L13.994,6.51h-.015l.854.869-3.772,3.347L8.956,8.833a1.64,1.64,0,0,0-2.051.021l-1.953,1.8L1.187,7.332l.42-.414Z" fill="#231f20"/>
  </g>
</svg>
