<svg xmlns="http://www.w3.org/2000/svg" viewBox="0 0 16 16"><title>envelope-open-outline</title><g id="Layer_1" data-name="Layer 1"><path d="M15.975,5.2c-.462-.334-.734-.5-.734-.5L8,.352.759,4.7c-.782.468-.719.434-.719.434a1.578,1.578,0,0,0-.032.317L0,14.048a1.6,1.6,0,0,0,1.6,1.6H14.4a1.6,1.6,0,0,0,1.6-1.6v-8.6A1.542,1.542,0,0,0,15.975,5.2ZM4.36,10.66,1.6,12.316V8.072ZM8,10.341l6.177,3.707-12.357,0Zm3.6.3,2.8-2.624v4.3Zm2.732-4.608L10.271,9.838,8,8.476,5.691,9.861,1.628,6.052,8,2.217Z"/></g></svg>