<svg width="16" height="16" viewBox="0 0 16 16" fill="none" xmlns="http://www.w3.org/2000/svg">
<path d="M7.95701 9.37838L6.66401 8.08543L5.80101 8.94673L7.09501 10.2397L5.80101 11.5326L6.66401 12.3949L7.95701 11.102L9.25101 12.3949L10.114 11.5326L8.82001 10.2397L10.114 8.94673L9.25101 8.08543L7.95701 9.37838Z" fill="black"/>
<path d="M9.72701 1.61569L12.784 4.66521V14.3873H3.21601V1.61569H9.72701ZM10.4 0.00799351H2.74601C2.44312 0.00746152 2.15238 0.126972 1.93755 0.340317C1.72272 0.553662 1.60133 0.843428 1.60001 1.14607V14.8569C1.60001 15.1599 1.7204 15.4505 1.93472 15.6648C2.14905 15.8792 2.43977 15.9997 2.74301 16H13.254C13.4044 16.0003 13.5534 15.9709 13.6924 15.9136C13.8314 15.8562 13.9578 15.7721 14.0642 15.6659C14.1707 15.5597 14.2551 15.4336 14.3127 15.2948C14.3704 15.156 14.4 15.0072 14.4 14.8569V3.99675L10.4 0V0.00799351Z" fill="black"/>
<path d="M13.254 6.5167H7.95701V1.13907H9.57101V4.90402H13.254V6.5167Z" fill="black"/>
</svg>
