<svg xmlns="http://www.w3.org/2000/svg" viewBox="0 0 16 16"><title>error-uploading</title><g id="Layer_1" data-name="Layer 1"><polygon points="7.957 9.378 6.664 8.084 5.801 8.946 7.095 10.24 5.801 11.534 6.664 12.397 7.957 11.103 9.251 12.397 10.114 11.534 8.82 10.24 10.114 8.946 9.251 8.084 7.957 9.378"/><path d="M9.727,1.609l3.057,3.052v9.73H3.216V1.609H9.727M10.4,0H2.746A1.144,1.144,0,0,0,1.6,1.139V14.861a1.144,1.144,0,0,0,1.143,1.144H13.254A1.144,1.144,0,0,0,14.4,14.861V3.992l-4-4Z"/><polygon points="13.254 6.514 7.957 6.514 7.957 1.132 9.571 1.132 9.571 4.9 13.254 4.9 13.254 6.514"/></g></svg>