<svg xmlns="http://www.w3.org/2000/svg" viewBox="0 0 16 16"><title>form-number</title><g id="Layer_1" data-name="Layer 1"><path d="M1.827,6.024l-.521.136a1.23,1.23,0,0,1-.26.039A.646.646,0,0,1,.891,4.926l.955-.28a2.691,2.691,0,0,1,.693-.125h.02a.732.732,0,0,1,.732.732v5.436a.732.732,0,0,1-1.464,0Z"/><path d="M4.98,9.918,6.9,8.347c.838-.684,1.165-1.06,1.165-1.619a.828.828,0,0,0-.905-.877,1.424,1.424,0,0,0-1.1.588.682.682,0,0,1-1.176-.463.745.745,0,0,1,.174-.462,2.654,2.654,0,0,1,2.2-.993A2.08,2.08,0,0,1,9.576,6.6v.02C9.576,7.75,9,8.309,7.8,9.234l-1.1.848H9.056a.646.646,0,0,1,.646.646.637.637,0,0,1-.646.635H5.394a.711.711,0,0,1-.8-.7A.935.935,0,0,1,4.98,9.918Z"/><path d="M10.948,10.708a.732.732,0,0,1-.25-.53.723.723,0,0,1,.713-.713.707.707,0,0,1,.472.183,1.922,1.922,0,0,0,1.32.5.846.846,0,0,0,.954-.82V9.311c0-.55-.492-.858-1.32-.858h-.232a.642.642,0,0,1-.636-.636.839.839,0,0,1,.319-.607L13.6,5.89H11.526a.636.636,0,1,1,0-1.272h3.286a.672.672,0,0,1,.752.655,1.074,1.074,0,0,1-.443.829L13.8,7.364a1.871,1.871,0,0,1,1.811,1.889v.019a2.2,2.2,0,0,1-2.428,2.207A3.3,3.3,0,0,1,10.948,10.708Z"/></g></svg>