<svg width="16" height="16" viewBox="0 0 16 16" fill="none" xmlns="http://www.w3.org/2000/svg">
<path d="M2.01111 10.421L4.36394 5.11199C4.43106 4.93723 4.55021 4.78725 4.7053 4.6823C4.86039 4.57735 5.04397 4.52248 5.23124 4.5251H5.31828C5.50434 4.52238 5.68667 4.57735 5.84019 4.68245C5.99372 4.78755 6.11088 4.93761 6.17558 5.11199L8.52841 10.421C8.57503 10.5144 8.60096 10.6167 8.60444 10.721C8.60616 10.814 8.58933 10.9064 8.55491 10.9928C8.5205 11.0792 8.46919 11.1579 8.40399 11.2243C8.3388 11.2907 8.26102 11.3434 8.1752 11.3794C8.08938 11.4153 7.99725 11.4339 7.90419 11.4338C7.74691 11.4334 7.59368 11.3839 7.46584 11.2924C7.338 11.2008 7.24191 11.0717 7.19094 10.9229L6.73478 9.86313H3.76573L3.29356 10.9709C3.2397 11.1081 3.14544 11.2257 3.02327 11.3082C2.90109 11.3907 2.75675 11.4341 2.60932 11.4328C2.51862 11.4331 2.42878 11.4153 2.34505 11.3805C2.26132 11.3457 2.18538 11.2945 2.12167 11.23C2.05796 11.1655 2.00776 11.0889 1.974 11.0048C1.94025 10.9206 1.92361 10.8306 1.92508 10.74C1.93124 10.6288 1.96054 10.5202 2.01111 10.421ZM6.18458 8.55237L5.25025 6.32677L4.31492 8.55237H6.18458Z" fill="black"/>
<path d="M9.31371 9.89112V9.87212C9.31371 8.74533 10.171 8.22542 11.3954 8.22542C11.8257 8.22116 12.2534 8.29257 12.6589 8.43638V8.3494C12.6589 7.74251 12.2818 7.40557 11.5495 7.40557C11.2066 7.40188 10.8652 7.45077 10.5371 7.55054C10.4691 7.57519 10.3974 7.58804 10.3251 7.58854C10.2456 7.5896 10.1667 7.57486 10.0929 7.54519C10.0192 7.51552 9.95205 7.4715 9.89547 7.41569C9.83888 7.35988 9.79395 7.29339 9.76329 7.22008C9.73263 7.14677 9.71684 7.0681 9.71685 6.98865C9.71738 6.86444 9.75604 6.74338 9.8276 6.64183C9.89915 6.54027 10.0002 6.46311 10.117 6.42075C10.6446 6.22753 11.2039 6.1356 11.7656 6.1498C12.0802 6.12591 12.3965 6.16479 12.696 6.26417C12.9955 6.36355 13.2723 6.52145 13.5102 6.72869C13.7083 6.95238 13.8598 7.21332 13.9559 7.49624C14.0519 7.77916 14.0905 8.07838 14.0694 8.3764V10.726C14.0694 10.819 14.0509 10.9111 14.0149 10.9968C13.9789 11.0826 13.9261 11.1603 13.8597 11.2255C13.7933 11.2907 13.7146 11.3419 13.6281 11.3763C13.5416 11.4107 13.4492 11.4276 13.3561 11.4258C13.1828 11.4379 13.0118 11.3809 12.8805 11.2671C12.7492 11.1533 12.6684 10.9922 12.6559 10.819V10.809C12.4601 11.0267 12.2186 11.1984 11.9486 11.3118C11.6787 11.4252 11.3869 11.4774 11.0943 11.4648C10.8717 11.49 10.6463 11.4682 10.4326 11.4009C10.2189 11.3335 10.0218 11.222 9.85393 11.0737C9.68609 10.9253 9.55127 10.7434 9.45821 10.5397C9.36516 10.336 9.31592 10.115 9.31371 9.89112ZM12.6769 9.55518V9.29823C12.3827 9.16827 12.0642 9.10249 11.7426 9.10526C11.1163 9.10526 10.7302 9.35622 10.7302 9.81913V9.83813C10.7302 10.2331 11.0573 10.464 11.5305 10.464C12.2147 10.46 12.6769 10.0841 12.6769 9.55518Z" fill="black"/>
</svg>
