<svg width="16" height="16" viewBox="0 0 16 16" fill="none" xmlns="http://www.w3.org/2000/svg">
<path d="M13.4434 10.0282V13.4465H2.55657V2.5525H8.70079V1.09998H2.33664C2.01015 1.1005 1.69718 1.23052 1.46632 1.46154C1.23546 1.69255 1.10552 2.00572 1.105 2.33242V13.6665C1.10526 13.9934 1.23508 14.3068 1.46597 14.5381C1.69686 14.7693 2.00998 14.8994 2.33664 14.9H13.6634C13.99 14.8994 14.3031 14.7693 14.534 14.5381C14.7649 14.3068 14.8947 13.9934 14.895 13.6665V10.0282H13.4434Z" fill="black"/>
<path d="M8.37589 10.7155C8.22745 10.7161 8.0844 10.6599 7.976 10.5584L4.49101 7.33323C4.47238 7.31652 4.45724 7.29629 4.44644 7.27369C4.43565 7.2511 4.42943 7.2266 4.42813 7.2016C4.42682 7.17659 4.43047 7.15157 4.43886 7.12799C4.44726 7.1044 4.46022 7.0827 4.47702 7.06414L5.5697 5.88371C5.60447 5.84682 5.65229 5.82502 5.70292 5.82296C5.75355 5.8209 5.80298 5.83876 5.84062 5.8727L8.3299 8.17354L13.3514 3.05768C13.3689 3.03918 13.39 3.02448 13.4134 3.01449C13.4368 3.00451 13.462 2.99946 13.4874 2.99966C13.5123 2.99957 13.5369 3.00438 13.5599 3.01382C13.5828 3.02326 13.6037 3.03715 13.6214 3.05468L14.767 4.18109C14.8028 4.21692 14.8229 4.26549 14.8229 4.31614C14.8229 4.36679 14.8028 4.41536 14.767 4.45119L8.79776 10.5394C8.74289 10.5956 8.67725 10.6402 8.60476 10.6705C8.53227 10.7007 8.45443 10.716 8.37589 10.7155Z" fill="black"/>
</svg>
