<svg xmlns="http://www.w3.org/2000/svg" viewBox="0 0 16 16"><title>form-text</title><g id="Layer_1" data-name="Layer 1"><path d="M2,10.42,4.37,5.11a.91.91,0,0,1,.87-.58h.08a.9.9,0,0,1,.86.58l2.35,5.31a.75.75,0,0,1,.08.3.71.71,0,0,1-.7.72.77.77,0,0,1-.72-.52L6.74,9.86h-3L3.3,11a.74.74,0,0,1-.68.47.69.69,0,0,1-.69-.7A.82.82,0,0,1,2,10.42ZM6.19,8.55,5.26,6.33,4.32,8.55Z"/><path d="M9.32,9.89v0c0-1.12.85-1.64,2.08-1.64a3.57,3.57,0,0,1,1.26.21V8.35c0-.61-.38-.94-1.11-.94a3.62,3.62,0,0,0-1,.14A.6.6,0,0,1,9.72,7a.62.62,0,0,1,.4-.57,4.53,4.53,0,0,1,1.64-.27,2.43,2.43,0,0,1,1.75.58,2.29,2.29,0,0,1,.56,1.65v2.35a.71.71,0,0,1-.72.71.66.66,0,0,1-.7-.61h0a2,2,0,0,1-1.56.65A1.6,1.6,0,0,1,9.32,9.89Zm3.36-.33V9.3a2.2,2.2,0,0,0-.93-.2c-.63,0-1,.25-1,.72v0c0,.39.33.62.8.62C12.22,10.46,12.68,10.09,12.68,9.56Z"/></g></svg>