<?xml version="1.0" encoding="utf-8"?>
<!-- Generator: Adobe Illustrator 22.0.1, SVG Export Plug-In . SVG Version: 6.00 Build 0)  -->
<svg version="1.1" id="Layer_1" xmlns="http://www.w3.org/2000/svg" xmlns:xlink="http://www.w3.org/1999/xlink" x="0px" y="0px"
	 viewBox="0 0 16 16" style="enable-background:new 0 0 16 16;" xml:space="preserve">
<style type="text/css">
	.st0{fill:#231F20;}
</style>
<g>
	<g>
		<path d="M13.4,10v3.4H2.6V2.6h6.1V1.1H2.3c-0.7,0-1.2,0.6-1.2,1.2v11.3c0,0.7,0.6,1.2,1.2,1.2h11.3c0.7,0,1.2-0.6,1.2-1.2V10H13.4
			z"/>
	</g>
	<g>
		<path class="st0" d="M8.4,10.7c-0.1,0-0.3-0.1-0.4-0.2L4.5,7.3c-0.1-0.1-0.1-0.2,0-0.3l1.1-1.2c0-0.1,0.1-0.1,0.1-0.1
			c0,0,0.1,0,0.1,0.1l2.5,2.3l5-5.1c0,0,0.1-0.1,0.1-0.1c0,0,0.1,0,0.1,0.1l1.1,1.1c0.1,0.1,0.1,0.2,0,0.3l-6,6.1
			C8.7,10.7,8.5,10.7,8.4,10.7z"/>
	</g>
</g>
</svg>
