<svg width="16" height="16" viewBox="0 0 16 16" fill="none" xmlns="http://www.w3.org/2000/svg">
<path d="M13.8205 6.05011V14.8564C13.8205 15.1597 13.6999 15.4506 13.4854 15.665C13.2708 15.8795 12.9798 16 12.6764 16H2.16605C2.01564 16.0003 1.86666 15.9709 1.72763 15.9135C1.58859 15.8562 1.46224 15.772 1.35579 15.6657C1.24935 15.5595 1.1649 15.4334 1.10728 15.2945C1.04966 15.1556 1.02 15.0067 1.02 14.8564V1.13865C1.02133 0.835853 1.14272 0.545943 1.35756 0.332492C1.5724 0.11904 1.86315 -0.000530483 2.16605 1.76935e-06H11.1204L9.99033 1.6135H2.63606V14.3865H12.2044V8.3364L13.8205 6.05011Z" fill="black"/>
<path d="M14.4535 0.985694L13.4405 0.287912C13.1717 0.10355 12.8415 0.0317743 12.5204 0.0879743C12.3617 0.114988 12.2098 0.173043 12.0736 0.258815C11.9373 0.344587 11.8193 0.45639 11.7264 0.587818L7.66524 6.34302L7.68225 8.42637C7.68375 8.54879 7.71447 8.66909 7.77188 8.77725C7.82928 8.8854 7.91169 8.97829 8.01226 9.04817C8.11347 9.11747 8.22957 9.16199 8.35117 9.17814C8.47278 9.19429 8.59648 9.18162 8.71228 9.14114L10.6964 8.44136L14.7575 2.68816C14.85 2.55709 14.9157 2.40901 14.9507 2.25245C14.9857 2.0959 14.9894 1.93396 14.9615 1.77598C14.9336 1.618 14.8747 1.4671 14.7882 1.33197C14.7017 1.19685 14.5893 1.08018 14.4575 0.988693L14.4535 0.985694ZM13.6095 2.01037L9.84832 7.33671L9.00829 7.63661L9.00129 6.75589L12.7594 1.42955L13.6095 2.01037Z" fill="black"/>
<path d="M7.07922 4.62655H3.5741V5.49828H7.07922V4.62655Z" fill="black"/>
<path d="M7.07922 6.36601H3.5741V7.23774H7.07922V6.36601Z" fill="black"/>
<path d="M5.32216 8.09247H3.5741V8.9642H5.32216V8.09247Z" fill="black"/>
</svg>
