<svg xmlns="http://www.w3.org/2000/svg" viewBox="0 0 16 16">
  <title>form-dropdown</title>
  <g id="Layer_1" data-name="Layer 1">
    <g>
      <path d="M13.962.872H2.038a.872.872,0,0,0-.852.891V14.237a.872.872,0,0,0,.852.891H13.962a.872.872,0,0,0,.852-.891V1.763A.872.872,0,0,0,13.962.872Zm-.851,12.474H2.889V2.654H13.111Z" fill="#010101"/>
      <path d="M11.053,6.537l-2.74,3.531A.451.451,0,0,1,8,10.19a.468.468,0,0,1-.3-.122L4.947,6.537a.393.393,0,0,1-.093-.466.4.4,0,0,1,.4-.261h5.506a.424.424,0,0,1,.294.727Z" fill="#231f20"/>
    </g>
  </g>
</svg>
