<svg width="16" height="16" viewBox="0 0 16 16" fill="none" xmlns="http://www.w3.org/2000/svg">
<path d="M13.9627 0.869995H2.03731C1.80617 0.875242 1.58657 0.972071 1.42679 1.1392C1.26701 1.30632 1.18011 1.53007 1.18521 1.76125V14.2387C1.18011 14.4699 1.26701 14.6937 1.42679 14.8608C1.58657 15.0279 1.80617 15.1247 2.03731 15.13H13.9627C14.1938 15.1247 14.4134 15.0279 14.5732 14.8608C14.733 14.6937 14.8199 14.4699 14.8148 14.2387V1.76125C14.8199 1.53007 14.733 1.30632 14.5732 1.1392C14.4134 0.972071 14.1938 0.875242 13.9627 0.869995ZM13.1116 13.3475H2.88841V2.6525H13.1116V13.3475Z" fill="black"/>
<path d="M11.0565 6.53763L8.3152 10.068C8.23043 10.1474 8.11826 10.1911 8.00205 10.19C7.89066 10.1863 7.78424 10.1431 7.7019 10.068L4.94757 6.53763C4.8833 6.48077 4.83941 6.40444 4.82261 6.32031C4.80581 6.23619 4.81702 6.14887 4.85453 6.07171C4.88428 5.99099 4.93928 5.922 5.01137 5.87499C5.08347 5.82798 5.16881 5.80546 5.25472 5.81076H10.7634C10.8474 5.81127 10.9295 5.83673 10.999 5.88391C11.0686 5.93109 11.1225 5.99786 11.1541 6.07574C11.1856 6.15363 11.1932 6.23911 11.176 6.32135C11.1589 6.40358 11.1176 6.47886 11.0575 6.53763H11.0565Z" fill="black"/>
</svg>
