<svg width="16" height="16" viewBox="0 0 16 16" fill="none" xmlns="http://www.w3.org/2000/svg">
<path d="M14.2115 11.7387H10.283C10.1106 11.7387 9.94526 11.8072 9.82335 11.9291C9.70144 12.0511 9.63295 12.2165 9.63295 12.3889C9.63295 12.5613 9.70144 12.7267 9.82335 12.8487C9.94526 12.9706 10.1106 13.0391 10.283 13.0391H14.2115C14.2986 13.0425 14.3856 13.0283 14.4672 12.9973C14.5487 12.9663 14.6232 12.9191 14.6861 12.8587C14.749 12.7982 14.799 12.7256 14.8332 12.6453C14.8674 12.565 14.885 12.4787 14.885 12.3914C14.885 12.3041 14.8674 12.2178 14.8332 12.1375C14.799 12.0572 14.749 11.9846 14.6861 11.9241C14.6232 11.8637 14.5487 11.8165 14.4672 11.7855C14.3856 11.7545 14.2986 11.7403 14.2115 11.7437V11.7387Z" fill="black"/>
<path d="M8.91287 14.4625H3.21223C3.0323 14.462 2.85993 14.3901 2.73299 14.2625C2.60604 14.135 2.53489 13.9623 2.53515 13.7823V10.6294C2.53537 10.4093 2.60243 10.1944 2.72745 10.0133C2.85246 9.83216 3.02954 9.69329 3.23523 9.61506L7.01265 8.17462L10.9241 9.66507C11.0042 9.69566 11.0894 9.71093 11.1751 9.71009C11.3426 9.71029 11.5049 9.65176 11.6337 9.54469C11.7625 9.43762 11.8497 9.28878 11.8801 9.12405C11.9106 8.95932 11.8823 8.78913 11.8003 8.64308C11.7183 8.49703 11.5876 8.38436 11.4312 8.32466L9.05889 7.41939L9.2169 7.31135C9.91665 6.83993 10.4465 6.15622 10.7286 5.36091C11.0106 4.5656 11.0298 3.70074 10.7834 2.89369C10.537 2.08663 10.038 1.38005 9.35984 0.878006C8.68172 0.375958 7.86034 0.10498 7.01666 0.10498C6.17297 0.10498 5.35159 0.375958 4.67347 0.878006C3.99535 1.38005 3.49634 2.08663 3.24993 2.89369C3.00352 3.70074 3.02274 4.5656 3.30475 5.36091C3.58676 6.15622 4.11666 6.83993 4.81641 7.31135L4.97443 7.41839L2.73517 8.27265C2.25908 8.45606 1.84957 8.77919 1.56042 9.19961C1.27127 9.62003 1.116 10.1181 1.11499 10.6284V13.7813C1.11445 14.3393 1.33473 14.8748 1.72769 15.2709C2.12066 15.6669 2.65438 15.8913 3.21223 15.895H8.91287C9.10279 15.895 9.28492 15.8195 9.41921 15.6852C9.55351 15.5509 9.62895 15.3687 9.62895 15.1788C9.62895 14.9888 9.55351 14.8066 9.41921 14.6723C9.28492 14.538 9.10279 14.4625 8.91287 14.4625ZM4.49837 4.03535C4.49976 3.53867 4.64827 3.05354 4.92517 2.64124C5.20206 2.22894 5.59491 1.90796 6.05409 1.71885C6.51327 1.52974 7.01818 1.48098 7.50505 1.57872C7.99193 1.67647 8.43892 1.91634 8.78957 2.26803C9.14022 2.61972 9.37879 3.06747 9.47516 3.5547C9.57154 4.04194 9.52138 4.54682 9.33102 5.00556C9.14067 5.4643 8.81866 5.85633 8.40567 6.13212C7.99268 6.40792 7.50724 6.55512 7.01065 6.55512C6.34363 6.55353 5.70448 6.28732 5.23348 5.81492C4.76248 5.34251 4.49811 4.7025 4.49837 4.03535Z" fill="black"/>
</svg>
