<svg xmlns="http://www.w3.org/2000/svg" viewBox="0 0 16 16">
  <title>groups-removed</title>
  <g id="Layer_1" data-name="Layer 1">
    <path d="M10.723,13.14a.548.548,0,0,1,0-1.1h3.929a.548.548,0,0,1,0,1.1Z" fill="#010101"/>
    <path d="M3.654,16a2.011,2.011,0,0,1-2-2.013V10.836A2.429,2.429,0,0,1,3.205,8.574l2.418-.923-.317-.214a3.839,3.839,0,1,1,4.291,0l-.317.214,2.554.974a.616.616,0,0,1-.22,1.192h0a.594.594,0,0,1-.216-.039l-3.946-1.5L3.639,9.728a1.188,1.188,0,0,0-.762,1.108v3.151a.78.78,0,0,0,.777.781h5.7a.616.616,0,0,1,0,1.232Zm3.8-14.376a2.619,2.619,0,1,0,2.611,2.619A2.619,2.619,0,0,0,7.452,1.624Z" fill="#010101"/>
  </g>
</svg>
