<svg width="16" height="16" viewBox="0 0 16 16" fill="none" xmlns="http://www.w3.org/2000/svg">
<path d="M14.2115 11.7387H10.283C10.1106 11.7387 9.94526 11.8072 9.82335 11.9292C9.70144 12.0511 9.63295 12.2165 9.63295 12.3889C9.63295 12.5614 9.70144 12.7268 9.82335 12.8487C9.94526 12.9706 10.1106 13.0391 10.283 13.0391H14.2115C14.2986 13.0426 14.3856 13.0283 14.4672 12.9973C14.5487 12.9663 14.6232 12.9192 14.6861 12.8587C14.749 12.7982 14.799 12.7256 14.8332 12.6454C14.8674 12.5651 14.885 12.4787 14.885 12.3914C14.885 12.3042 14.8674 12.2178 14.8332 12.1375C14.799 12.0572 14.749 11.9847 14.6861 11.9242C14.6232 11.8637 14.5487 11.8165 14.4672 11.7855C14.3856 11.7545 14.2986 11.7403 14.2115 11.7437V11.7387Z" fill="black"/>
<path d="M8.91287 14.4626H3.21223C3.0323 14.462 2.85993 14.3901 2.73299 14.2626C2.60604 14.135 2.53489 13.9623 2.53515 13.7824V10.6294C2.53537 10.4093 2.60243 10.1945 2.72745 10.0133C2.85246 9.83219 3.02954 9.69331 3.23523 9.61508L7.01265 8.17464L10.9241 9.6651C11.0042 9.69568 11.0894 9.71095 11.1751 9.71011C11.3426 9.71031 11.5049 9.65179 11.6337 9.54471C11.7625 9.43764 11.8497 9.2888 11.8801 9.12407C11.9106 8.95934 11.8823 8.78915 11.8003 8.6431C11.7183 8.49705 11.5876 8.38438 11.4312 8.32469L9.05889 7.41941L9.2169 7.31138C9.91665 6.83995 10.4465 6.15624 10.7286 5.36094C11.0106 4.56563 11.0298 3.70076 10.7834 2.89371C10.537 2.08666 10.038 1.38008 9.35984 0.878029C8.68172 0.375981 7.86034 0.105003 7.01666 0.105003C6.17297 0.105003 5.35159 0.375981 4.67347 0.878029C3.99535 1.38008 3.49634 2.08666 3.24993 2.89371C3.00352 3.70076 3.02274 4.56563 3.30475 5.36094C3.58676 6.15624 4.11666 6.83995 4.81641 7.31138L4.97443 7.41841L2.73517 8.27267C2.25908 8.45608 1.84957 8.77921 1.56042 9.19963C1.27127 9.62005 1.116 10.1181 1.11499 10.6284V13.7814C1.11445 14.3393 1.33473 14.8748 1.72769 15.2709C2.12066 15.6669 2.65438 15.8913 3.21223 15.895H8.91287C9.10279 15.895 9.28492 15.8195 9.41921 15.6852C9.55351 15.5509 9.62895 15.3687 9.62895 15.1788C9.62895 14.9888 9.55351 14.8067 9.41921 14.6723C9.28492 14.538 9.10279 14.4626 8.91287 14.4626ZM4.49837 4.03537C4.49976 3.53869 4.64827 3.05357 4.92517 2.64127C5.20206 2.22897 5.59491 1.90799 6.05409 1.71888C6.51327 1.52976 7.01818 1.481 7.50505 1.57874C7.99193 1.67649 8.43892 1.91636 8.78957 2.26805C9.14022 2.61975 9.37879 3.06749 9.47516 3.55473C9.57154 4.04197 9.52138 4.54684 9.33102 5.00558C9.14067 5.46432 8.81866 5.85635 8.40567 6.13215C7.99268 6.40795 7.50724 6.55514 7.01065 6.55514C6.34363 6.55355 5.70448 6.28735 5.23348 5.81494C4.76248 5.34254 4.49811 4.70253 4.49837 4.03537Z" fill="black"/>
</svg>
