<svg xmlns="http://www.w3.org/2000/svg" viewBox="0 0 16 16"><title>groups-added</title><g id="Layer_1" data-name="Layer 1"><path d="M14.452,12.486H13.136V11.17a.649.649,0,0,0-1.3,0v1.316H10.524a.648.648,0,1,0,0,1.3h1.315V15.1a.649.649,0,0,0,1.3,0V13.781h1.316a.648.648,0,1,0,0-1.295Z"/><path d="M9.154,14.568h-5.7a.679.679,0,0,1-.677-.68V10.736a1.086,1.086,0,0,1,.7-1.014l3.777-1.44,3.911,1.49a.685.685,0,0,0,.251.045.716.716,0,0,0,.654-1.009.71.71,0,0,0-.4-.376L9.3,7.527l.159-.108a3.938,3.938,0,1,0-4.4,0l.158.107-2.239.854a2.528,2.528,0,0,0-1.62,2.355v3.152A2.11,2.11,0,0,0,3.454,16h5.7a.716.716,0,0,0,0-1.432ZM7.252,1.625A2.519,2.519,0,1,1,4.74,4.144,2.517,2.517,0,0,1,7.252,1.625Z"/></g></svg>