<svg width="16" height="16" viewBox="0 0 16 16" fill="none" xmlns="http://www.w3.org/2000/svg">
<path d="M12.7776 12.2749V10.9585C12.7776 10.7861 12.7091 10.6207 12.5872 10.4988C12.4653 10.3768 12.3 10.3083 12.1276 10.3083C11.9553 10.3083 11.7899 10.3768 11.668 10.4988C11.5461 10.6207 11.4777 10.7861 11.4777 10.9585V12.2749H10.1657C9.99332 12.2749 9.82799 12.3434 9.7061 12.4654C9.5842 12.5873 9.51572 12.7527 9.51572 12.9251C9.51572 13.0976 9.5842 13.2629 9.7061 13.3849C9.82799 13.5068 9.99332 13.5753 10.1657 13.5753H11.4807V14.8897C11.4807 15.0622 11.5491 15.2275 11.671 15.3495C11.7929 15.4714 11.9583 15.5399 12.1306 15.5399C12.303 15.5399 12.4683 15.4714 12.5902 15.3495C12.7121 15.2275 12.7806 15.0622 12.7806 14.8897V13.5703H14.0966C14.1837 13.5737 14.2707 13.5595 14.3522 13.5285C14.4338 13.4975 14.5082 13.4504 14.5711 13.3899C14.634 13.3294 14.684 13.2568 14.7182 13.1765C14.7524 13.0963 14.77 13.0099 14.77 12.9226C14.77 12.8354 14.7524 12.749 14.7182 12.6687C14.684 12.5884 14.634 12.5158 14.5711 12.4554C14.5082 12.3949 14.4338 12.3477 14.3522 12.3167C14.2707 12.2857 14.1837 12.2715 14.0966 12.2749H12.7776Z" fill="black"/>
<path d="M8.79575 14.3576H3.09593C2.91603 14.357 2.74369 14.2851 2.61676 14.1576C2.48983 14.03 2.41869 13.8573 2.41896 13.6774V10.5244C2.41918 10.3043 2.48622 10.0894 2.61122 9.90832C2.73622 9.72718 2.91327 9.58831 3.11893 9.51008L6.89581 8.06964L10.8067 9.56009C10.8868 9.59068 10.9719 9.60595 11.0577 9.60511C11.1772 9.60522 11.2949 9.57539 11.4 9.51833C11.505 9.46127 11.5941 9.3788 11.6592 9.27844C11.7242 9.17809 11.7631 9.06304 11.7722 8.9438C11.7814 8.82456 11.7606 8.70492 11.7116 8.5958C11.6733 8.50968 11.6181 8.43208 11.5495 8.3675C11.4808 8.30293 11.4 8.25268 11.3117 8.21968L8.94174 7.3144L9.10074 7.20637C9.80038 6.73495 10.3302 6.05124 10.6122 5.25593C10.8941 4.46062 10.9134 3.59576 10.667 2.78871C10.4206 1.98165 9.92167 1.27507 9.24365 0.773025C8.56563 0.270978 7.74437 0 6.90081 0C6.05725 0 5.23598 0.270978 4.55796 0.773025C3.87994 1.27507 3.38101 1.98165 3.13463 2.78871C2.88826 3.59576 2.90747 4.46062 3.18944 5.25593C3.47141 6.05124 4.00123 6.73495 4.70088 7.20637L4.85888 7.31341L2.61995 8.16767C2.14384 8.35096 1.73432 8.67406 1.44519 9.09451C1.15607 9.51495 1.00087 10.0131 1 10.5234V13.6764C0.999197 14.2342 1.21922 14.7697 1.61197 15.1658C2.00472 15.5619 2.53825 15.7863 3.09593 15.79H8.79575C8.98563 15.79 9.16775 15.7145 9.30202 15.5802C9.43629 15.4459 9.51172 15.2637 9.51172 15.0738C9.51172 14.8838 9.43629 14.7017 9.30202 14.5673C9.16775 14.433 8.98563 14.3576 8.79575 14.3576ZM6.89381 1.4106C7.3923 1.40921 7.87999 1.55582 8.29515 1.83185C8.7103 2.10788 9.03424 2.50093 9.22597 2.96123C9.41769 3.42154 9.46858 3.9284 9.37218 4.41765C9.27577 4.90689 9.03642 5.35653 8.68443 5.70963C8.33243 6.06272 7.88362 6.3034 7.3948 6.4012C6.90599 6.49899 6.39916 6.4495 5.93848 6.259C5.4778 6.06849 5.08399 5.74553 4.8069 5.331C4.5298 4.91648 4.38189 4.42903 4.38189 3.93037C4.38136 3.26313 4.64561 2.62297 5.1166 2.15051C5.58759 1.67805 6.2268 1.41192 6.89381 1.4106Z" fill="black"/>
</svg>
