<svg xmlns="http://www.w3.org/2000/svg" viewBox="0 0 16 16">
  <title>heart-outline</title>
  <g id="Layer_1" data-name="Layer 1">
    <path d="M8.023,15.024a1.577,1.577,0,0,1-1.133-.478L1.9,9.47A4.361,4.361,0,0,1,.662,6.227a4.283,4.283,0,0,1,1.53-3.111A4.282,4.282,0,0,1,7.973,3.5l.05.051a4.218,4.218,0,0,1,7.263,2.776,4.352,4.352,0,0,1-1.237,3.243L9.156,14.546A1.579,1.579,0,0,1,8.023,15.024ZM4.826,3.6a2.676,2.676,0,0,0-1.735.62A2.861,2.861,0,0,0,2.069,6.293,2.9,2.9,0,0,0,2.9,8.458l4.99,5.076a.168.168,0,0,0,.275,0l4.894-4.977a2.9,2.9,0,0,0,.826-2.165,2.862,2.862,0,0,0-1.023-2.076,2.883,2.883,0,0,0-3.886.294l-.948.965L6.977,4.511A3.03,3.03,0,0,0,4.826,3.6Z" fill="#010101"/>
  </g>
</svg>
