<svg width="16" height="16" viewBox="0 0 16 16" fill="none" xmlns="http://www.w3.org/2000/svg">
<path d="M3.51767 4.93501L0.819935 6.40901L0.100006 3.42001L3.51767 4.93501Z" fill="black"/>
<path d="M7.88723 1.15059e-05C6.3775 0.00104642 4.89902 0.4302 3.62332 1.23768C2.34763 2.04515 1.32703 3.19785 0.679949 4.56201H2.50277C3.24967 3.38862 4.35849 2.49053 5.66136 2.0037C6.96424 1.51687 8.39024 1.4678 9.72349 1.86392C11.0567 2.26004 12.2247 3.07978 13.0504 4.19905C13.8762 5.31833 14.3149 6.67619 14.3001 8.0671C14.2853 9.458 13.8178 10.8062 12.9683 11.9076C12.1189 13.0091 10.9338 13.8037 9.59238 14.1713C8.25099 14.539 6.82636 14.4595 5.53415 13.945C4.24195 13.4306 3.15251 12.5091 2.43078 11.32H0.622954C1.21938 12.6277 2.15707 13.7506 3.33745 14.5705C4.51782 15.3905 5.89728 15.8772 7.3308 15.9797C8.76433 16.0821 10.199 15.7964 11.4839 15.1525C12.7688 14.5087 13.8566 13.5306 14.6328 12.3209C15.4091 11.1113 15.8451 9.71488 15.8952 8.27843C15.9452 6.84198 15.6073 5.41858 14.9171 4.15788C14.2269 2.89717 13.2098 1.84572 11.9727 1.11407C10.7357 0.382412 9.32441 -0.00242584 7.88723 1.15059e-05Z" fill="black"/>
<path d="M7.09531 4.00001V8.80001L11.2949 11.32L11.8948 10.336L8.29519 8.20001V4.00001H7.09531Z" fill="black"/>
</svg>
