<svg xmlns="http://www.w3.org/2000/svg" viewBox="0 0 16 16">
  <g id="Layer_1" data-name="Layer 1">
    <path d="M15.24,2.825H.759A.761.761,0,0,0,0,3.586v8.857a.762.762,0,0,0,.759.761H15.24a.762.762,0,0,0,.76-.761V3.586A.761.761,0,0,0,15.24,2.825Zm-.111,9.507H.856V3.683H15.129Zm-12.2-1.3h3.21a.514.514,0,0,0,.513-.515V9.054a1,1,0,0,0-.629-.932L5.5,7.914a.9.9,0,0,0,.455-.782V6.4A1.427,1.427,0,1,0,3.1,6.4v.733a.905.905,0,0,0,.459.786l-.517.2a1,1,0,0,0-.633.934v1.461A.514.514,0,0,0,2.926,11.032ZM3.88,6.4a.651.651,0,1,1,1.3,0v.733a.13.13,0,0,1-.067.113l-.429.232a.32.32,0,0,1-.309,0l-.429-.233a.127.127,0,0,1-.067-.112ZM3.188,9.056a.223.223,0,0,1,.143-.21l1.21-.479,1.19.477a.225.225,0,0,1,.142.21v1.2H3.188ZM13.412,5.838h-5.2V6.71h5.2Zm0,1.74h-5.2v.873h5.2ZM10.807,9.305H8.216v.872h2.591Z"/>
  </g>
</svg>
