<svg xmlns="http://www.w3.org/2000/svg" viewBox="0 0 16 16"><title>id-card-outline</title><g id="Layer_1" data-name="Layer 1"><path d="M15.24,2.82H.76A.77.77,0,0,0,0,3.59v8.85a.76.76,0,0,0,.76.76H15.24a.76.76,0,0,0,.76-.76V3.59A.77.77,0,0,0,15.24,2.82Zm-.11,9.51H.86V3.68H15.13ZM2.93,11H6.14a.51.51,0,0,0,.51-.51V9.05A1,1,0,0,0,6,8.12L5.5,7.91A.9.9,0,0,0,6,7.13V6.4a1.43,1.43,0,1,0-2.86,0v.73a.91.91,0,0,0,.46.79l-.51.2a1,1,0,0,0-.64.94v1.46A.51.51,0,0,0,2.93,11ZM3.88,6.4a.65.65,0,0,1,1.3,0v.73a.11.11,0,0,1-.07.11l-.42.24a.34.34,0,0,1-.31,0L4,7.24a.12.12,0,0,1-.07-.11ZM3.19,9.06a.21.21,0,0,1,.14-.21l1.21-.48,1.19.47a.23.23,0,0,1,.14.21v1.2H3.19ZM13.41,5.84H8.22v.87h5.19Zm0,1.74H8.22v.87h5.19ZM10.81,9.3H8.22v.88h2.59Z"/></g></svg>