<svg width="16" height="16" viewBox="0 0 16 16" fill="none" xmlns="http://www.w3.org/2000/svg">
<path d="M3.60567 6.76501C3.36127 6.76501 3.12237 6.83745 2.91916 6.97315C2.71596 7.10885 2.55758 7.30173 2.46406 7.5274C2.37053 7.75307 2.34606 8.00138 2.39374 8.24095C2.44142 8.48052 2.5591 8.70057 2.73192 8.87329C2.90473 9.04601 3.1249 9.16363 3.3646 9.21128C3.6043 9.25894 3.85275 9.23448 4.07854 9.14101C4.30433 9.04753 4.49731 8.88924 4.63309 8.68614C4.76887 8.48305 4.84134 8.24427 4.84134 8.00001C4.84134 7.67247 4.71115 7.35835 4.47942 7.12674C4.24768 6.89513 3.93339 6.76501 3.60567 6.76501Z" fill="black"/>
<path d="M8.0005 6.76501C7.7561 6.76501 7.5172 6.83745 7.31399 6.97315C7.11079 7.10885 6.95241 7.30173 6.85888 7.5274C6.76536 7.75307 6.74089 8.00138 6.78857 8.24095C6.83625 8.48052 6.95393 8.70057 7.12674 8.87329C7.29956 9.04601 7.51973 9.16363 7.75943 9.21128C7.99913 9.25894 8.24758 9.23448 8.47337 9.14101C8.69916 9.04753 8.89214 8.88924 9.02792 8.68614C9.16369 8.48305 9.23617 8.24427 9.23617 8.00001C9.23617 7.83783 9.2042 7.67724 9.14211 7.5274C9.08001 7.37756 8.98899 7.24142 8.87425 7.12674C8.7595 7.01206 8.62328 6.92109 8.47337 6.85902C8.32345 6.79696 8.16277 6.76501 8.0005 6.76501Z" fill="black"/>
<path d="M12.3943 6.76501C12.1499 6.76501 11.911 6.83745 11.7078 6.97315C11.5046 7.10885 11.3462 7.30173 11.2527 7.5274C11.1592 7.75307 11.1347 8.00138 11.1824 8.24095C11.2301 8.48052 11.3478 8.70057 11.5206 8.87329C11.6934 9.04601 11.9136 9.16363 12.1533 9.21128C12.393 9.25894 12.6414 9.23448 12.8672 9.14101C13.093 9.04753 13.286 8.88924 13.4217 8.68614C13.5575 8.48305 13.63 8.24427 13.63 8.00001C13.63 7.67247 13.4998 7.35835 13.2681 7.12674C13.0363 6.89513 12.722 6.76501 12.3943 6.76501Z" fill="black"/>
</svg>
