<svg width="16" height="16" viewBox="0 0 16 16" fill="none" xmlns="http://www.w3.org/2000/svg">
<path d="M7.70405 15.8801H1.60405C1.20405 15.8801 0.804052 15.5801 0.604052 15.1801C0.404052 14.7801 0.504052 14.2801 0.804052 13.9801L4.90405 9.88005H1.60405C1.00405 9.88005 0.504052 9.38005 0.504052 8.78005C0.504052 8.18005 1.00405 7.68005 1.60405 7.68005H7.70405C8.10405 7.68005 8.50405 7.98005 8.70405 8.38005C8.90405 8.78005 8.80405 9.28005 8.50405 9.58005L4.40405 13.6801H7.80405C8.40405 13.6801 8.90405 14.1801 8.90405 14.7801C8.80405 15.3801 8.30405 15.8801 7.70405 15.8801Z" fill="black"/>
<path d="M14.7041 6.08005H10.4041C10.1041 6.08005 9.80405 5.88005 9.60405 5.58005C9.60405 5.28005 9.60405 4.88005 9.90405 4.68005L12.8041 1.88005H10.4041C9.90405 1.88005 9.60405 1.48005 9.60405 1.08005C9.60405 0.680054 10.0041 0.180054 10.4041 0.180054H14.7041C15.0041 0.180054 15.3041 0.380054 15.5041 0.680054C15.6041 0.980054 15.6041 1.38005 15.3041 1.58005L12.5041 4.38005H14.8041C15.3041 4.38005 15.6041 4.78005 15.6041 5.18005C15.6041 5.68005 15.2041 6.08005 14.7041 6.08005Z" fill="black"/>
</svg>
