<svg xmlns="http://www.w3.org/2000/svg" viewBox="0 0 16 16"><title>instagram-outline</title><g id="Layer_1" data-name="Layer 1"><path d="M13,.006H3A2.993,2.993,0,0,0,.01,3V13A2.993,2.993,0,0,0,3,15.986H13A2.993,2.993,0,0,0,15.99,13V3A2.993,2.993,0,0,0,13,.006ZM13.954,13A.955.955,0,0,1,13,13.95H3A.955.955,0,0,1,2.046,13V7.621h1.78c-.011.124-.019.249-.019.375a4.193,4.193,0,0,0,8.386,0c0-.126-.008-.251-.019-.375h1.78ZM5.842,8A2.158,2.158,0,1,1,8,10.154,2.158,2.158,0,0,1,5.842,8Zm8.112-2.411H11.427a4.186,4.186,0,0,0-6.854,0H2.046V3A.954.954,0,0,1,3,2.043H13A.954.954,0,0,1,13.954,3Z"/><rect x="11.247" y="2.816" width="1.968" height="1.968" rx="0.62" ry="0.62"/></g></svg>