<svg xmlns="http://www.w3.org/2000/svg" viewBox="0 0 16 16"><title>list-options</title><g id="Layer_1" data-name="Layer 1"><path d="M14.707,2.164H6.026a.805.805,0,0,0-.8.8V3.82a.805.805,0,0,0,.8.805h8.681a.8.8,0,0,0,.8-.805V2.969A.8.8,0,0,0,14.707,2.164Zm.757,6.587.012,0a.777.777,0,0,0,.036-.18V8.554l-.069.145Zm.027,3.673-.013.03.034.066v-.041c0-.02-.01-.038-.011-.058ZM6.463,8.751l.016-.04-.686-1.36.433-.432h-.2a.805.805,0,0,0-.8.805v.851a.8.8,0,0,0,.2.518ZM2.679,1.945H1.293a.8.8,0,0,0-.8.805V4.031a.8.8,0,0,0,.805.805H2.679a.8.8,0,0,0,.805-.805V2.75A.8.8,0,0,0,2.679,1.945Zm3.784,10.5-1.121-.368a.779.779,0,0,0-.121.4v.852a.806.806,0,0,0,.8.8h.083l-.275-.276.65-1.358Zm-3.784-.993H1.293a.8.8,0,0,0-.8.8v1.281a.805.805,0,0,0,.805.8H2.679a.805.805,0,0,0,.805-.8V12.261A.8.8,0,0,0,2.679,11.456Zm0-4.756H1.293a.805.805,0,0,0-.8.8V8.786a.8.8,0,0,0,.805.8H2.679a.8.8,0,0,0,.805-.8V7.505A.805.805,0,0,0,2.679,6.7Z"/><path d="M10.349,5.683l-.4,1.229a4.447,4.447,0,0,0-.884.365L7.919,6.7l-.854.855L7.641,8.7a4.447,4.447,0,0,0-.365.884l-1.229.4v1.229l1.229.4a4.423,4.423,0,0,0,.365.884l-.547,1.143.854.854,1.143-.576a4.526,4.526,0,0,0,.893.365l.394,1.23h1.229l.4-1.23a4.526,4.526,0,0,0,.893-.365l1.133.548.865-.855-.586-1.143a4.526,4.526,0,0,0,.365-.893l1.2-.365V9.986l-1.23-.4a4.447,4.447,0,0,0-.365-.884l.547-1.142L13.98,6.7l-1.143.576a4.526,4.526,0,0,0-.893-.365l-.365-1.229Zm.615,2.766A2.151,2.151,0,1,1,8.813,10.6,2.137,2.137,0,0,1,10.964,8.449Z"/></g></svg>