<svg xmlns="http://www.w3.org/2000/svg" viewBox="0 0 16 16"><title>location</title><g id="Layer_1" data-name="Layer 1"><path d="M13.384,3.86a6.109,6.109,0,0,0-10.769,0,5.854,5.854,0,0,0,.439,6.182l3.207,4.45a2.152,2.152,0,0,0,3.478,0l3.207-4.45A5.852,5.852,0,0,0,13.384,3.86ZM11.5,9.034l-3.207,4.45a.36.36,0,0,1-.582,0L4.5,9.034a4.087,4.087,0,0,1-.31-4.373A4.226,4.226,0,0,1,8,2.382a4.226,4.226,0,0,1,3.808,2.279A4.087,4.087,0,0,1,11.5,9.034ZM8,5A1.8,1.8,0,1,0,9.829,6.8,1.814,1.814,0,0,0,8,5Z"/></g></svg>