<svg width="16" height="16" viewBox="0 0 16 16" fill="none" xmlns="http://www.w3.org/2000/svg">
<path d="M11.6708 6H15.37V1H10.3711V5.193L8.47154 7.25H7.04086C6.85707 6.47493 6.3951 5.79435 5.74268 5.33754C5.09025 4.88072 4.29281 4.67947 3.50181 4.77201C2.7108 4.86454 1.98132 5.24443 1.45191 5.83951C0.922487 6.43459 0.630005 7.20343 0.630005 8C0.630005 8.79657 0.922487 9.56541 1.45191 10.1605C1.98132 10.7556 2.7108 11.1355 3.50181 11.228C4.29281 11.3205 5.09025 11.1193 5.74268 10.6625C6.3951 10.2056 6.85707 9.52507 7.04086 8.75H8.47154L10.3711 10.808V15H15.37V10H11.6708L9.82424 8L11.6708 6ZM3.88756 9.75C3.54152 9.75 3.20325 9.64736 2.91553 9.45507C2.6278 9.26278 2.40355 8.98947 2.27113 8.6697C2.1387 8.34993 2.10406 7.99806 2.17157 7.65859C2.23907 7.31913 2.40571 7.00731 2.6504 6.76256C2.89508 6.51782 3.20683 6.35115 3.54623 6.28363C3.88562 6.2161 4.23741 6.25076 4.55711 6.38321C4.8768 6.51566 5.15006 6.73997 5.34231 7.02775C5.53456 7.31554 5.63717 7.65388 5.63717 8C5.63664 8.46397 5.45214 8.90878 5.12414 9.23685C4.79613 9.56493 4.35142 9.74947 3.88756 9.75Z" fill="black"/>
</svg>
