<svg xmlns="http://www.w3.org/2000/svg" viewBox="0 0 16 16">
  <title>merge-people</title>
  <g id="Layer_1" data-name="Layer 1">
    <g>
      <path d="M13.2,6.784a2.047,2.047,0,1,0-2.047-2.047A2.048,2.048,0,0,0,13.2,6.784Z" fill="#231f20"/>
      <path d="M13.177,7.762a2.589,2.589,0,0,0-2.589,2.589v1.67a.68.68,0,0,0,.721.671h3.736a.68.68,0,0,0,.721-.671v-1.67A2.589,2.589,0,0,0,13.177,7.762Z" fill="#231f20"/>
      <path d="M5.868,10.33A.568.568,0,0,0,5.3,10.9v.647a.141.141,0,0,1-.14.141H1.491a.141.141,0,0,1-.14-.141V9.91a1.975,1.975,0,0,1,3.17-1.572.568.568,0,0,0,.688-.9c-.079-.059-.16-.114-.242-.165A2.578,2.578,0,1,0,1.7,7.26,3.11,3.11,0,0,0,.216,9.91v1.635a1.235,1.235,0,0,0,1.275,1.226H5.16a1.235,1.235,0,0,0,1.275-1.226V10.9A.567.567,0,0,0,5.868,10.33ZM3.34,3.83A1.443,1.443,0,1,1,1.9,5.273,1.444,1.444,0,0,1,3.34,3.83Z" fill="#231f20"/>
      <path d="M8.743,7.442a.568.568,0,1,0-.8.8L8.3,8.6H6.329a.568.568,0,0,0,0,1.136H8.3l-.356.356a.567.567,0,0,0,.8.8l1.283-1.283a.625.625,0,0,0,0-.886Z" fill="#231f20"/>
    </g>
  </g>
</svg>
