<svg xmlns="http://www.w3.org/2000/svg" viewBox="0 0 16 16">
  <title>mix-gender</title>
  <g id="Layer_1" data-name="Layer 1">
    <path d="M15.824,3.153l-.55-.7a2.39,2.39,0,0,0-3.19-.544l-.3.191A2.848,2.848,0,0,0,7.829,4.719V5.928A2.053,2.053,0,0,0,8.6,7.536l.946.757c.016.013.034.022.05.034l-1.528.7a2.19,2.19,0,0,0-.784.608A2.186,2.186,0,0,0,6.5,9.027l-1.528-.7c.016-.012.034-.021.05-.034l.946-.757a2.049,2.049,0,0,0,.772-1.608V4.719a2.848,2.848,0,1,0-5.695,0V5.928A2.052,2.052,0,0,0,1.82,7.536l.947.757c.015.013.033.022.049.034l-1.528.7A2.213,2.213,0,0,0,0,11.034v2.484a.993.993,0,0,0,.991.991H13.582a.993.993,0,0,0,.991-.991V11.034a2.211,2.211,0,0,0-1.288-2.007l-1.528-.7c.016-.012.034-.021.05-.033l.946-.758h0a2.052,2.052,0,0,0,.772-1.608V4.719c0-.08-.017-.154-.023-.232h1.672a.825.825,0,0,0,.65-1.334ZM10.678,2.88a1.825,1.825,0,0,1,1.246.5l.426.589c.014.03.025.06.037.091l-.819-.631-2.651.794A1.835,1.835,0,0,1,10.678,2.88ZM2.452,6.748a1.045,1.045,0,0,1-.394-.82V4.719a1.838,1.838,0,1,1,3.675,0V5.928a1.047,1.047,0,0,1-.393.82l-.946.758a.793.793,0,0,1-1,0ZM1.01,13.518V11.034a1.2,1.2,0,0,1,.7-1.089l2.186-1,2.188,1a1.2,1.2,0,0,1,.7,1.089V13.5H2.949v.012Zm12.553-2.484V13.5l-2.033.007V13.5H7.791V11.034a1.2,1.2,0,0,1,.7-1.089l2.188-1,2.187,1A1.2,1.2,0,0,1,13.563,11.034ZM12.121,6.748l-.946.758a.793.793,0,0,1-1,0l-.946-.758a1.048,1.048,0,0,1-.394-.82V5.3l2.523-.756,1.154.89v.5A1.046,1.046,0,0,1,12.121,6.748Zm1.122-3.27L13.184,3.4a2.872,2.872,0,0,0-.487-.682,1.385,1.385,0,0,1,1.781.356l.319.409Z" fill="#231f20"/>
  </g>
</svg>
