<svg xmlns="http://www.w3.org/2000/svg" viewBox="0 0 16 16">
  <g id="Layer_1" data-name="Layer 1">
    <path d="M15.9,3.092l-.55-.706A2.491,2.491,0,0,0,12.03,1.82l-.254.163a2.915,2.915,0,0,0-1.1-.212A2.952,2.952,0,0,0,7.729,4.719V5.928A2.15,2.15,0,0,0,8.54,7.614l.863.692-1.376.63a2.29,2.29,0,0,0-.741.545,2.267,2.267,0,0,0-.74-.545L5.17,8.306l.863-.692a2.149,2.149,0,0,0,.81-1.686V4.719a2.948,2.948,0,1,0-5.895,0V5.928a2.152,2.152,0,0,0,.81,1.686l.864.692-1.376.63A2.314,2.314,0,0,0-.1,11.033v2.485a1.092,1.092,0,0,0,1.091,1.09H13.582a1.091,1.091,0,0,0,1.091-1.09V11.033a2.311,2.311,0,0,0-1.346-2.1l-1.376-.63.864-.692a2.15,2.15,0,0,0,.81-1.686V4.719a.953.953,0,0,0-.011-.132h1.56A.925.925,0,0,0,15.9,3.092Zm-1.311.285h-1.3l-.021-.028a3.026,3.026,0,0,0-.412-.607A1.285,1.285,0,0,1,14.4,3.13Zm-4.351,4.05L9.3,6.67a.947.947,0,0,1-.358-.742V5.371l2-.657,1.479.411v.8a.949.949,0,0,1-.357.742l-.947.757A.691.691,0,0,1,10.241,7.427ZM8.532,10.035l2.146-.982,2.145.982a1.1,1.1,0,0,1,.641,1V13.4H7.891V11.033A1.1,1.1,0,0,1,8.532,10.035Zm.543-5.968a1.724,1.724,0,0,1,2.768-.633l.126.174-.785-.231ZM1.751,10.035,3.9,9.053l2.145.982a1.1,1.1,0,0,1,.641,1V13.4l-5.573.018V11.033A1.1,1.1,0,0,1,1.751,10.035ZM5.634,5.928a.943.943,0,0,1-.357.741l-.945.758a.7.7,0,0,1-.872,0l-.945-.758a.944.944,0,0,1-.358-.741V4.719a1.739,1.739,0,1,1,3.477,0Z"/>
  </g>
</svg>
