<svg xmlns="http://www.w3.org/2000/svg" viewBox="0 0 16 16"><defs><style>.cls-1{fill:#231f20;}</style></defs><title>mix-gender</title><g id="Layer_1" data-name="Layer 1"><path class="cls-1" d="M15.824,3.153l-.551-.705A2.39,2.39,0,0,0,12.084,1.9l-.3.192A2.848,2.848,0,0,0,7.829,4.719V5.928A2.05,2.05,0,0,0,8.6,7.536l.946.758c.016.013.033.021.05.033l-1.528.7a2.2,2.2,0,0,0-.783.608A2.2,2.2,0,0,0,6.5,9.027l-1.528-.7c.016-.012.034-.021.05-.033l.946-.757a2.051,2.051,0,0,0,.772-1.608V4.719a2.847,2.847,0,1,0-5.695,0V5.928A2.05,2.05,0,0,0,1.82,7.536l.946.758c.016.013.033.021.05.033l-1.528.7A2.213,2.213,0,0,0,0,11.034v2.484a.992.992,0,0,0,.991.991H13.582a.992.992,0,0,0,.991-.991V11.034a2.212,2.212,0,0,0-1.288-2.007l-1.528-.7c.016-.012.034-.021.049-.033l.946-.758h0a2.052,2.052,0,0,0,.772-1.608V4.719c0-.079-.017-.154-.023-.231h1.672a.826.826,0,0,0,.651-1.334ZM10.678,2.88a1.826,1.826,0,0,1,1.246.5l.426.589c.014.03.025.061.037.091l-.82-.632-2.651.794A1.835,1.835,0,0,1,10.678,2.88ZM2.452,6.748a1.044,1.044,0,0,1-.394-.82V4.719a1.838,1.838,0,1,1,3.675,0V5.928a1.044,1.044,0,0,1-.394.82l-.946.758a.793.793,0,0,1-1,0ZM1.01,13.518V11.034a1.2,1.2,0,0,1,.7-1.089l2.187-1,2.188,1a1.2,1.2,0,0,1,.7,1.089V13.5H2.949v.012Zm12.554-2.484V13.5l-2.033.006V13.5H7.791V11.034a1.2,1.2,0,0,1,.7-1.089l2.188-1,2.187,1A1.2,1.2,0,0,1,13.563,11.034ZM12.121,6.748l-.947.758a.791.791,0,0,1-1,0l-.945-.758a1.046,1.046,0,0,1-.394-.82V5.3l2.523-.756,1.154.889v.5A1.047,1.047,0,0,1,12.121,6.748Zm1.122-3.27L13.184,3.4a2.858,2.858,0,0,0-.487-.682,1.385,1.385,0,0,1,1.782.355l.319.409Z"/></g></svg>