<svg xmlns="http://www.w3.org/2000/svg" viewBox="0 0 16 16"><title>mix-gender</title><g id="Layer_1" data-name="Layer 1"><path d="M15.9,3.09l-.55-.7A2.49,2.49,0,0,0,12,1.82L11.78,2a3,3,0,0,0-4,2.74V5.93a2.12,2.12,0,0,0,.81,1.68l.86.7L8,8.94a2.31,2.31,0,0,0-.74.54,2.17,2.17,0,0,0-.74-.54L5.17,8.31,6,7.61a2.12,2.12,0,0,0,.81-1.68V4.72A2.95,2.95,0,1,0,1,4.72V5.93a2.12,2.12,0,0,0,.81,1.68l.86.7-1.37.63A2.3,2.3,0,0,0-.1,11v2.49A1.09,1.09,0,0,0,1,14.61H13.58a1.09,1.09,0,0,0,1.09-1.09V11a2.3,2.3,0,0,0-1.34-2.09L12,8.31l.87-.7a2.14,2.14,0,0,0,.8-1.68V4.72a.53.53,0,0,0,0-.13h1.56a.92.92,0,0,0,.73-1.5Zm-1.31.29h-1.3l0,0a2.82,2.82,0,0,0-.41-.61,1.29,1.29,0,0,1,1.54.39ZM10.24,7.43,9.3,6.67a.93.93,0,0,1-.36-.74V5.37l2-.66,1.48.41v.81a.93.93,0,0,1-.36.74l-1,.76A.71.71,0,0,1,10.24,7.43ZM8.53,10l2.15-1,2.14,1a1.09,1.09,0,0,1,.64,1V13.4H7.89V11A1.09,1.09,0,0,1,8.53,10Zm.55-6A1.73,1.73,0,0,1,10.68,3a1.75,1.75,0,0,1,1.16.45l.13.18-.79-.23ZM1.75,10l2.15-1L6,10a1.09,1.09,0,0,1,.64,1V13.4l-5.57,0V11A1.09,1.09,0,0,1,1.75,10ZM5.63,5.93a1,1,0,0,1-.35.74l-1,.76a.71.71,0,0,1-.87,0l-1-.76a1,1,0,0,1-.35-.74V4.72a1.74,1.74,0,1,1,3.47,0Z"/></g></svg>