<svg xmlns="http://www.w3.org/2000/svg" viewBox="0 0 16 16"><g id="Layer_1" data-name="Layer 1"><path d="M8,0a8,8,0,1,0,8,8A8,8,0,0,0,8,0Zm2.15,8.379a1.2,1.2,0,0,1,.228.743A1.5,1.5,0,0,1,9.933,10.2a2.307,2.307,0,0,1-1.316.586V11.8H7.6v-.987a4.262,4.262,0,0,1-1.047-.244,3.325,3.325,0,0,1-.932-.528l.663-.977a6.812,6.812,0,0,0,.933.45,2.831,2.831,0,0,0,.943.156,1.133,1.133,0,0,0,.57-.117.361.361,0,0,0,.2-.323A.4.4,0,0,0,8.7,8.887a3.082,3.082,0,0,0-.56-.263Q7.808,8.5,7.414,8.36a3.918,3.918,0,0,1-.735-.342,2.034,2.034,0,0,1-.56-.508A1.258,1.258,0,0,1,5.9,6.757,1.374,1.374,0,0,1,6.357,5.7,2.283,2.283,0,0,1,7.6,5.165V4.324H8.617v.831a2.61,2.61,0,0,1,.932.283,2.952,2.952,0,0,1,.726.518l-.757.821h0a3.156,3.156,0,0,0-.694-.362,2.034,2.034,0,0,0-.746-.127q-.715,0-.715.45a.34.34,0,0,0,.217.293,4.592,4.592,0,0,0,.56.234c.228.079.47.163.725.254a3.391,3.391,0,0,1,.726.352A1.849,1.849,0,0,1,10.15,8.379Z" fill="#010101"/></g></svg>