<svg width="16" height="16" viewBox="0 0 16 16" fill="none" xmlns="http://www.w3.org/2000/svg">
<path d="M8.14405 13.46H8.11104C7.9727 13.4535 7.84001 13.4032 7.73213 13.3164C7.62425 13.2296 7.54676 13.1108 7.51086 12.9771L5.49325 5.31677L4.05782 9.10043C4.01152 9.22396 3.92854 9.33039 3.82002 9.40546C3.7115 9.48052 3.58261 9.52062 3.45064 9.52039H1.75013C1.58392 9.51117 1.42756 9.43868 1.31316 9.3178C1.19876 9.19693 1.13501 9.03685 1.13501 8.87045C1.13501 8.70405 1.19876 8.54397 1.31316 8.4231C1.42756 8.30222 1.58392 8.22973 1.75013 8.22051H3.0015L4.9961 2.95898C5.04504 2.83034 5.13356 2.72055 5.24891 2.64542C5.36427 2.57029 5.5005 2.53371 5.63799 2.54094C5.77548 2.54816 5.90713 2.59883 6.01396 2.68564C6.1208 2.77245 6.19731 2.89091 6.23248 3.02397L8.24308 10.6363L10.0366 5.70073C10.0805 5.58032 10.1589 5.47555 10.2621 5.39959C10.3654 5.32362 10.4888 5.27985 10.6168 5.27377C10.7442 5.27139 10.8696 5.30481 10.9789 5.37022C11.0882 5.43563 11.1769 5.5304 11.235 5.64374L12.4634 8.21951H14.2499C14.4161 8.22873 14.5725 8.30122 14.6869 8.4221C14.8013 8.54297 14.865 8.70305 14.865 8.86945C14.865 9.03585 14.8013 9.19593 14.6869 9.3168C14.5725 9.43768 14.4161 9.51017 14.2499 9.51939H12.0492C11.9263 9.51926 11.8059 9.48435 11.702 9.4187C11.5981 9.35306 11.5149 9.25935 11.4621 9.14843L10.7248 7.60256L8.75624 13.0311C8.7105 13.1567 8.62724 13.2652 8.51774 13.3419C8.40823 13.4187 8.27778 13.4599 8.14405 13.46Z" fill="black"/>
</svg>
