<svg width="16" height="16" viewBox="0 0 16 16" fill="none" xmlns="http://www.w3.org/2000/svg">
<path d="M8.14405 13.46H8.11104C7.9727 13.4535 7.84001 13.4032 7.73213 13.3164C7.62425 13.2296 7.54676 13.1107 7.51086 12.977L5.49325 5.31672L4.05782 9.10038C4.01152 9.22392 3.92854 9.33035 3.82002 9.40541C3.7115 9.48047 3.58261 9.52058 3.45064 9.52035H1.75013C1.58392 9.51113 1.42756 9.43863 1.31316 9.31776C1.19876 9.19688 1.13501 9.0368 1.13501 8.87041C1.13501 8.70401 1.19876 8.54393 1.31316 8.42305C1.42756 8.30218 1.58392 8.22968 1.75013 8.22046H3.0015L4.9961 2.95893C5.04504 2.8303 5.13356 2.7205 5.24891 2.64538C5.36427 2.57025 5.5005 2.53366 5.63799 2.54089C5.77548 2.54812 5.90713 2.59879 6.01396 2.68559C6.1208 2.7724 6.19731 2.89087 6.23248 3.02393L8.24308 10.6362L10.0366 5.70069C10.0805 5.58028 10.1589 5.47551 10.2621 5.39954C10.3654 5.32357 10.4888 5.2798 10.6168 5.27373C10.7442 5.27135 10.8696 5.30476 10.9789 5.37017C11.0882 5.43558 11.1769 5.53035 11.235 5.64369L12.4634 8.21946H14.2499C14.4161 8.22868 14.5725 8.30118 14.6869 8.42205C14.8013 8.54293 14.865 8.70301 14.865 8.86941C14.865 9.0358 14.8013 9.19588 14.6869 9.31676C14.5725 9.43763 14.4161 9.51013 14.2499 9.51935H12.0492C11.9263 9.51921 11.8059 9.4843 11.702 9.41866C11.5981 9.35301 11.5149 9.25931 11.4621 9.14838L10.7248 7.60252L8.75624 13.031C8.7105 13.1566 8.62724 13.2652 8.51774 13.3419C8.40823 13.4186 8.27778 13.4599 8.14405 13.46Z" fill="black"/>
</svg>
