<svg xmlns="http://www.w3.org/2000/svg" viewBox="0 0 16 16"><title>notes</title><g id="Layer_1" data-name="Layer 1"><path d="M15.16,12.3l-.1-9.8A1.59,1.59,0,0,0,13.49.9H2.42A1.59,1.59,0,0,0,.84,2.5V13.38A1.6,1.6,0,0,0,2.42,15h9.87ZM2.42,13.61a.23.23,0,0,1-.23-.23V2.5a.23.23,0,0,1,.23-.23H13.49a.24.24,0,0,1,.23.23l.09,8.8L11.3,13.61Z"/><polygon points="9.78 14.98 9.78 9.69 15.04 9.69 15.04 11.3 11.35 11.3 11.35 14.98 9.78 14.98"/><rect x="5.77" y="4.31" width="4.84" height="1.61"/><rect x="5.77" y="6.73" width="4.84" height="1.61"/></g></svg>