<svg xmlns="http://www.w3.org/2000/svg" viewBox="0 0 16 16"><defs><style>.cls-1,.cls-2{fill:#231f20;}.cls-1{fill-rule:evenodd;}</style></defs><title>pco-people</title><g id="Layer_1" data-name="Layer 1"><path class="cls-1" d="M4.418,5.365H.713a.506.506,0,0,0-.493.509V9.579a.509.509,0,0,0,.509.509H4.434a.509.509,0,0,0,.509-.509V5.873A.512.512,0,0,0,4.418,5.365ZM4.423,9.3a.225.225,0,0,1-.225.225H.965A.225.225,0,0,1,.74,9.3V6.109a.225.225,0,0,1,.225-.225h.589v.238a.159.159,0,0,0,.159.159H3.419a.159.159,0,0,0,.159-.159V5.884H4.2a.225.225,0,0,1,.225.225Z"/><circle class="cls-2" cx="3.226" cy="7.525" r="0.354"/><circle class="cls-2" cx="2.142" cy="7.361" r="0.472"/><path class="cls-1" d="M3.429,8.023H3.022a.361.361,0,0,0-.11.017.052.052,0,0,0-.023.084.558.558,0,0,1,.13.359v.067a.074.074,0,0,0,.074.074h.645a.055.055,0,0,0,.055-.055v-.18A.365.365,0,0,0,3.429,8.023Z"/><path class="cls-1" d="M2.826,8.824H1.457a.074.074,0,0,1-.074-.074V8.511a.487.487,0,0,1,.487-.487h.543a.487.487,0,0,1,.487.487v.239A.074.074,0,0,1,2.826,8.824Z"/><path class="cls-2" d="M6.639,8.976H6.294v.619H5.84V7.533h.842a.706.706,0,0,1,.789.713v.006A.737.737,0,0,1,6.639,8.976Zm.374-.722c0-.2-.141-.312-.368-.312H6.294v.63h.359a.319.319,0,0,0,.359-.312Z"/><path class="cls-2" d="M9.117,8.961h-1.1a.366.366,0,0,0,.386.309.518.518,0,0,0,.383-.162l.256.227a.834.834,0,0,1-1.47-.521V8.808a.786.786,0,0,1,.781-.822.769.769,0,0,1,.769.857v.006C9.123,8.894,9.121,8.92,9.117,8.961Zm-.763-.616a.352.352,0,0,0-.342.336h.675A.339.339,0,0,0,8.355,8.346Z"/><path class="cls-2" d="M10.119,9.63a.821.821,0,0,1-.851-.816V8.808A.855.855,0,0,1,10.976,8.8v.006A.829.829,0,0,1,10.119,9.63Zm.415-.822a.419.419,0,0,0-.415-.436.4.4,0,0,0-.409.43v.006a.419.419,0,0,0,.415.436.4.4,0,0,0,.409-.43Z"/><path class="cls-2" d="M12.147,9.624a.606.606,0,0,1-.492-.236v.677h-.448V8.016h.448v.227a.58.58,0,0,1,.492-.256.743.743,0,0,1,.719.816v.006A.74.74,0,0,1,12.147,9.624Zm.271-.822a.387.387,0,1,0-.769,0v.006a.387.387,0,1,0,.769,0Z"/><path class="cls-2" d="M13.123,9.595V7.445h.448v2.15Z"/><path class="cls-2" d="M15.36,8.961h-1.1a.366.366,0,0,0,.386.309.517.517,0,0,0,.383-.162l.256.227a.834.834,0,0,1-1.47-.521V8.808a.786.786,0,0,1,.78-.822.769.769,0,0,1,.769.857v.006C15.366,8.894,15.363,8.92,15.36,8.961ZM14.6,8.346a.352.352,0,0,0-.342.336h.675A.339.339,0,0,0,14.6,8.346Z"/><path class="cls-2" d="M5.889,6.9a.014.014,0,0,1-.015-.015V5.915A.014.014,0,0,1,5.889,5.9h.139a.014.014,0,0,1,.015.015v.055h0a.22.22,0,0,1,.194-.086.245.245,0,0,1,.253.176.837.837,0,0,1,0,.412.245.245,0,0,1-.253.176.22.22,0,0,1-.194-.086h0v.327a.014.014,0,0,1-.015.015Zm.441-.5a.621.621,0,0,0,0-.273.145.145,0,0,0-.271,0,.621.621,0,0,0,0,.273.145.145,0,0,0,.271,0Z"/><path class="cls-2" d="M6.882,6.639c-.142,0-.2-.068-.2-.209V5.615A.014.014,0,0,1,6.7,5.6h.139a.014.014,0,0,1,.015.015v.806c0,.05.02.067.064.067h.033a.014.014,0,0,1,.015.015v.121a.014.014,0,0,1-.015.015Z"/><path class="cls-2" d="M7.545,6.63a.014.014,0,0,1-.015-.015V6.562h0a.238.238,0,0,1-.206.085.219.219,0,0,1-.245-.223c0-.159.112-.232.292-.232h.149a.008.008,0,0,0,.009-.009V6.148c0-.083-.039-.121-.162-.121a.256.256,0,0,0-.167.05.014.014,0,0,1-.021,0l-.056-.1a.014.014,0,0,1,0-.02.426.426,0,0,1,.259-.071c.223,0,.3.076.3.255v.477a.014.014,0,0,1-.015.015Zm-.018-.245V6.329a.008.008,0,0,0-.009-.009H7.4c-.109,0-.158.03-.158.1s.044.091.126.091C7.47,6.509,7.527,6.468,7.527,6.385Z"/><path class="cls-2" d="M8.35,6.63a.014.014,0,0,1-.015-.015V6.194c0-.094-.047-.159-.138-.159a.14.14,0,0,0-.139.159v.421a.014.014,0,0,1-.015.015H7.9a.014.014,0,0,1-.015-.015v-.7A.014.014,0,0,1,7.9,5.9h.139a.014.014,0,0,1,.015.015v.053h0a.226.226,0,0,1,.192-.085.249.249,0,0,1,.253.271v.461a.014.014,0,0,1-.015.015Z"/><path class="cls-2" d="M9.165,6.63a.014.014,0,0,1-.015-.015V6.194c0-.094-.047-.159-.138-.159a.14.14,0,0,0-.139.159v.421a.014.014,0,0,1-.015.015H8.718A.014.014,0,0,1,8.7,6.615v-.7A.014.014,0,0,1,8.718,5.9h.139a.014.014,0,0,1,.015.015v.053h0a.226.226,0,0,1,.193-.085.249.249,0,0,1,.253.271v.461A.014.014,0,0,1,9.3,6.63Z"/><path class="cls-2" d="M9.534,5.762a.014.014,0,0,1-.015-.015V5.615A.014.014,0,0,1,9.534,5.6h.139a.014.014,0,0,1,.015.015v.132a.014.014,0,0,1-.015.015Zm0,.868a.014.014,0,0,1-.015-.015v-.7A.014.014,0,0,1,9.534,5.9h.139a.014.014,0,0,1,.015.015v.7a.014.014,0,0,1-.015.015Z"/><path class="cls-2" d="M10.356,6.63a.014.014,0,0,1-.015-.015V6.194c0-.094-.047-.159-.138-.159a.14.14,0,0,0-.139.159v.421a.014.014,0,0,1-.015.015H9.909a.014.014,0,0,1-.015-.015v-.7A.014.014,0,0,1,9.909,5.9h.139a.014.014,0,0,1,.015.015v.053h0a.226.226,0,0,1,.192-.085.249.249,0,0,1,.253.271v.461a.014.014,0,0,1-.015.015Z"/><path class="cls-2" d="M10.694,6.81a.014.014,0,0,1,0-.021l.089-.089a.014.014,0,0,1,.023,0,.224.224,0,0,0,.159.068c.112,0,.164-.061.164-.174V6.526h0a.211.211,0,0,1-.189.085.244.244,0,0,1-.249-.177.556.556,0,0,1-.024-.186.547.547,0,0,1,.024-.185.244.244,0,0,1,.249-.179.208.208,0,0,1,.189.086h0V5.915a.014.014,0,0,1,.015-.015h.139a.014.014,0,0,1,.015.015v.67a.306.306,0,0,1-.341.335A.361.361,0,0,1,10.694,6.81Zm.42-.444a.34.34,0,0,0,.017-.12.351.351,0,0,0-.017-.12.137.137,0,0,0-.259,0,.351.351,0,0,0-.017.12.34.34,0,0,0,.017.12.136.136,0,0,0,.259,0Z"/><path class="cls-2" d="M11.672,6.445a.727.727,0,0,1,0-.361.294.294,0,0,1,.3-.2A.318.318,0,0,1,12.226,6a.015.015,0,0,1,0,.021l-.1.083a.014.014,0,0,1-.021,0,.165.165,0,0,0-.135-.064.134.134,0,0,0-.136.1.429.429,0,0,0-.015.135.44.44,0,0,0,.015.136.134.134,0,0,0,.136.094.165.165,0,0,0,.135-.064.014.014,0,0,1,.021,0l.1.083c.008.006.006.014,0,.021a.322.322,0,0,1-.253.112A.294.294,0,0,1,11.672,6.445Z"/><path class="cls-2" d="M12.379,6.444a.566.566,0,0,1-.026-.179.582.582,0,0,1,.024-.18.323.323,0,0,1,.6,0A.654.654,0,0,1,13,6.3a.015.015,0,0,1-.017.015h-.45a.008.008,0,0,0-.009.009A.17.17,0,0,0,12.7,6.5a.22.22,0,0,0,.171-.07.015.015,0,0,1,.023,0l.089.079a.014.014,0,0,1,0,.021.385.385,0,0,1-.3.124A.3.3,0,0,1,12.379,6.444Zm.441-.323a.156.156,0,0,0-.286,0,.185.185,0,0,0-.009.062.008.008,0,0,0,.009.009h.286a.008.008,0,0,0,.009-.009A.185.185,0,0,0,12.82,6.121Z"/><path class="cls-2" d="M13.63,6.63a.014.014,0,0,1-.015-.015V6.194c0-.094-.047-.159-.138-.159a.14.14,0,0,0-.139.159v.421a.014.014,0,0,1-.015.015h-.139a.014.014,0,0,1-.015-.015v-.7a.014.014,0,0,1,.015-.015h.139a.014.014,0,0,1,.015.015v.053h0a.226.226,0,0,1,.192-.085.249.249,0,0,1,.253.271v.461a.014.014,0,0,1-.015.015Z"/><path class="cls-2" d="M14.2,6.639c-.147,0-.2-.071-.2-.214V6.041a.008.008,0,0,0-.009-.009h-.048a.014.014,0,0,1-.015-.015v-.1a.014.014,0,0,1,.015-.015h.048a.008.008,0,0,0,.009-.009v-.2a.014.014,0,0,1,.015-.015h.139a.014.014,0,0,1,.015.015v.2a.008.008,0,0,0,.009.009h.1a.014.014,0,0,1,.015.015v.1a.014.014,0,0,1-.015.015h-.1a.008.008,0,0,0-.009.009v.379c0,.052.021.068.068.068h.038a.014.014,0,0,1,.015.015v.121a.014.014,0,0,1-.015.015Z"/><path class="cls-2" d="M14.44,6.444a.566.566,0,0,1-.026-.179.582.582,0,0,1,.024-.18.323.323,0,0,1,.6,0,.654.654,0,0,1,.024.22.015.015,0,0,1-.017.015h-.45a.008.008,0,0,0-.009.009.17.17,0,0,0,.174.167.22.22,0,0,0,.171-.07.015.015,0,0,1,.023,0l.089.079a.014.014,0,0,1,0,.021.385.385,0,0,1-.3.124A.3.3,0,0,1,14.44,6.444Zm.441-.323a.156.156,0,0,0-.286,0,.185.185,0,0,0-.009.062.008.008,0,0,0,.009.009h.286a.008.008,0,0,0,.009-.009A.185.185,0,0,0,14.881,6.121Z"/><path class="cls-2" d="M15.244,6.63a.014.014,0,0,1-.015-.015v-.7a.014.014,0,0,1,.015-.015h.139a.014.014,0,0,1,.015.015v.062h0a.209.209,0,0,1,.189-.094.221.221,0,0,1,.153.061c.008.008.009.014,0,.021l-.08.1a.014.014,0,0,1-.021,0,.2.2,0,0,0-.108-.035c-.1,0-.138.068-.138.185v.4a.014.014,0,0,1-.015.015Z"/></g></svg>