<svg xmlns="http://www.w3.org/2000/svg" viewBox="0 0 16 16"><defs><style>.cls-1{fill:#010101;}</style></defs><title>pco-people</title><g id="Layer_1" data-name="Layer 1"><path class="cls-1" d="M2.06543,6.09788c-1.51295,0-1.8912.37825-1.8912,1.89119s.37825,1.89121,1.8912,1.89121,1.8912-.37824,1.8912-1.89121S3.57838,6.09788,2.06543,6.09788Zm-.348,1.0807A.38346.38346,0,1,1,1.334,7.562.38345.38345,0,0,1,1.71745,7.17858Zm.58115,1.621H1.13278V8.44983a.34974.34974,0,0,1,.34974-.34974h.46633a.34974.34974,0,0,1,.34975.34974Zm.3-1.39147a.28752.28752,0,1,1-.28751.28752A.28752.28752,0,0,1,2.59863,7.4081Zm.39945,1.15782h-.5829V8.44934a.43512.43512,0,0,0-.03847-.18186.11057.11057,0,0,0-.01166-.02683l-.01166-.021a.2579.2579,0,0,0-.01749-.03031.21465.21465,0,0,1,.17254-.08977h.2798a.21047.21047,0,0,1,.20984.20985Z"/><path class="cls-1" d="M5.888,7.06635a.90084.90084,0,0,0-.58319.20877l-.037-.09229a.09871.09871,0,0,0-.102-.07564h-.102A.11454.11454,0,0,0,4.952,7.2187V9.79048a.1132.1132,0,0,0,.11171.11164h.22856a.10978.10978,0,0,0,.11982-.11164v-.8247a1.06174,1.06174,0,0,0,.45953.115.96072.96072,0,0,0,.92773-1.0092A.95146.95146,0,0,0,5.888,7.06635Zm.45953,1.00522a.54913.54913,0,0,1-.529.578.77865.77865,0,0,1-.4147-.12822v-.777a.49742.49742,0,0,1,.43106-.24669A.52784.52784,0,0,1,6.34753,8.07157Z"/><path class="cls-1" d="M7.91666,7.06635A.962.962,0,0,0,6.9562,8.07157a.95526.95526,0,0,0,.96458,1.0092,1.08179,1.08179,0,0,0,.712-.2378A.09684.09684,0,0,0,8.645,8.68806l-.11029-.1717a.08865.08865,0,0,0-.05593-.04169.11734.11734,0,0,0-.0851.028.70736.70736,0,0,1-.44843.155A.53381.53381,0,0,1,7.4049,8.1872H8.68372a.10931.10931,0,0,0,.1073-.10069c.00427-.03373.00854-.09976.00854-.13334A.86544.86544,0,0,0,7.91666,7.06635Zm-.00811.3905a.42223.42223,0,0,1,.44187.38481H7.42767A.45672.45672,0,0,1,7.90855,7.45685Z"/><path class="cls-1" d="M9.916,7.06635a1.00756,1.00756,0,1,0,.98082,1.00109A1.00648,1.00648,0,0,0,9.916,7.06635Zm.53709,1.00109A.54.54,0,1,1,9.916,7.4977.54191.54191,0,0,1,10.45308,8.06744Z"/><path class="cls-1" d="M12.0908,7.06635a.89859.89859,0,0,0-.58305.2087l-.037-.09229a.099.099,0,0,0-.10218-.07557h-.1019a.11454.11454,0,0,0-.11171.11151V9.79048a.11179.11179,0,0,0,.11171.11164h.22841a.10978.10978,0,0,0,.11983-.11164V8.96543a1.042,1.042,0,0,0,.45967.11534.96072.96072,0,0,0,.92773-1.0092A.95157.95157,0,0,0,12.0908,7.06635Zm-.484.678a.49742.49742,0,0,1,.43106-.24669.52784.52784,0,0,1,.51261.57387.54913.54913,0,0,1-.529.578.77864.77864,0,0,1-.41469-.12822Z"/><path class="cls-1" d="M13.37993,6.24094h.22862a.11171.11171,0,0,1,.11171.11171V8.9243a.11164.11164,0,0,1-.11164.11164H13.38a.11157.11157,0,0,1-.11157-.11157V6.35244A.1115.1115,0,0,1,13.37993,6.24094Z"/><path class="cls-1" d="M14.94287,7.06635a.962.962,0,0,0-.96046,1.00522.95526.95526,0,0,0,.96459,1.0092,1.08175,1.08175,0,0,0,.712-.2378.09684.09684,0,0,0,.01224-.15491l-.11029-.1717a.08865.08865,0,0,0-.05593-.04169.11714.11714,0,0,0-.0851.028.70736.70736,0,0,1-.44843.155.5338.5338,0,0,1-.54035-.47048h1.27881a.10931.10931,0,0,0,.1073-.10069c.00427-.03373.00854-.09976.00854-.13334A.86544.86544,0,0,0,14.94287,7.06635Zm-.00811.3905a.42225.42225,0,0,1,.44188.38481h-.92275A.4567.4567,0,0,1,14.93476,7.45685Z"/></g></svg>