<svg xmlns="http://www.w3.org/2000/svg" viewBox="0 0 16 16"><title>pco-people</title><g id="Layer_1" data-name="Layer 1"><path d="M2.065,6.1C.552,6.1.174,6.476.174,7.989S.552,9.88,2.065,9.88,3.957,9.5,3.957,7.989,3.578,6.1,2.065,6.1ZM1.717,7.179a.383.383,0,1,1-.383.383A.383.383,0,0,1,1.717,7.179ZM2.3,8.8H1.133V8.45a.35.35,0,0,1,.35-.35h.466a.35.35,0,0,1,.35.35Zm.3-1.392a.288.288,0,1,1-.288.288A.288.288,0,0,1,2.6,7.408ZM3,8.566H2.415V8.449a.446.446,0,0,0-.038-.182.123.123,0,0,0-.012-.026L2.353,8.22a.187.187,0,0,0-.017-.031A.215.215,0,0,1,2.508,8.1h.28A.21.21,0,0,1,3,8.309Z"/><path d="M5.888,7.066a.9.9,0,0,0-.583.209l-.037-.092a.1.1,0,0,0-.1-.076h-.1a.114.114,0,0,0-.112.112V9.79a.113.113,0,0,0,.112.112h.228a.11.11,0,0,0,.12-.112V8.966a1.071,1.071,0,0,0,.46.115A.961.961,0,0,0,6.8,8.072.952.952,0,0,0,5.888,7.066Zm.46,1.006a.55.55,0,0,1-.529.578A.773.773,0,0,1,5.4,8.521V7.744A.5.5,0,0,1,5.835,7.5.528.528,0,0,1,6.348,8.072Z"/><path d="M7.917,7.066a.962.962,0,0,0-.961,1.006.956.956,0,0,0,.965,1.009,1.082,1.082,0,0,0,.712-.238.1.1,0,0,0,.012-.155l-.11-.172a.091.091,0,0,0-.056-.041.112.112,0,0,0-.085.028.71.71,0,0,1-.449.155.534.534,0,0,1-.54-.471H8.684a.109.109,0,0,0,.107-.1c0-.034.009-.1.009-.134A.866.866,0,0,0,7.917,7.066Zm-.008.391a.421.421,0,0,1,.441.385H7.428A.456.456,0,0,1,7.909,7.457Z"/><path d="M9.916,7.066a1.008,1.008,0,1,0,.981,1A1.007,1.007,0,0,0,9.916,7.066Zm.537,1a.541.541,0,1,1-1.078,0,.54.54,0,1,1,1.078,0Z"/><path d="M12.091,7.066a.9.9,0,0,0-.583.209l-.037-.092a.1.1,0,0,0-.1-.076h-.1a.114.114,0,0,0-.112.112V9.79a.112.112,0,0,0,.112.112H11.5a.11.11,0,0,0,.12-.112V8.965a1.037,1.037,0,0,0,.46.116A.961.961,0,0,0,13,8.072.952.952,0,0,0,12.091,7.066Zm-.484.678a.5.5,0,0,1,.431-.246.527.527,0,0,1,.512.574.549.549,0,0,1-.529.578.768.768,0,0,1-.414-.129Z"/><rect x="13.268" y="6.241" width="0.452" height="2.795" rx="0.112" ry="0.112"/><path d="M14.943,7.066a.962.962,0,0,0-.961,1.006.956.956,0,0,0,.965,1.009,1.08,1.08,0,0,0,.712-.238.1.1,0,0,0,.012-.155l-.11-.172a.091.091,0,0,0-.056-.041.112.112,0,0,0-.085.028.71.71,0,0,1-.449.155.534.534,0,0,1-.54-.471H15.71a.109.109,0,0,0,.107-.1,1.206,1.206,0,0,0,.009-.134A.866.866,0,0,0,14.943,7.066Zm-.008.391a.423.423,0,0,1,.442.385h-.923A.456.456,0,0,1,14.935,7.457Z"/></g></svg>