<svg xmlns="http://www.w3.org/2000/svg" viewBox="0 0 16 16"><title>person-arrow</title><g id="Layer_1" data-name="Layer 1"><path d="M5.852,7.938a3.8,3.8,0,1,1,3.8-3.8A3.805,3.805,0,0,1,5.852,7.938Zm0-6.325A2.524,2.524,0,1,0,8.377,4.137,2.527,2.527,0,0,0,5.852,1.613Z"/><path d="M7.718,15.664H2.129a2.005,2.005,0,0,1-2-2V10.58A2.413,2.413,0,0,1,1.674,8.336L5.852,6.75l4.311,1.637A.638.638,0,1,1,9.71,9.58L5.852,8.116,2.127,9.53A1.131,1.131,0,0,0,1.4,10.58v3.081a.727.727,0,0,0,.727.726H7.718a.639.639,0,0,1,0,1.277Z"/><path d="M8.88,11.879H14l-1.747-1.634a.513.513,0,0,1,0-.759.6.6,0,0,1,.809,0l2.585,2.42a.689.689,0,0,1,0,1.019l-2.563,2.4a.6.6,0,0,1-.809,0,.512.512,0,0,1,0-.758L14,12.951H8.88a.537.537,0,1,1,0-1.072Z"/></g></svg>