<svg xmlns="http://www.w3.org/2000/svg" viewBox="0 0 16 16">
  <title>person-pencil</title>
  <g id="Layer_1" data-name="Layer 1">
    <path d="M3.263,8.4,7.079,6.849l2.695,1.1a.576.576,0,0,0,.75-.309.566.566,0,0,0-.312-.742l-1.6-.651a3.3,3.3,0,0,0,1.815-2.93,3.352,3.352,0,0,0-6.7,0,3.3,3.3,0,0,0,1.816,2.93L2.825,7.353A2.139,2.139,0,0,0,1.481,9.338v2.7a2.162,2.162,0,0,0,2.171,2.147H6.024a.569.569,0,1,0,0-1.137H3.652a1.017,1.017,0,0,1-1.022-1.01v-2.7A1.008,1.008,0,0,1,3.263,8.4ZM4.877,3.315a2.2,2.2,0,1,1,2.2,2.179A2.192,2.192,0,0,1,4.877,3.315Zm9.739,4.564-1.025-.708a1.157,1.157,0,0,0-.858-.187,1.138,1.138,0,0,0-.739.468L7.9,13.253l.017,2.077a.677.677,0,0,0,.291.549.692.692,0,0,0,.62.082l1.979-.7L14.9,9.46A1.129,1.129,0,0,0,14.616,7.879Zm-4.542,6.433-1.012.358-.009-1.064,3.88-5.5,1.024.705Z" fill="#231f20"/>
  </g>
</svg>
