<svg xmlns="http://www.w3.org/2000/svg" viewBox="0 0 16 16"><title>person-outline</title><g id="Layer_1" data-name="Layer 1"><path d="M12.829,8.2l-2.8-1.158a3.789,3.789,0,1,0-3.837,0L3.385,8.2a2.488,2.488,0,0,0-1.541,2.309v3.015a2.5,2.5,0,0,0,2.489,2.5h7.548a2.5,2.5,0,0,0,2.49-2.5V10.507A2.49,2.49,0,0,0,12.829,8.2ZM3.943,9.556,8.107,7.835l4.164,1.721a1.024,1.024,0,0,1,.635.951v3.015a1.029,1.029,0,0,1-1.025,1.029H4.333a1.029,1.029,0,0,1-1.025-1.029V10.507A1.022,1.022,0,0,1,3.943,9.556ZM5.782,3.782A2.325,2.325,0,1,1,8.107,6.115,2.332,2.332,0,0,1,5.782,3.782Z"/></g></svg>