<svg xmlns="http://www.w3.org/2000/svg" viewBox="0 0 16 16"><title>person-pencil</title><g id="Layer_1" data-name="Layer 1"><path d="M3.07,8.49,6.8,7,9.42,8a.66.66,0,0,0,.87-.36.62.62,0,0,0,0-.5.61.61,0,0,0-.36-.36L8.55,6.25a3.34,3.34,0,0,0,1.66-2.88,3.41,3.41,0,0,0-6.82,0A3.34,3.34,0,0,0,5.05,6.25l-2.49,1A2.21,2.21,0,0,0,1.17,9.32V12a2.24,2.24,0,0,0,2.25,2.22H5.76a.66.66,0,1,0,0-1.32H3.42a.9.9,0,0,1-.91-.9V9.32A.9.9,0,0,1,3.07,8.49ZM4.72,3.37a2.08,2.08,0,0,1,4.16,0,2.08,2.08,0,0,1-4.16,0Z"/><path d="M14.3,7.8l-1-.7a1.25,1.25,0,0,0-1.72.3L7.51,13.16l0,2.08a.74.74,0,0,0,.33.62A.77.77,0,0,0,8.3,16a.75.75,0,0,0,.26,0l2-.71L14.61,9.5a1.23,1.23,0,0,0,.2-.91A1.24,1.24,0,0,0,14.3,7.8Zm-.84,1L9.7,14.15l-.84.3v-.88l3.76-5.33Z"/></g></svg>