<svg xmlns="http://www.w3.org/2000/svg" viewBox="0 0 16 16"><title>person-arrow</title><g id="Layer_1" data-name="Layer 1"><path d="M7.718,14.287H2.128a.627.627,0,0,1-.626-.626V10.58a1.032,1.032,0,0,1,.661-.957l3.689-1.4,3.822,1.45a.738.738,0,1,0,.525-1.38L7.924,7.43a3.9,3.9,0,1,0-4.144,0l-2.142.813A2.513,2.513,0,0,0,.025,10.58v3.081a2.106,2.106,0,0,0,2.1,2.1h5.59a.739.739,0,0,0,0-1.477ZM5.852,6.561A2.424,2.424,0,1,1,8.276,4.137,2.426,2.426,0,0,1,5.852,6.561Z"/><path d="M15.719,11.832,13.134,9.413a.721.721,0,0,0-.946,0,.612.612,0,0,0,0,.9l1.562,1.461H8.88a.637.637,0,1,0,0,1.272h4.87l-1.541,1.441a.614.614,0,0,0,0,.9.7.7,0,0,0,.947,0L15.719,13a.792.792,0,0,0,0-1.166Z"/></g></svg>