<svg xmlns="http://www.w3.org/2000/svg" viewBox="0 0 16 16"><title>person-arrow</title><g id="Layer_1" data-name="Layer 1"><path d="M7.72,14.29H2.13a.63.63,0,0,1-.63-.63V10.58a1,1,0,0,1,.66-1l3.69-1.4L9.67,9.67a.74.74,0,0,0,.53-1.38L7.92,7.43a3.9,3.9,0,1,0-4.14,0l-2.14.81A2.52,2.52,0,0,0,0,10.58v3.08a2.11,2.11,0,0,0,2.11,2.1H7.72a.74.74,0,1,0,0-1.47ZM5.85,6.56A2.43,2.43,0,1,1,8.28,4.14,2.43,2.43,0,0,1,5.85,6.56Z"/><path d="M15.72,11.83,13.13,9.41a.73.73,0,0,0-.94,0,.62.62,0,0,0,0,.91l1.56,1.46H8.88a.64.64,0,1,0,0,1.27h4.87l-1.54,1.44a.62.62,0,0,0,0,.91.69.69,0,0,0,.47.18.74.74,0,0,0,.48-.18L15.72,13a.79.79,0,0,0,0-1.17Z"/></g></svg>