<svg xmlns="http://www.w3.org/2000/svg" viewBox="0 0 16 16">
  <g id="Layer_1" data-name="Layer 1">
    <g>
      <path d="M3.068,8.491,6.8,6.97,9.425,8.039a.666.666,0,0,0,.87-.358.654.654,0,0,0,0-.5.664.664,0,0,0-.363-.36L8.546,6.253a3.349,3.349,0,0,0,1.663-2.88,3.409,3.409,0,0,0-6.817,0,3.347,3.347,0,0,0,1.662,2.88L2.561,7.269A2.213,2.213,0,0,0,1.173,9.322V11.99a2.234,2.234,0,0,0,2.243,2.219H5.758a.661.661,0,1,0,0-1.321H3.416a.906.906,0,0,1-.911-.9V9.322A.9.9,0,0,1,3.068,8.491ZM4.724,3.373A2.076,2.076,0,1,1,6.8,5.426,2.067,2.067,0,0,1,4.724,3.373Z"/>
      <path d="M14.3,7.8l-1.012-.7a1.249,1.249,0,0,0-.921-.2,1.221,1.221,0,0,0-.793.5L7.512,13.158l.017,2.083a.776.776,0,0,0,1.031.716l1.984-.7L14.605,9.5a1.212,1.212,0,0,0-.3-1.7Zm-.844,1.024L9.7,14.151l-.84.3-.007-.881L12.607,8.24Z"/>
    </g>
  </g>
</svg>
