<svg width="16" height="16" viewBox="0 0 16 16" fill="none" xmlns="http://www.w3.org/2000/svg">
<path d="M7.71715 14.2955H2.1096C1.94314 14.2952 1.78357 14.2292 1.66586 14.1118C1.54815 13.9944 1.4819 13.8353 1.48164 13.6693V10.5873C1.48285 10.3798 1.54677 10.1774 1.66505 10.0067C1.78334 9.83589 1.95049 9.70464 2.14471 9.63003L5.84529 8.22958L9.67929 9.68005C9.77019 9.71453 9.86701 9.73082 9.96422 9.72799C10.0614 9.72516 10.1571 9.70327 10.2459 9.66356C10.3346 9.62385 10.4146 9.5671 10.4813 9.49656C10.5481 9.42601 10.6002 9.34305 10.6348 9.25241C10.6694 9.16177 10.6857 9.06522 10.6829 8.96829C10.68 8.87135 10.6581 8.77592 10.6183 8.68744C10.5784 8.59897 10.5215 8.51918 10.4508 8.45263C10.38 8.38609 10.2968 8.33409 10.2059 8.29961L7.9238 7.43633C8.64306 6.98655 9.19608 6.31565 9.49938 5.52491C9.80267 4.73417 9.83979 3.8665 9.60512 3.05288C9.37045 2.23926 8.87673 1.52384 8.19848 1.01461C7.52024 0.50538 6.69429 0.22998 5.84529 0.22998C4.9963 0.22998 4.17034 0.50538 3.4921 1.01461C2.81386 1.52384 2.32014 2.23926 2.08547 3.05288C1.8508 3.8665 1.88791 4.73417 2.19121 5.52491C2.49451 6.31565 3.04752 6.98655 3.76679 7.43633L1.61806 8.24959C1.14343 8.43113 0.734934 8.75153 0.446173 9.16872C0.157413 9.58592 0.00188456 10.0804 0 10.5873V13.6693C0.0015881 14.226 0.224042 14.7594 0.618761 15.153C1.01348 15.5466 1.54838 15.7684 2.10659 15.77H7.71414C7.9059 15.7629 8.08745 15.682 8.22062 15.5443C8.35379 15.4065 8.4282 15.2226 8.4282 15.0312C8.4282 14.8399 8.35379 14.656 8.22062 14.5182C8.08745 14.3805 7.9059 14.2996 7.71414 14.2925L7.71715 14.2955ZM5.84529 6.56706C5.36437 6.56706 4.89424 6.42485 4.49436 6.15841C4.09449 5.89197 3.78282 5.51327 3.59878 5.0702C3.41474 4.62714 3.36658 4.1396 3.46041 3.66924C3.55423 3.19888 3.78582 2.76682 4.12589 2.42771C4.46595 2.0886 4.89922 1.85767 5.37091 1.76411C5.8426 1.67054 6.33151 1.71856 6.77583 1.90209C7.22015 2.08561 7.59991 2.3964 7.8671 2.79515C8.13429 3.19391 8.2769 3.66271 8.2769 4.14228C8.27637 4.78521 8.02001 5.40165 7.56411 5.85627C7.10821 6.31089 6.49003 6.56653 5.84529 6.56706Z" fill="black"/>
<path d="M15.7433 11.8397L13.1502 9.41996C13.0185 9.30589 12.85 9.24307 12.6757 9.24307C12.5013 9.24307 12.3328 9.30589 12.2012 9.41996C12.1388 9.47729 12.089 9.54689 12.055 9.62437C12.0209 9.70184 12.0033 9.78552 12.0033 9.87011C12.0033 9.9547 12.0209 10.0384 12.055 10.1158C12.089 10.1933 12.1388 10.2629 12.2012 10.3202L13.7681 11.7817H8.8828C8.79601 11.7769 8.70913 11.7897 8.6275 11.8195C8.54586 11.8493 8.47117 11.8953 8.408 11.9549C8.34484 12.0145 8.29452 12.0862 8.26013 12.1658C8.22575 12.2455 8.20801 12.3312 8.20801 12.4179C8.20801 12.5046 8.22575 12.5904 8.26013 12.67C8.29452 12.7496 8.34484 12.8214 8.408 12.8809C8.47117 12.9405 8.54586 12.9866 8.6275 13.0163C8.70913 13.0461 8.79601 13.059 8.8828 13.0541H13.7681L12.2222 14.4956C12.1601 14.5531 12.1106 14.6227 12.0767 14.7002C12.0428 14.7776 12.0254 14.8612 12.0254 14.9457C12.0254 15.0302 12.0428 15.1138 12.0767 15.1913C12.1106 15.2687 12.1601 15.3384 12.2222 15.3959C12.3518 15.5145 12.5213 15.5804 12.6972 15.5804C12.8732 15.5804 13.0427 15.5145 13.1722 15.3959L15.7433 13.0081C15.8242 12.9339 15.8888 12.8438 15.933 12.7434C15.9772 12.643 16 12.5345 16 12.4249C16 12.3153 15.9772 12.2069 15.933 12.1065C15.8888 12.0061 15.8242 11.9159 15.7433 11.8417V11.8397Z" fill="black"/>
</svg>
