<svg xmlns="http://www.w3.org/2000/svg" viewBox="0 0 16 16"><title>photo-upload</title><g id="Layer_1" data-name="Layer 1"><path d="M3.276,7.225a1.55,1.55,0,1,0,1.55-1.549A1.551,1.551,0,0,0,3.276,7.225Zm1.55-.774a.775.775,0,1,1-.775.774A.775.775,0,0,1,4.826,6.451Z"/><path d="M13.547,2.946H12.07V4.3h1.477a.227.227,0,0,1,.225.225V8.776L12.365,7.369a1.774,1.774,0,0,0-2.505,0L6.738,10.491l-.354-.354a1.774,1.774,0,0,0-2.505,0L2.228,11.788V4.521A.227.227,0,0,1,2.453,4.3H3.93V2.946H2.453A1.576,1.576,0,0,0,.879,4.521v8.225a1.577,1.577,0,0,0,1.574,1.575H13.547a1.577,1.577,0,0,0,1.574-1.575V4.521A1.576,1.576,0,0,0,13.547,2.946ZM2.715,12.971l2-2a.591.591,0,0,1,.835,0l2,2Zm11.057-.225a.228.228,0,0,1-.225.225H9.219L7.573,11.326,10.7,8.205a.591.591,0,0,1,.835,0l2.242,2.241Z"/><polygon points="6.738 5.469 9.262 5.469 9.262 2.945 10.945 2.945 8 0 5.055 2.945 6.738 2.945 6.738 5.469"/></g></svg>