<svg xmlns="http://www.w3.org/2000/svg" viewBox="0 0 16 16"><defs><style>.cls-1{fill:#231f20;}</style></defs><title>photo-upload</title><g id="Layer_1" data-name="Layer 1"><path class="cls-1" d="M12.03,12.311H2v-7H8V3.305H.9a.892.892,0,0,0-.9.976v9.181a.843.843,0,0,0,.9.842H12.981a.925.925,0,0,0,.975-.842V9.327H12.03Zm-9.219-.994L11,11.278l-.006-2.235L9.875,7.351,8.07,9.722,6.393,8.151ZM5.43,7.2a.923.923,0,1,0-.924.923A.924.924,0,0,0,5.43,7.2Zm7.608-5.987-2.973,4.1h1.918l0,2H14v-2h2Z"/></g></svg>