<svg xmlns="http://www.w3.org/2000/svg" viewBox="0 0 16 16"><title>photo-outline</title><g id="Layer_1" data-name="Layer 1"><path d="M4.726,7.988A1.969,1.969,0,1,0,2.758,6.019,1.972,1.972,0,0,0,4.726,7.988Zm0-2.953a.984.984,0,1,1-.984.984A.985.985,0,0,1,4.726,5.035ZM12.859,6.6a1.973,1.973,0,0,0-2.784,0l-3.47,3.469-.393-.393a1.972,1.972,0,0,0-2.784,0L1.445,11.653,1.456,13.5l2.9-2.9a.658.658,0,0,1,.928,0l2.639,2.639H9.779L7.533,10.992,11,7.524a.658.658,0,0,1,.928,0l2.639,2.639V8.306Z"/><path d="M14.172,14.321H1.843a1.752,1.752,0,0,1-1.75-1.75V3.429a1.752,1.752,0,0,1,1.75-1.75H14.172a1.752,1.752,0,0,1,1.75,1.75v9.142A1.752,1.752,0,0,1,14.172,14.321ZM1.843,3.179a.253.253,0,0,0-.25.25v9.142a.253.253,0,0,0,.25.25H14.172a.253.253,0,0,0,.25-.25V3.429a.253.253,0,0,0-.25-.25Z"/></g></svg>