<svg width="16" height="16" viewBox="0 0 16 16" fill="none" xmlns="http://www.w3.org/2000/svg">
<path d="M4.7183 7.98799C5.1078 7.98819 5.48861 7.8729 5.81256 7.6567C6.13651 7.4405 6.38905 7.1331 6.53825 6.77338C6.68744 6.41367 6.72658 6.0178 6.65071 5.63585C6.57484 5.25389 6.38738 4.90301 6.11203 4.62759C5.83669 4.35216 5.48582 4.16456 5.10382 4.08852C4.72182 4.01248 4.32585 4.0514 3.96598 4.20038C3.60611 4.34936 3.29852 4.60169 3.0821 4.92546C2.86569 5.24923 2.75017 5.62989 2.75017 6.01931C2.75097 6.54102 2.95855 7.04115 3.32744 7.41015C3.69634 7.77915 4.19647 7.98694 4.7183 7.98799ZM4.7183 5.03546C4.91293 5.03546 5.10319 5.09316 5.26502 5.20127C5.42684 5.30938 5.55297 5.46303 5.62745 5.64281C5.70194 5.82258 5.72142 6.0204 5.68345 6.21125C5.64548 6.40209 5.55176 6.5774 5.41414 6.71499C5.27651 6.85258 5.10117 6.94628 4.91028 6.98425C4.71939 7.02221 4.52153 7.00272 4.34172 6.92826C4.1619 6.85379 4.00821 6.72769 3.90008 6.5659C3.79195 6.40411 3.73424 6.21389 3.73424 6.01931C3.7345 5.75846 3.83826 5.50836 4.02275 5.32392C4.20724 5.13947 4.45739 5.03573 4.7183 5.03546Z" fill="black"/>
<path d="M14.1649 1.67999H1.83512C1.37112 1.68052 0.926282 1.86504 0.598187 2.19306C0.270092 2.52108 0.0855361 2.96582 0.0850067 3.42972V12.5703C0.0855361 13.0342 0.270092 13.4789 0.598187 13.8069C0.926282 14.1349 1.37112 14.3195 1.83512 14.32H14.1649C14.6289 14.3195 15.0737 14.1349 15.4018 13.8069C15.7299 13.4789 15.9145 13.0342 15.915 12.5703V3.42972C15.9145 2.96582 15.7299 2.52108 15.4018 2.19306C15.0737 1.86504 14.6289 1.68052 14.1649 1.67999ZM1.83512 3.17976H14.1649C14.231 3.18053 14.2941 3.20712 14.3408 3.25383C14.3875 3.30054 14.4141 3.36366 14.4149 3.42972V8.15797L12.8518 6.60021C12.482 6.23217 11.9815 6.02554 11.4597 6.02554C10.9379 6.02554 10.4374 6.23217 10.0676 6.60021L6.59742 10.0687L6.20439 9.67573C5.83475 9.30744 5.33416 9.10064 4.81231 9.10064C4.29045 9.10064 3.78986 9.30744 3.42022 9.67573L1.5851 11.5054V3.42972C1.58588 3.36366 1.61247 3.30054 1.65919 3.25383C1.70591 3.20712 1.76905 3.18053 1.83512 3.17976ZM7.49848 12.8202H2.12614L4.34828 10.5996C4.47158 10.477 4.63841 10.4082 4.81231 10.4082C4.9862 10.4082 5.15303 10.477 5.27633 10.5996L7.49848 12.8202ZM14.1649 12.8202H9.35459L7.52548 10.9915L10.9927 7.52407C11.116 7.40147 11.2828 7.33265 11.4567 7.33265C11.6306 7.33265 11.7975 7.40147 11.9208 7.52407L14.4119 10.0147V12.5713C14.4109 12.6366 14.3846 12.6991 14.3386 12.7455C14.2925 12.7919 14.2303 12.8187 14.1649 12.8202Z" fill="black"/>
</svg>
