<svg width="16" height="16" viewBox="0 0 16 16" fill="none" xmlns="http://www.w3.org/2000/svg">
<path d="M4.7183 7.98806C5.1078 7.98825 5.48861 7.87296 5.81256 7.65676C6.13651 7.44056 6.38905 7.13316 6.53825 6.77344C6.68744 6.41373 6.72658 6.01786 6.65071 5.63591C6.57484 5.25395 6.38738 4.90307 6.11203 4.62765C5.83669 4.35222 5.48582 4.16462 5.10382 4.08858C4.72182 4.01254 4.32585 4.05146 3.96598 4.20044C3.60611 4.34942 3.29852 4.60175 3.0821 4.92552C2.86569 5.24929 2.75017 5.62995 2.75017 6.01937C2.75097 6.54108 2.95855 7.04121 3.32744 7.41021C3.69634 7.77921 4.19647 7.987 4.7183 7.98806ZM4.7183 5.03552C4.91293 5.03552 5.10319 5.09322 5.26502 5.20133C5.42684 5.30944 5.55297 5.46309 5.62745 5.64287C5.70194 5.82264 5.72142 6.02046 5.68345 6.21131C5.64548 6.40215 5.55176 6.57746 5.41414 6.71505C5.27651 6.85264 5.10117 6.94635 4.91028 6.98431C4.71939 7.02227 4.52153 7.00279 4.34172 6.92832C4.1619 6.85386 4.00821 6.72775 3.90008 6.56596C3.79195 6.40417 3.73424 6.21395 3.73424 6.01937C3.7345 5.75852 3.83826 5.50843 4.02275 5.32398C4.20724 5.13953 4.45739 5.03579 4.7183 5.03552Z" fill="black"/>
<path d="M14.1649 1.68005H1.83512C1.37112 1.68058 0.926282 1.8651 0.598187 2.19312C0.270092 2.52114 0.0855361 2.96588 0.0850067 3.42978V12.5703C0.0855361 13.0342 0.270092 13.479 0.598187 13.807C0.926282 14.135 1.37112 14.3195 1.83512 14.3201H14.1649C14.6289 14.3195 15.0737 14.135 15.4018 13.807C15.7299 13.479 15.9145 13.0342 15.915 12.5703V3.42978C15.9145 2.96588 15.7299 2.52114 15.4018 2.19312C15.0737 1.8651 14.6289 1.68058 14.1649 1.68005ZM1.83512 3.17982H14.1649C14.231 3.18059 14.2941 3.20718 14.3408 3.25389C14.3875 3.3006 14.4141 3.36372 14.4149 3.42978V8.15803L12.8518 6.60028C12.482 6.23223 11.9815 6.0256 11.4597 6.0256C10.9379 6.0256 10.4374 6.23223 10.0676 6.60028L6.59742 10.0687L6.20439 9.67579C5.83475 9.3075 5.33416 9.10071 4.81231 9.10071C4.29045 9.10071 3.78986 9.3075 3.42022 9.67579L1.5851 11.5055V3.42978C1.58588 3.36372 1.61247 3.3006 1.65919 3.25389C1.70591 3.20718 1.76905 3.18059 1.83512 3.17982ZM7.49848 12.8203H2.12614L4.34828 10.5996C4.47158 10.477 4.63841 10.4082 4.81231 10.4082C4.9862 10.4082 5.15303 10.477 5.27633 10.5996L7.49848 12.8203ZM14.1649 12.8203H9.35459L7.52548 10.9916L10.9927 7.52413C11.116 7.40153 11.2828 7.33271 11.4567 7.33271C11.6306 7.33271 11.7975 7.40153 11.9208 7.52413L14.4119 10.0147V12.5713C14.4109 12.6367 14.3846 12.6991 14.3386 12.7455C14.2925 12.792 14.2303 12.8187 14.1649 12.8203Z" fill="black"/>
</svg>
