<svg xmlns="http://www.w3.org/2000/svg" viewBox="0 0 16 16"><title>photo-upload</title><g id="Layer_1" data-name="Layer 1"><path d="M3.28,7.23A1.55,1.55,0,1,0,4.83,5.68,1.54,1.54,0,0,0,3.28,7.23Zm1.55-.78a.78.78,0,1,1-.78.78A.78.78,0,0,1,4.83,6.45Z"/><path d="M13.55,3H12.07V4.3h1.48a.22.22,0,0,1,.22.22V8.78l-1.4-1.41a1.78,1.78,0,0,0-2.51,0L6.74,10.49l-.36-.35a1.77,1.77,0,0,0-2.5,0L2.23,11.79V4.52a.22.22,0,0,1,.22-.22H3.93V3H2.45A1.57,1.57,0,0,0,.88,4.52v8.23a1.58,1.58,0,0,0,1.57,1.57h11.1a1.58,1.58,0,0,0,1.57-1.57V4.52A1.57,1.57,0,0,0,13.55,3ZM2.71,13l2-2a.6.6,0,0,1,.84,0l2,2Zm11.06-.22a.22.22,0,0,1-.22.22H9.22L7.57,11.33,10.7,8.2a.59.59,0,0,1,.83,0l2.24,2.25Z"/><polygon points="6.74 5.47 9.26 5.47 9.26 2.94 10.95 2.94 8 0 5.05 2.94 6.74 2.94 6.74 5.47"/></g></svg>