<svg xmlns="http://www.w3.org/2000/svg" viewBox="0 0 16 16"><defs><style>.cls-1{fill:#010101;}</style></defs><title>report</title><g id="Layer_1" data-name="Layer 1"><path class="cls-1" d="M14.56.038H1.431A1.421,1.421,0,0,0,.019,1.46V14.613a1.411,1.411,0,0,0,1.412,1.412H14.561a1.411,1.411,0,0,0,1.411-1.412V1.449A1.411,1.411,0,0,0,14.56.038Zm-.18,14.106a.155.155,0,0,1-.144.156H1.757a.145.145,0,0,1-.145-.145V1.918a.156.156,0,0,1,.145-.156H14.234a.146.146,0,0,1,.145.146Z"/><rect class="cls-1" x="2.759" y="11.149" width="2.235" height="2.048"/><rect class="cls-1" x="5.505" y="8.592" width="2.235" height="4.604"/><rect class="cls-1" x="8.251" y="3.989" width="2.235" height="9.208"/><rect class="cls-1" x="10.998" y="6.882" width="2.235" height="6.314"/></g></svg>