<svg width="16" height="16" viewBox="0 0 16 16" fill="none" xmlns="http://www.w3.org/2000/svg">
<path d="M14.7785 9.93863L8.47057 4.52127V3.55221C9.94803 4.27926 11.4265 2.75216 12.9039 3.53421V0.900034C11.4265 0.120983 9.94803 1.64608 8.47057 0.921036V0.900034C8.47057 0.767417 8.41788 0.640232 8.32408 0.546458C8.23028 0.452683 8.10307 0.400002 7.97042 0.400002C7.83777 0.400002 7.71055 0.452683 7.61676 0.546458C7.52296 0.640232 7.47026 0.767417 7.47026 0.900034V4.52127L1.22034 9.92163C1.10481 10.0212 1.02239 10.1536 0.984064 10.3012C0.945735 10.4488 0.953318 10.6046 1.0058 10.7478C1.05829 10.891 1.15318 11.0147 1.27783 11.1026C1.40248 11.1905 1.55096 11.2383 1.70348 11.2397L2.74581 11.2497V14.85C2.74581 15.0489 2.82485 15.2397 2.96554 15.3803C3.10624 15.521 3.29706 15.6 3.49604 15.6H12.4208C12.6198 15.6 12.8106 15.521 12.9513 15.3803C13.092 15.2397 13.171 15.0489 13.171 14.85V11.2497H14.2894C14.4426 11.2498 14.5922 11.2029 14.7181 11.1155C14.8439 11.028 14.9399 10.9041 14.9932 10.7604C15.0465 10.6167 15.0545 10.4602 15.0161 10.3118C14.9777 10.1635 14.8948 10.0305 14.7785 9.93063V9.93863ZM11.6706 10.5077V14.1079H4.24627V10.5077C4.24637 10.3406 4.1906 10.1783 4.08783 10.0466C3.98506 9.91482 3.84119 9.82121 3.67909 9.78062L7.97242 6.06737L12.2807 9.76762C12.1084 9.79995 11.9529 9.89176 11.8414 10.027C11.7299 10.1623 11.6694 10.3324 11.6706 10.5077Z" fill="black"/>
</svg>
