<svg xmlns="http://www.w3.org/2000/svg" viewBox="0 0 16 16">
  <title>simple-people</title>
  <g id="Layer_1" data-name="Layer 1">
    <circle cx="12.282" cy="5.783" r="2.295" fill="#231f20"/>
    <circle cx="4.949" cy="4.666" r="3.06" fill="#231f20"/>
    <path d="M13.6,9.01H10.96a2.331,2.331,0,0,0-.712.111.337.337,0,0,0-.148.541,3.626,3.626,0,0,1,.845,2.327v.433a.478.478,0,0,0,.479.479h4.187a.359.359,0,0,0,.36-.359V11.377A2.367,2.367,0,0,0,13.6,9.01Z" fill="#231f20" fill-rule="evenodd"/>
    <path d="M9.39,14.161H.509a.479.479,0,0,1-.479-.479V12.128A3.157,3.157,0,0,1,3.186,8.971H6.713a3.157,3.157,0,0,1,3.156,3.157v1.554A.479.479,0,0,1,9.39,14.161Z" fill="#231f20" fill-rule="evenodd"/>
  </g>
</svg>
