<svg xmlns="http://www.w3.org/2000/svg" viewBox="0 0 16 16">
  <title>sms</title>
  <g id="Layer_1" data-name="Layer 1">
    <g>
      <path d="M11.3.528H4.66A4.636,4.636,0,0,0,.03,5.159V8.515a4.58,4.58,0,0,0,1.3,3.192L1.109,15.7l4.542-2.549H11.3A4.636,4.636,0,0,0,15.93,8.515V5.159A4.637,4.637,0,0,0,11.3.528ZM5.219,11.546,2.784,13.1l.209-2.057-.221-.179A3.016,3.016,0,0,1,1.626,8.515V5.159A3.037,3.037,0,0,1,4.66,2.125H11.3a3.037,3.037,0,0,1,3.034,3.034V8.515A3.037,3.037,0,0,1,11.3,11.549Z" fill="#231f20"/>
      <circle cx="8.103" cy="6.837" r="1.298" fill="#231f20"/>
      <path d="M4.579,5.539a1.3,1.3,0,1,0,1.3,1.3A1.3,1.3,0,0,0,4.579,5.539Z" fill="#231f20"/>
      <path d="M12.926,6.837a1.3,1.3,0,1,0-1.3,1.3A1.3,1.3,0,0,0,12.926,6.837Z" fill="#231f20"/>
    </g>
  </g>
</svg>
