<svg xmlns="http://www.w3.org/2000/svg" viewBox="0 0 16 16">
  <title>star-open</title>
  <g id="Layer_1" data-name="Layer 1">
    <path d="M12.1,14.93a.617.617,0,0,1-.291-.072L8,12.857l-3.806,2a.625.625,0,0,1-.907-.658l.727-4.24-3.079-3a.624.624,0,0,1,.346-1.066l4.256-.618,1.9-3.856a.651.651,0,0,1,1.122,0l1.9,3.856,4.256.618a.624.624,0,0,1,.346,1.066l-3.079,3,.727,4.24a.625.625,0,0,1-.616.73ZM8,11.526a.623.623,0,0,1,.291.072l2.976,1.565L10.7,9.848a.629.629,0,0,1,.18-.553l2.408-2.347L9.958,6.464a.624.624,0,0,1-.47-.341L8,3.107,6.512,6.123a.624.624,0,0,1-.47.341l-3.328.484L5.122,9.3a.629.629,0,0,1,.18.553l-.569,3.315L7.709,11.6A.623.623,0,0,1,8,11.526Z" fill="#231f20"/>
  </g>
</svg>
