<svg width="16" height="16" viewBox="0 0 16 16" fill="none" xmlns="http://www.w3.org/2000/svg">
<path d="M13.553 0.962413H2.44799C1.84507 0.934617 1.25561 1.14778 0.807585 1.55562C0.359556 1.96346 0.0891225 2.53306 0.0549927 3.14076V10.2708C0.0891225 10.8785 0.359556 11.4481 0.807585 11.856C1.25561 12.2638 1.84507 12.477 2.44799 12.4492H4.90199L7.99599 15.16L11.09 12.4492H13.553C14.1559 12.477 14.7454 12.2638 15.1934 11.856C15.6414 11.4481 15.9119 10.8785 15.946 10.2708V3.14076C15.9119 2.53306 15.6414 1.96346 15.1934 1.55562C14.7454 1.14778 14.1559 0.934617 13.553 0.962413ZM14.446 10.1185C14.4431 10.3354 14.3565 10.5425 14.2044 10.6958C14.0524 10.8492 13.847 10.9366 13.632 10.9395H10.815L7.99599 13.2943L5.17699 10.9395H2.36899C2.15399 10.9366 1.9486 10.8492 1.79656 10.6958C1.64452 10.5425 1.55784 10.3354 1.55499 10.1185V3.29607C1.55784 3.07924 1.64452 2.8721 1.79656 2.71877C1.9486 2.56544 2.15399 2.47803 2.36899 2.47515H13.632C13.847 2.47803 14.0524 2.56544 14.2044 2.71877C14.3565 2.8721 14.4431 3.07924 14.446 3.29607V10.1185Z" fill="black"/>
</svg>
