<svg xmlns="http://www.w3.org/2000/svg" viewBox="0 0 16 16"><title>twitter</title><g id="Layer_1" data-name="Layer 1"><path d="M5.188,14.274A8.922,8.922,0,0,0,14.17,5.292q0-.2-.009-.408A6.4,6.4,0,0,0,15.735,3.25a6.324,6.324,0,0,1-1.812.5A3.171,3.171,0,0,0,15.311,2a6.352,6.352,0,0,1-2.005.766A3.159,3.159,0,0,0,7.927,5.646a8.961,8.961,0,0,1-6.506-3.3A3.158,3.158,0,0,0,2.4,6.562a3.129,3.129,0,0,1-1.43-.4v.04A3.159,3.159,0,0,0,3.5,9.3a3.153,3.153,0,0,1-1.426.054,3.159,3.159,0,0,0,2.949,2.192A6.329,6.329,0,0,1,1.1,12.9a6.453,6.453,0,0,1-.753-.043,8.936,8.936,0,0,0,4.838,1.418"/></g></svg>