<svg width="16" height="16" viewBox="0 0 16 16" fill="none" xmlns="http://www.w3.org/2000/svg">
<path d="M14.08 0.785034H1.91999C1.51809 0.786622 1.13322 0.947484 0.849776 1.23235C0.566335 1.51721 0.407461 1.90282 0.407994 2.30461L0.399994 11.4221C0.40105 11.8248 0.561531 12.2107 0.846358 12.4954C1.13118 12.7802 1.51719 12.9406 1.91999 12.9417H7.67099C7.48521 12.4567 7.38767 11.9424 7.38299 11.4231H1.91999V4.83091L7.99999 8.4779L14.08 4.83091V7.65313C14.7078 8.03513 15.2302 8.56775 15.6 9.2027V2.30461C15.5989 1.90192 15.4385 1.51602 15.1536 1.23127C14.8688 0.946527 14.4828 0.78609 14.08 0.785034ZM14.08 3.0584L7.99999 6.70639L1.91999 3.0584V2.30461H14.08V3.0584Z" fill="black"/>
<path d="M11.8 7.61714C11.0484 7.61714 10.3137 7.83994 9.68883 8.25738C9.06392 8.67481 8.57686 9.26813 8.28925 9.96229C8.00164 10.6565 7.92639 11.4203 8.07301 12.1572C8.21963 12.8941 8.58155 13.5711 9.11299 14.1023C9.64443 14.6336 10.3215 14.9955 11.0587 15.142C11.7958 15.2886 12.5598 15.2134 13.2542 14.9259C13.9485 14.6383 14.542 14.1514 14.9596 13.5267C15.3771 12.9019 15.6 12.1674 15.6 11.4161C15.6 10.9172 15.5017 10.4232 15.3107 9.96229C15.1198 9.50138 14.8399 9.08259 14.487 8.72983C14.1341 8.37706 13.7152 8.09723 13.2542 7.90632C12.7932 7.7154 12.299 7.61714 11.8 7.61714ZM13.7 11.796H9.89999V11.0362H13.7V11.796Z" fill="black"/>
</svg>
