<svg width="16" height="16" viewBox="0 0 16 16" fill="none" xmlns="http://www.w3.org/2000/svg">
<path d="M14.08 0.785004H1.91999C1.51809 0.786591 1.13322 0.947454 0.849776 1.23232C0.566335 1.51718 0.407461 1.90279 0.407994 2.30458L0.399994 11.4221C0.40105 11.8247 0.561531 12.2106 0.846358 12.4954C1.13118 12.7801 1.51719 12.9406 1.91999 12.9416H7.67099C7.48521 12.4567 7.38767 11.9424 7.38299 11.4231H1.91999V4.83088L7.99999 8.47787L14.08 4.83088V7.6531C14.7078 8.0351 15.2302 8.56772 15.6 9.20267V2.30458C15.5989 1.90189 15.4385 1.51599 15.1536 1.23124C14.8688 0.946496 14.4828 0.786059 14.08 0.785004ZM14.08 3.05837L7.99999 6.70636L1.91999 3.05837V2.30458H14.08V3.05837Z" fill="black"/>
<path d="M11.8 7.61711C11.0484 7.61711 10.3137 7.83991 9.68883 8.25735C9.06392 8.67478 8.57686 9.2681 8.28925 9.96226C8.00164 10.6564 7.92639 11.4203 8.07301 12.1572C8.21963 12.8941 8.58155 13.571 9.11299 14.1023C9.64443 14.6336 10.3215 14.9954 11.0587 15.142C11.7958 15.2886 12.5598 15.2134 13.2542 14.9258C13.9485 14.6383 14.542 14.1514 14.9596 13.5266C15.3771 12.9019 15.6 12.1674 15.6 11.4161C15.6 10.9172 15.5017 10.4232 15.3107 9.96226C15.1198 9.50135 14.8399 9.08256 14.487 8.7298C14.1341 8.37703 13.7152 8.0972 13.2542 7.90629C12.7932 7.71537 12.299 7.61711 11.8 7.61711ZM13.7 11.796H9.89999V11.0362H13.7V11.796Z" fill="black"/>
</svg>
