<svg xmlns="http://www.w3.org/2000/svg" viewBox="0 0 16 16">
  <g id="Layer_1" data-name="Layer 1">
    <g>
      <path d="M14.08,1.186H1.92A1.518,1.518,0,0,0,.408,2.706L.4,11.826a1.524,1.524,0,0,0,1.52,1.52H7.671a4.357,4.357,0,0,1-.288-1.519H1.92V5.233L8,8.881l6.08-3.648V8.056a4.415,4.415,0,0,1,1.52,1.55v-6.9A1.524,1.524,0,0,0,14.08,1.186Zm0,2.274L8,7.109,1.92,3.46V2.706H14.08Z"/>
      <path d="M11.8,8.02a3.8,3.8,0,1,0,3.8,3.8A3.8,3.8,0,0,0,11.8,8.02Zm1.9,4.18H9.9v-.76h3.8Z"/>
    </g>
  </g>
</svg>
