<svg xmlns="http://www.w3.org/2000/svg" viewBox="0 0 16 16"><path d="M6.988,7.516a1.5,1.5,0,1,0,.858,1.95A1.5,1.5,0,0,0,6.988,7.516Z"/><path d="M10.824,5.029a.806.806,0,1,0,.806.8A.807.807,0,0,0,10.824,5.029Z"/><path d="M8,.269C1.815.269.269,1.815.269,8S1.815,15.731,8,15.731,15.731,14.185,15.731,8,14.185.269,8,.269ZM9.213,11.353l-1,.8-.72-.9a2.558,2.558,0,0,1-1.349.205L5.725,12.54l-1.2-.467L4.948,11a2.574,2.574,0,0,1-.8-.929l-1.225.186-.2-1.306,1.158-.176a2.61,2.61,0,0,1,.5-1.387l-.715-.9,1-.8.714.891A2.556,2.556,0,0,1,6.75,6.373L7.164,5.31l1.192.462L7.941,6.84a2.487,2.487,0,0,1,.853,1.072L9.933,7.74,10.128,9,8.989,9.18a2.371,2.371,0,0,1-.157.667,2.424,2.424,0,0,1-.338.605Zm3.2-3.98-.543-.314a1.61,1.61,0,0,1-2.092,0l-.544.314L8.7,6.444l.548-.319a1.473,1.473,0,0,1-.029-.291A1.606,1.606,0,0,1,10.29,4.319V3.685h1.073v.634a1.606,1.606,0,0,1,1.072,1.515,1.473,1.473,0,0,1-.028.291l.548.319Z"/></svg>