<svg xmlns="http://www.w3.org/2000/svg" viewBox="0 0 32 32"><title>calendar-logomark</title><g id="New"><path d="M11.3,14.555h9.4V20.48H11.3ZM30.308,16c0,11.448-2.862,14.31-14.31,14.31S1.687,27.448,1.687,16,4.549,1.69,16,1.69,30.308,4.552,30.308,16Zm-7.477-4.315a.838.838,0,0,0-.838-.838H20.7v-1A.793.793,0,0,0,19.9,9.05h-.378a.793.793,0,0,0-.793.793v1h-5.47v-1a.793.793,0,0,0-.793-.793h-.378a.793.793,0,0,0-.793.793v1H10a.838.838,0,0,0-.837.838V21.848a.837.837,0,0,0,.837.837H21.993a.838.838,0,0,0,.838-.837Z"/></g></svg>