<svg xmlns="http://www.w3.org/2000/svg" viewBox="0 0 32 32"><title>church-center-logomark</title><g id="New"><g id="New-2" data-name="New"><path d="M16,1.732C4.586,1.732,1.732,4.586,1.732,16S4.586,30.268,16,30.268,30.268,27.415,30.268,16,27.415,1.732,16,1.732Zm5.59,21.1a.478.478,0,0,1-.472.484h0l-2.806-.023a.478.478,0,0,1-.485-.473h0s.008-.334.008-2.576A5.264,5.264,0,0,0,16,16.464a5.27,5.27,0,0,0-1.832,3.78c0,2.242.007,2.576.007,2.576a.478.478,0,0,1-.483.473h0l-2.807.023a.478.478,0,0,1-.473-.483h0s-.347-9.249-.028-9.526h0l5.132-4.428a.745.745,0,0,1,.98,0l5.127,4.428h-.006c.32.3-.026,9.521-.026,9.521Z"/></g></g></svg>