<svg xmlns="http://www.w3.org/2000/svg" viewBox="0 0 188.616 32"><title>church-center-logotype</title><g id="New"><g id="New-2" data-name="New"><path d="M12.978,3.022C2.6,3.022,0,5.617,0,16S2.6,28.978,12.978,28.978,25.955,26.377,25.955,16,23.36,3.022,12.978,3.022ZM18.062,22.21a.437.437,0,0,1-.431.44l-2.552-.021a.435.435,0,0,1-.441-.429h0s.006-.3.006-2.343a4.79,4.79,0,0,0-1.666-3.438,4.782,4.782,0,0,0-1.667,3.438c0,2.039.007,2.343.007,2.343a.436.436,0,0,1-.44.43h0l-2.553.021a.435.435,0,0,1-.43-.44h0s-.316-8.413-.026-8.664h0l4.668-4.029a.681.681,0,0,1,.892,0l4.663,4.029h-.005C18.377,13.821,18.062,22.209,18.062,22.21Z"/><path d="M39.768,23.773a6.732,6.732,0,0,1-6.734-6.73c0-.048,0-.1,0-.145A6.841,6.841,0,0,1,39.8,10a5.776,5.776,0,0,1,4.8,2.287.764.764,0,0,1-.1,1.075l-.026.02-1.008.924c-.448.415-.788.081-1.011-.141a3.8,3.8,0,0,0-2.576-1.255,3.842,3.842,0,0,0-3.8,3.88c0,.028,0,.056,0,.083a3.818,3.818,0,0,0,3.634,3.994c.028,0,.057,0,.086,0a3.421,3.421,0,0,0,2.653-1.261c.107-.105.21-.207.314-.3a.717.717,0,0,1,1.009-.08l.022.019.868.7c.5.458.413.844.25,1.091A6.011,6.011,0,0,1,39.768,23.773Z"/><path d="M65.583,23.773c-4.379,0-4.94-3.239-4.94-6.062V11.024a.779.779,0,0,1,.74-.741h1.568a.761.761,0,0,1,.741.741v6.888c0,2.017.761,2.955,2.4,2.955a3.086,3.086,0,0,0,2.9-2.027V11.024c0-.684.421-.741.853-.741h1.429a.8.8,0,0,1,.768.741v11.7a.776.776,0,0,1-.768.742H70.6c-.424,0-.59-.3-.706-.615l-.267-.734A5.271,5.271,0,0,1,65.583,23.773Z"/><path d="M76.651,23.472H75.363a.751.751,0,0,1-.741-.742V11.03a.762.762,0,0,1,.741-.741h.672a.723.723,0,0,1,.682.546l.289.933a5.163,5.163,0,0,1,3.873-1.76c.921,0,2.116.191,2.453.727a.647.647,0,0,1,.012.657l-.673,1.4a.738.738,0,0,1-.421.408.678.678,0,0,1-.531-.042,3.122,3.122,0,0,0-1.12-.239,3.579,3.579,0,0,0-2.927,1.642v8.173C77.672,23.472,77.058,23.472,76.651,23.472Z"/><path d="M89.853,23.773a6.732,6.732,0,0,1-6.734-6.73c0-.047,0-.094,0-.141A6.841,6.841,0,0,1,89.881,10a5.776,5.776,0,0,1,4.8,2.287.764.764,0,0,1-.1,1.075l-.026.02-1.008.924c-.448.415-.788.081-1.011-.141a3.794,3.794,0,0,0-2.573-1.254,3.841,3.841,0,0,0-3.8,3.879c0,.028,0,.056,0,.084A3.817,3.817,0,0,0,89.8,20.869c.027,0,.055,0,.083,0a3.421,3.421,0,0,0,2.653-1.261c.107-.105.21-.207.314-.3a.717.717,0,0,1,1.009-.08l.022.019.868.7c.5.458.413.844.25,1.091A6.011,6.011,0,0,1,89.853,23.773Z"/><path d="M122.855,23.773a6.732,6.732,0,0,1-6.733-6.731c0-.048,0-.1,0-.144a6.839,6.839,0,0,1,6.761-6.9,5.773,5.773,0,0,1,4.8,2.286.764.764,0,0,1-.1,1.075l-.026.021-1.008.923c-.448.415-.788.081-1.011-.141a3.794,3.794,0,0,0-2.573-1.254,3.841,3.841,0,0,0-3.8,3.879c0,.028,0,.056,0,.084a3.818,3.818,0,0,0,3.639,3.989l.072,0a3.428,3.428,0,0,0,2.653-1.261c.107-.105.21-.207.314-.3a.716.716,0,0,1,1.009-.081l.022.02.868.7c.5.457.413.844.25,1.09A6.012,6.012,0,0,1,122.855,23.773Z"/><path d="M135.265,10a6.579,6.579,0,0,0-6.572,6.583c0,.1,0,.192.007.287,0,4,2.773,6.9,6.593,6.9a7.384,7.384,0,0,0,4.869-1.626.636.636,0,0,0,.213-.875.65.65,0,0,0-.132-.155l-.758-1.177a.581.581,0,0,0-.366-.276.779.779,0,0,0-.566.187,4.866,4.866,0,0,1-3.092,1.069,3.683,3.683,0,0,1-3.733-3.278h8.8a.728.728,0,0,0,.712-.67c.03-.231.058-.683.058-.911A5.915,5.915,0,0,0,135.528,10C135.44,10,135.353,10,135.265,10Zm-3.385,5.32a3.158,3.158,0,0,1,3.328-2.689,2.921,2.921,0,0,1,3.06,2.689Z"/><path d="M154.111,23.472h-1.568a.751.751,0,0,1-.741-.742V16.12c0-2.068-.861-3.207-2.423-3.207a3.839,3.839,0,0,0-3.291,1.779v8.036c0,.5-.288.742-.881.742h-1.428a.752.752,0,0,1-.741-.742v-11.7a.761.761,0,0,1,.741-.741h.672a.62.62,0,0,1,.654.489l.32.911a6.043,6.043,0,0,1,4.29-1.681c3.457,0,5.138,2.038,5.138,6.229v6.5A.771.771,0,0,1,154.111,23.472Z"/><path d="M161.3,23.773c-3.014,0-3.4-2.132-3.4-3.989V12.912h-1.359a.75.75,0,0,1-.741-.739V11.024a.718.718,0,0,1,.692-.741H157.9V6.8a.752.752,0,0,1,.742-.742h1.595a.72.72,0,0,1,.713.727v3.5h3.291a.733.733,0,0,1,.742.725v1.164a.77.77,0,0,1-.742.739H160.95v6.761c0,1,.334,1.19.911,1.19a4.2,4.2,0,0,0,2.009-.6.639.639,0,0,1,.539-.08.7.7,0,0,1,.4.423l.5,1.316a.7.7,0,0,1-.36.906A7.885,7.885,0,0,1,161.3,23.773Z"/><path d="M172.036,10a6.578,6.578,0,0,0-6.572,6.583c0,.1,0,.194.007.291,0,4,2.772,6.9,6.593,6.9a7.405,7.405,0,0,0,4.869-1.626.639.639,0,0,0,.212-.878.658.658,0,0,0-.131-.152l-.758-1.177a.578.578,0,0,0-.366-.276.774.774,0,0,0-.567.187,4.871,4.871,0,0,1-3.092,1.068,3.683,3.683,0,0,1-3.733-3.277h8.8a.73.73,0,0,0,.712-.67c.029-.231.057-.683.057-.912A5.914,5.914,0,0,0,172.3,10C172.213,10,172.125,10,172.036,10Zm-3.385,5.32a3.157,3.157,0,0,1,3.329-2.689,2.92,2.92,0,0,1,3.059,2.689Z"/><path d="M181.839,23.472h-1.288a.751.751,0,0,1-.741-.742V11.03a.761.761,0,0,1,.741-.741h.672a.72.72,0,0,1,.681.546l.289.933a5.163,5.163,0,0,1,3.873-1.76c.921,0,2.117.191,2.454.727a.645.645,0,0,1,.011.657l-.673,1.4a.736.736,0,0,1-.42.408.68.68,0,0,1-.532-.042,3.122,3.122,0,0,0-1.12-.239,3.581,3.581,0,0,0-2.927,1.642v8.173C182.859,23.472,182.245,23.472,181.839,23.472Z"/><path d="M53.2,10.091a6.2,6.2,0,0,0-3.627,1.224V5.887a.792.792,0,0,0-.741-.74H47.264a.762.762,0,0,0-.741.74V22.816a.741.741,0,0,0,.741.741H48.8a.723.723,0,0,0,.768-.675c0-.022,0-.044,0-.066V14.782A3.753,3.753,0,0,1,52.831,13c1.582,0,2.452,1.159,2.452,3.263v6.552a.75.75,0,0,0,.741.741H57.6a.759.759,0,0,0,.741-.741v-6.5C58.336,12.245,56.56,10.091,53.2,10.091Z"/><path d="M103.285,10.091a6.2,6.2,0,0,0-3.627,1.224V5.887a.792.792,0,0,0-.741-.74H97.349a.762.762,0,0,0-.741.74V22.816a.741.741,0,0,0,.741.741h1.54a.723.723,0,0,0,.768-.675c0-.022,0-.044,0-.066V14.782A3.753,3.753,0,0,1,102.92,13c1.581,0,2.452,1.159,2.452,3.263v6.552a.75.75,0,0,0,.741.741h1.567a.759.759,0,0,0,.741-.741v-6.5C108.421,12.245,106.645,10.091,103.285,10.091Z"/></g></g></svg>