<svg xmlns="http://www.w3.org/2000/svg" viewBox="0 0 97.857 32"><title>giving-logotype</title><g id="New"><path d="M12.978,3.022C2.6,3.022,0,5.618,0,16S2.6,28.978,12.978,28.978,25.955,26.382,25.955,16,23.36,3.022,12.978,3.022Zm.386,17.9a.661.661,0,0,1-.772,0c-1.642-1.159-7.8-5.861-4.262-8.906a3.11,3.11,0,0,1,4.192.266l.456.456.455-.456a3.11,3.11,0,0,1,4.192-.266C21.165,15.058,15.006,19.76,13.364,20.919Z"/><path d="M44.591,8.892h-.756c-.436,0-.546.331-.616.54l-.253.614a6.2,6.2,0,0,0-4.032-1.434c-3.507,0-6.255,3.03-6.255,6.9,0,3.883,2.809,6.925,6.395,6.925a7.008,7.008,0,0,0,3.154-.816v.443c0,2.745-1.67,3.321-3.07,3.321a4.709,4.709,0,0,1-2.934-1.174.75.75,0,0,0-.615-.15.723.723,0,0,0-.475.395l-.669,1.229a.742.742,0,0,0,.163.908,7.125,7.125,0,0,0,4.587,1.668c3.788,0,6.141-2.375,6.141-6.2V9.657A.786.786,0,0,0,44.591,8.892ZM42.256,13.28v5.235a5.145,5.145,0,0,1-2.846.961,3.86,3.86,0,0,1-3.629-3.966,3.5,3.5,0,0,1,6.475-2.23Z"/><path d="M49.468,3.048a2.005,2.005,0,0,0-2,2.054,1.991,1.991,0,0,0,2,2.026,2.04,2.04,0,1,0,0-4.08Z"/><path d="M48.682,8.892h1.569a.767.767,0,0,1,.767.767v11.7a.766.766,0,0,1-.766.766H48.682a.766.766,0,0,1-.766-.766V9.657A.765.765,0,0,1,48.682,8.892Z"/><path d="M64.259,8.892H63c-.373,0-.8,0-1.005.451l-3.5,7.681L55.154,9.338a.706.706,0,0,0-.694-.446H52.752a.707.707,0,0,0-.642.31.634.634,0,0,0,.032.636l5.6,12.178a.776.776,0,0,0,.693.419H58.6a.728.728,0,0,0,.668-.423L64.866,9.844A.632.632,0,0,0,64.9,9.2.707.707,0,0,0,64.259,8.892Z"/><path d="M67.571,3.048a2.005,2.005,0,0,0-2,2.054,2.014,2.014,0,0,0,2,2.026,2.04,2.04,0,1,0,0-4.08Z"/><path d="M66.786,8.892h1.569a.767.767,0,0,1,.767.767v11.7a.766.766,0,0,1-.766.766H66.788a.767.767,0,0,1-.767-.767V9.657A.765.765,0,0,1,66.786,8.892Z"/><path d="M78.348,8.612a6.09,6.09,0,0,0-4.28,1.66l-.306-.87a.643.643,0,0,0-.677-.51h-.672a.787.787,0,0,0-.767.765v11.7a.768.768,0,0,0,.767.766h1.428c.609,0,.906-.251.906-.766V13.331a3.816,3.816,0,0,1,3.265-1.759c1.546,0,2.4,1.13,2.4,3.182v6.608a.777.777,0,0,0,.766.766h1.568a.786.786,0,0,0,.766-.766v-6.5C83.51,10.657,81.822,8.612,78.348,8.612Z"/><path d="M97.092,8.892h-.756c-.436,0-.546.331-.616.54l-.253.614a6.2,6.2,0,0,0-4.032-1.434c-3.507,0-6.255,3.03-6.255,6.9,0,3.883,2.809,6.925,6.395,6.925a7.008,7.008,0,0,0,3.154-.816v.443c0,2.745-1.67,3.321-3.07,3.321a4.709,4.709,0,0,1-2.934-1.174.75.75,0,0,0-.615-.15.723.723,0,0,0-.475.395l-.669,1.229a.742.742,0,0,0,.163.908,7.125,7.125,0,0,0,4.587,1.668c3.788,0,6.141-2.375,6.141-6.2V9.657A.786.786,0,0,0,97.092,8.892ZM94.757,13.28v5.235a5.145,5.145,0,0,1-2.846.961,3.86,3.86,0,0,1-3.629-3.966,3.5,3.5,0,0,1,6.475-2.23Z"/></g></svg>