<svg xmlns="http://www.w3.org/2000/svg" viewBox="0 0 16 16"><path d="M8,.269C1.815.269.269,1.815.269,8S1.815,15.731,8,15.731,15.731,14.185,15.731,8,14.185.269,8,.269ZM6.577,4.687A1.568,1.568,0,1,1,5.01,6.254,1.568,1.568,0,0,1,6.577,4.687Zm2.376,6.626H4.187V9.884a1.43,1.43,0,0,1,1.43-1.43H7.523a1.43,1.43,0,0,1,1.43,1.43ZM10.18,5.625A1.176,1.176,0,1,1,9,6.8,1.175,1.175,0,0,1,10.18,5.625Zm1.633,4.733H9.43V9.882a1.777,1.777,0,0,0-.158-.744.445.445,0,0,0-.047-.11.73.73,0,0,0-.048-.085,1.144,1.144,0,0,0-.071-.124.877.877,0,0,1,.705-.367h1.144a.86.86,0,0,1,.858.858Z"/></svg>