<svg xmlns="http://www.w3.org/2000/svg" viewBox="0 0 143.368 32"><title>publishing-logotype</title><g id="New"><path d="M39.313,9.762a6.137,6.137,0,0,0-4.012,1.45l-.266-.667a.657.657,0,0,0-.678-.5h-.7a.77.77,0,0,0-.741.74V28.47a.75.75,0,0,0,.741.741h1.568a.729.729,0,0,0,.8-.741V22.73a7.269,7.269,0,0,0,3.179.806c3.556,0,6.341-3.031,6.341-6.9C45.542,12.781,42.806,9.762,39.313,9.762Zm-3.347,4.624a3.441,3.441,0,0,1,2.983-1.714c2.053,0,3.543,1.667,3.543,3.963a3.793,3.793,0,0,1-3.655,3.992,5.367,5.367,0,0,1-2.871-.892Z"/><path d="M57.888,10.043H56.46c-.432,0-.853.057-.853.74l0,7.817a3.088,3.088,0,0,1-2.9,2.027c-1.634,0-2.395-.939-2.395-2.956V10.783a.771.771,0,0,0-.741-.74H48a.79.79,0,0,0-.741.74v6.692c0,2.822.561,6.061,4.941,6.061a5.279,5.279,0,0,0,4.04-1.656l.266.733c.111.3.28.615.706.615h.672a.775.775,0,0,0,.769-.741v-11.7A.8.8,0,0,0,57.888,10.043Z"/><path d="M67.447,9.762a8.9,8.9,0,0,0-3.1.613l-.023.008V4.828a.791.791,0,0,0-.742-.74H61.987a.759.759,0,0,0-.741.74V22.487a.75.75,0,0,0,.741.741h.672a.743.743,0,0,0,.708-.649l.22-.751a6.323,6.323,0,0,0,4.2,1.708c3.388,0,6.145-3.1,6.145-6.9A6.615,6.615,0,0,0,67.447,9.762ZM64.3,13.323a6.866,6.866,0,0,1,2.844-.651,3.907,3.907,0,0,1,3.738,3.963,3.78,3.78,0,0,1-3.514,3.992,3.606,3.606,0,0,1-3.068-1.78Z"/><path d="M76.546,4.088h1.569a.74.74,0,0,1,.74.74V22.487a.741.741,0,0,1-.741.741H76.547a.741.741,0,0,1-.741-.741V4.828A.741.741,0,0,1,76.546,4.088Z"/><path d="M82.218,10.043h1.568a.741.741,0,0,1,.741.741v11.7a.741.741,0,0,1-.741.741H82.219a.741.741,0,0,1-.741-.741v-11.7A.74.74,0,0,1,82.218,10.043Z"/><path d="M83,4.088A1.98,1.98,0,0,0,81.03,6.117a1.966,1.966,0,0,0,1.973,2,2.015,2.015,0,1,0,0-4.03Z"/><path d="M91.455,15.233c-1.385-.6-2.136-1.067-2.136-1.79,0-.509.472-1.022,1.527-1.022a6.584,6.584,0,0,1,2.721.632.73.73,0,0,0,1-.31l.447-.9a.892.892,0,0,0-.323-1.112,7.39,7.39,0,0,0-3.848-.973c-3.046,0-4.409,1.835-4.409,3.654,0,2.276,1.718,3.364,3.573,4.2,1.829.828,2.7,1.358,2.7,2.126,0,.69-.622,1.136-1.583,1.136a5.842,5.842,0,0,1-3.11-.91l-.047-.026a.806.806,0,0,0-.637-.1.613.613,0,0,0-.378.317l-.588,1.2a.655.655,0,0,0,.263.83h0a7.658,7.658,0,0,0,4.327,1.338c3.115,0,4.745-1.964,4.745-3.905C95.7,17.212,94.021,16.319,91.455,15.233Z"/><path d="M104.022,9.762a6.215,6.215,0,0,0-3.627,1.223V4.828a.79.79,0,0,0-.741-.74H98.086a.759.759,0,0,0-.741.74V22.487a.75.75,0,0,0,.741.741h1.54a.723.723,0,0,0,.769-.741V14.454a3.754,3.754,0,0,1,3.263-1.782c1.581,0,2.451,1.159,2.451,3.263v6.552a.751.751,0,0,0,.741.741h1.568a.77.77,0,0,0,.741-.741v-6.5C109.159,11.916,107.383,9.762,104.022,9.762Z"/><path d="M112.323,10.043h1.568a.741.741,0,0,1,.741.741v11.7a.741.741,0,0,1-.741.741h-1.568a.741.741,0,0,1-.741-.741v-11.7A.74.74,0,0,1,112.323,10.043Z"/><path d="M113.108,4.088a1.98,1.98,0,0,0-1.973,2.029,1.966,1.966,0,0,0,1.973,2,2.015,2.015,0,1,0,0-4.03Z"/><path d="M123.885,9.762a6.055,6.055,0,0,0-4.291,1.68l-.319-.91a.62.62,0,0,0-.654-.489h-.672a.77.77,0,0,0-.741.74v11.7a.75.75,0,0,0,.741.741h1.428c.593,0,.881-.243.881-.741V14.451a3.842,3.842,0,0,1,3.291-1.779c1.562,0,2.423,1.14,2.423,3.208v6.607a.75.75,0,0,0,.741.741h1.568a.771.771,0,0,0,.741-.741v-6.5C129.022,11.8,127.342,9.762,123.885,9.762Z"/><path d="M142.628,10.043h-.756c-.417,0-.52.308-.592.524l-.267.646a6.176,6.176,0,0,0-4.041-1.451c-3.493,0-6.229,3.019-6.229,6.873,0,3.87,2.8,6.9,6.369,6.9a7.077,7.077,0,0,0,3.179-.835v.486c0,2.766-1.683,3.347-3.095,3.347a4.742,4.742,0,0,1-2.949-1.179.715.715,0,0,0-.594-.146.7.7,0,0,0-.459.382l-.671,1.23a.718.718,0,0,0,.161.878,7.1,7.1,0,0,0,4.568,1.661c3.772,0,6.116-2.365,6.116-6.173v-12.4A.759.759,0,0,0,142.628,10.043Zm-5.18,10.584a3.886,3.886,0,0,1-3.655-3.992,3.523,3.523,0,0,1,6.526-2.236v5.254A5.173,5.173,0,0,1,137.448,20.627Z"/><path d="M13.032,3.255C2.65,3.255.055,5.851.055,16.233s2.6,12.978,12.977,12.978,12.978-2.6,12.978-12.978S23.415,3.255,13.032,3.255ZM9.52,20.907a.622.622,0,0,1-.622.622H7.654a.623.623,0,0,1-.622-.622V11.559a.623.623,0,0,1,.622-.622H8.9a.622.622,0,0,1,.622.622Zm9.512,0a.622.622,0,0,1-.622.622H12.1a.623.623,0,0,1-.622-.622V19.636a.622.622,0,0,1,.622-.622H18.41a.621.621,0,0,1,.622.622Zm0-4.529a.621.621,0,0,1-.621.621H12.1a.622.622,0,0,1-.622-.621V11.559a.623.623,0,0,1,.622-.622H18.41a.622.622,0,0,1,.622.622Z"/></g></svg>