<svg xmlns="http://www.w3.org/2000/svg" viewBox="0 0 32 32"><title>publishing-logomark</title><g id="New"><path d="M16.31,1.541C4.862,1.541,2,4.4,2,15.851S4.862,30.162,16.31,30.162,30.621,27.3,30.621,15.851,27.759,1.541,16.31,1.541ZM12.438,21.005a.686.686,0,0,1-.686.686H10.38a.686.686,0,0,1-.686-.686V10.7a.686.686,0,0,1,.686-.686h1.372a.686.686,0,0,1,.686.686Zm10.489,0a.686.686,0,0,1-.686.686H15.287a.686.686,0,0,1-.686-.686V19.6a.686.686,0,0,1,.686-.686h6.954a.686.686,0,0,1,.686.686Zm0-4.994a.686.686,0,0,1-.686.685H15.287a.686.686,0,0,1-.686-.685V10.7a.686.686,0,0,1,.686-.686h6.954a.686.686,0,0,1,.686.686Z"/></g></svg>