<svg xmlns="http://www.w3.org/2000/svg" viewBox="0 0 16 16"><path d="M8,.269C1.815.269.269,1.815.269,8S1.815,15.731,8,15.731,15.731,14.185,15.731,8,14.185.269,8,.269ZM5.908,10.784a.371.371,0,0,1-.371.371H4.8a.371.371,0,0,1-.37-.371V5.216a.371.371,0,0,1,.37-.371h.741a.371.371,0,0,1,.371.371Zm5.666,0a.371.371,0,0,1-.37.371H7.447a.37.37,0,0,1-.37-.371v-.757a.37.37,0,0,1,.37-.37H11.2a.37.37,0,0,1,.37.37Zm0-2.7a.371.371,0,0,1-.37.371H7.447a.37.37,0,0,1-.37-.371V5.216a.37.37,0,0,1,.37-.371H11.2a.371.371,0,0,1,.37.371Z"/></svg>