<svg xmlns="http://www.w3.org/2000/svg" viewBox="0 0 169.804 32"><title>registrations-logotype</title><g id="New"><path d="M41.578,10.076l-.672,1.4a.759.759,0,0,1-.435.419.7.7,0,0,1-.55-.041,3.067,3.067,0,0,0-1.11-.237,3.554,3.554,0,0,0-2.9,1.623v8.167c0,.766-.63.766-1.046.766H33.575a.777.777,0,0,1-.767-.766V9.7a.786.786,0,0,1,.767-.765h.672a.748.748,0,0,1,.707.564l.276.894a5.094,5.094,0,0,1,3.86-1.739c.973,0,2.133.194,2.475.738A.673.673,0,0,1,41.578,10.076Zm12.447,4.666c0,.23-.029.683-.059.915a.75.75,0,0,1-.736.691H44.455a3.663,3.663,0,0,0,3.708,3.228,4.854,4.854,0,0,0,3.077-1.064.8.8,0,0,1,.584-.192.614.614,0,0,1,.384.287l.756,1.178a.664.664,0,0,1-.084,1.063A7.419,7.419,0,0,1,48,22.48c-3.835,0-6.619-2.913-6.619-6.926a6.6,6.6,0,0,1,6.59-6.9A5.939,5.939,0,0,1,54.025,14.742Zm-9.414-.765h6.332a2.9,2.9,0,0,0-3.032-2.641A3.134,3.134,0,0,0,44.611,13.977ZM67.619,9.7v12.4c0,3.823-2.354,6.2-6.143,6.2a7.122,7.122,0,0,1-4.586-1.668.734.734,0,0,1-.164-.908l.67-1.23a.724.724,0,0,1,.475-.394.742.742,0,0,1,.615.15,4.721,4.721,0,0,0,2.935,1.174c1.4,0,3.069-.576,3.069-3.322v-.444a7.085,7.085,0,0,1-3.153.818c-3.586,0-6.4-3.042-6.4-6.926,0-3.868,2.747-6.9,6.254-6.9a6.223,6.223,0,0,1,4.032,1.434l.254-.613c.069-.21.18-.54.614-.54h.756A.786.786,0,0,1,67.619,9.7ZM61.56,11.616a3.662,3.662,0,0,0-3.517,3.938,3.861,3.861,0,0,0,3.629,3.967,5.149,5.149,0,0,0,2.846-.961V13.324A3.68,3.68,0,0,0,61.56,11.616ZM72.513,8.937H70.946a.786.786,0,0,0-.767.765v11.7a.768.768,0,0,0,.767.766h1.567a.787.787,0,0,0,.767-.766V9.7A.807.807,0,0,0,72.513,8.937ZM71.729,3.1a2.006,2.006,0,0,0-2,2.054,2.014,2.014,0,0,0,2,2.026,2.04,2.04,0,1,0,0-4.08Zm8.462,11.025c-1.376-.6-2.121-1.058-2.121-1.767,0-.5.464-1,1.5-1A6.551,6.551,0,0,1,82.283,12a.755.755,0,0,0,1.035-.322l.447-.895a.917.917,0,0,0-.331-1.145,7.418,7.418,0,0,0-3.862-.977c-3.064,0-4.435,1.848-4.435,3.679,0,2.291,1.725,3.384,3.589,4.224,1.819.824,2.684,1.348,2.684,2.1,0,.685-.6,1.111-1.558,1.111a5.842,5.842,0,0,1-3.1-.906l-.047-.026a.824.824,0,0,0-.655-.1.642.642,0,0,0-.4.329l-.587,1.2a.676.676,0,0,0,.271.86l0,0a7.692,7.692,0,0,0,4.341,1.342c3.131,0,4.77-1.977,4.77-3.93C84.454,16.116,82.765,15.219,80.191,14.129Zm13.714,5.149a.72.72,0,0,0-.412-.435.669.669,0,0,0-.561.082,4.2,4.2,0,0,1-2,.6c-.467,0-.886-.09-.886-1.167V11.616h3.266a.787.787,0,0,0,.767-.766V9.7a.758.758,0,0,0-.767-.765H90.051V5.474a.745.745,0,0,0-.738-.766h-1.6a.767.767,0,0,0-.765.766V8.937H85.617a.74.74,0,0,0-.767.765V10.85a.768.768,0,0,0,.767.766h1.334v6.85c0,1.869.389,4.014,3.426,4.014a7.934,7.934,0,0,0,3.664-.947.723.723,0,0,0,.368-.937Zm10.42-9.884c-.342-.544-1.5-.738-2.474-.738a5.193,5.193,0,0,0-3.862,1.734L97.713,9.5a.744.744,0,0,0-.706-.565h-.671a.785.785,0,0,0-.767.765v11.7a.768.768,0,0,0,.767.766h1.287c.417,0,1.047,0,1.047-.766V13.239a3.553,3.553,0,0,1,2.9-1.623,3.045,3.045,0,0,1,1.108.237.707.707,0,0,0,.552.041.759.759,0,0,0,.435-.419l.671-1.4A.671.671,0,0,0,104.325,9.394Zm10.847,5.124v6.888a.786.786,0,0,1-.766.766h-.924c-.369,0-.535-.216-.671-.54l-.234-.661a5.7,5.7,0,0,1-3.911,1.509,4.16,4.16,0,0,1-4.323-4.462c0-2.625,2.093-4.322,5.331-4.322a9.992,9.992,0,0,1,2.457.344,2.988,2.988,0,0,0-.543-2.166,1.838,1.838,0,0,0-1.382-.454,13.194,13.194,0,0,0-3.57.61.749.749,0,0,1-.917-.642l-.251-1.064a.733.733,0,0,1,.514-.931,14.052,14.052,0,0,1,4.5-.737C114.82,8.656,115.172,11.311,115.172,14.518Zm-3.073,3.9V16.4a6.317,6.317,0,0,0-2.2-.388c-1.5,0-2.51.795-2.51,1.978a1.745,1.745,0,0,0,1.866,1.894A3.876,3.876,0,0,0,112.1,18.423Zm13.092.855a.72.72,0,0,0-.412-.435.669.669,0,0,0-.561.082,4.2,4.2,0,0,1-2,.6c-.467,0-.886-.09-.886-1.167V11.616H124.6a.787.787,0,0,0,.767-.766V9.7a.758.758,0,0,0-.767-.765h-3.266V5.474a.745.745,0,0,0-.738-.766H119a.767.767,0,0,0-.766.766V8.937H116.9a.741.741,0,0,0-.767.765V10.85a.768.768,0,0,0,.767.766h1.334v6.85c0,1.869.39,4.014,3.426,4.014a7.934,7.934,0,0,0,3.664-.947.723.723,0,0,0,.368-.937Zm4-10.341h-1.567a.786.786,0,0,0-.767.765v11.7a.768.768,0,0,0,.767.766h1.567a.787.787,0,0,0,.767-.766V9.7A.807.807,0,0,0,129.186,8.937ZM128.4,3.1a2.006,2.006,0,0,0-2,2.054,2.014,2.014,0,0,0,2,2.026,2.04,2.04,0,1,0,0-4.08Zm16.716,12.422a6.936,6.936,0,0,1-6.731,6.954,6.914,6.914,0,1,1,6.731-6.954Zm-6.731-3.91a3.732,3.732,0,0,0-3.714,3.91,3.711,3.711,0,1,0,7.4,0A3.719,3.719,0,0,0,138.387,11.616Zm15.2-2.96a6.093,6.093,0,0,0-4.28,1.66l-.305-.87a.642.642,0,0,0-.678-.509h-.672a.786.786,0,0,0-.767.765v11.7a.777.777,0,0,0,.767.766h1.428c.609,0,.906-.25.906-.766V13.375a3.818,3.818,0,0,1,3.265-1.759c1.547,0,2.4,1.131,2.4,3.182v6.608a.767.767,0,0,0,.766.766h1.568a.787.787,0,0,0,.767-.766v-6.5C158.754,10.7,157.064,8.656,153.59,8.656Zm11.952,5.473c-1.376-.6-2.121-1.058-2.121-1.767,0-.5.463-1,1.5-1a6.554,6.554,0,0,1,2.711.631.756.756,0,0,0,1.036-.322l.448-.895a.918.918,0,0,0-.332-1.145,7.414,7.414,0,0,0-3.863-.977c-3.062,0-4.433,1.848-4.433,3.679,0,2.291,1.724,3.384,3.589,4.224,1.817.823,2.682,1.348,2.682,2.1,0,.685-.6,1.111-1.557,1.111a5.833,5.833,0,0,1-3.1-.907l-.046-.025a.821.821,0,0,0-.656-.1.64.64,0,0,0-.394.329l-.586,1.2a.676.676,0,0,0,.27.861l0,0a7.692,7.692,0,0,0,4.341,1.342c3.132,0,4.77-1.977,4.77-3.93C169.8,16.116,168.116,15.219,165.542,14.129ZM26,16c0,10.4-2.6,13-13,13S0,26.4,0,16,2.6,3,13,3,26,5.6,26,16ZM14.172,20.308l-5.48-5.479a.206.206,0,0,0-.294,0L5.81,17.417a.655.655,0,0,0,0,.927l.909.908a.282.282,0,0,0,.35.033,1.927,1.927,0,0,1,2.642,2.643.283.283,0,0,0,.033.35l.912.912a.655.655,0,0,0,.927,0L14.172,20.6A.208.208,0,0,0,14.172,20.308Zm6.018-6.652-.915-.915a.283.283,0,0,0-.348-.034A1.928,1.928,0,0,1,16.29,10.07a.284.284,0,0,0-.034-.348l-.912-.912a.655.655,0,0,0-.927,0L9.7,13.53a.206.206,0,0,0,0,.294l5.479,5.48a.208.208,0,0,0,.294,0l4.72-4.721A.655.655,0,0,0,20.19,13.656Z"/></g></svg>