<svg xmlns="http://www.w3.org/2000/svg" viewBox="0 0 32 32"><title>resources-logomark</title><g id="New"><path d="M30.31,16c0,11.448-2.862,14.31-14.31,14.31S1.689,27.443,1.689,16,4.552,1.684,16,1.684,30.31,4.547,30.31,16ZM14.9,17.96a.862.862,0,0,0-.862-.862H10.246a.862.862,0,0,0-.862.862v3.789a.862.862,0,0,0,.862.862h3.789a.862.862,0,0,0,.862-.862Zm0-7.719a.862.862,0,0,0-.862-.862H10.246a.862.862,0,0,0-.862.862V14.03a.862.862,0,0,0,.862.862h3.789a.862.862,0,0,0,.862-.862Zm7.719,7.719a.862.862,0,0,0-.862-.862H17.965a.862.862,0,0,0-.862.862v3.789a.862.862,0,0,0,.862.862h3.789a.862.862,0,0,0,.862-.862Zm0-7.719a.862.862,0,0,0-.862-.862H17.965a.862.862,0,0,0-.862.862V14.03a.862.862,0,0,0,.862.862h3.789a.862.862,0,0,0,.862-.862Z"/></g></svg>