<svg xmlns="http://www.w3.org/2000/svg" viewBox="0 0 16 16"><path d="M15.731,8c0,6.185-1.546,7.731-7.731,7.731S.269,14.185.269,8,1.815.269,8,.269,15.731,1.815,15.731,8ZM7.4,9.062A.465.465,0,0,0,6.938,8.6H4.892a.465.465,0,0,0-.466.466v2.046a.465.465,0,0,0,.466.466H6.938a.465.465,0,0,0,.466-.466Zm0-4.17a.465.465,0,0,0-.466-.466H4.892a.465.465,0,0,0-.466.466V6.938a.465.465,0,0,0,.466.466H6.938A.465.465,0,0,0,7.4,6.938Zm4.17,4.17a.465.465,0,0,0-.466-.466H9.062a.465.465,0,0,0-.466.466v2.046a.465.465,0,0,0,.466.466h2.046a.465.465,0,0,0,.466-.466Zm0-4.17a.465.465,0,0,0-.466-.466H9.062a.465.465,0,0,0-.466.466V6.938a.465.465,0,0,0,.466.466h2.046a.465.465,0,0,0,.466-.466Z"/></svg>