<svg id="Layer_1" data-name="Layer 1" xmlns="http://www.w3.org/2000/svg" xmlns:xlink="http://www.w3.org/1999/xlink" viewBox="0 0 32 32"><defs><style>.cls-1{fill:url(#linear-gradient);}.cls-2{fill:url(#linear-gradient-2);}</style><linearGradient id="linear-gradient" x1="16" y1="-0.798" x2="16" y2="34.754" gradientUnits="userSpaceOnUse"><stop offset="0" stop-color="#1a6bfe"/><stop offset="0.651" stop-color="#1d5ae1"/><stop offset="0.999" stop-color="#1a56e3"/></linearGradient><linearGradient id="linear-gradient-2" x1="16" y1="-0.798" x2="16" y2="34.754" xlink:href="#linear-gradient"/></defs><title>color-planning-center-mark</title><path class="cls-1" d="M20.812,12.714,17.2,13.867a4.036,4.036,0,0,1-2.386.021L11.184,12.8a.305.305,0,0,0-.393.292l0,4.407a.305.305,0,0,0,.218.293l4.435,1.33a1.828,1.828,0,0,0,1.083-.009L21,17.684a.306.306,0,0,0,.213-.291V13.005A.306.306,0,0,0,20.812,12.714Z"/><path class="cls-2" d="M28.207,3.238,18.583.376a9.059,9.059,0,0,0-5.165,0L3.793,3.238A5.19,5.19,0,0,0,.159,8.19V23.81a5.191,5.191,0,0,0,3.634,4.952l9.624,2.862a9.059,9.059,0,0,0,5.165,0l9.624-2.862a5.191,5.191,0,0,0,3.634-4.952V8.19A5.19,5.19,0,0,0,28.207,3.238ZM24.42,18.39A2.275,2.275,0,0,1,22.8,20.57l-5.625,1.681a4.034,4.034,0,0,1-2.314,0l-3.792-1.136a.215.215,0,0,0-.277.206v2.563a.808.808,0,0,1-1.039.775l-1.592-.473a.809.809,0,0,1-.578-.775l0-11.91A2.275,2.275,0,0,1,10.5,9.317l4.952,1.455a1.833,1.833,0,0,0,1.064-.009l4.95-1.55a2.276,2.276,0,0,1,2.955,2.172Z"/></svg>