<svg width="16" height="16" viewBox="0 0 16 16" fill="none" xmlns="http://www.w3.org/2000/svg">
<path fill-rule="evenodd" clip-rule="evenodd" d="M14.7272 12.4279C15.2033 12.4718 15.3241 12.6145 15.2023 13.0726C15.0746 13.5527 14.8959 14.0208 14.7472 14.495C14.7262 14.5638 14.7442 14.6437 14.7442 14.7175C14.823 14.6956 14.9308 14.6996 14.9757 14.6487C15.1724 14.4221 15.378 14.1955 15.5307 13.941C15.8172 13.4619 15.9659 12.9319 15.9968 12.372C16.0168 12.0206 15.9499 11.9338 15.6016 11.8569C15.4738 11.828 15.3421 11.803 15.2113 11.7931C14.4767 11.7362 13.772 11.827 13.1422 12.2452C13.0783 12.2871 13.0454 12.377 12.9985 12.4458C13.0773 12.4668 13.1572 12.5117 13.233 12.5057C13.5624 12.4778 13.8908 12.4348 14.1832 12.4019C14.3898 12.4109 14.5595 12.4119 14.7272 12.4279ZM12.4265 14.513C13.0993 14.2285 13.7231 13.8283 14.3639 13.472C14.5046 13.3941 14.6593 13.2763 14.5436 13.0847C14.4378 12.907 14.2671 12.9639 14.1104 13.0288C14.0704 13.0448 14.0295 13.0627 13.9886 13.0787C12.9486 13.4909 11.8796 13.8013 10.7757 13.995C8.83133 14.3373 6.89499 14.2904 4.96563 13.9021C3.3926 13.5847 1.89742 13.0478 0.495066 12.2632C0.399246 12.2093 0.303427 12.1495 0.199623 12.1165C0.141733 12.0986 0.0668738 12.1295 0 12.1385C0.0119774 12.2113 0.016968 12.2872 0.0379284 12.3581C0.0469115 12.387 0.0898305 12.407 0.117778 12.4319C2.35256 14.4012 4.96663 15.3704 7.31719 15.3993C9.49308 15.4023 10.9982 15.1179 12.4265 14.513ZM9.09882 6.33928C8.62871 6.39218 8.18255 6.40815 7.75336 6.49898C6.64445 6.73454 6.09349 7.57495 6.28314 8.68486C6.40491 9.39452 6.92592 9.78877 7.61862 9.67099C8.03184 9.60113 8.35123 9.36657 8.59976 9.02621C9.18666 8.22672 9.1128 7.30845 9.09882 6.33928ZM9.48011 10.2876C9.07986 10.5841 8.69259 10.9635 8.23146 11.1941C7.15949 11.7302 6.02563 11.803 4.91971 11.3059C3.78985 10.7987 3.39859 9.66166 3.43751 8.5186C3.46246 7.78983 3.65909 7.11198 4.11723 6.52298C4.62527 5.87008 5.31197 5.47076 6.08751 5.28807C7.06766 5.05546 8.07077 4.92468 9.10082 4.74399C9.10681 4.33967 9.15273 3.86348 8.99502 3.40326C8.80338 2.8472 8.19154 2.6066 7.64657 2.6675C6.9399 2.74637 6.44184 3.10975 6.24022 3.82554C6.1484 4.15199 6.03461 4.21588 5.69525 4.17495C5.17324 4.11305 4.65022 4.04617 4.12921 3.97828C3.82977 3.93835 3.71898 3.77363 3.78486 3.47713C4.09527 2.06153 5.00555 1.21795 6.36099 0.835601C7.47689 0.519137 8.60476 0.510152 9.71566 0.87753C11.123 1.34174 11.7888 2.23723 11.8117 3.72471C11.8327 5.06744 11.8317 6.41117 11.8147 7.75289C11.8057 8.41977 12.0013 8.99479 12.4196 9.50593C12.731 9.88628 12.709 10.0181 12.3307 10.3425C11.9375 10.6809 11.5452 11.0224 11.152 11.3598C10.8845 11.5894 10.6818 11.6034 10.4423 11.3558C10.0999 11.0024 9.78254 10.626 9.48011 10.2876Z" fill="#231F20"/>
</svg>
