<svg width="16" height="16" viewBox="0 0 16 16" fill="none" xmlns="http://www.w3.org/2000/svg">
<path fill-rule="evenodd" clip-rule="evenodd" d="M9.05511 3.74555H6.91545V8.73583L10.1527 10.1822L11.1179 8.3137L9.05511 7.42854V3.74555ZM8.00082 14.0526C4.6621 14.0526 1.95645 11.3578 1.95645 8.03149C1.95645 4.70518 4.6621 2.01043 8.00082 2.01043C11.3379 2.01043 14.0436 4.70518 14.0436 8.03149C14.0436 11.3578 11.3379 14.0526 8.00082 14.0526ZM8.00082 0C3.58246 0 0 3.58155 0 7.99918C0 12.4184 3.58246 16 8.00082 16C12.4175 16 16 12.4184 16 7.99918C16 3.58155 12.4175 0 8.00082 0Z" fill="#231F20"/>
<path fill-rule="evenodd" clip-rule="evenodd" d="M1.75055 2.7503H3.43756V3.60353C3.43756 3.81101 3.60742 3.98087 3.8149 3.98087H4.80947C5.01953 3.98087 5.18681 3.81101 5.18681 3.60353V2.7503H10.7497V3.60353C10.7497 3.81101 10.9182 3.98087 11.127 3.98087H12.1229C12.3316 3.98087 12.5002 3.81101 12.5002 3.60353V2.7503H14.2507V5.99984H1.75055V2.7503ZM6.67153 14.2507H1.75055V7.75038H10.4203C11.5497 7.08388 12.862 6.69487 14.2689 6.69487C14.8654 6.69487 15.4437 6.77138 16 6.90105V2.05916C16 1.47435 15.5267 0.999757 14.9419 0.999757H12.5002V0.37734C12.5002 0.168571 12.3316 0 12.1229 0H11.127C10.9182 0 10.7497 0.168571 10.7497 0.37734V0.999757H5.18681V0.37734C5.18681 0.168571 5.01953 0 4.80947 0H3.8149C3.60742 0 3.43756 0.168571 3.43756 0.37734V0.999757H1.05941C0.474593 0.999757 0 1.47435 0 2.05916V14.9419C0 15.5267 0.474593 16 1.05941 16H6.86863C6.74285 15.4502 6.67023 14.8809 6.67023 14.2935C6.67023 14.2793 6.67153 14.265 6.67153 14.2507Z" fill="#231F20"/>
</svg>
