<svg width="16" height="16" viewBox="0 0 16 16" fill="none" xmlns="http://www.w3.org/2000/svg">
<path fill-rule="evenodd" clip-rule="evenodd" d="M11.3941 5.73726L9.13137 8L11.3941 10.2627L10.2627 11.3941L8 9.13137L5.73726 11.3941L4.60589 10.2627L6.86863 8L4.60589 5.73726L5.73726 4.60589L8 6.86863L10.2627 4.60589L11.3941 5.73726ZM8 0C3.584 0 0 3.584 0 8C0 12.416 3.584 16 8 16C12.416 16 16 12.416 16 8C16 3.584 12.416 0 8 0ZM8 14.4C4.472 14.4 1.6 11.528 1.6 8C1.6 4.472 4.472 1.6 8 1.6C11.528 1.6 14.4 4.472 14.4 8C14.4 11.528 11.528 14.4 8 14.4Z" fill="black"/>
</svg>
