<svg width="16" height="16" viewBox="0 0 16 16" fill="none" xmlns="http://www.w3.org/2000/svg">
<path fill-rule="evenodd" clip-rule="evenodd" d="M4.44331 0C3.46523 0 2.66498 0.8 2.66498 1.77778C2.66498 2.75556 3.46523 3.55556 4.44331 3.55556C5.42139 3.55556 6.22164 2.75556 6.22164 1.77778C6.22164 0.8 5.42139 0 4.44331 0ZM2.66498 8C2.66498 7.02222 3.46523 6.22222 4.44331 6.22222C5.42139 6.22222 6.22164 7.02222 6.22164 8C6.22164 8.97778 5.42139 9.77778 4.44331 9.77778C3.46523 9.77778 2.66498 8.97778 2.66498 8ZM4.44331 16C5.42139 16 6.22164 15.2 6.22164 14.2222C6.22164 13.2444 5.42139 12.4444 4.44331 12.4444C3.46523 12.4444 2.66498 13.2444 2.66498 14.2222C2.66498 15.2 3.46523 16 4.44331 16ZM13.335 1.77778C13.335 2.75556 12.5347 3.55556 11.5566 3.55556C10.5786 3.55556 9.77831 2.75556 9.77831 1.77778C9.77831 0.8 10.5786 0 11.5566 0C12.5347 0 13.335 0.8 13.335 1.77778ZM11.5566 6.22223C10.5786 6.22223 9.77831 7.02223 9.77831 8.00001C9.77831 8.97778 10.5786 9.77778 11.5566 9.77778C12.5347 9.77778 13.335 8.97778 13.335 8.00001C13.335 7.02223 12.5347 6.22223 11.5566 6.22223ZM9.77831 14.2222C9.77831 13.2445 10.5786 12.4445 11.5566 12.4445C12.5347 12.4445 13.335 13.2445 13.335 14.2222C13.335 15.2 12.5347 16 11.5566 16C10.5786 16 9.77831 15.2 9.77831 14.2222Z" fill="black"/>
</svg>
