<svg width="16" height="16" viewBox="0 0 16 16" fill="none" xmlns="http://www.w3.org/2000/svg">
<path fill-rule="evenodd" clip-rule="evenodd" d="M15.2924 6.19428L8.86528 9.46539C8.52245 9.63447 8.11391 9.71788 7.74151 9.71788C7.37459 9.71788 6.95728 9.6356 6.62322 9.47216L0.703176 6.52568C0.377875 6.36336 0 6.60909 0 6.98332V12.2326C0 12.8391 0.479737 13.335 1.06572 13.335H14.8138C15.4666 13.335 16 12.7827 16 12.1087V6.64967C16 6.27318 15.6188 6.02858 15.2924 6.19428ZM0.220153 4.50574L7.27601 8.02935C7.52136 8.14996 7.92114 8.14996 8.17196 8.02596L15.782 4.15744C15.9157 4.08981 16 3.94891 16 3.79561C16 3.1734 15.5082 2.66504 14.9058 2.66504H1.10734C0.498357 2.66504 0 3.18017 0 3.81027V4.14391C0 4.29834 0.0854326 4.43924 0.220153 4.50574Z" fill="#231F20"/>
</svg>
