<svg width="16" height="16" viewBox="0 0 16 16" fill="none" xmlns="http://www.w3.org/2000/svg">
<path fill-rule="evenodd" clip-rule="evenodd" d="M0 7.99959C1.25818 4.80686 4.36364 2.54504 8 2.54504C11.6364 2.54504 14.7418 4.80686 16 7.99959C14.7418 11.1923 11.6364 13.4541 8 13.4541C4.36364 13.4541 1.25818 11.1923 0 7.99959ZM8 3.99959C10.7564 3.99959 13.2145 5.54868 14.4145 7.99959C13.2145 10.4505 10.7636 11.9996 8 11.9996C5.23636 11.9996 2.78545 10.4505 1.58545 7.99959C2.78545 5.54868 5.24364 3.99959 8 3.99959ZM4.72727 7.99959C4.72727 6.19595 6.19636 4.72686 8 4.72686C9.80364 4.72686 11.2727 6.19595 11.2727 7.99959C11.2727 9.80323 9.80364 11.2723 8 11.2723C6.19636 11.2723 4.72727 9.80323 4.72727 7.99959ZM9.81818 7.99959C9.81818 6.99595 9.00364 6.18141 8 6.18141C6.99636 6.18141 6.18182 6.99595 6.18182 7.99959C6.18182 9.00323 6.99636 9.81777 8 9.81777C9.00364 9.81777 9.81818 9.00323 9.81818 7.99959Z" fill="black"/>
</svg>
