<svg width="16" height="16" viewBox="0 0 16 16" fill="none" xmlns="http://www.w3.org/2000/svg">
<path fill-rule="evenodd" clip-rule="evenodd" d="M0 7.99956C1.25818 4.80683 4.36364 2.54501 8 2.54501C11.6364 2.54501 14.7418 4.80683 16 7.99956C14.7418 11.1923 11.6364 13.4541 8 13.4541C4.36364 13.4541 1.25818 11.1923 0 7.99956ZM8 3.99956C10.7564 3.99956 13.2145 5.54865 14.4145 7.99956C13.2145 10.4505 10.7636 11.9996 8 11.9996C5.23636 11.9996 2.78545 10.4505 1.58545 7.99956C2.78545 5.54865 5.24364 3.99956 8 3.99956ZM4.72727 7.99956C4.72727 6.19592 6.19636 4.72683 8 4.72683C9.80364 4.72683 11.2727 6.19592 11.2727 7.99956C11.2727 9.80319 9.80364 11.2723 8 11.2723C6.19636 11.2723 4.72727 9.80319 4.72727 7.99956ZM9.81818 7.99956C9.81818 6.99592 9.00364 6.18138 8 6.18138C6.99636 6.18138 6.18182 6.99592 6.18182 7.99956C6.18182 9.0032 6.99636 9.81774 8 9.81774C9.00364 9.81774 9.81818 9.0032 9.81818 7.99956Z" fill="black"/>
</svg>
