<svg width="16" height="16" viewBox="0 0 16 16" fill="none" xmlns="http://www.w3.org/2000/svg">
<path fill-rule="evenodd" clip-rule="evenodd" d="M8 2.54504C4.36364 2.54504 1.25818 4.80686 0 7.99959C1.25818 11.1923 4.36364 13.4541 8 13.4541C11.6364 13.4541 14.7418 11.1923 16 7.99959C14.7418 4.80686 11.6364 2.54504 8 2.54504ZM8 11.636C5.99273 11.636 4.36364 10.0069 4.36364 7.99959C4.36364 5.99232 5.99273 4.36323 8 4.36323C10.0073 4.36323 11.6364 5.99232 11.6364 7.99959C11.6364 10.0069 10.0073 11.636 8 11.636ZM5.81818 7.99959C5.81818 6.79232 6.79273 5.81777 8 5.81777C9.20727 5.81777 10.1818 6.79232 10.1818 7.99959C10.1818 9.20686 9.20727 10.1814 8 10.1814C6.79273 10.1814 5.81818 9.20686 5.81818 7.99959Z" fill="black"/>
</svg>
