<svg width="16" height="16" viewBox="0 0 16 16" fill="none" xmlns="http://www.w3.org/2000/svg">
<path fill-rule="evenodd" clip-rule="evenodd" d="M8 2.54501C4.36364 2.54501 1.25818 4.80683 0 7.99956C1.25818 11.1923 4.36364 13.4541 8 13.4541C11.6364 13.4541 14.7418 11.1923 16 7.99956C14.7418 4.80683 11.6364 2.54501 8 2.54501ZM8 11.6359C5.99273 11.6359 4.36364 10.0068 4.36364 7.99956C4.36364 5.99229 5.99273 4.3632 8 4.3632C10.0073 4.3632 11.6364 5.99229 11.6364 7.99956C11.6364 10.0068 10.0073 11.6359 8 11.6359ZM5.81818 7.99956C5.81818 6.79229 6.79273 5.81774 8 5.81774C9.20727 5.81774 10.1818 6.79229 10.1818 7.99956C10.1818 9.20683 9.20727 10.1814 8 10.1814C6.79273 10.1814 5.81818 9.20683 5.81818 7.99956Z" fill="black"/>
</svg>
