<svg width="16" height="16" viewBox="0 0 16 16" fill="none" xmlns="http://www.w3.org/2000/svg">
<path fill-rule="evenodd" clip-rule="evenodd" d="M10.9095 0H2.90953C2.10953 0 1.46226 0.654545 1.46226 1.45455L1.45499 14.5455C1.45499 15.3455 2.10226 16 2.90226 16H13.0914C13.8914 16 14.5459 15.3455 14.5459 14.5455V3.63636L10.9095 0ZM10.7047 8.50478C10.2929 8.50314 9.88432 8.52364 9.47572 8.56956C9.05363 8.13169 8.64106 7.62411 8.32052 7.09686C8.43795 6.66965 8.52998 6.23342 8.59028 5.798C8.72992 4.78942 8.57521 4.04569 8.1666 3.75624C7.95715 3.60782 7.69929 3.59634 7.47873 3.72672C7.07964 3.95959 6.86939 4.60246 6.917 5.44705C6.94953 6.0317 7.15502 6.62947 7.46048 7.20264C7.22642 7.95785 6.91382 8.67944 6.57425 9.30755C5.85146 9.60274 5.17072 9.97584 4.55901 10.417C3.89176 10.9 3.58392 11.3583 3.64422 11.7814C3.67992 12.0324 3.84812 12.2316 4.09646 12.3161C4.19008 12.3481 4.29163 12.3636 4.39874 12.3636C4.88192 12.3636 5.4865 12.0529 5.99745 11.5223C6.36558 11.1394 6.75673 10.6031 7.12328 9.96764C7.78657 9.71754 8.48555 9.53714 9.19723 9.43136C9.67803 9.8922 10.1461 10.2563 10.504 10.4695C11.003 10.7671 11.5854 10.7343 11.99 10.385C12.3169 10.1021 12.4438 9.67818 12.3137 9.30427C12.2106 9.00825 11.8654 8.51216 10.7047 8.50478ZM5.43484 10.944C5.06433 11.3294 4.72872 11.4827 4.52561 11.5286C4.60653 11.427 4.75252 11.2785 5.01434 11.09C5.23332 10.9309 5.46182 10.7825 5.69905 10.6439C5.61019 10.7538 5.52133 10.8546 5.43484 10.944ZM7.80458 5.68116C7.88233 5.12274 7.84028 4.77917 7.78871 4.59549C7.73634 4.74309 7.68636 4.99975 7.70857 5.40072C7.7173 5.54996 7.7411 5.70329 7.77839 5.85745C7.78791 5.79923 7.79664 5.74019 7.80458 5.68116ZM7.65423 8.93166C7.78038 8.65451 7.89859 8.36751 8.00729 8.07232C8.16994 8.29699 8.3429 8.51347 8.52062 8.71929C8.22865 8.77833 7.93906 8.84885 7.65423 8.93166ZM10.9007 9.75969C11.1522 9.90893 11.3656 9.85645 11.4814 9.75559C11.5465 9.69983 11.5822 9.62603 11.5671 9.58093C11.5425 9.51123 11.3394 9.32837 10.6999 9.32509C10.6555 9.32564 10.6111 9.32591 10.5666 9.32619C10.4778 9.32673 10.3889 9.32728 10.3001 9.33001C10.5182 9.50713 10.7229 9.65309 10.9007 9.75969ZM2.90953 1.45455V14.5455H13.0914V4.36364H10.1823V1.45455H2.90953Z" fill="black"/>
</svg>
