<svg width="16" height="16" viewBox="0 0 16 16" fill="none" xmlns="http://www.w3.org/2000/svg">
<path fill-rule="evenodd" clip-rule="evenodd" d="M10.9095 0H2.90953C2.10953 0 1.46226 0.654545 1.46226 1.45455L1.45499 14.5455C1.45499 15.3455 2.10226 16 2.90226 16H13.0914C13.8914 16 14.5459 15.3455 14.5459 14.5455V3.63636L10.9095 0ZM11.6368 6.04676V10.4695C11.6368 11.1904 11.1223 11.7768 10.4014 11.7768C9.67953 11.7768 9.09408 11.1904 9.09408 10.4695C9.09408 9.74767 9.67953 9.16313 10.4014 9.16313C10.5595 9.16313 10.7059 9.19495 10.8414 9.24767V7.38404L6.97771 8.42495V11.784C6.97771 12.5049 6.39226 13.0904 5.67135 13.0904C4.94953 13.0904 4.36408 12.5049 4.36408 11.784C4.36408 11.0631 4.94953 10.4768 5.67135 10.4768C5.85226 10.4768 6.02499 10.514 6.18226 10.5813V7.39404C6.18226 7.29131 6.25135 7.20131 6.35135 7.17404L11.3514 5.82586C11.495 5.78767 11.6368 5.89676 11.6368 6.04676ZM2.90953 1.45455V14.5455H13.0914V4.36364H10.1823V1.45455H2.90953Z" fill="black"/>
</svg>
