<svg width="16" height="16" viewBox="0 0 16 16" fill="none" xmlns="http://www.w3.org/2000/svg">
<path fill-rule="evenodd" clip-rule="evenodd" d="M16 12.808L0 12.8V14.4H16V12.808ZM6.85695 11.488L6.18338 9.14397H2.78858L2.10828 11.488H0L3.19946 1.59998H5.75229L8.96523 11.488H6.85695ZM5.69841 7.39268L5.06525 5.23726C5.03831 5.15643 4.9979 5.02396 4.94401 4.83985C4.89012 4.65574 4.83287 4.45255 4.77225 4.23027C4.71163 4.00799 4.65437 3.78459 4.60049 3.56007C4.5466 3.33554 4.50843 3.1447 4.48598 2.98753C4.46802 3.08632 4.44444 3.20307 4.41526 3.33779C4.38607 3.4725 4.35239 3.61507 4.31422 3.76551C4.27605 3.91594 4.23676 4.06749 4.19635 4.22017C4.15593 4.37284 4.11776 4.51654 4.08184 4.65125C4.04591 4.78597 4.01336 4.90496 3.98417 5.00824C3.95498 5.11153 3.93365 5.18786 3.92018 5.23726L3.29376 7.39268H5.69841ZM14.5653 11.488L14.1679 10.4642H14.1073C13.9591 10.6662 13.8109 10.8402 13.6627 10.9862C13.5145 11.1321 13.3529 11.2522 13.1777 11.3465C13.0026 11.4408 12.8062 11.5104 12.5884 11.5554C12.3706 11.6003 12.118 11.6227 11.8306 11.6227C11.5252 11.6227 11.2423 11.5744 10.9819 11.4779C10.7214 11.3813 10.4958 11.2354 10.305 11.0401C10.1141 10.8447 9.96481 10.5978 9.85703 10.2991C9.74926 10.0005 9.69538 9.6469 9.69538 9.23827C9.69538 8.43896 9.95133 7.84959 10.4632 7.47014C10.9752 7.0907 11.7408 6.88077 12.7601 6.84036L13.9591 6.79994V6.23414C13.9591 5.9243 13.8693 5.69529 13.6897 5.5471C13.51 5.39891 13.2586 5.32482 12.9353 5.32482C12.6119 5.32482 12.2965 5.37197 11.9889 5.46627C11.6813 5.56057 11.3726 5.6863 11.0627 5.84347L10.3959 4.48286C10.7731 4.27181 11.1907 4.10566 11.6487 3.98442C12.1068 3.86317 12.5872 3.80255 13.0902 3.80255C14.0287 3.80255 14.7483 4.02258 15.249 4.46265C15.7497 4.90272 16 5.57179 16 6.46989V11.488H14.5653ZM13.9591 7.9989L13.2788 8.02584C13.0049 8.03482 12.7736 8.07075 12.585 8.13361C12.3964 8.19648 12.2448 8.28067 12.1303 8.3862C12.0158 8.49173 11.9328 8.61746 11.8811 8.7634C11.8295 8.90934 11.8037 9.07212 11.8037 9.25174C11.8037 9.56607 11.88 9.78947 12.0327 9.92194C12.1853 10.0544 12.3852 10.1206 12.6321 10.1206C12.8207 10.1206 12.9959 10.0881 13.1575 10.023C13.3192 9.95787 13.4595 9.86132 13.5785 9.73334C13.6975 9.60536 13.7907 9.4482 13.858 9.26184C13.9254 9.07549 13.9591 8.86107 13.9591 8.61858V7.9989Z" fill="black"/>
</svg>
