<svg width="16" height="16" viewBox="0 0 16 16" fill="none" xmlns="http://www.w3.org/2000/svg">
<path fill-rule="evenodd" clip-rule="evenodd" d="M2.488 4.30399L0 1.81599L1.016 0.799988L14.4 14.192L13.392 15.2L10.184 12H8.8V10.616L6.984 8.79999H4.8V7.19999H5.384L3.728 5.54399C2.488 5.67999 1.52 6.72799 1.52 7.99999C1.52 9.36799 2.632 10.48 4 10.48H7.2V12H4C1.792 12 0 10.208 0 7.99999C0 6.32799 1.032 4.89599 2.488 4.30399ZM12 3.99999H8.8V5.51999H12C13.368 5.51999 14.48 6.63199 14.48 7.99999C14.48 9.14399 13.696 10.104 12.632 10.384L13.8 11.552C15.104 10.888 16 9.55999 16 7.99999C16 5.79199 14.208 3.99999 12 3.99999ZM11.2 7.19999H9.448L11.048 8.79999H11.2V7.19999Z" fill="black"/>
</svg>
