<svg width="16" height="16" viewBox="0 0 16 16" fill="none" xmlns="http://www.w3.org/2000/svg">
<path fill-rule="evenodd" clip-rule="evenodd" d="M2.488 4.30405L0 1.81605L1.016 0.800049L14.4 14.192L13.392 15.2L10.184 12H8.8V10.616L6.984 8.80005H4.8V7.20005H5.384L3.728 5.54405C2.488 5.68005 1.52 6.72805 1.52 8.00005C1.52 9.36805 2.632 10.48 4 10.48H7.2V12H4C1.792 12 0 10.208 0 8.00005C0 6.32805 1.032 4.89605 2.488 4.30405ZM12 4.00005H8.8V5.52005H12C13.368 5.52005 14.48 6.63205 14.48 8.00005C14.48 9.14405 13.696 10.104 12.632 10.384L13.8 11.552C15.104 10.888 16 9.56005 16 8.00005C16 5.79205 14.208 4.00005 12 4.00005ZM11.2 7.20005H9.448L11.048 8.80005H11.2V7.20005Z" fill="black"/>
</svg>
