<svg width="16" height="16" viewBox="0 0 16 16" fill="none" xmlns="http://www.w3.org/2000/svg">
<path fill-rule="evenodd" clip-rule="evenodd" d="M10.9091 7.27361C12.1164 7.27361 13.0836 6.29906 13.0836 5.09179C13.0836 3.88452 12.1164 2.90997 10.9091 2.90997C9.70182 2.90997 8.72727 3.88452 8.72727 5.09179C8.72727 6.29906 9.70182 7.27361 10.9091 7.27361ZM5.09091 7.27361C6.29818 7.27361 7.26545 6.29906 7.26545 5.09179C7.26545 3.88452 6.29818 2.90997 5.09091 2.90997C3.88364 2.90997 2.90909 3.88452 2.90909 5.09179C2.90909 6.29906 3.88364 7.27361 5.09091 7.27361ZM5.09091 8.72711C3.39636 8.72711 0 9.57802 0 11.2726V13.0907H10.1818V11.2726C10.1818 9.57802 6.78545 8.72711 5.09091 8.72711ZM10.9091 8.72711C10.6982 8.72711 10.4582 8.74166 10.2036 8.76347C11.0473 9.37438 11.6364 10.1962 11.6364 11.2726V13.0907H16V11.2726C16 9.57802 12.6036 8.72711 10.9091 8.72711Z" fill="black"/>
</svg>
