<svg width="16" height="16" viewBox="0 0 16 16" fill="none" xmlns="http://www.w3.org/2000/svg">
<path fill-rule="evenodd" clip-rule="evenodd" d="M10.9091 7.27367C12.1164 7.27367 13.0836 6.29913 13.0836 5.09185C13.0836 3.88458 12.1164 2.91003 10.9091 2.91003C9.70182 2.91003 8.72727 3.88458 8.72727 5.09185C8.72727 6.29913 9.70182 7.27367 10.9091 7.27367ZM5.09091 7.27367C6.29818 7.27367 7.26545 6.29913 7.26545 5.09185C7.26545 3.88458 6.29818 2.91003 5.09091 2.91003C3.88364 2.91003 2.90909 3.88458 2.90909 5.09185C2.90909 6.29913 3.88364 7.27367 5.09091 7.27367ZM5.09091 8.72717C3.39636 8.72717 0 9.57808 0 11.2726V13.0908H10.1818V11.2726C10.1818 9.57808 6.78545 8.72717 5.09091 8.72717ZM10.9091 8.72717C10.6982 8.72717 10.4582 8.74172 10.2036 8.76354C11.0473 9.37444 11.6364 10.1963 11.6364 11.2726V13.0908H16V11.2726C16 9.57808 12.6036 8.72717 10.9091 8.72717Z" fill="black"/>
</svg>
