<svg width="16" height="16" viewBox="0 0 16 16" fill="none" xmlns="http://www.w3.org/2000/svg">
<path fill-rule="evenodd" clip-rule="evenodd" d="M9.71413 2.52765V1.71497H10.1739C10.3328 1.71497 10.4917 1.75336 10.6517 1.83122C10.8096 1.90694 10.9536 2.01999 11.0848 2.1693C11.2139 2.31862 11.3195 2.50312 11.4037 2.72496C11.488 2.9468 11.5296 3.20169 11.5296 3.48965V5.95438C11.5296 6.19008 11.5584 6.40659 11.6171 6.60496C11.6757 6.8044 11.7536 6.97291 11.8496 7.11262C11.9445 7.2534 12.0565 7.36112 12.1813 7.43791C12.3072 7.5147 12.4363 7.55309 12.5717 7.55309V8.47457C12.4363 8.47457 12.3072 8.50976 12.1813 8.58335C12.0565 8.65481 11.9445 8.75933 11.8496 8.89478C11.7536 9.03022 11.6757 9.1966 11.6171 9.39497C11.5584 9.59441 11.5296 9.81518 11.5296 10.0594V12.5103C11.5296 12.8004 11.488 13.0553 11.4037 13.276C11.3195 13.4968 11.2139 13.6824 11.0848 13.8317C10.9536 13.9799 10.8096 14.0941 10.6517 14.1698C10.4917 14.2466 10.3328 14.285 10.1739 14.285H9.71413V13.4723H9.9232C10.048 13.4723 10.1493 13.4381 10.224 13.371C10.2997 13.3038 10.3595 13.2131 10.4064 13.1001C10.4523 12.9881 10.4843 12.8601 10.5003 12.7214C10.5163 12.5807 10.5248 12.4431 10.5248 12.3076V9.84184C10.5248 9.49949 10.5696 9.21473 10.6571 8.9897C10.7456 8.76359 10.8469 8.58015 10.9643 8.44044C11.0816 8.30072 11.2021 8.19834 11.3227 8.13648C11.4443 8.07249 11.5413 8.03623 11.6171 8.0277V7.9861C11.5413 7.96904 11.4443 7.92424 11.3227 7.85172C11.2021 7.7792 11.0816 7.67041 10.9643 7.52643C10.8469 7.38245 10.7456 7.19901 10.6571 6.97824C10.5696 6.7564 10.5248 6.48871 10.5248 6.17195V3.69336C10.5248 3.54831 10.5163 3.40647 10.5003 3.26675C10.4843 3.12704 10.4523 3.00225 10.4064 2.89454C10.3595 2.78468 10.2997 2.69723 10.224 2.63004C10.1493 2.56178 10.048 2.52765 9.9232 2.52765H9.71413ZM13.1424 2.52765V1.71497H13.6021C13.7611 1.71497 13.92 1.75336 14.08 1.83122C14.2379 1.90694 14.3819 2.01999 14.5131 2.1693C14.6421 2.31862 14.7488 2.50312 14.8331 2.72496C14.9163 2.9468 14.9589 3.20169 14.9589 3.48965V5.95438C14.9589 6.19008 14.9867 6.40659 15.0453 6.60496C15.104 6.8044 15.1819 6.97291 15.2779 7.11262C15.3739 7.2534 15.4859 7.36112 15.6107 7.43791C15.7365 7.5147 15.8656 7.55309 16 7.55309V8.47457C15.8656 8.47457 15.7365 8.50976 15.6107 8.58335C15.4859 8.65481 15.3739 8.75933 15.2779 8.89478C15.1819 9.03022 15.104 9.1966 15.0453 9.39497C14.9867 9.59441 14.9589 9.81518 14.9589 10.0594V12.5103C14.9589 12.8004 14.9163 13.0553 14.8331 13.276C14.7488 13.4968 14.6421 13.6824 14.5131 13.8317C14.3819 13.9799 14.2379 14.0941 14.08 14.1698C13.92 14.2466 13.7611 14.285 13.6021 14.285H13.1424V13.4723H13.3515C13.4763 13.4723 13.5776 13.4381 13.6523 13.371C13.7291 13.3038 13.7888 13.2131 13.8347 13.1001C13.8816 12.9881 13.9125 12.8601 13.9285 12.7214C13.9456 12.5807 13.9531 12.4431 13.9531 12.3076V9.84184C13.9531 9.49949 13.9989 9.21473 14.0853 8.9897C14.1739 8.76359 14.2763 8.58015 14.3936 8.44044C14.5109 8.30072 14.6304 8.19834 14.7509 8.13648C14.8725 8.07249 14.9707 8.03623 15.0453 8.0277V7.9861C14.9707 7.96904 14.8725 7.92424 14.7509 7.85172C14.6304 7.7792 14.5109 7.67041 14.3936 7.52643C14.2763 7.38245 14.1739 7.19901 14.0853 6.97824C13.9989 6.7564 13.9531 6.48871 13.9531 6.17195V3.69336C13.9531 3.54831 13.9456 3.40647 13.9285 3.26675C13.9125 3.12704 13.8816 3.00225 13.8347 2.89454C13.7888 2.78468 13.7291 2.69723 13.6523 2.63004C13.5776 2.56178 13.4763 2.52765 13.3515 2.52765H13.1424ZM6.0768 2.52765C5.952 2.52765 5.85067 2.56178 5.776 2.63004C5.70027 2.69723 5.64053 2.78468 5.5936 2.89454C5.54773 3.00225 5.51573 3.12704 5.49973 3.26675C5.48373 3.40647 5.4752 3.54831 5.4752 3.69336V6.17195C5.4752 6.48871 5.4304 6.7564 5.34293 6.97824C5.2544 7.19901 5.15307 7.38245 5.03573 7.52643C4.9184 7.67041 4.79893 7.7792 4.67733 7.85172C4.5568 7.92424 4.45867 7.96904 4.38293 7.9861V8.0277C4.45867 8.03623 4.5568 8.07249 4.67733 8.13648C4.79893 8.19834 4.9184 8.30072 5.03573 8.44044C5.15307 8.58015 5.2544 8.76359 5.34293 8.9897C5.4304 9.21473 5.4752 9.49949 5.4752 9.84184V12.3076C5.4752 12.4431 5.48373 12.5807 5.49973 12.7214C5.51573 12.8601 5.54773 12.9881 5.5936 13.1001C5.64053 13.2131 5.70027 13.3038 5.776 13.371C5.85067 13.4381 5.952 13.4723 6.0768 13.4723H6.28587V14.285H5.82613C5.6672 14.285 5.50827 14.2466 5.34827 14.1698C5.1904 14.0941 5.0464 13.9799 4.9152 13.8317C4.78613 13.6824 4.68053 13.4968 4.59627 13.276C4.51307 13.0553 4.4704 12.8004 4.4704 12.5103V10.0594C4.4704 9.81518 4.4416 9.59441 4.38293 9.39497C4.32427 9.1966 4.24747 9.03022 4.1504 8.89478C4.05547 8.75933 3.94347 8.65481 3.81867 8.58335C3.6928 8.50976 3.56373 8.47457 3.42827 8.47457V7.55309C3.56373 7.55309 3.6928 7.5147 3.81867 7.43791C3.94347 7.36112 4.05547 7.2534 4.1504 7.11262C4.24747 6.97291 4.32427 6.8044 4.38293 6.60496C4.4416 6.40659 4.4704 6.19008 4.4704 5.95438V3.48965C4.4704 3.20169 4.51307 2.9468 4.59627 2.72496C4.68053 2.50312 4.78613 2.31862 4.9152 2.1693C5.0464 2.01999 5.1904 1.90694 5.34827 1.83122C5.50827 1.75336 5.6672 1.71497 5.82613 1.71497H6.28587V2.52765H6.0768ZM2.64853 2.52765C2.52373 2.52765 2.4224 2.56178 2.34773 2.63004C2.27093 2.69723 2.2112 2.78468 2.16533 2.89454C2.1184 3.00225 2.08747 3.12704 2.07147 3.26675C2.0544 3.40647 2.04693 3.54831 2.04693 3.69336V6.17195C2.04693 6.48871 2.00213 6.7564 1.91467 6.97824C1.82613 7.19901 1.72373 7.38245 1.6064 7.52643C1.49013 7.67041 1.3696 7.7792 1.24907 7.85172C1.12747 7.92424 1.02933 7.96904 0.954667 7.9861V8.0277C1.02933 8.03623 1.12747 8.07249 1.24907 8.13648C1.3696 8.19834 1.49013 8.30072 1.6064 8.44044C1.72373 8.58015 1.82613 8.76359 1.91467 8.9897C2.00213 9.21473 2.04693 9.49949 2.04693 9.84184V12.3076C2.04693 12.4431 2.0544 12.5807 2.07147 12.7214C2.08747 12.8601 2.1184 12.9881 2.16533 13.1001C2.2112 13.2131 2.27093 13.3038 2.34773 13.371C2.4224 13.4381 2.52373 13.4723 2.64853 13.4723H2.8576V14.285H2.39787C2.23893 14.285 2.08 14.2466 1.92 14.1698C1.76213 14.0941 1.61813 13.9799 1.48693 13.8317C1.35787 13.6824 1.2512 13.4968 1.16693 13.276C1.08373 13.0553 1.04213 12.8004 1.04213 12.5103V10.0594C1.04213 9.81518 1.01333 9.59441 0.954667 9.39497C0.896 9.1966 0.818133 9.03022 0.722133 8.89478C0.626133 8.75933 0.514133 8.65481 0.389333 8.58335C0.264533 8.50976 0.135467 8.47457 0 8.47457V7.55309C0.135467 7.55309 0.264533 7.5147 0.389333 7.43791C0.514133 7.36112 0.626133 7.2534 0.722133 7.11262C0.818133 6.97291 0.896 6.8044 0.954667 6.60496C1.01333 6.40659 1.04213 6.19008 1.04213 5.95438V3.48965C1.04213 3.20169 1.08373 2.9468 1.16693 2.72496C1.2512 2.50312 1.35787 2.31862 1.48693 2.1693C1.61813 2.01999 1.76213 1.90694 1.92 1.83122C2.08 1.75336 2.23893 1.71497 2.39787 1.71497H2.8576V2.52765H2.64853Z" fill="#231F20"/>
</svg>
