<svg width="16" height="16" viewBox="0 0 16 16" fill="none" xmlns="http://www.w3.org/2000/svg">
<path fill-rule="evenodd" clip-rule="evenodd" d="M9.71413 2.52768V1.715H10.1739C10.3328 1.715 10.4917 1.75339 10.6517 1.83125C10.8096 1.90697 10.9536 2.02002 11.0848 2.16933C11.2139 2.31865 11.3195 2.50315 11.4037 2.72499C11.488 2.94683 11.5296 3.20172 11.5296 3.48968V5.95441C11.5296 6.19011 11.5584 6.40662 11.6171 6.60499C11.6757 6.80443 11.7536 6.97294 11.8496 7.11265C11.9445 7.25343 12.0565 7.36115 12.1813 7.43794C12.3072 7.51473 12.4363 7.55312 12.5717 7.55312V8.4746C12.4363 8.4746 12.3072 8.50979 12.1813 8.58338C12.0565 8.65484 11.9445 8.75936 11.8496 8.89481C11.7536 9.03025 11.6757 9.19663 11.6171 9.395C11.5584 9.59444 11.5296 9.81521 11.5296 10.0594V12.5103C11.5296 12.8004 11.488 13.0553 11.4037 13.2761C11.3195 13.4968 11.2139 13.6824 11.0848 13.8317C10.9536 13.98 10.8096 14.0941 10.6517 14.1698C10.4917 14.2466 10.3328 14.285 10.1739 14.285H9.71413V13.4723H9.9232C10.048 13.4723 10.1493 13.4382 10.224 13.371C10.2997 13.3038 10.3595 13.2131 10.4064 13.1001C10.4523 12.9881 10.4843 12.8601 10.5003 12.7215C10.5163 12.5807 10.5248 12.4431 10.5248 12.3077V9.84188C10.5248 9.49952 10.5696 9.21476 10.6571 8.98973C10.7456 8.76362 10.8469 8.58018 10.9643 8.44047C11.0816 8.30075 11.2021 8.19837 11.3227 8.13651C11.4443 8.07252 11.5413 8.03626 11.6171 8.02773V7.98613C11.5413 7.96907 11.4443 7.92427 11.3227 7.85175C11.2021 7.77923 11.0816 7.67044 10.9643 7.52646C10.8469 7.38248 10.7456 7.19904 10.6571 6.97827C10.5696 6.75643 10.5248 6.48874 10.5248 6.17198V3.69339C10.5248 3.54834 10.5163 3.4065 10.5003 3.26678C10.4843 3.12707 10.4523 3.00229 10.4064 2.89457C10.3595 2.78472 10.2997 2.69726 10.224 2.63007C10.1493 2.56181 10.048 2.52768 9.9232 2.52768H9.71413ZM13.1424 2.52768V1.715H13.6021C13.7611 1.715 13.92 1.75339 14.08 1.83125C14.2379 1.90697 14.3819 2.02002 14.5131 2.16933C14.6421 2.31865 14.7488 2.50315 14.8331 2.72499C14.9163 2.94683 14.9589 3.20172 14.9589 3.48968V5.95441C14.9589 6.19011 14.9867 6.40662 15.0453 6.60499C15.104 6.80443 15.1819 6.97294 15.2779 7.11265C15.3739 7.25343 15.4859 7.36115 15.6107 7.43794C15.7365 7.51473 15.8656 7.55312 16 7.55312V8.4746C15.8656 8.4746 15.7365 8.50979 15.6107 8.58338C15.4859 8.65484 15.3739 8.75936 15.2779 8.89481C15.1819 9.03025 15.104 9.19663 15.0453 9.395C14.9867 9.59444 14.9589 9.81521 14.9589 10.0594V12.5103C14.9589 12.8004 14.9163 13.0553 14.8331 13.2761C14.7488 13.4968 14.6421 13.6824 14.5131 13.8317C14.3819 13.98 14.2379 14.0941 14.08 14.1698C13.92 14.2466 13.7611 14.285 13.6021 14.285H13.1424V13.4723H13.3515C13.4763 13.4723 13.5776 13.4382 13.6523 13.371C13.7291 13.3038 13.7888 13.2131 13.8347 13.1001C13.8816 12.9881 13.9125 12.8601 13.9285 12.7215C13.9456 12.5807 13.9531 12.4431 13.9531 12.3077V9.84188C13.9531 9.49952 13.9989 9.21476 14.0853 8.98973C14.1739 8.76362 14.2763 8.58018 14.3936 8.44047C14.5109 8.30075 14.6304 8.19837 14.7509 8.13651C14.8725 8.07252 14.9707 8.03626 15.0453 8.02773V7.98613C14.9707 7.96907 14.8725 7.92427 14.7509 7.85175C14.6304 7.77923 14.5109 7.67044 14.3936 7.52646C14.2763 7.38248 14.1739 7.19904 14.0853 6.97827C13.9989 6.75643 13.9531 6.48874 13.9531 6.17198V3.69339C13.9531 3.54834 13.9456 3.4065 13.9285 3.26678C13.9125 3.12707 13.8816 3.00229 13.8347 2.89457C13.7888 2.78472 13.7291 2.69726 13.6523 2.63007C13.5776 2.56181 13.4763 2.52768 13.3515 2.52768H13.1424ZM6.0768 2.52768C5.952 2.52768 5.85067 2.56181 5.776 2.63007C5.70027 2.69726 5.64053 2.78472 5.5936 2.89457C5.54773 3.00229 5.51573 3.12707 5.49973 3.26678C5.48373 3.4065 5.4752 3.54834 5.4752 3.69339V6.17198C5.4752 6.48874 5.4304 6.75643 5.34293 6.97827C5.2544 7.19904 5.15307 7.38248 5.03573 7.52646C4.9184 7.67044 4.79893 7.77923 4.67733 7.85175C4.5568 7.92427 4.45867 7.96907 4.38293 7.98613V8.02773C4.45867 8.03626 4.5568 8.07252 4.67733 8.13651C4.79893 8.19837 4.9184 8.30075 5.03573 8.44047C5.15307 8.58018 5.2544 8.76362 5.34293 8.98973C5.4304 9.21476 5.4752 9.49952 5.4752 9.84188V12.3077C5.4752 12.4431 5.48373 12.5807 5.49973 12.7215C5.51573 12.8601 5.54773 12.9881 5.5936 13.1001C5.64053 13.2131 5.70027 13.3038 5.776 13.371C5.85067 13.4382 5.952 13.4723 6.0768 13.4723H6.28587V14.285H5.82613C5.6672 14.285 5.50827 14.2466 5.34827 14.1698C5.1904 14.0941 5.0464 13.98 4.9152 13.8317C4.78613 13.6824 4.68053 13.4968 4.59627 13.2761C4.51307 13.0553 4.4704 12.8004 4.4704 12.5103V10.0594C4.4704 9.81521 4.4416 9.59444 4.38293 9.395C4.32427 9.19663 4.24747 9.03025 4.1504 8.89481C4.05547 8.75936 3.94347 8.65484 3.81867 8.58338C3.6928 8.50979 3.56373 8.4746 3.42827 8.4746V7.55312C3.56373 7.55312 3.6928 7.51473 3.81867 7.43794C3.94347 7.36115 4.05547 7.25343 4.1504 7.11265C4.24747 6.97294 4.32427 6.80443 4.38293 6.60499C4.4416 6.40662 4.4704 6.19011 4.4704 5.95441V3.48968C4.4704 3.20172 4.51307 2.94683 4.59627 2.72499C4.68053 2.50315 4.78613 2.31865 4.9152 2.16933C5.0464 2.02002 5.1904 1.90697 5.34827 1.83125C5.50827 1.75339 5.6672 1.715 5.82613 1.715H6.28587V2.52768H6.0768ZM2.64853 2.52768C2.52373 2.52768 2.4224 2.56181 2.34773 2.63007C2.27093 2.69726 2.2112 2.78472 2.16533 2.89457C2.1184 3.00229 2.08747 3.12707 2.07147 3.26678C2.0544 3.4065 2.04693 3.54834 2.04693 3.69339V6.17198C2.04693 6.48874 2.00213 6.75643 1.91467 6.97827C1.82613 7.19904 1.72373 7.38248 1.6064 7.52646C1.49013 7.67044 1.3696 7.77923 1.24907 7.85175C1.12747 7.92427 1.02933 7.96907 0.954667 7.98613V8.02773C1.02933 8.03626 1.12747 8.07252 1.24907 8.13651C1.3696 8.19837 1.49013 8.30075 1.6064 8.44047C1.72373 8.58018 1.82613 8.76362 1.91467 8.98973C2.00213 9.21476 2.04693 9.49952 2.04693 9.84188V12.3077C2.04693 12.4431 2.0544 12.5807 2.07147 12.7215C2.08747 12.8601 2.1184 12.9881 2.16533 13.1001C2.2112 13.2131 2.27093 13.3038 2.34773 13.371C2.4224 13.4382 2.52373 13.4723 2.64853 13.4723H2.8576V14.285H2.39787C2.23893 14.285 2.08 14.2466 1.92 14.1698C1.76213 14.0941 1.61813 13.98 1.48693 13.8317C1.35787 13.6824 1.2512 13.4968 1.16693 13.2761C1.08373 13.0553 1.04213 12.8004 1.04213 12.5103V10.0594C1.04213 9.81521 1.01333 9.59444 0.954667 9.395C0.896 9.19663 0.818133 9.03025 0.722133 8.89481C0.626133 8.75936 0.514133 8.65484 0.389333 8.58338C0.264533 8.50979 0.135467 8.4746 0 8.4746V7.55312C0.135467 7.55312 0.264533 7.51473 0.389333 7.43794C0.514133 7.36115 0.626133 7.25343 0.722133 7.11265C0.818133 6.97294 0.896 6.80443 0.954667 6.60499C1.01333 6.40662 1.04213 6.19011 1.04213 5.95441V3.48968C1.04213 3.20172 1.08373 2.94683 1.16693 2.72499C1.2512 2.50315 1.35787 2.31865 1.48693 2.16933C1.61813 2.02002 1.76213 1.90697 1.92 1.83125C2.08 1.75339 2.23893 1.715 2.39787 1.715H2.8576V2.52768H2.64853Z" fill="#231F20"/>
</svg>
