<svg width="16" height="16" viewBox="0 0 16 16" fill="none" xmlns="http://www.w3.org/2000/svg">
<path fill-rule="evenodd" clip-rule="evenodd" d="M2.95038 1.28033V0.655881C2.95038 0.293648 3.24402 0 3.60626 0C3.96849 0 4.26214 0.293648 4.26214 0.655881V1.28033H5.97636V0.655881C5.97636 0.293648 6.27001 0 6.63224 0C6.99448 0 7.28812 0.293648 7.28812 0.655881V1.28033H9.00191V0.655881C9.00191 0.293648 9.29556 0 9.65779 0C10.02 0 10.3137 0.293648 10.3137 0.655881V1.28033H12.0275V0.655881C12.0275 0.293648 12.3211 0 12.6833 0C13.0456 0 13.3392 0.293648 13.3392 0.655881V1.28033H14.499C14.8613 1.28033 15.155 1.57398 15.155 1.93621V15.3441C15.155 15.7064 14.8613 16 14.499 16H1.50102C1.13871 16 0.845001 15.7064 0.845001 15.3441V1.93621C0.845001 1.57398 1.13871 1.28033 1.50102 1.28033H2.95038ZM10.3137 2.59209H12.0275V3.20269C12.0275 3.56492 12.3211 3.85857 12.6833 3.85857C13.0456 3.85857 13.3392 3.56492 13.3392 3.20269V2.59209H13.8427V14.6882H2.15676V2.59209H2.95038V3.20269C2.95038 3.56492 3.24402 3.85857 3.60626 3.85857C3.96849 3.85857 4.26214 3.56492 4.26214 3.20269V2.59209H5.97636V3.20269C5.97636 3.56492 6.27001 3.85857 6.63224 3.85857C6.99448 3.85857 7.28812 3.56492 7.28812 3.20269V2.59209H9.00191V3.20269C9.00191 3.56492 9.29556 3.85857 9.65779 3.85857C10.02 3.85857 10.3137 3.56492 10.3137 3.20269V2.59209ZM11.2303 7.15419H5.05838C4.69607 7.15419 4.40236 6.86055 4.40236 6.49831C4.40236 6.13608 4.69607 5.84243 5.05838 5.84243H11.2303C11.5926 5.84243 11.8863 6.13608 11.8863 6.49831C11.8863 6.86055 11.5926 7.15419 11.2303 7.15419ZM5.05838 9.62605H11.2303C11.5926 9.62605 11.8863 9.3324 11.8863 8.97017C11.8863 8.60794 11.5926 8.31429 11.2303 8.31429H5.05838C4.69607 8.31429 4.40236 8.60794 4.40236 8.97017C4.40236 9.3324 4.69607 9.62605 5.05838 9.62605ZM11.2303 12.2476H5.05838C4.69607 12.2476 4.40236 11.954 4.40236 11.5918C4.40236 11.2295 4.69607 10.9359 5.05838 10.9359H11.2303C11.5926 10.9359 11.8863 11.2295 11.8863 11.5918C11.8863 11.954 11.5926 12.2476 11.2303 12.2476Z" fill="black"/>
</svg>
