<svg width="16" height="16" viewBox="0 0 16 16" fill="none" xmlns="http://www.w3.org/2000/svg">
<path fill-rule="evenodd" clip-rule="evenodd" d="M10.0619 0.97998C10.8243 0.97998 11.4206 1.62322 11.4206 2.39139L11.4205 5.02662L14.0597 3.38404C14.8966 2.86306 15.918 3.45936 15.9953 4.40635L16 4.52162V11.5319C16 12.5447 14.93 13.2113 14.0595 12.6694L11.4205 11.0253L11.4206 13.6086C11.4206 14.3767 10.8243 15.02 10.0619 15.02H1.35875C0.595632 15.02 0 14.3769 0 13.6086V2.39139C0 1.62301 0.595632 0.97998 1.35875 0.97998H10.0619ZM10.0619 2.35186H1.35875C1.3715 2.35186 1.37309 2.35474 1.37273 2.36658L1.37188 13.609C1.37188 13.6167 1.3722 13.6229 1.37245 13.628C1.37331 13.6452 1.3735 13.649 1.35875 13.649H10.0619C10.0469 13.649 10.0472 13.645 10.0481 13.6283C10.0484 13.6232 10.0487 13.6168 10.0487 13.609L10.0482 9.81395C10.0478 9.80389 10.0477 9.79382 10.0478 9.78373L10.0487 2.39184C10.0487 2.38405 10.0484 2.37772 10.0481 2.37258C10.0472 2.35592 10.0469 2.35186 10.0619 2.35186ZM11.4205 6.64216L14.6281 4.64583V11.4076L11.4205 9.40971V6.64216Z" fill="black"/>
</svg>
