<svg width="16" height="16" viewBox="0 0 16 16" fill="none" xmlns="http://www.w3.org/2000/svg">
<path fill-rule="evenodd" clip-rule="evenodd" d="M15.5488 1.09381L15.5536 1.2037V11.3151L15.5514 11.3588C15.6241 12.6386 14.6008 13.9473 13.1034 14.5154C11.3683 15.1736 9.53193 14.6291 9.05901 13.1595C8.59607 11.7223 9.68858 10.1013 11.404 9.44936C12.4186 9.06446 13.4681 9.09115 14.2593 9.47358L14.2585 1.34508L7.01918 3.48578L7.02025 12.3455C7.23354 13.6931 6.18013 15.1229 4.59605 15.7239C2.86093 16.3821 1.02456 15.8376 0.551645 14.368C0.0887025 12.9308 1.18121 11.3098 2.8966 10.6579C3.8998 10.2773 4.93714 10.2991 5.7251 10.6693L5.72412 3.42573C5.72412 2.9293 6.01814 2.47941 6.46338 2.3039L6.56875 2.26838L14.0874 0.0450381C14.8058 -0.161751 15.4857 0.370299 15.5488 1.09381ZM3.35662 11.8687C2.22335 12.2994 1.56207 13.2804 1.78454 13.9711C1.99687 14.6307 3.02371 14.9352 4.13721 14.5128C5.12942 14.1365 5.76011 13.3365 5.75176 12.6796L5.73154 12.591L5.72478 12.498L5.72657 12.4735C5.72149 12.4524 5.71563 12.4315 5.70898 12.4108C5.49658 11.7515 4.46928 11.4467 3.35662 11.8687ZM10.2917 12.7626C10.0693 12.072 10.7306 11.0909 11.8638 10.6603C12.9765 10.2382 14.0038 10.543 14.2162 11.2023C14.4387 11.893 13.7771 12.8747 12.6444 13.3043C11.5309 13.7267 10.5041 13.4223 10.2917 12.7626Z" fill="black"/>
</svg>
