<svg width="16" height="16" viewBox="0 0 16 16" fill="none" xmlns="http://www.w3.org/2000/svg">
<path fill-rule="evenodd" clip-rule="evenodd" d="M4.30927 11.606V1.52705H11.4399V1.70513C11.4399 2.0343 11.7068 2.30116 12.0359 2.30116C12.3651 2.30116 12.632 2.0343 12.632 1.70513V0.931021C12.632 0.601843 12.3651 0.334991 12.0359 0.334991H3.71324C3.38407 0.334991 3.11721 0.601843 3.11721 0.931021V2.66046C3.05507 2.63849 2.98819 2.62653 2.91852 2.62653H0.596029C0.266851 2.62653 0 2.89339 0 3.22256V15.0689C0 15.3981 0.266851 15.6649 0.596029 15.6649H9.68106C10.0102 15.6649 10.2771 15.3981 10.2771 15.0689V12.9968C10.2771 12.9271 10.2651 12.8602 10.2432 12.7981H12.0359C12.3549 12.7981 12.6174 12.5469 12.6314 12.2282L12.632 12.2144L12.6355 12.1185L12.637 12.0676L12.6385 12.0079C12.6398 11.9449 12.6401 11.8908 12.6391 11.8456V11.8456V11.8456C12.638 11.8048 12.638 11.8048 12.634 11.7534C12.6459 11.7053 12.6459 11.7053 12.4574 11.3686L12.4574 11.3686L12.4574 11.3686L12.4574 11.3685L12.4574 11.3685C12.2246 11.1358 11.8472 11.1358 11.6145 11.3685C11.5455 11.4375 11.497 11.5192 11.4689 11.606H4.30927ZM9.11896 12.7981C9.09699 12.8602 9.08503 12.9271 9.08503 12.9968V14.4729H1.19206V3.81859H2.91852C2.98819 3.81859 3.05507 3.80664 3.11721 3.78467V12.202C3.11721 12.5312 3.38407 12.7981 3.71324 12.7981H9.11896ZM11.5017 12.0546C11.5297 12.1112 11.5673 12.1643 11.6145 12.2114C11.5664 12.1633 11.5326 12.1377 11.5088 12.1197C11.4901 12.1056 11.4775 12.0961 11.469 12.084L11.5017 12.0546ZM14.2189 8.9908C14.809 8.32336 15.1672 7.44604 15.1672 6.48507C15.1672 4.39489 13.4729 2.7005 11.3828 2.7005C9.29274 2.7005 7.59827 4.39491 7.59827 6.48507C7.59827 8.57508 9.29277 10.2695 11.3828 10.2695C12.0801 10.2695 12.7333 10.0809 13.2942 9.75197L14.9825 11.4404C15.2153 11.6731 15.5926 11.6732 15.8254 11.4404C16.0582 11.2077 16.0582 10.8303 15.8254 10.5975L14.2189 8.9908ZM13.0248 8.4912C13.6049 8.01579 13.9752 7.29366 13.9752 6.48507C13.9752 5.05323 12.8145 3.89256 11.3828 3.89256C9.95108 3.89256 8.79033 5.05328 8.79033 6.48507C8.79033 7.91671 9.95111 9.0774 11.3828 9.0774C11.9792 9.0774 12.5285 8.87603 12.9665 8.53758C12.9852 8.52073 13.0046 8.50527 13.0248 8.4912Z" fill="black"/>
</svg>
