<svg width="16" height="16" viewBox="0 0 16 16" fill="none" xmlns="http://www.w3.org/2000/svg">
<path fill-rule="evenodd" clip-rule="evenodd" d="M10.0619 0.980011C10.8243 0.980011 11.4206 1.62325 11.4206 2.39142L11.4205 5.02665L14.0597 3.38407C14.8966 2.86309 15.918 3.45939 15.9953 4.40638L16 4.52165V11.5319C16 12.5447 14.93 13.2113 14.0595 12.6694L11.4205 11.0253L11.4206 13.6086C11.4206 14.3768 10.8243 15.02 10.0619 15.02H1.35875C0.595632 15.02 0 14.377 0 13.6086V2.39142C0 1.62304 0.595632 0.980011 1.35875 0.980011H10.0619ZM10.0619 2.3519H1.35875C1.3715 2.3519 1.37309 2.35477 1.37273 2.36661L1.37188 13.6091C1.37188 13.6167 1.3722 13.623 1.37245 13.628C1.37331 13.6452 1.3735 13.649 1.35875 13.649H10.0619C10.0469 13.649 10.0472 13.645 10.0481 13.6283C10.0484 13.6232 10.0487 13.6168 10.0487 13.6091L10.0482 9.81398C10.0478 9.80392 10.0477 9.79385 10.0478 9.78376L10.0487 2.39187C10.0487 2.38408 10.0484 2.37775 10.0481 2.37261V2.3726C10.0472 2.35594 10.0469 2.3519 10.0619 2.3519ZM11.4205 6.64219L14.6281 4.64586V11.4077L11.4205 9.40974V6.64219Z" fill="black"/>
</svg>
