<svg width="16" height="16" viewBox="0 0 16 16" fill="none" xmlns="http://www.w3.org/2000/svg">
<path fill-rule="evenodd" clip-rule="evenodd" d="M13.6 8.39999C13.1576 8.39999 12.8 8.04239 12.8 7.59999C12.8 7.15759 13.1576 6.79999 13.6 6.79999C14.0424 6.79999 14.4 7.15759 14.4 7.59999C14.4 8.04239 14.0424 8.39999 13.6 8.39999ZM11.2 4.79999V5.19999H4.8V4.79999V2.39999H11.2V4.79999ZM11.2 11.2V13.6H4.8V11.2V8.79999H11.2V11.2ZM14.4912 5.19999H12.8V4.79999V0.799988H3.2V4.79999V5.19999H1.5088C0.6752 5.19999 0 5.87519 0 6.70879V11.6H3.2V15.2H12.8V13.6V11.6H16V6.70879C16 5.87519 15.3248 5.19999 14.4912 5.19999Z" fill="black"/>
</svg>
