<svg width="16" height="16" viewBox="0 0 16 16" fill="none" xmlns="http://www.w3.org/2000/svg">
<path fill-rule="evenodd" clip-rule="evenodd" d="M8 0C3.584 0 0 3.584 0 8C0 12.416 3.584 16 8 16C12.416 16 16 12.416 16 8C16 3.584 12.416 0 8 0ZM7.2 13.6V12H8.8V13.6H7.2ZM9.736 8.136L10.456 7.4C10.912 6.944 11.2 6.304 11.2 5.6C11.2 3.832 9.768 2.4 8 2.4C6.232 2.4 4.8 3.832 4.8 5.6H6.4C6.4 4.72 7.12 4 8 4C8.88 4 9.6 4.72 9.6 5.6C9.6 6.04 9.424 6.44 9.128 6.728L8.136 7.736C7.56 8.32 7.2 9.12 7.2 10V10.4H8.8C8.8 9.2 9.16 8.72 9.736 8.136Z" fill="black"/>
</svg>
