<svg width="16" height="16" viewBox="0 0 16 16" fill="none" xmlns="http://www.w3.org/2000/svg">
<path fill-rule="evenodd" clip-rule="evenodd" d="M2.08211 6.5066C2.08211 4.06637 4.06741 2.08211 6.5066 2.08211C8.9458 2.08211 10.9311 4.06637 10.9311 6.5066C10.9311 8.94684 8.9458 10.9311 6.5066 10.9311C4.06741 10.9311 2.08211 8.94684 2.08211 6.5066ZM16 13.7919L12.0711 9.86297C12.6645 8.88021 13.0132 7.73505 13.0132 6.5066C13.0132 2.91912 10.0941 0 6.5066 0C2.91912 0 0 2.91912 0 6.5066C0 10.0941 2.91912 13.0132 6.5066 13.0132C7.73505 13.0132 8.88126 12.6645 9.86297 12.0711L13.7919 16L16 13.7919Z" fill="black"/>
</svg>
