<svg width="16" height="16" viewBox="0 0 16 16" fill="none" xmlns="http://www.w3.org/2000/svg">
<path fill-rule="evenodd" clip-rule="evenodd" d="M10.9092 0.425049L9.88064 1.45357L10.6079 2.18084H1.45462V5.94131C0.607055 6.24082 0 7.04913 0 7.99902C0 9.20428 0.976556 10.1808 2.18182 10.1808C3.38661 10.1808 4.36364 9.20427 4.36364 7.99902C4.36364 7.04927 3.75645 6.24104 2.90916 5.94143V3.63539H10.6079L9.88064 4.36266L10.9092 5.39118L13.3922 2.90811L10.9092 0.425049ZM2.90909 7.99902C2.90909 7.59757 2.58327 7.27175 2.18182 7.27175C1.77988 7.27175 1.45455 7.59757 1.45455 7.99902C1.45455 8.40096 1.77988 8.7263 2.18182 8.7263C2.58327 8.7263 2.90909 8.40096 2.90909 7.99902Z" fill="black"/>
<path fill-rule="evenodd" clip-rule="evenodd" d="M8 10.1808C9.2048 10.1808 10.1818 9.20427 10.1818 7.99902C10.1818 6.79424 9.20478 5.8172 8 5.8172C6.79475 5.8172 5.81818 6.79423 5.81818 7.99902C5.81818 9.20428 6.79474 10.1808 8 10.1808ZM8.72727 7.99902C8.72727 7.59757 8.40145 7.27175 8 7.27175C7.59806 7.27175 7.27273 7.59757 7.27273 7.99902C7.27273 8.40096 7.59806 8.7263 8 8.7263C8.40145 8.7263 8.72727 8.40096 8.72727 7.99902Z" fill="black"/>
<path fill-rule="evenodd" clip-rule="evenodd" d="M16 7.99902C16 8.94917 15.3928 9.75721 14.5455 10.0567V13.8184H5.39198L6.11943 14.5459L5.09091 15.5744L2.60785 13.0913L5.09091 10.6083L6.11943 11.6368L5.39234 12.3639H13.0909V10.0568C12.2434 9.75734 11.6364 8.94926 11.6364 7.99902C11.6364 6.79423 12.6129 5.8172 13.8182 5.8172C15.023 5.8172 16 6.79424 16 7.99902ZM13.8182 7.27175C14.2196 7.27175 14.5455 7.59757 14.5455 7.99902C14.5455 8.40096 14.2196 8.7263 13.8182 8.7263C13.4162 8.7263 13.0909 8.40096 13.0909 7.99902C13.0909 7.59757 13.4162 7.27175 13.8182 7.27175Z" fill="black"/>
</svg>
