<svg width="16" height="16" viewBox="0 0 16 16" fill="none" xmlns="http://www.w3.org/2000/svg">
<path fill-rule="evenodd" clip-rule="evenodd" d="M8.98732 4.99821C8.98732 4.43825 8.54451 3.98273 7.99891 3.98273C7.4533 3.98273 7.01049 4.43825 7.01049 4.99821V7.94221C7.01049 8.50216 7.4533 8.9557 7.99891 8.9557C8.54451 8.9557 8.98732 8.50216 8.98732 7.94221V4.99821ZM8.98732 10.9141C8.98732 10.368 8.54451 9.93935 7.99891 9.93935C7.4533 9.93935 7.01049 10.3939 7.01049 10.9409C7.01049 11.4859 7.4533 11.9285 7.99891 11.9285C8.54451 11.9285 8.98732 11.4859 8.98732 10.9409V10.9141ZM14.92 2.78048V7.79667C14.92 11.5448 10.3172 14.8389 8.67419 15.845C8.4656 15.972 8.23032 16.016 7.99999 15.995C7.76965 16.016 7.53437 15.972 7.32578 15.845C5.68278 14.8389 1.07999 11.5448 1.07999 7.79667V2.78048C1.07999 2.50347 1.24409 2.25446 1.48926 2.16145L7.58578 0.0523731C7.72121 0.0123715 7.8606 -0.00262906 7.99999 0.000371059C8.13938 -0.00262906 8.27876 0.0123715 8.4142 0.0523731L14.5107 2.16145C14.7559 2.25446 14.92 2.50347 14.92 2.78048Z" fill="#231F20"/>
</svg>
