<svg width="16" height="16" viewBox="0 0 16 16" fill="none" xmlns="http://www.w3.org/2000/svg">
<path fill-rule="evenodd" clip-rule="evenodd" d="M15.5928 9.97799L12.7784 12.7736C10.124 15.4268 5.8584 15.4092 3.2208 12.7736C3.0968 12.6496 2.9912 12.5257 2.8848 12.4017C2.8496 12.3666 2.796 12.3666 2.7608 12.4017L2 13.1622C1.964 13.1974 1.964 13.251 2 13.2862C2.1064 13.4101 2.2296 13.5341 2.3536 13.658C5.4688 16.7719 10.548 16.7895 13.6632 13.658C14.6904 12.6137 15.3976 11.3758 15.7344 10.0659C15.752 9.97799 15.6456 9.92521 15.5928 9.97799ZM15.8408 6.43951C15.8232 6.36914 15.7344 6.35074 15.6984 6.40432L11.0264 11.0391C9.3448 12.7024 6.6368 12.7024 4.9552 11.0391C4.8312 10.9152 4.7256 10.792 4.6192 10.6681C4.584 10.6321 4.5304 10.6145 4.4952 10.6681L3.7344 11.4286C3.6984 11.4637 3.6984 11.5173 3.7344 11.5525C3.8408 11.6765 3.964 11.818 4.088 11.9419C6.2472 14.1002 9.752 14.1002 11.9112 11.9419L15.9816 7.87249C16 7.8549 16 7.83731 16 7.80212C15.9816 7.32393 15.9288 6.86412 15.8408 6.43951ZM10.9736 4.91776C11.0088 4.95375 11.0616 4.95375 11.0968 4.91776L11.8408 4.17488C11.876 4.1397 11.876 4.08692 11.8408 4.05093C9.6808 1.94624 6.2296 1.96383 4.088 4.1221L0.0176 8.15557C0 8.17316 0 8.19155 0 8.22674C0.0176 8.68654 0.0704 9.14634 0.1592 9.58855C0.1592 9.64213 0.2472 9.67731 0.3008 9.62454L4.9552 4.97134C6.6192 3.30805 9.292 3.29046 10.9736 4.91776ZM5.8232 10.1547C7.0264 11.3582 8.9376 11.3582 10.1592 10.1547C10.1768 10.1371 14.8672 5.44873 15.3448 4.97134C15.3624 4.95375 15.38 4.91776 15.3624 4.88258C15.2208 4.54672 15.044 4.21086 14.8496 3.87421C14.8136 3.82143 14.7608 3.82143 14.708 3.85662L9.292 9.28788C8.5304 10.0484 7.2744 9.99558 6.5664 9.14634C6.0352 8.49222 6.0352 7.53663 6.548 6.88172C7.2208 6.03248 8.4424 5.96211 9.2208 6.66981C9.2568 6.70499 9.3096 6.70499 9.3448 6.66981L10.088 5.92693C10.124 5.89094 10.124 5.83816 10.088 5.80298C8.8848 4.67067 6.9912 4.68826 5.8232 5.87335L0.6368 11.0215C0.6192 11.0391 0.6016 11.0927 0.6192 11.1103C0.7608 11.4462 0.9376 11.782 1.132 12.1187C1.168 12.1714 1.2208 12.1714 1.2744 12.1363L5.0264 8.36828C4.9912 9.0224 5.3448 9.65972 5.8232 10.1547ZM0.2648 5.92693C0.6192 4.61709 1.3096 3.37922 2.336 2.33487C5.4512 -0.760597 10.46 -0.77819 13.5752 2.28209C13.6104 2.31728 13.6104 2.37086 13.5752 2.40604L12.8312 3.14892C12.796 3.18411 12.7432 3.18411 12.708 3.14892C10.0704 0.583625 5.8408 0.601217 3.2208 3.22009C3.2208 3.22009 1.1144 5.32479 0.4248 6.01489C0.3536 6.06767 0.2472 6.01489 0.2648 5.92693Z" fill="black"/>
</svg>
