<svg width="115" height="16" viewBox="0 0 115 16" fill="none" xmlns="http://www.w3.org/2000/svg">
<path d="M6.90608 7.49517C6.62121 7.38491 6.31006 7.36154 6.01192 7.42801C5.71378 7.49448 5.44203 7.64782 5.23098 7.86864C5.01994 8.08947 4.87906 8.36789 4.82616 8.66873C4.77325 8.96957 4.81068 9.27935 4.93373 9.55893C5.05677 9.83851 5.2599 10.0754 5.51748 10.2396C5.77505 10.4038 6.0755 10.488 6.38089 10.4815C6.68629 10.475 6.98291 10.3782 7.23332 10.2033C7.48372 10.0283 7.67666 9.78313 7.78778 9.4986C7.86217 9.30923 7.89836 9.10701 7.89426 8.9036C7.89017 8.70018 7.84587 8.49959 7.76391 8.31337C7.68196 8.12715 7.56397 7.95899 7.41674 7.81856C7.26952 7.67814 7.09596 7.56823 6.90608 7.49517Z" fill="black"/>
<path d="M10.8493 4.93639C10.6855 4.93639 10.5255 4.98494 10.3893 5.0759C10.2532 5.16686 10.1471 5.29615 10.0845 5.44741C10.0218 5.59868 10.0054 5.76513 10.0373 5.92571C10.0693 6.08629 10.1481 6.2338 10.2639 6.34957C10.3797 6.46534 10.5272 6.54418 10.6878 6.57613C10.8483 6.60807 11.0148 6.59167 11.1661 6.52902C11.3173 6.46636 11.4466 6.36026 11.5376 6.22412C11.6285 6.08799 11.6771 5.92794 11.6771 5.76421C11.6766 5.54481 11.5892 5.33453 11.4341 5.17939C11.2789 5.02424 11.0687 4.93687 10.8493 4.93639Z" fill="black"/>
<path d="M7.94637 0.0459832C1.59197 0.0459832 0 1.63489 0 7.99174C0 14.3486 1.59197 15.9381 7.94637 15.9381C14.3008 15.9381 15.8921 14.3492 15.8921 7.99174C15.8921 1.63428 14.3032 0.0459832 7.94637 0.0459832ZM9.19361 11.4383L8.16496 12.2662L7.4253 11.3404C6.99099 11.5354 6.5117 11.6082 6.03907 11.551L5.61046 12.658L4.38097 12.178L4.80958 11.0759C4.464 10.828 4.18337 10.5003 3.99155 10.1207L2.73267 10.3117L2.52694 8.96957L3.71724 8.78589C3.73307 8.50887 3.79258 8.23609 3.89359 7.97766C3.97866 7.75798 4.0923 7.55046 4.23157 7.36046L3.49682 6.44202L4.52547 5.61909L5.26023 6.53754C5.69861 6.33859 6.18325 6.26403 6.66116 6.32201L7.08977 5.22967L8.31436 5.70482L7.88575 6.80205C8.27527 7.08027 8.57902 7.46209 8.76256 7.90418L9.93327 7.72784L10.1341 9.02591L8.96339 9.20959C8.94284 9.44478 8.8884 9.67576 8.80174 9.89537C8.71634 10.1184 8.5992 10.3279 8.45396 10.5175L9.19361 11.4383ZM12.4853 7.34822L11.9269 7.02492C11.6274 7.28138 11.246 7.42232 10.8517 7.42232C10.4574 7.42232 10.0761 7.28138 9.77652 7.02492L9.21811 7.34822L8.66704 6.39304L9.23035 6.06485C9.21064 5.96647 9.20079 5.86637 9.20096 5.76605C9.20116 5.42434 9.30724 5.09109 9.50461 4.81215C9.70197 4.5332 9.98093 4.32227 10.3031 4.20837V3.55688H11.4052V4.20837C11.7274 4.32227 12.0063 4.5332 12.2037 4.81215C12.4011 5.09109 12.5072 5.42434 12.5074 5.76605C12.5075 5.86637 12.4977 5.96647 12.478 6.06485L13.0413 6.39304L12.4853 7.34822Z" fill="black"/>
<path d="M27.268 0.612356H26.2883C26.1659 0.618568 26.0502 0.669977 25.9635 0.756625C25.8769 0.843272 25.8255 0.958993 25.8193 1.08137V4.4539C25.2138 4.21749 24.571 4.09101 23.9212 4.0804C21.6887 4.0804 20.0055 5.89585 20.0055 8.30523C20.0055 10.6834 21.6355 12.546 23.7154 12.546C24.667 12.5269 25.5784 12.1591 26.2767 11.5124L26.404 11.9447C26.4176 12.0556 26.4702 12.158 26.5525 12.2337C26.6347 12.3093 26.7412 12.3531 26.8528 12.3574H27.2643C27.3882 12.3558 27.5067 12.3059 27.5944 12.2183C27.6821 12.1307 27.7322 12.0123 27.7339 11.8884V1.07893C27.7299 0.956549 27.6796 0.840259 27.5931 0.753623C27.5066 0.666988 27.3903 0.616487 27.268 0.612356ZM25.8389 6.31834V9.64004C25.6484 9.97039 25.3746 10.2451 25.0449 10.4367C24.7152 10.6284 24.3411 10.7303 23.9597 10.7324C22.8092 10.7324 21.9085 9.66575 21.9085 8.30401C21.8831 7.69248 22.1006 7.09571 22.5136 6.64396C22.9265 6.19221 23.5014 5.92218 24.1128 5.89279C24.7131 5.90086 25.3036 6.04644 25.8389 6.31834Z" fill="black"/>
<path d="M32.8656 4.07917C32.3196 4.07944 31.7793 4.19034 31.2773 4.40518C30.7754 4.62003 30.3222 4.93436 29.9451 5.3292C29.568 5.72404 29.2748 6.19121 29.0832 6.70249C28.8917 7.21378 28.8057 7.75858 28.8305 8.30401C28.8305 10.7612 30.5346 12.5448 32.8827 12.5448C33.9673 12.5796 35.0285 12.2252 35.8744 11.5455C35.9282 11.5117 35.9733 11.4659 36.0062 11.4116C36.0391 11.3572 36.0588 11.296 36.0638 11.2327C36.0688 11.1694 36.0589 11.1058 36.035 11.047C36.011 10.9882 35.9736 10.9358 35.9258 10.894L35.4623 10.1733C35.4371 10.1298 35.4033 10.0919 35.363 10.0618C35.3227 10.0317 35.2767 10.0101 35.2278 9.99823C35.1633 9.99311 35.0985 10.0008 35.037 10.0209C34.9755 10.041 34.9186 10.073 34.8696 10.1152C34.3352 10.5425 33.6698 10.7724 32.9856 10.766C32.4295 10.777 31.8892 10.5808 31.4696 10.2157C31.05 9.85051 30.7811 9.34246 30.7152 8.79017H36.0887C36.2029 8.78812 36.3123 8.74368 36.3956 8.66549C36.4788 8.5873 36.5301 8.48094 36.5393 8.36708C36.5577 8.22747 36.5748 7.9501 36.5748 7.80683C36.5874 7.31544 36.5001 6.82663 36.3184 6.36992C36.1366 5.91321 35.8642 5.4981 35.5175 5.14967C35.1707 4.80124 34.757 4.52673 34.3012 4.34274C33.8454 4.15874 33.357 4.06908 32.8656 4.07917ZM32.8313 5.72012C33.2896 5.69744 33.739 5.85309 34.0851 6.15445C34.4312 6.45581 34.6472 6.87946 34.6878 7.33658H30.8113C30.886 6.86398 31.1346 6.43635 31.5083 6.13753C31.882 5.83872 32.3538 5.69029 32.8313 5.72135V5.72012Z" fill="black"/>
<path d="M44.3541 4.44165C44.3114 4.37803 44.2525 4.32691 44.1835 4.29356C44.1146 4.2602 44.038 4.2458 43.9616 4.25184H43.1901C42.9617 4.25184 42.7002 4.25184 42.5778 4.52799L40.4348 9.23041L38.3891 4.52492C38.3562 4.43996 38.2971 4.36768 38.2204 4.31857C38.1436 4.26947 38.0532 4.24609 37.9623 4.25184H36.9153C36.8388 4.24582 36.7621 4.26022 36.6931 4.29357C36.624 4.32692 36.565 4.37803 36.5222 4.44165C36.4907 4.50247 36.4759 4.57053 36.4792 4.63892C36.4826 4.70731 36.5039 4.7736 36.5412 4.83107L39.97 12.2882C40.0097 12.3664 40.0705 12.4318 40.1455 12.4771C40.2205 12.5225 40.3067 12.5459 40.3943 12.5448H40.4972C40.5835 12.5454 40.668 12.5212 40.7408 12.4749C40.8136 12.4286 40.8715 12.3623 40.9074 12.2839L44.3302 4.83474C44.369 4.77736 44.3917 4.71061 44.3959 4.64146C44.4001 4.57232 44.3856 4.50331 44.3541 4.44165Z" fill="black"/>
<path d="M48.2966 4.07917C47.7506 4.07944 47.2104 4.19034 46.7084 4.40518C46.2065 4.62003 45.7533 4.93436 45.3762 5.3292C44.9991 5.72404 44.7059 6.19121 44.5143 6.70249C44.3227 7.21378 44.2368 7.75858 44.2616 8.30401C44.2616 10.7612 45.9656 12.5448 48.3138 12.5448C49.3983 12.5797 50.4596 12.2253 51.3054 11.5455C51.3592 11.5117 51.4044 11.4659 51.4373 11.4116C51.4701 11.3572 51.4899 11.296 51.4949 11.2327C51.4999 11.1694 51.49 11.1058 51.466 11.047C51.4421 10.9882 51.4047 10.9358 51.3569 10.894L50.8934 10.1733C50.8682 10.1298 50.8345 10.0918 50.7941 10.0616C50.7538 10.0315 50.7078 10.01 50.6589 9.99823C50.5944 9.99311 50.5295 10.0008 50.4681 10.0209C50.4066 10.041 50.3497 10.073 50.3007 10.1152C49.7663 10.5425 49.1008 10.7724 48.4166 10.766C47.8605 10.777 47.3202 10.5808 46.9007 10.2157C46.4811 9.85051 46.2122 9.34246 46.1462 8.79017H51.5197C51.634 8.78799 51.7434 8.74353 51.8267 8.66538C51.9101 8.58723 51.9615 8.48094 51.971 8.36708C51.9888 8.22747 52.0059 7.9501 52.0059 7.80683C52.0184 7.31544 51.9312 6.82663 51.7494 6.36992C51.5677 5.91321 51.2952 5.4981 50.9485 5.14967C50.6018 4.80124 50.1881 4.52673 49.7322 4.34274C49.2764 4.15874 48.7881 4.06908 48.2966 4.07917ZM48.2623 5.72012C48.7207 5.69744 49.17 5.85309 49.5161 6.15445C49.8622 6.45581 50.0782 6.87946 50.1188 7.33658H46.2424C46.3171 6.86398 46.5657 6.43635 46.9394 6.13753C47.313 5.83872 47.7849 5.69029 48.2623 5.72135V5.72012Z" fill="black"/>
<path d="M53.5348 0.612356H54.4943C54.6188 0.612356 54.7383 0.661835 54.8264 0.749908C54.9144 0.837981 54.9639 0.957433 54.9639 1.08199V11.8872C54.9639 12.0117 54.9144 12.1312 54.8264 12.2192C54.7383 12.3073 54.6188 12.3568 54.4943 12.3568H53.5354C53.4109 12.3568 53.2914 12.3073 53.2033 12.2192C53.1153 12.1312 53.0658 12.0117 53.0658 11.8872V1.07893C53.0664 0.954959 53.1161 0.83629 53.204 0.748862C53.2919 0.661433 53.4108 0.612355 53.5348 0.612356Z" fill="black"/>
<path d="M60.196 4.07917C59.3531 4.05687 58.5228 4.28676 57.8115 4.73937C57.1001 5.19198 56.5401 5.84669 56.2032 6.61961C55.8663 7.39252 55.7679 8.24843 55.9206 9.07763C56.0732 9.90684 56.47 10.6716 57.0601 11.2738C57.6502 11.8761 58.4066 12.2884 59.2325 12.458C60.0584 12.6276 60.9162 12.5467 61.6958 12.2257C62.4755 11.9046 63.1415 11.3581 63.6085 10.6562C64.0756 9.95421 64.3224 9.12877 64.3173 8.28564C64.3118 7.18636 63.8784 6.13242 63.1091 5.3472C62.3398 4.56197 61.2949 4.10717 60.196 4.07917ZM62.4541 8.28687C62.4782 8.59906 62.4375 8.91287 62.3346 9.20859C62.2317 9.50432 62.0687 9.77558 61.856 10.0053C61.6433 10.2351 61.3854 10.4184 61.0984 10.5438C60.8115 10.6692 60.5018 10.7339 60.1886 10.7339C59.8755 10.7339 59.5658 10.6692 59.2788 10.5438C58.9919 10.4184 58.734 10.2351 58.5213 10.0053C58.3085 9.77558 58.1456 9.50432 58.0427 9.20859C57.9397 8.91287 57.899 8.59906 57.9231 8.28687C57.9056 7.9785 57.9511 7.6698 58.057 7.37967C58.163 7.08954 58.327 6.82408 58.5391 6.59955C58.7512 6.37503 59.0069 6.19617 59.2905 6.07393C59.5742 5.95168 59.8798 5.88863 60.1886 5.88863C60.4975 5.88863 60.8031 5.95168 61.0867 6.07393C61.3704 6.19617 61.6261 6.37503 61.8382 6.59955C62.0503 6.82408 62.2143 7.08954 62.3202 7.37967C62.4261 7.6698 62.4717 7.9785 62.4541 8.28687Z" fill="black"/>
<path d="M69.3339 4.07917C68.4396 4.07318 67.572 4.38378 66.8847 4.95598L66.7292 4.5684C66.7066 4.47344 66.6512 4.38951 66.5728 4.33138C66.4944 4.27325 66.398 4.24465 66.3006 4.25061H65.8719C65.7486 4.2537 65.6311 4.30401 65.5437 4.39116C65.4563 4.47831 65.4057 4.59566 65.4023 4.71902V15.5291C65.4041 15.653 65.4541 15.7714 65.5418 15.859C65.6296 15.9466 65.748 15.9965 65.8719 15.9981H66.832C66.8967 16.0041 66.9619 15.9963 67.0234 15.9753C67.0849 15.9543 67.1412 15.9206 67.1887 15.8763C67.2362 15.832 67.2739 15.7782 67.2991 15.7184C67.3244 15.6585 67.3367 15.594 67.3353 15.5291V12.0635C67.9344 12.3681 68.5946 12.5335 69.2665 12.5472C71.4518 12.5472 73.1644 10.6846 73.1644 8.30646C73.1632 5.93565 71.4812 4.07917 69.3339 4.07917ZM71.2644 8.30401C71.2807 8.61004 71.2359 8.91625 71.1325 9.20477C71.0292 9.49328 70.8694 9.75831 70.6625 9.98438C70.4555 10.2104 70.2057 10.393 69.9274 10.5215C69.6491 10.6499 69.3481 10.7216 69.0418 10.7324C68.4217 10.7219 67.8175 10.535 67.2998 10.1936V6.92941C67.4844 6.61306 67.7489 6.35077 68.0667 6.16884C68.3846 5.9869 68.7447 5.89171 69.111 5.89279C70.3588 5.89279 71.2644 6.90675 71.2644 8.30401Z" fill="black"/>
<path d="M77.8576 4.07917C77.3116 4.07935 76.7712 4.19019 76.2692 4.405C75.7672 4.61981 75.3139 4.93413 74.9368 5.32898C74.5596 5.72383 74.2663 6.19102 74.0748 6.70235C73.8832 7.21368 73.7972 7.75853 73.822 8.30401C73.822 10.7612 75.5266 12.5448 77.8748 12.5448C78.9593 12.5795 80.0205 12.225 80.8664 11.5455C80.9202 11.5117 80.9654 11.4659 80.9983 11.4116C81.0312 11.3572 81.0509 11.296 81.0559 11.2327C81.0609 11.1694 81.051 11.1058 81.027 11.047C81.0031 10.9882 80.9657 10.9358 80.9179 10.894L80.4544 10.1733C80.4293 10.1296 80.3955 10.0914 80.355 10.0613C80.3146 10.0312 80.2684 10.0097 80.2193 9.99823C80.1549 9.99296 80.0901 10.0006 80.0287 10.0207C79.9673 10.0407 79.9105 10.0729 79.8617 10.1152C79.3274 10.5426 78.6619 10.7725 77.9776 10.766C77.4215 10.777 76.8812 10.5808 76.4617 10.2157C76.0421 9.85051 75.7732 9.34246 75.7072 8.79017H81.0808C81.195 8.78825 81.3045 8.74386 81.3878 8.66564C81.4711 8.58742 81.5223 8.48099 81.5314 8.36708C81.5492 8.22502 81.5675 7.94765 81.5675 7.80683C81.58 7.31541 81.4926 6.82658 81.3108 6.36987C81.129 5.91316 80.8565 5.49806 80.5097 5.14964C80.163 4.80122 79.7492 4.52672 79.2933 4.34273C78.8375 4.15874 78.3491 4.06908 77.8576 4.07917ZM77.8233 5.72012C78.2818 5.69727 78.7313 5.85285 79.0775 6.15423C79.4238 6.4556 79.6398 6.87935 79.6804 7.33658H75.8022C75.8769 6.86387 76.1255 6.43614 76.4994 6.13732C76.8732 5.83849 77.3452 5.69013 77.8227 5.72135L77.8233 5.72012Z" fill="black"/>
<path d="M86.4481 4.07917C86.0009 4.07674 85.5583 4.17057 85.1505 4.35429C84.7427 4.53801 84.3792 4.80733 84.0847 5.14395L83.9157 4.59595C83.8909 4.49903 83.8351 4.41284 83.7569 4.35051C83.6786 4.28818 83.5822 4.2531 83.4822 4.25062H83.0713C82.9479 4.25356 82.8303 4.30381 82.7429 4.39099C82.6555 4.47817 82.605 4.59561 82.6017 4.71902V11.8872C82.6034 12.0111 82.6535 12.1295 82.7412 12.2171C82.8289 12.3047 82.9474 12.3546 83.0713 12.3562H83.86C84.1147 12.3562 84.5004 12.3562 84.5004 11.8872V6.88655C84.6929 6.58864 84.9553 6.34234 85.2648 6.16913C85.5743 5.99591 85.9215 5.90104 86.2761 5.89279C86.5094 5.89829 86.7397 5.9473 86.9551 6.03729C87.0067 6.06408 87.0632 6.08016 87.1212 6.08458C87.1791 6.089 87.2374 6.08166 87.2925 6.06301C87.3521 6.04062 87.4065 6.00625 87.4523 5.96202C87.4981 5.91779 87.5344 5.86463 87.5588 5.80584L87.9703 4.94863C88.0063 4.88474 88.0246 4.81238 88.0232 4.73906C88.0218 4.66574 88.0008 4.59412 87.9623 4.53166C87.7542 4.20163 87.0439 4.07917 86.4481 4.07917Z" fill="black"/>
<path d="M97.3482 0.238856C97.3092 0.172568 97.2551 0.116406 97.1903 0.0749193C97.1255 0.0334325 97.0519 0.00778736 96.9753 6.10352e-05H96.8039C96.7263 0.00807532 96.6518 0.0344784 96.5866 0.077076C96.5213 0.119674 96.4671 0.177236 96.4285 0.244979L91.1659 11.7837C91.1349 11.8452 91.1202 11.9136 91.1231 11.9824C91.126 12.0512 91.1464 12.1181 91.1824 12.1768C91.2214 12.2356 91.2749 12.2834 91.3378 12.3156C91.4006 12.3477 91.4707 12.3632 91.5412 12.3605H92.6207C92.7222 12.3609 92.8216 12.3316 92.9066 12.2761C92.9916 12.2206 93.0585 12.1413 93.0989 12.0482L94.1208 9.75454H99.6076L100.648 12.0482C100.685 12.1436 100.751 12.225 100.837 12.2811C100.923 12.3371 101.024 12.3648 101.126 12.3605H102.206C102.277 12.3632 102.347 12.3477 102.41 12.3156C102.472 12.2834 102.526 12.2356 102.565 12.1768C102.601 12.1182 102.621 12.0514 102.624 11.9827C102.627 11.914 102.612 11.8457 102.581 11.7843L97.3482 0.238856ZM98.8728 8.09154H94.8703L96.8651 3.61505L98.8728 8.09154Z" fill="black"/>
<path d="M107.767 0.171504H103.858C103.747 0.171503 103.641 0.215395 103.563 0.293558C103.484 0.37172 103.44 0.477776 103.44 0.588477V11.9386C103.44 12.0494 103.484 12.1555 103.563 12.2337C103.641 12.312 103.747 12.356 103.858 12.3562H104.973C105.082 12.3535 105.187 12.3087 105.265 12.231C105.343 12.1533 105.388 12.0486 105.391 11.9386V8.00154H107.784C108.823 7.99926 109.817 7.58461 110.55 6.84879C111.283 6.11298 111.693 5.11627 111.691 4.07795C111.688 3.03962 111.274 2.04472 110.538 1.31212C109.802 0.579524 108.805 0.16923 107.767 0.171504ZM109.75 4.03447C109.758 4.3057 109.712 4.57589 109.615 4.82921C109.518 5.08253 109.371 5.31388 109.183 5.50971C108.995 5.70553 108.77 5.8619 108.521 5.96963C108.272 6.07736 108.004 6.1343 107.733 6.1371H105.391V2.06962H107.733C107.995 2.06334 108.256 2.10949 108.5 2.20536C108.744 2.30122 108.967 2.44488 109.154 2.6279C109.342 2.81091 109.492 3.02961 109.594 3.27114C109.696 3.51268 109.749 3.7722 109.75 4.03447Z" fill="black"/>
<path d="M113.185 0.171504H114.316C114.426 0.171504 114.533 0.215564 114.611 0.293991C114.69 0.372418 114.734 0.478788 114.734 0.589701V11.9386C114.734 12.0495 114.69 12.1559 114.611 12.2343C114.533 12.3127 114.426 12.3568 114.316 12.3568H113.184C113.073 12.3568 112.967 12.3127 112.888 12.2343C112.81 12.1559 112.766 12.0495 112.766 11.9386V0.589089C112.766 0.534096 112.777 0.479645 112.798 0.428861C112.819 0.378077 112.85 0.331961 112.889 0.29316C112.928 0.25436 112.974 0.223639 113.025 0.202762C113.076 0.181884 113.13 0.171262 113.185 0.171504Z" fill="black"/>
</svg>
