<svg width="79" height="16" viewBox="0 0 79 16" fill="none" xmlns="http://www.w3.org/2000/svg">
<path d="M5.37279 7.19254H10.6266V10.5046H5.37279V7.19254ZM15.9994 8.00006C15.9994 14.3998 14.3998 16.0001 8 16.0001C1.60025 16.0001 0 14.3998 0 8.00006C0 1.60031 1.60025 6.10352e-05 8 6.10352e-05C14.3998 6.10352e-05 15.9994 1.60031 15.9994 8.00006ZM11.8194 5.58798C11.8195 5.52649 11.8074 5.46558 11.7839 5.40874C11.7605 5.35191 11.726 5.30026 11.6826 5.25675C11.6391 5.21324 11.5875 5.17872 11.5307 5.15517C11.4739 5.13162 11.413 5.11949 11.3515 5.11949H10.6266V4.55793C10.6266 4.44038 10.5799 4.32765 10.4968 4.24453C10.4137 4.16141 10.3009 4.11472 10.1834 4.11472H9.97195C9.85441 4.11472 9.74167 4.16141 9.65856 4.24453C9.57544 4.32765 9.52874 4.44038 9.52874 4.55793V5.11949H6.47126V4.55793C6.47126 4.49967 6.45978 4.44199 6.43746 4.38818C6.41515 4.33436 6.38245 4.28548 6.34123 4.24431C6.30001 4.20315 6.25107 4.17051 6.19723 4.14828C6.14339 4.12604 6.08569 4.11464 6.02743 4.11472H5.81661C5.75836 4.11464 5.70066 4.12604 5.64681 4.14828C5.59297 4.17051 5.54404 4.20315 5.50282 4.24431C5.4616 4.28548 5.42889 4.33436 5.40658 4.38818C5.38427 4.44199 5.37279 4.49967 5.37279 4.55793V5.11949H4.64848C4.52423 5.11949 4.40507 5.16885 4.31721 5.25671C4.22936 5.34457 4.18 5.46373 4.18 5.58798V11.269C4.18 11.3305 4.19211 11.3914 4.21566 11.4483C4.2392 11.5051 4.27371 11.5567 4.31721 11.6002C4.36072 11.6438 4.41236 11.6783 4.4692 11.7018C4.52604 11.7253 4.58696 11.7375 4.64848 11.7375H11.3515C11.4757 11.7373 11.5947 11.6879 11.6824 11.6C11.7701 11.5122 11.8194 11.3931 11.8194 11.269V5.58798ZM26.4953 9.34819C26.4516 9.30789 26.4002 9.27682 26.3443 9.25683C26.2883 9.23685 26.2289 9.22836 26.1695 9.23187C26.1102 9.23538 26.0522 9.25082 25.999 9.27727C25.9457 9.30371 25.8984 9.34062 25.8598 9.38579C25.7981 9.44743 25.7322 9.50908 25.6668 9.57072C25.4688 9.81348 25.2193 10.0092 24.9364 10.1436C24.6534 10.2781 24.3441 10.3479 24.0308 10.348C23.7181 10.3399 23.4102 10.2695 23.125 10.141C22.8398 10.0125 22.5831 9.8284 22.3699 9.59951C22.1566 9.37062 21.9912 9.10153 21.8832 8.80795C21.7752 8.51438 21.7268 8.20222 21.7408 7.88972C21.7308 7.57467 21.7838 7.26078 21.8967 6.96648C22.0096 6.67218 22.1801 6.4034 22.3983 6.17591C22.6165 5.94842 22.878 5.76679 23.1673 5.6417C23.4566 5.5166 23.768 5.45056 24.0832 5.44743C24.6921 5.48836 25.2609 5.76526 25.6687 6.2192C25.8068 6.35605 26.0139 6.56379 26.2931 6.30735L26.9132 5.73777C26.9643 5.69938 27.007 5.65101 27.0387 5.59559C27.0704 5.54017 27.0905 5.47887 27.0978 5.41543C27.1051 5.35198 27.0993 5.28772 27.081 5.22657C27.0626 5.16541 27.0319 5.10863 26.9909 5.0597C26.6467 4.60494 26.1982 4.23951 25.6833 3.99418C25.1684 3.74885 24.6021 3.63079 24.0321 3.64993C22.9158 3.66278 21.8503 4.11775 21.069 4.91508C20.2877 5.71242 19.8545 6.78703 19.8644 7.90328C19.8527 8.45558 19.9515 9.00465 20.1549 9.51828C20.3582 10.0319 20.6621 10.4998 21.0487 10.8944C21.4353 11.289 21.8968 11.6025 22.4061 11.8164C22.9154 12.0302 23.4624 12.1403 24.0148 12.14C24.6434 12.1505 25.2643 12.0007 25.8191 11.7049C26.3738 11.4091 26.8441 10.9769 27.1857 10.4491C27.2868 10.2975 27.3429 10.0583 27.0316 9.77661L26.4953 9.34819ZM34.4047 11.4958C34.4003 11.6155 34.3508 11.729 34.2662 11.8137C34.1816 11.8984 34.0681 11.948 33.9485 11.9526H33.3783C33.1595 11.9526 33.0609 11.8231 32.9795 11.629L32.8272 11.2012C32.1718 11.8132 31.3064 12.1502 30.4096 12.1425C30.0502 12.1577 29.6916 12.0967 29.3575 11.9635C29.0233 11.8303 28.7211 11.6278 28.4708 11.3695C28.2204 11.1112 28.0275 10.8028 27.9049 10.4646C27.7822 10.1264 27.7325 9.76613 27.759 9.40737C27.759 7.79849 29.043 6.75673 31.0297 6.75673C31.5468 6.76436 32.0609 6.83726 32.5597 6.97371C32.6276 6.49156 32.5064 6.00182 32.2213 5.60709C32.1042 5.50367 31.9674 5.42514 31.819 5.37629C31.6707 5.32743 31.5139 5.30927 31.3583 5.32292C30.6096 5.34637 29.8678 5.47332 29.154 5.70017C29.0926 5.71428 29.0289 5.7153 28.9671 5.70316C28.9053 5.69101 28.8468 5.66598 28.7953 5.62968C28.7438 5.59339 28.7006 5.54665 28.6684 5.49252C28.6362 5.43839 28.6157 5.37807 28.6084 5.31552L28.4531 4.65964C28.4355 4.60299 28.4296 4.54336 28.4357 4.48436C28.4418 4.42536 28.4598 4.3682 28.4886 4.31635C28.5174 4.2645 28.5564 4.21902 28.6033 4.18267C28.6501 4.14632 28.7039 4.11985 28.7613 4.10485C29.6551 3.80366 30.5921 3.65062 31.5352 3.65178C34.1889 3.65301 34.4047 5.28285 34.4047 7.2511V11.4958ZM32.5418 9.6638V8.40136C32.1033 8.23548 31.6379 8.15189 31.1691 8.15479C30.2346 8.15479 29.607 8.64793 29.607 9.38764C29.593 9.54496 29.6134 9.70345 29.6667 9.85212C29.7201 10.0008 29.8051 10.1361 29.9159 10.2486C30.0268 10.3611 30.1607 10.4482 30.3086 10.5038C30.4564 10.5594 30.6146 10.5822 30.7721 10.5706C31.1148 10.5543 31.45 10.4648 31.7553 10.3082C32.0605 10.1516 32.3287 9.93143 32.5418 9.66257V9.6638ZM37.3913 0.143689H36.4247C36.3051 0.148109 36.1916 0.19757 36.1068 0.28216C36.0221 0.36675 35.9725 0.480223 35.9679 0.599845V11.4958C35.9694 11.6165 36.018 11.7319 36.1033 11.8172C36.1887 11.9026 36.304 11.9512 36.4247 11.9526H37.3913C37.511 11.9482 37.6246 11.8986 37.7094 11.8139C37.7941 11.7292 37.8436 11.6156 37.8481 11.4958V0.599845C37.8406 0.481199 37.7901 0.369358 37.706 0.285354C37.6218 0.20135 37.5099 0.15097 37.3913 0.143689ZM46.7542 7.38918C46.7542 7.53158 46.7369 7.81082 46.7191 7.95136C46.7102 8.06234 46.6604 8.16604 46.5792 8.24227C46.4981 8.3185 46.3915 8.36181 46.2802 8.36375H40.8556C40.9175 8.92715 41.1879 9.44704 41.6135 9.82127C42.0392 10.1955 42.5894 10.397 43.1561 10.3863C43.8481 10.393 44.5213 10.1605 45.0615 9.72791C45.1585 9.64575 45.2835 9.60423 45.4104 9.61202C45.4577 9.62355 45.5021 9.64458 45.541 9.67383C45.5799 9.70308 45.6124 9.73993 45.6366 9.78215L46.1033 10.5083C46.1506 10.5485 46.1878 10.5994 46.2117 10.6567C46.2356 10.7141 46.2456 10.7762 46.2409 10.8382C46.2361 10.9001 46.2167 10.9601 46.1844 11.0131C46.152 11.0661 46.1075 11.1107 46.0546 11.1432C45.2058 11.8252 44.1408 12.1808 43.0526 12.1455C40.6978 12.1455 38.9884 10.3579 38.9884 7.89219C38.9638 7.34524 39.0502 6.79898 39.2424 6.28633C39.4346 5.77369 39.7287 5.30529 40.1069 4.90938C40.485 4.51347 40.9395 4.19826 41.4428 3.98276C41.9461 3.76725 42.4878 3.65592 43.0353 3.65548C43.5277 3.64551 44.0169 3.73538 44.4736 3.91968C44.9303 4.10398 45.3449 4.37888 45.6924 4.72779C46.04 5.07671 46.3132 5.49241 46.4957 5.94982C46.6782 6.40723 46.7661 6.89686 46.7542 7.38918ZM40.9487 6.93426H44.887C44.8504 6.46663 44.6328 6.03173 44.2806 5.72198C43.9284 5.41222 43.4692 5.25203 43.0008 5.27545C42.5129 5.24376 42.031 5.39678 41.6508 5.70412C41.2706 6.01146 41.02 6.4506 40.9487 6.93426ZM51.9458 3.65301C50.96 3.63459 50.007 4.00714 49.2951 4.68923L49.0985 4.12766C49.0792 4.03711 49.0277 3.95664 48.9535 3.9012C48.8794 3.84576 48.7876 3.81912 48.6953 3.82623H48.2811C48.1609 3.82904 48.0465 3.87799 47.9614 3.96291C47.8764 4.04784 47.8273 4.16224 47.8243 4.28239V11.4958C47.8259 11.6165 47.8746 11.7317 47.9599 11.817C48.0452 11.9024 48.1604 11.951 48.2811 11.9526H49.1614C49.5269 11.9526 49.7044 11.8034 49.7044 11.4958V6.54344C49.9211 6.20301 50.2213 5.92362 50.5763 5.7318C50.9314 5.53998 51.3296 5.44209 51.7331 5.44743C52.6966 5.44743 53.2267 6.14955 53.2267 7.42432V11.4958C53.2283 11.6165 53.2769 11.7317 53.3622 11.817C53.4476 11.9024 53.5628 11.951 53.6835 11.9526H54.65C54.7698 11.9482 54.8834 11.8986 54.9681 11.8139C55.0528 11.7292 55.1024 11.6156 55.1068 11.4958V7.48904C55.1093 4.90929 54.0737 3.65301 51.9458 3.65301ZM63.9217 0.599845V11.4958C63.9203 11.6165 63.8717 11.7319 63.7863 11.8172C63.701 11.9026 63.5856 11.9512 63.4649 11.9526H63.0507C62.9418 11.9483 62.8381 11.9053 62.758 11.8314C62.6779 11.7576 62.6268 11.6576 62.6137 11.5495L62.478 11.0896C61.7758 11.748 60.8546 12.123 59.8921 12.1425C57.8068 12.1425 56.1732 10.2741 56.1732 7.8891C56.1732 5.47394 57.861 3.6524 60.0993 3.6524C60.7536 3.66378 61.4007 3.79174 62.0102 4.03027L62.0244 4.0352V0.599845C62.0318 0.481199 62.0823 0.369358 62.1664 0.285354C62.2506 0.20135 62.3625 0.15097 62.4811 0.143689H63.4674C63.5861 0.149466 63.6982 0.199524 63.7818 0.283978C63.8653 0.368431 63.9142 0.481139 63.9186 0.599845H63.9217ZM62.0416 9.23785V5.88202C61.4984 5.6053 60.8987 5.45764 60.2891 5.45052C59.6691 5.47854 59.0854 5.75082 58.6656 6.20787C58.2457 6.66492 58.0238 7.26958 58.0484 7.88972C58.0484 9.2699 58.9626 10.3505 60.1288 10.3505C60.5167 10.3486 60.8973 10.2448 61.2325 10.0496C61.5676 9.85429 61.8456 9.57437 62.0385 9.23785H62.0416ZM71.6092 7.2511V11.4958C71.6048 11.6156 71.5552 11.7292 71.4705 11.8139C71.3858 11.8986 71.2721 11.9482 71.1524 11.9526H70.5828C70.3634 11.9526 70.2648 11.8231 70.184 11.629L70.0318 11.2012C69.3762 11.8131 68.5108 12.15 67.6141 12.1425C67.2547 12.1577 66.8961 12.0967 66.562 11.9635C66.2278 11.8303 65.9256 11.6278 65.6753 11.3695C65.4249 11.1112 65.232 10.8028 65.1094 10.4646C64.9867 10.1264 64.937 9.76613 64.9635 9.40737C64.9635 7.79849 66.2475 6.75673 68.2306 6.75673C68.7478 6.76437 69.2621 6.83727 69.7611 6.97371C69.829 6.49147 69.7075 6.00171 69.4221 5.60709C69.3051 5.50354 69.1683 5.42494 69.0199 5.37608C68.8715 5.32722 68.7147 5.30913 68.5591 5.32292C67.8102 5.34638 67.0682 5.47333 66.3541 5.70017C66.2928 5.71439 66.2291 5.71548 66.1673 5.70337C66.1055 5.69126 66.047 5.66623 65.9955 5.62991C65.9441 5.59359 65.9009 5.54681 65.8688 5.49263C65.8367 5.43845 65.8164 5.37809 65.8092 5.31552L65.6539 4.65964C65.6363 4.60299 65.6304 4.54336 65.6365 4.48436C65.6426 4.42536 65.6606 4.3682 65.6894 4.31635C65.7182 4.2645 65.7572 4.21902 65.8041 4.18267C65.851 4.14632 65.9047 4.11985 65.9621 4.10485C66.8549 3.80388 67.7908 3.65084 68.7329 3.65178C71.3897 3.65301 71.6061 5.28285 71.6061 7.2511H71.6092ZM69.7463 9.66257V8.40136C69.3078 8.23548 68.8424 8.15189 68.3736 8.15479C67.4391 8.15479 66.8109 8.64793 66.8109 9.38764C66.797 9.54471 66.8173 9.70294 66.8704 9.85139C66.9236 9.99985 67.0083 10.135 67.1188 10.2475C67.2293 10.3601 67.3628 10.4473 67.5103 10.5031C67.6578 10.559 67.8156 10.5822 67.9729 10.5712C68.3157 10.5547 68.651 10.465 68.9563 10.3083C69.2617 10.1516 69.53 9.93144 69.7433 9.66257H69.7463ZM78.5138 4.09869C78.3067 3.7689 77.57 3.65116 77.0017 3.65116C76.5496 3.65219 76.103 3.74947 75.6914 3.93653C75.2799 4.1236 74.9129 4.39616 74.6149 4.73608L74.4367 4.16033C74.413 4.06612 74.359 3.98228 74.2831 3.92162C74.2072 3.86096 74.1135 3.82681 74.0163 3.82438H73.6021C73.4819 3.82719 73.3675 3.87614 73.2824 3.96106C73.1974 4.04599 73.1483 4.16039 73.1453 4.28054V11.4958C73.1468 11.6165 73.1954 11.7319 73.2807 11.8172C73.3661 11.9026 73.4814 11.9512 73.6021 11.9526H74.3954C74.6463 11.9526 75.0248 11.9526 75.0248 11.4958V6.45899C75.2202 6.15583 75.4869 5.90513 75.8015 5.72879C76.1161 5.55246 76.4691 5.45586 76.8297 5.44743C77.0669 5.4532 77.301 5.50295 77.5201 5.59414C77.5701 5.62037 77.6249 5.63614 77.6812 5.64048C77.7374 5.64483 77.794 5.63766 77.8474 5.61942C77.9056 5.59758 77.9586 5.56405 78.0032 5.52089C78.0479 5.47774 78.0832 5.42588 78.107 5.36853L78.5212 4.50553C78.5565 4.44326 78.5744 4.37266 78.5731 4.3011C78.5718 4.22954 78.5513 4.15964 78.5138 4.09869Z" fill="black"/>
</svg>
