<svg width="84" height="16" viewBox="0 0 84 16" fill="none" xmlns="http://www.w3.org/2000/svg">
<path d="M8 6.10352e-05C1.60271 6.10352e-05 0 1.60031 0 8.00006C0 14.3998 1.60271 16.0001 8 16.0001C14.3973 16.0001 15.9994 14.3998 15.9994 8.00006C15.9994 1.60031 14.3998 6.10352e-05 8 6.10352e-05ZM11.7084 6.59584L7.58514 10.7191C7.49865 10.8056 7.39597 10.8742 7.28296 10.9211C7.16994 10.9679 7.04882 10.992 6.92649 10.992C6.80417 10.992 6.68304 10.9679 6.57003 10.9211C6.45701 10.8742 6.35433 10.8056 6.26784 10.7191L4.29095 8.74409C4.11635 8.56924 4.01836 8.33219 4.01853 8.08509C4.0187 7.83799 4.11703 7.60108 4.29188 7.42647C4.46673 7.25187 4.70378 7.15388 4.95088 7.15405C5.19798 7.15422 5.43489 7.25255 5.60949 7.4274L6.92742 8.74409L10.3924 5.28038C10.4782 5.1912 10.581 5.12003 10.6946 5.07103C10.8083 5.02202 10.9306 4.99617 11.0544 4.99498C11.1782 4.99379 11.301 5.01728 11.4156 5.06409C11.5302 5.1109 11.6343 5.18008 11.7218 5.26759C11.8094 5.3551 11.8786 5.45918 11.9255 5.57376C11.9723 5.68833 11.9959 5.8111 11.9948 5.93488C11.9936 6.05867 11.9678 6.18098 11.9189 6.29468C11.8699 6.40838 11.7988 6.51118 11.7097 6.59707L11.7084 6.59584Z" fill="black"/>
<path d="M40.9308 3.99328C40.3931 3.99276 39.8609 4.10143 39.3665 4.31273C38.872 4.52402 38.4257 4.83352 38.0544 5.22247C37.6832 5.61142 37.3948 6.07171 37.2067 6.57544C37.0187 7.07917 36.9349 7.61585 36.9604 8.15293C36.9323 8.69282 37.0147 9.23277 37.2027 9.73967C37.3906 10.2466 37.6801 10.7097 38.0534 11.1008C38.4268 11.4918 38.876 11.8025 39.3736 12.0137C39.8713 12.2249 40.4068 12.3323 40.9474 12.3292C42.0162 12.3568 43.0607 12.0089 43.8995 11.346C44.1405 11.1389 44.0715 10.9836 43.9334 10.8104L43.4674 10.0861C43.3293 9.87893 43.174 9.93071 43.002 10.0515C42.4486 10.4916 41.7611 10.7289 41.0541 10.7241C40.4532 10.7386 39.8699 10.5204 39.426 10.115C38.9822 9.70963 38.7121 9.14846 38.6722 8.54868H44.1781C44.2707 8.54704 44.3593 8.51074 44.4264 8.44694C44.4936 8.38314 44.5343 8.29648 44.5406 8.2041C44.5585 8.0654 44.5751 7.78986 44.5751 7.64931C44.5896 7.16628 44.5052 6.68538 44.3274 6.23605C44.1495 5.78673 43.8818 5.37844 43.5406 5.03618C43.1994 4.69393 42.792 4.4249 42.3433 4.24557C41.8945 4.06625 41.4139 3.9804 40.9308 3.99328ZM38.7554 7.27268C38.8093 6.75277 39.0621 6.27383 39.461 5.93606C39.8599 5.59828 40.374 5.42784 40.8957 5.46038C41.1441 5.44914 41.3923 5.48721 41.626 5.57238C41.8596 5.65756 42.0741 5.78815 42.257 5.95663C42.4399 6.12512 42.5877 6.32816 42.6918 6.55403C42.7958 6.77991 42.8541 7.02415 42.8633 7.27268H38.7554Z" fill="black"/>
<path d="M81.0492 7.35836C80.2552 7.01254 79.6862 6.70186 79.6862 6.18715C79.6862 5.82469 80.0142 5.47949 80.704 5.47949C81.2954 5.48793 81.8781 5.62331 82.4127 5.87647C82.4567 5.90148 82.5052 5.91732 82.5555 5.92303C82.6058 5.92874 82.6567 5.92419 82.7051 5.90967C82.7536 5.89515 82.7986 5.87096 82.8374 5.83855C82.8763 5.80615 82.9081 5.7662 82.9311 5.72113L83.2066 5.16634C83.2526 5.06408 83.2606 4.94876 83.2291 4.84116C83.1975 4.73356 83.1286 4.64076 83.0347 4.5795C82.3262 4.17414 81.5199 3.97115 80.704 3.99266C78.7715 3.99266 78.0638 5.16388 78.0638 6.16742C78.0638 7.47918 78.9952 8.13506 80.2213 8.68738C81.3259 9.18792 81.93 9.53312 81.93 10.0676C81.93 10.5169 81.5497 10.8449 80.8772 10.8449C80.1731 10.8416 79.4844 10.638 78.8917 10.258C78.8518 10.2284 78.8061 10.2074 78.7576 10.1965C78.7091 10.1856 78.6588 10.185 78.61 10.1948C78.5613 10.2045 78.5151 10.2244 78.4745 10.2532C78.434 10.2819 78.3999 10.3188 78.3745 10.3616L78.012 11.1013C77.9797 11.1752 77.976 11.2584 78.0015 11.335C78.027 11.4115 78.0799 11.4758 78.1501 11.5155C78.9225 12.0449 79.8372 12.3275 80.7736 12.3261C82.5508 12.3261 83.6209 11.2394 83.6209 9.99667C83.6209 8.51478 82.5163 7.97972 81.0492 7.35836Z" fill="black"/>
<path d="M32.6577 3.99328C31.8169 4.0097 31.0044 4.30064 30.3443 4.82176V1.32415C30.3376 1.22579 30.2956 1.13317 30.2259 1.06346C30.1561 0.993754 30.0635 0.951682 29.9652 0.945045H28.9986C28.8992 0.948703 28.8048 0.9898 28.7344 1.0601C28.664 1.1304 28.6227 1.22472 28.6189 1.32415V11.7603C28.6197 11.8608 28.6599 11.957 28.731 12.0281C28.802 12.0992 28.8981 12.1396 28.9986 12.1406H29.9479C29.9996 12.1443 30.0514 12.1372 30.1001 12.1196C30.1488 12.102 30.1933 12.0744 30.2307 12.0386C30.268 12.0027 30.2975 11.9594 30.317 11.9115C30.3366 11.8635 30.3459 11.812 30.3443 11.7603V6.78878C30.5596 6.42896 30.8663 6.13247 31.2332 5.92938C31.6 5.72629 32.0141 5.62382 32.4333 5.63236C33.4689 5.63236 34.0213 6.40906 34.0213 7.72082V11.7603C34.0219 11.8607 34.062 11.9569 34.1329 12.0281C34.2039 12.0992 34.2999 12.1396 34.4004 12.1406H35.3669C35.4665 12.1367 35.561 12.0953 35.6315 12.0248C35.702 11.9543 35.7433 11.8599 35.7473 11.7603V7.75349C35.7473 5.58058 34.9188 3.99328 32.6577 3.99328Z" fill="black"/>
<path d="M51.8225 9.6712C51.7857 9.63711 51.7424 9.61086 51.6951 9.59403C51.6479 9.57721 51.5977 9.57017 51.5477 9.57334C51.4976 9.57652 51.4487 9.58983 51.404 9.61248C51.3593 9.63513 51.3196 9.66664 51.2874 9.7051C51.0673 9.99951 50.7841 10.2409 50.4586 10.4116C50.133 10.5822 49.7734 10.6779 49.4061 10.6914C49.0829 10.6842 48.7645 10.6124 48.4695 10.4801C48.1745 10.3479 47.909 10.158 47.6886 9.92148C47.4683 9.68501 47.2975 9.40681 47.1863 9.10328C47.0752 8.79975 47.0259 8.47704 47.0415 8.15417C47.0303 7.82894 47.0845 7.50478 47.2007 7.20082C47.3168 6.89685 47.4927 6.61924 47.718 6.38436C47.9432 6.14948 48.2132 5.96209 48.512 5.83325C48.8108 5.70442 49.1324 5.63674 49.4579 5.63421C50.0874 5.6735 50.6763 5.95865 51.0975 6.42817C51.2356 6.56625 51.391 6.72159 51.6153 6.51447L52.2367 5.94489C52.2799 5.91298 52.3162 5.87258 52.3432 5.82617C52.3703 5.77976 52.3876 5.72831 52.394 5.67498C52.4005 5.62166 52.396 5.56757 52.3808 5.51604C52.3656 5.46451 52.3401 5.41662 52.3057 5.37531C51.9681 4.93057 51.5289 4.57314 51.0249 4.33292C50.5209 4.09269 49.9666 3.97665 49.4085 3.99451C48.3129 4.00768 47.2671 4.45464 46.5003 5.23745C45.7336 6.02026 45.3084 7.07509 45.3179 8.17081C45.3058 8.71313 45.4022 9.2524 45.6015 9.75691C45.8008 10.2614 46.099 10.721 46.4785 11.1085C46.858 11.4961 47.3113 11.8039 47.8115 12.0137C48.3117 12.2236 48.8488 12.3313 49.3913 12.3305C50.007 12.34 50.6151 12.193 51.1585 11.9033C51.7019 11.6136 52.1628 11.1906 52.4981 10.6741C52.6361 10.467 52.5498 10.2765 52.36 10.1045L51.8225 9.6712Z" fill="black"/>
<path d="M26.8146 9.6712C26.7778 9.63711 26.7345 9.61086 26.6873 9.59403C26.64 9.57721 26.5899 9.57017 26.5398 9.57334C26.4898 9.57652 26.4409 9.58983 26.3961 9.61248C26.3514 9.63513 26.3117 9.66664 26.2795 9.7051C26.0595 9.99951 25.7763 10.2409 25.4507 10.4116C25.1252 10.5822 24.7655 10.6779 24.3982 10.6914C24.0751 10.6842 23.7566 10.6124 23.4616 10.4801C23.1667 10.3479 22.9012 10.158 22.6808 9.92148C22.4604 9.68501 22.2896 9.40681 22.1784 9.10328C22.0673 8.79975 22.018 8.47704 22.0336 8.15417C22.0225 7.82894 22.0766 7.50478 22.1928 7.20082C22.309 6.89685 22.4849 6.61924 22.7101 6.38436C22.9353 6.14948 23.2053 5.96209 23.5042 5.83325C23.803 5.70442 24.1246 5.63674 24.45 5.63421C25.0796 5.6735 25.6685 5.95865 26.0897 6.42817C26.2278 6.56625 26.3831 6.72159 26.6075 6.51447L27.2288 5.94489C27.2721 5.91298 27.3083 5.87258 27.3354 5.82617C27.3624 5.77976 27.3797 5.72831 27.3862 5.67498C27.3926 5.62166 27.3881 5.56757 27.373 5.51604C27.3578 5.46451 27.3322 5.41662 27.2979 5.37531C26.9603 4.93057 26.5211 4.57314 26.017 4.33292C25.513 4.09269 24.9588 3.97665 24.4007 3.99451C23.305 4.00768 22.2592 4.45464 21.4925 5.23745C20.7257 6.02026 20.3005 7.07509 20.3101 8.17081C20.2979 8.71313 20.3943 9.2524 20.5936 9.75691C20.7929 10.2614 21.0911 10.721 21.4707 11.1085C21.8502 11.4961 22.3034 11.8039 22.8036 12.0137C23.3038 12.2236 23.841 12.3313 24.3834 12.3305C24.9991 12.34 25.6072 12.193 26.1506 11.9033C26.694 11.6136 27.1549 11.1906 27.4902 10.6741C27.6283 10.467 27.542 10.2765 27.3521 10.1045L26.8146 9.6712Z" fill="black"/>
<path d="M73.7198 3.99328C73.2217 3.98207 72.7267 4.07447 72.2662 4.26463C71.8056 4.45478 71.3896 4.73854 71.0445 5.09792L70.8023 4.40752C70.7864 4.33436 70.7444 4.26949 70.6842 4.22502C70.6239 4.18055 70.5496 4.15953 70.475 4.16588H70.0607C69.9613 4.16954 69.8669 4.21064 69.7965 4.28094C69.7261 4.35124 69.6848 4.44555 69.681 4.54498V11.7603C69.6818 11.8608 69.722 11.957 69.7931 12.0281C69.8641 12.0992 69.9602 12.1396 70.0607 12.1406H70.941C71.2689 12.1406 71.4064 12.0173 71.4064 11.7603V6.78878C71.6268 6.42986 71.9369 6.1345 72.3061 5.93174C72.6753 5.72898 73.0909 5.62581 73.5121 5.63236C74.5483 5.63236 75.0834 6.39118 75.0834 7.6863V11.7603C75.0842 11.8607 75.1243 11.9568 75.1952 12.0279C75.2661 12.099 75.3621 12.1395 75.4625 12.1406H76.429C76.5286 12.1367 76.6231 12.0953 76.6936 12.0248C76.7641 11.9543 76.8054 11.8599 76.8094 11.7603V7.75349C76.8069 5.68414 76.1535 3.99328 73.7198 3.99328Z" fill="black"/>
<path d="M67.5605 4.16526H66.5939C66.4945 4.16892 66.4001 4.21002 66.3297 4.28032C66.2593 4.35062 66.218 4.44494 66.2142 4.54437V11.7603C66.215 11.8608 66.2553 11.957 66.3263 12.0281C66.3973 12.0992 66.4934 12.1396 66.5939 12.1406H67.5605C67.66 12.1366 67.7543 12.0953 67.8246 12.0247C67.8949 11.9542 67.9359 11.8598 67.9396 11.7603V4.54806C67.9338 4.44905 67.8921 4.35554 67.8223 4.28507C67.7525 4.21459 67.6594 4.172 67.5605 4.16526Z" fill="black"/>
<path d="M67.076 0.56964C66.924 0.570667 66.7737 0.601904 66.6339 0.661534C66.4941 0.721163 66.3675 0.807995 66.2616 0.91698C66.1557 1.02596 66.0724 1.15493 66.0168 1.29636C65.9611 1.4378 65.9342 1.5889 65.9374 1.74085C65.9355 1.89175 65.9635 2.04155 66.0198 2.18156C66.0761 2.32158 66.1596 2.44905 66.2654 2.55659C66.3713 2.66413 66.4975 2.74961 66.6366 2.80809C66.7757 2.86656 66.9251 2.89688 67.076 2.89727C67.2313 2.90084 67.3857 2.87334 67.5302 2.81638C67.6747 2.75942 67.8064 2.67415 67.9175 2.56559C68.0286 2.45702 68.1169 2.32734 68.1771 2.18418C68.2374 2.04101 68.2684 1.88725 68.2684 1.73191C68.2684 1.57658 68.2374 1.42282 68.1771 1.27965C68.1169 1.13649 68.0286 1.00681 67.9175 0.898242C67.8064 0.789676 67.6747 0.704407 67.5302 0.647448C67.3857 0.590488 67.2313 0.562986 67.076 0.566558V0.56964Z" fill="black"/>
<path d="M57.1681 7.75349L60.3951 4.71635C60.4462 4.67527 60.4831 4.61913 60.5005 4.5559C60.5178 4.49268 60.5148 4.42559 60.4919 4.36417C60.469 4.30274 60.4273 4.2501 60.3727 4.21373C60.3182 4.17736 60.2535 4.15911 60.188 4.16156H58.9305C58.7393 4.17651 58.5606 4.26275 58.43 4.4032L55.3552 7.18576V1.32415C55.3484 1.22573 55.3062 1.13311 55.2364 1.06341C55.1666 0.993716 55.0739 0.951666 54.9755 0.945045H54.0089C53.9095 0.948845 53.8153 0.989988 53.7449 1.06026C53.6745 1.13053 53.6332 1.22477 53.6292 1.32415V11.7603C53.6302 11.8607 53.6705 11.9568 53.7415 12.0279C53.8124 12.099 53.9085 12.1395 54.0089 12.1406H54.9755C55.075 12.1366 55.1694 12.0953 55.2398 12.0248C55.3102 11.9543 55.3514 11.8598 55.3552 11.7603V8.27252L58.5483 11.984C58.5942 12.0342 58.6503 12.0741 58.7128 12.1008C58.7753 12.1276 58.8428 12.1408 58.9108 12.1394H60.3286C60.6738 12.1394 60.7083 11.8108 60.5529 11.6216L57.1681 7.75349Z" fill="black"/>
<path d="M64.3162 7.20302H61.0319C60.9884 7.20156 60.9451 7.20904 60.9047 7.22501C60.8642 7.24097 60.8275 7.26507 60.7968 7.29582C60.766 7.32657 60.7419 7.36331 60.7259 7.40376C60.71 7.4442 60.7025 7.4875 60.704 7.53096V8.27067C60.7047 8.31263 60.7138 8.35402 60.7307 8.39239C60.7477 8.43076 60.7722 8.46534 60.8028 8.49408C60.8334 8.52282 60.8694 8.54513 60.9088 8.5597C60.9481 8.57426 60.99 8.58079 61.0319 8.57889H64.3162C64.3582 8.58087 64.4001 8.57441 64.4395 8.55987C64.4789 8.54534 64.5149 8.52303 64.5455 8.49428C64.5761 8.46552 64.6006 8.43091 64.6176 8.3925C64.6345 8.35408 64.6436 8.31265 64.6442 8.27067V7.53096C64.6457 7.48748 64.6383 7.44414 64.6224 7.40365C64.6064 7.36316 64.5823 7.32639 64.5516 7.29562C64.5208 7.26485 64.484 7.24075 64.4435 7.22482C64.403 7.20889 64.3597 7.20147 64.3162 7.20302Z" fill="black"/>
</svg>
