<svg width="117" height="16" viewBox="0 0 117 16" fill="none" xmlns="http://www.w3.org/2000/svg">
<path d="M8 6.10352e-05C1.60271 6.10352e-05 0 1.59969 0 8.00006C0 14.4004 1.60271 16.0001 8 16.0001C14.3973 16.0001 15.9994 14.3967 15.9994 8.00006C15.9994 1.60339 14.3998 6.10352e-05 8 6.10352e-05ZM11.1339 11.8281C11.1344 11.8992 11.1068 11.9676 11.057 12.0185C11.0072 12.0693 10.9394 12.0983 10.8682 12.0993L9.29511 12.0864C9.2599 12.0869 9.22493 12.0804 9.19221 12.0674C9.15949 12.0543 9.12966 12.035 9.10442 12.0104C9.07917 11.9859 9.05901 11.9566 9.04509 11.9243C9.03117 11.8919 9.02375 11.8571 9.02327 11.8219C9.02327 11.8219 9.02697 11.637 9.02697 10.3776C9.01034 9.97282 8.91059 9.57576 8.73391 9.21117C8.55724 8.84657 8.30742 8.52224 8 8.25834C7.69224 8.52199 7.44215 8.84626 7.26535 9.21089C7.08854 9.57553 6.98882 9.97271 6.97241 10.3776C6.97241 11.6345 6.97673 11.8219 6.97673 11.8219C6.97575 11.893 6.94667 11.9608 6.89584 12.0104C6.84501 12.0601 6.77657 12.0876 6.7055 12.087L5.13176 12.0999C5.09655 12.0995 5.06176 12.0922 5.02938 12.0783C4.997 12.0645 4.96766 12.0444 4.94305 12.0192C4.91844 11.994 4.89903 11.9642 4.88592 11.9315C4.87282 11.8989 4.86629 11.8639 4.8667 11.8287C4.8667 11.8287 4.67191 6.64269 4.85067 6.48796L7.72815 4.00438C7.80448 3.93823 7.90209 3.90182 8.00308 3.90182C8.10408 3.90182 8.20169 3.93823 8.27801 4.00438L11.1524 6.48796H11.1493C11.3281 6.65686 11.1339 11.8275 11.1339 11.8281Z" fill="black"/>
<path d="M24.5141 12.7916C23.9691 12.7917 23.4295 12.6845 22.9259 12.4761C22.4224 12.2677 21.9649 11.9622 21.5794 11.577C21.1939 11.1918 20.8881 10.7344 20.6794 10.231C20.4707 9.72754 20.3632 9.18795 20.3631 8.64299C20.3631 8.61341 20.3631 8.58135 20.3631 8.55361C20.3537 7.43709 20.7875 6.36243 21.5694 5.56531C22.3513 4.76819 23.4173 4.3137 24.5338 4.30149C25.1039 4.2823 25.6702 4.40034 26.1851 4.64568C26.7 4.89101 27.1485 5.25646 27.4927 5.71126C27.5723 5.80735 27.6105 5.9311 27.599 6.05535C27.5874 6.17959 27.527 6.29417 27.431 6.37392L27.415 6.38625L26.7936 6.95583C26.5175 7.21165 26.3079 7.00576 26.1704 6.86892C25.7624 6.41371 25.1925 6.13608 24.5825 6.0953C23.9548 6.10213 23.3555 6.35788 22.9163 6.80636C22.4771 7.25483 22.2339 7.85934 22.2401 8.48704C22.2401 8.5043 22.2401 8.52156 22.2401 8.5382C22.2255 8.84695 22.2719 9.15555 22.3766 9.44638C22.4812 9.73721 22.6422 10.0046 22.8502 10.2332C23.0582 10.4618 23.3092 10.6472 23.5889 10.7788C23.8686 10.9104 24.1714 10.9857 24.4802 11.0002C24.4975 11.0002 24.5153 11.0002 24.5332 11.0002C24.8464 11.0002 25.1557 10.9305 25.4386 10.796C25.7215 10.6616 25.9708 10.4658 26.1686 10.2229C26.2346 10.1582 26.298 10.0953 26.3622 10.038C26.4382 9.94914 26.5464 9.89407 26.663 9.88483C26.7795 9.87558 26.895 9.91292 26.9841 9.98866L26.9977 10.0004L27.5327 10.4319C27.841 10.7142 27.7873 10.9521 27.6869 11.1044C27.3446 11.6317 26.8737 12.0632 26.3187 12.3583C25.7636 12.6535 25.1426 12.8026 24.5141 12.7916Z" fill="black"/>
<path d="M40.4272 12.7916C37.7278 12.7916 37.382 10.7949 37.382 9.05477V4.93272C37.3877 4.81351 37.4376 4.70069 37.5219 4.61624C37.6062 4.5318 37.719 4.48178 37.8382 4.47594H38.8047C38.9249 4.47906 39.0393 4.52819 39.1243 4.61318C39.2093 4.69818 39.2584 4.81256 39.2615 4.93272V9.17867C39.2615 10.422 39.7306 11.0002 40.7409 11.0002C41.1311 11.0004 41.5118 10.8806 41.8316 10.6571C42.1514 10.4336 42.3947 10.1172 42.5286 9.75072V4.93272C42.5286 4.51108 42.7881 4.47594 43.0544 4.47594H43.9353C44.0566 4.48047 44.1719 4.52958 44.2593 4.61385C44.3466 4.69813 44.3998 4.81166 44.4087 4.93272V12.1449C44.4033 12.2673 44.3512 12.3829 44.2632 12.468C44.1751 12.5531 44.0577 12.6012 43.9353 12.6023H43.5198C43.2584 12.6023 43.1561 12.4174 43.0846 12.2232L42.92 11.7708C42.6017 12.1093 42.2144 12.3756 41.7844 12.5517C41.3543 12.7278 40.8915 12.8096 40.4272 12.7916Z" fill="black"/>
<path d="M47.2498 12.606H46.4558C46.3351 12.6044 46.2197 12.5557 46.1344 12.4702C46.0491 12.3848 46.0005 12.2694 45.9991 12.1486V4.93641C46.0023 4.8163 46.0515 4.70201 46.1365 4.61704C46.2214 4.53208 46.3357 4.48291 46.4558 4.47964H46.8701C46.9673 4.4822 47.061 4.51648 47.1369 4.57725C47.2128 4.63801 47.2667 4.72193 47.2905 4.81621L47.4686 5.39134C47.7667 5.05128 48.1338 4.77863 48.5454 4.59156C48.9571 4.40449 49.4039 4.30728 49.8561 4.30643C50.4238 4.30643 51.1604 4.42416 51.3682 4.75457C51.4054 4.81526 51.4258 4.88483 51.4271 4.95606C51.4284 5.02728 51.4106 5.09755 51.3756 5.15956L50.9607 6.02256C50.9369 6.07999 50.9016 6.13193 50.857 6.17519C50.8124 6.21844 50.7593 6.25209 50.7012 6.27406C50.6477 6.29207 50.5911 6.29906 50.5349 6.29461C50.4786 6.29016 50.4238 6.27436 50.3739 6.24817C50.1548 6.15691 49.9207 6.10697 49.6835 6.10085C49.3229 6.10923 48.9699 6.20588 48.6553 6.38234C48.3408 6.55879 48.0743 6.80968 47.8792 7.11302V12.1511C47.8792 12.606 47.5007 12.606 47.2498 12.606Z" fill="black"/>
<path d="M55.3879 12.7916C54.8429 12.7917 54.3033 12.6845 53.7997 12.4761C53.2962 12.2677 52.8386 11.9622 52.4532 11.577C52.0677 11.1918 51.7619 10.7344 51.5532 10.231C51.3445 9.72754 51.237 9.18795 51.2369 8.64299C51.2369 8.61402 51.2369 8.58505 51.2369 8.55608C51.2268 7.43955 51.66 6.36463 52.4414 5.56705C53.2228 4.76947 54.2886 4.31434 55.4051 4.30149C55.9752 4.2823 56.5415 4.40034 57.0564 4.64568C57.5713 4.89101 58.0198 5.25646 58.364 5.71126C58.4436 5.80735 58.4818 5.9311 58.4703 6.05535C58.4587 6.17959 58.3983 6.29417 58.3024 6.37392L58.2863 6.38625L57.665 6.95583C57.3888 7.21165 57.1792 7.00576 57.0418 6.86892C56.6343 6.41405 56.065 6.13662 55.4557 6.09592C54.828 6.10258 54.2287 6.3582 53.7895 6.80658C53.3503 7.25495 53.107 7.85939 53.1133 8.48704C53.1133 8.5043 53.1133 8.52156 53.1133 8.53882C53.0985 8.84779 53.1448 9.15663 53.2496 9.44768C53.3543 9.73873 53.5154 10.0063 53.7236 10.235C53.9318 10.4637 54.1831 10.6492 54.4631 10.7807C54.7431 10.9122 55.0462 10.9872 55.3552 11.0014C55.3719 11.0014 55.3891 11.0014 55.4064 11.0014C55.7196 11.0015 56.0289 10.9317 56.3117 10.7972C56.5946 10.6628 56.844 10.467 57.0418 10.2241C57.1077 10.1594 57.1712 10.0965 57.2353 10.0392C57.3114 9.95037 57.4195 9.8953 57.5361 9.88606C57.6527 9.87681 57.7682 9.91415 57.8573 9.98989L57.8709 10.0016L58.4059 10.4331C58.7141 10.7154 58.6605 10.9534 58.56 11.1056C58.2176 11.6326 57.7468 12.0638 57.1919 12.3587C56.637 12.6536 56.0162 12.8026 55.3879 12.7916Z" fill="black"/>
<path d="M75.7312 12.7916C75.1863 12.7916 74.6466 12.6844 74.1431 12.4759C73.6396 12.2674 73.1821 11.9618 72.7967 11.5765C72.4113 11.1913 72.1056 10.7338 71.8969 10.2304C71.6883 9.72694 71.5809 9.18734 71.5808 8.64238C71.5808 8.61279 71.5808 8.58074 71.5808 8.55361C71.5708 7.43731 72.0039 6.3626 72.7852 5.56524C73.5666 4.76787 74.6322 4.31295 75.7485 4.30026C76.3185 4.28084 76.8848 4.39872 77.3998 4.64396C77.9147 4.88919 78.3632 5.25461 78.7073 5.70941C78.787 5.8055 78.8252 5.92925 78.8136 6.0535C78.8021 6.17774 78.7417 6.29232 78.6457 6.37208L78.6297 6.38502L78.0083 6.95398C77.7322 7.2098 77.5226 7.00391 77.3851 6.86707C76.9776 6.4122 76.4084 6.13477 75.799 6.09407C75.1714 6.10073 74.5721 6.35635 74.1329 6.80473C73.6936 7.2531 73.4504 7.85754 73.4566 8.48519C73.4566 8.50245 73.4566 8.51971 73.4566 8.53697C73.4425 8.84571 73.4892 9.15423 73.5943 9.44489C73.6994 9.73556 73.8606 10.0027 74.0689 10.231C74.2772 10.4593 74.5285 10.6444 74.8083 10.7757C75.0881 10.9069 75.3911 10.9817 75.6998 10.9959H75.7442C76.0573 10.9956 76.3665 10.9257 76.6494 10.7913C76.9322 10.6568 77.1816 10.4612 77.3796 10.2186C77.4455 10.1539 77.509 10.091 77.5731 10.0337C77.649 9.94459 77.7571 9.8893 77.8738 9.87994C77.9904 9.87057 78.106 9.9079 78.1951 9.98372L78.2087 9.99605L78.7437 10.4276C79.0519 10.7093 78.9983 10.9478 78.8978 11.0995C78.5566 11.6267 78.087 12.0586 77.5331 12.3546C76.9792 12.6506 76.3592 12.8009 75.7312 12.7916Z" fill="black"/>
<path d="M83.3811 4.30149C82.3058 4.30264 81.2751 4.73075 80.5154 5.49171C79.7557 6.25267 79.3293 7.28418 79.3299 8.35944C79.3299 8.42108 79.3299 8.47779 79.3343 8.53635C79.3343 11.0021 81.0436 12.7897 83.3984 12.7897C84.4865 12.8253 85.5514 12.4697 86.3997 11.7874C86.4438 11.7606 86.4822 11.7255 86.5127 11.6839C86.5431 11.6423 86.5651 11.595 86.5773 11.5449C86.5895 11.4948 86.5917 11.4428 86.5837 11.3919C86.5758 11.3409 86.5579 11.292 86.5311 11.248C86.5091 11.2121 86.4817 11.1798 86.4497 11.1525L85.9824 10.4269C85.9583 10.3848 85.9259 10.3479 85.8871 10.3187C85.8483 10.2894 85.804 10.2684 85.7568 10.2568C85.6298 10.2475 85.5043 10.2889 85.4079 10.3721C84.8677 10.8051 84.1943 11.0379 83.5019 11.031C82.9354 11.0422 82.3852 10.841 81.9594 10.4671C81.5336 10.0932 81.263 9.57361 81.2008 9.01039H86.6254C86.7367 9.00829 86.8433 8.96485 86.9245 8.88852C87.0056 8.81219 87.0554 8.70841 87.0643 8.59738C87.0828 8.45498 87.1 8.17636 87.1 8.03581C87.1117 7.55706 87.029 7.08068 86.8566 6.63389C86.6842 6.18711 86.4255 5.77866 86.0952 5.43189C85.7649 5.08511 85.3695 4.8068 84.9316 4.61284C84.4938 4.41889 84.022 4.31309 83.5432 4.30149C83.489 4.30149 83.4353 4.30149 83.3811 4.30149ZM81.2945 7.58089C81.366 7.09757 81.6167 6.65882 81.9967 6.35175C82.3768 6.04468 82.8584 5.89175 83.346 5.92332C83.8143 5.89957 84.2735 6.05948 84.6257 6.36903C84.978 6.67859 85.1956 7.11337 85.2322 7.58089H81.2945Z" fill="black"/>
<path d="M94.9983 12.606H94.0317C93.911 12.6044 93.7956 12.5557 93.7103 12.4702C93.625 12.3848 93.5764 12.2694 93.575 12.1486V8.07403C93.575 6.79926 93.0442 6.09715 92.0814 6.09715C91.6778 6.09176 91.2795 6.18969 90.9244 6.38163C90.5693 6.57357 90.2693 6.85315 90.0527 7.19377V12.1474C90.0527 12.4556 89.8752 12.6048 89.5096 12.6048H88.6294C88.5087 12.603 88.3934 12.5542 88.3081 12.4688C88.2228 12.3834 88.1742 12.2681 88.1726 12.1474V4.93518C88.1757 4.81502 88.2248 4.70064 88.3098 4.61565C88.3948 4.53065 88.5092 4.48153 88.6294 4.47841H89.0436C89.1359 4.4713 89.2277 4.49794 89.3018 4.55338C89.376 4.60882 89.4275 4.68929 89.4467 4.77984L89.644 5.34141C90.3541 4.66032 91.3047 4.2878 92.2885 4.30519C94.4195 4.30519 95.4557 5.56147 95.4557 8.14492V12.1517C95.4505 12.2711 95.4006 12.3841 95.3158 12.4683C95.231 12.5524 95.1177 12.6016 94.9983 12.606Z" fill="black"/>
<path d="M99.4298 12.7916C97.5719 12.7916 97.3339 11.4773 97.3339 10.3326V6.09653H96.4962C96.3757 6.0951 96.2606 6.04668 96.1753 5.9616C96.0899 5.87651 96.0412 5.76147 96.0395 5.64099V4.93272C96.0356 4.81563 96.0784 4.70179 96.1583 4.61617C96.2383 4.53055 96.3489 4.48012 96.466 4.47594H97.3339V2.32893C97.3355 2.20811 97.3842 2.0927 97.4697 2.00727C97.5551 1.92183 97.6705 1.87313 97.7913 1.87154H98.7745C98.8328 1.8721 98.8904 1.88414 98.9441 1.90697C98.9977 1.92979 99.0463 1.96296 99.0871 2.00457C99.1279 2.04619 99.1601 2.09544 99.1819 2.1495C99.2037 2.20357 99.2146 2.26139 99.2141 2.31968V4.47718H101.243C101.302 4.47644 101.361 4.48743 101.416 4.5095C101.471 4.53157 101.522 4.56429 101.564 4.6058C101.607 4.64731 101.64 4.69679 101.664 4.7514C101.687 4.80602 101.699 4.8647 101.7 4.92409V5.64161C101.695 5.76122 101.646 5.87463 101.561 5.95911C101.476 6.04358 101.362 6.09289 101.243 6.09715H99.2141V10.2648C99.2141 10.8812 99.4199 10.9984 99.7756 10.9984C100.213 10.9818 100.639 10.8545 101.014 10.6285C101.062 10.5963 101.117 10.5752 101.175 10.5667C101.232 10.5581 101.291 10.5624 101.346 10.5792C101.404 10.6024 101.455 10.6377 101.498 10.6827C101.54 10.7277 101.573 10.7813 101.593 10.8399L101.901 11.6512C101.944 11.7548 101.945 11.8711 101.903 11.9754C101.862 12.0796 101.781 12.1637 101.679 12.2096C100.987 12.5826 100.216 12.7823 99.4298 12.7916Z" fill="black"/>
<path d="M106.048 4.30149C104.972 4.30247 103.942 4.73054 103.182 5.49153C102.422 6.25253 101.996 7.28413 101.997 8.35944C101.997 8.42108 101.997 8.47902 102.001 8.53882C102.001 11.0045 103.71 12.7922 106.065 12.7922C107.153 12.8266 108.217 12.4711 109.066 11.7899C109.155 11.7354 109.219 11.6478 109.244 11.5463C109.268 11.4448 109.251 11.3377 109.197 11.2486C109.175 11.2135 109.148 11.1819 109.116 11.1549L108.649 10.4294C108.625 10.3872 108.593 10.3503 108.554 10.321C108.515 10.2918 108.471 10.2707 108.423 10.2593C108.36 10.2544 108.297 10.2621 108.237 10.2818C108.177 10.3016 108.122 10.3331 108.074 10.3745C107.534 10.8071 106.86 11.0397 106.168 11.0329C105.602 11.044 105.051 10.843 104.626 10.4692C104.2 10.0954 103.929 9.57597 103.867 9.01285H109.291C109.403 9.01048 109.509 8.96695 109.59 8.89067C109.671 8.81439 109.721 8.71078 109.73 8.59984C109.748 8.45745 109.765 8.17883 109.765 8.03766C109.777 7.55888 109.695 7.08242 109.523 6.6355C109.351 6.18859 109.092 5.77997 108.762 5.433C108.432 5.08604 108.037 4.80752 107.599 4.61337C107.161 4.41923 106.689 4.31325 106.211 4.30149C106.157 4.30149 106.103 4.30149 106.048 4.30149ZM103.961 7.58089C104.033 7.09739 104.283 6.65846 104.664 6.35136C105.044 6.04425 105.526 5.89144 106.013 5.92332C106.482 5.89957 106.941 6.0595 107.293 6.36907C107.645 6.67865 107.862 7.11342 107.899 7.58089H103.961Z" fill="black"/>
<path d="M112.091 12.606H111.297C111.176 12.6044 111.061 12.5557 110.975 12.4702C110.89 12.3848 110.841 12.2694 110.84 12.1486V4.93641C110.843 4.81625 110.892 4.70188 110.977 4.61688C111.062 4.53189 111.176 4.48276 111.297 4.47964H111.711C111.808 4.48203 111.902 4.51626 111.978 4.57706C112.053 4.63786 112.107 4.72188 112.131 4.81621L112.309 5.39134C112.607 5.05128 112.974 4.77863 113.386 4.59156C113.797 4.40449 114.244 4.30728 114.696 4.30643C115.264 4.30643 116.001 4.42416 116.209 4.75457C116.246 4.81527 116.267 4.88489 116.268 4.95614C116.269 5.02738 116.251 5.09764 116.216 5.15956L115.801 6.02256C115.777 6.07997 115.742 6.13191 115.698 6.17517C115.653 6.21843 115.6 6.25209 115.542 6.27406C115.488 6.29208 115.432 6.29908 115.375 6.29463C115.319 6.29018 115.264 6.27438 115.214 6.24817C114.995 6.15691 114.761 6.10697 114.524 6.10085C114.163 6.10933 113.81 6.20603 113.496 6.38248C113.181 6.55893 112.915 6.80975 112.719 7.11302V12.1511C112.719 12.606 112.341 12.606 112.091 12.606Z" fill="black"/>
<path d="M32.794 4.35759C31.9878 4.36697 31.2052 4.63106 30.5582 5.1121V1.76613C30.5506 1.64753 30.5 1.53576 30.4159 1.45178C30.3318 1.3678 30.22 1.31738 30.1014 1.30997H29.1348C29.0148 1.31323 28.9006 1.36232 28.8157 1.44715C28.7307 1.53198 28.6815 1.64612 28.6781 1.76613V12.2016C28.6781 12.3228 28.7262 12.439 28.8119 12.5246C28.8975 12.6103 29.0137 12.6584 29.1348 12.6584H30.0817C30.1996 12.666 30.3158 12.6264 30.4046 12.5484C30.4933 12.4704 30.5475 12.3603 30.5551 12.2423C30.5551 12.2288 30.5551 12.2152 30.5551 12.2016V7.24925C30.7661 6.90723 31.0625 6.62606 31.4152 6.43344C31.7679 6.24083 32.1647 6.14341 32.5665 6.15078C33.5417 6.15078 34.078 6.86522 34.078 8.16218V12.201C34.0794 12.3217 34.128 12.4371 34.2134 12.5224C34.2987 12.6078 34.4141 12.6563 34.5347 12.6578H35.5062C35.6265 12.655 35.7411 12.6059 35.8261 12.5209C35.9112 12.4358 35.9602 12.3213 35.963 12.201V8.19424C35.9599 5.68538 34.8652 4.35759 32.794 4.35759Z" fill="black"/>
<path d="M63.6677 4.35759C62.8616 4.36697 62.079 4.63106 61.432 5.1121V1.76613C61.4244 1.64753 61.3738 1.53576 61.2897 1.45178C61.2056 1.3678 61.0938 1.31738 60.9752 1.30997H60.0086C59.8886 1.31323 59.7744 1.36232 59.6895 1.44715C59.6045 1.53198 59.5553 1.64612 59.5519 1.76613V12.2016C59.5519 12.3228 59.6 12.439 59.6856 12.5246C59.7713 12.6103 59.8875 12.6584 60.0086 12.6584H60.9579C61.0759 12.666 61.192 12.6264 61.2808 12.5484C61.3696 12.4704 61.4237 12.3603 61.4313 12.2423C61.4313 12.2288 61.4313 12.2152 61.4313 12.2016V7.24925C61.6423 6.90723 61.9388 6.62606 62.2915 6.43344C62.6442 6.24083 63.0409 6.14341 63.4427 6.15078C64.4173 6.15078 64.9542 6.86522 64.9542 8.16218V12.201C64.9557 12.3217 65.0042 12.4371 65.0896 12.5224C65.175 12.6078 65.2903 12.6563 65.411 12.6578H66.3769C66.4972 12.655 66.6118 12.6059 66.6968 12.5209C66.7819 12.4358 66.8309 12.3213 66.8337 12.201V8.19424C66.8337 5.68538 65.7389 4.35759 63.6677 4.35759Z" fill="black"/>
</svg>
