<svg width="61" height="16" viewBox="0 0 61 16" fill="none" xmlns="http://www.w3.org/2000/svg">
<path d="M8 0.00012207C1.60271 0.00012207 0 1.60037 0 8.00012C0 14.3999 1.60271 16.0001 8 16.0001C14.3973 16.0001 15.9994 14.3999 15.9994 8.00012C15.9994 1.60037 14.3998 0.00012207 8 0.00012207ZM8.23794 11.0342C8.16862 11.084 8.08539 11.1109 8 11.1109C7.91461 11.1109 7.83138 11.084 7.76206 11.0342C6.74988 10.3197 2.95392 7.4213 5.13484 5.54427C5.50811 5.24365 5.98043 5.09375 6.45874 5.1241C6.93705 5.15445 7.38664 5.36285 7.71891 5.70824L8 5.98933L8.28047 5.70824C8.61275 5.36285 9.06234 5.15445 9.54064 5.1241C10.0189 5.09375 10.4913 5.24365 10.8645 5.54427C13.0467 7.41945 9.25012 10.3179 8.23794 11.0323V11.0342Z" fill="black"/>
<path d="M27.4871 3.61855H27.0211C26.7523 3.61855 26.6845 3.82259 26.6414 3.95142L26.4854 4.32991C25.7881 3.74962 24.9071 3.43629 24 3.44595C21.8382 3.44595 20.1442 5.31373 20.1442 7.69931C20.1442 10.0929 21.8758 11.9681 24.0863 11.9681C24.7649 11.9555 25.431 11.7831 26.0305 11.4651V11.7381C26.0305 13.4302 25.0011 13.7853 24.1381 13.7853C23.4699 13.7596 22.831 13.504 22.3295 13.0616C22.2768 13.0195 22.2156 12.9894 22.1502 12.9734C22.0847 12.9574 22.0165 12.956 21.9504 12.9691C21.8866 12.9856 21.8273 13.0159 21.7767 13.058C21.726 13.1001 21.6854 13.1529 21.6576 13.2126L21.2452 13.9702C21.1963 14.0612 21.1796 14.166 21.1979 14.2676C21.2161 14.3692 21.2682 14.4617 21.3457 14.5299C22.1377 15.1949 23.139 15.559 24.1732 15.5581C26.5082 15.5581 27.9587 14.0941 27.9587 11.7363V4.09012C27.9554 3.96608 27.9047 3.84803 27.817 3.76029C27.7292 3.67256 27.6112 3.62183 27.4871 3.61855ZM26.0478 6.32344V9.55044C25.5349 9.91801 24.9241 10.1243 24.2934 10.1428C23.6759 10.1061 23.097 9.83026 22.6794 9.37388C22.2618 8.9175 22.0383 8.31642 22.0564 7.69807C21.9957 7.2072 22.1055 6.71037 22.3674 6.29079C22.6293 5.87121 23.0274 5.55436 23.495 5.3933C23.9627 5.23224 24.4715 5.23675 24.9362 5.40608C25.4009 5.57541 25.7934 5.89928 26.0478 6.32344Z" fill="black"/>
<path d="M30.4934 0.0161492C30.3288 0.0165106 30.1659 0.0497544 30.0143 0.11393C29.8627 0.178105 29.7255 0.271918 29.6107 0.389862C29.4958 0.507805 29.4057 0.647503 29.3456 0.800754C29.2855 0.954005 29.2566 1.11772 29.2606 1.28229C29.2577 1.44574 29.2875 1.60811 29.3483 1.75988C29.409 1.91165 29.4994 2.04976 29.6143 2.1661C29.7291 2.28243 29.8661 2.37465 30.017 2.43735C30.168 2.50004 30.33 2.53194 30.4934 2.53117C30.827 2.53117 31.1468 2.39869 31.3826 2.16286C31.6185 1.92703 31.751 1.60717 31.751 1.27366C31.751 0.940149 31.6185 0.620295 31.3826 0.384466C31.1468 0.148637 30.827 0.0161492 30.4934 0.0161492Z" fill="black"/>
<path d="M30.0089 3.61855H30.9761C31.1015 3.61855 31.2218 3.66837 31.3104 3.75703C31.3991 3.8457 31.4489 3.96596 31.4489 4.09135V11.3036C31.4489 11.429 31.3991 11.5492 31.3104 11.6379C31.2218 11.7265 31.1015 11.7764 30.9761 11.7764H30.0089C29.8837 11.7764 29.7636 11.7266 29.6751 11.6381C29.5865 11.5495 29.5368 11.4294 29.5368 11.3042V4.09012C29.5368 4.02814 29.549 3.96677 29.5727 3.90952C29.5964 3.85226 29.6312 3.80025 29.6751 3.75645C29.7189 3.71266 29.771 3.67793 29.8283 3.65427C29.8856 3.63061 29.947 3.61847 30.0089 3.61855Z" fill="black"/>
<path d="M39.611 3.61855H38.8349C38.605 3.61855 38.3418 3.61855 38.2154 3.89656L36.0579 8.63134L33.9985 3.89348C33.965 3.80859 33.9057 3.73637 33.8289 3.68703C33.7521 3.6377 33.6618 3.61374 33.5707 3.61855H32.5178C32.4408 3.61249 32.3636 3.62699 32.2941 3.66056C32.2245 3.69414 32.1652 3.74559 32.1221 3.80964C32.0905 3.87093 32.0757 3.93947 32.0791 4.00833C32.0826 4.07718 32.1042 4.14389 32.1418 4.20169L35.5938 11.7086C35.6343 11.7868 35.6956 11.8523 35.771 11.8978C35.8464 11.9434 35.9329 11.9673 36.021 11.9668H36.1227C36.2091 11.9677 36.294 11.9435 36.367 11.8972C36.4401 11.851 36.4982 11.7846 36.5344 11.7061L39.9852 4.20539C40.024 4.1472 40.0464 4.07963 40.0501 4.00978C40.0538 3.93993 40.0386 3.87037 40.0062 3.80841C39.9629 3.74468 39.9036 3.69354 39.8342 3.66019C39.7648 3.62684 39.6878 3.61247 39.611 3.61855Z" fill="black"/>
<path d="M41.6526 0.0161492C41.488 0.0165106 41.3251 0.0497544 41.1735 0.11393C41.0219 0.178105 40.8847 0.271918 40.7699 0.389862C40.655 0.507805 40.5649 0.647503 40.5048 0.800754C40.4447 0.954005 40.4158 1.11772 40.4198 1.28229C40.4178 1.61134 40.5466 1.92772 40.7777 2.16189C41.0089 2.39607 41.3236 2.52889 41.6526 2.53117C41.9862 2.53117 42.306 2.39869 42.5418 2.16286C42.7777 1.92703 42.9101 1.60717 42.9101 1.27366C42.9101 0.940149 42.7777 0.620295 42.5418 0.384466C42.306 0.148637 41.9862 0.0161492 41.6526 0.0161492Z" fill="black"/>
<path d="M41.1687 3.61855H42.1359C42.2613 3.61855 42.3816 3.66837 42.4702 3.75703C42.5589 3.8457 42.6087 3.96596 42.6087 4.09135V11.3036C42.6087 11.4288 42.559 11.5489 42.4704 11.6374C42.3819 11.726 42.2618 11.7757 42.1365 11.7757H41.17C41.0446 11.7757 40.9243 11.7259 40.8357 11.6373C40.747 11.5486 40.6972 11.4283 40.6972 11.3029V4.09012C40.6972 3.96505 40.7469 3.84511 40.8353 3.75667C40.9237 3.66824 41.0437 3.61855 41.1687 3.61855Z" fill="black"/>
<path d="M48.2959 3.44595C47.3166 3.42984 46.3699 3.79704 45.6576 4.46922L45.4689 3.93293C45.4493 3.83884 45.3962 3.75508 45.3194 3.69725C45.2426 3.63941 45.1475 3.61145 45.0516 3.61855H44.6374C44.5132 3.62166 44.3949 3.67231 44.3069 3.76004C44.219 3.84778 44.168 3.96593 44.1646 4.09012V11.3023C44.1649 11.4276 44.2148 11.5476 44.3035 11.6361C44.3921 11.7246 44.5121 11.7743 44.6374 11.7745H45.5176C45.8931 11.7745 46.0761 11.6198 46.0761 11.3023V6.35488C46.2917 6.01792 46.5897 5.74151 46.9419 5.55178C47.294 5.36205 47.6888 5.26527 48.0888 5.27058C49.0418 5.27058 49.5682 5.96714 49.5682 7.23205V11.3054C49.5699 11.4301 49.6203 11.5492 49.7084 11.6374C49.7966 11.7255 49.9157 11.7758 50.0404 11.7776H51.0069C51.1312 11.7745 51.2495 11.7237 51.3374 11.6358C51.4252 11.5479 51.476 11.4297 51.4791 11.3054V7.29863C51.4779 4.70655 50.4374 3.44595 48.2959 3.44595Z" fill="black"/>
<path d="M59.8502 3.61855H59.3842C59.1154 3.61855 59.0476 3.82259 59.0045 3.95142L58.8485 4.32991C58.1512 3.74962 57.2702 3.43629 56.3631 3.44595C54.2013 3.44595 52.5073 5.31373 52.5073 7.69931C52.5073 10.0929 54.2389 11.9681 56.4494 11.9681C57.128 11.9555 57.794 11.7831 58.3936 11.4651V11.7381C58.3936 13.4302 57.3642 13.7853 56.5012 13.7853C55.8329 13.7596 55.1941 13.504 54.6926 13.0616C54.6399 13.0195 54.5787 12.9894 54.5132 12.9734C54.4477 12.9574 54.3796 12.956 54.3135 12.9691C54.2497 12.9856 54.1904 13.0159 54.1397 13.058C54.0891 13.1001 54.0484 13.1529 54.0206 13.2126L53.6083 13.9702C53.5594 14.0612 53.5427 14.166 53.5609 14.2676C53.5792 14.3692 53.6313 14.4617 53.7087 14.5299C54.5008 15.1949 55.5021 15.559 56.5363 15.5581C58.8713 15.5581 60.3218 14.0941 60.3218 11.7363V4.09012C60.3185 3.96608 60.2678 3.84803 60.18 3.76029C60.0923 3.67256 59.9742 3.62183 59.8502 3.61855ZM58.4109 6.32344V9.55044C57.898 9.91801 57.2872 10.1243 56.6565 10.1428C56.039 10.1061 55.46 9.83026 55.0424 9.37388C54.6248 8.9175 54.4014 8.31642 54.4195 7.69807C54.3588 7.2072 54.4685 6.71037 54.7304 6.29079C54.9923 5.87121 55.3905 5.55436 55.8581 5.3933C56.3258 5.23224 56.8346 5.23675 57.2993 5.40608C57.764 5.57541 58.1564 5.89928 58.4109 6.32344Z" fill="black"/>
</svg>
