<svg width="67" height="16" viewBox="0 0 67 16" fill="none" xmlns="http://www.w3.org/2000/svg">
<path d="M27.4769 3.62603H27.0154C26.7471 3.62603 26.6794 3.82972 26.6363 3.95834L26.48 4.33618C25.784 3.75701 24.9048 3.44422 23.9994 3.45372C21.8412 3.45372 20.1502 5.31834 20.1502 7.69988C20.1502 10.0894 21.8788 11.9614 24.0886 11.9614C24.7661 11.9488 25.431 11.7768 26.0295 11.4593V11.7319C26.0295 13.4211 25.0018 13.7762 24.1403 13.7762C23.4731 13.7504 22.8353 13.4949 22.3348 13.0531C22.2822 13.0111 22.2211 12.981 22.1558 12.9651C22.0904 12.9491 22.0223 12.9477 21.9563 12.9608C21.8927 12.9772 21.8334 13.0075 21.7829 13.0495C21.7323 13.0916 21.6917 13.1443 21.664 13.2039L21.2517 13.9602C21.2032 14.0512 21.1869 14.1559 21.2052 14.2574C21.2235 14.3589 21.2754 14.4512 21.3526 14.5196C22.1432 15.1832 23.1426 15.5466 24.1748 15.546C26.5065 15.546 27.9545 14.0845 27.9545 11.7306V4.09741C27.9513 3.97233 27.8998 3.85335 27.8107 3.76545C27.7217 3.67755 27.602 3.62758 27.4769 3.62603ZM26.04 6.32634V9.54788C25.5283 9.91498 24.9187 10.1209 24.2892 10.1393C23.6728 10.1026 23.0948 9.82723 22.6779 9.37162C22.261 8.91601 22.038 8.31594 22.056 7.69865C21.9957 7.20881 22.1055 6.71312 22.3669 6.29453C22.6284 5.87593 23.0256 5.55983 23.4923 5.39909C23.9589 5.23836 24.4666 5.24276 24.9303 5.41155C25.3941 5.58034 25.7858 5.90328 26.04 6.32634Z" fill="black"/>
<path d="M34.8991 3.90788C34.6886 3.57311 33.976 3.45372 33.376 3.45372C32.9266 3.45152 32.4819 3.54587 32.0721 3.73039C31.6623 3.91491 31.2969 4.1853 31.0006 4.52326L30.8308 3.97372C30.8061 3.87624 30.7502 3.78951 30.6717 3.72673C30.5931 3.66396 30.4962 3.62859 30.3957 3.62603H29.9822C29.8581 3.62914 29.7399 3.67978 29.6521 3.7675C29.5642 3.85522 29.5134 3.97332 29.5102 4.09741V11.2974C29.5119 11.422 29.5622 11.541 29.6504 11.629C29.7385 11.7171 29.8576 11.7672 29.9822 11.7688H30.7748C31.0308 11.7688 31.4185 11.7688 31.4185 11.2974V6.27711C31.612 5.97781 31.8758 5.73035 32.1868 5.55628C32.4979 5.38221 32.8467 5.28679 33.2031 5.27834C33.4376 5.28417 33.669 5.33341 33.8855 5.42357C33.9375 5.45036 33.9942 5.46645 34.0525 5.47089C34.1107 5.47533 34.1692 5.46802 34.2246 5.44941C34.2846 5.42701 34.3393 5.3925 34.3854 5.34803C34.4314 5.30357 34.4678 5.2501 34.4923 5.19095L34.9058 4.32941C34.9426 4.26498 34.9613 4.19187 34.9601 4.11772C34.9589 4.04357 34.9378 3.9711 34.8991 3.90788Z" fill="black"/>
<path d="M38.8985 3.45372C38.0513 3.43119 37.2168 3.66212 36.5018 4.11694C35.7867 4.57175 35.2238 5.22973 34.8851 6.00653C34.5464 6.78333 34.4474 7.64357 34.6008 8.477C34.7542 9.31043 35.1529 10.0791 35.7459 10.6844C36.3389 11.2898 37.0992 11.7043 37.9293 11.8748C38.7594 12.0452 39.6215 11.964 40.4051 11.6414C41.1887 11.3187 41.8581 10.7695 42.3276 10.064C42.797 9.35845 43.0451 8.52882 43.04 7.68141C43.0346 6.57664 42.5992 5.51739 41.8261 4.72819C41.053 3.93898 40.0029 3.48186 38.8985 3.45372ZM41.1668 7.68141C41.1898 7.9945 41.148 8.30897 41.044 8.60518C40.94 8.90139 40.7761 9.17297 40.5624 9.40296C40.3487 9.63294 40.0899 9.81638 39.8021 9.94182C39.5143 10.0673 39.2038 10.132 38.8898 10.132C38.5759 10.132 38.2654 10.0673 37.9776 9.94182C37.6898 9.81638 37.431 9.63294 37.2173 9.40296C37.0036 9.17297 36.8396 8.90139 36.7357 8.60518C36.6317 8.30897 36.5899 7.9945 36.6129 7.68141C36.5969 7.37245 36.6438 7.06344 36.751 6.77321C36.8582 6.48298 37.0233 6.2176 37.2363 5.99322C37.4493 5.76884 37.7058 5.59017 37.99 5.46807C38.2743 5.34597 38.5805 5.283 38.8898 5.283C39.1992 5.283 39.5054 5.34597 39.7897 5.46807C40.0739 5.59017 40.3304 5.76884 40.5434 5.99322C40.7564 6.2176 40.9215 6.48298 41.0287 6.77321C41.1359 7.06344 41.1828 7.37245 41.1668 7.68141Z" fill="black"/>
<path d="M50.5846 3.62603H49.7046C49.4308 3.62603 49.1637 3.66234 49.1637 4.09741V8.9048C49.0306 9.26704 48.7895 9.57968 48.473 9.80045C48.1564 10.0212 47.7798 10.1395 47.3938 10.1393C46.3982 10.1393 45.9348 9.56634 45.9348 8.33618V4.09741C45.9317 3.97338 45.881 3.85528 45.7933 3.76755C45.7055 3.67981 45.5874 3.62915 45.4634 3.62603H44.5009C44.3778 3.63199 44.2612 3.68355 44.174 3.77068C44.0868 3.8578 44.035 3.97427 44.0289 4.09741V8.21557C44.0289 9.95895 44.376 11.9602 47.0849 11.9602C47.546 11.9773 48.0055 11.8964 48.4331 11.723C48.8607 11.5496 49.2466 11.2875 49.5655 10.954L49.7212 11.3848C49.7902 11.5774 49.8979 11.7737 50.1692 11.7737H50.5846C50.711 11.7729 50.8322 11.7235 50.9232 11.6357C51.0141 11.548 51.0679 11.4286 51.0732 11.3023V4.09741C51.0661 3.97175 51.0119 3.85339 50.9213 3.766C50.8307 3.6786 50.7105 3.62862 50.5846 3.62603Z" fill="black"/>
<path d="M56.5858 3.45372C55.6869 3.4475 54.8148 3.75993 54.1243 4.33557L53.9692 3.94541C53.9464 3.85004 53.8907 3.76576 53.812 3.70735C53.7332 3.64895 53.6364 3.62016 53.5385 3.62603H53.1077C52.9836 3.62914 52.8654 3.67978 52.7776 3.7675C52.6898 3.85522 52.639 3.97332 52.6357 4.09741V14.9571C52.6374 15.0817 52.6877 15.2008 52.7759 15.2889C52.864 15.3771 52.9831 15.4274 53.1077 15.4291H54.0726C54.1377 15.4351 54.2033 15.4273 54.2652 15.4062C54.327 15.385 54.3837 15.3511 54.4315 15.3065C54.4793 15.2619 54.5172 15.2078 54.5426 15.1476C54.5681 15.0874 54.5805 15.0225 54.5791 14.9571V11.4746C55.181 11.7807 55.8443 11.9466 56.5194 11.9602C58.7157 11.9602 60.4369 10.0882 60.4369 7.69865C60.4345 5.31834 58.744 3.45372 56.5858 3.45372ZM58.5268 7.69988C58.5431 8.00745 58.4981 8.31521 58.3942 8.60518C58.2903 8.89515 58.1297 9.16151 57.9218 9.38872C57.7138 9.61593 57.4626 9.79943 57.183 9.92851C56.9033 10.0576 56.6007 10.1296 56.2929 10.1405C55.6696 10.1298 55.0621 9.94201 54.5415 9.59895V6.31711C54.727 5.99916 54.9929 5.73555 55.3123 5.5527C55.6318 5.36985 55.9937 5.27417 56.3618 5.27526C57.616 5.27526 58.5268 6.29434 58.5268 7.69865V7.69988Z" fill="black"/>
<path d="M64.1846 6.82111C63.3378 6.45188 62.8794 6.17064 62.8794 5.73434C62.8794 5.42664 63.1649 5.11895 63.8025 5.11895C64.38 5.12745 64.9489 5.25987 65.4708 5.50726C65.5254 5.53712 65.5854 5.55569 65.6474 5.56187C65.7093 5.56805 65.7718 5.5617 65.8312 5.54321C65.8907 5.52473 65.9458 5.49447 65.9933 5.45425C66.0408 5.41403 66.0797 5.36467 66.1077 5.30911L66.3828 4.75526C66.4382 4.63288 66.4481 4.49474 66.4108 4.36569C66.3734 4.23665 66.2913 4.12515 66.1791 4.05126C65.4565 3.63799 64.6347 3.43009 63.8025 3.45003C61.9169 3.45003 61.0732 4.58665 61.0732 5.71341C61.0732 7.12326 62.1348 7.79649 63.2818 8.31341C64.4006 8.82049 64.9335 9.14295 64.9335 9.60572C64.9335 10.0279 64.5643 10.2894 63.9748 10.2894C63.2992 10.2867 62.638 10.0937 62.0671 9.73249L62.0375 9.71649C61.9784 9.67877 61.9121 9.65381 61.8428 9.64322C61.7735 9.63262 61.7027 9.63662 61.6351 9.65495C61.5827 9.66992 61.534 9.69567 61.4922 9.73053C61.4503 9.76539 61.4162 9.80861 61.392 9.85741L61.0308 10.5959C60.9885 10.6892 60.9822 10.7949 61.013 10.8926C61.0437 10.9904 61.1094 11.0734 61.1975 11.1257C61.9846 11.6635 62.9157 11.9511 63.8689 11.951C65.7957 11.951 66.8037 10.735 66.8037 9.53311C66.8092 8.04449 65.7705 7.49249 64.1846 6.82111Z" fill="black"/>
<path d="M9.05969 6.1448H6.94031C6.78765 6.50524 6.50075 6.79214 6.14031 6.9448V9.06049C6.50075 9.21315 6.78765 9.50005 6.94031 9.86049H9.056C9.20882 9.50016 9.49567 9.21331 9.856 9.06049V6.94049C9.49764 6.78823 9.21223 6.50304 9.05969 6.1448ZM8 0.000183105C1.6 0.000183105 0 1.60018 0 8.00018C0 14.4002 1.6 16.0002 8 16.0002C14.4 16.0002 16 14.4002 16 8.00018C16 1.60018 14.4 0.000183105 8 0.000183105ZM11.9385 10.4402C11.9385 10.7864 11.8188 11.122 11.5997 11.3901C11.3805 11.6582 11.0754 11.8423 10.7361 11.9112C10.3968 11.9801 10.0441 11.9295 9.73777 11.7681C9.43146 11.6066 9.19038 11.3443 9.05538 11.0254H6.94031C6.84404 11.2513 6.69383 11.4501 6.50284 11.6044C6.31185 11.7587 6.08593 11.8638 5.84487 11.9105C5.60381 11.9572 5.35499 11.944 5.12021 11.8721C4.88543 11.8002 4.67187 11.6719 4.49825 11.4982C4.32463 11.3246 4.19626 11.1111 4.12439 10.8763C4.05251 10.6415 4.03933 10.3927 4.08601 10.1516C4.13268 9.91056 4.23778 9.68464 4.39209 9.49365C4.5464 9.30267 4.7452 9.15245 4.97108 9.05618V6.94234C4.7452 6.84607 4.5464 6.69585 4.39209 6.50487C4.23778 6.31388 4.13268 6.08796 4.08601 5.8469C4.03933 5.60584 4.05251 5.35702 4.12439 5.12224C4.19626 4.88746 4.32463 4.6739 4.49825 4.50028C4.67187 4.32666 4.88543 4.19829 5.12021 4.12642C5.35499 4.05454 5.60381 4.04136 5.84487 4.08804C6.08593 4.13471 6.31185 4.23981 6.50284 4.39412C6.69383 4.54843 6.84404 4.74723 6.94031 4.97311H9.05969C9.15567 4.74663 9.30583 4.54721 9.49698 4.39239C9.68812 4.23758 9.91438 4.13211 10.1559 4.08527C10.3973 4.03844 10.6466 4.05166 10.8818 4.12379C11.1169 4.19592 11.3308 4.32474 11.5045 4.49892C11.6781 4.67309 11.8064 4.88729 11.8778 5.12265C11.9493 5.35801 11.9618 5.60734 11.9143 5.84868C11.8668 6.09002 11.7607 6.31599 11.6053 6.50669C11.45 6.6974 11.2501 6.847 11.0234 6.94234V9.0568C11.2949 9.17208 11.5264 9.36473 11.6892 9.61074C11.8519 9.85675 11.9386 10.1452 11.9385 10.4402Z" fill="black"/>
</svg>
