<svg width="98" height="16" viewBox="0 0 98 16" fill="none" xmlns="http://www.w3.org/2000/svg">
<path d="M7.77533 0.451379C1.5577 0.451379 0 2.00489 0 8.22491C0 14.4449 1.5577 16.0002 7.77533 16.0002C13.993 16.0002 15.5501 14.4425 15.5501 8.22491C15.5501 2.00728 13.9954 0.451379 7.77533 0.451379ZM11.2322 9.85271L11.2197 9.84912C11.2472 10.4255 10.5984 10.9647 9.73025 11.0665C8.83756 11.1714 8.05632 10.7736 7.98682 10.178C7.91732 9.58251 8.58594 9.01515 9.47742 8.9103C9.74664 8.87851 10.0194 8.89535 10.2826 8.96003V6.08906L6.34704 7.37057V10.9359H6.32966C6.22566 11.2481 6.0266 11.5199 5.76037 11.7133C5.49415 11.9067 5.17409 12.0119 4.84505 12.0143C3.95177 12.1192 3.17112 11.7214 3.10103 11.1258C3.03093 10.5303 3.70014 9.96235 4.59223 9.8581C4.86121 9.82613 5.13375 9.84277 5.39684 9.90723V6.59412C5.39684 6.41438 5.44417 6.17474 5.61731 6.11482C6.43451 5.85061 10.4246 4.54035 10.9393 4.39356C11.0065 4.385 11.0745 4.40271 11.1291 4.44299C11.1837 4.48327 11.2206 4.54303 11.2322 4.60984V9.85271Z" fill="black"/>
<path d="M28.4892 3.825C27.9975 3.83566 27.513 3.94566 27.065 4.14839C26.6169 4.35111 26.2144 4.64238 25.8818 5.00466C25.6193 4.622 25.2631 4.31293 24.8473 4.10685C24.4315 3.90078 23.9698 3.80458 23.5063 3.8274C23.0565 3.82504 22.6105 3.91152 22.1942 4.08188C21.7778 4.25224 21.3991 4.50312 21.0799 4.82013L20.9092 4.28932C20.8843 4.19907 20.8289 4.12024 20.7524 4.06627C20.676 4.0123 20.5831 3.98653 20.4898 3.99335H20.1033C19.9826 3.99624 19.8677 4.04543 19.7822 4.13075C19.6968 4.21607 19.6475 4.33098 19.6444 4.45168V11.4613C19.6461 11.5825 19.695 11.6983 19.7807 11.784C19.8664 11.8697 19.9822 11.9186 20.1033 11.9203H21.0434C21.164 11.9171 21.2788 11.8677 21.3641 11.7823C21.4494 11.6969 21.4987 11.582 21.5017 11.4613V6.64744C21.6619 6.32574 21.9104 6.05628 22.218 5.87052C22.5257 5.68475 22.8798 5.59037 23.2391 5.59839C24.2055 5.59839 24.677 6.22207 24.677 7.50477V11.4637C24.6764 11.5242 24.6879 11.5842 24.7108 11.6402C24.7338 11.6961 24.7676 11.747 24.8104 11.7897C24.8532 11.8324 24.9041 11.8662 24.9601 11.889C25.0161 11.9119 25.0761 11.9233 25.1365 11.9227H26.0951C26.214 11.9188 26.3268 11.8686 26.4093 11.7829C26.4919 11.6972 26.5378 11.5827 26.5373 11.4637V7.45445C26.539 7.11701 26.5189 6.77981 26.4773 6.44494C26.4905 6.43176 26.5043 6.41618 26.5211 6.39941C26.7326 6.14853 26.9963 5.94687 27.2938 5.80851C27.5913 5.67016 27.9154 5.59844 28.2435 5.59839C29.1961 5.59839 29.6814 6.24004 29.6814 7.50477V11.4637C29.6786 11.5248 29.6886 11.5858 29.7107 11.6428C29.7328 11.6998 29.7665 11.7515 29.8098 11.7947C29.853 11.8379 29.9048 11.8716 29.9619 11.8936C30.0189 11.9157 30.0799 11.9256 30.1409 11.9227H31.0798C31.1402 11.9233 31.2002 11.9119 31.2562 11.889C31.3122 11.8662 31.3631 11.8324 31.4059 11.7897C31.4487 11.747 31.4825 11.6961 31.5054 11.6402C31.5283 11.5842 31.5398 11.5242 31.5393 11.4637V7.56948C31.5321 5.96325 31.214 3.825 28.4892 3.825Z" fill="black"/>
<path d="M39.2805 3.99335H38.4249C38.1589 3.99335 37.8995 4.0287 37.8995 4.45168V9.13197C37.7705 9.4851 37.536 9.79005 37.2279 10.0055C36.9199 10.221 36.553 10.3367 36.177 10.3368C35.2089 10.3368 34.7577 9.77842 34.7577 8.58079V4.45168C34.7547 4.33098 34.7053 4.21607 34.6199 4.13075C34.5345 4.04543 34.4195 3.99624 34.2988 3.99335H33.3588C33.2391 3.99916 33.1258 4.04929 33.0409 4.134C32.9561 4.21871 32.9058 4.33195 32.8999 4.45168V8.46096C32.8999 10.1589 33.2378 12.1066 35.8757 12.1066C36.3245 12.1232 36.7717 12.0446 37.1878 11.8759C37.604 11.7071 37.9797 11.4521 38.2901 11.1276L38.4417 11.547C38.5094 11.7339 38.6148 11.9251 38.8779 11.9251H39.2805C39.4041 11.9252 39.523 11.8775 39.6124 11.7919C39.7017 11.7064 39.7545 11.5897 39.7598 11.4661V4.45647C39.754 4.33272 39.7011 4.21586 39.612 4.12978C39.5229 4.0437 39.4043 3.9949 39.2805 3.99335Z" fill="black"/>
<path d="M43.9278 7.10157C43.1034 6.7421 42.6571 6.4683 42.6571 6.04353C42.6571 5.74397 42.9351 5.44441 43.5558 5.44441C44.118 5.45263 44.6719 5.58155 45.18 5.82246C45.2331 5.85144 45.2916 5.86946 45.3519 5.87542C45.4121 5.88139 45.473 5.8752 45.5308 5.85721C45.5887 5.83922 45.6423 5.80979 45.6885 5.77069C45.7348 5.73158 45.7727 5.68358 45.8 5.62954L46.0679 5.09034C46.1219 4.97121 46.1316 4.83668 46.0953 4.71102C46.0589 4.58535 45.9789 4.4768 45.8695 4.40495C45.1655 4.0044 44.3655 3.80386 43.5558 3.825C41.7201 3.825 40.8987 4.93157 40.8987 6.02855C40.8987 7.40113 41.9321 8.05656 43.0489 8.55982C44.1387 9.05349 44.6569 9.36743 44.6569 9.81796C44.6569 10.2284 44.2975 10.483 43.7235 10.483C43.0661 10.4812 42.4224 10.2944 41.8662 9.94378L41.8381 9.9282C41.7804 9.89146 41.7158 9.86716 41.6482 9.85684C41.5806 9.84653 41.5117 9.85043 41.4457 9.86829C41.3947 9.88297 41.3474 9.90806 41.3066 9.94199C41.2659 9.97592 41.2327 10.0179 41.209 10.0654L40.8573 10.7843C40.8162 10.8752 40.8101 10.9781 40.84 11.0733C40.87 11.1684 40.9339 11.2492 41.0197 11.3002C41.786 11.8237 42.6924 12.1037 43.6205 12.1036C45.4963 12.1036 46.4782 10.9197 46.4782 9.74966C46.4818 8.29441 45.4729 7.757 43.9278 7.10157Z" fill="black"/>
<path d="M48.3259 0.498709C48.1659 0.49906 48.0076 0.53137 47.8603 0.593743C47.7129 0.656116 47.5795 0.747294 47.4679 0.861926C47.3563 0.976557 47.2687 1.11233 47.2103 1.26128C47.1519 1.41023 47.1238 1.56934 47.1277 1.72929C47.1249 1.88815 47.1539 2.04596 47.2129 2.19347C47.2719 2.34098 47.3598 2.47521 47.4714 2.58828C47.5831 2.70135 47.7161 2.79098 47.8629 2.85191C48.0096 2.91284 48.167 2.94385 48.3259 2.9431C48.4864 2.9431 48.6454 2.91149 48.7936 2.85007C48.9419 2.78865 49.0767 2.69862 49.1901 2.58513C49.3036 2.47164 49.3937 2.3369 49.4551 2.18862C49.5165 2.04034 49.5481 1.88141 49.5481 1.72091C49.5481 1.5604 49.5165 1.40148 49.4551 1.25319C49.3937 1.10491 49.3036 0.970174 49.1901 0.856682C49.0767 0.743191 48.9419 0.653164 48.7936 0.591743C48.6454 0.530322 48.4864 0.498709 48.3259 0.498709Z" fill="black"/>
<path d="M47.855 3.99335H48.795C48.9169 3.99335 49.0338 4.04177 49.12 4.12794C49.2061 4.21412 49.2546 4.331 49.2546 4.45288V11.4625C49.2546 11.5844 49.2061 11.7013 49.12 11.7875C49.0338 11.8736 48.9169 11.9221 48.795 11.9221H47.8556C47.7339 11.9221 47.6172 11.8737 47.5311 11.7876C47.445 11.7016 47.3967 11.5848 47.3967 11.4631V4.45347C47.3965 4.39314 47.4081 4.33334 47.4311 4.27753C47.454 4.22172 47.4877 4.17098 47.5303 4.12823C47.5729 4.08548 47.6235 4.05156 47.6792 4.02841C47.7349 4.00527 47.7947 3.99335 47.855 3.99335Z" fill="black"/>
<path d="M56.7291 9.36383C56.6854 9.32348 56.6339 9.29235 56.5778 9.27232C56.5218 9.25228 56.4622 9.24374 56.4028 9.2472C56.3434 9.25067 56.2852 9.26607 56.2319 9.29249C56.1785 9.31891 56.1311 9.35581 56.0923 9.40098C56.0294 9.46089 55.9676 9.5208 55.9041 9.58071C55.7134 9.81594 55.4728 10.0058 55.1996 10.1366C54.9265 10.2673 54.6277 10.3357 54.3249 10.3368C54.0229 10.3286 53.7256 10.2603 53.4503 10.1358C53.175 10.0114 52.9273 9.83333 52.7216 9.61204C52.5159 9.39076 52.3564 9.13069 52.2524 8.84705C52.1485 8.56341 52.102 8.26189 52.1159 7.9601C52.1062 7.65603 52.1572 7.35308 52.2661 7.06898C52.3749 6.78489 52.5393 6.52538 52.7497 6.30565C52.9602 6.08592 53.2123 5.9104 53.4914 5.78936C53.7705 5.66833 54.071 5.60421 54.3752 5.60078C54.963 5.64088 55.512 5.90869 55.9053 6.34728C56.0342 6.47609 56.2522 6.69177 56.5326 6.43236L57.1359 5.87997C57.1865 5.84137 57.2288 5.79291 57.2602 5.73753C57.2916 5.68215 57.3114 5.62098 57.3186 5.55772C57.3257 5.49446 57.3199 5.43041 57.3016 5.36945C57.2833 5.30848 57.2528 5.25185 57.212 5.20297C56.8764 4.7588 56.4389 4.40178 55.9364 4.16198C55.434 3.92217 54.8813 3.8066 54.3249 3.825C53.2358 3.83733 52.196 4.2811 51.4336 5.05898C50.6712 5.83686 50.2485 6.88534 50.2581 7.97448C50.2466 8.51339 50.3428 9.04917 50.5412 9.55037C50.7396 10.0516 51.0361 10.5081 51.4133 10.8932C51.7905 11.2782 52.2408 11.5841 52.7378 11.7928C53.2348 12.0014 53.7685 12.1087 54.3075 12.1084C54.9211 12.1184 55.5271 11.972 56.0685 11.683C56.6099 11.3941 57.0688 10.972 57.4019 10.4566C57.5032 10.3044 57.5601 10.0648 57.2486 9.78381L56.7291 9.36383Z" fill="black"/>
<path d="M64.6099 7.10157C63.7855 6.7421 63.3386 6.4683 63.3386 6.04353C63.3386 5.74397 63.6166 5.44441 64.2373 5.44441C64.7995 5.45268 65.3534 5.5816 65.8615 5.82246C65.9147 5.85145 65.9732 5.86948 66.0335 5.87545C66.0938 5.88143 66.1547 5.87524 66.2126 5.85725C66.2705 5.83926 66.3242 5.80984 66.3705 5.77072C66.4168 5.73161 66.4547 5.6836 66.4821 5.62954L66.7505 5.09034C66.8044 4.97112 66.814 4.83659 66.7775 4.71095C66.7411 4.5853 66.661 4.4768 66.5516 4.40495C65.848 4.0023 65.0477 3.79987 64.2373 3.81961C62.4028 3.81961 61.5814 4.92618 61.5814 6.02316C61.5814 7.39573 62.6142 8.05117 63.7316 8.55443C64.8202 9.0475 65.3384 9.36203 65.3384 9.81257C65.3384 10.223 64.979 10.4776 64.4056 10.4776C63.7478 10.475 63.104 10.2869 62.5483 9.93479L62.5208 9.91981C62.4632 9.88278 62.3984 9.85831 62.3307 9.84799C62.2629 9.83767 62.1938 9.84173 62.1278 9.8599C62.0769 9.87469 62.0297 9.89983 61.9891 9.93375C61.9485 9.96768 61.9153 10.0096 61.8917 10.057L61.54 10.7759C61.4989 10.8668 61.4927 10.9697 61.5227 11.0649C61.5527 11.16 61.6166 11.2408 61.7024 11.2918C62.4687 11.8153 63.3751 12.0953 64.3032 12.0952C66.1796 12.0952 67.1609 10.9113 67.1609 9.74127C67.1609 8.29441 66.152 7.757 64.6099 7.10157Z" fill="black"/>
<path d="M72.825 10.1882C72.805 10.1297 72.7725 10.0761 72.7299 10.0313C72.6873 9.98639 72.6356 9.95124 72.5781 9.9282C72.5222 9.91083 72.4631 9.90623 72.4051 9.91473C72.3472 9.92323 72.2918 9.94462 72.2432 9.97733C71.8802 10.1956 71.4682 10.3192 71.045 10.3368C70.7652 10.3368 70.5142 10.2829 70.5142 9.63763V5.59839H72.4709C72.5917 5.59535 72.7066 5.54603 72.7921 5.46061C72.8775 5.37519 72.9268 5.26022 72.9298 5.13946V4.45168C72.9305 4.39126 72.919 4.33132 72.8962 4.27539C72.8734 4.21945 72.8396 4.16864 72.7968 4.12595C72.7541 4.08325 72.7032 4.04953 72.6472 4.02676C72.5913 4.00399 72.5313 3.99263 72.4709 3.99335H70.516V1.91861C70.5177 1.85928 70.5076 1.80019 70.4862 1.74482C70.4649 1.68945 70.4326 1.6389 70.3914 1.59615C70.3503 1.55341 70.3009 1.51932 70.2464 1.49588C70.1919 1.47245 70.1332 1.46014 70.0738 1.45969H69.1153C68.994 1.46124 68.8781 1.51007 68.7923 1.59578C68.7064 1.6815 68.6574 1.79733 68.6557 1.91861V3.99335H67.8565C67.7958 3.99126 67.7352 4.00169 67.6787 4.02398C67.6221 4.04628 67.5708 4.07996 67.5278 4.12295C67.4848 4.16593 67.4511 4.21729 67.4288 4.27384C67.4065 4.33039 67.3961 4.39093 67.3982 4.45168V5.13946C67.3983 5.26103 67.4467 5.37757 67.5326 5.46358C67.6185 5.5496 67.735 5.59807 67.8565 5.59839H68.6587V9.70233C68.6587 10.8221 68.8924 12.1066 70.7119 12.1066C71.4787 12.0978 72.232 11.9031 72.9071 11.5392C73.0096 11.4929 73.09 11.4083 73.1311 11.3036C73.1722 11.1988 73.1707 11.0821 73.1269 10.9785L72.825 10.1882Z" fill="black"/>
<path d="M77.0691 3.825C76.1524 3.82458 75.2418 3.97372 74.3731 4.26655C74.3155 4.28171 74.2616 4.30841 74.2146 4.34503C74.1677 4.38165 74.1287 4.42743 74.0999 4.47958C74.0712 4.53174 74.0533 4.58919 74.0475 4.64845C74.0416 4.70771 74.0478 4.76755 74.0658 4.82433L74.2161 5.46179C74.2235 5.52471 74.244 5.58537 74.2765 5.63978C74.309 5.69418 74.3526 5.74109 74.4045 5.77742C74.4564 5.81376 74.5154 5.83869 74.5776 5.85058C74.6398 5.86248 74.7039 5.86106 74.7655 5.84642C75.4581 5.62691 76.1776 5.50393 76.9038 5.48096C77.0531 5.46742 77.2037 5.48456 77.3462 5.53134C77.4887 5.57811 77.6201 5.65353 77.7323 5.75296C78.0045 6.12717 78.1211 6.59229 78.0577 7.05064C77.5774 6.92111 77.083 6.85188 76.5856 6.84455C74.6457 6.84455 73.3917 7.86305 73.3917 9.43393C73.3659 9.78442 73.4145 10.1364 73.5344 10.4668C73.6542 10.7972 73.8426 11.0985 74.0872 11.3509C74.3317 11.6033 74.6269 11.8011 74.9533 11.9313C75.2797 12.0616 75.63 12.1213 75.9811 12.1066C76.8487 12.1145 77.6866 11.7914 78.3243 11.2031L78.4651 11.5991C78.546 11.7932 78.6448 11.9227 78.8665 11.9227H79.4201C79.5409 11.9198 79.6561 11.8705 79.7416 11.7851C79.8271 11.6997 79.8765 11.5846 79.8796 11.4637V7.33702C79.8772 5.41566 79.6657 3.825 77.0691 3.825ZM76.331 10.5519C76.1799 10.563 76.0282 10.5411 75.8865 10.4878C75.7447 10.4344 75.6162 10.3509 75.5099 10.2429C75.4036 10.135 75.3221 10.0052 75.2709 9.86264C75.2198 9.72005 75.2002 9.56804 75.2137 9.41715C75.2137 8.7084 75.8182 8.2321 76.7174 8.2321C77.1671 8.23081 77.6134 8.30952 78.0355 8.46456V9.67777C77.8297 9.93612 77.5713 10.1477 77.2774 10.2984C76.9835 10.4491 76.6609 10.5355 76.331 10.5519Z" fill="black"/>
<path d="M85.3555 3.825C84.4038 3.80953 83.4837 4.1664 82.7913 4.81954L82.6086 4.2983C82.5895 4.20679 82.5377 4.12537 82.4629 4.06924C82.3882 4.01312 82.2956 3.98614 82.2024 3.99335H81.7997C81.679 3.99623 81.5639 4.04541 81.4784 4.13071C81.3929 4.21601 81.3434 4.33092 81.3402 4.45168V11.4613C81.3419 11.5826 81.3909 11.6985 81.4767 11.7842C81.5626 11.8699 81.6785 11.9187 81.7997 11.9203H82.6553C83.0201 11.9203 83.1981 11.7699 83.1981 11.4613V6.65223C83.4077 6.32465 83.6974 6.05595 84.0398 5.87155C84.3822 5.68714 84.7659 5.59312 85.1548 5.59839C86.081 5.59839 86.5927 6.27599 86.5927 7.50478V11.4637C86.5928 11.5854 86.6412 11.702 86.7273 11.7881C86.8133 11.8741 86.9299 11.9225 87.0516 11.9227H87.991C88.1118 11.9196 88.2269 11.8703 88.3124 11.7849C88.3979 11.6995 88.4473 11.5845 88.4505 11.4637V7.56948C88.4493 5.05079 87.4368 3.825 85.3555 3.825Z" fill="black"/>
<path d="M96.5518 0.000244141H95.5932C95.4734 0.00619024 95.3601 0.0564497 95.2753 0.14126C95.1905 0.22607 95.1402 0.339375 95.1343 0.459167V4.19046C94.5418 3.95945 93.9129 3.8357 93.277 3.825C91.0926 3.825 89.4427 5.60198 89.4427 7.9589C89.4427 10.2853 91.0375 12.1078 93.0727 12.1078C94.0037 12.0893 94.8955 11.7296 95.5788 11.0971L95.7034 11.5207C95.7168 11.6291 95.7683 11.7292 95.8488 11.8031C95.9292 11.877 96.0334 11.9198 96.1426 11.9239H96.5452C96.6665 11.9223 96.7824 11.8735 96.8682 11.7878C96.954 11.702 97.003 11.5862 97.0047 11.4649V0.459167C97.0016 0.339457 96.9531 0.225413 96.869 0.140182C96.7848 0.0549518 96.6714 0.00492087 96.5518 0.000244141ZM93.3166 10.3344C92.1908 10.3344 91.3095 9.29014 91.3095 7.95771C91.2846 7.35934 91.4974 6.77541 91.9015 6.33339C92.3056 5.89137 92.8681 5.62714 93.4663 5.59839C94.0536 5.60708 94.631 5.75056 95.1541 6.01777V9.26797C94.9675 9.59139 94.6995 9.86028 94.3767 10.0478C94.0539 10.2353 93.6875 10.335 93.3142 10.3368L93.3166 10.3344Z" fill="black"/>
</svg>
