<svg width="66" height="16" viewBox="0 0 66 16" fill="none" xmlns="http://www.w3.org/2000/svg">
<path d="M7.95306 0.000305176C1.59331 0.000305176 0 1.59116 0 7.95337C0 14.3156 1.59331 15.9046 7.95306 15.9046C14.3128 15.9046 15.9055 14.3113 15.9055 7.95153C15.9055 1.59178 14.3153 0.000305176 7.95306 0.000305176ZM6.48967 4.54491C6.80855 4.54491 7.12026 4.63943 7.38544 4.81653C7.65062 4.99362 7.85735 5.24534 7.97952 5.53989C8.10169 5.83443 8.13381 6.15858 8.07182 6.47137C8.00983 6.78416 7.85652 7.07156 7.63126 7.29725C7.40599 7.52295 7.11888 7.67681 6.80621 7.73939C6.49354 7.80197 6.16933 7.77046 5.87455 7.64885C5.57978 7.52724 5.32766 7.32099 5.15007 7.05615C4.97247 6.79131 4.87736 6.47977 4.87675 6.1609C4.87627 5.9488 4.91764 5.7387 4.99848 5.54262C5.07933 5.34654 5.19807 5.16834 5.3479 5.01823C5.49773 4.86811 5.6757 4.74904 5.87163 4.66782C6.06755 4.5866 6.27758 4.54483 6.48967 4.54491ZM8.93356 11.3618H4.03107V9.89108C4.03107 9.50101 4.18603 9.12692 4.46184 8.8511C4.73766 8.57528 5.11175 8.42033 5.50182 8.42033H7.46282C7.85288 8.42033 8.22697 8.57528 8.50279 8.8511C8.77861 9.12692 8.93356 9.50101 8.93356 9.89108V11.3618ZM10.1953 5.51009C10.4345 5.51009 10.6682 5.581 10.8671 5.71386C11.0659 5.84671 11.2209 6.03554 11.3124 6.25647C11.4039 6.4774 11.4278 6.72051 11.3812 6.95505C11.3345 7.18958 11.2194 7.40502 11.0503 7.57411C10.8812 7.74321 10.6658 7.85836 10.4312 7.90501C10.1967 7.95166 9.95358 7.92772 9.73265 7.83621C9.51172 7.7447 9.32288 7.58973 9.19003 7.39089C9.05717 7.19206 8.98626 6.9583 8.98626 6.71917C8.98643 6.39855 9.11386 6.09111 9.34057 5.8644C9.56728 5.63769 9.87472 5.51025 10.1953 5.51009ZM11.8751 10.3789H9.42381V9.88863C9.42562 9.62502 9.37043 9.36413 9.26203 9.12384C9.25066 9.08428 9.23418 9.04637 9.213 9.01108C9.19842 8.98072 9.18205 8.95126 9.16398 8.92284C9.14226 8.8788 9.1177 8.83622 9.09044 8.79537C9.17312 8.67977 9.28194 8.58533 9.40802 8.51973C9.5341 8.45414 9.67389 8.41924 9.81601 8.41788H10.9926C11.2265 8.41869 11.4506 8.512 11.6159 8.67745C11.7812 8.8429 11.8744 9.06704 11.8751 9.30094V10.3789Z" fill="black"/>
<path d="M24.0277 4.07305C23.1325 4.06675 22.264 4.37788 21.5765 4.95121L21.4208 4.56268C21.3981 4.46771 21.3426 4.38378 21.2642 4.32562C21.1857 4.26746 21.0893 4.23879 20.9918 4.24464H20.5629C20.4394 4.24774 20.3218 4.29819 20.2344 4.38556C20.147 4.47293 20.0966 4.59053 20.0935 4.71405V15.5289C20.0952 15.6529 20.1452 15.7713 20.2329 15.8589C20.3205 15.9466 20.4389 15.9966 20.5629 15.9984H21.5244C21.5891 16.0043 21.6544 15.9966 21.7159 15.9755C21.7774 15.9545 21.8338 15.9208 21.8814 15.8764C21.9289 15.8321 21.9666 15.7783 21.9919 15.7184C22.0172 15.6585 22.0295 15.5939 22.0281 15.5289V12.0604C22.6275 12.3651 23.288 12.5304 23.9603 12.5439C26.148 12.5439 27.8621 10.6798 27.8621 8.30022C27.8621 5.92067 26.1768 4.07305 24.0277 4.07305ZM25.9599 8.30145C25.9762 8.60774 25.9313 8.91421 25.8279 9.20296C25.7244 9.49172 25.5645 9.75697 25.3574 9.98323C25.1503 10.2095 24.9002 10.3922 24.6217 10.5208C24.3432 10.6493 24.0419 10.7211 23.7354 10.7319C23.1148 10.7211 22.51 10.5343 21.9913 10.1932V6.92446C22.1762 6.60797 22.4409 6.34557 22.7591 6.1635C23.0772 5.98143 23.4375 5.88607 23.804 5.88697C25.0536 5.88697 25.9599 6.90178 25.9599 8.30022V8.30145Z" fill="black"/>
<path d="M32.5587 4.07305C32.0122 4.07323 31.4714 4.18416 30.9689 4.39915C30.4665 4.61414 30.0128 4.92872 29.6353 5.32391C29.2578 5.71909 28.9644 6.18668 28.7726 6.69844C28.5808 7.21019 28.4948 7.75551 28.5196 8.30145C28.4885 8.85104 28.5707 9.40117 28.7611 9.91768C28.9515 10.4342 29.246 10.9061 29.6263 11.304C30.0067 11.7019 30.4648 12.0174 30.9721 12.231C31.4795 12.4445 32.0254 12.5514 32.5758 12.5452C33.6611 12.5797 34.7231 12.2252 35.57 11.5457C35.6237 11.5119 35.6688 11.466 35.7016 11.4117C35.7345 11.3574 35.7542 11.2961 35.7592 11.2329C35.7642 11.1696 35.7544 11.106 35.7304 11.0473C35.7065 10.9885 35.6692 10.9361 35.6215 10.8943L35.1576 10.1717C35.1321 10.1282 35.0982 10.0903 35.0578 10.0602C35.0173 10.0301 34.9712 10.0084 34.9223 9.99648C34.7921 9.98702 34.6635 10.0293 34.5644 10.1141C34.0297 10.5421 33.3636 10.7724 32.6788 10.7662C32.1221 10.7769 31.5814 10.5805 31.1615 10.2149C30.7416 9.84937 30.4725 9.34082 30.4065 8.78802H35.7839C35.8983 8.78625 36.008 8.74188 36.0916 8.66359C36.1751 8.58529 36.2264 8.47868 36.2355 8.36457C36.2533 8.22239 36.2711 7.94479 36.2711 7.80384C36.2836 7.31205 36.1963 6.82282 36.0144 6.36572C35.8325 5.90863 35.5598 5.49317 35.2128 5.14445C34.8658 4.79572 34.4517 4.52098 33.9955 4.33683C33.5393 4.15268 33.0505 4.06295 32.5587 4.07305ZM32.5243 5.71538C32.9831 5.69268 33.4328 5.84846 33.7792 6.15007C34.1256 6.45169 34.3418 6.8757 34.3824 7.3332H30.5021C30.5766 6.85987 30.8253 6.43149 31.1995 6.13216C31.5737 5.83283 32.0462 5.68417 32.5243 5.71538Z" fill="black"/>
<path d="M40.9658 4.07305C40.1223 4.05073 39.2912 4.28081 38.5793 4.7338C37.8673 5.18679 37.3068 5.84206 36.9697 6.61562C36.6325 7.38919 36.534 8.24582 36.6868 9.07572C36.8396 9.90563 37.2367 10.671 37.8273 11.2738C38.4179 11.8765 39.175 12.2892 40.0016 12.4589C40.8282 12.6287 41.6866 12.5477 42.4669 12.2264C43.2472 11.9051 43.9138 11.3581 44.3813 10.6556C44.8487 9.95303 45.0957 9.1269 45.0906 8.28306C45.0853 7.1828 44.6516 6.12789 43.8816 5.34197C43.1116 4.55606 42.0657 4.10092 40.9658 4.07305ZM43.2246 8.28306C43.2488 8.59552 43.208 8.90959 43.105 9.20557C43.002 9.50154 42.8389 9.77303 42.626 10.003C42.4131 10.233 42.155 10.4164 41.8678 10.5419C41.5806 10.6674 41.2706 10.7322 40.9572 10.7322C40.6438 10.7322 40.3338 10.6674 40.0467 10.5419C39.7595 10.4164 39.5014 10.233 39.2885 10.003C39.0756 9.77303 38.9125 9.50154 38.8095 9.20557C38.7065 8.90959 38.6657 8.59552 38.6898 8.28306C38.6723 7.97444 38.7179 7.66548 38.8239 7.3751C38.9299 7.08472 39.094 6.81904 39.3063 6.59433C39.5186 6.36962 39.7745 6.1906 40.0584 6.06826C40.3422 5.94591 40.6481 5.8828 40.9572 5.8828C41.2664 5.8828 41.5722 5.94591 41.8561 6.06826C42.14 6.1906 42.3959 6.36962 42.6082 6.59433C42.8204 6.81904 42.9846 7.08472 43.0906 7.3751C43.1966 7.66548 43.2422 7.97444 43.2246 8.28306Z" fill="black"/>
<path d="M50.1114 4.07305C49.2162 4.06621 48.3476 4.37716 47.6602 4.95059L47.5045 4.56269C47.4817 4.46777 47.4262 4.38391 47.3478 4.32577C47.2694 4.26763 47.173 4.23891 47.0755 4.24464H46.6466C46.523 4.24773 46.4053 4.29817 46.3179 4.38552C46.2304 4.47287 46.1798 4.59048 46.1765 4.71405V15.5289C46.1769 15.6534 46.2265 15.7727 46.3146 15.8607C46.4027 15.9487 46.5221 15.9982 46.6466 15.9984H47.6068C47.6716 16.0043 47.7369 15.9965 47.7985 15.9755C47.86 15.9545 47.9164 15.9208 47.964 15.8765C48.0116 15.8322 48.0494 15.7783 48.0747 15.7184C48.1001 15.6585 48.1125 15.594 48.1112 15.5289V12.0592C48.7097 12.3671 49.3711 12.533 50.044 12.5439C52.2311 12.5439 53.9452 10.6798 53.9452 8.30022C53.9452 5.92067 52.2605 4.07305 50.1114 4.07305ZM48.0763 6.92446C48.261 6.60784 48.5257 6.34534 48.8438 6.16325C49.162 5.98116 49.5224 5.88589 49.889 5.88697C51.1379 5.88697 52.0442 6.90178 52.0442 8.30022C52.0606 8.60638 52.0159 8.91274 51.9126 9.20141C51.8093 9.49009 51.6495 9.75529 51.4426 9.98154C51.2357 10.2078 50.9857 10.3906 50.7074 10.5192C50.4291 10.6478 50.128 10.7197 49.8216 10.7306C49.2009 10.7198 48.5961 10.533 48.0775 10.192L48.0763 6.92446Z" fill="black"/>
<path d="M55.5323 0.602086H56.4938C56.6185 0.602086 56.7381 0.651606 56.8262 0.739753C56.9143 0.8279 56.9639 0.947453 56.9639 1.07211V11.8864C56.9639 12.0109 56.9144 12.1303 56.8264 12.2183C56.7383 12.3063 56.619 12.3558 56.4945 12.3558H55.533C55.4085 12.3558 55.2891 12.3063 55.201 12.2183C55.113 12.1303 55.0635 12.0109 55.0635 11.8864V1.07089C55.0635 1.00932 55.0757 0.948362 55.0992 0.891484C55.1228 0.834607 55.1573 0.782926 55.2008 0.739394C55.2444 0.695862 55.2961 0.661331 55.3529 0.637771C55.4098 0.614212 55.4708 0.602086 55.5323 0.602086Z" fill="black"/>
<path d="M62.1047 4.07305C61.5583 4.07331 61.0176 4.18431 60.5152 4.39933C60.0128 4.61436 59.5592 4.92895 59.1818 5.32413C58.8044 5.71931 58.511 6.18686 58.3192 6.69858C58.1275 7.2103 58.0415 7.75556 58.0663 8.30145C58.0352 8.85104 58.1174 9.40117 58.3078 9.91768C58.4981 10.4342 58.7927 10.9061 59.173 11.304C59.5534 11.7019 60.0114 12.0174 60.5188 12.231C61.0262 12.4445 61.5721 12.5514 62.1225 12.5452C63.2078 12.5796 64.2697 12.2251 65.1167 11.5457C65.1704 11.5119 65.2155 11.466 65.2483 11.4117C65.2812 11.3574 65.3009 11.2961 65.3059 11.2329C65.3109 11.1696 65.301 11.106 65.2771 11.0473C65.2532 10.9885 65.2159 10.9361 65.1682 10.8943L64.7043 10.1717C64.6787 10.1283 64.6448 10.0904 64.6044 10.0603C64.5639 10.0302 64.5179 10.0085 64.469 9.99648C64.3388 9.98695 64.2102 10.0292 64.1111 10.1141C63.5763 10.5421 62.9103 10.7724 62.2255 10.7662C61.6688 10.7769 61.1281 10.5805 60.7082 10.2149C60.2883 9.84937 60.0192 9.34082 59.9532 8.78802H65.3306C65.445 8.78624 65.5546 8.74185 65.638 8.66354C65.7214 8.58523 65.7726 8.47862 65.7816 8.36457C65.8 8.22239 65.8178 7.94479 65.8178 7.80384C65.8302 7.31202 65.7428 6.82278 65.5608 6.36568C65.3789 5.90858 65.1061 5.49313 64.7591 5.14441C64.412 4.7957 63.9979 4.52097 63.5417 4.33683C63.0854 4.15268 62.5966 4.06295 62.1047 4.07305ZM62.071 5.71538C62.5298 5.69268 62.9795 5.84846 63.3259 6.15007C63.6723 6.45169 63.8885 6.8757 63.9291 7.3332H60.0488C60.1233 6.85987 60.372 6.43149 60.7462 6.13216C61.1203 5.83283 61.5929 5.68417 62.071 5.71538Z" fill="black"/>
</svg>
