<svg width="87" height="16" viewBox="0 0 87 16" fill="none" xmlns="http://www.w3.org/2000/svg">
<g clip-path="url(#clip0)">
<path d="M61.4306 9.99752C60.7467 10.0055 60.0875 9.7422 59.5974 9.26519C59.1072 8.78817 58.8261 8.13636 58.8156 7.4525C58.8325 6.76716 59.1164 6.11553 59.6067 5.63641C60.097 5.1573 60.755 4.88857 61.4406 4.88748C61.7906 4.87868 62.1377 4.9524 62.4539 5.10268C62.7701 5.25295 63.0464 5.47556 63.2606 5.75248C63.2825 5.77859 63.2987 5.80897 63.3081 5.84169C63.3176 5.8744 63.3201 5.90873 63.3156 5.94248C63.3021 6.01253 63.2629 6.07497 63.2056 6.11749L62.7956 6.47749C62.7766 6.49871 62.7536 6.51586 62.7278 6.52789C62.702 6.53992 62.674 6.54659 62.6456 6.54749C62.5719 6.53921 62.5041 6.5035 62.4556 6.44749C62.2655 6.23054 62.0122 6.0786 61.7314 6.01302C61.4505 5.94744 61.1561 5.97152 60.8896 6.08187C60.6232 6.19221 60.3979 6.38329 60.2456 6.62823C60.0934 6.87318 60.0216 7.15969 60.0406 7.4475C60.0305 7.63876 60.059 7.83009 60.1245 8.01007C60.19 8.19005 60.2912 8.35497 60.4218 8.49499C60.5525 8.63501 60.7101 8.74725 60.8851 8.825C61.0602 8.90275 61.2491 8.94441 61.4406 8.94751C61.644 8.94815 61.8451 8.90363 62.0293 8.81717C62.2134 8.73071 62.3761 8.60445 62.5056 8.4475L62.5806 8.3725C62.6317 8.31865 62.7015 8.28644 62.7756 8.2825C62.8379 8.28463 62.8977 8.30751 62.9456 8.3475L63.2806 8.6125C63.3122 8.62888 63.3399 8.65181 63.362 8.67977C63.384 8.70773 63.3998 8.74006 63.4083 8.77462C63.4168 8.80917 63.4179 8.84514 63.4114 8.88013C63.4049 8.91512 63.391 8.94832 63.3706 8.97751C63.1628 9.30051 62.8749 9.56422 62.5349 9.74296C62.1949 9.92171 61.8145 10.0094 61.4306 9.99752Z" fill="black"/>
<path d="M66.1756 9.99752C65.8426 9.9976 65.513 9.93116 65.206 9.80209C64.8991 9.67303 64.621 9.48394 64.3881 9.24594C64.1552 9.00793 63.9722 8.7258 63.8499 8.41611C63.7275 8.10642 63.6683 7.7754 63.6756 7.4425C63.6641 7.10851 63.7204 6.77565 63.8413 6.46408C63.9621 6.15251 64.145 5.8687 64.3787 5.62983C64.6124 5.39097 64.8922 5.20202 65.201 5.07442C65.5099 4.94681 65.8415 4.88322 66.1756 4.88748C66.4762 4.87732 66.7757 4.92819 67.056 5.03703C67.3364 5.14587 67.5917 5.31041 67.8067 5.52071C68.0217 5.73101 68.1918 5.9827 68.3068 6.26059C68.4217 6.53847 68.4792 6.83678 68.4756 7.13749C68.4756 7.22249 68.4756 7.3775 68.4756 7.4675C68.4695 7.52852 68.4412 7.58517 68.396 7.62666C68.3508 7.66815 68.292 7.69158 68.2306 7.6925H64.9156C64.9399 8.03598 65.095 8.35708 65.3489 8.58963C65.6029 8.82219 65.9363 8.94848 66.2806 8.94251C66.6692 8.92826 67.0464 8.80716 67.3706 8.59251C67.4384 8.54792 67.5153 8.51889 67.5956 8.5075C67.6236 8.50904 67.6508 8.51706 67.6751 8.53095C67.6994 8.54484 67.7201 8.5642 67.7356 8.58751L68.0856 9.04751C68.1108 9.06917 68.131 9.09603 68.1448 9.12624C68.1586 9.15645 68.1657 9.18929 68.1656 9.22251C68.1595 9.25606 68.1466 9.28801 68.1277 9.31638C68.1088 9.34476 68.0843 9.36897 68.0556 9.38751C67.5176 9.80061 66.8537 10.016 66.1756 9.99752ZM66.1506 5.85748C65.8592 5.84914 65.5745 5.9454 65.348 6.12884C65.1214 6.31227 64.9681 6.57075 64.9156 6.85749L67.2356 6.89249C67.2203 6.61479 67.0994 6.35344 66.8977 6.16196C66.696 5.97047 66.4287 5.86334 66.1506 5.86248V5.85748Z" fill="black"/>
<path d="M73.0657 9.87751C73.0328 9.87818 73.0002 9.87237 72.9696 9.86041C72.939 9.84846 72.9111 9.83059 72.8874 9.80784C72.8637 9.78509 72.8448 9.7579 72.8316 9.72781C72.8184 9.69773 72.8113 9.66535 72.8107 9.63251V7.15749C72.8107 6.39749 72.4507 5.98248 71.8107 5.98248C71.5459 5.98192 71.2849 6.04526 71.0499 6.16713C70.8149 6.28899 70.6127 6.46579 70.4607 6.68249V9.63251C70.4607 9.80252 70.3707 9.87751 70.1556 9.87751H69.5107C69.4442 9.87763 69.3803 9.8523 69.3319 9.80674C69.2836 9.76118 69.2545 9.69884 69.2506 9.63251V5.26248C69.2532 5.19527 69.2818 5.13168 69.3302 5.08506C69.3787 5.03844 69.4434 5.01243 69.5107 5.01248H69.8707C69.9193 5.01086 69.9671 5.02581 70.0061 5.05488C70.0452 5.08394 70.0732 5.12541 70.0856 5.17248L70.2106 5.50248C70.7099 5.13144 71.3092 4.91893 71.9307 4.89248C73.2607 4.89248 74.0257 5.73248 74.0257 7.20249V9.63251C74.0219 9.69884 73.9928 9.76118 73.9444 9.80674C73.8961 9.8523 73.8321 9.87763 73.7657 9.87751H73.0657Z" fill="black"/>
<path d="M76.3507 9.99752C75.1957 9.99752 75.0657 9.16251 75.0657 8.5375V6.08749L74.5657 6.05248C74.5324 6.05382 74.4993 6.04851 74.4681 6.03686C74.4369 6.02521 74.4084 6.00745 74.3842 5.98463C74.36 5.96182 74.3406 5.93439 74.3271 5.90397C74.3136 5.87355 74.3063 5.84075 74.3057 5.80748V5.26248C74.3049 5.22858 74.3112 5.1949 74.3241 5.16356C74.3371 5.13222 74.3564 5.10391 74.3808 5.08041C74.4053 5.05691 74.4343 5.03874 74.4661 5.02705C74.4979 5.01535 74.5318 5.01039 74.5657 5.01248H75.0307L75.0657 3.51247C75.0682 3.44611 75.0961 3.38325 75.1435 3.33676C75.1909 3.29027 75.2543 3.26369 75.3207 3.26246H76.0307C76.0957 3.265 76.1573 3.29231 76.2029 3.33879C76.2484 3.38527 76.2745 3.4474 76.2757 3.51247V5.01248L77.5157 5.04248C77.5495 5.04039 77.5835 5.04535 77.6153 5.05705C77.6471 5.06874 77.6761 5.08691 77.7006 5.11041C77.725 5.13391 77.7443 5.16222 77.7572 5.19356C77.7702 5.2249 77.7765 5.25858 77.7757 5.29248V5.83748C77.7751 5.87075 77.7678 5.90355 77.7543 5.93397C77.7408 5.96439 77.7214 5.99182 77.6972 6.01463C77.673 6.03745 77.6445 6.05521 77.6133 6.06686C77.5821 6.07851 77.549 6.08382 77.5157 6.08249H76.3057L76.2757 8.4525C76.2757 8.87751 76.4607 8.91751 76.6507 8.91751C76.9107 8.89513 77.1638 8.82209 77.3957 8.70251C77.4338 8.68066 77.4768 8.66863 77.5207 8.66751H77.5807C77.6409 8.69512 77.6876 8.74547 77.7107 8.80751L77.9357 9.34251C77.9513 9.37089 77.9604 9.40236 77.9624 9.43467C77.9644 9.46697 77.9592 9.49932 77.9473 9.5294C77.9353 9.55949 77.9169 9.58657 77.8933 9.60871C77.8697 9.63086 77.8415 9.64752 77.8107 9.65751C77.3513 9.86616 76.855 9.98172 76.3507 9.99752Z" fill="black"/>
<path d="M80.6257 9.99752C80.2927 9.9976 79.9631 9.93116 79.6561 9.80209C79.3492 9.67303 79.0711 9.48394 78.8382 9.24594C78.6053 9.00793 78.4223 8.7258 78.3 8.41611C78.1776 8.10642 78.1184 7.7754 78.1257 7.4425C78.1184 7.10959 78.1776 6.77857 78.3 6.46888C78.4223 6.15919 78.6053 5.87706 78.8382 5.63905C79.0711 5.40105 79.3492 5.21196 79.6561 5.0829C79.9631 4.95384 80.2927 4.8874 80.6257 4.88748C80.9267 4.87663 81.2267 4.92699 81.5077 5.03552C81.7886 5.14404 82.0446 5.30847 82.2601 5.51884C82.4756 5.72921 82.6462 5.98115 82.7615 6.25938C82.8767 6.53761 82.9343 6.83635 82.9307 7.13749C82.9307 7.22749 82.9307 7.3875 82.9057 7.4675C82.8996 7.52852 82.8713 7.58517 82.8261 7.62666C82.7809 7.66815 82.7221 7.69158 82.6608 7.6925H79.3307C79.355 8.03598 79.5101 8.35708 79.764 8.58963C80.018 8.82219 80.3514 8.94848 80.6957 8.94251C81.0857 8.92739 81.4643 8.8064 81.7907 8.59251C81.8562 8.54703 81.9317 8.51789 82.0107 8.5075C82.0387 8.50904 82.0659 8.51706 82.0902 8.53095C82.1145 8.54484 82.1352 8.5642 82.1507 8.58751L82.5007 9.04751C82.5259 9.06917 82.5461 9.09603 82.5599 9.12624C82.5737 9.15645 82.5808 9.18929 82.5807 9.22251C82.5746 9.25606 82.5617 9.28801 82.5428 9.31638C82.5239 9.34476 82.4994 9.36897 82.4707 9.38751C81.9427 9.79409 81.2921 10.0092 80.6257 9.99752ZM80.5957 5.85748C80.305 5.84932 80.0209 5.94576 79.7952 6.12926C79.5695 6.31277 79.4171 6.57117 79.3657 6.85749L81.6807 6.89249C81.6654 6.61479 81.5445 6.35344 81.3428 6.16196C81.1411 5.97047 80.8739 5.86334 80.5957 5.86248V5.85748Z" fill="black"/>
<path d="M83.7508 9.87751C83.6852 9.87636 83.6225 9.85048 83.5752 9.80504C83.5279 9.75961 83.4995 9.69798 83.4958 9.63251V5.26248C83.4983 5.19613 83.5261 5.13326 83.5735 5.08677C83.621 5.04029 83.6844 5.01371 83.7508 5.01248H84.1108C84.1642 5.01537 84.2155 5.03469 84.2575 5.06781C84.2996 5.10092 84.3304 5.1462 84.3458 5.19748L84.4308 5.49748C84.8324 5.10735 85.3709 4.89015 85.9308 4.89248C86.2708 4.89248 86.7108 4.95748 86.8408 5.14248C86.8605 5.17668 86.8709 5.21548 86.8709 5.25498C86.8709 5.29448 86.8605 5.33328 86.8408 5.36748L86.5458 5.95748C86.5276 5.99971 86.4977 6.03582 86.4595 6.06152C86.4214 6.08723 86.3767 6.10145 86.3308 6.10249C86.2913 6.1009 86.2524 6.09244 86.2158 6.07749C86.0862 6.02204 85.9467 5.99314 85.8058 5.99248C85.5911 5.98968 85.379 6.04031 85.1888 6.13981C84.9985 6.23931 84.836 6.38456 84.7158 6.56249V9.63251C84.7158 9.86252 84.5458 9.87751 84.3608 9.87751H83.7508Z" fill="black"/>
<path d="M26.2003 9.87751C25.9903 9.88019 25.7878 9.79967 25.6369 9.65352C25.4861 9.50738 25.3992 9.30749 25.3953 9.09751V3.13746C25.3978 3.07111 25.4257 3.00824 25.4731 2.96176C25.5205 2.91527 25.5839 2.88869 25.6503 2.88746H26.3603C26.4267 2.88869 26.4901 2.91527 26.5375 2.96176C26.5849 3.00824 26.6128 3.07111 26.6153 3.13746V8.4425C26.616 8.47468 26.6229 8.50641 26.6359 8.53589C26.6488 8.56537 26.6674 8.59201 26.6906 8.6143C26.7138 8.63658 26.7412 8.65408 26.7712 8.66578C26.8011 8.67749 26.8331 8.68317 26.8653 8.68251H26.9653C26.987 8.68184 27.0086 8.68545 27.0288 8.69313C27.0491 8.70081 27.0677 8.71242 27.0835 8.72727C27.0993 8.74213 27.112 8.75996 27.1209 8.77973C27.1298 8.7995 27.1347 8.82084 27.1353 8.84251V9.71751C27.1347 9.73919 27.1298 9.76052 27.1209 9.78029C27.112 9.80006 27.0993 9.81789 27.0835 9.83275C27.0677 9.8476 27.0491 9.85921 27.0288 9.86689C27.0086 9.87457 26.987 9.87818 26.9653 9.87751H26.2003Z" fill="black"/>
<path d="M29.2303 9.99752C29.0126 10.0092 28.7948 9.97473 28.5913 9.89625C28.3878 9.81778 28.2033 9.69711 28.0498 9.5422C27.8963 9.38728 27.7773 9.20162 27.7007 8.99744C27.6241 8.79325 27.5916 8.57516 27.6053 8.3575C27.6053 7.4125 28.4153 6.78249 29.6053 6.78249C29.9144 6.78487 30.2219 6.82688 30.5203 6.90749C30.5653 6.44249 30.5203 6.21249 30.3653 6.06749C30.2106 5.94268 30.0132 5.88344 29.8153 5.90248C29.3459 5.913 28.88 5.98701 28.4303 6.12249H28.3653C28.2553 6.12249 28.1703 6.04748 28.1303 5.90748L28.0303 5.46248C28.0206 5.43094 28.0176 5.39771 28.0216 5.36494C28.0256 5.33217 28.0364 5.30061 28.0534 5.27231C28.0704 5.24401 28.0931 5.2196 28.1201 5.20068C28.1472 5.18175 28.1779 5.16874 28.2103 5.16248C28.764 4.97484 29.3458 4.88352 29.9303 4.89248C31.5553 4.89248 31.6904 5.89248 31.6904 7.05749V9.63251C31.6865 9.69884 31.6574 9.76118 31.6091 9.80674C31.5607 9.8523 31.4968 9.87763 31.4303 9.87751H31.0853C30.9553 9.87751 30.9003 9.81751 30.8553 9.69751L30.7553 9.44751C30.3236 9.79754 29.7861 9.99136 29.2303 9.99752ZM29.7303 7.5675C29.1303 7.5675 28.7303 7.8725 28.7303 8.3475C28.7255 8.44601 28.741 8.54446 28.776 8.63666C28.8111 8.72886 28.8648 8.81282 28.9338 8.88326C29.0028 8.9537 29.0857 9.0091 29.1772 9.04597C29.2686 9.08284 29.3667 9.10039 29.4653 9.09751C29.6784 9.08667 29.8865 9.02909 30.0749 8.92886C30.2633 8.82863 30.4273 8.68819 30.5553 8.5175V7.7775C30.2982 7.63661 30.0085 7.5659 29.7153 7.5725L29.7303 7.5675Z" fill="black"/>
<path d="M36.2854 9.87751C36.2526 9.87818 36.2199 9.87237 36.1893 9.86041C36.1587 9.84846 36.1308 9.83059 36.1071 9.80784C36.0835 9.78509 36.0645 9.7579 36.0513 9.72781C36.0381 9.69773 36.031 9.66535 36.0304 9.63251V7.15749C36.0304 6.39749 35.6704 5.98248 35.0304 5.98248C34.7656 5.98192 34.5047 6.04526 34.2696 6.16713C34.0346 6.28899 33.8325 6.46579 33.6804 6.68249V9.63251C33.6804 9.80252 33.5904 9.87751 33.3754 9.87751H32.7154C32.6489 9.87763 32.585 9.8523 32.5366 9.80674C32.4883 9.76118 32.4592 9.69884 32.4554 9.63251V5.26248C32.4579 5.19527 32.4865 5.13168 32.535 5.08506C32.5834 5.03844 32.6481 5.01243 32.7154 5.01248H33.0754C33.1247 5.01062 33.1732 5.02538 33.2131 5.0544C33.253 5.08342 33.2819 5.125 33.2954 5.17248L33.4304 5.49748C33.9333 5.11554 34.544 4.90207 35.1754 4.88748C36.5054 4.88748 37.2654 5.72748 37.2654 7.19749V9.62751C37.2616 9.69298 37.2332 9.75461 37.186 9.80004C37.1387 9.84548 37.076 9.87136 37.0104 9.87251L36.2854 9.87751Z" fill="black"/>
<path d="M41.9804 9.87751C41.9472 9.87885 41.914 9.87354 41.8828 9.86189C41.8517 9.85024 41.8231 9.83248 41.7989 9.80966C41.7747 9.78685 41.7553 9.75942 41.7418 9.729C41.7283 9.69858 41.7211 9.66578 41.7204 9.63251V7.15749C41.7204 6.39749 41.3654 5.98248 40.7204 5.98248C40.455 5.98195 40.1933 6.04527 39.9575 6.1671C39.7216 6.28893 39.5186 6.4657 39.3654 6.68249V9.63251C39.3654 9.80252 39.2704 9.87751 39.0554 9.87751H38.4304C38.3648 9.87636 38.3021 9.85048 38.2548 9.80504C38.2075 9.75961 38.1792 9.69798 38.1754 9.63251V5.26248C38.1747 5.22833 38.1808 5.19439 38.1933 5.16259C38.2057 5.13079 38.2243 5.10176 38.248 5.07715C38.2717 5.05254 38.3 5.03284 38.3313 5.01917C38.3626 5.0055 38.3963 4.99813 38.4304 4.99748H38.7904C38.8397 4.99562 38.8882 5.01038 38.9281 5.0394C38.968 5.06842 38.997 5.11 39.0104 5.15748L39.1304 5.48748C39.6373 5.11282 40.2455 4.90018 40.8754 4.87748C42.2054 4.87748 42.9704 5.71748 42.9704 7.18749V9.61751C42.9666 9.68384 42.9375 9.74618 42.8892 9.79174C42.8408 9.8373 42.7769 9.86263 42.7104 9.86251L41.9804 9.87751Z" fill="black"/>
<path d="M44.5005 4.22247C44.3998 4.23082 44.2986 4.21821 44.2031 4.18544C44.1076 4.15267 44.02 4.10045 43.9457 4.03208C43.8714 3.96371 43.8121 3.88067 43.7716 3.78822C43.731 3.69577 43.7101 3.59592 43.7101 3.49497C43.7101 3.39401 43.731 3.29416 43.7716 3.20171C43.8121 3.10926 43.8714 3.02623 43.9457 2.95786C44.02 2.88949 44.1076 2.83727 44.2031 2.80449C44.2986 2.77172 44.3998 2.75911 44.5005 2.76746C44.6011 2.75911 44.7023 2.77172 44.7978 2.80449C44.8933 2.83727 44.9809 2.88949 45.0552 2.95786C45.1295 3.02623 45.1888 3.10926 45.2293 3.20171C45.2699 3.29416 45.2908 3.39401 45.2908 3.49497C45.2908 3.59592 45.2699 3.69577 45.2293 3.78822C45.1888 3.88067 45.1295 3.96371 45.0552 4.03208C44.9809 4.10045 44.8933 4.15267 44.7978 4.18544C44.7023 4.21821 44.6011 4.23082 44.5005 4.22247Z" fill="black"/>
<path d="M44.1655 9.87751C44.099 9.87763 44.0351 9.8523 43.9867 9.80674C43.9384 9.76118 43.9093 9.69884 43.9054 9.63251V5.26248C43.908 5.19527 43.9366 5.13168 43.985 5.08506C44.0335 5.03844 44.0982 5.01243 44.1655 5.01248H44.8705C44.9373 5.01363 45.0013 5.04005 45.0496 5.08642C45.0978 5.13279 45.1267 5.19568 45.1305 5.26248V9.63251C45.1266 9.69884 45.0975 9.76118 45.0492 9.80674C45.0008 9.8523 44.9369 9.87763 44.8705 9.87751H44.1655Z" fill="black"/>
<path d="M49.9555 9.87751C49.8887 9.87888 49.824 9.85397 49.7754 9.80815C49.7268 9.76234 49.6981 9.69927 49.6955 9.63251V7.15749C49.6955 6.39749 49.3405 5.98248 48.6955 5.98248C48.4306 5.98107 48.1693 6.04405 47.9341 6.16598C47.699 6.28792 47.497 6.46518 47.3455 6.68249V9.63251C47.3455 9.80252 47.2505 9.87751 47.0405 9.87751H46.3855C46.319 9.87763 46.2551 9.8523 46.2067 9.80674C46.1584 9.76118 46.1293 9.69884 46.1255 9.63251V5.26248C46.1281 5.19527 46.1566 5.13168 46.2051 5.08506C46.2535 5.03844 46.3182 5.01243 46.3855 5.01248H46.7455C46.7941 5.01086 46.8419 5.02581 46.881 5.05488C46.92 5.08394 46.948 5.12541 46.9605 5.17248L47.0855 5.50248C47.5899 5.12681 48.1969 4.91399 48.8255 4.89248C49.6105 4.89248 50.9205 5.19248 50.9205 7.20249V9.63251C50.9167 9.69884 50.8876 9.76118 50.8392 9.80674C50.7909 9.8523 50.7269 9.87763 50.6605 9.87751H49.9555Z" fill="black"/>
<path d="M53.9805 12.6675C53.2856 12.6457 52.6112 12.4273 52.0355 12.0375C51.9954 12.0127 51.9666 11.9731 51.9554 11.9273C51.9442 11.8815 51.9514 11.8331 51.9755 11.7925L52.2455 11.2925C52.264 11.2644 52.2893 11.2415 52.319 11.2257C52.3487 11.21 52.3819 11.202 52.4155 11.2025C52.4487 11.203 52.4813 11.2116 52.5105 11.2275C52.8765 11.4453 53.2902 11.5706 53.7155 11.5925C53.9678 11.6108 54.221 11.5757 54.4588 11.4896C54.6966 11.4034 54.9135 11.2681 55.0955 11.0925C55.2174 10.9744 55.3112 10.8304 55.37 10.6711C55.4289 10.5119 55.4513 10.3415 55.4355 10.1725V10.0725C55.0142 10.2711 54.5562 10.3801 54.0905 10.3925C53.7429 10.3864 53.4002 10.31 53.0828 10.1681C52.7655 10.0262 52.4801 9.8216 52.2438 9.56662C52.0075 9.31164 51.8252 9.01153 51.7077 8.68432C51.5903 8.35711 51.5402 8.00955 51.5605 7.6625C51.5605 6.08748 52.6255 4.90248 54.0605 4.90248C54.3606 4.89608 54.659 4.94886 54.9387 5.05782C55.2184 5.16677 55.4739 5.32977 55.6905 5.53748L55.8105 5.17748C55.8605 5.07248 55.9155 5.03248 56.0055 5.03248H56.5055C56.5635 5.03242 56.6193 5.05475 56.6612 5.0948C56.7031 5.13486 56.728 5.18956 56.7305 5.24748V10.3475C56.7305 11.6725 55.6455 12.6225 54.0955 12.6625L53.9805 12.6675ZM54.1855 5.99748C53.3255 5.99748 52.7455 6.67249 52.7455 7.6775C52.7222 7.88789 52.7437 8.10083 52.8086 8.30231C52.8735 8.5038 52.9803 8.68927 53.122 8.84654C53.2637 9.0038 53.437 9.1293 53.6307 9.21478C53.8243 9.30027 54.0339 9.3438 54.2455 9.34251C54.5663 9.34259 54.8827 9.26904 55.1705 9.12751C55.265 9.08306 55.3446 9.01217 55.3996 8.92343C55.4546 8.83469 55.4827 8.7319 55.4805 8.62751V6.90249C55.4815 6.79414 55.4502 6.68795 55.3905 6.59749C55.2523 6.40844 55.0707 6.25529 54.861 6.15089C54.6514 6.04649 54.4197 5.99389 54.1855 5.99748Z" fill="black"/>
<path d="M19.9303 12.4075C19.8639 12.4063 19.8005 12.3797 19.753 12.3332C19.7056 12.2868 19.6778 12.2239 19.6753 12.1575V4.99748C19.6765 4.93953 19.7001 4.88431 19.7411 4.84332C19.7821 4.80234 19.8373 4.77875 19.8953 4.77748H20.3953C20.4384 4.77735 20.4804 4.79082 20.5154 4.81595C20.5504 4.84108 20.5766 4.87661 20.5903 4.91748L20.6553 5.32748L20.7003 5.28248C21.1457 4.86577 21.7354 4.63813 22.3453 4.64747C23.7553 4.64747 24.8153 5.83248 24.8153 7.4075C24.8362 7.75224 24.7876 8.09766 24.6723 8.42322C24.5569 8.74877 24.3773 9.0478 24.1441 9.30252C23.9108 9.55723 23.6287 9.76241 23.3145 9.90586C23.0003 10.0493 22.6605 10.1281 22.3153 10.1375C21.8621 10.1332 21.4171 10.0164 21.0203 9.79751L20.9303 12.1575C20.9314 12.1933 20.9246 12.2289 20.9105 12.2617C20.8964 12.2946 20.8752 12.324 20.8486 12.3478C20.8219 12.3716 20.7903 12.3893 20.756 12.3997C20.7218 12.41 20.6857 12.4127 20.6503 12.4075H19.9303ZM22.1703 5.70748C21.9353 5.71037 21.7042 5.76844 21.4958 5.877C21.2874 5.98556 21.1073 6.14158 20.9703 6.33249C20.9106 6.42295 20.8793 6.52914 20.8803 6.63749V8.3425C20.8787 8.44677 20.9071 8.5493 20.962 8.63793C21.017 8.72655 21.0962 8.79755 21.1903 8.84251C21.4783 8.98337 21.7946 9.05689 22.1153 9.05751C22.3269 9.05879 22.5365 9.01526 22.7301 8.92978C22.9238 8.8443 23.0972 8.7188 23.2388 8.56153C23.3805 8.40427 23.4873 8.2188 23.5522 8.01731C23.6171 7.81582 23.6386 7.60289 23.6153 7.3925C23.6053 6.38249 23.0253 5.70748 22.1603 5.70748H22.1703Z" fill="black"/>
<path d="M10.3302 6.35749L8.52517 6.93249C8.13614 7.05428 7.71919 7.05428 7.33016 6.93249L5.51515 6.39749C5.4919 6.39147 5.4676 6.39077 5.44404 6.39543C5.42049 6.40008 5.39828 6.40998 5.37907 6.42439C5.35986 6.4388 5.34414 6.45734 5.33308 6.47865C5.32201 6.49996 5.31588 6.52349 5.31515 6.54749V8.74751C5.31479 8.78104 5.32531 8.81379 5.34515 8.84084C5.36498 8.86789 5.39305 8.88777 5.42515 8.89751L7.64016 9.56251C7.81802 9.61516 8.00732 9.61516 8.18517 9.56251L10.4302 8.84251C10.4609 8.83284 10.4878 8.81351 10.5067 8.78739C10.5256 8.76127 10.5356 8.72975 10.5352 8.69751V6.49749C10.5353 6.473 10.5293 6.44887 10.5179 6.4272C10.5065 6.40553 10.49 6.38698 10.4698 6.37317C10.4496 6.35936 10.4263 6.35071 10.4019 6.34798C10.3776 6.34524 10.353 6.34851 10.3302 6.35749Z" fill="black"/>
<path d="M14.0252 1.61745L9.21518 0.18744C8.37162 -0.06248 7.47371 -0.06248 6.63016 0.18744L1.82012 1.61745C1.28867 1.78373 0.824802 2.11656 0.49706 2.56676C0.169318 3.01695 -0.00491515 3.56063 0.000105539 4.11747V11.9075C0.000439926 12.4601 0.177149 12.9981 0.504504 13.4433C0.831859 13.8885 1.29277 14.2175 1.82012 14.3826L6.63016 15.8126C7.47371 16.0625 8.37162 16.0625 9.21518 15.8126L14.0252 14.3826C14.5516 14.2166 15.0114 13.8872 15.3378 13.4421C15.6642 12.997 15.8402 12.4595 15.8402 11.9075V4.09747C15.8405 3.54486 15.6647 3.00654 15.3384 2.56059C15.012 2.11465 14.552 1.7843 14.0252 1.61745ZM12.1302 9.19751C12.1299 9.44204 12.0511 9.68001 11.9052 9.87629C11.7594 10.0726 11.5543 10.2167 11.3202 10.2875L8.50517 11.1275C8.12805 11.2377 7.72729 11.2377 7.35016 11.1275L5.45515 10.5575C5.43885 10.5529 5.42171 10.5521 5.40506 10.5552C5.38841 10.5583 5.37269 10.5652 5.35914 10.5753C5.34559 10.5855 5.33457 10.5987 5.32694 10.6138C5.31931 10.6289 5.31527 10.6456 5.31515 10.6625V11.9425C5.3148 12.0034 5.30057 12.0634 5.27354 12.1179C5.24652 12.1724 5.20741 12.22 5.15919 12.2572C5.11097 12.2943 5.05492 12.3199 4.9953 12.3321C4.93568 12.3443 4.87406 12.3427 4.81514 12.3275L4.02014 12.0925C3.93653 12.0669 3.86329 12.0153 3.81112 11.9451C3.75895 11.875 3.73057 11.79 3.73013 11.7025V5.75248C3.73023 5.57592 3.77133 5.4018 3.85021 5.24384C3.92908 5.08587 4.04356 4.94839 4.18464 4.84222C4.32571 4.73605 4.48951 4.6641 4.66314 4.63204C4.83676 4.59998 5.01546 4.60869 5.18515 4.65747L7.66016 5.38748C7.83465 5.43988 8.02068 5.43988 8.19517 5.38748L10.6702 4.61247C10.8403 4.55905 11.0207 4.54647 11.1966 4.57576C11.3725 4.60506 11.5391 4.67539 11.6827 4.78107C11.8264 4.88675 11.9431 5.02479 12.0235 5.18401C12.1038 5.34323 12.1455 5.51914 12.1452 5.69748L12.1302 9.19751Z" fill="black"/>
</g>
<defs>
<clipPath id="clip0">
<rect width="87" height="16" fill="white"/>
</clipPath>
</defs>
</svg>
