<svg width="105" height="16" viewBox="0 0 105 16" fill="none" xmlns="http://www.w3.org/2000/svg">
<path d="M25.5865 4.35489L25.1729 5.21643C25.1483 5.27544 25.1119 5.32877 25.0658 5.37312C25.0198 5.41748 24.9651 5.4519 24.9052 5.47427C24.85 5.49321 24.7916 5.50073 24.7334 5.4964C24.6752 5.49206 24.6185 5.47595 24.5668 5.44904C24.3501 5.35835 24.1185 5.30889 23.8837 5.3032C23.5274 5.31165 23.1785 5.40707 22.8675 5.58114C22.5564 5.75521 22.2926 6.00267 22.0991 6.30197V11.3278C22.0991 11.7992 21.7114 11.7992 21.4554 11.7992H20.6615C20.537 11.7976 20.4179 11.7474 20.3298 11.6594C20.2416 11.5714 20.1913 11.4524 20.1895 11.3278V4.1235C20.1928 3.99947 20.2436 3.88144 20.3315 3.79382C20.4193 3.7062 20.5375 3.65569 20.6615 3.65274H21.0751C21.1755 3.65516 21.2725 3.6904 21.351 3.75307C21.4296 3.81574 21.4855 3.9024 21.5102 3.99981L21.68 4.54997C21.9761 4.2117 22.3414 3.94107 22.7513 3.75643C23.1611 3.57178 23.6059 3.47745 24.0554 3.47981C24.6542 3.47981 25.368 3.5992 25.5785 3.93397C25.6173 3.99701 25.6385 4.06931 25.6399 4.14334C25.6413 4.21737 25.6229 4.29042 25.5865 4.35489ZM33.2462 7.22627C33.2462 7.36781 33.2283 7.64658 33.2098 7.78935C33.2008 7.90389 33.1494 8.01094 33.0656 8.08958C32.9819 8.16822 32.8718 8.21279 32.7569 8.21458H27.3569C27.4232 8.76971 27.6934 9.28039 28.1151 9.64748C28.5368 10.0146 29.0798 10.2119 29.6388 10.201C30.3265 10.2073 30.9953 9.97601 31.5323 9.54627C31.5815 9.50385 31.6385 9.47158 31.7002 9.4513C31.7619 9.43102 31.827 9.42314 31.8917 9.42812C31.9409 9.44021 31.9872 9.46207 32.0278 9.49241C32.0684 9.52275 32.1025 9.56095 32.128 9.60474L32.5932 10.3297C32.6413 10.3716 32.6789 10.4242 32.7029 10.4832C32.727 10.5423 32.737 10.6062 32.7319 10.6697C32.7269 10.7333 32.7071 10.7948 32.674 10.8494C32.641 10.9039 32.5956 10.95 32.5415 10.9838C31.6924 11.6661 30.6272 12.0223 29.5385 11.9881C27.1785 11.9881 25.4652 10.1955 25.4652 7.72597C25.4403 7.17779 25.5267 6.63024 25.7192 6.11637C25.9117 5.6025 26.2064 5.13298 26.5854 4.73615C26.9644 4.33931 27.4199 4.02339 27.9244 3.80747C28.4289 3.59154 28.9719 3.48008 29.5206 3.47981C30.0143 3.47009 30.5048 3.56051 30.9626 3.74562C31.4204 3.93072 31.8359 4.20667 32.1841 4.55681C32.5323 4.90694 32.8059 5.324 32.9884 5.78281C33.171 6.24161 33.2586 6.73265 33.2462 7.22627ZM27.4529 6.7555H31.3495C31.3089 6.29597 31.0919 5.87002 30.744 5.56701C30.3962 5.26401 29.9445 5.10748 29.4837 5.13027C29.0034 5.09895 28.5288 5.24831 28.1531 5.54903C27.7774 5.84974 27.5276 6.28007 27.4529 6.7555ZM41.6117 4.1235V11.7543C41.6117 14.1069 40.1631 15.5697 37.8314 15.5697C36.7991 15.5705 35.7997 15.207 35.0092 14.5432C34.931 14.4757 34.8784 14.3833 34.86 14.2817C34.8416 14.18 34.8587 14.0751 34.9083 13.9844L35.3206 13.2275C35.3485 13.168 35.3891 13.1155 35.4396 13.0736C35.4902 13.0317 35.5493 13.0014 35.6129 12.985C35.6789 12.9716 35.7471 12.9729 35.8125 12.9888C35.8779 13.0048 35.939 13.035 35.9914 13.0774C36.4925 13.5186 37.1304 13.7737 37.7975 13.7998C38.6591 13.7998 39.6862 13.4454 39.6862 11.7555V11.4823C39.0873 11.7985 38.4229 11.9708 37.7458 11.9857C35.5391 11.9857 33.8074 10.1137 33.8074 7.7235C33.8074 5.3432 35.4978 3.47735 37.656 3.47735C38.5614 3.46893 39.4405 3.78158 40.1372 4.35981L40.2935 3.98258C40.336 3.85335 40.4043 3.65027 40.6714 3.65027H41.1366C41.2616 3.65247 41.3809 3.70298 41.4695 3.7912C41.558 3.87943 41.609 3.99852 41.6117 4.1235ZM37.8831 5.30258C37.5799 5.31372 37.282 5.38597 37.0074 5.515C36.7328 5.64403 36.4871 5.82719 36.285 6.05349C36.0829 6.27979 35.9285 6.54457 35.8313 6.83196C35.734 7.11935 35.6957 7.42343 35.7188 7.72597C35.7007 8.34333 35.9238 8.94346 36.3406 9.39917C36.7575 9.85488 37.3355 10.1303 37.952 10.1672C38.5816 10.1485 39.1913 9.94263 39.7034 9.57581V6.35366C39.5075 6.04438 39.2396 5.78719 38.9226 5.60413C38.6055 5.42107 38.2489 5.3176 37.8831 5.30258ZM44.6234 3.65397H43.6591C43.535 3.65692 43.4169 3.70743 43.329 3.79505C43.2412 3.88267 43.1904 4.0007 43.1871 4.12473V11.3247C43.1874 11.4498 43.2373 11.5696 43.3257 11.6579C43.4142 11.7463 43.5341 11.796 43.6591 11.7961H44.6234C44.7475 11.793 44.8656 11.7424 44.9535 11.6546C45.0413 11.5669 45.0921 11.4488 45.0954 11.3247V4.1235C45.0888 4.00068 45.0369 3.88467 44.9497 3.79793C44.8625 3.71119 44.7462 3.65989 44.6234 3.65397ZM44.1409 0.0619657C43.9766 0.0624101 43.814 0.0956547 43.6627 0.15975C43.5114 0.223846 43.3745 0.317503 43.2598 0.43523C43.1452 0.552957 43.0552 0.692385 42.9952 0.845339C42.9351 0.998293 42.9062 1.1617 42.9102 1.32597C42.9082 1.65446 43.0367 1.9703 43.2675 2.20408C43.4983 2.43786 43.8124 2.57046 44.1409 2.57273C44.4739 2.57273 44.7932 2.44047 45.0286 2.20504C45.264 1.96961 45.3963 1.6503 45.3963 1.31735C45.3963 0.984402 45.264 0.66509 45.0286 0.429659C44.7932 0.194229 44.4739 0.0619657 44.1409 0.0619657ZM49.3483 6.84658C48.5015 6.47735 48.0431 6.1955 48.0431 5.7592C48.0431 5.4515 48.3286 5.14381 48.9662 5.14381C49.5446 5.15419 50.114 5.28893 50.6357 5.53889C50.6903 5.56866 50.7504 5.58716 50.8123 5.5933C50.8742 5.59943 50.9367 5.59307 50.9961 5.57458C51.0555 5.5561 51.1106 5.52588 51.1581 5.48571C51.2056 5.44554 51.2445 5.39624 51.2726 5.34074L51.5477 4.78997C51.6033 4.66751 51.6133 4.52924 51.5759 4.40005C51.5386 4.27087 51.4563 4.15927 51.344 4.08535C50.6214 3.67199 49.7996 3.46408 48.9674 3.48412C47.0818 3.48412 46.2382 4.62135 46.2382 5.74812C46.2382 7.15797 47.2997 7.83058 48.4468 8.3475C49.5662 8.85458 50.0985 9.17704 50.0985 9.63981C50.0985 10.0614 49.7292 10.3235 49.1397 10.3235C48.464 10.3206 47.8029 10.1274 47.232 9.76597L47.2031 9.74997C47.1438 9.71237 47.0774 9.68749 47.008 9.6769C46.9386 9.6663 46.8678 9.67023 46.8 9.68843C46.7472 9.70323 46.698 9.72888 46.6556 9.76373C46.6132 9.79859 46.5786 9.8419 46.5538 9.89089L46.1926 10.6294C46.1504 10.7226 46.1441 10.8282 46.1749 10.9258C46.2056 11.0235 46.2713 11.1063 46.3594 11.1586C47.1464 11.6966 48.0775 11.9844 49.0308 11.9844C50.9575 11.9844 51.9662 10.7678 51.9662 9.56597C51.9717 8.07181 50.9323 7.51981 49.3483 6.84904V6.84658ZM57.7877 10.0152C57.7671 9.95499 57.7338 9.89992 57.6901 9.85373C57.6463 9.80753 57.5932 9.77131 57.5342 9.7475C57.4764 9.73013 57.4156 9.72564 57.3559 9.73436C57.2963 9.74307 57.2393 9.76479 57.1889 9.79797C56.8163 10.0227 56.393 10.1497 55.9582 10.1672C55.6708 10.1672 55.4129 10.1118 55.4129 9.44904V5.30258H57.4228C57.5469 5.29947 57.665 5.24883 57.7529 5.16111C57.8407 5.07339 57.8915 4.95529 57.8948 4.8312V4.1235C57.8954 4.06142 57.8835 3.99984 57.86 3.94238C57.8365 3.88492 57.8017 3.83274 57.7577 3.78889C57.7138 3.74505 57.6615 3.71042 57.604 3.68704C57.5465 3.66366 57.4849 3.652 57.4228 3.65274H55.416V1.52289C55.4177 1.46197 55.4073 1.40131 55.3853 1.34447C55.3633 1.28763 55.3302 1.23575 55.2879 1.19186C55.2456 1.14796 55.195 1.11295 55.139 1.08885C55.083 1.06475 55.0228 1.05205 54.9619 1.0515H53.9772C53.8524 1.05183 53.7327 1.10162 53.6445 1.18997C53.5563 1.27832 53.5066 1.39803 53.5065 1.52289V3.65397H52.6874C52.6249 3.65165 52.5626 3.66223 52.5043 3.68505C52.4461 3.70787 52.3932 3.74244 52.3489 3.78661C52.3046 3.83078 52.2699 3.8836 52.2469 3.94177C52.224 3.99994 52.2132 4.06223 52.2154 4.12473V4.8312C52.2157 4.95622 52.2656 5.07602 52.354 5.16437C52.4425 5.25272 52.5624 5.30242 52.6874 5.30258H53.5083V9.51797C53.5083 10.6681 53.7477 11.9881 55.6166 11.9881C56.4042 11.9786 57.1778 11.7786 57.8714 11.4054C57.9767 11.3575 58.0592 11.2706 58.1015 11.1629C58.1437 11.0553 58.1424 10.9354 58.0978 10.8287L57.7877 10.0152ZM64.2 3.93274C63.9895 3.59797 63.2769 3.47858 62.6775 3.47858C62.2287 3.47956 61.785 3.57509 61.3756 3.75894C60.9661 3.9428 60.5999 4.21086 60.3009 4.54566L60.1311 4.00043C60.1069 3.9028 60.0513 3.81585 59.9727 3.753C59.8942 3.69016 59.7972 3.65492 59.6966 3.65274H59.2837C59.1596 3.65554 59.0414 3.706 58.9535 3.79366C58.8656 3.88131 58.8148 3.99942 58.8117 4.1235V11.3235C58.812 11.4485 58.8619 11.5683 58.9503 11.6567C59.0388 11.745 59.1587 11.7947 59.2837 11.7949H60.0757C60.3323 11.7949 60.72 11.7949 60.72 11.3235V6.30135C60.9135 6.00202 61.1773 5.75453 61.4883 5.58045C61.7994 5.40638 62.1483 5.31098 62.5046 5.30258C62.739 5.30811 62.9703 5.35758 63.1865 5.44843C63.2385 5.47527 63.2954 5.49133 63.3537 5.49567C63.4121 5.5 63.4708 5.49252 63.5262 5.47366C63.586 5.45129 63.6407 5.41686 63.6868 5.37251C63.7328 5.32816 63.7693 5.27482 63.7938 5.21581L64.2068 4.35427C64.2431 4.29017 64.2617 4.2175 64.2605 4.14381C64.2593 4.07012 64.2384 3.99809 64.2 3.9352V3.93274ZM70.8751 7.08597V11.3247C70.872 11.4488 70.8213 11.5669 70.7336 11.6546C70.6458 11.7423 70.5277 11.793 70.4037 11.7961H69.8351C69.608 11.7961 69.5058 11.6632 69.4222 11.4638L69.2782 11.057C68.623 11.6611 67.7625 11.9931 66.8714 11.9857C66.5106 12.0008 66.1508 11.9394 65.8154 11.8056C65.4801 11.6718 65.1768 11.4686 64.9256 11.2092C64.6743 10.9499 64.4808 10.6404 64.3576 10.301C64.2345 9.96153 64.1846 9.5999 64.2111 9.23981C64.2111 7.62443 65.4991 6.58012 67.4917 6.58012C68.0025 6.5876 68.5104 6.65871 69.0037 6.79181C69.0688 6.32102 68.949 5.84332 68.6695 5.45889C68.5543 5.3569 68.4194 5.27952 68.2731 5.23148C68.1269 5.18344 67.9724 5.16575 67.8191 5.1795C67.073 5.20305 66.3337 5.32937 65.6222 5.55489C65.5588 5.56992 65.4931 5.57138 65.4292 5.55916C65.3652 5.54695 65.3046 5.52134 65.2513 5.48402C65.198 5.4467 65.1532 5.39851 65.1199 5.34263C65.0865 5.28675 65.0654 5.22445 65.0578 5.15981L64.9034 4.50504C64.8849 4.44668 64.8784 4.38516 64.8845 4.32423C64.8905 4.2633 64.9089 4.20423 64.9385 4.15063C64.968 4.09702 65.0082 4.05001 65.0566 4.01244C65.1049 3.97488 65.1604 3.94755 65.2197 3.93212C66.1119 3.63118 67.0473 3.47798 67.9889 3.47858C70.6585 3.48104 70.8751 5.11489 70.8751 7.08843V7.08597ZM68.984 9.48597V8.24658C68.5505 8.08719 68.092 8.00634 67.6302 8.00781C66.7071 8.00781 66.0855 8.49704 66.0855 9.22504C66.0718 9.38006 66.092 9.53621 66.1446 9.68267C66.1972 9.82913 66.281 9.96241 66.3903 10.0733C66.4995 10.1841 66.6315 10.2699 66.7771 10.3247C66.9228 10.3795 67.0786 10.402 67.2338 10.3906C67.5728 10.3739 67.9044 10.2851 68.2063 10.13C68.5082 9.97499 68.7736 9.7573 68.9846 9.4915L68.984 9.48597ZM77.0406 10.0121C77.0201 9.95191 76.9868 9.89684 76.943 9.85065C76.8993 9.80446 76.8461 9.76823 76.7871 9.74443C76.7294 9.72705 76.6685 9.72256 76.6089 9.73128C76.5492 9.74 76.4922 9.76171 76.4419 9.79489C76.0692 10.0196 75.6459 10.1466 75.2111 10.1641C74.9237 10.1641 74.6658 10.1087 74.6658 9.44597V5.30258H76.6769C76.801 5.29947 76.9192 5.24883 77.007 5.16111C77.0949 5.07339 77.1457 4.95529 77.1489 4.8312V4.1235C77.1495 4.06142 77.1377 3.99984 77.1141 3.94238C77.0906 3.88492 77.0559 3.83274 77.0119 3.78889C76.9679 3.74505 76.9157 3.71042 76.8581 3.68704C76.8006 3.66366 76.739 3.652 76.6769 3.65274H74.6671V1.52289C74.6688 1.46197 74.6584 1.40131 74.6364 1.34447C74.6144 1.28763 74.5812 1.23575 74.539 1.19186C74.4967 1.14796 74.4461 1.11295 74.3901 1.08885C74.3341 1.06475 74.2739 1.05205 74.2129 1.0515H73.2308C73.1058 1.05167 72.986 1.10138 72.8976 1.18975C72.8093 1.27812 72.7596 1.39792 72.7594 1.52289V3.65397H71.9385C71.876 3.65174 71.8137 3.66238 71.7555 3.68524C71.6973 3.70809 71.6445 3.74267 71.6002 3.78681C71.5559 3.83096 71.5212 3.88375 71.4982 3.94188C71.4752 4.00001 71.4644 4.06225 71.4665 4.12473V4.8312C71.4668 4.95622 71.5166 5.07602 71.6051 5.16437C71.6936 5.25272 71.8134 5.30242 71.9385 5.30258H72.7594V9.51797C72.7594 10.6681 72.9994 11.9881 74.8677 11.9881C75.6553 11.9786 76.4289 11.7786 77.1225 11.4054C77.2277 11.3575 77.3103 11.2706 77.3525 11.1629C77.3948 11.0553 77.3935 10.9354 77.3489 10.8287L77.0406 10.0121ZM79.5022 3.64843H78.5378C78.4138 3.65138 78.2956 3.70189 78.2078 3.78951C78.1199 3.87713 78.0691 3.99516 78.0659 4.1192V11.3192C78.0662 11.4442 78.116 11.564 78.2045 11.6524C78.293 11.7407 78.4128 11.7904 78.5378 11.7906H79.5022C79.6262 11.7875 79.7444 11.7368 79.8323 11.6491C79.9201 11.5614 79.9709 11.4433 79.9742 11.3192V4.1235C79.9675 4.00018 79.9152 3.88375 79.8273 3.79693C79.7395 3.71012 79.6225 3.65914 79.4991 3.65397L79.5022 3.64843ZM79.0154 0.0619657C78.8511 0.0624101 78.6885 0.0956547 78.5372 0.15975C78.3859 0.223846 78.2489 0.317503 78.1343 0.43523C78.0196 0.552957 77.9297 0.692385 77.8696 0.845339C77.8096 0.998293 77.7807 1.1617 77.7846 1.32597C77.7827 1.65446 77.9112 1.9703 78.142 2.20408C78.3727 2.43786 78.6869 2.57046 79.0154 2.57273C79.3483 2.57273 79.6676 2.44047 79.9031 2.20504C80.1385 1.96961 80.2708 1.6503 80.2708 1.31735C80.2708 0.984402 80.1385 0.66509 79.9031 0.429659C79.6676 0.194229 79.3483 0.0619657 79.0154 0.0619657ZM89.3022 7.70627C89.3055 8.81869 88.8745 9.88848 88.1008 10.6878C87.3271 11.4871 86.2719 11.9528 85.16 11.9857C84.3151 12.008 83.4827 11.7782 82.7689 11.3256C82.0551 10.873 81.4923 10.218 81.1523 9.44424C80.8122 8.67048 80.7103 7.81296 80.8596 6.98105C81.0088 6.14913 81.4024 5.38052 81.9903 4.77322C82.5781 4.16592 83.3335 3.74745 84.1601 3.57117C84.9867 3.3949 85.8471 3.46881 86.6315 3.78347C87.4159 4.09814 88.0889 4.6393 88.5645 5.33795C89.0402 6.03661 89.297 6.86109 89.3022 7.70627ZM85.16 5.30012C84.8499 5.30126 84.5432 5.3652 84.2585 5.48807C83.9738 5.61094 83.7169 5.7902 83.5033 6.01504C83.2897 6.23988 83.1239 6.50565 83.0158 6.79631C82.9078 7.08698 82.8597 7.39652 82.8745 7.70627C82.8503 8.02005 82.8911 8.33544 82.9946 8.63265C83.098 8.92987 83.2618 9.2025 83.4756 9.43343C83.6894 9.66436 83.9486 9.84861 84.237 9.97462C84.5254 10.1006 84.8367 10.1657 85.1514 10.1657C85.4661 10.1657 85.7774 10.1006 86.0658 9.97462C86.3542 9.84861 86.6134 9.66436 86.8272 9.43343C87.041 9.2025 87.2047 8.92987 87.3082 8.63265C87.4116 8.33544 87.4525 8.02005 87.4283 7.70627C87.4438 7.39799 87.3969 7.08976 87.2902 6.80011C87.1835 6.51046 87.0193 6.24538 86.8075 6.02083C86.5957 5.79628 86.3407 5.61689 86.0578 5.49346C85.7749 5.37002 85.4699 5.3051 85.1612 5.30258L85.16 5.30012ZM94.5139 3.47858C93.5363 3.46269 92.5912 3.82924 91.88 4.50012L91.6923 3.96474C91.6727 3.87074 91.6195 3.7871 91.5428 3.72945C91.466 3.67181 91.3708 3.6441 91.2751 3.6515H90.8615C90.7375 3.65446 90.6193 3.70497 90.5315 3.79259C90.4436 3.88021 90.3928 3.99824 90.3895 4.12227V11.3223C90.3913 11.4469 90.4416 11.5658 90.5298 11.6539C90.6179 11.7419 90.737 11.7921 90.8615 11.7937H91.7403C92.1151 11.7937 92.2978 11.6398 92.2978 11.3223V6.38504C92.5132 6.04874 92.8107 5.77286 93.1622 5.58347C93.5138 5.39407 93.9078 5.2974 94.3071 5.30258C95.2591 5.30258 95.784 5.99858 95.784 7.26074V11.3272C95.7842 11.4522 95.8339 11.572 95.9222 11.6603C96.0106 11.7487 96.1304 11.7984 96.2554 11.7986H97.2203C97.3444 11.7955 97.4626 11.7448 97.5504 11.6571C97.6382 11.5694 97.689 11.4513 97.6923 11.3272V7.3272C97.6948 4.73889 96.6548 3.48104 94.5169 3.48104L94.5139 3.47858ZM101.869 6.84658C101.022 6.47735 100.564 6.1955 100.564 5.7592C100.564 5.4515 100.849 5.14381 101.487 5.14381C102.064 5.15231 102.633 5.28473 103.155 5.53212C103.21 5.56191 103.27 5.58042 103.332 5.58656C103.394 5.5927 103.456 5.58634 103.516 5.56786C103.575 5.54938 103.63 5.51916 103.678 5.47898C103.725 5.43881 103.764 5.38949 103.793 5.33397L104.068 4.7832C104.124 4.66065 104.134 4.52237 104.096 4.39321C104.059 4.26405 103.976 4.15249 103.864 4.07858C103.141 3.665 102.319 3.45708 101.487 3.47735C99.6025 3.47735 98.7588 4.61458 98.7588 5.74135C98.7588 7.1512 99.8197 7.82381 100.967 8.34073C102.086 8.8472 102.618 9.17027 102.618 9.63304C102.618 10.0546 102.249 10.3167 101.66 10.3167C100.984 10.314 100.323 10.1205 99.752 9.75858L99.7237 9.7432C99.6644 9.70541 99.5979 9.68042 99.5283 9.66982C99.4588 9.65923 99.3879 9.66326 99.32 9.68166C99.2678 9.69684 99.2193 9.72267 99.1776 9.75752C99.1359 9.79236 99.1018 9.83547 99.0775 9.88412L98.7169 10.6226C98.6745 10.7159 98.668 10.8215 98.6987 10.9193C98.7293 11.0171 98.795 11.1001 98.8831 11.1524C99.6701 11.6904 100.601 11.9783 101.554 11.9783C103.482 11.9783 104.49 10.7617 104.49 9.55981C104.492 8.07181 103.456 7.51981 101.872 6.84904L101.869 6.84658ZM16 8.00043C16 14.4004 14.4 16.0004 8 16.0004C1.6 16.0004 0 14.4004 0 8.00043C0 1.60043 1.6 0.000427246 8 0.000427246C14.4 0.000427246 16 1.60043 16 8.00043ZM8.72123 10.6515L5.34892 7.27981C5.33712 7.26779 5.32305 7.25824 5.30751 7.25173C5.29198 7.24521 5.27531 7.24185 5.25846 7.24185C5.24162 7.24185 5.22494 7.24521 5.20941 7.25173C5.19388 7.25824 5.1798 7.26779 5.168 7.27981L3.57538 8.87243C3.53789 8.90986 3.50815 8.95433 3.48785 9.00327C3.46756 9.05221 3.45711 9.10468 3.45711 9.15766C3.45711 9.21064 3.46756 9.26311 3.48785 9.31205C3.50815 9.36099 3.53789 9.40545 3.57538 9.44289L4.13477 10.0017C4.16307 10.0289 4.19978 10.0458 4.23891 10.0495C4.27804 10.0532 4.31726 10.0435 4.35015 10.022C4.57688 9.8866 4.84229 9.83079 5.10433 9.86336C5.36637 9.89593 5.61004 10.015 5.79673 10.2018C5.98341 10.3885 6.10242 10.6323 6.13489 10.8943C6.16737 11.1564 6.11145 11.4218 5.976 11.6484C5.9546 11.6814 5.94497 11.7206 5.94865 11.7597C5.95234 11.7988 5.96913 11.8355 5.99631 11.8638L6.55754 12.425C6.59498 12.4625 6.63944 12.4923 6.68838 12.5126C6.73732 12.5329 6.78979 12.5433 6.84277 12.5433C6.89575 12.5433 6.94822 12.5329 6.99716 12.5126C7.0461 12.4923 7.09056 12.4625 7.128 12.425L8.72123 10.8312C8.74483 10.8072 8.75806 10.775 8.75806 10.7414C8.75806 10.7077 8.74483 10.6755 8.72123 10.6515ZM12.4246 6.55797L11.8615 5.99489C11.8333 5.96792 11.7969 5.95119 11.7581 5.9474C11.7192 5.9436 11.6803 5.95296 11.6474 5.97397C11.421 6.10611 11.1572 6.15955 10.8972 6.12595C10.6372 6.09234 10.3957 5.97359 10.2104 5.78823C10.025 5.60287 9.90624 5.36134 9.87264 5.10136C9.83903 4.84138 9.89248 4.5776 10.0246 4.3512C10.0455 4.31828 10.0548 4.27932 10.051 4.24052C10.0472 4.20171 10.0306 4.16529 10.0037 4.13704L9.44246 3.57581C9.40502 3.53832 9.36056 3.50857 9.31162 3.48828C9.26268 3.46799 9.21021 3.45754 9.15723 3.45754C9.10425 3.45754 9.05178 3.46799 9.00284 3.48828C8.9539 3.50857 8.90944 3.53832 8.872 3.57581L5.96923 6.48043C5.95721 6.49223 5.94766 6.50631 5.94115 6.52184C5.93463 6.53737 5.93127 6.55404 5.93127 6.57089C5.93127 6.58773 5.93463 6.60441 5.94115 6.61994C5.94766 6.63547 5.95721 6.64955 5.96923 6.66135L9.34092 10.0337C9.36492 10.0576 9.39746 10.0711 9.43139 10.0711C9.46531 10.0711 9.49785 10.0576 9.52185 10.0337L12.4265 7.12843C12.4638 7.09087 12.4934 7.04631 12.5136 6.9973C12.5337 6.94829 12.544 6.8958 12.5438 6.84281C12.5436 6.78983 12.533 6.7374 12.5126 6.68852C12.4921 6.63965 12.4622 6.59528 12.4246 6.55797Z" fill="black"/>
</svg>
