<svg width="87" height="16" viewBox="0 0 87 16" fill="none" xmlns="http://www.w3.org/2000/svg">
<g clip-path="url(#clip0)">
<path d="M26.9471 4.34877L26.5335 5.21177C26.5088 5.27082 26.4722 5.3242 26.4261 5.36861C26.38 5.41303 26.3253 5.44755 26.2654 5.47005C26.21 5.48898 26.1515 5.4966 26.0931 5.49247C26.0348 5.48834 25.9778 5.47254 25.9257 5.44601C25.7089 5.35516 25.4771 5.30561 25.2421 5.29992C24.8852 5.30849 24.5358 5.40412 24.2242 5.57847C23.9127 5.75283 23.6484 6.00065 23.4545 6.30038V11.3329C23.4545 11.8051 23.0667 11.8051 22.8103 11.8051H22.0139C21.8892 11.8033 21.7701 11.753 21.6819 11.6648C21.5938 11.5767 21.5434 11.4576 21.5417 11.3329V4.11823C21.5448 3.99404 21.5956 3.87581 21.6835 3.78803C21.7714 3.70024 21.8897 3.64963 22.0139 3.64666H22.4281C22.5288 3.64889 22.626 3.68411 22.7047 3.74692C22.7834 3.80973 22.8394 3.89665 22.8639 3.99432L23.0347 4.54541C23.3312 4.20651 23.6971 3.93538 24.1077 3.75042C24.5182 3.56545 24.9638 3.47099 25.4141 3.47344C26.0139 3.47344 26.7289 3.59303 26.9397 3.92837C26.9784 3.99138 26.9995 4.06362 27.0008 4.13756C27.0021 4.2115 26.9836 4.28443 26.9471 4.34877ZM34.6204 7.22502C34.6204 7.3668 34.6019 7.64604 34.5841 7.78905C34.575 7.90379 34.5235 8.01102 34.4396 8.08979C34.3557 8.16857 34.2454 8.21321 34.1304 8.21501H28.7206C28.7871 8.77102 29.0578 9.28249 29.4802 9.65017C29.9026 10.0179 30.4464 10.2155 31.0063 10.2048C31.6954 10.2111 32.3656 9.97942 32.9037 9.54895C33.0032 9.46371 33.1324 9.42118 33.2631 9.4306C33.3124 9.44254 33.3589 9.46438 33.3996 9.49479C33.4402 9.5252 33.4743 9.56355 33.4998 9.60752L33.9664 10.3337C34.0145 10.3757 34.0522 10.4284 34.0763 10.4875C34.1004 10.5467 34.1104 10.6106 34.1053 10.6743C34.1003 10.738 34.0804 10.7996 34.0473 10.8543C34.0142 10.9089 33.9688 10.955 33.9146 10.9889C33.063 11.6732 31.9946 12.03 30.9028 11.9949C28.5388 11.9949 26.8226 10.1993 26.8226 7.72556C26.7978 7.17671 26.8844 6.62852 27.0773 6.11405C27.2701 5.59958 27.5651 5.1295 27.9445 4.73215C28.324 4.3348 28.7799 4.01842 29.285 3.80209C29.79 3.58576 30.3336 3.47396 30.883 3.47344C31.3779 3.46304 31.8697 3.55308 32.3288 3.73811C32.7879 3.92315 33.2047 4.19934 33.554 4.54999C33.9033 4.90065 34.1779 5.31849 34.3612 5.77827C34.5445 6.23804 34.6327 6.73021 34.6204 7.22502ZM28.8174 6.75346H32.7206C32.6799 6.29303 32.4624 5.86627 32.1138 5.56273C31.7652 5.25919 31.3126 5.10247 30.851 5.12547C30.37 5.09411 29.8947 5.24375 29.5184 5.54498C29.1421 5.84621 28.8921 6.27727 28.8174 6.75346ZM38.3184 6.84715C37.4702 6.4773 37.0109 6.19497 37.0109 5.75792C37.0109 5.44971 37.2963 5.1415 37.9356 5.1415C38.514 5.15008 39.0839 5.28272 39.6067 5.53046C39.6614 5.5604 39.7215 5.57903 39.7835 5.58526C39.8455 5.59149 39.9081 5.58519 39.9677 5.56673C40.0272 5.54827 40.0824 5.51803 40.13 5.47781C40.1776 5.43758 40.2166 5.3882 40.2447 5.33259L40.5209 4.7778C40.5753 4.65529 40.5844 4.51743 40.5466 4.38882C40.5088 4.26021 40.4265 4.14923 40.3144 4.07569C39.5914 3.66189 38.769 3.45364 37.9362 3.47344C36.0481 3.47344 35.203 4.6126 35.203 5.74128C35.203 7.15352 36.2663 7.82727 37.4153 8.34507C38.5354 8.85301 39.0686 9.17602 39.0686 9.63957C39.0686 10.0618 38.6987 10.3244 38.1088 10.3244C37.4319 10.3216 36.7695 10.1278 36.1979 9.76532L36.1695 9.74991C36.1102 9.71192 36.0435 9.6868 35.9739 9.67619C35.9042 9.66557 35.8331 9.66968 35.7651 9.68827C35.713 9.70352 35.6645 9.72941 35.6228 9.76432C35.5811 9.79922 35.5471 9.84238 35.5229 9.89107L35.161 10.6308C35.1184 10.7242 35.1118 10.8301 35.1425 10.9281C35.1733 11.026 35.2391 11.1092 35.3275 11.1615C36.1158 11.7004 37.0485 11.9888 38.0034 11.9888C39.934 11.9888 40.9438 10.7701 40.9438 9.56622C40.9456 8.07199 39.9051 7.51906 38.3184 6.84715ZM49.7291 7.71015C49.7325 8.82435 49.3008 9.89586 48.5259 10.6965C47.751 11.4972 46.6942 11.9637 45.5805 11.9968C44.7342 12.0193 43.9003 11.7892 43.1852 11.3359C42.4701 10.8826 41.9063 10.2266 41.5656 9.45151C41.2248 8.67645 41.1227 7.81746 41.2721 6.9841C41.4215 6.15074 41.8158 5.38076 42.4046 4.77237C42.9934 4.16398 43.75 3.74473 44.5781 3.56811C45.4061 3.39148 46.268 3.46548 47.0538 3.78065C47.8396 4.09583 48.5137 4.63791 48.9902 5.33776C49.4666 6.03761 49.7239 6.86351 49.7291 7.71015ZM45.5805 5.29992C45.2699 5.30106 44.9627 5.36511 44.6775 5.48818C44.3923 5.61126 44.135 5.79083 43.921 6.01605C43.7071 6.24127 43.541 6.50749 43.4327 6.79865C43.3245 7.0898 43.2763 7.39987 43.2911 7.71015C43.268 8.02377 43.3099 8.33877 43.4141 8.63548C43.5182 8.9322 43.6825 9.20424 43.8965 9.43461C44.1105 9.66498 44.3698 9.84874 44.6581 9.97439C44.9463 10.1 45.2574 10.1649 45.5719 10.1649C45.8864 10.1649 46.1974 10.1 46.4857 9.97439C46.774 9.84874 47.0332 9.66498 47.2473 9.43461C47.4613 9.20424 47.6256 8.9322 47.7297 8.63548C47.8339 8.33877 47.8757 8.02377 47.8527 7.71015C47.8688 7.40089 47.8222 7.09157 47.7155 6.80084C47.6088 6.51011 47.4444 6.244 47.232 6.01859C47.0197 5.79317 46.7639 5.61311 46.48 5.48927C46.1962 5.36544 45.8902 5.3004 45.5805 5.29807V5.29992ZM57.284 3.64666H56.4031C56.1288 3.64666 55.8619 3.68303 55.8619 4.11823V8.93376C55.7287 9.29683 55.4871 9.6102 55.1699 9.83147C54.8527 10.0527 54.4752 10.1712 54.0885 10.1709C53.0917 10.1709 52.6275 9.59704 52.6275 8.3648V4.11823C52.6244 3.99404 52.5736 3.87581 52.4857 3.78803C52.3978 3.70024 52.2795 3.64963 52.1553 3.64666H51.1912C51.0681 3.65263 50.9515 3.70421 50.8642 3.79137C50.7769 3.87853 50.7252 3.99504 50.7191 4.11823V8.24336C50.7191 9.99032 51.0667 11.9949 53.7809 11.9949C54.2426 12.012 54.7028 11.931 55.131 11.7573C55.5592 11.5836 55.9457 11.3211 56.2651 10.9871L56.421 11.4186C56.4907 11.6109 56.5992 11.8075 56.8698 11.8075H57.284C57.4113 11.8077 57.5336 11.7586 57.6255 11.6706C57.7174 11.5826 57.7718 11.4625 57.7772 11.3354V4.11823C57.77 3.99178 57.7151 3.87276 57.6236 3.78523C57.532 3.6977 57.4107 3.64817 57.284 3.64666ZM64.736 3.92837C64.5252 3.59303 63.8114 3.47344 63.211 3.47344C62.7614 3.47446 62.317 3.57017 61.9068 3.75433C61.4966 3.9385 61.1298 4.20699 60.8303 4.54233L60.6608 3.99494C60.6364 3.89725 60.5806 3.81026 60.502 3.74735C60.4234 3.68443 60.3263 3.64906 60.2256 3.64666H59.8114C59.6871 3.64962 59.5688 3.70022 59.4808 3.78798C59.3928 3.87575 59.3419 3.99398 59.3386 4.11823V11.3304C59.3389 11.4557 59.3888 11.5757 59.4775 11.6642C59.5661 11.7527 59.6861 11.8025 59.8114 11.8026H60.6047C60.8618 11.8026 61.2501 11.8026 61.2501 11.3304V6.29853C61.444 5.99869 61.7082 5.75079 62.0198 5.57641C62.3313 5.40204 62.6808 5.30648 63.0378 5.29807C63.2729 5.3037 63.505 5.35325 63.722 5.44416C63.7739 5.47091 63.8307 5.48693 63.8889 5.49128C63.9472 5.49562 64.0057 5.48819 64.061 5.46944C64.121 5.44703 64.1758 5.41254 64.2219 5.36811C64.268 5.32369 64.3045 5.27026 64.3292 5.21115L64.7434 4.34815C64.7796 4.28385 64.798 4.21105 64.7967 4.13726C64.7954 4.06346 64.7745 3.99136 64.736 3.92837ZM71.2344 9.17232C71.1894 9.13075 71.1364 9.09871 71.0787 9.07809C71.021 9.05748 70.9597 9.04872 70.8985 9.05235C70.8373 9.05597 70.7775 9.07191 70.7226 9.09919C70.6678 9.12648 70.6189 9.16456 70.5791 9.21115C70.5144 9.26971 70.4509 9.33444 70.3856 9.39608C70.1888 9.63731 69.9409 9.83181 69.6598 9.96549C69.3787 10.0992 69.0714 10.1687 68.7601 10.1691C68.4497 10.1606 68.1441 10.0903 67.8611 9.96242C67.5782 9.83454 67.3235 9.65159 67.112 9.42425C66.9005 9.19691 66.7364 8.92973 66.6292 8.63829C66.5221 8.34685 66.474 8.037 66.4879 7.7268C66.4779 7.41399 66.5304 7.10233 66.6423 6.81007C66.7543 6.51781 66.9234 6.25082 67.1398 6.02475C67.3562 5.79869 67.6156 5.61808 67.9027 5.49351C68.1898 5.36894 68.4989 5.30291 68.8118 5.2993C69.4168 5.3404 69.9819 5.61597 70.3868 6.06737C70.5193 6.19929 70.7431 6.4212 71.0322 6.15552L71.653 5.58656C71.705 5.54684 71.7485 5.49698 71.7808 5.44C71.8131 5.38302 71.8335 5.32008 71.8409 5.25499C71.8482 5.18991 71.8422 5.12401 71.8234 5.06128C71.8046 4.99855 71.7732 4.94028 71.7312 4.88999C71.3858 4.4329 70.9356 4.06551 70.4185 3.81878C69.9015 3.57204 69.3327 3.45318 68.7601 3.47221C67.6396 3.48506 66.5699 3.94172 65.7857 4.74206C65.0014 5.5424 64.5665 6.62108 64.5764 7.74159C64.5646 8.29605 64.6637 8.84727 64.8679 9.36291C65.072 9.87856 65.3771 10.3482 65.7651 10.7444C66.1532 11.1406 66.6165 11.4553 67.1278 11.67C67.6392 11.8848 68.1882 11.9952 68.7428 11.9949C69.374 12.0054 69.9975 11.855 70.5545 11.5579C71.1116 11.2608 71.5838 10.8268 71.9267 10.2967C72.0308 10.1401 72.0894 9.89354 71.7688 9.60443L71.2344 9.17232ZM80.127 7.22502C80.127 7.3668 80.1091 7.64604 80.0906 7.78905C80.0816 7.90379 80.0301 8.01102 79.9462 8.08979C79.8623 8.16857 79.752 8.21321 79.6369 8.21501H74.2278C74.2942 8.77107 74.5648 9.28262 74.9872 9.65033C75.4096 10.018 75.9536 10.2157 76.5135 10.2048C77.2024 10.211 77.8723 9.97933 78.4102 9.54895C78.51 9.46373 78.6393 9.42121 78.7702 9.4306C78.8195 9.44271 78.8659 9.46461 78.9066 9.495C78.9472 9.5254 78.9814 9.56366 79.0069 9.60752L79.473 10.3337C79.5211 10.3757 79.5587 10.4284 79.5829 10.4875C79.607 10.5467 79.6169 10.6106 79.6119 10.6743C79.6069 10.738 79.587 10.7996 79.5539 10.8543C79.5208 10.9089 79.4753 10.955 79.4212 10.9889C78.5698 11.6731 77.5016 12.03 76.4099 11.9949C75.8562 12.0012 75.307 11.8936 74.7966 11.6788C74.2861 11.464 73.8252 11.1466 73.4426 10.7463C73.0599 10.3459 72.7636 9.8712 72.5721 9.35157C72.3806 8.83194 72.2979 8.27848 72.3292 7.72556C72.3042 7.1764 72.3908 6.62787 72.5836 6.11309C72.7765 5.59832 73.0717 5.12797 73.4515 4.73045C73.8312 4.33293 74.2875 4.01649 74.7929 3.80024C75.2983 3.58398 75.8423 3.47239 76.3921 3.47221C76.8868 3.46214 77.3785 3.55246 77.8373 3.73772C78.2962 3.92299 78.7128 4.19934 79.0619 4.55009C79.4109 4.90085 79.6853 5.31872 79.8684 5.77847C80.0514 6.23823 80.1394 6.73032 80.127 7.22502ZM74.3239 6.75346H78.2247C78.184 6.29314 77.9666 5.86647 77.6181 5.56295C77.2697 5.25943 76.8172 5.10264 76.3557 5.12547C75.875 5.09473 75.4002 5.24464 75.0244 5.5458C74.6485 5.84697 74.3987 6.27767 74.3239 6.75346ZM83.8243 6.84715C82.9761 6.4773 82.5169 6.19497 82.5169 5.75792C82.5169 5.44971 82.8029 5.1415 83.4415 5.1415C84.02 5.14995 84.5899 5.2826 85.1127 5.53046C85.1674 5.56029 85.2275 5.57882 85.2895 5.58496C85.3515 5.5911 85.4142 5.58473 85.4737 5.56622C85.5332 5.54771 85.5883 5.51743 85.6359 5.4772C85.6835 5.43696 85.7225 5.38757 85.7507 5.33197L86.0262 4.78027C86.0819 4.65761 86.0919 4.5191 86.0545 4.3897C86.0171 4.26029 85.9347 4.1485 85.8222 4.07446C85.0984 3.6604 84.2751 3.45214 83.4415 3.47221C81.5528 3.47221 80.7077 4.61137 80.7077 5.74005C80.7077 7.15228 81.771 7.82604 82.92 8.34384C84.0407 8.85178 84.5745 9.17478 84.5745 9.63834C84.5745 10.0606 84.2047 10.3232 83.6141 10.3232C82.9373 10.3203 82.275 10.1267 81.7032 9.76471L81.6742 9.74868C81.6149 9.71102 81.5483 9.6861 81.4788 9.67549C81.4093 9.66487 81.3384 9.66881 81.2705 9.68703C81.2175 9.70176 81.1682 9.72741 81.1257 9.76234C81.0832 9.79727 81.0486 9.8407 81.0239 9.88984L80.662 10.6296C80.6198 10.723 80.6134 10.8287 80.6443 10.9265C80.6751 11.0243 80.7409 11.1074 80.8291 11.1597C81.6174 11.6986 82.5501 11.9869 83.505 11.9869C85.4351 11.9869 86.4454 10.7682 86.4454 9.56437C86.4521 8.07199 85.411 7.51906 83.8243 6.84715ZM15.9994 8.00049C15.9994 14.4002 14.3998 16.0005 8 16.0005C1.60025 16.0005 0 14.4002 0 8.00049C0 1.60073 1.60271 0.000488281 8 0.000488281C14.3973 0.000488281 15.9994 1.60073 15.9994 8.00049ZM7.38357 9.09896C7.38357 8.97112 7.33279 8.84851 7.24238 8.75811C7.15198 8.6677 7.02937 8.61692 6.90153 8.61692H4.78348C4.65563 8.61692 4.53302 8.6677 4.44262 8.75811C4.35222 8.84851 4.30143 8.97112 4.30143 9.09896V11.217C4.30143 11.3449 4.35222 11.4675 4.44262 11.5579C4.53302 11.6483 4.65563 11.6991 4.78348 11.6991H6.90399C7.03184 11.6991 7.15445 11.6483 7.24485 11.5579C7.33525 11.4675 7.38604 11.3449 7.38604 11.217L7.38357 9.09896ZM7.38357 4.78397C7.38357 4.65612 7.33279 4.53351 7.24238 4.44311C7.15198 4.35271 7.02937 4.30192 6.90153 4.30192H4.78348C4.65563 4.30192 4.53302 4.35271 4.44262 4.44311C4.35222 4.53351 4.30143 4.65612 4.30143 4.78397V6.90202C4.30143 7.02986 4.35222 7.15247 4.44262 7.24287C4.53302 7.33327 4.65563 7.38406 4.78348 7.38406H6.90399C7.03184 7.38406 7.15445 7.33327 7.24485 7.24287C7.33525 7.15247 7.38604 7.02986 7.38604 6.90202L7.38357 4.78397ZM11.6986 9.09896C11.6986 8.97112 11.6478 8.84851 11.5574 8.75811C11.467 8.6677 11.3444 8.61692 11.2165 8.61692H9.09848C8.97063 8.61692 8.84802 8.6677 8.75762 8.75811C8.66722 8.84851 8.61643 8.97112 8.61643 9.09896V11.217C8.61643 11.3449 8.66722 11.4675 8.75762 11.5579C8.84802 11.6483 8.97063 11.6991 9.09848 11.6991H11.219C11.3468 11.6991 11.4694 11.6483 11.5598 11.5579C11.6502 11.4675 11.701 11.3449 11.701 11.217L11.6986 9.09896ZM11.6986 4.78397C11.6986 4.65612 11.6478 4.53351 11.5574 4.44311C11.467 4.35271 11.3444 4.30192 11.2165 4.30192H9.09848C8.97063 4.30192 8.84802 4.35271 8.75762 4.44311C8.66722 4.53351 8.61643 4.65612 8.61643 4.78397V6.90202C8.61643 7.02986 8.66722 7.15247 8.75762 7.24287C8.84802 7.33327 8.97063 7.38406 9.09848 7.38406H11.219C11.3468 7.38406 11.4694 7.33327 11.5598 7.24287C11.6502 7.15247 11.701 7.02986 11.701 6.90202L11.6986 4.78397Z" fill="black"/>
</g>
<defs>
<clipPath id="clip0">
<rect width="87" height="16" fill="white" transform="translate(0 0.000427246)"/>
</clipPath>
</defs>
</svg>
