<svg width="87" height="16" viewBox="0 0 87 16" fill="none" xmlns="http://www.w3.org/2000/svg">
<path d="M26.9471 4.34883L26.5335 5.21183C26.5088 5.27088 26.4722 5.32426 26.4261 5.36867C26.38 5.41309 26.3253 5.44761 26.2654 5.47011C26.21 5.48904 26.1515 5.49666 26.0931 5.49253C26.0348 5.4884 25.9778 5.4726 25.9257 5.44607C25.7089 5.35522 25.4771 5.30567 25.2421 5.29998C24.8852 5.30855 24.5358 5.40418 24.2242 5.57854C23.9127 5.75289 23.6484 6.00071 23.4545 6.30044V11.333C23.4545 11.8051 23.0667 11.8051 22.8103 11.8051H22.0139C21.8892 11.8034 21.7701 11.7531 21.6819 11.6649C21.5938 11.5767 21.5434 11.4576 21.5417 11.333V4.11829C21.5448 3.9941 21.5956 3.87587 21.6835 3.78809C21.7714 3.7003 21.8897 3.64969 22.0139 3.64672H22.4281C22.5288 3.64895 22.626 3.68417 22.7047 3.74698C22.7834 3.80979 22.8394 3.89671 22.8639 3.99439L23.0347 4.54547C23.3312 4.20657 23.6971 3.93544 24.1077 3.75048C24.5182 3.56551 24.9638 3.47105 25.4141 3.4735C26.0139 3.4735 26.7289 3.59309 26.9397 3.92843C26.9784 3.99144 26.9995 4.06368 27.0008 4.13762C27.0021 4.21156 26.9836 4.28449 26.9471 4.34883ZM34.6204 7.22508C34.6204 7.36686 34.6019 7.6461 34.5841 7.78912C34.575 7.90385 34.5235 8.01108 34.4396 8.08985C34.3557 8.16863 34.2454 8.21327 34.1304 8.21507H28.7206C28.7871 8.77108 29.0578 9.28255 29.4802 9.65023C29.9026 10.0179 30.4464 10.2156 31.0063 10.2049C31.6954 10.2111 32.3656 9.97948 32.9037 9.54902C33.0032 9.46377 33.1324 9.42124 33.2631 9.43066C33.3124 9.4426 33.3589 9.46444 33.3996 9.49485C33.4402 9.52526 33.4743 9.56361 33.4998 9.60758L33.9664 10.3337C34.0145 10.3757 34.0522 10.4284 34.0763 10.4876C34.1004 10.5467 34.1104 10.6107 34.1053 10.6744C34.1003 10.7381 34.0804 10.7997 34.0473 10.8543C34.0142 10.909 33.9688 10.9551 33.9146 10.989C33.063 11.6733 31.9946 12.0301 30.9028 11.995C28.5388 11.995 26.8226 10.1993 26.8226 7.72562C26.7978 7.17677 26.8844 6.62858 27.0773 6.11411C27.2701 5.59964 27.5651 5.12956 27.9445 4.73221C28.324 4.33486 28.7799 4.01848 29.285 3.80215C29.79 3.58582 30.3336 3.47403 30.883 3.4735C31.3779 3.4631 31.8697 3.55314 32.3288 3.73817C32.7879 3.92321 33.2047 4.1994 33.554 4.55005C33.9033 4.90071 34.1779 5.31855 34.3612 5.77833C34.5445 6.2381 34.6327 6.73027 34.6204 7.22508ZM28.8174 6.75352H32.7206C32.6799 6.29309 32.4624 5.86633 32.1138 5.56279C31.7652 5.25925 31.3126 5.10254 30.851 5.12553C30.37 5.09417 29.8947 5.24381 29.5184 5.54504C29.1421 5.84627 28.8921 6.27733 28.8174 6.75352ZM38.3184 6.84721C37.4702 6.47736 37.0109 6.19503 37.0109 5.75799C37.0109 5.44977 37.2963 5.14156 37.9356 5.14156C38.514 5.15014 39.0839 5.28278 39.6067 5.53052C39.6614 5.56046 39.7215 5.57909 39.7835 5.58532C39.8455 5.59155 39.9081 5.58525 39.9677 5.56679C40.0272 5.54833 40.0824 5.51809 40.13 5.47787C40.1776 5.43764 40.2166 5.38826 40.2447 5.33265L40.5209 4.77787C40.5753 4.65535 40.5844 4.51749 40.5466 4.38888C40.5088 4.26027 40.4265 4.14929 40.3144 4.07575C39.5914 3.66196 38.769 3.4537 37.9362 3.4735C36.0481 3.4735 35.203 4.61266 35.203 5.74134C35.203 7.15358 36.2663 7.82733 37.4153 8.34513C38.5354 8.85307 39.0686 9.17608 39.0686 9.63963C39.0686 10.0619 38.6987 10.3245 38.1088 10.3245C37.4319 10.3217 36.7695 10.1279 36.1979 9.76538L36.1695 9.74997C36.1102 9.71198 36.0435 9.68686 35.9739 9.67625C35.9042 9.66563 35.8331 9.66974 35.7651 9.68833C35.713 9.70358 35.6645 9.72948 35.6228 9.76438C35.5811 9.79928 35.5471 9.84244 35.5229 9.89113L35.161 10.6308C35.1184 10.7243 35.1118 10.8301 35.1425 10.9281C35.1733 11.0261 35.2391 11.1093 35.3275 11.1616C36.1158 11.7005 37.0485 11.9888 38.0034 11.9888C39.934 11.9888 40.9438 10.7702 40.9438 9.56628C40.9456 8.07205 39.9051 7.51912 38.3184 6.84721ZM49.7291 7.71021C49.7325 8.82441 49.3008 9.89592 48.5259 10.6966C47.751 11.4972 46.6942 11.9638 45.5805 11.9969C44.7342 12.0194 43.9003 11.7893 43.1852 11.336C42.4701 10.8827 41.9063 10.2266 41.5656 9.45157C41.2248 8.67651 41.1227 7.81752 41.2721 6.98416C41.4215 6.1508 41.8158 5.38082 42.4046 4.77243C42.9934 4.16404 43.75 3.7448 44.5781 3.56817C45.4061 3.39154 46.268 3.46554 47.0538 3.78071C47.8396 4.09589 48.5137 4.63797 48.9902 5.33782C49.4666 6.03767 49.7239 6.86357 49.7291 7.71021ZM45.5805 5.29998C45.2699 5.30112 44.9627 5.36517 44.6775 5.48824C44.3923 5.61132 44.135 5.79089 43.921 6.01611C43.7071 6.24133 43.541 6.50755 43.4327 6.79871C43.3245 7.08987 43.2763 7.39993 43.2911 7.71021C43.268 8.02383 43.3099 8.33883 43.4141 8.63555C43.5182 8.93226 43.6825 9.2043 43.8965 9.43467C44.1105 9.66504 44.3698 9.8488 44.6581 9.97445C44.9463 10.1001 45.2574 10.165 45.5719 10.165C45.8864 10.165 46.1974 10.1001 46.4857 9.97445C46.774 9.8488 47.0332 9.66504 47.2473 9.43467C47.4613 9.2043 47.6256 8.93226 47.7297 8.63555C47.8339 8.33883 47.8757 8.02383 47.8527 7.71021C47.8688 7.40095 47.8222 7.09163 47.7155 6.8009C47.6088 6.51017 47.4444 6.24407 47.232 6.01865C47.0197 5.79323 46.7639 5.61317 46.48 5.48933C46.1962 5.3655 45.8902 5.30046 45.5805 5.29813V5.29998ZM57.284 3.64672H56.4031C56.1288 3.64672 55.8619 3.68309 55.8619 4.11829V8.93382C55.7287 9.29689 55.4871 9.61026 55.1699 9.83153C54.8527 10.0528 54.4752 10.1713 54.0885 10.171C53.0917 10.171 52.6275 9.5971 52.6275 8.36486V4.11829C52.6244 3.9941 52.5736 3.87587 52.4857 3.78809C52.3978 3.7003 52.2795 3.64969 52.1553 3.64672H51.1912C51.0681 3.65269 50.9515 3.70427 50.8642 3.79143C50.7769 3.87859 50.7252 3.9951 50.7191 4.11829V8.24342C50.7191 9.99038 51.0667 11.995 53.7809 11.995C54.2426 12.0121 54.7028 11.9311 55.131 11.7573C55.5592 11.5836 55.9457 11.3211 56.2651 10.9871L56.421 11.4186C56.4907 11.611 56.5992 11.8076 56.8698 11.8076H57.284C57.4113 11.8077 57.5336 11.7587 57.6255 11.6707C57.7174 11.5827 57.7718 11.4625 57.7772 11.3354V4.11829C57.77 3.99184 57.7151 3.87282 57.6236 3.78529C57.532 3.69776 57.4107 3.64823 57.284 3.64672ZM64.736 3.92843C64.5252 3.59309 63.8114 3.4735 63.211 3.4735C62.7614 3.47452 62.317 3.57023 61.9068 3.7544C61.4966 3.93856 61.1298 4.20705 60.8303 4.54239L60.6608 3.995C60.6364 3.89731 60.5806 3.81033 60.502 3.74741C60.4234 3.68449 60.3263 3.64912 60.2256 3.64672H59.8114C59.6871 3.64968 59.5688 3.70028 59.4808 3.78805C59.3928 3.87581 59.3419 3.99404 59.3386 4.11829V11.3305C59.3389 11.4557 59.3888 11.5757 59.4775 11.6642C59.5661 11.7527 59.6861 11.8025 59.8114 11.8027H60.6047C60.8618 11.8027 61.2501 11.8027 61.2501 11.3305V6.29859C61.444 5.99875 61.7082 5.75085 62.0198 5.57647C62.3313 5.4021 62.6808 5.30655 63.0378 5.29813C63.2729 5.30376 63.505 5.35331 63.722 5.44422C63.7739 5.47097 63.8307 5.48699 63.8889 5.49134C63.9472 5.49568 64.0057 5.48825 64.061 5.4695C64.121 5.44709 64.1758 5.4126 64.2219 5.36818C64.268 5.32375 64.3045 5.27033 64.3292 5.21121L64.7434 4.34821C64.7796 4.28391 64.798 4.21111 64.7967 4.13732C64.7954 4.06353 64.7745 3.99142 64.736 3.92843ZM71.2344 9.17238C71.1894 9.13082 71.1364 9.09877 71.0787 9.07815C71.021 9.05754 70.9597 9.04878 70.8985 9.05241C70.8373 9.05603 70.7775 9.07197 70.7226 9.09925C70.6678 9.12654 70.6189 9.16462 70.5791 9.21121C70.5144 9.26977 70.4509 9.3345 70.3856 9.39614C70.1888 9.63737 69.9409 9.83187 69.6598 9.96555C69.3787 10.0992 69.0714 10.1688 68.7601 10.1691C68.4497 10.1606 68.1441 10.0904 67.8611 9.96248C67.5782 9.8346 67.3235 9.65165 67.112 9.42431C66.9005 9.19697 66.7364 8.92979 66.6292 8.63835C66.5221 8.34691 66.474 8.03706 66.4879 7.72686C66.4779 7.41405 66.5304 7.10239 66.6423 6.81013C66.7543 6.51787 66.9234 6.25089 67.1398 6.02482C67.3562 5.79875 67.6156 5.61814 67.9027 5.49357C68.1898 5.369 68.4989 5.30298 68.8118 5.29936C69.4168 5.34046 69.9819 5.61603 70.3868 6.06743C70.5193 6.19935 70.7431 6.42126 71.0322 6.15558L71.653 5.58662C71.705 5.5469 71.7485 5.49704 71.7808 5.44006C71.8131 5.38308 71.8335 5.32014 71.8409 5.25506C71.8482 5.18997 71.8422 5.12407 71.8234 5.06134C71.8046 4.99861 71.7732 4.94034 71.7312 4.89005C71.3858 4.43296 70.9356 4.06557 70.4185 3.81884C69.9015 3.5721 69.3327 3.45324 68.7601 3.47227C67.6396 3.48512 66.5699 3.94178 65.7857 4.74212C65.0014 5.54246 64.5665 6.62115 64.5764 7.74165C64.5646 8.29611 64.6637 8.84733 64.8679 9.36298C65.072 9.87862 65.3771 10.3483 65.7651 10.7445C66.1532 11.1407 66.6165 11.4553 67.1278 11.6701C67.6392 11.8848 68.1882 11.9953 68.7428 11.995C69.374 12.0055 69.9975 11.8551 70.5545 11.558C71.1116 11.2609 71.5838 10.8268 71.9267 10.2967C72.0308 10.1402 72.0894 9.8936 71.7688 9.6045L71.2344 9.17238ZM80.127 7.22508C80.127 7.36686 80.1091 7.6461 80.0906 7.78912C80.0816 7.90385 80.0301 8.01108 79.9462 8.08985C79.8623 8.16863 79.752 8.21327 79.6369 8.21507H74.2278C74.2942 8.77113 74.5648 9.28268 74.9872 9.65039C75.4096 10.0181 75.9536 10.2157 76.5135 10.2049C77.2024 10.211 77.8723 9.97939 78.4102 9.54902C78.51 9.46379 78.6393 9.42128 78.7702 9.43066C78.8195 9.44277 78.8659 9.46467 78.9066 9.49506C78.9472 9.52546 78.9814 9.56372 79.0069 9.60758L79.473 10.3337C79.5211 10.3757 79.5587 10.4284 79.5829 10.4876C79.607 10.5467 79.6169 10.6107 79.6119 10.6744C79.6069 10.7381 79.587 10.7997 79.5539 10.8543C79.5208 10.909 79.4753 10.9551 79.4212 10.989C78.5698 11.6732 77.5016 12.03 76.4099 11.995C75.8562 12.0013 75.307 11.8937 74.7966 11.6789C74.2861 11.4641 73.8252 11.1467 73.4426 10.7463C73.0599 10.346 72.7636 9.87126 72.5721 9.35163C72.3806 8.832 72.2979 8.27855 72.3292 7.72562C72.3042 7.17646 72.3908 6.62793 72.5836 6.11315C72.7765 5.59838 73.0717 5.12803 73.4515 4.73051C73.8312 4.333 74.2875 4.01656 74.7929 3.8003C75.2983 3.58404 75.8423 3.47245 76.3921 3.47227C76.8868 3.4622 77.3785 3.55252 77.8373 3.73779C78.2962 3.92305 78.7128 4.1994 79.0619 4.55015C79.4109 4.90091 79.6853 5.31878 79.8684 5.77853C80.0514 6.23829 80.1394 6.73038 80.127 7.22508ZM74.3239 6.75352H78.2247C78.184 6.2932 77.9666 5.86653 77.6181 5.56301C77.2697 5.25949 76.8172 5.1027 76.3557 5.12553C75.875 5.09479 75.4002 5.2447 75.0244 5.54587C74.6485 5.84703 74.3987 6.27773 74.3239 6.75352ZM83.8243 6.84721C82.9761 6.47736 82.5169 6.19503 82.5169 5.75799C82.5169 5.44977 82.8029 5.14156 83.4415 5.14156C84.02 5.15001 84.5899 5.28266 85.1127 5.53052C85.1674 5.56035 85.2275 5.57888 85.2895 5.58502C85.3515 5.59117 85.4142 5.58479 85.4737 5.56628C85.5332 5.54777 85.5883 5.5175 85.6359 5.47726C85.6835 5.43702 85.7225 5.38763 85.7507 5.33203L86.0262 4.78033C86.0819 4.65767 86.0919 4.51916 86.0545 4.38976C86.0171 4.26035 85.9347 4.14856 85.8222 4.07452C85.0984 3.66046 84.2751 3.4522 83.4415 3.47227C81.5528 3.47227 80.7077 4.61143 80.7077 5.74011C80.7077 7.15235 81.771 7.8261 82.92 8.3439C84.0407 8.85184 84.5745 9.17484 84.5745 9.6384C84.5745 10.0607 84.2047 10.3232 83.6141 10.3232C82.9373 10.3204 82.275 10.1268 81.7032 9.76477L81.6742 9.74874C81.6149 9.71108 81.5483 9.68616 81.4788 9.67555C81.4093 9.66494 81.3384 9.66887 81.2705 9.6871C81.2175 9.70182 81.1682 9.72747 81.1257 9.7624C81.0832 9.79733 81.0486 9.84076 81.0239 9.8899L80.662 10.6296C80.6198 10.7231 80.6134 10.8288 80.6443 10.9266C80.6751 11.0244 80.7409 11.1074 80.8291 11.1597C81.6174 11.6987 82.5501 11.987 83.505 11.987C85.4351 11.987 86.4454 10.7683 86.4454 9.56443C86.4521 8.07205 85.411 7.51912 83.8243 6.84721ZM15.9994 8.00055C15.9994 14.4003 14.3998 16.0005 8 16.0005C1.60025 16.0005 0 14.4003 0 8.00055C0 1.6008 1.60271 0.000549316 8 0.000549316C14.3973 0.000549316 15.9994 1.6008 15.9994 8.00055ZM7.38357 9.09902C7.38357 8.97118 7.33279 8.84857 7.24238 8.75817C7.15198 8.66776 7.02937 8.61698 6.90153 8.61698H4.78348C4.65563 8.61698 4.53302 8.66776 4.44262 8.75817C4.35222 8.84857 4.30143 8.97118 4.30143 9.09902V11.2171C4.30143 11.3449 4.35222 11.4675 4.44262 11.5579C4.53302 11.6483 4.65563 11.6991 4.78348 11.6991H6.90399C7.03184 11.6991 7.15445 11.6483 7.24485 11.5579C7.33525 11.4675 7.38604 11.3449 7.38604 11.2171L7.38357 9.09902ZM7.38357 4.78403C7.38357 4.65618 7.33279 4.53357 7.24238 4.44317C7.15198 4.35277 7.02937 4.30198 6.90153 4.30198H4.78348C4.65563 4.30198 4.53302 4.35277 4.44262 4.44317C4.35222 4.53357 4.30143 4.65618 4.30143 4.78403V6.90208C4.30143 7.02992 4.35222 7.15253 4.44262 7.24293C4.53302 7.33333 4.65563 7.38412 4.78348 7.38412H6.90399C7.03184 7.38412 7.15445 7.33333 7.24485 7.24293C7.33525 7.15253 7.38604 7.02992 7.38604 6.90208L7.38357 4.78403ZM11.6986 9.09902C11.6986 8.97118 11.6478 8.84857 11.5574 8.75817C11.467 8.66776 11.3444 8.61698 11.2165 8.61698H9.09848C8.97063 8.61698 8.84802 8.66776 8.75762 8.75817C8.66722 8.84857 8.61643 8.97118 8.61643 9.09902V11.2171C8.61643 11.3449 8.66722 11.4675 8.75762 11.5579C8.84802 11.6483 8.97063 11.6991 9.09848 11.6991H11.219C11.3468 11.6991 11.4694 11.6483 11.5598 11.5579C11.6502 11.4675 11.701 11.3449 11.701 11.2171L11.6986 9.09902ZM11.6986 4.78403C11.6986 4.65618 11.6478 4.53357 11.5574 4.44317C11.467 4.35277 11.3444 4.30198 11.2165 4.30198H9.09848C8.97063 4.30198 8.84802 4.35277 8.75762 4.44317C8.66722 4.53357 8.61643 4.65618 8.61643 4.78403V6.90208C8.61643 7.02992 8.66722 7.15253 8.75762 7.24293C8.84802 7.33333 8.97063 7.38412 9.09848 7.38412H11.219C11.3468 7.38412 11.4694 7.33333 11.5598 7.24293C11.6502 7.15253 11.701 7.02992 11.701 6.90208L11.6986 4.78403Z" fill="black"/>
</svg>
