<svg width="75" height="16" viewBox="0 0 75 16" fill="none" xmlns="http://www.w3.org/2000/svg">
<path d="M23.3518 6.88926C22.5063 6.52028 22.0475 6.23925 22.0475 5.80324C22.0475 5.49576 22.3328 5.18828 22.9699 5.18828C23.547 5.19671 24.1156 5.32904 24.6371 5.57632C24.6916 5.60625 24.7517 5.62487 24.8136 5.63109C24.8755 5.63731 24.938 5.63099 24.9974 5.61251C25.0568 5.59402 25.1119 5.56376 25.1593 5.52352C25.2068 5.48328 25.2456 5.43389 25.2736 5.3783L25.5491 4.82484C25.6031 4.70323 25.6124 4.56644 25.5754 4.43862C25.5384 4.3108 25.4574 4.20017 25.3468 4.12625C24.6246 3.71292 23.803 3.50514 22.9712 3.52543C21.0876 3.52543 20.2444 4.66126 20.2444 5.78725C20.2444 7.19612 21.3046 7.86889 22.4515 8.38545C23.5695 8.89218 24.1015 9.21442 24.1015 9.67687C24.1015 10.0981 23.7325 10.3601 23.144 10.3601C22.4687 10.3575 21.808 10.1644 21.2376 9.80293L21.2081 9.78756C21.149 9.7499 21.0827 9.72498 21.0135 9.71439C20.9442 9.7038 20.8735 9.70778 20.8059 9.72606C20.753 9.74092 20.7039 9.76665 20.6615 9.80159C20.6192 9.83653 20.5846 9.87993 20.5599 9.929L20.1989 10.667C20.1569 10.7603 20.1508 10.8659 20.1816 10.9636C20.2125 11.0612 20.2782 11.1441 20.3662 11.1964C21.1526 11.7342 22.0831 12.0218 23.0357 12.0217C24.9612 12.0217 25.9685 10.8065 25.9685 9.60553C25.9734 8.1118 24.9354 7.56018 23.3518 6.88926Z" fill="black"/>
<path d="M30.5112 3.5242C29.9628 3.52438 29.4201 3.6357 28.9159 3.85145C28.4117 4.06719 27.9564 4.38288 27.5776 4.77945C27.1988 5.17601 26.9043 5.64524 26.7119 6.15879C26.5194 6.67234 26.4331 7.21956 26.458 7.76742C26.4268 8.31894 26.5092 8.871 26.7003 9.38932C26.8913 9.90763 27.1869 10.3812 27.5686 10.7805C27.9503 11.1798 28.4099 11.4964 28.9191 11.7107C29.4283 11.925 29.976 12.0323 30.5284 12.026C31.6177 12.061 32.6835 11.705 33.5331 11.0224C33.5871 10.9886 33.6324 10.9425 33.6655 10.888C33.6985 10.8335 33.7183 10.7721 33.7234 10.7085C33.7284 10.645 33.7185 10.5812 33.6944 10.5222C33.6703 10.4632 33.6328 10.4106 33.5847 10.3687L33.1192 9.64427C33.0939 9.60056 33.06 9.56245 33.0195 9.53222C32.979 9.50199 32.9328 9.48028 32.8837 9.46839C32.819 9.46342 32.754 9.47129 32.6923 9.49156C32.6307 9.51182 32.5737 9.54408 32.5246 9.58647C31.9877 10.0159 31.3192 10.247 30.6317 10.2408C30.0726 10.2519 29.5293 10.0546 29.1075 9.68738C28.6857 9.32015 28.4156 8.80919 28.3496 8.25385H33.7465C33.8612 8.25221 33.9712 8.20781 34.0549 8.12932C34.1387 8.05084 34.1901 7.94393 34.1991 7.82953C34.2169 7.68686 34.2354 7.40828 34.2354 7.26623C34.2476 6.77299 34.1598 6.28239 33.9772 5.82403C33.7946 5.36568 33.521 4.94907 33.1729 4.59936C32.8249 4.24965 32.4096 3.97409 31.9521 3.7893C31.4946 3.60451 31.0045 3.51433 30.5112 3.5242ZM30.4767 5.17229C30.9372 5.14934 31.3887 5.3056 31.7364 5.60829C32.0841 5.91097 32.3012 6.33656 32.3419 6.79578H28.448C28.5225 6.32073 28.7719 5.8907 29.1473 5.59019C29.5227 5.28967 29.9969 5.14039 30.4767 5.17168V5.17229Z" fill="black"/>
<path d="M39.1391 3.5242C38.6899 3.522 38.2456 3.61629 37.8361 3.80068C37.4265 3.98508 37.0614 4.25527 36.7653 4.593L36.5956 4.04384C36.571 3.94612 36.515 3.85916 36.4363 3.79629C36.3575 3.73342 36.2603 3.69811 36.1596 3.69578H35.7476C35.6237 3.69888 35.5057 3.7494 35.4179 3.83693C35.3301 3.92446 35.2793 4.04232 35.2759 4.16622V11.3649C35.2776 11.4894 35.3279 11.6083 35.416 11.6963C35.5041 11.7843 35.6231 11.8344 35.7476 11.836H36.5396C36.7954 11.836 37.1829 11.836 37.1829 11.3649V6.3401C37.3762 6.0409 37.6398 5.79353 37.9506 5.61956C38.2614 5.44559 38.6101 5.35031 38.9663 5.34202C39.2006 5.34785 39.4318 5.39706 39.6482 5.48715C39.7001 5.51405 39.7568 5.53021 39.815 5.53465C39.8733 5.53909 39.9318 5.53172 39.9871 5.51298C40.047 5.49059 40.1017 5.4561 40.1477 5.41167C40.1937 5.36723 40.2301 5.3138 40.2546 5.2547L40.6678 4.39375C40.704 4.32959 40.7223 4.25691 40.7209 4.18327C40.7195 4.10963 40.6984 4.03771 40.6598 3.97497C40.4508 3.6435 39.7374 3.5242 39.1391 3.5242Z" fill="black"/>
<path d="M48.3807 3.69578H47.6058C47.3764 3.69578 47.1138 3.69578 46.9909 3.97312L44.8385 8.69662L42.7808 3.97066C42.7475 3.88586 42.6884 3.81368 42.6118 3.76434C42.5352 3.71501 42.445 3.69102 42.3541 3.69578H41.3037C41.2269 3.68979 41.1499 3.70428 41.0806 3.73778C41.0112 3.77127 40.952 3.82256 40.9089 3.88641C40.8776 3.94762 40.8629 4.01602 40.8665 4.0847C40.87 4.15338 40.8917 4.21989 40.9292 4.27753L44.373 11.7665C44.4134 11.8445 44.4746 11.9099 44.5498 11.9553C44.625 12.0008 44.7113 12.0246 44.7991 12.0242H44.9031C44.9893 12.0251 45.074 12.001 45.1469 11.9548C45.2198 11.9087 45.2778 11.8424 45.3139 11.764L48.7533 4.28183C48.7919 4.22397 48.8143 4.15681 48.818 4.08737C48.8218 4.01793 48.8069 3.94874 48.7748 3.88703C48.7321 3.82301 48.673 3.77156 48.6037 3.73794C48.5344 3.70433 48.4574 3.68978 48.3807 3.69578Z" fill="black"/>
<path d="M49.9347 3.69578H50.8995C51.0246 3.69578 51.1446 3.74547 51.2331 3.83393C51.3215 3.92238 51.3712 4.04235 51.3712 4.16745V11.3625C51.3712 11.4876 51.3215 11.6075 51.2331 11.696C51.1446 11.7844 51.0246 11.8341 50.8995 11.8341H49.9347C49.8728 11.8341 49.8116 11.822 49.7544 11.7983C49.6972 11.7746 49.6453 11.7399 49.6016 11.6962C49.5578 11.6524 49.5231 11.6005 49.4995 11.5433C49.4758 11.4862 49.4636 11.4249 49.4636 11.3631V4.16683C49.4635 4.10495 49.4757 4.04366 49.4993 3.98647C49.5229 3.92928 49.5576 3.87732 49.6014 3.83356C49.6452 3.78981 49.6971 3.75511 49.7543 3.73147C49.8115 3.70782 49.8728 3.69569 49.9347 3.69578Z" fill="black"/>
<path d="M50.4174 0.109951C50.2532 0.110311 50.0907 0.143476 49.9394 0.207498C49.7882 0.271521 49.6513 0.36511 49.5367 0.482773C49.4221 0.600435 49.3322 0.7398 49.2723 0.892686C49.2123 1.04557 49.1835 1.2089 49.1875 1.37308C49.1846 1.53613 49.2144 1.69812 49.2749 1.84953C49.3355 2.00094 49.4258 2.13871 49.5403 2.25477C49.6549 2.37083 49.7915 2.46283 49.9421 2.52538C50.0927 2.58792 50.2543 2.61975 50.4174 2.61898C50.7501 2.61898 51.0692 2.48681 51.3045 2.25154C51.5397 2.01628 51.6719 1.69719 51.6719 1.36447C51.6719 1.03175 51.5397 0.712658 51.3045 0.47739C51.0692 0.242123 50.7501 0.109951 50.4174 0.109951Z" fill="black"/>
<path d="M59.0434 9.2095C58.9984 9.16806 58.9456 9.1361 58.888 9.11553C58.8304 9.09495 58.7692 9.08618 58.7082 9.08974C58.6471 9.0933 58.5874 9.10911 58.5326 9.13623C58.4778 9.16336 58.429 9.20124 58.3891 9.24762C58.3276 9.30912 58.2612 9.37062 58.1966 9.43211C58.0005 9.67281 57.7535 9.867 57.4733 10.0007C57.1931 10.1343 56.8867 10.2042 56.5762 10.2051C56.2663 10.1968 55.9611 10.1267 55.6785 9.99906C55.396 9.8714 55.1417 9.68868 54.9306 9.46159C54.7195 9.2345 54.5558 8.9676 54.449 8.67649C54.3423 8.38539 54.2946 8.07592 54.3089 7.76619C54.2657 7.29793 54.3723 6.82806 54.6134 6.42431C54.8545 6.02056 55.2175 5.70378 55.6502 5.51965C56.0829 5.33552 56.5629 5.29354 57.021 5.39977C57.4791 5.506 57.8916 5.75494 58.1991 6.11072C58.3307 6.24232 58.5545 6.46309 58.8423 6.19804L59.4616 5.63044C59.5136 5.59092 59.5571 5.54126 59.5893 5.48447C59.6216 5.42767 59.642 5.36492 59.6493 5.30001C59.6566 5.2351 59.6506 5.16939 59.6318 5.10684C59.613 5.0443 59.5816 4.98623 59.5397 4.93615C59.1949 4.48068 58.7458 4.1147 58.23 3.86899C57.7143 3.62328 57.1472 3.50503 56.5762 3.5242C55.4585 3.53686 54.3914 3.9923 53.6089 4.79063C52.8265 5.58896 52.3926 6.66502 52.4025 7.78279C52.3908 8.33593 52.4897 8.88584 52.6933 9.40025C52.897 9.91467 53.2013 10.3832 53.5884 10.7785C53.9756 11.1737 54.4378 11.4876 54.9479 11.7019C55.458 11.9161 56.0057 12.0263 56.559 12.026C57.1886 12.0363 57.8105 11.8863 58.3662 11.59C58.9218 11.2937 59.393 10.8609 59.7353 10.3324C59.8392 10.1762 59.897 9.93023 59.5778 9.6412L59.0434 9.2095Z" fill="black"/>
<path d="M64.1888 3.5242C63.6404 3.52438 63.0977 3.63571 62.5935 3.85145C62.0893 4.06719 61.634 4.38288 61.2552 4.77945C60.8764 5.17601 60.5819 5.64524 60.3895 6.15879C60.197 6.67234 60.1107 7.21957 60.1356 7.76742C60.1044 8.31894 60.1869 8.871 60.3779 9.38932C60.5689 9.90763 60.8645 10.3812 61.2462 10.7805C61.6279 11.1798 62.0876 11.4964 62.5967 11.7107C63.1059 11.925 63.6536 12.0323 64.206 12.026C65.2953 12.0609 66.3611 11.7049 67.2107 11.0224C67.2646 10.9885 67.3098 10.9424 67.3428 10.8879C67.3758 10.8334 67.3955 10.772 67.4006 10.7085C67.4056 10.645 67.3957 10.5812 67.3717 10.5222C67.3477 10.4632 67.3103 10.4107 67.2624 10.3687L66.7968 9.64427C66.7715 9.60048 66.7374 9.5623 66.6968 9.53207C66.6562 9.50183 66.6099 9.48017 66.5607 9.46839C66.496 9.46342 66.431 9.47129 66.3693 9.49156C66.3077 9.51182 66.2507 9.54408 66.2016 9.58647C65.6649 10.0159 64.9966 10.247 64.3093 10.2408C63.7507 10.2516 63.2079 10.0543 62.7865 9.68737C62.3651 9.32041 62.0952 8.80993 62.0291 8.25508H67.4253C67.5401 8.25346 67.6502 8.20907 67.734 8.1306C67.8178 8.05212 67.8694 7.94521 67.8785 7.83076C67.8964 7.68809 67.9142 7.40951 67.9142 7.26746C67.9267 6.77399 67.839 6.28311 67.6564 5.82449C67.4739 5.36587 67.2002 4.94902 66.852 4.59914C66.5038 4.24926 66.0883 3.97362 65.6305 3.78886C65.1728 3.6041 64.6823 3.51407 64.1888 3.5242ZM64.1544 5.17229C64.6147 5.14951 65.066 5.30584 65.4136 5.60851C65.7612 5.91118 65.9781 6.33668 66.0189 6.79578H62.125C62.1996 6.32068 62.4492 5.89065 62.8247 5.59014C63.2002 5.28964 63.6744 5.14038 64.1544 5.17168V5.17229Z" fill="black"/>
<path d="M71.6033 6.88926C70.7572 6.52028 70.299 6.23925 70.299 5.80324C70.299 5.49576 70.5844 5.18828 71.2215 5.18828C71.7986 5.19677 72.3671 5.3291 72.8886 5.57632C72.9432 5.60616 73.0032 5.62472 73.0651 5.63089C73.127 5.63706 73.1895 5.63072 73.2488 5.61225C73.3082 5.59377 73.3633 5.56354 73.4107 5.52335C73.4582 5.48316 73.4971 5.43383 73.5251 5.3783L73.8012 4.82484C73.8565 4.70247 73.8663 4.56438 73.8289 4.43542C73.7915 4.30645 73.7093 4.19508 73.5971 4.12133C72.8749 3.70782 72.0533 3.50003 71.2215 3.52051C69.3385 3.52051 68.4954 4.65634 68.4954 5.78233C68.4954 7.1912 69.5555 7.86397 70.7024 8.38053C71.8198 8.88664 72.3518 9.2095 72.3518 9.67195C72.3518 10.0932 71.9828 10.3552 71.3943 10.3552C70.7191 10.3523 70.0583 10.1592 69.4879 9.79801L69.4596 9.78264C69.4005 9.74463 69.334 9.71951 69.2645 9.70892C69.1949 9.69832 69.124 9.70249 69.0562 9.72114C69.004 9.73622 68.9555 9.76199 68.9138 9.79682C68.872 9.83165 68.838 9.87478 68.8139 9.92346L68.4529 10.6614C68.4107 10.7547 68.4044 10.8603 68.4351 10.958C68.4659 11.0557 68.5315 11.1386 68.6196 11.1909C69.406 11.7286 70.3364 12.0163 71.2891 12.0162C73.2145 12.0162 74.2225 10.801 74.2225 9.6C74.2255 8.11179 73.1869 7.56018 71.6033 6.88926Z" fill="black"/>
<path d="M8 0.000488281C1.59889 0.000488281 0 1.60061 0 8.00049C0 14.4004 1.59889 16.0005 8 16.0005C14.4011 16.0005 16.0006 14.4016 16.0006 8.00049C16.0006 1.59938 14.4005 0.000488281 8 0.000488281ZM4.36129 11.6232C4.19359 11.6231 4.02969 11.5732 3.89032 11.48C3.75094 11.3867 3.64234 11.2543 3.57825 11.0993C3.51416 10.9443 3.49745 10.7738 3.53024 10.6094C3.56304 10.4449 3.64385 10.2939 3.76247 10.1753C3.8811 10.0568 4.0322 9.97608 4.19669 9.9434C4.36117 9.91073 4.53165 9.92756 4.68657 9.99177C4.84149 10.056 4.9739 10.1647 5.06706 10.3041C5.16021 10.4436 5.20993 10.6075 5.20993 10.7752C5.20977 10.8865 5.18769 10.9966 5.14496 11.0994C5.10222 11.2021 5.03966 11.2955 4.96086 11.374C4.88206 11.4526 4.78855 11.5149 4.68567 11.5573C4.5828 11.5998 4.47257 11.6215 4.36129 11.6214V11.6232ZM4.36129 8.8645C4.19342 8.8645 4.02932 8.81472 3.88974 8.72144C3.75017 8.62816 3.6414 8.49559 3.57719 8.34048C3.51297 8.18538 3.4962 8.01471 3.529 7.85007C3.56179 7.68544 3.64268 7.53422 3.76142 7.41556C3.88017 7.2969 4.03144 7.21613 4.1961 7.18345C4.36076 7.15077 4.53142 7.16767 4.68648 7.23199C4.84153 7.29632 4.97403 7.40519 5.06721 7.54483C5.16038 7.68447 5.21005 7.8486 5.20993 8.01648C5.20928 8.24101 5.11954 8.45611 4.96043 8.61453C4.80131 8.77296 4.58582 8.86176 4.36129 8.86143V8.8645ZM4.36129 6.1058C4.19342 6.1058 4.02932 6.05601 3.88974 5.96273C3.75017 5.86946 3.6414 5.73688 3.57719 5.58178C3.51297 5.42667 3.4962 5.25601 3.529 5.09137C3.56179 4.92673 3.64268 4.77552 3.76142 4.65686C3.88017 4.5382 4.03144 4.45742 4.1961 4.42474C4.36076 4.39207 4.53142 4.40896 4.68648 4.47329C4.84153 4.53761 4.97403 4.64648 5.06721 4.78612C5.16038 4.92576 5.21005 5.0899 5.20993 5.25777C5.20944 5.48247 5.1198 5.69779 4.96068 5.85644C4.80157 6.0151 4.58599 6.10412 4.36129 6.10395V6.1058ZM12.02 11.1534C12.02 11.2565 11.979 11.3553 11.9062 11.4282C11.8333 11.5011 11.7344 11.542 11.6313 11.542H6.51856C6.41549 11.542 6.31663 11.5011 6.24374 11.4282C6.17086 11.3553 6.12991 11.2565 6.12991 11.1534V10.397C6.12991 10.3459 6.13996 10.2954 6.15949 10.2483C6.17903 10.2011 6.20765 10.1583 6.24374 10.1222C6.27983 10.0861 6.32268 10.0574 6.36983 10.0379C6.41699 10.0184 6.46753 10.0083 6.51856 10.0083H11.6301C11.6811 10.0083 11.7317 10.0184 11.7788 10.0379C11.826 10.0574 11.8688 10.0861 11.9049 10.1222C11.941 10.1583 11.9696 10.2011 11.9892 10.2483C12.0087 10.2954 12.0188 10.3459 12.0188 10.397L12.02 11.1534ZM12.02 8.39468C12.02 8.44571 12.0099 8.49625 11.9904 8.54341C11.9709 8.59056 11.9422 8.63341 11.9062 8.6695C11.8701 8.70559 11.8272 8.73421 11.7801 8.75375C11.7329 8.77328 11.6824 8.78333 11.6313 8.78333H6.51856C6.46753 8.78333 6.41699 8.77328 6.36983 8.75375C6.32268 8.73421 6.27983 8.70559 6.24374 8.6695C6.20765 8.63341 6.17903 8.59056 6.15949 8.54341C6.13996 8.49625 6.12991 8.44571 6.12991 8.39468V7.63828C6.12991 7.5352 6.17086 7.43634 6.24374 7.36346C6.31663 7.29057 6.41549 7.24962 6.51856 7.24962H11.6301C11.7332 7.24962 11.832 7.29057 11.9049 7.36346C11.9778 7.43634 12.0188 7.5352 12.0188 7.63828L12.02 8.39468ZM12.02 5.63536C12.02 5.73843 11.979 5.83729 11.9062 5.91018C11.8333 5.98306 11.7344 6.02401 11.6313 6.02401H6.51856C6.41549 6.02401 6.31663 5.98306 6.24374 5.91018C6.17086 5.83729 6.12991 5.73843 6.12991 5.63536V4.87773C6.12991 4.77465 6.17086 4.67579 6.24374 4.60291C6.31663 4.53002 6.41549 4.48907 6.51856 4.48907H11.6301C11.7332 4.48907 11.832 4.53002 11.9049 4.60291C11.9778 4.67579 12.0188 4.77465 12.0188 4.87773L12.02 5.63536Z" fill="black"/>
</svg>
