<svg xmlns="http://www.w3.org/2000/svg" viewBox="0 0 16 16"><defs><style>.cls-1{fill:#231f20;}</style></defs><title>eyeball-hide</title><g id="Layer_1" data-name="Layer 1"><path class="cls-1" d="M6.984,5.344l3.588,3.576a2.735,2.735,0,0,0,.2-1.013A2.76,2.76,0,0,0,6.984,5.344Zm8.922,2.224c-.125-.2-3.105-4.9-7.905-4.9a7.523,7.523,0,0,0-3.035.664l.962.959A6.12,6.12,0,0,1,8,3.911c3.424,0,5.887,2.978,6.62,3.984a11.892,11.892,0,0,1-2.536,2.534l.9.9a12.8,12.8,0,0,0,2.922-3.1A.618.618,0,0,0,15.906,7.568ZM4.7,4.846l.011-.006L3.8,3.93l-.011.006L2.962,3.11a.622.622,0,0,0-.881.879l.674.672A12.7,12.7,0,0,0,.094,7.568a.618.618,0,0,0,0,.654c.125.2,3.105,4.9,7.906,4.9a7.508,7.508,0,0,0,2.718-.523l.553.552a.622.622,0,1,0,.881-.879l-.236-.236.01-.006L11,11.106l-.01.006Zm.625,2.379a2.653,2.653,0,0,0-.1.683A2.766,2.766,0,0,0,8,10.669a2.677,2.677,0,0,0,.685-.1L9.738,11.62A6.086,6.086,0,0,1,8,11.88C4.575,11.88,2.114,8.9,1.379,7.9a12,12,0,0,1,2.27-2.344Z"/></g></svg>