<svg xmlns="http://www.w3.org/2000/svg" viewBox="0 0 16 16"><defs><style>.cls-1{fill:#231f20;}</style></defs><title>headcounts</title><g id="Layer_1" data-name="Layer 1"><polygon class="cls-1" points="13.281 10.838 13.281 8.119 11.388 8.119 11.388 10.838 8.669 10.838 8.669 12.731 11.388 12.731 11.388 15.45 13.281 15.45 13.281 12.731 16 12.731 16 10.838 13.281 10.838"/><path class="cls-1" d="M9.381,2.607a1.824,1.824,0,1,1,0,3.529,3.944,3.944,0,0,1-.36.6l-.178.238.287.074a2.694,2.694,0,0,0,.691.1,2.774,2.774,0,0,0,0-5.549,2.694,2.694,0,0,0-.691.1l-.286.074.176.238A3.962,3.962,0,0,1,9.381,2.607Z"/><path class="cls-1" d="M12.341,2.607a1.824,1.824,0,1,1,0,3.529,3.944,3.944,0,0,1-.36.6l-.178.238.287.074a2.694,2.694,0,0,0,.691.1,2.774,2.774,0,0,0,0-5.549,2.694,2.694,0,0,0-.691.1l-.286.074.176.238A3.962,3.962,0,0,1,12.341,2.607Z"/><path class="cls-1" d="M2.774,13.453a.7.7,0,0,1-.7-.7V10.156a.7.7,0,0,1,.434-.65L6.02,8.055,8.669,9.149l1.7-1.024c-.074-.041-2.314-.989-2.314-.989a3.442,3.442,0,1,0-4.075,0L1.888,8A2.323,2.323,0,0,0,.45,10.156V12.75a2.33,2.33,0,0,0,2.324,2.33H7.947V13.453H2.774ZM6.02,2.547A1.824,1.824,0,1,1,4.2,4.371,1.823,1.823,0,0,1,6.02,2.547Z"/></g></svg>