<svg xmlns="http://www.w3.org/2000/svg" viewBox="0 0 16 16"><title>household-add-person</title><g id="65ebcc83-8d56-4fe6-b2bc-3ad199045c82" data-name="Layer 1"><path d="M3.914,13.543V8.83H2.069A.028.028,0,0,1,2.056,8.8L7.548,2.551h.028l4.03,4.562H13.39l-4.8-5.455a1.372,1.372,0,0,0-2.059,0L1.033,7.9a1.313,1.313,0,0,0-.22,1.445,1.333,1.333,0,0,0,1.25.78h.5v3.415A1.38,1.38,0,0,0,3.9,14.954H8.2V13.6H3.9C3.89,13.6,3.914,13.554,3.914,13.543Z"/><path d="M14.578,12.189,13.1,11.576a1.828,1.828,0,1,0-1.675,0l-1.482.612a1.183,1.183,0,0,0-.732,1.1v1.493a1.187,1.187,0,0,0,1.183,1.187h3.737a1.187,1.187,0,0,0,1.183-1.187V13.286A1.18,1.18,0,0,0,14.578,12.189Z"/><polygon points="7.541 11.173 7.536 11.172 7.532 11.173 7.541 11.173"/><path d="M9.778,8.989A.663.663,0,0,0,9.1,8.334H8.2V7.409a.66.66,0,0,0-.657-.676H7.532a.684.684,0,0,0-.685.676v.925H6.015a.652.652,0,0,0-.676.648V9a.688.688,0,0,0,.676.689h.832V10.5a.69.69,0,0,0,.689.674A.667.667,0,0,0,8.2,10.5V9.685H9.1A.7.7,0,0,0,9.778,8.989Z"/><polygon points="9.779 8.982 9.778 8.989 9.779 8.996 9.779 8.982"/></g></svg>