<svg xmlns="http://www.w3.org/2000/svg" viewBox="0 0 16 16"><defs><style>.cls-1{fill:#231f20;}</style></defs><title>label-security-circle</title><g id="Layer_1" data-name="Layer 1"><rect class="cls-1" x="4.114" y="9.142" width="0.457" height="2.285"/><rect class="cls-1" x="5.257" y="9.142" width="0.457" height="2.285"/><rect class="cls-1" x="7.314" y="9.142" width="0.457" height="2.285"/><rect class="cls-1" x="4.8" y="9.142" width="0.229" height="2.285"/><rect class="cls-1" x="5.942" y="9.142" width="0.229" height="2.285"/><rect class="cls-1" x="6.399" y="9.142" width="0.229" height="2.285"/><rect class="cls-1" x="6.857" y="9.142" width="0.229" height="2.285"/><rect class="cls-1" x="7.999" y="9.142" width="0.229" height="2.285"/><rect class="cls-1" x="8.456" y="9.142" width="0.229" height="2.285"/><rect class="cls-1" x="8.913" y="9.142" width="0.457" height="2.285"/><rect class="cls-1" x="10.97" y="9.142" width="0.457" height="2.285"/><rect class="cls-1" x="12.57" y="9.142" width="0.457" height="2.285"/><rect class="cls-1" x="13.256" y="9.142" width="0.457" height="2.285"/><rect class="cls-1" x="9.599" y="9.142" width="0.229" height="2.285"/><rect class="cls-1" x="10.056" y="9.142" width="0.229" height="2.285"/><rect class="cls-1" x="10.513" y="9.142" width="0.229" height="2.285"/><rect class="cls-1" x="11.656" y="9.142" width="0.229" height="2.285"/><rect class="cls-1" x="12.113" y="9.142" width="0.229" height="2.285"/><path class="cls-1" d="M13.76,2.784a2.2,2.2,0,1,0,2.2,2.2A2.2,2.2,0,0,0,13.76,2.784Z"/><path class="cls-1" d="M11.092,4.981a2.643,2.643,0,0,1,.042-.41H.584a.911.911,0,0,1,.787-.457h9.877a2.645,2.645,0,0,1,.209-.457H1.371A1.371,1.371,0,0,0,0,5.028V9.6l0,0a.453.453,0,0,0,.129.319l2.285,2.286a.457.457,0,0,0,.323.134h10.97a1.371,1.371,0,0,0,1.371-1.371V7.283a2.636,2.636,0,0,1-1.324.366A2.671,2.671,0,0,1,11.092,4.981Zm-8.349,6.9L.457,9.6H1.981a.762.762,0,0,1,.762.762Zm11.885-.914a.915.915,0,0,1-.914.914H3.2V10.361A1.22,1.22,0,0,0,1.981,9.142H.457V8.685h14.17Z"/></g></svg>