<svg xmlns="http://www.w3.org/2000/svg" viewBox="0 0 16 16"><defs><style>.cls-1{fill:#231f20;}</style></defs><title>linux</title><g id="Layer_1" data-name="Layer 1"><path class="cls-1" d="M13.95,13.49c0-.13-.08-.32-.34-.62h0a1.24,1.24,0,0,1-.22-.57.87.87,0,0,0-.21-.47h0a.59.59,0,0,0-.45-.13h-.11a1.17,1.17,0,0,1-1,.41.77.77,0,0,1-.47-.74h0a.75.75,0,0,0-.34.53,5.44,5.44,0,0,0-.1,1h0a6.06,6.06,0,0,1-.25,1,1.37,1.37,0,0,0,0,.9h0a.82.82,0,0,0,.84.48,1.67,1.67,0,0,0,1.09-.64,4.2,4.2,0,0,1,1.31-.84C13.85,13.71,13.94,13.62,13.95,13.49Zm-8,.92a1.43,1.43,0,0,0-.39-.84,6.14,6.14,0,0,1-.64-.87h0L4.4,11.8a.88.88,0,0,0-.55-.4H3.77a.47.47,0,0,0-.35.18c-.12.13-.22.31-.36.45h0a1.18,1.18,0,0,1-.49.25.58.58,0,0,0-.37.28h0a.84.84,0,0,0,0,.5,1.31,1.31,0,0,1,0,.6h0a.87.87,0,0,0-.07.66.51.51,0,0,0,.39.22A5,5,0,0,1,4,14.86H4a2,2,0,0,0,1.28.24.71.71,0,0,0,.6-.7h0ZM9,4.39a.44.44,0,0,0-.24-.19h0A3.72,3.72,0,0,1,8.27,4a1.12,1.12,0,0,0-.61-.21.72.72,0,0,0-.23,0A1.15,1.15,0,0,0,7,4.1H7l-.09.07-.24.18a.24.24,0,0,0-.1.29A.69.69,0,0,0,6.92,5h0a2.48,2.48,0,0,1,.31.25.69.69,0,0,0,.16.1.66.66,0,0,0,.22,0,.87.87,0,0,0,.51-.13A2.31,2.31,0,0,1,8.51,5h0A.82.82,0,0,0,9,4.62.28.28,0,0,0,9,4.39ZM11,10.58c.06-.42.4-.44.42-.72a7,7,0,0,0-.74-2,16.14,16.14,0,0,1-1.16-3,1.33,1.33,0,0,1-.7.47,3.4,3.4,0,0,0-.5.28,1.31,1.31,0,0,1-.67.19H7.54A1,1,0,0,1,7,5.56a3.59,3.59,0,0,0-.39-.32l-.19-.13A11.51,11.51,0,0,1,5.14,8.63a5.4,5.4,0,0,0-.43,1.92A.79.79,0,0,0,5,11.2a4.23,4.23,0,0,1,1.2,1,.88.88,0,0,1,.23.78.39.39,0,0,1-.21.22.74.74,0,0,1-.31.06l.18.24c.09.12.19.25.27.38a3.08,3.08,0,0,0,3.58-.22,4.85,4.85,0,0,0,.21-.91,6.85,6.85,0,0,1,.14-1.25,1.16,1.16,0,0,1,.53-.79l.14-.06ZM7.31,3.41h0a1.29,1.29,0,0,0,0-.19h0a1.21,1.21,0,0,0-.1-.44A.78.78,0,0,0,7,2.47a.42.42,0,0,0-.27-.1h0a.41.41,0,0,0-.28.13.77.77,0,0,0-.19.33,1.23,1.23,0,0,0-.05.45h0a1.23,1.23,0,0,0,.1.44A.81.81,0,0,0,6.46,4l.09-.07.12-.09,0,0a.42.42,0,0,1-.11-.16.73.73,0,0,1-.05-.22h0a.72.72,0,0,1,0-.24A.43.43,0,0,1,6.57,3a.18.18,0,0,1,.13-.07h0A.18.18,0,0,1,6.83,3a.42.42,0,0,1,.11.16A.74.74,0,0,1,7,3.38H7a.72.72,0,0,1,0,.17,1.12,1.12,0,0,1,.26-.13Zm2.17-.19h0a1.19,1.19,0,0,0-.11-.5.89.89,0,0,0-.29-.37.64.64,0,0,0-.39-.13h0a.63.63,0,0,0-.4.14A.91.91,0,0,0,8,2.73a1.19,1.19,0,0,0-.1.51h0a1.37,1.37,0,0,0,0,.15,2,2,0,0,1,.41.14.82.82,0,0,1,0-.16h0a.77.77,0,0,1,.06-.28.5.5,0,0,1,.14-.2.26.26,0,0,1,.17-.07h0a.26.26,0,0,1,.18.08A.5.5,0,0,1,9,3.12a.77.77,0,0,1,0,.27H9A.77.77,0,0,1,9,3.68a.63.63,0,0,1-.12.15L9,3.88,9.17,4l.06,0a1,1,0,0,0,.14-.24A1.2,1.2,0,0,0,9.48,3.23Zm4.65,9.4a1.38,1.38,0,0,1,.48.92.75.75,0,0,1-.44.57,5.42,5.42,0,0,0-1.59,1l-.08-.07.08.07a2.28,2.28,0,0,1-1.51.87,1.25,1.25,0,0,1-1.26-.72h0a.92.92,0,0,1-.08-.21c-.67,0-1.25-.17-1.72-.13-.69,0-1.12.2-1.51.21a1.13,1.13,0,0,1-.81.63,2.63,2.63,0,0,1-1.75-.32l0-.09,0,.09a6.61,6.61,0,0,0-1.85-.39.84.84,0,0,1-.63-.38,1.25,1.25,0,0,1,.07-1,1.63,1.63,0,0,0,0-.65,2.47,2.47,0,0,1,0-.37.8.8,0,0,1,.09-.39h0a1,1,0,0,1,.58-.45,1.38,1.38,0,0,0,.53-.26c.14-.15.27-.38.44-.56l.07-.07a3.61,3.61,0,0,1,.19-1.67,10,10,0,0,1,1.82-3,3.61,3.61,0,0,0,.7-2c0-1-.71-4,2.12-4.21h.32c2.53,0,2.39,2.67,2.37,4.1a3.5,3.5,0,0,0,1,2.25A8.3,8.3,0,0,1,13.2,8.68a3.62,3.62,0,0,1,.12,2.47l.13.06.13.09h0a1.22,1.22,0,0,1,.33.7,1.52,1.52,0,0,0,.23.62Z"/></g></svg>