<svg xmlns="http://www.w3.org/2000/svg" viewBox="0 0 16 16"><defs><style>.cls-1{fill:#231f20;}</style></defs><title>microsoft-edge</title><g id="Layer_1" data-name="Layer 1"><path class="cls-1" d="M.61,7.11h0a9.81,9.81,0,0,1,.52-2.16A8.19,8.19,0,0,1,2.17,3a7.6,7.6,0,0,1,1.5-1.57,6.6,6.6,0,0,1,2-1.05A7.74,7.74,0,0,1,8.13,0a7.27,7.27,0,0,1,3.7.94,7,7,0,0,1,2.63,2.71,8,8,0,0,1,.93,4V9.29H5.34A3.16,3.16,0,0,0,5.81,11,3,3,0,0,0,7,12.1a5.83,5.83,0,0,0,1.69.51,7,7,0,0,0,1.9,0,9.45,9.45,0,0,0,1.86-.42A6,6,0,0,0,14,11.47v3.37a8.12,8.12,0,0,1-2.05.82A11,11,0,0,1,9.2,16a7.72,7.72,0,0,1-2.82-.47A6,6,0,0,1,3.59,13.3,5.83,5.83,0,0,1,2.48,10a6.31,6.31,0,0,1,1-3.68,6.89,6.89,0,0,1,2.9-2.4A5.38,5.38,0,0,0,5.68,5a5.76,5.76,0,0,0-.41,1.43h5.68a3.57,3.57,0,0,0-.07-1.25,2.35,2.35,0,0,0-.42-.91,3.13,3.13,0,0,0-.63-.59,2.61,2.61,0,0,0-.72-.37q-.37-.12-.67-.18a3.07,3.07,0,0,0-.5-.08h-.2a8.7,8.7,0,0,0-2.32.4,8.06,8.06,0,0,0-2,.93A10.35,10.35,0,0,0,1.84,5.64,10.11,10.11,0,0,0,.61,7.11Z"/></g></svg>