<svg xmlns="http://www.w3.org/2000/svg" viewBox="0 0 16 16"><defs><style>.cls-1{fill:#231f20;}</style></defs><title>new-station</title><g id="Layer_1" data-name="Layer 1"><path class="cls-1" d="M5.174,6.647,3.7,8.116,7.149,11.56h0l5.61-5.61-1.51-1.51L7.109,8.582ZM13.005.018H2.995A2.9,2.9,0,0,0,.018,2.907v10.1a2.977,2.977,0,0,0,2.977,2.977H9.409a4.609,4.609,0,0,1-1.16-1.9H2.907a.992.992,0,0,1-.992-.992V2.907a.992.992,0,0,1,.992-.992H13.093a.992.992,0,0,1,.992.992V8.3a4.606,4.606,0,0,1,1.9,1.195V2.907A2.9,2.9,0,0,0,13.005.018Z"/><path class="cls-1" d="M12.632,9.342a3.329,3.329,0,1,0,3.329,3.329A3.329,3.329,0,0,0,12.632,9.342Zm2.007,3.829H13.132v1.507h-1V13.171H10.625v-1h1.507V10.664h1v1.507h1.507Z"/></g></svg>