<svg xmlns="http://www.w3.org/2000/svg" viewBox="0 0 16 16"><title>new-station</title><g id="84725ba7-66f7-4d65-a1ae-cb9a3752bb01" data-name="Layer 1"><path d="M5.174,6.647,3.705,8.116,7.149,11.56h0l5.61-5.61-1.51-1.51L7.109,8.582ZM13.005.018H3A2.9,2.9,0,0,0,.018,2.907v10.1A2.976,2.976,0,0,0,3,15.982H9.409a4.61,4.61,0,0,1-1.16-1.9H2.907a.993.993,0,0,1-.993-.992V2.907a.994.994,0,0,1,.993-.993H13.093a.993.993,0,0,1,.993.993V8.3a4.6,4.6,0,0,1,1.9,1.2V2.907A2.9,2.9,0,0,0,13.005.018Z"/><path d="M12.632,9.342a3.329,3.329,0,1,0,3.329,3.329A3.33,3.33,0,0,0,12.632,9.342Zm2.007,3.829H13.132v1.507h-1V13.171H10.625v-1h1.508V10.664h1v1.508h1.507Z"/></g></svg>