<svg xmlns="http://www.w3.org/2000/svg" viewBox="0 0 16 16"><title>room</title><g id="9d46d2ca-b00c-42ad-890a-4dbbec9f96e5" data-name="Layer 1"><path d="M6.424,1.353H2.315a.949.949,0,0,0-.949.949V6.414a.948.948,0,0,0,.949.948H6.424a.947.947,0,0,0,.948-.948V2.3A.948.948,0,0,0,6.424,1.353Zm0,7.236H2.315a.949.949,0,0,0-.949.949v4.151a.949.949,0,0,0,.949.949H6.424a.948.948,0,0,0,.948-.949V9.538A.948.948,0,0,0,6.424,8.589Zm7.231,0H9.546a.948.948,0,0,0-.948.949v4.151a.948.948,0,0,0,.948.949h4.109a.949.949,0,0,0,.949-.949V9.538A.949.949,0,0,0,13.655,8.589Zm0-7.236H9.546A.948.948,0,0,0,8.6,2.3V6.414a.947.947,0,0,0,.948.948h4.109a.948.948,0,0,0,.949-.948V2.3A.949.949,0,0,0,13.655,1.353Z" fill-rule="evenodd"/></g></svg>