<svg xmlns="http://www.w3.org/2000/svg" viewBox="0 0 16 16"><title>tick-box-full</title><g id="cddc212f-7185-4036-aef0-6027e5b3ef85" data-name="Layer 1"><path d="M13.005.018H3A2.9,2.9,0,0,0,.018,2.907v10.1A2.976,2.976,0,0,0,3,15.982h10.01a2.976,2.976,0,0,0,2.977-2.976V2.907A2.9,2.9,0,0,0,13.005.018Zm1.081,13.076a.992.992,0,0,1-.993.992H2.907a.993.993,0,0,1-.993-.992V2.907a.994.994,0,0,1,.993-.993H13.093a.993.993,0,0,1,.993.993Z" fill-rule="evenodd"/><polygon points="7.109 8.582 5.174 6.647 3.705 8.116 7.149 11.56 7.15 11.559 7.152 11.56 12.762 5.95 11.252 4.44 7.109 8.582" fill-rule="evenodd"/></g></svg>