<svg xmlns="http://www.w3.org/2000/svg" viewBox="0 0 16 16"><defs><style>.cls-1{fill:#231f20;}</style></defs><title>upload</title><g id="Layer_1" data-name="Layer 1"><path class="cls-1" d="M12.607,5a3.091,3.091,0,0,0-2.638-1.53l-.12,0a4.222,4.222,0,0,0-7.37,1.8,4.223,4.223,0,0,0,1.789,8.05H6.253V11.638H4.268a2.542,2.542,0,0,1-.654-5l.433-.116.019-.448A2.541,2.541,0,0,1,8.823,4.933l.243.431.471-.149a1.3,1.3,0,0,1,.389-.059,1.431,1.431,0,0,1,1.354.976l.119.392.407.038a2.544,2.544,0,0,1-.238,5.077H10.089v1.681h1.477A4.225,4.225,0,0,0,12.607,5Z"/><path class="cls-1" d="M6.907,10.079l.357-.347v3.61h1.85v-3.6l.322.332A.918.918,0,1,0,10.727,8.77L8.811,6.852a.947.947,0,0,0-1.31,0L5.584,8.769a.927.927,0,0,0,0,1.309A.97.97,0,0,0,6.907,10.079Z"/></g></svg>