<svg width="32" height="32" viewBox="0 0 32 32" fill="none" xmlns="http://www.w3.org/2000/svg">
<path d="M30.28 16C30.28 27.42 27.42 30.28 16 30.28C4.58 30.28 1.72 27.42 1.72 16C1.72 4.58 4.58 1.72 16 1.72C27.42 1.72 30.28 4.58 30.28 16Z" fill="url(#paint0_linear)"/>
<path fill-rule="evenodd" clip-rule="evenodd" d="M16 18.73C15.4601 18.73 14.9322 18.5699 14.4833 18.2699C14.0343 17.9699 13.6844 17.5436 13.4778 17.0447C13.2712 16.5459 13.2171 15.997 13.3225 15.4674C13.4278 14.9378 13.6878 14.4514 14.0696 14.0696C14.4514 13.6878 14.9378 13.4278 15.4674 13.3225C15.997 13.2171 16.5459 13.2712 17.0447 13.4778C17.5436 13.6844 17.9699 14.0344 18.2699 14.4833C18.5699 14.9322 18.73 15.4601 18.73 16C18.73 16.724 18.4424 17.4184 17.9304 17.9304C17.4184 18.4424 16.724 18.73 16 18.73ZM21.23 16.73C21.2966 16.2724 21.2966 15.8076 21.23 15.35L22.72 14.19C22.7835 14.1361 22.8269 14.0623 22.8432 13.9806C22.8595 13.899 22.8478 13.8142 22.81 13.74L21.4 11.26C21.3595 11.1938 21.2987 11.1424 21.2266 11.1136C21.1545 11.0847 21.075 11.08 21 11.1L19.24 11.81C18.8601 11.5245 18.4429 11.2924 18 11.12L17.74 9.25C17.7187 9.17865 17.6753 9.11594 17.6159 9.07098C17.5566 9.02602 17.4844 9.00116 17.41 9H14.59C14.5079 8.99911 14.4282 9.02799 14.3657 9.0813C14.3032 9.13461 14.2621 9.20875 14.25 9.29L14 11.12C13.5757 11.2986 13.1758 11.5305 12.81 11.81L11 11.1C10.9213 11.0682 10.8335 11.0669 10.7539 11.0965C10.6744 11.1262 10.6088 11.1845 10.57 11.26L9.2 13.7C9.15719 13.7722 9.14172 13.8573 9.1564 13.9399C9.17109 14.0225 9.21495 14.097 9.28 14.15L10.77 15.31C10.7034 15.7676 10.7034 16.2324 10.77 16.69L9.28 17.85C9.21495 17.903 9.17109 17.9775 9.1564 18.0601C9.14172 18.1427 9.15719 18.2279 9.2 18.3L10.61 20.74C10.6504 20.814 10.7161 20.8709 10.7951 20.9003C10.8741 20.9297 10.9611 20.9296 11.04 20.9L12.79 20.19C13.1558 20.4695 13.5557 20.7014 13.98 20.88L14.25 22.75C14.2621 22.8313 14.3032 22.9054 14.3657 22.9587C14.4282 23.012 14.5079 23.0409 14.59 23.04H17.41C17.4933 23.0412 17.5743 23.0127 17.6385 22.9595C17.7026 22.9064 17.7457 22.8321 17.76 22.75L18 20.88C18.4254 20.7036 18.8256 20.4716 19.19 20.19L21 20.9C21.0789 20.9296 21.1659 20.9297 21.2449 20.9003C21.3239 20.8709 21.3896 20.814 21.43 20.74L22.84 18.3C22.8778 18.2258 22.8895 18.141 22.8732 18.0594C22.8569 17.9777 22.8135 17.9039 22.75 17.85L21.23 16.73Z" fill="white"/>
<defs>
<linearGradient id="paint0_linear" x1="4.18" y1="4.18" x2="27.54" y2="27.54" gradientUnits="userSpaceOnUse">
<stop stop-color="#32A0F0"/>
<stop offset="1" stop-color="#3F75E5"/>
</linearGradient>
</defs>
</svg>
