<svg width="32" height="32" viewBox="0 0 32 32" fill="none" xmlns="http://www.w3.org/2000/svg">
<path d="M30.28 16C30.28 27.42 27.42 30.28 16 30.28C4.58 30.28 1.72 27.42 1.72 16C1.72 4.58 4.58 1.72 16 1.72C27.42 1.72 30.28 4.58 30.28 16Z" fill="url(#paint0_linear)"/>
<path d="M17.83 19.21C17.985 18.8229 18.0826 18.4153 18.12 18L20.22 17.67L19.86 15.34L17.76 15.66C17.4322 14.8607 16.8886 14.1683 16.19 13.66L16.95 11.66L14.75 10.8L13.99 12.8C13.1301 12.6953 12.258 12.8303 11.47 13.19L10.15 11.54L8.3 13L9.62 14.65C9.36773 14.9962 9.15947 15.3724 9 15.77C8.81972 16.2371 8.71508 16.73 8.69 17.23L6.55 17.55L6.92 20L9.19 19.64C9.53147 20.3223 10.0323 20.9122 10.65 21.36L9.88 23.36L12.1 24.23L12.86 22.23C13.7124 22.3331 14.5767 22.2017 15.36 21.85L16.68 23.51L18.53 22L17.21 20.33C17.4657 19.986 17.6743 19.6093 17.83 19.21ZM16 18.5C15.7096 19.1508 15.1803 19.6652 14.5216 19.937C13.8628 20.2088 13.1248 20.2172 12.46 19.9605C11.7952 19.7038 11.2544 19.2016 10.9492 18.5577C10.644 17.9137 10.5977 17.1771 10.82 16.5C11.1104 15.8492 11.6397 15.3348 12.2984 15.063C12.9572 14.7913 13.6952 14.7828 14.36 15.0395C15.0248 15.2962 15.5656 15.7984 15.8708 16.4424C16.176 17.0863 16.2223 17.8229 16 18.5ZM24.42 12.33C24.4574 12.1525 24.4741 11.9713 24.47 11.79C24.4644 11.1798 24.2728 10.5858 23.9208 10.0873C23.5688 9.5888 23.0732 9.2095 22.5 9.00001V7.82001H20.5V9.00001C19.9212 9.20458 19.4191 9.58177 19.0615 10.0807C18.7039 10.5796 18.5079 11.1762 18.5 11.79C18.4991 11.9717 18.5192 12.1529 18.56 12.33L17.56 12.93L18.56 14.64L19.56 14.06C20.0938 14.5198 20.7755 14.7719 21.48 14.77C22.1903 14.7705 22.8778 14.5189 23.42 14.06L24.42 14.64L25.42 12.93L24.42 12.33ZM21.5 13.28C21.2057 13.278 20.9187 13.189 20.6749 13.0241C20.4312 12.8591 20.2418 12.6257 20.1306 12.3533C20.0193 12.0809 19.9912 11.7816 20.0499 11.4932C20.1085 11.2049 20.2512 10.9403 20.4599 10.7329C20.6687 10.5256 20.9342 10.3846 21.223 10.3279C21.5117 10.2713 21.8108 10.3013 22.0825 10.4144C22.3542 10.5275 22.5863 10.7184 22.7496 10.9633C22.9129 11.2081 23 11.4957 23 11.79C23.0013 11.986 22.9637 12.1804 22.8893 12.3618C22.8149 12.5431 22.7052 12.7079 22.5666 12.8466C22.4279 12.9852 22.2631 13.0949 22.0818 13.1693C21.9004 13.2437 21.706 13.2813 21.51 13.28H21.5Z" fill="white"/>
<defs>
<linearGradient id="paint0_linear" x1="4.58" y1="4.58" x2="27.42" y2="27.42" gradientUnits="userSpaceOnUse">
<stop stop-color="#32A0F0"/>
<stop offset="1" stop-color="#3F75E5"/>
</linearGradient>
</defs>
</svg>
