<svg width="32" height="32" viewBox="0 0 32 32" fill="none" xmlns="http://www.w3.org/2000/svg">
<path d="M30.28 16C30.28 27.42 27.42 30.28 16 30.28C4.58 30.28 1.72 27.42 1.72 16C1.72 4.58 4.58 1.72 16 1.72C27.42 1.72 30.28 4.58 30.28 16Z" fill="url(#paint0_linear)"/>
<path d="M13.37 9.87999C13.944 9.87801 14.5057 10.0464 14.9839 10.3639C15.4621 10.6813 15.8353 11.1335 16.0564 11.6633C16.2774 12.193 16.3363 12.7764 16.2255 13.3396C16.1147 13.9028 15.8393 14.4205 15.4341 14.827C15.029 15.2336 14.5123 15.5108 13.9494 15.6235C13.3866 15.7362 12.803 15.6794 12.2725 15.4602C11.7421 15.241 11.2885 14.8693 10.9694 14.3922C10.6503 13.9151 10.48 13.354 10.48 12.78C10.48 12.0126 10.7842 11.2765 11.3259 10.7329C11.8675 10.1893 12.6026 9.88264 13.37 9.87999ZM17.76 22.12H9V19.48C9 18.7798 9.27814 18.1083 9.77324 17.6132C10.2683 17.1181 10.9398 16.84 11.64 16.84H15.16C15.8602 16.84 16.5317 17.1181 17.0268 17.6132C17.5219 18.1083 17.8 18.7798 17.8 19.48L17.76 22.12ZM20 11.61C20.432 11.608 20.8549 11.7344 21.2149 11.9732C21.5749 12.212 21.8559 12.5524 22.0221 12.9511C22.1884 13.3499 22.2324 13.789 22.1486 14.2128C22.0648 14.6366 21.8569 15.026 21.5515 15.3315C21.246 15.6369 20.8566 15.8448 20.4328 15.9286C20.009 16.0124 19.5699 15.9683 19.1711 15.8021C18.7724 15.6359 18.432 15.3549 18.1932 14.9949C17.9544 14.6349 17.828 14.212 17.83 13.78C17.8326 13.2053 18.0621 12.6549 18.4685 12.2485C18.8749 11.8421 19.4253 11.6126 20 11.61ZM23 20.35H18.6V19.47C18.6015 18.9979 18.5027 18.5309 18.31 18.1C18.2904 18.0291 18.26 17.9617 18.22 17.9C18.1977 17.8427 18.1674 17.7888 18.13 17.74C18.097 17.6579 18.0533 17.5806 18 17.51C18.149 17.3035 18.3441 17.1345 18.5697 17.0165C18.7954 16.8985 19.0454 16.8346 19.3 16.83H21.42C21.84 16.8326 22.2418 17.0013 22.5378 17.2992C22.8339 17.5971 23 18 23 18.42V20.35Z" fill="white"/>
<defs>
<linearGradient id="paint0_linear" x1="4.58" y1="4.58" x2="27.42" y2="27.42" gradientUnits="userSpaceOnUse">
<stop stop-color="#32A0F0"/>
<stop offset="1" stop-color="#3F75E5"/>
</linearGradient>
</defs>
</svg>
