<svg width="32" height="32" viewBox="0 0 32 32" fill="none" xmlns="http://www.w3.org/2000/svg">
<path d="M19.9081 13.3268L16.975 14.2693C16.3445 14.4601 15.6717 14.4601 15.0412 14.2693L12.0838 13.4C12.047 13.3884 12.008 13.3857 11.97 13.3921C11.932 13.3986 11.8961 13.4139 11.8652 13.4369C11.8342 13.4599 11.8092 13.4899 11.7921 13.5244C11.775 13.559 11.7664 13.5971 11.7669 13.6356V17.2187C11.768 17.2718 11.7859 17.3232 11.818 17.3655C11.8501 17.4078 11.8948 17.4389 11.9456 17.4543L15.545 18.535C15.8307 18.6243 16.1368 18.6243 16.4225 18.535L20.0625 17.365C20.1125 17.3493 20.1561 17.3178 20.1868 17.2754C20.2176 17.233 20.2338 17.1817 20.2331 17.1293V13.5625C20.2323 13.5236 20.2225 13.4854 20.2044 13.451C20.1864 13.4166 20.1606 13.3868 20.1291 13.3639C20.0977 13.3411 20.0613 13.3259 20.023 13.3195C19.9846 13.313 19.9453 13.3155 19.9081 13.3268V13.3268Z" fill="url(#paint0_linear)"/>
<path d="M25.9206 5.63248L18.0962 3.30873C16.7295 2.89424 15.2705 2.89424 13.9038 3.30873L6.07937 5.63248C5.22395 5.90207 4.47676 6.43739 3.94637 7.16065C3.41597 7.88392 3.13 8.75746 3.13 9.65436V22.3456C3.12131 23.2494 3.40325 24.1321 3.93428 24.8636C4.4653 25.595 5.21729 26.1365 6.07937 26.4081L13.9038 28.7319C15.2705 29.1464 16.7295 29.1464 18.0962 28.7319L25.9206 26.4081C26.7827 26.1365 27.5347 25.595 28.0657 24.8636C28.5967 24.1321 28.8787 23.2494 28.87 22.3456V9.65436C28.87 8.75746 28.584 7.88392 28.0536 7.16065C27.5232 6.43739 26.7761 5.90207 25.9206 5.63248V5.63248ZM22.8413 17.9419C22.8421 18.3395 22.7145 18.7269 22.4773 19.0461C22.2401 19.3653 21.906 19.5992 21.525 19.7131L16.9506 21.0781C16.3386 21.2627 15.6858 21.2627 15.0737 21.0781L11.9944 20.1519C11.9679 20.1444 11.94 20.1431 11.913 20.1481C11.8859 20.1531 11.8604 20.1643 11.8384 20.1808C11.8164 20.1973 11.7984 20.2187 11.786 20.2433C11.7736 20.2679 11.7671 20.295 11.7669 20.3225V22.4025C11.766 22.5015 11.7427 22.5991 11.6989 22.6879C11.655 22.7767 11.5916 22.8545 11.5135 22.9154C11.4354 22.9763 11.3446 23.0188 11.2478 23.0398C11.151 23.0607 11.0507 23.0595 10.9544 23.0362L9.6625 22.6462C9.52592 22.6086 9.40563 22.5268 9.32039 22.4136C9.23515 22.3005 9.18974 22.1623 9.19125 22.0206V12.3437C9.19206 12.0597 9.25848 11.7796 9.38531 11.5255C9.51215 11.2713 9.69598 11.0499 9.92247 10.8784C10.149 10.707 10.412 10.5902 10.691 10.5371C10.9701 10.484 11.2576 10.4961 11.5312 10.5725L15.5531 11.7506C15.8338 11.8361 16.1337 11.8361 16.4144 11.7506L20.4362 10.4912C20.7151 10.3984 21.0121 10.3733 21.3026 10.4179C21.5931 10.4626 21.8688 10.5757 22.107 10.7479C22.3451 10.9202 22.5389 11.1467 22.6722 11.4086C22.8055 11.6705 22.8746 11.9604 22.8737 12.2544L22.8413 17.9419Z" fill="url(#paint1_linear)"/>
<defs>
<linearGradient id="paint0_linear" x1="16" y1="2.34997" x2="16" y2="31.2343" gradientUnits="userSpaceOnUse">
<stop stop-color="#1A6BFE"/>
<stop offset="0.65" stop-color="#1D5AE1"/>
<stop offset="1" stop-color="#1A56E3"/>
</linearGradient>
<linearGradient id="paint1_linear" x1="414.976" y1="-17.838" x2="414.976" y2="908.057" gradientUnits="userSpaceOnUse">
<stop stop-color="#1A6BFE"/>
<stop offset="0.65" stop-color="#1D5AE1"/>
<stop offset="1" stop-color="#1A56E3"/>
</linearGradient>
</defs>
</svg>
