<svg width="32" height="32" viewBox="0 0 32 32" fill="none" xmlns="http://www.w3.org/2000/svg">
<path d="M16 1.70999C4.55 1.70999 1.69 4.56999 1.69 16C1.69 27.43 4.55 30.33 16 30.33C27.45 30.33 30.31 27.47 30.31 16C30.31 4.52999 27.45 1.70999 16 1.70999Z" fill="url(#paint0_linear)"/>
<path d="M11.49 10.18H10.13C9.74892 10.18 9.44 10.4889 9.44 10.87V21.17C9.44 21.5511 9.74892 21.86 10.13 21.86H11.49C11.8711 21.86 12.18 21.5511 12.18 21.17V10.87C12.18 10.4889 11.8711 10.18 11.49 10.18Z" fill="white"/>
<path d="M21.99 19.09H15.04C14.6589 19.09 14.35 19.3989 14.35 19.78V21.17C14.35 21.5511 14.6589 21.86 15.04 21.86H21.99C22.3711 21.86 22.68 21.5511 22.68 21.17V19.78C22.68 19.3989 22.3711 19.09 21.99 19.09Z" fill="white"/>
<path d="M21.99 10.18H15.04C14.6589 10.18 14.35 10.4889 14.35 10.87V16.17C14.35 16.5511 14.6589 16.86 15.04 16.86H21.99C22.3711 16.86 22.68 16.5511 22.68 16.17V10.87C22.68 10.4889 22.3711 10.18 21.99 10.18Z" fill="white"/>
<defs>
<linearGradient id="paint0_linear" x1="4.55" y1="4.56999" x2="27.45" y2="27.47" gradientUnits="userSpaceOnUse">
<stop stop-color="#787882"/>
<stop offset="1" stop-color="#5F5F69"/>
</linearGradient>
</defs>
</svg>
