<svg width="32" height="32" viewBox="0 0 32 32" fill="none" xmlns="http://www.w3.org/2000/svg">
<path d="M16 1.69C4.55 1.69 1.69 4.55 1.69 16C1.69 27.45 4.55 30.31 16 30.31C27.45 30.31 30.31 27.45 30.31 16C30.31 4.55 27.45 1.69 16 1.69Z" fill="url(#paint0_linear)"/>
<path d="M9.49 12.61C10.3295 12.61 11.01 11.9295 11.01 11.09C11.01 10.2505 10.3295 9.57001 9.49 9.57001C8.65053 9.57001 7.97 10.2505 7.97 11.09C7.97 11.9295 8.65053 12.61 9.49 12.61Z" fill="white"/>
<path d="M9.49 17.55C10.3295 17.55 11.01 16.8695 11.01 16.03C11.01 15.1905 10.3295 14.51 9.49 14.51C8.65053 14.51 7.97 15.1905 7.97 16.03C7.97 16.8695 8.65053 17.55 9.49 17.55Z" fill="white"/>
<path d="M9.49 22.48C10.3295 22.48 11.01 21.7995 11.01 20.96C11.01 20.1205 10.3295 19.44 9.49 19.44C8.65053 19.44 7.97 20.1205 7.97 20.96C7.97 21.7995 8.65053 22.48 9.49 22.48Z" fill="white"/>
<path d="M23.19 11.77C23.19 11.8614 23.1718 11.952 23.1365 12.0364C23.1012 12.1207 23.0495 12.1973 22.9844 12.2615C22.9192 12.3257 22.842 12.3763 22.7571 12.4104C22.6723 12.4444 22.5814 12.4613 22.49 12.46H13.35C13.167 12.46 12.9915 12.3873 12.8621 12.2579C12.7327 12.1285 12.66 11.953 12.66 11.77V10.41C12.66 10.227 12.7327 10.0515 12.8621 9.92208C12.9915 9.79268 13.167 9.71998 13.35 9.71998H22.49C22.5814 9.71866 22.6723 9.73552 22.7571 9.76961C22.842 9.80369 22.9192 9.8543 22.9844 9.91851C23.0495 9.98271 23.1012 10.0592 23.1365 10.1436C23.1718 10.228 23.19 10.3185 23.19 10.41V11.77Z" fill="white"/>
<path d="M22.49 14.65H13.36C12.9734 14.65 12.66 14.9634 12.66 15.35V16.69C12.66 17.0766 12.9734 17.39 13.36 17.39H22.49C22.8766 17.39 23.19 17.0766 23.19 16.69V15.35C23.19 14.9634 22.8766 14.65 22.49 14.65Z" fill="white"/>
<path d="M22.49 19.59H13.36C12.9734 19.59 12.66 19.9034 12.66 20.29V21.63C12.66 22.0166 12.9734 22.33 13.36 22.33H22.49C22.8766 22.33 23.19 22.0166 23.19 21.63V20.29C23.19 19.9034 22.8766 19.59 22.49 19.59Z" fill="white"/>
<defs>
<linearGradient id="paint0_linear" x1="4.55" y1="4.55" x2="27.45" y2="27.45" gradientUnits="userSpaceOnUse">
<stop stop-color="#6BB23D"/>
<stop offset="1" stop-color="#659630"/>
</linearGradient>
</defs>
</svg>
