<?xml version="1.0" standalone="no"?> 
<!DOCTYPE svg PUBLIC "-//W3C//DTD SVG 1.1//EN" "http://www.w3.org/Graphics/SVG/1.1/DTD/svg11.dtd" >
<svg xmlns="http://www.w3.org/2000/svg">
<defs>
  <font id="giving" horiz-adv-x="16">
    <font-face font-family="giving"
      units-per-em="16" ascent="16"
      descent="0" />
    <missing-glyph horiz-adv-x="0" />
    <glyph glyph-name="anonymous"
      unicode="&#xF101;"
      horiz-adv-x="16" d=" M12.516 3.864C10.423 4.626 9.755 5.264 9.755 6.647C9.755 7.473 10.393 7.203 10.674 8.717C10.79 9.346 11.355 8.728 11.463 10.161C11.463 10.733 11.155 10.875 11.155 10.875S11.311 11.721 11.372 12.375C11.448 13.182 10.9 15.277 8 15.277S4.551 13.177 4.628 12.371C4.689 11.721 4.845 10.871 4.845 10.871S4.537 10.729 4.537 10.157C4.645 8.724 5.209 9.342 5.326 8.713C5.607 7.199 6.245 7.469 6.245 6.643C6.245 5.265 5.577 4.622 3.484 3.86S0.022 2.319 0.022 1.787V0H15.978V1.787C15.978 2.319 14.615 3.1 12.516 3.864zM8.606 6.694A0.8650000000000001 0.8650000000000001 0 0 0 7.391 7.923A0.818 0.818 0 0 0 8 8.164A0.827 0.827 0 0 0 8.61 7.923A0.816 0.816 0 0 0 8.857 7.31A0.824 0.824 0 0 0 8.606 6.694zM9.335 10.571A3.986 3.986 0 0 1 8.935 10.086A2.454 2.454 0 0 1 8.649 9.549A0.943 0.943 0 0 1 8.594 9.009H7.443A1.372 1.372 0 0 0 7.464 9.638A2.35 2.35 0 0 0 7.714 10.238A3.362 3.362 0 0 0 8.09 10.747C8.23 10.903 8.364 11.059 8.49 11.208A3.283 3.283 0 0 1 8.8 11.657A0.937 0.937 0 0 1 8.925 12.127A0.861 0.861 0 0 1 8.681 12.765A0.9309999999999999 0.9309999999999999 0 0 1 8 13A1.359 1.359 0 0 1 7.362 12.848A2.133 2.133 0 0 1 6.828 12.43L6.1 13.081A2.9289999999999994 2.9289999999999994 0 0 0 6.967 13.768A2.33 2.33 0 0 0 8.1 14.04A2.95 2.95 0 0 0 8.945 13.923A1.916 1.916 0 0 0 9.617 13.576A1.542 1.542 0 0 0 10.052 13A1.916 1.916 0 0 0 10.205 12.21A1.466 1.466 0 0 0 10.074 11.579A2.86 2.86 0 0 0 9.75 11.048A5.58 5.58 0 0 0 9.335 10.571z" />
    <glyph glyph-name="arrow-up-trend-circle-o"
      unicode="&#xF102;"
      horiz-adv-x="16" d=" M8.048 15.467A7.5 7.5 0 1 1 15.548 7.967A7.5 7.5 0 0 1 8.048 15.467zM8.048 2.074A5.892 5.892 0 0 0 3.138 4.714L6.071 7.646L8.589 5.128L10.889 7.428V6.56H12.389V10.022H8.846V8.522H9.863L8.589 7.249L6.071 9.768L2.447 6.144A5.891000000000001 5.891000000000001 0 1 0 8.047 2.074z" />
    <glyph glyph-name="arrows-merging"
      unicode="&#xF103;"
      horiz-adv-x="16.71127358182649" d=" M15.3534826033031 8.7170180821202L11.2299758469874 12.8373914746393A1.014165415497095 1.014165415497095 0 1 1 9.7959396827469 11.4043997649977L12.1835628957504 9.0157320973954H7.634963117697A4.549644232652262 4.549644232652262 0 0 0 3.0915856126379 13.5591096024545V14.9346563091586A1.014165415497095 1.014165415497095 0 0 1 1.0632547816437 14.9346563091586V13.5570206932567A6.56753051765781 6.56753051765781 0 0 1 4.1433513936941 7.9994777727006A6.564397153861218 6.564397153861218 0 0 1 1.0632547816437 2.4429793067433V1.0642992362426A1.014165415497095 1.014165415497095 0 0 1 3.0915856126379 1.0642992362426V2.4429793067433A4.547555323454533 4.547555323454533 0 0 0 7.634963117697 6.9853123572035H12.1835628957504L9.7959396827469 4.5976891442A1.014165415497095 1.014165415497095 0 0 1 11.2299758469874 3.1626085253607L15.3534826033031 7.2829819178798A1.014165415497095 1.014165415497095 0 0 1 15.3534826033031 8.7170180821202z" />
    <glyph glyph-name="batches-group"
      unicode="&#xF104;"
      horiz-adv-x="16" d=" M14.257 10.682V10.961A0.7299999999999999 0.7299999999999999 0 0 1 13.527 11.692H2.4A0.7299999999999999 0.7299999999999999 0 0 1 1.67 10.961V4.053A0.7299999999999999 0.7299999999999999 0 0 1 2.4 3.323H2.654V9.355A1.328 1.328 0 0 0 3.981 10.682zM15.108 10.082H3.981A0.731 0.731 0 0 1 3.25 9.351V2.443A0.7299999999999999 0.7299999999999999 0 0 1 3.981 1.713H15.108A0.7299999999999999 0.7299999999999999 0 0 1 15.838 2.443V9.355A0.7299999999999999 0.7299999999999999 0 0 1 15.108 10.086zM8.458 8.439A0.743 0.743 0 0 0 9.458 8.358L9.558 8.258L9.658 8.358A0.732 0.732 0 1 0 10.713 7.344L10.587 7.215L9.642 6.254A0.112 0.112 0 0 0 9.48 6.254L8.4 7.344A0.747 0.747 0 0 0 8.458 8.439zM15 2.723A0.438 0.438 0 0 0 14.385 2.778L12.332 5.234L9.816 3.047A0.43500000000000005 0.43500000000000005 0 0 0 9.242 3.047L6.742 5.222L4.7 2.778A0.43699999999999994 0.43699999999999994 0 0 0 4.029 3.339L6.084 5.8L4.391 7.27A0.43699999999999994 0.43699999999999994 0 0 0 4.965 7.929L9.53 3.956L14.177 7.991A0.43699999999999994 0.43699999999999994 0 1 0 14.751 7.332L13 5.807L15.063 3.339A0.43699999999999994 0.43699999999999994 0 0 0 15 2.723zM12.667 12.272V12.552A0.7299999999999999 0.7299999999999999 0 0 1 11.937 13.282H0.81A0.7299999999999999 0.7299999999999999 0 0 1 0.079 12.552V5.644A0.7299999999999999 0.7299999999999999 0 0 1 0.81 4.914H1.064V10.946A1.328 1.328 0 0 0 2.39 12.272z" />
    <glyph glyph-name="batches"
      unicode="&#xF105;"
      horiz-adv-x="16" d=" M8.191 10.4L7.986 10.191L7.781 10.4A1.547 1.547 0 1 1 5.552 8.256L5.818 7.984L7.818 5.952A0.23900000000000002 0.23900000000000002 0 0 1 8.161 5.952L10.424 8.252A1.547 1.547 0 1 1 8.191 10.4zM15.191 10.089L13.433 11.282L13.438 12.231A1.546 1.546 0 0 1 11.875 13.759H10.889L9.283 14.8A2.082 2.082 0 0 1 8.006 15.244H7.981A2.082 2.082 0 0 1 6.7 14.8L5.392 13.759H3.837A1.546 1.546 0 0 1 2.273 12.231L2.262 11.271L0.663 10.02A1.262 1.262 0 0 1 0.063 8.949V2.1A1.287 1.287 0 0 1 1.363 0.828H14.615A1.2880000000000003 1.2880000000000003 0 0 1 15.915 2.101V8.949A1.27 1.27 0 0 1 15.189 10.089zM14.807 2.621A0.46 0.46 0 0 0 14.553 2.013A0.47500000000000003 0.47500000000000003 0 0 0 13.933 2.259L11.62 5.126H4.368L2.055 2.259A0.47500000000000003 0.47500000000000003 0 0 0 1.435 2.013A0.46 0.46 0 0 0 1.182 2.621L3.552 5.854L1.214 7.954A0.45599999999999996 0.45599999999999996 0 0 0 1.291 8.6A0.481 0.481 0 0 0 1.956 8.526L3.633 7.1V11.862A0.532 0.532 0 0 0 4.171 12.388H11.787A0.532 0.532 0 0 0 12.326 11.862V6.978L14.026 8.53A0.481 0.481 0 0 0 14.7 8.6A0.45599999999999996 0.45599999999999996 0 0 0 14.777 7.949L12.439 5.76z" />
    <glyph glyph-name="check-circle-stylized"
      unicode="&#xF106;"
      horiz-adv-x="16" d=" M14.06 13.35A0.7600000000000001 0.7600000000000001 0 0 1 13 13.524A17.531 17.531 0 0 1 7.975 7.587L6.175 9.715A0.758 0.758 0 0 1 5.017 8.736L7.571 5.715C7.578 5.707 7.588 5.705 7.594 5.697A0.7829999999999999 0.7829999999999999 0 0 1 7.761 5.57A1.019 1.019 0 0 1 7.852 5.51L7.865 5.502A0.748 0.748 0 0 1 8.149 5.446H8.156A0.752 0.752 0 0 1 8.387 5.486A0.651 0.651 0 0 1 8.458 5.519A0.7820000000000001 0.7820000000000001 0 0 1 8.606 5.605C8.617 5.613 8.629 5.616 8.64 5.624S8.657 5.65 8.669 5.661A0.767 0.767 0 0 1 8.793 5.818A0.682 0.682 0 0 1 8.834 5.886C8.834 5.898 8.848 5.906 8.852 5.917A16.573 16.573 0 0 0 13.885 12.292A0.758 0.758 0 0 1 14.06 13.35z M15.321 10.236A0.758 0.758 0 0 1 13.872 9.791A6.105999999999999 6.105999999999999 0 1 0 10.218 13.7A0.758 0.758 0 1 1 10.762 15.119A7.623 7.623 0 1 1 15.321 10.236z" />
    <glyph glyph-name="clock-circle-o"
      unicode="&#xF107;"
      horiz-adv-x="16" d=" M8.797 8.266L8.797 12.258L7.19 12.258L7.19 7.667L9.05 5.516L10.266 6.567L8.797 8.266z M7.994 15.467A7.5 7.5 0 1 1 15.494 7.967A7.5 7.5 0 0 1 7.994 15.467zM7.994 2.074A5.893000000000001 5.893000000000001 0 1 0 13.887 7.967A5.9 5.9 0 0 0 7.994 2.074z" />
    <glyph glyph-name="communication"
      unicode="&#xF108;"
      horiz-adv-x="16.71127358182649" d=" M8.3556367909132 6.2447940466088A3.5093674521835623 3.5093674521835623 0 0 1 11.8650042430968 9.7552059533912V11.5088452248841A3.3244989881846063 3.3244989881846063 0 0 1 8.3556367909132 15.0213460408643H4.8431359749331A3.2378092564788825 3.2378092564788825 0 0 1 1.3337685227495 11.5088452248841A3.271231803642535 3.271231803642535 0 0 1 4.8431359749331 7.9994777727006H6.5999086102226A1.7557281806906455 1.7557281806906455 0 0 0 8.3556367909132 6.2447940466088zM12.7350349239506 9.6622494940923A4.386709315229453 4.386709315229453 0 0 0 8.3556367909132 5.366407728964H7.4782949278674V6.2447940466088A0.8783863176447547 0.8783863176447547 0 0 1 6.5999086102226 7.1221359096547H4.92878125204A4.456687773353352 4.456687773353352 0 0 1 4.8420915203342 6.2771721391736V4.4556433187545A3.5093674521835623 3.5093674521835623 0 0 1 8.3556367909132 0.9786539591357A1.7546837260917811 1.7546837260917811 0 0 0 10.1113649716039 2.7354265944252H11.8650042430968A3.272276258241399 3.272276258241399 0 0 1 15.377505059077 6.2447940466088A3.1448527971799725 3.1448527971799725 0 0 1 12.7350349239507 9.6622494940923z" />
    <glyph glyph-name="defaults"
      unicode="&#xF109;"
      horiz-adv-x="16" d=" M3.112 9.348A2.044 2.044 0 1 0 5.156 11.392A2.046 2.046 0 0 0 3.112 9.348zM3.112 12.936A1.544 1.544 0 1 1 4.656 11.392A1.546 1.546 0 0 1 3.112 12.936z M7.945 2.582A2.044 2.044 0 1 0 9.989 4.626A2.046 2.046 0 0 0 7.945 2.582zM7.945 6.17A1.544 1.544 0 1 1 9.489 4.626A1.546 1.546 0 0 1 7.945 6.17z M12.778 6.448A2.044 2.044 0 1 0 14.822 8.492A2.046 2.046 0 0 0 12.778 6.448zM12.778 10.036A1.544 1.544 0 1 1 14.322 8.492A1.546 1.546 0 0 1 12.778 10.036z M3.112 13.186A1.777 1.777 0 0 0 3.862 13.017V14.75A0.75 0.75 0 0 1 2.362 14.75V13.017A1.777 1.777 0 0 0 3.112 13.186z M3.112 9.6A1.777 1.777 0 0 0 2.362 9.769V1.278A0.75 0.75 0 0 1 3.862 1.278V9.767A1.777 1.777 0 0 0 3.112 9.6z M7.945 6.42A1.777 1.777 0 0 0 8.695 6.251V14.75A0.75 0.75 0 0 1 7.195 14.75V6.25A1.777 1.777 0 0 0 7.945 6.42z M7.945 2.832A1.777 1.777 0 0 0 7.2 3V1.275A0.75 0.75 0 0 1 8.7 1.275V3A1.777 1.777 0 0 0 7.945 2.832z M12.778 10.286A1.777 1.777 0 0 0 13.528 10.117V14.75A0.75 0.75 0 0 1 12.028 14.75V10.117A1.777 1.777 0 0 0 12.778 10.286z M12.778 6.7A1.777 1.777 0 0 0 12.028 6.869V1.278A0.75 0.75 0 0 1 13.528 1.278V6.867A1.777 1.777 0 0 0 12.778 6.7z" />
    <glyph glyph-name="donations"
      unicode="&#xF10A;"
      horiz-adv-x="16" d=" M8.206 9.8L8 9.594L7.793 9.8A1.562 1.562 0 1 1 5.542 7.639L5.811 7.365L7.826 5.313A0.243 0.243 0 0 1 8.173 5.313L10.457 7.639A1.562 1.562 0 1 1 8.206 9.8zM15.812 13.8A0.683 0.683 0 0 1 15.348 13.971H0.677A0.7069999999999999 0.7069999999999999 0 0 1 0.2 13.8A0.519 0.519 0 0 1 0 13.392V2.916A0.533 0.533 0 0 1 0.2 2.495A0.7069999999999999 0.7069999999999999 0 0 1 0.682 2.324H15.348A0.683 0.683 0 0 1 15.812 2.495A0.533 0.533 0 0 1 16.012 2.916V13.392A0.519 0.519 0 0 1 15.812 13.8zM14.564 6.114A2.9169999999999994 2.9169999999999994 0 0 1 13.519 5.928A2.681 2.681 0 0 1 12.675 5.428A2.478 2.478 0 0 1 12.107 4.689A1.965 1.965 0 0 1 11.889 3.783H4.118A2 2 0 0 1 3.904 4.689A2.372 2.372 0 0 1 3.335 5.428A2.743 2.743 0 0 1 2.488 5.928A2.9 2.9 0 0 1 1.451 6.114V10.2A2.9 2.9 0 0 1 2.488 10.386A2.743 2.743 0 0 1 3.335 10.886A2.383 2.383 0 0 1 3.9 11.621A2 2 0 0 1 4.114 12.528H11.885A1.9659999999999997 1.9659999999999997 0 0 1 12.103 11.621A2.491 2.491 0 0 1 12.671 10.882A2.685 2.685 0 0 1 13.518 10.382A2.9360000000000004 2.9360000000000004 0 0 1 14.56 10.196z" />
    <glyph glyph-name="download"
      unicode="&#xF10B;"
      horiz-adv-x="16" d=" M15.9 4.4V1.547H0.146V4.4H1.921V3.2H14.121V4.4zM10.29 9.35L8.908 8.074V13.995H7.133V8.06L5.741 9.36L4.472 8.175L6.743 6.06L8.011 4.88H8.011L9.284 6.06L11.555 8.175z" />
    <glyph glyph-name="edit-circle-outline"
      unicode="&#xF10C;"
      horiz-adv-x="16" d=" M8.048 15.861A7.824 7.824 0 1 1 15.872 8.037A7.833 7.833 0 0 1 8.048 15.861zM8.048 0.802A7.235 7.235 0 1 0 15.282 8.037A7.244 7.244 0 0 0 8.048 0.8zM10.5 11.548A0.4580000000000001 0.4580000000000001 0 0 1 9.868 11.548L5.29 6.974A0.7340000000000001 0.7340000000000001 0 0 1 5.115 6.695L4.488 4.872A0.305 0.305 0 0 1 4.531 4.593A0.311 0.311 0 0 1 4.783 4.463A0.3 0.3 0 0 1 4.883 4.479L6.683 5.089A0.722 0.722 0 0 1 6.966 5.264L11.557 9.854A0.449 0.449 0 0 1 11.557 10.486zM6.572 5.66A0.188 0.188 0 0 0 6.506 5.619L5.183 5.172L5.644 6.513A0.191 0.191 0 0 0 5.686 6.579L8.995 9.888L9.895 8.988zM10.325 9.413L9.425 10.313L10.182 11.07L11.082 10.17z" />
    <glyph glyph-name="email-circle"
      unicode="&#xF10D;"
      horiz-adv-x="16" d=" M8 13.956A5.956 5.956 0 1 0 2.076 8A5.947000000000001 5.947000000000001 0 0 0 8 13.956M8 15.541A7.541000000000001 7.541000000000001 0 1 1 15.5 8A7.520999999999999 7.520999999999999 0 0 1 8 15.541z M4 9.745L7.626 7.985A0.6 0.6 0 0 1 8.087 7.985L12 9.919A0.2 0.2 0 0 1 12.112 10.1A0.565 0.565 0 0 1 11.55 10.664H4.458A0.573 0.573 0 0 1 3.888 10.092V9.926A0.2 0.2 0 0 1 4 9.745zM11.746 8.902L8.446 7.268A1.3999999999999997 1.3999999999999997 0 0 0 7.293 7.268L4.25 8.736A0.252 0.252 0 0 1 3.888 8.508V5.886A0.551 0.551 0 0 1 4.436 5.336H11.5A0.614 0.614 0 0 1 12.11 5.948V8.674A0.253 0.253 0 0 1 11.748 8.9z" />
    <glyph glyph-name="email-multi"
      unicode="&#xF10E;"
      horiz-adv-x="16" d=" M9.7 11.794H12.217L13.341 12.349A0.33 0.33 0 0 1 13.524 12.649A0.9249999999999999 0.9249999999999999 0 0 1 12.604 13.573H0.994A0.937 0.937 0 0 1 0.062 12.637V12.365A0.329 0.329 0 0 1 0.248 12.065L2.142 11.146A1.542 1.542 0 0 0 2.3 11.33A1.568 1.568 0 0 0 3.414 11.794z M0.062 10.04V5.749A0.8999999999999999 0.8999999999999999 0 0 1 0.962 4.849H1.84V9.842L0.655 10.414A0.414 0.414 0 0 1 0.062 10.04z M15.342 8.267L9.937 5.594A2.252 2.252 0 0 0 8.992 5.387A2.277 2.277 0 0 0 8.051 5.587L3.072 8A0.4129999999999999 0.4129999999999999 0 0 1 2.48 7.626V3.336A0.8999999999999999 0.8999999999999999 0 0 1 3.38 2.436H14.94A1 1 0 0 1 15.94 3.436V7.895A0.4129999999999999 0.4129999999999999 0 0 1 15.342 8.267z M2.48 10.216V9.943A0.331 0.331 0 0 1 2.665 9.643L8.6 6.767A0.99 0.99 0 0 1 9.354 6.767L15.754 9.929A0.329 0.329 0 0 1 15.937 10.224A0.924 0.924 0 0 1 15.018 11.148H3.412A0.936 0.936 0 0 1 2.48 10.216z" />
    <glyph glyph-name="email"
      unicode="&#xF10F;"
      horiz-adv-x="16" d=" M14.36 12.951L14.322 12.913A0.426 0.426 0 0 1 14.358 12.952z M14.36 12.951L14.322 12.913A0.426 0.426 0 0 1 14.358 12.952z M0.339 11.321L7.287 7.95A1.155 1.155 0 0 1 8.17 7.95L15.664 11.65A0.386 0.386 0 0 1 15.878 12A1.082 1.082 0 0 1 14.8 13.083H1.212A1.1 1.1 0 0 1 0.122 11.983V11.664A0.384 0.384 0 0 1 0.339 11.321zM15.181 9.706L8.853 6.576A2.638 2.638 0 0 0 7.746 6.333A2.67 2.67 0 0 0 6.646 6.57L0.815 9.388A0.483 0.483 0 0 1 0.122 8.951V3.928A1.055 1.055 0 0 1 1.171 2.873H14.71A1.174 1.174 0 0 1 15.878 4.047V9.27A0.48399999999999993 0.48399999999999993 0 0 1 15.181 9.706z" />
    <glyph glyph-name="eraser"
      unicode="&#xF110;"
      horiz-adv-x="16" d=" M0.29 1.326H14.582ANaN NaN NaN 0 0 14.766 1.326V-0.007ANaN NaN NaN 0 0 14.582 -0.007H0.29ANaN NaN NaN 0 0 0.106 -0.007V1.326ANaN NaN NaN 0 0 0.29 1.326z M15.832 10.139L10.776 15.226A0.212 0.212 0 0 1 10.476 15.226L1.129 5.846A0.213 0.213 0 0 1 1.129 5.546L4.578 2.055A0.213 0.213 0 0 1 4.729 1.992H7.942A0.213 0.213 0 0 1 8.093 2.055L15.832 9.839A0.214 0.214 0 0 1 15.832 10.139zM7.662 3.039A0.16 0.16 0 0 0 7.546 2.99H5.121A0.16400000000000003 0.16400000000000003 0 0 0 5.005 3.038L2.5 5.575A0.165 0.165 0 0 0 2.5 5.806L6.7 10.035L10.646 6.067z" />
    <glyph glyph-name="hold"
      unicode="&#xF111;"
      horiz-adv-x="16" d=" M2.085 8.025L8.04 2.07A0.1 0.1 0 0 1 8.188 2.07L14.144 8.025A0.106 0.106 0 0 1 14.144 8.173L8.188 14.128A0.1 0.1 0 0 1 8.04 14.128L2.085 8.173A0.1 0.1 0 0 1 2.085 8.025zM7.9 0.3L0.316 7.888A0.3 0.3 0 0 0 0.316 8.309L7.9 15.9A0.3 0.3 0 0 0 8.321 15.9L15.909 8.312A0.3 0.3 0 0 0 15.909 7.891L8.325 0.3A0.3 0.3 0 0 0 7.9 0.3z M5.934 10.342H7.623V5.841H5.934V10.342z M8.621 10.342H10.314V5.841H8.621V10.342z" />
    <glyph glyph-name="info-alt"
      unicode="&#xF112;"
      horiz-adv-x="16" d=" M8 15.863A7.863000000000001 7.863000000000001 0 1 1 15.863 8A7.863000000000001 7.863000000000001 0 0 1 8 15.863zM8.5 13.1A1.367 1.367 0 1 0 7.136 11.739A1.367 1.367 0 0 0 8.5 13.1zM10.2 4.081A3.262 3.262 0 0 0 7.726 3.081C5.716 3.166 6.216 5.07 6.29 5.527S6.779 8.249 6.801 8.44S7.024 8.993 6.46 9.14S5.716 9.406 5.716 9.534S5.823 9.852 6.184 9.852H8.651A0.708 0.708 0 0 0 9.351 9.052L8.53 4.772A0.572 0.572 0 0 1 9.28 4.16L10.051 4.491A0.241 0.241 0 0 0 10.205 4.086z" />
    <glyph glyph-name="info"
      unicode="&#xF113;"
      horiz-adv-x="16" d=" M10.054 4.5L9.282 4.168A0.572 0.572 0 0 0 8.531 4.781L9.353 9.069A0.7100000000000001 0.7100000000000001 0 0 1 8.653 9.869H6.182C5.82 9.869 5.714 9.677 5.714 9.549S5.895 9.304 6.459 9.155S6.822 8.644 6.8 8.455S6.364 5.994 6.289 5.536S5.714 3.172 7.727 3.086A3.264 3.264 0 0 1 10.205 4.086A0.241 0.241 0 0 1 10.054 4.5zM8.5 10.377A1.369 1.369 0 1 1 7.131 11.746A1.369 1.369 0 0 1 8.5 10.377zM8 15.863A7.863000000000001 7.863000000000001 0 1 1 15.863 8A7.863000000000001 7.863000000000001 0 0 1 8 15.863zM8 1.335A6.665 6.665 0 1 0 14.665 8A6.673000000000001 6.673000000000001 0 0 0 8 1.335z" />
    <glyph glyph-name="linked-circles"
      unicode="&#xF114;"
      horiz-adv-x="16" d=" M13.733 9.6A5.09 5.09 0 0 1 13.012 10.129A5.024 5.024 0 0 1 11.032 10.82A5.527 5.527 0 0 0 11.038 9.355A3.6700000000000004 3.6700000000000004 0 0 0 12.038 9.018A3.633 3.633 0 1 0 7.4 3.728A3.6280000000000006 3.6280000000000006 0 0 0 8.35 8.792A3.1 3.1 0 0 1 8.589 10.538A5.063 5.063 0 0 1 6.569 9.138A5.073 5.073 0 0 1 6.42 2.62A5.007 5.007 0 0 1 6.939 2.059C6.97 2.029 7.003 2.001 7.039 1.971A5.077 5.077 0 1 1 13.739 9.603z M3.2 7.494A3.63 3.63 0 0 0 6.017 13.816A4.27 4.27 0 0 0 6.817 13.633L6.881 13.61H6.881A3.437 3.437 0 0 0 8.029 12.93A3.489 3.489 0 0 0 8.842 11.87H8.842L8.868 11.818A4.317 4.317 0 0 0 9.048 11.386A3.632 3.632 0 0 0 7.667 7.209L7.567 6.924A3.141 3.141 0 0 1 7.421 5.457A5.031 5.031 0 0 1 9.059 6.471C9.183 6.586 9.302 6.707 9.414 6.833A5.168 5.168 0 0 1 10.591 11.221C10.571 11.321 10.549 11.421 10.523 11.521H10.534A5.093 5.093 0 0 1 4.491 15.167L4.491 15.167A5.082 5.082 0 0 1 2.243 6.411A5.043 5.043 0 0 1 4.9 5.178C4.881 5.325 4.868 5.478 4.861 5.626A5.688 5.688 0 0 0 4.9 6.647A3.608 3.608 0 0 0 3.2 7.494z" />
    <glyph glyph-name="merge-circle-outline"
      unicode="&#xF115;"
      horiz-adv-x="16" d=" M8 15.861A7.824 7.824 0 1 1 15.824 8.037A7.833 7.833 0 0 1 8 15.861zM8 0.8A7.235 7.235 0 1 0 15.235 8.034A7.242 7.242 0 0 0 8 0.8z M9.237 7.641A0.377 0.377 0 0 0 8.921 7.813L7.251 10.4H5.977A0.375 0.375 0 0 0 5.977 11.15H7.455A0.376 0.376 0 0 0 7.77 10.978L9.551 8.219A0.375 0.375 0 0 0 9.237 7.641z M7.455 4.884H5.977A0.375 0.375 0 0 0 5.977 5.634H7.251L8.921 8.219A0.375 0.375 0 1 0 9.551 7.813L7.77 5.056A0.376 0.376 0 0 0 7.455 4.884z M10.723 7.536H9.236A0.48 0.48 0 0 0 9.236 8.496H10.723A0.48 0.48 0 1 0 10.723 7.536z M10.5 6.688V9.326A0.172 0.172 0 0 0 10.762 9.473L12.722 8.281A0.337 0.337 0 0 0 12.722 7.702L10.764 6.539A0.172 0.172 0 0 0 10.5 6.688z M5.242 9.663A1.109 1.109 0 1 0 6.352 10.772A1.111 1.111 0 0 0 5.242 9.663zM5.242 11.131A0.359 0.359 0 1 1 5.602 10.772A0.359 0.359 0 0 1 5.242 11.131z M5.242 4.15A1.11 1.11 0 1 0 6.352 5.259A1.111 1.111 0 0 0 5.242 4.15zM5.242 5.619A0.36 0.36 0 1 1 5.602 5.259A0.36 0.36 0 0 1 5.242 5.619z" />
    <glyph glyph-name="note"
      unicode="&#xF116;"
      horiz-adv-x="16" d=" M3.253 8.262H10.306V7.206H3.253V8.262z M3.253 10.454H12.711V9.398H3.253V10.454z M3.253 12.549H12.711V11.493H3.253V12.549z M15.82 4.985A0.827 0.827 0 0 0 15.627 4.055L11.827 0.395A0.8920000000000001 0.8920000000000001 0 0 0 11.201 0.145A0.872 0.872 0 0 0 10.306 1V4.425A1.115 1.115 0 0 0 11.447 5.508H15.007A0.876 0.876 0 0 0 15.82 4.985zM11.733 2.252L13.689 4.133 M14.628 15.855H1.434A1.17 1.17 0 0 1 0.174 14.808V1.192A1.17 1.17 0 0 1 1.434 0.145H11.3L11.284 1.486H1.787V14.514H14.276V4.59H15.888V14.808A1.17 1.17 0 0 1 14.628 15.855z" />
    <glyph glyph-name="page-right-double"
      unicode="&#xF117;"
      horiz-adv-x="16.71127358182649" d=" M0 4.1757294862589L3.8237482864417 7.9994777727006L0 11.8221816045434L2.8200274169332 14.6422090214766L9.4690253933024 7.9994777727006L2.8200274169332 1.3536131601279zM7.2432926431229 4.1757294862589L10.0633200600561 1.3557020693257L16.7112735818265 7.9994777727006L10.0654089692539 14.6422090214766L7.2432926431229 11.8221816045434L11.0712187479601 7.9994777727006z" />
    <glyph glyph-name="payment-methods"
      unicode="&#xF118;"
      horiz-adv-x="16" d=" M14.9 16H2.42L4.669 14.508H13.184A0.56 0.56 0 0 0 13.761 13.968V13.96A0.56 0.56 0 0 0 13.184 13.42H6.335L7.871 12.4H13.184A0.559 0.559 0 0 0 13.761 11.86V11.853A0.559 0.559 0 0 0 13.184 11.313H9.616L9.669 11.277A1.9880000000000002 1.9880000000000002 0 0 0 10.561 9.615V4.954H14.9A0.721 0.721 0 0 1 15.621 5.676V15.278A0.721 0.721 0 0 1 14.9 16z M9.265 10.413L0.937 15.94A0.358 0.358 0 0 1 0.381 15.64V7.553A1.171 1.171 0 0 1 0.832 6.629L9.115 0.167A0.358 0.358 0 0 1 9.693 0.449V9.616A0.955 0.955 0 0 1 9.265 10.413z" />
    <glyph glyph-name="person-cog"
      unicode="&#xF119;"
      horiz-adv-x="16" d=" M9.488 1.481L9.742 1.912C9.714 1.973 9.689 2.035 9.665 2.098L9.18 2.22A0.524 0.524 0 0 0 8.785 2.727V3.788A0.522 0.522 0 0 0 9.18 4.294L9.667 4.418Q9.701 4.509 9.742 4.598L9.484 5.03A0.522 0.522 0 0 0 9.562 5.668L9.962 6.068A2.485 2.485 0 0 0 9.762 7.103C9.762 7.932 10.403 7.661 10.684 9.179C10.801 9.809 11.367 9.189 11.475 10.627C11.475 11.2 11.166 11.343 11.166 11.343S11.323 12.191 11.385 12.843C11.458 13.652 10.912 15.753 8 15.753S4.542 13.653 4.618 12.839C4.68 12.187 4.837 11.339 4.837 11.339S4.528 11.196 4.528 10.623C4.636 9.185 5.202 9.805 5.318 9.175C5.6 7.657 6.24 7.928 6.24 7.1C6.24 5.719 5.57 5.074 3.472 4.309S0 2.759 0 2.226V0.434H9.98L9.568 0.846A0.522 0.522 0 0 0 9.488 1.481z M16 2.754V3.773L15.267 3.957A2.588 2.588 0 0 1 15.011 4.572L15.395 5.223L14.673 5.945L14.024 5.556A2.822 2.822 0 0 1 13.409 5.811L13.229 6.537H12.212L12.027 5.804A2.6 2.6 0 0 1 11.412 5.549L10.762 5.933L10.045 5.216L10.435 4.566A2.8339999999999996 2.8339999999999996 0 0 1 10.179 3.951L9.446 3.767V2.748L10.179 2.564A2.63 2.63 0 0 1 10.435 1.949L10.051 1.298L10.773 0.576L11.423 0.965A2.846 2.846 0 0 1 12.037 0.709L12.228 -0.022H13.235L13.42 0.709A2.63 2.63 0 0 1 14.035 0.965L14.685 0.581L15.407 1.304L15.018 1.954A2.8339999999999996 2.8339999999999996 0 0 1 15.274 2.569zM12.725 1.817H12.725A1.4449999999999998 1.4449999999999998 0 1 0 14.17 3.261A1.444 1.444 0 0 0 12.723 1.817z" />
    <glyph glyph-name="person-group"
      unicode="&#xF11A;"
      horiz-adv-x="16" d=" M16.025 1.08A22.683000000000003 22.683000000000003 0 0 1 15.808 4.423C15.533 4.891 14.891 5.212 13.701 5.71S12.135 6.625 12.135 7.521C12.135 8.059 12.497 7.883 12.657 8.868C12.723 9.277 13.043 8.875 13.104 9.807C13.104 10.179 12.929 10.271 12.929 10.271S13.018 10.821 13.052 11.244A1.7800000000000002 1.7800000000000002 0 0 1 11.139 13.134A1.7800000000000002 1.7800000000000002 0 0 1 9.226 11.244C9.261 10.82 9.349 10.271 9.349 10.271S9.176 10.179 9.176 9.807C9.237 8.874 9.557 9.276 9.623 8.868C9.782 7.883 10.145 8.059 10.145 7.521A1.448 1.448 0 0 0 9.483 6.181C12.076 4.881 12.423 4.619 12.423 3.459V1.08zM8.2 5.26C6.618 5.921 6.112 6.479 6.112 7.674C6.112 8.391 6.595 8.157 6.812 9.474C6.9 10.019 7.327 9.483 7.412 10.727C7.412 11.227 7.179 11.346 7.179 11.346S7.297 12.079 7.344 12.646A2.373 2.373 0 0 1 4.788 15.16A2.373 2.373 0 0 1 2.238 12.639C2.284 12.074 2.402 11.339 2.402 11.339S2.17 11.216 2.17 10.72C2.252 9.477 2.678 10.013 2.77 9.468C2.982 8.155 3.465 8.389 3.465 7.668C3.465 6.474 2.959 5.916 1.377 5.254C0.895 5.054 0.029 4.74 0.029 3.989V1.08H11.14V3.265C11.14 3.951 9.791 4.6 8.2 5.26z" />
    <glyph glyph-name="person"
      unicode="&#xF11B;"
      horiz-adv-x="16" d=" M12.528 3.853C10.428 4.618 9.759 5.263 9.759 6.644C9.759 7.473 10.4 7.202 10.681 8.72C10.798 9.35 11.364 8.731 11.472 10.168C11.472 10.741 11.163 10.884 11.163 10.884S11.32 11.732 11.382 12.384C11.458 13.2 10.912 15.3 8 15.3S4.542 13.2 4.618 12.384C4.68 11.732 4.837 10.884 4.837 10.884S4.528 10.741 4.528 10.168C4.636 8.731 5.202 9.35 5.318 8.72C5.6 7.2 6.24 7.473 6.24 6.644C6.24 5.263 5.57 4.618 3.472 3.853S0 2.3 0 1.771V-0.021H16V1.771C16 2.3 14.633 3.086 12.528 3.853z" />
    <glyph glyph-name="pledge-calendar"
      unicode="&#xF11C;"
      horiz-adv-x="16" d=" M3.1 3.338A0.429 0.429 0 0 0 2.973 3.643V14.229A0.43399999999999994 0.43399999999999994 0 0 0 3.4 14.661H10.943A0.43399999999999994 0.43399999999999994 0 0 0 11.375 14.229V7.515H11.9V14.229A0.952 0.952 0 0 1 10.95 15.18H3.4A0.952 0.952 0 0 1 2.45 14.229V3.643A0.952 0.952 0 0 1 3.4 2.692H7.46V3.21H3.4A0.43299999999999994 0.43299999999999994 0 0 0 3.1 3.338z M10.2 12.752A0.26 0.26 0 0 1 9.94 13.011H4.24A0.26 0.26 0 0 1 4.24 12.492H9.94A0.26 0.26 0 0 1 10.2 12.752z M4.246 10.95H7.946A0.26 0.26 0 0 1 7.946 11.469H4.246A0.26 0.26 0 0 1 4.246 10.95z M9.243 9.668A0.259 0.259 0 0 1 8.984 9.927H4.246A0.26 0.26 0 0 1 4.246 9.408H8.984A0.259 0.259 0 0 1 9.243 9.668z M4.246 8.385A0.26 0.26 0 0 1 4.246 7.866H6.909A0.26 0.26 0 1 1 6.909 8.385z M12.828 6.976V6.286A0.519 0.519 0 0 0 11.791 6.286V7H10.243V6.29A0.519 0.519 0 1 0 9.206 6.29V6.98A1.472 1.472 0 0 1 7.967 5.531V2.293A1.472 1.472 0 0 1 9.436 0.82H12.609A1.471 1.471 0 0 1 14.067 2.288V5.527A1.472 1.472 0 0 1 12.828 6.976zM9.448 1.339H9.436A0.954 0.954 0 0 0 8.485 2.289V4.944H13.549V2.289A0.954 0.954 0 0 0 12.598 1.339z M9.725 7.448A0.259 0.259 0 0 1 9.465 7.189V6.289A0.26 0.26 0 1 1 9.984 6.289V7.189A0.259 0.259 0 0 1 9.725 7.448z M12.309 6.026A0.259 0.259 0 0 1 12.569 6.286V7.186A0.26 0.26 0 0 1 12.05 7.186V6.286A0.259 0.259 0 0 1 12.309 6.026z M9.433 4.127L9.534 3.729L9.92 3.823L9.92 3.21L9.92 2.692L9.92 2.088L10.4 2.088L10.4 2.692L10.4 3.21L10.4 4.316L10.069 4.316L9.433 4.127z M11.9 4.334C11.863 4.334 11.824 4.339 11.783 4.339A0.949 0.949 0 0 1 11.383 4.252A0.738 0.738 0 0 1 10.94 3.564V3.558A0.752 0.752 0 0 1 11.018 3.217A0.669 0.669 0 0 1 11.501 2.869A1.108 1.108 0 0 1 11.73 2.844A0.672 0.672 0 0 1 12.173 3C12.141 2.7 11.996 2.5 11.724 2.5A0.714 0.714 0 0 0 11.241 2.69L10.985 2.32A1.066 1.066 0 0 1 11.712 2.058C12.34 2.058 12.679 2.547 12.679 3.265V3.271A1.1 1.1 0 0 1 12.416 4.105A0.757 0.757 0 0 1 11.9 4.334zM12.187 3.577A0.333 0.333 0 0 0 11.813 3.249H11.813C11.573 3.249 11.427 3.385 11.427 3.581V3.587A0.334 0.334 0 0 0 11.804 3.922A0.54 0.54 0 0 0 11.904 3.912A0.325 0.325 0 0 0 12.191 3.584z" />
    <glyph glyph-name="pledge-check"
      unicode="&#xF11D;"
      horiz-adv-x="16" d=" M3.559 14.376A0.4 0.4 0 0 0 3.842 14.494H10.842A0.4 0.4 0 0 0 11.125 14.376A0.4580000000000001 0.4580000000000001 0 0 0 11.16 14.334H11.69A0.885 0.885 0 0 1 10.842 14.975H3.842A0.884 0.884 0 0 1 2.959 14.093V4.27A0.883 0.883 0 0 1 3.601 3.422V3.952A0.4580000000000001 0.4580000000000001 0 0 0 3.559 3.987A0.4 0.4 0 0 0 3.441 4.27V14.093A0.4 0.4 0 0 0 3.559 14.376z M4.8 2.906A0.4 0.4 0 0 0 4.4 3.306V13.13A0.4 0.4 0 0 0 4.8 13.53H11.8A0.4 0.4 0 0 0 12.083 13.412A0.4 0.4 0 0 0 12.201 13.129V7.022A3.263 3.263 0 0 0 12.682 6.96V13.13A0.885 0.885 0 0 1 11.8 14.013H4.8A0.884 0.884 0 0 1 3.918 13.13V3.307A0.883 0.883 0 0 1 4.8 2.425H9.07A3.285 3.285 0 0 0 8.89 2.906z M11.113 11.759A0.241 0.241 0 0 1 10.873 12H5.587A0.241 0.241 0 0 1 5.587 11.519H10.873A0.24 0.24 0 0 1 11.113 11.759z M5.587 10.088H9.021A0.241 0.241 0 0 1 9.021 10.569H5.587A0.241 0.241 0 0 1 5.587 10.088z M10.224 8.9A0.24 0.24 0 0 1 9.983 9.14H5.583A0.241 0.241 0 0 1 5.583 8.659H9.983A0.241 0.241 0 0 1 10.224 8.9z M8.3 7.467A0.241 0.241 0 0 1 8.059 7.708H5.587A0.241 0.241 0 0 1 5.587 7.226H8.058A0.241 0.241 0 0 1 8.3 7.467z M13.968 5.741A2.749 2.749 0 0 1 13.006 6.365C12.953 6.385 12.899 6.404 12.845 6.421S12.739 6.451 12.685 6.465A2.816 2.816 0 0 1 12.204 6.541C12.141 6.541 12.078 6.55 12.015 6.55A2.617 2.617 0 0 1 11.722 6.533A2.753 2.753 0 0 1 9.256 3.869A2.76 2.76 0 0 1 9.614 2.425C9.645 2.371 9.675 2.317 9.709 2.265S9.786 2.157 9.827 2.104A2.956 2.956 0 0 1 10.061 1.834A2.7629999999999995 2.7629999999999995 0 0 1 13.968 5.741zM14.26 3.392C14.26 3.378 14.26 3.364 14.254 3.35C14.242 3.287 14.226 3.226 14.209 3.165L14.202 3.136C14.184 3.076 14.162 3.017 14.14 2.959L14.128 2.927C14.105 2.871 14.079 2.817 14.052 2.763L14.034 2.724C14.006 2.672 13.975 2.624 13.944 2.572C13.935 2.558 13.928 2.544 13.919 2.53C13.885 2.479 13.847 2.43 13.809 2.381C13.8 2.369 13.792 2.357 13.783 2.346A2.23 2.23 0 0 0 13.456 2.019L13.414 1.988C13.368 1.952 13.321 1.916 13.273 1.888C13.257 1.877 13.239 1.868 13.223 1.858C13.176 1.828 13.123 1.799 13.079 1.773C13.064 1.765 13.049 1.759 13.034 1.752C12.982 1.726 12.934 1.7 12.876 1.678L12.842 1.666A1.8300000000000003 1.8300000000000003 0 0 0 12.666 1.605L12.639 1.598C12.577 1.58 12.515 1.564 12.452 1.552L12.417 1.547C12.357 1.536 12.296 1.527 12.235 1.521S12.089 1.51 12.015 1.51S11.867 1.51 11.794 1.521S11.673 1.536 11.613 1.547L11.577 1.552C11.515 1.564 11.453 1.58 11.392 1.597L11.363 1.605C11.304 1.622 11.246 1.643 11.189 1.665L11.154 1.678C11.1 1.7 11.048 1.725 10.997 1.751L10.951 1.773C10.902 1.798 10.851 1.827 10.809 1.856L10.756 1.888C10.71 1.919 10.665 1.954 10.62 1.988L10.573 2.023C10.541 2.05 10.51 2.08 10.479 2.108S10.426 2.153 10.402 2.178S10.347 2.238 10.32 2.269L10.284 2.308C10.25 2.347 10.219 2.388 10.184 2.429A2.225 2.225 0 0 0 9.908 2.91A2.283 2.283 0 0 0 9.767 3.391A2.365 2.365 0 0 0 9.734 3.873A2.275 2.275 0 0 0 10.256 5.248C10.301 5.302 10.347 5.354 10.398 5.405A2.277 2.277 0 0 0 10.569 5.56C10.584 5.572 10.6 5.582 10.616 5.594C10.661 5.629 10.706 5.664 10.753 5.694C10.769 5.705 10.787 5.714 10.804 5.725C10.851 5.754 10.898 5.783 10.947 5.809L11 5.828C11.052 5.854 11.1 5.879 11.157 5.901L11.195 5.914C11.211 5.921 11.228 5.926 11.245 5.932C11.286 5.947 11.326 5.962 11.367 5.974L11.398 5.982C11.459 5.999 11.519 6.015 11.581 6.027L11.62 6.032C11.655 6.039 11.691 6.044 11.726 6.048S11.774 6.056 11.798 6.058C11.871 6.065 11.945 6.069 12.019 6.069S12.145 6.069 12.208 6.06L12.239 6.06C12.3 6.054 12.359 6.045 12.419 6.034L12.456 6.029C12.519 6.017 12.58 6.001 12.641 5.984L12.67 5.976L12.689 5.971C12.742 5.955 12.789 5.935 12.844 5.915H12.849L12.88 5.904C12.924 5.886 12.967 5.865 13.01 5.844L13.038 5.83C13.053 5.823 13.068 5.817 13.083 5.809C13.132 5.783 13.183 5.754 13.226 5.724L13.277 5.694C13.325 5.662 13.377 5.626 13.418 5.594L13.46 5.563C13.519 5.514 13.577 5.463 13.632 5.408H13.632A2.283 2.283 0 0 0 13.787 5.235C13.796 5.225 13.803 5.213 13.812 5.203C13.851 5.153 13.888 5.103 13.923 5.052C13.932 5.038 13.939 5.023 13.948 5.009C13.98 4.959 14.01 4.909 14.038 4.858L14.056 4.819C14.083 4.765 14.109 4.711 14.132 4.655L14.144 4.623C14.166 4.565 14.188 4.506 14.206 4.446L14.213 4.417C14.23 4.356 14.246 4.295 14.258 4.232C14.258 4.218 14.258 4.204 14.264 4.19C14.274 4.132 14.284 4.074 14.289 4.015S14.3 3.869 14.3 3.794S14.3 3.647 14.289 3.574S14.27 3.45 14.26 3.392z M13.006 4.579A0.233 0.233 0 0 1 12.906 4.523L12.842 4.459L12.682 4.298L12.201 3.817L11.773 3.389L11.487 3.675L11.244 3.918A0.252 0.252 0 0 1 10.904 3.918A0.191 0.191 0 0 1 10.874 3.872A0.221 0.221 0 0 1 10.837 3.772V3.731A0.24 0.24 0 0 1 10.904 3.581L11.063 3.422L11.575 2.91L11.602 2.883A0.24 0.24 0 0 1 11.943 2.883L12.682 3.622L12.842 3.782L13.003 3.943L13.247 4.187A0.23900000000000002 0.23900000000000002 0 0 1 13.003 4.587z M5.808 4.64A0.844 0.844 0 0 1 6.202 4.533A0.8709999999999999 0.8709999999999999 0 0 1 6.484 4.585C6.573 4.616 6.659 4.655 6.753 4.697A0.389 0.389 0 0 0 6.895 4.745H6.895A0.36 0.36 0 0 0 7.067 4.676A1.747 1.747 0 0 1 7.325 4.525A0.944 0.944 0 0 1 7.687 4.442A1.038 1.038 0 0 1 8.027 4.51A0.16 0.16 0 0 1 7.927 4.81A0.735 0.735 0 0 0 7.692 4.76A0.618 0.618 0 0 0 7.452 4.819A1.6399999999999997 1.6399999999999997 0 0 0 7.242 4.945A0.668 0.668 0 0 1 6.912 5.063H6.9A0.666 0.666 0 0 1 6.627 4.987C6.533 4.945 6.453 4.909 6.385 4.887A0.553 0.553 0 0 0 6.207 4.852A0.43699999999999994 0.43699999999999994 0 0 0 6.043 4.886C6.097 4.918 6.152 4.947 6.204 4.986A1.332 1.332 0 0 1 6.522 5.311A0.845 0.845 0 0 1 6.692 5.782A0.52 0.52 0 0 1 6.669 5.937A0.48799999999999993 0.48799999999999993 0 0 1 6.469 6.209A0.537 0.537 0 0 1 6.175 6.289A0.8999999999999999 0.8999999999999999 0 0 1 5.739 6.166A0.764 0.764 0 0 1 5.427 5.866A0.8679999999999999 0.8679999999999999 0 0 1 5.336 5.472A0.923 0.923 0 0 1 5.477 4.972A3.058 3.058 0 0 0 4.955 4.824A0.16 0.16 0 1 1 5.013 4.509A3.291 3.291 0 0 1 5.702 4.718A0.8459999999999999 0.8459999999999999 0 0 1 5.808 4.64zM5.681 5.276A0.643 0.643 0 0 0 5.653 5.466A0.566 0.566 0 0 0 5.709 5.716A0.466 0.466 0 0 0 5.893 5.886A0.6 0.6 0 0 0 6.171 5.968A0.216 0.216 0 0 0 6.291 5.938A0.16100000000000003 0.16100000000000003 0 0 0 6.358 5.838A0.22300000000000003 0.22300000000000003 0 0 0 6.366 5.778A0.54 0.54 0 0 0 6.254 5.49A1.053 1.053 0 0 0 6.016 5.245A2.467 2.467 0 0 0 5.768 5.096A0.634 0.634 0 0 0 5.681 5.276z M6.91 5.066L6.91 5.066L6.911 5.066L6.91 5.066z" />
    <glyph glyph-name="pledge-pencil"
      unicode="&#xF11E;"
      horiz-adv-x="16" d=" M11.592 2.664A0.439 0.439 0 0 0 11.156 2.228H3.556A0.43699999999999994 0.43699999999999994 0 0 0 3.12 2.664V13.336A0.43699999999999994 0.43699999999999994 0 0 0 3.556 13.772H11.156A0.439 0.439 0 0 0 11.592 13.336V9.683L12.115 10.206V13.336A0.9609999999999999 0.9609999999999999 0 0 1 11.156 14.295H3.556A0.9609999999999999 0.9609999999999999 0 0 1 2.597 13.336V2.664A0.9609999999999999 0.9609999999999999 0 0 1 3.556 1.705H11.156A0.9609999999999999 0.9609999999999999 0 0 1 12.115 2.664V5.381L11.592 4.859z M10.407 11.847A0.261 0.261 0 0 1 10.145 12.108H4.4A0.262 0.262 0 0 1 4.4 11.585H10.142A0.262 0.262 0 0 1 10.407 11.847z M4.4 10.031H8.134A0.261 0.261 0 0 1 8.134 10.553H4.4A0.261 0.261 0 0 1 4.4 10.031z M9.441 8.738A0.261 0.261 0 0 1 9.179 9H4.4A0.262 0.262 0 0 1 4.4 8.477H9.179A0.262 0.262 0 0 1 9.441 8.738z M7.35 7.183A0.262 0.262 0 0 1 7.088 7.445H4.4A0.262 0.262 0 0 1 4.4 6.922H7.088A0.262 0.262 0 0 1 7.35 7.183z M13.436 10.44L13.436 10.44L13.436 10.44L13.436 10.44z M14.751 9.272V9.272A0.825 0.825 0 0 1 14.52 9.747H14.52L14.071 10.2H14.071A0.835 0.835 0 0 1 13.477 10.442H13.436C13.412 10.442 13.388 10.435 13.364 10.432A0.9570000000000001 0.9570000000000001 0 0 1 13.223 10.401C13.199 10.394 13.176 10.388 13.153 10.38A0.9829999999999999 0.9829999999999999 0 0 1 12.805 10.159H12.805L12.436 9.79H12.436L12.144 9.498L12.115 9.469L11.944 9.298L11.592 8.946L9.88 7.232L8.38 5.732H8.38A0.5 0.5 0 0 1 8.334 5.675A0.409 0.409 0 0 1 8.296 5.607L8.291 5.597H8.291V5.597H8.291L8.13 5.208L8.092 5.115L7.642 4.03H7.642A0.574 0.574 0 0 1 7.603 3.853A0.3 0.3 0 0 1 7.603 3.811H7.603A0.551 0.551 0 0 1 7.623 3.666L7.623 3.656L7.63 3.637A0.517 0.517 0 0 1 7.691 3.512H7.691A0.53 0.53 0 0 1 8.134 3.277H8.159A0.444 0.444 0 0 1 8.208 3.284A0.538 0.538 0 0 1 8.355 3.321H8.355L9.921 3.968L9.921 3.968L9.934 3.975L9.94 3.975A0.4 0.4 0 0 1 10 4.014A0.44299999999999995 0.44299999999999995 0 0 1 10.054 4.057H10.054L10.054 4.057L11.592 5.6L12.115 6.123L13.586 7.594L13.617 7.625L14.109 8.117H14.109L14.188 8.196L14.478 8.486H14.478A1.031 1.031 0 0 1 14.632 8.693L14.639 8.706A0.943 0.943 0 0 1 14.761 9.117H14.761V9.157H14.761A0.893 0.893 0 0 1 14.751 9.272zM11.592 8.292L12.115 8.815L12.27 8.971L12.6 9.3L12.644 9.256L13.577 8.322L13.622 8.278L13.293 7.949L12.115 6.772L11.592 6.249L9.892 4.549L9.848 4.593L8.915 5.526L8.871 5.57zM8.175 3.747L8.155 3.747L8.137 3.747H8.115A0.076 0.076 0 0 0 8.085 3.76A0.06099999999999999 0.06099999999999999 0 0 0 8.07 3.773H8.07A0.078 0.078 0 0 0 8.058 3.816H8.058A0.108 0.108 0 0 0 8.067 3.86H8.067L8.5 4.9L8.611 5.168L8.658 5.121L8.658 5.121L9.442 4.338L9.489 4.29L8.347 3.818L8.171 3.746zM13.955 8.612L13.946 8.603L13.9 8.648H13.9L12.966 9.581L12.922 9.625L13.128 9.831A0.5 0.5 0 0 0 13.445 9.979H13.486A0.417 0.417 0 0 0 13.557 9.971A0.36499999999999994 0.36499999999999994 0 0 0 13.743 9.871H13.743L13.851 9.762L13.935 9.678L14.192 9.422H14.192A0.366 0.366 0 0 0 14.276 9.283A0.412 0.412 0 0 0 14.297 9.164V9.153H14.297V9.134H14.297L14.297 9.113V9.113A0.523 0.523 0 0 0 14.28 9.027A0.534 0.534 0 0 0 14.151 8.81H14.151z M7.687 3.511L7.687 3.511L7.687 3.511L7.687 3.511L7.687 3.51L7.687 3.511L7.687 3.511L7.687 3.511L7.687 3.511L7.687 3.511z M5.841 4.574L5.841 4.574L5.842 4.574L5.841 4.574z M4.644 4.111A0.926 0.926 0 0 1 5.071 4A0.914 0.914 0 0 1 5.378 4.057C5.478 4.09 5.568 4.133 5.67 4.178A0.42 0.42 0 0 0 5.824 4.23H5.824A0.385 0.385 0 0 0 6.011 4.155A1.9000000000000001 1.9000000000000001 0 0 1 6.292 3.991A0.9940000000000001 0.9940000000000001 0 0 1 6.684 3.901A1.117 1.117 0 0 1 7.054 3.975A0.145 0.145 0 0 1 7.088 3.995A0.17099999999999999 0.17099999999999999 0 0 1 7.162 4.195A0.159 0.159 0 0 1 7.149 4.217A0.172 0.172 0 0 1 6.94 4.303A0.805 0.805 0 0 0 6.684 4.248A0.66 0.66 0 0 0 6.424 4.313A1.8070000000000002 1.8070000000000002 0 0 0 6.196 4.449A0.722 0.722 0 0 1 5.838 4.577H5.824A0.6999999999999998 0.6999999999999998 0 0 1 5.524 4.495C5.424 4.449 5.335 4.411 5.261 4.385A0.6 0.6 0 0 0 5.067 4.348A0.47300000000000003 0.47300000000000003 0 0 0 4.889 4.384C4.948 4.419 5.008 4.451 5.064 4.49A1.45 1.45 0 0 1 5.41 4.842A0.9280000000000002 0.9280000000000002 0 0 1 5.594 5.354A0.55 0.55 0 0 1 5.569 5.523A0.528 0.528 0 0 1 5.353 5.818A0.587 0.587 0 0 1 5.033 5.906A0.988 0.988 0 0 1 4.56 5.772A0.834 0.834 0 0 1 4.221 5.44A0.949 0.949 0 0 1 4.121 5.012A1.062 1.062 0 0 1 4.167 4.705A1.075 1.075 0 0 1 4.274 4.471A3.378 3.378 0 0 0 3.707 4.31A0.174 0.174 0 1 1 3.771 3.968A3.5770000000000004 3.5770000000000004 0 0 1 4.519 4.196A0.8459999999999999 0.8459999999999999 0 0 1 4.644 4.111zM4.506 4.8A0.6999999999999998 0.6999999999999998 0 0 0 4.475 5.007A0.6 0.6 0 0 0 4.536 5.279A0.5 0.5 0 0 0 4.736 5.463A0.641 0.641 0 0 0 5.036 5.552A0.24199999999999997 0.24199999999999997 0 0 0 5.167 5.52A0.177 0.177 0 0 0 5.239 5.415A0.2 0.2 0 0 0 5.249 5.349A0.6 0.6 0 0 0 5.126 5.036A1.108 1.108 0 0 0 4.868 4.771A2.592 2.592 0 0 0 4.599 4.609A0.667 0.667 0 0 0 4.506 4.8z" />
    <glyph glyph-name="print"
      unicode="&#xF11F;"
      horiz-adv-x="16.71127358182649" d=" M15.2051700502644 3.8634375611985L15.1895032312814 9.049154644559A1.2993015209870094 1.2993015209870094 0 0 1 13.8745348913114 10.3296559827665H12.6880344670018V11.5756903192114L9.5369149422286 14.0938703570729H4.0190612964293V10.333833801162H2.8200274169332A1.2993015209870094 1.2993015209870094 0 0 1 1.5061035315621 9.041843462367L1.5217703505451 3.8634375611985H4.0190612964293V1.9061296429271H12.6880344670018V3.8634375611985zM4.9329590704354 13.216528494027H8.9457536392715V11.0847966577453H11.8388928781252V8.7399960832953H4.9329590704354V13.216528494027zM11.8388928781252 2.8221163261309H4.9329590704354V5.1105163522423H11.8388928781252V2.8221163261309z" />
    <glyph glyph-name="printer-circle"
      unicode="&#xF120;"
      horiz-adv-x="16" d=" M8 13.956A5.956 5.956 0 1 0 2.076 8A5.947000000000001 5.947000000000001 0 0 0 8 13.956M8 15.541A7.541000000000001 7.541000000000001 0 1 1 15.5 8A7.520999999999999 7.520999999999999 0 0 1 8 15.541z M12.053 5.495L12.043 8.635A0.778 0.778 0 0 1 11.265 9.411H10.565V10.166L8.7 11.691H5.434V9.411H4.725A0.7790000000000001 0.7790000000000001 0 0 1 3.947 8.631L3.957 5.495H5.434V4.309H10.563V5.495zM5.975 11.16H8.349V9.869H10.061V8.448H5.975V11.16zM10.061 4.86H5.975V6.25H10.061V4.864z" />
    <glyph glyph-name="recurring"
      unicode="&#xF121;"
      horiz-adv-x="16" d=" M7.562 4.4A3.1690000000000005 3.1690000000000005 0 0 0 8.191 7.92A3.066 3.066 0 0 0 11.665 8.558L11.699 8.546L11.113 8.08A0.574 0.574 0 0 1 11.018 7.28A0.557 0.557 0 0 1 11.808 7.18L13.292 8.36A0.577 0.577 0 0 1 13.492 8.925L13.11 10.812A0.563 0.563 0 0 1 12.445 11.254A0.57 0.57 0 0 1 12.009 10.58L12.187 9.712L12.174 9.72A4.294 4.294 0 0 1 7.309 8.82A4.439 4.439 0 0 1 6.422 3.89A0.622 0.622 0 0 1 6.993 3.513A0.611 0.611 0 0 1 7.246 3.568A0.636 0.636 0 0 1 7.562 4.4zM14.382 7.476A0.623 0.623 0 0 1 13.557 7.798A0.637 0.637 0 0 1 13.239 6.962A3.1699999999999995 3.1699999999999995 0 0 0 12.61 3.442A3.06 3.06 0 0 0 9.21 2.774L9.795 3.238A0.575 0.575 0 0 1 9.895 4.038A0.557 0.557 0 0 1 9.106 4.138L7.618 2.958A0.576 0.576 0 0 1 7.418 2.393L7.8 0.515A0.564 0.564 0 0 1 8.35 0.061A0.579 0.579 0 0 1 8.466 0.073A0.571 0.571 0 0 1 8.902 0.747L8.724 1.61A4.364 4.364 0 0 1 10.433 1.257A4.29 4.29 0 0 1 13.5 2.549A4.448 4.448 0 0 1 14.382 7.48zM2.208 12.062H12.288V14.24A0.657 0.657 0 0 1 11.637 14.899H10.174V15.387A0.6 0.6 0 0 1 9.58 15.987H9.142A0.6 0.6 0 0 1 8.548 15.387V14.9H4.972V15.387A0.6 0.6 0 0 1 4.378 15.987H3.94A0.6 0.6 0 0 1 3.346 15.387V14.9H1.883A0.6560000000000001 0.6560000000000001 0 0 1 1.233 14.241V4.355A0.657 0.657 0 0 1 1.883 3.695H4.937V4.811H2.208z" />
    <glyph glyph-name="stripe-link"
      unicode="&#xF122;"
      horiz-adv-x="16" d=" M14.652 6.112L13.556 6.112L13.556 2.444L2.392 2.444L2.392 13.608L6.06 13.608L6.06 14.704L6.06 16L0 16L0 0.052L15.948 0.052L15.948 6.112L14.652 6.112z M8.612 16L8.612 15.9L11.448 13.053L10.514 12.097L12.28 10.4L13.2 11.302L15.848 8.664L15.948 8.664L15.948 16L8.612 16z M7.447 9.528C7.447 9.846 7.712 9.969 8.139 9.969A4.57 4.57 0 0 0 10.164 9.445V11.362A5.384 5.384 0 0 1 8.141 11.735C6.489 11.735 5.388 10.872 5.388 9.435C5.388 7.181 8.488 7.547 8.488 6.575C8.488 6.199 8.161 6.075 7.707 6.075A5.137 5.137 0 0 0 5.479 6.725V4.78A5.644 5.644 0 0 1 7.705 4.317C9.398 4.317 10.565 5.154 10.565 6.617C10.56 9.047 7.447 8.612 7.447 9.528z" />
    <glyph glyph-name="trash-circle-outline"
      unicode="&#xF123;"
      horiz-adv-x="16" d=" M8.048 15.861A7.824 7.824 0 1 1 15.872 8.037A7.833 7.833 0 0 1 8.048 15.861zM8.048 0.802A7.235 7.235 0 1 0 15.282 8.037A7.244 7.244 0 0 0 8.048 0.8z M11.112 10.2H9.512V11.322A0.336 0.336 0 0 1 9.176 11.658H6.94A0.337 0.337 0 0 1 6.603 11.322V10.2H5A0.336 0.336 0 0 1 5 9.528H5.518V4.709A0.337 0.337 0 0 1 5.854 4.373H10.254A0.337 0.337 0 0 1 10.591 4.709V9.527H11.109A0.336 0.336 0 0 1 11.109 10.199zM7.276 10.986H8.841V10.2H7.276zM9.922 5.045H6.2V9.527H9.922z M8.788 5.474A0.332 0.332 0 0 1 9.12 5.8V8.787A0.332 0.332 0 1 1 8.457 8.787V5.8A0.331 0.331 0 0 1 8.788 5.474z M7.328 5.474A0.331 0.331 0 0 1 7.659 5.805V8.787A0.331 0.331 0 1 1 6.997 8.787V5.8A0.331 0.331 0 0 1 7.328 5.474z" />
  </font>
</defs>
</svg>
